<svg xmlns="http://www.w3.org/2000/svg" width="48" height="48"><path d="M44 42V6c0-1.108-.892-2-2-2H14c-1.108 0-2 .892-2 2v36c0 1.108.892 2 2 2h28c1.108 0 2-.892 2-2" style="fill:#e4e4e4"/><path d="M17 11v2h12v-2zm14 0v2h8v-2zM17 16v2h17v-2zm19 0v2h3v-2zM17 21v2h8v-2zm10 0v2h12v-2z" style="fill:#4c4c4c"/><path d="M14 4c-1.108 0-2 .892-2 2v1c0-1.108.892-2 2-2h28c1.108 0 2 .892 2 2V6c0-1.108-.892-2-2-2Z" style="opacity:.2;fill:#fff"/><path d="M12 42v1c0 1.108.892 2 2 2h28c1.108 0 2-.892 2-2v-1c0 1.108-.892 2-2 2H14c-1.108 0-2-.892-2-2" style="opacity:.2"/><path d="M6 25c-1.108 0-2 .892-2 2v16c0 1.108.892 2 2 2h28c1.108 0 2-.892 2-2V27c0-1.108-.892-2-2-2Z" style="opacity:.2"/><path d="M6 24c-1.108 0-2 .892-2 2v16c0 1.108.892 2 2 2h28c1.108 0 2-.892 2-2V26c0-1.108-.892-2-2-2Z" style="fill:#3daee9"/><path d="M4 26h32v4H4Z" style="fill:#194d6f"/><path d="M6.5 33c-.277 0-.5.223-.5.5v3c0 .277.223.5.5.5h5c.277 0 .5-.223.5-.5v-3c0-.277-.223-.5-.5-.5Z" style="opacity:.2"/><path d="M6.5 32c-.277 0-.5.223-.5.5v3c0 .277.223.5.5.5h5c.277 0 .5-.223.5-.5v-3c0-.277-.223-.5-.5-.5Z" style="fill:#fff"/><path d="M11 39v1h4v-1Zm5 0v1h4v-1Zm5 0v1h4v-1Zm5 0v1h4v-1Z" style="fill:#1f5b83"/></svg>