<svg xmlns="http://www.w3.org/2000/svg" width="48" height="48"><path d="M12.9 4v40H38c1.108 0 2-.892 2-2V6c0-1.108-.892-2-2-2z" style="fill:#e4e4e4"/><path d="M13 4v13h27V6c0-1.108-.892-2-2-2z" style="opacity:.1"/><path d="M15 7v2h2V7Zm4 0v2h5V7Zm7 0v2h6V7Zm7 3v1h5v-1Zm-18 2v2h5v-2Zm7 0v2h8v-2Zm-7 9v2h4v-2Zm6 0v2h2v-2Zm4 0v2h5v-2Zm10 1v2h-2v1h2v2h1v-2h2v-1h-2v-2Zm-20 4v2h2v-2Zm4 0v2h2v-2Zm4 0v2h3v-2Zm-8 10v2h6v-2Zm8 0v2h2v-2Zm4 0v2h3v-2Zm8 1v2h-2v1h2v2h1v-2h2v-1h-2v-2Zm-20 4v2h4v-2Zm6 0v2h8v-2Z" style="opacity:.1"/><path d="M15 6v2h2V6zm4 0v2h5V6zm7 0v2h6V6zm-11 5v2h5v-2zm7 0v2h8v-2zm-7 9v2h4v-2zm6 0v2h2v-2zm4 0v2h5v-2zm-10 5v2h2v-2zm4 0v2h2v-2zm4 0v2h3v-2zm-8 10v2h6v-2zm8 0v2h2v-2zm4 0v2h3v-2zm-12 5v2h4v-2zm6 0v2h8v-2z" style="fill:#4c4c4c"/><path d="M8 42v1c0 1.108.892 2 2 2h28c1.108 0 2-.892 2-2v-1c0 1.108-.892 2-2 2H10c-1.108 0-2-.892-2-2" opacity=".2"/><path d="M10 4c-1.108 0-2 .892-2 2v36c0 1.108.892 2 2 2h3V4z" style="fill:#fab500"/><path d="M33 9h5v1h-5z" style="fill:#ff4f4f"/><path d="M35 21v2h-2v1h2v2h1v-2h2v-1h-2v-2zm0 15v2h-2v1h2v2h1v-2h2v-1h-2v-2z" style="fill:#00b04d"/><path fill="#fff" d="M10 4c-1.108 0-2 .892-2 2v1c0-1.108.892-2 2-2h28c1.108 0 2 .892 2 2V6c0-1.108-.892-2-2-2z" opacity=".2"/></svg>