<svg xmlns="http://www.w3.org/2000/svg" width="48" height="48"><circle cx="24" cy="23" r="18" style="opacity:.2"/><path d="M13.5 36.035s6.964 1.494 10.5 1.494 10.5-1.494 10.5-1.494c2.468-.351 4.5 2 4.5 4.482A4.48 4.48 0 0 1 34.5 45h-21C11.007 45 9 43 9 40.517a4.48 4.48 0 0 1 4.5-4.482" style="opacity:.2"/><circle cx="24" cy="22" r="18" style="fill:#5164d7"/><path d="M13.5 35.035s6.964 1.494 10.5 1.494 10.5-1.494 10.5-1.494c2.468-.351 4.5 2 4.5 4.482A4.48 4.48 0 0 1 34.5 44h-21C11.007 44 9 42 9 39.517a4.48 4.48 0 0 1 4.5-4.482" style="fill:#ffcc19"/><path d="m25.012 10 .09 1.424-1.102.885 1.361.351.487 1.34.75-1.207L28 12.736l-.898-1.097.38-1.375-1.302.529Zm-8.496 6 .138 2.137L15 19.463l2.041.527.73 2.01 1.124-1.81L21 20.103l-1.346-1.647.57-2.06-1.956.792Zm9.011 6 .229 3.563L23 27.77l3.402.881L27.62 32l1.873-3.018L33 28.84l-2.244-2.744.951-3.436-3.26 1.322Z" style="opacity:.2"/><path d="m25.528 21 2.919 1.982 3.261-1.322-.952 3.436L33 27.84l-3.508.141L27.618 31l-1.216-3.348-3.402-.88 2.756-2.21ZM16.517 15l1.751 1.19 1.957-.794-.571 2.062L21 19.104l-2.105.085L17.771 21l-.73-2.009L15 18.463l1.654-1.326ZM25.011 9l1.168.793 1.304-.529-.38 1.374.897 1.098-1.403.057-.75 1.207-.486-1.34L24 11.31l1.102-.884Z" style="fill:#fff"/><path d="M24 4A18 18 0 0 0 6 22a18 18 0 0 0 .021.586A18 18 0 0 1 24 5a18 18 0 0 1 17.979 17.414A18 18 0 0 0 42 22 18 18 0 0 0 24 4" style="fill:#fff;opacity:.1"/><path d="M34.957 35q-.225.002-.457.035S27.536 36.53 24 36.53s-10.5-1.494-10.5-1.494c-2.493 0-4.5 2-4.5 4.483 0 .17.032.333.05.5a4.466 4.466 0 0 1 4.45-3.983S20.464 37.53 24 37.53s10.5-1.494 10.5-1.494c2.299-.327 4.197 1.694 4.45 3.979.018-.165.05-.326.05-.496 0-2.329-1.786-4.54-4.043-4.518" style="fill:#fff;opacity:.2"/></svg>