<svg xmlns="http://www.w3.org/2000/svg" width="48" height="48"><rect width="34" height="36" x="7" y="9" rx="3" ry="3" style="opacity:.2"/><rect width="34" height="36" x="7" y="8" rx="3" ry="3" style="fill:#e4e4e4"/><rect width="40" height="8" x="4" y="5" rx="3.333" ry="3" style="opacity:.1"/><rect width="40" height="8" x="4" y="4" rx="3.333" ry="3" style="fill:#2ea881"/><circle cx="12" cy="24" r="4" style="fill:#ff4f4f"/><path d="M18 23h19v2H18z" style="fill:#ff4f4f"/><path d="M15 16h22v2H15z" style="opacity:.3"/><path d="M7.334 4C5.487 4 4 5.338 4 7v1c0-1.662 1.487-3 3.334-3h33.332C42.513 5 44 6.338 44 8V7c0-1.662-1.487-3-3.334-3z" style="opacity:.2;fill:#fff"/><circle cx="12" cy="25" r="2" style="opacity:.2"/><circle cx="12" cy="24" r="2" style="fill:#fff"/><path d="M11 16h2v2h-2zM15 30h22v2H15zM11 30h2v2h-2zM15 34h22v2H15zM11 34h2v2h-2zM15 38h22v2H15zM11 38h2v2h-2z" style="opacity:.3"/></svg>