<svg xmlns="http://www.w3.org/2000/svg" width="48" height="48"><path d="M41 43.224V21.406l-2.77-2.78c-.68-.682-4.884-4.399-5.81-4.577L24.257 8l-9.213 6.329c-.787.54-4.796 3.872-5.453 4.577L7 21.686v21.538C7 44.208 7.758 45 8.7 45h30.6c.942 0 1.7-.792 1.7-1.776" style="opacity:.2"/><path d="M41 42.224V20.406l-2.77-2.78c-.68-.682-4.884-4.399-5.81-4.577L24.257 7l-9.213 6.329c-.787.54-4.796 3.872-5.453 4.577L7 20.686v21.538C7 43.208 7.758 44 8.7 44h30.6c.942 0 1.7-.792 1.7-1.776" style="fill:#e4e4e4"/><path d="M7 20h34v1H7z" style="opacity:.15"/><rect width="6" height="10.5" x="8" y="7" rx="1.069" ry="1.147" style="fill:#c43f0d"/><path d="M27.708 25A2.727 2.727 0 0 0 25 27.708v7.584A2.727 2.727 0 0 0 27.708 38h7.584A2.727 2.727 0 0 0 38 35.292v-7.584A2.727 2.727 0 0 0 35.292 25Z" style="fill:#956a42"/><path d="M28.438 29a.42.42 0 0 0-.438.438v6.125c0 .257.18.437.438.437h6.124c.258 0 .438-.18.438-.437v-6.126a.42.42 0 0 0-.438-.437Z" style="opacity:.2"/><path d="M28.438 28a.42.42 0 0 0-.438.438v6.125c0 .257.18.437.438.437h6.124c.258 0 .438-.18.438-.437v-6.126a.42.42 0 0 0-.438-.437Z" style="fill:#c2eeff"/><rect width="10" height="16" x="10" y="25" rx="1.5" ry="1.5" style="fill:#956a42"/><circle cx="17.5" cy="33.5" r="1.5" style="opacity:.2"/><circle cx="17.5" cy="32.5" r="1.5" style="fill:#fff"/><path d="M10.032 17.127c-.582.484-1.061.895-1.253 1.091l-2.737 2.81v-.972h3.99Z" style="opacity:.05"/><path d="M14 14c-.925.67-2.7 2.048-4 3.111V20h4Z" style="opacity:.15"/><path d="m18 12-3.482 2.088c-.094.056-.35.236-.518.35V20h4Z" style="opacity:.05"/><path d="m22 9-4 2.538V20h4Z" style="opacity:.15"/><path d="m24 8-2 1.39V20h5V9.141Z" style="opacity:.05"/><path d="M27 9v11h4v-8.326Z" style="opacity:.15"/><path d="M31 12v8h4v-5.6c-.471-.283-.87-.49-1.084-.527Z" style="opacity:.05"/><path d="M35 14v6h4v-2.974c-1.134-.938-2.827-2.27-4-3.026" style="opacity:.15"/><path d="M37.968 16.998v3.058h3.99v.69l-2.926-2.812c-.17-.164-.573-.517-1.064-.936" style="opacity:.05"/><path d="M24 6 6 21M24 6l18 15" style="fill:none;stroke:#e33e00;stroke-width:4;stroke-linecap:round;stroke-linejoin:round"/><path d="m23.943 3.982-.043.004a2 2 0 0 0-1.427.682L4.719 19.463a2 2 0 0 0-.655 2.035 2 2 0 0 1 .655-1.035L22.473 5.668a2 2 0 0 1 1.427-.682l.043-.004h.063a2 2 0 0 1 1.537.698l.002.004L43.28 20.463a2 2 0 0 1 .657 1.037 2 2 0 0 0-.657-2.037L25.545 4.683l-.002-.003a2 2 0 0 0-1.537-.698h-.063" style="opacity:.1;fill:#fff"/><path d="M9.07 7C8.478 7 8 7.513 8 8.148v1C8 8.513 8.478 8 9.07 8h3.86c.592 0 1.07.513 1.07 1.148v-1C14 7.513 13.522 7 12.93 7z" style="fill:#fff;opacity:.1"/></svg>