<svg xmlns="http://www.w3.org/2000/svg" width="48" height="48"><path d="M8.028 41C6.904 41 6 41.756 6 42.695V45h37v-2.305c0-.939-.904-1.695-2.028-1.695Z" style="opacity:.2;fill-rule:evenodd"/><path d="M13 16h25v25H13z" style="fill:#4f4f4f"/><path d="M10 20h5v18h-5zM34 20h5v18h-5zM22 20h5v18h-5z" style="fill:#d4d4d4"/><rect width="31" height="6" x="9" y="16" rx="1.698" ry="1.715" style="opacity:.2"/><rect width="31" height="6" x="9" y="37" rx="1.698" ry="1.715" style="fill:#969696"/><rect width="31" height="6" x="9" y="15" rx="1.698" ry="1.715" style="fill:#969696"/><path d="M22.934 5.639 15.25 9.703l-7.66 4.052c-1.686.836-1.459.458-1.59 2.06v2.934c0 .14.102.251.229.251H42.77c.127 0 .229-.112.229-.25v-2.87c-.004-1.69-.046-1.308-1.653-2.158L33.75 9.703l-7.642-4.042c-1.415-.978-1.757-.772-3.174-.022" style="opacity:.2;fill-rule:evenodd"/><path d="M22.934 4.639 15.25 8.703l-7.66 4.052c-1.686.836-1.459.458-1.59 2.06v2.934c0 .14.102.251.229.251H42.77c.127 0 .229-.112.229-.25v-2.87c-.004-1.69-.046-1.308-1.653-2.158L33.75 8.703l-7.642-4.042c-1.415-.978-1.757-.772-3.174-.022M8.028 40C6.904 40 6 40.756 6 41.695V44h37v-2.305c0-.939-.904-1.695-2.028-1.695Z" style="fill:#d4d4d4;fill-rule:evenodd"/><path d="M24.521 4.002c-.439.023-.88.262-1.587.637L15.25 8.703l-7.66 4.05c-1.687.837-1.459.46-1.59 2.061v1c.131-1.6-.097-1.224 1.59-2.06l7.66-4.05 7.684-4.065c1.416-.75 1.759-.957 3.173.021l7.643 4.043 7.598 4.02c1.607.85 1.648.467 1.652 2.156v-1c-.004-1.69-.045-1.306-1.652-2.156l-7.598-4.02-7.643-4.043c-.707-.489-1.146-.681-1.586-.658M8.027 40C6.904 40 6 40.756 6 41.695v1C6 41.756 6.904 41 8.027 41h32.946c1.123 0 2.027.756 2.027 1.695v-1c0-.939-.904-1.695-2.027-1.695z" style="fill:#fff;fill-rule:evenodd;opacity:.2"/></svg>