<svg xmlns="http://www.w3.org/2000/svg" width="48" height="48"><path d="M13.6 5S11 5 11 7.667V45l13-7.143L37 45V7.667S37 5 34.4 5Z" style="opacity:.2"/><path d="M13.6 4S11 4 11 6.667V44l13-7.143L37 44V6.667S37 4 34.4 4Z" style="fill:#e84040"/><path d="M23.96 8a2.4 2.4 0 0 0-.436.05v.017c-.651.156-1.126.611-1.37 1.292l.01-.037L20.75 13H15.94c-.57.017-1.085.307-1.447.718-.784.838-.618 2.157.377 2.782l3.756 2.559-1.457 4.58-.005.015c-.223.682-.014 1.384.546 1.865h.002l.012.01h.002a2.045 2.045 0 0 0 2.378.167l.043-.026L24 23.076l3.854 2.594q.02.014.043.026c.76.462 1.706.39 2.379-.167l.013-.01c.56-.48.77-1.183.547-1.865l-.006-.014-1.457-4.581 3.756-2.56c.995-.624 1.16-1.943.377-2.781-.362-.411-.876-.7-1.447-.718h-4.808l-1.415-3.678.01.037c-.263-.733-.915-1.373-1.887-1.359" style="opacity:.2"/><path d="M23.96 7a2.4 2.4 0 0 0-.436.05v.017c-.651.156-1.126.611-1.37 1.292l.01-.037L20.75 12H15.94c-.57.017-1.085.307-1.447.718-.784.838-.618 2.157.377 2.782l3.756 2.559-1.457 4.58-.005.015c-.223.682-.014 1.384.546 1.865h.002l.012.01h.002a2.045 2.045 0 0 0 2.378.167l.043-.026L24 22.076l3.854 2.594q.02.014.043.026c.76.462 1.706.39 2.379-.167l.013-.01c.56-.48.77-1.183.547-1.865l-.006-.014-1.457-4.581 3.756-2.56c.995-.624 1.16-1.943.377-2.781-.362-.411-.876-.7-1.447-.718h-4.808l-1.415-3.678.01.037c-.263-.733-.915-1.373-1.887-1.359" style="fill:#ffdc40"/><path d="M13.6 4S11 4 11 6.666v1C11 4.999 13.6 5 13.6 5h20.8C37 5 37 7.666 37 7.666v-1S37 4 34.4 4z" style="fill:#fff;opacity:.2"/><path d="M23.959 7a2.4 2.4 0 0 0-.436.049v.017c-.65.156-1.126.613-1.37 1.293l.011-.037L20.748 12h-4.807c-.57.017-1.085.308-1.447.719a1.79 1.79 0 0 0-.416 1.722c.078-.26.214-.506.416-.722.362-.411.877-.702 1.447-.719h4.807l1.416-3.678-.012.037c.245-.68.72-1.137 1.371-1.293V8.05q.228-.045.436-.049c.972-.014 1.625.626 1.889 1.36l-.012-.038L27.252 13h4.807c.57.017 1.085.308 1.447.719.202.216.338.463.416.722a1.79 1.79 0 0 0-.416-1.722c-.362-.411-.877-.702-1.447-.719h-4.807l-1.416-3.678.012.037c-.264-.733-.917-1.373-1.889-1.359m-5.594 11.88-1.195 3.76-.006.014a1.68 1.68 0 0 0-.006 1.037c.004-.012.002-.024.006-.037l.006-.013 1.457-4.582zm11.27 0-.262.179 1.457 4.582.006.013c.004.013.002.025.006.037a1.68 1.68 0 0 0-.006-1.037l-.006-.013z" style="fill:#fff;opacity:.2"/></svg>