<svg xmlns="http://www.w3.org/2000/svg" width="48" height="48"><rect width="17" height="5" x="5" y="9" rx="1.308" ry="1.25" style="fill:#ffb900"/><rect width="17" height="5" x="5" y="4" rx="1.308" ry="1.25" style="fill:#ffcf51"/><rect width="17" height="5" x="5" y="19" rx="1.308" ry="1.25" style="fill:#ffb900"/><rect width="17" height="5" x="5" y="14" rx="1.308" ry="1.25" style="fill:#ffcf51"/><rect width="17" height="5" x="5" y="29" rx="1.308" ry="1.25" style="fill:#ffb900"/><rect width="17" height="5" x="5" y="24" rx="1.308" ry="1.25" style="fill:#ffcf51"/><rect width="17" height="5" x="5" y="39" rx="1.308" ry="1.25" style="fill:#ffb900"/><rect width="17" height="5" x="5" y="34" rx="1.308" ry="1.25" style="fill:#ffcf51"/><rect width="17" height="5" x="27" y="24" rx="1.308" ry="1.25" style="fill:#ffb900"/><rect width="17" height="5" x="27" y="34" rx="1.308" ry="1.25" style="fill:#ffb900"/><rect width="17" height="5" x="27" y="29" rx="1.308" ry="1.25" style="fill:#ffcf51"/><rect width="17" height="5" x="27" y="39" rx="1.308" ry="1.25" style="fill:#ffcf51"/><path d="M6.309 4C5.584 4 5 4.558 5 5.25v1C5 5.558 5.584 5 6.309 5H20.69C21.416 5 22 5.558 22 6.25v-1C22 4.558 21.416 4 20.691 4zm22 20c-.725 0-1.309.558-1.309 1.25v1c0-.692.584-1.25 1.309-1.25H42.69c.725 0 1.309.558 1.309 1.25v-1c0-.692-.584-1.25-1.309-1.25z" style="fill:#fff;opacity:.2"/><path d="M5 7.75v1C5 9.443 5.584 10 6.309 10H20.69C21.416 10 22 9.443 22 8.75v-1C22 8.443 21.416 9 20.691 9H6.31C5.584 9 5 8.443 5 7.75m0 5v1c0 .693.584 1.25 1.309 1.25H20.69c.725 0 1.309-.557 1.309-1.25v-1c0 .693-.584 1.25-1.309 1.25H6.31C5.584 14 5 13.443 5 12.75m0 5v1c0 .692.584 1.25 1.309 1.25H20.69c.725 0 1.309-.558 1.309-1.25v-1c0 .692-.584 1.25-1.309 1.25H6.31C5.584 19 5 18.442 5 17.75m0 5v1c0 .692.584 1.25 1.309 1.25H20.69c.725 0 1.309-.558 1.309-1.25v-1c0 .692-.584 1.25-1.309 1.25H6.31C5.584 24 5 23.442 5 22.75m0 5v1c0 .692.584 1.25 1.309 1.25H20.69c.725 0 1.309-.558 1.309-1.25v-1c0 .692-.584 1.25-1.309 1.25H6.31C5.584 29 5 28.442 5 27.75m22 0v1c0 .692.584 1.25 1.309 1.25H42.69c.725 0 1.309-.558 1.309-1.25v-1c0 .692-.584 1.25-1.309 1.25H28.31C27.584 29 27 28.442 27 27.75m-22 5v1c0 .693.584 1.25 1.309 1.25H20.69c.725 0 1.309-.557 1.309-1.25v-1c0 .693-.584 1.25-1.309 1.25H6.31C5.584 34 5 33.443 5 32.75m22 0v1c0 .693.584 1.25 1.309 1.25H42.69c.725 0 1.309-.557 1.309-1.25v-1c0 .693-.584 1.25-1.309 1.25H28.31C27.584 34 27 33.443 27 32.75m-22 5v1c0 .693.584 1.25 1.309 1.25H20.69c.725 0 1.309-.557 1.309-1.25v-1c0 .693-.584 1.25-1.309 1.25H6.31C5.584 39 5 38.443 5 37.75m22 0v1c0 .693.584 1.25 1.309 1.25H42.69c.725 0 1.309-.557 1.309-1.25v-1c0 .693-.584 1.25-1.309 1.25H28.31C27.584 39 27 38.443 27 37.75m-22 5v1c0 .693.584 1.25 1.309 1.25H20.69c.725 0 1.309-.557 1.309-1.25v-1c0 .693-.584 1.25-1.309 1.25H6.31C5.584 44 5 43.443 5 42.75m22 0v1c0 .693.584 1.25 1.309 1.25H42.69c.725 0 1.309-.557 1.309-1.25v-1c0 .693-.584 1.25-1.309 1.25H28.31C27.584 44 27 43.443 27 42.75" style="opacity:.2"/></svg>