<svg xmlns="http://www.w3.org/2000/svg" width="48" height="48"><path d="M35.6 11C12.6 11 4 23 4 45c1.811-13.408 21.409-21.906 31.6-22Z" style="opacity:.2"/><path d="M35.6 10C12.6 10 4 22 4 44c1.811-13.408 21.409-21.906 31.6-22Z" style="fill:#3f51b5"/><path d="M35.6 10C12.6 10 4 22 4 44q.006-.038.014-.076C4.295 22.614 12.98 11 35.6 11z" style="opacity:.1;fill:#fff"/><path d="M27.801 5A2.738 3.2 0 0 0 25 8.2v19.6a2.738 3.2 0 0 0 4.108 2.772l7.26-4.9 7.263-4.9a2.738 3.2 0 0 0 0-5.543l-7.262-4.9-7.261-4.9A2.738 3.2 0 0 0 27.8 5" style="opacity:.2"/><path d="M27.801 4A2.738 3.2 0 0 0 25 7.2v19.6a2.738 3.2 0 0 0 4.108 2.772l7.26-4.9 7.263-4.9a2.738 3.2 0 0 0 0-5.543l-7.262-4.9-7.261-4.9A2.738 3.2 0 0 0 27.8 4" style="fill:#2196f3"/><path d="M27.8 4A2.738 3.2 0 0 0 25 7.2v1A2.738 3.2 0 0 1 27.8 5a2.738 3.2 0 0 1 1.307.428l7.262 4.9 7.262 4.9a2.738 3.2 0 0 1 1.336 2.268 2.738 3.2 0 0 0-1.336-3.267l-7.262-4.9-7.262-4.901A2.738 3.2 0 0 0 27.801 4" style="opacity:.2;fill:#fff"/></svg>