<svg xmlns="http://www.w3.org/2000/svg" width="48" height="48"><rect width="12" height="40" x="18" y="5" rx="3" ry="2.857" style="opacity:.2"/><rect width="12" height="40" x="18" y="4" rx="3" ry="2.857" style="fill:#4caf50"/><rect width="12" height="40" x="19" y="-44" rx="3" ry="2.857" style="opacity:.2" transform="rotate(90)"/><rect width="12" height="40" x="18" y="-44" rx="3" ry="2.857" style="fill:#4caf50" transform="rotate(90)"/><path d="M21 4c-1.662 0-3 1.275-3 2.857v1C18 6.275 19.338 5 21 5h6c1.662 0 3 1.275 3 2.857v-1C30 5.275 28.662 4 27 4zM6.857 18C5.275 18 4 19.338 4 21v1c0-1.662 1.275-3 2.857-3h34.286C42.725 19 44 20.338 44 22v-1c0-1.662-1.275-3-2.857-3z" style="fill:#fff;opacity:.2"/></svg>