<svg xmlns="http://www.w3.org/2000/svg" width="22" height="22"><style id="current-color-scheme" type="text/css">.ColorScheme-Text{color:#fcfcfc}</style><g id="22-22-video-display-brightness" transform="matrix(.75 0 0 .75 -289.429 -387.599)"><path id="rect3074" d="M385.905 516.798h29.333v29.333h-29.333z" style="opacity:.01000001;fill:#00000f;fill-opacity:.00392157;stroke:none"/><path id="rect7235" d="M393.905 542.131h13.333v1.334h-13.333zm4-2.666h5.333v2.666h-5.333zm-10.667-18.667v18.667h26.667v-18.667zm1.333 1.333h24v13.334h-24z" class="ColorScheme-Text" style="fill:currentColor;fill-opacity:1;stroke:none"/><path id="rect7240" d="M388.571 522.131h24v13.333h-24z" class="ColorScheme-Text" style="opacity:.2;fill:currentColor;fill-opacity:1;stroke:none"/><path id="path3891" d="M400.571 524.131a4.667 4.667 0 1 0 0 9.334 4.667 4.667 0 0 0 0-9.334m0 1.334v6.666a3.333 3.333 0 1 1 0-6.666" class="ColorScheme-Text" style="fill:currentColor;fill-opacity:1;stroke:none"/></g></svg>