<svg xmlns="http://www.w3.org/2000/svg" width="16" height="16"><path d="M4.5 0A3.5 3.5 0 0 0 1 3.5a3.5 3.5 0 0 0 .234 1.256 8.01 8.01 0 0 1 5.782-3.69A3.5 3.5 0 0 0 4.5 0m7 0a3.5 3.5 0 0 0-2.512 1.066 8.01 8.01 0 0 1 5.776 3.688A3.5 3.5 0 0 0 15 3.5 3.5 3.5 0 0 0 11.5 0M8 2a7 7 0 0 0-7 7 7 7 0 0 0 1.646 4.51 7 7 0 0 0 .461.496 1 1 0 0 0-.814.287 1 1 0 0 0 0 1.414 1 1 0 0 0 1.414 0 1 1 0 0 0 .246-1.006 7 7 0 0 0 .59.375 7 7 0 0 0 .596.303l.056.025a7 7 0 0 0 .537.21l.17.056a7 7 0 0 0 .489.135l.193.043a7 7 0 0 0 .484.082l.225.027a7 7 0 0 0 .521.037L8 16a7 7 0 0 0 .7-.035 7 7 0 0 0 3.323-1.242l.022-.014a1 1 0 0 0 .248.998 1 1 0 0 0 1.414 0 1 1 0 0 0 0-1.414 1 1 0 0 0-.826-.285 7 7 0 0 0 .445-.479l.031-.033.012-.016a7 7 0 0 0 .37-.486l.058-.08a7 7 0 0 0 .295-.482l.072-.127a7 7 0 0 0 .236-.492l.065-.143a7 7 0 0 0 .168-.463l.072-.219a7 7 0 0 0 .113-.441 7 7 0 0 0 .053-.235 7 7 0 0 0 .066-.449 7 7 0 0 0 .032-.254A7 7 0 0 0 15 9a7 7 0 0 0-7-7m0 2a5 5 0 0 1 5 5 5 5 0 0 1-5 5 5 5 0 0 1-5-5 5 5 0 0 1 .025-.5A5 5 0 0 1 8 4m1.93 2.998a.5.5 0 0 0-.23.072L7.25 8.484a.5.5 0 0 0-.184.682l1.768 3.063a.5.5 0 0 0 .924-.13.5.5 0 0 0-.057-.37l-1.517-2.63 2.015-1.163a.5.5 0 0 0-.27-.938" style="color:#4285f4;fill:currentColor"/></svg>