<svg xmlns="http://www.w3.org/2000/svg" width="16" height="16"><defs><style id="current-color-scheme" type="text/css">.ColorScheme-PositiveText{color:#4caf50}</style></defs><path d="M3.834 6.025c-.46 0-.834.391-.834.875q0 .049.006.097C3.058 9.076 4.75 10.875 7 11.273V12H5c-.554 0-1 .446-1 1s.446 1 1 1h6c.554 0 1-.446 1-1s-.446-1-1-1H9v-.727c2.253-.399 3.949-2.203 3.996-4.285A1 1 0 0 0 13 6.9c0-.484-.374-.875-.834-.875s-.832.391-.832.875h-.014C11.25 8.709 10.145 9.625 8 9.625S4.75 8.709 4.68 6.9h-.014c0-.484-.372-.875-.832-.875" class="ColorScheme-PositiveText" style="fill:currentColor"/><rect width="8" height="6" x="-9" y="-11" class="ColorScheme-PositiveText" rx="3.334" ry="3" style="fill:currentColor" transform="rotate(90)scale(-1 1)"/></svg>