<svg xmlns="http://www.w3.org/2000/svg" width="16" height="16"><path d="M6 2a1 1 0 0 0-1 1 1 1 0 0 0 1 1c2.28 0 3.58.566 4.576 1.461.516-.453 1.09-.818 1.693-1.14-.095-.097-.186-.196-.287-.29C10.615 2.776 8.681 2.002 6 2.002M.972 3l-.057.004a1 1 0 0 0-.91 1.082C.2 6.344.811 8.097 1.815 9.403s2.382 2.115 3.906 2.558a1 1 0 0 0 1.24-.681 1 1 0 0 0-.681-1.24C5.057 9.684 4.118 9.117 3.4 8.184c-.717-.932-1.233-2.279-1.404-4.27A1 1 0 0 0 .972 3m14.047 1a1 1 0 0 0-.385.069c-1.672.656-3.154 1.35-4.212 2.607-1.059 1.258-1.548 3.011-1.42 5.38a1 1 0 0 0 1.053.943 1 1 0 0 0 .943-1.053c-.112-2.061.269-3.168.955-3.983s1.824-1.408 3.411-2.03a1 1 0 0 0 .567-1.298A1 1 0 0 0 15.019 4m-9.21.73C5.415 6.445 4.995 7.555 4.47 8.25c.476.442 1.056.749 1.78.986.732-1.07 1.169-2.48 1.57-4.324A9.3 9.3 0 0 0 6 4.75c-.066 0-.128-.013-.192-.02m8.452 2.51c-.75.373-1.31.745-1.668 1.143.167.334.331.676.498 1.037a1 1 0 0 0 1.328.489 1 1 0 0 0 .488-1.328q-.312-.679-.646-1.34M1.267 9.914c-.158.034-.285.071-.457.105a1 1 0 0 0-.791 1.174 1 1 0 0 0 1.173.79 15 15 0 0 0 1.813-.46 7.6 7.6 0 0 1-1.738-1.61" style="color:#dfdfdf;fill:currentColor;opacity:.35"/></svg>