<svg xmlns="http://www.w3.org/2000/svg" width="16" height="16"><defs><style id="current-color-scheme" type="text/css">.ColorScheme-Text{color:#dfdfdf}</style></defs><path d="M31.974-27.033a8 8 0 1 0 0 16 8 8 0 0 0 0-16m-1 3h2v5h3l-4 5-4-5h3zM8 0C5.784 0 4 1.784 4 4s1.784 4 4 4 4-1.784 4-4-1.784-4-4-4m0 2a2 2 0 1 1 0 4 2 2 0 0 1 0-4m-.201.383c-.059.006-.117.01-.174.022a1.7 1.7 0 0 0-.326.097c-.5.212-.88.652-1.014 1.188l.012.012c.094.1.339.238.521.304.1.036.294.092.426.12.132.026.22.053.207.054a.6.6 0 0 0-.13.098.7.7 0 0 0-.217.35c-.027.087-.025.114.01.161.02.029.114.095.206.153.093.057.202.136.24.174.145.14.239.39.239.632 0 .063.007.096.012.11h.033c.026-.01.067-.023.13-.055.533-.266.775-.612.75-1.068-.018-.364-.188-.496-.88-.643-.51-.108-.785-.29-.785-.521 0-.061.02-.098.087-.164.072-.072.086-.076.141-.065a.6.6 0 0 1 .197.108c.158.124.233.173.315.173.035 0 .066-.004.066-.01a1 1 0 0 0-.054-.087c-.158-.232-.148-.665.021-1.035.027-.058.048-.097.045-.108-.024.002-.055-.002-.078 0m-4.697.604-1.213.699a1.8 1.8 0 0 0-.48.426 2 2 0 0 0-.161.207q-.057.108-.098.224-.043.089-.078.18l.002.004q-.071.24-.074.49v6.01c0 .632.34 1.216.889 1.531l5.222 3.004c.55.317 1.228.317 1.778 0l5.222-3.004c.55-.315.889-.9.889-1.531v-6.01q0-.253-.072-.496a1.77 1.77 0 0 0-.817-1.035l-1.213-.7v.012A5 5 0 0 1 13 4a5 5 0 0 1-5 5 5 5 0 0 1-5-5 5 5 0 0 1 .1-.937.2.2 0 0 1 .002-.076m6.324.213c-.055.014-.287.26-.342.37-.117.237-.073.39.207.686.097.103.215.24.252.305s.068.119.076.11a1 1 0 0 0 .055-.165c.053-.209.057-.572 0-.783-.044-.163-.2-.498-.24-.523q-.003-.002-.008 0" class="ColorScheme-Text" style="fill:currentColor"/></svg>