<svg xmlns="http://www.w3.org/2000/svg" width="16" height="16"><path d="M6.926.003A.996.996 0 0 0 6 .998v4.066L3.613 3.209a1 1 0 0 0-1.226 1.578L6 7.597v.801l-3.613 2.81a1 1 0 0 0 1.226 1.579L6 10.93v4.067a1 1 0 0 0 1.625.78l5-4a1 1 0 0 0-.012-1.57l-2.842-2.21 2.842-2.211a1 1 0 0 0 .012-1.57l-5-4a1 1 0 0 0-.7-.214M8 3.08l2.385 1.908-2.242 1.744L8 6.621ZM2 7a1 1 0 1 0 0 2 1 1 0 0 0 0-2m12 0a1 1 0 1 0 0 2 1 1 0 0 0 0-2M8.143 9.263l2.242 1.744L8 12.916V9.375Z" style="color:#dfdfdf;fill:currentColor"/></svg>