<svg xmlns="http://www.w3.org/2000/svg" width="16" height="16"><path d="M8 1a7 7 0 0 0-6.213 3.787A7 7 0 0 1 5 4a7 7 0 0 1 1.26.117 7 7 0 0 1 1.847-3.111zm1.473.16A6 6 0 0 0 7.23 4.375a7 7 0 0 1 3.832 3.148 2.32 2.32 0 0 1 1.305-.52h.004q.124-.006.248 0c.846.045 1.591.557 1.983 1.294l.33.623A7 7 0 0 0 15 8a7 7 0 0 0-5.527-6.84M5 5a6 6 0 0 0-3.797 1.36A7 7 0 0 0 1 8a7 7 0 0 0 7 7 7 7 0 0 0 .504-.027c-.538-.766-.684-1.824-.2-2.737l.391-.736A7 7 0 0 1 6 6a7 7 0 0 1 .066-.9A6 6 0 0 0 5 5m2.035.363A6 6 0 0 0 7 6a6 6 0 0 0 2.17 4.605l.18-.34 1.02-1.917a6 6 0 0 0-3.335-2.985m5.39 2.639a1.408 1.53 0 0 0-1.144.764l-1.047 1.968-1.045 1.971A1.408 1.53 0 0 0 10.406 15h4.186a1.408 1.53 0 0 0 1.219-2.295l-1.047-1.97-1.045-1.97a1.408 1.53 0 0 0-1.153-.763 1.408 1.53 0 0 0-.14 0M12 9h1v3h-1zm0 4h1v1h-1z" style="color:#dfdfdf;fill:currentColor"/></svg>