<svg xmlns="http://www.w3.org/2000/svg" width="16" height="16"><defs><style id="current-color-scheme" type="text/css">.ColorScheme-Text{color:#dfdfdf}</style></defs><path d="M1.128 4.927A8 8 0 0 0 1 6.453l.003.138c.178 4.576 3.906 8.271 8.496 8.404l.068.002c.301.012.644-.014.918-.032 2.736-.267 4.711-2.376 4.5-3.885-1.341 1.194-3.072 1.918-4.88 1.92C6.046 13 3 9.959 3 5.9c0-1.808.726-3.541 1.921-4.882-2.156.143-3.483 2.465-3.793 3.909" class="ColorScheme-Text" style="fill:currentColor"/><path d="m5.783 1.016-.44.614A6.4 6.4 0 0 0 4 5.526v.002A6.464 6.464 0 0 0 10.477 12a6.42 6.42 0 0 0 3.888-1.334l.596-.47a2 2 0 0 0-.364-.405C13.57 8.939 11.68 8.33 9.703 6.37c-2.087-2.068-2.68-4.027-3.554-5.038a1.8 1.8 0 0 0-.366-.316" class="ColorScheme-Text" style="opacity:.35;fill:currentColor"/></svg>