<svg xmlns="http://www.w3.org/2000/svg" width="16" height="16"><path d="M4.8 1A4.79 4.79 0 0 0 0 5.8v6.4c0 1.046.332 2.013.896 2.8h4.161c-1.669-1.27-2.159-1.883-2.159-1.883s.377-.196.946-.459 1.238-.254 1.816-.687c0 0 1.561 1.802 3.113 3.029h2.602a27 27 0 0 1-1.434-1.006C7.277 11.97 5.84 8.467 5.84 8.467s2.278-2.745 7.002-3.9c.903-.223 1.93-.352 2.87-.397l.003.006q.057.161.103.328.007.021.012.043.067.249.106.508l.005.03q.041.273.051.554v.017c-.859.208-2.128.527-3.164.95-1.914.781-3.795 2.673-3.795 2.673s0 .794 1.813 3.094A12.7 12.7 0 0 0 13.69 15h1.412A4.8 4.8 0 0 0 16 12.2V8.546c-.884.529-1.734 1.215-2.36 2.03.052.925.536 3.339.536 3.339-1.954-1.968-2.514-3.775-2.514-3.775s1.177-1.903 4.043-3.205c.077-.036.198-.07.295-.102V5.801A4.79 4.79 0 0 0 11.2 1Z" style="color:#dfdfdf;fill:currentColor"/></svg>