<svg xmlns="http://www.w3.org/2000/svg" width="16" height="16"><path d="M3.5 1A3.5 3.5 0 0 0 0 4.5 3.5 3.5 0 0 0 3.5 8a3.5 3.5 0 0 0 1.477-.33L6.5 9.5 1 16l7-5 7 5-5.5-6.5 1.523-1.832A3.5 3.5 0 0 0 12.5 8 3.5 3.5 0 0 0 16 4.5l-.002-.025-.002-.059a4 4 0 0 0-.045-.47 4 4 0 0 0-.076-.354 4 4 0 0 0-.059-.205 3.4 3.4 0 0 0-.244-.565 3.4 3.4 0 0 0-.576-.808 3.4 3.4 0 0 0-1.9-.963l-.027-.004a4 4 0 0 0-.461-.043c-.012 0-.024-.004-.036-.004l-.017.002L12.501 1a3.5 3.5 0 0 0-3.5 3.5 3.5 3.5 0 0 0 .383 1.584L8.001 8 6.62 6.088A3.5 3.5 0 0 0 7 4.5a3.5 3.5 0 0 0-3.5-3.5Zm0 2A1.5 1.5 0 0 1 5 4.5 1.5 1.5 0 0 1 3.5 6 1.5 1.5 0 0 1 2 4.5 1.5 1.5 0 0 1 3.5 3m9 0A1.5 1.5 0 0 1 14 4.5 1.5 1.5 0 0 1 12.5 6 1.5 1.5 0 0 1 11 4.5 1.5 1.5 0 0 1 12.5 3" style="color:#dfdfdf;fill:currentColor"/></svg>