<svg xmlns="http://www.w3.org/2000/svg" width="16" height="16"><path d="M7.732 1.008C3.878 1.198.77 4.57 1.014 8.516c.198 3.205 2.516 5.8 5.691 6.373 1.343.242 2.687.09 4.014-.451 1.288-.526 1.844-.521 3.279.023.384.146.714.249.734.228s-.096-.303-.261-.628c-.51-1.007-.643-1.824-.426-2.616.056-.206.241-.726.414-1.154.42-1.042.543-1.606.541-2.514-.004-1.894-.749-3.587-2.162-4.918-1.166-1.097-2.679-1.743-4.326-1.845a7 7 0 0 0-.78-.006M7.867 4c.607-.005 1.143.056 1.52.172.78.24 1.127.751.742 1.092-.338.299-.66.228-1.336-.291a4.7 4.7 0 0 0-.742-.465c-.757-.338-1.688-.036-1.688.502 0 .078.088.239.198.357.207.225.423.302 2.12 1.248 1.204.671 1.823 1.192 2.132 1.793.379.787.175 1.93-.557 2.613a3.54 3.54 0 0 1-1.389.823 5 5 0 0 1-.873.148c-1.24.079-2.293-.437-2.771-1.357-.293-.568-.3-1.22.002-1.903.358-.69 1.199-1.263 2.213-1.507.256-.062.477-.141.49-.176.012-.035-.373-.341-.854-.682-.971-.688-1.178-.881-1.187-1.29-.011-.472.369-.812 1.115-.993.223-.054.5-.081.865-.084m.46 3.418a1 1 0 0 0-.177.016c-.512.07-1.076.323-1.402.63-.425.402-.553.754-.549 1.51.006.883.763 1.853 1.838 1.844 1.034-.022 1.645-.695 1.752-1.553.078-.756-.252-1.499-.941-2.113-.299-.266-.377-.334-.522-.334" style="color:#dfdfdf;fill:currentColor"/></svg>