<svg xmlns="http://www.w3.org/2000/svg" width="16" height="16"><path d="M8.013 1c-.118 0-.24.116-.415.35L3.983 6.88c-1.243 1.903-1.23 3.957-.392 5.509A4.99 4.99 0 0 0 8.002 15c1.923 0 3.57-1.06 4.408-2.611.837-1.552.85-3.607-.393-5.51L8.401 1.34C8.245 1.115 8.13 1 8.013 1m-.01 1.499 3.052 4.91c.743 1.21.886 2.653-.349 3.683a3 3 0 0 1-.538.369 7 7 0 0 1-1.799.51 3.3 3.3 0 0 1-.714.053q-.043-.005-.085-.006h-.005c-.827 0-1.51-1.27-1.51-2.224 0-.846.854-1.531 1.58-1.656q.21-.04.435-.09c.611-.211.875-1.111.296-1.543a2.5 2.5 0 0 0-1.37-.5c-.59-.028-1.07.17-1.567.537Z" style="color:#dfdfdf;fill:currentColor"/></svg>