<svg xmlns="http://www.w3.org/2000/svg" width="16" height="16"><path d="M5.707 2a13.3 13.3 0 0 0-3.256.994.05.05 0 0 0-.021.018C.355 6.06-.212 9.037.066 11.975a.05.05 0 0 0 .02.035 13.4 13.4 0 0 0 3.996 1.988c.02.006.043 0 .057-.018.307-.413.58-.47.816-.93a.048.048 0 0 0-.027-.068 9 9 0 0 1-1.248-.586.05.05 0 0 1-.006-.084c.084-.061.17-.126.25-.19a.05.05 0 0 1 .05-.007c2.62 1.177 5.454 1.177 8.042 0a.05.05 0 0 1 .05.006c.08.065.166.13.25.191a.05.05 0 0 1-.005.084q-.597.345-1.248.586a.048.048 0 0 0-.028.069c.24.458.514.514.817.928a.05.05 0 0 0 .056.019c1.308-.398 2.634-1 4.002-1.988a.05.05 0 0 0 .022-.035c.333-3.396-.56-6.346-2.368-8.961a.04.04 0 0 0-.02-.02c-1.019-.46-2.112-.8-3.255-.994a.05.05 0 0 0-.053.023c-.14.247-.297.45-.406.702a12.4 12.4 0 0 0-3.658 0c-.11-.258-.271-.455-.412-.702A.05.05 0 0 0 5.707 2m-.209 5C6.34 7 7.013 7.68 7 8.5c0 .827-.667 1.5-1.502 1.5A1.503 1.503 0 0 1 4 8.5C4 7.673 4.663 7 5.498 7M10.5 7c.842 0 1.513.68 1.5 1.5 0 .827-.658 1.5-1.5 1.5C9.678 10 9 9.327 9 8.5S9.665 7 10.5 7" style="color:#dfdfdf;fill:currentColor"/></svg>