<svg xmlns="http://www.w3.org/2000/svg" width="16" height="16"><defs><style id="current-color-scheme" type="text/css">.ColorScheme-NegativeText{color:#f44336}</style></defs><path d="M13 9a3 1 0 0 0-3 1v5a3 1 0 0 0 3 1 3 1 0 0 0 3-1v-5a3 1 0 0 0-3-1m0 1a3 1 0 0 1 2 .258v.486A3 1 0 0 1 13 11a3 1 0 0 1-2-.258v-.486A3 1 0 0 1 13 10" class="ColorScheme-NegativeText" style="fill:currentColor"/><path d="M3 1C2 1 2 2 2 2v12s0 1 1 1h6v-4.143A4 4 0 0 1 8 11H4V7a4 4 0 0 1 4-4 4 4 0 0 1 4 4 4 4 0 0 1-.143 1H14V2s0-1-1-1Zm5 4a2 2 0 0 0-2 2 2 2 0 0 0 2 2 2 2 0 0 0 2-2 2 2 0 0 0-2-2" class="ColorScheme-NegativeText" style="fill:currentColor"/></svg>