<svg xmlns="http://www.w3.org/2000/svg" width="16" height="16"><path d="m4.447 1 .002.004L.008 3.508 4 5.986 0 9.004 4.45 11.5 8 9.01 4 6l4-2.492 4 2.506-1.736 1.3A5 5 0 0 1 12 7a5 5 0 0 1 1.793.338L12 5.996l3.99-2.49L11.551 1 8 3.492ZM12 8a4 4 0 1 0 0 8 4 4 0 0 0 0-8m2.635 1.685c.474.475.553.881.553.881l-3.526 4.041L9.77 12.73a.53.53 0 0 1 0-.72.53.53 0 0 1 .718 0l1.127 1.127Zm-7.422.878-2.764 1.939-.888-.498v.371L8 15l.006-.002A5 5 0 0 1 7 12c0-.487.072-.971.213-1.437" style="color:#dfdfdf;fill:currentColor"/></svg>