<svg xmlns="http://www.w3.org/2000/svg" width="16" height="16"><path d="M2 0C.892 0 0 .892 0 2v12c0 1.108.892 2 2 2h12c1.108 0 2-.892 2-2V2c0-1.108-.892-2-2-2Zm5 1.975 1 .05L7.902 4H13v1H7.854l-.108 2.162a11 11 0 0 1 1.775-.103c.153-.326.657-1.24.657-1.24l.916.4s-.384.703-.457.865c.034.005.071-.004.105.002.767.127 1.489.371 2.076.787.588.416 1.037 1.027 1.174 1.793.211 1.18-.376 2.32-1.318 3.1S10.407 14.109 9 13.969l.1-.994c1.127.112 2.202-.37 2.937-.979s1.105-1.404.97-2.154c-.088-.498-.346-.856-.765-1.153-.419-.296-1.004-.507-1.664-.617-.145-.024-.31.007-.46-.008-.409.84-.554 1.268-1.294 2.44-.65 1.029-1.375 2.017-2.156 2.691-.39.337-.8.601-1.248.727a1.76 1.76 0 0 1-1.383-.174 2.23 2.23 0 0 1-1.025-1.435c-.127-.576-.05-1.192.176-1.79.45-1.195 1.503-2.342 3.001-2.957a6 6 0 0 1 .543-.185L6.85 5H4V4h2.9zm1.611 6.052q-.064 0-.129.006-.403.046-.785.125l-.12 2.424q.205-.3.403-.613c.578-.915.634-1.16 1.02-1.926-.132.006-.26-.014-.389-.016M6.68 8.45q-.057.02-.112.043c-1.242.51-2.104 1.478-2.445 2.383-.17.453-.21.882-.135 1.223.075.34.245.599.569.795.195.118.354.133.593.066.24-.067.543-.245.864-.521q.24-.21.492-.483z" style="color:#dfdfdf;fill:currentColor"/></svg>