<svg xmlns="http://www.w3.org/2000/svg" width="16" height="16"><circle cx="12.5" cy="5.5" r="1.5" style="color:#4285f4;fill:currentColor"/><path d="M4.382 10.96c.366-.087 1.05-.403 1.915-.886l.995-.555a9 9 0 0 1 .58-.305c.111-.043.128-.044.205-.018.142.048.325.144.996.524 1.61.91 2.22 1.196 2.7 1.27.224.035.477-.055.868-.31 1.081-.705 2.933-2.559 3.295-3.3.126-.257.079-.305-.257-.267-.394.044-.795.147-2.193.565-1.06.317-1.434.415-1.594.418-.206.004-.477-.143-1.817-.986-1.347-.848-1.784-1.087-2.028-1.108-.263-.023-.575.14-2.1 1.098-1.36.854-1.633 1.001-1.842.995-.16-.004-.461-.083-1.493-.39C1.089 7.25.67 7.144.274 7.106c-.256-.024-.318.027-.246.202.16.39.866 1.219 1.768 2.077.803.765 1.477 1.288 1.934 1.503.27.128.37.138.652.072" style="color:#dfdfdf;fill:currentColor"/></svg>