<svg xmlns="http://www.w3.org/2000/svg" width="16" height="16"><path d="M8.047 6.002c-.263-.023-.575.14-2.1 1.098-1.36.853-1.632 1.002-1.842.996-.159-.005-.462-.083-1.494-.39C1.09 7.251.67 7.142.273 7.105c-.256-.025-.318.027-.246.203.16.39.868 1.217 1.77 2.076.803.764 1.477 1.289 1.933 1.504.271.127.37.137.653.07.366-.087 1.048-.402 1.914-.885l.994-.554c.253-.142.516-.28.582-.305.11-.044.126-.046.203-.02.142.049.325.145.996.524 1.611.91 2.22 1.197 2.7 1.271.224.035.477-.055.869-.31 1.081-.705 2.933-2.559 3.295-3.3.125-.257.08-.305-.256-.267-.395.045-.796.147-2.194.565-1.06.317-1.433.414-1.593.418-.206.004-.477-.143-1.817-.987-1.347-.847-1.785-1.086-2.03-1.107" style="color:#dfdfdf;fill:currentColor"/></svg>