<svg xmlns="http://www.w3.org/2000/svg" width="16" height="16"><defs><style id="current-color-scheme" type="text/css">.ColorScheme-Text{color:#dfdfdf}</style></defs><path d="M7.936 1.012 2.133 3.049c-.08.028-.133.416-.133.5C2 12 7.97 14.997 8 15c0 0 6-3 6-11.451 0-.084-.054-.472-.133-.5L8.064 1.012a.2.2 0 0 0-.128 0M8 3.109l3.852 1.352c-.307 4.728-2.493 7.173-3.813 8.139a9 9 0 0 1-1.51-1.434C5.401 9.804 4.371 7.604 4.156 4.459z" class="ColorScheme-Text" style="fill:currentColor"/><path d="M7.935 1.011 2.132 2.75c-.079.028-.132.415-.132.5 0 2.075.548 4.476 1.503 6.583.775 1.71 2.169 3.99 4.406 5.146A.2.2 0 0 0 8 15q.046 0 .09-.022c2.238-1.156 3.632-3.436 4.407-5.146C13.452 7.724 14 5.324 14 3.25c0-.085-.053-.472-.132-.5L8.065 1.011a.2.2 0 0 0-.13 0" class="ColorScheme-Text" style="fill:none"/></svg>