<svg xmlns="http://www.w3.org/2000/svg" width="16" height="16"><defs><style id="current-color-scheme" type="text/css">.ColorScheme-Text{color:#dfdfdf}</style></defs><path d="M15 3s-.15 1.639-3.01 2.922c-.015.737-.106 1.487-.355 2.209-.384 1.113-1.193 2.163-2.473 2.697-1.503.628-2.424 1.382-3.018 2.08.916-.506 2.224-.958 4.112-1.152C14.538 11.316 15 3 15 3" class="ColorScheme-Text" style="opacity:.35;fill:currentColor"/><path d="M10.119 1s.297 2.415-2.347 4.479c.14.53.233 1.09.228 1.673a4.56 4.56 0 0 1-1.186 3.061v.002c-.699.763-1.132 1.435-1.406 2.014.698-.807 1.755-1.649 3.37-2.323C12.813 8.222 10.118 1 10.118 1" class="ColorScheme-Text" style="fill:currentColor"/><path d="M2.486 8.501C5.519 4.68 4.836 2 4.836 2s3.886 4.655 1.242 7.538C3.124 12.759 4.132 15 4.132 15S.747 10.692 2.486 8.501" class="ColorScheme-Text" style="fill:currentColor"/></svg>