<svg xmlns="http://www.w3.org/2000/svg" width="16" height="16"><path d="M8.041 0a1.776 1.82 0 0 0-.93.243L1.89 3.334A1.776 1.82 0 0 0 1 4.911v6.179a1.776 1.82 0 0 0 .889 1.576l5.222 3.09a1.776 1.82 0 0 0 1.778 0l5.222-3.09A1.776 1.82 0 0 0 15 11.09V4.91a1.776 1.82 0 0 0-.889-1.576L8.89.243A1.776 1.82 0 0 0 8.04 0M5.039 5.003a4 4 0 0 1 .34.006c.88.073 1.777.45 2.473 1.043.093.08.124.1.148.1s.055-.02.148-.1a4.47 4.47 0 0 1 2.475-1.043c.173-.014.511-.007.656.014 1.106.16 1.72.903 1.721 2.084 0 .297-.03.503-.11.76-.2.644-.653 1.214-1.343 1.687-.23.158-.538.329-.785.437-.023.01-.021.012-.04.02.002.035.005.064.005.101a2.94 2.94 0 0 1-1.184 2.381l-.05.035c-.324.23-.7.387-1.116.452-.003 0-.008-.007-.012-.008A3 3 0 0 1 8 13q-.113-.001-.223-.013l-.002.008-.004-.008c-1.399-.123-2.498-1.363-2.498-2.876 0-.038.003-.069.004-.104L5.24 9.99a5 5 0 0 1-.99-.587C3.537 8.856 3.124 8.2 3.018 7.449a3.4 3.4 0 0 1 0-.69c.088-.656.356-1.124.816-1.423q.368-.24.887-.314c.072-.01.193-.017.318-.02m.627 2.012a1 1 0 0 0-.187.025c-.263.073-.446.216-.446.35 0 .054.02.09.07.139.06.055.155.096.366.162.106.033.244.081.306.107q.41.171.733.488c.077.076.088.082.123.082a.08.08 0 0 0 .062-.023c.03-.029.032-.068.01-.217-.064-.438-.235-.74-.53-.931a1.7 1.7 0 0 0-.339-.17.6.6 0 0 0-.168-.012m4.729.004a.6.6 0 0 0-.227.008c-.071.02-.236.102-.34.17-.294.192-.467.493-.531.931-.022.149-.02.188.01.217a.08.08 0 0 0 .062.023c.035 0 .046-.006.123-.082a2.33 2.33 0 0 1 1.04-.595c.265-.083.37-.14.417-.227a.19.19 0 0 0-.004-.156c-.04-.076-.162-.17-.289-.22a1 1 0 0 0-.261-.07M7.373 9.695c-.05 0-.064.014-.103.098-.08.167-.164.438-.192.617-.038.249.002.553.082.614.06.045.117.013.21-.122.201-.293.24-.676.112-1.082-.032-.103-.05-.125-.109-.125m1.252 0a.1.1 0 0 0-.055.016q-.022.014-.052.11c-.129.405-.09.788.113 1.081.03.045.072.093.092.11.065.055.128.032.164-.06.07-.18.068-.46-.004-.733-.052-.197-.164-.485-.201-.512-.012-.008-.036-.012-.057-.012" style="color:#dfdfdf;fill:currentColor"/></svg>