<svg xmlns="http://www.w3.org/2000/svg" width="16" height="16"><defs><style id="current-color-scheme" type="text/css">.ColorScheme-Text{color:#dfdfdf}</style></defs><path d="M1.8 1c-.442 0-.8.311-.8.7v11.6c0 .389.358.7.8.7H13v-4H9V9h4V8h-1V7h3V1.7c0-.389-.358-.7-.8-.7H9v4h2v1H9v1h2v1H9V7H6v1H3V7h2V6H3V5h2V4H3V3h2V1zM10 3h3v1h-3zm2 2h1v1h-1zM3 9h2v1H3zm0 2h1v1H3zm2 0h2v1H5zm4 0h3v1H9z" class="ColorScheme-Text" style="fill:currentColor"/><path d="M6 .5V6h2V.5S7.919 0 7 0 6 .5 6 .5" class="ColorScheme-Text" style="opacity:.35;fill:currentColor"/><path d="M14 8v5h1V8Zm0 6v1h1v-1z" style="color:#4285f4;fill:currentColor"/></svg>