<svg xmlns="http://www.w3.org/2000/svg" width="16" height="16"><path d="M5.6 0C4.713 0 4 .744 4 1.668V3h6.4C11.806 3 13 4.136 13 5.549v4.45h1.4c.887 0 1.6-.744 1.6-1.667V1.668C16 .744 15.287 0 14.4 0Zm-4 4C.713 4 0 4.69 0 5.549v9.863c0 .523.652.784 1.033.416L3.533 13h6.817C11.7 13 12 11.9 12 11.342V11H5.6C4.154 11 3 9.77 3 8.332V4ZM4 4v4.334q0 .172.033.334v.002q.016.08.04.158v.002q.022.077.052.152v.002q.061.15.146.281v.002a1.65 1.65 0 0 0 .565.532c.227.128.487.2.764.2H12V5.55c0-.858-.713-1.55-1.6-1.55H5Z" style="color:#dfdfdf;fill:currentColor;opacity:.35"/></svg>