<svg xmlns="http://www.w3.org/2000/svg" width="16" height="16"><path d="M8.779 2.001a.18.18 0 0 0-.142.045.2.2 0 0 0-.069.14l-.226 2.487c-.011.114.069.218.176.229a5 5 0 0 1 1.771.53c.091.053.199.009.26-.097l1.012-2.25a.215.215 0 0 0-.09-.277A7.6 7.6 0 0 0 8.779 2m-1.863.037a7.6 7.6 0 0 0-2.66.918.216.216 0 0 0-.08.281l1.092 2.207c.035.071.102.11.172.11q.045 0 .09-.024a5 5 0 0 1 1.751-.603c.107-.015.181-.12.166-.234l-.312-2.477c-.015-.114-.113-.193-.219-.178m5.986 1.797a.2.2 0 0 0-.131.076l-1.47 1.938a.21.21 0 0 0-.041.153c.005.054.03.105.07.14.483.421.888.923 1.207 1.494a.2.2 0 0 0 .168.102.2.2 0 0 0 .1-.029l2-1.282c.093-.059.117-.197.066-.285a8.4 8.4 0 0 0-1.826-2.262.19.19 0 0 0-.143-.045m-10.04.207a.19.19 0 0 0-.141.05A8.5 8.5 0 0 0 .977 6.428a.23.23 0 0 0-.016.16.2.2 0 0 0 .092.124L3.098 7.91c.091.053.204.018.263-.084a5.6 5.6 0 0 1 1.155-1.543.21.21 0 0 0 .064-.143.22.22 0 0 0-.047-.152L2.994 4.111a.19.19 0 0 0-.133-.07m12.531 3.792-2.225.746c-.102.034-.159.152-.127.261.16.547.253 1.117.24 1.696l-.006.265c-.003.086.071.219.186.219l2.336.115c.103 0 .188-.087.193-.199a9.153 9.153 0 0 0-.355-2.967c-.032-.109-.14-.171-.242-.136m-7.5 2.263L4.738 8.103s-.083-.034-.125-.029c0 0-.083.025-.115.058a.23.23 0 0 0-.037.256l1.721 3.457s-.01.136-.01.203c0 .522.189 1.011.533 1.379A1.75 1.75 0 0 0 7.992 14c.487 0 .945-.204 1.289-.573.344-.368.533-.857.533-1.379a2 2 0 0 0-.533-1.38 1.75 1.75 0 0 0-1.287-.573ZM.518 8.14a.19.19 0 0 0-.149.02.2.2 0 0 0-.09.127 9.2 9.2 0 0 0-.27 2.65c.006.112.091.199.194.199l2.336-.115c.098-.004.186-.094.186-.219-.004-.093-.006-.265-.006-.265 0-.505.061-1.005.183-1.487.028-.111-.033-.225-.136-.255Z" style="color:#dfdfdf;fill:currentColor"/></svg>