<svg xmlns="http://www.w3.org/2000/svg" width="16" height="16"><defs><style id="current-color-scheme" type="text/css">.ColorScheme-Text{color:#dfdfdf}</style></defs><path d="M8 0 5.81 2H3v2.81L.72 7H4c0-2.21 1.79-4 4-4s4 1.79 4 4h3.28L13 5V2h-2.78Zm0 4a3 3 0 0 0-3 3h3z" class="ColorScheme-Text" style="opacity:.35;fill:currentColor"/><path d="M15 9c0-.554-.446-1-1-1H1c-.554 0-1 .446-1 1v5c0 .554.446 1 1 1h13c.554 0 1-.446 1-1zm-3 0v1h-1V9Zm0 2v1h-1v-1zm-1 2v1H4v-1Zm-1-4v1H9V9Zm0 2v1H9v-1ZM8 9v1H7V9Zm0 2v1H7v-1ZM6 9v1H5V9Zm0 2v1H5v-1ZM4 9v1H3V9Zm0 2v1H3v-1z" class="ColorScheme-Text" style="fill:currentColor;fill-rule:evenodd;opacity:.35"/></svg>