<svg xmlns="http://www.w3.org/2000/svg" width="16" height="16"><path d="M2.713 1a.64.64 0 0 0-.455.19C2.09 1.357 2 1.629 2 1.979v12.039c0 .35.098.62.258.787.243.246.623.271 1.056.008l10.139-6.032c.73-.43.73-1.129 0-1.566l-.596-.355A4.99 4.99 0 0 0 8 3c-.46 0-.897.083-1.32.2L3.315 1.181A1.16 1.16 0 0 0 2.713 1M8 4c1.596 0 2.956.943 3.598 2.283.035.074.402.826.402 1.717 0 .17-.027.33-.047.494l-5.406 3.223C5.9 11.544 4 10.297 4 8q.001-.415.082-.806A4.01 4.01 0 0 1 8 4m0 2a2 2 0 1 0 0 4 2 2 0 0 0 0-4m3 5v5h2v-5Zm3 0v5h2v-5Z" style="color:#dfdfdf;fill:currentColor"/></svg>