<svg xmlns="http://www.w3.org/2000/svg" width="16" height="16"><defs><style id="current-color-scheme" type="text/css">.ColorScheme-Text{color:#dfdfdf}</style></defs><path d="M1.701 5C1.313 5 1 5.343 1 5.77v8.46c0 .427.313.77.701.77H14.3c.388 0 .701-.343.701-.77V5.77c0-.427-.313-.77-.701-.77zM5 7a3 3 0 0 1 3 3 3 3 0 0 1 3-3 3 3 0 0 1 3 3 3 3 0 0 1-3 3 3 3 0 0 1-3-3 3 3 0 0 1-3 3 3 3 0 0 1-3-3 3 3 0 0 1 3-3m0 2a1 1 0 0 0-1 1 1 1 0 0 0 1 1 1 1 0 0 0 1-1 1 1 0 0 0-1-1m6 0a1 1 0 0 0-1 1 1 1 0 0 0 1 1 1 1 0 0 0 1-1 1 1 0 0 0-1-1M1.701 1C1.313 1 1 1.256 1 1.572v2.856c0 .316.313.572.701.572H14.3c.388 0 .701-.256.701-.572V1.572c0-.316-.313-.572-.701-.572zm1.045 1h10.508c.414 0 .746.202.746.451V3.55c0 .25-.332.451-.746.451H2.746C2.332 4 2 3.798 2 3.549V2.45c0-.25.332-.451.746-.451m.654.6A.4.4 0 0 0 3 3a.4.4 0 0 0 .4.4.4.4 0 0 0 .4-.4.4.4 0 0 0-.4-.4m1.6 0a.4.4 0 0 0-.4.4.4.4 0 0 0 .4.4.4.4 0 0 0 .4-.4.4.4 0 0 0-.4-.4m1.4 0A.4.4 0 0 0 6 3a.4.4 0 0 0 .4.4.4.4 0 0 0 .4-.4.4.4 0 0 0-.4-.4m5.8 0v.8h.8v-.8z" class="ColorScheme-Text" style="fill:currentColor"/></svg>