<svg xmlns="http://www.w3.org/2000/svg" width="16" height="16"><path d="M7.5 1A6.5 6.5 0 0 0 1 7.5a6.5 6.5 0 0 0 6.041 6.477C7.038 14.875 7 16 7 16c3.95-.49 7-3.918 7-8 0-.092-.009-.17-.012-.258q.009-.12.012-.242A6.5 6.5 0 0 0 7.5 1m-4 5A1.5 1.5 0 0 1 5 7.5 1.5 1.5 0 0 1 3.5 9 1.5 1.5 0 0 1 2 7.5 1.5 1.5 0 0 1 3.5 6m4 0A1.5 1.5 0 0 1 9 7.5 1.5 1.5 0 0 1 7.5 9 1.5 1.5 0 0 1 6 7.5 1.5 1.5 0 0 1 7.5 6m4 0A1.5 1.5 0 0 1 13 7.5 1.5 1.5 0 0 1 11.5 9 1.5 1.5 0 0 1 10 7.5 1.5 1.5 0 0 1 11.5 6" style="color:#dfdfdf;fill:currentColor"/></svg>