<svg xmlns="http://www.w3.org/2000/svg" width="16" height="16"><path d="M3.945 2a.89.89 0 0 0-.763.428L.119 7.568a.84.84 0 0 0 0 .862l3.063 5.142a.89.89 0 0 0 .763.428h6.114a.89.89 0 0 0 .761-.428l3.06-5.142a.84.84 0 0 0 0-.862l-3.06-5.14A.89.89 0 0 0 10.06 2zm.63 2H9.43l.058.098L7 6.586 4.514 4.1zm5.968 1.871L11.809 8l-1.266 2.129L8.414 8zm-7.084.002L5.586 8l-2.127 2.127L2.191 8zM7 9.414 9.486 11.9l-.058.1H4.574l-.06-.1z" style="color:#dfdfdf;fill:currentColor"/><path d="M12.432 2c-.344 0-.542.349-.368.602l.762 1.099.757 1.098c.187.268.65.268.835 0l.76-1.098.758-1.099c.183-.267-.048-.6-.416-.602Z" style="color:#4285f4;fill:currentColor"/></svg>