<svg xmlns="http://www.w3.org/2000/svg" width="16" height="16"><defs><style id="current-color-scheme" type="text/css">.ColorScheme-Text{color:#dfdfdf}</style></defs><path d="M1 11c0 1 0 1 1 1h2s1 0 1-1v-1c0-4.215-4 .21-3.988-3.991C1.01 5.589 1 5.264 1 5c0-1 1-1 1-1h2c1 0 1 0 1 1" class="ColorScheme-Text" style="fill:none;stroke:currentColor;stroke-width:2;stroke-linecap:round;stroke-linejoin:round"/><path d="m15.043 11.999-2-1m-2-7c2.4 0 2 2 2 4s.356 4.06-2 4c-2.348 0-2-2-2-4s-.435-4 2-4" class="ColorScheme-Text" style="fill:none;stroke:currentColor;stroke-width:2;stroke-linecap:round"/></svg>