<svg xmlns="http://www.w3.org/2000/svg" width="16" height="16"><path d="M14.75 2a.25.25 0 0 1 .25.25v.5a.25.25 0 0 1-.25.25H13V2Zm0 2a.25.25 0 0 1 .25.25v.5a.25.25 0 0 1-.25.25H13V4Zm0 2a.25.25 0 0 1 .25.25v.5a.25.25 0 0 1-.25.25H13V6Zm0 2a.25.25 0 0 1 .25.25v.5a.25.25 0 0 1-.25.25H13V8Zm0 2a.25.25 0 0 1 .25.25v.5a.25.25 0 0 1-.25.25H13v-1Zm0 2a.25.25 0 0 1 .25.25v.5a.25.25 0 0 1-.25.25H13v-1ZM1.25 2a.25.25 0 0 0-.25.25v.5c0 .139.111.25.25.25H3V2Zm0 2a.25.25 0 0 0-.25.25v.5c0 .138.111.25.25.25H3V4Zm0 2a.25.25 0 0 0-.25.25v.5c0 .138.111.25.25.25H3V6Zm0 2a.25.25 0 0 0-.25.25v.5c0 .138.111.25.25.25H3V8Zm0 2a.25.25 0 0 0-.25.25v.5c0 .138.111.25.25.25H3v-1Zm0 2a.25.25 0 0 0-.25.25v.5c0 .138.111.25.25.25H3v-1ZM5 1h6c.554 0 1 .446 1 1v11c0 .554-.446 1-1 1H5c-.554 0-1-.446-1-1V2c0-.554.446-1 1-1" style="color:#dfdfdf;fill:currentColor"/></svg>