<svg xmlns="http://www.w3.org/2000/svg" width="16" height="16"><path d="M3.348 0a.26.26 0 0 0-.254.262V1.83A1.54 1.54 0 0 0 1.83 3.094H.262a.259.259 0 1 0 0 .517h1.54v2.582H.263a.258.258 0 1 0 0 .516h1.54v2.582H.263a.258.258 0 1 0 0 .516h1.54v2.582H.263a.259.259 0 1 0 0 .517H1.83c.109.65.615 1.155 1.264 1.264v1.568a.259.259 0 1 0 .517 0v-1.541h2.582v1.541a.258.258 0 1 0 .516 0v-1.541h2.582v1.541a.258.258 0 1 0 .516 0v-1.541h2.582v1.541a.259.259 0 1 0 .517 0V14.17a1.54 1.54 0 0 0 1.264-1.264h1.568a.26.26 0 0 0 .262-.261.26.26 0 0 0-.262-.256h-1.541V9.807h1.541A.26.26 0 0 0 16 9.545a.26.26 0 0 0-.262-.254h-1.541V6.709h1.541A.26.26 0 0 0 16 6.447a.26.26 0 0 0-.262-.254h-1.541V3.611h1.541A.26.26 0 0 0 16 3.348a.26.26 0 0 0-.262-.254H14.17a1.54 1.54 0 0 0-1.264-1.264V.262A.26.26 0 0 0 12.643 0a.26.26 0 0 0-.254.262v1.54H9.807V.263A.26.26 0 0 0 9.545 0a.26.26 0 0 0-.254.262v1.54H6.709V.263A.26.26 0 0 0 6.447 0a.26.26 0 0 0-.254.262v1.54H3.611V.263A.26.26 0 0 0 3.348 0M3.5 3h9a.499.499 0 1 1 0 1h-9a.499.499 0 1 1 0-1m0 3h9a.499.499 0 1 1 0 1h-9a.499.499 0 1 1 0-1m0 3h9a.499.499 0 1 1 0 1h-9a.499.499 0 1 1 0-1m0 3h9a.499.499 0 1 1 0 1h-9a.499.499 0 1 1 0-1" style="color:#f44336;fill:currentColor"/></svg>