<svg xmlns="http://www.w3.org/2000/svg" width="16" height="16"><defs><style id="current-color-scheme" type="text/css">.ColorScheme-Text{color:#dfdfdf}</style></defs><path d="M2 3v11c0 .554.446 1 1 1h10c.554 0 1-.446 1-1V3Zm2.5 2h7a.5.5 0 0 1 .5.5v4a.5.5 0 0 1-.5.5h-7a.5.5 0 0 1-.5-.5v-4a.5.5 0 0 1 .5-.5M5 6v1h6V6Zm0 2v1h6V8Zm0 3h1v1h1v-1h1v1h1v-1h1v1h1v-1h1v1h-1v1h1v1h-1v-1h-1v1H9v-1H8v1H7v-1H6v1H5v-1H4v-1h1Zm0 1v1h1v-1Zm2 1h1v-1H7Zm2 0h1v-1H9Z" class="ColorScheme-Text" style="fill:currentColor"/><path d="m2 2 2-1h8l2 1Z" class="ColorScheme-Text" style="fill:currentColor;fill-rule:evenodd"/></svg>