<svg xmlns="http://www.w3.org/2000/svg" width="16" height="16"><defs><style id="current-color-scheme" type="text/css">.ColorScheme-Text{color:#dfdfdf}</style></defs><path d="M6 10.997c0 1 0 1-1 1H3c-.462 0-1 0-1-1v-6c0-1 0-1 1-1h2c1 0 1 0 1 1" class="ColorScheme-Text" style="fill:none;stroke:currentColor;stroke-width:2;stroke-linecap:round;stroke-linejoin:bevel"/><path d="m14 12-2-3m-2-1h3c1 0 1 0 1-1V5c0-1 0-1-1-1-.225 0-.544.01-.875.007C11 4 10 4 10 4m0 8V4" class="ColorScheme-Text" style="fill:none;stroke:currentColor;stroke-width:2;stroke-linecap:round"/></svg>