<svg xmlns="http://www.w3.org/2000/svg" width="16" height="16"><defs><style id="current-color-scheme" type="text/css">.ColorScheme-Text{color:#dfdfdf}</style></defs><path d="M8 1.003A7 7 0 1 0 8 15a7 7 0 0 0 .82-.056C6.73 13.369 5 10.832 5 8.034 5 5.2 6.731 2.686 8.823 1.087A7 7 0 0 0 8 1Z" class="ColorScheme-Text" style="fill:currentColor"/><path d="M10.003 1.266C7.753 2.665 6 5.115 6 8.002c0 2.839 1.752 5.316 4.003 6.701A7 7 0 0 0 15 7.967a7 7 0 0 0-4.997-6.703Z" class="ColorScheme-Text" style="opacity:.35;fill:currentColor"/></svg>