<svg xmlns="http://www.w3.org/2000/svg" width="16" height="16"><defs><style id="current-color-scheme" type="text/css">.ColorScheme-Text{color:#dfdfdf}</style></defs><path d="M2 7.977s2 .022 3 .022h1c1 0 1 0 1 1V11c0 1 0 1-1 1H5c-1 0-3-.023-3-.023m0-8v8m0-3.978h2c2 0 2 0 2-2V5c0-1 0-1-1-1H2m0 8V4" class="ColorScheme-Text" style="fill:none;stroke:currentColor;stroke-width:2;stroke-linecap:round;stroke-linejoin:bevel"/><path d="M11 11c0 1 0 1 1 1h2s1 0 1-1v-1c0-4.215-4 .21-3.988-3.991C11.01 5.589 11 5.264 11 5c0-1 1-1 1-1h2c1 0 1 0 1 1" class="ColorScheme-Text" style="fill:none;stroke:currentColor;stroke-width:2;stroke-linecap:round;stroke-linejoin:round"/></svg>