<svg xmlns="http://www.w3.org/2000/svg" width="16" height="16"><defs><style id="current-color-scheme" type="text/css">.ColorScheme-Text{color:#dfdfdf}</style></defs><path d="M1 11c0 1 0 1 1 1h2s1 0 1-1v-1c0-4.215-4 .21-3.988-3.991C1.01 5.589 1 5.264 1 5c0-1 1-1 1-1h2c1 0 1 0 1 1" class="ColorScheme-Text" style="fill:none;stroke:currentColor;stroke-width:2;stroke-linecap:round;stroke-linejoin:round"/><path d="M15.002 3.995v6c0 1 0 2-1 2-.396 0-.611.01-1 0-.384.002 0 0-1 0s-1-1-1-2v-6m0 0v6c0 1 0 2-1 2-.396 0-.611.01-1 0-.384.002 0 0-1 0s-1-1-1-2v-6" class="ColorScheme-Text" style="fill:none;stroke:currentColor;stroke-width:2;stroke-linecap:round;stroke-linejoin:bevel"/></svg>