<svg xmlns="http://www.w3.org/2000/svg" width="16" height="16"><path d="m4.293 1-1.19 1.19 1.19 1.191 1.19-1.19Zm9.331.168a1.26 1.26 0 0 0-1.262 1.263 1.26 1.26 0 0 0 1.262 1.263 1.26 1.26 0 0 0 1.262-1.263 1.26 1.26 0 0 0-1.262-1.263M2.509 2.786l-1.191 1.19 1.191 1.191 1.19-1.19Zm3.569 0-1.19 1.19 1.19 1.191 1.19-1.19Zm5.691.608-.695.696.892.893.695-.696a2.13 2.13 0 0 1-.892-.893m-2.767.048L3.925 8.524a6.3 6.3 0 0 1 2.153 1.419 6.3 6.3 0 0 1 1.416 2.153l5.077-5.083Zm-4.709 1.13-1.19 1.19 1.19 1.19 1.19-1.19Zm7.732 4.173-1.19 1.193 1.19 1.19 1.19-1.19Zm-10.13.218a4 4 0 0 0-.54.048.42.421 0 0 0-.23.714l5.144 5.15a.42.421 0 0 0 .714-.231c.231-1.428-.356-2.981-1.5-4.129-1.003-1.003-2.318-1.58-3.588-1.552m8.346 1.57-1.19 1.19 1.19 1.191 1.19-1.191Zm3.57 0-1.191 1.19 1.191 1.191L15 11.723Zm-1.785 1.786-1.19 1.19 1.19 1.191 1.19-1.191Z" style="color:#dfdfdf;fill:currentColor"/></svg>