<svg xmlns="http://www.w3.org/2000/svg" width="16" height="16"><defs><style id="current-color-scheme" type="text/css">.ColorScheme-Text{color:#dfdfdf}</style></defs><path d="M2.002 9h4m-4 3V6m4 6V6m-4 0V5c0-1 0-1 2-1s2 0 2 1v1" class="ColorScheme-Text" style="fill:none;stroke:currentColor;stroke-width:2;stroke-linecap:round;stroke-linejoin:bevel"/><path d="m14 12-2-3m-2-1h3c1 0 1 0 1-1V5c0-1 0-1-1-1-.225 0-.544.01-.875.007C11 4 10 4 10 4m0 8V4" class="ColorScheme-Text" style="fill:none;stroke:currentColor;stroke-width:2;stroke-linecap:round"/></svg>