<svg xmlns="http://www.w3.org/2000/svg" width="16" height="16"><defs><style id="current-color-scheme" type="text/css">.ColorScheme-Text{color:#dfdfdf}</style></defs><path d="M1 7.977s2 .022 3 .022h1c1 0 1 0 1 1V11c0 1 0 1-1 1H4c-1 0-3-.023-3-.023m0-8v8m0-3.978h2c2 0 2 0 2-2V5c0-1 0-1-1-1H1m0 8V4" class="ColorScheme-Text" style="fill:none;stroke:currentColor;stroke-width:2;stroke-linecap:round;stroke-linejoin:bevel"/><path d="M15 12V4M9 4l3 4 3-4m-6 8V4" class="ColorScheme-Text" style="fill:none;stroke:currentColor;stroke-width:2;stroke-linecap:round;stroke-linejoin:round"/></svg>