<svg xmlns="http://www.w3.org/2000/svg" width="16" height="16"><defs><style id="current-color-scheme" type="text/css">.ColorScheme-Text{color:#dfdfdf}</style></defs><path d="M2 8h3c1 0 1 0 1-1V5c0-1 0-1-1-1-.233 0-.575.02-.921.025C2.999 4.04 2 4 2 4m0 8V4" class="ColorScheme-Text" style="fill:none;stroke:currentColor;stroke-width:2;stroke-linecap:round;stroke-linejoin:bevel"/><path d="M10 11c0 1 0 1 1 1h2s1 0 1-1v-1c0-4.215-4 .21-3.988-3.991C10.01 5.589 10 5.264 10 5c0-1 1-1 1-1h2c1 0 1 0 1 1" class="ColorScheme-Text" style="fill:none;stroke:currentColor;stroke-width:2;stroke-linecap:round;stroke-linejoin:round"/></svg>