<svg xmlns="http://www.w3.org/2000/svg" width="16" height="16"><path d="M2 2C.892 2 0 2.892 0 4v8c0 1.108.892 2 2 2h11c1.108 0 2-.892 2-2V4c0-1.108-.892-2-2-2Zm.25 2h1.5a.25.25 0 0 1 .25.25v1.5a.25.25 0 0 1-.25.25h-1.5A.25.25 0 0 1 2 5.75v-1.5A.25.25 0 0 1 2.25 4m3 0h1.5a.25.25 0 0 1 .25.25v1.5a.25.25 0 0 1-.25.25h-1.5A.25.25 0 0 1 5 5.75v-1.5A.25.25 0 0 1 5.25 4m3 0h1.5a.25.25 0 0 1 .25.25v1.5a.25.25 0 0 1-.25.25h-1.5A.25.25 0 0 1 8 5.75v-1.5A.25.25 0 0 1 8.25 4m3 0h1.5a.25.25 0 0 1 .25.25v1.5a.25.25 0 0 1-.25.25h-1.5a.25.25 0 0 1-.25-.25v-1.5a.25.25 0 0 1 .25-.25m-9 3h1.5a.25.25 0 0 1 .25.25v1.5a.25.25 0 0 1-.25.25h-1.5A.25.25 0 0 1 2 8.75v-1.5A.25.25 0 0 1 2.25 7m3 0h1.5a.25.25 0 0 1 .25.25v1.5a.25.25 0 0 1-.25.25h-1.5A.25.25 0 0 1 5 8.75v-1.5A.25.25 0 0 1 5.25 7m3 0h1.5c.139 0 .25.111.25.25v1.5c0 .139-.111.25-.25.25h-1.5A.25.25 0 0 1 8 8.75v-1.5c0-.139.111-.25.25-.25m3 0h1.5c.139 0 .25.111.25.25v1.5c0 .139-.111.25-.25.25h-1.5a.25.25 0 0 1-.25-.25v-1.5c0-.139.111-.25.25-.25m-7 3h6.5c.139 0 .25.111.25.25v1.5c0 .139-.111.25-.25.25h-6.5a.25.25 0 0 1-.25-.25v-1.5a.25.25 0 0 1 .25-.25" style="color:#dfdfdf;fill:currentColor"/></svg>