<svg xmlns="http://www.w3.org/2000/svg" width="16" height="16"><defs><style id="current-color-scheme" type="text/css">.ColorScheme-Text{color:#dfdfdf}</style></defs><path d="M5.99 8a3.999 3.999 0 1 0 .019 8 3.999 3.999 0 0 0-.019-8M4 10h1v4H4zm3 0h1v4H7z" class="ColorScheme-Text" style="fill:currentColor"/><path d="M14 0C9.095 0 4.93 3.23 3.516 7.674a5 5 0 0 1 2.414-.668A8.99 8.99 0 0 1 14 2zm0 4a7.01 7.01 0 0 0-6.008 3.416A5 5 0 0 1 9.63 8.562 4.98 4.98 0 0 1 14 6zm-1.5 4A1.5 1.5 0 0 0 11 9.5a1.5 1.5 0 0 0 1.5 1.5A1.5 1.5 0 0 0 14 9.5 1.5 1.5 0 0 0 12.5 8M11 12v4h3v-4z" class="ColorScheme-Text" style="fill:currentColor;opacity:.35"/></svg>