<svg xmlns="http://www.w3.org/2000/svg" width="16" height="16"><path d="M2.6 0C1.888 0 1.175.11.643.643.11 1.175 0 1.888 0 2.6V8a1 1 0 0 0 1 1 1 1 0 0 0 1-1V2.6c0-.361.05-.501.063-.538C2.099 2.05 2.239 2 2.6 2h10.8c.361 0 .501.05.538.062.012.037.062.177.062.538V4a1 1 0 0 0 1 1 1 1 0 0 0 1-1V2.6c0-.712-.11-1.425-.643-1.957C14.825.11 14.112 0 13.4 0ZM2 6a2 2 0 0 0 2 2 2 2 0 0 0 2-2 2 2 0 0 0-2-2 2 2 0 0 0-2 2m6-3a1 1 0 0 0-1 1v3.182A3 3 0 0 1 8 7a3 3 0 0 1 1 .174V4a1 1 0 0 0-1-1m4 0a1 1 0 0 0-1 1v.184A3 3 0 0 1 12 4a3 3 0 0 1 1 .18V4a1 1 0 0 0-1-1m0 2a2 2 0 0 0-2 2 2 2 0 0 0 2 2 2 2 0 0 0 2-2 2 2 0 0 0-2-2m3 2a1 1 0 0 0-1 1v5.4c0 .361-.05.501-.062.538-.037.012-.177.062-.538.062H2.6c-.361 0-.501-.05-.538-.062C2.05 13.9 2 13.76 2 13.4V12a1 1 0 0 0-1-1 1 1 0 0 0-1 1v1.4c0 .712.11 1.425.643 1.957.532.533 1.245.643 1.957.643h10.8c.712 0 1.425-.11 1.957-.643.533-.532.643-1.245.643-1.957V8a1 1 0 0 0-1-1M8 8a2 2 0 0 0-2 2 2 2 0 0 0 2 2 2 2 0 0 0 2-2 2 2 0 0 0-2-2m-5 .816V12a1 1 0 0 0 1 1 1 1 0 0 0 1-1V8.818A3 3 0 0 1 4 9a3 3 0 0 1-1-.184m10 1A3 3 0 0 1 12 10a3 3 0 0 1-1-.18V12a1 1 0 0 0 1 1 1 1 0 0 0 1-1z" style="color:#dfdfdf;fill:currentColor"/></svg>