<svg xmlns="http://www.w3.org/2000/svg" width="16" height="16"><path d="M7 1c-.03 0-.34.63-.531 1.008-.28.554-.413.982-.46 1.474q-.014.183-.001.36a1.984 1.984 0 0 0 .412 1.373A6.01 6.01 0 0 0 2.932 7.79a3.1 3.1 0 0 0-.39.64 6 6 0 0 0-.362 1.124 6 6 0 0 0-.137.722c-.002.022.005.027.016.024-.012.095-.027.186-.035.285-.029.319-.032.45-.01.45L6 7l-.96 3.012c.004.005-.107.047.027-.014.818-.377 1.568-.886 2.47-.994.311-.037 1.389-.038 1.713-.004.657.069 1.257.744 1.994.947.327.09.489.063.756.053.268-.01.425.003.623-.092.494-.237.752-.926.68-1.482q-.013-.078-.031-.153c.02-.052.001-.14-.082-.287a2.8 2.8 0 0 0-.387-.683c-.885-.973-1.966-1.739-3.223-2.09a1.98 1.98 0 0 0 .414-1.365c.002-.051.007-.103.004-.153-.035-.685-.43-1.154-1.03-1.463-.316-.163-.8-.24-1.116-.24C7.37 1.926 7.29 1.28 7 1M4.553 9.887s-.414.363-1.828 1.851a1 1 0 0 1-.63.282A6 6 0 0 0 3.538 15h8.928A6 6 0 0 0 14 11a6 6 0 0 0-.078-.928 2.15 2.15 0 0 1-.865.737c-.417.2-.798.183-1.02.191-.214.008-.6.038-1.058-.088-.576-.158-.982-.446-1.293-.64-.311-.195-.517-.275-.54-.278a49 49 0 0 0-1.49.002c-.596.071-1.25.486-2.166.908l-.005.002-.016.01c-.05.025-.058.03-.139.059-.02.007-.116.033-.117.033l-.26.021-.328-.072-.086-.039.461-.887zM5 12a1 1 0 0 1 1 1 1 1 0 0 1-1 1 1 1 0 0 1-1-1 1 1 0 0 1 1-1m6 0a1 1 0 0 1 1 1 1 1 0 0 1-1 1 1 1 0 0 1-1-1 1 1 0 0 1 1-1" style="color:#dfdfdf;fill:currentColor"/></svg>