<svg xmlns="http://www.w3.org/2000/svg" width="16" height="16"><circle cx="14.5" cy="1.5" r="1.5" style="color:#4285f4;fill:currentColor"/><path d="M8 1C4.122 1 1 4.122 1 8s3.122 7 7 7 7-3.122 7-7-3.122-7-7-7m0 2a5 5 0 1 1 0 10A5 5 0 0 1 8 3m-.5.955c-.147.015-.294.026-.436.055a4.3 4.3 0 0 0-.818.246 4.38 4.38 0 0 0-2.531 2.967c.008.01.017.016.027.027.235.25.85.597 1.307.762.25.09.732.233 1.062.3.33.068.548.135.516.137s-.18.112-.326.244c-.28.252-.424.473-.545.871-.066.218-.06.293.027.41.052.072.286.238.518.381s.503.342.6.436c.36.349.599.972.599 1.578 0 .155.016.236.027.272.03.002.05-.003.08 0 .067-.026.168-.056.327-.135 1.33-.666 1.94-1.527 1.88-2.668-.047-.91-.475-1.24-2.207-1.608-1.274-.27-1.959-.729-1.959-1.306 0-.153.05-.242.217-.408.18-.18.217-.192.356-.164.088.017.313.135.488.273.394.312.587.436.791.436.087 0 .162-.015.162-.028s-.064-.112-.135-.217c-.393-.579-.368-1.663.055-2.587.067-.146.114-.246.107-.274-.058.004-.13-.006-.189 0m4.084 2.043c-.08-.049-.723.628-.871.926-.294.59-.183.975.517 1.715.243.256.534.601.625.763.092.162.17.295.192.272s.084-.21.135-.408c.132-.523.142-1.435 0-1.961-.11-.408-.496-1.244-.598-1.307" style="color:#dfdfdf;fill:currentColor"/></svg>