<svg xmlns="http://www.w3.org/2000/svg" width="16" height="16"><path d="M7.33.01A7.5 7.5 0 0 0 0 7.5a7.5 7.5 0 1 0 15 0 7.5 7.5 0 0 0-3.229-6.14l-.187 1.456A5.5 5.5 0 0 1 13 6.5 5.5 5.5 0 0 1 7.5 12 5.5 5.5 0 0 1 2 6.5a5.5 5.5 0 0 1 3.705-5.186 6 6 0 0 1 .309-.105q.317-.1.65-.164c.271-.324.378-.69.512-.854.053-.065.102-.12.154-.181M9.678 1a.1.1 0 0 0-.037.012c-.037.017-.214.225-.395.463-1.114 1.352-2.478 2.527-3.182 3.95-.08.3-.087.783-.015 1.063.196.77.854 1.346 1.701 1.494.038.007.172.016.295.018.513.008.95-.18 1.32-.564.195-.203.25-.282.37-.541.077-.168.16-.39.187-.495.067-.267.1-.317.064-1.58V1.14C9.97 1.052 9.78.989 9.678 1" style="color:#dfdfdf;fill:currentColor"/></svg>