<svg xmlns="http://www.w3.org/2000/svg" width="16" height="16"><path d="M8 1C6.159 2.724 3.058 3.992 2 4.25 2 8.916 4.25 14.222 8 15c3.75-.778 6-6.084 6-10.75C12.941 3.992 9.841 2.724 8 1m0 4a3 3 0 0 1 2.209.975l.789-.457-.178 1.474.004.008h-.004l-.121 1L8.4 7.018l.909-.526A2 2 0 0 0 8 6a2 2 0 0 0-1.73 1H5.174A3 3 0 0 1 8 5M5.299 8.018 7.598 9l-.897.518A2 2 0 0 0 8 10a2 2 0 0 0 1.73-1h1.096A3 3 0 0 1 8 11a3 3 0 0 1-2.197-.963L5 10.5l.18-1.49L5.176 9h.004Z" style="color:#dfdfdf;fill:currentColor;fill-rule:evenodd"/></svg>