<svg xmlns="http://www.w3.org/2000/svg" width="16" height="16"><path d="M7.53 1.41C5.97 2.678 3.823 3.649 2.596 4.07c-.326.111-.598.46-.584.804.173 4.122 2.042 8.556 5.104 9.85.47.199 1.295.199 1.766 0 3.062-1.294 4.93-5.728 5.104-9.85.014-.344-.258-.693-.585-.805-1.227-.42-3.373-1.392-4.932-2.66a.76.76 0 0 0-.94 0m4.191 5a.5.5 90.794 0 1-.01.706l-3.176 3.177-.109.109a.846.846.002 0 1-1.196 0l-.109-.109L5.38 8.551a.536.536 89.998 0 1 0-.758.5.5 4.165 0 1 .707.051l1.557 1.557a.26.26 180 0 0 .37 0l2.992-2.992a.507.507 180 0 1 .716 0" style="color:#dfdfdf;fill:#00ff75;fill-rule:evenodd;fill-opacity:1"/></svg>