<svg xmlns="http://www.w3.org/2000/svg" width="16" height="16"><path d="M1.582 1C.708 1 0 1.678 0 2.514v9.973c0 .836.708 1.506 1.582 1.506h3.95l.404.488 1.423 1.277a.698.698 0 0 0 1.057 0l1.43-1.277.404-.488h4.168c.874 0 1.582-.67 1.582-1.506V2.514C16 1.678 15.292 1 14.418 1zm3.729 2h.015c.568.005.92.689.643 1.24q-.482.955-1.227 2.44a.69.69 0 0 0 .004.613q.276.547.81 1.592a.263.263 0 0 0 .475.012C6.623 7.859 7.586 6.16 8.93 3.803c.278-.486.752-.784 1.27-.789h.019c.552-.009 1.065.32 1.34.854q.48.939 1.293 2.515c.195.377.195.846.007 1.227l-1.492 2.97a.74.74 0 0 1-.658.42h-.035c-.568-.004-.921-.688-.643-1.24q.483-.954 1.223-2.44a.69.69 0 0 0-.004-.612q-.281-.547-.826-1.592c-.106-.202-.365-.205-.479-.008l-2.822 5.086c-.278.504-.768.806-1.297.806h-.062c-.545 0-1.05-.323-1.32-.853l-1.298-2.52a1.37 1.37 0 0 1 0-1.236q.525-1.013 1.506-2.965c.134-.263.384-.43.659-.426" style="color:#dfdfdf;fill:currentColor"/></svg>