<svg xmlns="http://www.w3.org/2000/svg" width="16" height="16"><defs><style id="current-color-scheme" type="text/css">.ColorScheme-Text{color:#dfdfdf}</style></defs><path d="m15 1.01-14 14h8v-4h1.01c.02-1.64 1.35-3 2.99-3 .77 0 1.47.31 2 .8Z" class="ColorScheme-Text" style="opacity:.35;fill:currentColor"/><path d="m5 11.01-4 4h4ZM13 9c-1.11 0-2 .91-2 2.03V12h-1v4h6v-4h-1v-.97C15 9.91 14.11 9 13 9m0 1c.55 0 1 .44 1 1v1h-2v-1c0-.56.45-1 1-1" class="ColorScheme-Text" style="fill:currentColor"/></svg>