<svg xmlns="http://www.w3.org/2000/svg" width="16" height="16"><defs><style id="current-color-scheme" type="text/css">.ColorScheme-Text{color:#dfdfdf}</style></defs><path d="M1 1S0 1 0 2v3h2V3h1v2h1V3h1v2h1V3h1v2h1V3h1v2h1V3h1v2h1V3h1v2h2V2c0-1-1-1-1-1Zm-1 9v2c0 1 1 1 1 1h2l1 1h7l1-1h2s1 .13 1-1v-2h-2v1h-2l-1 1H5l-1-1H2v-1z" class="ColorScheme-Text" style="opacity:.35;fill:currentColor"/><path d="M2.5 6A1.5 1.5 0 0 0 1 7.5 1.5 1.5 0 0 0 2.5 9 1.5 1.5 0 0 0 4 7.5 1.5 1.5 0 0 0 2.5 6m5 0A1.5 1.5 0 0 0 6 7.5 1.5 1.5 0 0 0 7.5 9 1.5 1.5 0 0 0 9 7.5 1.5 1.5 0 0 0 7.5 6m5 0A1.5 1.5 0 0 0 11 7.5 1.5 1.5 0 0 0 12.5 9 1.5 1.5 0 0 0 14 7.5 1.5 1.5 0 0 0 12.5 6" class="ColorScheme-Text" style="fill:currentColor"/></svg>