<svg xmlns="http://www.w3.org/2000/svg" width="16" height="16"><defs><style id="current-color-scheme" type="text/css">.ColorScheme-Text{color:#dfdfdf}</style></defs><path d="m15 1.01-4 4h4Zm-10 10-4 4h14v-4Z" class="ColorScheme-Text" style="opacity:.35;fill:currentColor"/><path d="M3 6.01c-1.11 0-2 .89-2 2s.89 2 2 2 2-.89 2-2-.89-2-2-2m5 0c-1.11 0-2 .89-2 2s.89 2 2 2 2-.89 2-2-.89-2-2-2m5 0c-1.11 0-2 .89-2 2s.89 2 2 2 2-.89 2-2-.89-2-2-2" class="ColorScheme-Text" style="fill:currentColor"/></svg>