<svg xmlns="http://www.w3.org/2000/svg" width="16" height="16"><path d="M7.417 1.002a6 6 0 0 0-1.738.24c-.833.33-1.516.632-.738 1.043A14.6 14.6 0 0 1 9.009 5.44c.523.58.985 1.193 1.4 1.827A5 5 0 0 1 12 7a5 5 0 0 1 2.903.934c-.203-1.525-.832-3.126-2.008-4.428-1.508-1.67-3.575-2.497-5.477-2.504m7.407.006a2 2 0 0 0-.659.07c-.498.142-.978.508-1.445.897.319.264.63.543.916.86.111.124.21.253.313.38.12-.057.249-.11.404-.145.358-.081.967.15 1.25.252.376.007.45-.56.365-.959-.098-.467-.405-.799-.598-1.113a.87.87 0 0 0-.546-.242M4.249 3.025c-.043.032-.087.059-.13.092C.807 5.63-1.046 11.18.623 13.147c1.387 1.633 4.439 2.185 7.233 1.644A5 5 0 0 1 6.999 12a5 5 0 0 1 2.493-4.318 14 14 0 0 0-1.225-1.573 13.6 13.6 0 0 0-3.79-2.937h-.001l-.002-.002c-.074-.04-.149-.098-.225-.145" style="color:#dfdfdf;fill:currentColor"/><path d="M12.28 8.01A3.998 3.998 0 1 0 14 15.463a3.996 3.996 0 0 0 1.464-5.46A4 4 0 0 0 12.28 8.01M10 10h.707l.233.233 1.06 1.06 1.061-1.06.232-.233h.708v.707l-.233.233-1.06 1.06 1.06 1.061.233.232V14h-.708l-.232-.232-1.06-1.06-1.061 1.06-.233.232H10v-.707l.233-.232 1.06-1.06-1.06-1.061-.233-.233z" style="color:#f44336;fill:currentColor"/></svg>