<svg xmlns="http://www.w3.org/2000/svg" width="16" height="16"><path d="M8 1v2.47l5 3.296V4.295Zm-5.25.596c-.414 0-.75.367-.75.822v1.053l5 3.295V4.295c-1.375-.863-2.505-1.731-3.877-2.59a.7.7 0 0 0-.373-.11M2 5.117v2.47l5 3.296v-2.47Zm6 0v2.47l5 3.296v-2.47ZM2 9.234v2.471L7.25 15 7 12.529Z" style="color:#dfdfdf;fill:currentColor;fill-rule:evenodd"/><path d="M8 9.235v2.469c1.375.863 2.506 1.733 3.878 2.592a.7.7 0 0 0 .372.109c.414 0 .75-.369.75-.824v-1.052Z" style="color:#4285f4;fill:currentColor;fill-rule:evenodd"/></svg>