<svg xmlns="http://www.w3.org/2000/svg" width="16" height="16"><path d="M5 11v5h1v-1.293L7.293 16H8v-.707L6.707 14H8v-3Zm4 0v5h3v-1h-2v-1h2v-1h-2v-1h2v-1Zm4 0v5h3v-1h-2v-3h2v-1Zm-7 1h1v1H6Z" style="color:#4285f4;fill:currentColor"/><path d="M8 1a7 7 0 0 0-7 7 7 7 0 0 0 3 5.734v-2.349A5.25 5.25 0 0 1 2.75 8a5.25 5.25 0 0 1 1.98-4.11 3.9 3.9 0 0 0-.343 1.52c0 .449.11.981.281 1.406.045.113.1.263.262.364s.278.097.441.115c.142.016.435.08.564.125A2.286 2.286 0 0 1 7.433 10h1.105c-.218-1.283.58-2.453 1.908-2.678q.192-.032.389-.027c.908.021 1.805.629 2.133 1.502.026.07.043.122.06.164q.012.028.028.059.007.014.019.039.006.011.02.03l.031.036a5.3 5.3 0 0 1-.279.875h1.855A7 7 0 0 0 15 8a7 7 0 0 0-7-7m0 1.75a5.25 5.25 0 0 1 5.215 4.693 3.573 3.573 0 0 0-2.621-1.676c-.124-.016-.229-.046-.397.016a.6.6 0 0 0-.3.281c-.072.122-.482.54-.712.686-.65.416-1.763.416-2.416 0-.772-.492-1.213-1.456-1.074-2.307q.116-.72.623-1.257.103-.111.166-.182l.028-.035A5.3 5.3 0 0 1 8 2.75M5.13 5.227l.003.002a2.87 2.87 0 0 0 .685 1.45c-.127-.028-.253-.068-.367-.081-.128-.015-.134-.02-.123-.01l-.014-.031a3.6 3.6 0 0 1-.226-1.149c0-.048.037-.123.043-.181m5.339 1.222c.009 0-.023.007.029.014.285.038.459.239.695.334-.296-.045-.563-.215-.865-.164-.061.01-.078.08-.137.094.089-.1.215-.176.278-.278M9.092 7.473c-.507.411-.91.923-1.115 1.502a3.53 3.53 0 0 0-1.04-1.485 2.93 2.93 0 0 0 2.155-.017" style="color:#dfdfdf;fill:currentColor"/></svg>