<svg xmlns="http://www.w3.org/2000/svg" width="16" height="16"><path d="M10.063 2a4 4 0 0 0-.254.006c-.773.037-1.426.336-2.069.765-.273.183-.683.84-.865 1.07-.091.117-.09.117-.23.08-.08-.019-.372-.033-.672-.032-.471 0-.569.01-.836.082-1.512.403-2.562 1.388-2.645 2.916l-.017.347-.123.036c-.43.128-.966.38-1.344.757-.451.45-.754.985-.926 1.625-.073.271-.082.36-.082.85s.01.579.082.85c.373 1.392 1.502 2.415 2.889 2.617.102.015 2.24.026 4.754.029 4.895.004 4.822.006 5.396-.152.542-.15 1.285-.588 1.71-1.012.443-.444.872-1.18 1.026-1.762.38-1.428-.004-2.86-1.04-3.886a5 5 0 0 0-.588-.498l-.254-.167.015-.353a3.84 3.84 0 0 0-.396-1.906A3.9 3.9 0 0 0 11.73 2.4a3.8 3.8 0 0 0-1.668-.4m-.024 2c.305.003.517.052.815.197.497.243.7.447.943.944.162.332.211.57.195.94l-.015.353a2 2 0 0 0 .904 1.761l.254.166-.006-.002c-.14-.091.195.163.28.246.551.547.723 1.17.515 1.956-.026.098-.389.738-.508.857-.089.088-.801.493-.826.5-.306.084-.01.05-.604.066-.594.017-1.814.016-4.26.014a669 669 0 0 1-3.27-.01c-.429-.002-.78-.004-1.026-.008-.087 0-.143-.002-.2-.003-.571-.096-1.044-.501-1.216-1.143-.055-.204-.014.133-.014-.332 0-.217-.008-.254-.012-.258a.3.3 0 0 0 .026-.074c.09-.337.198-.52.408-.729a2.3 2.3 0 0 1 .5-.254l.004-.001.103-.03a2 2 0 0 0 1.442-1.81l.02-.35c.036-.672.369-.882 1.161-1.094a.2.2 0 0 0 .069-.025c0 .003.033.012.256.012q.144-.001.257.004c.154.062.516.175 1.205-.067.85-.298.959-.893 1.006-.945C9.04 4.223 9.54 4.144 10.04 4M6 7v4h2V7zm3 0v4h2V7z" style="color:#dfdfdf;fill:currentColor"/></svg>