<svg xmlns="http://www.w3.org/2000/svg" width="16" height="16"><defs><style id="current-color-scheme" type="text/css">.ColorScheme-Text{color:#dfdfdf}</style></defs><path d="M15 2v8.21c0 .967-.79 1.79-1.777 1.79H7.217l-.862.832-.183.168h2.635c.297 0 .42-.023.615.227l.908.877 1.951 1.787c.32.31.72-.077.719-.696v-1.818c0-.389.389-.377.389-.377h1.834c.43 0 .777-.36.777-.79V2.777A.775.775 0 0 0 15.223 2Z" class="ColorScheme-Text" style="fill:currentColor;opacity:.35"/><path d="M.777 0A.775.775 0 0 0 0 .777v9.432c0 .43.346.791.777.791h1.834s.389-.012.389.377v1.818c0 .619.399 1.005.719.696l1.95-1.787.91-.877c.195-.25.317-.227.614-.227h6.03c.43 0 .777-.36.777-.791V.777A.775.775 0 0 0 13.223 0zM2 2h10v7H7.193c-.097 0-.337-.058-.879.092-.444.122-.875.443-1.15.724l.025-.029-.556.537c-.274-.494-.626-.927-.977-1.092A2.3 2.3 0 0 0 2.596 9H2zm1 1v1h8V3zm0 2v1h6V5zm0 2v1h4V7z" class="ColorScheme-Text" style="fill:currentColor"/></svg>