<svg xmlns="http://www.w3.org/2000/svg" width="16" height="16"><defs><style id="current-color-scheme" type="text/css">.ColorScheme-Text{color:#dfdfdf}</style></defs><path d="M8 2a5 5 0 0 0-4.604 3.049A4 4 0 0 0 0 9a4 4 0 0 0 3.809 3.99V13h4.224A5 5 0 0 1 8 12.5 4.5 4.5 0 0 1 12.5 8a4.5 4.5 0 0 1 3.193 1.332 2.5 2.5 0 0 0-.87-.914A2.5 2.5 0 0 0 15 7.5a2.5 2.5 0 0 0-2.422-2.496A5 5 0 0 0 8 2M6 5h4v3H7v3H6V5m1 1v1h2V6z" class="ColorScheme-Text" style="fill:currentColor;opacity:.35"/><path d="M12.5 9A3.5 3.5 0 0 0 9 12.5a3.5 3.5 0 0 0 3.5 3.5 3.5 3.5 0 0 0 3.5-3.5A3.5 3.5 0 0 0 12.5 9M11 11h1v3h-1zm2 0h1v3h-1z" class="ColorScheme-Text" style="fill:currentColor"/></svg>