<svg xmlns="http://www.w3.org/2000/svg" width="16" height="16"><path d="M11.447 1A3.505 3.505 0 0 0 8.12 5.406a3.499 3.499 0 1 0 6.76-1.81A3.5 3.5 0 0 0 11.447 1m.053 1a.5.5 0 0 1 .5.5V5a.5.5 0 0 1-.5.5.5.5 0 0 1-.5-.5V2.5a.5.5 0 0 1 .5-.5m0 4a.5.5 0 0 1 .5.5.5.5 0 0 1-.5.5.5.5 0 0 1-.5-.5.5.5 0 0 1 .5-.5" style="color:#ff9800;fill:currentColor"/><path d="M1.732 1q-.061-.001-.123.002C.385 1.054-.428 2.321.24 3.372l.065.064 6.718.738a4.5 4.5 0 0 1 .985-2.5l-6.149-.666A2 2 0 0 0 1.732 1M.89 4.506l4.66 8.133c.584-.095.693-.246 1.055-.748l2.408-3.647a4.5 4.5 0 0 1-1.957-3.06ZM13.107 8.69A4.5 4.5 0 0 1 11.5 9a4.5 4.5 0 0 1-1.59-.303L7.428 12.46l-.582.809c-.26.31-.779.31-.973-.063l.584.996c.13.187.26.311.389.436.712.56 1.878.498 2.46-.373z" style="color:#dfdfdf;fill:currentColor;opacity:.35"/></svg>