<svg xmlns="http://www.w3.org/2000/svg" width="16" height="16"><path d="M1.2 1C.533 1 0 1.534 0 2.2v12.6c0 .666.534 1.2 1.2 1.2h12.6c.666 0 1.2-.534 1.2-1.2V2.2c0-.666-.544-1.087-1.2-1.2H8ZM2 3h11v11H2Zm2.95.973c-.195 0-.464.072-.987.258-.05.018-.052.017-.094.035l.033.133c.33-.089.389-.098.473-.098.211 0 .263.08.38.611L5 6l-.691 1.036c-.178.265-.337.425-.43.425a.5.5 0 0 1-.22-.08.55.55 0 0 0-.27-.088c-.17 0-.287.132-.287.309 0 .23.16.371.421.371.262 0 .364-.078.786-.61.227-.291.413-.558.76-1.044L5.32 7.38c.11.46.22.592.49.592.321 0 .54-.211 1.03-1.008l-.117-.07c-.068.08-.112.132-.188.238-.194.266-.293.354-.394.354-.119 0-.195-.114-.254-.362-.026-.097-.027-.116-.035-.142-.211-.903-.303-1.31-.303-1.444.38-.69.674-1.07.826-1.07.05 0 .127.026.203.07.101.062.16.08.236.08.17 0 .288-.132.288-.318 0-.195-.144-.328-.346-.328-.371 0-.685.319-1.276 1.266l-.091-.487c-.118-.601-.212-.779-.44-.779M8 7v1h4V7ZM5 9q-.892 0-1.447.5Q3 9.998 3 10.703q0 .638.398 1.057.397.418.88.51l.005.195h-.7q-.253 0-.368-.082-.115-.081-.127-.285h-.111V13h1.57l-.057-.871q-.455-.158-.617-.547a2.3 2.3 0 0 1-.16-.87q0-.656.357-1.077.361-.424.91-.424.516 0 .899.396.386.4.387 1.147 0 1.142-.784 1.375L5.404 13h1.573v-.902h-.114a.4.4 0 0 1-.1.261q-.09.105-.378.106h-.717l.03-.195q.583-.162.923-.577a1.55 1.55 0 0 0 .344-1.015q-.001-.735-.55-1.205Q5.864 8.999 5 9m3 0v1h4V9Z" style="color:#dfdfdf;fill:currentColor"/></svg>