<svg xmlns="http://www.w3.org/2000/svg" width="16" height="16"><defs><style id="current-color-scheme" type="text/css">.ColorScheme-Text{color:#dfdfdf}</style></defs><path d="M9 1c-.554 0-1 .446-1 1v9c0 .554.446 1 1 1s1-.446 1-1v-.174A3 3 0 1 0 11 5a3 3 0 0 0-1 .176V2c0-.554-.446-1-1-1m1 6h2v2h-2Z" class="ColorScheme-Text" style="fill:currentColor"/><path d="M6 4c-.554 0-1 .446-1 1v.174A3 3 0 1 0 4 11a3 3 0 0 0 1-.176V14c0 .554.446 1 1 1s1-.446 1-1V5c0-.554-.446-1-1-1M3 7h2v2H3Z" class="ColorScheme-Text" style="opacity:.35;fill:currentColor"/></svg>