<svg xmlns="http://www.w3.org/2000/svg" width="16" height="16"><path d="M7.5 1C5.291 1 4 2.791 4 5v1H3a1 1 0 0 0-1 1v7a1 1 0 0 0 1 1h9a1 1 0 0 0 1-1V7a1 1 0 0 0-1-1h-1V5c0-2.209-1.291-4-3.5-4m0 2.037a1.5 1.5 0 0 1 1.5 1.5c0 .354-.077.631-.178.83s-.318.465-.572.67c-.248.2-.75.451-.75.451s.227-.274.32-.488a1.5 1.5 0 1 1-.32-2.963M7.5 7a3.5 3.5 0 1 1 0 7 3.5 3.5 0 0 1 0-7M7 8.05a2.5 2.5 0 0 0-2 2.45 2.5 2.5 0 0 0 2 2.445zm1 .005v4.894a2.5 2.5 0 0 0 2-2.449 2.5 2.5 0 0 0-2-2.445" style="color:#dfdfdf;fill:currentColor"/></svg>