<svg xmlns="http://www.w3.org/2000/svg" width="16" height="16"><path d="M6.223 1C3.838 1 2 2.822 2 5.207v.49a4.33 4.33 0 0 0 2.727 4.02V8.123C3.987 7.613 3.5 6.662 3.5 5.697v-.49C3.5 3.651 4.666 2.5 6.223 2.5h3.554c1.557 0 2.723 1.15 2.723 2.707v.49c0 1.557-1.166 2.808-2.723 2.803H6.961c-.116-.327-.314-.5-.66-.5-.452 0-.801.185-.801.637v5.027c0 .374-.49.715-.854.8-.522.124-1.146-.273-1.146-.777v-2.912c0-.44-.258-.775-.7-.775-.44 0-.8.335-.8.775v2.82C2 14.919 3.133 16 4.455 16s2.553-1.082 2.553-2.404V10H8.99v3.596c0 1.322 1.232 2.404 2.555 2.404.813 0 1.565-.41 2.018-1.033a3 3 0 0 1-1.516-.692c-.16.08-.35.125-.547.125-.67 0-1.015-.462-1-.836V9.912c1.921-.44 3.5-2.162 3.5-4.215v-.49C14 2.822 12.162 1 9.777 1zM.75 7.002c-.413 0-.75.36-.75.799v2.81c0 1.038.628 1.927 1.5 2.258V7.801c0-.44-.337-.799-.75-.799m14.5 0c-.413 0-.75.36-.75.799v1.242a3 3 0 0 1 1.5.72V7.802c0-.44-.337-.799-.75-.799" style="color:#dfdfdf;fill:currentColor"/><circle cx="14" cy="12" r="2" style="color:#4285f4;fill:currentColor"/></svg>