<svg xmlns="http://www.w3.org/2000/svg" width="16" height="16"><path d="M4.75 4c-1.737 0-2.818.931-3.29 1.826A4.1 4.1 0 0 0 1.005 7.5H1l.002.049-.002.05h.004c.009.221.067.91.463 1.635C1.942 10.106 3.02 11 4.75 11c.98 0 1.813-.456 2.5-1.037.455-.385.862-.832 1.25-1.29.388.458.795.905 1.25 1.29.687.58 1.52 1.037 2.5 1.037 1.737 0 2.818-.931 3.29-1.826a4.1 4.1 0 0 0 .456-1.674H16l-.002-.049.002-.05h-.004a3.9 3.9 0 0 0-.463-1.635C15.058 4.894 13.98 4 12.25 4c-.98 0-1.813.456-2.5 1.037-.455.385-.862.832-1.25 1.29-.388-.458-.795-.905-1.25-1.29C6.563 4.457 5.73 4 4.75 4m0 1.5c.52 0 1 .231 1.531.682.408.345.824.81 1.248 1.318-.424.508-.84.973-1.248 1.318-.532.45-1.01.682-1.531.682-1.27 0-1.692-.481-1.967-.984a2.4 2.4 0 0 1-.28-.967 2.6 2.6 0 0 1 .286-1.026c.28-.53.699-1.023 1.961-1.023m7.5 0c1.27 0 1.692.481 1.967.984.236.433.273.853.28.967a2.6 2.6 0 0 1-.286 1.026c-.28.53-.699 1.023-1.961 1.023-.52 0-1-.231-1.531-.682-.408-.345-.824-.81-1.248-1.318.424-.508.84-.973 1.248-1.318.532-.45 1.01-.682 1.531-.682M4.5 6a.5.5 0 0 0-.5.5V7h-.5a.5.5 0 0 0-.5.5.5.5 0 0 0 .5.5H4v.5a.5.5 0 0 0 .5.5.5.5 0 0 0 .5-.5V8h.5a.5.5 0 0 0 .5-.5.5.5 0 0 0-.5-.5H5v-.5a.5.5 0 0 0-.5-.5m8 0a.5.5 0 0 0-.5.5.5.5 0 0 0 .5.5.5.5 0 0 0 .5-.5.5.5 0 0 0-.5-.5m-1 1a.5.5 0 0 0-.5.5.5.5 0 0 0 .5.5.5.5 0 0 0 .5-.5.5.5 0 0 0-.5-.5m2 0a.5.5 0 0 0-.5.5.5.5 0 0 0 .5.5.5.5 0 0 0 .5-.5.5.5 0 0 0-.5-.5m-1 1a.5.5 0 0 0-.5.5.5.5 0 0 0 .5.5.5.5 0 0 0 .5-.5.5.5 0 0 0-.5-.5" style="color:#dfdfdf;fill:currentColor"/></svg>