<svg xmlns="http://www.w3.org/2000/svg" width="16" height="16"><circle cx="14.5" cy="14.5" r="1.5" style="color:#4285f4;fill:currentColor"/><path d="M6.444.003a1 1 0 0 0-.331.09c-1.16.491-1.089 1.263-1.02 2.32.064.25.01.61.048.61 0 0 .833-.076 1.071-.08.244-.087.247-.091.21-.271a3 3 0 0 1-.033-.485c0-.412.092-.71.354-1.13.254-.407.322-.55.322-.678 0-.252-.293-.403-.621-.376m4.035.129c-.055.003-.093.018-.104.047s.02.265.071.526c.185.958.071 1.574-.427 2.305-.102.15-.145.24-.123.26.054.054 1.015.54 1.074.544.03.002.106-.053.168-.12.268-.292.564-.763.71-1.128.382-.954.17-1.724-.6-2.175-.276-.163-.603-.267-.769-.26m-8.678 1.93c-.918.01-1.574.367-1.752.978-.063.215-.066.696-.004.928.14.534.526.909 1.078 1.044.263.065.905.066 1.265.002a6.2 6.2 0 0 0 1.816-.686c.037-.027.24-.526.241-.592 0-.013-.074.013-.164.059-.206.105-1.119.373-1.522.446-.425.077-.963.076-1.166-.002-.205-.08-.299-.213-.298-.422 0-.231.09-.426.278-.597.243-.221.393-.266.982-.283.533-.015.918.027 1.489.163.332.08.506.178.535.303l.02.083.053-.077c.05-.073.349-.091.27-.287-.045-.115-.415-.246-.454-.288-.086-.095-.727-.414-1.026-.512-.35-.115-.8-.203-1.231-.243a4 4 0 0 0-.41-.018m11.534 1.443a5 5 0 0 0-.914.113c-.421.099-.824.244-1.018.366l-.114.073.181.168c.1.092.207.176.238.187s.181-.04.342-.12c.44-.218.847-.314 1.428-.336.435-.016.516-.01.724.055.356.111.547.356.496.638-.051.28-.259.447-.633.507-.226.037-.863-.017-1.444-.12-.147-.027-.279-.042-.293-.033s.009.08.05.156c.35.643 1.753 1.024 2.78.753.784-.206 1.026-.663.703-1.326-.266-.546-.813-.89-1.651-1.038a4.3 4.3 0 0 0-.875-.043M2.423 3.377c-.656.018-.887.107-.786.3.118.223.616.244 1.507.065.55-.111.692-.156.645-.203-.018-.018-.22-.064-.448-.104a3.8 3.8 0 0 0-.918-.058M13.585 4.4c-.493-.017-1.086.07-1.012.146.009.01.18.04.383.07.202.028.405.058.45.066.047.007.27.016.497.018.37.005.411-.002.401-.054-.006-.032-.086-.097-.177-.146-.143-.076-.218-.09-.542-.1m-1.619.472c-.063 0-.086.022-.101.091-.05.228-.134.397-.262.52-.315.304-.792.285-1.455-.058l-.323-.167-.215.23c-.452.484-1.071.647-1.546.407-.16-.081-.287-.282-.334-.528a4 4 0 0 1-.033-.186c0-.042-.096.003-.182.085a1.9 1.9 0 0 1-1.18.474c-.387 0-.582-.124-.72-.457-.034-.08-.072-.147-.085-.147a1 1 0 0 0-.175.101c-.411.276-.978.308-1.193.068-.127-.141-.187-.076-.188.204 0 .285-.058.596-.264 1.44C3.293 8.7 2.652 10.431 2.5 12.11c.004.875.146 1.262.64 1.748.25.245.337.306.67.469.433.212.788.322 1.411.435 1.26.229 3.881.316 4.628.154.413-.089.703-.185 1.017-.34.811-.397 1.263-.919 1.499-1.728.088-.3.152-.871.13-1.15l-.049-.626c-.02-.254-.087-.973-.15-1.598-.177-1.773-.251-1.81-.314-3.367a14 14 0 0 0-.05-.852c-.019-.1-.009-.146.047-.22.092-.124.088-.164-.013-.164M9.16 6.702q.538-.002.78.588c.054.132.07.245.071.516.002.327-.005.36-.108.566a1.4 1.4 0 0 1-.626.608c-.188.086-.32.095-.469.03-.148-.063-.306-.258-.37-.455-.085-.263-.101-.822-.031-1.082.031-.117.072-.271.09-.344.063-.261.318-.425.663-.427m-2.352.075c.186.035.513.372.61.628.164.43.037.96-.32 1.338-.238.25-.425.313-.63.208-.165-.084-.272-.206-.37-.42-.145-.32-.13-.763.044-1.319.098-.312.37-.49.666-.435m2.205.338c-.082-.004-.157.009-.2.04-.113.081-.204.687-.123.814.027.041.046.035.125-.037.135-.124.232-.166.39-.168.183-.003.328.075.406.218.067.123.117.128.117.012 0-.283-.239-.7-.467-.814a.65.65 0 0 0-.248-.065m-2.498.076c-.112 0-.157.108-.186.45-.029.335-.017.351.177.255a.8.8 0 0 1 .262-.08c.058 0 .163.03.235.066s.136.06.144.052c.036-.036-.037-.253-.134-.397-.119-.177-.362-.346-.498-.346m-.905 4.602c.037-.006.065.002.109.02a.5.5 0 0 1 .176.16c.177.262.125.648-.12.904-.128.133-.148.142-.33.155-.19.013-.195.012-.32-.11-.118-.118-.125-.136-.125-.307 0-.129.023-.231.078-.348.112-.236.185-.315.376-.41a.6.6 0 0 1 .156-.064m2.825-.293.243.015c.523.031.723.292.564.735-.151.423-.617.796-.933.747-.216-.034-.36-.396-.314-.784.03-.238.073-.323.278-.542zm-3.001.676c-.022.007-.068.063-.102.124-.052.094-.056.124-.023.193.02.046.084.102.14.126.128.055.159.056.206.01.078-.077.045-.242-.071-.357-.06-.06-.129-.103-.15-.096m2.915-.192-.012.124a.8.8 0 0 0 .028.257c.068.221.26.235.475.033.219-.206.073-.412-.292-.413z" style="color:#dfdfdf;fill:currentColor"/></svg>