<svg xmlns="http://www.w3.org/2000/svg" width="16" height="16"><path d="M6.564.002a.9.9 0 0 0-.45.092c-1.161.491-1.09 1.263-1.022 2.32.064.249.012.607.049.607 0 0 .833-.074 1.072-.078.243-.087.246-.091.209-.271a3 3 0 0 1-.033-.485c-.001-.411.092-.71.353-1.128.255-.408.322-.552.322-.68 0-.22-.223-.363-.5-.377m3.915.13q-.086.005-.104.048c-.011.028.02.264.07.525.185.958.072 1.573-.425 2.305-.103.15-.145.24-.124.261.054.053 1.015.54 1.075.543.03.003.105-.053.168-.12a4.2 4.2 0 0 0 .709-1.128c.38-.953.169-1.724-.6-2.175-.277-.163-.604-.266-.77-.258M1.8 2.062c-.919.01-1.573.367-1.752.978-.063.215-.065.697-.004.93.14.534.526.907 1.078 1.043.263.064.906.065 1.266.002a6.2 6.2 0 0 0 1.814-.686c.037-.026.242-.526.242-.592 0-.013-.073.013-.164.059-.206.105-1.118.372-1.521.445-.426.078-.964.077-1.166-.002-.205-.08-.3-.212-.3-.422.001-.23.091-.425.278-.595.243-.222.393-.266.983-.284.532-.015.918.027 1.488.163.332.079.506.177.535.302l.02.084.054-.078c.05-.073.348-.091.27-.287-.046-.115-.414-.244-.453-.287-.086-.094-.729-.414-1.028-.512a6 6 0 0 0-1.23-.244 4 4 0 0 0-.41-.017m.888 1.312q-.116 0-.267.004c-.656.019-.887.106-.785.299.117.223.616.246 1.508.066.55-.11.691-.155.644-.203-.017-.018-.22-.064-.45-.103a3.5 3.5 0 0 0-.65-.063m10.645.133a5 5 0 0 0-.914.113c-.42.099-.824.243-1.018.365l-.113.073.182.168c.1.092.205.176.236.187s.182-.04.342-.119c.44-.218.848-.314 1.43-.336.434-.016.514-.01.722.055.357.111.548.355.496.636-.05.282-.259.448-.633.508-.226.037-.862-.017-1.443-.12-.147-.027-.279-.041-.293-.032s.01.08.05.156c.35.643 1.753 1.023 2.78.752.783-.206 1.026-.664.703-1.326-.266-.547-.813-.889-1.652-1.037a4.3 4.3 0 0 0-.875-.043m.25.894c-.493-.016-1.086.07-1.012.147.01.01.181.04.383.068l.451.067c.046.007.27.017.496.02.37.003.412-.003.403-.056-.006-.032-.087-.098-.178-.146-.143-.076-.22-.089-.543-.1m-1.617.473c-.063 0-.087.02-.102.09-.049.228-.134.396-.261.52-.316.303-.792.286-1.456-.057l-.324-.168-.215.23c-.452.485-1.07.647-1.545.407-.16-.081-.287-.282-.334-.528l-.033-.185c0-.042-.095.002-.181.084a1.9 1.9 0 0 1-1.182.474c-.387 0-.58-.124-.719-.457-.033-.08-.073-.146-.086-.146a1 1 0 0 0-.174.101c-.411.276-.977.307-1.193.067-.126-.141-.186-.076-.187.205-.001.285-.06.596-.266 1.44-.416 1.752-1.057 3.482-1.209 5.161.004.876.146 1.262.64 1.748.25.245.336.307.669.47.433.211.789.321 1.412.435 1.26.229 3.882.316 4.629.154.413-.09.7-.186 1.015-.34.811-.398 1.264-.92 1.5-1.728.088-.301.151-.872.13-1.15l-.05-.628c-.02-.253-.086-.972-.148-1.597-.178-1.773-.252-1.81-.315-3.368a14 14 0 0 0-.05-.851c-.018-.1-.01-.146.047-.22.091-.124.089-.163-.012-.163M9.16 6.703q.54-.002.78.588c.053.132.07.245.072.516.001.326-.006.36-.11.566a1.4 1.4 0 0 1-.625.607c-.187.087-.32.096-.468.032s-.308-.26-.371-.457c-.085-.263-.102-.822-.032-1.082.032-.117.072-.272.09-.344.064-.261.319-.424.664-.426m-2.46.065a.6.6 0 0 1 .109.01c.185.034.511.372.609.628.163.43.037.96-.32 1.338-.237.25-.425.312-.63.207-.164-.084-.273-.206-.37-.42-.146-.319-.13-.762.045-1.318.085-.273.304-.444.556-.445m2.314.347a.33.33 0 0 0-.201.041c-.113.081-.205.686-.124.813.027.04.047.035.125-.037.135-.124.234-.166.391-.168.183-.003.328.076.406.218.068.123.118.128.118.012 0-.283-.24-.7-.467-.814a.65.65 0 0 0-.248-.065m-2.498.076c-.113 0-.159.108-.188.45-.029.335-.016.352.178.255a.8.8 0 0 1 .262-.08c.057 0 .162.03.234.067.072.036.136.059.144.05.037-.035-.036-.252-.132-.396-.12-.177-.362-.346-.498-.346m1.92 4.309.242.016c.523.031.723.29.564.734-.151.423-.617.795-.933.746-.216-.033-.36-.396-.313-.783.03-.238.072-.323.277-.541zm-2.827.293c.037-.006.066.001.11.02a.5.5 0 0 1 .176.16c.176.262.124.647-.122.904-.127.133-.146.141-.328.154-.19.014-.196.014-.32-.11-.119-.116-.125-.134-.125-.306 0-.128.023-.23.078-.347.112-.236.184-.315.375-.41a.6.6 0 0 1 .156-.065m2.74.191-.011.123a.8.8 0 0 0 .027.258c.068.222.26.235.475.033.219-.205.074-.413-.291-.414zm-2.915.192c-.022.007-.068.064-.102.125-.052.094-.055.124-.023.193.02.045.084.101.14.125.128.055.158.057.205.01.078-.077.046-.243-.07-.358-.06-.06-.129-.102-.15-.095M14.5 13a1.5 1.5 0 0 0-1.5 1.5 1.5 1.5 0 0 0 1.5 1.5 1.5 1.5 0 0 0 1.5-1.5 1.5 1.5 0 0 0-1.5-1.5" style="color:#dfdfdf;fill:currentColor"/></svg>