<svg xmlns="http://www.w3.org/2000/svg" width="16" height="16"><defs><style id="current-color-scheme" type="text/css">.ColorScheme-Text{color:#dfdfdf}</style></defs><path d="M4 2C1.784 2 0 3.811 0 6.06L.008 8C.007 8.03 0 8.059 0 8.09c0 .026.007.052.008.078l.021 5.158c-.251 1.505 1.187 2.456 2.395.81L4.553 11h3.135a1.75 1.75 0 0 1-1.118-.402c-.39-.345-.51-.847-.51-1.243 0-.278.196-.587.374-.884a1 1 0 0 1-.141-.51v-.256a3.3 3.3 0 0 1 .113-.908 2.6 2.6 0 0 1 .444-.84 4.2 4.2 0 0 1 .668-.648 8 8 0 0 0 .546-.467c.075-.07.087-.101.08-.088-.016-.006-.02-.024-.214-.024a1.9 1.9 0 0 0-.594.082 5 5 0 0 0-.61.227 1 1 0 0 1-1.318-.484l-.312-.664a1 1 0 0 1 .463-1.323 6 6 0 0 1 1.066-.4l.004-.002A5.2 5.2 0 0 1 7.99 2Zm3.99 0c.794 0 1.552.192 2.131.684.567.48.879 1.236.879 1.976 0 .402-.075.804-.256 1.17a2.9 2.9 0 0 1-.627.838q-.298.28-.685.584l-.006.006a4 4 0 0 0-.393.35l-.002.001c-.001.003-.017.029-.013.016l-.004.014c.002-.008-.014.05-.014.16v.162a1 1 0 0 1-.111.455c.209.31.414.642.414.94 0 .404-.139.923-.541 1.26A1.74 1.74 0 0 1 7.687 11h3.76l2.13 3.137c1.207 1.645 2.645.694 2.394-.81l.021-5.159c.001-.026.008-.052.008-.078 0-.025-.007-.046-.008-.07L16 6.06C16 3.812 14.216 2 12 2Zm1.46 4.283-.018.014v.002z" class="ColorScheme-Text" style="fill:currentColor;opacity:.35"/><path d="M7.99 3q-.606 0-1.101.133-.486.133-.889.332l.313.664q.353-.162.738-.275.384-.124.879-.124.596 0 .908.247.314.247.314.703 0 .284-.091.482-.091.2-.313.408a8 8 0 0 1-.607.522q-.323.256-.514.494-.182.237-.264.502-.07.256-.07.617v.256H8v-.162q0-.276.06-.465.061-.2.233-.398a4.6 4.6 0 0 1 .516-.465q.363-.285.625-.532.272-.255.414-.548A1.6 1.6 0 0 0 10 4.66q0-.77-.525-1.216T7.99 3m-.303 5.719a.72.72 0 0 0-.455.142q-.171.143-.171.494 0 .341.171.493a.7.7 0 0 0 .455.152.65.65 0 0 0 .434-.152q.182-.152.182-.493 0-.35-.182-.494a.68.68 0 0 0-.434-.142" class="ColorScheme-Text" style="fill:currentColor"/></svg>