<svg xmlns="http://www.w3.org/2000/svg" width="16" height="16"><path d="M14.062 4.5A7 7 0 0 0 4.5 1.938 7 7 0 0 0 1.938 11.5a7 7 0 0 0 9.562 2.562A7 7 0 0 0 14.062 4.5m-1.732 1a5 5 0 0 1-1.059 6.279 1.5 1.5 0 0 1-.704 1.667 1.5 1.5 0 0 1-2.007-.483 5 5 0 0 1-3.53-.943 1.5 1.5 0 0 1-1.976-.587 1.5 1.5 0 0 1 .225-1.797A5 5 0 0 1 5.5 3.67l.075-.041A1.5 1.5 0 0 1 6.3 2.054a1.5 1.5 0 0 1 2.05.549 1.5 1.5 0 0 1 .164.43A5 5 0 0 1 12.33 5.5m-.866.5a4 4 0 0 0-3.073-1.976 1.5 1.5 0 0 1-.592.628l-.054.027.364 2.534a1.5 1.5 0 0 1 1.007.72 1.5 1.5 0 0 1-.16 1.723l.588 1.018a1.5 1.5 0 0 1 1.16.267A4 4 0 0 0 11.464 6M6.756 4.821a1.5 1.5 0 0 1-.676-.327L6 4.536a4 4 0 0 0-1.814 4.658 1.5 1.5 0 0 1 1.14.35l1.018-.588a1.5 1.5 0 0 1 .723-1.572l.054-.027zm1.334 5.335a1.5 1.5 0 0 1-1.246-.334l-1.018.588a1.5 1.5 0 0 1-.103.873 4 4 0 0 0 2.604.698 1.5 1.5 0 0 1 .35-.807z" style="color:#dfdfdf;fill:currentColor"/></svg>