<svg xmlns="http://www.w3.org/2000/svg" width="16" height="16"><path d="M11.5 14.062A7 7 0 0 0 14.062 4.5 7 7 0 0 0 4.5 1.938 7 7 0 0 0 1.938 11.5a7 7 0 0 0 9.562 2.562m-1-1.732a5 5 0 0 1-6.279-1.059 1.5 1.5 0 0 1-1.667-.704 1.5 1.5 0 0 1 .483-2.007 5 5 0 0 1 .943-3.53 1.5 1.5 0 0 1 .587-1.976 1.5 1.5 0 0 1 1.797.225A5 5 0 0 1 12.33 5.5l.041.075a1.5 1.5 0 0 1 1.575.724 1.5 1.5 0 0 1-.549 2.05 1.5 1.5 0 0 1-.43.164A5 5 0 0 1 10.5 12.33m-.5-.866a4 4 0 0 0 1.976-3.073 1.5 1.5 0 0 1-.628-.592l-.027-.054-2.534.364a1.5 1.5 0 0 1-.72 1.007 1.5 1.5 0 0 1-1.723-.16l-1.018.588a1.5 1.5 0 0 1-.267 1.16 4 4 0 0 0 4.941.76m1.179-4.708a1.5 1.5 0 0 1 .327-.676L11.464 6a4 4 0 0 0-4.658-1.814 1.5 1.5 0 0 1-.35 1.14l.588 1.018a1.5 1.5 0 0 1 1.572.723l.027.054zM5.844 8.09a1.5 1.5 0 0 1 .334-1.246L5.59 5.826a1.5 1.5 0 0 1-.873-.103 4 4 0 0 0-.698 2.604 1.5 1.5 0 0 1 .807.35z" style="color:#dfdfdf;fill:currentColor"/></svg>