<svg xmlns="http://www.w3.org/2000/svg" width="16" height="16"><path d="M8 1a7 7 0 0 0-7 7 7 7 0 0 0 7 7 7 7 0 0 0 7-7 7 7 0 0 0-7-7m0 2a5 5 0 0 1 4.908 4.057A1.5 1.5 0 0 1 14 8.5a1.5 1.5 0 0 1-1.422 1.496 5 5 0 0 1-2.582 2.586A1.5 1.5 0 0 1 8.5 14a1.5 1.5 0 0 1-1.443-1.094A5 5 0 0 1 3 8l.002-.086A1.5 1.5 0 0 1 2 6.5 1.5 1.5 0 0 1 3.5 5a1.5 1.5 0 0 1 .455.072A5 5 0 0 1 8 3m0 1a4 4 0 0 0-3.248 1.674A1.5 1.5 0 0 1 5 6.5l-.004.06 2.377.952A1.5 1.5 0 0 1 8.5 7a1.5 1.5 0 0 1 1.412 1h1.176a1.5 1.5 0 0 1 .81-.871A4 4 0 0 0 8 4M4.625 7.488a1.5 1.5 0 0 1-.621.422L4 8a4 4 0 0 0 3.127 3.9A1.5 1.5 0 0 1 8 11.088V9.912A1.5 1.5 0 0 1 7 8.5l.004-.06zM9.912 9A1.5 1.5 0 0 1 9 9.912v1.176a1.5 1.5 0 0 1 .705.525 4 4 0 0 0 1.906-1.906A1.5 1.5 0 0 1 11.088 9z" style="color:#dfdfdf;fill:currentColor"/></svg>