<svg xmlns="http://www.w3.org/2000/svg" width="16" height="16"><path d="M8 3C5.24 3 3 5.24 3 8c0 .88.23 1.74.67 2.49L3 13l2.5-.67A5.002 5.002 0 0 0 13 8c0-2.76-2.24-5-5-5m-.025-2c-.9.003-1.605.127-2.397.443l.342.93A6 6 0 0 1 8 2Zm1.113.094-.15.98c.93.148 1.789.51 2.527 1.035l.596-.795c-.914-.655-1.812-1.067-2.973-1.22m-4.506.808a7.1 7.1 0 0 0-2.338 2.131l.797.598a6.1 6.1 0 0 1 2.06-1.879Zm8.281 1.082-.668.737a6 6 0 0 1 1.469 2.308l.932-.341c-.359-1.089-.926-1.921-1.733-2.704M1.697 4.981A6.9 6.9 0 0 0 1 8h1c0-.925.212-1.803.59-2.588Zm13.184 1.767-.986.15c.067.358.105.726.105 1.102 0 .579-.086 1.138-.24 1.668l.965.252A7 7 0 0 0 15 8a6.6 6.6 0 0 0-.119-1.252M2.123 8.975l-.938.23c.121.514.248.73.44 1.184l-.379 1.429.965.258.441-1.654c-.213-.47-.409-.95-.529-1.447m11.32 1.539a6.05 6.05 0 0 1-1.687 2.154l.598.799c.871-.697 1.522-1.494 1.984-2.522Zm-12.43 2.34c-.083 1.296 1.191 2.433 2.509 2.078l.164-.045-.26-.963-.166.043c-.745.201-1.258-.486-1.258-.944Zm9.958.353a5.94 5.94 0 0 1-2.614.781l.051.994c1.163-.047 2.127-.374 3.08-.927Zm-5.403.141-1.175.316.26.965.949-.254c.54.227 1.102.464 1.738.568l.156-.98c-.668-.089-1.308-.336-1.928-.615" style="color:#dfdfdf;fill:currentColor"/></svg>