<svg xmlns="http://www.w3.org/2000/svg" width="16" height="16"><path d="M8 1C4.122 1 1 4.122 1 8s3.122 7 7 7 7-3.122 7-7-3.122-7-7-7m0 1a2 2 0 0 1 2 2 2 2 0 0 1-2 2 2 2 0 0 1-2-2 2 2 0 0 1 2-2M4 6a2 2 0 0 1 2 2 2 2 0 0 1-2 2 2 2 0 0 1-2-2 2 2 0 0 1 2-2m8 0a2 2 0 0 1 2 2 2 2 0 0 1-2 2 2 2 0 0 1-2-2 2 2 0 0 1 2-2m-4.512.635a.5.5 0 0 1 .446.25.5.5 0 0 1-.182.681.5.5 0 0 1-.686-.181.5.5 0 0 1 .186-.684.5.5 0 0 1 .236-.066M8.854 7a.5.5 0 0 1 .447.25.5.5 0 0 1-.186.684.5.5 0 0 1-.681-.184.5.5 0 0 1 .181-.684A.5.5 0 0 1 8.854 7M7.123 8a.5.5 0 0 1 .443.25.5.5 0 0 1-.18.684.5.5 0 0 1-.685-.184.5.5 0 0 1 .184-.684A.5.5 0 0 1 7.123 8m1.365.365a.5.5 0 0 1 .446.25.5.5 0 0 1-.184.684.5.5 0 0 1-.684-.184.5.5 0 0 1 .184-.681.5.5 0 0 1 .238-.069M8 10a2 2 0 0 1 2 2 2 2 0 0 1-2 2 2 2 0 0 1-2-2 2 2 0 0 1 2-2" style="color:#dfdfdf;fill:currentColor"/></svg>