<svg xmlns="http://www.w3.org/2000/svg" width="16" height="16"><path d="M8.479 1.008c-2.266.038-3.164 2.436-1.91 4.242a1.83 1.83 0 0 1-.264-1.002c.01-.35.126-.696.326-.984a1.83 1.83 0 0 1 1.836-.748c.345.065.664.241.918.484h4.619l-3.518-.816c-.774-.885-1.39-1.178-2.007-1.176M1.875 2.225A3.14 3.14 0 0 0 1 4.412c.007.817.353 1.625.938 2.195.09.089.195.16.296.237L1.438 6.6a2.74 2.74 0 0 0 .13 1.755c.236.55.658 1.018 1.182 1.307a2.73 2.73 0 0 0 2.625 0 2.22 2.22 0 0 1-1.947-.85 2.2 2.2 0 0 1-.451-1.173l4.148.71-3.78-1.162a2 2 0 0 1-.376-.306 2.02 2.02 0 0 1-.54-1.219 2.03 2.03 0 0 1 .321-1.25l4.813 2.625zm8.414 2.408a1.97 1.97 0 0 0-.445.996c-.047.345 0 .697.092 1.033.09.335.225.66.359.98.133.322.267.644.353.981s.125.693.067 1.035c-.097.574-.462 1.084-.94 1.416-.477.333-1.058.498-1.638.535A4.2 4.2 0 0 1 6 11.184l.018 3.416.853-1.7c1.13.33 2.392.169 3.4-.435a3.7 3.7 0 0 0 1.268-1.225 3 3 0 0 0 .459-1.693c-.04-.844-.471-1.614-.883-2.352s-.828-1.52-.834-2.365q.001-.1.008-.197" style="color:#dfdfdf;fill:currentColor"/></svg>