<svg xmlns="http://www.w3.org/2000/svg" width="16" height="16"><path d="M8 1a7 7 0 0 0-7 7 7 7 0 0 0 7 7 7 7 0 0 0 7-7 7 7 0 0 0-7-7m.145 2.998V4h.002c1.309.048 2.5.737 3.203 1.818l1.388-.462-1.57 3.146-3.146-1.574 1.277-.426a2 2 0 0 0-1.229-.504 2 2 0 0 0-1.806.998l-1.733-1a4.01 4.01 0 0 1 3.614-1.998m-3.313 3.5 3.147 1.574-1.278.426c.338.294.763.485 1.229.502a2 2 0 0 0 1.806-.998l1.733 1A4.01 4.01 0 0 1 7.856 12a4 4 0 0 1-3.204-1.818l-1.388.463Z" style="color:#dfdfdf;fill:currentColor"/></svg>