<svg xmlns="http://www.w3.org/2000/svg" width="16" height="16"><defs><style id="current-color-scheme" type="text/css">.ColorScheme-Text{color:#dfdfdf}</style></defs><path d="M6.748 5A.73.79 0 0 0 6 5.793v4.416a.73.79 0 0 0 1.096.686l3.539-2.21a.73.79 0 0 0 0-1.369l-3.54-2.21A.73.79 0 0 0 6.749 5" class="ColorScheme-Text" style="fill:currentColor"/><path d="M8 0C3.594 0 0 3.594 0 8s3.594 8 8 8 8-3.594 8-8-3.594-8-8-8m0 2c3.326 0 6 2.674 6 6s-2.674 6-6 6-6-2.674-6-6 2.674-6 6-6" class="ColorScheme-Text" style="opacity:.35;fill:currentColor"/><path d="M8 0v2a6 6 0 0 1 5.7 4.148l1.91-.62A8 8 0 0 0 8 0" class="ColorScheme-Text" style="fill:currentColor"/></svg>