<svg xmlns="http://www.w3.org/2000/svg" width="16" height="16"><defs><style id="current-color-scheme" type="text/css">.ColorScheme-Text{color:#dfdfdf}</style></defs><path d="M6.75 5A.73.79 0 0 0 6 5.793v4.416a.73.79 0 0 0 1.096.686l3.539-2.21a.73.79 0 0 0 0-1.369l-3.54-2.21A.73.79 0 0 0 6.75 5" class="ColorScheme-Text" style="fill:currentColor"/><path d="M8.001 0c-4.406 0-8 3.594-8 8s3.594 8 8 8 8-3.594 8-8-3.594-8-8-8m0 2c3.326 0 6 2.674 6 6s-2.674 6-6 6-6-2.674-6-6 2.674-6 6-6" class="ColorScheme-Text" style="opacity:.35;fill:currentColor"/><path d="M8.001 0v2a6 6 0 0 1 6 6 6 6 0 0 1-6 6 6 6 0 0 1-6-6 6 6 0 0 1 3.563-5.475L4.747.691a8 8 0 0 0-4.355 9.782 8 8 0 0 0 9.273 5.351 8 8 0 0 0 6.293-8.66A8 8 0 0 0 8.001 0" class="ColorScheme-Text" style="fill:currentColor"/></svg>