<svg xmlns="http://www.w3.org/2000/svg" width="16" height="16"><defs><style id="current-color-scheme" type="text/css">.ColorScheme-Text{color:#dfdfdf}</style></defs><path d="M10.8 1c-1.87 0-2.85.32-3.24 1.75C6.51 3.27 6 3.89 6 4.54c0 0 .89-.54 2-.54 2.17 0 4 1.83 4 4 0 2.16-1.86 4-4 4-2.17 0-4-1.84-4-4 0-1.6 1-2.65 1-2.65 0-1.5-.15-2.6-1-2.85-.14 0-.15.11-.15.11-.14 1.17-.73 1.53-1.04 1.97-.47.66-.76 1.54-.76 2.37-.17-.37-.3-.82-.4-1.22-.01-.05-.07-.18-.15-.18-.11 0-.2.26-.21.3C1.1 6.47 1 7.37 1 8c0 4 3 7 7 7 4.04 0 7-2.93 7-7 0-1.11-.23-2.41-.7-3.5-.17-.35-.46-.76-.7-1.05.3-.08.71-.02 1.04.04-.43-.5-.99-.66-1.74-.74.19-.42.6-.73 1.1-.75-.83-.71-1.85-1-3.2-1M9.5 2a.5.5 0 0 1 .5.5.5.5 0 0 1-.5.5.5.5 0 0 1-.5-.5.5.5 0 0 1 .5-.5" class="ColorScheme-Text" style="fill:currentColor"/><path d="M5.54 6.28A3.05 3.05 0 0 1 8 5c.89 0 1.88.43 2.46 1.28L8 8Zm5.29.72c.11.32.17.65.17 1 0 1.66-1.34 3-3 3S5 9.66 5 8c0-.35.06-.68.17-1L8 9Z" class="ColorScheme-Text" style="opacity:.35;fill:currentColor"/></svg>