<svg xmlns="http://www.w3.org/2000/svg" width="16" height="16"><defs><style id="current-color-scheme" type="text/css">.ColorScheme-Text{color:#dfdfdf}</style></defs><path d="M8.5 0C6.007 0 4 2.04 4 4.533V7h-.215C3.35 7 3 7.365 3 7.818v7.364c0 .453.35.818.785.818h9.43c.435 0 .785-.365.785-.818V7.818c0-.453-.35-.818-.785-.818H13V4.533C13 2.04 10.993 0 8.5 0m0 2c1.839 0 2.28 1.147 2.5 2.934V7H6V4.934C6 3.134 6.661 2 8.5 2m0 6a3.5 3.5 0 1 1 0 7 3.5 3.5 0 0 1 0-7m.387.291a.097.097 0 0 0-.086.098v.777a.097.097 0 1 0 .193 0v-.777a.097.097 0 0 0-.107-.098m1.912 1.959a.3.3 0 0 0-.13.041l-2.21 1.275-1.65-.953a.292.292 0 0 0-.293.506l1.798 1.037a.29.29 0 0 0 .291 0l2.356-1.36a.292.292 0 0 0-.162-.546m-5.43 1.555a.098.098 0 0 0 .02.195h.777a.098.098 0 1 0 0-.195h-.797m5.445 0a.098.098 0 0 0 .02.195h.777a.098.098 0 1 0 0-.195h-.797m-1.927 1.93a.097.097 0 0 0-.086.099v.777a.097.097 0 1 0 .193 0v-.777a.097.097 0 0 0-.098-.1z" class="ColorScheme-Text" style="fill:currentColor;fill-rule:evenodd"/><path d="M7.086 9.252a.292.292 0 0 0-.238.441l1.359 2.358a.292.292 0 1 0 .506-.293L7.352 9.402a.29.29 0 0 0-.266-.15" class="ColorScheme-Text" style="opacity:.35;fill:currentColor"/><path d="M8.455 8.887a.29.29 0 0 0-.287.297v2.72a.292.292 0 1 0 .584 0v-2.72a.29.29 0 0 0-.297-.297" class="ColorScheme-Text" style="opacity:.5;fill:currentColor"/><path d="M9.824 9.252a.29.29 0 0 0-.258.15l-1.359 2.356a.292.292 0 1 0 .506.293l1.36-2.358a.292.292 0 0 0-.249-.441" class="ColorScheme-Text" style="opacity:.7;fill:currentColor"/></svg>