<svg xmlns="http://www.w3.org/2000/svg" width="16" height="16"><path d="M13.718 0a.708.757 0 0 0-.36.103c-.108.068-7.352 4.573-7.594 4.72a.88.88 0 0 1-.938 0L1 2.42v2.043c.931.587 3.246 2.044 3.807 2.387.335.204.655.2.978-.002l9.067-5.642c.194-.121.205-.492-.013-.625-.217-.135-.628-.387-.781-.485a.708.757 0 0 0-.34-.095m0 4a.708.757 0 0 0-.36.103c-.108.068-7.352 4.573-7.594 4.72a.88.88 0 0 1-.938 0L1 6.42v2.043c.931.587 3.246 2.044 3.807 2.387.335.204.655.2.978-.002l9.067-5.642c.194-.121.205-.492-.013-.625-.217-.135-.628-.387-.781-.485a.708.757 0 0 0-.34-.095m0 4a.708.757 0 0 0-.36.103c-.108.068-7.352 4.573-7.594 4.72a.88.88 0 0 1-.938 0L1 10.42v2.043c.931.587 3.246 2.044 3.807 2.387.335.204.655.2.978-.002l9.067-5.642c.194-.121.205-.492-.013-.625-.217-.135-.628-.388-.781-.485a.708.757 0 0 0-.34-.096" style="color:#dfdfdf;fill:currentColor"/></svg>