<svg xmlns="http://www.w3.org/2000/svg" width="16" height="16"><path d="M8.545 0a1.97 1.97 0 0 0-.996.246L1.95 3.35a1.9 1.9 0 0 0-.44.339L8.5 7.466l6.99-3.777a1.9 1.9 0 0 0-.441-.34L9.45.245A1.96 1.96 0 0 0 8.545 0M1.04 4.579A1.7 1.7 0 0 0 1 4.93a1.902 1.827 0 0 0 0 .002v6.207c0 .111.015.22.035.328a1.902 1.827 0 0 0 .02.094q.038.156.103.302a1.902 1.827 0 0 0 .028.055q.067.14.16.267a1.902 1.827 0 0 0 .027.041q.102.131.229.244a1.902 1.827 0 0 0 .066.054c.088.073.18.142.283.199l5.598 3.103q.135.074.277.126a1.902 1.827 0 0 0 .086.025c.03.01.059.014.088.022V8.337Zm14.91.004L9 8.337v7.66a1.902 1.827 0 0 0 .451-.17l5.598-3.103A1.902 1.827 0 0 0 16 11.14V4.933a1.902 1.827 0 0 0-.049-.351M13 11.955v.79l-3 1.666v-.75z" style="color:#dfdfdf;fill:currentColor"/></svg>