<svg xmlns="http://www.w3.org/2000/svg" width="16" height="16"><path d="M5 1c-.962.096-1.938.233-2.928.42C1.49 1.53 1 1.947 1 2.602v1.826c0 .654.486 1.084 1.072 1.181A46 46 0 0 0 5 6zm3.652 0-.332.002a38 38 0 0 0-2.32.09V9H4.2l4.3 4 4.3-4H11V1.08A37 37 0 0 0 8.652 1M12 1v5a46 46 0 0 0 2.928-.39C15.514 5.511 16 5.081 16 4.427V2.602c0-.655-.489-1.072-1.072-1.182A34 34 0 0 0 12 1m3 5.45q-1.008.153-2 .265V14H4V6.758q-1.01-.12-2-.305v8.824c0 .4.323.723.723.723h11.554c.4 0 .723-.323.723-.723z" style="color:#dfdfdf;fill:currentColor"/></svg>