<svg xmlns="http://www.w3.org/2000/svg" width="16" height="16"><defs><style id="current-color-scheme" type="text/css">.ColorScheme-Text{color:#dfdfdf}</style></defs><path d="M1.8 2a.8.8 0 0 0-.8.8v9.4a.8.8 0 0 0 .8.8H5v.2a.8.8 0 0 0 .8.8h4.4q.03-.002.062-.006a2 2 0 0 1 .31-.422l.073-.072-.073-.072c-.39-.39-.572-.91-.572-1.428v-1H3V4h10v6.252a1.9 1.9 0 0 1 .432.326l.068.069.068-.069.004-.006C13.975 10.17 14.483 10 15 10V2.8a.8.8 0 0 0-.8-.8Z" class="ColorScheme-Text" style="fill:currentColor;opacity:.35"/><path d="M11 11v1c0 .28.1.54.28.72l.78.78-.78.78c-.18.19-.28.45-.28.72v1h1c.28 0 .54-.1.72-.28l.78-.78.78.78c.18.18.45.28.72.28h1v-1c0-.27-.1-.53-.28-.72l-.78-.78.78-.78c.18-.18.28-.44.28-.72v-1h-1c-.27 0-.54.1-.72.28l-.78.79-.78-.79c-.18-.18-.44-.28-.72-.28Z" class="ColorScheme-Text" style="fill:currentColor"/></svg>