<svg xmlns="http://www.w3.org/2000/svg" width="16" height="16"><defs><style id="current-color-scheme" type="text/css">.ColorScheme-Text{color:#dfdfdf}</style></defs><path d="M13 2s2 0 2 2H1c0-2 1.97-2 1.97-2Zm2 8c0 2-2 2-2 2h-1l-2 3-2-3H3c-1.11 0-2-.89-2-2Z" class="ColorScheme-Text" style="opacity:.35;fill:currentColor"/><path d="M3 5c-1.11 0-2 .89-2 2s.89 2 2 2 2-.89 2-2-.89-2-2-2m5 0c-1.11 0-2 .89-2 2s.89 2 2 2 2-.89 2-2-.89-2-2-2m5 0c-1.11 0-2 .89-2 2s.89 2 2 2 2-.89 2-2-.89-2-2-2" class="ColorScheme-Text" style="fill:currentColor"/></svg>