<svg xmlns="http://www.w3.org/2000/svg" width="16" height="16"><path d="M8 .004c-2.071 0-3.835 1.268-4.594 3.063A3.98 3.98 0 0 0 0 7.004a4 4 0 0 0 4 4h8.5a3.5 3.5 0 0 0 3.5-3.5 3.49 3.49 0 0 0-3.094-3.469A5.01 5.01 0 0 0 8 .004M3.479 11.992a.5.5 0 0 0-.426.283l-1 2a.5.5 0 0 0 .894.448l1-2a.5.5 0 0 0-.469-.731m3 .002a.5.5 0 0 0-.426.283l-1 2a.5.5 0 1 0 .894.448l1-2a.5.5 0 0 0-.468-.731M11 12a1 1 0 0 0-1 1 1 1 0 0 0 1 1 1 1 0 0 0 1-1 1 1 0 0 0-1-1m-2 2a1 1 0 0 0-1 1 1 1 0 0 0 1 1 1 1 0 0 0 1-1 1 1 0 0 0-1-1m4 0a1 1 0 0 0-1 1 1 1 0 0 0 1 1 1 1 0 0 0 1-1 1 1 0 0 0-1-1" style="color:#dfdfdf;fill:currentColor"/></svg>