<svg xmlns="http://www.w3.org/2000/svg" width="16" height="16"><path d="M8.02 0a1 1 0 1 0 0 2s.286.013.543.143.443.188.443.857-.186.728-.443.857c-.257.13-.542.143-.542.143H1.013a1 1 0 1 0 0 2h7.008s.707.013 1.442-.357S11.004 4.33 11.004 3 10.198.728 9.463.357C8.728-.013 8.02 0 8.02 0m4.996 3a1 1 0 1 0 0 2s.286.013.543.143.443.188.443.857-.186.728-.443.857c-.257.13-.543.143-.543.143H5.023a1 1 0 1 0 0 2h7.993s.707.013 1.442-.357S16 7.33 16 6s-.807-2.272-1.542-2.643C13.723 2.987 13.016 3 13.016 3M1.013 10a1 1 0 1 0 0 2h7.008s.285.013.542.143.443.188.443.857-.186.728-.443.857c-.257.13-.542.143-.542.143a1 1 0 1 0 0 2s.707.013 1.442-.357c.735-.371 1.541-1.312 1.541-2.643s-.806-2.272-1.541-2.643C8.728 9.987 8.02 10 8.02 10Z" style="color:#dfdfdf;fill:currentColor"/></svg>