<svg xmlns="http://www.w3.org/2000/svg" width="16" height="16"><path d="M8 1C5.929 1 4.165 2.268 3.406 4.063A3.98 3.98 0 0 0 0 8c0 1.083.43 2.066 1.13 2.786L1 10V9a1 1 0 0 1 1-1h5.193a1 1 0 0 1-.047-.334A2.51 2.51 0 0 1 9.498 6H9.5c1.253 0 2.205.991 2.375 2.201.213-.06.395-.2.623-.201h.002c1.369 0 2.5 1.131 2.5 2.5q0 .256-.05.498a3.49 3.49 0 0 0-2.043-5.967A5.01 5.01 0 0 0 8 1m1.5 6a1.5 1.5 0 0 0-1.41 1H10v1H2v1h7.5a1.5 1.5 0 0 0 0-3m3 2a1.5 1.5 0 0 0-1.41 1H13v1H5v1h7.5a1.5 1.5 0 0 0 0-3M2 13v1h8v1H8.09a1.5 1.5 0 0 0 1.41 1 1.5 1.5 0 0 0 0-3Z" style="color:#dfdfdf;fill:currentColor"/></svg>