<svg xmlns="http://www.w3.org/2000/svg" width="16" height="16"><path d="M7 0v2.086A6 6 0 0 1 8 2a6 6 0 0 1 1 .09V0ZM3.051 1.637 1.637 3.05l1.477 1.476A6 6 0 0 1 4.53 3.115Zm9.898 0-1.476 1.476a6 6 0 0 1 1.412 1.416l1.479-1.478ZM8 3a5 5 0 0 0-5 5h4.03l.117-.334A2.51 2.51 0 0 1 9.498 6H9.5c1.253 0 2.206.991 2.375 2.201.213-.06.395-.2.623-.201h.002q.255.001.496.05L13 8a5 5 0 0 0-5-5m1.5 4a1.5 1.5 0 0 0-1.41 1H10v1H2v1h7.5a1.5 1.5 0 0 0 0-3m3 2a1.5 1.5 0 0 0-1.41 1H13v1H5v1h7.5a1.5 1.5 0 0 0 0-3M2 13v1h8v1H8.09a1.5 1.5 0 0 0 1.41 1 1.5 1.5 0 0 0 0-3z" style="color:#dfdfdf;fill:currentColor"/></svg>