<svg xmlns="http://www.w3.org/2000/svg" width="16" height="16"><path d="M7 1a6 5.5 0 0 0-6 5.5 6 5.5 0 0 0 2 4.09V14l1.295-2.592a6 5.5 0 0 0 .1.041A5.1 5.1 0 0 1 4 9.5c0-3.058 2.703-5.453 5.912-5.496L10 4c.927 0 1.811.202 2.605.555A6 5.5 0 0 0 7 1M4 4a1 1 0 0 1 1 1 1 1 0 0 1-1 1 1 1 0 0 1-1-1 1 1 0 0 1 1-1m6 1a5 4.5 0 0 0-5 4.5 5 4.5 0 0 0 5 4.5 5 4.5 0 0 0 2.81-.783L14 15v-2.809A5 4.5 0 0 0 15 9.5 5 4.5 0 0 0 10 5M8 7a1 1 0 0 1 1 1 1 1 0 0 1-1 1 1 1 0 0 1-1-1 1 1 0 0 1 1-1m4 0a1 1 0 0 1 1 1 1 1 0 0 1-1 1 1 1 0 0 1-1-1 1 1 0 0 1 1-1" style="color:#dfdfdf;fill:currentColor"/></svg>