<svg xmlns="http://www.w3.org/2000/svg" width="16" height="16"><path d="M8 1q-.253.001-.5.02l-.062.003a6.98 6.98 0 0 0-5.69 3.829q-.107.206-.2.42a6.4 6.4 0 0 0-.542 2.425q-.004.118-.004.237L1 8c0 .814.145 1.591.398 2.316.085.27.19.544.301.819A2.5 2.5 0 0 1 2.5 11 2.5 2.5 0 0 1 5 13.5a2.5 2.5 0 0 1-.227 1.035c.39-.037.685.024 1.286.213.459.144.981.221 1.572.242q.037.002.074.002.12.006.244.008H8q.292-.001.58-.025c1.73-.124 3.12-.763 4.371-2.012a6.93 6.93 0 0 0 1.98-3.996q.017-.114.03-.229a7 7 0 0 0 .031-.496q.004-.062.004-.125Q15 8.057 15 8a6.98 6.98 0 0 0-6.807-6.994l-.09-.002Q8.054 1.002 8 1M4 7a1 1 0 0 1 1 1 1 1 0 0 1-1 1 1 1 0 0 1-1-1 1 1 0 0 1 1-1m4 0a1 1 0 0 1 1 1 1 1 0 0 1-1 1 1 1 0 0 1-1-1 1 1 0 0 1 1-1m4 0a1 1 0 0 1 1 1 1 1 0 0 1-1 1 1 1 0 0 1-1-1 1 1 0 0 1 1-1" style="color:#dfdfdf;fill:currentColor"/><circle cx="2.5" cy="13.5" r="1.5" style="color:#4285f4;fill:currentColor"/></svg>