<svg xmlns="http://www.w3.org/2000/svg" width="16" height="16"><defs><style id="current-color-scheme" type="text/css">.ColorScheme-Text{color:#dfdfdf}</style></defs><path d="M8.001 0c-4.432 0-8 3.568-8 8 0 .837.129 1.643.365 2.4l.01-.052C.521 9.783.8 9.197 1.3 8.734c.587-.544 1.27-.691 1.978-.703.117-.247.211-.511.446-.683.098-.073.205-.043.31-.09l.022-.055c.283-.537.653-.943 1.172-1.527.707-.797 1.804-1.536 2.822-2.198s4.049-2.345 4.049-2.345A8 8 0 0 0 8.001 0m7.365 4.865S13.24 7.58 12.425 8.47c-.814.888-1.722 1.846-2.627 2.414-.596.374-1.047.493-1.526.676-.075.423-.263.823-.634 1.097-.23.17-.509.154-.776.196a2.94 2.94 0 0 1-.736 1.308l-.02.02-.019.019c-.542.497-1.205.72-1.822.791l-.153.006A8 8 0 0 0 8.001 16c4.432 0 8-3.568 8-8a8 8 0 0 0-.635-3.135" class="ColorScheme-Text" style="opacity:.35;fill:currentColor"/><path d="M15.175 1.008c-.309-.035-.603.083-.885.182 0 0-.968.43-1.484.697-.517.266-1.023.543-1.418.765-.396.222-1.8 1.019-2.793 1.664-.993.646-2.075 1.41-2.62 2.024-.269.303-.48.543-.652.762.338.11.647.317.869.619l1.819 2.467c.1.136.171.286.226.439.29-.146.604-.325 1.03-.592.699-.439 1.627-1.375 2.421-2.242a51 51 0 0 0 2.067-2.457c.272-.348.615-.795.951-1.254s.663-.929.904-1.33c.121-.2.221-.383.289-.543.069-.16.117-.29.098-.434a.77.77 0 0 0-.223-.45l-.009-.012a.8.8 0 0 0-.276-.213 1 1 0 0 0-.314-.092M4.885 8.01a.76.76 0 0 0-.568.142.764.764 0 0 0-.162 1.071l1.817 2.466a.766.766 0 1 0 1.234-.908L5.388 8.314a.77.77 0 0 0-.502-.304M3.039 9.033c-.416.062-.823.217-1.058.436-.324.299-.527.704-.635 1.127-.178.693-.19 1.69-.326 2.427-.068.366-.377.936-.954 1.674-.147.248 0 .28 0 .28.083.058.234-.001.309-.034 1.334-1.096 2.214-.94 3.775-.947.46-.053.914-.216 1.262-.535.227-.231.352-.434.442-.635a1.7 1.7 0 0 1-.686-.543L3.349 9.816a1.7 1.7 0 0 1-.31-.783" class="ColorScheme-Text" style="fill:currentColor"/></svg>