<?xml version="1.0" encoding="UTF-8" standalone="no"?>
<svg
   xml:space="preserve"
   style="enable-background:new 0 0 64 64"
   viewBox="0 0 64 64"
   version="1.1"
   id="svg10"
   sodipodi:docname="folder-gnome.svg"
   inkscape:version="1.4.4 (dcaf3e7d9e, 2026-05-05)"
   xmlns:inkscape="http://www.inkscape.org/namespaces/inkscape"
   xmlns:sodipodi="http://sodipodi.sourceforge.net/DTD/sodipodi-0.dtd"
   xmlns:xlink="http://www.w3.org/1999/xlink"
   xmlns="http://www.w3.org/2000/svg"
   xmlns:svg="http://www.w3.org/2000/svg"><sodipodi:namedview
     id="namedview10"
     pagecolor="#ffffff"
     bordercolor="#000000"
     borderopacity="0.25"
     inkscape:showpageshadow="2"
     inkscape:pageopacity="0.0"
     inkscape:pagecheckerboard="0"
     inkscape:deskcolor="#d1d1d1"
     inkscape:zoom="18.921875"
     inkscape:cx="32"
     inkscape:cy="32"
     inkscape:current-layer="svg10" /><defs
     id="defs4"><radialGradient
       xlink:href="#a"
       id="c"
       cx="10.757"
       cy="61.399"
       r="24.566"
       fx="10.757"
       fy="61.399"
       gradientTransform="matrix(0 -2.33099 2.51789 0 -79.138 79.402)"
       gradientUnits="userSpaceOnUse" /><radialGradient
       id="a"
       cx="-159.431"
       cy="15.463"
       r="64.707"
       fx="-159.431"
       fy="15.463"
       gradientTransform="matrix(-.89413 0 0 .96305 -80.754 49.33)"
       gradientUnits="userSpaceOnUse"><stop
         offset="0"
         style="stop-color:#a07056;stop-opacity:1"
         id="stop1" /><stop
         offset="1"
         style="stop-color:#c8946b;stop-opacity:1"
         id="stop2" /></radialGradient><radialGradient
       xlink:href="#b"
       id="d"
       cx="51.926"
       cy="78.491"
       r="27.708"
       fx="51.926"
       fy="78.491"
       gradientTransform="matrix(0 -2.191 2.24189 0 -31.11 186.533)"
       gradientUnits="userSpaceOnUse" /><radialGradient
       id="b"
       cx="-159.431"
       cy="15.463"
       r="64.707"
       fx="-159.431"
       fy="15.463"
       gradientTransform="matrix(-.89413 0 0 .96305 -80.754 49.33)"
       gradientUnits="userSpaceOnUse"><stop
         offset="0"
         style="stop-color:#cd9f7a;stop-opacity:1"
         id="stop3" /><stop
         offset="1"
         style="stop-color:#eebf8f;stop-opacity:1"
         id="stop4" /></radialGradient><filter
       id="e"
       width="1.1837521"
       height="1.2101827"
       x="-0.091876066"
       y="-0.10509136"
       style="color-interpolation-filters:sRGB"><feGaussianBlur
         stdDeviation="2.045"
         id="feGaussianBlur4" /></filter><radialGradient
       xlink:href="#a-3"
       id="g"
       cx="9.3050003"
       cy="42.219002"
       r="24.566"
       fx="9.3050003"
       fy="42.219002"
       gradientTransform="matrix(0,2.84896,-3.0774,0,119.493,-33.389)"
       gradientUnits="userSpaceOnUse" /><radialGradient
       id="a-3"
       cx="28.153"
       cy="40.426998"
       r="40.049999"
       fr="0"
       fx="5.5100002"
       fy="22.827999"
       gradientTransform="matrix(1,0,0,-1,-2.594,51.824)"
       gradientUnits="userSpaceOnUse"
       spreadMethod="pad"><stop
         offset="0"
         style="stop-color:#c38d36;stop-opacity:1"
         id="stop3-6" /><stop
         offset="1"
         style="stop-color:#c3813d;stop-opacity:1"
         id="stop4-0" /></radialGradient><filter
       id="h"
       width="1.1894325"
       height="1.2638693"
       x="-0.094716244"
       y="-0.13193463"
       style="color-interpolation-filters:sRGB"><feGaussianBlur
         stdDeviation="1.901"
         id="feGaussianBlur8" /></filter><radialGradient
       xlink:href="#c-5"
       id="i"
       cx="74.561996"
       cy="41.652"
       r="27.708"
       fx="74.561996"
       fy="41.652"
       gradientTransform="matrix(0,3.14835,-3.22145,0,190.135,-227.197)"
       gradientUnits="userSpaceOnUse" /><radialGradient
       id="c-5"
       cx="32"
       cy="28"
       r="41.077"
       fx="13.607"
       fy="13.488"
       gradientTransform="matrix(1,0,0,-1,0,66)"
       gradientUnits="userSpaceOnUse"><stop
         offset="0"
         style="stop-color:#f9d361;stop-opacity:1"
         id="stop1-0" /><stop
         offset="1"
         style="stop-color:#eda14c;stop-opacity:1"
         id="stop2-2" /></radialGradient><filter
       id="j"
       width="1.185961"
       height="1.2524832"
       x="-0.092980506"
       y="-0.12624161"
       style="color-interpolation-filters:sRGB"><feGaussianBlur
         stdDeviation="2.049"
         id="feGaussianBlur9" /></filter></defs><g
     id="g24"
     transform="translate(-0.00168471,-7.3334247e-5)"><path
       d="M 22.196,11.795 H 12.203 A 4.794,4.794 135 0 0 7.41,16.59 V 40.3 c 0,3.69 2.988,6.767 6.68,6.767 h 35.772 a 6.677,6.677 0 0 0 6.68,-6.68 V 22.105 a 6.677,6.677 0 0 0 -6.68,-6.68 H 30.038 a 5.64,5.64 19.982 0 1 -3.624,-1.317 l -1.642,-1.376 a 4,4 19.982 0 0 -2.576,-0.937"
       class="st1"
       style="fill:url(#g);stroke-width:0.878921"
       id="path12"
       transform="matrix(1.0965,0,0,1.0965,-3.06,-3.929)" /><path
       d="M 22.196,11.795 H 12.203 A 4.794,4.794 135 0 0 7.41,16.59 V 40.3 c 0,3.69 2.988,6.767 6.68,6.767 h 35.772 a 6.677,6.677 0 0 0 6.68,-6.68 V 22.105 a 6.677,6.677 0 0 0 -6.68,-6.68 H 30.038 a 5.64,5.64 19.982 0 1 -3.624,-1.317 l -1.642,-1.376 a 4,4 19.982 0 0 -2.576,-0.937 z"
       class="st1"
       style="mix-blend-mode:normal;fill:none;stroke:#000000;stroke-width:0.182397;stroke-dasharray:none;stroke-opacity:1;filter:url(#h)"
       transform="matrix(1.0965,0,0,1.0965,-3.06,-5.03)"
       id="path13" /><path
       d="M 11.604,20.662 H 40.25 A 13.76,13.76 45 0 1 54.012,34.424 13.637,13.637 135.527 0 1 40.25,47.934 H 24.64 A 14.755,14.755 45 0 1 9.885,33.18 V 22.382 a 1.72,1.72 135 0 1 1.719,-1.72"
       style="opacity:0.870323;fill:#ffffff;stroke-width:0.2"
       id="path14"
       transform="matrix(1.0965,0,0,1.0965,-2.417,-5.146)" /><path
       d="m 70.143,22.989 h 10.852 a 7.07,7.07 0 0 0 5.327,-2.42 7.05,7.05 0 0 1 5.309,-2.399 h 16.772 a 7.85,7.85 0 0 1 7.852,7.852 v 24.042 a 7.85,7.85 0 0 1 -7.852,7.852 H 70.143 A 7.85,7.85 0 0 1 62.291,50.064 V 30.84 a 7.85,7.85 0 0 1 7.852,-7.852"
       style="fill:url(#i);stroke:none;stroke-width:0.681659;stroke-linecap:round;stroke-linejoin:round"
       id="path15"
       transform="translate(-57.273,-1.734)" /><path
       d="m 70.143,22.989 h 10.852 a 7.07,7.07 0 0 0 5.327,-2.42 7.05,7.05 0 0 1 5.309,-2.399 h 16.772 a 7.85,7.85 0 0 1 7.852,7.852 v 24.042 a 7.85,7.85 0 0 1 -7.852,7.852 H 70.143 A 7.85,7.85 0 0 1 62.291,50.064 V 30.84 a 7.85,7.85 0 0 1 7.852,-7.852"
       style="mix-blend-mode:normal;fill:none;fill-opacity:1;stroke:#000000;stroke-width:0.2;stroke-linecap:round;stroke-linejoin:round;stroke-dasharray:none;stroke-opacity:1;filter:url(#j)"
       id="path16"
       transform="translate(-57.273,-1.734)" /></g><path
     d="M54.546 33.063c-3.61 0-4.308 5.472-2.212 5.472 1.979 0 5.821-5.472 2.212-5.472m-5.59.931h-.232c-2.096.233-1.28 3.726-.233 3.843 1.165 0 2.212-3.843.466-3.843m-3.492 1.165a.9.9 0 0 0-.466.116c-1.63.699-.233 3.493.699 3.26.815-.116.931-3.26-.233-3.376m-2.678 2.328c-.117 0-.35 0-.466.117-1.28.931.466 3.376 1.164 3.027.7-.35.233-3.144-.698-3.144m7.685 2.329c-2.795 0-6.637 1.397-7.22 4.308-.698 3.144 2.911 7.452 6.521 7.452 1.863 0 3.959-1.63 4.308-3.726.35-1.63-3.493-.931-3.377.116.117 1.281-.931 1.863-1.979 1.048-3.377-2.678 5.589-3.958 5.007-7.568-.117-1.048-1.514-1.63-3.26-1.63"
     style="opacity:.3;fill:#000;fill-opacity:1;stroke-width:1"
     id="path10" /></svg>
