<?xml version="1.0" encoding="UTF-8" standalone="no"?>
<svg
   xml:space="preserve"
   style="enable-background:new 0 0 64 64"
   viewBox="0 0 64 64"
   version="1.1"
   id="svg10"
   sodipodi:docname="folder-java.svg"
   inkscape:version="1.4.4 (dcaf3e7d9e, 2026-05-05)"
   xmlns:inkscape="http://www.inkscape.org/namespaces/inkscape"
   xmlns:sodipodi="http://sodipodi.sourceforge.net/DTD/sodipodi-0.dtd"
   xmlns:xlink="http://www.w3.org/1999/xlink"
   xmlns="http://www.w3.org/2000/svg"
   xmlns:svg="http://www.w3.org/2000/svg"><sodipodi:namedview
     id="namedview10"
     pagecolor="#ffffff"
     bordercolor="#000000"
     borderopacity="0.25"
     inkscape:showpageshadow="2"
     inkscape:pageopacity="0.0"
     inkscape:pagecheckerboard="0"
     inkscape:deskcolor="#d1d1d1"
     inkscape:zoom="18.921875"
     inkscape:cx="32"
     inkscape:cy="32"
     inkscape:current-layer="svg10" /><defs
     id="defs4"><radialGradient
       xlink:href="#a"
       id="c"
       cx="10.757"
       cy="61.399"
       r="24.566"
       fx="10.757"
       fy="61.399"
       gradientTransform="matrix(0 -2.33099 2.51789 0 -79.138 79.402)"
       gradientUnits="userSpaceOnUse" /><radialGradient
       id="a"
       cx="-159.431"
       cy="15.463"
       r="64.707"
       fx="-159.431"
       fy="15.463"
       gradientTransform="matrix(-.89413 0 0 .96305 -80.754 49.33)"
       gradientUnits="userSpaceOnUse"><stop
         offset="0"
         style="stop-color:#a07056;stop-opacity:1"
         id="stop1" /><stop
         offset="1"
         style="stop-color:#c8946b;stop-opacity:1"
         id="stop2" /></radialGradient><radialGradient
       xlink:href="#b"
       id="d"
       cx="51.926"
       cy="78.491"
       r="27.708"
       fx="51.926"
       fy="78.491"
       gradientTransform="matrix(0 -2.191 2.24189 0 -31.11 186.533)"
       gradientUnits="userSpaceOnUse" /><radialGradient
       id="b"
       cx="-159.431"
       cy="15.463"
       r="64.707"
       fx="-159.431"
       fy="15.463"
       gradientTransform="matrix(-.89413 0 0 .96305 -80.754 49.33)"
       gradientUnits="userSpaceOnUse"><stop
         offset="0"
         style="stop-color:#cd9f7a;stop-opacity:1"
         id="stop3" /><stop
         offset="1"
         style="stop-color:#eebf8f;stop-opacity:1"
         id="stop4" /></radialGradient><filter
       id="e"
       width="1.1837521"
       height="1.2101827"
       x="-0.091876066"
       y="-0.10509136"
       style="color-interpolation-filters:sRGB"><feGaussianBlur
         stdDeviation="2.045"
         id="feGaussianBlur4" /></filter><radialGradient
       xlink:href="#a-2"
       id="g"
       cx="9.3050003"
       cy="42.219002"
       r="24.566"
       fx="9.3050003"
       fy="42.219002"
       gradientTransform="matrix(0,2.84896,-3.0774,0,119.493,-33.389)"
       gradientUnits="userSpaceOnUse" /><radialGradient
       id="a-2"
       cx="28.153"
       cy="40.426998"
       r="40.049999"
       fr="0"
       fx="5.5100002"
       fy="22.827999"
       gradientTransform="matrix(1,0,0,-1,-2.594,51.824)"
       gradientUnits="userSpaceOnUse"
       spreadMethod="pad"><stop
         offset="0"
         style="stop-color:#c38d36;stop-opacity:1"
         id="stop3-0" /><stop
         offset="1"
         style="stop-color:#c3813d;stop-opacity:1"
         id="stop4-5" /></radialGradient><filter
       id="h"
       width="1.1894325"
       height="1.2638693"
       x="-0.094716244"
       y="-0.13193463"
       style="color-interpolation-filters:sRGB"><feGaussianBlur
         stdDeviation="1.901"
         id="feGaussianBlur8" /></filter><radialGradient
       xlink:href="#c-5"
       id="i"
       cx="74.561996"
       cy="41.652"
       r="27.708"
       fx="74.561996"
       fy="41.652"
       gradientTransform="matrix(0,3.14835,-3.22145,0,190.135,-227.197)"
       gradientUnits="userSpaceOnUse" /><radialGradient
       id="c-5"
       cx="32"
       cy="28"
       r="41.077"
       fx="13.607"
       fy="13.488"
       gradientTransform="matrix(1,0,0,-1,0,66)"
       gradientUnits="userSpaceOnUse"><stop
         offset="0"
         style="stop-color:#f9d361;stop-opacity:1"
         id="stop1-2" /><stop
         offset="1"
         style="stop-color:#eda14c;stop-opacity:1"
         id="stop2-9" /></radialGradient><filter
       id="j"
       width="1.185961"
       height="1.2524832"
       x="-0.092980506"
       y="-0.12624161"
       style="color-interpolation-filters:sRGB"><feGaussianBlur
         stdDeviation="2.049"
         id="feGaussianBlur9" /></filter></defs><g
     id="g24"
     transform="translate(-0.00168471,-7.3334247e-5)"><path
       d="M 22.196,11.795 H 12.203 A 4.794,4.794 135 0 0 7.41,16.59 V 40.3 c 0,3.69 2.988,6.767 6.68,6.767 h 35.772 a 6.677,6.677 0 0 0 6.68,-6.68 V 22.105 a 6.677,6.677 0 0 0 -6.68,-6.68 H 30.038 a 5.64,5.64 19.982 0 1 -3.624,-1.317 l -1.642,-1.376 a 4,4 19.982 0 0 -2.576,-0.937"
       class="st1"
       style="fill:url(#g);stroke-width:0.878921"
       id="path12"
       transform="matrix(1.0965,0,0,1.0965,-3.06,-3.929)" /><path
       d="M 22.196,11.795 H 12.203 A 4.794,4.794 135 0 0 7.41,16.59 V 40.3 c 0,3.69 2.988,6.767 6.68,6.767 h 35.772 a 6.677,6.677 0 0 0 6.68,-6.68 V 22.105 a 6.677,6.677 0 0 0 -6.68,-6.68 H 30.038 a 5.64,5.64 19.982 0 1 -3.624,-1.317 l -1.642,-1.376 a 4,4 19.982 0 0 -2.576,-0.937 z"
       class="st1"
       style="mix-blend-mode:normal;fill:none;stroke:#000000;stroke-width:0.182397;stroke-dasharray:none;stroke-opacity:1;filter:url(#h)"
       transform="matrix(1.0965,0,0,1.0965,-3.06,-5.03)"
       id="path13" /><path
       d="M 11.604,20.662 H 40.25 A 13.76,13.76 45 0 1 54.012,34.424 13.637,13.637 135.527 0 1 40.25,47.934 H 24.64 A 14.755,14.755 45 0 1 9.885,33.18 V 22.382 a 1.72,1.72 135 0 1 1.719,-1.72"
       style="opacity:0.870323;fill:#ffffff;stroke-width:0.2"
       id="path14"
       transform="matrix(1.0965,0,0,1.0965,-2.417,-5.146)" /><path
       d="m 70.143,22.989 h 10.852 a 7.07,7.07 0 0 0 5.327,-2.42 7.05,7.05 0 0 1 5.309,-2.399 h 16.772 a 7.85,7.85 0 0 1 7.852,7.852 v 24.042 a 7.85,7.85 0 0 1 -7.852,7.852 H 70.143 A 7.85,7.85 0 0 1 62.291,50.064 V 30.84 a 7.85,7.85 0 0 1 7.852,-7.852"
       style="fill:url(#i);stroke:none;stroke-width:0.681659;stroke-linecap:round;stroke-linejoin:round"
       id="path15"
       transform="translate(-57.273,-1.734)" /><path
       d="m 70.143,22.989 h 10.852 a 7.07,7.07 0 0 0 5.327,-2.42 7.05,7.05 0 0 1 5.309,-2.399 h 16.772 a 7.85,7.85 0 0 1 7.852,7.852 v 24.042 a 7.85,7.85 0 0 1 -7.852,7.852 H 70.143 A 7.85,7.85 0 0 1 62.291,50.064 V 30.84 a 7.85,7.85 0 0 1 7.852,-7.852"
       style="mix-blend-mode:normal;fill:none;fill-opacity:1;stroke:#000000;stroke-width:0.2;stroke-linecap:round;stroke-linejoin:round;stroke-dasharray:none;stroke-opacity:1;filter:url(#j)"
       id="path16"
       transform="translate(-57.273,-1.734)" /></g><path
     d="M47.702 36.447c-.938.586-1.876 1.29-2.462 2.58-.938 2.11 1.993 4.338 2.11 4.455h.235s.117-.117 0-.235c0 0-1.055-1.993-1.055-3.517 0-.469.703-1.055 1.407-1.641.703-.587 1.407-1.173 1.876-1.876.938-1.642-.118-3.166-.118-3.166 0-.117-.117-.117-.234 0-.117 0-.117.117-.117.234 0 0 .234 1.056-.352 2.11-.117.235-.704.587-1.29 1.056m3.752.704c.117 0 .117-.118 0-.235 0-.117-.117-.117-.234-.117s-3.752 1.407-3.752 3.165c0 1.173.469 1.76.82 2.228.118.117.235.352.352.47.117.35-.117 1.054-.234 1.289v.234h.234c.117 0 1.524-1.055 1.29-2.345a2.27 2.27 0 0 0-.586-1.055c-.352-.469-.587-.82-.235-1.407.586-.82 2.345-2.227 2.345-2.227m-9.262 6.917c-.118.235 0 .352.117.586.352.587 1.759.821 3.869.821h.938c3.4-.117 4.573-1.172 4.69-1.172 0 0 .117-.118 0-.235 0-.117-.117-.117-.235-.117-1.172.352-3.4.469-4.924.469-1.759 0-2.58-.117-2.814-.235.117-.117.82-.469 1.642-.586.117 0 .117-.117.117-.117l-.117-.117c-.587-.118-3.049 0-3.283.703m11.255-1.055c-.703 0-1.407.352-1.407.352-.117 0-.117.117-.117.234s.117.117.117.117 1.524 0 1.642.821c.117.704-1.407 1.876-1.993 2.345-.118 0-.118.117-.118.234s.118.118.118.118c.117 0 3.4-.704 3.048-2.697 0-1.29-.704-1.524-1.29-1.524m-2.227 3.634c0-.117 0-.117-.118-.117l-.82-.586h-.118s-.82.235-1.993.352h-1.524c-1.172 0-1.993-.117-2.11-.235 0 0 .117-.117.234-.117s.117-.117.117-.234-.117-.118-.234-.118c-.82.235-1.173.47-1.173.821 0 .586 1.407.938 2.58.938h.586c1.993 0 4.455-.586 4.455-.586zm-5.98 1.173c.117 0 .117-.117.117-.235s-.117-.117-.117-.117c-.117 0-1.055 0-1.055.586 0 .235 0 .352.117.47q.528.527 2.814.703h.586c1.993 0 3.283-.586 3.283-.586l.117-.118s0-.117-.117-.117l-1.055-.586h-.117s-.587.117-1.642.234h-.703c-.938.118-1.993 0-2.228-.234q0 .175 0 0m1.407 3.4c4.455 0 6.8-.82 7.27-1.29.116-.117.234-.351.116-.469 0-.234-.234-.469-.351-.469h-.235v.469c-.234.118-1.993.704-5.159.821h-1.29c-2.813 0-4.806-.352-5.04-.586.116-.117.82-.352 1.523-.47.118 0 .118-.116.118-.234 0-.117-.118-.117-.235-.117h-.234c-1.29.117-2.697.235-2.814.938 0 .235 0 .352.117.586.703.352 1.641.821 6.214.821m8.09-1.055h-.235s-.703.703-2.696 1.055c-.82.117-2.228.235-4.338.235s-4.104-.118-4.104-.118c-.117 0-.117 0-.117.118s0 .117.117.234c0 0 2.11.469 4.924.469 1.407 0 2.697-.117 3.987-.352 2.345-.351 2.462-1.524 2.462-1.641q.175 0 0 0"
     style="opacity:.3;fill:#000;fill-opacity:1;stroke-width:1"
     id="path10" /></svg>
