<svg xmlns="http://www.w3.org/2000/svg" xmlns:xlink="http://www.w3.org/1999/xlink" xml:space="preserve" style="enable-background:new 0 0 64 64" viewBox="0 0 64 64"><defs><radialGradient xlink:href="#a" id="b" cx="-34.963" cy="-10.956" r="27.999" fx="-34.963" fy="-10.956" gradientTransform="rotate(165 93.757 -19.19)scale(-4.57415 3.35832)" gradientUnits="userSpaceOnUse"/><linearGradient id="a"><stop offset="0" style="stop-color:#01d9f6;stop-opacity:1"/><stop offset="1" style="stop-color:#07f;stop-opacity:1"/></linearGradient><filter id="c" width="1.271" height="1.271" x="-.136" y="-.136" style="color-interpolation-filters:sRGB"><feGaussianBlur stdDeviation="2.795"/></filter></defs><path d="M83.033 38.922a25.06 25.06 0 0 0-25.112-25.113 25.06 25.06 0 0 0-25.113 25.113 25.06 25.06 0 0 0 25.113 25.112 25.06 25.06 0 0 0 25.112-25.112" style="fill:url(#b);stroke-width:.89691" transform="translate(-25.92 -6.92)"/><path d="M32 12.002c-7.864-.11-15.449 4.944-18.428 12.214-3.11 7.14-1.501 16.012 3.95 21.583 5.246 5.645 13.888 7.705 21.124 5.07 7.5-2.548 13.029-9.916 13.326-17.84.498-7.702-3.966-15.401-10.868-18.84A19.94 19.94 0 0 0 32 12.003m-1.958 6.096c-.332.761-.684 1.577-.648 2.246-.466 2.432-.228 5.128 1.344 7.133-2.06.484-3.292-1.806-5.054-2.424-2.405-.606-3.336 3.3-1.221 4.412 3.728 3.059 9.212 2.098 12.971 5.073 1.822 1.84 1.538 4.837.808 7.105-.906 2.363-2.775 4.126-4.923 5.41-1.468.878-3.18.036-3.495-1.642-.253-1.35-.627-2.741-1.683-3.651-1.255-1.712-4.364-2.05-4.647-4.307a6.8 6.8 0 0 1 1.31-2.87c.933-1.205.87-2.123-.613-2.506-2.43-.626-4.845-1.352-6.912-2.837-2.074-.694-.778-2.618-.242-3.979 2.072-4.52 6.35-8.042 11.232-9.015 1.207-.24 2.249.76 1.773 1.852m16.282 7.097c.746 1.404 1.246 3.006 1.53 4.539.233 2.2.249 4.51-.404 6.642-.165.539-.61.586-.938.127-.816-1.141-1.678-2.294-2.694-3.281-1.444-1.474-2.995-3.626-1.883-5.741a10.4 10.4 0 0 1 1.921-2.653 1.55 1.55 0 0 1 2.468.367" style="fill:#fff" transform="translate(3.299 3.299)scale(.89691)"/><path d="M57.92 13.807a25.06 25.06 0 0 0-25.113 25.114 25.06 25.06 0 0 0 25.114 25.113A25.057 25.057 0 0 0 83.03 38.92a25.057 25.057 0 0 0-25.11-25.114zm-.001 7.176c2.826-.004 5.65.67 8.166 1.963 6.19 3.084 10.194 9.988 9.748 16.896-.267 7.107-5.227 13.715-11.953 16-6.49 2.364-14.241.517-18.946-4.546-4.89-4.997-6.333-12.953-3.543-19.358 2.672-6.52 9.474-11.053 16.528-10.955Zm-2.95 3.775a1.7 1.7 0 0 0-.396.032c-4.378.872-8.216 4.032-10.074 8.086-.481 1.22-1.643 2.946.216 3.568 1.855 1.332 4.02 1.983 6.2 2.545 1.33.343 1.386 1.166.55 2.246a6.1 6.1 0 0 0-1.175 2.576c.254 2.025 3.042 2.326 4.168 3.862.947.816 1.282 2.063 1.51 3.275.282 1.505 1.818 2.26 3.134 1.473 1.927-1.152 3.604-2.732 4.416-4.852.655-2.034.91-4.723-.724-6.373-3.372-2.668-8.291-1.806-11.635-4.549-1.896-.997-1.062-4.502 1.096-3.959 1.58.554 2.685 2.609 4.533 2.174-1.41-1.798-1.625-4.216-1.207-6.397-.033-.6.284-1.332.582-2.015.373-.857-.295-1.651-1.194-1.692zm14.457 7.323a1.37 1.37 0 0 0-.873.406 9.3 9.3 0 0 0-1.722 2.379c-.998 1.897.392 3.826 1.687 5.148.912.886 1.686 1.922 2.418 2.946.294.411.692.368.84-.116.586-1.91.571-3.983.363-5.957-.255-1.375-.703-2.81-1.373-4.07a1.39 1.39 0 0 0-1.34-.736z" style="fill:none;stroke:#000;stroke-width:.2;stroke-dasharray:none;stroke-opacity:1;filter:url(#c)" transform="translate(-25.92 -6.92)"/></svg>