<svg xmlns="http://www.w3.org/2000/svg" width="48" height="48"><rect width="6" height="16" x="14" y="5" fill="#b7b7b7" rx="2" ry="2"/><rect width="6" height="16" x="28" y="5" fill="#b7b7b7" rx="2" ry="2"/><rect width="30" height="24" x="9" y="19" fill="#5b5b5b" rx="2" ry="2"/><path fill="#fff" d="M16 5c-1.108 0-2 .892-2 2v1c0-1.108.892-2 2-2h2c1.108 0 2 .892 2 2V7c0-1.108-.892-2-2-2zM30 5c-1.108 0-2 .892-2 2v1c0-1.108.892-2 2-2h2c1.108 0 2 .892 2 2V7c0-1.108-.892-2-2-2z" opacity=".1"/><path d="M9 41v1c0 1.108.892 2 2 2h26c1.108 0 2-.892 2-2v-1c0 1.108-.892 2-2 2H11c-1.108 0-2-.892-2-2M24 24v6h6l-6 10v-6h-6z" opacity=".2"/><path fill="#e4e4e4" d="M24 23v6h6l-6 10v-6h-6z"/></svg>