<svg xmlns="http://www.w3.org/2000/svg" width="48" height="48"><rect width="32" height="36" x="8" y="9" rx="2" ry="2" style="opacity:.2"/><rect width="32" height="36" x="8" y="8" rx="2" ry="2" style="fill:#4f4f4f"/><path d="M14 4h20v4H14z" style="fill:#8e8e8e"/><path d="M11 12v8h26v-8zM11 22v8h26v-8z" style="opacity:.35"/><path d="M14 4v1h20V4Z" style="opacity:.2;fill:#fff"/><path d="M11 32v8h26v-8z" style="opacity:.35"/><circle cx="36" cy="36" r="10" style="fill:#db3c30"/><path d="M45.979 36.414A10 10 0 0 1 36 46a10 10 0 0 1-9.979-9.414A10 10 0 0 0 26 37a10 10 0 0 0 10 10 10 10 0 0 0 10-10 10 10 0 0 0-.021-.586" style="opacity:.2"/><path d="M-6.18 50.1h12v2h-12z" style="fill:#fff" transform="rotate(-45)"/><path d="M-57.1-1.18h12v2h-12z" style="fill:#fff" transform="rotate(-135)"/></svg>