<svg xmlns="http://www.w3.org/2000/svg" width="48" height="48"><rect width="32" height="36" x="8" y="9" rx="2" ry="2" style="opacity:.2"/><rect width="32" height="36" x="8" y="8" rx="2" ry="2" style="fill:#4f4f4f"/><path d="M14 4h20v4H14z" style="fill:#8e8e8e"/><path d="M11 23v8h26v-8zm0 10v8h26v-8z" style="opacity:.2"/><path d="M11 12v8h26v-8z" style="opacity:.35"/><path d="M11 22v8h26v-8zM11 32v8h26v-8z" style="fill:#c0f957"/><path d="M14 4v1h20V4zM11 22v1h26v-1zm0 10v1h26v-1z" style="opacity:.2;fill:#fff"/><path d="M35.999 27A9.98 9.98 0 0 0 26 37c0 5.54 4.46 10 10 10 5.539 0 9.998-4.46 9.998-10S41.54 27 36 27z" style="opacity:.2"/><path d="M35.999 26A9.98 9.98 0 0 0 26 36c0 5.54 4.46 10 10 10 5.539 0 9.998-4.46 9.998-10S41.54 26 36 26z" style="fill:#fecd38"/><path d="M35.999 30v4h4l-5 8v-4h-4z" style="fill:#3f3f3f"/></svg>