<svg xmlns="http://www.w3.org/2000/svg" width="48" height="48"><rect width="40" height="28" x="-44" y="-38" fill="#324090" rx="14" ry="14" transform="rotate(90)scale(-1 1)"/><path fill="none" stroke="#000" stroke-linecap="square" stroke-width="2" d="m17 19 14 13-7 7V12l7 7-14 13" opacity=".2"/><path fill="none" stroke="#fff" stroke-linecap="square" stroke-width="2" d="m17 18 14 13-7 7V11l7 7-14 13" style="stroke:#fff"/><path fill="#fff" d="M24 4c-7.756 0-14 6.244-14 14v1c0-7.756 6.244-14 14-14s14 6.244 14 14v-1c0-7.756-6.244-14-14-14" opacity=".1"/><path d="M10 30v1c0 7.756 6.244 14 14 14s14-6.244 14-14v-1c0 7.756-6.244 14-14 14s-14-6.244-14-14" opacity=".2"/><circle cx="37" cy="36" r="10" style="fill:#db3c30"/><path d="M46.979 36.414A10 10 0 0 1 37 46a10 10 0 0 1-9.979-9.414A10 10 0 0 0 27 37a10 10 0 0 0 10 10 10 10 0 0 0 10-10 10 10 0 0 0-.021-.586" style="opacity:.2"/><path d="M-5.48 50.8h12v2h-12z" style="fill:#fff" transform="rotate(-45)"/><path d="M-57.8-.48h12v2h-12z" style="fill:#fff" transform="rotate(225)"/></svg>