<svg xmlns="http://www.w3.org/2000/svg" width="48" height="48"><rect width="40" height="40" x="-45" y="-44" rx="20" ry="20" style="opacity:.2" transform="rotate(90)scale(-1 1)"/><rect width="40" height="40" x="-44" y="-44" rx="20" ry="20" style="fill:#e4e4e4" transform="rotate(90)scale(-1 1)"/><circle cx="24" cy="24" r="12" style="fill:#3f3f3f"/><circle cx="24" cy="-25" r="9" style="opacity:.2" transform="scale(1 -1)"/><circle cx="24" cy="-24" r="9" style="fill:#696969" transform="scale(1 -1)"/><path d="M24 4C12.92 4 4 12.92 4 24c0 .168.008.333.012.5A19.95 19.95 0 0 1 24 5a19.95 19.95 0 0 1 19.988 19.5c.004-.167.012-.332.012-.5 0-11.08-8.92-20-20-20z" style="opacity:.1;fill:#fff"/><circle cx="24" cy="25" r="6" style="opacity:.2"/><circle cx="24" cy="24" r="6" style="fill:#a5a5a5"/><circle cx="37" cy="36" r="10" style="fill:#db3c30"/><path d="M46.979 36.414A10 10 0 0 1 37 46a10 10 0 0 1-9.979-9.414A10 10 0 0 0 27 37a10 10 0 0 0 10 10 10 10 0 0 0 10-10 10 10 0 0 0-.021-.586" style="opacity:.2"/><path d="M-5.48 50.8h12v2h-12z" style="fill:#fff" transform="rotate(-45)"/><path d="M-57.8-.48h12v2h-12z" style="fill:#fff" transform="rotate(225)"/></svg>