<svg xmlns="http://www.w3.org/2000/svg" width="48" height="48"><path d="M23 5c-5.587 0-10.164 4.547-10.889 10h4.039c.655-3.304 3.412-6 6.85-6h2c3.947 0 7 3.553 7 7.5V20h4v-3.5C36 10.406 31.094 5 25 5z" style="opacity:.2"/><path d="M23 4c-5.587 0-10.164 4.547-10.889 10h4.039c.655-3.304 3.412-6 6.85-6h2c3.947 0 7 3.553 7 7.5V20h4v-4.5C36 9.406 31.094 4 25 4z" style="fill:#d2d2d2"/><path d="M8 42v1c0 1.108.892 2 2 2h28c1.108 0 2-.892 2-2v-1c0 1.108-.892 2-2 2H10c-1.108 0-2-.892-2-2" style="opacity:.2"/><rect width="32" height="24" x="8" y="20" rx="2" ry="2" style="fill:#fe3c38"/><path d="M10 20c-1.108 0-2 .892-2 2v1c0-1.108.892-2 2-2h28c1.108 0 2 .892 2 2v-1c0-1.108-.892-2-2-2Z" style="opacity:.2;fill:#fff"/><rect width="32" height="14" x="8" y="24" rx="0" ry="0" style="fill:#fe6a6a"/><path d="M23 4c-5.587 0-10.164 4.547-10.889 10h.176C13.405 9.003 17.758 5 23 5h2c6.094 0 11 5.406 11 11.5v-1C36 9.406 31.094 4 25 4Z" style="opacity:.2;fill:#fff"/></svg>