<svg xmlns="http://www.w3.org/2000/svg" width="48" height="48"><rect width="32" height="24" x="-43" y="-36" rx="2" ry="2" style="opacity:.2" transform="rotate(90)scale(-1 1)"/><rect width="32" height="24" x="-42" y="-36" fill="#8e8e8e" rx="2" ry="2" transform="rotate(90)scale(-1 1)"/><rect width="32" height="40" x="-39" y="-44" rx="2" ry="2" style="opacity:.2" transform="rotate(90)scale(-1 1)"/><rect width="32" height="40" x="-38" y="-44" rx="2" ry="2" style="fill:#4f4f4f" transform="rotate(90)scale(-1 1)"/><rect width="26" height="34" x="-35" y="-41" rx="0" ry="0" style="fill:#e64b39" transform="rotate(90)scale(-1 1)"/><path fill="#fff" d="M6 6c-1.108 0-2 .892-2 2v1c0-1.108.892-2 2-2h36c1.108 0 2 .892 2 2V8c0-1.108-.892-2-2-2z" style="opacity:.1"/><path d="M7 35h34v1H7z" style="opacity:.1;fill:#fff"/><path d="M490-272v2.5h1v-2.5zm5 0v2.5h1v-2.5zm-6 4.5v1h8v-1h-7zm8 1v1h1v-1zm-8 0h-1v1h1z" style="opacity:.2" transform="matrix(2 0 0 2 -962 561)"/><path d="M490-272v2.5h1v-2.5zm5 0v2.5h1v-2.5zm-6 4.5v1h8v-1h-7zm8 1v1h1v-1zm-8 0h-1v1h1z" style="fill:#fff" transform="matrix(2 0 0 2 -962 560)"/></svg>