<svg xmlns="http://www.w3.org/2000/svg" xmlns:xlink="http://www.w3.org/1999/xlink" width="48" height="48"><defs><radialGradient xlink:href="#a" id="i" cx="28.814" cy="42.769" r="10" fx="28.814" fy="42.769" gradientTransform="rotate(-30 -35.596 116.781)scale(1.98483)" gradientUnits="userSpaceOnUse"/><radialGradient xlink:href="#b" id="e" cx="5.401" cy="55.951" r="27.5" fx="5.401" fy="55.951" gradientTransform="rotate(-30 -141.534 113.05)scale(3.29957 2.3397)" gradientUnits="userSpaceOnUse"/><radialGradient xlink:href="#c" id="f" cx="5.401" cy="55.951" r="27.5" fx="5.401" fy="55.951" gradientTransform="rotate(-30 -141.177 112.9)scale(3.29456 2.33614)" gradientUnits="userSpaceOnUse"/><linearGradient id="a"><stop offset="0" style="stop-color:#db7b30;stop-opacity:1"/><stop offset="1" style="stop-color:#db3c30;stop-opacity:1"/></linearGradient><linearGradient id="b"><stop offset="0" style="stop-color:#5d5d5d;stop-opacity:1"/><stop offset="1" style="stop-color:#383838;stop-opacity:1"/></linearGradient><linearGradient id="c"><stop offset="0" style="stop-color:#939393;stop-opacity:1"/><stop offset="1" style="stop-color:#656565;stop-opacity:1"/></linearGradient><filter id="h" width="1.079" height="1.149" x="-.04" y="-.075" style="color-interpolation-filters:sRGB"><feGaussianBlur stdDeviation=".329"/></filter><filter id="g" width="1.056" height="1.093" x="-.028" y="-.047" style="color-interpolation-filters:sRGB"><feGaussianBlur stdDeviation=".524"/></filter><filter id="d" width="1.047" height="1.066" x="-.023" y="-.033" style="color-interpolation-filters:sRGB"><feGaussianBlur stdDeviation=".537"/></filter></defs><g transform="translate(.446 -.138)scale(.74774)"><rect width="55" height="39" x="4" y="13" rx="8.765" ry="8.765" style="opacity:1;mix-blend-mode:normal;filter:url(#d)" transform="translate(-1.478 -1.525)scale(1.04692)"/><rect width="55" height="39" x="4" y="12" rx="7.812" ry="7.812" style="fill:url(#e);stroke:url(#f);stroke-width:3.4;stroke-dasharray:none"/><path d="M10.25 19C9.557 19 9 19.558 9 20.25v2.5c0 .692.557 1.25 1.25 1.25h2.5c.693 0 1.25-.558 1.25-1.25v-2.5c0-.692-.557-1.25-1.25-1.25Zm8 0c-.692 0-1.25.558-1.25 1.25v2.5c0 .693.558 1.25 1.25 1.25h2.5c.692 0 1.25-.558 1.25-1.25v-2.5c0-.692-.558-1.25-1.25-1.25Zm8 0c-.692 0-1.25.558-1.25 1.25v2.5c0 .693.558 1.25 1.25 1.25h2.5c.692 0 1.25-.558 1.25-1.25v-2.5c0-.692-.558-1.25-1.25-1.25Zm8 0c-.693 0-1.25.558-1.25 1.25v2.5c0 .693.558 1.25 1.25 1.25h2.5c.693 0 1.25-.558 1.25-1.25v-2.5c0-.692-.557-1.25-1.25-1.25Zm8 0c-.693 0-1.25.558-1.25 1.25v2.5c0 .693.558 1.25 1.25 1.25h2.5c.693 0 1.25-.558 1.25-1.25v-2.5c0-.692-.557-1.25-1.25-1.25Zm8 0c-.693 0-1.25.558-1.25 1.25v2.5c0 .693.558 1.25 1.25 1.25h2.5c.693 0 1.25-.558 1.25-1.25v-2.5c0-.692-.557-1.25-1.25-1.25Zm-36 11c-.693 0-1.25.558-1.25 1.25v2.5c0 .693.558 1.25 1.25 1.25h2.5c.692 0 1.25-.557 1.25-1.25v-2.5c0-.692-.558-1.25-1.25-1.25Zm8 0c-.692 0-1.25.558-1.25 1.25v2.5c0 .693.558 1.25 1.25 1.25h2.5c.692 0 1.25-.557 1.25-1.25v-2.5c0-.692-.558-1.25-1.25-1.25Zm8 0c-.692 0-1.25.558-1.25 1.25v2.5c0 .693.558 1.25 1.25 1.25h2.5c.693 0 1.25-.557 1.25-1.25v-2.5c0-.692-.557-1.25-1.25-1.25Zm8 0c-.693 0-1.25.558-1.25 1.25v2.5c0 .693.558 1.25 1.25 1.25h2.5c.693 0 1.25-.557 1.25-1.25v-2.5c0-.692-.557-1.25-1.25-1.25Zm8 0c-.693 0-1.25.558-1.25 1.25v2.5c0 .693.558 1.25 1.25 1.25h2.5c.693 0 1.25-.557 1.25-1.25v-2.5c0-.692-.557-1.25-1.25-1.25ZM14.232 41C13.55 41 13 41.557 13 42.25v2.5c0 .693.55 1.25 1.232 1.25h34.536C49.45 46 50 45.443 50 44.75v-2.5c0-.693-.55-1.25-1.232-1.25Z" style="opacity:.185844;filter:url(#g)"/><rect width="5" height="5" x="9" y="18" rx="1.25" ry="1.25" style="opacity:.386239;fill:#000;fill-opacity:1"/><rect width="5" height="5" x="17" y="18" rx="1.25" ry="1.25" style="opacity:.386239;fill:#000;fill-opacity:1"/><rect width="5" height="5" x="25" y="18" rx="1.25" ry="1.25" style="opacity:.386239;fill:#000;fill-opacity:1"/><rect width="5" height="5" x="33" y="18" rx="1.25" ry="1.25" style="opacity:.386239;fill:#000;fill-opacity:1"/><rect width="5" height="5" x="41" y="18" rx="1.25" ry="1.25" style="opacity:.386239;fill:#000;fill-opacity:1"/><rect width="5" height="5" x="49" y="18" rx="1.25" ry="1.25" style="opacity:.386239;fill:#000;fill-opacity:1"/><rect width="5" height="5" x="13" y="29" rx="1.25" ry="1.25" style="opacity:.386239;fill:#000;fill-opacity:1"/><rect width="37" height="5" x="13" y="40" rx="1.233" ry="1.25" style="opacity:.386239;fill:#000;fill-opacity:1"/><rect width="5" height="5" x="21" y="29" rx="1.25" ry="1.25" style="opacity:.386239;fill:#000;fill-opacity:1"/><rect width="5" height="5" x="29" y="29" rx="1.25" ry="1.25" style="opacity:.386239;fill:#000;fill-opacity:1"/><rect width="5" height="5" x="37" y="29" rx="1.25" ry="1.25" style="opacity:.386239;fill:#000;fill-opacity:1"/><rect width="5" height="5" x="45" y="29" rx="1.25" ry="1.25" style="opacity:.386239;fill:#000;fill-opacity:1"/></g><path d="M47.008 35.837a10 10 0 0 1-9.98 9.586 10 10 0 0 1-9.978-9.414 10 10 0 0 0-.021.414 10 10 0 0 0 10 10 10 10 0 0 0 10-10 10 10 0 0 0-.021-.586" style="opacity:.33751848;filter:url(#h)"/><circle cx="37" cy="36" r="10" style="fill:url(#i)"/><rect width="12" height="2" x="-5.48" y="50.8" ry="1" style="fill:#fff" transform="rotate(-45)"/><rect width="12" height="2" x="-57.8" y="-.48" ry="1" style="fill:#fff" transform="rotate(-135)"/></svg>