<svg xmlns="http://www.w3.org/2000/svg" width="48" height="48"><rect width="32" height="24" x="-42" y="-36" fill="#c4c4c4" rx="2" ry="2" transform="rotate(90)scale(-1 1)"/><rect width="32" height="40" x="-38" y="-44" fill="#c4c4c4" rx="2" ry="2" transform="rotate(90)scale(-1 1)"/><rect width="26" height="34" x="-35" y="-41" fill="#5d5d5d" rx="0" ry="0" transform="rotate(90)scale(-1 1)"/><path fill="#fff" d="M6 6c-1.108 0-2 .892-2 2v1c0-1.108.892-2 2-2h36c1.108 0 2 .892 2 2V8c0-1.108-.892-2-2-2z" opacity=".2"/><path d="M12 40v1c0 1.108.892 2 2 2h20c1.108 0 2-.892 2-2v-1c0 1.108-.892 2-2 2H14c-1.108 0-2-.892-2-2M4 36v1c0 1.108.892 2 2 2h36c1.108 0 2-.892 2-2v-1c0 1.108-.892 2-2 2H6c-1.108 0-2-.892-2-2" opacity=".2"/><circle cx="37" cy="36" r="10" fill="#db3c30"/><path d="M46.979 36.414A10 10 0 0 1 37 46a10 10 0 0 1-9.979-9.414A10 10 0 0 0 27 37a10 10 0 0 0 10 10 10 10 0 0 0 10-10 10 10 0 0 0-.021-.586" opacity=".2"/><g fill="#fff"><path d="m32.05 39.796 8.486-8.486 1.414 1.415-8.485 8.485z"/><path d="m40.536 41.21-8.485-8.485 1.414-1.415 8.485 8.486z"/></g></svg>