<svg xmlns="http://www.w3.org/2000/svg" width="48" height="48"><path d="M7 7s-3 0-3 3v24s0 3 3 3h5l4 4h16l4-4h5s3 0 3-3V10c0-3-3-3-3-3Z" style="fill:#e4e4e4"/><path d="M10 14h28v18h-4.484l-4 4H18.485l-4-4H10Z" style="opacity:.4;fill:#fff"/><path d="M10 13h28v18h-4.484l-4 4H18.485l-4-4H10Z" style="fill:#5d5d5d"/><path d="M7 7s-3 0-3 3v1c0-3 3-3 3-3h34s3 0 3 3v-1c0-3-3-3-3-3Z" style="opacity:.1;fill:#fff"/><path d="M4 34v1s0 3 3 3h5l4 4h16l4-4h5s3 0 3-3v-1c0 3-3 3-3 3h-5l-4 4H16l-4-4H7c-3 0-3-3-3-3" style="opacity:.2"/><circle cx="37" cy="35" r="10" style="fill:#db3c30"/><path d="M46.979 35.414A10 10 0 0 1 37 45a10 10 0 0 1-9.979-9.414A10 10 0 0 0 27 36a10 10 0 0 0 10 10 10 10 0 0 0 10-10 10 10 0 0 0-.021-.586" style="opacity:.2"/><g style="fill:#fff"><path d="m32.05 38.796 8.486-8.486 1.414 1.415-8.485 8.485z"/><path d="m40.536 40.21-8.485-8.485 1.414-1.415 8.485 8.486z"/></g></svg>