<svg xmlns="http://www.w3.org/2000/svg" width="48" height="48"><rect width="40" height="40" x="-44" y="-44" fill="#c4c4c4" rx="2" ry="2" transform="rotate(90)scale(-1 1)"/><path fill="#fff" d="M6 4c-1.108 0-2 .892-2 2v1c0-1.108.892-2 2-2h36c1.108 0 2 .892 2 2V6c0-1.108-.892-2-2-2z" opacity=".2"/><g fill="#5d5d5d"><rect width="18" height="10" x="5" y="32" rx="2" ry="2"/><rect width="18" height="10" x="25" y="32" rx="2" ry="2"/><path d="M37 10h6v1h-6zM37 13h6v1h-6zM37 16h6v1h-6zM37 19h6v1h-6zM37 22h6v1h-6zM37 25h6v1h-6z"/></g><path d="M4 42v1c0 1.108.892 2 2 2h36c1.108 0 2-.892 2-2v-1c0 1.108-.892 2-2 2H6c-1.108 0-2-.892-2-2" opacity=".2"/><circle cx="38" cy="37" r="10" fill="#db3c30"/><path d="M47.979 37.414A10 10 0 0 1 38 47a10 10 0 0 1-9.979-9.414A10 10 0 0 0 28 38a10 10 0 0 0 10 10 10 10 0 0 0 10-10 10 10 0 0 0-.021-.586" opacity=".2"/><g fill="#fff"><path d="m33.05 40.796 8.486-8.486 1.414 1.415-8.485 8.485z"/><path d="m41.536 42.21-8.485-8.485 1.414-1.415 8.485 8.486z"/></g></svg>