<svg xmlns="http://www.w3.org/2000/svg" width="48" height="48"><rect width="17" height="40" x="-33" y="-44" rx="2" ry="2" style="opacity:.2" transform="rotate(90)scale(-1 1)"/><path d="M8 28v15c0 1.108.892 2 2 2h28c1.108 0 2-.892 2-2V28z" style="opacity:.2"/><path d="M10 4c-1.108 0-2 .892-2 2v12h32V6c0-1.108-.892-2-2-2z" style="fill:#e4e4e4"/><rect width="17" height="40" x="-32" y="-44" fill="#4f4f4f" rx="2" ry="2" transform="rotate(90)scale(-1 1)"/><path fill="#fff" d="M6 15.004c-1.108 0-2 .892-2 2v1c0-1.108.892-2 2-2h36c1.108 0 2 .892 2 2v-1c0-1.108-.892-2-2-2z" opacity=".1"/><path d="M6 25h36v4H6z" style="opacity:.2"/><rect width="4" height="4" x="6" y="18" rx="1.5" ry="1.5" style="opacity:.2"/><rect width="4" height="4" x="6" y="17" rx="1.5" ry="1.5" style="fill:#76ff03"/><path d="M8 27v15c0 1.108.892 2 2 2h28c1.108 0 2-.892 2-2V27z" style="fill:#e4e4e4"/><path d="M10 4c-1.108 0-2 .892-2 2v1c0-1.108.892-2 2-2h28c1.108 0 2 .892 2 2V6c0-1.108-.892-2-2-2z" style="fill:#fff;opacity:.2"/><path d="M12 38h21v2H12zM12 34h17v2H12zM12 30h24v2H12z" style="opacity:.5"/><path d="M7.5 17c-.831 0-1.5.669-1.5 1.5v1c0-.831.669-1.5 1.5-1.5h1c.831 0 1.5.669 1.5 1.5v-1c0-.831-.669-1.5-1.5-1.5z" style="fill:#fff;opacity:.2"/></svg>