<svg xmlns="http://www.w3.org/2000/svg" width="48" height="48"><path fill="#888" d="M9 6h30v14H9z"/><rect width="40" height="24" x="4" y="18" fill="#c4c4c4" rx="2" ry="2"/><path d="M20 36h8v4h-8z" opacity=".2"/><path fill="#db3c30" d="M20 35h8v4h-8z"/><path fill="#fff" d="M9 6v1h30V6zM6 18c-1.108 0-2 .892-2 2v1c0-1.108.892-2 2-2h36c1.108 0 2 .892 2 2v-1c0-1.108-.892-2-2-2z" opacity=".2"/><path d="M4 40v1c0 1.108.892 2 2 2h36c1.108 0 2-.892 2-2v-1c0 1.108-.892 2-2 2H6c-1.108 0-2-.892-2-2" opacity=".2"/></svg>