<svg xmlns="http://www.w3.org/2000/svg" width="48" height="48"><rect width="32" height="24" x="-42" y="-36" fill="#c4c4c4" rx="2" ry="2" transform="rotate(90)scale(-1 1)"/><rect width="32" height="40" x="-38" y="-44" fill="#c4c4c4" rx="2" ry="2" transform="rotate(90)scale(-1 1)"/><rect width="26" height="34" x="-35" y="-41" fill="#5d5d5d" rx="0" ry="0" transform="rotate(90)scale(-1 1)"/><path fill="#fff" d="M6 6c-1.108 0-2 .892-2 2v1c0-1.108.892-2 2-2h36c1.108 0 2 .892 2 2V8c0-1.108-.892-2-2-2z" opacity=".2"/><path d="M12 40v1c0 1.108.892 2 2 2h20c1.108 0 2-.892 2-2v-1c0 1.108-.892 2-2 2H14c-1.108 0-2-.892-2-2M4 36v1c0 1.108.892 2 2 2h36c1.108 0 2-.892 2-2v-1c0 1.108-.892 2-2 2H6c-1.108 0-2-.892-2-2M24 11.685 20.686 15H16v4.685L12.686 23 16 26.314v4.685h4.685l3.314 3.314 3.314-3.314h4.686v-4.686l3.314-3.314-3.314-3.315v-4.685h-4.685L24 11.683zm3 6.125A5.99 5.99 0 0 1 30 23a5.99 5.99 0 0 1-3 5.189z" opacity=".2"/><path fill="#c4c4c4" d="M24 10.686 20.686 14H16v4.686L12.686 22 16 25.314V30h4.686L24 33.314 27.314 30H32v-4.686L35.314 22 32 18.686V14h-4.686zm3 6.125c1.791 1.037 3 2.97 3 5.189s-1.209 4.152-3 5.189z"/></svg>