<svg xmlns="http://www.w3.org/2000/svg" width="48" height="48"><rect width="24" height="32" x="12" y="11" rx="2" ry="2" style="opacity:.2"/><rect width="24" height="32" x="12" y="10" rx="2" ry="2" style="fill:#8e8e8e"/><rect width="40" height="32" x="4" y="7" rx="2" ry="2" style="opacity:.2"/><rect width="40" height="32" x="4" y="6" rx="2" ry="2" style="fill:#4f4f4f"/><rect width="34" height="26" x="7" y="9" rx="0" ry="0" style="fill:#497b92"/><path d="M7 35h34v1H7z" style="opacity:.1;fill:#fff"/><path d="M6 6c-1.108 0-2 .892-2 2v1c0-1.108.892-2 2-2h36c1.108 0 2 .892 2 2V8c0-1.108-.892-2-2-2z" style="fill:#fff;opacity:.1"/><path d="M18 17v12h4V17Zm8 0v12h4V17Z" style="opacity:.2"/><path d="M18 16v12h4V16Zm8 0v12h4V16Z" style="fill:#99cbe4"/></svg>