<svg xmlns="http://www.w3.org/2000/svg" width="48" height="48"><g transform="translate(0 -284.3)"><rect width="37" height="36" x="-329.3" y="-42" rx="3" ry="3" style="opacity:.2" transform="rotate(90)scale(-1 1)"/><rect width="37" height="36" x="-328.3" y="-42" rx="3" ry="3" style="fill:#e5a057" transform="rotate(90)scale(-1 1)"/><path d="M38 296.3H10v5.6l3 2.4 3-2 4 1 4-2 4 2 6-2 4 .6z" style="opacity:.2"/><path d="M38 295.3H10v5.6l3 2.4 3-2 4 1 4-2 4 2 6-2 4 .6z" style="fill:#fff"/><path d="M9 291.3c-1.662 0-3 1.338-3 3v1c0-1.662 1.338-3 3-3h30c1.662 0 3 1.338 3 3v-1c0-1.662-1.338-3-3-3z" style="opacity:.2;fill:#fff"/><path d="M24 286.3c-2.216 0-4 1.784-4 4v2h-2c-1.108 0-2 .892-2 2v4h16v-4c0-1.108-.892-2-2-2h-2v-2c0-2.216-1.784-4-4-4" style="fill:#ccc"/><circle cx="24" cy="291.3" r="2" style="opacity:.2"/><circle cx="24" cy="290.3" r="2" style="fill:#fff"/><path d="M24 286.3c-2.216 0-4 1.784-4 4v1c0-2.216 1.784-4 4-4s4 1.784 4 4v-1c0-2.216-1.784-4-4-4m-6 6c-1.108 0-2 .892-2 2v1c0-1.108.892-2 2-2h2v-1zm10 0v1h2c1.108 0 2 .892 2 2v-1c0-1.108-.892-2-2-2z" style="opacity:.2;fill:#fff"/><path d="M16 296.3v2h16v-2z" style="fill:#b3b3b3"/></g></svg>