<svg xmlns="http://www.w3.org/2000/svg" xmlns:xlink="http://www.w3.org/1999/xlink" width="64" height="64"><defs><radialGradient xlink:href="#a" id="b" cx="21.477" cy="23.352" r="22" fx="21.477" fy="23.352" gradientTransform="matrix(5.24376 0 0 4.28655 -93.169 -54.972)" gradientUnits="userSpaceOnUse"/><linearGradient id="a"><stop offset="0" style="stop-color:#ededed;stop-opacity:1"/><stop offset="1" style="stop-color:#b7b7b7;stop-opacity:1"/></linearGradient></defs><path d="M12.75 4C11.226 4 10 5.249 10 6.8v50.4c0 1.551 1.227 2.8 2.75 2.8h38.5c1.523 0 2.75-1.249 2.75-2.8V20L38 4Z" style="fill:url(#b);fill-opacity:1"/><path d="M38 4v13.333A2.667 2.667 0 0 0 40.667 20H54Z" style="fill:#fff;fill-opacity:1;opacity:.59337604"/><path d="M45 28.6c-2.377 1.3-7.268 1.571-11.895 1.517-3.631.021-10.72-.733-11.939 2.816.461-.634 8.903-3.513 8.054.062-.999 2.912-2.186 4.389-3.715 7.025-1.488.112-3.546.177-4.823 1.064.333-.205 3.164-.768 4.299-.149-1.738 2.872-4.129 6.196-5.403 9.324-.351 1.074-1.141 2.802.073 3.58 1.029.48.308-.21.725-.882 1.747-3.755 4.751-7.915 6.946-11.402 1.282.533 2.525 1.521 3.923 1.675 1.903.226 5.182-2.464 5.687-4.313-2.167 1.627-5.907 1.119-8.377 1.067l4.736-7.273c.525.162 1.452.205 2.985.222 3.573.102 8.141-.564 8.723-4.333Z" style="fill:#000;fill-opacity:1"/></svg>