<svg xmlns="http://www.w3.org/2000/svg" xmlns:xlink="http://www.w3.org/1999/xlink" width="64" height="64"><defs><radialGradient xlink:href="#a" id="b" cx="21.477" cy="23.352" r="22" fx="21.477" fy="23.352" gradientTransform="matrix(5.24376 0 0 4.28655 -93.169 -54.972)" gradientUnits="userSpaceOnUse"/><linearGradient id="a"><stop offset="0" style="stop-color:#ededed;stop-opacity:1"/><stop offset="1" style="stop-color:#b7b7b7;stop-opacity:1"/></linearGradient></defs><path d="M12.75 4C11.226 4 10 5.249 10 6.8v50.4c0 1.551 1.227 2.8 2.75 2.8h38.5c1.523 0 2.75-1.249 2.75-2.8V20L38 4Z" style="fill:url(#b);fill-opacity:1"/><path d="M38 4v13.333A2.667 2.667 0 0 0 40.667 20H54Z" style="opacity:.593376;fill:#fff;fill-opacity:1"/><g style="opacity:.7339737"><rect width="16" height="16" x="30" y="27" ry="2.667" style="fill:#51a9ff;opacity:1;fill-opacity:1"/><circle cx="33" cy="44" r="8" style="fill:#ff5145;opacity:1;fill-opacity:1"/><path d="M26.016 27a1.33 1.33 0 0 0-1.145.626l-6.66 10.667a1.3 1.3 0 0 0-.163.384s-.107.507-.002 1.012c.106.505.416 1.128.992 1.64C20.19 42.354 22.175 43 26 43s5.81-.646 6.962-1.67c.576-.513.887-1.136.992-1.641s-.002-1.012-.002-1.012a1.3 1.3 0 0 0-.162-.384l-6.66-10.667c-.241-.384-.661-.62-1.114-.626" style="fill:#ffab13;opacity:1;fill-opacity:1"/></g></svg>