<svg xmlns="http://www.w3.org/2000/svg" xmlns:xlink="http://www.w3.org/1999/xlink" width="64" height="64"><defs><radialGradient xlink:href="#a" id="b" cx="21.477" cy="23.352" r="22" fx="21.477" fy="23.352" gradientTransform="matrix(5.24376 0 0 4.28655 -93.169 -54.972)" gradientUnits="userSpaceOnUse"/><linearGradient id="a"><stop offset="0" style="stop-color:#ededed;stop-opacity:1"/><stop offset="1" style="stop-color:#b7b7b7;stop-opacity:1"/></linearGradient></defs><path d="M12.75 4C11.226 4 10 5.249 10 6.8v50.4c0 1.551 1.227 2.8 2.75 2.8h38.5c1.523 0 2.75-1.249 2.75-2.8V20L38 4Z" style="fill:url(#b);fill-opacity:1"/><path d="M38 4v13.333A2.667 2.667 0 0 0 40.667 20H54Z" style="opacity:.593376;fill:#fff;fill-opacity:1"/><rect width="10" height="24" x="34" y="29" rx="2.356" ry="2.356" style="fill:#3ac140"/><rect width="10" height="14" x="20" y="39" rx="2.917" ry="2.917" style="fill:#fa3e30"/><path d="M30 31c-2 0-3.863-.061-5.447.73a4.24 4.24 0 0 0-1.92 1.94c-.32.656-.513 1.421-.591 2.32-.05.556.411 1.01.97 1.01.546 0 .978-.455 1.04-1.01.071-.622.207-1.092.378-1.441.252-.517.56-.8 1.017-1.03C26.363 33.062 28 33 30 33Z" style="fill:#3f51b5"/><path d="m31.012 32.74-2.386 1.79a.391.391 26.565 0 1-.626-.312v-4.436a.391.391 153.435 0 1 .626-.313l2.386 1.79a.926.926 90 0 1 0 1.482" style="fill:#3f51b5"/><path d="M40 43c-1-.041-1.657.266-2.166.797-.51.524-.696 1.308-.834 2.203h-1l-.5 1h1.506c-.002.15-.009.324-.012.5.003.176.01.35.012.5H36l-.5 1H37c.138.895.325 1.68.834 2.203C38.344 51.734 39 52 40 52s2-1.002 2-1.002v-.986s-1.123.939-2 .988-1.698-.61-1.967-2H40l.5-1H38a5 5 0 0 1-.012-.5A5 5 0 0 1 38 47h2.5l.5-1h-2.967c.27-1.39 1.05-2.029 1.967-2 .916.029 2 .988 2 .988v-.986s-1-.96-2-1.002" style="fill:#3f3f3f"/></svg>