<svg xmlns="http://www.w3.org/2000/svg" xmlns:xlink="http://www.w3.org/1999/xlink" width="64" height="64"><defs><radialGradient xlink:href="#a" id="b" cx="16.935" cy="49.154" r="22" fx="16.935" fy="49.154" gradientTransform="rotate(-15 -1771.875 790.705)scale(8.66244 11.02492)" gradientUnits="userSpaceOnUse"/><linearGradient id="a"><stop offset="0" style="stop-color:#4257ff;stop-opacity:1"/><stop offset="1" style="stop-color:#43c6a9;stop-opacity:1"/></linearGradient></defs><path d="M12.75 4C11.226 4 10 5.249 10 6.8v50.4c0 1.55 1.227 2.8 2.75 2.8h38.5c1.522 0 2.75-1.25 2.75-2.8V22L36 4Z" style="fill:url(#b)"/><path d="M54 22 36 4v15.188A2.806 2.806 0 0 0 38.813 22Z" style="opacity:.374382;fill:#fff;fill-opacity:1"/><path d="M30.625 25 23.75 46.75 19.518 33H10v4h6.96l6.79 19.375 6.875-22 4.125 13.75L40.25 33l4.125 14H54v-4h-6.875L40.25 26.124l-5.5 11z" style="fill:#fff"/></svg>