<svg xmlns="http://www.w3.org/2000/svg" xmlns:xlink="http://www.w3.org/1999/xlink" width="64" height="64"><defs><radialGradient xlink:href="#a" id="b" cx="17.386" cy="47.039" r="22" fx="17.386" fy="47.039" gradientTransform="rotate(-45 -113.287 148.239)scale(2.8598 3.63975)" gradientUnits="userSpaceOnUse"/><linearGradient id="a"><stop offset="0" style="stop-color:#ffa12d;stop-opacity:1"/><stop offset="1" style="stop-color:#fadb6a;stop-opacity:1"/></linearGradient></defs><path d="M12.75 4C11.226 4 10 5.249 10 6.8v50.4c0 1.55 1.227 2.8 2.75 2.8h38.5c1.522 0 2.75-1.25 2.75-2.8V22L36 4Z" style="fill:url(#b)"/><path d="M54 22 36 4v15.188A2.806 2.806 0 0 0 38.813 22Z" style="opacity:.457139;fill:#fff;fill-opacity:1"/><path d="m19.5 41.5 1.8.024c4.24.092 8.267 1.193 9.77 3.525 3.504 5.44-3.438 7.205-6.228 3.363-2.606-4.218-1.705-12.68 2.05-13.698 6.796-1.549 7.321 8.638 11.505 6.532 3.232-1.626-1.943-8.82 1.219-10.578 1.355-.754 4.689 2.123 4.689 2.123" style="fill:none;stroke:#fff;stroke-width:3;stroke-linecap:square"/></svg>