<svg xmlns="http://www.w3.org/2000/svg" xmlns:xlink="http://www.w3.org/1999/xlink" width="64" height="64"><defs><radialGradient xlink:href="#a" id="b" cx="21.477" cy="23.352" r="22" fx="21.477" fy="23.352" gradientTransform="matrix(5.24376 0 0 4.28655 -93.169 -54.972)" gradientUnits="userSpaceOnUse"/><linearGradient id="a"><stop offset="0" style="stop-color:#494949;stop-opacity:1"/><stop offset="1" style="stop-color:#9c9c9c;stop-opacity:1"/></linearGradient></defs><path d="M12.75 4C11.226 4 10 5.249 10 6.8v50.4c0 1.551 1.227 2.8 2.75 2.8h38.5c1.523 0 2.75-1.249 2.75-2.8V20L38 4Z" style="fill:url(#b);fill-opacity:1"/><path d="M38 4v13.333A2.667 2.667 0 0 0 40.667 20H54Z" style="opacity:.36674;fill:#fff;fill-opacity:1"/><ellipse cx="31.994" cy="41.408" rx="13.654" ry="13.656" style="fill:#fff;stroke:#000;stroke-width:0;stroke-linecap:round;stroke-linejoin:round"/><g style="opacity:1"><path d="M44.122 34.005a14.004 14.006 0 0 0-19.13-5.126 14.004 14.006 0 0 0-5.142 5.188l12.144 6.941z" style="fill:#ee8dff;stroke:#000;stroke-width:0;stroke-linecap:round;stroke-linejoin:round;fill-opacity:1"/><path d="m44.122 34.005-12.128 7.003L31.932 55a14.004 14.006 0 0 0 7.064-1.862 14.004 14.006 0 0 0 5.126-19.133" style="fill:#fdd04b;stroke:#000;stroke-width:0;stroke-linecap:round;stroke-linejoin:round;fill-opacity:1"/><path d="m31.994 41.008-12.144-6.94a14.004 14.006 0 0 0 .017 13.943A14.004 14.006 0 0 0 31.932 55z" style="fill:#5bb9e5;stroke:#000;stroke-width:0;stroke-linecap:round;stroke-linejoin:round;fill-opacity:1"/></g></svg>