<svg xmlns="http://www.w3.org/2000/svg" width="64" height="64"><path d="M12.75 5C11.227 5 10 6.249 10 7.8v50.4c0 1.55 1.227 2.8 2.75 2.8h38.5c1.522 0 2.75-1.25 2.75-2.8V23l-14-4-4-14z" style="opacity:.2"/><path d="M12.75 4C11.227 4 10 5.249 10 6.8v50.4c0 1.55 1.227 2.8 2.75 2.8h38.5c1.522 0 2.75-1.25 2.75-2.8V22l-14-4-4-14z" style="fill:#4f4f4f"/><path d="M54 23 36 5v15.188A2.806 2.806 0 0 0 38.813 23z" style="opacity:.2"/><path d="M54 22 36 4v15.188A2.806 2.806 0 0 0 38.813 22z" style="fill:#696969"/><path d="M12.75 4C11.227 4 10 5.25 10 6.8v1C10 6.25 11.227 5 12.75 5H36V4z" style="fill:#fff;opacity:.1"/><path d="M29 60h7l18-18v-7z" style="fill:#e36d66"/><path d="M34 60h7l13-13v-7z" style="fill:#ebca41"/><path d="M39 60h7l8-8v-7z" style="fill:#79de7d"/><path d="M44 60h5l5-5v-5z" style="fill:#50beee"/><path d="m32.5 31 5 8-5 8h4l3-4.801 3 4.801h4l-5-8 5-8h-4l-3 4.801-3-4.801zM16 31h14v2l-9 11h9v3H16v-2l9-11h-9z" style="opacity:.2"/><path d="m32.5 30 5 8-5 8h4l3-4.801 3 4.801h4l-5-8 5-8h-4l-3 4.801-3-4.801zM16 30h14v2l-9 11h9v3H16v-2l9-11h-9z" style="fill:#fff"/></svg>