<svg xmlns="http://www.w3.org/2000/svg" xmlns:xlink="http://www.w3.org/1999/xlink" width="64" height="64"><defs><radialGradient xlink:href="#a" id="b" cx="17.386" cy="47.039" r="22" fx="17.386" fy="47.039" gradientTransform="rotate(-45 -113.287 148.239)scale(2.8598 3.63975)" gradientUnits="userSpaceOnUse"/><linearGradient id="a"><stop offset="0" style="stop-color:#ffa12d;stop-opacity:1"/><stop offset="1" style="stop-color:#fadb6a;stop-opacity:1"/></linearGradient></defs><path d="M12.75 4C11.226 4 10 5.249 10 6.8v50.4c0 1.55 1.227 2.8 2.75 2.8h38.5c1.522 0 2.75-1.25 2.75-2.8V22L36 4Z" style="fill:url(#b)"/><path d="M54 22 36 4v15.188A2.806 2.806 0 0 0 38.813 22Z" style="opacity:.457139;fill:#fff;fill-opacity:1"/><path d="M30.331 25.027c-.511 0-1.022.198-1.414.59a1.995 1.995 0 0 0 0 2.828L34.472 34H19.987c-1.108 0-2 .892-2 2s.892 2 2 2c2.552-.006 4.546-.002 7.86 0L17.6 48.242a1.995 1.995 0 0 0 0 2.828 2 2 0 0 0 2.832 0c1.834-1.844 3.291-3.294 5.664-5.664A10 10 0 0 0 35.987 54a10 10 0 0 0 10-10 10 10 0 0 0-2.933-7.066l.004-.004s-7.65-7.63-11.313-11.313a2 2 0 0 0-1.414-.59M35.987 38a6 6 0 0 1 6 6 6 6 0 0 1-6 6 6 6 0 0 1-6-6 6 6 0 0 1 6-6m0 2a4 4 0 0 0-4 4 4 4 0 0 0 4 4 4 4 0 0 0 4-4 4 4 0 0 0-4-4" style="fill:#fff"/></svg>