<svg xmlns="http://www.w3.org/2000/svg" xmlns:xlink="http://www.w3.org/1999/xlink" width="64" height="64"><defs><radialGradient xlink:href="#a" id="d" cx="32" cy="41" r="14" fx="32" fy="41" gradientUnits="userSpaceOnUse"/><radialGradient xlink:href="#b" id="c" cx="17.386" cy="47.039" r="22" fx="17.386" fy="47.039" gradientTransform="rotate(-45 -113.287 148.239)scale(2.8598 3.63975)" gradientUnits="userSpaceOnUse"/><linearGradient id="a"><stop offset="0" style="stop-color:#fff;stop-opacity:1"/><stop offset="1" style="stop-color:#fff;stop-opacity:.70162719"/></linearGradient><linearGradient id="b"><stop offset="0" style="stop-color:#eb4a91;stop-opacity:1"/><stop offset="1" style="stop-color:#fa7c6a;stop-opacity:1"/></linearGradient></defs><path d="M12.75 4C11.226 4 10 5.249 10 6.8v50.4c0 1.55 1.227 2.8 2.75 2.8h38.5c1.522 0 2.75-1.25 2.75-2.8V22L36 4Z" style="fill:url(#c)"/><path d="M54 22 36 4v15.188A2.806 2.806 0 0 0 38.813 22Z" style="opacity:.457139;fill:#fff;fill-opacity:1"/><path d="M32 27c-7.756 0-14 6.244-14 14s6.244 14 14 14 14-6.244 14-14-6.244-14-14-14m0 7a7 7 0 1 1 0 14 7 7 0 0 1 0-14" style="fill:url(#d)"/><path d="M32 34a7 7 0 0 0-7 7 7 7 0 0 0 7 7 7 7 0 0 0 7-7 7 7 0 0 0-7-7m0 4a3 3 0 1 1 0 6 3 3 0 0 1 0-6" style="opacity:.5;fill:#fff"/></svg>