<svg xmlns="http://www.w3.org/2000/svg" xmlns:xlink="http://www.w3.org/1999/xlink" width="64" height="64"><defs><radialGradient xlink:href="#a" id="b" cx="21.477" cy="23.352" r="22" fx="21.477" fy="23.352" gradientTransform="matrix(5.24376 0 0 4.28655 -85.169 -52.972)" gradientUnits="userSpaceOnUse"/><linearGradient id="a"><stop offset="0" style="stop-color:#ededed;stop-opacity:1"/><stop offset="1" style="stop-color:#b7b7b7;stop-opacity:1"/></linearGradient></defs><path d="M20.75 6C19.227 6 18 7.249 18 8.8v50.4c0 1.551 1.227 2.8 2.75 2.8h38.5c1.523 0 2.75-1.249 2.75-2.8V22L46 6Z" style="fill:url(#b);fill-opacity:1" transform="translate(-8 -2)"/><path d="M46 6v13.333A2.667 2.667 0 0 0 48.667 22H62Z" style="opacity:.593376;fill:#fff;fill-opacity:1" transform="translate(-8 -2)"/><path d="M41.256 33.034c-.081-.4.757-2.746-1.924-4.072a9 9 0 0 0-1.982-.677c-1.697-.378-3.936-.446-6.327.206a14.5 14.5 0 0 0-5.54 2.93 13.8 13.8 0 0 0-3.442 4.377q-.106.216-.204.436a9.6 9.6 0 0 0-.826 3.405 8.2 8.2 0 0 0 .688 3.768 8.2 8.2 0 0 0 2.862 3.144c.822.53 1.829.967 2.963 1.183.44.084.92.137 1.428.138a8 8 0 0 0 2.64-.435c.738-.249 1.412-.58 2.014-.936.548-.324 1.046-.67 1.48-.974.432-.302.784-.55 1.139-.768q.491-.3.895-.454c.259-.097.46-.138.609-.148.138-.026.253-.017.295-.026.044-.025.054-.004.053-.093.007-.08.064-.029.086.024.03.08.02.217-.04.39a2.5 2.5 0 0 1-.423.578 8 8 0 0 1-.773.701l-.24.195c-.247.2-.518.411-.799.641a11 11 0 0 0-1.158 1.069 6 6 0 0 0-1.01 1.464 4.1 4.1 0 0 0-.421 1.862c.023.524.166 1 .373 1.401.241.467.57.839.924 1.107.343.26.698.413 1.012.484q.165.038.323.044c.731.033 1.202-.35 1.39-.462-.185-.204-.334-.616-.46-1.046l-.051-.167c-.05-.154-.095-.3-.121-.446a2 2 0 0 1-.034-.452c.006-.132.03-.257.077-.365.04-.135.12-.3.257-.485a3 3 0 0 1 .544-.552c.232-.187.504-.369.842-.573.256-.155.505-.297.813-.475q.145-.084.3-.177a11 11 0 0 0 1.29-.892 6.7 6.7 0 0 0 1.258-1.326 4.8 4.8 0 0 0 .88-1.907 4.1 4.1 0 0 0-.223-2.393c-.408-.967-1.17-1.737-2.058-2.24-.885-.503-1.864-.735-2.776-.783a7.9 7.9 0 0 0-2.528.335 11 11 0 0 0-2.007.832c-.565.297-1.111.631-1.524.88-.473.283-.833.493-1.186.664a4 4 0 0 1-.9.325c-.265.054-.42.036-.504.006a1 1 0 0 1-.127-.075.7.7 0 0 1-.26-.339 1.5 1.5 0 0 1-.048-.76c-.022-.247 0-.56.076-.916a6.6 6.6 0 0 1 .498-1.433c.349-.73.894-1.415 1.582-1.994a7.6 7.6 0 0 1 2.499-1.387c1.037-.344 2.059-.449 2.965-.516.412-.03.79-.052 1.13-.09 1.786-.198 2.995-1.586 3.73-1.755z" style="fill:#444342"/></svg>