<svg xmlns="http://www.w3.org/2000/svg" xmlns:xlink="http://www.w3.org/1999/xlink" width="64" height="64"><defs><radialGradient xlink:href="#a" id="b" cx="13.03" cy="49.45" r="22" fx="13.03" fy="49.45" gradientTransform="rotate(-30 -182.276 149.29)scale(2.61531 3.32858)" gradientUnits="userSpaceOnUse"/><linearGradient id="a"><stop offset="0" style="stop-color:#f78330;stop-opacity:1"/><stop offset="1" style="stop-color:#e6664a;stop-opacity:1"/></linearGradient></defs><path d="M12.467 4.16c-1.524 0-2.75 1.25-2.75 2.8v50.4c0 1.55 1.226 2.8 2.75 2.8h38.5c1.522 0 2.75-1.25 2.75-2.8v-35.2l-18-18z" style="fill:url(#b)" transform="translate(.283 -.16)"/><path d="m53.717 22.16-18-18v15.188a2.806 2.806 0 0 0 2.812 2.813z" style="opacity:.584913;fill:#fee;fill-opacity:1" transform="translate(.283 -.16)"/><path d="M22.918 27C21.001 27 21 28.855 21 28.855v22.29S21.001 53 22.918 53h19.164S44 53.002 44 51.145v-22.29S43.999 27 42.082 27zm9.582 4c4.144 0 7.5 3.356 7.5 7.5S36.644 46 32.5 46H25v-7.5c0-4.144 3.356-7.5 7.5-7.5m0 4a3.51 3.51 0 0 0-3.5 3.5 3.51 3.51 0 0 0 3.5 3.5 3.51 3.51 0 0 0 3.5-3.5 3.51 3.51 0 0 0-3.5-3.5" style="fill:#fff"/></svg>