<svg xmlns="http://www.w3.org/2000/svg" xmlns:xlink="http://www.w3.org/1999/xlink" width="64" height="64"><defs><radialGradient xlink:href="#a" id="b" cx="17.386" cy="47.039" r="22" fx="17.386" fy="47.039" gradientTransform="rotate(-45 -113.287 148.239)scale(2.8598 3.63975)" gradientUnits="userSpaceOnUse"/><linearGradient id="a"><stop offset="0" style="stop-color:#ff4f54;stop-opacity:1"/><stop offset="1" style="stop-color:#fa7e6a;stop-opacity:1"/></linearGradient></defs><path d="M12.75 4C11.226 4 10 5.249 10 6.8v50.4c0 1.55 1.227 2.8 2.75 2.8h38.5c1.522 0 2.75-1.25 2.75-2.8V22L36 4Z" style="fill:url(#b)"/><path d="M54 22 36 4v15.188A2.806 2.806 0 0 0 38.813 22Z" style="opacity:.457139;fill:#fff;fill-opacity:1"/><path d="M27.449 53.973c-.607-.023-1.122-.06-1.144-.083s.243-.18.589-.349c1.387-.68 2.484-1.826 3.463-3.621.15-.276.649-1.349 1.108-2.383 3.36-7.574 7.762-17.39 7.832-17.465.075-.08.287-.077 1.679.019 3.71.256 4.395.361 5.052.779.61.387 1.167 1.134 1.366 1.83.298 1.045.605 5.686.606 9.169 0 3.58-.316 8.359-.617 9.305-.321 1.01-1.09 1.8-2.047 2.105-.546.174-3.413.427-7.105.627-1.465.08-9.19.127-10.782.067m-6.633-.357-.849-.096c-1.865-.208-2.894-.893-3.34-2.225-.403-1.203-.72-7.266-.602-11.52.094-3.4.356-6.527.604-7.212.386-1.068 1.247-1.853 2.285-2.086.484-.109 2.62-.298 4.997-.443 1.356-.082 1.694-.12 1.801-.206.073-.057.954-1.055 1.957-2.217s1.847-2.128 1.875-2.146c.234-.149 1.648-.1 1.648.058 0 .06-11.2 13.61-13.153 15.914-.052.061-.08.126-.061.144.018.019.306-.024.641-.094.436-.092.842-.128 1.431-.128 2.798 0 5.832 1.145 7.555 2.852 1.166 1.155 1.643 2.24 1.644 3.733.001 2.991-1.796 4.919-5.155 5.528-.668.121-2.702.21-3.278.144m9.284-5.769c-.002-2.165-.86-4.161-2.546-5.915a11.5 11.5 0 0 0-3.032-2.265c-.502-.26-1.82-.752-2.022-.754-.058 0-.106-.037-.106-.082 0-.061 6.373-7.701 11.905-14.273l.178-.21.423.14c.514.172 1.263.559 1.348.697.063.104.228-.097-8.104 9.927-1.293 1.556-2.35 2.847-2.351 2.87s.238.235.53.47c2.054 1.655 3.654 4.288 4.054 6.67.171 1.018.039 2.95-.22 3.227-.035.036-.057-.159-.057-.502" style="fill:#fff;fill-opacity:1"/></svg>