<svg xmlns="http://www.w3.org/2000/svg" xmlns:xlink="http://www.w3.org/1999/xlink" width="64" height="64"><defs><radialGradient xlink:href="#a" id="c" cx="21.477" cy="23.352" r="22" fx="21.477" fy="23.352" gradientTransform="matrix(5.24376 0 0 4.28655 -93.169 -54.972)" gradientUnits="userSpaceOnUse"/><radialGradient xlink:href="#b" id="d" cx="10.579" cy="16.252" r="16" fx="10.579" fy="16.252" gradientTransform="rotate(30 101.402 -17.85)scale(3.83514 3.59544)" gradientUnits="userSpaceOnUse"/><linearGradient id="b"><stop offset="0" style="stop-color:#1da3d7;stop-opacity:1"/><stop offset="1" style="stop-color:#1d6bd7;stop-opacity:1"/></linearGradient><linearGradient id="a"><stop offset="0" style="stop-color:#ededed;stop-opacity:1"/><stop offset="1" style="stop-color:#b7b7b7;stop-opacity:1"/></linearGradient></defs><path d="M12.75 4C11.226 4 10 5.249 10 6.8v50.4c0 1.551 1.227 2.8 2.75 2.8h38.5c1.523 0 2.75-1.249 2.75-2.8V20L38 4Z" style="fill:url(#c);fill-opacity:1"/><path d="M38 4v13.333A2.667 2.667 0 0 0 40.667 20H54Z" style="opacity:.593376;fill:#fff;fill-opacity:1"/><path d="M16 28.993v8.014A2.993 2.993 45 0 0 18.993 40h8.014A2.993 2.993 135 0 0 30 37.007v-8.014A2.993 2.993 45 0 0 27.007 26h-8.014A2.993 2.993 135 0 0 16 28.993m18 16v8.014A2.993 2.993 45 0 0 36.993 56h8.014A2.993 2.993 135 0 0 48 53.007v-8.014A2.993 2.993 45 0 0 45.007 42h-8.014A2.993 2.993 135 0 0 34 44.993" style="fill:url(#d)"/></svg>