<svg xmlns="http://www.w3.org/2000/svg" xmlns:xlink="http://www.w3.org/1999/xlink" width="64" height="64"><defs><radialGradient xlink:href="#a" id="b" cx="16.935" cy="49.154" r="22" fx="16.935" fy="49.154" gradientTransform="rotate(-15 -1771.875 790.705)scale(8.66244 11.02492)" gradientUnits="userSpaceOnUse"/><linearGradient id="a"><stop offset="0" style="stop-color:#00b1ff;stop-opacity:1"/><stop offset="1" style="stop-color:#4368c6;stop-opacity:1"/></linearGradient></defs><path d="M12.75 4C11.226 4 10 5.249 10 6.8v50.4c0 1.55 1.227 2.8 2.75 2.8h38.5c1.522 0 2.75-1.25 2.75-2.8V22L36 4Z" style="fill:url(#b)"/><path d="M54 22 36 4v15.188A2.806 2.806 0 0 0 38.813 22Z" style="fill:#fff;opacity:.3743819;fill-opacity:1"/><path d="M33.126 31.282 28.33 50.005a1.354 1.354 60.011 0 0 .946 1.64 1.29 1.29 149.91 0 0 1.599-.927l4.797-18.723a1.354 1.354 60.011 0 0-.946-1.64 1.29 1.29 149.91 0 0-1.599.927m3.874.291v1.417a2.4 2.4 65.629 0 0 .814 1.796l4.543 3.985a.97.97 90 0 1 0 1.458l-4.543 3.985A2.4 2.4 114.371 0 0 37 46.01v1.417a.73.73 24.863 0 0 1.2.556l7.771-6.584a2.296 2.296 90.536 0 0 .033-3.476l-7.823-6.884a.711.711 155.673 0 0-1.181.534m-10.88 2.2-7.941 6.99a2.506 2.506 89.464 0 0 .036 3.793l7.892 6.687a.543.543 155.137 0 0 .893-.414v-1.765a2.5 2.5 65.629 0 0-.854-1.886l-4.487-3.935a.988.988 90 0 1 0-1.486l4.487-3.935A2.5 2.5 114.371 0 0 27 35.936V34.17a.53.53 24.327 0 0-.88-.397" style="fill:#fff;fill-opacity:1"/></svg>