<svg xmlns="http://www.w3.org/2000/svg" xmlns:xlink="http://www.w3.org/1999/xlink" width="64" height="64"><defs><radialGradient xlink:href="#a" id="b" cx="20.238" cy="45.446" r="22" fx="20.238" fy="45.446" gradientTransform="rotate(-30 -198.014 154.066)scale(2.62906 3.34608)" gradientUnits="userSpaceOnUse"/><linearGradient id="a"><stop offset="0" style="stop-color:#00b1ff;stop-opacity:1"/><stop offset="1" style="stop-color:#136dff;stop-opacity:1"/></linearGradient></defs><path d="M12.71 3.939c-1.523 0-2.75 1.248-2.75 2.8v50.4c0 1.55 1.227 2.8 2.75 2.8h38.5c1.523 0 2.75-1.25 2.75-2.8v-35.2l-18-18z" style="fill:url(#b)"/><path d="m53.96 21.939-18-18v15.187a2.806 2.806 0 0 0 2.813 2.813z" style="fill:#fff;fill-opacity:1;opacity:.53330194"/><path d="M24 4v30h-4.6a4.4 4.4 135 0 0-4.4 4.4V43h-5v3h5v4.6a4.4 4.4 45 0 0 4.4 4.4H24v5h3v-5h4.6a4.4 4.4 135 0 0 4.4-4.4V46h18v-3H36v-4.6a4.4 4.4 45 0 0-4.4-4.4H27V4Zm-6 46.576V38.49A1.49 1.49 135 0 1 19.49 37h12.02A1.49 1.49 45 0 1 33 38.49v12.086A1.424 1.424 135 0 1 31.576 52H19.424A1.424 1.424 45 0 1 18 50.576m6-6.085v.018A1.49 1.49 45 0 0 25.49 46h.02A1.49 1.49 135 0 0 27 44.51v-.02A1.49 1.49 45 0 0 25.51 43h-.02A1.49 1.49 135 0 0 24 44.49" style="fill:#fff"/></svg>