<svg xmlns="http://www.w3.org/2000/svg" xmlns:xlink="http://www.w3.org/1999/xlink" width="64" height="64"><defs><radialGradient xlink:href="#a" id="b" cx="16.935" cy="49.154" r="22" fx="16.935" fy="49.154" gradientTransform="rotate(-15 -1771.875 790.705)scale(8.66244 11.02492)" gradientUnits="userSpaceOnUse"/><linearGradient id="a"><stop offset="0" style="stop-color:#00a8ff;stop-opacity:1"/><stop offset="1" style="stop-color:#07f;stop-opacity:1"/></linearGradient></defs><path d="M12.75 4C11.226 4 10 5.249 10 6.8v50.4c0 1.55 1.227 2.8 2.75 2.8h38.5c1.522 0 2.75-1.25 2.75-2.8V22L36 4Z" style="fill:url(#b)"/><path d="M54 22 36 4v15.188A2.806 2.806 0 0 0 38.813 22Z" style="opacity:.374382;fill:#fff;fill-opacity:1"/><path d="M32 26c-7.732 0-14 6.268-14 14s6.268 14 14 14 14-6.268 14-14-6.268-14-14-14m-5.887 10c1.655-.038 3.21 1.272 3.719 3.129.592 2.156-.422 4.293-2.262 4.773-1.84.483-3.81-.875-4.402-3.03-.59-2.156.423-4.29 2.262-4.77q.334-.091.683-.102m11.774 0q.349.01.683.102c1.839.48 2.852 2.614 2.262 4.77-.592 2.155-2.563 3.513-4.402 3.03-1.84-.48-2.854-2.617-2.262-4.773.51-1.857 2.064-3.167 3.719-3.129" style="fill:#ffdd89;fill-opacity:1"/></svg>