<svg xmlns="http://www.w3.org/2000/svg" xmlns:xlink="http://www.w3.org/1999/xlink" width="64" height="64"><defs><radialGradient xlink:href="#a" id="b" cx="20.238" cy="45.446" r="22" fx="20.238" fy="45.446" gradientTransform="rotate(-30 -198.014 154.066)scale(2.62906 3.34608)" gradientUnits="userSpaceOnUse"/><linearGradient id="a"><stop offset="0" style="stop-color:#00b1ff;stop-opacity:1"/><stop offset="1" style="stop-color:#136dff;stop-opacity:1"/></linearGradient></defs><path d="M12.71 3.939c-1.523 0-2.75 1.248-2.75 2.8v50.4c0 1.55 1.227 2.8 2.75 2.8h38.5c1.523 0 2.75-1.25 2.75-2.8v-35.2l-18-18z" style="fill:url(#b)" transform="translate(.04 .061)"/><path d="m53.96 21.939-18-18v15.187a2.806 2.806 0 0 0 2.813 2.813z" style="opacity:.533302;fill:#fff;fill-opacity:1" transform="translate(.04 .061)"/><path d="M19.4 27c-.775 0-1.4.595-1.4 1.334v5.332c0 .739.625 1.334 1.4 1.334h25.2c.775 0 1.4-.595 1.4-1.334v-5.332c0-.739-.625-1.334-1.4-1.334Zm.016 11c-.785 0-1.416.631-1.416 1.416v14.168c0 .785.631 1.416 1.416 1.416h14.168c.785 0 1.416-.631 1.416-1.416V39.416c0-.785-.631-1.416-1.416-1.416Zm19.918 0c-.739 0-1.334.631-1.334 1.416v14.168c0 .785.595 1.416 1.334 1.416h5.332c.739 0 1.334-.631 1.334-1.416V39.416c0-.785-.595-1.416-1.334-1.416Z" style="fill:#fff"/></svg>