<svg xmlns="http://www.w3.org/2000/svg" xmlns:xlink="http://www.w3.org/1999/xlink" width="64" height="64"><defs><radialGradient xlink:href="#a" id="b" cx="20.238" cy="45.446" r="22" fx="20.238" fy="45.446" gradientTransform="rotate(-30 -198.014 154.066)scale(2.62906 3.34608)" gradientUnits="userSpaceOnUse"/><linearGradient id="a"><stop offset="0" style="stop-color:#00b1ff;stop-opacity:1"/><stop offset="1" style="stop-color:#136dff;stop-opacity:1"/></linearGradient></defs><path d="M12.71 3.939c-1.523 0-2.75 1.248-2.75 2.8v50.4c0 1.55 1.227 2.8 2.75 2.8h38.5c1.523 0 2.75-1.25 2.75-2.8v-35.2l-18-18z" style="fill:url(#b)" transform="translate(.04 .061)"/><path d="m53.96 21.939-18-18v15.187a2.806 2.806 0 0 0 2.813 2.813z" style="opacity:.533302;fill:#fff;fill-opacity:1" transform="translate(.04 .061)"/><path d="M34.25 26.706c-3.678 6.026-6.594 11.404-8.478 17.433-.998 3.227-1.898 6.57-2.772 9.811 1.424.117 1.15-.01 2.25 0 .809-1.753 2.424-3.421 3.547-4.639 2.787-2.808 5.442-4.066 8.828-5.169.05-3.306-.2-6.585 1.185-9.485.567-1.205 1.456-2.498 2.19-3.592 0-3.27-3.375-6.539-6.75-4.36z" style="fill:#fff;fill-rule:evenodd"/></svg>