<svg xmlns="http://www.w3.org/2000/svg" xmlns:xlink="http://www.w3.org/1999/xlink" width="64" height="64"><defs><radialGradient xlink:href="#a" id="b" cx="17.222" cy="49.789" r="22" fx="17.222" fy="49.789" gradientTransform="rotate(-30 -188.055 143.776)scale(2.71047 3.44969)" gradientUnits="userSpaceOnUse"/><linearGradient id="a"><stop offset="0" style="stop-color:#656bff;stop-opacity:1"/><stop offset="1" style="stop-color:#a057ff;stop-opacity:1"/></linearGradient></defs><path d="M24.75 0C23.227 0 22 1.249 22 2.8v50.4c0 1.55 1.227 2.8 2.75 2.8h38.5c1.522 0 2.75-1.25 2.75-2.8V18L48 0Z" style="fill:url(#b)" transform="translate(-12 4)"/><path d="M66 18 48 0v15.188A2.806 2.806 0 0 0 50.813 18Z" style="opacity:.448535;fill:#fff;fill-opacity:1" transform="translate(-12 4)"/><path d="M28.098 29.075c-5.076.1-11.88 4.077-12.09 11.251-.134 4.597 1.342 9.55 9.23 9.674 2.381.038 5.262-2 5.262-2l1.5-8h-6.875L24 43h3l-.598 2.938s-1.637.201-2.474.167c-2.745-.11-3.974-2.814-3.953-5.109.037-4.22 4.076-7.977 8.78-8.027 2.162-.023 3.661 1.093 3.661 1.093l.658-4.136s-1.258-.924-4.976-.851M36 29l-3 20 9.234.068c2.447.014 6.66-3.079 6.793-6.923C49 40.3 46.5 38.5 46.5 38.5s2.474-1.894 2.473-4.502c-.003-2.955-4.267-4.93-5.125-4.93zm4 4 1.967.057s2.112-.06 2.133 1.537c-.119 2.305-1.804 2.47-2.78 2.459C40.447 37.043 39 37 39 37zm-1.346 7.928 3.219.072s2.1-.201 2.162 1.826c.051 1.688-1.59 2.161-2.435 2.174H38z" style="fill:#fff"/></svg>