<svg xmlns="http://www.w3.org/2000/svg" xmlns:xlink="http://www.w3.org/1999/xlink" width="64" height="64"><defs><radialGradient xlink:href="#a" id="b" cx="11.2" cy="52.256" r="22" fx="11.2" fy="52.256" gradientTransform="rotate(-15 -387.04 174.175)scale(2.4782 3.15406)" gradientUnits="userSpaceOnUse"/><linearGradient id="a"><stop offset="0" style="stop-color:#28a268;stop-opacity:1"/><stop offset="1" style="stop-color:#1fc327;stop-opacity:1"/></linearGradient></defs><path d="M12.75 4C11.226 4 10 5.249 10 6.8v50.4c0 1.55 1.227 2.8 2.75 2.8h38.5c1.522 0 2.75-1.25 2.75-2.8V22L36 4Z" style="fill:url(#b);fill-opacity:1"/><path d="M54 22 36 4v15.188A2.806 2.806 0 0 0 38.813 22Z" style="opacity:.537555;fill:#fff;fill-opacity:1"/><path d="m32 27-12 7v5.5l17.585 5.276L32 48l-7-4v-1l-5-1.5V47l12 7 12-7v-5.5l-17.585-5.275L32 33l7 4v1l5 1.5V34Z" style="fill:#fff"/></svg>