<svg xmlns="http://www.w3.org/2000/svg" xmlns:xlink="http://www.w3.org/1999/xlink" width="64" height="64"><defs><radialGradient xlink:href="#a" id="b" cx="13.03" cy="49.45" r="22" fx="13.03" fy="49.45" gradientTransform="rotate(-30 -182.435 148.68)scale(2.61531 3.32858)" gradientUnits="userSpaceOnUse"/><linearGradient id="a"><stop offset="0" style="stop-color:#f78330;stop-opacity:1"/><stop offset="1" style="stop-color:#e6664a;stop-opacity:1"/></linearGradient></defs><path d="M12.75 4C11.226 4 10 5.249 10 6.8v50.4c0 1.55 1.227 2.8 2.75 2.8h38.5c1.522 0 2.75-1.25 2.75-2.8V22L36 4Z" style="fill:url(#b)"/><path d="M54 22 36 4v15.188A2.806 2.806 0 0 0 38.813 22Z" style="opacity:.584913;fill:#fee;fill-opacity:1"/><path d="M24.146 25C18.473 24.997 13.68 26.816 10 29.631v5.51c3.008-3.113 7.403-5.283 13.008-5.368q.56-.008 1.138.01c8.68.3 14.457 7.202 14.465 14.37.012 7.916-4.896 13.323-13.17 13.22-5.633-.07-11.124-3.912-10.982-9.759.11-4.642 3.408-8.397 8.648-8.522 4.237-.099 5.942 2.816 5.942 4.619 0 1.71-1.014 3.914-3.506 4.444-2.014.428-4.863-1.676-2.711-4.546-2.2-.1-4.117 1.285-4.23 3.74-.22 4.756 4.728 6.604 7.889 6.098 5.798-.927 7.948-4.688 7.921-9.796-.028-5.345-4.883-10.073-11.178-10.136-5.038-.05-11.052 2.83-13.234 9.108v9.62c1.165 3.025 3.505 5.88 6.818 7.757H35.09c5.435-2.898 8.906-8.467 8.909-15.876C44.004 33.46 36.292 25.007 24.146 25" style="fill:#fff;fill-opacity:.68158394"/></svg>