<svg xmlns="http://www.w3.org/2000/svg" xmlns:xlink="http://www.w3.org/1999/xlink" width="64" height="64"><defs><radialGradient xlink:href="#a" id="b" cx="21.477" cy="23.352" r="22" fx="21.477" fy="23.352" gradientTransform="matrix(5.24376 0 0 4.28655 -93.169 -54.972)" gradientUnits="userSpaceOnUse"/><linearGradient id="a"><stop offset="0" style="stop-color:#494949;stop-opacity:1"/><stop offset="1" style="stop-color:#9c9c9c;stop-opacity:1"/></linearGradient></defs><path d="M12.75 4C11.226 4 10 5.249 10 6.8v50.4c0 1.551 1.227 2.8 2.75 2.8h38.5c1.523 0 2.75-1.249 2.75-2.8V20L38 4Z" style="fill:url(#b);fill-opacity:1"/><path d="M38 4v13.333A2.667 2.667 0 0 0 40.667 20H54Z" style="opacity:.36674;fill:#fff;fill-opacity:1"/><path d="m16 33 13 8 3-1 5 2h6l-17-9zm7 10-7 6h9l4-3z" style="fill:#fff;fill-opacity:1"/><path d="m38 33-4 3 6 3 8-6zm-18 7 16 9h12l-16-8-3 1-4-2z" style="fill:#fff;fill-opacity:1"/></svg>