<svg xmlns="http://www.w3.org/2000/svg" xmlns:xlink="http://www.w3.org/1999/xlink" width="64" height="64"><defs><radialGradient xlink:href="#a" id="b" cx="17.222" cy="49.789" r="22" fx="17.222" fy="49.789" gradientTransform="rotate(-30 -188.055 143.776)scale(2.71047 3.44969)" gradientUnits="userSpaceOnUse"/><linearGradient id="a"><stop offset="0" style="stop-color:#656bff;stop-opacity:1"/><stop offset="1" style="stop-color:#a057ff;stop-opacity:1"/></linearGradient></defs><path d="M24.75 0C23.227 0 22 1.249 22 2.8v50.4c0 1.55 1.227 2.8 2.75 2.8h38.5c1.522 0 2.75-1.25 2.75-2.8V18L48 0Z" style="fill:url(#b)" transform="translate(-12 4)"/><path d="M66 18 48 0v15.188A2.806 2.806 0 0 0 50.813 18Z" style="opacity:.448535;fill:#fff;fill-opacity:1" transform="translate(-12 4)"/><path d="M24.434 27.586a2.818 1.08 48.256 0 0-.317.125 2.818 1.08 48.256 0 0 1.098 2.834 2.818 1.08 48.256 0 0 2.67 1.357 2.818 1.08 48.256 0 0-1.096-2.836 2.818 1.08 48.256 0 0-2.355-1.48m14.115.393a1.03 2.683 45.54 0 0-2.252 1.304 1.03 2.683 45.54 0 0-1.162 2.602 1.03 2.683 45.54 0 0 2.65-1.176 1.03 2.683 45.54 0 0 1.162-2.602 1.03 2.683 45.54 0 0-.398-.128m7.603 4.033a1.033 2.762 64.498 0 0-2.129.595 1.033 2.762 64.498 0 0-2.003 2.118 1.033 2.762 64.498 0 0 2.966-.29 1.033 2.762 64.498 0 0 2.006-2.117 1.033 2.762 64.498 0 0-.84-.306M32.24 33.066c-5.051.078-12.133 3.72-12.24 8.598-.12 5.521 8.075 7.26 12.86 7.326 4.059.057 8.604-2.18 10.144-5.338.335-.686-.102-2.084-.149-2.85-.033-.557.227-1.112.17-1.667-.406-3.967-6.995-6.127-10.785-6.069m-16.23.485a2.801 1.086 31.888 0 0-.729.27 2.801 1.086 31.888 0 0 1.83 2.406 2.801 1.086 31.888 0 0 2.938.537 2.801 1.086 31.888 0 0-1.83-2.407 2.801 1.086 31.888 0 0-2.21-.806m15.66 4.428 2.533.054s-.333.752-.2 1.098c.207.531.81.885 1.354 1.017.393.096 1.038.177 1.194-.203.125-.305-.617-.49-.557-.814.07-.384.592-.78.953-.65 1.16.206 3.46.718 3.428 1.699-.123 3.814-4.815 5.339-7.727 5.283-2.933-.056-7.476-1.207-7.347-3.71.096-1.871 2.33-3.575 3.303-3.56.722.012.108 1.769 1.376 1.819.65.025 1.89-.03 1.832-.692-.046-.534-1.42.235-1.552-.285-.163-.643 1.41-1.056 1.41-1.056m15.707 1.976A2.785 1.092 4.01 0 0 45 40.87a2.785 1.092 4.01 0 0 2.705 1.283 2.785 1.092 4.01 0 0 2.852-.896 2.785 1.092 4.01 0 0-2.705-1.283 2.785 1.092 4.01 0 0-.475-.018m-18.734 2.078c-.267-.01-.447.048-.483.223-.197.968 2.406 1.577 3.637 1.668 2.937.217 5.219.164 5.176-.918-.032-.785-.65-.306-5.065-.29-.876.004-2.465-.65-3.265-.683m-13.202.93a1.092 2.785 87.257 0 0-.279.008 1.092 2.785 87.257 0 0-2.732 1.222 1.092 2.785 87.257 0 0 2.832.96 1.092 2.785 87.257 0 0 2.732-1.223 1.092 2.785 87.257 0 0-2.553-.967m28.366 4.973a2.802 1.086 32.06 0 0-.73.27 2.802 1.086 32.06 0 0 1.823 2.411 2.802 1.086 32.06 0 0 2.936.545 2.802 1.086 32.06 0 0-1.824-2.41 2.802 1.086 32.06 0 0-2.205-.816m-22.41 1.115a1.083 2.807 51.967 0 0-2.329 1.06 1.083 2.807 51.967 0 0-1.572 2.59 1.083 2.807 51.967 0 0 2.865-.851 1.083 2.807 51.967 0 0 1.57-2.592 1.083 2.807 51.967 0 0-.535-.207m15.11.957a2.838 1.072 69.658 0 0-.103.025 2.838 1.072 69.658 0 0-.006 3.047 2.838 1.072 69.658 0 0 1.99 2.27 2.838 1.072 69.658 0 0 .007-3.047 2.838 1.072 69.658 0 0-1.887-2.295m-7.01.023a1.074 2.833 26.155 0 0-2.03 2.094 1.074 2.833 26.155 0 0-.303 3.031 1.074 2.833 26.155 0 0 2.211-2.047 1.074 2.833 26.155 0 0 .303-3.03 1.074 2.833 26.155 0 0-.182-.048" style="fill:#ffee81;fill-opacity:1"/></svg>