<svg xmlns="http://www.w3.org/2000/svg" xmlns:xlink="http://www.w3.org/1999/xlink" width="64" height="64"><defs><radialGradient xlink:href="#a" id="b" cx="17.222" cy="49.789" r="22" fx="17.222" fy="49.789" gradientTransform="rotate(-30 -188.055 143.776)scale(2.71047 3.44969)" gradientUnits="userSpaceOnUse"/><linearGradient id="a"><stop offset="0" style="stop-color:#656bff;stop-opacity:1"/><stop offset="1" style="stop-color:#a057ff;stop-opacity:1"/></linearGradient></defs><path d="M24.75 0C23.227 0 22 1.249 22 2.8v50.4c0 1.55 1.227 2.8 2.75 2.8h38.5c1.522 0 2.75-1.25 2.75-2.8V18L48 0Z" style="fill:url(#b)" transform="translate(-12 4)"/><path d="M66 18 48 0v15.188A2.806 2.806 0 0 0 50.813 18Z" style="opacity:.448535;fill:#fff;fill-opacity:1" transform="translate(-12 4)"/><path d="M38 31.38v8.24A1.38 1.38 45 0 0 39.38 41h8.24A1.38 1.38 135 0 0 49 39.62v-8.24A1.38 1.38 45 0 0 47.62 30h-8.24A1.38 1.38 135 0 0 38 31.38m-14 14v8.24A1.38 1.38 45 0 0 25.38 55h8.24A1.38 1.38 135 0 0 35 53.62v-8.24A1.38 1.38 45 0 0 33.62 44h-8.24A1.38 1.38 135 0 0 24 45.38m14 0v8.24A1.38 1.38 45 0 0 39.38 55h8.24A1.38 1.38 135 0 0 49 53.62v-8.24A1.38 1.38 45 0 0 47.62 44h-8.24A1.38 1.38 135 0 0 38 45.38" style="fill:#fff"/></svg>