<svg xmlns="http://www.w3.org/2000/svg" xmlns:xlink="http://www.w3.org/1999/xlink" width="64" height="64"><defs><radialGradient xlink:href="#a" id="b" cx="21.477" cy="23.352" r="22" fx="21.477" fy="23.352" gradientTransform="matrix(5.24376 0 0 4.28655 -93.169 -54.972)" gradientUnits="userSpaceOnUse"/><linearGradient id="a"><stop offset="0" style="stop-color:#ededed;stop-opacity:1"/><stop offset="1" style="stop-color:#b7b7b7;stop-opacity:1"/></linearGradient></defs><path d="M12.75 4C11.226 4 10 5.249 10 6.8v50.4c0 1.551 1.227 2.8 2.75 2.8h38.5c1.523 0 2.75-1.249 2.75-2.8V20L38 4Z" style="fill:url(#b);fill-opacity:1"/><path d="M38 4v13.333A2.667 2.667 0 0 0 40.667 20H54Z" style="opacity:.593376;fill:#fff;fill-opacity:1"/><path d="M39.405 33A1.495 1.495 0 0 0 38 34.5c0 .828.667 1.5 1.484 1.5.85 0 1.516-.658 1.516-1.5 0-.841-.666-1.5-1.516-1.5zm6 0A1.495 1.495 0 0 0 44 34.5c0 .828.666 1.5 1.484 1.5.85 0 1.516-.658 1.516-1.5 0-.841-.666-1.5-1.516-1.5zM26 34c-.947 0-1.614.478-1.938 1.563-.323 1.083-2.316 8.714-2.316 8.714L19.14 34H16s3.016 10.962 3.426 12.219C19.744 47.199 20.5 48 21.62 48c1.28 0 1.879-.927 2.156-1.781.274-.849 2.223-8.02 2.223-8.02s1.952 7.171 2.226 8.02c.277.854.877 1.781 2.156 1.781 1.12 0 1.875-.8 2.195-1.781C32.987 44.962 36 34 36 34h-3.14l-2.606 10.277s-1.992-7.631-2.316-8.714c-.324-1.085-.991-1.562-1.937-1.562m12 3v11h2.999V37Zm5.999 0v11h3V37Z" style="fill:#908f94"/></svg>