<svg xmlns="http://www.w3.org/2000/svg" xmlns:xlink="http://www.w3.org/1999/xlink" width="64" height="64"><defs><radialGradient xlink:href="#a" id="b" cx="20.238" cy="45.446" r="22" fx="20.238" fy="45.446" gradientTransform="rotate(-30 -198.014 154.066)scale(2.62906 3.34608)" gradientUnits="userSpaceOnUse"/><linearGradient id="a"><stop offset="0" style="stop-color:#00b1ff;stop-opacity:1"/><stop offset="1" style="stop-color:#136dff;stop-opacity:1"/></linearGradient></defs><path d="M12.71 3.939c-1.523 0-2.75 1.248-2.75 2.8v50.4c0 1.55 1.227 2.8 2.75 2.8h38.5c1.523 0 2.75-1.25 2.75-2.8v-35.2l-18-18z" style="fill:url(#b)" transform="translate(.04 .061)"/><path d="m53.96 21.939-18-18v15.187a2.806 2.806 0 0 0 2.813 2.813z" style="opacity:.533302;fill:#fff;fill-opacity:1" transform="translate(.04 .061)"/><path d="M27.23 30c-.426.042-.446.03-.496.55-.08 7.182-1.795 14.125-6.298 17.436-.5.318-.554.32-.245.851l1.56 2.694c.286.663.427.492.888.188 3.108-2.118 4.793-4.908 5.788-8.331.336-1.155.48-2.382.573-3.685v11.642c-.031.627.023.642.619.642h5c.618.067.381-.123.381-.682V40.98c.097.833.25 1.639.473 2.409.996 3.423 2.78 6.213 5.888 8.33.46.305.602.476.888-.187l1.56-2.694c.309-.532.254-.533-.245-.851-4.503-3.311-6.217-10.254-6.298-17.435-.002-.444-.07-.558-.496-.55z" style="fill:#fff"/></svg>