<svg xmlns="http://www.w3.org/2000/svg" xmlns:xlink="http://www.w3.org/1999/xlink" width="64" height="64"><defs><radialGradient xlink:href="#a" id="b" cx="13.687" cy="51.763" r="22" fx="13.687" fy="51.763" gradientTransform="rotate(-30 -182.789 152.287)scale(2.55216 3.2482)" gradientUnits="userSpaceOnUse"/><linearGradient id="a"><stop offset="0" style="stop-color:#005e6a;stop-opacity:1"/><stop offset="1" style="stop-color:#003a6a;stop-opacity:1"/></linearGradient></defs><path d="M12.75 4C11.227 4 10 5.249 10 6.8v50.4c0 1.55 1.227 2.8 2.75 2.8h38.5c1.522 0 2.75-1.25 2.75-2.8V22L36 4Z" style="fill:url(#b)"/><path d="M54 22 36 4v15.188A2.806 2.806 0 0 0 38.813 22Z" style="opacity:.523832;fill:#fff;fill-opacity:1"/><path d="M30.171 28c-.86 0-1.934.385-3.029 1.059.78.189 1.46.728 1.818 1.472a.43.43 0 0 1-.201.574.425.425 0 0 1-.571-.197 1.84 1.84 0 0 0-2.327-.936c-.023.01-.051.013-.077.034a1.88 1.88 0 0 0-.86 2.684c1.89.122 3.391 1.712 3.391 3.653a.433.433 0 0 1-.428.436.433.433 0 0 1-.428-.436c0-1.544-1.243-2.796-2.77-2.796-1.53 0-2.775 1.252-2.775 2.796 0 .361.069.717.205 1.055a.43.43 0 0 1-.124.492A2.81 2.81 0 0 0 21 40.041c0 1.545 1.247 2.8 2.774 2.8.237 0 .425.19.425.429a.43.43 0 0 1-.425.436 3.6 3.6 0 0 1-2.396-.917 2.8 2.8 0 0 0-.374 1.405 2.8 2.8 0 0 0 1.647 2.558.43.43 0 0 1 .243.48c-.041.216-.061.441-.061.66 0 1.47.981 2.762 2.388 3.143a.43.43 0 0 1 .266.217A3.22 3.22 0 0 0 28.342 53c1.78 0 3.23-1.464 3.23-3.262 0-1.47-.986-2.765-2.392-3.146a.43.43 0 0 1 .227-.832c.885.24 1.631.76 2.165 1.454V36.81c0-.78-.625-1.416-1.397-1.416a.43.43 0 0 1-.432-.43c0-.238.195-.435.432-.435.527 0 1.012.185 1.397.492v-5.6c0-.78-.625-1.416-1.397-1.416zm3.658 0c-.77 0-1.397.64-1.397 1.42v3.75c.385-.307.87-.491 1.397-.491.237 0 .432.197.432.436a.43.43 0 0 1-.432.429c-.77 0-1.397.641-1.397 1.42v14.293q0 .061-.015.116c.01.12.015.237.015.361 0 1.798 1.446 3.262 3.226 3.262a3.22 3.22 0 0 0 2.859-1.744.43.43 0 0 1 .266-.217 3.26 3.26 0 0 0 2.323-3.802.434.434 0 0 1 .247-.481A2.8 2.8 0 0 0 43 44.194c0-.502-.123-.98-.37-1.405a3.6 3.6 0 0 1-2.4.917.433.433 0 0 1-.429-.436.43.43 0 0 1 .429-.433c1.529 0 2.77-1.255 2.77-2.8 0-.83-.363-1.612-.995-2.147a.44.44 0 0 1-.12-.495c.136-.338.2-.691.2-1.052 0-1.544-1.243-2.8-2.77-2.8-1.529 0-2.766 1.256-2.766 2.8a.437.437 0 0 1-.432.436.437.437 0 0 1-.432-.436c0-1.94 1.502-3.535 3.395-3.657a1.9 1.9 0 0 0 .262-.962c0-.773-.463-1.434-1.122-1.722-.026-.008-.054-.013-.078-.034a1.85 1.85 0 0 0-2.33.94.413.413 0 0 1-.567.201.435.435 0 0 1-.197-.578 2.73 2.73 0 0 1 1.813-1.469c-1.092-.673-2.173-1.058-3.032-1.058zm6.4 7.449v.01c.238 0 .433.198.433.437a3.65 3.65 0 0 1-3.156 3.627A1.86 1.86 0 0 0 39.316 41h.003c.237 0 .429.19.429.428a.433.433 0 0 1-.429.437c-1.357 0-2.488-1.017-2.685-2.334a3.58 3.58 0 0 1-2.192-1.078.434.434 0 0 1 .008-.611c.17-.176.44-.17.606 0a2.72 2.72 0 0 0 1.975.839c1.53 0 2.77-1.252 2.77-2.796 0-.239.192-.436.429-.436zm-15.533.45a.43.43 0 0 1 .425.437c0 1.544 1.247 2.8 2.774 2.8.746 0 1.45-.3 1.975-.843a.43.43 0 0 1 .602 0 .44.44 0 0 1 .008.615 3.57 3.57 0 0 1-2.192 1.078c-.197 1.318-1.322 2.33-2.681 2.33a.433.433 0 0 1 0-.87c.887 0 1.631-.63 1.813-1.472-1.778-.234-3.16-1.775-3.16-3.634 0-.239.195-.437.432-.437zm9.133 6.476.004.008c1.999 0 3.627 1.643 3.627 3.664v.064c.158-.014.32-.037.486-.037a.43.43 0 0 1 .428.432.43.43 0 0 1-.428.432c-1.53 0-2.77 1.26-2.77 2.804a.43.43 0 0 1-.433.429.424.424 0 0 1-.424-.43c0-1.536.935-2.855 2.265-3.4a3 3 0 0 0 .015-.297c0-1.544-1.243-2.8-2.77-2.8a.427.427 0 0 1-.424-.433.43.43 0 0 1 .424-.436zm-5.024.925a.43.43 0 0 1 .432.428.437.437 0 0 1-.432.437c-1.529 0-2.77 1.255-2.77 2.8q0 .145.015.294a3.68 3.68 0 0 1 2.273 3.4.437.437 0 0 1-.432.436.433.433 0 0 1-.428-.436c0-1.544-1.244-2.8-2.77-2.8a.433.433 0 0 1-.429-.436.43.43 0 0 1 .428-.433c.164 0 .326.017.487.038v-.064c0-2.021 1.625-3.664 3.626-3.664" style="fill:#fff"/></svg>