<svg xmlns="http://www.w3.org/2000/svg" xmlns:xlink="http://www.w3.org/1999/xlink" width="64" height="64"><defs><radialGradient xlink:href="#a" id="b" cx="21.477" cy="23.352" r="22" fx="21.477" fy="23.352" gradientTransform="matrix(5.24376 0 0 4.28655 -97.169 -39.972)" gradientUnits="userSpaceOnUse"/><linearGradient id="a"><stop offset="0" style="stop-color:#ededed;stop-opacity:1"/><stop offset="1" style="stop-color:#b7b7b7;stop-opacity:1"/></linearGradient></defs><path d="M8.75 19C7.226 19 6 20.249 6 21.8v50.4C6 73.751 7.226 75 8.75 75h38.5c1.523 0 2.75-1.249 2.75-2.8V35L34 19Z" style="fill:url(#b);fill-opacity:1" transform="translate(4 -15)"/><path d="M34 19v13.333A2.667 2.667 0 0 0 36.667 35H50Z" style="opacity:.593376;fill:#fff;fill-opacity:1" transform="translate(4 -15)"/><rect width="18" height="18" x="27" y="35" rx="1.385" ry="1.385" style="fill:#1190e6"/><rect width="18" height="18" x="23" y="31" rx="1.385" ry="1.385" style="fill:#6eca60"/><rect width="18" height="18" x="19" y="27" rx="1.385" ry="1.385" style="fill:#feb03e;fill-opacity:1"/></svg>