<svg xmlns="http://www.w3.org/2000/svg" xmlns:xlink="http://www.w3.org/1999/xlink" width="64" height="64"><defs><radialGradient xlink:href="#a" id="b" cx="12.125" cy="52.623" r="22" fx="12.125" fy="52.623" gradientTransform="rotate(-30 -198.808 152.981)scale(2.62906 3.34608)" gradientUnits="userSpaceOnUse"/><linearGradient id="a"><stop offset="0" style="stop-color:#6426ff;stop-opacity:1"/><stop offset="1" style="stop-color:#9048f1;stop-opacity:1"/></linearGradient></defs><path d="M13.146 3.396c-1.524 0-2.75 1.249-2.75 2.8v50.4c0 1.55 1.226 2.8 2.75 2.8h38.5c1.522 0 2.75-1.25 2.75-2.8v-35.2l-18-18z" style="fill:url(#b)"/><path d="m54.396 21.396-18-18v15.187a2.806 2.806 0 0 0 2.812 2.813z" style="fill:#fefefe;fill-opacity:1;opacity:.3511091"/><path d="M37.52 29.494c9.626 2.75-1.644 6.875 7.98 11m-7.98 11c9.626-2.75-1.644-6.875 7.98-11m-19-11c-9.625 2.75 1.645 6.875-7.98 11m7.98 11c-9.625-2.75 1.645-6.875-7.98-11" style="fill:none;stroke:#fff;stroke-width:3;stroke-linecap:round"/></svg>