<svg xmlns="http://www.w3.org/2000/svg" width="64" height="64"><path d="M32 5c13.296 0 24 19.015 24 32.2S45.296 61 32 61 8 50.385 8 37.2 18.704 5 32 5" style="opacity:.2"/><path d="M32 4c13.296 0 24 19.015 24 32.2S45.296 60 32 60 8 49.385 8 36.2 18.704 4 32 4" style="fill:#e4e4e4"/><path d="M44.824 11.089A8 8 0 0 0 38 18.999a8 8 0 0 0 8 8 8 8 0 0 0 6.809-3.816c-1.947-4.527-4.69-8.818-7.985-12.094M16 16.999a8 8 0 0 0-1.664.195A43.2 43.2 0 0 0 9.14 29.09 8 8 0 0 0 16 32.999a8 8 0 0 0 8-8 8 8 0 0 0-8-8m24 16a8 8 0 0 0-8 8 8 8 0 0 0 8 8 8 8 0 0 0 8-8 8 8 0 0 0-8-8m-28 6a8 8 0 0 0-3.828 1 23.6 23.6 0 0 0 7.11 14.293A8 8 0 0 0 20 46.999a8 8 0 0 0-8-8" style="opacity:.1"/><circle cx="40" cy="40" r="8" style="fill:#f14545"/><path d="M12 38a8 8 0 0 0-3.828 1 23.6 23.6 0 0 0 7.11 14.293A8 8 0 0 0 20 46a8 8 0 0 0-8-8" style="fill:#f0ac00"/><path d="M16 16a8 8 0 0 0-1.664.195A43.2 43.2 0 0 0 9.14 28.09 8 8 0 0 0 16 32a8 8 0 0 0 8-8 8 8 0 0 0-8-8" style="fill:#4d9ef4"/><path d="M44.824 10.09A8 8 0 0 0 38 18a8 8 0 0 0 8 8 8 8 0 0 0 6.809-3.816c-1.947-4.527-4.69-8.818-7.985-12.094" style="fill:#64b01c"/><path d="M32 4C18.704 4 8 23.014 8 36.2c0 .171.007.342.012.513C8.267 23.552 18.865 5 32 5s23.733 18.552 23.988 31.713c.005-.171.012-.342.012-.514C56 23.014 45.296 4 32 4" style="opacity:.2;fill:#fff"/></svg>