<svg xmlns="http://www.w3.org/2000/svg" xmlns:xlink="http://www.w3.org/1999/xlink" width="64" height="64"><defs><radialGradient xlink:href="#a" id="b" cx="16.935" cy="49.154" r="22" fx="16.935" fy="49.154" gradientTransform="rotate(-15 -1771.875 790.705)scale(8.66244 11.02492)" gradientUnits="userSpaceOnUse"/><linearGradient id="a"><stop offset="0" style="stop-color:#a200ff;stop-opacity:1"/><stop offset="1" style="stop-color:#c67a43;stop-opacity:1"/></linearGradient></defs><path d="M12.75 4C11.226 4 10 5.249 10 6.8v50.4c0 1.55 1.227 2.8 2.75 2.8h38.5c1.522 0 2.75-1.25 2.75-2.8V22L36 4Z" style="fill:url(#b)"/><path d="M54 22 36 4v15.188A2.806 2.806 0 0 0 38.813 22Z" style="opacity:.374382;fill:#fff;fill-opacity:1"/><path d="M39 27c-7.732 0-14 6.268-14 14s6.268 14 14 14h15v-2H39c-6.627 0-12-5.373-12-12s5.373-12 12-12Z" style="fill:#fff;opacity:.86119072"/><path d="M39 31c-5.523 0-10 4.477-10 10s4.477 10 10 10h15v-2H39a8 8 0 1 1 0-16 8 8 0 0 1 2 .266V31.21A10 10 0 0 0 39 31" style="fill:#fff;fill-opacity:1;opacity:.6779449"/><path d="M39 35a6 6 0 0 0 0 12h15v-2H39a4 4 0 1 1 0-8 4 4 0 0 1 2.639 1h2.55A6 6 0 0 0 39 35" style="fill:#fff;fill-opacity:1;opacity:.44475168"/></svg>