<svg xmlns="http://www.w3.org/2000/svg" xmlns:xlink="http://www.w3.org/1999/xlink" width="64" height="64"><defs><filter id="j" width="1.617" height="1.229" x="-.309" y="-.114" style="color-interpolation-filters:sRGB"><feGaussianBlur stdDeviation="1.086"/></filter><filter id="i" width="1.49" height="1.258" x="-.245" y="-.129" style="color-interpolation-filters:sRGB"><feGaussianBlur stdDeviation=".871"/></filter><filter id="f" width="1.292" height="1.083" x="-.146" y="-.042" style="color-interpolation-filters:sRGB"><feGaussianBlur stdDeviation=".284"/></filter><filter id="e" width="1.199" height="1.167" x="-.1" y="-.083" style="color-interpolation-filters:sRGB"><feGaussianBlur stdDeviation="1.837"/></filter><radialGradient xlink:href="#a" id="h" cx="31.947" cy="39.464" r="4.469" fx="31.947" fy="39.464" gradientTransform="matrix(4.60358 0 0 5.06432 -64.583 -162.029)" gradientUnits="userSpaceOnUse"/><radialGradient xlink:href="#b" id="g" cx="31.947" cy="39.464" r="4.469" fx="31.947" fy="39.464" gradientTransform="matrix(4.60358 0 0 5.06432 -64.583 -166.208)" gradientUnits="userSpaceOnUse"/><radialGradient xlink:href="#c" id="d" cx="1.069" cy="66.393" r="28" fx="1.069" fy="66.393" gradientTransform="matrix(0 2.28563 -2.28674 0 202.419 -12.227)" gradientUnits="userSpaceOnUse"/><linearGradient id="a"><stop offset="0" style="stop-color:#80f8bd;stop-opacity:1"/><stop offset="1" style="stop-color:#b1ffd9;stop-opacity:1"/></linearGradient><linearGradient id="b"><stop offset="0" style="stop-color:#006f39;stop-opacity:1"/><stop offset="1" style="stop-color:#00582d;stop-opacity:1"/></linearGradient><linearGradient id="c"><stop offset="0" style="stop-color:#15f19f;stop-opacity:1"/><stop offset="1" style="stop-color:#1cbf6d;stop-opacity:1"/></linearGradient></defs><path d="M71.903-5.383h20.931A12.354 12.354 0 0 1 105.24 7.022v29.912A12.354 12.354 0 0 1 92.834 49.34h-20.93a12.354 12.354 0 0 1-12.406-12.406V7.022A12.354 12.354 0 0 1 71.903-5.383" class="st5" style="fill:url(#d);fill-opacity:1;stroke-width:1.37842" transform="translate(-50.43 10.08)"/><path d="M71.965-5.441h20.93a12.354 12.354 0 0 1 12.406 12.406v29.911a12.354 12.354 0 0 1-12.406 12.406h-20.93a12.354 12.354 0 0 1-12.406-12.406V6.965A12.354 12.354 0 0 1 71.965-5.441z" class="st5" style="fill:none;fill-opacity:1;stroke:#000;stroke-width:.3;stroke-dasharray:none;stroke-opacity:1;filter:url(#e)" transform="translate(-50.43 10.08)"/><path d="M77.92-5.308h8.936V18.82H77.92z" style="opacity:.187567;stroke-width:.893646" transform="translate(-50.43 10.08)"/><path d="M32.625 7.452h1.348zm-1.332 0h-1.349a.666.666 135 0 0-.666.666v1.349a.666.666 45 0 0 .666.666h1.349a.666.666 135 0 0 .666-.666V8.118a.666.666 45 0 0-.666-.666m.666 3.347v1.35a.666.666 45 0 0 .666.666h1.348a.666.666 135 0 0 .666-.666v-1.35a.666.666 45 0 0-.666-.666h-1.348a.666.666 135 0 0-.666.666m-.666 2.016h-1.349a.666.666 135 0 0-.666.666v1.348a.666.666 45 0 0 .666.666h1.349a.666.666 135 0 0 .666-.666v-1.348a.666.666 45 0 0-.666-.666m.666 3.346v1.348a.666.666 45 0 0 .666.666h1.348a.666.666 135 0 0 .666-.666v-1.348a.666.666 45 0 0-.666-.666h-1.348a.666.666 135 0 0-.666.666m-.666 2.014h-1.349a.666.666 135 0 0-.666.666v1.35a.666.666 45 0 0 .666.667h1.349a.666.666 135 0 0 .666-.666v-1.35a.666.666 45 0 0-.666-.667m.666 3.348v1.349a.666.666 45 0 0 .666.666h1.348a.666.666 135 0 0 .666-.666v-1.349a.666.666 45 0 0-.666-.665h-1.348a.666.666 135 0 0-.666.665m-.666 2.015h-1.349a.666.666 135 0 0-.666.666v1.348a.666.666 45 0 0 .666.666h1.349a.666.666 135 0 0 .666-.666v-1.348a.666.666 45 0 0-.666-.666" style="fill:#fff;stroke-width:.893646" transform="translate(0 -1.836)"/><path d="M31.293 7.452h-1.349a.666.666 135 0 0-.666.666v1.349a.666.666 45 0 0 .666.666h1.349a.666.666 135 0 0 .666-.666V8.118a.666.666 45 0 0-.666-.666Zm.666 3.347v1.35a.666.666 45 0 0 .666.666h1.348a.666.666 135 0 0 .666-.666v-1.35a.666.666 45 0 0-.666-.666h-1.348a.666.666 135 0 0-.666.666zm-.666 2.016h-1.349a.666.666 135 0 0-.666.666v1.348a.666.666 45 0 0 .666.666h1.349a.666.666 135 0 0 .666-.666v-1.348a.666.666 45 0 0-.666-.666zm.666 3.346v1.348a.666.666 45 0 0 .666.666h1.348a.666.666 135 0 0 .666-.666v-1.348a.666.666 45 0 0-.666-.666h-1.348a.666.666 135 0 0-.666.666Zm-.666 2.014h-1.349a.666.666 135 0 0-.666.666v1.35a.666.666 45 0 0 .666.667h1.349a.666.666 135 0 0 .666-.666v-1.35a.666.666 45 0 0-.666-.667zm.666 3.348v1.349a.666.666 45 0 0 .666.666h1.348a.666.666 135 0 0 .666-.666v-1.349a.666.666 45 0 0-.666-.665h-1.348a.666.666 135 0 0-.666.665zm-.666 2.015h-1.349a.666.666 135 0 0-.666.666v1.348a.666.666 45 0 0 .666.666h1.349a.666.666 135 0 0 .666-.666v-1.348a.666.666 45 0 0-.666-.666z" style="mix-blend-mode:normal;fill:none;stroke:#00a15f;stroke-width:.2;stroke-dasharray:none;stroke-opacity:1;filter:url(#f)" transform="translate(0 -1.836)"/><path d="M82.05 13.79c-2.31 0-4.173 1.879-4.173 4.21v4.551h8.938V18c0-2.331-1.862-4.21-4.172-4.21z" style="fill:url(#g);fill-opacity:1;stroke-width:.893646" transform="translate(-50.43 10.08)"/><path d="M82.05 18.817c-2.31 0-4.173 1.878-4.173 4.21v8.558c0 2.331 1.862 4.212 4.173 4.212h.593c2.31 0 4.172-1.88 4.172-4.212v-8.559c0-2.33-1.862-4.21-4.172-4.21zm.297 10.155a2.355 2.355 0 1 1-.003 4.71 2.355 2.355 0 0 1 .003-4.71" style="fill:url(#h);fill-opacity:1;stroke-width:.893646" transform="translate(-50.43 10.08)"/><path d="M82.05 18.817c-2.31 0-4.173 1.878-4.173 4.21v8.558c0 2.331 1.862 4.212 4.173 4.212h.593c2.31 0 4.172-1.88 4.172-4.212v-8.559c0-2.33-1.862-4.21-4.172-4.21zm.297 10.155a2.355 2.355 0 1 1-.003 4.71 2.355 2.355 0 0 1 .003-4.71z" style="fill:none;fill-opacity:1;stroke:#005f38;stroke-width:.2;stroke-dasharray:none;stroke-opacity:1;filter:url(#i)" transform="translate(-50.43 10.08)"/><path d="M27.84 7.082v22.451c.014-.003.029-.001.043-.006l.006-.002.004-.002a.4.4 0 0 0 .105-.058 1 1 0 0 0 .094-.084q0-.002.002-.004a1 1 0 0 0 .1-.127q.002-.003.005-.006a2 2 0 0 0 .073-.117l.004-.01c.05-.088.099-.192.148-.3q.043-.095.086-.198c.034-.082.069-.161.103-.25l.004-.012.012-.03c.09-.229.185-.478.29-.733l.071-.176q.05-.113.102-.227c.045-.102.087-.203.137-.304q.06-.122.125-.243l.007-.015q.068-.125.141-.246v-1.565h2.348l.146-.004h.039v-2.529h-2.533V19.75h2.533v-2.533h-2.533v-2.533h2.533v-2.536h-2.533V9.615h2.533V7.082Zm6.756 0v2.533h-2.533v2.533h2.533v2.536h-2.533v2.533h2.533v2.533h-2.533v2.535h2.533v2.533h-2.453q.095.006.187.018l.055.004.011.002q.045.007.088.015.12.021.233.051l.013.002q.096.026.186.059c2.28.795 2.385 4.576 3.33 4.576v.342h.041V7.082Z" style="opacity:.187567;mix-blend-mode:normal;fill:none;stroke-width:.3;filter:url(#j)" transform="translate(-1.898 -2.779)scale(1.05803)"/></svg>