<svg xmlns="http://www.w3.org/2000/svg" xmlns:xlink="http://www.w3.org/1999/xlink" width="64" height="64"><defs><radialGradient xlink:href="#a" id="b" cx="17.222" cy="49.789" r="22" fx="17.222" fy="49.789" gradientTransform="rotate(-30 -186.59 168.168)scale(2.71047 3.44969)" gradientUnits="userSpaceOnUse"/><linearGradient id="a"><stop offset="0" style="stop-color:#d15d92;stop-opacity:1"/><stop offset="1" style="stop-color:#e43f4d;stop-opacity:1"/></linearGradient></defs><path d="M12.75 4C11.226 4 10 5.249 10 6.8v50.4c0 1.55 1.227 2.8 2.75 2.8h38.5c1.522 0 2.75-1.25 2.75-2.8V22L36 4Z" style="fill:url(#b)"/><path d="M54 22 36 4v15.188A2.806 2.806 0 0 0 38.813 22Z" style="fill:#fff;fill-opacity:1;opacity:.49931893"/><path d="M22.727 27s1.724 5.556.671 9.119S17 43.693 17 43.693s6.99.38 9.643 2.076S31.994 54 31.994 54s3.583-7.2 5.082-8.23c1.5-1.03 9.924-2.086 9.924-2.086s-6.16-5.796-6.684-7.414c-.523-1.617.96-9.265.96-9.265s-5.545 3.746-9.438 3.746S22.727 27 22.727 27m13.52 6.996c-.087 1.034-.296 1.771.265 3.504.623 1.925 1.26 2.299 2.013 3.191.092.109.206.217.301.326-.168.039-.35.064-.514.104-1.153.28-1.948.283-3.501 1.351-1.554 1.068-1.847 1.835-2.489 2.797-.082.124-.154.264-.236.39-.799-1.166-1.788-2.302-3.29-3.26-1.157-.74-2.307-1.15-3.439-1.468.753-1.05 1.447-2.222 1.877-3.68.335-1.132.38-2.188.42-3.232 1.262.417 2.64.73 4.184.73 1.618 0 3.083-.31 4.408-.753" style="fill:#fff;fill-rule:evenodd;fill-opacity:1"/></svg>