<svg xmlns="http://www.w3.org/2000/svg" xmlns:xlink="http://www.w3.org/1999/xlink" width="64" height="64"><defs><radialGradient xlink:href="#a" id="b" cx="13.687" cy="51.763" r="22" fx="13.687" fy="51.763" gradientTransform="rotate(-30 -184.655 151.787)scale(2.55216 3.2482)" gradientUnits="userSpaceOnUse"/><linearGradient id="a"><stop offset="0" style="stop-color:#ff9e22;stop-opacity:1"/><stop offset="1" style="stop-color:#ff6122;stop-opacity:1"/></linearGradient></defs><path d="M12.75 3C11.226 3 10 4.249 10 5.8v50.4c0 1.55 1.226 2.8 2.75 2.8h38.5c1.522 0 2.75-1.25 2.75-2.8V21L36 3z" style="fill:url(#b)" transform="translate(0 1)"/><path d="M54 21 36 3v15.188A2.806 2.806 0 0 0 38.812 21z" style="opacity:.523832;fill:#fff;fill-opacity:1" transform="translate(0 1)"/><path d="M30.625 25 23.75 46.75 19.518 33H10v4h6.96l6.79 19.375 6.875-22 4.125 13.75L40.25 33l4.125 14H54v-4h-6.875L40.25 26.124l-5.5 11z" style="fill:#fff"/></svg>