<svg xmlns="http://www.w3.org/2000/svg" width="64" height="64"><path d="M12.75 5C11.227 5 10 6.249 10 7.8v50.4c0 1.55 1.227 2.8 2.75 2.8h38.5c1.522 0 2.75-1.25 2.75-2.8V23l-14-4-4-14z" style="opacity:.2"/><path d="M12.75 4C11.227 4 10 5.249 10 6.8v50.4c0 1.55 1.227 2.8 2.75 2.8h38.5c1.522 0 2.75-1.25 2.75-2.8V22l-14-4-4-14z" style="fill:#0552a7"/><path d="M30 26v6h-6v6h-6v6h6v6h6v6h6v-6h6v-6h6v-6h-6v-6h-6v-6zM54 23 36 5v15.188A2.806 2.806 0 0 0 38.813 23z" style="opacity:.2"/><path d="M54 22 36 4v15.188A2.806 2.806 0 0 0 38.813 22z" style="fill:#096eda"/><path d="M12.75 4C11.226 4 10 5.25 10 6.8v1C10 6.25 11.226 5 12.75 5H36V4Z" style="fill:#fff;opacity:.2"/><path d="m20 38 12-12 12 12-12 12z" style="fill:#fff1e8"/><path d="M29 23h6v6h-6z" style="fill:#ff004d"/><path d="M23 29h6v6h-6z" style="fill:#ffa300"/><path d="M35 29h6v6h-6z" style="fill:#fca"/><path d="M17 35h6v6h-6z" style="fill:#ffec27"/><path d="M41 35h6v6h-6z" style="fill:#ff77a8"/><path d="M23 41h6v6h-6z" style="fill:#00e436"/><path d="M29 47h6v6h-6z" style="fill:#29adff"/><path d="M35 41h6v6h-6z" style="fill:#83769c"/><path d="M29 23v1h6v-1zm-6 6v1h6v-1zm12 0v1h6v-1zm-18 6v1h6v-1zm24 0v1h6v-1z" style="fill:#fff;opacity:.2"/></svg>