<svg xmlns="http://www.w3.org/2000/svg" xmlns:xlink="http://www.w3.org/1999/xlink" width="64" height="64"><defs><radialGradient xlink:href="#a" id="b" cx="17.386" cy="47.039" r="22" fx="17.386" fy="47.039" gradientTransform="rotate(-45 -113.287 148.239)scale(2.8598 3.63975)" gradientUnits="userSpaceOnUse"/><linearGradient id="a"><stop offset="0" style="stop-color:#ffa12d;stop-opacity:1"/><stop offset="1" style="stop-color:#fadb6a;stop-opacity:1"/></linearGradient></defs><path d="M12.75 4C11.226 4 10 5.249 10 6.8v50.4c0 1.55 1.227 2.8 2.75 2.8h38.5c1.522 0 2.75-1.25 2.75-2.8V22L36 4Z" style="fill:url(#b)"/><path d="M54 22 36 4v15.188A2.806 2.806 0 0 0 38.813 22Z" style="opacity:.457139;fill:#fff;fill-opacity:1"/><path d="m30.955 27.042-11.91 11.912A.613.613 67.496 0 0 19.48 40h1.616a.905.905 45 0 1 .905.905v11.109A1.986 1.986 45 0 0 23.986 54h16.028A1.986 1.986 135 0 0 42 52.014V40.905a.905.905 135 0 1 .905-.905h1.616a.613.613 112.5 0 0 .433-1.046L42 36v-5.916A2.084 2.084 45 0 0 39.916 28 2 2 132.589 0 0 38 30.084v1.912l-4.954-4.954a1.48 1.48 179.996 0 0-2.091 0" style="fill:#3f3f3f"/></svg>