<svg xmlns="http://www.w3.org/2000/svg" width="64" height="64"><rect width="34" height="34" x="12" y="4" rx="5.667" ry="5.667" style="fill:#686868"/><rect width="34" height="34" x="26" y="19" rx="5.667" ry="5.667" style="opacity:.2"/><rect width="34" height="34" x="26" y="18" rx="5.667" ry="5.667" style="fill:#818181"/><rect width="34" height="34" x="4" y="27" rx="5.667" ry="5.667" style="opacity:.2"/><rect width="34" height="34" x="4" y="26" rx="5.667" ry="5.667" style="fill:#9e9e9e"/><path d="M17.668 4A5.656 5.656 0 0 0 12 9.668v1A5.656 5.656 0 0 1 17.668 5h22.664A5.656 5.656 0 0 1 46 10.668v-1A5.656 5.656 0 0 0 40.332 4zM31.668 18A5.656 5.656 0 0 0 26 23.668v1A5.656 5.656 0 0 1 31.668 19h22.664A5.656 5.656 0 0 1 60 24.668v-1A5.656 5.656 0 0 0 54.332 18zM9.668 26A5.656 5.656 0 0 0 4 31.668v1A5.656 5.656 0 0 1 9.668 27h22.664A5.656 5.656 0 0 1 38 32.668v-1A5.656 5.656 0 0 0 32.332 26z" style="opacity:.1;fill:#fff"/></svg>