<svg xmlns="http://www.w3.org/2000/svg" xmlns:xlink="http://www.w3.org/1999/xlink" width="64" height="64"><defs><radialGradient xlink:href="#a" id="b" cx="21.477" cy="23.352" r="22" fx="21.477" fy="23.352" gradientTransform="matrix(5.24376 0 0 4.28655 -93.169 -54.972)" gradientUnits="userSpaceOnUse"/><linearGradient id="a"><stop offset="0" style="stop-color:#494949;stop-opacity:1"/><stop offset="1" style="stop-color:#9c9c9c;stop-opacity:1"/></linearGradient></defs><path d="M12.75 4C11.226 4 10 5.249 10 6.8v50.4c0 1.551 1.227 2.8 2.75 2.8h38.5c1.523 0 2.75-1.249 2.75-2.8V20L38 4Z" style="fill:url(#b);fill-opacity:1"/><path d="M38 4v13.333A2.667 2.667 0 0 0 40.667 20H54Z" style="opacity:.36674;fill:#fff;fill-opacity:1"/><path d="M41.936 38.996v5.154a4.25 4.25 135 0 1-4.253 4.252h-5.156v2.688h5.338a6.76 6.76 135 0 0 6.758-6.758v-5.336z" style="opacity:1;fill:#75d6ff;fill-opacity:1;stroke-width:.2"/><path d="M19.377 38.996v5.489a6.605 6.605 45 0 0 6.605 6.605h5.489v-2.688h-5.298a4.11 4.11 45 0 1-4.109-4.108v-5.298z" style="opacity:1;fill:#ffec7b;fill-opacity:1;stroke-width:.2"/><path d="M32.527 25.844v2.69h5.192a4.216 4.216 45 0 1 4.217 4.215v5.19h2.687v-5.184a6.91 6.91 45 0 0-6.91-6.911Z" style="opacity:1;fill:#4bf595;fill-opacity:1;stroke-width:.2"/><path d="M19.377 32.602v5.337h2.687v-5.334a4.07 4.07 135 0 1 4.073-4.072h5.334v-2.69h-5.336a6.76 6.76 135 0 0-6.758 6.759" style="opacity:1;fill:#ff7272;fill-opacity:1;stroke-width:.2"/><path d="M26.485 29.684h11.03a3.27 3.27 45 0 1 3.268 3.269v11.029a3.27 3.27 135 0 1-3.268 3.268h-11.03a3.27 3.27 45 0 1-3.268-3.268v-11.03a3.27 3.27 135 0 1 3.268-3.268" style="opacity:1;fill:#fff;fill-opacity:1;stroke-width:.176812"/></svg>