<svg xmlns="http://www.w3.org/2000/svg" xmlns:xlink="http://www.w3.org/1999/xlink" width="64" height="64"><defs><linearGradient id="a"><stop offset="0" style="stop-color:#fff;stop-opacity:1"/><stop offset="1" style="stop-color:#d9d9d9;stop-opacity:1"/></linearGradient><linearGradient xlink:href="#a" id="b" x1="55.325" x2="8.675" y1="25" y2="51.934" gradientUnits="userSpaceOnUse"/></defs><path d="M41.936 38.996v5.154a4.25 4.25 135 0 1-4.253 4.252h-5.156v2.688h5.338a6.76 6.76 135 0 0 6.758-6.758v-5.336z" style="fill:#75d6ff;fill-opacity:1;stroke-width:.2" transform="translate(-34.695 -48.174)scale(2.08423)"/><path d="M19.377 38.996v5.489a6.605 6.605 45 0 0 6.605 6.605h5.489v-2.688h-5.298a4.11 4.11 45 0 1-4.109-4.108v-5.298z" style="fill:#ffec7b;fill-opacity:1;stroke-width:.2" transform="translate(-34.695 -48.174)scale(2.08423)"/><path d="M32.527 25.844v2.69h5.192a4.216 4.216 45 0 1 4.217 4.215v5.19h2.687v-5.184a6.91 6.91 45 0 0-6.91-6.911Z" style="fill:#4bf595;fill-opacity:1;stroke-width:.2" transform="translate(-34.695 -48.174)scale(2.08423)"/><path d="M19.377 32.602v5.337h2.687v-5.334a4.07 4.07 135 0 1 4.073-4.072h5.334v-2.69h-5.336a6.76 6.76 135 0 0-6.758 6.759" style="fill:#ff7272;fill-opacity:1;stroke-width:.2" transform="translate(-34.695 -48.174)scale(2.08423)"/><path d="M26.485 29.684h11.03a3.27 3.27 45 0 1 3.268 3.269v11.029a3.27 3.27 135 0 1-3.268 3.268h-11.03a3.27 3.27 45 0 1-3.268-3.268v-11.03a3.27 3.27 135 0 1 3.268-3.268" style="fill:url(#b);fill-opacity:1;stroke-width:.176812" transform="translate(-34.695 -48.174)scale(2.08423)"/></svg>