<svg xmlns="http://www.w3.org/2000/svg" xmlns:xlink="http://www.w3.org/1999/xlink" width="64" height="64"><defs><radialGradient xlink:href="#a" id="b" cx="11.2" cy="52.256" r="22" fx="11.2" fy="52.256" gradientTransform="rotate(-15 -387.04 174.175)scale(2.4782 3.15406)" gradientUnits="userSpaceOnUse"/><linearGradient id="a"><stop offset="0" style="stop-color:#28a268;stop-opacity:1"/><stop offset="1" style="stop-color:#1fc327;stop-opacity:1"/></linearGradient></defs><path d="M12.75 4C11.226 4 10 5.249 10 6.8v50.4c0 1.55 1.227 2.8 2.75 2.8h38.5c1.522 0 2.75-1.25 2.75-2.8V22L36 4Z" style="fill:url(#b);fill-opacity:1"/><path d="M54 22 36 4v15.188A2.806 2.806 0 0 0 38.813 22Z" style="opacity:.537555;fill:#fff;fill-opacity:1"/><path d="M25 32a9 9 0 0 0 0 18 9 9 0 0 0 8.473-6h4.551a.976.976 45 0 1 .976.976v1.048a.976.976 45 0 0 .976.976h4.048a.976.976 135 0 0 .976-.976v-1.048a.976.976 135 0 1 .976-.976h.048a.976.976 135 0 0 .976-.976v-4.048a.976.976 45 0 0-.976-.976H33.477a9 9 0 0 0-8.475-6zm0 6a3 3 0 1 1 0 6 3 3 0 0 1 0-6" style="fill:#fff;fill-opacity:1"/></svg>