<svg xmlns="http://www.w3.org/2000/svg" xmlns:xlink="http://www.w3.org/1999/xlink" width="64" height="64"><defs><radialGradient xlink:href="#a" id="d" cx="13.861" cy="50.875" r="22" fx="13.861" fy="50.875" gradientTransform="rotate(-30 -173.26 146.227)scale(2.4917 3.17125)" gradientUnits="userSpaceOnUse"/><radialGradient xlink:href="#b" id="f" cx="58.857" cy="-.477" r="9" fx="58.857" fy="-.477" gradientTransform="translate(252.426 17.32)scale(-3.6697)" gradientUnits="userSpaceOnUse"/><linearGradient id="a"><stop offset="0" style="stop-color:#fff;stop-opacity:1"/><stop offset="1" style="stop-color:#c9c9c9;stop-opacity:1"/></linearGradient><linearGradient id="b"><stop offset="0" style="stop-color:#fafafa;stop-opacity:1"/><stop offset="1" style="stop-color:#aaa;stop-opacity:1"/></linearGradient><filter id="c" width="1.063" height="1.05" x="-.032" y="-.025" style="color-interpolation-filters:sRGB"><feGaussianBlur stdDeviation=".58"/></filter><filter id="e" width="1.155" height="1.155" x="-.077" y="-.077" style="color-interpolation-filters:sRGB"><feGaussianBlur stdDeviation=".58"/></filter></defs><path d="M13.141 4.391c-1.523 0-2.75 1.249-2.75 2.8v50.4c0 1.55 1.227 2.8 2.75 2.8h38.5c1.522 0 2.75-1.25 2.75-2.8v-35.2l-14-4-4-14z" style="opacity:.511511;filter:url(#c)"/><path d="M13.141 3.391c-1.523 0-2.75 1.249-2.75 2.8v50.4c0 1.55 1.227 2.8 2.75 2.8h38.5c1.522 0 2.75-1.25 2.75-2.8v-35.2l-14-4-4-14z" style="fill:url(#d)"/><path d="m54.391 22.391-18-18v15.188a2.806 2.806 0 0 0 2.813 2.812z" style="opacity:.511511;filter:url(#e)"/><path d="m54.391 21.391-18-18v15.188a2.806 2.806 0 0 0 2.813 2.812z" style="fill:url(#f)"/><g style="opacity:.616369;stroke-width:.899356"><path d="M28.164 35.184h9.346a4.2 4.2 0 0 1 4.192 4.192v11.653a4.2 4.2 0 0 1-4.192 4.192h-9.346a4.2 4.2 0 0 1-4.192-4.192V39.376a4.2 4.2 0 0 1 4.192-4.192" class="st1" style="opacity:.88218;fill:#000;fill-opacity:1;stroke-width:.899356" transform="translate(-3.587 -6.18)scale(1.1119)"/><path d="m29.134 32.851 4.506-1.002a1.133 1.133 0 0 1 1.376.875 1.133 1.133 0 0 1-.875 1.377l-4.505 1.003a1.133 1.133 0 0 1-1.377-.876 1.133 1.133 0 0 1 .875-1.377m-5.464 2.004 15.768-3.509a2.314 2.314 0 0 1 2.754 1.752 2.314 2.314 0 0 1-1.752 2.753L24.673 39.36a2.314 2.314 0 0 1-2.754-1.751 2.314 2.314 0 0 1 1.751-2.754" class="st2" style="opacity:1;fill:#000;fill-opacity:1;stroke-width:.899356" transform="translate(-3.587 -6.18)scale(1.1119)"/></g><path d="M38.035 40.211v10.264M32.903 40.21v10.264M27.771 40.21v10.264" class="st3" style="opacity:.618393;fill:none;stroke:#fff;stroke-width:2.40001;stroke-linecap:round;stroke-dasharray:none;stroke-opacity:1;enable-background:new"/></svg>