<svg xmlns="http://www.w3.org/2000/svg" xmlns:xlink="http://www.w3.org/1999/xlink" width="64" height="64"><defs><radialGradient xlink:href="#a" id="b" cx="20.238" cy="45.446" r="22" fx="20.238" fy="45.446" gradientTransform="rotate(-30 -198.014 154.066)scale(2.62906 3.34608)" gradientUnits="userSpaceOnUse"/><linearGradient id="a"><stop offset="0" style="stop-color:#00b1ff;stop-opacity:1"/><stop offset="1" style="stop-color:#136dff;stop-opacity:1"/></linearGradient></defs><path d="M12.71 3.939c-1.523 0-2.75 1.248-2.75 2.8v50.4c0 1.55 1.227 2.8 2.75 2.8h38.5c1.523 0 2.75-1.25 2.75-2.8v-35.2l-18-18z" style="fill:url(#b)" transform="translate(.04 .061)"/><path d="m53.96 21.939-18-18v15.187a2.806 2.806 0 0 0 2.813 2.813z" style="opacity:.533302;fill:#fff;fill-opacity:1" transform="translate(.04 .061)"/><path d="M17 28v27h7v-3h-4V31h4v-3zm21 0v3h4v21h-4v3h7V28zm-11.59 3.807-2.695 1.318 6.863 14.021c-.233.447-.466.87-.697 1.254-.518.862-1.03 1.545-1.438 1.942s-.644.424-.58.424h-1.2v3h1.2c1.115 0 1.971-.59 2.674-1.276s1.316-1.55 1.914-2.545c1.196-1.99 2.306-4.517 3.285-7.035 1.959-5.036 3.37-10.035 3.37-10.035l-2.887-.816s-1.388 4.9-3.28 9.763a74 74 0 0 1-.734 1.823zM47.5 34a1.5 1.5 0 0 0-1.5 1.5 1.5 1.5 0 0 0 1.5 1.5 1.5 1.5 0 0 0 1.5-1.5 1.5 1.5 0 0 0-1.5-1.5m0 14a1.5 1.5 0 0 0-1.5 1.5 1.5 1.5 0 0 0 1.5 1.5 1.5 1.5 0 0 0 1.5-1.5 1.5 1.5 0 0 0-1.5-1.5" style="fill:#fff;fill-opacity:1"/></svg>