<svg xmlns="http://www.w3.org/2000/svg" xmlns:xlink="http://www.w3.org/1999/xlink" width="64" height="64"><defs><radialGradient xlink:href="#a" id="b" cx="17.386" cy="47.039" r="22" fx="17.386" fy="47.039" gradientTransform="rotate(-45 -113.287 148.239)scale(2.8598 3.63975)" gradientUnits="userSpaceOnUse"/><linearGradient id="a"><stop offset="0" style="stop-color:#ff4f54;stop-opacity:1"/><stop offset="1" style="stop-color:#fa7e6a;stop-opacity:1"/></linearGradient></defs><path d="M12.75 4C11.226 4 10 5.249 10 6.8v50.4c0 1.55 1.227 2.8 2.75 2.8h38.5c1.522 0 2.75-1.25 2.75-2.8V22L36 4Z" style="fill:url(#b)"/><path d="M54 22 36 4v15.188A2.806 2.806 0 0 0 38.813 22Z" style="opacity:.457139;fill:#fff;fill-opacity:1"/><path d="M32 29c-4.195 0-7.777 1.553-9.262 3.75a5 5 0 0 0-.328.566q-.136.275-.226.559a10 6 0 0 0-.043.176c-.035.129-.074.259-.094.39A10 6 0 0 0 22 35q.002.293.05.582a10 6 0 0 0 .137.563 10 6 0 0 0 .231.562 10 6 0 0 0 .32.543A10 6 0 0 0 32 41a10 6 0 0 0 9.266-3.75 10 6 0 0 0 0-.008 10 6 0 0 0 .273-.46l.047-.09a10 6 0 0 0 .168-.399c.023-.063.05-.124.07-.188a10 6 0 0 0 .082-.335q.03-.131.051-.262A10 6 0 0 0 42 35a10 6 0 0 0-.055-.598 4.15 4.15 0 0 0-.683-1.652C39.777 30.552 36.194 29 32 29m-9.406 10.004c-.062.104-.132.206-.184.312q-.136.275-.226.559a10 6 0 0 0-.043.176c-.035.129-.074.259-.094.39A10 6 0 0 0 22 41q.002.293.05.582a10 6 0 0 0 .137.563 10 6 0 0 0 .231.562 10 6 0 0 0 .32.543A10 6 0 0 0 32 47a10 6 0 0 0 9.266-3.75 10 6 0 0 0 0-.008 10 6 0 0 0 .273-.46l.047-.09a10 6 0 0 0 .168-.399c.023-.063.05-.124.07-.188a10 6 0 0 0 .082-.335q.03-.131.051-.262A10 6 0 0 0 42 41a10 6 0 0 0-.055-.598c-.08-.486-.28-.946-.543-1.39a10 6 0 0 1-.136.23 10 6 0 0 1 0 .008A10 6 0 0 1 32 43a10 6 0 0 1-9.262-3.75 10 6 0 0 1-.144-.246m0 6c-.062.104-.132.206-.184.312q-.136.275-.226.559a10 6 0 0 0-.043.176c-.035.129-.074.259-.094.39A10 6 0 0 0 22 47q.002.293.05.582a10 6 0 0 0 .137.563 10 6 0 0 0 .231.562 10 6 0 0 0 .32.543A10 6 0 0 0 32 53a10 6 0 0 0 9.266-3.75 10 6 0 0 0 0-.008 10 6 0 0 0 .273-.46l.047-.09a10 6 0 0 0 .168-.399c.023-.063.05-.124.07-.188a10 6 0 0 0 .082-.335q.03-.131.051-.262A10 6 0 0 0 42 47a10 6 0 0 0-.055-.598c-.08-.486-.28-.946-.543-1.39a10 6 0 0 1-.136.23 10 6 0 0 1 0 .008A10 6 0 0 1 32 49a10 6 0 0 1-9.262-3.75 10 6 0 0 1-.144-.246" style="fill:#fff"/></svg>