<svg xmlns="http://www.w3.org/2000/svg" width="64" height="64"><rect width="10" height="29.4" x="28" y="31.6" rx="1.25" ry="1.4" style="opacity:.2"/><rect width="10" height="29.4" x="28" y="30.6" rx="1.25" ry="1.4" style="fill:#b0b0b0"/><path d="M18.25 13A8.25 8.4 0 0 0 10 21.4v16.8c0 1.551 1.227 2.8 2.75 2.8h38.5c1.524 0 2.75-1.249 2.75-2.8V21.4a8.25 8.4 0 0 0-8.25-8.4z" style="opacity:.2"/><path d="M18.25 12A8.25 8.4 0 0 0 10 20.4v16.8c0 1.551 1.227 2.8 2.75 2.8h38.5c1.524 0 2.75-1.249 2.75-2.8V20.4a8.25 8.4 0 0 0-8.25-8.4z" style="fill:#3f51b5"/><path d="M18.043 12.004A8.25 8.4 0 0 0 10 20.398V37.2C10 38.75 11.227 40 12.75 40H26V20.398c0-4.623-3.559-8.37-7.957-8.394" style="opacity:.3;fill:#fff"/><path d="M39 5a3 3 0 0 0-3 3v16a3 3 0 0 0 3 3 3 3 0 0 0 3-3V11h3a3 3 0 0 0 3-3 3 3 0 0 0-3-3z" style="opacity:.2"/><path d="M18.25 12q-.1 0-.2.004a7.5 7.5 0 0 1 3.657.996H45.75c4.556 0 8.25 3.76 8.25 8.398v-1C54 15.76 50.306 12 45.75 12z" style="opacity:.1;fill:#fff"/><path d="M39 23V7h6" style="fill:none;stroke:#f3504c;stroke-width:6;stroke-linecap:round;stroke-linejoin:round"/><rect width="12" height="3" x="12" y="19" rx=".75" ry=".75" style="opacity:.3"/><path d="M39 4a3 3 0 0 0-3 3v.95A3 3 0 0 1 39 5h6a3 3 0 0 1 2.957 2.498A3 3 0 0 0 48 7a3 3 0 0 0-3-3zM18.043 12.004A8.25 8.4 0 0 0 10 20.398v.995a8.25 8.4 0 0 1 8.043-8.39C22.441 13.03 26 16.776 26 21.399v-1c0-4.623-3.559-8.37-7.957-8.394" style="opacity:.2;fill:#fff"/></svg>