<svg xmlns="http://www.w3.org/2000/svg" xmlns:xlink="http://www.w3.org/1999/xlink" width="64" height="64"><defs><radialGradient xlink:href="#a" id="b" cx="21.477" cy="23.352" r="22" fx="21.477" fy="23.352" gradientTransform="matrix(5.24376 0 0 4.28655 -93.169 -54.972)" gradientUnits="userSpaceOnUse"/><linearGradient id="a"><stop offset="0" style="stop-color:#ededed;stop-opacity:1"/><stop offset="1" style="stop-color:#b7b7b7;stop-opacity:1"/></linearGradient></defs><path d="M12.75 4C11.226 4 10 5.249 10 6.8v50.4c0 1.551 1.227 2.8 2.75 2.8h38.5c1.523 0 2.75-1.249 2.75-2.8V20L38 4Z" style="fill:url(#b);fill-opacity:1"/><path d="M38 4v13.333A2.667 2.667 0 0 0 40.667 20H54Z" style="opacity:.593376;fill:#fff;fill-opacity:1"/><path d="M36 29.002c0 .55.444.998.988.998A.995.995 0 0 0 38 29.002.997.997 0 0 0 36.988 28 .997.997 0 0 0 36 29.002M36 31h2v10h-2zM32.392 29l-2.225 8.813s-1.7-6.545-1.975-7.473c-.277-.93-.85-1.34-1.656-1.34s-1.378.41-1.656 1.338-1.976 7.474-1.976 7.474L20.68 29H18s2.573 9.398 2.923 10.474c.271.843.918 1.526 1.87 1.526 1.095 0 1.605-.794 1.843-1.526.233-.729 1.9-6.874 1.9-6.874s1.667 6.145 1.898 6.874c.24.732.748 1.526 1.84 1.526.956 0 1.6-.686 1.876-1.526C32.5 38.398 35.067 29 35.067 29Z" style="fill:#908f94"/><path fill="#22b2e9" d="M20.335 49.615c-.286 1.368-1.536 3.4-3.789 3.382-1.12-.006-1.721-.497-2.03-.908-.705-.938-.498-2.235-.454-2.487l1.167-6.604 2.094.013-1.162 6.608-.006.025c-.03.16-.069.676.137.946.044.055.174.225.637.229.917.006 1.23-.894 1.324-1.298l.61-3.463.537-3.046h2.102zl.004-.022.63-3.567.002-.03"/><path fill="#22b2e9" d="M18.236 49.615c-.191 1.368.337 3.4 2.599 3.382a3.47 3.47 0 0 0 2.35-.908c1.035-.938 1.29-2.235 1.33-2.487l1.164-6.604-2.103.013-1.164 6.608-.003.025c-.028.16-.17.676-.473.946-.064.055-.255.225-.716.229-.921.006-.913-.894-.866-1.298l.609-3.464.539-3.045H19.4zl.004-.022.627-3.567.006-.03M30.27 52.61c-.467.29-.953.39-1.566.39-1.462 0-3.102-1.365-2.617-3.984.419-2.288 2.345-4.016 4.565-4.016 2.16 0 3.716 1.285 3.272 3.7l-.76 4.3h-2.289l.646-3.705c.249-1.35.058-2.163-1.178-2.163-1.075 0-1.786.917-1.952 1.82-.216 1.185.334 1.756 1.196 1.756.416 0 .794-.092 1.069-.192zM40.23 46c-.634 0-1.21.078-1.738.41l.204-1.41h-2.323l-1.461 8h2.323l.774-3.95c.172-.436.628-1.01 1.849-1.085h1.645L41.879 46H40.24M44.375 48.935c-.3 1.703.54 2.276 1.456 2.276.774 0 1.364-.392 1.853-.925l1.445 1.207c-.93.957-2.273 1.507-3.506 1.507-2.37 0-3.986-1.57-3.553-4.001S44.41 45 46.778 45c1.893 0 3.584 1.567 3.155 3.999L49.702 50h-4.754l.282-2h2.49c.156-.782-.342-1.308-1.197-1.308-1.042 0-1.845.544-2.148 2.243"/><path d="M40 29.002c0 .55.444.998.988.998A.995.995 0 0 0 42 29.002.997.997 0 0 0 40.988 28 .997.997 0 0 0 40 29.002M40 31h2v10h-2z" style="fill:#908f94"/></svg>