<svg xmlns="http://www.w3.org/2000/svg" xmlns:xlink="http://www.w3.org/1999/xlink" width="64" height="64"><defs><radialGradient xlink:href="#a" id="b" cx="17.386" cy="47.039" r="22" fx="17.386" fy="47.039" gradientTransform="rotate(-45 -113.287 148.239)scale(2.8598 3.63975)" gradientUnits="userSpaceOnUse"/><linearGradient id="a"><stop offset="0" style="stop-color:#ff4f54;stop-opacity:1"/><stop offset="1" style="stop-color:#fa7e6a;stop-opacity:1"/></linearGradient></defs><path d="M12.75 4C11.226 4 10 5.249 10 6.8v50.4c0 1.55 1.227 2.8 2.75 2.8h38.5c1.522 0 2.75-1.25 2.75-2.8V22L36 4Z" style="fill:url(#b)"/><path d="M54 22 36 4v15.188A2.806 2.806 0 0 0 38.813 22Z" style="opacity:.457139;fill:#fff;fill-opacity:1"/><path d="M32 29c-3.693 0-7 3.017-7 6.676V39h-1.334c-.923 0-1.666.566-1.666 1.47v9.897c0 .906.743 1.633 1.666 1.633h16.668c.923 0 1.666-.727 1.666-1.633v-9.896c0-.905-.743-1.504-1.666-1.471H39v-3.324C39 32.019 35.693 29 32 29m0 4c1.662 0 3 1.349 3 3.023V39h-6v-2.977A3.006 3.006 0 0 1 32 33" style="fill:#fff;fill-opacity:1"/></svg>