<svg xmlns="http://www.w3.org/2000/svg" xmlns:xlink="http://www.w3.org/1999/xlink" width="64" height="64"><defs><radialGradient xlink:href="#a" id="b" cx="17.222" cy="49.789" r="22" fx="17.222" fy="49.789" gradientTransform="rotate(-30 -188.055 143.776)scale(2.71047 3.44969)" gradientUnits="userSpaceOnUse"/><linearGradient id="a"><stop offset="0" style="stop-color:#656bff;stop-opacity:1"/><stop offset="1" style="stop-color:#a057ff;stop-opacity:1"/></linearGradient></defs><path d="M24.75 0C23.227 0 22 1.249 22 2.8v50.4c0 1.55 1.227 2.8 2.75 2.8h38.5c1.522 0 2.75-1.25 2.75-2.8V18L48 0Z" style="fill:url(#b)" transform="translate(-12 4)"/><path d="M66 18 48 0v15.188A2.806 2.806 0 0 0 50.813 18Z" style="opacity:.448535;fill:#fff;fill-opacity:1" transform="translate(-12 4)"/><path d="M36.334 31c-.736 0-1.334.955-1.334 1.691v2.666c-.026 1.804 3.026 1.804 3 0V34h2v4.643l-3.3 2.271c-.359.24-.686.636-.7 1.066v2.668c-.026 1.804 3.026 1.804 3 0v-1.953l3.406-2.271c.36-.24.58-.636.594-1.067v-6.666c0-.736-.598-1.691-1.334-1.691ZM31 32l-10 9 10 9v-4l-5-5 5-5zm6.5 15a1.5 1.5 0 0 0-1.5 1.5 1.5 1.5 0 0 0 1.5 1.5 1.5 1.5 0 0 0 1.5-1.5 1.5 1.5 0 0 0-1.5-1.5" style="fill:#fff"/></svg>