<svg xmlns="http://www.w3.org/2000/svg" xmlns:xlink="http://www.w3.org/1999/xlink" width="64" height="64"><defs><radialGradient xlink:href="#a" id="b" cx="16.935" cy="49.154" r="22" fx="16.935" fy="49.154" gradientTransform="rotate(-15 -1771.875 790.705)scale(8.66244 11.02492)" gradientUnits="userSpaceOnUse"/><linearGradient id="a"><stop offset="0" style="stop-color:#ff3843;stop-opacity:1"/><stop offset="1" style="stop-color:#ff9344;stop-opacity:1"/></linearGradient></defs><path d="M12.75 4C11.226 4 10 5.249 10 6.8v50.4c0 1.55 1.227 2.8 2.75 2.8h38.5c1.522 0 2.75-1.25 2.75-2.8V22L36 4Z" style="fill:url(#b)"/><path d="M54 22 36 4v15.188A2.806 2.806 0 0 0 38.813 22Z" style="opacity:.374382;fill:#fff;fill-opacity:1"/><path d="M29.2 27C24.896 27 19 29.8 19 35.4s6 9.8 8.1 11.2c-7.7 0-11.9-7-11.9-7S22.2 55 34.8 55c5.6 0 10.2-4.2 10.2-9.8 0-4.2-3.2-8.4-7.4-10.5 8.4.7 11.2 6.3 11.2 6.3s-5.6-14-19.6-14m1.446 6.994c2.112.063 4.54.921 6.536 2.617 3.013 2.563 4.08 6.23 3.263 8.692.066-1.3-.51-2.684-1.552-3.729-1.813-1.812-4.476-2.089-5.948-.617-1.471 1.472-1.195 4.135.618 5.947.403.404.864.744 1.359 1.002-2.123-.252-4.782-1.197-6.654-2.789-3.648-3.102-4.04-7.43-2.09-9.668.732-.839 2.21-1.322 3.586-1.433q.429-.035.882-.022" style="fill:#fff"/></svg>