<svg xmlns="http://www.w3.org/2000/svg" xmlns:xlink="http://www.w3.org/1999/xlink" width="64" height="64"><defs><radialGradient xlink:href="#a" id="b" cx="17.386" cy="47.039" r="22" fx="17.386" fy="47.039" gradientTransform="rotate(-45 -113.287 148.239)scale(2.8598 3.63975)" gradientUnits="userSpaceOnUse"/><linearGradient id="a"><stop offset="0" style="stop-color:#ff4f54;stop-opacity:1"/><stop offset="1" style="stop-color:#fa7e6a;stop-opacity:1"/></linearGradient></defs><path d="M12.75 4C11.226 4 10 5.249 10 6.8v50.4c0 1.55 1.227 2.8 2.75 2.8h38.5c1.522 0 2.75-1.25 2.75-2.8V22L36 4Z" style="fill:url(#b)"/><path d="M54 22 36 4v15.188A2.806 2.806 0 0 0 38.813 22Z" style="opacity:.457139;fill:#fff;fill-opacity:1"/><path d="M12.84 46.115v6.204a1.12 1.12 45 0 0 1.12 1.12h.015a1.12 1.12 135 0 0 1.119-1.12v-6.565a.58.58 135 0 1 .58-.58h4.429q.407 0 .704.334.06.069.108.143c.09.14.264.274.432.274h1.709a.303.303 135 0 0 .303-.304v-.597q0-.855-.625-1.48a1.99 1.99 0 0 0-1.48-.625h-5.219a3.196 3.196 135 0 0-3.195 3.196m12.022-.933v7.137a1.12 1.12 45 0 0 1.12 1.12h.015a1.12 1.12 135 0 0 1.119-1.12v-1.585a1.04 1.04 0 0 1 1.052-1.052h5.109q.87 0 1.479-.608.624-.625.625-1.497v-2.553q0-.871-.625-1.48a2.02 2.02 0 0 0-1.48-.625h-6.151a2.263 2.263 135 0 0-2.263 2.263m12.022 0v7.137a1.12 1.12 45 0 0 1.12 1.12h.015a1.12 1.12 135 0 0 1.12-1.12v-6.093a1.06 1.06 0 0 1 1.077-1.052h1.61q.435 0 .753.312a1 1 0 0 1 .316.74v6.093a1.12 1.12 45 0 0 1.12 1.12h.015a1.12 1.12 135 0 0 1.12-1.12v-6.093c0-.285.12-.532.322-.74q.319-.312.772-.313h1.592q.436 0 .754.313a1 1 0 0 1 .316.74v6.093a1.12 1.12 45 0 0 1.12 1.12h.015a1.12 1.12 135 0 0 1.12-1.12v-7.295q0-.855-.638-1.48a2.05 2.05 0 0 0-1.51-.625h-9.866a2.263 2.263 135 0 0-2.263 2.263m-8.766-.009h4.007q.407 0 .704.335.297.334.298.792 0 .476-.298.81a.94.94 0 0 1-.704.318h-4.007a.95.95 0 0 1-.72-.317 1.22 1.22 0 0 1-.282-.81q0-.459.282-.793a.93.93 0 0 1 .72-.335" style="fill:#fff;fill-opacity:1;stroke-width:.751378"/></svg>