<svg xmlns="http://www.w3.org/2000/svg" xmlns:xlink="http://www.w3.org/1999/xlink" width="64" height="64"><defs><radialGradient xlink:href="#a" id="b" cx="17.386" cy="47.039" r="22" fx="17.386" fy="47.039" gradientTransform="rotate(-45 -113.287 148.239)scale(2.8598 3.63975)" gradientUnits="userSpaceOnUse"/><linearGradient id="a"><stop offset="0" style="stop-color:#ff4f54;stop-opacity:1"/><stop offset="1" style="stop-color:#fa7e6a;stop-opacity:1"/></linearGradient></defs><path d="M12.75 4C11.226 4 10 5.249 10 6.8v50.4c0 1.55 1.227 2.8 2.75 2.8h38.5c1.522 0 2.75-1.25 2.75-2.8V22L36 4Z" style="fill:url(#b)"/><path d="M54 22 36 4v15.188A2.806 2.806 0 0 0 38.813 22Z" style="opacity:.457139;fill:#fff;fill-opacity:1"/><path d="M27.23 30c-.426.042-.446.03-.496.55-.08 7.182-1.795 14.125-6.298 17.436-.5.318-.554.32-.245.851l1.56 2.694c.286.663.427.492.888.188 3.108-2.118 4.793-4.908 5.788-8.331.336-1.155.48-2.382.573-3.685v11.642c-.031.627.023.642.619.642h5c.618.067.381-.123.381-.682V40.98c.097.833.25 1.639.473 2.409.996 3.423 2.78 6.213 5.888 8.33.46.305.602.476.888-.187l1.56-2.694c.309-.532.254-.533-.245-.851-4.503-3.311-6.217-10.254-6.298-17.435-.002-.444-.07-.558-.496-.55z" style="fill:#fff"/></svg>