<svg xmlns="http://www.w3.org/2000/svg" xmlns:xlink="http://www.w3.org/1999/xlink" width="64" height="64"><defs><radialGradient xlink:href="#a" id="b" cx="17.386" cy="47.039" r="22" fx="17.386" fy="47.039" gradientTransform="rotate(-45 -131.894 141.946)scale(2.8598 3.63975)" gradientUnits="userSpaceOnUse"/><linearGradient id="a"><stop offset="0" style="stop-color:#ff4f54;stop-opacity:1"/><stop offset="1" style="stop-color:#fa7e6a;stop-opacity:1"/></linearGradient></defs><path d="M11.75-11C10.226-11 9-9.751 9-8.2v50.4c0 1.55 1.227 2.8 2.75 2.8h38.5c1.522 0 2.75-1.25 2.75-2.8V7L35-11Z" style="fill:url(#b)" transform="translate(1 15)"/><path d="M53 7 35-11V4.188A2.806 2.806 0 0 0 37.813 7Z" style="opacity:.457139;fill:#fff;fill-opacity:1" transform="translate(1 15)"/><path d="M26 34.702V43h-1a5 5 0 0 0 0 10 5 5 0 0 0 4.996-4.908l.004-.008V36.248A1.25 1.25 135 0 1 31.247 35h7.505A1.25 1.25 45 0 1 40 36.248V43h-1a5 5 0 0 0 0 10 5 5 0 0 0 4.988-4.75l.012-.023V34.702C44 32.27 42.03 30.3 39.6 30.3H30.4A4.4 4.4 0 0 0 26 34.702" style="fill:#fff"/></svg>