<svg xmlns="http://www.w3.org/2000/svg" xmlns:xlink="http://www.w3.org/1999/xlink" width="64" height="64"><defs><radialGradient xlink:href="#a" id="b" cx="20.238" cy="45.446" r="22" fx="20.238" fy="45.446" gradientTransform="rotate(-30 -198.014 154.066)scale(2.62906 3.34608)" gradientUnits="userSpaceOnUse"/><linearGradient id="a"><stop offset="0" style="stop-color:#00b1ff;stop-opacity:1"/><stop offset="1" style="stop-color:#136dff;stop-opacity:1"/></linearGradient></defs><path d="M12.71 3.939c-1.523 0-2.75 1.248-2.75 2.8v50.4c0 1.55 1.227 2.8 2.75 2.8h38.5c1.523 0 2.75-1.25 2.75-2.8v-35.2l-18-18z" style="fill:url(#b)" transform="translate(.04 .061)"/><path d="m53.96 21.939-18-18v15.187a2.806 2.806 0 0 0 2.813 2.813z" style="opacity:.533302;fill:#fff;fill-opacity:1" transform="translate(.04 .061)"/><path d="M32 27c-7.732 0-14 6.268-14 14s6.268 14 14 14 14-6.268 14-14-6.268-14-14-14m-1.31 2.792c.153-.016.344.009.498 0 .018.073-.108.334-.282.713-1.106 2.417-1.171 5.247-.145 6.76.186.274.356.535.356.569s-.2.07-.427.07c-.532 0-1.036-.322-2.064-1.137-.457-.362-1.05-.665-1.28-.71-.361-.073-.457-.042-.924.426-.435.435-.569.67-.569 1.069 0 1.51 1.793 2.706 5.124 3.412 4.524.96 5.637 1.819 5.762 4.198.156 2.983-1.43 5.231-4.909 6.972-.415.208-.678.291-.853.359-.077-.007-.139.006-.216 0-.03-.093-.07-.306-.07-.711 0-1.585-.624-3.217-1.565-4.13-.252-.244-.958-.762-1.564-1.137s-1.217-.81-1.353-.995c-.226-.308-.242-.497-.069-1.066.316-1.04.691-1.624 1.422-2.281.383-.345.768-.63.853-.637s-.488-.182-1.35-.358a24 24 0 0 1-2.779-.782c-1.192-.432-2.801-1.338-3.415-1.994l-.071-.07a11.44 11.44 0 0 1 6.617-7.755c.685-.29 1.391-.488 2.136-.64.37-.076.754-.106 1.137-.145m10.675 5.337c.268.166 1.279 2.353 1.567 3.418.372 1.376.345 3.755 0 5.122-.131.52-.302 1.006-.358 1.066s-.262-.285-.5-.708c-.24-.423-.999-1.324-1.633-1.993-1.831-1.933-2.12-2.94-1.354-4.482.387-.778 2.071-2.55 2.278-2.423" style="fill:#fff;fill-opacity:1"/></svg>