<svg xmlns="http://www.w3.org/2000/svg" xmlns:xlink="http://www.w3.org/1999/xlink" width="64" height="64"><defs><radialGradient xlink:href="#a" id="b" cx="13.03" cy="49.45" r="22" fx="13.03" fy="49.45" gradientTransform="rotate(-30 -182.276 149.29)scale(2.61531 3.32858)" gradientUnits="userSpaceOnUse"/><linearGradient id="a"><stop offset="0" style="stop-color:#f78330;stop-opacity:1"/><stop offset="1" style="stop-color:#e6664a;stop-opacity:1"/></linearGradient></defs><path d="M12.467 4.16c-1.524 0-2.75 1.25-2.75 2.8v50.4c0 1.55 1.226 2.8 2.75 2.8h38.5c1.522 0 2.75-1.25 2.75-2.8v-35.2l-18-18z" style="fill:url(#b)" transform="translate(.283 -.16)"/><path d="m53.717 22.16-18-18v15.188a2.806 2.806 0 0 0 2.812 2.813z" style="opacity:.584913;fill:#fee;fill-opacity:1" transform="translate(.283 -.16)"/><path d="M19.839 31.283a3.76 3.76 0 0 0-3.762 3.762 3.76 3.76 0 0 0 3.762 3.762 3.8 3.8 0 0 0 1.603-.362l4.167 4.516a3.76 3.76 0 0 0-.504 1.864 3.76 3.76 0 0 0 3.762 3.762 3.76 3.76 0 0 0 3.735-3.396l7.29-1.534a3.76 3.76 0 0 0 3.27 1.92 3.76 3.76 0 0 0 3.761-3.761 3.76 3.76 0 0 0-3.762-3.762 3.76 3.76 0 0 0-3.735 3.396l-7.28 1.533a3.76 3.76 0 0 0-3.28-1.92 3.8 3.8 0 0 0-1.602.362l-4.168-4.515a3.76 3.76 0 0 0 .504-1.865 3.76 3.76 0 0 0-3.761-3.762" style="color:#000;fill:#fff;stroke-width:.752343;-inkscape-stroke:none"/></svg>