<svg xmlns="http://www.w3.org/2000/svg" xmlns:xlink="http://www.w3.org/1999/xlink" width="64" height="64"><defs><radialGradient xlink:href="#a" id="c" cx="9.67" cy="62.508" r="26" fx="9.67" fy="62.508" gradientTransform="rotate(-29.237 -98.952 126.348)scale(3.28408 2.02626)" gradientUnits="userSpaceOnUse"/><radialGradient xlink:href="#b" id="d" cx="6.273" cy="64.434" r="20.5" fx="6.273" fy="64.434" gradientTransform="matrix(3.4843 -.05732 .03425 2.0821 -17.79 -84.015)" gradientUnits="userSpaceOnUse"/><radialGradient xlink:href="#b" id="e" cx="6.273" cy="64.434" r="20.5" fx="6.273" fy="64.434" gradientTransform="matrix(3.4843 -.05732 .03425 2.0821 -17.79 -84.015)" gradientUnits="userSpaceOnUse"/><radialGradient xlink:href="#b" id="f" cx="6.273" cy="64.434" r="20.5" fx="6.273" fy="64.434" gradientTransform="matrix(3.4843 -.05732 .03425 2.0821 -17.79 -84.015)" gradientUnits="userSpaceOnUse"/><linearGradient id="a"><stop offset="0" style="stop-color:#009eff;stop-opacity:1"/><stop offset="1" style="stop-color:#0ef;stop-opacity:1"/></linearGradient><linearGradient id="b"><stop offset="0" style="stop-color:#000;stop-opacity:1"/><stop offset="1" style="stop-color:#404040;stop-opacity:1"/></linearGradient></defs><path fill="#a47a4a" d="M58 50.068V14.3c0-1.477-1.16-2.667-2.6-2.667H8.6c-1.44 0-2.6 1.19-2.6 2.667v35.767c0 1.478 1.16 2.667 2.6 2.667h46.8c1.44 0 2.6-1.19 2.6-2.667z" style="fill:url(#c)"/><path d="m15.937 29.61 12 13 19-4" style="fill:none;stroke:#fff;stroke-width:3"/><circle cx="16" cy="28.735" r="5" style="fill:url(#d)"/><circle cx="28" cy="41.735" r="5" style="fill:url(#e)"/><circle cx="47" cy="37.735" r="5" style="fill:url(#f)"/><path d="M30.502 11.633v10.488A1.5 1.5 0 0 0 32 23.619a1.5 1.5 0 0 0 1.498-1.498V11.633Z" style="opacity:.2;stroke-width:.749116"/><path d="M32 11.633v.75h.75v-.75zm0 .75h-.75v.749H32Zm0 .749v.749h.75v-.75zm0 .749h-.75v.749H32Zm0 .749v.749h.75v-.75zm0 .749h-.75v.749H32Zm0 .749v.75h.75v-.75z" style="opacity:.2;stroke-width:.749116"/><path d="M31.25 11.633v.75H32v-.75zm0 1.499v.749H32v-.75zm0 1.498v.749H32v-.75zm0 1.498v.75H32v-.75z" style="fill:#ddd;stroke-width:.749116"/><path d="M31.25 17.626H32c.03-.275 0-.749 0-.749h-.75zm.75 0v.75h.75v-.75zm0 .75h-.75v.749H32Zm0 .749v.749h.75v-.75zm0 .749h-.75v.749H32Zm0 .749v.749h.75v-.75zm0 .749h-.75v.749H32Zm0 .749v.75h.75v-.75zm0 .75h-.75c-.116 1.041.75 1.041.75 0" style="opacity:.2;stroke-width:.749116"/><path d="M31.25 17.626v.75H32v-.75zm0 1.499v.749H32v-.75zm0 1.498v.749H32v-.75zm0 1.498v.75H32v-.75z" style="fill:#ddd;stroke-width:.749116"/><path d="M32 22.121a3 3 0 0 0-2.996 2.996v5.993A3 3 0 0 0 32 34.107a3 3 0 0 0 2.996-2.997v-5.993A3 3 0 0 0 32 22.121m0 1.498c.827 0 1.498.6 1.498 1.498 0 .75-.671 1.499-1.498 1.499s-1.498-.75-1.498-1.499c0-.899.671-1.498 1.498-1.498m0 4.495c.827 0 1.498.67 1.498 1.498v1.498a1.498 1.498 0 1 1-2.996 0v-1.498c0-.827.67-1.498 1.498-1.498" style="fill:#fff;stroke-width:.749116"/></svg>