<svg xmlns="http://www.w3.org/2000/svg" xmlns:xlink="http://www.w3.org/1999/xlink" width="64" height="64"><defs><radialGradient xlink:href="#a" id="b" cx="13.03" cy="49.45" r="22" fx="13.03" fy="49.45" gradientTransform="rotate(-30 -182.276 149.29)scale(2.61531 3.32858)" gradientUnits="userSpaceOnUse"/><linearGradient id="a"><stop offset="0" style="stop-color:#f78330;stop-opacity:1"/><stop offset="1" style="stop-color:#e6664a;stop-opacity:1"/></linearGradient></defs><path d="M12.467 4.16c-1.524 0-2.75 1.25-2.75 2.8v50.4c0 1.55 1.226 2.8 2.75 2.8h38.5c1.522 0 2.75-1.25 2.75-2.8v-35.2l-18-18z" style="fill:url(#b)" transform="translate(.283 -.16)"/><path d="m53.717 22.16-18-18v15.188a2.806 2.806 0 0 0 2.812 2.813z" style="opacity:.584913;fill:#fee;fill-opacity:1" transform="translate(.283 -.16)"/><path d="M36.105 28.9a6 6 0 0 0-4.046 1.496q-.03.025-.059.05A6.2 6.2 0 0 0 36.105 32h6.18S44 32.21 44 33.902v-3.31c0-1.693-1.715-1.692-1.715-1.692zm-16.1 19.495c.02.535.217.893.472 1.13-.377-.397-.455-.927-.471-1.13m23.518 1.13c-.507.473-1.238.475-1.238.475.598 0 .985-.207 1.238-.475" style="opacity:.552722;fill:#fff"/><path d="M21.715 28.9S20 28.9 20 30.592v17.717S20 50 21.715 50h20.57S44 50 44 48.309V33.902C44 32.21 42.285 32 42.285 32h-6.18a6.2 6.2 0 0 1-4.164-1.604 6 6 0 0 0-4.046-1.496z" style="fill:#fff"/></svg>