<svg xmlns="http://www.w3.org/2000/svg" xmlns:xlink="http://www.w3.org/1999/xlink" width="64" height="64"><defs><radialGradient xlink:href="#a" id="b" cx="20.238" cy="45.446" r="22" fx="20.238" fy="45.446" gradientTransform="rotate(-30 -198.014 154.066)scale(2.62906 3.34608)" gradientUnits="userSpaceOnUse"/><linearGradient id="a"><stop offset="0" style="stop-color:#00b1ff;stop-opacity:1"/><stop offset="1" style="stop-color:#136dff;stop-opacity:1"/></linearGradient></defs><path d="M12.71 3.939c-1.523 0-2.75 1.248-2.75 2.8v50.4c0 1.55 1.227 2.8 2.75 2.8h38.5c1.523 0 2.75-1.25 2.75-2.8v-35.2l-18-18z" style="fill:url(#b)" transform="translate(.04 .061)"/><path d="m53.96 21.939-18-18v15.187a2.806 2.806 0 0 0 2.813 2.813z" style="opacity:.533302;fill:#fff;fill-opacity:1" transform="translate(.04 .061)"/><path d="m24 26 1.091 1.129c.826.937 1.755 1.789 2.604 2.704.01.009.024.014.033.023l1.378 1.424c-2.397 2.52-5.142 6.862-5.099 10.41-.095 2.363.82 4.65 2.284 6.459 2.38 2.946 5.94 4.692 9.54 5.55.52.126 3.166.68 1.717-.136-2.484-1.212-5.137-2.582-6.524-5.131-1.516-2.416-.465-5.888 1.176-8.36.692-.897 1.568-2.234 2.51-2.998L40 42.546V26h-.005z" style="fill:#fff"/></svg>