<svg xmlns="http://www.w3.org/2000/svg" xmlns:xlink="http://www.w3.org/1999/xlink" width="64" height="64"><defs><radialGradient xlink:href="#a" id="b" cx="16.935" cy="49.154" r="22" fx="16.935" fy="49.154" gradientTransform="rotate(-15 -1776.471 766.918)scale(8.66244 11.02492)" gradientUnits="userSpaceOnUse"/><linearGradient id="a"><stop offset="0" style="stop-color:#a200ff;stop-opacity:1"/><stop offset="1" style="stop-color:#c67a43;stop-opacity:1"/></linearGradient></defs><path d="M18.75 2C17.227 2 16 3.249 16 4.8v50.4c0 1.55 1.227 2.8 2.75 2.8h38.5c1.522 0 2.75-1.25 2.75-2.8V20L42 2Z" style="fill:url(#b)" transform="translate(-6 2)"/><path d="M60 20 42 2v15.188A2.806 2.806 0 0 0 44.813 20Z" style="opacity:.374382;fill:#fff;fill-opacity:1" transform="translate(-6 2)"/><path d="M31 24a4 4 0 1 0 0 8 4 4 0 0 0 0-8m-10 1.5V27h-4.963A1.037 1.037 135 0 0 15 28.037a1 1 42.876 0 0 1.037.963H21v1.5l2-1.25L25 28l-2-1.25Zm16 2.537a1 1 42.876 0 0 1.037.963h4.398A1.565 1.565 45 0 1 44 30.565V32h-1.5l1.25 2L45 36l1.25-2 1.25-2H46v-1.409A3.59 3.59 45 0 0 42.409 27h-4.372A1.037 1.037 135 0 0 37 28.037M45 37a4 4 0 1 0 0 8 4 4 0 0 0 0-8m-1 11.037v1.398A1.565 1.565 135 0 1 42.435 51H40v-1.5l-2 1.25L36 52l2 1.25 2 1.25V53h2.409A3.59 3.59 135 0 0 46 49.409v-1.372A1.037 1.037 45 0 0 44.963 47 1 1 132.876 0 0 44 48.037M31 48a4 4 0 1 0 0 8 4 4 0 0 0 0-8m-12 1.5-2 1.25L15 52l2 1.25 2 1.25V53h4.963A1.037 1.037 135 0 0 25 51.963 1 1 42.876 0 0 23.963 51H19Z" style="fill:#fff"/></svg>