<svg xmlns="http://www.w3.org/2000/svg" xmlns:xlink="http://www.w3.org/1999/xlink" width="64" height="64"><defs><radialGradient xlink:href="#a" id="b" cx="21.477" cy="23.352" r="22" fx="21.477" fy="23.352" gradientTransform="matrix(5.24376 0 0 4.28655 -93.169 -54.972)" gradientUnits="userSpaceOnUse"/><linearGradient id="a"><stop offset="0" style="stop-color:#494949;stop-opacity:1"/><stop offset="1" style="stop-color:#9c9c9c;stop-opacity:1"/></linearGradient></defs><path d="M12.75 4C11.226 4 10 5.249 10 6.8v50.4c0 1.551 1.227 2.8 2.75 2.8h38.5c1.523 0 2.75-1.249 2.75-2.8V20L38 4Z" style="fill:url(#b);fill-opacity:1"/><path d="M38 4v13.333A2.667 2.667 0 0 0 40.667 20H54Z" style="opacity:.36674;fill:#fff;fill-opacity:1"/><path d="M24 25.498v3.004A1.5 1.5 45 0 0 25.498 30h.004A1.5 1.5 135 0 0 27 28.502v-3.004A1.5 1.5 45 0 0 25.502 24h-.004A1.5 1.5 135 0 0 24 25.498m7 0v3.004A1.5 1.5 45 0 0 32.498 30h.004A1.5 1.5 135 0 0 34 28.502v-3.004A1.5 1.5 45 0 0 32.502 24h-.004A1.5 1.5 135 0 0 31 25.498m7 0v3.004A1.5 1.5 45 0 0 39.498 30h.004A1.5 1.5 135 0 0 41 28.502v-3.004A1.5 1.5 45 0 0 39.502 24h-.004A1.5 1.5 135 0 0 38 25.498m-22 8v.004A1.5 1.5 45 0 0 17.498 35h3.004A1.5 1.5 135 0 0 22 33.502v-.004A1.5 1.5 45 0 0 20.502 32h-3.004A1.5 1.5 135 0 0 16 33.498M28.25 32A4.24 4.24 0 0 0 24 36.25v8.5A4.24 4.24 0 0 0 28.25 49h8.5A4.24 4.24 0 0 0 41 44.75v-8.5A4.24 4.24 0 0 0 36.75 32ZM43 33.498v.004A1.5 1.5 45 0 0 44.498 35h3.004A1.5 1.5 135 0 0 49 33.502v-.004A1.5 1.5 45 0 0 47.502 32h-3.004A1.5 1.5 135 0 0 43 33.498m-27 7v.004A1.5 1.5 45 0 0 17.498 42h3.004A1.5 1.5 135 0 0 22 40.502v-.004A1.5 1.5 45 0 0 20.502 39h-3.004A1.5 1.5 135 0 0 16 40.498m27 0v.004A1.5 1.5 45 0 0 44.498 42h3.004A1.5 1.5 135 0 0 49 40.502v-.004A1.5 1.5 45 0 0 47.502 39h-3.004A1.5 1.5 135 0 0 43 40.498m-27 7v.004A1.5 1.5 45 0 0 17.498 49h3.004A1.5 1.5 135 0 0 22 47.502v-.004A1.5 1.5 45 0 0 20.502 46h-3.004A1.5 1.5 135 0 0 16 47.498m27 0v.004A1.5 1.5 45 0 0 44.498 49h3.004A1.5 1.5 135 0 0 49 47.502v-.004A1.5 1.5 45 0 0 47.502 46h-3.004A1.5 1.5 135 0 0 43 47.498m-19 5v3.004A1.5 1.5 45 0 0 25.498 57h.004A1.5 1.5 135 0 0 27 55.502v-3.004A1.5 1.5 45 0 0 25.502 51h-.004A1.5 1.5 135 0 0 24 52.498m7 0v3.004A1.5 1.5 45 0 0 32.498 57h.004A1.5 1.5 135 0 0 34 55.502v-3.004A1.5 1.5 45 0 0 32.502 51h-.004A1.5 1.5 135 0 0 31 52.498m7 0v3.004A1.5 1.5 45 0 0 39.498 57h.004A1.5 1.5 135 0 0 41 55.502v-3.004A1.5 1.5 45 0 0 39.502 51h-.004A1.5 1.5 135 0 0 38 52.498" style="fill:#fff"/><path d="M12.813 3C11.254 3 10 4.27 10 5.85v1C10 5.27 11.254 4 12.813 4H38V3Z" style="opacity:.2;fill:#fff"/></svg>