<svg xmlns="http://www.w3.org/2000/svg" xmlns:xlink="http://www.w3.org/1999/xlink" width="64" height="64"><defs><radialGradient xlink:href="#a" id="b" cx="11.2" cy="52.256" r="22" fx="11.2" fy="52.256" gradientTransform="rotate(-15 -387.04 174.175)scale(2.4782 3.15406)" gradientUnits="userSpaceOnUse"/><linearGradient id="a"><stop offset="0" style="stop-color:#28a268;stop-opacity:1"/><stop offset="1" style="stop-color:#1fc327;stop-opacity:1"/></linearGradient></defs><path d="M12.75 4C11.226 4 10 5.249 10 6.8v50.4c0 1.55 1.227 2.8 2.75 2.8h38.5c1.522 0 2.75-1.25 2.75-2.8V22L36 4Z" style="fill:url(#b);fill-opacity:1"/><path d="M54 22 36 4v15.188A2.806 2.806 0 0 0 38.813 22Z" style="opacity:.537555;fill:#fff;fill-opacity:1"/><path d="M43.953 26.865a1.15 1.15 0 0 0-.788.347l-6.645 6.646a6.93 6.93 0 0 0-4.02-1.287 6.93 6.93 0 0 0-4.467 1.645l9.757 9.76A6.93 6.93 0 0 0 39.43 39.5a6.93 6.93 0 0 0-1.287-4.02l6.646-6.645a1.147 1.147 0 0 0-.835-1.97m-16.744 8.16a6.93 6.93 0 0 0-1.638 4.475 6.93 6.93 0 0 0 1.298 4.009l-6.65 6.65a1.147 1.147 0 1 0 1.622 1.622l6.648-6.65a6.93 6.93 0 0 0 4.01 1.298 6.93 6.93 0 0 0 4.468-1.645z" style="fill:#fff;stroke-width:.815139"/></svg>