<?xml version="1.0" encoding="UTF-8" standalone="no"?>
<svg
   width="64"
   height="64"
   version="1.1"
   id="svg3"
   sodipodi:docname="org.rncbc.qpwgraph.application-x-qpwgraph-patchbay.svg"
   inkscape:version="1.4.4 (dcaf3e7d9e, 2026-05-05)"
   xmlns:inkscape="http://www.inkscape.org/namespaces/inkscape"
   xmlns:sodipodi="http://sodipodi.sourceforge.net/DTD/sodipodi-0.dtd"
   xmlns:xlink="http://www.w3.org/1999/xlink"
   xmlns="http://www.w3.org/2000/svg"
   xmlns:svg="http://www.w3.org/2000/svg">
  <sodipodi:namedview
     id="namedview3"
     pagecolor="#ffffff"
     bordercolor="#000000"
     borderopacity="0.25"
     inkscape:showpageshadow="2"
     inkscape:pageopacity="0.0"
     inkscape:pagecheckerboard="0"
     inkscape:deskcolor="#d1d1d1"
     inkscape:zoom="31.081287"
     inkscape:cx="33.894992"
     inkscape:cy="48.694894"
     inkscape:current-layer="svg3" />
  <defs
     id="defs2">
    <linearGradient
       id="linearGradient4">
      <stop
         offset="0"
         style="stop-color:#383838;stop-opacity:1;"
         id="stop3" />
      <stop
         offset="1"
         style="stop-color:#727272;stop-opacity:1;"
         id="stop4" />
    </linearGradient>
    <radialGradient
       xlink:href="#a"
       id="b"
       cx="21.477"
       cy="23.352"
       r="22"
       fx="21.477"
       fy="23.352"
       gradientTransform="matrix(5.24376 0 0 4.28655 -93.169 -54.972)"
       gradientUnits="userSpaceOnUse" />
    <linearGradient
       id="a">
      <stop
         offset="0"
         style="stop-color:#454545;stop-opacity:1;"
         id="stop1" />
      <stop
         offset="1"
         style="stop-color:#070707;stop-opacity:1;"
         id="stop2" />
    </linearGradient>
    <radialGradient
       xlink:href="#linearGradient12"
       id="d-3"
       cx="32"
       cy="32"
       r="28"
       fx="32"
       fy="32"
       gradientTransform="matrix(0.50603073,0,0,0.50603073,15.807097,24.117754)"
       gradientUnits="userSpaceOnUse" />
    <linearGradient
       id="linearGradient12">
      <stop
         offset="0"
         style="stop-color:#000000;stop-opacity:1;"
         id="stop11" />
      <stop
         offset="1"
         style="stop-color:#252525;stop-opacity:1;"
         id="stop12" />
    </linearGradient>
    <radialGradient
       xlink:href="#linearGradient14"
       id="d-9"
       cx="32"
       cy="32"
       r="28"
       fx="32"
       fy="32"
       gradientTransform="matrix(0.47021601,0,0,0.47021601,16.953163,25.263817)"
       gradientUnits="userSpaceOnUse" />
    <linearGradient
       id="linearGradient14">
      <stop
         offset="0"
         style="stop-color:#6b6b6b;stop-opacity:1;"
         id="stop13" />
      <stop
         offset="1"
         style="stop-color:#252525;stop-opacity:1;"
         id="stop14" />
    </linearGradient>
    <radialGradient
       xlink:href="#a-7"
       id="f-6"
       cx="32"
       cy="32"
       r="16"
       fx="32"
       fy="32"
       gradientTransform="matrix(0.52203596,-0.52203596,0.52203596,0.52203596,-1.4102011,40.310439)"
       gradientUnits="userSpaceOnUse" />
    <linearGradient
       id="a-7">
      <stop
         offset="0"
         style="stop-color:#060606;stop-opacity:1;"
         id="stop4-5" />
      <stop
         offset="1"
         style="stop-color:#2a2a2a;stop-opacity:1;"
         id="stop3-3" />
    </linearGradient>
    <filter
       id="e-5"
       width="1.3655403"
       height="1.3655403"
       x="-0.18277017"
       y="-0.18277017"
       style="color-interpolation-filters:sRGB">
      <feGaussianBlur
         stdDeviation="2.395269"
         id="feGaussianBlur4-6" />
    </filter>
    <radialGradient
       inkscape:collect="always"
       xlink:href="#linearGradient15"
       id="radialGradient16"
       cx="-33.240273"
       cy="-27.371233"
       fx="-33.240273"
       fy="-27.371233"
       r="7.9306374"
       gradientUnits="userSpaceOnUse"
       gradientTransform="matrix(0.491139,0,0,0.491139,-16.283553,-24.594168)" />
    <linearGradient
       id="linearGradient15"
       inkscape:collect="always">
      <stop
         style="stop-color:#4f4f4f;stop-opacity:1;"
         offset="0"
         id="stop15" />
      <stop
         style="stop-color:#323232;stop-opacity:1;"
         offset="1"
         id="stop16" />
    </linearGradient>
    <radialGradient
       xlink:href="#linearGradient8"
       id="d-1"
       cx="34.885468"
       cy="21.231283"
       r="28"
       fx="34.885468"
       fy="21.231283"
       gradientTransform="matrix(-0.19483313,0.19483313,-0.19483313,-0.19483313,43.552214,11.459224)"
       gradientUnits="userSpaceOnUse" />
    <linearGradient
       id="linearGradient8">
      <stop
         offset="0"
         style="stop-color:#0d0d0d;stop-opacity:1;"
         id="stop8" />
      <stop
         offset="1"
         style="stop-color:#252525;stop-opacity:1;"
         id="stop7" />
    </linearGradient>
    <radialGradient
       xlink:href="#linearGradient18"
       id="d-1-5"
       cx="34.885468"
       cy="21.231283"
       r="28"
       fx="34.885468"
       fy="21.231283"
       gradientTransform="matrix(-0.06731486,0.06731486,-0.06731486,-0.06731486,48.595905,9.8807106)"
       gradientUnits="userSpaceOnUse" />
    <linearGradient
       id="linearGradient18">
      <stop
         offset="0"
         style="stop-color:#00ff20;stop-opacity:1;"
         id="stop17" />
      <stop
         offset="1"
         style="stop-color:#00ad5d;stop-opacity:1;"
         id="stop18" />
    </linearGradient>
    <linearGradient
       id="linearGradient21">
      <stop
         offset="0"
         style="stop-color:#00ff20;stop-opacity:1;"
         id="stop20" />
      <stop
         offset="1"
         style="stop-color:#7cd5ac;stop-opacity:1;"
         id="stop21" />
    </linearGradient>
    <radialGradient
       id="SVGID_1_-3-2"
       cx="-159.431"
       cy="15.463"
       r="64.707001"
       fx="-159.431"
       fy="15.463"
       gradientTransform="matrix(-0.89413,0,0,0.96305,-58.788,46.296)"
       gradientUnits="userSpaceOnUse">
      <stop
         id="stop1-6-9"
         offset="0"
         style="stop-color:#006fff;stop-opacity:1" />
      <stop
         id="stop2-7-1"
         offset="1"
         style="stop-color:#15baff;stop-opacity:1" />
    </radialGradient>
    <filter
       id="filter4"
       width="1.1416429"
       height="1.1416429"
       x="-0.07082143"
       y="-0.07082143"
       style="color-interpolation-filters:sRGB">
      <feGaussianBlur
         id="feGaussianBlur4-9"
         stdDeviation="1.59" />
    </filter>
    <filter
       inkscape:collect="always"
       style="color-interpolation-filters:sRGB"
       id="filter7"
       x="-0.085746121"
       y="-0.099332219"
       width="1.1714922"
       height="1.1986644">
      <feGaussianBlur
         inkscape:collect="always"
         stdDeviation="1.3937363"
         id="feGaussianBlur7" />
    </filter>
    <radialGradient
       xlink:href="#a-9"
       id="b-0"
       cx="21.476999"
       cy="23.351999"
       r="22"
       fx="21.476999"
       fy="23.351999"
       gradientTransform="matrix(5.24376,0,0,4.28655,-93.169,-54.972)"
       gradientUnits="userSpaceOnUse" />
    <linearGradient
       id="a-9">
      <stop
         offset="0"
         style="stop-color:#494949;stop-opacity:1"
         id="stop1-1" />
      <stop
         offset="1"
         style="stop-color:#9c9c9c;stop-opacity:1"
         id="stop2-7" />
    </linearGradient>
    <radialGradient
       xlink:href="#linearGradient4"
       id="b-0-7"
       cx="21.476999"
       cy="23.351999"
       r="22"
       fx="21.476999"
       fy="23.351999"
       gradientTransform="matrix(4.785138,0,0,3.9116461,-82.221653,-47.19951)"
       gradientUnits="userSpaceOnUse" />
    <radialGradient
       xlink:href="#linearGradient4"
       id="b-0-7-7"
       cx="21.476999"
       cy="23.351999"
       r="22"
       fx="21.476999"
       fy="23.351999"
       gradientTransform="matrix(4.785138,0,0,3.9116461,-82.221653,-47.19951)"
       gradientUnits="userSpaceOnUse" />
  </defs>
  <path
     d="M 12.75,4 C 11.226,4 10,5.249 10,6.8 v 50.4 c 0,1.551 1.227,2.8 2.75,2.8 h 38.5 C 52.773,60 54,58.751 54,57.2 V 20 L 38,4 Z"
     style="fill:url(#b-0);fill-opacity:1"
     id="path2" />
  <path
     d="m 13.305676,5.9180997 c -0.765627,0 -1.381544,0.6274722 -1.381544,1.4066631 V 56.269903 c 0,1.003717 0.794043,1.811997 1.77964,1.811997 h 36.514259 c 1.028905,0 1.857837,-0.843797 1.857837,-1.891617 V 18.262853 L 39.697941,5.9180997 Z"
     style="fill:url(#b-0-7);fill-opacity:1;stroke-width:0.912539"
     id="path2-7"
     sodipodi:nodetypes="ssssssccs" />
  <path
     d="M 38,4 V 17.333 A 2.667,2.667 0 0 0 40.667,20 H 54 Z"
     style="opacity:0.36674;fill:#ffffff;fill-opacity:1"
     id="path3" />
  <circle
     cx="32"
     cy="40.310616"
     r="13.751892"
     style="fill:url(#d-3);stroke-width:0.491139"
     id="circle6" />
  <circle
     cx="32"
     cy="40.310616"
     r="12.778591"
     style="fill:url(#d-9);stroke-width:0.456378"
     id="circle6-4" />
  <circle
     cx="32"
     cy="40.310616"
     r="11.807727"
     style="opacity:0.278368;fill:#000000;fill-opacity:1;stroke-width:0.536717"
     id="circle7" />
  <circle
     cx="32"
     cy="40.310616"
     r="7.8582239"
     style="fill:url(#f-6);stroke-width:0.491139"
     id="circle9" />
  <path
     d="m 43.290803,41.973538 c -4.889116,0 -8.822219,4.006892 -8.822219,8.982624 v 6.331144 c 0,0.440148 0.348202,0.794594 0.780405,0.794594 h 14.969042 c 1.028905,0 1.857837,-0.843797 1.857837,-1.891617 v -8.803341 l -5.427952,-5.413404 z"
     style="fill:url(#b-0-7-7);fill-opacity:1;stroke-width:0.912539"
     id="path2-7-6"
     sodipodi:nodetypes="ssssssccs" />
  <circle
     cx="-32"
     cy="-40.310616"
     r="3.8950453"
     style="fill:url(#radialGradient16);stroke-width:0.486881"
     id="circle10"
     transform="scale(-1)" />
  <circle
     cx="32"
     cy="16.428766"
     r="5.8277826"
     style="fill:url(#d-1);stroke-width:0.208135"
     id="circle6-2" />
  <path
     d="m 42.854224,49.314373 -2.189016,2.573539 h 0.875858 c 0.03072,0 0.06124,0.0017 0.0911,0.005 l 2.192786,-2.578567 z m 1.335149,0 2.192786,2.578565 c 0.02987,-0.0033 0.06038,-0.005 0.0911,-0.005 h 0.875858 l -2.189016,-2.573539 z"
     style="baseline-shift:baseline;display:inline;overflow:visible;opacity:0.54246988;fill:#000000;fill-opacity:1;stroke-width:0.69999995;enable-background:accumulate;stop-color:#000000;stroke-dasharray:none;stroke:#000000;stroke-opacity:1"
     id="path7" />
  <path
     d="m 27.441263,15.017388 c -1.262331,0 -2.278534,1.068991 -2.278534,2.393712 v 7.1778 c 0,1.324721 1.016203,2.393712 2.278534,2.393712 h 9.117474 c 1.262331,0 2.278534,-1.068991 2.278534,-2.393712 v -7.1778 c 0,-1.324721 -1.016203,-2.393712 -2.278534,-2.393712 z M 14.662762,37.30807 c -1.200997,0 -2.167825,1.017051 -2.167825,2.277407 v 6.829046 c 0,1.260356 0.966828,2.277407 2.167825,2.277407 h 8.674476 c 1.200997,0 2.167825,-1.017051 2.167825,-2.277407 v -6.829046 c 0,-1.260356 -0.966828,-2.277407 -2.167825,-2.277407 z m 26,0 c -1.200997,0 -2.167825,1.017051 -2.167825,2.277407 v 6.830634 c 0,1.261169 0.966828,2.275819 2.167825,2.275819 h 8.674476 c 1.200997,0 2.167825,-1.01465 2.167825,-2.275819 v -6.830634 c 0,-1.261169 -0.966828,-2.277407 -2.167825,-2.277407 z"
     style="fill:#ffffff;filter:url(#filter7)"
     id="path6-4"
     sodipodi:nodetypes="sssssssssssssssssssssssssss"
     transform="matrix(0.32169233,0,0,0.32169233,33.71301,40.306988)" />
  <path
     d="m 42.291263,44.810681 c -0.47514,0 -0.857637,0.402366 -0.857637,0.900989 v 2.701713 c 0,0.498624 0.382497,0.90099 0.857637,0.90099 h 3.431803 c 0.47514,0 0.857637,-0.402366 0.857637,-0.90099 V 45.71167 c 0,-0.498623 -0.382497,-0.900989 -0.857637,-0.900989 z m -4.182,7.077231 c -0.47514,0 -0.857637,0.402367 -0.857637,0.90099 v 2.701713 c 0,0.498623 0.382497,0.900989 0.857637,0.900989 h 3.431803 c 0.47514,0 0.857637,-0.402366 0.857637,-0.900989 v -2.701713 c 0,-0.498623 -0.382497,-0.90099 -0.857637,-0.90099 z m 8.364,0 c -0.475139,0 -0.857637,0.402367 -0.857637,0.90099 v 2.702341 c 0,0.498945 0.382498,0.900361 0.857637,0.900361 h 3.431804 c 0.475139,0 0.857636,-0.401416 0.857636,-0.900361 v -2.702341 c 0,-0.498945 -0.382497,-0.90099 -0.857636,-0.90099 z"
     style="opacity:0.691773;fill:#ffffff;stroke-width:0.321692"
     id="path6" />
</svg>
