<svg xmlns="http://www.w3.org/2000/svg" xmlns:xlink="http://www.w3.org/1999/xlink" width="64" height="64"><defs><radialGradient xlink:href="#a" id="b" cx="16" cy="48.463" r="22" fx="16" fy="48.463" gradientTransform="rotate(-30 -155.768 126.492)scale(2.46363 3.13553)" gradientUnits="userSpaceOnUse"/><linearGradient id="a"><stop offset="0" style="stop-color:#4f4f4f;stop-opacity:1"/><stop offset="1" style="stop-color:#6a6a6a;stop-opacity:1"/></linearGradient></defs><path d="M22.75 2C21.227 2 20 3.249 20 4.8v50.4c0 1.55 1.227 2.8 2.75 2.8h38.5c1.522 0 2.75-1.25 2.75-2.8V20L46 2Z" style="fill:url(#b)" transform="translate(-10 2)"/><path d="M64 20 46 2v15.188A2.806 2.806 0 0 0 48.813 20Z" style="opacity:.395668;fill:#fff;fill-opacity:1" transform="translate(-10 2)"/><path d="M-12.048 27.905h-.948c-.682 6.332-3.26 7.099-9.213 7.099h-9.044l9.25-10.511c.341-.38.341-.607.341-.607 0-.19-.151-.379-.265-.53l-8.927-10.55h8.758c6.408 0 8.304.69 9.1 6.682h.948l-1.061-8.532h-21.044c-.91 0-.986 0-.986.873l10.152 12.893-9.735 11.108c-.38.417-.38.493-.38.607 0 .417.38.417.949.417h21.044z" style="fill:#b4b4b4" transform="matrix(-1.12596 0 0 1.0812 5.435 14.154)"/></svg>