<svg xmlns="http://www.w3.org/2000/svg" xmlns:xlink="http://www.w3.org/1999/xlink" width="64" height="64"><defs><radialGradient xlink:href="#a" id="b" cx="17.386" cy="47.039" r="22" fx="17.386" fy="47.039" gradientTransform="rotate(-45 -113.287 148.239)scale(2.8598 3.63975)" gradientUnits="userSpaceOnUse"/><linearGradient id="a"><stop offset="0" style="stop-color:#ff4f54;stop-opacity:1"/><stop offset="1" style="stop-color:#fa7e6a;stop-opacity:1"/></linearGradient></defs><path d="M12.75 4C11.226 4 10 5.249 10 6.8v50.4c0 1.55 1.227 2.8 2.75 2.8h38.5c1.522 0 2.75-1.25 2.75-2.8V22L36 4Z" style="fill:url(#b)"/><path d="M54 22 36 4v15.188A2.806 2.806 0 0 0 38.813 22Z" style="fill:#fff;fill-opacity:1;opacity:.45713879"/><g style="fill:#fefefe;fill-opacity:1;stroke-width:.991768"><path d="M41.473 41.46a3.7 3.7 0 0 0-1.4.218c-.342.121-.52.4-.52.4s.213-.086.696-.186c1.97-.41 4.793 2.638-1.312 5.81a.5.5 0 0 1-.124.16c7.135-1.875 5.733-6.254 2.66-6.401M27.924 41.14c-.778.02-2.598.187-4.716 1.211-3.34 1.616 8.26 2.352 14.266.772.625-.426 1.487-.796 1.487-.796s-2.456.44-4.903.646c-2.995.25-6.213.3-7.826.084-3.82-.51 2.096-1.915 2.096-1.915s-.144-.01-.404-.003M26.95 45.364c-5.512 1.83 3.067 3.905 10.769 1.653-.819-.289-1.34-.817-1.34-.817-3.763.724-5.939.703-8.693.419-2.13-.22-.736-1.255-.736-1.255M27.731 49.312c-5.003 1.398 3.042 4.286 9.412 1.556-1.044-.406-1.789-.875-1.789-.875-2.841.538-4.16.578-6.74.284-2.128-.245-.883-.965-.883-.965" style="fill:#fefefe;fill-opacity:1;stroke-width:.991768" transform="translate(-.806 -.401)scale(1.0083)"/><path d="M24.496 51.542c-2.15-.083-7.032 2.065-2.865 2.74 12.988 2.107 23.675-.95 20.306-2.469 0 0 .92.759-1.013 1.345-3.677 1.114-15.303 1.451-18.533.045-1.161-.505 1.016-1.207 1.7-1.354.715-.154 1.125-.123 1.125-.123-.161-.114-.413-.172-.72-.184" style="fill:#fefefe;fill-opacity:1;stroke-width:.991768" transform="translate(-.806 -.401)scale(1.0083)"/><path d="M44 52.918s-.41 1.05-4.843 1.885c-5.002.941-11.171.832-14.83.23 0-.001.75.618 4.601.865 5.86.375 14.859-.207 15.072-2.98M35.523 23.46c1.364 5.372-4.81 6.997-7.038 10.343-1.518 2.28.743 4.726 3.826 7.508-1.202-2.717-5.28-5.094.003-9.266 6.588-5.201 3.209-8.586 3.209-8.586" style="fill:#fefefe;fill-opacity:1;stroke-width:.991768" transform="translate(-.806 -.401)scale(1.0083)"/><path d="M39.257 30.106s-11.138 2.783-5.817 8.914c1.57 1.807-.413 3.434-.413 3.434s3.986-2.058 2.156-4.635c-1.71-2.402-3.023-3.597 4.074-7.713" style="fill:#fefefe;fill-opacity:1;stroke-width:.991768" transform="translate(-.806 -.401)scale(1.0083)"/></g></svg>