<svg xmlns="http://www.w3.org/2000/svg" xmlns:xlink="http://www.w3.org/1999/xlink" width="64" height="64"><defs><radialGradient xlink:href="#a" id="b" cx="13.687" cy="51.763" r="22" fx="13.687" fy="51.763" gradientTransform="rotate(-30 -182.789 152.287)scale(2.55216 3.2482)" gradientUnits="userSpaceOnUse"/><linearGradient id="a"><stop offset="0" style="stop-color:#a660ff;stop-opacity:1"/><stop offset="1" style="stop-color:#c673ff;stop-opacity:1"/></linearGradient></defs><path d="M12.75 4C11.227 4 10 5.249 10 6.8v50.4c0 1.55 1.227 2.8 2.75 2.8h38.5c1.522 0 2.75-1.25 2.75-2.8V22L36 4Z" style="fill:url(#b)"/><path d="M54 22 36 4v15.188A2.806 2.806 0 0 0 38.813 22Z" style="opacity:.523832;fill:#fff;fill-opacity:1"/><path d="M22.714 30C20.657 30 19 31.635 19 33.667v14.666C19 50.365 20.657 52 22.714 52h18.572C43.343 52 45 50.365 45 48.333V30h-3.714l1.857 3.367L41.286 37H37.57l1.858-3.633L37.57 30h-3.714l1.857 3.367L33.857 37h-3.714L32 33.367 30.143 30h-3.714l1.857 3.367L26.429 37h-3.715l1.857-3.633Z" style="fill:#fff;fill-opacity:1"/></svg>