<svg xmlns="http://www.w3.org/2000/svg" xmlns:xlink="http://www.w3.org/1999/xlink" width="64" height="64"><defs><radialGradient xlink:href="#a" id="b" cx="13.687" cy="51.763" r="22" fx="13.687" fy="51.763" gradientTransform="rotate(-30 -182.789 152.287)scale(2.55216 3.2482)" gradientUnits="userSpaceOnUse"/><linearGradient id="a"><stop offset="0" style="stop-color:#a660ff;stop-opacity:1"/><stop offset="1" style="stop-color:#c673ff;stop-opacity:1"/></linearGradient></defs><path d="M12.75 4C11.227 4 10 5.249 10 6.8v50.4c0 1.55 1.227 2.8 2.75 2.8h38.5c1.522 0 2.75-1.25 2.75-2.8V22L36 4Z" style="fill:url(#b)"/><path d="M54 22 36 4v15.188A2.806 2.806 0 0 0 38.813 22Z" style="opacity:.523832;fill:#fff;fill-opacity:1"/><path d="M16 34v3h3v10h3V37h3v-3zm22 0 3 7-3 6h3l2-4 2 4h3l-3-6 3-7h-3l-2 4.6-2-4.6Zm-11 2v13h9v-3h-6v-2h6v-3h-6v-2h6v-3z" style="fill:#fff;fill-opacity:1"/></svg>