<svg xmlns="http://www.w3.org/2000/svg" xmlns:xlink="http://www.w3.org/1999/xlink" width="64" height="64"><defs><radialGradient xlink:href="#a" id="c" cx="21.477" cy="23.352" r="22" fx="21.477" fy="23.352" gradientTransform="matrix(5.24376 0 0 4.28655 -93.169 -54.972)" gradientUnits="userSpaceOnUse"/><radialGradient xlink:href="#b" id="d" cx="21.774" cy="47.505" r="15" fx="21.774" fy="47.505" gradientTransform="rotate(-30 -86.654 206.954)scale(3.43513 2.93159)" gradientUnits="userSpaceOnUse"/><linearGradient id="b"><stop offset="0" style="stop-color:#fff5f5;stop-opacity:1"/><stop offset="1" style="stop-color:#ffc7b9;stop-opacity:1"/></linearGradient><linearGradient id="a"><stop offset="0" style="stop-color:#f05656;stop-opacity:1"/><stop offset="1" style="stop-color:#ff764c;stop-opacity:1"/></linearGradient></defs><path d="M12.75 4C11.226 4 10 5.249 10 6.8v50.4c0 1.551 1.227 2.8 2.75 2.8h38.5c1.523 0 2.75-1.249 2.75-2.8V20L38 4Z" style="fill:url(#c);fill-opacity:1"/><path d="M38 4v13.333A2.667 2.667 0 0 0 40.667 20H54Z" style="opacity:.593376;fill:#fff;fill-opacity:1"/><path d="M19.045 32c-1.11 0-2.045.95-2.045 2.076v13.848C17 49.05 17.935 50 19.045 50h25.91c1.11 0 2.045-.95 2.045-2.076V34.076C47 32.95 46.065 32 44.955 32Zm1.64 3h22.63a.684.684 45 0 1 .685.684v10.632a.684.684 135 0 1-.684.684H20.684a.684.684 45 0 1-.684-.684V35.684a.684.684 135 0 1 .684-.684M22 37.659v6.89A1.45 1.45 45 0 0 23.452 46h.096A1.45 1.45 135 0 0 25 44.548v-4.247l1.257 1.437a1.65 1.65 0 0 0 2.486 0L30 40.3v4.247A1.45 1.45 45 0 0 31.452 46h.096A1.45 1.45 135 0 0 33 44.548v-6.89A1.66 1.66 45 0 0 31.341 36h-.03a2.89 2.89 155.592 0 0-2.174.986L27.5 38.857l-1.637-1.87A2.89 2.89 24.408 0 0 23.69 36h-.031A1.66 1.66 135 0 0 22 37.659m15-.124V42h-2.5l3.173 3.627a1.1 1.1 24.407 0 0 .823.373h.008a1.1 1.1 155.593 0 0 .823-.373L42.5 42H40v-4.465A1.535 1.535 45 0 0 38.465 36 1.5 1.5 133.674 0 0 37 37.535" style="fill:url(#d)"/></svg>