<svg xmlns="http://www.w3.org/2000/svg" xmlns:xlink="http://www.w3.org/1999/xlink" width="64" height="64"><defs><radialGradient xlink:href="#a" id="b" cx="17.222" cy="49.789" r="22" fx="17.222" fy="49.789" gradientTransform="rotate(-30 -188.055 143.776)scale(2.71047 3.44969)" gradientUnits="userSpaceOnUse"/><linearGradient id="a"><stop offset="0" style="stop-color:#656bff;stop-opacity:1"/><stop offset="1" style="stop-color:#a057ff;stop-opacity:1"/></linearGradient></defs><path d="M24.75 0C23.227 0 22 1.249 22 2.8v50.4c0 1.55 1.227 2.8 2.75 2.8h38.5c1.522 0 2.75-1.25 2.75-2.8V18L48 0Z" style="fill:url(#b)" transform="translate(-12 4)"/><path d="M66 18 48 0v15.188A2.806 2.806 0 0 0 50.813 18Z" style="opacity:.448535;fill:#fff;fill-opacity:1" transform="translate(-12 4)"/><path d="m18 27 7.222 13L18 53h4.333l7.223-13-7.223-13z" style="fill:#fff;fill-opacity:1"/><path d="m25.222 27 7.222 13-7.222 13h4.334l5.055-9.101L39.667 53H44L29.556 27Z" style="fill:#fff;fill-opacity:1;opacity:.57000069"/><path d="m37.656 36 1.666 3H46v-3zm3.332 6 1.668 3H46v-3z" style="fill:#fff;fill-opacity:1"/></svg>