<svg xmlns="http://www.w3.org/2000/svg" xmlns:xlink="http://www.w3.org/1999/xlink" width="64" height="64"><defs><radialGradient xlink:href="#a" id="c" cx="16" cy="48.463" r="22" fx="16" fy="48.463" gradientTransform="rotate(-30 -155.768 126.492)scale(2.46363 3.13553)" gradientUnits="userSpaceOnUse"/><radialGradient xlink:href="#b" id="d" cx="28.397" cy="51.837" r="15.007" fx="28.397" fy="51.837" gradientTransform="rotate(-45 3.384 103.71)scale(1.94724 1.80185)" gradientUnits="userSpaceOnUse"/><linearGradient id="b"><stop offset="0" style="stop-color:#ffea00;stop-opacity:1"/><stop offset="1" style="stop-color:#ffa400;stop-opacity:1"/></linearGradient><linearGradient id="a"><stop offset="0" style="stop-color:#4f4f4f;stop-opacity:1"/><stop offset="1" style="stop-color:#6a6a6a;stop-opacity:1"/></linearGradient></defs><path d="M22.75 2C21.227 2 20 3.249 20 4.8v50.4c0 1.55 1.227 2.8 2.75 2.8h38.5c1.522 0 2.75-1.25 2.75-2.8V20L46 2Z" style="fill:url(#c)" transform="translate(-10 2)"/><path d="M64 20 46 2v15.188A2.806 2.806 0 0 0 48.813 20Z" style="opacity:.395668;fill:#fff;fill-opacity:1" transform="translate(-10 2)"/><path d="M32.12 29.683s-1.151 1.005-2.324 1.91c-1.206-.038-3.57.233-4.852.7a20 20 0 0 1-2.219-1.672s-.886 1.624-1.443 2.522c-.827.441-1.658.938-2.398 1.594-.86-.343-1.858-.855-1.89-.868 1.139 2.305 1.905 4.613 3.989 6 1.657-2.623 6.33-3.674 11.015-3.62 4.7.052 9.413 1.217 11.109 3.592 2.188-1.145 3.04-3.61 3.9-5.884-.095.03-1.265.519-2.024.81-.454-.496-1.522-1.256-2.13-1.624-.575-1.058-1.413-2.58-1.413-2.58s-.995.834-2.145 1.642c-1.555-.288-3.436-.638-5.018-.551a35 35 0 0 1-2.158-1.971m13.916 9.047c-1.358 2.018-3.569 3.41-4.93 4.16-.967.532-3.196.853-3.196.853l-5.859-2.805-5.891 2.744s-2.202-.355-3.199-.822c-2.011-1.078-3.364-2.349-4.79-4.091l2.737 6.648c4.754 6.29 16.894 6.729 22.186.123 1.252-2.831 2.942-6.81 2.942-6.81" style="fill:url(#d);stroke-width:.937926"/></svg>