<svg xmlns="http://www.w3.org/2000/svg" xmlns:xlink="http://www.w3.org/1999/xlink" width="64" height="64"><defs><radialGradient xlink:href="#a" id="b" cx="20.238" cy="45.446" r="22" fx="20.238" fy="45.446" gradientTransform="rotate(-30 -198.014 154.066)scale(2.62906 3.34608)" gradientUnits="userSpaceOnUse"/><linearGradient id="a"><stop offset="0" style="stop-color:#00b1ff;stop-opacity:1"/><stop offset="1" style="stop-color:#136dff;stop-opacity:1"/></linearGradient></defs><path d="M12.71 3.939c-1.523 0-2.75 1.248-2.75 2.8v50.4c0 1.55 1.227 2.8 2.75 2.8h38.5c1.523 0 2.75-1.25 2.75-2.8v-35.2l-18-18z" style="fill:url(#b)" transform="translate(.04 .061)"/><path d="m53.96 21.939-18-18v15.187a2.806 2.806 0 0 0 2.813 2.813z" style="opacity:.533302;fill:#fff;fill-opacity:1" transform="translate(.04 .061)"/><path d="M32 26c-1.246 3.056-1.999 5.057-3.387 8.022.852.902 1.896 1.947 3.591 3.134-1.823-.75-3.065-1.499-3.995-2.28C26.433 38.58 23.647 43.854 18 54c4.438-2.561 8.12-4.139 11.326-4.742a8 8 0 0 1-.21-1.903l.005-.138c.07-2.843 1.31-5.365 3.062-5.217s2.774 2.912 2.703 5.755a8 8 0 0 1-.178 1.525C37.878 49.9 41.625 51.474 46 54a1484 1484 0 0 1-2.372-4.382c-1.16-.899-2.366-2.068-4.832-3.334 1.694.441 2.912.948 3.857 1.516-7.48-13.928-8.088-15.779-10.652-21.8Z" style="fill:#fff;fill-opacity:1"/></svg>