<svg xmlns="http://www.w3.org/2000/svg" xmlns:xlink="http://www.w3.org/1999/xlink" width="64" height="64"><defs><radialGradient xlink:href="#a" id="b" cx="17.222" cy="49.789" r="22" fx="17.222" fy="49.789" gradientTransform="rotate(-30 -188.055 143.776)scale(2.71047 3.44969)" gradientUnits="userSpaceOnUse"/><linearGradient id="a"><stop offset="0" style="stop-color:#656bff;stop-opacity:1"/><stop offset="1" style="stop-color:#a057ff;stop-opacity:1"/></linearGradient></defs><path d="M24.75 0C23.227 0 22 1.249 22 2.8v50.4c0 1.55 1.227 2.8 2.75 2.8h38.5c1.522 0 2.75-1.25 2.75-2.8V18L48 0Z" style="fill:url(#b)" transform="translate(-12 4)"/><path d="M66 18 48 0v15.188A2.806 2.806 0 0 0 50.813 18Z" style="opacity:.448535;fill:#fff;fill-opacity:1" transform="translate(-12 4)"/><path d="m34 52.612-.038-1.388-1.945-.09c-1.99-.092-1.31-.224-1.665-.603-.36-.941-.352-3.098-.367-4.548l-.046-4.084.922.094c2.19.277 3.746 1.18 3.853 2.352l.084 1.456H38V34.089h-1.759c-.742 0-1.348.053-1.348.118 0 .064-.09.632-.199 1.26-1.085 2.657-2.403 2.425-4.731 2.62v-7.535l3.486.068c2.389.04 4.209.13 4.5.22 1.886.589 2.77 2.341 3.158 6.612l.089.548H44V28H20v2.814l1.45.059c1.607.065 2.403.247 2.55.773v9.422c0 9.728-.012 9.555-.704 9.82-.179.068-1.097.165-1.877.216L20 51.196V54h14.039z" style="fill:#fff"/></svg>