<svg xmlns="http://www.w3.org/2000/svg" xmlns:xlink="http://www.w3.org/1999/xlink" width="64" height="64"><defs><radialGradient xlink:href="#a" id="b" cx="20.238" cy="45.446" r="22" fx="20.238" fy="45.446" gradientTransform="rotate(-30 -198.014 154.066)scale(2.62906 3.34608)" gradientUnits="userSpaceOnUse"/><linearGradient id="a"><stop offset="0" style="stop-color:#00b1ff;stop-opacity:1"/><stop offset="1" style="stop-color:#136dff;stop-opacity:1"/></linearGradient></defs><path d="M12.71 3.939c-1.523 0-2.75 1.248-2.75 2.8v50.4c0 1.55 1.227 2.8 2.75 2.8h38.5c1.523 0 2.75-1.25 2.75-2.8v-35.2l-18-18z" style="fill:url(#b)" transform="translate(.04 .061)"/><path d="m53.96 21.939-18-18v15.187a2.806 2.806 0 0 0 2.813 2.813z" style="opacity:.533302;fill:#fff;fill-opacity:1" transform="translate(.04 .061)"/><path d="M31.602 29c-1.758 0-3.323.513-4.485 1.44-1.161.926-1.872 2.174-2.306 3.431-.87 2.515-.809 5.228-.809 7.328s-.066 4.723.82 7.16c.443 1.219 1.175 2.426 2.342 3.301S29.868 53 31.602 53c3.07 0 5.092-.92 6.21-2.162C38.932 49.595 39 48 39 48v-2h-4v2s.07-.095-.162.162-.907.838-3.236.838c-1.067 0-1.63-.235-2.038-.541s-.727-.76-.984-1.467c-.514-1.413-.578-3.693-.578-5.793s.06-4.486.59-6.021c.265-.768.606-1.282 1.02-1.612.413-.33.947-.566 1.99-.566 2.329 0 3.004.58 3.236.838.231.257.162.162.162.162v2h4v-2s-.07-1.595-1.187-2.838C36.694 29.92 34.67 29 31.602 29" style="fill:#fff;fill-opacity:1"/></svg>