<svg xmlns="http://www.w3.org/2000/svg" xmlns:xlink="http://www.w3.org/1999/xlink" width="64" height="64"><defs><radialGradient xlink:href="#a" id="b" cx="20.238" cy="45.446" r="22" fx="20.238" fy="45.446" gradientTransform="rotate(-30 -198.014 154.066)scale(2.62906 3.34608)" gradientUnits="userSpaceOnUse"/><linearGradient id="a"><stop offset="0" style="stop-color:#00b1ff;stop-opacity:1"/><stop offset="1" style="stop-color:#136dff;stop-opacity:1"/></linearGradient></defs><path d="M12.71 3.939c-1.523 0-2.75 1.248-2.75 2.8v50.4c0 1.55 1.227 2.8 2.75 2.8h38.5c1.523 0 2.75-1.25 2.75-2.8v-35.2l-18-18z" style="fill:url(#b)" transform="translate(.04 .061)"/><path d="m53.96 21.939-18-18v15.187a2.806 2.806 0 0 0 2.813 2.813z" style="opacity:.533302;fill:#fff;fill-opacity:1" transform="translate(.04 .061)"/><path d="M31 27c-7.18 0-13 5.82-13 13s5.82 13 13 13c.334-.002.667-.033 1-.06V48.9c-.332.04-.665.066-1 .067-4.786 0-9-4.18-9-8.967 0-4.786 4.214-8.967 9-8.967.335.002.668.03 1 .07v-4.037c-.333-.029-.666-.062-1-.066M39 29v3h-3v3h3v3h3v-3h3v-3h-3v-3zM39 43v3h-3v3h3v3h3v-3h3v-3h-3v-3z" style="fill:#fff;fill-opacity:1"/></svg>