<svg xmlns="http://www.w3.org/2000/svg" width="64" height="64"><path d="M12.75 5C11.226 5 10 6.249 10 7.8v50.4c0 1.55 1.227 2.8 2.75 2.8h38.5c1.522 0 2.75-1.25 2.75-2.8V23l-14-4-4-14Z" style="opacity:.2"/><path d="M12.75 4C11.226 4 10 5.249 10 6.8v50.4c0 1.55 1.227 2.8 2.75 2.8h38.5c1.522 0 2.75-1.25 2.75-2.8V22l-14-4-4-14Z" style="fill:#e4e4e4"/><path d="M54 23 36 5v15.188A2.806 2.806 0 0 0 38.813 23Z" style="opacity:.2"/><path d="M54 22 36 4v15.188A2.806 2.806 0 0 0 38.813 22Z" style="fill:#fafafa"/><path d="M12.75 4C11.226 4 10 5.25 10 6.8v1C10 6.25 11.226 5 12.75 5H36V4z" style="opacity:.2;fill:#fff"/><circle cx="24.5" cy="47.5" r="6.5" style="opacity:.1"/><circle cx="32.5" cy="34.5" r="6.5" style="opacity:.1"/><circle cx="39.5" cy="47.5" r="6.5" style="opacity:.1"/><circle cx="24.5" cy="46.5" r="6.5" style="fill:#c2352a"/><circle cx="32.5" cy="33.5" r="6.5" style="fill:#46a249"/><circle cx="39.5" cy="46.5" r="6.5" style="fill:#8e53ab"/></svg>