<svg xmlns="http://www.w3.org/2000/svg" xmlns:xlink="http://www.w3.org/1999/xlink" width="64" height="64"><defs><radialGradient xlink:href="#a" id="b" cx="13.687" cy="51.763" r="22" fx="13.687" fy="51.763" gradientTransform="rotate(-30 -182.789 152.287)scale(2.55216 3.2482)" gradientUnits="userSpaceOnUse"/><linearGradient id="a"><stop offset="0" style="stop-color:#a660ff;stop-opacity:1"/><stop offset="1" style="stop-color:#c673ff;stop-opacity:1"/></linearGradient></defs><path d="M12.75 4C11.227 4 10 5.249 10 6.8v50.4c0 1.55 1.227 2.8 2.75 2.8h38.5c1.522 0 2.75-1.25 2.75-2.8V22L36 4Z" style="fill:url(#b)"/><path d="M54 22 36 4v15.188A2.806 2.806 0 0 0 38.813 22Z" style="opacity:.523832;fill:#fff;fill-opacity:1"/><path d="M27.5 54V28.81c-1.751.657-2.43 1.29-3.41 2.689-.977 1.395-1.107 3.921-1.107 5.998q0 .711.074 1.167.09.437.182.71.091.255.164.401.09.145.091.255-.966 0-1.714-.182-.747-.2-1.258-.62-.493-.418-.767-1.11-.255-.693-.255-1.713c0-.826.232-2.317.528-3.14 1.283-3.565 5.648-5.86 9.026-6.87 1.043-.311 2.11-.383 3.155-.383.394-.05 1.261.07 1.291.072v22.959l8.392-22.85H44.5L34.124 54z" style="fill:#fff"/></svg>