<svg xmlns="http://www.w3.org/2000/svg" xmlns:xlink="http://www.w3.org/1999/xlink" width="64" height="64"><defs><radialGradient xlink:href="#a" id="b" cx="13.687" cy="51.763" r="22" fx="13.687" fy="51.763" gradientTransform="rotate(-30 -184.655 151.787)scale(2.55216 3.2482)" gradientUnits="userSpaceOnUse"/><linearGradient id="a"><stop offset="0" style="stop-color:#ff9e22;stop-opacity:1"/><stop offset="1" style="stop-color:#ff6122;stop-opacity:1"/></linearGradient></defs><path d="M12.75 3C11.226 3 10 4.249 10 5.8v50.4c0 1.55 1.226 2.8 2.75 2.8h38.5c1.522 0 2.75-1.25 2.75-2.8V21L36 3z" style="fill:url(#b)" transform="translate(0 1)"/><path d="M54 21 36 3v15.188A2.806 2.806 0 0 0 38.812 21z" style="opacity:.523832;fill:#fff;fill-opacity:1" transform="translate(0 1)"/><path d="M39.853 28.02c1.02.42 2.802-.436 2.684 1.359.122.947 2.37.696 2.965.886.41.446.153.874.38.851.716.7-6.44 2.123-2.236 1.004-1.12.664-1.332 3.235-1.23 2.516-.103 1.978-.391 4.107-1.612 5.743-.827 1.13-2.199 1.536-3.473 1.956.066 1.465-.583 2.935-.152 4.374-.143 1.589.443 3.136 1.201 4.513-.09 1.127 2.495.575 1.428 1.575-.693.695-2.822.394-2.34-1.044-.466-1.4-.6-2.937-1.379-4.209-.17-1.277-.889-2.383-1.11-3.657-.15-.67-.887-2.736-1.38-1.108-.48 1.62-1.566 3.062-1.656 4.784-.236.613-.268 2.531-.38 1.859.064 1.059-.158 2.186.286 3.178.876.608 1.522.814.442 1.227-.374.5-2.574.031-1.705-.977-1.297.395-1.73-1.599-1.518-.904-.653-1.174-.776-2.607-1.568-3.748-.973-1.61-.526-3.589-1.303-5.27-.377-.52-1.995-1.476-1.155-1.97.285 1.381-.498 2.546-.928 3.792 0 1.256-.123 2.457-.352 3.704.003 1.291-.361 2.68.07 3.913 1.098.77.923 1.122.431 1.365-.92.79-2.256-.245-1.45-1.381.231-2.03.214-4.075.009-6.105.16-1.136-.207-4.567.027-3.429-.208-.94.252-3.306-1.278-2.072-.559.227-2.208 1.112-1.26-.107.765-.415 1.919-.895 1.664-1.956-.145-1.315-.04-2.672.624-3.85.583-1.111 1.391-1.943 1.423-3.248.117-1.246 1.226-2.54 2.591-2.16.94.306 1.082 3.376 2.118 1.784.53-1.024.066-2.752 1.441-3.161 1.23-.318 2.622.376 2.952 1.619.195 1.558 1.75 2.281 2.328 3.658.533.913 1.07 2.524 2.437 2.04.826-1.007 1.337-3.332.603-3.91-.691-1.873.594-2.817.71-3.226.083-.379.419-.257.65-.208m-11.4 14.416c-.078 1.338.069 2.68-.03 4.02.148 1.532.5 3.09 1.186 4.476.309.544 1.294 1.543 1.232.242.349-1.312-.048-2.625-.154-3.93.346-1.463-.12-2.932-.058-4.41-1.312-.557-1.104.645-2.109-.453z" style="fill:#fff;stroke-width:0;stroke-dasharray:none"/></svg>