<svg xmlns="http://www.w3.org/2000/svg" xmlns:xlink="http://www.w3.org/1999/xlink" width="64" height="64"><defs><radialGradient xlink:href="#a" id="b" cx="20.238" cy="45.446" r="22" fx="20.238" fy="45.446" gradientTransform="rotate(-30 -198.014 154.066)scale(2.62906 3.34608)" gradientUnits="userSpaceOnUse"/><linearGradient id="a"><stop offset="0" style="stop-color:#00b1ff;stop-opacity:1"/><stop offset="1" style="stop-color:#136dff;stop-opacity:1"/></linearGradient></defs><path d="M12.71 3.939c-1.523 0-2.75 1.248-2.75 2.8v50.4c0 1.55 1.227 2.8 2.75 2.8h38.5c1.523 0 2.75-1.25 2.75-2.8v-35.2l-18-18z" style="fill:url(#b)" transform="translate(.04 .061)"/><path d="m53.96 21.939-18-18v15.187a2.806 2.806 0 0 0 2.813 2.813z" style="opacity:.533302;fill:#fff;fill-opacity:1" transform="translate(.04 .061)"/><rect width="8" height="8" x="18" y="30" rx="2" ry="2" style="fill:#fff"/><rect width="8" height="8" x="18" y="38" rx="2" ry="2" style="fill:#fff;fill-opacity:1;opacity:.59009276"/><rect width="8" height="8" x="18" y="46" rx="2" ry="2" style="fill:#fff"/><rect width="8" height="8" x="26" y="38" rx="2" ry="2" style="fill:#fff"/><rect width="8" height="8" x="26" y="46" rx="2" ry="2" style="fill:#fff;fill-opacity:1;opacity:.59009276"/><rect width="8.45" height="8.45" x="12.32" y="41.12" rx="2.113" ry="2.113" style="fill:#fff;fill-opacity:1;opacity:.59009276" transform="rotate(-30)"/><rect width="8" height="8" x="40" y="36" rx="2" ry="2" style="fill:#fff"/><rect width="8" height="8" x="34" y="46" rx="2" ry="2" style="fill:#fff"/></svg>