<svg xmlns="http://www.w3.org/2000/svg" xmlns:xlink="http://www.w3.org/1999/xlink" width="64" height="64"><defs><radialGradient xlink:href="#a" id="b" cx="20.238" cy="45.446" r="22" fx="20.238" fy="45.446" gradientTransform="rotate(-30 -198.014 154.066)scale(2.62906 3.34608)" gradientUnits="userSpaceOnUse"/><linearGradient id="a"><stop offset="0" style="stop-color:#00b1ff;stop-opacity:1"/><stop offset="1" style="stop-color:#136dff;stop-opacity:1"/></linearGradient></defs><path d="M12.71 3.939c-1.523 0-2.75 1.248-2.75 2.8v50.4c0 1.55 1.227 2.8 2.75 2.8h38.5c1.523 0 2.75-1.25 2.75-2.8v-35.2l-18-18z" style="fill:url(#b)" transform="translate(.04 .061)"/><path d="m53.96 21.939-18-18v15.187a2.806 2.806 0 0 0 2.813 2.813z" style="opacity:.533302;fill:#fff;fill-opacity:1" transform="translate(.04 .061)"/><path d="M23.375 31S20 31.002 20 34.334v10.332c0 1.847 1.528 3.358 3.428 3.334h7.388a3.24 3.24 25.96 0 1 2.553 1.243L35.529 52l2.244-2.773A3.3 3.3 154.49 0 1 40.345 48h.227S44 47.998 44 44.666V34.334C44 31.002 40.572 31 40.572 31Zm.643 2.7h13.964A1.02 1.02 45 0 1 39 34.718a1 1 136.041 0 1-1.018.982H24.018A1.02 1.02 45 0 1 23 34.682a1 1 136.041 0 1 1.018-.982m0 4.5h8.964A1.02 1.02 45 0 1 34 39.218a1 1 136.041 0 1-1.018.982h-8.964A1.02 1.02 45 0 1 23 39.182a1 1 136.041 0 1 1.018-.982m0 4.7h5.964A1.02 1.02 45 0 1 31 43.918a1 1 136.041 0 1-1.018.982h-5.964A1.02 1.02 45 0 1 23 43.882a1 1 136.041 0 1 1.018-.982" style="fill:#fff;fill-opacity:1"/></svg>