<svg xmlns="http://www.w3.org/2000/svg" xmlns:xlink="http://www.w3.org/1999/xlink" width="64" height="64"><defs><radialGradient xlink:href="#a" id="b" cx="17.222" cy="49.789" r="22" fx="17.222" fy="49.789" gradientTransform="rotate(-30 -188.055 143.776)scale(2.71047 3.44969)" gradientUnits="userSpaceOnUse"/><linearGradient id="a"><stop offset="0" style="stop-color:#656bff;stop-opacity:1"/><stop offset="1" style="stop-color:#a057ff;stop-opacity:1"/></linearGradient></defs><path d="M24.75 0C23.227 0 22 1.249 22 2.8v50.4c0 1.55 1.227 2.8 2.75 2.8h38.5c1.522 0 2.75-1.25 2.75-2.8V18L48 0Z" style="fill:url(#b)" transform="translate(-12 4)"/><path d="M66 18 48 0v15.188A2.806 2.806 0 0 0 50.813 18Z" style="opacity:.448535;fill:#fff;fill-opacity:1" transform="translate(-12 4)"/><path d="M35.482 32.003c-1.033-.036-2.631.283-4.44.89-1.113.373-1.691.454-3.224.448-1.285-.005-1.435-.019-3.042-.28-2.57-.42-3.001-.401-4.979.22-.49.155-.964.296-1.054.315-.455.094-1.225 1.178-2.115 2.974-.687 1.385-.78 2.027-.427 2.994.314.862.398 1.32.427 2.326.026.92.149 1.664.318 1.928.143.224.307.088.398-.327.092-.422.009-1.046-.253-1.893-.204-.662-.322-1.308-.294-1.612.02-.207.053-.174.857.949 1.33 1.857 1.016 1.83 1.013 2.355-.002.402-.036.523-.334 1.204-.33.753-.33.756-.328 1.384.002.684.013 1 .685 2.916.34.967.447 1.133.911 1.206h3.258c.017-.058-.07-.18-.362-.482-1.285-1.324-1.547-3.239-.794-4.432.32-.51 2.067-2.887 2.245-2.911.097-.014.25.091.53.365 1.462 1.42 2.982 1.724 5.695 1.265 1.327-.224 1.471-.22 1.657.07.147.23.206 1.856.247 3.799.043 2.056.01 1.997.628 2.12.57.114 1.559.205 1.78.162.267-.05.26-.15-.033-.392a1.7 1.7 0 0 1-.378-.49c-.129-.273-.138-.401-.106-1.21.032-.834.116-1.214.237-1.09.03.03.152.487.27 1.014.243 1.085.31 1.282.55 1.574.186.225.393.35.864.524.414.153.835.152 1.021-.003.125-.104.146-.175.146-.524v-.406l-.414-.457c-.882-.977-1.004-1.71-.57-3.429l.364-1.441c.121-.478.219-.943.219-1.033 0-.171.284-.624.763-.986.193-.145.303-.18.565-.18.293 0 .365.03.714.3.717.555 1.797.97 2.9 1.186.615.121 1.916.138 2.184.03.142-.057.208-.05.354.038.172.104.19.104.399-.01.38-.211.557-.481.672-1.023a3 3 0 0 1 .367-.93c1.135-1.914 1.928-3.409 2.143-4.272.096-.383.283-1.845.284-2.22 0-.337-.1-.233-.242.243-.24.81-.787 2.003-1.107 2.415-.465.598-1.449 1.521-1.62 1.521-.034 0-.043-.17-.019-.816.056-1.53-.011-1.731-.351-1.033-.227.466-.434.71-.745.874-.292.154-1.104.267-1.29.22-.238-.062-.572-1.541-.424-1.596.03-.011.194-.098.362-.192.37-.208.452-.426.45-1.18-.001-.535-.045-.794-.143-.827-.033-.01-.164.146-.292.35-.305.486-.865 1.111-.947 1.06-.036-.024-.478-.264-.494-.534-.032-.546-.165-.878-.474-1.179l-.19-.184-.323.328c-.178.18-.365.325-.414.324-.05 0-.328-.213-.615-.476-.855-.78-1.984-1.337-2.481-1.584-.44-.219-.51-.235-1.16-.257z" style="fill:#fff"/></svg>