<svg xmlns="http://www.w3.org/2000/svg" xmlns:xlink="http://www.w3.org/1999/xlink" width="64" height="64"><defs><radialGradient xlink:href="#a" id="b" cx="17.222" cy="49.789" r="22" fx="17.222" fy="49.789" gradientTransform="rotate(-30 -188.055 143.776)scale(2.71047 3.44969)" gradientUnits="userSpaceOnUse"/><linearGradient id="a"><stop offset="0" style="stop-color:#656bff;stop-opacity:1"/><stop offset="1" style="stop-color:#a057ff;stop-opacity:1"/></linearGradient></defs><path d="M24.75 0C23.227 0 22 1.249 22 2.8v50.4c0 1.55 1.227 2.8 2.75 2.8h38.5c1.522 0 2.75-1.25 2.75-2.8V18L48 0Z" style="fill:url(#b)" transform="translate(-12 4)"/><path d="M66 18 48 0v15.188A2.806 2.806 0 0 0 50.813 18Z" style="opacity:.448535;fill:#fff;fill-opacity:1" transform="translate(-12 4)"/><path d="M24.41 52.744s1.688.485 3.933.762c.91.112 3.648.504 6.301.494 0 0 4.032.004 5.816-.247 1.866-.263 2.924-.597 3.512-1.265.015-.16.284-.679-.441-1.18-1.855-1.28-4.332-1.63-8.989-2.724-5.15-1.281-6.689-2.508-7.458-3.395-.728-.89.137-1.917 4.287-2.824 2.101-.505 9.926-.598 9.926-.598-3.048-2.575-7.216-6.165-10.002-8.293-.177-.786 1.074-1.164 1.736-1.208 2.134-.145 5.624-.318 8.214.191 1.301.256 1.53.218 1.53.218 1.854.088 3.296-.873 3.222-2.896-.014-2.053-2.089-3.699-4.384-3.77-2.162-.068-7.49.305-7.49.305 6.21 1.266 7.225 1.59 7.548 2.33-1.449 2.956-12.524-1.909-15.555 1.017-.721.932.103 2.067.426 2.736 1.442 2.49 4.513 3.777 6.095 4.98.596.453 2.413 1.456 2.413 1.456-5.65-1.528-10.152-.67-13.007.815-3.281 1.922-2.72 5.165 2.486 8.196 3.076 1.79 4.607 2.65 9.642 3.262 2.943.465 3.381.655 3.359.897-.032.341-3.483.47-4.432.535-2.414.165-8.656.206-8.688.206z" style="fill:#fff"/></svg>