<svg xmlns="http://www.w3.org/2000/svg" width="64" height="64"><path d="M12.75 5C11.227 5 10 6.249 10 7.8v50.4c0 1.55 1.227 2.8 2.75 2.8h38.5c1.522 0 2.75-1.25 2.75-2.8V23l-14-4-4-14z" style="opacity:.2"/><path d="M12.75 4C11.227 4 10 5.249 10 6.8v50.4c0 1.55 1.227 2.8 2.75 2.8h38.5c1.522 0 2.75-1.25 2.75-2.8V22l-14-4-4-14z" style="fill:#4f4f4f"/><path d="M12.75 4C11.226 4 10 5.25 10 6.8v1C10 6.25 11.226 5 12.75 5H36V4Z" style="fill:#fff;opacity:.1"/><path d="M54 23 36 5v15.188A2.806 2.806 0 0 0 38.813 23z" style="opacity:.2"/><path d="M54 22 36 4v15.188A2.806 2.806 0 0 0 38.813 22z" style="fill:#696969"/><path d="M34.265 28.332c-.251.089-.858.33-1.493.763-.227.152-.939.66-1.585 1.439a9 9 0 0 0-.579.778.13.13 0 0 1-.124.062 27 27 0 0 0-3.431-.263 18 18 0 0 0-.996.02 12.5 12.5 0 0 0-1.765.207 8 8 0 0 0-1.468.423c-.132.057-.237.026-.31.007s-.136-.108-.201-.159c-.153-.221-.307-.429-.845-1.108-.537-.68-1.471-1.352-2.357-1.639a3.2 3.2 0 0 0-1.284-.155c-1.208.102-2.032.901-2.453 1.432v.002S14.015 31.532 14 34s.672 2.987 1.007 3.602a.85.85 0 0 1 .076.628v.002l-.001.006a14 14 0 0 0-.384 1.899v.002c-.12.938-.14 1.863-.078 2.779.049.923.223 1.83.405 2.734v.002c.539 2.42 1.503 4.832 2.492 7.357.225.574.498 1.355.483 2.189-.01.652-.212 1.29-.514 1.866v.002c-.585 1.12-1.705 1.976-3.234 2.467 0 0-.106.035-.174.114C13.999 59.742 14 60 14 60h30v-4c0-3.97-.293-7.693-.992-10.86-.241-1.095-.365-2.277-.749-3.497-.892-2.837-.2-5.841-.92-8.899a8.7 8.7 0 0 0-.536-1.57 6.1 6.1 0 0 0-1.211-1.748c-.397-.439-.911-.7-1.417-.982A4.6 4.6 0 0 0 36.221 28c-.79 0-1.523.182-1.956.332" style="fill:#fafafa"/><path d="M36.707 47c-.707 0-.97.894-1.491 1.288-2.701 2.757-6.276 4.74-10.15 5.192-1.52.186-3.252.016-4.706-.432-.677-.203-1.444.32-1.351 1.054.137 1.093 1.642 5.042 1.991 5.898h18s.076-8.398-1-12c0 0-.5-1-1.293-1" style="fill:#ccc"/><path d="M29.688 40.92a.664.699 49.6 0 0-.213.059q-1.814.794-2.901 2.558-1.175 1.902 1.018 2.318c2.429.463 5.473-3.078 2.512-4.843a.664.699 49.6 0 0-.416-.092M17.537 41a2.551.861 77.78 0 0-.103.014 2.551.861 77.78 0 0-.258 2.746 2.551.861 77.78 0 0 1.39 2.226 2.551.861 77.78 0 0 .258-2.746A2.551.861 77.78 0 0 17.537 41m3.461 8.139a4.7 4.7 0 0 0-1.314.197.554.567 86.5 0 0-.409.449c-.45 2.622 3.142 2.63 4.063.354a.374.374 0 0 0-.182-.479q-1.068-.527-2.158-.521"/></svg>