<svg xmlns="http://www.w3.org/2000/svg" xmlns:xlink="http://www.w3.org/1999/xlink" width="64" height="64"><defs><radialGradient xlink:href="#a" id="b" cx="16" cy="48.463" r="22" fx="16" fy="48.463" gradientTransform="rotate(-30 -157.036 146.153)scale(2.46363 3.13553)" gradientUnits="userSpaceOnUse"/><linearGradient id="a"><stop offset="0" style="stop-color:#4f4f4f;stop-opacity:1"/><stop offset="1" style="stop-color:#6a6a6a;stop-opacity:1"/></linearGradient></defs><path d="M12.75 4C11.226 4 10 5.249 10 6.8v50.4c0 1.55 1.227 2.8 2.75 2.8h38.5c1.522 0 2.75-1.25 2.75-2.8V22L36 4Z" style="fill:url(#b)"/><path d="M54 22 36 4v15.188A2.806 2.806 0 0 0 38.813 22Z" style="opacity:.395668;fill:#fff;fill-opacity:1"/><path d="M20 52v-3h15v3z" style="fill:#ff5722"/><path d="M20 46v-3h24v3z" style="fill:#ffc107"/><path d="M20 40v-3h24v3z" style="fill:#8bc34a"/><path d="M20 34v-3h24v3z" style="fill:#2196f3"/></svg>