<svg xmlns="http://www.w3.org/2000/svg" xmlns:xlink="http://www.w3.org/1999/xlink" width="64" height="64"><defs><radialGradient xlink:href="#a" id="b" cx="21.477" cy="23.352" r="22" fx="21.477" fy="23.352" gradientTransform="matrix(5.24376 0 0 4.28655 -90.169 -52.972)" gradientUnits="userSpaceOnUse"/><linearGradient id="a"><stop offset="0" style="stop-color:#ededed;stop-opacity:1"/><stop offset="1" style="stop-color:#b7b7b7;stop-opacity:1"/></linearGradient></defs><path d="M15.75 6C14.226 6 13 7.249 13 8.8v50.4c0 1.551 1.227 2.8 2.75 2.8h38.5c1.523 0 2.75-1.249 2.75-2.8V22L41 6Z" style="fill:url(#b);fill-opacity:1" transform="translate(-3 -2)"/><path d="M41 6v13.333A2.667 2.667 0 0 0 43.667 22H57Z" style="opacity:.593376;fill:#fff;fill-opacity:1" transform="translate(-3 -2)"/><path d="M32 27a14 14 0 0 0-14 14 14 14 0 0 0 14 14 14 14 0 0 0 14-14 14 14 0 0 0-14-14m0 3a11 11 0 0 1 11 11 11 11 0 0 1-11 11 11 11 0 0 1-11-11 11 11 0 0 1 11-11" style="fill:#3f3f3f"/><path d="M32 33a8 8 0 0 0-8 8 8 8 0 0 0 8 8 8 8 0 0 0 5.47-2.176l-2.468-1.832A5 5 0 0 1 32 46a5 5 0 0 1-5-5 5 5 0 0 1 5-5 5 5 0 0 1 3.041 1.04l2.47-1.835A8 8 0 0 0 32 33" style="fill:#3f3f3f"/></svg>