<svg xmlns="http://www.w3.org/2000/svg" xmlns:xlink="http://www.w3.org/1999/xlink" width="64" height="64"><defs><radialGradient xlink:href="#a" id="b" cx="21.477" cy="23.352" r="22" fx="21.477" fy="23.352" gradientTransform="matrix(5.24376 0 0 4.28655 -93.169 -54.972)" gradientUnits="userSpaceOnUse"/><linearGradient id="a"><stop offset="0" style="stop-color:#494949;stop-opacity:1"/><stop offset="1" style="stop-color:#9c9c9c;stop-opacity:1"/></linearGradient></defs><path d="M12.75 4C11.226 4 10 5.249 10 6.8v50.4c0 1.551 1.227 2.8 2.75 2.8h38.5c1.523 0 2.75-1.249 2.75-2.8V20L38 4Z" style="fill:url(#b);fill-opacity:1"/><path d="M38 4v13.333A2.667 2.667 0 0 0 40.667 20H54Z" style="opacity:.36674;fill:#fff;fill-opacity:1"/><path d="M17 11c-.554 0-1 .446-1 1v6c0 .554.446 1 1 1h4c.554 0 1-.446 1-1v-6c0-.554-.446-1-1-1zm8.5 0c-.277 0-.5.223-.5.5v7c0 .277.223.5.5.5h1c.277 0 .5-.223.5-.5v-7c0-.277-.223-.5-.5-.5Zm5 0c-.277 0-.5.223-.5.5v7c0 .277.223.5.5.5h1c.277 0 .5-.223.5-.5v-7c0-.277-.223-.5-.5-.5Zm4.5 0c-.554 0-1 .446-1 1v6c0 .554.446 1 1 1h3.588A2.65 2.65 0 0 1 38 17.334V17h-2v-4h2v-2zm-17 2h2v4h-2zm.5 9c-.277 0-.5.223-.5.5v7c0 .277.223.5.5.5h1c.277 0 .5-.223.5-.5v-7c0-.277-.223-.5-.5-.5Zm6.5 0c-.554 0-1 .446-1 1v6c0 .554.446 1 1 1h4c.554 0 1-.446 1-1v-6c0-.554-.446-1-1-1zm8.5 0c-.277 0-.5.223-.5.5v7c0 .277.223.5.5.5h1c.277 0 .5-.223.5-.5v-7c0-.277-.223-.5-.5-.5Zm5 0c-.277 0-.5.223-.5.5v7c0 .277.223.5.5.5h1c.277 0 .5-.223.5-.5v-7c0-.277-.223-.5-.5-.5Zm4.5 0c-.554 0-1 .446-1 1v6c0 .554.446 1 1 1h4c.554 0 1-.446 1-1v-6c0-.554-.446-1-1-1zm-17 2h2v4h-2zm18 0h2v4h-2zm-27 9c-.554 0-1 .446-1 1v6c0 .554.446 1 1 1h4c.554 0 1-.446 1-1v-6c0-.554-.446-1-1-1zm8 0c-.554 0-1 .446-1 1v6c0 .554.446 1 1 1h4c.554 0 1-.446 1-1v-6c0-.554-.446-1-1-1zm8.5 0c-.277 0-.5.223-.5.5v7c0 .277.223.5.5.5h1c.277 0 .5-.223.5-.5v-7c0-.277-.223-.5-.5-.5Zm5 0c-.277 0-.5.223-.5.5v7c0 .277.223.5.5.5h1c.277 0 .5-.223.5-.5v-7c0-.277-.223-.5-.5-.5Zm4.5 0c-.554 0-1 .446-1 1v6c0 .554.446 1 1 1h4c.554 0 1-.446 1-1v-6c0-.554-.446-1-1-1zm-25 2h2v4h-2zm8 0h2v4h-2zm18 0h2v4h-2zm-27 9c-.554 0-1 .446-1 1v6c0 .554.446 1 1 1h4c.554 0 1-.446 1-1v-6c0-.554-.446-1-1-1zm8.5 0c-.277 0-.5.223-.5.5v7c0 .277.223.5.5.5h1c.277 0 .5-.223.5-.5v-7c0-.277-.223-.5-.5-.5Zm5 0c-.277 0-.5.223-.5.5v7c0 .277.223.5.5.5h1c.277 0 .5-.223.5-.5v-7c0-.277-.223-.5-.5-.5Zm4.5 0c-.554 0-1 .446-1 1v6c0 .554.446 1 1 1h4c.554 0 1-.446 1-1v-6c0-.554-.446-1-1-1zm9.5 0c-.277 0-.5.223-.5.5v7c0 .277.223.5.5.5h1c.277 0 .5-.223.5-.5v-7c0-.277-.223-.5-.5-.5ZM18 46h2v4h-2zm18 0h2v4h-2z" style="baseline-shift:baseline;display:inline;overflow:visible;vector-effect:none;fill:#fff;stop-color:#000;stop-opacity:1;opacity:.60234151;fill-opacity:1"/></svg>