<svg xmlns="http://www.w3.org/2000/svg" xmlns:xlink="http://www.w3.org/1999/xlink" width="64" height="64"><defs><radialGradient xlink:href="#a" id="b" cx="21.477" cy="23.352" r="22" fx="21.477" fy="23.352" gradientTransform="matrix(5.24376 0 0 4.28655 -89.169 -62.972)" gradientUnits="userSpaceOnUse"/><linearGradient id="a"><stop offset="0" style="stop-color:#ededed;stop-opacity:1"/><stop offset="1" style="stop-color:#b7b7b7;stop-opacity:1"/></linearGradient></defs><path d="M16.75-4C15.226-4 14-2.751 14-1.2v50.4c0 1.551 1.227 2.8 2.75 2.8h38.5c1.523 0 2.75-1.249 2.75-2.8V12L42-4Z" style="fill:url(#b);fill-opacity:1" transform="translate(-4 8)"/><path d="M42-4V9.333A2.667 2.667 0 0 0 44.667 12H58Z" style="opacity:.593376;fill:#fff;fill-opacity:1" transform="translate(-4 8)"/><path d="M32 28c-3.29.003-6.363 2.763-7.532 5.96-.397 1.085.472 2.04 1.631 2.04 1.05 0 2.028-.957 2.539-1.994C29.203 32.858 30.19 31.88 32 32c1.933 0 4 2.067 4 4 0 3.144-4.843 4.65-5.827 10.022C29.976 47.1 30.89 48 31.99 48h.022c1.099 0 1.9-.918 2.207-1.966C35.311 42.308 39.9 39.73 40 36c0-4.253-2.925-8-8-8m-2 23.989v.022A1.99 1.99 45 0 0 31.989 54h.022A1.99 1.99 135 0 0 34 52.011v-.022A1.99 1.99 45 0 0 32.011 50h-.022A1.99 1.99 135 0 0 30 51.989" style="opacity:.5"/></svg>