<svg xmlns="http://www.w3.org/2000/svg" xmlns:xlink="http://www.w3.org/1999/xlink" xml:space="preserve" style="enable-background:new 0 0 64 64" viewBox="0 0 64 64"><defs><radialGradient xlink:href="#a" id="b" cx="-34.963" cy="-10.956" r="27.999" fx="-34.963" fy="-10.956" gradientTransform="rotate(165 81.253 -24.358)scale(-4.57415 3.35832)" gradientUnits="userSpaceOnUse"/><radialGradient id="a" cx="-159.431" cy="15.463" r="64.707" fx="-159.431" fy="15.463" gradientTransform="matrix(-.89413 0 0 .96305 -80.754 49.33)" gradientUnits="userSpaceOnUse"><stop offset="0" style="stop-color:#5e737d;stop-opacity:1"/><stop offset="1" style="stop-color:#607d8b;stop-opacity:1"/></radialGradient><filter id="c" width="1.271" height="1.271" x="-.136" y="-.136" style="color-interpolation-filters:sRGB"><feGaussianBlur stdDeviation="2.795"/></filter></defs><path d="M57.113 32A25.06 25.06 0 0 0 32 6.887 25.06 25.06 0 0 0 6.887 32 25.06 25.06 0 0 0 32 57.113 25.06 25.06 0 0 0 57.113 32" style="fill:url(#b);stroke-width:.89691"/><path d="M32 12.002c-7.864-.11-15.449 4.944-18.428 12.214-3.11 7.14-1.501 16.012 3.95 21.583 5.246 5.645 13.888 7.705 21.124 5.07 7.5-2.548 13.029-9.916 13.326-17.84.498-7.702-3.966-15.401-10.868-18.84A19.94 19.94 0 0 0 32 12.003m-1.958 6.096c-.332.761-.684 1.577-.648 2.246-.466 2.432-.228 5.128 1.344 7.133-2.06.484-3.292-1.806-5.054-2.424-2.405-.606-3.336 3.3-1.221 4.412 3.728 3.059 9.212 2.098 12.971 5.073 1.822 1.84 1.538 4.837.808 7.105-.906 2.363-2.775 4.126-4.923 5.41-1.468.878-3.18.036-3.495-1.642-.253-1.35-.627-2.741-1.683-3.651-1.255-1.712-4.364-2.05-4.647-4.307a6.8 6.8 0 0 1 1.31-2.87c.933-1.205.87-2.123-.613-2.506-2.43-.626-4.845-1.352-6.912-2.837-2.074-.694-.778-2.618-.242-3.979 2.072-4.52 6.35-8.042 11.232-9.015 1.207-.24 2.249.76 1.773 1.852m16.282 7.097c.746 1.404 1.246 3.006 1.53 4.539.233 2.2.249 4.51-.404 6.642-.165.539-.61.586-.938.127-.816-1.141-1.678-2.294-2.694-3.281-1.444-1.474-2.995-3.626-1.883-5.741a10.4 10.4 0 0 1 1.921-2.653 1.55 1.55 0 0 1 2.468.367" style="fill:#fff" transform="translate(3.294 3.297)scale(.89691)"/><path d="M32.001 6.887A25.06 25.06 0 0 0 6.888 32 25.06 25.06 0 0 0 32 57.113 25.057 25.057 0 0 0 57.112 32 25.057 25.057 0 0 0 32.001 6.887zm-.002 7.175c2.827-.004 5.651.671 8.166 1.963 6.19 3.084 10.195 9.989 9.748 16.897-.266 7.107-5.226 13.714-11.953 16-6.49 2.363-14.24.516-18.945-4.547-4.89-4.997-6.333-12.952-3.543-19.357 2.672-6.52 9.474-11.053 16.527-10.956Zm-2.95 3.776a1.7 1.7 0 0 0-.396.031c-4.378.873-8.215 4.032-10.074 8.086-.48 1.22-1.643 2.946.217 3.568 1.854 1.332 4.02 1.984 6.2 2.545 1.33.343 1.386 1.166.55 2.246a6.1 6.1 0 0 0-1.176 2.577c.254 2.025 3.042 2.325 4.168 3.861.947.816 1.283 2.064 1.51 3.275.282 1.505 1.818 2.26 3.135 1.473 1.927-1.152 3.603-2.732 4.416-4.852.654-2.034.909-4.723-.725-6.373-3.372-2.668-8.29-1.805-11.635-4.548-1.896-.997-1.061-4.503 1.096-3.96 1.58.554 2.686 2.61 4.533 2.174-1.41-1.798-1.624-4.215-1.207-6.396-.032-.6.284-1.333.582-2.016.374-.857-.295-1.65-1.193-1.691zm14.458 7.322a1.37 1.37 0 0 0-.873.406 9.3 9.3 0 0 0-1.723 2.38c-.998 1.897.392 3.826 1.688 5.148.911.885 1.686 1.921 2.418 2.945.294.412.691.368.84-.115.585-1.911.57-3.983.363-5.957-.256-1.375-.704-2.811-1.373-4.07a1.39 1.39 0 0 0-1.34-.737z" style="fill:none;stroke:#000;stroke-width:.2;stroke-dasharray:none;stroke-opacity:1;filter:url(#c)"/></svg>