<svg xmlns="http://www.w3.org/2000/svg" xmlns:xlink="http://www.w3.org/1999/xlink" width="64" height="64"><defs><filter id="d" width="1.151" height="1.151" x="-.075" y="-.075" style="color-interpolation-filters:sRGB"><feGaussianBlur stdDeviation="1.155"/></filter><filter id="c" width="1.143" height="1.143" x="-.071" y="-.071" style="color-interpolation-filters:sRGB"><feGaussianBlur stdDeviation="1.454"/></filter><radialGradient xlink:href="#a" id="b" cx="15.125" cy="48.875" r="28" fx="15.125" fy="48.875" gradientTransform="rotate(-30 -94.766 118.066)scale(2.31388)" gradientUnits="userSpaceOnUse"/><linearGradient id="a"><stop offset="0" style="stop-color:#efb744;stop-opacity:1"/><stop offset="1" style="stop-color:#a9753a;stop-opacity:1"/></linearGradient></defs><path d="M32 4A28 28 0 0 0 4 32a28 28 0 0 0 28 28 28 28 0 0 0 28-28A28 28 0 0 0 32 4" style="fill:url(#b)"/><path d="M34 11.77v16.56A1.67 1.67 45 0 0 35.67 30h16.55c.923 0 1.608-.746 1.455-1.655a22 22 0 0 0-18.02-18.028c-.909-.153-1.655.532-1.655 1.454m-5.655-1.446a22 22 0 0 0-18.028 18.021c-.153.909.532 1.655 1.454 1.655h16.56A1.67 1.67 135 0 0 30 28.33V11.779c0-.921-.746-1.607-1.655-1.454m-18.02 25.33a22 22 0 0 0 18.02 18.028c.909.153 1.655-.532 1.655-1.454v-16.56A1.67 1.67 45 0 0 28.33 34H11.779c-.921 0-1.607.746-1.454 1.655m23.674.014V52.22c0 .922.746 1.608 1.655 1.455a22 22 0 0 0 18.028-18.02c.153-.91-.532-1.656-1.454-1.656h-16.56A1.67 1.67 135 0 0 34 35.67" style="fill:#fff"/><path d="M32 4A28 28 0 0 0 4 32a28 28 0 0 0 28 28 28 28 0 0 0 28-28A28 28 0 0 0 32 4Z" style="fill:none;stroke:#000;stroke-opacity:1;filter:url(#c);opacity:.78256842"/><path d="M34 11.77v16.56A1.67 1.67 45 0 0 35.67 30h16.55c.923 0 1.608-.746 1.455-1.655a22 22 0 0 0-18.02-18.028c-.909-.153-1.655.532-1.655 1.454Zm-5.655-1.446a22 22 0 0 0-18.028 18.021c-.153.909.532 1.655 1.454 1.655h16.56A1.67 1.67 135 0 0 30 28.33V11.779c0-.921-.746-1.607-1.655-1.454Zm-18.02 25.33a22 22 0 0 0 18.02 18.028c.909.153 1.655-.532 1.655-1.454v-16.56A1.67 1.67 45 0 0 28.33 34H11.779c-.921 0-1.607.746-1.454 1.655zm23.674.014V52.22c0 .922.746 1.608 1.655 1.455a22 22 0 0 0 18.028-18.02c.153-.91-.532-1.656-1.454-1.656h-16.56A1.67 1.67 135 0 0 34 35.67Z" style="fill:none;stroke:#b39542;stroke-opacity:1;filter:url(#d)"/></svg>