<svg xmlns="http://www.w3.org/2000/svg" xmlns:xlink="http://www.w3.org/1999/xlink" width="64" height="64"><defs><filter id="d" width="1.092" height="1.099" x="-.046" y="-.049" style="color-interpolation-filters:sRGB"><feGaussianBlur stdDeviation=".551"/></filter><filter id="c" width="1.142" height="1.142" x="-.071" y="-.071" style="color-interpolation-filters:sRGB"><feGaussianBlur stdDeviation="1.452"/></filter><radialGradient xlink:href="#a" id="b" cx="15.923" cy="46.593" r="28" fx="15.923" fy="46.593" gradientTransform="rotate(-30 -87.52 116.019)scale(2.3097)" gradientUnits="userSpaceOnUse"/><linearGradient id="a"><stop offset="0" style="stop-color:#926e9f;stop-opacity:1"/><stop offset="1" style="stop-color:#5c378a;stop-opacity:1"/></linearGradient></defs><rect width="56" height="56" x="4" y="4" rx="16.8" ry="16.8" style="fill:url(#b)"/><path d="M16 15c-2.216 0-4 1.784-4 4v9c0 2.216 1.784 4 4 4h4c2.216 0 4-1.784 4-4v-9c0-2.216-1.784-4-4-4zm14 0c-2.216 0-4 1.784-4 4v9c0 2.216 1.784 4 4 4h4a3.97 3.97 0 0 0 3.228-1.646c.502-.693.007-1.682-.784-2.021l-.132-.057c-.791-.339-1.687.155-2.441.524-.263.128-.558.2-.871.2h-2c-1.108 0-2-.892-2-2v-7c0-1.108.892-2 2-2h2c.313 0 .609.072.87.2.755.369 1.65.863 2.442.524l.132-.057c.791-.34 1.286-1.328.784-2.021A3.97 3.97 0 0 0 34 15Zm14 0c-2.216 0-4 1.784-4 4v9c0 2.216 1.784 4 4 4h4a3.97 3.97 0 0 0 3.228-1.646c.502-.693.007-1.682-.784-2.021l-.132-.057c-.791-.339-1.687.155-2.441.524-.263.128-.558.2-.871.2h-2c-1.108 0-2-.892-2-2v-7c0-1.108.892-2 2-2h2c.313 0 .609.072.87.2.755.369 1.65.863 2.442.524l.132-.057c.791-.34 1.286-1.328.784-2.021A3.97 3.97 0 0 0 48 15Zm-27 3h2c1.108 0 2 .892 2 2v7c0 1.108-.892 2-2 2h-2c-1.108 0-2-.892-2-2v-7c0-1.108.892-2 2-2m6 17c-2.216 0-4 1.784-4 4v11.44A1.56 1.56 45 0 0 20.56 52 1.5 1.5 132.737 0 0 22 50.44v-5.11A1.33 1.33 135 0 1 23.329 44h3.112A1.56 1.56 135 0 0 28 42.44 1.5 1.5 42.737 0 0 26.44 41h-3.11A1.33 1.33 45 0 1 22 39.671v-.342A1.33 1.33 135 0 1 23.329 38h6.112A1.56 1.56 135 0 0 31 36.44 1.5 1.5 42.737 0 0 29.44 35Zm11 1.56A1.5 1.5 42.737 0 0 35.56 38h1.163A1.277 1.277 45 0 1 38 39.277V50.44A1.56 1.56 45 0 0 39.56 52 1.5 1.5 132.737 0 0 41 50.44V39.278A1.277 1.277 135 0 1 42.277 38h1.164A1.56 1.56 135 0 0 45 36.44 1.5 1.5 42.737 0 0 43.44 35h-7.88A1.56 1.56 135 0 0 34 36.56" style="fill:#e7e6e7;fill-opacity:1" transform="translate(.285 -1.5)"/><rect width="56" height="56" x="4" y="4" rx="16.8" ry="16.8" style="fill:none;stroke:#000;stroke-opacity:1;filter:url(#c);opacity:.70882859"/><path d="M16 15c-2.216 0-4 1.784-4 4v9c0 2.216 1.784 4 4 4h4c2.216 0 4-1.784 4-4v-9c0-2.216-1.784-4-4-4zm14 0c-2.216 0-4 1.784-4 4v9c0 2.216 1.784 4 4 4h4a3.97 3.97 0 0 0 3.228-1.646c.502-.693.007-1.682-.784-2.021l-.132-.057c-.791-.339-1.687.155-2.441.524-.263.128-.558.2-.871.2h-2c-1.108 0-2-.892-2-2v-7c0-1.108.892-2 2-2h2c.313 0 .609.072.87.2.755.369 1.65.863 2.442.524l.132-.057c.791-.34 1.286-1.328.784-2.021A3.97 3.97 0 0 0 34 15Zm14 0c-2.216 0-4 1.784-4 4v9c0 2.216 1.784 4 4 4h4a3.97 3.97 0 0 0 3.228-1.646c.502-.693.007-1.682-.784-2.021l-.132-.057c-.791-.339-1.687.155-2.441.524-.263.128-.558.2-.871.2h-2c-1.108 0-2-.892-2-2v-7c0-1.108.892-2 2-2h2c.313 0 .609.072.87.2.755.369 1.65.863 2.442.524l.132-.057c.791-.34 1.286-1.328.784-2.021A3.97 3.97 0 0 0 48 15Zm-27 3h2c1.108 0 2 .892 2 2v7c0 1.108-.892 2-2 2h-2c-1.108 0-2-.892-2-2v-7c0-1.108.892-2 2-2zm6 17c-2.216 0-4 1.784-4 4v11.44A1.56 1.56 45 0 0 20.56 52 1.5 1.5 132.737 0 0 22 50.44v-5.11A1.33 1.33 135 0 1 23.329 44h3.112A1.56 1.56 135 0 0 28 42.44 1.5 1.5 42.737 0 0 26.44 41h-3.11A1.33 1.33 45 0 1 22 39.671v-.342A1.33 1.33 135 0 1 23.329 38h6.112A1.56 1.56 135 0 0 31 36.44 1.5 1.5 42.737 0 0 29.44 35Zm11 1.56A1.5 1.5 42.737 0 0 35.56 38h1.163A1.277 1.277 45 0 1 38 39.277V50.44A1.56 1.56 45 0 0 39.56 52 1.5 1.5 132.737 0 0 41 50.44V39.278A1.277 1.277 135 0 1 42.277 38h1.164A1.56 1.56 135 0 0 45 36.44 1.5 1.5 42.737 0 0 43.44 35h-7.88A1.56 1.56 135 0 0 34 36.56Z" style="fill:none;stroke:#eb71ff;stroke-opacity:1;filter:url(#d);opacity:.56687611" transform="translate(.287 -1.5)"/></svg>