<svg xmlns="http://www.w3.org/2000/svg" width="64" height="64"><defs><filter id="a" width="1.398" height="1.68" x="-.199" y="-.34" style="color-interpolation-filters:sRGB"><feGaussianBlur stdDeviation="3.191"/></filter></defs><path d="M20.113 6.692h23.736a13.394 13.394 0 0 1 13.424 13.424v23.736a13.394 13.394 0 0 1-13.424 13.424H20.113A13.394 13.394 0 0 1 6.689 43.852V20.116A13.394 13.394 0 0 1 20.113 6.692" style="fill:#3f3f3f;stroke-width:.903275"/><path d="M13.916 24.973v9.506a2.02 2.02 0 0 0 2.021 2.022h3.183a2.02 2.02 0 0 0 2.022-2.022v-9.506a2.02 2.02 0 0 0-2.022-2.022h-3.183a2.02 2.02 0 0 0-2.021 2.022m20.748-1.091L22.975 35.57a.545.545 0 0 0 .386.93h3.691a1.316 1.316 0 0 1 1.316 1.316v4.595a2.22 2.22 0 0 0 2.219 2.219h2.789a2.22 2.22 0 0 0 2.218-2.219V24.267a.545.545 0 0 0-.93-.385m9.06-.93a7.226 7.226 0 1 0 0 14.452 7.226 7.226 0 0 0 0-14.453" style="fill:#fff;stroke-width:.903275"/><path d="M11.805 24.074v10.524a2.24 2.24 0 0 0 2.238 2.238h3.523a2.24 2.24 0 0 0 2.239-2.238V24.074a2.24 2.24 0 0 0-2.239-2.238h-3.523a2.24 2.24 0 0 0-2.238 2.238zm22.97-1.208-12.94 12.94a.603.603 0 0 0 .426 1.03h4.087a1.457 1.457 0 0 1 1.457 1.457v5.087a2.456 2.456 0 0 0 2.456 2.456h3.087a2.456 2.456 0 0 0 2.457-2.456V23.293a.603.603 0 0 0-1.03-.427zm10.03-1.03a8 8 0 1 0 0 16 8 8 0 0 0 0-16z" style="fill:none;stroke:#fff;stroke-opacity:1;filter:url(#a)" transform="translate(3.076 3.08)scale(.90327)"/></svg>