<svg xmlns="http://www.w3.org/2000/svg" xmlns:xlink="http://www.w3.org/1999/xlink" width="64" height="64"><defs><filter id="e" width="1.144" height="1.158" x="-.072" y="-.079" style="color-interpolation-filters:sRGB"><feGaussianBlur stdDeviation=".816"/></filter><filter id="c" width="1.185" height="1.185" x="-.093" y="-.093" style="color-interpolation-filters:sRGB"><feGaussianBlur stdDeviation="2.059"/></filter><filter id="g" width="1.142" height="1.154" x="-.071" y="-.077" style="color-interpolation-filters:sRGB"><feGaussianBlur stdDeviation=".795"/></filter><radialGradient xlink:href="#a" id="f" cx="21.867" cy="26.783" r="16.164" fx="21.867" fy="26.783" gradientTransform="matrix(2.39744 0 0 2.07647 -30.558 -28.936)" gradientUnits="userSpaceOnUse"/><radialGradient xlink:href="#b" id="d" cx="20.339" cy="49.951" r="16.164" fx="20.339" fy="49.951" gradientTransform="rotate(-30 -94.424 150.736)scale(2.76098 2.39134)" gradientUnits="userSpaceOnUse"/><linearGradient id="b"><stop offset="0" style="stop-color:#676be6;stop-opacity:1"/><stop offset="1" style="stop-color:#8f7fa1;stop-opacity:1"/></linearGradient><linearGradient id="a"><stop offset="0" style="stop-color:#0dafd7;stop-opacity:1"/><stop offset="1" style="stop-color:#0d65d7;stop-opacity:1"/></linearGradient></defs><path d="M58.88 32A26.88 26.88 0 0 1 32 58.88 26.88 26.88 0 0 1 5.12 32 26.88 26.88 0 0 1 32 5.12 26.88 26.88 0 0 1 58.88 32" style="fill:#e4e4e4;stroke-width:.959984"/><path d="M60 32a28 28 0 0 1-28 28A28 28 0 0 1 4 32 28 28 0 0 1 32 4a28 28 0 0 1 28 28Z" style="fill:none;stroke:#000;stroke-width:.5;stroke-dasharray:none;stroke-opacity:1;filter:url(#c)" transform="translate(1.311 1.253)scale(.95998)"/><path d="m18.942 26.604-5.075 8.792a5.21 5.21 90 0 0 0 5.208l5.075 8.792A5.21 5.21 30.001 0 0 23.452 52h10.15a5.21 5.21 149.999 0 0 4.51-2.604l5.076-8.792a5.21 5.21 90 0 0 0-5.208l-5.075-8.792A5.21 5.21 30.001 0 0 33.603 24h-10.15a5.21 5.21 149.999 0 0-4.511 2.604M23.996 28h9.063a2.15 2.15 30 0 1 1.863 1.076l4.531 7.848a2.15 2.15 90 0 1 0 2.152l-4.531 7.848A2.15 2.15 150 0 1 33.059 48H26.19a.65.65 60.013 0 1-.561-.973l4.824-8.347-3.465-2.004-4.826 8.35a.65.65.011 0 1-1.124 0l-3.437-5.95a2.15 2.15 89.999 0 1 0-2.152l4.532-7.848A2.15 2.15 150 0 1 23.996 28" style="fill:url(#d)" transform="translate(1.28 1.28)scale(.95998)"/><path d="m18.942 26.604-5.075 8.792a5.21 5.21 90 0 0 0 5.208l5.075 8.792A5.21 5.21 30.001 0 0 23.452 52h10.15a5.21 5.21 149.999 0 0 4.51-2.604l5.076-8.792a5.21 5.21 90 0 0 0-5.208l-5.075-8.792A5.21 5.21 30.001 0 0 33.603 24h-10.15a5.21 5.21 149.999 0 0-4.511 2.604zM23.996 28h9.063a2.15 2.15 30 0 1 1.863 1.076l4.531 7.848a2.15 2.15 90 0 1 0 2.152l-4.531 7.848A2.15 2.15 150 0 1 33.059 48H26.19a.65.65 60.013 0 1-.561-.973l4.824-8.347-3.465-2.004-4.826 8.35a.65.65.011 0 1-1.124 0l-3.437-5.95a2.15 2.15 89.999 0 1 0-2.152l4.532-7.848A2.15 2.15 150 0 1 23.996 28Z" style="fill:none;stroke:#3000ff;stroke-width:.5;stroke-dasharray:none;stroke-opacity:1;filter:url(#e)" transform="translate(1.28 1.28)scale(.95998)"/><path d="m25.643 15.028-4.586 7.944a6.06 6.06 90 0 0 0 6.056l4.586 7.944A6.06 6.06 30.001 0 0 30.887 40h9.171a6.06 6.06 149.999 0 0 5.245-3.028l4.586-7.944a6.06 6.06 90.006 0 0 0-6.056l-4.583-7.944A6.05 6.05 30.007 0 0 40.062 12h-9.175a6.06 6.06 149.999 0 0-5.244 3.028m5.37.972h7.025a.485.485 60.358 0 1 .417.733l-4.353 7.328.209.021a4.82 4.82 30.096 0 1 3.42 1.983l4.236-7.344a.492.492 179.99 0 1 .852 0l3.544 6.141a2.28 2.28 90.005 0 1 0 2.275l-4.46 7.726A2.28 2.28 150 0 1 39.933 36h-8.916a2.28 2.28 29.992 0 1-1.97-1.137l-4.464-7.726a2.27 2.27 89.992 0 1 0-2.274l4.46-7.726A2.28 2.28 150 0 1 31.013 16" style="fill:url(#f)" transform="translate(1.28 1.28)scale(.95998)"/><path d="m25.643 15.028-4.586 7.944a6.06 6.06 90 0 0 0 6.056l4.586 7.944A6.06 6.06 30.001 0 0 30.887 40h9.171a6.06 6.06 149.999 0 0 5.245-3.028l4.586-7.944a6.06 6.06 90.006 0 0 0-6.056l-4.583-7.944A6.05 6.05 30.007 0 0 40.062 12h-9.175a6.06 6.06 149.999 0 0-5.244 3.028zm5.37.972h7.025a.485.485 60.358 0 1 .417.733l-4.353 7.328.209.021a4.82 4.82 30.096 0 1 3.42 1.983l4.236-7.344a.492.492 179.99 0 1 .852 0l3.544 6.141a2.28 2.28 90.005 0 1 0 2.275l-4.46 7.726A2.28 2.28 150 0 1 39.933 36h-8.916a2.28 2.28 29.992 0 1-1.97-1.137l-4.464-7.726a2.27 2.27 89.992 0 1 0-2.274l4.46-7.726A2.28 2.28 150 0 1 31.013 16Z" style="mix-blend-mode:normal;fill:none;stroke:#04f;stroke-width:.5;stroke-dasharray:none;stroke-opacity:1;filter:url(#g)" transform="translate(1.28 1.28)scale(.95998)"/></svg>