<svg xmlns="http://www.w3.org/2000/svg" xmlns:xlink="http://www.w3.org/1999/xlink" width="64" height="64"><defs><radialGradient xlink:href="#a" id="c" cx="18.645" cy="47.775" r="28" fx="18.645" fy="47.775" gradientTransform="rotate(-30 -74.02 115.893)scale(2.16083)" gradientUnits="userSpaceOnUse"/><radialGradient xlink:href="#b" id="d" cx="13.469" cy="56.808" r="22.671" fx="13.469" fy="56.808" gradientTransform="rotate(-30 -27.91 94.13)scale(2.40738 1.2742)" gradientUnits="userSpaceOnUse"/><linearGradient id="b"><stop offset="0" style="stop-color:#ff6a89;stop-opacity:1"/><stop offset="1" style="stop-color:#d82942;stop-opacity:1"/></linearGradient><linearGradient id="a"><stop offset="0" style="stop-color:#fecd38;stop-opacity:1"/><stop offset="1" style="stop-color:#fe8b38;stop-opacity:1"/></linearGradient><filter id="f" width="1.179" height="1.334" x="-.088" y="-.167" style="color-interpolation-filters:sRGB"><feGaussianBlur stdDeviation="1.505"/></filter><filter id="e" width="1.14" height="1.14" x="-.07" y="-.07" style="color-interpolation-filters:sRGB"><feGaussianBlur stdDeviation="1.505"/></filter></defs><path d="M31.999 4h.002A27.94 27.94 0 0 1 60 31.999v.002A27.94 27.94 0 0 1 32.001 60h-.002A27.94 27.94 0 0 1 4 32.001v-.002A27.94 27.94 0 0 1 31.999 4" style="fill:url(#c)"/><path d="M14 22.534v.934a2.533 2.533 45 0 0 2.532 2.533h.028a1.44 1.44 45 0 1 1.44 1.44v14.027a2.533 2.533 45 0 0 2.532 2.533h.935a2.533 2.533 135 0 0 2.532-2.533V27.251a7.25 7.25 45 0 0-7.25-7.25h-.217A2.533 2.533 135 0 0 14 22.534M39.999 20c-6.627 0-12 5.373-12 12s5.373 12 12 12h17.285a27.8 27.8 0 0 0 2.058-6H40a6 6 0 1 1 0-12 6 6 0 0 1 3.197.93c.773.489 2.007 1.07 2.925 1.07h3.513c.918 0 1.423-.71 1.002-1.523A12 12 0 0 0 40 20z" style="fill:url(#d)"/><path d="M31.935 3.944h.002a27.94 27.94 0 0 1 27.999 28v.001a27.94 27.94 0 0 1-28 28h-.001a27.94 27.94 0 0 1-28-28v-.002a27.94 27.94 0 0 1 28-27.999z" style="fill:none;stroke:#000;stroke-opacity:1;stroke-width:.59999993;stroke-dasharray:none;filter:url(#e)"/><path d="M14 22.534v.934a2.533 2.533 45 0 0 2.532 2.533h.028a1.44 1.44 45 0 1 1.44 1.44v14.027a2.533 2.533 45 0 0 2.532 2.533h.935a2.533 2.533 135 0 0 2.532-2.533V27.251a7.25 7.25 45 0 0-7.25-7.25h-.217A2.533 2.533 135 0 0 14 22.534zM39.999 20c-6.627 0-12 5.373-12 12s5.373 12 12 12h17.285a27.8 27.8 0 0 0 2.058-6H40a6 6 0 1 1 0-12 6 6 0 0 1 3.197.93c.773.489 2.007 1.07 2.925 1.07h3.513c.918 0 1.423-.71 1.002-1.523A12 12 0 0 0 40 20z" style="fill:none;stroke:#5e0000;stroke-opacity:1;stroke-width:.79999993;stroke-dasharray:none;filter:url(#f);opacity:.71062155" transform="translate(-.064 -.056)"/></svg>