<svg xmlns="http://www.w3.org/2000/svg" xmlns:xlink="http://www.w3.org/1999/xlink" width="64" height="64"><defs><filter id="c" width="1.263" height="1.263" x="-.131" y="-.131" style="color-interpolation-filters:sRGB"><feGaussianBlur stdDeviation="2.715"/></filter><filter id="d" width="1.04" height="1.108" x="-.02" y="-.054" style="color-interpolation-filters:sRGB"><feGaussianBlur stdDeviation=".264"/></filter><radialGradient xlink:href="#a" id="b" cx="4.047" cy="59.684" r="28.155" fx="4.047" fy="59.684" gradientTransform="rotate(-37.73 -63.585 85.796)scale(2.40477 1.77717)" gradientUnits="userSpaceOnUse"/><linearGradient id="a"><stop offset="0" style="stop-color:#ff3f00;stop-opacity:1"/><stop offset="1" style="stop-color:#ff9700;stop-opacity:1"/></linearGradient></defs><rect width="50.4" height="50.4" x="6.806" y="6.809" rx="16.743" ry="16.743" style="opacity:1;fill:url(#b);stroke:none;stroke-width:.36058"/><path d="M15.038 24.092s-1.086-.022-2.204.545c-1.119.559-2.321 1.906-2.321 3.98h2.262c0-2.262 2.263-2.262 2.263-2.262s2.262 0 2.262 2.262c0 .849-.29 1.488-.821 2.167-.532.68-1.319 1.347-2.167 2.054-.849.707-1.76 1.453-2.5 2.4-.741.947-1.3 2.148-1.3 3.562v1.13h9.05v-2.263h-6.581c.138-.356.343-.69.613-1.034.531-.68 1.318-1.347 2.167-2.054s1.759-1.453 2.5-2.4c.74-.947 1.301-2.148 1.301-3.562 0-2.074-1.205-3.421-2.323-3.98s-2.201-.545-2.201-.545m11.312 0a4.54 4.54 0 0 0-4.525 4.525v6.788a4.54 4.54 0 0 0 4.525 4.525 4.54 4.54 0 0 0 4.525-4.525v-6.788a4.54 4.54 0 0 0-4.525-4.525m6.79 0v9.05h6.787v6.788h2.263V24.092h-2.263v6.788h-4.525v-6.788zm15.837 0a4.54 4.54 0 0 0-4.525 4.525c0 1.356.618 2.564 1.571 3.395-.953.832-1.57 2.037-1.57 3.393a4.54 4.54 0 0 0 4.524 4.525 4.54 4.54 0 0 0 4.525-4.525c0-1.356-.618-2.561-1.571-3.393.953-.831 1.571-2.04 1.571-3.395a4.54 4.54 0 0 0-4.525-4.525M26.35 26.355c1.273 0 2.262.99 2.262 2.262v6.788a2.23 2.23 0 0 1-2.262 2.262 2.233 2.233 0 0 1-2.263-2.262v-6.788c0-1.273.99-2.262 2.263-2.262m22.627 0c1.273 0 2.263.99 2.263 2.262s-.99 2.263-2.263 2.263a2.233 2.233 0 0 1-2.262-2.263c0-1.273.99-2.262 2.262-2.262m0 6.787c1.273 0 2.263.99 2.263 2.263s-.99 2.262-2.263 2.262a2.233 2.233 0 0 1-2.262-2.262c0-1.273.99-2.263 2.262-2.263" style="fill:#fff;fill-rule:evenodd;stroke-width:1.13134"/><rect width="50.4" height="50.4" x="6.8" y="6.8" rx="16.743" ry="16.743" style="fill:none;stroke:#000;stroke-width:.2;stroke-opacity:1;stroke-dasharray:none;filter:url(#c)"/><path d="M18.479 25.69s-.865-.017-1.756.434c-.892.446-1.85 1.52-1.85 3.172h1.803c0-1.803 1.803-1.803 1.803-1.803s1.802 0 1.802 1.803c0 .676-.23 1.185-.654 1.727-.424.54-1.05 1.073-1.727 1.636-.676.564-1.402 1.158-1.992 1.912-.59.755-1.035 1.711-1.035 2.838v.9h7.211v-1.802H16.84c.11-.284.273-.55.488-.824.424-.542 1.05-1.074 1.727-1.637.676-.563 1.401-1.158 1.992-1.912.59-.754 1.037-1.711 1.037-2.838 0-1.653-.96-2.726-1.852-3.172-.89-.445-1.753-.434-1.753-.434zm9.013 0a3.617 3.617 0 0 0-3.605 3.606v5.408a3.617 3.617 0 0 0 3.605 3.606 3.617 3.617 0 0 0 3.606-3.606v-5.408a3.617 3.617 0 0 0-3.606-3.606zm5.41 0v7.211h5.409v5.409h1.802V25.69h-1.802v5.41h-3.606v-5.41zm12.62 0a3.617 3.617 0 0 0-3.606 3.606c0 1.08.492 2.043 1.252 2.705-.76.663-1.252 1.623-1.252 2.703a3.617 3.617 0 0 0 3.605 3.606 3.617 3.617 0 0 0 3.606-3.606c0-1.08-.492-2.04-1.252-2.703a3.58 3.58 0 0 0 1.252-2.705 3.617 3.617 0 0 0-3.606-3.606zm-18.03 1.803a1.78 1.78 0 0 1 1.803 1.803v5.408a1.78 1.78 0 0 1-1.803 1.803 1.78 1.78 0 0 1-1.803-1.803v-5.408a1.78 1.78 0 0 1 1.803-1.803zm18.03 0a1.78 1.78 0 0 1 1.802 1.803 1.78 1.78 0 0 1-1.803 1.803 1.78 1.78 0 0 1-1.802-1.803 1.78 1.78 0 0 1 1.802-1.803zm0 5.408a1.78 1.78 0 0 1 1.802 1.803 1.78 1.78 0 0 1-1.803 1.803 1.78 1.78 0 0 1-1.802-1.803 1.78 1.78 0 0 1 1.802-1.803z" style="fill:none;fill-rule:evenodd;stroke:red;stroke-width:.1;stroke-dasharray:none;stroke-opacity:1;filter:url(#d)" transform="translate(-8.16 -8.16)scale(1.25503)"/></svg>