<svg xmlns="http://www.w3.org/2000/svg" xmlns:xlink="http://www.w3.org/1999/xlink" width="64" height="64"><defs><radialGradient xlink:href="#a" id="h" cx="43.868" cy="46.965" r="16" fx="43.868" fy="46.965" gradientTransform="rotate(-15 -72.828 188.766)scale(1.74598)" gradientUnits="userSpaceOnUse"/><radialGradient xlink:href="#b" id="d" cx="46.907" cy="27.807" r="16" fx="46.907" fy="27.807" gradientTransform="rotate(-15 3.551 123.293)scale(1.5664)" gradientUnits="userSpaceOnUse"/><radialGradient xlink:href="#c" id="f" cx="11.089" cy="37.613" r="16" fx="11.089" fy="37.613" gradientTransform="rotate(-15 -207.685 134.68)scale(2.59336)" gradientUnits="userSpaceOnUse"/><linearGradient id="c"><stop offset="0" style="stop-color:#11e299;stop-opacity:1"/><stop offset="1" style="stop-color:#00f656;stop-opacity:1"/></linearGradient><linearGradient id="b"><stop offset="0" style="stop-color:#e57833;stop-opacity:1"/><stop offset="1" style="stop-color:#e5333d;stop-opacity:1"/></linearGradient><linearGradient id="a"><stop offset="0" style="stop-color:#29c2e5;stop-opacity:1"/><stop offset="1" style="stop-color:#1c4dd9;stop-opacity:1"/></linearGradient><filter id="g" width="1.232" height="1.232" x="-.116" y="-.116" style="color-interpolation-filters:sRGB"><feGaussianBlur stdDeviation="1.442"/></filter><filter id="e" width="1.232" height="1.232" x="-.116" y="-.116" style="color-interpolation-filters:sRGB"><feGaussianBlur stdDeviation="1.442"/></filter><filter id="i" width="1.232" height="1.232" x="-.116" y="-.116" style="color-interpolation-filters:sRGB"><feGaussianBlur stdDeviation="1.442"/></filter></defs><path d="M59 24a16 16 0 0 1-16 16 16 16 0 0 1-16-16A16 16 0 0 1 43 8a16 16 0 0 1 16 16" style="fill:url(#d)"/><path d="M59.052 24.024a16 16 0 0 1-16 16 16 16 0 0 1-16-16 16 16 0 0 1 16-16 16 16 0 0 1 16 16z" style="fill:none;stroke:#000;stroke-opacity:1;stroke-width:.4999999;stroke-dasharray:none;filter:url(#e)"/><path d="M36 30a16 16 0 0 1-16 16A16 16 0 0 1 4 30a16 16 0 0 1 16-16 16 16 0 0 1 16 16" style="fill:url(#f)"/><path d="M36.052 30.024a16 16 0 0 1-16 16 16 16 0 0 1-16-16 16 16 0 0 1 16-16 16 16 0 0 1 16 16z" style="fill:none;stroke:#000;stroke-opacity:1;stroke-width:.4999999;stroke-dasharray:none;filter:url(#g)"/><path d="M54 39a16 16 0 0 1-16 16 16 16 0 0 1-16-16 16 16 0 0 1 16-16 16 16 0 0 1 16 16" style="fill:url(#h)"/><path d="M54.052 39.024a16 16 0 0 1-16 16 16 16 0 0 1-16-16 16 16 0 0 1 16-16 16 16 0 0 1 16 16z" style="fill:none;stroke:#000;stroke-opacity:1;stroke-width:.4999999;stroke-dasharray:none;filter:url(#i)"/></svg>