<svg xmlns="http://www.w3.org/2000/svg" xmlns:xlink="http://www.w3.org/1999/xlink" width="64" height="64"><defs><filter id="g" width="1.279" height="1.181" x="-.14" y="-.091" style="color-interpolation-filters:sRGB"><feGaussianBlur stdDeviation="2.027"/></filter><filter id="e" width="1.333" height="1.369" x="-.167" y="-.184" style="color-interpolation-filters:sRGB"><feGaussianBlur stdDeviation="2.027"/></filter><filter id="d" width="1.181" height="1.22" x="-.091" y="-.11" style="color-interpolation-filters:sRGB"><feGaussianBlur stdDeviation="2.027"/></filter><radialGradient xlink:href="#a" id="c" cx="-50.589" cy="-10.25" r="28.5" fx="-50.589" fy="-10.25" gradientTransform="rotate(30 -90.57 108.773)scale(2.30881 1.90477)" gradientUnits="userSpaceOnUse"/><radialGradient xlink:href="#b" id="f" cx="28.59" cy="43.397" r="18.5" fx="28.59" fy="43.397" gradientTransform="matrix(1.92418 0 0 2.96427 -26.422 -78.812)" gradientUnits="userSpaceOnUse"/><linearGradient id="b"><stop offset="0" style="stop-color:#ffe00e;stop-opacity:1"/><stop offset="1" style="stop-color:#ff950e;stop-opacity:1"/></linearGradient><linearGradient id="a"><stop offset="0" style="stop-color:#547bb0;stop-opacity:1"/><stop offset="1" style="stop-color:#1e3d7d;stop-opacity:1"/></linearGradient></defs><rect width="51.193" height="42.235" x="-57.589" y="-48.614" rx="11.485" ry="11.485" style="fill:url(#c);stroke-width:.89813" transform="rotate(90)scale(-1 1)"/><rect width="57" height="47.025" x="-60.008" y="-50.044" rx="12.788" ry="12.788" style="fill:none;stroke:#000;stroke-width:.6;stroke-dasharray:none;stroke-opacity:1;filter:url(#d)" transform="matrix(0 -.89813 -.89813 0 3.69 3.702)"/><path d="M48.618 12.795v34.556H29.421Z" style="fill:#fff;stroke-width:.89813"/><path d="M3 16.35v4.3A2.35 2.35 45 0 0 5.35 23h4.3A2.35 2.35 135 0 0 12 20.65v-4.3A2.35 2.35 45 0 0 9.65 14h-4.3A2.35 2.35 135 0 0 3 16.35M3 27v3h31v-3zm0 6v3h31v-3zm0 6v3h31v-3z" style="fill:#fff" transform="translate(3.69 3.702)scale(.89813)"/><path d="M3 16.35v4.3A2.35 2.35 45 0 0 5.35 23h4.3A2.35 2.35 135 0 0 12 20.65v-4.3A2.35 2.35 45 0 0 9.65 14h-4.3A2.35 2.35 135 0 0 3 16.35ZM3 27v3h31v-3zm0 6v3h31v-3zm0 6v3h31v-3z" style="fill:none;stroke:#000;stroke-width:.6;stroke-dasharray:none;stroke-opacity:1;filter:url(#e)" transform="translate(3.711 3.709)scale(.89813)"/><path d="M44.835 6.227 24.06 44.55A8.8 8.8 104.232 0 0 23 48.73v.07a4.2 4.2 45 0 0 4.201 4.2h18.357A1.44 1.44 45 0 1 47 54.442v1.294A4.264 4.264 45 0 0 51.264 60h.472A4.264 4.264 135 0 0 56 55.736v-1.294A1.44 1.44 135 0 1 57.442 53h.028A2.53 2.53 135 0 0 60 50.47v-3.94A2.53 2.53 45 0 0 57.47 44h-.028A1.44 1.44 45 0 1 56 42.558V8.048A5.05 5.05 45 0 0 50.951 3h-.695a6.17 6.17 149.232 0 0-5.42 3.227M47 20.695v21.463A1.84 1.84 135 0 1 45.158 44h-9.912a1.248 1.248 59.685 0 1-1.088-1.86l12.168-21.622a.36.36 14.685 0 1 .674.177" style="fill:url(#f)" transform="translate(3.69 3.702)scale(.89813)"/><path d="M44.835 6.227 24.06 44.55A8.8 8.8 104.232 0 0 23 48.73v.07a4.2 4.2 45 0 0 4.201 4.2h18.357A1.44 1.44 45 0 1 47 54.442v1.294A4.264 4.264 45 0 0 51.264 60h.472A4.264 4.264 135 0 0 56 55.736v-1.294A1.44 1.44 135 0 1 57.442 53h.028A2.53 2.53 135 0 0 60 50.47v-3.94A2.53 2.53 45 0 0 57.47 44h-.028A1.44 1.44 45 0 1 56 42.558V8.048A5.05 5.05 45 0 0 50.951 3h-.695a6.17 6.17 149.232 0 0-5.42 3.227ZM47 20.695v21.463A1.84 1.84 135 0 1 45.158 44h-9.912a1.248 1.248 59.685 0 1-1.088-1.86l12.168-21.622a.36.36 14.685 0 1 .674.177Z" style="fill:none;stroke:#000;stroke-width:.6;stroke-dasharray:none;stroke-opacity:1;filter:url(#g)" transform="translate(3.711 3.709)scale(.89813)"/></svg>