<svg xmlns="http://www.w3.org/2000/svg" xmlns:xlink="http://www.w3.org/1999/xlink" width="64" height="64"><defs><filter id="c" width="1.141" height="1.172" x="-.071" y="-.086" style="color-interpolation-filters:sRGB"><feGaussianBlur stdDeviation="1.443"/></filter><filter id="d" width="1.247" height="1.341" x="-.124" y="-.171" style="color-interpolation-filters:sRGB"><feGaussianBlur stdDeviation="2.102"/></filter><radialGradient xlink:href="#a" id="b" cx="9.379" cy="53.208" r="28" fx="9.379" fy="53.208" gradientTransform="rotate(-15 -130.979 104.308)scale(2.0047 1.64671)" gradientUnits="userSpaceOnUse"/><linearGradient id="a"><stop offset="0" style="stop-color:#d8632d;stop-opacity:1"/><stop offset="1" style="stop-color:#d2444b;stop-opacity:1"/></linearGradient></defs><path d="M22.006 9c-7.61 0-13.994 6.385-13.994 13.996 0 3 1.016 5.788 2.683 8.09L5.44 39.832c-3.998 6.661.795 15.138 8.563 15.145L49.987 55c7.43.003 12.267-7.816 8.947-14.465l-7.996-16.008c-2.837-5.663-10.158-7.294-15.13-3.37C34.874 14.392 28.988 9 22.006 9" style="fill:url(#b)"/><path d="M21.083 15.62a6.306 6.306 0 1 0 0 12.613 6.306 6.306 0 0 0 0-12.613m22.783 12.219-5.82 8.73a2.19 2.19 171.748 0 1-3.225.468l-4.44-3.7a2.29 2.29 173.338 0 0-3.301.385l-5.256 7.008a1.725 1.725 1.59 0 1-2.816-.078l-2.346-3.52a1.992 1.992 178.652 0 0-3.366.08l-3.685 6.135a3.146 3.146 60.515 0 0 2.695 4.766l38.86.025A2.83 2.83 121.745 0 0 53.7 44.04l-8.04-16.09a1.04 1.04 3.57 0 0-1.794-.112" style="fill:#fff" transform="translate(.42 .121)"/><path d="M22.006 9c-7.61 0-13.994 6.385-13.994 13.996 0 3 1.016 5.788 2.683 8.09L5.44 39.832c-3.998 6.661.795 15.138 8.563 15.145L49.987 55c7.43.003 12.267-7.816 8.947-14.465l-7.996-16.008c-2.837-5.663-10.158-7.294-15.13-3.37C34.874 14.392 28.988 9 22.006 9Z" style="fill:none;stroke:#000;stroke-opacity:1;filter:url(#c);opacity:.32295746"/><path d="M21.083 15.62a6.306 6.306 0 1 0 0 12.613 6.306 6.306 0 0 0 0-12.613zm22.783 12.219-5.82 8.73a2.19 2.19 171.748 0 1-3.225.468l-4.44-3.7a2.29 2.29 173.338 0 0-3.301.385l-5.256 7.008a1.725 1.725 1.59 0 1-2.816-.078l-2.346-3.52a1.992 1.992 178.652 0 0-3.366.08l-3.685 6.135a3.146 3.146 60.515 0 0 2.695 4.766l38.86.025A2.83 2.83 121.745 0 0 53.7 44.04l-8.04-16.09a1.04 1.04 3.57 0 0-1.794-.112z" style="fill:none;stroke:#000;stroke-opacity:1;filter:url(#d);opacity:.26500716" transform="translate(.57 .121)"/></svg>