<svg xmlns="http://www.w3.org/2000/svg" xmlns:xlink="http://www.w3.org/1999/xlink" width="64" height="64"><defs><filter id="d" width="1.127" height="1.127" x="-.063" y="-.063" style="color-interpolation-filters:sRGB"><feGaussianBlur stdDeviation=".739"/></filter><filter id="c" width="1.238" height="1.238" x="-.119" y="-.119" style="color-interpolation-filters:sRGB"><feGaussianBlur stdDeviation="2.569"/></filter><radialGradient xlink:href="#a" id="b" cx="16.294" cy="50.383" r="28" fx="16.294" fy="50.383" gradientTransform="rotate(-30 -93.926 121.746)scale(2.2836)" gradientUnits="userSpaceOnUse"/><linearGradient id="a"><stop offset="0" style="stop-color:#ff8513;stop-opacity:1"/><stop offset="1" style="stop-color:#ff3ac5;stop-opacity:1"/></linearGradient></defs><path d="M21.742 4h20.516A17.74 17.74 45 0 1 60 21.742v20.516A17.74 17.74 135 0 1 42.258 60H21.742A17.74 17.74 45 0 1 4 42.258V21.742A17.74 17.74 135 0 1 21.742 4" style="fill:url(#b)" transform="translate(2.565 2.508)scale(.92162)"/><path d="M31.508 23.34a9.147 9.147 0 0 0-9.146 9.147 9.147 9.147 0 0 0 9.146 9.146 9.147 9.147 0 0 0 9.147-9.146 9.147 9.147 0 0 0-9.147-9.147m0-4.99a14.136 14.136 0 0 1 14.136 14.137 14.136 14.136 0 0 1-14.136 14.136 14.136 14.136 0 0 1-14.136-14.136A14.136 14.136 0 0 1 31.508 18.35m14.136-3.325a3.326 3.326 0 0 1 3.326 3.326 3.326 3.326 0 0 1-3.326 3.326 3.326 3.326 0 0 1-3.326-3.326 3.326 3.326 0 0 1 3.326-3.326" style="fill:#fff;fill-opacity:1;stroke-width:.831522"/><path d="M21.742 4h20.516A17.74 17.74 45 0 1 60 21.742v20.516A17.74 17.74 135 0 1 42.258 60H21.742A17.74 17.74 45 0 1 4 42.258V21.742A17.74 17.74 135 0 1 21.742 4Z" style="opacity:.709609;fill:none;stroke:#000;stroke-opacity:1;filter:url(#c)" transform="translate(2.508 2.508)scale(.92162)"/><path d="M31.467 22.603a9.925 9.925 0 0 0-9.925 9.925 9.925 9.925 0 0 0 9.925 9.925 9.925 9.925 0 0 0 9.924-9.925 9.925 9.925 0 0 0-9.924-9.925zm0-5.413a15.34 15.34 0 0 1 15.338 15.338 15.34 15.34 0 0 1-15.338 15.338 15.34 15.34 0 0 1-15.338-15.338A15.34 15.34 0 0 1 31.467 17.19Zm15.338-3.609a3.61 3.61 0 0 1 3.609 3.609 3.61 3.61 0 0 1-3.61 3.609 3.61 3.61 0 0 1-3.608-3.609 3.61 3.61 0 0 1 3.609-3.609z" style="opacity:.682684;fill:none;fill-opacity:1;stroke:#db00ff;stroke-width:.8;stroke-dasharray:none;stroke-opacity:1;filter:url(#d)" transform="translate(2.508 2.508)scale(.92162)"/></svg>