<svg xmlns="http://www.w3.org/2000/svg" xmlns:xlink="http://www.w3.org/1999/xlink" width="64" height="64"><defs><filter id="h" width="1.266" height="1.266" x="-.133" y="-.133" style="color-interpolation-filters:sRGB"><feGaussianBlur stdDeviation="1.061"/></filter><filter id="g" width="1.215" height="1.215" x="-.108" y="-.108" style="color-interpolation-filters:sRGB"><feGaussianBlur stdDeviation="1.196"/></filter><filter id="e" width="1.083" height="1.095" x="-.042" y="-.048" style="color-interpolation-filters:sRGB"><feGaussianBlur stdDeviation=".73"/></filter><filter id="d" width="1.128" height="1.142" x="-.064" y="-.071" style="color-interpolation-filters:sRGB"><feGaussianBlur stdDeviation="1.491"/></filter><radialGradient xlink:href="#a" id="c" cx="10.316" cy="47.874" r="30" fx="10.316" fy="47.874" gradientTransform="rotate(-30 -49.488 74.918)scale(1.85732 1.67158)" gradientUnits="userSpaceOnUse"/><radialGradient xlink:href="#b" id="f" cx="40.743" cy="52.856" r="13.065" fx="40.743" fy="52.856" gradientTransform="rotate(-30 -22.78 136.02)scale(1.81171)" gradientUnits="userSpaceOnUse"/><linearGradient id="b"><stop offset="0" style="stop-color:#8e8e8e;stop-opacity:1"/><stop offset="1" style="stop-color:#4d4c4c;stop-opacity:1"/></linearGradient><linearGradient id="a"><stop offset="0" style="stop-color:#e764fe;stop-opacity:1"/><stop offset="1" style="stop-color:#7350c3;stop-opacity:1"/></linearGradient></defs><path d="M32.087 7.822c-14.823 0-26.998 12.064-26.999 26.857-.155 2.19 0 3.786.155 6.304.433 6.141 4.228 10.54 7.625 12.655 3.204 1.996 6.145 2.7 6.145 2.7q.115.028.232.05c1.994.361 4.338-.472 5.639-1.835 1.3-1.363 1.804-3.021 1.803-4.587v-19.4c.001-1.394-.383-2.886-1.476-4.225-.323-.394-.847-.666-1.305-.985 2.23-1.925 5.115-3.11 8.18-3.116 3.068 0 5.952 1.186 8.185 3.112-.46.32-.982.592-1.305.986-1.093 1.336-1.478 2.826-1.48 4.217v19.408c0 1.565.503 3.224 1.804 4.587 1.3 1.362 3.645 2.195 5.638 1.834.078-.018.156-.031.233-.049 0 0 2.94-.705 6.144-2.7 3.395-2.115 7.184-6.508 7.622-12.641.158-2.53.158-4.17.158-6.32 0-14.793-12.176-26.857-26.998-26.857Z" style="fill:url(#c);stroke-width:.901018"/><path d="M32.086 4.966c-16.45 0-29.964 13.39-29.964 29.807-.173 2.43 0 4.202.171 6.997.48 6.816 4.692 11.697 8.463 14.045 3.556 2.215 6.82 2.997 6.82 2.997q.128.03.257.054c2.213.402 4.815-.523 6.259-2.035s2.002-3.353 2.001-5.091V30.208c.002-1.547-.425-3.203-1.639-4.688-.357-.438-.939-.74-1.447-1.094 2.475-2.136 5.676-3.452 9.079-3.458 3.404 0 6.605 1.316 9.083 3.454-.51.354-1.09.656-1.448 1.094-1.213 1.483-1.64 3.136-1.642 4.68v21.54c-.001 1.738.558 3.578 2.001 5.09 1.444 1.513 4.047 2.437 6.259 2.036.086-.02.172-.034.257-.054 0 0 3.264-.782 6.82-2.997 3.768-2.346 7.972-7.223 8.459-14.03.175-2.806.175-4.627.175-7.014C62.05 18.35 48.537 4.96 32.086 4.96Z" style="fill:none;stroke:#000;stroke-width:.5;stroke-dasharray:none;stroke-opacity:1;filter:url(#d)" transform="translate(3.222 3.312)scale(.90102)"/><path d="M32.054 13.223c-11.942 0-21.624 9.601-21.624 21.444v5.046h.008c-.002.077-.008.153-.008.234.017 4.616 2.706 7.509 5.237 9.084s4.496 2.02 4.496 2.02c.615.112 1.08-.41 1.08-1.094V30.55c0-.624-.374-1.126-.944-1.108h-.057s-1.984.227-4.543 1.596c-.41.22-1 .667-1.407.959 1.329-8.614 8.975-15.16 17.762-15.17 8.795 0 16.447 6.558 17.772 15.18-.41-.295-1.004-.746-1.417-.967-2.558-1.369-4.542-1.597-4.542-1.597h-.057c-.569-.018-.943.483-.943 1.106v19.408c0 .684.463 1.206 1.08 1.094 0 0 1.963-.446 4.495-2.02s5.22-4.468 5.237-9.084c0-.08-.006-.155-.008-.234h.008v-5.046c0-11.843-9.682-21.444-21.625-21.444" style="fill:#fff;stroke-width:.901018"/><path d="M32.05 10.96c-13.255 0-24 10.656-24 23.8v5.6h.008c-.001.086-.008.17-.008.26.02 5.123 3.003 8.334 5.813 10.082 2.81 1.747 4.99 2.242 4.99 2.242.682.124 1.198-.455 1.197-1.214V30.19c0-.692-.414-1.249-1.046-1.23h-.064s-2.202.253-5.041 1.772c-.455.243-1.112.74-1.563 1.064 1.475-9.56 9.962-16.824 19.714-16.836 9.76 0 18.254 7.278 19.724 16.847-.454-.327-1.114-.828-1.572-1.073-2.84-1.519-5.042-1.772-5.042-1.772h-.063c-.631-.02-1.046.536-1.047 1.228v21.54c0 .76.515 1.338 1.198 1.214 0 0 2.18-.495 4.99-2.242 2.81-1.748 5.793-4.959 5.812-10.082 0-.088-.007-.172-.008-.26h.008v-5.6c0-13.144-10.745-23.8-24-23.8z" style="fill:none;stroke:#ff00c3;stroke-width:.5;stroke-dasharray:none;stroke-opacity:1;filter:url(#e)" transform="translate(3.222 3.312)scale(.90102)"/><path d="M59.986 46.11a13.065 13.065 0 0 1-13.065 13.065A13.065 13.065 0 0 1 33.856 46.11a13.065 13.065 0 0 1 13.065-13.064A13.065 13.065 0 0 1 59.986 46.11" style="fill:url(#f);stroke-width:.901018"/><path d="M63.05 47.46a14.5 14.5 0 0 1-14.5 14.5 14.5 14.5 0 0 1-14.5-14.5 14.5 14.5 0 0 1 14.5-14.5 14.5 14.5 0 0 1 14.5 14.5z" style="fill:none;stroke:#000;stroke-width:.5;stroke-dasharray:none;stroke-opacity:1;filter:url(#g)" transform="translate(3.222 3.312)scale(.90102)"/><path d="M40.614 49.264a3.154 3.154 0 0 1-3.153-3.154 3.154 3.154 0 0 1 3.153-3.153 3.154 3.154 0 0 1 3.154 3.153 3.154 3.154 0 0 1-3.154 3.154m12.614 0a3.154 3.154 0 0 1-3.153-3.154 3.154 3.154 0 0 1 3.153-3.153 3.154 3.154 0 0 1 3.154 3.153 3.154 3.154 0 0 1-3.154 3.154m-3.153 3.153a3.154 3.154 0 0 1-3.154 3.154 3.154 3.154 0 0 1-3.153-3.154 3.154 3.154 0 0 1 3.153-3.153 3.154 3.154 0 0 1 3.154 3.153m0-12.614a3.154 3.154 0 0 1-3.154 3.154 3.154 3.154 0 0 1-3.153-3.154 3.154 3.154 0 0 1 3.153-3.153 3.154 3.154 0 0 1 3.154 3.153" style="fill:#3f3f3f;stroke-width:.901018"/><path d="M41.55 50.96a3.5 3.5 0 0 1-3.5-3.5 3.5 3.5 0 0 1 3.5-3.5 3.5 3.5 0 0 1 3.5 3.5 3.5 3.5 0 0 1-3.5 3.5zm14 0a3.5 3.5 0 0 1-3.5-3.5 3.5 3.5 0 0 1 3.5-3.5 3.5 3.5 0 0 1 3.5 3.5 3.5 3.5 0 0 1-3.5 3.5zm-3.5 3.5a3.5 3.5 0 0 1-3.5 3.5 3.5 3.5 0 0 1-3.5-3.5 3.5 3.5 0 0 1 3.5-3.5 3.5 3.5 0 0 1 3.5 3.5zm0-14a3.5 3.5 0 0 1-3.5 3.5 3.5 3.5 0 0 1-3.5-3.5 3.5 3.5 0 0 1 3.5-3.5 3.5 3.5 0 0 1 3.5 3.5z" style="fill:none;stroke:#000;stroke-width:.5;stroke-dasharray:none;stroke-opacity:1;filter:url(#h)" transform="translate(3.222 3.312)scale(.90102)"/></svg>