<svg xmlns="http://www.w3.org/2000/svg" xmlns:xlink="http://www.w3.org/1999/xlink" width="64" height="64"><defs><radialGradient xlink:href="#a" id="b" cx="32.301" cy="88.379" r="30.018" fx="32.301" fy="88.379" gradientTransform="matrix(0 -2.12917 2.13158 0 -124.227 132.807)" gradientUnits="userSpaceOnUse"/><radialGradient id="a" cx="-159.431" cy="15.463" r="64.707" fx="-159.431" fy="15.463" gradientTransform="matrix(-.89413 0 0 .96305 -80.754 49.33)" gradientUnits="userSpaceOnUse"><stop offset="0" style="stop-color:#006fff;stop-opacity:1"/><stop offset="1" style="stop-color:#15baff;stop-opacity:1"/></radialGradient><filter id="d" width="1.155" height="1.186" x="-.077" y="-.093" style="color-interpolation-filters:sRGB"><feGaussianBlur stdDeviation=".729"/></filter><filter id="c" width="1.14" height="1.201" x="-.07" y="-.1" style="color-interpolation-filters:sRGB"><feGaussianBlur stdDeviation="1.711"/></filter></defs><path d="M34.79 12.489c-4.999-.022-9.864 2.902-12.191 7.328-3.94.58-7.235 3.964-7.709 7.917-9.66.46-14.462 13.803-7.257 20.27 3.121 3.51 7.832 3.595 12.117 3.503 9.392-.003 18.793.005 28.178-.004 8.69.376 15.084-10.214 10.453-17.717-1.921-3.545-5.748-5.951-9.776-6.146 1.052-7.882-5.923-15.345-13.814-15.151" style="fill:url(#b);stroke-width:.928913"/><path d="M20 31.063v11.874A4.063 4.063 45 0 0 24.063 47h15.874A4.063 4.063 135 0 0 44 42.937V31.063A4.063 4.063 45 0 0 39.937 27H24.063A4.063 4.063 135 0 0 20 31.063M27.011 30h9.978A1.01 1.01 45 0 1 38 31.011v2.978A1.01 1.01 135 0 1 36.989 35H27.01A1.01 1.01 45 0 1 26 33.989V31.01A1.01 1.01 135 0 1 27.011 30m0 8h9.978A1.01 1.01 45 0 1 38 39.011v3.978A1.01 1.01 135 0 1 36.989 44H27.01A1.01 1.01 45 0 1 26 42.989V39.01A1.01 1.01 135 0 1 27.011 38" style="fill:#fff" transform="translate(2.279 2.27)scale(.92891)"/><path d="M35.009 10.933c-5.383-.023-10.62 3.125-13.125 7.89-4.241.623-7.789 4.267-8.3 8.523-10.398.494-15.568 14.858-7.811 21.82 3.36 3.778 8.431 3.87 13.044 3.771 10.11-.002 20.23.005 30.334-.004 9.356.405 16.239-10.995 11.253-19.072-2.068-3.817-6.188-6.407-10.524-6.617 1.133-8.485-6.377-16.52-14.871-16.31Z" style="mix-blend-mode:normal;fill:none;stroke:#000;stroke-width:.21530542;stroke-dasharray:none;stroke-opacity:1;filter:url(#c)" transform="translate(2.279 2.27)scale(.92891)"/><path d="M20 31.063v11.874A4.063 4.063 45 0 0 24.063 47h15.874A4.063 4.063 135 0 0 44 42.937V31.063A4.063 4.063 45 0 0 39.937 27H24.063A4.063 4.063 135 0 0 20 31.063ZM27.011 30h9.978A1.01 1.01 45 0 1 38 31.011v2.978A1.01 1.01 135 0 1 36.989 35H27.01A1.01 1.01 45 0 1 26 33.989V31.01A1.01 1.01 135 0 1 27.011 30Zm0 8h9.978A1.01 1.01 45 0 1 38 39.011v3.978A1.01 1.01 135 0 1 36.989 44H27.01A1.01 1.01 45 0 1 26 42.989V39.01A1.01 1.01 135 0 1 27.011 38Z" style="mix-blend-mode:normal;fill:none;stroke:#0076ff;stroke-width:.21530542;stroke-dasharray:none;stroke-opacity:1;filter:url(#d)" transform="translate(2.287 2.209)scale(.92891)"/></svg>