<svg xmlns="http://www.w3.org/2000/svg" xmlns:xlink="http://www.w3.org/1999/xlink" width="64" height="64"><defs><radialGradient xlink:href="#a" id="c" cx="12.055" cy="58.315" r="28" fx="12.055" fy="58.315" gradientTransform="rotate(-15 -154.992 137.02)scale(2.3545 1.68179)" gradientUnits="userSpaceOnUse"/><radialGradient xlink:href="#b" id="f" cx="22.656" cy="48.921" r="17" fx="22.656" fy="48.921" gradientTransform="rotate(-30 -107.646 157.675)scale(2.62958)" gradientUnits="userSpaceOnUse"/><radialGradient xlink:href="#b" id="e" cx="8.447" cy="36.486" r="28" fx="8.447" fy="36.486" gradientTransform="matrix(1.73306 0 0 .8248 -6.192 -14.595)" gradientUnits="userSpaceOnUse"/><filter id="h" width="1.236" height="1.236" x="-.118" y="-.118" style="color-interpolation-filters:sRGB"><feGaussianBlur stdDeviation="1.461"/></filter><filter id="g" width="1.13" height="1.907" x="-.065" y="-.454" style="color-interpolation-filters:sRGB"><feGaussianBlur stdDeviation="1.429"/></filter><filter id="d" width="1.142" height="1.199" x="-.071" y="-.1" style="color-interpolation-filters:sRGB"><feGaussianBlur stdDeviation="1.454"/></filter><linearGradient id="b"><stop offset="0" style="stop-color:#31c6fc;stop-opacity:1"/><stop offset="1" style="stop-color:#3174fc;stop-opacity:1"/></linearGradient><linearGradient id="a"><stop offset="0" style="stop-color:#fff;stop-opacity:1"/><stop offset="1" style="stop-color:#b0b0b0;stop-opacity:1"/></linearGradient></defs><path d="M4 16v37c0 1.662 1.338 3 3 3h50c1.662 0 3-1.338 3-3V16z" style="fill:url(#c)"/><path d="M4.041 16.054v37c0 1.662 1.338 3 3 3h50c1.662 0 3-1.338 3-3v-37z" style="fill:none;stroke:#000;stroke-opacity:1;fill-opacity:1;opacity:.5883889;filter:url(#d)"/><path d="M60 16v-5c0-1.662-1.338-3-3-3H7c-1.662 0-3 1.338-3 3v5z" style="fill:url(#e)"/><path d="M29 21.998v14.71A1.29 1.29 135 0 1 27.708 38H23a1.416 1.416 54.72 0 1-1.335-1.887L26 23.833A2.126 2.126 54.72 0 0 23.995 21 4.24 4.24 144.658 0 0 20 23.833L15 38a5.2 5.2 42.814 0 0 5.397 5h7.31A1.29 1.29 45 0 1 29 44.292v5.71A3 3 45 0 0 31.998 53h.004A3 3 135 0 0 35 50.002v-5.71A1.29 1.29 135 0 1 36.292 43H38s11 0 11-14c0-10-11-10-11-10h-6.002A3 3 135 0 0 29 21.998M35 24h3s5 0 5 5c0 9-5 9-5 9h-1.708A1.29 1.29 45 0 1 35 36.708Z" style="fill:url(#f)"/><path d="M60.041 16.054v-5c0-1.662-1.338-3-3-3h-50c-1.662 0-3 1.338-3 3v5z" style="fill:none;stroke:#000;stroke-opacity:1;fill-opacity:1;filter:url(#g);opacity:.44405902;stroke-width:.39999991;stroke-dasharray:none"/><path d="M29 21.998v14.71A1.29 1.29 135 0 1 27.708 38H23a1.416 1.416 54.72 0 1-1.335-1.887L26 23.833A2.126 2.126 54.72 0 0 23.995 21 4.24 4.24 144.658 0 0 20 23.833L15 38a5.2 5.2 42.814 0 0 5.397 5h7.31A1.29 1.29 45 0 1 29 44.292v5.71A3 3 45 0 0 31.998 53h.004A3 3 135 0 0 35 50.002v-5.71A1.29 1.29 135 0 1 36.292 43H38s11 0 11-14c0-10-11-10-11-10h-6.002A3 3 135 0 0 29 21.998ZM35 24h3s5 0 5 5c0 9-5 9-5 9h-1.708A1.29 1.29 45 0 1 35 36.708Z" style="fill:none;stroke:#0036ff;stroke-opacity:1;fill-opacity:1;filter:url(#h);opacity:.5883889" transform="translate(.041 .054)"/></svg>