<svg xmlns="http://www.w3.org/2000/svg" xmlns:xlink="http://www.w3.org/1999/xlink" width="64" height="64"><defs><filter id="c" width="1.027" height="1.031" x="-.013" y="-.015" style="color-interpolation-filters:sRGB"><feGaussianBlur stdDeviation=".262"/></filter><filter id="d" width="1.299" height="1.299" x="-.15" y="-.15" style="color-interpolation-filters:sRGB"><feGaussianBlur stdDeviation="3.283"/></filter><filter id="e" width="1.081" height="1.224" x="-.04" y="-.112" style="color-interpolation-filters:sRGB"><feGaussianBlur stdDeviation=".657"/></filter><radialGradient xlink:href="#a" id="b" cx="32" cy="32" r="28" fx="32" fy="32" gradientTransform="translate(4.1 4.013)scale(.8747)" gradientUnits="userSpaceOnUse"/><linearGradient id="a"><stop offset="0" style="stop-color:#d7cac0;stop-opacity:1"/><stop offset="1" style="stop-color:#acacac;stop-opacity:1"/></linearGradient></defs><circle cx="32.09" cy="32.004" r="24.492" style="fill:url(#b);stroke-width:.874708"/><path d="M23.815 13.674a5.623 5.623 0 0 0-5.622 5.624 5.623 5.623 0 0 0 5.622 5.623 5.623 5.623 0 0 0 5.624-5.623 5.623 5.623 0 0 0-5.624-5.624m-.458.21a5 5 0 0 1 .256.007l.053.005.193.016a5 5 0 0 1 .383.054l.116.023.142.03.089.023.125.034.145.042.11.036.095.034.152.059.096.04.11.048.177.084.023.012a5 5 0 0 1 .182.1l.066.038.132.079.083.053.152.106.052.036.13.099a5 5 0 0 1 .852.852l.1.129.035.052.104.153.055.083.079.132.039.066a5 5 0 0 1 .099.181l.012.024.084.176.047.111.041.096.058.152.033.094.038.111.042.145.034.125.02.089.033.142.023.116a5 5 0 0 1 .054.383l.016.193.005.053a5 5 0 0 1 .007.256 5 5 0 0 1-.007.256l-.005.053-.016.193a5 5 0 0 1-.054.381l-.023.118-.032.142-.02.089-.035.124-.042.146-.038.109-.033.096-.058.152-.04.095-.048.11-.084.176-.012.025a5 5 0 0 1-.1.181l-.038.067-.08.131-.054.084-.104.152-.036.051-.099.129a5 5 0 0 1-.852.854l-.13.097-.052.038-.152.104-.083.053-.132.08-.066.04a5 5 0 0 1-.182.097l-.023.012-.176.085-.111.048-.096.04-.152.06-.094.032-.111.037-.145.043-.125.034-.089.02-.142.033-.116.022a5 5 0 0 1-.383.055l-.193.015-.053.004a5 5 0 0 1-.256.007 5 5 0 0 1-.74-.057 5 5 0 0 1-.263-.058 5 5 0 0 1-.47-.113 5 5 0 0 1-.264-.099 5 5 0 0 1-.43-.18 5 5 0 0 1-.259-.14 5 5 0 0 1-.39-.238 5 5 0 0 1-.24-.18 5 5 0 0 1-.344-.294 5 5 0 0 1-.211-.211 5 5 0 0 1-.294-.344 5 5 0 0 1-.18-.24 5 5 0 0 1-.239-.39 5 5 0 0 1-.14-.258 5 5 0 0 1-.18-.43 5 5 0 0 1-.098-.266 5 5 0 0 1-.113-.47 5 5 0 0 1-.058-.262 5 5 0 0 1-.057-.74 5 5 0 0 1 .057-.74 5 5 0 0 1 .058-.265 5 5 0 0 1 .113-.468 5 5 0 0 1 .099-.265 5 5 0 0 1 .179-.432 5 5 0 0 1 .14-.258 5 5 0 0 1 .24-.39 5 5 0 0 1 .179-.239 5 5 0 0 1 .294-.343 5 5 0 0 1 .211-.212 5 5 0 0 1 .344-.294 5 5 0 0 1 .24-.179 5 5 0 0 1 .39-.24 5 5 0 0 1 .258-.141 5 5 0 0 1 .43-.178 5 5 0 0 1 .265-.099 5 5 0 0 1 .47-.113 5 5 0 0 1 .263-.058 5 5 0 0 1 .74-.058m19.206 7.538a11.95 11.95 0 0 0-11.952 11.952 11.95 11.95 0 0 0 11.952 11.952 11.95 11.95 0 0 0 11.952-11.952 11.95 11.95 0 0 0-11.952-11.952m-.974.446a11 11 0 0 1 .547.015l.11.009a11 11 0 0 1 .411.034 11 11 0 0 1 .812.114l.249.048a11 11 0 0 1 .3.067l.19.046.265.072a11 11 0 0 1 .308.092l.235.077.2.072a11 11 0 0 1 .325.124l.201.084.236.104a11 11 0 0 1 .374.178l.052.027a11 11 0 0 1 .386.209l.141.082a11 11 0 0 1 .279.169l.18.113a11 11 0 0 1 .322.223l.11.079a11 11 0 0 1 .273.208 10.6 10.6 0 0 1 1.813 1.815 11 11 0 0 1 .21.271l.077.111a11 11 0 0 1 .223.323l.113.178a11 11 0 0 1 .17.28l.083.142a11 11 0 0 1 .208.384l.026.053a11 11 0 0 1 .18.373l.102.235.085.204a11 11 0 0 1 .125.323l.07.2.079.235a11 11 0 0 1 .09.308l.074.266.044.188a11 11 0 0 1 .068.3l.048.25a11 11 0 0 1 .115.812 11 11 0 0 1 .032.412l.01.11a11 11 0 0 1 .014.546 11 11 0 0 1-.014.546l-.01.11a11 11 0 0 1-.032.411 11 11 0 0 1-.115.812l-.048.25a11 11 0 0 1-.068.3l-.044.188-.074.266a11 11 0 0 1-.09.308l-.079.236-.07.2a11 11 0 0 1-.125.324l-.085.202-.103.236a11 11 0 0 1-.179.374l-.026.05a11 11 0 0 1-.208.387l-.084.14a11 11 0 0 1-.169.28l-.113.18a11 11 0 0 1-.223.32l-.077.112a11 11 0 0 1-.21.273 10.6 10.6 0 0 1-1.813 1.813 11 11 0 0 1-.273.21l-.11.077a11 11 0 0 1-.323.224l-.179.112a11 11 0 0 1-.279.17l-.141.082a11 11 0 0 1-.386.21l-.052.025a11 11 0 0 1-.374.18l-.236.102-.201.086a11 11 0 0 1-.325.124l-.2.07-.235.077a11 11 0 0 1-.308.093l-.265.073-.19.044a11 11 0 0 1-.3.069l-.25.046a11 11 0 0 1-.811.116 11 11 0 0 1-.412.033l-.109.01a11 11 0 0 1-.547.013 10.6 10.6 0 0 1-1.57-.123 11 11 0 0 1-.562-.12 11 11 0 0 1-.998-.242 11 11 0 0 1-.562-.212 11 11 0 0 1-.917-.377 11 11 0 0 1-.547-.3 11 11 0 0 1-.828-.506 11 11 0 0 1-.511-.381 11 11 0 0 1-.731-.627 11 11 0 0 1-.45-.448 11 11 0 0 1-.625-.733 11 11 0 0 1-.38-.51 11 11 0 0 1-.508-.828 11 11 0 0 1-.3-.548 11 11 0 0 1-.379-.916 11 11 0 0 1-.211-.562 11 11 0 0 1-.24-.998 11 11 0 0 1-.123-.562 10.6 10.6 0 0 1-.12-1.571 10.6 10.6 0 0 1 .12-1.57 11 11 0 0 1 .123-.562 11 11 0 0 1 .24-.998 11 11 0 0 1 .211-.562 11 11 0 0 1 .38-.918 11 11 0 0 1 .299-.548 11 11 0 0 1 .507-.827 11 11 0 0 1 .381-.51 11 11 0 0 1 .625-.732 11 11 0 0 1 .45-.45 11 11 0 0 1 .73-.625 11 11 0 0 1 .512-.38 11 11 0 0 1 .828-.508 11 11 0 0 1 .547-.299 11 11 0 0 1 .917-.38 11 11 0 0 1 .562-.211 11 11 0 0 1 .998-.24 11 11 0 0 1 .562-.122 10.6 10.6 0 0 1 1.57-.121zm-20.157 11.56a8.115 8.115 0 0 0-8.115 8.114 8.115 8.115 0 0 0 8.115 8.115 8.115 8.115 0 0 0 8.113-8.115 8.115 8.115 0 0 0-8.113-8.113m-.661.303a7 7 0 0 1 .369.01l.075.007a7 7 0 0 1 .28.022 7 7 0 0 1 .55.077l.17.033.204.046.128.03.18.05.21.062.159.053.136.047.22.086.137.056.161.072a7 7 0 0 1 .253.121l.036.017a7 7 0 0 1 .261.142l.096.056.19.115.12.077a7 7 0 0 1 .22.152l.075.053.186.142a7.2 7.2 0 0 1 1.23 1.23l.143.186.052.075a7 7 0 0 1 .152.219l.077.121.114.19.056.095a7 7 0 0 1 .142.262l.019.036a7 7 0 0 1 .121.254l.07.159.057.137.085.22.048.137.053.159.061.21.05.18.03.127.047.205.032.17a7 7 0 0 1 .079.55 7 7 0 0 1 .022.28l.005.075a7 7 0 0 1 .01.37 7 7 0 0 1-.01.37l-.005.075a7 7 0 0 1-.022.28 7 7 0 0 1-.079.55l-.032.17-.046.204-.031.128-.05.181-.061.209-.053.159-.048.136-.085.22-.057.138-.07.16a7 7 0 0 1-.121.253l-.019.036a7 7 0 0 1-.142.261l-.056.096-.114.19-.077.12a7 7 0 0 1-.152.221l-.052.074-.143.186a7.2 7.2 0 0 1-1.23 1.23l-.186.143-.076.053a7 7 0 0 1-.218.15l-.122.078-.19.114-.095.056a7 7 0 0 1-.261.142l-.036.02a7 7 0 0 1-.253.12l-.16.07-.137.057-.22.085-.137.048-.16.053-.21.062-.179.05-.128.03-.205.046-.169.032a7 7 0 0 1-.55.079 7 7 0 0 1-.28.022l-.075.007a7 7 0 0 1-.37.008 7 7 0 0 1-1.067-.082 7 7 0 0 1-.381-.083 7 7 0 0 1-.677-.163 7 7 0 0 1-.382-.145 7 7 0 0 1-.622-.256 7 7 0 0 1-.373-.203 7 7 0 0 1-.562-.345 7 7 0 0 1-.347-.258 7 7 0 0 1-.497-.426 7 7 0 0 1-.304-.304 7 7 0 0 1-.425-.497 7 7 0 0 1-.258-.347 7 7 0 0 1-.345-.562 7 7 0 0 1-.204-.37 7 7 0 0 1-.256-.624 7 7 0 0 1-.143-.381 7 7 0 0 1-.164-.678 7 7 0 0 1-.082-.381 7 7 0 0 1-.084-1.066 7 7 0 0 1 .084-1.068 7 7 0 0 1 .082-.381 7 7 0 0 1 .164-.677 7 7 0 0 1 .143-.382 7 7 0 0 1 .256-.622 7 7 0 0 1 .204-.373 7 7 0 0 1 .345-.562 7 7 0 0 1 .258-.347 7 7 0 0 1 .425-.495 7 7 0 0 1 .304-.306 7 7 0 0 1 .497-.425 7 7 0 0 1 .347-.258 7 7 0 0 1 .562-.345 7 7 0 0 1 .373-.204 7 7 0 0 1 .622-.256 7 7 0 0 1 .382-.143 7 7 0 0 1 .677-.164 7 7 0 0 1 .38-.082 7 7 0 0 1 1.069-.084" style="opacity:.123456;fill:#210b00;fill-opacity:1;stroke:none;stroke-width:.106508;stroke-linecap:round;stroke-linejoin:round;stroke-opacity:1"/><path d="M22.677 11.09a6.43 6.43 0 0 0-6.428 6.43 6.43 6.43 0 0 0 6.428 6.427 6.43 6.43 0 0 0 6.43-6.428 6.43 6.43 0 0 0-6.43-6.43m-.524.24a6 6 0 0 1 .293.008l.06.005a6 6 0 0 1 .222.018 6 6 0 0 1 .437.063l.133.025.162.035.101.025.143.04.166.048.127.041.107.04.174.066.11.047.127.054a6 6 0 0 1 .2.096l.028.014a6 6 0 0 1 .207.113l.076.045.15.09.096.06.174.121.059.041.148.114a5.7 5.7 0 0 1 .975.974l.113.147.041.06.12.174.062.096.09.15.045.076a6 6 0 0 1 .113.208l.014.027a6 6 0 0 1 .095.201l.055.127.047.11.066.173.037.108.043.127.05.166.038.142.024.102.037.162.025.133a6 6 0 0 1 .063.437 6 6 0 0 1 .017.22l.006.061a6 6 0 0 1 .008.293 6 6 0 0 1-.008.293l-.006.06a6 6 0 0 1-.017.222 6 6 0 0 1-.063.435l-.025.135-.037.162-.024.102-.039.142-.049.166-.043.125-.037.11-.066.173-.047.11-.055.125a6 6 0 0 1-.095.2l-.014.03a6 6 0 0 1-.113.207l-.045.076-.09.15-.063.097-.119.173-.04.059-.114.146a5.7 5.7 0 0 1-.975.977l-.148.111-.059.043-.174.12-.095.06-.15.092-.077.045a6 6 0 0 1-.207.111l-.027.014a6 6 0 0 1-.201.097l-.127.055-.11.045-.174.068-.107.037-.127.043-.166.05-.143.038-.101.024-.162.037-.133.025a6 6 0 0 1-.437.063 6 6 0 0 1-.221.017l-.06.004a6 6 0 0 1-.294.008 6 6 0 0 1-.845-.064 6 6 0 0 1-.301-.067 6 6 0 0 1-.537-.129 6 6 0 0 1-.303-.113 6 6 0 0 1-.492-.205 6 6 0 0 1-.295-.16 6 6 0 0 1-.445-.274 6 6 0 0 1-.276-.205 6 6 0 0 1-.392-.336 6 6 0 0 1-.243-.242 6 6 0 0 1-.336-.392 6 6 0 0 1-.205-.276 6 6 0 0 1-.273-.445 6 6 0 0 1-.16-.295 6 6 0 0 1-.205-.492 6 6 0 0 1-.114-.303 6 6 0 0 1-.128-.537 6 6 0 0 1-.067-.3 6 6 0 0 1-.064-.847 6 6 0 0 1 .064-.845 6 6 0 0 1 .067-.303 6 6 0 0 1 .128-.535 6 6 0 0 1 .114-.303 6 6 0 0 1 .205-.494 6 6 0 0 1 .16-.295 6 6 0 0 1 .273-.445 6 6 0 0 1 .205-.274 6 6 0 0 1 .336-.392 6 6 0 0 1 .243-.243 6 6 0 0 1 .392-.335 6 6 0 0 1 .276-.206 6 6 0 0 1 .445-.273 6 6 0 0 1 .295-.162 6 6 0 0 1 .492-.203 6 6 0 0 1 .303-.114 6 6 0 0 1 .537-.128 6 6 0 0 1 .3-.067 6 6 0 0 1 .846-.066m21.957 8.617A13.664 13.664 0 0 0 30.446 33.61 13.664 13.664 0 0 0 44.11 47.275a13.664 13.664 0 0 0 13.664-13.664A13.664 13.664 0 0 0 44.11 19.947m-1.113.51a12 12 0 0 1 .625.017l.125.01a12 12 0 0 1 .47.04 12 12 0 0 1 .928.13l.286.055a12 12 0 0 1 .343.076l.217.053a12 12 0 0 1 .303.082 12 12 0 0 1 .351.105l.27.088.229.082a12 12 0 0 1 .37.143l.231.095.27.12a12 12 0 0 1 .427.203l.059.03a12 12 0 0 1 .441.24l.162.093a12 12 0 0 1 .319.193l.205.13a12 12 0 0 1 .369.255l.125.09a12 12 0 0 1 .313.238 12 12 0 0 1 2.072 2.074 12 12 0 0 1 .24.31l.088.128a12 12 0 0 1 .256.369l.129.203a12 12 0 0 1 .193.32l.096.162a12 12 0 0 1 .238.44l.03.06a12 12 0 0 1 .204.426l.118.27.097.232a12 12 0 0 1 .143.37l.08.228.09.27a12 12 0 0 1 .103.351 12 12 0 0 1 .084.305l.051.215a12 12 0 0 1 .078.343l.055.285a12 12 0 0 1 .13.928 12 12 0 0 1 .038.47l.012.128a12 12 0 0 1 .015.623 12 12 0 0 1-.015.625l-.012.125a12 12 0 0 1-.037.47 12 12 0 0 1-.131.928l-.055.285a12 12 0 0 1-.078.344l-.05.215a12 12 0 0 1-.085.305 12 12 0 0 1-.103.351l-.09.27-.08.228a12 12 0 0 1-.143.371l-.097.23-.118.27a12 12 0 0 1-.205.428l-.029.059a12 12 0 0 1-.238.441l-.096.16a12 12 0 0 1-.193.32l-.13.206a12 12 0 0 1-.255.367l-.088.127a12 12 0 0 1-.24.312 12 12 0 0 1-2.072 2.073 12 12 0 0 1-.313.24l-.125.088a12 12 0 0 1-.37.256l-.204.128a12 12 0 0 1-.319.194l-.162.094a12 12 0 0 1-.441.24l-.059.03a12 12 0 0 1-.427.204l-.27.117-.23.098a12 12 0 0 1-.371.143l-.229.08-.27.088a12 12 0 0 1-.351.105 12 12 0 0 1-.303.084l-.217.05a12 12 0 0 1-.343.079l-.286.053a12 12 0 0 1-.927.133 12 12 0 0 1-.471.037l-.125.011a12 12 0 0 1-.625.016 12 12 0 0 1-1.795-.14 12 12 0 0 1-.642-.14 12 12 0 0 1-1.141-.275 12 12 0 0 1-.643-.242 12 12 0 0 1-1.048-.432 12 12 0 0 1-.625-.341 12 12 0 0 1-.948-.58 12 12 0 0 1-.584-.436 12 12 0 0 1-.836-.717 12 12 0 0 1-.513-.511 12 12 0 0 1-.715-.838 12 12 0 0 1-.436-.582 12 12 0 0 1-.58-.948 12 12 0 0 1-.342-.627 12 12 0 0 1-.433-1.047 12 12 0 0 1-.242-.642 12 12 0 0 1-.274-1.14 12 12 0 0 1-.14-.643 12 12 0 0 1-.14-1.797 12 12 0 0 1 .14-1.795 12 12 0 0 1 .14-.643 12 12 0 0 1 .274-1.14 12 12 0 0 1 .242-.643 12 12 0 0 1 .433-1.049 12 12 0 0 1 .342-.627 12 12 0 0 1 .58-.945 12 12 0 0 1 .436-.584 12 12 0 0 1 .715-.836 12 12 0 0 1 .513-.514 12 12 0 0 1 .836-.714 12 12 0 0 1 .584-.436 12 12 0 0 1 .948-.58 12 12 0 0 1 .625-.342 12 12 0 0 1 1.048-.433 12 12 0 0 1 .643-.243 12 12 0 0 1 1.14-.273 12 12 0 0 1 .643-.14 12 12 0 0 1 1.795-.14zM19.952 33.674a9.277 9.277 0 0 0-9.277 9.275 9.277 9.277 0 0 0 9.277 9.277 9.277 9.277 0 0 0 9.276-9.277 9.277 9.277 0 0 0-9.276-9.275m-.756.345a8 8 0 0 1 .422.012l.086.008a8 8 0 0 1 .32.025 8 8 0 0 1 .63.088l.193.037.234.053.147.035.205.057.24.07.181.06.157.055a8 8 0 0 1 .252.098l.156.064.184.082a8 8 0 0 1 .289.139l.04.02a8 8 0 0 1 .3.162l.109.064.217.131.138.088a8 8 0 0 1 .25.174l.086.06a8 8 0 0 1 .213.162 8.2 8.2 0 0 1 1.406 1.407 8 8 0 0 1 .164.212l.059.086a8 8 0 0 1 .174.25l.088.14.13.216.065.11a8 8 0 0 1 .162.298l.022.041a8 8 0 0 1 .138.291l.08.182.065.156a8 8 0 0 1 .097.252l.055.156.06.182.071.24.057.205.035.147.053.234.037.193a8 8 0 0 1 .09.63 8 8 0 0 1 .025.32l.006.086a8 8 0 0 1 .012.423 8 8 0 0 1-.012.422l-.006.086a8 8 0 0 1-.025.32 8 8 0 0 1-.09.63l-.037.193-.053.234-.035.147-.057.207-.07.238-.06.182-.056.156a8 8 0 0 1-.097.252l-.065.156-.08.184a8 8 0 0 1-.138.289l-.022.04a8 8 0 0 1-.162.3l-.064.109-.131.217-.088.138a8 8 0 0 1-.174.252l-.059.084a8 8 0 0 1-.164.213 8.2 8.2 0 0 1-1.406 1.406 8 8 0 0 1-.213.165l-.086.06a8 8 0 0 1-.25.172l-.138.088-.217.13-.11.065a8 8 0 0 1-.298.162l-.041.022a8 8 0 0 1-.29.138l-.183.08-.156.065a8 8 0 0 1-.252.098l-.157.054-.181.06-.24.071-.205.057-.147.035-.234.053-.194.037a8 8 0 0 1-.629.09 8 8 0 0 1-.32.025l-.086.008a8 8 0 0 1-.422.01 8 8 0 0 1-1.22-.094 8 8 0 0 1-.436-.096 8 8 0 0 1-.773-.185 8 8 0 0 1-.438-.166 8 8 0 0 1-.71-.293 8 8 0 0 1-.427-.233 8 8 0 0 1-.642-.394 8 8 0 0 1-.397-.295 8 8 0 0 1-.568-.487 8 8 0 0 1-.348-.347 8 8 0 0 1-.486-.569 8 8 0 0 1-.295-.396 8 8 0 0 1-.395-.643 8 8 0 0 1-.232-.423 8 8 0 0 1-.293-.713 8 8 0 0 1-.164-.436 8 8 0 0 1-.187-.775 8 8 0 0 1-.094-.436 8 8 0 0 1-.096-1.219 8 8 0 0 1 .096-1.22 8 8 0 0 1 .094-.436 8 8 0 0 1 .187-.773 8 8 0 0 1 .164-.438 8 8 0 0 1 .293-.71 8 8 0 0 1 .232-.427 8 8 0 0 1 .395-.642 8 8 0 0 1 .295-.397 8 8 0 0 1 .486-.566 8 8 0 0 1 .348-.35 8 8 0 0 1 .568-.486 8 8 0 0 1 .397-.295 8 8 0 0 1 .642-.394 8 8 0 0 1 .426-.233 8 8 0 0 1 .711-.293 8 8 0 0 1 .438-.164 8 8 0 0 1 .773-.187 8 8 0 0 1 .436-.094 8 8 0 0 1 1.22-.096" style="opacity:.194125;fill:#fff;fill-opacity:1;stroke:none;stroke-width:.121764;stroke-linecap:round;stroke-linejoin:round;stroke-opacity:1;filter:url(#c)" transform="translate(4.021 4.013)scale(.8747)"/><path d="M15.977 24.389c-3.206 0-3.206 3.206-3.206 3.206v7.482s0 3.206 3.206 3.206h2.138c3.206 0 3.206-3.206 3.206-3.206v-2.138s0-3.206-3.206-3.206h-1.038a1.1 1.1 0 0 1-1.1-1.1 1.07 1.07 0 0 1 1.1-1.038h2.656a1.59 1.59 0 0 0 1.588-1.588v-.03a1.59 1.59 0 0 0-1.588-1.588zm10.154 0a1.6 1.6 0 0 0-1.604 1.603V36.68a1.6 1.6 0 0 0 1.604 1.603 1.6 1.6 0 0 0 1.603-1.603V25.992a1.6 1.6 0 0 0-1.603-1.603m6.947 0c-2.138 0-2.138 2.35-2.138 2.35v2.171a2.286 2.286 0 0 0 2.138 2.426 2.286 2.286 0 0 0-2.138 2.426v2.384s0 2.137 2.138 2.137h4.275c2.138 0 2.138-2.565 2.138-2.565v-2.244a1.93 1.93 0 0 0-1.695-2.138 1.93 1.93 0 0 0 1.695-2.138V26.74s0-2.35-2.138-2.35zm11.788 0c-1.069 0-2.138 1.069-2.138 2.137v9.62c0 1.45.687 2.137 2.138 2.137h4.275c1.45 0 2.138-.687 2.138-2.137v-9.62c0-1.068-1.07-2.137-2.138-2.137zm-10.37 2.204h1.229a1.04 1.04 0 0 1 1.041 1.042v.628a1.04 1.04 0 0 1-1.041 1.04h-1.23a1.04 1.04 0 0 1-1.04-1.04v-.628a1.04 1.04 0 0 1 1.04-1.042m11.9.54h1.213a1.01 1.01 0 0 1 1.008 1.01v6.387a1.01 1.01 0 0 1-1.008 1.008h-1.213a1.01 1.01 0 0 1-1.008-1.008v-6.388a1.01 1.01 0 0 1 1.008-1.008M17.033 32.46h.025a1.114 1.114 0 0 1 1.113 1.115v.868a1.114 1.114 0 0 1-1.113 1.115h-.025a1.114 1.114 0 0 1-1.112-1.115v-.868a1.114 1.114 0 0 1 1.112-1.115m17.462.91h1.23a1.04 1.04 0 0 1 1.041 1.04v.628a1.04 1.04 0 0 1-1.041 1.042h-1.23a1.04 1.04 0 0 1-1.04-1.042v-.628a1.04 1.04 0 0 1 1.04-1.04" style="fill:#4f4f4f;stroke-width:1.0688"/><circle cx="32.095" cy="32.031" r="28" style="mix-blend-mode:normal;fill:none;stroke:#000;stroke-linejoin:round;stroke-opacity:1;filter:url(#d)" transform="translate(4.021 4.013)scale(.8747)"/><path d="M13.674 23.325c-3.666 0-3.666 3.666-3.666 3.666v8.553s0 3.665 3.666 3.665h2.443c3.666 0 3.666-3.665 3.666-3.665V33.1s0-3.666-3.666-3.666h-1.186a1.26 1.26 0 0 1-1.257-1.257 1.22 1.22 0 0 1 1.257-1.186h3.036a1.816 1.816 0 0 0 1.816-1.817v-.033a1.816 1.816 0 0 0-1.816-1.816zm11.608 0a1.83 1.83 0 0 0-1.833 1.833v12.219c0 1.015.817 1.832 1.833 1.832a1.83 1.83 0 0 0 1.832-1.832v-12.22a1.83 1.83 0 0 0-1.832-1.832zm7.942 0c-2.444 0-2.444 2.687-2.444 2.687v2.482a2.614 2.614 0 0 0 2.444 2.773 2.614 2.614 0 0 0-2.444 2.773v2.726s0 2.443 2.444 2.443h4.887c2.444 0 2.444-2.933 2.444-2.933v-2.565a2.205 2.205 0 0 0-1.938-2.444 2.205 2.205 0 0 0 1.938-2.444v-2.81s0-2.688-2.444-2.688zm13.477 0c-1.222 0-2.444 1.222-2.444 2.444v10.997c0 1.658.785 2.443 2.444 2.443h4.887c1.659 0 2.444-.785 2.444-2.443V25.769c0-1.222-1.222-2.444-2.444-2.444zm-11.857 2.52h1.406a1.19 1.19 0 0 1 1.19 1.19v.72a1.19 1.19 0 0 1-1.19 1.188h-1.406a1.19 1.19 0 0 1-1.188-1.189v-.718a1.19 1.19 0 0 1 1.188-1.191zm13.606.618h1.386a1.153 1.153 0 0 1 1.153 1.153v7.303a1.153 1.153 0 0 1-1.153 1.152H48.45a1.153 1.153 0 0 1-1.153-1.152v-7.303a1.153 1.153 0 0 1 1.153-1.153zm-33.57 6.088h.029a1.273 1.273 0 0 1 1.272 1.274v.993a1.273 1.273 0 0 1-1.272 1.275h-.029a1.273 1.273 0 0 1-1.272-1.275v-.993a1.273 1.273 0 0 1 1.272-1.274zm19.963 1.04h1.406a1.19 1.19 0 0 1 1.19 1.19v.717a1.19 1.19 0 0 1-1.19 1.191h-1.406a1.19 1.19 0 0 1-1.188-1.19v-.719a1.19 1.19 0 0 1 1.188-1.188z" style="mix-blend-mode:normal;fill:none;stroke:#fff;stroke-width:.4;stroke-linejoin:round;stroke-dasharray:none;stroke-opacity:1;filter:url(#e)" transform="translate(4.021 4.013)scale(.8747)"/></svg>