<svg xmlns="http://www.w3.org/2000/svg" xmlns:xlink="http://www.w3.org/1999/xlink" width="64" height="64"><defs><radialGradient xlink:href="#a" id="c" cx="15.665" cy="48.782" r="28" fx="15.665" fy="48.782" gradientTransform="rotate(-15 -132.509 129.768)scale(2.01574 1.84272)" gradientUnits="userSpaceOnUse"/><radialGradient xlink:href="#b" id="d" cx="12.68" cy="47.678" r="20.602" fx="12.68" fy="47.678" gradientTransform="rotate(-30 -183.922 153.224)scale(3.00608 3.39455)" gradientUnits="userSpaceOnUse"/><linearGradient id="b"><stop offset="0" style="stop-color:#e67c13;stop-opacity:1"/><stop offset="1" style="stop-color:#e21209;stop-opacity:1"/></linearGradient><linearGradient id="a"><stop offset="0" style="stop-color:#707070;stop-opacity:.99990666"/><stop offset="1" style="stop-color:#313131;stop-opacity:.99990666"/></linearGradient><filter id="f" width="1.111" height="1.098" x="-.055" y="-.049" style="color-interpolation-filters:sRGB"><feGaussianBlur stdDeviation=".863"/></filter><filter id="e" width="1.139" height="1.139" x="-.07" y="-.07" style="color-interpolation-filters:sRGB"><feGaussianBlur stdDeviation="1.499"/></filter></defs><path d="M16.88 4h30.24A12.88 12.88 45 0 1 60 16.88v30.24A12.88 12.88 135 0 1 47.12 60H16.88A12.88 12.88 45 0 1 4 47.12V16.88A12.88 12.88 135 0 1 16.88 4" style="fill:url(#c)"/><path d="m11.003 10.806 2.994 5.388A3.51 3.51 30.473 0 0 17.066 18h18.888a.49.49 64.903 0 1 .376.803l-3.851 4.622a.108.108 48.058 0 0 .143.16l1.756-1.17a.199.199 41.437 0 1 .288.254l-.332.662a.199.199 41.437 0 0 .288.254l1.756-1.17a.045.045 52.854 0 1 .054.072l-5.864 5.026a.344.344 24.7 0 1-.568-.26.275.275 128.74 0 0-.334.416l-.332.662a1.5 1.5 90 0 0 0 1.338l.332.662a1.11 1.11 97.31 0 1-.159 1.232l-6.014 6.874a23 23 133.093 0 1-1.022 1.092L20.53 41.47a1.8 1.8 112.5 0 0-.53 1.278v1.504a1.8 1.8 67.5 0 0 .529 1.277l.942.942a.613.613 95.655 0 1-.093.944l-1.756 1.17a.226.226 73.155 0 0 .126.415h.504a.4.4 61.845 0 1 .333.622l-1.17 1.756a.074.074 39.345 0 0 .114.093l5.942-5.942a.082.082 38.736 0 1 .127.102l-6.196 9.738a.104.104 40.419 0 0 .157.134l7.882-7.006a2.8 2.8 123.4 0 0 .796-1.207l.526-1.58A4.6 4.6 99.217 0 0 29 44.252v-.504a1.8 1.8 112.5 0 1 .529-1.277l1.942-1.942a.31.31 22.5 0 1 .529.219.462.462 5.562 0 0 .726.07l2.548-.637a2.7 2.7 150.482 0 0 1.255-.71l2.942-2.942a.75.75 90 0 0 0-1.058.71.71 176.695 0 0-1 .058l-.942.942a.31.31 22.5 0 1-.529-.219v-.504a1.83 1.83 112.274 0 1 .525-1.281l1.95-1.982a1.83 1.83 112.274 0 0 .525-1.28v-1.457a2.37 2.37 107.496 0 1 .429-1.36l11.244-16.064A2.113 2.113 62.496 0 0 49.942 9H12.066a1.215 1.215 120.473 0 0-1.063 1.806" style="fill:url(#d)" transform="translate(4.869 5.423)scale(.86665)"/><path d="M16.88 4h30.24A12.88 12.88 45 0 1 60 16.88v30.24A12.88 12.88 135 0 1 47.12 60H16.88A12.88 12.88 45 0 1 4 47.12V16.88A12.88 12.88 135 0 1 16.88 4Z" style="fill:none;stroke:#000;stroke-opacity:1;filter:url(#e);stroke-width:.60000005;stroke-dasharray:none" transform="translate(.077 .034)"/><path d="m11.003 10.806 2.994 5.388A3.51 3.51 30.473 0 0 17.066 18h18.888a.49.49 64.903 0 1 .376.803l-3.851 4.622a.108.108 48.058 0 0 .143.16l1.756-1.17a.199.199 41.437 0 1 .288.254l-.332.662a.199.199 41.437 0 0 .288.254l1.756-1.17a.045.045 52.854 0 1 .054.072l-5.864 5.026a.344.344 24.7 0 1-.568-.26.275.275 128.74 0 0-.334.416l-.332.662a1.5 1.5 90 0 0 0 1.338l.332.662a1.11 1.11 97.31 0 1-.159 1.232l-6.014 6.874a23 23 133.093 0 1-1.022 1.092L20.53 41.47a1.8 1.8 112.5 0 0-.53 1.278v1.504a1.8 1.8 67.5 0 0 .529 1.277l.942.942a.613.613 95.655 0 1-.093.944l-1.756 1.17a.226.226 73.155 0 0 .126.415h.504a.4.4 61.845 0 1 .333.622l-1.17 1.756a.074.074 39.345 0 0 .114.093l5.942-5.942a.082.082 38.736 0 1 .127.102l-6.196 9.738a.104.104 40.419 0 0 .157.134l7.882-7.006a2.8 2.8 123.4 0 0 .796-1.207l.526-1.58A4.6 4.6 99.217 0 0 29 44.252v-.504a1.8 1.8 112.5 0 1 .529-1.277l1.942-1.942a.31.31 22.5 0 1 .529.219.462.462 5.562 0 0 .726.07l2.548-.637a2.7 2.7 150.482 0 0 1.255-.71l2.942-2.942a.75.75 90 0 0 0-1.058.71.71 176.695 0 0-1 .058l-.942.942a.31.31 22.5 0 1-.529-.219v-.504a1.83 1.83 112.274 0 1 .525-1.281l1.95-1.982a1.83 1.83 112.274 0 0 .525-1.28v-1.457a2.37 2.37 107.496 0 1 .429-1.36l11.244-16.064A2.113 2.113 62.496 0 0 49.942 9H12.066a1.215 1.215 120.473 0 0-1.063 1.806z" style="fill:none;stroke:#ff6b00;stroke-opacity:1;filter:url(#f);stroke-width:.42231346;stroke-dasharray:none" transform="translate(4.945 5.458)scale(.86665)"/></svg>