<svg xmlns="http://www.w3.org/2000/svg" xmlns:xlink="http://www.w3.org/1999/xlink" width="64" height="64"><defs><filter id="f" width="1.309" height="3.227" x="-.154" y="-1.114" style="color-interpolation-filters:sRGB"><feGaussianBlur stdDeviation="1.83"/></filter><filter id="d" width="1.292" height="1.297" x="-.146" y="-.148" style="color-interpolation-filters:sRGB"><feGaussianBlur stdDeviation="2.206"/></filter><filter id="e" width="1.252" height="1.367" x="-.126" y="-.184" style="color-interpolation-filters:sRGB"><feGaussianBlur stdDeviation="1.47"/></filter><filter id="c" width="1.204" height="1.208" x="-.102" y="-.104" style="color-interpolation-filters:sRGB"><feGaussianBlur stdDeviation="2.214"/></filter><radialGradient xlink:href="#a" id="b" cx="10.776" cy="55.377" r="26.693" fx="10.776" fy="55.377" gradientTransform="rotate(-15 -331.971 170.225)scale(2.7613 2.71285)" gradientUnits="userSpaceOnUse"/><linearGradient id="a"><stop offset="0" style="stop-color:#171717;stop-opacity:1"/><stop offset="1" style="stop-color:#353535;stop-opacity:1"/></linearGradient></defs><rect width="53.385" height="52.449" x="5.307" y="5.776" rx="16.044" ry="16.044" style="fill:url(#b);stroke-width:.936586"/><path d="M42.17 11.756c-7.218.032-14.44-.053-21.655.08-4.771.394-8.709 4.874-8.492 9.657.03 3.725-.06 7.454.05 11.176.384 4.774 4.81 8.75 9.599 8.616-2.826-.139-5.982 1.914-7.887 4.601-1.661 2.344.623 4.902 3.543 4.902h29.13c2.855 0 5.37-2.495 4.048-4.992-1.283-2.423-3.564-3.93-6.295-4.282-1.09-.175-2.144-.072-.446-.201 4.567-.498 8.187-4.895 7.883-9.461-.033-3.85.052-7.702-.061-11.548-.406-4.712-4.67-8.63-9.417-8.548" style="fill:#3f3f3f" transform="translate(2.03 2.03)scale(.93659)"/><path d="M16.526 31.013v9.906a6.014 6.014 45 0 0 6.014 6.014h19.958a6.014 6.014 135 0 0 6.014-6.014v-9.906a6.014 6.014 45 0 0-6.014-6.014H22.54a6.014 6.014 135 0 0-6.014 6.014m6.295 2.17h3.86a1.725 1.725 45 0 1 1.726 1.725v.305a1.725 1.725 135 0 1-1.725 1.725H22.82a1.725 1.725 45 0 1-1.725-1.725v-.305a1.725 1.725 135 0 1 1.725-1.725m16.026-2.7h2.88a2.215 2.215 45 0 1 2.216 2.215v2.125a2.215 2.215 135 0 1-2.215 2.216h-2.881a2.215 2.215 45 0 1-2.215-2.216v-2.125a2.215 2.215 135 0 1 2.215-2.215" style="fill:#fff;stroke-width:.913888" transform="matrix(-.93659 0 0 .93659 62.32 -6.656)"/><path d="M21.049 44.03c-1.946.008-4.228 1.387-4.964 3.144-.268.64.326 1.232 1.025 1.232h29.545c.699 0 1.2-.575.922-1.214-1.11-2.553-4.3-3.384-6.977-3.14H22.188z" style="fill:#fff;stroke-width:.5;stroke-linecap:round;stroke-linejoin:round" transform="translate(2.03 2.03)scale(.93659)"/><rect width="57" height="56" x="3.5" y="4" rx="16.05" ry="16.05" style="mix-blend-mode:normal;fill:none;stroke:#000;stroke-opacity:1;filter:url(#c)" transform="translate(2.03 2.03)scale(.93659)"/><path d="M42.17 11.756c-7.218.032-14.44-.053-21.655.08-4.771.394-8.709 4.874-8.492 9.657.03 3.725-.06 7.454.05 11.176.384 4.774 4.81 8.75 9.599 8.616-2.826-.139-5.982 1.914-7.887 4.601-1.661 2.344.623 4.902 3.543 4.902h29.13c2.855 0 5.37-2.495 4.048-4.992-1.283-2.423-3.564-3.93-6.295-4.282-1.09-.175-2.144-.072-.446-.201 4.567-.498 8.187-4.895 7.883-9.461-.033-3.85.052-7.702-.061-11.548-.406-4.712-4.67-8.63-9.417-8.548z" style="mix-blend-mode:normal;fill:none;stroke:#000;stroke-opacity:1;filter:url(#d)" transform="translate(2.03 2.03)scale(.93659)"/><path d="M16.526 31.013v9.906a6.014 6.014 45 0 0 6.014 6.014h19.958a6.014 6.014 135 0 0 6.014-6.014v-9.906a6.014 6.014 45 0 0-6.014-6.014H22.54a6.014 6.014 135 0 0-6.014 6.014zm6.295 2.17h3.86a1.725 1.725 45 0 1 1.726 1.725v.305a1.725 1.725 135 0 1-1.725 1.725H22.82a1.725 1.725 45 0 1-1.725-1.725v-.305a1.725 1.725 135 0 1 1.725-1.725zm16.026-2.7h2.88a2.215 2.215 45 0 1 2.216 2.215v2.125a2.215 2.215 135 0 1-2.215 2.216h-2.881a2.215 2.215 45 0 1-2.215-2.216v-2.125a2.215 2.215 135 0 1 2.215-2.215z" style="mix-blend-mode:normal;fill:none;stroke:#fff;stroke-width:1;stroke-dasharray:none;stroke-opacity:1;filter:url(#e);opacity:.61580414" transform="matrix(-.93659 0 0 .93659 62.32 -6.656)"/><path d="M21.049 44.03c-1.946.008-4.228 1.387-4.964 3.144-.268.64.326 1.232 1.025 1.232h29.545c.699 0 1.2-.575.922-1.214-1.11-2.553-4.3-3.384-6.977-3.14H22.188z" style="mix-blend-mode:normal;fill:none;stroke:#fff;stroke-width:1;stroke-linecap:round;stroke-linejoin:round;stroke-dasharray:none;stroke-opacity:1;filter:url(#f);opacity:.58554975" transform="translate(2.03 2.03)scale(.93659)"/></svg>