<svg xmlns="http://www.w3.org/2000/svg" width="64" height="64"><defs><filter id="c" width="1.074" height="1.074" x="-.037" y="-.037" style="color-interpolation-filters:sRGB"><feGaussianBlur stdDeviation=".667"/></filter><filter id="b" width="1.142" height="1.142" x="-.071" y="-.071" style="color-interpolation-filters:sRGB"><feGaussianBlur stdDeviation="1.59"/></filter><radialGradient id="a" cx="-159.431" cy="15.463" r="64.707" fx="-159.431" fy="15.463" gradientTransform="matrix(-.89413 0 0 .96305 -16.53 49.337)" gradientUnits="userSpaceOnUse"><stop offset="0" style="stop-color:#006fff;stop-opacity:1"/><stop offset="1" style="stop-color:#15baff;stop-opacity:1"/></radialGradient></defs><path d="M84.998 4.058h22.4c9.3 0 16.8 7.5 16.8 16.8v22.4c0 9.3-7.5 16.8-16.8 16.8h-22.4c-9.3 0-16.8-7.5-16.8-16.8v-22.4c0-9.3 7.5-16.8 16.8-16.8" class="st1" style="fill:url(#a)" transform="translate(-64.224 -.006)"/><path d="M85.024 4.006h22.4c9.3 0 16.8 7.5 16.8 16.8v22.4c0 9.3-7.5 16.8-16.8 16.8h-22.4c-9.3 0-16.8-7.5-16.8-16.8v-22.4c0-9.3 7.5-16.8 16.8-16.8z" class="st1" style="opacity:.673189;fill:none;stroke:#000;stroke-width:.3;stroke-dasharray:none;stroke-opacity:1;filter:url(#b)" transform="translate(-64.224 -.006)"/><path d="M40.988 8c-4.625-.115-9.654 1.916-11.67 6.335-1.011 2.035-1.373 4.278-1.42 6.531C27.86 22.598 29.403 24 31.136 24c1.581 0 2.733-1.403 2.77-3.135.045-2.157.473-4.289 2.267-5.654 2.47-1.522 5.788-1.6 8.428-.482 4.97 2.502 4.378 10.936-.81 12.834-2.546.75-5.239.324-7.859.437-5.48.042-10.966-.09-16.442.075-4.981.352-9.555 3.955-10.8 8.833-1.792 6.016.945 13.345 6.864 15.916 5.776 2.688 13.605.74 16.694-5.052 1.11-2.076 1.61-4.395 1.752-6.736.104-1.722-1.402-3.083-3.127-3.033-1.586.046-2.777 1.488-2.926 3.206-.188 2.16-.789 4.276-2.437 5.742-2.196 1.348-5.123 1.356-7.486.45-4.905-2.24-5.297-10.552-.223-12.82 2.558-.952 5.335-.457 8.005-.581 5.552-.038 11.109.08 16.657-.066 5.194-.365 9.822-4.28 11.066-9.331 1.621-5.58-.62-12.35-5.965-15.05C45.552 8.484 43.261 7.989 40.988 8" style="color:#000;fill:#fff;stroke:none;stroke-linejoin:round;-inkscape-stroke:none" transform="translate(1.648 1.65)scale(.9487)"/><path d="M40.988 8c-4.625-.115-9.654 1.916-11.67 6.335-1.011 2.035-1.373 4.278-1.42 6.531C27.86 22.598 29.403 24 31.136 24c1.581 0 2.733-1.403 2.77-3.135.045-2.157.473-4.289 2.267-5.654 2.47-1.522 5.788-1.6 8.428-.482 4.97 2.502 4.378 10.936-.81 12.834-2.546.75-5.239.324-7.859.437-5.48.042-10.966-.09-16.442.075-4.981.352-9.555 3.955-10.8 8.833-1.792 6.016.945 13.345 6.864 15.916 5.776 2.688 13.605.74 16.694-5.052 1.11-2.076 1.61-4.395 1.752-6.736.104-1.722-1.402-3.083-3.127-3.033-1.586.046-2.777 1.488-2.926 3.206-.188 2.16-.789 4.276-2.437 5.742-2.196 1.348-5.123 1.356-7.486.45-4.905-2.24-5.297-10.552-.223-12.82 2.558-.952 5.335-.457 8.005-.581 5.552-.038 11.109.08 16.657-.066 5.194-.365 9.822-4.28 11.066-9.331 1.621-5.58-.62-12.35-5.965-15.05C45.552 8.484 43.261 7.989 40.988 8Z" style="color:#000;fill:none;stroke:#0068ff;stroke-linejoin:round;stroke-opacity:1;filter:url(#c);stroke-width:.21081289;stroke-dasharray:none" transform="translate(1.778 1.817)scale(.9487)"/></svg>