<svg xmlns="http://www.w3.org/2000/svg" xmlns:xlink="http://www.w3.org/1999/xlink" width="64" height="64"><defs><filter id="d" width="1.319" height="1.299" x="-.16" y="-.149" style="color-interpolation-filters:sRGB"><feGaussianBlur stdDeviation="2.052"/></filter><filter id="c" width="1.226" height="1.226" x="-.113" y="-.113" style="color-interpolation-filters:sRGB"><feGaussianBlur stdDeviation="2.259"/></filter><radialGradient xlink:href="#a" id="b" cx="15.365" cy="48.535" r="28" fx="15.365" fy="48.535" gradientTransform="rotate(-30 -110.777 125.29)scale(2.5026)" gradientUnits="userSpaceOnUse"/><linearGradient id="a"><stop offset="0" style="stop-color:#9b9b9b;stop-opacity:1"/><stop offset="1" style="stop-color:#505050;stop-opacity:1"/></linearGradient></defs><rect width="52.026" height="52.026" x="5.987" y="5.987" rx="14.948" ry="14.948" style="fill:url(#b);stroke-width:.929027"/><path d="m28.295 14.961-11.106 5.88A4.11 4.11 121.051 0 0 15 24.477v.046a4.11 4.11 58.949 0 0 2.19 3.636l11.105 5.88a7.43 7.43 178.467 0 0 7.3-.196l5.13-3.078a.841.841 29.518 0 1 1.275.721v5.323a2.1 2.1 119.518 0 1-1.021 1.804l-7.563 4.537a2.75 2.75 0 0 1-2.832 0l-6.46-3.876a4.23 4.23.61 0 0-4.275-.045l-2.698 1.542a1.363 1.363 89.076 0 0 .038 2.388l12.622 6.682a4.68 4.68 0 0 0 4.378 0l12.622-6.682A4.11 4.11 121.051 0 0 49 39.523V24.477a4.11 4.11 58.949 0 0-2.19-3.636l-11.105-5.88a7.92 7.92 0 0 0-7.41 0m4.509 6.441L38 24l-5.196 2.598a1.8 1.8 180 0 1-1.608 0L26 24l5.196-2.598a1.8 1.8 0 0 1 1.608 0" style="fill:#fff" transform="translate(2.271 2.271)scale(.92903)"/><rect width="52.026" height="52.026" x="5.987" y="5.987" rx="14.444" ry="14.444" style="fill:none;stroke:#000;stroke-width:.929027;stroke-opacity:1;filter:url(#c)"/><path d="m28.295 14.961-11.106 5.88A4.11 4.11 121.051 0 0 15 24.477v.046a4.11 4.11 58.949 0 0 2.19 3.636l11.105 5.88a7.43 7.43 178.467 0 0 7.3-.196l5.13-3.078a.841.841 29.518 0 1 1.275.721v5.323a2.1 2.1 119.518 0 1-1.021 1.804l-7.563 4.537a2.75 2.75 0 0 1-2.832 0l-6.46-3.876a4.23 4.23.61 0 0-4.275-.045l-2.698 1.542a1.363 1.363 89.076 0 0 .038 2.388l12.622 6.682a4.68 4.68 0 0 0 4.378 0l12.622-6.682A4.11 4.11 121.051 0 0 49 39.523V24.477a4.11 4.11 58.949 0 0-2.19-3.636l-11.105-5.88a7.92 7.92 0 0 0-7.41 0zm4.509 6.441L38 24l-5.196 2.598a1.8 1.8 180 0 1-1.608 0L26 24l5.196-2.598a1.8 1.8 0 0 1 1.608 0z" style="fill:none;stroke:#fff;stroke-opacity:1;filter:url(#d)" transform="translate(2.271 2.073)scale(.92903)"/></svg>