<svg xmlns="http://www.w3.org/2000/svg" xmlns:xlink="http://www.w3.org/1999/xlink" width="64" height="64"><defs><radialGradient xlink:href="#a" id="c" cx="34.298" cy="44.732" r="28" fx="34.298" fy="44.732" gradientTransform="rotate(-30 -24.315 72.313)scale(1.48356)" gradientUnits="userSpaceOnUse"/><radialGradient xlink:href="#b" id="d" cx="41.036" cy="20.276" r="8.5" fx="41.036" fy="20.276" gradientTransform="rotate(-15 -57.065 222.692)scale(2.11822 2.49202)" gradientUnits="userSpaceOnUse"/><linearGradient id="b"><stop offset="0" style="stop-color:#276e7b;stop-opacity:1"/><stop offset="1" style="stop-color:#27457b;stop-opacity:1"/></linearGradient><linearGradient id="a"><stop offset="0" style="stop-color:#fff;stop-opacity:1"/><stop offset="1" style="stop-color:#b8b8b8;stop-opacity:1"/></linearGradient><filter id="f" width="1.242" height="1.206" x="-.121" y="-.103" style="color-interpolation-filters:sRGB"><feGaussianBlur stdDeviation=".673"/></filter><filter id="e" width="1.127" height="1.127" x="-.064" y="-.064" style="color-interpolation-filters:sRGB"><feGaussianBlur stdDeviation="1.241"/></filter></defs><path d="M32.023 60.273c11.117 0 28.298-6.064 28.298-17.182 0-12.128-1.01-39.416-17.18-39.416-14.15 0-16.172 11.118-22.236 17.182C13.831 27.93 3.724 31.974 3.724 43.09s17.181 17.182 28.299 17.182" style="fill:url(#c);stroke-width:1.01067"/><path d="M38.088 11.76a3.03 3.03 0 0 0-3.032 3.032 3.03 3.03 0 0 0 3.032 3.032 3.03 3.03 0 0 0 3.032-3.032 3.03 3.03 0 0 0-3.032-3.032m11.117 0a3.03 3.03 0 0 0-3.032 3.032 3.03 3.03 0 0 0 3.032 3.032 3.03 3.03 0 0 0 3.032-3.032 3.03 3.03 0 0 0-3.032-3.032m-11.117 9.096c-2.83 0-3.032 3.032-3.032 3.032 0 5.054 3.032 8.086 8.085 8.086 6.064 0 9.096-3.032 9.096-8.086 0 0-.202-3.032-3.032-3.032z" style="fill:url(#d);stroke-width:1.01067"/><path d="M32.02 57.396c9.962 0 25.357-5.433 25.357-15.394 0-10.867-.906-35.318-15.395-35.318-12.678 0-14.49 9.961-19.923 15.395C15.72 28.418 6.664 32.04 6.664 42.002c0 9.96 15.395 15.394 25.357 15.394z" style="mix-blend-mode:normal;fill:none;stroke:#000;stroke-width:.5;stroke-dasharray:none;stroke-opacity:1;filter:url(#e)" transform="translate(-3.716 -3.718)scale(1.11605)"/><path d="M37.455 13.928a2.717 2.717 0 0 0-2.717 2.717 2.717 2.717 0 0 0 2.717 2.717 2.717 2.717 0 0 0 2.717-2.717 2.717 2.717 0 0 0-2.717-2.717zm9.961 0a2.717 2.717 0 0 0-2.716 2.717 2.717 2.717 0 0 0 2.716 2.717 2.717 2.717 0 0 0 2.717-2.717 2.717 2.717 0 0 0-2.717-2.717zm-9.961 8.15c-2.536 0-2.717 2.717-2.717 2.717 0 4.528 2.717 7.245 7.245 7.245 5.433 0 8.15-2.717 8.15-7.245 0 0-.181-2.717-2.717-2.717z" style="mix-blend-mode:normal;fill:none;stroke:#4849a0;stroke-width:.5;stroke-dasharray:none;stroke-opacity:1;filter:url(#f)" transform="translate(-3.716 -3.718)scale(1.11605)"/></svg>