<svg xmlns="http://www.w3.org/2000/svg" width="64" height="64"><circle cx="32" cy="33" r="28" style="opacity:.2"/><circle cx="32" cy="32" r="28" style="fill:#4f4f4f"/><path d="M32 4A28 28 0 0 0 4 32a28 28 0 0 0 .022.586A28 28 0 0 1 32 5a28 28 0 0 1 27.979 27.414L60 32A28 28 0 0 0 32 4" style="opacity:.1;fill:#fff"/><path d="M32 5a28 28 0 0 0-2 .072v14.143L17.535 32.639a2 2 0 0 0 .05 2.775L30 47.828v13.07A28 28 0 0 0 32 61a28 28 0 0 0 2-.072V47.89l7.928-7.135 1.658 1.658a2 2 0 1 0 2.828-2.828l-3-3a2 2 0 0 0-2.752-.072l-8.59 7.73L21.777 33.95l10.276-11.068 8.533 8.533a2 2 0 0 0 2.828 0l3-3a2 2 0 1 0-2.828-2.828L42 27.172l-8-8V5.102A28 28 0 0 0 32 5m0 26a3 3 0 0 0-3 3 3 3 0 0 0 3 3 3 3 0 0 0 3-3 3 3 0 0 0-3-3" style="opacity:.2"/><path d="M32 4a28 28 0 0 0-2 .072v14.143L17.535 31.639a2 2 0 0 0 .05 2.775L30 46.828v13.07A28 28 0 0 0 32 60a28 28 0 0 0 2-.072V46.89l7.928-7.135 1.658 1.658a2 2 0 1 0 2.828-2.828l-3-3a2 2 0 0 0-2.752-.072l-8.59 7.73L21.777 32.95l10.276-11.068 8.533 8.533a2 2 0 0 0 2.828 0l3-3a2 2 0 1 0-2.828-2.828L42 26.172l-8-8V4.102A28 28 0 0 0 32 4m0 26a3 3 0 0 0-3 3 3 3 0 0 0 3 3 3 3 0 0 0 3-3 3 3 0 0 0-3-3" style="fill:#bedbd9"/><path d="M32 4a28 28 0 0 0-2 .072v1A28 28 0 0 1 32 5a28 28 0 0 1 2 .102v-1A28 28 0 0 0 32 4m2 14.172v1l8 8 1.586-1.586a2 2 0 0 1 3.377.883 2 2 0 0 0-3.377-1.883L42 26.172zm-4 .043L17.535 31.639a2 2 0 0 0-.47 1.863 2 2 0 0 1 .47-.863L30 19.215zM32 30a3 3 0 0 0-3 3 3 3 0 0 0 .043.486A3 3 0 0 1 32 31a3 3 0 0 1 2.957 2.514A3 3 0 0 0 35 33a3 3 0 0 0-3-3m-9.742 3.43-.48.52 10.294 10.294 8.59-7.73a2 2 0 0 1 2.752.072l3 3a2 2 0 0 1 .549.945 2 2 0 0 0-.549-1.945l-3-3a2 2 0 0 0-2.752-.072l-8.59 7.73z" style="fill:#fff;opacity:.2"/></svg>