<svg xmlns="http://www.w3.org/2000/svg" xmlns:xlink="http://www.w3.org/1999/xlink" width="64" height="64"><defs><radialGradient xlink:href="#a" id="b" cx="31.944" cy="31.952" r="25.651" fx="31.282" fy="53.791" gradientTransform="matrix(2.45694 0 0 2.38083 -45.576 -75.21)" gradientUnits="userSpaceOnUse"/><linearGradient id="a"><stop offset="0" style="stop-color:gray;stop-opacity:1"/><stop offset="1" style="stop-color:#6a6a6a;stop-opacity:1"/></linearGradient><filter id="c" width="1.142" height="1.146" x="-.071" y="-.073" style="color-interpolation-filters:sRGB"><feGaussianBlur stdDeviation="1.644"/></filter></defs><path d="M37.317 7.138c0 12.444-.401 22.028 1.94 30.228 1.68 5.882 5.298 11.43 9.966 15.857a5.01 5.01 0 0 0 7.888-1.251c.995-1.835.35-4.366-1.082-5.881C49.25 38.916 45.69 26.455 44.66 13.923c-.307-3.739-3.356-6.748-7.106-6.78a4 4 0 0 1-.237-.005" style="fill:#3579f1;stroke-width:.888244;fill-opacity:1"/><path d="M26.658 7.14c-3.882.005-7.034 3.175-7.363 7.059-1.059 12.507-4.635 24.863-11.448 31.95-1.368 1.424-2.074 3.865-1.116 5.587 1.7 3.054 5.63 3.833 8.17 1.384 4.587-4.425 8.16-9.958 9.815-15.752 2.342-8.2 1.942-17.784 1.942-30.228" style="fill:#e43434;stroke-width:.888244;fill-opacity:1"/><path d="M26.28 7.142a1.115 1.115 0 0 0-1.09 1.361l.678 2.998a32 32 0 0 1 .79 7.068v32.966a5.317 5.317 0 0 0 5.317 5.315h.024a5.317 5.317 0 0 0 5.318-5.315V18.569a32 32 0 0 1 .792-7.066l.674-2.967a1.12 1.12 0 0 0-1.088-1.367Z" style="fill:#25e04b;stroke-width:.888244;fill-opacity:1"/><path d="M37.32 7.096v.031L26.662 7.1v-.002l-.053.002h-.326l-.068.021c-3.673.238-6.6 3.302-6.916 7.035-1.059 12.507-4.637 24.864-11.45 31.951-1.367 1.424-2.073 3.864-1.115 5.586 1.7 3.055 5.631 3.834 8.17 1.385 4.587-4.425 8.162-9.958 9.817-15.752 1.457-5.104 1.85-10.747 1.941-17.28v31.446a5.317 5.317 0 0 0 5.316 5.317h.024a5.317 5.317 0 0 0 5.318-5.317V20.123c.093 6.499.49 12.118 1.942 17.201 1.68 5.882 5.297 11.43 9.965 15.856a5.01 5.01 0 0 0 7.888-1.25c.995-1.835.35-4.366-1.082-5.881-6.778-7.175-10.339-19.636-11.369-32.168-.307-3.739-3.355-6.748-7.105-6.78a3 3 0 0 1-.239-.005" style="mix-blend-mode:hard-light;fill:url(#b);stroke-width:.888244"/><path d="m25.938 3.947-.05.002h-.377q-.173.001-.335.041l-.031.012c-4.08.408-7.293 3.854-7.647 8.031-1.19 14.06-5.218 27.944-12.846 35.88-1.581 1.644-2.402 4.445-1.279 6.464 1.956 3.515 6.506 4.416 9.432 1.594 5.181-4.998 9.22-11.248 11.091-17.801 1.035-3.622 1.593-7.48 1.891-11.672v27.58a6.14 6.14 0 0 0 6.137 6.135h.027a6.14 6.14 0 0 0 6.137-6.135V26.496c.298 4.192.856 8.05 1.89 11.672 1.9 6.652 5.988 12.92 11.26 17.92a5.796 5.796 0 0 0 9.117-1.445c1.16-2.14.412-5.047-1.242-6.797-7.589-8.034-11.6-22.035-12.758-36.123-.344-4.186-3.7-7.54-7.865-7.727-.042-.004-.083-.015-.127-.016h-.013c-.05 0-.092-.028-.143-.029q-.128 0-.195-.002l-.05-.002h-.005l.008.002.015.002.02.008.018.01.01.006.005.005h-.025a.15.15 0 0 0-.145-.001l-11.92-.028h-.004l-.002-.002zm-.426.303h.365l.059.002 12.41.03c.01 0 .02.005.03.005a1.11 1.11 0 0 1 1.095 1.092v.002q0 .126-.03.256l-.757 3.34a36 36 0 0 0-.897 7.988v37.113a5.833 5.833 0 0 1-5.836 5.834h-.027a5.833 5.833 0 0 1-5.836-5.834V16.964q0-1.007-.057-2.013a36 36 0 0 0-.836-5.976L24.432 5.6a1 1 0 0 1-.026-.245l.004-.064q.003-.087.02-.17.01-.042.023-.082a1.1 1.1 0 0 1 .23-.414q.028-.03.057-.057.055-.054.115-.101l.028-.018a1.1 1.1 0 0 1 .363-.166l.002-.002q.126-.03.264-.031Zm13.947.262c3.527.635 6.292 3.542 6.596 7.234 1.161 14.129 5.168 28.185 12.84 36.307 1.57 1.662 2.274 4.454 1.195 6.445a5.485 5.485 0 0 1-8.645 1.371c-5.238-4.967-9.295-11.192-11.177-17.783-1.63-5.707-2.076-12.025-2.18-19.344v-1.777q0-1 .057-1.996c.111-1.994.389-3.977.832-5.926l.757-3.34q.037-.166.036-.328c0-.015-.006-.03-.006-.045a1.4 1.4 0 0 0-.305-.818zm-15.074.011a1.4 1.4 0 0 0-.246 1.143l.763 3.375c.589 2.6.885 5.258.885 7.924v1.78c-.104 7.318-.55 13.636-2.18 19.343-1.854 6.492-5.862 12.703-11.01 17.668-2.79 2.692-7.091 1.838-8.962-1.524-1.035-1.859-.266-4.554 1.232-6.113C12.58 40.096 16.605 26.157 17.8 12.057c.317-3.752 3.054-6.792 6.586-7.534Z" style="mix-blend-mode:normal;stroke-linejoin:round;filter:url(#c);stroke:#000;stroke-opacity:1;stroke-width:.33774516;stroke-dasharray:none" transform="translate(3.563 3.585)scale(.88824)"/></svg>