<svg xmlns="http://www.w3.org/2000/svg" xmlns:xlink="http://www.w3.org/1999/xlink" width="64" height="64"><defs><radialGradient xlink:href="#a" id="f" cx="12.548" cy="46.596" r="28.002" fx="12.548" fy="46.596" gradientTransform="translate(7.405 -13.978)scale(1.15001)" gradientUnits="userSpaceOnUse"/><radialGradient xlink:href="#b" id="d" cx="32" cy="32" r="28" fx="32" fy="32" gradientUnits="userSpaceOnUse"/><radialGradient xlink:href="#c" id="e" cx="28.183" cy="35.477" r="8.626" fx="28.183" fy="35.477" gradientTransform="rotate(-15 -249.232 264.821)scale(2.54026 3.42015)" gradientUnits="userSpaceOnUse"/><linearGradient id="c"><stop offset="0" style="stop-color:#00ff57;stop-opacity:1"/><stop offset="1" style="stop-color:#d6ff76;stop-opacity:1"/></linearGradient><linearGradient id="a"><stop offset="0" style="stop-color:#3154b5;stop-opacity:1"/><stop offset="1" style="stop-color:#5ec8d1;stop-opacity:1"/></linearGradient><linearGradient id="b"><stop offset="0" style="stop-color:#f5ca3b;stop-opacity:1"/><stop offset="1" style="stop-color:#f29e34;stop-opacity:1"/></linearGradient><filter id="g" width="1.108" height="1.108" x="-.054" y="-.054" style="color-interpolation-filters:sRGB"><feGaussianBlur stdDeviation="1.197"/></filter><filter id="h" width="1.146" height="1.146" x="-.073" y="-.073" style="color-interpolation-filters:sRGB"><feGaussianBlur stdDeviation="1.61"/></filter><filter id="i" width="1.198" height="1.198" x="-.099" y="-.099" style="color-interpolation-filters:sRGB"><feGaussianBlur stdDeviation="1.144"/></filter></defs><path d="M18.426 4h27.148A14.426 14.426 45 0 1 60 18.426v17.212A24.36 24.36 135 0 1 35.638 60h-7.276A24.36 24.36 45 0 1 4 35.638V18.426A14.426 14.426 135 0 1 18.426 4" style="fill:url(#d);fill-opacity:1" transform="translate(1.435 1.435)scale(.95516)"/><path d="M17.893 4h28.214A13.893 13.893 45 0 1 60 17.893v17.745A24.36 24.36 135 0 1 35.638 60h-7.276A24.36 24.36 45 0 1 4 35.638V17.893A13.893 13.893 135 0 1 17.893 4" style="fill:#fff;fill-opacity:1" transform="translate(8.644 8.644)scale(.72987)"/><path d="M23.6 20.057h16.97v22.945H23.6Z" style="fill:url(#e);stroke:#000;stroke-width:.284141;stroke-linecap:round;stroke-linejoin:round;stroke-miterlimit:4.6;fill-opacity:1"/><path d="M24.23 17.348a6.86 6.86 0 0 0-6.863 6.863v9.67c0 7.032 5.7 12.733 12.733 12.732h3.8c7.033.001 12.734-5.7 12.733-12.732v-9.67a6.86 6.86 0 0 0-6.863-6.863zm7.784 5.02c.52-.002 1.04.184 1.438.56a1444 1444 0 0 1 5.582 5.292c1.612 1.079-.31 3.794-1.862 2.26l-2.96-2.903a.436.436 0 0 0-.741.31V40.62c.217 1.951-3.003 2.07-2.917.103V27.886a.436.436 0 0 0-.742-.31l-2.017 1.98c-.63.545-1.161 1.449-2.116 1.334-1.119-.063-1.726-1.556-.97-2.382.001.028 3.742-3.54 5.869-5.57a2.1 2.1 0 0 1 1.436-.57" style="fill:url(#f);stroke-width:.522568"/><path d="M18.474 4h27.052A14.474 14.474 45 0 1 60 18.474v17.164A24.36 24.36 135 0 1 35.638 60h-7.276A24.36 24.36 45 0 1 4 35.638V18.474A14.474 14.474 135 0 1 18.474 4Z" style="fill:none;fill-opacity:1;stroke:#000;stroke-opacity:1;stroke-width:.31408261;stroke-dasharray:none;filter:url(#g)" transform="translate(1.435 1.435)scale(.95516)"/><path d="M17.13 4h29.74A13.13 13.13 45 0 1 60 17.13v18.508A24.36 24.36 135 0 1 35.638 60h-7.276A24.36 24.36 45 0 1 4 35.638V17.13A13.13 13.13 135 0 1 17.13 4Z" style="mix-blend-mode:normal;fill:none;fill-opacity:1;stroke:#ff002c;stroke-width:.422276;stroke-dasharray:none;stroke-opacity:1;filter:url(#h)" transform="translate(8.644 8.644)scale(.72987)"/><path d="M24.155 17.256a6.86 6.86 0 0 0-6.863 6.863v9.67c0 7.033 5.7 12.734 12.732 12.733h3.801c7.033 0 12.734-5.7 12.733-12.733v-9.67a6.86 6.86 0 0 0-6.864-6.863zm7.784 5.02c.52-.002 1.04.184 1.438.56 2.055 1.943 5.582 5.292 5.582 5.292 1.612 1.08-.31 3.794-1.862 2.26l-2.96-2.903a.436.436 0 0 0-.741.31v12.734c.217 1.95-3.003 2.07-2.917.102V27.795a.436.436 0 0 0-.742-.31l-2.017 1.98c-.63.545-1.162 1.448-2.117 1.333-1.118-.063-1.725-1.556-.97-2.382.022-.025 3.743-3.54 5.87-5.57a2.1 2.1 0 0 1 1.436-.57z" style="fill:none;stroke:#2100ff;stroke-width:.3;stroke-dasharray:none;stroke-opacity:1;filter:url(#i)"/></svg>