<svg xmlns="http://www.w3.org/2000/svg" xmlns:xlink="http://www.w3.org/1999/xlink" width="64" height="64"><defs><radialGradient xlink:href="#a" id="c" cx="32" cy="31.971" r="28" fx="32" fy="31.971" gradientTransform="translate(2.845 2.845)scale(.9111)" gradientUnits="userSpaceOnUse"/><radialGradient xlink:href="#b" id="d" cx="15.665" cy="48.214" r="19.194" fx="15.665" fy="48.214" gradientTransform="translate(-14.884 -51.722)scale(2.04287)" gradientUnits="userSpaceOnUse"/><linearGradient id="b"><stop offset="0" style="stop-color:#fae214;stop-opacity:1"/><stop offset="1" style="stop-color:#faa314;stop-opacity:1"/></linearGradient><linearGradient id="a"><stop offset="0" style="stop-color:#454545;stop-opacity:1"/><stop offset="1" style="stop-color:#272727;stop-opacity:1"/></linearGradient><filter id="e" width="1.254" height="1.254" x="-.127" y="-.127" style="color-interpolation-filters:sRGB"><feGaussianBlur stdDeviation="2.755"/></filter><filter id="f" width="1.097" height="1.097" x="-.049" y="-.049" style="color-interpolation-filters:sRGB"><feGaussianBlur stdDeviation=".732"/></filter></defs><rect width="51.022" height="51.022" x="6.489" y="6.463" rx="14.397" ry="14.397" style="fill:url(#c);stroke-width:.911108"/><path d="m20.341 14.512 2.9 2.9a10 10 0 0 1 2.93 7.07v.04a1.65 1.65 0 0 1-1.648 1.649h-.04a10 10 0 0 1-7.07-2.93l-2.9-2.9V43.66l2.9-2.9a10 10 0 0 1 7.07-2.93h.04a1.65 1.65 0 0 1 1.648 1.648v.04a10 10 0 0 1-2.93 7.07l-2.9 2.9H43.66l-2.9-2.9a10 10 0 0 1-2.93-7.07v-.04a1.65 1.65 0 0 1 1.648-1.648h.04a10 10 0 0 1 7.07 2.93l2.9 2.9V20.34l-2.9 2.9a10 10 0 0 1-7.07 2.93h-.04a1.65 1.65 0 0 1-1.648-1.648v-.04a10 10 0 0 1 2.93-7.07l2.9-2.9z" style="fill:url(#d);stroke-width:.728657"/><rect width="56" height="56" x="4" y="4" rx="15.802" ry="15.802" style="mix-blend-mode:normal;fill:none;fill-opacity:1;stroke:#000;stroke-opacity:1;filter:url(#e)" transform="translate(2.845 2.845)scale(.9111)"/><path d="m19.204 12.806 3.183 3.183a10.97 10.97 0 0 1 3.215 7.76v.044a1.81 1.81 0 0 1-1.809 1.809h-.044a10.97 10.97 0 0 1-7.76-3.215l-3.183-3.183v25.592l3.183-3.183a10.97 10.97 0 0 1 7.76-3.215h.044a1.81 1.81 0 0 1 1.809 1.809v.044a10.97 10.97 0 0 1-3.215 7.76l-3.183 3.183h25.592l-3.183-3.183a10.97 10.97 0 0 1-3.215-7.76v-.044a1.81 1.81 0 0 1 1.809-1.809h.044a10.97 10.97 0 0 1 7.76 3.215l3.183 3.183V19.204l-3.183 3.183a10.97 10.97 0 0 1-7.76 3.215h-.044a1.81 1.81 0 0 1-1.809-1.809v-.044a10.97 10.97 0 0 1 3.215-7.76l3.183-3.183Z" style="mix-blend-mode:normal;fill:none;stroke:#ff1400;stroke-width:.21951301;stroke-dasharray:none;stroke-opacity:1;filter:url(#f)" transform="translate(2.845 2.845)scale(.9111)"/></svg>