<svg xmlns="http://www.w3.org/2000/svg" width="64" height="64"><rect width="56" height="56" x="4" y="5" ry="11.2" style="opacity:.2"/><rect width="56" height="56" x="4" y="4" ry="11.2" style="fill:#453a68"/><path d="M29.736 12c-.41 0-.736.348-.736.78v15.452a.76.76 0 0 1-.752.768h-1.525c-.605 0-.957.727-.606 1.244l5.28 6.432a.73.73 0 0 0 .603.328c.228 0 .455-.11.604-.328l5.279-6.432c.351-.517 0-1.244-.606-1.244h-1.425c-.411 0-.852-.336-.852-.768V12.78c0-.43-.326-.779-.736-.779H32zm-5.965 2.732a1.28 1.28 0 0 0-.833.284L21.02 16.56a1.345 1.345 0 0 0-.215 1.865 1.286 1.286 0 0 0 1.83.22l1.916-1.544a1.35 1.35 0 0 0 .217-1.868 1.29 1.29 0 0 0-.997-.502m16.502 0a1.29 1.29 0 0 0-.994.502 1.35 1.35 0 0 0 .215 1.868l1.92 1.544a1.286 1.286 0 0 0 1.83-.22 1.345 1.345 0 0 0-.217-1.865l-1.916-1.545a1.3 1.3 0 0 0-.838-.284m-24.156 7.291a1.3 1.3 0 0 0-1.18.84l-.898 2.319a1.34 1.34 0 0 0 .736 1.724c.67.27 1.426-.065 1.69-.748l.896-2.32a1.336 1.336 0 0 0-.734-1.723 1.3 1.3 0 0 0-.51-.092m31.776 0a1.3 1.3 0 0 0-.51.092c-.67.27-.999 1.04-.735 1.723l.897 2.32a1.294 1.294 0 0 0 1.69.748 1.337 1.337 0 0 0 .732-1.724l-.893-2.319a1.3 1.3 0 0 0-1.181-.84M11 33a21.005 21.005 0 0 0 21 21 21.004 21.004 0 0 0 21-21h-6.453c-2.277 0-4.05 1.306-4.922 3.41a10.5 10.5 0 0 1-5.682 5.682c-1.25.518-2.59.901-3.943.908h-.076c-1.379 0-2.744-.38-4.018-.908a10.5 10.5 0 0 1-5.681-5.682C21.353 34.306 19.578 33 17.3 33z" style="opacity:.2"/><path d="M32 11v25.003c.228 0 .456-.11.604-.328l5.278-6.43c.352-.517 0-1.245-.604-1.245h-1.426c-.411 0-.852-.337-.852-.768V11.779c0-.43-.325-.779-.736-.779zm8.274 2.732a1.29 1.29 0 0 0-.995.503 1.35 1.35 0 0 0 .216 1.867l1.92 1.545a1.285 1.285 0 0 0 1.829-.221 1.345 1.345 0 0 0-.216-1.865l-1.917-1.545a1.3 1.3 0 0 0-.837-.284m7.618 7.291a1.3 1.3 0 0 0-.508.093c-.67.27-1 1.04-.736 1.723l.897 2.319a1.295 1.295 0 0 0 1.69.749 1.34 1.34 0 0 0 .733-1.726l-.895-2.318a1.3 1.3 0 0 0-1.18-.84M46.547 32c-2.277 0-4.05 1.306-4.922 3.41a10.5 10.5 0 0 1-2.275 3.407 10.5 10.5 0 0 1-3.407 2.275c-1.25.518-2.59.901-3.943.908v11a21 21 0 0 0 8.036-1.6 21 21 0 0 0 6.814-4.55 21 21 0 0 0 4.55-6.814A21 21 0 0 0 53 32z" style="fill:#9152ff"/><path d="M29.736 11c-.411 0-.736.348-.736.78v15.452a.76.76 0 0 1-.752.768h-1.526c-.605 0-.956.728-.604 1.244l5.278 6.43a.73.73 0 0 0 .604.33V11zm-5.964 2.732a1.28 1.28 0 0 0-.834.284l-1.92 1.545a1.345 1.345 0 0 0-.213 1.865 1.285 1.285 0 0 0 1.83.221l1.917-1.545a1.35 1.35 0 0 0 .216-1.867 1.29 1.29 0 0 0-.996-.503m-7.654 7.291a1.3 1.3 0 0 0-1.181.84l-.897 2.318a1.34 1.34 0 0 0 .735 1.726c.67.27 1.426-.067 1.69-.75l.897-2.318a1.337 1.337 0 0 0-.735-1.723 1.3 1.3 0 0 0-.509-.093M11 32c0 2.758.544 5.489 1.6 8.036a21 21 0 0 0 4.55 6.814 21 21 0 0 0 6.814 4.55A21 21 0 0 0 32 53V42h-.077c-1.378 0-2.742-.38-4.016-.908a10.5 10.5 0 0 1-3.407-2.275 10.5 10.5 0 0 1-2.275-3.407C21.353 33.306 19.577 32 17.3 32z" style="fill:#428afe"/><path d="M46.85 46.85a21 21 0 0 1-29.7 0c1.213-1.213 2.837-1.845 4.527-1.85 1.395-.005 2.835.756 4.129 1.327C27.739 47.181 29.846 48 32 48s4.261-.82 6.194-1.673c1.33-.587 2.815-1.35 4.246-1.326a6.35 6.35 0 0 1 4.41 1.848" style="opacity:.2"/><path d="M29.736 11c-.41 0-.736.348-.736.78v1c0-.432.326-.78.736-.78h4.528c.41 0 .736.348.736.78v-1c0-.432-.326-.78-.736-.78zm-5.965 2.732a1.28 1.28 0 0 0-.833.284L21.02 15.56a1.34 1.34 0 0 0-.4 1.54c.081-.206.216-.393.4-.54l1.918-1.545a1.29 1.29 0 0 1 2.014.541 1.35 1.35 0 0 0-.184-1.323 1.29 1.29 0 0 0-.997-.502m16.502 0a1.29 1.29 0 0 0-.994.502c-.3.39-.355.896-.185 1.325a1.3 1.3 0 0 1 .185-.325 1.29 1.29 0 0 1 1.832-.218l1.916 1.545c.184.148.319.336.4.543a1.34 1.34 0 0 0-.4-1.543l-1.916-1.545a1.3 1.3 0 0 0-.838-.284m-24.156 7.291a1.3 1.3 0 0 0-1.18.84l-.898 2.319c-.128.33-.116.68.006.986l.892-2.305a1.3 1.3 0 0 1 1.18-.84c.17-.004.343.025.51.092.345.14.599.412.728.737l.006-.014a1.336 1.336 0 0 0-.734-1.723 1.3 1.3 0 0 0-.51-.092m31.776 0a1.3 1.3 0 0 0-.51.092c-.67.27-.999 1.04-.735 1.723l.006.014c.13-.325.384-.598.729-.737.167-.067.34-.096.51-.092.507.013.983.328 1.181.84l.889 2.307c.121-.306.132-.657.004-.988l-.893-2.319a1.3 1.3 0 0 0-1.181-.84M29 27.233a.76.76 0 0 1-.752.767h-1.525c-.605 0-.957.727-.606 1.244l.033.041a.72.72 0 0 1 .573-.285h1.525c.41 0 .752-.336.752-.768zm6 0v1c0 .43.44.767.852.767h1.425c.24 0 .44.115.573.285l.033-.04c.351-.518 0-1.245-.606-1.245h-1.425c-.411 0-.852-.336-.852-.768M11 32q0 .5.023 1h6.278c2.277 0 4.052 1.306 4.924 3.41a10.5 10.5 0 0 0 5.681 5.682c1.274.527 2.639.908 4.018.908H32c1.353-.007 2.693-.39 3.943-.908a10.5 10.5 0 0 0 5.682-5.682c.871-2.104 2.645-3.41 4.922-3.41h6.43q.023-.5.023-1h-6.453c-2.277 0-4.05 1.306-4.922 3.41a10.5 10.5 0 0 1-5.682 5.682c-1.25.518-2.59.901-3.943.908h-.076c-1.379 0-2.744-.38-4.018-.908a10.5 10.5 0 0 1-5.681-5.682C21.353 33.306 19.578 32 17.3 32z" style="fill:#fff;opacity:.1"/><path d="M15.2 4C8.993 4 4 8.994 4 15.2v1C4 9.993 8.994 5 15.2 5h33.6C55.007 5 60 9.994 60 16.2v-1C60 8.993 55.006 4 48.8 4z" style="fill:#fff;opacity:.1"/></svg>