<svg xmlns="http://www.w3.org/2000/svg" xmlns:xlink="http://www.w3.org/1999/xlink" width="64" height="64"><defs><radialGradient xlink:href="#a" id="b" cx="15.166" cy="42.403" r="17.19" fx="15.166" fy="42.403" gradientTransform="rotate(29.552 309.99 21.155)scale(3.84635 4.85131)" gradientUnits="userSpaceOnUse"/><linearGradient id="a"><stop offset="0" style="stop-color:#0081ff;stop-opacity:1"/><stop offset="1" style="stop-color:#22d9ff;stop-opacity:1"/></linearGradient><filter id="c" width="1.129" height="1.119" x="-.064" y="-.059" style="color-interpolation-filters:sRGB"><feGaussianBlur stdDeviation="1.222"/></filter></defs><path d="M44.174 42.05c-8.382 4.259-12.436 5.196-20.692 7.096-1.408.324-3.84.624-4.999-.202a4.8 4.8 0 0 1-.896-.836c-1.412-1.697-.532-5.607.2-7.77 4.036-11.912 7.485-19.01 11.825-21.938 1.188-.802 3.624-1.204 4.736-.355 3.05 2.325 8.783 10.882 22.465 40.494-3.68-15.442-8.634-30.758-16.621-44.462-1.79-2.706-3.42-5.643-5.836-7.82-2.354-1.859-5.25.142-6.99 1.94C14.808 21.142 8.98 41.662 7.4 52.891c-.14.99-.24 2.626.07 3.572.45 1.376 1.377 2.323 2.544 2.65 1.212.338 3.292-.327 4.53-.652 6.668-1.75 12.974-4.821 18.943-8.294 3.825-2.309 7.505-4.93 10.687-8.118z" style="fill:url(#b);stroke-width:.994528" transform="translate(-2.057 -2.239)scale(1.06178)"/><path d="M44.174 42.05c-8.382 4.259-12.436 5.196-20.692 7.096-1.408.324-3.84.624-4.999-.202a4.8 4.8 0 0 1-.896-.836c-1.412-1.697-.532-5.607.2-7.77 4.036-11.912 7.485-19.01 11.825-21.938 1.188-.802 3.624-1.204 4.736-.355 3.05 2.325 8.783 10.882 22.465 40.494-3.68-15.442-8.634-30.758-16.621-44.462-1.79-2.706-3.42-5.643-5.836-7.82-2.354-1.859-5.25.142-6.99 1.94C14.808 21.142 8.98 41.662 7.4 52.891c-.14.99-.24 2.626.07 3.572.45 1.376 1.377 2.323 2.544 2.65 1.212.338 3.292-.327 4.53-.652 6.668-1.75 12.974-4.821 18.943-8.294 3.825-2.309 7.505-4.93 10.687-8.118z" style="mix-blend-mode:normal;fill:none;stroke:#000;stroke-width:.5;stroke-linejoin:round;stroke-dasharray:none;stroke-opacity:1;filter:url(#c)" transform="translate(-2.057 -2.239)scale(1.06178)"/></svg>