<svg xmlns="http://www.w3.org/2000/svg" xmlns:xlink="http://www.w3.org/1999/xlink" width="64" height="64"><defs><radialGradient xlink:href="#a" id="b" cx="24.785" cy="34.777" r="20.553" fx="24.785" fy="34.777" gradientTransform="rotate(-15 -160.295 262.78)scale(2.5934 2.77602)" gradientUnits="userSpaceOnUse"/><linearGradient id="a"><stop offset="0" style="stop-color:#ffbc00;stop-opacity:1"/><stop offset="1" style="stop-color:#ff8200;stop-opacity:1"/></linearGradient><filter id="c" width="1.222" height="1.206" x="-.111" y="-.103" style="color-interpolation-filters:sRGB"><feGaussianBlur stdDeviation="2.128"/></filter></defs><path d="m45.143 5.492-4.357 2.906a6.41 6.41 0 0 0-2.854 5.33v5.585l-15.968 9.22-10.856-6.267.336 5.213a6.43 6.43 0 0 0 3.203 5.157l.106.06-7.119 4.11 4.35 2.15a7.13 7.13 0 0 0 6.72-.215l3.257-1.883 15.971 9.22v12.293l4.357-2.906a6.41 6.41 0 0 0 2.842-5.23l8.166 4.716-.336-5.213a6.43 6.43 0 0 0-3.201-5.157l-4.617-2.667V23.477l11.89-6.866-4.349-2.15a7.13 7.13 0 0 0-6.722.216l-.82.474zm-7.211 22.149v10.112l-8.757-5.056z" style="fill:url(#b);stroke-width:1.20178"/><path d="m45.152 5.536-4.356 2.906a6.41 6.41 0 0 0-2.855 5.33v5.584l-15.968 9.22-10.856-6.267.336 5.214a6.43 6.43 0 0 0 3.204 5.156l.105.061-7.119 4.11 4.35 2.15a7.13 7.13 0 0 0 6.72-.215l3.258-1.883 15.97 9.22v12.292l4.357-2.905a6.41 6.41 0 0 0 2.842-5.23l8.166 4.716-.335-5.214a6.43 6.43 0 0 0-3.202-5.157l-4.617-2.666V23.52l11.891-6.865-4.35-2.15a7.13 7.13 0 0 0-6.722.216l-.819.474zm-7.21 22.148v10.112l-8.758-5.056z" style="fill:none;stroke:#000;stroke-width:.353413;stroke-dasharray:none;stroke-opacity:1;filter:url(#c)"/></svg>