<svg xmlns="http://www.w3.org/2000/svg" xmlns:xlink="http://www.w3.org/1999/xlink" width="64" height="64"><defs><radialGradient xlink:href="#a" id="b" cx="45.196" cy="56.678" r="22" fx="45.196" fy="56.678" gradientTransform="rotate(255 85.098 225.18)scale(5.38886 4.4016)" gradientUnits="userSpaceOnUse"/><linearGradient id="a"><stop offset="0" style="stop-color:#ffe567;stop-opacity:1"/><stop offset="1" style="stop-color:#ff9c58;stop-opacity:1"/></linearGradient></defs><path d="M20.709 7.041H43.29a8.32 8.32 45 0 1 8.32 8.32V48.64a8.32 8.32 135 0 1-8.32 8.319H20.71a8.32 8.32 45 0 1-8.32-8.32V15.36a8.32 8.32 135 0 1 8.32-8.319" style="fill:url(#b);stroke-width:.891381" transform="translate(-2.428 -2.423)scale(1.07606)"/><path d="M37.677 5.185v26.857l3.836-3.837 3.837 3.837V5.185Z" style="opacity:.349074;fill:#ff1900;fill-opacity:1;stroke-width:.959183"/><path d="M20.828 7.022H22.1v49.934h-1.273a8.45 8.45 45 0 1-8.45-8.449V15.471a8.45 8.45 135 0 1 8.45-8.45" style="opacity:.199018;fill:red;fill-opacity:1;stroke-width:.3;stroke-linecap:round;stroke-linejoin:round;stroke-miterlimit:4.6;paint-order:stroke fill markers" transform="translate(-2.428 -2.423)scale(1.07606)"/></svg>