<svg xmlns="http://www.w3.org/2000/svg" xmlns:xlink="http://www.w3.org/1999/xlink" width="64" height="64"><defs><radialGradient xlink:href="#a" id="c" cx="27.734" cy="11.548" r="14" fx="27.734" fy="11.548" gradientTransform="rotate(45 75.76 -36.3)scale(2.72712)" gradientUnits="userSpaceOnUse"/><radialGradient xlink:href="#a" id="e" cx="16.014" cy="46.66" r="7" fx="16.014" fy="46.66" gradientTransform="rotate(46.798 378.973 50.275)scale(6.6935 5.9662)" gradientUnits="userSpaceOnUse"/><radialGradient xlink:href="#a" id="f" cx="26.64" cy="21.299" r="7.8" fx="26.64" fy="21.299" gradientTransform="matrix(4.1122 4.37875 -3.90297 3.6654 .22 -186.403)" gradientUnits="userSpaceOnUse"/><filter id="b" width="1.304" height="1.304" x="-.152" y="-.152" style="color-interpolation-filters:sRGB"><feGaussianBlur stdDeviation="1.72"/></filter><filter id="d" width="1.294" height="1.294" x="-.147" y="-.147" style="color-interpolation-filters:sRGB"><feGaussianBlur stdDeviation="1.855"/></filter><linearGradient id="a"><stop offset="0" style="stop-color:#00d6ff;stop-opacity:1"/><stop offset="1" style="stop-color:#0097ff;stop-opacity:1"/></linearGradient></defs><path d="M36.146 9h9.447a9.277 9.277 45 0 1 9.276 9.277v9.446A9.277 9.277 135 0 1 45.594 37h-9.447a9.277 9.277 45 0 1-9.276-9.277v-9.446A9.277 9.277 135 0 1 36.146 9" style="fill:#ececec;fill-opacity:1;stroke:none;stroke-width:.250793;stroke-linecap:round;stroke-linejoin:round;stroke-miterlimit:2.1;stroke-dasharray:none;stroke-opacity:1;paint-order:markers stroke fill" transform="translate(-26.805 14.034)scale(1.1962)"/><path d="M36.146 9h9.447a9.277 9.277 45 0 1 9.276 9.277v9.446A9.277 9.277 135 0 1 45.594 37h-9.447a9.277 9.277 45 0 1-9.276-9.277v-9.446A9.277 9.277 135 0 1 36.146 9" style="fill:none;stroke:#000;stroke-width:.250793;stroke-linecap:round;stroke-linejoin:round;stroke-miterlimit:2.1;stroke-dasharray:none;stroke-opacity:1;paint-order:markers stroke fill;filter:url(#b)" transform="translate(-26.805 14.034)scale(1.1962)"/><path d="M36.146 9h9.447a9.277 9.277 45 0 1 9.276 9.277v9.446A9.277 9.277 135 0 1 45.594 37h-9.447a9.277 9.277 45 0 1-9.276-9.277v-9.446A9.277 9.277 135 0 1 36.146 9" style="fill:url(#c);stroke-width:.217316;stroke-linecap:round;stroke-linejoin:round;stroke-miterlimit:2.1;paint-order:markers stroke fill" transform="translate(-6.536 -5.495)scale(1.1962)"/><path d="M35.658 7.555c-5.652 0-10.234 4.582-10.234 10.234v10.422c0 5.652 4.582 10.234 10.234 10.234H46.08c5.652 0 10.234-4.582 10.234-10.234V17.789c0-5.652-4.582-10.234-10.234-10.234Z" style="mix-blend-mode:normal;fill:none;stroke:#000;stroke-width:.181281;stroke-linecap:round;stroke-linejoin:round;stroke-miterlimit:2.1;paint-order:markers stroke fill;filter:url(#d)" transform="translate(-1.96 -2.92)scale(1.08425)"/><path d="M38.03 10.998v3h3v-3zm6 0v3h3v-3zm-1.252 5.078q-3.57 0-5.681 2.295c-1.398 1.52-2.098 3.78-2.098 6.377 0 2.513.737 4.605 2.21 6.078q2.225 2.211 6.022 2.211 1.517 0 2.99-.312c.983-.208 1.874-.51 2.81-.907v-2.265c-.927.49-1.795.86-2.74 1.105q-1.401.37-2.903.37-2.593 0-4.053-1.403c-.964-.945-1.502-2.832-1.615-4.627h11.986v-1.059c0-2.361-.624-4.425-1.871-5.795q-1.856-2.068-5.057-2.068Zm.028 2.21q1.927 0 3.09 1.274c.783.85 1.184 2.004 1.203 3.43l-9.295.016c.132-1.493.633-2.667 1.502-3.488q1.317-1.233 3.5-1.233z" style="fill:#fff;stroke:#fff;stroke-width:.69999983;stroke-linecap:square;stroke-linejoin:miter;stroke-dasharray:none;stroke-opacity:1"/><path d="M23.65 44.723q-3.3 0-4.572.735c-.849.49-1.273 1.624-1.273 2.804q0 1.411.947 2.246.962.82 2.605.82 2.264 0 3.626-1.554c.917-1.046 1.176-2.733 1.176-4.46v-.59H23.65m5.432-1.095v9.918h-3V50.68c-.62.98-1.12 1.704-2.045 2.174q-1.392.693-3.404.692-2.546 0-4.056-1.382-1.494-1.398-1.494-3.728c0-1.814.621-3.481 1.864-4.403 1.253-.921 3.119-1.447 5.594-1.382h3.618v-.259c0-1.219-.414-1.86-1.243-2.522-2.542-1.5-6.347-1.186-8.834.017V37.74c.996-.374 2.178-.653 3.115-.835q1.406-.288 2.738-.288 3.596 0 5.372 1.814c1.184 1.21 1.776 2.743 1.776 5.2M19.91 29.547l4.173 5h-2.264l-4.824-5h2.915" style="fill:url(#e);stroke:url(#f);stroke-width:.9;stroke-linecap:round;stroke-linejoin:miter;stroke-dasharray:none;stroke-opacity:1"/></svg>