<svg xmlns="http://www.w3.org/2000/svg" xmlns:xlink="http://www.w3.org/1999/xlink" width="64" height="64"><defs><radialGradient xlink:href="#a" id="d" cx="19.011" cy="15.298" r="4" fx="19.011" fy="15.298" gradientTransform="matrix(0 5.41187 -5.95996 0 113.267 -96.554)" gradientUnits="userSpaceOnUse"/><radialGradient xlink:href="#b" id="c" cx="17.092" cy="13.776" r="28.04" fx="17.092" fy="13.776" gradientTransform="rotate(45 62.276 -10.886)scale(2.79456 2.79479)" gradientUnits="userSpaceOnUse"/><linearGradient id="b"><stop offset="0" style="stop-color:#fff;stop-opacity:1"/><stop offset="1" style="stop-color:#d0d0d0;stop-opacity:1"/></linearGradient><linearGradient id="a"><stop offset="0" style="stop-color:#ff8000;stop-opacity:1"/><stop offset="1" style="stop-color:#ff3b2c;stop-opacity:1"/></linearGradient><filter id="e" width="1.199" height="1.221" x="-.099" y="-.111" style="color-interpolation-filters:sRGB"><feGaussianBlur stdDeviation="2.347"/></filter></defs><path d="M16.822 3.869h30.437A12.82 12.82 45 0 1 60.08 16.69v22.885a12.82 12.82 135 0 1-12.822 12.822H16.822A12.82 12.82 45 0 1 4 39.576V16.691A12.82 12.82 135 0 1 16.822 3.869" style="fill:url(#c)" transform="translate(2.713 7.128)scale(.91323)"/><path d="M25.6 2C24 2 24 3.372 24 3.372V24.46a.952.952 31.717 0 0 1.377.85l1.245-.622a3.08 3.08 0 0 1 2.755 0l1.245.623A.952.952 148.283 0 0 32 24.46V3.372C32 2 30.4 2 30.4 2z" style="fill:url(#d)" transform="translate(2.747 7.122)scale(.91323)"/><path d="M32.038 3.869h15.325A12.72 12.72 45 0 1 60.08 16.587V39.68a12.72 12.72 135 0 1-12.718 12.718H32.038Z" style="opacity:.15;stroke-width:.3;stroke-linecap:round;stroke-linejoin:round;stroke-miterlimit:4.6" transform="translate(2.749 7.108)scale(.91323)"/><path d="M25.646 1.783c-.87 0-1.378.405-1.615.81-.236.406-.234.811-.234.811v.254h-6.965C9.615 3.658 3.76 9.514 3.76 16.73v22.886c0 7.217 5.855 13.073 13.072 13.072H47.27c.181 0 .358-.02.537-.03q1.078-.033 2.107-.235c5.963-1.167 10.467-6.421 10.467-12.725V16.605c0-7.16-5.81-12.969-12.969-12.968H32.297v-.233c0-.783-.496-1.234-.951-1.43-.456-.195-.899-.19-.899-.19Zm0 .5h4.801s.357.003.701.15c.345.148.649.383.649.971v21.088c0 .532-.54.865-1.016.627v.002l-1.246-.623a3.33 3.33 0 0 0-2.976 0l-1.247.623v-.002a.694.694 0 0 1-1.015-.627V3.404s.003-.28.166-.56.455-.56 1.183-.56m6.692 1.854h15.074c6.89 0 12.47 5.58 12.469 12.468v23.093c0 6.067-4.327 11.115-10.065 12.235v-.002q-.584.114-1.185.175-.6.06-1.219.06H32.338Zm-15.506.021h6.965v20.334a1.19 1.19 0 0 0 .572 1.018 1.25 1.25 0 0 0 .56.181 1.2 1.2 0 0 0 .606-.123v-.002l1.246-.623a2.83 2.83 0 0 1 2.532 0l1.246.623v.002c.44.22.932.134 1.279-.138v26.758H16.832c-6.946 0-12.572-5.625-12.572-12.572V16.73c0-6.946 5.626-12.572 12.572-12.572" style="color:#000;mix-blend-mode:normal;fill:#000;-inkscape-stroke:none;filter:url(#e)" transform="translate(2.713 7.128)scale(.91323)"/></svg>