<svg xmlns="http://www.w3.org/2000/svg" xmlns:xlink="http://www.w3.org/1999/xlink" width="64" height="64"><defs><radialGradient xlink:href="#a" id="c" cx="5.3" cy="45.724" r="27" fx="5.3" fy="45.724" gradientTransform="rotate(30 43.498 57.177)scale(1.3189 1.46545)" gradientUnits="userSpaceOnUse"/><radialGradient xlink:href="#b" id="d" cx="42.615" cy="55.61" r="9.842" fx="42.615" fy="55.61" gradientTransform="rotate(-15 -165.513 263.633)scale(2.0858)" gradientUnits="userSpaceOnUse"/><radialGradient xlink:href="#b" id="f" cx="42.615" cy="55.61" r="9.842" fx="42.615" fy="55.61" gradientTransform="rotate(-15 -165.743 263.877)scale(2.0858)" gradientUnits="userSpaceOnUse"/><filter id="e" width="1.135" height="1.121" x="-.067" y="-.061" style="color-interpolation-filters:sRGB"><feGaussianBlur stdDeviation="1.528"/></filter><filter id="h" width="1.238" height="1.238" x="-.119" y="-.119" style="color-interpolation-filters:sRGB"><feGaussianBlur stdDeviation=".653"/></filter><filter id="g" width="1.184" height="1.184" x="-.092" y="-.092" style="color-interpolation-filters:sRGB"><feGaussianBlur stdDeviation=".666"/></filter><linearGradient id="b"><stop offset="0" style="stop-color:#36b752;stop-opacity:1"/><stop offset="1" style="stop-color:#36b798;stop-opacity:1"/></linearGradient><linearGradient id="a"><stop offset="0" style="stop-color:#ff4088;stop-opacity:1"/><stop offset="1" style="stop-color:#ff5c2b;stop-opacity:1"/></linearGradient></defs><path d="M32.198 3.869a5.468 5.418 0 0 0-2.862.723L9.451 15.97a5.468 5.418 0 0 0-2.734 4.692v22.753a5.468 5.418 0 0 0 2.734 4.691l19.885 11.377a5.468 5.418 0 0 0 5.467 0L54.69 48.105a5.468 5.418 0 0 0 2.734-4.691V20.66a5.468 5.418 0 0 0-2.734-4.692L34.803 4.592a5.468 5.418 0 0 0-2.605-.723" style="fill:url(#c);stroke-width:.939013"/><path d="M32.129.97a5.9 5.9 0 0 0-3.047.791L7.895 13.878l-.004.003c-1.784 1.027-.908 3.56.978 4.475l19.698 9.55a7.87 7.87.012 0 0 6.867.002l20.452-9.905c1.498-.726 2.211-2.675.919-3.695a6 6 0 0 0-.676-.456L34.94 1.735A6 6 0 0 0 32.13.97" style="opacity:.3;fill:#fff" transform="translate(1.99 2.96)scale(.93901)"/><path d="m56.765 17.57-21.3 10.322A6.14 6.14 122.072 0 0 32 33.422v27.572a5.86 5.86 0 0 0 2.909-.767l21.18-12.115A5.76 5.76 0 0 0 59 43.115v-24.23q0-.128-.006-.253c-.052-1.092-1.24-1.541-2.23-1.062" style="opacity:.15;fill:#fff" transform="translate(1.99 2.96)scale(.93901)"/><rect width="18.483" height="18.483" x="38.76" y="39.731" rx="7.457" ry="7.457" style="fill:url(#d);stroke-width:.660098"/><path d="M46.89 44.083v2.224a.584.584 135 0 1-.583.584h-2.224a2.11 2.11 135 0 0-2.112 2.112 2.11 2.11 44.919 0 0 2.112 2.106h2.224a.584.584 45 0 1 .584.584v2.224a2.11 2.11 45 0 0 2.112 2.112 2.11 2.11 134.919 0 0 2.106-2.112v-2.224a.584.584 135 0 1 .584-.584h2.224a2.11 2.11 135 0 0 2.112-2.112 2.11 2.11 44.919 0 0-2.112-2.106h-2.224a.584.584 45 0 1-.584-.584v-2.224a2.11 2.11 45 0 0-2.112-2.112 2.11 2.11 134.919 0 0-2.106 2.112" style="fill:#fff;stroke-width:.70297" transform="translate(1.99 2.96)scale(.93901)"/><path d="M32.098.713c-.032 0-.063.004-.094.004a6.06 6.06 0 0 0-3.057.793l-.002.002-.037.021-.004.002L7.723 13.648l-.004.002-.004.002q-.182.106-.332.23c-.017.015-.029.031-.045.046-1.596 1.11-2.578 2.911-2.578 4.867v24.23a5.96 5.96 0 0 0 3.01 5.172l21.177 12.115a6.04 6.04 0 0 0 2.778.784v.043h.199a6.07 6.07 0 0 0 3.01-.793l21.18-12.116c.472-.27.897-.6 1.27-.974l.003-.002.002-.002a6 6 0 0 0 .67-.822 6 6 0 0 0 .293-.457 5.85 5.85 0 0 0 .806-2.948v-24.23c0-.061-.037-.113-.039-.174l-.002-.055a1.6 1.6 0 0 0-.045-.287c-.135-1.537-.828-2.957-1.984-3.963-.033-.035-.075-.067-.111-.101l-.002-.004-.002-.002-.008-.01-.031-.025c-.029-.025-.052-.053-.082-.076l-.028-.02a6 6 0 0 0-.67-.455L34.963 1.506a6 6 0 0 0-1.424-.578 6 6 0 0 0-1.441-.215m-.05.402a6 6 0 0 1 1.598.268c.321.125.656.261 1.028.43l-.031-.018c.039.021.082.036.12.059l-.09-.042.59.327L55.956 13.97c.153.088.294.194.438.297l.002.002c.073.052.139.09.185.125h.002l.024.015.097.09c.373.343.521.772.494 1.223v.004a2 2 0 0 1-.08.43c-.017.06-.047.118-.07.177-.037.094-.07.19-.12.281-.044.082-.103.158-.157.237-.042.06-.078.123-.125.181a3 3 0 0 1-.38.381l-.013.012-.02.013a2.7 2.7 0 0 1-.433.286l-20.5 9.933-.002.002-.008.004-.02.01a7.67 7.67 0 0 1-6.689-.002l-19.7-9.55a3.3 3.3 0 0 1-.536-.333l-.067-.047a3.5 3.5 0 0 1-.435-.41l-.053-.057a3.4 3.4 0 0 1-.379-.535 3 3 0 0 1-.224-.494l-.026-.074a2.5 2.5 0 0 1-.105-.5l-.004-.059c-.038-.543.134-1.047.586-1.422v-.002q.124-.1.277-.189L29.107 1.88l.004-.001a6 6 0 0 1 .766-.363c.209-.083.42-.158.637-.215l.048-.01a6.7 6.7 0 0 1 1.486-.176M6.665 15.265c-.03.294-.008.595.07.891q.021.07.045.139l.008.039c.005.016.016.03.022.047q.098.283.252.555l.05.084q.164.274.377.523l.047.05q.23.26.508.475l.031.022c.196.148.405.281.631.39l19.7 9.551q.373.182.76.317a8.07 8.07 0 0 0 4.735.24 6.34 6.34 0 0 0-2.175 4.78v27.288c-.89-.037-1.78-.235-2.579-.691L7.97 47.85a5.56 5.56 0 0 1-2.81-4.825v-24.23c0-1.357.629-2.538 1.505-3.53m50.936.381a5.4 5.4 0 0 1 .834 1.74 1.7 1.7 0 0 0-.72-.243l-.019-.002a1.5 1.5 0 0 0-.254-.014q-.2.008-.404.057c.207-.275.364-.578.46-.891q.01-.036.023-.07.077-.286.08-.577m-.147 1.88c.167-.006.329.015.477.06s.283.115.396.205a1 1 0 0 1 .149.147c.131.161.212.369.23.623.001.02.013.038.014.058q.005.105.006.211v24.23c0 .222-.017.44-.043.657q-.015.11-.034.219-.034.219-.087.433-.027.112-.057.225a6 6 0 0 1-.188.543l-.017.049c-.019.045-.043.088-.063.132a5.5 5.5 0 0 1-.584 1q-.067.096-.138.188a6 6 0 0 1-.41.465l-.002.002a5.6 5.6 0 0 1-1.188.91l-21.18 12.115c-.794.452-1.697.657-2.611.69v-27.32q.002-.405.057-.8l.004-.045.005-.029q.056-.378.159-.74l.011-.045.002-.008a6 6 0 0 1 .643-1.441l.027-.05q.205-.323.45-.62l.027-.035.006-.008q.238-.281.512-.533l.06-.059.002-.002q.29-.26.615-.484l.022-.016q.334-.226.7-.408l.02-.012.02-.01.012-.006.004-.002 2-.968 18.5-8.965.002-.002.006-.002.789-.383c.221-.107.452-.163.675-.17z" style="color:#000;mix-blend-mode:normal;fill:#000;-inkscape-stroke:none;filter:url(#e);opacity:.74899739" transform="translate(1.99 2.96)scale(.93901)"/><rect width="18.483" height="18.483" x="38.689" y="39.679" rx="7.457" ry="7.457" style="fill:url(#f);stroke-width:.660098"/><path d="M46.89 44.083v2.224a.584.584 135 0 1-.583.584h-2.224a2.11 2.11 135 0 0-2.112 2.112 2.11 2.11 44.919 0 0 2.112 2.106h2.224a.584.584 45 0 1 .584.584v2.224a2.11 2.11 45 0 0 2.112 2.112 2.11 2.11 134.919 0 0 2.106-2.112v-2.224a.584.584 135 0 1 .584-.584h2.224a2.11 2.11 135 0 0 2.112-2.112 2.11 2.11 44.919 0 0-2.112-2.106h-2.224a.584.584 45 0 1-.584-.584v-2.224a2.11 2.11 45 0 0-2.112-2.112 2.11 2.11 134.919 0 0-2.106 2.112" style="fill:#fff;stroke-width:.70297" transform="translate(1.92 2.909)scale(.93901)"/><rect width="18.483" height="18.483" x="38.778" y="39.64" rx="7.457" ry="7.457" style="fill:none;stroke-width:.2;stroke:#000;stroke-opacity:1;stroke-dasharray:none;filter:url(#g)"/><path d="M46.89 44.083v2.224a.584.584 135 0 1-.583.584h-2.224a2.11 2.11 135 0 0-2.112 2.112 2.11 2.11 44.919 0 0 2.112 2.106h2.224a.584.584 45 0 1 .584.584v2.224a2.11 2.11 45 0 0 2.112 2.112 2.11 2.11 134.919 0 0 2.106-2.112v-2.224a.584.584 135 0 1 .584-.584h2.224a2.11 2.11 135 0 0 2.112-2.112 2.11 2.11 44.919 0 0-2.112-2.106h-2.224a.584.584 45 0 1-.584-.584v-2.224a2.11 2.11 45 0 0-2.112-2.112 2.11 2.11 134.919 0 0-2.106 2.112z" style="fill:none;stroke-width:.21298955;stroke:#0064ff;stroke-opacity:1;stroke-dasharray:none;filter:url(#h)" transform="translate(2.008 2.87)scale(.93901)"/></svg>