<svg xmlns="http://www.w3.org/2000/svg" width="64" height="64"><defs><filter id="a" width="1.139" height="1.139" x="-.069" y="-.069" style="color-interpolation-filters:sRGB"><feGaussianBlur stdDeviation="1.559"/></filter></defs><rect width="56" height="56" x="4" y="4" rx="16.965" ry="16.965" style="fill:#c51100;fill-opacity:1"/><rect width="56" height="56" x="4" y="4" rx="16.965" ry="16.965" style="fill:none;stroke:#000;stroke-width:.3;stroke-dasharray:none;stroke-opacity:1;filter:url(#a)"/><path d="M31.594 15.12q-.243.008-.502.038c-.692-.057-1.13.229-1.563.446l.007.01c-.14.081-.285.164-.403.266-2.28 1.69-2.03 7.974.553 12.857-2.039 3.892-4.388 7.747-6.963 11.18-1.978.394-6.725 1.202-8.937 3.237-1.39 1.263-1.474 3.771-.484 4.88a.6.6 0 0 1-.127-.13c.074.114.184.216.315.309q.03.029.062.055l-.027-.036c.854.577 2.64.727 2.98.53 2.057-.724 5.207-4.066 7.041-6.28 5.027-.506 11.234-.893 15.87-.964 3.843 3.161 10.017 5.03 11.332 3.114-1.16.789-3.615-.541-6.478-2.978l.02-.08c2.85.05 8.011.212 6.473 3.027.33-.245.564-.666.657-1.284.382-2.672-4.398-5.078-10.248-5.273.129.129.236.286.332.455-2.675-2.868-5.67-6.762-8.08-10.103 3.12-6.898 3.122-13.451-1.83-13.276M50.763 44.6l-.028.025.013.006zM31.9 15.321c2.967.127 2.052 4.552-.55 10.088-2.988-5.32-4.08-9.532-.092-10.054q.178-.024.342-.032.156-.007.3-.001m-.404 15.987c2.2 2.834 3.038 3.971 5.93 7.78-3.48-.011-7.466-.014-10.934.3 2.015-2.607 3.508-5.177 5.004-8.08M20.651 42.805c-1.227 2.254-5.667 6.492-7.172 5.18s.827-3.133 2.946-3.952l.345-.16c1.186-.478 2.023-.775 2.607-.93l.013.019c.386-.054.84-.104 1.26-.157" style="color:#000;fill:#fff;fill-opacity:1;stroke-width:.707903;stroke-linejoin:round;-inkscape-stroke:none;paint-order:stroke fill markers"/></svg>