<svg xmlns="http://www.w3.org/2000/svg" xmlns:xlink="http://www.w3.org/1999/xlink" width="64" height="64"><defs><filter id="e" width="1.064" height="1.077" x="-.032" y="-.039" style="color-interpolation-filters:sRGB"><feGaussianBlur stdDeviation=".485"/></filter><filter id="g" width="1.541" height="1.541" x="-.27" y="-.27" style="color-interpolation-filters:sRGB"><feGaussianBlur stdDeviation=".86"/></filter><filter id="d" width="1.141" height="1.141" x="-.07" y="-.07" style="color-interpolation-filters:sRGB"><feGaussianBlur stdDeviation="1.601"/></filter><radialGradient xlink:href="#a" id="c" cx="2.536" cy="34.755" r="28" fx="2.536" fy="34.755" gradientTransform="rotate(30 135.994 50.49)scale(3.11826)" gradientUnits="userSpaceOnUse"/><radialGradient xlink:href="#b" id="f" cx="30.679" cy="32.744" r="4" fx="30.679" fy="32.744" gradientTransform="translate(-66.223 -66.223)scale(3.06948)" gradientUnits="userSpaceOnUse"/><linearGradient id="b"><stop offset="0" style="stop-color:#ff8900;stop-opacity:1"/><stop offset="1" style="stop-color:#ff5c00;stop-opacity:1"/></linearGradient><linearGradient id="a"><stop offset="0" style="stop-color:#0df;stop-opacity:1"/><stop offset="1" style="stop-color:#0093ff;stop-opacity:1"/></linearGradient></defs><rect width="56" height="56" x="4" y="4" rx="28" ry="28" style="fill:url(#c)"/><rect width="56" height="56" x="4" y="4" rx="28" ry="28" style="fill:none;stroke:#000;stroke-opacity:1;stroke-width:.19999991;stroke-dasharray:none;filter:url(#d)"/><path d="M23.914 13.4a2.1 2.1 0 0 0-1.887 1.168l-8.4 16.983h-.002a2.11 2.11 0 0 0 .953 2.81c1.033.512 2.3.084 2.813-.949l1.886-3.812h9.207l1.284 2.619-13.922 12.1a1.31 1.31 0 0 0-.127 1.835 1.31 1.31 0 0 0 1.836.127L30.842 34.73l5.43 12.603a2.1 2.1 0 0 0 1.976 1.268 2.1 2.1 0 0 0 1.916-1.36l2.938-7.79 2.935 7.79a2.1 2.1 0 0 0 1.916 1.36 2.1 2.1 0 0 0 1.977-1.268l5.6-13v-.002a2.11 2.11 0 0 0-1.1-2.758 2.11 2.11 0 0 0-2.758 1.096l-3.541 8.223-3.067-8.131A2.1 2.1 0 0 0 43.1 31.4a2.1 2.1 0 0 0-1.963 1.36l-3.067 8.13-3.54-8.222-.003-.006c-.038-.086-.115-.145-.164-.224l7.856-9.499a2.11 2.11 0 0 0-.28-2.959h-.002a2.1 2.1 0 0 0-2.957.281l-6.527 7.893-6.658-13.578a2.1 2.1 0 0 0-1.88-1.176m-.014 6.852 2.524 5.148h-5.07z" style="color:#000;fill:#fff;stroke-linecap:round;stroke-linejoin:round;-inkscape-stroke:none"/><path d="M23.977 13.409a2.1 2.1 0 0 0-1.887 1.168l-8.4 16.982h-.002a2.11 2.11 0 0 0 .953 2.81c1.032.512 2.3.084 2.812-.948l1.887-3.813h9.207l1.283 2.62-13.922 12.099a1.31 1.31 0 0 0-.127 1.836 1.31 1.31 0 0 0 1.836.127l13.288-11.553 5.43 12.603a2.1 2.1 0 0 0 1.976 1.268 2.1 2.1 0 0 0 1.916-1.36l2.937-7.79 2.936 7.79a2.1 2.1 0 0 0 1.916 1.36 2.1 2.1 0 0 0 1.976-1.268l5.6-13v-.002a2.11 2.11 0 0 0-1.1-2.757 2.11 2.11 0 0 0-2.757 1.095L48.194 40.9l-3.067-8.13a2.1 2.1 0 0 0-1.965-1.36c-.871 0-1.655.544-1.963 1.36l-3.066 8.13-3.541-8.223-.002-.006c-.038-.085-.115-.145-.164-.224l7.855-9.498a2.11 2.11 0 0 0-.279-2.96H42a2.1 2.1 0 0 0-2.957.281l-6.527 7.894-6.658-13.578a2.1 2.1 0 0 0-1.881-1.176zm-.014 6.851 2.524 5.149h-5.07z" style="color:#000;fill:none;stroke-linecap:round;stroke-linejoin:round;stroke:#0082ff;stroke-opacity:1;stroke-width:.4;stroke-dasharray:none;filter:url(#e);fill-opacity:1"/><circle cx="32" cy="32" r="4" style="fill:url(#f);fill-opacity:1"/><circle cx="32.085" cy="31.943" r="4" style="fill:none;fill-opacity:1;stroke:#000;stroke-opacity:1;opacity:1;stroke-width:.19999992;stroke-dasharray:none;filter:url(#g)"/></svg>