<svg xmlns="http://www.w3.org/2000/svg" xmlns:xlink="http://www.w3.org/1999/xlink" width="64" height="64"><defs><radialGradient xlink:href="#a" id="d" cx="32" cy="26.5" r="28" fx="32" fy="26.5" gradientTransform="matrix(1 0 0 .80357 0 5.205)" gradientUnits="userSpaceOnUse"/><radialGradient xlink:href="#b" id="c" cx="32" cy="39" r="25" fx="32" fy="39" gradientTransform="matrix(1 0 0 .84 0 6.24)" gradientUnits="userSpaceOnUse"/><linearGradient id="b"><stop offset="0" style="stop-color:#5796c8;stop-opacity:1"/><stop offset="1" style="stop-color:#5770c8;stop-opacity:1"/></linearGradient><linearGradient id="a"><stop offset="0" style="stop-color:#69ded6;stop-opacity:1"/><stop offset="1" style="stop-color:#69adde;stop-opacity:1"/></linearGradient><filter id="f" width="1.155" height="1.193" x="-.078" y="-.096" style="color-interpolation-filters:sRGB"><feGaussianBlur stdDeviation="1.446"/></filter><filter id="e" width="1.178" height="1.207" x="-.089" y="-.103" style="color-interpolation-filters:sRGB"><feGaussianBlur stdDeviation="1.446"/></filter></defs><path d="M7 60h3.817a11.13 11.13 147.152 0 0 10.14-6.546l10.208-22.605a.916.916 0 0 1 1.67 0l10.209 22.605A11.13 11.13 32.848 0 0 53.183 60H57L40.46 23.437A9.25 9.25 32.83 0 0 32.032 18h-.064a9.25 9.25 147.17 0 0-8.428 5.437z" style="fill:url(#c)" transform="translate(.537 .559)scale(.98306)"/><path d="M16 4C9.352 4 4 9.352 4 16v21c0 6.648 5.352 12 12 12h32c6.648 0 12-5.352 12-12V16c0-6.648-5.352-12-12-12h-3.37A3.63 3.63 135 0 0 41 7.63v3.74c0 2.005 1.688 3.397 3.59 3.989 2.402.746 4.164 2.577 4.41 5.641v11c0 3.324-2.676 6-6 6H21c-3.324 0-6-2.676-6-6V21c.066-3.237 1.963-4.856 4.41-5.553 1.92-.549 3.59-2.072 3.59-4.077V7.63A3.63 3.63 45 0 0 19.37 4Z" style="fill:url(#d)" transform="translate(.537 .559)scale(.98306)"/><path d="M32 20.236a7.71 7.71 0 0 0-7.025 4.534l-5.059 11.18a4.98 4.98 0 0 0 2.941.957h5.782l2.691-5.96a.764.764 0 0 1 1.393 0l2.691 5.96h5.783a4.98 4.98 0 0 0 2.94-.957l-5.059-11.18a7.71 7.71 0 0 0-7.025-4.534ZM15.563 45.578l-4.376 9.67h3.182a9.27 9.27 0 0 0 8.451-5.457l1.676-3.713H18.69c-1.094 0-2.143-.178-3.126-.5zm32.93 0c-.985.322-2.034.5-3.128.5h-5.808l1.675 3.713a9.27 9.27 0 0 0 8.454 5.457h3.181z" style="mix-blend-mode:normal;fill:none;stroke:#000;stroke-width:.3;stroke-dasharray:none;filter:url(#e)" transform="translate(-5.742 -5.72)scale(1.1793)"/><path d="M18.69 8.566A9.983 9.983 0 0 0 8.685 18.57v17.506a9.98 9.98 0 0 0 10.003 10.002h26.676a9.98 9.98 0 0 0 10.002-10.002V18.57A9.98 9.98 0 0 0 45.365 8.566h-2.81a3.026 3.026 0 0 0-3.026 3.026v3.119c0 1.671 1.406 2.831 2.992 3.324 2.002.622 3.471 2.15 3.676 4.703v9.17c0 2.771-2.229 5-5 5h-18.34a4.99 4.99 0 0 1-5.002-5v-9.17c.056-2.698 1.637-4.049 3.676-4.63 1.602-.458 2.992-1.726 2.992-3.397v-3.12a3.026 3.026 0 0 0-3.025-3.025z" style="mix-blend-mode:normal;fill:none;stroke:#000;stroke-width:.3;stroke-dasharray:none;filter:url(#f)" transform="translate(-5.742 -5.72)scale(1.1793)"/></svg>