<svg xmlns="http://www.w3.org/2000/svg" xmlns:xlink="http://www.w3.org/1999/xlink" width="64" height="64"><defs><radialGradient xlink:href="#a" id="b" cx="8.511" cy="55.046" r="28" fx="8.511" fy="55.046" gradientTransform="rotate(-30 -291.266 197.626)scale(4.0989)" gradientUnits="userSpaceOnUse"/><linearGradient id="a"><stop offset="0" style="stop-color:#4c8ebc;stop-opacity:1"/><stop offset="1" style="stop-color:#2d4062;stop-opacity:1"/></linearGradient><filter id="c" width="1.082" height="1.181" x="-.041" y="-.09" style="color-interpolation-filters:sRGB"><feGaussianBlur stdDeviation=".715"/></filter></defs><rect width="56" height="56" x="4" y="4" rx="18.238" ry="18.238" style="fill:url(#b)"/><path d="M44.97 21.97A2 2 0 0 0 43 24v16a2 2 0 0 0 2 2h8c2.705.038 2.705-4.038 0-4h-6V24a2 2 0 0 0-2.03-2.03m-15.714.003a5 5 0 0 0-.424.02A2 2 0 0 0 27 23.985v16a2 2 0 0 0 1.832 1.993s2.457.242 5-.922S39 36.939 39 31.987s-2.625-7.909-5.168-9.073c-1.908-.873-3.766-.955-4.576-.941M17 22.029c-2.667 0-4.55 1.629-5.29 3.106-.738 1.477-.71 2.894-.71 2.894-.02 4.04 0 7.974 0 12-.038 2.705 4.038 2.705 4 0v-4h4v4c-.038 2.705 4.038 2.705 4 0 .02-4.039 0-7.973 0-12 0 0 .028-1.417-.71-2.894-.74-1.477-2.623-3.106-5.29-3.106m0 4c1.333 0 1.45.372 1.71.895.262.523.29 1.105.29 1.105v4h-4v-4s.028-.582.29-1.105c.26-.523.377-.895 1.71-.895m14 .217c.392.086.752.115 1.168.305 1.457.667 2.832 1.713 2.832 5.435 0 3.723-1.375 4.767-2.832 5.434-.416.19-.776.22-1.168.307z" style="fill:#a1eae9"/><path d="M45.004 21.943a2 2 0 0 0-1.97 2.029v16a2 2 0 0 0 2 2h8c2.704.038 2.704-4.038 0-4h-6v-14a2 2 0 0 0-2.03-2.03zm-15.715.002a5 5 0 0 0-.424.02 2 2 0 0 0-1.832 1.993v16a2 2 0 0 0 1.832 1.992s2.457.243 5-.921 5.168-4.118 5.168-9.07c0-4.953-2.624-7.909-5.168-9.073-1.907-.873-3.766-.955-4.576-.941zM17.033 22c-2.666 0-4.55 1.629-5.289 3.106S11.034 28 11.034 28c-.02 4.04 0 7.974 0 12-.039 2.705 4.038 2.705 4 0v-4h4v4c-.039 2.705 4.038 2.705 4 0 .02-4.039 0-7.973 0-12 0 0 .027-1.417-.712-2.894C21.584 23.63 19.7 22 17.033 22zm0 4c1.334 0 1.45.372 1.711.895s.29 1.105.29 1.105v4h-4v-4s.027-.582.288-1.105c.262-.523.378-.895 1.711-.895zm14 .217c.392.086.753.114 1.168.305 1.457.667 2.832 1.713 2.832 5.435 0 3.723-1.375 4.767-2.832 5.434-.415.19-.776.22-1.168.306z" style="fill:none;stroke:#00cdff;stroke-opacity:1;stroke-width:.2;stroke-dasharray:none;fill-opacity:1;opacity:1;filter:url(#c)"/></svg>