<svg xmlns="http://www.w3.org/2000/svg" xmlns:xlink="http://www.w3.org/1999/xlink" width="64" height="64"><defs><radialGradient xlink:href="#a" id="d" cx="18.45" cy="24.624" r="12" fx="18.45" fy="24.624" gradientTransform="rotate(45 317.88 -81.715)scale(8.393)" gradientUnits="userSpaceOnUse"/><radialGradient xlink:href="#b" id="c" cx="28.406" cy="35.044" r="12" fx="28.406" fy="35.044" gradientTransform="matrix(5.81514 0 0 5.81515 -154.085 -154.085)" gradientUnits="userSpaceOnUse"/><linearGradient id="b"><stop offset="0" style="stop-color:#00ad85;stop-opacity:1"/><stop offset="1" style="stop-color:#0096ad;stop-opacity:1"/></linearGradient><linearGradient id="a"><stop offset="0" style="stop-color:#10e0ff;stop-opacity:1"/><stop offset="1" style="stop-color:#1092ff;stop-opacity:1"/></linearGradient><filter id="e" width="1.159" height="1.159" x="-.079" y="-.079" style="color-interpolation-filters:sRGB"><feGaussianBlur stdDeviation="1.802"/></filter></defs><path d="M39.075 4.588c-2.9-.385-6 .628-8.109 2.81.56 1.18 3.989.594 5.225 2.24 1.84 1.585 5.007 5.06 2.65 7.46-9.169 8.963-20.239 19.963-29.348 29-1.662 2.098-4.543 3.49-4.985 6.41.543 2.907 3.085 4.987 5.104 6.738.901.485 2.134.225 2.842-.531 12.082-12.913 20.636-23.76 31.69-36.148 1.354-1.168 3.677-1.049 3.64 1.398-1.529 2.659 2.339 4.22 3.564 6.174 1.407 1.043 2.378-.987 3.41-1.73 1.52-2.018 4.663-3.279 4.734-6.137-1.741-1.739-3.185-6.004-5.82-4.902-2.614-1.206-1.521-5.611-4.302-7.118-2.194-1.815-5.042-2.232-7.053-4.556a8.6 8.6 0 0 0-3.242-1.108" style="fill:url(#c);stroke-width:2.29101"/><path d="M14.646 4.51c-.919.016-1.833.09-2.713.176-4.176.26-1.576 3.372.972 3.992 4.174 1.19 4.15 5.93 1.67 8.905-2.268 3.853-5.677.192-8.324-1.068-3.946-.654-.135 4.828 1.12 6.172 1.88 2.907 5.079 4.301 8.368 3.8 4.13-.592 7.035 2.927 9.761 5.58 7.68 7.16 15.498 14.993 23.224 22.847 1.135.973 2.376 2.081 3.25 3.325 4.244 3.987 10.573-2.37 5.832-7.464-9.82-9.043-19.91-19.455-28.983-28.305-1.485-1.455-2.872-2.992-3.82-4.886-1.603-3.32.106-7.754-2.865-10.412-1.953-2.227-4.738-2.707-7.493-2.661" style="fill:url(#d);stroke-width:2.29101"/><path d="M38.04 4.475c-2.58-.035-5.197.986-7.052 2.906l-.025.025.016.032c.149.314.483.504.908.642s.946.227 1.486.33c1.08.206 2.233.471 2.836 1.274l.002.005.004.002c.917.79 2.166 2.055 2.889 3.413.36.678.59 1.38.584 2.056s-.243 1.329-.825 1.92c-2.403 2.35-5.107 5.027-7.703 7.586-.742-.73-1.514-1.503-2.244-2.215-1.484-1.453-2.866-2.985-3.81-4.87-.795-1.647-.77-3.58-.915-5.438-.144-1.858-.463-3.646-1.959-4.987l-.003-.002c-1.967-2.24-4.766-2.723-7.526-2.677-.92.015-1.838.09-2.719.177l.002-.002c-1.05.066-1.683.31-2.002.664s-.303.815-.074 1.27c.458.91 1.75 1.844 3.04 2.158 2.07.59 3.088 2.051 3.292 3.74s-.417 3.607-1.648 5.084l-.002.002-.002.004c-.563.956-1.19 1.438-1.856 1.613-.665.176-1.375.042-2.103-.251-1.455-.587-2.968-1.815-4.3-2.45l-.007-.004h-.008c-.498-.082-.877-.07-1.16.024a.87.87 0 0 0-.56.506c-.188.468-.033 1.143.277 1.877.62 1.467 1.885 3.171 2.518 3.85 1.89 2.917 5.108 4.318 8.414 3.814 2.05-.294 3.793.431 5.37 1.564 1.216.873 2.315 1.976 3.386 3.049-5.188 5.133-10.369 10.275-15.045 14.914l-.002.002-.002.002c-.826 1.042-1.96 1.915-2.946 2.893s-1.825 2.065-2.048 3.539l-.002.007.002.01c.547 2.932 3.101 5.016 5.119 6.766l.004.004.005.004c.926.497 2.178.232 2.903-.541 7.04-7.526 12.889-14.354 18.726-21.19 5.81 5.6 11.666 11.49 17.471 17.39l.002.003c1.135.971 2.373 2.079 3.242 3.316l.004.004.002.004c1.07 1.005 2.278 1.36 3.408 1.244s2.182-.702 2.95-1.574c1.535-1.745 1.932-4.641-.454-7.203l-.002-.002-.002-.002c-6.915-6.369-13.948-13.403-20.683-20.108a618 618 0 0 1 7.021-8.027c.666-.574 1.572-.829 2.297-.644.724.184 1.276.796 1.26 1.998-.378.667-.427 1.276-.258 1.834.17.562.554 1.072 1.022 1.558.934.973 2.205 1.854 2.808 2.817l.006.007.008.006c.36.267.701.34 1.02.282.318-.058.609-.243.886-.481.555-.476 1.058-1.168 1.563-1.531l.006-.004.003-.008c.754-1 1.918-1.818 2.907-2.746.988-.928 1.804-1.97 1.84-3.418v-.021l-.016-.016c-.861-.86-1.66-2.36-2.572-3.512-.457-.576-.941-1.066-1.485-1.344-.531-.27-1.124-.315-1.777-.056-.642-.296-1.056-.787-1.361-1.387-.306-.6-.5-1.307-.702-2.027-.4-1.44-.827-2.937-2.236-3.701-1.102-.91-2.363-1.468-3.598-2.088-1.236-.621-2.444-1.305-3.443-2.46l-.004-.005-.008-.004a8.6 8.6 0 0 0-3.261-1.113 9 9 0 0 0-1.1-.082zm0 .101q.546.007 1.087.078a8.5 8.5 0 0 1 3.223 1.102c1.01 1.163 2.226 1.85 3.46 2.47 1.24.623 2.496 1.18 3.586 2.083l.004.002.004.003c1.37.743 1.789 2.2 2.19 3.64.2.72.395 1.433.707 2.046s.743 1.125 1.408 1.432l.02.01.021-.008c.646-.27 1.212-.212 1.734.054.523.267 1 .744 1.452 1.315.897 1.132 1.687 2.614 2.56 3.496-.04 1.404-.825 2.42-1.803 3.338-.977.917-2.139 1.735-2.906 2.748-.528.38-1.028 1.073-1.568 1.537-.27.232-.548.406-.84.459s-.6-.011-.943-.266c-.626-.986-1.89-1.86-2.809-2.816-.462-.48-.835-.98-.998-1.52-.163-.538-.12-1.116.256-1.771l.006-.012.002-.014c.019-1.239-.57-1.908-1.336-2.103s-1.7.074-2.389.668l-.002.002-.002.002a618 618 0 0 0-7.021 8.027c-2.01-2-3.971-3.93-5.913-5.842 2.597-2.558 5.301-5.237 7.704-7.586.597-.608.847-1.29.853-1.99s-.23-1.415-.596-2.103c-.73-1.374-1.981-2.636-2.904-3.432-.633-.843-1.812-1.106-2.894-1.312-.542-.104-1.061-.194-1.475-.329-.396-.129-.673-.308-.813-.564 1.833-1.872 4.401-2.877 6.934-2.844zm-23.337.002c2.748-.045 5.515.432 7.455 2.645l.002.002.002.002c1.472 1.316 1.785 3.07 1.93 4.923.144 1.853.115 3.8.924 5.473.951 1.901 2.343 3.443 3.83 4.898.73.712 1.502 1.485 2.244 2.215l.03.03.005.005c1.964 1.934 3.948 3.892 5.982 5.916l.038.04.001-.002C43.88 37.428 50.914 44.46 57.83 50.83c2.351 2.53 1.953 5.357.45 7.066-.753.856-1.783 1.428-2.885 1.541-1.103.114-2.277-.23-3.329-1.218-.878-1.247-2.116-2.352-3.25-3.323l-.002-.001C43.01 48.993 37.152 43.104 31.34 37.502l-.033-.031a476 476 0 0 0-5.713-5.422l-.002-.002c-.3-.293-.62-.609-.926-.916l-.035-.035c-1.071-1.073-2.174-2.18-3.399-3.059-1.589-1.142-3.363-1.88-5.443-1.582-3.271.499-6.45-.886-8.32-3.777l-.002-.004-.002-.002c-.621-.666-1.888-2.375-2.5-3.822-.306-.724-.444-1.383-.276-1.801.084-.21.239-.361.498-.447s.623-.101 1.108-.022c1.312.627 2.824 1.855 4.299 2.45.739.297 1.471.436 2.166.253.692-.182 1.341-.686 1.912-1.652l.002-.004c1.246-1.497 1.875-3.434 1.668-5.154-.208-1.722-1.262-3.226-3.365-3.827h-.002c-1.26-.306-2.54-1.239-2.975-2.105-.218-.433-.23-.837.059-1.158.289-.322.898-.564 1.935-.63l.002-.001a34 34 0 0 1 2.707-.174zm9.928 26.658c.295.296.602.6.892.883v.002h.002a475 475 0 0 1 5.678 5.389c-5.838 6.836-11.688 13.665-18.728 21.19-.693.739-1.901.988-2.78.517h-.002c-2.015-1.748-4.532-3.819-5.074-6.694.221-1.44 1.04-2.506 2.018-3.476s2.113-1.843 2.949-2.897l.004-.004c4.675-4.637 9.855-9.778 15.04-14.91z" style="color:#000;fill:#000;stroke:#000;stroke-opacity:1;stroke-width:.1;stroke-dasharray:none;filter:url(#e)"/></svg>