<svg xmlns="http://www.w3.org/2000/svg" width="64" height="64"><defs><filter id="a" width="1.139" height="1.139" x="-.069" y="-.069" style="color-interpolation-filters:sRGB"><feGaussianBlur stdDeviation="1.559"/></filter></defs><rect width="56" height="56" x="4" y="4" rx="16.965" ry="16.965" style="fill:#2b9c82;fill-opacity:1"/><rect width="56" height="56" x="4" y="4" rx="16.965" ry="16.965" style="fill:none;stroke:#000;stroke-width:.3;stroke-dasharray:none;stroke-opacity:1;filter:url(#a)"/><g aria-label="Mu" style="font-weight:700;font-family:&quot;Myriad Pro&quot;;-inkscape-font-specification:&quot;Myriad Pro Bold&quot;;white-space:pre;fill:#a3f8ff;stroke-width:.200021"><path d="M31.964 44.905h5.726L36.297 18.83H28.56l-2.747 8.666c-.89 2.901-1.78 6.344-2.475 9.361h-.155a112 112 0 0 0-2.205-9.323l-2.553-8.704h-7.853L8.908 44.905h5.455L14.866 35c.154-3.25.31-7.272.425-10.793h.077c.658 3.405 1.51 7.118 2.36 10.213l2.786 10.058h4.603l3.172-10.174a164 164 0 0 0 2.94-10.097h.078c0 3.792.116 7.583.232 10.716z"/><path d="M24.986 22.406h-1.383v2.648a.7.7 0 0 1-.055.3.735.735 0 0 1-.691.482c-.492 0-.701-.39-.701-1.037v-2.393h-1.383v2.611c0 1.374.655 1.939 1.565 1.939.8 0 1.22-.455 1.392-.728h.027l.064.627h1.201a29 29 0 0 1-.036-1.428z" style="font-size:9.0992px" transform="translate(-25.573 -41.67)scale(3.22373)"/></g></svg>