<svg xmlns="http://www.w3.org/2000/svg" width="64" height="64"><defs><filter id="a" width="1.139" height="1.139" x="-.069" y="-.069" style="color-interpolation-filters:sRGB"><feGaussianBlur stdDeviation="1.559"/></filter></defs><rect width="56" height="56" x="4" y="4" rx="16.965" ry="16.965" style="fill:#502e8e"/><rect width="56" height="56" x="4" y="4" rx="16.965" ry="16.965" style="fill:none;stroke:#000;stroke-width:.3;stroke-dasharray:none;stroke-opacity:1;filter:url(#a)"/><path d="M10.876 26.855h1.812v-3.18h.54c.756.012 1.104.276 1.332 1.296.228.996.432 1.644.552 1.884h1.872c-.156-.312-.396-1.368-.648-2.292-.204-.744-.516-1.272-1.08-1.5v-.036c.696-.252 1.428-.96 1.428-1.98 0-.744-.264-1.32-.756-1.704-.576-.456-1.416-.636-2.616-.636-.984 0-1.848.072-2.436.168zm1.812-6.72c.132-.036.384-.06.828-.06.84 0 1.344.384 1.344 1.116 0 .708-.54 1.164-1.452 1.164h-.72zm10.776.852H21.64v3.492a1 1 0 0 1-.072.396.97.97 0 0 1-.912.636c-.648 0-.924-.516-.924-1.368v-3.156h-1.824v3.444c0 1.812.864 2.556 2.064 2.556 1.056 0 1.608-.6 1.836-.96h.036l.084.828h1.584a38 38 0 0 1-.048-1.884z" aria-label="Ru" style="font-weight:700;font-family:&quot;Myriad Pro&quot;;-inkscape-font-specification:&quot;Myriad Pro Bold&quot;;white-space:pre;fill:#c3a3ff;stroke-width:.200021" transform="translate(-23.429 -41.654)scale(3.22373)"/></svg>