<svg xmlns="http://www.w3.org/2000/svg" width="64" height="64"><defs><filter id="a" width="1.139" height="1.139" x="-.069" y="-.069" style="color-interpolation-filters:sRGB"><feGaussianBlur stdDeviation="1.559"/></filter></defs><rect width="56" height="56" x="4" y="4" rx="16.965" ry="16.965" style="fill:#502e8e"/><rect width="56" height="56" x="4" y="4" rx="16.965" ry="16.965" style="fill:none;stroke:#000;stroke-width:.3;stroke-dasharray:none;stroke-opacity:1;filter:url(#a)"/><path d="M10.888 18.767v8.088h1.824v-8.088zm7.5 6.588c-.276.12-.612.192-1.044.192-.888 0-1.608-.576-1.608-1.644-.012-.96.612-1.644 1.572-1.644.48 0 .804.084 1.02.18l.288-1.356c-.384-.144-.912-.228-1.392-.228-2.184 0-3.36 1.404-3.36 3.12 0 1.836 1.212 3 3.108 3 .696 0 1.308-.12 1.632-.276z" aria-label="Ic" style="font-weight:700;font-family:&quot;Myriad Pro&quot;;-inkscape-font-specification:&quot;Myriad Pro Bold&quot;;white-space:pre;fill:#c3a3ff;stroke-width:.200021" transform="translate(-15.556 -41.731)scale(3.22373)"/></svg>