<svg xmlns="http://www.w3.org/2000/svg" width="64" height="64"><defs><filter id="a" width="1.139" height="1.139" x="-.069" y="-.069" style="color-interpolation-filters:sRGB"><feGaussianBlur stdDeviation="1.559"/></filter></defs><rect width="56" height="56" x="3.891" y="3.891" rx="16.965" ry="16.965" style="fill:#92212d;fill-opacity:1"/><rect width="56" height="56" x="3.891" y="3.891" rx="16.965" ry="16.965" style="fill:none;stroke:#000;stroke-width:.3;stroke-dasharray:none;stroke-opacity:1;filter:url(#a)"/><path d="m15.076 24.78.624 2.075h1.98l-2.52-8.088h-2.4l-2.46 8.088h1.884l.576-2.076zm-2.052-1.369.48-1.716c.132-.468.252-1.08.372-1.56h.024c.12.48.264 1.08.408 1.56l.504 1.716zm5.592 3.444h1.824v-3.384c0-.168.012-.336.06-.456.132-.336.432-.684.936-.684.66 0 .924.516.924 1.272v3.252h1.824v-3.468c0-1.728-.9-2.532-2.1-2.532-.984 0-1.572.564-1.812.948h-.036l-.084-.816h-1.584c.024.528.048 1.14.048 1.872z" aria-label="An" style="font-weight:700;font-family:&quot;Myriad Pro&quot;;-inkscape-font-specification:&quot;Myriad Pro Bold&quot;;white-space:pre;fill:#ffa3ae;stroke-width:.200021" transform="translate(-23.583 -41.538)scale(3.22373)"/></svg>