<svg xmlns="http://www.w3.org/2000/svg" width="64" height="64"><defs><filter id="a" width="1.139" height="1.139" x="-.069" y="-.069" style="color-interpolation-filters:sRGB"><feGaussianBlur stdDeviation="1.559"/></filter></defs><rect width="56" height="56" x="4" y="4" rx="16.965" ry="16.965" style="fill:#c55700;fill-opacity:1"/><rect width="56" height="56" x="4" y="4" rx="16.965" ry="16.965" style="fill:none;stroke:#000;stroke-width:.3;stroke-dasharray:none;stroke-opacity:1;filter:url(#a)"/><g stroke="none" aria-label="Fw" style="font-stretch:condensed;font-family:&quot;Myriad Pro&quot;;-inkscape-font-specification:&quot;Myriad Pro Condensed&quot;;white-space:pre;fill:none;stroke:#00cdff;stroke-width:.200021"><path d="M10.888 26.855h1.824v-3.252h2.904v-1.488h-2.904v-1.848h3.108v-1.5h-4.932z" style="font-weight:700;font-stretch:normal;-inkscape-font-specification:&quot;Myriad Pro Bold&quot;;fill:#ffcca3;stroke:none" transform="translate(-22.983 -41.538)scale(3.22373)"/><path d="m16.508 22.406 1.301 4.45h1.301l.446-1.566c.11-.41.2-.828.282-1.383h.019c.09.555.172.956.29 1.393l.42 1.555h1.291l1.365-4.449h-1.355l-.374 1.765c-.109.51-.2 1.02-.263 1.52h-.019c-.082-.51-.2-1.001-.327-1.51l-.446-1.775h-1.092l-.473 1.838c-.1.437-.237.937-.319 1.447h-.027c-.073-.51-.164-1.001-.246-1.456l-.364-1.829Z" style="font-weight:700;font-stretch:normal;font-size:9.0992px;-inkscape-font-specification:&quot;Myriad Pro Bold&quot;;fill:#ffcca3;stroke:none" transform="translate(-22.983 -41.538)scale(3.22373)"/></g></svg>