<svg xmlns="http://www.w3.org/2000/svg" width="64" height="64"><defs><filter id="a" width="1.139" height="1.139" x="-.069" y="-.069" style="color-interpolation-filters:sRGB"><feGaussianBlur stdDeviation="1.559"/></filter></defs><rect width="56" height="56" x="4" y="4" rx="16.965" ry="16.965" style="fill:#2e8e87;fill-opacity:1"/><rect width="56" height="56" x="4" y="4" rx="16.965" ry="16.965" style="fill:none;stroke:#000;stroke-width:.3;stroke-dasharray:none;stroke-opacity:1;filter:url(#a)"/><path d="M10.876 26.82c.444.06 1.128.12 2.076.12 1.584 0 2.892-.337 3.744-1.045.768-.66 1.332-1.728 1.332-3.276 0-1.428-.528-2.424-1.368-3.048-.768-.576-1.776-.864-3.324-.864-.912 0-1.788.072-2.46.18zm1.824-6.637c.156-.036.432-.072.828-.072 1.584 0 2.568.888 2.568 2.568 0 1.932-1.092 2.844-2.76 2.832-.216 0-.48 0-.636-.036zm8.34 6.672v-5.868h-1.824v5.868zm-.9-8.412c-.588 0-.972.396-.972.912 0 .504.372.912.948.912.612 0 .984-.408.984-.912-.012-.516-.372-.912-.96-.912" aria-label="Di" style="font-weight:700;font-family:&quot;Myriad Pro&quot;;-inkscape-font-specification:&quot;Myriad Pro Bold&quot;;white-space:pre;fill:#a3ffeb;stroke-width:.200021" transform="translate(-19.54 -41.151)scale(3.22373)"/></svg>