<svg xmlns="http://www.w3.org/2000/svg" width="64" height="64"><defs><filter id="a" width="1.139" height="1.139" x="-.069" y="-.069" style="color-interpolation-filters:sRGB"><feGaussianBlur stdDeviation="1.559"/></filter></defs><rect width="56" height="56" x="4" y="4" rx="16.965" ry="16.965" style="fill:#c55700;fill-opacity:1"/><rect width="56" height="56" x="4" y="4" rx="16.965" ry="16.965" style="fill:none;stroke:#000;stroke-width:.3;stroke-dasharray:none;stroke-opacity:1;filter:url(#a)"/><path d="M10.876 26.82c.408.06 1.08.12 1.98.12 1.608 0 2.592-.265 3.18-.733.504-.408.84-.984.84-1.728 0-1.032-.684-1.74-1.608-1.98v-.024c.912-.348 1.332-1.008 1.332-1.716 0-.744-.396-1.296-.96-1.596-.6-.348-1.284-.456-2.4-.456-.924 0-1.884.084-2.364.168zm1.812-6.733c.144-.024.372-.048.78-.048.828 0 1.296.324 1.296.936 0 .6-.504.996-1.476.996h-.6zm0 3.192h.624c.912 0 1.644.324 1.644 1.128 0 .852-.732 1.176-1.56 1.176-.312 0-.528 0-.708-.024zm5.376 3.576h1.824V23.88c0-.144.012-.288.036-.408.12-.564.576-.924 1.248-.924.204 0 .348.024.492.048V20.88a2 2 0 0 0-.384-.036c-.576 0-1.284.36-1.584 1.224h-.048l-.072-1.08h-1.56c.036.504.048 1.068.048 1.932z" aria-label="Br" style="font-weight:700;font-family:&quot;Myriad Pro&quot;;-inkscape-font-specification:&quot;Myriad Pro Bold&quot;;white-space:pre;fill:#ffcca3;stroke-width:.200021" transform="translate(-20.45 -41.577)scale(3.22373)"/></svg>