<svg xmlns="http://www.w3.org/2000/svg" width="64" height="64"><defs><filter id="a" width="1.139" height="1.139" x="-.069" y="-.069" style="color-interpolation-filters:sRGB"><feGaussianBlur stdDeviation="1.559"/></filter></defs><rect width="56" height="56" x="4" y="4" rx="16.965" ry="16.965" style="fill:#502e8e"/><rect width="56" height="56" x="4" y="4" rx="16.965" ry="16.965" style="fill:none;stroke:#000;stroke-width:.3;stroke-dasharray:none;stroke-opacity:1;filter:url(#a)"/><path d="M14.405 18.444v27.112a4.04 4.04 45 0 0 4.04 4.039h27.11a3.975 3.975 135.932 0 0 4.04-3.91h-3.91v-3.91h-3.91v-3.91h-3.91v-3.91h-3.91v-3.91h-3.91v-3.91h-3.91v-3.91h-3.91v-3.91h-3.91v-3.91a3.975 3.975 134.068 0 0-3.91 4.04m7.82-.129h3.91v-3.91h-3.91zm3.91 0v3.91h3.91v-3.91zm3.91 3.91v3.91h3.91v-3.91zm3.91 0h3.91v-3.91h-3.91zm0 3.91v3.91h3.91v-3.91zm3.91 3.91v3.91h3.91v-3.91zm3.91 0h3.91v-3.91h-3.91zm3.91 0v3.91h3.91v-3.91zm0 3.91h-3.91v3.91h3.91zm0 3.91v3.91h3.91v-3.91Zm-3.91-19.55v3.91h3.91v-3.91z" style="fill:#c3a3ff;fill-opacity:1;stroke-width:.97749" transform="translate(1.669 1.669)scale(.94785)"/></svg>