<svg xmlns="http://www.w3.org/2000/svg" width="64" height="64"><defs><filter id="a" width="1.139" height="1.139" x="-.069" y="-.069" style="color-interpolation-filters:sRGB"><feGaussianBlur stdDeviation="1.559"/></filter></defs><rect width="56" height="56" x="4" y="4" rx="16.965" ry="16.965" style="fill:#2e8e4d;fill-opacity:1"/><rect width="56" height="56" x="4" y="4" rx="16.965" ry="16.965" style="fill:none;stroke:#000;stroke-width:.3;stroke-dasharray:none;stroke-opacity:1;filter:url(#a)"/><path d="M10.888 26.855h1.824v-3.252h2.904v-1.488h-2.904v-1.848h3.108v-1.5h-4.932zm6.012 0h1.824V23.88c0-.144.012-.288.036-.408.12-.564.576-.924 1.248-.924.204 0 .348.024.492.048V20.88a2 2 0 0 0-.384-.036c-.576 0-1.284.36-1.584 1.224h-.048l-.072-1.08h-1.56c.036.504.048 1.068.048 1.932z" aria-label="Fr" style="font-weight:700;font-family:&quot;Myriad Pro&quot;;-inkscape-font-specification:&quot;Myriad Pro Bold&quot;;white-space:pre;fill:#a3ffd0;stroke-width:.200021" transform="translate(-18.593 -41.538)scale(3.22373)"/></svg>