<svg xmlns="http://www.w3.org/2000/svg" width="64" height="64"><defs><filter id="a" width="1.139" height="1.139" x="-.069" y="-.069" style="color-interpolation-filters:sRGB"><feGaussianBlur stdDeviation="1.559"/></filter></defs><rect width="56" height="56" x="4" y="4" rx="16.965" ry="16.965" style="fill:#2b439c;fill-opacity:1"/><rect width="56" height="56" x="4" y="4" rx="16.965" ry="16.965" style="fill:none;stroke:#000;stroke-width:.3;stroke-dasharray:none;stroke-opacity:1;filter:url(#a)"/><g aria-label="Pl" style="font-weight:700;font-family:&quot;Myriad Pro&quot;;-inkscape-font-specification:&quot;Myriad Pro Bold&quot;;white-space:pre;fill:#59c9ff;stroke-width:.200021"><path d="M17.919 45.733h5.841v-9.362c.542.116 1.238.155 2.012.155 3.481 0 6.46-.89 8.472-2.747 1.586-1.43 2.398-3.636 2.398-6.19 0-2.552-1.083-4.719-2.785-6.034-1.74-1.393-4.333-2.089-7.97-2.089-3.597 0-6.15.232-7.968.542zm5.841-21.586c.426-.116 1.238-.193 2.399-.193 2.978 0 4.642 1.43 4.642 3.83 0 2.63-1.934 4.216-5.068 4.216-.89 0-1.47-.039-1.973-.155z"/><path d="M17.611 26.855h1.383v-6.46h-1.383z" style="font-size:9.0992px" transform="translate(-17.142 -40.842)scale(3.22373)"/></g></svg>