<svg xmlns="http://www.w3.org/2000/svg" width="64" height="64"><defs><filter id="a" width="1.139" height="1.139" x="-.069" y="-.069" style="color-interpolation-filters:sRGB"><feGaussianBlur stdDeviation="1.559"/></filter></defs><rect width="56" height="56" x="4" y="4" rx="16.965" ry="16.965" style="fill:#c55700;fill-opacity:1"/><rect width="56" height="56" x="4" y="4" rx="16.965" ry="16.965" style="fill:none;stroke:#000;stroke-width:.3;stroke-dasharray:none;stroke-opacity:1;filter:url(#a)"/><g stroke="none" aria-label="Fb" style="font-stretch:condensed;font-family:&quot;Myriad Pro&quot;;-inkscape-font-specification:&quot;Myriad Pro Condensed&quot;;white-space:pre;fill:none;stroke:#00cdff;stroke-width:.200021"><path d="M10.888 26.855h1.824v-3.252h2.904v-1.488h-2.904v-1.848h3.108v-1.5h-4.932z" style="font-weight:700;font-stretch:normal;-inkscape-font-specification:&quot;Myriad Pro Bold&quot;;fill:#ffcca3;stroke:none" transform="translate(-21.022 -41.538)scale(3.22373)"/><path d="M17.014 25.406c0 .546-.02 1.132-.04 1.45h1.28l.06-.676h.02c.337.576.893.785 1.459.785 1.112 0 2.213-.874 2.213-2.62.01-1.49-.833-2.453-1.995-2.453-.675 0-1.181.268-1.469.685h-.02v-2.77h-1.508Zm1.508-1.33c0-.1.01-.189.03-.278.1-.437.477-.744.884-.744.704 0 1.042.595 1.042 1.35 0 .873-.397 1.37-1.042 1.37-.437 0-.785-.318-.884-.715q-.03-.12-.03-.268z" style="font-weight:700;font-stretch:normal;font-size:9.9264px;-inkscape-font-specification:&quot;Myriad Pro Bold&quot;;fill:#ffcca3;stroke:none" transform="translate(-21.022 -41.538)scale(3.22373)"/></g></svg>