<svg xmlns="http://www.w3.org/2000/svg" width="64" height="64"><defs><clipPath id="a" clipPathUnits="userSpaceOnUse"><rect width="49.809" height="49.809" x="7.09" y="3.653" rx="15.09" ry="15.09" style="fill:#c51100;fill-opacity:1;stroke-width:.889454"/></clipPath><filter id="b" width="1.139" height="1.139" x="-.069" y="-.069" style="color-interpolation-filters:sRGB"><feGaussianBlur stdDeviation="1.559"/></filter></defs><rect width="56" height="56" x="4" y="4" rx="16.965" ry="16.965" style="fill:#c51100;fill-opacity:1"/><path d="M24.264 17.14 13.001 47.453a4.486 4.486 55.192 0 0 4.205 6.049h18.37l-2.072-6.677A3.585 3.585 36.38 0 0 30.08 44.3h-3.013a1.095 1.095 54.9 0 1-1.03-1.465l5.477-15.214a.523.523 179.757 0 1 .983-.004l8.018 21.693a6.41 6.41 34.858 0 0 6.016 4.19h.163a4.496 4.496 124.868 0 0 4.218-6.054L39.724 17.145a8.1 8.1 34.868 0 0-7.6-5.296h-.248a8.12 8.12 145.192 0 0-7.612 5.292" clip-path="url(#a)" style="fill:#fff;stroke-width:.721158" transform="translate(-3.972 -.107)scale(1.12429)"/><rect width="56" height="56" x="4" y="4" rx="16.965" ry="16.965" style="fill:none;stroke:#000;stroke-width:.3;stroke-dasharray:none;stroke-opacity:1;filter:url(#b)"/></svg>