<svg xmlns="http://www.w3.org/2000/svg" width="64" height="64"><defs><filter id="a" width="1.139" height="1.139" x="-.069" y="-.069" style="color-interpolation-filters:sRGB"><feGaussianBlur stdDeviation="1.559"/></filter></defs><rect width="56" height="56" x="4" y="4" rx="16.965" ry="16.965" style="fill:#2e8e8e;fill-opacity:1"/><rect width="56" height="56" x="4" y="4" rx="16.965" ry="16.965" style="fill:none;stroke:#000;stroke-width:.3;stroke-dasharray:none;stroke-opacity:1;filter:url(#a)"/><path d="m15.076 24.78.624 2.075h1.98l-2.52-8.088h-2.4l-2.46 8.088h1.884l.576-2.076zm-2.052-1.369.48-1.716c.132-.468.252-1.08.372-1.56h.024c.12.48.264 1.08.408 1.56l.504 1.716zm11.016-2.424h-1.824v3.492a1 1 0 0 1-.072.396.97.97 0 0 1-.912.636c-.648 0-.924-.516-.924-1.368v-3.156h-1.824v3.444c0 1.812.864 2.556 2.064 2.556 1.056 0 1.608-.6 1.836-.96h.036l.084.828h1.584a38 38 0 0 1-.048-1.884z" aria-label="Au" style="font-weight:700;font-family:&quot;Myriad Pro&quot;;-inkscape-font-specification:&quot;Myriad Pro Bold&quot;;white-space:pre;fill:#a3ffef;stroke-width:.200021" transform="translate(-23.429 -41.731)scale(3.22373)"/></svg>