<svg xmlns="http://www.w3.org/2000/svg" width="64" height="64"><defs><filter id="a" width="1.139" height="1.139" x="-.069" y="-.069" style="color-interpolation-filters:sRGB"><feGaussianBlur stdDeviation="1.559"/></filter></defs><rect width="56" height="56" x="4" y="4" rx="16.965" ry="16.965" style="fill:#c55700;fill-opacity:1"/><rect width="56" height="56" x="4" y="4" rx="16.965" ry="16.965" style="fill:none;stroke:#000;stroke-width:.3;stroke-dasharray:none;stroke-opacity:1;filter:url(#a)"/><path d="m15.076 24.78.624 2.075h1.98l-2.52-8.088h-2.4l-2.46 8.088h1.884l.576-2.076zm-2.052-1.369.48-1.716c.132-.468.252-1.08.372-1.56h.024c.12.48.264 1.08.408 1.56l.504 1.716zm7.416 3.444v-5.868h-1.824v5.868zm-.9-8.412c-.588 0-.972.396-.972.912 0 .504.372.912.948.912.612 0 .984-.408.984-.912-.012-.516-.372-.912-.96-.912" aria-label="Ai" style="font-weight:700;font-family:&quot;Myriad Pro&quot;;-inkscape-font-specification:&quot;Myriad Pro Bold&quot;;white-space:pre;fill:#ffcca3;stroke-width:.200021" transform="translate(-17.645 -41.016)scale(3.22373)"/></svg>