<svg xmlns="http://www.w3.org/2000/svg" width="64" height="64"><defs><filter id="a" width="1.141" height="1.141" x="-.071" y="-.071" style="color-interpolation-filters:sRGB"><feGaussianBlur stdDeviation="1.606"/></filter><filter id="b" width="1.154" height="1.189" x="-.077" y="-.095" style="color-interpolation-filters:sRGB"><feGaussianBlur stdDeviation="1.328"/></filter></defs><rect width="56" height="56" x="4" y="4" rx="17.521" ry="17.521" style="fill:#16a1db"/><rect width="56" height="56" x="4" y="4" rx="17.521" ry="17.521" style="fill:none;stroke:#000;stroke-opacity:1;filter:url(#a);stroke-width:.19999998;stroke-dasharray:none"/><path d="M20.678 15.82 16 21.5l-4.678 5.68a1.724 1.724 64.736 0 0 1.33 2.82h1.994A1.354 1.354 45 0 1 16 31.354v14.25A4.397 4.397 45 0 0 20.397 50h5.206A4.397 4.397 135 0 0 30 45.603v-14.25A1.354 1.354 135 0 1 31.354 30h1.993a1.724 1.724 115.264 0 0 1.331-2.82L30 21.5l-4.678-5.68a3.008 3.008 0 0 0-4.644 0" style="fill:#fff"/><path d="M42-22.516v-8.151A1.333 1.333 45 0 0 40.667-32h-1.595a1.303 1.303 65.595 0 1-.981-2.162L41.1-37.6l3.008-3.438a2.514 2.514 180 0 1 3.784 0L50.9-37.6l3.01 3.438A1.303 1.303 114.405 0 1 52.927-32h-1.595A1.333 1.333 135 0 0 50-30.667v8.151A2.516 2.516 135 0 1 47.484-20h-2.968A2.516 2.516 45 0 1 42-22.516" style="fill:#a2cced" transform="scale(1 -1)"/><path d="M22.968 14.733a3 3 0 0 0-2.32 1.096l-4.68 5.68-4.677 5.68a1.724 1.724 0 0 0 1.332 2.82h1.992a1.354 1.354 0 0 1 1.353 1.355v14.248a4.397 4.397 0 0 0 4.397 4.396h5.207a4.397 4.397 0 0 0 4.396-4.396V31.364a1.354 1.354 0 0 1 1.356-1.356h1.992a1.724 1.724 0 0 0 1.332-2.818l-4.68-5.682-4.677-5.68a3 3 0 0 0-2.323-1.095Zm21.518 5.275a2.516 2.516 0 0 0-2.518 2.518v8.15a1.333 1.333 0 0 1-1.332 1.332h-1.595a1.303 1.303 0 0 0-.98 2.162l3.007 3.438 3.01 3.44a2.514 2.514 0 0 0 3.783 0l3.008-3.44 3.01-3.438a1.303 1.303 0 0 0-.98-2.162h-1.597a1.333 1.333 0 0 1-1.334-1.332v-8.15a2.516 2.516 0 0 0-2.515-2.518z" style="fill:none;stroke:#0021ff;stroke-opacity:1;stroke-width:.3;stroke-dasharray:none;filter:url(#b)"/></svg>