<svg xmlns="http://www.w3.org/2000/svg" xmlns:xlink="http://www.w3.org/1999/xlink" width="64" height="64"><defs><radialGradient xlink:href="#a" id="c" cx="32" cy="53" r="14" fx="32" fy="53" gradientTransform="matrix(1 0 0 .5 0 26.5)" gradientUnits="userSpaceOnUse"/><radialGradient xlink:href="#b" id="d" cx="26.09" cy="28.732" r="14" fx="26.09" fy="28.732" gradientTransform="rotate(60 68.817 -23.963)scale(3.23524 1.61762)" gradientUnits="userSpaceOnUse"/><linearGradient id="b"><stop offset="0" style="stop-color:#fff327;stop-opacity:1"/><stop offset="1" style="stop-color:#fcae65;stop-opacity:1"/></linearGradient><linearGradient id="a"><stop offset="0" style="stop-color:#e4e4e4;stop-opacity:1"/><stop offset="1" style="stop-color:#dadada;stop-opacity:1"/></linearGradient><filter id="e" width="1.118" height="1.121" x="-.059" y="-.062" style="color-interpolation-filters:sRGB"><feGaussianBlur stdDeviation="1.322"/></filter></defs><path d="m12 43-2-8-3 3-3-20s12 11 28 11 28-11 28-11l-3 20-3-3-2 8-6-8H18z" style="fill:#323232"/><path d="m18 49 6 11 8-9 8 9 6-11v-3H18z" style="fill:url(#c)"/><path d="M15 4v41.209c0 2.094 1.553 4.496 3.565 5.07C21.425 51.095 25.958 52 32 52s10.576-.905 13.436-1.721c2.01-.574 3.564-2.976 3.564-5.07V4l-9.607 12.228A4.64 4.64 154.079 0 1 35.746 18h-7.492a4.64 4.64 25.921 0 1-3.647-1.772z" style="fill:#96f"/><path d="M25 32a7 7 0 0 0-7 7 7 7 0 0 0 7 7 7 7 0 0 0 7-7 7 7 0 0 0-7-7m7 7a7 7 0 0 0 7 7 7 7 0 0 0 7-7 7 7 0 0 0-7-7 7 7 0 0 0-7 7" style="fill:url(#d);fill-opacity:1"/><path d="m14.998 3.863 9.738 12.535a4.3 4.3 26.08 0 0 3.392 1.66h7.842a4.33 4.33 154.08 0 0 3.401-1.652l9.627-12.252v41.12c0 2.042-1.532 4.344-3.492 4.915-5.485 1.598-11.326 1.927-17.01 1.66-3.069-.18-6.634-.694-9.264-1.474-.511-.213-1.037-.415-1.546-.693.309.277.624.54.935.771.45.335.8.797.977 1.498l4.441 8.143 7.154-8.05c1.732-.562 2.516.946 3.508 2.022l5.358 6.028 5.203-9.533c-1.35 1.985-2.421 4.369-3.664 6.507l-1.559 2.854-7.006-7.879c4.231-.103 8.522-.547 12.588-1.752 1.958-.58 3.479-2.908 3.479-4.951v-6.18l2.972 3.961 2.004-8.016 3.008 3.008 3.035-20.236c-3.307 2.866-7.071 5.183-11.02 7.055V3.863l-9.775 12.44a4.33 4.33 154.08 0 1-3.401 1.654h-7.748a4.33 4.33 25.92 0 1-3.402-1.653zm0 0v20.059c0 .475-.3.734-.701.65.487.476.776 1.03.701 1.717V38.99l-2.926 3.905-1.996-7.985-2.992 2.992-2.938-19.57c-.062.1-.073.282-.013.574l2.88 19.207 3.008-3.008 2.004 8.016 2.973-3.96c.005.774.021 1.548.037 2.321-.044-10.756.065-37.474.065-37.474l-.09.031zm.037 37.62c.01 2.596.026 4.54.059 4.632.608 2.106 1.565 3.005 2.592 3.567-1.316-1.179-2.504-2.728-2.553-4.381a412 412 0 0 1-.098-3.819zM4.146 18.331c.039-.062.1-.088.176-.09-.07-.064-.168-.145-.218-.197zm.176-.09c.718.65 2.271 1.791 3.414 2.602-1.218-1.016-2.825-2.614-3.414-2.602Zm3.414 2.602c.438.365.825.654 1.092.76a47 47 0 0 1-1.092-.76Zm1.092.76c.027.017.077.053.096.064.03.046.109.117.293.223.28.16.594.314.926.466-.336-.215-.627-.408-.864-.562-.245-.16-.374-.198-.379-.16-.021-.007-.048-.022-.072-.031zm1.315.753c.779.501 1.907 1.176 3.943 2.145a1 1 0 0 0 .21.07c-.964-.94-2.727-1.56-4.153-2.215zm49.837-4.234-2.966 19.78-2.993-2.993-1.996 7.985c-.934-1.376-2.173-2.649-2.925-4.084V25.04c3.893-1.838 7.609-4.11 10.88-6.918zM25.05 31.957c-4.859-.21-8.56 5.398-6.5 9.783 1.613 4.263 7.584 5.697 10.984 2.71 1.593-.486 2.465-4.866 2.61-4.022.766 4.77 6.924 7.286 10.816 4.445 3.887-2.396 4.199-8.584.535-11.336-3.597-3.186-9.943-1.282-11.178 3.373-.344 3.02-.716-2.448-2.283-2.887-1.305-1.305-3.135-2.076-4.984-2.066zm0 .102c4.79-.208 8.449 5.324 6.402 9.654-1.673 4.42-8.099 5.71-11.316 2.209-3.495-3.217-2.227-9.647 2.209-11.317a6.9 6.9 0 0 1 2.705-.546zm14 0c4.79-.208 8.449 5.324 6.402 9.654-1.673 4.42-8.099 5.71-11.316 2.209-3.495-3.217-2.227-9.647 2.209-11.317a6.9 6.9 0 0 1 2.705-.546zM18.865 50.404c3.97 1.091 8.088 1.565 12.198 1.639l-7.004 7.879z" style="stroke:#000;stroke-width:.2;filter:url(#e)"/></svg>