<svg xmlns="http://www.w3.org/2000/svg" xmlns:xlink="http://www.w3.org/1999/xlink" width="64" height="64"><defs><filter id="c" width="1.141" height="1.141" x="-.071" y="-.071" style="color-interpolation-filters:sRGB"><feGaussianBlur stdDeviation="1.585"/></filter><filter id="d" width="1.094" height="1.627" x="-.047" y="-.313" style="color-interpolation-filters:sRGB"><feGaussianBlur stdDeviation=".721"/></filter><radialGradient xlink:href="#a" id="b" cx="3.799" cy="3.545" r="28" fx="3.799" fy="3.545" gradientTransform="rotate(90 8.693 3.375)scale(2.33288)" gradientUnits="userSpaceOnUse"/><linearGradient id="a"><stop offset="0" style="stop-color:#f90;stop-opacity:.99995983"/><stop offset="1" style="stop-color:#ff4d3f;stop-opacity:.99995983"/></linearGradient></defs><circle cx="32" cy="32" r="28" style="fill:url(#b)"/><path d="M14.93 29h34.14A2.93 2.93 45 0 1 52 31.93v.14A2.93 2.93 135 0 1 49.07 35H14.93A2.93 2.93 45 0 1 12 32.07v-.14A2.93 2.93 135 0 1 14.93 29" style="fill:#fff"/><circle cx="32" cy="32" r="28" style="fill:none;stroke:#000;stroke-opacity:1;stroke-width:.29999992;stroke-dasharray:none;filter:url(#c)"/><path d="M15.008 29h33.984A3.01 3.01 45 0 1 52 32.008 3 3 135.144 0 1 48.992 35H15.008A3.01 3.01 45 0 1 12 31.992 3 3 135.144 0 1 15.008 29Z" style="fill:none;stroke:red;stroke-width:.3;stroke-opacity:1;filter:url(#d)"/></svg>