<svg xmlns="http://www.w3.org/2000/svg" xmlns:xlink="http://www.w3.org/1999/xlink" width="64" height="64"><defs><filter id="c" width="1.095" height="1.162" x="-.048" y="-.081" style="color-interpolation-filters:sRGB"><feGaussianBlur stdDeviation=".834"/></filter><filter id="d" width="1.191" height="1.191" x="-.095" y="-.095" style="color-interpolation-filters:sRGB"><feGaussianBlur stdDeviation=".834"/></filter><filter id="e" width="1.35" height="1.35" x="-.175" y="-.175" style="color-interpolation-filters:sRGB"><feGaussianBlur stdDeviation=".834"/></filter><radialGradient xlink:href="#a" id="b" cx="26.519" cy="29.09" r="18.454" fx="26.519" fy="29.09" gradientTransform="matrix(2.95309 0 0 3.2268 -61.304 -70.323)" gradientUnits="userSpaceOnUse"/><linearGradient id="a"><stop offset="0" style="stop-color:#ff99ba;stop-opacity:1"/><stop offset="1" style="stop-color:#e14377;stop-opacity:1"/></linearGradient></defs><path d="m27.785 50.59-11.058-6.384a7.21 7.21 60 0 1-3.603-6.242V25.196a7.21 7.21 120 0 1 3.603-6.242l11.058-6.384a7.21 7.21 180 0 1 7.207 0l11.057 6.384a7.21 7.21 60 0 1 3.604 6.242v12.768a7.21 7.21 120 0 1-3.604 6.242L34.992 50.59a7.21 7.21 180 0 1-7.207 0" style="opacity:1;fill:url(#b);fill-opacity:1;stroke:none;stroke-width:.377953;stroke-linecap:round;stroke-linejoin:round;stroke-miterlimit:2.1;paint-order:markers stroke fill" transform="rotate(30 59.18 17.037)scale(1.37762)"/><path d="M32.16 18.404c-12.955 0-23.03 10.584-23.03 13.856 0 4.289 10.075 13.36 23.03 13.36 12.954 0 23.03-10.584 23.03-13.36 0-3.272-10.076-13.856-23.03-13.856" style="fill:#fff;stroke-width:1.04681"/><circle cx="32.16" cy="32.012" r="11.515" style="fill:#1b87e6;stroke-width:1.04681"/><circle cx="32.16" cy="32.012" r="6.281" style="fill:#3f3f3f;stroke-width:1.04681"/><path d="m27.785 50.59-11.058-6.384a7.21 7.21 60 0 1-3.603-6.242V25.196a7.21 7.21 120 0 1 3.603-6.242l11.058-6.384a7.21 7.21 180 0 1 7.207 0l11.057 6.384a7.21 7.21 60 0 1 3.604 6.242v12.768a7.21 7.21 120 0 1-3.604 6.242L34.992 50.59a7.21 7.21 180 0 1-7.207 0" style="fill:none;fill-opacity:1;stroke:#000;stroke-width:0;stroke-linecap:round;stroke-linejoin:round;stroke-miterlimit:2.1;stroke-dasharray:none;stroke-opacity:1;paint-order:markers stroke fill" transform="rotate(30 58.902 17.146)scale(1.37762)"/><path d="M32 19.123c-12.375 0-22 10.11-22 13.237 0 4.096 9.625 12.763 22 12.763S54 35.012 54 32.36c0-3.126-9.625-13.237-22-13.237z" style="mix-blend-mode:normal;fill:none;stroke:#000;stroke-width:.2;stroke-dasharray:none;stroke-opacity:1;filter:url(#c)" transform="translate(-1.338 -1.486)scale(1.04681)"/><circle cx="32" cy="32.123" r="11" style="mix-blend-mode:normal;fill:none;stroke:#000;stroke-width:.2;stroke-dasharray:none;stroke-opacity:1;filter:url(#d)" transform="translate(-1.338 -1.486)scale(1.04681)"/><circle cx="32" cy="32.123" r="6" style="mix-blend-mode:normal;fill:none;stroke:#000;stroke-width:.2;stroke-dasharray:none;stroke-opacity:1;filter:url(#e)" transform="translate(-1.338 -1.486)scale(1.04681)"/></svg>