<svg xmlns="http://www.w3.org/2000/svg" xmlns:xlink="http://www.w3.org/1999/xlink" width="64" height="64"><defs><filter id="d" width="1.139" height="1.067" x="-.069" y="-.033" style="color-interpolation-filters:sRGB"><feGaussianBlur stdDeviation=".614"/></filter><filter id="c" width="1.143" height="1.143" x="-.071" y="-.071" style="color-interpolation-filters:sRGB"><feGaussianBlur stdDeviation="1.602"/></filter><radialGradient xlink:href="#a" id="b" cx="16.59" cy="47.025" r="28" fx="16.59" fy="47.025" gradientTransform="rotate(-15 -304.132 213.707)scale(2.80794)" gradientUnits="userSpaceOnUse"/><linearGradient id="a"><stop offset="0" style="stop-color:#5894e2;stop-opacity:1"/><stop offset="1" style="stop-color:#4b19ae;stop-opacity:1"/></linearGradient></defs><circle cx="32" cy="32" r="28" style="fill:url(#b)"/><path d="M31.762 6.814c-1.035.039-1.952.23-2.473.516l-8.037 4.416c-1.103.609-.026 1.382 2.135 1.533a10.57 10.57 0 0 0-2.03 6.233c0 5.018 3.507 9.244 8.194 10.355v9.115a.7.7 0 0 0-.15.01 4.51 4.51 0 0 0-3.686 4.393 4.51 4.51 0 0 0 3.69 4.459l.005-.072q.06.048.127.083l.014-.002v3.782c0 1.32 1.08 2.399 2.4 2.398a2.406 2.406 0 0 0 2.399-2.398V40.666c3.578-.58 6.396-3.115 6.396-6.277s-2.82-5.698-6.396-6.278v-13.62a1.186 1.186 135 0 1 1.186-1.186h4.661c2.522 0 4.099-.866 2.84-1.559L34.998 7.33c-.658-.361-1.93-.564-3.236-.516m-3.717 6.49h.32a1.186 1.186 45 0 1 1.186 1.187v12.474a7.82 7.82 0 0 1-5.393-7.453c0-2.227.919-4.23 2.398-5.653.337-.325 1.02-.554 1.49-.554m6.305 17.637c1.938.51 3.767 1.895 3.767 3.448s-1.83 2.94-3.767 3.449zm-4.8 10.543v3.868c-.809-.275-1.632-1.04-1.625-1.956.006-.906.827-1.64 1.626-1.912" style="fill:#fff;stroke-linecap:round;stroke-linejoin:round;stroke-miterlimit:2.1;paint-order:markers stroke fill" transform="translate(.073 1.776)"/><circle cx="31.978" cy="32.031" r="28" style="fill:none;fill-opacity:1;stroke:#010101;stroke-opacity:1;stroke-width:.29999991;stroke-dasharray:none;filter:url(#c)"/><path d="M31.762 6.814c-1.035.039-1.952.23-2.473.516l-8.037 4.416c-1.103.609-.026 1.382 2.135 1.533a10.57 10.57 0 0 0-2.03 6.233c0 5.018 3.507 9.244 8.194 10.355v9.115a.7.7 0 0 0-.15.01 4.51 4.51 0 0 0-3.686 4.393 4.51 4.51 0 0 0 3.69 4.459l.005-.072q.06.048.127.083l.014-.002v3.782c0 1.32 1.08 2.399 2.4 2.398a2.406 2.406 0 0 0 2.399-2.398V40.666c3.578-.58 6.396-3.115 6.396-6.277s-2.82-5.698-6.396-6.278v-13.62a1.186 1.186 135 0 1 1.186-1.186h4.661c2.522 0 4.099-.866 2.84-1.559L34.998 7.33c-.658-.361-1.93-.564-3.236-.516m-3.717 6.49h.32a1.186 1.186 45 0 1 1.186 1.187v12.474a7.82 7.82 0 0 1-5.393-7.453c0-2.227.919-4.23 2.398-5.653.337-.325 1.02-.554 1.49-.554m6.305 17.637c1.938.51 3.767 1.895 3.767 3.448s-1.83 2.94-3.767 3.449zm-4.8 10.543v3.868c-.809-.275-1.632-1.04-1.625-1.956.006-.906.827-1.64 1.626-1.912" style="fill:none;stroke-linecap:round;stroke-linejoin:round;stroke-miterlimit:2.1;paint-order:markers stroke fill;fill-opacity:1;stroke:#0005ff;stroke-opacity:1;stroke-width:.2;stroke-dasharray:none;filter:url(#d)" transform="translate(.05 1.806)"/></svg>