<svg xmlns="http://www.w3.org/2000/svg" xmlns:xlink="http://www.w3.org/1999/xlink" width="64" height="64"><defs><radialGradient xlink:href="#a" id="d" cx="32.001" cy="31.148" r="21.487" fx="32.001" fy="31.148" gradientTransform="matrix(1 0 0 1.08025 0 -2.5)" gradientUnits="userSpaceOnUse"/><radialGradient xlink:href="#b" id="c" cx="32.001" cy="49.189" r="6.876" fx="32.001" fy="49.189" gradientUnits="userSpaceOnUse"/><linearGradient id="b"><stop offset="0" style="stop-color:#2191ad;stop-opacity:1"/><stop offset="1" style="stop-color:#216fad;stop-opacity:1"/></linearGradient><linearGradient id="a"><stop offset="0" style="stop-color:#3bc9ec;stop-opacity:1"/><stop offset="1" style="stop-color:#279bcc;stop-opacity:1"/></linearGradient><filter id="e" width="1.171" height="1.153" x="-.085" y="-.076" style="color-interpolation-filters:sRGB"><feGaussianBlur stdDeviation="1.533"/></filter></defs><circle cx="32.001" cy="49.189" r="6.876" style="fill:url(#c);stroke-width:.859467"/><path d="M30.066 48.33a.643.643 0 0 0-.644.645v3.867c0 .357.287.645.644.645h1.29c.357 0 .644-.803.644-1.16 0 .357.288 1.16.645 1.16h1.289a.643.643 0 0 0 .645-.645v-3.867a.643.643 0 0 0-.645-.645h-1.29a.643.643 0 0 0-.644.645.643.643 0 0 0-.644-.645z" style="fill:#fff;stroke-width:.859467"/><path d="M12.142 7.945a2 2 0 0 0-.49.017 1.1 1.1 0 0 0-.5.215c-1.129.894-.776 4.448 1.178 11.84 1.096 4.146 2 6.352 3.556 8.69 1.022 1.535 1.515 2.119 3.203 3.787 1.511 1.665 3.419 3.993 3.458 5.952-.434 3.868-3.266 5.893-3.438 9.186 0 3.986 1.858 6.714 5.845 6.714 2.5.25 4.808-2.986 7.047-3.438 2.239.452 4.546 3.688 7.047 3.438 3.987 0 5.845-2.728 5.845-6.714-.172-3.293-3.004-5.318-3.438-9.186.039-1.96 1.947-4.287 3.458-5.952 1.688-1.668 2.181-2.252 3.203-3.787 1.556-2.338 2.46-4.544 3.555-8.69 1.955-7.392 2.308-10.946 1.179-11.84a1.1 1.1 0 0 0-.5-.215 2 2 0 0 0-.49-.017c-.543.046-1.242.28-2.116.705-1.732.845-3.426 2.09-5.335 3.928-2.863 2.757-3.886 4.338-7.258 11.2-1.007 2.045-2.243 4.032-3.754 6.204-.439.303-1.396.3-1.396.3s-.958.003-1.397-.3c-1.51-2.172-2.746-4.16-3.753-6.204-3.372-6.862-4.395-8.443-7.259-11.2-1.908-1.837-3.602-3.083-5.334-3.928-.874-.426-1.573-.66-2.116-.705" style="fill:url(#d);stroke-width:.859467"/><path d="M14.973 13.926c.003.223-.025.306.006.615.143 1.444.617 3.744 1.447 6.883.92 3.48 1.575 5.055 2.789 6.879h-.002c.844 1.269 1.068 1.528 2.496 2.94l.041.038.035.043c.61.673 1.361 1.449 2.016 2.36a10.4 10.4 0 0 1 3.883-2.727c-1.048-1.692-1.903-3.423-2.602-4.842v-.002c-2.89-5.884-3.475-6.804-5.838-9.08-1.542-1.485-2.823-2.412-4.072-3.021-.172-.084-.061-.036-.2-.086m34.02.345c-.09.04-.094.024-.198.075-1.247.608-2.525 1.534-4.065 3.017-2.359 2.272-2.942 3.189-5.828 9.063v.002c-.698 1.417-1.553 3.147-2.6 4.838a10.36 10.36 0 0 1 3.88 2.72c.653-.91 1.4-1.685 2.01-2.357l.037-.043.04-.037c1.426-1.41 1.648-1.669 2.49-2.936h-.001c1.211-1.82 1.867-3.393 2.785-6.867.828-3.134 1.3-5.43 1.443-6.871.03-.303.003-.383.006-.604" style="opacity:.3;stroke-width:.740047"/><path d="M32 50.908c-2.213-.17-4.114-2.635-3.205-3.85A4.5 4.5 0 0 1 32 45.753a4.5 4.5 0 0 1 3.206 1.307c.908 1.214-.992 3.68-3.206 3.85" style="fill:#bf3667;stroke-width:.859467"/><path d="M24.03 38.876c-1.635 0-1.48 1.154-1.48 2.578s2.36 2.579 3.995 2.579c1.923 0 1.686-4.722-2.515-5.157m15.942 0c-4.201.435-4.44 5.157-2.516 5.157 1.634 0 3.995-1.155 3.995-2.579s.155-2.578-1.479-2.578" style="fill:#fff;stroke-width:.859467"/><path d="M26.414 41.454a1.29 1.29 0 0 0-1.29 1.29 1.29 1.29 0 0 0 1.29 1.289 1.29 1.29 0 0 0 1.289-1.29 1.29 1.29 0 0 0-1.29-1.289m11.173 0a1.29 1.29 0 0 0-1.29 1.29 1.29 1.29 0 0 0 1.29 1.289 1.29 1.29 0 0 0 1.289-1.29 1.29 1.29 0 0 0-1.29-1.289" style="fill:#323232;stroke-width:.859467"/><path d="M11.9 7.879a2 2 0 0 0-.24.025q-.303.054-.521.225c-.296.234-.49.637-.586 1.219-.097.581-.096 1.343 0 2.308.192 1.93.768 4.67 1.746 8.367 1.096 4.148 2.003 6.361 3.562 8.704 1.023 1.536 1.521 2.124 3.21 3.793 1.509 1.663 3.404 3.993 3.443 5.92-.218 1.918-1.028 3.382-1.81 4.78-.785 1.402-1.543 2.741-1.63 4.401v.002c0 2 .467 3.692 1.44 4.885.971 1.19 2.45 1.877 4.45 1.879.693.069 1.367-.124 2.026-.448a6.9 6.9 0 0 0 5.028 2.168 6.9 6.9 0 0 0 5.029-2.168c.659.324 1.332.517 2.023.448 2.002-.002 3.48-.688 4.451-1.88.973-1.192 1.44-2.883 1.44-4.884v-.002c-.087-1.66-.843-2.999-1.627-4.4-.782-1.4-1.593-2.863-1.81-4.782.038-1.926 1.931-4.256 3.44-5.92l.003-.001c1.686-1.667 2.185-2.256 3.207-3.791 1.559-2.343 2.466-4.556 3.562-8.704.978-3.697 1.554-6.437 1.746-8.367.097-.965.097-1.727 0-2.308-.096-.582-.288-.985-.584-1.22a1.15 1.15 0 0 0-.521-.224 2 2 0 0 0-.504-.017c-.553.046-1.256.283-2.133.71-1.738.848-3.438 2.098-5.35 3.938-2.866 2.76-3.895 4.35-7.267 11.213-1.004 2.038-2.238 4.02-3.744 6.188-.206.14-.545.215-.834.252-.29.036-.527.035-.527.035s-.237.001-.528-.035c-.289-.037-.628-.113-.834-.252-1.506-2.167-2.74-4.15-3.744-6.188-3.372-6.863-4.401-8.453-7.267-11.213-1.911-1.84-3.61-3.09-5.348-3.937-.877-.428-1.58-.665-2.133-.711a2 2 0 0 0-.264-.008m.004.101q.12-.004.252.008c.532.045 1.227.275 2.098.7 1.726.841 3.414 2.082 5.32 3.917 2.861 2.755 3.877 4.325 7.248 11.186 1.009 2.048 2.247 4.04 3.758 6.213l.006.006.006.006c.233.16.589.234.887.271.297.037.539.037.539.037s.241 0 .539-.037c.297-.037.653-.11.886-.271l.006-.006.008-.006c1.512-2.173 2.75-4.165 3.758-6.213 3.371-6.861 4.387-8.43 7.248-11.186 1.906-1.835 3.596-3.076 5.322-3.918.87-.424 1.566-.654 2.098-.699q.265-.024.476.014.284.05.479.205c.269.213.455.59.549 1.158s.095 1.322 0 2.281c-.192 1.92-.77 4.655-1.746 8.35-1.096 4.143-1.994 6.343-3.547 8.676-1.021 1.533-1.51 2.11-3.198 3.777l-.003.002c-1.513 1.667-3.431 3.994-3.471 5.985v.003l.004.004c.218 1.945 1.038 3.425 1.822 4.827.784 1.401 1.528 2.723 1.613 4.355 0 1.984-.463 3.65-1.416 4.818-.953 1.169-2.396 1.844-4.379 1.844h-.004l-.003.002c-.657.066-1.3-.119-1.938-.428-.535-.26-1.065-.608-1.59-.98-.303-.214-.606-.437-.906-.652l-.055-.04a19 19 0 0 0-.816-.56l-.049-.03-.059-.036a9 9 0 0 0-.296-.176l-.069-.037a6 6 0 0 0-.379-.198l-.03-.013a5 5 0 0 0-.393-.16h-.002l-.045-.016q-.07-.024-.141-.043c1.02-.162 1.945-.786 2.54-1.522.322-.4.547-.833.634-1.248.087-.414.034-.812-.203-1.129l-.002-.003-.002-.002a4.56 4.56 0 0 0-3.24-1.323 4.56 4.56 0 0 0-3.24 1.323l-.003.002-.002.003c-.237.317-.29.715-.203 1.13s.312.848.635 1.247c.594.735 1.52 1.357 2.54 1.52l-.141.045-.045.016q-.197.069-.395.16l-.031.013q-.19.09-.38.198h-.001l-.025.013h-.002q-.009.005-.01.008h-.002q-.015.007-.027.016a9 9 0 0 0-.297.175l-.059.038-.049.029c-.27.173-.543.365-.816.56l-.031.022-.024.018c-.303.218-.607.441-.914.658-.522.37-1.048.716-1.58.974-.637.31-1.283.494-1.94.428l-.003-.002h-.002c-1.982 0-3.426-.675-4.38-1.844-.953-1.168-1.415-2.835-1.415-4.82.086-1.631.831-2.953 1.615-4.353.784-1.402 1.604-2.882 1.822-4.827l.002-.004v-.003c-.04-1.991-1.96-4.318-3.472-5.985l-.002-.002c-1.687-1.667-2.177-2.244-3.198-3.777-1.553-2.333-2.451-4.533-3.547-8.676-.976-3.695-1.553-6.43-1.744-8.35-.095-.96-.094-1.713 0-2.28.094-.568.28-.946.55-1.159q.195-.154.478-.205.105-.018.224-.022m15.012 45.881.059-.03-.06.028zm.059-.03q.283-.142.564-.311a8 8 0 0 1-.539.294zm10.146.03.002-.002-.06-.029zM14.943 13.848l-.004.07c.004.22-.023.309.008.621.144 1.45.618 3.75 1.448 6.89a43 43 0 0 0 .82 2.778c.253.752.508 1.41.783 1.998.04.084.08.162.121.244.2.412.407.81.64 1.196q.182.298.384.6h-.006l.052.077c.845 1.27 1.074 1.536 2.502 2.948l.04.037.035.043c.611.673 1.36 1.448 2.011 2.355l.037.05.041-.046a10.3 10.3 0 0 1 3.866-2.713l.054-.023-.03-.05c-1.044-1.685-1.897-3.408-2.595-4.825v-.004l-.005-.008v-.002c-1.465-2.982-2.339-4.687-3.153-5.945-.19-.293-.376-.566-.566-.82a14 14 0 0 0-.783-.946l-.118-.129a27 27 0 0 0-1.228-1.254c-.406-.39-.792-.74-1.166-1.058l-.012-.008c-.334-.284-.66-.547-.974-.78-.02-.014-.038-.024-.057-.039a12.4 12.4 0 0 0-1.877-1.146c-.075-.036-.075-.033-.088-.04-.017-.007-.038-.02-.115-.048zm2.272 10.359c-.058-.17-.116-.333-.174-.516l.008.028c.055.175.11.324.166.488M15.04 13.994c.017.006.014 0 .127.055 1.243.606 2.519 1.528 4.059 3.012a23 23 0 0 1 1.554 1.617l.004.004c1.26 1.472 2.136 3.102 4.264 7.433v.004l.006.008v.002c.692 1.405 1.542 3.12 2.578 4.799a10.4 10.4 0 0 0-3.809 2.677c-.648-.893-1.383-1.66-1.982-2.32l-.002-.002-.035-.043-.043-.04v-.003c-1.42-1.404-1.645-1.663-2.48-2.918l-.009-.011q-.237-.358-.449-.711c-.294-.49-.554-.989-.799-1.528l-.013-.027a18 18 0 0 1-.52-1.283l-.01-.028q-.195-.544-.39-1.18l-.006-.017a53 53 0 0 1-.594-2.092c-.83-3.138-1.304-5.436-1.447-6.875-.027-.266-.007-.361-.004-.533m33.969.215-.02.008c-.042.018-.061.023-.088.031a1 1 0 0 0-.111.045c-1.253.61-2.536 1.542-4.078 3.027-2.361 2.274-2.952 3.202-5.838 9.076v.002l-.006.008v.004c-.697 1.416-1.55 3.139-2.592 4.822l-.03.05.054.023a10.3 10.3 0 0 1 3.861 2.707l.041.047.037-.051c.651-.907 1.395-1.68 2.006-2.354l.035-.04.041-.036v-.002c1.426-1.41 1.653-1.676 2.496-2.943l.053-.078h-.014c1.183-1.794 1.846-3.375 2.752-6.803.829-3.135 1.3-5.431 1.444-6.879.03-.307.005-.393.008-.61v-.03zm-.051.125c.002.172.022.263-.004.527-.143 1.437-.615 3.731-1.443 6.864-.918 3.471-1.569 5.037-2.778 6.853l-.007.012c-.835 1.253-1.056 1.513-2.475 2.916l-.041.037-.04.045c-.598.66-1.33 1.427-1.978 2.32a10.4 10.4 0 0 0-3.804-2.67c1.034-1.677 1.885-3.393 2.576-4.797v-.002l.006-.007v-.004c2.213-4.505 3.074-6.085 4.422-7.606l.01-.011c.401-.453.84-.9 1.38-1.42a27 27 0 0 1 1.006-.916l-.064.054c.055-.048.111-.1.166-.146q.237-.203.466-.387c-.101.082-.208.177-.312.264q.354-.296.693-.553c-.108.082-.214.154-.324.242.246-.196.483-.373.719-.54-.034.023-.07.053-.104.077a14 14 0 0 1 .809-.55l.008-.004.011-.008.07-.043.007-.004q.455-.278.9-.494a1 1 0 0 1 .096-.04c.007-.001.02-.007.029-.009m-1.93 1.152c-.037.027-.072.047-.11.075-.058.043-.121.1-.18.146.097-.074.195-.151.29-.22m-.984.774c-.053.044-.101.077-.154.123-.033.028-.07.063-.102.092q.129-.11.256-.215M23.889 38.8l.027.021c-.347.015-.616.084-.816.205a1.06 1.06 0 0 0-.454.578c-.171.483-.13 1.13-.13 1.84 0 .694.534 1.313 1.261 1.776q.235.146.493.258a5.7 5.7 0 0 0 1.863.562 1.3 1.3 0 0 0 .365.031l.064.004c.007 0 .01-.006.014-.01h.004c-.006.003-.01.01-.017.01.378 0 .68-.182.884-.469a1.34 1.34 0 0 0 .319-1.011v-.004q.014-.27-.028-.559v-.004a3.4 3.4 0 0 0-.133-.566q0-.007-.007-.03l-.008-.017a3.6 3.6 0 0 0-.24-.56l-.008-.016-.002-.002a4 4 0 0 0-.174-.285l-.002-.002-.002-.002-.004-.008h-.002l-.002-.004a4 4 0 0 0-.197-.267v-.002h-.002l-.004-.004a3.7 3.7 0 0 0-.486-.487q-.008-.006-.027-.025a4 4 0 0 0-.297-.217l-.002-.002-.008-.006-.004-.002a4 4 0 0 0-.602-.322c-.036-.016-.07-.04-.117-.058h-.002a5 5 0 0 0-.414-.145l-.015-.002h-.002a5 5 0 0 0-.873-.172l.002-.01h-.063zm16.078.015-.004.006a6 6 0 0 0-.469.069c-.094.018-.18.046-.27.07a4 4 0 0 0-.529.174q.018-.01.037-.018c-.074.029-.151.055-.222.086q-.324.14-.602.322a4 4 0 0 0-.584.477 3.7 3.7 0 0 0-.637.852 3.6 3.6 0 0 0-.248.578q-.007.022-.007.029a3.4 3.4 0 0 0-.133.566v.004a3 3 0 0 0-.028.563 1.34 1.34 0 0 0 .35 1.049c.204.263.49.431.852.431l.064-.002h.002a1.2 1.2 0 0 0 .252-.011h.006l.004-.002q.244-.038.453-.155h.002c.686-.125 1.413-.309 2.004-.685.726-.463 1.26-1.081 1.26-1.774 0-.71.04-1.357-.131-1.84a1.06 1.06 0 0 0-.453-.578c-.226-.136-.533-.21-.948-.21zm-15.926.102h.01c.057.006.11.018.166.025l.297.112c.568.117 1.064.292 1.466.55l.184.07q.06.043.117.087l-.197-.073c.825.574 1.136 1.34 1.3 2.106a1.338 1.338 0 0 0-2.288 1.064l.002.012v.002c.033.328.186.621.414.836-.582-.14-1.186-.258-1.68-.572a3.3 3.3 0 0 1-.871-.772l-.002-.002-.002-.002c-.214-.285-.34-.596-.34-.916 0-.713-.037-1.356.123-1.806a.96.96 0 0 1 .412-.526q.276-.167.79-.185h.007l.072-.004-.005-.002c.009 0 .015-.004.025-.004m15.947 0c.403 0 .69.071.895.195s.332.3.412.526c.16.45.123 1.093.123 1.806 0 .641-.502 1.237-1.213 1.69-.496.316-1.103.438-1.687.578a1.341 1.341 0 0 0-.914-2.318c-.391 0-.742.17-.987.437l.033-.037c.224-1.035.854-2.146 2.27-2.643l.014-.006a4.7 4.7 0 0 1 1.054-.228m-13.26 1.225q.038.038.073.08-.035-.041-.072-.08m.356.466.004.004q.09.135.164.272l.002.002.002.002.002.006.004.007a3.5 3.5 0 0 1 .242.563l.008.03q.09.277.129.548v.004c.006.044.001.084.005.127a1 1 0 0 0-.08-.15 3.6 3.6 0 0 0-.482-1.415m9.848.045a3.8 3.8 0 0 0-.463 1.37l.017-.024a1.4 1.4 0 0 0-.095.17c.004-.043.001-.082.007-.125v-.004l.002-.006v-.002q.04-.266.127-.54l.008-.03q0 .005.008-.018.091-.276.234-.545.07-.124.155-.246m-10.5.842c.428 0 .805.218 1.027.547l.004.006.004.006.021.037a1.237 1.237 0 0 1-1.246 1.865c-.137-.015-.275-.115-.418-.145a1.2 1.2 0 0 1-.31-.246l-.002-.002a1.237 1.237 0 0 1 .92-2.068m1.056.596c.015.124.11.256.153.379a1.2 1.2 0 0 0-.153-.38m10.116-.596a1.237 1.237 0 0 1 1.183 1.608v-.006l-.004.011h.002a1.24 1.24 0 0 1-.592.715c-.125.024-.246.105-.367.127a1.3 1.3 0 0 0-.222.022 1.237 1.237 0 0 1-1.21-1.502c.044-.123.138-.255.153-.38.11-.179.262-.329.445-.433l.022-.012a1.2 1.2 0 0 1 .59-.15m-10.436 2.358za1 1 0 0 1-.098.06l-.017.009-.028.012-.064.029q.109-.047.207-.111m-1.24.013q.04.018.082.031-.042-.014-.082-.03m6.09 1.928a4.46 4.46 0 0 1 3.164 1.287c.216.29.268.655.185 1.049s-.3.815-.615 1.205c-.63.778-1.647 1.427-2.734 1.512-1.088-.085-2.105-.734-2.735-1.512-.315-.39-.532-.81-.615-1.205-.083-.393-.032-.757.184-1.047a4.46 4.46 0 0 1 3.166-1.29m0 5.158c.822.169 1.665.726 2.527 1.344v.537a.59.59 0 0 1-.594.594h-1.289q-.106-.001-.215-.115a1.2 1.2 0 0 1-.195-.301c-.113-.24-.184-.529-.184-.694 0-.033-.025-.05-.05-.05s-.051.017-.051.05c0 .165-.07.455-.184.694-.056.12-.123.225-.195.3q-.108.115-.215.116h-1.289a.59.59 0 0 1-.594-.594v-.537c.863-.619 1.705-1.175 2.528-1.344m2.529 1.344c.287.206.575.419.867.627l.133.09q.267.189.539.365c.283.185.569.36.857.508a6.8 6.8 0 0 1-4.925 2.119 6.8 6.8 0 0 1-4.924-2.12c.293-.15.583-.328.87-.517q.332-.214.657-.445.387-.277.768-.553v.463a.7.7 0 0 0 .424.64.7.7 0 0 0 .271.055h1.289c.08 0 .153-.032.219-.084l.004-.002.004-.002.017-.017.012-.01.031-.031h.002a1 1 0 0 0 .115-.149q.054-.083.098-.18.018-.035.033-.074c.045-.104.08-.215.108-.318l.002-.014q0 .008.002.014c.027.105.065.218.11.324l.03.069q.046.095.1.18a1 1 0 0 0 .113.148h.002l.033.031.03.027.001.002a.36.36 0 0 0 .223.086h1.29c.239 0 .452-.12.577-.304v-.002a.7.7 0 0 0 .117-.389v-.463zm-6.582 1.072q.24-.157.48-.324l-.187.129a14 14 0 0 1-.293.195m8.12.01a15 15 0 0 1-.306-.205l-.232-.16q.268.188.539.365m.604.254.114.06zm.114.06" style="filter:url(#e)"/></svg>