<svg xmlns="http://www.w3.org/2000/svg" width="64" height="64"><defs><filter id="a" width="1.276" height="1.415" x="-.139" y="-.208" style="color-interpolation-filters:sRGB"><feGaussianBlur stdDeviation="1.722"/></filter><filter id="b" width="1.426" height="1.269" x="-.213" y="-.135" style="color-interpolation-filters:sRGB"><feGaussianBlur stdDeviation="1.722"/></filter><filter id="c" width="1.733" height="1.239" x="-.367" y="-.12" style="color-interpolation-filters:sRGB"><feGaussianBlur stdDeviation="1.722"/></filter><filter id="d" width="1.426" height="1.269" x="-.213" y="-.135" style="color-interpolation-filters:sRGB"><feGaussianBlur stdDeviation="1.722"/></filter><filter id="e" width="1.276" height="1.415" x="-.138" y="-.208" style="color-interpolation-filters:sRGB"><feGaussianBlur stdDeviation="1.722"/></filter></defs><path d="M25.57 37.17c7.18 4.253 7.906 7.516 6.432 10.136s-4.588 3.606-11.768-.65c-7.178-4.253-15.297-12.86-15.963-15.785 2.8-.871 14.121 2.042 21.3 6.298" style="fill:#80ffb3;stroke-width:.924357"/><path d="M25.07 37.59c7.768 4.602 8.552 8.132 6.958 10.966s-4.964 3.902-12.73-.702C11.53 43.252 2.747 33.94 2.027 30.776c3.03-.942 15.276 2.21 23.042 6.814z" style="mix-blend-mode:normal;fill:none;stroke:#000;stroke-width:.2;stroke-dasharray:none;stroke-opacity:1;filter:url(#a)" transform="translate(2.423 2.419)scale(.92436)"/><path d="M31.37 35.226c4.145 7.37 3.185 10.567.632 12.08s-5.73.767-9.876-6.602c-4.144-7.37-6.982-18.99-6.134-21.865 2.85.684 11.233 9.018 15.378 16.387" style="fill:#2aff80;stroke-width:.924357"/><path d="M31.344 35.488c4.484 7.972 3.446 11.432.684 13.068s-6.2.83-10.684-7.142S13.79 20.87 14.707 17.76c3.083.74 12.153 9.756 16.637 17.728z" style="mix-blend-mode:normal;fill:none;stroke:#000;stroke-width:.2;stroke-dasharray:none;stroke-opacity:1;filter:url(#b)" transform="translate(2.423 2.419)scale(.92436)"/><path d="M37.34 36.52c0 8.51-2.39 10.786-5.338 10.786s-5.336-2.276-5.336-10.786 3.202-20.03 5.336-22.084C34.137 16.49 37.34 28.01 37.34 36.52" style="fill:#00d455;stroke-width:.924357"/><path d="M37.802 36.888c0 9.206-2.585 11.668-5.774 11.668s-5.773-2.462-5.773-11.668 3.464-21.67 5.773-23.892c2.31 2.222 5.774 14.686 5.774 23.892z" style="mix-blend-mode:normal;fill:none;stroke:#000;stroke-width:.2;stroke-dasharray:none;stroke-opacity:1;filter:url(#c)" transform="translate(2.423 2.419)scale(.92436)"/><path d="M41.878 40.704c-4.145 7.369-7.323 8.114-9.876 6.602s-3.512-4.71.632-12.08c4.145-7.369 12.53-15.703 15.378-16.387.849 2.875-1.99 14.496-6.134 21.865" style="fill:#0a4;stroke-width:.924357"/><path d="M41.878 39.78c-4.145 7.368-7.323 8.113-9.876 6.601s-3.512-4.71.632-12.08c4.145-7.368 12.53-15.703 15.378-16.386.849 2.874-1.99 14.495-6.134 21.864z" style="fill:#0a4;stroke-width:.924357"/><path d="M42.712 40.414c-4.484 7.972-7.922 8.778-10.684 7.142s-3.8-5.096.684-13.068S46.266 17.499 49.348 16.76c.918 3.11-2.152 15.682-6.636 23.654z" style="mix-blend-mode:normal;fill:none;stroke:#000;stroke-width:.2;stroke-dasharray:none;stroke-opacity:1;filter:url(#d)" transform="translate(2.423 2.419)scale(.92436)"/><path d="M43.77 46.657c-7.18 4.255-10.294 3.268-11.768.649-1.473-2.62-.749-5.883 6.432-10.137 7.178-4.256 18.498-7.17 21.299-6.298-.666 2.924-8.784 11.531-15.963 15.786" style="fill:#008033;stroke-width:.924357"/><path d="M44.758 47.854c-7.766 4.604-11.136 3.536-12.73.702s-.81-6.364 6.958-10.966c7.766-4.604 20.012-7.756 23.042-6.814-.72 3.164-9.503 12.476-17.27 17.079z" style="mix-blend-mode:normal;fill:none;stroke:#000;stroke-width:.2;stroke-dasharray:none;stroke-opacity:1;filter:url(#e)" transform="translate(2.423 2.419)scale(.92436)"/></svg>