<svg xmlns="http://www.w3.org/2000/svg" xmlns:xlink="http://www.w3.org/1999/xlink" width="64" height="64"><defs><radialGradient xlink:href="#a" id="e" cx="14.096" cy="31.852" r="10.043" fx="14.096" fy="31.852" gradientTransform="matrix(4.78047 0 0 4.55213 -47.117 -89.129)" gradientUnits="userSpaceOnUse"/><radialGradient xlink:href="#b" id="c" cx="20.481" cy="24.761" r="28" fx="20.481" fy="24.761" gradientTransform="translate(-20.401 -20.401)scale(1.63754)" gradientUnits="userSpaceOnUse"/><linearGradient id="b"><stop offset="0" style="stop-color:#ffa275;stop-opacity:1"/><stop offset="1" style="stop-color:#ffbb75;stop-opacity:1"/></linearGradient><linearGradient id="a"><stop offset="0" style="stop-color:#9e261e;stop-opacity:1"/><stop offset="1" style="stop-color:#d64b40;stop-opacity:1"/></linearGradient><filter id="d" width="1.22" height="1.22" x="-.11" y="-.11" style="color-interpolation-filters:sRGB"><feGaussianBlur stdDeviation="2.527"/></filter><filter id="f" width="1.143" height="1.143" x="-.071" y="-.071" style="color-interpolation-filters:sRGB"><feGaussianBlur stdDeviation="1.339"/></filter></defs><path d="M32 5.805A26.137 26.137 0 0 1 58.195 32v.002a26.137 26.137 0 0 1-26.194 26.194h-.002A26.137 26.137 0 0 1 5.805 32.001v-.002A26.137 26.137 0 0 1 32 5.805" style="fill:url(#c);stroke-width:.935534"/><path d="M31.999 4h.002A27.94 27.94 0 0 1 60 31.999v.002A27.94 27.94 0 0 1 32.001 60h-.002A27.94 27.94 0 0 1 4 32.001v-.002A27.94 27.94 0 0 1 31.999 4z" style="fill:none;stroke:#000;stroke-width:.2;stroke-dasharray:none;stroke-opacity:1;filter:url(#d)" transform="translate(2.063 2.063)scale(.93553)"/><path d="m15.39 15.388 1.412 1.564c1.602 0 3.637 1.299 3.638 2.9v24.606c0 1.602-2.035 2.901-3.638 2.902l-1.412 1.252h33.22L47.2 47.36c-1.57 0-3.8-1.272-3.8-2.84V19.792c0-1.569 2.23-2.84 3.8-2.841l1.41-1.564H32.001ZM32 16.952c1.601 0 3.932 1.225 3.933 2.826v24.606c0 1.602-2.33 2.975-3.933 2.976-1.57 0-3.875-1.271-3.875-2.84V19.792c0-1.57 2.305-2.842 3.875-2.841" style="fill:url(#e);fill-opacity:1;stroke:none;stroke-width:.151347;stroke-linecap:round;stroke-linejoin:round;stroke-miterlimit:2.1;paint-order:markers stroke fill"/><path d="m9.477 9.476 1.916 2.12c2.171 0 4.931 1.76 4.932 3.932v33.364c0 2.172-2.76 3.934-4.932 3.935l-1.916 1.697h45.046l-1.913-1.697c-2.127 0-5.152-1.725-5.152-3.852V15.448c0-2.127 3.025-3.852 5.152-3.852l1.913-2.12H32Zm22.524 2.12c2.172 0 5.332 1.66 5.333 3.832v33.364c0 2.172-3.16 4.034-5.333 4.035-2.128.001-5.254-1.724-5.254-3.852V15.448c0-2.129 3.126-3.853 5.254-3.852" style="fill:#ff8080;fill-opacity:1;stroke:none;stroke-width:.27118831;stroke-linecap:round;stroke-linejoin:round;stroke-miterlimit:2.1;stroke-dasharray:none;stroke-opacity:1;paint-order:markers stroke fill;filter:url(#f);opacity:.31791857" transform="translate(8.4 8.4)scale(.7375)"/></svg>