<svg xmlns="http://www.w3.org/2000/svg" xmlns:xlink="http://www.w3.org/1999/xlink" width="64" height="64"><defs><radialGradient xlink:href="#a" id="b" cx="20.568" cy="19.714" r="22.576" fx="20.568" fy="19.714" gradientTransform="rotate(45 143.365 -35.375)scale(3.77876 4.46353)" gradientUnits="userSpaceOnUse"/><linearGradient id="a"><stop offset="0" style="stop-color:#737373;stop-opacity:1"/><stop offset="1" style="stop-color:#3f3f3f;stop-opacity:1"/></linearGradient><filter id="c" width="1.232" height="1.196" x="-.116" y="-.098" style="color-interpolation-filters:sRGB"><feGaussianBlur stdDeviation="2.117"/></filter></defs><path d="M17.6 15.56 9.496 53.397a3.256 3.256 38.99 0 0 4.514 3.654l12.696-5.681a12.96 12.96 180 0 1 10.588 0l12.696 5.68a3.256 3.256 141.01 0 0 4.514-3.654L46.4 15.561A14.62 14.62 38.955 0 0 32.101 4H31.9a14.62 14.62 141.045 0 0-14.3 11.56" style="fill:url(#b)" transform="translate(0 1.333)"/><path d="m33.187 39.796 4.626-8.592a4.46 4.46 89.022 0 0-.074-4.366l-4.478-7.676a1.46 1.46 180 0 0-2.522 0l-4.478 7.676a4.46 4.46 90.978 0 0-.074 4.366l4.626 8.592a1.348 1.348 0 0 0 2.374 0" style="fill:#fff" transform="translate(0 2.883)"/><path d="M31.898 4A14.62 14.62 0 0 0 17.6 15.56L9.496 53.396a3.256 3.256 0 0 0 4.514 3.654l12.697-5.682a12.96 12.96 0 0 1 10.586 0L49.99 57.05a3.256 3.256 0 0 0 4.514-3.654L46.4 15.56A14.62 14.62 0 0 0 32.102 4zM32 19.987a1.46 1.46 0 0 1 1.262.724l4.476 7.676a4.46 4.46 0 0 1 .075 4.367l-4.626 8.592a1.348 1.348 0 0 1-2.374 0l-4.625-8.592a4.46 4.46 0 0 1 .074-4.367l4.476-7.676A1.46 1.46 0 0 1 32 19.988z" style="fill:none;stroke:#000;stroke-opacity:1;stroke-width:.29999992;stroke-dasharray:none;filter:url(#c)" transform="translate(0 1.333)"/></svg>