<svg xmlns="http://www.w3.org/2000/svg" width="64" height="64"><circle cx="32" cy="33" r="28" style="opacity:.2"/><circle cx="32" cy="32" r="28" style="fill:#3f3f3f"/><path d="M32 13c-11.046 0-20 8.954-20 20s8.954 20 20 20 20-8.954 20-20-8.954-20-20-20m-8 12h13.418l-4.813 4.813L42 39.203 38.203 43l-9.39-9.395L24 38.418z" style="opacity:.2"/><path d="M32 12c-11.046 0-20 8.954-20 20s8.954 20 20 20 20-8.954 20-20-8.954-20-20-20m-8 12h13.418l-4.813 4.813L42 38.203 38.203 42l-9.39-9.395L24 37.418z" style="fill:#fdb316"/><path d="M32 4A28 28 0 0 0 4 32a28 28 0 0 0 .033.498A28 28 0 0 1 32 5a28 28 0 0 1 27.988 27.213L60 32A28 28 0 0 0 32 4" style="fill:#fff;opacity:.1"/><path d="M32 12c-11.046 0-20 8.954-20 20q0 .25.006.5C12.27 21.685 21.12 13 32 13s19.729 8.685 19.994 19.5Q52 32.25 52 32c0-11.046-8.954-20-20-20m4.418 13-3.813 3.813.5.5L37.418 25zm-7.605 7.605L24 37.418v1l4.813-4.813L38.203 43 42 39.203l-.5-.5L38.203 42z" style="fill:#fff;opacity:.2"/></svg>