<svg xmlns="http://www.w3.org/2000/svg" width="64" height="64"><circle cx="32" cy="33" r="28" style="opacity:.2"/><circle cx="32" cy="32" r="28" style="fill:#3f3f3f"/><path d="M32 13c-11.046 0-20 8.954-20 20s8.954 20 20 20 20-8.954 20-20-8.954-20-20-20m6.023 10c.304 0 .605.12.84.355l2.785 2.782a1.18 1.18 0 0 1 0 1.683l-2.343 2.328-4.453-4.453 2.328-2.34c.235-.235.54-.355.843-.355m-4.773 4.293 4.457 4.457L27.457 42H23v-4.457z" style="opacity:.2"/><path d="M32 12c-11.046 0-20 8.954-20 20s8.954 20 20 20 20-8.954 20-20-8.954-20-20-20m6.023 10c.304 0 .605.12.84.355l2.785 2.782a1.18 1.18 0 0 1 0 1.683l-2.343 2.328-4.453-4.453 2.328-2.34c.235-.235.54-.355.843-.355m-4.773 4.293 4.457 4.457L27.457 41H23v-4.457z" style="fill:#fdb316"/><path d="M32 4A28 28 0 0 0 4 32a28 28 0 0 0 .033.498A28 28 0 0 1 32 5a28 28 0 0 1 27.988 27.213L60 32A28 28 0 0 0 32 4" style="fill:#fff;opacity:.1"/><path d="M32 12c-11.046 0-20 8.954-20 20q0 .25.006.5C12.27 21.685 21.12 13 32 13s19.729 8.685 19.994 19.5Q52 32.25 52 32c0-11.046-8.954-20-20-20m3.35 13.193-.498.502 4.453 4.453 2.343-2.328c.369-.368.45-.901.243-1.341q-.088.186-.243.341l-2.343 2.328zm1.857 6.057L27.457 41H23v1h4.457l10.25-10.25z" style="fill:#fff;opacity:.2"/></svg>