<svg xmlns="http://www.w3.org/2000/svg" xmlns:xlink="http://www.w3.org/1999/xlink" width="64" height="64"><defs><radialGradient xlink:href="#a" id="d" cx="1.929" cy="16.866" r="27.509" fx="1.929" fy="16.866" gradientTransform="matrix(0 1.9936 -1.99368 0 38.115 .667)" gradientUnits="userSpaceOnUse"/><radialGradient xlink:href="#b" id="c" cx="-10.04" cy="33.029" r="17.297" fx="-10.04" fy="33.029" gradientTransform="rotate(44.546 192.623 151.536)scale(3.86077 6.24686)" gradientUnits="userSpaceOnUse"/><linearGradient id="b"><stop offset="0" style="stop-color:#747474;stop-opacity:1"/><stop offset="1" style="stop-color:#5a5a5a;stop-opacity:1"/></linearGradient><linearGradient id="a"><stop offset="0" style="stop-color:#00d7ff;stop-opacity:1"/><stop offset="1" style="stop-color:#00a3ff;stop-opacity:1"/></linearGradient><filter id="e" width="1.086" height="1.086" x="-.043" y="-.043" style="color-interpolation-filters:sRGB"><feGaussianBlur stdDeviation=".992"/></filter></defs><ellipse cx="7.293" cy="41.254" rx="17.297" ry="27.987" style="fill:url(#c);fill-opacity:1;stroke:none;stroke-width:.3;stroke-linecap:round;stroke-linejoin:round;stroke-miterlimit:2.1;paint-order:markers stroke fill" transform="rotate(-29.546)"/><path d="M48.487 4.49a2 2 0 0 0-1.127.363l-37 26a2 2 0 0 0 .158 3.373l11.59 6.623-16.932 15.15c-1.795 1.612.27 4.435 2.35 3.213l39-23c1.459-.862 1.252-3.034-.344-3.605L35.973 28.96l22.63-14.797a2 2 0 0 0 .017-3.338l-9-6a2 2 0 0 0-1.133-.335" style="fill:url(#d)"/><path d="M26 18c-5.445 0-10.89 3.63-13.04 5.243-.54.405-.573 1.144-.095 1.622.466.466 1.29.525 1.855.155C17.383 23.274 21.67 21 26 21c4.838 0 8.904 2.174 11.383 3.904.555.387 1.376.337 1.855-.142.42-.42.367-1.144-.153-1.577C37.115 21.545 32.148 18 26 18m0 6c-3.44 0-6.838 1.432-9.428 2.897-.588.333-.665 1.01-.188 1.487l.179.179c.478.478 1.35.609 1.961.324C20.774 27.837 23.386 27 26 27c2.855 0 5.45.766 7.611 1.75.616.28 1.49.15 1.969-.33l.16-.16c.48-.48.408-1.168-.178-1.506C33.112 25.34 29.802 24 26 24m0 6c-1.66 0-3.307.341-4.862.855-.93.308-1.098 1.185-.406 1.877l2.56 2.56a3.83 3.83 0 0 0 5.415 0l2.688-2.687c.692-.692.518-1.557-.419-1.84A17 17 0 0 0 26 30" style="fill:#fff" transform="translate(-.49 .51)"/><path d="M48.486 4.44a2.05 2.05 0 0 0-1.156.373l-13.062 9.181c-4.57-4.386-9.745-7.146-14.569-7.507a14 14 0 0 0-.94-.04c-2.164-.019-4.16.473-5.898 1.458-4.174 2.366-6.397 7.242-6.623 13.203s1.545 13.011 5.36 19.742a44.6 44.6 0 0 0 3.93 5.822L5.142 55.963c-.916.822-.85 1.965-.285 2.736.564.772 1.632 1.18 2.693.557l12.78-7.537c6.782 5.937 14.534 8.167 20.183 4.965 5.763-3.268 7.802-11.317 6.006-20.41l.03-.018c1.494-.882 1.282-3.111-.35-3.695l-.69-.246a43.5 43.5 0 0 0-3.135-7.48l16.256-10.63a2.05 2.05 0 0 0 .016-3.42l-9-6a2.05 2.05 0 0 0-1.16-.345m0 .101c.393-.004.78.109 1.106.326l9 6a1.95 1.95 0 0 1-.016 3.256L42.283 24.778l-6.338 4.142-.084.055.094.033 9.498 3.393.711.254c1.56.557 1.762 2.673.336 3.515l-.06.037-15.907 9.38-10.224 6.028v.002L7.5 59.17c-1.019.6-2.023.206-2.562-.531-.54-.737-.609-1.812.271-2.602l10.418-9.322 6.514-5.828.052-.047-.06-.033-11.59-6.623a2 2 0 0 1-.412-.31 1.957 1.957 0 0 1-.123-2.632 2 2 0 0 1 .38-.347l13.038-9.16q.464-.071.93-.114l.168-.015q.492-.042.986-.043c1.206 0 2.364.135 3.46.365 2.744.576 5.108 1.745 6.893 2.867q.537.339 1 .662c.576.402 1.423.35 1.92-.148.443-.443.384-1.201-.156-1.65a25 25 0 0 0-1.7-1.287q-.009-.007-.019-.012c-2.085-1.445-5.268-3.19-9.064-3.73l.744-.524 5.703-4.008L47.39 4.895c.322-.226.704-.35 1.097-.354M18.76 6.55q.46.004.932.04c4.785.358 9.934 3.099 14.488 7.464l-6.483 4.557a17 17 0 0 0-2.187-.149q-.513 0-1.024.041-.51.041-1.02.12-.506.075-1.007.185c-1.67.364-3.28.98-4.726 1.676-.58.278-1.132.569-1.653.861a34 34 0 0 0-3.64 2.373c-.563.422-.597 1.199-.1 1.695.303.304.747.44 1.18.407a1.6 1.6 0 0 0 .736-.246 30 30 0 0 1 1.813-1.098c1.988-1.11 4.462-2.191 7.05-2.649L10.33 30.813q-.23.162-.398.365a2.06 2.06 0 0 0 .129 2.766q.187.185.431.326l11.532 6.59-6.42 5.742a44.5 44.5 0 0 1-3.92-5.803c-3.807-6.716-5.57-13.75-5.344-19.687.225-5.939 2.436-10.777 6.572-13.122 1.721-.975 3.698-1.46 5.848-1.44m6.75 12.014q.546 0 1.078.037l.033.002.024.002q.536.037 1.058.107h.004q.43.06.848.139l.166.031c.103.02.204.045.306.067q.37.078.729.17.152.04.303.082.34.092.672.197.142.044.28.09.23.076.454.158.721.258 1.393.553l.209.093c.463.21.912.428 1.334.653l.017.01q.653.35 1.233.707l.1.06q.531.33.995.649.114.076.223.152a25 25 0 0 1 1.596 1.215c.5.416.547 1.102.148 1.502-.46.46-1.257.51-1.791.136-2.485-1.732-6.559-3.914-11.412-3.914-.344 0-.687.018-1.03.045l-.08.008q-.503.044-1.001.123c-2.621.408-5.118 1.491-7.149 2.62-.239.132-.466.263-.691.396-.121.071-.247.142-.364.213-.35.212-.685.422-.994.625a1.4 1.4 0 0 1-.447.189c-.475.113-1.009-.003-1.344-.338-.458-.458-.43-1.159.088-1.547a32 32 0 0 1 2.176-1.496 30.36 30.36 0 0 1 3.102-1.724c1.73-.83 3.69-1.547 5.707-1.854q.504-.077 1.011-.117.508-.04 1.016-.041m0 5.898c-3.453 0-6.86 1.437-9.453 2.904-.306.173-.483.44-.518.727s.072.592.32.84l.178.178c.496.496 1.386.63 2.02.334a25 25 0 0 1 1.746-.737c1.201-.45 2.469-.809 3.76-.998a13.4 13.4 0 0 1 1.947-.146q.534 0 1.055.035c2.431.16 4.647.85 6.535 1.709.637.29 1.528.157 2.025-.34l.16-.16c.249-.249.357-.555.325-.846-.033-.29-.207-.562-.512-.738-2.454-1.417-5.774-2.762-9.588-2.762m0 .102c2.843 0 5.411.752 7.549 1.722a23 23 0 0 1 1.988 1.024c.281.162.434.404.463.662s-.065.536-.295.766l-.16.16c-.115.115-.256.21-.41.283a1.94 1.94 0 0 1-1.018.166 1.6 1.6 0 0 1-.484-.129c-2.167-.986-4.769-1.756-7.633-1.756-2.624 0-5.243.842-7.496 1.893a1.6 1.6 0 0 1-.483.13 1.93 1.93 0 0 1-1.015-.163 1.4 1.4 0 0 1-.408-.282l-.178-.177c-.23-.23-.322-.504-.291-.758.03-.255.186-.493.469-.653a27 27 0 0 1 3.207-1.556c1.925-.775 4.054-1.332 6.195-1.332m16.777.33a43.4 43.4 0 0 1 3.094 7.375l-9.297-3.32zM25.51 30.46c-1.666 0-3.318.344-4.877.86-.477.157-.768.466-.844.83s.063.773.418 1.129l2.56 2.56a3.88 3.88 0 0 0 5.485 0l2.688-2.687c.355-.355.494-.761.416-1.12-.079-.358-.375-.66-.856-.806a17.2 17.2 0 0 0-4.99-.766m0 .102c1.776 0 3.44.3 4.963.761.456.139.715.412.785.73.07.32-.051.69-.389 1.028l-2.687 2.688a3.78 3.78 0 0 1-5.344 0l-2.56-2.56c-.338-.338-.459-.713-.391-1.038s.325-.608.777-.758c1.552-.513 3.193-.851 4.846-.851m20.914 5.77c1.777 9.05-.259 17.032-5.961 20.265-5.59 3.168-13.28.966-20.037-4.936l9.904-5.84z" style="color:#000;fill:#000;stroke-linecap:round;stroke-linejoin:round;stroke-miterlimit:2.1;paint-order:markers stroke fill;stroke:#000;stroke-opacity:1;stroke-width:0;stroke-dasharray:none;filter:url(#e)"/></svg>