<svg xmlns="http://www.w3.org/2000/svg" xmlns:xlink="http://www.w3.org/1999/xlink" width="64" height="64"><defs><linearGradient id="b"><stop offset="0" style="stop-color:#ba2d2d;stop-opacity:1"/><stop offset="1" style="stop-color:#ea6533;stop-opacity:1"/></linearGradient><linearGradient id="a"><stop offset="0" style="stop-color:#848484;stop-opacity:1"/><stop offset="1" style="stop-color:#e7e7e7;stop-opacity:1"/></linearGradient><linearGradient xlink:href="#a" id="c" x1="32.36" x2="31.922" y1="58.498" y2="7.727" gradientTransform="translate(0 2.996)" gradientUnits="userSpaceOnUse"/><linearGradient xlink:href="#b" id="d" x1="2.219" x2="35.661" y1="64.558" y2="2.763" gradientUnits="userSpaceOnUse"/></defs><g transform="translate(0 -3.477)"><path d="M20.666 12.953c-1.477 0-2.666 1.227-2.666 2.75v16.5c0 1.524 1.19 2.75 2.666 2.75h2.668c1.477 0 2.666-1.226 2.666-2.75v-16.5c0-1.523-1.19-2.75-2.666-2.75zm20 0c-1.477 0-2.666 1.227-2.666 2.75v16.5c0 1.524 1.19 2.75 2.666 2.75h2.668c1.477 0 2.666-1.226 2.666-2.75v-16.5c0-1.523-1.19-2.75-2.666-2.75z" style="fill:url(#c)"/><rect width="40" height="32" x="12" y="26" rx="9.45" ry="9.45" style="fill:url(#d)"/></g></svg>