<svg xmlns="http://www.w3.org/2000/svg" xmlns:xlink="http://www.w3.org/1999/xlink" width="64" height="64"><defs><filter id="f" width="1.28" height="1.122" x="-.139" y="-.061" style="color-interpolation-filters:sRGB"><feGaussianBlur stdDeviation=".963"/></filter><filter id="g" width="3.247" height="3.247" x="-1.123" y="-1.123" style="color-interpolation-filters:sRGB"><feGaussianBlur stdDeviation="1.404"/></filter><filter id="c" width="1.226" height="1.451" x="-.113" y="-.226" style="color-interpolation-filters:sRGB"><feGaussianBlur stdDeviation="1.6"/></filter><radialGradient xlink:href="#a" id="d" cx="32.718" cy="11.627" r="20.5" fx="32.718" fy="11.627" gradientTransform="rotate(135 58.349 8.741)scale(2.32835 2.33959)" gradientUnits="userSpaceOnUse"/><radialGradient xlink:href="#b" id="e" cx="28.63" cy="39.708" r="7.221" fx="28.63" fy="39.708" gradientTransform="matrix(2.46385 0 0 5.67163 -46.357 -171.33)" gradientUnits="userSpaceOnUse"/><linearGradient id="b"><stop offset="0" style="stop-color:#8eceef;stop-opacity:1"/><stop offset="1" style="stop-color:#42a7df;stop-opacity:1"/></linearGradient><linearGradient id="a"><stop offset="0" style="stop-color:#d8e0e5;stop-opacity:1"/><stop offset="1" style="stop-color:#000;stop-opacity:0"/></linearGradient></defs><ellipse cx="32.409" cy="52.269" rx="17.023" ry="8.512" style="opacity:1;mix-blend-mode:normal;fill:#0c1922;fill-opacity:1;stroke:none;stroke-width:.1;stroke-linecap:round;stroke-miterlimit:4.1;stroke-dasharray:none;stroke-opacity:1;paint-order:stroke fill markers;filter:url(#c)" transform="matrix(.95388 0 0 .84663 1.495 9.444)"/><path d="M23.555 4.946c-1.274 0-2.354.94-2.53 2.202 0 15.973-3.83 30.548-5.964 45.795a2.556 2.556 0 0 0 2.53 2.91h29.817a2.556 2.556 0 0 0 2.531-2.91c-2.208-15.235-5.963-30.402-5.963-45.795a2.556 2.556 0 0 0-2.531-2.202Z" style="fill:url(#d);stroke-width:.851906"/><path d="M35.482 53.298c1.276-.563 2.261-.456 3.407 0l-2.332-8.84.257-.773L35.7 39.27s.377-.04.686-.386c-.328-1.778-.904-6.031-.904-6.031s.464.341.775.242c.754-.243 2.004-.64 1.756-1.844-.548-2.662-.856-4.64-1.51-5.128-1.161-.868-2.994-1.648-2.994-1.648s.361-1.353.243-2.058c-.16-.95-1.14-2.259-2.098-2.358-1.046-.11-2.186 1.2-2.145 2.144.056 1.292 1.73 3.559 1.73 3.559l-1.673.391.001.938-.858.386-.895 7.08-1.91 5.098-1.415.772-.043 2.487.558-.042.129-.687h.471l.343-1.114s.658.178 1.179-.142c.223-.137.327-.9.327-.9l.361-.03V46.3l-.255 1.033.25 1.497-.472.558-.333 3.43c1.15-.458 1.728-.451 3.366.479l-.16-1.68-.471-.643.6-1.544.257-3.644 1.5-5.353L33.77 43.9l1.33 5.574-.043 1.458.815 1.458z" style="fill:url(#e);stroke-width:.851906;fill-opacity:1"/><path d="M36 57c1.498-.66 2.655-.535 4 0l-2.738-10.377.302-.906-1.308-5.185s.443-.046.806-.453C36.677 37.992 36 33 36 33s.545.4.91.284c.885-.285 2.352-.75 2.061-2.165-.643-3.124-1.005-5.445-1.771-6.019-1.364-1.02-3.516-1.934-3.516-1.934s.425-1.589.286-2.416c-.188-1.116-1.338-2.652-2.463-2.769-1.228-.127-2.566 1.41-2.518 2.517.066 1.517 2.031 4.178 2.031 4.178l-1.964.46.001 1.1-1.007.454L27 35l-2.242 5.985-1.661.906-.05 2.92.654-.05.15-.806h.555l.402-1.309s.772.21 1.383-.166c.262-.16.385-1.057.385-1.057l.424-.035v7.4L26.7 50l.294 1.757-.554.654-.391 4.027c1.35-.538 2.028-.53 3.951.562l-.188-1.971-.553-.755.704-1.812.302-4.279 1.762-6.283 1.963 4.068 1.56 6.544-.05 1.711.957 1.712z" style="fill:none;stroke:#000;stroke-width:.1;stroke-dasharray:none;stroke-opacity:1;filter:url(#f)" transform="translate(4.813 4.739)scale(.8519)"/><circle cx="34.204" cy="30.722" r="1.278" style="fill:#fff;stroke-width:.851906"/><circle cx="34.5" cy="30.5" r="1.5" style="fill:#ffc962;fill-opacity:1;filter:url(#g)" transform="translate(4.813 4.739)scale(.8519)"/></svg>