<svg xmlns="http://www.w3.org/2000/svg" xmlns:xlink="http://www.w3.org/1999/xlink" width="64" height="64"><defs><filter id="f" width="1.211" height="1.308" x="-.105" y="-.154" style="color-interpolation-filters:sRGB"><feGaussianBlur stdDeviation="1.626"/></filter><filter id="c" width="3.007" height="1.083" x="-1.003" y="-.041" style="color-interpolation-filters:sRGB"><feGaussianBlur stdDeviation=".407"/></filter><filter id="g" width="1.899" height="1.069" x="-.45" y="-.034" style="color-interpolation-filters:sRGB"><feGaussianBlur stdDeviation=".296"/></filter><filter id="h" width="2.659" height="1.127" x="-.83" y="-.063" style="color-interpolation-filters:sRGB"><feGaussianBlur stdDeviation=".564"/></filter><radialGradient xlink:href="#a" id="d" cx="29.501" cy="14.604" r="6" fx="29.501" fy="14.604" gradientTransform="matrix(3.75207 0 0 4.37742 -88.066 -43.906)" gradientUnits="userSpaceOnUse"/><radialGradient xlink:href="#b" id="e" cx="12.102" cy="34.052" r="19" fx="12.102" fy="34.052" gradientTransform="matrix(2.6527 0 0 2.42442 -18.71 -62.974)" gradientUnits="userSpaceOnUse"/><linearGradient id="b"><stop offset="0" style="stop-color:#db7a1a;stop-opacity:1"/><stop offset="1" style="stop-color:#ecb32b;stop-opacity:1"/></linearGradient><linearGradient id="a"><stop offset="0" style="stop-color:#9c2500;stop-opacity:1"/><stop offset="1" style="stop-color:#833c4b;stop-opacity:1"/></linearGradient></defs><path d="M24 28h16v19.026a11.76 11.76 112.178 0 1-3.351 8.22L32 60l-4.649-4.754A11.76 11.76 67.822 0 1 24 47.026Z" style="fill:#afafb1"/><path d="M24 28h8v32l-4.618-4.723A11.87 11.87 67.822 0 1 24 46.982Z" style="fill:#e4e4e4"/><path d="M31.972 31.418c-.675 3.09-.675 22.85 0 25.94.004.026.06 0 .06 0 .675-3.09.675-22.85 0-25.94z" style="fill:#fff;fill-opacity:.51819503;stroke:#fff;stroke-width:.2;stroke-linecap:round;stroke-miterlimit:4.1;stroke-dasharray:none;stroke-opacity:1;paint-order:stroke fill markers;filter:url(#c)" transform="translate(-4.13 -5.728)scale(1.12904)"/><path d="M26 6h12v14H26z" style="fill:url(#d);fill-opacity:1"/><path d="M25.332 4C23.486 4 22 5.338 22 7s1.486 3 3.332 3h13.336C40.514 10 42 8.662 42 7s-1.486-3-3.332-3Zm-6.904 16C15.42 20 13 22.23 13 25s2.421 5 5.428 5h27.144C48.58 30 51 27.77 51 25s-2.421-5-5.428-5Z" style="fill:url(#e)"/><g style="filter:url(#f)" transform="translate(20.206 -28.68)"><path d="M-1.778 48.68c-3.007 0-5.428 2.23-5.428 5s2.421 5 5.428 5h27.144c3.007 0 5.428-2.23 5.428-5s-2.421-5-5.428-5H5.794Zm7.572-10v10h12v-10zm-.668-6c-1.847 0-3.332 1.338-3.332 3s1.485 3 3.332 3H18.46c1.846 0 3.334-1.338 3.334-3s-1.488-3-3.334-3z" style="baseline-shift:baseline;display:inline;overflow:visible;fill:none;stroke:#000;stroke-width:.2;stroke-dasharray:none;stroke-opacity:1;enable-background:accumulate;stop-color:#000;stop-opacity:1"/></g><path d="m40 30.982-.08 14.562v1.657a11.76 11.76 0 0 1-1.611 5.943A11.76 11.76 0 0 0 40 47.07z" style="baseline-shift:baseline;display:inline;overflow:visible;fill:#000;fill-opacity:1;enable-background:accumulate;stop-color:#000;stop-opacity:1;stroke:#000;stroke-opacity:1;stroke-linecap:round;stroke-linejoin:round;stroke-width:.1;stroke-dasharray:none;filter:url(#g)"/><path d="m24.004 30.95.08 14.562v1.657c0 2.106.564 4.155 1.611 5.943a11.76 11.76 0 0 1-1.691-6.074z" style="baseline-shift:baseline;display:inline;overflow:visible;fill:#fff;fill-opacity:1;stroke:#fff;stroke-width:.1;stroke-linecap:round;stroke-linejoin:round;stroke-dasharray:none;stroke-opacity:1;enable-background:accumulate;stop-color:#000;filter:url(#h)"/></svg>