<svg xmlns="http://www.w3.org/2000/svg" xmlns:xlink="http://www.w3.org/1999/xlink" width="64" height="64"><defs><filter id="f" width="1.069" height="1.116" x="-.035" y="-.058" style="color-interpolation-filters:sRGB"><feGaussianBlur stdDeviation=".647"/></filter><filter id="e" width="1.159" height="1.142" x="-.08" y="-.071" style="color-interpolation-filters:sRGB"><feGaussianBlur stdDeviation="1.613"/></filter><filter id="i" width="1.347" height="1.463" x="-.174" y="-.231" style="color-interpolation-filters:sRGB"><feGaussianBlur stdDeviation=".558"/></filter><filter id="j" width="1.14" height="1.513" x="-.07" y="-.256" style="color-interpolation-filters:sRGB"><feGaussianBlur stdDeviation=".62"/></filter><radialGradient xlink:href="#a" id="d" cx="31.921" cy="47.616" r="25.001" fx="31.921" fy="47.616" gradientTransform="matrix(2.73716 0 0 2.95681 -55.59 -60.679)" gradientUnits="userSpaceOnUse"/><radialGradient xlink:href="#b" id="g" cx="32.2" cy="20.559" r="23.903" fx="32.2" fy="20.559" gradientTransform="matrix(1 0 0 .6225 0 7.761)" gradientUnits="userSpaceOnUse"/><radialGradient xlink:href="#c" id="h" cx="32" cy="52.282" r="4" fx="32" fy="52.282" gradientTransform="matrix(4.45295 0 0 3.33971 -110.494 -119.325)" gradientUnits="userSpaceOnUse"/><linearGradient id="c"><stop offset="0" style="stop-color:#bf3667;stop-opacity:1"/><stop offset="1" style="stop-color:#83291f;stop-opacity:1"/></linearGradient><linearGradient id="b"><stop offset="0" style="stop-color:#a86f5e;stop-opacity:1"/><stop offset="1" style="stop-color:#ff96ba;stop-opacity:1"/></linearGradient><linearGradient id="a"><stop offset="0" style="stop-color:#bfbfbf;stop-opacity:1"/><stop offset="1" style="stop-color:#6e6e6e;stop-opacity:1"/></linearGradient></defs><circle cx="32.001" cy="51.999" r="8" style="fill:#8e8e8e"/><path d="M29.697 51a.75.75 0 0 0-.75.75v3.9c0 .416.335 1.35.75 1.35h1.5c.416 0 .75-.334.75-.75 0 .416.335.75.75.75h1.5c.416 0 .75-.934.75-1.35v-3.9a.75.75 0 0 0-.75-.75h-1.5a.75.75 0 0 0-.75.75.75.75 0 0 0-.75-.75z" style="fill:#fff"/><path d="M7.743 4.281c-2.14 1.697 1.332 17.613 5.508 23.887 2.88 4.327 7.674 7.507 7.75 11.332-.505 4.5-3.8 6.857-4 10.688C17 54.825 19.162 58 23.8 58c2.91.291 5.595-3.475 8.2-4 2.605.525 5.29 4.291 8.199 4 4.64 0 6.8-3.175 6.8-7.812-.2-3.831-3.494-6.188-4-10.688.13-6.463 7.535-4.976 11.888-21.441 2.273-8.602 2.684-12.737 1.37-13.778-1.176-.932-5.15.625-9.82 5.121-6.747 6.497-5.794 10.16-12.812 20.25C33.115 30.004 32 30 32 30s-1.114.004-1.625-.348c-7.007-10.074-6.071-13.759-12.813-20.25-3.482-3.352-8.27-6.349-9.82-5.12" style="fill:url(#d)"/><g style="filter:url(#e)" transform="translate(52.206 3.388)"><path d="M-20.205 50.713c-1.887.38-3.815 2.455-5.84 3.463a7.98 7.98 0 0 0 5.84 2.535c2.304 0 4.38-.976 5.84-2.535-2.025-1.008-3.954-3.083-5.84-3.463z" style="baseline-shift:baseline;display:inline;overflow:visible;fill:none;stroke:#000;stroke-width:.2;stroke-dasharray:none;stroke-opacity:1;enable-background:accumulate;stop-color:#000;stop-opacity:1"/><path d="M-43.28.723c-.488-.042-.892.04-1.183.271-2.14 1.697 1.332 17.613 5.508 23.887 2.88 4.327 7.674 7.507 7.75 11.332-.505 4.5-3.8 6.857-4 10.687 0 4.638 2.162 7.813 6.8 7.813 2.91.291 5.595-3.475 8.2-4 2.605.525 5.29 4.291 8.2 4 4.638 0 6.8-3.175 6.8-7.813-.2-3.83-3.495-6.187-4-10.687.129-6.463 7.534-4.976 11.887-21.442C4.956 6.171 5.366 2.035 4.052.994c-1.175-.932-5.15.625-9.82 5.121-6.747 6.497-5.794 10.16-12.812 20.25-.51.352-1.625.348-1.625.348s-1.114.004-1.625-.348c-7.007-10.074-6.071-13.759-12.813-20.25-2.829-2.724-6.52-5.214-8.636-5.392z" style="baseline-shift:baseline;display:inline;overflow:visible;fill:none;stroke:#000;stroke-width:.2;stroke-dasharray:none;stroke-opacity:1;enable-background:accumulate;stop-color:#000;stop-opacity:1"/></g><path d="M9.86 7.232c.005.302-.033.413.009.829.193 1.948.833 5.05 1.952 9.286 1.24 4.694 2.125 6.82 3.762 9.28h-.002c1.139 1.712 1.44 2.06 3.366 3.965l.054.052.05.057c.823.908 1.834 1.954 2.717 3.183a14 14 0 0 1 5.24-3.678c-1.414-2.283-2.569-4.618-3.512-6.532v-.003c-3.898-7.937-4.687-9.177-7.874-12.247-2.08-2.004-3.809-3.255-5.494-4.077-.232-.113-.081-.047-.267-.115m44.68.014c-.126.055-.128.032-.269.101-1.685.822-3.412 2.073-5.493 4.077-3.188 3.07-3.976 4.31-7.875 12.247v.003c-.943 1.915-2.1 4.251-3.513 6.535a14 14 0 0 1 5.241 3.678c.884-1.23 1.894-2.278 2.718-3.186l.05-.057.054-.052c1.926-1.904 2.227-2.253 3.366-3.965h-.003c1.637-2.46 2.522-4.586 3.763-9.28 1.119-4.235 1.758-7.338 1.952-9.286.04-.41.003-.516.008-.815" style="opacity:.3;filter:url(#f);fill:url(#g);fill-opacity:1"/><path d="M9.86 7.232c.005.302-.033.413.009.829.193 1.948.833 5.05 1.952 9.286 1.24 4.694 2.125 6.82 3.762 9.28h-.002c1.139 1.712 1.44 2.06 3.366 3.965l.054.052.05.057c.823.908 1.834 1.954 2.717 3.183a14 14 0 0 1 5.24-3.678c-1.414-2.283-2.569-4.618-3.512-6.532v-.003c-3.898-7.937-4.687-9.177-7.874-12.247-2.08-2.004-3.809-3.255-5.494-4.077-.232-.113-.081-.047-.267-.115m44.68.014c-.126.055-.128.032-.269.101-1.685.822-3.412 2.073-5.493 4.077-3.188 3.07-3.976 4.31-7.875 12.247v.003c-.943 1.915-2.1 4.251-3.513 6.535a14 14 0 0 1 5.241 3.678c.884-1.23 1.894-2.278 2.718-3.186l.05-.057.054-.052c1.926-1.904 2.227-2.253 3.366-3.965h-.003c1.637-2.46 2.522-4.586 3.763-9.28 1.119-4.235 1.758-7.338 1.952-9.286.04-.41.003-.516.008-.815" style="opacity:.41043724"/><path d="M32 54c-2.575-.198-4.787-3.066-3.73-4.48A5.25 5.25 0 0 1 32 48a5.25 5.25 0 0 1 3.73 1.52c1.057 1.414-1.155 4.282-3.73 4.48" style="fill:url(#h)"/><path d="M32.055 54c-2.576-.198-4.787-3.066-3.73-4.48a5.25 5.25 0 0 1 3.73-1.52 5.25 5.25 0 0 1 3.73 1.52c1.057 1.414-1.155 4.282-3.73 4.48Z" style="fill:none;stroke:#000;stroke-opacity:1;stroke-width:.1;stroke-dasharray:none;filter:url(#i)"/><path d="M22.727 40c-1.902 0-1.723 1.343-1.723 3s2.747 3 4.648 3c2.238 0 1.963-5.493-2.925-6m18.548 0c-4.888.507-5.165 6-2.927 6 1.901 0 4.648-1.343 4.648-3s.181-3-1.72-3" style="fill:#fff"/><path d="M25.909 43.682a1.5 1.5 0 0 1-1.5 1.5 1.5 1.5 0 0 1-1.5-1.5 1.5 1.5 0 0 1 1.5-1.5 1.5 1.5 0 0 1 1.5 1.5" style="fill:#323232"/><path d="M22.727 40c-1.902 0-1.723 1.343-1.723 3s2.747 3 4.648 3c2.238 0 1.963-5.493-2.925-6zm18.548 0c-4.888.507-5.165 6-2.927 6 1.901 0 4.648-1.343 4.648-3s.181-3-1.72-3z" style="fill:none;stroke:#000;stroke-width:.1;stroke-dasharray:none;stroke-opacity:1;filter:url(#j)"/><path d="M-37.928 43.682a1.5 1.5 0 0 1-1.5 1.5 1.5 1.5 0 0 1-1.5-1.5 1.5 1.5 0 0 1 1.5-1.5 1.5 1.5 0 0 1 1.5 1.5" style="fill:#323232" transform="scale(-1 1)"/></svg>