<svg xmlns="http://www.w3.org/2000/svg" xmlns:xlink="http://www.w3.org/1999/xlink" width="64" height="64"><defs><radialGradient xlink:href="#a" id="e" cx="5.812" cy="60.554" r="21.135" fx="5.812" fy="60.554" gradientTransform="rotate(-15.6 -443.139 170.746)scale(4.15622 2.72265)" gradientUnits="userSpaceOnUse"/><radialGradient xlink:href="#b" id="c" cx="56.767" cy="-29.18" r="14.046" fx="56.767" fy="-29.18" gradientTransform="rotate(-8.652 1056.351 2207.139)scale(5.83998 3.82565)" gradientUnits="userSpaceOnUse"/><linearGradient id="a"><stop offset="0" style="stop-color:#68e4aa;stop-opacity:1"/><stop offset="1" style="stop-color:#2e8f5b;stop-opacity:1"/></linearGradient><linearGradient id="b"><stop offset="0" style="stop-color:#31dc8d;stop-opacity:1"/><stop offset="1" style="stop-color:#2e8f5b;stop-opacity:1"/></linearGradient><filter id="d" width="1.239" height="1.248" x="-.119" y="-.124" style="color-interpolation-filters:sRGB"><feGaussianBlur stdDeviation="2.533"/></filter><filter id="f" width="1.314" height="1.485" x="-.157" y="-.243" style="color-interpolation-filters:sRGB"><feGaussianBlur stdDeviation="2.712"/></filter></defs><path d="M19.218 6.81c-7.22-.005-13.075 5.845-13.078 13.064s5.847 13.074 13.066 13.076a13.07 13.07 0 0 0 10.309-5.037 13.07 13.07 0 0 0 10.273 5.047c7.22.003 13.074-5.847 13.076-13.066A13.07 13.07 0 0 0 39.798 6.819a13.07 13.07 0 0 0-10.293 5.059A13.07 13.07 0 0 0 19.218 6.81m.117 6.535q.33.006.666.047c3.573.435 6.135 3.706 5.7 7.279-.436 3.572-3.71 6.132-7.282 5.697s-6.133-3.707-5.697-7.28c.408-3.349 3.308-5.808 6.613-5.743m20.584.008q.33.006.666.046c3.573.436 6.133 3.707 5.697 7.28-.435 3.572-3.707 6.134-7.28 5.699-3.572-.435-6.134-3.707-5.698-7.28.408-3.349 3.31-5.81 6.615-5.745M19.296 15.21a4.654 4.654 0 0 0-4.72 4.105 4.654 4.654 0 0 0 4.07 5.2 4.654 4.654 0 0 0 5.199-4.07 4.654 4.654 0 0 0-4.07-5.2q-.24-.03-.48-.035m20.584.01a4.65 4.65 0 0 0-4.72 4.103 4.656 4.656 0 0 0 4.07 5.201 4.654 4.654 0 0 0 5.199-4.07 4.654 4.654 0 0 0-4.07-5.2q-.24-.028-.48-.034M55.52 31.882a2.5 2.5 0 0 0-1.535.402l-5.494 3.594v6.8l5.477 3.532c1.679 1.083 3.891-.123 3.89-2.121v-9.71a2.503 2.503 0 0 0-2.338-2.497M9.653 36.549c-.967 0-1.751.785-1.752 1.752v.114c0 .968.784 1.753 1.752 1.754h4.102v-3.62zm14.819 10.694-5.623 5.976c-1.201 1.277-.296 3.371 1.457 3.371h18.357c1.743 0 2.636-2.089 1.432-3.35l-5.725-5.997z" style="fill:url(#c);stroke:none;stroke-width:.0933827;stroke-linecap:round;stroke-linejoin:round;stroke-miterlimit:4.1;stroke-dasharray:none;stroke-opacity:1;paint-order:stroke fill markers"/><path d="M19.218 6.81c-7.22-.005-13.075 5.845-13.078 13.064s5.847 13.074 13.066 13.076a13.07 13.07 0 0 0 10.309-5.037 13.07 13.07 0 0 0 10.273 5.047c7.22.003 13.074-5.847 13.076-13.066A13.07 13.07 0 0 0 39.798 6.819a13.07 13.07 0 0 0-10.293 5.059A13.07 13.07 0 0 0 19.218 6.81m.117 6.535q.33.006.666.047c3.573.435 6.135 3.706 5.7 7.279-.436 3.572-3.71 6.132-7.282 5.697s-6.133-3.707-5.697-7.28c.408-3.349 3.308-5.808 6.613-5.743m20.584.008q.33.006.666.046c3.573.436 6.133 3.707 5.697 7.28-.435 3.572-3.707 6.134-7.28 5.699-3.572-.435-6.134-3.707-5.698-7.28.408-3.349 3.31-5.81 6.615-5.745M19.296 15.21a4.654 4.654 0 0 0-4.72 4.105 4.654 4.654 0 0 0 4.07 5.2 4.654 4.654 0 0 0 5.199-4.07 4.654 4.654 0 0 0-4.07-5.2q-.24-.03-.48-.035m20.584.01a4.65 4.65 0 0 0-4.72 4.103 4.656 4.656 0 0 0 4.07 5.201 4.654 4.654 0 0 0 5.199-4.07 4.654 4.654 0 0 0-4.07-5.2q-.24-.028-.48-.034M55.52 31.882a2.5 2.5 0 0 0-1.535.402l-5.494 3.594v6.8l5.477 3.532c1.679 1.083 3.891-.123 3.89-2.121v-9.71a2.503 2.503 0 0 0-2.338-2.497M9.653 36.549c-.967 0-1.751.785-1.752 1.752v.114c0 .968.784 1.753 1.752 1.754h4.102v-3.62zm14.819 10.694-5.623 5.976c-1.201 1.277-.296 3.371 1.457 3.371h18.357c1.743 0 2.636-2.089 1.432-3.35l-5.725-5.997z" style="fill:none;stroke:#000;stroke-width:.19999999;stroke-linecap:round;stroke-linejoin:round;stroke-miterlimit:4.1;stroke-dasharray:none;stroke-opacity:1;paint-order:stroke fill markers;filter:url(#d)"/><path d="M13.592 27.112h30.736a5.717 5.717 45 0 1 5.717 5.717v15.829a5.717 5.717 135 0 1-5.717 5.717H13.592a5.717 5.717 45 0 1-5.717-5.717V32.829a5.717 5.717 135 0 1 5.717-5.717" style="fill:url(#e);stroke:none;stroke-width:.1;stroke-linecap:round;stroke-linejoin:round;stroke-miterlimit:4.1;paint-order:stroke fill markers" transform="translate(2.415 .325)scale(.93383)"/><path d="M13.592 27.112h30.736a5.717 5.717 45 0 1 5.717 5.717v15.829a5.717 5.717 135 0 1-5.717 5.717H13.592a5.717 5.717 45 0 1-5.717-5.717V32.829a5.717 5.717 135 0 1 5.717-5.717" style="fill:none;stroke:#000;stroke-width:.214172;stroke-linecap:round;stroke-linejoin:round;stroke-miterlimit:4.1;stroke-dasharray:none;stroke-opacity:1;paint-order:stroke fill markers;filter:url(#f)" transform="translate(2.415 -.559)scale(.93383)"/></svg>