<svg xmlns="http://www.w3.org/2000/svg" xmlns:xlink="http://www.w3.org/1999/xlink" width="64" height="64"><defs><filter id="d" width="1.248" height="1.161" x="-.124" y="-.081" style="color-interpolation-filters:sRGB"><feGaussianBlur stdDeviation="1.801"/></filter><filter id="g" width="1.35" height="1.197" x="-.175" y="-.098" style="color-interpolation-filters:sRGB"><feGaussianBlur stdDeviation="1.801"/></filter><filter id="f" width="1.539" height="1.303" x="-.269" y="-.151" style="color-interpolation-filters:sRGB"><feGaussianBlur stdDeviation="2.838"/></filter><radialGradient xlink:href="#a" id="c" cx="10.626" cy="52.319" r="19.004" fx="10.626" fy="52.319" gradientTransform="rotate(-30 -379.965 215.659)scale(3.44632 5.31341)" gradientUnits="userSpaceOnUse"/><radialGradient xlink:href="#b" id="e" cx="26.47" cy="35.118" r="13.491" fx="26.47" fy="35.118" gradientTransform="matrix(2.40271 0 0 3.29064 -46.554 -65.614)" gradientUnits="userSpaceOnUse"/><linearGradient id="b"><stop offset="0" style="stop-color:#64cacc;stop-opacity:1"/><stop offset="1" style="stop-color:#45fcff;stop-opacity:1"/></linearGradient><linearGradient id="a"><stop offset="0" style="stop-color:#0e7879;stop-opacity:1"/><stop offset="1" style="stop-color:#0e6179;stop-opacity:1"/></linearGradient></defs><path d="M29.88 4.552c-.73 0-1.45.16-2.109.47-.708.333-2.52 1.321-3.637 2.875-1.117 1.553-1.67 3.127-2.395 5.489-1.452 4.723-3.406 12.982-7.405 29.634a4.97 4.97 0 0 0 .992 4.31s1.33 1.69 3.617 2.758 6.327 1.315 9.547-.85a4.97 4.97 0 0 0 2.026-2.835c.74-2.763.766-2.709 1.464-5.23.247 4.958.192 9.864.023 13.048-.244 4.627 5.42 7.038 8.585 3.654 10.759-11.504 10.714-25.297 6.84-35.271-1.937-4.987-4.7-9.166-7.571-12.277-1.436-1.556-2.892-2.848-4.432-3.86-1.54-1.01-3.101-1.915-5.546-1.915" style="fill:url(#c);stroke-width:.93681;stroke-linecap:round;stroke-linejoin:round"/><path d="M29.88 4.546c-.73 0-1.45.16-2.109.47-.708.332-2.52 1.321-3.637 2.874s-1.67 3.128-2.395 5.49c-1.452 4.723-3.406 12.982-7.405 29.633a4.97 4.97 0 0 0 .992 4.311s1.33 1.69 3.617 2.758c2.288 1.067 6.327 1.314 9.547-.851a4.97 4.97 0 0 0 2.026-2.834c.74-2.763.766-2.71 1.464-5.23.247 4.958.192 9.864.023 13.048-.244 4.626 5.42 7.037 8.585 3.654 10.759-11.505 10.714-25.298 6.84-35.271-1.937-4.987-4.7-9.166-7.571-12.278-1.436-1.556-2.892-2.848-4.432-3.859-1.54-1.01-3.101-1.915-5.546-1.915" style="fill:none;stroke-width:.20000001;stroke-linecap:round;stroke-linejoin:round;stroke:#000;stroke-opacity:1;stroke-dasharray:none;filter:url(#d)"/><path d="m19.361 44.179 4.507-14.582a.439.439 28.151 0 0-.76-.407l2.811-9.368.092-.092a2.36 2.36 108.17 0 0 .665-2.027l-.038-.25 1.155-4.189s1.103-3.747 2.286-3.747c3.546 0 6.145 4.684 6.145 4.684.138 1.363-.937 1.874-.937 1.874l.218-.08a2.14 2.14 19.7 0 1 2.57.921l1.93 3.254a3.88 3.88 83.89 0 1 .342 3.207l-.844 2.534.822-.493c.84-.504 1.892-.21 2.273.692.831 1.964 2.052 5.509 2.04 9.37-.008 2.786-.675 5.63-1.556 8.273-2.364 7.09-5.921 10.73-5.921 10.73s2.222-6.568 1.873-7.494c-.349-.925-2.81-1.873-2.81-1.873s2.675.724 2.982.11-2.982-2.92-2.982-2.92 3.03.351 3.311-.916c.282-1.268-3.311-2.832-3.311-2.832s2.67.11 2.81-.937-2.81-1.873-2.81-1.873 1.645-1.322 1.874-1.874c.228-.552.441-.495 0-.937-.442-.441-2.81 0-2.81 0s4.696-2.308 3.746-3.747-4.684 1.874-4.684 1.874 2.36-1.902 1.874-2.81c-.487-.91-2.81 0-2.81 0s3.758-2.613 2.81-3.748-3.747 1.874-3.747 1.874 1.696-2.845 1.405-3.748c-.291-.902-.626-1.134-1.405-.936-.716.18-5.205 17.998-6.312 22.43-.136.547-.569 1.313-.967 1.71l-.216.217s.778-1.624 0-1.874c-.777-.25-2.81 3.747-2.81 3.747s1.286-2.56.937-2.81c-.35-.25-1.763 1.433-1.763 1.433s1.402-1.863.826-2.37-1.874.937-1.874.937 1.733-2.319.937-2.81-1.874 1.873-1.874 1.873" style="fill:url(#e);stroke-width:.93681"/><path d="m19.361 44.179 4.507-14.582a.439.439 28.151 0 0-.76-.407l2.811-9.368.092-.092a2.36 2.36 108.17 0 0 .665-2.027l-.038-.25 1.155-4.189s1.103-3.747 2.286-3.747c3.546 0 6.145 4.684 6.145 4.684.138 1.363-.937 1.874-.937 1.874l.218-.08a2.14 2.14 19.7 0 1 2.57.921l1.93 3.254a3.88 3.88 83.89 0 1 .342 3.207l-.844 2.534.822-.493c.84-.504 1.892-.21 2.273.692.831 1.964 2.052 5.509 2.04 9.37-.008 2.786-.675 5.63-1.556 8.273-2.364 7.09-5.921 10.73-5.921 10.73s2.222-6.568 1.873-7.494c-.349-.925-2.81-1.873-2.81-1.873s2.675.724 2.982.11-2.982-2.92-2.982-2.92 3.03.351 3.311-.916c.282-1.268-3.311-2.832-3.311-2.832s2.67.11 2.81-.937-2.81-1.873-2.81-1.873 1.645-1.322 1.874-1.874c.228-.552.441-.495 0-.937-.442-.441-2.81 0-2.81 0s4.696-2.308 3.746-3.747-4.684 1.874-4.684 1.874 2.36-1.902 1.874-2.81c-.487-.91-2.81 0-2.81 0s3.758-2.613 2.81-3.748-3.747 1.874-3.747 1.874 1.696-2.845 1.405-3.748c-.291-.902-.626-1.134-1.405-.936-.716.18-5.205 17.998-6.312 22.43-.136.547-.569 1.313-.967 1.71l-.216.217s.778-1.624 0-1.874c-.777-.25-2.81 3.747-2.81 3.747s1.286-2.56.937-2.81c-.35-.25-1.763 1.433-1.763 1.433s1.402-1.863.826-2.37-1.874.937-1.874.937 1.733-2.319.937-2.81-1.874 1.873-1.874 1.873" style="fill:#00fffa;stroke-width:.93681;fill-opacity:1;filter:url(#f);opacity:.53173484"/><path d="m19.361 44.179 4.507-14.582a.439.439 28.151 0 0-.76-.407l2.811-9.368.092-.092a2.36 2.36 108.17 0 0 .665-2.027l-.038-.25 1.155-4.189s1.103-3.747 2.286-3.747c3.546 0 6.145 4.684 6.145 4.684.138 1.363-.937 1.874-.937 1.874l.218-.08a2.14 2.14 19.7 0 1 2.57.921l1.93 3.254a3.88 3.88 83.89 0 1 .342 3.207l-.844 2.534.822-.493c.84-.504 1.892-.21 2.273.692.831 1.964 2.052 5.509 2.04 9.37-.008 2.786-.675 5.63-1.556 8.273-2.364 7.09-5.921 10.73-5.921 10.73s2.222-6.568 1.873-7.494c-.349-.925-2.81-1.873-2.81-1.873s2.675.724 2.982.11-2.982-2.92-2.982-2.92 3.03.351 3.311-.916c.282-1.268-3.311-2.832-3.311-2.832s2.67.11 2.81-.937-2.81-1.873-2.81-1.873 1.645-1.322 1.874-1.874c.228-.552.441-.495 0-.937-.442-.441-2.81 0-2.81 0s4.696-2.308 3.746-3.747-4.684 1.874-4.684 1.874 2.36-1.902 1.874-2.81c-.487-.91-2.81 0-2.81 0s3.758-2.613 2.81-3.748-3.747 1.874-3.747 1.874 1.696-2.845 1.405-3.748c-.291-.902-.626-1.134-1.405-.936-.716.18-5.205 17.998-6.312 22.43-.136.547-.569 1.313-.967 1.71l-.216.217s.778-1.624 0-1.874c-.777-.25-2.81 3.747-2.81 3.747s1.286-2.56.937-2.81c-.35-.25-1.763 1.433-1.763 1.433s1.402-1.863.826-2.37-1.874.937-1.874.937 1.733-2.319.937-2.81-1.874 1.873-1.874 1.873z" style="fill:none;stroke-width:.2;stroke:#0fe;stroke-opacity:1;stroke-dasharray:none;stroke-linecap:square;stroke-linejoin:round;filter:url(#g)"/></svg>