<svg xmlns="http://www.w3.org/2000/svg" xmlns:xlink="http://www.w3.org/1999/xlink" width="64" height="64"><defs><filter id="c" width="1.288" height="1.288" x="-.144" y="-.144" style="color-interpolation-filters:sRGB"><feGaussianBlur stdDeviation="2.924"/></filter><filter id="d" width="1.128" height="1.134" x="-.064" y="-.067" style="color-interpolation-filters:sRGB"><feGaussianBlur stdDeviation="1.154"/></filter><radialGradient xlink:href="#a" id="b" cx="22.431" cy="39.551" r="24.69" fx="22.431" fy="39.551" gradientTransform="rotate(-15 -69.152 163.823)scale(1.9585)" gradientUnits="userSpaceOnUse"/><linearGradient id="a"><stop offset="0" style="stop-color:#e9b310;stop-opacity:1"/><stop offset="1" style="stop-color:#e97c10;stop-opacity:1"/></linearGradient></defs><rect width="49.379" height="49.379" x="7.31" y="7.31" rx="15.839" ry="15.839" style="fill:url(#b);stroke-width:.88177"/><rect width="49.379" height="49.379" x="7.31" y="7.31" rx="15.839" ry="15.839" style="fill:none;stroke-width:.2;stroke:#000;stroke-opacity:1;stroke-dasharray:none;filter:url(#c)"/><path d="M24.514 13.65a1.99 1.99 0 0 0-2.047 1.479l-.381 1.414c-.426 1.588 1.119 1.875.697 3.469l-1.812 6.982c-1.094 2.461-2.684 3.658-5.004 3.404-2.989 0-5.291 2.278-5.291 5.291q0 .752.203 1.475a4.96 4.96 0 0 1-1.152 4.387l-2.11 2.418A15.8 15.8 0 0 0 20.684 56.5l1.656-1.885c4.857-5.524 18.163-7.735 27.558-11.545 1.567-.759 2.826-2.29 2.35-4.07l-.312-1.17-31.079 8.328 8.329-31.297z" style="fill:#4bae4f;stroke-width:.88177;fill-opacity:1"/><path d="m26.885 19.675-1.22 4.55c6.134.225 12.956 3.054 17.636 7.055-3.711-5.486-10.17-9.923-16.416-11.605m1.426 10.723c4.128 2.837 7.663 7.829 9.7 12.345l4.051-1.085c-3.25-4.665-8.23-9.349-13.75-11.26" style="fill:#e4e4e4;stroke-width:.88177"/><circle cx="15.966" cy="35.689" r="4.409" style="fill:#e4e4e4;stroke-width:.88177"/><path d="M28.014 14.547 17.26 48.27h.002a1.21 1.21 0 0 0 1.483 1.48v.005l33.5-10.757-.313-1.17-31.077 8.328 8.33-31.296Z" style="fill:#79de7d;stroke-width:.88177"/><circle cx="16.848" cy="34.807" r="1.764" style="fill:#4f4f4f;stroke-width:.88177"/><path d="M24.3 14.526a1.279 1.213 0 0 0-1.28 1.214 1.279 1.213 0 0 0 .953 1.17 1.279 1.213 0 0 1-.178-.611 1.279 1.213 0 0 1 1.28-1.213 1.279 1.213 0 0 1 .325.043 1.279 1.213 0 0 0-1.1-.603" style="fill:#3c8b3f;stroke-width:.88177"/><g style="fill:none;stroke:#000;stroke-width:.2;stroke-linejoin:round;stroke-dasharray:none;stroke-opacity:1;filter:url(#d)" transform="translate(4.617 8.647)"><path d="M19.723 5a1.99 1.99 0 0 0-1.873 1.482l-.381 1.414c-.426 1.589 1.119 1.876.697 3.47l-1.812 6.982c-1.094 2.46-2.684 3.657-5.004 3.404-2.989 0-5.291 2.277-5.291 5.291q0 .752.203 1.475a4.96 4.96 0 0 1-1.153 4.386L3 35.322a15.8 15.8 0 0 0 13.066 12.532l1.657-1.885c4.856-5.525 18.163-7.735 27.558-11.545 1.567-.76 2.826-2.291 2.35-4.07l-.313-1.17h-.002l.313 1.168-33.5 10.757v-.004a1.212 1.212 0 0 1-1.483-1.48h-.002L23.393 5.91l-3.497-.906A2 2 0 0 0 19.723 5Zm-.041.879a1.279 1.213 0 0 1 1.101.603 1.279 1.213 0 0 0-.326-.043 1.279 1.213 0 0 0-1.28 1.213 1.279 1.213 0 0 0 .178.612 1.279 1.213 0 0 1-.953-1.17 1.279 1.213 0 0 1 1.28-1.215Zm2.377 9.762-5.82 21.869h.001l5.82-21.87zm-10.71 6.992a4.41 4.41 0 0 1 4.409 4.41 4.41 4.41 0 0 1-4.408 4.408 4.41 4.41 0 0 1-4.41-4.408 4.41 4.41 0 0 1 4.41-4.41z" style="fill:none;stroke:#000;stroke-width:.2;stroke-linejoin:round;stroke-dasharray:none;stroke-opacity:1"/><path d="M23.213 11.305 22.06 15.64c5.861.476 12.198 3.21 16.623 6.992-3.525-5.21-9.527-9.471-15.471-11.328zm.48 10.447c3.81 2.618 7.115 7.071 9.203 11.293l3.833-1.025c-3.243-4.324-7.907-8.493-13.036-10.268Zm-12.343.881a4.41 4.41 0 0 0-4.41 4.41 4.41 4.41 0 0 0 4.41 4.408 4.41 4.41 0 0 0 4.408-4.408 4.41 4.41 0 0 0-4.408-4.41zm.88 1.763a1.764 1.764 0 0 1 1.764 1.764 1.764 1.764 0 0 1-1.764 1.764 1.764 1.764 0 0 1-1.763-1.764 1.764 1.764 0 0 1 1.763-1.764z" style="fill:none;stroke:#000;stroke-width:.2;stroke-linejoin:round;stroke-dasharray:none;stroke-opacity:1"/><path d="M23.396 5.9 12.645 39.625h.002a1.208 1.208 0 0 0 1.482 1.48v.004l33.5-10.757-.313-1.17-31.078 8.328 8.33-31.295zM12.23 24.396a1.764 1.764 0 0 0-1.763 1.764 1.764 1.764 0 0 0 1.763 1.764 1.764 1.764 0 0 0 1.764-1.764 1.764 1.764 0 0 0-1.764-1.764zm7.452-18.517a1.279 1.213 0 0 0-1.28 1.215 1.279 1.213 0 0 0 .953 1.17 1.279 1.213 0 0 1-.177-.612 1.279 1.213 0 0 1 1.279-1.213 1.279 1.213 0 0 1 .326.043 1.279 1.213 0 0 0-1.101-.603Z" style="fill:none;stroke:#000;stroke-width:.2;stroke-linejoin:round;stroke-dasharray:none;stroke-opacity:1"/></g></svg>