<svg xmlns="http://www.w3.org/2000/svg" xmlns:xlink="http://www.w3.org/1999/xlink" width="64" height="64"><defs><filter id="d" width="1.48" height="1.48" x="-.24" y="-.24" style="color-interpolation-filters:sRGB"><feGaussianBlur stdDeviation="2.094"/></filter><filter id="c" width="1.282" height="1.282" x="-.141" y="-.141" style="color-interpolation-filters:sRGB"><feGaussianBlur stdDeviation="2.878"/></filter><radialGradient xlink:href="#a" id="b" cx="6.945" cy="57.124" r="24.862" fx="6.945" fy="57.124" gradientTransform="rotate(-15 -261.257 126.143)scale(2.25634)" gradientUnits="userSpaceOnUse"/><linearGradient id="a"><stop offset="0" style="stop-color:#4949b1;stop-opacity:1"/><stop offset="1" style="stop-color:#7a49b1;stop-opacity:1"/></linearGradient></defs><rect width="49.724" height="49.724" x="7.138" y="7.138" rx="14.351" ry="14.351" style="fill:url(#b);stroke-width:.887936"/><rect width="49.724" height="49.724" x="7.138" y="7.138" rx="14.351" ry="14.351" style="fill:none;stroke-width:.2;stroke:#000;stroke-opacity:1;stroke-dasharray:none;filter:url(#c)"/><path d="M35.553 8.44h10.34a9.073 9.073 45 0 1 9.073 9.072v10.34a1.528 1.528 157.5 0 1-2.608 1.08L34.473 11.048a1.528 1.528 112.5 0 1 1.08-2.608z" style="opacity:.553435;fill:#fff;fill-opacity:1;stroke:#000;stroke-width:0;filter:url(#d)" transform="translate(7.745 7.017)scale(.77127)"/><path d="M35.553 8.44h10.34a9.073 9.073 45 0 1 9.073 9.072v10.34a1.528 1.528 157.5 0 1-2.608 1.08L34.473 11.048a1.528 1.528 112.5 0 1 1.08-2.608z" style="opacity:.514645;fill:#fff;fill-opacity:1;stroke:#000;stroke-width:0" transform="translate(2.241 5.123)scale(.88794)"/></svg>