<svg xmlns="http://www.w3.org/2000/svg" xmlns:xlink="http://www.w3.org/1999/xlink" width="64" height="64"><defs><radialGradient xlink:href="#a" id="d" cx="44.794" cy="-20.274" r="28" fx="44.794" fy="-20.274" gradientTransform="rotate(15 -511.437 -356.476)scale(3.33485 4.98862)" gradientUnits="userSpaceOnUse"/><radialGradient xlink:href="#b" id="c" cx="37.959" cy="11.251" r="28" fx="37.959" fy="11.251" gradientTransform="rotate(135 60.366 2.993)scale(2.25983 1.89666)" gradientUnits="userSpaceOnUse"/><linearGradient id="b"><stop offset="0" style="stop-color:#00ffa4;stop-opacity:1"/><stop offset="1" style="stop-color:#5cc49f;stop-opacity:0"/></linearGradient><linearGradient id="a"><stop offset="0" style="stop-color:#006541;stop-opacity:1"/><stop offset="1" style="stop-color:#5cc49f;stop-opacity:0"/></linearGradient><filter id="e" width="1.222" height="1.265" x="-.111" y="-.132" style="color-interpolation-filters:sRGB"><feGaussianBlur stdDeviation="2.549"/></filter></defs><path d="M5.991 45.87c.63 3.447 1.304 8.086 6.521 8.086 6.521 0 9.13-4.644 16.955-4.644s9.13 4.643 16.955 4.643c3.912 0 11.738-4.998 11.738-10.407 0-8.086-8.937-7.743-10.787-13.476-1.304-4.043 1.657-20.028-7.472-20.028-7.826 0-10.434 10.595-13.042 15.985-3.236 6.687-11.738 8.086-18.26 12.129-2.357 1.461-3.118 4.92-2.608 7.712" style="fill:#5cc49f;stroke-width:.934272"/><path d="M5.991 45.87c.63 3.447 1.304 8.086 6.521 8.086 6.521 0 9.13-4.644 16.955-4.644s9.13 4.643 16.955 4.643c3.912 0 11.738-4.998 11.738-10.407 0-8.086-8.937-7.743-10.787-13.476-1.304-4.043 1.657-20.028-7.472-20.028-7.826 0-10.434 10.595-13.042 15.985-3.236 6.687-11.738 8.086-18.26 12.129-2.357 1.461-3.118 4.92-2.608 7.712" style="fill:url(#c);stroke-width:.934272"/><path d="M5.991 45.87c.63 3.447 1.304 8.086 6.521 8.086 6.521 0 9.13-4.644 16.955-4.644s9.13 4.643 16.955 4.643c3.912 0 11.738-4.998 11.738-10.407 0-8.086-8.937-7.743-10.787-13.476-1.304-4.043 1.657-20.028-7.472-20.028-7.826 0-10.434 10.595-13.042 15.985-3.236 6.687-11.738 8.086-18.26 12.129-2.357 1.461-3.118 4.92-2.608 7.712" style="fill:url(#d);stroke-width:.934272"/><path d="M4.162 46.846c.673 3.69 1.395 8.654 6.98 8.654 6.98 0 9.771-4.97 18.147-4.97s9.772 4.97 18.147 4.97C51.624 55.5 60 50.15 60 44.36c0-8.654-9.565-8.287-11.545-14.424C47.059 25.61 50.228 8.5 40.457 8.5c-8.376 0-11.168 11.34-13.96 17.109-3.464 7.157-12.564 8.655-19.544 12.982-2.523 1.564-3.337 5.266-2.791 8.255z" style="mix-blend-mode:normal;fill:none;stroke:#000;stroke-width:.2;stroke-dasharray:none;stroke-opacity:1;filter:url(#e)" transform="translate(2.103 2.103)scale(.93427)"/></svg>