<svg xmlns="http://www.w3.org/2000/svg" width="64" height="64"><rect width="20" height="22" x="22" y="39" rx="2" ry="2" style="opacity:.2"/><rect width="20" height="22" x="22" y="38" rx="2" ry="2" style="fill:#c0bfbc"/><path d="M25 54h4v3h-4zm10 0h4v3h-4z" style="opacity:.3"/><rect width="40" height="46" x="12" y="5" rx="4" ry="4" style="opacity:.2"/><rect width="40" height="46" x="12" y="4" rx="4" ry="4" style="fill:#fdd005"/><path d="M30.71 8.32c-2.93.67-5.26 2.55-6.24 5.3-.71 1.99-.85 4.1-1.32 6.14-.28 1.25-1.34 3.04-3.6 5.64l-.55.07v.99l1.51-.06c2.299-.091 4.57 1.44 6 2.92.86.89 2.13 3.01 2.13 3.01.82 1.38 1.56 2.81 2.32 4.22 1.13 2.13 2.08 4.37 3.48 6.36 1.05 1.49 2.47 2.99 3.99 4.09H40c-.436-5.034 1.52-10.98 1.8-15.68.07-1.56-.06-3.16-.32-4.71-.53-3.18-2.9-6.94-.59-9.86.27-.34.58-.57.98-.93 1.23-1.12 2.39-2.54 2.58-4.2.05-.38.04-.7.07-.92.33-.35.52-.89.46-1.36a1 1 0 0 0-.3-.61c-.17-.16-.43-.27-.78-.29.09.23.08.42.05.59-.04.16-.11.32-.24.49-.04.06-.09.11-.15.17a1 1 0 0 0 0-.34c-.04-.16-.12-.31-.23-.45-.11-.13-.24-.26-.4-.38-.54.08-1.09.11-1.7.1-.36 0-.75-.02-1.18-.06-1.983-.142-4.343-.56-6.21-.56-1.05 0-2.09.08-3.13.32" style="opacity:.2"/><path d="M30.71 7.32c-2.93.67-5.26 2.55-6.24 5.3-.71 1.99-.85 4.1-1.32 6.14-.28 1.25-1.34 3.04-3.6 5.64l-.55.07v.99l1.51-.06c2.299-.091 4.57 1.44 6 2.92.86.89 2.13 3.01 2.13 3.01.82 1.38 1.56 2.81 2.32 4.22 1.13 2.13 2.08 4.37 3.48 6.36 1.05 1.49 2.47 2.99 3.99 4.09H40c-.436-5.034 1.52-10.98 1.8-15.68.07-1.56-.06-3.16-.32-4.71-.53-3.18-2.9-6.94-.59-9.86.27-.34.58-.57.98-.93 1.23-1.12 2.39-2.54 2.58-4.2.05-.38.04-.7.07-.92.33-.35.52-.89.46-1.36a1 1 0 0 0-.3-.61c-.17-.16-.43-.27-.78-.29.09.23.08.42.05.59-.04.16-.11.32-.24.49-.04.06-.09.11-.15.17a1 1 0 0 0 0-.34c-.04-.16-.12-.31-.23-.45-.11-.13-.24-.26-.4-.38-.54.08-1.09.11-1.7.1-.36 0-.75-.02-1.18-.06-1.983-.142-4.343-.56-6.21-.56-1.05 0-2.09.08-3.13.32" style="fill:#211e1e"/><path d="M16 4c-2.216 0-4 1.784-4 4v1c0-2.216 1.784-4 4-4h32c2.216 0 4 1.784 4 4V8c0-2.216-1.784-4-4-4z" style="fill:#fff;opacity:.3"/><path d="M42.551 8.051c-3.3.49-4.701.47-7.621.16-3.02-.31-5.52 1.089-7.25 3.18.49.43.61 1.268.23 2.048-.43.91-1.35 1.411-2.08 1.131-.598 1.762-1.121 3.537-1.9 5.231-1.53 2.93-2.5 3.539-3.42 4.629 3.16-.05 4.931 1.109 6.121 1.929q.419.298.808.641c1.64 1.44 2.672 3.45 3.622 5.34l.259.529c1.23 2.46 3.161 8.11 6.071 9.82-1.51-1.83-2.311-3.199-3.461-5.769-.64-1.43-1.1-3.211-2.77-6.471s-5.29-7.12-3.76-11c.17 2.64 1.359 4.501 2.709 5.631-2.32-3.92-1.989-8.309-1.189-9.949.61-1.26 1.41-2.29 2.59-3.24-.67 1.63-.28 2.349-.28 2.349s.37-1.84 1.35-2.81c.97-.96 1.651-1.18 2.141-1.85.37-.51 2.049-1.041 3.279-.041-1.01 1.65-2.03 1.531-3.26 1.221 2.88 1.48 3.99-1.03 3.99-1.03s-.169-.3-.509-.58c1.29.2 3.28.061 4.33-1.099M36.08 9.35c-.31.12-.66.54-.57.871.08.31.5.33.84.09a.51.51 0 0 1-.34-.371.87.87 0 0 1 .07-.59" style="fill:#fff"/></svg>