<svg xmlns="http://www.w3.org/2000/svg" xmlns:xlink="http://www.w3.org/1999/xlink" width="64" height="64"><defs><radialGradient xlink:href="#a" id="b" cx="9.342" cy="54.739" r="27.962" fx="9.342" fy="54.739" gradientTransform="rotate(-30 -111.03 101.48)scale(2.1946)" gradientUnits="userSpaceOnUse"/><linearGradient id="a"><stop offset="0" style="stop-color:#d94672;stop-opacity:1"/><stop offset="1" style="stop-color:#d27852;stop-opacity:1"/></linearGradient><filter id="c" width="1.307" height="1.307" x="-.153" y="-.153" style="color-interpolation-filters:sRGB"><feGaussianBlur stdDeviation="3.061"/></filter></defs><rect width="48.857" height="48.857" x="7.571" y="7.571" rx="10.915" ry="10.915" style="opacity:1;fill:url(#b);fill-opacity:1;stroke-width:.873631;stroke-linecap:round;stroke-linejoin:round;paint-order:stroke markers fill"/><rect width="48.857" height="48.857" x="7.571" y="7.571" rx="10.915" ry="10.915" style="opacity:1;fill:none;fill-opacity:1;stroke:#000;stroke-width:.3;stroke-linecap:round;stroke-linejoin:round;stroke-opacity:1;paint-order:stroke markers fill;stroke-dasharray:none;filter:url(#c)"/><path d="m14.188 14.125 7.795 7.845A6.88 6.88 22.59 0 0 26.862 24h10.894A2.244 2.244 45 0 1 40 26.244v10.832a6.88 6.88 67.41 0 0 2.03 4.879l7.97 7.92V20.634a6.51 6.51 45 0 0-6.509-6.509zM24 26.312l-8.337 8.129A5.5 5.5 112.863 0 0 14 38.384v6.859A4.757 4.757 45 0 0 18.757 50h7.67a5.56 5.56 157.318 0 0 3.955-1.652L38.624 40h-12.47A2.155 2.155 45 0 1 24 37.845Z" style="opacity:.89488;fill:#fff" transform="translate(4.044 3.985)scale(.87363)"/></svg>