<svg xmlns="http://www.w3.org/2000/svg" xmlns:xlink="http://www.w3.org/1999/xlink" width="64" height="64" viewBox="0 0 16.933 16.933"><defs><filter id="e" width="1.231" height="1.231" x="-.116" y="-.116" style="color-interpolation-filters:sRGB"><feGaussianBlur stdDeviation="5.077"/></filter><filter id="b" width="1.471" height="1.274" x="-.236" y="-.14" style="color-interpolation-filters:sRGB"><feGaussianBlur stdDeviation=".327"/></filter><filter id="d" width="1.357" height="1.272" x="-.178" y="-.136" style="color-interpolation-filters:sRGB"><feGaussianBlur stdDeviation=".226"/></filter><radialGradient xlink:href="#a" id="c" cx="44.41" cy="43.335" r="48.046" fx="44.41" fy="43.335" gradientTransform="rotate(45 14.427 3.392)scale(.26827 .25777)" gradientUnits="userSpaceOnUse"/><linearGradient id="a"><stop offset="0" style="stop-color:#fff;stop-opacity:1"/><stop offset="1" style="stop-color:#d3eeff;stop-opacity:1"/></linearGradient></defs><circle cx="8.467" cy="8.467" r="6.842" style="fill:#363671;fill-opacity:1;stroke:none;stroke-width:.0347985;stroke-linecap:round;stroke-linejoin:round;stroke-miterlimit:2.1;stroke-dasharray:none;stroke-opacity:1;paint-order:markers stroke fill"/><path d="M7.116 15.167q.656.13 1.35.134c3.113.024 4.086-2.856 3.612-4.347-.34.077-.908-2.125-1.447-1.491-.088 5.401-1.968 5.165-3.515 5.704m-1.59-4.712c-.688.437-1.404 1.905-.43 3.957h.002c.295.168.444.266.944.418 7.336-.659 4.515-4.022.729-4.382-.17-.078-1.118.113-1.245.007" style="fill:#8dc3ff;stroke:none;stroke-width:.0223259;stroke-dasharray:none;stroke-opacity:1;fill-opacity:1"/><path d="M4.782 8.156C4.2 9.601 3.737 9.96 2.636 10.348c.475.446.95.674 1.55.437-1.123 1.873-.516 2.787.903 3.613-.632-1.784-.075-3.24.429-3.957-.702-.584-.797-1.533-.736-2.285m4.954 4.113c-.751.613-2.598 2.333-3.154 2.115a2.7 2.7 0 0 1-.554.456q.513.196 1.06.31l.02.003c1.098-.082 2.762-1.027 3.038-1.504zm.372 2.094q-.189.085-.375.184c.27.061.512.098.736.113-.354.245-.744.4-1.137.567q.48-.06.936-.185l.02-.005q.216-.06.426-.135c.118-.06.221-.14.25-.25-.345.06-.717-.076-.856-.289m1.38.854-.035.001z" style="fill:#6790cd;fill-opacity:1;stroke:none;stroke-width:.0124726;stroke-dasharray:none;stroke-opacity:1"/><path d="M5.93 7.312c-.585 1.017-.397 2.124-.293 3.087-.003.674-.179 1.17-.727 1.145.065.623.18 1.42 1.653 2.077 1.044-.641 2.062-2.008 1.89-4.327-1.417-.464-1.796-.757-2.523-1.982Z" style="fill:#f5bc92;fill-opacity:1;stroke:#f5bc92;stroke-width:.0487115;stroke-dasharray:none;stroke-opacity:1"/><path d="M5.93 7.312c-.585 1.016-.397 2.123-.294 3.087-.003.674-.179 1.169-.726 1.145.064.623.18 1.419 1.652 2.076 1.044-.641 2.062-2.007 1.891-4.326-1.418-.464-1.797-.758-2.524-1.982Z" style="fill:none;fill-opacity:1;stroke:#b85126;stroke-width:.1;stroke-dasharray:none;stroke-opacity:1;filter:url(#b)"/><path d="M9.366 3.752c-1.95-.005-3.623 1.356-4.368 3.27-.024.06-.978 3.01 1.153 3.774-.224-.279-.165-.684-.16-.724.348.292.64.366 1.008.393-.642-.8-.764-1.108-.841-2.124.481.944.732 1.17 1.671 1.527.177 2.798-1.607 3.961-2.334 3.824.684.958 2.803 1.368 4.263-1.156.006.016.39.947-.863 1.662 2.325.304 2.033-3.02 1.825-4.401.173.936 1.01 1.22 1.35 1.143-.06.075-.48.159-.75.033.327 1.238.29 2.986-1.27 3.25.035.29.497.502.913.43-.028.108-.13.19-.249.25A6.84 6.84 0 0 0 15.21 9.51c-.337-.316-.636-.762-.815-1.385-.446-1.552-1.199-3.44-3.642-4.142a4.4 4.4 0 0 0-1.386-.232" style="display:inline;fill:url(#c);stroke-width:.0099001"/><path d="M7.433 10.77a1.48 1.48 0 0 1-.859.335c-.132.01-.183.103-.174.235a.53.53 0 0 1-.054.277c.227.003.3-.161.319-.287.376-.046.662-.26.768-.56" style="fill:#282828;stroke-width:.0099001"/><path d="m8.146 5.693 1.072 3.985c-.644-1.189-.979-1.424-2.06-1.575.861-.685 1.032-1.058.988-2.41" style="fill:#6ab5cd;fill-opacity:1;stroke:none;stroke-width:.0099001"/><path d="M9.211 9.674 8.14 5.69c.645 1.189.98 1.424 2.062 1.575-.863.685-1.033 1.058-.99 2.41" style="fill:#288bb0;fill-opacity:1;stroke:none;stroke-width:.0099001"/><path d="m8.155 5.676.008.026c.04 1.333-.133 1.707-.99 2.388 1.075.15 1.413.384 2.05 1.553l.004.018v-.01l.007.014-.007-.03c-.04-1.33.133-1.704.99-2.384-1.076-.15-1.414-.385-2.05-1.556l-.005-.015v.008z" style="opacity:.613197;mix-blend-mode:normal;fill:#fff;fill-opacity:1;stroke:none;stroke-width:.0099001;filter:url(#d)" transform="translate(1.222 1.078)scale(.85949)"/><circle cx="67.733" cy="67.733" r="54.859" style="mix-blend-mode:normal;fill:none;fill-opacity:1;stroke:#000;stroke-width:1;stroke-linecap:round;stroke-linejoin:round;stroke-miterlimit:2.1;stroke-dasharray:none;stroke-opacity:1;paint-order:markers stroke fill;filter:url(#e)" transform="translate(.019 .019)scale(.12473)"/></svg>