<svg xmlns="http://www.w3.org/2000/svg" xmlns:xlink="http://www.w3.org/1999/xlink" width="64" height="64"><defs><radialGradient xlink:href="#a" id="b" cx="5.953" cy="34.176" r="22.292" fx="5.953" fy="34.176" gradientTransform="rotate(46.253 70.487 53.196)scale(2.2064 2.56411)" gradientUnits="userSpaceOnUse"/><linearGradient id="a"><stop offset="0" style="stop-color:#52e192;stop-opacity:1"/><stop offset="1" style="stop-color:#2fa165;stop-opacity:1"/></linearGradient><filter id="c" width="1.225" height="1.384" x="-.112" y="-.192" style="color-interpolation-filters:sRGB"><feGaussianBlur stdDeviation="2.675"/></filter></defs><path d="m43.607 40.703-13.253 7.652a8.7 8.7 0 0 1-8.695 0L7.66 40.273a7.89 7.89 60 0 1-3.946-6.835V17.06a8.32 8.32 120 0 1 4.161-7.207L21.79 1.82a8.43 8.43 0 0 1 8.434 0l14.162 8.177a7.83 7.83 60 0 1 3.913 6.776V32.58a9.38 9.38 120 0 1-4.69 8.124z" style="fill:url(#b);fill-opacity:1;stroke:#fff;stroke-width:0;stroke-dasharray:none" transform="translate(1.687 2.738)scale(1.1656)"/><path d="M25.125.736a8.4 8.4 0 0 0-3.336 1.084L7.876 9.853a8.32 8.32 0 0 0-4.162 7.207v16.378a7.89 7.89 0 0 0 3.945 6.834l14 8.083a8.7 8.7 0 0 0 8.695 0l13.252-7.652a9.38 9.38 0 0 0 4.692-8.124V16.773a7.83 7.83 0 0 0-3.914-6.778L30.224 1.82a8.43 8.43 0 0 0-5.1-1.084zM12.323 12.064a1.89 1.89 0 0 1 1.401.845l2.843 4.346a17.83 17.83 0 0 1 9.415-2.686c3.464 0 6.701.994 9.464 2.715l2.837-4.34a1.82 1.82 0 0 1 1.154-.786 2 2 0 0 1 .354-.039 1.8 1.8 0 0 1 1.016.297 1.823 1.823 0 0 1 .528 2.524l-2.992 4.574a19.02 19.02 0 0 1 5.865 12.012c.093 1.906-1.813 1.905-1.813 1.905H9.516s-1.851 0-1.768-1.816a19.02 19.02 0 0 1 5.822-12.05l-3.001-4.591a1.886 1.886 0 0 1 .544-2.611 1.9 1.9 0 0 1 1.21-.299zm4.853 12.566a1.886 1.886 0 0 0-1.886 1.886 1.886 1.886 0 0 0 1.886 1.886 1.886 1.886 0 0 0 1.886-1.886 1.886 1.886 0 0 0-1.886-1.886zm17.605 0a1.886 1.886 0 0 0-1.886 1.886 1.886 1.886 0 0 0 1.886 1.886 1.886 1.886 0 0 0 1.886-1.886 1.886 1.886 0 0 0-1.886-1.886z" style="opacity:.269575;fill:#000;fill-opacity:1;stroke:#fff;stroke-width:0;stroke-dasharray:none" transform="translate(10.912 11.643)scale(.81088)"/><g style="filter:url(#c)" transform="translate(-17.095 14.303)scale(.50981)"><path d="M74.031 13.967a3 3 0 0 0-2.285 4.633l4.774 7.298a29.3 29.3 0 0 1 4.767-3.671l-4.521-6.913a3 3 0 0 0-2.735-1.347zm44.196.092a2.9 2.9 0 0 0-2.399 1.31l-4.514 6.902a29.3 29.3 0 0 1 4.61 3.55l4.758-7.276a2.9 2.9 0 0 0-2.455-4.486z" style="baseline-shift:baseline;display:inline;overflow:visible;fill:none;stroke:#000;stroke-width:.2;stroke-linecap:round;stroke-dasharray:none;stroke-opacity:1;enable-background:accumulate;stop-color:#000;stop-opacity:1"/><path d="M96.264 17.957c-15.145 0-27.591 11.898-29.002 27.111-.133 2.888 2.81 2.889 2.81 2.889h52.297s3.03-.002 2.883-3.033c-1.476-15.145-13.891-26.967-28.988-26.967Z" style="baseline-shift:baseline;display:inline;overflow:visible;fill:none;stroke:#000;stroke-width:.2;stroke-dasharray:none;stroke-opacity:1;enable-background:accumulate;stop-color:#000;stop-opacity:1"/></g></svg>