<svg xmlns="http://www.w3.org/2000/svg" width="64" height="64"><rect width="56" height="56" x="4" y="5" rx="4.2" ry="4.2" style="opacity:.2"/><rect width="56" height="56" x="4" y="4" rx="4.2" ry="4.2" style="fill:#475ad0"/><path d="M22.02 15c-2.696-.039-2.696 4.038 0 4H30c2.695-.039 2.695 4.038 0 4h-1.98c-2.696-.039-2.696 4.038 0 4H30c2.695-.039 2.695 4.038 0 4h-9.98c-2.696-.039-2.696 4.038 0 4H30c2.695-.039 2.695 4.038 0 4h-5.98c-2.696-.039-2.696 4.038 0 4H30c2.695-.039 2.695 4.038 0 4h-4c-2.695-.039-2.695 4.038 0 4h21c1.662 0 3-1.338 3-3V27L38 15h-8Zm-8 8c-2.692-.039-2.692 4.038 0 4h7.96c2.692.038 2.692-4.039 0-4zM16 39a2 2 0 1 0 0 4 2 2 0 0 0 0-4m.016 8c-2.686-.039-2.686 4.038 0 4h3.968c2.686.038 2.686-4.039 0-4z" style="opacity:.2"/><path d="M22.02 14c-2.696-.038-2.696 4.038 0 4H30c2.695-.038 2.695 4.038 0 4h-1.98c-2.696-.038-2.696 4.038 0 4H30c2.695-.038 2.695 4.038 0 4h-9.98c-2.696-.038-2.696 4.038 0 4H30c2.695-.038 2.695 4.038 0 4h-5.98c-2.696-.038-2.696 4.038 0 4H30c2.695-.038 2.695 4.038 0 4h-4c-2.695-.038-2.695 4.038 0 4h21c1.662 0 3-1.338 3-3V26L38 14h-8Zm-8 8c-2.692-.038-2.692 4.038 0 4h7.96c2.692.038 2.692-4.038 0-4zM16 38a2 2 0 1 0 0 4 2 2 0 0 0 0-4m.016 8c-2.686-.038-2.686 4.038 0 4h3.968c2.686.038 2.686-4.038 0-4z" style="fill:#fff"/><path d="M38 14v9.333A2.66 2.66 0 0 0 40.667 26H50Zm-3 27v4.5l1.719-1.719L39.937 47H41v-1.062l-3.219-3.22L39.5 41Zm6 0v1.063l3.219 3.218L42.5 47H47v-4.5l-1.719 1.719L42.06 41Z" style="fill:#979797"/><path d="M8.2 4A4.19 4.19 0 0 0 4 8.2v1A4.19 4.19 0 0 1 8.2 5h47.6A4.19 4.19 0 0 1 60 9.2v-1A4.19 4.19 0 0 0 55.8 4z" style="opacity:.1;fill:#fff"/></svg>