<svg xmlns="http://www.w3.org/2000/svg" xmlns:xlink="http://www.w3.org/1999/xlink" width="64" height="64"><defs><filter id="e" width="1.236" height="1.226" x="-.118" y="-.113" style="color-interpolation-filters:sRGB"><feGaussianBlur stdDeviation="1.788"/></filter><filter id="d" width="1.32" height="1.174" x="-.16" y="-.087" style="color-interpolation-filters:sRGB"><feGaussianBlur stdDeviation="1.361"/></filter><filter id="f" width="1.391" height="1.324" x="-.195" y="-.162" style="color-interpolation-filters:sRGB"><feGaussianBlur stdDeviation="1.016"/></filter><filter id="c" width="1.275" height="1.275" x="-.137" y="-.137" style="color-interpolation-filters:sRGB"><feGaussianBlur stdDeviation="2.818"/></filter><radialGradient xlink:href="#a" id="b" cx="19.367" cy="21.565" r="24.974" fx="19.367" fy="21.565" gradientTransform="rotate(30 105.372 -22.117)scale(2.72273)" gradientUnits="userSpaceOnUse"/><linearGradient id="a"><stop offset="0" style="stop-color:#3ac176;stop-opacity:1"/><stop offset="1" style="stop-color:#2fa165;stop-opacity:1"/></linearGradient></defs><circle cx="7.213" cy="42.171" r="2.734" style="fill:#199c71;stroke-width:.683587"/><path d="M20.566 7.902h23.249A13.35 13.35 45 0 1 57.164 21.25V44.5a13.35 13.35 135 0 1-13.35 13.349H20.567a13.35 13.35 45 0 1-13.35-13.35V21.252A13.35 13.35 135 0 1 20.567 7.9" style="fill:url(#b);stroke:none;stroke-width:0;stroke-linecap:round;stroke-linejoin:round" transform="translate(-.19 -.875)"/><path d="M50.075 23.33a2.7 2.7 0 0 0-2.203 1.272l-4.453 7.111a28.5 28.5 0 0 0-11.23-2.353 28.45 28.45 0 0 0-11.196 2.324l-4.436-7.082a2.7 2.7 0 0 0-2.2-1.27 2.7 2.7 0 0 0-1.53.412 2.703 2.703 0 0 0-.857 3.733l4.265 6.81a28.4 28.4 0 0 0-9.02 9.957v.256a13.35 13.35 0 0 0 13.23 13.338c8.605.001 16.037 0 23.544-.006A13.35 13.35 0 0 0 57.165 44.5v-.248a28.4 28.4 0 0 0-8.99-9.933l4.287-6.842a2.703 2.703 0 0 0-.858-3.733 2.7 2.7 0 0 0-1.529-.414M23.6 44.26a3.736 3.736 0 0 1 3.735 3.736 3.736 3.736 0 0 1-3.735 3.737 3.736 3.736 0 0 1-3.736-3.737A3.736 3.736 0 0 1 23.6 44.26m17.604.217a3.736 3.736 0 0 1 3.734 3.734 3.736 3.736 0 0 1-3.734 3.737 3.736 3.736 0 0 1-3.736-3.737 3.736 3.736 0 0 1 3.736-3.734" style="opacity:.25676717;mix-blend-mode:hard-light;fill:#004757;fill-opacity:1;stroke:none;stroke-width:0;stroke-linecap:round;stroke-linejoin:round" transform="translate(-.19 -.875)"/><path d="M20.566 7.902h23.249A13.35 13.35 45 0 1 57.164 21.25V44.5a13.35 13.35 135 0 1-13.35 13.349H20.567a13.35 13.35 45 0 1-13.35-13.35V21.252A13.35 13.35 135 0 1 20.567 7.9" style="fill:none;stroke:#000;stroke-width:.2;stroke-linecap:round;stroke-linejoin:round;stroke-dasharray:none;filter:url(#c)" transform="translate(-.19 -.875)"/><path d="m29.087 16.1 15.668 34.077a4.23 4.23 46.238 0 0 1.912 1.996l.338.173a2.04 2.04 155.327 0 0 2.916-1.34l.09-.372a4.22 4.22 84.397 0 0-.27-2.75L34.073 13.807Z" style="fill:#fff;fill-opacity:1;stroke:none;stroke-width:.461708;stroke-linecap:round;stroke-linejoin:round;stroke-dasharray:none;stroke-opacity:1" transform="translate(1.975 2.353)scale(.93406)"/><path d="m29.087 16.1 15.668 34.077a4.23 4.23 46.238 0 0 1.912 1.996l.338.173a2.04 2.04 155.327 0 0 2.916-1.34l.09-.372a4.22 4.22 84.397 0 0-.27-2.75L34.073 13.807Z" style="fill:none;fill-opacity:1;stroke:#000;stroke-width:.2;stroke-linecap:round;stroke-linejoin:round;stroke-dasharray:none;stroke-opacity:1;filter:url(#d)" transform="translate(1.972 2.352)scale(.93406)"/><path d="M29.923 13.918 14.7 47.786a5.04 5.04 94.16 0 0-.25 3.443l.004.015a2.028 2.028 24.181 0 0 2.832 1.271l.011-.005a5.04 5.04 134.226 0 0 2.408-2.474l5.591-12.438c10.31 2.018 21.011-2.938 25.978-12.559.334-.647.035-1.43-.63-1.728l-2.603-1.17c-.664-.3-1.44 0-1.785.642-3.682 6.86-11.177 10.56-18.632 9.637l7.305-16.253z" style="fill:#fff;fill-opacity:1;stroke:none;stroke-width:.461708;stroke-linecap:round;stroke-linejoin:round;stroke-dasharray:none;stroke-opacity:1" transform="translate(1.975 2.353)scale(.93406)"/><path d="M29.923 13.918 14.7 47.786a5.04 5.04 94.16 0 0-.25 3.443l.004.015a2.028 2.028 24.181 0 0 2.832 1.271l.011-.005a5.04 5.04 134.226 0 0 2.408-2.474l5.591-12.438c10.31 2.018 21.011-2.938 25.978-12.559.334-.647.035-1.43-.63-1.728l-2.603-1.17c-.664-.3-1.44 0-1.785.642-3.682 6.86-11.177 10.56-18.632 9.637l7.305-16.253z" style="fill:none;fill-opacity:1;stroke:#000;stroke-width:.2;stroke-linecap:round;stroke-linejoin:round;stroke-dasharray:none;stroke-opacity:1;filter:url(#e)" transform="translate(1.972 2.352)scale(.93406)"/><path d="M30.379 11.182v.516c0 .27-.21.547-.463.641a6.495 6.495 0 1 0 8.773 6.083 6.5 6.5 0 0 0-3.872-5.926c-.247-.108-.454-.398-.454-.668v-.646a1.93 1.93 45 0 0-1.928-1.928h-.128a1.93 1.93 135 0 0-1.928 1.928m1.816 5.959c.708 0 1.28.574 1.282 1.28a1.283 1.283 0 0 1-2.562 0c0-.706.573-1.28 1.28-1.28" style="fill:#414141;fill-opacity:1;stroke:none;stroke-width:.581031;stroke-linecap:round;stroke-linejoin:round;stroke-dasharray:none;stroke-opacity:1" transform="translate(1.975 2.353)scale(.93406)"/><path d="M30.379 11.182v.516c0 .27-.21.547-.463.641a6.495 6.495 0 1 0 8.773 6.083 6.5 6.5 0 0 0-3.872-5.926c-.247-.108-.454-.398-.454-.668v-.646a1.93 1.93 45 0 0-1.928-1.928h-.128a1.93 1.93 135 0 0-1.928 1.928m1.816 5.959c.708 0 1.28.574 1.282 1.28a1.283 1.283 0 0 1-2.562 0c0-.706.573-1.28 1.28-1.28" style="fill:none;fill-opacity:1;stroke:#000;stroke-width:.2;stroke-linecap:round;stroke-linejoin:round;stroke-dasharray:none;stroke-opacity:1;filter:url(#f)" transform="translate(1.975 2.353)scale(.93406)"/><path d="M22.935 44.799H7.213a2.74 2.74 0 0 1-2.735-2.734v8.886a6.14 6.14 0 0 0 6.153 6.153h18.456V50.95a6.14 6.14 0 0 0-6.152-6.152" style="fill:#50ffa4;fill-opacity:1;stroke-width:.683587"/><path d="M7.896 48.11v5.47h1.526q.788 0 1.242-.423.451-.42.451-1.164 0-.429-.11-.69a.93.93 0 0 0-.296-.398 1.1 1.1 0 0 0-.42-.191v-.037a.75.75 0 0 0 .523-.39q.188-.322.188-.79 0-.774-.473-1.08-.47-.306-1.394-.307zm4.785 0v5.47H16.1v-.685h-2.734v-2.05h2.05v-.684h-2.05v-1.367H16.1v-.684zm4.786 0v.684h1.367v4.785h.752l-.069-4.785h1.368v-.684zm6.1 0-1.999 5.47h.813l.48-1.368h2.813l.414 1.367h.949L25.03 48.11zm.736.436 1.085 2.982h-2.224Zm-15.723.248h.894c.815-.038.807.742.807.742s.045.625-.756.625H8.58zm1.04 2.047c.28-.008.476.155.585.275.12.123.18.558.18.762 0 .225-.058.68-.174.818q-.174.2-.614.2H8.58v-2.051h.984z" style="fill:#3f3f3f;stroke-width:.683587"/></svg>