<svg xmlns="http://www.w3.org/2000/svg" width="64" height="64"><rect width="51.594" height="51.594" x="-.43" y="11.71" rx="3.87" ry="3.87" style="opacity:.2" transform="rotate(-9.132)"/><rect width="50.365" height="50.365" x=".35" y="11.33" rx="3.777" ry="3.777" style="fill:#5390f8" transform="rotate(-9.132)"/><path d="M7.378 47.588 9.01 57.744a3.86 3.86 0 0 0 4.435 3.206l43.299-6.96a3.86 3.86 0 0 0 3.206-4.435l-1.633-10.156Z" style="fill:#85acf4"/><path d="M5.256 10.01a3.86 3.86 0 0 0-3.206 4.435l.834 5.19 50.94-8.19-.834-5.189a3.86 3.86 0 0 0-4.435-3.206Z" style="fill:#bbb"/><path d="m13.264 53.81 8.584-1.38" style="fill:none;stroke:#fff;stroke-width:1.3648206;stroke-linecap:round"/><path d="m5.131 33.611 2.247 13.977 50.94-8.19-2.247-13.976Z" style="fill:#3c6fc7"/><path d="m11.017 39.834 19.779-3.18" style="fill:none;stroke:#fff;stroke-width:1.3648206;stroke-linecap:round"/><path d="m2.884 19.634 2.247 13.977 50.94-8.189-2.247-13.976Z" style="fill:#5390f8"/><path d="m8.77 25.857 30.564-4.913" style="fill:none;stroke:#fff;stroke-width:1.3648206;stroke-linecap:round"/><path d="m21.575 52.474 33.103-5.321M30.66 36.676l21.771-3.5M39.334 20.944l10.85-1.744" style="fill:none;stroke:#4050ae;stroke-width:1.3648206;stroke-linecap:round"/><path d="M13.73 12.496a2 2 0 0 0-.187.02 1.87 1.87 0 0 0-1.547 2.144 1.87 1.87 0 0 0 2.145 1.55 1.87 1.87 0 0 0 1.55-2.144 1.87 1.87 0 0 0-1.96-1.57m-5.988.96a2 2 0 0 0-.187.024 1.87 1.87 0 0 0-1.551 2.145 1.87 1.87 0 0 0 2.144 1.55A1.87 1.87 0 0 0 9.7 15.031a1.87 1.87 0 0 0-1.957-1.574m31.7 4.782a3.7 3.7 0 0 0-.743.047 3.715 3.715 0 0 0-3.078 4.254 3.715 3.715 0 0 0 4.258 3.078 3.715 3.715 0 0 0 3.078-4.254 3.715 3.715 0 0 0-3.516-3.125m-8.516 15.707a3.7 3.7 0 0 0-.742.043 3.715 3.715 0 0 0-3.079 4.258 3.715 3.715 0 0 0 4.258 3.078 3.715 3.715 0 0 0 3.078-4.258 3.715 3.715 0 0 0-3.515-3.121m-9.031 15.789a3.7 3.7 0 0 0-.739.043 3.715 3.715 0 0 0-3.078 4.258 3.715 3.715 0 0 0 4.258 3.078 3.715 3.715 0 0 0 3.078-4.258 3.715 3.715 0 0 0-3.52-3.121" style="opacity:.2"/><circle cx="24.565" cy="41.077" r="3.715" style="fill:#fff" transform="rotate(-9.132)"/><circle cx="24.565" cy="41.077" r="1.697" style="fill:#4050ae" transform="rotate(-9.132)"/><circle cx="35.466" cy="26.921" r="3.715" style="fill:#fff" transform="rotate(-9.132)"/><circle cx="35.466" cy="26.921" r="1.697" style="fill:#4050ae" transform="rotate(-9.132)"/><circle cx="13.146" cy="55.233" r="3.715" style="fill:#fff" transform="rotate(-9.132)"/><circle cx="13.146" cy="55.233" r="1.697" style="fill:#4050ae" transform="rotate(-9.132)"/><circle cx="5.479" cy="15.392" r="1.871" style="fill:#fff" transform="rotate(-9.132)"/><circle cx="11.545" cy="15.392" r="1.871" style="fill:#fff" transform="rotate(-9.132)"/><path d="M49.34 3.004q-.386-.016-.785.047L5.258 10.01a3.855 3.855 0 0 0-3.211 4.354 3.846 3.846 0 0 1 3.21-3.353L48.556 4.05q.398-.064.785-.047a3.86 3.86 0 0 1 3.648 3.254l6.961 43.297c.004.025 0 .049.004.074.042-.35.055-.708-.004-1.074L52.99 6.258a3.86 3.86 0 0 0-3.65-3.254" style="opacity:.2;fill:#fff"/><circle cx="40.602" cy="56.156" r="13" style="opacity:.2" transform="rotate(-9.132)"/><circle cx="40.761" cy="55.169" r="13" style="fill:#e9375f" transform="rotate(-9.132)"/><path d="M49 37.737 42.376 55h3.092l1.109-2.889h4.844L52.526 55h3.092zm0 8.063 1.312 3.422h-2.627z" style="fill:#fff"/></svg>