<svg xmlns="http://www.w3.org/2000/svg" width="64" height="64"><g transform="matrix(1.4375 0 0 1.4 -.5 -1.2)"><path d="M13.787 42.286s15.083-2.143 19.952 0l1.391-2.143 2.087.714 1.827-17.006-7.75-12.496H16.706L10.87 28.85v10.62z" style="opacity:.2"/><path d="M13.787 41.572s15.083-2.143 19.952 0l1.391-2.143 2.087.714 1.827-17.007-7.75-12.495H16.706L10.87 28.135v10.621z" style="fill:#4a2803"/><path d="M34.212 28.85s0 2.5 2.918 2.5 1.583-2.5 1.583-2.5 1.335-2.498-1.583-2.498-2.918 2.499-2.918 2.499" style="opacity:.2"/><path d="M34.212 28.137s0 2.499 2.918 2.499 1.583-2.5 1.583-2.5 1.335-2.498-1.583-2.498-2.918 2.499-2.918 2.499" style="fill:#d3aa7b"/><path d="M24.696 36.571c-8.754 0-12.703-12.72-12.703-12.72s1.81-12.496 13.481-12.496c11.672 0 11.672 14.995 11.672 14.995s-3.697 10.221-12.45 10.221" style="opacity:.2"/><path d="M24.68 35.859c-8.753 0-12.703-12.72-12.703-12.72s1.81-12.496 13.482-12.496S37.13 25.638 37.13 25.638s-3.696 10.22-12.45 10.22" style="fill:#debf9c"/><path d="M25.41 3.714c-7.246-.017-10.41 4-11.264 4.86-.264-1.288-1.276-2.717-4.059-2.717l3.034 3.684c-.308.323-.614.602-.947 1.316H9.39s.7.754 1.883 1.13C9.691 14.464 8 17.613 8 23.657c0 15.948 1.39 17.914 1.39 17.914l1.392.715v-2.143l3.478 4.286V31.57s.13-3.428 4.87-.714c-2.653-4.857-4.174-10-4.174-10s2.782-1.428 2.782-5.714c4.174 13.571 18.05 11.4 19.459 12.841 1.445 1.477.02 8.587.02 8.587s-1.088 6.845.079 4.906c1.508-2.507 2.7-16.365 2.702-23.446.001-7.174-5.787-11.447-5.787-11.447s-2.917-2.856-8.803-2.87" style="opacity:.2"/><path d="M25.41 3C18.163 2.983 15 7 14.145 7.86c-.264-1.289-1.276-2.717-4.059-2.717l3.034 3.684c-.308.322-.614.602-.947 1.316H9.39s.7.754 1.883 1.13C9.691 13.749 8 16.898 8 22.943c0 15.948 1.39 17.914 1.39 17.914l1.392.714V39.43l3.478 4.285V30.857s.13-3.428 4.87-.714c-2.653-4.857-4.174-10-4.174-10s2.782-1.429 2.782-5.714c4.174 13.571 18.05 11.4 19.459 12.84 1.445 1.478.02 8.588.02 8.588s-1.088 6.845.079 4.906c1.508-2.507 2.7-16.366 2.702-23.446C40 10.143 34.212 5.87 34.212 5.87S31.295 3.014 25.41 3" style="fill:#723f05"/><path d="M18.116 20.632c1.71-.49 2.406.225 2.406.225s-.904-.396-2.066.004C17.463 21.204 17 23 17 23s.043-2.143 1.116-2.368" style="fill:#302100"/><path d="M24.696 33s1.246-.564 2.353-.655c.614-.05 1.125.284 1.125.284M25 30s.52.729 2.385.729C28.843 30.729 29 29 29 29" style="stroke-linejoin:round;stroke:#302100;stroke-linecap:round;stroke-width:.56392588;fill:none"/><path d="m52.688 31-1.51 5.365c.859.154 1.49.332 1.775.602z" style="fill:#ff8080" transform="matrix(.69565 0 0 .71429 .348 .857)"/><path d="M20.53 22.997c-1.209 0-2.097 1.283-2.097 2.86s.89 2.859 2.098 2.859 2.068-1.273 2.068-2.85-.86-2.87-2.069-2.87m-.008.717c.703 0 1.39.954 1.391 2.143 0 1.19-.688 2.143-1.391 2.143s-1.391-.953-1.392-2.143.689-2.143 1.392-2.143" style="fill:#302100"/><ellipse cx="14.261" cy="28" rx="2.783" ry="2.857" style="opacity:.2"/><ellipse cx="14.261" cy="27.286" rx="2.783" ry="2.857" style="fill:#debf9c"/><path d="M36.025 3c-10.415-.024-14.962 5.6-16.19 6.805C19.457 8 18 6 14 6l.895 1.059c3.307.284 4.592 2.087 4.94 3.746C21.064 9.6 25.61 3.976 36.026 4c8.46.02 12.655 4.018 12.655 4.018s8.155 5.879 8.304 15.755c.002-.228.014-.509.014-.728C57 13 48.68 7.018 48.68 7.018S44.485 3.019 36.025 3m-18.107 8.633A5.2 5.2 0 0 0 17 13h-4s.512.512 1.38 1H17c.48-1 .919-1.39 1.361-1.842zm-2.727 3.763c-2.111 3.354-4.189 7.7-4.189 15.524 0 .226.007.385.008.607.075-8.2 2.458-12.533 4.697-15.945q-.269-.085-.516-.186m6.079 12.43c-.083.049-.27.174-.27.174s1.923 6.267 5.273 12.629c.24.12.47.227.727.371-3.172-5.658-5.132-11.34-5.73-13.174m32.625 13.78C53.813 45.046 53 49 53 49s-.73 4.54-.633 6.46C52.472 53.284 53 50 53 50s.98-4.772.895-8.395" style="opacity:.1;fill:#fff" transform="matrix(.69565 0 0 .71429 .348 .857)"/></g></svg>