<svg xmlns="http://www.w3.org/2000/svg" width="64" height="64"><rect width="34" height="34" x="26" y="8" ry="6" style="opacity:.2"/><rect width="34" height="34" x="26" y="7" ry="6" style="fill:#2995ff"/><circle cx="35" cy="41" r="17" style="opacity:.2"/><circle cx="35" cy="40" r="17" style="fill:#d72b1f"/><path d="M35 23a17 17 0 0 0-17 17 17 17 0 0 0 .021.58A17 17 0 0 1 35 24a17 17 0 0 1 16.979 16.42A17 17 0 0 0 52 40a17 17 0 0 0-17-17" style="opacity:.2;fill:#fff"/><path d="M21.122 8a2.83 2.83 0 0 0-2.432 1.331L4.536 31.998a2.8 2.8 0 0 0-.346.816s-.226 1.077-.002 2.15c.223 1.073.882 2.397 2.106 3.486C8.742 40.628 12.961 42 21.089 42s12.347-1.372 14.795-3.55c1.224-1.09 1.883-2.413 2.106-3.486.224-1.073-.002-2.15-.002-2.15a2.8 2.8 0 0 0-.346-.816L23.488 9.33A2.83 2.83 0 0 0 21.122 8" style="opacity:.2"/><path d="M21.122 7a2.83 2.83 0 0 0-2.432 1.331L4.536 30.998a2.8 2.8 0 0 0-.346.816s-.226 1.077-.002 2.15c.223 1.073.882 2.397 2.106 3.486C8.742 39.628 12.961 41 21.089 41s12.347-1.372 14.795-3.55c1.224-1.09 1.883-2.413 2.106-3.486.224-1.073-.002-2.15-.002-2.15a2.8 2.8 0 0 0-.346-.816L23.488 8.33A2.83 2.83 0 0 0 21.122 7" style="fill:#ffc913"/><path d="M32 7c-3.324 0-6 2.676-6 6v1c0-3.324 2.676-6 6-6h22c3.324 0 6 2.676 6 6v-1c0-3.324-2.676-6-6-6z" style="opacity:.2;fill:#fff"/><path d="M21.123 7a2.83 2.83 0 0 0-2.434 1.332L4.535 30.998a2.8 2.8 0 0 0-.346.816s-.136.722-.07 1.569c.03-.304.07-.569.07-.569.072-.288.189-.564.346-.816L18.69 9.332A2.83 2.83 0 0 1 21.123 8a2.83 2.83 0 0 1 2.365 1.332l14.155 22.666c.157.252.274.528.345.816 0 0 .04.265.07.569.066-.847-.07-1.569-.07-1.569a2.8 2.8 0 0 0-.345-.816L23.488 8.332A2.83 2.83 0 0 0 21.123 7" style="opacity:.2;fill:#fff"/></svg>