<svg xmlns="http://www.w3.org/2000/svg" width="64" height="64"><path d="M32 4a5.45 5.45 0 0 0-2.499.659L9.792 15.924c-1.329.716-2.662 1.97-3.24 3.353-.63 1.512-.6 2.695-.49 3.588l.111 22.061A5.52 5.52 0 0 0 8.25 49.11c2.555 2.032 20.757 12.18 20.757 12.18a5.44 5.44 0 0 0 2.993.701 5.44 5.44 0 0 0 2.993-.701S53.195 51.142 55.75 49.11a5.52 5.52 0 0 0 2.077-4.184l.112-22.061c.108-.893.139-2.076-.492-3.588-.577-1.383-1.91-2.637-3.239-3.353L34.499 4.659A5.45 5.45 0 0 0 32 4" style="opacity:.2"/><path d="M32 3a5.44 5.44 0 0 0-2.499.658L9.792 14.924c-1.329.716-2.662 1.97-3.24 3.353-.63 1.512-.6 2.695-.49 3.588l.111 22.061A5.52 5.52 0 0 0 8.25 48.11c2.555 2.032 20.757 12.18 20.757 12.18a5.44 5.44 0 0 0 2.993.701 5.44 5.44 0 0 0 2.993-.701S53.195 50.142 55.75 48.11a5.52 5.52 0 0 0 2.077-4.184l.112-22.061c.108-.893.139-2.076-.492-3.588-.577-1.383-1.91-2.637-3.239-3.353L34.499 3.658A5.44 5.44 0 0 0 32 3" style="fill:#ff5252"/><path d="M32 3a5.44 5.44 0 0 0-2.498.658L9.793 14.924c-1.33.716-2.663 1.97-3.24 3.353-.534 1.28-.588 2.311-.528 3.143.049-.627.19-1.334.528-2.143.577-1.383 1.91-2.637 3.24-3.353L29.502 4.658A5.44 5.44 0 0 1 32 4a5.44 5.44 0 0 1 2.498.658l19.709 11.266c1.329.716 2.663 1.97 3.24 3.353.338.809.479 1.516.528 2.143.059-.832.006-1.863-.528-3.143-.577-1.383-1.911-2.637-3.24-3.353L34.498 3.658A5.44 5.44 0 0 0 32 3" style="fill:#fff;opacity:.2"/><path d="M39.354 16a11 11 0 0 1 2.255 5.455q.015.105.026.21v.015l.02.216v.038l.013.214q.007.108.012.217c0 .051-.002.102.004.153v.285a11 11 0 0 1-2.006 6.351 9.9 9.9 0 0 1 .119 3.451 10 10 0 0 0 1.842-.63q.66-.3 1.27-.694.124.43.208.875c.118.615.177 1.241.176 1.867q0 .748-.111 1.489a9.9 9.9 0 0 0 3.806-1.2 10 10 0 0 1 .157 1.758q0 1.03-.211 2.04a10 10 0 0 0 3.017-.598 16.3 16.3 0 0 0 1.047-5.772q.012-.648-.037-1.281a16.3 16.3 0 0 0-.723-3.701 6.5 6.5 0 0 1-.576 1.168 14.7 14.7 0 0 0-2.039-5.537 14.9 14.9 0 0 0-4.055-4.309A14.9 14.9 0 0 0 39.354 16m-15.01.02a19.4 19.4 0 0 0-4.25 2.625A19.17 19.17 0 0 0 13.52 29.07a19 19 0 0 0-.52 4.432 19 19 0 0 0 2.36 9.197 9.8 9.8 0 0 1 .704-2.693 18.34 18.34 0 0 0 5.399 7.201A18.5 18.5 0 0 0 29.656 51a9.8 9.8 0 0 1-1.271-2.174 17.5 17.5 0 0 0 4.947.838c.149 0 .3.006.45.006a17.5 17.5 0 0 0 7.706-1.775 10 10 0 0 1-1.146-.75 16.63 16.63 0 0 0 6.84-4.866 16.4 16.4 0 0 0 2.146-3.289 10 10 0 0 1-2.812.576q-.308.02-.618.02h-.205a9.8 9.8 0 0 0 .313-2.465q0-.556-.063-1.107a9.9 9.9 0 0 1-3.984 1.011 9.7 9.7 0 0 0 .193-1.949 10 10 0 0 0-.224-2.094 9.9 9.9 0 0 1-3.358 1.221l-.007-.012a9.6 9.6 0 0 0 .19-1.925q.002-.894-.16-1.774a11.2 11.2 0 0 1-3.695 2.545 11.25 11.25 0 0 1-4.408.893 11.2 11.2 0 0 1-5.14-1.237 10 10 0 0 0 2.048-1.078 9.95 9.95 0 0 1-4.125-3.654 9.85 9.85 0 0 1-.125-10.344 10 10 0 0 1 1.196-1.597" style="opacity:.2"/><path d="M39.354 15a11 11 0 0 1 2.255 5.455q.015.105.026.21v.015l.02.216v.038l.013.214q.008.108.012.217c0 .051-.002.102.004.153v.285a11 11 0 0 1-2.006 6.351 9.9 9.9 0 0 1 .119 3.451 10 10 0 0 0 1.842-.63q.66-.3 1.27-.694.124.43.208.875c.118.615.177 1.241.176 1.867q0 .748-.111 1.489a9.9 9.9 0 0 0 3.806-1.2 10 10 0 0 1 .157 1.758q0 1.03-.211 2.04a10 10 0 0 0 3.017-.598 16.3 16.3 0 0 0 1.047-5.772q.012-.648-.037-1.281a16.3 16.3 0 0 0-.723-3.701 6.5 6.5 0 0 1-.576 1.168 14.7 14.7 0 0 0-2.039-5.537 14.9 14.9 0 0 0-4.055-4.309A14.9 14.9 0 0 0 39.354 15m-15.01.02a19.4 19.4 0 0 0-4.25 2.625A19.17 19.17 0 0 0 13.52 28.07a19 19 0 0 0-.52 4.432 19 19 0 0 0 2.36 9.197 9.8 9.8 0 0 1 .704-2.693 18.34 18.34 0 0 0 5.399 7.201A18.5 18.5 0 0 0 29.656 50a9.8 9.8 0 0 1-1.271-2.174 17.5 17.5 0 0 0 4.947.838c.149 0 .3.006.45.006a17.5 17.5 0 0 0 7.706-1.775 10 10 0 0 1-1.146-.75 16.63 16.63 0 0 0 6.84-4.866 16.4 16.4 0 0 0 2.146-3.289 10 10 0 0 1-2.812.576q-.308.02-.618.02h-.205a9.8 9.8 0 0 0 .313-2.465q0-.556-.063-1.107a9.9 9.9 0 0 1-3.984 1.011 9.7 9.7 0 0 0 .193-1.949 10 10 0 0 0-.224-2.094 9.9 9.9 0 0 1-3.358 1.221l-.008-.012a9.6 9.6 0 0 0 .192-1.925q0-.894-.16-1.774a11.2 11.2 0 0 1-3.696 2.545 11.25 11.25 0 0 1-4.408.893 11.2 11.2 0 0 1-5.14-1.237 10 10 0 0 0 2.048-1.078 9.95 9.95 0 0 1-4.125-3.654 9.85 9.85 0 0 1-.125-10.344 10 10 0 0 1 1.196-1.597" style="fill:#fff"/></svg>