<svg xmlns="http://www.w3.org/2000/svg" width="64" height="64"><rect width="56" height="56" x="4" y="5" rx="4.2" ry="4.2" style="opacity:.2"/><rect width="56" height="56" x="4" y="4" rx="4.2" ry="4.2" style="fill:#3f3f3f"/><path d="M33.768 12.477 17.3 41h6.78l13.407-23.074Zm3.503 9.947-3.273 5.764L47 51h6.734zm-4.275 9.014-1.71 2.949A4 4 0 0 0 29 38a4 4 0 0 0 .012.303L27.447 41h2.908A4 4 0 0 0 33 42a4 4 0 0 0 2.645-1h2.9l-1.557-2.684A4 4 0 0 0 37 38a4 4 0 0 0-2.295-3.62ZM13.148 43l-3.058 6h32.935l-3.058-6z" style="opacity:.2"/><path d="m39.967 42 3.059 6H10.09l3.058-6zM47 50 34 27.188l3.272-5.763L53.735 50Z" style="fill:#fff"/><circle cx="33" cy="37" r="4" style="fill:#fff"/><path d="m27.448 40 5.548-9.562L38.545 40Zm-3.368 0H17.3l16.468-28.524 3.72 5.45Z" style="fill:#fff"/><path d="M8.2 4A4.19 4.19 0 0 0 4 8.2v1A4.19 4.19 0 0 1 8.2 5h47.6A4.19 4.19 0 0 1 60 9.2v-1A4.19 4.19 0 0 0 55.8 4z" style="opacity:.1;fill:#fff"/></svg>