<svg xmlns="http://www.w3.org/2000/svg" width="64" height="64"><path d="M10 57c0 3 1 4 4 4h36c3 0 4-1 4-4V38c0-4-10.5-8.111-13.5-18.481L39 8.11C37 6.037 34.472 5 32 5c-2.5 0-5 1.037-7 3.111L23.5 19.52C20.5 29.889 10 34 10 38Zm18-42c0-2 2-4 4-4s4 2 4 4-2 4-4 4-4-2-4-4" style="opacity:.2"/><path d="M10 56c0 3 1 4 4 4h36c3 0 4-1 4-4V37c0-4-10.5-8.111-13.5-18.481L39 7.11C37 5.037 34.472 4 32 4c-2.5 0-5 1.037-7 3.111L23.5 18.52C20.5 28.889 10 33 10 37Zm18-42c0-2 2-4 4-4s4 2 4 4-2 4-4 4-4-2-4-4" style="fill:#ffee58"/><path d="M32 4c-2.5 0-5 1.037-7 3.111l-1.5 11.407C20.5 28.888 10 33 10 37v1c0-4 10.5-8.112 13.5-18.482L25 8.11C27 6.037 29.5 5 32 5c2.472 0 5 1.037 7 3.111l1.5 11.407C43.5 29.888 54 34 54 38v-1c0-4-10.5-8.112-13.5-18.482L39 7.11C37 5.037 34.472 4 32 4m-3.955 10.5A3 3 0 0 0 28 15c0 2 2 4 4 4s4-2 4-4c0-.167-.018-.334-.045-.5C35.662 16.32 33.833 18 32 18s-3.662-1.68-3.955-3.5" style="fill:#fff;opacity:.2"/><path d="M26 32v10.21a5.5 5.5 0 0 0-1.477-.21A5.5 5.5 0 0 0 19 47.451 5.5 5.5 0 0 0 24.428 53 5.5 5.5 0 0 0 30 47.596V36h8v6.21a5.5 5.5 0 0 0-1.477-.21A5.5 5.5 0 0 0 31 47.451 5.5 5.5 0 0 0 36.428 53 5.5 5.5 0 0 0 42 47.596V32Z" style="fill:#fff;opacity:.2"/><path d="M26 33v10.21a5.5 5.5 0 0 0-1.477-.21A5.5 5.5 0 0 0 19 48.451 5.5 5.5 0 0 0 24.428 54 5.5 5.5 0 0 0 30 48.596V37h8v6.21a5.5 5.5 0 0 0-1.477-.21A5.5 5.5 0 0 0 31 48.451 5.5 5.5 0 0 0 36.428 54 5.5 5.5 0 0 0 42 48.596V33z" style="fill:#ffca28"/><path d="M32 5c-5.523 0-10 4.477-10 10s4.477 10 10 10 10-4.477 10-10S37.523 5 32 5m0 4q6 0 6 6c0 3.488-2 6-6 6q-6 0-6-6c0-4 2.512-6 6-6" style="opacity:.1"/><path d="M32 4c-5.523 0-10 4.477-10 10s4.477 10 10 10 10-4.477 10-10S37.523 4 32 4m0 4q6 0 6 6c0 3.488-2 6-6 6q-6 0-6-6c0-4 2.512-6 6-6" style="fill:#fff176"/><path d="M32 4c-5.523 0-10 4.477-10 10q.001.244.014.486C22.282 9.203 26.65 5 32 5s9.718 4.203 9.986 9.486Q42 14.245 42 14c0-5.523-4.477-10-10-10m5.982 10.469C37.808 17.709 35.818 20 32 20c-3.83 0-5.821-1.838-5.984-5.504Q26 14.743 26 15q0 6 6 6c4 0 6-2.512 6-6 0-.183-.01-.357-.018-.531" style="fill:#fff;opacity:.2"/></svg>