<svg xmlns="http://www.w3.org/2000/svg" width="64" height="64"><circle cx="32" cy="33" r="28" style="opacity:.2"/><path d="M29.456 4.182A28 28 0 0 0 4.178 29.521c.007 3.637.698 7.34 2.206 10.977 4.916 11.854 18.773 19.75 31.452 14.216 8.627-3.765 14.387-14.056 10.06-23.409a14.35 14.35 0 0 0-7.017-7c-3.076-1.41-6.876-1.667-10.305.031a10.43 10.43 0 0 0-4.95 5.188c-.99 2.265-1.13 5.14.222 7.661a7.62 7.62 0 0 0 3.874 3.498c1.69.69 3.928.751 5.813-.361a5.68 5.68 0 0 0 2.497-2.97c.488-1.3.486-3.128-.478-4.585h-.001v-.001c-.586-.884-1.333-1.477-2.384-1.827-.847-.283-2.047-.271-3.102.21.383-.461.829-.88 1.324-1.125h.001c1.594-.79 3.209-.7 4.843.05 1.634.748 3.132 2.234 3.902 3.897 2.632 5.69-1.14 12.44-6.838 14.927-9.025 3.938-19.368-1.95-23.05-10.83v-.001c-5.539-13.355 3.109-28.32 16.148-33.49l.001-.001h.001q.526-.207 1.06-.394m1.885 27.369-.005.004-.006.004zm.774 3.249h3.96c-.01.163.032.376-.003.499-.171.61-.395.924-.876 1.293-.635.485-1.587.517-2.037.367s-.65-.311-.898-.686l-.001-.002c-.25-.377-.24-.97-.172-1.152.062-.165.077-.176.19-.243-.012-.005-.045-.023-.154-.068-.003-.001-.006-.007-.01-.008m.164.076c.013.004.004-.006.027-.02z" style="fill:#bf00d2"/><path d="M32 4a28 28 0 0 0-7.146.973C14.381 9.748 7.308 21.336 9.41 33.775c2.01 11.899 12.818 21.316 24.804 18.96 9.657-1.896 16.91-11.525 15.016-21.964-1.509-8.32-9.188-14.966-17.738-13.155-6.78 1.44-11.807 8.226-10.364 15.57 1.133 5.753 6.562 10.418 12.65 9.008 4.752-1.101 8.217-5.878 7.099-11.047v-.002c-.864-3.98-4.743-7.283-9.138-6.152a6.85 6.85 0 0 0-4.042 2.92c.953-2.128 2.9-3.78 5.079-4.243 4.717-1 9.401 2.899 10.364 8.206 1.268 6.993-3.825 13.551-10.118 14.787h-.001c-8.168 1.606-16.011-5.055-17.508-13.918C13.61 21.485 21.744 11.047 31.95 9.17c12.82-2.357 24.903 8.047 27.073 21.724.376 2.373.45 4.718.274 7.006A28 28 0 0 0 60 32 28 28 0 0 0 32 4m1.487 26.97c.506.034 1.145.587 1.34 1.488.045.206-.007.406-.011.611a2.2 2.2 0 0 1-1.16.919h-.003c-.303.102-.63.101-.935.06v-2.636c.01.005.045.002.052.007.106.075.081.066.092.113-.043-.184.27-.507.415-.545h.002a.7.7 0 0 1 .208-.018" style="fill:#3724b4"/><path d="M40.34 6.49c-4.392-.114-8.82.77-12.953 2.861-4.794 2.428-8.767 6.579-10.943 11.532s-2.46 10.88.496 16.167v.001a14.94 14.94 0 0 0 7.372 6.517c3.14 1.271 7.001 1.345 10.295-.734v-.001a9.2 9.2 0 0 0 3.759-4.662c.716-1.98.67-4.57-.839-6.621a5.7 5.7 0 0 0-3.011-2.145c-1.293-.398-3.191-.27-4.524.922l-.004.002-.002.002c-.645.58-1.022 1.169-1.242 2.088-.22.92 0 2.55 1.104 3.487.544.462.888.621 1.616.728a2.9 2.9 0 0 0 1.452-.137c.024-.008.047-.032.071-.042-.285.624-.837 1.307-1.37 1.644v-.001c-1.646 1.04-3.359 1.027-5.203.28s-3.626-2.343-4.587-4.06v-.001c-2.034-3.638-1.87-7.509-.256-11.182 1.613-3.673 4.77-6.976 8.344-8.787 8.523-4.313 19.153-2.082 26.53 4.014a28 28 0 0 0-12.12-11.495 30 30 0 0 0-3.985-.378m-8.72 24.609c.162-.009.304.005.438.017v5.39l-.636-.074c-.8-.189-1.627-.962-1.9-1.57-.271-.61-.25-1.002-.235-1.275.027-.502-.005-.582.35-1.171.302-.53.896-1.017 1.418-1.2.219-.078.402-.109.565-.117m2.913 4.018-.088.15c.037-.059.028-.065.059-.115.007-.013.022-.022.029-.035" style="fill:#3724b4"/><path d="M34.864 12.988a19.3 19.3 0 0 0-4.253.374c-9.046 1.807-16.043 10.552-14.05 20.093 1.552 7.432 8.793 13.18 16.699 11.454 6.098-1.33 10.82-7.317 9.317-13.86-1.147-5.002-6.108-8.873-11.54-7.56-4.111.994-7.304 5.118-6.142 9.651l.001.001v.001c.874 3.4 4.334 6.045 8.154 5h.001c.587-.161 1.12-.464 1.632-.794-.783.7-1.685 1.283-2.743 1.514-4.246.928-8.427-2.387-9.322-6.672-1.23-5.888 3.322-11.585 9.206-12.76h.001c7.86-1.572 15.36 4.455 16.857 12.235v.001C50.64 41.84 42.86 51.453 32.819 53.314 19.925 55.7 7.83 45.873 5.56 33.2c-.66-3.674-.524-7.494.342-11.145A28 28 0 0 0 4 32a28 28 0 0 0 25.81 27.843 28 28 0 0 0 4.137-.445c13.23-2.452 23.47-15.096 20.812-28.902-1.845-9.59-10.145-17.277-19.895-17.508m-3.8 14.776-.005.002-.006.001zm4.173 3.117.005.013-.005-.008zm1.915.274.001.005-.001-.003zm-5.785.99h2.775c-.042.306-.14.584-.26.777a1.6 1.6 0 0 1-.951.741c-.912.289-1.544-.18-1.715-.759-.138-.472.02-.682.204-.732h-.001l-.002.001c-.01.003-.037-.025-.05-.027m-3.15 1.068.001.003v.002zm4.999 2.396-.012.005.006-.004z" style="fill:#af1876"/><path d="M35.582 8.674a23.5 23.5 0 0 0-5.195.455c-11.008 2.2-19.523 12.847-17.107 24.421v.001c1.874 8.978 10.616 15.921 20.118 13.846 7.292-1.592 12.935-8.752 11.148-16.535v-.001c-1.355-5.908-7.213-10.485-13.59-8.942-4.788 1.159-8.503 5.962-7.158 11.202.999 3.895 4.96 6.923 9.297 5.735h.002c3.185-.875 5.68-4.173 4.612-7.806-.16-.545-.453-1.038-.769-1.513.727.757 1.332 1.653 1.574 2.708v.001c.944 4.109-2.272 8.196-6.436 9.105-5.84 1.275-11.523-3.233-12.74-9.065-1.654-7.923 4.418-15.52 12.263-17.089 10.404-2.082 20.275 5.857 22.247 16.108 2.563 13.332-7.585 25.881-20.684 28.31a27 27 0 0 1-2.173.313A28 28 0 0 0 32 60a28 28 0 0 0 28-28 28 28 0 0 0-.066-1.81l-.009-.054c-2.26-11.75-12.427-21.173-24.343-21.462" style="fill:#691bf9"/><path d="M32 4A28 28 0 0 0 4 32a28 28 0 0 0 .033.482A28 28 0 0 1 32 5a28 28 0 0 1 27.982 27.242L60 32A28 28 0 0 0 32 4" style="opacity:.1;fill:#fff"/></svg>