<svg xmlns="http://www.w3.org/2000/svg" width="64" height="64"><rect width="56" height="42" x="4" y="13" rx="4.2" ry="4.2" style="opacity:.2"/><rect width="56" height="42" x="4" y="12" rx="4.2" ry="4.2" style="fill:#dc4a3d"/><path d="M8.2 12A4.19 4.19 0 0 0 4 16.2v1A4.19 4.19 0 0 1 8.2 13h47.6a4.19 4.19 0 0 1 4.2 4.2v-1a4.19 4.19 0 0 0-4.2-4.2z" style="fill:#fff;opacity:.1"/><path d="M32 12v42h19.765C54.11 54 56 52.127 56 49.8V16.2c0-2.327-1.889-4.2-4.235-4.2H34.824z" style="fill:#e4e4e4"/><path d="M35 23v3h18v-3z" style="fill:#d17143"/><path d="M35 17v3h18v-3zm0 12v3h18v-3zm0 6v3h18v-3zm0 6v3h18v-3zm0 6v3h18v-3z" style="opacity:.2"/><path d="M32 12v42H12.235C9.89 54 8 52.127 8 49.8V16.2c0-2.327 1.889-4.2 4.235-4.2h16.941z" style="fill:#fff"/><path d="M24.596 20.486a1.365 1.404 0 0 0-.13.004 1.365 1.404 0 0 0-.36.076s-.855.29-1.844.827c-.991.536-2.195 1.285-2.969 2.574-.861 1.433-.535 2.968-.268 3.887.27.916.417 1.32.168 1.933-.12.3-.86.957-1.67 1.365s-1.546.623-1.546.623A1.365 1.404 0 0 0 15 33.5a1.365 1.404 0 0 0 .977 1.688s.736.214 1.546.623c.81.407 1.55 1.064 1.67 1.365.249.615.101 1.015-.168 1.933-.267.919-.593 2.452.268 3.887.774 1.288 1.978 2.038 2.969 2.574.99.535 1.843.826 1.843.826a1.365 1.404 0 1 0 .86-2.664s-.65-.222-1.432-.646c-.782-.423-1.619-1.078-1.914-1.57-.334-.558-.225-.75.024-1.602.25-.852.698-2.265.074-3.812-.552-1.37-1.654-2.098-2.64-2.622.986-.522 2.088-1.248 2.64-2.619.624-1.547.175-2.962-.074-3.814s-.358-1.046-.024-1.602c.295-.493 1.132-1.144 1.914-1.568.782-.423 1.432-.647 1.432-.647a1.365 1.404 0 0 0-.37-2.744" style="fill-rule:evenodd;fill:#e67d4a"/></svg>