<svg xmlns="http://www.w3.org/2000/svg" width="64" height="64"><rect width="56" height="56" x="4" y="5" rx="28" ry="28" style="opacity:.2"/><rect width="56" height="56" x="4" y="4" rx="28" ry="28" style="fill:#00783b"/><path d="M14.137 37.678c.491 1.511 3.881.87 5.464.637-1.057-1.656-1.927-3.451-2.601-4.921-1.493 1.276-3.138 3.436-2.863 4.284M48 29c0 8.846-16 24-16 24s-6.306-5.996-11-12.632c-1.029.172-3.525.632-5 .632-2.063 0-4-1.238-4-3 0-3.426 3-5.873 4.241-7C18 29.477 20 28 22 27c0 0 2 2 4 2 7 0 11-7 14-8-2-2-7-4-10-4s-7 1-8 6c4-1.75 8-2 13-2-3 0-10.823 2.743-13 4-1.252.723-4.413 2.46-6 4 0-8.846 7.044-16 16-16 4.354 0 8.247 1.685 11.106 4.435C45 17.094 46 17 47 17c3 0 5 .882 5 3 0 3-2.548 5.422-4.14 7-.898.736-3.1 2.627-5.86 4 0 0-2-2-4-2-7 0-11 7-14 8 2 2 7 4 10 4s7-1 8-6c-4 1.759-8 2-13 2 3 0 11-2.845 13-4 1.29-.745 4.555-2.555 6-4m1.863-8.677c-.239-.781-2.449-1.104-4.863-.705.997 1.386 1.694 2.984 2.29 4.619 1.422-1.18 2.814-3.123 2.573-3.914" style="opacity:.2"/><path d="M14.137 36.678c.491 1.511 3.881.87 5.464.637-1.057-1.656-1.927-3.451-2.601-4.921-1.493 1.276-3.138 3.436-2.863 4.284M48 28c0 8.846-16 24-16 24s-6.306-5.996-11-12.632c-1.029.172-3.525.632-5 .632-2.063 0-4-1.238-4-3 0-3.426 3-5.873 4.241-7C18 28.477 20 27 22 26c0 0 2 2 4 2 7 0 11-7 14-8-2-2-7-4-10-4s-7 1-8 6c4-1.75 8-2 13-2-3 0-10.823 2.743-13 4-1.252.723-4.413 2.46-6 4 0-8.846 7.044-16 16-16 4.354 0 8.247 1.685 11.106 4.435C45 16.094 46 16 47 16c3 0 5 .882 5 3 0 3-2.548 5.422-4.14 7-.898.736-3.1 2.627-5.86 4 0 0-2-2-4-2-7 0-11 7-14 8 2 2 7 4 10 4s7-1 8-6c-4 1.759-8 2-13 2 3 0 11-2.845 13-4 1.29-.745 4.555-2.555 6-4m1.863-8.677c-.239-.781-2.449-1.104-4.863-.705.997 1.386 1.694 2.984 2.29 4.619 1.422-1.18 2.814-3.123 2.573-3.914" style="fill:#e4e4e4"/><path d="M32 4C16.488 4 4 16.488 4 32v.35C4 16.838 16.488 5 32 5s28 11.838 28 27.35V32C60 16.488 47.512 4 32 4" style="fill:#fff;opacity:.2"/></svg>