<svg xmlns="http://www.w3.org/2000/svg" xmlns:xlink="http://www.w3.org/1999/xlink" width="64" height="64"><defs><filter id="c" width="1.138" height="1.138" x="-.069" y="-.069" style="color-interpolation-filters:sRGB"><feGaussianBlur stdDeviation="1.549"/></filter><filter id="d" width="1.176" height="1.176" x="-.088" y="-.088" style="color-interpolation-filters:sRGB"><feGaussianBlur stdDeviation="1.549"/></filter><filter id="e" width="1.172" height="1.151" x="-.086" y="-.075" style="color-interpolation-filters:sRGB"><feGaussianBlur stdDeviation=".942"/></filter><radialGradient xlink:href="#a" id="b" cx="44.663" cy="26.719" r="28" fx="44.663" fy="26.719" gradientTransform="matrix(-3.10272 0 0 -3.27344 203.532 84.127)" gradientUnits="userSpaceOnUse"/><linearGradient id="a"><stop offset="0" style="stop-color:#466cf7;stop-opacity:1"/><stop offset=".6" style="stop-color:#4bffba;stop-opacity:1"/><stop offset="1" style="stop-color:#46a2f7;stop-opacity:1"/></linearGradient></defs><path d="M20.8 4C11.495 4 4 11.494 4 20.8v22.4C4 52.505 11.494 60 20.8 60h22.4C52.505 60 60 52.506 60 43.2V20.8C60 11.495 52.506 4 43.2 4z" style="fill:url(#b)"/><path d="M21 10h22c6.19 0 11 4.81 11 11v22c0 6.19-4.81 11-11 11H21c-6.19 0-11-4.81-11-11V21c0-6.19 4.81-11 11-11" style="fill:#3f3f3f"/><path d="M20.8 4C11.495 4 4 11.494 4 20.8v22.4C4 52.505 11.494 60 20.8 60h22.4C52.505 60 60 52.506 60 43.2V20.8C60 11.495 52.506 4 43.2 4z" style="fill:none;stroke:#000;stroke-width:.3;stroke-dasharray:none;stroke-opacity:1;filter:url(#c)"/><path d="M21 10h22c6.19 0 11 4.81 11 11v22c0 6.19-4.81 11-11 11H21c-6.19 0-11-4.81-11-11V21c0-6.19 4.81-11 11-11z" style="fill:none;stroke:#000;stroke-width:.3;stroke-dasharray:none;stroke-opacity:1;filter:url(#d)"/><path d="M42 32s0 2-4 2-4-4-4-8 0-8 4-8 4 2 4 2m-24 8h8m-8 6V22m8 12V22m-8 0s0-4 4-4 4 4 4 4" style="fill:none;stroke:#fff;stroke-width:4;stroke-linecap:round;stroke-linejoin:bevel" transform="translate(4.607 4.496)scale(.66002)"/><path d="M18 46h16" style="fill:none;stroke:#fff;stroke-width:4;stroke-linecap:round" transform="translate(4.607 4.496)scale(.66002)"/><g style="fill:none;stroke:#00ffcd;stroke-opacity:1;stroke-width:.30302197;stroke-dasharray:none;filter:url(#e)" transform="translate(4.607 4.496)scale(.66002)"><path d="M38 16c-1.333 0-2.588.368-3.54 1.107-.95.74-1.522 1.757-1.856 2.76C31.934 21.873 32 24 32 26s-.065 4.127.604 6.133c.334 1.003.906 2.018 1.857 2.758S36.667 36 38 36c2.333 0 3.943-.615 4.914-1.586a3.8 3.8 0 0 0 .922-1.469C43.983 32.505 44 32 44 32a2 2 0 0 0-2-2 2 2 0 0 0-2 2s.02-.255.041-.32c.022-.066.06-.108.045-.094-.029.029-.42.414-2.086.414-.667 0-.91-.132-1.084-.268-.174-.135-.352-.368-.518-.865C36.068 29.873 36 28 36 26s.067-3.873.398-4.867c.166-.497.344-.732.518-.867C37.09 20.13 37.333 20 38 20c1.667 0 2.057.385 2.086.414.014.014-.023-.028-.045-.094C40.019 20.255 40 20 40 20a2 2 0 0 0 2 2 2 2 0 0 0 2-2s-.017-.505-.164-.945a3.8 3.8 0 0 0-.922-1.47C41.943 16.616 40.334 16 38 16Zm-16 0c-2.667 0-4.55 1.628-5.29 3.105C15.973 20.582 16 22 16 22v12a2 2 0 0 0 2 2 2 2 0 0 0 2-2v-4h4v4a2 2 0 0 0 2 2 2 2 0 0 0 2-2V22s.028-1.418-.71-2.895C26.55 17.628 24.666 16 22 16Zm0 4c1.333 0 1.45.372 1.71.895.262.523.29 1.105.29 1.105v4h-4v-4s.028-.582.29-1.105c.26-.523.377-.895 1.71-.895Z" style="baseline-shift:baseline;display:inline;overflow:visible;fill:none;stroke-linecap:round;stroke-linejoin:bevel;enable-background:accumulate;stop-color:#000;stop-opacity:1;opacity:1;stroke:#00ffcd;stroke-opacity:1;stroke-width:.30302197;stroke-dasharray:none"/><path d="M18 44a2 2 0 0 0-2 2 2 2 0 0 0 2 2h16a2 2 0 0 0 2-2 2 2 0 0 0-2-2z" style="baseline-shift:baseline;display:inline;overflow:visible;fill:none;stroke-linecap:round;enable-background:accumulate;stop-color:#000;stop-opacity:1;opacity:1;stroke:#00ffcd;stroke-opacity:1;stroke-width:.30302197;stroke-dasharray:none"/></g></svg>