<svg xmlns="http://www.w3.org/2000/svg" width="64" height="64"><circle cx="32" cy="33" r="28" style="opacity:.2"/><circle cx="32" cy="32" r="28" style="fill:#1b627c"/><path d="M32 13.75 14.813 42.625l15.036-8.482L32 32.93Zm0 0 17.187 28.875-15.036-8.482L32 32.93Z" style="opacity:.2"/><path d="M32 11a22 22 0 0 0-22 22 22 22 0 0 0 22 22 22 22 0 0 0 22-22 22 22 0 0 0-22-22m0 2.75A19.25 19.25 0 0 1 51.25 33 19.25 19.25 0 0 1 32 52.25 19.25 19.25 0 0 1 12.75 33 19.25 19.25 0 0 1 32 13.75" style="opacity:.2"/><path d="M32 10a22 22 0 0 0-22 22 22 22 0 0 0 22 22 22 22 0 0 0 22-22 22 22 0 0 0-22-22m0 2.75A19.25 19.25 0 0 1 51.25 32 19.25 19.25 0 0 1 32 51.25 19.25 19.25 0 0 1 12.75 32 19.25 19.25 0 0 1 32 12.75" style="fill:#fff"/><path d="M32 12.75 14.813 41.625l15.036-8.482L32 31.93Zm0 0 17.187 28.875-15.036-8.482L32 31.93Z" style="fill:#fff"/><path d="M32 4A28 28 0 0 0 4 32a28 28 0 0 0 .018.492A28 28 0 0 1 32 5a28 28 0 0 1 27.975 27.492A28 28 0 0 0 60 32 28 28 0 0 0 32 4" style="opacity:.1;fill:#fff"/></svg>