<svg xmlns="http://www.w3.org/2000/svg" width="64" height="64"><path d="M63.958 45.848A16 16 0 0 1 48 61a16 16 0 0 1-15.958-14.848A16 16 0 0 0 32 47a16 16 0 0 0 16 16 16 16 0 0 0 16-16 16 16 0 0 0-.043-1.152Z" style="opacity:.2"/><path d="M4 56v2c0 1.662 1.338 3 3 3h50c1.662 0 3-1.338 3-3v-2c0 1.662-1.338 3-3 3H7c-1.662 0-3-1.338-3-3" style="opacity:.2"/><rect width="56" height="56" x="4" y="4" rx="3" ry="3" style="fill:#1da6e8"/><path d="M7 4C5.338 4 4 5.338 4 7v1c0-1.662 1.338-3 3-3h50c1.662 0 3 1.338 3 3V7c0-1.662-1.338-3-3-3z" style="opacity:.1;fill:#fff"/><path d="M15.143 34.762a11.8 11.8 0 0 1 2.286 2.095l-1.238 1.522q-1.145-1.428-2.382-2.38zm0 6a20.5 20.5 0 0 1 2.19 1.905l-1.237 1.619A13 13 0 0 0 13.81 42zm.381 6.571 1.524 1.048a31.7 31.7 0 0 1-3.333 7.522l-1.62-1.238a33.4 33.4 0 0 0 3.43-7.333M20 34l1.81.38a8.6 8.6 0 0 1-.572 1.81h7.429v1.714h-8.19l-.858 1.429q-.381.762-1.238 1.619l-1.142-1.334q1.81-2.19 2.762-5.619m-.476 5.905h8.762q0 2.953-.096 5.524h1.238v1.714h-1.333a87 87 0 0 0-.286 3.905h1.429v1.619H27.62Q27.238 56 24.952 56q-.57 0-1.62-.19l-.285-1.62q1.238.19 1.905.19.666.001.857-1.714H18.38q.381-2.571.666-5.523h-1.333v-1.715h1.524q.19-2.666.285-5.523m1.429 5.523h5.429q.095-2 .095-3.904h-5.238a66 66 0 0 1-.286 3.904M23.335 42q1.049.667 1.905 1.524l-1.143 1.429a12 12 0 0 0-1.9-1.714L23.34 42m2.667 9.047a87 87 0 0 0 .285-3.905h-5.428a60 60 0 0 1-.476 3.905zm-2.953-3.428q1.142.666 2.096 1.523l-1.239 1.43a13.2 13.2 0 0 0-2-1.81zm-10-11.334v14.953H11.34v-1.62H9.72v2.477H8.007v-15.81zM9.72 48h1.619V37.904h-1.62z" style="opacity:.3"/><path d="m43.422 21.89.54-2.025c.607-2.193 1.18-4.757 1.72-7.086h.136c.573 2.295 1.18 4.893 1.788 7.086l.506 2.025zM50.478 31h5.264L48.858 9h-5.972l-6.884 22h5.061l1.35-5.23h6.715z" style="opacity:.2"/><path d="m43.422 20.89.54-2.025c.607-2.193 1.18-4.757 1.72-7.086h.136c.573 2.295 1.18 4.893 1.788 7.086l.506 2.025zM50.478 30h5.264L48.858 8h-5.972l-6.884 22h5.061l1.35-5.23h6.715z" style="fill:#fff"/><circle cx="48" cy="46" r="16" style="fill:#cc5e55"/><path d="m46 38-.176 2.107a6.3 6.3 0 0 0-1.837 1.063l-1.916-.902-2 3.464 1.74 1.208a6.3 6.3 0 0 0-.097 1.06 6.3 6.3 0 0 0 .092 1.065l-1.735 1.203 2 3.464 1.91-.9a6.3 6.3 0 0 0 1.842 1.056L46 54h4l.176-2.107a6.3 6.3 0 0 0 1.837-1.063l1.915.902 2-3.464-1.738-1.208a6.3 6.3 0 0 0 .096-1.06 6.3 6.3 0 0 0-.092-1.065l1.735-1.203-2-3.464-1.91.9a6.3 6.3 0 0 0-1.842-1.056L50 38zm2 5.714A2.286 2.286 0 0 1 50.286 46 2.286 2.286 0 0 1 48 48.286 2.286 2.286 0 0 1 45.714 46 2.286 2.286 0 0 1 48 43.715z" style="fill:#fff"/></svg>