<svg xmlns="http://www.w3.org/2000/svg" xmlns:xlink="http://www.w3.org/1999/xlink" width="64" height="64"><defs><filter id="d" width="1.251" height="1.23" x="-.125" y="-.115" style="color-interpolation-filters:sRGB"><feGaussianBlur stdDeviation="1.568"/></filter><filter id="c" width="1.143" height="1.143" x="-.072" y="-.072" style="color-interpolation-filters:sRGB"><feGaussianBlur stdDeviation="1.568"/></filter><radialGradient xlink:href="#a" id="b" cx="8.725" cy="52.564" r="28" fx="8.725" fy="52.564" gradientTransform="rotate(-30 -206.3 165.334)scale(3.43059)" gradientUnits="userSpaceOnUse"/><linearGradient id="a"><stop offset="0" style="stop-color:#ff283c;stop-opacity:1"/><stop offset="1" style="stop-color:#ff588b;stop-opacity:1"/></linearGradient></defs><rect width="56" height="56" x="4" y="4" rx="16.219" ry="16.219" style="fill:url(#b)"/><path d="M23 23.217v15.127A6 6 0 1 0 21 50a6 6 0 0 0 6-6V26.19a1.604 1.604 130.267 0 1 1.34-1.581l13.32-2.222A1.15 1.15 40.267 0 1 43 23.522v10.822A6 6 0 1 0 41 46a6 6 0 0 0 6-6V20.17a5.124 5.124 40.555 0 0-5.915-5.063L28.217 17.12A6.17 6.17 130.555 0 0 23 23.217" style="fill:#fff"/><rect width="56" height="56" x="4.03" y="4.043" rx="16.219" ry="16.219" style="fill:none;stroke:#000;stroke-opacity:1;stroke-width:.4999999;stroke-dasharray:none;filter:url(#c)"/><path d="M23 23.217v15.127A6 6 0 1 0 21 50a6 6 0 0 0 6-6V26.19a1.604 1.604 130.267 0 1 1.34-1.581l13.32-2.222A1.15 1.15 40.267 0 1 43 23.522v10.822A6 6 0 1 0 41 46a6 6 0 0 0 6-6V20.17a5.124 5.124 40.555 0 0-5.915-5.063L28.217 17.12A6.17 6.17 130.555 0 0 23 23.217Z" style="fill:none;stroke:#000;stroke-opacity:1;stroke-width:.4999999;stroke-dasharray:none;filter:url(#d)" transform="translate(.03 .043)"/></svg>