<svg xmlns="http://www.w3.org/2000/svg" xmlns:xlink="http://www.w3.org/1999/xlink" width="64" height="64"><defs><filter id="f" width="1.391" height="1.324" x="-.195" y="-.162" style="color-interpolation-filters:sRGB"><feGaussianBlur stdDeviation="1.016"/></filter><filter id="e" width="1.187" height="1.179" x="-.093" y="-.089" style="color-interpolation-filters:sRGB"><feGaussianBlur stdDeviation="1.409"/></filter><filter id="d" width="1.33" height="1.179" x="-.165" y="-.09" style="color-interpolation-filters:sRGB"><feGaussianBlur stdDeviation="1.409"/></filter><filter id="c" width="1.258" height="1.3" x="-.127" y="-.151" style="color-interpolation-filters:sRGB"><feGaussianBlur stdDeviation="2.518"/></filter><radialGradient xlink:href="#a" id="b" cx="3.919" cy="57.249" r="28" fx="3.919" fy="57.249" gradientTransform="matrix(2.25199 0 0 1.93027 -2.64 -57.463)" gradientUnits="userSpaceOnUse"/><linearGradient id="a"><stop offset="0" style="stop-color:#3ac176;stop-opacity:1"/><stop offset="1" style="stop-color:#2f9ba1;stop-opacity:1"/></linearGradient></defs><path d="M6.255 11.622v37.801c0 3.437 3.437 3.437 3.437 3.437h44.673Zm8.591 18.68L31.14 44.267H14.846Z" style="fill:url(#b);stroke-width:.859107"/><path d="M6.255 11.622v37.801c0 3.437 3.437 3.437 3.437 3.437h44.673Zm8.591 18.68L31.14 44.267H14.846Z" style="fill:none;stroke:#000;stroke-width:.171821;stroke-dasharray:none;stroke-opacity:1;filter:url(#c)"/><path d="m29.087 16.1 15.668 34.077a4.23 4.23 46.238 0 0 1.912 1.996l.338.173a2.04 2.04 155.327 0 0 2.916-1.34l.09-.372a4.22 4.22 84.397 0 0-.27-2.75L34.073 13.807Z" style="fill:#fff;fill-opacity:1;stroke:none;stroke-width:.461708;stroke-linecap:round;stroke-linejoin:round;stroke-dasharray:none;stroke-opacity:1" transform="translate(-3.508 -1.296)scale(1.1224)"/><path d="m29.087 16.1 15.668 34.077a4.23 4.23 46.238 0 0 1.912 1.996l.338.173a2.04 2.04 155.327 0 0 2.916-1.34l.09-.372a4.22 4.22 84.397 0 0-.27-2.75L34.073 13.807Z" style="fill:none;fill-opacity:1;stroke:#000;stroke-width:.17818946;stroke-linecap:round;stroke-linejoin:round;stroke-dasharray:none;stroke-opacity:1;filter:url(#d)" transform="translate(-3.507 -1.295)scale(1.1224)"/><path d="M29.923 13.918 14.7 47.786a5.04 5.04 94.16 0 0-.25 3.443l.004.015a2.028 2.028 24.181 0 0 2.832 1.271l.011-.005a5.04 5.04 134.226 0 0 2.408-2.474l5.591-12.438c10.31 2.018 21.011-2.938 25.978-12.559.334-.647.035-1.43-.63-1.728l-2.603-1.17c-.664-.3-1.44 0-1.785.642-3.682 6.86-11.177 10.56-18.632 9.637l7.305-16.253z" style="fill:#fff;fill-opacity:1;stroke:none;stroke-width:.461708;stroke-linecap:round;stroke-linejoin:round;stroke-dasharray:none;stroke-opacity:1" transform="translate(-3.508 -1.296)scale(1.1224)"/><path d="M29.923 13.918 14.7 47.786a5.04 5.04 94.16 0 0-.25 3.443l.004.015a2.028 2.028 24.181 0 0 2.832 1.271l.011-.005a5.04 5.04 134.226 0 0 2.408-2.474l5.591-12.438c10.31 2.018 21.011-2.938 25.978-12.559.334-.647.035-1.43-.63-1.728l-2.603-1.17c-.664-.3-1.44 0-1.785.642-3.682 6.86-11.177 10.56-18.632 9.637l7.305-16.253z" style="fill:none;fill-opacity:1;stroke:#000;stroke-width:.17818946;stroke-linecap:round;stroke-linejoin:round;stroke-dasharray:none;stroke-opacity:1;filter:url(#e)" transform="translate(-3.507 -1.295)scale(1.1224)"/><path d="M30.379 11.182v.516c0 .27-.21.547-.463.641a6.495 6.495 0 1 0 8.773 6.083 6.5 6.5 0 0 0-3.872-5.926c-.247-.108-.454-.398-.454-.668v-.646a1.93 1.93 45 0 0-1.928-1.928h-.128a1.93 1.93 135 0 0-1.928 1.928m1.816 5.959c.708 0 1.28.574 1.282 1.28a1.283 1.283 0 0 1-2.562 0c0-.706.573-1.28 1.28-1.28" style="fill:#414141;fill-opacity:1;stroke:none;stroke-width:.581031;stroke-linecap:round;stroke-linejoin:round;stroke-dasharray:none;stroke-opacity:1" transform="translate(-3.508 -1.296)scale(1.1224)"/><path d="M30.379 11.182v.516c0 .27-.21.547-.463.641a6.495 6.495 0 1 0 8.773 6.083 6.5 6.5 0 0 0-3.872-5.926c-.247-.108-.454-.398-.454-.668v-.646a1.93 1.93 45 0 0-1.928-1.928h-.128a1.93 1.93 135 0 0-1.928 1.928m1.816 5.959c.708 0 1.28.574 1.282 1.28a1.283 1.283 0 0 1-2.562 0c0-.706.573-1.28 1.28-1.28" style="fill:none;fill-opacity:1;stroke:#000;stroke-width:.2;stroke-linecap:round;stroke-linejoin:round;stroke-dasharray:none;stroke-opacity:1;filter:url(#f)" transform="translate(-3.508 -1.296)scale(1.1224)"/></svg>