<svg xmlns="http://www.w3.org/2000/svg" width="64" height="64"><rect width="56" height="56" x="4" y="5" rx="4.2" ry="4.2" style="opacity:.2"/><rect width="56" height="56" x="4" y="4" rx="4.2" ry="4.2" style="fill:#e4e4e4"/><path d="M22-52h4v18h-4z" style="fill:#258646" transform="scale(1 -1)"/><path d="M42 12h4v40h-4z" style="fill:#258646"/><path d="M39 22h10v20H39z" style="fill:#33c03b"/><path d="M22 12h4v18h-4z" style="fill:#258646"/><path d="M26-33h4v18h-4zm8 0h4v18h-4z" style="fill:#33c03b" transform="rotate(90)"/><path d="M8.2 4A4.19 4.19 0 0 0 4 8.2v1A4.19 4.19 0 0 1 8.2 5h47.6A4.19 4.19 0 0 1 60 9.2v-1A4.19 4.19 0 0 0 55.8 4z" style="opacity:.2;fill:#fff"/><path d="M15 30h18v1H15zm0 8h18v1H15zm24 4h10v1H39zM22 52h4v1h-4zm20 0h4v1h-4z" style="opacity:.1"/></svg>