<svg xmlns="http://www.w3.org/2000/svg" width="64" height="64"><rect width="52" height="52" x="6" y="7" rx="2.8" ry="2.8" style="opacity:.2"/><rect width="52" height="52" x="6" y="6" rx="2.8" ry="2.8" style="fill:#e4e4e4"/><path d="m13 15 10 18-10 18h6l10-18-10-18Zm10 0 10 18-10 18h6l7-12.602L43 51h6L29 15Zm16.668 12 2.222 4H51v-4Zm4.442 8 2.222 4H51v-4Z" style="opacity:.1"/><path d="m13 14 10 18-10 18h6l10-18-10-18Zm26.668 12 2.222 4H51v-4Zm4.442 8 2.222 4H51v-4Z" style="fill:#8b82a4"/><path d="m23 14 10 18-10 18h6l7-12.602L43 50h6L29 14Z" style="fill:#5f5088"/><path d="M8.8 6C7.25 6 6 7.25 6 8.8v1C6 8.25 7.25 7 8.8 7h46.4A2.796 2.796 0 0 1 58 9.8v-1C58 7.25 56.75 6 55.199 6z" style="fill:#fff;opacity:.2"/></svg>