<svg xmlns="http://www.w3.org/2000/svg" width="64" height="64"><rect width="56" height="56" x="4" y="5" rx="2.8" style="opacity:.2"/><rect width="56" height="56" x="4" y="4" rx="2.8" style="fill:#3bb779"/><path d="M6.8 4C5.25 4 4 5.25 4 6.8v1C4 6.25 5.25 5 6.8 5h50.4C58.75 5 60 6.25 60 7.8v-1C60 5.25 58.75 4 57.2 4Z" style="fill:#fff;opacity:.2"/><path d="M25.99 36.01a8.5 8.5 0 0 1 0-12.02 8.5 8.5 0 0 1 12.02 0 8.5 8.5 0 0 1 0 12.02" style="fill:none;opacity:.2;stroke-width:5;stroke:#000"/><circle cx="32" cy="29" r="8.5" style="fill:none;stroke-width:5;stroke:#fff"/><path d="M11 46c11-13 31-13 42 0-16-6.5-26-6.5-42 0" style="opacity:.2"/><path d="M11 45c11-13 31-13 42 0-16-6.5-26-6.5-42 0" style="fill:#fff"/></svg>