<svg xmlns="http://www.w3.org/2000/svg" width="64" height="64"><path d="M10 56v2c0 1.662 1.338 3 3 3h38c1.662 0 3-1.338 3-3v-2c0 1.662-1.338 3-3 3H13c-1.662 0-3-1.338-3-3" style="opacity:.2"/><path d="M54 57V7c0-1.662-1.338-3-3-3H13c-1.662 0-3 1.338-3 3v50c0 1.662 1.338 3 3 3h38c1.662 0 3-1.338 3-3" style="fill:#395d6d"/><path d="M13 4c-1.662 0-3 1.338-3 3v1c0-1.662 1.338-3 3-3h38c1.662 0 3 1.338 3 3V7c0-1.662-1.338-3-3-3z" style="opacity:.1;fill:#fff"/><path d="m31.885 22-4.358 15.313L24.29 29H18v3h4.457l4.36 11h2.033l5.183-18H43v-3zm1.56 8 4.762 6.197L33 43h2.6l3.9-5.11L43.4 43H46l-5.102-6.676L45.748 30H43.15l-3.552 4.629L36.04 30z" style="opacity:.2"/><path d="m31.885 21-4.358 15.313L24.29 28H18v3h4.457l4.36 11h2.033l5.183-18H43v-3zm1.56 8 4.762 6.197L33 42h2.6l3.9-5.11L43.4 42H46l-5.102-6.676L45.748 29H43.15l-3.552 4.629L36.04 29z" style="fill:#ff6868"/></svg>