<svg xmlns="http://www.w3.org/2000/svg" width="64" height="64"><path d="M34.58 5.01c-2.107-.202-2.995 2.612-1.154 3.653A18.9 18.9 0 0 1 43 25.111C43 35.584 34.56 43.997 24.077 44c-6.796-.018-13.052-3.632-16.413-9.532-1.045-1.833-3.854-.945-3.654 1.155C5.39 49.973 17.474 60.967 31.906 61h.005C47.4 61 60 48.415 60 32.941c0-14.445-11.024-26.558-25.42-27.93" style="opacity:.2"/><path d="M34.58 4.01c-2.107-.202-2.995 2.612-1.154 3.653A18.9 18.9 0 0 1 43 24.111C43 34.584 34.56 42.997 24.077 43c-6.796-.018-13.052-3.632-16.413-9.532-1.045-1.833-3.854-.945-3.654 1.155C5.39 48.973 17.474 59.967 31.906 60h.005C47.4 60 60 47.415 60 31.941c0-14.445-11.024-26.558-25.42-27.93" style="fill:#fdd835"/><path d="M34.2 4.006c-1.285.102-1.993 1.386-1.704 2.478.22-.859.982-1.58 2.084-1.474C48.8 6.366 59.723 18.204 59.988 32.416c.003-.159.012-.315.012-.475C60 17.496 48.976 5.382 34.58 4.01a2 2 0 0 0-.38-.004m8.784 20.67C42.686 34.883 34.37 42.997 24.076 43c-6.795-.018-13.051-3.631-16.412-9.531-1.045-1.833-3.854-.946-3.654 1.154.011.119.03.235.043.354.36-1.614 2.681-2.139 3.611-.508 3.36 5.9 9.617 9.513 16.412 9.531C34.56 43.997 43 35.584 43 25.111c0-.146-.012-.29-.016-.435" style="fill:#fff;opacity:.2"/></svg>