<svg xmlns="http://www.w3.org/2000/svg" width="64" height="64"><path d="M4.6 30.001c-2.094.01-3.323 2.352-2.137 4.073l14.345 20.799A2.61 2.61 0 0 0 18.958 56h26.083a2.61 2.61 0 0 0 2.15-1.127l14.345-20.8c1.252-1.818-.193-4.267-2.397-4.06L32 32.89 4.86 30.014A3 3 0 0 0 4.6 30z" style="opacity:.2;fill-rule:evenodd"/><path d="M4.6 29.001c-2.094.01-3.323 2.352-2.137 4.073l14.345 20.799A2.61 2.61 0 0 0 18.958 55h26.083a2.61 2.61 0 0 0 2.15-1.127l14.345-20.8c1.252-1.818-.193-4.267-2.397-4.06L32 29l-27.14.014A3 3 0 0 0 4.6 29z" style="fill:#bcbcbc;fill-rule:evenodd"/><path d="m4.867 29.015 27.132 6.986 27.133-6.986-27.133-.014Z" style="opacity:.3;fill-rule:evenodd"/><path d="M32.089 9.004a2.38 2.38 0 0 0-2.155 1.206L14.34 37.283c-1.073 1.863.55 4.138 2.605 3.65L32 36.002l15.054 4.933c2.055.487 3.678-1.788 2.605-3.651L34.066 10.21a2.39 2.39 0 0 0-1.977-1.206" style="fill:#bcbcbc;fill-rule:evenodd"/><path d="M32.09 9.004a2.39 2.39 0 0 0-2.156 1.207L14.342 37.283c-.323.56-.38 1.15-.278 1.697q.081-.352.278-.697l15.592-27.072a2.39 2.39 0 0 1 2.156-1.207 2.39 2.39 0 0 1 1.976 1.207l15.592 27.072q.197.345.278.697a2.44 2.44 0 0 0-.278-1.697L34.066 10.211a2.39 2.39 0 0 0-1.976-1.207" style="opacity:.1;fill:#fff;fill-rule:evenodd"/><path d="m32 10 3.484 29.29L31.999 36l-3.385 3.29Z" style="opacity:.3;fill-rule:evenodd"/><path d="M4.604 29.001c-2.093.01-3.322 2.353-2.137 4.074L16.81 53.872A2.61 2.61 0 0 0 18.96 55L32 36 4.863 29.016a3 3 0 0 0-.26-.014m27.395 7 13.04 19c.858 0 1.663-.424 2.15-1.13L61.53 33.076c1.185-1.72-.043-4.064-2.137-4.074q-.13.001-.26.014z" style="fill:#e4e4e4;fill-rule:evenodd"/><path d="m2.063 32.125-.002.014q.05.232.148.46a2.6 2.6 0 0 1-.147-.474m59.873 0a2.6 2.6 0 0 1-.149.482 2.5 2.5 0 0 0 .15-.466zm-.149.482a2.6 2.6 0 0 1-.256.467L47.19 53.871a2.6 2.6 0 0 1-.42.475q.238-.21.422-.473l14.346-20.799a2.6 2.6 0 0 0 .25-.467m-59.572.006c.067.157.145.312.248.461L16.81 53.871 2.467 33.074a2.6 2.6 0 0 1-.252-.46m29.201 4.237L18.961 55h.685L32 37v-1ZM32 37l12.354 18h.685L32.584 36.85 32 36Z" style="opacity:.1;fill-rule:evenodd"/><path d="M4.604 29.002c-1.726.009-2.858 1.6-2.541 3.123.221-1.147 1.197-2.116 2.54-2.123V30q.13.001.26.016l26.553 6.834L32 36 4.863 29.016a3 3 0 0 0-.26-.014M32 36l.584.85 26.55-6.834q.13-.014.26-.014c1.344.007 2.32.976 2.542 2.123.317-1.523-.816-3.114-2.541-3.123q-.13 0-.26.014z" style="opacity:.2;fill:#fff;fill-rule:evenodd"/></svg>