<svg xmlns="http://www.w3.org/2000/svg" xmlns:xlink="http://www.w3.org/1999/xlink" width="64" height="64"><defs><filter id="k" width="1.617" height="1.229" x="-.309" y="-.114" style="color-interpolation-filters:sRGB"><feGaussianBlur stdDeviation="1.086"/></filter><filter id="g" width="1.292" height="1.083" x="-.146" y="-.042" style="color-interpolation-filters:sRGB"><feGaussianBlur stdDeviation=".284"/></filter><filter id="j" width="1.49" height="1.258" x="-.245" y="-.129" style="color-interpolation-filters:sRGB"><feGaussianBlur stdDeviation=".871"/></filter><filter id="f" width="1.199" height="1.167" x="-.1" y="-.083" style="color-interpolation-filters:sRGB"><feGaussianBlur stdDeviation="1.837"/></filter><radialGradient xlink:href="#a" id="e" cx="1.069" cy="66.393" r="28" fx="1.069" fy="66.393" gradientTransform="matrix(0 2.28563 -2.28674 0 151.989 -2.147)" gradientUnits="userSpaceOnUse"/><radialGradient xlink:href="#c" id="i" cx="31.947" cy="39.464" r="4.469" fx="31.947" fy="39.464" gradientTransform="matrix(4.60358 0 0 5.06432 -115.013 -151.95)" gradientUnits="userSpaceOnUse"/><radialGradient xlink:href="#d" id="h" cx="31.947" cy="39.464" r="4.469" fx="31.947" fy="39.464" gradientTransform="matrix(4.60358 0 0 5.06432 -115.013 -156.128)" gradientUnits="userSpaceOnUse"/><linearGradient id="d"><stop offset="0" style="stop-color:#006f39;stop-opacity:1"/><stop offset="1" style="stop-color:#00582d;stop-opacity:1"/></linearGradient><linearGradient id="c"><stop offset="0" style="stop-color:#80f8bd;stop-opacity:1"/><stop offset="1" style="stop-color:#b1ffd9;stop-opacity:1"/></linearGradient><linearGradient id="a"><stop offset="0" style="stop-color:#15f19f;stop-opacity:1"/><stop offset="1" style="stop-color:#1cbf6d;stop-opacity:1"/></linearGradient></defs><path d="M21.474 4.696h20.93A12.354 12.354 0 0 1 54.81 17.102v29.912a12.354 12.354 0 0 1-12.406 12.405h-20.93A12.354 12.354 0 0 1 9.068 47.014V17.102A12.354 12.354 0 0 1 21.474 4.696" class="st5" style="fill:url(#e);fill-opacity:1;stroke-width:1.37842"/><path d="M21.535 4.638h20.93a12.354 12.354 0 0 1 12.406 12.406v29.912a12.354 12.354 0 0 1-12.406 12.406h-20.93A12.354 12.354 0 0 1 9.129 46.956V17.044A12.354 12.354 0 0 1 21.535 4.638z" class="st5" style="fill:none;fill-opacity:1;stroke-width:.3;stroke:#000;stroke-opacity:1;stroke-dasharray:none;filter:url(#f)"/><path d="M27.49 4.771h8.936v24.128H27.49z" style="opacity:.187567;stroke-width:.893646"/><path d="M32.625 7.452h1.348zm-1.332 0h-1.349a.666.666 135 0 0-.666.666v1.349a.666.666 45 0 0 .666.666h1.349a.666.666 135 0 0 .666-.666V8.118a.666.666 45 0 0-.666-.666m.666 3.347v1.35a.666.666 45 0 0 .666.666h1.348a.666.666 135 0 0 .666-.666v-1.35a.666.666 45 0 0-.666-.666h-1.348a.666.666 135 0 0-.666.666m-.666 2.016h-1.349a.666.666 135 0 0-.666.666v1.348a.666.666 45 0 0 .666.666h1.349a.666.666 135 0 0 .666-.666v-1.348a.666.666 45 0 0-.666-.666m.666 3.346v1.348a.666.666 45 0 0 .666.666h1.348a.666.666 135 0 0 .666-.666v-1.348a.666.666 45 0 0-.666-.666h-1.348a.666.666 135 0 0-.666.666m-.666 2.014h-1.349a.666.666 135 0 0-.666.666v1.35a.666.666 45 0 0 .666.667h1.349a.666.666 135 0 0 .666-.666v-1.35a.666.666 45 0 0-.666-.667m.666 3.348v1.349a.666.666 45 0 0 .666.666h1.348a.666.666 135 0 0 .666-.666v-1.349a.666.666 45 0 0-.666-.665h-1.348a.666.666 135 0 0-.666.665m-.666 2.015h-1.349a.666.666 135 0 0-.666.666v1.348a.666.666 45 0 0 .666.666h1.349a.666.666 135 0 0 .666-.666v-1.348a.666.666 45 0 0-.666-.666" style="fill:#fff;stroke-width:.893646" transform="translate(0 -1.836)"/><path d="M31.293 7.452h-1.349a.666.666 135 0 0-.666.666v1.349a.666.666 45 0 0 .666.666h1.349a.666.666 135 0 0 .666-.666V8.118a.666.666 45 0 0-.666-.666Zm.666 3.347v1.35a.666.666 45 0 0 .666.666h1.348a.666.666 135 0 0 .666-.666v-1.35a.666.666 45 0 0-.666-.666h-1.348a.666.666 135 0 0-.666.666zm-.666 2.016h-1.349a.666.666 135 0 0-.666.666v1.348a.666.666 45 0 0 .666.666h1.349a.666.666 135 0 0 .666-.666v-1.348a.666.666 45 0 0-.666-.666zm.666 3.346v1.348a.666.666 45 0 0 .666.666h1.348a.666.666 135 0 0 .666-.666v-1.348a.666.666 45 0 0-.666-.666h-1.348a.666.666 135 0 0-.666.666Zm-.666 2.014h-1.349a.666.666 135 0 0-.666.666v1.35a.666.666 45 0 0 .666.667h1.349a.666.666 135 0 0 .666-.666v-1.35a.666.666 45 0 0-.666-.667zm.666 3.348v1.349a.666.666 45 0 0 .666.666h1.348a.666.666 135 0 0 .666-.666v-1.349a.666.666 45 0 0-.666-.665h-1.348a.666.666 135 0 0-.666.665zm-.666 2.015h-1.349a.666.666 135 0 0-.666.666v1.348a.666.666 45 0 0 .666.666h1.349a.666.666 135 0 0 .666-.666v-1.348a.666.666 45 0 0-.666-.666z" style="mix-blend-mode:normal;fill:none;stroke:#00a15f;stroke-width:.2;stroke-dasharray:none;stroke-opacity:1;filter:url(#g)" transform="translate(0 -1.836)"/><path d="M31.62 23.87c-2.31 0-4.172 1.879-4.172 4.21v4.55h8.937v-4.55c0-2.331-1.862-4.21-4.172-4.21z" style="fill:url(#h);fill-opacity:1;stroke-width:.893646"/><path d="M31.62 28.896c-2.31 0-4.172 1.879-4.172 4.21v8.559c0 2.33 1.861 4.211 4.172 4.211h.593c2.31 0 4.172-1.88 4.172-4.211v-8.56c0-2.33-1.862-4.209-4.172-4.209zm.297 10.156a2.355 2.355 0 1 1-.003 4.71 2.355 2.355 0 0 1 .003-4.71" style="fill:url(#i);stroke-width:.893646;fill-opacity:1"/><path d="M31.62 28.896c-2.31 0-4.172 1.879-4.172 4.21v8.559c0 2.33 1.861 4.211 4.172 4.211h.593c2.31 0 4.172-1.88 4.172-4.211v-8.56c0-2.33-1.862-4.209-4.172-4.209zm.297 10.156a2.355 2.355 0 1 1-.003 4.71 2.355 2.355 0 0 1 .003-4.71z" style="fill:none;fill-opacity:1;stroke-width:.2;stroke:#005f38;stroke-opacity:1;stroke-dasharray:none;filter:url(#j)"/><path d="M27.84 7.082v22.451c.014-.003.029-.001.043-.006l.006-.002.004-.002a.4.4 0 0 0 .105-.058 1 1 0 0 0 .094-.084l.002-.004a1 1 0 0 0 .1-.127l.005-.006a2 2 0 0 0 .073-.117l.004-.01c.05-.088.099-.192.148-.3q.043-.095.086-.198c.034-.082.069-.161.103-.25l.004-.012.012-.03c.09-.229.185-.478.29-.733l.071-.176.102-.227c.045-.102.087-.203.137-.304q.06-.122.125-.243l.007-.015q.068-.125.141-.246v-1.565h2.348l.146-.004h.039v-2.529h-2.533V19.75h2.533v-2.533h-2.533v-2.533h2.533v-2.536h-2.533V9.615h2.533V7.082Zm6.756 0v2.533h-2.533v2.533h2.533v2.536h-2.533v2.533h2.533v2.533h-2.533v2.535h2.533v2.533h-2.453q.095.006.187.018l.055.004.011.002.088.015q.12.021.233.051l.013.002q.096.026.186.059c2.28.795 2.385 4.576 3.33 4.576v.342h.041V7.082Z" style="opacity:.187567;mix-blend-mode:normal;fill:none;stroke-width:.3;filter:url(#k)" transform="translate(-1.898 -2.779)scale(1.05803)"/></svg>