<svg xmlns="http://www.w3.org/2000/svg" width="64" height="64"><path d="M27.822 5.002a6 6 0 0 0-5.9 5.254l-.53 4.236c-.705.345-1.294.572-2.677 1.51-1.017.689-2.122 1.512-3.219 2.752-.816.92-1.6 2.359-2.039 4.138-.712.265-.8.265-1.64.615-1.163.485-2.348 1.008-3.551 1.71-.602.35-1.206.717-1.965 1.414C5.54 27.327 4 28.453 4 31.625c0 2.92.832 3.796 1.404 4.625a6 6 0 0 0 .162 1.006l1.375 5.3a6 6 0 0 0 .276.793c-.037.118-.159.26-.188.373-.542 2.13-.181 4.102-.181 4.102a6 6 0 0 0 1.402 2.883 6 6 0 0 0 4.656 4.662 6 6 0 0 0 3.969 1.506c.519 0 .95-.15 1.418-.239a6 6 0 0 0 3.078 1.524l.088.09a6 6 0 0 0 6.937 2.441c1.246-.415 2.267-.97 3.239-1.535.585.414 1.1.857 1.806 1.21a6 6 0 0 0 8.327-3.335c.462-.01.914-.026 1.32-.045 1.081-.05 1.963-.15 1.963-.15a6 6 0 0 0 2.076-.637c3.64 1.875 8.047-.365 8.678-4.41 0 0 .22-1.42.33-3.162.097-1.56.216-3.342-.424-5.746l.225-.077c3.44-1.172 5.057-5.111 3.431-8.363l-1.185-2.37-1.24-3.718a6 6 0 0 0-.39-.894l1.856-3.86c2.108-4.389-1.614-9.329-6.414-8.513l-.265.045.125.552c-.807-3.585-4.617-5.61-8.04-4.271l-.007.004-.162-.45c-1.35-3.744-5.906-5.16-9.141-2.841l-.912.654-.697-1.064a6 6 0 0 0-5.073-2.713" style="opacity:.2"/><path d="M27.822 4.002a6 6 0 0 0-5.9 5.254l-.53 4.236c-.705.345-1.294.573-2.677 1.51-1.017.69-2.122 1.513-3.219 2.752-.816.921-1.6 2.359-2.039 4.139-.712.265-.8.265-1.64.615-1.163.484-2.348 1.007-3.551 1.709-.602.35-1.206.717-1.965 1.414C5.54 26.327 4 27.453 4 30.625c0 2.92.832 3.796 1.404 4.625a6 6 0 0 0 .162 1.006l1.375 5.3a6 6 0 0 0 .276.794c-.037.118-.159.258-.188.373-.542 2.13-.181 4.101-.181 4.101a6 6 0 0 0 1.402 2.883 6 6 0 0 0 4.656 4.662 6 6 0 0 0 3.969 1.506c.519 0 .95-.149 1.418-.238a6 6 0 0 0 3.078 1.523l.088.09a6 6 0 0 0 6.937 2.441c1.246-.415 2.267-.97 3.239-1.535.585.414 1.1.858 1.806 1.211a6 6 0 0 0 8.327-3.336c.462-.009.914-.026 1.32-.045 1.081-.05 1.963-.15 1.963-.15a6 6 0 0 0 2.076-.637c3.64 1.876 8.047-.364 8.678-4.41 0 0 .22-1.42.33-3.162.097-1.56.216-3.342-.424-5.746l.225-.076c3.44-1.173 5.057-5.112 3.431-8.364l-1.185-2.369-1.24-3.718a6 6 0 0 0-.39-.895l1.856-3.86c2.108-4.389-1.614-9.329-6.414-8.513l-.265.045.125.553c-.807-3.585-4.617-5.61-8.04-4.272l-.007.004-.162-.45c-1.35-3.744-5.906-5.16-9.141-2.841l-.912.654-.697-1.064a6 6 0 0 0-5.073-2.713" style="fill:#3f3f3f"/><path d="M27.875 11 27 18l7.063 4.687s7.562-3.439 8.937-2.715c2.75 2.026 2.75 6.923 2.75 6.923l4.125.605L53 21l-5.875 1L46 17l-5.75 2.25L38 13l-6 4.303zm-2.75 8.25s-6.087 2.75-6.087 5.5c0 .648.587 1.375.587 1.375L18.25 27.5S10 30.25 10 31.625c0 1.025 1.375 2.75 1.375 2.75L14.125 33l-1.375 2.75h-1.375l1.375 5.3h2.75L17 44l1.5-1.375s2.226 2.347 3.875 2.45L28 43s-1.5 2.375-4.25 3.75c-.931 1.644-1.375 5.3-1.375 5.3h2.75L26.5 55c4.125-1.375 5.5-4.125 5.5-4.125s1.375 2.75 4.125 4.125l1.375-5.5s1.753 1.14 2.75 1.375c1.338.316 4.125 0 4.125 0L41.625 44s2.847 1.702 4.125 2.75c1.504 1.232 4.125 4.125 4.125 4.125s.725-4.701 0-6.875-4.125-5-4.125-5h2.75l5.5-1.875-1.375-2.75-1.375-4.125s-2.75-1.275-6.875-1.275c-1.45 0-4.125 1.275-4.125 1.275V27.5l-2.75 1.375s0-5.5 5.5-5.5c0-.649-.744-1.226-1.375-1.375-2.75 0-8.25 2.75-8.25 2.75zM26 28s-.039 1.011-.456 1.69c-.491.8-.62 1.684-1.995 2.274-.426.183-1.084-.873-1.084-.873L21 32l1.174-1.65s-.37-1.105 0-1.375C23.55 27.975 26 28 26 28M15 42.625C12.25 44 12.75 46.75 12.75 46.75h1.375s-.36.883 0 2.75c1.375 0 2.75-1.375 2.75-1.375s-.377 1.375 0 2.75c1.989 0 2.75-2.75 2.75-2.75s-.001.4.706.744c.668-.745.669-2.12.669-2.12s-.826-1.694-1.375-1.674H16Z" style="opacity:.2"/><path d="M27.875 10 27 17l7.063 4.688s7.562-3.44 8.937-2.716c2.75 2.027 2.75 6.924 2.75 6.924l4.125.604L53 20l-5.875 1L46 16l-5.75 2.25L38 12l-6 4.303Zm-2.75 8.25s-6.087 2.75-6.087 5.5c0 .648.587 1.375.587 1.375L18.25 26.5S10 29.25 10 30.625c0 1.025 1.375 2.75 1.375 2.75L14.125 32l-1.375 2.75h-1.375l1.375 5.3h2.75L17 43l1.5-1.375s2.226 2.347 3.875 2.45L28 42s-1.5 2.375-4.25 3.75c-.931 1.644-1.375 5.3-1.375 5.3h2.75L26.5 54c4.125-1.375 5.5-4.125 5.5-4.125s1.375 2.75 4.125 4.125l1.375-5.5s1.753 1.14 2.75 1.375c1.338.316 4.125 0 4.125 0L41.625 43s2.847 1.702 4.125 2.75c1.504 1.233 4.125 4.125 4.125 4.125s.725-4.7 0-6.875-4.125-5-4.125-5h2.75l5.5-1.875-1.375-2.75-1.375-4.125s-2.75-1.275-6.875-1.275c-1.45 0-4.125 1.275-4.125 1.275V26.5l-2.75 1.375s0-5.5 5.5-5.5c0-.648-.744-1.226-1.375-1.375-2.75 0-8.25 2.75-8.25 2.75zM26 27s-.039 1.012-.456 1.69c-.491.801-.62 1.684-1.995 2.275-.426.183-1.084-.873-1.084-.873L21 31l1.174-1.65s-.37-1.105 0-1.375C23.55 26.975 26 27 26 27M15 41.625C12.25 43 12.75 45.75 12.75 45.75h1.375s-.36.884 0 2.75c1.375 0 2.75-1.375 2.75-1.375s-.377 1.375 0 2.75c1.989 0 2.75-2.75 2.75-2.75s-.001.4.706.744C21 47.124 21 45.75 21 45.75s-.826-1.695-1.375-1.675H16Z" style="fill:#dab447"/><path d="M27.822 4.002a6 6 0 0 0-5.9 5.254l-.53 4.236c-.705.345-1.294.573-2.677 1.51-1.017.69-2.122 1.513-3.219 2.752-.816.921-1.6 2.359-2.039 4.139-.712.265-.8.265-1.64.615-1.163.484-2.348 1.007-3.551 1.709-.602.35-1.206.717-1.965 1.414C5.54 26.327 4 27.453 4 30.625c0 .228.014.423.023.627.122-2.874 1.55-3.954 2.278-4.621.76-.697 1.363-1.063 1.965-1.414 1.203-.702 2.388-1.225 3.55-1.71.841-.35.93-.35 1.641-.614.44-1.78 1.223-3.218 2.04-4.14 1.096-1.238 2.2-2.062 3.218-2.751 1.383-.937 1.972-1.165 2.678-1.51l.529-4.236a6 6 0 0 1 10.973-2.541l.697 1.064.912-.654c3.235-2.319 7.79-.903 9.14 2.842l.163.449.007-.004c3.423-1.338 7.233.687 8.04 4.272l-.125-.553.265-.045c3.66-.622 6.684 2.103 6.985 5.377.296-3.694-2.958-7.061-6.985-6.377l-.265.045.125.553c-.807-3.585-4.617-5.61-8.04-4.272l-.007.004-.162-.45c-1.35-3.744-5.906-5.16-9.141-2.841l-.912.654-.697-1.064a6 6 0 0 0-5.073-2.713m28.96 22.982-.23.475a6 6 0 0 1 .39.895l1.24 3.718 1.185 2.37c.358.715.55 1.465.61 2.21a5.96 5.96 0 0 0-.61-3.21l-1.185-2.37-1.24-3.718c-.044-.128-.109-.246-.16-.37M7.017 42.777a10.3 10.3 0 0 0-.264 3.08c.02-.645.078-1.36.275-2.134.03-.115.151-.255.188-.373-.08-.186-.14-.38-.2-.573m48.908.032-.215.072c.32 1.202.45 2.248.488 3.19a14.6 14.6 0 0 0-.273-3.262" style="opacity:.1;fill:#fff"/></svg>