<svg xmlns="http://www.w3.org/2000/svg" width="64" height="64"><path d="M7.111 9C5.387 9 4 10.333 4 12.039v36.46C4 50.208 5.387 51 7.111 51h28.25l6.139 7 6.18-7h9.21c1.723 0 3.11-.793 3.11-2.5V12.039C60 10.333 58.613 9 56.889 9Z" style="opacity:.2"/><path d="M7.111 8C5.387 8 4 9.333 4 11.039v36.46C4 49.208 5.387 50 7.111 50h28.25l6.139 7 6.18-7h9.21c1.723 0 3.11-.793 3.11-2.5V11.039C60 9.333 58.613 8 56.889 8Z" style="fill:#02a8f3"/><path d="M7.111 8C5.388 8 4 9.333 4 11.04v1C4 10.332 5.388 9 7.111 9H56.89C58.614 9 60 10.333 60 12.04v-1C60 9.332 58.614 8 56.889 8z" style="fill:#fff;opacity:.2"/><path d="M32 15a14 14 0 0 0-1.398.07H30.6q-.702.071-1.381.21a13.9 13.9 0 0 0-3.93 1.43l-.041.028q-.585.322-1.135.698l-.21.156c-.299.212-.593.43-.874.664a14 14 0 0 0-.35.318c-.224.2-.449.4-.66.613a14 14 0 0 0-.359.397c-.186.204-.371.407-.545.621a14 14 0 0 0-.344.46c-.162.217-.325.434-.474.661a14 14 0 0 0-.27.444 14 14 0 0 0-.441.771 14 14 0 0 0-.193.402c-.136.282-.268.566-.385.858a14 14 0 0 0-.158.433 14 14 0 0 0-.29.87 14 14 0 0 0-.132.517c-.066.266-.13.532-.18.803a14 14 0 0 0-.098.639c-.034.244-.068.488-.09.736A14 14 0 0 0 18 29a14 14 0 0 0 .07 1.4q.071.702.21 1.381a13.9 13.9 0 0 0 1.43 3.93l.028.041q.322.585.698 1.135l.156.21c.212.299.43.593.664.874a14 14 0 0 0 .318.35c.2.224.4.449.613.66a14 14 0 0 0 .397.359c.204.186.407.371.621.545a14 14 0 0 0 .46.344c.217.162.434.325.661.474a14 14 0 0 0 .444.27c.253.153.507.304.771.441a14 14 0 0 0 .402.193c.282.136.566.268.858.385a14 14 0 0 0 .433.158c.287.104.574.204.87.29a14 14 0 0 0 .517.132c.266.066.532.13.803.18a14 14 0 0 0 .639.098c.244.034.488.068.736.09A14 14 0 0 0 32 43q.708-.001 1.398-.07h.002q.703-.071 1.381-.21a13.9 13.9 0 0 0 3.93-1.43l.002-.003.039-.025q.585-.322 1.135-.698l.21-.156c.299-.212.593-.43.874-.664a14 14 0 0 0 .35-.318c.224-.2.449-.4.66-.614a14 14 0 0 0 .359-.396c.186-.204.371-.407.545-.621a14 14 0 0 0 .344-.46c.162-.217.325-.434.474-.661a14 14 0 0 0 .27-.444c.153-.253.304-.507.441-.771a14 14 0 0 0 .193-.402c.136-.282.268-.566.385-.858a14 14 0 0 0 .158-.433c.104-.287.204-.574.29-.87a14 14 0 0 0 .132-.517c.066-.266.13-.532.18-.803a14 14 0 0 0 .098-.639c.034-.244.068-.488.09-.736A14 14 0 0 0 46 29q-.001-.708-.07-1.398V27.6a14 14 0 0 0-.21-1.381 13.9 13.9 0 0 0-1.43-3.93l-.003-.002-.025-.039q-.322-.585-.698-1.135l-.156-.21a14 14 0 0 0-.664-.874 14 14 0 0 0-.318-.35c-.2-.224-.4-.449-.614-.66a14 14 0 0 0-.396-.359 15 15 0 0 0-.621-.545 14 14 0 0 0-.46-.344c-.217-.162-.434-.325-.661-.474a14 14 0 0 0-.444-.27 14 14 0 0 0-.771-.441 14 14 0 0 0-.402-.193 14 14 0 0 0-.858-.385 14 14 0 0 0-.433-.158 14 14 0 0 0-.87-.29 14 14 0 0 0-.517-.132 14 14 0 0 0-.803-.18 14 14 0 0 0-.639-.098c-.244-.034-.488-.068-.736-.09A14 14 0 0 0 32 15m-.996 3.055-.176.383c-1.185 2.59-1.252 5.625-.152 7.246.199.293.379.573.379.609s-.215.074-.457.074c-.57 0-1.11-.346-2.211-1.219-.49-.387-1.125-.712-1.371-.761-.388-.078-.492-.044-.993.457-.466.466-.609.718-.609 1.144 0 1.618 1.92 2.9 5.488 3.657 4.847 1.027 6.042 1.95 6.176 4.5.114 2.172-.658 3.974-2.32 5.496A11 11 0 0 1 32 40a11 11 0 0 1-1.541-.121c-.244-1.22-.798-2.35-1.537-3.066-.27-.263-1.03-.818-1.68-1.22-.649-.4-1.303-.867-1.449-1.066-.242-.33-.26-.534-.074-1.144.338-1.115.74-1.737 1.523-2.442.41-.369.823-.676.914-.683s-.521-.194-1.445-.383a26 26 0 0 1-2.977-.84c-.84-.304-1.85-.829-2.646-1.351a11 11 0 0 1 9.916-9.63m10.592 5.593A11 11 0 0 1 43 29a11 11 0 0 1-.562 3.441 19 19 0 0 0-1.395-1.652c-1.962-2.07-2.271-3.148-1.45-4.8.308-.619 1.379-1.816 2.003-2.34" style="opacity:.4"/></svg>