<svg xmlns="http://www.w3.org/2000/svg" width="64" height="64"><path d="M4.05 32c-.011.335-.05.663-.05 1 0 15.512 12.488 28 28 28a27.94 27.94 0 0 0 27.998-28c0-.337-.04-.665-.05-1C59.42 47.043 47.173 59 32 59S4.578 47.042 4.05 32" style="opacity:.2"/><rect width="56" height="56" x="4" y="4" rx="27.999" ry="27.999" style="fill:#9d9d9d"/><path d="M32 4.002C16.488 4.002 4 16.488 4 32c0 .113.011.224.018.336C4.369 17.135 16.71 5 32 5s27.63 12.135 27.982 27.336c.007-.112.018-.223.018-.336A27.94 27.94 0 0 0 32 4.002" style="opacity:.1;fill:#fff"/><circle cx="-32" cy="-32" r="22" style="fill:#707070" transform="rotate(90)scale(-1 1)"/><circle cx="-32" cy="-32" r="16" style="fill:#3f3f3f" transform="rotate(90)scale(-1 1)"/><circle cx="-33" cy="-32" r="8" style="opacity:.1" transform="rotate(90)scale(-1 1)"/><circle cx="-32" cy="-32" r="8" style="fill:#4f4f4f" transform="rotate(90)scale(-1 1)"/><path d="M32 24a8 8 0 0 0-8 8 8 8 0 0 0 .021.424A8 8 0 0 1 32 25a8 8 0 0 1 7.979 7.576A8 8 0 0 0 40 32a8 8 0 0 0-8-8" style="fill:#fff;opacity:.1"/><circle cx="46" cy="47" r="16" style="opacity:.2"/><circle cx="46" cy="46" r="16" style="fill:#be53d1"/><path d="m43.928 38-.176 2.107a6.3 6.3 0 0 0-1.838 1.063L40 40.268l-2 3.464 1.738 1.207A6.3 6.3 0 0 0 39.643 46a6.3 6.3 0 0 0 .091 1.064L38 48.27l2 3.462 1.91-.898a6.3 6.3 0 0 0 1.842 1.055L43.928 54h4l.177-2.105a6.3 6.3 0 0 0 1.836-1.065l1.916.902 2-3.462-1.74-1.21a6.3 6.3 0 0 0 .098-1.06 6.3 6.3 0 0 0-.092-1.064l1.734-1.204-2-3.462-1.912.898a6.3 6.3 0 0 0-1.84-1.055L47.93 38h-4zM46 43a3 3 0 0 1 3 3 3 3 0 0 1-3 3 3 3 0 0 1-3-3 3 3 0 0 1 3-3" style="fill:#fff"/></svg>