<svg xmlns="http://www.w3.org/2000/svg" width="64" height="64"><path d="M4 56v1h4v-1zm52 0v1h4v-1zM8 60v1h48v-1H12Z" style="opacity:.2"/><path d="M8 8h48v48H8z" style="fill:#fff"/><path d="M12 4v4h40V4zm40 4v4h4V8zm4 4v40h4V12zm0 40h-4v4h4zm-4 4H12v4h40zm-40 0v-4H8v4zm-4-4V12H4v40zm0-40h4V8H8zm12 8v16h4V20zm20 0v16h4V20z" style="fill:#5c3e52"/><path d="M8 44v8h4v4h40v-4h4v-8h-4v4H12v-4z" style="fill:#6d8292"/><path d="M4 12h4v1H4zm4-4h4v1H8zm44 0h4v1h-4zm4 4h4v1h-4zM8 43.99h4v1H8zM8 52h4v1H8zm44-8.01h4v1h-4zM52 52h4v1h-4zm-40-4h40v1H12zm0 8h40v1H12z" style="opacity:.2"/><path d="M20 36v1h4v-1zm20 0v1h4v-1z" style="opacity:.1"/><path d="M8 4v4h4V4zm0 4H4v4h4zm44-4v4h4V4zm4 4v4h4V8zM4 52v4h4v-4zm4 4v4h4v-4zm48-4v4h4v-4zm0 4h-4v4h4z" style="fill:#825873"/><path d="M8 4v1h48V4H12ZM4 8v1h4V8Zm52 0v1h4V8zM4 52v1h4v-1zm52 0v1h4v-1zM8 56v1h4v-1zm44 0v1h4v-1z" style="opacity:.1;fill:#fff"/></svg>