<svg xmlns="http://www.w3.org/2000/svg" width="64" height="64"><rect width="56" height="56" x="4" y="5" ry="4.2" style="opacity:.2"/><rect width="56" height="56" x="4" y="4" ry="4.2" style="fill:#e4e4e4"/><path d="M15 16v34h6v-3h-3V19h3v-3h-3zm28 0v3h3v28h-3v3h6V16h-3ZM7 19v28h6v-3h-3V22h3v-3h-3zm44 0v3h3v22h-3v3h6V19h-3zm-19.88 1q-.505-.003-1.009.008c-2.34 6.906-4.704 14.038-7.025 20.992H21v3h7v-3h-2.426c.432-1.418.903-2.589 1.356-4h8.517l.692 1.986c.203.732.523 1.282.746 2.014H35v3h8v-3h-1.777a6447 6447 0 0 1-7.084-20.992c-1.007.024-2.013-.005-3.02-.008m.042 3.947c.071-.08.922 2.307 1.893 5.301l1.765 5.643h-3.613c-2.818 0-3.593-.047-3.533-.215.042-.119.816-2.704 1.719-5.5.902-2.796 1.698-5.15 1.77-5.229" style="opacity:.1"/><path d="M31.12 19c-.336 0-.672 0-1.008.009-2.34 6.906-4.704 14.037-7.025 20.991H21v3h7v-3h-2.427c.432-1.418.904-2.589 1.357-4h8.518l.69 1.986c.204.732.524 1.282.747 2.014H35v3h8v-3h-1.778a6446 6446 0 0 1-7.084-20.991c-1.007.024-2.012-.006-3.019-.009m.042 3.947c.071-.08.923 2.307 1.893 5.3l1.765 5.644h-3.612c-2.818 0-3.594-.046-3.534-.214.042-.119.816-2.705 1.718-5.5.903-2.797 1.7-5.15 1.77-5.23" style="fill:#3e3e3e"/><path d="M15 15v34h6v-3h-3V18h3v-3h-3z" style="fill:#5f5f5f"/><path d="M7 18v28h6v-3h-3V21h3v-3h-3z" style="fill:#898989"/><path d="M49 15v34h-6v-3h3V18h-3v-3h3z" style="fill:#5f5f5f"/><path d="M57 18v28h-6v-3h3V21h-3v-3h3z" style="fill:#898989"/><path d="M8.2 4A4.19 4.19 0 0 0 4 8.2v1A4.19 4.19 0 0 1 8.2 5h47.6A4.19 4.19 0 0 1 60 9.2v-1A4.19 4.19 0 0 0 55.8 4z" style="fill:#fff;opacity:.2"/></svg>