<svg xmlns="http://www.w3.org/2000/svg" width="64" height="64"><path d="m47.984 23.594-15.976 9.18-16.031-9.04.046 18.641 3.946 2.63v-5.798l8.047 4.664v5.813l4 2.074V37.59L38 34.153v13.972l4-2.367V31.68l5.984-3.434Zm-27.953 7.281 7.953 4.512v4.496l-7.953-4.633Z" style="opacity:.2"/><path d="M32 5 8 18.988v28.024L32 61l24-14.113V19.113l-13.492-7.93-7.969 5.055 13.445 7.637.032 18.11L32 51.597l-15.977-9.504-.046-18.36L39.922 9.637Z" style="opacity:.2"/><path d="M32 4.405 8.353 18.189V45.81L32 59.593l23.647-13.905V18.312l-13.13-7.72-7.305 4.635 12.654 7.449.033 18.509L32 50.605l-15.86-9.31-.044-18.756 23.14-13.896Z" style="fill:#4f4f4f"/><path d="m15.977 22.735.046 18.64 3.946 2.627v-5.796l8.046 4.665v5.812l4 2.074v-18.98Zm12.008 16.148L20.03 34.25v-4.374l7.954 4.51Z" style="fill:#7baf31"/><path d="m32 4 7.923 4.637-23.946 14.098L8 17.988Zm2.538 11.24 7.97-5.057L56 18.113l-8.015 4.762Z" style="fill:#4f4f4f"/><path d="M47.985 22.595 32 31.776V36.6l6-3.445v13.97l4-2.364V30.678l5.985-3.43Z" style="fill:#89c236"/><path d="M8 17.988v28.024L32 60v-9.402l-15.977-9.504-.046-18.36Z" style="fill:#3f3f3f"/><path d="M56 45.888 32 60v-9.402l16.015-9.612-.03-18.391L56 18.112Z" style="fill:#5b5b5b"/><path d="m47.984 22.594-15.976 9.18-16.031-9.04.002 1.002 16.029 9.037 15.976-9.18zM20.031 34.25v1l7.953 4.633v-1z" style="opacity:.2;fill:#fff"/><path d="M32 4 8 17.988l.85.506L32 5l7.07 4.139.852-.502zm10.508 6.184-7.969 5.054.832.473 7.137-4.527 12.646 7.431.846-.502z" style="opacity:.1;fill:#fff"/></svg>