<svg xmlns="http://www.w3.org/2000/svg" xmlns:xlink="http://www.w3.org/1999/xlink" width="64" height="64"><defs><filter id="c" width="1.152" height="1.152" x="-.076" y="-.076" style="color-interpolation-filters:sRGB"><feGaussianBlur stdDeviation="1.603"/></filter><filter id="d" width="1.035" height="1.039" x="-.017" y="-.019" style="color-interpolation-filters:sRGB"><feGaussianBlur stdDeviation=".257"/></filter><radialGradient xlink:href="#a" id="b" cx="64.147" cy="64.048" r="25.929" fx="64.147" fy="64.048" gradientTransform="rotate(-90 64.219 157.425)scale(2.45678)" gradientUnits="userSpaceOnUse"/><linearGradient id="a"><stop offset="0" style="stop-color:#8236bf;stop-opacity:1"/><stop offset="1" style="stop-color:#333a85;stop-opacity:1"/></linearGradient></defs><g transform="translate(-2.173 -2.173)scale(1.0679)"><rect width="51.858" height="51.858" x="6.071" y="6.071" rx="25.928" ry="25.928" style="opacity:1;fill:url(#b);stroke-width:.926042"/><rect width="51.858" height="51.858" x="6.071" y="6.071" rx="25.928" ry="25.928" style="opacity:1;fill:none;stroke:#000;stroke-width:.2;stroke-dasharray:none;stroke-opacity:1;filter:url(#c)"/><path d="M24.852 13.668c-.483-.014-.935.022-1.291.14-1.503.509-2.484 1.658-2.99 3.432-.45 1.59-.426 4.267.021 6.639v.002c.04.204.077.398.11.55l.01.04a7 7 0 0 1-.466.117c-3.272.737-5.692 1.834-7.185 3.32-.663.654-1.064 1.27-1.285 2.02-.182.603-.18 1.513.002 2.113.432 1.422 1.62 2.703 3.431 3.816h.002c.622.379 1.03.605 1.413.69.382.084.76-.059 1.005-.301.104-.102.192-.2.254-.332a.95.95 0 0 0 .078-.408c0-.25-.052-.507-.21-.713-.16-.207-.377-.347-.678-.518l-.002-.002c-1.773-.985-2.757-1.964-3.018-2.789-.13-.413-.104-.79.086-1.191.19-.402.56-.826 1.133-1.25 1.172-.868 2.84-1.575 5.121-2.125.454-.11.704-.16.863-.184l.08.285c.077.266.182.608.3.979.235.74.516 1.582.714 2.103l.344.914-.451.856c-2.109 4.017-3.469 8.105-3.635 11.164-.136 2.342.292 4.096 1.414 5.209 1.216 1.202 2.972 1.449 5.07.785.836-.266 2.327-1.017 3.25-1.637l.002-.002c.32-.211.523-.352.676-.488.153-.137.259-.294.316-.443a1.1 1.1 0 0 0 .002-.768 1.16 1.16 0 0 0-1.08-.764c-.152 0-.33.035-.51.12a6 6 0 0 0-.681.413c-1.337.896-2.584 1.443-3.572 1.608-.676.114-1.173.024-1.56-.236-.388-.261-.694-.717-.895-1.424-.067-.234-.123-.939-.118-1.67s.06-1.525.155-2.031v-.002c.307-1.709.847-3.49 1.62-5.37a49 49 0 0 1 1.18-2.601c1.023 2.26 2.562 4.987 4.077 7.209 3.617 5.298 7.544 8.796 10.78 9.338v.017c.042.007.075-.011.116-.006v.004l.03-.006h.003c1.356.176 2.571-.163 3.483-1.062l.002-.004c.77-.774 1.266-1.85 1.539-3.289.183-.987.174-3.358.004-4.613v-.002c-.5-3.6-1.822-7.702-3.801-11.787-.16-.331-.288-.564-.484-.74-.197-.177-.462-.246-.705-.247-.624-.007-1.159.484-1.159 1.108 0 .193.054.322.13.521q.112.301.308.71c2.405 5.058 3.683 9.955 3.555 13.423-.04 1.035-.192 1.847-.44 2.436-.247.588-.575.951-.998 1.156-.428.208-.996.22-1.838-.051-1.92-.643-4.305-2.644-6.619-5.498-2.316-2.856-4.576-6.555-6.346-10.56l-.283-.641.426-.719c.568-.964 2.051-3.191 2.713-4.076l.002-.002.35-.463h1.029c7.253 0 14.455 1.644 18.18 4.07.725.474 1.676 1.45 1.888 1.858l.002.004c.197.365.184.323.184.818 0 .484.01.466-.145.744l-.002.006c-.398.753-1.582 1.673-3.127 2.312v.002c-.384.16-.653.295-.857.499a1.07 1.07 0 0 0-.295.755c0 .51.353.949.838 1.094h.006c.13.037.281.064.437.041s.293-.075.502-.156c2.635-1.028 4.502-2.616 4.908-4.385.125-.525.117-1.293-.008-1.805-.22-.929-.93-1.99-1.771-2.738-3.621-3.206-11.07-5.173-19.899-5.398l.239-.264.004-.004a40 40 0 0 1 1.576-1.683c2.49-2.498 4.794-4.114 6.748-4.774l.004-.002c.643-.223.672-.23 1.338-.23.31 0 .491.006.605.023a.8.8 0 0 1 .283.096l.01.004c.26.12.657.514.828.834.353.694.513 2.08.32 3.549-.067.531-.122 1.109-.122 1.378 0 .18-.006.313.052.475.058.159.172.27.283.363.204.185.473.284.731.284.471 0 .924-.215 1.096-.655.187-.479.275-1.293.326-2.19.051-.896.048-1.824-.055-2.433-.301-1.757-1.101-3.026-2.385-3.633-1.13-.539-2.494-.533-3.994-.052-1.5.48-3.152 1.434-4.922 2.834v.002c-1.86 1.473-4.27 3.933-5.949 6.058l-.055.065-.832.047c-.838.047-2.18.179-3.742.363h-.002l-.006.002-.088-.487h.002c-.28-1.616-.302-1.804-.302-3.35 0-1.355.012-1.556.14-2.083v-.002c.309-1.307.887-2.008 1.55-2.147 1-.208 2.364.295 4.364 1.76.418.31.93.354 1.32.153.392-.202.642-.66.579-1.165-.033-.258-.186-.503-.428-.73s-.587-.474-1.11-.818v.002c-.892-.593-1.882-1.081-2.726-1.327h-.002a5.7 5.7 0 0 0-1.418-.207Zm.889 12.392c-.085.126-.158.237-.26.385a42 42 0 0 0-1.092 1.64h.002c-.072.116-.133.209-.2.311-.051-.146-.082-.216-.161-.465l-.002-.004a29 29 0 0 1-.446-1.447c-.023-.085-.03-.127-.045-.19.184-.027.436-.06.715-.091a38 38 0 0 1 1.489-.139m6.261 3.606a2.357 2.357 0 0 0-2.35 2.351 2.354 2.354 0 0 0 2.35 2.348 2.354 2.354 0 0 0 2.35-2.348 2.357 2.357 0 0 0-2.35-2.351" style="baseline-shift:baseline;display:inline;overflow:visible;vector-effect:none;fill:#fff;stroke-linejoin:round;enable-background:accumulate;stop-color:#000"/><path d="M24.852 13.668c-.483-.014-.935.022-1.291.14-1.503.509-2.484 1.658-2.99 3.432-.45 1.59-.426 4.267.021 6.639v.002c.039.204.077.398.11.55l.01.04a7 7 0 0 1-.466.117c-3.272.737-5.692 1.834-7.185 3.32-.663.654-1.064 1.27-1.285 2.02-.182.603-.181 1.513.002 2.113.432 1.422 1.62 2.703 3.431 3.816h.002c.622.379 1.03.605 1.413.69.382.084.76-.059 1.005-.301.104-.102.192-.2.254-.332a.95.95 0 0 0 .078-.408c0-.25-.052-.507-.21-.713-.16-.207-.377-.347-.678-.518l-.002-.002c-1.773-.985-2.757-1.964-3.018-2.789-.13-.413-.104-.79.086-1.191.19-.402.56-.826 1.133-1.25 1.172-.868 2.84-1.575 5.121-2.125.454-.11.704-.16.863-.184l.08.285c.077.266.181.608.3.979.235.74.516 1.582.714 2.103l.344.914-.451.856c-2.109 4.017-3.469 8.105-3.635 11.164-.136 2.342.292 4.096 1.414 5.209 1.216 1.202 2.972 1.449 5.07.785.836-.266 2.327-1.017 3.25-1.637l.002-.002c.32-.211.523-.352.676-.488.153-.137.259-.294.316-.443a1.1 1.1 0 0 0 .002-.768 1.16 1.16 0 0 0-1.08-.764c-.152 0-.33.035-.51.12-.179.084-.376.209-.681.413-1.337.896-2.584 1.443-3.572 1.608-.676.114-1.173.024-1.561-.236-.388-.261-.693-.717-.895-1.424-.066-.234-.122-.939-.117-1.67s.06-1.525.155-2.031v-.002c.307-1.709.847-3.49 1.62-5.37a49 49 0 0 1 1.18-2.601c1.023 2.26 2.562 4.987 4.077 7.209 3.617 5.298 7.544 8.796 10.78 9.338v.017c.042.007.075-.011.116-.006v.004l.03-.006h.003c1.356.176 2.571-.163 3.483-1.062l.002-.004c.77-.774 1.266-1.85 1.539-3.289.183-.987.174-3.358.004-4.613v-.002c-.5-3.6-1.822-7.702-3.801-11.787-.16-.331-.288-.564-.484-.74-.197-.177-.462-.246-.706-.247-.623-.007-1.158.484-1.158 1.108 0 .193.054.322.13.521q.112.301.308.71c2.405 5.058 3.683 9.955 3.554 13.423-.04 1.035-.192 1.847-.439 2.436-.247.588-.575.951-.998 1.156-.428.208-.996.22-1.838-.051-1.92-.643-4.305-2.644-6.62-5.498-2.315-2.856-4.575-6.555-6.345-10.56l-.283-.641.426-.719c.568-.964 2.051-3.191 2.713-4.076l.002-.002.349-.463h1.03c7.253 0 14.454 1.645 18.179 4.07.726.474 1.677 1.45 1.889 1.858l.002.004c.197.365.183.323.183.818 0 .484.01.466-.144.744l-.002.006c-.398.754-1.582 1.673-3.127 2.313v.002c-.384.16-.654.294-.858.498a1.07 1.07 0 0 0-.295.756c0 .51.354.948.838 1.093h.006c.13.037.282.064.438.041.155-.022.293-.074.502-.156 2.635-1.028 4.502-2.616 4.908-4.385.125-.525.117-1.293-.008-1.804-.22-.93-.93-1.99-1.771-2.739-3.621-3.206-11.07-5.173-19.899-5.398l.238-.264.004-.004a40 40 0 0 1 1.577-1.683c2.49-2.498 4.794-4.114 6.748-4.774l.003-.002c.644-.222.673-.23 1.338-.23.31 0 .492.007.606.023a.8.8 0 0 1 .283.096l.01.004c.259.12.657.514.828.834.353.694.512 2.08.32 3.549-.067.532-.123 1.11-.123 1.379 0 .18-.006.313.053.474s.172.27.283.364c.204.184.473.283.73.283.472 0 .925-.214 1.096-.655.188-.478.275-1.292.327-2.189.05-.897.048-1.824-.055-2.434-.302-1.756-1.101-3.026-2.385-3.632-1.13-.54-2.494-.534-3.994-.053s-3.153 1.434-4.922 2.834v.002c-1.86 1.474-4.27 3.934-5.95 6.058l-.054.065-.832.047c-.838.048-2.18.179-3.742.363h-.002l-.006.002-.088-.486h.002c-.281-1.617-.303-1.805-.303-3.35 0-1.356.013-1.557.141-2.084v-.002c.308-1.306.887-2.008 1.549-2.146 1.001-.209 2.365.294 4.365 1.76.417.309.929.353 1.32.152s.642-.66.579-1.164c-.033-.26-.186-.503-.428-.73-.243-.228-.587-.475-1.11-.82v.003c-.892-.593-1.882-1.08-2.726-1.326h-.002a5.7 5.7 0 0 0-1.418-.207zm.889 12.392c-.085.126-.158.237-.26.385a42 42 0 0 0-1.092 1.64h.002c-.072.116-.133.209-.2.311-.051-.146-.082-.216-.161-.465l-.002-.004a29 29 0 0 1-.446-1.447c-.023-.085-.03-.127-.045-.19.184-.027.436-.06.715-.091a38 38 0 0 1 1.489-.139zm6.261 3.606a2.357 2.357 0 0 0-2.35 2.351 2.354 2.354 0 0 0 2.35 2.348 2.354 2.354 0 0 0 2.35-2.348 2.357 2.357 0 0 0-2.35-2.351z" style="baseline-shift:baseline;display:inline;overflow:visible;fill:none;stroke:#7a95ff;stroke-width:.187283;stroke-linejoin:round;stroke-dasharray:none;stroke-opacity:1;filter:url(#d);enable-background:accumulate;stop-color:#000"/></g></svg>