<svg xmlns="http://www.w3.org/2000/svg" width="64" height="64"><rect width="56" height="56" x="4" y="5" rx="2.8" ry="2.8" style="opacity:.2"/><rect width="56" height="56" x="4" y="4" rx="2.8" ry="2.8" style="fill:#6999d1"/><path d="m27.332 15-4.234.121-4.414.3-2.711 3.673-1.707 4.336-1.926 10.039 3.875 6.648-1.567 7.934 8.329 1.683 9.355-1.562L39.215 51l7.73-3.586 4.715-6.2-2.668-5.628-3.492 4.621 4.332-5.781-1.984-9.887-2.41-7.07-6.825 2.496-3.668.226zm14.434 6.996-7.004 1.219 3.672-.645z" style="opacity:.1"/><path d="m51.475-125.334 44.712 13.917-33.049 28.574z" style="fill:#006fef" transform="translate(6.065 52.509)scale(.2065)"/><path d="m96.187-111.417 35.382 24.12-25.177 4.666zm35.383 24.121 25.467 15.957-28.092 13.704z" style="fill:#005bc3" transform="translate(6.065 52.509)scale(.2065)"/><path d="m157.037-71.339 33.924 6.919-36.548 28.865z" style="fill:#0050ac" transform="translate(6.065 52.509)scale(.2065)"/><path d="m190.961-64.42 29.842 4.877L197.96-29.51zm-27.801-47.368 18.18 27.911-24.303 12.538z" style="fill:#006fef" transform="translate(6.065 52.509)scale(.2065)"/><path d="m146.25-115.5 49.376-16.115-32.466 19.827z" style="fill:#003776" transform="translate(6.065 52.509)scale(.2065)"/><path d="m81.317-149.826 29.842 10.71-14.972 27.699zm30.133-19.244 27.51 22.372-27.801 7.581z" style="fill:#006fef" transform="translate(6.065 52.509)scale(.2065)"/><path d="m138.96-146.698 33.924-5.91-26.635 37.108z" style="fill:#0050ac" transform="translate(6.065 52.509)scale(.2065)"/><path d="m63.138-82.843 30.425 36.367-44.42-18.369Z" style="fill:#003d82" transform="translate(6.065 52.509)scale(.2065)"/><path d="m93.563-46.476 33.633 20.623-45.296 7.58z" style="fill:#003776" transform="translate(6.065 52.509)scale(.2065)"/><path d="M49.143-64.845 81.9-18.273l-40.338-8.164Z" style="fill:#006fef" transform="translate(6.065 52.509)scale(.2065)"/><path d="m39.711-145.665 11.764 20.331L30.381-97.05z" style="fill:#00234b" transform="translate(6.065 52.509)scale(.2065)"/><path d="m47.976-166.658 33.341 16.832-29.842 24.492zm34.507-19.244 28.968 16.832-30.134 19.244z" style="fill:#006fef" transform="translate(6.065 52.509)scale(.2065)"/><path d="m102.995-186.485 53.75 36.66-45.294-19.245z" style="fill:#153153" transform="translate(6.065 52.509)scale(.2065)"/><path d="m190.67-174.53-33.924 24.704 16.138-2.782z" style="fill:#00234b" transform="translate(6.065 52.509)scale(.2065)"/><path d="m154.413-35.555-27.217 9.702 33.34 13.703z" style="fill:#003d82" transform="translate(6.065 52.509)scale(.2065)"/><path d="m154.413-35.555 43.546 6.044-37.423 17.361z" style="fill:#003776" transform="translate(6.065 52.509)scale(.2065)"/><path d="m128.945-57.635 25.468 22.08-27.217 9.702z" style="fill:#006fef" transform="translate(6.065 52.509)scale(.2065)"/><path d="m106.392-82.631 22.553 24.996-35.382 11.16zm-10.205-28.786 10.205 28.786-43.254-.212z" style="fill:#0050ac" transform="translate(6.065 52.509)scale(.2065)"/><path d="m81.317-149.826 14.87 38.409-44.712-13.917z" style="fill:#258bff" transform="translate(6.065 52.509)scale(.2065)"/><path d="m51.475-125.334 11.663 42.49L30.381-97.05Z" style="fill:#003d82" transform="translate(6.065 52.509)scale(.2065)"/><path d="m49.143-64.845 44.42 18.37-31.11.582z" style="fill:#003776" transform="translate(6.065 52.509)scale(.2065)"/><path d="m111.159-139.117 27.8-7.58-11.282 28.573z" style="fill:#258bff" transform="translate(6.065 52.509)scale(.2065)"/><path d="m127.677-118.124 18.572 2.624-14.68 28.204z" style="fill:#003776" transform="translate(6.065 52.509)scale(.2065)"/><path d="m96.187-111.417 31.49-6.707 3.892 30.828z" style="fill:#258bff" transform="translate(6.065 52.509)scale(.2065)"/><path d="m131.57-87.296 31.59-24.492-6.123 40.45z" style="fill:#0050ac" transform="translate(6.065 52.509)scale(.2065)"/><path d="m163.16-111.788 32.466-19.827 7.581 29.37z" style="fill:#006fef" transform="translate(6.065 52.509)scale(.2065)"/><path d="m172.884-152.608 29.449 12.325-6.707 8.668z" style="fill:#00234b" transform="translate(6.065 52.509)scale(.2065)"/><path d="m82.483-185.902-1.166 36.076-20.22-34.618z" style="fill:#003d82" transform="translate(6.065 52.509)scale(.2065)"/><path d="m181.34-83.877 21.867-18.369 8.747 9.835z" style="fill:#153153" transform="translate(6.065 52.509)scale(.2065)"/><path d="m190.961-64.42 16.911-22.372 12.931 27.25zm-33.924-6.919 24.302-12.538 9.622 19.457zm15.847-81.269 17.786-21.922 11.663 34.247z" style="fill:#003776" transform="translate(6.065 52.509)scale(.2065)"/><path d="m195.626-131.615 6.707-8.668 9.621 47.872z" style="fill:#153153" transform="translate(6.065 52.509)scale(.2065)"/><path d="m195.626-131.615 7.581 29.37 8.747 9.834z" style="fill:#00234b" transform="translate(6.065 52.509)scale(.2065)"/><path d="m181.34-83.877 30.614-8.534-20.993 27.99z" style="fill:#003d82" transform="translate(6.065 52.509)scale(.2065)"/><path d="m154.413-35.555 36.548-28.865 6.998 34.91z" style="fill:#005bc3" transform="translate(6.065 52.509)scale(.2065)"/><path d="m62.454-45.893 31.11-.583L81.9-18.273Z" style="fill:#003d82" transform="translate(6.065 52.509)scale(.2065)"/><path d="m30.38-97.051 32.758 14.208-13.995 17.998z" style="fill:#003776" transform="translate(6.065 52.509)scale(.2065)"/><path d="m63.138-82.843 43.254.212-12.829 36.155z" style="fill:#005bc3" transform="translate(6.065 52.509)scale(.2065)"/><path d="m106.392-82.631 25.177-4.665-2.624 29.661z" style="fill:#0050ac" transform="translate(6.065 52.509)scale(.2065)"/><path d="m146.25-115.5 16.91 3.712-31.59 24.492zm-7.29-31.198 7.29 31.198-18.573-2.624z" style="fill:#003d82" transform="translate(6.065 52.509)scale(.2065)"/><path d="m157.62-162.443 33.05-12.087-33.924 24.704z" style="fill:#153153" transform="translate(6.065 52.509)scale(.2065)"/><path d="m138.567-161.276 19.054-1.167-.875 12.617z" style="fill:#00234b" transform="translate(6.065 52.509)scale(.2065)"/><path d="m111.45-169.07 45.296 19.244-17.786 3.128z" style="fill:#003776" transform="translate(6.065 52.509)scale(.2065)"/><path d="m81.317-149.826 30.134-19.244-.292 29.953z" style="fill:#258bff" transform="translate(6.065 52.509)scale(.2065)"/><path d="m96.187-111.417 14.972-27.7 16.518 20.993z" style="fill:#006fef" transform="translate(6.065 52.509)scale(.2065)"/><path d="m47.976-166.658 13.121-17.786 20.22 34.618z" style="fill:#003776" transform="translate(6.065 52.509)scale(.2065)"/><path d="m39.711-145.665 8.265-20.993 3.5 41.324z" style="fill:#153153" transform="translate(6.065 52.509)scale(.2065)"/><path d="m82.483-185.902 20.512-.583 8.456 17.415z" style="fill:#00234b" transform="translate(6.065 52.509)scale(.2065)"/><path d="m146.25-115.5 26.634-37.108 22.742 20.993z" style="fill:#005bc3" transform="translate(6.065 52.509)scale(.2065)"/><path d="m181.34-83.877-18.18-27.911 40.047 9.542zm-26.927 48.322-25.468-22.08 28.092-13.704zm-27.217 9.702L93.563-46.476l35.382-11.159Z" style="fill:#258bff" transform="translate(6.065 52.509)scale(.2065)"/><path d="M6.8 4C5.25 4 4 5.25 4 6.8v1C4 6.25 5.25 5 6.8 5h50.4C58.75 5 60 6.25 60 7.8v-1C60 5.25 58.75 4 57.2 4z" style="opacity:.2;fill:#fff"/></svg>