<svg xmlns="http://www.w3.org/2000/svg" xmlns:xlink="http://www.w3.org/1999/xlink" width="64" height="64"><defs><radialGradient xlink:href="#a" id="h" cx="4.093" cy="-9.335" r="29.955" fx="4.093" fy="-9.335" gradientTransform="matrix(0 1.40407 -1.17875 0 20.071 22.6)" gradientUnits="userSpaceOnUse"/><radialGradient xlink:href="#b" id="f" cx="31.961" cy="13.27" r="23" fx="31.961" fy="13.27" gradientTransform="rotate(135 50.588 7.015)scale(1.957 1.61665)" gradientUnits="userSpaceOnUse"/><radialGradient xlink:href="#c" id="d" cx="16.822" cy="65.557" r="15.811" fx="16.822" fy="65.557" gradientTransform="rotate(210 -69.31 163.447)scale(-5.57163 4.9106)" gradientUnits="userSpaceOnUse"/><linearGradient id="c"><stop offset="0" style="stop-color:#ffd040;stop-opacity:1"/><stop offset="1" style="stop-color:#ff9747;stop-opacity:1"/></linearGradient><linearGradient id="b"><stop offset="0" style="stop-color:#3f51b5;stop-opacity:1"/><stop offset="1" style="stop-color:#243284;stop-opacity:1"/></linearGradient><linearGradient id="a"><stop offset="0" style="stop-color:#3f51b5;stop-opacity:1"/><stop offset="1" style="stop-color:#2b3da4;stop-opacity:1"/></linearGradient><filter id="g" width="1.304" height="1.368" x="-.152" y="-.184" style="color-interpolation-filters:sRGB"><feGaussianBlur stdDeviation="2.874"/></filter><filter id="i" width="1.261" height="1.584" x="-.131" y="-.292" style="color-interpolation-filters:sRGB"><feGaussianBlur stdDeviation="2.874"/></filter><filter id="e" width="1.143" height="1.162" x="-.071" y="-.081" style="color-interpolation-filters:sRGB"><feGaussianBlur stdDeviation=".899"/></filter></defs><path d="m17.093 45.299 3.39-2.616 3.273 11.395 2.813-15.953L32 57.222l3.852-26.37 3.621 22.087 3.544-13.675 4.198 6.035" style="fill:none;stroke:url(#d);stroke-width:6;stroke-linecap:round;stroke-linejoin:round;stroke-dasharray:none"/><path d="m17.093 45.299 3.39-2.616 3.273 11.395 2.813-15.953L32 57.222l3.852-26.37 3.621 22.087 3.544-13.675 4.198 6.035" style="fill:none;stroke:#ff5a4e;stroke-width:1.5;stroke-linecap:round;stroke-linejoin:round;stroke-dasharray:none;stroke-opacity:1"/><path d="M35.845 30.103a.75.75 0 0 0-.736.64l-3.346 22.908-4.472-15.73a.75.75 0 0 0-1.461.074l-2.25 12.758-2.375-8.277a.75.75 0 0 0-1.18-.387l-3.39 2.617a.75.75 0 0 0-.135 1.05.75.75 0 0 0 1.052.138l2.514-1.942 2.969 10.334a.75.75 0 0 0 1.459-.078l2.246-12.74 4.539 15.96a.75.75 0 0 0 1.463-.097l3.152-21.586 2.838 17.315a.75.75 0 0 0 1.467.068l3.135-12.096 3.265 4.696a.75.75 0 0 0 1.043.187.75.75 0 0 0 .188-1.045l-4.198-6.033a.75.75 0 0 0-1.341.24l-2.653 10.237-3.047-18.582a.75.75 0 0 0-.746-.63" style="baseline-shift:baseline;display:inline;overflow:visible;opacity:1;fill:none;stroke:#f10;stroke-linecap:round;stroke-linejoin:round;stroke-opacity:1;enable-background:accumulate;stop-color:#000;stop-opacity:1;stroke-width:.2;stroke-dasharray:none;filter:url(#e)"/><path d="M32 7C19.297 7 9 17.297 9 30v15h7.014V29.86c0-8.828 7.157-15.986 15.986-15.986s15.986 7.158 15.986 15.987V45H55V30C55 17.297 44.703 7 32 7" style="fill:url(#f)"/><path d="M32 7A23 23 0 0 0 9 30v15h6V30a17 17 0 0 1 17-17 17 17 0 0 1 17 17v15h6V30A23 23 0 0 0 32 7Z" style="fill:none;stroke:#000;stroke-width:.2;stroke-dasharray:none;stroke-opacity:1;filter:url(#g)"/><path d="M15.322 33.012C9.783 33 5.282 37.502 5.282 43.04l.003 3.908c.002 5.54 4.49 10.042 10.03 10.04h.155a2.764 2.764 0 0 0 2.764-2.759c.009-6.146.001-12.298.002-18.447a2.77 2.77 0 0 0-2.758-2.77zm33.51 0-.156.002a2.77 2.77 0 0 0-2.758 2.77c.001 6.148-.007 12.3.002 18.447a2.764 2.764 0 0 0 2.764 2.757h.156c5.539.003 10.028-4.5 10.03-10.039l.001-3.908c0-5.539-4.5-10.04-10.039-10.03" style="fill:url(#h);stroke-width:.25429"/><path d="M15.322 33.012C9.783 33 5.282 37.502 5.282 43.04l.003 3.908c.002 5.54 4.49 10.042 10.03 10.04h.155a2.764 2.764 0 0 0 2.764-2.759c.009-6.146.001-12.298.002-18.447a2.77 2.77 0 0 0-2.758-2.77zm33.51 0-.156.002a2.77 2.77 0 0 0-2.758 2.77c.001 6.148-.007 12.3.002 18.447a2.764 2.764 0 0 0 2.764 2.757h.156c5.539.003 10.028-4.5 10.03-10.039l.001-3.908c0-5.539-4.5-10.04-10.039-10.03z" style="fill:none;stroke:#000;stroke-width:.2;stroke-dasharray:none;stroke-opacity:1;filter:url(#i)"/></svg>