<svg xmlns="http://www.w3.org/2000/svg" width="64" height="64"><path d="M8.602 57A4.58 4.58 0 0 1 4 52.42V45h56v7.42A4.583 4.583 0 0 1 55.398 57Z" style="opacity:.2"/><path d="M8.602 8A4.593 4.593 0 0 0 4 12.601V44h56V12.601A4.593 4.593 0 0 0 55.398 8z" style="fill:#c2352a"/><path d="M8.602 8A4.59 4.59 0 0 0 4 12.596v1A4.59 4.59 0 0 1 8.602 9h46.796A4.59 4.59 0 0 1 60 13.596v-1A4.59 4.59 0 0 0 55.398 8Z" style="fill:#fff;opacity:.2"/><path d="M8.602 56A4.58 4.58 0 0 1 4 51.42V44h56v7.42A4.583 4.583 0 0 1 55.398 56Z" style="fill:#ccc"/><rect width="16" height="4" x="40" y="48" ry="2" style="fill:#999"/><rect width="32" height="4" x="8" y="48" ry="2" style="fill:#c2352a"/><ellipse cx="40" cy="50.949" rx="4" ry="3.995" style="opacity:.2"/><circle cx="40" cy="50" r="4" style="fill:#fefdfe"/><path d="M4 44h56v2H4z" style="fill:#fff;opacity:.2"/><path d="M24.867 17a.88.88 0 0 0-.867.89v18.22c0 .675.706 1.104 1.283.78l16.267-9.11c.6-.338.6-1.223 0-1.56l-14.642-8.2-1.626-.91a.85.85 0 0 0-.416-.11z" style="opacity:.2"/><path d="M24.867 16a.88.88 0 0 0-.867.89v18.22c0 .675.706 1.104 1.283.78l16.267-9.11c.6-.338.6-1.223 0-1.56l-14.642-8.2-1.626-.91a.85.85 0 0 0-.416-.11z" style="fill:#fefdfe"/></svg>