<svg xmlns="http://www.w3.org/2000/svg" width="64" height="64"><rect width="58" height="58" x="3" y="4" rx="29" ry="29" style="opacity:.2"/><rect width="58" height="58" x="3" y="3" rx="29" ry="29" style="fill:#532e85"/><path d="M32.024 11.435a.75.75 0 0 0-.638.347v.002l-18.61 29.52-.003.003a.73.73 0 0 0 .263 1.014l18.61 10.653v.003a.77.77 0 0 0 .756 0l18.57-10.536a.75.75 0 0 0 .353-.45c.03-.113-.026-.22-.052-.332a.3.3 0 0 0-.037-.235v-.003l-.02-.028-18.548-29.609-.003-.002a.75.75 0 0 0-.638-.347zm.75 3.33 16.05 25.617-6.677-2.93h-.003l-.006-.002c-.814-.359-1.31-.675-1.628-1.083-.32-.409-.49-.943-.598-1.804l-.003-.009-.006-.046q-.002-.025-.009-.06l-.002-.006c-.452-2.943-2.663-5.3-5.555-6.122h-.003l-.029-.009-.887 1.295.258.057c2.404.584 4.256 2.46 4.693 4.822l.006.03.057.349.023.146c.143 1.102.442 1.87.993 2.46s1.316.986 2.361 1.446l.006.003h.006l.008.002 6.966 3.059-16.01 9.084v-5.006c0-1.004.042-1.547.253-1.93.21-.384.631-.697 1.522-1.186.356-.195.718-.399 1.11-.621l.238-.135.006-.003a7.63 7.63 0 0 0 2.816-2.62l.106-.16-1.17-.994c-.565 1.028-1.384 1.9-2.427 2.471h-.003l-.28.16v-.002c-.385.217-.777.434-1.131.627-1.126.618-1.784 1.141-2.144 1.827s-.397 1.472-.397 2.569v5.003l-16.164-9.25 6.782-2.95.475-.203.015-.006c.152-.073.748-.302 1.104-.312h.009c.43-.026 1.019.023 1.29.366l1.048 1.315c.827 1.066 1.91 1.941 3.205 2.474q.014.012.032.02l.02.009c.253.103.506.154.758.215l.876-1.278c-.478-.102-.997-.249-1.394-.438h-.006c-.921-.436-1.712-1.044-2.318-1.821l-.011-.014a1 1 0 0 1-.054-.075l-.018-.02q-.1-.127-.177-.24l-.009-.015c-.17-.228-.43-.569-.792-1.022-.286-.361-.675-.59-1.07-.733a.3.3 0 0 0-.127-.017 4.2 4.2 0 0 0-1.305-.195h-.006c-.42.014-.833.127-1.15.235a6 6 0 0 0-.39.149l-.114.048-.04.02-.249.106-.014.006-.012.003-.666.286.057-.017-.103.049.02-.017-5.512 2.4 15.995-25.373v10.43c0 .98-.047 1.53-.266 1.93s-.652.727-1.549 1.22a8 8 0 0 1-.42.208l-.006.003-.238.118q-.094.043-.16.077l-.011.006c-2.402 1.146-4.095 3.444-4.336 6.14l1.454.52c.05-2.343 1.48-4.363 3.551-5.346l.009-.006.011-.002h.003q.187-.095.375-.184.716-.331 1.368-.776l.006-.002c.08-.053.138-.101.186-.135l.003-.003a5 5 0 0 0 .389-.31c.06-.051.123-.108.183-.18.392-.397.644-.84.781-1.368.138-.532.172-1.14.172-1.91zm-4.078 13.967h.02l-.029.006z" style="opacity:.2;fill-rule:evenodd"/><path d="M32.024 10.436a.75.75 0 0 0-.638.346v.003l-18.61 29.52-.003.003a.73.73 0 0 0 .263 1.013l18.61 10.654v.002a.77.77 0 0 0 .756 0l18.57-10.535a.75.75 0 0 0 .353-.45c.03-.113-.026-.22-.052-.332a.3.3 0 0 0-.037-.235v-.003l-.02-.028-18.548-29.609-.003-.002a.75.75 0 0 0-.638-.347zm.75 3.33 16.05 25.617-6.677-2.93h-.003l-.006-.003c-.814-.358-1.31-.674-1.628-1.082-.32-.41-.49-.943-.598-1.804l-.003-.009-.006-.046q-.002-.025-.009-.06l-.002-.006c-.452-2.943-2.663-5.3-5.555-6.122h-.003l-.029-.009-.887 1.294.258.058c2.404.584 4.256 2.46 4.693 4.822l.006.029.057.35.023.145c.143 1.103.442 1.871.993 2.46.55.59 1.316.987 2.361 1.447l.006.002h.006l.008.003 6.966 3.059-16.01 9.083V45.06c0-1.004.042-1.547.253-1.93.21-.384.631-.697 1.522-1.186.356-.196.718-.4 1.11-.622l.238-.134.006-.003a7.63 7.63 0 0 0 2.816-2.62l.106-.16-1.17-.994c-.565 1.028-1.384 1.9-2.427 2.471h-.003l-.28.16v-.002c-.385.217-.777.433-1.131.627-1.126.618-1.784 1.14-2.144 1.827-.36.686-.397 1.472-.397 2.569v5.003l-16.164-9.25 6.782-2.95.475-.203.015-.006c.152-.074.748-.302 1.104-.312h.009c.43-.027 1.019.023 1.29.366l1.048 1.315c.827 1.066 1.91 1.94 3.205 2.474q.014.012.032.02l.02.009c.253.103.506.154.758.214l.876-1.277c-.478-.103-.997-.249-1.394-.438h-.006c-.921-.436-1.712-1.044-2.318-1.821l-.011-.014a1 1 0 0 1-.054-.075l-.018-.02q-.1-.128-.177-.24l-.009-.015c-.17-.229-.43-.569-.792-1.022-.286-.361-.675-.59-1.07-.733a.3.3 0 0 0-.127-.017 4.2 4.2 0 0 0-1.305-.195h-.006c-.42.014-.833.127-1.15.235a6 6 0 0 0-.39.149l-.114.048c-.028.013-.07.033-.04.02l-.249.106-.014.006-.012.003-.666.286.057-.017-.103.049.02-.017-5.512 2.4L31.269 13.77V24.2c0 .982-.047 1.53-.266 1.93s-.652.728-1.549 1.22a8 8 0 0 1-.42.21l-.006.002-.238.118q-.094.043-.16.077l-.011.006c-2.402 1.146-4.095 3.444-4.336 6.14l1.454.52c.05-2.343 1.48-4.363 3.551-5.346l.009-.006.011-.002h.003q.187-.095.375-.184.716-.331 1.368-.776l.006-.003c.08-.052.138-.1.186-.134l.003-.003a5 5 0 0 0 .389-.31c.06-.051.123-.108.183-.18.392-.398.644-.84.781-1.369.138-.53.172-1.14.172-1.91zm-4.078 13.967h.02l-.029.006z" style="fill:#fff;fill-rule:evenodd"/><path d="M32 3C15.934 3 3 15.934 3 32c0 .11.011.219.018.328C3.374 16.576 16.159 4 32 4s28.626 12.576 28.982 28.328c.007-.11.018-.217.018-.328C61 15.934 48.066 3 32 3" style="opacity:.1;fill:#fff"/></svg>