<svg xmlns="http://www.w3.org/2000/svg" width="64" height="64"><circle cx="32" cy="33" r="24" style="opacity:.2"/><path d="m18.203 44.83-8.568 4.947A28 28 0 0 0 32 61a28 28 0 0 0 22.37-11.22l-8.557-4.942A18.2 18.2 0 0 1 32 51.199a18.2 18.2 0 0 1-13.797-6.369" style="opacity:.2"/><circle cx="32" cy="32" r="24" style="fill:#fff"/><path d="M35 5.166v9.916A18.2 18.2 0 0 1 50.2 33a18.2 18.2 0 0 1-1.294 6.695l8.526 4.922A28 28 0 0 0 60 33 28 28 0 0 0 35 5.166" style="opacity:.2"/><path d="M35 4.166v9.916A18.2 18.2 0 0 1 50.2 32a18.2 18.2 0 0 1-1.294 6.695l8.526 4.922A28 28 0 0 0 60 32 28 28 0 0 0 35 4.166" style="fill:#6ecc6e"/><path d="M29 5.2A28 28 0 0 0 4 33a28 28 0 0 0 2.564 11.621l8.536-4.93A18.2 18.2 0 0 1 13.8 33 18.2 18.2 0 0 1 29 15.063Z" style="opacity:.2"/><path d="M29 4.2A28 28 0 0 0 4 32a28 28 0 0 0 2.564 11.621l8.536-4.93A18.2 18.2 0 0 1 13.8 32 18.2 18.2 0 0 1 29 14.063z" style="fill:#ff6065"/><path d="m18.203 43.83-8.568 4.947A28 28 0 0 0 32 60a28 28 0 0 0 22.37-11.22l-8.557-4.942A18.2 18.2 0 0 1 32 50.199a18.2 18.2 0 0 1-13.797-6.369" style="fill:#cc74cc"/><path d="m20.8 35.8 8.4 6.4 11-17.4" style="opacity:.1;fill:none;stroke:#000;stroke-width:5.5999999;stroke-linecap:round;stroke-linejoin:round"/><path d="m20.8 34.8 8.4 6.4 11-17.4" style="fill:none;stroke:#3f3f3f;stroke-width:5.5999999;stroke-linecap:round;stroke-linejoin:round"/><path d="M35 4.166v1a28 28 0 0 1 24.986 27.578A28 28 0 0 0 60 32 28 28 0 0 0 35 4.166m15.174 28.313a18.2 18.2 0 0 1-1.268 6.216l.295.17A18.2 18.2 0 0 0 50.2 33a18 18 0 0 0-.025-.521M29 4.2A28 28 0 0 0 4 32l.02.38A28 28 0 0 1 29 5.2zM13.824 32.546a18 18 0 0 0-.023.453 18.2 18.2 0 0 0 1.011 5.857l.288-.166a18.2 18.2 0 0 1-1.276-6.144" style="fill:#fff;opacity:.2"/></svg>