<svg xmlns="http://www.w3.org/2000/svg" width="64" height="64"><path d="m3.805 37 2.664 13.623C6.856 52.586 8.559 54 10.533 54h13.178l7.14-14.742c.515-1.061 1.444-1.898 2.532-2.258zm41.133 0a1 1 0 0 1 .062.357v12.286c0 .232.3.357.53.357h3.052c.229 0 .418-.125.418-.357v-8.248c0-.232.181-.395.41-.395h3.053c.229 0 .537.163.537.395v4.21c0 .232.164.395.393.395h3.312c.229 0 .295-.163.295-.395V37z" style="opacity:.2"/><path d="M10.533 11c-1.975 0-3.678 1.413-4.065 3.376L3.742 28.193h55.88a2 2 0 0 0-.695-.13h-24.37a4.14 4.14 0 0 1-3.705-2.32L23.71 11Z" style="fill:#5963cf"/><path d="M10.533 11c-1.975 0-3.677 1.414-4.064 3.377L3.742 28.193h.197l2.53-12.816C6.856 13.414 8.559 12 10.533 12h13.178l7.14 14.742a4.2 4.2 0 0 0 1.194 1.451h27.578a2 2 0 0 0-.695-.13H34.557a4.14 4.14 0 0 1-3.705-2.32L23.71 11z" style="fill:#fff;opacity:.1"/><path d="m3.767 35.806 2.701 13.818C6.855 51.587 8.558 53 10.533 53H23.71l7.142-14.743c.692-1.427 2.135-2.45 3.705-2.45zm40.934 0c.228 0 .299.32.299.552v12.284c0 .232.3.358.53.358h3.053c.229 0 .417-.126.417-.358v-8.247c0-.232.18-.395.41-.395h3.053c.229 0 .537.163.537.395v4.21c0 .232.163.395.392.395h3.314c.228 0 .294-.163.294-.395v-8.799Z" style="fill:#686d9c"/><path d="m3.767 29-.76 3.917a.4.4 0 0 0 0 .166L3.768 37h55.16C60.07 36.927 61 36.045 61 34.867v-3.734C61 29.955 60.072 29 58.927 29h-24.37Z" style="opacity:.2"/><path d="m3.767 28-.76 3.917a.4.4 0 0 0 0 .166L3.768 36h55.16C60.07 35.927 61 35.045 61 33.867v-3.734C61 28.955 60.072 28 58.927 28h-24.37Z" style="fill:#7e89fa"/><path d="m3.768 28-.76 3.916a.5.5 0 0 0 0 .168l.08.416.68-3.5h55.159c1.145 0 2.073.955 2.073 2.133v-1C61 28.955 60.072 28 58.928 28z" style="fill:#fff;opacity:.1"/></svg>