<svg xmlns="http://www.w3.org/2000/svg" width="64" height="64"><circle cx="32" cy="33" r="28" style="opacity:.2"/><circle cx="32" cy="32" r="28" style="fill:#606d6e"/><path d="M32 4A28 28 0 0 0 4 32a28 28 0 0 0 .022.586A28 28 0 0 1 32 5a28 28 0 0 1 27.979 27.414L60 32A28 28 0 0 0 32 4" style="opacity:.2;fill:#fff"/><path d="M46.924 20.842C44.53 20.938 43 24 43 24s-.83-2.542-3-2c-4 1-6.52 3-10 3-13 0-15 6-15 6s-2 1-2 3 2 2 2 2 0 2 1 2c3 0 3.397-.458 5 0 7 2 9 3 12 3s4-1 4-1l9.29 16.043a28 28 0 0 0 12.064-14.684L49 30l-1-1s2.53-7.157 0-8a3 3 0 0 0-1.076-.158" style="opacity:.2"/><path d="M46.924 19.842C44.53 19.938 43 23 43 23s-.83-2.542-3-2c-4 1-6.52 3-10 3-13 0-15 6-15 6s-2 1-2 3 2 2 2 2 0 2 1 2c3 0 3.397-.458 5 0 7 2 9 3 12 3s4-1 4-1l9.723 16.793a28 28 0 0 0 11.884-15.127L49 29l-1-1s2.53-7.157 0-8a3 3 0 0 0-1.076-.158" style="fill:#fff"/></svg>