<svg xmlns="http://www.w3.org/2000/svg" width="64" height="64"><path d="M4 52v2c0 1.662 1.338 3 3 3h50c1.662 0 3-1.338 3-3v-2c0 1.662-1.338 3-3 3H7c-1.662 0-3-1.338-3-3" style="opacity:.2"/><rect width="48" height="56" x="-56" y="-60" rx="3" ry="3" style="fill:#4f4f4f" transform="rotate(90)scale(-1 1)"/><path d="M4 20v-9c0-1.662 1.338-3 3-3h50c1.662 0 3 1.338 3 3v9z" style="opacity:.2"/><path d="M4 14v-3c0-1.662 1.338-3 3-3h50c1.662 0 3 1.338 3 3v3z" style="opacity:.2"/><path d="M7 8c-1.662 0-3 1.338-3 3v1c0-1.662 1.338-3 3-3h50c1.662 0 3 1.338 3 3v-1c0-1.662-1.338-3-3-3z" style="opacity:.2;fill:#fff"/><path d="M7 8c-1.662 0-3 1.338-3 3v9h12v-6l-6-6z" style="opacity:.2;fill:#fff"/><path d="m24 14-6-6h8l6 6zm0 0-6 6h8l6-6zm14 0-6-6h8l6 6zm0 0-6 6h8l6-6zm14 0-6-6h8l6 6zm0 0-6 6h8l6-6z" style="opacity:.2;fill:#fff;fill-rule:evenodd"/><path d="M20 27c-1.108 0-2 .892-2 2v16c0 1.108.892 2 2 2h18c1.108 0 2-.892 2-2V29c0-1.108-.892-2-2-2zm20 10 8 6V31z" style="opacity:.2"/><path d="M20 26c-1.108 0-2 .892-2 2v16c0 1.108.892 2 2 2h18c1.108 0 2-.892 2-2V28c0-1.108-.892-2-2-2zm20 10 8 6V30z" style="fill:#bababa"/></svg>