<svg xmlns="http://www.w3.org/2000/svg" width="64" height="64"><path d="M27.095 5c-1.069 0-1.247.588-1.84 2.077L4.761 58.445C3.684 60.923 3.417 61 6.221 61h7.243c2.793 0 2.964.026 3.886-2.284L21.484 49h21.032l4.134 9.716c.922 2.31 1.094 2.284 3.886 2.284h7.243c2.804 0 2.537-.077 1.46-2.555L38.746 7.077C38.152 5.588 37.974 5 36.905 5ZM32 21.988l6.059 15.211H25.941Z" style="opacity:.2"/><path d="M27.095 4c-1.069 0-1.247.588-1.84 2.077L4.761 57.445C3.684 59.923 3.417 60 6.221 60h7.243c2.793 0 2.964.026 3.886-2.284L21.484 48h21.032l4.134 9.716c.922 2.31 1.094 2.284 3.886 2.284h7.243c2.804 0 2.537-.077 1.46-2.555L38.746 6.077C38.152 4.588 37.974 4 36.905 4ZM32 20.988l6.059 15.211H25.941Z" style="fill:#4f4f4f"/><ellipse cx="41.941" cy="11.909" rx="31.179" ry="7.224" style="fill:none;stroke:#008eb1;stroke-width:5.14294;stroke-linecap:round;stroke-linejoin:round" transform="matrix(.87762 .47935 -.4037 .91489 0 0)"/><path d="m17.968 24.341-3.902 9.778L40.122 48h2.395l.816 1.534 15.757 7.535-6.538-16.387-15.654-7.397L38.06 36.2H25.941l2.713-6.811Z" style="fill:#4f4f4f"/><ellipse cx="-16.821" cy="42.697" rx="31.179" ry="7.224" style="fill:none;stroke:#008eb1;stroke-width:5.14294;stroke-linecap:round;stroke-linejoin:round" transform="matrix(-.87762 .47935 .40371 .91489 0 0)"/><path d="m22.793 25.065 5.153 2.895c-4.63 2.643-8.793 5.389-12.171 7.96l-4.131-3.176c3.142-2.505 6.913-5.117 11.149-7.679" style="fill:#008eb1"/><path d="m46.033 24.341 3.902 9.778L23.88 48h-2.396l-.815 1.534-15.758 7.535 6.538-16.387 15.654-7.397-1.162 2.915H38.06l-2.713-6.811Z" style="fill:#4f4f4f"/><path d="m41.207 25.065-5.153 2.895c4.63 2.643 8.793 5.389 12.171 7.96l4.131-3.176c-3.142-2.505-6.913-5.117-11.149-7.679" style="fill:#008eb1"/><path d="M2.041 17.258a5.9 5.9 0 0 0 .186 2.066c.295 1.065.8 2.006 1.431 2.949 1.263 1.887 3.089 3.801 5.41 5.848a73 73 0 0 0 4.18 3.393c.224-.17.433-.338.662-.508-1.778-1.321-3.414-2.626-4.841-3.885-2.322-2.047-4.148-3.961-5.41-5.848-.632-.943-1.137-1.884-1.432-2.949a6 6 0 0 1-.186-1.066m6.055.053c-.47.009-.673.079-.91.136.104.245.18.464.46.883l.016.022c.122-.019.245-.038.434-.041 1.353-.027 3.511.3 6.115 1.017 5.207 1.434 12.253 4.364 19.668 8.414s13.805 8.459 18.01 12.166c2.092 1.845 3.639 3.534 4.451 4.74.181-.027.332-.059.474-.093-.104-.245-.18-.468-.46-.887-.809-1.208-2.363-2.906-4.465-4.76-4.205-3.707-10.595-8.116-18.01-12.166s-14.461-6.98-19.668-8.414c-2.604-.717-4.762-1.044-6.115-1.017m53.863 28.435c-.042.486-.134.972-.338 1.434-.504 1.142-1.459 1.886-2.396 2.277-.934.389-1.907.521-2.957.543l.392.98c.901-.045 1.75-.183 2.565-.523.937-.391 1.892-1.135 2.396-2.277.345-.782.415-1.632.338-2.434" style="opacity:.2"/><circle cx="15.001" cy="16" r="7" style="opacity:.2"/><circle cx="15.001" cy="15" r="7" style="fill:#04bdec"/><path d="M15 8a7 7 0 0 0-7 7 7 7 0 0 0 .025.445A7 7 0 0 1 15 9a7 7 0 0 1 6.975 6.479A7 7 0 0 0 22 15a7 7 0 0 0-7-7" style="opacity:.2;fill:#fff"/><path d="M61.965 17.258a6 6 0 0 1-.186 1.066c-.295 1.065-.8 2.006-1.431 2.949-1.263 1.887-3.089 3.801-5.41 5.848-1.429 1.259-3.064 2.564-4.842 3.885.229.17.438.338.662.508a74 74 0 0 0 4.18-3.393c2.321-2.047 4.147-3.961 5.41-5.848.631-.943 1.136-1.884 1.431-2.949a5.9 5.9 0 0 0 .186-2.066m-6.055.053c-1.353-.027-3.511.3-6.115 1.017-3.407.938-7.608 2.527-12.178 4.641.327.184.658.366.981.551 4.189-1.891 8.034-3.321 11.197-4.192 2.604-.717 4.762-1.044 6.115-1.017.188.003.312.022.434.041l.015-.022c.281-.419.357-.638.461-.883-.237-.057-.44-.127-.91-.136m-23.904 8.433c-.625.328-1.248.653-1.879.998-7.415 4.05-13.806 8.459-18.01 12.166-2.102 1.854-3.656 3.552-4.465 4.76-.28.419-.356.642-.46.887.142.034.293.066.474.093.812-1.206 2.359-2.895 4.451-4.74 4.204-3.707 10.595-8.116 18.01-12.166a135 135 0 0 1 2.82-1.496q-.471-.253-.941-.502M2.047 45.746c-.077.802-.007 1.652.338 2.434.504 1.142 1.459 1.886 2.396 2.277.815.34 1.664.478 2.565.523l.392-.98c-1.05-.022-2.024-.154-2.957-.543-.937-.391-1.892-1.135-2.396-2.277-.204-.462-.296-.948-.338-1.434" style="opacity:.2"/><circle cx="53.5" cy="25.5" r="5.5" style="opacity:.2"/><circle cx="53.5" cy="24.5" r="5.5" style="fill:#04bdec"/><path d="M53.5 19a5.5 5.5 0 0 0-5.5 5.5 6 6 0 0 0 .025.486A5.5 5.5 0 0 1 53.5 20a5.5 5.5 0 0 1 5.475 5.014A6 6 0 0 0 59 24.5a5.5 5.5 0 0 0-5.5-5.5" style="opacity:.2;fill:#fff"/></svg>