<svg xmlns="http://www.w3.org/2000/svg" width="64" height="64"><rect width="50" height="50" x="7" y="8" rx="2.5" ry="2.5" style="opacity:.2"/><rect width="50" height="50" x="7" y="7" rx="2.5" ry="2.5" style="fill:#f44336"/><path d="M15.7 15 2 51h9.588l2.351-7h14.915L31 50.453V51h31v-7H42.93L62 20.62V15H31v7h19.086l-13.88 17.004L27.07 15Zm5.696 8.44L26.451 37H16.318Z" style="opacity:.2"/><path d="M28.854 43H13.94l-2.353 7H2l13.7-36h11.37l13.7 36h-9.588Zm-12.535-7H26.45l-5.054-13.56Z" style="fill:#fff"/><path d="M31 14h31v5.618L42.93 43H62v7H31v-5.618L50.086 21H31Z" style="fill:#fff"/><path d="M9.5 7A2.495 2.495 0 0 0 7 9.5v1C7 9.115 8.115 8 9.5 8h45c1.385 0 2.5 1.115 2.5 2.5v-1C57 8.115 55.885 7 54.5 7z" style="fill:#fff;opacity:.2"/></svg>