<svg xmlns="http://www.w3.org/2000/svg" width="64" height="64"><rect width="56" height="56" x="4" y="5" ry="11.2" style="opacity:.2"/><path d="M15.2 4h33.6C55.005 4 60 8.995 60 15.2v29.4l-1.592 3.138c-2.808 5.534-2.612 9.221-8.812 9.475L17.191 58.54c-6.2.254-9.443-3.657-11.2-9.607L4 42.193V15.2C4 8.995 8.995 4 15.2 4" style="fill:#75d6f0"/><path d="M12 24 4 42.194V48.8C4 55.005 8.995 60 15.2 60h33.6C55.005 60 60 55.005 60 48.8v-4.818L54 30 43.845 51.482l-12.36-9.827-7.77 4.03z" style="fill:#14aaeb"/><path d="M28.212 9 8 57h10.44l4.602-10h18.13l4.434 10H56L35.657 9Zm3.721 13.168L37.38 37H26.488Z" style="opacity:.2"/><path d="M28.212 8 8 56h10.44l4.602-10h18.13l4.434 10H56L35.657 8Zm3.721 13.168L37.38 36H26.488Z" style="fill:#fff"/><circle cx="52" cy="13" r="5" style="opacity:.2"/><circle cx="52" cy="12" r="5" style="fill:#fd5"/><path d="M15.2 4C8.993 4 4 8.994 4 15.2v1C4 9.993 8.994 5 15.2 5h33.6C55.007 5 60 9.994 60 16.2v-1C60 8.993 55.006 4 48.8 4z" style="fill:#fff;opacity:.2"/><path d="M52 7a5 5 0 0 0-5 5 5 5 0 0 0 .033.508A5 5 0 0 1 52 8a5 5 0 0 1 4.967 4.508A5 5 0 0 0 57 12a5 5 0 0 0-5-5" style="fill:#fff;opacity:.2"/></svg>