<svg xmlns="http://www.w3.org/2000/svg" width="64" height="64"><g transform="translate(0 -268.3)"><path d="M6 289.265v25.345h.074q-.07.362-.074.724c0 4.4 7.163 7.966 16 7.966s16-3.566 16-7.966a4 4 0 0 0-.08-.724H38v-25.345z" style="opacity:.2"/><path d="M6 288.265v25.345h.074q-.07.362-.074.724c0 4.4 7.163 7.966 16 7.966s16-3.566 16-7.966a4 4 0 0 0-.08-.724H38v-25.345z" style="fill:#1672b9"/><circle cx="44" cy="313.3" r="16" style="opacity:.2"/><ellipse cx="22" cy="289.3" rx="16" ry="8" style="opacity:.2"/><ellipse cx="22" cy="288.3" rx="16" ry="8" style="fill:#c5e636"/><path d="M22 12a16 8 0 0 0-16 8 16 8 0 0 0 .043.574A16 8 0 0 1 22 13a16 8 0 0 1 15.957 7.426A16 8 0 0 0 38 20a16 8 0 0 0-16-8" style="opacity:.2;fill:#fff" transform="translate(0 268.3)"/><path d="M39 270.3a9 9 0 0 0-7.676 4.316A9 9 0 0 0 29 274.3a9 9 0 0 0-9 9 9 9 0 0 0 9 9h19a6 6 0 0 0 6-6 6 6 0 0 0-6-6l-.062.004A9 9 0 0 0 48 279.3a9 9 0 0 0-9-9" style="opacity:.2"/><circle cx="29" cy="282.3" r="9" style="fill:#5cc9ed"/><circle cx="39" cy="278.3" r="9" style="fill:#5cc9ed"/><circle cx="48" cy="285.3" r="6" style="fill:#5cc9ed"/><path d="M29 282.73h19v8.571H29z" style="fill:#5cc9ed"/><circle cx="44" cy="312.3" r="16" style="fill:#013fa4"/><path d="m41.928 36-.176 2.105a6.3 6.3 0 0 0-1.836 1.065L38 38.268l-2 3.462 1.738 1.21a6.3 6.3 0 0 0-.095 1.06 6.3 6.3 0 0 0 .091 1.064L36 46.268l2 3.464 1.91-.9a6.3 6.3 0 0 0 1.842 1.057L41.93 52h4l.175-2.107a6.3 6.3 0 0 0 1.836-1.063l1.916.902 2-3.464-1.738-1.207A6.3 6.3 0 0 0 50.215 44a6.3 6.3 0 0 0-.092-1.064l1.734-1.204-2-3.464-1.91.9a6.3 6.3 0 0 0-1.842-1.057L45.93 36zM44 41a3 3 0 0 1 3 3 3 3 0 0 1-3 3 3 3 0 0 1-3-3 3 3 0 0 1 3-3" style="fill:#fff" transform="translate(0 268.3)"/><path d="M39 1a9 9 0 0 0-7.672 4.318A9 9 0 0 0 29 5a9 9 0 0 0-9 9 9 9 0 0 0 .021.424A9 9 0 0 1 29 6a9 9 0 0 1 2.328.318A9 9 0 0 1 39 2a9 9 0 0 1 8.975 8.477A9 9 0 0 0 48 10a9 9 0 0 0-9-9m9 10a9 9 0 0 1-.06 1.002L48 12a6 6 0 0 1 5.975 5.498A6 6 0 0 0 54 17a6 6 0 0 0-6-6" style="opacity:.2;fill:#fff" transform="translate(0 268.3)"/></g></svg>