<svg xmlns="http://www.w3.org/2000/svg" width="64" height="64"><path d="M31.52 60.975a4.8 4.8 0 0 1-1.47-.416c-.325-.161-20.796-11.907-21.126-12.122A5 5 0 0 1 7.8 47.343a4.4 4.4 0 0 1-.776-2.051c-.022-.187-.028-3.871-.022-12.49l.01-12.226.063-.268a7 7 0 0 1 .137-.49 4.44 4.44 0 0 1 1.726-2.268C9.346 17.283 29.79 5.562 30.12 5.407c.351-.164.647-.26 1.057-.34a5.2 5.2 0 0 1 1.666.001c.45.089.79.205 1.19.409.415.21 20.723 11.86 21.067 12.084.139.09.39.302.588.494.666.648 1.064 1.383 1.261 2.332.048.233.051.86.051 12.625 0 12.007-.002 12.387-.054 12.631a4.8 4.8 0 0 1-.707 1.667c-.233.343-.776.88-1.124 1.111-.293.194-20.584 11.843-21.031 12.074a4.53 4.53 0 0 1-2.565.48" style="opacity:.2"/><path d="M31.52 59.975a4.8 4.8 0 0 1-1.47-.416c-.325-.161-20.796-11.907-21.126-12.122A5 5 0 0 1 7.8 46.343a4.4 4.4 0 0 1-.776-2.051c-.022-.187-.028-3.871-.022-12.49l.01-12.226.063-.268c.034-.148.096-.368.137-.49a4.44 4.44 0 0 1 1.726-2.268C9.346 16.283 29.79 4.562 30.12 4.407c.351-.164.647-.26 1.057-.34a5.2 5.2 0 0 1 1.666.001c.45.089.79.205 1.19.409.415.21 20.723 11.86 21.067 12.084.139.09.39.302.588.494.666.648 1.064 1.383 1.261 2.332.048.233.051.86.051 12.625 0 12.007-.002 12.387-.054 12.631a4.8 4.8 0 0 1-.707 1.667c-.233.343-.776.88-1.124 1.111-.293.194-20.584 11.843-21.031 12.074a4.53 4.53 0 0 1-2.565.48" style="fill:#10a5f1"/><path d="M33.345 53c-.37-1.063-.851-2.832-1.076-.744-.187 1.251-.54-1.94-.856-.002-.194.342-.119-2.447-.72-.88-.154 2.058-1.618.76-2.047-.103-.402 1.461-.103-.987-.7.316-1.293 2.21-.322-3.235-1.73-.855-.873 1.386-.4-.62-1.216-.534-1.076.906-.905-1.381-2.265-.883-.523-.78-.862-2.559-2.027-1.905.378-1.416-1.276-2.536-2.093-3.212-.927.428-1.464.348-.88-.727.476-1.052-.322-1.743-.37-2.816-1.332 0 .451-1.984-1.285-1.588-.175-.66 1.547-1.784-.243-1.793-.685-.449 1.548-1.487-.15-1.134 1.005-.521-1.432-1.398-.448-2.072 1.776-.445-.229-1.128.123-1.212 1.065-.335-.788-.777.42-.979-.352-.885-1.072-1.146-.346-2.204-.177-1.054-.78-2.304.114-3.186-.486-.832-.813-1.067.167-1.57.036-1.548.804-3.173.828-4.649 1.311-.942 1.663-3.02 3.418-3.313 1.242-1.047 3.368-.91 4.718-1.662.529.508 1.62-.364 1.944-.288.784 1.073 2.678-.84 3.48.812.783.836 1.025-1.5 1.563-.03.64 1.01 1.55-1.305 2.288.009 1.875-.136 3.764-.31 5.617-.61.32 1.353 2.059-1.148 1.674.728 1.488.612 3.413.508 4.284 2.087.706.92 2.29 2.048 1.724 2.97 1.114.255.797.862.674 1.516-.256 1.017.978 1.888.347 2.849 1.188.957-.731 1.907.573 2.909.68.635-1.207.573-.39 1.66.833 1.017-.365 1.09-.38 2.04 1.468.032-.986.708.609 1.054-1.614.001-.126 1.02.023 1.451-.232.846-1.104 1.373-.633 1.755-1.844-.615 1.353 1.26-.697 1.266-1.016.172 1.586 1.968-.337 1.658-.713.364.829 1.613-.633 1.532-.132.845-.275 1.616-.86 2.094.19.91.988 2.696-.714 1.747-.746-.285-1.856.94-1.92 1.675.239.877.362 1.713-.746.934-1.31.196-.6 2.525-2.348 1.973-.403.991-.763 1-1.626.785-.035 1.165-.21 2.437-1.182.962-.877-1.335-.477 2.095-1.352.436-.908-1.696-.018 2.11-.806.293-.277.82-.804 1.283-1.512 1.44" style="opacity:.1"/><path d="M33.345 52c-.37-1.063-.851-2.832-1.076-.744-.187 1.251-.54-1.94-.856-.002-.194.342-.119-2.447-.72-.88-.154 2.058-1.618.76-2.047-.103-.402 1.461-.103-.987-.7.316-1.293 2.21-.322-3.235-1.73-.855-.873 1.386-.4-.62-1.216-.534-1.076.906-.905-1.381-2.265-.883-.523-.78-.862-2.559-2.027-1.905.378-1.416-1.276-2.536-2.093-3.212-.927.428-1.464.348-.88-.727.476-1.052-.322-1.743-.37-2.816-1.332 0 .451-1.984-1.285-1.588-.175-.66 1.547-1.784-.243-1.793-.685-.449 1.548-1.487-.15-1.134 1.005-.521-1.432-1.398-.448-2.072 1.776-.445-.229-1.128.123-1.212 1.065-.335-.788-.777.42-.979-.352-.885-1.072-1.146-.346-2.204-.177-1.054-.78-2.304.114-3.186-.486-.832-.813-1.067.167-1.57.036-1.548.804-3.173.828-4.649 1.311-.942 1.663-3.02 3.418-3.313 1.242-1.047 3.368-.91 4.718-1.662.529.508 1.62-.364 1.944-.288.784 1.073 2.678-.84 3.48.812.783.836 1.025-1.5 1.563-.03.64 1.01 1.55-1.305 2.288.009 1.875-.136 3.764-.31 5.617-.61.32 1.353 2.059-1.148 1.674.728 1.488.612 3.413.508 4.284 2.087.706.92 2.29 2.048 1.724 2.97 1.114.255.797.862.674 1.516-.256 1.017.978 1.888.347 2.849 1.188.957-.731 1.907.573 2.909.68.635-1.207.573-.39 1.66.833 1.017-.365 1.09-.38 2.04 1.468.032-.986.708.609 1.054-1.614.001-.126 1.02.023 1.451-.232.846-1.104 1.373-.633 1.755-1.844-.615 1.353 1.26-.697 1.266-1.016.172 1.586 1.968-.337 1.658-.713.364.829 1.613-.633 1.532-.132.845-.275 1.616-.86 2.094.19.91.988 2.696-.714 1.747-.746-.285-1.856.94-1.92 1.675.239.877.362 1.713-.746.934-1.31.196-.6 2.525-2.348 1.973-.403.991-.763 1-1.626.785-.035 1.165-.21 2.437-1.182.962-.877-1.335-.477 2.095-1.352.436-.908-1.696-.018 2.11-.806.293-.277.82-.804 1.283-1.512 1.44" style="fill:#2c2c2c"/><path d="M31.622 22.003c-.116.018-.238.135-.379.435-1.058-1.589-1.448 2.224-2.012.195-.508-1.382-.17 1.822-.983.357-.836-1.313-1.438-.696-2.108.312-1.446.496-2.965 1.324-3.662 2.966l-.91 1.15c-1.6.855 2.104 2.71-.419 2.61.933.432 1.365.815.157 1.357-.544.926.314 1.885-.306 2.854.347.9 2.032 1.09.336 1.653-.779.406 1.66.054.538.873-1.934 1.578.96 2.21 1.272 3.877 1.547 1.379 3.398 2.31 5.105 3.437.76-.963.54-.195.97.593.514-.783.582-1.004.897.193.325 1.512 1.646-1.116 1.653.906.036.6.187-.152.319-.27.312-.52 1.123 1.072 1.198-.427.28-.797.685-2.333.97-.62.63 1.536.132-1.762.933-.013 1.328-.49 2.673-1.645 4.005-2.394.597-.409 1.35-.65 1.54-1.486.563-1.44 3.03-2.311 1.215-3.835-.899-.876 1.898-.387.25-1.012-1.721-.511 1.867-1.011.311-2.138.673-.336.645-.692-.053-.937 1.661-1.243-2.184-1.826.015-2.405.887-.503-1.886-.072-.303-1.168.571-.44.72-1.245.323-1.054l-.745-.956c-.026-.125-.111-.248-.286-.365-1.119-1.39-2.158-2.913-3.907-3.244-.861-.77-1.405-1.98-2.345-.485-.954 1.41-.51-2.007-1.077-.15-.415 1.663-.662-.896-1.289-.804-.586.745-.876-.062-1.223-.005" style="opacity:.2"/><path d="M31.622 21.003c-.116.018-.238.135-.379.435-1.058-1.589-1.448 2.224-2.012.195-.508-1.382-.17 1.822-.983.357-.836-1.313-1.438-.696-2.108.312-1.446.496-2.965 1.324-3.662 2.966l-.91 1.15c-1.6.855 2.104 2.71-.419 2.61.933.432 1.365.815.157 1.357-.544.926.314 1.885-.306 2.854.347.9 2.032 1.09.336 1.653-.779.406 1.66.054.538.873-1.934 1.578.96 2.21 1.272 3.877 1.547 1.379 3.398 2.31 5.105 3.437.76-.963.54-.195.97.593.514-.783.582-1.004.897.193.325 1.512 1.646-1.116 1.653.906.036.6.187-.152.319-.27.312-.52 1.123 1.072 1.198-.427.28-.797.685-2.333.97-.62.63 1.536.132-1.762.933-.013 1.328-.49 2.673-1.645 4.005-2.394.597-.409 1.35-.65 1.54-1.486.563-1.44 3.03-2.311 1.215-3.835-.899-.876 1.898-.387.25-1.012-1.721-.511 1.867-1.011.311-2.138.673-.336.645-.692-.053-.937 1.661-1.243-2.184-1.826.015-2.405.887-.503-1.886-.072-.303-1.168.571-.44.72-1.245.323-1.054l-.745-.956c-.026-.125-.111-.248-.286-.365-1.119-1.39-2.158-2.913-3.907-3.244-.861-.77-1.405-1.98-2.345-.485-.954 1.41-.51-2.007-1.077-.15-.415 1.663-.662-.896-1.289-.804-.586.745-.876-.062-1.223-.005" style="fill:#ffae15"/><path d="M31.623 21.002c-.116.019-.24.135-.38.436-1.059-1.589-1.45 2.224-2.013.195-.508-1.382-.169 1.823-.982.357-.836-1.313-1.438-.695-2.107.313-1.447.496-2.966 1.323-3.662 2.965l-.91 1.15c-.567.302-.466.729-.215 1.15q.084-.079.214-.15l.91-1.15c.697-1.642 2.216-2.469 3.663-2.965.669-1.008 1.27-1.626 2.107-.313.813 1.466.474-1.74.982-.357.564 2.03.954-1.784 2.012-.195.142-.3.265-.417.381-.436v.002c.347-.057.636.748 1.223.004.626-.092.874 2.467 1.289.803.567-1.856.122 1.561 1.076.15.94-1.494 1.484-.284 2.346.486 1.749.332 2.787 1.854 3.906 3.244.174.118.259.24.285.366l.633.81c.39-.443.455-1.02.113-.855l-.746-.955c-.026-.126-.11-.248-.285-.366-1.12-1.39-2.157-2.912-3.906-3.244-.862-.77-1.406-1.98-2.346-.486-.954 1.411-.509-2.006-1.076-.15-.415 1.664-.663-.895-1.29-.803-.586.744-.875-.06-1.222-.004zm10.7 7.926a2 2 0 0 1-.151.138c-.613.425-.572.62-.344.729-.137-.2-.036-.38.647-.56.344-.195.137-.25-.153-.307m-20.67.08a3 3 0 0 1-.505.02c.599.277.99.536.875.827.123-.184-.113-.497-.37-.847m-.08 1.24c-.082.045-.16.09-.266.137-.256.435-.202.878-.137 1.326.03-.109.073-.218.137-.326 1-.448.866-.788.265-1.137m20.788.022c-1.191.353-.243.713.264 1.228.535-.51.147-.9-.264-1.228m.5 1.578c.067.201.017.426-.261.677.418-.234.505-.474.261-.677m-.338.738-.064.053c.102.035.185.075.258.115a1.5 1.5 0 0 0-.194-.168m-21.34.225a1.5 1.5 0 0 1-.183.43c.05.13.13.243.223.347.027-.26-.002-.52-.04-.777m21.68.529a1.4 1.4 0 0 1-.351.236c.035.026.055.05.086.074a1 1 0 0 0 .265-.31M42.4 34.8c-.406.288-.858.518-.593.735-.289-.57 1.585-.303.593-.734m-20.914.038c-.05.018-.093.036-.15.055-.48.25.259.212.637.337-.113-.114-.302-.242-.487-.392m20.852 1.29c-.377.066-.829.166-.387.597.249.208.41.406.514.593.191-.368.205-.753-.127-1.19m-20.838.009c-.364.44-.338.808-.123 1.158.106-.166.266-.342.498-.531.681-.498.052-.562-.375-.627" style="fill:#fff;opacity:.2"/><path d="m19.275 22.912-1.035.962L24 29.47v2.122l6-1.408V29h4v1.185l6 1.408V29.47l5.76-5.597-1.035-.962L40 27.409v-1.446l-6 1.407V28h-4v-.63l-6-1.407v1.446zM27.75 34s2.452 1.55 3.758 2.371v2.678c-.481.874-2.498.613-2.912 1.478 1.046-.092 1.954-.467 2.972-.718 1.14-.005 2.37.598 3.536.654.434-.538-2.34-.763-3.108-1.22.022-.954.072-2.862.072-2.862L36.25 34zm-.117 2.3a.35.35 0 1 0 .017 0zm1 0a.35.35 0 1 0 .017 0zm1 0a.35.35 0 1 0 .017 0zm4 0a.35.35 0 1 0 .017 0zm1 0a.35.35 0 1 0 .017 0zm1 0a.35.35 0 1 0 .017 0zm-8 1a.35.35 0 1 0 .017 0zm1 0a.35.35 0 1 0 .017 0zm1 0a.35.35 0 1 0 .017 0zm4 0a.35.35 0 1 0 .017 0zm1 0a.35.35 0 1 0 .017 0zm1 0a.35.35 0 1 0 .017 0zm-7 1a.35.35 0 1 0 .017 0zm6 0a.35.35 0 1 0 .017 0z" style="fill:#2c2c2c"/><path d="M32.008 4c-.303 0-.606.022-.832.066a4.2 4.2 0 0 0-1.055.34c-.33.155-20.776 11.877-21.183 12.145a4.43 4.43 0 0 0-1.864 2.758l-.062.265v1l.062-.265a4.43 4.43 0 0 1 1.863-2.758c.408-.268 20.854-11.99 21.184-12.145a4.2 4.2 0 0 1 1.055-.34c.226-.044.53-.066.832-.066s.606.021.836.066c.45.089.79.207 1.191.41.415.211 20.723 11.862 21.067 12.087.138.09.388.3.586.492.666.647 1.064 1.383 1.261 2.332.02.094.03.909.035 2.111.003.267.006.415.008.877-.005-2.668-.014-3.85-.043-3.988-.197-.949-.595-1.685-1.261-2.332a5 5 0 0 0-.586-.492c-.344-.225-20.652-11.876-21.067-12.086a4.3 4.3 0 0 0-1.191-.41A4.6 4.6 0 0 0 32.008 4" style="opacity:.2;fill:#fff"/></svg>