<svg xmlns="http://www.w3.org/2000/svg" width="64" height="64"><rect width="57" height="57" x="4" y="4" rx="17.1" ry="17.1" style="opacity:.2"/><rect width="57" height="57" x="4" y="3" rx="17.1" ry="17.1" style="fill:#e4e4e4"/><path d="m13.4 40.2 27.166-21.314 2.715 8.024-1.721 4.592-1.591 1.777-12.504 10.346-4.645 1.992-1.688.066z" style="fill:#3a9bff"/><circle cx="32.5" cy="24.5" r="11.5" style="fill:#3a9bff"/><circle cx="21" cy="36" r="10" style="fill:#3a9bff"/><path d="M42.307 29.208a7 7 0 0 1 8.207 4.23 7 7 0 0 1-3.127 8.688 7 7 0 0 1-9.021-1.972" style="fill:none;stroke:#3a9bff;stroke-width:6;stroke-linecap:round;stroke-linejoin:round"/><path d="M40.611 27.042A8.5 8.5 0 0 1 32.515 33a8.5 8.5 0 0 1-8.117-5.93" style="fill:none;stroke:#fe6080;stroke-width:6;stroke-linecap:round;stroke-linejoin:round"/><circle cx="21" cy="37" r="4" style="opacity:.2"/><circle cx="21" cy="36" r="4" style="fill:#fff"/><circle cx="32.5" cy="25.5" r="5.5" style="opacity:.2"/><circle cx="32.5" cy="24.5" r="5.5" style="fill:#fff"/><circle cx="44" cy="37" r="4" style="opacity:.2"/><circle cx="44" cy="36" r="4" style="fill:#fff"/><path d="M22 56h11v4H22z" style="fill:#fe6282"/><path d="M33 56h11v4H33z" style="fill:#3a9bff"/><path d="M21.1 3C11.626 3 4 10.626 4 20.1v1C4 11.626 11.626 4 21.1 4h22.8C53.374 4 61 11.626 61 21.1v-1C61 10.626 53.374 3 43.9 3z" style="fill:#fff;opacity:.2"/></svg>