<svg xmlns="http://www.w3.org/2000/svg" width="64" height="64"><path d="M4.012 23.872C4.01 24.428 4 25.07 4 25.586 4 50.72 18.56 61 32 61s28-10.28 28-35.414c0-.514-.01-1.16-.012-1.714C59.874 48.79 45.388 59 32 59S4.126 48.79 4.012 23.872" style="opacity:.2;fill-rule:evenodd"/><path d="M6.24 4.442C4 6.727 4 17.662 4 24.586 4 49.72 18.56 60 32 60s28-10.282 28-35.414c0-6.855 0-17.859-2.24-20.144S40.68 9.25 36.2 13.82h-8.4C23.32 9.249 8.48 2.157 6.24 4.442" style="fill:#4f4f4f;fill-rule:evenodd"/><g style="opacity:.2"><path d="M38 47.344C38 50.468 35.314 53 32 53s-6-2.532-6-5.656c0-3.125 12-3.125 12 0"/><path d="M10 9a5 6 0 0 0-5 6 5 6 0 0 0 5 6 5 6 0 0 0 5-6 5 6 0 0 0-5-6m0 2a3 4 0 0 1 3 4 3 4 0 0 1-3 4 3 4 0 0 1-3-4 3 4 0 0 1 3-4m12-2a5 6 0 0 0-5 6 5 6 0 0 0 5 6 5 6 0 0 0 5-6 5 6 0 0 0-5-6m0 2a3 4 0 0 1 3 4 3 4 0 0 1-3 4 3 4 0 0 1-3-4 3 4 0 0 1 3-4" style="fill-rule:evenodd" transform="matrix(2 0 0 2 0 1)"/></g><g style="fill:#fff"><path d="M38 46.344C38 49.468 35.314 52 32 52s-6-2.532-6-5.656c0-3.125 12-3.125 12 0"/><path d="M10 9a5 6 0 0 0-5 6 5 6 0 0 0 5 6 5 6 0 0 0 5-6 5 6 0 0 0-5-6m0 2a3 4 0 0 1 3 4 3 4 0 0 1-3 4 3 4 0 0 1-3-4 3 4 0 0 1 3-4m12-2a5 6 0 0 0-5 6 5 6 0 0 0 5 6 5 6 0 0 0 5-6 5 6 0 0 0-5-6m0 2a3 4 0 0 1 3 4 3 4 0 0 1-3 4 3 4 0 0 1-3-4 3 4 0 0 1 3-4" style="fill-rule:evenodd" transform="scale(2)"/></g><path d="M7.625 3.998V4c-.629.016-1.107.156-1.387.441C3.998 6.726 4 17.664 4 24.586q0 .066.006.129C4.009 17.78 4.083 7.64 6.238 5.44c.28-.285.758-.425 1.387-.441 4.404-.11 16.256 5.822 20.176 9.82h8.398c4.48-4.57 19.323-11.664 21.563-9.379 2.154 2.198 2.23 12.394 2.232 19.274q.005-.064.006-.131c0-6.855.002-17.858-2.238-20.143s-17.083 4.81-21.563 9.38h-8.398c-3.92-4-15.772-9.934-20.176-9.823" style="opacity:.1;fill:#fff;fill-rule:evenodd"/></svg>