<svg xmlns="http://www.w3.org/2000/svg" width="64" height="64"><path d="M48.157 61H16.043C9.018 61 4 56 4 49V17C4 10 9.018 5 16.043 5h32.114C55.182 5 60.2 10 60.2 17v32c0 7-5.018 12-12.043 12" style="opacity:.2;stop-color:#000"/><path d="M48 60H16C9 60 4 55 4 48V16C4 9 9 4 16 4h32c7 0 12 5 12 12v32c0 7-5 12-12 12" style="fill:#33b34f;stop-color:#000"/><path d="M16 4C9 4 4 9 4 16v1C4 10 9.018 5 16.043 5h32.113c5.915 0 10.394 3.552 11.666 8.85C58.904 8 54.258 4 48 4z" style="fill:#dffee2;opacity:.2;stop-color:#000"/><path d="M33 28v27h15V34.5zm0-15v12l15 6.5V13zM15 38.5V13h15v19.5zM15 55V41.5l15-6V55z" style="opacity:.2"/><path d="M33 27v27h15V33.5zm0-15v12l15 6.5V12zM15 54V40.5l15-6V54zm0-16.5V12h15v19.5z" style="fill:#f3f3f3"/></svg>