<svg xmlns="http://www.w3.org/2000/svg" width="64" height="64"><rect width="56" height="56" x="4" y="5" ry="3" style="opacity:.2"/><rect width="56" height="56" x="4" y="4" ry="3" style="fill:#4f4f4f"/><path d="M7 4C5.338 4 4 5.338 4 7v1c0-1.662 1.338-3 3-3h50c1.662 0 3 1.338 3 3V7c0-1.662-1.338-3-3-3z" style="fill:#fff;opacity:.1"/><path d="M11.424 52A1.42 1.42 0 0 0 10 53.424v5.152c0 .79.635 1.424 1.424 1.424h8.152A1.42 1.42 0 0 0 21 58.576c0 .79.635 1.424 1.424 1.424h8.152A1.42 1.42 0 0 0 32 58.576c0 .79.635 1.424 1.424 1.424h8.152A1.42 1.42 0 0 0 43 58.576c0 .79.635 1.424 1.424 1.424h8.152A1.42 1.42 0 0 0 54 58.576v-5.152A1.42 1.42 0 0 0 52.576 52h-8.152A1.42 1.42 0 0 0 43 53.424 1.42 1.42 0 0 0 41.576 52h-8.152A1.42 1.42 0 0 0 32 53.424 1.42 1.42 0 0 0 30.576 52h-8.152A1.42 1.42 0 0 0 21 53.424 1.42 1.42 0 0 0 19.576 52z" style="fill:#76ed54"/><path d="M11.424 45A1.42 1.42 0 0 0 10 46.424v5.152c0 .79.635 1.424 1.424 1.424h8.152A1.42 1.42 0 0 0 21 51.576c0 .79.635 1.424 1.424 1.424h8.152A1.42 1.42 0 0 0 32 51.576c0 .79.635 1.424 1.424 1.424h8.152A1.42 1.42 0 0 0 43 51.576c0 .79.635 1.424 1.424 1.424h8.152A1.42 1.42 0 0 0 54 51.576v-5.152A1.42 1.42 0 0 0 52.576 45h-8.152A1.42 1.42 0 0 0 43 46.424 1.42 1.42 0 0 0 41.576 45h-8.152A1.42 1.42 0 0 0 32 46.424 1.42 1.42 0 0 0 30.576 45h-8.152A1.42 1.42 0 0 0 21 46.424 1.42 1.42 0 0 0 19.576 45Z" style="opacity:.2"/><path d="M11.424 44A1.42 1.42 0 0 0 10 45.424v5.152c0 .79.635 1.424 1.424 1.424h8.152A1.42 1.42 0 0 0 21 50.576c0 .79.635 1.424 1.424 1.424h8.152A1.42 1.42 0 0 0 32 50.576c0 .79.635 1.424 1.424 1.424h8.152A1.42 1.42 0 0 0 43 50.576c0 .79.635 1.424 1.424 1.424h8.152A1.42 1.42 0 0 0 54 50.576v-5.152A1.42 1.42 0 0 0 52.576 44h-8.152A1.42 1.42 0 0 0 43 45.424 1.42 1.42 0 0 0 41.576 44h-8.152A1.42 1.42 0 0 0 32 45.424 1.42 1.42 0 0 0 30.576 44h-8.152A1.42 1.42 0 0 0 21 45.424 1.42 1.42 0 0 0 19.576 44z" style="fill:#76ed54"/><path d="M11.424 37A1.42 1.42 0 0 0 10 38.424v5.152c0 .79.635 1.424 1.424 1.424h8.152A1.42 1.42 0 0 0 21 43.576v-5.152A1.42 1.42 0 0 0 19.576 37Zm22 0A1.42 1.42 0 0 0 32 38.424v5.152c0 .79.635 1.424 1.424 1.424h8.152A1.42 1.42 0 0 0 43 43.576c0 .79.635 1.424 1.424 1.424h8.152A1.42 1.42 0 0 0 54 43.576v-5.152A1.42 1.42 0 0 0 52.576 37h-8.152A1.42 1.42 0 0 0 43 38.424 1.42 1.42 0 0 0 41.576 37Z" style="opacity:.2"/><path d="M11.424 36A1.42 1.42 0 0 0 10 37.424v5.152c0 .79.635 1.424 1.424 1.424h8.152A1.42 1.42 0 0 0 21 42.576v-5.152A1.42 1.42 0 0 0 19.576 36zm22 0A1.42 1.42 0 0 0 32 37.424v5.152c0 .79.635 1.424 1.424 1.424h8.152A1.42 1.42 0 0 0 43 42.576c0 .79.635 1.424 1.424 1.424h8.152A1.42 1.42 0 0 0 54 42.576v-5.152A1.42 1.42 0 0 0 52.576 36h-8.152A1.42 1.42 0 0 0 43 37.424 1.42 1.42 0 0 0 41.576 36z" style="fill:#76ed54"/><path d="M11.424 29A1.42 1.42 0 0 0 10 30.424v5.152c0 .79.635 1.424 1.424 1.424h8.152A1.42 1.42 0 0 0 21 35.576V35s2.4 1 3.8 1c4.2 0 4.2-7 4.2-7s-2.275 1-4.2 1C22 30 21 31.5 21 31.5v-1.076A1.42 1.42 0 0 0 19.576 29zm30.201 0c-2.75 0-9.625.802-9.625 3.334v3.332S32 37 33.375 37h8.25C43 37 43 35.666 43 35.666v-.09c0 .79.635 1.424 1.424 1.424h8.152A1.42 1.42 0 0 0 54 35.576v-5.152A1.42 1.42 0 0 0 52.576 29h-8.152A1.42 1.42 0 0 0 43 30.424v-.09S43 29 41.625 29" style="opacity:.2"/><path d="m19 32 2 2s2.4 1 3.8 1c4.2 0 4.2-7 4.2-7s-2.276 1-4.2 1C22 29 21 30.5 21 30.5Z" style="fill:#21cb43"/><path d="M33.375 36C32 36 32 34.667 32 34.667v-3.334C32 28.802 38.875 28 41.625 28 43 28 43 29.333 43 29.333v5.334S43 36 41.625 36Z" style="fill:#76ed54"/><ellipse cx="25.387" cy="37.96" rx="4.582" ry="1.228" style="fill:#21cb43" transform="matrix(.9781 -.2081 .33374 .94266 0 0)"/><path d="M29 28s-2.275 1-4.2 1C22 29 21 30.5 21 30.5L19 32l.572.572L21 31.5s1-1.5 3.8-1.5c1.847 0 3.964-.9 4.137-.975C28.993 28.437 29 28 29 28" style="fill:#fff;opacity:.1"/><rect width="11" height="8" x="10" y="28" ry="1.425" style="fill:#76ed54"/><rect width="11" height="8" x="10" y="21" ry="1.425" style="opacity:.2"/><rect width="11" height="8" x="43" y="28" ry="1.425" style="fill:#76ed54"/><rect width="11" height="8" x="10" y="20" ry="1.425" style="fill:#eddc54"/><rect width="11" height="8" x="43" y="21" ry="1.425" style="opacity:.2"/><rect width="11" height="8" x="43" y="20" ry="1.425" style="fill:#eddc54"/><rect width="11" height="8" x="43" y="13" ry="1.425" style="opacity:.2"/><rect width="11" height="8" x="43" y="12" ry="1.425" style="fill:#ef5555"/><path d="M41.625 28c-2.75 0-9.625.802-9.625 3.334v1C32 29.802 38.875 29 41.625 29 43 29 43 30.334 43 30.334v-1S43 28 41.625 28" style="fill:#fff;opacity:.2"/><path d="M11.424 20A1.42 1.42 0 0 0 10 21.424v1c0-.79.635-1.424 1.424-1.424h8.152c.79 0 1.424.635 1.424 1.424v-1A1.42 1.42 0 0 0 19.576 20zm33-8A1.42 1.42 0 0 0 43 13.424v1c0-.79.635-1.424 1.424-1.424h8.152c.79 0 1.424.635 1.424 1.424v-1A1.42 1.42 0 0 0 52.576 12z" style="opacity:.2;fill:#fff"/></svg>