<svg xmlns="http://www.w3.org/2000/svg" xmlns:xlink="http://www.w3.org/1999/xlink" xml:space="preserve" width="64" height="64"><defs><radialGradient xlink:href="#a" id="b" cx="17.013" cy="22.103" r="21.246" fx="17.013" fy="22.103" gradientTransform="rotate(105 34.28 27.888)scale(2.11975 1.9034)" gradientUnits="userSpaceOnUse"/><linearGradient id="a"><stop offset="0" style="stop-color:#fff;stop-opacity:1"/><stop offset="1" style="stop-color:#000;stop-opacity:1"/></linearGradient></defs><path d="M15.377 51.22c1.7 3.445 3.71 6.08 5.755 6.599h2.805c4.015-.376 5.831-1.757 9.03-1.757 3.197 0 5.013 1.38 9.028 1.757h2.802c2.038-.52 4.032-3.162 5.724-6.6l-18.274-2.424z" style="opacity:1;fill:#00a1de;fill-opacity:1;stroke:none;stroke-width:0"/><path d="M12.808 44.62c.63 2.037 1.372 4.056 2.227 5.89q.169.36.342.71H50.52q.172-.35.34-.71a49 49 0 0 0 2.28-5.89l-22.046-2.485Z" style="opacity:1;fill:#b01cab;fill-opacity:1;stroke:none;stroke-width:0"/><path d="M11.182 38.02c.27 1.598.68 3.324 1.178 5.086q.214.757.448 1.514H53.14l.107-.343a11 11 0 0 1-2.314-1.171 11.1 11.1 0 0 1-4.184-5.085l-16.563-2.425Z" style="opacity:1;fill:#cf0f2b;fill-opacity:1;stroke:none;stroke-width:0"/><path d="M10.957 31.422c-.13.802-.202 1.615-.202 2.429 0 1.06.14 2.338.35 3.702l.077.468h35.567a11.1 11.1 0 0 1-.826-4.17c.003-.818.096-1.632.278-2.43l-16.621-2Z" style="opacity:1;fill:#ff661c;fill-opacity:1;stroke:none;stroke-width:0"/><path d="M13.441 24.824a17.9 17.9 0 0 0-2.484 6.598h35.244q.148-.648.372-1.273a11.1 11.1 0 0 1 4.002-5.325l-18.328-1.091Z" style="opacity:1;fill:#ffc728;fill-opacity:1;stroke:none;stroke-width:0"/><path d="M42.22 6.087s-3.702 0-7.404 3.702-3.702 9.254-3.702 9.254 5.553 0 9.255-5.552c1.452-2.178 1.85-7.404 1.85-7.404M21.86 19.043c-3.073 0-6.143 2.274-8.275 5.553a17.9 17.9 0 0 0-2.372 5.553 16 16 0 0 0-.459 3.702c0 1.06.14 2.338.35 3.702.268 1.725.708 3.617 1.255 5.553.718 2.54 1.608 5.115 2.675 7.403 1.965 4.21 4.395 7.404 6.826 7.404 5.552 0 7.403-1.85 11.105-1.85s5.553 1.85 11.106 1.85c2.426 0 4.831-3.205 6.789-7.404a49 49 0 0 0 2.386-6.232 11 11 0 0 1-2.314-1.171 11.1 11.1 0 0 1-4.363-5.553 11.1 11.1 0 0 1-.647-3.702 11.1 11.1 0 0 1 .65-3.702 11.1 11.1 0 0 1 4.331-5.553 11 11 0 0 1 1.023-.607c-2.105-2.948-4.977-4.946-7.855-4.946-7.404 0-7.404 1.851-11.106 1.851s-3.702-1.85-11.105-1.85" style="opacity:.130394;fill:url(#b);fill-opacity:1;stroke:none;stroke-width:.185093;stroke-dasharray:none;stroke-opacity:1"/><path d="M42.22 6.087s-3.701 0-7.403 3.702-3.702 9.254-3.702 9.254 5.553 0 9.255-5.552c1.452-2.178 1.85-7.404 1.85-7.404M21.86 19.043c-3.072 0-6.143 2.274-8.274 5.553q-.072.11-.141.22h37.14a11 11 0 0 1 .32-.22 11 11 0 0 1 1.022-.607c-2.105-2.948-4.977-4.946-7.855-4.946-7.404 0-7.404 1.851-11.106 1.851s-3.702-1.85-11.105-1.85" style="opacity:1;fill:#75bd21;fill-opacity:1;stroke:none;stroke-width:0"/></svg>