<svg xmlns="http://www.w3.org/2000/svg" width="64" height="64"><rect width="56" height="56" x="4" y="5" rx="11" ry="11" style="opacity:.2"/><rect width="56" height="56" x="4" y="4" rx="11" ry="11" style="fill:#5c29a1"/><path d="M21 17c-7 0-9 4-9 9v14h10v9h20v-9h10V26c0-5-2-9-9-9zm1 8a6 6 0 1 1 0 12 6 6 0 0 1 0-12m20 0a6 6 0 1 1 0 12 6 6 0 0 1 0-12" style="opacity:.2"/><path d="M21 16c-7 0-9 4-9 9v14h10v9h20v-9h10V25c0-5-2-9-9-9zm1 8a6 6 0 1 1 0 12 6 6 0 0 1 0-12m20 0a6 6 0 1 1 0 12 6 6 0 0 1 0-12" style="fill:#efe3b7"/><path d="M15 4C8.906 4 4 8.906 4 15v1C4 9.906 8.906 5 15 5h34c6.094 0 11 4.906 11 11v-1c0-6.094-4.906-11-11-11z" style="opacity:.2;fill:#fff"/></svg>