<svg xmlns="http://www.w3.org/2000/svg" width="64" height="64"><rect width="56" height="56" x="4" y="5" rx="4" ry="4" style="opacity:.2"/><rect width="56" height="56" x="4" y="4" rx="4" ry="4" style="fill:#e4e4e4"/><path d="M7 37v23h8V37zm42 0v23h8V37z" style="fill:#3ca2e4"/><path d="M11 34a4 4 0 0 0-4 4 4 4 0 0 0 4 4 4 4 0 0 0 4-4 4 4 0 0 0-4-4m42 0a4 4 0 0 0-4 4 4 4 0 0 0 4 4 4 4 0 0 0 4-4 4 4 0 0 0-4-4M4 44v3h56v-3z" style="opacity:.2"/><path d="M8 4C5.784 4 4 5.784 4 8v1c0-2.216 1.784-4 4-4h48c2.216 0 4 1.784 4 4V8c0-2.216-1.784-4-4-4z" style="fill:#fff;opacity:.2"/><path d="M11 33a4 4 0 0 0-4 4 4 4 0 0 0 4 4 4 4 0 0 0 4-4 4 4 0 0 0-4-4m42 0a4 4 0 0 0-4 4 4 4 0 0 0 4 4 4 4 0 0 0 4-4 4 4 0 0 0-4-4M4 43v3h56v-3z" style="fill:#4f4f4f"/></svg>