<svg xmlns="http://www.w3.org/2000/svg" width="64" height="64"><rect width="56" height="56" x="4" y="5" rx="5.6" ry="5.6" style="opacity:.2"/><rect width="56" height="56" x="4" y="4" rx="5.6" ry="5.6" style="fill:#ed81c7"/><path d="M32 10c-.47 0-.939.08-1.37.24l-3.83 1.362-12.123 4.404L11 17.367c1.486 4.004 3.599 7.686 6.258 10.889.39.4.703.88 1.094 1.281.86.88 1.721 1.762 2.582 2.563l-1.096-4.885-.39-2.082-.862-4.002 13.375-5.125c2.894-1.041 6.1-1.682 9.307-1.682h.156c.547 0 1.173 0 1.72.08.783.08 1.566.16 2.27.24l-2.348-.88-1.955-.721-4.379-1.602-3.363-1.2A3.9 3.9 0 0 0 32 10m9.424 5.445a25.4 25.4 0 0 0-7.43 1.362l7.822 2.963 1.8.72 1.642.64-2.738 12.491c-1.095 5.525-3.05 10.729-5.71 15.533l5.085-5.924 1.798-2.082.235-.24 2.658-3.123c.391-.48.705-.96.861-1.601l.938-3.204L53 17.287c-2.894-1.281-6.336-1.762-9.7-1.842h-.624zm-28.469 8.727 2.111 7.287.235.88.705 2.483.469 1.522c.156.56.47 1.12.86 1.601.392.4.86 1.041 1.485 1.762.391.48.861 1.041 1.33 1.602C24.608 46.513 31.726 54.759 31.96 55c3.755-5.365 6.65-11.69 8.292-18.256l-3.912 3.283-2.111 1.842-2.268 1.842-10.246-8.568c-1.486-1.201-2.815-2.563-4.145-4.084a9 9 0 0 1-1.095-1.362 41 41 0 0 1-3.52-5.525" class="st0" style="opacity:.1"/><path d="M45.257 20.13 42.52 32.62c-1.095 5.525-3.05 10.73-5.71 15.534l5.084-5.925 1.799-2.082.234-.24 2.66-3.123c.39-.48.704-.961.86-1.602l.938-3.203L53 16.286Z" class="st0" style="fill:#a50b3e"/><path d="M43.302 14.445h-1.877a25.5 25.5 0 0 0-7.43 1.361l7.82 2.963 1.8.72 1.642.64L53 16.287c-2.894-1.28-6.335-1.761-9.698-1.841" class="st1" style="fill:#d32742"/><path d="m18.587 20.13 13.374-5.125c2.894-1.04 6.1-1.681 9.307-1.681h.157c.547 0 1.173 0 1.72.08.782.08 1.564.16 2.268.24l-2.346-.88-1.955-.721-4.38-1.602-3.363-1.2a4.02 4.02 0 0 0-2.738 0L26.8 10.6l-12.123 4.404L11 16.367Z" class="st2" style="fill:#d32742"/><path d="M17.257 27.256c.391.4.704.881 1.095 1.281.86.881 1.72 1.762 2.581 2.563l-1.095-4.885-.391-2.082-.86-4.003L11 16.367c1.486 4.003 3.598 7.686 6.257 10.89" class="st3" style="fill:#aa1caf"/><path d="m31.96 42.71-10.245-8.568c-1.486-1.2-2.816-2.562-4.145-4.083a9 9 0 0 1-1.095-1.361 41 41 0 0 1-3.52-5.525l2.112 7.286.235.88.704 2.483.469 1.521c.156.56.47 1.121.86 1.602.391.4.86 1.04 1.486 1.761.391.48.86 1.041 1.33 1.602C24.609 45.512 31.726 53.76 31.96 54Z" class="st4" style="fill:#aa1caf"/><path d="m36.34 39.027-2.11 1.841-2.27 1.842V54c3.755-5.365 6.649-11.69 8.291-18.256z" class="st5" style="fill:#a50b3e"/><path d="M9.6 4A5.587 5.587 0 0 0 4 9.6v1C4 7.497 6.497 5 9.6 5h44.8c3.103 0 5.6 2.497 5.6 5.6v-1C60 6.497 57.503 4 54.4 4z" style="fill:#fff;opacity:.2"/></svg>