<svg xmlns="http://www.w3.org/2000/svg" width="64" height="64"><circle cx="32" cy="33" r="28" style="opacity:.2"/><ellipse cx="31.999" cy="32" rx="27.999" ry="28" style="fill:#89b0d0"/><path d="M25.375 12c-.76 0-1.375.608-1.375 1.357v16.286c0 .75.616 1.357 1.375 1.357h8.25c.76 0 1.375-.608 1.375-1.357V13.357c0-.75-.616-1.357-1.375-1.357zm20.46 7.002a1.43 1.43 0 0 0-1.054.553L36.283 30.63a1.365 1.365 0 0 0 .285 1.94l5.666 4.152a1.44 1.44 0 0 0 1.985-.278l8.498-11.078a1.36 1.36 0 0 0-.285-1.937l-5.666-4.155a1.44 1.44 0 0 0-.93-.273M9.642 30a1.41 1.41 0 0 0-1.291.865l-4.235 9.998c-.31.731.03 1.58.756 1.885l16.938 7.14a1.406 1.406 0 0 0 1.841-.755l4.235-9.998a1.435 1.435 0 0 0-.756-1.883l-16.94-7.143A1.4 1.4 0 0 0 9.64 30m46.12 3a1.44 1.44 0 0 0-.646.148l-11.332 5.6a1.393 1.393 0 0 0-.633 1.879l2.832 5.6c.35.691 1.203.97 1.903.625l11.332-5.6c.7-.346.983-1.187.633-1.879l-2.832-5.6A1.42 1.42 0 0 0 55.762 33" style="opacity:.2"/><path d="M32 4A28 28 0 0 0 4 32a28 28 0 0 0 .021.586A28 28 0 0 1 32 5a28 28 0 0 1 27.979 27.414L60 32A28 28 0 0 0 32 4" style="opacity:.2;fill:#fff"/><path d="M25.375 11c-.76 0-1.375.608-1.375 1.357v16.286c0 .75.616 1.357 1.375 1.357h8.25c.76 0 1.375-.608 1.375-1.357V12.357c0-.75-.616-1.357-1.375-1.357Zm20.461 7.002a1.43 1.43 0 0 0-1.054.552l-8.499 11.077c-.47.612-.342 1.48.285 1.939l5.666 4.153a1.44 1.44 0 0 0 1.984-.278l8.499-11.077c.47-.612.342-1.48-.285-1.939l-5.666-4.154a1.44 1.44 0 0 0-.93-.273M55.76 32a1.4 1.4 0 0 0-.644.148l-11.333 5.6a1.393 1.393 0 0 0-.633 1.878l2.833 5.6c.35.692 1.201.972 1.9.626l11.334-5.6c.7-.345.983-1.187.633-1.878l-2.833-5.6A1.42 1.42 0 0 0 55.76 32M9.64 29a1.41 1.41 0 0 0-1.29.865l-4.235 9.999c-.31.731.03 1.578.755 1.883l16.94 7.143a1.406 1.406 0 0 0 1.841-.756l4.235-9.999a1.435 1.435 0 0 0-.755-1.883L10.19 29.109A1.4 1.4 0 0 0 9.64 29" style="fill:#e4e4e4"/><path d="M25.375 11c-.76 0-1.375.608-1.375 1.357v1c0-.75.616-1.357 1.375-1.357h8.25c.76 0 1.375.608 1.375 1.357v-1c0-.75-.616-1.357-1.375-1.357zm20.46 7.002a1.43 1.43 0 0 0-1.054.553L36.283 29.63a1.35 1.35 0 0 0-.181 1.334c.045-.116.101-.23.181-.334l8.498-11.076a1.44 1.44 0 0 1 1.984-.28l5.667 4.155c.22.16.374.373.466.605a1.36 1.36 0 0 0-.466-1.605l-5.666-4.155a1.44 1.44 0 0 0-.93-.273M9.642 29a1.41 1.41 0 0 0-1.291.865l-4.235 9.998c-.15.354-.146.735-.021 1.069.008-.023.012-.046.021-.069l4.235-9.998a1.413 1.413 0 0 1 1.841-.756l16.938 7.143c.374.157.644.46.777.814a1.43 1.43 0 0 0-.777-1.814l-16.94-7.143A1.4 1.4 0 0 0 9.64 29m46.12 3a1.44 1.44 0 0 0-.646.148l-11.332 5.6a1.39 1.39 0 0 0-.683 1.748 1.4 1.4 0 0 1 .683-.748l11.332-5.6c.2-.098.423-.15.647-.148a1.42 1.42 0 0 1 1.256.773l2.832 5.6c.021.043.034.087.05.13.14-.354.136-.762-.05-1.13l-2.832-5.6A1.42 1.42 0 0 0 55.762 32" style="opacity:.2;fill:#fff"/><path d="m27 26 2.5 13L32 26zm13 4-6 11 10-8zM22.5 40 20 45l19 5zM46 40l-8 7 10.5-3z" style="opacity:.1"/><path d="m20 44 2.5-5L39 49Zm7-19h5l-2.5 13Zm13 4 4 3-10 8zm6 10 2.5 4L38 46Z" style="fill:#3f3f3f"/></svg>