<svg xmlns="http://www.w3.org/2000/svg" width="64" height="64"><rect width="56" height="56" x="4" y="5" ry="12.6" style="opacity:.2"/><rect width="56" height="56" x="4" y="4" ry="12.6" style="fill:#4c5fd1"/><path d="M18 24.844c0-5.4 4.375-9.844 9.904-9.844h8.192C41.566 15 46 19.395 46 24.844a9.84 9.84 0 0 1-3.084 7.143l-1.877 1.863c2.733 1.588 4.938 4.08 4.938 7.459 0 5.06-4.117 8.691-9.197 8.691H24V33.992c-2.925-1.7-6-3.992-6-9.148M27.904 18C23.902 18 21 20.939 21 24.844S23.902 32 27.904 32h3.41l-1.896 9.6 11.37-11.559C42.113 28.811 43 26.95 43 24.844c0-3.965-3.005-6.887-6.904-6.844Z" style="opacity:.2"/><path d="M18 23.844c0-5.4 4.375-9.844 9.904-9.844h8.192C41.566 14 46 18.395 46 23.844a9.84 9.84 0 0 1-3.084 7.143l-1.877 1.863c2.733 1.588 4.938 4.08 4.938 7.459 0 5.06-4.117 8.691-9.197 8.691H24V32.992c-2.925-1.7-6-3.992-6-9.148M27.904 17C23.902 17 21 19.939 21 23.844S23.902 31 27.904 31h3.41l-1.896 9.6 11.37-11.559C42.113 27.811 43 25.95 43 23.844c0-3.965-3.005-6.887-6.904-6.844Z" style="fill:#fff"/><path d="M16.6 4C9.62 4 4 9.62 4 16.6v1C4 10.62 9.62 5 16.6 5h30.8C54.38 5 60 10.62 60 17.6v-1C60 9.62 54.38 4 47.4 4z" style="fill:#fff;opacity:.1"/></svg>