<svg xmlns="http://www.w3.org/2000/svg" width="64" height="64"><rect width="59" height="50" x="3" y="5" rx="2.81" ry="2.778" style="opacity:.2"/><rect width="59" height="50" x="3" y="4" rx="2.81" ry="2.778" style="fill:#2f8c9f"/><path d="M51 8h8l-2 3.5-2 3.5-2-3.5Z" style="opacity:.2"/><path d="M51 7h8l-2 3.5-2 3.5-2-3.5Z" style="fill:#70cbde"/><path d="M3 16v35.223C3 52.762 4.252 54 5.809 54H59.19c1.558 0 2.81-1.238 2.81-2.777V16z" style="opacity:.3"/><path d="M24 20v28h4.47l.982-2.546h.39q.864.983 2.197 1.783 1.372.764 3.724.763 3.688 0 5.963-2.62Q44 42.763 44 37.672c0-3.37-.745-6.334-2.235-8.055q-2.234-2.62-5.843-2.62-2.314.001-3.766.875-1.451.837-2.313 2.073h-.235q.078-.62.157-1.712.078-1.09.078-2.217V20Zm10.032 11.1q1.928.001 3.035 1.586c.766 1.03 1.147 2.676 1.147 4.737s-.37 3.845-1.107 4.953Q35.999 44 34.113 44c-1.695 0-2.671-.542-3.327-1.624-.63-1.108-.943-2.879-.943-4.914v-.618c.027-1.881.37-3.386 1.026-4.314.657-.953 1.577-1.43 3.163-1.43" style="opacity:.2"/><path d="M24 19v28h4.47l.982-2.546h.39q.864.983 2.197 1.783 1.372.764 3.724.763 3.688 0 5.963-2.62Q44 41.763 44 36.672c0-3.37-.745-6.334-2.235-8.055q-2.234-2.62-5.843-2.62-2.314.001-3.766.875-1.451.837-2.313 2.073h-.235q.078-.62.157-1.712.078-1.09.078-2.217V19Zm10.032 11.1q1.928.001 3.035 1.586c.766 1.03 1.147 2.676 1.147 4.737s-.37 3.845-1.107 4.953Q35.999 43 34.113 43c-1.695 0-2.671-.542-3.327-1.624-.63-1.108-.943-2.879-.943-4.914v-.618c.027-1.881.37-3.386 1.026-4.314.657-.953 1.577-1.43 3.163-1.43" style="fill:#fff"/><circle cx="32.5" cy="55.5" r="5.5" style="opacity:.2"/><circle cx="32.5" cy="54.5" r="5.5" style="fill:#3eb1c9"/><circle cx="9" cy="10" r="4" style="fill:#3f3f3f"/><circle cx="9" cy="10" r="3" style="fill:#70cbde"/><path d="M5.809 4C4.252 4 3 5.238 3 6.777v1C3 6.238 4.252 5 5.809 5H59.19C60.748 5 62 6.238 62 7.777v-1C62 5.238 60.748 4 59.191 4z" style="fill:#fff;opacity:.1"/><path d="m51 7 .572 1h6.856L59 7zM32.5 49a5.5 5.5 0 0 0-5.5 5.5 6 6 0 0 0 .025.486A5.5 5.5 0 0 1 32.5 50a5.5 5.5 0 0 1 5.475 5.014A6 6 0 0 0 38 54.5a5.5 5.5 0 0 0-5.5-5.5" style="fill:#fff;opacity:.2"/></svg>