<svg xmlns="http://www.w3.org/2000/svg" width="64" height="64"><circle cx="32" cy="33" r="28" style="opacity:.2"/><circle cx="32" cy="32" r="28" style="fill:#cec7c7"/><path d="M32 11c.29 0 .578.016.867.028A15 15 0 0 0 32 11m.867.028c7.61.449 13.644 6.761 13.644 14.483 0 5.808-3.542 12.026-10.16 11.49-5.56-.566-7.038-2.751-7.351-5.589-.303-2.74 2.078-5.408 6.363-5.412 2.774-.004 5.38 1.437 4.74 3.719 3.971-4.017-2.77-10.55-9.38-10.67-2.593-.046-5.167.955-7.065 3.291 1.563-1.092 2.817-1.48 4.38-1.528-.799.38-1.925.86-2.618 1.899 1.264-.785 2.668-1.105 4.364-.935-4.884 1.035-8.318 7.324-7.869 14.163A14.46 14.46 0 0 1 17.49 25.51c0-7.763 6.098-14.103 13.764-14.492a22 22 0 0 0-7.313 1.507 22.06 22.06 0 0 0-9.086 6.69q-.05 4.365 1.128 9.343c-1.213-2.608-2.094-5.215-2.248-7.823a21.9 21.9 0 0 0-3.12 7.087 19.5 19.5 0 0 0 3.491 5.991q-1.94-1.216-3.88-3.958a22.2 22.2 0 0 0 .08 6.81c1.581 1.592 3.16 2.613 4.74 3.467q-1.926.142-4.147-.888c2.258 7.636 8.647 13.548 16.37 15.243 1.297-1.363 1.839-2.926 2.986-4.918.064 1.232-.583 3.148-1.482 5.194a22.2 22.2 0 0 0 6.456 0c-.9-2.046-1.546-3.962-1.482-5.194 1.147 1.992 1.69 3.553 2.986 4.918 7.727-1.7 14.112-7.603 16.37-15.243q-2.221 1.03-4.147.888c1.58-.854 3.159-1.875 4.74-3.467.377-2.252.405-4.55.08-6.81q-1.94 2.741-3.88 3.958a19.4 19.4 0 0 0 3.491-5.991 21.8 21.8 0 0 0-3.12-7.09c-.154 2.608-1.035 5.218-2.248 7.826q1.177-4.98 1.128-9.343a22.03 22.03 0 0 0-11.56-7.498v-.003a22 22 0 0 0-4.719-.687m.723 10.41c1.71.643 3.269.18 2.535 1.184-.922-.276-1.75-.699-2.535-1.184" style="opacity:.1"/><path d="M32 10c.29 0 .578.016.867.027A15 15 0 0 0 32 10m.867.027c7.61.45 13.644 6.762 13.644 14.483 0 5.809-3.542 12.027-10.16 11.49-5.56-.566-7.038-2.75-7.351-5.588-.303-2.74 2.078-5.408 6.363-5.412 2.774-.004 5.38 1.436 4.74 3.719 3.971-4.017-2.77-10.55-9.38-10.67-2.593-.046-5.167.955-7.065 3.29 1.563-1.091 2.817-1.48 4.38-1.527-.799.379-1.925.86-2.618 1.898 1.264-.784 2.668-1.104 4.364-.934-4.884 1.034-8.318 7.323-7.869 14.162A14.46 14.46 0 0 1 17.49 24.51c0-7.762 6.098-14.102 13.764-14.49a22 22 0 0 0-7.313 1.506 22.06 22.06 0 0 0-9.086 6.69q-.05 4.363 1.128 9.342c-1.213-2.608-2.094-5.214-2.248-7.823a21.9 21.9 0 0 0-3.12 7.088 19.5 19.5 0 0 0 3.491 5.991q-1.94-1.216-3.88-3.958a22.2 22.2 0 0 0 .08 6.81c1.581 1.592 3.16 2.613 4.74 3.467q-1.926.141-4.147-.889c2.258 7.636 8.647 13.549 16.37 15.243 1.297-1.362 1.839-2.925 2.986-4.917.064 1.232-.583 3.147-1.482 5.194a22.2 22.2 0 0 0 6.456 0c-.9-2.047-1.546-3.962-1.482-5.194 1.147 1.992 1.69 3.553 2.986 4.917 7.727-1.7 14.112-7.603 16.37-15.243q-2.221 1.03-4.147.89c1.58-.855 3.159-1.876 4.74-3.468.377-2.252.405-4.55.08-6.81q-1.94 2.741-3.88 3.958a19.4 19.4 0 0 0 3.491-5.991 21.8 21.8 0 0 0-3.12-7.09c-.154 2.608-1.035 5.217-2.248 7.825q1.177-4.978 1.128-9.343a22.03 22.03 0 0 0-11.56-7.498v-.002a22 22 0 0 0-4.719-.688m.723 10.41c1.71.644 3.269.18 2.535 1.185-.922-.277-1.75-.699-2.535-1.185" style="fill:#ff5e00"/><path d="M32 4A28 28 0 0 0 4 32a28 28 0 0 0 .033.482A28 28 0 0 1 32 5a28 28 0 0 1 27.982 27.242L60 32A28 28 0 0 0 32 4" style="opacity:.2;fill:#fff"/></svg>