<svg xmlns="http://www.w3.org/2000/svg" width="64" height="64"><rect width="56" height="56" x="4" y="5" rx="2.8" ry="2.8" style="opacity:.2"/><rect width="56" height="56" x="4" y="4" rx="2.8" ry="2.8" style="fill:#4f4f4f"/><path d="M6 23v22h22l1-4h6l1 4h6l-2-7.332-.184-.668L36 23h-8l-4.016 14.723A4.983 4.983 0 0 0 19 33c2.77 0 5-2.23 5-5s-2.23-5-5-5H8Zm32 0 6 22h2v-8h2l2 8h8l-4-8c2.03-.96 4-3.597 4-6v-2c0-3.324-2.676-6-6-6h-6zm-26 4h4c1.108 0 2 .892 2 2s-.892 2-2 2h-4zm34 2h4c1.108 0 2 .892 2 2s-.892 2-2 2h-4zm-14 2 2 6h-4zm-20 6h4c1.108 0 2 .892 2 2s-.892 2-2 2h-4z" style="opacity:.2"/><path d="M6 22v22h22l1-4h6l1 4h6l-2-7.332-.184-.668L36 22h-8l-4.016 14.723A4.983 4.983 0 0 0 19 32c2.77 0 5-2.23 5-5s-2.23-5-5-5H8Zm32 0 6 22h2v-8h2l2 8h8l-4-8c2.03-.96 4-3.597 4-6v-2c0-3.324-2.676-6-6-6h-6zm-26 4h4c1.108 0 2 .892 2 2s-.892 2-2 2h-4zm34 2h4c1.108 0 2 .892 2 2s-.892 2-2 2h-4zm-14 2 2 6h-4zm-20 6h4c1.108 0 2 .892 2 2s-.892 2-2 2h-4z" style="fill:#e4e4e4"/><path d="M6.8 4C5.25 4 4 5.25 4 6.8v1C4 6.25 5.25 5 6.8 5h50.4C58.75 5 60 6.25 60 7.8v-1C60 5.25 58.75 4 57.2 4z" style="fill:#fff;opacity:.1"/></svg>