<svg xmlns="http://www.w3.org/2000/svg" width="64" height="64"><circle cx="32" cy="33" r="28" style="opacity:.2"/><circle cx="32" cy="32" r="28" style="fill:#5caafd"/><path d="M36.69 13c-1.892.003-4.108.52-6.482 2.031-4.748 3.025-7.42 6.397-8.337 9.721-.513 1.859-1.166 5.56 1.88 7.512 3.047 1.952 6.467-1.07 7.643-2.252s3.78-5.526 4.777-6.88c.996-1.355 2.662-2.98 3.331-3 .908-.028 1.598 1.29 2.104 6.063 1.174.283 2.723 1.097 2.723 1.097s.532-2.351.818-5.263c.404-4.197-1.276-6.677-3.918-7.988A10.25 10.25 0 0 0 36.69 13M20.066 27.289s-2.324.72-5.017 1.93c-3.048 1.27-5.211 4.433-5.04 7.35.14 2.383 1.356 6.387 6.379 8.94s10.722 2.632 12.684 2.28c2.512-.45 5.455-1.782 5.642-5.366.187-3.585-4.174-5.003-5.798-5.419s-6.728-.474-8.412-.65-3.894-.479-4.295-1.353c-.32-.7.334-2.01 4.261-4.83-.34-1.147-.404-2.882-.404-2.882m20.354.008c-.726.01-1.496.186-2.304.594-3.234 1.633-2.296 6.075-1.848 7.674.447 1.598 2.948 5.997 3.636 7.528s1.485 3.515.963 4.352c-.409.655-1.928.72-6.362-1.233-.835.864-2.322 1.786-2.322 1.786s1.792 1.631 4.2 3.331c2.585 1.934 6.487 2.245 8.956.64 2.017-1.312 4.918-4.354 4.643-9.931s-2.969-10.574-4.347-11.998c-1.248-1.29-3.035-2.771-5.215-2.743" style="opacity:.1"/><path d="M36.69 12c-1.892.003-4.108.52-6.482 2.031-4.748 3.025-7.42 6.397-8.337 9.721-.513 1.859-1.166 5.56 1.88 7.512 3.047 1.952 6.467-1.07 7.643-2.252s3.78-5.526 4.777-6.88c.996-1.355 2.662-2.98 3.331-3 .908-.028 1.598 1.29 2.104 6.063 1.174.283 2.723 1.097 2.723 1.097s.532-2.351.818-5.263c.404-4.197-1.276-6.677-3.918-7.988A10.25 10.25 0 0 0 36.69 12M20.066 26.289s-2.324.72-5.017 1.93c-3.048 1.27-5.211 4.433-5.04 7.35.14 2.383 1.356 6.387 6.379 8.94s10.722 2.632 12.684 2.28c2.512-.45 5.455-1.782 5.642-5.366.187-3.585-4.174-5.003-5.798-5.419s-6.728-.474-8.412-.65-3.894-.479-4.295-1.353c-.32-.7.334-2.01 4.261-4.83-.34-1.147-.404-2.882-.404-2.882m20.354.008c-.726.01-1.496.186-2.304.594-3.234 1.633-2.296 6.075-1.848 7.674.447 1.598 2.948 5.997 3.636 7.528s1.485 3.515.963 4.352c-.409.655-1.928.72-6.362-1.233-.835.864-2.322 1.786-2.322 1.786s1.792 1.631 4.2 3.331c2.585 1.934 6.487 2.245 8.956.64 2.017-1.312 4.918-4.354 4.643-9.931s-2.969-10.574-4.347-11.998c-1.248-1.29-3.035-2.771-5.215-2.743" style="fill:#3f51b5"/><path d="M32 4A28 28 0 0 0 4 32a28 28 0 0 0 .033.482A28 28 0 0 1 32 5a28 28 0 0 1 27.982 27.242L60 32A28 28 0 0 0 32 4" style="opacity:.2;fill:#fff"/></svg>