<svg xmlns="http://www.w3.org/2000/svg" width="64" height="64"><path d="M19 15h26v14H19z" style="fill:#4d4d4d"/><path d="M20 27h24v29H20z" style="fill:#25257e"/><path d="M17 16h4v40h-4z" style="fill:#3455b3"/><rect width="6" height="9" x="29" y="4" ry="3" style="fill:#f6e036"/><path d="M43 16h4v40h-4zm-25-2v-3s2 0 2-2h24c0 2 2 2 2 2v3z" style="fill:#3455b3"/><path d="M16.4 13c-.775 0-1.4.625-1.4 1.4v3.2c0 .775.625 1.4 1.4 1.4h31.2c.775 0 1.4-.625 1.4-1.4v-3.2c0-.775-.625-1.4-1.4-1.4zm0 42c-.775 0-1.4.625-1.4 1.4v3.2c0 .775.625 1.4 1.4 1.4h31.2c.775 0 1.4-.625 1.4-1.4v-3.2c0-.775-.625-1.4-1.4-1.4z" style="opacity:.2"/><rect width="34" height="6" x="15" y="12" ry="1.4" style="fill:#01a7f1"/><rect width="34" height="6" x="15" y="54" ry="1.4" style="fill:#01a7f1"/><path d="M22 20v3h3v-3zm4 0v3h3v-3zm4 0v3h4v-3zm5 0v3h3v-3zm4 0v3h3v-3zm-17 4v3h3v-3zm4 0v3h3v-3zm4 0v3h4v-3zm5 0v3h3v-3zm4 0v3h3v-3zm-12.6 8c-.775 0-1.4.625-1.4 1.4v2.2c0 .775.625 1.4 1.4 1.4h2.2c.775 0 1.4-.625 1.4-1.4v-2.2c0-.775-.625-1.4-1.4-1.4zm9 0c-.775 0-1.4.625-1.4 1.4v2.2c0 .775.625 1.4 1.4 1.4h2.2c.775 0 1.4-.625 1.4-1.4v-2.2c0-.775-.625-1.4-1.4-1.4zm-9 7c-.775 0-1.4.625-1.4 1.4v2.2c0 .775.625 1.4 1.4 1.4h2.2c.775 0 1.4-.625 1.4-1.4v-2.2c0-.775-.625-1.4-1.4-1.4zm9 0c-.775 0-1.4.625-1.4 1.4v2.2c0 .775.625 1.4 1.4 1.4h2.2c.775 0 1.4-.625 1.4-1.4v-2.2c0-.775-.625-1.4-1.4-1.4zm-9 7c-.775 0-1.4.625-1.4 1.4v2.2c0 .775.625 1.4 1.4 1.4h2.2c.775 0 1.4-.625 1.4-1.4v-2.2c0-.775-.625-1.4-1.4-1.4zm9 0c-.775 0-1.4.625-1.4 1.4v2.2c0 .775.625 1.4 1.4 1.4h2.2c.775 0 1.4-.625 1.4-1.4v-2.2c0-.775-.625-1.4-1.4-1.4z" style="opacity:.2"/><rect width="5" height="5" x="25" y="31" ry="1.4" style="fill:#fff"/><path d="M22 19v3h3v-3zm4 0v3h3v-3zm4 0v3h4v-3zm5 0v3h3v-3zm4 0v3h3v-3zm-17 4v3h3v-3zm4 0v3h3v-3zm4 0v3h4v-3zm5 0v3h3v-3zm4 0v3h3v-3z" style="fill:#f6e036"/><rect width="5" height="5" x="34" y="31" ry="1.4" style="fill:#01a7f1"/><rect width="5" height="5" x="25" y="38" ry="1.4" style="fill:#01a7f1"/><rect width="5" height="5" x="34" y="38" ry="1.4" style="fill:#01a7f1"/><rect width="5" height="5" x="25" y="45" ry="1.4" style="fill:#01a7f1"/><rect width="5" height="5" x="34" y="45" ry="1.4" style="fill:#01a7f1"/><path d="M16.4 12c-.775 0-1.4.625-1.4 1.4v1c0-.775.625-1.4 1.4-1.4h31.2c.775 0 1.4.625 1.4 1.4v-1c0-.775-.625-1.4-1.4-1.4zm0 42c-.775 0-1.4.625-1.4 1.4v1c0-.775.625-1.4 1.4-1.4h31.2c.775 0 1.4.625 1.4 1.4v-1c0-.775-.625-1.4-1.4-1.4zM32 4c-1.662 0-3 1.338-3 3v1c0-1.662 1.338-3 3-3s3 1.338 3 3V7c0-1.662-1.338-3-3-3" style="fill:#fff;opacity:.2"/><path d="M20 9c0 2-2 2-2 2v1s2 0 2-2h24c0 2 2 2 2 2v-1s-2 0-2-2z" style="fill:#fff;opacity:.1"/></svg>