<svg xmlns="http://www.w3.org/2000/svg" width="64" height="64"><path d="M17.041 5c-4.201 3.255-7.082 7.23-7.727 12.6-.201 1.026-.31 1.922-.314 2.74-.003 1.578.369 3.948 1.043 5.658h.062c.906 2.936 2.437 5.66 4.45 8.004L10.873 34c-4.699-.004-6.278 2.16-3.506 4.813l21.145 20.232c2.77 2.653 7.198 2.6 9.84-.115L57.75 38.992c2.641-2.715.958-4.946-3.74-4.946l-3.541-.004c2.067-2.356 3.648-5.095 4.58-8.05h.125c.648-2.108.826-3.205.826-5.371 0-.13-.007-.32-.01-.48 0-.069.006-.136.006-.204h.002c0-6.409-3.783-11.223-8.547-14.926-10.546 0-19.562-.008-30.41-.012" style="opacity:.2"/><path d="m23.898 33.015 17.084.018 13.027.014c4.699 0 6.382 2.23 3.74 4.945L38.353 57.929c-2.642 2.715-7.07 2.768-9.84.115L7.367 37.813C4.595 35.16 6.174 32.996 10.873 33z" style="fill:#3b85df"/><path d="M55.997 18.937c0 11.974-10.925 22.384-23.549 22.384-12.621 0-23.272-10.407-23.272-22.384 0-6.581 3.078-11.225 7.866-14.937 10.848.003 19.863.01 30.41.01 4.763 3.704 8.547 8.518 8.547 14.927Z" style="fill:#3b85df"/><path d="M27.938 14c-1.904.003-3.837 2.637-3.938 4.928v2.882c0 3.303 1.77 5.21 3.938 5.19H38.7c.534.003 1.275-.434 1.274-1.3L40 15.264c-.003-.812-.808-1.233-1.299-1.257-3.757.027-7.245-.006-10.763-.008M9.945 15c-.65 2.29-.937 3.905-.945 5.342-.003 1.577.369 3.948 1.043 5.658h12.228s-.719-.74-1.01-2.135c-.29-1.395-.282-4.64-.025-6.143.257-1.5 1.035-2.708 1.035-2.708zm45.229 0c-1.828.003-9.786.038-10.977.035h-.004c-.443.057-1.024.302-1.185 1.059-.016 2.71-.003 6.07-.008 8.78.077.81.693 1.033 1.129 1.106 3.954.002 7.362.034 11.045.012.648-2.107.826-3.205.826-5.371-.002-1.052-.039-3.18-.826-5.621m-26.22 2c1.993-.005 4.074.013 6.093.02.405 0 .953-.025.953 1.015v.97c-.579-.002-1.18-.006-1.617-.011-.621.038-1.266-.101-1.865.086-.377.242-.52.802-.518 1.437-.001.949.581 1.497.986 1.483l2.102-.002.912.004v1.015c0 .996-.764.983-.764.983h-6.283c-.433 0-.954-.524-.953-1.57.002-1.944.002-2.202 0-4.075-.001-.833.536-1.354.953-1.355M47.5 19a1.5 1.5 0 0 1 1.5 1.5 1.5 1.5 0 0 1-1.5 1.5 1.5 1.5 0 0 1-1.5-1.5 1.5 1.5 0 0 1 1.5-1.5m5 0a1.5 1.5 0 0 1 1.5 1.5 1.5 1.5 0 0 1-1.5 1.5 1.5 1.5 0 0 1-1.5-1.5 1.5 1.5 0 0 1 1.5-1.5" style="opacity:.2"/><path d="M27.938 13c-1.904.003-3.837 2.637-3.938 4.928v2.883c0 3.302 1.77 5.21 3.938 5.189H38.7c.534.003 1.275-.434 1.274-1.3L40 14.265c-.003-.813-.808-1.234-1.299-1.258-3.757.027-7.245-.005-10.763-.008M9.945 14c-.65 2.29-.937 3.905-.945 5.342-.003 1.577.369 3.948 1.043 5.658h12.228s-.719-.74-1.01-2.135c-.29-1.395-.282-4.64-.025-6.142.257-1.5 1.035-2.71 1.035-2.71zm45.229 0c-1.828.004-9.786.038-10.977.035h-.004c-.443.057-1.024.302-1.185 1.059-.016 2.71-.003 6.07-.008 8.781.077.81.693 1.033 1.129 1.105 3.954.002 7.362.034 11.045.012.648-2.107.826-3.205.826-5.37-.002-1.052-.039-3.18-.826-5.622m-26.22 2c1.993-.005 4.074.013 6.093.02.405 0 .953-.025.953 1.015v.97c-.579-.002-1.18-.006-1.617-.01-.621.038-1.266-.102-1.865.085-.377.242-.52.803-.518 1.438-.001.948.581 1.496.986 1.482l2.102-.002c.258.002.58.004.912.004v1.016c0 .996-.764.982-.764.982h-6.283c-.433 0-.954-.524-.953-1.57.002-1.944.002-2.202 0-4.075-.001-.833.536-1.354.953-1.355M47.5 18a1.5 1.5 0 0 1 1.5 1.5 1.5 1.5 0 0 1-1.5 1.5 1.5 1.5 0 0 1-1.5-1.5 1.5 1.5 0 0 1 1.5-1.5m5 0a1.5 1.5 0 0 1 1.5 1.5 1.5 1.5 0 0 1-1.5 1.5 1.5 1.5 0 0 1-1.5-1.5 1.5 1.5 0 0 1 1.5-1.5" style="fill:#fff"/><path d="M17.041 4c-4.788 3.712-7.865 8.357-7.865 14.938 0 .182.009.364.013.546.14-6.34 3.176-10.86 7.852-14.484 10.848.003 19.864.012 30.41.012 4.652 3.615 8.358 8.294 8.531 14.478.006-.184.014-.367.014-.552h.002c0-6.409-3.783-11.223-8.547-14.926-10.546 0-19.562-.009-30.41-.012m-6.168 29c-3.505-.003-5.273 1.201-4.795 2.914.348-1.162 2.024-1.917 4.795-1.914l3.682.004c-.277-.323-.53-.664-.79-1zm40.42.043q-.399.511-.824 1l3.54.004c2.844 0 4.574.82 4.919 2.066.456-1.793-1.369-3.066-4.918-3.066z" style="fill:#fff;opacity:.2"/></svg>