<svg xmlns="http://www.w3.org/2000/svg" width="64" height="64"><circle cx="11.213" cy="44.579" r="28" style="opacity:.2" transform="rotate(-30)"/><circle cx="11.713" cy="43.713" r="28" style="fill:#e4e4e4" transform="rotate(-30)"/><path d="m32.437 34 1.903-1.097-6.106-10.558L25 24.21l1.033 1.785 1.33-.767zm4.679-9.478.315-.182c1.26-.726 2.48-.496 3.1.576.586 1.014.314 2.161-.644 2.714-.916.528-1.96.272-2.668-.654l-1.917 1.106c1.263 1.92 3.575 2.454 5.607 1.282 2.046-1.18 2.681-3.545 1.5-5.588-.768-1.329-1.855-1.921-3.224-1.78.36-.798.31-1.512-.162-2.326-.942-1.629-2.86-2.142-4.492-1.202-.83.479-1.398 1.244-1.597 2.121-.163.742-.07 1.298.354 2.196l1.932-1.113c-.294-.707-.182-1.172.334-1.469.543-.313 1.17-.122 1.508.464.256.443.232.895-.07 1.297-.185.24-.427.418-.933.729z" style="font-size:13.17357063px;line-height:1.25;letter-spacing:0;word-spacing:0;opacity:.1"/><path d="M31.34 4.008A28 28 0 0 0 18 7.752 28 28 0 0 0 4.027 32.926 28 28 0 0 1 18 8.752 28 28 0 0 1 56.248 19a28 28 0 0 1 3.725 13.074A28 28 0 0 0 56.248 18 28 28 0 0 0 31.34 4.008" style="fill:#fff;opacity:.2"/><path d="M42.885 6.23c-7.824 2.677-15.566 5.67-21.008 8.614-.794.43-1.628.903-2.496 1.408-4.394 2.559-9.623 6-14.625 9.437l-.014.061q-.28 1.216-.449 2.445l-.041.319q-.14 1.101-.193 2.207a28 28 0 0 0-.024.91c-.008.578-.004 1.154.024 1.73a28 28 0 0 0 .113 1.543q.056.537.133 1.073a28 28 0 0 0 .306 1.74q.088.432.19.861a28 28 0 0 0 .535 1.91c.069.218.135.437.209.653a28 28 0 0 0 .82 2.088c.058.131.109.265.168.396A28 28 0 0 0 7.752 46a28 28 0 0 0 1.037 1.656l.027.041a28 28 0 0 0 7.73 7.639c4.07-4.224 9.92-9.324 17.49-13.41 7.214-3.895 16.83-7.074 25.929-9.526a28 28 0 0 0-2.285-11.517q-.17-.39-.348-.77A28 28 0 0 0 56.248 18a28 28 0 0 0-1.154-1.818 28 28 0 0 0-1.467-1.953c-.237-.288-.496-.555-.744-.833a28 28 0 0 0-.928-1.007 28 28 0 0 0-1.008-.963 28 28 0 0 0-.777-.69 28 28 0 0 0-1.207-.98 28 28 0 0 0-.631-.457 28 28 0 0 0-5.447-3.069m-8.68 6.774a12.5 12.5 0 0 1 11.121 6.246 12.5 12.5 0 0 1-4.576 17.076 12.5 12.5 0 0 1-17.076-4.576 12.5 12.5 0 0 1 4.576-17.076 12.5 12.5 0 0 1 5.955-1.67" style="fill:#ffa81f"/><path d="M42.885 6.23c-7.824 2.677-15.566 5.67-21.008 8.614-.794.43-1.628.903-2.496 1.408-4.394 2.559-9.623 6-14.625 9.437l-.014.061q-.28 1.216-.449 2.445l-.041.319q-.14 1.101-.193 2.207a28 28 0 0 0-.024.91c-.003.219.009.437.01.656a28 28 0 0 1 .014-.566q.052-1.106.193-2.207l.041-.319q.17-1.228.45-2.445l.013-.06c5.002-3.439 10.231-6.879 14.625-9.438a92 92 0 0 1 2.496-1.408C27.319 12.9 35.061 9.907 42.885 7.23a28 28 0 0 1 5.447 3.069 28 28 0 0 1 .63.457c.414.314.813.644 1.208.98a28 28 0 0 1 .777.69c.343.314.682.631 1.008.963a28 28 0 0 1 .928 1.007c.248.278.507.545.744.833a28 28 0 0 1 1.467 1.953q.61.884 1.154 1.818a28 28 0 0 1 1.084 2.113q.178.38.348.77a28 28 0 0 1 2.25 10.527l.035-.01a28 28 0 0 0-2.285-11.517q-.17-.39-.348-.77A28 28 0 0 0 56.248 18a28 28 0 0 0-1.154-1.818 28 28 0 0 0-1.467-1.953c-.237-.288-.496-.555-.744-.833a28 28 0 0 0-.928-1.007 28 28 0 0 0-1.008-.963 28 28 0 0 0-.777-.69 28 28 0 0 0-1.207-.98 28 28 0 0 0-.631-.457 28 28 0 0 0-5.447-3.069m4.094 19.71a12.5 12.5 0 0 1-6.229 10.386 12.5 12.5 0 0 1-17.076-4.576 12.5 12.5 0 0 1-1.653-5.69 12.5 12.5 0 0 0 1.653 6.69 12.5 12.5 0 0 0 17.076 4.576 12.5 12.5 0 0 0 6.229-11.387" style="opacity:.1"/><g style="font-size:13.17357063px;line-height:1.25;letter-spacing:0;word-spacing:0;fill:#3f3f3f"><path d="M8.145 34.322h1.753v-9.735H6.92v1.647h1.225zm7.016-4.69h.29c1.16 0 1.91.646 1.91 1.634 0 .935-.646 1.62-1.528 1.62-.843 0-1.462-.593-1.581-1.515h-1.765c.105 1.831 1.488 3.122 3.359 3.122 1.884 0 3.267-1.383 3.267-3.267 0-1.225-.514-2.068-1.515-2.516.567-.408.817-.922.817-1.673 0-1.502-1.12-2.621-2.622-2.621-.764 0-1.462.303-1.95.83-.408.447-.566.869-.632 1.66h1.779c.079-.607.342-.883.816-.883.501 0 .857.382.857.922 0 .408-.198.711-.567.87-.224.092-.46.118-.935.131z" style="fill:#3f3f3f" transform="matrix(1.08629 -.62611 .62717 1.08446 2.062 .879)"/></g></svg>