<svg xmlns="http://www.w3.org/2000/svg" width="64" height="64"><rect width="56" height="56" x="4" y="5" rx="2.8" ry="2.8" style="opacity:.2"/><rect width="56" height="56" x="4" y="4" rx="2.8" ry="2.8" style="fill:#38bdec"/><g style="opacity:.2"><path d="M32.967 26.4v7.744a5.6 5.6 0 0 1 2.787 1.16l5.474-5.475a13.32 13.32 0 0 0-8.26-3.429m-1.334.01a13.32 13.32 0 0 0-8.26 3.419l5.468 5.469a5.6 5.6 0 0 1 2.792-1.152zm-9.204 4.362a13.32 13.32 0 0 0-3.43 8.26h7.744a5.6 5.6 0 0 1 1.16-2.786zm19.742 0-5.469 5.469a5.6 5.6 0 0 1 1.152 2.792h7.735a13.32 13.32 0 0 0-3.418-8.26m-23.16 9.595a13.32 13.32 0 0 0 3.418 8.26l5.469-5.468a5.6 5.6 0 0 1-1.152-2.792Zm18.845 0a5.6 5.6 0 0 1-1.16 2.786l5.475 5.475a13.32 13.32 0 0 0 3.429-8.26Zm-9.01 3.73-5.474 5.474A13.32 13.32 0 0 0 31.632 53v-7.744a5.6 5.6 0 0 1-2.786-1.16m6.913.005a5.6 5.6 0 0 1-2.792 1.151v7.736a13.32 13.32 0 0 0 8.26-3.418z"/><path d="M19 12.4v13.021l9.841 9.88a5.6 5.6 0 0 1 2.759-1.149V23.6Zm0 14.808 8.857 8.948L26 37.6 23.2 39H19z"/></g><path d="M24.977 19v5.531a4 4 0 0 1 1.99.828l3.91-3.91a9.52 9.52 0 0 0-5.9-2.449m-.954.008a9.52 9.52 0 0 0-5.9 2.441l3.906 3.906a4 4 0 0 1 1.994-.822zm-6.574 3.115a9.52 9.52 0 0 0-2.449 5.9h5.531a4 4 0 0 1 .828-1.99zm14.102 0-3.906 3.906a4 4 0 0 1 .822 1.994h5.525a9.52 9.52 0 0 0-2.441-5.9m-16.543 6.854a9.52 9.52 0 0 0 2.441 5.9l3.906-3.906a4 4 0 0 1-.822-1.994Zm13.46 0a4 4 0 0 1-.827 1.99l3.91 3.91a9.52 9.52 0 0 0 2.449-5.9Zm-6.435 2.664-3.91 3.91a9.52 9.52 0 0 0 5.9 2.449v-5.531a4 4 0 0 1-1.99-.828m4.938.004a4 4 0 0 1-1.994.822v5.525a9.52 9.52 0 0 0 5.9-2.441z" style="fill:#fff" transform="matrix(1.4 0 0 1.4 -2 -1.2)"/><path d="M15 9v9.3l7.03 7.057a4 4 0 0 1 1.97-.82V17Zm0 10.577 6.326 6.392L20 27l-2 1h-3z" style="fill:#fff" transform="matrix(1.4 0 0 1.4 -2 -1.2)"/><path d="M6.8 4C5.25 4 4 5.25 4 6.8v1C4 6.25 5.25 5 6.8 5h50.4C58.75 5 60 6.25 60 7.8v-1C60 5.25 58.75 4 57.2 4z" style="fill:#fff;opacity:.2"/></svg>