<svg xmlns="http://www.w3.org/2000/svg" xmlns:xlink="http://www.w3.org/1999/xlink" width="64" height="64"><defs><filter id="c" width="1.299" height="1.254" x="-.149" y="-.127" style="color-interpolation-filters:sRGB"><feGaussianBlur stdDeviation="2.626"/></filter><filter id="d" width="1.14" height="1.119" x="-.07" y="-.059" style="color-interpolation-filters:sRGB"><feGaussianBlur stdDeviation=".894"/></filter><radialGradient xlink:href="#a" id="b" cx="31.968" cy="54.555" r="21.617" fx="31.968" fy="54.555" gradientTransform="matrix(2.2061 0 0 2.59537 -38.334 -84.179)" gradientUnits="userSpaceOnUse"/><linearGradient id="a"><stop offset="0" style="stop-color:#0063ff;stop-opacity:1"/><stop offset="1" style="stop-color:#00cdff;stop-opacity:1"/></linearGradient></defs><path d="M32 6.568s-5.854.004-11.32.055c-5.12.048-10.29 4.226-10.296 9.188-.002 1.667 0 3.664 0 6.06 0 15.365-.02 15.057 1.161 18.037 1.36 3.427 3.55 6.323 7.143 9.472 3.016 2.64 6.592 5.033 10.58 7.063 1.35.687 2.047 1 2.732.988.685.012 1.382-.301 2.731-.988 3.99-2.03 7.565-4.422 10.581-7.063 3.594-3.149 5.783-6.045 7.143-9.472 1.18-2.98 1.162-2.672 1.162-18.036V15.81c-.007-4.96-5.177-9.139-10.297-9.187C37.854 6.572 32 6.568 32 6.568" style="fill:url(#b);stroke-width:1.27157"/><path d="M32.015 13.957s-6.22.004-10.735.068c-2.535.035-5.325 2.072-5.343 4.5-.012 1.57-.01 3.756-.01 6.821 0 11.434-.013 11.205.866 13.422 1.011 2.55 2.64 4.706 5.315 7.05 2.245 1.965 4.906 3.745 7.874 5.256 1.004.511 1.523.744 2.033.735.51.009 1.028-.224 2.032-.735 2.969-1.511 5.63-3.291 7.875-5.257 2.674-2.343 4.303-4.498 5.315-7.049.879-2.217.865-1.988.865-13.422 0-3.065.003-5.252-.009-6.821-.018-2.428-2.809-4.465-5.344-4.5-4.515-.064-10.734-.068-10.734-.068m2.28 5.678h5.849a2.28 2.28 45 0 1 2.28 2.28v12.86s-.006.74-.466 1.901c-.646 1.629-1.542 2.915-3.777 4.872-1.209 1.058-2.642 2.06-4.209 2.999-1.065.637-1.957.097-1.957-1.144V21.916a2.28 2.28 135 0 1 2.28-2.28" style="opacity:1;fill:#fff;fill-opacity:1;stroke-width:.946296" transform="translate(1.29 -.097)scale(.95923)"/><path d="M32 6.568s-5.854.004-11.32.055c-5.12.048-10.29 4.226-10.296 9.188-.002 1.667 0 3.664 0 6.06 0 15.365-.02 15.057 1.161 18.037 1.36 3.427 3.55 6.323 7.143 9.472 3.016 2.64 6.592 5.033 10.58 7.063 1.35.687 2.047 1 2.732.988.685.012 1.382-.301 2.731-.988 3.99-2.03 7.565-4.422 10.581-7.063 3.594-3.149 5.783-6.045 7.143-9.472 1.18-2.98 1.162-2.672 1.162-18.036V15.81c-.007-4.96-5.177-9.139-10.297-9.187C37.854 6.572 32 6.568 32 6.568Z" style="fill:none;stroke-width:.3;stroke:#000;stroke-opacity:1;stroke-dasharray:none;filter:url(#c)"/><path d="M32.015 13.957s-6.22.004-10.735.068c-2.535.035-5.325 2.072-5.343 4.5-.012 1.57-.01 3.756-.01 6.821 0 11.434-.013 11.205.866 13.422 1.011 2.55 2.64 4.706 5.315 7.05 2.245 1.965 4.906 3.745 7.874 5.256 1.004.511 1.523.744 2.033.735.51.009 1.028-.224 2.032-.735 2.969-1.511 5.63-3.291 7.875-5.257 2.674-2.343 4.303-4.498 5.315-7.049.879-2.217.865-1.988.865-13.422 0-3.065.003-5.252-.009-6.821-.018-2.428-2.809-4.465-5.344-4.5-4.515-.064-10.734-.068-10.734-.068Zm2.28 5.678h5.849a2.28 2.28 45 0 1 2.28 2.28v12.86s-.006.74-.466 1.901c-.646 1.629-1.542 2.915-3.777 4.872-1.209 1.058-2.642 2.06-4.209 2.999-1.065.637-1.957.097-1.957-1.144V21.916a2.28 2.28 135 0 1 2.28-2.28z" style="fill:none;fill-opacity:1;stroke:#0800ff;stroke-width:.20850059;stroke-dasharray:none;stroke-opacity:1;filter:url(#d)" transform="translate(1.29 -.097)scale(.95923)"/></svg>