<svg xmlns="http://www.w3.org/2000/svg" width="64" height="64"><circle cx="32" cy="33" r="28" style="opacity:.2"/><circle cx="32" cy="32" r="28" style="fill:#f37b21"/><path d="M32 11c-12 0-22 9-22 22s9 22 22 22 21.8-9 21.8-22S44 11 32 11m0 2c11 0 20 9.175 20 20-.007 1.67 0 3-1 5l-8-8H24v12H14c-2-3-2-5-2-9 0-10.825 9-20 20-20" style="opacity:.2"/><path d="M32 10c-12 0-22 9-22 22s9 22 22 22 21.8-9 21.8-22S44 10 32 10m0 2c11 0 20 9.175 20 20-.007 1.67 0 3-1 5l-8-8H24v12H14c-2-3-2-5-2-9 0-10.825 9-20 20-20" style="fill:#fff"/><path d="M32 4A28 28 0 0 0 4 32a28 28 0 0 0 .021.586A28 28 0 0 1 32 5a28 28 0 0 1 27.979 27.414L60 32A28 28 0 0 0 32 4" style="opacity:.2;fill:#fff"/></svg>