<svg xmlns="http://www.w3.org/2000/svg" width="64" height="64"><circle cx="32" cy="33" r="28" style="opacity:.2"/><circle cx="32" cy="32" r="28" style="fill:#4f4f4f"/><path d="M32 4A28 28 0 0 0 4 32a28 28 0 0 0 .033.5A28 28 0 0 1 32 5a28 28 0 0 1 27.967 27.5A28 28 0 0 0 60 32 28 28 0 0 0 32 4" style="fill:#fff;opacity:.2"/><path d="m16 29 16 16 16-16-16-16-2.667 2.667L42.667 29 32 39.667 21.333 29l5.334-5.333L32 29l-2.667 2.667L32 34.333 37.333 29 26.667 18.333Z" style="opacity:.2"/><path d="m16 28 16 16 16-16-16-16-2.667 2.667L42.667 28 32 38.667 21.333 28l5.334-5.333L32 28l-2.667 2.667L32 33.333 37.333 28 26.667 17.333z" style="fill:#e4e4e4"/><path d="m32 12-2.666 2.666.5.5L32 13l15.5 15.5.5-.5Zm-5.334 5.334L16 28l.5.5 10.166-10.166L36.834 28.5l.5-.5zM21.834 28.5l-.5.5L32 39.666 42.666 29l-.5-.5L32 38.666Zm9.666 0-2.166 2.166.5.5L32 29Z" style="fill:#fff;opacity:.2"/><circle cx="18" cy="45" r="4" style="opacity:.2"/><circle cx="18" cy="44" r="4" style="fill:#e62d2d"/><path d="M18 40a4 4 0 0 0-4 4 4 4 0 0 0 .033.5A4 4 0 0 1 18 41a4 4 0 0 1 3.967 3.5A4 4 0 0 0 22 44a4 4 0 0 0-4-4" style="fill:#fff;opacity:.2"/><circle cx="46" cy="45" r="4" style="opacity:.2"/><circle cx="46" cy="44" r="4" style="fill:#e62d2d"/><path d="M46 40a4 4 0 0 0-4 4 4 4 0 0 0 .033.5A4 4 0 0 1 46 41a4 4 0 0 1 3.967 3.5A4 4 0 0 0 50 44a4 4 0 0 0-4-4" style="fill:#fff;opacity:.2"/></svg>