<svg xmlns="http://www.w3.org/2000/svg" width="64" height="64"><defs><filter id="d" width="1.419" height="1.559" x="-.21" y="-.279" style="color-interpolation-filters:sRGB"><feGaussianBlur stdDeviation="2.095"/></filter><filter id="c" width="1.279" height="1.335" x="-.14" y="-.168" style="color-interpolation-filters:sRGB"><feGaussianBlur stdDeviation="2.095"/></filter><filter id="b" width="1.21" height="1.279" x="-.105" y="-.14" style="color-interpolation-filters:sRGB"><feGaussianBlur stdDeviation="2.095"/></filter><filter id="a" width="1.087" height="1.116" x="-.043" y="-.058" style="color-interpolation-filters:sRGB"><feGaussianBlur stdDeviation="1.013"/></filter></defs><path d="M29 11.869v1.262a.87.87 135 0 1-.869.869H26.87a.87.87 135 0 0-.869.869v1.262a.87.87 135 0 1-.869.869H23.87a.87.87 135 0 0-.869.869v1.262a.87.87 135 0 1-.869.869H20.87a.87.87 135 0 0-.869.869v1.262a.87.87 135 0 1-.869.869H14.87a.87.87 135 0 0-.869.869v1.262a.87.87 135 0 1-.869.869H7.045A3.045 3.045 135 0 0 4 29.045v5.91A3.045 3.045 45 0 0 7.045 38h6.086a.87.87 45 0 1 .869.869v1.262a.87.87 45 0 0 .869.869h4.262a.87.87 45 0 1 .869.869v1.262a.87.87 45 0 0 .869.869h1.262a.87.87 45 0 1 .869.869v1.262a.87.87 45 0 0 .869.869h1.262a.87.87 45 0 1 .869.869v1.262a.87.87 45 0 0 .869.869h1.262a.87.87 45 0 1 .869.869v1.262a.87.87 45 0 0 .869.869H47.13a.87.87 135 0 0 .869-.869V50.87a.87.87 135 0 1 .869-.869h1.262a.87.87 135 0 0 .869-.869V47.87a.87.87 135 0 1 .869-.869h1.262a.87.87 135 0 0 .869-.869V44.87a.87.87 135 0 1 .869-.869h1.262a.87.87 135 0 0 .869-.869V41.87a.87.87 135 0 1 .869-.869h1.262a.87.87 135 0 0 .869-.869V23.87a.87.87 45 0 0-.869-.869h-1.26a.87.87 45 0 1-.869-.869V20.87a.87.87 45 0 0-.869-.869H54.87a.87.87 45 0 1-.869-.869V17.87a.87.87 45 0 0-.869-.869H51.87a.87.87 45 0 1-.869-.869V14.87a.87.87 45 0 0-.869-.869H48.87a.87.87 45 0 1-.869-.869V11.87a.87.87 45 0 0-.869-.869H29.87a.87.87 135 0 0-.869.869" style="fill:#000;fill-opacity:1;filter:url(#a);opacity:.54171308" transform="translate(0 .8)"/><path d="M29 11.869v1.262a.87.87 135 0 1-.869.869H26.87a.87.87 135 0 0-.869.869v1.262a.87.87 135 0 1-.869.869H23.87a.87.87 135 0 0-.869.869v1.262a.87.87 135 0 1-.869.869H20.87a.87.87 135 0 0-.869.869v1.262a.87.87 135 0 1-.869.869H14.87a.87.87 135 0 0-.869.869v1.262a.87.87 135 0 1-.869.869H7.045A3.045 3.045 135 0 0 4 29.045v5.91A3.045 3.045 45 0 0 7.045 38h6.086a.87.87 45 0 1 .869.869v1.262a.87.87 45 0 0 .869.869h4.262a.87.87 45 0 1 .869.869v1.262a.87.87 45 0 0 .869.869h1.262a.87.87 45 0 1 .869.869v1.262a.87.87 45 0 0 .869.869h1.262a.87.87 45 0 1 .869.869v1.262a.87.87 45 0 0 .869.869h1.262a.87.87 45 0 1 .869.869v1.262a.87.87 45 0 0 .869.869H47.13a.87.87 135 0 0 .869-.869V50.87a.87.87 135 0 1 .869-.869h1.262a.87.87 135 0 0 .869-.869V47.87a.87.87 135 0 1 .869-.869h1.262a.87.87 135 0 0 .869-.869V44.87a.87.87 135 0 1 .869-.869h1.262a.87.87 135 0 0 .869-.869V41.87a.87.87 135 0 1 .869-.869h.593A1.54 1.54 135 0 0 60 39.462V24.538A1.54 1.54 45 0 0 58.462 23h-.593a.87.87 45 0 1-.869-.869V20.87a.87.87 45 0 0-.869-.869H54.87a.87.87 45 0 1-.869-.869V17.87a.87.87 45 0 0-.869-.869H51.87a.87.87 45 0 1-.869-.869V14.87a.87.87 45 0 0-.869-.869H48.87a.87.87 45 0 1-.869-.869V11.87a.87.87 45 0 0-.869-.869H29.87a.87.87 135 0 0-.869.869" style="fill:#fff;fill-opacity:1"/><path d="M32 14.798v1.404a.8.8 135 0 1-.798.798h-1.404a.8.8 135 0 0-.798.798v1.404a.8.8 45 0 0 .798.798h1.404a.8.8 45 0 1 .798.798v1.404a.8.8 135 0 1-.798.798h-7.404a.8.8 135 0 0-.798.798v1.404a.8.8 135 0 1-.798.798h-4.404a.8.8 135 0 0-.798.798v1.404a.8.8 135 0 1-.798.798H8.798a.8.8 135 0 0-.798.798v4.404a.8.8 45 0 0 .798.798h7.404a.8.8 45 0 1 .798.798v1.404a.8.8 45 0 0 .798.798h4.404a.8.8 45 0 1 .798.798v1.404a.8.8 45 0 0 .798.798h7.404a.8.8 45 0 1 .798.798v1.404a.8.8 135 0 1-.798.798h-1.404a.8.8 135 0 0-.798.798v1.404a.8.8 45 0 0 .798.798h1.404a.8.8 45 0 1 .798.798v1.404a.8.8 45 0 0 .798.798h10.404a.8.8 135 0 0 .798-.798v-1.404a.8.8 135 0 1 .798-.798h1.404a.8.8 135 0 0 .798-.798v-1.404a.8.8 135 0 1 .798-.798h1.404a.8.8 135 0 0 .798-.798v-1.404a.8.8 135 0 1 .798-.798h1.404a.8.8 135 0 0 .798-.798v-1.404a.8.8 135 0 1 .798-.798h1.404a.8.8 135 0 0 .798-.798V26.798a.8.8 45 0 0-.798-.798h-1.404a.8.8 45 0 1-.798-.798v-1.404a.8.8 45 0 0-.798-.798h-1.404a.8.8 45 0 1-.798-.798v-1.404a.8.8 45 0 0-.798-.798h-1.404a.8.8 45 0 1-.798-.798v-1.404a.8.8 45 0 0-.798-.798h-1.404a.8.8 45 0 1-.798-.798v-1.404a.8.8 45 0 0-.798-.798H32.798a.8.8 135 0 0-.798.798" style="fill:#eb2d21;opacity:.75451435"/><path d="M32.061 14.74v1.522a.74.74 135 0 1-.739.739H29.8a.74.74 135 0 0-.739.739v1.522a.74.74 45 0 0 .74.739h1.521a.74.74 45 0 1 .74.739v1.522a.74.74 135 0 1-.74.739H23.8a.74.74 135 0 0-.739.739v1.522a.74.74 135 0 1-.739.739H17.8a.74.74 135 0 0-.739.739v1.522a.74.74 135 0 1-.739.739H8.8a.74.74 135 0 0-.739.739v4.522a.74.74 45 0 0 .74.739h7.521a.74.74 45 0 1 .74.739v1.522A.74.74 45 0 0 17.8 38h4.522a.74.74 45 0 1 .74.739v1.522A.74.74 45 0 0 23.8 41h7.522a.74.74 45 0 1 .74.739v1.522a.74.74 135 0 1-.74.739H29.8a.74.74 135 0 0-.739.739v1.522a.74.74 45 0 0 .74.739h1.521a.74.74 45 0 1 .74.739v1.522A.74.74 45 0 0 32.8 50h10.522a.74.74 135 0 0 .74-.74v-1.52A.74.74 135 0 1 44.8 47h1.522a.74.74 135 0 0 .74-.738V44.74A.74.74 135 0 1 47.8 44h1.522a.74.74 135 0 0 .74-.738V41.74A.74.74 135 0 1 50.8 41h1.522a.74.74 135 0 0 .74-.738V38.74A.74.74 135 0 1 53.8 38h1.522a.74.74 135 0 0 .74-.738V26.74a.74.74 45 0 0-.74-.74H53.8a.74.74 45 0 1-.739-.738V23.74a.74.74 45 0 0-.739-.74H50.8a.74.74 45 0 1-.739-.738V20.74a.74.74 45 0 0-.739-.74H47.8a.74.74 45 0 1-.739-.738V17.74a.74.74 45 0 0-.739-.74H44.8a.74.74 45 0 1-.739-.738V14.74a.74.74 45 0 0-.739-.74H32.8a.74.74 135 0 0-.739.74" style="fill:#ff0400;opacity:.33674455;fill-opacity:1;filter:url(#b)"/><path d="M31.517 17.563v3h3v3h-3v3h-9v3h-6v6h6v3h9v3h3v3h-3v3h12v-3h3v-3h3v-3h3v-12h-3v-3h-3v-3h-3v-3z" style="opacity:.336745;fill:#fff900;fill-opacity:1;filter:url(#c)"/><path d="M38 23.949v1.102a.95.95 135 0 1-.949.949H35.95a.95.95 135 0 0-.949.949v1.102a.95.95 135 0 1-.949.949H26.95a.95.95 135 0 0-.949.949v4.102a.95.95 45 0 0 .949.949h7.102a.95.95 45 0 1 .949.949v1.102a.95.95 45 0 0 .949.949h1.102a.95.95 45 0 1 .949.949v1.102a.95.95 45 0 0 .949.949h4.102a.95.95 135 0 0 .949-.949V38.95a.95.95 135 0 1 .949-.949h1.102a.95.95 135 0 0 .949-.949V35.95a.95.95 135 0 1 .949-.949h1.102a.95.95 135 0 0 .949-.949V29.95a.95.95 45 0 0-.949-.949H47.95a.95.95 45 0 1-.949-.949V26.95a.95.95 45 0 0-.949-.949H44.95a.95.95 45 0 1-.949-.949V23.95a.95.95 45 0 0-.949-.949H38.95a.95.95 135 0 0-.949.949" style="opacity:.754514;fill:#dcfa20;stroke-width:.769886" transform="translate(-12.768 -8.973)scale(1.2989)"/><path d="M38.005 22.913v3h-3v3h-9v6h9v3h3v3h6v-3h3v-3h3v-6h-3v-3h-3v-3z" style="opacity:.336745;fill:#fff;fill-opacity:1;stroke-width:.82931;filter:url(#d)" transform="translate(-8.223 -4.448)scale(1.20582)"/></svg>