<svg xmlns="http://www.w3.org/2000/svg" xmlns:xlink="http://www.w3.org/1999/xlink" width="64" height="64"><defs><filter id="e" width="1.202" height="1.225" x="-.101" y="-.113" style="color-interpolation-filters:sRGB"><feGaussianBlur stdDeviation="2.124"/></filter><filter id="f" width="1.258" height="1.315" x="-.129" y="-.157" style="color-interpolation-filters:sRGB"><feGaussianBlur stdDeviation="2.124"/></filter><filter id="h" width="1.223" height="1.318" x="-.109" y="-.16" style="color-interpolation-filters:sRGB"><feGaussianBlur stdDeviation="2.124"/></filter><filter id="j" width="1.223" height="1.318" x="-.114" y="-.16" style="color-interpolation-filters:sRGB"><feGaussianBlur stdDeviation="2.124"/></filter><filter id="k" width="1.353" height="1.259" x="-.177" y="-.13" style="color-interpolation-filters:sRGB"><feGaussianBlur stdDeviation="1.156"/></filter><radialGradient xlink:href="#a" id="i" cx="35.059" cy="55.803" r="25.999" fx="35.059" fy="55.803" gradientTransform="rotate(-15 -208.628 343.845)scale(3.4639 2.39809)" gradientUnits="userSpaceOnUse"/><radialGradient xlink:href="#b" id="g" cx="33.636" cy="46.491" r="25.999" fx="33.636" fy="46.491" gradientTransform="rotate(195 87.876 105.32)scale(4.6602 3.22629)" gradientUnits="userSpaceOnUse"/><radialGradient xlink:href="#c" id="d" cx="32.458" cy="50.789" r="27.999" fx="32.458" fy="50.789" gradientTransform="rotate(-45 8.5 87.69)scale(1.65272 1.48736)" gradientUnits="userSpaceOnUse"/><linearGradient id="b"><stop offset="0" style="stop-color:#00acff;stop-opacity:1"/><stop offset="1" style="stop-color:#0069ff;stop-opacity:1"/></linearGradient><linearGradient id="c"><stop offset="0" style="stop-color:#0082e5;stop-opacity:1"/><stop offset="1" style="stop-color:#00c7e9;stop-opacity:1"/></linearGradient><linearGradient id="a"><stop offset="0" style="stop-color:#00d0ff;stop-opacity:1"/><stop offset="1" style="stop-color:#00a2ff;stop-opacity:1"/></linearGradient></defs><path d="M7.489 23.534c-.053.034-.1.074-.15.112l-.03.023v.004a2.55 2.55 0 0 0-.989 2.013v22.377c0 3.668 2.893 3.668 3.669 3.668H54.01s3.669 0 3.669-3.668V25.686c0-.84-.407-1.578-1.029-2.046l.011-.015L32.001 5.51S7.339 23.65 7.489 23.536z" style="fill:url(#d);stroke-width:.917163"/><path d="M7.489 23.427c-.053.035-.1.075-.15.113l-.03.023v.004a2.55 2.55 0 0 0-.989 2.013v22.377c0 3.668 2.893 3.668 3.669 3.668H54.01s3.669 0 3.669-3.668V25.58c0-.84-.407-1.578-1.029-2.046l.011-.015-24.66-18.115S7.339 23.542 7.489 23.43z" style="fill:none;stroke:#000;stroke-width:.1999999;stroke-dasharray:none;stroke-opacity:1;filter:url(#e)"/><path d="M14.574 11.01a2.745 2.745 0 0 0-2.752 2.75v27.517a2.745 2.745 0 0 0 2.752 2.75h34.852a2.745 2.745 0 0 0 2.752-2.75V13.76a2.745 2.745 0 0 0-2.752-2.75zm14.12 2.812v14.116a2.716 2.716 0 1 0 5.432 0 2.72 2.72 0 0 0-2.716-2.72c-.35.002-1.033.071-1.357.203v-5.56c.36-.05.993-.073 1.357-.074a8.15 8.15 0 1 1 0 16.3 8.147 8.147 0 0 1-8.148-8.15V16.126c1-.956 2.875-2.017 5.432-2.303" style="fill:#ebebeb;stroke-width:.917163"/><rect width="40.354" height="33.017" x="11.823" y="10.904" rx="2.751" ry="2.75" style="fill:none;stroke:#000;stroke-width:.1999999;stroke-dasharray:none;stroke-opacity:1;filter:url(#f)"/><path d="m6.32 25.685 47.691 33.017H9.99c-1.834 0-3.669-.907-3.669-3.628Z" style="fill:url(#g);stroke-width:.917163"/><path d="m6.32 25.58 47.691 33.016H9.99c-1.834 0-3.669-.907-3.669-3.628z" style="fill:none;stroke:#000;stroke-width:.1999999;stroke-dasharray:none;stroke-opacity:1;filter:url(#h)"/><path d="M54.011 58.702c3.669 0 3.669-3.628 3.669-3.628V25.685L9.989 58.702Z" style="fill:url(#i);stroke-width:.917163"/><path d="M54.011 58.596c3.669 0 3.669-3.628 3.669-3.628V25.579L9.989 58.596Z" style="fill:none;stroke:#000;stroke-width:.1999999;stroke-dasharray:none;stroke-opacity:1;filter:url(#j)"/><path d="M28.697 13.731c-2.553.286-4.428 1.346-5.427 2.3v11.797a8.14 8.14 0 1 0 8.14-8.14c-.363.002-.996.024-1.356.074v5.554c.323-.132 1.008-.2 1.357-.201a2.713 2.713 0 1 1-2.714 2.713z" style="fill:none;stroke:#000;stroke-width:.2;stroke-dasharray:none;stroke-opacity:1;filter:url(#k)"/></svg>