<svg xmlns="http://www.w3.org/2000/svg" width="64" height="64"><path d="M39.973 8.098c-3.682.065-6.213 2.098-7.983 4.145-1.769-2.035-4.286-4.047-7.947-4.112a9.5 9.5 0 0 0-3.352.56c-3.752 1.358-5.824 4.789-6.5 7.752-.114.495-.044.975-.105 1.466-2.37-.123-5.348.547-7.35 2.619-2.8 2.893-3.113 6.884-2.428 9.843.684 2.96 2.159 5.466 4.401 7.468a14.3 14.3 0 0 0 3.12 2.127c-.428 1.347-.79 2.74-.79 4.334 0 4.11 1.985 7.211 4.453 9.62 2.468 2.41 5.662 4.28 9.7 4.28 3.143 0 5.153-.993 6.808-2.2 1.655 1.207 3.733 2.2 6.877 2.2 4.037 0 7.231-1.87 9.7-4.28 2.467-2.409 4.453-5.51 4.453-9.62 0-1.622-.362-3.044-.804-4.41a14.3 14.3 0 0 0 3.045-2.084c2.242-2.002 3.718-4.508 4.402-7.467.684-2.96.37-6.95-2.428-9.844-1.993-2.061-4.948-2.726-7.313-2.614-.06-.492.007-.974-.106-1.47-.677-2.964-2.75-6.395-6.501-7.753a9.5 9.5 0 0 0-3.352-.56" style="opacity:.2"/><path d="M39.973 6.998c-3.682.065-6.213 2.098-7.983 4.145-1.769-2.035-4.286-4.048-7.947-4.113a9.5 9.5 0 0 0-3.352.56c-3.752 1.359-5.824 4.79-6.5 7.753-.114.495-.044.975-.105 1.465-2.37-.122-5.348.548-7.35 2.62-2.8 2.893-3.113 6.884-2.428 9.843.684 2.96 2.159 5.466 4.401 7.468a14.3 14.3 0 0 0 3.12 2.127c-.428 1.347-.79 2.74-.79 4.334 0 4.11 1.985 7.21 4.453 9.62s5.662 4.28 9.7 4.28c3.143 0 5.153-.993 6.808-2.2 1.655 1.207 3.733 2.2 6.877 2.2 4.037 0 7.231-1.87 9.7-4.28 2.467-2.41 4.453-5.51 4.453-9.62 0-1.623-.362-3.044-.804-4.41a14.3 14.3 0 0 0 3.045-2.084c2.242-2.002 3.718-4.508 4.402-7.468s.37-6.95-2.428-9.843c-1.993-2.061-4.948-2.726-7.313-2.614-.06-.493.007-.974-.106-1.471-.677-2.963-2.75-6.394-6.501-7.752a9.5 9.5 0 0 0-3.352-.56" style="fill:#7843a2"/><path d="M39.543 13.998c-3.091.055-5.653 3.004-6.382 6.237-.606 2.688.562 6.004 3.294 6.702 2.77.707 5.829-1.832 6.932-4.407 1.32-3.082.716-7.143-2.496-8.306a3.7 3.7 0 0 0-1.348-.226m-15.027.032a3.7 3.7 0 0 0-1.348.227c-3.212 1.162-3.816 5.823-2.496 8.905 1.103 2.575 4.162 4.415 6.932 3.708 2.732-.698 3.9-4.014 3.294-6.702-.729-3.233-3.29-6.083-6.382-6.138m25.231 9.035c-2.515.135-4.603 2.117-6.231 4.202-1.723 2.207-2.136 5.85 0 7.66 2.165 1.836 5.481.491 7.598-1.4 2.534-2.262 4.04-6.897 1.679-9.339-.836-.864-1.902-1.185-3.046-1.123m-35.47.033c-1.144-.062-2.21.26-3.046 1.123-2.361 2.442-.855 7.077 1.679 9.34 2.117 1.89 5.533 3.234 7.698 1.4 2.136-1.81 1.723-5.454 0-7.66-1.628-2.086-3.816-4.068-6.331-4.203M32 29s-15 6.644-15 15.2c0 4.033 4.13 8.8 8.163 8.8C28.584 53 32 49 32 49s3.427 4 6.848 4C42.881 53 47 48.233 47 44.2 47 35.644 32 29 32 29" style="opacity:.2"/><path d="M39.543 12.998c-3.091.055-5.653 3.004-6.382 6.237-.606 2.688.562 6.004 3.294 6.702 2.77.707 5.829-1.832 6.932-4.407 1.32-3.082.716-7.143-2.496-8.306a3.7 3.7 0 0 0-1.348-.226m-15.027.032a3.7 3.7 0 0 0-1.348.227c-3.212 1.162-3.816 5.823-2.496 8.905 1.103 2.575 4.162 4.415 6.932 3.708 2.732-.698 3.9-4.014 3.294-6.702-.729-3.233-3.29-6.083-6.382-6.138m25.231 9.035c-2.515.135-4.603 2.117-6.231 4.202-1.723 2.207-2.136 5.85 0 7.66 2.165 1.836 5.481.491 7.598-1.4 2.534-2.262 4.04-6.897 1.679-9.339-.836-.864-1.902-1.185-3.046-1.123m-35.47.033c-1.144-.062-2.21.26-3.046 1.123-2.361 2.442-.855 7.077 1.679 9.34 2.117 1.89 5.533 3.234 7.698 1.4 2.136-1.81 1.723-5.454 0-7.66-1.628-2.086-3.816-4.068-6.331-4.203M32 28s-15 6.644-15 15.2c0 4.033 4.13 8.8 8.163 8.8C28.584 52 32 48 32 48s3.427 4 6.848 4C42.881 52 47 47.233 47 43.2 47 34.644 32 28 32 28" style="fill:#f34ca6"/><path d="M39.973 6.998c-3.682.066-6.213 2.098-7.983 4.145-1.769-2.035-4.286-4.047-7.947-4.112a9.5 9.5 0 0 0-3.352.56c-3.752 1.359-5.825 4.79-6.502 7.753-.113.495-.042.974-.103 1.465-2.371-.123-5.349.547-7.352 2.619-2.177 2.251-2.84 5.16-2.709 7.738.094-2.28.838-4.703 2.71-6.639 2.002-2.071 4.98-2.742 7.35-2.619.062-.49-.009-.97.104-1.465.677-2.963 2.75-6.394 6.502-7.752a9.5 9.5 0 0 1 3.352-.56c3.66.065 6.178 2.078 7.947 4.113 1.77-2.047 4.301-4.08 7.983-4.146a9.5 9.5 0 0 1 3.351.56c3.752 1.358 5.825 4.789 6.502 7.752.114.497.045.978.106 1.47 2.365-.111 5.321.553 7.314 2.614 1.871 1.935 2.615 4.357 2.71 6.637.13-2.576-.534-5.486-2.71-7.736-1.993-2.061-4.95-2.726-7.314-2.614-.061-.492.008-.974-.106-1.47-.677-2.964-2.75-6.395-6.502-7.752a9.5 9.5 0 0 0-3.351-.561M52.51 39.734c-.095.051-.187.108-.283.157.386 1.196.696 2.444.771 3.824.007-.173.031-.339.031-.516 0-1.253-.218-2.384-.52-3.465m-40.963.078c-.293 1.058-.508 2.162-.508 3.387 0 .18.024.346.031.522.076-1.354.384-2.576.758-3.754-.096-.048-.187-.104-.281-.154" style="opacity:.1;fill:#fff"/></svg>