<svg xmlns="http://www.w3.org/2000/svg" width="64" height="64"><path d="M38.664 21c.282.78.423 1.314.48 2H60v-1H39.145a6 6 0 0 0-.168-1zm.506 4.064a9 9 0 0 1-.111.936H14.145a9 9 0 0 1-.116-.922c-.008.141-.029.28-.029.422a9 9 0 0 0 .145 1.5h24.914q.134-.745.142-1.5a4 4 0 0 0-.031-.436" style="opacity:.2"/><path d="M26.6 14C19.64 14 14 18.701 14 24.5a9 9 0 0 0 .145 1.5h24.911a9 9 0 0 0 .143-1.5c-.004-1.016-.184-1.527-.536-2.5H60v-4H36.923c-2.352-2.815-6.206-3.995-10.322-4Z" style="fill:#afafb1"/><rect width="52" height="16" x="4" y="26" rx="2.736" ry="2.666" style="fill:#8e8e8e"/><path d="M4 39.332v1C4 41.81 5.222 43 6.738 43h46.524C54.778 43 56 41.81 56 40.332v-1C56 40.81 54.778 42 53.262 42H6.738C5.222 42 4 40.81 4 39.332" style="opacity:.2"/><rect width="42" height="12" x="8" y="38" rx="6.176" ry="6" style="fill:#4f4f4f"/><g style="opacity:.2" transform="matrix(2 0 0 2 0 1)"><circle cx="7" cy="22" r="2"/><circle cx="12" cy="22" r="2"/><circle cx="17" cy="22" r="2"/><circle cx="22" cy="22" r="2"/></g><g style="fill:#c4c4c4" transform="scale(2)"><circle cx="7" cy="22" r="2"/><circle cx="12" cy="22" r="2"/><circle cx="17" cy="22" r="2"/><circle cx="22" cy="22" r="2"/></g><path d="M8.027 44.533A5 5 0 0 0 8 45c0 3.324 2.754 6 6.176 6h29.648C47.246 51 50 48.324 50 45q-.002-.237-.027-.467C49.696 47.605 47.06 50 43.824 50H14.176c-3.237 0-5.872-2.395-6.149-5.467" style="opacity:.2"/><path d="M14.176 38C10.754 38 8 40.669 8 43.984q.002.237.027.466c.277-3.064 2.912-5.453 6.149-5.453h29.648c3.237 0 5.872 2.39 6.149 5.453q.025-.229.027-.466C50 40.67 47.246 38 43.824 38zM6.738 26C5.222 26 4 27.19 4 28.668v1C4 28.19 5.222 27 6.738 27h46.524C54.778 27 56 28.19 56 29.668v-1C56 27.19 54.778 26 53.262 26zm19.864-12C19.642 14 14 18.701 14 24.5c.001.127.023.254.037.38.387-5.508 5.856-9.88 12.565-9.88 4.116.005 7.968 1.185 10.32 4H60v-1H36.922c-2.352-2.815-6.204-3.995-10.32-4m12.062 10c.136.378.23.695.307 1h.174q0 .018.003.035c.02-.178.05-.356.051-.535-.002-.2-.04-.332-.054-.5z" style="opacity:.1;fill:#fff"/></svg>