<svg xmlns="http://www.w3.org/2000/svg" width="64" height="64"><path d="M4 56v2c0 1.662 1.338 3 3 3h50c1.662 0 3-1.338 3-3v-2c0 1.662-1.338 3-3 3H7c-1.662 0-3-1.338-3-3" style="opacity:.2"/><rect width="56" height="56" x="4" y="4" rx="3" ry="3" style="fill:#dcdcbe"/><path d="M7 4C5.338 4 4 5.338 4 7v1c0-1.662 1.338-3 3-3h50c1.662 0 3 1.338 3 3V7c0-1.662-1.338-3-3-3z" style="opacity:.1;fill:#fff"/><path d="M20 16a4 4 0 0 0-4 4 4 4 0 0 0 4 4 4 4 0 0 0 4-4 4 4 0 0 0-4-4m0 2a2 2 0 0 1 2 2 2 2 0 0 1-2 2 2 2 0 0 1-2-2 2 2 0 0 1 2-2" style="fill:#3c79e7"/><path d="M26 14v12H14v2h12v8H14v2h12v12h2V38h8v12h2V38h12v-2H38v-8h12v-2H38V14h-2v12h-8V14zm2 14h8v8h-8z" style="opacity:.4;fill:#09214c"/><path d="M44 40a4 4 0 0 0-4 4 4 4 0 0 0 4 4 4 4 0 0 0 4-4 4 4 0 0 0-4-4m0 2a2 2 0 0 1 2 2 2 2 0 0 1-2 2 2 2 0 0 1-2-2 2 2 0 0 1 2-2" style="fill:#3c79e7"/><path d="M34.122 28.464 32 30.586l-2.122-2.122-1.414 1.414L30.586 32l-2.122 2.122 1.414 1.414L32 33.414l2.122 2.122 1.414-1.414L33.414 32l2.122-2.122z" style="fill:#e74c3c"/></svg>