<svg xmlns="http://www.w3.org/2000/svg" width="64" height="64"><rect width="11" height="50" x="49" y="8" rx="2.75" ry="2.778" style="opacity:.2"/><rect width="11" height="50" x="4" y="8" rx="2.75" ry="2.778" style="opacity:.2"/><path d="M9.5 12c-1.385 0-2.5.991-2.5 2.222v35.556C7 51.008 8.115 52 9.5 52h41.25c1.385 0 2.5-.991 2.5-2.222V14.222c0-1.23-1.115-2.222-2.5-2.222zm40 0c-1.385 0-2.5.991-2.5 2.222v35.556C47 51.008 48.115 52 49.5 52h5c1.385 0 2.5-.991 2.5-2.222V14.222C57 12.992 55.885 12 54.5 12z" style="fill:#5ecff3"/><rect width="11" height="50" x="4" y="7" rx="2.75" ry="2.778" style="fill:#868686"/><rect width="11" height="50" x="49" y="7" rx="2.75" ry="2.778" style="fill:#868686"/><path d="M15 42h34" style="fill:none;stroke-linecap:round;stroke-linejoin:round;stroke-width:6;stroke:#c48f61"/><path d="M15 37a6 6 0 1 0 0 12 6 6 0 0 0 0-12m17 0a6 6 0 1 0 0 12 6 6 0 0 0 0-12m17 0a6 6 0 1 0 0 12 6 6 0 0 0 0-12" style="opacity:.2"/><path d="M32 27c-21.333 24.667-10.667 12.333 0 0m-17 9a6 6 0 1 0 0 12 6 6 0 0 0 0-12m17 0a6 6 0 1 0 0 12 6 6 0 0 0 0-12m17 0a6 6 0 1 0 0 12 6 6 0 0 0 0-12" style="fill:#fff"/><path d="M6.75 7A2.76 2.76 0 0 0 4 9.777v1A2.76 2.76 0 0 1 6.75 8h5.5A2.76 2.76 0 0 1 15 10.777v-1A2.76 2.76 0 0 0 12.25 7Zm45 0A2.76 2.76 0 0 0 49 9.777v1A2.76 2.76 0 0 1 51.75 8h5.5A2.76 2.76 0 0 1 60 10.777v-1A2.76 2.76 0 0 0 57.25 7Z" style="fill:#fff;opacity:.1"/></svg>