<svg xmlns="http://www.w3.org/2000/svg" xmlns:xlink="http://www.w3.org/1999/xlink" width="64" height="64"><defs><radialGradient xlink:href="#a" id="c" cx="5.393" cy="56.664" r="22" fx="5.393" fy="56.664" gradientTransform="rotate(-30 -286.153 165.3)scale(3.82944)" gradientUnits="userSpaceOnUse"/><radialGradient xlink:href="#b" id="d" cx="5.225" cy="60.803" r="24" fx="5.225" fy="60.803" gradientTransform="rotate(-30 -424.146 214.241)scale(4.22993 4.93492)" gradientUnits="userSpaceOnUse"/><linearGradient id="b"><stop offset="0" style="stop-color:#32ffbf;stop-opacity:1"/><stop offset="1" style="stop-color:#4affa1;stop-opacity:1"/></linearGradient><linearGradient id="a"><stop offset="0" style="stop-color:#1aaba9;stop-opacity:1"/><stop offset="1" style="stop-color:#1aab6c;stop-opacity:1"/></linearGradient><filter id="e" width="1.159" height="1.137" x="-.08" y="-.068" style="color-interpolation-filters:sRGB"><feGaussianBlur stdDeviation="1.6"/></filter></defs><circle cx="10.668" cy="40.794" r="2.734" style="fill:#199c71;stroke-width:.683587"/><path d="M32 10c-12.15 0-22 9.85-22 22 .003 1.422.142 2.84.418 4.234 3.434-5.95 9.01-10.89 13.645-14.64l-.743 3.441c-2.32 2.25-4.596 4.834-6.742 7.695-1.884 2.513-2.994 6.277-4.394 8.801A22 22 0 0 0 32 54c9.85-.008 18.453-6.565 21.129-16h-12.75c-1.69 3.906-4.879 5.994-8.379 6-4.897-.008-9.007-3.743-9.55-10h31.499c.032-.458.048-1.541.051-2a22 22 0 0 0-12.746-19.937c-3.415 1.817-6.467 4.54-9.399 7.566l.145-.004c4.075.006 7.704 3.435 9.063 8.375H22.937c.495-1.784 1.03-3.524 2.086-4.844a2 2 0 0 0-.078-.117c.24-.322.761-.64 1.008-.96 3.463-4.496 7.31-8.393 11.176-11.446A22 22 0 0 0 32 10M12.184 41.531c-.19-.396.167.41 0 0" style="fill:url(#c)" transform="translate(-2 -1)"/><path d="M48.705 5.022a15.355 33.549 38.231 0 0-27.07 18.89 15.355 33.549 38.231 0 0-8.201 35.595 15.355 33.549 38.231 0 0 6.645 1.4 14.38 31.633 37.098 0 1-3.48-1.343 14.38 31.633 37.098 0 1 7.604-33.904A14.38 31.633 37.098 0 1 54.755 9.098a14.38 31.633 37.098 0 1 3.158 7.778 15.355 33.549 38.231 0 0-3.327-10.355 15.355 33.549 38.231 0 0-5.881-1.499" style="fill:url(#d)" transform="translate(-2 -1)"/><path d="M47.572 3.9q-.427-.004-.873.022c-3.852.226-8.388 2.144-13.01 5.312A22 22 0 0 0 30 8.9C17.796 8.9 7.9 18.796 7.9 31c.003 1.428.143 2.853.42 4.254l.051.262.133-.23c2.832-4.909 7.128-9.122 11.152-12.557l-.1.123c-5.688 7.325-9.454 14.975-10.943 21.435-.744 3.23-.919 6.164-.476 8.611.442 2.448 1.506 4.414 3.238 5.688 1.72 1.25 4.004 1.729 6.691 1.422h.026v-.2c-1.326-.167-2.477-.612-3.434-1.324-1.56-1.178-2.525-2.998-2.93-5.295-.404-2.296-.244-5.066.442-8.125.058-.26.125-.526.191-.79A22.09 22.09 0 0 0 30 53.1c9.894-.009 18.537-6.595 21.225-16.073l.037-.127h-12.95l-.025.06C36.61 40.838 33.46 42.896 30 42.9c-4.815-.008-8.844-3.656-9.426-9.8h31.469l.006-.094c.032-.466.048-1.546.05-2.006a22.1 22.1 0 0 0-12.802-20.027l-.047-.022-.043.024c-3.43 1.825-6.49 4.554-9.424 7.584l-.17.177.244-.007.143-.004c3.981.006 7.536 3.343 8.914 8.175H21.07q.126-.444.258-.884.468-.65.955-1.295c5.261-6.958 11.307-12.288 16.819-15.276 2.755-1.494 5.377-2.403 7.697-2.64s4.334.194 5.894 1.373c1.984 1.513 3.066 4.162 3.12 7.7l.199.009v-.012c.427-4.825-.741-8.487-3.367-10.434-1.361-1.002-3.077-1.52-5.073-1.54m-.002.2c1.963.02 3.635.528 4.957 1.502 2.356 1.746 3.46 4.978 3.293 9.22-.255-3.001-1.19-5.42-3.006-6.804-1.607-1.215-3.679-1.652-6.035-1.41-2.356.24-5 1.158-7.773 2.662-5.546 3.006-11.607 8.352-16.883 15.33q-.494.652-.967 1.308l-.002.004-.04.059c-.4.555-.778 1.112-1.155 1.67-.37.547-.723 1.094-1.07 1.642-.188.296-.378.59-.559.885-.346.565-.672 1.13-.994 1.693-.156.274-.32.548-.47.82a60 60 0 0 0-1.055 2.014c-.082.162-.173.325-.252.487l-.053.109a55 55 0 0 0-.977 2.113l-.054.123a49 49 0 0 0-.944 2.346 44 44 0 0 0-.992 2.97c-.06.207-.114.412-.17.616-.045.164-.093.328-.135.49l-.02.074-.01.047.001.002q-.123.48-.23.95c-.69 3.077-.854 5.87-.444 8.203s1.398 4.205 3.006 5.42c.829.616 1.874.926 2.967 1.146-2.396.174-4.463-.24-6.012-1.365-1.684-1.24-2.724-3.152-3.16-5.563s-.263-5.32.477-8.531c1.48-6.422 5.23-14.053 10.904-21.36.247-.317.501-.623.752-.935l.004-.002.004-.004.006-.008a73 73 0 0 1 3.146-3.662l.1-.107a70 70 0 0 1 1.572-1.649l.035-.035a67 67 0 0 1 1.62-1.584l.093-.088q.783-.737 1.572-1.433l.195-.17q.745-.65 1.49-1.26c.099-.08.197-.155.296-.234a56 56 0 0 1 1.404-1.1c.124-.093.247-.18.371-.271.448-.331.895-.657 1.342-.965C38.35 6.273 42.89 4.345 46.71 4.12q.438-.026.86-.021M30 9.1c1.15.006 2.293.124 3.426.31-3.899 2.711-7.844 6.32-11.492 10.555l-.096.11a73 73 0 0 0-1.467 1.765l-.049.058c-4.184 3.502-8.79 7.89-11.832 13.051A22 22 0 0 1 8.1 31C8.1 18.904 17.904 9.1 30 9.1m9.256 2.082A21.9 21.9 0 0 1 51.9 31c-.002.436-.02 1.418-.048 1.9H20.34l.01.108C20.897 39.305 25.052 43.09 30 43.1c3.52-.006 6.725-2.108 8.436-6h12.55C48.28 46.42 39.76 52.892 30 52.9a21.89 21.89 0 0 1-17.572-8.873c1.366-5.31 4.308-11.392 8.5-17.351l-.086.297-.035.127h18.386l-.035-.127c-1.357-4.934-4.974-8.37-9.066-8.428 2.865-2.943 5.845-5.587 9.164-7.363" style="filter:url(#e)"/><path d="M26.39 43.422H10.668a2.74 2.74 0 0 1-2.734-2.734v8.887a6.14 6.14 0 0 0 6.152 6.152h18.457v-6.152a6.14 6.14 0 0 0-6.153-6.153" style="fill:#50ffa4;fill-opacity:1;stroke-width:.683587"/><path d="M11.352 46.734v5.468h1.525q.788 0 1.242-.421.452-.422.451-1.165 0-.428-.11-.689a.93.93 0 0 0-.296-.398 1.1 1.1 0 0 0-.42-.192V49.3a.75.75 0 0 0 .524-.39q.187-.322.187-.79 0-.772-.473-1.08-.47-.306-1.394-.306zm4.785 0v5.468h3.418v-.683H16.82v-2.051h2.051v-.684h-2.05v-1.367h2.734v-.683zm4.785 0v.683h1.367v4.785h.752l-.068-4.785h1.367v-.683zm6.1 0-1.999 5.468h.813l.48-1.367h2.813l.414 1.367h.95l-2.007-5.468zm.736.435 1.086 2.983h-2.225Zm-15.723.248h.895c.814-.038.806.742.806.742s.045.625-.756.625h-.945zm1.041 2.047c.278-.008.475.156.584.275.12.123.18.558.18.762 0 .225-.058.68-.174.819q-.174.198-.613.199h-1.018v-2.051h.985z" style="fill:#3f3f3f;stroke-width:.683587"/></svg>