<svg xmlns="http://www.w3.org/2000/svg" width="64" height="64"><path d="M27.996 13.002c-5.988 0-10.854 4.785-10.996 10.745q.372-.027.75-.028c6.077 0 11.004 4.931 11.004 11.014 0 .09-.006.18-.008.27C34.475 34.617 39 29.847 39 24.015c0-6.083-4.927-11.014-11.004-11.014m21.004 9c-6.075 0-11 4.927-11 11.006q0 .204.006.407c.147-.006.293-.014.441-.014 5.939 0 10.778 4.712 10.992 10.601C55.312 43.772 60 38.941 60 33.008c0-6.079-4.925-11.006-11-11.006m-33 9a12 5.998 0 0 0-12 6 12 5.998 0 1 0 24 0 12 5.998 0 0 0-12-6m20 9a12 5.998 0 0 0-12 6 12 5.998 0 1 0 24 0 12 5.998 0 0 0-12-6" style="opacity:.2"/><path d="M28 36a12 5.998 0 1 1-24 0 12 5.998 0 1 1 24 0" style="fill:#00cd52"/><path d="M48 45a12 5.998 0 1 1-24 0 12 5.998 0 1 1 24 0" style="fill:#ffc00f"/><path d="M27.997 12C22.009 12 17.142 16.786 17 22.745c.249-.017.496-.028.75-.028 6.077 0 11.003 4.931 11.003 11.014q-.002.135-.007.269C34.475 33.615 39 28.845 39 23.013 39 16.931 34.073 12 27.996 12z" style="fill:#16a1ff"/><path d="M49 21c-6.075 0-11 4.928-11 11.006q0 .204.007.406.22-.011.44-.013c5.938 0 10.778 4.71 10.993 10.6C55.312 42.77 60 37.94 60 32.007 60 25.928 55.075 21 49 21" style="fill:#ff3f3f"/><path d="M27.996 12C22.008 12 17.142 16.785 17 22.744l.074-.002c.63-5.482 5.275-9.74 10.922-9.74 5.91 0 10.718 4.668 10.979 10.52.007-.17.025-.337.025-.508C39 16.93 34.073 12 27.996 12M49 21c-6.075 0-11 4.927-11 11.006q0 .204.006.406h.023c.311-5.8 5.097-10.41 10.971-10.41 5.907 0 10.712 4.662 10.975 10.508.007-.169.025-.334.025-.504C60 25.926 55.075 21 49 21m-33 9a12 5.998 0 0 0-12 6 12 5.998 0 0 0 .102.484A12 5.998 0 0 1 16 31.002a12 5.998 0 0 1 11.924 5.357A12 5.998 0 0 0 28 36a12 5.998 0 0 0-12-6m20 9a12 5.998 0 0 0-12 6 12 5.998 0 0 0 .102.484A12 5.998 0 0 1 36 40.002a12 5.998 0 0 1 11.924 5.357A12 5.998 0 0 0 48 45a12 5.998 0 0 0-12-6" style="fill:#fff;opacity:.2"/></svg>