<?xml version="1.0" encoding="UTF-8" standalone="no"?>
<svg
   width="64"
   height="64"
   version="1.1"
   id="svg9"
   sodipodi:docname="btop.svg"
   inkscape:version="1.4.4 (dcaf3e7d9e, 2026-05-05)"
   xmlns:inkscape="http://www.inkscape.org/namespaces/inkscape"
   xmlns:sodipodi="http://sodipodi.sourceforge.net/DTD/sodipodi-0.dtd"
   xmlns:xlink="http://www.w3.org/1999/xlink"
   xmlns="http://www.w3.org/2000/svg"
   xmlns:svg="http://www.w3.org/2000/svg">
  <sodipodi:namedview
     id="namedview9"
     pagecolor="#ffffff"
     bordercolor="#000000"
     borderopacity="0.25"
     inkscape:showpageshadow="2"
     inkscape:pageopacity="0.0"
     inkscape:pagecheckerboard="0"
     inkscape:deskcolor="#d1d1d1"
     inkscape:zoom="18.890625"
     inkscape:cx="32"
     inkscape:cy="32"
     inkscape:current-layer="svg9" />
  <defs
     id="defs4">
    <radialGradient
       id="d"
       cx="-159.431"
       cy="15.463"
       r="64.707"
       fx="-159.431"
       fy="15.463"
       gradientTransform="matrix(-.89413 0 0 .96305 -70.018 -8.619)"
       gradientUnits="userSpaceOnUse">
      <stop
         offset="0"
         style="stop-color:#ff982f;stop-opacity:1"
         id="stop1" />
      <stop
         offset="1"
         style="stop-color:#ff7f53;stop-opacity:1"
         id="stop2" />
    </radialGradient>
    <radialGradient
       xlink:href="#d"
       id="e"
       cx="94.453"
       cy="-1.098"
       r="28"
       fx="94.453"
       fy="-1.098"
       gradientTransform="matrix(0 -2.22556 2.18093 0 64.22 274.382)"
       gradientUnits="userSpaceOnUse" />
    <radialGradient
       xlink:href="#d"
       id="g"
       cx="63.931"
       cy="76.755"
       r="21.555"
       fx="63.931"
       fy="76.755"
       gradientTransform="matrix(0 -2.9556 2.96916 0 -163.968 252.984)"
       gradientUnits="userSpaceOnUse" />
    <filter
       id="i"
       width="1.1381286"
       height="1.1603582"
       x="-0.069064287"
       y="-0.080179117"
       style="color-interpolation-filters:sRGB">
      <feGaussianBlur
         stdDeviation="1.549"
         id="feGaussianBlur2" />
    </filter>
    <filter
       id="f"
       width="1.1138545"
       height="1.1671948"
       x="-0.056927271"
       y="-0.083619172"
       style="color-interpolation-filters:sRGB">
      <feGaussianBlur
         stdDeviation="1.002"
         id="feGaussianBlur3" />
    </filter>
    <filter
       id="h"
       width="1.1403063"
       height="1.2265299"
       x="-0.070153141"
       y="-0.11326497"
       style="color-interpolation-filters:sRGB">
      <feGaussianBlur
         stdDeviation=".529"
         id="feGaussianBlur4" />
    </filter>
  </defs>
  <g
     id="g9">
    <path
       d="M20.8 7.882c-9.305 0-16.8 7.494-16.8 16.8v14.637c0 9.307 7.494 16.8 16.8 16.8h22.4c9.306 0 16.8-7.493 16.8-16.8V24.682c0-9.305-7.494-16.8-16.8-16.8z"
       style="fill:url(#e)"
       id="path4" />
    <path
       d="M21 13.88c-6.19 0-11 4.81-11 11v14.24c0 1.586.32 3.08.895 4.427 1.637-1.224 3.703-2.242 6.05-2.242 5.897 0 10.026 4.442 16.291 1.554 8.348-3.845 7.538-9.248 12.971-9.248 4.178 0 5.432 3.535 7.793 4.645V24.88c0-6.19-4.81-11-11-11zm-1.502 36.132"
       style="fill:#3f3f3f"
       id="path5" />
    <path
       d="M21 13.88c-6.19 0-11 4.81-11 11v14.24c0 1.586.32 3.08.895 4.427 1.637-1.224 3.703-2.242 6.05-2.242 5.897 0 10.026 4.442 16.291 1.554 8.348-3.845 7.538-9.248 12.971-9.248 4.178 0 5.432 3.535 7.793 4.645V24.88c0-6.19-4.81-11-11-11z"
       style="fill:none;stroke:#000;stroke-opacity:1;stroke-linejoin:round;stroke-width:.2;stroke-dasharray:none;filter:url(#f)"
       id="path6" />
    <path
       d="M15.75 20.2c-.368 0-.667.3-.666.667v.569c0 .367.299.664.666.664h.01v8.293h-.01a.665.665 0 0 0-.666.664v.568c0 .367.299.666.666.666h4.615a3.49 3.49 0 0 0 3.483-3.482v-.03c0-1.619-.737-2.222-1.748-2.847.542-.625.92-1.378.921-2.22v-.028a3.493 3.493 0 0 0-3.482-3.485zm2.295 1.898h1.277a1.58 1.58 0 0 1 1.588 1.59v.021a1.58 1.58 0 0 1-1.588 1.588h-1.277a.307.307 0 0 1-.307-.307v-2.586c0-.17.137-.306.307-.306m-.03 5.097h2.133c.885 0 1.59.704 1.59 1.588v.022c0 .884-.705 1.59-1.59 1.591h-2.101a.31.31 0 0 1-.307-.308v-2.586c0-.16.12-.291.276-.307m8.803 1.698c-.926 0-1.675.75-1.675 1.675v.01c0 .926.751 1.676 1.677 1.676h6.11c.926 0 1.677-.75 1.677-1.676v-.01c0-.926-.751-1.675-1.677-1.675z"
       style="fill:url(#g);fill-opacity:1"
       id="path7" />
    <path
       d="M15.75 20.2c-.368 0-.667.3-.666.667v.569c0 .367.299.664.666.664h.01v8.293h-.01a.665.665 0 0 0-.666.664v.568c0 .367.299.666.666.666h4.615a3.49 3.49 0 0 0 3.483-3.482v-.03c0-1.619-.737-2.222-1.748-2.847.542-.625.92-1.378.921-2.22v-.028a3.493 3.493 0 0 0-3.482-3.485zm2.295 1.898h1.277a1.58 1.58 0 0 1 1.588 1.59v.021a1.58 1.58 0 0 1-1.588 1.588h-1.277a.307.307 0 0 1-.307-.307v-2.586c0-.17.137-.306.307-.306zm-.03 5.097h2.133c.885 0 1.59.704 1.59 1.588v.022c0 .884-.705 1.59-1.59 1.591h-2.101a.31.31 0 0 1-.307-.308v-2.586c0-.16.12-.291.276-.307zm8.803 1.698c-.926 0-1.675.75-1.675 1.675v.01c0 .926.751 1.676 1.677 1.676h6.11c.926 0 1.677-.75 1.677-1.676v-.01c0-.926-.751-1.675-1.677-1.675z"
       style="fill:none;fill-opacity:1;stroke-width:.2;stroke-dasharray:none;stroke:#ff2300;stroke-opacity:1;filter:url(#h)"
       id="path8" />
    <path
       d="M20.8 7.882c-9.305 0-16.8 7.494-16.8 16.8v14.637c0 9.307 7.494 16.8 16.8 16.8h22.4c9.306 0 16.8-7.493 16.8-16.8V24.682c0-9.305-7.494-16.8-16.8-16.8z"
       style="fill:none;stroke:#000;stroke-width:.3;stroke-dasharray:none;stroke-opacity:1;filter:url(#i)"
       id="path9" />
  </g>
</svg>
