<svg xmlns="http://www.w3.org/2000/svg" width="64" height="64"><circle cx="32" cy="32" r="20" style="fill:#4f4f4f"/><path d="M9.863 29.676c-.163 1.091-.262 2.188-.262 3.325s.099 2.234.262 3.325l-4.637 4.069c-.486.418-.622 1.191-.306 1.75l5.6 9.712c.325.551 1.058.821 1.662.612L18 50.5a22.6 22.6 0 0 0 5.862 3.369l1.181 5.993c.12.627.718 1.129 1.356 1.137h11.199c.639-.008 1.236-.51 1.356-1.137l1.181-5.993a22.5 22.5 0 0 0 5.862-3.369l5.818 1.969c.604.208 1.338-.062 1.662-.612l5.6-9.712c.315-.559.18-1.332-.306-1.75l-4.637-4.069c.163-1.091.262-2.188.262-3.325 0-1.136-.099-2.234-.262-3.325l4.637-4.069c.486-.418.622-1.191.306-1.75l-5.6-9.712c-.324-.552-1.058-.822-1.662-.613l-5.818 1.969a22.4 22.4 0 0 0-5.858-3.37l-1.182-5.994c-.12-.627-.718-1.129-1.356-1.137H26.402c-.561 0-1.228.425-1.36 1.14l-1.181 5.993a22.5 22.5 0 0 0-5.862 3.369l-5.818-1.969c-.605-.208-1.338.062-1.663.613l-5.6 9.712c-.315.559-.18 1.332.306 1.75zM32 17c8.757 0 16 7.242 16 16s-7.242 16-16 16-16-7.242-16-16 7.243-16 16-16" style="opacity:.2"/><path d="M9.863 28.676c-.163 1.091-.262 2.188-.262 3.325s.099 2.234.262 3.325l-4.637 4.069c-.486.418-.622 1.191-.306 1.75l5.6 9.712c.325.551 1.058.821 1.662.612L18 49.5a22.6 22.6 0 0 0 5.862 3.369l1.181 5.993c.12.627.718 1.129 1.356 1.137h11.199c.639-.008 1.236-.51 1.356-1.137l1.181-5.993a22.5 22.5 0 0 0 5.862-3.369l5.818 1.969c.604.208 1.338-.062 1.662-.612l5.6-9.712c.315-.559.18-1.332-.306-1.75l-4.637-4.069c.163-1.091.262-2.188.262-3.325 0-1.136-.099-2.234-.262-3.325l4.637-4.069c.486-.418.622-1.191.306-1.75l-5.6-9.712c-.324-.552-1.058-.822-1.662-.613l-5.818 1.969a22.4 22.4 0 0 0-5.858-3.37l-1.182-5.994c-.12-.627-.718-1.129-1.356-1.137H26.402c-.561 0-1.228.425-1.36 1.14l-1.181 5.993a22.5 22.5 0 0 0-5.862 3.369l-5.818-1.969c-.605-.208-1.338.062-1.663.613l-5.6 9.712c-.315.559-.18 1.332.306 1.75zM32 16c8.757 0 16 7.242 16 16s-7.242 16-16 16-16-7.242-16-16 7.243-16 16-16" style="fill:#e97e10"/><path d="M27 23h-3c-2 0-2 2-2 2v4c0 .523.5 1 .5 1s-.5.601-.5 1v4s0 2 2 2h10s1 0 1 1v3s0 2 2 2h3c2 0 2-2 2-2v-4c0-.541-.5-1-.5-1s.5-.486.5-1v-4s0-2-2-2h-3c-2 0-2 2-2 2v3s0 1-1 1h-4c-1 0-1-1-1-1v-3c0-.524-.5-1-.5-1s.5-.469.5-1v-4s0-2-2-2m-2 2h1c1 0 1 1 1 1v2s0 1-1 1h-1c-1 0-1-1-1-1v-2s0-1 1-1m13 6h1c1 0 1 1 1 1v2s0 1-1 1h-1c-1 0-1-1-1-1v-2s0-1 1-1m-12 0s1 0 1 1v2s0 1-1 1h-1c-1 0-1-1-1-1v-2c0-1 1-1 1-1zm14 7v2s0 1-1 1h-1c-1 0-1-1-1-1v-2s0-1 1-1h1c1 0 1 1 1 1" style="opacity:.2"/><path d="M27 22h-3c-2 0-2 2-2 2v4c0 .523.5 1 .5 1s-.5.601-.5 1v4s0 2 2 2h10s1 0 1 1v3s0 2 2 2h3c2 0 2-2 2-2v-4c0-.541-.5-1-.5-1s.5-.486.5-1v-4s0-2-2-2h-3c-2 0-2 2-2 2v3s0 1-1 1h-4c-1 0-1-1-1-1v-3c0-.524-.5-1-.5-1s.5-.469.5-1v-4s0-2-2-2m-2 2h1c1 0 1 1 1 1v2s0 1-1 1h-1c-1 0-1-1-1-1v-2s0-1 1-1m13 6h1c1 0 1 1 1 1v2s0 1-1 1h-1c-1 0-1-1-1-1v-2s0-1 1-1m-12 0s1 0 1 1v2s0 1-1 1h-1c-1 0-1-1-1-1v-2c0-1 1-1 1-1zm14 7v2s0 1-1 1h-1c-1 0-1-1-1-1v-2s0-1 1-1h1c1 0 1 1 1 1" style="fill:#e97e10"/><path d="m25.043 5.141-1.182 5.992A22.5 22.5 0 0 0 18 14.502l-5.818-1.969c-.605-.208-1.338.063-1.662.613l-5.6 9.711c-.202.358-.202.796-.06 1.18.022-.059.029-.122.06-.178l5.6-9.713c.324-.55 1.057-.821 1.662-.613L18 15.502a22.5 22.5 0 0 1 5.861-3.367l1.182-5.994a1.44 1.44 0 0 1 1.225-1.137l.002-.002H37.6a1.44 1.44 0 0 1 1.355 1.137l1.182 5.994A22.5 22.5 0 0 1 46 15.502l5.818-1.969c.604-.208 1.338.062 1.662.613l5.6 9.713c.031.055.038.118.061.176.14-.383.14-.821-.061-1.178l-5.6-9.711c-.324-.551-1.058-.821-1.662-.613L46 14.502a22.5 22.5 0 0 0-5.863-3.371l-1.182-5.992c-.12-.627-.717-1.13-1.355-1.139H26.4c-.746.065-1.235.524-1.357 1.141M9.756 29.584a21 21 0 0 0-.156 2.418c0 .169.017.332.021.5.025-.958.103-1.896.242-2.824zm44.486.002-.105.092c.139.928.215 1.866.24 2.824.004-.168.021-.331.021-.5 0-.822-.065-1.622-.156-2.416M32 49c8.578 0 16-7 16-16v-1c0 8.53-7 16-16 16s-16-7.404-16-16v1c0 9 7.422 16 16 16m26.773-8.604c.176.152.288.356.368.573.205-.537.071-1.197-.368-1.574l-4.531-3.977c-.034.303-.06.607-.105.908zM9.756 35.42l-4.529 3.975c-.438.377-.572 1.035-.367 1.572.079-.216.192-.42.367-.571l4.637-4.07c-.045-.3-.073-.604-.107-.906z" style="fill:#fff;opacity:.2"/></svg>