<svg xmlns="http://www.w3.org/2000/svg" width="64" height="64"><circle cx="32.5" cy="32.5" r="28.5" style="opacity:.2"/><circle cx="32.5" cy="31.5" r="28.5" style="fill:#395a95"/><path d="M15.5 18a1.5 1.5 0 0 0-1.5 1.5v4.566c-.424.095-1 .37-1 1.293v19.504c0 1.18.956 2.139 2.137 2.139H27.46c3.915.127 3.263 2.943 5.488 2.848 2.225.095 1.574-2.72 5.489-2.848h11.326c1.18 0 2.136-.958 2.136-2.139V25.36c0-.85-.49-1.146-.9-1.265V19.5a1.5 1.5 0 0 0-1.5-1.5H38.1a6.6 6.6 0 0 0-5.6 3.018C31.412 19.348 29.464 18 26.9 18zm1.5 3h9.9c1.655 0 2.473.658 3.131 1.713S31 25.284 31 26.477V38.5a2 2 0 0 0 .006.139l.004.043.013.095.016.08.016.061.029.092.014.045.035.084.033.064.053.094.01.02.054.08.053.068.014.016.082.093.029.028.074.068.065.049.05.037.07.045.063.037.05.025.089.041.068.026.06.021.097.026.048.011.082.016.082.01.05.004.091.004.092-.004.049-.004.082-.01.082-.016.049-.011.095-.026.06-.021.07-.026.089-.04.049-.026.062-.037.07-.045.051-.037.065-.049.074-.068.03-.028.081-.093.014-.016.053-.068.055-.08.01-.02.052-.094.033-.064.035-.084.014-.045.03-.092.015-.06.016-.08.013-.096.004-.043A2 2 0 0 0 34 38.5V26.477c0-1.193.31-2.71.969-3.764.658-1.055 1.476-1.713 3.13-1.713H48v21.994h-9.992c-2.244.013-3.571 1.73-5.059 2.81-1.487-1.08-2.813-2.797-5.056-2.81H17V24Z" style="opacity:.2"/><path d="M14.436 23C14.425 23 13 22.928 13 24.359v19.504c0 1.18.957 2.138 2.138 2.138h12.324c3.914.127 3.263 2.944 5.488 2.849 2.225.095 1.574-2.722 5.488-2.849h11.325c1.18 0 2.137-.957 2.138-2.138V24.36c0-1.431-1.425-1.359-1.437-1.359H48v18.995h-9.993c-2.243.013-3.57 1.73-5.057 2.81-1.488-1.08-2.814-2.797-5.057-2.81H17V23Z" style="fill:#fff"/><path d="M15.5 17a1.5 1.5 0 0 0-1.5 1.5v6.73a1.5 1.5 0 1 0 3 0V20h9.9c1.655 0 2.473.658 3.131 1.713S31 24.284 31 25.477V37.5a1.5 1.5 0 1 0 3 0V25.477c0-1.658-.35-3.631-1.424-5.352A6.61 6.61 0 0 0 26.9 17Z" style="fill:#fff"/><path d="M49.5 17a1.5 1.5 0 0 1 1.5 1.5v6.73a1.5 1.5 0 1 1-3 0V20h-9.9c-1.655 0-2.473.658-3.131 1.713S34 24.284 34 25.477V37.5a1.5 1.5 0 1 1-3 0V25.477c0-1.658.35-3.631 1.424-5.352A6.61 6.61 0 0 1 38.1 17Z" style="fill:#fff"/><path d="M32.5 3A28.5 28.5 0 0 0 4 31.5a29 29 0 0 0 .021.582A28.5 28.5 0 0 1 32.5 4a28.5 28.5 0 0 1 28.479 27.918L61 31.5A28.5 28.5 0 0 0 32.5 3" style="fill:#fff;opacity:.1"/></svg>