<svg xmlns="http://www.w3.org/2000/svg" width="64" height="64"><rect width="56" height="56" x="4" y="5" rx="12.6" ry="12.6" style="opacity:.2"/><rect width="56" height="56" x="4" y="4" rx="12.6" ry="12.6" style="fill:#505d6e"/><path d="M32 18v3h5v24h-5v3h13v-3h-5V21h5v-3Zm-16.285 7C14.21 25 13 26.189 13 27.666v10.668C13 39.811 14.211 41 15.715 41H36v-3H16V28h20v-3ZM41 25v3h7v10h-7v3h7.285C49.79 41 51 39.811 51 38.334V27.666C51 26.189 49.789 25 48.285 25Zm-23 5v6h15v-6z" style="opacity:.2"/><path d="M32 17v3h5v24h-5v3h13v-3h-5V20h5v-3zm-16.285 7C14.21 24 13 25.189 13 26.666v10.668C13 38.811 14.211 40 15.715 40H36v-3H16V27h20v-3zM41 24v3h7v10h-7v3h7.285C49.79 40 51 38.811 51 37.334V26.666C51 25.189 49.789 24 48.285 24zm-23 5v6h15v-6z" style="fill:#fff"/><path d="M16.6 4C9.62 4 4 9.62 4 16.6v1C4 10.62 9.62 5 16.6 5h30.8C54.38 5 60 10.62 60 17.6v-1C60 9.62 54.38 4 47.4 4z" style="fill:#fff;opacity:.1"/></svg>