<svg xmlns="http://www.w3.org/2000/svg" width="64" height="64"><path d="M31.959 6a2.546 2.524 0 0 0-.465.047L6.06 10.96A2.546 2.524 0 0 0 4 13.439v38.163a2.546 2.524 0 0 0 2.064 2.478l25.432 4.873A2.546 2.524 0 0 0 32 59q.233-.002.463-.047l25.473-4.873A2.53 2.53 0 0 0 60 51.602V13.439a2.53 2.53 0 0 0-2.059-2.478L32.467 6.047A2.6 2.6 0 0 0 32 6.002 2.546 2.524 0 0 0 31.959 6" style="opacity:.2"/><path d="M32 5.003V58q.233-.002.462-.046l25.474-4.874A2.53 2.53 0 0 0 60 50.601V12.44a2.53 2.53 0 0 0-2.059-2.478L32.468 5.046A2.6 2.6 0 0 0 32 5.003" style="fill:#f63"/><path d="M46.5 13v6.947L38.02 28.5h8.48v7h7.9l-7.9 9.553V51" style="opacity:.2;fill:none;stroke:#000;stroke-width:3"/><path d="M46.5 12v6.947L38.02 27.5h8.48v7h7.9l-7.9 9.553V50" style="fill:none;stroke:#fdfdfd;stroke-width:3"/><path d="M31.959 5a2.546 2.524 0 0 0-.465.046L6.06 9.961A2.546 2.524 0 0 0 4 12.439v38.162a2.546 2.524 0 0 0 2.064 2.48l25.433 4.873A2.546 2.524 0 0 0 32 58V5.003A2.546 2.524 0 0 0 31.959 5" style="fill:#404041"/><path d="M32 5.002v1q.236 0 .467.045L57.94 10.96A2.53 2.53 0 0 1 60 13.439v-1a2.53 2.53 0 0 0-2.059-2.478L32.467 5.047A2.6 2.6 0 0 0 32 5.002" style="opacity:.2;fill:#fff"/><path d="M31.959 5a2.546 2.524 0 0 0-.465.047L6.06 9.96A2.546 2.524 0 0 0 4 12.439v1a2.546 2.524 0 0 1 2.059-2.478l25.435-4.914A2.546 2.524 0 0 1 31.96 6a2.546 2.524 0 0 1 .041.002v-1A2.546 2.524 0 0 0 31.959 5" style="opacity:.1;fill:#fff"/></svg>