<svg xmlns="http://www.w3.org/2000/svg" width="64" height="64"><rect width="56" height="56" x="4" y="5" rx="2.8" ry="2.8" style="opacity:.2"/><rect width="56" height="56" x="4" y="4" rx="2.8" ry="2.8" style="fill:#26ace2"/><path d="M14 16v16h3.93v-7H23v-2.875h-5.07V19H24v-3zm17.04 0-5.257 16h3.5l.89-3h5.81l.89 3h3.488L35.12 16Zm2.038 2.158.084.416.166.676q.094.38.201.83l.237.865L35.246 26H30.91l1.48-5.055q.12-.426.225-.865.12-.45.215-.83t.154-.676q.071-.296.094-.416M14 35v16h4.982q1.658 0 2.96-.521a5.7 5.7 0 0 0 2.212-1.543q.9-1.031 1.373-2.55t.473-3.51q0-2.052-.51-3.533-.496-1.495-1.478-2.455-.983-.961-2.426-1.424Q20.14 35 18.27 35Zm20.389 0q-1.66 0-2.862.518a5 5 0 0 0-1.992 1.53q-.78 1.002-1.158 2.487-.378 1.474-.377 3.397 0 1.761.377 3.246.39 1.472 1.18 2.543a5.6 5.6 0 0 0 1.982 1.681q1.203.599 2.816.598.95 0 1.786-.23a9 9 0 0 0 1.547-.577 9 9 0 0 0 1.292-.77q.585-.413 1.02-.782v-6.557h-6V45h2.908v2.432q-.127.104-.355.254-.217.138-.526.275a5 5 0 0 1-.687.23 3.4 3.4 0 0 1-.813.092q-1.568 0-2.336-1.392-.767-1.393-.767-3.96 0-1.289.16-2.267.16-.99.516-1.646.355-.669.927-1.002.572-.345 1.397-.346.733 0 1.271.564.538.553.846 1.704l3.139-.622a8.5 8.5 0 0 0-.711-1.761 5 5 0 0 0-1.076-1.358q-.63-.576-1.5-.886-.86-.312-2.004-.311M42 35v16h4V35Zm-23.93 2.705h.143q1.09-.001 1.894.295.805.285 1.325.914.532.617.793 1.602.26.972.26 2.359.001 2.704-.934 4.068-.936 1.353-2.854 1.352h-.627z" style="opacity:.2"/><path d="M17.93 18v3.126H23V24h-5.07v7H14V15h10v3zm22.43 13h-3.486l-.892-3h-5.808l-.891 3h-3.499l5.254-16h4.08zm-7.282-13.841q-.023.118-.095.415-.059.296-.154.676t-.213.83q-.107.439-.226.866L30.91 25h4.336l-1.48-5.054q-.119-.427-.237-.866-.106-.45-.202-.83l-.166-.676zM26 41.875q0 1.994-.473 3.511-.474 1.518-1.373 2.55a5.7 5.7 0 0 1-2.213 1.542Q20.639 50 18.982 50H14V34h4.272q1.87 0 3.314.463 1.443.462 2.426 1.423.982.96 1.48 2.455.508 1.483.508 3.534m-3.515 0q0-1.387-.26-2.36-.26-.984-.793-1.601a2.97 2.97 0 0 0-1.325-.913q-.805-.297-1.894-.297h-.143v10.592h.628q1.917 0 2.852-1.352.935-1.365.935-4.069M40 47.64q-.435.369-1.02.783a9 9 0 0 1-1.293.771q-.71.345-1.546.576a6.7 6.7 0 0 1-1.786.23q-1.614 0-2.817-.599a5.6 5.6 0 0 1-1.98-1.68q-.79-1.071-1.18-2.544Q28 43.692 28 41.931q0-1.922.378-3.396.378-1.484 1.156-2.486a5 5 0 0 1 1.993-1.531Q32.728 34 34.389 34q1.146 0 2.004.31.87.311 1.5.887.642.564 1.076 1.358t.71 1.762l-3.137.621q-.31-1.15-.847-1.703-.54-.564-1.271-.564-.825 0-1.397.345-.573.333-.928 1.001-.354.657-.515 1.646-.16.979-.16 2.268 0 2.566.767 3.96.767 1.392 2.336 1.392.434 0 .813-.092.39-.103.687-.23.309-.138.526-.276.23-.15.355-.253V44H34v-2.917h6zM42 34h4v16h-4z" style="fill:#fff"/><path d="M44 4v16h16V6.8C60 5.249 58.751 4 57.2 4h-2.8z" style="opacity:.3"/><path d="M44 10h10v10H44z" style="opacity:.2"/><path d="M6.8 4C5.25 4 4 5.25 4 6.8v1C4 6.25 5.25 5 6.8 5h50.4C58.75 5 60 6.25 60 7.8v-1C60 5.25 58.75 4 57.2 4z" style="opacity:.2;fill:#fff"/><path d="M44 19h16v1H44z" style="opacity:.1"/><path d="M44 20h16v1H44z" style="opacity:.1;fill:#fff"/></svg>