<svg xmlns="http://www.w3.org/2000/svg" width="64" height="64"><circle cx="32" cy="33" r="29" style="opacity:.2"/><circle cx="32" cy="32" r="29" style="fill:#3584e4"/><path d="M24.869 60.051 32 32 15.118 8.504A29 29 0 0 0 3 32c.026 13.248 9.027 24.794 21.869 28.051m0 0" style="fill:#fff;opacity:.2"/><path d="m57.96 19.09-.401-.074L32 32l14.467 25.058A29 29 0 0 0 61 32a29 29 0 0 0-3.04-12.91m0 0" style="opacity:.15"/><circle cx="32" cy="33" r="13" style="opacity:.1"/><circle cx="32" cy="32" r="13" style="fill:#3d3846"/><path d="M32 19v26a13 13 0 0 0 13-13 13 13 0 0 0-13-13" style="fill:#fff;opacity:.2"/><circle cx="32" cy="33" r="3" style="opacity:.1"/><circle cx="32" cy="32" r="3" style="fill:#241f31"/><path d="M32 3A29 29 0 0 0 3 32a29 29 0 0 0 .033.496A29 29 0 0 1 32 4a29 29 0 0 1 28.967 28.496A29 29 0 0 0 61 32 29 29 0 0 0 32 3" style="fill:#fff;opacity:.2"/></svg>