<svg xmlns="http://www.w3.org/2000/svg" width="64" height="64"><path d="M24 4c-.526 0-.927.432-1.369.762-2.227 1.862-4.41 2.666-6.23 2.667-.956-.027-1.501-.68-1.963-.96-.465-.28-.676-.688-1.612-.988a1.35 1.35 0 0 0-1.256.232L8.502 8.386a1.346 1.346 0 0 0-.213 1.881c.051.065.402.642.654 1.121.253.479.382.751.508.992q.025.05.055.096c.052.083 2.112 3.234-.251 9.385-1.283 3.343-2.05 6.94.654 12.483 2.814 5.76 7.978 6.38 9.777 7.105 1.719.7 2.396 1.108 2.9 1.627.42.448.827.924 1.412.924s.958-.52 1.415-.926c.505-.518 1.181-.926 2.896-1.625l.003-.002c1.8-.725 6.998-1.346 9.81-7.103 2.705-5.543 1.938-9.14.655-12.483-2.362-6.15-.411-9.184-.277-9.404l.016-.024c.147-.253.113-.219.203-.396s.209-.407.336-.647c.254-.48.605-1.058.656-1.123.458-.58.363-1.42-.213-1.883l-3.074-2.67a1.35 1.35 0 0 0-1.258-.231c-.934.303-1.143.706-1.607.986s-1.008.933-1.965.96c-1.828-.001-4.035-.808-6.286-2.717C24.891 4.322 24.526 4 24 4" style="opacity:.2" transform="matrix(1.37499 0 0 1.4 -1 -.6)"/><path d="M24 4c-.526 0-.927.432-1.369.762-2.227 1.862-4.41 2.666-6.23 2.667-.956-.027-1.501-.68-1.963-.96-.465-.28-.676-.688-1.612-.988a1.35 1.35 0 0 0-1.256.232L8.502 8.386a1.346 1.346 0 0 0-.213 1.881c.051.065.402.642.654 1.121.253.479.382.751.508.992q.025.05.055.096c.052.083 2.112 3.234-.251 9.385-1.283 3.343-2.05 6.94.654 12.483 2.814 5.76 7.978 6.38 9.777 7.105 1.719.7 2.396 1.108 2.9 1.627.42.448.827.924 1.412.924s.958-.52 1.415-.926c.505-.518 1.181-.926 2.896-1.625l.003-.002c1.8-.725 6.998-1.346 9.81-7.103 2.705-5.543 1.938-9.14.655-12.483-2.362-6.15-.411-9.184-.277-9.404l.016-.024c.147-.253.113-.219.203-.396s.209-.407.336-.647c.254-.48.605-1.058.656-1.123.458-.58.363-1.42-.213-1.883l-3.074-2.67a1.35 1.35 0 0 0-1.258-.231c-.934.303-1.143.706-1.607.986s-1.008.933-1.965.96c-1.828-.001-4.035-.808-6.286-2.717C24.891 4.322 24.526 4 24 4" style="fill:#00b7cd" transform="matrix(1.37499 0 0 1.4 -1 -1.6)"/><path d="M38.127 25.5c.481 0 .873-.419.873-.94v-.624c0-.516-.392-.936-.873-.936H25.873c-.481 0-.873.42-.873.936v.629c0 .516.392.936.873.936 0 3.553 1.86 6.553 4.406 7.501-2.546.944-4.406 3.944-4.406 7.497-.481 0-.873.42-.873.94v.625c0 .516.392.936.873.936h12.254c.481 0 .873-.42.873-.936v-.629c0-.516-.392-.936-.873-.936 0-3.553-1.86-6.553-4.406-7.497 2.546-.948 4.406-3.948 4.406-7.501" style="opacity:.2"/><path fill="#fff" d="M38.127 24.5c.481 0 .873-.419.873-.94v-.624c0-.516-.392-.936-.873-.936H25.873c-.481 0-.873.42-.873.936v.629c0 .516.392.936.873.936 0 3.553 1.86 6.553 4.406 7.501-2.546.944-4.406 3.944-4.406 7.497-.481 0-.873.42-.873.94v.625c0 .516.392.936.873.936h12.254c.481 0 .873-.42.873-.936v-.629c0-.516-.392-.936-.873-.936 0-3.553-1.86-6.553-4.406-7.497 2.546-.948 4.406-3.948 4.406-7.501"/><path d="M32 4c-.723 0-1.275.605-1.883 1.066-3.063 2.608-6.062 3.733-8.566 3.735-1.314-.038-2.064-.953-2.7-1.344-.638-.393-.93-.962-2.216-1.383a1.82 1.82 0 0 0-1.727.324l-4.219 3.743a1.9 1.9 0 0 0-.62 1.976c.098-.371.304-.717.62-.976l4.22-3.743a1.82 1.82 0 0 1 1.726-.324c1.286.42 1.578.99 2.217 1.383.635.391 1.385 1.306 2.699 1.344 2.504-.002 5.503-1.127 8.566-3.735C30.725 5.605 31.277 5 32 5s1.225.45 1.799.996C36.893 8.67 39.928 9.8 42.44 9.801c1.316-.038 2.066-.953 2.702-1.344.638-.393.924-.957 2.209-1.38a1.83 1.83 0 0 1 1.73.321l4.227 3.74c.317.26.524.607.623.98a1.9 1.9 0 0 0-.623-1.98l-4.227-3.74a1.83 1.83 0 0 0-1.73-.322c-1.285.424-1.57.988-2.21 1.381-.635.391-1.385 1.306-2.7 1.344-2.514-.002-5.549-1.132-8.643-3.805C33.225 4.45 32.723 4 32 4m18.736 17.676c-.07 2.084.267 4.843 1.582 8.33.841 2.231 1.514 4.547 1.592 7.197.087-3.076-.647-5.69-1.592-8.197-1.115-2.956-1.523-5.386-1.582-7.33m-37.468.105c-.056 1.939-.455 4.34-1.543 7.225-.944 2.503-1.677 5.113-1.592 8.183.08-2.644.752-4.956 1.592-7.183 1.283-3.403 1.612-6.14 1.543-8.225" style="opacity:.2;fill:#fff"/></svg>