<svg xmlns="http://www.w3.org/2000/svg" width="64" height="64"><rect width="48" height="34" x="8" y="3" rx="2.5" ry="2.5" style="fill:#5895dc"/><rect width="48" height="34" x="8" y="8" rx="2.5" ry="2.5" style="opacity:.1"/><rect width="48" height="34" x="8" y="9" rx="2.5" ry="2.5" style="fill:#89e058"/><rect width="48" height="34" x="8" y="14" rx="2.5" ry="2.5" style="opacity:.1"/><rect width="48" height="34" x="8" y="15" rx="2.5" ry="2.5" style="fill:#ffcd54"/><rect width="56" height="40" x="4" y="22" rx="3" ry="3" style="opacity:.2"/><rect width="56" height="40" x="4" y="21" rx="3" ry="3" style="fill:#8e8e8e"/><rect width="20" height="6" x="22" y="38" rx="2" ry="2" style="opacity:.2"/><rect width="20" height="6" x="22" y="37" rx="2" ry="2" style="fill:#ececec"/><path d="M10.5 3A2.495 2.495 0 0 0 8 5.5v1C8 5.115 9.115 4 10.5 4h43C54.885 4 56 5.115 56 6.5v-1C56 4.115 54.885 3 53.5 3zm0 6A2.495 2.495 0 0 0 8 11.5v1c0-1.385 1.115-2.5 2.5-2.5h43c1.385 0 2.5 1.115 2.5 2.5v-1c0-1.385-1.115-2.5-2.5-2.5Zm0 6A2.495 2.495 0 0 0 8 17.5v1c0-1.385 1.115-2.5 2.5-2.5h43c1.385 0 2.5 1.115 2.5 2.5v-1c0-1.385-1.115-2.5-2.5-2.5Z" style="fill:#fff;opacity:.1"/><circle cx="48" cy="47" r="16" style="opacity:.2"/><circle cx="48" cy="46" r="16" style="fill:#6ec149"/><path d="m46 38-.176 2.107a6.3 6.3 0 0 0-1.837 1.063l-1.916-.902-2 3.464 1.74 1.208a6.3 6.3 0 0 0-.097 1.06 6.3 6.3 0 0 0 .092 1.065l-1.735 1.203 2 3.464 1.91-.9a6.3 6.3 0 0 0 1.842 1.056L46 54h4l.176-2.107a6.3 6.3 0 0 0 1.837-1.063l1.915.902 2-3.464-1.738-1.208a6.3 6.3 0 0 0 .096-1.06 6.3 6.3 0 0 0-.092-1.065l1.735-1.203-2-3.464-1.911.9a6.3 6.3 0 0 0-1.842-1.057L50 38zm2 5.714A2.286 2.286 0 0 1 50.286 46 2.286 2.286 0 0 1 48 48.286 2.286 2.286 0 0 1 45.714 46 2.286 2.286 0 0 1 48 43.714" style="fill:#fff"/></svg>