<svg xmlns="http://www.w3.org/2000/svg" width="64" height="64"><rect width="56" height="56" x="-61" y="-60" rx="2.8" ry="2.8" style="opacity:.2" transform="rotate(90)scale(-1 1)"/><rect width="56" height="56" x="-60" y="-60" rx="2.8" ry="2.8" style="fill:#e83838" transform="rotate(90)scale(-1 1)"/><path d="M38 7h16v22H38zm22 50.2V32H4v25.2C4 58.751 5.249 60 6.8 60h50.4c1.551 0 2.8-1.249 2.8-2.8" style="opacity:.2"/><circle cx="18" cy="19" r="8" style="opacity:.2"/><circle cx="18" cy="18" r="8" style="fill:#bbb"/><path d="M38 7h8v4h-8zm0 6h12v4H38z" style="fill:#3fea3f"/><path d="M38 19h6v4h-6zm0 6h14v4H38z" style="fill:#00ffed"/><path d="M18 10a8 8 0 0 0-8 8 8 8 0 0 0 .023.4A8 8 0 0 1 18 11a8 8 0 0 1 7.975 7.477A8 8 0 0 0 26 18a8 8 0 0 0-8-8M6.8 4C5.25 4 4 5.25 4 6.8v1C4 6.25 5.25 5 6.8 5h50.4C58.75 5 60 6.25 60 7.8v-1C60 5.25 58.75 4 57.2 4z" style="opacity:.2;fill:#fff"/><path d="M4 32h56v1H4zm34 3h16v22H38z" style="opacity:.2"/><circle cx="18" cy="47" r="8" style="opacity:.2"/><circle cx="18" cy="46" r="8" style="fill:#bbb"/><path d="M38 35h8v4h-8zm0 6h12v4H38z" style="fill:#3fea3f"/><path d="M38 47h6v4h-6zm0 6h14v4H38z" style="fill:#00ffed"/><path d="M18 38a8 8 0 0 0-8 8 8 8 0 0 0 .023.4A8 8 0 0 1 18 39a8 8 0 0 1 7.975 7.477A8 8 0 0 0 26 46a8 8 0 0 0-8-8" style="opacity:.2;fill:#fff"/></svg>