<svg xmlns="http://www.w3.org/2000/svg" width="64" height="64"><rect width="58" height="58" x="-62" y="-61" rx="2.9" ry="2.9" style="opacity:.2" transform="rotate(90)scale(-1 1)"/><rect width="58" height="58" x="-61" y="-61" rx="2.9" ry="2.9" style="fill:#752828" transform="rotate(90)scale(-1 1)"/><path d="M19 33c10.61 0 15.39 20 26 20" style="opacity:.2;fill:none;stroke:#000;stroke-width:3"/><path d="M19 32c10.61 0 15.39 20 26 20" style="fill:none;stroke:#6c7f94;stroke-width:3"/><path d="M19 13c10.61 0 15.39 20 26 20" style="opacity:.2;fill:none;stroke:#000;stroke-width:3"/><path d="m15.024 30-.048.055L12 33l3.024 3H21v-6z" style="opacity:.2;fill-rule:evenodd"/><path d="m15.024 29-.048.055L12 32l3.024 3H21v-6z" style="fill:#4c66cc;fill-rule:evenodd"/><path d="M43 50v6h6.034L52 53l-2.966-3h-.068z" style="opacity:.2;fill-rule:evenodd"/><path d="M43 49v6h6.034L52 52l-2.966-3h-.068z" style="fill:#4c66cc;fill-rule:evenodd"/><path d="M19 12c10.61 0 15.39 20 26 20" style="fill:none;stroke:#6c7f94;stroke-width:3"/><path d="m15.024 10-.048.055L12 13l3.024 3H21v-6z" style="opacity:.2;fill-rule:evenodd"/><path d="m15.024 9-.048.055L12 12l3.024 3H21V9Z" style="fill:#4c66cc;fill-rule:evenodd"/><path d="M43 30v6h6.034L52 33l-2.966-3h-.068z" style="opacity:.2;fill-rule:evenodd"/><path d="M43 29v6h6.034L52 32l-2.966-3h-.068z" style="fill:#4c66cc;fill-rule:evenodd"/><path d="M5.898 3A2.89 2.89 0 0 0 3 5.898v1A2.89 2.89 0 0 1 5.898 4h52.204A2.89 2.89 0 0 1 61 6.898v-1A2.89 2.89 0 0 0 58.102 3z" style="opacity:.1;fill:#fff"/></svg>