<svg xmlns="http://www.w3.org/2000/svg" width="64" height="64"><circle cx="32" cy="33" r="28" style="opacity:.2"/><circle cx="32" cy="32" r="28" style="fill:#426180"/><path d="M10 40c0 8 5 11 5 11v-2l9 5 2-2s6-3 12 0l2 2s1.896-1.117 3-2c3.904-3.123 8 0 8 0s4-4 4-16 .953-20.029-22.765-20.029C15.295 15.971 10 16 10 40" style="opacity:.1"/><path d="M32 4A28 28 0 0 0 4 32a28 28 0 0 0 .022.586A28 28 0 0 1 32 5a28 28 0 0 1 27.979 27.414L60 32A28 28 0 0 0 32 4" style="opacity:.2;fill:#fff"/><path d="M10 39c0 8 5 11 5 11v-2l9 5 2-2s6-3 12 0l2 2s1.896-1.117 3-2c3.904-3.123 8 0 8 0s4-4 4-16 .953-20.029-22.765-20.029C15.295 14.971 10 15 10 39" style="fill:#4f4f4f"/><rect width="40" height="27" x="12" y="22" rx="8" ry="8" style="opacity:.2"/><rect width="40" height="27" x="12" y="21" rx="8" ry="8" style="fill:#e4e4e4"/><path d="M19 30c-1.662 0-3 1.338-3 3v5c0 1.662 1.338 3 3 3s3-1.338 3-3v-5c0-1.662-1.338-3-3-3m22 0c-1.662 0-3 1.338-3 3v5c0 1.662 1.338 3 3 3s3-1.338 3-3v-5c0-1.662-1.338-3-3-3" style="opacity:.2"/><rect width="6" height="11" x="38" y="29" rx="3" ry="3" style="fill:#426180"/><path d="M24 22c0 8 8 10 8 10V22s-8-2.743-8 0m8 0s8.141 15.914 20 15.914L53.058 27.5c.382-3.764-4.976-9.115-9.246-8.155z" style="opacity:.2"/><path d="M24 21c0 8 8 10 8 10V21s-8-2.743-8 0m8 0s8.141 15.914 20 15.914L53.058 26.5c.382-3.764-4.976-9.115-9.246-8.155z" style="fill:#4f4f4f"/><path d="m60 16-2 11c-2.824-2.743-6-3-6-3v16.657S60 41 60 32l3-16z" style="opacity:.2"/><path d="m60 15-2 11c-2.824-2.743-6-3-6-3v16.657S60 40 60 31l3-16z" style="fill:#7cac5a"/><path d="m60 15-2 11c-2.824-2.743-6-3-6-3v1s3.176.257 6 3l2-11h2.813L63 15z" style="opacity:.2;fill:#fff"/><path d="M4 24h50s1-11-7-11H20c-7 0-6.882 8-6.882 8H4z" style="opacity:.2"/><path d="M4 23h50s1-11-7-11H20c-7 0-6.882 8-6.882 8H4z" style="fill:#df371c"/><path d="M20 12c-5.95 0-6.749 5.74-6.857 7.475.354-2.317 1.678-6.475 6.74-6.475h27c6.577 0 7.061 7.355 7.03 10H54s1-11-7-11zM4 20v1h9s.007-.417.068-1z" style="opacity:.2;fill:#fff"/><path d="M13 21h34v-8s0-3-3-3H16c-2.824 0-3 3-3 3z" style="opacity:.2"/><path d="M13 20h34v-8s0-3-3-3H16c-2.824 0-3 3-3 3z" style="fill:#ccc"/><circle cx="41" cy="15" r="3" style="fill:#999"/><circle cx="19" cy="15" r="3" style="fill:#999"/><rect width="6" height="11" x="16" y="29" rx="3" ry="3" style="fill:#426180"/><path d="M16 9c-2.824 0-3 3-3 3v1s.176-3 3-3h28c3 0 3 3 3 3v-1s0-3-3-3z" style="opacity:.2;fill:#fff"/></svg>