<svg xmlns="http://www.w3.org/2000/svg" width="64" height="64"><ellipse cx="32" cy="28" rx="28" ry="24" style="opacity:.2"/><ellipse cx="32" cy="27" rx="28" ry="24" style="fill:#5c3a62"/><path d="M24.5 13A10.5 10.5 0 0 0 14 23.5 10.5 10.5 0 0 0 24.5 34a10.5 10.5 0 0 0 7.494-3.16A10.5 10.5 0 0 0 39.5 34 10.5 10.5 0 0 0 50 23.5 10.5 10.5 0 0 0 39.5 13a10.5 10.5 0 0 0-7.494 3.16A10.5 10.5 0 0 0 24.5 13" style="opacity:.2"/><circle cx="24.5" cy="22.5" r="10.5" style="fill:#fff"/><circle cx="39.5" cy="22.5" r="10.5" style="fill:#fff"/><circle cx="26" cy="23" r="4" style="fill:#3465a4"/><circle cx="38" cy="23" r="4" style="fill:#3465a4"/><path d="M31.892 27c-2.122.074-3.418 2.053-4.432 3.638-1.69 2.883-2.875 6.239-2.323 9.599.43 2.94.982 5.87 1.66 8.763 1.197 4.557 2.28 9.208 4.477 13.425.937 1.72 1.807-.891 2.205-1.709 2.261-5.51 3.833-11.276 5.031-17.09.646-3.14.764-6.457-.328-9.518-.89-2.619-2.198-5.457-4.823-6.788a3.5 3.5 0 0 0-1.467-.32" style="opacity:.2"/><path d="M31.892 26c-2.122.074-3.418 2.053-4.432 3.638-1.69 2.883-2.875 6.239-2.323 9.599.43 2.94.982 5.87 1.66 8.763 1.197 4.557 2.28 9.208 4.477 13.425.937 1.72 1.807-.891 2.205-1.709 2.261-5.51 3.833-11.276 5.031-17.09.646-3.14.764-6.457-.328-9.518-.89-2.619-2.198-5.457-4.823-6.788a3.5 3.5 0 0 0-1.467-.32" style="fill:#7e7a81"/><path d="M32 3A28 24 0 0 0 4 27a28 24 0 0 0 .023.586A28 24 0 0 1 32 4a28 24 0 0 1 27.977 23.414A28 24 0 0 0 60 27 28 24 0 0 0 32 3" style="opacity:.1;fill:#fff"/></svg>