<svg xmlns="http://www.w3.org/2000/svg" xmlns:xlink="http://www.w3.org/1999/xlink" width="64" height="64"><defs><radialGradient xlink:href="#a" id="b" cx="4.648" cy="57.662" r="26" fx="4.648" fy="57.662" gradientTransform="rotate(-15 -207.046 110.703)scale(2.95134 1.81621)" gradientUnits="userSpaceOnUse"/><linearGradient id="a"><stop offset="0" style="stop-color:#4c4c4c;stop-opacity:1"/><stop offset="1" style="stop-color:#727272;stop-opacity:1"/></linearGradient></defs><rect width="52" height="32" x="6" y="16" rx="9.468" ry="9.468" style="fill:url(#b)"/><path d="M15.666 23c-1.462 0-2.879 1.077-2.639 2.375l2.639 14.25c.24 1.298 1.177 2.375 2.639 2.375h26.39c1.462 0 2.399-1.077 2.639-2.375l2.639-14.25c.24-1.298-1.177-2.375-2.639-2.375zm4.834 4a2.5 2.5 0 0 1 2.5 2.5 2.5 2.5 0 0 1-2.5 2.5 2.5 2.5 0 0 1-2.5-2.5 2.5 2.5 0 0 1 2.5-2.5m7 0a2.5 2.5 0 0 1 2.5 2.5 2.5 2.5 0 0 1-2.5 2.5 2.5 2.5 0 0 1-2.5-2.5 2.5 2.5 0 0 1 2.5-2.5m7 0a2.5 2.5 0 0 1 2.5 2.5 2.5 2.5 0 0 1-2.5 2.5 2.5 2.5 0 0 1-2.5-2.5 2.5 2.5 0 0 1 2.5-2.5m7 0a2.5 2.5 0 0 1 2.5 2.5 2.5 2.5 0 0 1-2.5 2.5 2.5 2.5 0 0 1-2.5-2.5 2.5 2.5 0 0 1 2.5-2.5m-17 6a2.5 2.5 0 0 1 2.5 2.5 2.5 2.5 0 0 1-2.5 2.5 2.5 2.5 0 0 1-2.5-2.5 2.5 2.5 0 0 1 2.5-2.5m7 0a2.5 2.5 0 0 1 2.5 2.5 2.5 2.5 0 0 1-2.5 2.5 2.5 2.5 0 0 1-2.5-2.5 2.5 2.5 0 0 1 2.5-2.5m7 0a2.5 2.5 0 0 1 2.5 2.5 2.5 2.5 0 0 1-2.5 2.5 2.5 2.5 0 0 1-2.5-2.5 2.5 2.5 0 0 1 2.5-2.5" style="fill:#000;fill-opacity:1;opacity:.45"/><rect width="10" height="10" x="2" y="27" rx="5" ry="5" style="fill:#b3b3b3"/><circle cx="7" cy="32" r="3" style="opacity:.5"/><rect width="10" height="10" x="51" y="27" rx="5" ry="5" style="fill:#b3b3b3"/><circle cx="56" cy="32" r="3" style="opacity:.5"/></svg>