<svg xmlns="http://www.w3.org/2000/svg" width="64" height="64"><circle cx="32" cy="33" r="28" style="opacity:.2"/><circle cx="32" cy="32" r="28" style="fill:#ea4335"/><path d="M36.059 50.554c5.54-1.845 9.88-5.007 12.363-10.12C49.53 38.1 50 35.833 50 32.804c0-3.053-.451-5-1.806-7.777-3.819-6.99-10.436-10.253-17.152-10.016-3.494.123-5.318.612-8.39 2.195-2.877 1.483-5.802 4.444-7.124 7.213-3.25 6.807-1.179 13.495 4.914 15.871.944.369 2.095.519 4.846.634 1.828.04 3.212-.282 4.438 1.055 1.11 1.212 1.142 2.505.1 4.072-1.092 1.642-1 3.715.539 4.482 1.456.726 3.655.501 5.694.02" style="opacity:.2"/><path d="M36.059 49.554c5.54-1.845 9.88-5.007 12.363-10.12C49.53 37.1 50 34.833 50 31.804c0-3.053-.451-5-1.806-7.777-3.819-6.99-10.436-10.253-17.152-10.016-3.494.123-5.318.612-8.39 2.195-2.877 1.483-5.802 4.444-7.124 7.213-3.25 6.807-1.179 13.495 4.914 15.871.944.369 2.095.519 4.846.634 1.828.04 3.212-.282 4.438 1.055 1.11 1.212 1.142 2.505.1 4.072-1.092 1.642-1 3.715.539 4.482 1.456.726 3.655.501 5.694.02" style="fill:#fff"/><circle cx="43" cy="28" r="3" style="fill:#f28b82"/><circle cx="21" cy="28" r="3" style="fill:#f0a1e4"/><circle cx="27" cy="21" r="3" style="fill:#f28b82"/><circle cx="37" cy="21" r="3" style="fill:#f0a1e4"/><path d="M28 26.743c1.76 1.902 3.861.522 5.081 1.97.656.779.504 2.942.504 2.942l-1.22 1.017c-4.742-.687-4.182-3.454-4.365-5.929" style="fill:#ea4335"/><path d="M33.25 31.655c.554-.232.823.045 1.282.292 3.342 1.964 7.625 6.831 12.894 13.504 1.026 1.471.424 2.56-1.036 1.566-5.048-4-9.834-8.251-13.915-13.18-.241-.318-.493-.63-.37-1.165Z" style="fill:#f0a1e4"/><path d="M32 4A28 28 0 0 0 4 32a28 28 0 0 0 .033.482A28 28 0 0 1 32 5a28 28 0 0 1 27.982 27.242L60 32A28 28 0 0 0 32 4" style="opacity:.2;fill:#fff"/></svg>