<svg xmlns="http://www.w3.org/2000/svg" width="64" height="64"><path d="M4 56.2v2C4 59.75 5.25 61 6.8 61h50.4c1.55 0 2.8-1.25 2.8-2.8v-2c0 1.55-1.25 2.8-2.8 2.8H6.8C5.25 59 4 57.75 4 56.2" style="opacity:.2"/><rect width="56" height="56" x="4" y="4" rx="2.8" ry="2.8" style="fill:#feb625"/><path d="M35.102 33.902c-2.383 1.203-5.007 1.927-7.495 1.937q-6.064 0-9.609-3.382-3.544-3.397-3.544-9.202 0-5.82 3.544-9.202 3.544-3.398 9.609-3.398c2.705.029 5.305.814 7.495 1.937v5.172c-2.148-1.23-4.674-1.989-6.991-2.002-2.233 0-4.49.715-5.769 2.146-1.279 1.43-1.918 2.833-1.918 5.347 0 2.504.64 3.9 1.918 5.331 1.28 1.43 3.536 2.146 5.769 2.146 2.491-.134 5.19-.8 6.991-2.001z" style="opacity:.1" transform="matrix(1.35604 0 0 1.42946 -1.6 -.23)"/><path d="M35.102 33.902c-2.383 1.203-5.007 1.927-7.495 1.937q-6.064 0-9.609-3.382-3.544-3.397-3.544-9.202 0-5.82 3.544-9.202 3.544-3.398 9.609-3.398c2.705.029 5.305.814 7.495 1.937v5.172c-2.148-1.23-4.674-1.989-6.991-2.002-2.233 0-4.49.715-5.769 2.146-1.279 1.43-1.918 2.833-1.918 5.347 0 2.504.64 3.9 1.918 5.331 1.28 1.43 3.536 2.146 5.769 2.146 2.491-.134 5.19-.8 6.991-2.001z" style="fill:#424242" transform="matrix(1.35604 0 0 1.42946 -1.6 -1.23)"/><path d="M6.8 4C5.25 4 4 5.25 4 6.8v1.003a2.796 2.796 0 0 1 2.8-2.801h50.4c1.55 0 2.8 1.25 2.8 2.8v-1A2.796 2.796 0 0 0 57.2 4z" style="opacity:.2;fill:#fff"/></svg>