<svg xmlns="http://www.w3.org/2000/svg" width="64" height="64"><circle cx="32" cy="33" r="28" style="opacity:.2"/><circle cx="32" cy="32" r="28" style="fill:#f50057"/><path d="M32 4A28 28 0 0 0 4 32a28 28 0 0 0 .021.586A28 28 0 0 1 32 5a28 28 0 0 1 27.979 27.414L60 32A28 28 0 0 0 32 4" style="opacity:.2;fill:#fff"/><path d="M32 16a17 17 0 0 0-17 17 17 17 0 0 0 17 17 17 17 0 0 0 17-17 17 17 0 0 0-17-17m-.027 3H32a14 14 0 0 1 14 14 14 14 0 0 1-14 14 14 14 0 0 1-14-14 14 14 0 0 1 13.973-14m-5.026 6.389A1.125 1.125 0 0 0 26 26.5v13a1.125 1.125 0 0 0 1.709.963L33 37.25l5.291-3.213a1.214 1.214 0 0 0 0-2.074L33 28.75l-5.291-3.213a1.13 1.13 0 0 0-.762-.148" style="opacity:.2"/><path d="M32 15a17 17 0 0 0-17 17 17 17 0 0 0 17 17 17 17 0 0 0 17-17 17 17 0 0 0-17-17m-.027 3H32a14 14 0 0 1 14 14 14 14 0 0 1-14 14 14 14 0 0 1-14-14 14 14 0 0 1 13.973-14m-5.026 6.389A1.125 1.125 0 0 0 26 25.5v13a1.125 1.125 0 0 0 1.709.963L33 36.25l5.291-3.213a1.214 1.214 0 0 0 0-2.074L33 27.75l-5.291-3.213a1.13 1.13 0 0 0-.762-.148" style="fill:#212121"/></svg>