<svg xmlns="http://www.w3.org/2000/svg" xmlns:xlink="http://www.w3.org/1999/xlink" width="64" height="64"><defs><radialGradient id="a" cx="-159.431" cy="15.463" r="64.707" fx="-159.431" fy="15.463" gradientTransform="matrix(-.89413 0 0 .96305 -21.263 49.377)" gradientUnits="userSpaceOnUse"><stop offset="0" style="stop-color:#006fff;stop-opacity:1"/><stop offset="1" style="stop-color:#15baff;stop-opacity:1"/></radialGradient><radialGradient xlink:href="#a" id="b" cx="57.851" cy="50.898" r="18.182" fx="57.851" fy="50.898" gradientTransform="matrix(0 -2.67776 2.67506 0 -78.304 209.078)" gradientUnits="userSpaceOnUse"/><filter id="d" width="1.13" height="1.118" x="-.067" y="-.059" style="color-interpolation-filters:sRGB"><feGaussianBlur stdDeviation=".97"/></filter><filter id="c" width="1.16" height="1.145" x="-.08" y="-.073" style="color-interpolation-filters:sRGB"><feGaussianBlur stdDeviation="1.176"/></filter></defs><path d="m48.499 41.988-11.907 6.875a6.18 6.18 0 0 1-6.175 0l-11.908-6.875a6.18 6.18 60 0 1-3.087-5.348V22.89a6.18 6.18 120 0 1 3.087-5.347l11.908-6.874a6.18 6.18 0 0 1 6.175 0l11.907 6.874a6.18 6.18 60 0 1 3.088 5.348v13.75a6.18 6.18 120 0 1-3.088 5.347" style="opacity:1;fill:url(#b);stroke-width:.2;stroke-linecap:square;stroke-miterlimit:7.4" transform="translate(-14.81 -9.586)scale(1.39711)"/><path d="m48.499 41.988-11.907 6.875a6.18 6.18 0 0 1-6.175 0l-11.908-6.875a6.18 6.18 60 0 1-3.087-5.348V22.89a6.18 6.18 120 0 1 3.087-5.347l11.908-6.874a6.18 6.18 0 0 1 6.175 0l11.907 6.874a6.18 6.18 60 0 1 3.088 5.348v13.75a6.18 6.18 120 0 1-3.088 5.347z" style="fill:none;stroke-width:.14315264;stroke-linecap:square;stroke-miterlimit:7.4;stroke:#000;stroke-opacity:1;stroke-dasharray:none;filter:url(#c)" transform="translate(-14.81 -9.586)scale(1.39711)"/><path d="M33.067 10.737v.004c-.002 3.066.001 6.133 0 9.199L50.71 29.982c.142.076.278.168.428.232v-7.222a2.6 2.6 0 0 0-.054-.648 3.23 3.23 0 0 0-1.097-1.914c-.309-.268-.68-.442-1.03-.648L36.835 12.88c-1.256-.713-2.509-1.432-3.767-2.143m-2.13.004c-.206.115-.406.234-.61.349l-15.699 9.02c-.18.102-.358.209-.519.337a3.23 3.23 0 0 0-1.23 2.304v6.96c.003.23.004.465.046.694.078.525.339 1.021.736 1.38.227.22.515.36.784.522 2.258 1.365 6.921 3.946 6.921 3.946l.005-10.561 9.566-5.744zm11.686 17.002.017.009v-.009zm.017.009-.008 10.627s-6.207 3.766-9.565 5.685c.001 3.065-.005 6.13 0 9.195q.523-.296 1.047-.598l15.038-8.642c.261-.153.53-.296.764-.486a3.23 3.23 0 0 0 1.158-1.898c.086-.404.054-.817.059-1.225v-6.126c-.003-.234 0-.476-.042-.71a2.34 2.34 0 0 0-1.109-1.645 874 874 0 0 0-7.342-4.177m-29.769 6.03-.008.004.008.004zm0 .008v7.08c.003.137 0 .276 0 .416a3.3 3.3 0 0 0 .574 1.657c.27.391.634.725 1.05.964 5.48 3.118 10.955 6.238 16.434 9.356q.003-4.599.004-9.199c-1.407-.804-2.816-1.602-4.224-2.404l-13.455-7.662c-.127-.067-.248-.149-.382-.208" style="fill:#fff;stroke-width:1.06316"/><path d="M33.067 10.737v.004c-.003 3.066 0 6.133 0 9.199 5.88 3.348 11.76 6.692 17.642 10.042.141.076.277.168.427.232v-7.222a2.6 2.6 0 0 0-.054-.648 3.23 3.23 0 0 0-1.096-1.914c-.309-.268-.68-.442-1.03-.648L36.834 12.88c-1.256-.713-2.51-1.432-3.767-2.143zm-2.13.004c-.206.115-.406.234-.611.349l-15.698 9.02c-.18.102-.359.209-.52.336a3.23 3.23 0 0 0-1.229 2.305v6.96c.002.23.003.465.046.694.077.525.338 1.021.735 1.38.228.22.516.36.785.522 2.258 1.365 6.92 3.946 6.92 3.946l.005-10.561 9.567-5.744zm11.686 17.002.016.009v-.009zm.016.009-.008 10.627s-6.206 3.766-9.564 5.685c.001 3.065-.005 6.13 0 9.195.347-.196.697-.398 1.046-.598l15.038-8.642c.262-.153.53-.296.764-.486a3.23 3.23 0 0 0 1.159-1.898c.086-.404.054-.817.058-1.225v-6.126c-.002-.234.002-.476-.041-.71a2.34 2.34 0 0 0-1.11-1.645 874 874 0 0 0-7.342-4.177zm-29.768 6.03-.008.004.008.004zm0 .008v7.08q.002.206 0 .416a3.3 3.3 0 0 0 .573 1.657c.27.391.635.725 1.05.964 5.48 3.118 10.955 6.238 16.434 9.356.004-3.066.002-6.132.004-9.199-1.406-.804-2.815-1.602-4.223-2.404q-6.727-3.832-13.456-7.662c-.126-.067-.248-.149-.382-.208z" style="fill:none;stroke-width:.2;stroke:#0024ff;stroke-opacity:1;stroke-dasharray:none;filter:url(#d)"/></svg>