<svg xmlns="http://www.w3.org/2000/svg" width="64" height="64"><rect width="56" height="56" x="-59" y="-60" rx="28" ry="28" style="opacity:.2" transform="rotate(90)scale(-1 1)"/><rect width="56" height="56" x="-58" y="-60" rx="28" ry="28" style="fill:#2071c5" transform="rotate(90)scale(-1 1)"/><path d="M32 11a2 2 0 0 0-.191.012C20.875 11.116 12 20.042 12 31c0 11.022 8.978 20 20 20 10.955 0 19.88-8.871 19.988-19.8A2 2 0 0 0 52 31a2 2 0 0 0-2-2 2 2 0 0 0-2 2c0 8.86-7.14 16-16 16s-16-7.14-16-16 7.14-16 16-16a2 2 0 0 0 2-2 2 2 0 0 0-2-2m0 8a2 2 0 0 0-.191.008C25.293 19.112 20 24.46 20 31c0 6.604 5.396 12 12 12 6.536 0 11.88-5.29 11.988-11.8A2 2 0 0 0 44 31a2 2 0 0 0-2-2 2 2 0 0 0-2 2c0 4.442-3.558 8-8 8s-8-3.558-8-8 3.558-8 8-8a2 2 0 0 0 2-2 2 2 0 0 0-2-2m0 8a4 4 0 0 0-4 4 4 4 0 0 0 4 4 4 4 0 0 0 4-4 4 4 0 0 0-4-4" style="opacity:.2"/><path d="M32 10a2 2 0 0 0-.191.012C20.875 10.116 12 19.042 12 30c0 11.022 8.978 20 20 20 10.955 0 19.88-8.871 19.988-19.8A2 2 0 0 0 52 30a2 2 0 0 0-2-2 2 2 0 0 0-2 2c0 8.86-7.14 16-16 16s-16-7.14-16-16 7.14-16 16-16a2 2 0 0 0 2-2 2 2 0 0 0-2-2m0 8a2 2 0 0 0-.191.008C25.293 18.112 20 23.46 20 30c0 6.604 5.396 12 12 12 6.536 0 11.88-5.29 11.988-11.8A2 2 0 0 0 44 30a2 2 0 0 0-2-2 2 2 0 0 0-2 2c0 4.442-3.558 8-8 8s-8-3.558-8-8 3.558-8 8-8a2 2 0 0 0 2-2 2 2 0 0 0-2-2m0 8a4 4 0 0 0-4 4 4 4 0 0 0 4 4 4 4 0 0 0 4-4 4 4 0 0 0-4-4" style="fill:#fff"/><path d="M32 2C16.488 2 4 14.488 4 30c0 .113.011.224.018.336C4.369 15.134 16.71 3 32 3s27.63 12.134 27.982 27.336c.007-.112.018-.223.018-.336C60 14.488 47.512 2 32 2" style="opacity:.1;fill:#fff"/></svg>