<svg xmlns="http://www.w3.org/2000/svg" width="64" height="64"><rect width="56" height="56" x="4" y="5" rx="2.8" ry="2.8" style="opacity:.2"/><rect width="56" height="56" x="4" y="4" rx="2.8" ry="2.8" style="fill:#3f3f3f"/><path d="m15.75 20-6.5 26h2.889l6.5-26zm5.777 0-6.5 26h5.778l6.5-26zm8.668 0-6.5 26h10.11l6.5-26zm13 0-6.5 26H48.25l6.5-26z" style="opacity:.2"/><path d="M43.194 19H54.75l-6.5 26H36.694Z" style="fill:#f47c04"/><path d="M30.194 19h10.112l-6.5 26H23.694Zm-8.666 0h5.778l-6.5 26h-5.778zm-5.778 0h2.889l-6.5 26H9.25Z" style="fill:#05caf4"/><path d="M6.8 4C5.25 4 4 5.25 4 6.8v1C4 6.25 5.25 5 6.8 5h50.4C58.75 5 60 6.25 60 7.8v-1C60 5.25 58.75 4 57.2 4z" style="fill:#fff;opacity:.1"/><path d="m15.75 19-6.5 26h.25l6.25-25h2.639l.25-1zm5.777 0-6.5 26h.25l6.25-25h5.528l.25-1zm8.668 0-6.5 26h.25l6.25-25h9.86l.25-1zm13 0-6.5 26h.25l6.25-25H54.5l.25-1z" style="opacity:.2;fill:#fff"/></svg>