<svg xmlns="http://www.w3.org/2000/svg" width="64" height="64"><path d="M54.898 53.6 51.9 56s.022 2.57-2.666 3.848l.78.539C51.911 59.038 51.9 57 51.9 57l2.998-2.4zM4 57.045v1C4 61.012 6 62 8 62h42.898l-1.443-1H8c-2 0-4-.988-4-3.955" style="opacity:.2"/><path d="M5.274 22.655c-.057.037-.11.081-.164.123l-.033.024v.004A2.78 2.78 0 0 0 4 25.002v24.397c0 4 3.154 4 4 4h47.998s4 0 4-4V25.002c0-.917-.444-1.721-1.12-2.231l.011-.016L32 3.003S5.11 22.78 5.275 22.657z" style="fill:#fe9700"/><path d="M31.998 3.006c-.003.002-26.889 19.774-26.725 19.65v-.004c-.057.038-.11.085-.164.127l-.03.022v.004A2.78 2.78 0 0 0 4 25v1c0-.896.426-1.683 1.078-2.195V23.8l.031-.024c.055-.042.107-.087.164-.125v.004c-.164.124 26.722-19.65 26.725-19.652H32l26.889 19.75-.014.016A2.78 2.78 0 0 1 59.998 26v-1c0-.918-.445-1.719-1.123-2.229l.014-.017L32 3.006z" style="opacity:.1;fill:#fff"/><path d="M13 9c-1.662 0-3 1.338-3 3v46h44V12c0-1.662-1.338-3-3-3z" style="fill:#4f4f4f"/><path d="M14.75 15a.75.667 0 0 0-.75.666v6.668a.75.667 0 0 0 .75.666h4.5a.75.667 0 0 0 .75-.666v-6.668a.75.667 0 0 0-.75-.666Zm9.742 0a.5.665 0 0 0-.492.676v6.65a.5.665 0 1 0 1 0v-6.65a.5.665 0 0 0-.508-.676m6 0a.5.665 0 0 0-.492.676v6.65a.5.665 0 1 0 1 0v-6.65a.5.665 0 0 0-.508-.676m4.258 0a.75.667 0 0 0-.75.666v6.668a.75.667 0 0 0 .75.666h4.5a.75.667 0 0 0 .75-.666v-6.668a.75.667 0 0 0-.75-.666Zm10 0a.75.667 0 0 0-.75.666v6.668a.75.667 0 0 0 .75.666h4.5a.75.667 0 0 0 .75-.666v-6.668a.75.667 0 0 0-.75-.666ZM15 16h4v6h-4zm20 0h4v6h-4zm10 0h4v6h-4ZM16.508 27a.5.665 0 0 0-.508.676v6.65a.5.665 0 1 0 1 0v-6.65a.5.665 0 0 0-.492-.676m6.242 0a.75.667 0 0 0-.75.666v6.668a.75.667 0 0 0 .75.666h4.5a.75.667 0 0 0 .75-.666v-6.668a.75.667 0 0 0-.75-.666Zm11.742 0a.5.665 0 0 0-.492.676v6.65a.5.665 0 1 0 1 0v-6.65a.5.665 0 0 0-.508-.676m4 0a.5.665 0 0 0-.492.676v6.65a.5.665 0 1 0 1 0v-6.65a.5.665 0 0 0-.508-.676m6.258 0a.75.667 0 0 0-.75.666v6.668a.75.667 0 0 0 .75.666h4.5a.75.667 0 0 0 .75-.666v-6.668a.75.667 0 0 0-.75-.666ZM23 28h4v6h-4zm22 0h4v6h-4ZM14.75 39a.75.667 0 0 0-.75.666v6.668a.75.667 0 0 0 .75.666h4.5a.75.667 0 0 0 .75-.666v-6.668a.75.667 0 0 0-.75-.666Zm10 0a.75.667 0 0 0-.75.666v6.668a.75.667 0 0 0 .75.666h4.5a.75.667 0 0 0 .75-.666v-6.668a.75.667 0 0 0-.75-.666Zm8.758 0a.5.665 0 0 0-.508.676v6.65a.5.665 0 1 0 1 0v-6.65a.5.665 0 0 0-.492-.676m6 0a.5.665 0 0 0-.508.676v6.65a.5.665 0 1 0 1 0v-6.65a.5.665 0 0 0-.492-.676m5.242 0a.75.667 0 0 0-.75.666v6.668a.75.667 0 0 0 .75.666h4.5a.75.667 0 0 0 .75-.666v-6.668a.75.667 0 0 0-.75-.666ZM15 40h4v6h-4zm10 0h4v6h-4zm20 0h4v6h-4ZM14.75 51a.75.667 0 0 0-.75.666v6.668a.75.667 0 0 0 .75.666h4.5a.75.667 0 0 0 .75-.666v-6.668a.75.667 0 0 0-.75-.666Zm10.758 0a.5.665 0 0 0-.508.676v6.65a.5.665 0 1 0 1 0v-6.65a.5.665 0 0 0-.492-.676m4 0a.5.665 0 0 0-.508.676v6.65a.5.665 0 1 0 1 0v-6.65a.5.665 0 0 0-.492-.676m7.242 0a.75.667 0 0 0-.75.666v6.668a.75.667 0 0 0 .75.666h4.5a.75.667 0 0 0 .75-.666v-6.668a.75.667 0 0 0-.75-.666Zm10.742 0a.5.665 0 0 0-.492.676v6.65a.5.665 0 1 0 1 0v-6.65a.5.665 0 0 0-.508-.676M15 52h4v6h-4zm22 0h4v6h-4z" style="opacity:.5;fill:#fff"/><path d="M4 25.001 56 61H8c-2 0-4-.989-4-3.956Z" style="fill:#fec006"/><path d="M53.162 60.272C57.037 59.278 57 56 57 56l2.998-2.4V25L8 61h42.327Z" style="fill:#fecd38"/><path d="M63.958 46.848A16 16 0 0 1 48 62a16 16 0 0 1-15.958-14.848A16 16 0 0 0 32 48a16 16 0 0 0 16 16 16 16 0 0 0 16-16 16 16 0 0 0-.043-1.152Z" style="opacity:.2;fill-rule:evenodd"/><circle cx="21" cy="23" r="8" style="fill:#1aa348" transform="matrix(2 0 0 2 6 1)"/><path d="M40 51.436V55h3.564l9-9-3.563-3.565zm15.717-8.578a.945.945 0 0 0 0-1.348l-2.227-2.227a.945.945 0 0 0-1.348 0l-1.862 1.874 3.564 3.564z" style="fill:#fff"/></svg>