<svg xmlns="http://www.w3.org/2000/svg" width="64" height="64"><path d="M4.05 32.001c-.011.334-.05.662-.05 1C4 48.513 16.488 61 31.999 61s27.999-12.488 27.999-27.999c0-.338-.039-.665-.05-1C59.418 47.043 47.17 59 31.997 59S4.578 47.042 4.05 32.001" style="opacity:.2"/><path d="M31.999 4.002A27.94 27.94 0 0 0 4 32c0 15.513 12.488 28 27.999 28s27.999-12.488 27.999-28A27.94 27.94 0 0 0 31.999 4.003" style="fill:#73a0d6"/><path d="M32 4.002C16.488 4.002 4 16.488 4 32c0 .114.011.224.018.336C4.369 17.135 16.712 5 32 5s27.63 12.135 27.982 27.336c.006-.112.017-.223.017-.336A27.937 27.937 0 0 0 32 4.002" style="fill:#fff;opacity:.1"/><path d="M17.362 33.335a14.666 14.557 0 0 1-.029-.776A14.666 14.557 0 0 1 32 18.001a14.666 14.557 0 0 1 14.666 14.558 14.666 14.557 0 0 1-.028.548A14.666 14.557 0 0 0 32 19.325a14.666 14.557 0 0 0-14.638 14.01" style="opacity:.2"/><circle cx="31.999" cy="32.001" r="17.999" style="fill:#39393b"/><circle cx="31.999" cy="-33.001" r="14" style="opacity:.2" transform="scale(1 -1)"/><circle cx="31.999" cy="-32.001" r="14" style="fill:#5b475b" transform="scale(1 -1)"/><circle cx="31.999" cy="33.001" r="8" style="opacity:.2"/><circle cx="31.999" cy="32.001" r="8" style="fill:#a95b86"/></svg>