<svg xmlns="http://www.w3.org/2000/svg" xmlns:xlink="http://www.w3.org/1999/xlink" width="64" height="64"><defs><filter id="d" width="1.176" height="1.176" x="-.088" y="-.088" style="color-interpolation-filters:sRGB"><feGaussianBlur stdDeviation="1.549"/></filter><filter id="c" width="1.138" height="1.138" x="-.069" y="-.069" style="color-interpolation-filters:sRGB"><feGaussianBlur stdDeviation="1.549"/></filter><filter id="e" width="1.105" height="1.092" x="-.053" y="-.046" style="color-interpolation-filters:sRGB"><feGaussianBlur stdDeviation=".55"/></filter><radialGradient xlink:href="#a" id="b" cx="20.795" cy="44.867" r="28" fx="20.795" fy="44.867" gradientTransform="matrix(-3.3988 0 0 -3.39022 159.507 147.885)" gradientUnits="userSpaceOnUse"/><linearGradient id="a"><stop offset="0" style="stop-color:#f746a2;stop-opacity:1"/><stop offset=".363" style="stop-color:#ddb28d;stop-opacity:1"/><stop offset=".725" style="stop-color:#6ae5d5;stop-opacity:1"/><stop offset="1" style="stop-color:#468ff7;stop-opacity:1"/></linearGradient></defs><path d="M42.446 1.61c-9.307 0-16.8 7.493-16.8 16.8v22.4c0 9.307 7.493 16.8 16.8 16.8h22.399c9.307 0 16.8-7.493 16.8-16.8v-22.4c0-9.307-7.493-16.8-16.8-16.8z" style="fill:url(#b)" transform="translate(-21.645 2.39)"/><path d="M42.645 7.61h22c6.19 0 11 4.81 11 11v22c0 6.188-4.81 11-11 11h-22c-6.189 0-11-4.812-11-11v-22c0-6.19 4.811-11 11-11" style="fill:#3f3f3f" transform="translate(-21.645 2.39)"/><path d="M42.446 1.61c-9.307 0-16.8 7.493-16.8 16.8v22.4c0 9.307 7.493 16.8 16.8 16.8h22.399c9.307 0 16.8-7.493 16.8-16.8v-22.4c0-9.307-7.493-16.8-16.8-16.8z" style="fill:none;stroke:#000;stroke-width:.3;stroke-dasharray:none;stroke-opacity:1;filter:url(#c)" transform="translate(-21.645 2.39)"/><path d="M42.645 7.61h22c6.19 0 11 4.81 11 11v22c0 6.188-4.81 11-11 11h-22c-6.189 0-11-4.812-11-11v-22c0-6.19 4.811-11 11-11z" style="fill:none;stroke:#000;stroke-width:.3;stroke-dasharray:none;stroke-opacity:1;filter:url(#d)" transform="translate(-21.645 2.39)"/><path d="M18 46h16" style="fill:none;stroke:#fff;stroke-width:4;stroke-linecap:round" transform="translate(4.62 4.505)scale(.65303)"/><path d="M26 32s0 2-4 2-4-4-4-8 0-8 4-8 4 2 4 2" style="fill:none;stroke:#fff;stroke-width:4;stroke-linecap:round;stroke-linejoin:bevel" transform="translate(4.62 4.505)scale(.65303)"/><path d="M34 18v16h8v0" style="fill:none;stroke:#fff;stroke-width:4;stroke-linecap:round;stroke-linejoin:round" transform="translate(4.62 4.505)scale(.65303)"/><g style="fill:none;fill-opacity:1;stroke:#00ff8a;stroke-width:.306266;stroke-dasharray:none;stroke-opacity:1;filter:url(#e)" transform="translate(4.62 4.505)scale(.65303)"><path d="M18 44a2 2 0 0 0-2 2 2 2 0 0 0 2 2h16a2 2 0 0 0 2-2 2 2 0 0 0-2-2z" style="baseline-shift:baseline;display:inline;overflow:visible;opacity:1;fill:none;fill-opacity:1;stroke:#00ff8a;stroke-width:.306266;stroke-linecap:round;stroke-dasharray:none;stroke-opacity:1;enable-background:accumulate;stop-color:#000;stop-opacity:1"/><path d="M22 16c-1.333 0-2.59.37-3.541 1.11s-1.523 1.754-1.857 2.757C15.932 21.873 16 24 16 26s-.067 4.127.602 6.133c.334 1.003.906 2.018 1.857 2.758S20.667 36 22 36c2.333 0 3.943-.615 4.914-1.586a3.8 3.8 0 0 0 .92-1.469C27.981 32.505 28 32 28 32a2 2 0 0 0-2-2 2 2 0 0 0-2 2s.017-.255.04-.32c.02-.066.06-.108.046-.094-.029.029-.42.414-2.086.414-.667 0-.91-.13-1.084-.266-.174-.135-.354-.37-.52-.867C20.066 29.873 20 28 20 26s.065-3.873.396-4.867c.166-.497.346-.732.52-.867C21.09 20.13 21.333 20 22 20c1.667 0 2.057.385 2.086.414.014.014-.025-.028-.047-.094C24.017 20.255 24 20 24 20a2 2 0 0 0 2 2 2 2 0 0 0 2-2s-.02-.505-.166-.945a3.8 3.8 0 0 0-.92-1.47C25.943 16.616 24.334 16 22 16Z" style="baseline-shift:baseline;display:inline;overflow:visible;opacity:1;fill:none;fill-opacity:1;stroke:#00ff8a;stroke-width:.306266;stroke-linecap:round;stroke-linejoin:bevel;stroke-dasharray:none;stroke-opacity:1;enable-background:accumulate;stop-color:#000;stop-opacity:1"/><path d="M34 16a2 2 0 0 0-2 2v16a2 2 0 0 0 2 2h8a2 2 0 0 0 2-2 2 2 0 0 0-2-2h-6V18a2 2 0 0 0-2-2" style="baseline-shift:baseline;display:inline;overflow:visible;opacity:1;fill:none;fill-opacity:1;stroke:#00ff8a;stroke-width:.306266;stroke-linecap:round;stroke-linejoin:round;stroke-dasharray:none;stroke-opacity:1;enable-background:accumulate;stop-color:#000;stop-opacity:1"/></g></svg>