<svg xmlns="http://www.w3.org/2000/svg" xmlns:xlink="http://www.w3.org/1999/xlink" width="64" height="64"><defs><radialGradient xlink:href="#a" id="d" cx="37.775" cy="-1.758" r="25.853" fx="37.775" fy="-1.758" gradientTransform="rotate(149.112 43.915 .492)scale(1.5528 1.75769)" gradientUnits="userSpaceOnUse"/><radialGradient xlink:href="#b" id="e" cx="44.459" cy="31.57" r="16.431" fx="44.459" fy="31.57" gradientTransform="rotate(149.112 81.385 38.79)scale(2.44322 2.7656)" gradientUnits="userSpaceOnUse"/><radialGradient xlink:href="#c" id="f" cx="37.754" cy="31.415" r="14.715" fx="37.754" fy="31.415" gradientTransform="rotate(149.112 79.913 44.418)scale(2.72813 3.0881)" gradientUnits="userSpaceOnUse"/><linearGradient id="c"><stop offset="0" style="stop-color:#51b9ff;stop-opacity:1"/><stop offset="1" style="stop-color:#2093ff;stop-opacity:1"/></linearGradient><linearGradient id="b"><stop offset="0" style="stop-color:#ff6c69;stop-opacity:1"/><stop offset="1" style="stop-color:#ff4a55;stop-opacity:1"/></linearGradient><linearGradient id="a"><stop offset="0" style="stop-color:#a4ffbb;stop-opacity:1"/><stop offset="1" style="stop-color:#56a968;stop-opacity:1"/></linearGradient><filter id="h" width="1.202" height="1.222" x="-.101" y="-.111" style="color-interpolation-filters:sRGB"><feGaussianBlur stdDeviation="1.72"/></filter><filter id="g" width="1.585" height="1.557" x="-.292" y="-.279" style="color-interpolation-filters:sRGB"><feGaussianBlur stdDeviation="1.348"/></filter></defs><path d="m14.047 35.539-8.545 13.18a6.634 6.634 0 0 0 6.523 7.504l39.902-.03a6.66 6.66 0 0 0 5.224-2.562z" style="fill:url(#d);stroke-width:.291748;stroke-linecap:square;fill-opacity:1"/><path d="M32.038 7.777a6.5 6.5 0 0 0-1.067.141L25.715 42.34l11.39 4.674 19.774 6.964a6.66 6.66 0 0 0 .829-7.732l-2.535-4.459-17.718-31.032a6.52 6.52 0 0 0-5.417-2.978" style="fill:url(#e);stroke-width:.408039;stroke-linecap:square;fill-opacity:1"/><path d="M32.038 7.777a6.52 6.52 0 0 0-5.664 3.285L6.259 46.303a6.63 6.63 0 0 0-.34 5.746l26.332-20.795 2.602.663-2.236-24.063a7 7 0 0 0-.579-.077" style="fill:url(#f);fill-opacity:1;stroke-width:.408039;stroke-linecap:square"/><path d="m34.396 45.782-8.878-3.522a1.292 1.292 81.64 0 1-.325-2.214l7.489-5.927a1.292 1.292 21.64 0 1 2.08.825l1.389 9.45a1.292 1.292 141.64 0 1-1.755 1.388" style="fill:#fff;stroke-width:.201355" transform="translate(-9.13 -12.063)scale(1.26753)"/><path d="m34.396 45.782-8.878-3.522a1.292 1.292 81.64 0 1-.325-2.214l7.489-5.927a1.292 1.292 21.64 0 1 2.08.825l1.389 9.45a1.292 1.292 141.64 0 1-1.755 1.388z" style="mix-blend-mode:normal;fill:none;stroke:#0e0e00;stroke-width:.23668038;stroke-opacity:1;filter:url(#g);stroke-dasharray:none" transform="translate(-9.13 -12.063)scale(1.26753)"/><path d="M32.027 12.89a5.14 5.14 0 0 0-4.469 2.591L11.69 43.284a5.23 5.23 0 0 0-.549 3.584l.024.106q.039.183.092.363.064.218.148.428l.02.052a5.23 5.23 0 0 0 4.814 3.293l31.48-.023a5.25 5.25 0 0 0 3.89-1.754l.017.006a5.25 5.25 0 0 0 .654-6.1l-2-3.517-13.978-24.483a5.14 5.14 0 0 0-4.274-2.35z" style="mix-blend-mode:normal;fill:none;fill-opacity:1;stroke:#000;stroke-width:.23017;stroke-linecap:square;stroke-opacity:1;filter:url(#h)" transform="translate(-8.561 -8.561)scale(1.26753)"/></svg>