<svg xmlns="http://www.w3.org/2000/svg" width="64" height="64"><path d="M32 3c-1.572 0-3.145.586-4.32 1.76L3.76 28.684c-2.349 2.35-2.346 6.281.004 8.63l23.92 23.923c2.35 2.35 6.285 2.353 8.634.004l23.92-23.923c2.35-2.35 2.35-6.284 0-8.634L36.318 4.761C35.143 3.586 33.57 3 31.999 3" style="opacity:.2"/><path d="M32 2c-1.572 0-3.145.586-4.32 1.76L3.76 27.683c-2.349 2.35-2.346 6.281.004 8.63l23.92 23.923c2.35 2.35 6.285 2.353 8.634.004l23.92-23.923c2.35-2.35 2.35-6.284 0-8.634L36.318 3.76C35.143 2.586 33.57 2 31.999 2" style="fill:#696853"/><path d="M32 8c-.576 0-1.153.215-1.584.646l-8.771 8.771a2.26 2.26 0 0 0 .002 3.164l8.771 8.772c.861.861 2.305.863 3.166.002l8.77-8.773a2.26 2.26 0 0 0 0-3.165l-8.77-8.771A2.24 2.24 0 0 0 32 7.999M19 22a2.23 2.23 0 0 0-1.582.646l-8.772 8.771c-.861.862-.863 2.305-.001 3.166l8.771 8.77a2.26 2.26 0 0 0 3.166 0l8.772-8.77c.43-.43.646-1.007.646-1.584 0-.576-.216-1.153-.646-1.584l-8.772-8.77A2.23 2.23 0 0 0 19 22m26 0a2.23 2.23 0 0 0-1.582.646l-8.772 8.771c-.861.862-.863 2.305-.002 3.166l8.772 8.77a2.26 2.26 0 0 0 3.166 0l8.771-8.77c.431-.43.647-1.007.647-1.584 0-.576-.216-1.153-.646-1.584l-8.772-8.77A2.23 2.23 0 0 0 45 22M32 36c-.576 0-1.153.215-1.584.646l-8.771 8.771a2.26 2.26 0 0 0 .002 3.164l8.771 8.772c.861.861 2.305.863 3.166.002l8.77-8.773a2.26 2.26 0 0 0 0-3.165l-8.77-8.771A2.24 2.24 0 0 0 32 35.999" style="opacity:.2"/><path d="M32 7c-.577 0-1.153.215-1.584.646l-8.77 8.771c-.862.862-.86 2.303 0 3.165l8.771 8.771c.862.862 2.305.863 3.166.002l8.77-8.772a2.26 2.26 0 0 0 0-3.166l-8.77-8.771A2.23 2.23 0 0 0 32 7" style="fill:#3fa7e2"/><path d="M32 35c-.577 0-1.153.215-1.584.646l-8.77 8.771c-.862.862-.86 2.303 0 3.165l8.771 8.771c.862.862 2.305.863 3.166.002l8.77-8.772a2.26 2.26 0 0 0 0-3.166l-8.77-8.771A2.23 2.23 0 0 0 32 35" style="fill:#3f3f3f"/><path d="M56 32c0-.577-.215-1.153-.646-1.584l-8.771-8.77c-.862-.862-2.303-.86-3.165 0l-8.771 8.771c-.862.862-.863 2.305-.002 3.166l8.772 8.77a2.26 2.26 0 0 0 3.166 0l8.771-8.77A2.23 2.23 0 0 0 56 32" style="fill:#f1ca42"/><path d="M30 32c0-.577-.215-1.153-.646-1.584l-8.771-8.77c-.862-.862-2.303-.86-3.165 0l-8.771 8.771c-.862.862-.863 2.305-.002 3.166l8.772 8.77a2.26 2.26 0 0 0 3.166 0l8.771-8.77A2.23 2.23 0 0 0 30 32" style="fill:#ea72bb"/><path d="M32 7c-.576 0-1.153.216-1.584.646l-8.771 8.772a2.24 2.24 0 0 0-.584 2.078 2.2 2.2 0 0 1 .584-1.078l8.771-8.772A2.24 2.24 0 0 1 32 8c.576 0 1.153.216 1.584.646l8.77 8.772a2.2 2.2 0 0 1 .585 1.082 2.25 2.25 0 0 0-.585-2.082l-8.77-8.772A2.24 2.24 0 0 0 32 7M19 21c-.576 0-1.151.216-1.582.646l-8.772 8.772a2.25 2.25 0 0 0-.585 2.086c.089-.4.28-.78.585-1.086l8.772-8.772A2.23 2.23 0 0 1 19 22a2.23 2.23 0 0 1 1.582.646l8.772 8.77a2.2 2.2 0 0 1 .585 1.084 2.24 2.24 0 0 0-.586-2.084l-8.771-8.77A2.23 2.23 0 0 0 19 21m26 0c-.576 0-1.151.216-1.582.646l-8.772 8.772a2.25 2.25 0 0 0-.585 2.086c.089-.4.28-.78.585-1.086l8.772-8.772A2.23 2.23 0 0 1 45 22a2.23 2.23 0 0 1 1.582.646l8.772 8.77a2.2 2.2 0 0 1 .585 1.084 2.24 2.24 0 0 0-.586-2.084l-8.771-8.77A2.23 2.23 0 0 0 45 21M32 35c-.576 0-1.153.216-1.584.646l-8.771 8.772a2.24 2.24 0 0 0-.584 2.078 2.2 2.2 0 0 1 .584-1.078l8.771-8.772A2.24 2.24 0 0 1 32 36c.576 0 1.153.216 1.584.646l8.77 8.772a2.2 2.2 0 0 1 .585 1.082 2.25 2.25 0 0 0-.585-2.082l-8.77-8.772A2.24 2.24 0 0 0 32 35" style="fill:#fff;opacity:.1"/><path d="M32 2c-1.571 0-3.146.585-4.32 1.76L3.76 27.684c-1.3 1.3-1.876 3.082-1.737 4.814a6.04 6.04 0 0 1 1.737-3.814L27.68 4.76C28.854 3.585 30.429 3 32 3s3.144.585 4.318 1.76l23.92 23.924a6.05 6.05 0 0 1 1.739 3.816c.138-1.733-.44-3.517-1.739-4.816L36.318 3.76C35.144 2.585 33.572 2 32 2" style="fill:#fff;opacity:.1"/></svg>