<svg xmlns="http://www.w3.org/2000/svg" width="64" height="64"><path d="M31.5 4.5c-3.593 0-8.876.938-13.75 3.207-.295.137-.595.263-.887.41a26.6 26.6 0 0 0-3.575 2.162l-.096.073q-.261.19-.516.387c-.095.073-.185.153-.279.228q-.29.233-.572.475c-.083.07-.17.135-.252.207l-.077.067c-.099.088-.19.184-.287.274a20 20 0 0 0-1.591 1.654c-.08.094-.168.181-.247.277q-.105.132-.208.266c-.033.041-.061.087-.094.129q-.19.245-.372.5c-.082.113-.172.221-.251.338q-.218.317-.423.647v.002H8.02q-.41.661-.762 1.367a17 17 0 0 0-.551 1.244l-.089.215q-.145.376-.272.765c-.06.182-.112.368-.166.553-.023.08-.05.157-.073.237a18 18 0 0 0-.623 4.138c-.054 1.528.09 3.113.393 4.724C7.41 37.203 13.105 46.06 18.861 51.98c2.333 2.4 6.52 6.177 10.581 7.23.427.11.85.197 1.271.242.264.028.527.048.787.048 4.637 0 9.91-4.71 12.641-7.52 5.539-5.697 11.02-14.114 12.791-22.01.205-.912.36-1.82.46-2.713a20 20 0 0 0 .124-2.935C56.989 9.346 39.76 4.5 31.5 4.5m1.338 34.217q.014.128.026.257zm-.693 10.441" style="fill:#465051"/><path d="M31.5 5c-3.658 0-9.037.955-13.999 3.265-.301.14-.607.268-.904.418a27 27 0 0 0-3.64 2.201l-.098.074q-.266.194-.525.394c-.097.075-.188.156-.284.232q-.294.238-.583.484c-.084.072-.173.138-.256.21l-.079.07c-.1.089-.193.187-.291.278a21 21 0 0 0-1.621 1.685c-.082.095-.17.184-.25.281-.073.088-.142.181-.213.27-.034.043-.062.09-.095.132q-.194.25-.38.509c-.083.116-.174.226-.255.344q-.223.324-.43.66v.002h-.003q-.418.672-.777 1.392c-.204.41-.388.833-.56 1.266q-.046.109-.09.219-.149.383-.279.779-.088.278-.169.563l-.073.24a18.3 18.3 0 0 0-.635 4.214c-.054 1.556.092 3.17.4 4.81 1.562 8.306 7.36 17.324 13.22 23.352 2.375 2.443 6.638 6.289 10.774 7.36.435.113.865.2 1.294.247.268.028.537.049.801.049 4.722 0 10.091-4.796 12.871-7.656 5.64-5.801 11.22-14.372 13.024-22.411.208-.929.367-1.853.468-2.762.113-1.014.16-2.012.126-2.989C57.452 9.934 39.91 5 31.5 5m1.362 34.839.027.262q-.012-.133-.027-.262m-.706 10.631" style="opacity:.2"/><path d="M33.843 15.9a25 25 0 0 0-4.816.418h-.003c-2.708.496-5.486 1.43-8.399 2.803.4.656.812 1.275 1.234 1.865.423.59.857 1.148 1.294 1.687 3.061 3.774 6.357 6.486 8.26 10.719v.003c.95 2.115 1.553 4.61 1.604 7.806v.003c.051 3.197-.45 7.094-1.708 12.018a102 102 0 0 1-1.904 6.483c.435.113.865.2 1.294.246.268.028.537.049.801.049 4.722 0 10.091-4.796 12.871-7.656 5.64-5.801 11.22-14.372 13.024-22.411-2.99-3.86-5.338-6.874-8.976-9.54-4.797-3.517-9.767-4.437-14.576-4.493" style="fill:#e45e3e"/><path d="M5.647 19.968a18.3 18.3 0 0 0-.635 4.213c-.055 1.556.09 3.17.399 4.81 4.342-3.41 8.31-6.151 12.032-8.23a30.7 30.7 0 0 1-2.347-4.476s-7.882-1.714-9.449 3.683" style="fill:#519c26"/><path d="M57.989 24.182C57.452 8.934 39.91 4 31.499 4c-3.88 0-9.702 1.054-14.902 3.683a27 27 0 0 0-3.64 2.202c-3.374 2.436-6.117 5.733-7.31 10.083 3.359-1.483 6.502-2.715 9.45-3.683q1.825-.599 3.558-1.067c12.532-3.388 21.508-1.618 29.764 5.174 3.041 2.502 5.987 5.681 8.976 9.54q.314-1.394.467-2.76c.113-1.013.161-2.013.127-2.99" style="fill:#2194cd"/><path d="M17.443 20.762c-3.721 2.078-7.69 4.82-12.032 8.23 1.56 8.305 7.359 17.323 13.22 23.35 2.374 2.443 6.638 6.29 10.774 7.362a102 102 0 0 0 1.905-6.482v-.002q.07-1.124.11-2.173v-.001q.04-1.05.053-2.029a66 66 0 0 0-.002-1.891v-.001a51 51 0 0 0-.16-3.394v-.001a40 40 0 0 0-.154-1.517v-.001a32 32 0 0 0-.444-2.712c-.794-3.766-2.153-6.236-3.805-8.267a22 22 0 0 0-.561-.663 29 29 0 0 0-1.178-1.253c-.808-.815-1.657-1.6-2.522-2.431-.433-.415-.87-.841-1.308-1.289a39 39 0 0 1-.657-.686h-.001a30 30 0 0 1-1.962-2.319 27 27 0 0 1-1.276-1.83" style="fill:#65c32f"/><path d="M12.958 9.886q-.316.228-.625.466-.575.445-1.12.926l-.08.069a20 20 0 0 0-2.165 2.245q-.107.134-.212.27-.38.478-.73.985-.223.324-.43.66v.001q-.42.673-.778 1.392-.305.616-.562 1.267-.046.108-.09.218v.001q-.147.384-.277.778-.089.279-.17.564-.037.119-.072.24c3.36-1.483 6.502-2.715 9.45-3.683-.779-1.82-1.5-3.926-2.139-6.4" style="fill:#465051"/><path d="M17.501 7.265c-.301.14-.607.268-.904.418a27 27 0 0 0-3.64 2.201q-.048.039-.098.077l.098-.074c.639 2.473 1.36 4.58 2.139 6.399q1.826-.6 3.557-1.067l.23-.057c-.858-2.51-1.308-5.144-1.382-7.897m11.948 7.284c-3.309.055-6.88.612-10.796 1.67a69 69 0 0 0-3.557 1.067 30.7 30.7 0 0 0 2.348 4.476c.419.656.843 1.262 1.275 1.83a30 30 0 0 0 1.961 2.318h.003q.329.352.656.687.658.669 1.308 1.29c.865.83 1.714 1.613 2.522 2.428.404.408.796.823 1.177 1.255q.286.324.561.662c1.652 2.031 3.011 4.502 3.806 8.269.176.837.326 1.738.444 2.712q.09.73.155 1.518c.087 1.05.139 2.177.158 3.393v.003q.015.911.003 1.89a79 79 0 0 1-.055 2.028v.003q-.04 1.05-.109 2.174c.34-1.33.614-2.57.848-3.757.07-.361.115-.688.177-1.036.143-.812.278-1.61.373-2.357.046-.367.074-.71.109-1.061.066-.662.121-1.308.15-1.92.03-.644.06-1.29.051-1.884v-.005a24 24 0 0 0-.128-2.095l-.027-.268a20 20 0 0 0-.261-1.643c-.097-.49-.216-.95-.344-1.403-.054-.194-.098-.4-.158-.588a17 17 0 0 0-.648-1.709c-.014-.032-.024-.069-.038-.101v-.003a18 18 0 0 0-.844-1.627c-.114-.196-.24-.38-.36-.571-.201-.32-.403-.638-.618-.944q-.204-.285-.414-.563c-.23-.306-.46-.613-.7-.91q-.164-.2-.33-.397a77 77 0 0 0-2.092-2.376c-.233-.257-.454-.516-.69-.777a64 64 0 0 1-2.211-2.55v-.004a36 36 0 0 1-1.294-1.687q-.635-.884-1.234-1.865a43 43 0 0 1 2-.875q.255-.103.511-.202a37 37 0 0 1 2.079-.746q.675-.217 1.343-.4c.201-.055.404-.116.604-.166a29 29 0 0 1 1.785-.397q.037-.009.076-.016h.003a26 26 0 0 1 2.12-.287q.3-.03.598-.052a24 24 0 0 1 2.098-.08c4.809.056 9.779.977 14.576 4.493-5.676-4.67-11.692-6.966-18.97-6.844" style="opacity:.2"/><path d="M29.449 13.548c-3.309.056-6.88.612-10.796 1.671a69 69 0 0 0-3.557 1.067 30.7 30.7 0 0 0 2.348 4.476c.419.656.843 1.262 1.275 1.829a30 30 0 0 0 1.961 2.319h.003q.329.351.656.686.658.67 1.308 1.29c.865.83 1.714 1.614 2.522 2.429q.606.609 1.177 1.255.286.324.561.662c1.652 2.03 3.011 4.502 3.806 8.268q.266 1.254.444 2.713.09.73.155 1.517c.087 1.05.139 2.178.158 3.394v.003q.015.91.003 1.89a79 79 0 0 1-.055 2.028v.003q-.04 1.05-.109 2.174c.34-1.33.614-2.571.848-3.757.07-.362.115-.688.177-1.037.143-.811.278-1.61.373-2.357.046-.366.074-.71.109-1.06.066-.662.121-1.308.15-1.92.03-.645.06-1.29.051-1.884V41.2a24 24 0 0 0-.128-2.094l-.027-.268a20 20 0 0 0-.261-1.644 18 18 0 0 0-.344-1.402c-.054-.194-.098-.4-.158-.588a17 17 0 0 0-.648-1.71q-.019-.05-.038-.1v-.003a18 18 0 0 0-.844-1.627c-.114-.196-.24-.381-.36-.572-.201-.32-.403-.637-.618-.943q-.204-.285-.414-.563c-.23-.307-.46-.613-.7-.91q-.164-.2-.33-.397a77 77 0 0 0-2.092-2.377c-.233-.256-.454-.515-.69-.776a64 64 0 0 1-2.211-2.551v-.003a36 36 0 0 1-1.294-1.687q-.635-.884-1.234-1.865a42 42 0 0 1 2-.875q.255-.103.511-.202a37 37 0 0 1 2.079-.747q.675-.216 1.343-.4c.201-.055.404-.115.604-.166a29 29 0 0 1 1.785-.396l.076-.017h.003a26 26 0 0 1 2.12-.287q.3-.03.598-.052a24 24 0 0 1 2.098-.08c4.809.056 9.779.977 14.576 4.493-5.676-4.669-11.692-6.966-18.97-6.844Z" style="fill:#fff"/><path d="M31.5 4c-3.658 0-9.036.956-13.998 3.266-.301.14-.607.267-.904.418a27 27 0 0 0-3.641 2.2l-.098.075c-.177.13-.351.258-.525.393-.097.074-.188.156-.283.232q-.297.237-.584.484c-.084.072-.173.138-.256.211l-.078.069c-.1.089-.194.188-.293.279a21 21 0 0 0-1.62 1.684c-.081.095-.171.183-.251.28-.073.089-.14.183-.211.272-.034.043-.063.089-.096.131q-.194.25-.379.508c-.084.116-.175.227-.256.346q-.222.323-.431.658v.004h-.002q-.419.671-.778 1.39c-.204.41-.387.833-.56 1.266q-.047.109-.09.219-.147.383-.277.78-.09.278-.17.564l-.073.24a18.3 18.3 0 0 0-.634 5.445c.001-.077-.003-.156 0-.232.053-1.505.276-2.905.634-4.213q.037-.12.073-.24c.055-.19.109-.38.17-.565q.13-.395.277-.78.043-.109.09-.218c.173-.433.356-.856.56-1.266q.36-.719.778-1.39h.002v-.004q.209-.335.431-.658c.081-.119.172-.23.256-.346q.185-.258.38-.508.046-.065.095-.13c.07-.09.138-.184.21-.272.08-.098.17-.186.253-.281a19 19 0 0 1 1.619-1.684c.099-.091.192-.19.293-.28l.078-.068c.083-.073.172-.139.256-.21q.288-.248.584-.485c.095-.076.186-.158.283-.232q.26-.201.525-.393l.098-.074a27 27 0 0 1 3.64-2.201c.298-.15.604-.278.905-.418C22.464 5.956 27.842 5 31.5 5c8.401 0 25.908 4.923 26.484 20.129.005-.317.015-.635.004-.947C57.452 8.933 39.911 4 31.5 4" style="opacity:.2;fill:#fff"/></svg>