<svg xmlns="http://www.w3.org/2000/svg" xmlns:xlink="http://www.w3.org/1999/xlink" width="64" height="64"><defs><radialGradient xlink:href="#a" id="i" cx="17.574" cy="28.986" r="7" fx="17.574" fy="28.986" gradientTransform="rotate(-23.374 -83.25 156.846)scale(3.41562 2.742)" gradientUnits="userSpaceOnUse"/><radialGradient xlink:href="#b" id="g" cx="17.196" cy="14.93" r="7" fx="17.196" fy="14.93" gradientTransform="rotate(-23.306 8.09 180.467)scale(4.76548 2.14592)" gradientUnits="userSpaceOnUse"/><radialGradient xlink:href="#c" id="f" cx="15.171" cy="15.081" r="7" fx="15.171" fy="15.081" gradientTransform="rotate(-93.105 17.136 31.276)scale(2.2025 2.00197)" gradientUnits="userSpaceOnUse"/><radialGradient xlink:href="#d" id="h" cx="15.64" cy="16.574" r="7" fx="15.64" fy="16.574" gradientTransform="rotate(173.679 42.377 32.52)scale(4.2965 3.09592)" gradientUnits="userSpaceOnUse"/><linearGradient id="d"><stop offset="0" style="stop-color:#f2ae37;stop-opacity:1"/><stop offset="1" style="stop-color:#f28037;stop-opacity:1"/></linearGradient><linearGradient id="c"><stop offset="0" style="stop-color:#f53939;stop-opacity:1"/><stop offset="1" style="stop-color:#fa2550;stop-opacity:1"/></linearGradient><linearGradient id="b"><stop offset="0" style="stop-color:#14ff94;stop-opacity:1"/><stop offset="1" style="stop-color:#09a958;stop-opacity:1"/></linearGradient><linearGradient id="a"><stop offset="0" style="stop-color:#3776f2;stop-opacity:1"/><stop offset="1" style="stop-color:#1ec2ff;stop-opacity:.99992359"/></linearGradient><filter id="e" width="1.049" height="1.55" x="-.025" y="-.275" style="color-interpolation-filters:sRGB"><feGaussianBlur stdDeviation=".573"/></filter></defs><path d="M4 56v2c0 1.662 1.338 3 3 3h50c1.662 0 3-1.338 3-3v-2c0 1.662-1.338 3-3 3H7c-1.662 0-3-1.338-3-3" style="opacity:.48414338;filter:url(#e)"/><path d="M16 2H3.5C2.669 2 2 2.669 2 3.5V16h14z" style="fill:url(#f)" transform="scale(2)"/><path d="M16 2h12.5c.831 0 1.5.669 1.5 1.5V16H16Z" style="fill:url(#g)" transform="scale(2)"/><path d="M16 30H3.5c-.831 0-1.5-.669-1.5-1.5V16h14z" style="fill:url(#h)" transform="scale(2)"/><path d="M16 30h12.5c.831 0 1.5-.669 1.5-1.5V16H16Z" style="fill:url(#i)" transform="scale(2)"/><path d="M7 4C5.338 4 4 5.338 4 7v1c0-1.662 1.338-3 3-3h50c1.662 0 3 1.338 3 3V7c0-1.662-1.338-3-3-3Z" style="opacity:.1;fill:#fff"/></svg>