<svg xmlns="http://www.w3.org/2000/svg" xmlns:xlink="http://www.w3.org/1999/xlink" width="64" height="64"><defs><radialGradient xlink:href="#a" id="b" cx="22.596" cy="58.352" r="28" fx="22.596" fy="58.352" gradientTransform="matrix(0 -2.27954 2.29677 0 -69.935 115.36)" gradientUnits="userSpaceOnUse"/><radialGradient id="a" cx="-159.431" cy="15.463" r="64.707" fx="-159.431" fy="15.463" gradientTransform="matrix(-.89413 0 0 .96305 -80.754 49.33)" gradientUnits="userSpaceOnUse"><stop offset="0" style="stop-color:#006fff;stop-opacity:1"/><stop offset="1" style="stop-color:#15baff;stop-opacity:1"/></radialGradient><filter id="d" width="1.161" height="1.099" x="-.081" y="-.049" style="color-interpolation-filters:sRGB"><feGaussianBlur stdDeviation="1.061"/></filter><filter id="c" width="1.144" height="1.169" x="-.072" y="-.084" style="color-interpolation-filters:sRGB"><feGaussianBlur stdDeviation="1.644"/></filter></defs><rect width="56" height="48" x="4" y="8" rx="10.371" ry="10.371" style="fill:url(#b)"/><rect width="56" height="48" x="4" y="8" rx="10.371" ry="10.371" style="fill:none;stroke:#000;stroke-opacity:1;stroke-width:.19999991;stroke-dasharray:none;filter:url(#c)"/><path d="m14.153 8.29 7.68.004v47.493h-7.68A10.14 10.14 45 0 1 4.015 45.649V18.423A10.133 10.133 135.015 0 1 14.153 8.29" style="opacity:.36619233;fill:#001eff;fill-opacity:1;stroke:none;stroke-width:.494006;stroke-linecap:round;stroke-linejoin:round;stroke-dasharray:none;paint-order:stroke markers fill" transform="matrix(1.01372 0 0 1.01055 -.047 -.359)"/><path d="M22.053 5.248a2.88 2.88 0 0 0-2.878 2.88v47.745a2.879 2.879 0 1 0 5.757 0V8.127a2.88 2.88 0 0 0-2.88-2.88m12.215 8.857a2.538 2.538 0 1 0 0 5.079h9.27a2.538 2.538 0 1 0 0-5.079zM37.65 24.26a2.538 2.538 0 0 0 0 5.076h11.81a2.538 2.538 0 1 0 0-5.076Zm0 10.154a2.538 2.538 0 0 0 0 5.076h11.81a2.538 2.538 0 1 0 0-5.076zm-3.382 10.152a2.538 2.538 0 1 0 0 5.079h9.27a2.538 2.538 0 1 0 0-5.079z" style="color:#000;fill:#fff;stroke-width:.861029;stroke-linecap:round;-inkscape-stroke:none"/><path d="M22.053 5.248a2.88 2.88 0 0 0-2.878 2.88v47.745a2.879 2.879 0 1 0 5.757 0V8.127a2.88 2.88 0 0 0-2.88-2.88zm12.215 8.857a2.538 2.538 0 1 0 0 5.079h9.27a2.538 2.538 0 1 0 0-5.079zM37.65 24.26a2.538 2.538 0 0 0 0 5.076h11.81a2.538 2.538 0 1 0 0-5.076Zm0 10.154a2.538 2.538 0 0 0 0 5.076h11.81a2.538 2.538 0 1 0 0-5.076zm-3.382 10.152a2.538 2.538 0 1 0 0 5.079h9.27a2.538 2.538 0 1 0 0-5.079z" style="color:#000;fill:none;stroke:#000;stroke-width:.2;stroke-linecap:round;stroke-dasharray:none;stroke-opacity:1;filter:url(#d)"/></svg>