<svg xmlns="http://www.w3.org/2000/svg" width="64" height="64"><rect width="57" height="57" x="4" y="4" rx="2.85" ry="2.85" style="opacity:.2"/><rect width="57" height="57" x="4" y="3" rx="2.85" ry="2.85" style="fill:#ca1e1e"/><path d="M15.5 10a5.5 5.5 0 0 0-5.5 5.5 5.5 5.5 0 0 0 5.5 5.5 5.5 5.5 0 0 0 5.5-5.5 5.5 5.5 0 0 0-5.5-5.5m34 0a5.5 5.5 0 0 0-5.5 5.5 5.5 5.5 0 0 0 5.5 5.5 5.5 5.5 0 0 0 5.5-5.5 5.5 5.5 0 0 0-5.5-5.5m-17 17a5.5 5.5 0 0 0-5.5 5.5 5.5 5.5 0 0 0 5.5 5.5 5.5 5.5 0 0 0 5.5-5.5 5.5 5.5 0 0 0-5.5-5.5m-17 17a5.5 5.5 0 0 0-5.5 5.5 5.5 5.5 0 0 0 5.5 5.5 5.5 5.5 0 0 0 5.5-5.5 5.5 5.5 0 0 0-5.5-5.5m34 0a5.5 5.5 0 0 0-5.5 5.5 5.5 5.5 0 0 0 5.5 5.5 5.5 5.5 0 0 0 5.5-5.5 5.5 5.5 0 0 0-5.5-5.5" style="opacity:.2"/><circle cx="15.5" cy="14.5" r="5.5" style="fill:#ffb0b0"/><circle cx="32.5" cy="31.5" r="5.5" style="fill:#ffb0b0"/><circle cx="49.5" cy="14.5" r="5.5" style="fill:#ffb0b0"/><circle cx="15.5" cy="48.5" r="5.5" style="fill:#ffb0b0"/><circle cx="49.5" cy="48.5" r="5.5" style="fill:#ffb0b0"/><path d="M6.85 3A2.843 2.843 0 0 0 4 5.85v1C4 5.27 5.27 4 6.85 4h51.3C59.73 4 61 5.27 61 6.85v-1C61 4.27 59.73 3 58.15 3z" style="fill:#fff;opacity:.2"/><path d="M15.5 9a5.5 5.5 0 0 0-5.5 5.5 6 6 0 0 0 .025.514A5.5 5.5 0 0 1 15.5 10a5.5 5.5 0 0 1 5.475 4.986A6 6 0 0 0 21 14.5 5.5 5.5 0 0 0 15.5 9m34 0a5.5 5.5 0 0 0-5.5 5.5 6 6 0 0 0 .025.514A5.5 5.5 0 0 1 49.5 10a5.5 5.5 0 0 1 5.475 4.986A6 6 0 0 0 55 14.5 5.5 5.5 0 0 0 49.5 9m-17 17a5.5 5.5 0 0 0-5.5 5.5 6 6 0 0 0 .025.514A5.5 5.5 0 0 1 32.5 27a5.5 5.5 0 0 1 5.475 4.986A6 6 0 0 0 38 31.5a5.5 5.5 0 0 0-5.5-5.5m-17 17a5.5 5.5 0 0 0-5.5 5.5 6 6 0 0 0 .025.514A5.5 5.5 0 0 1 15.5 44a5.5 5.5 0 0 1 5.475 4.986A6 6 0 0 0 21 48.5a5.5 5.5 0 0 0-5.5-5.5m34 0a5.5 5.5 0 0 0-5.5 5.5 6 6 0 0 0 .025.514A5.5 5.5 0 0 1 49.5 44a5.5 5.5 0 0 1 5.475 4.986A6 6 0 0 0 55 48.5a5.5 5.5 0 0 0-5.5-5.5" style="opacity:.2;fill:#fff"/></svg>