<?xml version="1.0" encoding="UTF-8" standalone="no"?>
<svg
   width="64"
   height="64"
   version="1.1"
   id="svg9"
   sodipodi:docname="lutris_colortone.svg"
   inkscape:version="1.4.3 (0d15f75042, 2025-12-25)"
   xmlns:inkscape="http://www.inkscape.org/namespaces/inkscape"
   xmlns:sodipodi="http://sodipodi.sourceforge.net/DTD/sodipodi-0.dtd"
   xmlns="http://www.w3.org/2000/svg"
   xmlns:svg="http://www.w3.org/2000/svg">
  <defs
     id="defs9">
    <filter
       inkscape:collect="always"
       style="color-interpolation-filters:sRGB"
       id="filter16"
       x="-0.06625057"
       y="-0.06625057"
       width="1.1325011"
       height="1.1325011">
      <feGaussianBlur
         inkscape:collect="always"
         stdDeviation="1.5041829"
         id="feGaussianBlur16" />
    </filter>
  </defs>
  <sodipodi:namedview
     id="namedview9"
     pagecolor="#ffffff"
     bordercolor="#000000"
     borderopacity="0.25"
     inkscape:showpageshadow="2"
     inkscape:pageopacity="0.0"
     inkscape:pagecheckerboard="0"
     inkscape:deskcolor="#d1d1d1"
     inkscape:zoom="13.370631"
     inkscape:cx="27.186451"
     inkscape:cy="32.197433"
     inkscape:current-layer="svg9" />
  <path
     d="M32 4A27.94 27.94 0 0 0 4 32c0 15.512 12.488 28 28 28a27.94 27.94 0 0 0 28-28C60 16.49 47.51 4 32 4"
     style="fill:#3285b8"
     id="path2" />
  <path
     d="m 32,10.653766 c -11.825814,0 -21.346234,9.52042 -21.346234,21.346234 0,11.825814 9.52042,21.346234 21.346234,21.346234 11.825814,0 21.346234,-9.52042 21.346234,-21.346234 0,-11.825814 -9.52042,-21.346234 -21.346234,-21.346234"
     style="fill:#40bc6d;stroke-width:1.06731"
     id="path4" />
  <path
     d="m 32,17.252092 c -8.170341,0 -14.747908,6.57862 -14.747908,14.747908 0,8.170341 6.577567,14.747908 14.747908,14.747908 8.169288,0 14.747908,-6.577567 14.747908,-14.747908 0,-8.169288 -6.57862,-14.747908 -14.747908,-14.747908"
     style="fill:#e9bf1c;stroke-width:1.05342"
     id="path6" />
  <path
     d="M32 24c-4.432 0-8 3.568-8 8s3.568 8 8 8 8-3.568 8-8-3.568-8-8-8"
     style="fill:#dc5b4b"
     id="path8" />
  <g
     id="g16"
     style="stroke:#000000;stroke-width:0.2;stroke-dasharray:none;stroke-opacity:1;filter:url(#filter16)"
     transform="translate(-31.000065,-17.000065)">
    <path
       d="m 63.000065,21.000065 a 27.94,27.94 0 0 0 -28,28 c 0,15.512 12.488,28 28,28 a 27.94,27.94 0 0 0 28,-28 c 0,-15.51 -12.49,-28 -28,-28"
       style="fill:none;stroke:#000000;stroke-width:0.2;stroke-dasharray:none;stroke-opacity:1"
       id="path2-6" />
    <path
       d="m 63.000065,27.653831 c -11.825814,0 -21.346234,9.52042 -21.346234,21.346234 0,11.825814 9.52042,21.346234 21.346234,21.346234 11.825814,0 21.346234,-9.52042 21.346234,-21.346234 0,-11.825814 -9.52042,-21.346234 -21.346234,-21.346234"
       style="fill:none;stroke:#000000;stroke-width:0.2;stroke-dasharray:none;stroke-opacity:1"
       id="path4-7" />
    <path
       d="m 63.000065,34.252157 c -8.170341,0 -14.747908,6.57862 -14.747908,14.747908 0,8.170341 6.577567,14.747908 14.747908,14.747908 8.169288,0 14.747908,-6.577567 14.747908,-14.747908 0,-8.169288 -6.57862,-14.747908 -14.747908,-14.747908"
       style="fill:none;stroke:#000000;stroke-width:0.2;stroke-dasharray:none;stroke-opacity:1"
       id="path6-5" />
    <path
       d="m 63.000065,41.000065 c -4.432,0 -8,3.568 -8,8 0,4.432 3.568,8 8,8 4.432,0 8,-3.568 8,-8 0,-4.432 -3.568,-8 -8,-8"
       style="fill:none;stroke:#000000;stroke-width:0.2;stroke-dasharray:none;stroke-opacity:1"
       id="path8-3" />
  </g>
</svg>
