<svg xmlns="http://www.w3.org/2000/svg" xmlns:xlink="http://www.w3.org/1999/xlink" width="64" height="64"><defs><filter id="d" width="1.188" height="1.187" x="-.094" y="-.094" style="color-interpolation-filters:sRGB"><feGaussianBlur stdDeviation="1.349"/></filter><filter id="c" width="1.198" height="1.198" x="-.099" y="-.099" style="color-interpolation-filters:sRGB"><feGaussianBlur stdDeviation="2.126"/></filter><radialGradient xlink:href="#a" id="b" cx="11.398" cy="51.914" r="29" fx="11.398" fy="51.914" gradientTransform="matrix(0 2.63422 -2.27585 0 122.838 -25.219)" gradientUnits="userSpaceOnUse"/><linearGradient id="a"><stop offset="0" style="stop-color:#00cfff;stop-opacity:1"/><stop offset="1" style="stop-color:#008eff;stop-opacity:1"/></linearGradient></defs><rect width="53.419" height="53.419" x="5.29" y="5.29" rx="13.676" ry="13.676" style="fill:url(#b);fill-opacity:1;stroke-width:.921025"/><path d="M20.201 14.197a5.907 5.907 0 0 0-5.92 5.918V33.92a5.907 5.907 0 0 0 5.92 5.919h23.6a5.905 5.905 0 0 0 5.918-5.919V20.115a5.905 5.905 0 0 0-5.918-5.918zm13.436 3.912h5.638c.738 0 1.334.597 1.334 1.335v5.638c0 .737-.596 1.334-1.334 1.334s-1.429-.597-1.429-1.334V22.67l-9.253 9.253h2.41c.738 0 1.335.69 1.335 1.429 0 .738-.597 1.335-1.335 1.335h-5.637a1.334 1.334 0 0 1-1.335-1.335v-5.638c0-.738.597-1.335 1.335-1.335s1.428.597 1.428 1.335v2.41l9.253-9.253h-2.41c-.738 0-1.335-.69-1.335-1.428s.597-1.335 1.335-1.335m-15.38 23.526a4.046 4.046 0 0 0-4.046 4.045v.078a4.046 4.046 0 0 0 4.046 4.045h8.785a4.046 4.046 0 0 0 4.046-4.045v-.078a4.046 4.046 0 0 0-4.046-4.045zm18.703 0a4.046 4.046 0 0 0-4.046 4.045v.078a4.046 4.046 0 0 0 4.046 4.045h8.783a4.046 4.046 0 0 0 4.046-4.045v-.078a4.046 4.046 0 0 0-4.046-4.045z" style="fill:#fff;fill-opacity:1;stroke-width:.921025"/><rect width="53.419" height="53.419" x="5.29" y="5.29" rx="13.676" ry="13.676" style="fill:none;fill-opacity:1;stroke:#000;stroke-width:.4;stroke-dasharray:none;stroke-opacity:1;filter:url(#c)"/><path d="M20.201 14.197a5.907 5.907 0 0 0-5.92 5.918V33.92a5.907 5.907 0 0 0 5.92 5.919h23.6a5.905 5.905 0 0 0 5.918-5.919V20.115a5.905 5.905 0 0 0-5.918-5.918zm13.436 3.912h5.638c.738 0 1.334.597 1.334 1.335v5.638c0 .737-.596 1.334-1.334 1.334s-1.429-.597-1.429-1.334V22.67l-9.253 9.253h2.41c.738 0 1.335.69 1.335 1.429 0 .738-.597 1.335-1.335 1.335h-5.637a1.334 1.334 0 0 1-1.335-1.335v-5.638c0-.738.597-1.335 1.335-1.335s1.428.597 1.428 1.335v2.41l9.253-9.253h-2.41c-.738 0-1.335-.69-1.335-1.428s.597-1.335 1.335-1.335zm-15.38 23.526a4.046 4.046 0 0 0-4.046 4.045v.078a4.046 4.046 0 0 0 4.046 4.045h8.785a4.046 4.046 0 0 0 4.046-4.045v-.078a4.046 4.046 0 0 0-4.046-4.045zm18.703 0a4.046 4.046 0 0 0-4.046 4.045v.078a4.046 4.046 0 0 0 4.046 4.045h8.783a4.046 4.046 0 0 0 4.046-4.045v-.078a4.046 4.046 0 0 0-4.046-4.045z" style="fill:none;fill-opacity:1;stroke:#0016ff;stroke-width:.2;stroke-dasharray:none;stroke-opacity:1;filter:url(#d)"/></svg>