<svg xmlns="http://www.w3.org/2000/svg" width="64" height="64"><rect width="58" height="46" x="4" y="-55" rx="4.146" ry="4.6" style="opacity:.2" transform="rotate(90)"/><rect width="58" height="46" x="3" y="-55" rx="4.146" ry="4.6" style="fill:#505050" transform="rotate(90)"/><path d="M15 34.875V10.078S15 9 16.097 9h31.806C49 9 49 10.078 49 10.078v24.797" style="fill:#71cfff"/><rect width="34" height="47" x="15" y="9" rx="1" ry="1" style="fill:#58c5f8"/><rect width="58" height="6" x="3" y="33" rx="1.45" ry="1.5" style="opacity:.2"/><path d="M13.602 3C11.053 3 9 4.848 9 7.145v1C9 5.848 11.053 4 13.602 4h36.796C52.947 4 55 5.848 55 8.145v-1C55 4.848 52.947 3 50.398 3z" style="fill:#fff;opacity:.1"/><rect width="58" height="6" x="3" y="32" rx="1.45" ry="1.5" style="fill:#9bff7c"/><path d="M4.45 32C3.645 32 3 32.669 3 33.5v1c0-.831.646-1.5 1.45-1.5h55.1c.804 0 1.45.669 1.45 1.5v-1c0-.831-.646-1.5-1.45-1.5zM16.098 9C15 9 15 10.078 15 10.078v1S15 10 16.098 10h31.804C49 10 49 11.078 49 11.078v-1S49 9 47.902 9z" style="fill:#fff;opacity:.2"/><path d="M16.195 57c-1.096 0-1.097-1.078-1.097-1.078v-1s0 1.078 1.097 1.078H48c1.097 0 1.098-1.078 1.098-1.078v1S49.097 57 48 57z" style="opacity:.2"/></svg>