<svg xmlns="http://www.w3.org/2000/svg" width="64" height="64"><rect width="52.086" height="24.647" x="15.73" y="-3.34" rx="2.872" ry="2.872" style="opacity:.2" transform="rotate(30)"/><rect width="52.086" height="24.647" x="14.16" y="15.23" rx="2.872" ry="2.872" style="opacity:.2" transform="rotate(15)"/><rect width="52" height="26" x="8" y="34" rx="2.889" ry="2.889" style="opacity:.2"/><rect width="52.086" height="24.647" x="15.23" y="-4.2" rx="2.872" ry="2.872" style="fill:#ade3ff" transform="rotate(30)"/><path d="m18.926 10.422-3.332 22.195 31.264 18.05 3.332-22.195Z" style="fill:#64baff"/><path d="m24.79 9.467 22.014 12.71-3.931 26.19-22.014-12.71Z" style="fill:#64baff"/><path d="m33.317 14.39 6.339 3.66-3.932 26.189-6.339-3.66z" style="opacity:.247047;fill:#3689e6"/><path d="m22.805 8.32 1.986 1.146-3.932 26.19-1.985-1.146Z" style="fill:#b0d4e9"/><path d="m19.995 19.9 1.341 1.708"/><path d="m46.417 21.89 1.985 1.146-3.931 26.19-1.986-1.146z" style="fill:#b0d4e9"/><rect width="52.086" height="24.647" x="13.9" y="14.26" rx="2.872" ry="2.872" style="fill:#e14383" transform="rotate(15)"/><path d="M24.58 14.26h34.185v24.647H24.58z" style="fill:#fe9ab8" transform="rotate(15)"/><path d="M39.95 14.26h13.675v24.647H39.95z" style="fill:#f4679d" transform="rotate(15)"/><rect width="52" height="26" x="8" y="33" rx="2.889" ry="2.889" style="fill:#469b0c"/><path d="M10 36v7a7 7 0 0 0 4.95-2.05A7 7 0 0 0 17 36Zm41 0a7 7 0 0 0 2.05 4.95A7 7 0 0 0 58 43v-7zm-17 4a7 7 0 0 0-7 7 7 7 0 0 0 7 7 7 7 0 0 0 7-7 7 7 0 0 0-7-7M10 51v7h7a7 7 0 0 0-2.05-4.95A7 7 0 0 0 10 51m48 0a7 7 0 0 0-4.95 2.05A7 7 0 0 0 51 58h7z" style="opacity:.2"/><circle cx="34" cy="46" r="7" style="fill:#9bdb4d"/><path d="M10 42a7 7 0 0 0 4.95-2.05A7 7 0 0 0 17 35h-7zm0 8a7 7 0 0 1 4.95 2.05A7 7 0 0 1 17 57h-7zm48 0a7 7 0 0 0-4.95 2.05A7 7 0 0 0 51 57h7zm0-8a7 7 0 0 1-4.95-2.05A7 7 0 0 1 51 35h7z" style="fill:#9bdb4d"/><path d="M16.137 5.03a2.86 2.86 0 0 0-2.285 1.43L4.4 22.833a2.85 2.85 0 0 0-.332 1.934c.058-.32.16-.636.332-.934l9.452-16.371a2.864 2.864 0 0 1 3.921-1.05l40.135 23.171a2.85 2.85 0 0 1 1.381 1.99 2.855 2.855 0 0 0-1.38-2.99L17.772 5.41a2.86 2.86 0 0 0-1.636-.38M10 35v1h6.9a7 7 0 0 0 .1-1zm41 0a7 7 0 0 0 .1 1H58v-1zm-17 4a7 7 0 0 0-7 7 7 7 0 0 0 .057.5A7 7 0 0 1 34 40a7 7 0 0 1 6.963 6.324A7 7 0 0 0 41 46a7 7 0 0 0-7-7M10 50v1a7 7 0 0 1 4.95 2.05A7 7 0 0 1 16.9 57h.1a7 7 0 0 0-2.05-4.95A7 7 0 0 0 10 50m48 0a7 7 0 0 0-4.95 2.05A7 7 0 0 0 51 57h.1a7 7 0 0 1 1.95-3.95A7 7 0 0 1 58 51z" style="fill:#fff;opacity:.2"/></svg>