<svg xmlns="http://www.w3.org/2000/svg" width="64" height="64"><circle cx="32" cy="32" r="27" style="fill:#f57c00"/><circle cx="32" cy="33" r="28" style="opacity:.2"/><path d="m32 32 27.075-7.249a28.028 28.01 0 0 0-19.83-19.773Z" style="fill:#1e88e5"/><path d="m32 32 19.82 19.807a28.028 28.01 0 0 0 7.22-27.048z" style="fill:#43a047"/><path d="m32 32-7.255 27.056a28.028 28.01 0 0 0 27.049-7.275Z" style="fill:#fbc02d"/><path d="M32 32 4.925 39.249a28.028 28.01 0 0 0 19.83 19.773Z" style="fill:#f57c00"/><path d="M32 32 12.18 12.193A28.028 28.01 0 0 0 4.96 39.24Z" style="fill:#e53935"/><path d="m32 32 7.255-27.056a28.028 28.01 0 0 0-27.049 7.275Z" style="fill:#8e24aa"/><path d="M32 17a16 16 0 1 0 16 16V21c0-2.216-1.784-4-4-4zm9 4a3 3 0 0 1 3 3 3 3 0 0 1-3 3 3 3 0 0 1-3-3 3 3 0 0 1 3-3" style="opacity:.2"/><path d="M32 16a16 16 0 1 0 16 16V20c0-2.216-1.784-4-4-4zm9 4a3 3 0 0 1 3 3 3 3 0 0 1-3 3 3 3 0 0 1-3-3 3 3 0 0 1 3-3" style="fill:#fff"/><path d="M32 4A28 28 0 0 0 4 32a28 28 0 0 0 .018.492A28 28 0 0 1 32 5a28 28 0 0 1 27.975 27.492A28 28 0 0 0 60 32 28 28 0 0 0 32 4" style="opacity:.2;fill:#fff"/></svg>