<svg xmlns="http://www.w3.org/2000/svg" width="64" height="64"><rect width="56" height="56" x="4" y="5" rx="4.2" ry="4.2" style="opacity:.2"/><rect width="56" height="56" x="4" y="4" rx="4.2" ry="4.2" style="fill:#fdf6e3"/><path d="M11.23 14.998c-.681 0-1.23.549-1.23 1.23v5.54c0 .681.549 1.23 1.23 1.23h5.54c.681 0 1.23-.549 1.23-1.23v-5.54c0-.681-.549-1.23-1.23-1.23Zm13.77 2c-.554 0-1 .446-1 1v2c0 .554.446 1 1 1h28c.554 0 1-.446 1-1v-2c0-.554-.446-1-1-1zm-11 12a4 4 0 0 0-4 4 4 4 0 0 0 4 4 4 4 0 0 0 4-4 4 4 0 0 0-4-4m11 2c-.554 0-1 .446-1 1v2c0 .554.446 1 1 1h28c.554 0 1-.446 1-1v-2c0-.554-.446-1-1-1zM10.148 43.002a.156.179 90 0 0-.148.152l.012 4.114.008 3.574a.156.179 90 0 0 .27.137l4.077-2.067 3.543-1.793a.156.179 90 0 0 0-.27l-4.09-2.05-3.55-1.781a.156.179 90 0 0-.122-.016M25 44.998c-.554 0-1 .446-1 1v2c0 .554.446 1 1 1h28c.554 0 1-.446 1-1v-2c0-.554-.446-1-1-1z" style="opacity:.1"/><rect width="8" height="8" x="10" y="14" rx="1.23" ry="1.23" style="fill:#3d3d3d"/><circle cx="14" cy="32" r="4" style="fill:#3d3d3d"/><path d="m10.268 42.02 3.552 1.781 4.09 2.05a.156.179 90 0 1 0 .27l-3.543 1.793-4.08 2.065a.156.179 90 0 1-.268-.135l-.01-3.573L10 42.156a.156.179 90 0 1 .268-.135" style="fill:#3d3d3d"/><rect width="30" height="4" x="24" y="16" rx="1" ry="1" style="fill:#6c6c6c"/><rect width="30" height="4" x="24" y="30" rx="1" ry="1" style="fill:#6c6c6c"/><rect width="30" height="4" x="24" y="44" rx="1" ry="1" style="fill:#6c6c6c"/><path d="M8.2 4A4.19 4.19 0 0 0 4 8.2v1A4.19 4.19 0 0 1 8.2 5h47.6A4.19 4.19 0 0 1 60 9.2v-1A4.19 4.19 0 0 0 55.8 4z" style="opacity:.2;fill:#fff"/></svg>