<svg xmlns="http://www.w3.org/2000/svg" width="64" height="64"><rect width="34" height="42" x="15" y="19" rx="2.833" ry="2.8" style="opacity:.2"/><path d="M33.375 13c-.762 0-1.375.557-1.375 1.25V18h11v-3.75c0-.693-.613-1.25-1.375-1.25Z" style="fill:#8e8e8e"/><path d="M35 5h5v8h-5z" style="fill:#b7b7b7"/><rect width="34" height="42" x="15" y="18" rx="2.833" ry="2.8" style="fill:#4f4f4f"/><path d="M21 24h22v11H21z" style="opacity:.2"/><path d="M26 24h12v11H26z" style="fill:#b7b7b7"/><path d="M21 28v7h22v-7z" style="fill:#c77640"/><path d="M17.834 18C16.264 18 15 19.25 15 20.8v1c0-1.55 1.264-2.8 2.834-2.8h28.332C47.736 19 49 20.25 49 21.8v-1c0-1.55-1.264-2.8-2.834-2.8z" style="opacity:.1;fill:#fff"/><path d="M21 24h22v1H21z" style="opacity:.2"/><path d="M21 28h22v1H21zM35 5h5v1h-5z" style="opacity:.2;fill:#fff"/></svg>