<svg xmlns="http://www.w3.org/2000/svg" width="64" height="64"><rect width="50" height="50" x="7" y="8" rx="3" ry="3" style="opacity:.2"/><rect width="50" height="50" x="7" y="7" rx="3" ry="3" style="fill:#634cb8"/><path d="M10 7c-1.662 0-3 1.338-3 3v1c0-1.662 1.338-3 3-3h44c1.662 0 3 1.338 3 3v-1c0-1.662-1.338-3-3-3z" style="opacity:.2;fill:#fff"/><path d="M38 5v6h16v13h6V11q0-6-6-6zM4 41v13q0 6 6 6h16v-6H10V41z" style="opacity:.2"/><path d="M38 4v6h16v13h6V10q0-6-6-6zM4 40v13q0 6 6 6h16v-6H10V40z" style="fill:#dfdfdf"/></svg>