<svg xmlns="http://www.w3.org/2000/svg" width="64" height="64"><path d="M16 51.376v2C16 54.83 17.19 56 18.668 56h26.664C46.81 56 48 54.83 48 53.376v-2C48 52.83 46.81 54 45.332 54H18.668C17.191 54 16 52.83 16 51.376" style="opacity:.2"/><rect width="42" height="32" x="-55" y="-48" rx="2.626" ry="2.666" style="fill:#8e8e8e" transform="rotate(90)scale(-1 1)"/><path d="M6 45.5v2C6 48.884 7.162 50 8.602 50h46.796C56.838 50 58 48.884 58 47.5v-2c0 1.384-1.162 2.5-2.602 2.5H8.602C7.162 48 6 46.884 6 45.5" style="opacity:.2"/><rect width="40" height="52" x="-49" y="-58" rx="2.5" ry="2.6" style="fill:#3f3f3f" transform="rotate(90)scale(-1 1)"/><path d="M8.602 9C7.162 9 6 10.115 6 11.5v1C6 11.115 7.161 10 8.602 10h46.796C56.838 10 58 11.115 58 12.5v-1c0-1.385-1.162-2.5-2.602-2.5z" style="opacity:.1;fill:#fff"/><rect width="32" height="44" x="-46" y="-54" rx="0" ry="0" style="opacity:.2" transform="rotate(90)scale(-1 1)"/><rect width="32" height="44" x="-45" y="-54" rx="0" ry="0" style="fill:#2584d4" transform="rotate(90)scale(-1 1)"/><rect width="16" height="24" x="14" y="18" rx="2.667" ry="2.4" style="opacity:.2"/><rect width="16" height="24" x="14" y="17" rx="2.667" ry="2.4" style="fill:#5ebae6"/><rect width="16" height="10" x="34" y="18" rx="2.667" ry="2.5" style="opacity:.2"/><rect width="16" height="10" x="34" y="17" rx="2.667" ry="2.5" style="fill:#5ebae6"/><rect width="16" height="10" x="34" y="32" rx="2.667" ry="2.5" style="opacity:.2"/><rect width="16" height="10" x="34" y="31" rx="2.667" ry="2.5" style="fill:#5ebae6"/><path d="M16.668 17C15.191 17 14 18.069 14 19.398v1C14 19.068 15.19 18 16.668 18h10.664C28.809 18 30 19.069 30 20.398v-1C30 18.068 28.81 17 27.332 17zm20 0C35.191 17 34 18.115 34 19.5v1c0-1.385 1.19-2.5 2.668-2.5h10.664C48.809 18 50 19.115 50 20.5v-1c0-1.385-1.19-2.5-2.668-2.5zm0 14C35.191 31 34 32.115 34 33.5v1c0-1.385 1.19-2.5 2.668-2.5h10.664C48.809 32 50 33.115 50 34.5v-1c0-1.385-1.19-2.5-2.668-2.5z" style="opacity:.1;fill:#fff"/></svg>