<svg xmlns="http://www.w3.org/2000/svg" width="64" height="64"><path d="M7.1 17A4.09 4.09 0 0 0 3 21.1v32.8A4.09 4.09 0 0 0 7.1 58h20.8a4.09 4.09 0 0 0 4.1-4.1 4.09 4.09 0 0 0 4.1 4.1h20.8a4.09 4.09 0 0 0 4.1-4.1V21.1a4.09 4.09 0 0 0-4.1-4.1H36.1a4.09 4.09 0 0 0-4.1 4.1 4.09 4.09 0 0 0-4.1-4.1Z" style="opacity:.2"/><rect width="29" height="41" x="3" y="16" ry="4.1" style="fill:#e97e10"/><rect width="29" height="41" x="32" y="16" ry="4.1" style="fill:#e97e10"/><path d="M10.703 13C8.651 13 7 14.741 7 16.904v33.192C7 52.259 8.651 54 10.703 54h42.594C55.349 54 57 52.259 57 50.096V16.904C57 14.741 55.349 13 53.297 13H35.703C33.651 13 32 14.741 32 16.904 32 14.741 30.349 13 28.297 13Z" style="opacity:.2"/><path d="M28.296 12C30.348 12 32 13.742 32 15.905V53H10.704C8.652 53 7 51.258 7 49.095v-33.19C7 13.742 8.652 12 10.704 12Zm7.408 0C33.652 12 32 13.742 32 15.905V53h21.296C55.348 53 57 51.258 57 49.095v-33.19C57 13.742 55.348 12 53.296 12Z" style="fill:#e4e4e4"/><path d="M35.704 12C33.652 12 32 13.742 32 15.905V53h21.296C55.348 53 57 51.258 57 49.095v-33.19C57 13.742 55.348 12 53.296 12Z" style="opacity:.05"/><path d="M10.703 12C8.651 12 7 13.741 7 15.904v1C7 14.741 8.651 13 10.703 13h17.594C30.349 13 32 14.741 32 16.904 32 14.741 33.651 13 35.703 13h17.594C55.349 13 57 14.741 57 16.904v-1C57 13.741 55.349 12 53.297 12H35.703C33.651 12 32 13.741 32 15.904 32 13.741 30.349 12 28.297 12z" style="fill:#fff;opacity:.2"/><path d="M38 13v28l4-4 4 4V13Z" style="opacity:.2"/><path d="M38 12v28l4-4 4 4V12Z" style="fill:#df574d"/><path d="M13.162 28.462v.54H10v-.54l.775-.2L14.47 19h2.247l3.68 9.262.791.2v.54h-4.626v-.54l1.201-.2-.992-2.567h-3.99l-.953 2.567zm1.65-7.968L13.1 24.881h3.378zM25.536 21q2.736 0 2.736 2.16v5.076l.728.2v.548h-2.681l-.17-.598q-.605.44-1.093.598-.488.166-.984.166-2.255 0-2.255-2.326 0-.88.333-1.404.333-.532.96-.781.629-.258 1.977-.29l.945-.026v-1.138q0-1.412-1.077-1.412-.65 0-1.457.432l-.294.972h-.512V21.29q1.17-.191 1.72-.241t1.124-.05m.496 4.063-.65.024q-.752.034-1.047.424-.286.39-.286 1.263 0 .706.232 1.038t.604.333q.527 0 1.147-.291z" style="opacity:.1"/><path d="M13.162 27.462v.54H10v-.54l.775-.2L14.47 18h2.247l3.68 9.262.791.2v.54h-4.626v-.54l1.201-.2-.992-2.567h-3.99l-.953 2.567zm1.65-7.968L13.1 23.881h3.378zM25.536 20q2.736 0 2.736 2.16v5.076l.728.2v.548h-2.681l-.17-.598q-.605.44-1.093.598-.488.166-.984.166-2.255 0-2.255-2.326 0-.88.333-1.404.333-.532.96-.781.629-.258 1.977-.29l.945-.026v-1.138q0-1.412-1.077-1.412-.65 0-1.457.432l-.294.972h-.512V20.29q1.17-.191 1.72-.241t1.124-.05m.496 4.063-.65.024q-.752.034-1.047.424-.286.39-.286 1.263 0 .706.232 1.038t.604.333q.527 0 1.147-.291z" style="fill:#3f3f3f"/></svg>