<svg xmlns="http://www.w3.org/2000/svg" width="64" height="64"><rect width="56" height="36" x="4" y="11" rx="4" style="opacity:.2"/><rect width="56" height="36" x="4" y="10" rx="4" style="fill:#90caf9"/><path d="M11.5 39a2.5 2.5 0 1 0 0 5 2.5 2.5 0 0 0 0-5m8 0a2.5 2.5 0 1 0 0 5 2.5 2.5 0 0 0 0-5" style="opacity:.2"/><path d="M11.5 38a2.5 2.5 0 1 0 0 5 2.5 2.5 0 0 0 0-5m8 0a2.5 2.5 0 1 0 0 5 2.5 2.5 0 0 0 0-5" style="fill:#e3f2fd"/><rect width="52" height="22" x="6" y="13" rx="3" style="fill:#263238"/><path d="M15 15v2h6v-2zm6 2v6h2v-6zm0 6h-6v2h6zm0 2v6h2v-6zm0 6h-6v2h6zm10-16v2h6v-2zm6 2v6h2v-6zm0 6h-6v2h6zm-6 2h-2v6h2zm0 6v2h6v-2Zm12-16v2h6v-2zm0 2h-2v6h2zm0 6v2h6v-2zm6 2v6h2v-6zm0 6h-6v2h6zm-6 0v-6h-2v6zM25 21v2h2v-2zm0 4v2h2v-2z" style="fill:#90caf9"/><rect width="26" height="29" x="32" y="29" rx="3" style="opacity:.2"/><rect width="26" height="29" x="32" y="28" rx="3" style="fill:#f5f5f5"/><path d="M36 32a1 1 0 1 0 0 2 1 1 0 0 0 0-2m2 0v2h12v-2zm-2 4a1 1 0 1 0 0 2 1 1 0 0 0 0-2m2 0v2h10v-2zm-2 4a1 1 0 1 0 0 2 1 1 0 0 0 0-2m2 0v2h15v-2zm-2 6a1 1 0 1 0 0 2 1 1 0 0 0 0-2m2 0v2h8v-2zm-2 4a1 1 0 1 0 0 2 1 1 0 0 0 0-2m2 0v2h13v-2z" style="fill:#90caf9"/><path d="M8 10c-2.216 0-4 1.784-4 4v1c0-2.216 1.784-4 4-4h48c2.216 0 4 1.784 4 4v-1c0-2.216-1.784-4-4-4z" style="fill:#fff;opacity:.2"/></svg>