<svg xmlns="http://www.w3.org/2000/svg" width="64" height="64"><path d="M44.633 61c-2.249 0-4.455-.656-6.316-1.867A11.63 11.63 0 0 1 32.002 61a11.6 11.6 0 0 1-6.315-1.867A11.46 11.46 0 0 1 19.447 61h-.067a11.38 11.38 0 0 1-8.083-3.335C9.17 55.548 8 52.762 8 49.82V28.385C8.004 15.49 18.77 5 32.002 5 45.235 5 56 15.49 56 28.385v21.444c0 5.936-4.715 10.835-10.736 11.155q-.316.017-.631.016" style="opacity:.2"/><path d="M44.633 60c-2.249 0-4.455-.656-6.316-1.867A11.63 11.63 0 0 1 32.002 60a11.6 11.6 0 0 1-6.315-1.867A11.46 11.46 0 0 1 19.447 60h-.067a11.38 11.38 0 0 1-8.083-3.335C9.17 54.548 8 51.762 8 48.82V27.385C8.004 14.49 18.77 4 32.002 4 45.235 4 56 14.49 56 27.385v21.444c0 5.936-4.715 10.835-10.736 11.155q-.316.017-.631.016" style="fill:#5072eb"/><path d="M50 28.6v20.443c0 3.128-2.468 5.776-5.664 5.948a6.07 6.07 0 0 1-4.092-1.283c-1.328-1.044-3.196-.997-4.536.035A6.06 6.06 0 0 1 31.996 55a6.05 6.05 0 0 1-3.708-1.256 3.74 3.74 0 0 0-4.58 0A6.06 6.06 0 0 1 20.04 55c-3.324.023-6.04-2.714-6.04-5.964V28.6C14 18.88 22.06 11 32 11s18 7.88 18 17.6" style="opacity:.2"/><path fill="#fff" d="M50 27.6v20.443c0 3.128-2.468 5.776-5.664 5.948a6.07 6.07 0 0 1-4.092-1.283c-1.328-1.044-3.196-.997-4.536.035A6.06 6.06 0 0 1 31.996 54a6.05 6.05 0 0 1-3.708-1.256 3.74 3.74 0 0 0-4.58 0A6.06 6.06 0 0 1 20.04 54c-3.324.023-6.04-2.714-6.04-5.964V27.6C14 17.88 22.06 10 32 10s18 7.88 18 17.6"/><path d="m20 25 7 4-7 4" style="opacity:.1;fill:none;stroke:#000;stroke-width:4;stroke-linecap:round;stroke-linejoin:round"/><path d="m20 24 7 4-7 4" style="fill:none;stroke:#727272;stroke-width:4;stroke-linecap:round;stroke-linejoin:round"/><path d="M34 29h9.8" style="opacity:.1;fill:none;stroke:#000;stroke-width:4;stroke-linecap:round;stroke-linejoin:round"/><path d="M34 28h9.8" style="fill:none;stroke:#727272;stroke-width:4;stroke-linecap:round;stroke-linejoin:round"/><path d="M32.002 4C18.77 4 8.004 14.49 8 27.385v1C8.004 15.49 18.77 5 32.002 5S56 15.49 56 28.385v-1C56 14.49 45.234 4 32.002 4" style="fill:#fff;opacity:.1"/></svg>