<svg xmlns="http://www.w3.org/2000/svg" width="64" height="64"><rect width="54" height="42" x="5" y="12" rx="5.4" ry="5.6" style="opacity:.2"/><path d="M10.4 11C7.41 11 5 13.497 5 16.6v26.5h54V16.6c0-3.103-2.409-5.6-5.4-5.6Z" style="fill:#07b5ea"/><path d="M25 35h19.334v2H25z" style="opacity:.7;fill:#ffe033"/><path d="M15 16a6 6 0 1 1 0 12 6 6 0 0 1 0-12" style="opacity:.2"/><path d="M15 15a6 6 0 1 1 0 12 6 6 0 0 1 0-12" style="fill:#ffb824"/><path d="M55.773 18.986a2.6 2.6 0 0 0-.603.051 2.36 2.36 0 0 0-1.154.578l-9.565 9.127a1.245 1.184 0 0 0-.289.483c-.1.163-.162.343-.162.53v2.643c.003.188.176.373.262.541l-1.576 1.616.013.013-1.322 1.29A1.295 1.256 0 0 0 42.295 38h2.715a1.295 1.256 0 0 0 .916-.367l.554-.541 1.12-1.04s.334-.056.511-.052h2.713c.491 0 .878-.25 1.098-.6l9.322-8.896-.09.076c.365-.287.66-.68.772-1.115a1.8 1.8 0 0 0-.098-1.145 2.2 2.2 0 0 0-.61-.82l.026.027-.098-.084.057.045-4.03-3.845a2.2 2.2 0 0 0-.882-.567 1.8 1.8 0 0 0-.518-.09" style="opacity:.2"/><path d="M55.773 17.986a2.6 2.6 0 0 0-.603.051 2.37 2.37 0 0 0-1.154.579l-9.565 9.127a1.245 1.184 0 0 0 0 1.672l5.466 5.216a1.245 1.184 0 0 0 1.763 0l9.565-9.127-.09.076c.364-.287.659-.68.77-1.115a1.8 1.8 0 0 0-.097-1.145 2.2 2.2 0 0 0-.61-.82l.027.027-.098-.083.056.044-4.03-3.845a2.2 2.2 0 0 0-.882-.566 1.8 1.8 0 0 0-.518-.09M45.01 31.845a1.295 1.256 0 0 0-.918.368l-2.716 2.645A1.295 1.256 0 0 0 42.294 37h2.716a1.295 1.256 0 0 0 .915-.368l1.358-1.322a1.295 1.256 0 0 0 0-1.774l-1.358-1.323a1.295 1.256 0 0 0-.915-.368" style="fill:#ffe033"/><path d="M55.773 17.986a2.6 2.6 0 0 0-.603.051 2.36 2.36 0 0 0-1.154.578l-9.565 9.127a1.245 1.184 0 0 0-.236 1.336 1.245 1.184 0 0 1 .236-.336l9.565-9.127a2.37 2.37 0 0 1 1.154-.578c.207-.042.412-.058.603-.05.192.007.369.037.518.09.501.176.797.471.883.566l4.03 3.845-.058-.045.098.084-.025-.027c.132.11.42.381.61.82q.04.1.073.217.014-.036.024-.072a1.8 1.8 0 0 0-.098-1.145 2.2 2.2 0 0 0-.61-.82l.026.027-.098-.084.057.045-4.03-3.845a2.2 2.2 0 0 0-.882-.567 1.8 1.8 0 0 0-.518-.09" style="fill:#fff;opacity:.2"/><path d="M45.523 27.505a1.3 1.3 0 0 0-.597.09c-.483.195-.926.653-.926 1.161V31.4c.003.187.176.372.261.54l-1.575 1.616 3.196 3.09 1.717-1.593s.336-.056.513-.052h2.713c1.154.002 1.734-1.385.918-2.177l-5.406-4.952a1.3 1.3 0 0 0-.814-.366" style="fill:#515151"/><path d="M5 43v-1.39s3.894-2.316 4.989-2.519c1.095-.202 2.388-.037 3.716.189 1.33.225 3.313.53 3.932.548.62.02 1.74-.048 3.041-.12 1.302-.069 3.457-.133 4.13-.126.672 0 2.35.084 4.14.182 1.789.099 4.246.264 4.803.31.558.046 1.213.13 1.957.223.744.092 2.031.23 2.487.268s1.511.169 2.737.27c1.225.102 3.186.137 3.752.1.566-.039 1.753-.416 3.076-.764 1.322-.349 2.78-.667 3.89-.588S59 41.61 59 41.61V43H11.557z" style="fill:#3f3f3f"/><path d="M5 43v4.4c0 3.102 2.408 5.6 5.4 5.6h43.2c2.992 0 5.4-2.498 5.4-5.6V43Z" style="fill:#1c65c5"/><path d="M5 43v1.042s3.894 1.738 4.989 1.89 2.388.028 3.716-.141c1.33-.17 3.313-.398 3.932-.412.62-.016 1.74.037 3.041.09 1.302.052 3.457.1 4.13.094.672 0 2.35-.063 4.14-.136s4.246-.198 4.803-.232c.558-.035 1.213-.098 1.957-.168.744-.068 2.031-.172 2.487-.2.455-.03 1.511-.127 2.737-.203 1.225-.077 3.186-.102 3.752-.074.566.029 1.753.312 3.076.573 1.322.26 2.78.5 3.89.44 1.11-.058 7.35-1.52 7.35-1.52v-1.042H11.557z" style="opacity:.5;fill:#3f3f3f"/><path d="M10.398 11C7.407 11 5 13.5 5 16.602v1C5 14.499 7.407 12 10.398 12h43.204C56.593 12 59 14.5 59 17.602v-1C59 13.499 56.593 11 53.602 11z" style="opacity:.2;fill:#fff"/><path d="M15 15a6 6 0 0 0-6 6q.002.25.023.496a5.999 5.999 0 0 1 11.954 0q.022-.246.023-.496a6 6 0 0 0-6-6" style="opacity:.2;fill:#fff"/></svg>