<svg xmlns="http://www.w3.org/2000/svg" width="64" height="64"><rect width="50" height="42" x="6" y="11" rx="3.19" ry="3.063" style="opacity:.2"/><rect width="50" height="42" x="6" y="10" rx="3.19" ry="3.063" style="fill:#aaa"/><circle cx="46" cy="46" r="15" style="opacity:.2"/><circle cx="46" cy="45" r="15" style="fill:#e4e4e4"/><path d="m43.67 36-.198 2.37a7.1 7.1 0 0 0-2.066 1.195l-2.156-1.013L37 42.448l1.957 1.36A7 7 0 0 0 38.85 45a7 7 0 0 0 .102 1.198L37 47.552l2.25 3.896 2.15-1.01a7.1 7.1 0 0 0 2.072 1.186L43.67 54h4.5l.196-2.37a7.1 7.1 0 0 0 2.069-1.195l2.153 1.013 2.25-3.896-1.954-1.36A7 7 0 0 0 52.993 45a7 7 0 0 0-.102-1.198l1.95-1.354-2.25-3.896-2.15 1.01a7.1 7.1 0 0 0-2.07-1.186L48.17 36Zm2.178 6h.073a3 3 0 0 1 3 3 3 3 0 0 1-3 3 3 3 0 0 1-3-3 3 3 0 0 1 2.927-3" style="fill:#636363"/><path d="M9.191 10C7.424 10 6 11.366 6 13.063v1C6 12.366 7.424 11 9.191 11H52.81c1.766 0 3.19 1.366 3.19 3.063v-1C56 11.366 54.576 10 52.809 10z" style="opacity:.2;fill:#fff"/></svg>