<svg xmlns="http://www.w3.org/2000/svg" xml:space="preserve" width="64" height="64"><path d="M43.438 5.02a9 9 0 0 0-1.766.293 9.02 9.02 0 0 0-5.527 4.253c-1.829 3.186-1.516 7.034.48 9.852l-1.875 3.266-.004.007-9.492 16.532c-.828 1.442-10.571 17.9-3.895 21.777l7.508-13.078 12.328-21.48h.004l.004-.012 1.86-3.235q.464.048.933.047c.786 0 1.577-.104 2.356-.312a9.03 9.03 0 0 0 5.527-4.254c2.497-4.35 1.004-9.936-3.324-12.45a9 9 0 0 0-5.117-1.206" style="opacity:.2"/><path d="M48.556 5.228a9 9 0 0 0-6.885-.916 9.02 9.02 0 0 0-5.525 4.256c-1.829 3.185-1.517 7.03.479 9.85l-1.88 3.275 6.453 3.747 1.864-3.247a9 9 0 0 0 3.29-.262 9.03 9.03 0 0 0 5.526-4.256c2.496-4.35 1.007-9.933-3.322-12.447" style="fill:#85a433"/><path d="m28.867 46.921 12.336-21.49-6.453-3.747-9.494 16.539c-.828 1.443-10.573 17.9-3.897 21.777z" style="fill:#b3b3b7"/><path d="M20.649 5.02a9 9 0 0 0-5.118 1.207c-4.328 2.513-5.817 8.099-3.32 12.449a9.02 9.02 0 0 0 5.523 4.254c.78.208 1.57.312 2.356.312q.47-.001.937-.05l1.86 3.238.008.011 12.328 21.481L42.73 61c6.676-3.877-3.07-20.335-3.899-21.777L29.344 22.69l-.004-.007-1.875-3.266c1.996-2.818 2.305-6.666.476-9.852a9.02 9.02 0 0 0-5.523-4.254 9 9 0 0 0-1.77-.292" style="opacity:.2"/><path d="m29.344 21.693-1.88-3.276c1.996-2.818 2.307-6.664.479-9.849a9.02 9.02 0 0 0-5.525-4.256 9 9 0 0 0-6.886.916c-4.328 2.514-5.818 8.097-3.321 12.447a9.02 9.02 0 0 0 5.525 4.256 9.1 9.1 0 0 0 3.29.262l1.865 3.247z" style="fill:#9fd022"/><path d="M19.994 10c-.691 0-1.373.181-1.988.535a3.999 3.999 0 1 0 5.455 1.46 3.97 3.97 0 0 0-2.434-1.86A4 4 0 0 0 19.994 10m24 0c-.691 0-1.373.181-1.988.535a3.999 3.999 0 1 0 5.455 1.46 3.97 3.97 0 0 0-2.434-1.86A4 4 0 0 0 43.994 10" style="opacity:.2"/><path d="M18.973 16.865a4 4 0 1 1 2.054-7.728 4 4 0 0 1-2.054 7.728" style="fill:#fff"/><path d="m35.221 46.921-12.336-21.49 6.453-3.747 9.495 16.54c.828 1.442 10.573 17.9 3.896 21.776Z" style="fill:#d8d9dd"/><circle cx="32" cy="33" r="3" style="fill:#808083"/><path d="m237.5 230.14-6.17 6.2-6.17-6.2-3.54 3.52 6.18 6.22-6.18 6.22 3.54 3.53 6.17-6.2 6.17 6.2 3.54-3.53-6.18-6.22 6.18-6.22z" style="opacity:.3" transform="matrix(.15446 0 0 .1539 -3.732 -3.92)"/><path d="M42.973 16.865a4 4 0 1 1 2.054-7.728 4 4 0 0 1-2.054 7.728" style="fill:#fff"/><path d="M43.438 4.02a9 9 0 0 0-1.766.293 9.02 9.02 0 0 0-5.527 4.253 9.03 9.03 0 0 0-1.174 4.995 9 9 0 0 1 1.174-3.995 9.02 9.02 0 0 1 5.527-4.254 8.98 8.98 0 0 1 6.883.914c2.731 1.587 4.313 4.4 4.494 7.35.158-3.303-1.455-6.584-4.494-8.35a9 9 0 0 0-5.117-1.206m-7.403 15.425-1.289 2.246.43.25.86-1.496c.088.167.196.324.294.487l.295-.514a9 9 0 0 1-.59-.973" style="opacity:.1;fill:#fff"/><path d="M20.648 4.02a9 9 0 0 0-5.117 1.207c-3.042 1.766-4.657 5.052-4.496 8.357.18-2.953 1.762-5.77 4.496-7.357a9 9 0 0 1 6.887-.915 9.02 9.02 0 0 1 5.523 4.254 8.96 8.96 0 0 1 1.172 3.995 9 9 0 0 0-1.172-4.995 9.02 9.02 0 0 0-5.523-4.254 9 9 0 0 0-1.77-.292m7.407 15.425c-.179.334-.37.662-.59.973l.295.514c.097-.163.205-.32.295-.487l.86 1.496.429-.25z" style="opacity:.2;fill:#fff"/></svg>