<svg xmlns="http://www.w3.org/2000/svg" width="64" height="64"><g transform="translate(0 -268.3)"><path d="M4 321.3v1c0 3.878 3.122 7 7 7h42c3.878 0 7-3.122 7-7 0-.114-.024-.222-.033-.334A6.983 6.983 0 0 1 53 328.3H11c-3.878 0-7-3.122-7-7" style="opacity:.2"/><path d="M46 314.3h7c3.878 0 7 3.122 7 7s-3.122 7-7 7h-7z" style="fill:#ff7c70"/><path d="M18 314.3h-7c-3.878 0-7 3.122-7 7s3.122 7 7 7h7z" style="fill:#7a0000"/><path d="M46 314.3v14H32c-4.514-5.043-5.37-9.78 0-14z" style="fill:#ed5353"/><path d="M32 314.3v14H18v-14z" style="fill:#c6262e"/><path d="M47.871 294.304a7 7 0 0 0-3.992.93l-6.063 3.5-12.125 7-12.125 7-6.058 3.5c-1.943 1.122-3.114 3.027-3.406 5.078.49 3.39 3.367 5.988 6.898 5.988h5.332l4.234-2.445 12.125-7 12.125-7 6.063-3.5a6.985 6.985 0 0 0 2.562-9.562 6.98 6.98 0 0 0-5.57-3.489M4.293 324.211c.044.152.086.302.14.453a7 7 0 0 1-.14-.453m.578 1.414c.03.054.043.113.074.168.018.031.044.055.063.086-.05-.083-.091-.17-.137-.254m.762 1.129c.077.093.149.192.23.28-.082-.088-.153-.187-.23-.28m.957.949c.095.078.186.162.285.234-.1-.073-.19-.156-.285-.234m1.078.722c.13.071.253.15.387.211-.134-.062-.258-.14-.387-.21m1.172.504c.173.057.342.118.52.16-.178-.042-.348-.104-.52-.16m1.207.278" style="opacity:.2"/><path d="m37.817 297.732 6.062-3.5a6.985 6.985 0 0 1 9.562 2.562 6.985 6.985 0 0 1-2.562 9.562l-6.062 3.5z" style="fill:#ffc27d"/><path d="m13.568 311.732-6.062 3.5a6.985 6.985 0 0 0-2.562 9.562 6.985 6.985 0 0 0 9.562 2.562l6.062-3.5z" style="fill:#cc3b02"/><path d="m37.817 297.732 7 12.124-12.124 7c-6.431-2.11-9.541-5.785-7-12.124z" style="fill:#ffa154"/><path d="m25.693 304.732 7 12.124-12.125 7-7-12.124z" style="fill:#f37329"/><path d="M31.516 278.933a6.98 6.98 0 0 0-5.57 3.488l-3.5 6.063-7 12.125-7 12.125-3.5 6.058a7 7 0 0 0-.852 2.465C4.562 324.674 7.45 327.3 11 327.3h4.855c.456-.443.878-.93 1.211-1.508l3.5-6.058 7-12.125 7-12.125 3.5-6.063a6.984 6.984 0 0 0-2.558-9.562 7 7 0 0 0-3.992-.926M4.21 323.94c.043.177.104.346.16.52-.056-.173-.117-.343-.16-.52m.465 1.324c.052.111.117.215.176.324-.059-.109-.124-.212-.176-.324m.687 1.16c.07.096.151.185.227.277-.076-.092-.156-.18-.227-.277m.918 1.023c.078.071.165.132.246.2-.08-.068-.168-.128-.246-.2m1.14.844c.032.019.055.045.087.063.053.03.11.045.164.074-.084-.046-.169-.088-.25-.137m1.227.578c.143.052.286.091.43.133a7 7 0 0 1-.43-.133m1.258.32" style="opacity:.2"/><path d="m22.444 287.483 3.5-6.062a6.985 6.985 0 0 1 9.562-2.562 6.985 6.985 0 0 1 2.562 9.562l-3.5 6.062z" style="fill:#8cd5ff"/><path d="m8.444 311.732-3.5 6.062a6.985 6.985 0 0 0 2.562 9.562 6.985 6.985 0 0 0 9.562-2.562l3.5-6.062z" style="fill:#0d52bf"/><path d="m22.444 287.483 12.124 7-7 12.124c-6.624 1.388-11.155-.24-12.124-7z" style="fill:#64baff"/><path d="m15.444 299.607 12.124 7-7 12.125-12.124-7z" style="fill:#3689e6"/><path d="M4 286.3v-7c0-3.878 3.122-7 7-7s7 3.122 7 7v7z" style="fill:#e2ffb4"/><path d="M4 314.3v7c0 3.878 3.122 7 7 7s7-3.122 7-7v-7z" style="fill:#3a9104"/><path d="M11 4c-3.878 0-7 3.122-7 7v1c0-3.878 3.122-7 7-7s7 3.122 7 7v-1c0-3.878-3.122-7-7-7m21.191 5.617a6.99 6.99 0 0 0-6.248 3.504l-3.5 6.063-7 12.123c.038.265.088.514.137.763l6.863-11.886 3.5-6.063a6.986 6.986 0 0 1 9.563-2.562 6.98 6.98 0 0 1 3.484 5.517 6.98 6.98 0 0 0-3.484-6.517 7 7 0 0 0-3.315-.942M47.195 24.99a7 7 0 0 0-3.316.942l-6.063 3.5-6.82 3.937-.865 1.5 7.685-4.437 6.063-3.5a6.985 6.985 0 0 1 9.562 2.562 7 7 0 0 1 .922 3.045 7 7 0 0 0-.922-4.045 6.98 6.98 0 0 0-6.246-3.504M24.998 39.693c-.05.005-.097.004-.146.008a8 8 0 0 0-.024 1.305c.025-.423.077-.858.17-1.313M38.854 46l-1.733 1H53a6.98 6.98 0 0 1 6.975 6.5c.011-.166.025-.33.025-.5 0-3.878-3.122-7-7-7h-7z" style="opacity:.2;fill:#fff" transform="translate(0 268.3)"/><path d="M4 286.3h14v14c-5.043 4.514-9.78 5.37-14 0z" style="fill:#9bdb4d"/><path d="M4 300.3h14v14H4Z" style="fill:#68b723"/><circle cx="11" cy="322.3" r="4" style="opacity:.2"/><circle cx="11" cy="321.3" r="4" style="fill:#fff"/></g></svg>