<svg xmlns="http://www.w3.org/2000/svg" width="64" height="64"><rect width="56" height="56" x="4" y="5" rx="2.8" ry="2.8" style="opacity:.2"/><rect width="56" height="56" x="4" y="4" rx="2.8" ry="2.8" style="fill:#e4e4e4"/><path d="M8 9v14h14V9Zm0 17v14h14V26Zm17 0v14h14V26Zm17 0v14h14V26ZM8 43v14h14V43Zm17 0v14h14V43Zm17 0v14h14V43Z" style="opacity:.1"/><path d="M25 25h14v14H25z" style="fill:#ff5dc2"/><path d="M8 25h14v14H8z" style="fill:#ff6363"/><path d="M42 25h14v14H42z" style="fill:#ff7940"/><path d="M25 42h14v14H25z" style="fill:#6182de"/><path d="M8 42h14v14H8z" style="fill:#ffa631"/><path d="M42 42h14v14H42z" style="fill:#2ba540"/><path d="M8 8h14v14H8z" style="fill:#40b8ff"/><path d="M6.8 4C5.25 4 4 5.25 4 6.8v1C4 6.25 5.25 5 6.8 5h50.4C58.75 5 60 6.25 60 7.8v-1C60 5.25 58.75 4 57.2 4z" style="fill:#fff;opacity:.2"/></svg>