<svg xmlns="http://www.w3.org/2000/svg" width="64" height="64"><circle cx="32" cy="33" r="28" style="opacity:.2"/><circle cx="32" cy="32" r="28" style="fill:#35c9ec"/><path d="M46.84 42q-2.703 0-4.704-1.008-2-1.032-3.068-2.908T38 33.724q0-3.447 1.25-6.12 1.272-2.673 3.432-4.127c1.44-.985 2.754-1.477 4.511-1.477q2.456 0 3.728 1.313 1.272 1.29 1.272 3.423c-.06 1.459-.823 2.215-1.886 2.452q-.636 0-1-.305-.363-.305-.364-.891c.295-.929.134-1.73-.116-2.538q-.528-.78-1.86-.781c-1 0-1.672.336-2.58 1.008q-1.365 1.008-2.205 2.978-.84 1.946-.841 4.642 0 2.814 1.523 4.361 1.522 1.524 4.5 1.524 1.476 0 2.977-.375 1.522-.398 3.364-1.196.34-.14.568-.14.363 0 .545.281t.182.727q0 1.43-1.5 2.11a15.7 15.7 0 0 1-3.364 1.079Q48.41 42 46.841 42" style="fill:#414141"/><path d="M14.867 23q-1.38 0-2.344.047-2.051.116-2.05 1.695-.002.487.27.766.292.256 1.046.258l1.762-.024a150 150 0 0 1-.754 5.551l-.461 3.043q-.232 1.533-.734 5.25l-.063.512-.984.023q-1.214.024-1.883.488Q8 41.074 8 41.91q-.001.534.313.813.315.277.777.277.293 0 .984-.117a18 18 0 0 1 2.89-.254q.335 0 1.38.047a45 45 0 0 0 1.656.047q.776 0 1.195-.418.44-.419.438-1.024 0-.65-.399-.976-.397-.325-1.507-.325-.754 0-1.192.024.271-2.3.73-5.715l.442-3.043.461-3.043.375-2.508a54 54 0 0 1 1.844-.023q.775 0 1.195-.442.419-.464.418-1.207-.001-.419-.379-.699-.375-.3-.918-.3zm8.297 8q-.945 0-1.48.355-.51.332-.739 1.07Q20 35.408 20 38.72q0 2.242.383 3.261Q20.79 43 21.762 43q.79.001 1.148-.406.383-.435.664-1.633.332-1.375.867-2.8.562-1.427 1.149-2.345.586-.917.969-.918.28 0 .28.407-.001.51-.206 2.14-.255 1.836-.254 2.805.001 1.146.41 1.96.433.79 1.273.79.818.001 1.176-.406.381-.41.66-1.633.384-1.553.997-2.953.613-1.401 1.226-2.242.61-.868.941-.868.282 0 .282.407 0 .612-.332 2.218-.357 1.835-.356 2.547 0 1.427.664 2.192.664.738 1.965.738 1.607 0 2.856-.867 1.276-.866 2.375-2.215.484-.562.484-1.582 0-.535-.203-.84a.56.56 0 0 0-.512-.305q-.382 0-.687.356-1.176 1.401-1.891 2.039-.69.612-1.2.613-.738 0-.737-1.02-.001-.712.484-2.929.562-2.599.562-3.594 0-1.656-1.66-1.656-1.352 0-2.91 1.426-1.556 1.427-2.832 4.562.077-.457.281-1.375.486-2.14.485-2.957 0-.841-.383-1.25Q29.44 31 28.547 31q-.894 0-1.914.688-.996.662-1.965 2.039-.945 1.376-1.633 3.363.104-1.12.258-1.86.152-.765.406-1.785.383-1.424.383-1.832 0-.357-.203-.484-.204-.128-.715-.129" style="opacity:.2"/><path d="M18.702 22.023q.544 0 .921.302.377.279.377.697 0 .743-.419 1.208-.419.441-1.194.441-1.214 0-1.842.024l-.377 2.508-.461 3.043-.44 3.043q-.46 3.415-.733 5.714.44-.023 1.194-.023 1.11 0 1.508.325.398.326.398.976 0 .604-.44 1.022-.42.418-1.194.418-.524 0-1.654-.046-1.048-.047-1.383-.047-1.319 0-2.89.256-.69.116-.984.116-.46 0-.775-.279Q8 41.443 8 40.908q0-.836.67-1.3t1.885-.488l.984-.024.063-.51q.503-3.717.733-5.25l.46-3.043q.42-2.695.755-5.552l-1.76.023q-.753 0-1.047-.255-.272-.279-.272-.767 0-1.58 2.053-1.696.963-.046 2.345-.046ZM21.76 42q-.969 0-1.377-1.02Q20 39.963 20 37.72q0-3.312.944-6.293.23-.74.74-1.07.536-.357 1.48-.357.51 0 .714.127.205.128.205.484 0 .408-.383 1.835-.255 1.019-.408 1.783-.153.74-.256 1.86.69-1.987 1.634-3.363.97-1.376 1.964-2.038Q27.654 30 28.548 30t1.25.408q.383.407.383 1.248 0 .815-.485 2.955-.204.918-.28 1.376 1.275-3.134 2.832-4.56Q33.804 30 35.157 30q1.658 0 1.658 1.656 0 .994-.561 3.592-.485 2.217-.485 2.93 0 1.02.74 1.02.51 0 1.2-.612.714-.637 1.888-2.038.306-.357.689-.357.331 0 .51.306.204.306.204.84 0 1.02-.485 1.58-1.097 1.35-2.373 2.217-1.25.866-2.858.866-1.301 0-1.964-.739-.664-.764-.664-2.19 0-.714.357-2.549.332-1.605.332-2.216 0-.408-.28-.408-.332 0-.945.866-.612.841-1.225 2.242-.612 1.402-.995 2.956-.28 1.223-.663 1.63-.357.408-1.174.408-.842 0-1.276-.79-.408-.815-.408-1.962 0-.968.255-2.802.204-1.63.204-2.14 0-.408-.28-.408-.383 0-.97.917T24.44 37.16q-.536 1.427-.868 2.803-.28 1.197-.663 1.63-.357.408-1.148.408" style="fill:#fff"/><path d="M32 4A28 28 0 0 0 4 32a28 28 0 0 0 .018.492A28 28 0 0 1 32 5a28 28 0 0 1 27.975 27.492A28 28 0 0 0 60 32 28 28 0 0 0 32 4" style="opacity:.2;fill:#fff"/></svg>