<svg xmlns="http://www.w3.org/2000/svg" width="64" height="64"><path d="M54.751 53H10.377C6.79 53 4 49.993 4 46.44V18.56C4 14.87 6.923 12 10.377 12H54.62c3.587 0 6.377 3.007 6.377 6.56v27.743c.133 3.69-2.79 6.697-6.245 6.697" class="st5" style="opacity:.2"/><path d="M54.751 52H10.377C6.79 52 4 48.993 4 45.44V17.56C4 13.87 6.923 11 10.377 11H54.62c3.587 0 6.377 3.007 6.377 6.56v27.743c.133 3.69-2.79 6.697-6.245 6.697" class="st5" style="fill:#e6337c"/><path d="M53.938 31H11.062C9.392 31 8 29.557 8 27.825v-7.65C8 18.443 9.392 17 11.062 17h42.876C55.608 17 57 18.443 57 20.175v7.65C57 29.557 55.608 31 53.938 31" class="st7" style="opacity:.2"/><circle cx="32.5" cy="41.5" r="8.5" class="st10" style="opacity:.2"/><path d="M53.938 30H11.062C9.392 30 8 28.557 8 26.825v-7.65C8 17.443 9.392 16 11.062 16h42.876C55.608 16 57 17.443 57 19.175v7.65C57 28.557 55.608 30 53.938 30" class="st7" style="fill:#fafafa"/><path d="M11 18v10h2V18Z" style="fill:#abacae"/><path d="M26 16v14h2V16Z" style="fill:#de3e3e"/><circle cx="32.5" cy="40.5" r="8.5" class="st10" style="fill:#fafafa"/><circle cx="32.5" cy="41.5" r="4.5" class="st12" style="opacity:.1"/><circle cx="32.5" cy="40.5" r="4.5" class="st12" style="fill:#9d9d9d"/><path d="M32.575 39c-.187 0-.375-.118-.375-.237v-1.776c0-.119.188-.237.375-.237.188 0 .375.118.375.237v1.776c0 .119-.188.237-.375.237" class="st13" style="opacity:.3"/><path d="M9.201 33C8.535 33 8 33.632 8 34.422v.156C8 35.368 8.535 36 9.201 36H18.8c.666 0 1.201-.632 1.201-1.422v-.156c0-.79-.535-1.422-1.201-1.422zm37 0c-.666 0-1.201.632-1.201 1.422v.156c0 .79.535 1.422 1.201 1.422H55.8c.666 0 1.201-.632 1.201-1.422v-.156c0-.79-.535-1.422-1.201-1.422zM9.223 39C8.543 39 8 39.632 8 40.422v.156c.136.79.68 1.422 1.223 1.422h8.554c.68 0 1.223-.632 1.223-1.422v-.156c0-.79-.544-1.422-1.223-1.422zm38 0c-.68 0-1.223.632-1.223 1.422v.156c0 .79.544 1.422 1.223 1.422h8.554c.544 0 1.087-.632 1.223-1.422v-.156c0-.79-.544-1.422-1.223-1.422zM9.2 45c-.665 0-1.2.632-1.2 1.422v.156C8 47.368 8.535 48 9.201 48H18.8c.666 0 1.201-.632 1.201-1.422v-.156c0-.79-.535-1.422-1.201-1.422zm37 0c-.666 0-1.201.632-1.201 1.422v.156c0 .79.535 1.422 1.201 1.422h9.6c.666 0 1.201-.632 1.201-1.422v-.156c0-.79-.535-1.422-1.201-1.422z" style="opacity:.5"/><path d="M16 20v6h2v-6zm5 0v6h2v-6zm10 0v6h2v-6zm5 0v6h2v-6zm5-2v10h2V18Zm5 2v6h2v-6zm5 0v6h2v-6z" style="fill:#abacae"/><path d="M10.377 11C6.923 11 4 13.87 4 17.56v1C4 14.87 6.923 12 10.377 12h44.242c3.587 0 6.377 3.007 6.377 6.56v-1c0-3.553-2.79-6.56-6.377-6.56z" class="st5" style="fill:#fff;opacity:.2"/></svg>