<svg xmlns="http://www.w3.org/2000/svg" width="64" height="64"><path d="M15.2 5h33.6C51.12 5 53 6.892 53 9.226v47.548C53 59.108 51.12 61 48.8 61H15.2c-2.32 0-4.2-1.892-4.2-4.226V9.226C11 6.892 12.88 5 15.2 5m0 0" style="opacity:.2"/><path d="M15.2 4h33.6C51.12 4 53 5.892 53 8.226v47.548C53 58.108 51.12 60 48.8 60H15.2c-2.32 0-4.2-1.892-4.2-4.226V8.226C11 5.892 12.88 4 15.2 4m0 0" style="fill:#e4e4e4"/><path d="M18.999 18H45a2 2 0 0 0 2-2v-4c0-1.105-.894-2-1.999-2H19a2 2 0 0 0-2 2v4c0 1.105.894 2 1.999 2m0 0" style="fill:#3faf7f"/><rect width="22" height="6" x="16" y="49" rx="1" style="opacity:.2"/><rect width="6" height="26" x="42" y="29" rx="1" style="opacity:.2"/><rect width="10" height="6" x="16" y="39" rx="1" style="opacity:.2"/><rect width="10" height="6" x="16" y="29" rx="1" style="opacity:.2"/><rect width="10" height="6" x="28" y="39" rx="1" style="opacity:.2"/><rect width="10" height="6" x="28" y="29" rx="1" style="opacity:.2"/><rect width="22" height="6" x="16" y="48" rx="1" style="fill:#4bae4f"/><path d="M17 48c-.554 0-1 .446-1 1v1c0-.554.446-1 1-1h20c.554 0 1 .446 1 1v-1c0-.554-.446-1-1-1z" style="fill:#fff;opacity:.2"/><rect width="6" height="26" x="42" y="28" rx="1" style="fill:#df574d"/><path d="M43 28c-.554 0-1 .446-1 1v1c0-.554.446-1 1-1h4c.554 0 1 .446 1 1v-1c0-.554-.446-1-1-1z" style="fill:#fff;opacity:.2"/><rect width="10" height="6" x="16" y="38" rx="1" style="fill:#f5f5f5"/><rect width="10" height="6" x="16" y="28" rx="1" style="fill:#f5f5f5"/><rect width="10" height="6" x="28" y="38" rx="1" style="fill:#f5f5f5"/><rect width="10" height="6" x="28" y="28" rx="1" style="fill:#f5f5f5"/><rect width="32" height="14" x="16" y="10" rx="2" style="fill:#f5f5f5"/><path d="M18 10c-1.108 0-2 .892-2 2v1c0-1.108.892-2 2-2h28c1.108 0 2 .892 2 2v-1c0-1.108-.892-2-2-2z" style="opacity:.2"/><path d="M15.2 4C12.88 4 11 5.893 11 8.227v1C11 6.893 12.88 5 15.2 5h33.6C51.12 5 53 6.893 53 9.227v-1C53 5.893 51.12 4 48.8 4z" style="fill:#fff;opacity:.2"/></svg>