<svg xmlns="http://www.w3.org/2000/svg" width="64" height="64"><rect width="58" height="22" x="3" y="22" rx="2.762" ry="2.75" style="opacity:.2"/><rect width="58" height="22" x="3" y="21" rx="2.762" ry="2.75" style="fill:#abacae"/><path d="M5.762 21A2.75 2.75 0 0 0 3 23.75v1A2.75 2.75 0 0 1 5.762 22h52.476A2.75 2.75 0 0 1 61 24.75v-1A2.75 2.75 0 0 0 58.238 21z" style="opacity:.2;fill:#fff"/><path d="M32 10C19.31 10 9 20.31 9 33s10.31 23 23 23 23-10.31 23-23-10.31-23-23-23" style="opacity:.2"/><path d="M32 9C19.31 9 9 19.31 9 32s10.31 23 23 23 23-10.31 23-23S44.69 9 32 9" style="fill:#e4e4e4"/><path d="M28.495 18.004q-6.634-.158-13.45 5.504c.375 2.08.718 4.236.926 6.407.087.912.153 1.939.152 3.009-.014 2.741-.507 6.007-2.123 6.992.443.69 1.175 2.076 1.494 2.862 1.74-1.696 2.263-6.22 2.323-9.895.01-1.27-.033-2.493-.091-3.555-.092-1.68-.214-3.35-.338-4.989q6.68-3.977 13.222-2.66.392-1.668.936-3.293a15.4 15.4 0 0 0-3.051-.382m11.17 1.29c.332 1.524.592 3.06.788 4.6q-3.45-.725-6.837-.593c.241 1.198.427 2.41.568 3.626q1.2-.03 2.404.008c.572 1.925 1.168 4.154 1.74 6.079.6 1.976 1.205 3.771 1.877 5.258-1.848 2.545-4.29 4.776-7.175 5.873.22.96.4 2.591.355 3.588 3.289-1.417 6.046-4.155 8.154-7.13 1.566 2.128 3.717 3.023 6.98 1.539.345-.972.998-2.5 1.481-3.327-2.868 1.18-4.943.554-6.584-1.244a43 43 0 0 0 2.196-4.68 47 47 0 0 0 1.51-4.286q1.22.346 2.444.764.045-1.035.107-2.07-3.574-1.877-7.087-2.878a61 61 0 0 0-.588-4.334 26 26 0 0 0-2.333-.793m-14.44 2.416c-.635 3.47-1.106 7.017-1.722 9.531q-.608.013-1.217.036.004.793.01 1.585-.007 1.82.003 3.691-.33-.041-.657-.087c-.001-1.219 0-2.425.003-3.609q-.014-1.42-.018-2.836 1.06-.106 2.123-.154.018-1.518.073-3.024-.68.072-1.362.184c.363-1.119.833-2.774 1.393-4.375a12 12 0 0 0-1.778-.31 145 145 0 0 1-.896 4.272q.614.18 1.215.424a26 26 0 0 0-3.02.692l1.1-.964c-.107-1.07-.456-2.436-.86-3.388a84 84 0 0 0-1.478 1.47c.407.796.747 2.024.88 2.99q-.528.163-1.058.349.066 1.17.114 2.35 1.014-.194 2.027-.334.024 1.326.04 2.654.003 1.663-.012 3.37a49 49 0 0 1-.655-.118q.023-1.644.016-3.247-.01-.7-.023-1.4-.615.055-1.23.123.018.645.03 1.29a88 88 0 0 1-.167 6.387q.64.3 1.283.559.022-.61.038-1.216.312.105.624.2c-.164 2.074-.7 3.913-2.43 3.842.323.664.941 2.171 1.205 3.016 2.217-.178 2.7-3.25 2.797-6.43q.354.085.708.16l.015 1.12q.649.155 1.299.27c-.093-2.66-.127-5.282-.117-7.82.324.559.696 1.273.87 1.718.16-.535.313-1.13.46-1.772.206-.946.4-2 .595-3.117a113 113 0 0 0-.03 3.132q-.003.46-.003.926c.003 1.119-.08 3.26-.441 5.317-.362 2.061-1.055 4.368-2.511 5.455.32.7 1.02 2.57 1.273 3.345 2.061-1.66 2.653-6.56 2.706-8.62.309 2.201 1.533 6.988 4.244 8.653.085-.997.254-2.41.423-3.327-3.451-2.287-3.983-8.693-3.982-10.757a91 91 0 0 1 0-.936 82 82 0 0 1 .081-3.862q.403.016.804.043c-.153 1.537-.232 2.59-.345 3.842l-.058.593c.41.421.827.845 1.248 1.257a90 90 0 0 0 .226-1.783c.247-2.09.463-3.955.86-6.217a45 45 0 0 0-1.081-.816l-.279.141q-1.237-.12-2.478-.1c.244-1.31.493-2.618.786-3.94a15 15 0 0 0-1.664-.428m13.587 5.356q2.959.255 5.933.93a30 30 0 0 1-1.593 4.93 28 28 0 0 1-1.197 2.542 23 23 0 0 1-1.185-2.503c-.686-1.718-1.298-3.703-1.958-5.9" style="opacity:.1"/><path d="M28.495 17.004q-6.634-.158-13.45 5.504c.375 2.08.718 4.236.926 6.407.087.912.153 1.939.152 3.009-.014 2.741-.507 6.007-2.123 6.992.443.69 1.175 2.076 1.494 2.862 1.74-1.696 2.263-6.22 2.323-9.895.01-1.27-.033-2.493-.091-3.555-.092-1.68-.214-3.35-.338-4.989q6.68-3.977 13.222-2.66.392-1.668.936-3.293a15.4 15.4 0 0 0-3.051-.382m11.17 1.29c.332 1.524.592 3.06.788 4.6q-3.45-.725-6.837-.593c.241 1.198.427 2.41.568 3.626q1.2-.03 2.404.008c.572 1.925 1.168 4.154 1.74 6.079.6 1.976 1.205 3.771 1.877 5.258-1.848 2.545-4.29 4.776-7.175 5.873.22.96.4 2.591.355 3.588 3.289-1.417 6.046-4.155 8.154-7.13 1.566 2.128 3.717 3.023 6.98 1.539.345-.972.998-2.5 1.481-3.327-2.868 1.18-4.943.554-6.584-1.244a43 43 0 0 0 2.196-4.68 47 47 0 0 0 1.51-4.286q1.22.346 2.444.764.045-1.035.107-2.07-3.574-1.877-7.087-2.878a61 61 0 0 0-.588-4.334 26 26 0 0 0-2.333-.793m-14.44 2.416c-.635 3.47-1.106 7.017-1.722 9.531q-.608.013-1.217.036l.01 1.585q-.007 1.82.003 3.691-.33-.041-.657-.087c-.001-1.219 0-2.425.003-3.609q-.014-1.42-.018-2.836 1.06-.106 2.123-.154.018-1.518.073-3.024-.68.073-1.362.184c.363-1.119.833-2.774 1.393-4.375a12 12 0 0 0-1.778-.31 145 145 0 0 1-.896 4.272q.614.18 1.215.424a26 26 0 0 0-3.02.692l1.1-.964c-.107-1.07-.456-2.436-.86-3.388a84 84 0 0 0-1.478 1.47c.407.796.747 2.024.88 2.99q-.528.163-1.058.349.066 1.17.114 2.35 1.014-.194 2.027-.334.024 1.326.04 2.654.003 1.663-.012 3.37a49 49 0 0 1-.655-.118q.023-1.644.016-3.247-.01-.7-.023-1.4-.615.055-1.23.123.018.645.03 1.29a88 88 0 0 1-.167 6.387q.64.3 1.283.559.022-.61.038-1.216.312.105.624.2c-.164 2.074-.7 3.913-2.43 3.842.323.664.941 2.171 1.205 3.016 2.217-.178 2.7-3.25 2.797-6.43q.354.085.708.16l.015 1.12q.649.155 1.299.27c-.093-2.66-.127-5.282-.117-7.82.324.559.696 1.273.87 1.718.16-.535.313-1.13.46-1.772.206-.946.4-2 .595-3.117a113 113 0 0 0-.03 3.132q-.003.46-.003.926c.003 1.119-.08 3.26-.441 5.317-.362 2.061-1.055 4.368-2.511 5.455.32.7 1.02 2.57 1.273 3.345 2.061-1.66 2.653-6.56 2.706-8.62.309 2.201 1.533 6.988 4.244 8.653.085-.997.254-2.41.423-3.327-3.451-2.287-3.983-8.693-3.982-10.757a91 91 0 0 1 0-.936 82 82 0 0 1 .081-3.862q.403.016.804.043c-.153 1.537-.232 2.59-.345 3.842l-.058.593c.41.421.827.845 1.248 1.257a90 90 0 0 0 .226-1.783c.247-2.09.463-3.955.86-6.217a45 45 0 0 0-1.081-.816l-.279.141q-1.237-.12-2.478-.1c.244-1.31.493-2.618.786-3.94a15 15 0 0 0-1.664-.428m13.587 5.356q2.959.255 5.933.93a30 30 0 0 1-1.593 4.93 28 28 0 0 1-1.197 2.542 23 23 0 0 1-1.185-2.503c-.686-1.718-1.298-3.703-1.958-5.9" style="fill:#3f3f3f"/><path d="M32 9C19.31 9 9 19.31 9 32c0 .159.009.316.014.475C9.294 20.027 19.486 10 32 10s22.705 10.027 22.986 22.475c.005-.159.014-.316.014-.475C55 19.31 44.69 9 32 9" style="opacity:.2;fill:#fff"/></svg>