<svg xmlns="http://www.w3.org/2000/svg" width="64" height="64"><path d="M41.156 7.033C47.191 6.9 52.84 11.46 53.782 17.474c.29 2.418.292 4.898 0 7.316-.947 6.058-6.67 10.4-12.746 10.21-8.279-.017-16.56.06-24.838 0-1.906-.292-3.492-.236-4.96 1.3-2.096 1.041-4.818.957-6.701-.498 1.185-1.005 4.786-2.651 3.042-4.166-2.59-2.66-3.763-6.467-3.549-10.152-.223-3.674.774-7.498 3.325-10.221 2.68-3.076 6.824-4.502 10.82-4.23z" style="opacity:.2"/><path d="M22.844 29.033C16.809 28.9 11.16 33.46 10.218 39.474a30.8 30.8 0 0 0 0 7.316c.947 6.058 6.67 10.4 12.746 10.21 8.279-.017 16.56.06 24.838 0 1.906-.292 3.492-.236 4.96 1.3 2.096 1.041 4.818.957 6.701-.498-1.185-1.005-4.786-2.651-3.042-4.166 2.59-2.66 3.763-6.467 3.549-10.152.223-3.674-.774-7.498-3.325-10.221-2.68-3.076-6.824-4.502-10.82-4.23z" style="opacity:.2"/><path d="M41.156 6.033C47.191 5.9 52.84 10.46 53.782 16.474c.29 2.418.292 4.898 0 7.316-.947 6.058-6.67 10.4-12.746 10.21-8.279-.017-16.56.06-24.838 0-1.906-.292-3.492-.236-4.96 1.3-2.096 1.041-4.818.957-6.701-.498 1.185-1.005 4.786-2.651 3.042-4.166-2.59-2.66-3.763-6.467-3.549-10.152-.223-3.674.774-7.498 3.325-10.221 2.68-3.076 6.824-4.502 10.82-4.23z" style="fill:#616161"/><path d="M22.844 28.033C16.809 27.9 11.16 32.46 10.218 38.474a30.8 30.8 0 0 0 0 7.316c.947 6.058 6.67 10.4 12.746 10.21 8.279-.017 16.56.06 24.838 0 1.906-.292 3.492-.236 4.96 1.3 2.096 1.041 4.818.957 6.701-.498-1.185-1.005-4.786-2.651-3.042-4.166 2.59-2.66 3.763-6.467 3.549-10.152.223-3.674-.774-7.498-3.325-10.221-2.68-3.076-6.824-4.502-10.82-4.23z" style="fill:#42a9ff"/><path d="M18.266 47A1.33 1.33 0 0 0 17 48.332v1.336c0 .739.593 1.332 1.332 1.332h1.336c.739 0 1.332-.593 1.332-1.332v-1.336c0-.739-.593-1.332-1.332-1.332zm6 0A1.33 1.33 0 0 0 23 48.332v1.336c0 .739.593 1.332 1.332 1.332h1.336c.739 0 1.332-.593 1.332-1.332v-1.336c0-.739-.593-1.332-1.332-1.332zm6 0A1.33 1.33 0 0 0 29 48.332v1.336c0 .739.593 1.332 1.332 1.332h1.336c.739 0 1.332-.593 1.332-1.332v-1.336c0-.739-.593-1.332-1.332-1.332z" style="opacity:.1"/><path d="M18.266 46A1.33 1.33 0 0 0 17 47.332v1.336c0 .739.593 1.332 1.332 1.332h1.336c.739 0 1.332-.593 1.332-1.332v-1.336c0-.739-.593-1.332-1.332-1.332zm6 0A1.33 1.33 0 0 0 23 47.332v1.336c0 .739.593 1.332 1.332 1.332h1.336c.739 0 1.332-.593 1.332-1.332v-1.336c0-.739-.593-1.332-1.332-1.332zm6 0A1.33 1.33 0 0 0 29 47.332v1.336c0 .739.593 1.332 1.332 1.332h1.336c.739 0 1.332-.593 1.332-1.332v-1.336c0-.739-.593-1.332-1.332-1.332z" style="fill:#235ed0"/><path d="M17.424 6.002c-3.758-.056-7.555 1.377-10.069 4.26-2.392 2.554-3.404 6.076-3.337 9.535.132-3.128 1.176-6.227 3.337-8.535 2.681-3.075 6.824-4.5 10.82-4.229h22.981c6.035-.132 11.683 4.427 12.625 10.442.125 1.044.186 2.1.203 3.158a31 31 0 0 0-.203-4.158C52.84 10.46 47.191 5.9 41.156 6.033h-22.98q-.376-.025-.752-.031M4.018 20.834q-.02.525-.002 1.05.005-.2.015-.4c-.013-.216-.009-.433-.013-.65m3.884 11.195c-.547 1.061-2.54 2.074-3.365 2.774q.345.265.725.47c1.327-.898 3.308-2.086 2.64-3.244" style="fill:#fff;opacity:.1"/><path d="M46.576 28.002q-.376.006-.752.031h-22.98c-6.035-.132-11.683 4.427-12.625 10.442a31 31 0 0 0-.203 4.158c.017-1.058.078-2.114.203-3.158.942-6.015 6.59-10.574 12.625-10.442h22.98c3.997-.272 8.14 1.154 10.82 4.229 2.162 2.308 3.206 5.407 3.338 8.535.067-3.459-.945-6.981-3.337-9.535-2.514-2.883-6.31-4.316-10.069-4.26m13.406 14.832c-.004.217 0 .434-.013.65q.01.2.015.4.018-.525-.002-1.05m-3.884 11.195c-.668 1.158 1.313 2.346 2.64 3.244q.38-.205.725-.47c-.826-.7-2.818-1.713-3.365-2.774" style="fill:#fff;opacity:.2"/></svg>