<svg xmlns="http://www.w3.org/2000/svg" width="64" height="64"><path d="M11 6v3c0 1.233-.7 2.578-1.629 4l-.008.006C7.454 16.61 3.998 20.295 4 25.043v29.72a5 5 0 0 0 .08.856q.043.208.1.408.058.198.134.387a4.3 4.3 0 0 0 .858 1.35 4.3 4.3 0 0 0 .926.726q.17.097.351.18.18.079.37.14.095.03.19.057.096.027.194.047a3 3 0 0 0 .399.063q.104.013.205.017.106.006.207.006H56.57A4.447 4.447 0 0 0 61 54.535V26.117c0-2.562-1.692-5.016-4-6.117v-5H45v5c-2.3 1.103-4 3.56-4 6.117V20l-3-8V9H27v3s-3 7.54-3 8.002v5.041c0-4.748-3.415-8.435-5.326-12.04L18.672 13h.002c-.93-1.421-1.648-2.767-1.674-4V6Z" style="opacity:.2"/><path d="m9.37 12-.006.006C7.455 15.61 3.998 19.296 4 24.044v29.719a5 5 0 0 0 .08.856q.042.207.1.408.057.197.135.387a4.3 4.3 0 0 0 .857 1.349 4.4 4.4 0 0 0 .595.515q.162.115.33.213.172.097.352.178a4 4 0 0 0 .56.199q.095.026.194.045a3 3 0 0 0 .4.064q.103.014.204.017.106.006.207.006H24V24.044c0-4.749-3.415-8.437-5.325-12.04l-.007-.007z" style="fill:#ff9a33"/><path d="M24 19.002V58h17V19Z" style="fill:#fff"/><path d="M27 11s-3 7.54-3 8.002L41 19l-3-8ZM11 8c0 1.233-.7 2.578-1.63 4h9.305c-.93-1.421-1.65-2.767-1.675-4Z" style="fill:#deddda"/><path d="M27 8v3h11V8Zm0 0" style="fill:#3081e2"/><path d="M14 28a6 6 0 1 0 0 12 6 6 0 1 0 0-12m18.5 0c-5.667 0-5.666 7-5.666 7H24v7h17v-7h-2.834s0-7-5.666-7m0 2s3.498 3.216 2.219 4.807c-1.28 1.59-3.158 1.59-4.438 0S32.5 30 32.5 30" style="opacity:.1"/><path d="M32.5 27c-5.667 0-5.666 7-5.666 7H24v7h17v-7h-2.834s0-7-5.666-7m0 2s3.498 3.216 2.219 4.807c-1.28 1.59-3.158 1.59-4.438 0S32.5 29 32.5 29" style="fill:#3081e2"/><path d="M45 19c-2.3 1.103-4 3.562-4 6.118V58h15.57A4.45 4.45 0 0 0 61 53.534V25.118c0-2.562-1.692-5.017-4-6.118Z" style="fill:#ee3a3e"/><path d="M11 5h6v3h-6zm0 0" style="fill:#2eae5d"/><path d="M45 18h12v1H45Zm0 0" style="fill:#64636a"/><path d="M45 14h12v4H45Zm0 0" style="fill:#cac9c6"/><path d="M55 49h6v3h-6zm0 0" style="fill:#c8c7c4"/><path d="M14 27a6 6 0 1 0 0 12 6 6 0 1 0 0-12m0 0" style="fill:#2eae5d"/><path d="M11 5v1h6V5zm0 3c0 1.233-.7 2.578-1.629 4l-.008.006C7.454 15.61 3.998 19.295 4 24.043v1c-.002-4.748 3.454-8.433 5.363-12.037L9.371 13C10.301 11.578 11 10.233 11 9zm6 0v1c.026 1.233.744 2.579 1.674 4h-.002l.002.004C20.584 16.608 24 20.294 24 25.043v-1c0-4.748-3.415-8.435-5.326-12.04L18.672 12h.002c-.93-1.421-1.648-2.767-1.674-4m10 0v1h11V8zm0 3s-3 7.54-3 8.002v1C24 19.539 27 12 27 12zm11 0v1l3 8v-1zm7 3v1h12v-1zm0 5c-2.3 1.103-4 3.56-4 6.117v1c0-2.556 1.7-5.014 4-6.117zm12 0v1c2.308 1.1 4 3.555 4 6.117v-1c0-2.562-1.692-5.016-4-6.117" style="fill:#fff;opacity:.2"/><path d="M55 52h6v1h-6zm0 0" style="opacity:.2"/></svg>