<svg xmlns="http://www.w3.org/2000/svg" width="64" height="64"><rect width="42" height="32" x="-56" y="-48" rx="2.5" ry="2.5" style="opacity:.2" transform="rotate(90)scale(-1 1)"/><rect width="42" height="32" x="-55" y="-48" rx="2.5" ry="2.5" style="fill:#8e8e8e" transform="rotate(90)scale(-1 1)"/><rect width="40" height="52" x="-50" y="-58" rx="2.5" ry="2.5" style="opacity:.2" transform="rotate(90)scale(-1 1)"/><rect width="40" height="52" x="-49" y="-58" rx="2.5" ry="2.5" style="fill:#4f4f4f" transform="rotate(90)scale(-1 1)"/><path d="M-43.56-52.457-13-54v44h-32z" style="fill:#333" transform="rotate(90)scale(-1 1)"/><path d="M8.5 9A2.495 2.495 0 0 0 6 11.5v1C6 11.115 7.115 10 8.5 10h47c1.385 0 2.5 1.115 2.5 2.5v-1c0-1.385-1.115-2.5-2.5-2.5Z" style="opacity:.1;fill:#fff"/><path d="M54 14 10 46h41.742S54 46 54 44zm-9 16v8H35z" style="opacity:.2"/><path d="M54 13 10 45h41.742S54 45 54 43zm-9 16v8H35z" style="fill:#cd3840"/><path d="M54 13 10 45h1.375L54 14zM36.25 37 35 38h10v-1z" style="fill:#fff;opacity:.2"/></svg>