<svg xmlns="http://www.w3.org/2000/svg" width="64" height="64"><circle cx="32" cy="33" r="28" style="opacity:.2"/><circle cx="32" cy="32" r="28" style="fill:#419e45"/><path d="M32 20v4h10.305L32 40.706V44h16v-4H37.424L48 23.294V20Zm-16 6v4h7.826L16 40.992V44h14v-4h-8.154L30 29.45V26Z" style="opacity:.3"/><path d="M18.285 17a2.3 2.3 0 0 0-1.616.67 2.286 2.286 0 0 0 0 3.232L44.1 48.331a2.286 2.286 0 0 0 3.232 0 2.286 2.286 0 0 0 0-3.233L19.9 17.67a2.3 2.3 0 0 0-1.616-.67" style="opacity:.2"/><path d="M18.285 16a2.3 2.3 0 0 0-1.616.67 2.286 2.286 0 0 0 0 3.232L44.1 47.331a2.286 2.286 0 0 0 3.232 0 2.286 2.286 0 0 0 0-3.233L19.9 16.67a2.3 2.3 0 0 0-1.616-.67" style="fill:#fff"/><path d="M32 4A28 28 0 0 0 4 32a28 28 0 0 0 .033.482A28 28 0 0 1 32 5a28 28 0 0 1 27.982 27.242L60 32A28 28 0 0 0 32 4" style="opacity:.2;fill:#fff"/></svg>