<svg xmlns="http://www.w3.org/2000/svg" width="64" height="64"><path d="M32 5A28 28 0 0 0 4 33a28 28 0 0 0 3.365 13.256l-.05-.041c1.41 3.315 1.307 4.22 1.085 6.988-.154 1.93-.678 3.9-1.332 5.01C6.476 59.217 6 60.256 6 60.52c0 .817 4.72.53 8.896-.54 4.646-1.189 5.3-1.312 8.782-.248l.107.034c.154.047.28.083.445.134l-.039-.03A28 28 0 0 0 32 61a28 28 0 0 0 22.332-11.187l-11.443-11.78A12 12 0 0 1 32 45a12 12 0 0 1-12-12 12 12 0 0 1 12-12 12 12 0 0 1 10.89 6.965l11.475-11.81A28 28 0 0 0 32 5" style="opacity:.2"/><path d="M32 4A28 28 0 0 0 4 32a28 28 0 0 0 3.365 13.256l-.05-.041c1.41 3.315 1.307 4.22 1.085 6.988-.154 1.93-.678 3.9-1.332 5.01C6.476 58.217 6 59.256 6 59.52c0 .817 4.72.53 8.896-.54 4.646-1.189 5.3-1.312 8.782-.248l.107.034c.154.047.28.083.445.134l-.039-.03A28 28 0 0 0 32 60a28 28 0 0 0 22.332-11.187l-11.443-11.78A12 12 0 0 1 32 44a12 12 0 0 1-12-12 12 12 0 0 1 12-12 12 12 0 0 1 10.89 6.965l11.475-11.81A28 28 0 0 0 32 4" style="fill:#999"/><path d="M29.314 19.104c-10.402-.179-21.96 8.731-21.974 26.1l.015.03c.452-17.382 12.653-25.959 23.149-25.066A12 12 0 0 1 32 20a12 12 0 0 1 5.348 1.318c-2.417-1.428-5.18-2.166-8.034-2.214M4.205 35.227a28 28 0 0 0 .078.56c-.026-.187-.055-.37-.078-.56m.611 3.375a28 28 0 0 0 .121.472zm1.09 3.494.022.056zm1.408 3.119c.016.036.025.064.04.1l.001-.067-.015-.014z" style="opacity:.2"/><path d="M32 4C16.536 4 4 16.536 4 32c0 7.677 3.34 13.235 3.34 13.235 0-26.497 26.855-33.331 35.55-18.27l11.475-11.81A28 28 0 0 0 32 4" style="fill:#90caf9"/><path d="M32 4A28 28 0 0 0 4 32l.023.379A28 28 0 0 1 32 5a28 28 0 0 1 21.879 10.654l.484-.498-.045-.056a28 28 0 0 0-2.314-2.684l-.09-.094a28 28 0 0 0-2.64-2.35l-.178-.138a28 28 0 0 0-2.916-1.97l-.149-.087a28 28 0 0 0-3.16-1.578l-.088-.037a28 28 0 0 0-3.338-1.144l-.244-.069a28 28 0 0 0-3.422-.687l-.21-.026A28 28 0 0 0 32 4M20.045 32.39A12 12 0 0 0 20 33a12 12 0 0 0 12 12 12 12 0 0 0 11.164-7.684l-.275-.283A12 12 0 0 1 32 44a12 12 0 0 1-11.955-11.61M8.515 50.526c-.02.499-.063 1.03-.115 1.678-.154 1.93-.678 3.9-1.332 5.01a17 17 0 0 0-.756 1.432c-.192.418-.312.743-.312.875 0 .109.097.196.254.267.195-.443.48-1.007.814-1.574.654-1.11 1.178-3.08 1.332-5.01.088-1.097.152-1.9.116-2.678" style="fill:#fff;opacity:.2"/></svg>