<svg xmlns="http://www.w3.org/2000/svg" width="64" height="64"><path d="M12 6h40v20H12z" style="fill:#b7b7b7"/><rect width="56" height="34" x="4" y="24" rx="2.8" ry="2.834" style="fill:#4f4f4f"/><path d="M16 32h32v4H16zm4 8h24v4H20zm4 8h16v4H24z" style="opacity:.4"/><path d="M4 55.168v1C4 57.738 5.25 59 6.8 59h50.4c1.55 0 2.8-1.262 2.8-2.832v-1C60 56.738 58.75 58 57.2 58H6.8C5.25 58 4 56.738 4 55.168" style="opacity:.2"/><path d="M12 6v1h40V6z" style="opacity:.2;fill:#fff"/><circle cx="48" cy="47" r="16" style="opacity:.2"/><path d="M16 10h10v6H16zm22 0h10v6H38z" style="opacity:.5"/><circle cx="48" cy="46" r="16" style="fill:#3c92d2"/><path d="M40 46a8 8 0 0 0 8 8c4.373 0 7.92-3.211 7.992-7.568Q56 46.366 56 46.3c0-.737-.764-1.3-1.5-1.3s-1.5.563-1.5 1.3c0 2.945-2.054 4.7-5 4.7-2.945 0-5-2.054-5-5 0-2.945 2.055-5 5-5v3l6-4.5-6-4.5v2.999a8 8 0 0 0-8 8z" style="fill:#fff"/></svg>