<svg xmlns="http://www.w3.org/2000/svg" width="64" height="64"><rect width="56" height="56" x="4" y="5" rx="8.4" ry="8.4" style="opacity:.2"/><rect width="56" height="56" x="4" y="4" rx="8.4" ry="8.4" style="fill:#0da1dc"/><path d="M26 30h-8v3h-3v3h-3v25h3V47h3v-6h3v-3h5z" style="opacity:.2"/><path d="M26 29h-8v3h-3v3h-3v25h3V46h3v-6h3v-3h5z" style="fill:#76edfd"/><path d="M18 29v1h8v-1zm-3 3v1h3v-1zm-3 3v1h3v-1z" style="fill:#fff;opacity:.2"/><path d="M26 19h3v25h-3z" style="opacity:.2"/><path d="M26 18h3v25h-3z" style="fill:#76908e"/><path d="M32 24h28v15H32z" style="opacity:.2"/><path d="M32 23h28v15H32z" style="fill:#fda701"/><path d="M23 22h9v19h-9z" style="opacity:.2"/><path d="M23 21h9v19h-9z" style="fill:#9badab"/><path d="M29 27h31v9H29z" style="opacity:.2"/><path d="M29 26h31v9H29z" style="fill:#fec91a"/><path d="M29 26v1h31v-1z" style="fill:#fff;opacity:.2"/><path d="M23 25h9v13h-9z" style="opacity:.2"/><path d="M23 24h9v13h-9z" style="fill:#adcdce"/><path d="M26 27v3h3v-3zm0 6v3h3v-3z" style="opacity:.2"/><path d="M26 26v3h3v-3zm0 6v3h3v-3z" style="fill:#fff"/><path d="M12.4 4A8.38 8.38 0 0 0 4 12.4v1C4 8.747 7.747 5 12.4 5h39.2c4.653 0 8.4 3.747 8.4 8.4v-1C60 7.747 56.253 4 51.6 4z" style="fill:#fff;opacity:.2"/><path d="M26 18v1h3v-1zm6 5v1h28v-1z" style="fill:#fff;opacity:.1"/><path d="M23 21v1h9v-1zm0 3v1h9v-1z" style="fill:#fff;opacity:.2"/></svg>