<svg xmlns="http://www.w3.org/2000/svg" width="64" height="64"><rect width="61" height="53" x="2" y="6" rx="5.545" ry="5.579" style="opacity:.2"/><rect width="61" height="53" x="2" y="5" rx="5.545" ry="5.579" style="fill:#d63f36"/><rect width="25" height="25" x="20" y="20" rx="2.778" ry="2.778" style="opacity:.1"/><rect width="25" height="25" x="20" y="19" rx="2.778" ry="2.778" style="fill:#7ea193"/><path d="M25 10v15h3V10Zm0 15H14v-5.5a1.5 1.5 0 0 0-1.5-1.5h-4A1.5 1.5 0 0 0 7 19.5 1.5 1.5 0 0 0 8.5 21H11v5.5a1.5 1.5 0 0 0 1.5 1.5H25Zm6-15v15h3V10Zm6 0v15h3V10Zm18.5 6a1.5 1.5 0 0 0-1.5 1.5V25H41v3h14.5a1.5 1.5 0 0 0 1.5-1.5v-9a1.5 1.5 0 0 0-1.5-1.5m-47 15A1.5 1.5 0 0 0 7 32.5 1.5 1.5 0 0 0 8.5 34H25v-3ZM41 31v3h14.5a1.5 1.5 0 0 0 1.5-1.5 1.5 1.5 0 0 0-1.5-1.5ZM8.5 37A1.5 1.5 0 0 0 7 38.5v9A1.5 1.5 0 0 0 8.5 49a1.5 1.5 0 0 0 1.5-1.5V40h15v-3ZM25 40v15h3V40Zm16-3v3h9v5.5a1.5 1.5 0 0 0 1.5 1.5h4a1.5 1.5 0 0 0 1.5-1.5 1.5 1.5 0 0 0-1.5-1.5H53v-5.5a1.5 1.5 0 0 0-1.5-1.5zm-10 3v15h3V40Zm6 0v15h3V40Z" style="opacity:.1"/><path d="M25 9v15h3V9Zm0 15H14v-5.5a1.5 1.5 0 0 0-1.5-1.5h-4v3H11v5.5a1.5 1.5 0 0 0 1.5 1.5H25Zm6-15v15h3V9Zm6 0v15h3V9Zm17 7.5V24H41v3h14.5a1.5 1.5 0 0 0 1.5-1.5v-9zM8.5 30v3H25v-3ZM41 30v3h14.5v-3ZM8.5 36A1.5 1.5 0 0 0 7 37.5v9h3V39h15v-3ZM25 39v15h3V39Zm16-3v3h9v5.5a1.5 1.5 0 0 0 1.5 1.5h4v-3H53v-5.5a1.5 1.5 0 0 0-1.5-1.5zm-10 3v15h3V39Zm6 0v15h3V39Z" style="fill:#569c81"/><path d="M10 18.5A1.5 1.5 0 0 1 8.5 20 1.5 1.5 0 0 1 7 18.5 1.5 1.5 0 0 1 8.5 17a1.5 1.5 0 0 1 1.5 1.5" style="fill:#efa0d7"/><path d="M10 31.5A1.5 1.5 0 0 1 8.5 33 1.5 1.5 0 0 1 7 31.5 1.5 1.5 0 0 1 8.5 30a1.5 1.5 0 0 1 1.5 1.5" style="fill:#81e9c0"/><path d="M10 46.5A1.5 1.5 0 0 1 8.5 48 1.5 1.5 0 0 1 7 46.5 1.5 1.5 0 0 1 8.5 45a1.5 1.5 0 0 1 1.5 1.5" style="fill:#aeb4f1"/><path d="M57 16.5a1.5 1.5 0 0 1-1.5 1.5 1.5 1.5 0 0 1-1.5-1.5 1.5 1.5 0 0 1 1.5-1.5 1.5 1.5 0 0 1 1.5 1.5m0 28a1.5 1.5 0 0 1-1.5 1.5 1.5 1.5 0 0 1-1.5-1.5 1.5 1.5 0 0 1 1.5-1.5 1.5 1.5 0 0 1 1.5 1.5" style="fill:#fff"/><path d="M57 31.5a1.5 1.5 0 0 1-1.5 1.5 1.5 1.5 0 0 1-1.5-1.5 1.5 1.5 0 0 1 1.5-1.5 1.5 1.5 0 0 1 1.5 1.5" style="fill:#febd78"/><path d="M25 17v7h-7v3h7v3h-7v3h7v3h-7v3h7v7h3v-7h3v7h3v-7h3v7h3v-7h7v-3h-7v-3h7v-3h-7v-3h7v-3h-7v-7h-3v7h-3v-7h-3v7h-3v-7zm3 10h3v3h-3zm6 0h3v3h-3zm-6 6h3v3h-3zm6 0h3v3h-3z" style="fill:#fbd14e"/><path d="M23 22h19v19H23z" style="fill:#414141"/><path d="M7.545 5C4.473 5 2 7.487 2 10.578v1C2 8.488 4.473 6 7.545 6h49.91C60.527 6 63 8.487 63 11.578v-1C63 7.488 60.527 5 57.455 5z" style="opacity:.2;fill:#fff"/></svg>