<svg xmlns="http://www.w3.org/2000/svg" width="64" height="64"><path d="M8.308 5h47.384C58.072 5 60 7.006 60 9.48v47.04c0 2.474-1.929 4.48-4.308 4.48H8.308C5.928 61 4 58.994 4 56.52V9.48C4 7.006 5.929 5 8.308 5m0 0" style="opacity:.2"/><path d="M8.308 4h47.384C58.072 4 60 6.006 60 8.48v47.04c0 2.474-1.929 4.48-4.308 4.48H8.308C5.928 60 4 57.994 4 55.52V8.48C4 6.006 5.929 4 8.308 4m0 0" style="fill:#e4e4e4"/><path d="M8 8h48v48H8Zm0 0" style="fill:#fff"/><path d="M8 39v17h17V39Zm4 4h9v9h-9zm2 2v5h5v-5zM8 29h3v3H8Zm3 2h4v4h-4Zm4-2h4v3h-4Zm6 2h4v4h-4Zm7 0h11v4H28Zm-12 2h3v3h-3Zm0 0" style="fill:#3d3846"/><path d="M19 31h3v3h-3Zm6 0h3v3h-3Zm3-2h3v3h-3Zm1-3h3v3h-3Zm3 3h4v3h-4Zm-4-7h8v4h-8Zm1 16h7v3h-7Zm-1 15h8v3h-8Zm0 0" style="fill:#3d3846"/><path d="M28 40h4v7h-4Zm4-32h4v7h-4Zm-3 7h3v3h-3Zm3 1h3v3h-3Zm-4 3h3v3h-3Zm0 0" style="fill:#3d3846"/><path d="M28 11h7v3h-7Zm12 23h7v-3h-7Zm0 0" style="fill:#3d3846"/><path d="M43 32h3v-3h-3Zm2 9h7v-3h-7Zm-5-5h3v-3h-3Zm-1-4h3v-3h-3Zm10-3h4v4h-4ZM36 40h8v3h-8Zm0 0" style="fill:#3d3846"/><path d="M40 41h3v-3h-3Zm-1-3h3v-3h-3Zm1 7h7v7h-7Zm-4 7h3v3h-3Zm-1-1h3v-3h-3Zm-3-3h3v-3h-3Zm-4 1h3v3h-3Zm3 3h3v3h-3Zm9 1h4v3h-4ZM28 35h3v3h-3Zm25 8h3v-3h-3Zm0-5h3v-3h-3Zm-5 14h3v-3h-3Zm0 0" style="fill:#3d3846"/><path d="M49 51h3v-3h-3Zm-4-6h3v8h-3Zm4 7h7v4h-7Zm4 0h3v-3h-3Zm-5-6h3v-4h-3Zm4 1h3v-7h-3Zm0 0" style="fill:#3d3846"/><path d="M48 56h3v-3h-3Zm0 0" style="fill:#3d3846"/><path d="M4 47h56v-9H4Zm0 0" style="fill:#ff2020"/><path fill="#fccbc5" d="M4 44h56v-3H4Zm0 0"/><path d="M8 8v17h17V8zm4 4h9v9h-9zm2 2v5h5v-5zm25-6v17h17V8Zm4 4h9v9h-9zm2 2v5h5v-5z" style="fill:#3d3846"/><path d="M8.309 4C5.929 4 4 6.006 4 8.48v1C4 7.006 5.93 5 8.309 5H55.69C58.071 5 60 7.006 60 9.48v-1C60 6.006 58.07 4 55.691 4z" style="fill:#fff;opacity:.2"/><path d="M4 44h56v1H4zm0 3h56v1H4z" style="opacity:.1"/></svg>