<svg xmlns="http://www.w3.org/2000/svg" xmlns:xlink="http://www.w3.org/1999/xlink" width="64" height="64"><defs><radialGradient xlink:href="#a" id="d" cx="14.546" cy="43.706" r="15.5" fx="14.546" fy="43.706" gradientTransform="rotate(-45 -223.392 216.113)scale(4.21215 6.11441)" gradientUnits="userSpaceOnUse"/><radialGradient xlink:href="#b" id="c" cx="22.005" cy="63.499" r="9.5" fx="22.005" fy="63.499" gradientTransform="rotate(-30 -242.293 262.335)scale(3.93871 3.48265)" gradientUnits="userSpaceOnUse"/><linearGradient id="b"><stop offset="0" style="stop-color:#ccc;stop-opacity:1"/><stop offset="1" style="stop-color:#a0a0a0;stop-opacity:1"/></linearGradient><linearGradient id="a"><stop offset="0" style="stop-color:#1de9b6;stop-opacity:1"/><stop offset="1" style="stop-color:#1dd2e9;stop-opacity:1"/></linearGradient><filter id="e" width="1.153" height="1.091" x="-.077" y="-.045" style="color-interpolation-filters:sRGB"><feGaussianBlur stdDeviation=".565"/></filter><filter id="f" width="1.215" height="1.117" x="-.107" y="-.058" style="color-interpolation-filters:sRGB"><feGaussianBlur stdDeviation="1.346"/></filter></defs><rect width="19" height="16.8" x="22.5" y="43.714" rx="1.357" ry="1.4" style="fill:url(#c)"/><path d="M24.5 54.059v.882a1.56 1.56 45 0 0 1.559 1.559h2.882a1.56 1.56 135 0 0 1.559-1.559v-.882a1.56 1.56 45 0 0-1.559-1.559H26.06a1.56 1.56 135 0 0-1.559 1.559m9 0v.882A1.56 1.56 45 0 0 35.06 56.5h2.882a1.56 1.56 135 0 0 1.559-1.559v-.882a1.56 1.56 45 0 0-1.559-1.559H35.06a1.56 1.56 135 0 0-1.559 1.559" style="fill:#929292"/><path d="M27.773 3.5C21.528 3.5 16.5 8.518 16.5 14.75v30.938a2.81 2.81 0 0 0 2.818 2.812h25.364a2.81 2.81 0 0 0 2.818-2.812V14.75c0-6.232-5.028-11.25-11.273-11.25Z" style="fill:url(#d)"/><path d="M26.5 10.5a4 4 0 0 0-4 4v24a4 4 0 0 0 4 4 4 4 0 0 0 4-4v-24a4 4 0 0 0-4-4m11 0a4 4 0 0 0-4 4v24a4 4 0 0 0 4 4 4 4 0 0 0 4-4v-24a4 4 0 0 0-4-4" style="baseline-shift:baseline;display:inline;overflow:visible;opacity:.657996;vector-effect:none;fill:#00a151;fill-opacity:1;stroke-linecap:round;stroke-linejoin:round;enable-background:accumulate;stop-color:#000"/><path d="M26.5 10.5a4 4 0 0 0-4 4v24a4 4 0 0 0 4 4 4 4 0 0 0 4-4v-24a4 4 0 0 0-4-4m11 0a4 4 0 0 0-4 4v24a4 4 0 0 0 4 4 4 4 0 0 0 4-4v-24a4 4 0 0 0-4-4" style="baseline-shift:baseline;display:inline;overflow:visible;opacity:.657996;fill:none;fill-opacity:1;stroke-linecap:round;stroke-linejoin:round;enable-background:accumulate;stop-color:#000;stroke:#0046ff;stroke-opacity:1;stroke-width:.2;stroke-dasharray:none;filter:url(#e)"/><g style="stroke:#000;stroke-width:.2;stroke-dasharray:none;stroke-opacity:1;filter:url(#f)" transform="translate(36.531 -.519)"><path d="M-14.031 49.012v10.613c0 .776.605 1.4 1.357 1.4H3.611c.752 0 1.358-.624 1.358-1.4V49.012Z" style="fill:none;stroke:#000;stroke-width:.2;stroke-dasharray:none;stroke-opacity:1"/><path d="M-8.758 4.012c-6.245 0-11.273 5.017-11.273 11.25v30.937a2.81 2.81 0 0 0 2.818 2.813H8.15a2.81 2.81 0 0 0 2.819-2.813V15.262c0-6.233-5.029-11.25-11.274-11.25z" style="fill:none;stroke:#000;stroke-width:.2;stroke-dasharray:none;stroke-opacity:1"/></g></svg>