<?xml version="1.0" encoding="UTF-8" standalone="no"?>
<svg
   width="64"
   height="64"
   version="1.1"
   id="svg11"
   sodipodi:docname="com.github.artemanufrij.graphui.svg"
   inkscape:version="1.4.4 (dcaf3e7d9e, 2026-05-05)"
   xmlns:inkscape="http://www.inkscape.org/namespaces/inkscape"
   xmlns:sodipodi="http://sodipodi.sourceforge.net/DTD/sodipodi-0.dtd"
   xmlns="http://www.w3.org/2000/svg"
   xmlns:svg="http://www.w3.org/2000/svg">
  <defs
     id="defs11">
    <radialGradient
       id="SVGID_1_-3-2"
       cx="-159.431"
       cy="15.463"
       r="64.707001"
       fx="-159.431"
       fy="15.463"
       gradientTransform="matrix(-0.89413,0,0,0.96305,-58.788,46.296)"
       gradientUnits="userSpaceOnUse">
      <stop
         id="stop1-6-9"
         offset="0"
         style="stop-color:#006fff;stop-opacity:1" />
      <stop
         id="stop2-7-1"
         offset="1"
         style="stop-color:#15baff;stop-opacity:1" />
    </radialGradient>
    <filter
       id="filter4"
       width="1.1416429"
       height="1.1416429"
       x="-0.07082143"
       y="-0.07082143"
       style="color-interpolation-filters:sRGB">
      <feGaussianBlur
         id="feGaussianBlur4"
         stdDeviation="1.59" />
    </filter>
    <filter
       inkscape:collect="always"
       style="color-interpolation-filters:sRGB"
       id="filter7"
       x="-0.085746121"
       y="-0.099332219"
       width="1.1714922"
       height="1.1986644">
      <feGaussianBlur
         inkscape:collect="always"
         stdDeviation="1.3937363"
         id="feGaussianBlur7" />
    </filter>
  </defs>
  <sodipodi:namedview
     id="namedview11"
     pagecolor="#ffffff"
     bordercolor="#000000"
     borderopacity="0.25"
     inkscape:showpageshadow="2"
     inkscape:pageopacity="0.0"
     inkscape:pagecheckerboard="0"
     inkscape:deskcolor="#d1d1d1"
     inkscape:zoom="18.890625"
     inkscape:cx="32"
     inkscape:cy="32"
     inkscape:current-layer="svg11" />
  <g
     id="g7">
    <g
       id="g5"
       transform="translate(-21.966002,3.033998)">
      <path
         id="path2-5"
         d="m 42.74,1.0179999 h 22.4 c 9.3,0 16.8,7.5 16.8,16.8000001 v 22.4 c 0,9.3 -7.5,16.8 -16.8,16.8 h -22.4 c -9.3,0 -16.8,-7.5 -16.8,-16.8 v -22.4 c 0,-9.3000001 7.5,-16.8000001 16.8,-16.8000001"
         class="st1"
         style="fill:url(#SVGID_1_-3-2)" />
      <path
         id="path2-2"
         d="m 42.766,0.9659999 h 22.4 c 9.3,0 16.8,7.5 16.8,16.8000001 v 22.4 c 0,9.3 -7.5,16.8 -16.8,16.8 h -22.4 c -9.3,0 -16.8,-7.5 -16.8,-16.8 v -22.4 c 0,-9.3000001 7.5,-16.8000001 16.8,-16.8000001 z"
         class="st1"
         style="opacity:0.673189;fill:none;stroke:#000000;stroke-width:0.3;stroke-dasharray:none;stroke-opacity:1;filter:url(#filter4)" />
    </g>
    <path
       d="m 28.416016,28 -6.804688,8 h 2.722656 c 0.0955,0 0.190358,0.0054 0.283203,0.01563 L 31.433594,28 Z m 4.15039,0 6.816406,8.015625 C 39.475658,36.005425 39.570519,36 39.666016,36 h 2.722656 l -6.804688,-8 z"
       style="baseline-shift:baseline;display:inline;overflow:visible;opacity:0.596226;vector-effect:none;fill:#171717;fill-opacity:1;enable-background:accumulate;stop-color:#000000;stop-opacity:1"
       id="path7" />
    <path
       d="m 27.441263,15.017388 c -1.262331,0 -2.278534,1.068991 -2.278534,2.393712 v 7.1778 c 0,1.324721 1.016203,2.393712 2.278534,2.393712 h 9.117474 c 1.262331,0 2.278534,-1.068991 2.278534,-2.393712 v -7.1778 c 0,-1.324721 -1.016203,-2.393712 -2.278534,-2.393712 z M 14.662762,37.30807 c -1.200997,0 -2.167825,1.017051 -2.167825,2.277407 v 6.829046 c 0,1.260356 0.966828,2.277407 2.167825,2.277407 h 8.674476 c 1.200997,0 2.167825,-1.017051 2.167825,-2.277407 v -6.829046 c 0,-1.260356 -0.966828,-2.277407 -2.167825,-2.277407 z m 26,0 c -1.200997,0 -2.167825,1.017051 -2.167825,2.277407 v 6.830634 c 0,1.261169 0.966828,2.275819 2.167825,2.275819 h 8.674476 c 1.200997,0 2.167825,-1.01465 2.167825,-2.275819 v -6.830634 c 0,-1.261169 -0.966828,-2.277407 -2.167825,-2.277407 z"
       style="fill:#ffffff;filter:url(#filter7)"
       id="path6-4"
       sodipodi:nodetypes="sssssssssssssssssssssssssss" />
    <path
       d="M 26.666016,14 C 25.189016,14 24,15.250781 24,16.800781 v 8.398438 C 24,26.749219 25.189016,28 26.666016,28 H 37.333984 C 38.810984,28 40,26.749219 40,25.199219 V 16.800781 C 40,15.250781 38.810984,14 37.333984,14 Z m -13,22 C 12.189016,36 11,37.250781 11,38.800781 v 8.398438 C 11,48.749219 12.189016,50 13.666016,50 H 24.333984 C 25.810984,50 27,48.749219 27,47.199219 V 38.800781 C 27,37.250781 25.810984,36 24.333984,36 Z m 26,0 C 38.189016,36 37,37.250781 37,38.800781 v 8.400391 C 37,48.752172 38.189016,50 39.666016,50 H 50.333984 C 51.810984,50 53,48.752172 53,47.201172 V 38.800781 C 53,37.249781 51.810984,36 50.333984,36 Z"
       style="opacity:0.691773;fill:#ffffff"
       id="path6" />
  </g>
</svg>
