<svg xmlns="http://www.w3.org/2000/svg" width="64" height="64"><g style="opacity:.2" transform="translate(0 1)"><circle cx="15" cy="35" r="11"/><circle cx="18" cy="41" r="11"/><circle cx="21" cy="47" r="11"/><circle cx="44" cy="42" r="16"/><path d="M21 58v-8h24v8Z"/></g><g transform="matrix(2 0 0 2 -6 -10)"><circle cx="10.5" cy="22.5" r="5.5" style="fill:#3e87dc"/><circle cx="22" cy="20" r="8" style="fill:#3e87dc"/><circle cx="17.5" cy="16.5" r="8.5" style="fill:#3e87dc"/></g><path d="M29 6a17 17 0 0 0-17 17 17 17 0 0 0 .039.498A17 17 0 0 1 29 7a17 17 0 0 1 15.105 9.217 16 16 0 0 1 9.874 14.035L54 30a16 16 0 0 0-9.895-14.783A17 17 0 0 0 29 6M12.037 24.459a11 11 0 0 0-1.246.379 11 11 0 0 0-1.902 1.016 11 11 0 0 0-1.666 1.369 11 11 0 0 0-1.37 1.666A11 11 0 0 0 4 35a11 11 0 0 0 .049.5 11 11 0 0 1 1.805-5.611 11 11 0 0 1 1.369-1.666 11 11 0 0 1 1.666-1.369 11 11 0 0 1 1.902-1.016 11 11 0 0 1 1.322-.402 17 17 0 0 1-.076-.977" style="fill:#fff;opacity:.1"/><g transform="matrix(2 0 0 2 -3 -4)"><circle cx="22" cy="20" r="8" style="fill:#62a0ea"/><circle cx="17.5" cy="16.5" r="8.5" style="fill:#62a0ea"/><circle cx="10.5" cy="22.5" r="5.5" style="fill:#62a0ea"/></g><path d="M32 12a17 17 0 0 0-17 17 17 17 0 0 0 .039.498A17 17 0 0 1 32 13a17 17 0 0 1 15.105 9.217 16 16 0 0 1 9.874 14.035L57 36a16 16 0 0 0-9.895-14.783A17 17 0 0 0 32 12M15.037 30.459a11 11 0 0 0-1.246.379 11 11 0 0 0-1.902 1.016 11 11 0 0 0-1.666 1.369 11 11 0 0 0-1.37 1.666A11 11 0 0 0 7 41a11 11 0 0 0 .049.5 11 11 0 0 1 1.805-5.611 11 11 0 0 1 1.369-1.666 11 11 0 0 1 1.666-1.369 11 11 0 0 1 1.902-1.016 11 11 0 0 1 1.322-.402 17 17 0 0 1-.076-.977" style="fill:#fff;opacity:.1"/><circle cx="21" cy="47" r="11" style="fill:#ccc"/><circle cx="44" cy="42" r="16" style="fill:#ccc"/><path d="M21 58v-8h24v8Z" style="fill:#ccc"/><circle cx="35" cy="36" r="17" style="opacity:.2"/><circle cx="35" cy="35" r="17" style="fill:#eaeaea"/><path d="M44.5 32.5v6c0 3-3 6-6 6h-6m2 4-4-4 4-4m-9-1v-6c0-3 3-6 6-6h6m-2-4 4 4-4 4" style="fill:none;stroke:#000;stroke-width:3;stroke-linecap:round;stroke-linejoin:round;opacity:.2"/><path d="M44.5 31.5v6c0 3-3 6-6 6h-6m2 4-4-4 4-4m-9-1v-6c0-3 3-6 6-6h6m-2-4 4 4-4 4" style="fill:none;stroke:#3584e4;stroke-width:3;stroke-linecap:round;stroke-linejoin:round"/><path d="M35 18a17 17 0 0 0-17 17 17 17 0 0 0 .039.498A17 17 0 0 1 35 19a17 17 0 0 1 15.105 9.217 16 16 0 0 1 9.874 14.035L60 42a16 16 0 0 0-9.895-14.783A17 17 0 0 0 35 18M18.037 36.459A11 11 0 0 0 10 47a11 11 0 0 0 .049.5 11 11 0 0 1 8.064-10.064 17 17 0 0 1-.076-.977" style="fill:#fff;opacity:.2"/></svg>