<svg xmlns="http://www.w3.org/2000/svg" width="64" height="64"><rect width="41" height="57" x="12" y="4" rx="4.393" ry="4.275" style="opacity:.2"/><rect width="41" height="57" x="12" y="3" rx="4.393" ry="4.275" style="fill:#868686"/><circle cx="32.5" cy="28.5" r="14.5" style="fill:#555761"/><path d="M28.117 19a6.14 6.14 0 0 0-5.314 3.076l-.662 1.146-.012.02a.23.23 0 0 0 .076.314l7.737 4.473a6.14 6.14 0 0 0-4.875.542A6.13 6.13 0 0 0 22 33.891a6.15 6.15 0 0 0 3.073 5.32l1.146.663.02.012a.23.23 0 0 0 .314-.076l4.438-7.697A6.127 6.127 0 0 0 36.862 40a6.14 6.14 0 0 0 5.318-3.076l.662-1.146.012-.02a.23.23 0 0 0-.077-.314l-7.482-4.324a6.14 6.14 0 0 0 4.638-.612A6.13 6.13 0 0 0 43 25.19a6.15 6.15 0 0 0-3.073-5.32l-1.146-.662-.02-.012a.23.23 0 0 0-.314.076l-4.514 7.826a6.15 6.15 0 0 0-.501-5.028A6.13 6.13 0 0 0 28.117 19" style="opacity:.2"/><path d="M28.117 18a6.14 6.14 0 0 0-5.314 3.076l-.662 1.146-.012.02a.23.23 0 0 0 .076.314l7.737 4.473a6.14 6.14 0 0 0-4.875.542A6.13 6.13 0 0 0 22 32.891a6.15 6.15 0 0 0 3.073 5.32l1.146.663.02.012a.23.23 0 0 0 .314-.076l4.438-7.697A6.127 6.127 0 0 0 36.862 39a6.14 6.14 0 0 0 5.318-3.076l.662-1.146.012-.02a.23.23 0 0 0-.077-.314l-7.482-4.324a6.14 6.14 0 0 0 4.638-.612A6.13 6.13 0 0 0 43 24.19a6.15 6.15 0 0 0-3.073-5.32l-1.146-.662-.02-.012a.23.23 0 0 0-.314.076l-4.514 7.826a6.15 6.15 0 0 0-.501-5.028A6.13 6.13 0 0 0 28.117 18" style="fill:#9ab4c0"/><circle cx="42.896" cy="9.297" r="2.5" style="opacity:.2" transform="rotate(30)"/><circle cx="42.396" cy="8.431" r="2.5" style="fill:#fff" transform="rotate(30)"/><circle cx="32.5" cy="9.5" r="2.5" style="opacity:.2"/><circle cx="32.5" cy="8.5" r="2.5" style="fill:#87d22b"/><path d="M16 46v4h6v-4zm9 0v7h6v-7zm9 0v3h6v-3z" style="fill:#555761"/><path d="M43 46v10h6V46zm-9 3v7h6v-7zm-18 1v6h6v-6zm9 3v3h6v-3z" style="fill:#87d22b"/><path d="M16.393 3C13.959 3 12 4.907 12 7.275v1C12 5.907 13.959 4 16.393 4h32.214C51.041 4 53 5.907 53 8.275v-1C53 4.907 51.041 3 48.607 3z" style="fill:#fff;opacity:.2"/><path d="M16 46v1h6v-1zm9 0v1h6v-1zm9 0v1h6v-1zM16 56v1h6v-1zm9 0v1h6v-1zm9 0v1h6v-1zm9 0v1h6v-1z" style="opacity:.2"/><path d="M43 46v1h6v-1zm-9 3v1h6v-1zm-18 1v1h6v-1zm9 3v1h6v-1z" style="opacity:.2;fill:#fff"/><path d="M32.5 6A2.5 2.5 0 0 0 30 8.5a2.5 2.5 0 0 0 .053.496A2.5 2.5 0 0 1 32.5 7a2.5 2.5 0 0 1 2.447 2.004A2.5 2.5 0 0 0 35 8.5 2.5 2.5 0 0 0 32.5 6" style="fill:#fff;opacity:.2"/><path d="M32.5 14A14.5 14.5 0 0 0 18 28.5a15 15 0 0 0 .021.58A14.5 14.5 0 0 1 32.5 15a14.5 14.5 0 0 1 14.479 13.92A15 15 0 0 0 47 28.5 14.5 14.5 0 0 0 32.5 14" style="opacity:.2"/></svg>