<svg xmlns="http://www.w3.org/2000/svg" width="64" height="64"><rect width="56" height="56" x="4" y="5" rx="2.8" ry="2.8" style="opacity:.2"/><rect width="56" height="56" x="4" y="4" rx="2.8" ry="2.8" style="fill:#bfbfbf"/><path d="m37.2 22.054-11.2 7v5.09l11.2 7 3.179-5.09-7.129-4.453 7.129-4.457Zm14 0-11.2 7v5.09l11.2 7 3.179-5.09-7.129-4.453 7.129-4.457ZM10 24v6h14v-6zm0 9v6h14v-6z" style="opacity:.1"/><path d="m52.79 23.6-11.2 7 11.2 7" style="fill:none;stroke:#d5498f;stroke-width:6;stroke-linejoin:bevel"/><path d="m38.79 23.6-11.2 7 11.2 7" style="fill:none;stroke:#a659ca;stroke-width:6;stroke-linejoin:bevel"/><path d="M10 23h14v6H10zm0 9h14v6H10z" style="fill:#2f8ce3"/><path d="M6.8 4C5.25 4 4 5.25 4 6.8v1C4 6.25 5.25 5 6.8 5h50.4C58.75 5 60 6.25 60 7.8v-1C60 5.25 58.75 4 57.2 4z" style="opacity:.2;fill:#fff"/></svg>