<svg xmlns="http://www.w3.org/2000/svg" width="64" height="64"><path d="M4.05 32c-.011.334-.05.662-.05 1 0 15.512 12.488 28 28 28a27.94 27.94 0 0 0 28-28c0-.338-.04-.666-.05-1C59.42 47.042 47.172 59 32 59 16.825 59 4.578 47.042 4.05 32" style="opacity:.2"/><rect width="53" height="53" x="-58.5" y="-58.5" rx="26.5" ry="26.5" style="fill:#fff" transform="rotate(90)scale(-1 1)"/><path d="M16 3a13.96 13.96 0 0 0-9.898 4.1 13.9 13.9 0 0 0-3.077 4.632 14 14 0 0 0-1 4.754A13.94 13.94 0 0 0 9.81 28.551c-.113-.06-.227-.114-.338-.178l5.297.943q.06.04.125.073c.453.231.919.426 1.394.597a13.95 13.95 0 0 0 13.688-13.5 14 14 0 0 0-1-4.754A13.9 13.9 0 0 0 25.9 7.1 13.96 13.96 0 0 0 16 3m-4.17 1.57-.029.047c.016.012.024.023.033.026.943.325 1.801.805 2.609 1.375l-1.582 4.765-.023.008c-.324.134-.654.253-.973.398-1.313.597-2.594 1.258-3.8 2.051L4.94 11.393a1 1 0 0 1 .055-.284c.21-.558.417-1.12.654-1.668q.275-.631.618-1.228.223-.246.46-.484A13 13 0 0 1 11.83 4.57m9.131.291a13.05 13.05 0 0 1 4.31 2.868 13 13 0 0 1 2.684 3.886 13.3 13.3 0 0 0-2.5-1.344 8 8 0 0 0-.42-.154l-4.125-4.65q.043-.301.051-.606m-1.691 1.04q.427-.006.859.023l4.189 4.722c-.144.456-.285.914-.453 1.36-.296.783-.612 1.558-.927 2.334l-6.086.625a5 5 0 0 0-.227-.281q-1.079-1.22-2.164-2.434l.019-.021-.873-.874 1.694-5.1c.117-.03.235-.057.353-.07.921-.093 1.843-.198 2.766-.251q.424-.026.85-.034M4.436 12.124l3.16 1.869v.08a24.4 24.4 0 0 0 .508 5.049l.004.018-2.451 3.841a2 2 0 0 1-.157-.087 9.7 9.7 0 0 1-1.847-1.487 13.2 13.2 0 0 1-.426-7.353q.393-.775.898-1.489c.105-.146.2-.299.311-.441m18.578 3.1c.765 1.122 1.489 2.267 2.119 3.472q.174.333.347.674l-3.025 5.641-.051.009a27.5 27.5 0 0 1-4.945.477l-3.018-5.219q.705-1.308 1.397-2.623.469-.892.93-1.791zm6.052 2.771a13.04 13.04 0 0 1-3.795 8.275q-.747.748-1.578 1.348a12 12 0 0 0-.472-2.152l3.131-5.842c.862-.393 1.692-.837 2.464-1.389q.152-.107.25-.24M8.691 19.879l.182.047c1.53.41 3.09.701 4.66.929q.137.02.235.032l2.933 5.072c-.51.716-1.024 1.429-1.551 2.133q-.131.175-.277.342l-6.25-1.116a19.5 19.5 0 0 1-1.953-2.83c-.144-.255-.306-.505-.428-.771z" style="opacity:.2" transform="matrix(2.00001 0 0 1.99993 0 -.97)"/><path d="M22.57 2.648a36 36 0 0 0-11.971 7.949A36.08 36.08 0 0 0 0 36.186c0 4.699.892 9.281 2.65 13.615a36 36 0 0 0 7.949 11.971 35.9 35.9 0 0 0 11.971 7.949 36 36 0 0 0 13.617 2.649 36.08 36.08 0 0 0 25.587-10.598 35.9 35.9 0 0 0 7.949-11.971 36.1 36.1 0 0 0 2.648-13.615c0-4.7-.891-9.282-2.648-13.618a36 36 0 0 0-7.949-11.971 35.9 35.9 0 0 0-11.971-7.949A36.1 36.1 0 0 0 36.187 0c-4.7 0-9.281.891-13.617 2.648M9.044 51.419c-1.743-1.094-3.349-2.354-4.771-3.838a34.1 34.1 0 0 1-1.101-19.01 30.4 30.4 0 0 1 2.318-3.845c.269-.379.518-.774.806-1.142l8.166 4.832v.205a63 63 0 0 0 1.313 13.049c.003.02.006.031.01.049l-6.333 9.93a5 5 0 0 1-.408-.23m24.28 16.787a31 31 0 0 0 4.347 1.82 33.94 33.94 0 0 1-18.36-4.447L33 68.018q.157.101.324.188m-.05-2.471L17.12 62.856c-1.89-2.295-3.59-4.723-5.051-7.318-.372-.66-.787-1.301-1.102-1.99l6.327-9.92q.209.05.473.119c3.958 1.059 7.986 1.812 12.042 2.402.237.033.435.062.604.08l7.584 13.113a291 291 0 0 1-4.007 5.51c-.226.303-.466.594-.716.883m26.876-5.586a34 34 0 0 1-4.08 3.481 31 31 0 0 0-1.223-5.563l8.092-15.096c2.229-1.015 4.379-2.166 6.375-3.593q.393-.278.646-.618c-.586 7.801-3.856 15.436-9.81 21.389m-.359-19.578q.45.86.896 1.742l-7.816 14.58q-.067.016-.133.026a71.3 71.3 0 0 1-12.779 1.229l-7.8-13.487a847 847 0 0 0 3.61-6.781c.81-1.536 1.606-3.082 2.401-4.627l16.143-1.658c1.977 2.9 3.85 5.862 5.478 8.976m-3.275-17.294c-.766 2.023-1.586 4.025-2.401 6.031l-15.726 1.615a13 13 0 0 0-.588-.725c-1.857-2.103-3.726-4.193-5.592-6.289.017-.021.034-.037.051-.056q-1.13-1.127-2.261-2.258l4.378-13.181a6 6 0 0 1 .913-.18c2.38-.242 4.763-.516 7.149-.654 1.461-.082 2.93-.129 4.416-.024l10.832 12.209c-.373 1.178-.737 2.359-1.171 3.512m3.634-11.056a33.7 33.7 0 0 1 6.938 10.047 34.4 34.4 0 0 0-6.463-3.473 19 19 0 0 0-1.086-.402L48.877 6.376c.074-.519.113-1.039.129-1.563a33.7 33.7 0 0 1 11.144 7.408M25.334 4.182c.042.031.062.057.086.064 2.437.842 4.654 2.082 6.744 3.553l-4.09 12.317a.4.4 0 0 0-.061.021c-.837.346-1.69.656-2.514 1.031-3.395 1.543-6.705 3.252-9.823 5.301l-8.071-4.775a2.4 2.4 0 0 1 .141-.736c.542-1.444 1.075-2.896 1.688-4.311a32 32 0 0 1 1.597-3.172q.577-.637 1.192-1.254a33.7 33.7 0 0 1 13.186-8.162q-.038.059-.075.123" style="fill:#0b9851" transform="translate(4 4)scale(.77379)"/><path d="M32 4C16.488 4 4 16.488 4 32c0 .114.011.224.018.336C4.369 17.134 16.71 5 32 5s27.63 12.134 27.982 27.336c.007-.112.018-.222.018-.336C60 16.488 47.512 4 32 4" style="opacity:.2;fill:#fff"/></svg>