<svg xmlns="http://www.w3.org/2000/svg" width="64" height="64"><path d="M9 12h46a5 5 0 0 1 5 5v31a5 5 0 0 1-5 5H9a5 5 0 0 1-5-5V17a5 5 0 0 1 5-5m0 0" style="opacity:.2"/><path d="M9 11h46a5 5 0 0 1 5 5v31a5 5 0 0 1-5 5H9a5 5 0 0 1-5-5V16a5 5 0 0 1 5-5m0 0" style="fill:#5e5c64"/><path d="M10.787 36C9.8 36 9 36.856 9 37.912v7.176C9 46.144 9.8 47 10.787 47h8.426C20.2 47 21 46.144 21 45.088v-7.176C21 36.856 20.2 36 19.213 36Zm17 0C26.8 36 26 36.856 26 37.912v7.176c0 1.056.8 1.912 1.787 1.912h8.426C37.2 47 38 46.144 38 45.088v-7.176C38 36.856 37.2 36 36.213 36Z" style="opacity:.1"/><path d="M28.5 15c-.823 0-1.5.677-1.5 1.5s.677 1.5 1.5 1.5 1.5-.677 1.5-1.5-.677-1.5-1.5-1.5m2.5 0v3h8v-3zm-2.5 1c.283 0 .5.217.5.5s-.217.5-.5.5a.49.49 0 0 1-.5-.5c0-.283.217-.5.5-.5m-17.713 4C9.8 20 9 20.856 9 21.912v7.176C9 30.144 9.8 31 10.787 31h8.426C20.2 31 21 30.144 21 29.088v-7.176C21 20.856 20.2 20 19.213 20Zm17 0C26.8 20 26 20.856 26 21.912v7.176c0 1.056.8 1.912 1.787 1.912h8.426C37.2 31 38 30.144 38 29.088v-7.176C38 20.856 37.2 20 36.213 20Zm17 0C43.8 20 43 20.856 43 21.912v7.176c0 1.056.8 1.912 1.787 1.912h8.426C54.2 31 55 30.144 55 29.088v-7.176C55 20.856 54.2 20 53.213 20Zm0 16C43.8 36 43 36.856 43 37.912v7.176c0 1.056.8 1.912 1.787 1.912h8.426C54.2 47 55 46.144 55 45.088v-7.176C55 36.856 54.2 36 53.213 36Z" style="opacity:.2"/><path d="M28.5 14c-.823 0-1.5.677-1.5 1.5s.677 1.5 1.5 1.5 1.5-.677 1.5-1.5-.677-1.5-1.5-1.5m0 .999c.283 0 .501.218.501.501a.493.493 0 0 1-.501.501.493.493 0 0 1-.501-.501c0-.283.218-.501.501-.501M31 14h8v3h-8zm0 0" style="fill:#9a9996"/><path d="M10.788 19h8.424C20.2 19 21 19.856 21 20.912v7.176C21 29.144 20.2 30 19.212 30h-8.424C9.8 30 9 29.144 9 28.088v-7.176C9 19.856 9.8 19 10.788 19m0 0" style="fill:#62a0ea"/><path d="M17.062 22c.519 0 .94.432.938.98v3.046c0 .546-.418.96-.938.974h-2.63L13 28v-1h-.062c-.563 0-.938-.506-.938-.974v-3.047c0-.548.417-.979.938-.979Z" style="fill:#fff"/><path d="M27.788 19h8.424C37.2 19 38 19.856 38 20.912v7.176C38 29.144 37.2 30 36.212 30h-8.424C26.8 30 26 29.144 26 28.088v-7.176c0-1.056.8-1.912 1.788-1.912m0 0" style="fill:#62a0ea"/><path d="M30.536 21c-.46 0-.837.44-.837.978v5.044c0 .538.377.978.837.978s.837-.44.837-.978v-5.044c0-.538-.377-.978-.837-.978m0 .5c.231 0 .409.21.409.478v5.044c0 .268-.178.477-.409.477s-.408-.209-.408-.477v-5.044c0-.268.179-.477.408-.477m0 0" style="fill:#fff"/><path d="M32.575 22.994a1.999 1.999 0 1 1-4 0 2 2 0 0 1 4 0M33.86 21c-.46 0-.837.44-.837.978v5.044c0 .538.377.978.837.978s.837-.44.837-.978v-5.044c0-.538-.377-.978-.837-.978m0 .5c.231 0 .409.21.409.478v5.044c0 .268-.178.477-.409.477s-.408-.209-.408-.477v-5.044c0-.268.179-.477.408-.477m0 0" style="fill:#fff"/><path d="M36 25.001a2 2 0 1 1-4-.003 2 2 0 0 1 4 .003m0 0" style="fill:#fff"/><path d="M44.788 19h8.424C54.2 19 55 19.856 55 20.912v7.176C55 29.144 54.2 30 53.212 30h-8.424C43.8 30 43 29.144 43 28.088v-7.176c0-1.056.8-1.912 1.788-1.912m0 16h8.424C54.2 35 55 35.856 55 36.912v7.176C55 45.144 54.2 46 53.212 46h-8.424C43.8 46 43 45.144 43 44.088v-7.176c0-1.056.8-1.912 1.788-1.912m0 0" style="fill:#62a0ea"/><path d="M27.788 35h8.424C37.2 35 38 35.856 38 36.912v7.176C38 45.144 37.2 46 36.212 46h-8.424C26.8 46 26 45.144 26 44.088v-7.176c0-1.056.8-1.912 1.788-1.912m-17 0h8.424C20.2 35 21 35.856 21 36.912v7.176C21 45.144 20.2 46 19.212 46h-8.424C9.8 46 9 45.144 9 44.088v-7.176C9 35.856 9.8 35 10.788 35m0 0" style="fill:#3d3846"/><path d="m13.05 38.3-.715.617a.93.93 0 0 0-.335.7v2.955c0 .226.215.376.474.41H13V44l1.569-1.018h1.11c.305 0 .596-.104.81-.29l1.176-.898a.93.93 0 0 0 .335-.7l-.005-2.685c0-.226-.213-.409-.475-.409l-3.661.008a1.25 1.25 0 0 0-.81.292zm.796.508h2.77c.254 0 .46.18.46.4v1.198c0 .255-.116.8-.325.981l-.27.234c-.21.181-.493.283-.789.283h-.461l-.462.399v-.4h-.923c-.254 0-.461-.179-.461-.399v-2.297c0-.22.207-.399.461-.399m.462.799v1.298h.461v-1.298zm1.384 0v1.298h.462v-1.298zm14.23-1.515c-.46.04-.784.37-.836.825a14.4 14.4 0 0 0 0 3.144.92.92 0 0 0 .836.826c1.412.163 2.54.138 4.183 0 .462-.04.8-.371.836-.826.07-.891.087-2.315 0-3.144a.9.9 0 0 0-.836-.825 24 24 0 0 0-4.183 0M31 39.63l1.856.866-1.856.846zM50 21.6a2.01 2.01 0 0 0-1.816 1.146 1.54 1.54 0 0 0-.684-.165c-.154.004-.309.03-.453.08l4.42 4.34h.033c.828 0 1.498-.658 1.5-1.473a1.48 1.48 0 0 0-1.082-1.412q.08-.27.082-.553c-.002-1.083-.897-1.962-2-1.964m-3.602 1.467a1.46 1.46 0 0 0-.4.987c.002.173.031.344.092.505A1.23 1.23 0 0 0 45 25.773c0 .68.559 1.228 1.25 1.228h4.156zm0 0" style="fill:#fff"/><path d="m45.76 20.354-.531.52 7 6.875.53-.522zm0 0" style="fill:#fff"/><path d="M36.158 28.453c-.935 0-1.87.334-2.568 1.002l-.179.171a.357.357 0 1 0 .494.515l.179-.17c1.103-1.055 3.047-1.055 4.149 0l.178.17a.357.357 0 1 0 .494-.515l-.177-.171c-.699-.668-1.634-1.002-2.57-1.002m-.011 1.431a2.05 2.05 0 0 0-1.502.648l-.179.195a.358.358 0 1 0 .529.481l.177-.195c.456-.5 1.486-.534 1.973 0l.178.195a.357.357 0 1 0 .527-.48l-.178-.196c-.4-.44-.966-.652-1.525-.648m0 0" style="fill:#fff" transform="matrix(1.33333 0 0 1.375 .755 -2.182)"/><path d="M35.429 31.557v1.314a.25.25 0 0 0 .358.228l1.254-.586a.34.34 0 0 0 .194-.307.34.34 0 0 0-.196-.304l-1.252-.575a.252.252 0 0 0-.358.23m0 0" style="fill:#fff" transform="matrix(1.33333 0 0 1.375 .755 -2.182)"/><path d="M9 11a5 5 0 0 0-5 5v1a5 5 0 0 1 5-5h46a5 5 0 0 1 5 5v-1a5 5 0 0 0-5-5z" style="fill:#fff;opacity:.1"/><path d="M10.787 19C9.8 19 9 19.856 9 20.912v1C9 20.856 9.8 20 10.787 20h8.426C20.2 20 21 20.856 21 21.912v-1C21 19.856 20.2 19 19.213 19zm17 0C26.8 19 26 19.856 26 20.912v1c0-1.056.8-1.912 1.787-1.912h8.426C37.2 20 38 20.856 38 21.912v-1C38 19.856 37.2 19 36.213 19zm17 0C43.8 19 43 19.856 43 20.912v1c0-1.056.8-1.912 1.787-1.912h8.426C54.2 20 55 20.856 55 21.912v-1C55 19.856 54.2 19 53.213 19zm0 16C43.8 35 43 35.856 43 36.912v1c0-1.056.8-1.912 1.787-1.912h8.426C54.2 36 55 36.856 55 37.912v-1C55 35.856 54.2 35 53.213 35z" style="fill:#fff;opacity:.2"/></svg>