<svg xmlns="http://www.w3.org/2000/svg" width="64" height="64"><rect width="56" height="56" x="4" y="5" rx="10" ry="10" style="opacity:.2"/><rect width="56" height="56" x="4" y="4" rx="10" ry="10" style="fill:#e4e4e4"/><circle cx="32" cy="33" r="12" style="opacity:.1"/><circle cx="32" cy="32" r="12" style="fill:#666"/><circle cx="32" cy="32" r="9" style="fill:#e33838;stroke:#f9f9f9;stroke-width:2"/><path d="M14 9c-3.289 0-6 2.71-6 6v4h4v-4c0-1.142.857-2 2-2h4V9Zm12 0v4h12V9Zm20 0v4h4c1.142 0 2 .858 2 2v4h4v-4c0-3.29-2.71-6-6-6ZM8 27v12h4V27Zm44 0v12h4V27ZM8 47v4c0 3.29 2.711 6 6 6h4v-4h-4c-1.143 0-2-.858-2-2v-4Zm44 0v4c0 1.142-.858 2-2 2h-4v4h4c3.29 0 6-2.71 6-6v-4Zm-26 6v4h12v-4Z" style="opacity:.1"/><path d="M14 8c-3.289 0-6 2.71-6 6v4h4v-4c0-1.142.857-2 2-2h4V8Zm12 0v4h12V8Zm20 0v4h4c1.142 0 2 .858 2 2v4h4v-4c0-3.29-2.71-6-6-6ZM8 26v12h4V26Zm44 0v12h4V26ZM8 46v4c0 3.29 2.711 6 6 6h4v-4h-4c-1.143 0-2-.858-2-2v-4Zm44 0v4c0 1.142-.858 2-2 2h-4v4h4c3.29 0 6-2.71 6-6v-4Zm-26 6v4h12v-4Z" style="fill:#e33838"/><path d="M32 20a12 12 0 0 0-12 12 12 12 0 0 0 .02.594A12 12 0 0 1 32 21a12 12 0 0 1 11.98 11.406A12 12 0 0 0 44 32a12 12 0 0 0-12-12" style="opacity:.1;fill:#fff"/><path d="M14 4C8.46 4 4 8.46 4 14v1C4 9.46 8.46 5 14 5h36c5.54 0 10 4.46 10 10v-1c0-5.54-4.46-10-10-10z" style="opacity:.2;fill:#fff"/></svg>