<svg xmlns="http://www.w3.org/2000/svg" width="64" height="64"><path d="M7.16 10A4.15 4.171 0 0 0 3 14.184v37.632A4.16 4.16 0 0 0 7.16 56H53v-6h8V16h-8v-6H32Z" style="opacity:.2"/><path d="M7.161 9A4.15 4.171 0 0 0 3 13.182v37.636A4.16 4.16 0 0 0 7.161 55h25.75V9Zm0 0" style="fill:#4f4f4f"/><path d="M19 21a5 5 0 1 1-5-5 5 5 0 0 1 5 5m0 0" style="opacity:.2"/><path d="M19 20a5 5 0 1 1-5-5 5 5 0 0 1 5 5m0 0" style="fill:#ff3737"/><path d="M25.154 21a5 5 0 1 1-10.001-.002A5 5 0 0 1 25.154 21m0 0" style="opacity:.2"/><path d="M25.154 20a5 5 0 1 1-10.001-.002A5 5 0 0 1 25.154 20m0 0" style="fill:#ffc025"/><path d="M17.072 16.063A5 5 0 0 0 15.152 20a5 5 0 0 0 1.93 3.936A5 5 0 0 0 19 20a5 5 0 0 0-1.929-3.938zm0 0" style="fill:#ff872b"/><path d="M9 45h18v4H9Zm0 0" style="fill:#9a9996"/><path d="M9 39h10v3H9Zm0 0" style="fill:#deddda"/><path d="M32.001 9v46H53v-6h8V15h-8V9Z" style="fill:#3f3f3f"/><path d="M17.95 15.48h4.35v4.35h-4.35zm0 0" style="opacity:.15" transform="translate(-2.138 -1.026)scale(2.06897)"/><path d="M22.3 15.48h4.35v4.35H22.3Zm-4.35 4.35h4.35v4.35h-4.35zm0 0" style="opacity:.2;fill:#fff" transform="translate(-2.138 -1.026)scale(2.06897)"/><path d="M22.3 19.83h4.35v4.35H22.3Zm0 0" style="opacity:.15" transform="translate(-2.138 -1.026)scale(2.06897)"/><path d="M32 7v52" style="opacity:.2;fill:none;stroke:#040404;stroke-width:5.99999809;stroke-linecap:round"/><path d="M32 6v52" style="fill:none;stroke:#e4e4e4;stroke-width:5.99999809;stroke-linecap:round"/><path d="M7.16 9A4.15 4.171 0 0 0 3 13.184v1A4.15 4.171 0 0 1 7.16 10H53V9zM53 15v1h8v-1z" style="opacity:.1;fill:#fff"/><path d="M9 42h10v1H9zm0 7h18v1H9z" style="opacity:.2"/></svg>