<svg xmlns="http://www.w3.org/2000/svg" width="64" height="64"><path d="M13.8 5h36.4c5.43 0 9.8 4.37 9.8 9.8v36.4c0 5.43-4.37 9.8-9.8 9.8H13.8C8.37 61 4 56.63 4 51.2V14.8C4 9.37 8.37 5 13.8 5" style="opacity:.2"/><path d="M13.8 4h36.4c5.43 0 9.8 4.37 9.8 9.8v36.4c0 5.43-4.37 9.8-9.8 9.8H13.8C8.37 60 4 55.63 4 50.2V13.8C4 8.37 8.37 4 13.8 4" style="fill:#6e37ac"/><path d="M50 8a7 7 0 0 0-7 7 7 7 0 0 0 7 7 7 7 0 0 0 7-7 7 7 0 0 0-7-7M32 26a7 7 0 0 0-7 7 7 7 0 0 0 7 7 7 7 0 0 0 7-7 7 7 0 0 0-7-7M14 44a7 7 0 0 0-7 7 7 7 0 0 0 7 7 7 7 0 0 0 7-7 7 7 0 0 0-7-7" style="opacity:.2"/><circle cx="32" cy="32" r="7" style="fill:#fff"/><circle cx="50" cy="14" r="7" style="fill:#fff"/><circle cx="14" cy="50" r="7" style="fill:#fff"/><path d="M13.8 4A9.78 9.78 0 0 0 4 13.8v1A9.78 9.78 0 0 1 13.8 5h36.4a9.78 9.78 0 0 1 9.8 9.8v-1A9.78 9.78 0 0 0 50.2 4z" style="fill:#fff;opacity:.1"/></svg>