<svg xmlns="http://www.w3.org/2000/svg" width="64" height="64"><rect width="50" height="50" x="-61" y="-60" rx="2.5" ry="2.5" style="opacity:.2" transform="rotate(90)scale(-1 1)"/><rect width="50" height="50" x="-60" y="-60" rx="2.5" ry="2.5" style="fill:#4f4f4f" transform="rotate(90)scale(-1 1)"/><rect width="50" height="50" x="-55" y="-54" rx="2.5" ry="2.5" style="opacity:.2" transform="rotate(90)scale(-1 1)"/><rect width="50" height="50" x="-54" y="-54" rx="2.5" ry="2.5" style="fill:#2d50e6" transform="rotate(90)scale(-1 1)"/><path d="M52.688 5.31 4.73 53.27A2.5 2.5 0 0 1 4 51.498v1a2.5 2.5 0 0 0 .73 1.772L53.27 5.729c-.17-.17-.37-.303-.583-.418" style="opacity:.1"/><path d="M6.501 4A2.496 2.496 0 0 0 4 6.501V51.5c0 .692.278 1.32.73 1.771L53.27 4.73A2.5 2.5 0 0 0 51.5 4z" style="opacity:.1;fill:#fff"/><path d="M8 15v30h18v-4h2v-4h4V23h-4v-4h-2v-4H16Zm30 0v4h8v-4zm-22 4h6v4h2v14h-2v4h-6zm22 6v16h4v4h8v-4h-4V25Z" style="opacity:.2"/><path d="M8 14h8v30H8zm8 0h10v4H16zm6 4h6v4h-6zm-6 22h10v4H16zm6-4h6v4h-6zm2-14h8v14h-8zm14 2h8v16h-8zm4 16h8v4h-8zm-4-26h8v4h-8z" style="fill:#fff"/><path d="M6.5 4A2.495 2.495 0 0 0 4 6.5v1C4 6.115 5.115 5 6.5 5h45C52.885 5 54 6.115 54 7.5v-1C54 5.115 52.885 4 51.5 4z" style="opacity:.1;fill:#fff"/></svg>