<svg xmlns="http://www.w3.org/2000/svg" width="64" height="64"><circle cx="32" cy="33" r="28" style="opacity:.2"/><circle cx="32" cy="32" r="28" style="fill:#1db5ff"/><path d="m29.192 17-.148.347L18.4 45h6.005l2.155-6h10.91l2.138 6h5.994L34.904 17Zm2.84 8.173L35.329 33h-6.615z" style="opacity:.2"/><path d="m29.192 16-.148.347L18.4 44h6.005l2.155-6h10.91l2.138 6h5.994L34.904 16Zm2.84 8.173L35.329 32h-6.615z" style="fill:#fff"/><path d="M32 4A28 28 0 0 0 4 32a28 28 0 0 0 .018.492A28 28 0 0 1 32 5a28 28 0 0 1 27.975 27.492A28 28 0 0 0 60 32 28 28 0 0 0 32 4" style="opacity:.2;fill:#fff"/></svg>