<svg xmlns="http://www.w3.org/2000/svg" width="64" height="64"><path d="M12.75 5C11.226 5 10 6.249 10 7.8v50.4c0 1.55 1.227 2.8 2.75 2.8h38.5c1.522 0 2.75-1.25 2.75-2.8V23l-14-4-4-14Z" style="opacity:.2"/><path d="M12.75 4C11.226 4 10 5.249 10 6.8v50.4c0 1.55 1.227 2.8 2.75 2.8h38.5c1.522 0 2.75-1.25 2.75-2.8V22l-14-4-4-14Z" style="fill:#e4e4e4"/><path d="M54 23 36 5v15.188A2.806 2.806 0 0 0 38.813 23Z" style="opacity:.2"/><path d="M54 22 36 4v15.188A2.806 2.806 0 0 0 38.813 22Z" style="fill:#fafafa"/><path d="M12.75 4C11.226 4 10 5.25 10 6.8v1C10 6.25 11.226 5 12.75 5H36V4Z" style="opacity:.2;fill:#fff"/><path d="M63.958 45.848A16 16 0 0 1 48 61a16 16 0 0 1-15.958-14.848A16 16 0 0 0 32 47a16 16 0 0 0 16 16 16 16 0 0 0 16-16 16 16 0 0 0-.043-1.152Z" style="opacity:.2;fill-rule:evenodd"/><circle cx="48" cy="46" r="16" style="fill:#7cb342"/><path d="M13 11v3h7v-3zm9 0v3h12v-3zm-9 5v3h8v-3zm10 0v3h7v-3zm9 0v3h3v-3zm-19 5v3h4v-3zm6 0v3h6v-3zm8 0v3h6v-3zm10 4.994v3h8v-3zM13 26v3h8v-3zm10 0v3h12v-3zm-10 5v3h7v-3zm9 0v3h4v-3zm6 0v3h6v-3zm-15 5v3h5v-3zm7 0v3h12v-3zm-7 5v3h11v-3zm13 0v3h5v-3zm-13 5v3h7v-3zm9 0v3h9v-3z" style="fill:#b3b3b3"/><path d="M48 37v18m9-9H39" style="fill:none;stroke:#fff;stroke-width:4;stroke-linecap:round"/></svg>