<svg xmlns="http://www.w3.org/2000/svg" width="64" height="64"><path d="M18.45 5.007C9.213 5.307.86 15.782 5.163 30.12c1.978 6.153 5.693 10.843 14.281 18.03C25.077 52.865 32 61 32 61s6.923-8.135 12.556-12.849c8.588-7.187 12.303-11.877 14.28-18.03C65.394 8.271 42.567-4.606 32 13.82c-3.632-6.333-8.712-8.97-13.55-8.812" style="opacity:.2"/><path d="M18.45 4.007C9.213 4.307.86 14.782 5.163 29.12c1.978 6.153 5.693 10.843 14.281 18.03C25.077 51.865 32 60 32 60s6.923-8.135 12.556-12.849c8.588-7.187 12.303-11.877 14.28-18.03C65.394 7.271 42.567-5.606 32 12.82c-3.632-6.333-8.712-8.97-13.55-8.812" style="fill:#ff9800"/><path d="M45.203 4.004C40.472 3.978 35.547 6.635 32 12.82c-3.632-6.333-8.713-8.97-13.55-8.812-7.637.248-14.662 7.453-14.438 18.045.223-10.043 7.044-16.805 14.437-17.045C23.287 4.85 28.368 7.487 32 13.82c9.14-15.938 27.434-8.448 27.967 8.006.117-10.62-7.059-17.78-14.764-17.822" style="opacity:.2;fill:#fff"/><path d="M18.45 4.007C9.213 4.307.86 14.782 5.163 29.12c1.978 6.153 5.693 10.843 14.281 18.03C25.077 51.865 32 60 32 60V12.82c-3.632-6.334-8.712-8.97-13.55-8.813" style="opacity:.3;fill:#fff"/></svg>