<svg xmlns="http://www.w3.org/2000/svg" width="64" height="64"><rect width="56" height="56" x="4" y="5" rx="16.8" ry="16.8" style="opacity:.2"/><path d="M20.8 4h22.4C52.507 4 60 11.493 60 20.8v22.4c0 4.816-2.006 9.147-5.233 12.204-3.008 2.852-7.076 2.356-11.567 2.356H20.8c-4.073 0-7.798.805-10.7-1.589A16.75 16.75 0 0 1 4 43.2V20.8C4 11.493 11.493 4 20.8 4" style="fill:#8ed019"/><path d="M20.8 4C11.495 4 4 11.494 4 20.8v1C4 12.495 11.494 5 20.8 5h22.4C52.505 5 60 12.494 60 21.8v-1C60 11.495 52.506 4 43.2 4z" style="opacity:.2;fill:#fff"/><path d="M58.992 15.094c-3.292.156-6.885.613-10.047 1.39-16.533 4.044-24.504 13.649-24.504 13.649s5.03 12.26 14.356 19.347A95 95 0 0 0 45.34 54h-9.317c-5.83-4.225-12.21-11.605-12.21-11.605-2.022 1.515-4.373 1.485-6.364 2.406a76 76 0 0 0-3.3 1.613S15.963 48.8 23.007 54H7.94c.116.137.241.264.36.398h-.012q.075.087.152.172c.136.148.261.307.403.45l.11.101q.543.555 1.144 1.05h.004q.015.014.03.024A16.75 16.75 0 0 0 20.802 60H43.2a16.73 16.73 0 0 0 11.09-4.187q.216-.175.426-.368c.016-.015.034-.023.05-.039v-.004c.055-.05.1-.108.153-.16l.012-.012q.3-.297.586-.61l.203-.222h-.016c.12-.136.255-.259.371-.398h-2.601c-2.908-1.803-7.457-5.05-11.512-10.195-6.344-8.05-6.344-10.825-6.344-10.825s6.583-6.623 13.281-9.359c3.624-1.479 8.068-2.602 11.075-3.328v-.04q-.003-.008-.004-.019a17 17 0 0 0-.176-1.93l-.016-.113a17 17 0 0 0-.375-1.777l-.039-.152A17 17 0 0 0 59 15.113l-.008-.015zM60 24.422c-.34.114-.76.228-1.031.351-10.032 4.558-14.153 11.22-14.153 11.22s1.962 6.323 8.801 13.21c0 0-1.696-8.444-1.875-11.683 2.19-2.852 5.162-5.255 8.258-7.106Z" style="fill:#3f3f3f"/><path d="M58.992 15.094c-3.292.156-6.885.613-10.047 1.39-16.533 4.044-24.504 13.649-24.504 13.649s.112.26.295.67c1.418-1.57 9.301-9.672 24.21-13.319 3.161-.777 6.754-1.234 10.046-1.39v.004l.008.015q.202.566.363 1.149l.04.152q.234.87.374 1.777l.016.114q.072.497.117 1.004l.063-.016v-.04q-.003-.008-.004-.019a17 17 0 0 0-.176-1.93l-.016-.113a17 17 0 0 0-.375-1.777l-.039-.152A17 17 0 0 0 59 15.113l-.008-.015zM60 24.422c-.34.114-.76.228-1.031.351-10.032 4.558-14.153 11.22-14.153 11.22s.15.388.243.642c.987-1.414 5.227-6.917 13.91-10.862.27-.123.69-.237 1.031-.351zm-24.2 9.385-.183.173s0 2.775 6.344 10.825C46.016 49.95 50.565 53.197 53.473 55h1.677q.184-.187.366-.379l.203-.223h-.016c.12-.136.255-.259.371-.398h-2.601c-2.908-1.803-7.457-5.05-11.512-10.195-4.473-5.676-5.771-8.691-6.16-9.998m16.024 4.613-.082.1c.155 2.803 1.296 8.683 1.64 10.437.081.082.153.164.235.246 0 0-1.427-7.122-1.793-10.783m-28.011 3.975C21.79 43.91 19.44 43.88 17.449 44.8c-1.99.92-3.3 1.613-3.3 1.613s.23.267.622.682A75 75 0 0 1 17.45 45.8c1.991-.92 4.342-.891 6.363-2.406 0 0 6.382 7.38 12.211 11.605h9.317c-.511-.324-1.008-.668-1.514-1h-7.803c-5.83-4.225-12.21-11.605-12.21-11.605M7.94 54c.116.137.241.264.36.398h-.012q.075.087.152.172c.13.142.251.292.385.43h14.182c-.484-.357-.885-.67-1.32-1z" style="opacity:.2"/><path d="M59.91 20.309c-3.006.726-7.41 1.842-11.012 3.312-6.698 2.736-13.28 9.36-13.28 9.36s.02.279.183.826c.5-.498 6.67-6.56 13.097-9.186 3.624-1.479 8.068-2.602 11.075-3.328v-.04q-.003-.008-.004-.019a17 17 0 0 0-.059-.925M60 30.414c-3.096 1.85-6.068 4.254-8.258 7.106.014.254.051.588.082.9 2.182-2.807 5.117-5.177 8.176-7.006Zm-35.264.389c-.154.17-.295.33-.295.33s5.03 12.26 14.356 19.347c1.632 1.238 3.32 2.396 5.03 3.52h1.513a95 95 0 0 1-6.543-4.52c-8.058-6.123-12.891-16.077-14.06-18.677m20.323 5.832c-.154.22-.243.357-.243.357s1.962 6.324 8.801 13.211c0 0-.18-.973-.234-1.246-5.657-5.783-7.788-10.866-8.324-12.322m-30.29 10.46-.623.32s1.634 2.1 7.54 6.585h1.32c-4.994-3.687-7.282-5.894-8.237-6.904" style="opacity:.2;fill:#fff"/></svg>