<svg xmlns="http://www.w3.org/2000/svg" width="64" height="64"><rect width="56" height="56" x="4" y="5" rx="2.8" ry="2.8" style="opacity:.2"/><rect width="56" height="56" x="4" y="4" rx="2.8" ry="2.8" style="fill:#ffbf49"/><path d="M36.95 19c-.938 0-1.253.584-1.532 1.395-.437 1.26-1.038 2.463-1.648 3.656l-3.313 3c-.535.554-1.571 1.023-2.297 1.316-.786.318-1.16 1.154-1.16 2.133v10.23c0 1.254 1.055 2.27 2.36 2.27h11.078c.967 0 1.934-.134 2.855-.422.409-.127.78-.276.98-.437.6-.383.997-1.036.997-1.782a2.1 2.1 0 0 0-.258-1c.638-.444 1.058-1.164 1.058-1.98 0-.519-.17-.999-.457-1.395a2.42 2.42 0 0 0 1.008-1.949c0-.533-.18-1.027-.48-1.43.527-.447.859-1.1.859-1.832 0-1.348-1.146-3.132-2.543-3.265-.88-.085-2.941-.293-2.941-.293L37 26.945l1.664-3.422c.16-.785.233-1.588.188-2.386C38.784 19.88 38.456 19 36.949 19m-17.2 8c-.967 0-1.75.895-1.75 2v12c0 1.105.783 2 1.75 2h3.5c.965 0 1.75-.895 1.75-2V29c0-1.105-.785-2-1.75-2z" style="opacity:.2"/><path d="M36.95 18c-.938 0-1.253.584-1.532 1.395-.437 1.26-1.038 2.463-1.648 3.656l-3.313 3c-.535.554-1.571 1.023-2.297 1.316-.786.318-1.16 1.154-1.16 2.133v10.23c0 1.254 1.055 2.27 2.36 2.27h11.078c.967 0 1.934-.134 2.855-.422.409-.127.78-.276.98-.437.6-.383.997-1.036.997-1.782a2.1 2.1 0 0 0-.258-1c.638-.444 1.058-1.164 1.058-1.98 0-.519-.17-.999-.457-1.395a2.42 2.42 0 0 0 1.008-1.949c0-.533-.18-1.027-.48-1.43.527-.447.859-1.1.859-1.832 0-1.348-1.146-3.132-2.543-3.265-.88-.085-2.941-.293-2.941-.293L37 25.945l1.664-3.422c.16-.785.233-1.588.188-2.386C38.784 18.88 38.456 18 36.949 18m-17.2 8c-.967 0-1.75.895-1.75 2v12c0 1.105.783 2 1.75 2h3.5c.965 0 1.75-.895 1.75-2V28c0-1.105-.785-2-1.75-2z" style="fill:#fff"/><path d="M6.8 4C5.25 4 4 5.25 4 6.8v1C4 6.25 5.25 5 6.8 5h50.4C58.75 5 60 6.25 60 7.8v-1C60 5.25 58.75 4 57.2 4z" style="opacity:.2;fill:#fff"/></svg>