<svg xmlns="http://www.w3.org/2000/svg" width="64" height="64"><path d="M32 5v27H4.05A28 28 0 0 0 4 33a28 28 0 0 0 28 28 28 28 0 0 0 28-28A28 28 0 0 0 32 5" style="opacity:.2"/><path d="M32 4a4 4 0 0 0-4 4 4 4 0 0 0 4 4v20H12a4 4 0 0 0-4-4 4 4 0 0 0-4 4 4 4 0 0 0 .018.346A28 28 0 0 0 32 60a28 28 0 0 0 28-28A28 28 0 0 0 32 4" style="fill:#4c91d9"/><circle cx="32" cy="33" r="20" style="opacity:.2"/><circle cx="32" cy="32" r="20" style="fill:#fff"/><path d="M32 4a4 4 0 0 0-4 4 4 4 0 0 0 .035.506A4 4 0 0 1 32 5a28 28 0 0 1 27.979 27.586A28 28 0 0 0 60 32 28 28 0 0 0 32 4M8 28a4 4 0 0 0-4 4 4 4 0 0 0 .018.346l.013.205A4 4 0 0 1 8 29a4 4 0 0 1 4 4h20v-1H12a4 4 0 0 0-4-4" style="fill:#fff;opacity:.2"/></svg>