<svg xmlns="http://www.w3.org/2000/svg" width="64" height="64"><path d="M6.8 61A2.794 2.794 0 0 1 4 58.2V7.8C4 6.249 5.249 5 6.8 5H37l23 23v30.2c0 1.551-1.249 2.8-2.8 2.8z" style="opacity:.2"/><path d="M6.8 60A2.794 2.794 0 0 1 4 57.2V6.8C4 5.249 5.249 4 6.8 4H37l23 23v30.2c0 1.551-1.249 2.8-2.8 2.8z" style="fill:#2663b2"/><path d="M31.5 15a20 20 0 0 0-1.5.064v.012a19.5 19.5 0 0 0-11.47 4.895 19.5 19.5 0 0 0-2.259 2.38 20 20 0 0 0-1.007 1.372l-.164.267a20 20 0 0 0-.842 1.428l-.092.19a20 20 0 0 0-.723 1.56l-.111.303a20 20 0 0 0-.525 1.521 20 20 0 0 0-.106.408 20 20 0 0 0-.35 1.471 20 20 0 0 0-.074.484 20 20 0 0 0-.193 1.452A20 20 0 0 0 12 34.5a20 20 0 0 0 .064 1.5h.012a19.5 19.5 0 0 0 4.309 10.799 19.5 13 0 0 0-.002.002 19.5 19.5 0 0 0 2.08 2.17 20 20 0 0 0 1.463 1.195l.072.055a20 20 0 0 0 1.55 1.023l.077.047a20 20 0 0 0 1.572.828l.197.096a20 20 0 0 0 1.52.613l.336.123a20 20 0 0 0 1.455.426 20 20 0 0 0 .453.115 20 20 0 0 0 1.373.256 20 20 0 0 0 .697.106 20 20 0 0 0 .58.062A20 20 0 0 0 31.5 54a20 20 0 0 0 1.5-.064v-.012a19.5 19.5 0 0 0 11.47-4.895 19.5 19.5 0 0 0 2.259-2.38 20 20 0 0 0 1.007-1.372l.164-.267a20 20 0 0 0 .842-1.428l.092-.19a20 20 0 0 0 .723-1.56l.111-.303a20 20 0 0 0 .525-1.521 20 20 0 0 0 .106-.408 20 20 0 0 0 .35-1.471 20 20 0 0 0 .074-.484 20 20 0 0 0 .193-1.452A20 20 0 0 0 51 34.5a20 20 0 0 0-.064-1.5h-.012a19.5 19.5 0 0 0-4.309-10.799 19.5 13 0 0 0 .002-.002 19.5 19.5 0 0 0-2.08-2.17 20 20 0 0 0-1.463-1.195l-.072-.055a20 20 0 0 0-1.55-1.023l-.077-.047a20 20 0 0 0-1.572-.828l-.197-.096a20 20 0 0 0-1.52-.613l-.336-.123a20 20 0 0 0-1.455-.426 20 20 0 0 0-.453-.115 20 20 0 0 0-1.373-.256 20 20 0 0 0-.698-.106 20 20 0 0 0-.58-.062A20 20 0 0 0 31.5 15M30 18.225v5.722a24.8 24.8 0 0 1-5.27-.861c.135-.24.267-.487.409-.711 1.448-2.288 3.126-3.652 4.861-4.15m3 0c1.735.498 3.413 1.862 4.861 4.15.142.224.274.471.409.71a24.8 24.8 0 0 1-5.27.862ZM22.838 20.47a12.5 19.5 0 0 0-.951 1.592c-.268-.12-.516-.25-.77-.377a17 17 0 0 1 1.72-1.215m17.369.037a17 17 0 0 1 1.67 1.181c-.25.126-.495.253-.758.37a12.5 19.5 0 0 0-.912-1.551m-21.338 3.377a19.5 13 0 0 0 1.805.916A12.5 19.5 0 0 0 19.04 33h-3.967a16.5 16.5 0 0 1 3.795-9.115m25.258.02A16.5 16.5 0 0 1 47.918 33h-3.967a12.5 19.5 0 0 0-1.619-8.2 19.5 13 0 0 0 1.795-.896m-20.65 1.927A19.5 13 0 0 0 30 26.957V33h-7.951c.144-2.627.658-5.063 1.428-7.168m16.046.004c.769 2.104 1.284 4.538 1.428 7.164H33v-6.049a19.5 13 0 0 0 6.523-1.115M15.082 36h3.967a12.5 19.5 0 0 0 1.619 8.2 19.5 13 0 0 0-1.795.896A16.5 16.5 0 0 1 15.082 36m6.967 0H30v6.049a19.5 13 0 0 0-6.523 1.115c-.769-2.104-1.284-4.538-1.428-7.164M33 36h7.951c-.144 2.627-.658 5.063-1.428 7.168A19.5 13 0 0 0 33 42.043Zm10.959 0h3.967a16.5 16.5 0 0 1-3.795 9.115 19.5 13 0 0 0-1.805-.916A12.5 19.5 0 0 0 43.96 36M30 45.053v5.722c-1.735-.498-3.413-1.862-4.861-4.15-.142-.224-.274-.471-.409-.71a24.8 24.8 0 0 1 5.27-.862m3 0a24.8 24.8 0 0 1 5.27.861c-.135.24-.267.487-.409.711-1.448 2.288-3.126 3.652-4.861 4.15Zm8.113 1.885c.268.118.516.25.77.376a17 17 0 0 1-1.72 1.215 12.5 19.5 0 0 0 .95-1.592m-19.232.003a12.5 19.5 0 0 0 .912 1.551 17 17 0 0 1-1.67-1.181c.25-.126.495-.253.758-.37" style="opacity:.2"/><path d="M31.5 14a20 20 0 0 0-1.5.064v.012a19.5 19.5 0 0 0-11.47 4.895 19.5 19.5 0 0 0-2.259 2.38 20 20 0 0 0-1.007 1.372l-.164.267a20 20 0 0 0-.842 1.428l-.092.19a20 20 0 0 0-.723 1.56l-.111.303a20 20 0 0 0-.525 1.521 20 20 0 0 0-.106.408 20 20 0 0 0-.35 1.471 20 20 0 0 0-.074.484 20 20 0 0 0-.193 1.452A20 20 0 0 0 12 33.5a20 20 0 0 0 .064 1.5h.012a19.5 19.5 0 0 0 4.309 10.799 19.5 13 0 0 0-.002.002 19.5 19.5 0 0 0 2.08 2.17 20 20 0 0 0 1.463 1.195l.072.055a20 20 0 0 0 1.55 1.023l.077.047a20 20 0 0 0 1.572.828l.198.096a20 20 0 0 0 1.52.613l.335.123a20 20 0 0 0 1.455.426 20 20 0 0 0 .453.115 20 20 0 0 0 1.373.256 20 20 0 0 0 .698.106 20 20 0 0 0 .58.062A20 20 0 0 0 31.5 53a20 20 0 0 0 1.5-.064v-.012a19.5 19.5 0 0 0 11.47-4.895 19.5 19.5 0 0 0 2.259-2.38 20 20 0 0 0 1.007-1.372l.164-.267a20 20 0 0 0 .842-1.428l.092-.19a20 20 0 0 0 .723-1.56l.111-.303a20 20 0 0 0 .525-1.521 20 20 0 0 0 .106-.408 20 20 0 0 0 .35-1.471 20 20 0 0 0 .074-.484 20 20 0 0 0 .193-1.452A20 20 0 0 0 51 33.5a20 20 0 0 0-.064-1.5h-.012a19.5 19.5 0 0 0-4.309-10.799 19.5 13 0 0 0 .002-.002 19.5 19.5 0 0 0-2.08-2.17 20 20 0 0 0-1.463-1.195l-.072-.055a20 20 0 0 0-1.55-1.023l-.077-.047a20 20 0 0 0-1.572-.828l-.198-.096a20 20 0 0 0-1.52-.613l-.335-.123a20 20 0 0 0-1.455-.426 20 20 0 0 0-.453-.115 20 20 0 0 0-1.373-.256 20 20 0 0 0-.698-.106 20 20 0 0 0-.58-.062A20 20 0 0 0 31.5 14M30 17.225v5.722a24.8 24.8 0 0 1-5.27-.861c.135-.24.267-.487.409-.711 1.448-2.288 3.126-3.652 4.861-4.15m3 0c1.735.498 3.413 1.862 4.861 4.15.142.224.274.471.409.71a24.8 24.8 0 0 1-5.27.862zM22.838 19.47a12.5 19.5 0 0 0-.951 1.592c-.268-.12-.516-.25-.77-.377a17 17 0 0 1 1.72-1.215m17.369.037a17 17 0 0 1 1.67 1.181c-.25.126-.495.253-.758.37a12.5 19.5 0 0 0-.912-1.551m-21.338 3.377a19.5 13 0 0 0 1.805.916A12.5 19.5 0 0 0 19.04 32h-3.967a16.5 16.5 0 0 1 3.795-9.115m25.258.02A16.5 16.5 0 0 1 47.918 32h-3.967a12.5 19.5 0 0 0-1.619-8.2 19.5 13 0 0 0 1.795-.896m-20.65 1.927A19.5 13 0 0 0 30 25.957V32h-7.951c.144-2.627.658-5.063 1.428-7.168m16.046.004c.769 2.104 1.284 4.538 1.428 7.164H33v-6.049a19.5 13 0 0 0 6.523-1.115M15.082 35h3.967a12.5 19.5 0 0 0 1.619 8.2 19.5 13 0 0 0-1.795.896A16.5 16.5 0 0 1 15.082 35m6.967 0H30v6.049a19.5 13 0 0 0-6.523 1.115c-.769-2.104-1.284-4.538-1.428-7.164M33 35h7.951c-.144 2.627-.658 5.063-1.428 7.168A19.5 13 0 0 0 33 41.043zm10.959 0h3.967a16.5 16.5 0 0 1-3.795 9.115 19.5 13 0 0 0-1.805-.916A12.5 19.5 0 0 0 43.96 35M30 44.053v5.722c-1.735-.498-3.413-1.862-4.861-4.15-.142-.224-.274-.471-.409-.71a24.8 24.8 0 0 1 5.27-.862m3 0a24.8 24.8 0 0 1 5.27.861c-.135.24-.267.487-.409.711-1.448 2.288-3.126 3.652-4.861 4.15zm8.113 1.885c.268.118.516.25.77.376a17 17 0 0 1-1.72 1.215 12.5 19.5 0 0 0 .95-1.592m-19.232.003a12.5 19.5 0 0 0 .912 1.551 17 17 0 0 1-1.67-1.181c.25-.126.495-.253.758-.37" style="fill:#fff"/><path d="M37 24.125v1A2.875 2.875 0 0 0 39.875 28H60v-1H39.875A2.875 2.875 0 0 1 37 24.125" style="opacity:.2"/><path d="M60 27H39.875A2.875 2.875 0 0 1 37 24.125V4Z" style="fill:#5491dc"/><path d="M6.8 4C5.25 4 4 5.25 4 6.8v1C4 6.25 5.25 5 6.8 5H37l22 22h1L37 4z" style="fill:#fff;opacity:.1"/></svg>