<svg xmlns="http://www.w3.org/2000/svg" width="64" height="64"><path d="M4 18.86V55.4C4 58.502 6.498 61 9.6 61h44.8c3.102 0 5.6-2.498 5.6-5.6V18.86Z" style="opacity:.2"/><path d="M4 17.86V54.4C4 57.502 6.498 60 9.6 60h44.8c3.102 0 5.6-2.498 5.6-5.6V17.86Z" style="fill:#3f3f3f"/><path d="M9.6 4A5.59 5.59 0 0 0 4 9.6V18h56V9.6C60 6.498 57.502 4 54.4 4Z" style="fill:#4f4f4f"/><path d="M24 31a8 8 0 1 0 0 16h16V31z" style="opacity:.2"/><path d="M24 30a8 8 0 1 0 0 16h16V30z" style="fill:#50a4f3"/><circle cx="40" cy="39" r="8" style="opacity:.2"/><path d="M24 30a8 8 0 0 0-7.982 8.492A8 8 0 0 1 24 31h16v-1z" style="opacity:.1;fill:#fff"/><circle cx="40" cy="38" r="8" style="fill:#4f4f4f"/><path d="M7 9.5 8.5 11 7 12.5V14h1.5l1.5-1.5 1.5 1.5H13v-1.5L11.5 11 13 9.5V8h-1.5L10 9.5 8.5 8H7Z" style="opacity:.2"/><path d="M7 8.5 8.5 10 7 11.5V13h1.5l1.5-1.5 1.5 1.5H13v-1.5L11.5 10 13 8.5V7h-1.5L10 8.5 8.5 7H7Z" style="fill:#fff"/><path d="M4 18h56v1H4z" style="opacity:.2"/><path d="M9.602 4A5.59 5.59 0 0 0 4 9.602v1A5.59 5.59 0 0 1 9.602 5h44.796A5.59 5.59 0 0 1 60 10.602v-1A5.59 5.59 0 0 0 54.398 4z" style="opacity:.1;fill:#fff"/></svg>