<svg xmlns="http://www.w3.org/2000/svg" width="64" height="64"><rect width="56" height="56" x="4" y="5" ry="13.303" style="opacity:.2"/><rect width="56" height="56" x="4" y="4" ry="13.303" style="fill:#8067db"/><path d="M41.97 44.453q0 5.295-2.368 8.69-2.67 3.858-7.769 3.857-5.948 0-8.255-4.835Q22 48.828 22 41.978V19.763q0-3.051 1.76-6.101Q26.43 9 31.833 9q5.766 0 8.255 4.144 2.003 3.165 1.882 8.46c0 1.151-.02 2.8-.061 3.413q-.06.922-.91 1.036-.85.115-3.035.058c-2.024-.077-2.12-.115-1.917-.115q-1.093 0-1.154-.979v-4.852c-.242-1.995-1.805-2.992-3.06-2.992-1.659 0-2.833 3.415-2.833 10.244v16.346c0 1.074.506 2.09.83 3.05q.668 2.014 2.003 2.014c1.578 0 3.182-2.014 3.182-6.043V41.09q-.06-.979-.06-1.152 0-1.036.849-1.036c2.55 0 3.758.02 5.255.058q.91 0 .91.978c.041.998.041 2.558 0 4.515" style="opacity:.2"/><path d="M41.97 43.453q0 5.295-2.368 8.69-2.67 3.858-7.769 3.857-5.948 0-8.255-4.835Q22 47.828 22 40.978V18.763q0-3.051 1.76-6.101Q26.43 8 31.833 8q5.766 0 8.255 4.144 2.003 3.165 1.882 8.46c0 1.151-.02 2.8-.061 3.413q-.06.922-.91 1.036-.85.115-3.035.058c-2.024-.077-2.12-.115-1.917-.115q-1.093 0-1.154-.979v-4.852c-.242-1.995-1.805-2.992-3.06-2.992-1.659 0-2.833 3.415-2.833 10.244v16.346c0 1.074.506 2.09.83 3.05q.668 2.014 2.003 2.014c1.578 0 3.182-2.014 3.182-6.043V40.09q-.06-.979-.06-1.152 0-1.036.849-1.036c2.55 0 3.758.02 5.255.058q.91 0 .91.978c.041.998.041 2.558 0 4.515" style="fill:#fff"/><path d="M17.303 4A13.274 13.274 0 0 0 4 17.303v1C4 10.933 9.933 5 17.303 5h29.394C54.067 5 60 10.933 60 18.303v-1C60 9.933 54.067 4 46.697 4z" style="fill:#fff;opacity:.1"/></svg>