<svg xmlns="http://www.w3.org/2000/svg" width="64" height="64"><path d="M8 34v22.148C8 58.283 9.783 60 12 60h36c2.217 0 4-1.717 4-3.852V34H38a10 9.75 0 0 1-8 3.9 10 9.75 0 0 1-8-3.9Z" style="opacity:.2"/><path d="M12 9h36c2.209 0 4 1.84 4 4.108v29.784C52 45.16 50.209 47 48 47H12c-2.209 0-4-1.84-4-4.108V13.108C8 10.84 9.791 9 12 9m0 0" style="fill:#b22b34"/><circle cx="30" cy="25" r="22" style="fill:#56c3f1"/><path d="M30.591 3.008a22 22 0 0 0-2.948.146l1.886 17.484a4.37 4.37 0 0 1 2.672.552c.398.23.73.527 1.026.85l12.979-11.918a22 22 0 0 0-5.209-4.171 21.9 21.9 0 0 0-10.406-2.943" style="opacity:.3;fill:#fff"/><path d="m38.477 4.721-6.79 16.24c.173.072.348.133.514.23a4.37 4.37 0 0 1 1.815 2.04l16.09-7.093c-1.817-4.134-4.898-7.756-9.109-10.187a22 22 0 0 0-2.52-1.23M16.378 7.745a21.9 21.9 0 0 0-5.427 6.258 22 22 0 0 0-2.037 4.804l16.875 4.956c.097-.329.222-.653.401-.964a4.4 4.4 0 0 1 1.089-1.247z" style="opacity:.3;fill:#fff"/><circle cx="30" cy="26" r="8" style="opacity:.2"/><circle cx="30" cy="25" r="8" style="fill:#fff"/><path d="M31.455 22.477a2.912 2.912 0 1 1-2.91 5.045 2.912 2.912 0 0 1 2.91-5.045m0 0" style="fill:#c0bfbc"/><path d="M28.965 21.138a4 4 0 0 0-2.433 1.858 4.02 4.02 0 0 0 1.465 5.472 4.02 4.02 0 0 0 5.472-1.465c1.1-1.905.435-4.373-1.47-5.472a4 4 0 0 0-3.034-.393m.56 2.095c.446-.12.942-.062 1.383.19a1.804 1.804 0 0 1 .668 2.488 1.8 1.8 0 0 1-2.487.664 1.804 1.804 0 0 1-.668-2.487 1.8 1.8 0 0 1 1.103-.855" style="fill:#5e5c64"/><path d="M8 33v22.148C8 57.283 9.783 59 12 59h36c2.217 0 4-1.717 4-3.852V33H38a10 9.75 0 0 1-8 3.9 10 9.75 0 0 1-8-3.9Z" style="fill:#e8414b"/><path d="M15.067 40h29.866c.59 0 1.067.417 1.067.933v12.134c0 .516-.477.933-1.067.933H15.067c-.59 0-1.067-.417-1.067-.933V40.933c0-.516.477-.933 1.067-.933m0 0" style="opacity:.2"/><path d="M15.067 39h29.866c.59 0 1.067.417 1.067.933v12.134c0 .516-.477.933-1.067.933H15.067c-.59 0-1.067-.417-1.067-.933V39.933c0-.516.477-.933 1.067-.933m0 0" style="fill:#fff"/><path d="M18 42v3h24v-3zm0 5v3h14v-3z" style="opacity:.4"/><path d="m55.605 4.003-1.199 1.074-.254.445-.507.887-20.047 35.066.078.047-.39 1.606c-.07.007-.13.038-.138.101l-1.027 3.043c-.042.12.02.271.18.364l.113.066-.223.86c-.023.091-.007.193.09.25l.078.046c-.415.989-.483 1.856-.09 2.086.395.23 1.107-.266 1.747-1.125l.152.09c.097.056.188.017.258-.047 0 0 .38-.342.652-.605l.117.07c.159.092.321.067.403-.031l2.062-2.418c.041-.04.038-.092.024-.145l1.21-1.172L59.192 9.054l-.02-.012.255-.446.254-.445.32-1.586Z" style="opacity:.2"/><path d="M34.449 47.179c-.718 1.257-1.694 2.046-2.18 1.764-.485-.285-.297-1.532.421-2.79.72-1.254 1.695-2.043 2.18-1.76.487.283.296 1.53-.421 2.786m0 0" style="fill:#444"/><path d="M30 3A22 22 0 0 0 8 25a22 22 0 0 0 .008.5A22 22 0 0 1 30 4a22 22 0 0 1 21.994 21.512A22 22 0 0 0 52 25 22 22 0 0 0 30 3" style="opacity:.2;fill:#fff"/><path d="m53.898 4.963-20.302 35.51.08.047-1.262 5.18-.222.858c-.023.092-.008.193.089.249l1.885 1.099c.097.056.189.016.258-.048 0 0 .382-.341.654-.605l3.815-3.694 20.3-35.507-4.006-2.336v-.002z" style="fill:#ccc"/><path d="M55.297 5.78 32.359 45.914l-.167.644c-.023.092-.008.193.089.249l1.885 1.099c.097.056.189.016.258-.048l.128-.118L57.726 7.196Z" style="opacity:.2"/><path d="m33.433 42.152 4.089 2.384c.164.096.232.247.136.34l-2.062 2.417c-.08.098-.241.122-.4.03l-2.897-1.69c-.16-.092-.218-.244-.176-.364l1.027-3.041c.014-.106.155-.15.283-.076M54.405 4.075l-.761 1.331 5.274 3.076.76-1.332L60 5.563 55.605 3Zm0 0" style="fill:#ed333b"/><path fill="#a51d2d" d="m54.151 4.52.254-.445L59.68 7.15l-.254.445zm0 0"/><path d="m55.605 3-1.199 1.074-.254.446-.507.886-20.047 35.067.078.047-.39 1.605c-.07.007-.13.038-.138.102l-1.027 3.043c-.042.12.02.27.18.363l.03.017.817-2.423c.009-.064.068-.095.137-.102l.39-1.605-.077-.047L53.645 6.406l.507-.886.254-.446L55.606 4l4.212 2.457.182-.894zM32.2 46.527l-.008.032c-.023.09-.006.189.086.246l.053-.155-.03-.017c-.048-.028-.07-.069-.1-.106m-.054.946c-.151.53-.177.981-.055 1.254.018-.085.03-.165.055-.254.01.021.038.038.054.058l.215-.828-.086-.05-.05.152c-.093-.057-.11-.156-.087-.246l.008-.03c-.015-.02-.044-.035-.054-.056" style="opacity:.2;fill:#fff"/></svg>