<svg xmlns="http://www.w3.org/2000/svg" width="64" height="64"><rect width="52" height="44" x="6" y="11" rx="6" ry="6" style="opacity:.2"/><rect width="52" height="44" x="6" y="10" rx="6" ry="6" style="fill:#e4e4e4"/><path d="M38 29h5v11H22" style="opacity:.1;fill:none;stroke:#000;stroke-width:2;stroke-linecap:square;stroke-linejoin:round"/><path d="M38 28h5v11H22v6" style="fill:none;stroke:#afafb1;stroke-width:2;stroke-linecap:square;stroke-linejoin:round"/><rect width="6" height="16" x="19" y="45" ry="1" style="opacity:.2"/><rect width="6" height="16" x="19" y="44" ry="1" style="fill:#4f4f4f"/><circle cx="22" cy="58" r="1" style="opacity:.2"/><path d="M6 5h1v6H3V8c0-1.685 1.34-3 3-3" style="fill:#50beee" transform="scale(2)"/><path d="M7 5h4v6H7z" style="fill:#79de7d" transform="scale(2)"/><path d="M11 5h4v6h-4z" style="fill:#fed65c" transform="scale(2)"/><path d="M15 5h4v6h-4z" style="fill:#df574d" transform="scale(2)"/><rect width="34" height="14" x="5" y="22" ry="1" style="opacity:.1"/><path d="M2.5 5c0-.25.252-.5.5-.5h4v7H3c-.243 0-.5-.252-.5-.5z" style="fill:#2aa0ea" transform="matrix(2 0 0 2 0 12)"/><path d="M7 4.5h4v7H7z" style="fill:#4ec353" transform="matrix(2 0 0 2 0 12)"/><path d="M11 4.5h4v7h-4z" style="fill:#fecd38" transform="matrix(2 0 0 2 0 12)"/><path d="M15 4.5h4c.25 0 .5.25.5.5v6c0 .25-.25.5-.5.5h-4z" style="fill:#e14134" transform="matrix(2 0 0 2 0 12)"/><path d="M5 22c0-.5.5-1 1-1h32c.5 0 1 .5 1 1v1c0-.5-.5-1-1-1H6c-.5 0-1 .5-1 1zm1-6v1c0-3.342 2.644-6 6-6h40c3.342 0 6 2.644 6 6v-1c0-3.342-2.687-6-6-6H12c-3.356 0-6 2.623-6 6" style="fill:#fffefe;opacity:.2"/><path d="M19 45c0-.565.44-1 1-1h4c.56 0 1 .439 1 1v1c0-.562-.44-1-1-1h-4c-.56 0-1 .436-1 1z" style="fill:#fffefe;opacity:.1"/><path d="M38 10h14c3.329 0 6 2.671 6 6v5H38z" style="opacity:.1"/><circle cx="52" cy="16" r="3" style="opacity:.2"/></svg>