<svg xmlns="http://www.w3.org/2000/svg" width="64" height="64"><rect width="56" height="56" x="4" y="5" rx="16.8" ry="16.8" style="opacity:.2"/><rect width="56" height="56" x="4" y="4" rx="16.8" ry="16.8" style="fill:#e4e4e4"/><path d="M29.129 19a.72.72 0 0 0-.613.57l-.59 2.996a11.3 11.3 0 0 0-2.938 1.684l-2.914-.984a.72.72 0 0 0-.832.304l-2.808 4.86a.72.72 0 0 0 .156.875l2.32 2.03A11 11 0 0 0 20.781 33a11 11 0 0 0 .13 1.664l-2.321 2.031a.72.72 0 0 0-.156.875l2.808 4.86c.163.275.53.409.832.304l2.914-.984c.876.7 1.875 1.269 2.938 1.684l.59 2.996c.06.313.36.566.68.57h5.609a.725.725 0 0 0 .68-.57l.59-2.996a11.3 11.3 0 0 0 2.937-1.684l2.914.984a.72.72 0 0 0 .832-.304l2.808-4.86a.72.72 0 0 0-.156-.875l-2.32-2.03c.082-.546.129-1.097.129-1.665s-.047-1.119-.13-1.664l2.321-2.031a.72.72 0 0 0 .156-.875l-2.808-4.86a.72.72 0 0 0-.832-.304l-2.914.984a11.3 11.3 0 0 0-2.938-1.684l-.59-2.996a.725.725 0 0 0-.68-.57zM32 27a6 6 0 1 1 0 12 6 6 0 0 1 0-12" style="opacity:.1"/><path d="M29.129 18a.72.72 0 0 0-.613.57l-.59 2.996a11.3 11.3 0 0 0-2.938 1.684l-2.914-.984a.72.72 0 0 0-.832.304l-2.808 4.86a.72.72 0 0 0 .156.875l2.32 2.03A11 11 0 0 0 20.781 32a11 11 0 0 0 .13 1.664l-2.321 2.031a.72.72 0 0 0-.156.875l2.808 4.86c.163.275.53.409.832.304l2.914-.984c.876.7 1.875 1.269 2.938 1.684l.59 2.996c.06.313.36.566.68.57h5.609a.725.725 0 0 0 .68-.57l.59-2.996a11.3 11.3 0 0 0 2.937-1.684l2.914.984a.72.72 0 0 0 .832-.304l2.808-4.86a.72.72 0 0 0-.156-.875l-2.32-2.03c.082-.546.129-1.097.129-1.665s-.047-1.119-.13-1.664l2.321-2.031a.72.72 0 0 0 .156-.875l-2.808-4.86a.72.72 0 0 0-.832-.304l-2.914.984a11.3 11.3 0 0 0-2.938-1.684l-.59-2.996a.725.725 0 0 0-.68-.57zM32 26a6 6 0 1 1 0 12 6 6 0 0 1 0-12" style="fill:#757575"/><path d="M20.8 4C11.495 4 4 11.494 4 20.8v1C4 12.495 11.494 5 20.8 5h22.4C52.505 5 60 12.494 60 21.8v-1C60 11.495 52.506 4 43.2 4z" style="opacity:.2;fill:#fff"/></svg>