<svg xmlns="http://www.w3.org/2000/svg" width="64" height="64"><rect width="56" height="56" x="4" y="5" rx="5.6" ry="5.6" style="opacity:.2"/><rect width="56" height="56" x="4" y="4" rx="5.6" ry="5.6" style="fill:#80deea"/><path d="M9.6 4A5.587 5.587 0 0 0 4 9.6v1C4 7.497 6.497 5 9.6 5h44.8c3.103 0 5.6 2.497 5.6 5.6v-1C60 6.497 57.503 4 54.4 4z" style="fill:#fff;opacity:.2"/><rect width="44" height="44" x="10" y="11" rx="4.714" ry="4.714" style="opacity:.1"/><rect width="44" height="44" x="10" y="10" rx="4.714" ry="4.714" style="fill:#4dd0e1"/><rect width="32" height="32" x="16" y="17" rx="3.429" ry="3.429" style="opacity:.1"/><rect width="32" height="32" x="16" y="16" rx="3.429" ry="3.429" style="fill:#26c6da"/><path d="M22 23h20v20H22z" style="opacity:.1"/><path d="M26 22h4v4h-4z" style="fill:#00acc1"/><path d="M34 22h4v4h-4z" style="fill:#26c6da"/><path d="M30 26h4v4h-4z" style="fill:#00acc1"/><path d="M26 30h4v4h-4z" style="fill:#00bcd4"/><path d="M34 30h4v4h-4z" style="fill:#84ffff"/><path d="M30 34h4v4h-4z" style="fill:#00b8d4"/><path d="M26 38h4v4h-4z" style="fill:#00bcd4"/><path d="M34 38h4v4h-4z" style="fill:#00838f"/><path d="M22 22h4v4h-4z" style="fill:#00bcd4"/><path d="M22 26h4v4h-4z" style="fill:#00acc1"/><path d="M30 22h4v4h-4z" style="fill:#0097a7"/><path d="M38 22h4v4h-4z" style="fill:#00838f"/><path d="M38 26h4v4h-4z" style="fill:#00acc1"/><path d="M34 26h4v4h-4z" style="fill:#00e5ff"/><path d="M26 26h4v4h-4z" style="fill:#0097a7"/><path d="M22 30h4v4h-4zm8 0h4v4h-4z" style="fill:#00838f"/><path d="M38 30h4v4h-4z" style="fill:#00b8d4"/><path d="M38 38h4v4h-4z" style="fill:#00acc1"/><path d="M30 38h4v4h-4z" style="fill:#00e5ff"/><path d="M22 38h4v4h-4z" style="fill:#00acc1"/><path d="M22 34h4v4h-4z" style="fill:#00bcd4"/><path d="M26 34h4v4h-4z" style="fill:#00838f"/><path d="M34 34h4v4h-4z" style="fill:#0097a7"/><path d="M38 34h4v4h-4z" style="fill:#84ffff"/></svg>