<svg xmlns="http://www.w3.org/2000/svg" width="64" height="64"><path d="M7.08 54.057c1.065 2.047 1.106 1.468 2.17 3.515 5.444-6.298 9.066-3.561 13.995-8.017 4.213-4.03 14.67-13.781 17.983-18.516 4.178-2.432-7.767 4.613-6.888-1.97.033-4.282-5.09-2.388-6.87-.33-6.152 5.364-11.17 10.837-16.849 16.065-2.685 2.47 4.829 2.57-3.54 9.253m0 0" style="fill:#1095e8"/><path d="M51.613 7.004c-1.496-.054-3.013.378-4.218 1.293-2.165 1.954-4.176 4.072-6.254 6.117-.18.115-.57.559-.57.559s-.087-.063-.231-.219c-.706-.653-1.35-1.56-2.355-1.691-1.44-.071-2.504 1.689-1.715 2.918 3.661 3.792 7.41 7.5 11.144 11.222.816.68 1.473 1.9 2.688 1.79.925-.017 1.66-.809 1.843-1.673.052-1.29-1.157-2.024-1.93-2.882q1.928-1.933 3.852-3.867c1.176-1.313 2.676-2.402 3.465-4.016 1.32-2.614.632-6.057-1.625-7.934-1.124-1.024-2.597-1.562-4.094-1.617m-15.41 12.223L23.094 32.332C15.854 39.572 9.94 45.527 9.887 45.63c-.059.116-.099.35-.113.613-.018.362.005.53.168 1.14.103.395.249.941.324 1.22.075.278.154.71.168.964.02.305.006.555-.04.72-.064.23-.235.42-1.964 2.163-1.79 1.807-1.902 1.934-2.105 2.344a3 3 0 0 0-.286.82c-.036.22-.05.542-.03.739.018.192.077.48.132.64.057.158.156.398.223.527.067.13.289.405.496.61s.5.438.652.52c.15.08.45.19.664.245.213.057.52.106.68.106.16.002.455-.034.652-.074.197-.043.531-.164.742-.274.34-.176.607-.42 2.297-2.093 1.745-1.726 1.933-1.895 2.164-1.957.167-.045.416-.062.719-.043.256.016.69.09.969.168.276.075.824.224 1.219.328.609.16.782.186 1.144.168.252-.015.498-.059.61-.114.107-.052 5.653-5.565 13.288-13.21l13.106-13.122zm.028 2.73 3.414 3.41 3.41 3.41-11.8 11.793L19.45 52.363l-.313.09a1.7 1.7 0 0 1-.676.055c-.197-.018-.878-.166-1.515-.332-1.034-.268-1.221-.3-1.72-.305-.476-.004-.586.01-.769.11-.115.062-1.279 1.185-2.601 2.511-1.314 1.318-2.449 2.426-2.52 2.465a1.3 1.3 0 0 1-.32.098 1.2 1.2 0 0 1-.363-.016 1.1 1.1 0 0 1-.32-.145 1.3 1.3 0 0 1-.254-.269 1.1 1.1 0 0 1-.149-.352c-.02-.103-.005-.29.027-.414.053-.2.349-.517 2.52-2.695 1.353-1.356 2.5-2.549 2.555-2.652.079-.15.097-.292.093-.742a3.8 3.8 0 0 0-.14-1.063l-.309-1.14c-.134-.502-.172-.75-.176-1.169-.004-.452.012-.561.11-.742.069-.126 4.942-5.036 11.867-11.957z" style="opacity:.2"/><path d="M50.103 27.993c-1.215.11-1.874-1.11-2.69-1.789-3.734-3.721-7.483-7.43-11.145-11.222-.789-1.229.277-2.992 1.718-2.921 1.005.132 1.647 1.04 2.353 1.694.144.157.232.218.232.218s.392-.442.571-.557c2.079-2.045 4.088-4.165 6.252-6.12 2.41-1.83 6.066-1.721 8.315.327 2.257 1.876 2.943 5.32 1.623 7.933-.789 1.614-2.288 2.704-3.464 4.016l-3.853 3.867c.773.858 1.98 1.59 1.93 2.88-.184.864-.917 1.658-1.842 1.674" style="fill:#3f3f3f"/><path d="M8.856 58c-.16 0-.467-.047-.68-.104a3.6 3.6 0 0 1-.662-.247c-.153-.081-.447-.315-.655-.52-.207-.205-.43-.48-.497-.609a5 5 0 0 1-.222-.526 3.4 3.4 0 0 1-.132-.643 3.4 3.4 0 0 1 .033-.737c.04-.246.146-.548.282-.82.203-.41.32-.539 2.109-2.345 1.728-1.744 1.899-1.933 1.964-2.165.045-.164.059-.412.038-.716a6 6 0 0 0-.166-.967c-.075-.278-.224-.826-.327-1.22-.163-.61-.187-.78-.169-1.14.014-.264.057-.496.116-.612.053-.101 5.966-6.056 13.205-13.295l13.112-13.109 9.559 9.554-13.104 13.12c-7.635 7.647-13.18 13.158-13.288 13.211-.112.055-.36.1-.612.114-.361.018-.532-.008-1.141-.169a176 176 0 0 1-1.22-.326 6 6 0 0 0-.97-.169c-.302-.018-.55-.004-.717.04-.231.064-.42.234-2.165 1.96-1.69 1.673-1.956 1.914-2.295 2.09a3.6 3.6 0 0 1-.744.277c-.197.04-.491.075-.652.073m.16-1.945a1.3 1.3 0 0 0 .32-.097c.07-.039 1.206-1.147 2.52-2.465 1.323-1.326 2.487-2.448 2.602-2.511.183-.1.293-.116.77-.112.498.004.683.037 1.717.305.637.166 1.32.316 1.517.335.26.024.445.008.674-.057l.315-.09L31.253 39.57l11.801-11.79-3.41-3.41-3.413-3.411L24.478 32.7C17.554 39.621 12.68 44.53 12.61 44.656c-.098.18-.114.29-.11.743.004.418.043.666.177 1.167.093.351.231.865.307 1.141a3.8 3.8 0 0 1 .142 1.062c.004.45-.014.593-.094.743-.054.103-1.204 1.297-2.557 2.653-2.171 2.179-2.466 2.495-2.519 2.696a1.1 1.1 0 0 0-.024.412c.018.102.085.26.148.352.061.091.175.213.252.27s.22.121.319.146c.098.022.262.028.366.014m0 0" style="fill:#e4e4e4"/><path d="M51.611 6.006c-1.496-.055-3.011.375-4.216 1.29-2.165 1.955-4.174 4.075-6.252 6.12-.18.115-.573.557-.573.557s-.088-.06-.232-.217c-.706-.654-1.346-1.563-2.352-1.695-1.278-.063-2.258 1.317-1.912 2.488.23-.833.994-1.534 1.912-1.488 1.006.132 1.646 1.041 2.352 1.695.144.156.232.217.232.217s.393-.442.573-.557c2.078-2.045 4.087-4.165 6.252-6.12 2.41-1.83 6.065-1.721 8.314.327 1.356 1.127 2.14 2.82 2.268 4.559.153-2.07-.652-4.216-2.268-5.559-1.124-1.024-2.601-1.563-4.098-1.617m-1.097 17.933-.498.498c.625.696 1.535 1.31 1.832 2.204q.06-.16.095-.323c.042-1.034-.725-1.709-1.43-2.379" style="fill:#fff;opacity:.1"/></svg>