<svg xmlns="http://www.w3.org/2000/svg" width="64" height="64"><rect width="56" height="56" x="4" y="5" rx="2.8" ry="2.8" style="opacity:.2"/><rect width="56" height="56" x="4" y="4" rx="2.8" ry="2.8" style="fill:#8e8e8e"/><path d="m13 16 9 10 9-10" style="opacity:.2;fill:none;stroke:#000;stroke-width:6;stroke-linecap:round;stroke-linejoin:round"/><path d="m13 15 9 10 9-10" style="fill:none;stroke:#3f3f3f;stroke-width:6;stroke-linecap:round;stroke-linejoin:round"/><path d="M13 38v12h12" style="opacity:.2;fill:none;stroke:#000;stroke-width:6;stroke-linecap:round;stroke-linejoin:round"/><path d="M13 37v12h12" style="fill:none;stroke:#3f3f3f;stroke-width:6;stroke-linecap:round;stroke-linejoin:round"/><path d="m51.029 25.968-9-10-9 10" style="opacity:.2;fill:none;stroke:#000;stroke-width:6;stroke-linecap:round;stroke-linejoin:round"/><path d="M6.8 4C5.25 4 4 5.25 4 6.8v1C4 6.25 5.25 5 6.8 5h50.4C58.75 5 60 6.25 60 7.8v-1C60 5.25 58.75 4 57.2 4z" style="opacity:.2;fill:#fff"/><path d="m51.029 24.968-9-10-9 10" style="fill:none;stroke:#3f3f3f;stroke-width:6;stroke-linecap:round;stroke-linejoin:round"/><path d="m51.029 49.968-9-10-9 10" style="opacity:.2;fill:none;stroke:#000;stroke-width:6;stroke-linecap:round;stroke-linejoin:round"/><path d="m51.029 48.968-9-10-9 10" style="fill:none;stroke:#3f3f3f;stroke-width:6;stroke-linecap:round;stroke-linejoin:round"/></svg>