<svg xmlns="http://www.w3.org/2000/svg" width="64" height="64"><rect width="45.231" height="34" x="-58" y="-49" rx="2.692" ry="2.656" style="opacity:.2" transform="rotate(90)scale(-1 1)"/><rect width="45.231" height="34" x="-57" y="-49" rx="2.692" ry="2.656" style="fill:#8e8e8e" transform="rotate(90)scale(-1 1)"/><rect width="44" height="56" x="-52" y="-60" rx="2.75" ry="2.692" style="opacity:.2" transform="rotate(90)scale(-1 1)"/><rect width="44" height="56" x="-51" y="-60" rx="2.75" ry="2.692" style="fill:#4f4f4f" transform="rotate(90)scale(-1 1)"/><rect width="36" height="48" x="-47" y="-56" rx="0" ry="0" style="fill:#333" transform="rotate(90)scale(-1 1)"/><path d="M8 36.71V47h10.492Z" style="fill:#303f9f"/><path d="M8 26.301V36.71L18.492 47h10.613Z" style="fill:#2357cd"/><path d="M8 15.892v10.41L29.105 47h10.61z" style="fill:#9844e8"/><path d="M8 11v4.892L39.715 47h10.616L13.622 11Z" style="fill:#f845c5"/><path d="m13.622 11 36.709 36H56v-4.846L24.235 11Z" style="fill:#ffb86c"/><path d="M24.235 11 56 42.154v-10.41L34.848 11Z" style="fill:#359435"/><path d="M34.848 11 56 31.745v-10.41L45.461 11Z" style="fill:#17aab6"/><path d="M45.461 11 56 21.336V11Z" style="fill:#1bbcff"/><path d="m42.387 16.02-.98.261a.51.51 0 0 0-.36.621l.523 1.965a.51.51 0 0 0 .625.36l.98-.262a.51.51 0 0 0 .36-.625l-.527-1.961a.504.504 0 0 0-.621-.36m4.851.636a.5.5 0 0 0-.308.239l-1.016 1.757a.51.51 0 0 0 .184.696l.882.507a.504.504 0 0 0 .692-.187l1.016-1.758a.507.507 0 0 0-.184-.695l-.879-.508a.5.5 0 0 0-.387-.05m-9.715 2.602a.5.5 0 0 0-.308.238l-.508.879a.51.51 0 0 0 .184.695l1.761 1.016c.244.14.55.06.692-.184l.511-.882a.504.504 0 0 0-.187-.692l-1.762-1.015a.5.5 0 0 0-.383-.055M44 20c-2.195 0-4 1.805-4 4s1.805 4 4 4 4-1.805 4-4-1.805-4-4-4m7.098 1.047-1.965.527a.504.504 0 0 0-.36.621l.266.985a.51.51 0 0 0 .621.355l1.965-.523a.51.51 0 0 0 .36-.621l-.266-.985a.51.51 0 0 0-.621-.36M38.34 24.465l-1.965.527a.504.504 0 0 0-.36.621l.266.98a.505.505 0 0 0 .621.36l1.961-.523a.51.51 0 0 0 .36-.625l-.262-.98a.51.51 0 0 0-.621-.36m10.62 1.398a.5.5 0 0 0-.308.239l-.507.878a.51.51 0 0 0 .187.696l1.758 1.015a.51.51 0 0 0 .695-.187l.508-.879a.51.51 0 0 0-.188-.695l-1.757-1.016a.5.5 0 0 0-.387-.05m-8.327 2.23a.5.5 0 0 0-.309.239l-1.015 1.762a.5.5 0 0 0 .187.691l.879.508c.244.14.554.06.695-.184l1.016-1.761a.504.504 0 0 0-.188-.692l-.878-.511a.5.5 0 0 0-.387-.051m5.172.684-.985.262a.51.51 0 0 0-.355.621l.523 1.965a.51.51 0 0 0 .625.36l.98-.262a.51.51 0 0 0 .36-.625l-.527-1.961a.504.504 0 0 0-.621-.36M19 30a7.001 7.001 0 0 0 0 14 7 7 0 0 0 6.89-8.234 4.75 4.75 0 1 1-5.656-5.656A7 7 0 0 0 19 30" style="opacity:.2"/><path d="M44 19c-2.195 0-4 1.805-4 4s1.805 4 4 4 4-1.805 4-4-1.805-4-4-4m3.623-3.292.88.508c.244.14.327.45.186.694l-1.016 1.76a.506.506 0 0 1-.694.185l-.88-.508a.51.51 0 0 1-.186-.694l1.016-1.76a.506.506 0 0 1 .694-.185M41.02 27.146l.88.508c.244.141.327.45.186.694l-1.016 1.76a.506.506 0 0 1-.694.186l-.88-.508a.51.51 0 0 1-.186-.694l1.016-1.76a.506.506 0 0 1 .694-.186m.386-11.864.981-.263a.51.51 0 0 1 .622.36l.526 1.962a.507.507 0 0 1-.359.622l-.981.263a.51.51 0 0 1-.622-.36l-.526-1.962a.51.51 0 0 1 .359-.622m3.417 12.759.982-.265a.51.51 0 0 1 .623.359l.527 1.964a.507.507 0 0 1-.359.622l-.983.262a.51.51 0 0 1-.622-.36l-.526-1.962a.51.51 0 0 1 .36-.622zm-8.542-2.446-.263-.981a.51.51 0 0 1 .36-.622l1.962-.526a.51.51 0 0 1 .622.359l.263.981a.507.507 0 0 1-.359.622l-1.963.526a.51.51 0 0 1-.622-.359m12.759-3.417-.265-.982a.507.507 0 0 1 .36-.623l1.962-.525a.51.51 0 0 1 .622.359l.265.982a.51.51 0 0 1-.36.622l-1.964.525a.51.51 0 0 1-.622-.36zm2.253 4.447-.508.88a.506.506 0 0 1-.694.186l-1.76-1.016a.51.51 0 0 1-.185-.694l.508-.88a.506.506 0 0 1 .694-.186l1.76 1.016c.243.14.326.45.185.694m-11.438-6.604-.508.88a.506.506 0 0 1-.694.186l-1.76-1.016a.51.51 0 0 1-.186-.694l.508-.88a.506.506 0 0 1 .694-.186l1.76 1.016c.244.14.327.45.186.694M19 29a7.001 7.001 0 0 0 0 14 7 7 0 0 0 6.89-8.234 4.75 4.75 0 1 1-5.656-5.656A7 7 0 0 0 19 29m0 0" style="fill:#fff"/><path d="M8 47h48v1H8zM6.691 7C5.2 7 4 8.226 4 9.75v1C4 9.226 5.2 8 6.691 8H57.31C58.8 8 60 9.226 60 10.75v-1C60 8.226 58.8 7 57.309 7z" style="opacity:.1;fill:#fff"/></svg>