<svg xmlns="http://www.w3.org/2000/svg" width="64" height="64" style="fill:none"><path d="M32.5 14C16.123 14 3.764 28.544 3.002 45.952A1.967 1.962 0 0 0 4.966 48h55.068a1.967 1.962 0 0 0 1.964-2.048C61.236 28.544 48.877 14 32.5 14" style="opacity:.2"/><path d="M32.5 13C16.123 13 3.764 27.544 3.002 44.952A1.967 1.962 0 0 0 4.966 47h55.068a1.967 1.962 0 0 0 1.964-2.048C61.236 27.544 48.877 13 32.5 13" style="fill:#5d6d79"/><g style="opacity:.2;stroke:#000"><path d="M11.5 42.5h-4m50 0h-4m-21-21v-4M43 24.313l2-3.464M50.687 32l3.464-2M22 24.313l-2-3.464M14.313 32l-3.464-2" style="fill:none;stroke:#000;stroke-width:3;stroke-linecap:round" transform="translate(0 1)"/></g><path d="m33.566 49.732-3.329-3.783L45 36Z" style="opacity:.2"/><path d="m33.566 48.732-3.329-3.783L45 35Z" style="fill:#e2900d"/><path d="m45 35-14.764 9.95.553.626 12.315-8.297z" style="fill:#fff;opacity:.1"/><circle cx="32.5" cy="47.5" r="4.5" style="opacity:.2"/><circle cx="32.5" cy="46.5" r="4.5" style="fill:#ed274c"/><path d="M11.5 42.5h-4m50 0h-4m-21-21v-4M43 24.313l2-3.464M50.687 32l3.464-2M22 24.313l-2-3.464M14.313 32l-3.464-2" style="fill:none;stroke:#fff;stroke-width:3;stroke-linecap:round"/><path d="M32.5 13C16.123 13 3.764 27.543 3.002 44.951a1.967 1.962 0 0 0 .035.455C4.032 28.242 16.295 14 32.5 14s28.468 14.242 29.463 31.406a1.967 1.962 0 0 0 .035-.455C61.235 27.543 48.877 13 32.5 13" style="opacity:.1;fill:#fff"/><path d="M32.5 42a4.5 4.5 0 0 0-4.5 4.5 5 5 0 0 0 .033.488A4.5 4.5 0 0 1 32.5 43a4.5 4.5 0 0 1 4.467 4.012A5 5 0 0 0 37 46.5a4.5 4.5 0 0 0-4.5-4.5" style="fill:#fff;opacity:.2"/></svg>