<svg xmlns="http://www.w3.org/2000/svg" width="64" height="64"><circle cx="32" cy="33" r="28" style="opacity:.2"/><circle cx="32" cy="32" r="28" style="fill:#1ca4d4"/><path d="M32 13c-11.046 0-20 8.955-20 20s8.954 20 20 20 20-8.954 20-20a20 20 0 0 0-1.231-6.827l.042-.032-.104-.148A20 20 0 0 0 32 13m0 2a18 18 0 0 1 15.975 9.723L35.496 33.64l-21.292 1.934A18 18 0 0 1 14 33c0-9.941 8.059-18 18-18m17.077 12.379c.604 1.813.916 3.71.923 5.621a18 18 0 0 1-5.215 12.652l-6.867-10.3zm-13.781 9.089 7.347 11.02A18 18 0 0 1 32 51a18 18 0 0 1-17.172-12.668z" style="opacity:.2"/><path d="M32 12c-11.046 0-20 8.955-20 20s8.954 20 20 20 20-8.954 20-20a20 20 0 0 0-1.231-6.827l.042-.032-.104-.148A20 20 0 0 0 32 12m0 2a18 18 0 0 1 15.975 9.723L35.496 32.64l-21.292 1.934A18 18 0 0 1 14 32c0-9.941 8.059-18 18-18m17.077 12.379c.604 1.813.916 3.71.923 5.621a18 18 0 0 1-5.215 12.652l-6.867-10.3zm-13.781 9.089 7.347 11.02A18 18 0 0 1 32 50a18 18 0 0 1-17.172-12.668z" style="fill:#fff"/><circle cx="14" cy="37" r="4" style="opacity:.2"/><circle cx="14" cy="36" r="4" style="fill:#fff"/><circle cx="44" cy="47" r="4" style="opacity:.2"/><circle cx="44" cy="46" r="4" style="fill:#fff"/><circle cx="50" cy="25" r="4" style="opacity:.2"/><circle cx="50" cy="24" r="4" style="fill:#fff"/><path d="m41.596 28.281-6.1 4.36-7.467.677A8 8 0 0 0 28 34a8 8 0 0 0 .283 2.107l7.014-.638 3.908 5.861a8 8 0 0 0 2.33-1.553l-3.617-5.425 5.305-3.791a8 8 0 0 0-1.627-2.28" style="fill:#ff6458;opacity:.5"/><circle cx="36" cy="35" r="4" style="opacity:.2"/><circle cx="36" cy="34" r="4" style="fill:#ff292a"/><path d="M36 30a4 4 0 0 0-4 4 4 4 0 0 0 .031.5A4 4 0 0 1 36 31a4 4 0 0 1 3.969 3.5A4 4 0 0 0 40 34a4 4 0 0 0-4-4" style="fill:#fff;opacity:.2"/><path d="M32 4A28 28 0 0 0 4 32a28 28 0 0 0 .021.586A28 28 0 0 1 32 5a28 28 0 0 1 27.979 27.414L60 32A28 28 0 0 0 32 4" style="fill:#fff;opacity:.2"/></svg>