<svg xmlns="http://www.w3.org/2000/svg" width="64" height="64"><rect width="56" height="56" x="4" y="5" rx="2.8" ry="2.8" style="opacity:.2"/><rect width="56" height="56" x="4" y="4" rx="2.8" ry="2.8" style="fill:#e4e4e4"/><path d="m26 15-8 36h6l8-36zm14 0-8 36h6l8-36z" style="opacity:.1"/><path d="M26 14h6l-8 36h-6zm14 0h6l-8 36h-6z" style="fill:#8e8e8e"/><path d="M6.8 4C5.25 4 4 5.25 4 6.8v1C4 6.25 5.25 5 6.8 5h50.4C58.75 5 60 6.25 60 7.8v-1C60 5.25 58.75 4 57.2 4z" style="fill:#fff;opacity:.2"/></svg>