<svg xmlns="http://www.w3.org/2000/svg" width="64" height="64"><rect width="40" height="53" x="11" y="5" ry="1.72" style="opacity:.2"/><rect width="40" height="53" x="11" y="4" ry="1.72" style="fill:#e4e4e4"/><path d="m45.438 34.146-10.725 6.086A16 11 0 0 0 26 50a16 11 0 0 0 16 11 16 11 0 0 0 16-11 16 11 0 0 0-1.008-3.836l3.145-10.96-6.867 6.99a16 11 0 0 0-11.157-3.192z" style="opacity:.2"/><rect width="11" height="3" x="14" y="37" rx="0" ry="1.5" style="fill:#11bced"/><rect width="34" height="3" x="14" y="46" rx="0" ry="1.5" style="fill:#383838"/><ellipse cx="42" cy="49" rx="16" ry="11" style="fill:#3f3f3f"/><path d="m30.752 54.59-1.39-12.32 16.075-9.123Zm23.787-.874-5.06-8.666 10.659-10.846Z" style="fill:#3f3f3f"/><path d="M34.5 42a2.5 4 0 0 0-2.5 4 2.5 4 0 0 0 2.5 4 2.5 4 0 0 0 2.5-4 2.5 4 0 0 0-2.5-4m14 0a2.5 4 0 0 0-2.5 4 2.5 4 0 0 0 2.5 4 2.5 4 0 0 0 2.5-4 2.5 4 0 0 0-2.5-4" style="opacity:.2"/><ellipse cx="34.5" cy="45" rx="2.5" ry="4" style="fill:#e7e7e5"/><ellipse cx="48.5" cy="45" rx="2.5" ry="4" style="fill:#e7e7e5"/><ellipse cx="35" cy="45" rx="2" ry="2.5" style="fill:#0b3461"/><ellipse cx="49" cy="45" rx="2" ry="2.5" style="fill:#0b3461"/><rect width="34" height="3" x="14" y="19" rx="0" ry="1.5" style="fill:#383838"/><rect width="22" height="3" x="14" y="10" rx="0" ry="1.5" style="fill:#11bced"/><rect width="34" height="3" x="14" y="28" rx="0" ry="1.5" style="fill:#383838"/><path d="M41.072 51a12.103 1.067 0 0 0-12.01 1.066h-.002a12.103 7.084 0 0 0 0 .005A12.103 7.084 0 0 0 41.288 59a12.103 7.084 0 0 0 11.957-6.9 12.103 1.067 0 0 0 .022-.034l-.003-.01a12.103 1.067 0 0 0-.013-.015 12.103 7.084 0 0 0 .013-.125h-.123A12.103 1.067 0 0 0 41.071 51" style="fill:#dcd7cb"/><path d="M36.15 53.519s1 2.316 2.7-.015 1.168-2.268 1.168-2.268c1.523 4.42 2.51 3.355 3.642 2.88l.997-.418s-3.402 5.082-5.22 3.885c-1.82-1.197-3.286-4.064-3.286-4.064z" style="fill:#ad4b59;stroke:#1d1714;stroke-width:.473603px"/><path d="M12.719 4C11.766 4 11 4.766 11 5.719v1C11 5.766 11.766 5 12.719 5H49.28c.954 0 1.72.766 1.72 1.719v-1C51 4.766 50.234 4 49.281 4z" style="fill:#fff;opacity:.2"/></svg>