<svg xmlns="http://www.w3.org/2000/svg" width="64" height="64"><path d="M6.8 5A2.794 2.794 0 0 0 4 7.8v50.4C4 59.751 5.249 61 6.8 61h50.4c1.551 0 2.8-1.249 2.8-2.8V7.8C60 6.249 58.751 5 57.2 5H33.4Z" style="opacity:.2"/><path d="M57.2 60c1.551 0 2.8-1.249 2.8-2.8V32H30.6v28z" style="fill:#3a97e7"/><path d="M6.8 60A2.794 2.794 0 0 1 4 57.2V30.6h28V60Z" style="fill:#8c8c8c"/><path d="M4 32V6.8C4 5.249 5.249 4 6.8 4h26.6v28z" style="fill:#a6a6a6"/><path d="M32 4v28h28V6.8C60 5.249 58.751 4 57.2 4Z" style="fill:#595959"/><path d="m24 14-2.842.016-3.732 8.146L16.139 19H13v3h1.72l1.74 4h1.847zm16 4v3h11v-3ZM16 41v4h-4v3h4v4h3v-4h4v-3h-4v-4zm24 1v3h11v-3zm0 6v3h11v-3z" style="opacity:.2"/><path d="m24 13-2.842.016-3.732 8.146L16.139 18H13v3h1.72l1.74 4h1.847zm16 4v3h11v-3zM16 40v4h-4v3h4v4h3v-4h4v-3h-4v-4zm24 1v3h11v-3zm0 6v3h11v-3z" style="fill:#fff"/><path d="M6.8 4C5.25 4 4 5.25 4 6.8v1C4 6.25 5.25 5 6.8 5h50.4C58.75 5 60 6.25 60 7.8v-1C60 5.25 58.75 4 57.2 4z" style="opacity:.1;fill:#fff"/></svg>