<svg xmlns="http://www.w3.org/2000/svg" width="64" height="64"><path d="M12.364 4h39.272C54.046 4 56 5.924 56 8.296v49.408C56 60.076 54.046 62 51.636 62H12.364C9.954 62 8 60.076 8 57.704V8.296C8 5.924 9.954 4 12.364 4m0 0" style="opacity:.2"/><path d="M12.364 3h39.272C54.046 3 56 4.924 56 7.296v49.408C56 59.076 54.046 61 51.636 61H12.364C9.954 61 8 59.076 8 56.704V7.296C8 4.924 9.954 3 12.364 3m0 0" style="fill:#e4e4e4"/><path d="M22 8v5h3.283l.336-2H30v14.184l-3 .412V28h10v-2.404l-3-.412V11h4.363l.34 2H42V8Zm-4 28v2.418l1.74.205L24.088 56h3.969L32 43.143 35.959 56h3.967l4.318-17.377L46 38.418V36h-7v2.418l1.117.316-2.43 10.961-.087.014L33.574 36h-3.148l-3.994 13.709-.09-.014-2.444-10.96L25 38.417V36Z" style="opacity:.1"/><path d="M42 7v5h-3.297l-.34-2H34v14.184l3 .412V27H27v-2.404l3-.412V10h-4.38l-.337 2H22V7Zm4 30.419-1.756.205L39.926 55h-3.967L32 42.143 28.056 55h-3.968L19.74 37.624 18 37.419V35h7v2.419l-1.101.315 2.444 10.96.088.015L30.426 35h3.148l4.025 13.71.088-.016 2.43-10.96L39 37.419V35h7Z" style="fill:#505050"/><path d="M30 20v12h-6l8 11.15L40 32h-6V20Z" style="opacity:.1"/><path d="M30 19v12h-6l8 11.15L40 31h-6V19Z" style="fill:#21b75c"/><path d="M12.363 3C9.953 3 8 4.924 8 7.297v1C8 5.924 9.953 4 12.363 4h39.274C54.047 4 56 5.924 56 8.297v-1C56 4.924 54.047 3 51.637 3z" style="opacity:.2;fill:#fff"/></svg>