<svg xmlns="http://www.w3.org/2000/svg" width="64" height="64"><path d="M3 20.744v30.349A3.91 3.91 0 0 0 6.929 55h46.9a3.91 3.91 0 0 0 3.928-3.907v-.607A3.9 3.9 0 0 0 58 49.14V20.744Z" style="opacity:.2"/><path d="M3 19.744v30.349A3.91 3.91 0 0 0 6.929 54h46.9a3.91 3.91 0 0 0 3.928-3.907v-.607A3.9 3.9 0 0 0 58 48.14V19.744Z" style="fill:#e4e4e4"/><path d="M6.929 12A3.91 3.91 0 0 0 3 15.907V20h55v-4.093A3.91 3.91 0 0 0 54.071 12Z" style="fill:#565064"/><path d="M6.928 12A3.91 3.91 0 0 0 3 15.906v1A3.91 3.91 0 0 1 6.928 13h47.144A3.91 3.91 0 0 1 58 16.906v-1A3.91 3.91 0 0 0 54.072 12z" style="opacity:.1;fill:#fff"/><path d="M11.309 27.336c6.577 2.232-4.041 9.562 5.546 10.176 5.634.36 5.118 8.179 5.118 8.179" style="fill:none;stroke:#ff4e4a;stroke-width:2.63636351;stroke-linecap:round"/><path d="M54.502 8.004c-.422-.03-.913.121-1.404.68l-29.19 29.15.727.727L21 46.547 22.455 48l7.998-3.63.727.726 29.234-29.198c1.432-1.43-.21-2.816-.21-2.816l-4.487-4.478s-.511-.55-1.215-.6" style="opacity:.1"/><path d="m31.18 44.095-7.272-7.261L53.097 7.683c1.31-1.489 2.62-.08 2.62-.08l4.486 4.48s1.643 1.385.211 2.815z" style="fill:#ff4e4a"/><path d="M-53.23 25.77h10.276v2.055H-53.23zm0-28.77h10.276v2.055H-53.23z" style="fill:#3d3846" transform="rotate(225.037)skewY(-.074)"/><path d="m30.452 43.37-5.816-5.81L21 45.548 22.454 47Z" style="fill:#c02924"/><path d="M35.542 25.215a2.57 5.138 45.062 0 0 5.454-1.815 2.57 5.138 45.062 0 0 1.817-5.447z" style="fill:#3d3846"/></svg>