<svg xmlns="http://www.w3.org/2000/svg" width="64" height="64"><rect width="56" height="39" x="4" y="22" rx="2.8" ry="2.786" style="opacity:.2"/><rect width="40" height="49" x="12" y="4" rx="2.857" ry="2.8" style="fill:#e4e4e4"/><rect width="56" height="39" x="4" y="21" rx="2.8" ry="2.786" style="fill:#3dbe43"/><path d="M10 30a3 3 0 0 0-3 3 3 3 0 0 0 3 3 3 3 0 0 0 3-3 3 3 0 0 0-3-3m9 0a3 3 0 0 0-3 3 3 3 0 0 0 3 3 3 3 0 0 0 3-3 3 3 0 0 0-3-3m9 0a3 3 0 0 0-3 3 3 3 0 0 0 3 3 3 3 0 0 0 3-3 3 3 0 0 0-3-3m9 0a3 3 0 0 0-3 3 3 3 0 0 0 3 3 3 3 0 0 0 3-3 3 3 0 0 0-3-3m9 0a3 3 0 0 0-3 3 3 3 0 0 0 3 3 3 3 0 0 0 3-3 3 3 0 0 0-3-3m9 0a3 3 0 0 0-3 3 3 3 0 0 0 3 3 3 3 0 0 0 3-3 3 3 0 0 0-3-3M14 41a3 3 0 0 0-3 3 3 3 0 0 0 3 3 3 3 0 0 0 3-3 3 3 0 0 0-3-3m9 0a3 3 0 0 0-3 3 3 3 0 0 0 3 3 3 3 0 0 0 3-3 3 3 0 0 0-3-3m9 0a3 3 0 0 0-3 3 3 3 0 0 0 3 3 3 3 0 0 0 3-3 3 3 0 0 0-3-3m9 0a3 3 0 0 0-3 3 3 3 0 0 0 3 3 3 3 0 0 0 3-3 3 3 0 0 0-3-3m9 0a3 3 0 0 0-3 3 3 3 0 0 0 3 3 3 3 0 0 0 3-3 3 3 0 0 0-3-3M12.4 51c-.775 0-1.4.669-1.4 1.5v3c0 .831.625 1.5 1.4 1.5h39.2c.775 0 1.4-.669 1.4-1.5v-3c0-.831-.625-1.5-1.4-1.5Z" style="opacity:.2"/><circle cx="10" cy="32" r="3" style="fill:#fff"/><circle cx="19" cy="32" r="3" style="fill:#fff"/><circle cx="28" cy="32" r="3" style="fill:#fff"/><circle cx="37" cy="32" r="3" style="fill:#fff"/><circle cx="46" cy="32" r="3" style="fill:#fff"/><circle cx="55" cy="32" r="3" style="fill:#fff"/><circle cx="14" cy="43" r="3" style="fill:#fff"/><circle cx="23" cy="43" r="3" style="fill:#fff"/><circle cx="32" cy="43" r="3" style="fill:#fff"/><circle cx="41" cy="43" r="3" style="fill:#fff"/><circle cx="50" cy="43" r="3" style="fill:#fff"/><rect width="42" height="6" x="11" y="50" rx="1.4" ry="1.5" style="fill:#fff"/><path d="M15 6v3h5V6Zm8 0v3h6V6Zm9 0v3h11V6Zm-17 6v3h11v-3zm14 0v3h7v-3zm-14 6v3h7v-3zm10 0v3h7v-3zm10 0v3h11v-3z" style="opacity:.3"/><path d="M14.857 4C13.275 4 12 5.25 12 6.8v1C12 6.25 13.275 5 14.857 5h34.286C50.725 5 52 6.25 52 7.8v-1C52 5.25 50.725 4 49.143 4z" style="fill:#fff;opacity:.2"/><path d="M6.8 21A2.787 2.787 0 0 0 4 23.785v1A2.787 2.787 0 0 1 6.8 22h50.4c1.55 0 2.8 1.242 2.8 2.785v-1A2.787 2.787 0 0 0 57.2 21z" style="fill:#fff;opacity:.1"/></svg>