<svg xmlns="http://www.w3.org/2000/svg" width="64" height="64"><path d="M4 11v44h4v-4h4v4h40v-4h4v4h4V11h-4v4h-4v-4H12v4H8v-4zm4 8h4v4H8Zm44 0h4v4h-4ZM8 27h4v4H8Zm44 0h4v4h-4ZM8 35h4v4H8Zm44 0h4v4h-4ZM8 43h4v4H8Zm44 0h4v4h-4z" style="opacity:.2"/><path d="M4 10v44h4v-4h4v4h40v-4h4v4h4V10h-4v4h-4v-4H12v4H8v-4zm4 8h4v4H8Zm44 0h4v4h-4ZM8 26h4v4H8Zm44 0h4v4h-4ZM8 34h4v4H8Zm44 0h4v4h-4ZM8 42h4v4H8Zm44 0h4v4h-4z" style="fill:#ed5b36"/><path d="M32 48.808 20.33 37h23.34z" style="opacity:.2"/><path d="M32 47.808 20.33 36h23.34z" style="fill:#fff"/><path d="M26 30h12v8.967H26Z" style="fill:#fff"/><path d="M26 30h4v-4h-4z" style="fill:#fff;fill-opacity:.68000034"/><path d="M30 30h4v-4h-4z" style="fill:#fff"/><path d="M34 30h4v-4h-4z" style="fill:#fff;fill-opacity:.87999998"/><path d="M38 26h-4v-4h4z" style="fill:#fff;fill-opacity:.68000034"/><path d="M34 26h-4v-4h4z" style="fill:#fff;fill-opacity:.54000005"/><path d="M30 26h-4v-4h4z" style="fill:#fff;fill-opacity:.87999998"/><path d="M38 22h-4v-4h4z" style="fill:#fff;fill-opacity:.18999999"/><path d="M34 22h-4v-4h4z" style="fill:#fff;fill-opacity:.34000017"/><path d="M30 22h-4v-4h4z" style="fill:#fff;fill-opacity:.06000001"/><path d="M4 10v1h4v-1zm8 0v1h40v-1zm44 0v1h4v-1zM8 14v1h4v-1zm44 0v1h4v-1zM8 22v1h4v-1zm44 0v1h4v-1zM8 30v1h4v-1zm44 0v1h4v-1zM8 38v1h4v-1zm44 0v1h4v-1zM8 46v1h4v-1zm44 0v1h4v-1z" style="opacity:.2;fill:#fff"/></svg>