<svg xmlns="http://www.w3.org/2000/svg" width="64" height="64"><rect width="50" height="52" x="-59" y="-58" rx="2.5" ry="2.6" style="opacity:.2" transform="rotate(90)scale(-1 1)"/><rect width="50" height="52" x="-58" y="-58" rx="2.5" ry="2.6" style="fill:#309b30" transform="rotate(90)scale(-1 1)"/><path d="M9.5 8A2.495 2.495 0 0 0 7 10.5v1C7 10.115 8.115 9 9.5 9h45c1.385 0 2.5 1.115 2.5 2.5v-1C57 9.115 55.885 8 54.5 8Z" style="opacity:.1;fill:#fff"/><path d="M6 38.556v16.943C6 56.884 7.16 58 8.601 58H55.4c1.439 0 2.6-1.116 2.6-2.501V38.556z" style="opacity:.25"/><path d="M4.5 6C3.669 6 3 6.6 3 7.346V41h25v14.621c0 .764.595 1.379 1.334 1.379h5.332c.739 0 1.334-.615 1.334-1.379V41h25V7.346C61 6.6 60.331 6 59.5 6h-3c-.831 0-1.5.6-1.5 1.346V33H36V7.379C36 6.615 35.405 6 34.666 6h-5.332C28.595 6 28 6.615 28 7.379V33H9V7.346C9 6.6 8.331 6 7.5 6Z" style="opacity:.2"/><rect width="6" height="35" x="3" y="5" rx="1.5" ry="1.346" style="fill:#ffa402"/><rect width="6" height="35" x="55" y="5" rx="1.5" ry="1.346" style="fill:#ffa402"/><path d="M32-61h8v58h-8z" style="fill:#ffa402" transform="rotate(90)"/><rect width="8" height="51" x="-36" y="-56" rx="1.333" ry="1.378" style="fill:#ffa402" transform="scale(-1)"/><rect width="26" height="26" x="19" y="25" rx="2.889" ry="2.889" style="opacity:.2"/><path d="M4.5 5C3.669 5 3 5.6 3 6.346v1C3 6.6 3.669 6 4.5 6h3C8.331 6 9 6.6 9 7.346v-1C9 5.6 8.331 5 7.5 5Zm24.834 0C28.595 5 28 5.615 28 6.379v1C28 6.615 28.595 6 29.334 6h5.332C35.405 6 36 6.615 36 7.379v-1C36 5.615 35.405 5 34.666 5ZM56.5 5c-.831 0-1.5.6-1.5 1.346v1C55 6.6 55.669 6 56.5 6h3c.831 0 1.5.6 1.5 1.346v-1C61 5.6 60.331 5 59.5 5ZM9 32v1h19v-1zm27 0v1h19v-1z" style="opacity:.2;fill:#fff"/><rect width="26" height="26" x="19" y="24" rx="2.889" ry="2.889" style="fill:#ffdc2f"/><path d="M27 29h10v8H27zm2 8h6v8h-6z" style="fill:#3f3f3f"/><path d="M21.89 24c-1.6 0-2.89 1.29-2.89 2.89v1c0-1.6 1.29-2.89 2.89-2.89h20.22c1.6 0 2.89 1.29 2.89 2.89v-1c0-1.6-1.29-2.89-2.89-2.89Z" style="opacity:.2;fill:#fff"/></svg>