<svg xmlns="http://www.w3.org/2000/svg" width="64" height="64"><circle cx="32" cy="33" r="28" style="opacity:.2"/><circle cx="32" cy="32" r="28" style="fill:#e4e4e4"/><path d="M32 4A28 28 0 0 0 4 32a28 28 0 0 0 .021.586A28 28 0 0 1 32 5a28 28 0 0 1 27.979 27.414L60 32A28 28 0 0 0 32 4" style="opacity:.2;fill:#fff"/><path d="M15 27a6 6 0 0 0-6 6 6 6 0 0 0 6 6 6 6 0 0 0 6-6 6 6 0 0 0-6-6m17 0a6 6 0 0 0-6 6 6 6 0 0 0 6 6 6 6 0 0 0 6-6 6 6 0 0 0-6-6m17 0a6 6 0 0 0-6 6 6 6 0 0 0 6 6 6 6 0 0 0 6-6 6 6 0 0 0-6-6" style="opacity:.2"/><circle cx="15" cy="32" r="6" style="fill:#3f3f3f"/><circle cx="49" cy="32" r="6" style="fill:#ccc"/><path d="M27.757 36.243a6 6 0 0 0 8.486 0 6 6 0 0 0 0-8.486z" style="fill:#ccc"/><path d="m27.757 36.243 8.486-8.486a6 6 0 0 0-8.486 0 6 6 0 0 0 0 8.486" style="fill:#3f3f3f"/><path d="M49 26a6 6 0 0 0-6 6q.005.243.027.484A6 6 0 0 1 49 27a6 6 0 0 1 5.977 5.514A6 6 0 0 0 49 26" style="opacity:.2;fill:#fff"/><path d="M15 26a6 6 0 0 0-6 6 6 6 0 0 0 .027.484A6 6 0 0 1 15 27a6 6 0 0 1 5.977 5.514A6 6 0 0 0 15 26m17 0a6 6 0 0 0-6 6q.005.243.027.484A6 6 0 0 1 32 27a6 6 0 0 1 5.977 5.514A6 6 0 0 0 32 26" style="opacity:.1;fill:#fff"/><path d="m7 61-3-3L60 6l-3 6Z" style="opacity:.2"/><path d="m7 60-3-3L60 5l-3 6Z" style="fill:#795548"/><path d="M60 5 4 57l.518.518 54.548-50.65z" style="fill:#fff;opacity:.1"/></svg>