<svg xmlns="http://www.w3.org/2000/svg" width="64" height="64"><circle cx="32" cy="33" r="28" style="opacity:.2"/><circle cx="32" cy="32" r="28" style="fill:#305b79"/><circle cx="34" cy="31" r="26" style="opacity:.2"/><circle cx="34" cy="30" r="26" style="fill:#50b6ff"/><path d="M36 4c5.116 0 15.816.006 21.02.009a2.97 2.97 0 0 1 2.97 2.971c.004 5.305.01 16.293.01 21.02 0 13.447-11.06 24.311-24.579 23.993-12.731-.3-23.115-10.683-23.414-23.414C11.689 15.059 22.553 4 36 4" style="fill:#2b84b7"/><path d="M32 4A28 28 0 0 0 4 32a28 28 0 0 0 .033.482A28 28 0 0 1 32 5a28 28 0 0 1 2.059.086A24 24 0 0 1 36 5c5.116 0 15.816.005 21.02.008a2.97 2.97 0 0 1 2.968 2.972v-1a2.97 2.97 0 0 0-2.968-2.972C51.816 4.005 41.116 4 36 4c-.654 0-1.3.035-1.941.086A28 28 0 0 0 32 4m27.965 27.156q-.02.395-.05.785a28 28 0 0 1 .024.606l.026-.39.02.466A28 28 0 0 0 60 32a28 28 0 0 0-.035-.844" style="opacity:.1;fill:#fff"/></svg>