<svg xmlns="http://www.w3.org/2000/svg" width="64" height="64"><rect width="58" height="58" x="-62" y="-61" rx="2.9" ry="2.9" style="opacity:.2" transform="rotate(90)scale(-1 1)"/><rect width="58" height="58" x="-61" y="-61" rx="2.9" ry="2.9" style="fill:#ff822e" transform="rotate(90)scale(-1 1)"/><path d="M29 20v36h6V20Z" style="opacity:.2"/><path d="M31.998 10a1.857 1.765 0 0 0-1.56.811l-11.144 16.47A1.857 1.765 0 0 0 20.857 30h22.286a1.857 1.765 0 0 0 1.563-2.718l-11.144-16.47A1.857 1.765 0 0 0 31.998 10" style="opacity:.2;fill-rule:evenodd"/><path d="M29 19v36h6V19Z" style="fill:#fff"/><path d="M31.998 9a1.857 1.765 0 0 0-1.56.811l-11.144 16.47A1.857 1.765 0 0 0 20.857 29h22.286a1.857 1.765 0 0 0 1.563-2.718L33.562 9.812A1.857 1.765 0 0 0 31.998 9" style="fill:#fff;fill-rule:evenodd"/><path d="M5.898 3A2.89 2.89 0 0 0 3 5.898v1A2.89 2.89 0 0 1 5.898 4h52.204A2.89 2.89 0 0 1 61 6.898v-1A2.89 2.89 0 0 0 58.102 3z" style="opacity:.2;fill:#fff"/></svg>