<svg xmlns="http://www.w3.org/2000/svg" width="64" height="64"><path d="M23.518 4.588c-10.413 0-18.853 8.65-18.854 19.3 0 10.652 8.44 19.303 18.854 19.303 10.412 0 18.853-8.65 18.853-19.302S33.93 4.588 23.518 4.588m.853 11.303a7.877 7.877 0 0 1 7.883 7.882 7.877 7.877 0 0 1-7.883 7.881 7.876 7.876 0 0 1-7.88-7.88 7.877 7.877 0 0 1 7.88-7.883" style="fill:#6b79da" transform="translate(-1.6 -1.599)scale(1.39998)"/><circle cx="32" cy="33" r="10" style="opacity:.2;fill:none;stroke:#000;stroke-width:3.99993"/><circle cx="32" cy="32.001" r="10" style="fill:none;stroke:#ffd907;stroke-width:3.99993"/><path d="M32.218 5.006q-.732.014-1.486.086c-13.011 1.222-17.944 7.39-19.111 9.165l-5.649-4.08-1.529 14.934-1.53 14.933 13.699-6.143 13.697-6.142-8.754-6.325c.162-2.141 1.569-11.349 13.87-11.024 12.307.324 19.76 10.96 19.76 10.96S47.359 4.672 32.218 5.006" style="opacity:.1"/><path d="M32.218 4.006q-.732.015-1.486.086C17.72 5.315 12.788 11.483 11.62 13.257l-5.649-4.08-1.529 14.934-1.53 14.933 13.699-6.143 13.697-6.141-8.754-6.326c.162-2.141 1.569-11.349 13.87-11.024 12.307.324 19.76 10.96 19.76 10.96S47.359 3.673 32.218 4.006" style="fill:#5a20a4"/><path d="m61.087 26.523-13.552 6.454-13.553 6.454 7.163 4.931c-.054 1.355-.885 11.57-13.884 11.227-12.308-.325-19.758-10.96-19.758-10.96s8.337 17.794 24.453 16.28c14.532-1.366 18.98-8.868 19.355-9.548l7.402 5.093 1.188-14.965z" style="opacity:.2"/><path d="m61.087 25.523-13.552 6.454-13.553 6.454 7.163 4.931c-.054 1.355-.885 11.57-13.884 11.227-12.308-.325-19.758-10.96-19.758-10.96s8.337 17.794 24.453 16.28c14.532-1.366 18.98-8.868 19.355-9.548l7.402 5.093 1.188-14.965z" style="fill:#ff8020"/><path d="M32.219 4.006q-.732.014-1.487.086c-13.01 1.222-17.944 7.392-19.11 9.166l-5.65-4.08L4.444 24.11l-1.53 14.934.107-.049L4.444 25.11l1.53-14.933 5.648 4.08c1.167-1.774 6.1-7.944 19.111-9.166q.755-.07 1.487-.086c10.913-.24 18.002 8.346 21.123 13.172 1.194 1.282 1.842 2.191 1.842 2.191S47.36 3.673 32.219 4.006m-10.55 16.512c-.054.356-.097.693-.114.916l7.9 5.709.854-.383z" style="fill:#fff;opacity:.1"/><path d="m61.088 25.523-13.553 6.454-13.553 6.455.86.591 12.693-6.046 13.47-6.414zM7.504 43.63s.628 1.32 1.836 3.187c2.914 3.13 9.185 8.542 17.922 8.772 12.999.343 13.828-9.872 13.883-11.227l-.086-.06c-.39 2.896-2.486 10.585-13.797 10.287-12.308-.325-19.758-10.96-19.758-10.96" style="fill:#fff;opacity:.2"/></svg>