<svg xmlns="http://www.w3.org/2000/svg" width="64" height="64"><path d="M32 5C16.537 5 4 17.076 4 31.972a26.2 26.2 0 0 0 3.56 13.14L5.41 53.34l-.283 1.111c-.56 2.198 1.45 4.976 3.73 4.495l10.668-2.837A28.9 28.9 0 0 0 32 58.945c15.464 0 28-12.076 28-26.973S47.464 5 32 5" style="opacity:.2"/><path d="M32 4C16.537 4 4 16.076 4 30.972a26.2 26.2 0 0 0 3.56 13.14L5.41 52.34l-.283 1.111c-.56 2.198 1.45 4.976 3.73 4.495l10.668-2.837A28.9 28.9 0 0 0 32 57.945c15.464 0 28-12.076 28-26.973S47.464 4 32 4" style="fill:#e4e4e4"/><path d="M32 9c-7.606.003-14.763 3.462-19.286 9.323l20.405.98-25.06 11.181Q8.003 31.241 8 32c0 12.703 10.745 23 24 23 8.637-.002 16.606-4.45 20.869-11.646l-20.366-.979L56 31.892C55.938 19.232 45.211 9 32 9" style="opacity:.1"/><path d="M32 8c-7.606.002-14.763 3.462-19.286 9.323l20.405.98-25.06 11.181Q8.003 30.241 8 31c0 12.703 10.745 23 24 23 8.637-.002 16.606-4.45 20.869-11.646l-20.366-.979L56 30.892C55.938 18.232 45.211 8 32 8" style="fill:#2bae39"/><path d="M32 4C16.536 4 4 16.076 4 30.973c0 .147.013.292.016.44C4.326 16.774 16.73 5 32 5c15.29 0 27.709 11.808 27.986 26.473.003-.167.014-.333.014-.5C60 16.076 47.464 4 32 4M7.385 44.785 5.41 52.34l-.283 1.111c-.107.42-.12.86-.055 1.295.015-.1.03-.197.055-.295l.283-1.111 2.15-8.229c-.062-.107-.115-.218-.175-.326" style="fill:#fff;opacity:.2"/></svg>