<svg xmlns="http://www.w3.org/2000/svg" width="64" height="64"><rect width="48" height="52" x="8" y="7" rx="5" ry="5" style="opacity:.2"/><rect width="48" height="52" x="8" y="6" rx="5" ry="5" style="fill:#e0995e"/><path d="M13 12h37v42H13z" style="opacity:.2"/><path d="M13 11h37v42H13z" style="fill:#fff"/><path d="M13 6c-2.77 0-5 2.23-5 5v1c0-2.77 2.23-5 5-5h38c2.77 0 5 2.23 5 5v-1c0-2.77-2.23-5-5-5z" style="opacity:.2;fill:#fff"/><path d="M21 4v6c0 2.216 1.784 4 4 4h13c2.216 0 4-1.784 4-4V4Z" style="opacity:.2"/><path d="M21 3v6c0 2.216 1.784 4 4 4h13c2.216 0 4-1.784 4-4V3z" style="fill:#4f5d73"/><path d="M18 22h27v2H18zm0 5h27v2H18zm0 5h27v2H18zm0 5h27v2H18zm0 5h27v2H18z" style="fill:#e0e0d1"/><path d="M21 3v1h21V3z" style="opacity:.1;fill:#fff"/></svg>