<svg xmlns="http://www.w3.org/2000/svg" xmlns:xlink="http://www.w3.org/1999/xlink" xml:space="preserve" width="64" height="64"><defs><filter id="f" width="1.202" height="1.225" x="-.101" y="-.113" style="color-interpolation-filters:sRGB"><feGaussianBlur stdDeviation="2.124"/></filter><filter id="g" width="1.258" height="1.315" x="-.129" y="-.157" style="color-interpolation-filters:sRGB"><feGaussianBlur stdDeviation="2.124"/></filter><filter id="h" width="1.277" height="1.339" x="-.139" y="-.17" style="color-interpolation-filters:sRGB"><feGaussianBlur stdDeviation="2.307"/></filter><filter id="j" width="1.223" height="1.318" x="-.109" y="-.16" style="color-interpolation-filters:sRGB"><feGaussianBlur stdDeviation="2.124"/></filter><filter id="l" width="1.223" height="1.318" x="-.114" y="-.16" style="color-interpolation-filters:sRGB"><feGaussianBlur stdDeviation="2.124"/></filter><radialGradient xlink:href="#a" id="e" cx="22.77" cy="63.622" r="27.999" fx="22.77" fy="63.622" gradientTransform="rotate(-45 -59.17 160.23)scale(2.94126 2.64699)" gradientUnits="userSpaceOnUse"/><radialGradient xlink:href="#b" id="i" cx="40.687" cy="56.745" r="25.999" fx="40.687" fy="56.745" gradientTransform="rotate(195 87.877 105.326)scale(4.6602 3.22629)" gradientUnits="userSpaceOnUse"/><radialGradient xlink:href="#c" id="k" cx="28.255" cy="55.917" r="25.999" fx="28.255" fy="55.917" gradientTransform="rotate(240 75.145 146.687)scale(4.40846 3.05201)" gradientUnits="userSpaceOnUse"/><radialGradient xlink:href="#d" id="m" cx="36.574" cy="60.795" r="10.521" fx="36.574" fy="60.795" gradientTransform="rotate(-15 -417.9 422.696)scale(3.13762)" gradientUnits="userSpaceOnUse"/><linearGradient id="d"><stop offset="0" style="stop-color:#f48136;stop-opacity:1"/><stop offset="1" style="stop-color:#f43639;stop-opacity:1"/></linearGradient><linearGradient id="a"><stop offset="0" style="stop-color:#b400e5;stop-opacity:1"/><stop offset="1" style="stop-color:#00c7e9;stop-opacity:1"/></linearGradient><linearGradient id="b"><stop offset="0" style="stop-color:#00adff;stop-opacity:1"/><stop offset="1" style="stop-color:#ad00ff;stop-opacity:1"/></linearGradient><linearGradient id="c"><stop offset="0" style="stop-color:#00acff;stop-opacity:1"/><stop offset="1" style="stop-color:#bf4dff;stop-opacity:1"/></linearGradient></defs><path d="M7.489 23.546c-.053.034-.1.074-.15.112l-.03.023v.004a2.55 2.55 0 0 0-.989 2.013v22.377c0 3.668 2.893 3.668 3.669 3.668H54.01s3.669 0 3.669-3.668V25.698c0-.84-.407-1.578-1.029-2.046l.011-.014-24.66-18.116S7.339 23.661 7.489 23.548z" style="fill:url(#e);stroke-width:.917163"/><path d="M7.489 23.44c-.053.034-.1.074-.15.112l-.03.023v.004a2.55 2.55 0 0 0-.989 2.013V47.97c0 3.668 2.893 3.668 3.669 3.668H54.01s3.669 0 3.669-3.668V25.592c0-.84-.407-1.578-1.029-2.046l.011-.015-24.66-18.115S7.339 23.555 7.489 23.442z" style="fill:none;stroke:#000;stroke-width:.2;stroke-dasharray:none;stroke-opacity:1;filter:url(#f)"/><rect width="40.354" height="33.017" x="11.823" y="10.916" rx="2.751" ry="2.75" style="fill:none;stroke:#000;stroke-width:.2;stroke-dasharray:none;stroke-opacity:1;filter:url(#g)"/><path d="M14.607 10.953A2.74 2.74 0 0 0 11.86 13.7v27.467a2.74 2.74 0 0 0 2.748 2.744h34.786a2.74 2.74 0 0 0 2.746-2.744V13.699a2.74 2.74 0 0 0-2.746-2.746zm21.504 4.381c1.854 0 3.656.74 4.797 1.713-.682.034-1.501.343-2.056.685 1.028.117 1.814.346 2.4 1.028a4 4 0 0 0-1.373 0c.525.795.935 1.772 1.225 2.795-.003-.008-.006-.03-.008-.035l.037.119c.132.44.242.967.326 1.543a12 12 0 0 1 .135 1.746c0 5.534-4.113 9.595-9.596 9.595s-9.594-4.113-9.594-9.595c0-.58.072-1.364.12-1.713.013-.106.163-1.023.273-1.3.065-.186.132-.327.238-.395a.1.1 0 0 1 .055-.018c.103 0 .188.182.205.244.14.548.244 1.299.48 1.813 0-1.258.466-2.414 1.11-3.315.428-.603 1.237-1.096 1.422-2.703 0 0 .024-.152.209-.152 1.322.45 1.37 3.113 1.37 5.14a4 4 0 0 0-.321.633 5 5 0 0 0-.118.315q-.038.112-.072.228-.048.18-.082.363c-.012.062-.028.124-.037.186a5 5 0 0 0-.053.566l-.002.108q0 .398.045.767c.052.432.156.83.293 1.205.02.053.032.11.053.16.04.101.094.195.14.292.05.103.093.21.149.308l.002.002q.164.285.361.543c.116.15.245.295.377.432q.026.03.053.06l.004.002.058.053q.204.202.43.383l.002.002h.002c1.387 1.091 3.383 1.617 5.572 1.617-.257-.03-1.827-.09-2.91-1.371-.1-.117-.174-.215-.174-.342 0-.202.188-.344.342-.344 2.399 0 4.799-1.713 4.799-3.77 0-.112-.016-.223-.023-.335-.008-.104-.008-.21-.022-.313v-.004a4.3 4.3 0 0 0-.338-1.199l-.002-.004a4 4 0 0 0-.139-.275v-.002q-.075-.136-.162-.266a4 4 0 0 0-.343-.443 4.5 4.5 0 0 0-.862-.75 5 5 0 0 0-1.054-.537A5.4 5.4 0 0 0 32 20.475q-.244 0-.48.02a5.3 5.3 0 0 0-1.749.439q-.197.088-.382.193l-.002.002a5 5 0 0 0-.356.223l-.004.002q-.172.12-.33.254l-.002.002v-.008c-.106-.281-.123-.443-.123-.785 0-.686.527-1.881 1.713-2.399.528-1.957 3.26-3.084 5.826-3.084m-3.209 2.398-.064.002a1 1 0 0 0-.27.057c-.497.182-.572.568-.572.568s.269.566.879.354h.004c.534-.185.486-.768.486-.768s-.154-.202-.463-.213" style="fill:#ebebeb;stroke-width:.915474"/><path d="M14.607 10.954a2.74 2.74 0 0 0-2.747 2.745v27.467a2.74 2.74 0 0 0 2.747 2.743h34.786a2.74 2.74 0 0 0 2.746-2.743V13.7a2.74 2.74 0 0 0-2.746-2.745z" style="fill:none;stroke:#000;stroke-width:.1;stroke-dasharray:none;stroke-opacity:1;filter:url(#h)"/><path d="m6.32 25.697 47.691 33.017H9.99c-1.834 0-3.669-.907-3.669-3.628z" style="fill:url(#i);stroke-width:.917163"/><path d="m6.32 25.591 47.691 33.017H9.99c-1.834 0-3.669-.907-3.669-3.628z" style="fill:none;stroke:#000;stroke-width:.2;stroke-dasharray:none;stroke-opacity:1;filter:url(#j)"/><path d="M54.011 58.714c3.669 0 3.669-3.628 3.669-3.628V25.697L9.989 58.714Z" style="fill:url(#k);stroke-width:.917163"/><path d="M54.011 58.608c3.669 0 3.669-3.628 3.669-3.628V25.59L9.989 58.608Z" style="fill:none;stroke:#000;stroke-width:.2;stroke-dasharray:none;stroke-opacity:1;filter:url(#l)"/><path d="M40.404-22.312a20.426 20.426 0 1 1 40.153-7.522 20.426 20.426 0 1 1-40.153 7.522" style="fill:none"/><circle cx="51.479" cy="51.479" r="10.521" style="fill:url(#m);stroke-width:.70137"/><path d="M53.878 57.09a2.81 2.81 0 0 1-2.427 1.403 2.81 2.81 0 0 1-2.426-1.403zM51.48 43.764c.55 0 1.001.437 1.001.972 0 .029 0 .067-.01.097a4.8 4.8 0 0 1 3.918 4.758v2.446a4.4 4.4 66.355 0 0 1.414 3.23l.69.636v.486H44.466v-.486l.69-.637a4.4 4.4 113.645 0 0 1.414-3.229v-2.446a4.8 4.8 0 0 1 3.918-4.758c-.01-.03-.01-.068-.01-.097 0-.535.45-.972 1.001-.972" style="fill:#fff;stroke-width:.70137"/></svg>