<svg xmlns="http://www.w3.org/2000/svg" width="64" height="64"><path d="M4.043 31.848A16 16 0 0 0 4 33a16 16 0 0 0 16 16 16 16 0 0 0 14.821-10h9.18v-2h-9.18a16 16 0 0 1-14.82 10A16 16 0 0 1 4.044 31.848ZM54 37v2h6v-2zm-10 6v2h10v-2z" style="opacity:.2"/><path d="M20 16A16 16 0 0 0 4 32a16 16 0 0 0 16 16 16 16 0 0 0 14.82-10H44v6h10v-6h6V26H34.824A16 16 0 0 0 20 16" style="fill:#0d86cb"/><circle cx="20" cy="33" r="6" style="opacity:.2"/><circle cx="20" cy="32" r="6" style="fill:#f9f9f9"/><path d="M20 16A16 16 0 0 0 4.043 30.848a16 16 0 0 1-.022-.43A16 16 0 0 0 4 31a16 16 0 0 0 .043.848A16 16 0 0 1 20 17a16 16 0 0 1 14.824 10H60v-1H34.824A16 16 0 0 0 20 16" style="opacity:.2;fill:#fff"/></svg>