<svg xmlns="http://www.w3.org/2000/svg" xmlns:xlink="http://www.w3.org/1999/xlink" width="64" height="64"><defs><radialGradient xlink:href="#a" id="c" cx="32.436" cy="42.277" r="19.746" fx="32.436" fy="42.277" gradientTransform="matrix(1.90584 0 0 1.46122 -26.727 -21.453)" gradientUnits="userSpaceOnUse"/><radialGradient xlink:href="#b" id="d" cx="41.361" cy="23.003" r="12.067" fx="41.361" fy="23.003" gradientTransform="rotate(30 239.697 -100.347)scale(3.13357 4.59262)" gradientUnits="userSpaceOnUse"/><linearGradient id="b"><stop offset="0" style="stop-color:#ff2e38;stop-opacity:1"/><stop offset="1" style="stop-color:#935e42;stop-opacity:1"/></linearGradient><linearGradient id="a"><stop offset="0" style="stop-color:#fed24c;stop-opacity:1"/><stop offset="1" style="stop-color:#feab4c;stop-opacity:1"/></linearGradient><filter id="e" width="1.197" height="1.157" x="-.099" y="-.078" style="color-interpolation-filters:sRGB"><feGaussianBlur stdDeviation="1.791"/></filter></defs><path d="M10.385 41.932c-.588 1.79 4.159 9.814 7.527 11.008l4.375-.041-2.594 1.802c-.06.714.561 1.13 3.633 2.931 2.733 1.543 5.194-1.506 5.194-1.506s-1.325 2.311-1.243 3.125c1.347.09 2.647-.008 3.97-.224l1.557-.79-.521.825 2.822.036c8.642-1.146 12.168-12.155 14.722-19.16-5.517 0-14.842-11.853-19.705-10.876-4.53.911-11.835 11.003-19.737 12.87" style="fill:url(#c)"/><path d="m38.337 25.534-1.797-.907c-1.039-.525-2.506-.244-3.272.633-1.31 1.5-3.185 3.677-3.974 4.732.215 1.068 1.365 1.352 2.145 1.91 2.602 1.595 5.243 3.154 7.535 5.191 1.92 1.56 4.12 3.122 6.68 3.209 1.358.12 2.706.41 4.072.386.273-1.612 1.273-3.93 2.04-5.548.498-1.051.114-2.34-.906-2.9l-4.87-2.68a2.44 2.44 71.373 0 1-1.053-3.126l8.356-18.829a1.58 1.58 67.814 0 0-.861-2.112l-.13-.051a1.763 1.763 158.686 0 0-2.241.874l-8.755 18.21a2.196 2.196 161.235 0 1-2.97 1.008" style="fill:url(#d)" transform="translate(.274 -.748)"/><path d="M51.912 4.543a1.86 1.86 0 0 0-1.685 1.055l-8.754 18.209a2.095 2.095 0 0 1-2.834.963l-1.797-.909c-1.085-.548-2.591-.26-3.39.657-1.29 1.478-3.119 3.6-3.934 4.68-2.318.787-5.2 3.511-8.465 6.263-3.28 2.765-6.938 5.554-10.71 6.445l-.054.014-.016.053c-.166.506.04 1.346.457 2.377.419 1.03 1.064 2.243 1.834 3.437 1.54 2.388 3.56 4.705 5.297 5.32l.018.006 4.068-.037-2.367 1.643-.004.047a.93.93 0 0 0 .125.564c.108.185.284.367.555.58.542.427 1.465.98 3.002 1.881h.002v.002c1.402.792 2.748.404 3.722-.176.734-.436.983-.775 1.204-1.02-.125.228-.215.375-.424.817-.162.342-.321.71-.436 1.047s-.19.638-.166.873l.01.084.084.006c1.356.09 2.663-.008 3.99-.225l.016-.004 1.25-.633-.424.67 3.008.04h.008c4.36-.579 7.427-3.646 9.716-7.43 2.276-3.762 3.791-8.237 5.063-11.729h.187l.014-.082c.27-1.588 1.266-3.909 2.031-5.523.52-1.098.12-2.445-.947-3.031l-4.87-2.678a2.337 2.337 0 0 1-1.01-2.998L53.64 6.97a1.683 1.683 0 0 0-.916-2.244v-.002l-.13-.051v.002a1.9 1.9 0 0 0-.683-.133m0 .2q.316.001.61.118l.128.051a1.48 1.48 0 0 1 .807 1.977l-8.355 18.83a2.54 2.54 0 0 0 1.1 3.256l4.868 2.677c.972.535 1.34 1.765.864 2.77-.756 1.594-1.72 3.855-2.016 5.486q-.145 0-.29-.004a12 12 0 0 1-.706-.033h-.004c-.672-.052-1.344-.149-2.02-.234q-.488-.064-.978-.11h-.006c-2.521-.085-4.703-1.63-6.62-3.187l.003.004a30 30 0 0 0-2.713-2.123q-.19-.133-.383-.262a65 65 0 0 0-2.496-1.617q-.975-.603-1.951-1.197l-.006-.004c-.402-.286-.882-.494-1.281-.76a3 3 0 0 1-.274-.207 1.55 1.55 0 0 1-.521-.844c.798-1.06 2.634-3.195 3.93-4.68.73-.836 2.158-1.11 3.15-.609l1.797.908a2.297 2.297 0 0 0 3.103-1.056l8.754-18.21a1.66 1.66 0 0 1 1.506-.94m-22.43 24.704c.137.503.48.838.873 1.1.212.14.436.263.657.385.22.121.436.241.625.377l.004.002.002.002c2.603 1.595 5.239 3.15 7.521 5.18l.002.001.002.002c.961.782 1.996 1.567 3.115 2.168q.419.227.854.414c.87.373 1.792.615 2.765.649 1.246.11 2.495.364 3.766.384-1.269 3.487-2.775 7.913-5.022 11.627-2.273 3.758-5.29 6.767-9.572 7.334l-2.629-.035.621-.978-1.869.943a17.3 17.3 0 0 1-3.818.217c.001-.176.04-.408.137-.694.11-.325.266-.687.425-1.025.32-.675.65-1.25.65-1.25l-.165-.113s-.605.75-1.545 1.308c-.94.559-2.192.924-3.522.174h-.002c-1.534-.9-2.455-1.455-2.976-1.865-.26-.205-.42-.375-.508-.525a.7.7 0 0 1-.09-.409l2.81-1.95-4.673.044c-1.63-.583-3.661-2.87-5.188-5.236-.764-1.185-1.406-2.39-1.818-3.405-.405-.997-.558-1.802-.443-2.199 3.804-.926 7.448-3.711 10.71-6.46 3.228-2.72 6.083-5.368 8.301-6.167" style="color:#000;fill:#000;-inkscape-stroke:none;filter:url(#e)"/></svg>