<svg xmlns="http://www.w3.org/2000/svg" width="64" height="64"><path d="M4 21.9v33.3C4 56.75 5.25 58 6.8 58h49.4c1.55 0 2.754-1.25 2.8-2.8V21.9Z" style="opacity:.2"/><path d="M4 20.9v33.3C4 55.75 5.25 57 6.8 57h49.4c1.55 0 2.8-1.25 2.8-2.8V20.9Z" style="fill:#e4e4e4"/><path d="M59 22V10.8C59 9.249 57.752 8 56.2 8H6.8A2.794 2.794 0 0 0 4 10.8V22Z" style="opacity:.1"/><path d="M59 21V9.8C59 8.249 57.752 7 56.2 7H6.8A2.794 2.794 0 0 0 4 9.8V21Z" style="fill:#31b7cf"/><path d="M33 24h8v8h-8zm11 0h8v8h-8zm-22 0h8v8h-8zm-11 0h8v8h-8z" style="opacity:.2"/><circle cx="14.5" cy="14.5" r="2.5" style="opacity:.2"/><circle cx="14.5" cy="13.5" r="2.5" style="fill:#fff"/><circle cx="48.5" cy="14.5" r="2.5" style="opacity:.2"/><circle cx="48.5" cy="13.5" r="2.5" style="fill:#fff"/><path d="M44 35h8v8h-8zm-22 0h8v8h-8zm-11 0h8v8h-8zm22 11h8v8h-8zm11 0h8v8h-8zm-22 0h8v8h-8zm-11 0h8v8h-8z" style="opacity:.2"/><path d="M6.8 7C5.25 7 4 8.25 4 9.8v1C4 9.25 5.25 8 6.8 8h49.401A2.794 2.794 0 0 1 59 10.8v-1C59 8.25 57.752 7 56.201 7Z" style="opacity:.2;fill:#fff"/><path d="M33 35h8v8h-8z" style="opacity:.2"/></svg>