<svg xmlns="http://www.w3.org/2000/svg" width="64" height="64"><rect width="8" height="40" x="51" y="13" rx="1.333" ry="1.429" style="opacity:.2"/><rect width="8" height="40" x="29" y="13" rx="1.333" ry="1.429" style="opacity:.2"/><rect width="8" height="40" x="51" y="12" rx="1.333" ry="1.429" style="fill:#c2352a"/><rect width="8" height="40" x="29" y="12" rx="1.333" ry="1.429" style="fill:#c2352a"/><rect width="8" height="40" x="5" y="12" rx="1.333" ry="1.429" style="fill:#c2352a"/><path d="M6.43 13C5.638 13 5 13.593 5 14.332v5.336C5 20.407 5.638 21 6.43 21h17.14c.792 0 1.43-.593 1.43-1.332v-5.336c0-.739-.638-1.332-1.43-1.332zm24.523 0a1.953 1.621 0 0 0-1.691 2.43l6.523 9.379 6.524 9.378A1.953 1.621 0 0 0 43.91 35a1.953 1.621 0 0 0 1.781-.812l6.524-9.38 6.523-9.378A1.953 1.621 0 0 0 57.047 13zM6.43 45C5.638 45 5 45.593 5 46.332v5.336C5 52.407 5.638 53 6.43 53h17.14c.792 0 1.43-.593 1.43-1.332v-5.336c0-.739-.638-1.332-1.43-1.332z" style="opacity:.2"/><rect width="8" height="20" x="12" y="-25" rx="1.333" ry="1.429" style="fill:#d8564d" transform="rotate(90)"/><rect width="8" height="20" x="44" y="-25" rx="1.333" ry="1.429" style="fill:#d8564d" transform="rotate(90)"/><path d="M30.953 12a1.953 1.621 0 0 0-1.691 2.432l6.525 9.378 6.523 9.378a1.953 1.621 0 0 0 1.6.81 1.953 1.621 0 0 0 1.782-.81l6.523-9.378 6.523-9.378A1.953 1.621 0 0 0 57.048 12z" style="fill:#d8564d"/><path d="M6.43 12C5.638 12 5 12.593 5 13.332v1C5 13.593 5.638 13 6.43 13h17.14c.792 0 1.43.593 1.43 1.332v-1c0-.739-.638-1.332-1.43-1.332zm24.523 0a1.953 1.621 0 0 0-1.853 2.121A1.953 1.621 0 0 1 30.953 13h26.094a1.953 1.621 0 0 1 1.855 1.123A1.953 1.621 0 0 0 57.047 12zM6.43 44C5.638 44 5 44.593 5 45.332v1C5 45.593 5.638 45 6.43 45h17.14c.792 0 1.43.593 1.43 1.332v-1c0-.739-.638-1.332-1.43-1.332z" style="opacity:.2;fill:#fff"/></svg>