<svg xmlns="http://www.w3.org/2000/svg" width="64" height="64"><rect width="56" height="56" x="4" y="5" rx="16.8" ry="16.8" style="opacity:.2"/><rect width="56" height="56" x="4" y="4" rx="16.8" ry="16.8" style="fill:#2f9a2f"/><path d="M43 44.137q-1.836.923-3.828 1.393a18 18 0 0 1-4.158.47q-6.46 0-10.238-3.491Q21 39 21 33.009q0-6.01 3.776-9.5 3.777-3.51 10.238-3.509 2.166 0 4.158.47T43 21.863v5.397q-1.854-1.225-3.655-1.796c-1.201-.38-2.225-.57-3.554-.57q-3.569 0-5.612 2.215c-1.363 1.477-2.044 3.303-2.044 5.9 0 2.584.681 4.405 2.044 5.882q2.044 2.215 5.612 2.215c1.329 0 2.353-.19 3.554-.57q1.801-.571 3.655-1.796z" style="opacity:.2"/><path d="M43 43.137q-1.836.923-3.828 1.393a18 18 0 0 1-4.158.47q-6.46 0-10.238-3.491Q21 38 21 32.009q0-6.01 3.776-9.5 3.777-3.51 10.238-3.509 2.166 0 4.158.47T43 20.863v5.397q-1.854-1.225-3.655-1.796c-1.201-.38-2.225-.57-3.554-.57q-3.569 0-5.612 2.215c-1.363 1.477-2.044 3.303-2.044 5.9 0 2.584.681 4.405 2.044 5.882q2.044 2.215 5.612 2.215c1.329 0 2.353-.19 3.554-.57q1.801-.571 3.655-1.796z" style="fill:#fff"/><path d="M20.8 4C11.495 4 4 11.494 4 20.8v1C4 12.495 11.494 5 20.8 5h22.4C52.505 5 60 12.494 60 21.8v-1C60 11.495 52.506 4 43.2 4z" style="fill:#fff;opacity:.2"/></svg>