<svg xmlns="http://www.w3.org/2000/svg" width="64" height="64"><path d="M58 40v2H6v-2zm0 6v2H6v-2zm0 6v2H6v-2zm0-30v2H6v-2zm0 6v2H6v-2zm0 6v2H6v-2zm0-18v2H6v-2zm0-6v2H6v-2z" style="fill:#8e8e8e"/><path d="M24 58h-2V6h2zm-6 0h-2V6h2zm-6 0h-2V6h2zm30 0h-2V6h2zm-6 0h-2V6h2zm-6 0h-2V6h2zm18 0h-2V6h2zm6 0h-2V6h2z" style="fill:#8e8e8e"/><path d="M8 52.602v2C8 55.932 9.338 57 11 57h42c1.662 0 3-1.068 3-2.398v-2C56 53.932 54.662 55 53 55H11c-1.662 0-3-1.068-3-2.398" style="opacity:.2"/><rect width="48" height="48" x="-56" y="-56" rx="2.4" ry="3" style="fill:#4f4f4f" transform="rotate(90)scale(-1 1)"/><path d="M11 8c-1.662 0-3 1.069-3 2.398v1C8 10.068 9.338 9 11 9h42c1.662 0 3 1.069 3 2.398v-1C56 9.068 54.662 8 53 8z" style="opacity:.1;fill:#fff"/><path d="M34 35v16h13v-5h-3v2h-5v-3l-2-2v-5h7v2h3v-5Zm0-20v16h13v-5h-3v2h-5v-3l-2-2v-5h7v2h3v-5Z" style="opacity:.2"/><path d="M34 14v16h13v-5h-3v2h-5v-3l-2-2v-5h7v2h3v-5Zm-14 0h3v18h-3z" style="fill:#ffa726"/><path d="M20 32h3v18h-3z" style="fill:#f75f5f"/><path d="M17 30h9v4h-9z" style="fill:#f75f5f"/><path d="M20 50h3v1h-3Zm-3-16h9v1h-9Z" style="opacity:.2"/><path d="M17 30h9v1h-9z" style="opacity:.2;fill:#fff"/><path d="M34 34v16h13v-5h-3v2h-5v-3l-2-2v-5h7v2h3v-5Z" style="fill:#f75f5f"/><path d="M34 14v16h13v-5h-3v2h-5v-3l-2-2v-5h7v2h3v-5Z" style="fill:#ffa726"/><path d="M34 34v16h13v-5h-3v2h-5v-3l-2-2v-5h7v2h3v-5Z" style="fill:#f75f5f"/><path d="M34 14v1h13v-1Zm3 8v1l2 2v-1Zm7 3v1h3v-1Zm-5 2v1h5v-1Zm-5 7v1h13v-1Zm3 8v1l2 2v-1Zm7 3v1h3v-1Zm-5 2v1h5v-1Z" style="opacity:.2;fill:#fff"/></svg>