<svg xmlns="http://www.w3.org/2000/svg" width="64" height="64"><circle cx="32" cy="33" r="28" style="opacity:.2"/><circle cx="32" cy="32" r="28" style="fill:#e4e4e4"/><path d="M32 4A28 28 0 0 0 4 32a28 28 0 0 0 .022.586A28 28 0 0 1 32 5a28 28 0 0 1 27.979 27.414L60 32A28 28 0 0 0 32 4" style="opacity:.2;fill:#fff"/><circle cx="32" cy="33" r="16" style="opacity:.2"/><circle cx="32" cy="32" r="16" style="fill:#ff3636"/><path d="M32 16a16 16 0 0 0-9.133 2.887L32 33l9.14-14.125A16 16 0 0 0 32 16" style="fill:#924ab4"/><path d="m32 33-8.22 12.703A16 16 0 0 0 32 48a16 16 0 0 0 8.22-2.295z" style="fill:#ffdb4c"/><path d="m32 33 8.22 12.705A16 16 0 0 0 47.95 33z" style="fill:#8bdb4c"/><path d="M41.14 18.875 32 33h15.95a16 16 0 0 0 .05-1 16 16 0 0 0-6.86-13.125" style="fill:#476bd7"/><path d="M16.037 33a16 16 0 0 0 7.742 12.703L32 33z" style="fill:#f1502f"/><circle cx="32" cy="33" r="12" style="opacity:.1"/><circle cx="32" cy="32" r="12" style="fill:#4f4f4f"/><path d="M32 16a16 16 0 0 0-16 16 16 16 0 0 0 .021.58A16 16 0 0 1 32 17a16 16 0 0 1 15.979 15.42A16 16 0 0 0 48 32a16 16 0 0 0-16-16" style="opacity:.2;fill:#fff"/><circle cx="27" cy="29" r="3" style="opacity:.2"/><circle cx="27" cy="28" r="3" style="fill:#fff"/></svg>