<svg xmlns="http://www.w3.org/2000/svg" width="64" height="64"><circle cx="32" cy="33" r="28" style="opacity:.2"/><circle cx="32" cy="32" r="28" style="fill:#207bf6"/><path d="M32 16a11.2 11.2 0 0 0-11.084 9.69A11.2 11.2 0 0 0 11 36.8 11.2 11.2 0 0 0 22.2 48h19.6A11.2 11.2 0 0 0 53 36.8a11.2 11.2 0 0 0-9.916-11.118A11.2 11.2 0 0 0 32 16" style="opacity:.2"/><circle cx="32" cy="26.2" r="11.2" style="fill:#fff"/><circle cx="22.2" cy="35.8" r="11.2" style="fill:#fff"/><circle cx="41.8" cy="35.8" r="11.2" style="fill:#fff"/><path d="M22.2 36.63h19.6v10.367H22.2z" style="fill:#fff"/><path d="M26.4 34.6s2.213 2.1 5.6 2.1 5.6-2.1 5.6-2.1" style="fill:none;stroke:#207bf6;stroke-width:1.39999998px"/><path d="m27.1 33.48-.227 1.404-.893.696m11.317-2.1.227 1.404.893.696" style="fill:none;stroke:#207bf6;stroke-width:1.39999998px;stroke-linecap:round;stroke-linejoin:round"/><path d="M32 4A28 28 0 0 0 4 32a28 28 0 0 0 .021.586A28 28 0 0 1 32 5a28 28 0 0 1 27.979 27.414L60 32A28 28 0 0 0 32 4" style="fill:#fff;opacity:.2"/></svg>