<svg xmlns="http://www.w3.org/2000/svg" width="64" height="64"><g style="fill:#8e8e8e"><path d="M58 40v2H6v-2zm0 6v2H6v-2zm0 6v2H6v-2zm0-30v2H6v-2zm0 6v2H6v-2zm0 6v2H6v-2zm0-18v2H6v-2zm0-6v2H6v-2z"/><path d="M24 58h-2V6h2zm-6 0h-2V6h2zm-6 0h-2V6h2zm30 0h-2V6h2zm-6 0h-2V6h2zm-6 0h-2V6h2zm18 0h-2V6h2zm6 0h-2V6h2z"/></g><rect width="48" height="48" x="-57" y="-56" rx="2.5" ry="2.5" style="opacity:.2" transform="rotate(90)scale(-1 1)"/><rect width="48" height="48" x="-56" y="-56" rx="2.5" ry="2.5" style="fill:#b7b7b7" transform="rotate(90)scale(-1 1)"/><path d="M10.5 8A2.495 2.495 0 0 0 8 10.5v1C8 10.115 9.115 9 10.5 9h43c1.385 0 2.5 1.115 2.5 2.5v-1C56 9.115 54.885 8 53.5 8z" style="fill:#fff;opacity:.2"/><path d="M33.12 38.152c-2.24 1.042-3.326 1.03-4.724.93-1.67-.12-3.012-.578-3.602-.978a.795.795 0 0 0-.892 1.318c.95.642 2.626 1.12 4.38 1.246.296.022-.376.034-.026.034 1.526 0 3.462-.144 5.534-1.108a.795.795 0 1 0-.67-1.442m8.838-1.178c.076-6.91.788-19.964-12.438-18.91-13.058 1.052-8.596 14.846-8.792 19.466-.172 2.442-1.582 5.43-2.728 8.47h4.128c.364-1.288.63-2.562.746-3.776q.319.221.682.428c.396.234.736.544 1.096.87.84.766 1.792 1.634 3.654 1.744.126.006-.748.01-.624.01 1.884 0 3.172-.824 4.206-1.486.496-.318.926-.592 1.328-.724 1.146-.358 2.148-.938 2.896-1.674q.175-.174.326-.354c.418 1.528.988 3.246 1.622 4.962h7.936c-1.81-2.794-4.076-5.532-4.038-9.026m-19.966-3.76c-.13-2.254.95-4.152 2.41-4.236 1.46-.086 2.748 1.674 2.878 3.928l.002.002q.009.181.008.36c-.462.116-.88.286-1.254.482q0-.023-.004-.05c-.124-1.28-.808-2.246-1.526-2.158-.718.086-1.2 1.194-1.074 2.476.054.558.214 1.056.438 1.434-.056.044-.696.512-.894.658-.544-.714-.918-1.738-.984-2.896m13.796 5.574c-.052 1.19-1.61 2.312-3.05 2.762l-.008.002c-.598.194-1.132.536-1.698.898-.95.608-1.932 1.236-3.35 1.236-.092 0 .81-.002.718-.008-1.3-.076-1.908-.63-2.676-1.332-.406-.368-.826-.75-1.368-1.068l-.01-.008c-1.168-.658-1.894-1.478-1.94-2.192-.022-.354.136-.662.47-.912.728-.546 1.216-.904 1.538-1.14.36-.262.668-.532.734-.596.668-.65.788-1.738 2.504-1.738 1.05 0 2.212.404 3.45 1.2.584.38 1.09.554 1.732.776.442.154 1.624.618 1.624.618.626.256 1.364.726 1.33 1.502m-.344-2.8a6 6 0 0 0-.376-.172 22 22 0 0 0-1.492-.574c.222-.434.36-.976.374-1.564v-.002c.03-1.432-.692-2.594-1.614-2.596s-1.694 1.156-1.724 2.588v.142a8 8 0 0 0-1.674-.568l-.006-.162v-.002c-.052-2.608 1.548-4.768 3.576-4.822 2.026-.056 3.712 2.014 3.766 4.624.024 1.18-.292 2.266-.83 3.108" style="opacity:.5"/></svg>