<svg xmlns="http://www.w3.org/2000/svg" width="64" height="64"><path d="M32.129 2.998c-.054-.001-.107.008-.16.008l-.098.004a6.6 6.6 0 0 0-3.168.867L9.297 15.08a6.56 6.56 0 0 0-2.305 2.274l-.012-.008c-.022.036-.037.076-.058.113-.023.039-.052.074-.074.113l.011.008A6.56 6.56 0 0 0 6 20.795V36.64l-1.35.865a1.37 1.37 0 0 0 .21 2.435l1.14.52v2.74c0 1.15.32 2.245.867 3.211.044.077.078.16.125.234l.028-.015c.197.325.398.651.652.937l.121.145c.108.115.223.22.34.328a7 7 0 0 0 .226.2c.108.09.215.181.329.265a7 7 0 0 0 .609.406l12.473 7.2 1.437 3.099c.526 1.053 2.028 1.053 2.555 0l.289-.627 2.652 1.531a6.6 6.6 0 0 0 3.168.875v.008a6.6 6.6 0 0 0 3.426-.883L44.33 54.9l.158.938c.2 1.185 1.731 1.579 2.494.64l4.764-5.859.639-.369 5.926 1.166c1.2.234 2.113-1.041 1.486-2.074l-2.272-3.725A6.6 6.6 0 0 0 58 43.201v-3.676l.838-1.449c.41-.808-.063-1.692-.838-1.935V20.795a7 7 0 0 0-.055-.785 7 7 0 0 0-.035-.25 7 7 0 0 0-.097-.496 7 7 0 0 0-.09-.332 7 7 0 0 0-.125-.368c-.046-.127-.088-.254-.141-.378l-.02-.051-.003.004a7 7 0 0 0-.426-.79l-.02.012c-.56-.92-1.319-1.723-2.285-2.28L35.297 3.876a6.6 6.6 0 0 0-3.14-.879z" style="opacity:.2"/><path d="M32.129 2.002c-.079-.002-.156.01-.234.012h-.024a6.6 6.6 0 0 0-3.17.865L9.3 14.084a6.6 6.6 0 0 0-2.453 2.488L18.863 31H45l12.135-14.416a6.55 6.55 0 0 0-2.434-2.5L35.3 2.879a6.6 6.6 0 0 0-3.145-.877l-.025.002z" style="fill:#d66f45"/><path d="M6.982 16.35A6.6 6.6 0 0 0 6 19.797v22.408c0 1.15.32 2.244.867 3.211h-.002l.012.018c.04.07.07.146.113.214l.016-.007c.197.325.41.64.664.927l.125.145q.162.172.338.332a7 7 0 0 0 .226.197c.108.09.213.18.327.264a7 7 0 0 0 .613.408L28.7 59.117a6.6 6.6 0 0 0 3.428.873l-.06-13.88L32 31l-13-7.613z" style="fill:#cd5929"/><path d="M57.01 16.352 45 23.387 32 31l-.068 15.11-.06 13.888a6.6 6.6 0 0 0 3.427-.88L54.7 47.913a6.6 6.6 0 0 0 2.317-2.264l.005.004.079-.142.048-.084-.002-.002a6.6 6.6 0 0 0 .852-3.22v-22.41a7 7 0 0 0-.053-.784q-.016-.126-.037-.25a7 7 0 0 0-.1-.494 7 7 0 0 0-.087-.336 7 7 0 0 0-.123-.366c-.046-.127-.088-.254-.141-.378l-.023-.051-.002.002a7 7 0 0 0-.424-.787" style="fill:#a64a1e"/><path d="M32.129 2c-.054-.001-.107.008-.16.008l-.098.004a6.6 6.6 0 0 0-3.168.867L9.297 14.082a6.56 6.56 0 0 0-2.305 2.273l-.012-.007c-.022.036-.037.076-.058.113-.023.039-.052.074-.074.113l.011.008A6.56 6.56 0 0 0 6 19.797v1c0-1.149.316-2.247.86-3.215l-.012-.008c.022-.04.051-.074.074-.113.021-.037.036-.077.058-.113l.012.007a6.56 6.56 0 0 1 2.305-2.273L28.703 3.879a6.6 6.6 0 0 1 3.168-.867l.098-.004c.053 0 .106-.01.16-.008h.027a6.6 6.6 0 0 1 3.14.879l19.407 11.203c.966.558 1.725 1.36 2.285 2.281l.02-.011c.155.254.305.515.426.789l.003-.004.02.05c.053.125.095.252.14.38a7 7 0 0 1 .126.367q.049.164.09.332a7 7 0 0 1 .097.496q.02.124.035.25a7 7 0 0 1 .055.785v-1a7 7 0 0 0-.055-.785 7 7 0 0 0-.035-.25 7 7 0 0 0-.097-.496 7 7 0 0 0-.09-.332 7 7 0 0 0-.125-.368c-.046-.127-.087-.254-.141-.378l-.02-.051-.003.004a7 7 0 0 0-.426-.79l-.02.012c-.56-.921-1.319-1.723-2.285-2.281L35.297 2.879A6.6 6.6 0 0 0 32.157 2z" style="fill:#fff;opacity:.2"/><path d="M44.445 32a1.4 1.4 0 0 0-1.388 1.389v6.158l-6.373 3.762c-1 .59-.88 2.05.203 2.478l6.318 2.488.97 5.717 10.526-6.078a6.6 6.6 0 0 0 2.317-2.264l.005.004.079-.142.048-.084-.002-.002a7 7 0 0 0 .118-.235l-1.305-2.14L58 39.525v-3.384a1.4 1.4 0 0 0-.701-.047l-6.32 1.142-5.512-4.83A1.43 1.43 0 0 0 44.445 32m-35.982.172c-.799-.018-1.455.607-1.455 1.385v2.44L6 36.64v3.82l1.002.457-.035 2.879c.193 1.215 1.795 1.6 2.549.613l1.892-2.281 2.865-.047c1.197.25 2.14-.989 1.543-2.03l-1.779-2.077.914-1.918c.494-1.037-.442-2.178-1.59-1.938l-2.299.473-1.59-1.979a1.44 1.44 0 0 0-1.01-.441M20.396 40a1.43 1.43 0 0 0-1.412 1.43v5.12l-3.566 3.47a1.4 1.4 0 0 0-.397 1.199l3.018 1.742 2.604.725.494 1.064 5.279 3.047 1.807-3.91 5.345.199c1.272 0 1.91-1.538 1.01-2.438l-3.514-3.914.934-4.931a1.428 1.428 0 0 0-1.732-1.733l-5.301 1.676-3.76-2.506c-.24-.16-.52-.243-.809-.24" style="opacity:.2"/><path d="M44.446 31a1.4 1.4 0 0 0-1.39 1.389v6.157l-6.372 3.762a1.38 1.38 0 0 0 .202 2.48l6.32 2.487 1.282 7.562c.2 1.186 1.732 1.579 2.495.64l5.11-6.284 6.217 1.223c1.2.234 2.114-1.042 1.486-2.075l-3.835-6.29 2.876-4.975c.525-1.033-.387-2.208-1.538-1.982l-6.32 1.142-5.513-4.829a1.42 1.42 0 0 0-1.02-.407m-24.05 8a1.43 1.43 0 0 0-1.412 1.429v5.123l-3.566 3.467a1.429 1.429 0 0 0 .664 2.396l4.56 1.27 2.565 5.525c.526 1.053 2.029 1.053 2.555 0l2.46-5.324 5.346.2c1.272 0 1.91-1.538 1.01-2.438l-3.513-3.914.933-4.93a1.43 1.43 0 0 0-1.732-1.733l-5.3 1.675-3.76-2.506a1.43 1.43 0 0 0-.81-.24M8.464 31.171c-.8-.018-1.457.608-1.457 1.385v2.44l-2.357 1.51a1.369 1.369 0 0 0 .209 2.435L7 39.918l-.034 2.879c.193 1.215 1.795 1.6 2.548.614l1.893-2.281 2.866-.048c1.196.25 2.139-.989 1.542-2.03l-1.779-2.078.914-1.918c.494-1.037-.441-2.177-1.59-1.937l-2.298.474-1.59-1.98a1.44 1.44 0 0 0-1.01-.442" style="fill:#efc309"/><path d="M44.445 31a1.4 1.4 0 0 0-1.388 1.389v1A1.4 1.4 0 0 1 44.445 32c.382-.006.752.14 1.022.406l5.512 4.83 6.32-1.142a1.41 1.41 0 0 1 1.586.842c.38-.996-.487-2.057-1.586-1.842l-6.32 1.142-5.512-4.83A1.43 1.43 0 0 0 44.445 31m-35.982.172c-.799-.018-1.455.607-1.455 1.385v1c0-.778.656-1.403 1.455-1.385.384.008.748.168 1.01.441l1.59 1.979 2.298-.473a1.424 1.424 0 0 1 1.62.846c.398-1.011-.505-2.079-1.62-1.846l-2.299.473-1.59-1.979a1.44 1.44 0 0 0-1.01-.441m-1.455 3.824-2.358 1.51a1.36 1.36 0 0 0-.548 1.668 1.36 1.36 0 0 1 .548-.668l2.358-1.51zm7.336 2.336-.307.643 1.78 2.078c.035.063.049.127.074.191a1.32 1.32 0 0 0-.075-1.191zm28.713 1.215-6.373 3.762a1.37 1.37 0 0 0-.582 1.695c.104-.273.29-.523.582-.695l6.373-3.762zM20.397 39a1.43 1.43 0 0 0-1.413 1.43v1a1.43 1.43 0 0 1 2.221-1.19l3.76 2.506 5.3-1.676a1.425 1.425 0 0 1 1.696.93l.037-.197a1.428 1.428 0 0 0-1.732-1.733l-5.301 1.676-3.76-2.506c-.24-.16-.52-.243-.809-.24M6.99 40.912l-.023 1.885c.002.013.009.024.012.037l.023-1.916zm49.268 1.625-.297.514 3.836 6.29c.044.074.064.15.094.225a1.33 1.33 0 0 0-.094-1.224zm-37.274 3.014-3.566 3.469a1.41 1.41 0 0 0-.318 1.511c.068-.182.165-.359.318-.511l3.566-3.47zm12.237 1.357-.157.826 3.514 3.914c.156.157.25.335.318.518.188-.49.12-1.079-.318-1.518z" style="opacity:.2;fill:#fff"/></svg>