<svg xmlns="http://www.w3.org/2000/svg" xmlns:xlink="http://www.w3.org/1999/xlink" width="64" height="64"><defs><filter id="c" width="1.137" height="1.174" x="-.068" y="-.087" style="color-interpolation-filters:sRGB"><feGaussianBlur stdDeviation="1.514"/></filter><filter id="d" width="1.269" height="1.284" x="-.135" y="-.142" style="color-interpolation-filters:sRGB"><feGaussianBlur stdDeviation="1.658"/></filter><radialGradient xlink:href="#a" id="b" cx="-19.966" cy="-13.501" r="28" fx="-19.966" fy="-13.501" gradientTransform="rotate(-75 -31.822 -47.98)scale(2.91641 2.12052)" gradientUnits="userSpaceOnUse"/><linearGradient id="a"><stop offset="0" style="stop-color:#8e8e8e;stop-opacity:1"/><stop offset="1" style="stop-color:#6e6e6e;stop-opacity:1"/></linearGradient></defs><rect width="56" height="44" x="-60" y="-54" rx="9.833" ry="9.833" style="fill:url(#b)" transform="rotate(90)scale(-1 1)"/><path d="m16.412 16.998 2.562 9.562 9.562-2.562-3.464-2A8 8 0 1 1 28 32.926a8 8 0 0 1-2.932-2.95l-5.902 1.582A14 14 0 0 0 25 38.122c6.696 3.866 15.258 1.572 19.124-5.124S45.696 17.739 39 13.873s-15.258-1.571-19.124 5.125Z" style="opacity:.5"/><rect width="56" height="44" x="-60.046" y="-54.159" rx="9.833" ry="9.833" style="fill:none;stroke:#000;stroke-opacity:1;stroke-width:.39999991;stroke-dasharray:none;opacity:1;filter:url(#c)" transform="rotate(90)scale(-1 1)"/><path d="m16.57 17.044 2.563 9.562 9.562-2.562-3.464-2a8 8 0 1 1 2.928 10.928 8 8 0 0 1-2.932-2.95l-5.902 1.582a14 14 0 0 0 5.834 6.564c6.696 3.866 15.258 1.572 19.124-5.124 3.866-6.697 1.572-15.259-5.124-19.125s-15.258-1.572-19.124 5.125Z" style="opacity:.2746114;fill:#fff;stroke:none;stroke-opacity:1;stroke-width:.39999991;stroke-dasharray:none;fill-opacity:1;filter:url(#d)"/></svg>