<svg xmlns="http://www.w3.org/2000/svg" width="64" height="64"><circle cx="32" cy="33" r="28" style="opacity:.2"/><circle cx="32" cy="32" r="28" style="fill:#3f3f3f"/><path d="M32.457 12.922c-1.133-.022-2.277.01-3.012.106-4.497.589-8.467 2.509-11.601 5.61-1.676 1.657-2.857 3.296-3.883 5.386-1.37 2.79-1.959 5.387-1.961 8.64-.002 3.25.576 5.792 1.969 8.637 2.54 5.19 7.343 9.073 13.011 10.52.656.167 2.422.472 3.094.535.185.017 1.014.037 1.844.043 1.522.012 1.835-.08.602-.18-1.03-.082-2.593-.43-3.81-.847-5.157-1.767-9.225-5.837-10.925-10.93a16.8 16.8 0 0 1-.543-8.797c1.216-6.036 5.647-11.023 11.543-12.988 7.639-2.546 15.89.301 20.313 7.004 1.455 2.205 2.508 5.152 2.715 7.59.041.491.073.61.136.496.117-.208.017-2.699-.156-3.895-.807-5.587-3.903-10.452-8.676-13.633-2.297-1.53-4.863-2.55-7.719-3.07-.686-.125-1.808-.204-2.941-.227m3.324 8.079c-.644.002-1.253.034-1.726.101-6.228.886-11.005 5.65-11.957 11.93-.16 1.057-.122 3.206.078 4.355 1.098 6.315 6.36 11.106 12.71 11.575 3.46.254 6.938-.753 9.567-2.77 2.778-2.132 4.59-5.016 5.309-8.453.225-1.08.309-3.24.168-4.375-.057-.46-.122-.87-.145-.906s-.274.173-.558.468c-.844.875-1.768 1.43-2.95 1.77-.914.263-2.313.263-3.226 0-2.538-.73-4.303-2.758-4.653-5.344-.349-2.582 1.14-5.277 3.551-6.43l.668-.32-.71-.336a14.7 14.7 0 0 0-3.134-1.031c-.755-.155-1.918-.238-2.992-.234" style="opacity:.2"/><path d="M30.074 51.356c-.672-.062-2.44-.369-3.095-.536-5.668-1.447-10.468-5.328-13.008-10.518-1.393-2.845-1.973-5.39-1.971-8.64.002-3.254.592-5.85 1.962-8.64 1.026-2.09 2.206-3.726 3.882-5.384 3.134-3.1 7.104-5.02 11.6-5.609 1.47-.193 4.583-.13 5.956.12 2.856.52 5.42 1.54 7.717 3.07 4.773 3.181 7.87 8.046 8.676 13.633.173 1.197.273 3.686.157 3.894-.064.113-.097-.005-.138-.497-.206-2.438-1.26-5.386-2.716-7.59-4.422-6.703-12.672-9.547-20.31-7.001-5.896 1.965-10.328 6.95-11.544 12.985-.601 2.985-.42 5.91.543 8.798 1.7 5.094 5.767 9.163 10.925 10.93 1.216.417 2.778.764 3.808.847 1.234.099.923.193-.599.181a41 41 0 0 1-1.845-.043" style="fill:#f47522"/><path d="M34.889 47.961c-6.351-.468-11.613-5.26-12.711-11.574-.2-1.15-.239-3.298-.078-4.355.952-6.28 5.725-11.044 11.953-11.93 1.262-.179 3.512-.116 4.72.133 1.052.216 2.218.6 3.134 1.031l.71.335-.669.32c-2.412 1.152-3.9 3.848-3.55 6.43.349 2.586 2.117 4.616 4.654 5.346.913.263 2.31.262 3.224 0 1.182-.34 2.108-.896 2.952-1.77.284-.296.536-.507.558-.47s.088.444.145.905c.14 1.136.058 3.297-.168 4.376-.719 3.437-2.53 6.322-5.308 8.454-2.63 2.017-6.108 3.024-9.566 2.77" style="fill:#f47522"/><path d="M32 4A28 28 0 0 0 4 32a28 28 0 0 0 .033.482A28 28 0 0 1 32 5a28 28 0 0 1 27.982 27.242L60 32A28 28 0 0 0 32 4" style="opacity:.1;fill:#fff"/><path d="M32.459 11.924c-1.133-.023-2.279.009-3.014.105-4.497.59-8.467 2.509-11.601 5.61-1.676 1.657-2.857 3.295-3.883 5.384-1.37 2.79-1.959 5.385-1.961 8.64 0 .176.008.342.012.515.059-3.027.649-5.506 1.949-8.155 1.026-2.09 2.207-3.727 3.883-5.384 3.134-3.101 7.104-5.02 11.601-5.61.735-.096 1.88-.128 3.014-.105s2.255.1 2.941.224c2.856.52 5.42 1.54 7.717 3.07 4.773 3.182 7.869 8.046 8.676 13.634.1.69.17 1.775.193 2.64.046-.695-.047-2.626-.193-3.64-.807-5.588-3.903-10.452-8.676-13.633-2.297-1.531-4.861-2.551-7.717-3.07-.686-.125-1.808-.202-2.941-.225M35.783 20c-.644.002-1.257.036-1.73.104-6.228.885-11.001 5.648-11.953 11.927-.087.568-.111 1.447-.088 2.32.011-.503.035-.976.088-1.32.952-6.28 5.725-11.042 11.953-11.927a13 13 0 0 1 1.73-.104c1.074-.004 2.235.079 2.99.234.93.192 1.94.517 2.797.887.124-.07.25-.14.38-.201l.667-.318-.71-.336a14.7 14.7 0 0 0-3.134-1.032c-.755-.155-1.916-.238-2.99-.234m2.59 8.096a5.7 5.7 0 0 0 .023 1.256c.35 2.586 2.12 4.616 4.657 5.345.913.263 2.309.263 3.222 0 1.182-.34 2.11-.897 2.954-1.771.284-.295.534-.506.556-.469s.088.444.145.904c.031.253.046.569.056.899.017-.71.005-1.404-.056-1.899-.057-.46-.122-.867-.145-.904s-.272.174-.556.469c-.844.874-1.772 1.431-2.954 1.771-.913.263-2.309.263-3.222 0-2.538-.73-4.307-2.76-4.657-5.345-.011-.086-.015-.17-.023-.256m-21.46 6.447a16.8 16.8 0 0 0 .872 5.898c1.576 4.723 5.19 8.561 9.819 10.504.81.166 1.935.36 2.47.41.185.018 1.016.037 1.846.043 1.522.012 1.831-.082.598-.181-1.03-.083-2.593-.43-3.809-.846-5.158-1.767-9.224-5.836-10.924-10.93a17 17 0 0 1-.873-4.898" style="fill:#fff;opacity:.2"/></svg>