<svg xmlns="http://www.w3.org/2000/svg" width="64" height="64"><path d="M32.577 12.18c-1.517-.286-2.686-.247-4.254.327-4.202 1.539-6.32 4.517-7.076 7.2-.24-.12-.18-.146-.435-.26-2.666-1.195-6.409-2.272-10.232-.8-3.281 1.265-5.336 4.42-6.127 7.3a12.9 12.9 0 0 0 .596 8.517c2.658 6.144 9.83 8.556 16.047 10.602s11.884 2.901 11.884 2.901a2.8 2.8 0 0 0 2.767-1.238s2.42-4.312 4.834-9.688 4.936-11.318 2.622-16.905c-1.169-2.822-3.576-4.862-6.286-6.327-1.356-.733-2.822-1.345-4.34-1.63" style="opacity:.2"/><path d="M32.577 11.18c-1.517-.286-2.686-.247-4.254.327-4.202 1.539-6.32 4.517-7.076 7.2-.24-.12-.18-.146-.435-.26-2.666-1.195-6.409-2.272-10.232-.8-3.281 1.265-5.336 4.42-6.127 7.3a12.9 12.9 0 0 0 .596 8.517c2.658 6.144 9.83 8.556 16.047 10.602s11.884 2.901 11.884 2.901a2.8 2.8 0 0 0 2.767-1.238s2.42-4.312 4.834-9.688 4.936-11.318 2.622-16.905c-1.169-2.822-3.576-4.862-6.286-6.327-1.356-.733-2.822-1.345-4.34-1.63" style="fill:#e4e4e4"/><path d="M34 45S11.62 42.966 7.72 33.952c-1.723-3.982-.844-10.577 3.966-12.43C17.22 19.39 23.701 24.9 23.701 24.9s-.908-7.112 5.784-9.562c3.756-1.375 9.44 2.376 10.97 6.071C43.702 29.25 34 45 34 45" style="opacity:.1"/><path d="M34 44S11.62 41.966 7.72 32.952c-1.723-3.982-.844-10.577 3.966-12.43C17.22 18.39 23.701 23.9 23.701 23.9s-.908-7.112 5.784-9.562c3.756-1.375 9.44 2.376 10.97 6.071C43.702 28.25 34 44 34 44" style="fill:#f079a8"/><path d="M38.774 27.13c-1.168.218-2.269.692-3.279 1.236-2.02 1.087-3.819 2.553-4.76 4.815-1.827 4.395.12 8.94 1.826 12.723a55 55 0 0 0 3.691 6.807 2.86 2.86 0 0 0 2.814 1.256s4.011-.597 8.426-2.035 9.645-3.38 11.721-8.16c.882-2.03 1.037-4.722.392-6.92-.644-2.2-2.286-4.371-4.834-5.35-2.753-1.055-5.273-.302-7.148.575-.819-1.902-2.326-3.632-5.152-4.662-1.29-.47-2.528-.505-3.697-.286" style="opacity:.2"/><path d="M38.774 26.13c-1.168.218-2.269.692-3.279 1.236-2.02 1.087-3.819 2.553-4.76 4.815-1.827 4.395.12 8.94 1.826 12.723a55 55 0 0 0 3.691 6.807 2.86 2.86 0 0 0 2.814 1.256s4.011-.597 8.426-2.035 9.645-3.38 11.721-8.16c.882-2.03 1.037-4.722.392-6.92-.644-2.2-2.286-4.371-4.834-5.35-2.753-1.055-5.273-.302-7.148.575-.819-1.902-2.326-3.632-5.152-4.662-1.29-.47-2.528-.505-3.697-.286" style="fill:#e4e4e4"/><path d="M39 51s14.987-2.468 17.64-8.6c1.172-2.709.473-6.72-2.8-7.98C50.077 32.97 46 36 46 36s-.047-4.123-4.6-5.79c-2.554-.935-6.938 1.616-7.979 4.13C31.212 39.673 39 51 39 51" style="opacity:.1"/><path d="M39 50s14.987-2.468 17.64-8.6c1.172-2.709.473-6.72-2.8-7.98C50.077 31.97 46 35 46 35s-.047-4.123-4.6-5.79c-2.554-.935-6.938 1.616-7.979 4.13C31.212 38.673 39 50 39 50" style="fill:#f079a8"/><path d="M30.469 11.021c-.678.046-1.363.2-2.147.487-4.202 1.538-6.32 4.517-7.076 7.199-.24-.119-.178-.145-.433-.26-2.666-1.194-6.41-2.271-10.233-.799-3.281 1.264-5.335 4.42-6.127 7.3a12.8 12.8 0 0 0-.437 3.886 12.8 12.8 0 0 1 .437-2.887c.792-2.879 2.846-6.035 6.127-7.299 3.823-1.472 7.567-.395 10.233.8.255.114.193.14.433.259.757-2.682 2.874-5.66 7.076-7.2 1.568-.573 2.738-.613 4.256-.327 1.518.285 2.983.896 4.338 1.629 2.71 1.464 5.118 3.506 6.287 6.328a12.1 12.1 0 0 1 .902 4.197c.056-1.748-.194-3.489-.902-5.197-1.169-2.822-3.577-4.864-6.287-6.328-1.355-.733-2.82-1.344-4.338-1.63-.759-.142-1.431-.203-2.11-.158m10.108 14.993a7.2 7.2 0 0 0-1.803.115c-1.168.22-2.267.693-3.277 1.236-2.02 1.087-3.819 2.555-4.76 4.817-.588 1.414-.782 2.844-.722 4.26a9.6 9.6 0 0 1 .722-3.26c.941-2.262 2.74-3.73 4.76-4.817 1.01-.543 2.109-1.017 3.277-1.236 1.17-.22 2.408-.185 3.698.285 2.826 1.03 4.334 2.76 5.152 4.662 1.876-.877 4.396-1.63 7.148-.574 2.549.978 4.19 3.15 4.834 5.35.225.765.346 1.591.38 2.427.056-1.17-.066-2.357-.38-3.427-.644-2.2-2.285-4.372-4.834-5.35-2.752-1.056-5.272-.303-7.148.574-.818-1.902-2.326-3.631-5.152-4.662a6.8 6.8 0 0 0-1.895-.4" style="opacity:.2;fill:#fff"/></svg>