<svg xmlns="http://www.w3.org/2000/svg" width="64" height="64"><rect width="56" height="56" x="4" y="5" rx="16.8" ry="16.8" style="opacity:.2"/><rect width="56" height="56" x="4" y="4" rx="16.8" ry="16.8" style="fill:#2152a1"/><circle cx="-32" cy="39" r="14" style="opacity:.2" transform="scale(-1 1)"/><circle cx="-32" cy="38" r="14" style="fill:#fae8a2" transform="scale(-1 1)"/><path d="M33.322 24.075a14 14 0 0 1 5.067 1.47c-.07.224.012.477.27.7.174.151.317.386.317.524 0 .42-.38 1.064-.683 1.158-.402.124-.267.554.25.791.24.11.535.426.655.703.121.277.299.55.396.607.096.057.175.273.175.481 0 .29-.133.432-.57.606-.312.125-.685.216-.83.202-.834-.078-.892.408-.163 1.357.387.504.573.63.837.567.245-.06.38.01.492.254.117.258.31.346.83.381.51.036.738.14.929.419.14.204.342.369.449.369s.36.137.56.304c.41.34.569.373.712.152.19-.294.599-.146 1.208.437.538.515.603.653.522 1.1-.145.796-.576 1.503-1.07 1.749-.43.215-.438.238-.177.514.15.159.407.329.572.379.473.144.207.324-.639.432-.865.11-1.134.424-.73.851.225.239.213.284-.149.51-.707.444-1.27.173-.606-.292.427-.299.129-.42-.497-.204-.5.173-.598.163-.893-.093-.605-.524-1.263.252-.71.837.352.373.246.822-.21.885-.202.027-.62.214-.931.417-.311.201-.65.367-.752.367s-.39.205-.641.456c-.509.507-.79.572-.934.214-.172-.43-.103-.652.361-1.158.369-.403.969-1.474.969-1.73 0-.159-.61-.025-.951.209-.214.146-.56.334-.77.42-.222.09-.453.373-.558.683-.165.486-.23.528-.812.528h-.633l-.096 1.137c-.115 1.369-.225 1.646-.694 1.758-.346.084-.715.62-.715 1.038 0 .111.248.384.552.606.377.275.54.509.514.738-.032.286.034.33.439.3.26-.019.715.073 1.006.205a1.83 1.83 0 0 0 1.07.142c.402-.072.539-.044.539.113 0 .116.141.333.314.483.425.369.25.564-.404.447-.406-.073-.564-.041-.634.134-.15.372.228.904.58.816.222-.056.328.02.397.283a.65.65 0 0 0 .12.24 14 14 0 0 1-2.215.654c.07-.134.15-.256.228-.31.36-.255.119-.917-.377-1.036-.507-.122-.427-.45.123-.513.483-.055.996-.543.835-.793-.109-.168-.57-.143-1.503.078-.421.1-.71-.1-1.686-1.169-.565-.619-1-.876-1.476-.876-.182 0-.83-.168-1.443-.372-1.155-.387-1.606-.373-1.563.049.088.878-.477.848-1.398-.071-.383-.383-.734-.66-.78-.617-.175.169.141.99.51 1.322.47.422.492.688.08.898-.225.116-.321.35-.357.878l-.048.72h-.585q-.307.001-.512.08a14 14 0 0 1-6.783-11.554c.214-.458.199-.734 0-1.046a14 14 0 0 1 .063-.785 4 4 0 0 1 .407-.005c.706.03 1.31-.249 1.31-.603 0-.075.25-.383.556-.685.348-.342.525-.644.474-.801-.048-.143.054-.373.235-.53.175-.152.32-.397.32-.544 0-.234.149-.264 1.227-.238l1.228.03-.02 1.21c-.037 2.12-.353 2.67-1.327 2.316-.446-.164-1.541-.04-1.853.207-.112.09-.275.414-.361.722-.087.307-.408.84-.714 1.182-.62.695-.669.966-.313 1.78.31.712.644.63.578-.142l-.05-.574.526.098c.29.056.654.27.818.482.232.302.34.346.515.208.122-.097.22-.3.22-.452 0-.15.15-.319.332-.374s.433-.33.555-.613c.197-.45.192-.588-.037-1.136-.232-.555-.234-.646-.02-.852.196-.187.297-.193.555-.039.259.155.381.144.69-.063.204-.138.564-.252.796-.252.472 0 .615-.23.615-.99 0-.702.419-.956 1.416-.865.691.064.844.018 1.402-.411.345-.266.89-.904 1.211-1.42.322-.517.669-1.057.77-1.2.146-.206.11-.404-.175-.966l-.36-.707.76.102c1.353.183 1.627.358 1.045.67-.227.121-.236.184-.061.386.114.132.168.34.119.465-.05.123.013.414.139.646.127.232.232.558.237.725.013.522.906.937 1.901.881 1.508-.083 1.63-.06 2.166.438.67.622.755.91.444 1.487-.302.56-.838.784-1.766.738-.83-.042-.924.032-.734.58.161.467.703.646 1.07.355.283-.225 1.259-.051 1.557.278.126.137.312.498.413.8.175.523.226.555 1.01.63.783.077.859.052 1.422-.467.627-.578.734-1.02.431-1.782-.134-.338-.233-.393-.592-.327-.71.13-.99-.117-.99-.875 0-.368.072-.711.16-.763.086-.052.158-.247.158-.434 0-.186.09-.427.198-.533.159-.154.135-.237-.118-.416-.174-.122-.46-.205-.634-.184s-.657-.054-1.072-.167c-.6-.162-.776-.284-.857-.6-.154-.6-.53-1.08-.845-1.08-.498 0-.509-1.17-.025-2.873.072-.251.268-.41.615-.497.282-.07.588-.262.68-.427s.26-.3.375-.3.337-.136.495-.303c.158-.168.487-.303.737-.303.591 0 .601-.408.014-.622-.619-.227-1.584.07-1.817.56-.315.664-.666.387-.779-.616-.14-1.242-.568-1.599-1.918-1.599h-.97l.425-.425c.132-.133.242-.295.318-.454m-5.033.44c.028.025.054.045.08.073.326.331.478.379.98.302.876-.134.764.22-.206.645-.525.23-.862.493-.977.76-.553 1.281-.934 1.971-1.125 2.041-.386.143-.617-.143-.703-.872-.098-.836-.381-1.013-.89-.556-.197.177-.473.323-.612.323-.435 0-.756.174-.756.41 0 .124-.147.423-.327.665-.265.357-.445.442-.94.442-.609 0-.982.114-1.744.535-.012.006-.023.008-.035.015a14 14 0 0 1 7.255-4.782M45.997 37.94 46 38a14 14 0 0 1-.274 2.69c-.507.206-.647.124-.7-.348-.027-.244-.154-.52-.284-.616-.2-.148-.164-.224.246-.504.266-.18.527-.497.581-.702.052-.2.228-.416.428-.58m-4.406 4.628c.13-.014.288.056.463.224.37.355.315 1.067-.105 1.348-.48.323-.666.229-.727-.366-.075-.734.082-1.176.369-1.206m-2.376 2.117c.143.004.3.107.458.322.167.228.212.523.149.97-.08.55-.045.668.243.816.37.189.449.752.146 1.042-.301.288-.588.212-.692-.182-.147-.563-.97-.63-1.533-.124-.24.216-.436.325-.436.243s.25-.383.555-.666c.467-.434.553-.619.553-1.178 0-.788.242-1.253.557-1.243m3.902 1.807a14 14 0 0 1-.324.409c.095-.148.204-.29.324-.41m-4.718 2.149c.07.024.1.113.1.27s.101.324.224.368c.164.06.202.25.139.703-.012.085-.015.153-.02.223a14 14 0 0 1-.582.3c.01-.243-.034-.528-.161-.885-.215-.606-.223-.758-.048-.864.164-.1.276-.14.348-.115" style="opacity:.2"/><path d="M43.479 20.768c.136-1.048.246-1.159 1.295-1.295-1.049-.136-1.159-.246-1.295-1.295-.136 1.049-.247 1.159-1.295 1.295 1.048.136 1.159.247 1.295 1.295M17.128 26.39c.136-1.048.246-1.159 1.294-1.295-1.048-.136-1.158-.246-1.294-1.295-.137 1.049-.247 1.159-1.295 1.295 1.048.136 1.158.247 1.295 1.295m-6.588-5.192c.272-2.096.493-2.317 2.59-2.59-2.097-.272-2.318-.493-2.59-2.59-.273 2.097-.494 2.318-2.59 2.59 2.096.273 2.317.494 2.59 2.59M9.535 35.832c.136-1.048.246-1.159 1.295-1.295-1.049-.136-1.159-.246-1.295-1.295-.136 1.049-.247 1.159-1.295 1.295 1.048.136 1.159.247 1.295 1.295m40.985-20.74c.272-2.096.493-2.317 2.59-2.59-2.097-.272-2.318-.493-2.59-2.59-.273 2.097-.494 2.318-2.59 2.59 2.096.273 2.317.494 2.59 2.59m3.025 34.71c.136-1.048.246-1.159 1.295-1.295-1.049-.136-1.159-.246-1.295-1.295-.136 1.049-.247 1.159-1.295 1.295 1.048.136 1.159.247 1.295 1.295m-42.969-.742c.272-2.096.493-2.317 2.59-2.59-2.097-.272-2.318-.493-2.59-2.59-.273 2.097-.494 2.318-2.59 2.59 2.096.273 2.317.494 2.59 2.59m44.896-17.874c.272-2.096.493-2.317 2.59-2.59-2.097-.272-2.318-.493-2.59-2.59-.273 2.097-.494 2.318-2.59 2.59 2.096.273 2.317.494 2.59 2.59m-25.974-15.73c.409-3.145.74-3.476 3.885-3.884-3.145-.41-3.476-.74-3.885-3.885-.408 3.145-.74 3.476-3.884 3.885 3.145.408 3.476.74 3.884 3.884" style="fill:#fff"/><path d="M20.8 4C11.495 4 4 11.494 4 20.8v1C4 12.495 11.494 5 20.8 5h22.4C52.505 5 60 12.494 60 21.8v-1C60 11.495 52.506 4 43.2 4z" style="opacity:.1;fill:#fff"/><path d="M32 24a14 14 0 0 0-14 14 14 14 0 0 0 .033.48A14 14 0 0 1 32 25a14 14 0 0 1 13.98 13.283L46 38a14 14 0 0 0-14-14" style="opacity:.2;fill:#fff"/></svg>