<svg xmlns="http://www.w3.org/2000/svg" xmlns:xlink="http://www.w3.org/1999/xlink" width="64" height="64"><defs><filter id="e" width="1.118" height="1.084" x="-.059" y="-.042" style="color-interpolation-filters:sRGB"><feGaussianBlur stdDeviation=".522"/></filter><filter id="d" width="1.137" height="1.137" x="-.069" y="-.069" style="color-interpolation-filters:sRGB"><feGaussianBlur stdDeviation="1.058"/></filter><filter id="c" width="1.208" height="1.208" x="-.104" y="-.104" style="color-interpolation-filters:sRGB"><feGaussianBlur stdDeviation="2.348"/></filter><radialGradient xlink:href="#a" id="b" cx="69.588" cy="14.079" r="27.999" fx="69.588" fy="14.079" gradientTransform="matrix(0 2.93025 -2.93027 0 46.785 -198.835)" gradientUnits="userSpaceOnUse"/><linearGradient id="a"><stop offset="0" style="stop-color:#ffd24a;stop-opacity:1"/><stop offset="1" style="stop-color:#ffa34d;stop-opacity:1"/></linearGradient></defs><path d="m31.596 5.505-.022.014C17.1 5.68 5.495 17.37 5.495 31.88a26.32 26.32 0 0 0 26.376 26.376c14.391 0 25.994-11.417 26.342-25.72l.033-.655V11.157a5.64 5.64 0 0 0-5.652-5.652H31.871Z" style="fill:url(#b);stroke-width:.942019"/><circle cx="31.87" cy="31.873" r="18.84" style="fill:#353535;stroke-width:.942019"/><path d="M34.85 22.47c-.103 1.223-.92.704-1.804 1.371-.238-.036-.51-.036-.884-.036-.068-.816.205-.964.34-1.112.544-.445.92-.222.92-.222.408-.075.78.036 1.429-.001m2.041-2.002h-1.19v-.333h-.645v.184c-.07.037-.138.112-.205.149h-.068c-1.125-.964-1.192 1-1.942.556-.067-.408-.033-.78-.033-1.26 1.293-.038.816-.409.443-.89-.135-.186-.205-.482-.238-.668-.306-1.22-1.565-1.962-3.401-1.184-1.193.482-.884 2.224-.783 3.41-.068.11-.205.074-.306.074-1.294.075-1.872 1.556-2.144 2.743.067 1.075-.068 2.26-.239 3.298s-.51 1.853-.545 2.854c-.067.89.239 1.927.171 2.743-.715 2.298-1.226 3.817-1.6 6.264-.271.555-1.223 1.741-1.599 2.001-.101.185.068.593-.101.852-.306.482-.783.741-1.055 1.26.067.111-.41.223-.373.409.033.184.272.666.373.777.033.075.373-.111.373 0 .137.444.443 1.372.783 1.594 1.499.184 1.499.184 2.11 0 .34-1.075-1.156-.593-1.021-2.04 2.043-.443 2.688-1.074 3.505-3.409.373-1.705.884-3.372 1.666-5.003.135-.11.102-.407.34-.519.918 1.667 2.587 2.854 3.402 4.596.205 2.261.614 3.484 1.327 3.892.171.074 0 .778.137.926 0 .222.068.482-.033.741-.07.186-.034.408-.034.594v.222c.034.335.101.335.407.593.885.63 2.077 1.631 3.267.89.544-.965-.612-2.187-1.428-2.817-.272-.223-.75-.778-.682-1.15.443-.481.749-2.594.578-4.225-.068-.37-.135-.741-.272-1.037-.407-.852-1.325-2.039-2.108-2.89.101-.111.239-.26.407-.335 0-.815-.306-1.074-.712-1.667-.343-.593-1.123-1.742-1.704-2.113 0 0 0-.037-.578-.037-.034-.408.07-.742.17-1.186 0-.333.24-.148.307-.89.171-.63.101-.259.239-.889.134-.296.204-.593.204-1.075.509.186 1.53.148 1.973 0l.101.074c.138.038.171-.184.272-.221.783-.446 1.056-1.224 1.701-1.298 0 0 .343-.186.85 0 .205 0 .376.036.376-.186.034-.333.034-.592.205-.815.135.89.508 1.89 1.19 2.854l.68-.518c-.646-.852-1.053-1.815-1.123-2.928a.8.8 0 0 0 .138.222c.238 0 .373-.556.645-.519.034-.074.104-.408.171-.667h2.551l.917-.221v-.52l-.68-.073v-.593h-.17v-.668h-.407v.63l-1.055-.074v-.408h-.408v.37l-1.088-.11v-.556h-.41v.52l-1.6-.111v-.185h.002z" style="fill:#fff;fill-opacity:1;fill-rule:evenodd;stroke-width:1.0837"/><path d="m31.708 4-.024.016C16.321 4.186 4.001 16.596 4.001 32a27.94 27.94 0 0 0 28 28c15.276 0 27.593-12.12 27.963-27.304l.035-.696V10.001c0-3.324-2.676-6-6-6h-22Z" style="mix-blend-mode:normal;fill:none;stroke:#000;stroke-width:.4;stroke-linecap:round;stroke-linejoin:round;stroke-dasharray:none;stroke-opacity:1;filter:url(#c)" transform="translate(1.727 1.727)scale(.94202)"/><circle cx="32" cy="32.049" r="20" style="mix-blend-mode:normal;fill:none;stroke:#000;stroke-width:.4;stroke-linecap:round;stroke-linejoin:round;stroke-dasharray:none;stroke-opacity:1;filter:url(#d)" transform="translate(1.7 1.727)scale(.94202)"/><path d="M35.162 22.017c-.11 1.298-.977.747-1.916 1.455-.253-.039-.542-.039-.938-.039-.072-.865.218-1.022.36-1.18.578-.472.978-.236.978-.236.432-.08.828.04 1.516 0m2.166-2.125h-1.263v-.354h-.685v.196c-.074.039-.146.118-.218.157h-.071c-1.195-1.023-1.266 1.063-2.062.59-.072-.433-.036-.826-.036-1.338 1.374-.04.867-.433.471-.944-.143-.197-.217-.512-.253-.708-.324-1.297-1.661-2.084-3.61-1.257-1.266.51-.939 2.36-.831 3.62-.072.117-.218.078-.325.078-1.373.079-1.987 1.652-2.276 2.911.071 1.142-.072 2.4-.254 3.502-.181 1.101-.542 1.967-.578 3.029-.071.944.254 2.046.182 2.912-.76 2.44-1.302 4.052-1.698 6.65-.29.59-1.3 1.848-1.699 2.124-.107.196.072.63-.107.904-.325.512-.831.787-1.12 1.338.072.118-.435.236-.396.434.036.196.289.707.396.825.036.079.396-.118.396 0 .146.472.471 1.456.831 1.692 1.591.196 1.591.196 2.24 0 .361-1.142-1.227-.63-1.084-2.165 2.17-.471 2.854-1.14 3.72-3.619.397-1.81.94-3.58 1.77-5.311.143-.118.108-.433.36-.551.975 1.77 2.747 3.03 3.612 4.88.217 2.399.652 3.697 1.409 4.13.181.079 0 .826.146.983 0 .236.071.511-.036.787-.074.197-.036.433-.036.63v.236c.036.355.108.355.433.63.938.668 2.204 1.73 3.467.944.578-1.024-.65-2.321-1.516-2.99-.289-.236-.795-.826-.724-1.22.47-.512.795-2.754.614-4.486-.072-.392-.143-.787-.29-1.101-.431-.905-1.405-2.164-2.236-3.068.107-.118.253-.276.432-.355 0-.865-.325-1.14-.757-1.77-.363-.63-1.191-1.849-1.808-2.242 0 0 0-.04-.614-.04-.035-.433.074-.787.182-1.26 0-.353.253-.156.325-.944.181-.668.107-.275.253-.943.143-.315.217-.63.217-1.142.54.197 1.624.158 2.095 0l.107.079c.146.04.181-.196.289-.235.83-.473 1.12-1.3 1.805-1.378 0 0 .364-.197.903 0 .217 0 .399.039.399-.197.035-.354.035-.629.217-.866.143.945.54 2.007 1.263 3.03l.722-.55c-.686-.904-1.117-1.927-1.192-3.108a.8.8 0 0 0 .146.236c.253 0 .396-.59.685-.55.036-.08.11-.434.182-.71h2.708l.973-.234v-.55l-.72-.08v-.63H42.6v-.708h-.433v.67l-1.12-.08v-.432h-.432v.393l-1.156-.118v-.59h-.434v.551l-1.698-.117v-.196h0z" style="mix-blend-mode:normal;fill:none;fill-opacity:1;fill-rule:evenodd;stroke:#000;stroke-width:.2;stroke-linecap:round;stroke-linejoin:round;stroke-dasharray:none;stroke-opacity:1;filter:url(#e)" transform="translate(1.727 1.727)scale(.94202)"/></svg>