<svg xmlns="http://www.w3.org/2000/svg" xmlns:xlink="http://www.w3.org/1999/xlink" width="64" height="64"><defs><radialGradient xlink:href="#a" id="d" cx="77.874" cy="6.273" r="27.999" fx="77.874" fy="6.273" gradientTransform="matrix(0 2.93025 -2.93027 0 46.938 -198.725)" gradientUnits="userSpaceOnUse"/><radialGradient xlink:href="#b" id="e" cx="16.086" cy="48.994" r="18.84" fx="16.086" fy="48.994" gradientTransform="rotate(-30 -170.058 170.692)scale(3.23246)" gradientUnits="userSpaceOnUse"/><radialGradient xlink:href="#c" id="f" cx="16.086" cy="48.994" r="18.84" fx="16.086" fy="48.994" gradientTransform="rotate(-30 -170.057 170.69)scale(3.23246)" gradientUnits="userSpaceOnUse"/><linearGradient id="c"><stop offset="0" style="stop-color:#3668b2;stop-opacity:1"/><stop offset="1" style="stop-color:#5c7e8f;stop-opacity:1"/></linearGradient><linearGradient id="b"><stop offset="0" style="stop-color:#e1a100;stop-opacity:1"/><stop offset="1" style="stop-color:#e46d00;stop-opacity:1"/></linearGradient><linearGradient id="a"><stop offset="0" style="stop-color:#636363;stop-opacity:1"/><stop offset="1" style="stop-color:#131313;stop-opacity:1"/></linearGradient><filter id="h" width="1.406" height="1.406" x="-.203" y="-.203" style="color-interpolation-filters:sRGB"><feGaussianBlur stdDeviation="3.299"/></filter><filter id="g" width="1.208" height="1.208" x="-.104" y="-.104" style="color-interpolation-filters:sRGB"><feGaussianBlur stdDeviation="2.348"/></filter></defs><path d="m31.749 5.614-.022.015c-14.473.16-26.078 11.85-26.078 26.36a26.32 26.32 0 0 0 26.376 26.377c14.39 0 25.993-11.417 26.342-25.72l.033-.656V11.266a5.64 5.64 0 0 0-5.652-5.652H32.024Z" style="fill:url(#d);stroke-width:.942019"/><path d="M32.023 13.14c-10.405 0-18.84 8.437-18.84 18.842 0 9.875 10.158 17.082 7.272 14.815l4.537-9.951.934-17.518 19.658-.166.074-.174a18.78 18.78 0 0 0-13.635-5.847" style="baseline-shift:baseline;display:inline;overflow:visible;vector-effect:none;fill:url(#e);enable-background:accumulate;stop-color:#000;stop-opacity:1"/><path d="m45.66 18.98-.076.182-19.658.166-.934 17.518-4.537 9.95a18.84 18.84 0 0 0 11.568 4.026c10.405 0 18.84-8.435 18.84-18.84a18.84 18.84 0 0 0-4.88-12.654z" style="baseline-shift:baseline;display:inline;overflow:visible;vector-effect:none;fill:url(#f);enable-background:accumulate;stop-color:#000;stop-opacity:1"/><path d="m31.708 4-.024.016C16.321 4.186 4.001 16.596 4.001 32a27.94 27.94 0 0 0 28 28c15.276 0 27.593-12.12 27.963-27.304l.035-.696V10.001c0-3.324-2.676-6-6-6h-22Z" style="mix-blend-mode:normal;fill:none;stroke:#000;stroke-width:.4;stroke-linecap:round;stroke-linejoin:round;stroke-dasharray:none;stroke-opacity:1;filter:url(#g)" transform="translate(1.918 1.809)scale(.94202)"/><circle cx="32" cy="32.049" r="20" style="mix-blend-mode:normal;fill:none;stroke:#000;stroke-width:.4;stroke-linecap:round;stroke-linejoin:round;stroke-dasharray:none;stroke-opacity:1;filter:url(#h)" transform="translate(1.854 1.836)scale(.94202)"/><title/><path fill="#fff" d="M30.077 14.115c.524-.181 1.096-.03 1.577.207.335.216.671.434 1.047.575l.117.214-.058.145c.267.609.439 1.33.179 1.97-.177.216-.485.25-.735.333 0 .309.049.615.075.921.534.087.985-.284 1.513-.248.071-.295.127-.595.222-.884.109.191.113.412.115.628q.207.059.42.11l.001.21c2.313.014 4.625-.01 6.938.013l-.022.317.243.001c-.003-.42 0-.842-.001-1.262l.23-.007.006.993.203.248.151-.178c.176.164.076.39.068.591.648-.007 1.301.037 1.947-.016l.193-.141.266.104q.437-.009.875-.009l-.016.452c-.376-.006-.753-.014-1.123.05-.24-.206-.56-.14-.849-.148-.443.02-.901-.058-1.33.084-.256.07-.536.054-.762-.091-.054.134.029.435-.198.424-.892.011-1.783-.008-2.674.005a14 14 0 0 1-.366.185c-.129.384-.498.64-.812.874-.039.59.194 1.14.285 1.712q-.265.074-.526.16c-.25.588-.097 1.39-.674 1.801-.442.257-.735.817-1.332.729.303.252-.083.173-.043-.03-1.08-.095-1.988-.727-2.926-1.21a8 8 0 0 1-.184.782c.356.068.65.33.713.695.114.797-.113 1.587-.11 2.385.025.47-.176.899-.426 1.281-.22.248-.566-.007-.83-.043q-.09.174-.175.349c.075.312.107.637.211.943.588.649 1.122 1.352 1.533 2.128q.634 1.317 1.128 2.695c.032.178.2.242.347.306q.03.276.057.554l.176.252c.036 1.133-.103 2.261-.28 3.38-.108.504.187.996.067 1.504.014.26-.165.456-.25.686-.015.537-.042 1.08.017 1.615.041.393.374.646.6.939.245.26.45.611.823.704.351.105.685.256.994.455.095.233.078.48.033.723-.674.124-1.361.062-2.042.072-.524.028-.992-.254-1.501-.313-.494-.012-1.095.233-1.474-.209.16-.612.174-1.269.468-1.84.094-.647-.085-1.303-.047-1.955l-.226-.189c.04-.426-.17-.805-.24-1.213q-.067-.893-.169-1.783c-.054-.288.095-.552.299-.744.018-.333.063-.663.095-.994-.05-.215-.22-.374-.33-.558-.37.155-.868.081-1.087-.28q-.778-1.162-1.567-2.318c-.207-.013-.425.008-.618-.074-.223-.229-.34-.533-.482-.811-.203.228-.189.578-.43.787-.51.489-.646 1.208-.913 1.835-.204.407-.089.897-.317 1.294-.122.213-.427.256-.508.5-.106.263-.23.535-.477.695-.268.175-.339.509-.458.784-.11.254.052.52.015.782-.17.828-.698 1.52-.92 2.332-.101.365-.246.776-.672.854-.484.864-.75 1.921-.477 2.894.168.305.16.649.107.986-.769.06-1.557.163-2.312-.052-.177-.35-.152-.763-.115-1.142.233-.996.542-1.975.732-2.981-.237-.21-.182-.532-.177-.813-.008-.525.35-.946.598-1.377.093-.442.05-.917.278-1.323.269-.508.496-1.057.911-1.467.08-.362.347-.635.454-.984.115-.307-.086-.62-.045-.935.098-.954.272-1.9.423-2.848-.285-.237-.193-.615-.284-.936q.067-.189.169-.364l-.213-.197c.07-.337.05-.94.567-.831.032-1.116-.355-2.195-.225-3.312l.205.243-.037-.378c.217-.114.447-.203.688-.248-.393-.051-.776-.151-1.161-.24-.093-.246-.042-.506-.007-.757.15-.845.204-1.702.235-2.56.436-.15.916-.022 1.342-.225-.132-1.071-.165-2.19.216-3.218.307-.876.893-1.72 1.808-2.028.432-.103.976-.22 1.282.2l.251-.233c-.697-1.385.136-3.408 1.72-3.693m5.583 6.006c-.184.113-.365.241-.171.446q-.141.084-.284.162c-.15.115-.485.18-.446.412q.251.406.432.847a3.2 3.2 0 0 0 .856-1.134l.167-.169a1.9 1.9 0 0 0-.14-.57q-.206.005-.414.006" style="stroke:none;stroke-width:.82142"/></svg>