<svg xmlns="http://www.w3.org/2000/svg" xmlns:xlink="http://www.w3.org/1999/xlink" width="64" height="64"><defs><filter id="e" width="1.118" height="1.084" x="-.059" y="-.042" style="color-interpolation-filters:sRGB"><feGaussianBlur stdDeviation=".522"/></filter><filter id="d" width="1.137" height="1.137" x="-.069" y="-.069" style="color-interpolation-filters:sRGB"><feGaussianBlur stdDeviation="1.058"/></filter><filter id="c" width="1.208" height="1.208" x="-.104" y="-.104" style="color-interpolation-filters:sRGB"><feGaussianBlur stdDeviation="2.348"/></filter><radialGradient xlink:href="#a" id="b" cx="69.588" cy="14.079" r="27.999" fx="69.588" fy="14.079" gradientTransform="matrix(0 2.93025 -2.93027 0 46.914 -198.706)" gradientUnits="userSpaceOnUse"/><linearGradient id="a"><stop offset="0" style="stop-color:#60e5e8;stop-opacity:1"/><stop offset="1" style="stop-color:#0090ff;stop-opacity:1"/></linearGradient></defs><path d="m31.724 5.633-.022.015c-14.472.16-26.078 11.85-26.078 26.36A26.32 26.32 0 0 0 32 58.386c14.391 0 25.993-11.417 26.342-25.72l.033-.656V11.285a5.64 5.64 0 0 0-5.652-5.652H31.999Z" style="fill:url(#b);stroke-width:.942019"/><circle cx="31.999" cy="32.001" r="18.84" style="fill:#353535;stroke-width:.942019"/><path d="M34.98 22.598c-.105 1.223-.921.704-1.805 1.372-.239-.037-.511-.037-.885-.037-.067-.815.205-.964.34-1.112.545-.445.92-.222.92-.222.408-.075.781.036 1.43 0m2.04-2.001h-1.19v-.334h-.646v.185c-.07.036-.137.111-.205.148h-.067c-1.126-.964-1.193 1.001-1.942.556-.068-.408-.034-.779-.034-1.26 1.294-.038.817-.408.444-.89-.135-.186-.205-.482-.239-.667-.305-1.222-1.565-1.963-3.4-1.184-1.193.481-.885 2.224-.784 3.41-.067.11-.205.074-.306.074-1.293.074-1.871 1.556-2.144 2.742.068 1.075-.067 2.261-.238 3.298-.171 1.038-.511 1.854-.545 2.854-.067.89.239 1.927.171 2.743-.716 2.298-1.227 3.817-1.6 6.264-.272.556-1.223 1.742-1.6 2.001-.1.185.068.594-.1.852-.306.482-.784.742-1.056 1.26.068.112-.41.223-.373.409.034.185.272.666.373.778.034.074.374-.112.374 0 .137.444.443 1.37.783 1.593 1.498.185 1.498.185 2.11 0 .34-1.075-1.156-.593-1.022-2.039 2.043-.444 2.689-1.074 3.505-3.41.373-1.704.884-3.372 1.667-5.003.135-.11.101-.407.34-.519.917 1.668 2.587 2.855 3.401 4.597.205 2.26.615 3.483 1.328 3.891.17.074 0 .778.137.926 0 .223.068.482-.034.742-.07.185-.033.408-.033.593v.222c.033.335.101.335.407.593.884.63 2.077 1.631 3.266.89.545-.965-.611-2.187-1.428-2.817-.272-.222-.749-.778-.682-1.149.444-.482.75-2.594.578-4.225-.067-.37-.134-.742-.272-1.038-.407-.852-1.325-2.038-2.107-2.89.1-.111.238-.26.407-.334 0-.815-.306-1.075-.713-1.668-.342-.593-1.122-1.741-1.703-2.112 0 0 0-.038-.578-.038-.034-.407.07-.741.17-1.186 0-.333.239-.147.307-.89.17-.629.1-.259.238-.888.135-.297.205-.593.205-1.076.508.186 1.53.149 1.973 0l.1.075c.138.037.172-.185.273-.222.783-.446 1.055-1.224 1.7-1.298 0 0 .343-.185.85 0 .206 0 .377.037.377-.185.033-.334.033-.593.205-.816.134.89.508 1.89 1.19 2.855l.68-.518c-.646-.852-1.053-1.816-1.123-2.928a.8.8 0 0 0 .137.222c.239 0 .373-.556.646-.52.033-.073.104-.407.17-.667h2.552l.916-.22v-.52l-.679-.074v-.593h-.17v-.667h-.408v.63l-1.055-.074v-.408h-.407v.37l-1.089-.11v-.557h-.41v.52l-1.599-.111V20.6h.001z" style="fill:#fff;fill-opacity:1;fill-rule:evenodd;stroke-width:1.0837"/><path d="m31.708 4-.024.016C16.321 4.186 4.001 16.596 4.001 32a27.94 27.94 0 0 0 28 28c15.276 0 27.593-12.12 27.963-27.304l.035-.696V10.001c0-3.324-2.676-6-6-6h-22Z" style="mix-blend-mode:normal;fill:none;stroke:#000;stroke-width:.4;stroke-linecap:round;stroke-linejoin:round;stroke-dasharray:none;stroke-opacity:1;filter:url(#c)" transform="translate(1.855 1.855)scale(.94202)"/><circle cx="32" cy="32.049" r="20" style="mix-blend-mode:normal;fill:none;stroke:#000;stroke-width:.4;stroke-linecap:round;stroke-linejoin:round;stroke-dasharray:none;stroke-opacity:1;filter:url(#d)" transform="translate(1.83 1.855)scale(.94202)"/><path d="M35.162 22.017c-.11 1.298-.977.747-1.916 1.455-.253-.039-.542-.039-.938-.039-.072-.865.218-1.022.36-1.18.578-.472.978-.236.978-.236.432-.08.828.04 1.516 0m2.166-2.125h-1.263v-.354h-.685v.196c-.074.039-.146.118-.218.157h-.071c-1.195-1.023-1.266 1.063-2.062.59-.072-.433-.036-.826-.036-1.338 1.374-.04.867-.433.471-.944-.143-.197-.217-.512-.253-.708-.324-1.297-1.661-2.084-3.61-1.257-1.266.51-.939 2.36-.831 3.62-.072.117-.218.078-.325.078-1.373.079-1.987 1.652-2.276 2.911.071 1.142-.072 2.4-.254 3.502-.181 1.101-.542 1.967-.578 3.029-.071.944.254 2.046.182 2.912-.76 2.44-1.302 4.052-1.698 6.65-.29.59-1.3 1.848-1.699 2.124-.107.196.072.63-.107.904-.325.512-.831.787-1.12 1.338.072.118-.435.236-.396.434.036.196.289.707.396.825.036.079.396-.118.396 0 .146.472.471 1.456.831 1.692 1.591.196 1.591.196 2.24 0 .361-1.142-1.227-.63-1.084-2.165 2.17-.471 2.854-1.14 3.72-3.619.397-1.81.94-3.58 1.77-5.311.143-.118.108-.433.36-.551.975 1.77 2.747 3.03 3.612 4.88.217 2.399.652 3.697 1.409 4.13.181.079 0 .826.146.983 0 .236.071.511-.036.787-.074.197-.036.433-.036.63v.236c.036.355.108.355.433.63.938.668 2.204 1.73 3.467.944.578-1.024-.65-2.321-1.516-2.99-.289-.236-.795-.826-.724-1.22.47-.512.795-2.754.614-4.486-.072-.392-.143-.787-.29-1.101-.431-.905-1.405-2.164-2.236-3.068.107-.118.253-.276.432-.355 0-.865-.325-1.14-.757-1.77-.363-.63-1.191-1.849-1.808-2.242 0 0 0-.04-.614-.04-.035-.433.074-.787.182-1.26 0-.353.253-.156.325-.944.181-.668.107-.275.253-.943.143-.315.217-.63.217-1.142.54.197 1.624.158 2.095 0l.107.079c.146.04.181-.196.289-.235.83-.473 1.12-1.3 1.805-1.378 0 0 .364-.197.903 0 .217 0 .399.039.399-.197.035-.354.035-.629.217-.866.143.945.54 2.007 1.263 3.03l.722-.55c-.686-.904-1.117-1.927-1.192-3.108a.8.8 0 0 0 .146.236c.253 0 .396-.59.685-.55.036-.08.11-.434.182-.71h2.708l.973-.234v-.55l-.72-.08v-.63H42.6v-.708h-.433v.67l-1.12-.08v-.432h-.432v.393l-1.156-.118v-.59h-.434v.551l-1.698-.117v-.196h0z" style="mix-blend-mode:normal;fill:none;fill-opacity:1;fill-rule:evenodd;stroke:#000;stroke-width:.2;stroke-linecap:round;stroke-linejoin:round;stroke-dasharray:none;stroke-opacity:1;filter:url(#e)" transform="translate(1.855 1.855)scale(.94202)"/></svg>