<svg xmlns="http://www.w3.org/2000/svg" width="64" height="64"><path d="M32.15 5.444v.003a6.341 6.317 0 0 0-3.321.84L10.17 17.02A6.341 6.317 0 0 0 7 22.491v21.462a6.341 6.317 0 0 0 3.171 5.47l18.658 10.73a6.341 6.317 0 0 0 6.342 0l18.658-10.73A6.341 6.317 0 0 0 57 43.952V22.491a6.341 6.317 0 0 0-3.171-5.472L35.17 6.288a6.341 6.317 0 0 0-3.022-.844" style="opacity:.2"/><path d="M32.15 4.444v.003a6.341 6.317 0 0 0-3.321.84L10.17 16.02A6.341 6.317 0 0 0 7 21.491v21.462a6.341 6.317 0 0 0 3.171 5.47l18.658 10.73a6.341 6.317 0 0 0 6.342 0l18.658-10.73A6.341 6.317 0 0 0 57 42.952V21.491a6.341 6.317 0 0 0-3.171-5.472L35.17 5.288a6.341 6.317 0 0 0-3.022-.844" style="fill:#4f4f4f"/><path d="M32 4.45a6.341 6.317 0 0 0-3.171.838L10.17 16.019A6.341 6.317 0 0 0 7 21.491v21.462a6.341 6.317 0 0 0 3.171 5.47l18.658 10.73a6.341 6.317 0 0 0 3.171.841Z" style="opacity:.1"/><path d="M32.15 4.444v.003a6.36 6.36 0 0 0-3.321.84L10.17 16.02a6.33 6.33 0 0 0-2.317 2.311 6.33 6.33 0 0 0 2.317 2.314l18.66 10.631a6.36 6.36 0 0 0 6.342 0L53.83 20.644a6.33 6.33 0 0 0 2.317-2.31 6.33 6.33 0 0 0-2.317-2.315L35.17 5.288a6.36 6.36 0 0 0-3.022-.844" style="fill:#5a5a5a"/><path d="M32.148 4.443v.004a6.341 6.317 0 0 0-3.32.84L10.172 16.02A6.341 6.317 0 0 0 7 21.49v1a6.341 6.317 0 0 1 3.172-5.47L28.828 6.287a6.341 6.317 0 0 1 3.32-.84v-.004a6.341 6.317 0 0 1 3.024.844L53.828 17.02A6.341 6.317 0 0 1 57 22.49v-1a6.341 6.317 0 0 0-3.172-5.47L35.172 5.287a6.341 6.317 0 0 0-3.024-.844" style="fill:#fff;opacity:.1"/><ellipse cx="32" cy="17.5" rx="8" ry="5.5" style="fill:#717171"/><path d="M31 6.89h2v11.111h-2z" style="fill:#afafaf"/><circle cx="32" cy="9" r="6" style="opacity:.2"/><circle cx="32" cy="8" r="6" style="fill:#e53f3f"/><path d="M47.027 27.044c-.366 1.753-.268 3.571-.372 5.354-.077 1.605-.018 3.226-.258 4.816-.37-.302-.116-1.946-.22-2.713-.137-.683.224-2.25-.393-2.41-.36 1.615-.124 3.292-.276 4.929-.324-.371-.044-1.935-.208-2.728-.37-.918-.526.902-.466 1.23-.116.701.183 2.074-.298 2.366-.369-1.908-.102-3.898-.548-5.793-.691.151-.607 1.802-.933 2.553-.236.619-.366 2.228-1.197 2.02-.118-.986.07-2.05-.132-2.99-.264 1.908-.09 3.875-.407 5.783-.36-.343-.077-1.837-.188-2.597.113-.38-.242-1.642-.324-.593-.138 1.581.056 3.213-.38 4.755-.564 1.143-.312-.463-.541-.73-.217.338-.325 2.345-.463 1.082-.101-.463.361-2.012-.201-1.822-.337.928-.007 2.17-.503 2.953-.176-.398-.305-2.355-.713-1.15-.077.565.05 2.342-.833 1.9-.446-.496-.398 1.128-.946 1.297-.297.396-1.63.866-1.429 1.15.7-.342 1.824-1.22 2.19-.085.08-.58.955-1.475.962-.317-.119.532.245 1.708.484.557.17-.53.009-1.44.413-1.732.35.618-.057 2.264.565 2.318.3-.78-.279-2.004.197-2.546-.02.532.36 1.734.383.547-.28-.865.61-1.219.616-.195.19 1.346.084 2.73.262 4.066.46-.788.214-1.954.284-2.895-.12-.47.161-1.93.265-.66.157 1.59.108 3.195.289 4.782.234-.894.054-1.98.127-2.948.12-1.295 1.238-.297 1.25.484.15.584.751 2.613.996.995.27-1.992.153-4.02.45-6.008.383-.56.243 1.114.288 1.428.067.37-.148 2.143.402 1.598.3-1.088-.013-2.264.238-3.351.206.815.051 1.778.116 2.653.094.466-.131 2.037.398 1.863.32-1.342.14-2.751.228-4.121-.05-.471.111-2.407.293-1.022.218 2.873.093 5.77.444 8.632.376.8.342-.95.352-1.252.06-2.262-.11-4.532.001-6.788.306.424.102 1.994.187 2.82.12.806-.175 1.868.22 2.532.518-.93.302-2.084.383-3.114.044-1.58-.034-3.168.102-4.741.39.286.158 1.81.291 2.532-.094.661.374 1.089.429.176.147-1.257-.07-2.556.236-3.789.571-.246.317 1.44.448 1.936-.048.496.175 1.8.405.606.224-1.086.075-2.223.278-3.3 1.005.193 1.303-.972 1.862-1.558.381-.427.975-.621 1.435-.963.45-.173 1.095-.865.225-.366-.554.254-1.084.662-1.645.853-.694-.256-1.487-.283-1.833.532-.301-.508-.06-1.93-.288-2.74-.385-1.24-.462.754-.457 1.201-.128.615.12 1.987-.478 2.118-.244-1.203-.017-2.46-.23-3.667-.608-.212-.323 1.577-.445 2.178.046.402-.173 2.326-.285 1.037-.076-2.09.031-4.19-.148-6.275-.38-1.334-.574.68-.485 1.125-.047 1.372.007 2.75-.116 4.118-.286.05-.073-1.447-.127-1.964.013-1.943.097-3.89-.008-5.831.02-.135-.148-.385-.22-.121" style="fill:#1b84e4"/><path d="m11.517 32.726 1.252-2.982 1.4 7.22.941-9.242 2.007 10.011 1.665-8.713.878 11.766.997-12.412 1.277 11.472 1.822-4.925 1.035 5.53 1.002-3.61 1.312 4.477.691-1.59" style="fill:none;stroke:#fff;stroke-width:.70083147;stroke-linecap:square"/><path d="m9.952 29.519 19.096 10.927" style="fill:none;stroke:#fff;stroke-width:.70083147"/><path d="m27.483 47.383-1.252 2.981-1.4-7.22-.941 9.242-2.007-10.01-1.665 8.713-.878-11.767-.997 12.413-1.277-11.473-1.822 4.926-1.035-5.531-1.002 3.61-1.312-4.477-.691 1.591" style="fill:none;stroke:#fff;stroke-width:.70083147;stroke-linecap:square"/><path d="M29.048 50.59 9.952 39.662" style="fill:none;stroke:#fff;stroke-width:.70083147"/><path d="M32 2a6 6 0 0 0-6 6 6 6 0 0 0 .025.498A6 6 0 0 1 32 3a6 6 0 0 1 5.975 5.502A6 6 0 0 0 38 8a6 6 0 0 0-6-6" style="fill:#fff;opacity:.2"/></svg>