<svg xmlns="http://www.w3.org/2000/svg" width="64" height="64"><rect width="56" height="56" x="4" y="5" rx="14" ry="14" style="opacity:.2"/><rect width="56" height="56" x="4" y="4" rx="14" ry="14" style="fill:#7a7c77"/><path d="M29.434 15C24.762 15 21 18.706 21 23.309V42.69c0 4.604 3.762 8.31 8.434 8.31h5.62c3.684 0 6.792-2.77 7.946-6H29.832C28.177 45 27 43.923 27 42.293V23.707C27 22.077 28.177 21 29.832 21H43c-1.154-3.23-4.262-6-7.945-6ZM32 25v10.27c0 1.683.556 3.1 1.482 4.046.927.947 2.104 1.395 3.206 1.616 1.1.22 2.166.224 3.044.185S41.39 41 41.5 41H43V25h-3v13.094c-.144.01-.242.018-.4.025-.752.033-1.599.016-2.325-.129-.725-.145-1.29-.406-1.648-.771-.357-.366-.627-.863-.627-1.95V25Z" style="opacity:.2"/><path d="M29.433 14C24.761 14 21 17.705 21 22.308v19.384C21 46.295 24.761 50 29.433 50h5.622c3.684 0 6.79-2.77 7.945-6H29.833C28.178 44 27 42.922 27 41.292V22.708C27 21.078 28.178 20 29.833 20H43c-1.154-3.23-4.261-6-7.945-6z" style="fill:#ff9800"/><path d="M33.5 24v10.27c0 5.538 6.615 4.23 8 4.23V24" style="fill:none;stroke:#ff9800;stroke-width:3"/><path d="M18 4C10.244 4 4 10.244 4 18v1c0-7.756 6.244-14 14-14h28c7.756 0 14 6.244 14 14v-1c0-7.756-6.244-14-14-14z" style="fill:#fff;opacity:.1"/><path d="M29.434 14C24.762 14 21 17.706 21 22.309v1C21 18.706 24.762 15 29.434 15h5.62c3.296 0 6.12 2.22 7.507 5H43c-1.154-3.23-4.262-6-7.945-6zM32 24v1h3v-1zm8 0v1h3v-1zm-5 10.27v1c0 1.086.27 1.583.627 1.949.357.365.923.626 1.648.771.726.145 1.573.162 2.325.13.158-.008.256-.016.4-.026v-1c-.144.01-.242.018-.4.025-.752.033-1.599.016-2.325-.129-.725-.145-1.29-.406-1.648-.771-.357-.366-.627-.863-.627-1.95m-8 7.023v1C27 43.923 28.177 45 29.832 45h12.729c.163-.328.317-.66.439-1H29.832C28.177 44 27 42.923 27 41.293" style="opacity:.2;fill:#fff"/></svg>