<svg xmlns="http://www.w3.org/2000/svg" width="64" height="64"><path d="M23.091 5 4 24.089V58.2C4 59.751 5.249 61 6.8 61h34.109L60 41.911V7.8C60 6.249 58.751 5 57.2 5H32Z" style="opacity:.2"/><path d="M23.091 4 4 23.089V57.2C4 58.751 5.249 60 6.8 60h34.109L60 40.911V6.8C60 5.249 58.751 4 57.2 4H32Z" style="fill:#0ca9e3"/><path d="M29.636 17A13.607 13.607 0 0 0 16 30.636v2.728A13.607 13.607 0 0 0 29.636 47H44v-8H29.636C26.473 39 24 36.527 24 33.364v-2.728C24 27.473 26.473 25 29.636 25H44v-8z" style="opacity:.2"/><path d="M29.636 16A13.607 13.607 0 0 0 16 29.636v2.728A13.607 13.607 0 0 0 29.636 46H44v-8H29.636C26.473 38 24 35.527 24 32.364v-2.728C24 26.473 26.473 24 29.636 24H44v-8z" style="fill:#fff"/><path d="M23.09 4 4 23.09v1L23.09 5H57.2C58.75 5 60 6.25 60 7.8v-1C60 5.25 58.75 4 57.2 4z" style="opacity:.2;fill:#fff"/></svg>