<svg xmlns="http://www.w3.org/2000/svg" width="64" height="64"><path d="M60 58.2V31H4v27.2C4 59.751 5.249 61 6.8 61h50.4c1.551 0 2.8-1.249 2.8-2.8" style="opacity:.2"/><rect width="56" height="56" x="4" y="4" rx="2.8" ry="2.8" style="fill:#c5c5cc"/><path d="M60 57.2V31H4v26.2C4 58.751 5.249 60 6.8 60h50.4c1.551 0 2.8-1.249 2.8-2.8" style="fill:#8f8f8f"/><path d="M16 8h32v19H16m4 10h24v18H20m0-18" style="fill:#3e3e3e"/><path d="M10 41v4H6v4h4v4h4v-4h4v-4h-4v-4z" style="opacity:.2"/><g style="fill:#e4e4e4" transform="translate(-7.36 22.76)scale(1.33333)"><rect width="3" height="9" x="13.02" y="12.93" ry="0"/><rect width="3" height="9" x="15.93" y="-19.02" ry="0" transform="rotate(90)"/></g><path d="M4 31h56v2H4zm2-6h8v2H6zm0-4h8v2H6zm0-4h8v2H6zm44 8h8v2h-8zm0-4h8v2h-8zm0-4h8v2h-8z" style="opacity:.2"/><path d="M6.8 4C5.25 4 4 5.25 4 6.8v1C4 6.25 5.25 5 6.8 5h50.4C58.75 5 60 6.25 60 7.8v-1C60 5.25 58.75 4 57.2 4z" style="opacity:.2;fill:#fff"/><circle cx="47" cy="48" r="15" style="opacity:.2"/><circle cx="47" cy="47" r="15" style="fill:#5c6f77"/><path d="m45 39-.178 2.107a6.3 6.3 0 0 0-1.836 1.063l-1.916-.902-2 3.464 1.74 1.207A6.3 6.3 0 0 0 40.714 47a6.3 6.3 0 0 0 .092 1.064l-1.735 1.204 2 3.464 1.913-.898a6.3 6.3 0 0 0 1.84 1.055L45 55h4l.174-2.107a6.3 6.3 0 0 0 1.84-1.063l1.914.902 2-3.464-1.738-1.207A6.3 6.3 0 0 0 53.287 47a6.3 6.3 0 0 0-.092-1.064l1.735-1.204-2-3.464-1.912.898a6.3 6.3 0 0 0-1.84-1.055L49 39Zm1.928 5H47a3 3 0 0 1 3 3 3 3 0 0 1-3 3 3 3 0 0 1-3-3 3 3 0 0 1 2.928-3" style="fill:#fff"/></svg>