<svg xmlns="http://www.w3.org/2000/svg" width="64" height="64"><defs><filter id="b" width="1.143" height="1.143" x="-.071" y="-.071" style="color-interpolation-filters:sRGB"><feGaussianBlur stdDeviation="1.604"/></filter><filter id="c" width="1.098" height="1.163" x="-.049" y="-.081" style="color-interpolation-filters:sRGB"><feGaussianBlur stdDeviation=".583"/></filter><radialGradient id="a" cx="-159.431" cy="15.463" r="64.707" fx="-159.431" fy="15.463" gradientTransform="matrix(-.89413 0 0 .96305 -80.728 49.279)" gradientUnits="userSpaceOnUse"><stop offset="0" style="stop-color:#ff8200;stop-opacity:1"/><stop offset="1" style="stop-color:#ff6b5b;stop-opacity:1"/></radialGradient></defs><path d="M20.8 4h22.4C52.5 4 60 11.5 60 20.8v22.4C60 52.5 52.5 60 43.2 60H20.8C11.5 60 4 52.5 4 43.2V20.8C4 11.5 11.5 4 20.8 4" class="st1" style="fill:url(#a)"/><path d="M20.8 4h22.4C52.5 4 60 11.5 60 20.8v22.4C60 52.5 52.5 60 43.2 60H20.8C11.5 60 4 52.5 4 43.2V20.8C4 11.5 11.5 4 20.8 4Z" class="st1" style="fill:none;stroke:#000;stroke-opacity:1;stroke-width:.3;stroke-dasharray:none;filter:url(#b)"/><path d="M17 35.624v10.752A3.624 3.624 45 0 0 20.624 50h22.752A3.624 3.624 135 0 0 47 46.376V35.624A3.624 3.624 45 0 0 43.376 32H20.624A3.624 3.624 135 0 0 17 35.624M20.684 35h22.632a.684.684 45 0 1 .684.684v10.632a.684.684 135 0 1-.684.684H20.684a.684.684 45 0 1-.684-.684V35.684a.684.684 135 0 1 .684-.684M22 37.438V44.5a1.5 1.5 45 0 0 1.5 1.5 1.5 1.5 134.973 0 0 1.5-1.5v-3.42a.293.293 159.408 0 1 .513-.193l1.071 1.225a1.216 1.216 0 0 0 1.832 0l1.071-1.225a.293.293 20.592 0 1 .513.192v3.42A1.5 1.5 45 0 0 31.5 46a1.5 1.5 134.973 0 0 1.5-1.5v-7.062A1.44 1.44 45 0 0 31.562 36h-.77a1.74 1.74 155.592 0 0-1.313.596L27.5 38.857l-1.979-2.261A1.74 1.74 24.408 0 0 24.21 36h-.77A1.44 1.44 135 0 0 22 37.438m15 .051v4.245a.437.437 137.385 0 1-.473.435l-.816-.068a.445.445 114.885 0 0-.352.758l2.282 2.282a1.215 1.215 0 0 0 1.718 0l2.282-2.282a.445.445 65.115 0 0-.352-.758l-.816.068a.437.437 42.615 0 1-.473-.435v-4.245A1.49 1.49 45 0 0 38.51 36h-.02A1.49 1.49 135 0 0 37 37.49" style="opacity:.853153;fill:#fff;fill-opacity:1" transform="translate(-16.024 -29.531)scale(1.50076)"/><path d="M17 35.624v10.752A3.624 3.624 45 0 0 20.624 50h22.752A3.624 3.624 135 0 0 47 46.376V35.624A3.624 3.624 45 0 0 43.376 32H20.624A3.624 3.624 135 0 0 17 35.624ZM20.684 35h22.632a.684.684 45 0 1 .684.684v10.632a.684.684 135 0 1-.684.684H20.684a.684.684 45 0 1-.684-.684V35.684a.684.684 135 0 1 .684-.684ZM22 37.438V44.5a1.5 1.5 45 0 0 1.5 1.5 1.5 1.5 134.973 0 0 1.5-1.5v-3.42a.293.293 159.408 0 1 .513-.193l1.071 1.225a1.216 1.216 0 0 0 1.832 0l1.071-1.225a.293.293 20.592 0 1 .513.192v3.42A1.5 1.5 45 0 0 31.5 46a1.5 1.5 134.973 0 0 1.5-1.5v-7.062A1.44 1.44 45 0 0 31.562 36h-.77a1.74 1.74 155.592 0 0-1.313.596L27.5 38.857l-1.979-2.261A1.74 1.74 24.408 0 0 24.21 36h-.77A1.44 1.44 135 0 0 22 37.438Zm15 .051v4.245a.437.437 137.385 0 1-.473.435l-.816-.068a.445.445 114.885 0 0-.352.758l2.282 2.282a1.215 1.215 0 0 0 1.718 0l2.282-2.282a.445.445 65.115 0 0-.352-.758l-.816.068a.437.437 42.615 0 1-.473-.435v-4.245A1.49 1.49 45 0 0 38.51 36h-.02A1.49 1.49 135 0 0 37 37.49Z" style="opacity:.853153;fill:none;fill-opacity:1;stroke:red;stroke-opacity:1;stroke-width:.13326598;stroke-dasharray:none;filter:url(#c)" transform="translate(-16.024 -29.531)scale(1.50076)"/></svg>