<svg xmlns="http://www.w3.org/2000/svg" width="64" height="64"><path d="M5.85 4A2.843 2.843 0 0 0 3 6.85v51.3C3 59.73 4.27 61 5.85 61h51.3c1.58 0 2.85-1.27 2.85-2.85V6.85C60 5.27 58.73 4 57.15 4H10Z" style="opacity:.2"/><path d="M60 57.15V5.85A2.844 2.844 0 0 0 57.15 3H5.85A2.844 2.844 0 0 0 3 5.85v48.668l1.434 2.704c.74 1.395.196 1.371 1.774 1.416l46.042-.063L54.728 60h2.422A2.844 2.844 0 0 0 60 57.15" style="fill:#e4e4e4"/><path d="M10 3v33H3v6h20v12H3v3.15A2.844 2.844 0 0 0 5.85 60H55V27h5v-6H49v33H29V36H16V3Zm13 0v26h13v18.175h6V14h18V8H36v15h-7V3Z" style="fill:#239623"/><path d="M10 3v1h6V3zm13 0v1h6V3zm13 5v1h24V8zm13 13v1h11v-1zm-20 2v1h7v-1zM3 36v1h7v-1zm13 0v1h13v-1zM3 54v1h20v-1zm26 0v1h20v-1z" style="opacity:.2"/><path d="M5.85 3A2.843 2.843 0 0 0 3 5.85v1C3 5.27 4.27 4 5.85 4H10V3zM16 3v1h7V3zm13 0v1h28.15C58.73 4 60 5.27 60 6.85v-1C60 4.27 58.73 3 57.15 3z" style="fill:#fff;opacity:.2"/></svg>