<svg xmlns="http://www.w3.org/2000/svg" width="64" height="64"><path d="M37.406 7.008c-.556.06-.981.466-1.418 1.315l-1.459 2.834A23 23 0 0 0 32 11a23 23 0 0 0-2.523.17L28.01 8.325c-.747-1.314-1.416-1.389-2.592-1.075a6277 6277 0 0 1-7.326 3.035c-1.225.508-1.54 1.138-1.074 2.592l.966 3.024a22.5 22.5 0 0 0-3.564 3.592l-3.043-.973c-1.454-.465-2.084-.153-2.592 1.072A7789 7789 0 0 1 5.75 26.92c-.508 1.225-.285 1.893 1.072 2.592l2.834 1.459A23 23 0 0 0 9.5 33.5a23 23 0 0 0 .17 2.522l-2.848 1.469c-1.357.699-1.58 1.366-1.072 2.591q1.52 3.663 3.035 7.327c.508 1.225 1.138 1.539 2.592 1.074l3.023-.969a22.5 22.5 0 0 0 3.592 3.566l-.974 3.043c-.466 1.455-.151 2.085 1.074 2.592q3.665 1.516 7.328 3.035c1.225.508 1.892.285 2.592-1.072l1.459-2.834A23 23 0 0 0 32 56a23 23 0 0 0 2.521-.17l1.467 2.848c.7 1.357 1.367 1.58 2.592 1.072q3.663-1.519 7.328-3.035c1.225-.507 1.54-1.137 1.074-2.592l-.968-3.023a22.5 22.5 0 0 0 3.566-3.592l3.043.973c1.454.465 2.084.153 2.592-1.072q1.515-3.665 3.035-7.329c.507-1.225.285-1.892-1.072-2.591l-2.834-1.459a23 23 0 0 0 .156-2.53 23 23 0 0 0-.17-2.521l2.848-1.469c1.357-.699 1.579-1.367 1.072-2.592q-1.52-3.661-3.035-7.326c-.508-1.225-1.138-1.539-2.592-1.074l-3.023.969a22.5 22.5 0 0 0-3.592-3.567l.974-3.043c.466-1.454.151-2.084-1.074-2.592Q42.243 8.77 38.58 7.25c-.459-.19-.84-.278-1.174-.242" style="opacity:.2"/><path d="M37.406 6.008c-.556.06-.981.466-1.418 1.314l-1.459 2.835A23 23 0 0 0 32 10a23 23 0 0 0-2.523.17L28.01 7.324c-.747-1.314-1.416-1.388-2.592-1.074q-3.662 1.52-7.326 3.035c-1.225.508-1.54 1.138-1.074 2.592l.966 3.024a22.5 22.5 0 0 0-3.564 3.592l-3.043-.973c-1.454-.465-2.084-.153-2.592 1.072A7789 7789 0 0 1 5.75 25.92c-.508 1.225-.285 1.893 1.072 2.592l2.834 1.459A23 23 0 0 0 9.5 32.5a23 23 0 0 0 .17 2.522l-2.848 1.469c-1.357.699-1.58 1.366-1.072 2.591q1.52 3.663 3.035 7.327c.508 1.225 1.138 1.539 2.592 1.074l3.023-.969a22.5 22.5 0 0 0 3.592 3.566l-.974 3.043c-.466 1.455-.151 2.085 1.074 2.592q3.665 1.516 7.328 3.035c1.225.508 1.892.285 2.592-1.072l1.459-2.834A23 23 0 0 0 32 55a23 23 0 0 0 2.521-.17l1.467 2.848c.7 1.357 1.367 1.58 2.592 1.072q3.663-1.519 7.328-3.035c1.225-.507 1.54-1.137 1.074-2.592l-.968-3.023a22.5 22.5 0 0 0 3.566-3.592l3.043.973c1.454.465 2.084.153 2.592-1.072q1.515-3.665 3.035-7.329c.507-1.225.285-1.892-1.072-2.591l-2.834-1.459a23 23 0 0 0 .156-2.53 23 23 0 0 0-.17-2.521l2.848-1.469c1.357-.699 1.579-1.367 1.072-2.592q-1.52-3.661-3.035-7.326c-.508-1.225-1.138-1.539-2.592-1.074l-3.023.969a22.5 22.5 0 0 0-3.592-3.567l.974-3.043c.466-1.454.151-2.084-1.074-2.592Q42.243 7.77 38.58 6.25c-.459-.19-.84-.278-1.174-.242" style="fill:#e97e10"/><path d="M37.406 6.008c-.556.06-.981.466-1.418 1.314l-1.459 2.834A23 23 0 0 0 32 10a23 23 0 0 0-2.523.17L28.01 7.324c-.747-1.314-1.416-1.388-2.592-1.074q-3.662 1.519-7.326 3.035c-1.072.444-1.446.983-1.211 2.084.141-.476.531-.802 1.211-1.084q3.664-1.514 7.326-3.035c1.176-.314 1.845-.24 2.592 1.074l1.467 2.846A23 23 0 0 1 32 11a23 23 0 0 1 2.529.156l1.459-2.834c.437-.848.862-1.253 1.418-1.314.334-.037.715.052 1.174.242q3.663 1.52 7.328 3.035c.68.282 1.07.608 1.211 1.084.235-1.101-.139-1.64-1.211-2.084Q42.243 7.77 38.58 6.25c-.459-.19-.84-.279-1.174-.242m-19.67 9.113a22.5 22.5 0 0 0-3.316 3.371l-3.043-.972c-1.454-.465-2.084-.153-2.592 1.072A7789 7789 0 0 1 5.75 25.92c-.252.607-.322 1.077-.166 1.482q.06-.225.166-.482a7789 7789 0 0 0 3.035-7.328c.508-1.225 1.138-1.537 2.592-1.072l3.043.972a22.5 22.5 0 0 1 3.564-3.592zm28.526.006-.254.793a22.5 22.5 0 0 1 3.592 3.566l3.023-.968c1.454-.465 2.084-.151 2.592 1.074q1.515 3.664 3.035 7.326c.072.173.123.332.164.484.157-.405.088-.876-.164-1.484q-1.52-3.661-3.035-7.326c-.508-1.225-1.138-1.539-2.592-1.074l-3.023.968a22.5 22.5 0 0 0-3.338-3.359M9.59 30.938A23 23 0 0 0 9.5 32.5l.025.406a23 23 0 0 1 .131-1.935zm44.814.001-.074.04a23 23 0 0 1 .145 2.115 23 23 0 0 0 .025-.594 23 23 0 0 0-.096-1.561M9.596 35.061 6.822 36.49c-1.166.601-1.49 1.182-1.238 2.11.16-.412.555-.758 1.238-1.11l2.848-1.469a23 23 0 0 1-.074-.96m44.814.001a23 23 0 0 1-.066.967l2.834 1.459c.683.352 1.077.698 1.236 1.11.253-.928-.07-1.509-1.236-2.11zM17.738 50.873l-.72 2.25c-.208.647-.25 1.125-.137 1.508q.049-.236.137-.508l.974-3.043zm28.526.006-.25.221.968 3.023q.088.272.137.508c.113-.383.071-.861-.137-1.508z" style="fill:#fff;opacity:.2"/><circle cx="32" cy="34" r="20" style="opacity:.1"/><circle cx="32" cy="33" r="20" style="fill:#fecd38"/><path d="M32 13a20 20 0 0 0-20 20 20 20 0 0 0 .035.5A20 20 0 0 1 32 14a20 20 0 0 1 19.982 19.25L52 33a20 20 0 0 0-20-20" style="fill:#fff;opacity:.2"/><path d="M27.692 22.148c-1.664.639-3.137 1.792-4.051 3.142q-1.372 1.987-1.372 4.9 0 1.313.245 1.846.247.497.247.568-1.899 0-2.847-.78Q19 31.005 19 29.16q0-2.272 1.828-4.402 1.863-2.167 4.746-3.48c2.018-1.044 5.09-1.316 6.426-1.286v19.999l9-19.999h2L32 46.99h-4z" style="opacity:.2"/><path d="M27.692 21.148c-1.664.639-3.137 1.792-4.051 3.142q-1.372 1.987-1.372 4.9 0 1.313.245 1.846.247.497.247.568-1.899 0-2.847-.78Q19 30.005 19 28.16q0-2.272 1.828-4.402 1.863-2.167 4.746-3.48c2.018-1.044 5.09-1.316 6.426-1.286v19.999l9-19.999h2L32 45.99h-4z" style="fill:#9c27b0"/></svg>