<svg xmlns="http://www.w3.org/2000/svg" xmlns:xlink="http://www.w3.org/1999/xlink" width="64" height="64"><defs><radialGradient xlink:href="#a" id="c" cx="5.062" cy="58.088" r="24" fx="5.062" fy="58.088" gradientTransform="rotate(-30 -299.798 168.929)scale(3.87977)" gradientUnits="userSpaceOnUse"/><radialGradient xlink:href="#b" id="d" cx="11.712" cy="49.411" r="26.468" fx="11.712" fy="49.411" gradientTransform="rotate(-15 -627.651 429.286)scale(4.89447 4.91415)" gradientUnits="userSpaceOnUse"/><linearGradient id="b"><stop offset="0" style="stop-color:#000;stop-opacity:1"/><stop offset="1" style="stop-color:#fff;stop-opacity:1"/></linearGradient><linearGradient id="a"><stop offset="0" style="stop-color:#3b3b3b;stop-opacity:1"/><stop offset="1" style="stop-color:#1f1f1f;stop-opacity:1"/></linearGradient><filter id="e" width="1.208" height="1.207" x="-.104" y="-.103" style="color-interpolation-filters:sRGB"><feGaussianBlur stdDeviation="2.25"/></filter></defs><path d="M56 32a24 24 0 0 1-24 24A24 24 0 0 1 8 32 24 24 0 0 1 32 8a24 24 0 0 1 24 24" style="fill:url(#c);fill-opacity:1"/><path d="m36.53 9.147-4.557 12.788a1.63 1.63 50.096 0 0 1.802 2.154l19.796-3.284c1.508-.25 2.163-1.56 1.312-2.828A26.9 26.9 0 0 0 40.149 7.183c-1.466-.43-3.106.524-3.62 1.964" style="fill:#e9721a;stroke-width:1.02307"/><path d="m40.034 29.795 12.389 14.792c1.082 1.292 2.72 1.197 3.456-.319 2.599-5.349 3.258-11.514 1.87-17.439-.384-1.64-2.205-2.677-3.861-2.365-4.304.81-8.51 1.622-12.814 2.431-1.656.311-2.123 1.608-1.04 2.9" style="fill:#e3bf20;stroke-width:1.02307"/><path d="m50.039 47.558-9.415-10.813a1.453 1.453 169.836 0 0-2.455.44l-7.23 19.117c-.474 1.255.23 2.33 1.57 2.273 8.847-.38 14.729-4.894 17.427-7.449.974-.922.984-2.556.103-3.568" style="fill:#28a226;stroke-width:1.02307"/><path d="m27.402 55.043 4.692-13.167a1.51 1.51 50.096 0 0-1.67-1.997l-20.195 3.35c-1.398.232-2.003 1.444-1.22 2.625 3.587 5.412 8.895 9.009 15.056 10.933 1.353.422 2.861-.409 3.337-1.744" style="fill:#2977d1;stroke-width:1.02307"/><path d="m9.72 39.549 13.393-2.483a1.67 1.67 109.774 0 0 .976-2.715L11.455 19.268c-1.015-1.211-2.548-1.122-3.253.292-2.776 5.567-3.298 11.683-2.01 17.74.328 1.546 1.975 2.537 3.529 2.249" style="fill:#c029c0;stroke-width:1.02307"/><path d="M25.756 27.011 33.06 7.7c.475-1.255-.23-2.331-1.57-2.269-6.522.303-12.831 2.944-17.598 7.57-.88.853-.873 2.359-.069 3.283l9.692 11.13a1.327 1.327 169.833 0 0 2.242-.402" style="fill:#c01728;stroke-width:1.02307"/><path d="M31.488 5.43c-6.522.303-12.83 2.945-17.597 7.57-.88.854-.874 2.36-.069 3.284l9.692 11.129a1.327 1.327 0 0 0 2.242-.4L33.058 7.7c.475-1.256-.23-2.332-1.57-2.27m7.826 1.65c-1.207.047-2.368.897-2.785 2.067l-4.556 12.79a1.63 1.63 0 0 0 1.802 2.153l19.795-3.285c1.508-.25 2.164-1.559 1.313-2.828A26.9 26.9 0 0 0 40.15 7.184a2.6 2.6 0 0 0-.836-.103M9.937 18.427c-.68-.038-1.34.34-1.736 1.135-2.776 5.567-3.297 11.682-2.01 17.738.329 1.546 1.975 2.538 3.53 2.25l13.392-2.482a1.67 1.67 0 0 0 .977-2.717L11.455 19.268c-.444-.53-.988-.812-1.518-.842m44.577 5.983a3.3 3.3 0 0 0-.627.054c-4.304.81-8.509 1.623-12.813 2.432-1.657.311-2.123 1.608-1.04 2.9l12.39 14.791c1.082 1.293 2.719 1.198 3.455-.318 2.598-5.349 3.259-11.514 1.87-17.44-.335-1.435-1.772-2.407-3.235-2.42M39.769 36.266a1.45 1.45 0 0 0-1.6.92l-7.23 19.115c-.474 1.255.229 2.331 1.569 2.274 8.848-.38 14.729-4.895 17.427-7.45.974-.921.985-2.556.104-3.568l-9.414-10.812a1.45 1.45 0 0 0-.856-.479m-9.06 3.592a1.5 1.5 0 0 0-.285.021L10.23 43.23c-1.398.232-2.003 1.444-1.22 2.625 3.587 5.412 8.894 9.01 15.054 10.934 1.353.422 2.863-.41 3.338-1.744l4.692-13.168a1.51 1.51 0 0 0-1.385-2.018" style="opacity:1;mix-blend-mode:overlay;fill:url(#d);stroke-width:1.02307"/><path d="M31.488 5.43c-6.522.303-12.83 2.945-17.597 7.57-.88.854-.874 2.36-.069 3.284l9.692 11.129a1.327 1.327 0 0 0 2.242-.4L33.058 7.7c.475-1.256-.23-2.332-1.57-2.27zm7.826 1.65c-1.207.047-2.368.897-2.785 2.067l-4.556 12.79a1.63 1.63 0 0 0 1.802 2.153l19.795-3.285c1.508-.25 2.164-1.559 1.313-2.828A26.9 26.9 0 0 0 40.15 7.184a2.6 2.6 0 0 0-.836-.103ZM9.937 18.427c-.68-.038-1.34.34-1.736 1.135-2.776 5.567-3.297 11.682-2.01 17.738.329 1.546 1.975 2.538 3.53 2.25l13.392-2.482a1.67 1.67 0 0 0 .977-2.717L11.455 19.268c-.444-.53-.988-.812-1.518-.842Zm44.577 5.983a3.3 3.3 0 0 0-.627.054c-4.304.81-8.509 1.623-12.813 2.432-1.657.311-2.123 1.608-1.04 2.9l12.39 14.791c1.082 1.293 2.719 1.198 3.455-.318 2.598-5.349 3.259-11.514 1.87-17.44-.335-1.435-1.772-2.407-3.235-2.42zM39.769 36.266a1.45 1.45 0 0 0-1.6.92l-7.23 19.115c-.474 1.255.229 2.331 1.569 2.274 8.848-.38 14.729-4.895 17.427-7.45.974-.921.985-2.556.104-3.568l-9.414-10.812a1.45 1.45 0 0 0-.856-.479zm-9.06 3.592a1.5 1.5 0 0 0-.285.021L10.23 43.23c-1.398.232-2.003 1.444-1.22 2.625 3.587 5.412 8.894 9.01 15.054 10.934 1.353.422 2.863-.41 3.338-1.744l4.692-13.168a1.51 1.51 0 0 0-1.385-2.018z" style="mix-blend-mode:normal;fill:none;stroke-width:.2;stroke:#000;stroke-opacity:1;stroke-dasharray:none;filter:url(#e)"/></svg>