<svg xmlns="http://www.w3.org/2000/svg" width="64" height="64"><path d="M6.98 21.522a3.22 2.781 75 0 0-1.852 3.83l8.89 33.175a3.22 2.781 75 0 0 3.519 2.39C26.9 58.41 32.176 47.505 29.27 36.663s-12.927-17.65-22.29-15.14" style="opacity:.2"/><path d="M30.318 5.004A3.429 3.652 0 0 0 27 8.654v48.694A3.429 3.652 0 0 0 30.429 61h25.143a3.429 3.652 0 0 0 3.004-5.412L33.434 6.894a3.429 3.652 0 0 0-3.116-1.89" style="opacity:.2"/><path d="M6.98 20.522a3.22 2.781 75 0 0-1.852 3.83l8.89 33.175a3.22 2.781 75 0 0 3.519 2.39C26.9 57.41 32.176 46.505 29.27 35.663S16.344 18.013 6.98 20.522" style="fill:#79b444"/><path d="M10.51 20.01a15.3 15.3 0 0 0-3.528.511 3.22 2.781 75 0 0-1.945 3.375 3.22 2.781 75 0 1 1.945-2.375 15.3 15.3 0 0 1 3.528-.511c8.23-.23 16.218 6.165 18.76 15.652.464 1.735.705 3.468.761 5.17a23 23 0 0 0-.761-6.172c-2.542-9.487-10.53-15.88-18.76-15.65" style="opacity:.2;fill:#fff"/><path d="M30.318 4.004A3.429 3.652 0 0 0 27 7.654v48.694A3.429 3.652 0 0 0 30.429 60h25.143a3.429 3.652 0 0 0 3.004-5.411L33.434 5.894a3.429 3.652 0 0 0-3.116-1.89" style="fill:#35aabd"/><path d="M43 36s-9 .2-9 3 8 9.4 8 12.2-9 2.8-9 2.8" style="opacity:.2;fill:none;stroke:#000;stroke-width:5.99979639;stroke-linejoin:round"/><path d="M43 35s-9 .2-9 3 8 9.4 8 12.2-9 2.8-9 2.8" style="fill:none;stroke:#fff;stroke-width:5.99979639;stroke-linejoin:round"/><path d="M12.412 27.228c-.186.02-.374.046-.563.028l7.039 26.264c3.986-2.847 6.354-8.704 4.586-15.304-1.631-6.087-6.008-10.037-10.504-10.984a1.7 1.7 0 0 0-.558-.004" style="opacity:.2"/><path d="M12.412 26.228c-.186.02-.374.045-.563.027l7.039 26.265c3.986-2.847 6.354-8.704 4.586-15.304-1.631-6.088-6.008-10.037-10.504-10.984a1.7 1.7 0 0 0-.558-.004" style="fill:#fff"/><path d="M30.316 4.002A3.429 3.652 0 0 0 27 7.654v1a3.429 3.652 0 0 1 3.316-3.652 3.429 3.652 0 0 1 3.118 1.89l25.14 48.698a3.429 3.652 0 0 1 .389 1.256 3.429 3.652 0 0 0-.389-2.256L33.434 5.893a3.429 3.652 0 0 0-3.118-1.891" style="opacity:.2;fill:#fff"/></svg>