<svg xmlns="http://www.w3.org/2000/svg" xmlns:xlink="http://www.w3.org/1999/xlink" width="64" height="64"><defs><filter id="c" width="1.138" height="1.138" x="-.069" y="-.069" style="color-interpolation-filters:sRGB"><feGaussianBlur stdDeviation="1.549"/></filter><filter id="d" width="1.176" height="1.176" x="-.088" y="-.088" style="color-interpolation-filters:sRGB"><feGaussianBlur stdDeviation="1.549"/></filter><filter id="e" width="1.269" height="1.807" x="-.134" y="-.404" style="color-interpolation-filters:sRGB"><feGaussianBlur stdDeviation=".398"/></filter><radialGradient xlink:href="#a" id="b" cx="22.311" cy="42.834" r="28" fx="22.311" fy="42.834" gradientTransform="matrix(-2.77609 0 0 -2.76907 125.688 121.12)" gradientUnits="userSpaceOnUse"/><linearGradient id="a"><stop offset="0" style="stop-color:#f746af;stop-opacity:1"/><stop offset=".604" style="stop-color:#926ae5;stop-opacity:1"/><stop offset=".762" style="stop-color:#3670ff;stop-opacity:1"/><stop offset="1" style="stop-color:#46e5f7;stop-opacity:1"/></linearGradient></defs><path d="M20.8 4C11.495 4 4 11.494 4 20.8v22.4C4 52.505 11.494 60 20.8 60h22.4C52.505 60 60 52.506 60 43.2V20.8C60 11.495 52.506 4 43.2 4Z" style="fill:url(#b)"/><path d="M21 10h22c6.19 0 11 4.81 11 11v22c0 6.19-4.81 11-11 11H21c-6.19 0-11-4.81-11-11V21c0-6.19 4.81-11 11-11" style="fill:#3f3f3f"/><path d="M20.8 4C11.495 4 4 11.494 4 20.8v22.4C4 52.505 11.494 60 20.8 60h22.4C52.505 60 60 52.506 60 43.2V20.8C60 11.495 52.506 4 43.2 4Z" style="fill:none;stroke:#000;stroke-width:.3;stroke-dasharray:none;stroke-opacity:1;filter:url(#c)"/><path d="M21 10h22c6.19 0 11 4.81 11 11v22c0 6.19-4.81 11-11 11H21c-6.19 0-11-4.81-11-11V21c0-6.19 4.81-11 11-11Z" style="fill:none;stroke:#000;stroke-width:.3;stroke-dasharray:none;stroke-opacity:1;filter:url(#d)"/><path d="M16.375 34.544h10.448" style="fill:none;stroke:#fff;stroke-width:2.61211;stroke-linecap:round"/><path d="M16.389 26.696s5.271.457 5.214-5.214-5.214-5.215-5.214-5.215m-.019 10.42V16.26m14.34 6.517h2.608m-1.304 0s.64 3.91-2.607 3.91c-2.608 0-2.608-2.607-2.608-5.214s0-5.214 2.608-5.214 2.597 1.303 2.597 1.303" style="fill:none;stroke:#fff;stroke-width:2.60723;stroke-linecap:round;stroke-linejoin:bevel"/><path d="M16.375 33.237a1.306 1.306 0 0 0-1.306 1.307 1.306 1.306 0 0 0 1.306 1.304h10.448a1.306 1.306 0 0 0 1.306-1.304 1.306 1.306 0 0 0-1.306-1.307z" style="baseline-shift:baseline;display:inline;overflow:visible;mix-blend-mode:normal;fill:none;stroke:#c500ff;stroke-width:.2;stroke-linecap:round;stroke-dasharray:none;stroke-opacity:1;filter:url(#e);enable-background:accumulate;stop-color:#000"/><path d="m16.372 14.954-.016.015-.082-.002a1.304 1.304 0 0 0-1.115 1.198 1 1 0 0 0-.092.091v10.43a1.3 1.3 0 0 0 .701.701 1.3 1.3 0 0 0 .51.606s.087-.003.094-.002c.139.012 1.595.131 3.185-.59 1.667-.757 3.382-2.695 3.35-5.934-.033-3.23-1.737-5.148-3.389-5.906-1.558-.715-2.966-.606-3.13-.592zm1.302 2.832c.322.05.388-.026.758.144.941.432 1.843 1.123 1.867 3.563.025 2.432-.866 3.1-1.82 3.533-.388.176-.467.101-.805.15z" style="baseline-shift:baseline;display:inline;overflow:visible;mix-blend-mode:normal;fill:none;stroke:#c500ff;stroke-width:.2;stroke-linecap:round;stroke-linejoin:bevel;stroke-dasharray:none;stroke-opacity:1;filter:url(#e);enable-background:accumulate;stop-color:#000"/><path d="M29.407 14.954c-.87 0-1.687.24-2.307.722-.62.483-.993 1.145-1.21 1.8-.437 1.307-.393 2.692-.393 3.995 0 1.304-.044 2.69.392 3.998.218.654.591 1.315 1.211 1.797s1.438.725 2.307.725c1.073 0 2.021-.367 2.662-.96.64-.592.959-1.328 1.123-1.982.128-.51.036-.562.043-.97h.084a1.304 1.304 0 0 0 1.303-1.303 1.304 1.304 0 0 0-1.303-1.305H30.71a1.304 1.304 0 0 0-1.304 1.305 1.304 1.304 0 0 0 1.273 1.271c-.013.168.026.2-.015.366-.082.324-.213.564-.366.705-.152.14-.342.265-.892.265-.435 0-.594-.085-.707-.173-.114-.089-.23-.24-.338-.565-.216-.648-.258-1.87-.258-3.174s.042-2.524.258-3.172c.108-.324.224-.476.338-.564.113-.088.272-.174.707-.174 1.086 0 1.336.25 1.351.266.008.007-.019-.023-.033-.067-.014-.043-.023-.209-.023-.209a1.304 1.304 0 0 0 1.293 1.313 1.304 1.304 0 0 0 1.312-1.293s-.008-.33-.101-.617a2.5 2.5 0 0 0-.598-.963c-.632-.637-1.68-1.037-3.201-1.037z" style="baseline-shift:baseline;display:inline;overflow:visible;mix-blend-mode:normal;fill:none;stroke:#c500ff;stroke-width:.2;stroke-linecap:round;stroke-linejoin:bevel;stroke-dasharray:none;stroke-opacity:1;filter:url(#e);enable-background:accumulate;stop-color:#000"/></svg>