<svg xmlns="http://www.w3.org/2000/svg" xmlns:xlink="http://www.w3.org/1999/xlink" width="64" height="64"><defs><filter id="d" width="1.176" height="1.176" x="-.088" y="-.088" style="color-interpolation-filters:sRGB"><feGaussianBlur stdDeviation="1.549"/></filter><filter id="c" width="1.138" height="1.138" x="-.069" y="-.069" style="color-interpolation-filters:sRGB"><feGaussianBlur stdDeviation="1.549"/></filter><filter id="e" width="1.142" height="1.123" x="-.071" y="-.062" style="color-interpolation-filters:sRGB"><feGaussianBlur stdDeviation=".496"/></filter><radialGradient xlink:href="#a" id="b" cx="46.286" cy="44.822" r="28" fx="46.286" fy="44.822" gradientTransform="matrix(0 2.7645 -2.75751 0 127.358 -124.876)" gradientUnits="userSpaceOnUse"/><linearGradient id="a"><stop offset="0" style="stop-color:#f7c646;stop-opacity:1"/><stop offset=".381" style="stop-color:#77e56a;stop-opacity:1"/><stop offset=".691" style="stop-color:#36ffdd;stop-opacity:1"/><stop offset="1" style="stop-color:#4685f7;stop-opacity:1"/></linearGradient></defs><path d="M20.8 4C11.495 4 4 11.494 4 20.8v22.4C4 52.505 11.494 60 20.8 60h22.4C52.505 60 60 52.506 60 43.2V20.8C60 11.495 52.506 4 43.2 4z" style="fill:url(#b)"/><path d="M21 10h22c6.19 0 11 4.81 11 11v22c0 6.19-4.81 11-11 11H21c-6.19 0-11-4.81-11-11V21c0-6.19 4.81-11 11-11" style="fill:#3f3f3f"/><path d="M20.8 4C11.495 4 4 11.494 4 20.8v22.4C4 52.505 11.494 60 20.8 60h22.4C52.505 60 60 52.506 60 43.2V20.8C60 11.495 52.506 4 43.2 4z" style="fill:none;stroke:#000;stroke-width:.3;stroke-dasharray:none;stroke-opacity:1;filter:url(#c)"/><path d="M21 10h22c6.19 0 11 4.81 11 11v22c0 6.19-4.81 11-11 11H21c-6.19 0-11-4.81-11-11V21c0-6.19 4.81-11 11-11z" style="fill:none;stroke:#000;stroke-width:.3;stroke-dasharray:none;stroke-opacity:1;filter:url(#d)"/><path d="M78.957 35.945h10.448" style="fill:none;stroke:#fff;stroke-width:2.61211;stroke-linecap:round" transform="translate(-62.582 -1.4)"/><path d="M78.967 28.055s5.253.455 5.196-5.196-5.196-5.196-5.196-5.196m-.019 10.384V17.654" style="fill:none;stroke:#fff;stroke-width:2.59816;stroke-linecap:round;stroke-linejoin:bevel" transform="translate(-62.582 -1.4)"/><path d="M89.34 26.747s.656 1.3 2.599 1.3 2.598-1.3 2.598-2.599c0-5.475-5.196.275-5.18-5.184-.017-1.311.612-2.61 2.582-2.61s2.598 1.299 2.598 1.299" style="fill:none;stroke:#fff;stroke-width:2.59816;stroke-linecap:round;stroke-linejoin:round" transform="translate(-62.582 -1.4)"/><g style="fill:none;stroke:#00ff95;stroke-width:.2;stroke-dasharray:none;stroke-opacity:1;filter:url(#e)" transform="translate(-62.582 -1.402)"><path d="M78.957 34.639a1.306 1.306 0 0 0-1.307 1.306 1.306 1.306 0 0 0 1.307 1.305h10.45a1.306 1.306 0 0 0 1.304-1.305 1.306 1.306 0 0 0-1.305-1.306z" style="baseline-shift:baseline;display:inline;overflow:visible;opacity:1;fill:none;stroke:#00ff95;stroke-width:.2;stroke-linecap:round;stroke-dasharray:none;stroke-opacity:1;enable-background:accumulate;stop-color:#000;stop-opacity:1"/><path d="m78.95 16.355-.016.014h-.082a1.3 1.3 0 0 0-1.114 1.195 1 1 0 0 0-.09.09v10.393a1.3 1.3 0 0 0 .694.691 1.3 1.3 0 0 0 .513.612s1.607.164 3.268-.59c1.662-.754 3.372-2.687 3.34-5.914-.033-3.22-1.731-5.13-3.377-5.885-1.553-.712-2.956-.604-3.121-.59zm1.298 2.825c.32.05.386-.027.754.142.938.43 1.837 1.118 1.861 3.55.025 2.423-.863 3.09-1.814 3.52-.387.176-.465.102-.801.151z" style="baseline-shift:baseline;display:inline;overflow:visible;opacity:1;fill:none;stroke:#00ff95;stroke-width:.2;stroke-linecap:round;stroke-linejoin:bevel;stroke-dasharray:none;stroke-opacity:1;enable-background:accumulate;stop-color:#000;stop-opacity:1"/><path d="M91.94 16.355c-1.271 0-2.383.486-3.042 1.288-.655.798-.848 1.76-.84 2.625-.002 1.565.431 2.805 1.395 3.43.966.625 1.91.484 2.559.448.648-.035.997.034 1.006.04.008.005.22.098.22 1.261 0 .431-.117.772-.27.955-.152.183-.349.346-1.03.346-.682 0-1.006-.198-1.215-.365-.21-.168-.223-.22-.223-.22a1.3 1.3 0 0 0-1.744-.575 1.3 1.3 0 0 0-.576 1.744s.316.598.92 1.08c.603.483 1.578.934 2.84.934 1.26 0 2.362-.488 3.023-1.28.66-.791.873-1.75.873-2.619 0-1.574-.437-2.814-1.402-3.441-.966-.627-1.916-.489-2.565-.453-.65.035-1-.033-1.004-.035s-.214-.091-.21-1.25v-.02c-.006-.443.107-.781.251-.957s.334-.338 1.033-.338c.7 0 1.021.199 1.223.361.202.163.205.204.205.204a1.3 1.3 0 0 0 1.735.605 1.3 1.3 0 0 0 .605-1.736s-.312-.61-.916-1.096-1.581-.936-2.852-.936" style="baseline-shift:baseline;display:inline;overflow:visible;opacity:1;fill:none;stroke:#00ff95;stroke-width:.2;stroke-linecap:round;stroke-linejoin:round;stroke-dasharray:none;stroke-opacity:1;enable-background:accumulate;stop-color:#000;stop-opacity:1"/></g></svg>