<svg xmlns="http://www.w3.org/2000/svg" width="64" height="64"><path d="M32 3c-1.571 0-3.144.586-4.32 1.76L3.76 28.685C2.586 29.859 1.999 31.429 2 33s.59 3.14 1.763 4.314l23.92 23.923c2.35 2.349 6.287 2.352 8.636.002l23.918-23.923a6 6 0 0 0 1.322-2.009A6.2 6.2 0 0 0 62 33c0-1.571-.589-3.142-1.763-4.316L36.319 4.76C35.144 3.586 33.572 3 32 3" style="opacity:.2"/><path d="M16 1c-.697 0-1.39.259-1.907.776L2.133 13.737a2.68 2.68 0 0 0-.776 1.906c0 .696.26 1.388.777 1.904l9.152 9.153-.272.232 2.828 2.83c1.175 1.174 3.143 1.175 4.318 0l6.042-6.043-.242-.264 5.906-5.906c.258-.26.452-.56.582-.885s.195-.673.195-1.021c0-.697-.26-1.389-.777-1.906L17.907 1.776A2.7 2.7 0 0 0 16 1" style="fill:#1c71d8" transform="matrix(2 0 0 2 0 .714)"/><path d="M16 .643c-.786 0-1.572.293-2.16.88l-5.98 5.98 4.07 4.07 8.14-8.14-1.913-1.913A3.05 3.05 0 0 0 16 .643" style="fill:#f5c211" transform="matrix(2 0 0 2 0 .714)"/><path d="m20.069 3.434 4.07 4.07L7.86 23.781l-4.07-4.07Z" style="fill:#2ec27e" transform="matrix(2 0 0 2 0 .714)"/><path d="M24.139 7.504 16 15.643l4.07 4.068 8.138-8.138z" style="fill:#ff7800" transform="matrix(2 0 0 2 0 .714)"/><path d="m11.93 19.714-4.07 4.068 4.07 4.07z" style="fill:#c061cb" transform="matrix(2 0 0 2 0 .714)"/><path d="m28.208 11.573-4.069 4.07 4.07 4.07 1.91-1.912c.293-.294.514-.636.66-1.004.148-.368.221-.761.221-1.154a3.04 3.04 0 0 0-.882-2.158Z" style="fill:#e01b24" transform="matrix(2 0 0 2 0 .714)"/><path d="m7.86 15.643-4.07 4.07 4.071 4.069 4.068-4.068Z" style="fill:#813d9c" transform="matrix(2 0 0 2 0 .714)"/><path d="M20.07 3.433 16 7.503l4.07 4.07 4.069-4.07z" style="opacity:.2;fill:#fff" transform="matrix(2 0 0 2 0 .714)"/><path d="M24.139 7.504v8.139l4.07 4.07 1.91-1.912c.293-.294.514-.636.66-1.004.148-.368.221-.761.221-1.154a3.04 3.04 0 0 0-.882-2.158l-1.91-1.912z" style="fill:#e01b24" transform="matrix(2 0 0 2 0 .714)"/><path d="m7.86 7.504 4.07 4.07 4.069-4.07Z" style="fill:#e5a50a" transform="matrix(2 0 0 2 0 .714)"/><path d="m24.139 15.643-4.07 4.07 4.069 4.069.001-.002z" style="fill:#ffa348" transform="matrix(2 0 0 2 0 .714)"/><path d="M24.139 15.643v8.137l4.07-4.068z" style="fill:#f66151" transform="matrix(2 0 0 2 0 .714)"/><path d="m16 7.504-4.07 4.07L16 15.642z" style="fill:#26a269" transform="matrix(2 0 0 2 0 .714)"/><path d="m11.93 11.573-4.07 4.07H16Z" style="fill:#1a5fb4" transform="matrix(2 0 0 2 0 .714)"/><path d="m7.86 15.643 4.07 4.07 4.07-4.07z" style="fill:#3584e4" transform="matrix(2 0 0 2 0 .714)"/><path d="m7.86 7.504-5.98 5.98a3.04 3.04 0 0 0-.88 2.16c0 .785.295 1.57.882 2.157l1.91 1.91 8.137-8.137z" style="fill:#613583" transform="matrix(2 0 0 2 0 .714)"/><path d="m16 15.643-4.07 4.07v8.138l8.14-8.14z" style="fill:#98c1f1" transform="matrix(2 0 0 2 0 .714)"/><path d="M32 2c-1.571 0-3.146.587-4.32 1.762L3.762 27.684A6.07 6.07 0 0 0 2 32c0 .122.024.242.033.363a6.04 6.04 0 0 1 1.729-3.68L27.68 4.763C28.854 3.587 30.429 3 32 3s3.146.587 4.32 1.762l23.918 23.922a6.05 6.05 0 0 1 1.729 3.68c.01-.122.033-.242.033-.364 0-1.571-.587-3.142-1.762-4.316L36.32 3.762C35.146 2.587 33.572 2 32 2" style="opacity:.1;fill:#fff"/></svg>