<svg xmlns="http://www.w3.org/2000/svg" width="64" height="64"><rect width="56" height="42" x="4" y="19" rx="4.2" ry="4.2" style="opacity:.2"/><rect width="56" height="42" x="4" y="18" rx="4.2" ry="4.2" style="fill:#807975"/><path d="M8.2 18A4.19 4.19 0 0 0 4 22.2v1A4.19 4.19 0 0 1 8.2 19h47.6a4.19 4.19 0 0 1 4.2 4.2v-1a4.19 4.19 0 0 0-4.2-4.2z" style="opacity:.1;fill:#fff"/><path d="M8 22h48v34H8z" style="fill:#fca526"/><path d="M8 22h30v1H8z" style="opacity:.1"/><rect width="21" height="21" x="25" y="26" rx="2.211" ry="2.1" style="opacity:.6;fill:#fff"/><rect width="20" height="17" x="12" y="35" rx="2" ry="2.125" style="opacity:.6;fill:#fff"/><rect width="25" height="56" x="35" y="4" rx="4.167" ry="4.2" style="fill:#e4e4e4"/><path d="M43 32a3 3 0 0 0-3 3 3 3 0 0 0 3 3 3 3 0 0 0 3-3 3 3 0 0 0-3-3m9 0a3 3 0 0 0-3 3 3 3 0 0 0 3 3 3 3 0 0 0 3-3 3 3 0 0 0-3-3m-9 9a3 3 0 0 0-3 3 3 3 0 0 0 3 3 3 3 0 0 0 3-3 3 3 0 0 0-3-3m9 0a3 3 0 0 0-3 3 3 3 0 0 0 3 3 3 3 0 0 0 3-3 3 3 0 0 0-3-3m-9 9a3 3 0 0 0-3 3 3 3 0 0 0 3 3 3 3 0 0 0 3-3 3 3 0 0 0-3-3m9 0a3 3 0 0 0-3 3 3 3 0 0 0 3 3 3 3 0 0 0 3-3 3 3 0 0 0-3-3" style="opacity:.1"/><circle cx="47.5" cy="17.5" r="8.5" style="fill:#a9a8a4"/><circle cx="-18.5" cy="-47.5" r="4.5" style="opacity:.2" transform="rotate(90)scale(-1 1)"/><circle cx="-17.5" cy="-47.5" r="4.5" style="fill:#f9f8f7" transform="rotate(90)scale(-1 1)"/><circle cx="43" cy="34" r="3" style="fill:#f66151"/><circle cx="52" cy="34" r="3" style="fill:#a9a8a4"/><circle cx="43" cy="43" r="3" style="fill:#a9a8a4"/><circle cx="52" cy="43" r="3" style="fill:#a9a8a4"/><circle cx="43" cy="52" r="3" style="fill:#a9a8a4"/><circle cx="52" cy="52" r="3" style="fill:#a9a8a4"/><path d="M47.5 9a8.5 8.5 0 0 0-8.5 8.5 9 9 0 0 0 .021.586A8.5 8.5 0 0 1 47.5 10a8.5 8.5 0 0 1 8.479 7.914A9 9 0 0 0 56 17.5 8.5 8.5 0 0 0 47.5 9" style="opacity:.1"/><path d="M39.166 4C36.858 4 35 5.872 35 8.2v1C35 6.871 36.858 5 39.166 5h16.668C58.142 5 60 6.872 60 9.2v-1C60 5.871 58.142 4 55.834 4z" style="opacity:.2;fill:#fff"/></svg>