<svg xmlns="http://www.w3.org/2000/svg" width="64" height="64"><path d="M8.072 20C5.817 20 4 21.834 4 24.111V52.89C4 55.166 5.817 57 8.072 57h48.856C59.183 57 61 55.166 61 52.889V24.11c0-2.276-1.817-4.11-4.072-4.11H41Z" style="opacity:.2"/><path d="M15 19 45.5 7.5" style="fill:none;stroke:#989898;stroke-width:3;stroke-linecap:round"/><circle cx="15" cy="19" r="3" style="fill:#3d3846"/><path d="M8.072 19C5.816 19 4 20.833 4 23.11v28.78C4 54.166 5.816 56 8.072 56H41.05V19Z" style="fill:#e5a50a"/><path d="M41 19v37h15.929C59.184 56 61 54.166 61 51.889V23.11c0-2.276-1.816-4.11-4.071-4.11Z" style="fill:#63452c"/><path d="M51 29a4 4 0 0 0-4 4 4 4 0 0 0 4 4 4 4 0 0 0 4-4 4 4 0 0 0-4-4m-3.25 11a.75.75 0 0 0-.75.75v1.5c0 .416.335.75.75.75h1.5c.416 0 .75-.334.75-.75v-1.5a.75.75 0 0 0-.75-.75Zm5 0a.75.75 0 0 0-.75.75v1.5c0 .416.335.75.75.75h1.5c.416 0 .75-.334.75-.75v-1.5a.75.75 0 0 0-.75-.75Zm-5 5a.75.75 0 0 0-.75.75v1.5c0 .416.335.75.75.75h1.5c.416 0 .75-.334.75-.75v-1.5a.75.75 0 0 0-.75-.75Zm5 0a.75.75 0 0 0-.75.75v1.5c0 .416.335.75.75.75h1.5c.416 0 .75-.334.75-.75v-1.5a.75.75 0 0 0-.75-.75Z" style="opacity:.2"/><rect width="3" height="3" x="47" y="39" rx=".75" ry=".75" style="fill:#e5a50a"/><circle cx="51" cy="32" r="4" style="fill:#e5a50a"/><circle cx="49.27" cy="30.377" r=".667" style="fill:#63452c"/><rect width="3" height="3" x="52" y="39" rx=".75" ry=".75" style="fill:#e5a50a"/><rect width="3" height="3" x="47" y="44" rx=".75" ry=".75" style="fill:#e5a50a"/><rect width="3" height="3" x="52" y="44" rx=".75" ry=".75" style="fill:#e5a50a"/><path d="M22.5 24a13.5 13.5 0 0 0-8.477 3H30.97a13.5 13.5 0 0 0-8.469-3m-11.219 6a13.5 13.5 0 0 0-1.492 3h25.424a13.5 13.5 0 0 0-1.5-3zm-2.19 6A14 14 0 0 0 9 37.5a14 14 0 0 0 .1 1.5h26.808A14 14 0 0 0 36 37.5a14 14 0 0 0-.1-1.5Zm.696 6a13.5 13.5 0 0 0 1.5 3H33.72a13.5 13.5 0 0 0 1.492-3zm4.244 6a13.5 13.5 0 0 0 8.469 3 13.5 13.5 0 0 0 8.477-3Z" style="fill:#63452c"/><path d="M51 28a4 4 0 0 0-4 4 4 4 0 0 0 .035.506A4 4 0 0 1 51 29a4 4 0 0 1 3.965 3.494A4 4 0 0 0 55 32a4 4 0 0 0-4-4m-3.25 11a.75.75 0 0 0-.75.75v1c0-.416.334-.75.75-.75h1.5c.416 0 .75.334.75.75v-1a.75.75 0 0 0-.75-.75zm5 0a.75.75 0 0 0-.75.75v1c0-.416.334-.75.75-.75h1.5c.416 0 .75.334.75.75v-1a.75.75 0 0 0-.75-.75zm-5 5a.75.75 0 0 0-.75.75v1c0-.416.334-.75.75-.75h1.5c.416 0 .75.334.75.75v-1a.75.75 0 0 0-.75-.75zm5 0a.75.75 0 0 0-.75.75v1c0-.416.334-.75.75-.75h1.5c.416 0 .75.334.75.75v-1a.75.75 0 0 0-.75-.75zM8.072 19C5.817 19 4 20.834 4 23.111v1C4 21.834 5.817 20 8.072 20h48.856C59.183 20 61 21.834 61 24.111v-1C61 20.834 59.183 19 56.928 19z" style="opacity:.2;fill:#fff"/></svg>