<svg xmlns="http://www.w3.org/2000/svg" width="64" height="64"><circle cx="32" cy="-33" r="28" style="opacity:.2" transform="scale(1 -1)"/><circle cx="32" cy="-32" r="28" style="fill:#e4e4e4" transform="scale(1 -1)"/><circle cx="32" cy="32" r="22" style="fill:#077272"/><path d="M32 17a16 16 0 0 0-16 16 16 16 0 0 0 16 16 16 16 0 0 0 16-16 16 16 0 0 0-16-16m0 7a9 9 0 0 1 9 9 9 9 0 0 1-9 9 9 9 0 0 1-9-9 9 9 0 0 1 9-9" style="opacity:.1"/><path d="M32 16a16 16 0 0 0-16 16 16 16 0 0 0 16 16 16 16 0 0 0 16-16 16 16 0 0 0-16-16m0 7a9 9 0 0 1 9 9 9 9 0 0 1-9 9 9 9 0 0 1-9-9 9 9 0 0 1 9-9" style="fill:#248989"/><path d="M32 16a16 16 0 0 0-16 16 16 16 0 0 0 .021.42A16 16 0 0 1 32 17a16 16 0 0 1 15.979 15.58A16 16 0 0 0 48 32a16 16 0 0 0-16-16m8.979 16.424A9 9 0 0 1 32 41a9 9 0 0 1-8.979-8.424A9 9 0 0 0 23 33a9 9 0 0 0 9 9 9 9 0 0 0 9-9 9 9 0 0 0-.021-.576" style="opacity:.1;fill:#fff"/><path d="m35.307 24.712-8.66 5-8.66 5v-20l8.66 5z" style="opacity:.2" transform="matrix(1.21244 0 0 1.3125 3.193 .565)"/><path d="m35.307 24.712-8.66 5-8.66 5v-20l8.66 5z" style="fill:#fff" transform="matrix(1.21244 0 0 1.3125 3.193 -.435)"/><path d="M32 4A28 28 0 0 0 4 32l.021.414A28 28 0 0 1 32 5a28 28 0 0 1 27.979 27.586A28 28 0 0 0 60 32 28 28 0 0 0 32 4" style="fill:#fff;opacity:.2"/><path d="M53.979 31.414A22 22 0 0 1 32 53a22 22 0 0 1-21.979-21.414L10 32a22 22 0 0 0 22 22 22 22 0 0 0 22-22 22 22 0 0 0-.021-.586" style="opacity:.1"/></svg>