<svg xmlns="http://www.w3.org/2000/svg" width="64" height="64"><path d="M53 31 12 56" style="opacity:.2;fill:none;stroke:#000;stroke-width:10;stroke-linecap:round"/><path d="M53 30 12 55" style="fill:none;stroke:#b71c1c;stroke-width:10;stroke-linecap:round"/><path d="M52.88 25.002a5 5 0 0 0-2.484.728l-41 25a5 5 0 0 0-2.322 4.627 5 5 0 0 1 2.322-3.627l41-25a5 5 0 0 1 3.782-.59 5 5 0 0 1 3.092 2.256 5 5 0 0 1 .7 2.112 5 5 0 0 0-.7-3.112 5 5 0 0 0-3.092-2.255 5 5 0 0 0-1.297-.139" style="fill:#fff;opacity:.2"/><path d="M12 8v47" style="fill:none;stroke:#c62828;stroke-width:10;stroke-linecap:round"/><path d="m12 9 41 22" style="opacity:.2;fill:none;stroke:#000;stroke-width:10;stroke-linecap:round"/><path d="m12 8 41 22" style="fill:none;stroke:#ef5350;stroke-width:10;stroke-linecap:round"/><path d="M11.844 3.002a5 5 0 0 0-1.287.21 5 5 0 0 0-2.963 2.425 5 5 0 0 0-.53 2.9 5 5 0 0 1 .53-1.9 5 5 0 0 1 2.963-2.424 5 5 0 0 1 3.806.38l41 22a5 5 0 0 1 2.612 3.905 5 5 0 0 0-2.612-4.904l-41-22a5 5 0 0 0-2.52-.592" style="opacity:.2;fill:#fff"/></svg>