<svg xmlns="http://www.w3.org/2000/svg" width="64" height="64"><rect width="48.018" height="48.018" x="-24.72" y="21.95" rx="14.405" ry="14.405" style="opacity:.2" transform="rotate(-45)"/><rect width="48.018" height="48.018" x="-24.01" y="21.25" rx="14.405" ry="14.405" style="fill:#4f4f4f" transform="rotate(-45)"/><path d="M23 16v17l9.75-6.375L42.5 33 23 45.75V50l26-17-13-8.5z" style="opacity:.2;fill-rule:evenodd"/><path d="M23 15v17l9.75-6.375L42.5 32 23 44.75V49l26-17-13-8.5Z" style="fill:#79ce24;fill-rule:evenodd"/><path d="M32 4c-3.682 0-7.364 1.41-10.186 4.232L8.232 21.814A14.34 14.34 0 0 0 4.023 32.5a14.34 14.34 0 0 1 4.21-9.686l13.58-13.582a14.37 14.37 0 0 1 20.372 0l13.582 13.582a14.34 14.34 0 0 1 4.209 9.686 14.34 14.34 0 0 0-4.21-10.686L42.187 8.232A14.36 14.36 0 0 0 32 4" style="fill:#fff;opacity:.1"/><path d="M23 15v1l13 8.5 12.234 8L49 32l-13-8.5zm18.734 17.5L23 44.75v1L42.5 33z" style="fill:#fff;fill-rule:evenodd;opacity:.2"/></svg>