<svg xmlns="http://www.w3.org/2000/svg" width="64" height="64"><path d="M41.605 12.002c-2.89-.01-5.553.004-7.515.045-6.215.127-7.782.306-11.528 1.316C15.06 15.387 8.735 20.041 5.927 25.6c-2.934 5.81-3.65 10.977-2.2 15.932.702 2.397 1.722 4.167 3.489 6.057 3.56 3.808 7.24 5.256 15.553 6.117 1.43.148 4.674.28 7.21.295 9.21.015 26.048-1.311 26.05-14.266.021-1.708-.405-3.44-1.301-5.168-3.69-6.988-14.478-5.241-22.483-5.566-14.7-.095-13.887.017-12.074-1.703.537-.51 1.573-1.882 2.303-2.246 2.435-1.218 3.033-1.047 16.023-1.051h11.832C50.455 24.036 61 12.457 61 12.457c0-.21-10.722-.428-19.395-.455M28.816 37c5.378-.001 10.87.072 11.424.223 1.249.338 1.739.842 1.758 1.798.027 1.354-.226 1.918-1.094 2.446-.806.49-.841.493-8.685.529-4.332.02-8.347-.046-8.922-.145-1.697-.29-3.299-1.178-4.252-2.357-.876-1.082-1.215-1.874-.967-2.266.095-.15 5.36-.227 10.738-.228" style="opacity:.2"/><path d="M41.605 11.002c-2.89-.009-5.553.005-7.515.045-6.215.128-7.782.306-11.528 1.316C15.06 14.388 8.735 19.041 5.927 24.6c-2.934 5.808-3.65 10.976-2.2 15.931.702 2.397 1.722 4.167 3.489 6.057 3.56 3.808 7.24 5.256 15.553 6.117 1.43.148 4.674.28 7.21.295 9.21.016 26.048-1.311 26.05-14.266.021-1.708-.405-3.44-1.301-5.168-3.69-6.988-14.478-5.241-22.483-5.566-14.7-.095-13.887.017-12.074-1.703.537-.51 1.573-1.882 2.303-2.246 2.435-1.218 3.033-1.047 16.023-1.051h11.832C50.455 23.036 61 11.457 61 11.457c0-.21-10.722-.428-19.395-.455M28.816 36c5.378-.001 10.87.072 11.424.223 1.249.339 1.739.842 1.758 1.798.027 1.355-.226 1.918-1.094 2.446-.806.49-.841.493-8.685.53-4.332.019-8.347-.047-8.922-.145-1.697-.291-3.299-1.18-4.252-2.358-.876-1.082-1.215-1.874-.967-2.265.095-.15 5.36-.228 10.738-.229" style="fill:#ff4420"/><path d="M41.605 11.002c-2.89-.009-5.553.005-7.515.045-6.215.128-7.782.306-11.528 1.316C15.06 14.388 8.735 19.041 5.927 24.6c-2.048 4.053-3.012 7.794-2.916 11.369.092-3.273 1.058-6.692 2.916-10.37 2.808-5.558 9.133-10.211 16.637-12.236 3.745-1.01 5.312-1.188 11.527-1.316 1.962-.04 4.625-.054 7.515-.045 7.307.023 15.993.182 18.57.357l.825-.902c0-.21-10.722-.428-19.395-.455M19.732 27.703c-1.377 1.279-.86 1.21 12.512 1.297 8.005.325 18.794-1.422 22.483 5.566.82 1.581 1.227 3.165 1.277 4.73.007-.187.023-.369.023-.562.022-1.708-.404-3.44-1.3-5.168-3.69-6.988-14.478-5.241-22.483-5.566-7.948-.051-11.34-.044-12.512-.297m-1.535 9.502c-.036.008-.114.015-.119.024-.248.391.091 1.183.967 2.265.953 1.179 2.555 2.067 4.252 2.358.575.098 4.59.164 8.922.144 7.844-.036 7.879-.04 8.685-.53.868-.527 1.12-1.09 1.094-2.445a2 2 0 0 0-.03-.328c-.074.874-.362 1.347-1.064 1.774-.806.49-.841.493-8.685.53-4.332.019-8.347-.047-8.922-.145-1.697-.291-3.299-1.18-4.252-2.358-.402-.497-.677-.925-.848-1.289" style="fill:#fff;opacity:.2"/></svg>