<svg xmlns="http://www.w3.org/2000/svg" xmlns:xlink="http://www.w3.org/1999/xlink" width="64" height="64"><defs><radialGradient xlink:href="#a" id="c" cx="6.719" cy="27.806" r="2.5" fx="6.719" fy="27.806" gradientTransform="rotate(-29.588 -391.592 52.78)scale(4.92206 9.58819)" gradientUnits="userSpaceOnUse"/><radialGradient xlink:href="#a" id="d" cx="6.719" cy="27.806" r="2.5" fx="6.719" fy="27.806" gradientTransform="rotate(-29.588 -286.521 7.938)scale(3.84155 7.48333)" gradientUnits="userSpaceOnUse"/><radialGradient xlink:href="#b" id="f" cx="9.403" cy="6.862" r="22" fx="9.403" fy="6.862" gradientTransform="matrix(0 -2.8981 2.87952 0 119.303 88.842)" gradientUnits="userSpaceOnUse"/><radialGradient id="b" cx="-159.431" cy="15.463" r="64.707" fx="-159.431" fy="15.463" gradientTransform="matrix(-.89413 0 0 .96305 -142.27 43.452)" gradientUnits="userSpaceOnUse"><stop offset="0" style="stop-color:#006fff;stop-opacity:1"/><stop offset="1" style="stop-color:#15baff;stop-opacity:1"/></radialGradient><linearGradient id="a"><stop offset="0" style="stop-color:#03f8ff;stop-opacity:1"/><stop offset="1" style="stop-color:#03b3ff;stop-opacity:1"/></linearGradient><filter id="e" width="2.395" height="2.395" x="-.698" y="-.698" style="color-interpolation-filters:sRGB"><feGaussianBlur stdDeviation="1.134"/></filter></defs><circle cx="14.205" cy="29.795" r="11.205" style="fill:#e4e4e4"/><circle cx="24.75" cy="18.914" r="13.841" style="fill:#e4e4e4"/><circle cx="39.25" cy="22.868" r="13.841" style="fill:#e4e4e4"/><circle cx="49.795" cy="29.795" r="11.205" style="fill:#e4e4e4"/><path d="M13.54 25.18h36.909v15.818H13.54z" style="fill:#e4e4e4"/><g transform="translate(-74.987 2.456)"><rect width="50" height="6" x="82.461" y="28.169" rx="2.543" ry="2.528" style="opacity:.470677;fill:#000;fill-opacity:1"/><rect width="5" height="5" x="83.698" y="20.306" rx="1.875" ry="1.875" style="fill:url(#c)"/><rect width="3.902" height="3.902" x="84.235" y="20.946" rx="1.463" ry="1.463" style="fill:url(#d);stroke-width:.780475;filter:url(#e)"/><path d="M85.46 31.17v20.2c0 1.55 1.227 2.8 2.75 2.8h38.5c1.524 0 2.75-1.25 2.75-2.8v-20.2z" style="fill:url(#f)"/><path d="M15 41.062a1.5 1.5 44.726 0 0 1.507 1.493h30.986A1.507 1.507 135 0 0 49 41.048a1.5 1.5 44.726 0 0-1.507-1.493H16.507A1.507 1.507 135 0 0 15 41.062m0 6a1.5 1.5 44.726 0 0 1.507 1.493h20.986A1.507 1.507 135 0 0 39 47.048a1.5 1.5 44.726 0 0-1.507-1.493H16.507A1.507 1.507 135 0 0 15 47.062m0 6a1.5 1.5 44.726 0 0 1.507 1.493h25.986A1.507 1.507 135 0 0 44 53.048a1.5 1.5 44.726 0 0-1.507-1.493H16.507A1.507 1.507 135 0 0 15 53.062" style="opacity:.5;fill:#fff;fill-opacity:1" transform="translate(75.46 -4.386)"/></g></svg>