<svg xmlns="http://www.w3.org/2000/svg" width="64" height="64"><circle cx="31.5" cy="32.5" r="28.5" style="opacity:.2"/><circle cx="31.5" cy="31.5" r="28.5" style="fill:#249eff"/><rect width="11" height="11" x="33" y="19" rx="2.75" ry="2.75" style="fill:#fff"/><path d="M31.5 3A28.5 28.5 0 0 0 3 31.5a29 29 0 0 0 .021.582A28.5 28.5 0 0 1 31.5 4a28.5 28.5 0 0 1 28.479 27.918L60 31.5A28.5 28.5 0 0 0 31.5 3" style="fill:#fff;opacity:.2"/><rect width="11" height="11" x="19" y="19" rx="2.75" ry="2.75" style="opacity:.6;fill:#fff"/><rect width="11" height="11" x="33" y="33" rx="2.75" ry="2.75" style="opacity:.6;fill:#fff"/><rect width="11" height="11" x="19" y="33" rx="2.75" ry="2.75" style="fill:#fff"/><path d="M19 27.25v1A2.744 2.744 0 0 0 21.75 31h5.5A2.744 2.744 0 0 0 30 28.25v-1A2.744 2.744 0 0 1 27.25 30h-5.5A2.744 2.744 0 0 1 19 27.25m14 0v1A2.744 2.744 0 0 0 35.75 31h5.5A2.744 2.744 0 0 0 44 28.25v-1A2.744 2.744 0 0 1 41.25 30h-5.5A2.744 2.744 0 0 1 33 27.25m-14 14v1A2.744 2.744 0 0 0 21.75 45h5.5A2.744 2.744 0 0 0 30 42.25v-1A2.744 2.744 0 0 1 27.25 44h-5.5A2.744 2.744 0 0 1 19 41.25m14 0v1A2.744 2.744 0 0 0 35.75 45h5.5A2.744 2.744 0 0 0 44 42.25v-1A2.744 2.744 0 0 1 41.25 44h-5.5A2.744 2.744 0 0 1 33 41.25" style="opacity:.2"/></svg>