<svg xmlns="http://www.w3.org/2000/svg" width="64" height="64"><rect width="56" height="59" x="-61" y="-62" rx="2.8" ry="2.95" style="opacity:.2" transform="rotate(90)scale(-1 1)"/><rect width="56" height="59" x="-60" y="-62" rx="2.8" ry="2.95" style="fill:#3f3f3f" transform="rotate(90)scale(-1 1)"/><path d="M57 15H47v6h10z" style="fill:#16be71"/><path d="M57 24H47v6h10z" style="fill:#05ac9c"/><path d="M57 33H47v6h10z" style="fill:#026ed2"/><path d="M18 42H8v6h10z" style="fill:#f6a500"/><path d="M31 42H21v6h10z" style="fill:#e74b32"/><path d="M57 42H47v6h10z" style="fill:#3446d9"/><path d="M44 39H34v-6h10z" style="fill:#9e2bbb"/><path d="M44 48H34v-6h10z" style="fill:#b72b68"/><path d="M31 33H21v6h10z" style="fill:#f57524"/><path d="M31 24H21v6h10z" style="fill:#fabc45"/><path d="M47 21v1h10v-1zm-26 9v1h10v-1zm26 0v1h10v-1zm-26 9v1h10v-1zm13 0v1h10v-1zm13 0v1h10v-1zM8 48v1h10v-1zm13 0v1h10v-1zm13 0v1h10v-1zm13 0v1h10v-1z" style="opacity:.2"/><path d="M5.95 4C4.314 4 3 5.25 3 6.8v1C3 6.25 4.315 5 5.95 5h53.1C60.686 5 62 6.25 62 7.8v-1C62 5.25 60.685 4 59.05 4z" style="fill:#fff;opacity:.1"/></svg>