<svg xmlns="http://www.w3.org/2000/svg" width="64" height="64"><path d="M32 4C16.488 4 4 16.488 4 32s12.488 28 28 28 28-12.488 28-28S47.512 4 32 4" style="fill:#8a0112"/><path d="M32 4C16.488 4 4 16.492 4 32.009c0 .098.011.194.018.291C4.392 17.115 16.726 5 32 5s27.608 12.115 27.982 27.3c.007-.097.018-.193.018-.291C60 16.492 47.512 4 32 4" style="fill:#fff;opacity:.1"/><path d="M59.982 32.7C59.631 47.882 47.29 60.001 32 60.001S4.371 47.884 4.018 32.704c-.007.11-.018.22-.018.332C4 48.528 16.488 61 32 61s28-12.472 28-27.964c0-.114-.011-.224-.018-.336" style="opacity:.2"/><path d="M31.844 55c-6.53 0-10.427-4.074-10.427-4.074L27.41 39.54A8 8 0 0 0 32 41a8 8 0 0 0 4.369-1.308l5.918 11.234S38.373 55 31.844 55M32 37a4 4 0 1 1 0-8 4 4 0 0 1 0 8m8.11-3.762a8.7 8.7 0 0 0-.257-1.758 8 8 0 0 0-.06-.258l-.03-.124a8 8 0 0 0-3.996-5.148l7.344-10.786s5.63 1.218 8.895 6.648 1.538 10.708 1.538 10.708v.004zm-16.224-.164-13.434-.718s-1.718-5.294 1.547-10.724S20.885 15 20.885 15l7.365 10.816a9.2 9.2 0 0 0-1.946 1.57 8 8 0 0 0-.3.332c-.086.102-.18.196-.262.302l-.008.008a8 8 0 0 0-.554.808c-.018.028-.042.052-.058.082-.036.058-.058.118-.09.176a8 8 0 0 0-.262.504 8.6 8.6 0 0 0-.884 3.476" style="opacity:.2"/><path d="M31.844 54c-6.53 0-10.427-4.074-10.427-4.074L27.41 38.54A8 8 0 0 0 32 40a8 8 0 0 0 4.369-1.308l5.918 11.234S38.373 54 31.844 54M32 36a4 4 0 1 1 0-8 4 4 0 0 1 0 8m8.11-3.762a8.7 8.7 0 0 0-.257-1.758 8 8 0 0 0-.06-.258l-.03-.124a8 8 0 0 0-3.996-5.148l7.344-10.786s5.63 1.218 8.895 6.648 1.538 10.708 1.538 10.708v.004zm-16.224-.164-13.434-.718s-1.718-5.294 1.547-10.724S20.885 14 20.885 14l7.365 10.816a9.2 9.2 0 0 0-1.946 1.57 8 8 0 0 0-.3.332c-.086.102-.18.196-.262.302l-.008.008a8 8 0 0 0-.554.808c-.018.028-.042.052-.058.082-.036.058-.058.118-.09.176a8 8 0 0 0-.262.504 8.6 8.6 0 0 0-.884 3.476" style="fill:#efc008"/><path d="M20.885 14s-5.622 1.203-8.887 6.633a13.8 13.8 0 0 0-1.889 5.523c.26-1.48.788-3.113 1.78-4.761 3.264-5.43 8.886-6.633 8.886-6.633l7.047 10.353c.144-.098.279-.21.428-.299zm22.226.164L35.766 24.95a8 8 0 0 1 .297.168L43 14.926s5.63 1.218 8.895 6.648c2.031 3.38 2.129 6.699 1.914 8.725.311-1.86.523-5.617-1.803-9.486-3.264-5.43-8.895-6.649-8.895-6.649M32 28a3.99 3.99 0 0 0-3.979 3.793 3.99 3.99 0 0 1 3.868-3.031 4 4 0 0 1 4.002 4c0 .07-.018.135-.022.205.078-.311.131-.632.131-.967 0-2.21-1.79-4-4-4m-8.07 3.564a8 8 0 0 0-.086.508l.04.002c.007-.17.03-.34.046-.51m3.48 6.975-5.992 11.387s.16.14.197.176l5.684-10.8a8 8 0 0 0 4.59 1.46 8 8 0 0 0 4.369-1.309l5.681 10.783c.114-.106.348-.31.348-.31L36.37 38.69A8 8 0 0 1 32 40a8 8 0 0 1-4.59-1.46" style="fill:#fff;opacity:.2"/></svg>