<svg xmlns="http://www.w3.org/2000/svg" width="64" height="64"><rect width="56" height="56" x="4" y="5" rx="2.8" ry="2.8" style="opacity:.2"/><rect width="56" height="56" x="4" y="4" rx="2.8" ry="2.8" style="fill:#4f4f4f"/><rect width="40" height="40" x="-53" y="-52" rx="2" ry="2" style="opacity:.2" transform="rotate(90)scale(-1 1)"/><rect width="40" height="40" x="-52" y="-52" rx="2" ry="2" style="fill:#6c6c6c" transform="rotate(90)scale(-1 1)"/><path d="M32 20v12m-9 9 9-9m9 9-9-9" style="fill:none;stroke:#3f3f3f;stroke-width:6;stroke-linecap:round"/><circle cx="32" cy="33" r="5" style="opacity:.2"/><circle cx="32" cy="32" r="5" style="fill:#fff"/><path d="M6.8 4C5.25 4 4 5.25 4 6.8v1C4 6.25 5.25 5 6.8 5h50.4C58.75 5 60 6.25 60 7.8v-1C60 5.25 58.75 4 57.2 4z" style="fill:#fff;opacity:.1"/><path d="M14 12c-1.108 0-2 .892-2 2v1c0-1.108.892-2 2-2h36c1.108 0 2 .892 2 2v-1c0-1.108-.892-2-2-2z" style="opacity:.1;fill:#fff"/></svg>