<svg xmlns="http://www.w3.org/2000/svg" width="64" height="64"><path d="M19.043 5.009q-5.227-.165-9.556 2.71c-4.501 2.987-7.248 7.973-7.475 13.57-.247 6.096 3.242 13.351 10.452 21.735 4.346 5.055 10.321 10.73 16.4 15.578A133 133 0 0 0 32 61s1.801-1.333 3.136-2.398c6.079-4.849 12.054-10.523 16.4-15.578 7.21-8.384 10.699-15.639 10.452-21.735-.227-5.597-2.974-10.583-7.475-13.57q-4.33-2.875-9.556-2.71c-3.24.102-6.14 1.173-9.029 3.333-1.483 1.135-2.654 2.671-3.928 4.055-1.274-1.384-2.445-2.92-3.928-4.055-2.888-2.16-5.789-3.23-9.03-3.333" style="opacity:.2"/><path d="M19.043 4.009q-5.227-.164-9.556 2.71c-4.501 2.987-7.248 7.973-7.475 13.57-.247 6.096 3.242 13.351 10.452 21.735 4.346 5.055 10.321 10.73 16.4 15.578A133 133 0 0 0 32 60s1.801-1.333 3.136-2.398c6.079-4.849 12.054-10.523 16.4-15.578 7.21-8.384 10.699-15.639 10.452-21.735-.227-5.597-2.974-10.583-7.475-13.57q-4.33-2.875-9.556-2.71c-3.24.102-6.14 1.173-9.029 3.333-1.483 1.135-2.654 2.671-3.928 4.055-1.274-1.384-2.445-2.92-3.928-4.055-2.888-2.16-5.789-3.23-9.03-3.333" style="fill:#3f3f3f"/><path d="M18.54 6.996c-3.018-.096-5.61.644-8.11 2.304-3.844 2.551-6.223 6.805-6.422 11.723-.208 5.12 2.894 12.471 10.094 20.844 4.326 5.032 10.388 10.8 16.52 15.691.569.455.8.617 1.378 1.055.577-.438.81-.6 1.379-1.055 6.131-4.89 12.193-10.66 16.52-15.691 7.2-8.373 10.3-15.723 10.093-20.844-.199-4.918-2.578-9.172-6.422-11.723-2.501-1.66-5.093-2.4-8.11-2.304-2.732.086-5.015.906-7.605 2.84-1.103.847-2.233 2.273-3.667 3.832L32 16.047l-2.187-2.38c-1.435-1.558-2.565-2.984-3.668-3.831-2.59-1.934-4.873-2.754-7.606-2.84m27.917 2.883c2.036.066 3.668.62 5.465 1.812 3.05 2.025 4.96 5.371 5.125 9.445.157 3.878-2.452 10.79-9.402 18.872C43.593 44.72 37.82 50.205 32 54.898c-5.821-4.693-11.592-10.178-15.645-14.89-6.95-8.083-9.559-14.994-9.402-18.872.165-4.074 2.074-7.42 5.125-9.445 1.797-1.193 3.433-1.742 5.469-1.808.29-.01.585-.01.894 0 2.176.068 3.665.577 5.895 2.238.611.472 1.776 1.836 3.289 3.48h-.004L32 20.36l4.379-4.758h-.004c1.513-1.644 2.678-3.008 3.289-3.48 2.23-1.66 3.719-2.17 5.895-2.238q.462-.017.898-.004M11.734 17q-.173 0-.332.005c-.28.008-.517.031-.68.074a.95.95 0 0 0-.656.648c-.195.614.02 1.087.871 1.934 1.055 1.048 1.753 1.388 4.399 2.137 4.405 1.246 6.585 1.955 7.285 2.37.295.176.462.148.586-.105.124-.25.115-.544-.02-.715-.205-.26-2.118-1.395-4.035-2.394-2.196-1.146-2.525-1.394-2.945-2.23-.417-.83-.805-1.117-1.941-1.419-.692-.183-1.722-.296-2.532-.304m33.63.005c-1.194.04-2.506.563-3.817 1.535-1.45 1.075-2.501 2.32-3.082 3.644-.307.7-.334 1.12-.121 2.032.246 1.054.297 1.461.297 2.332 0 1.235-.233 2.064-.883 3.156-.371.622-.428.876-.25 1.12q.25.345.726 0c.378-.272.64-.558 1.043-1.14 1.04-1.5 1.333-3.147.934-5.222a7 7 0 0 1-.121-.848c0-.698.946-1.486 3.277-2.727 2.046-1.088 3.33-2.117 3.442-2.757.057-.33-.085-.751-.313-.934-.124-.1-.311-.152-.629-.18a4 4 0 0 0-.504-.011m-26.923.02c-.366-.001-.69.035-.804.1-.235.131-.362.303-.453.61-.24.808.784 1.762 3.402 3.172 2.117 1.14 2.863 1.678 3.14 2.262.17.356.169.76-.015 1.84-.132.773-.105 1.968.062 2.66.282 1.165 1.148 2.588 1.903 3.129.355.254.6.268.808.043v-.004c.085-.092.153-.218.153-.278 0-.142-.148-.446-.407-.84-.973-1.478-1.167-3.41-.566-5.636.223-.825.192-1.089-.215-1.965-.406-.875-.82-1.477-1.586-2.297-1.269-1.358-2.88-2.352-4.367-2.695a5 5 0 0 0-1.055-.102m33.887.034c-.343-.002-.738.018-1.176.059-2.099.195-2.686.464-3.21 1.465-.238.454-.756 1.06-1.141 1.336-.103.073-.927.513-1.828.98-1.702.882-3.953 2.216-4.145 2.453-.139.172-.14.382-.004.68.118.259.24.293.527.137v-.004c.102-.054.615-.261 1.145-.461.878-.332 1.824-.626 6.195-1.922 2.603-.772 3.017-.936 3.793-1.512.761-.564 1.432-1.524 1.508-2.152a.84.84 0 0 0-.453-.875c-.216-.118-.639-.18-1.211-.184m-4.004 5.813c-.82.014-1.913.15-2.812.375-1.233.308-4.165 1.41-4.438 1.668-.103.097-.112.167-.074.57.049.518.12.655.312.598.072-.021.628-.092 1.235-.16.868-.098 1.245-.113 1.765-.067.793.071 2.23.26 2.266.297.07.07 1.28.012 1.613-.078v.004c.897-.243 1.745-1.091 1.887-1.887.091-.508-.179-.99-.676-1.207-.195-.085-.585-.122-1.078-.113m-33.054.023a2.4 2.4 0 0 0-.528.051c-.717.205-1.04.98-.707 1.7.18.39.73.947 1.188 1.202.726.405 1.378.469 2.597.246 1.47-.267 3.285-.3 4.434-.078q.501.096.578.032c.12-.105.236-.879.156-1.036-.186-.364-3.644-1.565-5.554-1.93a12.5 12.5 0 0 0-1.914-.187zM32 23a4 4 0 1 0 0 8 4 4 0 0 0 0-8m-11.555 3.402c-.946.009-2.126.278-2.547.61-.342.27-.332.756.02 1.124.304.319.666.413 1.61.418.686 0 .955-.029 1.85-.226.617-.136 1.229-.23 1.485-.23.24 0 .434-.013.434-.016 0-.014-.057-.204-.125-.43-.158-.527-.289-.786-.434-.867-.181-.101-1.31-.322-1.902-.371a4 4 0 0 0-.39-.012m22.907.016c-.651 0-1.273.065-1.625.195-.556.205-.917.673-1.032 1.336l-.035.215h.567c.369 0 .902.069 1.527.195 1.428.29 1.694.31 2.375.195.797-.133 1.2-.476 1.2-1.03 0-.469-.242-.66-1.165-.911-.48-.13-1.161-.195-1.812-.195M22.86 29.574q-.075 0-.152.012c-.4.055-1.434.468-1.539.613-.124.171-.09.405.078.582l.156.16h3.164l-.199-.265c-.58-.768-1.03-1.102-1.508-1.102m18.23.023a1.1 1.1 0 0 0-.464.121c-.284.148-1.213 1.045-1.117 1.079.116.04 1.742.194 2.137.203.215 0 .535-.023.71-.063.351-.079.504-.245.504-.535 0-.225-.134-.325-.785-.59q-.52-.211-.91-.215zm-16.788 3.801-1.75 2.8L20.8 39h7l-1.75-2.801zm15.398 0-1.75 2.8L36.2 39h7l-1.75-2.801zM28.5 43l1.75 2.8L32 48.602l1.75-2.8L35.5 43H32Z" style="opacity:.2"/><path d="M18.54 5.996c-3.017-.096-5.609.645-8.11 2.305-3.844 2.55-6.223 6.805-6.422 11.722-.208 5.12 2.894 12.472 10.094 20.844C18.428 45.9 24.49 51.668 30.622 56.56c.569.454.8.616 1.378 1.054.577-.438.81-.6 1.379-1.054 6.131-4.89 12.193-10.66 16.52-15.692 7.2-8.372 10.3-15.723 10.093-20.844-.199-4.917-2.578-9.171-6.422-11.722-2.501-1.66-5.093-2.4-8.11-2.305-2.732.086-5.015.906-7.605 2.84-1.103.848-2.233 2.274-3.667 3.832L32 15.047l-2.187-2.379c-1.435-1.558-2.565-2.984-3.668-3.832-2.59-1.934-4.873-2.754-7.606-2.84M46.456 8.88c2.036.066 3.668.62 5.465 1.812 3.05 2.025 4.96 5.372 5.125 9.446.157 3.877-2.452 10.788-9.402 18.87C43.593 43.72 37.82 49.207 32 53.899c-5.821-4.692-11.592-10.178-15.645-14.89-6.95-8.083-9.559-14.994-9.402-18.871.165-4.074 2.074-7.421 5.125-9.446 1.797-1.192 3.433-1.742 5.469-1.808.29-.01.585-.01.894 0 2.176.068 3.665.578 5.895 2.238.611.472 1.776 1.836 3.289 3.48h-.004L32 19.36l4.379-4.757h-.004c1.513-1.645 2.678-3.01 3.289-3.48 2.23-1.661 3.719-2.17 5.895-2.24.309-.009.607-.013.898-.003M11.734 16q-.173-.002-.332.004c-.28.009-.517.031-.68.074a.95.95 0 0 0-.656.649c-.195.613.02 1.087.871 1.933 1.055 1.048 1.753 1.388 4.399 2.137 4.405 1.246 6.585 1.955 7.285 2.371.295.176.462.147.586-.105.124-.25.115-.545-.02-.715-.205-.261-2.118-1.395-4.035-2.395-2.196-1.145-2.525-1.394-2.945-2.23-.417-.83-.805-1.117-1.941-1.418-.692-.184-1.722-.297-2.532-.305m33.63.004c-1.194.04-2.506.564-3.817 1.535-1.45 1.075-2.501 2.32-3.082 3.645-.307.699-.334 1.12-.121 2.03.246 1.055.297 1.462.297 2.333 0 1.236-.233 2.065-.883 3.156-.371.623-.428.877-.25 1.121q.25.344.726 0c.378-.272.64-.559 1.043-1.14 1.04-1.501 1.333-3.148.934-5.223a7 7 0 0 1-.121-.848c0-.698.946-1.485 3.277-2.726 2.046-1.09 3.33-2.118 3.442-2.758.057-.33-.085-.751-.313-.934-.124-.1-.311-.152-.629-.18a4 4 0 0 0-.504-.011m-26.923.02c-.366 0-.69.035-.804.101-.235.13-.362.302-.453.61-.24.807.784 1.762 3.402 3.171 2.117 1.14 2.863 1.678 3.14 2.262.17.356.169.761-.015 1.84-.132.773-.105 1.968.062 2.66.282 1.166 1.148 2.588 1.903 3.129.355.255.6.269.808.043v-.004c.085-.092.153-.218.153-.278 0-.142-.148-.446-.407-.84-.973-1.478-1.167-3.409-.566-5.636.223-.825.192-1.089-.215-1.965-.406-.875-.82-1.477-1.586-2.297-1.269-1.358-2.88-2.352-4.367-2.695a5 5 0 0 0-1.055-.102m33.887.035c-.343-.002-.738.017-1.176.058-2.099.195-2.686.464-3.21 1.465-.238.454-.756 1.061-1.141 1.336-.103.074-.927.513-1.828.98-1.702.883-3.953 2.216-4.145 2.454-.139.171-.14.381-.004.68.118.258.24.292.527.136v-.004c.102-.054.615-.26 1.145-.461.878-.332 1.824-.625 6.195-1.922 2.603-.772 3.017-.936 3.793-1.512.761-.564 1.432-1.524 1.508-2.152a.84.84 0 0 0-.453-.875c-.216-.117-.639-.18-1.211-.183m-4.004 5.812c-.82.014-1.913.15-2.812.375-1.233.308-4.165 1.41-4.438 1.668-.103.097-.112.167-.074.57.049.518.12.655.312.598.072-.02.628-.092 1.235-.16.868-.097 1.245-.112 1.765-.067.793.071 2.23.26 2.266.297.07.071 1.28.013 1.613-.078v.004c.897-.243 1.745-1.09 1.887-1.886.091-.509-.179-.99-.676-1.208-.195-.085-.585-.121-1.078-.113m-33.054.024a2.3 2.3 0 0 0-.528.05c-.717.206-1.04.98-.707 1.7.18.39.73.947 1.188 1.203.726.405 1.378.468 2.597.246 1.47-.268 3.285-.301 4.434-.078q.501.096.578.03c.12-.103.236-.878.156-1.034-.186-.364-3.644-1.566-5.554-1.93a12.5 12.5 0 0 0-1.914-.187zM32 22a4 4 0 1 0 0 8 4 4 0 0 0 0-8m-11.555 3.402c-.946.01-2.126.278-2.547.61-.342.27-.332.756.02 1.125.304.318.666.412 1.61.418.686 0 .955-.03 1.85-.227.617-.136 1.229-.23 1.485-.23.24 0 .434-.013.434-.016 0-.014-.057-.203-.125-.43-.158-.526-.289-.786-.434-.867-.181-.101-1.31-.322-1.902-.37a4 4 0 0 0-.39-.013m22.907.016c-.651 0-1.273.065-1.625.195-.556.206-.917.673-1.032 1.336l-.035.215h.567c.369 0 .902.069 1.527.195 1.428.29 1.694.31 2.375.196.797-.134 1.2-.477 1.2-1.032 0-.467-.242-.66-1.165-.91-.48-.13-1.161-.195-1.812-.195M22.86 28.574q-.075 0-.152.012c-.4.056-1.434.468-1.539.613-.124.171-.09.406.078.582l.156.16h3.164l-.199-.265c-.58-.767-1.03-1.101-1.508-1.102m18.23.024a1.1 1.1 0 0 0-.464.12c-.284.148-1.213 1.045-1.117 1.079.116.04 1.742.194 2.137.203.215 0 .535-.022.71-.063.351-.079.504-.244.504-.535 0-.225-.134-.325-.785-.59q-.52-.211-.91-.214-.038-.002-.074 0m-16.788 3.8L22.55 35.2 20.8 38h7l-1.75-2.8zm15.398 0L37.95 35.2 36.2 38h7l-1.75-2.8zM28.5 42l1.75 2.8L32 47.603l1.75-2.801L35.5 42H32Z" style="fill:#fff"/><path d="M19.043 4.008q-5.225-.164-9.555 2.71c-4.5 2.988-7.25 7.974-7.476 13.571-.013.326-.01.657 0 .99.23-5.593 2.978-10.575 7.476-13.56q4.33-2.876 9.555-2.711c3.24.102 6.14 1.175 9.027 3.336 1.484 1.135 2.656 2.67 3.93 4.054 1.274-1.384 2.446-2.92 3.93-4.054 2.888-2.16 5.787-3.234 9.027-3.336q5.225-.164 9.555 2.71c4.498 2.986 7.247 7.968 7.476 13.561.01-.333.013-.664 0-.99-.226-5.597-2.975-10.583-7.476-13.57q-4.33-2.876-9.555-2.711c-3.24.102-6.14 1.175-9.027 3.336-1.484 1.135-2.656 2.67-3.93 4.054-1.274-1.384-2.446-2.92-3.93-4.054-2.888-2.16-5.787-3.234-9.027-3.336" style="opacity:.1;fill:#fff"/></svg>