<svg xmlns="http://www.w3.org/2000/svg" xmlns:xlink="http://www.w3.org/1999/xlink" width="64" height="64"><defs><radialGradient id="b" cx="-159.431" cy="15.463" r="64.707" fx="-159.431" fy="15.463" gradientTransform="matrix(-.89413 0 0 .96305 -159.362 44.084)" gradientUnits="userSpaceOnUse"><stop offset="0" style="stop-color:#00ebff;stop-opacity:1"/><stop offset="1" style="stop-color:#15baff;stop-opacity:1"/></radialGradient><radialGradient id="c" cx="-159.431" cy="15.463" r="64.707" fx="-159.431" fy="15.463" gradientTransform="matrix(-.89413 0 0 .96305 -159.362 44.084)" gradientUnits="userSpaceOnUse"><stop offset="0" style="stop-color:#00b5ff;stop-opacity:1"/><stop offset="1" style="stop-color:#15a8ff;stop-opacity:1"/></radialGradient><radialGradient xlink:href="#a" id="f" cx="25.751" cy="30.551" r="22" fx="25.751" fy="30.551" gradientTransform="matrix(2.92463 0 0 2.89795 -75.456 -23.131)" gradientUnits="userSpaceOnUse"/><radialGradient id="a" cx="-159.431" cy="15.463" r="64.707" fx="-159.431" fy="15.463" gradientTransform="matrix(-.89413 0 0 .96305 -159.362 44.084)" gradientUnits="userSpaceOnUse"><stop offset="0" style="stop-color:#006fff;stop-opacity:1"/><stop offset="1" style="stop-color:#4298bc;stop-opacity:1"/></radialGradient><radialGradient id="d" cx="-159.431" cy="15.463" r="64.707" fx="-159.431" fy="15.463" gradientTransform="matrix(-.89413 0 0 .96305 -159.362 44.084)" gradientUnits="userSpaceOnUse"><stop offset="0" style="stop-color:#006fff;stop-opacity:1"/><stop offset="1" style="stop-color:#15baff;stop-opacity:1"/></radialGradient><radialGradient xlink:href="#b" id="g" cx="30.817" cy="68.304" r="16.576" fx="30.817" fy="68.304" gradientTransform="matrix(0 -2.77149 3.08144 0 -145.459 102.593)" gradientUnits="userSpaceOnUse"/><radialGradient xlink:href="#c" id="h" cx="16.768" cy="36.361" r="16.809" fx="16.768" fy="36.361" gradientTransform="matrix(0 -2.94618 3.15223 0 -53.91 62.659)" gradientUnits="userSpaceOnUse"/><radialGradient xlink:href="#d" id="i" cx="19.052" cy="37.894" r="15.529" fx="19.052" fy="37.894" gradientTransform="matrix(0 -2.80148 3.14544 0 -50.465 74.88)" gradientUnits="userSpaceOnUse"/><radialGradient id="e" cx="-159.431" cy="15.463" r="64.707" fx="-159.431" fy="15.463" gradientTransform="matrix(-.89413 0 0 .96305 -159.362 44.084)" gradientUnits="userSpaceOnUse"><stop offset="0" style="stop-color:#519dff;stop-opacity:1"/><stop offset="1" style="stop-color:#69d2ff;stop-opacity:1"/></radialGradient><radialGradient xlink:href="#e" id="k" cx="70.596" cy="62.232" r="22.205" fx="70.596" fy="62.232" gradientTransform="matrix(0 -2.95474 2.97141 0 -119.986 273.647)" gradientUnits="userSpaceOnUse"/><filter id="m" width="1.193" height="1.154" x="-.097" y="-.077" style="color-interpolation-filters:sRGB"><feGaussianBlur stdDeviation="1.623"/></filter><filter id="l" width="1.103" height="1.08" x="-.051" y="-.04" style="color-interpolation-filters:sRGB"><feGaussianBlur stdDeviation=".718"/></filter><filter id="j" width="1.122" height="1.13" x="-.061" y="-.065" style="color-interpolation-filters:sRGB"><feGaussianBlur stdDeviation=".797"/></filter></defs><path d="M15.397 27.642c-10.375 14.94.555 31.6 16.609 31.6 16.047 0 26.967-16.651 16.6-31.604-3.245-4.684-8.395-12.112-12.1-17.455-2.489-3.59-6.523-3.588-9.01.001z" style="fill:url(#f);stroke-width:.939352" transform="translate(-2.184 -3.643)scale(1.06824)"/><g style="opacity:.47611674"><path d="M34.112 26.038c-5.062 0-10.35 2.93-13.095 7.685a15.37 15.37 0 0 0 .05 15.452 17.8 17.8 0 0 0 4.247 2.821 14.05 14.05 0 0 1 .202-13.688c3.88-6.719 11.974-9.02 18.169-5.141a13.4 13.4 0 0 1 4.034 3.957c-1.019-3.81-3.356-7.044-6.523-9.027a13.33 13.33 0 0 0-7.084-2.059" style="fill:url(#g);fill-opacity:1;stroke-width:.814954" transform="translate(-2.184 -2.184)scale(1.06824)"/><path d="M33.133 23.364c-4.404.106-9.103 2.427-11.926 6.28-5.017 6.845-3.535 16.461 3.31 21.478q.528.386 1.087.728a14.05 14.05 0 0 1-.424-17.158c4.587-6.258 12.836-7.613 18.606-3.026a13.75 13.75 0 0 1 3.614 4.409c-.631-3.907-2.63-7.397-5.58-9.742-2.516-2-5.57-3.043-8.687-2.969" style="fill:url(#h);fill-opacity:1;stroke-width:.814954" transform="translate(-2.184 -2.184)scale(1.06824)"/><path d="M31.61 22.209c-5.96 0-12.367 3.665-15.234 9.457-2.923 8.936 1.906 17.565 10.004 20.796a15.54 15.54 0 0 1-4.922-11.35c0-8.583 7.207-15.54 15.121-15.54 2.028 0 4.033.468 5.883 1.371-2.919-3.038-6.808-4.734-10.853-4.734" style="fill:url(#i);fill-opacity:1;stroke-width:.814954" transform="translate(-2.184 -2.184)scale(1.06824)"/></g><g style="stroke:#001dff;stroke-width:.1;stroke-dasharray:none;stroke-opacity:1;filter:url(#j)" transform="translate(-40.231 11.238)scale(1.06824)"><path d="M72.191 16.396c-4.229-.173-8.526 1.824-11.392 5.735a14.05 14.05 0 0 0-.586 15.746 14.05 14.05 0 0 1 .922-12.129c3.88-6.719 11.975-9.022 18.17-5.143a13.4 13.4 0 0 1 4.033 3.957q-.142-.534-.318-1.052l-.002-.004a13.7 13.7 0 0 0-3.612-4.4c-2.164-1.72-4.677-2.606-7.215-2.71Zm-15.523 20.18c.007.012.01.025.018.037.043.04.095.07.138.108zm1.9 1.494q.166.11.336.217-.169-.106-.336-.217z" style="fill:none;stroke:#001dff;stroke-width:.1;stroke-dasharray:none;stroke-opacity:1"/><path d="M72.197 13.012c-7.914 0-15.12 6.956-15.12 15.539a15.55 15.55 0 0 0 3.28 9.553A14.05 14.05 0 0 1 60.8 22.13c4.586-6.258 12.837-7.612 18.607-3.026a13.7 13.7 0 0 1 3.614 4.409c-.62-3.838-2.562-7.275-5.426-9.618q.248.237.486.487a13.4 13.4 0 0 0-5.883-1.371z" style="fill:none;stroke:#001dff;stroke-width:.1;stroke-dasharray:none;stroke-opacity:1"/><path d="M67.229 9.648c-5.96 0-12.368 3.666-15.235 9.457C49.072 28.041 53.902 36.67 62 39.9a15.54 15.54 0 0 1-4.924-11.35c0-8.582 7.207-15.539 15.121-15.538 2.028 0 4.034.468 5.883 1.37-2.919-3.037-6.806-4.733-10.851-4.734Z" style="fill:none;stroke:#001dff;stroke-width:.1;stroke-dasharray:none;stroke-opacity:1"/></g><path d="M32 7.91c-1.09 0-2.106.628-2.756 1.567L16.74 27.522c-4.683 6.743-4.61 14.111-1.433 19.68 3.177 5.567 9.389 9.37 16.698 9.37 7.307 0 13.515-3.801 16.69-9.37 3.175-5.567 3.247-12.935-1.432-19.684v-.001c-3.496-5.046-9.582-13.825-12.507-18.042C34.106 8.537 33.09 7.91 32 7.91m0 4.128c-.105 0 .28.033.53.392 2.725 3.93 8.399 12.111 11.656 16.813v.002c3.884 5.6 3.73 11.298 1.218 15.702-2.512 4.405-7.448 7.482-13.4 7.482-5.953 0-10.895-3.079-13.408-7.483-2.513-4.405-2.666-10.101 1.22-15.697v-.001L31.473 12.43c.249-.36.633-.392.528-.392" style="baseline-shift:baseline;display:inline;overflow:visible;opacity:1;vector-effect:none;fill:url(#k);stroke:none;stroke-width:.853244;enable-background:accumulate;stop-color:#000;stop-opacity:1"/><path d="M32 9.223c-1.02 0-1.971.588-2.58 1.467L17.715 27.582c-4.384 6.313-4.316 13.21-1.342 18.422 2.975 5.213 8.789 8.773 15.632 8.773 6.84 0 12.65-3.559 15.623-8.771s3.04-12.11-1.34-18.427v-.002L34.58 10.688c-.61-.878-1.56-1.465-2.58-1.465Zm0 3.88c-.099 0 .263.03.496.367 2.551 3.68 7.862 11.337 10.912 15.739v.001c3.635 5.243 3.491 10.577 1.14 14.7s-6.972 7.004-12.544 7.004c-5.574 0-10.199-2.882-12.552-7.005-2.353-4.124-2.496-9.457 1.141-14.694l.002-.002 10.91-15.743c.233-.336.593-.367.495-.367z" style="baseline-shift:baseline;display:inline;overflow:visible;mix-blend-mode:normal;fill:none;stroke:#001dff;stroke-width:.2;stroke-dasharray:none;stroke-opacity:1;filter:url(#l);enable-background:accumulate;stop-color:#000" transform="translate(-2.184 -2.184)scale(1.06824)"/><path d="M15.397 27.642c-10.375 14.94.555 31.6 16.609 31.6 16.047 0 26.967-16.651 16.6-31.604-3.245-4.684-8.395-12.112-12.1-17.455-2.489-3.59-6.523-3.588-9.01.001z" style="mix-blend-mode:normal;fill:none;stroke:#000;stroke-width:.2;stroke-linecap:round;stroke-linejoin:round;stroke-dasharray:none;stroke-opacity:1;filter:url(#m)" transform="translate(-2.184 -3.643)scale(1.06824)"/></svg>