<svg xmlns="http://www.w3.org/2000/svg" width="64" height="64"><circle cx="32" cy="33" r="28" style="opacity:.2"/><circle cx="32" cy="32" r="28" style="fill:#e4e4e4"/><path d="M35.771 15a6.67 6.67 0 0 0-3.779 1.087 6.7 6.7 0 0 0-2.498 3.032 6.7 6.7 0 0 0-.346 3.918 6.7 6.7 0 0 0 1.93 3.424 4.97 4.97 0 0 1-.715-2.72c.028-.949.34-1.885.881-2.667a5 5 0 0 1 2.194-1.758 4.96 4.96 0 0 1 2.794-.277 5 5 0 0 1 3.079 1.96h11.884l-9.486-2.04a6.7 6.7 0 0 0-2.39-2.846A6.7 6.7 0 0 0 35.77 15m-19.396 2.375A8.53 8.53 0 0 0 14 23.312c.018 2.151.907 4.277 2.408 5.817l-1.17-.36a7.44 7.44 0 0 0 .352 4.768 7.44 7.44 0 0 0 3.21 3.545c1.086.6 2.323.918 3.563.918a7.4 7.4 0 0 0 3.56-.918 6 6 0 0 1-5.28-2.305 6.03 6.03 0 0 1-1.23-3.188l11.26 1.93-11.304-3.478-.025-.024a5.5 5.5 0 0 1-1.465-3.308 5.5 5.5 0 0 1 .871-3.397l13.063 7.125zM38.15 25.16a5.57 5.57 0 0 0-1.257 2.822c-.133.977-.001 1.978.257 2.93.259.948.644 1.862 1.022 2.773s.754 1.824 1 2.78c.243.954.353 1.96.19 2.931-.275 1.626-1.313 3.073-2.665 4.016-1.352.942-3 1.408-4.646 1.515A11.96 11.96 0 0 1 26 43.717l.047 9.683 2.422-4.816c3.199.936 6.776.475 9.635-1.237 1.443-.863 2.71-2.038 3.593-3.468.886-1.431 1.374-3.119 1.295-4.795-.113-2.393-1.334-4.573-2.5-6.663-1.17-2.09-2.345-4.305-2.361-6.7q0-.281.02-.561" style="opacity:.1"/><path d="M35.771 14a6.67 6.67 0 0 0-3.779 1.088 6.7 6.7 0 0 0-2.498 3.031 6.7 6.7 0 0 0-.346 3.918 6.7 6.7 0 0 0 1.93 3.424 4.97 4.97 0 0 1-.715-2.719c.028-.95.34-1.885.881-2.668a5 5 0 0 1 2.194-1.758 4.96 4.96 0 0 1 2.794-.277A5 5 0 0 1 39.311 20h11.884l-9.486-2.041a6.7 6.7 0 0 0-2.39-2.846A6.7 6.7 0 0 0 35.77 14" style="fill:#3f3f3f"/><path d="M31.813 29.438 16.375 16.375A8.53 8.53 0 0 0 14 22.313a8.54 8.54 0 0 0 2.542 5.962 8.55 8.55 0 0 0 6.021 2.403 5.5 5.5 0 0 1-3.219-1.66 5.5 5.5 0 0 1-1.466-3.31c-.09-1.187.223-2.4.872-3.395z" style="fill:#0192d3"/><path d="m30.675 32.52-15.438-4.75a7.45 7.45 0 0 0 .353 4.768 7.43 7.43 0 0 0 3.21 3.544c1.085.6 2.322.918 3.562.918s2.477-.319 3.563-.918a6 6 0 0 1-5.282-2.304 6.03 6.03 0 0 1-1.23-3.189zm7.475-8.36a5.6 5.6 0 0 0-1.257 2.823c-.133.977 0 1.977.258 2.928.259.95.643 1.863 1.022 2.774.378.91.753 1.825.999 2.78.242.955.353 1.96.189 2.931-.274 1.627-1.311 3.073-2.664 4.016-1.352.942-3 1.409-4.645 1.516A11.96 11.96 0 0 1 26 42.718l.047 9.682 2.42-4.816c3.2.936 6.777.476 9.636-1.236 1.444-.863 2.71-2.039 3.593-3.47.886-1.43 1.375-3.117 1.296-4.794-.114-2.392-1.334-4.573-2.5-6.663-1.169-2.09-2.345-4.305-2.36-6.7q0-.282.018-.562" style="fill:#0192d3"/><path d="M32 4A28 28 0 0 0 4 32a28 28 0 0 0 .021.586A28 28 0 0 1 32 5a28 28 0 0 1 27.979 27.414L60 32A28 28 0 0 0 32 4" style="fill:#fff;opacity:.2"/></svg>