<svg xmlns="http://www.w3.org/2000/svg" xmlns:xlink="http://www.w3.org/1999/xlink" width="64" height="64"><defs><filter id="c" width="1.18" height="1.17" x="-.09" y="-.085" style="color-interpolation-filters:sRGB"><feGaussianBlur stdDeviation="1.509"/></filter><filter id="d" width="1.095" height="1.089" x="-.048" y="-.045" style="color-interpolation-filters:sRGB"><feGaussianBlur stdDeviation=".834"/></filter><radialGradient xlink:href="#a" id="b" cx="8.715" cy="54.992" r="20.691" fx="8.715" fy="54.992" gradientTransform="matrix(3.16777 0 0 3.3543 -23.687 -123.235)" gradientUnits="userSpaceOnUse"/><linearGradient id="a"><stop offset="0" style="stop-color:#006fff;stop-opacity:1"/><stop offset="1" style="stop-color:#00abff;stop-opacity:1"/></linearGradient></defs><path d="M35.066 4.66a6 6 0 0 0-.75.059l-4.724.716c-3.046.461-5.344 3.133-5.345 6.213v4.343l-2.525-1.608c.096.062-.139-.113-.507-.346-.367-.233-.823-.684-2.245-.795h-.003a4.62 4.62 0 0 0-3.593 1.328l-3.555 3.56c-.899.898-1.36 2.324-1.31 3.394.052 1.07.407 1.836.798 2.45l1.735 2.725-3.122.695c-.713.158-1.503.448-2.294 1.167S6.15 30.613 6.15 31.888v4.443c0 1.275.686 2.608 1.477 3.327.792.72 1.583 1.01 2.296 1.168l3.123.694-1.736 2.72-.002.003c-.393.617-.746 1.384-.797 2.452s.407 2.493 1.309 3.395l3.556 3.556c1.748 1.749 4.73 1.749 6.478 0l-.636.512 2.747-1.75.702 3.164-.088-.812c0 2.478 2.105 4.582 4.582 4.582h5.024c1.268 0 2.6-.678 3.322-1.47.722-.79 1.013-1.586 1.172-2.3l.008-.025.714-3.317 2.537 1.814-.47-.398c1.742 1.742 4.734 1.742 6.476 0L51.5 50.09c.902-.902 1.36-2.327 1.31-3.395-.052-1.068-.405-1.835-.798-2.452l.098.166-.256-.454 2.622-1.035.003-.003c3.269-1.294 4.383-5.658 2.132-8.36v-.003l-7.992-9.588 8.153-10.588.003-.003c2.185-2.84.654-7.287-2.815-8.184l-4.544-1.175h-.002a6.765 6.765 0 0 0-7.388 2.942l-1.299 2.064c-.148-2.972-2.66-5.41-5.662-5.362Z" style="baseline-shift:baseline;display:inline;overflow:visible;opacity:1;vector-effect:none;fill:url(#b);stroke-width:1.24792;stroke-linecap:round;stroke-linejoin:round;enable-background:accumulate;stop-color:#000;stop-opacity:1"/><path d="M34.48 10.091a4.5 4.5 0 0 0-.6.047l-3.786.574c-2.44.37-4.282 2.51-4.283 4.979v3.48l-2.024-1.289c.078.05-.11-.09-.406-.277-.294-.186-.66-.548-1.799-.637h-.002a3.7 3.7 0 0 0-2.879 1.064l-2.85 2.852c-.72.72-1.089 1.863-1.048 2.72s.326 1.472.639 1.964l1.39 2.183-2.502.557a3.85 3.85 0 0 0-1.838.935c-.634.577-1.183 1.645-1.183 2.666v3.561c0 1.022.55 2.09 1.183 2.666a3.86 3.86 0 0 0 1.84.936l2.502.556-1.39 2.18-.002.002a3.86 3.86 0 0 0-.639 1.965c-.04.856.326 1.998 1.049 2.72l2.85 2.85c1.4 1.401 3.79 1.401 5.19 0l-.509.41 2.201-1.402.563 2.535-.07-.65c0 1.985 1.686 3.672 3.671 3.672h4.026c1.016 0 2.083-.544 2.662-1.178s.812-1.271.94-1.844l.005-.02.573-2.658 2.033 1.453-.377-.318c1.396 1.396 3.793 1.396 5.19 0l2.85-2.85c.723-.722 1.09-1.864 1.05-2.72a3.86 3.86 0 0 0-.64-1.965l.08.133-.206-.364 2.102-.83.002-.002c2.62-1.037 3.512-4.534 1.709-6.699v-.002l-6.405-7.683 6.533-8.485.002-.002c1.751-2.277.525-5.84-2.255-6.558l-3.641-.942h-.002a5.42 5.42 0 0 0-5.92 2.358l-1.041 1.654c-.119-2.382-2.131-4.336-4.537-4.297" style="baseline-shift:baseline;display:inline;overflow:visible;mix-blend-mode:normal;fill:none;stroke:#000;stroke-width:.2;stroke-linecap:round;stroke-linejoin:round;stroke-dasharray:none;stroke-opacity:1;filter:url(#c);enable-background:accumulate;stop-color:#000" transform="translate(-7.934 -7.934)scale(1.24792)"/><path d="M35.125 8.402a2 2 0 0 0-.249.02l-4.723.716a2.54 2.54 0 0 0-2.162 2.513v28.358a1.677 1.677 0 0 0 2.11 1.619l4.826-1.297a2.85 2.85 0 0 0 2.111-2.752v-9.73a.201.201 0 0 1 .376-.102l7.85 13.162a1.8 1.8 0 0 0 2.213.753l5.626-2.225a1.582 1.582 0 0 0 .633-2.484L44.83 26.265a1.96 1.96 0 0 1-.048-2.447l9.025-11.724a1.444 1.444 0 0 0-.785-2.279L48.48 8.641a2.99 2.99 0 0 0-3.28 1.306l-7.77 12.365a.21.21 0 0 1-.39-.112V10.28a1.88 1.88 0 0 0-1.914-1.878m-16.51 8.57a.84.84 0 0 0-.593.246l-3.556 3.558c-.328.328-.25.796 0 1.187l3.22 5.055c.254.4.294 1.07.114 1.509l-.095.231c-.174.44-.67.887-1.133.99l-5.838 1.3c-.453.1-.84.376-.84.84v4.443c0 .464.387.74.84.841l5.838 1.297c.462.103.96.55 1.138.99l.097.233c.183.437.133 1.112-.121 1.512l-3.22 5.05c-.25.391-.328.861 0 1.19l3.556 3.555a.836.836 0 0 0 1.184 0l5.048-3.215c.4-.254 1.069-.291 1.507-.11q.143.06.277.113c.44.175.887.676.99 1.138l1.294 5.835c0 .464.375.839.839.839h5.023c.464 0 .74-.386.84-.839l1.3-6.037c.1-.463.542-.97.975-1.163q.21-.094.42-.195c.426-.206 1.074-.17 1.46.105L44.113 51a.833.833 0 0 0 1.182 0l3.558-3.557c.329-.328.25-.798 0-1.19L46.97 42.93c-.799.296-1.653-.049-2.135-.694-.087-.117-.201-.323-.275-.449L43 39.13c-.074-.125-.177-.118-.236.015-1.652 3.724-5.077 6.489-9.204 7.217-1.188.21-3.163.21-4.35 0-5.835-1.029-10.267-6.123-10.267-12.253 0-5.272 3.286-9.768 7.917-11.58.01-.409 0-1.14-.008-1.7-.005-.385-.305-.595-.663-.454q-.293.116-.582.239c-.354.15-.902.11-1.226-.098l-4.67-2.976c-.278-.177-.712-.54-1.033-.565z" style="fill:#fff;fill-opacity:1;stroke-width:1.24792"/><path d="M35.125 8.402a2 2 0 0 0-.248.02l-4.724.716a2.54 2.54 0 0 0-2.162 2.513v28.358a1.677 1.677 0 0 0 2.11 1.619l4.827-1.297a2.85 2.85 0 0 0 2.11-2.752v-9.73a.201.201 0 0 1 .376-.102l7.85 13.162a1.8 1.8 0 0 0 2.214.753l5.625-2.225a1.582 1.582 0 0 0 .634-2.484L44.83 26.265a1.96 1.96 0 0 1-.049-2.447l9.026-11.724a1.444 1.444 0 0 0-.785-2.279l-4.544-1.174a2.99 2.99 0 0 0-3.28 1.306l-7.77 12.365a.21.21 0 0 1-.39-.112V10.28a1.88 1.88 0 0 0-1.914-1.878Zm-16.51 8.57a.84.84 0 0 0-.593.246l-3.556 3.558c-.328.328-.249.796 0 1.187l3.22 5.055c.255.4.295 1.07.115 1.509l-.096.231c-.174.44-.67.887-1.133.99l-5.837 1.3c-.453.1-.841.376-.841.84v4.443c0 .464.388.74.84.841l5.838 1.297c.463.103.96.55 1.138.99l.098.233c.183.437.133 1.112-.122 1.512l-3.22 5.05c-.249.391-.328.861 0 1.19l3.556 3.555a.836.836 0 0 0 1.185 0l5.048-3.215c.4-.254 1.068-.291 1.506-.11l.278.113c.44.175.887.676.99 1.138l1.294 5.835c0 .464.374.839.838.839h5.023c.465 0 .74-.386.841-.839l1.3-6.037c.1-.463.541-.97.974-1.163q.21-.094.42-.195c.426-.206 1.074-.17 1.46.105L44.114 51a.833.833 0 0 0 1.182 0l3.559-3.557c.328-.328.249-.798 0-1.19L46.97 42.93c-.8.296-1.654-.049-2.135-.694-.087-.117-.202-.323-.276-.449L43 39.13c-.073-.125-.177-.118-.236.015-1.651 3.724-5.076 6.489-9.204 7.217-1.187.21-3.162.21-4.35 0-5.834-1.029-10.266-6.123-10.266-12.253 0-5.272 3.285-9.768 7.916-11.58.01-.409.001-1.14-.007-1.7-.006-.385-.305-.595-.663-.454q-.293.116-.583.239c-.354.15-.901.11-1.226-.098l-4.67-2.976c-.277-.177-.712-.54-1.033-.565z" style="fill:none;fill-opacity:1;stroke:#0026ff;stroke-width:.2;stroke-dasharray:none;stroke-opacity:1;filter:url(#d)"/></svg>