<svg xmlns="http://www.w3.org/2000/svg" width="64" height="64"><circle cx="32" cy="33" r="28" style="opacity:.2"/><circle cx="32" cy="32" r="28" style="fill:#3f3f3f"/><path d="M21.459 17A1.46 1.416 0 0 0 20 18.416v29.168A1.46 1.416 0 0 0 21.459 49h8.379c5.191 0 9.46-1.334 12.53-4.1C45.494 42.08 47 37.9 47 32.713c0-3.306-.635-6.168-1.99-8.526v-.005c-1.339-2.355-3.298-4.185-5.76-5.395C36.794 17.58 33.932 17 30.72 17ZM27 24h3.37c3.273 0 5.566.739 7.161 2.107a1.418 1.271 0 0 0 .016.01C39.11 27.42 40 29.565 40 32.852c0 3.256-.899 5.466-2.54 6.906C35.82 41.198 33.278 42 29.554 42H27Z" style="opacity:.2"/><path d="M21.459 16A1.46 1.416 0 0 0 20 17.416v29.168A1.46 1.416 0 0 0 21.459 48h8.379c5.191 0 9.46-1.334 12.53-4.1C45.494 41.08 47 36.9 47 31.713c0-3.306-.635-6.168-1.99-8.526v-.005c-1.339-2.355-3.298-4.185-5.76-5.395C36.794 16.58 33.932 16 30.72 16zM27 23h3.37c3.273 0 5.566.739 7.161 2.107a1.418 1.271 0 0 0 .016.01C39.11 26.42 40 28.565 40 31.852c0 3.256-.899 5.466-2.54 6.906C35.82 40.198 33.278 41 29.554 41H27z" style="fill:#ffbe16"/><path d="M32 4A28 28 0 0 0 4 32a28 28 0 0 0 .035.5A28 28 0 0 1 32 5a28 28 0 0 1 27.982 27.252L60 32A28 28 0 0 0 32 4" style="fill:#fff;opacity:.1"/><path d="M21.459 16A1.46 1.416 0 0 0 20 17.416v1A1.46 1.416 0 0 1 21.459 17h9.262c3.211 0 6.073.58 8.529 1.787 2.462 1.21 4.421 3.04 5.76 5.395v.006c1.295 2.253 1.926 4.971 1.98 8.093q.008-.282.01-.568c0-3.306-.635-6.168-1.99-8.526v-.005c-1.339-2.355-3.298-4.185-5.76-5.395C36.794 16.58 33.932 16 30.72 16zm18.533 16.35c-.088 2.984-.976 5.043-2.531 6.408C35.82 40.198 33.277 41 29.553 41H27v1h2.553c3.724 0 6.268-.802 7.908-2.242S40 36.108 40 32.852q0-.256-.008-.502" style="fill:#fff;opacity:.2"/></svg>