<svg xmlns="http://www.w3.org/2000/svg" width="64" height="64"><circle cx="32" cy="33" r="28" style="opacity:.2"/><circle cx="32" cy="32" r="28" style="fill:#a43b84"/><path d="M20 35.8S20 47 29 47h15V19h-6v21h-7.5C26 40 26 34.4 26 34.4V19h-6Z" style="opacity:.2"/><path d="M20 34.8S20 46 29 46h15V18h-6v21h-7.5C26 39 26 33.4 26 33.4V18h-6Z" style="fill:#fff"/><path d="M32 4A28 28 0 0 0 4 32a28 28 0 0 0 .021.586A28 28 0 0 1 32 5a28 28 0 0 1 27.979 27.414L60 32A28 28 0 0 0 32 4" style="opacity:.1;fill:#fff"/></svg>