<svg xmlns="http://www.w3.org/2000/svg" width="64" height="64"><path d="M60 57V13c0-4-4-4-4-4H4zM50 35.258 31.035 19H50z" style="opacity:.2"/><path d="m60 57-2.332-2H8s-4 0-4-4v2c0 4 4 4 4 4zM32.964 45 14 28.6v2l16.633 14.258h2.332z" style="opacity:.2"/><path d="M60 56V12c0-4-4-4-4-4H4zM50 34.258 31.035 18H50z" style="fill:#3e50b4"/><path d="M4 8v44c0 4 4 4 4 4h52zm10 21.742L32.965 46H14z" style="fill:#02a8f3"/><path d="M60 56V12c0-4-4-4-4-4H4zM50 34.258 31.035 18H50z" style="fill:#fff;opacity:.2"/><path d="m4 8 1.166 1H56s4 0 4 4v-1c0-4-4-4-4-4zm27.035 11L50 35.258v-1L32.201 19z" style="fill:#fff;opacity:.2"/></svg>