<svg xmlns="http://www.w3.org/2000/svg" width="64" height="64"><rect width="56" height="56" x="4" y="5" rx="16.8" ry="16.8" style="opacity:.2"/><rect width="56" height="56" x="4" y="4" rx="16.8" ry="16.8" style="fill:#a452eb"/><path d="M18 17v5.3c0 4.15 3.377 8.7 7.523 8.7H26v-6h7.926c4.143 0 8.1 3.754 8.074 8-.03 4.139-3.82 8-8 8h-2v8h2c8.81 0 16-8 16-16s-5.361-16-16.098-16zm8 18-.004.004h-.82c-1.818 0-3.534.7-4.832 1.98a6.87 6.87 0 0 0-2.036 4.317 6.84 6.84 0 0 0-4.214 1.922A6.87 6.87 0 0 0 12 48.176V49h14z" style="opacity:.2"/><path d="M18 16v5.3c0 4.15 3.377 8.7 7.523 8.7H26v-6h7.926c4.143 0 8.1 3.754 8.074 8-.03 4.139-3.82 8-8 8h-2v8h2c8.81 0 16-8 16-16s-5.361-16-16.098-16zm8 18-.004.004h-.82c-1.818 0-3.534.7-4.832 1.98a6.87 6.87 0 0 0-2.036 4.317 6.84 6.84 0 0 0-4.214 1.922A6.87 6.87 0 0 0 12 47.176V48h14z" style="fill:#fff"/><path d="M20.8 4C11.495 4 4 11.494 4 20.8v1C4 12.495 11.494 5 20.8 5h22.4C52.505 5 60 12.494 60 21.8v-1C60 11.495 52.506 4 43.2 4z" style="fill:#fff;opacity:.1"/></svg>