<svg xmlns="http://www.w3.org/2000/svg" width="64" height="64"><rect width="38" height="38" x="4" y="-60" rx="3" ry="3" style="opacity:.2" transform="rotate(90)"/><rect width="38" height="38" x="3" y="-60" rx="3" ry="3" style="fill:#d3d3d3" transform="rotate(90)"/><path d="M29 15v-3h24v3zm0 6v-3h24v3zm0 6v-3h24v3zm0 6v-3h16v3z" style="opacity:.2"/><rect width="38" height="38" x="22" y="-42" rx="3" ry="3" style="opacity:.2" transform="rotate(90)"/><rect width="38" height="38" x="21" y="-42" rx="3" ry="3" style="fill:#e4e4e4" transform="rotate(90)"/><path d="M25 3c-1.662 0-3 1.338-3 3v1c0-1.662 1.338-3 3-3h32c1.662 0 3 1.338 3 3V6c0-1.662-1.338-3-3-3zM7 21c-1.662 0-3 1.338-3 3v1c0-1.662 1.338-3 3-3h32c1.662 0 3 1.338 3 3v-1c0-1.662-1.338-3-3-3z" style="opacity:.1;fill:#fff"/><path d="M11 33v-3h24v3zm0 6v-3h24v3zm0 6v-3h24v3zm0 6v-3h16v3z" style="opacity:.5"/></svg>