<svg xmlns="http://www.w3.org/2000/svg" xmlns:xlink="http://www.w3.org/1999/xlink" width="64" height="64"><defs><filter id="d" width="1.119" height="1.16" x="-.06" y="-.08" style="color-interpolation-filters:sRGB"><feGaussianBlur stdDeviation="1.438"/></filter><filter id="f" width="1.174" height="1.478" x="-.087" y="-.239" style="color-interpolation-filters:sRGB"><feGaussianBlur stdDeviation="1.005"/></filter><filter id="g" width="1.128" height="1.167" x="-.064" y="-.084" style="color-interpolation-filters:sRGB"><feGaussianBlur stdDeviation="1.408"/></filter><filter id="h" width="1.151" height="1.379" x="-.076" y="-.189" style="color-interpolation-filters:sRGB"><feGaussianBlur stdDeviation=".84"/></filter><radialGradient xlink:href="#a" id="c" cx="30.601" cy="4.543" r="27.28" fx="30.601" fy="4.543" gradientTransform="rotate(-45 110.968 59.51)scale(1.72274 1.72211)" gradientUnits="userSpaceOnUse"/><radialGradient xlink:href="#b" id="e" cx="30.601" cy="4.543" r="27.28" fx="30.601" fy="4.543" gradientTransform="rotate(-45 110.968 59.51)scale(1.72274 1.72211)" gradientUnits="userSpaceOnUse"/><linearGradient id="a"><stop offset="0" style="stop-color:#82b7ff;stop-opacity:1"/><stop offset="1" style="stop-color:#92c6ff;stop-opacity:1"/></linearGradient><linearGradient id="b"><stop offset="0" style="stop-color:#5899f2;stop-opacity:1"/><stop offset="1" style="stop-color:#589df2;stop-opacity:1"/></linearGradient></defs><path d="M3.896 38.004a2.734 2.734 0 0 0-2.582 2.73A2.734 2.734 0 0 0 3.81 43.46a51 51 0 0 1 .087-5.455" style="fill:#19429c;stroke-width:.683587;fill-opacity:1"/><path d="M23.532 11.092q-.119 0-.232.022a42 42 0 0 0-7.716 2.281c-1.37.55-3.118 2.063-3.873 3.332-5.486 9.216-7.737 19.065-7.428 28.01.051 1.474 1.126 3.383 2.342 4.217 3.645 2.499 7.456 4.62 9.252 5.246.449.157 1.044-.041 1.306-.438a36 36 0 0 0 1.247-2.092c.274-.498.045-1.065-.46-1.323-3.368-1.721-2.766-4.397-1.426-5.737 4.785 1.949 11.318 3.733 16.71 3.562 5.391.171 11.927-1.613 16.712-3.562 1.34 1.34 1.942 4.016-1.425 5.737-.506.258-.735.825-.461 1.323.452.818.953 1.649 1.245 2.092.261.397.859.595 1.308.438 1.795-.626 5.607-2.747 9.252-5.246 1.216-.834 2.29-2.743 2.341-4.216.31-8.946-1.942-18.795-7.427-28.01-.755-1.27-2.503-2.783-3.873-3.333a42 42 0 0 0-7.716-2.28c-.606-.118-1.372.246-1.877.59-1.644 1.12-5.14 1.748-8.08 1.733-2.938.015-6.432-.614-8.076-1.733-.442-.301-1.085-.617-1.645-.613" style="fill:url(#c);stroke-width:.213123;filter:url(#d)" transform="translate(2.12 3.306)scale(.89908)"/><path d="M23.209 10.296a1.3 1.3 0 0 0-.242.023 43.6 43.6 0 0 0-8.01 2.365c-1.423.571-3.237 2.143-4.023 3.46-5.614 9.4-7.506 18.61-7.11 27.702.067 1.53 1.179 3.517 2.453 4.366a46.2 46.2 0 0 0 10.493 5.224c.866.302 2.019-.08 2.523-.846q.588-.894 1.123-1.828c.582-1.012.094-2.173-.906-2.773-1.603-.963-2.215-1.98-1.742-2.379 9.32 4.36 19.447 4.36 28.656 0 .473.395-.135 1.418-1.752 2.387-1 .6-1.49 1.759-.908 2.771q.535.933 1.125 1.828c.504.766 1.657 1.146 2.523.844a46 46 0 0 0 10.502-5.228c1.274-.849 2.387-2.836 2.453-4.366.448-10.31-2.155-19.462-7.123-27.716-.79-1.314-2.612-2.879-4.037-3.444a46 46 0 0 0-7.998-2.361c-.628-.125-1.402.257-1.9.652-1.43 1.134-4.202 1.774-7.211 1.754-3.011.015-5.79-.622-7.225-1.756-.437-.345-1.087-.682-1.664-.68m-.521 18.119c2.846 0 5.138 2.611 5.09 5.797.004 3.18-2.244 5.793-5.09 5.793-2.798 0-5.094-2.613-5.094-5.793s2.247-5.797 5.094-5.797m18.816 0c2.847 0 5.143 2.611 5.094 5.797 0 3.18-2.247 5.793-5.094 5.793-2.798 0-5.092-2.613-5.092-5.793s2.245-5.797 5.092-5.797" style="opacity:.917435;fill:url(#e);stroke-width:.213123"/><path d="M22.688 28.414c-2.847 0-5.094 2.616-5.094 5.797s2.296 5.793 5.093 5.793c2.847 0 5.095-2.612 5.09-5.793.05-3.185-2.243-5.797-5.09-5.797m18.816 0c-2.847 0-5.092 2.616-5.092 5.797s2.294 5.793 5.092 5.793c2.847 0 5.094-2.612 5.094-5.793.049-3.185-2.247-5.797-5.094-5.797" style="opacity:.810886;fill:#fff;stroke-width:.83055;stroke-linecap:round;stroke-linejoin:round"/><path d="M22.697 29.164c-2.479 0-4.435 2.277-4.435 5.047s1.999 5.043 4.435 5.043c2.478 0 4.435-2.274 4.431-5.043.043-2.774-1.953-5.047-4.431-5.047m18.798 0c-2.479 0-4.434 2.277-4.434 5.047s1.998 5.043 4.434 5.043c2.478 0 4.435-2.274 4.435-5.043.042-2.774-1.957-5.047-4.435-5.047" style="opacity:.810886;fill:#fff;stroke-width:.723118;stroke-linecap:round;stroke-linejoin:round;filter:url(#f)"/><path d="M23.3 11.115a42 42 0 0 0-7.716 2.28c-1.37.55-3.118 2.063-3.876 3.331-5.407 9.055-7.23 17.927-6.848 26.684.064 1.474 1.137 3.387 2.364 4.204a44.5 44.5 0 0 0 10.106 5.032c.834.292 1.944-.076 2.43-.814q.568-.861 1.083-1.76c.56-.975.09-2.093-.874-2.672-1.543-.927-2.133-1.906-1.678-2.29 8.977 4.198 18.731 4.198 27.602 0 .456.38-.13 1.364-1.688 2.297-.964.578-1.434 1.696-.874 2.67q.516.9 1.083 1.76c.486.739 1.597 1.104 2.432.813a44.4 44.4 0 0 0 10.114-5.035c1.227-.817 2.3-2.731 2.365-4.204.431-9.932-2.076-18.748-6.861-26.7-.762-1.264-2.517-2.771-3.89-3.316a44.4 44.4 0 0 0-7.703-2.273c-.605-.12-1.351.247-1.831.628-1.377 1.092-4.047 1.708-6.946 1.688-2.9.014-5.577-.598-6.96-1.69-.48-.38-1.229-.75-1.834-.633z" style="mix-blend-mode:normal;fill:none;stroke:#000;stroke-width:.213123;stroke-opacity:1;filter:url(#g)" transform="translate(-1.317 -1.141)scale(1.03819)"/><path d="M23.031 39.771c-2.695 0-4.905-2.516-4.905-5.58s2.163-5.583 4.905-5.583 4.952 2.515 4.905 5.584c.005 3.063-2.163 5.58-4.905 5.58zm18.127 0c-2.695 0-4.905-2.516-4.905-5.58s2.163-5.583 4.905-5.583 4.952 2.515 4.905 5.584c0 3.063-2.163 5.58-4.905 5.58z" style="opacity:1;mix-blend-mode:normal;fill:none;fill-rule:nonzero;stroke:#000fff;stroke-width:.2;stroke-dasharray:none;stroke-opacity:1;filter:url(#h)" transform="translate(-1.222 -1.223)scale(1.03819)"/><path d="M19.772 43.362H4.05a2.74 2.74 0 0 1-2.735-2.734v8.887a6.14 6.14 0 0 0 6.153 6.152h18.456v-6.153a6.14 6.14 0 0 0-6.152-6.152" style="fill:#5077ff;fill-opacity:1;stroke-width:.683587"/><path d="M4.733 46.674v5.468H6.26q.788 0 1.242-.422.451-.42.451-1.164 0-.428-.11-.69a.93.93 0 0 0-.296-.398 1.1 1.1 0 0 0-.42-.19v-.038a.75.75 0 0 0 .523-.39q.188-.322.188-.79 0-.773-.473-1.08-.47-.306-1.394-.306zm4.785 0v5.468h3.418v-.683h-2.734v-2.051h2.05v-.684h-2.05v-1.367h2.734v-.683zm4.786 0v.683h1.367v4.785h.752l-.069-4.785h1.368v-.683zm6.1 0-1.999 5.468h.813l.48-1.367h2.813l.414 1.367h.949l-2.006-5.468zm.735.435 1.086 2.983h-2.224Zm-15.722.248h.894c.815-.038.807.742.807.742s.045.625-.756.625h-.945zm1.04 2.047c.28-.008.476.156.585.275.12.123.18.558.18.762 0 .225-.058.68-.174.819q-.174.198-.614.199H5.417v-2.051H6.4z" style="fill:#3f3f3f;stroke-width:.683587;fill-opacity:1"/></svg>