<svg xmlns="http://www.w3.org/2000/svg" xmlns:xlink="http://www.w3.org/1999/xlink" xml:space="preserve" id="Layer_1" x="0" y="0" style="enable-background:new 0 0 64 64" viewBox="0 0 64 64"><defs id="defs8"><filter id="filter5" width="1.311" height="1.311" x="-.155" y="-.155" style="color-interpolation-filters:sRGB"><feGaussianBlur id="feGaussianBlur5" stdDeviation="1.739"/></filter><filter id="filter6" width="1.139" height="1.139" x="-.069" y="-.069" style="color-interpolation-filters:sRGB"><feGaussianBlur id="feGaussianBlur6" stdDeviation=".501"/></filter><filter id="filter7" width="1.285" height="1.259" x="-.142" y="-.129" style="color-interpolation-filters:sRGB"><feGaussianBlur id="feGaussianBlur7" stdDeviation=".609"/></filter><filter id="filter8" width="1.205" height="1.293" x="-.103" y="-.147" style="color-interpolation-filters:sRGB"><feGaussianBlur id="feGaussianBlur8" stdDeviation=".888"/></filter><filter id="filter9" width="1.182" height="1.232" x="-.091" y="-.116" style="color-interpolation-filters:sRGB"><feGaussianBlur id="feGaussianBlur9" stdDeviation="2.084"/></filter><radialGradient xlink:href="#linearGradient4" id="radialGradient5" cx="-54.995" cy="-7.522" r="28" fx="-54.995" fy="-7.522" gradientTransform="rotate(39.194 -81.121 37.599)scale(1.68182 2.53094)" gradientUnits="userSpaceOnUse"/><radialGradient xlink:href="#SVGID_2_-3-3" id="radialGradient8-5" cx="21.037" cy="56.209" r="40.251" gradientTransform="matrix(.51148 0 0 -.51148 15.632 62.31)" gradientUnits="userSpaceOnUse"/><radialGradient id="SVGID_2_-3-3" cx="21.037" cy="56.209" r="40.251" gradientTransform="matrix(1 0 0 -1 0 66)" gradientUnits="userSpaceOnUse"><stop id="stop5-5-6" offset="0" style="stop-color:#fff"/><stop id="stop6-6-7" offset="1" style="stop-color:#c4c4c4"/></radialGradient><radialGradient id="SVGID_2_-3-3-0" cx="21.037" cy="56.209" r="40.251" gradientTransform="matrix(1 0 0 -1 0 66)" gradientUnits="userSpaceOnUse"><stop id="stop5-5-6-9" offset="0" style="stop-color:#fff"/><stop id="stop6-6-7-3" offset="1" style="stop-color:#c4c4c4"/></radialGradient><linearGradient id="linearGradient4"><stop id="stop4-7" offset="0" style="stop-color:#8e8e8e;stop-opacity:1"/><stop id="stop5-9" offset="1" style="stop-color:#5f5f5f;stop-opacity:1"/></linearGradient></defs><style id="style1" type="text/css">.st0{opacity:.2;enable-background:new}.st2{fill:url(#SVGID_2_);stroke:url(#SVGID_3_);stroke-miterlimit:10}.st4{fill:#fff}</style><radialGradient id="SVGID_1_" cx="22.932" cy="16.199" r="35.575" gradientUnits="userSpaceOnUse"><stop id="stop1" offset="0" style="stop-color:#6b6b6b"/><stop id="stop2" offset="1" style="stop-color:#292929"/></radialGradient><radialGradient id="SVGID_2_" cx="22.081" cy="13.643" r="29.719" gradientUnits="userSpaceOnUse"><stop id="stop3" offset="0" style="stop-color:#6b6b6b"/><stop id="stop4" offset="1" style="stop-color:#292929"/></radialGradient><radialGradient id="SVGID_3_" cx="32.554" cy="24.081" r="16.283" gradientTransform="translate(14.988 28.742)scale(.53118)" gradientUnits="userSpaceOnUse"><stop id="stop5" offset="0" style="stop-color:#6b6b6b"/><stop id="stop6" offset="1" style="stop-color:#292929"/></radialGradient><g id="g9"><rect id="rect2" width="53.923" height="42.368" x="-58.962" y="-53.184" rx="9.546" ry="9.546" style="fill:url(#radialGradient5);stroke-width:.962918" transform="rotate(90)scale(-1 1)"/><rect id="rect2-6" width="56" height="44" x="-60" y="-54" rx="9.913" ry="9.913" style="mix-blend-mode:normal;fill:none;stroke:#000;stroke-width:.2;stroke-dasharray:none;stroke-opacity:1;filter:url(#filter9)" transform="rotate(90 0 1.187)scale(-.96292 .96292)"/><path id="path2" d="M31.978 9.722c-6.61 0-11.969 5.358-11.969 11.968v9.766a2.2 2.2 45 0 0 2.202 2.203h9.767c6.61 0 11.968-5.359 11.968-11.969S38.588 9.722 31.978 9.722m0 6.839a5.13 5.13 0 1 1 0 10.258 5.13 5.13 0 0 1 0-10.258" style="opacity:.383514;stroke-width:.854892" transform="translate(1.208 .477)scale(.96292)"/><path id="path2-3" d="M31.846 12.382c-7.732 0-14 6.268-14 14v10.744a3.256 3.256 45 0 0 3.256 3.256h10.744c7.732 0 14-6.268 14-14s-6.268-14-14-14zm0 8a6 6 0 1 1 0 12 6 6 0 0 1 0-12z" style="opacity:1;mix-blend-mode:normal;fill:none;fill-opacity:1;stroke:#000;stroke-width:.350921;stroke-dasharray:none;stroke-opacity:1;filter:url(#filter5)" transform="translate(5.785 -.354)scale(.8232)"/></g><radialGradient id="SVGID_4_" cx="38.722" cy="35.968" r="27.473" gradientTransform="translate(12.35 19.593)scale(.66286)" gradientUnits="userSpaceOnUse"><stop id="stop7" offset="0" style="stop-color:#0af;stop-opacity:1"/><stop id="stop8" offset="1" style="stop-color:#0083ff;stop-opacity:1"/></radialGradient><path id="path3" d="M24.963 36.561c-.87 0-1.534.717-1.534 1.535v14.321c0 .87.665 1.535 1.534 1.535.87 0 1.535-.665 1.535-1.535V38.096a1.54 1.54 0 0 0-1.535-1.535m12.787 8.696v7.16c0 .87.665 1.535 1.535 1.535s1.534-.665 1.534-1.535v-7.16zm-7.16 2.557v4.603c0 .87.664 1.535 1.534 1.535s1.534-.665 1.534-1.535v-4.603z" class="st2" style="opacity:.49;fill:#fff;stroke:none;stroke-width:.511485;stroke-opacity:1"/><path id="path3-1" d="M24.7 36.743c-.903 0-1.593.744-1.593 1.594V53.21c0 .903.69 1.594 1.593 1.594s1.594-.69 1.594-1.594V38.337c0-.85-.69-1.594-1.594-1.594zm13.28 9.03v7.437c0 .903.69 1.594 1.593 1.594s1.594-.69 1.594-1.594v-7.436zm-7.437 2.656v4.781c0 .903.69 1.594 1.594 1.594.903 0 1.593-.69 1.593-1.594v-4.78z" class="st2" style="opacity:1;mix-blend-mode:normal;fill:none;stroke:#000;stroke-width:.1;stroke-miterlimit:10;stroke-dasharray:none;stroke-opacity:1;filter:url(#filter6)" transform="translate(1.187 1.187)scale(.96292)"/><path id="path4" d="M32.124 36.561a1.54 1.54 0 0 0-1.535 1.535v9.718h3.07v-9.718a1.54 1.54 0 0 0-1.535-1.535m7.16 0a1.54 1.54 0 0 0-1.534 1.535v7.16h3.07v-7.16a1.54 1.54 0 0 0-1.535-1.535" class="st0" style="opacity:.2;stroke-width:.511485;enable-background:new"/><path id="path4-2" d="M32.12 36.75c-.903 0-1.593.743-1.593 1.593v10.092h3.187V38.343c0-.903-.744-1.594-1.594-1.594zm7.437 0c-.903 0-1.594.743-1.594 1.593v7.437h3.187v-7.437c0-.903-.743-1.594-1.593-1.594z" class="st0" style="opacity:1;mix-blend-mode:normal;fill:none;stroke:#000;stroke-width:.1;stroke-dasharray:none;stroke-opacity:1;filter:url(#filter7);enable-background:new" transform="translate(1.187 1.187)scale(.96292)"/><path id="path6-2" d="M24.84 36.224a3.08 3.08 0 0 0-3.07 3.069 3.08 3.08 0 0 0 3.07 3.069 3.08 3.08 0 0 0 3.068-3.07 3.08 3.08 0 0 0-3.069-3.068m14.32 5.626a3.08 3.08 0 0 0-3.068 3.07 3.08 3.08 0 0 0 3.069 3.068 3.08 3.08 0 0 0 3.069-3.069 3.08 3.08 0 0 0-3.07-3.069M32 44.408a3.08 3.08 0 0 0-3.069 3.069A3.08 3.08 0 0 0 32 50.546a3.08 3.08 0 0 0 3.069-3.07A3.08 3.08 0 0 0 32 44.409" class="st4" style="fill:url(#radialGradient8-5);stroke-width:.511485"/><path id="path6-2-6" d="M24.615 36.418a3.196 3.196 0 0 0-3.187 3.187 3.196 3.196 0 0 0 3.187 3.187 3.196 3.196 0 0 0 3.187-3.187 3.196 3.196 0 0 0-3.187-3.187zm14.873 5.843a3.196 3.196 0 0 0-3.187 3.187 3.196 3.196 0 0 0 3.187 3.187 3.196 3.196 0 0 0 3.188-3.187 3.196 3.196 0 0 0-3.188-3.187zm-7.436 2.655a3.196 3.196 0 0 0-3.187 3.188 3.196 3.196 0 0 0 3.187 3.187 3.196 3.196 0 0 0 3.187-3.187 3.196 3.196 0 0 0-3.187-3.188z" class="st4" style="mix-blend-mode:normal;fill:none;stroke:#000;stroke-width:.1;stroke-dasharray:none;stroke-opacity:1;filter:url(#filter8)" transform="translate(1.187 1.187)scale(.96292)"/></svg>