<?xml version="1.0" encoding="UTF-8" standalone="no"?>
<svg
   width="64"
   height="64"
   version="1.1"
   id="svg6"
   sodipodi:docname="xfburn.svg"
   inkscape:version="1.4.4 (dcaf3e7d9e, 2026-05-05)"
   xmlns:inkscape="http://www.inkscape.org/namespaces/inkscape"
   xmlns:sodipodi="http://sodipodi.sourceforge.net/DTD/sodipodi-0.dtd"
   xmlns:xlink="http://www.w3.org/1999/xlink"
   xmlns="http://www.w3.org/2000/svg"
   xmlns:svg="http://www.w3.org/2000/svg">
  <defs
     id="defs6">
    <linearGradient
       id="linearGradient6"
       inkscape:collect="always">
      <stop
         style="stop-color:#ff6161;stop-opacity:1;"
         offset="0"
         id="stop6" />
      <stop
         style="stop-color:#ff5700;stop-opacity:0.82770604;"
         offset="1"
         id="stop7" />
    </linearGradient>
    <radialGradient
       xlink:href="#a"
       id="c"
       cx="15.717"
       cy="10.069"
       r="15"
       fx="15.717"
       fy="10.069"
       gradientTransform="matrix(-1.3335658,3.2054204,-5.2238854,-2.173317,89.276541,-18.426434)"
       gradientUnits="userSpaceOnUse" />
    <linearGradient
       id="a">
      <stop
         offset="0"
         style="stop-color:#bebebe;stop-opacity:1"
         id="stop1" />
      <stop
         offset="1"
         style="stop-color:#373737;stop-opacity:1"
         id="stop2" />
    </linearGradient>
    <radialGradient
       xlink:href="#b"
       id="d"
       cx="12.889"
       cy="20.523001"
       r="28"
       fx="12.889"
       fy="20.523001"
       gradientTransform="matrix(0.67674732,2.4785298,-1.9512709,0.53278251,44.211675,-22.355834)"
       gradientUnits="userSpaceOnUse" />
    <linearGradient
       id="b">
      <stop
         offset="0"
         style="stop-color:#fff;stop-opacity:1"
         id="stop3" />
      <stop
         offset="1"
         style="stop-color:#b4bbbe;stop-opacity:1"
         id="stop4" />
    </linearGradient>
    <radialGradient
       xlink:href="#a"
       id="e"
       cx="15.717"
       cy="10.069"
       r="15"
       fx="15.717"
       fy="10.069"
       gradientTransform="matrix(-1.3335658,3.2054204,-5.2238854,-2.173317,89.276541,-18.426434)"
       gradientUnits="userSpaceOnUse" />
    <filter
       id="f"
       width="1.2263182"
       height="1.2263182"
       x="-0.11315909"
       y="-0.11315909"
       style="color-interpolation-filters:sRGB">
      <feGaussianBlur
         stdDeviation="2.618"
         id="feGaussianBlur4" />
    </filter>
    <radialGradient
       inkscape:collect="always"
       xlink:href="#linearGradient6"
       id="radialGradient7"
       cx="47.999701"
       cy="45.999"
       fx="47.999701"
       fy="45.999"
       r="5.9997005"
       gradientTransform="matrix(1.6077622,0,0,2.14379,-22.883568,-47.5397)"
       gradientUnits="userSpaceOnUse" />
  </defs>
  <sodipodi:namedview
     id="namedview6"
     pagecolor="#ffffff"
     bordercolor="#000000"
     borderopacity="0.25"
     inkscape:showpageshadow="2"
     inkscape:pageopacity="0.0"
     inkscape:pagecheckerboard="0"
     inkscape:deskcolor="#d1d1d1"
     inkscape:zoom="9.4609375"
     inkscape:cx="19.554088"
     inkscape:cy="38.42114"
     inkscape:current-layer="svg6" />
  <g
     id="g10"
     transform="translate(-8.1553674e-5,-8.1553674e-5)">
    <path
       d="M 32,17 A 15,15 0 0 0 17,32 15,15 0 0 0 32,47 15,15 0 0 0 47,32 15,15 0 0 0 32,17 m 0,9 a 6,6 0 0 1 6,6 6,6 0 0 1 -6,6 6,6 0 0 1 -6,-6 6,6 0 0 1 6,-6"
       style="fill:url(#c)"
       transform="matrix(0.93094,0,0,0.93094,2.21,2.21)"
       id="path4" />
    <path
       d="M 32,4 A 28,28 0 0 0 4,32 28,28 0 0 0 32,60 28,28 0 0 0 60,32 28,28 0 0 0 32,4 m 0,16 A 12,12 0 0 1 44,32 12,12 0 0 1 32,44 12,12 0 0 1 20,32 12,12 0 0 1 32,20"
       style="fill:url(#d)"
       transform="matrix(0.93094,0,0,0.93094,2.21,2.21)"
       id="path5-6" />
    <path
       d="M 32,17 A 15,15 0 0 0 17,32 15,15 0 0 0 32,47 15,15 0 0 0 47,32 15,15 0 0 0 32,17 m 0,9 a 6,6 0 0 1 6,6 6,6 0 0 1 -6,6 6,6 0 0 1 -6,-6 6,6 0 0 1 6,-6"
       style="opacity:0.305456;fill:url(#e)"
       transform="matrix(0.93094,0,0,0.93094,2.21,2.21)"
       id="path6-3" />
    <g
       style="mix-blend-mode:normal;fill:none;stroke:#000000;stroke-width:0.107418;stroke-dasharray:none;stroke-opacity:1;filter:url(#f)"
       transform="matrix(0.93094,0,0,0.93094,2.21,2.21)"
       id="g9">
      <path
         d="M 32,17 A 15,15 0 0 0 17,32 15,15 0 0 0 32,47 15,15 0 0 0 47,32 15,15 0 0 0 32,17 Z m 0,9 a 6,6 0 0 1 6,6 6,6 0 0 1 -6,6 6,6 0 0 1 -6,-6 6,6 0 0 1 6,-6 z"
         style="fill:none;stroke:#000000;stroke-width:0.107418;stroke-dasharray:none;stroke-opacity:1"
         id="path7" />
      <path
         d="M 32,4 A 28,28 0 0 0 4,32 28,28 0 0 0 32,60 28,28 0 0 0 60,32 28,28 0 0 0 32,4 Z m 0,16 A 12,12 0 0 1 44,32 12,12 0 0 1 32,44 12,12 0 0 1 20,32 12,12 0 0 1 32,20 Z"
         style="fill:none;stroke:#000000;stroke-width:0.107418;stroke-dasharray:none;stroke-opacity:1"
         id="path8" />
      <path
         d="M 32,17 A 15,15 0 0 0 17,32 15,15 0 0 0 32,47 15,15 0 0 0 47,32 15,15 0 0 0 32,17 Z m 0,9 a 6,6 0 0 1 6,6 6,6 0 0 1 -6,6 6,6 0 0 1 -6,-6 6,6 0 0 1 6,-6 z"
         style="opacity:0.305456;fill:none;stroke:#000000;stroke-width:0.107418;stroke-dasharray:none;stroke-opacity:1"
         id="path9" />
    </g>
  </g>
  <path
     d="M32 17a15 15 0 0 0-15 15 15 15 0 0 0 15 15 15 15 0 0 0 15-15 15 15 0 0 0-15-15m0 9a6 6 0 1 1 0 12 6 6 0 0 1 0-12"
     style="fill:#848484"
     id="path2" />
  <path
     d="m 57.269808,38.212004 c -7.890897,3.215524 -12.627364,10.752713 -12.627364,16.077622 0,5.265421 4.143203,9.537245 9.288042,9.636926 -2.570812,-0.05145 -4.641609,-2.181733 -4.641609,-4.81364 0,-2.664062 2.366626,-6.431049 6.313682,-8.038811 0,5.627168 4.236453,6.440695 3.156037,9.646573 -0.61095,1.816772 -2.106169,3.197839 -4.694666,3.212309 l 0.04823,0.0016 c 5.230051,0 8.239781,-2.774998 9.469719,-6.431049 2.160836,-6.411747 -6.312071,-8.038803 -6.312071,-19.293138 z"
     style="fill:url(#radialGradient7);stroke-width:1.60776"
     id="path6" />
</svg>
