<svg xmlns="http://www.w3.org/2000/svg" xmlns:xlink="http://www.w3.org/1999/xlink" width="64" height="64"><defs><radialGradient xlink:href="#a" id="h" cx="66.346" cy="61.406" r="19.998" fx="66.346" fy="61.406" gradientTransform="matrix(0 -4.3609 4.3608 0 -203.032 354.105)" gradientUnits="userSpaceOnUse"/><radialGradient xlink:href="#a" id="d" cx="66.346" cy="61.406" r="19.998" fx="66.346" fy="61.406" gradientTransform="matrix(0 -2.8846 2.88454 0 -117.443 239.151)" gradientUnits="userSpaceOnUse"/><radialGradient xlink:href="#a" id="e" cx="66.346" cy="61.406" r="19.998" fx="66.346" fy="61.406" gradientTransform="matrix(0 -2.49138 2.55266 0 -114.515 206.549)" gradientUnits="userSpaceOnUse"/><radialGradient xlink:href="#a" id="c" cx="66.346" cy="61.406" r="19.998" fx="66.346" fy="61.406" gradientTransform="matrix(0 -3.69855 3.69846 0 -167.332 305.61)" gradientUnits="userSpaceOnUse"/><radialGradient xlink:href="#a" id="f" cx="66.346" cy="61.406" r="19.998" fx="66.346" fy="61.406" gradientTransform="matrix(0 -4.3609 4.3608 0 -203.032 354.105)" gradientUnits="userSpaceOnUse"/><radialGradient xlink:href="#a" id="g" cx="66.346" cy="61.406" r="19.998" fx="66.346" fy="61.406" gradientTransform="matrix(0 -4.3609 4.3608 0 -203.032 354.105)" gradientUnits="userSpaceOnUse"/><filter id="b" width="1.31" height="1.312" x="-.155" y="-.156" style="color-interpolation-filters:sRGB"><feGaussianBlur stdDeviation="3.163"/></filter><filter id="i" width="1.173" height="1.173" x="-.086" y="-.086" style="color-interpolation-filters:sRGB"><feGaussianBlur stdDeviation="1.924"/></filter><linearGradient id="a"><stop offset="0" style="stop-color:#ff2b2b;stop-opacity:1"/><stop offset="1" style="stop-color:#ff7637;stop-opacity:1"/></linearGradient></defs><g style="mix-blend-mode:normal;filter:url(#b)" transform="translate(.398 .731)"><path d="M11.21 34.8c.002 11.5 9.325 20.823 20.825 20.824 14.153-.001 22.922-13.705 20.147-25.935-9.43 2.316-18.418-7.161-18.503-15.865-10.89-.483-22.468 8.03-22.47 20.976" style="opacity:.781548;fill:url(#c);fill-opacity:1;stroke-width:1.1571"/><path d="M43.463 14.212c0 3.335 5.733 7.709 7.561 6.275 1.072-.841 6.26-9.502 4.857-11.724-1.22-1.93-12.418 2.754-12.418 5.45" style="opacity:.781548;fill:url(#d);fill-opacity:1;stroke-width:.902457"/><path d="M7.307 7.567c-.959 1.48 1.404 5.762 2.614 7.763a16 16 0 0 1 6.307-5.255c-6.624-4.323-8.49-3.174-8.921-2.508" style="opacity:.781548;fill:url(#e);fill-opacity:1;stroke-width:.788967"/></g><path d="M7.484 34.797c.002 13.56 10.994 24.552 24.555 24.553 18.52-.002 29.417-19.213 22.328-34.705-6.023 7.285-20.485-6.823-16.104-13.574C24.02 7.265 7.486 17.537 7.483 34.797" style="opacity:.781548;fill:url(#f);fill-opacity:1;stroke-width:1.36432" transform="translate(-.029 -.007)"/><path d="M40.225 14.046c0 5.04 8.667 11.653 11.43 9.486 1.62-1.272 9.462-14.365 7.343-17.724-1.845-2.92-18.773 4.162-18.773 8.238" style="opacity:.781548;fill:url(#g);fill-opacity:1;stroke-width:1.36432" transform="translate(-.029 -.007)"/><path d="M5.081 5.808C3.443 8.398 7.48 15.894 9.546 19.396a27.46 27.46 0 0 1 10.774-9.198C9.005 2.63 5.817 4.641 5.081 5.808" style="opacity:.781548;fill:url(#h);fill-opacity:1;stroke-width:1.36432" transform="translate(-.029 -.007)"/><g style="fill:none;stroke:#000;stroke-opacity:1;stroke-width:.2;stroke-dasharray:none;filter:url(#i)" transform="translate(-.029 -.007)"><path d="M7.484 34.797c.002 13.56 10.994 24.552 24.555 24.553 18.52-.002 29.417-19.213 22.328-34.705-6.023 7.285-20.485-6.823-16.104-13.574C24.02 7.265 7.486 17.537 7.483 34.797Z" style="opacity:.781548;fill:none;fill-opacity:1;stroke-width:.2;stroke:#000;stroke-opacity:1;stroke-dasharray:none"/><path d="M40.225 14.046c0 5.04 8.667 11.653 11.43 9.486 1.62-1.272 9.462-14.365 7.343-17.724-1.845-2.92-18.773 4.162-18.773 8.238ZM5.081 5.808C3.443 8.398 7.48 15.894 9.546 19.396a27.46 27.46 0 0 1 10.774-9.198C9.005 2.63 5.817 4.641 5.081 5.808Z" style="opacity:.781548;fill:none;fill-opacity:1;stroke-width:.2;stroke:#000;stroke-opacity:1;stroke-dasharray:none"/></g></svg>