<svg xmlns="http://www.w3.org/2000/svg" width="64" height="64"><circle cx="32" cy="33" r="28" style="opacity:.2"/><path d="M32.31 5.75 13.64 53.133A27.88 27.88 0 0 0 32 60a27.9 27.9 0 0 0 18.818-7.275z" style="fill:#ffab32"/><path d="M30.48 4.055A28 28 0 0 0 4 32a28 28 0 0 0 8.484 20.041z" style="fill:#255f8a"/><path d="m33.53 4.076 17.995 47.99A28 28 0 0 0 60 32 28 28 0 0 0 33.53 4.076" style="fill:#df391e"/><path d="M32 4A28 28 0 0 0 4 32a28 28 0 0 0 .021.586A28 28 0 0 1 32 5a28 28 0 0 1 27.979 27.414L60 32A28 28 0 0 0 32 4" style="fill:#fff;opacity:.2"/><path d="M32 5a28 28 0 0 0-3.068.203c-.17.522-8.833 27.145-17.563 46.684a28 28 0 0 0 4.178 3.734L22 42h21l6.197 13.082a28 28 0 0 0 4.067-3.879c-8.855-19.496-18.037-45.56-18.2-46.021A28 28 0 0 0 32 5m0 8 8 23H24z" style="opacity:.2"/><path d="M32 4a28 28 0 0 0-3.068.203c-.17.522-8.833 27.145-17.563 46.684a28 28 0 0 0 4.178 3.734L22 41h21l6.197 13.082a28 28 0 0 0 4.067-3.879c-8.855-19.496-18.037-45.56-18.2-46.021A28 28 0 0 0 32 4m0 8 8 23H24z" style="fill:#fff"/></svg>