<svg xmlns="http://www.w3.org/2000/svg" xmlns:xlink="http://www.w3.org/1999/xlink" width="64" height="64"><defs><radialGradient xlink:href="#a" id="b" cx="31.623" cy="35.827" r="22.5" fx="31.623" fy="35.827" gradientTransform="rotate(135 55.523 31.759)scale(1.76322 1.79062)" gradientUnits="userSpaceOnUse"/><linearGradient id="a"><stop offset="0" style="stop-color:#727272;stop-opacity:1"/><stop offset="1" style="stop-color:#313131;stop-opacity:1"/></linearGradient><filter id="c" width="1.137" height="1.138" x="-.068" y="-.069" style="color-interpolation-filters:sRGB"><feGaussianBlur stdDeviation="1.488"/></filter></defs><path d="M32 4C22 27 22 28 4 60c0 0 .3-.166.803-.434C21.912 29.116 22.168 27.613 32 5c9.832 22.613 10.088 24.116 27.197 54.566.503.268.803.434.803.434C42 28 42 27 32 4" style="opacity:.1;fill:#fff"/><path d="M32.601 9.232C27.711 21.34 18.157 39.36 10.1 53.968c5.723-3.24 11.697-6.294 18.202-7.576 3.047-.405 5.259-.551 8.65.034 6.468 1.328 12.444 4.308 18.148 7.542-8.324-14.686-17.79-32.74-22.5-44.736" style="fill:url(#b);stroke-width:1.12169" transform="translate(-8.583 -7.338)scale(1.24487)"/><path d="M33.291 20.96s-8 6-8 12c0 4.33.915 8.259 2.08 11.526a17 17 0 0 1-.08-1.526c0-6 4-10 4-10s4 3 4 8c0 2.748-.599 6.364-1.14 9.082q.555.04 1.119.102c1.905-2.896 4.021-7.214 4.021-12.184 0-4.477-2.454-8.953-4.223-11.599-.917-1.371-1.777-3.739-1.777-5.39z" style="fill:#fff"/><path d="M32.001 4.155c-6.089 15.072-17.98 37.505-28.01 55.69 7.124-4.034 14.56-7.834 22.658-9.43 2.846-.378 5.105-.574 7.838-.342-.111-.01-.224-.023-.336-.031.542-2.718 1.141-6.334 1.141-9.082 0-5-4-8-4-8s-4 4-4 10c0 .47.031.988.08 1.525-1.165-3.266-2.08-7.195-2.08-11.525 0-6 8-12 8-12v.012c0 1.65.858 4.02 1.775 5.39 1.77 2.646 4.225 7.121 4.225 11.598 0 4.97-2.117 9.288-4.021 12.184q-.394-.04-.784-.07c.911.077 1.876.202 2.932.384 8.052 1.653 15.49 5.361 22.59 9.387C49.647 41.563 37.864 19.088 32 4.155Z" style="fill:none;stroke-width:.2;stroke:#000;stroke-opacity:1;stroke-dasharray:none;filter:url(#c)"/></svg>