<svg xmlns="http://www.w3.org/2000/svg" xmlns:xlink="http://www.w3.org/1999/xlink" width="64" height="64"><defs><radialGradient xlink:href="#a" id="e" cx="31.623" cy="35.827" r="22.5" fx="31.623" fy="35.827" gradientTransform="rotate(135 55.523 31.759)scale(1.76322 1.79062)" gradientUnits="userSpaceOnUse"/><radialGradient xlink:href="#b" id="f" cx="29.691" cy="36.273" r="2" fx="29.691" fy="36.273" gradientTransform="matrix(5.4439 0 0 28.0512 -136.154 -958.91)" gradientUnits="userSpaceOnUse"/><radialGradient xlink:href="#c" id="i" cx="32.6" cy="31.6" r="23.089" fx="32.6" fy="31.6" gradientTransform="matrix(1 0 0 .99427 0 .181)" gradientUnits="userSpaceOnUse"/><radialGradient xlink:href="#b" id="g" cx="29.691" cy="36.273" r="2" fx="29.691" fy="36.273" gradientTransform="matrix(5.4439 0 0 28.0512 -136.154 -958.91)" gradientUnits="userSpaceOnUse"/><radialGradient xlink:href="#d" id="h" cx="30.371" cy="7.313" r="3.868" fx="30.371" fy="7.313" gradientTransform="matrix(1.58808 0 0 2.2761 -19.295 -8.987)" gradientUnits="userSpaceOnUse"/><linearGradient id="d"><stop offset="0" style="stop-color:#181818;stop-opacity:1"/><stop offset="1" style="stop-color:#444;stop-opacity:1"/></linearGradient><linearGradient id="b"><stop offset="0" style="stop-color:#6d6d6d;stop-opacity:1"/><stop offset="1" style="stop-color:#4b4b4b;stop-opacity:1"/></linearGradient><linearGradient id="a"><stop offset="0" style="stop-color:#5c5c5c;stop-opacity:1"/><stop offset="1" style="stop-color:#121212;stop-opacity:1"/></linearGradient><linearGradient id="c"><stop offset="0" style="stop-color:#00f2ff;stop-opacity:1"/><stop offset="1" style="stop-color:#00b0ff;stop-opacity:1"/></linearGradient><filter id="j" width="1.077" height="1.077" x="-.038" y="-.038" style="color-interpolation-filters:sRGB"><feGaussianBlur stdDeviation=".674"/></filter></defs><path d="M32.601 9.232c-.594 1.452-1.18 2.908-1.774 4.361-1.924 4.714-1.375 11.07 2.101 13.462-2.296-.614-4.656-1.25-5.58-5.689C22.293 31.652 15.664 43.953 10.1 53.968c5.453-3.088 11.134-6.006 17.285-7.383a.995.995 0 0 0 .757-1.116c-.488-3.39.04-7.174 2.385-9.76 2.412-2.434 5.527.478 6.02 3.08.657 2.159.872 4.473.564 6.713a1.01 1.01 0 0 0 .757 1.124c6.118 1.41 11.798 4.261 17.232 7.342-1.713-2.548-2.987-5.272-4.882-7.853s-4.475-4.166-6.883-5.372c2.087.26 3.603.418 5.52 1.56C42.694 30.921 37.44 21.255 32.6 9.233" style="fill:url(#e);stroke:none;stroke-width:1.17746;stroke-linecap:round;stroke-linejoin:round;stroke-dasharray:none" transform="translate(-4.51 -2.209)scale(1.13313)"/><g style="fill:url(#f);fill-opacity:1" transform="translate(-6.02 -8.004)scale(1.21293)"><path d="M30 10v48.085a.452.452 13.283 0 0 .857.202l1.775-3.551A12.96 12.96 103.283 0 0 34 48.942V10Z" style="fill:url(#g);fill-opacity:1"/></g><path d="M30.332 4.686v6.134a.8.8 135 0 1-.8.8h-.106a.482.482 0 1 0 0 .967h6.768a.484.484 0 1 0 0-.967h-.508a.8.8 45 0 1-.8-.8V4.686c0-1.306-.953-3.187-2.683-3.187s-1.87 1.881-1.87 3.187" style="fill:url(#h);stroke-width:1.32749;stroke-linecap:round;stroke-linejoin:round" transform="translate(-4.311 -1.397)scale(1.13412)"/><path d="M32.601 9.232c-.594 1.452-1.18 2.908-1.774 4.361-1.924 4.714-1.375 11.07 2.101 13.462-2.296-.614-4.656-1.25-5.58-5.689C22.293 31.652 15.664 43.953 10.1 53.968c5.453-3.088 11.134-6.006 17.285-7.383a.995.995 0 0 0 .757-1.116c-.488-3.39.04-7.174 2.385-9.76 2.412-2.434 5.527.478 6.02 3.08.657 2.159.872 4.473.564 6.713a1.01 1.01 0 0 0 .757 1.124c6.118 1.41 11.798 4.261 17.232 7.342-1.713-2.548-2.987-5.272-4.882-7.853s-4.475-4.166-6.883-5.372c2.087.26 3.603.418 5.52 1.56C42.694 30.921 37.44 21.255 32.6 9.233Z" style="fill:none;stroke:url(#i);stroke-width:1.67746;stroke-linecap:square;stroke-linejoin:miter;stroke-miterlimit:7.4;stroke-dasharray:none;stroke-opacity:1" transform="translate(-4.51 -2.209)scale(1.13313)"/><path d="m32.442 9.524-.783 1.91c-.595 1.454-1.18 2.909-1.772 4.358a16.1 16.1 0 0 0-1.028 8.024c.173 1.292.53 2.527 1.075 3.62-.803-.66-1.502-1.69-1.928-3.731l-.497-2.387-1.076 2.188C21.396 33.76 14.778 46.044 9.222 56.042l-1.448 2.603 2.593-1.467c5.428-3.074 11.033-5.942 17.04-7.287.935-.21 1.537-1.122 1.403-2.053-.461-3.206.064-6.72 2.16-9.049.476-.474.897-.638 1.318-.657.424-.02.884.127 1.342.427.916.6 1.728 1.842 1.924 2.88l.008.045.014.043c.623 2.047.825 4.241.535 6.35-.128.928.465 1.838 1.399 2.053 5.982 1.38 11.587 4.184 16.99 7.248l3.094 1.752-1.985-2.948c-1.664-2.476-2.943-5.214-4.896-7.874-.807-1.1-1.777-1.917-2.748-2.71.098.055.18.056.281.116l2.615 1.557-1.45-2.675C43.256 33.023 38.028 23.402 33.213 11.44Zm.037 4.344c4.332 10.446 9.035 19.405 14.378 29.283-1.163-.362-2.32-.589-3.594-.748l-4.842-.602 4.363 2.185c2.358 1.18 4.804 2.695 6.579 5.113 1.224 1.667 2.21 3.457 3.245 5.222-4.657-2.511-9.487-4.817-14.722-6.024-.074-.017-.128-.094-.115-.191.323-2.345.097-4.749-.577-6.998-.3-1.554-1.285-3.06-2.645-3.952-.683-.448-1.483-.737-2.335-.699-.853.039-1.72.428-2.446 1.16l-.013.013-.012.014c-2.573 2.839-3.103 6.875-2.591 10.432.013.093-.037.161-.112.178-5.371 1.202-10.296 3.61-15.043 6.198 4.983-9.019 10.497-19.313 15.053-28.48.506 1.214 1.112 2.217 1.887 2.834 1.157.922 2.46 1.256 3.608 1.563l4.697 1.257-4.004-2.756c-1.468-1.01-2.408-2.958-2.718-5.276-.31-2.319.018-4.96.919-7.168z" style="baseline-shift:baseline;display:inline;overflow:visible;opacity:1;mix-blend-mode:normal;fill:none;stroke:#0031ff;stroke-width:.2;stroke-linecap:square;stroke-miterlimit:7.4;stroke-dasharray:none;stroke-opacity:1;filter:url(#j);enable-background:accumulate;stop-color:#000;stop-opacity:1" transform="translate(-4.388 -5.092)scale(1.13412)"/></svg>