<svg xmlns="http://www.w3.org/2000/svg" xmlns:xlink="http://www.w3.org/1999/xlink" width="64" height="64"><defs><radialGradient id="a" cx="-159.431" cy="15.463" r="64.707" fx="-159.431" fy="15.463" gradientTransform="matrix(-.89413 0 0 .96305 -21.247 47.892)" gradientUnits="userSpaceOnUse"><stop offset="0" style="stop-color:#006fff;stop-opacity:1"/><stop offset="1" style="stop-color:#15baff;stop-opacity:1"/></radialGradient><radialGradient xlink:href="#a" id="e" cx="63.977" cy="52.77" r="17" fx="63.977" fy="52.77" gradientTransform="matrix(0 -3.72978 3.77302 0 -135.124 302.384)" gradientUnits="userSpaceOnUse"/><radialGradient xlink:href="#b" id="d" cx="63.977" cy="52.77" r="17" fx="63.977" fy="52.77" gradientTransform="matrix(0 -3.72978 3.77302 0 -145.124 304.384)" gradientUnits="userSpaceOnUse"/><radialGradient id="b" cx="-159.431" cy="15.463" r="64.707" fx="-159.431" fy="15.463" gradientTransform="matrix(-.89413 0 0 .96305 -21.247 47.892)" gradientUnits="userSpaceOnUse"><stop offset="0" style="stop-color:#006fff;stop-opacity:1"/><stop offset="1" style="stop-color:#15baff;stop-opacity:1"/></radialGradient><filter id="c" width="1.208" height="1.224" x="-.104" y="-.112" style="color-interpolation-filters:sRGB"><feGaussianBlur stdDeviation="2.431"/></filter><filter id="f" width="1.145" height="1.156" x="-.072" y="-.078" style="color-interpolation-filters:sRGB"><feGaussianBlur stdDeviation="1.649"/></filter><filter id="g" width="1.171" height="1.213" x="-.086" y="-.106" style="color-interpolation-filters:sRGB"><feGaussianBlur stdDeviation="1.264"/></filter></defs><g style="filter:url(#c)" transform="translate(12.482 1.836)scale(.88718)"><path d="M3.277 8A9.26 9.26 0 0 0-6 17.277v33.48A9.223 9.223 0 0 0 3.242 60H28c-3-16-3-26-3-26h-8s2-16 6-26z" style="fill:url(#d)"/><path d="M23 8c-4 10-6 26-6 26h8s0 10 3 26h12.742A9.24 9.24 0 0 0 50 50.742V17.258A9.24 9.24 0 0 0 40.742 8z" style="fill:#e4e4e4"/></g><path d="M13.277 6A9.26 9.26 0 0 0 4 15.277v33.48A9.223 9.223 0 0 0 13.242 58H38c-3-16-3-26-3-26h-8s2-16 6-26z" style="fill:url(#e);opacity:.85048491"/><path d="M33 6c-4 10-6 26-6 26h8s0 10 3 26h12.742A9.24 9.24 0 0 0 60 48.742V15.258A9.24 9.24 0 0 0 50.742 6Z" style="fill:#e4e4e4;opacity:.85048491"/><g style="fill:none;stroke:#000;stroke-width:.2;stroke-dasharray:none;stroke-opacity:1;filter:url(#f)" transform="translate(-12 7)"><path d="M25.277-1A9.26 9.26 0 0 0 16 8.277v33.48A9.223 9.223 0 0 0 25.242 51H50c-3-16-3-26-3-26h-8s2-16 6-26z" style="opacity:.850485;fill:none;stroke:#000;stroke-width:.2;stroke-dasharray:none;stroke-opacity:1"/><path d="M45-1c-4 10-6 26-6 26h8s0 10 3 26h12.742A9.24 9.24 0 0 0 72 41.742V8.258A9.24 9.24 0 0 0 62.742-1z" style="opacity:.850485;fill:none;stroke:#000;stroke-width:.2;stroke-dasharray:none;stroke-opacity:1"/></g><path d="M20.5 19a1.5 1.5 0 0 0-1.5 1.5v4a1.5 1.5 0 0 0 1.5 1.5 1.5 1.5 0 0 0 1.5-1.5v-4a1.5 1.5 0 0 0-1.5-1.5m23 0a1.5 1.5 0 0 0-1.5 1.5v4a1.5 1.5 0 0 0 1.5 1.5 1.5 1.5 0 0 0 1.5-1.5v-4a1.5 1.5 0 0 0-1.5-1.5M14.69 38.238a1.5 1.5 0 0 0-.452 2.073s1.336 2.04 4.18 3.937S25.708 48 32 48s10.738-1.856 13.582-3.752 4.18-3.937 4.18-3.937a1.5 1.5 0 0 0-.451-2.073 1.5 1.5 0 0 0-2.073.451s-.914 1.46-3.32 3.063S37.708 45 32 45s-9.512-1.644-11.918-3.248-3.32-3.063-3.32-3.063a1.5 1.5 0 0 0-2.073-.45" style="baseline-shift:baseline;display:inline;overflow:visible;vector-effect:none;fill:#343434;stroke-linecap:round;enable-background:accumulate;stop-color:#000;stop-opacity:1;opacity:1"/><path d="M20.5 19a1.5 1.5 0 0 0-1.5 1.5v4a1.5 1.5 0 0 0 1.5 1.5 1.5 1.5 0 0 0 1.5-1.5v-4a1.5 1.5 0 0 0-1.5-1.5Zm23 0a1.5 1.5 0 0 0-1.5 1.5v4a1.5 1.5 0 0 0 1.5 1.5 1.5 1.5 0 0 0 1.5-1.5v-4a1.5 1.5 0 0 0-1.5-1.5ZM14.69 38.238a1.5 1.5 0 0 0-.452 2.073s1.336 2.04 4.18 3.937S25.708 48 32 48s10.738-1.856 13.582-3.752 4.18-3.937 4.18-3.937a1.5 1.5 0 0 0-.451-2.073 1.5 1.5 0 0 0-2.073.451s-.914 1.46-3.32 3.063S37.708 45 32 45s-9.512-1.644-11.918-3.248-3.32-3.063-3.32-3.063a1.5 1.5 0 0 0-2.073-.45z" style="baseline-shift:baseline;display:inline;overflow:visible;fill:none;stroke-linecap:round;enable-background:accumulate;stop-color:#000;stroke:#000;stroke-opacity:1;stroke-width:.1;stroke-dasharray:none;filter:url(#g)"/></svg>