<svg xmlns="http://www.w3.org/2000/svg" width="64" height="64"><rect width="56" height="56" x="4" y="5" rx="16.8" ry="16.8" style="opacity:.2"/><path d="M20.8 4h22.4C52.507 4 60 11.493 60 20.8v22.4C60 52.507 52.507 60 43.2 60H25.883l-4.113-1.94c-8.418-3.97-15.785-5.13-15.399-14.429l.862-20.783c.334-8.04 2.368-16.785 9.9-18.45A17 17 0 0 1 20.8 4" style="fill:#ff7f1c"/><path d="M17.871 5.268A16.75 16.75 0 0 0 4 21.8v22.4C4 53.507 11.493 61 20.8 61h5.86c.893-3.454 1.282-6.488 1.06-9.647-.02-.294.357-1.146 1.297-2.031s2.377-1.84 4.24-2.606c3.73-1.534 9.162-2.333 15.847-.52 3.091.84 5.32 1.355 6.904 1.644s2.486.37 3.106.249a1.2 1.2 0 0 0 .443-.167c.047-.03.09-.08.134-.126.055-.287.091-.58.131-.872a1.5 1.5 0 0 0-.23-.315c-.349-.382-.868-.704-1.44-1.006h-.003c-.446-.235-1.81-1.166-3.648-2.354s-4.197-2.094-6.828-3.492c-5.261-2.796-11.033-5.348-16.532-4.752-2.967.321-5.086-.263-6.516-1.291s-2.201-2.513-2.411-4.115c-.421-3.204.894-7.732 4.372-8.524 3.44-.782 6.28-1.374 8.464-2.116 1.092-.37 1.942-.756 2.475-1.359.266-.302.445-.687.445-1.1 0-.412-.164-.812-.437-1.191a.54.54 0 0 0-.34-.216s-2.2-.399-4.795-1.348c-2.596-.95-5.192-2.471-6.663-4.542l-.019-.028c-1.443-1.793-4.355-3.291-7.845-3.907" style="opacity:.1"/><path d="M20.8 4C11.495 4 4 11.494 4 20.8v1C4 12.495 11.494 5 20.8 5h22.4C52.505 5 60 12.494 60 21.8v-1C60 11.495 52.506 4 43.2 4z" style="opacity:.2;fill:#fff"/><path d="M17.871 4.268A16.75 16.75 0 0 0 4 20.8v22.4C4 52.507 11.493 60 20.8 60h5.86c.893-3.454 1.282-6.488 1.06-9.647-.02-.294.357-1.146 1.297-2.031s2.377-1.84 4.24-2.606c3.73-1.534 9.162-2.333 15.847-.52 3.091.84 5.32 1.355 6.904 1.644s2.486.37 3.106.249a1.2 1.2 0 0 0 .443-.167c.047-.03.09-.08.134-.126.055-.287.091-.58.131-.872a1.5 1.5 0 0 0-.23-.315c-.349-.382-.868-.704-1.44-1.006h-.003c-.446-.235-1.81-1.166-3.648-2.354s-4.197-2.094-6.828-3.492c-5.261-2.796-11.033-5.348-16.532-4.752-2.967.321-5.086-.263-6.516-1.291s-2.201-2.513-2.411-4.115c-.421-3.204.894-7.732 4.372-8.524 3.44-.782 6.28-1.374 8.464-2.116 1.092-.37 1.942-.756 2.475-1.359.266-.302.445-.687.445-1.1 0-.412-.164-.812-.437-1.191a.54.54 0 0 0-.34-.216s-2.2-.399-4.795-1.348c-2.596-.95-5.192-2.471-6.663-4.542l-.019-.028c-1.443-1.793-4.355-3.291-7.845-3.907" style="fill:#3d3d3d"/><path d="M34.579 40.92c-2.802.001-5.565.582-8.242 1.368.569 1.915 1.062 5.415 1.42 7.883.082-.38.454-1.091 1.26-1.85.94-.885 2.377-1.839 4.242-2.606 3.728-1.533 9.16-2.333 15.845-.52 2.357.639 4.08 1.045 5.531 1.353-3.934-1.006-7.535-3.005-11.41-4.204-2.788-.908-5.707-1.457-8.646-1.424m22.11 6.034c.86.138 1.498.201 1.972.18a3 3 0 0 0-.458-.018c-.435-.02-.994-.088-1.513-.162" style="fill:#e6e7e8"/><path d="M4 27.226V43.2C4 52.507 11.493 60 20.8 60h5.638c.057-.327.128-.646.175-.979.952-6.642.686-14.267-2.805-22.725-2.437-5.904-5.308-7.684-7.53-5.606-4.163 3.894-9.651-2.574-11.835-3.36-.14-.05-.295-.07-.443-.104" style="fill:#fff"/><path d="M17.88 4.268a16.74 16.74 0 0 0-12.116 9.048c4.937-2.212 9.74-2.273 13.852 2.79 5.38 6.736 17.628-.187 18.097-1.516-.03-.055-.068-.11-.103-.164a41 41 0 0 1-1.488-.571 30 30 0 0 1-3.724-1.11c-2.596-.95-5.191-2.471-6.662-4.542l-.02-.028c-1.442-1.792-4.35-3.29-7.836-3.907m5.545 27.297c.537 1.343 1.973 4.615 2.644 6.697 4.095-1.712 10.87-4.215 24.566 4.646 9.147 5.92 9.859 3.028 7.686 1.88-.38-.2-1.305-.844-2.43-1.632-.45-.295-.843-.556-1.387-.907-1.838-1.189-4.2-2.097-6.83-3.495-5.262-2.796-11.034-5.345-16.533-4.75-2.967.322-5.086-.262-6.516-1.29a5.8 5.8 0 0 1-1.184-1.143l-.016-.005" style="fill:#727072"/><path d="M26.849 9.428c-.913.379-2.125 1.319-2.44 1.868-.315.774-.841 1.475-1.617 1.833-.99.555-2.197.669-3.1 1.38-.711.621-.249 1.65.286 2.22 1.3 1.424 3.13 2.362 5.035 2.645 1.763.202 3.073-.562 4.798-.782 2.231-.437 4.532-.672 6.66-1.516.59-.248 1.15-.665 1.455-1.233a1.5 1.5 0 0 0 .046-.343c0-.413-.165-.813-.438-1.193a.54.54 0 0 0-.34-.214l-.103-.023c-.275.005-.606.01-.669.019-.845-.22-1.597-.48-2.302-.775a32 32 0 0 1-1.723-.57c-2.051-.751-3.958-1.862-5.548-3.316" style="fill:#ffbc3d"/><circle cx="19" cy="10" r="3" style="opacity:.2"/><circle cx="19" cy="9" r="3" style="fill:#fff"/><path d="M21.086 8.793c0-1.07-.866-1.933-1.934-1.933a1.936 1.936 0 1 0 1.933 1.933" style="fill:#3d3d3d"/><path d="M18.504 8.447a.295.295 0 0 0-.292-.296.296.296 0 0 0-.294.296.292.292 0 0 0 .586 0" style="fill:#fff"/><path d="M21.761 8.358c.151.61-1.193-.639-2.808-.639-1.618 0-2.837 1.412-2.673.51.176-.963 1.25-2.184 2.741-2.184 1.407 0 2.454 1.15 2.74 2.313" style="fill:#fff"/><path d="M20.204 15.474c.024-.27.288-.37.545-.376a.77.77 0 0 1 .447.137c.945.65 2.933 1.788 5.485 1.784.709.002 1.618-.087 2.298-.29 2.181-.668 4.79-.71 5.511-.71s2.265.184 2.265.184c1.171-.019 1.176-.856.99-1.595l-.452-.537s.805.202.755 1.226c-.1 1.393-1.762.999-2.651.973-1.763-.05-4.314.202-6.513.737-.709.211-2.381.17-2.381.17-2.012-.001-4.205-1.03-4.593-1.092-.689-.251-1.528.169-1.706-.61" style="fill:#3d3d3d"/><path d="M26.746 9.33c-.336.146-.613.262-.664.262-.627 0-1.039.624-1.068.972-.1 1.208 1.191 2.03 4.789 2.333 4.52.38 8.094 2.82 7.96 1.813l.007-.002a3 3 0 0 0-.236-.4.54.54 0 0 0-.34-.215s-2.2-.4-4.797-1.35c-2.097-.767-4.056-1.911-5.65-3.412" style="opacity:.5;fill:#fff"/><path d="M26.07 10.944c-.114.207.145.255.344.366.2.11.246.15.394.18.143.028.006-.27-.155-.503-.158-.23-.467-.25-.583-.043" style="fill:#3d3d3d"/><path d="M26.107 9.223a1.7 1.7 0 0 0-.777.306c-.507.35-.992.982-1.32 1.92-.298.853-.95 1.289-1.745 1.633s-1.71.564-2.436 1c-.364.218-.613.509-.733.843s-.11.697-.008 1.054c.203.713.75 1.428 1.477 2.069 1.453 1.282 3.642 2.28 5.457 1.866a.269.269 0 1 0-.12-.524c-1.53.348-3.63-.553-4.981-1.745-.676-.596-1.158-1.262-1.315-1.814q-.118-.413-.005-.724c.074-.208.225-.397.505-.565.617-.37 1.52-.596 2.372-.966.853-.37 1.677-.917 2.038-1.95.298-.853.732-1.388 1.119-1.654.387-.267.688-.255.834-.144a.269.269 0 1 0 .327-.426.95.95 0 0 0-.69-.18z" style="fill:#3d3d3d"/></svg>