<svg xmlns="http://www.w3.org/2000/svg" xmlns:xlink="http://www.w3.org/1999/xlink" width="64" height="64"><defs><filter id="d" width="1.133" height="1.109" x="-.066" y="-.054" style="color-interpolation-filters:sRGB"><feGaussianBlur stdDeviation=".865"/></filter><filter id="c" width="1.141" height="1.141" x="-.07" y="-.07" style="color-interpolation-filters:sRGB"><feGaussianBlur stdDeviation="1.603"/></filter><radialGradient xlink:href="#a" id="b" cx="83.317" cy="44.868" r="28" fx="83.317" fy="44.868" gradientTransform="rotate(120 147.273 11.336)scale(2.61951)" gradientUnits="userSpaceOnUse"/><linearGradient id="a"><stop offset="0" style="stop-color:#59d5d3;stop-opacity:1"/><stop offset="1" style="stop-color:#53b1cb;stop-opacity:1"/></linearGradient></defs><circle cx="32" cy="32" r="28" style="fill:url(#b)"/><circle cx="32" cy="32" r="28" style="fill:none;fill-opacity:1;stroke:#000;stroke-opacity:1;stroke-width:.2;stroke-dasharray:none;filter:url(#c)"/><g style="fill:#fff;stroke:none;stroke-width:.3;stroke-dasharray:none;stroke-opacity:1;fill-opacity:1" transform="translate(.844 2)"><rect width="28" height="4" x="18" y="46" rx="2.258" ry="2" style="fill:#fff;stroke:none;stroke-width:.3;stroke-dasharray:none;stroke-opacity:1;fill-opacity:1"/><path d="m28.338 31.168 2.825 7.494c2.36 6.259-1.695 5.909-3.06 4.436-2.238-2.413-13.333-23.476-13.303-25.6.028-1.979 3.06-4.017 4.532-5.036 14.366-9.95 24.395 13.108 9.006 18.706M24.571 15.58c-5.287-1.456 1.128 14.301 3.944 9.712 1.72-2.805-1.39-9.009-3.944-9.712m14.115 28.022c-1.547-.415-.697-3.553 1.035-3.518 2.74 0 2.241 4.396-1.035 3.518m1.434-6.684c-1.323-.537.503-14.549 1.53-16.327 1.026-1.778 4.526-1.181 5.72.888 1.195 2.069-5.69 16.09-7.25 15.439" style="fill:#fff;stroke:none;stroke-width:.3;stroke-dasharray:none;stroke-opacity:1;fill-opacity:1"/></g><g style="fill:none;stroke:#0010ff;stroke-width:.2;stroke-dasharray:none;stroke-opacity:1;filter:url(#d)" transform="translate(.844 2)"><rect width="28" height="4" x="18" y="46" rx="2.258" ry="2" style="fill:none;stroke:#0010ff;stroke-width:.2;stroke-dasharray:none;stroke-opacity:1"/><path d="m28.338 31.168 2.825 7.494c2.36 6.259-1.695 5.909-3.06 4.436-2.238-2.413-13.333-23.476-13.303-25.6.028-1.979 3.06-4.017 4.532-5.036 14.366-9.95 24.395 13.108 9.006 18.706zM24.571 15.58c-5.287-1.456 1.128 14.301 3.944 9.712 1.72-2.805-1.39-9.009-3.944-9.712zm14.115 28.022c-1.547-.415-.697-3.553 1.035-3.518 2.74 0 2.241 4.396-1.035 3.518zm1.434-6.684c-1.323-.537.503-14.549 1.53-16.327 1.026-1.778 4.526-1.181 5.72.888 1.195 2.069-5.69 16.09-7.25 15.439z" style="fill:none;stroke:#0010ff;stroke-width:.2;stroke-dasharray:none;stroke-opacity:1"/></g></svg>