<svg xmlns="http://www.w3.org/2000/svg" width="64" height="64"><path d="M46.946 23.403c-2.17-1.623-3.06-3.516-5.451-4.927 3.605-.696 4.278-.51 6.54.753 2.277 1.271 3.326 6.472-1.089 4.174" style="fill:#b3b3b3"/><path d="M34.835 52.053c-.327 3.144-.968 5.439-.81 6.645.159 1.206 1.316.444 1.895.125.526-.423 1.225-.392 1.661.124.722.484 1.517.984 2.437 1.05.667.055.8-.609.828-1.068.36-.441 1.12.167 1.622.196.684.181 1.352.423 2.045.566.506.135.673-.38.234-.587-1.035-.945-2.06-1.909-2.897-3.01-.954-1.151-1.809-2.391-2.978-3.378-.739-.564-1.75-.586-2.663-.68-.456-.025-.924-.075-1.374.017" style="fill:#ffc72a"/><path d="M32.734 11.744q-1.111-.06-2.217.06c-4.61.512-8.837 3.082-11.265 7.076-1.875 3.084-2.548 7.097-2.309 11.165q-.321.671-.596 1.366c-3.66 10.033.345 21.338 8.948 25.251s18.545-1.05 22.204-11.084c.209-.57.394-1.132.556-1.722 2.226 1.878 3.747 1.436 3.928-1.14.207-2.987-1.423-8.195-4.016-12.808a20 20 0 0 0-.112-2.209c-.947-8.734-7.39-15.532-15.12-15.955" style="opacity:.2"/><path d="M32.734 10.744q-1.111-.06-2.217.06c-4.61.512-8.837 3.082-11.265 7.076-1.875 3.084-2.548 7.097-2.309 11.165q-.321.671-.596 1.366c-3.66 10.033.345 21.338 8.948 25.251s18.545-1.05 22.204-11.084c.209-.57.394-1.132.556-1.722 2.226 1.878 3.747 1.436 3.928-1.14.207-2.987-1.423-8.195-4.016-12.808a20 20 0 0 0-.112-2.209c-.947-8.734-7.39-15.532-15.12-15.955" style="fill:#384cbc"/><path d="M40.715 20a2.981 3.52 79.662 0 0-.5.03 2.981 3.52 79.662 0 0-3.203 3.392 2.981 3.52 79.662 0 0 3.78 2.55 2.981 3.52 79.662 0 0 3.203-3.393A2.981 3.52 79.662 0 0 40.715 20m-9 1a2.981 3.52 79.662 0 0-.5.03 2.981 3.52 79.662 0 0-3.203 3.392 2.981 3.52 79.662 0 0 3.78 2.55 2.981 3.52 79.662 0 0 3.203-3.393A2.981 3.52 79.662 0 0 31.715 21" style="opacity:.2"/><path d="M45.746 46.433c-3.339 7.57-11.26 11.45-17.682 8.665-6.42-2.786-8.923-11.189-5.584-18.758 3.34-7.57 9.206-9.463 16.018-10.205 6.952-.756 10.587 12.73 7.248 20.298" style="fill:#f9f9f9"/><path d="M30.692 31.979a4.8 4.8 0 0 0-1.246.154c-1.94.5-2.802 1.804-2.43 3.246l.19.739-.114-.116-.22-.224-.083.3-.082.29-.066.013-.207-.213-.219-.22-.086.3-.076.284-.074.017-.201-.21-.221-.223-.082.3-.08.286-.07.015-.205-.209-.22-.224-.085.302-.078.285-.073.016-.205-.21-.218-.222-.084.301-.077.281-.072.02-.207-.209-.219-.223-.082.301-.082.29h-.006l.004.01.006.018a1 1 0 0 0-.474 1.12.99.99 0 0 0 .95.748l.007.017.004.01.006-.002.152.158-17.45 4.41c-1.1.284-1.803 1.23-1.574 2.122.23.89 1.303 1.377 2.403 1.093l22.959-5.912 4.605-.267.02.45 1.535-.116-.01-.188h.049v-.012l.082-.052.096-.063-.1-.05-.086-.046-.002-.037.082-.049.096-.064-.102-.055-.084-.043-.004-.035.082-.053.096-.062-.101-.053-.084-.043-.002-.039.082-.05.095-.061-.101-.055-.086-.043-.002-.037.082-.05.096-.063-.102-.053-.084-.043-.004-.039.082-.053.096-.062-.102-.05-.084-.046-.002-.035.082-.05.096-.065-.102-.051-.085-.045-.002-.037.082-.053.095-.062-.101-.053-.084-.043-.004-.04.082-.048.096-.062-.1-.053-.086-.045-.002-.037.082-.05.096-.063-.102-.053-.084-.043-.004-.04.082-.05.098-.06-.104-.053-.084-.047-.003-.035.082-.051.1-.065-.104-.05-.086-.045-.002-.037.082-.053.097-.06-.103-.051-.084-.047-.004-.035.082-.053.074-.047.096.023.094.024.01.035-.069.068-.082.082.113.032.092.023.008.037-.064.065-.082.086.11.027.095.023.007.036-.066.068-.082.082.113.031.09.022.012.039-.069.064-.08.084.112.028.092.025.01.035-.069.068-.082.082.113.032.092.021.012.035-.069.069-.082.082.112.029.093.025.008.036-.066.068-.082.082.113.027.092.026.01.035-.067.068-.082.082.112.03.093.025.008.035-.064.068-.082.082.111.028.094.025.008.035-.069.069-.08.082.11.03.093.02.012.04-.068.066-.082.084.11.027.095.026.01.035-.069.068-.082.082.113.03.092.021.004.012.182-.05v.003l.006-.002.048-.014-.006-.017c.877-.539 1.226-.858 1.112-2.576-.104-1.564.202-4.804-3.008-4.84-.58-.007-1.275.095-2.107.326-.44-.936-1.809-1.32-3.127-1.336m5.582 3.935.039.008.092.028.007.033-.064.07-.082.08.111.03.094.025.008.035-.068.068-.079.082.112.028.092.027.01.033-.069.069-.08.082.11.029.093.025.01.035-.069.069-.078.082.11.027.091.024.012.037-.068.068-.082.082.111.03.088.02-.025.009-.016.006.004.01-.068.068-.082.082.11.03.095.025.01.035-.069.068-.06.059-.084-.041-.084-.045v-.01l-.055.004-.027-.631-1.489.113-.092-.762zm-8.514 2.36.022.082-.047.012zm-.555.017.165.168-.293.075.062-.22q.035-.01.066-.023m-.654.174.158.162-.287.073.059-.217zm-.658.168.158.16-.287.073.057-.213zm-.656.17.152.158-.281.07.058-.208zm-.658.17.15.154-.28.07.057-.204zM6.528 44.711c.378-.027.721.188.808.526.1.386-.173.787-.611.9s-.871-.108-.97-.494c-.1-.386.17-.792.609-.904a1 1 0 0 1 .164-.028" style="opacity:.1"/><path d="M35.927 31.989c-.595-.007-1.31.098-2.17.342l.702 2.883 1.815-.3.038.008.093.027.008.033-.065.071-.082.08.112.03.093.024.008.036-.068.068-.08.082.113.027.092.028.009.032-.069.069-.079.082.11.03.092.024.011.036-.068.068-.08.082.11.028.093.024.011.036-.068.068-.082.082.112.03.087.022-.024.008-.017.006.003.008-.068.069-.082.082.112.03.093.024.01.036-.068.068-.06.06-.085-.04-.084-.047v-.009l-.055.003-.027-.631-1.534.117.192 4.267 1.533-.117-.008-.189h.049v-.01l.082-.053.096-.063-.102-.052-.084-.043-.003-.039.082-.049.096-.063-.102-.054-.084-.044-.003-.036.082-.052.096-.062-.102-.052-.084-.044-.003-.038.082-.052.095-.06-.1-.055-.085-.044-.003-.035.082-.052.095-.063-.1-.052-.085-.044-.003-.038.082-.052.095-.063-.1-.052-.085-.044-.003-.035.082-.052.095-.063-.1-.052-.085-.044-.003-.038.082-.052.095-.063-.1-.052-.085-.043-.003-.039.082-.049.095-.063-.1-.052-.085-.046-.003-.036.082-.052.095-.062-.1-.052-.085-.044-.003-.038.082-.052.098-.06-.104-.052-.084-.047-.003-.035.082-.052.098-.063-.104-.052-.084-.044-.003-.038.082-.052.098-.06-.104-.052-.084-.047-.003-.035.082-.052.074-.047.095.022.093.025.011.035-.068.069-.082.082.112.03.093.024.008.036-.066.066-.082.084.113.028.092.024.009.036-.066.068-.082.082.112.03.09.022.011.038-.068.066-.08.085.113.027.09.025.01.035-.067.068-.082.082.112.03.093.022.01.036-.068.068-.082.082.112.03.093.025.008.035-.065.069-.082.082.112.027.093.025.008.035-.065.069-.082.082.112.03.093.024.008.036-.066.068-.082.082.112.027.093.025.009.036-.069.068-.079.082.11.03.092.022.011.038-.068.066-.082.084.112.028.093.024.01.036-.068.068-.082.082.113.03.092.022.003.011.183-.05v.004l.006-.003.05-.014-.006-.016c.876-.539 1.223-.86 1.11-2.578-.104-1.563.203-4.802-3.007-4.838m-8.397 2.619-.085.3-.08.29-.062.016-.21-.213-.222-.224-.082.3-.082.29-.066.014-.207-.213-.219-.221-.085.3-.076.285-.074.016-.202-.21-.222-.222-.082.3-.08.285-.07.016-.205-.21-.219-.224-.085.303-.079.284-.07.017-.206-.21-.219-.222-.084.3-.077.282-.07.02-.209-.208-.218-.225-.082.301-.082.29h-.006l.003.01.005.02a.995.995 0 0 0-.472 1.118.99.99 0 0 0 .95.749l.006.016.003.011.006-.003.21.216.221.224.082-.3.08-.285.07-.019.206.21.218.225.085-.3.08-.285.07-.02.206.211.218.224.085-.3.077-.284.07-.02.208.21.219.225.085-.3.076-.285.071-.02.205.211.219.225.085-.301.08-.284.065-.022.21.213.219.224.085-.3.079-.293.063-.016.21.215.222.225.082-.301.082-.293h.005l-.003-.01-.164-.632-.437.112a1 1 0 0 0-.03-.33 1 1 0 0 0-.134-.307l.437-.112-.164-.634v-.01l-.005.002-.213-.213z" style="fill:#666"/><rect width="1.229" height="5.313" x="-42.52" y="-19.27" rx=".614" ry=".668" style="fill:#333" transform="rotate(75.555)scale(-1 1)"/><path d="M30.691 30.98a4.8 4.8 0 0 0-1.246.153c-1.94.499-2.8 1.803-2.43 3.246l.766 2.976-21.163 5.35c-1.1.283-1.804 1.23-1.574 2.12.23.892 1.302 1.378 2.402 1.094l22.958-5.912 4.945-.287-.574-4.715-.23.013-.629-2.443c-.29-1.127-1.79-1.577-3.225-1.596M6.528 43.71c.378-.027.722.188.81.525.099.386-.175.79-.613.902-.438.113-.871-.108-.97-.494-.1-.386.171-.792.609-.905a1 1 0 0 1 .164-.027" style="fill:#ea3434"/><rect width="3.615" height="2.15" x="-42.91" y="-20.96" ry=".658" style="fill:#333" transform="rotate(75.555)scale(-1 1)"/><rect width="1.758" height="23.881" x="-45.54" y="-20.36" rx=".879" ry="1.005" style="fill:maroon" transform="rotate(75.555)scale(-1 1)"/><ellipse cx="38.202" cy="26.707" rx="3.517" ry="2.984" style="fill:#fff" transform="rotate(-6.89)scale(1 .99972)skewX(-1.35)"/><ellipse cx="39" cy="27.082" rx="1.502" ry="1.498" style="fill:#3e3e3e" transform="matrix(.9935 -.11389 .10169 .99482 0 0)"/><path d="M36.928 26.002A1.979 4.99 88.914 0 0 32 28.084a1.979 4.99 88.914 0 0 1.051 1.174 1.979 4.99 88.914 0 0 .037.02c2.122 1.1 6.69.93 8.326-.42.856-.73.522-1.244.522-1.244l-.008.002a1.979 4.99 88.914 0 0-5-1.614" style="opacity:.1"/><ellipse cx="36.133" cy="27.749" rx="4.991" ry="1.979" style="fill:#ffc72a" transform="rotate(-1.197)scale(1 .99995)skewX(.59)"/><path d="M21.35 33.532a3.836 12.274 25.338 0 1-7.984 12.767 3.836 12.274 25.338 0 1-3.026-5.029 3.836 12.274 25.338 0 1 7.057-14.308" style="opacity:.2"/><path d="M21.35 32.532a3.836 12.274 25.338 0 1-7.984 12.767 3.836 12.274 25.338 0 1-3.026-5.029 3.836 12.274 25.338 0 1 7.057-14.308" style="fill:#384cbc"/><path d="m32.02 27.149 7.273.5 2.643-1.035s.334.514-.522 1.244c-2.065 1.704-8.802 1.528-9.394-.71" style="fill:#ffa10a"/><path d="M19.835 53.054c-.327 3.144-.968 5.438-.81 6.644.159 1.206 1.316.445 1.895.125.526-.423 1.225-.392 1.661.124.722.484 1.517.984 2.437 1.05.667.056.8-.608.828-1.068.36-.441 1.12.168 1.622.196.684.182 1.352.423 2.045.567.506.134.673-.38.234-.588-1.035-.945-2.06-1.91-2.897-3.008-.954-1.153-1.809-2.393-2.978-3.38-.739-.564-1.75-.587-2.663-.68-.457-.025-.924-.075-1.374.018" style="opacity:.2"/><path d="M19.835 52.054c-.327 3.144-.968 5.438-.81 6.644.159 1.206 1.316.445 1.895.125.526-.423 1.225-.392 1.661.124.722.484 1.517.984 2.437 1.05.667.056.8-.608.828-1.068.36-.441 1.12.168 1.622.196.684.182 1.352.423 2.045.567.506.134.673-.38.234-.588-1.035-.945-2.06-1.91-2.897-3.008-.954-1.153-1.809-2.393-2.978-3.38-.739-.564-1.75-.587-2.663-.68-.457-.025-.924-.075-1.374.018" style="fill:#ffc72a"/><ellipse cx="29.145" cy="26.621" rx="3.517" ry="2.984" style="fill:#fff" transform="rotate(-6.89)scale(1 .99972)skewX(-1.35)"/><ellipse cx="29.944" cy="27.05" rx="1.502" ry="1.498" style="fill:#3e3e3e" transform="matrix(.9935 -.11389 .10169 .99482 0 0)"/><path d="M31.623 10.729q-.554.015-1.105.076c-4.61.51-8.837 3.082-11.266 7.076a14.4 14.4 0 0 0-1.238 2.637c-.007.355-.014.712-.014 1.082a46 46 0 0 1 3.44-2.137c2.624 3.557 3.607 6.865 8.978 5 4.457-1.549 10.307-5.654 15.178-5.035-.473-.87-1.01-1.69-1.6-2.455-.122-.093-.244-.192-.367-.282a3 3 0 0 0-.097-.29c-2.767-3.296-6.586-5.427-10.797-5.657q-.556-.03-1.112-.015" style="opacity:.2"/><path d="M43.427 15.802C36.55 12.47 28.475 14.583 21.76 18.28A46 46 0 0 0 18 20.6c0-7.696 1.476-12.261 5.703-14.695 3.333-1.814 8.463-2.078 11.707-1.314 2.077.982 1.852 1.284 4.161 3.628.403.854 3.768 7.573 3.856 7.583" style="fill:#999"/><path d="M48.742 19.668c-3.467-2.404-6.539-5.953-10.163-6.23-5.326-.367-11.62 1.914-17.17 4.983 2.648 3.573 3.616 6.914 9.009 5.041 5.47-1.901 13.041-7.655 18.324-3.794" style="fill:gray"/><path d="M43.633 15.7c-2.653-1.275-5.638-1.87-8.293-1.7-4.058.258-8.14 2.072-12.32 3.65.8-9.96.535-13.97 9.377-13.63.638.024 1.323.09 2.06.158 4.403.413 5.828 3.963 7.3 7.49.661 1.59 1.665 3.216 1.876 4.032" style="fill:#e4e4e4"/><path d="M31.594 4c-1.87-.015-3.288.197-4.379.648-1.27.28-2.477.693-3.511 1.256C19.477 8.338 18 12.904 18 20.6l.012-.008c.129-7.085 1.654-11.363 5.692-13.688 1.034-.563 2.241-.976 3.511-1.256 1.091-.451 2.51-.663 4.38-.648q.387.003.802.02c.638.024 1.324.089 2.06.158 4.403.413 5.828 3.963 7.3 7.49.38.914.844 1.797 1.232 2.57q.32.219.64.453c-.216-.819-1.213-2.439-1.873-4.023-1.471-3.527-2.896-7.077-7.299-7.49a37 37 0 0 0-2.06-.158q-.414-.017-.803-.02" style="opacity:.2;fill:#fff"/></svg>