<svg xmlns="http://www.w3.org/2000/svg" xmlns:xlink="http://www.w3.org/1999/xlink" width="64" height="64"><defs><radialGradient xlink:href="#a" id="b" cx="-10.917" cy="17.802" r="21.594" fx="-10.917" fy="17.802" gradientTransform="rotate(-15 -116.784 -22.322)scale(2.3076 2.52164)" gradientUnits="userSpaceOnUse"/><linearGradient id="a"><stop offset="0" style="stop-color:#00c9f6;stop-opacity:1"/><stop offset="1" style="stop-color:#008cff;stop-opacity:1"/></linearGradient><filter id="c" width="1.149" height="1.152" x="-.075" y="-.076" style="color-interpolation-filters:sRGB"><feGaussianBlur stdDeviation="1.321"/></filter></defs><path d="m28.552 20.988-12.947 7.475a8.65 8.65 0 0 1-8.646 0L-5.99 20.988a8.65 8.65 60 0 1-4.323-7.488V-1.45A8.65 8.65 120 0 1-5.99-8.938l12.95-7.475a8.65 8.65 0 0 1 8.646 0l12.947 7.475a8.65 8.65 60 0 1 4.323 7.488V13.5a8.65 8.65 120 0 1-4.323 7.488" style="fill:url(#b);stroke-width:.4;stroke-linecap:round;stroke-linejoin:round" transform="translate(18.553 24.819)scale(1.19192)"/><path d="M24.442 52.663a22 22 0 0 1-3.812-1.845c5.922.455 13.65-.91 18.862-5.787 0 0 9.233-7.377 3.457-19.58-.368-.777-.568-.701-.462.152.233 1.878.416 5.16-.566 8.032 0 0-1.41 6.073-7.67 7.78-6.965 1.897-14.662-1.434-19.906-4.525-2.394-1.412-4.518-5.014-4.197-7.77.185-1.59.549-3.18 1.12-4.753 1.746-4.802 5.33-8.548 9.34-11.065-1.002 7.016-.21 13.475.93 16.18 1.53 3.628 3.887 8.06 9.073 8.602 5.185.544 8.044-4.508 8.044-4.508 2.25-3.418 2.894-8.096 3.016-9.544.02-.244-.109-.598-.31-.734h-.001c-.204-.137-.425-.04-.487.197-1.798 6.91-4.633 9.234-4.633 9.234-4.655 4.494-8.352 1.277-8.352 1.277-3.544-3.806-1.062-9.992-1.062-9.992.976-2.964 3.465-6.846 6.45-9.979 2-2.098 5.027-3.303 6.25-2.857a21.9 21.9 0 0 1 7.258 4.408c-3.351 1.223-8.762 3.81-8.762 3.81-8.577 3.612-9.156 9.075-9.156 9.075-.887 5.631 3.58 3.248 3.58 3.248 3.407-1.66 5.53-5.92 6.402-8.018.272-.656-.117-1.325-.825-1.283l-.025.002c-.707.045-1.47.78-1.8 1.408-1.943 3.686-5.04 5.228-5.04 5.228-1.473.78-1.816-.599-1.816-.599-.249-1.032 1.066-1.21 1.066-1.21 2.04-.792 3.345-2.936 3.641-3.812.294-.879.842-.947.842-.947 2.796-.893 5.346-1.292 5.346-1.292 3.472-.427 8.787 1.229 8.787 1.229 1.81.728 4.144 2.998 4.595 5.434.697 3.771.464 7.802-.92 11.612-4.162 11.454-16.814 17.362-28.257 13.192" style="fill:#fff;fill-rule:evenodd" transform="translate(-.058 -.543)"/><path d="M24.442 52.663a22 22 0 0 1-3.812-1.845c5.922.455 13.65-.91 18.862-5.787 0 0 9.233-7.377 3.457-19.58-.368-.777-.568-.701-.462.152.233 1.878.416 5.16-.566 8.032 0 0-1.41 6.073-7.67 7.78-6.965 1.897-14.662-1.434-19.906-4.525-2.394-1.412-4.518-5.014-4.197-7.77.185-1.59.549-3.18 1.12-4.753 1.746-4.802 5.33-8.548 9.34-11.065-1.002 7.016-.21 13.475.93 16.18 1.53 3.628 3.887 8.06 9.073 8.602 5.185.544 8.044-4.508 8.044-4.508 2.25-3.418 2.894-8.096 3.016-9.544.02-.244-.109-.598-.31-.734h-.001c-.204-.137-.425-.04-.487.197-1.798 6.91-4.633 9.234-4.633 9.234-4.655 4.494-8.352 1.277-8.352 1.277-3.544-3.806-1.062-9.992-1.062-9.992.976-2.964 3.465-6.846 6.45-9.979 2-2.098 5.027-3.303 6.25-2.857a21.9 21.9 0 0 1 7.258 4.408c-3.351 1.223-8.762 3.81-8.762 3.81-8.577 3.612-9.156 9.075-9.156 9.075-.887 5.631 3.58 3.248 3.58 3.248 3.407-1.66 5.53-5.92 6.402-8.018.272-.656-.117-1.325-.825-1.283l-.025.002c-.707.045-1.47.78-1.8 1.408-1.943 3.686-5.04 5.228-5.04 5.228-1.473.78-1.816-.599-1.816-.599-.249-1.032 1.066-1.21 1.066-1.21 2.04-.792 3.345-2.936 3.641-3.812.294-.879.842-.947.842-.947 2.796-.893 5.346-1.292 5.346-1.292 3.472-.427 8.787 1.229 8.787 1.229 1.81.728 4.144 2.998 4.595 5.434.697 3.771.464 7.802-.92 11.612-4.162 11.454-16.814 17.362-28.257 13.192Z" style="fill:none;fill-rule:evenodd;stroke:#0026ff;stroke-opacity:1;stroke-width:.19999992;stroke-dasharray:none;filter:url(#c)" transform="translate(-.058 -.543)"/></svg>