<svg xmlns="http://www.w3.org/2000/svg" xmlns:xlink="http://www.w3.org/1999/xlink" xml:space="preserve" width="64" height="64"><defs><radialGradient id="a" cx="-159.431" cy="15.463" r="64.707" fx="-159.431" fy="15.463" gradientTransform="matrix(-.89413 0 0 .96305 -17.342 47.766)" gradientUnits="userSpaceOnUse"><stop offset="0" style="stop-color:#006fff;stop-opacity:1"/><stop offset="1" style="stop-color:#15baff;stop-opacity:1"/></radialGradient><radialGradient xlink:href="#a" id="e" cx="63.994" cy="67.423" r="31" fx="63.994" fy="67.423" gradientTransform="matrix(0 -1.74224 1.75362 0 -59.095 170.632)" gradientUnits="userSpaceOnUse"/><radialGradient xlink:href="#b" id="c" cx="63.994" cy="67.423" r="31" fx="63.994" fy="67.423" gradientTransform="matrix(0 -1.47305 1.48267 0 -45.02 149.213)" gradientUnits="userSpaceOnUse"/><radialGradient id="b" cx="-159.431" cy="15.463" r="64.707" fx="-159.431" fy="15.463" gradientTransform="matrix(-.89413 0 0 .96305 -17.342 47.766)" gradientUnits="userSpaceOnUse"><stop offset="0" style="stop-color:#66a9ff;stop-opacity:1"/><stop offset="1" style="stop-color:#7ad8ff;stop-opacity:1"/></radialGradient><filter id="d" width="1.297" height="1.329" x="-.148" y="-.164" style="color-interpolation-filters:sRGB"><feGaussianBlur stdDeviation="2.749"/></filter><filter id="f" width="1.216" height="1.239" x="-.108" y="-.12" style="color-interpolation-filters:sRGB"><feGaussianBlur stdDeviation="2.325"/></filter></defs><path d="M22.787 52.081c-1.226 0-2.732-.88-3.345-1.955l-9.216-16.17c-.612-1.077-.612-2.836 0-3.911l9.216-16.171c.613-1.076 2.118-1.955 3.345-1.955h18.426c1.226 0 2.733.88 3.344 1.955l9.216 16.17c.613 1.077.613 2.836 0 3.911l-9.215 16.171c-.612 1.076-2.117 1.955-3.344 1.955z" style="fill:url(#c);stroke-width:.717188;filter:url(#d)"/><path d="M21.103 55.75c-1.45 0-3.231-1.04-3.956-2.311l-10.9-19.127c-.724-1.272-.724-3.353 0-4.624l10.9-19.127c.725-1.272 2.505-2.312 3.956-2.312h21.794c1.45 0 3.231 1.04 3.955 2.312l10.9 19.127c.725 1.272.725 3.353 0 4.624l-10.9 19.127c-.724 1.272-2.503 2.312-3.955 2.312z" style="fill:url(#e);stroke-width:.848247;opacity:.78750385"/><path d="m13.634 16.732-3.87 6.786H40.99L9.426 39.886l4.207 7.382h36.733l3.87-6.786H23.01l31.564-16.368-4.207-7.382Z" style="opacity:.770455;fill:#fff;stroke-width:.848247"/><g style="filter:url(#f);fill:none;stroke:#000;stroke-opacity:1;stroke-width:.2;stroke-dasharray:none" transform="translate(44.058 -21.453)"><path d="M-22.955 29.702c-1.451 0-3.23 1.04-3.955 2.313l-6.652 11.673 3.138-5.503H6.31l3.514 6.164-7.028-12.334c-.723-1.272-2.504-2.313-3.955-2.313zm-11.34 15.27-3.515 6.17c-.725 1.271-.725 3.352 0 4.625l3.177 5.574 31.565-16.37zm-.338 16.369 7.723 13.55c.724 1.272 2.505 2.313 3.955 2.313H-1.16c1.451 0 3.23-1.04 3.955-2.312l5.45-9.563-1.936 3.393h-36.733Zm45.15-15.774-31.564 16.37h31.225l3.516-6.17c.725-1.272.725-3.353 0-4.625z" style="opacity:1;fill:none;stroke:#000;stroke-width:.2;stroke-dasharray:none;stroke-opacity:1"/><path d="m-30.424 38.185-3.87 6.787h31.226L-34.633 61.34l4.21 7.38H6.308l3.87-6.785h-31.226l31.565-16.369-4.21-7.382Z" style="opacity:1;fill:none;stroke:#000;stroke-width:.2;stroke-dasharray:none;stroke-opacity:1"/></g></svg>