<svg xmlns="http://www.w3.org/2000/svg" width="64" height="64"><circle cx="32" cy="33" r="28" style="opacity:.2"/><circle cx="32" cy="32" r="28" style="fill:#3daee9"/><path d="M14.5 42.5s3.5 2 8 2 7-1.7 7-5c0-11-13.1-3.2-13-13 0-2 3-5 6-5s7 1 7 1" style="fill:none;stroke:#000;stroke-width:7;stroke-linecap:round;stroke-linejoin:round;opacity:.2"/><path d="M14.5 41.5s3.5 2 8 2 7-1.7 7-5c0-11-13.1-3.2-13-13 0-2 3-5 6-5s7 1 7 1" style="fill:none;stroke:#fff;stroke-width:7;stroke-linecap:round;stroke-linejoin:round"/><path d="M35.5 21.5v23h14" style="fill:none;stroke:#000;stroke-width:7;stroke-linecap:round;stroke-linejoin:round;opacity:.2"/><path d="M32 4A28 28 0 0 0 4 32a28 28 0 0 0 .035.5A28 28 0 0 1 32 5a28 28 0 0 1 27.982 27.252L60 32A28 28 0 0 0 32 4" style="fill:#fff;opacity:.2"/><path d="M35.5 20.5v23h14" style="fill:none;stroke:#fff;stroke-width:7;stroke-linecap:round;stroke-linejoin:round"/><path d="M22 23s-2 .924-2 3 2 3 2 3" style="fill:none;stroke:#fff;stroke-width:2"/></svg>