<svg xmlns="http://www.w3.org/2000/svg" xmlns:xlink="http://www.w3.org/1999/xlink" width="64" height="64"><defs><radialGradient xlink:href="#a" id="b" cx="25.189" cy="61.716" r="28" fx="25.189" fy="61.716" gradientTransform="rotate(-45 -75.975 170.725)scale(2.89736)" gradientUnits="userSpaceOnUse"/><linearGradient id="a"><stop offset="0" style="stop-color:#42b07b;stop-opacity:1"/><stop offset="1" style="stop-color:#00d66e;stop-opacity:1"/></linearGradient><filter id="c" width="1.196" height="1.196" x="-.098" y="-.098" style="color-interpolation-filters:sRGB"><feGaussianBlur stdDeviation="2.217"/></filter></defs><path d="M4.09 26.588V57.2c0 1.551 1.249 2.8 2.8 2.8h10.48a3.72 3.72 135 0 0 3.72-3.72V27.752A6.75 6.75 135 0 1 27.84 21h8.529a3.72 3.72 135 0 0 3.72-3.72V7.72A3.72 3.72 45 0 0 36.37 4h-9.692A22.59 22.59 135 0 0 4.09 26.588m39-18.868v48.56A3.72 3.72 45 0 0 46.81 60h10.48c1.551 0 2.8-1.249 2.8-2.8V6.8c0-1.551-1.249-2.8-2.8-2.8H46.81a3.72 3.72 135 0 0-3.72 3.72m-19 20v28.56A3.72 3.72 45 0 0 27.81 60h8.56a3.72 3.72 135 0 0 3.72-3.72V27.72A3.72 3.72 45 0 0 36.37 24h-8.56a3.72 3.72 135 0 0-3.72 3.72" style="fill:url(#b)" transform="translate(1.381 1.381)scale(.95683)"/><path d="M4.09 26.588V57.2c0 1.551 1.249 2.8 2.8 2.8h10.48a3.72 3.72 135 0 0 3.72-3.72V27.752A6.75 6.75 135 0 1 27.84 21h8.529a3.72 3.72 135 0 0 3.72-3.72V7.72A3.72 3.72 45 0 0 36.37 4h-9.692A22.59 22.59 135 0 0 4.09 26.588Zm39-18.868v48.56A3.72 3.72 45 0 0 46.81 60h10.48c1.551 0 2.8-1.249 2.8-2.8V6.8c0-1.551-1.249-2.8-2.8-2.8H46.81a3.72 3.72 135 0 0-3.72 3.72zm-19 20v28.56A3.72 3.72 45 0 0 27.81 60h8.56a3.72 3.72 135 0 0 3.72-3.72V27.72A3.72 3.72 45 0 0 36.37 24h-8.56a3.72 3.72 135 0 0-3.72 3.72z" style="fill:none;stroke:#000;stroke-width:.31353548;stroke-dasharray:none;stroke-opacity:1;filter:url(#c)" transform="translate(1.296 1.381)scale(.95683)"/></svg>