<svg xmlns="http://www.w3.org/2000/svg" width="64" height="64"><rect width="58" height="58" x="3" y="4" rx="4.35" ry="4.35" style="opacity:.2"/><rect width="58" height="58" x="3" y="3" rx="4.35" ry="4.35" style="fill:#48487b"/><path d="M44 44.993q0 5.218-2.874 8.113Q38.267 56 33.016 56q-5.315 0-8.174-2.865Q22 50.255 22 44.963q0-5.291 2.858-8.127Q27.733 34 33.048 34q5.235 0 8.094 2.88T44 44.993m-17.921 0q0 3.947 1.75 5.993 1.75 2.032 5.187 2.032 3.42 0 5.155-2.017 1.75-2.018 1.75-6.008 0-3.933-1.734-5.964-1.718-2.032-5.139-2.032-3.452 0-5.219 2.032-1.75 2.031-1.75 5.964M11 10v22h3.89V21.77q.002-1.11-.054-2.528-.06-1.417-.117-2.648l-.086-1.848h.117L19.707 32h4.008l5.305-17.223h.117l-.086 1.848q-.03 1.202-.086 2.559-.03 1.355-.031 2.402V32H33V10h-5.941l-5.16 16.824h-.087L16.943 10Zm34.602 0q-3.855 0-6.09 1.617-2.238 1.59-2.239 4.469 0 1.467.586 2.516.585 1.05 1.48 1.8.929.718 1.927 1.227.999.48 1.859.84 1.376.569 2.441 1.078 1.068.48 1.688 1.05.653.57.652 1.38.001.988-.824 1.648-.792.63-2.719.629-1.857 0-3.75-.54A62 62 0 0 1 37 26.485v4.227Q40.062 32 43.95 32q4.335 0 6.675-1.68Q53 28.612 53 25.766q0-1.678-.723-2.817-.721-1.14-2.062-1.98-1.31-.84-3.203-1.617-2.304-.959-3.473-1.618-1.171-.66-1.172-1.8.001-.96.793-1.559.79-.599 2.27-.598 1.41 0 2.754.328 1.341.33 3.027.93l1.687-3.535a28.5 28.5 0 0 0-3.648-1.11 16.5 16.5 0 0 0-3.648-.39" style="opacity:.2"/><path d="m19.708 31-4.96-17.255h-.115l.087 1.849q.057 1.232.115 2.65t.058 2.526V31H11V9h5.94l4.873 16.824h.086L27.06 9H33v22h-4.066V20.585q0-1.047.03-2.403.057-1.356.086-2.557l.086-1.85h-.115L23.716 31ZM53 24.766q0 2.847-2.374 4.556Q48.286 31 43.95 31q-3.888 0-6.95-1.289v-4.226q1.755.66 3.613 1.229 1.892.54 3.75.54 1.927 0 2.719-.63.826-.66.826-1.649 0-.809-.654-1.378-.62-.57-1.686-1.05-1.067-.509-2.443-1.078-.86-.36-1.858-.84-.998-.51-1.927-1.228-.895-.75-1.48-1.799t-.585-2.518q0-2.877 2.237-4.465Q41.748 9 45.602 9q1.927 0 3.647.39t3.648 1.109l-1.686 3.536q-1.686-.599-3.028-.929t-2.753-.33q-1.48 0-2.27.6-.792.6-.792 1.559 0 1.139 1.17 1.798 1.17.66 3.475 1.618 1.892.78 3.2 1.619 1.342.84 2.064 1.978.723 1.14.723 2.818" style="fill:#fff"/><path d="M44 43.993q0 5.218-2.874 8.113Q38.267 55 33.016 55q-5.315 0-8.174-2.865Q22 49.255 22 43.963q0-5.291 2.858-8.127Q27.733 33 33.048 33q5.235 0 8.094 2.88T44 43.993m-17.921 0q0 3.947 1.75 5.993 1.75 2.032 5.187 2.032 3.42 0 5.155-2.017 1.75-2.018 1.75-6.008 0-3.933-1.734-5.964-1.718-2.032-5.139-2.032-3.452 0-5.219 2.032-1.75 2.031-1.75 5.964" style="fill:#bd66ff"/><path d="M32 44.79q0 5.447-3.381 8.336Q25.238 56 18.879 56H12V34h7.603q5.87 0 9.134 2.829Q32 39.658 32 44.789m-4.239.12q0-7.9-8.259-7.9H16.02v15.965h2.86q8.881 0 8.881-8.065" style="opacity:.2"/><path d="M32 43.79q0 5.447-3.381 8.336Q25.238 55 18.879 55H12V33h7.603q5.87 0 9.134 2.829Q32 38.658 32 43.789m-4.239.12q0-7.9-8.259-7.9H16.02v15.965h2.86q8.881 0 8.881-8.065" style="fill:#e73d3d"/><path d="M54 49.896q0 2.854-3.013 4.48Q47.975 56 42.675 56T34 54.873v-3.308a31.5 31.5 0 0 0 4.53 1.083q2.414.396 4.487.395 3.034 0 4.466-.79 1.453-.79 1.453-2.123 0-1.2-1.325-2.034t-5.47-1.976q-4.274-1.185-6.026-2.708t-1.752-3.66q0-2.678 2.778-4.215T44.598 34q4.488 0 8.932 1.347L51.906 38.2Q47.74 37 44.47 37c-1.652 0-3.506.249-4.36.746q-1.283.732-1.283 1.947 0 .834.513 1.434c.342.39 1.305.762 2.089 1.113.783.351 2.393.815 4.43 1.39q3.44.981 5.043 1.83 1.602.849 2.35 1.918T54 49.896" style="opacity:.2"/><path d="M54 48.896q0 2.854-3.013 4.48Q47.975 55 42.675 55T34 53.873v-3.308a31.5 31.5 0 0 0 4.53 1.083q2.414.396 4.487.395 3.034 0 4.466-.79 1.453-.79 1.453-2.123 0-1.2-1.325-2.034t-5.47-1.976q-4.274-1.185-6.026-2.708t-1.752-3.66q0-2.678 2.778-4.215T44.598 33q4.488 0 8.932 1.347L51.906 37.2Q47.74 36 44.47 36c-1.652 0-3.506.249-4.36.746q-1.283.732-1.283 1.947 0 .834.513 1.434c.342.39 1.305.762 2.089 1.113.783.351 2.393.815 4.43 1.39q3.44.981 5.043 1.83 1.602.849 2.35 1.918T54 48.896" style="fill:#ffeb3b"/><path d="M7.352 3A4.343 4.343 0 0 0 3 7.352v1A4.343 4.343 0 0 1 7.352 4h49.296A4.343 4.343 0 0 1 61 8.352v-1A4.343 4.343 0 0 0 56.648 3z" style="opacity:.1;fill:#fff"/><path d="M37.121 34.549c-1.235.688-2.046 1.55-2.451 2.578 1.489.256 3.814 1.99 4.67 3.002q-.513-.601-.512-1.436 0-1.214 1.281-1.945c.164-.095.374-.179.602-.256q-1.503-1.326-3.59-1.943m-9.506.455c-1.051.456-1.976 1.061-2.758 1.832-.099.099-.185.21-.279.312 1.16.679 1.998 1.666 2.524 2.952q.315-.589.728-1.07c.629-.724 1.422-1.248 2.371-1.585a9 9 0 0 0-1.465-1.617 10 10 0 0 0-1.12-.824" style="opacity:.2"/><path d="M33.047 33q-5.314 0-8.188 2.836-2.858 2.836-2.859 8.129c0 .723.065 1.387.145 2.043l3.964-1.488c-.005-.181-.03-.34-.03-.528q-.001-3.932 1.75-5.965 1.765-2.03 5.218-2.03 3.421 0 5.14 2.03c.386.452.685 1.001.942 1.594l3.68-1.383a9 9 0 0 0-1.668-2.36Q38.282 33 33.047 33" style="fill:#bd66ff"/></svg>