<svg xmlns="http://www.w3.org/2000/svg" xmlns:xlink="http://www.w3.org/1999/xlink" width="64" height="64"><defs><radialGradient xlink:href="#a" id="i" cx="31.895" cy="13.823" r="24.042" fx="31.895" fy="13.823" gradientTransform="rotate(120 47.509 11.853)scale(1.84345 1.68696)" gradientUnits="userSpaceOnUse"/><radialGradient xlink:href="#b" id="h" cx="31.889" cy="18.927" r="6" fx="31.889" fy="18.927" gradientTransform="matrix(3.0242 0 0 2.4442 -64.651 -32.619)" gradientUnits="userSpaceOnUse"/><radialGradient xlink:href="#d" id="e" cx="32" cy=".83" r="28" fx="32" fy=".83" gradientTransform="rotate(150 58.864 -5.626)scale(2.6674)" gradientUnits="userSpaceOnUse"/><linearGradient id="d"><stop offset="0" style="stop-color:#a5a5a5;stop-opacity:1"/><stop offset="1" style="stop-color:#5c5c5c;stop-opacity:1"/></linearGradient><linearGradient id="a"><stop offset="0" style="stop-color:#ffc104;stop-opacity:1"/><stop offset="1" style="stop-color:#ff890d;stop-opacity:1"/></linearGradient><linearGradient id="b"><stop offset="0" style="stop-color:#ffc104;stop-opacity:1"/><stop offset="1" style="stop-color:#ff8d00;stop-opacity:1"/></linearGradient></defs><path d="M17 44h30l3 7.068L53 51c2.564-.058 5 2.625 5 4-3.03 1.375-9 2-9 2l-9 1-7.5-5.5L25 58l-10-1s-6.42-.625-9-2c0-1.375 2.435-4 5-4h3Z" style="fill:#f77d00"/><path d="M36.75 60H51c0-5.286-5.558-7.533-9.5-7.928-3.526-.354-9.5 3.147-9.5 3.147s-7.699-4.101-11.875-3.147C16.835 52.823 13 54.714 13 60h14.25c3.023 0 4.75-3.187 4.75-3.187S33.727 60 36.75 60" style="fill:#eab108"/><path d="M18 30h28s2.932-6.736 10-14c1.395-1.433-.317-3.66-5-1-4.406 2.502-18 12-18 12h-2s-12.488-9.694-17-12c-5.632-2.878-7.395-.433-6 1 7.068 7.264 10 14 10 14" style="fill:#4f4f4f"/><path d="M32 4c-5.37 0-10 5-10 11 0 4-.56 6.679-1.375 9H12c-3 0-8 2-8 3 5.104.681 9.077 1.943 13.437 3.309C15.646 33.246 14 35.969 14 40.4 14 51.225 22.059 60 32 60s18-8.775 18-19.6c0-4.512-1.705-7.253-3.535-10.254C50.404 28.844 55.751 27.654 60 27c0-1-5-3-8-3h-8.625C42.56 21.679 42 19 42 15c0-6-4.63-11-10-11" style="fill:url(#e)"/><path d="M32 20c-3.58 0-6 3.233-6 7 0 8.501-6 9-6 15 0 6.572 5.373 12 12 12s12-5.428 12-12c0-6-6-6.499-6-15 0-3.767-2.42-7-6-7m-3.957-9.594a4 4 0 0 0-1.035.137 4 4 0 0 0-2.828 4.898 4 4 0 0 0 .484 1.104 5.205 6.555 75 0 0 5.932.871 5.205 6.555 75 0 0 .123-.033A4 4 0 0 0 32 15a4 4 0 0 0 1.281 2.383 6.555 5.205 15 0 0 .123.033 6.555 5.205 15 0 0 5.932-.873 4 4 0 0 0 .484-1.102 4 4 0 0 0-2.828-4.898 4 4 0 0 0-4.9 2.828 4 4 0 0 0-.092.441 4 4 0 0 0-.092-.439 4 4 0 0 0-3.865-2.967" style="fill:#fff"/><path d="M28.676 12.37a2 2 0 0 0-2 2 2 2 0 0 0 2 2 2 2 0 0 0 2-2 2 2 0 0 0-2-2m6.648 0a2 2 0 0 0-2 2 2 2 0 0 0 2 2 2 2 0 0 0 2-2 2 2 0 0 0-2-2" style="fill:#323232"/><path d="M38 19.22c0 3.866-2.686 6.8-6 6.8s-6-2.934-6-6.8z" style="fill:url(#h)"/><path d="M32 16.02c-3.314 0-6 1.493-6 3.334 0 .667 2.686 4.666 6 4.666s6-4 6-4.666c0-1.84-2.686-3.334-6-3.334" style="fill:url(#i)"/></svg>