<svg xmlns="http://www.w3.org/2000/svg" width="64" height="64"><rect width="56" height="56" x="4" y="5" opacity=".2" ry="8"/><rect width="56" height="56" x="4" y="4" ry="8" style="fill:#4f4f4f"/><path d="M33.955 12.826c-7.908 18.48 9.936 24.27 22.01.459-9.056 7.684-22.26 16.16-22.01-.459m.299 17.17.004.004C28.68 30.017 20.174 35.956 8 52.56c25.93-19.24 31.037-15.14 34.322.016 1.913-10.38-.05-22.6-8.068-22.58" style="opacity:.2"/><path fill="#fff" d="M12 4c-4.432 0-8 3.568-8 8v1c0-4.432 3.568-8 8-8h40c4.432 0 8 3.568 8 8v-1c0-4.432-3.568-8-8-8z" style="opacity:.1"/><path fill="silver" d="M34.259 29C28.68 29.017 20.174 34.956 8 51.56c25.93-19.24 31.037-15.14 34.321.016 1.913-10.38-.048-22.6-8.066-22.58z"/><path fill="silver" d="M33.955 11.826c-7.908 18.48 9.936 24.27 22.01.459-9.056 7.684-22.26 16.16-22.01-.46"/></svg>