<svg xmlns="http://www.w3.org/2000/svg" width="64" height="64"><circle cx="32" cy="33" r="28" style="opacity:.2"/><ellipse cx="31.949" cy="32" rx="27.349" ry="27.3" style="fill:#2d4a5e"/><path d="M38.518 29.088c0 15.464 7.054 3.272-8.438 3.272S5.76 47 5.76 31.536c0-.99-1.81-1.503-1.71-2.466C5.312 16.954 14.315 7.134 26.035 4.623c1.907-.408 3.885.863 5.914.863 15.492 0 6.569 8.138 6.569 23.602" style="fill:#bcdced"/><path d="M31.95 4c-1.69.012-3.376.177-5.036.492l8.147 14.112 13.585-9.029A28.1 28.1 0 0 0 31.949 4" style="fill:#65a3cf"/><path d="m37.368 44.715-5.624 15.274-.167-.008v.003a28.05 28 0 0 0 .372.016 28.05 28 0 0 0 20.233-8.654Z" style="fill:#6d8da4"/><path d="m27.364 50.886-5.942 7.044a28.05 28 0 0 0 8.706 1.988v-.008l-.217-.011z" style="fill:#426f8e"/><path d="M52.182 51.346h.003a28.05 28 0 0 0 .523-.56 28.05 28 0 0 1-.526.56M19.869 57.23a28.05 28 0 0 0 1.504.68 28.05 28 0 0 1-1.504-.68" style="opacity:.7;fill:red"/><path d="M48.667 9.559 4.757 38.754a28.05 28 0 0 0 .478 1.684l52.727 1.988A28.05 28 0 0 0 60 32 28.05 28 0 0 0 48.667 9.559" style="opacity:.7;fill:#1b5e99"/><path d="M17.19 8.21q-.774.49-1.515 1.03l6.678 23.766 2.022-19.053Z" style="fill:#81bde3"/><path fill="none" d="m48.558 9.477-13.478 9.16 7.26 12.573 7.612-20.678a28 28 0 0 0-1.394-1.055" style="fill:#316f9f;fill-opacity:0"/><path d="M26.9 4.47a28.05 28 0 0 0-1.558.35l-.967 9.133 8.084 6.464 2.621-1.78z" style="fill:#4f96cb"/><path d="m42.34 31.21-4.972 13.505 14.817 6.63a28.05 28 0 0 0 1.098-1.178z" style="fill:#5687a5"/><path d="M22.353 33.006 19.79 57.195a28.05 28 0 0 0 1.63.738l5.956-7.06z" style="opacity:.7;fill:#3885c0"/><path d="m55.784 17.27-9.026 1.933v.003L40.126 37.22 56.65 18.78a28 28 0 0 0-.866-1.51" style="fill:#224c6d"/><path d="m21.775 37.655-2.213 19.427q.966.484 1.967.892l5.958-6.65-3.605-12.759z" style="fill:#29628f"/><path d="m24.375 13.953-1.09 10.281 4.884-1.047 4.235-2.814z" style="fill:#438ec5"/><path d="m35.08 18.637-2.621 1.78-.055-.044-4.235 2.814 8.49-1.818z" style="fill:#2f6c9f"/><path d="m36.658 21.369 10.237-2.193 3.145-8.545a28 28 0 0 0-1.394-1.056l-13.5 9.174Z" style="fill:#316e9e"/><path d="m49.917 10.576-3.178 8.633 9.004-1.93a28 28 0 0 0-5.826-6.703" style="fill:#4c7da1"/><path d="M56.625 18.746s.02.04 0 0" style="opacity:.7;fill:#f0f"/><path d="M4.104 30.01a28 28 0 0 0-.101 2.036c.012 2.243.295 4.475.84 6.65l7.624-5.069-7.993-3.459Z" style="fill:#4c7798"/><path d="m48.61 42.073 4.673 8.094a28.05 28 0 0 0 4.679-7.74z" style="fill:#71848e"/><path d="m56.642 18.782-16.543 18.46-1.638 4.449 19.5.735A28 28 0 0 0 60 32a27.96 27.96 0 0 0-3.358-13.218" style="fill:#35576f"/><path d="m12.495 33.608-7.739 5.146q.213.85.48 1.684l16.148.61.394-3.456z" style="fill:#285477"/><path d="m43.58 33.359-3.448 3.845-1.652 4.487 10.13.382z" style="fill:#265679"/><path d="M4.931 39.372c-.012.008-.02.016-.033.024a28 28 0 0 0 14.664 17.678l1.833-16.07h-.006l-.005.044-16.148-.61c-.113-.352-.206-.71-.305-1.066m14.754 17.765.104.055v-.006z" style="fill:#4f82a6"/><path d="m21.775 37.655-.38 3.333 3.205.12-.718-2.543z" style="fill:#20476a"/><path d="m42.34 31.21-2.214 6.01 3.454-3.856z" style="fill:#1d4568"/><path d="m43.153 29-3.027 8.22 5.553-6.196z" style="fill:#204a6c"/><path d="M45.673 31.021 43.58 33.36l5.03 8.714 2.421.09 6.884.26q.137-.31.266-.623c.075-.198.138-.4.208-.599z" style="fill:#2c5774"/><path d="m32.39 20.382-4.22 2.805 6.091-1.304z" style="fill:#2e639c"/><path d="m42.34 31.21-2.214 6.007 3.457-3.855z" style="fill:#1d4568"/><path d="M46.758 19.203 4.37 28.29l-.2.044q-.11.813-.17 1.63l19.882 8.602 6.03 21.334 1.832.09z" style="fill:#343f4b"/><path d="m27.14 36.779-13.09-6.281 27.123-5.557-9.867 26.11Z" style="opacity:.2"/><path d="m27.14 35.78-13.09-6.283 27.123-5.557-9.867 26.11Z" style="fill:#fff"/><path d="M32 4A28 28 0 0 0 4 32a28 28 0 0 0 .018.492A28 28 0 0 1 32 5a28 28 0 0 1 27.975 27.492A28 28 0 0 0 60 32 28 28 0 0 0 32 4" style="opacity:.2;fill:#fff"/></svg>