<svg xmlns="http://www.w3.org/2000/svg" xmlns:xlink="http://www.w3.org/1999/xlink" width="64" height="64"><defs><radialGradient id="d" cx="-159.431" cy="15.463" r="64.707" fx="-159.431" fy="15.463" gradientTransform="matrix(-.89413 0 0 .96305 -80.728 49.278)" gradientUnits="userSpaceOnUse"><stop offset="0" style="stop-color:#ffc500;stop-opacity:1"/><stop offset="1" style="stop-color:#ff994a;stop-opacity:1"/></radialGradient><radialGradient xlink:href="#a" id="f" cx="29.918" cy="39.954" r="13.137" fx="29.918" fy="39.954" gradientTransform="rotate(135 95.005 70.948)scale(3.8165 3.56212)" gradientUnits="userSpaceOnUse"/><radialGradient id="b" cx="-159.431" cy="15.463" r="64.707" fx="-159.431" fy="15.463" gradientTransform="matrix(-.77286 0 0 .83243 -65.439 46.935)" gradientUnits="userSpaceOnUse"><stop offset="0" style="stop-color:#ffc500;stop-opacity:1"/><stop offset="1" style="stop-color:#ff8c33;stop-opacity:1"/></radialGradient><filter id="e" width="1.142" height="1.142" x="-.071" y="-.071" style="color-interpolation-filters:sRGB"><feGaussianBlur stdDeviation="1.615"/></filter><filter id="c" width="1.312" height="1.312" x="-.156" y="-.156" style="color-interpolation-filters:sRGB"><feGaussianBlur stdDeviation="3.146"/></filter><linearGradient id="a"><stop offset="0" style="stop-color:#fff;stop-opacity:1"/><stop offset="1" style="stop-color:#ffd9c3;stop-opacity:1"/></linearGradient></defs><path d="M22.32 7.798h19.36a14.5 14.5 0 0 1 14.522 14.521v19.362a14.5 14.5 0 0 1-14.521 14.521H22.319A14.5 14.5 0 0 1 7.798 41.681V22.319A14.5 14.5 0 0 1 22.319 7.798" class="st1" style="fill:url(#b);stroke-width:.864369;filter:url(#c)"/><path d="M20.8 4h22.4C52.5 4 60 11.5 60 20.8v22.4C60 52.5 52.5 60 43.2 60H20.8C11.5 60 4 52.5 4 43.2V20.8C4 11.5 11.5 4 20.8 4" class="st1" style="fill:url(#d);opacity:.8245555"/><path d="M20.8 4h22.4C52.5 4 60 11.5 60 20.8v22.4C60 52.5 52.5 60 43.2 60H20.8C11.5 60 4 52.5 4 43.2V20.8C4 11.5 11.5 4 20.8 4" class="st1" style="fill:none;stroke:#000;stroke-opacity:1;stroke-width:.2;stroke-dasharray:none;filter:url(#e)"/><path d="M33.225 10.56a1 1 0 0 0-.13.002.7.7 0 0 0-.308.088c1.706 1.21 2.844 2.63 3.342 4.764.196.915.452 1.65-.281 2.205.567.143 1.064.57 1.56.924.355.285.784.498 1.139.498.355.071.64 0 .924-.213.498-.426.568-1.28 1.138-1.492q.2-.08.38-.082c1.154-.024 1.662 2.133 1.468 2.713a1.23 1.23 0 0 1-.853.71c-.355.143-.71.071-1.067-.072-.354-.212-.569-.64-.924-.783-.497-.212-1.21-.567-1.564-.14-.138.183-.158 1.163-.154 1.97l.011.092-.01.186c.004.327.01.599.01.738l-.021-.111c0 1.006.077 2 .021 2.955 0 .498-.353 1.635-.353 2.133.072.78-.002 1.067.14 1.921.07.64.71 1.208.569 1.848-.428 2.845-1.635 5.475-1.705 8.32-.071 2.774.425 6.539 2.771 8.389.285.213.854-.14.924-.496.356-1.636-.14-3.414.072-5.049a19 19 0 0 1 .781-3.344c.284-.854.996-2.842 1.565-3.482.143-.285.498-.07.355.143-.07 0-1.279 2.63-1.777 4.623-.569 2.132-1.065 5.26.285 7.18.426.711 1.35 1.422 1.99 2.49.356.64.568 3.483.428 4.193-.285 1.99-2.7 5.191-5.049 5.404h-2.56c.356-1.208.568-2.062.142-3.342-.286-.995-1.137-2.177-1.492-3.172-.476-1.615.414-5.305-2.133-5.273l-.002-.002c-.07 0-.142.001-.212.072v.002c-.71.14-1.922.71-2.704 1.067-.142.07-.142.283 0 .283.214.072.357.142.498.285.158.188.33.363.471.549.385-.026 1.046-.003 1.236-.193v-.143c-.072-.072-.283-.213-.283-.213-.286-.285-.144-.855.283-.926.177-.054.36-.08.538-.08.53 0 1.01.243 1.17.723.213.569-.144 1.279-.643 1.705-.425.428-1.136.072-1.42.143-.142.072-.141.142-.07.212.284.142.78.141 1.207.141.284 0 .57-.141.785-.07.143.07.213.356.213.498 0 .355-.213.712-.213.996.07.213.284.212.426.355.64.996.566 2.403.709 3.327.142 1.138 1.28 1.422 1.21 1.707 0 .07-.07.142-.212.07-.355-.354-.997-.353-1.494-.283-.285 0-.427.425-.784.496-.14.07-.428 0-.5-.213-.21-.284.143-.783-.07-1.067-.108-.164-.676-.276-.94-.511-.135.799-.931.826-1.406 1.435a1.2 1.2 0 0 0-.213.711c0 .285-.07.783.213.783.355.072.429-.64.784-.64.495.07.428.776.847.783H43.2c2.301 0 4.492-.46 6.487-1.291-1.065-.737-2.432-1.62-2.748-2.62-.712-2.063.213-4.694.498-6.97.995-6.612.638-10.24-.57-15.715-.64-3.129-1.137-5.9-2.061-8.959-.143-.568-.925-1.35-1.211-1.847-.213-.356-.425-.997-.496-1.424-.498-2.346-.285-4.621-1.99-6.613-.642-.71-1.851-.782-2.633-1.28-1.493-.782-2.987-1.564-4.48-2.488a1.7 1.7 0 0 0-.77-.232m.42.448c1.493.64 2.912 2.062 4.119 3.767.214.426-.285.854-.641.356-.781-1.207-2.27-3.48-3.478-4.123M32.36 21.963c-.48 1.049-1.457 3.178-2.562 5.223-1.706-.925-3.413-.997-4.621-.997-1.28 0-2.974.142-4.041.924-2.274 1.707-3.272 3.912-3.983 6.4a27.8 27.8 0 0 0-1.066 5.903c-.143 2.702.144 5.509.428 8.211.214 1.778.425 3.484.568 5.262.355 1.92.284 3.412.213 3.767-.409 1.273-.963 2.022-1.81 2.49 1.312.436 2.698.714 4.134.813.284-.234.548-.667.72-.955.64-1.35-.995-5.618-1.35-7.182-.285-1.35-.923-2.631-1.137-3.982-.071-.924-.215-3.588-.073-4.299 0-.214.142-.285.285 0 .143 1.209-.212 3.73.428 5.08.143.356.782.144.994-.14.57-.712.856-1.966 1.139-2.819.427-1.493.782-1.765.994-3.756.214-1.92-.212-2.56 0-4.48.143-.782-.07-1.636.358-2.916.497-1.493.924-2.488 1.99-3.412.853-.854 2.205-1.068 3.414-1.211h.002q.187-.027.408-.022c1.027.023 2.496.537 2.932 1.22.355.64.853.925.71 0 0-.213.214-.64.356-.782.64-.427 1.278-.214 1.777.213.854.71 1.21 1.637.856 2.703-.143.498-.786.71-1.069.638-.925-.212-.851-.64-1.421-.71-1.067-.072-.992 1.928-.707 2.78l-.125-.177c.283.749.758 1.87 1.044 2.387.284.64.782 1.777 1.137 2.843.285.783.213 1.921 0 2.348-.214.356.145.567.428.283.356-.569.355-.994.568-1.634s.354-1.638.569-2.206c.355-.997 1.068-1.92 1.28-2.986.215-.996.07-1.991-.286-2.986-.212-.356-.994-2.632-1.42-3.272-.996-1.067-1.778-1.208-3.414-2.488-.283-.214-.851-.64-1.207-.853 1.106-2.045 2.081-4.175 2.56-5.223m1.055 15.566c.146-.003.303.093.365.31.426 1.99.355 3.485-.283 4.977.427-1.35-.07-3.34-.355-4.834-.08-.28.086-.448.273-.453m-3.973 5.3c-.604 2.788-1.634 5.378-2.453 8.07.82-2.692 1.85-5.282 2.453-8.07m2.35 4.24c.3.444.635.69 1.053.92-.438-.304-.772-.544-1.053-.92m-5.158 5.062a27 27 0 0 0-.676 3.176h.002c.158-1.09.394-2.144.674-3.176m4.978 2.568c.246.759.461 1.519.461 2.102q0 .015-.002.03l.004-.032c0-.582-.216-1.342-.463-2.1m-5.363 3.766q0 .038-.002.076.003-.037.002-.076m-.016.185q-.004.043-.011.084.007-.041.011-.084m-.144.409q-.126.143-.258.275.06-.055.129-.115a1 1 0 0 0 .129-.16m-.334.343c-.074.066-.14.123-.201.18a3 3 0 0 1-.506.361c.247-.086.419-.272.707-.54" class="st1" style="fill:#282828;fill-opacity:1"/><path d="M35.283 17.988c-.633.433-1.945 1.69-2.64 3.367-.212.426-1.42 3.2-2.842 5.83.356.214.924.64 1.207.854 1.636 1.28 2.418 1.421 3.414 2.488.426.64 1.208 2.916 1.42 3.272.356.995.5 1.99.287 2.986-.213 1.066-.926 1.99-1.281 2.986-.215.568-.356 1.566-.569 2.206s-.212 1.065-.568 1.634c-.283.284-.642.073-.428-.283.213-.427.285-1.565 0-2.348-.355-1.066-.853-2.203-1.137-2.843-.355-.64-.995-2.204-1.209-2.844-.71-1.848-.283-5.406-3.554-5.406-1.21.143-2.561.357-3.414 1.21-1.066.925-1.493 1.92-1.99 3.413-.428 1.28-.215 2.134-.358 2.916-.212 1.92.214 2.56 0 4.48-.212 1.991-.567 2.263-.994 3.756-.283.853-.57 2.107-1.139 2.818-.212.285-.85.497-.994.141-.64-1.35-.285-3.871-.428-5.08-.143-.285-.285-.214-.285 0-.142.711.002 3.375.073 4.299.214 1.35.852 2.631 1.136 3.982.356 1.564 1.99 5.832 1.352 7.182-.183.306-.47.775-.774.996h5.112c.142 0 .257-.018.36-.053l.009-.004c.168-.09.337-.215.506-.361.08-.074.166-.144.267-.238q.136-.136.268-.285c.52-.8-.396-2.09-.131-3.752.641-4.41 2.56-8.212 3.484-12.479.142-.498.215-1.137.286-1.848.355 1.708.852 2.763 1.35 4.399.436 1.66.904 2.012 1.78 2.619 2.547-.032 1.657 3.658 2.133 5.273.355.995 1.206 2.177 1.492 3.172.426 1.28.214 2.134-.142 3.342h2.56c2.348-.213 4.764-3.413 5.05-5.404.14-.71-.073-3.553-.429-4.193-.64-1.068-1.564-1.779-1.99-2.49-1.35-1.92-.854-5.048-.285-7.18.498-1.992 1.707-4.623 1.777-4.623.143-.213-.212-.428-.355-.143-.57.64-1.28 2.628-1.565 3.482a19 19 0 0 0-.78 3.344c-.214 1.635.283 3.413-.073 5.049-.07.356-.639.709-.924.496-2.346-1.85-2.842-5.615-2.771-8.389.07-2.845 1.277-5.475 1.705-8.32.14-.64-.499-1.208-.569-1.848-.142-.854-.068-1.14-.14-1.921 0-.498.353-1.635.353-2.133.071-1.21-.072-2.488 0-3.768-.275-2.34-.727-2.645-2.623-3.756m-2.6 30.711c-.176 0-.36.026-.537.08-.427.071-.569.641-.283.926 0 0 .211.141.283.213v.143c-.192.192-.86.166-1.244.193.18.234.319.485.319.803 0 .64-.355.85-.284 1.42.213 1.139 1.14 3.113 1.14 4.322-.005.045-.02.08-.026.12.26.24.838.354.947.52.213.284-.14.783.07 1.067.072.214.36.284.5.213.357-.071.499-.496.784-.496.497-.07 1.139-.071 1.494.283.142.072.213 0 .213-.07.07-.285-1.07-.57-1.211-1.707-.143-.924-.07-2.33-.71-3.327-.141-.143-.354-.142-.425-.355 0-.284.213-.641.213-.996 0-.142-.07-.427-.213-.498-.214-.071-.501.07-.785.07-.427 0-.923.001-1.207-.14-.071-.07-.072-.141.07-.213.284-.071.995.285 1.42-.143.499-.426.856-1.136.643-1.705-.16-.48-.64-.723-1.17-.723m.104.873c.213 0 .497.286.426.358-.143.14-.213-.073-.498-.073-.213 0-.426.071-.426-.072 0-.142.213-.213.498-.213" style="fill:url(#f)"/><path d="M33.645 11.008c1.208.643 2.697 2.916 3.478 4.123.356.498.855.07.64-.356-1.206-1.705-2.625-3.126-4.118-3.767m7.343 6.246q-.179.003-.379.082c-.57.213-.64 1.066-1.138 1.492a1.08 1.08 0 0 1-.924.213c-.355 0-.784-.213-1.139-.498-.497-.354-.995-.782-1.564-.924-.083.04-.31.203-.555.373 1.866 1.094 2.33 1.407 2.606 3.66-.004-.807.016-1.787.154-1.97.355-.427 1.067-.072 1.564.14.355.143.57.571.924.783.356.143.712.215 1.067.073.355-.072.712-.356.853-.711.194-.58-.314-2.737-1.469-2.713m-5.88.863c-.117.08-.232.154-.33.213l.058.012q.146-.128.271-.225m2.788 3.813q-.011.313-.011.627l.021.111c0-.14-.006-.411-.01-.738m-10.103 7.935a2.5 2.5 0 0 0-.408.022c3.269.001 2.843 3.558 3.552 5.406.041.123.097.28.165.457.055.076.1.14.125.178-.285-.853-.36-2.853.707-2.782.57.071.496.5 1.421.711.283.072.926-.14 1.069-.638.354-1.066-.002-1.992-.856-2.703-.499-.427-1.137-.64-1.777-.213-.142.142-.355.569-.355.783.142.924-.356.64-.711 0-.436-.684-1.905-1.198-2.932-1.22m5.623 7.664c-.187.005-.353.173-.273.453.286 1.494.782 3.484.355 4.834.638-1.492.71-2.987.283-4.976-.062-.218-.22-.314-.365-.31" style="fill:#ff0005;fill-opacity:1;opacity:.32002386"/><path d="M32.787 49.572c-.285 0-.498.071-.498.213s.213.072.426.072c.285 0 .355.214.498.073.07-.072-.213-.358-.426-.358" style="fill:#231f20"/></svg>