<svg xmlns="http://www.w3.org/2000/svg" width="64" height="64"><circle cx="32" cy="33" r="28" style="opacity:.2"/><circle cx="32" cy="32" r="28" style="fill:#5df"/><path d="m25 12-8 3.5 4 8.5v-5h4l7 14h7v24l3.5-17L46 50V33l7 7-4-7-10-17h-7z" style="opacity:.1"/><path d="M32 4A28 28 0 0 0 4 32a28 28 0 0 0 .021.586A28 28 0 0 1 32 5a28 28 0 0 1 27.979 27.414L60 32A28 28 0 0 0 32 4" style="fill:#fff;opacity:.2"/><path d="m25 11-8 3.5 4 8.5v-5h4l7 14h7v24l3.5-17L46 49V32l7 7-4-7-10-17h-7z" style="fill:#3f3f3f"/></svg>