<svg xmlns="http://www.w3.org/2000/svg" width="64" height="64"><path d="M5 41s1.264 2.263 3 5c0 0-1 1-1 5 0 2 1 5 1 5l3.205-5.443C12.35 51.645 13.619 52.54 15 53c5.109 1.703 15.966.892 19 0 13.969-4.108 13-10 13-10Z" style="opacity:.2"/><path d="M5 40s1.264 2.263 3 5c0 0-1 1-1 5 0 2 1 5 1 5l3.205-5.443C12.35 50.645 13.619 51.54 15 52c5.109 1.703 15.966.892 19 0 13.969-4.108 13-10 13-10Z" style="fill:#90acd5"/><path d="M29 10C4 10 4 40 4 45c0 0 12 2 21 2 4.715 0 10.284-.676 14.627-1.246C43.08 50.68 46 56 46 56s1.036-5.756.1-10.834C49.204 51.012 59 52 59 52s-7-6.654-7-11c0-4 8-4 8-4s-2-4-5-4c-4 0-6 4-6 4 0-7 2-27-20-27" style="opacity:.2"/><path d="M29 9C4 9 4 39 4 44c0 0 12 2 21 2 4.715 0 10.284-.676 14.627-1.246C43.08 49.68 46 55 46 55s1.036-5.756.1-10.834C49.204 50.012 59 51 59 51s-7-6.654-7-11c0-4 8-4 8-4s-2-4-5-4c-4 0-6 4-6 4 0-7 2-27-20-27" style="fill:#bfcfe7"/><circle cx="26" cy="38" r="5" style="opacity:.2"/><circle cx="26" cy="37" r="5" style="fill:#fff"/><circle cx="26" cy="37" r="2" style="fill:#4f4f4f"/><circle cx="12" cy="38" r="5" style="opacity:.2"/><circle cx="12" cy="37" r="5" style="fill:#fff"/><circle cx="12" cy="37" r="2" style="fill:#4f4f4f"/><path d="M29 9C4 9 4 39 4 44l.016.002C4.059 37.277 5.06 10 29 10c18.628 0 20.043 14.316 20.041 22.961C49.134 24.475 48.364 9 29 9m26 23c-3.963 0-5.949 3.903-5.986 3.977-.005.322-.014.74-.014 1.023 0 0 2-4 6-4 2.048 0 3.61 1.846 4.408 3.029C59.606 36.023 60 36 60 36s-2-4-5-4m-2.945 8.578c-.022.139-.055.272-.055.422 0 3.227 3.852 7.715 5.84 9.818.558.091 1.16.182 1.16.182s-6.394-6.089-6.945-10.422M46.1 45.166c.288 1.564.376 3.177.379 4.682a30 30 0 0 0-.202-4.401c-.056-.096-.125-.182-.177-.281" style="opacity:.2;fill:#fff"/></svg>