<svg xmlns="http://www.w3.org/2000/svg" xmlns:xlink="http://www.w3.org/1999/xlink" width="64" height="64"><defs><radialGradient xlink:href="#a" id="b" cx="31.623" cy="35.827" r="22.5" fx="31.623" fy="35.827" gradientTransform="rotate(135 55.523 31.759)scale(1.76322 1.79062)" gradientUnits="userSpaceOnUse"/><linearGradient id="a"><stop offset="0" style="stop-color:#00f2ff;stop-opacity:1"/><stop offset="1" style="stop-color:#00b0ff;stop-opacity:1"/></linearGradient><filter id="c" width="1.145" height="1.146" x="-.073" y="-.073" style="color-interpolation-filters:sRGB"><feGaussianBlur stdDeviation="1.661"/></filter></defs><path d="M32.601 9.232C27.711 21.34 18.157 39.36 10.1 53.968c5.723-3.24 11.697-6.294 18.202-7.576 3.047-.405 5.259-.551 8.65.034 6.468 1.328 12.444 4.308 18.148 7.542-8.324-14.686-17.79-32.74-22.5-44.736" style="fill:url(#b);stroke-width:1.12169" transform="translate(-8.582 -7.338)scale(1.24487)"/><path d="M37.467 16.624s-2.484 1.18-6.378 1.18c0 2.922.973 2.922.973 9.738 0 5.842-.973 13.631-.973 13.631l3.894-2.921 3.763-18.728zm-5.892 27.47a3.41 3.41 0 0 0-3.408 3.408 3.4 3.4 0 0 0 1.195 2.59 27 27 0 0 1 2.7-.156c.592 0 1.2.037 1.808.08a3.4 3.4 0 0 0 1.113-2.514 3.41 3.41 0 0 0-3.408-3.408" style="fill:#fff;stroke-width:.973675"/><path d="M32.002 2.94C25.648 18.67 13.235 42.081 2.768 61.06c7.435-4.21 15.197-8.176 23.648-9.841 3.96-.527 6.831-.718 11.238.043 8.404 1.724 16.168 5.597 23.578 9.799-7.716-13.614-16.187-29.456-22.63-43.077l.439.996-3.928 19.545-4.064 3.05s1.015-8.13 1.015-14.227c0-7.114-1.015-7.114-1.015-10.162 3.745 0 6.24-1.047 6.61-1.211-2.195-4.712-4.12-9.122-5.657-13.036Zm5.656 13.035q.463.994.942 2.005l-.895-2.027zm-6.101 28.648a3.557 3.557 0 0 1 3.556 3.557 3.56 3.56 0 0 1-1.162 2.623 27 27 0 0 0-1.887-.084c-.917 0-1.864.068-2.818.164A3.56 3.56 0 0 1 28 48.18a3.557 3.557 0 0 1 3.557-3.557Z" style="mix-blend-mode:normal;fill:none;stroke:#000;stroke-width:.2;stroke-dasharray:none;stroke-opacity:1;filter:url(#c)" transform="translate(1.339 1.338)scale(.95817)"/></svg>