<svg xmlns="http://www.w3.org/2000/svg" width="64" height="64"><circle cx="32" cy="33" r="19" style="opacity:.2"/><path d="M32 5a28 28 0 1 0 28 28A28 28 0 0 0 32 5m-.047 3.002a2.466 2.466 0 0 1 2.54 2.465h-.026c0 1.043-.992 2.12-1.768 3.224a.862.862 0 0 1-1.414 0c-.733-1.103-1.724-2.18-1.724-3.224a2.466 2.466 0 0 1 2.392-2.465m7.361 3.68a5 5 0 0 1 .489.035 13.69 13.69 0 0 1 10.804 7.846 4.897 4.897 0 0 1-3.267 6.82l-5.951 1.44a5.354 5.354 0 0 1-6.596-4.786l-.465-6.103a4.897 4.897 0 0 1 4.986-5.252m-14.628.043a5 5 0 0 1 .267.002 4.897 4.897 0 0 1 4.719 5.207l-.465 6.103a5.354 5.354 0 0 1-6.596 4.828l-5.95-1.44a4.897 4.897 0 0 1-3.268-6.82 13.69 13.69 0 0 1 10.804-7.845 5 5 0 0 1 .489-.035M9.719 24.13h.111a2.5 2.5 0 0 1 .727.121c.991.319 1.706 1.605 2.525 2.666a.862.862 0 0 1-.44 1.353c-1.293.388-2.62 1-3.61.672a2.466 2.466 0 0 1 .687-4.812m44.45.002h.106a2.466 2.466 0 0 1 .694 4.81c-.992.328-2.275-.3-3.612-.671a.862.862 0 0 1-.439-1.354c.802-1.06 1.534-2.347 2.525-2.666a2.5 2.5 0 0 1 .727-.12M32 26a2 2 0 0 1 2 2 2 2 0 1 1-2-2m-4.963 4a1.991 1.99 0 0 1 .586.104 2 1.998 0 1 1-2.525 1.283v-.008A1.991 1.99 0 0 1 27.038 30m9.877.002a1.997 2 0 0 1 1.984 1.383v-.028a2.006 2.009 0 0 1-1.285 2.545 1.997 2 0 1 1-.699-3.9m13.648.412a4.88 4.88 0 0 1 4.891 3.953 13.8 13.8 0 0 1-4.121 12.71 4.89 4.89 0 0 1-7.494-1.01l-3.215-5.172a5.354 5.354 0 0 1 2.518-7.788l5.664-2.328a4.9 4.9 0 0 1 1.758-.365m-37.246.016a4.9 4.9 0 0 1 1.905.367l5.666 2.328v.018a5.354 5.354 0 0 1 2.517 7.785l-3.216 5.174a4.89 4.89 0 0 1-7.493 1.01 13.8 13.8 0 0 1-4.12-12.727 4.88 4.88 0 0 1 4.741-3.955M28.946 36a1.998 2 0 1 1-1.122 3.615 1.99 1.991 0 0 1-.437-2.793A1.998 2 0 0 1 28.945 36m6.081 0a2 2 0 0 1 1.147 3.62 2 2 0 0 1-2.795-.448A2 2 0 0 1 35.027 36m-3.213 6.285a5.35 5.35 0 0 1 4.256 1.877l3.965 4.664a4.88 4.88 0 0 1-1.353 7.432 13.69 13.69 0 0 1-13.364 0 4.88 4.88 0 0 1-1.353-7.432l3.965-4.664a5.35 5.35 0 0 1 3.884-1.877m-11.97 7.317h.07a.86.86 0 0 1 .834.914c-.034 1.345.138 2.776-.475 3.638a2.466 2.466 0 0 1-3.992-2.896c.612-.845 2.043-1.13 3.31-1.604a1 1 0 0 1 .253-.052m24.26.027a.9.9 0 0 1 .337.05c1.268.449 2.699.717 3.311 1.579a2.466 2.466 0 0 1-3.992 2.896h-.033c-.613-.845-.44-2.292-.44-3.611a.86.86 0 0 1 .817-.914" style="opacity:.2"/><circle cx="32" cy="32" r="19" style="fill:#3f3f3f"/><path d="M32 4a28 28 0 1 0 28 28A28 28 0 0 0 32 4m-.047 3.002a2.466 2.466 0 0 1 2.54 2.465h-.026c0 1.043-.992 2.12-1.768 3.224a.862.862 0 0 1-1.414 0c-.733-1.103-1.724-2.18-1.724-3.224a2.466 2.466 0 0 1 2.392-2.465m7.361 3.68a5 5 0 0 1 .489.035 13.69 13.69 0 0 1 10.804 7.845 4.897 4.897 0 0 1-3.267 6.82l-5.951 1.44a5.354 5.354 0 0 1-6.596-4.785l-.465-6.103a4.897 4.897 0 0 1 4.986-5.252m-14.628.043a5 5 0 0 1 .267.002 4.897 4.897 0 0 1 4.719 5.207l-.465 6.103a5.354 5.354 0 0 1-6.596 4.828l-5.95-1.44a4.897 4.897 0 0 1-3.268-6.82 13.69 13.69 0 0 1 10.804-7.845 5 5 0 0 1 .489-.035M9.719 23.13h.111a2.5 2.5 0 0 1 .727.121c.991.319 1.706 1.605 2.525 2.666a.862.862 0 0 1-.44 1.353c-1.293.388-2.62 1-3.61.672a2.466 2.466 0 0 1 .687-4.812m44.45.002h.106a2.466 2.466 0 0 1 .694 4.81c-.992.328-2.275-.3-3.612-.672a.862.862 0 0 1-.439-1.353c.802-1.06 1.534-2.347 2.525-2.666a2.5 2.5 0 0 1 .727-.12M32 25a2 2 0 0 1 2 2 2 2 0 1 1-2-2m-4.963 4a1.991 1.99 0 0 1 .586.104 2 1.998 0 1 1-2.525 1.283v-.008A1.991 1.99 0 0 1 27.038 29m9.877.002a1.997 2 0 0 1 1.984 1.383v-.028a2.006 2.009 0 0 1-1.285 2.545 1.997 2 0 1 1-.699-3.9m13.648.412a4.88 4.88 0 0 1 4.891 3.953 13.8 13.8 0 0 1-4.121 12.71 4.89 4.89 0 0 1-7.494-1.01l-3.215-5.172a5.354 5.354 0 0 1 2.518-7.788l5.664-2.328a4.9 4.9 0 0 1 1.758-.365m-37.246.016a4.9 4.9 0 0 1 1.905.367l5.666 2.328v.018a5.354 5.354 0 0 1 2.517 7.785l-3.216 5.174a4.89 4.89 0 0 1-7.493 1.01 13.8 13.8 0 0 1-4.12-12.727 4.88 4.88 0 0 1 4.741-3.955M28.946 35a1.998 2 0 1 1-1.122 3.615 1.99 1.991 0 0 1-.437-2.793A1.998 2 0 0 1 28.945 35m6.081 0a2 2 0 0 1 1.147 3.62 2 2 0 0 1-2.795-.448A2 2 0 0 1 35.027 35m-3.213 6.285a5.35 5.35 0 0 1 4.256 1.877l3.965 4.664a4.88 4.88 0 0 1-1.353 7.432 13.69 13.69 0 0 1-13.364 0 4.88 4.88 0 0 1-1.353-7.432l3.965-4.664a5.35 5.35 0 0 1 3.884-1.877m-11.97 7.317h.07a.86.86 0 0 1 .834.914c-.034 1.345.138 2.776-.475 3.638a2.466 2.466 0 0 1-3.992-2.896c.612-.845 2.043-1.13 3.31-1.604a1 1 0 0 1 .253-.052m24.26.027a.9.9 0 0 1 .337.05c1.268.449 2.699.717 3.311 1.579a2.466 2.466 0 0 1-3.992 2.896h-.033c-.613-.845-.44-2.292-.44-3.611a.86.86 0 0 1 .817-.914" style="fill:#e4e4e4"/><path d="M32 4A28 28 0 0 0 4.027 33.027 28 28 0 0 1 32 5a28 28 0 0 1 27.98 27.621A28 28 0 0 0 60 32 28 28 0 0 0 32 4m2.416 5.875c-.207.915-1.042 1.856-1.717 2.816a.862.862 0 0 1-1.414 0c-.627-.944-1.44-1.87-1.662-2.771a2.5 2.5 0 0 0-.062.547c0 1.043.991 2.12 1.724 3.224a.862.862 0 0 0 1.414 0c.776-1.103 1.768-2.18 1.768-3.224h.025a2.5 2.5 0 0 0-.076-.592m-.074 6.246a5 5 0 0 0-.014.813l.465 6.103a5.354 5.354 0 0 0 6.596 4.785l5.95-1.44a4.9 4.9 0 0 0 3.694-5.253 4.9 4.9 0 0 1-3.693 4.254l-5.951 1.44a5.354 5.354 0 0 1-6.596-4.786zm-4.688.043-.447 5.873a5.354 5.354 0 0 1-6.596 4.828l-5.95-1.44a4.9 4.9 0 0 1-3.694-4.253 4.9 4.9 0 0 0 3.693 5.254l5.951 1.44a5.354 5.354 0 0 0 6.596-4.829l.465-6.103a5 5 0 0 0-.018-.77m-22.277 9.93a2.466 2.466 0 0 0 1.654 2.85c.992.327 2.318-.285 3.612-.673a.862.862 0 0 0 .459-1.326.86.86 0 0 1-.46.326c-1.293.388-2.62 1-3.61.672a2.47 2.47 0 0 1-1.655-1.85m49.24.002a2.47 2.47 0 0 1-1.648 1.847c-.992.328-2.275-.3-3.612-.672a.86.86 0 0 1-.459-.328.862.862 0 0 0 .46 1.328c1.336.371 2.62 1 3.61.672a2.466 2.466 0 0 0 1.65-2.847m-22.681 1.4a2 2 0 0 1-3.872.002A2 2 0 1 0 34 28a2 2 0 0 0-.064-.504m5 3.998a2.006 2.009 0 0 1-1.323 1.408 1.997 2 0 0 1-2.549-1.402 1.997 2 0 0 0 2.55 2.402 2.006 2.009 0 0 0 1.322-2.408m-13.87.006a2 1.998 0 1 0 3.87 0 2 1.998 0 0 1-3.87 0m30.616 5.023a13.8 13.8 0 0 1-4.35 9.553 4.89 4.89 0 0 1-7.494-1.01l-3.215-5.171a5.35 5.35 0 0 1-.78-2.33 5.35 5.35 0 0 0 .78 3.33l3.215 5.171a4.89 4.89 0 0 0 7.494 1.01 13.8 13.8 0 0 0 4.35-10.553m-47.34.084a13.8 13.8 0 0 0 4.353 10.504 4.89 4.89 0 0 0 7.493-1.01l3.216-5.173a5.35 5.35 0 0 0 .782-3.342 5.35 5.35 0 0 1-.782 2.342l-3.216 5.174a4.89 4.89 0 0 1-7.493 1.01 13.8 13.8 0 0 1-4.353-9.505m24.722.891a2 2 0 0 0 .315 1.674 2 2 0 0 0 2.795.447 2 2 0 0 0 .762-2.119 2 2 0 0 1-.762 1.12 2 2 0 0 1-2.795-.448 2 2 0 0 1-.315-.674m-6 .002a1.99 1.991 0 0 0 .76 2.115 1.998 2 0 0 0 3.11-2.115 1.998 2 0 0 1-3.11 1.115 1.99 1.991 0 0 1-.76-1.115m-6.326 12.838c.007 1.075.022 2.131-.465 2.816a2.466 2.466 0 0 1-4.396-.968 2.466 2.466 0 0 0 4.396 1.968c.613-.862.44-2.293.475-3.638a1 1 0 0 0-.01-.178m22.537.894c-.025 1.111-.055 2.223.452 2.922h.033a2.466 2.466 0 0 0 4.394-1.968 2.466 2.466 0 0 1-4.394.968h-.033c-.352-.486-.437-1.176-.452-1.922m-2.103.247a4.88 4.88 0 0 1-2.49 3.779 13.69 13.69 0 0 1-13.364 0 4.88 4.88 0 0 1-2.484-3.776 4.88 4.88 0 0 0 2.484 4.776 13.69 13.69 0 0 0 13.364 0 4.88 4.88 0 0 0 2.49-4.78" style="fill:#fff;opacity:.2"/></svg>