<svg xmlns="http://www.w3.org/2000/svg" width="64" height="64"><path d="M32.652 4v.003a6.468 6.48 0 0 0-3.387.863l-19.03 11.01A6.468 6.48 0 0 0 7 21.49v22.02a6.468 6.48 0 0 0 3.235 5.611l19.03 11.01a6.468 6.48 0 0 0 6.47 0l19.03-11.01A6.468 6.48 0 0 0 58 43.511V21.49a6.468 6.48 0 0 0-3.235-5.614l-19.03-11.01A6.468 6.48 0 0 0 32.652 4" style="opacity:.2"/><path d="M32.652 3v.003a6.468 6.48 0 0 0-3.387.863l-19.03 11.01A6.468 6.48 0 0 0 7 20.49v22.02a6.468 6.48 0 0 0 3.235 5.611l19.03 11.01a6.468 6.48 0 0 0 6.47 0l19.03-11.01A6.468 6.48 0 0 0 58 42.511V20.49a6.468 6.48 0 0 0-3.235-5.614l-19.03-11.01A6.468 6.48 0 0 0 32.652 3" style="fill:#e95361"/><path d="M15.519 23.495v17.989L32.5 50.479M15.52 23.495l16.98 8.994m-16.98-8.994 8.49-4.498M32.5 50.48l16.981-8.995v-17.99M32.501 50.48V32.49m16.98-8.994L32.501 14.5l-8.492 4.497m25.472 4.498-8.49 4.497m-8.49 4.497 8.49-4.497m-16.982-8.995 16.982 8.995" style="opacity:.2;fill:none;stroke:#000;stroke-width:3;stroke-linecap:round;stroke-linejoin:round"/><path d="M15.519 22.495v17.989L32.5 49.479M15.52 22.495l16.98 8.994m-16.98-8.994 8.49-4.498M32.5 49.48l16.981-8.995v-17.99M32.501 49.48V31.49m16.98-8.994L32.501 13.5l-8.492 4.497m25.472 4.498-8.49 4.497m-8.49 4.497 8.49-4.497m-16.982-8.995 16.982 8.995" style="fill:none;stroke:#fff;stroke-width:3;stroke-linecap:round;stroke-linejoin:round"/><path d="M32.652 3v.002a6.468 6.48 0 0 0-3.386.863l-19.032 11.01A6.468 6.48 0 0 0 7 20.49v1a6.468 6.48 0 0 1 3.234-5.615l19.032-11.01a6.468 6.48 0 0 1 3.386-.863V4a6.468 6.48 0 0 1 3.082.865l19.032 11.01A6.468 6.48 0 0 1 58 21.49v-1a6.468 6.48 0 0 0-3.234-5.615L35.734 3.865A6.468 6.48 0 0 0 32.652 3" style="fill:#fff;opacity:.2"/></svg>