<svg xmlns="http://www.w3.org/2000/svg" width="64" height="64"><circle cx="32" cy="33" r="28" style="opacity:.2"/><circle cx="32" cy="32" r="28" style="fill:#1c90ed"/><path d="M33.8 18a.8.8 0 0 0-.8.801V21.2a.8.8 0 0 0 .8.8h2.4a.8.8 0 0 0 .8-.8v-2.4a.8.8 0 0 0-.8-.8zm-10 5a.8.8 0 0 0-.8.801V26.2a.8.8 0 0 0 .8.8h2.4a.8.8 0 0 0 .8-.8v-2.4a.8.8 0 0 0-.8-.8zm5 0a.8.8 0 0 0-.8.801V26.2a.8.8 0 0 0 .8.8h2.4a.8.8 0 0 0 .8-.8v-2.4a.8.8 0 0 0-.8-.8zm5 0a.8.8 0 0 0-.8.801V26.2a.8.8 0 0 0 .8.8h2.4a.8.8 0 0 0 .8-.8v-2.4a.8.8 0 0 0-.8-.8zm13.042 2.243c-.068 0-.622.841-.85 1.289-.552 1.086-.81 2.092-.81 3.191-.003.996.194 1.318.634 2.135.114.211.207.397.207.412 0 .059-.59.288-1.087.424-.357.097-1.108.225-1.586.271-.285.027-5.233.043-14.385.043-13.926.001-13.952.001-14.139.084-.415.184-.668.478-.78.902-.07.271-.06.942.03 2.083.257 3.236 1.277 6.687 2.842 8.714 1.264 1.638 2.683 2.595 4.889 3.295 1.54.49 3.118.749 5.457.899.418.026 2.611.016 3.14-.016 4.643-.282 8.664-1.602 11.809-3.875 3.127-2.26 5.424-5.186 7.242-9.639l.096-.234h.404c1.865-.003 3.52-.618 4.678-1.738.454-.439.737-.808 1-1.295.165-.306.4-.88.4-.979 0-.016-.137-.132-.304-.256-.626-.464-1.4-.747-2.44-.892-.656-.092-2.127-.056-2.746.068-.105.021-.11.012-.162-.277-.25-1.38-1.228-3.067-2.483-3.977-.312-.226-.99-.633-1.056-.632M18.8 28a.8.8 0 0 0-.801.801V31.2a.8.8 0 0 0 .8.8h2.4a.8.8 0 0 0 .8-.8v-2.4a.8.8 0 0 0-.8-.8zm5 0a.8.8 0 0 0-.801.801V31.2a.8.8 0 0 0 .8.8h2.4a.8.8 0 0 0 .8-.8v-2.4a.8.8 0 0 0-.8-.8zm5 0a.8.8 0 0 0-.801.801V31.2a.8.8 0 0 0 .8.8h2.4a.8.8 0 0 0 .8-.8v-2.4a.8.8 0 0 0-.8-.8zm5 0a.8.8 0 0 0-.801.801V31.2a.8.8 0 0 0 .8.8h2.4a.8.8 0 0 0 .8-.8v-2.4a.8.8 0 0 0-.8-.8zm5 0a.8.8 0 0 0-.801.801V31.2a.8.8 0 0 0 .8.8h2.4a.8.8 0 0 0 .8-.8v-2.4a.8.8 0 0 0-.8-.8z" style="opacity:.2"/><path d="M27.264 47.985c-2.339-.15-3.917-.41-5.457-.9-2.206-.7-3.624-1.655-4.888-3.293-1.565-2.028-2.587-5.48-2.844-8.717-.09-1.14-.099-1.81-.029-2.082.112-.424.366-.718.78-.902.188-.082.214-.083 14.14-.083 9.152-.001 14.1-.016 14.384-.043a12 12 0 0 0 1.585-.272c.498-.135 1.09-.366 1.09-.424 0-.016-.094-.2-.208-.412-.44-.817-.639-1.14-.636-2.135 0-1.099.258-2.105.81-3.191.228-.448.783-1.289.85-1.289s.745.407 1.058.634c1.255.91 2.232 2.597 2.482 3.976.052.29.057.298.162.277.619-.124 2.09-.16 2.747-.069 1.039.146 1.813.43 2.44.893.166.124.303.239.303.255 0 .099-.235.675-.4.98-.263.488-.547.855-1.001 1.294-1.158 1.12-2.813 1.734-4.677 1.738h-.404l-.096.236c-1.818 4.452-4.115 7.378-7.242 9.638-3.145 2.273-7.167 3.592-11.81 3.874-.528.032-2.722.044-3.14.017z" style="fill:#fff"/><rect width="4" height="4" x="18" y="27" ry=".8" style="fill:#fff"/><rect width="4" height="4" x="23" y="27" ry=".8" style="fill:#fff"/><rect width="4" height="4" x="28" y="27" ry=".8" style="fill:#fff"/><rect width="4" height="4" x="33" y="27" ry=".8" style="fill:#fff"/><rect width="4" height="4" x="38" y="27" ry=".8" style="fill:#fff"/><rect width="4" height="4" x="23" y="22" ry=".8" style="fill:#fff"/><rect width="4" height="4" x="28" y="22" ry=".8" style="fill:#fff"/><rect width="4" height="4" x="33" y="22" ry=".8" style="fill:#fff"/><rect width="4" height="4" x="33" y="17" ry=".8" style="fill:#fff"/><path d="M32 4A28 28 0 0 0 4 32a28 28 0 0 0 .035.5A28 28 0 0 1 32 5a28 28 0 0 1 27.982 27.252L60 32A28 28 0 0 0 32 4" style="fill:#fff;opacity:.2"/></svg>