<svg xmlns="http://www.w3.org/2000/svg" xmlns:xlink="http://www.w3.org/1999/xlink" width="64" height="64"><defs><radialGradient xlink:href="#a" id="e" cx="32.618" cy="29.421" r="22" fx="32.618" fy="29.421" gradientTransform="rotate(-48.65 -6.002 104.97)scale(2.54081 2.65795)" gradientUnits="userSpaceOnUse"/><radialGradient xlink:href="#b" id="f" cx="-22.114" cy="-21.701" r="12" fx="-22.114" fy="-21.701" gradientTransform="rotate(-93.988 -62.679 -74.688)scale(5.97316 1.77032)" gradientUnits="userSpaceOnUse"/><radialGradient xlink:href="#c" id="h" cx="6.719" cy="27.806" r="2.5" fx="6.719" fy="27.806" gradientTransform="rotate(-29.588 -425.682 199.112)scale(4.92206 9.58819)" gradientUnits="userSpaceOnUse"/><radialGradient xlink:href="#c" id="i" cx="6.719" cy="27.806" r="2.5" fx="6.719" fy="27.806" gradientTransform="rotate(-29.588 -320.612 154.27)scale(3.84155 7.48333)" gradientUnits="userSpaceOnUse"/><radialGradient xlink:href="#d" id="k" cx="32.281" cy="25.29" r="22" fx="32.281" fy="25.29" gradientTransform="rotate(178.408 37.166 38.988)scale(1.2996 1.68703)" gradientUnits="userSpaceOnUse"/><linearGradient id="a"><stop offset="0" style="stop-color:#f7f7f7;stop-opacity:1"/><stop offset="1" style="stop-color:#ababab;stop-opacity:1"/></linearGradient><linearGradient id="b"><stop offset="0" style="stop-color:#4f4f4f;stop-opacity:1"/><stop offset="1" style="stop-color:#3a3a3a;stop-opacity:1"/></linearGradient><linearGradient id="c"><stop offset="0" style="stop-color:#03f8ff;stop-opacity:1"/><stop offset="1" style="stop-color:#03b3ff;stop-opacity:1"/></linearGradient><linearGradient id="d"><stop offset="0" style="stop-color:#e4e4e4;stop-opacity:1"/><stop offset="1" style="stop-color:#dadada;stop-opacity:1"/></linearGradient><filter id="g" width="1.839" height="1.839" x="-.42" y="-.42" style="color-interpolation-filters:sRGB"><feGaussianBlur stdDeviation=".874"/></filter><filter id="j" width="2.395" height="2.395" x="-.698" y="-.698" style="color-interpolation-filters:sRGB"><feGaussianBlur stdDeviation="1.134"/></filter></defs><g transform="translate(0 .945)"><path d="M12.75 3.555c-1.523 0-2.75 1.274-2.75 2.857v17.143h44V6.412c0-1.583-1.227-2.857-2.75-2.857Z" style="fill:url(#e)"/><rect width="24" height="56" x="-43.555" y="-60" rx="6.042" ry="6.084" style="fill:url(#f)" transform="rotate(90)scale(-1 1)"/><rect width="50" height="6" x="7" y="32.555" rx="2.543" ry="2.528" style="opacity:.470677;fill:#000;fill-opacity:1"/><rect width="5" height="5" x="7" y="23.555" rx="1.875" ry="1.875" style="opacity:.38575;filter:url(#g)"/><rect width="5" height="5" x="7" y="22.555" rx="1.875" ry="1.875" style="fill:url(#h)"/><rect width="3.902" height="3.902" x="7.537" y="23.195" rx="1.463" ry="1.463" style="fill:url(#i);stroke-width:.780475;filter:url(#j)"/><path d="M10 35.555v20.2c0 1.551 1.227 2.8 2.75 2.8h38.5c1.524 0 2.75-1.249 2.75-2.8v-20.2z" style="fill:url(#k)"/><path d="M15 41.062a1.5 1.5 44.726 0 0 1.507 1.493h30.986A1.507 1.507 135 0 0 49 41.048a1.5 1.5 44.726 0 0-1.507-1.493H16.507A1.507 1.507 135 0 0 15 41.062m0 6a1.5 1.5 44.726 0 0 1.507 1.493h20.986A1.507 1.507 135 0 0 39 47.048a1.5 1.5 44.726 0 0-1.507-1.493H16.507A1.507 1.507 135 0 0 15 47.062m0 6a1.5 1.5 44.726 0 0 1.507 1.493h25.986A1.507 1.507 135 0 0 44 53.048a1.5 1.5 44.726 0 0-1.507-1.493H16.507A1.507 1.507 135 0 0 15 53.062" style="opacity:.5"/></g><path d="M32 6.607v.002c-1.939.018-3.89.443-5.578 1.361-.673.421-1.481.964-2.09 1.512-.958.9-1.778 1.95-2.332 3.127 1.519 3.216 4.856 5.574 8.53 5.922 2.408.262 4.93-.139 7.048-1.283.673-.421 1.481-.964 2.09-1.512.958-.902 1.778-1.952 2.332-3.127-1.518-3.216-4.857-5.572-8.53-5.92-.487-.056-.98-.082-1.47-.082m.004 2c2.14-.047 4.034 1.868 3.994 3.996.069 2.353-2.275 4.383-4.592 3.943-2.34-.274-3.984-2.9-3.215-5.125.493-1.636 2.1-2.831 3.815-2.812zm-.004 2a2 2 0 0 0-2 2.002 2 2 0 0 0 2 1.998 2 2 0 0 0 2-1.998 2 2 0 0 0-2-1.992z" style="fill:#454545;fill-opacity:1;fill-rule:evenodd"/></svg>