<svg xmlns="http://www.w3.org/2000/svg" width="64" height="64"><circle cx="32" cy="33" r="28" style="opacity:.2"/><circle cx="32" cy="32" r="28" style="fill:#ff8dcb"/><path d="M32 4A28 28 0 0 0 4 32a28 28 0 0 0 .021.586A28 28 0 0 1 32 5a28 28 0 0 1 27.979 27.414L60 32A28 28 0 0 0 32 4" style="opacity:.2;fill:#fff"/><circle cx="32" cy="33" r="20" style="opacity:.2"/><circle cx="32" cy="32" r="20" style="fill:#fdcfea"/><path d="M25.562 23C21.398 23 18 26.127 18 30c0 2.015.912 3.854 2.375 5.133L31.811 45.4l11.813-10.267C45.088 33.855 46 32.016 46 30c0-3.873-3.398-7-7.562-7-2.744 0-5.12 1.346-6.439 3.382C30.68 24.346 28.303 23 25.56 23Z" style="opacity:.1"/><path d="M25.562 22C21.398 22 18 25.127 18 29c0 2.015.912 3.854 2.375 5.133L31.811 44.4l11.813-10.267C45.088 32.855 46 31.016 46 29c0-3.873-3.398-7-7.562-7-2.744 0-5.12 1.346-6.439 3.382C30.68 23.346 28.303 22 25.56 22Z" style="fill:#03adee"/><path d="M21.684 23c-.51.283-.985.617-1.409 1h10.553a7.5 7.5 0 0 0-1.398-1zm12.882 0a7.4 7.4 0 0 0-1.396 1h10.555a7.6 7.6 0 0 0-1.409-1zm-15.205 2q-.354.474-.623 1h26.524a7 7 0 0 0-.625-1H32.285c-.095.127-.199.25-.285.383-.087-.134-.19-.256-.285-.383zm-1.043 2q-.155.487-.232 1h27.828a6.5 6.5 0 0 0-.232-1zM18 29c0 .34.036.672.086 1h27.828c.05-.328.086-.66.086-1zm.316 2q.165.518.407 1h26.554a7 7 0 0 0 .407-1zm1.02 2c.266.36.57.694.902 1h23.524c.332-.306.637-.639.904-1zm2.006 2 1.113 1h19.02l1.15-1zm2.226 2 1.114 1h14.492l1.15-1zm2.227 2 1.115 1h9.963l1.15-1zm2.228 2 1.114 1h5.435l1.15-1zm2.227 2 1.115 1h.906l1.15-1z" style="opacity:.1"/><path d="M32 12a20 20 0 0 0-20 20 20 20 0 0 0 .021.582A20 20 0 0 1 32 13a20 20 0 0 1 19.979 19.418A20 20 0 0 0 52 32a20 20 0 0 0-20-20" style="opacity:.2;fill:#fff"/><circle cx="48" cy="48" r="16" style="opacity:.2"/><circle cx="48" cy="47" r="16" style="fill:#d82687"/><rect width="6" height="22" x="45" y="36" rx="3" ry="3" style="fill:#fff"/><rect width="6" height="22" x="44" y="-59" rx="3" ry="3" style="fill:#fff" transform="rotate(90)"/></svg>