<svg xmlns="http://www.w3.org/2000/svg" width="64" height="64"><path d="M4.052 32.005c-.011.333-.05.66-.05.996A27.94 27.94 0 0 0 32 61a27.936 27.936 0 0 0 27.95-26.335l.05-.046v-2l-.05.046A27.936 27.936 0 0 1 32 59C16.828 59 4.582 47.044 4.052 32.005" style="opacity:.2"/><path d="M31.785 4.006h-.002C16.373 4.124 4.002 16.561 4.002 32a27.94 27.94 0 0 0 27.999 28 27.933 27.933 0 0 0 27.947-26.336l.051-.048V9.6A5.587 5.587 0 0 0 54.4 4H31.786z" style="fill:#6891ee"/><path d="M46 5v13.748a20 20 0 0 0-13.998-5.742 20 20 0 0 0-20 20 20 20 0 0 0 20 19.998A20 20 0 0 0 52 33.006V5Z" style="opacity:.1"/><path d="M31.781 4.006C16.372 4.124 4 16.564 4 32.002c0 .11.01.218.016.326A27.93 27.93 0 0 1 31.78 5.006h22.614a5.59 5.59 0 0 1 5.601 5.601v-1a5.59 5.59 0 0 0-5.601-5.601z" style="opacity:.2;fill:#fff"/><path d="M46 4v13.748a20 20 0 0 0-13.998-5.742 20 20 0 0 0-20 20 20 20 0 0 0 20 19.998A20 20 0 0 0 52 32.006V4z" style="fill:#313131"/><path d="M32 18c-7.732 0-14 6.268-14 14s6.268 14 14 14 14-6.268 14-14-6.268-14-14-14m0 10a4 4 0 0 1 4 4 4 4 0 0 1-4 4 4 4 0 0 1-4-4 4 4 0 0 1 4-4" style="fill:#fff"/></svg>