<svg xmlns="http://www.w3.org/2000/svg" xmlns:xlink="http://www.w3.org/1999/xlink" width="64" height="64"><defs><filter id="f" width="1.098" height="1.109" x="-.049" y="-.054" style="color-interpolation-filters:sRGB"><feGaussianBlur stdDeviation=".704"/></filter><filter id="c" width="1.067" height="1.067" x="-.033" y="-.033" style="color-interpolation-filters:sRGB"><feGaussianBlur stdDeviation=".777"/></filter><filter id="g" width="1.176" height="1.191" x="-.088" y="-.095" style="color-interpolation-filters:sRGB"><feGaussianBlur stdDeviation="1.262"/></filter><radialGradient xlink:href="#a" id="e" cx="6.639" cy="39.988" r="20.712" fx="6.639" fy="39.988" gradientTransform="matrix(-2.81454 0 0 -2.54615 69.113 112.93)" gradientUnits="userSpaceOnUse"/><radialGradient xlink:href="#b" id="d" cx="10.808" cy="54.626" r="28" fx="10.808" fy="54.626" gradientTransform="rotate(-45 -155.233 165.197)scale(3.7409)" gradientUnits="userSpaceOnUse"/><linearGradient id="a"><stop offset="0" style="stop-color:#4d4d4d;stop-opacity:1"/><stop offset="1" style="stop-color:#272727;stop-opacity:1"/></linearGradient><linearGradient id="b"><stop offset="0" style="stop-color:#454545;stop-opacity:1"/><stop offset="1" style="stop-color:#898989;stop-opacity:1"/></linearGradient></defs><rect width="56" height="56" x="4" y="4" rx="8.651" ry="8.651" style="opacity:.624257;filter:url(#c)"/><rect width="56" height="56" x="4" y="3.9" rx="9.563" ry="9.563" style="fill:url(#d)"/><rect width="41.424" height="41.424" x="11.288" y="11.188" rx="3.663" ry="3.663" style="fill:url(#e);stroke-width:.999999"/><path d="M14.74 17.229v1.726h1.726v10.356H14.74v1.726h8.63v-1.726h1.726V18.955H23.37v-1.726zm13.808 0v1.726h-1.726v10.356h1.726v1.726h6.904v-1.726h1.726V18.955h-1.726v-1.726zm12.082 0v1.726h-1.726v3.452h1.726v1.726h3.452v1.726h1.726v3.452h-3.452v-3.452h-3.452v3.452h1.726v1.726h6.904v-1.726h1.726v-3.452h-1.726v-1.726h-1.726v-1.726h-3.452v-3.452h3.452v3.452h3.452v-3.452h-1.726v-1.726zm-20.712 1.726h1.726v10.356h-1.726zm10.356 0h3.452v10.356h-3.452ZM14.74 34.489v1.726h1.726v10.356H14.74v1.726h8.63v-1.726h1.726v-5.178H23.37v-1.726h1.726v-3.452H23.37v-1.726zm13.808 0v1.726h-1.726v10.356h1.726v1.726h6.904v-1.726h1.726V36.215h-1.726v-1.726zm8.63 0v1.726h1.726v3.452h1.726v3.452h-1.726v3.452h-1.726v1.726h3.452v-1.726h1.726v-1.726h1.726v1.726h1.726v1.726h3.452v-1.726h-1.726v-3.452h-1.726v-3.452h1.726v-3.452h1.726v-1.726h-3.452v1.726h-1.726v1.726h-1.726v-1.726H40.63v-1.726zm-17.26 1.726h1.726v3.452h-1.726zm10.356 0h3.452v10.356h-3.452Zm-10.356 5.178h1.726v5.178h-1.726z" style="opacity:.675902;stroke-width:.999999;filter:url(#f)"/><path d="M14.74 16.466v1.726h1.726v10.356H14.74v1.726h8.63v-1.726h1.726V18.192H23.37v-1.726zm13.808 0v1.726h-1.726v10.356h1.726v1.726h6.904v-1.726h1.726V18.192h-1.726v-1.726zm12.082 0v1.726h-1.726v3.452h1.726v1.726h3.452v1.726h1.726v3.452h-3.452v-3.452h-3.452v3.452h1.726v1.726h6.904v-1.726h1.726v-3.452h-1.726V23.37h-1.726v-1.726h-3.452v-3.452h3.452v3.452h3.452v-3.452h-1.726v-1.726Zm-20.712 1.726h1.726v10.356h-1.726zm10.356 0h3.452v10.356h-3.452ZM14.74 33.726v1.726h1.726v10.356H14.74v1.726h8.63v-1.726h1.726V40.63H23.37v-1.726h1.726v-3.452H23.37v-1.726zm13.808 0v1.726h-1.726v10.356h1.726v1.726h6.904v-1.726h1.726V35.452h-1.726v-1.726zm8.63 0v1.726h1.726v3.452h1.726v3.452h-1.726v3.452h-1.726v1.726h3.452v-1.726h1.726v-1.726h1.726v1.726h1.726v1.726h3.452v-1.726h-1.726v-3.452h-1.726v-3.452h1.726v-3.452h1.726v-1.726h-3.452v1.726h-1.726v1.726h-1.726v-1.726H40.63v-1.726zm-17.26 1.726h1.726v3.452h-1.726zm10.356 0h3.452v10.356h-3.452zM19.918 40.63h1.726v5.178h-1.726z" style="fill:#fff;fill-opacity:1;stroke-width:.999999" transform="translate(0 -.1)"/><g style="filter:url(#g);opacity:.51821935"><path d="M14.799 17.283v1.719h1.719v10.31h-1.719v1.72h8.593v-1.72h1.718v-10.31h-1.718v-1.719zm13.748 0v1.719H26.83v10.31h1.718v1.72h6.874v-1.72h1.719v-10.31H35.42v-1.719zm12.03 0v1.719h-1.719v3.437h1.719v1.718h3.437v1.719h1.718v3.437h-3.437v-3.437h-3.437v3.437h1.719v1.718h6.874v-1.718h1.718v-3.437h-1.718v-1.719h-1.719V22.44h-3.437v-3.437h3.437v3.437h3.437v-3.437h-1.718v-1.719zm-20.622 1.719h1.718v10.31h-1.718zm10.31 0h3.438v10.31h-3.437ZM14.8 34.469v1.718h1.719v10.311H14.8v1.719h8.593v-1.719h1.718v-5.155h-1.718v-1.719h1.718v-3.437h-1.718v-1.718zm13.748 0v1.718H26.83v10.311h1.718v1.719h6.874v-1.719h1.719V36.187H35.42v-1.718zm8.593 0v1.718h1.718v3.437h1.719v3.437h-1.719v3.437H37.14v1.719h3.437v-1.719h1.718V44.78h1.719v1.718h1.718v1.719h3.437v-1.719h-1.718v-3.437h-1.719v-3.437h1.719v-3.437h1.718v-1.718h-3.437v1.718h-1.718v1.719h-1.719v-1.719h-1.718v-1.718zm-17.185 1.718h1.718v3.437h-1.718zm10.31 0h3.438v10.311h-3.437Zm-10.31 5.156h1.718v5.155h-1.718z" style="opacity:.2;stroke-width:.999999"/><path d="M37.14 33.61v1.718h1.718v3.437h1.719v3.437h-1.719v3.437H37.14v1.718h3.437V45.64h1.718v-1.72h1.719v1.719h1.718v1.718h3.437V45.64h-1.718v-3.437h-1.719v-3.437h1.719v-3.437h1.718V33.61h-3.437v1.719h-1.718v1.718h-1.719v-1.718h-1.718V33.61z" style="fill:#73ff44;stroke-width:.999999"/><path d="M28.547 16.424v1.719H26.83v10.31h1.718v1.72h6.874v-1.72h1.719v-10.31H35.42v-1.719zm1.719 1.719h3.437v10.31h-3.437Zm-1.719 15.466v1.719H26.83v10.31h1.718v1.72h6.874v-1.72h1.719v-10.31H35.42v-1.719zm1.719 1.719h3.437v10.31h-3.437Z" style="fill:#bd66ff;stroke-width:.999999"/><path d="M40.577 16.424v1.719h-1.719v3.437h1.719v1.718h3.437v1.719h1.718v3.437h-3.437v-3.437h-3.437v3.437h1.719v1.718h6.874v-1.718h1.718v-3.437h-1.718v-1.719h-1.719V21.58h-3.437v-3.437h3.437v3.437h3.437v-3.437h-1.718v-1.719z" style="fill:#ffeb3b;stroke-width:.999999"/><path d="M14.799 33.61v1.718h1.719v10.31h-1.719v1.72h8.593v-1.72h1.718v-5.155h-1.718v-1.718h1.718v-3.437h-1.718v-1.719zm5.156 1.718h1.718v3.437h-1.718zm0 5.155h1.718v5.156h-1.718z" style="fill:#5964ff;stroke-width:.999999"/><path d="M14.799 16.424v1.719h1.719v10.31h-1.719v1.72h8.593v-1.72h1.718v-10.31h-1.718v-1.719zm5.156 1.719h1.718v10.31h-1.718z" style="fill:#e73d3d;stroke-width:.999999"/></g></svg>