<svg xmlns="http://www.w3.org/2000/svg" width="64" height="64"><rect width="56" height="56" x="4" y="5" rx="3" ry="3" style="opacity:.2"/><path d="M7 4h24.092l25.136 1.985c1.657.13 2.214 2.555 2.339 4.212L60 29.27v5.292L58.787 52.59c-.111 1.658-2 6.584-3.661 6.638L31.422 60H7c-1.662 0-3-1.338-3-3V7c0-1.662 1.338-3 3-3" style="fill:#4f4f4f"/><path d="M7 4C5.338 4 4 5.338 4 7v1c0-1.662 1.338-3 3-3h50c1.662 0 3 1.338 3 3V7c0-1.662-1.338-3-3-3z" style="fill:#fff;opacity:.1"/><path d="M31 5v26h6.857L41 9h10l2.693 22H60V8c0-1.662-1.338-3-3-3zm15 15-1.158 11h2.025zM31 35v23h3l3.285-23zm13.42 0-.736 7h4.052l-.552-7zm9.764 0L57 58h3V35zM43.053 48 42 58h7l-.79-10z" style="opacity:.2"/><path d="M31 4v26h6.857L41 8h10l2.693 22H60V7c0-1.662-1.338-3-3-3zm15 15-1.158 11h2.025zM31 34v26h26c1.662 0 3-1.338 3-3V34h-5.816L57 57h-8l-.79-10h-5.157L42 57h-8l3.285-23zm13.42 0-.736 7h4.052l-.552-7z" style="fill:#e4e4e4"/><path d="M7 8v23h9V17h4v14h10V16s0-8-8-8zm0 27v23h15c8 0 8-7 8-7V35H20v15h-4V35z" style="opacity:.2"/><path d="M7 7v23h9V16h4v14h10V15s0-8-8-8zm0 27v23h15c8 0 8-7 8-7V34H20v15h-4V34z" style="fill:#edd20c"/><path d="M31 4v1h26c1.662 0 3 1.338 3 3V7c0-1.662-1.338-3-3-3zm15 15-1.158 11h.105L46 20l.79 10h.077zM31 34v1h6.143l.142-1zm13.42 0-.736 7h.105l.63-6h2.765l.474 6h.078l-.552-7zm9.764 0 .123 1H60v-1zM43.053 47 42 57h-7.857L34 58h8l1.053-10h5.158L49 58h8l-.123-1H49l-.79-10zM7 7v1h15c8 0 8 8 8 8v-1s0-8-8-8zm0 27v1h9v-1zm13 0v1h10v-1zm-4 15v1h4v-1z" style="fill:#fff;opacity:.2"/><path d="M31 4v26h6.857L41 8h10l2.693 22H60V7c0-1.662-1.338-3-3-3zm15 15-1.158 11h2.025zM31 34v26h26c1.662 0 3-1.338 3-3V34h-5.816L57 57h-8l-.79-10h-5.157L42 57h-8l3.285-23zm13.42 0-.736 7h4.052l-.552-7z" style="fill:#e4e4e4"/></svg>