<svg xmlns="http://www.w3.org/2000/svg" xmlns:xlink="http://www.w3.org/1999/xlink" width="64" height="64"><defs><filter id="c" width="1.257" height="1.257" x="-.128" y="-.128" style="color-interpolation-filters:sRGB"><feGaussianBlur stdDeviation="1.163"/></filter><filter id="d" width="1.338" height="1.263" x="-.169" y="-.132" style="color-interpolation-filters:sRGB"><feGaussianBlur stdDeviation="1.178"/></filter><radialGradient xlink:href="#a" id="b" cx="31.74" cy="40.425" r="11.05" fx="31.74" fy="40.425" gradientTransform="rotate(75 93.316 37.198)scale(2.35804)" gradientUnits="userSpaceOnUse"/><linearGradient id="a"><stop offset="0" style="stop-color:#03ddf4;stop-opacity:1"/><stop offset="1" style="stop-color:#03a9f4;stop-opacity:1"/></linearGradient></defs><g transform="translate(-80.123 -73.154)scale(2.28763)"><circle cx="48.989" cy="45.981" r="11.05" style="fill:url(#b);stroke-width:.736658"/><path d="M52.466 37.182v8.34a1.66 1.66 45 0 0 1.661 1.662h2.398a1.023 1.023 65.147 0 1 .78 1.684l-6.877 8.111a1.872 1.872 0 0 1-2.856 0l-6.877-8.111a1.023 1.023 114.853 0 1 .78-1.684h2.398a1.66 1.66 135 0 0 1.661-1.662v-8.34a1.48 1.48 135 0 1 1.478-1.478h3.976a1.48 1.48 45 0 1 1.478 1.478" style="fill:#fff;stroke-width:1.52567" transform="translate(12.907 12.084)scale(.73666)"/><circle cx="49.013" cy="45.967" r="11.05" style="fill:none;stroke:#000;stroke-width:.08742682;stroke-dasharray:none;stroke-opacity:1;filter:url(#c)"/><path d="M52.466 37.182v8.34a1.66 1.66 45 0 0 1.661 1.662h2.398a1.023 1.023 65.147 0 1 .78 1.684l-6.877 8.111a1.872 1.872 0 0 1-2.856 0l-6.877-8.111a1.023 1.023 114.853 0 1 .78-1.684h2.398a1.66 1.66 135 0 0 1.661-1.662v-8.34a1.48 1.48 135 0 1 1.478-1.478h3.976a1.48 1.48 45 0 1 1.478 1.478Z" style="fill:none;stroke:#0018ff;stroke-width:.1186804;stroke-dasharray:none;stroke-opacity:1;filter:url(#d)" transform="translate(12.922 12.06)scale(.73666)"/></g></svg>