<svg xmlns="http://www.w3.org/2000/svg" width="64" height="64"><path d="M6.05 32c-.012.334-.05.662-.05 1 0 14.404 11.596 26 26 26s26-11.596 26-26c0-.338-.039-.666-.05-1C57.42 45.932 46.064 57 32 57 17.934 57 6.578 45.932 6.05 32" style="opacity:.2"/><rect width="51.999" height="51.999" x="-58" y="-58" rx="26" ry="26" style="fill:#5db43e" transform="rotate(90)scale(-1 1)"/><path d="m21 19 4 5 2-1-3-3 3-1zm16 0 3 1-3 3 2 1 4-5zm-5 2c-2.604.009-6.013 1.43-6 6.399L32 24l6 3.399c.012-4.968-3.396-6.39-6-6.398Zm-15 2 2 6v-2h4l1-2zm30 0-7 2 1 2h4v2zm-15 3-3 1.801.398 2.8 1-2.6h3.203l1 2.6.398-2.8zm-10 3-8 3 4 2v-1l3-1zm5 0-4 1.602c.025 3.267 1.857 6.353 3.699 7.855 1.29 1.026 2.906 2.202 3.698 2.542.91.34.406-1.684.602-2h2c.197.317-.309 2.34.601 2 .794-.34 2.41-1.515 3.7-2.543 1.844-1.502 3.674-4.586 3.7-7.854L37 29l-1 4h-2.602L32 29l-1.398 4H28zm15 0 1 3 3 1v1l4-2zm-20 6-5 2 8 10zm20 0-3 12 8-10z" style="opacity:.2"/><path d="m21 18 4 5 2-1-3-3 3-1zm16 0 3 1-3 3 2 1 4-5zm-5 2c-2.604.009-6.013 1.43-6 6.399L32 23l6 3.398c.012-4.968-3.396-6.39-6-6.398m-15 2 2 6v-2h4l1-2zm30 0-7 2 1 2h4v2zm-15 3-3 1.801.398 2.801 1-2.602h3.203l1 2.602.398-2.8-3-1.8zm-10 3-8 3 4 2v-1l3-1zm5 0-4 1.602c.025 3.268 1.857 6.353 3.699 7.855 1.29 1.026 2.906 2.202 3.698 2.542.91.34.406-1.684.602-2h2c.197.317-.309 2.341.601 2 .794-.34 2.41-1.515 3.7-2.543 1.844-1.502 3.674-4.586 3.7-7.854L37 28l-1 4h-2.602L32 28l-1.398 4H28zm15 0 1 3 3 1v1l4-2zm-20 6-5 2 8 10zm20 0-3 12 8-10z" style="fill:#fff"/><path d="M32 6C17.596 6 6 17.596 6 32c0 .11.012.219.018.328C6.373 18.238 17.822 7 32 7s25.627 11.238 25.982 25.328c.006-.11.018-.217.018-.328C58 17.596 46.404 6 32 6" style="opacity:.2;fill:#fff"/></svg>