<svg xmlns="http://www.w3.org/2000/svg" width="64" height="64"><circle cx="32" cy="33" r="28" style="opacity:.2"/><circle cx="32" cy="32" r="28" style="fill:#00acd5"/><path d="M32 4A28 28 0 0 0 4 32a28 28 0 0 0 .033.482A28 28 0 0 1 32 5a28 28 0 0 1 27.982 27.242L60 32A28 28 0 0 0 32 4" style="opacity:.2;fill:#fff"/><path d="m32 5-2.945 14.13h-.006c-.115-.13-2.558-2.883-2.62-7.017-.045-3.107-3.852-5.798-6.775-4.082 0 0 4.595.512 3.063 6.31-1.079 4.092 1.277 6.492 1.566 6.764q-.003.003-.008.004L12.2 13.2l6.45 9.84 1.462 2.234v.006c-.12-.008-3.827-.208-6.82-3.111-2.231-2.164-6.824-1.378-7.676 1.904 0 0 3.61-2.888 6.63 2.297 2.127 3.658 5.49 3.685 5.888 3.676l-.002.01-14.06 2.927.001.032 14.059 2.93v.003c-.093.082-2.855 2.559-7.018 2.621-2.497.036-4.723 2.503-4.611 4.987a28 28 0 0 0 .66 1.23c.348-1.163 1.631-3.706 6.18-2.506 4.096 1.081 6.496-1.281 6.765-1.564l.006.01-7.476 11.408.23.23 11.408-7.474c-.004.123-.207 3.827-3.107 6.816-1.467 1.51-1.576 4.102-.477 5.885a28 28 0 0 0 1.811.676c-.457-1.301-.549-3.523 2.865-5.51 3.654-2.129 3.686-5.491 3.678-5.89l.01.003 2.734 13.115L32 60l.21-.016 2.733-13.115h.002c.106.116 2.558 2.871 2.62 7.014.03 2.065 1.721 3.939 3.708 4.467a28 28 0 0 0 1.96-.733c-1.251-.567-2.986-2.052-1.956-5.96 1.082-4.089-1.273-6.486-1.564-6.764l.014-.006 11.408 7.474.228-.228-7.476-11.41c.167.007 3.844.224 6.814 3.107 1.797 1.742 5.12 1.571 6.795-.271a28 28 0 0 0 .524-1.405c-.956.562-3.793 1.723-6.266-2.525h-.002c-2.124-3.644-5.472-3.685-5.889-3.676q.005-.004.006-.01l14.059-2.93.002-.03-14.06-2.928-.003-.006c.147-.133 2.896-2.556 7.014-2.617 3.11-.048 5.8-3.853 4.084-6.776 0 0-.512 4.593-6.313 3.063-4.08-1.076-6.476 1.267-6.76 1.56l-.005-.002L51.8 13.2l-12.076 7.912q-.004.001-.006-.004c.01-.174.23-3.847 3.107-6.812 2.167-2.232 1.38-6.826-1.902-7.678 0 0 2.889 3.609-2.297 6.627-3.645 2.123-3.685 5.473-3.676 5.887h-.008z" style="opacity:.2"/><path d="M51.753 38.63c-2.124-3.645-5.473-3.686-5.889-3.677q.004-.005.004-.01L60 31.998l-14.132-2.944-.001-.004c.147-.133 2.896-2.557 7.014-2.618 3.11-.047 5.8-3.854 4.085-6.776 0 0-.512 4.593-6.313 3.063-4.08-1.075-6.478 1.267-6.76 1.561q-.004 0-.006-.003L51.8 12.2l-12.076 7.91-.006-.003c.01-.175.231-3.847 3.108-6.812 2.167-2.232 1.38-6.825-1.902-7.677 0 0 2.89 3.608-2.297 6.626-3.645 2.123-3.686 5.474-3.676 5.888h-.008L32 4l-2.944 14.132h-.006c-.115-.13-2.559-2.884-2.62-7.018-.045-3.107-3.852-5.8-6.775-4.083 0 0 4.594.511 3.062 6.31-1.079 4.091 1.277 6.492 1.567 6.764q-.002.004-.007.005L12.2 12.198l6.448 9.84 1.464 2.236-.001.004c-.121-.008-3.826-.206-6.82-3.11-2.23-2.164-6.824-1.378-7.676 1.904 0 0 3.61-2.888 6.63 2.297 2.127 3.657 5.49 3.686 5.888 3.677l-.001.008L4 31.998l14.132 2.946v.004c-.093.082-2.857 2.558-7.019 2.62-3.108.045-5.801 3.853-4.084 6.775 0 0 .511-4.594 6.312-3.063 4.097 1.08 6.496-1.283 6.766-1.566l.007.011-7.91 12.072 12.071-7.909c-.004.124-.207 3.828-3.107 6.817-2.166 2.23-1.378 6.824 1.903 7.677 0 0-2.887-3.61 2.297-6.627 3.653-2.129 3.684-5.49 3.676-5.889l.011.003L32 60l2.944-14.131h.002c.105.115 2.557 2.872 2.618 7.015.048 3.11 3.853 5.8 6.776 4.086 0 0-4.592-.511-3.063-6.313 1.081-4.088-1.272-6.486-1.563-6.764l.013-.007 12.072 7.91-7.912-12.074c.168.007 3.845.224 6.815 3.108 2.233 2.165 6.826 1.38 7.678-1.903 0 0-3.61 2.887-6.627-2.297" style="fill:#ffd520"/><path d="m32 4-2.945 14.13h-.006c-.115-.13-2.558-2.883-2.62-7.017-.045-3.107-3.852-5.798-6.775-4.082 0 0 .69.08 1.444.51 2.595-.35 5.293 1.959 5.332 4.572.06 4.134 2.504 6.888 2.619 7.018h.006L32 5l2.943 14.13h.008c-.01-.413.03-3.763 3.676-5.886 2.806-1.633 3.242-3.434 3.057-4.748-.158 1.153-.912 2.5-3.057 3.748-3.645 2.123-3.685 5.473-3.676 5.887h-.008zm8.924 1.617s.37.478.607 1.215c1.484.66 2.33 2.16 2.483 3.732.192-2.103-.88-4.373-3.09-4.947M23.002 11.62a9 9 0 0 1-.285 1.723 7.9 7.9 0 0 0-.26 2.568 8.4 8.4 0 0 1 .26-1.568c.285-1.081.356-1.978.285-2.723m-10.803.58 1.149 1.752 10.927 7.158q.006 0 .008-.004c-.137-.129-.733-.75-1.213-1.785zm39.602 0-11.924 7.813a10 10 0 0 0-.158 1.095q.002.004.006.004l10.927-7.16zm5.164 7.457s-.512 4.593-6.313 3.063c-2.495-.658-4.352-.036-5.49.613l-1.275 1.945.006.002c.283-.293 2.68-2.636 6.76-1.56 5.8 1.53 6.312-3.063 6.312-3.063.28.476.431.976.494 1.479a3.88 3.88 0 0 0-.494-2.479m-46.858.3c-1.965-.01-3.96 1.065-4.492 3.116 0 0 .27-.205.703-.408 1.602-2.046 5.109-2.305 6.973-.496 2.993 2.903 6.7 3.103 6.82 3.111v-.006l-.705-1.078c-1.237-.197-3.875-.855-6.115-3.027-.837-.812-2.004-1.207-3.184-1.213m36.817 9.317a9 9 0 0 0-1.057.776l.002.006 11.73 2.443 2.401-.5zm-31.158.274L4 31.998l2.4.5 11.73-2.443.003-.01c-.203.005-1.18-.007-2.367-.498m32.463 5.904-2.36.492q-.002.006-.006.01c.417-.01 3.765.032 5.889 3.676h.002c2.213 3.802 4.731 3.26 5.924 2.703.314-.402.563-.866.703-1.404 0 0-3.61 2.885-6.627-2.3h-.002c-1.044-1.79-2.381-2.705-3.523-3.177m-31.153.272c-1.177.759-3.269 1.805-5.963 1.845-2.601.037-4.902 2.713-4.578 5.297.278-2.23 2.313-4.264 4.578-4.297 4.163-.062 6.925-2.539 7.018-2.62v-.005zm3.031 4.992c-.104.11-.54.533-1.263.947l-6.64 10.135 1.148-.752 6.761-10.32zm23.78.008 6.763 10.32 1.149.752-7.203-10.992a7 7 0 0 0-.71-.08m-4.16 4.164-.014.006c.223.213 1.651 1.673 1.824 4.18a6.9 6.9 0 0 0-.617-3.405zm-15.452.002-.158.103c-.263 1.343-.977 3.68-2.949 5.713-.938.965-1.32 2.374-1.188 3.73.093-1.02.48-2.001 1.188-2.73 2.9-2.989 3.103-6.693 3.107-6.816m16.717 8.476c-.16 2.369.922 3.534 1.904 4.094a3.8 3.8 0 0 0 1.444-.49s-3.045-.34-3.348-3.604m-18.68 3.143a3.75 3.75 0 0 0 .153 1.662q.287.128.605.21s-.6-.761-.758-1.872" style="fill:#fff;opacity:.2"/></svg>