<svg xmlns="http://www.w3.org/2000/svg" width="64" height="64"><rect width="56" height="56" x="4" y="5" rx="2.8" ry="2.8" style="opacity:.2"/><rect width="56" height="56" x="4" y="4" rx="2.8" ry="2.8" style="fill:#e64031"/><path d="M8 26v13h9v-3h-6v-2h6v-3h-6v-2h6v-3zm17.523 0q-1.869 0-3.103.813-1.218.814-1.818 2.265Q20 30.53 20 32.475q0 1.961.602 3.43.6 1.468 1.818 2.282 1.235.814 3.088.813 1.803 0 3.021-.812c.29-.194.545-.425.783-.672l-2.142-2.168c-.397.427-.947.652-1.666.652q-1.289 0-1.897-.932-.607-.945-.607-2.58t.607-2.556q.62-.932 1.91-.932c.712 0 1.254.224 1.649.648l2.146-2.171a4.6 4.6 0 0 0-.783-.665Q27.31 26 25.523 26M32 26v13h3v-5h4v5h3V26h-3v5h-4v-5zm18.523 0q-1.869 0-3.103.813-1.218.814-1.818 2.265Q45 30.53 45 32.475q0 1.961.602 3.43.6 1.468 1.818 2.282 1.235.814 3.088.813 1.803 0 3.021-.812 1.219-.816 1.836-2.266.635-1.468.635-3.43t-.635-3.414q-.617-1.47-1.836-2.265-1.219-.814-3.006-.813m-.005 3q1.288 0 1.884.932.597.92.598 2.556 0 1.635-.598 2.58-.597.933-1.898.932-1.289 0-1.897-.932-.607-.945-.607-2.58t.607-2.556q.62-.932 1.91-.932" style="opacity:.2"/><path d="M8 25v13h9v-3h-6v-2h6v-3h-6v-2h6v-3zm17.523 0q-1.869 0-3.103.813-1.218.814-1.818 2.265Q20 29.53 20 31.475q0 1.961.602 3.43.6 1.468 1.818 2.282 1.235.814 3.088.813 1.803 0 3.021-.812c.29-.194.545-.425.784-.672l-2.143-2.168c-.397.427-.947.652-1.666.652q-1.289 0-1.897-.932-.607-.945-.607-2.58t.607-2.556q.62-.932 1.91-.932c.712 0 1.254.224 1.649.648l2.146-2.171a4.6 4.6 0 0 0-.783-.665Q27.31 25 25.523 25M32 25v13h3v-5h4v5h3V25h-3v5h-4v-5zm18.523 0q-1.869 0-3.103.813-1.218.814-1.818 2.265Q45 29.53 45 31.475q0 1.961.602 3.43.6 1.468 1.818 2.282 1.235.814 3.088.813 1.803 0 3.021-.812 1.219-.816 1.836-2.266.635-1.468.635-3.43t-.635-3.414q-.617-1.47-1.836-2.265-1.219-.814-3.006-.813m-.005 3q1.288 0 1.884.932.598.92.598 2.556 0 1.635-.598 2.58-.597.933-1.898.932-1.289 0-1.897-.932-.607-.945-.607-2.58t.607-2.556q.62-.932 1.91-.932" style="fill:#fff"/><path d="M6.8 4C5.25 4 4 5.25 4 6.8v1C4 6.25 5.25 5 6.8 5h50.4C58.75 5 60 6.25 60 7.8v-1C60 5.25 58.75 4 57.2 4z" style="fill:#fff;opacity:.2"/></svg>