<svg xmlns="http://www.w3.org/2000/svg" width="64" height="64"><rect width="56" height="56" x="-61" y="-57" rx="28" ry="28" style="opacity:.2" transform="rotate(90)scale(-1 1)"/><rect width="56" height="56" x="-60" y="-57" rx="28" ry="28" style="fill:#f7941e" transform="rotate(90)scale(-1 1)"/><path d="M29 4C13.488 4 1 16.488 1 32c0 .113.011.224.018.336C1.369 17.134 13.71 5 29 5s27.63 12.134 27.982 27.336c.007-.112.018-.223.018-.336C57 16.488 44.512 4 29 4" style="opacity:.1;fill:#fff"/><rect width="56" height="56" x="-61" y="-63" rx="28" ry="28" style="opacity:.2" transform="rotate(90)scale(-1 1)"/><rect width="56" height="56" x="-60" y="-63" rx="28" ry="28" style="fill:#4c3a91" transform="rotate(90)scale(-1 1)"/><path d="M16.957 41A19.6 19.6 0 0 0 35 53a19.6 19.6 0 0 0 18.035-12z" style="opacity:.2"/><path d="M16.957 40A19.6 19.6 0 0 0 35 52a19.6 19.6 0 0 0 18.035-12Z" style="fill:#6e5dae"/><path d="M8.475 24a28 28 0 0 0-1.024 4H62.55a28 28 0 0 0-1.024-4Zm-1.397 7A29 29 0 0 0 7 33c0 .673.032 1.339.078 2h55.844c.046-.661.078-1.327.078-2s-.032-1.339-.078-2zm.373 7a28 28 0 0 0 1.024 4h53.05a28 28 0 0 0 1.024-4z" style="opacity:.2"/><path d="M8.475 23a28 28 0 0 0-1.024 4H62.55a28 28 0 0 0-1.024-4zm-1.397 7A29 29 0 0 0 7 32c0 .673.032 1.339.078 2h55.844c.046-.661.078-1.327.078-2s-.032-1.339-.078-2zm.373 7a28 28 0 0 0 1.024 4h53.05a28 28 0 0 0 1.024-4z" style="fill:#fff"/><path d="M35 4C19.488 4 7 16.488 7 32c0 .113.011.224.018.336C7.369 17.134 19.71 5 35 5s27.63 12.134 27.982 27.336c.007-.112.018-.223.018-.336C63 16.488 50.512 4 35 4" style="opacity:.1;fill:#fff"/></svg>