<svg xmlns="http://www.w3.org/2000/svg" width="64" height="64"><path d="M32 5A28 28 0 0 0 4 33a28 28 0 0 0 28 28 28 28 0 0 0 28-28A28 28 0 0 0 32 5" style="opacity:.2"/><path d="M32 4A28 28 0 0 0 4 32a28 28 0 0 0 28 28 28 28 0 0 0 28-28A28 28 0 0 0 32 4" style="fill:#3f3f3f"/><path d="M38 36.1v2.1L35.2 41h-6.4L26 38.2V26.8l2.8-2.8h6.4l2.8 2.8.06 5.2H27.2" style="opacity:.2;fill:none;stroke:#000;stroke-width:4"/><path d="M38 35.1v2.1L35.2 40h-6.4L26 37.2V25.8l2.8-2.8h6.4l2.8 2.8.06 5.2H27.2" style="fill:none;stroke:#eaeaeb;stroke-width:4"/><path d="M16.5 17.5v31h31v-31z" style="opacity:.2;fill:none;stroke:#000;stroke-width:3"/><path d="M16.5 16.5v31h31v-31z" style="fill:none;stroke:#eaeaeb;stroke-width:3"/><path d="M32 4A28 28 0 0 0 4 32l.021.414A28 28 0 0 1 32 5a28 28 0 0 1 27.979 27.586A28 28 0 0 0 60 32 28 28 0 0 0 32 4" style="fill:#fff;opacity:.1"/></svg>