<svg xmlns="http://www.w3.org/2000/svg" width="64" height="64"><path d="M32.129 2.999c-.054-.001-.107.007-.16.008l-.098.004a6.6 6.6 0 0 0-3.168.867L9.297 15.08a6.56 6.56 0 0 0-2.305 2.273l-.011-.007c-.023.036-.038.076-.06.113-.022.039-.051.074-.073.113l.011.008A6.56 6.56 0 0 0 6 20.796v22.406c0 1.15.32 2.245.867 3.21.044.078.079.16.125.235l.028-.015c.197.325.398.651.652.937l.121.145c.108.115.223.22.34.328a7 7 0 0 0 .226.199c.108.09.215.182.329.266a7 7 0 0 0 .609.406l19.406 11.203a6.6 6.6 0 0 0 3.168.875v.008a6.6 6.6 0 0 0 3.426-.883l19.406-11.203a6.6 6.6 0 0 0 2.316-2.266l.004.004.07-.125.06-.101-.005-.004A6.6 6.6 0 0 0 58 43.2V20.797a7 7 0 0 0-.055-.785 7 7 0 0 0-.035-.25 7 7 0 0 0-.098-.497 7 7 0 0 0-.09-.332 7 7 0 0 0-.124-.367c-.046-.127-.088-.255-.141-.379l-.02-.05-.004.003a7 7 0 0 0-.425-.789l-.02.012c-.56-.921-1.319-1.723-2.285-2.281L35.297 3.878a6.6 6.6 0 0 0-3.14-.88z" style="opacity:.2"/><path d="M32.129 2.002c-.079-.002-.156.01-.234.012h-.024a6.6 6.6 0 0 0-3.17.865L9.3 14.084a6.6 6.6 0 0 0-2.453 2.488l12.086 6.932L32 31l13.068-7.496 12.067-6.92a6.55 6.55 0 0 0-2.434-2.5L35.3 2.879a6.6 6.6 0 0 0-3.145-.877l-.025.002z" style="fill:#8d7cae"/><path d="M6.982 16.35A6.6 6.6 0 0 0 6 19.797v22.408c0 1.15.32 2.244.867 3.211h-.002l.012.018c.04.07.07.146.113.214l.016-.007c.197.325.41.64.664.927l.125.145q.162.172.338.332a7 7 0 0 0 .226.197c.108.09.213.18.327.264a7 7 0 0 0 .613.408L28.7 59.117a6.6 6.6 0 0 0 3.428.873l-.06-13.88L32 31l-13-7.613z" style="fill:#6e59a4"/><path d="M57.01 16.352 45 23.387 32 31l-.068 15.11-.06 13.888a6.6 6.6 0 0 0 3.427-.88L54.7 47.913a6.6 6.6 0 0 0 2.317-2.264l.005.004.079-.142.048-.084-.002-.002a6.6 6.6 0 0 0 .852-3.22v-22.41a7 7 0 0 0-.053-.784q-.016-.126-.037-.25a7 7 0 0 0-.1-.494 7 7 0 0 0-.087-.336 7 7 0 0 0-.123-.366c-.046-.127-.088-.254-.141-.378l-.023-.051-.002.002a7 7 0 0 0-.424-.787" style="fill:#65319e"/><path d="m32 13.515 16 9.24V41.16L32 50.4l-16-9.24V22.756Z" style="opacity:.2"/><path d="m32 12.515 16 9.24V40.16L32 49.4l-16-9.24V21.756z" style="fill:#ed75ff"/><path d="m32 12.515 16 9.24V40.16L32 49.4Z" style="fill:#e141ff"/><path d="m32 12.515-16 9.24 16 9.241 16-9.24Z" style="fill:#fca2ae"/><path d="M32.129 2c-.054-.001-.107.008-.16.008l-.098.004a6.6 6.6 0 0 0-3.168.867L9.297 14.082a6.56 6.56 0 0 0-2.305 2.273l-.012-.007c-.022.036-.037.076-.058.113-.023.039-.052.074-.074.113l.011.008A6.56 6.56 0 0 0 6 19.797v1c0-1.149.316-2.247.86-3.215l-.012-.008c.022-.04.051-.074.074-.113.021-.037.036-.077.058-.113l.012.007a6.56 6.56 0 0 1 2.305-2.273L28.703 3.879a6.6 6.6 0 0 1 3.168-.867l.098-.004c.053 0 .106-.01.16-.008h.027a6.6 6.6 0 0 1 3.14.879l19.407 11.203c.966.558 1.725 1.36 2.285 2.281l.02-.011c.155.254.305.515.426.789l.003-.004.02.05c.053.125.095.252.14.38a7 7 0 0 1 .126.367q.049.164.09.332a7 7 0 0 1 .097.496q.02.124.035.25a7 7 0 0 1 .055.785v-1a7 7 0 0 0-.055-.785 7 7 0 0 0-.035-.25 7 7 0 0 0-.097-.496 7 7 0 0 0-.09-.332 7 7 0 0 0-.125-.368c-.046-.127-.087-.254-.141-.378l-.02-.051-.003.004a7 7 0 0 0-.426-.79l-.02.012c-.56-.921-1.319-1.723-2.285-2.281L35.297 2.879A6.6 6.6 0 0 0 32.157 2z" style="fill:#fff;opacity:.2"/></svg>