<svg xmlns="http://www.w3.org/2000/svg" width="64" height="64"><path d="M4 50v2c0 1.662 1.338 3 3 3h50c1.662 0 3-1.338 3-3v-2c0 1.662-1.338 3-3 3H7c-1.662 0-3-1.338-3-3" style="opacity:.2"/><rect width="44" height="56" x="-54" y="-60" rx="3" ry="3" style="fill:#325f78" transform="rotate(90)scale(-1 1)"/><rect width="36" height="48" x="-50" y="-56" rx="0" ry="0" style="opacity:.2" transform="rotate(90)scale(-1 1)"/><path d="M7 9.998c-1.662 0-3 1.338-3 3V14c0-1.662 1.338-3 3-3h50c1.662 0 3 1.338 3 3v-1.002c0-1.662-1.338-3-3-3z" style="opacity:.1;fill:#fff"/><path d="M9.75 19a.75.75 0 0 0-.75.75v4.5c0 .416.334.75.75.75h4.5c.416 0 .75-.334.75-.75v-4.5a.75.75 0 0 0-.75-.75Zm10 0a.75.75 0 0 0-.75.75v4.5c0 .416.334.75.75.75h4.5c.416 0 .75-.334.75-.75v-4.5a.75.75 0 0 0-.75-.75Zm10 0a.75.75 0 0 0-.75.75v4.5c0 .416.334.75.75.75h4.5c.416 0 .75-.334.75-.75v-4.5a.75.75 0 0 0-.75-.75Zm10 0a.75.75 0 0 0-.75.75v4.5c0 .416.334.75.75.75h4.5c.416 0 .75-.334.75-.75v-4.5a.75.75 0 0 0-.75-.75Zm10 0a.75.75 0 0 0-.75.75v4.5c0 .416.334.75.75.75h4.5c.416 0 .75-.334.75-.75v-4.5a.75.75 0 0 0-.75-.75Zm-40 10a.75.75 0 0 0-.75.75v4.5c0 .416.334.75.75.75h4.5c.416 0 .75-.334.75-.75v-4.5a.75.75 0 0 0-.75-.75Zm10 0a.75.75 0 0 0-.75.75v4.5c0 .416.334.75.75.75h4.5c.416 0 .75-.334.75-.75v-4.5a.75.75 0 0 0-.75-.75Zm10 0a.75.75 0 0 0-.75.75v4.5c0 .416.334.75.75.75h4.5c.416 0 .75-.334.75-.75v-4.5a.75.75 0 0 0-.75-.75Zm10 0a.75.75 0 0 0-.75.75v4.5c0 .416.334.75.75.75h4.5c.416 0 .75-.334.75-.75v-4.5a.75.75 0 0 0-.75-.75Zm10 0a.75.75 0 0 0-.75.75v4.5c0 .416.334.75.75.75h4.5c.416 0 .75-.334.75-.75v-4.5a.75.75 0 0 0-.75-.75Zm-30 10a.75.75 0 0 0-.75.75v4.5c0 .416.334.75.75.75h24.5c.416 0 .75-.334.75-.75v-4.5a.75.75 0 0 0-.75-.75Z" style="opacity:.2"/><path d="M9.75 18a.75.75 0 0 0-.75.75v4.5c0 .416.334.75.75.75h4.5c.416 0 .75-.334.75-.75v-4.5a.75.75 0 0 0-.75-.75zm10 0a.75.75 0 0 0-.75.75v4.5c0 .416.334.75.75.75h4.5c.416 0 .75-.334.75-.75v-4.5a.75.75 0 0 0-.75-.75zm10 0a.75.75 0 0 0-.75.75v4.5c0 .416.334.75.75.75h4.5c.416 0 .75-.334.75-.75v-4.5a.75.75 0 0 0-.75-.75zm10 0a.75.75 0 0 0-.75.75v4.5c0 .416.334.75.75.75h4.5c.416 0 .75-.334.75-.75v-4.5a.75.75 0 0 0-.75-.75zm10 0a.75.75 0 0 0-.75.75v4.5c0 .416.334.75.75.75h4.5c.416 0 .75-.334.75-.75v-4.5a.75.75 0 0 0-.75-.75zm-40 10a.75.75 0 0 0-.75.75v4.5c0 .416.334.75.75.75h4.5c.416 0 .75-.334.75-.75v-4.5a.75.75 0 0 0-.75-.75zm10 0a.75.75 0 0 0-.75.75v4.5c0 .416.334.75.75.75h4.5c.416 0 .75-.334.75-.75v-4.5a.75.75 0 0 0-.75-.75zm10 0a.75.75 0 0 0-.75.75v4.5c0 .416.334.75.75.75h4.5c.416 0 .75-.334.75-.75v-4.5a.75.75 0 0 0-.75-.75zm10 0a.75.75 0 0 0-.75.75v4.5c0 .416.334.75.75.75h4.5c.416 0 .75-.334.75-.75v-4.5a.75.75 0 0 0-.75-.75zm10 0a.75.75 0 0 0-.75.75v4.5c0 .416.334.75.75.75h4.5c.416 0 .75-.334.75-.75v-4.5a.75.75 0 0 0-.75-.75zm-30 10a.75.75 0 0 0-.75.75v4.5c0 .416.334.75.75.75h24.5c.416 0 .75-.334.75-.75v-4.5a.75.75 0 0 0-.75-.75z" style="fill:#fff"/></svg>