<svg xmlns="http://www.w3.org/2000/svg" width="64" height="64"><path d="M32 5c-7.732 0-14 6.268-14 14a14 14 0 0 0 5.53 11.123c-9.793 11.306-13.425 24.516-13.425 24.516a2.8 2.8 0 0 0 1.368 3.226s1.773.912 5.05 1.664C19.801 60.282 24.813 61 32 61s12.199-.718 15.477-1.47c3.277-.753 5.05-1.665 5.05-1.665a2.8 2.8 0 0 0 1.368-3.226s-3.63-13.205-13.418-24.51A14 14 0 0 0 46 19c0-7.732-6.268-14-14-14" style="opacity:.2"/><path d="M32 4c-7.732 0-14 6.268-14 14a14 14 0 0 0 5.53 11.123c-9.793 11.306-13.425 24.516-13.425 24.516a2.8 2.8 0 0 0 1.368 3.226s1.773.912 5.05 1.664C19.801 59.282 24.813 60 32 60s12.199-.718 15.477-1.47c3.277-.753 5.05-1.665 5.05-1.665a2.8 2.8 0 0 0 1.368-3.226s-3.63-13.205-13.418-24.51A14 14 0 0 0 46 18c0-7.732-6.268-14-14-14" style="fill:#11acd7"/><path d="M32 37.2c-7 0-7 8.4-7 8.4 0 1.4 0 8.4 7.7 8.4 4.9 0 6.3-2 6.3-2v-3s-1 2-6.3 2c-3.5 0-3.5-4-3.5-4H39v-3s0-6.8-7-6.8m0 2.8c2.8 0 3 4 3 4h-6s.2-4 3-4" style="opacity:.2"/><path d="M32 36.2c-7 0-7 8.4-7 8.4 0 1.4 0 8.4 7.7 8.4 4.9 0 6.3-2 6.3-2v-3s-1 2-6.3 2c-3.5 0-3.5-4-3.5-4H39v-3s0-6.8-7-6.8m0 2.8c2.8 0 3 4 3 4h-6s.2-4 3-4" style="fill:#fff"/><path d="M32 4c-7.732 0-14 6.268-14 14 0 .154.022.304.027.457C18.315 10.979 24.451 5 32 5s13.687 5.98 13.973 13.46c.005-.153.027-.305.027-.46 0-7.732-6.268-14-14-14m-8.955 25.709c-9.418 11.172-12.94 23.93-12.94 23.93-.12.424-.127.855-.05 1.267.016-.089.025-.179.05-.267 0 0 3.632-13.21 13.424-24.516-.17-.13-.32-.278-.484-.414m17.914.006c-.163.136-.313.285-.482.414 9.788 11.305 13.418 24.51 13.418 24.51.025.088.034.178.05.267.077-.412.07-.843-.05-1.267 0 0-3.522-12.753-12.936-23.924" style="opacity:.2;fill:#fff"/></svg>