<svg xmlns="http://www.w3.org/2000/svg" width="64" height="64"><path d="M61 33a29 29 0 0 1-28.977 29A29 29 0 0 1 3 33.046 29 29 0 0 1 31.93 4 29 29 0 0 1 61 32.908" style="opacity:.2"/><path d="M61 32a29 29 0 0 1-28.977 29A29 29 0 0 1 3 32.046 29 29 0 0 1 31.93 3 29 29 0 0 1 61 31.908" style="fill:#fb8c15"/><g style="fill:#c04500"><path d="M9.452 8.557c-1.361 5.595-3.657 4.47-3.657 4.47-.375-.31-.238-2.205.125-2.688.483.02.888.277 1.657-2.094.76-2.343.216-2.667-.313-2.938-.03-.989.709-2.114 1.25-2.375 0 0 2.292.06.938 5.625M7.613 2.56c-.587.663-.964 1.526-1.218 2.437 0 0-1.025-.726-.483-1.842.555-1.14 1.701-.595 1.701-.595m-2.497 7.598q-.633 1.186-.167 2.72s-1.08.097-1.142-1.45c-.061-1.548 1.309-1.27 1.309-1.27" style="fill:#c04500;fill-rule:evenodd" transform="matrix(3.95093 0 0 3.9291 5.966 1.454)"/></g><path d="M10.674 35.275c.558-2.397.32-9.168 2.02-8.357s2.965 11.21 4.57 12.262c1.607 1.052.81-5.817 1.855-8.333s1 .478 2.323-1.44 1.506-8.602 2.97-6.231c1.463 2.371 1.292 12.36 2.883 15.324s1.837-3.665 3.48-3.776c1.641-.111 2.14 4.262 3.09 3.45.949-.81.095-3.148.706-6.588.61-3.44.074-8.157 1.735-6.522s2.962 10.79 4.912 12.863.688-4.477 2.889-5.045 4.437 2.205 5.916 2.974" style="opacity:.2;fill:none;stroke:#060500;stroke-width:1.5;stroke-linecap:round;stroke-linejoin:round"/><path d="M10.674 34.275c.558-2.397.32-9.168 2.02-8.357s2.965 11.21 4.57 12.262c1.607 1.052.81-5.817 1.855-8.333s1 .478 2.323-1.44 1.506-8.602 2.97-6.23c1.463 2.37 1.292 12.36 2.883 15.323s1.837-3.665 3.48-3.776c1.641-.111 2.14 4.262 3.09 3.451s.095-3.149.706-6.589c.61-3.44.074-8.157 1.735-6.522s2.962 10.79 4.912 12.863.688-4.477 2.889-5.045 4.437 2.205 5.916 2.974" style="fill:none;stroke:#fff18f;stroke-width:1.5;stroke-linecap:round;stroke-linejoin:round"/><path d="M52 35a3 3 0 0 1-2.997 3A3 3 0 0 1 46 35.005 3 3 0 0 1 48.993 32 3 3 0 0 1 52 34.99" style="opacity:.2"/><path d="M52 34a3 3 0 0 1-2.997 3A3 3 0 0 1 46 34.005 3 3 0 0 1 48.993 31 3 3 0 0 1 52 33.99" style="fill:#fff"/><path d="M31.93 3A29 29 0 0 0 3 32.047l.018.473A29 29 0 0 1 31.93 4a29 29 0 0 1 29.047 28.46L61 32v-.094A29 29 0 0 0 31.93 3" style="opacity:.2;fill:#fff"/></svg>