<svg xmlns="http://www.w3.org/2000/svg" width="64" height="64"><rect width="19.598" height="65.326" x="-9.09" y="-78.63" rx="4.899" ry="4.899" style="opacity:.2" transform="rotate(135)"/><rect width="19.598" height="65.326" x="-9.8" y="-77.92" rx="4.899" ry="4.899" style="fill:#ccc" transform="rotate(135)"/><rect width="19.598" height="65.326" x="36.16" y="-31.96" rx="4.899" ry="4.899" style="opacity:.2" transform="rotate(45)"/><rect width="19.598" height="65.326" x="35.46" y="-32.66" rx="4.899" ry="4.899" style="fill:#e4e4e4" transform="rotate(45)"/><path d="M15.832 4c-.199 0-.396.033-.594.057L32 29.2 48.762 4.055C48.564 4.03 48.367 4 48.168 4a4.88 4.88 0 0 0-3.464 1.438L32 18.142 19.296 5.438A4.88 4.88 0 0 0 15.832 4M32 34.8 15.238 59.945c.198.024.395.055.594.055a4.88 4.88 0 0 0 3.464-1.438L32 45.858l12.704 12.704A4.88 4.88 0 0 0 48.168 60c.199 0 .396-.03.594-.055z" style="fill:#4f4f4f"/><path d="M15.832 4a4.9 4.9 0 0 0-3.465 1.441l-6.926 6.926a4.87 4.87 0 0 0-1.4 3.97 4.85 4.85 0 0 1 1.4-2.97l6.926-6.926a4.887 4.887 0 0 1 6.93 0L32 19.145 44.703 6.44a4.89 4.89 0 0 1 6.93 0l6.926 6.926a4.85 4.85 0 0 1 1.4 2.97 4.87 4.87 0 0 0-1.4-3.97L51.633 5.44a4.89 4.89 0 0 0-6.93 0L32 18.145 19.297 5.44A4.9 4.9 0 0 0 15.832 4m1.313 29L5.44 44.703a4.87 4.87 0 0 0-1.4 3.97 4.85 4.85 0 0 1 1.4-2.97L17.145 34l.5.5.5-.5zm29.71 0-1 1 .5.5.5-.5L58.56 45.703a4.85 4.85 0 0 1 1.4 2.97 4.87 4.87 0 0 0-1.4-3.97z" style="opacity:.1;fill:#fff"/></svg>