<svg xmlns="http://www.w3.org/2000/svg" xmlns:xlink="http://www.w3.org/1999/xlink" width="64" height="64"><defs><filter id="c" width="1.202" height="1.225" x="-.101" y="-.113" style="color-interpolation-filters:sRGB"><feGaussianBlur stdDeviation="2.124"/></filter><filter id="d" width="1.258" height="1.315" x="-.129" y="-.157" style="color-interpolation-filters:sRGB"><feGaussianBlur stdDeviation="2.124"/></filter><filter id="e" width="1.277" height="1.339" x="-.139" y="-.17" style="color-interpolation-filters:sRGB"><feGaussianBlur stdDeviation="2.307"/></filter><filter id="g" width="1.223" height="1.318" x="-.109" y="-.16" style="color-interpolation-filters:sRGB"><feGaussianBlur stdDeviation="2.124"/></filter><filter id="i" width="1.223" height="1.318" x="-.114" y="-.16" style="color-interpolation-filters:sRGB"><feGaussianBlur stdDeviation="2.124"/></filter><radialGradient xlink:href="#a" id="b" cx="32.458" cy="50.789" r="27.999" fx="32.458" fy="50.789" gradientTransform="rotate(-45 8.514 87.697)scale(1.65272 1.48736)" gradientUnits="userSpaceOnUse"/><radialGradient xlink:href="#a" id="f" cx="33.636" cy="46.491" r="25.999" fx="33.636" fy="46.491" gradientTransform="rotate(195 87.877 105.326)scale(4.6602 3.22629)" gradientUnits="userSpaceOnUse"/><radialGradient xlink:href="#a" id="h" cx="35.059" cy="55.803" r="25.999" fx="35.059" fy="55.803" gradientTransform="rotate(-15 -208.582 343.85)scale(3.4639 2.39809)" gradientUnits="userSpaceOnUse"/><linearGradient id="a"><stop offset="0" style="stop-color:#00c88f;stop-opacity:1"/><stop offset="1" style="stop-color:#008b68;stop-opacity:1"/></linearGradient></defs><path d="M7.489 23.546c-.053.034-.1.074-.15.112l-.03.023v.004a2.55 2.55 0 0 0-.989 2.013v22.377c0 3.668 2.893 3.668 3.669 3.668H54.01s3.669 0 3.669-3.668V25.698c0-.84-.407-1.578-1.029-2.046l.011-.014-24.66-18.116S7.339 23.661 7.489 23.548z" style="fill:url(#b);stroke-width:.917163"/><path d="M7.489 23.44c-.053.034-.1.074-.15.112l-.03.023v.004a2.55 2.55 0 0 0-.989 2.013V47.97c0 3.668 2.893 3.668 3.669 3.668H54.01s3.669 0 3.669-3.668V25.592c0-.84-.407-1.578-1.029-2.046l.011-.015-24.66-18.115S7.339 23.555 7.489 23.442z" style="fill:none;stroke:#000;stroke-width:.2;stroke-dasharray:none;stroke-opacity:1;filter:url(#c)"/><rect width="40.354" height="33.017" x="11.823" y="10.916" rx="2.751" ry="2.75" style="fill:none;stroke:#000;stroke-width:.2;stroke-dasharray:none;stroke-opacity:1;filter:url(#d)"/><path d="M14.607 10.953A2.74 2.74 0 0 0 11.86 13.7v27.467a2.74 2.74 0 0 0 2.748 2.744h34.786a2.74 2.74 0 0 0 2.746-2.744V13.699a2.74 2.74 0 0 0-2.746-2.746zm17.313 4.178a6.365 6.365 0 0 1 6.365 6.365v1.818h.78c.252 0 .491.053.712.14l-6.191 6.173s-.485.473-1.182.705-1.497.288-2.492-.705l-6.08-6.06c.28-.156.6-.253.943-.253h.78v-1.818a6.365 6.365 0 0 1 6.365-6.365m0 1.818a4.52 4.52 0 0 0-4.547 4.547v1.818h9.094v-1.818a4.52 4.52 0 0 0-4.547-4.547m8.838 7.36c.159.281.256.601.256.949v6.115c0 .789-.47 1.462-1.145 1.768l-4.164-3.793zm-17.791.226 4.931 4.918-4.013 3.643a1.94 1.94 0 0 1-1.059-1.723v-6.115c0-.256.051-.5.14-.723m11.818 5.729 3.244 3.052H25.68l3.137-2.945.178.174c1.301 1.298 2.797 1.355 3.822 1.014a4.7 4.7 0 0 0 1.688-1.014z" style="fill:#ebebeb;stroke-width:.915474"/><path d="M14.607 10.954a2.74 2.74 0 0 0-2.747 2.745v27.467a2.74 2.74 0 0 0 2.747 2.743h34.786a2.74 2.74 0 0 0 2.746-2.743V13.7a2.74 2.74 0 0 0-2.746-2.745zM32 16.447v.002a9.154 9.154 0 0 1 9.153 9.154v2.747a2.74 2.74 0 0 1-2.747 2.746 2.74 2.74 0 0 1-2.505-1.632A5.5 5.5 0 0 1 32 31.094a5.493 5.493 0 0 1-5.493-5.493A5.493 5.493 0 0 1 32 20.11a5.493 5.493 0 0 1 5.493 5.492v2.747c0 .507.408.915.915.915a.913.913 0 0 0 .916-.915V25.6A7.324 7.324 0 0 0 32 18.278a7.324 7.324 0 0 0-7.324 7.323A7.324 7.324 0 0 0 32 32.925h6.408c.507 0 .916.409.916.916a.913.913 0 0 1-.916.915H32a9.154 9.154 0 0 1-9.155-9.155A9.154 9.154 0 0 1 32 16.447zm0 5.493a3.66 3.66 0 0 0-3.662 3.662A3.66 3.66 0 0 0 32 29.263a3.66 3.66 0 0 0 3.662-3.661A3.66 3.66 0 0 0 32 21.94z" style="fill:none;stroke:#000;stroke-width:.1;stroke-dasharray:none;stroke-opacity:1;filter:url(#e)"/><path d="m6.32 25.697 47.691 33.017H9.99c-1.834 0-3.669-.907-3.669-3.628Z" style="fill:url(#f);stroke-width:.917163"/><path d="m6.32 25.591 47.691 33.017H9.99c-1.834 0-3.669-.907-3.669-3.628Z" style="fill:none;stroke:#000;stroke-width:.2;stroke-dasharray:none;stroke-opacity:1;filter:url(#g)"/><path d="M54.011 58.714c3.669 0 3.669-3.628 3.669-3.628V25.697L9.989 58.714Z" style="fill:url(#h);stroke-width:.917163"/><path d="M54.011 58.608c3.669 0 3.669-3.628 3.669-3.628V25.59L9.989 58.608Z" style="fill:none;stroke:#000;stroke-width:.2;stroke-dasharray:none;stroke-opacity:1;filter:url(#i)"/></svg>