<svg xmlns="http://www.w3.org/2000/svg" xmlns:xlink="http://www.w3.org/1999/xlink" width="64" height="64"><defs><filter id="d" width="1.066" height="1.06" x="-.033" y="-.03" style="color-interpolation-filters:sRGB"><feGaussianBlur stdDeviation=".441"/></filter><filter id="c" width="1.138" height="1.138" x="-.069" y="-.069" style="color-interpolation-filters:sRGB"><feGaussianBlur stdDeviation="1.523"/></filter><radialGradient xlink:href="#a" id="b" cx="10.18" cy="49.039" r="28" fx="10.18" fy="49.039" gradientTransform="rotate(26.61 210.448 48.942)scale(3.08827 2.82907)" gradientUnits="userSpaceOnUse"/><linearGradient id="a"><stop offset="0" style="stop-color:#65d7c0;stop-opacity:1"/><stop offset="1" style="stop-color:#4b6dff;stop-opacity:1"/></linearGradient></defs><path d="M32 4A28 28 0 0 0 4 32a28 28 0 0 0 28 28 28 28 0 0 0 28-28A28 28 0 0 0 32 4" style="fill:url(#b)"/><path d="M32.86 10.004a3 3 0 0 0-2.458 1.496 3 3 0 0 0 1.098 4.098 3 3 0 0 0 3.063-.08c.915.985 1.744 2.253 2.468 3.716-3.753 1.256-7.813 3.346-11.449 5.885-2.342 1.636-4.237 3.693-5.713 5.902-.067-.082-.138-.164-.203-.248-2.966-3.77-4.21-7.843-3.158-10.357.546-1.304 1.297-1.866 2.24-2.156s2.123-.235 3.283.023c2.32.516 4.432 1.774 4.432 1.774a1 1 0 0 0 1.373-.34 1 1 0 0 0-.34-1.373s-2.298-1.406-5.031-2.014a10.7 10.7 0 0 0-2.127-.27 7 7 0 0 0-2.18.288c-1.435.442-2.753 1.523-3.496 3.297-1.524 3.64.215 8.275 3.432 12.365q.327.416.676.824c-1.334 2.438-2.18 4.97-2.55 7.289A3 3 0 0 0 14 43a3 3 0 0 0 3 3 3 3 0 0 0 3-3 3 3 0 0 0-1.762-2.727c.329-1.824 1-3.85 2.01-5.843 3.05 3.052 6.984 5.59 11.266 6.752 2.606.706 5.269.879 7.738.771a23 23 0 0 1-.648 2.328c-.643 1.889-1.493 3.405-2.47 4.387-.976.982-2.022 1.454-3.323 1.402-2.87-.114-4.494-1.426-5.512-2.742-1.018-1.315-1.328-2.566-1.328-2.566a1 1 0 0 0-1.21-.733 1 1 0 0 0-.732 1.21s.406 1.657 1.688 3.314c1.282 1.656 3.54 3.378 7.013 3.515 1.87.075 3.54-.7 4.823-1.99s2.235-3.07 2.943-5.154c.333-.978.61-2.026.836-3.125 2.038-.22 3.87-.605 5.318-.994a3 3 0 0 0 3.85.793 3 3 0 0 0 1.098-4.098A3 3 0 0 0 48.93 36a3 3 0 0 0-1.43.402 3 3 0 0 0-1.473 2.467 36 36 0 0 1-4.334.817c.423-3.057.482-6.406.194-9.743-.29-3.347-.972-6.603-2.045-9.447l.088-.023c2.015-.49 3.803-.628 5.117-.4 1.314.226 2.09.728 2.516 1.616 2.029 4.236-1.344 8.872-1.344 8.872a1 1 0 0 0 .203 1.4 1 1 0 0 0 1.398-.201s4.171-5.453 1.545-10.934c-.738-1.54-2.248-2.426-3.978-2.724-.865-.15-1.8-.176-2.793-.098s-2.044.26-3.137.525q-.203.05-.408.106c-.875-1.846-1.938-3.458-3.2-4.713a3 3 0 0 0-1.349-3.52 3 3 0 0 0-1.64-.398m4.988 11.07c1.044 2.66 1.766 5.786 2.047 9.041.29 3.372.196 6.766-.26 9.77-2.453.156-5.108.04-7.598-.635-4.045-1.097-7.881-3.64-10.766-6.64 1.382-2.208 3.198-4.275 5.456-5.852 3.541-2.474 7.55-4.508 11.12-5.684M32 28c-2.196 0-4 1.804-4 4s1.804 4 4 4 4-1.804 4-4-1.804-4-4-4" style="color:#000;fill:#fff;stroke-linecap:round;-inkscape-stroke:none"/><path d="M31.893 3.927a28 28 0 0 0-28 28 28 28 0 0 0 28 28 28 28 0 0 0 28-28 28 28 0 0 0-28-28z" style="fill:none;stroke:#000;stroke-opacity:1;stroke-width:.39999991;stroke-dasharray:none;filter:url(#c)"/><path d="M32.753 9.93a3 3 0 0 0-2.457 1.497 3 3 0 0 0 1.097 4.097 3 3 0 0 0 3.063-.08c.915.985 1.745 2.253 2.469 3.717-3.754 1.256-7.814 3.345-11.45 5.885-2.342 1.636-4.237 3.692-5.712 5.902-.067-.083-.138-.165-.204-.248-2.966-3.771-4.21-7.843-3.158-10.357.546-1.304 1.297-1.866 2.24-2.157s2.124-.234 3.284.024c2.32.516 4.431 1.773 4.431 1.773a1 1 0 0 0 1.373-.34 1 1 0 0 0-.34-1.373s-2.298-1.406-5.03-2.013a10.7 10.7 0 0 0-2.128-.27 7 7 0 0 0-2.18.287c-1.434.442-2.753 1.524-3.496 3.297-1.524 3.641.216 8.276 3.432 12.365q.328.416.676.825c-1.334 2.437-2.18 4.97-2.549 7.289a3 3 0 0 0-2.22 2.877 3 3 0 0 0 3 3 3 3 0 0 0 3-3 3 3 0 0 0-1.762-2.727c.328-1.824 1-3.85 2.01-5.844 3.05 3.052 6.983 5.59 11.265 6.752 2.606.707 5.27.88 7.738.772a23 23 0 0 1-.648 2.328c-.642 1.889-1.493 3.405-2.469 4.387s-2.023 1.453-3.324 1.402c-2.869-.114-4.494-1.427-5.512-2.742-1.018-1.316-1.328-2.567-1.328-2.567a1 1 0 0 0-1.209-.732 1 1 0 0 0-.732 1.209s.405 1.658 1.687 3.314 3.54 3.378 7.014 3.516c1.87.074 3.54-.7 4.822-1.99s2.235-3.071 2.943-5.155c.333-.977.61-2.025.836-3.125a35.4 35.4 0 0 0 5.319-.994 3 3 0 0 0 3.85.793 3 3 0 0 0 1.097-4.097 3 3 0 0 0-2.668-1.5 3 3 0 0 0-1.43.402 3 3 0 0 0-1.472 2.467 36 36 0 0 1-4.334.816c.422-3.056.481-6.405.193-9.742-.289-3.347-.972-6.603-2.045-9.447l.088-.024c2.015-.489 3.803-.627 5.117-.4s2.09.729 2.516 1.617c2.03 4.236-1.344 8.871-1.344 8.871a1 1 0 0 0 .203 1.4 1 1 0 0 0 1.399-.2s4.17-5.453 1.545-10.934c-.739-1.541-2.249-2.426-3.979-2.725-.865-.15-1.8-.176-2.793-.098a20 20 0 0 0-3.137.526q-.203.051-.408.105c-.875-1.845-1.938-3.457-3.199-4.713a3 3 0 0 0-1.35-3.52 3 3 0 0 0-1.64-.398ZM37.74 21c1.045 2.66 1.766 5.787 2.047 9.042.29 3.372.196 6.766-.26 9.77-2.453.156-5.108.04-7.598-.635-4.045-1.098-7.881-3.64-10.765-6.641 1.381-2.208 3.197-4.275 5.455-5.852 3.542-2.473 7.55-4.507 11.121-5.683zm-5.848 6.927c-2.195 0-4 1.804-4 4s1.805 4 4 4 4-1.805 4-4-1.804-4-4-4z" style="color:#000;fill:none;stroke-linecap:round;stroke:#4c6dff;stroke-opacity:1;stroke-width:.39999991;stroke-dasharray:none;filter:url(#d)"/></svg>