<svg xmlns="http://www.w3.org/2000/svg" width="64" height="64"><path d="M60 33a28 28 0 0 1-28 28A28 28 0 0 1 4 33 28 28 0 0 1 32 5a28 28 0 0 1 28 28" style="opacity:.2"/><path d="M60 32a28 28 0 0 1-28 28A28 28 0 0 1 4 32 28 28 0 0 1 32 4a28 28 0 0 1 28 28" style="fill:#73cd4d"/><path d="M37.635 13.078a.7.7 0 0 0 .002 1.399c2.69.265 5.8 2.312 8.26 4.91 2.459 2.597 4.257 5.755 4.552 7.842a.7.7 0 1 0 1.387-.198c-.373-2.631-2.32-5.856-4.924-8.607s-5.877-5.018-9.137-5.34l-.07-.006zm-1.008 3.602a.7.7 0 0 0-.057 1.394c2.64.375 5.059 2.026 6.924 4.157 1.865 2.13 3.157 4.735 3.578 6.818a.7.7 0 1 0 1.373-.277c-.485-2.398-1.876-5.153-3.898-7.463s-4.698-4.184-7.781-4.621a.7.7 0 0 0-.139-.008m-.97 3.293a.7.7 0 0 0-.17 1.365c4.56 1.535 6.605 4.789 8.156 8.615a.7.7 0 1 0 1.296-.525c-1.612-3.977-3.987-7.727-9.005-9.416a.7.7 0 0 0-.278-.04m-5.87.027c-.472.004-.984.27-1.63.79l-1.655 1.507 5.082 5.107 1.396-1.273c1.449-1.433 1.216-2.135.391-3.14l-2.2-2.21c-.483-.525-.912-.785-1.384-.78m-4.59 3.486-5.39 4.918c-2.773 2.142-4.892 5.225-5.608 8.418-.62 3.104.085 7.728 3.924 11.067 3.733 3.246 8.1 3.567 10.98 2.695s4.704-2.71 4.704-2.71l.105-.106 7.469-8.018-5.078-5.103-6.725 7.41c-2.879 3.171-5.379 1.545-6.758.375-1.587-1.61-2.649-4.616-.66-6.43l8.121-7.408zm15.43 7.372c-.66-.04-1.232.49-1.943 1.236l-1.178 1.262 5.078 5.103 1.336-1.433c1.61-1.583 1.158-2.152.328-3.104l-2.287-2.299c-.512-.513-.938-.741-1.334-.765" style="opacity:.1"/><path d="M29.787 19c-.472.004-.985.27-1.632.789l-1.654 1.508 5.083 5.108 1.396-1.273c1.449-1.433 1.215-2.137.39-3.142l-2.198-2.21c-.483-.525-.913-.784-1.385-.78m-4.59 3.486-5.39 4.917c-2.773 2.142-4.893 5.226-5.609 8.42-.62 3.103.086 7.726 3.926 11.065 3.733 3.246 8.1 3.568 10.979 2.696 2.88-.872 4.705-2.71 4.705-2.71q.053-.053.103-.107l7.47-8.017-5.078-5.103-6.726 7.41c-2.878 3.172-5.378 1.546-6.757.376-1.587-1.61-2.648-4.616-.66-6.43l8.12-7.409zm15.43 7.371c-.661-.04-1.232.492-1.944 1.237l-1.177 1.262 5.077 5.103 1.338-1.434c1.61-1.582 1.158-2.15.328-3.102l-2.288-2.3c-.512-.513-.939-.742-1.335-.766" style="fill:#1e5914"/><path d="M44.291 28.69c-1.581-3.901-3.791-7.403-8.582-9.015m12.05 8.235c-.906-4.48-5.367-10.718-11.09-11.529m14.473 9.749c-.668-4.719-7.487-12.764-13.436-13.35" style="fill:none;stroke:#1e5914;stroke-width:1.39999998px;stroke-linecap:round"/><path d="M32 4A28 28 0 0 0 4 32a28 28 0 0 0 .021.586A28 28 0 0 1 32 5a28 28 0 0 1 27.979 27.414L60 32A28 28 0 0 0 32 4" style="fill:#fff;opacity:.2"/></svg>