<svg xmlns="http://www.w3.org/2000/svg" width="64" height="64"><rect width="58" height="30" x="3" y="18" rx="4.143" ry="4.091" style="opacity:.2"/><rect width="58" height="30" x="3" y="17" rx="4.143" ry="4.091" style="fill:#0056c0"/><path d="M7.145 17C4.849 17 3 18.823 3 21.09v1C3 19.823 4.85 18 7.145 18h49.71C59.151 18 61 19.823 61 22.09v-1c0-2.267-1.85-4.09-4.145-4.09z" style="opacity:.1;fill:#fff"/><circle cx="32" cy="33" r="23" style="opacity:.2"/><circle cx="32" cy="32" r="23" style="fill:#0086f4"/><path d="M39.96 23.352c-1.355-3.44-4.749-3.75-8.701-2.982l-1.408-4.907-2.986.856 1.37 4.778c-.785.225-1.584.47-2.376.716l-1.38-4.81-2.984.856 1.405 4.906c-.643.199-1.274.393-1.893.57l-.005-.014-4.12 1.18.915 3.19s2.194-.675 2.169-.624c1.21-.346 1.805.243 2.093.816l1.604 5.59 2.25 7.853c.057.396.007 1.067-.838 1.311.048.023-2.171.622-2.171.622l.43 3.738 3.886-1.115c.724-.207 1.44-.399 2.14-.594l1.423 4.962 2.984-.855-1.408-4.91q1.234-.328 2.393-.662l1.4 4.888 2.987-.856-1.42-4.955c4.94-1.728 8.091-4 7.175-8.842-.736-3.898-3.008-5.08-6.055-4.947 1.479-1.378 2.116-3.243 1.12-5.759zm-1.136 11.81c1.065 3.709-5.407 5.108-7.43 5.69l-1.885-6.575c2.025-.58 8.206-2.983 9.315.886m-4.05-8.878c.967 3.374-4.442 4.499-6.128 4.983l-1.71-5.964c1.686-.484 6.829-2.539 7.838.98" style="opacity:.2"/><path d="M39.96 22.352c-1.355-3.44-4.749-3.75-8.701-2.982l-1.408-4.907-2.986.856 1.37 4.778c-.785.225-1.584.47-2.376.716l-1.38-4.81-2.984.856 1.405 4.906c-.643.199-1.274.393-1.893.57l-.005-.014-4.12 1.18.915 3.19s2.194-.675 2.169-.624c1.21-.346 1.805.243 2.093.816l1.604 5.59 2.25 7.853c.057.396.007 1.067-.838 1.311.048.023-2.171.622-2.171.622l.43 3.738 3.886-1.115c.724-.207 1.44-.399 2.14-.594l1.423 4.962 2.984-.855-1.408-4.91q1.234-.328 2.393-.662l1.4 4.888 2.987-.856-1.42-4.955c4.94-1.728 8.091-4 7.175-8.842-.736-3.898-3.008-5.08-6.055-4.947 1.479-1.378 2.116-3.243 1.12-5.759zm-1.136 11.81c1.065 3.709-5.407 5.108-7.43 5.69l-1.885-6.575c2.025-.58 8.206-2.983 9.315.886m-4.05-8.878c.967 3.374-4.442 4.499-6.128 4.983l-1.71-5.964c1.686-.484 6.829-2.539 7.838.98" style="fill:#fff"/><path d="M31.8 9A23 23 0 0 0 9 32a23 23 0 0 0 .006.48A23 23 0 0 1 31.8 10h.2a23 23 0 0 1 22.994 22.498A23 23 0 0 0 55 32 23 23 0 0 0 32 9z" style="opacity:.2;fill:#fff"/></svg>