<svg xmlns="http://www.w3.org/2000/svg" width="64" height="64"><circle cx="32" cy="33" r="28" style="opacity:.2"/><circle cx="32" cy="32" r="28" style="fill:#39c"/><path d="M24.725 9.055c-2.045-.047-3.995.395-5.74 1.402-3.757 2.17-5.692 6.483-5.985 11.576-4.263 2.8-7.031 6.63-7.031 10.967S8.737 41.167 13 43.967c.293 5.093 2.23 9.407 5.986 11.576 3.757 2.169 8.458 1.687 13.014-.605 4.556 2.291 9.26 2.774 13.016.605s5.69-6.482 5.982-11.574c4.264-2.8 7.033-6.63 7.033-10.969s-2.769-8.169-7.033-10.969c-.293-5.092-2.226-9.405-5.982-11.574-3.758-2.17-8.462-1.688-13.02.606-2.439-1.227-4.916-1.954-7.271-2.008m14.55 2.057c1.723-.045 3.318.324 4.711 1.128 2.69 1.553 4.33 4.576 4.832 8.512-2.38-1.238-5.118-2.206-8.103-2.853-2.053-2.26-4.256-4.148-6.518-5.59 1.763-.738 3.477-1.156 5.078-1.197m-14.55.002c1.6.041 3.312.457 5.074 1.195-2.262 1.442-4.465 3.33-6.518 5.59-2.984.648-5.721 1.615-8.101 2.853.502-3.935 2.147-6.96 4.836-8.512 1.393-.804 2.987-1.171 4.709-1.126m7.273 2.27c1.76.994 3.525 2.315 5.227 3.905A43 43 0 0 0 32 16.97c-1.79 0-3.539.11-5.229.32 1.702-1.59 3.467-2.91 5.227-3.906M32 19.03c2.673 0 5.234.269 7.633.745a39.3 39.3 0 0 1 4.465 6.24A39.3 39.3 0 0 1 47.27 33a39.3 39.3 0 0 1-3.172 6.985 39.3 39.3 0 0 1-4.463 6.24 39.3 39.3 0 0 1-7.635.744 39.3 39.3 0 0 1-7.635-.744 39.3 39.3 0 0 1-4.465-6.238A39.3 39.3 0 0 1 16.73 33a39.3 39.3 0 0 1 3.171-6.984 39.3 39.3 0 0 1 4.465-6.24A39.3 39.3 0 0 1 32 19.03m-10.994 1.59a43 43 0 0 0-2.889 4.366 43 43 0 0 0-2.336 4.689c-.526-2.27-.79-4.46-.771-6.482 1.742-1.027 3.768-1.894 5.996-2.573m21.986 0c2.228.679 4.254 1.546 5.996 2.573.018 2.022-.243 4.21-.77 6.48a43 43 0 0 0-2.335-4.685 43 43 0 0 0-2.89-4.368M28.1 23l-1.934 8.49-3.365.51L22 35l3.486-.53L24 41h14.5l1.4-4h-8.99l.791-3.47L35.2 33l.8-3-3.62.549L34.1 23zm22.916 1.557c3.157 2.403 4.953 5.338 4.953 8.443s-1.796 6.04-4.953 8.444c-.118-2.68-.65-5.534-1.58-8.442.932-2.91 1.461-5.764 1.58-8.445m-38.034.002c.119 2.68.649 5.533 1.58 8.441-.93 2.909-1.462 5.761-1.58 8.442-3.155-2.403-4.95-5.338-4.95-8.442s1.795-6.039 4.95-8.441m2.8 11.77a43 43 0 0 0 2.335 4.687 43 43 0 0 0 2.889 4.365c-2.228-.679-4.254-1.545-5.996-2.572-.018-2.023.245-4.211.771-6.48m32.437 0c.526 2.269.787 4.457.77 6.48-1.743 1.027-3.77 1.894-5.997 2.572a43 43 0 0 0 2.889-4.365 43 43 0 0 0 2.338-4.688m-33.04 8.92c2.38 1.237 5.118 2.205 8.102 2.853 2.053 2.26 4.256 4.145 6.518 5.588-3.658 1.53-7.095 1.62-9.783.068-2.689-1.552-4.334-4.575-4.836-8.51m33.64 0c-.503 3.934-2.146 6.957-4.835 8.509s-6.128 1.463-9.787-.068c2.262-1.442 4.465-3.328 6.518-5.588 2.985-.648 5.723-1.616 8.103-2.854M26.772 48.71c1.69.21 3.437.32 5.227.32s3.536-.11 5.225-.32c-1.703 1.59-3.466 2.91-5.227 3.906-1.76-.995-3.523-2.316-5.225-3.906" style="opacity:.2"/><path d="M24.725 8.055c-2.045-.047-3.995.394-5.74 1.402-3.757 2.169-5.692 6.483-5.985 11.576-4.263 2.8-7.031 6.63-7.031 10.967S8.737 40.167 13 42.967c.293 5.092 2.23 9.407 5.986 11.576 3.757 2.169 8.458 1.687 13.014-.605 4.556 2.291 9.26 2.773 13.016.605s5.69-6.482 5.982-11.574c4.264-2.8 7.033-6.631 7.033-10.969s-2.769-8.169-7.033-10.969c-.293-5.092-2.226-9.405-5.982-11.574-3.758-2.17-8.462-1.688-13.02.605-2.439-1.226-4.916-1.953-7.271-2.007m14.55 2.056c1.723-.044 3.318.325 4.711 1.13 2.69 1.552 4.33 4.575 4.832 8.511-2.38-1.238-5.118-2.206-8.103-2.854-2.053-2.26-4.256-4.147-6.518-5.59 1.763-.738 3.477-1.155 5.078-1.197m-14.55.002c1.6.042 3.312.458 5.074 1.196-2.262 1.442-4.465 3.329-6.518 5.59-2.984.647-5.721 1.615-8.101 2.853.502-3.935 2.147-6.96 4.836-8.512 1.393-.804 2.987-1.172 4.709-1.127m7.273 2.27c1.76.995 3.525 2.316 5.227 3.906A43 43 0 0 0 32 15.97c-1.79 0-3.539.11-5.229.32 1.702-1.59 3.467-2.91 5.227-3.906M32 18.03c2.673 0 5.234.269 7.633.744a39.3 39.3 0 0 1 4.465 6.24A39.3 39.3 0 0 1 47.27 32a39.3 39.3 0 0 1-3.172 6.984 39.3 39.3 0 0 1-4.463 6.24A39.3 39.3 0 0 1 32 45.97c-2.673 0-5.236-.269-7.635-.744a39.3 39.3 0 0 1-4.465-6.239A39.3 39.3 0 0 1 16.73 32a39.3 39.3 0 0 1 3.171-6.984 39.3 39.3 0 0 1 4.465-6.24A39.3 39.3 0 0 1 32 18.03m-10.994 1.59a43 43 0 0 0-2.889 4.365 43 43 0 0 0-2.336 4.69c-.526-2.27-.79-4.46-.771-6.483 1.742-1.026 3.768-1.893 5.996-2.572m21.986 0c2.228.679 4.254 1.546 5.996 2.572.018 2.023-.243 4.211-.77 6.48a43 43 0 0 0-2.335-4.685 43 43 0 0 0-2.89-4.367M28.1 22l-1.934 8.49-3.365.51L22 34l3.486-.53L24 40h14.5l1.4-4h-8.99l.791-3.47L35.2 32l.8-3-3.62.549L34.1 22zm22.916 1.557c3.157 2.403 4.953 5.338 4.953 8.443s-1.796 6.04-4.953 8.443c-.118-2.68-.65-5.533-1.58-8.441.932-2.91 1.461-5.764 1.58-8.445m-38.034.002c.119 2.68.649 5.533 1.58 8.441-.93 2.908-1.462 5.761-1.58 8.441-3.155-2.402-4.95-5.337-4.95-8.441s1.795-6.039 4.95-8.441m2.8 11.77a43 43 0 0 0 2.335 4.687 43 43 0 0 0 2.889 4.365c-2.228-.679-4.254-1.546-5.996-2.572-.018-2.023.245-4.212.771-6.48m32.437 0c.526 2.268.787 4.457.77 6.48-1.743 1.026-3.77 1.893-5.997 2.572a43 43 0 0 0 2.889-4.365 43 43 0 0 0 2.338-4.688m-33.04 8.919c2.38 1.238 5.118 2.206 8.102 2.854 2.053 2.26 4.256 4.145 6.518 5.587-3.658 1.532-7.095 1.62-9.783.069-2.689-1.552-4.334-4.575-4.836-8.51m33.64 0c-.503 3.935-2.146 6.958-4.835 8.51s-6.128 1.463-9.787-.069c2.262-1.442 4.465-3.327 6.518-5.587 2.985-.648 5.723-1.616 8.103-2.854M26.772 47.71c1.69.21 3.437.32 5.227.32s3.536-.11 5.225-.32c-1.703 1.59-3.466 2.91-5.227 3.906-1.76-.995-3.523-2.316-5.225-3.906" style="fill:#fff"/><path d="M32 4A28 28 0 0 0 4 32a28 28 0 0 0 .018.492A28 28 0 0 1 32 5a28 28 0 0 1 27.975 27.492A28 28 0 0 0 60 32 28 28 0 0 0 32 4" style="opacity:.2;fill:#fff"/></svg>