<svg xmlns="http://www.w3.org/2000/svg" width="64" height="64"><path d="M4 56v2c0 1.662 1.338 3 3 3h50c1.662 0 3-1.338 3-3v-2c0 1.662-1.338 3-3 3H7c-1.662 0-3-1.338-3-3" style="opacity:.2"/><rect width="56" height="56" x="4" y="4" rx="3" ry="3" style="fill:#225c66"/><path d="M7 4C5.338 4 4 5.338 4 7v1c0-1.662 1.338-3 3-3h50c1.662 0 3 1.338 3 3V7c0-1.662-1.338-3-3-3z" style="opacity:.1;fill:#fff"/><path d="m32 36 18-4 3-3H29L16.6 15 15 16.3l4 5.7v3l3 5-2 3C8.8 33 4 32 4 32v7s3.4-2.6 16-4l2 2-5 11 3 2 6-10 3 11h3z" style="opacity:.2"/><path d="m32 35 18-4 3-3H29L16.6 14 15 15.3l4 5.7v3l3 5-2 3C8.8 32 4 31 4 31v7s3.4-2.6 16-4l2 2-5 11 3 2 6-10 3 11h3z" style="fill:#fff"/></svg>