<svg xmlns="http://www.w3.org/2000/svg" xmlns:xlink="http://www.w3.org/1999/xlink" width="64" height="64"><defs><radialGradient id="b" cx="-159.431" cy="15.463" r="64.707" fx="-159.431" fy="15.463" gradientTransform="matrix(-1.15655 0 0 1.2457 -63.635 46.179)" gradientUnits="userSpaceOnUse"><stop offset="0" style="stop-color:#400cb0;stop-opacity:1"/><stop offset="1" style="stop-color:#a03cd5;stop-opacity:1"/></radialGradient><radialGradient xlink:href="#a" id="d" cx="-.35" cy="60.247" r="15" fx="-.35" fy="60.247" gradientTransform="matrix(5.60936 0 0 6.3573 .614 -317.864)" gradientUnits="userSpaceOnUse"/><filter id="c" width="1.142" height="1.142" x="-.071" y="-.071" style="color-interpolation-filters:sRGB"><feGaussianBlur stdDeviation="1.59"/></filter><filter id="e" width="1.133" height="1.118" x="-.067" y="-.059" style="color-interpolation-filters:sRGB"><feGaussianBlur stdDeviation=".791"/></filter><linearGradient id="a"><stop offset="0" style="stop-color:#67fff6;stop-opacity:1"/><stop offset="1" style="stop-color:#8cddf3;stop-opacity:1"/></linearGradient></defs><path d="M79.73 5.27h22.4c9.3 0 16.8 7.5 16.8 16.8v22.4c0 9.3-7.5 16.8-16.8 16.8h-22.4c-9.3 0-16.8-7.5-16.8-16.8v-22.4c0-9.3 7.5-16.8 16.8-16.8" class="st1" style="fill:url(#b)" transform="translate(-58.956 -1.219)"/><path d="M79.756 5.219h22.4c9.3 0 16.8 7.5 16.8 16.8v22.4c0 9.3-7.5 16.8-16.8 16.8h-22.4c-9.3 0-16.8-7.5-16.8-16.8v-22.4c0-9.3 7.5-16.8 16.8-16.8z" class="st1" style="opacity:.673189;fill:none;stroke:#000;stroke-width:.3;stroke-dasharray:none;stroke-opacity:1;filter:url(#c)" transform="translate(-58.956 -1.219)"/><path d="M44.037 15a3 3 0 0 0-2.795 1.818l-12 28a3 3 0 0 0 1.576 3.94 3 3 0 0 0 3.94-1.576l12-28a3 3 0 0 0-1.577-3.94A3 3 0 0 0 44.037 15M21 25a4 4 0 0 0-4 4 4 4 0 0 0 4 4 4 4 0 0 0 4-4 4 4 0 0 0-4-4m0 16a4 4 0 0 0-4 4 4 4 0 0 0 4 4 4 4 0 0 0 4-4 4 4 0 0 0-4-4" style="fill:url(#d)"/><path d="M44.037 15a3 3 0 0 0-2.795 1.818l-12 28a3 3 0 0 0 1.576 3.94 3 3 0 0 0 3.94-1.576l12-28a3 3 0 0 0-1.577-3.94A3 3 0 0 0 44.037 15zM21 25a4 4 0 0 0-4 4 4 4 0 0 0 4 4 4 4 0 0 0 4-4 4 4 0 0 0-4-4zm0 16a4 4 0 0 0-4 4 4 4 0 0 0 4 4 4 4 0 0 0 4-4 4 4 0 0 0-4-4z" style="fill:none;stroke:#003eff;stroke-opacity:1;stroke-width:.2;stroke-dasharray:none;filter:url(#e)"/></svg>