<svg xmlns="http://www.w3.org/2000/svg" width="64" height="64"><rect width="56" height="56" x="4" y="5" ry="11" style="opacity:.2"/><rect width="56" height="56" x="4" y="4" ry="11" style="fill:#444"/><path d="M15 4C8.906 4 4 8.906 4 15v1C4 9.906 8.906 5 15 5h34c6.094 0 11 4.906 11 11v-1c0-6.094-4.906-11-11-11z" style="fill:#fff;opacity:.1"/><path d="M25.95 31h12.206c0-4.497-3.771-6-6.103-6s-6.103 1.499-6.103 6M19 33.372C18.892 26.578 24.123 20 32.053 20c6.96 0 11.076 4.794 12.366 9.61.471 1.759.581 3.582.581 5.39H25.95c.059 3.646 3.268 5.927 6.103 6 3.316 0 5.417-2.172 6.103-3.36l4.804 3.056C42.04 42.289 38.28 46 32.053 46 26.12 46 19.13 41.487 19 33.372" style="opacity:.2"/><path d="M25.95 30h12.206c0-4.497-3.771-6-6.103-6s-6.103 1.499-6.103 6M19 32.372C18.892 25.578 24.123 19 32.053 19c6.96 0 11.076 4.794 12.366 9.61.471 1.759.581 3.582.581 5.39H25.95c.059 3.646 3.268 5.927 6.103 6 3.316 0 5.417-2.172 6.103-3.36l4.804 3.056C42.04 41.289 38.28 45 32.053 45 26.12 45 19.13 40.487 19 32.372" style="fill:#e6e6e6"/><path d="M32.053 19C24.123 19 18.892 25.577 19 32.371c.001.091.009.18.012.27C19.275 26.114 24.408 20 32.053 20c6.96 0 11.077 4.793 12.367 9.609.384 1.435.52 2.914.56 4.391H45c0-1.808-.109-3.632-.58-5.391C43.13 23.793 39.013 19 32.053 19M26.02 30a7 7 0 0 0-.071 1h12.207q-.002-.527-.07-1Zm-.071 5c.059 3.646 3.269 5.927 6.104 6 3.316 0 5.417-2.171 6.103-3.359l4.321 2.746c.205-.257.368-.491.484-.692l-4.805-3.054C37.47 37.829 35.369 40 32.053 40c-2.565-.066-5.427-1.944-5.994-5Z" style="opacity:.2;fill:#fff"/></svg>