<svg xmlns="http://www.w3.org/2000/svg" xmlns:xlink="http://www.w3.org/1999/xlink" width="64" height="64"><defs><filter id="c" width="1.09" height="1.09" x="-.045" y="-.045" style="color-interpolation-filters:sRGB"><feGaussianBlur stdDeviation=".956"/></filter><filter id="i" width="1.59" height="1.59" x="-.295" y="-.295" style="color-interpolation-filters:sRGB"><feGaussianBlur stdDeviation=".346"/></filter><filter id="f" width="1.112" height="1.202" x="-.056" y="-.101" style="color-interpolation-filters:sRGB"><feGaussianBlur stdDeviation=".742"/></filter><filter id="e" width="1.195" height="1.278" x="-.098" y="-.139" style="color-interpolation-filters:sRGB"><feGaussianBlur stdDeviation="1.788"/></filter><filter id="h" width="1.178" height="1.178" x="-.089" y="-.089" style="color-interpolation-filters:sRGB"><feGaussianBlur stdDeviation=".844"/></filter><radialGradient xlink:href="#a" id="d" cx="15.315" cy="42.666" r="23.5" fx="15.315" fy="42.666" gradientTransform="rotate(-15 -139.782 149.105)scale(2.71135 1.90372)" gradientUnits="userSpaceOnUse"/><radialGradient xlink:href="#b" id="g" cx="10.442" cy="44.274" r="10.224" fx="10.442" fy="44.274" gradientTransform="rotate(-30 -72.187 85.366)scale(2.06176)" gradientUnits="userSpaceOnUse"/><linearGradient id="b"><stop offset="0" style="stop-color:#71b8ff;stop-opacity:1"/><stop offset="1" style="stop-color:#dcf8ff;stop-opacity:1"/></linearGradient><linearGradient id="a"><stop offset="0" style="stop-color:#00e2ff;stop-opacity:1"/><stop offset="1" style="stop-color:#0043ff;stop-opacity:1"/></linearGradient></defs><path d="M14.359 8.122h40.435a3.675 3.675 0 0 1 3.676 3.674v40.438a3.675 3.675 0 0 1-3.676 3.675H14.36a3.675 3.675 0 0 1-3.676-3.675V11.796a3.675 3.675 0 0 1 3.676-3.674m0 0" style="fill:#e4e4e4;stroke-width:.853337"/><path d="M11.308 4h47.384A4.307 4.307 0 0 1 63 8.306v47.388A4.307 4.307 0 0 1 58.692 60H11.308A4.307 4.307 0 0 1 7 55.694V8.306A4.307 4.307 0 0 1 11.308 4Zm0 0" style="fill:none;stroke:#000;stroke-width:.461566;stroke-dasharray:none;stroke-opacity:1;filter:url(#c)" transform="translate(4.71 4.693)scale(.85334)"/><rect width="40.107" height="28.16" x="14.523" y="11.947" rx="3.007" ry="3.007" style="fill:url(#d);stroke-width:.853337"/><rect width="47" height="33" x="11.5" y="8.5" rx="3.523" ry="3.523" style="fill:none;stroke:#000;stroke-width:.58593535;stroke-dasharray:none;stroke-opacity:1;filter:url(#e)" transform="translate(4.71 4.693)scale(.85334)"/><path fill="#fff" d="m26.794 17.528 9.276 11.594a.86.86 4.853 0 0 1.244.106l6.451-5.734a.96.96 1.683 0 1 1.32.038l5.656 5.657a2.2 2.2 67.5 0 1 .64 1.548V32.7a3.2 3.2 135 0 1-3.201 3.202H20.756a3.2 3.2 45 0 1-3.202-3.202v-4.565a2.5 2.5 109.903 0 1 .58-1.604l7.513-9.015a.74.74.573 0 1 1.147.012" style="stroke-width:.867378" transform="translate(2.637 2.62)scale(.91811)"/><path fill="#fff" d="m26.794 17.528 9.276 11.594a.86.86 4.853 0 0 1.244.106l6.451-5.734a.96.96 1.683 0 1 1.32.038l5.656 5.657a2.2 2.2 67.5 0 1 .64 1.548v3.992a1.173 1.173 135 0 1-1.172 1.173H17.554v-7.767a2.5 2.5 109.903 0 1 .58-1.604l7.513-9.015a.74.74.573 0 1 1.147.012z" style="stroke-width:.21348106;fill:none;stroke:#000;stroke-opacity:1;stroke-dasharray:none;filter:url(#f)" transform="translate(2.613 2.597)scale(.91811)"/><path d="M17.545 27.136a9.967 9.967 0 0 0-9.968 9.966 9.967 9.967 0 0 0 9.968 9.967 9.967 9.967 0 0 0 9.967-9.967 9.967 9.967 0 0 0-9.967-9.966" style="opacity:.67858619;mix-blend-mode:normal;fill:url(#g);stroke-width:.906116"/><path d="M17.51 25.174c-6.589 0-11.948 5.358-11.948 11.945s5.36 11.947 11.948 11.947 11.947-5.359 11.947-11.947v-9.387a2.56 2.56 0 0 0-2.56-2.558zm.035 1.982c5.493 0 9.946 4.453 9.947 9.946s-4.453 9.947-9.947 9.947-9.947-4.454-9.947-9.947 4.454-9.946 9.947-9.946z" style="fill:#b0b0b0;stroke-width:.2;stroke:#acacac;stroke-opacity:1;stroke-dasharray:none"/><path d="M17.458 25.17c-6.588 0-11.947 5.358-11.947 11.945s5.359 11.947 11.947 11.947c6.589 0 11.948-5.359 11.948-11.947v-9.387a2.56 2.56 0 0 0-2.561-2.559zm.035 1.982c5.493 0 9.947 4.452 9.948 9.945 0 5.494-4.454 9.948-9.948 9.947-5.493 0-9.947-4.453-9.947-9.947.001-5.493 4.454-9.945 9.947-9.945z" style="fill:none;stroke-width:.2;stroke:#000;stroke-opacity:1;stroke-dasharray:none;filter:url(#h)"/><path d="M27.75 28.16a1.28 1.28 0 1 1-2.559.001 1.28 1.28 0 0 1 2.559-.001m0 0" style="fill:#fdfdfd;fill-opacity:1;stroke-width:.853337"/><path d="M27 27.5a1.5 1.5 0 1 1-2.998.002A1.5 1.5 0 0 1 27 27.5zm0 0" style="fill:none;stroke:#000;stroke-width:.107591;stroke-dasharray:none;stroke-opacity:1;filter:url(#i)" transform="translate(4.71 4.693)scale(.85334)"/></svg>