<svg xmlns="http://www.w3.org/2000/svg" xmlns:xlink="http://www.w3.org/1999/xlink" width="64" height="64"><defs><radialGradient xlink:href="#a" id="b" cx=".974" cy="64.079" r="29" fx=".974" fy="64.079" gradientTransform="matrix(2.11149 0 0 1.529 .417 -43.871)" gradientUnits="userSpaceOnUse"/><linearGradient id="a"><stop offset="0" style="stop-color:#ccc;stop-opacity:1"/><stop offset="1" style="stop-color:#b4b4b4;stop-opacity:1"/></linearGradient><filter id="c" width="1.158" height="1.218" x="-.079" y="-.109" style="color-interpolation-filters:sRGB"><feGaussianBlur stdDeviation="1.868"/></filter></defs><rect width="55.195" height="39.969" x="4.402" y="12.016" rx="8.279" ry="7.994" style="fill:url(#b);stroke-width:.95164"/><path d="M21.532 12.016v7.65A16.18 16.18 0 0 0 15.822 32 16.18 16.18 0 0 0 32 48.178 16.18 16.18 0 0 0 48.178 32a16.18 16.18 0 0 0-5.71-12.334v-7.65zm-9.516 28.549a3.807 3.807 0 0 0-3.807 3.806 3.807 3.807 0 0 0 3.807 3.807 3.807 3.807 0 0 0 3.806-3.807 3.807 3.807 0 0 0-3.806-3.806m39.968 0a3.807 3.807 0 0 0-3.806 3.806 3.807 3.807 0 0 0 3.806 3.807 3.807 3.807 0 0 0 3.807-3.807 3.807 3.807 0 0 0-3.807-3.806" style="opacity:.89714715;fill:#ececec;stroke-width:.95164"/><g style="mix-blend-mode:normal;stroke:#000;stroke-width:.2;stroke-dasharray:none;stroke-opacity:1;filter:url(#c)" transform="translate(46.721 8.144)scale(.95164)"><path d="M-35.77 4.068c-4.82 0-8.7 3.747-8.7 8.4v25.2c0 4.653 3.88 8.4 8.7 8.4h40.6c4.82 0 8.7-3.747 8.7-8.4v-25.2c0-4.653-3.88-8.4-8.7-8.4h-9.3v8.04a17 17 0 0 1 6 12.96 17 17 0 0 1-17 17 17 17 0 0 1-17-17 17 17 0 0 1 6-12.96v-8.04Zm-.7 30a4 4 0 0 1 4 4 4 4 0 0 1-4 4 4 4 0 0 1-4-4 4 4 0 0 1 4-4zm42 0a4 4 0 0 1 4 4 4 4 0 0 1-4 4 4 4 0 0 1-4-4 4 4 0 0 1 4-4z" style="opacity:1;fill:none;stroke:#000;stroke-width:.2;stroke-dasharray:none;stroke-opacity:1"/><path d="M-26.47 4.068v8.04a17 17 0 0 0-6 12.96 17 17 0 0 0 17 17 17 17 0 0 0 17-17 17 17 0 0 0-6-12.96v-8.04Zm-10 30a4 4 0 0 0-4 4 4 4 0 0 0 4 4 4 4 0 0 0 4-4 4 4 0 0 0-4-4zm42 0a4 4 0 0 0-4 4 4 4 0 0 0 4 4 4 4 0 0 0 4-4 4 4 0 0 0-4-4z" style="opacity:1;fill:none;stroke:#000;stroke-width:.2;stroke-dasharray:none;stroke-opacity:1"/></g><path d="m27.514 36.751-1.736.577c-1.123.384-2.081-.517-1.048-.887l.838-.295-3.159-.99c-.973.325-1.886 1.02-1.826 1.995.06.99 2.35 1.226 4.117 1.507 1.646.266 3.143.118 4.506-.355v-1.02zm5.442 3.814 3.18-1.109-3.248-1.02.06 2.129z" style="fill:#ff7200;stroke-width:.95164;fill-opacity:1" transform="translate(-9.847 -13.434)scale(1.31037)"/><path d="m41.481 37.594.06-.015c1.407-.487 2.006-1.167 1.856-1.803-.24-1.064-1.96-1.64-4.61-1.832-1.902-.133-3.773.28-5.6.901l-.299.104 3.279 1.005 1.916-.636c2.006-.37 2.814.28.883.887l-.958.325zm-12.275-4.7-1.452.488 1.452.443z" style="fill:#326cb3;stroke-width:.95164;fill-opacity:1" transform="translate(-9.847 -13.434)scale(1.31037)"/><path d="m36.137 39.456 5.344-1.862-3.473-1.064-5.12 1.729v.178zm-6.931-3.266-1.692.561 1.692.533zm3.682.872V34.95l3.279 1.005zm-7.32-.916 3.638-1.286v-1.035l-1.452-.443-5.27 1.759c-.015 0-.045.014-.075.014z" style="fill:#02a6b4;stroke-width:.95164;fill-opacity:1" transform="translate(-9.847 -13.434)scale(1.31037)"/><path d="M33.008 27.726 32.992 41 29 39.758V23l4.937 1.29c3.16.838 5.094 2.319 5.063 5.176-.032 3.324-.966 4.06-4 3.19v-4.707c0-1.632-1.999-1.467-1.992-.223" style="fill:#de0029" transform="translate(-7.819 -11.406)scale(1.247)"/></svg>