<svg xmlns="http://www.w3.org/2000/svg" width="64" height="64"><path d="M32 5C16.536 5 4 17.536 4 33v23.8A4.19 4.19 0 0 0 8.2 61h47.6a4.19 4.19 0 0 0 4.2-4.2V9.2A4.19 4.19 0 0 0 55.8 5Z" style="opacity:.2"/><path d="M32 4C16.536 4 4 16.536 4 32v23.8A4.19 4.19 0 0 0 8.2 60h47.6a4.19 4.19 0 0 0 4.2-4.2V8.2A4.19 4.19 0 0 0 55.8 4Z" style="fill:#e4e4e4"/><path d="M27 17v3.02c-2.132.058-4.073.304-5.736 1.328C19.142 22.653 18 25.236 18 29h3c0-3.236.707-4.403 1.836-5.098.867-.533 2.3-.777 4.164-.863V26l6-4.5zm7 0v34h14V17ZM16 31v20h14V31Z" style="opacity:.1"/><path d="M34 16h14v34H34z" style="fill:#3ac140"/><path d="M16 30h14v20H16z" style="fill:#fa3e30"/><path d="M19.5 28c0-7 3.7-7.5 9.3-7.5" style="fill:none;stroke:#3f51b5;stroke-width:3"/><path d="m23.908 15.662-3.32 1.916v-3.833Z" style="fill:#3f51b5" transform="matrix(1.80736 0 0 2.34783 -10.211 -16.271)"/><path d="M41.538 36.005c-1.23-.055-2.039.354-2.665 1.062-.627.698-.857 1.744-1.027 2.936h-1.23L36 41.336h1.853c-.002.2-.01.432-.014.666.004.235.012.467.014.667h-1.238L36 44.002h1.846c.17 1.192.4 2.238 1.027 2.936.626.708 1.435 1.062 2.665 1.062C42.77 48 44 46.665 44 46.665V45.35s-1.383 1.251-2.462 1.317c-1.078.066-2.089-.813-2.42-2.665h2.42l.616-1.333h-3.077a7 7 0 0 1-.014-.667 7 7 0 0 1 .014-.666h3.077l.615-1.333h-3.651c.331-1.852 1.293-2.704 2.42-2.665 1.128.038 2.462 1.317 2.462 1.317V37.34s-1.23-1.28-2.462-1.335" style="fill:#3f3f3f"/><path d="M32 4C16.536 4 4 16.536 4 32v1C4 17.536 16.536 5 32 5h23.8A4.19 4.19 0 0 1 60 9.2v-1A4.19 4.19 0 0 0 55.8 4z" style="fill:#fff;opacity:.2"/></svg>