<svg xmlns="http://www.w3.org/2000/svg" width="64" height="64"><rect width="56" height="56" x="4" y="5" rx="16.8" ry="16.8" style="opacity:.2"/><rect width="56" height="56" x="4" y="4" rx="16.8" ry="16.8" style="fill:#e4e4e4"/><path d="M42.87 10a.88.88 0 0 0-.87.883V14H20.568l-.228.035s-2.024.292-4.053 1.586S12 19.664 12 23.5V43h6V23.5c0-1.764.642-2.264 1.514-2.82.828-.529 1.58-.665 1.66-.68h29.943a.882.882 0 0 0 .625-1.506l-8.236-8.236a.88.88 0 0 0-.637-.258M46 23v19.5c0 1.764-.642 2.264-1.514 2.82-.828.529-1.58.664-1.66.68H12.883a.882.882 0 0 0-.625 1.506l8.236 8.236a.88.88 0 0 0 .637.258.88.88 0 0 0 .869-.883V52h21.432l.228-.035s2.024-.292 4.053-1.586S52 46.336 52 42.499V23zm-19.334 6A2.66 2.66 0 0 0 24 31.666v2.668A2.66 2.66 0 0 0 26.666 37h.668A2.66 2.66 0 0 0 30 34.334v-2.668A2.66 2.66 0 0 0 27.334 29Zm10 0A2.66 2.66 0 0 0 34 31.666v2.668A2.66 2.66 0 0 0 36.666 37h.668A2.66 2.66 0 0 0 40 34.334v-2.668A2.66 2.66 0 0 0 37.334 29Z" style="opacity:.1"/><path d="M15 42V22.5c0-5.6 5.8-6.5 5.8-6.5h23.8" style="fill:none;stroke:#ff2d55;stroke-width:6"/><path d="M42.87 9a.88.88 0 0 0-.87.882v8.236a.88.88 0 0 0 .882.882h8.236a.882.882 0 0 0 .624-1.506l-8.236-8.236A.88.88 0 0 0 42.87 9" style="fill:#ff2d55"/><rect width="6" height="9" x="24" y="27" ry="2.999" style="fill:#ff2d55"/><path d="M49 22v19.5c0 5.6-5.8 6.5-5.8 6.5H19.4" style="fill:none;stroke:#ff2d55;stroke-width:6"/><path d="M21.13 55a.88.88 0 0 0 .87-.882v-8.236a.88.88 0 0 0-.882-.882h-8.236a.882.882 0 0 0-.624 1.506l8.236 8.236a.88.88 0 0 0 .636.258" style="fill:#ff2d55"/><rect width="6" height="9" x="34" y="27" ry="2.999" style="fill:#ff2d55"/><path d="M20.8 4C11.495 4 4 11.494 4 20.8v1C4 12.495 11.494 5 20.8 5h22.4C52.505 5 60 12.494 60 21.8v-1C60 11.495 52.506 4 43.2 4z" style="opacity:.2;fill:#fff"/></svg>