<svg xmlns="http://www.w3.org/2000/svg" xmlns:xlink="http://www.w3.org/1999/xlink" width="64" height="64"><defs><radialGradient xlink:href="#a" id="d" cx="11.817" cy="37.302" r="10.876" fx="11.817" fy="37.302" gradientTransform="matrix(2.73615 0 0 2.73937 -19.976 -63.358)" gradientUnits="userSpaceOnUse"/><radialGradient xlink:href="#b" id="c" cx="11.817" cy="37.302" r="10.876" fx="11.817" fy="37.302" gradientTransform="matrix(2.73615 0 0 2.73937 -19.976 -63.358)" gradientUnits="userSpaceOnUse"/><linearGradient id="b"><stop offset="0" style="stop-color:#1caf3e;stop-opacity:1"/><stop offset="1" style="stop-color:#0bbc66;stop-opacity:1"/></linearGradient><linearGradient id="a"><stop offset="0" style="stop-color:#34e05d;stop-opacity:1"/><stop offset="1" style="stop-color:#23f48d;stop-opacity:1"/></linearGradient><filter id="e" width="1.201" height="1.184" x="-.1" y="-.092" style="color-interpolation-filters:sRGB"><feGaussianBlur stdDeviation=".89"/></filter></defs><path d="m38.1 30.24-10.877 6.279-10.876-6.28V17.681l10.876-6.28 10.876 6.28Z" style="fill:url(#c);stroke-width:0;stroke-linecap:round;stroke-linejoin:round" transform="translate(-17.815 -11.843)scale(1.82986)"/><path d="m24.981 12.696-6.392 3.69a4.49 4.49 120 0 0-2.242 3.884v7.38a4.49 4.49 60 0 0 2.242 3.883l6.392 3.691a4.48 4.48 0 0 0 4.484 0l6.392-3.69A4.49 4.49 120 0 0 38.1 27.65v-7.38a4.49 4.49 60 0 0-2.243-3.884l-6.392-3.69a4.48 4.48 180 0 0-4.484 0m2.959 2.172 5.466 3.156a.695.695 90 0 1 0 1.204l-5.466 3.156a1.44 1.44.002 0 1-1.435 0l-5.466-3.156a.695.695 90 0 1 0-1.204l5.466-3.156a1.44 1.44 179.998 0 1 1.435 0m7.513 6.701v6.312a1.44 1.44 120 0 1-.718 1.242L29.27 32.28a.695.695 30 0 1-1.043-.602v-6.312a1.44 1.44 120 0 1 .717-1.242l5.466-3.156a.695.695 30 0 1 1.043.602m-15.416-.6 5.465 3.154a1.44 1.44 59.999 0 1 .717 1.242v6.313a.695.695 150.004 0 1-1.043.602l-5.465-3.157a1.44 1.44 60.004 0 1-.717-1.242v-6.31a.695.695 149.999 0 1 1.043-.603" style="opacity:1;fill:url(#d);stroke-width:0;stroke-linecap:round;stroke-linejoin:round" transform="translate(-29.83 -22.417)scale(2.27119)"/><path d="m24.981 12.696-6.392 3.69a4.49 4.49 120 0 0-2.242 3.884v7.38a4.49 4.49 60 0 0 2.242 3.883l6.392 3.691a4.48 4.48 0 0 0 4.484 0l6.392-3.69A4.49 4.49 120 0 0 38.1 27.65v-7.38a4.49 4.49 60 0 0-2.243-3.884l-6.392-3.69a4.48 4.48 180 0 0-4.484 0m2.959 2.172 5.466 3.156a.695.695 90 0 1 0 1.204l-5.466 3.156a1.44 1.44.002 0 1-1.435 0l-5.466-3.156a.695.695 90 0 1 0-1.204l5.466-3.156a1.44 1.44 179.998 0 1 1.435 0m7.513 6.701v6.312a1.44 1.44 120 0 1-.718 1.242L29.27 32.28a.695.695 30 0 1-1.043-.602v-6.312a1.44 1.44 120 0 1 .717-1.242l5.466-3.156a.695.695 30 0 1 1.043.602m-15.416-.6 5.465 3.154a1.44 1.44 59.999 0 1 .717 1.242v6.313a.695.695 150.004 0 1-1.043.602l-5.465-3.157a1.44 1.44 60.004 0 1-.717-1.242v-6.31a.695.695 149.999 0 1 1.043-.603" style="mix-blend-mode:normal;fill:none;stroke:#000;stroke-width:.0930752;stroke-linecap:round;stroke-linejoin:round;stroke-dasharray:none;stroke-opacity:1;filter:url(#e)" transform="translate(-29.83 -22.417)scale(2.27119)"/></svg>