<svg xmlns="http://www.w3.org/2000/svg" width="64" height="64"><path d="m53.21 1099.309-1.077 2.542-30.574-9.174q-.067.282-.238.834-.16.505-.227.786-1.224 5.113.542 8.357 1.801 3.256 6.58 4.69 4.124 1.237 9.066 1.01 4.978-.215 10.765-1.847l-5.127 12.438q-5.318.817-10.319.473-4.976-.287-9.864-1.754-9.56-2.868-13.419-10.109-3.822-7.23-1.342-17.596 1.437-6.004 4.425-11.14 3.036-5.171 7.333-8.91 5.105-4.5 11.018-5.843 5.95-1.332 12.334.584 8.282 2.485 11.776 9.616 3.531 7.143 1.23 16.758-.449 1.876-1.173 3.921-.676 2.01-1.708 4.364m-10.49-11.392q.255-.577.437-1.176.23-.635.376-1.245.898-3.752-.326-6.482t-4.215-3.628q-3.83-1.15-7.182.761-3.303 1.874-5.983 6.701z" style="opacity:.2" transform="translate(0 -1058.52)"/><path d="m53.21 1098.309-1.077 2.542-30.574-9.174q-.067.282-.238.834-.16.505-.227.786-1.224 5.113.542 8.357 1.801 3.256 6.58 4.69 4.124 1.237 9.066 1.01 4.978-.215 10.765-1.847l-5.127 12.438q-5.318.817-10.319.473-4.976-.287-9.864-1.754-9.56-2.868-13.419-10.109-3.822-7.23-1.342-17.596 1.437-6.004 4.425-11.14 3.036-5.171 7.333-8.91 5.105-4.5 11.018-5.843 5.95-1.332 12.334.584 8.282 2.485 11.776 9.616 3.531 7.143 1.23 16.758-.449 1.876-1.173 3.921-.676 2.01-1.708 4.364m-10.49-11.392q.255-.577.437-1.176.23-.635.376-1.245.898-3.752-.326-6.482t-4.215-3.628q-3.83-1.15-7.182.761-3.303 1.874-5.983 6.701z" style="fill:#275ac4" transform="translate(0 -1058.52)"/><path d="m37.68 1062.615-30.468 30.713q-.685 6.01 1.06 10.812l21.07-21.238-3.513-1.053q2.68-4.827 5.981-6.702 2.927-1.67 6.22-1.004l8.892-8.963a22.5 22.5 0 0 0-3.835-1.531 26.4 26.4 0 0 0-5.407-1.034m15.598 8.037-9.456 9.532c.182 1.303.089 2.74-.288 4.312q-.146.609-.377 1.244-.181.598-.437 1.176l-4.296-1.29-8.494 8.56 9.08 2.727 17.694-17.834a20.4 20.4 0 0 0-1.842-5.813c-.46-.938-1-1.797-1.584-2.614m2.222 21.52-7.408 7.467 4.041 1.211 1.077-2.54a53 53 0 0 0 1.71-4.364c.213-.604.402-1.193.58-1.775M21.98 1102.2l-9.031 9.103c1.971 1.86 4.413 3.357 7.319 4.5l9.1-9.174c-.384-.094-.777-.174-1.152-.287-2.91-.872-4.982-2.257-6.237-4.142m26.068 3.306a52 52 0 0 1-7.283 1.517l-11.03 11.118a43 43 0 0 0 2.867.276c2.898.2 5.88.086 8.938-.298l2.238-2.253z" style="fill:#453a53" transform="translate(0 -1058.52)"/><path d="M35.275 4.004q-2.292.043-4.523.543-5.913 1.342-11.018 5.842-4.297 3.738-7.334 8.91-2.988 5.137-4.423 11.14c-.679 2.835-.984 5.484-.956 7.967.057-2.192.368-4.51.956-6.967Q9.412 25.435 12.4 20.3q3.038-5.172 7.334-8.91 5.105-4.5 11.018-5.842 5.949-1.332 12.334.584 8.281 2.484 11.775 9.615c1.382 2.795 2.075 5.883 2.118 9.246.098-3.756-.6-7.175-2.118-10.246q-3.494-7.13-11.775-9.615-3.99-1.198-7.81-1.127m8.623 19.451a13.3 13.3 0 0 1-.365 2.522 12 12 0 0 1-.375 1.244q-.183.598-.44 1.175L26.327 23.48c-.167.278-.334.555-.498.85l16.89 5.067q.258-.576.44-1.175.23-.635.375-1.244.453-1.89.365-3.522M20.611 39.111c-.078 1.937.257 3.615 1.024 5.024q1.802 3.255 6.582 4.69 4.122 1.236 9.064 1.009c3.185-.138 6.624-.721 10.305-1.729l.46-1.117q-5.786 1.632-10.765 1.846-4.941.226-9.064-1.01-4.78-1.435-6.582-4.69c-.632-1.16-.966-2.504-1.024-4.023" style="fill:#fff;opacity:.1"/></svg>