<svg xmlns="http://www.w3.org/2000/svg" width="64" height="64"><rect width="56" height="56" x="4" y="5" rx="2.8" ry="2.8" style="opacity:.2"/><rect width="56" height="56" x="4" y="4" rx="2.8" ry="2.8" style="fill:#4a3f37"/><path d="m20.7 12 1.278 2.349.044.076V57.32L41 42.8V36h-6v2.6l-7 4.2V32h8v-6h-8v-7h7v2h6v-6.2L38.2 12H22.1Z" style="opacity:.2"/><path d="m20.7 11 1.278 2.349.044.076V56.32L41 41.8V35h-6v2.6l-7 4.2V31h8v-6h-8v-7h7v2h6v-6.2L38.2 11H22.1Z" style="fill:#0096a7"/><path d="M35 35v2.6l-7 4.2v-3.172l-5.978 3.232v14.46L41 41.8V35Z" style="fill:#ff9f03"/><path d="M6.8 4C5.25 4 4 5.25 4 6.8v1C4 6.25 5.25 5 6.8 5h50.4C58.75 5 60 6.25 60 7.8v-1C60 5.25 58.75 4 57.2 4z" style="fill:#fff;opacity:.1"/><path d="m20.7 11 .544 1H38.2l2.8 2.8v-1L38.2 11zM28 25v1h8v-1zm7 10v1h6v-1zm0 2.6-7 4.2v1l7-4.2z" style="opacity:.1;fill:#fff"/><path d="M35 35v1h6v-1zm0 2.6-7 4.2v1l7-4.2zm-7 1.029-5.979 3.23v1L28 39.63z" style="opacity:.2;fill:#fff"/></svg>