<svg xmlns="http://www.w3.org/2000/svg" width="64" height="64"><circle cx="32" cy="33" r="28" style="opacity:.2"/><circle cx="32" cy="32" r="28" style="fill:#846847"/><circle cx="32" cy="33" r="22" style="opacity:.2"/><circle cx="32" cy="32" r="22" style="fill:#a4946c"/><path d="m32 11-4.57 13.715L20 21l3.715 7.43L10 33l13.715 4.57L20 45l7.43-3.715L32 55l4.57-13.715L44 45l-3.715-7.43L54 33l-13.715-4.57L44 21l-7.43 3.715Z" style="opacity:.1"/><path d="m20 20 12 12h-6Z" style="fill:#d8cbb8"/><path d="m20 20 12 12v-6Z" style="fill:#5d472e"/><path d="M44 44 32 32h6z" style="fill:#d8cbb8"/><path d="M44 44 32 32v6z" style="fill:#5d472e"/><path d="M44 20 32 32v-6z" style="fill:#d8cbb8"/><path d="M44 20 32 32h6z" style="fill:#5d472e"/><path d="m20 44 12-12v6z" style="fill:#d8cbb8"/><path d="m20 44 12-12h-6z" style="fill:#5d472e"/><path d="M32 10v22l-5.5-5.5Z" style="fill:#d8cbb8"/><path d="M32 10v22l5.5-5.5z" style="fill:#5d472e"/><path d="M32 54V32l5.5 5.5z" style="fill:#d8cbb8"/><path d="M32 54V32l-5.5 5.5z" style="fill:#5d472e"/><path d="M54 32H32l5.5-5.5z" style="fill:#d8cbb8"/><path d="M54 32H32l5.5 5.5z" style="fill:#5d472e"/><path d="M10 32h22l-5.5 5.5z" style="fill:#d8cbb8"/><path d="M10 32h22l-5.5-5.5Z" style="fill:#5d472e"/><path d="M32 4A28 28 0 0 0 4 32a28 28 0 0 0 .018.492A28 28 0 0 1 32 5a28 28 0 0 1 27.975 27.492A28 28 0 0 0 60 32 28 28 0 0 0 32 4" style="opacity:.1;fill:#fff"/></svg>