<svg xmlns="http://www.w3.org/2000/svg" width="64" height="64"><path d="M51.542 12.004a3.63 3.63 0 0 0-2.524 1.074L26.723 35.542 14.98 23.07a3.627 3.627 0 0 0-5.156 0l-4.758 4.797a3.694 3.694 0 0 0 0 5.195l14.32 15.07 3.234 3.257.102.101 1.422 1.434a3.646 3.674 0 0 0 5.156 0l4.757-4.793.461-.465L58.932 23.07a3.697 3.697 0 0 0 0-5.199l-4.762-4.793a3.62 3.62 0 0 0-2.628-1.074" style="opacity:.2;fill-rule:evenodd"/><path d="M51.54 11c-.947.015-1.852.4-2.523 1.076L26.723 34.54 14.981 22.07a3.626 3.626 0 0 0-5.155 0l-4.758 4.794a3.694 3.694 0 0 0 0 5.195l14.32 15.07 3.334 3.36 1.524.28c1.424 1.433 3.254 1.056 4.678-.378l5.135-3.262L58.93 22.066a3.694 3.694 0 0 0 0-5.196l-4.758-4.793a3.63 3.63 0 0 0-2.631-1.076" style="fill:#5cbb6a;fill-rule:evenodd"/><path d="m34.21 26.997-1.804 1.817-5.683 5.726-.012-.016-6.855-7.277-9.851 10.008 2.91 3.062 29.19-1.3.12-.118 11.813-11.902z" style="fill:#3e8749;fill-rule:evenodd"/><path d="m32.265 28.956-2.773 2.794 12.537 7.347 4.891-4.93zm2.253 17.71L22.62 50.387l1.523 1.537a3.646 3.674 0 0 0 5.157 0l4.758-4.796z" style="fill:#2d6235;fill-rule:evenodd"/><path d="M51.541 11c-.948.014-1.853.4-2.523 1.076L26.723 34.541l-11.74-12.473a3.63 3.63 0 0 0-5.157 0l-4.758 4.795a3.67 3.67 0 0 0-1.02 3.098 3.65 3.65 0 0 1 1.02-2.098l4.758-4.795a3.63 3.63 0 0 1 5.156 0l11.74 12.473 22.296-22.465a3.63 3.63 0 0 1 2.523-1.074 3.63 3.63 0 0 1 2.63 1.076l4.759 4.793a3.65 3.65 0 0 1 1.021 2.098 3.68 3.68 0 0 0-1.021-3.1l-4.758-4.793A3.63 3.63 0 0 0 51.54 11" style="opacity:.2;fill:#fff;fill-rule:evenodd"/></svg>