<svg xmlns="http://www.w3.org/2000/svg" width="64" height="64"><path d="M10 9a6 6 0 0 0-6 6v36a6 6 0 0 0 6 6h2a6 6 0 0 0 5.656-4.012A6 6 0 0 0 18 53h28q.173-.005.344-.02A6 6 0 0 0 52 57h2a6 6 0 0 0 6-6V15a6 6 0 0 0-6-6h-2a6 6 0 0 0-5.656 4.012A6 6 0 0 0 46 13H18q-.173.005-.344.02A6 6 0 0 0 12 9Z" style="opacity:.2"/><path d="M10 8a6 6 0 0 0-6 6v36a6 6 0 0 0 6 6h2a6 6 0 0 0 5.656-4.012A6 6 0 0 0 18 52h28q.173-.005.344-.02A6 6 0 0 0 52 56h2a6 6 0 0 0 6-6V14a6 6 0 0 0-6-6h-2a6 6 0 0 0-5.656 4.012A6 6 0 0 0 46 12H18q-.173.005-.344.02A6 6 0 0 0 12 8Z" style="fill:#37a0f2"/><path d="M10 15v36h2V15Zm42 0v36h2V15Zm-38 4v28h2V19Zm4 0v28h28V19Zm30 0v28h2V19Zm-28 2h24v24H20Z" style="opacity:.2"/><path d="M10 14v36h2V14Zm42 0v36h2V14Zm-38 4v28h2V18Zm4 0v28h28V18Zm30 0v28h2V18Zm-28 2h24v24H20Z" style="fill:#fff"/><path d="M10 8a6 6 0 0 0-6 6v1a6 6 0 0 1 6-6h2a6 6 0 0 1 5.656 4.02q.173-.015.344-.02h28a6 6 0 0 1 .344.012A6 6 0 0 1 52 9h2a6 6 0 0 1 6 6v-1a6 6 0 0 0-6-6h-2a6 6 0 0 0-5.656 4.012A6 6 0 0 0 46 12H18q-.173.005-.344.02A6 6 0 0 0 12 8z" style="opacity:.2;fill:#fff"/></svg>