<svg xmlns="http://www.w3.org/2000/svg" width="64" height="64"><defs><filter id="d" width="1.221" height="1.315" x="-.113" y="-.159" style="color-interpolation-filters:sRGB"><feGaussianBlur stdDeviation="2.11"/></filter><filter id="c" width="1.221" height="1.315" x="-.108" y="-.159" style="color-interpolation-filters:sRGB"><feGaussianBlur stdDeviation="2.11"/></filter><filter id="b" width="1.256" height="1.313" x="-.128" y="-.156" style="color-interpolation-filters:sRGB"><feGaussianBlur stdDeviation="2.11"/></filter><filter id="a" width="1.201" height="1.224" x="-.101" y="-.112" style="color-interpolation-filters:sRGB"><feGaussianBlur stdDeviation="2.11"/></filter></defs><path d="M7.534 23.454c-.053.035-.1.075-.15.113l-.03.022v.004a2.55 2.55 0 0 0-.987 2.01v22.335c0 3.662 2.888 3.662 3.662 3.662h43.942s3.661 0 3.661-3.662V25.603a2.55 2.55 0 0 0-1.026-2.042l.011-.015L32.001 5.464S7.384 23.57 7.535 23.456z" style="fill:#fe9700;stroke-width:.915474"/><path d="M7.534 23.454c-.053.035-.1.075-.15.113l-.03.022v.004a2.55 2.55 0 0 0-.987 2.01v22.335c0 3.662 2.888 3.662 3.662 3.662h43.942s3.661 0 3.661-3.662V25.603a2.55 2.55 0 0 0-1.026-2.042l.011-.015L32.001 5.464S7.384 23.57 7.535 23.456z" style="fill:none;stroke:#000;stroke-width:.183095;stroke-dasharray:none;stroke-opacity:1;filter:url(#a)"/><path d="M14.607 10.954a2.74 2.74 0 0 0-2.747 2.745v27.467a2.74 2.74 0 0 0 2.747 2.743h34.786a2.74 2.74 0 0 0 2.746-2.743V13.7a2.74 2.74 0 0 0-2.746-2.745zM32 16.447v.002a9.154 9.154 0 0 1 9.153 9.154v2.747a2.74 2.74 0 0 1-2.747 2.746 2.74 2.74 0 0 1-2.505-1.632A5.5 5.5 0 0 1 32 31.094a5.493 5.493 0 0 1-5.493-5.493A5.493 5.493 0 0 1 32 20.11a5.493 5.493 0 0 1 5.493 5.492v2.747c0 .507.408.915.915.915a.913.913 0 0 0 .916-.915V25.6A7.324 7.324 0 0 0 32 18.278a7.324 7.324 0 0 0-7.324 7.323A7.324 7.324 0 0 0 32 32.925h6.408c.507 0 .916.409.916.916a.913.913 0 0 1-.916.915H32a9.154 9.154 0 0 1-9.155-9.155A9.154 9.154 0 0 1 32 16.447m0 5.493a3.66 3.66 0 0 0-3.662 3.662A3.66 3.66 0 0 0 32 29.263a3.66 3.66 0 0 0 3.662-3.661A3.66 3.66 0 0 0 32 21.94" style="fill:#ebebeb;stroke-width:.915474"/><path d="M14.607 10.954a2.74 2.74 0 0 0-2.747 2.745v27.467a2.74 2.74 0 0 0 2.747 2.743h34.786a2.74 2.74 0 0 0 2.746-2.743V13.7a2.74 2.74 0 0 0-2.746-2.745zM32 16.447v.002a9.154 9.154 0 0 1 9.153 9.154v2.747a2.74 2.74 0 0 1-2.747 2.746 2.74 2.74 0 0 1-2.505-1.632A5.5 5.5 0 0 1 32 31.094a5.493 5.493 0 0 1-5.493-5.493A5.493 5.493 0 0 1 32 20.11a5.493 5.493 0 0 1 5.493 5.492v2.747c0 .507.408.915.915.915a.913.913 0 0 0 .916-.915V25.6A7.324 7.324 0 0 0 32 18.278a7.324 7.324 0 0 0-7.324 7.323A7.324 7.324 0 0 0 32 32.925h6.408c.507 0 .916.409.916.916a.913.913 0 0 1-.916.915H32a9.154 9.154 0 0 1-9.155-9.155A9.154 9.154 0 0 1 32 16.447zm0 5.493a3.66 3.66 0 0 0-3.662 3.662A3.66 3.66 0 0 0 32 29.263a3.66 3.66 0 0 0 3.662-3.661A3.66 3.66 0 0 0 32 21.94z" style="fill:none;stroke:#000;stroke-width:.183095;stroke-dasharray:none;stroke-opacity:1;filter:url(#b)"/><path d="M6.368 25.602 53.97 58.558H10.029c-1.83 0-3.661-.905-3.661-3.622Z" style="fill:#fec006;stroke-width:.915474"/><path d="M6.368 25.602 53.97 58.558H10.029c-1.83 0-3.661-.905-3.661-3.622Z" style="fill:none;stroke:#000;stroke-width:.183095;stroke-dasharray:none;stroke-opacity:1;filter:url(#c)"/><path d="M53.97 58.558c3.663 0 3.663-3.622 3.663-3.622V25.602L10.029 58.558Z" style="fill:#fecd38;stroke-width:.915474"/><path d="M53.97 58.558c3.663 0 3.663-3.622 3.663-3.622V25.602L10.029 58.558Z" style="fill:none;stroke:#000;stroke-width:.183095;stroke-dasharray:none;stroke-opacity:1;filter:url(#d)"/></svg>