<svg xmlns="http://www.w3.org/2000/svg" width="64" height="64"><path d="M9.463 16.544c-27.99 42.101 61.27 68.031 49.453 13.607C53.88 7.66 22.299-5.989 9.463 16.544" style="opacity:.2"/><path d="M9.463 15.544c-27.99 42.101 61.27 68.031 49.453 13.607C53.88 6.66 22.299-6.989 9.463 15.544" style="fill:#5d5d98"/><path d="M47.39 18c-1.507.018-10.355 2.024-11.062 2.768-1.37 2.015-14.103 17.258-20.08 22.713.885 2.222 5.406 4.834 6.898 6.519 2.858-2.212 12.093-12.541 22.654-20.051.888-1.89 2.45-10.434 1.788-11.926A.5.5 0 0 0 47.39 18m-30.709.783c-.35-.105-.643.078-.681.158 0 0 1.98 8.664 2.502 9.687 1.037.912 4.25 4.035 5.35 4.106.344-.222 5.77-6.347 5.927-7.328.113-.706-2.772-2.953-4.732-4.847-.218-.146-6.131-1.104-8.366-1.776m.294 1.037.252.05c.453.923.807 4.36.807 4.36s-.74-3.503-1.059-4.41m6.354.857c.283-.005 1.537.283 1.537.283.526.363.723.78.723.78s-1.144-.562-2.303-1.057a.2.2 0 0 1 .043-.006m12.7 2.326s-6.272 10.358-18.094 20.23c10.8-10.221 18.094-20.23 18.094-20.23m-1.1.413S29.85 31.177 21.603 38.59c7.43-7.684 13.326-15.174 13.326-15.174m5.837.543c.763-.022 1.459.364 1.578 1.472.39 3.623-4.254 2.99-3.76-.044.114-.7 1.202-1.4 2.182-1.428m5.178 2.838c.147-.022.298.157.277.31-.434 3.147-1.273 2.888-5.747 6.465 2.776-2.98 5-3.471 5.215-6.25.028-.368.141-.508.255-.525m-4.887 9.55s-3.885 1.838-6.373 5.787c.747 1.166 8.13 6.94 8.641 7.28C44.168 49.207 48 44.49 48 44.49s-4.042-5.367-6.943-8.143m-3.304 3.413s-1.513 1.692-1.544 2.991l1.242 1.102-2.182-1.659Zm-5.129.402-5.195 5.06s2.2-2.698 5.195-5.06m7.14 5.093c1.567 1.17 3.2 2.368 3.458 2.625.249.247-.012.392-.012.392-.403-.163-3.241-2.694-3.446-3.017" style="opacity:.2"/><path d="M47.39 17c-1.507.018-10.355 2.024-11.062 2.768-1.37 2.015-14.103 17.258-20.08 22.713.885 2.222 5.406 4.834 6.898 6.519 2.858-2.212 12.093-12.541 22.654-20.051.888-1.89 2.45-10.434 1.788-11.926A.5.5 0 0 0 47.39 17m-30.709.783c-.35-.105-.643.078-.681.158 0 0 1.98 8.664 2.502 9.687 1.037.912 4.25 4.035 5.35 4.106.344-.222 5.77-6.347 5.927-7.328.113-.706-2.772-2.953-4.732-4.847-.218-.146-6.131-1.104-8.366-1.776m.294 1.037.252.05c.453.923.807 4.36.807 4.36s-.74-3.503-1.059-4.41m6.354.857c.283-.005 1.537.283 1.537.283.526.363.723.78.723.78s-1.144-.562-2.303-1.057a.2.2 0 0 1 .043-.006m12.7 2.326s-6.272 10.358-18.094 20.23c10.8-10.221 18.094-20.23 18.094-20.23m-1.1.413S29.85 30.177 21.603 37.59c7.43-7.684 13.326-15.174 13.326-15.174m5.837.543c.763-.022 1.459.364 1.578 1.472.39 3.623-4.254 2.99-3.76-.044.114-.7 1.202-1.4 2.182-1.428m5.178 2.838c.147-.022.298.157.277.31-.434 3.147-1.273 2.888-5.747 6.465 2.776-2.98 5-3.471 5.215-6.25.028-.368.141-.508.255-.525m-4.887 9.55s-3.885 1.838-6.373 5.787c.747 1.166 8.13 6.94 8.641 7.28C44.168 48.207 48 43.49 48 43.49s-4.042-5.367-6.943-8.143m-3.304 3.413s-1.513 1.692-1.544 2.991l1.242 1.102-2.182-1.659Zm-5.129.402-5.195 5.06s2.2-2.698 5.195-5.06m7.14 5.093c1.567 1.17 3.2 2.368 3.458 2.625.249.247-.012.392-.012.392-.403-.163-3.241-2.694-3.446-3.017" style="fill:#fafafa"/><path d="M29.425 4.017c-7.7-.285-15.153 3.08-19.968 11.533-4.004 6.023-5.602 11.713-5.447 16.887.068-4.905 1.699-10.249 5.447-15.887 12.84-22.542 44.434-8.89 49.47 13.61.697 3.206 1.03 6.123 1.07 8.785.042-2.924-.285-6.173-1.07-9.785C55.78 15.098 42.259 4.49 29.426 4.017" style="fill:#fff;opacity:.1"/></svg>