<svg xmlns="http://www.w3.org/2000/svg" width="64" height="64"><path d="m5.134 23.486-.215.371c-.315.559-.177 1.332.309 1.75l4.437 3.894c.045-.613.109-1.22.2-1.824l-4.637-4.07c-.04-.036-.06-.084-.094-.122zm53.732 0c-.035.038-.055.087-.094.121l-4.637 4.07c.09.604.154 1.211.2 1.825l4.437-3.895c.486-.418.624-1.191.308-1.75zm-49.22 8.516c-.017.332-.043.662-.043 1 0 .507.026 1.005.063 1.5l.199-.176c-.115-.766-.18-1.54-.219-2.324m44.708 0a24 24 0 0 1-.219 2.324l.2.176c.036-.495.062-.993.062-1.5 0-.338-.027-.668-.043-1m-49.22 8.516c-.394.434-.505 1.114-.215 1.628l5.602 9.71c.325.552 1.055.823 1.66.614L18 50.5a22.6 22.6 0 0 0 5.863 3.371l1.18 5.992c.12.628.716 1.128 1.355 1.137H37.6c.639-.008 1.236-.51 1.356-1.137l1.18-5.992a22.6 22.6 0 0 0 5.859-3.372l5.82 1.969c.605.208 1.335-.063 1.66-.613l5.602-9.711c.29-.514.18-1.195-.215-1.63l-5.387 9.34c-.325.551-1.055.822-1.66.614l-5.822-1.97a22.5 22.5 0 0 1-5.862 3.367l-1.18 5.996c-.118.626-.716 1.128-1.354 1.136H26.395a1.44 1.44 0 0 1-1.355-1.137l-1.178-5.996a22.5 22.5 0 0 1-5.864-3.368l-5.82 1.968c-.604.21-1.335-.062-1.66-.612l-5.386-9.34z" style="opacity:.2"/><path d="M26.269 4.002a1.44 1.44 0 0 0-1.225 1.138l-1.182 5.993A22.5 22.5 0 0 0 18 14.503l-5.817-1.97c-.605-.208-1.338.062-1.663.613l-5.6 9.712c-.315.559-.18 1.332.307 1.75l4.637 4.068a22 22 0 0 0-.263 3.325c0 1.137.1 2.234.263 3.325l-4.637 4.069c-.487.418-.622 1.191-.307 1.75l5.6 9.712c.325.55 1.058.82 1.663.612L18 49.501a22.5 22.5 0 0 0 5.862 3.368l1.181 5.994c.12.627.718 1.129 1.356 1.137h11.2c.638-.008 1.236-.51 1.356-1.137l1.181-5.994A22.5 22.5 0 0 0 46 49.501l5.819 1.968c.604.209 1.337-.061 1.662-.612l5.6-9.712c.315-.559.18-1.332-.306-1.75l-4.638-4.069a22 22 0 0 0 .263-3.325c0-1.136-.1-2.234-.263-3.325l4.638-4.068c.486-.418.621-1.191.306-1.75l-5.6-9.712c-.325-.551-1.058-.821-1.662-.613L46 14.502a22.5 22.5 0 0 0-5.861-3.37L38.956 5.14A1.445 1.445 0 0 0 37.6 4H26.27z" style="fill:#be7c2e"/><path d="M32 21c6.627 0 12 5.373 12 12s-5.373 12-12 12-12-5.373-12-12 5.373-12 12-12" style="opacity:.2"/><path d="M32.001 20c6.628 0 12 5.373 12 12 0 6.628-5.372 12-12 12-6.627 0-12-5.372-12-12 0-6.627 5.373-12 12-12" style="fill:#fff"/><path d="M26.252 4c-.594.065-1.079.538-1.188 1.125l-1.187 6a22.6 22.6 0 0 0-5.875 3.375l-5.813-1.937c-.604-.209-1.362.012-1.687.562L5.127 22.5q.058.066.125.125l.248.223 5.002-8.723c.325-.55 1.083-.77 1.687-.562l5.813 1.937a22.6 22.6 0 0 1 5.875-3.375l1.187-6c.109-.587.594-1.06 1.188-1.125h11.375c.639.009 1.193.498 1.312 1.125l1.188 6c2.12.83 4.126 1.975 5.875 3.375l5.812-1.937c.605-.209 1.363.011 1.688.562l5.002 8.723.248-.223a1 1 0 0 0 .125-.125l-5.375-9.375c-.325-.55-1.083-.77-1.688-.562L46.002 14.5a22.6 22.6 0 0 0-5.875-3.375l-1.188-6c-.12-.627-.673-1.116-1.312-1.125zM4.812 23.313a1.2 1.2 0 0 0 0 .5 1.6 1.6 0 0 1 0-.5m54.377 0c.024.157.029.342 0 .5a1.2 1.2 0 0 0 0-.5M9.69 35.5l-4.437 3.875a1.4 1.4 0 0 0-.125.125l.375.656L9.689 36.5c.023.304.063.598.092.895l.096-.083a24 24 0 0 1-.188-1.812m44.624 0a24 24 0 0 1-.188 1.813l.096.082c.03-.297.07-.591.092-.895l4.187 3.656.375-.656a1.4 1.4 0 0 0-.125-.125z" style="opacity:.1;fill:#fff"/></svg>