<svg xmlns="http://www.w3.org/2000/svg" xmlns:xlink="http://www.w3.org/1999/xlink" width="64" height="64"><defs><radialGradient id="b" cx="-159.431" cy="15.463" r="64.707" fx="-159.431" fy="15.463" gradientTransform="matrix(-.89413 0 0 .96305 -19.436 43.676)" gradientUnits="userSpaceOnUse"><stop offset="0" style="stop-color:#002e6b;stop-opacity:1"/><stop offset="1" style="stop-color:#0076c1;stop-opacity:1"/></radialGradient><radialGradient xlink:href="#a" id="c" cx="54.555" cy="29.884" r="14.5" fx="54.555" fy="29.884" gradientTransform="matrix(0 -3.67794 3.65725 0 -50.626 259.427)" gradientUnits="userSpaceOnUse"/><radialGradient xlink:href="#b" id="d" cx="38.976" cy="12.988" r="9.763" fx="38.976" fy="12.988" gradientTransform="matrix(0 5.8131 -6.54984 0 90.544 -221.527)" gradientUnits="userSpaceOnUse"/><radialGradient id="a" cx="-159.431" cy="15.463" r="64.707" fx="-159.431" fy="15.463" gradientTransform="matrix(-.89413 0 0 .96305 -19.436 43.676)" gradientUnits="userSpaceOnUse"><stop offset="0" style="stop-color:#006fff;stop-opacity:1"/><stop offset="1" style="stop-color:#15baff;stop-opacity:1"/></radialGradient><filter id="e" width="1.189" height="1.177" x="-.094" y="-.088" style="color-interpolation-filters:sRGB"><feGaussianBlur stdDeviation="1.632"/></filter></defs><path d="M41.498 9.35a11.63 11.63 0 0 0-11.663 11.661c0 .85.092 1.698.275 2.528-1.433-3.281-4.154-5.46-8.136-5.46-6.182 0-11.194 5.25-11.194 11.727 0 6.476 5.012 11.726 11.194 11.726 2.17 0 3.968-.649 5.385-1.77a11.7 11.7 0 0 0-.455 3.236c0 6.476 5.215 11.651 11.672 11.651 6.456 0 11.69-5.233 11.69-11.69A11.69 11.69 0 0 0 43.8 32.502a11.69 11.69 0 0 0 9.387-11.461c0-6.457-5.234-11.69-11.69-11.69m-10.64 16.445c1.105 2.476 2.996 4.493 5.414 5.703-2.082.419-3.976 1.405-5.55 2.843.387-1.395.579-2.928.579-4.535 0-1.409-.147-2.76-.444-4.011" style="fill:url(#c);stroke-width:1.46125" transform="translate(-6.321 -6.321)scale(1.19754)"/><path d="M35.653 15.196a16.07 16.07 0 0 0-10.14 3.601c3.82 1.617 5.756 5.937 5.756 11.011 0 6.014-2.72 10.969-8.074 11.619a16.07 16.07 0 0 0 12.458 5.916A16.074 16.074 0 0 0 51.727 31.27a16.074 16.074 0 0 0-16.074-16.073" style="fill:url(#d);stroke-width:1.46125" transform="translate(-6.321 -6.321)scale(1.19754)"/><g style="mix-blend-mode:normal;stroke-width:.16700892;stroke-dasharray:none;filter:url(#e)" transform="translate(-6.321 -6.321)scale(1.19754)"><path d="M41.498 9.35a11.69 11.69 0 0 0-10.49 6.53 16 16 0 0 1 4.644-.685A16.074 16.074 0 0 1 51.268 27.46a11.7 11.7 0 0 0 1.92-6.418A11.69 11.69 0 0 0 41.498 9.35Zm-19.527 8.767c-6.163 0-11.158 5.235-11.158 11.692s4.995 11.689 11.158 11.689c.5 0 .976-.042 1.437-.11.304-.044.602-.096.889-.167q.115-.032.228-.067.396-.11.768-.256c.077-.03.155-.057.23-.09q.42-.178.807-.4.122-.07.24-.144.35-.215.676-.461.047-.035.094-.069v.004c1.621-1.282 2.743-3.189 3.361-5.45.168-.614.288-1.26.381-1.92q.033-.24.059-.483c.075-.676.129-1.365.129-2.076 0-.648-.041-1.28-.104-1.899-.02-.196-.054-.385-.08-.578-.056-.413-.122-.82-.207-1.215a13.5 13.5 0 0 0-.797-2.556 11 11 0 0 0-.664-1.276 9.2 9.2 0 0 0-1.563-1.95 8 8 0 0 0-1.488-1.108q-.123-.07-.25-.135a8 8 0 0 0-.447-.219c-1.08-.485-2.31-.756-3.7-.756zm27.67 21.07a16.07 16.07 0 0 1-13.989 8.157 16.07 16.07 0 0 1-8.615-2.504 11.69 11.69 0 0 0 11.54 9.81 11.69 11.69 0 0 0 11.688-11.69 11.7 11.7 0 0 0-.625-3.772z" style="fill:none;stroke:#000;stroke-width:.16700892;stroke-dasharray:none"/><path d="M35.652 15.195a16.07 16.07 0 0 0-10.138 3.602c3.82 1.617 5.756 5.938 5.756 11.012 0 6.014-2.72 10.968-8.075 11.619a16.07 16.07 0 0 0 12.457 5.916A16.074 16.074 0 0 0 51.727 31.27a16.074 16.074 0 0 0-16.075-16.075Z" style="fill:none;stroke:#000;stroke-width:.16700892;stroke-dasharray:none"/></g></svg>