<svg xmlns="http://www.w3.org/2000/svg" xmlns:xlink="http://www.w3.org/1999/xlink" xml:space="preserve" width="64" height="64" viewBox="0 0 64 64"><defs><radialGradient xlink:href="#a" id="f" cx="77.88" cy="69.64" r="27.66" fx="77.88" fy="69.64" gradientTransform="rotate(-75 35.239 78.59)scale(.95802)" gradientUnits="userSpaceOnUse"/><radialGradient xlink:href="#b" id="h" cx="70.379" cy="77.822" r="27.66" fx="70.379" fy="77.822" gradientTransform="rotate(-75 4.277 483.618)scale(5.69314)" gradientUnits="userSpaceOnUse"/><radialGradient xlink:href="#c" id="i" cx="576.412" cy="1546.889" r="251.976" fx="576.412" fy="1546.889" gradientTransform="rotate(20.613 1441.79 -365.435)scale(.3848 .34932)" gradientUnits="userSpaceOnUse"/><radialGradient xlink:href="#d" id="j" cx="720.609" cy="975.703" r="103.089" fx="720.609" fy="975.703" gradientTransform="rotate(53.682 303.815 -13.699)scale(.237 .24443)" gradientUnits="userSpaceOnUse"/><radialGradient xlink:href="#d" id="k" cx="652.975" cy="1128.949" r="115.377" fx="652.975" fy="1128.949" gradientTransform="rotate(8.682 3795.095 -3654.119)scale(.93295 .50497)" gradientUnits="userSpaceOnUse"/><radialGradient xlink:href="#d" id="l" cx="975.996" cy="1145.472" r="161.056" fx="975.996" fy="1145.472" gradientTransform="rotate(248.682 360.516 461.08)scale(.90784 .3048)" gradientUnits="userSpaceOnUse"/><radialGradient xlink:href="#a" id="m" cx="477.669" cy="1339.801" r="214.099" fx="477.669" fy="1339.801" gradientTransform="rotate(-6.318 -2089.625 1231.546)scale(.3613 .21681)" gradientUnits="userSpaceOnUse"/><radialGradient xlink:href="#e" id="n" cx="154.502" cy="1363.123" r="271.876" fx="154.502" fy="1363.123" gradientTransform="matrix(.64371 .14015 -.05369 .21369 -90.276 -256.614)" gradientUnits="userSpaceOnUse"/><radialGradient xlink:href="#d" id="o" cx="-304.075" cy="1221.288" r="157.358" fx="-304.075" fy="1221.288" gradientTransform="matrix(.52689 0 0 .49422 118.375 -523.379)" gradientUnits="userSpaceOnUse"/><linearGradient id="a"><stop offset="0" style="stop-color:#019cf6;stop-opacity:1"/><stop offset="1" style="stop-color:#0055c7;stop-opacity:1"/></linearGradient><linearGradient id="b"><stop offset="0" style="stop-color:#9ad3ff;stop-opacity:1"/><stop offset="1" style="stop-color:#d4d2e9;stop-opacity:1"/></linearGradient><linearGradient id="c"><stop offset="0" style="stop-color:#00163c;stop-opacity:1"/><stop offset="1" style="stop-color:#000;stop-opacity:1"/></linearGradient><linearGradient id="d"><stop offset="0" style="stop-color:#01d9f6;stop-opacity:1"/><stop offset="1" style="stop-color:#07f;stop-opacity:1"/></linearGradient><linearGradient id="e"><stop offset="0" style="stop-color:#002463;stop-opacity:1"/><stop offset="1" style="stop-color:#07f;stop-opacity:1"/></linearGradient><filter id="g" width="1.085" height="1.085" x="-.043" y="-.043" style="color-interpolation-filters:sRGB"><feGaussianBlur stdDeviation=".933"/></filter><filter id="p" width="1.059" height="1.059" x="-.029" y="-.029" style="color-interpolation-filters:sRGB"><feGaussianBlur stdDeviation=".596"/></filter></defs><g transform="translate(-2.261 -2.797)scale(1.07067)"><circle cx="32" cy="32.5" r="27.474" style="fill:url(#f);stroke:none;stroke-width:.00926521;stroke-linecap:round;stroke-linejoin:round;stroke-opacity:1"/><circle cx="32" cy="32.5" r="27.474" style="fill:none;stroke:#000;stroke-width:.2;stroke-linecap:round;stroke-linejoin:round;stroke-dasharray:none;stroke-opacity:1;filter:url(#g)"/><circle cx="32.007" cy="32.5" r="24.363" style="fill:url(#h);fill-opacity:1;stroke:none;stroke-width:.0082162;stroke-linecap:round;stroke-linejoin:round;stroke-opacity:1"/><path d="M27.752 18.293c-2.116.067-4.256.52-8.14 1.524-7.77 2.009-10.901 2.26-12.325 2.8q-.21.08-.398.147-.422.151-.905.338a27.7 27.7 0 0 0-1.645 9.397 27.66 27.66 0 0 0 20.606 26.747 19 19 0 0 0 1.854-1.518c4.035-3.749 2.675-5.346 2.675-5.346s9.42-10.932 13.96-16.539c1.444-1.784 1.148-3.414 3.159-5.1 2.15-1.806 2.2-1.69 4.133-1.953 1.933-.261 4.748-1.224 6.266-1.344s2.911.114 2.911.114-1.797-2.912-5.795-3.14c-3.997-.227-4.809-.446-6.568-1.209-1.76-.762-4.202-3.054-11.786-4.128-3.793-.538-5.886-.856-8.002-.79" style="fill:url(#i);stroke:none;stroke-width:0;stroke-linecap:round;stroke-linejoin:round;stroke-dasharray:none" transform="translate(3.821 3.874)scale(.88081)"/><path d="M44.65 27.53c1.285 1.007.62 5.474-.656 7.522-1.275 2.05-1.78 2.252-4.36 5.708s-8.538 11.749-11.045 15.07c-2.829 3.745-7.282 2.039-7.247-2.384.018-2.209.045-6.714.815-9.054s.658-3.157 2.169-5.13 3.46-4.505 6.72-5.963c3.261-1.457 9.16-3.714 11.382-4.523s1.065-.625 2.222-1.247" style="fill:url(#j);stroke:none;stroke-width:0;stroke-linecap:round;stroke-linejoin:round;stroke-dasharray:none" transform="translate(3.821 3.874)scale(.88081)"/><path d="M44.657 27.518c-2.116-.328-4.77.206-6.631 1.406-2.396 1.173-5.487 1.075-7.616-.63-1.23-.905-1.668-2.745-3.248-3.174-3.154-.171-6.34-1.055-9.493-.406-5.412 1.023-2.704 10.004 4.138 14.679 1.805 1.17 2.24 1.673 3.02 1.101 4.238-3.1 6.35-4.242 14.154-7.999 4.025-1.938 4.813-3.14 5.676-4.977" style="fill:url(#k);stroke:none;stroke-width:0;stroke-linecap:round;stroke-linejoin:round;stroke-dasharray:none" transform="translate(3.821 3.874)scale(.88081)"/><path d="M48.413 23.56c-1.347-3.45-3.88-6.37-6.834-8.556-2.606-1.81-5.91-1.626-8.937-1.775-5.69-.04-11.477 1.047-16.573 3.635-2.79 1.422-4.917 3.83-7.732 5.218-3.932 1.773 2.123 4.382 3.766 5.075 1.004.52.656-1.545 1.514-2.24 1.84-1.49 4.163-1.977 6.376-1.585 2.095.396 4.11-.408 5.996-1.223 2.2-1.019 4.68-.855 6.986-.344 2.44.496 4.891 1.261 6.899 2.78 1.794.933 3.967 1.24 5.935.765.97-.41 1.801-1.083 2.604-1.75" style="fill:url(#l);stroke:none;stroke-width:0;stroke-linecap:round;stroke-linejoin:round;stroke-dasharray:none" transform="translate(3.821 3.874)scale(.88081)"/><path d="M33.993 22.492a4.6 4.6 0 0 0-2.605.371 3.36 3.36 0 0 0-.792 1.695 3.363 3.363 0 0 0 2.816 3.832 3.363 3.363 0 0 0 3.832-2.816 3.4 3.4 0 0 0 .02-.861 4.61 4.61 0 0 0-3.271-2.221" style="fill:#121212;fill-opacity:1;stroke:none;stroke-width:0;stroke-linecap:round;stroke-linejoin:round;stroke-dasharray:none" transform="translate(3.821 3.874)scale(.88081)"/><path d="M33.988 22.862a4 4 0 0 0-2.273.324 2.93 2.93 0 0 0-.69 1.479 2.934 2.934 0 0 0 2.457 3.343 2.934 2.934 0 0 0 3.343-2.457 3 3 0 0 0 .016-.752 4.02 4.02 0 0 0-2.853-1.937" style="fill:#000;fill-opacity:1;stroke:none;stroke-width:0;stroke-linecap:round;stroke-linejoin:round;stroke-dasharray:none" transform="translate(3.821 3.874)scale(.88081)"/><path d="M36.036 24.252a1.1 1.1 0 0 0-.623.089.8.8 0 0 0-.19.405.805.805 0 0 0 .674.917.805.805 0 0 0 .917-.674.8.8 0 0 0 .004-.206 1.1 1.1 0 0 0-.782-.531" style="opacity:.600704;mix-blend-mode:normal;fill:#fff;fill-opacity:1;stroke:none;stroke-width:0;stroke-linecap:round;stroke-linejoin:round;stroke-dasharray:none" transform="translate(3.821 3.874)scale(.88081)"/><path d="M4.688 36.882a27.66 27.66 0 0 0 11.063 18.003 4 4 0 0 1-.047-.548c-.063-4.195 6.059-11.451 2.447-14.417-1.77-1.453-7.243-2.487-13.463-3.038" style="fill:url(#m);stroke:none;stroke-width:0;stroke-linecap:round;stroke-linejoin:round;stroke-dasharray:none" transform="translate(3.821 3.874)scale(.88081)"/><path d="M4.49 35.39a27.66 27.66 0 0 0 7.324 16.021c1.993-2.38 1.596-4.9 1.596-4.9s-4.269-8.208-8.92-11.12" style="fill:url(#n);stroke:none;stroke-width:0;stroke-linecap:round;stroke-linejoin:round;stroke-dasharray:none" transform="translate(3.821 3.874)scale(.88081)"/><path d="M5.143 25.876A27.7 27.7 0 0 0 4.34 32.5a27.66 27.66 0 0 0 6.327 17.607q.314-.135.623-.281c3.645-1.114 1.263-4.86 2.516-7.283.976-1.626 2.303-2.453 5.203-1.538-.76-1.713-3.519-4.61-5.014-6.5-2.62-2.894-6.042-5.132-8.466-8.182a8 8 0 0 0-.385-.446" style="fill:url(#o);stroke:none;stroke-width:.0093284;stroke-linecap:round;stroke-linejoin:round" transform="translate(3.821 3.874)scale(.88081)"/><circle cx="32.008" cy="32.5" r="25.937" style="mix-blend-mode:normal;fill:none;fill-opacity:1;stroke:#000;stroke-width:.2;stroke-linecap:round;stroke-linejoin:round;stroke-dasharray:none;stroke-opacity:1;filter:url(#p)" transform="translate(1.941 1.971)scale(.93934)"/></g></svg>