<svg xmlns="http://www.w3.org/2000/svg" xmlns:xlink="http://www.w3.org/1999/xlink" width="64" height="64"><defs><radialGradient xlink:href="#a" id="g" cx="11.609" cy="52.371" r="19.788" fx="11.609" fy="52.371" gradientTransform="matrix(3.22495 0 0 3.19156 -37.44 -103.292)" gradientUnits="userSpaceOnUse"/><radialGradient xlink:href="#b" id="e" cx="15.356" cy="50.979" r="23.489" fx="15.356" fy="50.979" gradientTransform="matrix(3.14147 0 0 3.06913 -.367 -134.421)" gradientUnits="userSpaceOnUse"/><radialGradient xlink:href="#c" id="d" cx="54.61" cy="54.652" r="28" fx="54.61" fy="54.652" gradientTransform="rotate(-90 63.992 125.404)scale(2.29491)" gradientUnits="userSpaceOnUse"/><linearGradient id="c"><stop offset="0" style="stop-color:#384edc;stop-opacity:1"/><stop offset="1" style="stop-color:#ac67d9;stop-opacity:1"/></linearGradient><linearGradient id="b"><stop offset="0" style="stop-color:#fff;stop-opacity:1"/><stop offset="1" style="stop-color:#cdcdcd;stop-opacity:1"/></linearGradient><linearGradient id="a"><stop offset="0" style="stop-color:#ffb039;stop-opacity:1"/><stop offset="1" style="stop-color:#ff6c39;stop-opacity:1"/></linearGradient><filter id="h" width="1.095" height="1.089" x="-.048" y="-.044" style="color-interpolation-filters:sRGB"><feGaussianBlur stdDeviation=".77"/></filter><filter id="f" width="1.138" height="1.138" x="-.069" y="-.069" style="color-interpolation-filters:sRGB"><feGaussianBlur stdDeviation="1.563"/></filter></defs><circle cx="32" cy="32" r="28" style="fill:url(#d)"/><path d="M28.475 14.104c-3.46-.013-7.394.427-11.907 2.295 6.31.34 8.809 1.376 8.96 2.033-10.705-1.84-15.16 13.394-15.507 20.181 0 0 4.72-6.07 5.979-6.51.388-.135.485.127.953 0-1.243 1.634-2.205 3.295-3.021 5.004-1.812 4.197-1.945 10.625-1.94 14.48a20 20 0 0 0-.055 1.237c0 .232 2.374.925 3.493 1.746.262-.305.527-.611.677-.83-.2.33-.367.623-.543.928a28 28 0 0 0 6.053 3.328q.072.032.143.06A28 28 0 0 0 32 60a28 28 0 0 0 17.973-6.53c-1.711-1.657-8.335-8.414-8.172-14.02.085-2.926 1.743-5.555 7.154-7.052A49 49 0 0 1 57 32.104c-.486-3.77-3.938-7.716-9.713-8.932-.99-.472-6.844-9.027-18.812-9.068" style="fill:url(#e)"/><g style="stroke-width:.2;stroke-dasharray:none;filter:url(#f)"><circle cx="32" cy="32" r="28" style="fill:none;stroke:#000;stroke-opacity:1;stroke-width:.2;stroke-dasharray:none"/><path d="M28.475 14.104c-3.46-.013-7.394.427-11.907 2.295 6.31.34 8.809 1.376 8.96 2.033-10.705-1.84-15.16 13.394-15.507 20.181 0 0 4.72-6.07 5.979-6.51.388-.135.485.127.953 0-1.243 1.634-2.205 3.295-3.021 5.004-1.812 4.197-1.945 10.625-1.94 14.48a20 20 0 0 0-.055 1.237c0 .232 2.374.925 3.493 1.746.262-.305.527-.611.677-.83-.2.33-.367.623-.543.928a28 28 0 0 0 6.053 3.328q.072.032.143.06A28 28 0 0 0 32 60a28 28 0 0 0 17.973-6.53c-1.711-1.657-8.335-8.414-8.172-14.02.085-2.926 1.743-5.555 7.154-7.052A49 49 0 0 1 57 32.104c-.486-3.77-3.938-7.716-9.713-8.932-.99-.472-6.844-9.027-18.812-9.068z" style="fill:none;stroke:#000;stroke-opacity:1;stroke-width:.2;stroke-dasharray:none"/></g><path d="M19.11 16.076c-1.076.044-2.006.148-2.597.342 0 0 6.652.388 9.027 2.021.991-.204 1.833-.884 1.976-1.808-.638-.264-5.178-.687-8.406-.555m17.352 11.365s-24.167 1.034-26.088 7.496c-.534 1.554-.332 3.7-.332 3.7s9.608-10 26.42-11.196m9.386 4.549c-7.004.09-22.445 2.537-33.908 20.695-.084 3.426 2.28 6.764 2.28 6.764s8.693-26.251 35.36-27.258c0 0-1.397-.23-3.732-.201" style="fill:url(#g);fill-rule:evenodd"/><path d="M19.11 16.076c-1.076.044-2.006.148-2.597.342 0 0 6.652.388 9.027 2.021.991-.204 1.833-.884 1.976-1.808-.638-.264-5.178-.687-8.406-.555zm17.352 11.365s-24.167 1.034-26.088 7.496c-.534 1.554-.332 3.7-.332 3.7s9.608-10 26.42-11.196zm9.386 4.549c-7.004.09-22.445 2.537-33.908 20.695-.084 3.426 2.28 6.764 2.28 6.764s8.693-26.251 35.36-27.258c0 0-1.397-.23-3.732-.201z" style="fill:none;fill-rule:evenodd;stroke:#ff6f00;stroke-opacity:1;stroke-linecap:butt;stroke-width:.1;stroke-dasharray:none;filter:url(#h)"/><path d="M37.225 19.996a3.57 3.57 0 0 0-1.332 2.784 3.57 3.57 0 0 0 3.572 3.572 3.57 3.57 0 0 0 3.565-3.346 7.33 7.33 0 0 0-5.805-3.01" style="fill:#4a4a4a;fill-opacity:1;stroke:none;stroke-width:.2;stroke-linecap:square;stroke-miterlimit:7.4"/></svg>