<svg xmlns="http://www.w3.org/2000/svg" width="64" height="64"><path d="M32 5C16.54 5 4 17.54 4 33v22c0 3.59 2.4 6 6 6h44c3.6 0 6-2.4 6-6V33C60 17.54 47.46 5 32 5" style="opacity:.2"/><path d="M32 4C16.54 4 4 16.54 4 32v22c0 3.59 2.4 6 6 6h44c3.6 0 6-2.4 6-6V32C60 16.54 47.46 4 32 4" style="fill:#248afd"/><circle cx="32" cy="33" r="20" style="opacity:.2;fill:#fff"/><circle cx="32" cy="32" r="20" style="fill:#e4e4e4"/><path d="M41 35v6m-18-6v6" style="fill:none;stroke-linecap:round;stroke-linejoin:round;stroke-width:6;stroke:#4f4f4f"/><path d="M23 32c-1.66 0-3 1.34-3 3v1c0-1.61 1.39-3 3-3s3 1.4 3 3v-1c0-1.66-1.34-3-3-3m18 0c-1.66 0-3 1.34-3 3v1c0-1.61 1.39-3 3-3s3 1.4 3 3v-1c0-1.66-1.34-3-3-3" style="fill:#fff;opacity:.1"/><path d="M32 12a20 20 0 0 0-20 20 20 20 0 0 0 .035.5A20 20 0 0 1 32 13a20 20 0 0 1 19.982 19.25L52 32a20 20 0 0 0-20-20" style="opacity:.1"/><path d="M32 4C16.54 4 4 16.54 4 32v1C4 17.54 16.54 5 32 5s28 12.54 28 28v-1C60 16.54 47.46 4 32 4" style="fill:#fff;opacity:.2"/></svg>