<svg xmlns="http://www.w3.org/2000/svg" width="64" height="64"><rect width="56" height="56" x="4" y="5" ry="3" style="opacity:.2"/><rect width="56" height="56" x="4" y="4" ry="3" style="fill:#4f4f4f"/><path d="M7 4C5.338 4 4 5.338 4 7v1c0-1.662 1.338-3 3-3h50c1.662 0 3 1.338 3 3V7c0-1.662-1.338-3-3-3z" style="fill:#fff;opacity:.1"/><path d="M11 13v40h8V39h9v-9h-9v-8h9v-9Zm22 0v9h6v31h8V22h6v-9z" style="opacity:.2"/><path d="M11 12v40h8V38h9v-9h-9v-8h9v-9Zm22 0v9h6v31h8V21h6v-9z" style="fill:#fff"/></svg>