<svg xmlns="http://www.w3.org/2000/svg" width="64" height="64"><g transform="translate(0 -994.976)"><rect width="58" height="58" x="-1056.98" y="-61" rx="2.9" ry="2.9" style="opacity:.2" transform="rotate(90)scale(-1 1)"/><path d="M3 1047.776v5.093c0 1.721 1.293 3.107 2.9 3.107h52.2c1.607 0 2.9-1.386 2.9-3.107v-5.093z" style="fill:#3f3f3f"/><path d="M7 1051.98h8v4H7z" style="fill:#009072"/><path d="M5.9 997.976a2.894 2.894 0 0 0-2.9 2.9v47.1h58v-47.1c0-1.606-1.293-2.9-2.9-2.9z" style="fill:#4551ff"/><path d="M7 1002.976v6h18v-6zm32 0v6h18v-6zm-32 12v6h18v-6zm32 0v6h18v-6zm-32 12v6h18v-6zm32 0v6h18v-6zm-32 12v6h18v-6zm32 0v6h18v-6z" style="opacity:.2"/><path d="M7 1001.98h18v6H7z" style="fill:#ff0"/><path d="M1013.98-25h6v18h-6zm12 0h6v18h-6zm12 0h6v18h-6z" style="fill:#07e9ff" transform="rotate(90)"/><path d="M39 1001.98h18v6H39z" style="fill:#ff0"/><path d="M1013.98-57h6v18h-6zm12 0h6v18h-6zm12 0h6v18h-6z" style="fill:#07e9ff" transform="rotate(90)"/><path d="M21 1051.98h8v4h-8zm14 0h8v4h-8zm14 0h8v4h-8z" style="fill:#009072"/><path d="M5.898 3A2.89 2.89 0 0 0 3 5.898v1A2.89 2.89 0 0 1 5.898 4h52.204A2.89 2.89 0 0 1 61 6.898v-1A2.89 2.89 0 0 0 58.102 3z" style="opacity:.1;fill:#fff" transform="translate(0 994.976)"/><path d="M29.1 997.98h6v50h-6z" style="fill:#07e9ff"/><path d="M3 1047.98h58v1H3z" style="opacity:.2"/><path d="M7 7v1h18V7zm32 0v1h18V7zM7 19v1h18v-1zm32 0v1h18v-1zM7 31v1h18v-1zm32 0v1h18v-1zM7 43v1h18v-1zm32 0v1h18v-1z" style="opacity:.2;fill:#fff" transform="translate(0 994.976)"/></g></svg>