<svg xmlns="http://www.w3.org/2000/svg" width="64" height="64"><rect width="56" height="56" x="4" y="5" rx="8" ry="8" style="opacity:.2"/><rect width="56" height="56" x="4" y="4" rx="8" ry="8" style="fill:#5c6bc0"/><path d="M9 17c-.554 0-1 .446-1 1v30c0 .554.446 1 1 1h6c.554 0 1-.446 1-1V33h5c.554 0 1-.446 1-1v-2c0-.554-.446-1-1-1h-5v-8h7c.554 0 1-.446 1-1v-2c0-.554-.446-1-1-1H12.17zm16 4c-.554 0-1 .446-1 1v22c0 .554.446 1 1 1h3v3c0 .554.446 1 1 1h6c.554 0 1-.446 1-1v-2c0-.554-.446-1-1-1h-3V33h5c.554 0 1-.446 1-1v-2c0-.554-.446-1-1-1h-5v-7c0-.554-.446-1-1-1zm14-4c-.554 0-1 .446-1 1v2c0 .554.446 1 1 1h1v24h-1c-.554 0-1 .446-1 1v2c0 .554.446 1 1 1h16c.554 0 1-.446 1-1v-2c0-.554-.446-1-1-1h-1V21.215q-.002-.11-.018-.215H55c.554 0 1-.446 1-1v-2c0-.554-.446-1-1-1zm7 4h2.018q-.016.105-.018.215V45h-2z" style="opacity:.2"/><path d="M12 4c-4.432 0-8 3.568-8 8v1c0-4.432 3.568-8 8-8h40c4.432 0 8 3.568 8 8v-1c0-4.432-3.568-8-8-8z" style="fill-rule:evenodd;fill:#fff;opacity:.2"/><path d="M9 16c-.554 0-1 .446-1 1v30c0 .554.446 1 1 1h6c.554 0 1-.446 1-1V32h5c.554 0 1-.446 1-1v-2c0-.554-.446-1-1-1h-5v-8h7c.554 0 1-.446 1-1v-2c0-.554-.446-1-1-1H12.17zm16 4c-.554 0-1 .446-1 1v22c0 .554.446 1 1 1h3v3c0 .554.446 1 1 1h6c.554 0 1-.446 1-1v-2c0-.554-.446-1-1-1h-3V32h5c.554 0 1-.446 1-1v-2c0-.554-.446-1-1-1h-5v-7c0-.554-.446-1-1-1zm14-4c-.554 0-1 .446-1 1v2c0 .554.446 1 1 1h1v24h-1c-.554 0-1 .446-1 1v2c0 .554.446 1 1 1h16c.554 0 1-.446 1-1v-2c0-.554-.446-1-1-1h-1V20.215q-.002-.11-.018-.215H55c.554 0 1-.446 1-1v-2c0-.554-.446-1-1-1zm7 4h2.018q-.016.105-.018.215V44h-2z" style="fill:#fff"/></svg>