<svg xmlns="http://www.w3.org/2000/svg" xml:space="preserve" width="64" height="64"><defs><filter id="b" width="1.243" height="1.243" x="-.122" y="-.122" style="color-interpolation-filters:sRGB"><feGaussianBlur stdDeviation="2.732"/></filter><filter id="c" width="1.134" height="1.25" x="-.067" y="-.125" style="color-interpolation-filters:sRGB"><feGaussianBlur stdDeviation=".925"/></filter><radialGradient id="a" cx="101.878" cy="809.281" r="1.1" fx="101.878" fy="809.281" gradientTransform="matrix(0 -62.14636 -62.14601 0 50300.023 6389.097)" gradientUnits="userSpaceOnUse"><stop offset="0" style="stop-color:#00d3ff;stop-opacity:1"/><stop offset="1" style="stop-color:#ff21eb;stop-opacity:1"/></radialGradient></defs><path fill="url(#a)" d="M32 6.377c-14.432 0-25.622 10.576-25.622 24.854 0 7.469 3.061 13.925 8.045 18.384.416.371.673.896.685 1.46l.141 4.56a2.05 2.05 0 0 0 2.876 1.814l5.087-2.242a2.06 2.06 0 0 1 1.37-.103c2.338.64 4.824.987 7.418.987 14.432 0 25.622-10.576 25.622-24.854S46.432 6.377 32 6.377" style="fill:url(#a);stroke-width:.064056"/><path fill="#fff" d="m16.612 38.501 7.527-11.94a3.843 3.843 0 0 1 5.56-1.025l5.989 4.49a1.54 1.54 0 0 0 1.851-.006l8.084-6.136c1.076-.82 2.485.474 1.768 1.62l-7.533 11.934a3.843 3.843 0 0 1-5.56 1.025l-5.99-4.49a1.54 1.54 0 0 0-1.85.006l-8.084 6.136c-1.077.82-2.486-.467-1.762-1.614" style="stroke-width:.064056"/><path fill="url(#a)" d="M32 3.45c-16.08 0-28.55 11.784-28.55 27.693 0 8.322 3.412 15.516 8.965 20.484.464.414.75 1 .764 1.627l.157 5.082a2.284 2.284 0 0 0 3.204 2.02l5.668-2.498a2.3 2.3 0 0 1 1.527-.114A31.2 31.2 0 0 0 32 58.843c16.08 0 28.55-11.784 28.55-27.693S48.08 3.45 32 3.45Z" style="fill:none;stroke:#000;stroke-width:.771;stroke-dasharray:none;stroke-opacity:1;filter:url(#b)" transform="translate(3.28 3.28)scale(.89747)"/><path fill="#fff" d="M14.854 39.244 23.24 25.94a4.28 4.28 0 0 1 6.196-1.142l6.673 5.003a1.71 1.71 0 0 0 2.063-.007l9.007-6.838c1.2-.913 2.77.529 1.97 1.806L40.755 38.06a4.28 4.28 0 0 1-6.195 1.142l-6.673-5.003a1.71 1.71 0 0 0-2.063.007l-9.007 6.838c-1.2.913-2.77-.522-1.963-1.8z" style="opacity:1;mix-blend-mode:normal;fill:none;stroke:#0024ff;stroke-width:.22284775;stroke-dasharray:none;stroke-opacity:1;filter:url(#c)" transform="translate(3.28 3.28)scale(.89747)"/></svg>