<svg xmlns="http://www.w3.org/2000/svg" width="64" height="64"><circle cx="32" cy="33" r="28" style="opacity:.2"/><circle cx="32" cy="32" r="28" style="fill:#e4e4e4"/><path d="M32 4A28 28 0 0 0 4 32a28 28 0 0 0 .033.5A28 28 0 0 1 32 5a28 28 0 0 1 27.967 27.5A28 28 0 0 0 60 32 28 28 0 0 0 32 4" style="fill:#fff;opacity:.2"/><path d="M32 21.5c-1.512 0-2.3 1-2.3 1L11 41c-.66.66-.46 2.48 0 3 1.325 1.498 3.01.99 4 0l11-11v-2a6 6 0 0 1 12 0v2l11 11c.99.99 2.675 1.498 4 0 .46-.52.663-2.343 0-3L34.3 22.5s-.788-1-2.3-1m0 7.5a2 2 0 1 0 0 4 2 2 0 0 0 0-4m-4 6.4-4 4.4 4 2.802S30.07 40 32 40s4 2.6 4 2.6l4-2.8-4-4.4c-1.104 1.005-2.507 1.6-4 1.6s-2.896-.595-4-1.6" style="opacity:.3"/><path d="M32 20.5c-1.512 0-2.3 1-2.3 1L11 40c-.66.66-.46 2.48 0 3 1.325 1.498 3.01.99 4 0l11-11v-2a6 6 0 0 1 12 0v2l11 11c.99.99 2.675 1.498 4 0 .46-.52.663-2.343 0-3L34.3 21.5s-.788-1-2.3-1m0 7.5a2 2 0 1 0 0 4 2 2 0 0 0 0-4m-4 6.4-4 4.4 4 2.802S30.07 39 32 39s4 2.6 4 2.6l4-2.8-4-4.4c-1.104 1.005-2.507 1.6-4 1.6s-2.896-.595-4-1.6" style="fill:#333"/></svg>