<svg xmlns="http://www.w3.org/2000/svg" width="64" height="64"><path d="M31.922 61a.72.72 0 0 0 .516-.196c1.94-1.872 3.91-3.974 5.692-5.974l.006-.008c4.39-5.066 7.728-10.272 10.146-15.846 2.253-5.192 3.57-9.684 4.769-16.227.262-1.432.528-3.169.71-4.566a45 45 0 0 0 .203-1.764q.03-.34.035-.563a2 2 0 0 0-.006-.216c-.004-.04-.008-.081-.029-.152-.02-.071-.003-.215-.31-.39-.167-.095-.19-.077-.23-.086l-.107-.02q-.099-.014-.22-.026a13 13 0 0 0-.575-.041c-1.683-.086-4.165-.481-5.81-.927a22 22 0 0 1-2.928-.995 86 86 0 0 0-.86-.347l-.068-.024-.004-.002h-.002l-.002-.002-.029-.013.006.006-.01-.004c-.008-.003-.018-.008-.039-.013q-.01-.003-.024-.011c.004 0 .023 0 .026.002l-.182-.093-.71-.366c-2.657-1.382-4.643-2.806-7.815-5.618a69 69 0 0 0-1.102-.956q-.222-.187-.367-.303l-.133-.1a.8.8 0 0 0-.162-.094c-.04-.019-.082-.055-.27-.064-.227-.01-.274.036-.32.056-.046.018-.07.032-.09.043a1 1 0 0 0-.086.055 3 3 0 0 0-.142.106q-.157.124-.399.326a64 64 0 0 0-1.204 1.033c-2.624 2.302-3.894 3.275-5.721 4.397-3.99 2.45-7.546 3.537-13.004 3.964l-.442.034c-.356.027-.63.302-.629.633v.24c0 .502.129 1.539.303 2.823.174 1.283.397 2.744.598 3.854 1.197 6.602 2.559 11.252 4.84 16.51 2.056 4.736 4.999 9.521 8.516 13.852q.011.016.024.028c2.367 2.593 4.657 5.315 7.155 7.838a.7.7 0 0 0 .486.207" style="opacity:.2"/><path d="M32 4.004c-.182-.001-.24.035-.283.053-.047.019-.07.032-.09.043a1 1 0 0 0-.086.054c-.047.033-.088.067-.14.108q-.158.123-.401.326c-.321.267-.747.63-1.205 1.031-2.624 2.303-3.894 3.277-5.72 4.399A27 27 0 0 1 20 12.086V16h12ZM32 16v12h12V16Zm12 0h9.898c.02-.181.054-.433.067-.582q.03-.338.033-.563a2 2 0 0 0-.006-.216c-.004-.04-.006-.08-.027-.15-.021-.072-.005-.216-.313-.391-.166-.095-.187-.077-.228-.086l-.108-.022c-.067-.01-.137-.015-.218-.023a12 12 0 0 0-.577-.043c-1.683-.085-4.164-.48-5.81-.926A22 22 0 0 1 44 12.084Zm0 12v12h3.354q.484-1.004.927-2.023c1.461-3.368 2.527-6.448 3.424-9.977Zm0 12H32v12h7.664A65 65 0 0 0 44 46.008ZM32 52h-7.678c2.353 2.58 4.63 5.284 7.114 7.793a.7.7 0 0 0 .486.207c.027 0 .051-.011.078-.014zm0-12V28H20v12Zm-12 0h-3.373A59 59 0 0 0 20 46.014Zm0-12V16h-9.914c.054.484.13 1.066.217 1.71a95 95 0 0 0 .597 3.854c.428 2.357.88 4.46 1.383 6.436z" style="fill:#795548"/><path d="M32.037 4.002 32 4.004V16h12v-3.916c-.077-.031-.136-.049-.217-.082l-.65-.266-.21-.08q-.036-.015-.068-.025l-.003-.002h-.002l-.002-.002-.03-.012.008.006-.012-.004c-.008-.003-.018-.008-.039-.014-.008-.002-.013-.006-.023-.011.005 0 .022 0 .025.002l-.181-.092-.711-.365c-2.656-1.382-4.643-2.807-7.815-5.62-.418-.37-.807-.706-1.101-.955a16 16 0 0 0-.367-.302l-.133-.102c-.022-.015-.043-.03-.08-.053a1 1 0 0 0-.082-.04c-.041-.019-.081-.054-.27-.063M44 16v12h7.705c.486-1.912.924-3.95 1.346-6.25.262-1.433.528-3.17.71-4.566.062-.469.098-.815.137-1.184Zm0 12H32v12h12zm0 12v6.008A58 58 0 0 0 47.354 40Zm-12 0H20v6.014a64 64 0 0 0 4.256 5.914l.025.027.041.045H32Zm0 12v7.986a.7.7 0 0 0 .438-.181c1.94-1.873 3.911-3.975 5.693-5.975l.006-.008A74 74 0 0 0 39.664 52ZM20 40V28h-7.717c.907 3.559 1.992 6.693 3.46 10.074q.418.963.884 1.926zm0-12h12V16H20Zm0-12v-3.914c-2.599 1.043-5.354 1.615-8.928 1.894l-.443.034c-.356.027-.63.304-.629.634v.24c0 .25.032.633.086 1.112z" style="fill:#3f3f3f"/><path d="M32.038 4.001c-.227-.01-.274.035-.32.055-.047.019-.07.032-.09.043a1 1 0 0 0-.087.055c-.046.032-.088.066-.14.107q-.159.124-.4.326c-.322.268-.748.63-1.206 1.032-2.624 2.302-3.893 3.276-5.72 4.398-3.99 2.45-7.545 3.537-13.003 3.963l-.443.033c-.356.027-.63.305-.629.635v.24c0 .125.028.369.043.555a.67.67 0 0 1 .586-.43l.443-.033c5.458-.426 9.013-1.513 13.003-3.963 1.827-1.122 3.096-2.096 5.72-4.398A63 63 0 0 1 31 5.587q.243-.202.4-.326c.053-.041.095-.075.141-.107a1 1 0 0 1 .086-.055c.02-.01.044-.024.09-.043.047-.02.094-.064.32-.055.19.01.23.045.27.063s.064.03.082.04c.037.023.058.039.08.054.044.03.085.063.133.101q.146.116.367.303c.295.249.684.585 1.102.955 3.172 2.812 5.158 4.238 7.814 5.62.275.142.528.271.711.364.078.04.134.069.182.092-.004 0-.02 0-.025-.002q.013.008.023.012c.02.005.03.01.04.014l.01.003-.007-.005.03.011.001.002h.002l.004.002.069.026.209.08c.17.068.4.163.65.265 1.085.446 1.817.696 2.928.996 1.646.446 4.127.841 5.81.926.213.01.414.027.577.043.08.009.151.014.218.024.034.005.067.012.108.021s.062-.009.228.086c.289.165.29.296.307.371l.006-.05q.03-.34.033-.563a2 2 0 0 0-.006-.217c-.004-.04-.006-.08-.027-.15-.021-.071-.005-.215-.313-.39-.166-.096-.187-.078-.228-.087l-.108-.021c-.067-.01-.137-.015-.218-.024a12 12 0 0 0-.577-.043c-1.683-.085-4.164-.48-5.81-.926-1.111-.3-1.843-.55-2.928-.996-.25-.102-.48-.197-.65-.265l-.21-.08-.068-.026-.004-.002h-.002l-.002-.002-.029-.011q.002.003.008.005l-.012-.003c-.008-.003-.018-.009-.039-.014-.008-.002-.013-.007-.023-.012l.025.002c-.048-.023-.104-.052-.182-.092l-.71-.365c-2.657-1.381-4.643-2.807-7.815-5.619a62 62 0 0 0-1.102-.955 16 16 0 0 0-.367-.303q-.07-.056-.133-.101c-.022-.015-.043-.031-.08-.053a1 1 0 0 0-.082-.041c-.04-.018-.08-.054-.27-.063" style="opacity:.1;fill:#fff"/><path d="m31 3-4 8 3 4-4 8 8 3-4 3 1 3-8 4 1 3-8 4 4 1 6-3v-4l5-2-1 6 4 3-3.06 2.61L27 51l5 12v-5l-2-6 3-4 5-4-5-4 1-7-1-3 5-5-8-4 2-4 7 6h7l3 11 2-3-3-10h-8l-6-6-4-4 3-6z" style="opacity:.2"/><path d="m31 2-4 8 3 4-4 8 8 3-4 3 1 3-8 4 1 3-8 4 4 1 6-3v-4l5-2-1 6 4 3-3.06 2.61L27 50l5 12v-5l-2-6 3-4 5-4-5-4 1-7-1-3 5-5-8-4 2-4 7 6h7l3 11 2-3-3-10h-8l-6-6-4-4 3-6z" style="fill:#fecd38"/></svg>