<svg xmlns="http://www.w3.org/2000/svg" width="64" height="64"><rect width="56" height="56" x="4" y="5" rx="12" ry="12" style="opacity:.2"/><rect width="56" height="56" x="4" y="4" rx="12" ry="12" style="fill:#1381fd"/><circle cx="22" cy="39" r="14" style="opacity:.2"/><circle cx="22" cy="38" r="14" style="fill:#32c6fd"/><path d="M36 38c0-7-6.268-13-14-13S8 31 8 38c0-7.732 6.268-14 14-14s14 6.268 14 14" style="fill:#fff;opacity:.2"/><ellipse cx="11.089" cy="47.513" rx="8.416" ry="25.351" style="fill:none;opacity:.2;stroke-width:3.02868;stroke:#000" transform="matrix(.73621 -.67675 .52272 .8525 0 0)"/><ellipse cx="11.622" cy="46.763" rx="8.416" ry="25.351" style="fill:none;stroke-width:3.02868;stroke:#e4e4e4" transform="matrix(.73621 -.67675 .52272 .8525 0 0)"/><circle cx="48" cy="25" r="8" style="opacity:.2"/><circle cx="48" cy="24" r="8" style="fill:#fecd38"/><path d="M56 24c0-3-3.582-7-8-7s-8 4-8 7a8 8 0 1 1 16 0" style="fill:#fff;opacity:.2"/><path d="M16 4h32c6.648 0 12 5.352 12 12v1c0-6-5.352-12-12-12H16C9.352 5 4 11 4 17v-1C4 9.352 9.352 4 16 4" style="fill:#fff;opacity:.2"/></svg>