<svg xmlns="http://www.w3.org/2000/svg" width="64" height="64"><rect width="56" height="56" x="4" y="5" rx="16.8" ry="16.8" style="opacity:.2"/><rect width="56" height="56" x="4" y="4" rx="16.8" ry="16.8" style="fill:#424652"/><path d="M25 40a7 7 0 0 0-7 7 7 7 0 0 0 7 7 7 7 0 0 0 7-7v-7z" style="opacity:.2"/><path d="M25 39a7 7 0 0 0-7 7 7 7 0 0 0 7 7 7 7 0 0 0 7-7v-7z" style="fill:#09c37b"/><path d="M25 26h7v14h-7c-3.878 0-7-3.122-7-7s3.122-7 7-7" style="opacity:.2"/><circle cx="39" cy="33" r="7" style="opacity:.2"/><path d="M25 25h7v14h-7c-3.878 0-7-3.122-7-7s3.122-7 7-7" style="fill:#9154dd"/><circle cx="39" cy="32" r="7" style="fill:#01b1f8"/><path d="M25 12c-3.878 0-7 3.122-7 7s3.122 7 7 7h7V12Z" style="opacity:.2"/><path d="M25 11c-3.878 0-7 3.122-7 7s3.122 7 7 7h7V11Z" style="fill:#f24e1e"/><path d="M32 12h7c3.878 0 7 3.122 7 7s-3.122 7-7 7h-7z" style="opacity:.2"/><path d="M32 11h7c3.878 0 7 3.122 7 7s-3.122 7-7 7h-7z" style="fill:#ff7262"/><path d="M25 11c-3.878 0-7 3.122-7 7 0 .17.014.334.025.5A6.98 6.98 0 0 1 25 12h14a6.98 6.98 0 0 1 6.975 6.5c.011-.166.025-.33.025-.5 0-3.878-3.122-7-7-7z" style="opacity:.2;fill:#fff"/><path d="M20.8 4C11.495 4 4 11.494 4 20.8v1C4 12.495 11.494 5 20.8 5h22.4C52.505 5 60 12.494 60 21.8v-1C60 11.495 52.506 4 43.2 4z" style="fill:#fff;opacity:.1"/></svg>