<svg xmlns="http://www.w3.org/2000/svg" width="64" height="64"><circle cx="32" cy="33" r="28" style="opacity:.2"/><circle cx="32" cy="32" r="28" style="fill:#444"/><path d="M32 4A28 28 0 0 0 4 32a28 28 0 0 0 .035.5A28 28 0 0 1 32 5a28 28 0 0 1 27.982 27.252L60 32A28 28 0 0 0 32 4" style="fill:#fff;opacity:.1"/><g style="opacity:.1" transform="translate(0 1)"><path d="M32 7A25 25 0 0 0 7 32a25 25 0 0 0 25 25 25 25 0 0 0 25-25A25 25 0 0 0 32 7m0 3a22 22 0 0 1 22 22 22 22 0 0 1-22 22 22 22 0 0 1-22-22 22 22 0 0 1 22-22"/><path d="M42 12v11H20v7h3v-4h22V14Zm-30 7v25l3 4V18h19v-3H16Zm30 13v21l3-2V35h10v-3Zm-22 4v16l3 2V39h4v-3Zm15-1v21l3-2V35Z"/><circle cx="34.5" cy="16.5" r="2.5"/><circle cx="21.5" cy="30.5" r="2.5"/><circle cx="27.5" cy="37.5" r="2.5"/><circle cx="36.5" cy="34.5" r="2.5"/></g><path d="M32 7A25 25 0 0 0 7 32a25 25 0 0 0 25 25 25 25 0 0 0 25-25A25 25 0 0 0 32 7m0 3a22 22 0 0 1 22 22 22 22 0 0 1-22 22 22 22 0 0 1-22-22 22 22 0 0 1 22-22" style="fill:#e4e4e4"/><path d="M42 12v11H20v7h3v-4h22V14Zm-30 7v25l3 4V18h19v-3H16Zm30 13v21l3-2V35h10v-3Zm-22 4v16l3 2V39h4v-3Zm15-1v21l3-2V35Z" style="fill:#e4e4e4"/><circle cx="34.5" cy="16.5" r="2.5" style="fill:#e4e4e4"/><circle cx="21.5" cy="30.5" r="2.5" style="fill:#e4e4e4"/><circle cx="27.5" cy="37.5" r="2.5" style="fill:#e4e4e4"/><circle cx="36.5" cy="34.5" r="2.5" style="fill:#e4e4e4"/><path d="M32 7A25 25 0 0 0 7 32a25 25 0 0 0 .035.5A25 25 0 0 1 32 8a25 25 0 0 1 24.982 24.25L57 32A25 25 0 0 0 32 7m2.5 7a2.5 2.5 0 0 0-1.992 1H19.535a22 22 0 0 0-1.402 1h14.375a2.5 2.5 0 0 1 1.992-1 2.5 2.5 0 0 1 2.42 1.904A2.5 2.5 0 0 0 37 16.5a2.5 2.5 0 0 0-2.5-2.5M20 23v1h22v-1zm3 5.502v1a2.5 2.5 0 0 1 .893 1.541A2.5 2.5 0 0 0 24 30.5a2.5 2.5 0 0 0-1-1.998m-3 .006a2.5 2.5 0 0 0-1 1.992 2.5 2.5 0 0 0 .107.547A2.5 2.5 0 0 1 20 29.508zM36.5 32a2.5 2.5 0 0 0-2.5 2.5 2.5 2.5 0 0 0 .107.453A2.5 2.5 0 0 1 36.5 33a2.5 2.5 0 0 1 2.412 1.871A2.5 2.5 0 0 0 39 34.5a2.5 2.5 0 0 0-2.5-2.5m5.5 0v1h12a22 22 0 0 0-.078-1zm-31.961.5A22 22 0 0 0 10 33a22 22 0 0 0 2 9.027v-1a22 22 0 0 1-1.961-8.527M27.5 35a2.5 2.5 0 0 0-1.992 1H20v1h5.508a2.5 2.5 0 0 1 1.992-1 2.5 2.5 0 0 1 2.42 1.904A2.5 2.5 0 0 0 30 37.5a2.5 2.5 0 0 0-2.5-2.5m26.045 1A22 22 0 0 1 45 49.74v1A22 22 0 0 0 53.764 36zM15 45.867v1a22 22 0 0 0 5 4.502v-1a22 22 0 0 1-5-4.502m27 5.727a22 22 0 0 1-4 1.521v1a22 22 0 0 0 4-1.521zm-19 .418v1A22 22 0 0 0 32 55a22 22 0 0 0 3-.236v-1A22 22 0 0 1 32 54a22 22 0 0 1-9-1.988" style="opacity:.2;fill:#fff"/></svg>