<svg xmlns="http://www.w3.org/2000/svg" width="64" height="64"><rect width="56" height="56" x="4" y="5" rx="2.8" ry="2.8" style="opacity:.2"/><rect width="56" height="56" x="4" y="4" rx="2.8" ry="2.8" style="fill:#e4e4e4"/><path d="M34 14.459q0 .09-.022.28-.023.191-.054.426a4.5 4.5 0 0 1-.25.975q-.088.225-.196.359-.109.135-.24.135-.15 0-.38-.09-.228-.09-.533-.19a7 7 0 0 0-.717-.191q-.414-.09-.913-.09-.935 0-1.598.291a2.9 2.9 0 0 0-1.141.908q-.479.616-.805 1.558a16 16 0 0 0-.565 2.22l-.37 2.017h4.646q.24 0 .38.168.142.168.142.55 0 .246-.044.515-.044.27-.109.527a4 4 0 0 1-.162.493c-.065.157-.138.153-.218.273q-.12.18-.272.291a.53.53 0 0 1-.304.112h-4.666L21.89 45.669q-.37 1.883-1 3.262-.63 1.378-1.543 2.287a5.8 5.8 0 0 1-2.109 1.345Q16.043 53 14.543 53q-.977 0-1.598-.157-.62-.157-.771-.292a.8.8 0 0 1-.13-.246 1.2 1.2 0 0 1-.044-.359q0-.09.032-.303.034-.213.076-.448.045-.236.109-.493.065-.259.152-.482.087-.225.196-.36a.33.33 0 0 1 .26-.134q.153 0 .294.034.142.034.304.067.164.034.391.068.23.033.576.033.914 0 1.577-.292a2.85 2.85 0 0 0 1.13-.908q.466-.615.783-1.558.315-.941.575-2.264l3.566-18.91h-2.783a.41.41 0 0 1-.337-.147c-.08-.097-.12-.137-.12-.406a5.4 5.4 0 0 1 .098-.964q.055-.27.142-.516a2 2 0 0 1 .217-.448 1.5 1.5 0 0 1 .272-.326.53.53 0 0 1 .359-.123h2.74l.543-2.802q.347-1.839 1-3.217.652-1.38 1.576-2.276a5.9 5.9 0 0 1 2.13-1.334Q29.064 13 30.521 13a9.4 9.4 0 0 1 1.968.213q.445.1.782.236t.468.269q.13.112.195.314.066.203.066.427" style="opacity:.1"/><path d="M34 13.459q0 .09-.022.28-.023.191-.054.426a4.5 4.5 0 0 1-.25.975q-.088.225-.196.359-.109.135-.24.135-.15 0-.38-.09-.228-.09-.533-.19a7 7 0 0 0-.717-.191q-.414-.09-.913-.09-.935 0-1.598.291a2.9 2.9 0 0 0-1.141.908q-.479.616-.805 1.558a16 16 0 0 0-.565 2.22l-.37 2.017h4.646q.24 0 .38.168.142.168.142.55 0 .246-.044.515-.044.27-.109.527a4 4 0 0 1-.162.493c-.065.157-.138.153-.218.273q-.12.18-.272.291a.53.53 0 0 1-.304.112h-4.666L21.89 44.669q-.37 1.883-1 3.262-.63 1.378-1.543 2.287a5.8 5.8 0 0 1-2.109 1.345Q16.043 52 14.543 52q-.977 0-1.598-.157-.62-.157-.771-.292a.8.8 0 0 1-.13-.246 1.2 1.2 0 0 1-.044-.359q0-.09.032-.303.034-.213.076-.448.045-.236.109-.493.065-.259.152-.482.087-.225.196-.36a.33.33 0 0 1 .26-.134q.153 0 .294.034.142.034.304.067.164.034.391.068.23.033.576.033.914 0 1.577-.292a2.85 2.85 0 0 0 1.13-.908q.466-.615.783-1.558.315-.941.575-2.264l3.566-18.91h-2.783a.41.41 0 0 1-.337-.147c-.08-.097-.12-.137-.12-.406a5.4 5.4 0 0 1 .098-.964q.055-.27.142-.516a2 2 0 0 1 .217-.448 1.5 1.5 0 0 1 .272-.326.53.53 0 0 1 .359-.123h2.74l.543-2.802q.347-1.839 1-3.217.652-1.38 1.576-2.276a5.9 5.9 0 0 1 2.13-1.334Q29.064 12 30.521 12a9.4 9.4 0 0 1 1.968.213q.445.1.782.236t.468.269q.13.112.195.314.066.203.066.427" style="fill:#e57025"/><path d="M53 30.557q0 1.36-.241 3.003c-.16 1.095-.42 1.616-.778 2.726a21.5 21.5 0 0 1-1.35 3.241 11.7 11.7 0 0 1-1.984 2.787 9.4 9.4 0 0 1-2.698 1.95Q44.424 45 42.517 45q-1.975 0-3.378-.77-1.405-.77-2.5-2.221l-.395 2.14q-.045.385-.472.543t-1.305.159q-.92 0-1.228-.181-.307-.182-.22-.521l5.835-30.424a.9.9 0 0 1 .142-.317.7.7 0 0 1 .33-.227q.23-.09.592-.136.36-.045.91-.045.526 0 .855.045.33.045.526.136.198.09.242.227.043.135.022.317l-1.755 9.693a24 24 0 0 1-.263 1.224q-.154.634-.318 1.258a40 40 0 0 1-.626 2.141q.35-.792 1.108-1.643a10.2 10.2 0 0 1 1.776-1.564q1.02-.713 2.226-1.19a6.6 6.6 0 0 1 2.435-.475q1.316 0 2.259.362a5 5 0 0 1 1.601.964q.657.6 1.064 1.37.405.772.625 1.587.219.816.307 1.62.088.806.088 1.485m-3.794.318q0-.611-.11-1.406a5.1 5.1 0 0 0-.427-1.473 3.1 3.1 0 0 0-.922-1.144q-.603-.465-1.612-.465-1.185 0-2.413.703t-2.281 1.938-1.875 2.9c-.548 1.11-.947 1.741-1.195 3.056l-.724 3.762q1.031 1.564 2.215 2.311 1.184.748 2.676.748 1.14 0 2.062-.543a6.3 6.3 0 0 0 1.666-1.45 9.8 9.8 0 0 0 1.295-2.074q.547-1.167.91-2.448c.24-.854.424-1.129.548-1.99q.187-1.291.187-2.425" style="opacity:.1"/><path d="M53 29.557q0 1.36-.241 3.003c-.16 1.095-.42 1.616-.778 2.726a21.5 21.5 0 0 1-1.35 3.241 11.7 11.7 0 0 1-1.984 2.787 9.4 9.4 0 0 1-2.698 1.95Q44.424 44 42.517 44q-1.975 0-3.378-.77-1.405-.77-2.5-2.221l-.395 2.14q-.045.385-.472.543t-1.305.159q-.92 0-1.228-.181-.307-.182-.22-.521l5.835-30.424a.9.9 0 0 1 .142-.317.7.7 0 0 1 .33-.227q.23-.09.592-.136.36-.045.91-.045.526 0 .855.045.33.045.526.136.198.09.242.227.043.135.022.317l-1.755 9.693a24 24 0 0 1-.263 1.224q-.154.634-.318 1.258a40 40 0 0 1-.626 2.141q.35-.792 1.108-1.643a10.2 10.2 0 0 1 1.776-1.564q1.02-.713 2.226-1.19a6.6 6.6 0 0 1 2.435-.475q1.316 0 2.259.362a5 5 0 0 1 1.601.964q.657.6 1.064 1.37.405.772.625 1.587.219.816.307 1.62.088.806.088 1.485m-3.794.318q0-.611-.11-1.406a5.1 5.1 0 0 0-.427-1.473 3.1 3.1 0 0 0-.922-1.144q-.603-.465-1.612-.465-1.185 0-2.413.703t-2.281 1.938-1.875 2.9c-.548 1.11-.947 1.741-1.195 3.056l-.724 3.762q1.031 1.564 2.215 2.311 1.184.748 2.676.748 1.14 0 2.062-.543a6.3 6.3 0 0 0 1.666-1.45 9.8 9.8 0 0 0 1.295-2.074q.547-1.167.91-2.448c.24-.854.424-1.129.548-1.99q.187-1.291.187-2.425" style="fill:#3f8caa"/><path d="M6.8 4C5.25 4 4 5.25 4 6.8v1C4 6.25 5.25 5 6.8 5h50.4C58.75 5 60 6.25 60 7.8v-1C60 5.25 58.75 4 57.2 4z" style="opacity:.2;fill:#fff"/></svg>