<svg xmlns="http://www.w3.org/2000/svg" width="64" height="64"><rect width="59" height="49" x="3" y="8" rx="2.95" ry="2.722" style="opacity:.2"/><rect width="59" height="49" x="3" y="7" rx="2.95" ry="2.722" style="fill:#ff670b"/><path d="M3 17h59v29H3z" style="fill:#5e473a"/><path d="M3 12v5h3v-5zm8 0v5h3v-5zm8 0v5h3v-5zm8 0v5h3v-5zm8 0v5h3v-5zm8 0v5h3v-5zm8 0v5h3v-5zm8 0v5h3v-5zM3 46v5h3v-5zm8 0v5h3v-5zm8 0v5h3v-5zm8 0v5h3v-5zm8 0v5h3v-5zm8 0v5h3v-5zm8 0v5h3v-5zm8 0v5h3v-5z" style="fill:#fff"/><path d="M8 22v21h3v-9h8v-3h-8v-6h9v-3zm16.514 0q-.64 0-1.076.375Q23 22.723 23 23.5t.438 1.152q.434.348 1.076.348.582 0 1.02-.348.465-.375.466-1.152 0-.777-.467-1.125a1.52 1.52 0 0 0-1.02-.375M30 22v21h3V22Zm-7 5v16h3V27Zm20.746 0q-1.311 0-2.486.615-1.148.586-1.83 1.817h-.137l-.354-2.139H37V43h2.902v-8.146q.001-2.755.848-4.221c.564-.977 1.084-1.465 2.559-1.465 2.002 0 2.691 1.242 2.691 3.723V43h3v-8.674c.018-2.255.257-4.98 3.248-5.158 1.984 0 2.752 1.242 2.752 3.723V43h3V32.773q0-3.018-1.229-4.396Q55.541 27 53.057 27q-1.447 0-2.703.645-1.257.644-1.995 1.992h-.134Q47.187 26.999 43.746 27" style="opacity:.2"/><path d="M11 42H8V21h12v3h-9v6h8v3h-8zm13.515-21q.582 0 1.019.375.466.348.466 1.125t-.466 1.152q-.437.348-1.02.348-.64 0-1.077-.348Q23 23.277 23 22.5t.437-1.125Q23.874 21 24.515 21M26 26v16h-3V26Zm7 16h-3V21h3zm20.057-16q2.485 0 3.714 1.377T58 31.773V42h-3V31.89c0-2.481-.768-3.722-2.752-3.722-2.992.179-3.23 2.903-3.248 5.158V42h-3V31.89c0-2.481-.69-3.722-2.692-3.722-1.474 0-1.994.489-2.559 1.466q-.846 1.465-.846 4.22V42H37V26.293h1.939l.355 2.14h.136q.683-1.232 1.83-1.818A5.3 5.3 0 0 1 43.745 26q3.441 0 4.479 2.637h.136q.737-1.348 1.994-1.992A5.84 5.84 0 0 1 53.057 26" style="fill:#fff"/><path d="M3 51v1h3v-1zm8 0v1h3v-1zm8 0v1h3v-1zm8 0v1h3v-1zm8 0v1h3v-1zm8 0v1h3v-1zm8 0v1h3v-1zm8 0v1h3v-1zM3 17h59v1H3z" style="opacity:.1"/><path d="M3 46h59v1H3z" style="opacity:.1;fill:#fff"/><path d="M5.95 7C4.314 7 3 8.215 3 9.723v1C3 9.215 4.315 8 5.95 8h53.1C60.686 8 62 9.215 62 10.723v-1C62 8.215 60.685 7 59.05 7z" style="fill:#fff;opacity:.2"/></svg>