<svg xmlns="http://www.w3.org/2000/svg" xmlns:xlink="http://www.w3.org/1999/xlink" width="64" height="64"><defs><radialGradient xlink:href="#a" id="m" cx="10.293" cy="28.408" r="10.185" fx="10.293" fy="28.408" gradientTransform="rotate(82.73 54.408 48.563)scale(2.2931 3.21742)" gradientUnits="userSpaceOnUse"/><radialGradient xlink:href="#b" id="l" cx="30.616" cy="33.261" r="26.584" fx="30.616" fy="33.261" gradientTransform="matrix(.90168 0 0 .73736 3.146 8.611)" gradientUnits="userSpaceOnUse"/><radialGradient xlink:href="#c" id="k" cx="32.868" cy="74.052" r="28" fx="32.868" fy="74.052" gradientTransform="rotate(-51.123 3.144 105.215)scale(1.90718 1.4481)" gradientUnits="userSpaceOnUse"/><radialGradient xlink:href="#d" id="j" cx="33.152" cy="35.783" r="8.241" fx="33.152" fy="35.783" gradientTransform="rotate(35.702 253.17 -6.366)scale(2.98687 4.36918)" gradientUnits="userSpaceOnUse"/><radialGradient xlink:href="#e" id="i" cx="20.008" cy="41.83" r="14" fx="20.008" fy="41.83" gradientTransform="matrix(2.87718 .06444 -.0449 2.00466 -34.508 -44.29)" gradientUnits="userSpaceOnUse"/><radialGradient xlink:href="#a" id="g" cx="40.153" cy="35.83" r="14.234" fx="40.153" fy="35.83" gradientTransform="rotate(-32.88 -49.72 129.174)scale(2.0361 2.93756)" gradientUnits="userSpaceOnUse"/><radialGradient xlink:href="#f" id="h" cx="9.459" cy="29.95" r="4.935" fx="9.459" fy="29.95" gradientTransform="rotate(-21.146 -296.157 231.912)scale(6.71035 5.19038)" gradientUnits="userSpaceOnUse"/><linearGradient id="f"><stop offset="0" style="stop-color:#1f8bff;stop-opacity:1"/><stop offset="1" style="stop-color:#1fb7ff;stop-opacity:1"/></linearGradient><linearGradient id="d"><stop offset="0" style="stop-color:#36aeff;stop-opacity:1"/><stop offset="1" style="stop-color:#45ff36;stop-opacity:1"/></linearGradient><linearGradient id="a"><stop offset="0" style="stop-color:#00edff;stop-opacity:1"/><stop offset="1" style="stop-color:#4bdc7f;stop-opacity:1"/></linearGradient><linearGradient id="b"><stop offset="0" style="stop-color:#1f8bff;stop-opacity:1"/><stop offset="1" style="stop-color:#7e1fff;stop-opacity:1"/></linearGradient><linearGradient id="c"><stop offset="0" style="stop-color:#2f97fe;stop-opacity:1"/><stop offset="1" style="stop-color:#7d4ef7;stop-opacity:1"/></linearGradient><linearGradient id="e"><stop offset="0" style="stop-color:#1541a7;stop-opacity:1"/><stop offset="1" style="stop-color:#402b63;stop-opacity:1"/></linearGradient><filter id="n" width="1.221" height="1.214" x="-.111" y="-.107" style="color-interpolation-filters:sRGB"><feGaussianBlur stdDeviation="2.56"/></filter><filter id="o" width="1.218" height="1.211" x="-.109" y="-.105" style="color-interpolation-filters:sRGB"><feGaussianBlur stdDeviation="2.546"/></filter></defs><circle cx="9.295" cy="43.191" r="2.734" style="fill:#197b9c;fill-opacity:1;stroke-width:.683587"/><path d="M39.94 5.851c1.064 2.836 4.916 6.492 9.995 12.998 4.303 5.51 4.796 11.658 6.386 17.185L44.367 46.323 30.864 32.461c-.06-9.215-2.273-18.897 9.075-26.61" style="fill:url(#g);stroke-width:.901677"/><path d="M15.353 22.442c1.754-1.74 4.618-5.793 8.035-6.916-.918 4.893.272 6.448.864 8.95l-5.492-1.424z" style="fill:url(#h);stroke-width:.901677"/><circle cx="32" cy="32.902" r="12.623" style="fill:url(#i);stroke-width:.901677"/><path d="M36 24.002q-.27.002-.54.019a10.43 10.43 0 0 1 5.999 9.427c-.003 5.55-4.35 10.252-9.892 10.538 1.386.656 2.9.871 4.432.876 5.76 0 10.43-4.67 10.43-10.43S41.76 24.002 36 24.002" style="fill:url(#j);stroke-width:.901677"/><path d="M16.074 23.948c-5.906 4.567-9.321 1.263-9.321 9.249 0 13.78 11.303 24.952 25.247 24.952s25.247-11.172 25.247-24.952c0-6.416-2.45-12.266-6.476-16.687.09-.004-.377-.362-.617-.272a18.43 18.43 0 0 1 2.652 9.554c0 10.23-5.69 20.364-15.92 20.364-6.57.318-15.322-3.882-16.67-7.813-.868-2.535-.649-5.384 1.716-6.96 1.284-.815 3.157-1.62 6.12-1.715 2.706-1.78 1.389-1.577 1.259-2.116-.841-.23-2.333-.548-4.394-2.17-1.825-1.436-2.672-1.98-7.99-2.03-1.005-1.935-.755 2.893-.853.596" style="fill:url(#k);stroke-width:.901677"/><path d="M15.733 13.535c-5.653 4.372-8.642 11.075-8.95 18.644.323 11.6 10.912 20.56 23.955 20.56 13.246 0 23.984-9.248 23.984-21.1 0-3.194-.785-6.223-2.184-8.947a18.6 18.6 0 0 1 .269 3.099c0 10.23-8.294 17.93-18.524 17.93-6.57.32-11.513-2.717-12.86-6.648-.87-2.536-.585-3.606 1.78-5.182 1.284-.816 3.093-1.368 6.055-1.462 2.707-1.78 2.914-2.464 2.784-3.003-.84-.23-3.16-1.12-5.22-2.742-1.825-1.436-4.853-4.331-10.172-4.38-1.004-1.935-.818-4.472-.917-6.77" style="fill:url(#l);stroke-width:.901677"/><path d="M18.035 25.695c-1.719-.037-3.166.555-4.315 1.339-.206.206 1.637 3.929 5.477 3.97-.356 6.193 4.28 10.723 7.393 11.619l1.367.25c-3.31-1.135-5.67-3.277-6.534-5.801-.87-2.536-.586-3.605 1.779-5.181 1.284-.816 3.092-1.367 6.054-1.462 1.353-.89 2.085-1.507 2.459-1.969.187-.23.284-.42.327-.588a.9.9 0 0 0 0-.447c-3.648 3.673-8.827-.369-12.842-1.6a6 6 0 0 0-1.165-.13" style="fill:url(#m);stroke-width:.901677"/><path d="M40.846 2.857a.25.25 0 0 0-.106.041c-7.062 4.8-9.454 10.336-10.15 16.038a14.2 14.2 0 0 0-6.951 2.689 19 19 0 0 0-.643-.406c-.526-1.751-.914-3.66-.225-7.336a.25.25 0 0 0-.324-.285c-2.684.882-5.001 3.294-6.828 5.334-.124-.006-.243-.017-.369-.02-1.014-2.045-.856-4.765-.965-7.295a.25.25 0 0 0-.402-.187c-6.334 4.898-9.68 12.41-10.024 20.865v.019c-.016.353-.033.71-.033 1.12 0 15.42 12.653 27.922 28.25 27.922 15.598 0 28.25-12.502 28.25-27.922 0-7.14-2.72-13.651-7.181-18.588v-.008c-.03-.094-.059-.106-.084-.133a1 1 0 0 0-.18-.144 1.1 1.1 0 0 0-.547-.2l-.006-.002c-.022 0-.047.01-.07.012v-.004l-.002.004c-.044.004-.088.003-.133.02a.25.25 0 0 0-.127.363 20.1 20.1 0 0 1 2.418 6.088 24 24 0 0 0-2.25-3.475C46.52 10.14 42.251 6.042 41.115 3.017a.25.25 0 0 0-.27-.16zm-.035.631c1.356 3.215 5.492 7.187 10.959 14.188a24.3 24.3 0 0 1 2.927 4.85c.048.346.101.69.131 1.042l.002.014c.013.147.02.295.03.443a19 19 0 0 1 .04 1.196l-.003.207q-.008.622-.051 1.232l-.004.033c-.448 6.07-3.654 11.13-8.315 14.371a11.74 11.74 0 0 0 1.803-6.261c0-3.466-1.494-6.584-3.873-8.746-2.453-4.3-7.078-7.202-12.38-7.202q-.483.001-.956.034c.692-5.497 2.97-10.745 9.69-15.4Zm-27.006 8.715c.064 2.383-.052 4.973 1.025 7.047a.25.25 0 0 0 .22.135c5.81.054 9.083 3.194 11.13 4.804q.412.323.824.608c.078.054.156.102.234.154.199.133.397.265.592.385.135.083.267.157.4.234.352.204.699.395 1.028.559a17 17 0 0 0 2.332.984c-.877.761-1.806 1.192-2.8 1.303h-.003c-1.126.125-2.33-.086-3.559-.47-2.46-.77-5.002-2.23-7.273-2.926l-.021-.006a7 7 0 0 0-1.34-.15 8 8 0 0 0-.366 0c-.075.001-.146.009-.22.013l-.121.008-.131.01a8 8 0 0 0-1.059.16l-.107.025q-.088.019-.174.041-.187.05-.37.108l-.23.072q-.194.068-.38.144c-.066.027-.133.05-.198.078q-.228.099-.445.207l-.12.057q-.224.116-.437.242l-.093.053a10 10 0 0 0-.48.309l-.038.029c-.114.114-.094.212-.088.285a1 1 0 0 0 .049.22q.073.238.25.57c.237.44.617.994 1.14 1.544 1.008 1.06 2.595 2.06 4.678 2.158-.137 3.405 1.02 6.371 2.68 8.6 1.697 2.278 3.872 3.811 5.674 4.33l.023.006 1.426.262c1.863.645 3.991 1.003 6.316.982q.409-.003.827-.021h.013c.095 0 .189-.005.283-.006q.343-.005.684-.018l.219-.01q.137-.008.273-.02.258-.014.514-.036a22 22 0 0 0 2.088-.284l.146-.027c.165-.032.327-.07.49-.105q.301-.065.596-.135.357-.088.707-.188.129-.035.256-.072.14-.043.277-.088.367-.113.729-.238l.12-.043a21 21 0 0 0 1.435-.574l.218-.096q.157-.074.313-.15.762-.361 1.486-.78l.04-.021.007-.006q.354-.207.7-.426l.132-.088a21 21 0 0 0 1.293-.912q.117-.087.23-.176l.102-.082q.277-.222.547-.453.106-.091.21-.185a20 20 0 0 0 .7-.647l.05-.049.048-.048q.166-.163.328-.329l.117-.117q.104-.11.205-.222a20 20 0 0 0 .93-1.08q.124-.153.246-.31l.002-.003.207-.281c2.427-3.279 3.861-7.336 3.861-11.83q-.001-.631-.043-1.246l-.011-.18-.057-.145q-.008.019-.02.035l-.013-.123c1.062 2.553 1.77 5.262 1.77 8.145 0 12.993-11.778 23.148-26.352 23.148-14.347 0-25.956-9.838-26.315-22.55.334-8.137 3.519-15.301 9.444-20.102zm8.437 2.09c-.503 3.08-.254 5 .186 6.59-1.628-.914-3.642-1.696-6.14-1.914 1.676-1.848 3.717-3.8 5.954-4.676zm30.643.385a.25.25 0 0 0-.203.142l.027-.05.053-.051a.2.2 0 0 1 .123-.041zm-.217.177a.3.3 0 0 0-.004.1c-.003-.016-.007-.029-.006-.053q.003-.023.01-.047zm-.004.104a.3.3 0 0 0 .037.092l.006.03-.02-.04.014.01c.003.003-.009.014-.033-.063-.002-.006-.002-.02-.004-.029zm.059.154c4.416 4.857 7.103 11.277 7.103 18.32 0 15.147-12.42 27.422-27.75 27.422-13.668 0-24.922-9.788-27.22-22.64 2.641 8.332 10.25 14.65 19.796 16.547q.233.047.47.092a30 30 0 0 0 1.087.175l.102.016q.341.049.685.09l.272.03.295.03a31 31 0 0 0 1.375.108c.575.032 1.153.052 1.738.052 14.807 0 26.851-10.353 26.851-23.648 0-3.583-.882-6.983-2.45-10.037l-.003-.004c-.405-2.348-1.23-4.543-2.351-6.553zm-20.647 4.242q.454.001.899.032c.12.008.24.022.359.033h.002q.245.021.486.05.31.042.616.096l.136.024c3.432.652 6.375 2.622 8.4 5.324A11.75 11.75 0 0 0 37.036 23a10 10 0 0 0-.523-.014h-.002q-.307.004-.612.022c-.26.015-.325.367-.09.476a11.31 11.31 0 0 1 6.508 10.229c-.002 5.364-3.746 9.996-8.808 11.166.045-.01.088-.026.133-.037l-.143.035-.094-.002q.05.002.1.004c-2.123-.008-4.067-.343-5.777-.922.018.011.02.03.035.045a.25.25 0 0 0-.088-.074c-2.664-.914-4.747-2.421-6.031-4.235l-.006-.007a8.4 8.4 0 0 1-.69-1.167l-.002-.002a8 8 0 0 1-.363-.867l-.022-.068a13 13 0 0 1-.271-.893q0-.008-.002-.015a7 7 0 0 1-.16-.807 3.7 3.7 0 0 1-.024-.703q.002.015.002.031v-.039l-.002.004q.022-.276.096-.525v-.002a2.4 2.4 0 0 1 .135-.368q.116-.245.297-.488l.006-.006c.236-.318.555-.635.978-.97l.012-.008q.342-.271.775-.563l.014-.01.037-.025a8.3 8.3 0 0 1 1.832-.857q.327-.109.69-.203c.185-.05.387-.09.587-.133l.082-.02.09-.02c.929-.184 2.01-.308 3.307-.349a.25.25 0 0 0 .129-.04c.288-.19.536-.363.77-.528.39-.274.743-.532 1.023-.758.45-.365.767-.674.99-.95.223-.274.353-.518.412-.747.06-.23.043-.44 0-.618a.25.25 0 0 0-.24-.183c.017 0 .034-.004.05 0-.49-.135-1.485-.5-2.648-1.086l-.107-.055a19 19 0 0 1-1.553-.886q-.146-.093-.29-.188a16 16 0 0 1-1.089-.78c-.63-.495-1.425-1.158-2.379-1.835 2.253-1.613 4.984-2.604 7.967-2.604zm-6.514 11.647c-.176.037-.354.073-.519.115h-.002l-.04.012c.18-.046.37-.087.561-.127zm-.56.127-.027.006zm-4.875 4.738.002.004zm.168.842.002.002zm7.432 7.248c.078.027.164.045.244.07-.09-.029-.183-.055-.272-.086zm3.388-24.562-.22.015zm-14.695.078zm1.85.298zm.52.131zm2.913 1.141q.133.068.262.137-.13-.07-.262-.137zm15.098 2.502a11.33 11.33 0 0 1 9.728 6.006c.484.913.846 1.902 1.063 2.945a11.26 11.26 0 0 1-2.4 9.553c-2.997 1.737-6.516 2.714-10.278 2.767.165-.002.326-.015.49-.021 3.643-1.495 6.364-4.778 7.164-8.701q.065-.312.114-.63l-.008.065.021-.16q.12-.811.121-1.656c-.005-4.257-2.36-8.08-6.015-10.168zm-20.219 1.818c.423.01.838.053 1.236.137 2.18.67 4.73 2.129 7.262 2.922 1.268.397 2.539.629 3.766.492a5 5 0 0 0 .633-.12 5.54 5.54 0 0 0 2.304-1.122 1.5 1.5 0 0 1-.217.35c-.376.465-1.179 1.142-2.625 2.097q-1.188.041-2.173.166-.511.066-.973.153h-.002c-.156.029-.296.066-.443.1l-.1.02c-.11.026-.227.048-.332.075h-.002c-.114.029-.215.064-.324.096q-.119.033-.233.068c-.077.023-.16.043-.234.068h-.002c-.067.023-.125.05-.19.073q-.228.08-.443.167l-.08.03h-.002l-.014.008c-.447.188-.847.4-1.21.63l-.004.004q-.495.329-.891.643a6 6 0 0 0-.932.896l-.006.008a4 4 0 0 0-.162.215l-.03.04a3.1 3.1 0 0 0-.41.802c-.014.044-.022.09-.034.135l-.006.02-.018.073c-.013.055-.029.109-.039.164l-.014.084.006-.027a3.4 3.4 0 0 0-.045.617l-.002.057v.01q.005.058.01.117c.036.603.2 1.274.461 2.055l.024.076.017.05q.099.285.225.56c.023.053.042.11.066.163l.094.198c.105.215.217.43.344.644.025.04.063.068.105.088a.25.25 0 0 1-.101-.08q.085.139.166.26.116.18.24.357h.002q.025.035.053.07c-.196-.179-.396-.342-.569-.574-1.638-2.2-2.8-5.115-2.607-8.484a.25.25 0 0 0-.248-.264c-2.049-.022-3.56-1.023-4.541-2.055a7 7 0 0 1-1.06-1.437 3 3 0 0 1-.215-.483c-.005-.013-.003-.015-.006-.027q.26-.173.537-.33l.037-.02a8.2 8.2 0 0 1 1.615-.703l.025-.007a7.3 7.3 0 0 1 1.801-.313 7 7 0 0 1 .51-.012zm38.254 1.416zm-22.781.012c.01-.003.02.001.03 0a.25.25 0 0 0-.14.064.24.24 0 0 1 .11-.064zm22.652 1.191q-.077.567-.186 1.122a19 19 0 0 1 .186-1.122zm-7.793 2.38q.044.099.086.199l-.086-.2zm.397 1.062.044.15zm6.195 1.105zm-.463 1.06zm-5.275.038.01.121zm-43.823.053c.015.164.036.325.055.488-.019-.163-.04-.325-.055-.488Zm.18 1.42Zm38.395 1.205q-.014.056-.026.113zm-38.11.258q.034.157.07.312zm46.18.912zm.412.271-.172.211zm-1.957 2.086q-.096.09-.193.178zm-9.195.98zm-.02.668-.088.1zm-.588.045-.055.06q.029-.03.055-.06zm.018.551q-.06.06-.12.117zm-.66.09zm.035.48zm-.754.13-.19.146q.096-.072.19-.147zm5.836.06zm-.764.342q-.304.13-.613.25a21 21 0 0 1 .613-.25zm-5.797.12zm.082.376-.095.058zm-.886.111zm4.459.168q-.253.074-.508.143.255-.068.508-.143zm-12.993.121a.2.2 0 0 1 .012.098.3.3 0 0 0-.012-.098zm12.172.106zm-12.164.06a.234.234 0 0 1-.28.17.25.25 0 0 0 .28-.17zm1.059.055zm10.004.137-.23.047zm-4.358.152-.176.059zm-4.2.021q.146.025.296.047-.15-.022-.297-.047zm7.46.018q-.197.028-.396.05.199-.022.396-.05zm-.92.113-.385.035q.193-.014.385-.035zm-5.043.063.254.02zm4.02.017q-.142.01-.284.016.143-.006.284-.016zm-2.041.061-.27.002z" style="mix-blend-mode:normal;stroke:#000;stroke-width:.22151784;stroke-linejoin:round;stroke-dasharray:none;stroke-opacity:1;filter:url(#n);fill:none" transform="translate(3.04 3.013)scale(.90286)"/><path d="M40.846 2.857a.25.25 0 0 0-.106.041c-7.062 4.8-9.454 10.336-10.15 16.038a14.2 14.2 0 0 0-6.951 2.689 19 19 0 0 0-.643-.406c-.526-1.751-.914-3.66-.225-7.336a.25.25 0 0 0-.324-.285c-2.684.882-5.001 3.294-6.828 5.334-.124-.006-.243-.017-.369-.02-1.014-2.045-.856-4.765-.965-7.295a.25.25 0 0 0-.402-.187c-6.334 4.898-9.68 12.41-10.024 20.865v.019c-.016.353-.033.71-.033 1.12 0 15.42 12.653 27.922 28.25 27.922 15.598 0 28.25-12.502 28.25-27.922 0-7.14-2.72-13.651-7.181-18.588v-.008c-.03-.094-.059-.106-.084-.133a1 1 0 0 0-.18-.144 1.1 1.1 0 0 0-.547-.2l-.006-.002c-.022 0-.047.01-.07.012v-.004l-.002.004c-.044.004-.088.003-.133.02a.25.25 0 0 0-.127.363 20.1 20.1 0 0 1 2.418 6.088 24 24 0 0 0-2.25-3.475C46.52 10.14 42.251 6.042 41.115 3.017a.25.25 0 0 0-.27-.16zm-.035.631c1.356 3.215 5.492 7.187 10.959 14.188a24.3 24.3 0 0 1 2.927 4.85c.048.346.101.69.131 1.042l.002.014c.013.147.02.295.03.443a19 19 0 0 1 .04 1.196l-.003.207q-.008.622-.051 1.232l-.004.033c-.448 6.07-3.654 11.13-8.315 14.371a11.74 11.74 0 0 0 1.803-6.261c0-3.466-1.494-6.584-3.873-8.746-2.453-4.3-7.078-7.202-12.38-7.202q-.483.001-.956.034c.692-5.497 2.97-10.745 9.69-15.4Zm-27.006 8.715c.064 2.383-.052 4.973 1.025 7.047a.25.25 0 0 0 .22.135c5.81.054 9.083 3.194 11.13 4.804q.412.323.824.608c.078.054.156.102.234.154.199.133.397.265.592.385.135.083.267.157.4.234.352.204.699.395 1.028.559a17 17 0 0 0 2.332.984c-.877.761-1.806 1.192-2.8 1.303h-.003c-1.126.125-2.33-.086-3.559-.47-2.46-.77-5.002-2.23-7.273-2.926l-.021-.006a7 7 0 0 0-1.34-.15 8 8 0 0 0-.366 0c-.075.001-.146.009-.22.013l-.121.008-.131.01a8 8 0 0 0-1.059.16l-.107.025q-.088.019-.174.041-.187.05-.37.108l-.23.072q-.194.068-.38.144c-.066.027-.133.05-.198.078q-.228.099-.445.207l-.12.057q-.224.116-.437.242l-.093.053a10 10 0 0 0-.48.309l-.038.029c-.114.114-.094.212-.088.285a1 1 0 0 0 .049.22q.073.238.25.57c.237.44.617.994 1.14 1.544 1.008 1.06 2.595 2.06 4.678 2.158-.137 3.405 1.02 6.371 2.68 8.6 1.697 2.278 3.872 3.811 5.674 4.33l.023.006 1.426.262c1.863.645 3.991 1.003 6.316.982q.409-.003.827-.021h.013c.095 0 .189-.005.283-.006q.343-.005.684-.018l.219-.01q.137-.008.273-.02.258-.014.514-.036a22 22 0 0 0 2.088-.284l.146-.027c.165-.032.327-.07.49-.105q.301-.065.596-.135.357-.088.707-.188.129-.035.256-.072.14-.043.277-.088.367-.113.729-.238l.12-.043a21 21 0 0 0 1.435-.574l.218-.096q.157-.074.313-.15.762-.361 1.486-.78l.04-.021.007-.006q.354-.207.7-.426l.132-.088a21 21 0 0 0 1.293-.912q.117-.087.23-.176l.102-.082q.277-.222.547-.453.106-.091.21-.185a20 20 0 0 0 .7-.647l.05-.049.048-.048q.166-.163.328-.329l.117-.117q.104-.11.205-.222a20 20 0 0 0 .93-1.08q.124-.153.246-.31l.002-.003.207-.281c2.427-3.279 3.861-7.336 3.861-11.83q-.001-.631-.043-1.246l-.011-.18-.057-.145q-.008.019-.02.035l-.013-.123c1.062 2.553 1.77 5.262 1.77 8.145 0 12.993-11.778 23.148-26.352 23.148-14.347 0-25.956-9.838-26.315-22.55.334-8.137 3.519-15.301 9.444-20.102zm8.437 2.09c-.503 3.08-.254 5 .186 6.59-1.628-.914-3.642-1.696-6.14-1.914 1.676-1.848 3.717-3.8 5.954-4.676zm30.643.385a.25.25 0 0 0-.203.142l.027-.05.053-.051a.2.2 0 0 1 .123-.041zm-.217.177a.3.3 0 0 0-.004.1c-.003-.016-.007-.029-.006-.053q.003-.023.01-.047zm-.004.104a.3.3 0 0 0 .037.092l.006.03-.02-.04.014.01c.003.003-.009.014-.033-.063-.002-.006-.002-.02-.004-.029zm.059.154c4.416 4.857 7.103 11.277 7.103 18.32 0 15.147-12.42 27.422-27.75 27.422-13.668 0-24.922-9.788-27.22-22.64 2.641 8.332 10.25 14.65 19.796 16.547q.233.047.47.092a30 30 0 0 0 1.087.175l.102.016q.341.049.685.09l.272.03.295.03a31 31 0 0 0 1.375.108c.575.032 1.153.052 1.738.052 14.807 0 26.851-10.353 26.851-23.648 0-3.583-.882-6.983-2.45-10.037l-.003-.004c-.405-2.348-1.23-4.543-2.351-6.553zm-20.647 4.242q.454.001.899.032c.12.008.24.022.359.033h.002q.245.021.486.05.31.042.616.096l.136.024c3.432.652 6.375 2.622 8.4 5.324A11.75 11.75 0 0 0 37.036 23a10 10 0 0 0-.523-.014h-.002q-.307.004-.612.022c-.26.015-.325.367-.09.476a11.31 11.31 0 0 1 6.508 10.229c-.002 5.364-3.746 9.996-8.808 11.166.045-.01.088-.026.133-.037l-.143.035-.094-.002q.05.002.1.004c-2.123-.008-4.067-.343-5.777-.922.018.011.02.03.035.045a.25.25 0 0 0-.088-.074c-2.664-.914-4.747-2.421-6.031-4.235l-.006-.007a8.4 8.4 0 0 1-.69-1.167l-.002-.002a8 8 0 0 1-.363-.867l-.022-.068a13 13 0 0 1-.271-.893q0-.008-.002-.015a7 7 0 0 1-.16-.807 3.7 3.7 0 0 1-.024-.703q.002.015.002.031v-.039l-.002.004q.022-.276.096-.525v-.002a2.4 2.4 0 0 1 .135-.368q.116-.245.297-.488l.006-.006c.236-.318.555-.635.978-.97l.012-.008q.342-.271.775-.563l.014-.01.037-.025a8.3 8.3 0 0 1 1.832-.857q.327-.109.69-.203c.185-.05.387-.09.587-.133l.082-.02.09-.02c.929-.184 2.01-.308 3.307-.349a.25.25 0 0 0 .129-.04c.288-.19.536-.363.77-.528.39-.274.743-.532 1.023-.758.45-.365.767-.674.99-.95.223-.274.353-.518.412-.747.06-.23.043-.44 0-.618a.25.25 0 0 0-.24-.183c.017 0 .034-.004.05 0-.49-.135-1.485-.5-2.648-1.086l-.107-.055a19 19 0 0 1-1.553-.886q-.146-.093-.29-.188a16 16 0 0 1-1.089-.78c-.63-.495-1.425-1.158-2.379-1.835 2.253-1.613 4.984-2.604 7.967-2.604zm-6.514 11.647c-.176.037-.354.073-.519.115h-.002l-.04.012c.18-.046.37-.087.561-.127zm-.56.127-.027.006zm-4.875 4.738.002.004zm.168.842.002.002zm7.432 7.248c.078.027.164.045.244.07-.09-.029-.183-.055-.272-.086zm3.388-24.562-.22.015zm-14.695.078zm1.85.298zm.52.131zm2.913 1.141q.133.068.262.137-.13-.07-.262-.137zm15.098 2.502a11.33 11.33 0 0 1 9.728 6.006c.484.913.846 1.902 1.063 2.945a11.26 11.26 0 0 1-2.4 9.553c-2.997 1.737-6.516 2.714-10.278 2.767.165-.002.326-.015.49-.021 3.643-1.495 6.364-4.778 7.164-8.701q.065-.312.114-.63l-.008.065.021-.16q.12-.811.121-1.656c-.005-4.257-2.36-8.08-6.015-10.168zm-20.219 1.818c.423.01.838.053 1.236.137 2.18.67 4.73 2.129 7.262 2.922 1.268.397 2.539.629 3.766.492a5 5 0 0 0 .633-.12 5.54 5.54 0 0 0 2.304-1.122 1.5 1.5 0 0 1-.217.35c-.376.465-1.179 1.142-2.625 2.097q-1.188.041-2.173.166-.511.066-.973.153h-.002c-.156.029-.296.066-.443.1l-.1.02c-.11.026-.227.048-.332.075h-.002c-.114.029-.215.064-.324.096q-.119.033-.233.068c-.077.023-.16.043-.234.068h-.002c-.067.023-.125.05-.19.073q-.228.08-.443.167l-.08.03h-.002l-.014.008c-.447.188-.847.4-1.21.63l-.004.004q-.495.329-.891.643a6 6 0 0 0-.932.896l-.006.008a4 4 0 0 0-.162.215l-.03.04a3.1 3.1 0 0 0-.41.802c-.014.044-.022.09-.034.135l-.006.02-.018.073c-.013.055-.029.109-.039.164l-.014.084.006-.027a3.4 3.4 0 0 0-.045.617l-.002.057v.01q.005.058.01.117c.036.603.2 1.274.461 2.055l.024.076.017.05q.099.285.225.56c.023.053.042.11.066.163l.094.198c.105.215.217.43.344.644.025.04.063.068.105.088a.25.25 0 0 1-.101-.08q.085.139.166.26.116.18.24.357h.002q.025.035.053.07c-.196-.179-.396-.342-.569-.574-1.638-2.2-2.8-5.115-2.607-8.484a.25.25 0 0 0-.248-.264c-2.049-.022-3.56-1.023-4.541-2.055a7 7 0 0 1-1.06-1.437 3 3 0 0 1-.215-.483c-.005-.013-.003-.015-.006-.027q.26-.173.537-.33l.037-.02a8.2 8.2 0 0 1 1.615-.703l.025-.007a7.3 7.3 0 0 1 1.801-.313 7 7 0 0 1 .51-.012zm38.254 1.416zm-22.781.012c.01-.003.02.001.03 0a.25.25 0 0 0-.14.064.24.24 0 0 1 .11-.064zm22.652 1.191q-.077.567-.186 1.122a19 19 0 0 1 .186-1.122zm-7.793 2.38q.044.099.086.199l-.086-.2zm.397 1.062.044.15zm6.195 1.105zm-.463 1.06zm-5.275.038.01.121zm-43.823.053c.015.164.036.325.055.488-.019-.163-.04-.325-.055-.488Zm.18 1.42Zm38.395 1.205q-.014.056-.026.113zm-38.11.258q.034.157.07.312zm46.18.912zm.412.271-.172.211zm-1.957 2.086q-.096.09-.193.178zm-9.195.98zm-.02.668-.088.1zm-.588.045-.055.06q.029-.03.055-.06zm.018.551q-.06.06-.12.117zm-.66.09zm.035.48zm-.754.13-.19.146q.096-.072.19-.147zm5.836.06zm-.764.342q-.304.13-.613.25a21 21 0 0 1 .613-.25zm-5.797.12zm.082.376-.095.058zm-.886.111zm4.459.168q-.253.074-.508.143.255-.068.508-.143zm-12.993.121a.2.2 0 0 1 .012.098.3.3 0 0 0-.012-.098zm12.172.106zm-12.164.06a.234.234 0 0 1-.28.17.25.25 0 0 0 .28-.17zm1.059.055zm10.004.137-.23.047zm-4.358.152-.176.059zm-4.2.021q.146.025.296.047-.15-.022-.297-.047zm7.46.018q-.197.028-.396.05.199-.022.396-.05zm-.92.113-.385.035q.193-.014.385-.035zm-5.043.063.254.02zm4.02.017q-.142.01-.284.016.143-.006.284-.016zm-2.041.061-.27.002z" style="mix-blend-mode:normal;fill:none;stroke:#000;stroke-width:.11075892;stroke-linejoin:round;stroke-dasharray:none;stroke-opacity:1;filter:url(#o)" transform="translate(3.04 3.013)scale(.90286)"/><path d="M25.017 45.819H9.295a2.74 2.74 0 0 1-2.734-2.735v8.887a6.14 6.14 0 0 0 6.152 6.152H31.17v-6.152a6.14 6.14 0 0 0-6.153-6.152" style="fill:#50c4ff;fill-opacity:1;stroke-width:.683587"/><path d="M9.978 49.13v5.469h1.526q.788 0 1.242-.422.452-.422.451-1.164 0-.429-.11-.69a.93.93 0 0 0-.296-.398 1.1 1.1 0 0 0-.42-.192v-.037a.75.75 0 0 0 .524-.39q.187-.322.187-.79 0-.773-.473-1.08-.47-.306-1.394-.306zm4.786 0v5.469h3.418v-.684h-2.735v-2.05h2.051v-.684h-2.05v-1.368h2.734v-.683zm4.785 0v.683h1.367V54.6h.752l-.068-4.786h1.367v-.683zm6.1 0-1.999 5.469h.813l.48-1.368h2.813l.414 1.368h.95l-2.007-5.47zm.736.435 1.086 2.983h-2.225Zm-15.723.248h.895c.814-.038.806.743.806.743s.045.625-.756.625h-.945Zm1.041 2.047c.278-.007.475.156.584.276.12.122.18.557.18.761 0 .225-.058.68-.174.819q-.174.2-.613.199h-1.018v-2.05h.984z" style="fill:#3f3f3f;stroke-width:.683587"/></svg>