<svg xmlns="http://www.w3.org/2000/svg" width="64" height="64"><rect width="56" height="50" x="4" y="8" rx="4.2" ry="4.167" style="opacity:.2"/><rect width="56" height="50" x="4" y="7" rx="4.2" ry="4.167" style="fill:#4f4f4f"/><path d="M23 22 12 32.121v2.928L23 44v-4.893l-7.576-5.73L23 26.893Zm3 0v4.893l7.576 6.484L26 39.107V44l11-8.951V32.12zm25 0L40 32.121v2.928L51 44v-4.893l-7.576-5.73L51 26.893Z" style="opacity:.2"/><path d="m23 43-11-8.95v-2.928L23 21v4.894l-7.575 6.482L23 38.106Z" style="fill:#f44336"/><path d="m26 38.106 7.575-5.73L26 25.894V21l11 10.122v2.927L26 43Z" style="fill:#ff9407"/><path d="m51 43-11-8.95v-2.928L51 21v4.894l-7.575 6.482L51 38.106Z" style="fill:#ffeb3b"/><path d="M23 21 12 31.121v1L23 22zm3 0v1l11 10.121v-1zm25 0L40 31.121v1L51 22zM16.045 32.846l-.621.531L23 39.107v-1zm16.91 0L26 38.107v1l7.576-5.73zm11.09 0-.621.531L51 39.107v-1z" style="fill:#fff;opacity:.2"/><path d="M8.2 7C5.871 7 4 8.858 4 11.166v1C4 9.858 5.872 8 8.2 8h47.6c2.328 0 4.2 1.858 4.2 4.166v-1C60 8.858 58.128 7 55.8 7z" style="fill:#fff;opacity:.1"/></svg>