<svg xmlns="http://www.w3.org/2000/svg" width="64" height="64"><path d="M11 5a7 7 0 0 0-7 7 7 7 0 0 0 7 7 7 7 0 0 0 7-7 7 7 0 0 0-7-7m42 0a7 7 0 0 0-7 7 7 7 0 0 0 7 7 7 7 0 0 0 7-7 7 7 0 0 0-7-7M39 19a7 7 0 0 0-7 7 7 7 0 0 0 7 7 7 7 0 0 0 7-7 7 7 0 0 0-7-7M25 33a7 7 0 0 0-7 7 7 7 0 0 0 7 7 7 7 0 0 0 7-7 7 7 0 0 0-7-7M11 47a7 7 0 0 0-7 7 7 7 0 0 0 7 7 7 7 0 0 0 7-7 7 7 0 0 0-7-7m28 0a7 7 0 0 0-7 7 7 7 0 0 0 7 7 7 7 0 0 0 7-7 7 7 0 0 0-7-7m7 7a7 7 0 0 0 7 7 7 7 0 0 0 7-7 7 7 0 0 0-7-7 7 7 0 0 0-7 7" style="opacity:.2"/><circle cx="53" cy="53" r="7" style="fill:#4caf50"/><circle cx="25" cy="39" r="7" style="fill:#3f51b5"/><circle cx="25" cy="26" r="7" style="opacity:.2"/><circle cx="25" cy="25" r="7" style="fill:#4caf50"/><circle cx="11" cy="11" r="7" style="fill:#4caf50"/><circle cx="25" cy="12" r="7" style="opacity:.2"/><circle cx="25" cy="11" r="7" style="fill:#f44336"/><circle cx="53" cy="11" r="7" style="fill:#3f51b5"/><circle cx="39" cy="25" r="7" style="fill:#3f51b5"/><circle cx="53" cy="40" r="7" style="opacity:.2"/><circle cx="53" cy="39" r="7" style="fill:#f44336"/><circle cx="11" cy="53" r="7" style="fill:#3f51b5"/><circle cx="39" cy="53" r="7" style="fill:#3f51b5"/><path d="M11 4a7 7 0 0 0-7 7 7 7 0 0 0 .025.438A7 7 0 0 1 11 5a7 7 0 0 1 6.975 6.492A7 7 0 0 0 18 11a7 7 0 0 0-7-7m7 7a7 7 0 0 0 .025.438A7 7 0 0 1 25 5a7 7 0 0 1 6.975 6.492A7 7 0 0 0 32 11a7 7 0 0 0-7-7 7 7 0 0 0-7 7m35-7a7 7 0 0 0-7 7 7 7 0 0 0 .025.438A7 7 0 0 1 53 5a7 7 0 0 1 6.975 6.492A7 7 0 0 0 60 11a7 7 0 0 0-7-7M39 18a7 7 0 0 0-7 7 7 7 0 0 0 .025.438A7 7 0 0 1 39 19a7 7 0 0 1 6.975 6.492A7 7 0 0 0 46 25a7 7 0 0 0-7-7m14 14a7 7 0 0 0-7 7 7 7 0 0 0 .025.438A7 7 0 0 1 53 33a7 7 0 0 1 6.975 6.492A7 7 0 0 0 60 39a7 7 0 0 0-7-7M11 46a7 7 0 0 0-7 7 7 7 0 0 0 .025.438A7 7 0 0 1 11 47a7 7 0 0 1 6.975 6.492A7 7 0 0 0 18 53a7 7 0 0 0-7-7m28 0a7 7 0 0 0-7 7 7 7 0 0 0 .025.438A7 7 0 0 1 39 47a7 7 0 0 1 6.975 6.492A7 7 0 0 0 46 53a7 7 0 0 0-7-7" style="opacity:.1;fill:#fff"/></svg>