<svg xmlns="http://www.w3.org/2000/svg" width="64" height="64"><path d="M6.148 35c-.228 0-4.576-.001-.215 4.02l23.189 20.8c.861.773 1.75 1.165 2.878 1.18 1.129-.015 2.017-.407 2.878-1.18l23.189-20.8c4.36-4.02.013-4.02-.215-4.02z" style="opacity:.2;fill-rule:evenodd"/><path d="M16.77 4C15.618 4 14 5.241 14 6.783V36h36V6.783C50 5.24 48.381 4 47.23 4Z" style="fill:#c03131"/><path d="M6.148 34c-.228 0-4.576-.001-.215 4.02l23.189 20.8c.861.773 1.75 1.165 2.878 1.18 1.129-.015 2.017-.407 2.878-1.18l23.189-20.8c4.36-4.02.013-4.02-.215-4.02z" style="fill:#d54747;fill-rule:evenodd"/><path d="M16.77 4C15.619 4 14 5.24 14 6.781v1C14 6.24 15.619 5 16.77 5h30.46C48.381 5 50 6.24 50 7.781v-1C50 5.24 48.381 4 47.23 4z" style="opacity:.1;fill:#fff"/><path d="M6.148 34c-.173 0-2.701.003-2.027 1.75.429-.748 1.897-.75 2.027-.75h51.704c.13 0 1.598.002 2.027.75.674-1.747-1.854-1.75-2.027-1.75z" style="opacity:.2;fill:#fff;fill-rule:evenodd"/></svg>