<svg xmlns="http://www.w3.org/2000/svg" width="64" height="64"><rect width="56" height="56" x="4" y="5" ry="4.2" style="opacity:.2"/><rect width="56" height="56" x="4" y="4" ry="4.2" style="fill:#e53935"/><path d="M10 10h44v44H10z" style="fill:#4b222b"/><path d="M38 19v28h4V19Zm-16 2v26h4V35h9v-4h-9v-6h10v-4z" style="opacity:.2"/><path d="M38 18v28h4V18Zm-16 2v26h4V34h9v-4h-9v-6h10v-4z" style="fill:#e53935"/><path d="M8.2 4A4.19 4.19 0 0 0 4 8.2v1A4.19 4.19 0 0 1 8.2 5h47.6A4.19 4.19 0 0 1 60 9.2v-1A4.19 4.19 0 0 0 55.8 4zM38 18v1h4v-1zm-16 2v1h14v-1zm4 10v1h9v-1z" style="opacity:.2;fill:#fff"/></svg>