<svg xmlns="http://www.w3.org/2000/svg" width="64" height="64"><rect width="56" height="56" x="4" y="5" rx="16.8" ry="16.8" style="opacity:.2"/><rect width="56" height="56" x="4" y="4" rx="16.8" ry="16.8" style="fill:#546580"/><rect width="40" height="40" x="-53" y="-52" rx="20" ry="20" style="opacity:.2" transform="rotate(90)scale(-1 1)"/><rect width="40" height="40" x="-52" y="-52" rx="20" ry="20" style="fill:#e74c3c" transform="rotate(90)scale(-1 1)"/><path d="M20.8 4C11.495 4 4 11.494 4 20.8v1C4 12.495 11.494 5 20.8 5h22.4C52.505 5 60 12.494 60 21.8v-1C60 11.495 52.506 4 43.2 4Z" style="fill:#fff;opacity:.1"/></svg>