<svg xmlns="http://www.w3.org/2000/svg" xmlns:xlink="http://www.w3.org/1999/xlink" xml:space="preserve" width="64" height="64"><defs><filter id="e" width="1.138" height="1.151" x="-.069" y="-.076" style="color-interpolation-filters:sRGB"><feGaussianBlur stdDeviation="1.011"/></filter><filter id="d" width="1.189" height="1.212" x="-.094" y="-.106" style="color-interpolation-filters:sRGB"><feGaussianBlur stdDeviation="1.471"/></filter><filter id="c" width="1.175" height="1.189" x="-.088" y="-.094" style="color-interpolation-filters:sRGB"><feGaussianBlur stdDeviation="1.286"/></filter><radialGradient xlink:href="#a" id="b" cx="22.025" cy="35.47" r="18.282" fx="22.025" fy="35.47" gradientTransform="rotate(-45 -12.18 87.746)scale(2.27848 2.07936)" gradientUnits="userSpaceOnUse"/><linearGradient id="a"><stop offset="0" style="stop-color:#3d46ff;stop-opacity:1"/><stop offset="1" style="stop-color:#ac46ff;stop-opacity:1"/></linearGradient></defs><path d="M29.173 32.521H19.49a8.3 8.3 30 0 1-7.187-4.15l-4.841-8.385a8.3 8.3 90 0 1 0-8.299l4.841-8.386a8.3 8.3 150 0 1 7.187-4.15h9.683a8.3 8.3 30 0 1 7.187 4.15l4.842 8.386a8.3 8.3 90 0 1 0 8.3l-4.842 8.385a8.3 8.3 150 0 1-7.187 4.15" style="opacity:1;fill:url(#b);stroke-width:.4" transform="translate(-4.71 8.107)scale(1.50872)"/><path d="M29.173 32.521H19.49a8.3 8.3 30 0 1-7.187-4.15l-4.841-8.385a8.3 8.3 90 0 1 0-8.299l4.841-8.386a8.3 8.3 150 0 1 7.187-4.15h9.683a8.3 8.3 30 0 1 7.187 4.15l4.842 8.386a8.3 8.3 90 0 1 0 8.3l-4.842 8.385a8.3 8.3 150 0 1-7.187 4.15z" style="fill:none;stroke-width:.13256272;stroke:#000;stroke-opacity:1;stroke-dasharray:none;filter:url(#c)" transform="translate(-4.71 8.107)scale(1.50872)"/><path d="M30.295 32.521H18.369a6.36 6.36 30 0 1-5.505-3.178L6.9 19.015a6.36 6.36 90 0 1 0-6.357L12.864 2.33a6.36 6.36 150 0 1 5.505-3.178h11.926A6.36 6.36 30 0 1 35.8 2.33l5.963 10.328a6.36 6.36 90 0 1 0 6.357L35.8 29.343a6.36 6.36 150 0 1-5.505 3.178" style="opacity:.28011161;stroke-width:.4" transform="translate(7.976 16.364)scale(.98736)"/><path d="M31.78 32.521H16.883a3.78 3.78 30 0 1-3.276-1.891L6.158 17.728a3.78 3.78 90 0 1 0-3.783l7.449-12.901a3.78 3.78 150 0 1 3.276-1.892H31.78a3.78 3.78 30 0 1 3.277 1.892l7.448 12.9a3.78 3.78 90 0 1 0 3.784L35.057 30.63a3.78 3.78 150 0 1-3.277 1.891" style="opacity:.4140625;stroke-width:.4;filter:url(#d)" transform="translate(8.465 16.682)scale(.96727)"/><path d="M18.368-.848a6.36 6.36 0 0 0-5.504 3.178L6.901 12.657a6.36 6.36 0 0 0 0 6.359l5.963 10.327c1.191 2.062 2.993 2.81 4.4 3.061.72.129 1.32-.477 1.32-1.21V20.318a.6.6 135 0 1 .598-.599H40.34c.326 0 .724-.228.878-.516 1.042-1.945 1.554-3.847.674-5.802-.134-.297-.534-.525-.86-.525h-21.85a.6.6 45 0 1-.598-.598V6.594a.6.6 135 0 1 .598-.598h17.142a.92.92 120 0 0 .796-1.38L35.8 2.33a6.36 6.36 0 0 0-5.415-3.178H18.584Z" style="opacity:1;fill:#fff;fill-opacity:1;stroke-width:.4" transform="translate(5.862 14.988)scale(1.07425)"/><path d="M18.368-.848a6.36 6.36 0 0 0-5.504 3.178L6.901 12.657a6.36 6.36 0 0 0 0 6.359l5.963 10.327c1.191 2.062 2.993 2.81 4.4 3.061.72.129 1.32-.477 1.32-1.21V19.857a.6.6 135 0 1 .598-.599h21.34c.607 0 1.357-.424 1.59-.985.678-1.63.681-3.236 0-4.872-.233-.562-.983-.986-1.59-.986h-21.34a.6.6 45 0 1-.598-.598V6.594a.6.6 135 0 1 .598-.598h17.142a.92.92 120 0 0 .796-1.38L35.8 2.33a6.36 6.36 0 0 0-5.415-3.178H18.584Z" style="fill:none;fill-opacity:1;stroke:#0a0087;stroke-width:.183823;stroke-dasharray:none;stroke-opacity:1;filter:url(#e)" transform="translate(5.862 14.988)scale(1.07425)"/></svg>