<svg xmlns="http://www.w3.org/2000/svg" width="64" height="64"><path d="M4 56.2v2C4 59.75 5.25 61 6.8 61h50.4c1.55 0 2.8-1.25 2.8-2.8v-2c0 1.55-1.25 2.8-2.8 2.8H6.8C5.25 59 4 57.75 4 56.2" style="opacity:.2"/><rect width="56" height="56" x="4" y="4" rx="2.8" ry="2.8" style="fill:#4f4f4f"/><path d="M16 18v32h32V18zm6 6h20v20H22z" style="fill:#848484"/><path d="M12 35h20v20H12z" style="opacity:.2"/><path d="M12 34h20v20H12z" style="fill:#64b5ff"/><path d="M12 15h20v14H12z" style="opacity:.2"/><path d="M12 14h20v14H12z" style="fill:#e47cff"/><circle cx="44.999" cy="22" r="7" style="opacity:.2"/><circle cx="44.999" cy="21.001" r="7" style="fill:#ff6363"/><path d="M36 39h16v14H36z" style="opacity:.2"/><path d="M36 38h16v14H36z" style="fill:#3bff80"/><path d="M6.8 4C5.25 4 4 5.25 4 6.8v1.003a2.796 2.796 0 0 1 2.8-2.801h50.4c1.55 0 2.8 1.25 2.8 2.8v-1A2.796 2.796 0 0 0 57.2 4z" style="opacity:.1;fill:#fff"/></svg>