<svg xmlns="http://www.w3.org/2000/svg" width="64" height="64"><rect width="50" height="50" x="9" y="6" rx="2.778" ry="2.778" style="opacity:.2"/><rect width="50" height="50" x="9" y="5" rx="2.778" ry="2.778" style="fill:#7ab8e8"/><rect width="42" height="42" x="7" y="16" rx="2.8" ry="2.8" style="opacity:.2"/><rect width="42" height="42" x="7" y="15" rx="2.8" ry="2.8" style="fill:#5093c8"/><rect width="30" height="30" x="5" y="30" rx="2.727" ry="2.727" style="opacity:.2"/><rect width="30" height="30" x="5" y="29" rx="2.727" ry="2.727" style="fill:#0077d3"/><path d="M13 36v18h4v-7h10v-3H17v-5h10v-3H17Z" style="opacity:.2"/><path d="M13 35v18h4v-7h10v-3H17v-5h10v-3H17Z" style="fill:#fff"/><path d="M11.777 5A2.77 2.77 0 0 0 9 7.777v1A2.77 2.77 0 0 1 11.777 6h44.446A2.77 2.77 0 0 1 59 8.777v-1A2.77 2.77 0 0 0 56.223 5z" style="opacity:.2;fill:#fff"/></svg>