<svg xmlns="http://www.w3.org/2000/svg" width="64" height="64"><path d="M59.957 31.828A28 28 0 0 1 32 59 28 28 0 0 1 4.044 32.172 28 28 0 0 0 4 33a28 28 0 0 0 28 28 28 28 0 0 0 28-28 28 28 0 0 0-.043-1.172" style="opacity:.2"/><path d="M31.998 4A28 28 0 0 0 4 32a28 28 0 0 0 1.191 8h53.627a28 28 0 0 0 1.18-8A28 28 0 0 0 32 4zm25.986 38.373a28 28 0 0 1-.806 1.803 28 28 0 0 0 .806-1.803" style="fill:#ffc567"/><path d="M5.191 40A28 28 0 0 0 32 60a28 28 0 0 0 26.82-20z" style="fill:#4a78c9"/><circle cx="41.999" cy="23.001" r="8" style="opacity:.2"/><circle cx="41.999" cy="22.001" r="8" style="fill:#ff7e30"/><path d="M32 4C16.488 4 4 16.488 4 32c0 .114.011.225.018.338C4.368 17.135 16.71 5 32 5s27.632 12.135 27.982 27.338c.007-.113.018-.224.018-.338C60 16.488 47.512 4 32 4M4.559 39.61c.029.143.074.287.105.431-.031-.144-.076-.288-.105-.432m.648.55c.087.288.197.568.293.852-.096-.284-.206-.564-.293-.852m-.648.45c.029.143.074.287.105.431-.031-.144-.076-.288-.105-.432m.648.55c.087.288.197.568.293.852-.096-.284-.206-.564-.293-.852m0 1c.087.288.197.568.293.852-.096-.284-.206-.564-.293-.852m0 1c.087.288.197.568.293.852-.096-.284-.206-.564-.293-.852m.875 1.453c.127.31.27.618.406.924-.137-.306-.279-.614-.406-.924m0 1c.127.31.269.618.406.924-.137-.306-.28-.614-.406-.924m2.387 3.567c.183.284.365.57.558.847-.193-.278-.375-.563-.558-.847m0 1c.183.284.365.57.558.847-.193-.278-.375-.563-.558-.847m1.508 1.111c.197.25.387.508.593.752-.206-.244-.396-.502-.593-.752m0 1c.197.25.387.508.593.752-.206-.244-.396-.502-.593-.752m1.812 1.092c.163.17.317.35.484.515-.167-.166-.32-.345-.484-.515m0 1c.163.17.317.35.484.515-.167-.166-.32-.345-.484-.515m4.39.742c.251.172.514.32.77.484-.256-.164-.519-.312-.77-.484m0 1c.251.172.514.32.77.484-.256-.164-.519-.312-.77-.484m0 1c.251.172.514.32.77.484-.256-.164-.519-.312-.77-.484m2.169.334c.294.162.598.313.898.467-.3-.154-.604-.303-.898-.467m-2.168.666c.25.172.513.32.77.484-.257-.164-.52-.312-.77-.484m9.425 1.121c.412.096.819.196 1.239.274-.418-.078-.827-.178-1.239-.274m-7.257.213c.294.164.597.313.898.467-.3-.154-.604-.305-.898-.467m7.257.787c.412.096.82.196 1.239.274-.42-.078-.827-.178-1.239-.274m-4.929.367c.31.136.621.261.937.387-.316-.126-.63-.25-.937-.387m4.93.633c.411.096.82.196 1.238.274-.42-.078-.827-.178-1.239-.274m-.001 1c.412.096.819.196 1.239.274-.418-.078-.827-.178-1.239-.274m1.612.34" style="opacity:.2;fill:#fff"/></svg>