<svg xmlns="http://www.w3.org/2000/svg" xmlns:xlink="http://www.w3.org/1999/xlink" width="64" height="64"><defs><radialGradient xlink:href="#a" id="c" cx="12.972" cy="52.469" r="28" fx="12.972" fy="52.469" gradientTransform="translate(-16.79 -59.193)scale(2.16251)" gradientUnits="userSpaceOnUse"/><linearGradient id="a"><stop offset="0" style="stop-color:#e4e4e4;stop-opacity:1"/><stop offset="1" style="stop-color:#a4a4a4;stop-opacity:1"/></linearGradient><filter id="b" width="1.039" height="1.039" x="-.02" y="-.02" style="color-interpolation-filters:sRGB"><feGaussianBlur stdDeviation=".455"/></filter></defs><path d="M32 4.4c-15.512 0-28 12.488-28 28s12.488 28 28 28 28-12.488 28-28-12.488-28-28-28" style="opacity:.820098;filter:url(#b)" transform="translate(-2.875 -2.91)scale(1.08983)"/><path d="M32 1.449A30.45 30.45 0 0 0 1.485 31.964 30.45 30.45 0 0 0 32 62.48a30.45 30.45 0 0 0 30.515-30.515A30.45 30.45 0 0 0 32 1.45" style="fill:url(#c);stroke-width:1.08983"/><path d="M34.214 14.134c-4.712 0-7.575 5.27-9.378 9.955l-2.264 6.88-2.88 9.224c-.894 2.595-1.524 6.721-4.249 7.054-1.192.146-1.14-2.547-2.547-2.547a2.547 2.547 0 1 0 0 5.095h1.607c5.448 0 8.555-6.855 10.89-14.398l1.309-4.259 2.09-6.721c1.078-2.778 1.526-7.35 4.482-7.736 1.19-.156 1.14 2.547 2.547 2.547a2.547 2.547 0 1 0 0-5.094z" style="fill:#404040;stroke-width:1.2736"/><path d="M15.443 26.87h20.378v2.547H15.443z" style="fill:#404040;stroke-width:1.2736"/><path d="M49.497 14.134c-4.711 0-7.575 5.27-9.378 9.955l-2.263 6.88-2.88 9.224c-.895 2.595-1.525 6.721-4.25 7.054-1.191.146-1.14-2.547-2.547-2.547a2.547 2.547 0 1 0 0 5.095h1.607c5.448 0 8.555-6.855 10.89-14.398l1.309-4.259 2.09-6.721c1.078-2.778 1.527-7.35 4.482-7.736 1.19-.156 1.14 2.547 2.547 2.547a2.547 2.547 0 1 0 0-5.094z" style="fill:#404040;stroke-width:1.2736"/><path d="M30.726 26.87h20.378v2.547H30.726z" style="fill:#404040;stroke-width:1.2736"/></svg>