<svg xmlns="http://www.w3.org/2000/svg" width="64" height="64"><path d="M4 56v2c0 1.662 1.338 3 3 3h50c1.662 0 3-1.338 3-3v-2c0 1.662-1.338 3-3 3H7c-1.662 0-3-1.338-3-3" style="opacity:.2"/><rect width="56" height="56" x="4" y="4" rx="3" ry="3" style="fill:#29679e"/><path d="M7 4C5.338 4 4 5.338 4 7v1c0-1.662 1.338-3 3-3h50c1.662 0 3 1.338 3 3V7c0-1.662-1.338-3-3-3z" style="opacity:.1;fill:#fff"/><path d="M12.2 11c-1.22 0-2.2.981-2.2 2.2v39.6c0 1.22.98 2.2 2.2 2.2h39.6c1.22 0 2.2-.98 2.2-2.2V13.2c0-1.22-.98-2.2-2.2-2.2zM22 21l10 6 10 6-10 6-10 6z" style="opacity:.2"/><path d="M12.2 10c-1.22 0-2.2.98-2.2 2.2v39.6c0 1.22.98 2.2 2.2 2.2h39.6c1.22 0 2.2-.98 2.2-2.2V12.2c0-1.22-.98-2.2-2.2-2.2z" style="fill:#fff"/><path d="m22 20 10 6 10 6-10 6-10 6z" style="fill:#29679e"/></svg>