<svg xmlns="http://www.w3.org/2000/svg" width="64" height="64"><rect width="56" height="56" x="4" y="5" rx="5.6" ry="5.6" style="opacity:.2"/><rect width="56" height="56" x="4" y="4" rx="5.6" ry="5.6" style="fill:#3f3f3f"/><path d="M13.986 10.3a1.952 2.306 0 0 0-1.955 2.307 1.952 2.306 0 0 0 1.955 2.307 1.952 2.306 0 0 0 1.95-2.307 1.952 2.306 0 0 0-1.95-2.306m3.686 1.538a1.281 1.537 0 0 0-1.223 1.537 1.281 1.537 0 0 0 1.281 1.54 1.281 1.537 0 0 0 1.284-1.54 1.281 1.537 0 0 0-1.284-1.537 1.281 1.537 0 0 0-.058 0m2.844 1.766a1.025 1.166 0 0 0-.993 1.166 1.025 1.166 0 0 0 1.026 1.166 1.025 1.166 0 0 0 1.027-1.166 1.025 1.166 0 0 0-1.027-1.166 1.025 1.166 0 0 0-.033 0m2.224 1.822a.832.916 0 0 0-.781.914.832.916 0 0 0 .832.916.832.916 0 0 0 .832-.916.832.916 0 0 0-.832-.914.832.916 0 0 0-.05 0M13.918 16c-1.266.017-2.1.318-2.908 1.107-1.476 1.443-1.175 3.491.761 5.247 4.2 3.806 4.704 6.356.686 9.234-1.654 1.185-2.851 3.97-2.336 5.428.649 1.837 3.12 2.54 5.275 1.504 2.023-.973 4.315-4.298 5.877-8.272.13-.331.26-.664.38-1.004.358-1.018.661-2.07.904-3.123.732-3.181.555-5.656-.516-7.144-.668-.93-3.145-2.122-5.291-2.653a10 10 0 0 0-1.406-.254 14 14 0 0 0-1.426-.07m10.025 1.475a.683.769 0 0 0-.658.767.683.769 0 0 0 .682.772.683.769 0 0 0 .683-.772.683.769 0 0 0-.683-.767.683.769 0 0 0-.024 0M24 36v3h13v-3z" style="opacity:.2"/><path d="M13.986 9.3a1.952 2.306 0 0 0-1.955 2.307 1.952 2.306 0 0 0 1.955 2.307 1.952 2.306 0 0 0 1.95-2.307 1.952 2.306 0 0 0-1.95-2.306m3.686 1.538a1.281 1.537 0 0 0-1.223 1.537 1.281 1.537 0 0 0 1.281 1.54 1.281 1.537 0 0 0 1.284-1.54 1.281 1.537 0 0 0-1.284-1.537 1.281 1.537 0 0 0-.058 0m2.844 1.766a1.025 1.166 0 0 0-.993 1.166 1.025 1.166 0 0 0 1.026 1.166 1.025 1.166 0 0 0 1.027-1.166 1.025 1.166 0 0 0-1.027-1.166 1.025 1.166 0 0 0-.033 0m2.224 1.822a.832.916 0 0 0-.781.914.832.916 0 0 0 .832.916.832.916 0 0 0 .832-.916.832.916 0 0 0-.832-.914.832.916 0 0 0-.05 0M13.918 15c-1.266.017-2.1.318-2.908 1.107-1.476 1.443-1.175 3.491.761 5.247 4.2 3.806 4.704 6.356.686 9.234-1.654 1.185-2.851 3.97-2.336 5.428.649 1.837 3.12 2.54 5.275 1.504 2.023-.973 4.315-4.298 5.877-8.272.13-.331.26-.664.38-1.004.358-1.018.661-2.07.904-3.123.732-3.181.555-5.656-.516-7.144-.668-.93-3.145-2.122-5.291-2.653a10 10 0 0 0-1.406-.254 14 14 0 0 0-1.426-.07m10.025 1.475a.683.769 0 0 0-.658.767.683.769 0 0 0 .682.772.683.769 0 0 0 .683-.772.683.769 0 0 0-.683-.767.683.769 0 0 0-.024 0M24 35v3h13v-3z" style="fill:#f6e390"/><path d="M9.6 4A5.587 5.587 0 0 0 4 9.6v1C4 7.497 6.497 5 9.6 5h44.8c3.103 0 5.6 2.497 5.6 5.6v-1C60 6.497 57.503 4 54.4 4z" style="fill:#fff;opacity:.1"/></svg>