<svg xmlns="http://www.w3.org/2000/svg" width="64" height="64"><path d="M32.155 4v.003a6.6 6.6 0 0 0-3.453.878L9.298 16.084A6.6 6.6 0 0 0 6 21.796v22.407a6.6 6.6 0 0 0 3.298 5.71l19.404 11.203a6.6 6.6 0 0 0 6.596 0l19.404-11.203A6.6 6.6 0 0 0 58 44.203V21.796a6.6 6.6 0 0 0-3.298-5.712L35.298 4.881A6.6 6.6 0 0 0 32.155 4" style="opacity:.2"/><path d="M32.155 3v.003a6.6 6.6 0 0 0-3.453.878L9.298 15.084A6.6 6.6 0 0 0 6 20.796v22.407a6.6 6.6 0 0 0 3.298 5.71l19.404 11.203a6.6 6.6 0 0 0 6.596 0l19.404-11.203A6.6 6.6 0 0 0 58 43.203V20.796a6.6 6.6 0 0 0-3.298-5.712L35.298 3.881A6.6 6.6 0 0 0 32.155 3" style="fill:#744169"/><path d="M32.154 3v.002a6.6 6.6 0 0 0-3.453.879L9.3 15.084A6.6 6.6 0 0 0 6 20.797v1a6.6 6.6 0 0 1 3.299-5.713L28.7 4.881a6.6 6.6 0 0 1 3.453-.879V4a6.6 6.6 0 0 1 3.145.88L54.7 16.085a6.6 6.6 0 0 1 3.3 5.712v-1a6.6 6.6 0 0 0-3.299-5.713L35.3 3.881A6.6 6.6 0 0 0 32.154 3" style="fill:#fff;opacity:.1"/><path d="M32.12 9.055v.004a5.073 5.218 0 0 0-2.657.695l-14.926 8.863A5.073 5.218 0 0 0 12 23.137v17.728a5.073 5.218 0 0 0 2.537 4.518l14.926 8.863a5.073 5.218 0 0 0 5.074 0l14.926-8.863A5.073 5.218 0 0 0 52 40.865V23.137a5.073 5.218 0 0 0-2.537-4.52L34.537 9.754a5.073 5.218 0 0 0-2.418-.7m-.05 2.004h.018c.5.014.988.153 1.428.414l14.927 8.865c.95.564 1.557 1.626 1.557 2.799v17.728c0 1.172-.607 2.235-1.557 2.8l-14.927 8.86a2.93 2.93 0 0 1-3.032 0l-14.927-8.86c-.95-.565-1.557-1.628-1.557-2.8V23.137c0-1.173.607-2.235 1.557-2.8l14.925-8.862a2.96 2.96 0 0 1 1.588-.416" style="opacity:.7;fill:#ff4532"/><path d="M29 9.778V19.5h6V9.778h-3z" style="fill:#d8bbb3"/><path d="m27.21 22.722-.07 2.528.71.626-.85.928.455 6.195-.232 21.913C27.69 57.84 32 63 32 63s4.31-5.161 4.777-8.088L36.545 33 37 26.804l-.85-.928.71-.626-.07-2.528H32z" style="opacity:.2"/><path d="m27.21 21.722-.07 2.528.71.626-.85.928.455 6.195-.232 21.913C27.69 56.84 32 62 32 62s4.31-5.161 4.777-8.088L36.545 32 37 25.804l-.85-.928.71-.626-.07-2.528H32z" style="fill:#fee4d2"/><path d="m27.21 21.722-.07 2.528.71.626-.85.928.455 6.195-.232 21.913C27.69 56.84 32 62 32 62V21.722Z" style="opacity:.2"/><path d="M30.477 3 28 5.316l2.012 2.27-1.84 1.316.324 2.098h7.008l.324-2.098-1.84-1.316L36 5.316 33.523 3 32 3.012ZM32 17.543l-2.969 2.594-1.488.12-1.422-.988-1.668.813L24 21.527l.293 1.867 1.773.715 1.227-1.031h1.738l2.969 2.5 2.969-2.5h1.738l1.227 1.031 1.773-.715.293-1.867-.453-1.445-1.668-.813-1.422.989-1.488-.121z" style="opacity:.1"/><path d="m32 16.544-2.97 2.59-1.486.125-1.424-.99-1.665.814L24 20.528l.295 1.865 1.772.716 1.226-1.031h1.738l2.969 2.5 2.97-2.5h1.737l1.226 1.03 1.772-.715.295-1.865-.455-1.445-1.665-.814-1.424.99-1.487-.124ZM30.476 2 28 4.315l2.013 2.27-1.84 1.318.321 2.097h7.012l.32-2.097-1.839-1.318L36 4.315 33.524 2 32 2.011Z" style="fill:#987d85"/></svg>