<svg xmlns="http://www.w3.org/2000/svg" width="64" height="64"><circle cx="32" cy="33" r="28" style="opacity:.2"/><circle cx="32" cy="32" r="28" style="fill:#7767c0"/><path d="m20 37 18-9-1-2z" style="opacity:.2"/><path d="M41.862 46.781c.539-1.032 3.636-18.692 4.078-23.256.48-4.524-2.018-3.683-4.316-2.919-5.638 1.882-23.462 9.507-28.341 12.024-1.201.492-1.72 1.327-.847 2.05.753.613 3.259 1.54 5.564 2.01.672.136 2 .31 2 .31s6 10 7 10 3.927-4.84 3.927-4.84c3.405 2.63 7.37 5.486 8.126 5.689 1.399.375 2.218.064 2.809-1.068" style="opacity:.2"/><path d="M20 36s6 10 7 10l11-19-1-2z" style="fill:#c2c2c2"/><path d="M27 46v-8h6s-5 8-6 8" style="fill:#a9a9a9"/><path d="M41.862 45.781c.539-1.032 3.636-18.692 4.078-23.256.48-4.524-2.018-3.683-4.316-2.919-5.638 1.882-23.462 9.507-28.341 12.024-1.201.492-1.72 1.327-.847 2.05.753.613 3.259 1.54 5.564 2.01.672.136 2 .31 2 .31 3.262-1.911 15.865-9.16 16.389-9.5s1.096.29.803.595C34.38 30.666 30.317 34 27 38c3.09 2.663 10.956 8.554 12.053 8.849 1.399.375 2.218.064 2.809-1.068" style="fill:#e4e4e4"/><path d="M32 4A28 28 0 0 0 4 32a28 28 0 0 0 .021.586A28 28 0 0 1 32 5a28 28 0 0 1 27.979 27.414L60 32A28 28 0 0 0 32 4" style="fill:#fff;opacity:.2"/></svg>