<svg xmlns="http://www.w3.org/2000/svg" width="64" height="64"><path d="M32.527 5C19.444 5 9 9.247 9 9.247l.907 28.64S9.88 51.989 32.5 61c22.648-9.011 22.593-23.113 22.593-23.113L56 9.247C56.055 9.247 45.61 5 32.527 5" style="opacity:.2"/><path d="M32.527 4C19.444 4 9 8.247 9 8.247l.907 28.64S9.88 50.989 32.5 60c22.648-9.011 22.593-23.113 22.593-23.113L56 8.247C56.055 8.247 45.61 4 32.527 4" style="fill:#1c7fce"/><path d="M20.096 18C17.414 18 16 19.805 16 22.611V24h9v-6ZM28 18v6h9v-6zm12 0v6h9v-1.389C49 19.805 47.586 18 44.904 18Zm-24 9v6h9v-6zm24 0v6h9v-6zm-24 9v1.389C16 40.195 17.414 42 20.096 42H25v-6zm12 0v6h9v-6zm12 0v6h4.904C47.586 42 49 40.195 49 37.389V36Z" style="opacity:.2"/><path d="M20.096 17C17.414 17 16 18.805 16 21.611V23h9v-6ZM28 17v6h9v-6zm12 0v6h9v-1.389C49 18.805 47.586 17 44.904 17Zm-24 9v6h9v-6zm24 0v6h9v-6zm-24 9v1.389C16 39.195 17.414 41 20.096 41H25v-6zm12 0v6h9v-6zm12 0v6h4.904C47.586 41 49 39.195 49 36.389V35Z" style="fill:#fff"/><path d="M32.527 4C19.444 4 9 8.248 9 8.248l.031.988C9.12 9.2 19.501 5 32.527 5 45.554 5 55.933 9.2 55.97 9.236l.03-.988C56.055 8.248 45.61 4 32.527 4" style="fill:#fff;opacity:.2"/></svg>