<svg xmlns="http://www.w3.org/2000/svg" width="64" height="64"><rect width="56" height="56" x="4" y="5" ry="8" style="opacity:.2"/><rect width="56" height="56" x="4" y="4" ry="8" style="fill:#e3536d"/><path d="M12 4c-4.432 0-8 3.568-8 8v1c0-4.432 3.568-8 8-8h40c4.432 0 8 3.568 8 8v-1c0-4.432-3.568-8-8-8z" style="fill:#fff;opacity:.1"/><path d="M29 23c-5.52 0-7.71.97-10 6h27c3.54 0 7.38-3.27 8-6Zm-19 8 16.33 3.8L24 39.5l5-1.5 3-7Zm24 0-3 7 4.5-1 2.5-6Zm6 0-2.5 5.55 4.1-.75c1.29-.26 1.57-.96 2-1.8l1.85-3Zm-23.47 2.95L12 45l9.2-4 2.44-4.89Z" style="opacity:.2"/><path d="M29 22c-5.52 0-7.71.97-10 6h27c3.54 0 7.38-3.27 8-6Zm-19 8 16.33 3.8L24 38.5l5-1.5 3-7Zm24 0-3 7 4.5-1 2.5-6Zm6 0-2.5 5.55 4.1-.75c1.29-.26 1.57-.96 2-1.8l1.85-3Zm-23.47 2.95L12 44l9.2-4 2.44-4.89Z" style="fill:#2f2f2f"/></svg>