<svg xmlns="http://www.w3.org/2000/svg" width="64" height="64"><rect width="56" height="56" x="4" y="5" rx="4.2" ry="4.2" style="opacity:.2"/><rect width="56" height="56" x="4" y="4" rx="4.2" ry="4.2" style="fill:#e4e4e4"/><path d="M18 18h14v14H18zm28 0h14v14H46zM8.2 4A4.19 4.19 0 0 0 4 8.2V18h14V4ZM32 4h14v14H32z" style="opacity:.1"/><path d="M4-46h14v14H4zm28 0h14v14H32zM18-60h14v14H18z" style="opacity:.1" transform="scale(1 -1)"/><path d="M46 60V46h14v9.8a4.19 4.19 0 0 1-4.2 4.2z" style="opacity:.1"/><path d="M53 7a5 5 0 0 0-5 5 5 5 0 0 0 5 5 5 5 0 0 0 5-5 5 5 0 0 0-5-5M39 21a5 5 0 0 0-5 5 5 5 0 0 0 5 5 5 5 0 0 0 5-5 5 5 0 0 0-5-5m14 0a5 5 0 0 0-5 5 5 5 0 0 0 5 5 5 5 0 0 0 5-5 5 5 0 0 0-5-5M11 35a5 5 0 0 0-5 5 5 5 0 0 0 5 5 5 5 0 0 0 5-5 5 5 0 0 0-5-5m14 0a5 5 0 0 0-5 5 5 5 0 0 0 5 5 5 5 0 0 0 5-5 5 5 0 0 0-5-5m14 0a5 5 0 0 0-5 5 5 5 0 0 0 5 5 5 5 0 0 0 5-5 5 5 0 0 0-5-5m14 0a5 5 0 0 0-5 5 5 5 0 0 0 5 5 5 5 0 0 0 5-5 5 5 0 0 0-5-5M11 49a5 5 0 0 0-5 5 5 5 0 0 0 5 5 5 5 0 0 0 5-5 5 5 0 0 0-5-5m14 0a5 5 0 0 0-5 5 5 5 0 0 0 5 5 5 5 0 0 0 5-5 5 5 0 0 0-5-5m14 0a5 5 0 0 0-5 5 5 5 0 0 0 5 5 5 5 0 0 0 5-5 5 5 0 0 0-5-5m14 0a5 5 0 0 0-5 5 5 5 0 0 0 5 5 5 5 0 0 0 5-5 5 5 0 0 0-5-5" style="opacity:.1"/><circle cx="53" cy="11" r="5" style="fill:#d12c6d"/><path d="M8.2 4A4.19 4.19 0 0 0 4 8.2v1A4.19 4.19 0 0 1 8.2 5h47.6A4.19 4.19 0 0 1 60 9.2v-1A4.19 4.19 0 0 0 55.8 4z" style="opacity:.2;fill:#fff"/><circle cx="53" cy="25" r="5" style="fill:#24a647"/><circle cx="53" cy="39" r="5" style="fill:#24a647"/><circle cx="53" cy="53" r="5" style="fill:#d12c6d"/><circle cx="39" cy="25" r="5" style="fill:#d12c6d"/><circle cx="39" cy="39" r="5" style="fill:#24a647"/><circle cx="39" cy="53" r="5" style="fill:#d12c6d"/><circle cx="25" cy="39" r="5" style="fill:#d12c6d"/><circle cx="25" cy="53" r="5" style="fill:#24a647"/><circle cx="11" cy="39" r="5" style="fill:#24a647"/><circle cx="11" cy="53" r="5" style="fill:#d12c6d"/></svg>