<svg xmlns="http://www.w3.org/2000/svg" width="64" height="64"><rect width="44" height="56" x="10" y="5" rx="4.125" ry="4.2" style="opacity:.2"/><rect width="44" height="56" x="10" y="4" rx="4.125" ry="4.2" style="fill:#e4e4e4"/><path d="M30.516 12.019c-2.052.004-4.38.512-7.024 1.654-3.134 1.353-5.19 3.397-6.32 5.755s-1.347 4.979-1.055 7.528c.584 5.098 3.146 9.975 5.264 12.65a1.1 1.1 0 0 0 1.545.18 1.1 1.1 0 0 0 .18-1.545c-1.83-2.311-4.287-7.025-4.803-11.536-.259-2.255-.049-4.445.853-6.327s2.48-3.51 5.207-4.686c3.71-1.602 6.43-1.754 8.574-1.162 2.144.59 3.8 1.962 5.264 3.713 1.463 1.752 2.692 3.862 3.947 5.774s2.52 3.676 4.351 4.591a1.1 1.1 0 0 0 1.477-.492 1.1 1.1 0 0 0-.493-1.476c-1.129-.564-2.29-1.993-3.496-3.83-1.205-1.835-2.47-4.028-4.098-5.977s-3.66-3.678-6.368-4.424a11 11 0 0 0-2.142-.362q-.423-.03-.863-.029Zm-.088 4.23c-1.678-.031-3.586.463-5.745 1.575-3.714 1.914-5.177 5.984-4.31 10.492.867 4.507 3.878 9.612 8.993 14.47a1.1 1.1 0 0 0 1.555-.04 1.1 1.1 0 0 0-.04-1.556c-4.867-4.621-7.603-9.42-8.348-13.29-.744-3.871.316-6.655 3.158-8.12 2.95-1.52 4.88-1.595 6.394-1.01 1.516.584 2.777 1.97 3.998 3.821 2.442 3.702 4.506 9.149 9.31 11.413a1.1 1.1 0 0 0 1.464-.526 1.1 1.1 0 0 0-.526-1.464c-3.738-1.761-5.772-6.632-8.412-10.634-1.32-2.002-2.845-3.815-5.042-4.663a7 7 0 0 0-1.744-.423 8 8 0 0 0-.705-.045m-.8 4.339a6 6 0 0 0-1.334.181c-2.188.546-3.575 2.081-3.85 3.905s.31 3.81 1.288 5.883c1.957 4.145 5.643 8.68 9.061 11.956a1.1 1.1 0 0 0 1.556-.033 1.1 1.1 0 0 0-.033-1.555c-3.25-3.114-6.834-7.578-8.594-11.307-.88-1.864-1.265-3.534-1.102-4.616s.62-1.703 2.205-2.098c1.355-.338 1.87-.133 2.509.462s1.298 1.789 2.1 3.324c1.605 3.071 3.933 7.417 9.589 10.713a1.1 1.1 0 0 0 1.504-.396 1.1 1.1 0 0 0-.397-1.505c-5.166-3.011-7.148-6.771-8.746-9.83-.799-1.53-1.465-2.907-2.55-3.917-.814-.758-1.923-1.191-3.205-1.167Zm.12 4.573a1.1 1.1 0 0 0-.406.072 1.1 1.1 0 0 0-.635 1.42c3.556 9.319 11.177 13.9 11.177 13.9a1.1 1.1 0 0 0 1.51-.372 1.1 1.1 0 0 0-.374-1.51s-6.989-4.235-10.258-12.802a1.1 1.1 0 0 0-1.014-.708" style="fill:#813d9c"/><path d="M54 14.596c-20.27 5.575-35.886 31.122-35.886 31.122l21.538 11.414S47.037 47.215 54 43.619Z" style="opacity:.9;fill:#fff"/><path d="m16.682 44.933 3.567-6.861c1.481-2.851 4.88-3.905 7.618-2.362 2.226 1.254 3.473 4.174 5.7 5.428 2.167 1.221 5.314.776 7.482 1.998 2.739 1.542 3.75 5.08 2.269 7.93l-3.567 6.862c-1.481 2.851-4.88 3.905-7.618 2.362-2.189-1.233-3.51-4.195-5.7-5.428-2.205-1.242-5.277-.755-7.482-1.998-2.739-1.542-3.75-5.08-2.269-7.93" style="opacity:.1"/><path d="m16.682 43.933 3.567-6.861c1.481-2.851 4.88-3.905 7.618-2.362 2.226 1.254 3.473 4.174 5.7 5.428 2.167 1.221 5.314.776 7.482 1.998 2.739 1.542 3.75 5.08 2.269 7.93l-3.567 6.862c-1.481 2.851-4.88 3.905-7.618 2.362-2.189-1.233-3.51-4.195-5.7-5.428-2.205-1.242-5.277-.755-7.482-1.998-2.739-1.542-3.75-5.08-2.269-7.93" style="fill:#f5c211"/><ellipse cx="23.533" cy="41.729" rx="1.315" ry=".811" style="fill:#e5a50a"/><ellipse cx="30.42" cy="40.93" rx="1.617" ry=".893" style="fill:#e5a50a"/><ellipse cx="26.844" cy="47.62" rx="1.818" ry="1.072" style="fill:#e5a50a"/><ellipse cx="34.872" cy="45.767" rx="1.817" ry="1.018" style="fill:#e5a50a"/><ellipse cx="19.761" cy="46.484" rx="1.349" ry=".868" style="fill:#e5a50a"/><ellipse cx="25.374" cy="38.36" rx="1.419" ry=".885" style="fill:#e5a50a"/><ellipse cx="33.799" cy="53.213" rx="1.915" ry="1.323" style="fill:#e5a50a"/><ellipse cx="31.407" cy="48.834" rx="1.056" ry=".732" style="fill:#e5a50a"/><ellipse cx="40.189" cy="48.912" rx="1.379" ry=".836" style="fill:#e5a50a"/><ellipse cx="23.906" cy="51.604" rx="1.261" ry=".678" style="fill:#e5a50a"/><ellipse cx="40.094" cy="42.846" rx=".991" ry=".543" style="fill:#e5a50a"/><ellipse cx="33.322" cy="58.474" rx="1.37" ry=".676" style="fill:#e5a50a"/><path d="M14.125 4C11.84 4 10 5.872 10 8.2v1C10 6.871 11.84 5 14.125 5h35.75C52.16 5 54 6.872 54 9.2v-1C54 5.871 52.16 4 49.875 4z" style="opacity:.2;fill:#fff"/></svg>