<svg xmlns="http://www.w3.org/2000/svg" xmlns:xlink="http://www.w3.org/1999/xlink" width="64" height="64"><defs><linearGradient xlink:href="#a" id="d" x1=".079" x2="63.921" y1="33.017" y2="33.017" gradientUnits="userSpaceOnUse"/><linearGradient id="a"><stop offset="0" style="stop-color:#8e0009;stop-opacity:1"/><stop offset="1" style="stop-color:#b50700;stop-opacity:1"/></linearGradient><linearGradient xlink:href="#b" id="e" x1="6.707" x2="63.852" y1="1.719" y2="58.865" gradientTransform="translate(0 5.561)" gradientUnits="userSpaceOnUse"/><linearGradient id="b"><stop offset="0" style="stop-color:#fff;stop-opacity:1"/><stop offset="1" style="stop-color:#d3d3d3;stop-opacity:1"/></linearGradient><linearGradient xlink:href="#c" id="f" x1="6.707" x2="63.852" y1="1.719" y2="58.865" gradientTransform="translate(0 5.767)" gradientUnits="userSpaceOnUse"/><linearGradient id="c"><stop offset="0" style="stop-color:#ff2b00;stop-opacity:1"/><stop offset="1" style="stop-color:#ff8200;stop-opacity:1"/></linearGradient><filter id="g" width="1.071" height="1.148" x="-.035" y="-.074" style="color-interpolation-filters:sRGB"><feGaussianBlur stdDeviation=".798"/></filter></defs><path d="m63.92 16.976-12.038.121-.367 1.084-.512-1.064-7.27-.061v.647l-.902-.676H33.35l-1.795 1.367-1.793-1.367h-9.485l-1.767 1.326-1.692-1.307L.08 17.031l4.432 4.382.02 22.008v.035l.185 5.602L19.18 37.339l7.43 5.555 4.943-3.71 4.943 3.71 7.787-5.82 7.494 5.382.192.506.193-.586 7.543 5.346.033-26.303zm-38.735 7.342-.018 7.81-.334-.252-.006-7.556zm12.738 0 .357.002-.006 7.556-.334.252zm-25.795.054v8.813l-.375.285-.022-9.096z" style="baseline-shift:baseline;display:inline;overflow:visible;opacity:1;vector-effect:none;fill:url(#d);enable-background:accumulate;stop-color:#000;stop-opacity:1" transform="translate(0 -1.017)"/><path d="m59.154 19.022-5.932.06-1.482 4.383-2.096-4.36-4.011-.034v16.126l-.268.264 4.594 3.302.072-6.273 1.709 4.498 1.542-4.675.03 8.499 4.304 3.05.028-23.236zm-38.31.002-1.382 1.037-.002 15.068 7.05 5.27 3.855-2.893-.015-17.442-1.363-1.04zm13.08 0-1.363 1.04-.015 17.442 3.856 2.892 7.05-5.27-.002-15.067-1.383-1.037zM6.41 20.58l.022 22.842v.004l.05 1.553 11.21-9.082-.334-.273v-15.56l-1.32-1.02-11.191-.01Zm19.9 1.736.778.262-.028 13.544-4.321-3.246-.007-10.3.53-.245zm10.293 0 3.048.015.53.245-.006 10.3-4.322 3.246-.028-13.544zm-23.096.055.522.235v11.572l-4.36 3.308-.036-15.1z" style="opacity:.759109;fill:url(#e);fill-opacity:1;stroke:none;stroke-width:2.79488;stroke-dasharray:none;stroke-opacity:1" transform="translate(0 -1.017)"/><path d="m59.154 19.227-5.932.06-1.482 4.383-2.096-4.36-4.011-.034v16.126l-.268.265 4.594 3.301.072-6.273 1.709 4.499 1.542-4.676.03 8.499 4.304 3.05.028-23.236zm-38.31.002-1.382 1.038-.002 15.067 7.05 5.27 3.855-2.893-.015-17.442-1.363-1.04zm13.08 0-1.363 1.04-.015 17.442 3.856 2.893 7.05-5.27-.002-15.067-1.383-1.038zM6.41 20.784l.022 22.842v.004l.05 1.553 11.21-9.082-.334-.273v-15.56l-1.32-1.02-11.191-.01Zm19.9 1.736.778.262-.028 13.545-4.321-3.246-.007-10.3.53-.246zm10.293 0 3.048.015.53.245-.006 10.3-4.322 3.247-.028-13.545zm-23.096.056.522.234v11.572l-4.36 3.308-.036-15.1z" style="opacity:.679756;fill:url(#f);fill-opacity:1;stroke:none;stroke-width:2.79488;stroke-dasharray:none;stroke-opacity:1;filter:url(#g)" transform="translate(0 -1.017)"/></svg>