<svg xmlns="http://www.w3.org/2000/svg" width="64" height="64"><path d="M13 50v3.8a4.17 4.17 0 0 0 3 4.01V59c0 1.108.892 2 2 2h4c1.108 0 2-.892 2-2v-1h17v1c0 1.108.892 2 2 2h4c1.108 0 2-.892 2-2v-1.19a4.17 4.17 0 0 0 3-4.01V50Z" style="opacity:.2"/><path d="M17.179 4A4.18 4.18 0 0 0 13 8.2V14h39V8.2A4.18 4.18 0 0 0 47.821 4Z" style="fill:#ffab27"/><path d="M13 49v3.8a4.18 4.18 0 0 0 4.179 4.2H47.82A4.18 4.18 0 0 0 52 52.8V49Z" style="fill:#17b473"/><path d="M13 14h39v10H13z" style="fill:#f02096"/><path d="M13 27h39v11H13z" style="fill:#4b3c9b"/><path d="M13 38h39v11H13z" style="fill:#0184bc"/><path d="M19.479 11.978A1.5 1.5 0 0 0 18 13.5v7a1.5 1.5 0 1 0 3 0v-7a1.5 1.5 0 0 0-1.521-1.522m0 20A1.5 1.5 0 0 0 18 33.5v7a1.5 1.5 0 1 0 3 0v-7a1.5 1.5 0 0 0-1.521-1.522" style="opacity:.2"/><path d="M19.5 12.5v7m0 13v7" style="fill:none;stroke:#fff;stroke-width:3;stroke-linecap:round;stroke-linejoin:round"/><rect width="8" height="8" x="16" y="52" rx="2" ry="2" style="fill:#17b473"/><rect width="8" height="8" x="41" y="52" rx="2" ry="2" style="fill:#17b473"/><path d="M13 24h39v1H13z" style="opacity:.2"/><path d="M13 27h39v1H13z" style="opacity:.1;fill:#fff"/><path d="M17.178 4A4.18 4.18 0 0 0 13 8.2v1C13 6.871 14.863 5 17.178 5h30.644A4.18 4.18 0 0 1 52 9.2v-1C52 5.871 50.137 4 47.822 4z" style="opacity:.2;fill:#fff"/></svg>