<svg xmlns="http://www.w3.org/2000/svg" width="64" height="64"><path d="M32 5a28 28 0 0 0-13.185 3.322 3 3 0 0 1-.263.389c-.517.635-1.275.996-1.99.948A28 28 0 0 0 4 33a28 28 0 0 0 1.38 8.578c.619.281 1.106.894 1.302 1.635a2.6 2.6 0 0 1-.057 1.548A28 28 0 0 0 32 61c10.93 0 20.397-6.263 25.01-15.395 1.912-3.789 2.69-8.114 2.69-12.648 0-4.48-.752-8.671-2.623-12.426C52.491 11.325 42.984 5 32 5" style="opacity:.2"/><path d="M32 4a28 28 0 0 0-13.185 3.322 3 3 0 0 1-.263.389c-.517.635-1.275.996-1.99.948A28 28 0 0 0 4 32a28 28 0 0 0 1.38 8.578c.619.281 1.106.894 1.302 1.635a2.6 2.6 0 0 1-.057 1.548A28 28 0 0 0 32 60c10.93 0 20.397-6.263 25.01-15.395 1.912-3.789 2.69-8.114 2.69-12.648 0-4.48-.752-8.671-2.623-12.426C52.491 10.325 42.984 4 32 4" style="fill:#dee000"/><path d="M28.538 6.319c-2.128-.057-5.887.408-9.57.916l-.153.09a1.914 2.313 39.073 0 1-.263.386 1.914 2.313 39.073 0 1-1.977.948l-.17.112c10.358-.56 21.582.36 29.034 3.807 5.05 2.335 8.963 5.62 11.168 9.947s3.914 9.837 1.542 16.377c-1.957 5.395-4.893 7.796-8.058 9.668-3.166 1.873-7.525 2.21-9.625 1.439-8.05-2.955-16.593-8.86-23.508-11.315-6.58-2.337-9.925-1.535-11.697 1.523l.134.369a2.313 1.914 75.247 0 1 1.287 1.627 2.313 1.914 75.247 0 1-.057 1.548l.137.303c1.1-3.575 5.524-3.306 8.422-2.25 6.477 2.36 15.117 7.834 23.704 10.453 4.525 1.38 8.73.214 12.253-1.87 2.156-1.276 4.165-3.149 5.74-5.611A28 28 0 0 0 60 32a28 28 0 0 0-3.273-13.095c-2.56-3.824-6.65-6.9-11.206-9.007-4.99-2.309-10.768-3.415-16.983-3.58" style="fill:#fff"/><path d="M32 4a28 28 0 0 0-13.186 3.322 3 3 0 0 1-.261.389c-.518.635-1.275.997-1.99.95A28 28 0 0 0 4 32c0 .144.015.286.018.43A27.99 27.99 0 0 1 16.563 9.66c.715.048 1.472-.314 1.99-.95q.147-.183.261-.388A28 28 0 0 1 32 5c10.984 0 20.49 6.325 25.076 15.531 1.801 3.615 2.559 7.638 2.613 11.93.003-.169.012-.335.012-.504 0-4.48-.754-8.67-2.625-12.426C52.49 10.325 42.984 4 32 4M6.72 43.416a2.4 2.4 0 0 1-.095.344c.044.094.096.183.14.277a2.7 2.7 0 0 0-.044-.621" style="fill:#fff;opacity:.2"/><path d="M28.54 5.318c-1.515-.04-3.867.19-6.417.504A28 28 0 0 0 19 7.23c3.673-.506 7.416-.968 9.54-.912 6.214.165 11.99 1.272 16.981 3.58 4.557 2.108 8.646 5.182 11.206 9.006a28 28 0 0 1 1.164 2.494 23 23 0 0 0-.815-1.867 28 28 0 0 0-3.185-4.984c-2.345-2.29-5.24-4.201-8.37-5.649-4.99-2.308-10.767-3.415-16.982-3.58m-9.702 1.993-.024.011v.002zm-.024.013q-.11.195-.252.371h.004a1.914 2.313 39.073 0 0 .248-.37M57.967 21.6a28 28 0 0 1 .428 1.224 24 24 0 0 0-.428-1.224m1.318 10.505c-.056 1.83-.4 3.764-1.137 5.797-1.957 5.396-4.892 7.796-8.058 9.668-3.166 1.873-7.524 2.209-9.625 1.438-8.05-2.955-16.592-8.859-23.506-11.315-6.58-2.337-9.927-1.534-11.7 1.524l.136.369a2.313 1.914 75.247 0 1 .2.11c1.85-2.62 5.177-3.2 11.364-1.003 6.914 2.456 15.457 8.36 23.506 11.315 2.1.771 6.459.435 9.625-1.438s6.101-4.272 8.058-9.668c.874-2.407 1.191-4.676 1.137-6.797M6.723 42.4a2.313 1.914 75.247 0 1-.004.014q.015.072.027.145a2.313 1.914 75.247 0 0-.023-.159m.035.278q.01.135.01.267a2.313 1.914 75.247 0 0-.01-.267m.008.361-.002.02.002-.006a2.313 1.914 75.247 0 0 0-.014" style="opacity:.1"/></svg>