<svg xmlns="http://www.w3.org/2000/svg" width="64" height="64"><rect width="56" height="44" x="4" y="12" rx="8" ry="8" style="opacity:.2"/><rect width="56" height="44" x="4" y="11" rx="8" ry="8" style="fill:#5496c6"/><path d="m19 25 27 5-16 15Z" style="fill:none;stroke:#84c4f6;stroke-width:2"/><rect width="18" height="16" x="10" y="17" rx="1.6" ry="1.6" style="fill:#5496c6"/><rect width="10" height="8" x="25" y="41" rx="1.6" ry="1.6" style="fill:#5496c6"/><rect width="16" height="14" x="38" y="23" rx="1.6" ry="1.6" style="fill:#5496c6"/><rect width="16" height="14" x="11" y="19" rx="1.6" ry="1.6" style="opacity:.2"/><rect width="8" height="6" x="26" y="43" rx="1.6" ry="1.6" style="opacity:.2"/><rect width="14" height="12" x="39" y="25" rx="1.6" ry="1.6" style="opacity:.2"/><rect width="16" height="14" x="11" y="18" rx="1.6" ry="1.6" style="fill:#fff"/><rect width="8" height="6" x="26" y="42" rx="1.6" ry="1.6" style="fill:#fff"/><rect width="14" height="12" x="39" y="24" rx="1.6" ry="1.6" style="fill:#fff"/><path d="M12 11c-4.432 0-8 3.568-8 8v1c0-4.432 3.568-8 8-8h40c4.432 0 8 3.568 8 8v-1c0-4.432-3.568-8-8-8z" style="opacity:.2;fill:#fff"/></svg>