<svg xmlns="http://www.w3.org/2000/svg" width="64" height="64"><rect width="58" height="58" x="3" y="4" rx="2.9" ry="2.9" style="opacity:.2"/><rect width="58" height="58" x="3" y="3" rx="2.9" ry="2.9" style="fill:#e78117"/><path d="M6 6v42h4V10h44v44H16v4h42V6Zm0 46v6h6v-6z" style="opacity:.5;fill:#fff"/><path d="M5.898 3A2.89 2.89 0 0 0 3 5.898v1A2.89 2.89 0 0 1 5.898 4h52.204A2.89 2.89 0 0 1 61 6.898v-1A2.89 2.89 0 0 0 58.102 3z" style="opacity:.2;fill:#fff"/><path d="M23.32 31.585q1.095 0 1.792-.166.73-.2 1.162-.498.432-.332.597-.763.166-.432.166-.963 0-1.128-1.062-1.859c-.708-.509-2.24-1.051-3.965-1.626a32 32 0 0 1-2.258-.897 9 9 0 0 1-2.025-1.294 6.5 6.5 0 0 1-1.46-1.892q-.564-1.13-.565-2.722 0-1.594.598-2.855a6.1 6.1 0 0 1 1.693-2.191q1.095-.897 2.656-1.361Q22.209 12 24.167 12c1.55 0 3.202.166 4.33.498q1.694.498 2.79 1.095l-1.494 4.083a13 13 0 0 0-2.158-.863c-.775-.265-2.03-.398-3.136-.398q-1.859 0-2.689.531-.796.498-.796 1.56 0 .63.298 1.062.3.432.83.797.564.332 1.262.63.73.267 1.593.565c1.195.443 2.55.885 3.435 1.328q1.328.63 2.19 1.494a5.4 5.4 0 0 1 1.328 2.025q.432 1.162.432 2.821 0 3.22-2.258 5.013Q27.867 36 23.32 36a17 17 0 0 1-2.756-.2q-1.228-.166-2.19-.43a14 14 0 0 1-1.627-.565q-.664-.3-1.129-.564l1.46-4.117q1.03.565 2.524 1.03 1.527.43 3.718.431" style="font-size:6.91562939px;line-height:1.25;letter-spacing:0;word-spacing:0;opacity:.2" transform="matrix(1.31238 0 0 1.41667 .503 -1)"/><g style="font-size:6.91562939px;line-height:1.25;letter-spacing:0;word-spacing:0;fill:#fff"><path d="M23.32 31.585q1.095 0 1.792-.166.73-.2 1.162-.498.432-.332.597-.763.166-.432.166-.963 0-1.128-1.062-1.859c-.708-.509-2.24-1.051-3.965-1.626a32 32 0 0 1-2.258-.897 9 9 0 0 1-2.025-1.294 6.5 6.5 0 0 1-1.46-1.892q-.564-1.13-.565-2.722 0-1.594.598-2.855a6.1 6.1 0 0 1 1.693-2.191q1.095-.897 2.656-1.361Q22.209 12 24.167 12c1.55 0 3.202.166 4.33.498q1.694.498 2.79 1.095l-1.494 4.083a13 13 0 0 0-2.158-.863c-.775-.265-2.03-.398-3.136-.398q-1.859 0-2.689.531-.796.498-.796 1.56 0 .63.298 1.062.3.432.83.797.564.332 1.262.63.73.267 1.593.565c1.195.443 2.55.885 3.435 1.328q1.328.63 2.19 1.494a5.4 5.4 0 0 1 1.328 2.025q.432 1.162.432 2.821 0 3.22-2.258 5.013Q27.867 36 23.32 36a17 17 0 0 1-2.756-.2q-1.228-.166-2.19-.43a14 14 0 0 1-1.627-.565q-.664-.3-1.129-.564l1.46-4.117q1.03.565 2.524 1.03 1.527.43 3.718.431" style="fill:#fff" transform="matrix(1.31238 0 0 1.41667 .503 -2)"/></g></svg>