<svg xmlns="http://www.w3.org/2000/svg" width="64" height="64"><circle cx="32" cy="33" r="28" style="opacity:.2"/><circle cx="32" cy="32" r="28" style="fill:#ff4f4f"/><path d="m32 5-3 13h6zM15 30 4 33l11 3zm34 0v6l11-3zM29 48l3 13 3-13z" style="opacity:.2"/><path d="M32 4A28 28 0 0 0 4 32a28 28 0 0 0 .022.586A28 28 0 0 1 32 5a28 28 0 0 1 27.979 27.414L60 32A28 28 0 0 0 32 4" style="opacity:.2;fill:#fff"/><path d="m32 4-3 13h6zM15 29 4 32l11 3zm34 0v6l11-3zM29 47l3 13 3-13z" style="fill:#f7df67"/><path d="M32 17c-1.41 0-2.819.126-4.203.355L24 24h24.979c-3.72-4.373-10.367-6.994-16.979-7m-4.455.398C22.525 18.281 17.882 20.611 15 24h5zM15.02 42c2.878 3.383 7.508 5.71 12.518 6.596L20 42zM24 42l3.795 6.64A26 26 0 0 0 32 49c6.62 0 13.277-2.622 17-7z" style="opacity:.2"/><path d="M32 16c-1.41 0-2.819.126-4.203.355L24 23h24.979c-3.72-4.373-10.367-6.994-16.979-7m-4.455.398C22.525 17.281 17.882 19.611 15 23h5zM15.02 41c2.878 3.383 7.508 5.71 12.518 6.596L20 41zM24 41l3.795 6.64A26 26 0 0 0 32 48c6.62 0 13.277-2.622 17-7z" style="fill:#fff"/><path d="M21.5 25a5.5 8 0 0 0-5.5 8 5.5 8 0 0 0 5.5 8 5.5 8 0 0 0 5.5-8 5.5 8 0 0 0-5.5-8m12 0a5.5 8 0 0 0-5.5 8 5.5 8 0 0 0 5.5 8 5.5 8 0 0 0 5.5-8 5.5 8 0 0 0-5.5-8m9.5 0-3 4h3v12h5V25zm-21.5 3a2.5 5 0 0 1 2.5 5 2.5 5 0 0 1-2.5 5 2.5 5 0 0 1-2.5-5 2.5 5 0 0 1 2.5-5m12 0a2.5 5 0 0 1 2.5 5 2.5 5 0 0 1-2.5 5 2.5 5 0 0 1-2.5-5 2.5 5 0 0 1 2.5-5" style="opacity:.2"/><path d="M21.5 24a5.5 8 0 0 0-5.5 8 5.5 8 0 0 0 5.5 8 5.5 8 0 0 0 5.5-8 5.5 8 0 0 0-5.5-8m0 3a2.5 5 0 0 1 2.5 5 2.5 5 0 0 1-2.5 5 2.5 5 0 0 1-2.5-5 2.5 5 0 0 1 2.5-5m12-3a5.5 8 0 0 0-5.5 8 5.5 8 0 0 0 5.5 8 5.5 8 0 0 0 5.5-8 5.5 8 0 0 0-5.5-8m0 3a2.5 5 0 0 1 2.5 5 2.5 5 0 0 1-2.5 5 2.5 5 0 0 1-2.5-5 2.5 5 0 0 1 2.5-5M48 40V24h-5l-3 4h3v12z" style="fill:#fff"/></svg>