<svg xmlns="http://www.w3.org/2000/svg" width="64" height="64"><path d="M32 5.002C16.49 5.002 4.003 17.489 4.003 33S16.489 61 32 61s28-12.488 28-28C60 17.49 47.511 5.003 32 5.003" style="opacity:.2"/><path d="M32 4.002C16.49 4.002 4.003 16.489 4.003 32S16.489 60 32 60s28-12.489 28-28A27.94 27.94 0 0 0 32 4" style="fill:#fead38"/><path d="M32.436 4.013A42.005 42.03 0 0 0 5.48 40.96a27.9 27.9 0 0 0 8.359 12.36 42.005 42.03 0 0 1-.039-1.682A42.005 42.03 0 0 1 49.484 10.12a27.9 27.9 0 0 0-17.048-6.108" style="fill:#3f3f3f"/><path d="M52.64 13.09A42.005 42.03 0 0 0 18 54.433a42.005 42.03 0 0 0 .096 1.873 27.8 27.8 0 0 0 8.474 3.17 42.005 42.03 0 0 1 31.61-37.362 27.9 27.9 0 0 0-5.542-9.024" style="fill:#3f3f3f"/><path d="M32 4.002A27.936 27.936 0 0 0 4.002 32c0 .11.01.216.016.324C4.375 17.128 16.715 5 32 5c15.289 0 27.63 12.135 27.982 27.336.007-.112.018-.223.018-.336A27.94 27.94 0 0 0 32 4.002" style="opacity:.2;fill:#fff"/><circle cx="39.001" cy="36.001" r="11" style="opacity:.2"/><circle cx="56" cy="29.001" r="8" style="opacity:.2"/><circle cx="39.001" cy="35.001" r="11" style="fill:#fff"/><circle cx="37.001" cy="39.001" r="5" style="fill:#3f3f3f"/><circle cx="56" cy="28.001" r="8" style="fill:#fff"/><circle cx="54" cy="30.001" r="4" style="fill:#3f3f3f"/><path d="M48 54.334S44.42 57 40 57c-4.417 0-8-5.054-8-8 0 0 4.241 3.09 6.667 4C43.255 54.721 48 54.334 48 54.334" style="opacity:.1"/><path d="M48 53.334S44.42 56 40 56c-4.417 0-8-5.054-8-8 0 0 4.241 3.09 6.667 4C43.255 53.721 48 53.334 48 53.334" style="fill:#3f3f3f"/><path d="M15.81 40.463c6.16-2.943 11.598-1.305 12.146 3.658.549 4.962-4 11.371-10.16 14.314S.57 52.102.023 47.14s9.627-3.733 15.787-6.676" style="opacity:.2"/><path d="M15.81 39.463c6.16-2.943 11.598-1.305 12.146 3.658.549 4.963-4 11.371-10.16 14.314S.57 51.102.023 46.14s9.627-3.733 15.787-6.676" style="fill:#e4e4e4"/><path d="M21.494 38.002c-1.719.023-3.662.493-5.683 1.459C9.65 42.404-.527 41.178.02 46.14c.004.036.02.076.026.113.728-3.933 10.002-3.04 15.764-5.793 2.31-1.104 4.519-1.56 6.406-1.441 3.145.197 5.4 2 5.742 5.101.011.104.007.212.014.316a8 8 0 0 0-.014-1.316c-.343-3.102-2.597-4.904-5.742-5.101a10 10 0 0 0-.723-.018" style="opacity:.2;fill:#fff"/></svg>