<svg xmlns="http://www.w3.org/2000/svg" width="64" height="64"><rect width="56" height="56" x="4" y="5" rx="2.8" ry="2.8" style="opacity:.2"/><rect width="56" height="56" x="4" y="4" rx="2.8" ry="2.8" style="fill:#762276"/><path d="M48.198 15 28.75 46.218 24.071 39H17.4l8.997 14 4.77-.025L54.824 15z" style="opacity:.2"/><path d="M48.198 14 28.75 45.218 24.071 38H17.4l8.997 14 4.77-.025L54.824 14z" style="fill:#ff8118"/><path d="M39.798 15 20.35 46.218 15.671 39H9l8.997 14 4.77-.025L46.424 15z" style="opacity:.2"/><path d="M39.798 14 20.35 45.218 15.671 38H9l8.997 14 4.77-.025L46.424 14z" style="fill:#abe619"/><path d="M6.8 4C5.25 4 4 5.25 4 6.8v1C4 6.25 5.25 5 6.8 5h50.4C58.75 5 60 6.25 60 7.8v-1C60 5.25 58.75 4 57.2 4z" style="opacity:.1;fill:#fff"/><path d="M54.5 40.6s-3.979-1.022-3.979 2.528 3.979 1.951 3.979 5.5-3.979 2.8-3.979 2.8" style="opacity:.2;fill:none;stroke:#000;stroke-width:3;stroke-linecap:round;stroke-linejoin:round"/><path d="M54.5 39.6s-3.979-1.021-3.979 2.528S54.5 44.08 54.5 47.63s-3.979 2.8-3.979 2.8" style="fill:none;stroke:#fff;stroke-width:3;stroke-linecap:round;stroke-linejoin:round"/><path d="M45.5 45.5h-2.957m3.957-5c-4.742 0-3.957 1.129-3.957 10.929" style="opacity:.2;fill:none;stroke:#000;stroke-width:3;stroke-linecap:round;stroke-linejoin:round"/><path d="M45.5 44.5h-2.957m3.957-5c-4.742 0-3.957 1.129-3.957 10.929" style="fill:none;stroke:#fff;stroke-width:3;stroke-linecap:round;stroke-linejoin:round"/></svg>