<svg xmlns="http://www.w3.org/2000/svg" width="64" height="64"><path d="M10 56v2c0 1.662 1.338 3 3 3h38c1.662 0 3-1.338 3-3v-2c0 1.662-1.338 3-3 3H13c-1.662 0-3-1.338-3-3" style="opacity:.2"/><path d="M54 57V7c0-1.662-1.338-3-3-3H13c-1.662 0-3 1.338-3 3v50c0 1.662 1.338 3 3 3h38c1.662 0 3-1.338 3-3" style="fill:#e4e4e4"/><path d="M13 4c-1.662 0-3 1.338-3 3v1c0-1.662 1.338-3 3-3h38c1.662 0 3 1.338 3 3V7c0-1.662-1.338-3-3-3z" style="opacity:.1;fill:#fff"/><circle cx="-.03" cy="45.285" r="12" style="fill:#484848" transform="rotate(-45)"/><rect width="4" height="16" x="-2.03" y="53.28" rx="2" ry="2" style="fill:#484848" transform="rotate(-45)"/><path d="M37.646 27.354a7.945 7.945 0 0 0-11.291 0 7.946 7.946 0 0 0 0 11.291 7.945 7.945 0 0 0 11.291 0 7.945 7.945 0 0 0 0-11.291" style="opacity:.2"/><path d="M37.646 26.354a7.945 7.945 0 0 0-11.291 0 7.946 7.946 0 0 0 0 11.291 7.945 7.945 0 0 0 11.291 0 7.945 7.945 0 0 0 0-11.291" style="fill:#5d99ff"/></svg>