<svg xmlns="http://www.w3.org/2000/svg" width="64" height="64"><rect width="56" height="50" x="4" y="8" opacity=".2" rx="4.2" ry="4.167"/><rect width="56" height="50" x="4" y="7" fill="#4f4f4f" rx="4.2" ry="4.167"/><path fill="#fff" d="M8.2 7C5.871 7 4 8.86 4 11.168v1C4 9.86 5.872 8 8.2 8h47.6c2.327 0 4.2 1.86 4.2 4.168v-1C60 8.86 58.127 7 55.8 7z" opacity=".1"/><path fill="#020302" d="M43.002 28c4 0 8 0 8 4s-2 5-8 5zm6 10c3 0 5.889-2.695 5.918-6.022.03-3.28-2.418-5.978-6.918-5.978h-11v2h2v22h-2v2l11.617-.042c4.598-.089 6.62-1.76 7.308-5.775.628-5.231-2.925-7.183-6.925-8.183m-6 1c5.382-.229 9.173.23 8.97 5.932-.153 5.696-4.47 5.068-8.97 5.068z" opacity=".2"/><path fill="#f44336" d="M43.002 27c4 0 8 0 8 4s-2 5-8 5zm6 10c3 0 5.889-2.695 5.918-6.022.03-3.28-2.418-5.978-6.918-5.978h-11v2h2v22h-2v2l11.617-.042c4.598-.089 6.62-1.76 7.308-5.775.628-5.231-2.925-7.183-6.925-8.183m-6 1c5.382-.229 9.173.23 8.97 5.932-.153 5.696-4.47 5.068-8.97 5.068z"/><path fill="#020302" d="M36 42v-2h-2V18c2.7 0 4.2.5 6 5h1l-1-8c-1.8.9-4.2 1-6 1h-4c-1.8 0-4.2-.1-6-1l-1 8h1c1.8-4.5 3.3-5 6-5v22h-2v2z" opacity=".2"/><path fill="#4caf50" d="M36 41v-2h-2V17c2.7 0 4.2.5 6 5h1l-1-8c-1.8.9-4.2 1-6 1h-4c-1.8 0-4.2-.1-6-1l-1 8h1c1.8-4.5 3.3-5 6-5v22h-2v2z"/><path fill="#020302" d="M16 52v-2h-2V39h1c3.252.021 3.703 1.997 4.1 4h.9v-9h-.9c-.61 1.954-1 3.153-4.1 3h-1v-9c5.4-.542 8.75-.369 11 5h1l-1-8c-2 1-5 1-7 1H8v2h2v22H8v2z" opacity=".2"/><path fill="#03a9f4" d="M16 51v-2h-2V38h1c3.252.021 3.703 1.997 4.1 4h.9v-9h-.9c-.61 1.954-1 3.153-4.1 3h-1v-9c5.4-.542 8.75-.369 11 5h1l-1-8c-2 1-5 1-7 1H8v2h2v22H8v2z"/></svg>