<svg xmlns="http://www.w3.org/2000/svg" width="64" height="64"><path d="M4.249 18.86A19 19 0 0 0 4 21.8v22.4C4 53.507 11.493 61 20.8 61h22.4C52.507 61 60 53.507 60 44.2V21.8c0-.957-.097-2.028-.249-2.94z" style="opacity:.2"/><path d="M4.249 17.86A19 19 0 0 0 4 20.8v22.4C4 52.507 11.493 60 20.8 60h22.4C52.507 60 60 52.507 60 43.2V20.8c0-.957-.097-2.028-.249-2.94z" style="fill:#e4e4e4"/><path d="M20.8 4C12.45 4 5.577 10.038 4.249 18H59.75c-1.328-7.962-8.2-14-16.551-14Z" style="fill:#df711b"/><path d="m17.903 25 .46 11.608q.046 1.273.416 2.08.368.807 1.336 1.19c.646.255 2.39.382 3.634.382q.739 0 1.316-.129.6-.127 1.13-.571.553-.467 1.153-1.443a6.55 6.55 0 0 0 2.029 1.781q1.197.658 2.35.658c.408 0 1.784-.092 2.142-.238l.36 9.03q.045 1.273.414 2.08.368.808 1.338 1.19.968.382 2.835.382h1.097q2.03 0 3.23-.298 1.198-.318 1.797-.806t.784-1.04q.185-.55.185-1.018 0-1.635-1.454-3.227-1.428-1.613-4.125-3.63.736-.465 1.59-.912a38 38 0 0 1 2.189-1.061c.85-.391 1.965-.894 3.277-1.479.179.176.39.32.643.433q.737.297 2.006.298 1.845 0 2.905-.955 1.06-.976 1.06-2.95 0-.637-.183-1.486a17 17 0 0 0-.462-1.698 25 25 0 0 0-.553-1.57l-1.868.637q.507 1.209.899 2.439.415 1.23.414 2.017 0 1.103-.597 1.463-.6.361-1.592.362-.898 0-1.359-.15-.438-.148-.6-.401a1.3 1.3 0 0 1-.138-.574q0-.361.068-.892.07-.551.163-1.102.115-.552.183-.935l-1.752-.296a28 28 0 0 1-.473 2.39l-.542-1.088c-1.444.69-2.7 1.328-3.867 1.943 0-.007-.005-.012-.005-.02q0-.594.183-1.337l.324-1.294-1.73-.445a33 33 0 0 1-.645 2.376q-.278.848-.6 1.25-.299.384-.759.491a7 7 0 0 1-1.2.084h-.003q-.6 0-1.084-.17-.461-.19-.9-.763-.414-.573-.943-1.762-.577-1.273-1.108-1.996-.506-.742-1.105-1.039a2.86 2.86 0 0 0-1.36-.318q-.555 0-1.246.275-.669.276-1.429.998-.739.723-1.476 2.08-.554 1.02-.922 1.613-.346.573-.738.826-.369.256-1.015.256c-.876 0-2.32-.071-2.735-.213q-.6-.211-.783-.763-.162-.574-.209-1.612L19.791 25Zm29.111 1.486a1.18 1.18 0 0 0-.828.318 1.013 1.013 0 0 0 0 1.487q.344.296.828.295.463.001.786-.295.345-.319.344-.743.001-.425-.344-.744a1.08 1.08 0 0 0-.786-.318m-1.567 2.335a1.18 1.18 0 0 0-.828.319q-.323.318-.324.743 0 .423.324.74.345.297.828.298.462 0 .784-.298.346-.317.346-.74 0-.425-.346-.743a1.07 1.07 0 0 0-.784-.319m3.137 0q-.485 0-.832.319a1 1 0 0 0-.32.743q-.001.423.32.74.347.297.832.298.46 0 .783-.298.346-.317.347-.74 0-.425-.347-.743a1.07 1.07 0 0 0-.783-.319m-34.305 4.137-1.683.786q.621 1.04.967 1.74.345.7.485 1.253.138.551.138 1.145 0 .933-.482 1.973-.462 1.02-1.73 1.954-1.245.934-3.574 1.613l.668 1.612a10 10 0 0 0 1.615-.551 11 11 0 0 0 1.82-.978 8.3 8.3 0 0 0 1.683-1.443 6.4 6.4 0 0 0 1.245-1.908q.485-1.084.485-2.421 0-.933-.392-2.164-.369-1.23-1.245-2.61m16.388 1.211q.53 0 .922.402.39.383.69.998t.578 1.251c.152.351.214.655.203.92l-.268.662c-.248.284-.605.435-1.088.435q-.76 0-1.73-.551-.966-.574-1.75-1.784.737-1.338 1.336-1.825t1.107-.508m15.396 2.694c-.136.45-.286.814-.455 1.041a1.18 1.18 0 0 1-.713.508q-.438.107-1.13.107a5.5 5.5 0 0 1-.824-.061c.977-.508 1.896-.994 3.122-1.595m-4.965 2.54a1.8 1.8 0 0 0 .362.346c.205.132.422.226.648.301l-.282.132q-1.958.912-2.88 1.824-.253.233-.369.657a3.5 3.5 0 0 0-.115.913q0 .191.552.616.554.424 1.406 1.04.855.615 1.708 1.422 1.245 1.146 1.637 1.868.415.721.414 1.21 0 .275-.138.551-.116.255-.507.488-.368.212-1.175.361-.807.127-2.145.127h-1.167q-1.315 0-1.939-.213-.6-.211-.783-.763-.16-.573-.206-1.612l-.44-8.502c.2.143.32.177.573.271l1.542.78a131 131 0 0 1 3.304-1.817M25.96 42.898l-1.198 1.315.668.553q-1.637 1.4-2.305 2.674-.645 1.252-.645 2.1-.001 1.72 1.127 2.548 1.13.806 2.838.806 1.175 0 1.958-.362.785-.382 1.223-.955.438-.595.623-1.21.184-.615.183-1.102 0-1.253-.623-2.379a9.3 9.3 0 0 0-1.637-2.12 19.4 19.4 0 0 0-2.212-1.868m.575 2.717q.97.764 1.454 1.4.485.615.645 1.145t.161 1.019q.001.891-.598 1.443-.6.53-1.752.53-.922 0-1.545-.444-.6-.446-.6-1.337 0-.765.575-1.784.6-1.018 1.66-1.972" style="opacity:.1"/><path d="m17.903 24 .46 11.608q.046 1.273.416 2.08.368.807 1.336 1.19c.646.255 2.39.382 3.634.382q.739 0 1.316-.129.6-.127 1.13-.571.553-.467 1.153-1.443a6.55 6.55 0 0 0 2.029 1.781q1.197.658 2.35.658c.408 0 1.784-.092 2.142-.238l.36 9.03q.045 1.273.414 2.08.368.808 1.338 1.19.968.382 2.835.382h1.097q2.03 0 3.23-.298 1.198-.318 1.797-.806t.784-1.04q.185-.55.185-1.018 0-1.635-1.454-3.227-1.428-1.613-4.125-3.63.736-.465 1.59-.912a38 38 0 0 1 2.189-1.061c.85-.391 1.965-.894 3.277-1.479.179.176.39.32.643.433q.737.297 2.006.298 1.845 0 2.905-.955 1.06-.976 1.06-2.95 0-.637-.183-1.486a17 17 0 0 0-.462-1.698 25 25 0 0 0-.553-1.57l-1.868.637q.507 1.209.899 2.439.415 1.23.414 2.017 0 1.103-.597 1.463-.6.361-1.592.362-.898 0-1.359-.15-.438-.148-.6-.401a1.3 1.3 0 0 1-.138-.574q0-.361.068-.892.07-.551.163-1.102.115-.552.183-.935l-1.752-.296a28 28 0 0 1-.473 2.39l-.542-1.088c-1.444.69-2.7 1.328-3.867 1.943 0-.007-.005-.012-.005-.02q0-.594.183-1.337l.324-1.294-1.73-.445a33 33 0 0 1-.645 2.376q-.278.848-.6 1.25-.299.384-.759.491a7 7 0 0 1-1.2.084h-.003q-.6 0-1.084-.17-.461-.19-.9-.763-.414-.573-.943-1.762-.577-1.273-1.108-1.996-.506-.742-1.105-1.039a2.86 2.86 0 0 0-1.36-.318q-.555 0-1.246.275-.669.276-1.429.998-.739.723-1.476 2.08-.554 1.02-.922 1.613-.346.573-.738.826-.369.255-1.015.256c-.876 0-2.32-.071-2.735-.213q-.6-.211-.783-.763-.162-.573-.209-1.612L19.791 24Zm29.111 1.486a1.18 1.18 0 0 0-.828.318 1.013 1.013 0 0 0 0 1.487q.344.296.828.295.463.001.786-.295.345-.319.344-.743.001-.425-.344-.744a1.08 1.08 0 0 0-.786-.318m-1.567 2.335a1.18 1.18 0 0 0-.828.319q-.323.318-.324.743 0 .423.324.74.345.297.828.298.462 0 .784-.298.346-.317.346-.74 0-.425-.346-.743a1.07 1.07 0 0 0-.784-.319m3.137 0q-.485 0-.832.319a1 1 0 0 0-.32.743q-.001.423.32.74.347.297.832.298.46 0 .783-.298.346-.317.347-.74 0-.425-.347-.743a1.07 1.07 0 0 0-.783-.319m-34.305 4.137-1.683.786q.621 1.04.967 1.74.345.7.485 1.253.138.551.138 1.145 0 .933-.482 1.973-.462 1.02-1.73 1.954-1.245.934-3.574 1.613l.668 1.612a10 10 0 0 0 1.615-.551 11 11 0 0 0 1.82-.978 8.3 8.3 0 0 0 1.683-1.443 6.4 6.4 0 0 0 1.245-1.908q.485-1.084.485-2.421 0-.933-.392-2.164-.369-1.23-1.245-2.61m16.388 1.211q.53 0 .922.402.39.383.69.998t.578 1.251c.152.351.214.655.203.92l-.268.662c-.248.284-.605.435-1.088.435q-.76 0-1.73-.551-.966-.574-1.75-1.784.737-1.338 1.336-1.825t1.107-.508m15.396 2.694c-.136.45-.286.814-.455 1.041a1.18 1.18 0 0 1-.713.508q-.438.107-1.13.107a5.5 5.5 0 0 1-.824-.061c.977-.508 1.896-.994 3.122-1.595m-4.965 2.54a1.8 1.8 0 0 0 .362.346c.205.132.422.226.648.301l-.282.132q-1.958.912-2.88 1.824-.253.233-.369.657a3.5 3.5 0 0 0-.115.913q0 .191.552.616.554.424 1.406 1.04.855.615 1.708 1.422 1.245 1.146 1.637 1.868.415.721.414 1.21 0 .275-.138.551-.116.255-.507.488-.368.212-1.175.361-.807.127-2.145.127h-1.167q-1.315 0-1.939-.213-.6-.211-.783-.763-.16-.573-.206-1.612l-.44-8.502c.2.143.32.177.573.271l1.542.78a131 131 0 0 1 3.304-1.817M25.96 41.898l-1.198 1.315.668.553q-1.637 1.4-2.305 2.674-.645 1.252-.645 2.1-.001 1.72 1.127 2.548 1.13.806 2.838.806 1.175 0 1.958-.362.785-.382 1.223-.955.438-.595.623-1.21.184-.615.183-1.102 0-1.253-.623-2.379a9.3 9.3 0 0 0-1.637-2.12 19.4 19.4 0 0 0-2.212-1.868m.575 2.717q.97.764 1.454 1.4.485.615.645 1.145t.161 1.019q.001.891-.598 1.443-.6.53-1.752.53-.922 0-1.545-.444-.6-.446-.6-1.337 0-.765.575-1.784.6-1.018 1.66-1.972" style="fill:#4f4f4f"/><path d="M4.457 18q-.12.494-.207 1h55.5q-.086-.506-.207-1z" style="opacity:.1"/><path d="M20.8 4C12.45 4 5.579 10.038 4.25 18h.213C6.179 10.54 12.806 5 20.8 5h22.398c7.995 0 14.622 5.54 16.338 13h.213c-1.328-7.962-8.2-14-16.55-14z" style="opacity:.2;fill:#fff"/></svg>