<svg xmlns="http://www.w3.org/2000/svg" width="64" height="64"><path d="M4.148 43q-.146.99-.148 2h12v-2zM48 43v2h12c0-.674-.052-1.34-.148-2zM16 56.23v2S16.2 61 19 61h26c2.8 0 3-2.77 3-2.77v-2S47.8 59 45 59H19c-2.8 0-3-2.77-3-2.77" style="opacity:.2"/><path d="M32 24C16.536 24 4 33.294 4 44h12v13.23S16.2 60 19 60h26c2.8 0 3-2.77 3-2.77V44h12c0-10.706-12.536-20-28-20" style="fill:#7bc136"/><path d="M32 24C16.536 24 4 33.294 4 44h.037C4.787 33.722 17.02 25 32 25s27.213 8.722 27.963 19H60c0-10.706-12.536-20-28-20" style="opacity:.2;fill:#fff"/><path d="M24 24h16l-2 8H26z" style="fill:#4c4c4c"/><circle cx="32" cy="17" r="12" style="opacity:.2"/><circle cx="32" cy="16" r="12" style="fill:#fecd38"/><path d="M32 4a12 12 0 0 0-12 12 12 12 0 0 0 .021.404A12 12 0 0 1 32 5a12 12 0 0 1 11.975 11.5A12 12 0 0 0 44 16 12 12 0 0 0 32 4" style="opacity:.2;fill:#fff"/></svg>