<svg xmlns="http://www.w3.org/2000/svg" width="64" height="64"><circle cx="32" cy="33" r="29" style="opacity:.2"/><circle cx="32" cy="32" r="29" style="fill:#4f4f4f"/><path d="M32 10A23 23 0 0 0 9 33a23 23 0 0 0 23 23 23 23 0 0 0 22.773-20h6.067a29 29 0 0 0 .16-3 29 29 0 0 0-.187-3H43v6h5.719A17 17 0 0 1 32 50a17 17 0 0 1-17-17 17 17 0 0 1 17-17h15.465A23 23 0 0 0 32 10" style="opacity:.2"/><path d="M32 9A23 23 0 0 0 9 32a23 23 0 0 0 23 23 23 23 0 0 0 22.773-20h6.067a29 29 0 0 0 .16-3 29 29 0 0 0-.187-3H43v6h5.719A17 17 0 0 1 32 49a17 17 0 0 1-17-17 17 17 0 0 1 17-17h15.465A23 23 0 0 0 32 9" style="fill:#d08e3b"/><path d="M32 22a11 11 0 0 0-11 11 11 11 0 0 0 11 11 11 11 0 0 0 5-1.215V44h6V22h-6v1.203A11 11 0 0 0 32 22m0 6a5 5 0 0 1 5 5 5 5 0 0 1-5 5 5 5 0 0 1-5-5 5 5 0 0 1 5-5" style="opacity:.2"/><path d="M32 21a11 11 0 0 0-11 11 11 11 0 0 0 11 11 11 11 0 0 0 5-1.215V43h6V21h-6v1.203A11 11 0 0 0 32 21m0 6a5 5 0 0 1 5 5 5 5 0 0 1-5 5 5 5 0 0 1-5-5 5 5 0 0 1 5-5" style="fill:#fff"/><path d="M32 3A29 29 0 0 0 3 32a29 29 0 0 0 .018.488A29 29 0 0 1 32 4a29 29 0 0 1 28.975 28.494A29 29 0 0 0 61 32 29 29 0 0 0 32 3" style="opacity:.1;fill:#fff"/><path d="M32 9A23 23 0 0 0 9 32l.021.406A23 23 0 0 1 32 10a23 23 0 0 1 14.25 5h1.215A23 23 0 0 0 32 9m11 20v1h17.813a29 29 0 0 1 .16 2.549A29 29 0 0 0 61 32a29 29 0 0 0-.187-3zm-27.957 4.172A17 17 0 0 0 15 34a17 17 0 0 0 .025.512l.018-.34A17 17 0 0 0 32 50a17 17 0 0 0 16.219-12h.271a17 17 0 0 0 .229-1h-.5A17 17 0 0 1 32 49a17 17 0 0 1-16.957-15.828" style="opacity:.2;fill:#fff"/></svg>