<svg xmlns="http://www.w3.org/2000/svg" width="64" height="64"><rect width="56" height="56" x="4" y="5" ry="8.05" style="opacity:.2"/><rect width="56" height="56" x="4" y="4" ry="8.05" style="fill:#3f3f3f"/><path d="M23 26v2h-1v1h3v2h2v-2h3v2h2v-2h2v2h-2v4h2v-2h2v-2h1v-3h-2v-2h-3v2h-2v-2h-3v2h-2v-2h-1z" style="fill:#c8fa00"/><path d="M25 16v5h-2v5h-2v2h2v-2h2v2h2v-2h3v2h2v-2h3v-2h2v-2h3v-2h2v-4H26zm12 12v3h2v-3h-1zm-15 1v2h3v-2h-2zm5 0v2h3v-2h-1zm5 0v2h2v-2h-1z" style="fill:#2e7d6d"/><path d="M22 13v4h-2v5h-3v5h-2v4h-2v6h14v4h-3v4h-2v5h-2v3h3v-2h2v-2h3v-3h2v-2h3v-2h2v-3h2v-2h3v-2h2v-3h2v-2h3v-2h2v-4h-7v-1h2v-2h3v-3h2v-2h2v-3H23zm3 4h17v4h-2v2h-3v2h-2v4h4v3h-3v2h-2v2h-2v-4H22v-3h-1v-2h2v-5h2v-4z" style="opacity:.2"/><path d="M22 12v4h-2v5h-3v5h-2v4h-2v6h14v4h-3v4h-2v5h-2v3h3v-2h2v-2h3v-3h2v-2h3v-2h2v-3h2v-2h3v-2h2v-3h2v-2h3v-2h2v-4h-7v-1h2v-2h3v-3h2v-2h2v-3H23zm3 4h17v4h-2v2h-3v2h-2v4h4v3h-3v2h-2v2h-2v-4H22v-3h-1v-2h2v-5h2v-4z" style="fill:#fff"/><path d="M12.05 4A8.034 8.034 0 0 0 4 12.05v1A8.034 8.034 0 0 1 12.05 5h39.9A8.034 8.034 0 0 1 60 13.05v-1A8.034 8.034 0 0 0 51.95 4z" style="fill:#fff;opacity:.1"/></svg>