<svg xmlns="http://www.w3.org/2000/svg" width="64" height="64"><circle cx="32" cy="33" r="28" style="opacity:.2"/><circle cx="32" cy="32" r="28" style="fill:#e4e4e4"/><path d="m47.02 13.8-3.168 1.04-3.11-.502-1.01 1.853s-1.35 3.063-2.003 4.522c-.702 1.368-1.461 3.001-2.12 4.39a297 297 0 0 0-2.007 4.344c-1.141 2.511-2.267 5.03-3.436 7.528-1.613 3.75-4.033 7.343-4.941 11.355-.41 1.731-.163 4.18 1.959 4.584 1.12.245 2.686-.037 3.55-.807 1.439-1.654 1.216-3.812 1.377-5.896-.004-.657-.024-1.539-.049-2.46a507 507 0 0 0-.156-4.775L30.37 42.1c-.16 1.113-.186 2.262-.303 3.394q-.047.468-.12.932c-.177 1.158-1.015 4.772-2.253 3.082-1.13-1.544.508-3.68 1.143-5.377 2.345-5.28 5.5-10.315 8.568-15.207 1.038-1.655 1.765-2.745 2.84-4.371l2.617-4.051zm-23.848 7.221a6.7 6.7 0 0 0-2.317.393c-2.652 1.015-3.828 3.83-3.855 6.68-.006.683.053 1.368.174 2.03l.174.987 1.132-1.613c.06-2.002.633-3.975 2.551-4.703 1.883-.938 4.147.13 5.112 1.879 1.825 3.264 2.594 6.792 3.404 10.383.548-1.132 1.582-3.243 1.582-3.243-.62-3.638-1.528-7.35-3.522-10.548-.96-1.534-2.691-2.232-4.435-2.245" style="opacity:.1"/><path d="M39.732 15.19s-1.35 3.064-2.004 4.523c-.701 1.367-1.46 3.001-2.118 4.39a297 297 0 0 0-2.01 4.345c-1.14 2.511-2.264 5.03-3.433 7.527-1.613 3.75-4.034 7.344-4.942 11.355-.41 1.731-.164 4.18 1.958 4.584 1.121.245 2.687-.038 3.551-.807 1.439-1.655 1.216-3.813 1.377-5.897-.004-.657-.024-1.538-.048-2.459-.061-2.266-.157-4.774-.157-4.774l-1.536 3.124c-.16 1.113-.188 2.26-.304 3.392q-.047.468-.121.932c-.176 1.158-1.014 4.772-2.252 3.082-1.13-1.543.508-3.678 1.144-5.376 2.344-5.28 5.499-10.314 8.568-15.206 1.038-1.655 1.763-2.746 2.839-4.372.663-1.163 2.618-4.051 2.618-4.051zm-16.56 4.832a6.7 6.7 0 0 0-2.316.392c-2.652 1.015-3.829 3.83-3.856 6.68-.006.683.054 1.368.175 2.03l.172.988 1.133-1.615c.059-2.002.633-3.975 2.552-4.702 1.882-.939 4.146.13 5.11 1.88 1.826 3.263 2.594 6.79 3.404 10.38a1030 1030 0 0 1 1.582-3.24c-.62-3.639-1.527-7.35-3.52-10.549-.962-1.534-2.691-2.23-4.435-2.244" style="fill:#356899"/><path d="m47.02 12.8-7.288 2.39 3.13 4.312z" style="fill:#75b4f4"/><path d="m40.743 13.337 3.117.506-4.128 1.347z" style="fill:#7fb9f5"/><path d="m39.732 15.19 3.13 4.312-5.134.21z" style="fill:#5fa4e9"/><path d="m37.728 19.713 5.134-.211-2.618 4.05z" style="fill:#4993dd"/><path d="m37.728 19.713 2.516 3.84-4.634.55z" style="fill:#3c8ce0"/><path d="m35.61 24.103 4.634-.55-2.84 4.372z" style="fill:#3d81c3"/><path d="m35.61 24.103 1.795 3.822-3.804.523z" style="fill:#3b73ac"/><path d="m31.906 37.977.157 4.775L30.37 41.1z" style="fill:#407ebc"/><path d="M32.063 42.752 30.37 41.1l-.304 3.392z" style="fill:#3871ab"/><path d="m17.175 29.125 1.305-.628-1.133 1.615z" style="fill:#547fa9"/><path d="M17 27.094c-.006.683.054 1.368.175 2.03l1.305-.627z" style="fill:#3771aa"/><path d="M32 4A28 28 0 0 0 4 32a28 28 0 0 0 .021.586A28 28 0 0 1 32 5a28 28 0 0 1 27.979 27.414L60 32A28 28 0 0 0 32 4" style="fill:#fff;opacity:.2"/></svg>