<svg xmlns="http://www.w3.org/2000/svg" width="64" height="64"><path d="M28.863 6C27.283 6 26 7.27 26 8.834v11.332C26 21.73 27.282 23 28.863 23h15.274C45.717 23 47 21.73 47 20.166V8.834C47 7.27 45.718 6 44.137 6ZM6.834 23C5.27 23 4 24.282 4 25.863v15.274C4 42.717 5.27 44 6.834 44h11.332C19.73 44 21 42.718 21 41.137V25.863C21 24.283 19.73 23 18.166 23ZM31.77 37A2.76 2.76 0 0 0 29 39.75v16.5A2.76 2.76 0 0 0 31.77 59h18.46A2.76 2.76 0 0 0 53 56.25v-16.5A2.76 2.76 0 0 0 50.23 37Z" style="opacity:.2"/><path d="M19 11.3V14h-3.605A4.406 4.406 0 0 0 11 18.394v8.407a1.5 1.5 0 1 0 3 0v-8.407c0-.674.72-1.394 1.395-1.394H19v2.699l7-4.2ZM50.666 14a1.5 1.5 0 1 0 0 3h5.135c.674 0 1.299.66 1.299 1.394V45c0 .734-.565 1.3-1.3 1.3H53a1.5 1.5 0 1 0 0 3h2.8c2.358 0 4.3-1.943 4.3-4.3V18.394c0-2.357-1.881-4.394-4.3-4.394ZM23.6 30a1.5 1.5 0 1 0 0 3h19.054c.674 0 1.346.69 1.346 1.394V39.4a1.5 1.5 0 1 0 3 0v-5.006C47 32.007 45.072 30 42.654 30ZM12.477 41.978A1.5 1.5 0 0 0 11 43.5v5.246C11 51.164 13.067 53 15.395 53H22v2.699l7-4.2-7-4.198V50h-6.605C14.63 50 14 49.42 14 48.746V43.5a1.5 1.5 0 0 0-1.523-1.522" style="opacity:.2"/><path d="M12.5 25.8v-8.406c0-1.546 1.348-2.894 2.894-2.894H20.8m24.7 23.9v-5.006c0-1.546-1.3-2.894-2.846-2.894H23.6M53 46.8h2.8a2.8 2.8 0 0 0 2.8-2.8V17.394c0-1.546-1.254-2.894-2.8-2.894h-5.133" style="fill:none;stroke:#9a9996;stroke-width:3;stroke-linecap:round;stroke-linejoin:round"/><path d="M28.864 5h15.272C45.717 5 47 6.27 47 7.833v11.334C47 20.73 45.717 22 44.136 22H28.864C27.283 22 26 20.73 26 19.167V7.833C26 6.27 27.283 5 28.864 5m0 0" style="fill:#33d17a"/><path d="M26 9h21v1H26Zm0 9h21v1H26Zm0 0" style="fill:#8ff0a4"/><path d="M29 7h13v1H29Zm0 0" style="fill:#1d7b50"/><path d="M29 12h17v1h-3v3H29Z" style="fill:#26a269"/><path d="M6.833 22h11.334C19.73 22 21 23.283 21 24.864v15.272C21 41.717 19.73 43 18.167 43H6.833C5.27 43 4 41.717 4 40.136V24.864C4 23.283 5.27 22 6.833 22m0 0" style="fill:#33d17a"/><path d="M4 26h17v1H4Zm0 11h17v1H4Zm0 0" style="fill:#8ff0a4"/><path d="M7 24h10v1H7Zm0 0" style="fill:#1d7b50"/><path d="M7 29h13v1.333h-2.889V33H7Zm0 10h11v1H7Zm0 0" style="fill:#26a269"/><path d="M12.5 42.5v5.246c0 1.546 1.348 2.754 2.894 2.754H25" style="fill:none;stroke:#9a9996;stroke-width:3;stroke-linecap:round;stroke-linejoin:round"/><path d="m29 50.5-7-4.2v8.4Zm-3-36-7-4.2v8.4Zm0 0" style="fill:#9a9996"/><path d="M19 10.3v1l6.166 3.7.834-.5zM15.395 13A4.406 4.406 0 0 0 11 17.395v1A4.406 4.406 0 0 1 15.395 14H19v-1zm35.271 0a1.5 1.5 0 0 0-1.434 2 1.5 1.5 0 0 1 1.434-1h5.135c2.418 0 4.299 2.037 4.299 4.395v-1c0-2.358-1.881-4.395-4.3-4.395zM23.6 29a1.5 1.5 0 0 0-1.434 2 1.5 1.5 0 0 1 1.434-1h19.054C45.072 30 47 32.007 47 34.395v-1C47 31.007 45.072 29 42.654 29zM12.477 40.979A1.5 1.5 0 0 0 11 42.5v1a1.5 1.5 0 0 1 1.477-1.521A1.5 1.5 0 0 1 14 43.5v-1a1.5 1.5 0 0 0-1.523-1.521M57.1 44c0 .735-.565 1.3-1.3 1.3H53a1.5 1.5 0 0 0-1.434 2 1.5 1.5 0 0 1 1.434-1h2.8a1.28 1.28 0 0 0 1.3-1.3zM22 46.3v1l6.166 3.7.834-.5zm-8 1.446v1c0 .674.63 1.254 1.395 1.254H22v-1h-6.605C14.63 49 14 48.42 14 47.746" style="opacity:.2;fill:#fff"/><path d="M31.77 36h18.46A2.76 2.76 0 0 1 53 38.75v16.5A2.76 2.76 0 0 1 50.23 58H31.77A2.76 2.76 0 0 1 29 55.25v-16.5A2.76 2.76 0 0 1 31.77 36m0 0" style="fill:#33d17a"/><path d="M28.863 5C27.283 5 26 6.27 26 7.834v1C26 7.27 27.282 6 28.863 6h15.274C45.717 6 47 7.27 47 8.834v-1C47 6.27 45.718 5 44.137 5zM6.834 22C5.27 22 4 23.282 4 24.863v1C4 24.283 5.27 23 6.834 23h11.332C19.73 23 21 24.282 21 25.863v-1C21 23.283 19.73 22 18.166 22zM31.77 36A2.76 2.76 0 0 0 29 38.75v1A2.76 2.76 0 0 1 31.77 37h18.46A2.76 2.76 0 0 1 53 39.75v-1A2.76 2.76 0 0 0 50.23 36z" style="fill:#fff;opacity:.2"/><path d="M29 40h24v1H29Zm0 12h24v1H29Zm0 0" style="fill:#8ff0a4"/><path d="M32 38h13v1H32Zm0 0" style="fill:#1d7b50"/><path d="M32 44h20v4h-6v1H32Zm0 10h17v1H32Zm0 0" style="fill:#26a269"/><path d="M50 12c-.297 0-.593.114-.82.34l-1.84 1.84a1.16 1.16 0 0 0 0 1.64l1.84 1.84a1.16 1.16 0 0 0 1.64 0l1.84-1.84a1.16 1.16 0 0 0 0-1.64l-1.84-1.84A1.16 1.16 0 0 0 50 12M24 28c-.297 0-.594.114-.82.34l-1.84 1.84a1.16 1.16 0 0 0 0 1.64l1.84 1.84a1.16 1.16 0 0 0 1.64 0l1.84-1.84a1.16 1.16 0 0 0 0-1.64l-1.84-1.84A1.16 1.16 0 0 0 24 28" style="opacity:.2"/><path d="m49.179 11.34-1.84 1.839a1.16 1.16 0 0 0 0 1.642l1.84 1.84a1.164 1.164 0 0 0 1.642 0l1.84-1.84a1.16 1.16 0 0 0 0-1.642l-1.84-1.84a1.16 1.16 0 0 0-1.642 0m-26 16.001-1.84 1.84a1.16 1.16 0 0 0 0 1.64l1.84 1.84a1.16 1.16 0 0 0 1.642 0l1.84-1.84a1.16 1.16 0 0 0 0-1.64l-1.84-1.84a1.16 1.16 0 0 0-1.642 0m0 0" style="fill:#e4e4e4"/></svg>