<svg xmlns="http://www.w3.org/2000/svg" width="64" height="64"><path d="M23.578 36.39 5.523 42.024a1.27 1.27 0 0 1-1.058-.176Q4 41.505 4 40.964v2q0 .541.465.884.49.322 1.058.176l18.055-5.634 2.414 11.348.386-.172zm16.844 0-2.856 13.176.394.176 2.462-11.352 18.058 5.634q.568.146 1.06-.176.461-.343.46-.884v-2q.001.541-.46.884a1.28 1.28 0 0 1-1.06.176zM19.02 55.016a1 1 0 0 0-.18.538L19.383 60 32 58l12.618 2 .542-4.446a1 1 0 0 0-.18-.538L44.616 58l-12.618-2-12.617 2-.363-2.984Z" style="opacity:.2"/><circle cx="32" cy="7" r="2" style="fill:#535353"/><path d="M31.972 7c-.155 0-.3.031-.45.044-.184.017-.37.022-.547.055-.049.01-.094.03-.142.041-4.713 1.018-7.109 7.95-6.822 14.56-.005.193-.03.4-.03.59L4.569 34.732q-.541.271-.568.936v6.297q0 .54.464.884.491.32 1.057.173l18.058-5.633 2.798 13.179-7.176 3.2q-.36.345-.36.788l.543 4.446 12.615-2 12.616 2 .544-4.444q0-.443-.361-.788l-7.233-3.2 2.854-13.18 18.061 5.633q.567.147 1.057-.173.464-.344.462-.884V35.67q-.025-.664-.565-.936L40.02 22.29c0-.189-.015-.396-.02-.59.286-6.609-2.12-13.541-6.832-14.559-.049-.01-.094-.031-.142-.041-.178-.033-.364-.038-.547-.055-.15-.013-.295-.044-.45-.044l-.03.003-.028-.003z" style="fill:#fead00"/><path d="m18 26.123-4 2.564v11.69l4-1.248zm28 0v13.008l4 1.248V28.688zm-34 3.846-4 2.564v9.715L12 41zm40 0v11.033l4 1.248v-9.717z" style="fill:#fe5600"/><path d="M31.973 7c-.155 0-.3.032-.452.045-.182.016-.369.021-.546.055-.05.01-.095.03-.143.04-4.571.988-6.954 7.54-6.832 13.964.13-6.09 2.498-12.03 6.832-12.965.048-.011.094-.032.143-.041.177-.034.364-.039.546-.055.151-.013.297-.045.452-.045V8l.027.002.03-.002c.154 0 .3.03.45.043.183.016.37.021.547.055.05.01.093.03.141.04 4.332.936 6.71 6.87 6.844 12.956.118-6.42-2.275-12.967-6.844-13.953-.048-.011-.092-.032-.14-.041-.178-.034-.365-.039-.548-.055-.15-.013-.296-.043-.45-.043l-.03.002-.027-.002zm-7.977 14.957a5 5 0 0 0-.016.332L4.568 34.732q-.541.27-.568.936v.998q.027-.664.568-.936L23.98 23.287c0-.19.025-.396.03-.59-.01-.246-.01-.493-.014-.74m16.016.084c-.004.22-.003.44-.012.658.005.194.021.4.021.59l19.413 12.443q.54.27.566.936v-.998q-.026-.665-.566-.936L40.02 22.291c0-.08-.006-.166-.01-.25M26.184 50.654 19.2 53.768q-.36.345-.36.789l.079.634a1.15 1.15 0 0 1 .281-.425l7.176-3.2zm11.58.004-.198.91 7.233 3.2c.136.13.224.274.283.425l.078-.634q0-.445-.361-.79z" style="fill:#fff;opacity:.2"/><rect width="20" height="2" x="22" y="7" rx="1.25" ry="2" style="fill:#292929"/><path d="M40 29.666C40 34.822 36.418 39 32 39s-8-4.178-8-9.334C24 24.512 27.582 23 32 23s8 1.512 8 6.667z" style="fill:#292929"/></svg>