<svg xmlns="http://www.w3.org/2000/svg" width="64" height="64"><path d="M4 56v2c0 1.662 1.338 3 3 3h50c1.662 0 3-1.338 3-3v-2c0 1.662-1.338 3-3 3H7c-1.662 0-3-1.338-3-3" style="opacity:.2"/><rect width="56" height="56" x="4" y="4" rx="3" ry="3" style="fill:#959595"/><path d="M7 4C5.338 4 4 5.338 4 7v1c0-1.662 1.338-3 3-3h50c1.662 0 3 1.338 3 3V7c0-1.662-1.338-3-3-3z" style="opacity:.1;fill:#fff"/><path d="m32.004 21-.004.004c-4.195 0-7.779 1.551-9.264 3.748a5 5 0 0 0-.328.566q-.136.275-.226.559a10 5.998 0 0 0-.041.176c-.035.129-.072.257-.092.388a10 5.998 0 0 0-.049.561q.002.292.05.582a10 5.998 0 0 0 .137.562 10 5.998 0 0 0 .231.561 10 5.998 0 0 0 .318.545A10 5.998 0 0 0 32 33a10 5.998 0 0 0 9.264-3.748 10 5.998 0 0 0 .002-.006 10 5.998 0 0 0 .271-.463c.016-.03.036-.061.05-.092a10 5.998 0 0 0 .165-.398c.023-.063.052-.124.072-.188a10 5.998 0 0 0 .082-.334q.032-.13.053-.261a10 5.998 0 0 0 .041-.508 10 5.998 0 0 0-.053-.598c-.092-.584-.33-1.137-.68-1.654-1.485-2.197-5.07-3.75-9.263-3.75m-9.268 11A10 5.09 0 0 0 22 33.91 10 5.09 0 0 0 32 39a10 5.09 0 0 0 10-5.092A10 5.09 0 0 0 41.264 32 10 5.09 0 0 1 32 35.182 10 5.09 0 0 1 22.736 32m0 6A10 5.09 0 0 0 22 39.908 10 5.09 0 0 0 32 45a10 5.09 0 0 0 10-5.09 10 5.09 0 0 0-.736-1.91A10 5.09 0 0 1 32 41.184 10 5.09 0 0 1 22.736 38" style="opacity:.1"/><path d="m32.004 20-.004.004c-4.195 0-7.779 1.551-9.264 3.748a5 5 0 0 0-.328.566q-.136.275-.226.559a10 5.998 0 0 0-.041.176c-.035.129-.072.257-.092.388a10 5.998 0 0 0-.049.561q.002.292.05.582a10 5.998 0 0 0 .137.562 10 5.998 0 0 0 .231.561 10 5.998 0 0 0 .318.545A10 5.998 0 0 0 32 32a10 5.998 0 0 0 9.264-3.748 10 5.998 0 0 0 .002-.006 10 5.998 0 0 0 .271-.463c.016-.03.036-.061.05-.092a10 5.998 0 0 0 .165-.398c.023-.063.052-.124.072-.188a10 5.998 0 0 0 .082-.334q.032-.13.053-.261a10 5.998 0 0 0 .041-.508 10 5.998 0 0 0-.053-.598c-.092-.584-.33-1.137-.68-1.654-1.485-2.197-5.07-3.75-9.263-3.75m-9.268 11A10 5.09 0 0 0 22 32.91 10 5.09 0 0 0 32 38a10 5.09 0 0 0 10-5.092A10 5.09 0 0 0 41.264 31 10 5.09 0 0 1 32 34.182 10 5.09 0 0 1 22.736 31m0 6A10 5.09 0 0 0 22 38.908 10 5.09 0 0 0 32 44a10 5.09 0 0 0 10-5.09 10 5.09 0 0 0-.736-1.91A10 5.09 0 0 1 32 40.184 10 5.09 0 0 1 22.736 37" style="fill:#4d4d4d"/><path d="M64.085 45.848A16 16 0 0 1 48.127 61a16 16 0 0 1-15.958-14.848 16 16 0 0 0-.042.848 16 16 0 0 0 16 16 16 16 0 0 0 16-16 16 16 0 0 0-.042-1.152" style="opacity:.2;fill-rule:evenodd"/><circle cx="48" cy="46" r="16" style="fill:#cc5e55"/><path d="m46 38-.176 2.107a6.3 6.3 0 0 0-1.837 1.063l-1.916-.902-2 3.464 1.74 1.208a6.3 6.3 0 0 0-.097 1.06 6.3 6.3 0 0 0 .092 1.065l-1.735 1.203 2 3.464 1.91-.9a6.3 6.3 0 0 0 1.842 1.056L46 54h4l.176-2.107a6.3 6.3 0 0 0 1.837-1.063l1.915.902 2-3.464-1.738-1.208a6.3 6.3 0 0 0 .096-1.06 6.3 6.3 0 0 0-.092-1.065l1.735-1.203-2-3.464-1.911.9a6.3 6.3 0 0 0-1.842-1.057L50 38zm2 5.714A2.286 2.286 0 0 1 50.286 46 2.286 2.286 0 0 1 48 48.286 2.286 2.286 0 0 1 45.714 46 2.286 2.286 0 0 1 48 43.714" style="fill:#fff"/></svg>