<svg xmlns="http://www.w3.org/2000/svg" xmlns:xlink="http://www.w3.org/1999/xlink" width="64" height="64"><defs><filter id="c" width="1.163" height="1.151" x="-.081" y="-.075" style="color-interpolation-filters:sRGB"><feGaussianBlur stdDeviation=".782"/></filter><filter id="d" width="1.066" height="1.059" x="-.033" y="-.029" style="color-interpolation-filters:sRGB"><feGaussianBlur stdDeviation=".395"/></filter><radialGradient xlink:href="#a" id="b" cx="29.096" cy="20.328" r="11.919" fx="29.096" fy="20.328" gradientTransform="rotate(-60 17.764 88.695)scale(2.78387 3.21092)" gradientUnits="userSpaceOnUse"/><linearGradient id="a"><stop offset="0" style="stop-color:#ff4678;stop-opacity:1"/><stop offset="1" style="stop-color:#ff81ae;stop-opacity:1"/></linearGradient></defs><path d="m25.847 16.431-6.248 3.608a5.57 5.57 0 0 1-5.571 0L7.779 16.43a5.57 5.57 60 0 1-2.785-4.824V4.392A5.57 5.57 120 0 1 7.779-.433l6.249-3.607a5.57 5.57 180 0 1 5.57 0l6.249 3.607a5.57 5.57 60 0 1 2.785 4.825v7.215a5.57 5.57 120 0 1-2.785 4.824" style="fill:url(#b);stroke-width:.2;stroke-linecap:round;stroke-linejoin:round" transform="translate(-4.519 14.625)scale(2.17204)"/><path d="m25.847 16.431-6.248 3.608a5.57 5.57 0 0 1-5.571 0L7.779 16.43a5.57 5.57 60 0 1-2.785-4.824V4.392A5.57 5.57 120 0 1 7.779-.433l6.249-3.607a5.57 5.57 180 0 1 5.57 0l6.249 3.607a5.57 5.57 60 0 1 2.785 4.825v7.215a5.57 5.57 120 0 1-2.785 4.824" style="mix-blend-mode:normal;fill:none;stroke:#000;stroke-width:.0988394;stroke-linecap:round;stroke-linejoin:round;stroke-dasharray:none;stroke-opacity:1;filter:url(#c)" transform="translate(-4.519 14.625)scale(2.17204)"/><path d="M18.136 23.494c3.056-5.901 9.349-9.926 16.382-9.18 7.81.83 14.225 7.832 13.195 15.921-.83 6.51-6.778 11.865-13.582 10.782-5.207-.829-9.52-5.751-8.347-11.273a8.07 8.07 0 0 1 3.165-4.842c1.598-1.15 3.85-1.655 5.86-1.015 1.062.338 2.438 1.16 2.76 3.503-1.321-1.663-1.628-2.03-2.86-2.426-1.549-.498-3.485.105-4.777 1.035s-2.309 2.472-2.642 4.044c-1.038 4.889 3.072 8.266 7.303 8.939 5.798.923 9.563-4.166 10.193-9.12.807-6.338-4.337-11.95-10.58-12.612-7.644-.81-14.334 5.399-15.019 12.932-.814 8.947 6.466 16.717 15.29 17.42.813.064 2.276.139 4.976-.377-2.997 2.806-7.603 3.118-11.357 1.8-7.014-3.157-12.606-10.784-11.849-19.11a17.4 17.4 0 0 1 1.889-6.42" style="baseline-shift:baseline;display:inline;overflow:visible;opacity:1;vector-effect:none;fill:#fff;fill-opacity:1;fill-rule:evenodd;stroke-width:1.63908;stroke-linecap:round;stroke-linejoin:round;enable-background:accumulate;stop-color:#000;stop-opacity:1"/><path d="M18.136 23.494c3.056-5.901 9.349-9.926 16.382-9.18 7.81.83 14.225 7.832 13.195 15.921-.83 6.51-6.778 11.865-13.582 10.782-5.207-.829-9.52-5.751-8.347-11.273a8.07 8.07 0 0 1 3.165-4.842c1.598-1.15 3.85-1.655 5.86-1.015 1.062.338 2.438 1.16 2.76 3.503-1.321-1.663-1.628-2.03-2.86-2.426-1.549-.498-3.485.105-4.777 1.035s-2.309 2.472-2.642 4.044c-1.038 4.889 3.072 8.266 7.303 8.939 5.798.923 9.563-4.166 10.193-9.12.807-6.338-4.337-11.95-10.58-12.612-7.644-.81-14.334 5.399-15.019 12.932-.814 8.947 6.466 16.717 15.29 17.42.813.064 2.276.139 4.976-.377-2.997 2.806-7.603 3.118-11.357 1.8-7.014-3.157-12.606-10.784-11.849-19.11a17.4 17.4 0 0 1 1.889-6.42" style="baseline-shift:baseline;display:inline;overflow:visible;fill:none;fill-opacity:1;fill-rule:evenodd;stroke-width:.2;stroke-linecap:round;stroke-linejoin:round;enable-background:accumulate;stop-color:#000;stroke:red;stroke-opacity:1;stroke-dasharray:none;filter:url(#d);opacity:.85517645"/></svg>