<svg xmlns="http://www.w3.org/2000/svg" width="64" height="64"><path d="M4 56v2c0 1.662 1.338 3 3 3h50c1.662 0 3-1.338 3-3v-2c0 1.662-1.338 3-3 3H7c-1.662 0-3-1.338-3-3" style="opacity:.2"/><rect width="56" height="56" x="4" y="4" rx="3" ry="3" style="fill:#418357"/><path d="M7 4C5.338 4 4 5.338 4 7v1c0-1.662 1.338-3 3-3h50c1.662 0 3 1.338 3 3V7c0-1.662-1.338-3-3-3z" style="opacity:.1;fill:#fff"/><path d="M32.7 11c-14 0-20.524 11.767-20.7 22-.17 9.92 6 21 18.6 21 9.8 0 12.6-6 12.6-6l1.8 6h7V30H33v9h7s.4 5-8 5c-7 0-10-5.68-10-11s3.7-13 10.7-13 9.3 6 9.3 6h9.6s-2.1-15-18.9-15" style="opacity:.2"/><path d="M32.7 10c-14 0-20.524 11.767-20.7 22-.17 9.92 6 21 18.6 21 9.8 0 12.6-6 12.6-6l1.8 6h7V29H33v9h7s.4 5-8 5c-7 0-10-5.68-10-11s3.7-13 10.7-13 9.3 6 9.3 6h9.6s-2.1-15-18.9-15" style="fill:#fac345"/></svg>