<svg xmlns="http://www.w3.org/2000/svg" xmlns:xlink="http://www.w3.org/1999/xlink" width="64" height="64"><defs><radialGradient xlink:href="#a" id="f" cx="58.684" cy="11.498" r="19.5" fx="58.684" fy="11.498" gradientTransform="rotate(135.176 82.253 .082)scale(1.84919 1)" gradientUnits="userSpaceOnUse"/><radialGradient xlink:href="#b" id="e" cx="27.126" cy="37.229" r="4.546" fx="27.126" fy="37.229" gradientTransform="rotate(20.971 287.68 -4.1)scale(1.98387 3.33388)" gradientUnits="userSpaceOnUse"/><radialGradient xlink:href="#c" id="d" cx="11.378" cy="51.785" r="22" fx="11.378" fy="51.785" gradientTransform="rotate(-9.214 -318.623 183.02)scale(2.14128 2.12728)" gradientUnits="userSpaceOnUse"/><linearGradient id="c"><stop offset="0" style="stop-color:#e4e4e4;stop-opacity:1"/><stop offset="1" style="stop-color:#eee;stop-opacity:1"/></linearGradient><linearGradient id="b"><stop offset="0" style="stop-color:#f3d491;stop-opacity:1"/><stop offset="1" style="stop-color:#f3b491;stop-opacity:1"/></linearGradient><linearGradient id="a"><stop offset="0" style="stop-color:#ffbb29;stop-opacity:1"/><stop offset="1" style="stop-color:#ff8929;stop-opacity:1"/></linearGradient><filter id="g" width="1.261" height="1.261" x="-.131" y="-.131" style="color-interpolation-filters:sRGB"><feGaussianBlur stdDeviation="2.722"/></filter></defs><path d="M7.643 59c-1.524 0-2.75-1.249-2.75-2.8V5.8c0-1.551 1.226-2.8 2.75-2.8h38.5c1.524 0 2.75 1.249 2.75 2.8V43l-16 16z" style="fill:url(#d);stroke:none" transform="translate(2.17 3.887)scale(.90688)"/><path d="M32.893 59V45.667A2.667 2.667 0 0 1 35.56 43h13.333z" style="fill:#fafafa" transform="translate(2.17 3.887)scale(.90688)"/><path d="M21.893 42v-9.093L30.986 42z" style="fill:url(#e);stroke:none" transform="translate(2.17 3.887)scale(.90688)"/><path d="M21.893 42v-3.637L25.53 42z" style="fill:#545454;stroke:none" transform="translate(2.17 3.887)scale(.90688)"/><path d="M50.99 3.808 21.894 32.907 30.986 42l29.099-29.098s1.818-1.819 0-3.638l-5.456-5.456c-1.82-1.818-3.638 0-3.638 0" style="fill:url(#f);stroke:none" transform="translate(2.17 3.887)scale(.90688)"/><g style="stroke:#000;stroke-opacity:1;stroke-width:.2;stroke-dasharray:none;stroke-linejoin:round;stroke-linecap:round;filter:url(#g)" transform="translate(48.33 -2.771)"><path d="M-39.229 9.379c-1.381 0-2.494 1.132-2.494 2.539v45.707c0 1.407 1.113 2.54 2.494 2.54h22.899V48.071a2.417 2.417 0 0 1 2.418-2.418H-1.82V28.51l-16.24 16.236h-8.246V36.5L-1.82 12.014v-.096c0-1.407-1.112-2.54-2.494-2.54z" style="fill:none;stroke:#000;stroke-opacity:1;stroke-width:.2;stroke-dasharray:none;stroke-linejoin:round;stroke-linecap:round"/><path d="M-13.912 45.654a2.417 2.417 0 0 0-2.418 2.418v12.092l14.51-14.51ZM-26.305 36.5v4.95l3.297 3.296h4.95z" style="fill:none;stroke:#000;stroke-opacity:1;stroke-width:.2;stroke-dasharray:none;stroke-linejoin:round;stroke-linecap:round"/><path d="M-26.305 41.45v3.296h3.297zM1.887 9.38c-1.024-.048-1.805.731-1.805.731L-26.305 36.5l8.246 8.246L8.331 18.36s1.648-1.65 0-3.3l-4.949-4.95c-.516-.515-1.031-.708-1.496-.73" style="fill:none;stroke:#000;stroke-opacity:1;stroke-width:.2;stroke-dasharray:none;stroke-linejoin:round;stroke-linecap:round"/></g></svg>