<svg xmlns="http://www.w3.org/2000/svg" width="64" height="64"><rect width="58" height="58" x="-62" y="-61" rx="2.9" ry="2.9" style="opacity:.2" transform="rotate(90)scale(-1 1)"/><rect width="58" height="58" x="-61" y="-61" rx="2.9" ry="2.9" style="fill:#3b8c5f" transform="rotate(90)scale(-1 1)"/><path d="M33 35h11v12m3 0H34.5C30.15 47 20 48.986 20 33.036S30.15 17 34.5 17c5.8 0 10.9 3.124 10.9 3.124" style="opacity:.2;fill:none;stroke:#000;stroke-width:6"/><path d="M33 34h11v12m3 0H34.5C30.15 46 20 47.986 20 32.036S30.15 16 34.5 16c5.8 0 10.9 3.124 10.9 3.124" style="fill:none;stroke:#fff;stroke-width:6"/><path d="M5.898 3A2.89 2.89 0 0 0 3 5.898v1A2.89 2.89 0 0 1 5.898 4h52.204A2.89 2.89 0 0 1 61 6.898v-1A2.89 2.89 0 0 0 58.102 3z" style="opacity:.1;fill:#fff"/></svg>