<svg xmlns="http://www.w3.org/2000/svg" width="64" height="64"><path d="M4 56.2v2C4 59.75 5.25 61 6.8 61h50.4c1.55 0 2.8-1.25 2.8-2.8v-2c0 1.55-1.25 2.8-2.8 2.8H6.8C5.25 59 4 57.75 4 56.2" style="opacity:.2"/><rect width="56" height="56" x="4" y="4" rx="2.8" ry="2.8" style="fill:#d2d2d2"/><path d="M6.8 4C5.25 4 4 5.25 4 6.8v1C4 6.25 5.25 5 6.8 5h50.401C58.751 5 60 6.25 60 7.8v-1C60 5.25 58.751 4 57.201 4z" style="opacity:.2;fill:#fff"/><path d="M9.01 7.232c-.675-.012-.681 1.005-.006 1l3.4.02L14.01 9.87v6.164c-.01.676 1.01.676 1 0v-6.37a.5.5 0 0 0-.147-.352l-1.894-1.91a.5.5 0 0 0-.352-.148zm11.482.014a.5.5 0 0 0-.492.508v8.281c-.01.676 1.01.676 1 0V7.754a.5.5 0 0 0-.508-.508m-5.99.002a.5.5 0 0 0-.352.857L16 9.871v6.164c-.01.676 1.01.676 1 0V9.664a.5.5 0 0 0-.144-.352l-1.995-1.91a.5.5 0 0 0-.359-.155zm2 0a.5.5 0 0 0-.352.857l1.848 1.766v6.164c-.01.676 1.01.676 1 0V9.664a.5.5 0 0 0-.144-.352l-1.995-1.91a.5.5 0 0 0-.357-.154" display="block" style="display:block;fill:#4d4d4d" transform="matrix(2 0 0 1.93342 0 .017)"/><path d="M13.553 18.713a.5.5 0 0 0-.492.506v2.98l-.973.979h-3.58a.5.5 0 1 0 0 1h3.79a.5.5 0 0 0 .355-.147l1.261-1.275a.5.5 0 0 0 .147-.353v-3.186a.5.5 0 0 0-.507-.505Zm2.94 0a.5.5 0 0 0-.492.506v4.459a.5.5 0 1 0 1 0v-4.459a.5.5 0 0 0-.508-.506m2.002 0a.5.5 0 0 0-.495.506v3.186a.5.5 0 0 0 .147.351l1.262 1.276a.5.5 0 0 0 .355.146h3.79a.5.5 0 1 0 0-1h-3.58L19 22.2v-2.98a.5.5 0 0 0-.506-.506zm2.003 0a.5.5 0 0 0-.492.506v1.195a.5.5 0 0 0 .03.258l.01.023a.5.5 0 0 0 .158.204l1.21 1.22a.5.5 0 0 0 .356.149h1.262a.5.5 0 1 0 0-1h-1.055l-.97-.98v-1.07a.5.5 0 0 0-.509-.505" display="block" style="display:block;fill:#4d4d4d" transform="matrix(2 0 0 2.193 0 -3.037)"/><path d="M15.044 18a1.044.974 0 0 0-1.044.974v26.052a1.044.974 0 0 0 1.044.974h6.595a1.044.974 0 0 0 .742-.29l1.318-1.24a1.044.974 0 0 0 .302-.683V21.455a1.044.974 0 0 0-.302-.684L21.06 18.29a1.044.974 0 0 0-.738-.29z" display="block" style="display:block;fill:#4d4d4d"/><rect width="20.21" height="16.562" x="25" y="26.44" display="block" ry="2.584" style="display:block;fill:none;stroke:#4d4d4d;stroke-width:2;stroke-linecap:round;stroke-linejoin:round"/><path d="M63.958 45.848A16 16 0 0 1 48 61a16 16 0 0 1-15.958-14.848A16 16 0 0 0 32 47a16 16 0 0 0 16 16 16 16 0 0 0 16-16 16 16 0 0 0-.042-1.152" style="opacity:.2;fill-rule:evenodd"/><circle cx="48" cy="46" r="16" style="fill:#c03630"/><path d="M48 40v.002c-1.939.018-3.89.443-5.578 1.361-.673.421-1.481.964-2.09 1.512-.958.9-1.778 1.95-2.332 3.127 1.519 3.216 4.856 5.574 8.53 5.922 2.408.262 4.93-.139 7.048-1.283.673-.421 1.481-.964 2.09-1.512.958-.902 1.778-1.952 2.332-3.127-1.518-3.216-4.857-5.572-8.53-5.92-.487-.056-.98-.082-1.47-.082m.004 2c2.14-.047 4.034 1.868 3.994 3.996.069 2.353-2.275 4.383-4.592 3.943-2.34-.274-3.984-2.9-3.215-5.125.493-1.636 2.1-2.831 3.815-2.812zM48 44a2 2 0 0 0-2 2.002A2 2 0 0 0 48 48a2 2 0 0 0 2-1.998 2 2 0 0 0-2-1.996z" style="fill:#fff;fill-rule:evenodd"/></svg>