<svg xmlns="http://www.w3.org/2000/svg" width="64" height="64"><path d="M14.049 33c-.957 0-1.842.526-2.326 1.38l-6.35 11.2a2.89 2.89 0 0 0 0 2.84l6.35 11.2A2.68 2.68 0 0 0 14.049 61H26.75c.957 0 1.842-.526 2.326-1.38l6.35-11.2a2.89 2.89 0 0 0 0-2.84l-6.35-11.2A2.68 2.68 0 0 0 26.751 33Z" style="opacity:.2"/><path d="M14.048 4.7c-.7 0-1.349.38-1.714 1.025l-6.352 11.2a2.2 2.2 0 0 0 0 2.15l6.352 11.2c.365.644 1.014 1.024 1.714 1.025a.7.7 0 0 1 0 1.4c-.7 0-1.349.38-1.714 1.025l-6.352 11.2a2.2 2.2 0 0 0 0 2.15l6.352 11.2c.365.644 1.014 1.024 1.714 1.025h12.704c.7 0 1.349-.38 1.714-1.025l6.352-11.2a2.18 2.18 0 0 0 .14-1.794.7.7 0 0 1 .662-.93h.226a.7.7 0 0 1 .531.244c.384.447.909.705 1.471.705h12.704c.7 0 1.349-.38 1.714-1.025l6.352-11.2c.375-.66.375-1.49 0-2.15l-6.352-11.2c-.365-.644-1.014-1.024-1.714-1.025H37.848c-.7 0-1.349.38-1.714 1.025l-.003.003-.011.02a.7.7 0 0 1-.607.352h-.077a.7.7 0 0 1-.612-1.042 2.19 2.19 0 0 0-.006-2.133l-6.352-11.2c-.365-.644-1.014-1.024-1.714-1.025Zm21.057 14-.188.334c.08-.14.229-.208.325-.334Z" style="fill:#558b2f"/><path d="M14.049 32c-.957 0-1.842.526-2.326 1.38l-6.35 11.2a2.89 2.89 0 0 0 0 2.84l6.35 11.2A2.68 2.68 0 0 0 14.049 60H26.75c.957 0 1.842-.526 2.326-1.38l6.35-11.2a2.89 2.89 0 0 0 0-2.84l-6.35-11.2A2.68 2.68 0 0 0 26.751 32Z" style="fill:#5d9733"/><path d="M37.849 19c-.957 0-1.842.526-2.326 1.38l-6.35 11.2a2.89 2.89 0 0 0 0 2.84l6.35 11.2A2.68 2.68 0 0 0 37.849 47H50.55c.957 0 1.842-.526 2.326-1.38l6.35-11.2a2.89 2.89 0 0 0 0-2.84l-6.35-11.2A2.68 2.68 0 0 0 50.551 19Z" style="opacity:.2"/><path d="M37.849 18c-.957 0-1.842.526-2.326 1.38l-6.35 11.2a2.89 2.89 0 0 0 0 2.84l6.35 11.2A2.68 2.68 0 0 0 37.849 46H50.55c.957 0 1.842-.526 2.326-1.38l6.35-11.2a2.89 2.89 0 0 0 0-2.84l-6.35-11.2A2.68 2.68 0 0 0 50.551 18Z" style="fill:#7cb342"/><path d="M14.049 5c-.957 0-1.842.526-2.326 1.38l-6.35 11.2a2.89 2.89 0 0 0 0 2.84l6.35 11.2A2.68 2.68 0 0 0 14.049 33H26.75c.957 0 1.842-.526 2.326-1.38l6.35-11.2a2.89 2.89 0 0 0 0-2.84l-6.35-11.2A2.68 2.68 0 0 0 26.751 5Z" style="opacity:.2"/><path d="M14.049 4c-.957 0-1.842.526-2.326 1.38l-6.35 11.2a2.89 2.89 0 0 0 0 2.84l6.35 11.2A2.68 2.68 0 0 0 14.049 32H26.75c.957 0 1.842-.526 2.326-1.38l6.35-11.2a2.89 2.89 0 0 0 0-2.84l-6.35-11.2A2.68 2.68 0 0 0 26.751 4Z" style="fill:#9ccc65"/><path d="M14.047 4c-.957 0-1.84.528-2.324 1.383L5.37 16.582a2.8 2.8 0 0 0-.3 1.9c.052-.31.14-.617.3-.9l6.352-11.2A2.68 2.68 0 0 1 14.046 5H26.75c.956 0 1.843.528 2.328 1.383l6.348 11.199c.162.285.25.594.303.908a2.82 2.82 0 0 0-.303-1.908l-6.348-11.2A2.69 2.69 0 0 0 26.75 4z" style="opacity:.2;fill:#fff"/><path d="M12.545 32.5c-.326.23-.616.517-.822.88l-6.35 11.2a2.87 2.87 0 0 0-.309 1.92 2.9 2.9 0 0 1 .309-.92l6.35-11.2A2.68 2.68 0 0 1 14.049 33c-.55 0-1.064-.19-1.504-.5m15.71 0c-.439.31-.954.5-1.503.5.956 0 1.841.526 2.326 1.38l6.35 11.2c.163.288.252.602.308.92a3 3 0 0 0 .043-.54c-.088-.11-.184-.214-.256-.34l-6.351-11.2a2.9 2.9 0 0 1-.37-1.406 3 3 0 0 0-.546-.514" style="opacity:.1;fill:#fff"/><path d="M37.848 18c-.805 0-1.542.388-2.05 1.016a2.9 2.9 0 0 1-.37 1.404l-6.35 11.2c-.072.126-.169.23-.258.343q-.002.27.043.537a2.9 2.9 0 0 1 .309-.92l6.351-11.2A2.68 2.68 0 0 1 37.848 19H50.55c.956 0 1.841.526 2.326 1.38l6.35 11.2c.163.288.254.602.31.92a2.87 2.87 0 0 0-.31-1.92l-6.35-11.2A2.68 2.68 0 0 0 50.551 18z" style="opacity:.2;fill:#fff"/></svg>