<svg xmlns="http://www.w3.org/2000/svg" xmlns:xlink="http://www.w3.org/1999/xlink" width="64" height="64"><defs><radialGradient xlink:href="#a" id="f" cx="14.463" cy="40.196" r="25" fx="14.463" fy="40.196" gradientTransform="rotate(32.798 49.095 46.402)scale(1.26275 1.43611)" gradientUnits="userSpaceOnUse"/><radialGradient xlink:href="#b" id="j" cx="38.42" cy="39.934" r="7.105" fx="38.42" fy="39.934" gradientTransform="rotate(26.756 40.168 -158.924)scale(3.3321 .53935)" gradientUnits="userSpaceOnUse"/><radialGradient xlink:href="#c" id="k" cx="47.06" cy="47.25" r="4.574" fx="47.06" fy="47.25" gradientTransform="rotate(42.322 193.726 -36.553)scale(2.96609 2.6524)" gradientUnits="userSpaceOnUse"/><radialGradient xlink:href="#d" id="g" cx="2.637" cy="31.312" r="8" fx="2.637" fy="31.312" gradientTransform="rotate(41.246 114.404 55.103)scale(5.2955 3.46253)" gradientUnits="userSpaceOnUse"/><radialGradient xlink:href="#e" id="h" cx="34" cy="29" r="3" fx="34" fy="29" gradientTransform="translate(4.772 6.355)scale(.8485)" gradientUnits="userSpaceOnUse"/><radialGradient xlink:href="#e" id="i" cx="34" cy="29" r="3" fx="34" fy="29" gradientTransform="translate(-5.986 6.119)scale(.8485)" gradientUnits="userSpaceOnUse"/><linearGradient id="e"><stop offset="0" style="stop-color:#1a1a1a;stop-opacity:1"/><stop offset="1" style="stop-color:#000;stop-opacity:1"/></linearGradient><linearGradient id="d"><stop offset="0" style="stop-color:#272727;stop-opacity:1"/><stop offset="1" style="stop-color:#0e0e0e;stop-opacity:1"/></linearGradient><linearGradient id="c"><stop offset="0" style="stop-color:#8a8a8a;stop-opacity:1"/><stop offset="1" style="stop-color:#5b5b5b;stop-opacity:1"/></linearGradient><linearGradient id="b"><stop offset="0" style="stop-color:#ff9a0c;stop-opacity:1"/><stop offset="1" style="stop-color:#ff6b0c;stop-opacity:1"/></linearGradient><linearGradient id="a"><stop offset="0" style="stop-color:#ab6b32;stop-opacity:1"/><stop offset="1" style="stop-color:#dea141;stop-opacity:1"/></linearGradient><filter id="l" width="1.137" height="1.158" x="-.068" y="-.078" style="color-interpolation-filters:sRGB"><feGaussianBlur stdDeviation="1.384"/></filter></defs><path d="M50.76 11.456c-.382-.06-.725.155-.93.4-.207.246-.35.55-.474.933-.215.663-1.005 3.124-3.855 5.557s-7.765 6.457-16.282 6.676c-5.18.06-8.327-3.009-10.393-7.101-.515-1.021-1.326-2.925-1.326-1.714v1.873l-.027 9.69.053.128s.464 1.032-.026 2.422-2.788 3.42-7.109 4.719l-.528.157.1.557c.24 1.35 1.195 2.733 2.606 4.148 1.41 1.416 3.298 2.849 5.497 4.144 4.398 2.59 10.03 4.636 15.503 4.732 5.472.096 10.827-1.82 14.37-7.128s5.27-15.437 3.855-28.63h-.002c-.045-.361-.125-.67-.268-.942-.143-.27-.383-.55-.765-.61z" style="fill:url(#f);fill-rule:evenodd;stroke-width:.848509" transform="translate(-3.274 -5.023)scale(1.10493)"/><path d="M22.59 24.174c-1.47 0-2.947.485-4.07 1.485-1.125 1-1.869 2.522-1.869 4.455s.744 3.454 1.868 4.454 2.601 1.485 4.07 1.485 2.947-.486 4.071-1.485 1.87-2.52 1.87-4.454-.746-3.456-1.87-4.455-2.601-1.485-4.07-1.485" style="fill:#fff;fill-rule:evenodd;stroke-width:.848509" transform="translate(-3.274 -5.023)scale(1.10493)"/><path d="M21.742 41.474c2.328 0 4.45.12 6.374 0 3.198-.2 6.008-.555 7.429-1.668a4.4 4.4 0 0 1-.769-1.65s1.808.751 2.747 1.98c.937 1.227-.33 1.982-.574 3.55-.546-1.377-.887-1.894-1.025-2.441-.991 1.39-2.7 2.387-4.997 2.442-2.445.057-5.558-.912-9.185-2.21z" style="opacity:.944948;fill-rule:evenodd;stroke-width:.848509" transform="translate(-3.274 -5.023)scale(1.10493)"/><path d="M11.53 26.72c-.3 0-.596.017-.883.062-.766.117-1.475.4-2.086.828-2.445 1.713-3.088 5.594-.069 9.66 3.02 4.064 7.015 4.695 9.46 2.982 2.444-1.713 3.09-5.594.07-9.66-1.98-2.667-4.383-3.855-6.491-3.873z" style="fill:url(#g);fill-rule:evenodd;stroke-width:.848509" transform="translate(-3.274 -5.023)scale(1.10493)"/><path d="M32.772 24.174c-1.47 0-2.947.485-4.07 1.485-1.125 1-1.869 2.522-1.869 4.455s.744 3.454 1.868 4.454 2.601 1.485 4.07 1.485 2.947-.486 4.071-1.485 1.87-2.52 1.87-4.454-.746-3.456-1.87-4.455-2.601-1.485-4.07-1.485" style="fill:#fff;fill-rule:evenodd;stroke-width:.848509" transform="translate(-3.274 -5.023)scale(1.10493)"/><path d="M33.621 28.416c-.623 0-1.254.206-1.74.638s-.805 1.097-.805 1.908.32 1.475.805 1.907a2.6 2.6 0 0 0 1.74.638c.624 0 1.255-.206 1.74-.638s.806-1.097.806-1.907c0-.811-.32-1.476-.806-1.908a2.6 2.6 0 0 0-1.74-.638" style="fill:url(#h);fill-opacity:1;fill-rule:evenodd;stroke-width:.848509" transform="translate(-3.274 -5.023)scale(1.10493)"/><path d="M22.863 28.18c-.624 0-1.255.206-1.74.638s-.806 1.097-.806 1.907.32 1.476.806 1.908a2.6 2.6 0 0 0 1.74.638c.624 0 1.254-.206 1.74-.638s.805-1.097.805-1.908-.32-1.475-.805-1.907a2.6 2.6 0 0 0-1.74-.638" style="fill:url(#i);fill-opacity:1;fill-rule:evenodd;stroke-width:.848509" transform="translate(-3.274 -5.023)scale(1.10493)"/><path d="m46.276 48.264 1.026-2.042c-3.815-2.79-10.935-5.622-10.935-5.622l-1.122.617s6.465 5.734 11.031 7.047" style="fill:url(#j);stroke-width:.848509" transform="translate(-3.274 -5.023)scale(1.10493)"/><path d="m46.312 44.5-.535.353c-.495.27-.897.731-1.222 1.264-.373.876-.52 1.424-.457 2.28l.775-.133s4.045 1.16 5.96 1.77l.224-.43.789-1.527-5.534-2.835z" style="fill:url(#k);stroke-width:.848509" transform="translate(-3.274 -5.023)scale(1.10493)"/><path d="M57.38 55.568c-1.36-4.42-1.843-7.93-5.399-7.617-2.864.252-3.065 4.181-.105 5.265a64 64 0 0 1 5.504 2.352" style="fill:#3f3f3f;stroke-width:.848509" transform="translate(-3.274 -5.023)scale(1.10493)"/><g style="mix-blend-mode:normal;filter:url(#l)" transform="translate(55.801 -5.083)scale(1.10493)"><path d="M-2.887 11.445c-.324.004-.609.196-.789.41-.206.246-.348.55-.472.934-.216.663-1.006 3.124-3.856 5.557-2.217 1.892-5.684 4.747-11.125 6.025a5.86 5.86 0 0 1 2.467 1.287c1.124 1 1.869 2.522 1.869 4.455s-.745 3.456-1.87 4.455c-1.123 1-2.602 1.485-4.071 1.485-1.47 0-2.946-.485-4.07-1.485a5.3 5.3 0 0 1-1.02-1.228c-.284.47-.63.88-1.022 1.228-1.124 1-2.6 1.485-4.07 1.485a6.4 6.4 0 0 1-2.559-.524c.137 2.04-.673 3.739-2.078 4.723-1.143.801-2.627 1.09-4.191.754 1.219 1.047 2.677 2.08 4.305 3.039 4.397 2.59 10.03 4.637 15.503 4.732 3.184.056 6.326-.569 9.096-2.146-3.758-2.167-7.42-5.414-7.42-5.414l1.121-.617s4.949 1.968 8.805 4.24a16.3 16.3 0 0 0 2.768-3.192c3.542-5.307 5.27-15.436 3.855-28.628h-.002c-.045-.363-.125-.67-.267-.942-.143-.27-.385-.55-.766-.611v-.01a1 1 0 0 0-.14-.012zm-33.008 4.371c-.07.002-.11.117-.11.391v1.873l-.024 8.844a5.3 5.3 0 0 1 1.043-1.266c1.124-1 2.6-1.484 4.07-1.484s2.946.485 4.07 1.484c.392.348.738.759 1.022 1.229.283-.47.628-.881 1.02-1.229.278-.248.58-.463.896-.648q-.189.007-.38.011c-5.178.061-8.326-3.009-10.392-7.101-.398-.79-.974-2.108-1.215-2.104z" style="opacity:1;fill:none;fill-rule:evenodd;stroke:#000;stroke-width:.235708;stroke-opacity:1"/><path d="M-30.916 24.174c-1.47 0-2.946.485-4.07 1.484-.92.818-1.586 1.988-1.797 3.446.447.433.884.928 1.3 1.49 1.285 1.73 1.907 3.425 2.008 4.935a6.4 6.4 0 0 0 2.559.524c1.47 0 2.946-.485 4.07-1.485a5.3 5.3 0 0 0 1.022-1.228c-.532-.88-.848-1.966-.848-3.227s.316-2.346.848-3.226a5.3 5.3 0 0 0-1.022-1.229c-1.124-1-2.6-1.484-4.07-1.484z" style="opacity:1;fill:none;fill-rule:evenodd;stroke:#000;stroke-width:.235708;stroke-opacity:1"/><path d="M-41.975 26.719q-.45-.002-.882.062c-.766.118-1.475.4-2.086.828-2.445 1.713-3.09 5.596-.07 9.66 3.019 4.066 7.016 4.696 9.46 2.983s3.09-5.593.07-9.658c-1.981-2.668-4.383-3.857-6.492-3.875zm21.241-2.545c-1.47 0-2.946.485-4.07 1.484-1.125 1-1.868 2.522-1.868 4.455s.743 3.456 1.867 4.455 2.601 1.485 4.07 1.485 2.949-.485 4.073-1.485c1.124-.999 1.869-2.522 1.869-4.455s-.745-3.455-1.87-4.455c-1.123-1-2.602-1.484-4.071-1.484z" style="opacity:1;fill:none;fill-rule:evenodd;stroke:#000;stroke-width:.235708;stroke-opacity:1"/><path d="m-17.139 40.6-1.12.617s4.68 4.15 8.888 6.197c.068-.404.207-.797.42-1.297.262-.428.572-.81.941-1.084-3.897-2.352-9.129-4.433-9.129-4.433z" style="opacity:1;fill:none;stroke:#000;stroke-width:.235708;stroke-opacity:1"/><path d="m-7.193 44.5-.536.352c-.495.27-.896.732-1.222 1.265-.373.876-.52 1.424-.455 2.28l.773-.133s2.898.831 4.95 1.457c.21-.836.837-1.534 1.859-1.729l-5.37-2.75z" style="opacity:1;fill:none;stroke:#000;stroke-width:.235708;stroke-opacity:1"/><path d="M-.893 47.938q-.298-.015-.63.013c-2.865.252-3.066 4.182-.106 5.266a64 64 0 0 1 5.504 2.351c-1.275-4.143-1.78-7.486-4.768-7.63Z" style="opacity:1;fill:none;stroke:#000;stroke-width:.235708;stroke-opacity:1"/></g></svg>