<svg xmlns="http://www.w3.org/2000/svg" width="64" height="64"><path d="M32 3c-1.572 0-3.145.586-4.32 1.76L3.76 28.684c-2.349 2.35-2.346 6.281.004 8.63l23.92 23.923c2.35 2.35 6.285 2.353 8.634.004l23.92-23.923c2.35-2.35 2.35-6.284 0-8.634L36.318 4.761C35.143 3.586 33.57 3 31.999 3" style="opacity:.2"/><path d="M32 2c-1.572 0-3.145.586-4.32 1.76L3.76 27.683c-2.349 2.35-2.346 6.281.004 8.63l23.92 23.923c2.35 2.35 6.285 2.353 8.634.004l23.92-23.923c2.35-2.35 2.35-6.284 0-8.634L36.318 3.76C35.143 2.586 33.57 2 31.999 2" style="fill:#c2352a"/><path d="m20.135 11.307-2.828 2.828L26 22.828V44h4V26.828l7.586 7.586 2.828-2.828z" style="fill:#3f3f3f;fill-rule:evenodd"/><path d="M28 17a6 6 0 0 0-6 6 6 6 0 0 0 6 6 6 6 0 0 0 6-6 6 6 0 0 0-6-6m11 11a6 6 0 0 0-6 6 6 6 0 0 0 6 6 6 6 0 0 0 6-6 6 6 0 0 0-6-6M28 38a6 6 0 0 0-6 6 6 6 0 0 0 6 6 6 6 0 0 0 6-6 6 6 0 0 0-6-6" style="opacity:.2"/><path d="M28 16a6 6 0 0 0-6 6 6 6 0 0 0 6 6 6 6 0 0 0 6-6 6 6 0 0 0-6-6m11 11a6 6 0 0 0-6 6 6 6 0 0 0 6 6 6 6 0 0 0 6-6 6 6 0 0 0-6-6M28 37a6 6 0 0 0-6 6 6 6 0 0 0 6 6 6 6 0 0 0 6-6 6 6 0 0 0-6-6" style="fill:#fff"/><path d="M32 2c-1.571 0-3.146.585-4.32 1.76L3.76 27.684c-1.3 1.3-1.876 3.082-1.737 4.814a6.04 6.04 0 0 1 1.737-3.814L27.68 4.76C28.854 3.585 30.429 3 32 3s3.144.585 4.318 1.76l23.92 23.924a6.05 6.05 0 0 1 1.739 3.816c.138-1.733-.44-3.517-1.739-4.816L36.318 3.76C35.144 2.585 33.572 2 32 2" style="fill:#fff;opacity:.2"/></svg>