<svg xmlns="http://www.w3.org/2000/svg" xmlns:xlink="http://www.w3.org/1999/xlink" width="64" height="64"><defs><radialGradient xlink:href="#a" id="b" cx="2.911" cy="49.28" r="27.999" fx="2.911" fy="49.28" gradientTransform="translate(-8.336 -80.142)scale(2.91573)" gradientUnits="userSpaceOnUse"/><linearGradient id="a"><stop offset="0" style="stop-color:#995bff;stop-opacity:1"/><stop offset="1" style="stop-color:#e85fff;stop-opacity:1"/></linearGradient><filter id="c" width="1.183" height="1.183" x="-.092" y="-.092" style="color-interpolation-filters:sRGB"><feGaussianBlur stdDeviation="2.104"/></filter></defs><path d="M58.772 32.003A26.715 26.715 0 0 0 31.998 5.23 26.715 26.715 0 0 0 5.224 32.003a26.715 26.715 0 0 0 26.774 26.774 26.715 26.715 0 0 0 26.774-26.774" style="fill:url(#b);stroke-width:.956243"/><path d="M46.82 18.006c-.737-.035-2.636.174-5.567 1.924-.812.486-2.174.704-3.102.522-1.667-.328-3.47-.456-5.33-.452-1.738.004-3.525.113-5.294.46-.929.181-2.292-.043-3.098-.54-2.824-1.74-4.356-1.947-5.093-1.912a2 2 0 0 0-.422.056c-.874 2.267-.874 4.172-.68 5.465.139.935-.1 2.223-.608 3.021C16.586 28.185 16 30.133 16 32.4c0 9.022 5.116 11.916 10.295 12.953 1.207.242 1.493 1.108 1.139 2.272q-.054.175-.102.36c-.214.822-.91 1.818-1.719 2.076-1.868.595-4.624.834-6.408-2.303 0 0-1.383-2.584-4.014-2.774 0 0-2.557-.033-.177 1.635 0 0 1.718.828 2.91 3.936 0 0 1.52 4.063 7.546 3.364.843-.097 1.518.43 1.521 1.278.005 1.247.009 2.818.013 4.354a28.16 28.16 0 0 0 12.992-.707c.008-2.775.016-6.052.016-8.188 0-1.29-.275-2.352-.67-3.192-.52-1.107-.31-1.885.897-2.129C45.317 44.31 50 41.435 50 32.4c0-2.262-.485-4.208-1.476-5.842-.491-.808-.733-2.097-.595-3.031.192-1.293.19-3.197-.685-5.463 0 0-.138-.045-.422-.058z" style="fill:#fff" transform="translate(1.4 1.429)scale(.95624)"/><path d="M31.967 3.955c-15.563.003-28.092 12.537-28.092 28.1a28.025 28.025 0 0 0 23.004 27.63v.003l.082.013.006.002.035.006.076.014v-.002q.514.091 1.035.164v-.002l.254.031v.002h.002q.486.064.977.111v-.002c.193.019.389.031.584.045.226.016.455.036.687.047q.674.034 1.358.035c.431 0 .86-.014 1.287-.033l.394-.021q.464-.028.924-.07v.001q.191-.015.385-.035v-.002a28 28 0 0 0 1.178-.148v.002h.002l.072-.012q.22-.035.435-.072v-.002a28 28 0 0 0 1.342-.254v-.002l.336-.076.045-.012a28 28 0 0 0 1.496-.389v.004l.129-.039.07-.021a28.03 28.03 0 0 0 20.002-26.916 28.04 28.04 0 0 0-28.1-28.1zm.006.2h.004a27.84 27.84 0 0 1 27.896 27.9c0 12.636-8.323 23.241-19.803 26.697.008-2.743.016-5.945.016-8.043a8.2 8.2 0 0 0-.19-1.787 7 7 0 0 0-.49-1.447c-.254-.541-.319-.986-.195-1.31.124-.326.437-.56 1.021-.679 2.551-.515 5.015-1.496 6.84-3.494a9.5 9.5 0 0 0 1.239-1.695q.275-.476.513-1.006.237-.53.434-1.117.195-.588.348-1.236.15-.649.255-1.362t.159-1.494.054-1.629q0-.427-.023-.84c-.107-1.924-.59-3.61-1.467-5.054a3.7 3.7 0 0 1-.309-.664 5.4 5.4 0 0 1-.305-1.564c-.01-.26 0-.51.034-.735.048-.327.084-.692.098-1.092a11 11 0 0 0-.498-3.582v-.002q-.127-.41-.291-.838l-.018-.045-.045-.016s-.156-.048-.45-.062h-.005a4.6 4.6 0 0 0-.787.041 8 8 0 0 0-1.207.256c-.942.27-2.154.764-3.625 1.642a3.5 3.5 0 0 1-.678.301 5.4 5.4 0 0 1-1.611.27 3.7 3.7 0 0 1-.742-.06c-1.676-.33-3.485-.46-5.35-.456-1.742.004-3.535.115-5.313.463a3.6 3.6 0 0 1-.742.059 5.3 5.3 0 0 1-1.611-.28 3.4 3.4 0 0 1-.674-.308c-2.126-1.31-3.531-1.758-4.422-1.885a4 4 0 0 0-.726-.041 2 2 0 0 0-.448.06l-.046.016-.018.045c-.66 1.713-.828 3.224-.787 4.424.013.4.05.765.1 1.092.033.226.044.475.033.734a5.3 5.3 0 0 1-.307 1.56 3.5 3.5 0 0 1-.318.659c-1.05 1.65-1.641 3.617-1.641 5.902q0 .85.059 1.629.06.78.173 1.492.114.713.278 1.361.165.65.377 1.237t.468 1.119q.257.53.553 1.006a10 10 0 0 0 1.326 1.697c1.946 2.001 4.54 2.99 7.141 3.51.583.117.92.373 1.084.734s.152.844-.021 1.412a9 9 0 0 0-.104.364 3 3 0 0 1-.238.613 3.7 3.7 0 0 1-.383.596c-.293.372-.655.677-1.031.796a7.7 7.7 0 0 1-1.518.329q-.406.043-.824.027a4.7 4.7 0 0 1-.84-.11c-1.12-.252-2.227-.954-3.107-2.501v-.002a6.4 6.4 0 0 0-1.616-1.846 5 5 0 0 0-.703-.455 4.4 4.4 0 0 0-1.775-.523h-.006s-.166-.003-.375.021c-.21.024-.463.07-.658.184a.52.52 0 0 0-.229.24.47.47 0 0 0 .014.367c.055.134.158.279.322.443.164.165.389.35.69.56l.005.005.008.004s.41.195.979.781c.427.44.94 1.096 1.418 2.047q.24.475.463 1.053s.097.26.34.638c.12.19.277.408.476.639.199.23.44.473.729.709 1.152.944 3.071 1.795 6.107 1.443.398-.046.749.055 1 .262s.407.518.408.916l.014 4.225C13.875 57.09 4.074 45.769 4.074 32.055c0-15.458 12.44-27.9 27.899-27.9ZM46.79 18.157h.002c.24.011.32.04.346.047.423 1.111.636 2.134.72 3.037.043.452.052.876.04 1.264a9 9 0 0 1-.094 1.058 4 4 0 0 0-.037.774 5.5 5.5 0 0 0 .316 1.625c.092.254.201.492.328.701q.735 1.211 1.1 2.656v.002q.182.724.273 1.506.09.782.09 1.625 0 .844-.053 1.615-.052.766-.154 1.465l-.002.012v.002l-.002.016a16 16 0 0 1-.252 1.328q-.15.64-.342 1.218-.193.58-.427 1.1t-.504.986-.575.881a9 9 0 0 1-.64.782 9.7 9.7 0 0 1-2.248 1.81 12 12 0 0 1-1.713.828 16.6 16.6 0 0 1-2.77.795 2.5 2.5 0 0 0-.423.121q-.381.151-.586.404a1 1 0 0 0-.16.278c-.154.402-.064.9.203 1.467.194.413.36.88.476 1.404v.002a8 8 0 0 1 .184 1.742c0 2.114-.008 5.35-.016 8.108q-.133.038-.267.074-.541.151-1.092.283a28 28 0 0 1-3.567.621l-.384.035q-.457.041-.916.069l-.391.021q-.636.032-1.28.033c-1.672 0-3.305-.16-4.896-.44l-.014-4.263c-.001-.45-.183-.826-.48-1.07s-.706-.358-1.15-.307c-2.99.347-4.843-.485-5.957-1.398a5.7 5.7 0 0 1-1.16-1.293 3.6 3.6 0 0 1-.325-.61q-.226-.586-.47-1.07c-.488-.97-1.013-1.644-1.454-2.098-.574-.59-1.004-.804-1.023-.814a5 5 0 0 1-.66-.54 1.3 1.3 0 0 1-.28-.374c-.04-.098-.036-.162-.013-.215a.32.32 0 0 1 .142-.146c.147-.086.384-.134.58-.157.193-.022.34-.021.344-.021h.002c.642.046 1.209.24 1.697.504.245.132.47.282.676.44a6.2 6.2 0 0 1 1.559 1.777v.002c.903 1.588 2.067 2.337 3.238 2.601q.44.098.875.115c.29.013.577 0 .856-.029a8 8 0 0 0 1.558-.336c.432-.137.822-.46 1.133-.855a3.8 3.8 0 0 0 .652-1.291q.048-.182.1-.356c.182-.596.204-1.128.012-1.553-.193-.424-.602-.722-1.227-.847-2.578-.516-5.13-1.494-7.037-3.455a9.8 9.8 0 0 1-1.3-1.664q-.291-.467-.544-.989a12 12 0 0 1-.46-1.1 13 13 0 0 1-.372-1.216 15 15 0 0 1-.273-1.344q-.113-.704-.17-1.474a22 22 0 0 1-.059-1.614q0-.421.028-.828c.125-1.898.681-3.552 1.582-4.969.131-.206.245-.442.34-.695a5.4 5.4 0 0 0 .32-1.621c.01-.27-.001-.532-.037-.773a9.3 9.3 0 0 1-.096-1.668c.03-1.053.23-2.304.758-3.694.027-.008.105-.033.346-.045.177-.008.405-.002.69.04.858.122 2.235.559 4.345 1.859.209.129.451.24.713.33s.542.162.826.21c.284.05.572.076.85.079.276.003.542-.02.783-.066 1.76-.345 3.54-.455 5.273-.46 1.855-.004 3.652.126 5.31.452.24.047.507.068.784.066a5.5 5.5 0 0 0 1.672-.277c.261-.089.506-.197.716-.322 2.189-1.307 3.797-1.749 4.764-1.874.322-.041.572-.047.75-.039z" style="color:#000;mix-blend-mode:normal;fill:#000;filter:url(#c);fill-opacity:1;stroke:#000;stroke-opacity:1;stroke-width:.20915186;stroke-dasharray:none" transform="translate(1.4 1.403)scale(.95624)"/></svg>