<svg xmlns="http://www.w3.org/2000/svg" xmlns:xlink="http://www.w3.org/1999/xlink" width="64" height="64"><defs><radialGradient xlink:href="#a" id="d" cx="27.412" cy="44.427" r="23.004" fx="27.412" fy="44.427" gradientTransform="rotate(-30 -202.617 366.82)scale(5.24343 4.4129)" gradientUnits="userSpaceOnUse"/><radialGradient xlink:href="#b" id="c" cx="11.865" cy="17.875" r="32.903" fx="11.865" fy="17.875" gradientTransform="rotate(30 29 11.232)scale(1.88957 1.55162)" gradientUnits="userSpaceOnUse"/><linearGradient id="b"><stop offset="0" style="stop-color:#3e3e3e;stop-opacity:1"/><stop offset="1" style="stop-color:#1e1e1e;stop-opacity:1"/></linearGradient><linearGradient id="a"><stop offset="0" style="stop-color:#41d8ff;stop-opacity:1"/><stop offset="1" style="stop-color:#00ffe7;stop-opacity:1"/></linearGradient><filter id="e" width="1.088" height="1.107" x="-.044" y="-.054" style="color-interpolation-filters:sRGB"><feGaussianBlur stdDeviation="1.053"/></filter><filter id="f" width="1.043" height="1.054" x="-.021" y="-.027" style="color-interpolation-filters:sRGB"><feGaussianBlur stdDeviation=".422"/></filter></defs><path d="M26.378 9.25c-2.815 0-5.418.962-8.094 2.611-1.827 1.126-3.62 2.678-5.01 4.682a4.3 4.3 0 0 0-.725-.172c-3.114 0-4.882 1.799-6.16 3.646s-2.082 4.169-2.09 6.798v.015c.004 12.936 8.334 24.175 20.385 27.622a8.05 8.05 0 0 0 4.117.058c1.914-.467 4.502-.465 6.416 0 1.32.322 2.74.333 4.107-.058 12.051-3.447 20.38-14.686 20.384-27.622v-.015c-.008-2.63-.812-4.952-2.09-6.799s-3.046-3.646-6.16-3.646a4.3 4.3 0 0 0-1.232.62c-.89-1.2-1.842-2.308-2.86-3.206a21.2 21.2 0 0 0-4.804-3.212C40.97 9.806 39.56 9.25 37.63 9.25a4.3 4.3 0 0 0-1.88.906c-1.099-.532-2.349-.906-3.746-.906-1.42 0-2.645.387-3.723.917a4.3 4.3 0 0 0-1.903-.917" style="fill:url(#c);stroke-width:.842011;stroke-linecap:round;stroke-linejoin:round;stroke-miterlimit:6.1"/><path d="M25.167 22.175c-2.79 3.665-4.232 6.625-4.232 8.682 0 1.364.12 1.582 1.301 2.366 2.018 1.83 1.655 3.533 2.13 5.944-.65 0-1.143 1.143-1.143 2.285s.522 2.286 1.142 2.286v.158c-.001 1.203-.86 1.703-1.807.961-3.99-3.124-6.194-8.053-6.194-13.63 0-6.816 3.948-12.147 9.682-14.914-3.378 0-10.1 3.092-12.016 8.454-.709 1.984-1.095 4.137-1.095 6.459 0 8.33 4.34 15.457 11.428 18.699l.33.16q.733.318 1.499.57c.873.29 1.6 1.215 1.6 2.135 0 1.009-.804 1.658-1.771 1.365-9.994-3.02-16.49-12.29-16.516-22.927a24.4 24.4 0 0 1 1.011-6.917c-1.957 0-4.427 3.065-4.44 6.917.006 12.481 7.947 23.107 19.395 26.38 3.097.887 5.748-1.63 5.748-4.858v-4.427a1.157 1.157 135.115 0 1 1.162-1.157h.05a1.16 1.16 45.324 0 1 1.153 1.167l-.032 4.417c-.023 3.227 2.61 5.745 5.706 4.859 11.447-3.275 19.39-13.9 19.394-26.381-.012-3.852-2.482-6.917-4.44-6.917a24.4 24.4 0 0 1 1.012 6.917c-.026 10.636-6.522 19.908-16.516 22.928-.967.292-1.77-.36-1.77-1.37 0-.918.726-1.84 1.6-2.13l.104-.036a18 18 0 0 0 1.724-.695c7.088-3.242 11.427-10.37 11.427-18.7q0-.265-.006-.529c-.224-8.824-9.713-14.383-13.104-14.383 5.734 2.767 9.682 8.098 9.682 14.915 0 6.367-2.873 11.89-8 14.847v-.159c0-1.203.935-2.78 1.1-3.894q.04-.28.041-.57c0-1.142-.493-2.285-1.142-2.285.474-2.411.111-4.114 2.129-5.944 1.18-.784 1.301-1.002 1.301-2.366 0-2.057-1.441-5.017-4.232-8.682-1.813-2.38-3.77-5.863-7.198-5.863s-5.657 3.915-7.198 5.863m2.055 18.135a1.714 1.714 0 1 1 0 3.428 1.714 1.714 0 0 1 0-3.428m10.285 0a1.714 1.714 0 1 1 0 3.428 1.714 1.714 0 0 1 0-3.428" style="fill:url(#d);stroke-width:1.14275" transform="translate(3.278 -.884)scale(.88756)"/><path d="M25.985 7.481c-3.033 0-5.838 1.037-8.722 2.814-1.968 1.213-3.9 2.886-5.397 5.045a4.6 4.6 0 0 0-.782-.186c-3.356 0-5.26 1.939-6.638 3.929-1.377 1.99-2.243 4.492-2.252 7.325v.016c.005 13.94 8.98 26.05 21.966 29.764 1.814.519 3.712.383 5.389-.225 1.488-.54 3.52-.539 5.008 0 1.674.607 3.57.742 5.378.225 12.986-3.714 21.96-15.825 21.965-29.764v-.016c-.01-2.833-.875-5.336-2.253-7.325-1.377-1.99-3.282-3.93-6.638-3.93-.475.15-.923.376-1.327.669-.958-1.294-1.985-2.487-3.082-3.455a22.8 22.8 0 0 0-5.176-3.461C41.708 8.08 40.19 7.48 38.11 7.48c-.745.154-1.44.49-2.026.976-1.184-.572-2.531-.976-4.036-.976-1.531 0-2.85.417-4.012.989a4.6 4.6 0 0 0-2.05-.989" style="mix-blend-mode:normal;fill:none;stroke:#000;stroke-width:.2;stroke-linecap:round;stroke-linejoin:round;stroke-miterlimit:6.1;stroke-dasharray:none;stroke-opacity:.997776;filter:url(#e)" transform="translate(2.306 2.302)scale(.92805)"/><path d="M25.167 22.175c-2.79 3.665-4.232 6.625-4.232 8.682 0 1.364.12 1.582 1.301 2.366 2.018 1.83 1.655 3.533 2.13 5.944-.65 0-1.143 1.143-1.143 2.285s.522 2.286 1.142 2.286v.158c-.001 1.203-.86 1.703-1.807.961-3.99-3.124-6.194-8.053-6.194-13.63 0-6.816 3.948-12.147 9.682-14.914-3.378 0-10.1 3.092-12.016 8.454-.709 1.984-1.095 4.137-1.095 6.459 0 8.33 4.34 15.457 11.428 18.699l.33.16q.733.318 1.499.57c.873.29 1.6 1.215 1.6 2.135 0 1.009-.804 1.658-1.771 1.365-9.994-3.02-16.49-12.29-16.516-22.927a24.4 24.4 0 0 1 1.011-6.917c-1.957 0-4.427 3.065-4.44 6.917.006 12.481 7.947 23.107 19.395 26.38 3.097.887 5.748-1.63 5.748-4.858v-4.427a1.157 1.157 135.115 0 1 1.162-1.157h.05a1.16 1.16 45.324 0 1 1.153 1.167l-.032 4.417c-.023 3.227 2.61 5.745 5.706 4.859 11.447-3.275 19.39-13.9 19.394-26.381-.012-3.852-2.482-6.917-4.44-6.917a24.4 24.4 0 0 1 1.012 6.917c-.026 10.636-6.522 19.908-16.516 22.928-.967.292-1.77-.36-1.77-1.37 0-.918.726-1.84 1.6-2.13l.104-.036a18 18 0 0 0 1.724-.695c7.088-3.242 11.427-10.37 11.427-18.7q0-.265-.006-.529c-.224-8.824-9.713-14.383-13.104-14.383 5.734 2.767 9.682 8.098 9.682 14.915 0 6.367-2.873 11.89-8 14.847v-.159c0-1.203.935-2.78 1.1-3.894q.04-.28.041-.57c0-1.142-.493-2.285-1.142-2.285.474-2.411.111-4.114 2.129-5.944 1.18-.784 1.301-1.002 1.301-2.366 0-2.057-1.441-5.017-4.232-8.682-1.813-2.38-3.77-5.863-7.198-5.863s-5.657 3.915-7.198 5.863zm2.055 18.135a1.714 1.714 0 1 1 0 3.428 1.714 1.714 0 0 1 0-3.428zm10.285 0a1.714 1.714 0 1 1 0 3.428 1.714 1.714 0 0 1 0-3.428z" style="mix-blend-mode:normal;fill:none;stroke:#00fffa;stroke-width:.208448;stroke-miterlimit:4.6;stroke-dasharray:none;stroke-opacity:.99777597;filter:url(#f)" transform="translate(3.215 -.996)scale(.89043)"/></svg>