<svg xmlns="http://www.w3.org/2000/svg" width="64" height="64"><circle cx="32" cy="33" r="28" style="opacity:.2"/><circle cx="32" cy="32" r="28" style="fill:#22557b"/><path d="M30 17a2 2 0 0 0-1.414.586l-12 12a2 2 0 0 0-.246 2.23 2 2 0 0 0-.055.211l5.2 8.664-10.528 10.621a2 2 0 0 0 .012 2.828 2 2 0 0 0 2.828-.012l11.14-11.23 15.313-1.914a2 2 0 0 0 1.098-.57h.066l10-10a2 2 0 0 0 0-2.828 2 2 0 0 0-2.828 0L39.07 37.1l-14.027 1.754-4.527-7.543 10.898-10.898a2 2 0 0 0 0-2.828A2 2 0 0 0 30 17" style="opacity:.2"/><path d="m40 38-16 2m-6-10 6 10m16-2 10-10m-32 2 12-12M12.377 51.722 24 40" style="fill:none;stroke:#f37c0a;stroke-width:4;stroke-linecap:round;stroke-linejoin:round"/><path d="M11.995 45a1.06 1.06 0 0 0-.956.607L9.136 49.67l-4.24.653a1.056 1.056 0 0 0-.596 1.781l3.104 3.172-.732 4.5a1.056 1.056 0 0 0 1.555 1.091l3.778-2.093 3.784 2.086a1.056 1.056 0 0 0 1.552-1.094l-.737-4.498 3.096-3.18a1.056 1.056 0 0 0-.599-1.78l-4.239-.644-1.911-4.057a1.06 1.06 0 0 0-.956-.607" style="opacity:.2"/><path d="M11.995 44a1.06 1.06 0 0 0-.956.607l-1.903 4.062-4.24.654a1.056 1.056 0 0 0-.596 1.781l3.104 3.172-.732 4.5a1.056 1.056 0 0 0 1.555 1.091l3.778-2.094 3.784 2.086a1.056 1.056 0 0 0 1.552-1.093l-.737-4.498 3.096-3.18a1.056 1.056 0 0 0-.599-1.78l-4.239-.644-1.911-4.057a1.06 1.06 0 0 0-.956-.607" style="fill:#ffc708"/><circle cx="24" cy="41" r="4" style="opacity:.2"/><circle cx="24" cy="40" r="4" style="fill:#f59d14"/><circle cx="18" cy="31" r="4" style="opacity:.2"/><circle cx="18" cy="30" r="4" style="fill:#f59d14"/><circle cx="40" cy="39" r="4" style="opacity:.2"/><circle cx="40" cy="38" r="4" style="fill:#f59d14"/><path d="M32 4A28 28 0 0 0 4 32a28 28 0 0 0 .033.482A28 28 0 0 1 32 5a28 28 0 0 1 27.982 27.242L60 32A28 28 0 0 0 32 4" style="opacity:.1;fill:#fff"/><path d="M24 36a4 4 0 0 0-4 4 4 4 0 0 0 .035.492A4 4 0 0 1 24 37a4 4 0 0 1 3.965 3.486A4 4 0 0 0 28 40a4 4 0 0 0-4-4m-6-10a4 4 0 0 0-4 4 4 4 0 0 0 .035.492A4 4 0 0 1 18 27a4 4 0 0 1 3.965 3.486A4 4 0 0 0 22 30a4 4 0 0 0-4-4m22 8a4 4 0 0 0-4 4 4 4 0 0 0 .035.492A4 4 0 0 1 40 35a4 4 0 0 1 3.965 3.486A4 4 0 0 0 44 38a4 4 0 0 0-4-4" style="opacity:.2;fill:#fff"/><path d="M11.994 44a1.06 1.06 0 0 0-.955.607L9.137 48.67l-4.24.652a1.056 1.056 0 0 0-.754 1.55 1.06 1.06 0 0 1 .753-.55l4.24-.652 1.903-4.063a1.06 1.06 0 0 1 .955-.607 1.06 1.06 0 0 1 .957.607l1.91 4.057 4.24.643a1.06 1.06 0 0 1 .768.543 1.056 1.056 0 0 0-.767-1.543l-4.24-.643-1.91-4.057a1.06 1.06 0 0 0-.958-.607m4.75 11.123-.14.145.667 4.064a1.06 1.06 0 0 0 .07-.566zm-9.478.01-.594 3.642a1.06 1.06 0 0 0 .074.541l.658-4.04z" style="fill:#fff;opacity:.2"/></svg>