<svg xmlns="http://www.w3.org/2000/svg" width="64" height="64"><path d="M11 56v2c0 1.662 1.338 3 3 3h38c1.662 0 3-1.338 3-3v-2c0 1.662-1.338 3-3 3H14c-1.662 0-3-1.338-3-3" style="opacity:.2"/><path d="M55 57V7c0-1.662-1.338-3-3-3H14c-1.662 0-3 1.338-3 3v50c0 1.662 1.338 3 3 3h38c1.662 0 3-1.338 3-3" style="fill:#e4e4e4"/><path d="M14 4c-1.662 0-3 1.338-3 3v1c0-1.662 1.338-3 3-3h38c1.662 0 3 1.338 3 3V7c0-1.662-1.338-3-3-3z" style="opacity:.1;fill:#fff"/><path d="M5 9v44c0 4 4 4 4 4h52zm10 21.742L33.964 47H15z" style="opacity:.2"/><path d="M5 8v44c0 4 4 4 4 4h52zm10 21.742L33.964 46H15z" style="fill:#689f38"/></svg>