<svg xmlns="http://www.w3.org/2000/svg" width="64" height="64"><defs><filter id="a" width="1.208" height="1.278" x="-.104" y="-.139" style="color-interpolation-filters:sRGB"><feGaussianBlur stdDeviation="2.234"/></filter></defs><path d="M11.426 12.16c-3.335-.143-6.172 3.128-5.908 6.399l-.002.054v26.19a7.29 7.29 0 0 0 7.295 6.94 4.064 4.064 0 0 0 4.064-4.063V29.26l-.018-.014V15.051l-2.033-1.487c-1.123-.93-2.288-1.356-3.398-1.404" style="mix-blend-mode:normal;fill:#008cff;fill-opacity:1;stroke-width:.946537"/><path d="M52.582 12.143c-1.11.047-2.275.474-3.398 1.404l-2.034 1.486-14.482 10.574a1.125 1.125 0 0 1-1.326 0l-14.48-10.574v.01l-2.032-1.484c-1.124-.93-2.286-1.357-3.396-1.405-4.81-.206-8.593 6.695-3.51 10.446l8.941 6.662v-.01l8.455 6.3a11.19 11.19 0 0 0 13.371 0l8.46-6.302 8.939-6.662c5.083-3.751 1.303-10.651-3.508-10.445" style="mix-blend-mode:hard-light;fill:#ea4335;stroke-width:.946537"/><path d="M52.602 12.167c-1.11.048-2.275.476-3.398 1.406L47.17 15.06 32.69 25.634a1.125 1.125 0 0 1-1.328 0L16.882 15.06v.01l-2.03-1.485c-1.124-.93-2.288-1.357-3.398-1.404-3.319-.142-6.146 3.097-5.912 6.351l-.006.106v26.191a7.29 7.29 0 0 0 7.295 6.94 4.064 4.064 0 0 0 4.064-4.065v-18.42l8.445 6.295a11.19 11.19 0 0 0 13.371 0l8.391-6.254v18.37a4.064 4.064 0 0 0 4.063 4.064 7.29 7.29 0 0 0 7.295-6.94V18.98c.552-3.4-2.383-6.96-5.858-6.812z" style="fill:none;stroke-width:.30000001;stroke:#000;stroke-opacity:1;stroke-dasharray:none;filter:url(#a)"/><path d="M52.574 12.148c-1.11.048-2.275.475-3.398 1.405l-2.033 1.486v14.166l-.061.045v18.42a4.064 4.064 0 0 0 4.063 4.062c3.926 0 7.1-3.061 7.294-6.937V18.918c.523-3.39-2.404-6.918-5.865-6.77" style="mix-blend-mode:color-dodge;fill:#34a853;stroke-width:.946537"/></svg>