<svg xmlns="http://www.w3.org/2000/svg" width="64" height="64"><defs><filter id="a" width="1.208" height="1.278" x="-.104" y="-.139" style="color-interpolation-filters:sRGB"><feGaussianBlur stdDeviation="2.234"/></filter></defs><path d="M11.427 12.178c-4.811-.206-8.593 6.694-3.51 10.445l8.937 6.66v.002l8.46 6.305a11.19 11.19 0 0 0 13.37 0l8.46-6.305v.014l8.939-6.662c5.083-3.751 1.302-10.651-3.508-10.445-1.11.047-2.275.474-3.399 1.404l-2.033 1.486v-.012L32.661 25.645a1.125 1.125 0 0 1-1.326 0L16.858 15.072v-.002l-2.035-1.486c-1.124-.93-2.286-1.359-3.397-1.406" style="mix-blend-mode:normal;fill:#949494;fill-opacity:1;stroke-width:.946537"/><path d="M52.575 12.201c-1.11.048-2.275.477-3.399 1.407l-2.033 1.486-14.48 10.574a1.125 1.125 0 0 1-1.329 0l-14.48-10.574v.01l-2.03-1.485c-1.123-.93-2.288-1.356-3.398-1.404-3.318-.142-6.145 3.097-5.912 6.352l-.006.105v26.192a7.29 7.29 0 0 0 7.295 6.94 4.064 4.064 0 0 0 4.065-4.065v-18.42l8.445 6.295a11.19 11.19 0 0 0 13.37 0l8.392-6.254v18.369a4.064 4.064 0 0 0 4.062 4.064 7.29 7.29 0 0 0 7.295-6.94V19.015c.552-3.402-2.383-6.961-5.857-6.813z" style="fill:none;stroke:#000;stroke-width:.3;stroke-dasharray:none;stroke-opacity:1;filter:url(#a)"/><path d="M52.503 12.147c3.297-.14 6.109 3.056 5.916 6.29l.002-.012.01-.01.01.187v26.192a7.29 7.29 0 0 1-7.295 6.94 4.064 4.064 0 0 1-4.065-4.065v-18.42l8.941-6.662q.114-.085.221-.172a7 7 0 0 0 .97-.951q.083-.1.159-.201a5 5 0 0 0-.158.2 6 6 0 0 1-.752.768 7 7 0 0 1-.451.362l-8.93 6.656-.01.006V15.038l2.033-1.486c1.124-.93 2.289-1.357 3.399-1.405m5.863 6.782c-.01.07-.027.139-.04.209.013-.07.03-.14.04-.21m-.111.52-.057.193q.03-.097.057-.194m-.156.486q-.044.117-.092.234.048-.117.092-.234" style="mix-blend-mode:exclusion;fill:#aaa;fill-opacity:1;stroke-width:.946537" transform="matrix(-1 0 0 1 63.929 .034)"/><path d="M11.354 12.16c1.11.047 2.275.475 3.399 1.405l2.033 1.487v14.14l.09.067v18.42a4.064 4.064 0 0 1-4.065 4.064 7.29 7.29 0 0 1-7.295-6.94V19.072c-.626-3.431 2.33-7.062 5.838-6.912" style="mix-blend-mode:exclusion;fill:#595959;fill-opacity:1;stroke-width:.946537" transform="matrix(-1 0 0 1 63.929 .034)"/></svg>