<svg xmlns="http://www.w3.org/2000/svg" width="64" height="64"><rect width="33" height="56" x="15" y="5" rx="3" ry="3" style="opacity:.2"/><rect width="33" height="56" x="15" y="4" rx="3" ry="3" style="fill:#3f3f3f"/><circle cx="31.5" cy="46.5" r="11.5" style="opacity:.2"/><circle cx="31.5" cy="45.5" r="11.5" style="fill:#4f4f4f"/><circle cx="31.5" cy="45.5" r="8.5" style="fill:#0f92db"/><circle cx="31.5" cy="45.5" r="6.5" style="fill:#4f4f4f"/><rect width="27" height="23" x="18" y="8" rx="3" ry="3" style="fill:#0f92db"/><path d="M31.5 34A11.5 11.5 0 0 0 20 45.5a12 12 0 0 0 .021.578A11.5 11.5 0 0 1 31.5 35a11.5 11.5 0 0 1 11.479 10.922A12 12 0 0 0 43 45.5 11.5 11.5 0 0 0 31.5 34" style="opacity:.2;fill:#fff"/><path d="M18 4c-1.662 0-3 1.338-3 3v1c0-1.662 1.338-3 3-3h27c1.662 0 3 1.338 3 3V7c0-1.662-1.338-3-3-3z" style="opacity:.1;fill:#fff"/><path d="M21 8c-1.662 0-3 1.338-3 3v1c0-1.662 1.338-3 3-3h21c1.662 0 3 1.338 3 3v-1c0-1.662-1.338-3-3-3z" style="opacity:.2"/></svg>