<svg xmlns="http://www.w3.org/2000/svg" width="64" height="64"><path d="M26 14a10 10 0 0 0-10 10v6h-2A10 10 0 0 0 4 40v2a10 10 0 0 0 10 10h36a10 10 0 0 0 10-10V30a10 10 0 0 0-10-10h-.84A10 10 0 0 0 40 14Z" style="opacity:.2"/><path d="M26 13a10 10 0 0 0-10 10v6h-2A10 10 0 0 0 4 39v2a10 10 0 0 0 10 10h36a10 10 0 0 0 10-10V29a10 10 0 0 0-10-10h-.84A10 10 0 0 0 40 13Z" style="fill:#e4e4e4"/><path d="M25 22v10h22v6H13v4h38V28H29v-2h12v-4z" style="fill:#ee8827"/><path d="M26 13a10 10 0 0 0-10 10v1a10 10 0 0 1 10-10h14a10 10 0 0 1 9.16 6H50a10 10 0 0 1 10 10v-1a10 10 0 0 0-10-10h-.84A10 10 0 0 0 40 13zM14 29A10 10 0 0 0 4 39v1a10 10 0 0 1 10-10h2v-1z" style="opacity:.2;fill:#fff"/></svg>