<svg xmlns="http://www.w3.org/2000/svg" width="64" height="64"><circle cx="32" cy="33" r="28" style="opacity:.2"/><circle cx="32" cy="32" r="28" style="fill:#35454c"/><path d="M47.057 19.002a1.5 1.5 0 0 0-1.045.369l-7.219 6.316A9.95 9.95 0 0 0 32 23c-5.505 0-10 4.495-10 10a9.9 9.9 0 0 0 1.336 4.963L17.02 43.49l-4.51-4.1a1.5 1.5 0 1 0-2.02 2.22l5.5 5a1.5 1.5 0 0 0 1.998.019l7.219-6.317A9.95 9.95 0 0 0 32 43c5.505 0 10-4.495 10-10a9.9 9.9 0 0 0-1.336-4.963l6.316-5.528 4.51 4.1a1.5 1.5 0 1 0 2.02-2.219l-5.5-5a1.5 1.5 0 0 0-.953-.388M32 26c3.884 0 7 3.116 7 7s-3.116 7-7 7-7-3.116-7-7 3.116-7 7-7" style="opacity:.2"/><path d="m25 37.5-8 7-5.5-5" style="fill:none;stroke:#16a085;stroke-width:3;stroke-linecap:round;stroke-linejoin:round"/><path d="M40.5 32a8.5 8.5 0 0 1-8.5 8.5 8.5 8.5 0 0 1-8.5-8.5 8.5 8.5 0 0 1 8.5-8.5 8.5 8.5 0 0 1 8.5 8.5" style="fill:none;stroke:#16a085;stroke-width:2.99952316;stroke-linecap:round;stroke-linejoin:round"/><path d="m39 26.5 8-7 5.5 5" style="fill:none;stroke:#16a085;stroke-width:3;stroke-linecap:round;stroke-linejoin:round"/><path d="M47.057 18.002a1.5 1.5 0 0 0-1.045.37l-7.219 6.316A9.95 9.95 0 0 0 32 22c-5.505 0-10 4.495-10 10 0 .147.023.288.03.434C22.326 27.19 26.685 23 32 23a9.95 9.95 0 0 1 6.793 2.688l7.219-6.317a1.5 1.5 0 0 1 1.045-.369 1.5 1.5 0 0 1 .953.389l5.5 5a1.5 1.5 0 0 1 .41.617 1.5 1.5 0 0 0-.41-1.617l-5.5-5a1.5 1.5 0 0 0-.953-.389m-6.047 9.732-.346.303a9.9 9.9 0 0 1 1.307 4.53c.01-.19.029-.376.029-.567a9.86 9.86 0 0 0-.99-4.266M25.025 32.5c-.011.166-.025.331-.025.5 0 3.884 3.116 7 7 7s7-3.116 7-7c0-.169-.014-.334-.025-.5A6.97 6.97 0 0 1 32 39a6.97 6.97 0 0 1-6.975-6.5m-2.035 4.766-5.97 5.224-4.51-4.1a1.5 1.5 0 0 0-2.43 1.602 1.5 1.5 0 0 1 2.43-.601l4.51 4.1 6.316-5.528c-.13-.224-.234-.463-.346-.697" style="opacity:.2;fill:#fff"/><path d="M32 4A28 28 0 0 0 4 32a28 28 0 0 0 .021.586A28 28 0 0 1 32 5a28 28 0 0 1 27.979 27.414L60 32A28 28 0 0 0 32 4" style="fill:#fff;opacity:.1"/></svg>