<svg xmlns="http://www.w3.org/2000/svg" width="64" height="64"><path d="M8.2 5A4.19 4.19 0 0 0 4 9.2v47.6A4.19 4.19 0 0 0 8.2 61h47.6a4.19 4.19 0 0 0 4.2-4.2V9.2A4.19 4.19 0 0 0 55.8 5H32Z" style="opacity:.2"/><path d="M55.8 4A4.19 4.19 0 0 1 60 8.2V32H32V4Z" style="fill:#e4e4e4"/><path d="M8.2 60A4.19 4.19 0 0 1 4 55.8V32h28v28z" style="fill:#2ec27e"/><path d="M55.8 60a4.19 4.19 0 0 0 4.2-4.2V32H32v28z" style="fill:#3584e4"/><path d="M8.2 4A4.19 4.19 0 0 0 4 8.2V32h28V4Z" style="fill:#ff7800"/><path d="M17.164 11c-1.837 0-3.608.477-5.164 1.363l.844 2.977c1.426-.682 2.505-.977 3.543-.977 1.707 0 2.68.795 2.68 2.227 0 1.818-2.074 3.843-7.067 7.933V27h12v-4h-5.668c2.94-2.205 4.406-4.16 4.406-6.934 0-3.181-1.943-5.066-5.574-5.066M19 39l-8 10.023V53h8v3h4v-3h3v-3.977h-3V39Zm27.098 0c-3.417 0-5.688 1.904-5.688 4.75 0 1.725.842 2.756 1.988 3.473-1.535.672-2.398 1.882-2.398 3.406C40 53.25 42.378 55 45.945 55 49.578 55 52 53.073 52 50.16c0-2.04-1.297-3.094-2.832-3.789 1.513-.807 2.336-2.015 2.336-3.45 0-2.352-2.185-3.921-5.406-3.921m-.082 3.08c1.197 0 1.984.606 1.984 1.557 0 .95-.66 1.718-1.68 1.982-1.325-.502-2.32-1.029-2.32-2.006 0-.924.793-1.533 2.016-1.533M19 43.715V49l-4.203-.023zm26.04 4.799c1.696.563 3.214.985 3.214 2.088 0 .82-.861 1.382-2.106 1.382-1.448 0-2.4-.727-2.4-1.806 0-.774.476-1.383 1.291-1.664" style="opacity:.2"/><path d="M17.164 10c-1.837 0-3.608.477-5.164 1.363l.844 2.977c1.426-.682 2.505-.977 3.543-.977 1.707 0 2.68.795 2.68 2.227 0 1.818-2.074 3.843-7.067 7.933V26h12v-4h-5.668c2.94-2.205 4.406-4.16 4.406-6.934 0-3.181-1.943-5.066-5.574-5.066M19 38l-8 10.023V52h8v3h4v-3h3v-3.977h-3V38zm27.098 0c-3.417 0-5.688 1.904-5.688 4.75 0 1.725.842 2.756 1.988 3.473-1.535.672-2.398 1.882-2.398 3.406C40 52.25 42.378 54 45.945 54 49.578 54 52 52.073 52 49.16c0-2.04-1.297-3.094-2.832-3.789 1.513-.807 2.336-2.015 2.336-3.45 0-2.352-2.185-3.921-5.406-3.921m-.082 3.08c1.197 0 1.984.606 1.984 1.557 0 .95-.66 1.718-1.68 1.982-1.325-.502-2.32-1.029-2.32-2.006 0-.924.793-1.533 2.016-1.533M19 42.715V48l-4.203-.023zm26.04 4.799c1.696.563 3.214.985 3.214 2.088 0 .82-.861 1.382-2.106 1.382-1.448 0-2.4-.727-2.4-1.806 0-.774.476-1.383 1.291-1.664" style="fill:#fff"/><path d="M4 32h56v1H4z" style="opacity:.1"/><path d="M8.2 4A4.19 4.19 0 0 0 4 8.2v1A4.19 4.19 0 0 1 8.2 5h47.6A4.19 4.19 0 0 1 60 9.2v-1A4.19 4.19 0 0 0 55.8 4z" style="opacity:.2;fill:#fff"/></svg>