<svg xmlns="http://www.w3.org/2000/svg" width="64" height="64"><path d="M14.361 13C11.946 13 10 14.905 10 17.271V56.73c0 2.365 1.946 4.27 4.361 4.27H49.64c2.414 0 4.36-1.905 4.36-4.271V17.27c0-2.365-1.946-4.27-4.361-4.27H32Z" style="opacity:.2"/><path d="M32 3a6 6 0 0 0-6 6 6 6 0 0 0 6 6 6 6 0 0 0 6-6 6 6 0 0 0-6-6m0 3a3 3 0 0 1 3 3 3 3 0 0 1-3 3 3 3 0 0 1-3-3 3 3 0 0 1 3-3" style="fill:#989898"/><path d="M14.361 12C11.946 12 10 13.905 10 16.271V55.73c0 2.365 1.946 4.27 4.361 4.27H49.64c2.414 0 4.36-1.905 4.36-4.271V16.27c0-2.365-1.946-4.27-4.361-4.27H14.36" style="fill:#c48f61"/><path d="M14.361 12C11.946 12 10 13.905 10 16.271v1C10 14.905 11.946 13 14.361 13H49.64c2.414 0 4.36 1.905 4.36 4.271v-1C54 13.905 52.054 12 49.639 12H14.36" style="opacity:.1;fill:#fff"/><path d="M14 15h36v41H14z" style="fill:#fff"/><path d="M22.834 9C21.818 9 21 9.89 21 10.998V16h22v-5.002C43 9.89 42.182 9 41.166 9H35a3 3 0 0 1-3 3 3 3 0 0 1-3-3z" style="fill:#989898"/><path d="m20.023 36.037 2.896 2.173L27 33.083" style="fill:none;stroke:#5f5f5f;stroke-width:4;stroke-linecap:round"/><path d="M34.028 24h10.863" style="fill:none;stroke:#c8c8c8;stroke-width:4;stroke-linecap:round"/><path d="m20.023 23.962 2.896 2.173L27 21.008m-6.977 28.004 2.896 2.173L27 46.058" style="fill:none;stroke:#5f5f5f;stroke-width:4;stroke-linecap:round"/><path d="M34.028 36h10.863M34.028 48h10.863" style="fill:none;stroke:#c8c8c8;stroke-width:4;stroke-linecap:round"/><path d="M14 56h36v1H14z" style="opacity:.2"/><path d="M32 3a6 6 0 0 0-6 6h-3.166C21.818 9 21 9.89 21 10.998v1C21 10.89 21.818 10 22.834 10H26a6 6 0 0 1 6-6 6 6 0 0 1 6 6h3.166c1.016 0 1.834.89 1.834 1.998v-1C43 9.89 42.182 9 41.166 9H38a6 6 0 0 0-6-6m2.957 6.486A3 3 0 0 1 32 12a3 3 0 0 1-2.957-2.486A3 3 0 0 0 29 10a3 3 0 0 0 3 3 3 3 0 0 0 3-3 3 3 0 0 0-.043-.514" style="opacity:.1;fill:#fff"/></svg>