<svg xmlns="http://www.w3.org/2000/svg" width="64" height="64"><path d="M4.05 32c-.011.334-.05.662-.05 1 0 15.512 12.488 28 28 28s28-12.488 28-28c0-.338-.039-.665-.05-1C59.42 47.042 47.172 59 32 59 16.824 59 4.576 47.042 4.05 32" style="opacity:.2"/><rect width="56" height="56" x="4" y="4" rx="28" ry="28" style="fill:#e97d10"/><rect width="44" height="44" x="-55" y="-54" rx="22" ry="22" style="opacity:.2" transform="rotate(90)scale(-1 1)"/><path d="M32 10c-6.094 0-11.578 2.469-15.555 6.445a21.9 21.9 0 0 0-6.448 15.552c0 12.188 9.812 22 22 22v-22L47.55 16.442A21.88 21.88 0 0 0 32 9.993z" style="fill:#ebebeb"/><path d="M47.552 16.449 32 32v22c12.188 0 22-9.812 22-22 0-6.094-2.469-11.578-6.445-15.555Z" style="fill:#c4c4c4"/><path d="M47.124 15.885 31.008 31.011l1.976 1.977 15.127-16.116z" style="fill:#5e5e5e"/><path d="M32 32v22" style="fill:none;stroke:#f34235;stroke-width:1.37600005"/><path d="m21.502 20.498-.988.988 10.498 11.502 1.976-1.976z" style="fill:#3f3f3f"/><circle cx="32" cy="32" r="1.376" style="fill:#3f3f3f"/></svg>