<svg xmlns="http://www.w3.org/2000/svg" width="64" height="64"><path d="M4 55v2c0 1.662 1.338 3 3 3h50c1.662 0 3-1.338 3-3v-2c0 1.662-1.338 3-3 3H7c-1.662 0-3-1.338-3-3" style="opacity:.2"/><rect width="56" height="56" x="-59" y="-60" rx="3" ry="3" style="fill:#7b5ab7" transform="rotate(90)scale(-1 1)"/><path d="M7 3C5.338 3 4 4.338 4 6v1c0-1.662 1.338-3 3-3h50c1.662 0 3 1.338 3 3V6c0-1.662-1.338-3-3-3z" style="opacity:.1;fill:#fff"/><path d="m16 12-2 8v30h8v4h4l4-4h6l14-14V12zm4 2h28v21l-5 5H32l-6 6v-6h-6zm8 6v12h4V20zm10 0v12h4V20z" style="opacity:.2;fill-rule:evenodd"/><path d="m16 11-2 8v30h8v4h4l4-4h6l14-14V11zm4 2h28v21l-5 5H32l-6 6v-6h-6zm8 6v12h4V19zm10 0v12h4V19z" style="fill:#fff;fill-rule:evenodd"/></svg>