<svg xmlns="http://www.w3.org/2000/svg" width="64" height="64"><rect width="54" height="54" x="5" y="6" rx="2.7" ry="2.7" style="opacity:.2"/><rect width="54" height="54" x="5" y="5" rx="2.7" ry="2.7" style="fill:#e4e4e4"/><path d="M21 5v16H5v2h16v18H5v2h16v16h2V43h18v16h2V43h16v-2H43V23h16v-2H43V5h-2v16H23V5Z" style="fill:#3587e9"/><path d="M51.484 8c-.382 0-.877.036-1.355.105-.478.07-.941.17-1.25.31a7 7 0 0 0-1.617.98l.793.976q.692-.531 1.351-.832c.439-.199 1.483-.297 2.078-.297q.472 0 .856.13.384.129.68.386.59.495.59 1.472 0 .813-.32 1.477-.322.661-.962 1.355-.623.699-1.516 1.594L47.13 18.79V20h7.957v-1.324H49v-.07l3.043-2.434A24 24 0 0 0 53.66 14.5a7.2 7.2 0 0 0 1.078-1.61q.39-.812.39-1.742 0-.729-.245-1.304a2.7 2.7 0 0 0-.735-.996 3 3 0 0 0-.535-.371 3.5 3.5 0 0 0-.617-.266h-.004a4.3 4.3 0 0 0-.707-.156 6 6 0 0 0-.8-.055M32.758 26c-.953 0-2.117.138-2.871.418-.742.28-1.368.615-1.871.996l.875 1.14q.795-.495 1.609-.82c.543-.216 1.51-.32 2.277-.32q1.192-.001 1.887.55.695.536.695 1.528 0 1.163-.914 1.867c-.595.47-1.788.86-2.953.86H31v1.277h.473q1.886.001 2.918.574c.701.37 1.054.976 1.054 1.828q0 1.26-.855 1.985-.834.704-2.738.703-.955.001-1.989-.227a8.6 8.6 0 0 1-1.925-.668v1.563q.874.42 1.828.574.95.172 2.062.172 1.887 0 3.078-.516 1.212-.514 1.79-1.43.574-.915.574-2.116 0-1.353-.852-2.192-.835-.84-2.523-1.031v-.078c.887-.178 1.907-.533 2.437-1.067q.815-.82.816-2.195 0-1.469-1.093-2.422Q34.982 26 32.758 26M12.832 46q-1.176 0-2.062.477a3.3 3.3 0 0 0-1.34 1.355q-.479.882-.48 2.105.001 1.683.956 2.614.97.916 2.535.918 1.107 0 1.805-.39.698-.41 1.09-.966h.098a9.4 9.4 0 0 1-.235 1.817 4.4 4.4 0 0 1-.66 1.504q-.461.636-1.246 1.011-.765.376-1.957.375a4.9 4.9 0 0 1-1.5-.215v1.23a3.5 3.5 0 0 0 .73.114q.463.05.805.051 1.719.001 2.809-.586c.737-.392 1.302-.92 1.699-1.574a6.3 6.3 0 0 0 .832-2.203q.24-1.229.242-2.489-.001-1.747-.547-2.875c-.363-.763-.852-1.328-1.476-1.699A3.95 3.95 0 0 0 12.832 46m0 1.21q.869 0 1.45.458.578.458.866 1.145.288.686.286 1.39.002.523-.336 1.012-.323.492-.918.82c-.397.207-.87.305-1.414.305-.795 0-1.388-.208-1.774-.633q-.56-.654-.558-1.781 0-1.373.664-2.043.68-.671 1.734-.672" style="opacity:.1"/><path d="M51.484 7a10 10 0 0 0-1.356.104c-.478.069-.94.173-1.249.311a7 7 0 0 0-1.617.978l.794.978q.69-.532 1.35-.83c.438-.2 1.483-.299 2.078-.299q.473.001.858.13.384.13.68.386.589.496.588 1.473 0 .813-.32 1.477-.322.662-.962 1.356a41 41 0 0 1-1.517 1.593l-3.683 3.13V19h7.96v-1.326H49v-.067l3.044-2.434a24 24 0 0 0 1.617-1.674q.69-.795 1.078-1.607a4 4 0 0 0 .388-1.745q0-.727-.244-1.302a2.7 2.7 0 0 0-.733-.998 3 3 0 0 0-.536-.372 3.5 3.5 0 0 0-.62-.264h-.003a4.3 4.3 0 0 0-.706-.157 6 6 0 0 0-.8-.054M12.834 45q-1.175.001-2.063.475a3.3 3.3 0 0 0-1.342 1.356c-.318.59-.479 1.289-.479 2.106q.002 1.684.958 2.615.969.916 2.534.918 1.107 0 1.805-.392.697-.409 1.088-.964h.1a9.4 9.4 0 0 1-.237 1.815 4.4 4.4 0 0 1-.66 1.503 3.2 3.2 0 0 1-1.245 1.014q-.765.376-1.956.375a4.9 4.9 0 0 1-1.5-.214v1.229q.272.081.73.114.462.049.804.05 1.72.001 2.809-.586c.738-.392 1.304-.92 1.7-1.574a6.3 6.3 0 0 0 .831-2.203q.24-1.227.241-2.487 0-1.749-.546-2.877c-.363-.763-.852-1.33-1.476-1.7A3.94 3.94 0 0 0 12.834 45m0 1.212q.868-.001 1.446.455.579.459.868 1.146.287.686.287 1.389c0 .349-.11.688-.338 1.015q-.322.49-.917.816-.595.31-1.413.309c-.794 0-1.389-.212-1.775-.637q-.56-.654-.559-1.78.001-1.373.667-2.043.679-.67 1.734-.67" style="fill:#3f3f3f"/><path d="M32.758 25c-.953 0-2.117.138-2.871.418-.742.28-1.368.615-1.871.996l.875 1.14q.795-.495 1.609-.82c.543-.216 1.51-.32 2.277-.32q1.192-.001 1.887.55.695.536.695 1.528 0 1.163-.914 1.867c-.595.47-1.788.86-2.953.86H31v1.277h.473q1.886.001 2.918.574c.701.37 1.054.976 1.054 1.828q0 1.26-.855 1.985-.834.704-2.738.703-.955.001-1.989-.227a8.6 8.6 0 0 1-1.925-.668v1.563q.874.42 1.828.574.95.172 2.062.172 1.887 0 3.078-.516 1.212-.514 1.79-1.43.574-.915.574-2.116 0-1.353-.852-2.192-.835-.84-2.523-1.031v-.078c.887-.178 1.907-.533 2.437-1.067q.815-.82.816-2.195 0-1.469-1.093-2.422Q34.982 25 32.758 25" style="fill:#fff"/><path d="M7.7 5A2.693 2.693 0 0 0 5 7.7v1C5 7.202 6.203 6 7.7 6h48.6C57.798 6 59 7.203 59 8.7v-1C59 6.202 57.797 5 56.3 5z" style="opacity:.2;fill:#fff"/></svg>