<svg xmlns="http://www.w3.org/2000/svg" xmlns:xlink="http://www.w3.org/1999/xlink" width="64" height="64"><defs><radialGradient xlink:href="#a" id="e" cx="16.014" cy="46.66" r="7" fx="16.014" fy="46.66" gradientTransform="rotate(46.798 392.559 74.235)scale(6.6935 5.9662)" gradientUnits="userSpaceOnUse"/><radialGradient xlink:href="#a" id="f" cx="26.64" cy="21.299" r="7.8" fx="26.64" fy="21.299" gradientTransform="rotate(46.798 229.082 -68.988)scale(6.00697 5.35428)" gradientUnits="userSpaceOnUse"/><radialGradient xlink:href="#a" id="c" cx="27.734" cy="11.548" r="14" fx="27.734" fy="11.548" gradientTransform="rotate(45 75.76 -36.3)scale(2.72712)" gradientUnits="userSpaceOnUse"/><filter id="d" width="1.294" height="1.294" x="-.147" y="-.147" style="color-interpolation-filters:sRGB"><feGaussianBlur stdDeviation="1.855"/></filter><filter id="b" width="1.304" height="1.304" x="-.152" y="-.152" style="color-interpolation-filters:sRGB"><feGaussianBlur stdDeviation="1.72"/></filter><linearGradient id="a"><stop offset="0" style="stop-color:#00d6ff;stop-opacity:1"/><stop offset="1" style="stop-color:#0097ff;stop-opacity:1"/></linearGradient></defs><path d="M36.146 9h9.447a9.277 9.277 45 0 1 9.276 9.277v9.446A9.277 9.277 135 0 1 45.594 37h-9.447a9.277 9.277 45 0 1-9.276-9.277v-9.446A9.277 9.277 135 0 1 36.146 9" style="fill:#ececec;fill-opacity:1;stroke:none;stroke-width:.250793;stroke-linecap:round;stroke-linejoin:round;stroke-miterlimit:2.1;stroke-dasharray:none;stroke-opacity:1;paint-order:markers stroke fill" transform="translate(-26.941 14.17)scale(1.1962)"/><path d="M36.146 9h9.447a9.277 9.277 45 0 1 9.276 9.277v9.446A9.277 9.277 135 0 1 45.594 37h-9.447a9.277 9.277 45 0 1-9.276-9.277v-9.446A9.277 9.277 135 0 1 36.146 9" style="fill:none;stroke:#000;stroke-width:.250793;stroke-linecap:round;stroke-linejoin:round;stroke-miterlimit:2.1;stroke-dasharray:none;stroke-opacity:1;paint-order:markers stroke fill;filter:url(#b)" transform="translate(-26.941 14.17)scale(1.1962)"/><path d="M36.146 9h9.447a9.277 9.277 45 0 1 9.276 9.277v9.446A9.277 9.277 135 0 1 45.594 37h-9.447a9.277 9.277 45 0 1-9.276-9.277v-9.446A9.277 9.277 135 0 1 36.146 9" style="fill:url(#c);stroke-width:.217316;stroke-linecap:round;stroke-linejoin:round;stroke-miterlimit:2.1;paint-order:markers stroke fill" transform="translate(-6.672 -5.359)scale(1.1962)"/><path d="M35.658 7.555c-5.652 0-10.234 4.582-10.234 10.234v10.422c0 5.652 4.582 10.234 10.234 10.234H46.08c5.652 0 10.234-4.582 10.234-10.234V17.789c0-5.652-4.582-10.234-10.234-10.234Z" style="mix-blend-mode:normal;fill:none;stroke:#000;stroke-width:.181281;stroke-linecap:round;stroke-linejoin:round;stroke-miterlimit:2.1;paint-order:markers stroke fill;filter:url(#d)" transform="translate(-2.097 -2.784)scale(1.08425)"/><path d="M59.78 8.652v3h3v-3Zm6 0v3h3v-3Zm-1.25 5.078q-3.57 0-5.682 2.295c-1.398 1.52-2.098 3.78-2.098 6.377 0 2.513.738 4.605 2.211 6.078q2.224 2.211 6.022 2.211 1.516 0 2.99-.312c.982-.208 1.874-.51 2.809-.907v-2.265c-.926.49-1.794.86-2.739 1.105q-1.403.37-2.904.37-2.593 0-4.053-1.403c-.963-.945-1.501-2.832-1.615-4.627h11.987v-1.059c0-2.361-.625-4.425-1.872-5.794q-1.855-2.07-5.056-2.069zm.027 2.21q1.927 0 3.09 1.275c.784.85 1.184 2.003 1.203 3.43l-9.295.015c.132-1.493.633-2.667 1.502-3.488q1.318-1.233 3.5-1.233z" style="fill:#fff;stroke:#fff;stroke-width:.7;stroke-linecap:square;stroke-linejoin:miter;stroke-dasharray:none;stroke-opacity:1" transform="translate(-21.887 2.482)"/><path d="M45.401 42.377q-3.3 0-4.573.735c-.848.49-1.272 1.624-1.272 2.804q0 1.411.947 2.246.962.82 2.604.82 2.264 0 3.626-1.554c.918-1.046 1.176-2.733 1.176-4.46v-.59h-2.508m5.432-1.095v9.918h-3v-2.866c-.62.98-1.119 1.704-2.045 2.174q-1.391.693-3.404.692-2.546 0-4.056-1.382-1.494-1.397-1.494-3.728c0-1.814.622-3.481 1.865-4.403 1.253-.92 3.118-1.447 5.594-1.382h3.618v-.259c0-1.219-.415-1.86-1.243-2.522-2.542-1.5-6.347-1.186-8.835.017v-2.148c.997-.374 2.178-.653 3.115-.835q1.407-.288 2.738-.288 3.597 0 5.372 1.814c1.184 1.21 1.776 2.743 1.776 5.2M41.66 27.201l4.174 5h-2.265l-4.824-5h2.916" style="fill:url(#e);stroke:url(#f);stroke-width:.9;stroke-linecap:round;stroke-linejoin:miter;stroke-dasharray:none;stroke-opacity:1" transform="translate(-21.887 2.482)"/></svg>