<?xml version="1.0" encoding="UTF-8" standalone="no"?>
<svg
   width="64"
   height="64"
   version="1.1"
   id="svg4"
   sodipodi:docname="gnome-sound-recorder.svg"
   inkscape:version="1.4.4 (dcaf3e7d9e, 2026-05-05)"
   xmlns:inkscape="http://www.inkscape.org/namespaces/inkscape"
   xmlns:sodipodi="http://sodipodi.sourceforge.net/DTD/sodipodi-0.dtd"
   xmlns:xlink="http://www.w3.org/1999/xlink"
   xmlns="http://www.w3.org/2000/svg"
   xmlns:svg="http://www.w3.org/2000/svg">
  <defs
     id="defs4">
    <radialGradient
       xlink:href="#b"
       id="c"
       cx="19.608999"
       cy="61.693001"
       r="17.052"
       fx="19.608999"
       fy="61.693001"
       gradientTransform="matrix(2.2235999,-0.59581179,0.6717726,2.5070895,-55.560784,-79.59805)"
       gradientUnits="userSpaceOnUse" />
    <linearGradient
       id="b">
      <stop
         offset="0"
         style="stop-color:#4c4c4c;stop-opacity:1"
         id="stop3" />
      <stop
         offset="1"
         style="stop-color:#727272;stop-opacity:1"
         id="stop4" />
    </linearGradient>
    <radialGradient
       xlink:href="#a"
       id="d"
       cx="-28.580999"
       cy="-24.583"
       r="15"
       fx="-28.580999"
       fy="-24.583"
       gradientTransform="matrix(2.20888,0,0,1.91437,25.387,29.26)"
       gradientUnits="userSpaceOnUse" />
    <linearGradient
       id="a">
      <stop
         offset="0"
         style="stop-color:#313131;stop-opacity:1"
         id="stop1" />
      <stop
         offset="1"
         style="stop-color:#464646;stop-opacity:1"
         id="stop2" />
    </linearGradient>
    <radialGradient
       xlink:href="#b"
       id="e"
       cx="32.105999"
       cy="22.072001"
       r="20.066999"
       fx="32.105999"
       fy="22.072001"
       gradientTransform="matrix(1.08597,0,0,0.99745,-2.76,1.195)"
       gradientUnits="userSpaceOnUse" />
    <filter
       id="f"
       width="1.203432"
       height="1.1429166"
       x="-0.10171519"
       y="-0.071458304"
       style="color-interpolation-filters:sRGB">
      <feGaussianBlur
         stdDeviation="1.559"
         id="feGaussianBlur4" />
    </filter>
  </defs>
  <sodipodi:namedview
     id="namedview4"
     pagecolor="#ffffff"
     bordercolor="#000000"
     borderopacity="0.25"
     inkscape:showpageshadow="2"
     inkscape:pageopacity="0.0"
     inkscape:pagecheckerboard="0"
     inkscape:deskcolor="#d1d1d1"
     inkscape:zoom="18.890625"
     inkscape:cx="32"
     inkscape:cy="32"
     inkscape:current-layer="svg4" />
  <g
     id="g6"
     transform="translate(-2.355577e-4,1.7974366e-5)">
    <g
       transform="matrix(0.98525,0,0,0.98525,0.367,2.536)"
       id="g5">
      <path
         d="m 29.896,39.912 -0.002,0.002 h -0.002 l -0.002,0.002 v 0.002 l -0.002,0.002 v 14.114 l -12.66,0.003 a 2.173,2.173 134.992 0 0 -2.172,2.173 v 0.087 a 2.17,2.17 45 0 0 2.172,2.173 h 29.76 a 2.17,2.17 135 0 0 2.171,-2.173 V 56.21 A 2.173,2.173 45.008 0 0 46.987,54.037 L 34.327,54.034 V 39.918 h -0.002 v -0.002 l -0.002,-0.002 h -0.002 l -0.002,-0.002 z"
         style="fill:url(#c);fill-opacity:1;stroke:none;stroke-width:0.2;stroke-linecap:round;stroke-linejoin:round"
         id="path4" />
      <rect
         width="34.66"
         height="26"
         x="-36"
         y="-45"
         rx="13"
         ry="13"
         style="fill:url(#d)"
         transform="matrix(0,-1,-1,0,0,0)"
         id="rect4" />
      <path
         d="m 12.062,25.798 c 1.302,9.91 9.78,17.56 20.045,17.56 10.265,0 18.743,-7.65 20.046,-17.56 0.192,-1.46 -1.021,-2.66 -2.494,-2.66 -1.099,0 -1.97,1.055 -2.163,2.33 C 46.371,32.959 39.91,38.7 32.107,38.7 c -7.803,0 -14.263,-5.741 -15.389,-13.23 -0.191,-1.276 -1.22,-2.33 -2.512,-2.33 -1.28,0 -2.336,1.2 -2.144,2.66"
         style="fill:url(#e);stroke-width:0.210969;stroke-linecap:round;stroke-linejoin:round"
         id="path5" />
    </g>
    <path
       d="M 31.902,5.12 A 12.207,12.207 0 0 0 19.667,17.353 v 8.15 A 12.207,12.207 0 0 0 31.902,37.735 12.205,12.205 0 0 0 44.134,25.503 v -8.15 A 12.205,12.205 0 0 0 31.902,5.12 M 15.155,25.634 c -1.204,0 -2.198,1.128 -2.017,2.502 1.136,8.643 8.075,15.46 16.775,16.41 v 10.16 L 18,54.71 a 2.045,2.045 0 0 0 -2.043,2.045 v 0.082 A 2.044,2.044 0 0 0 18,58.88 h 28.004 a 2.044,2.044 0 0 0 2.045,-2.043 V 56.755 A 2.045,2.045 0 0 0 46.004,54.71 L 34.092,54.706 v -10.16 c 8.7,-0.95 15.638,-7.767 16.773,-16.41 0.18,-1.374 -0.96,-2.502 -2.345,-2.502 -1.034,0 -1.855,0.992 -2.035,2.193 -1.06,7.047 -7.14,12.45 -14.483,12.45 -7.342,0 -13.422,-5.405 -14.48,-12.452 -0.18,-1.2 -1.15,-2.191 -2.366,-2.191"
       style="mix-blend-mode:normal;fill:none;fill-opacity:1;stroke:#000000;stroke-width:0.2;stroke-linecap:round;stroke-linejoin:round;stroke-dasharray:none;stroke-opacity:1;filter:url(#f)"
       transform="matrix(1.047,0,0,1.047,-1.504,-1.504)"
       id="path6" />
  </g>
</svg>
