<svg xmlns="http://www.w3.org/2000/svg" width="64" height="64"><path d="M4 52v2c0 1.662 1.338 3 3 3h50c1.662 0 3-1.338 3-3v-2c0 1.662-1.338 3-3 3H7c-1.662 0-3-1.338-3-3" style="opacity:.2"/><path d="M4 16v37c0 1.662 1.338 3 3 3h50c1.662 0 3-1.338 3-3V16z" style="fill:#e4e4e4"/><path d="M60 16v-5c0-1.662-1.338-3-3-3H7c-1.662 0-3 1.338-3 3v5z" style="fill:#636e73"/><path d="M60 53V16H32v40h25c1.662 0 3-1.338 3-3" style="opacity:.15"/><path d="M7 8c-1.662 0-3 1.338-3 3v1c0-1.662 1.338-3 3-3h50c1.662 0 3 1.338 3 3v-1c0-1.662-1.338-3-3-3z" style="opacity:.1;fill:#fff"/><path d="M12 22v1h2v3H8v-4zm0 8v1h2v3H8v-4zm0 8v1h2v3H8v-4z" style="fill:#636e73"/><path d="M40 22v1h2v3h-6v-4zm0 8v1h2v3h-6v-4zm0 8v1h2v3h-6v-4z" style="fill:#636e73;opacity:.8"/></svg>