<svg xmlns="http://www.w3.org/2000/svg" width="64" height="64"><defs><filter id="d" width="1.149" height="1.149" x="-.074" y="-.074" style="color-interpolation-filters:sRGB"><feGaussianBlur stdDeviation="1.229"/></filter><filter id="c" width="1.141" height="1.141" x="-.071" y="-.071" style="color-interpolation-filters:sRGB"><feGaussianBlur stdDeviation=".961"/></filter><filter id="b" width="1.142" height="1.142" x="-.071" y="-.071" style="color-interpolation-filters:sRGB"><feGaussianBlur stdDeviation="1.59"/></filter><radialGradient id="a" cx="-159.431" cy="15.463" r="64.707" fx="-159.431" fy="15.463" gradientTransform="matrix(-.89413 0 0 .96305 -70.789 26.295)" gradientUnits="userSpaceOnUse"><stop offset="0" style="stop-color:#006fff;stop-opacity:1"/><stop offset="1" style="stop-color:#15baff;stop-opacity:1"/></radialGradient></defs><path d="M30.739-18.983h22.4c9.3 0 16.8 7.5 16.8 16.8v22.4c0 9.3-7.5 16.8-16.8 16.8h-22.4c-9.3 0-16.8-7.5-16.8-16.8v-22.4c0-9.3 7.5-16.8 16.8-16.8" class="st1" style="fill:url(#a)" transform="translate(-9.965 23.035)"/><path d="M30.765-19.035h22.4c9.3 0 16.8 7.5 16.8 16.8v22.4c0 9.3-7.5 16.8-16.8 16.8h-22.4c-9.3 0-16.8-7.5-16.8-16.8v-22.4c0-9.3 7.5-16.8 16.8-16.8z" class="st1" style="opacity:.673189;fill:none;stroke:#000;stroke-width:.3;stroke-dasharray:none;stroke-opacity:1;filter:url(#b)" transform="translate(-9.965 23.035)"/><path d="M15.88 15.878V48.12h32.24V15.878Zm4.848 3.583h22.544L37.9 24.834H26.102zm-1.266 1.271 5.373 5.374v11.797l-5.373 5.373zm25.076 0v22.544l-5.373-5.373V26.106zm-17.911 5.893h10.747v10.748H26.627Zm-.525 12.539h11.796l5.374 5.373H20.728z" style="opacity:.635299;fill:#fff;fill-opacity:1;stroke-width:.895595"/><path d="M15.34 15.235v33.363h33.364V15.235zm5.018 3.707h23.328l-5.56 5.56H25.919zm-1.31 1.316 5.56 5.56v12.207l-5.56 5.56zm25.949 0v23.328l-5.56-5.56V25.818zm-18.535 6.098h11.12v11.12h-11.12Zm-.544 12.974h12.208l5.56 5.561H20.358z" style="opacity:1;fill:none;fill-opacity:1;stroke:#001eff;stroke-width:.104447;stroke-dasharray:none;stroke-opacity:1;filter:url(#c)" transform="translate(1.076 1.075)scale(.96637)"/><path d="M17.67 12.296a5.374 5.374 0 0 0-5.373 5.373 5.374 5.374 0 0 0 5.374 5.374 5.374 5.374 0 0 0 5.373-5.374 5.374 5.374 0 0 0-5.373-5.373m28.66 0a5.374 5.374 0 0 0-5.374 5.373 5.374 5.374 0 0 0 5.374 5.374 5.374 5.374 0 0 0 5.373-5.374 5.374 5.374 0 0 0-5.373-5.373M25.73 23.043a2.687 2.687 0 0 0-2.687 2.687 2.687 2.687 0 0 0 2.687 2.687 2.687 2.687 0 0 0 2.687-2.687 2.687 2.687 0 0 0-2.687-2.687m12.538 0a2.687 2.687 0 0 0-2.686 2.687 2.687 2.687 0 0 0 2.686 2.687 2.687 2.687 0 0 0 2.687-2.687 2.687 2.687 0 0 0-2.687-2.687M25.731 35.581a2.687 2.687 0 0 0-2.687 2.687 2.687 2.687 0 0 0 2.687 2.687 2.687 2.687 0 0 0 2.687-2.687 2.687 2.687 0 0 0-2.687-2.687m12.538 0a2.687 2.687 0 0 0-2.686 2.687 2.687 2.687 0 0 0 2.686 2.687 2.687 2.687 0 0 0 2.687-2.687 2.687 2.687 0 0 0-2.687-2.687m-20.598 5.374a5.374 5.374 0 0 0-5.374 5.373 5.374 5.374 0 0 0 5.374 5.374 5.374 5.374 0 0 0 5.373-5.374 5.374 5.374 0 0 0-5.373-5.373m28.659 0a5.374 5.374 0 0 0-5.374 5.373 5.374 5.374 0 0 0 5.374 5.374 5.374 5.374 0 0 0 5.373-5.374 5.374 5.374 0 0 0-5.373-5.373" style="fill:#fff;fill-opacity:1;stroke-width:.895595"/><path d="M17.067 11.467a5.6 5.6 0 0 0-5.6 5.6 5.6 5.6 0 0 0 5.6 5.6 5.6 5.6 0 0 0 5.6-5.6 5.6 5.6 0 0 0-5.6-5.6zm29.866 0a5.6 5.6 0 0 0-5.6 5.6 5.6 5.6 0 0 0 5.6 5.6 5.6 5.6 0 0 0 5.6-5.6 5.6 5.6 0 0 0-5.6-5.6zm-21.466 11.2a2.8 2.8 0 0 0-2.8 2.8 2.8 2.8 0 0 0 2.8 2.8 2.8 2.8 0 0 0 2.8-2.8 2.8 2.8 0 0 0-2.8-2.8zm13.066 0a2.8 2.8 0 0 0-2.8 2.8 2.8 2.8 0 0 0 2.8 2.8 2.8 2.8 0 0 0 2.8-2.8 2.8 2.8 0 0 0-2.8-2.8ZM25.467 35.733a2.8 2.8 0 0 0-2.8 2.8 2.8 2.8 0 0 0 2.8 2.8 2.8 2.8 0 0 0 2.8-2.8 2.8 2.8 0 0 0-2.8-2.8zm13.066 0a2.8 2.8 0 0 0-2.8 2.8 2.8 2.8 0 0 0 2.8 2.8 2.8 2.8 0 0 0 2.8-2.8 2.8 2.8 0 0 0-2.8-2.8zm-21.466 5.6a5.6 5.6 0 0 0-5.6 5.6 5.6 5.6 0 0 0 5.6 5.6 5.6 5.6 0 0 0 5.6-5.6 5.6 5.6 0 0 0-5.6-5.6zm29.866 0a5.6 5.6 0 0 0-5.6 5.6 5.6 5.6 0 0 0 5.6 5.6 5.6 5.6 0 0 0 5.6-5.6 5.6 5.6 0 0 0-5.6-5.6z" style="opacity:1;mix-blend-mode:normal;fill:none;fill-opacity:1;stroke:#0031ff;stroke-width:.210369;stroke-dasharray:none;stroke-opacity:1;filter:url(#d)" transform="translate(1.293 1.278)scale(.9596)"/></svg>