<svg xmlns="http://www.w3.org/2000/svg" xmlns:xlink="http://www.w3.org/1999/xlink" width="64" height="64"><defs><radialGradient xlink:href="#a" id="d" cx="12.352" cy="20.113" r="28" fx="12.352" fy="20.113" gradientTransform="rotate(73.383 25.826 21.347)scale(1.68322 1.68577)" gradientUnits="userSpaceOnUse"/><radialGradient xlink:href="#b" id="f" cx="35.843" cy="40.144" r="16" fx="35.843" fy="40.144" gradientTransform="rotate(61.34 113.926 18.274)scale(2.66906 2.42327)" gradientUnits="userSpaceOnUse"/><linearGradient id="b"><stop offset="0" style="stop-color:#4de8f5;stop-opacity:1"/><stop offset="1" style="stop-color:#008dff;stop-opacity:1"/></linearGradient><linearGradient id="a"><stop offset="0" style="stop-color:#fecd38;stop-opacity:1"/><stop offset="1" style="stop-color:#fe9d38;stop-opacity:.99994814"/></linearGradient><filter id="c" width="1.046" height="1.046" x="-.023" y="-.023" style="color-interpolation-filters:sRGB"><feGaussianBlur stdDeviation=".539"/></filter><filter id="e" width="1.031" height="1.031" x="-.016" y="-.016" style="color-interpolation-filters:sRGB"><feGaussianBlur stdDeviation=".207"/></filter></defs><path d="M32 4C16.488 4 4 16.488 4 32s12.488 28 28 28 28-12.488 28-28S47.512 4 32 4" style="mix-blend-mode:normal;fill:#000;fill-opacity:1;filter:url(#c)" transform="translate(.815 1.615)scale(.97452)"/><path d="M32 4C16.488 4 4 16.488 4 32s12.488 28 28 28 28-12.488 28-28S47.512 4 32 4" style="fill:url(#d)"/><path d="m26.69 51.817 3.982-14.863-14.862-3.982 21.5-20.79-3.982 14.864 14.862 3.982Z" style="opacity:.640977;fill:#000;fill-opacity:1;stroke-width:1.28229"/><circle cx="48" cy="46.5" r="16" style="opacity:.68394103;filter:url(#e)"/><circle cx="48" cy="46" r="16" style="fill:url(#f)"/><path d="M45 44h6v12h-6zm0-8h6v6h-6z" style="fill:#fff"/></svg>