<svg xmlns="http://www.w3.org/2000/svg" width="64" height="64"><path d="M10 56v2c0 1.662 1.338 3 3 3h38c1.662 0 3-1.338 3-3v-2c0 1.662-1.338 3-3 3H13c-1.662 0-3-1.338-3-3" style="opacity:.2"/><path d="M54 57V7c0-1.662-1.338-3-3-3H13c-1.662 0-3 1.338-3 3v50c0 1.662 1.338 3 3 3h38c1.662 0 3-1.338 3-3" style="fill:#4bae4f"/><path d="M21 43h23V23H21zm2-18h8v4h-8zm10 0h9v4h-9zm-10 6h8v4h-8zm10 0h9v4h-9zm-10 6h8v4h-8zm10 0h9v4h-9z" style="opacity:.2"/><path d="M21 42h23V22H21zm2-18h8v4h-8zm10 0h9v4h-9zm-10 6h8v4h-8zm10 0h9v4h-9zm-10 6h8v4h-8zm10 0h9v4h-9z" style="fill:#ffff84"/><path d="M13 4c-1.662 0-3 1.338-3 3v1c0-1.662 1.338-3 3-3h38c1.662 0 3 1.338 3 3V7c0-1.662-1.338-3-3-3z" style="opacity:.1;fill:#fff"/></svg>