<svg xmlns="http://www.w3.org/2000/svg" xmlns:xlink="http://www.w3.org/1999/xlink" width="64" height="64"><defs><filter id="d" width="1.083" height="1.28" x="-.042" y="-.14" style="color-interpolation-filters:sRGB"><feGaussianBlur stdDeviation=".565"/></filter><filter id="e" width="1.702" height="1.3" x="-.351" y="-.15" style="color-interpolation-filters:sRGB"><feGaussianBlur stdDeviation=".449"/></filter><filter id="c" width="1.023" height="1.142" x="-.011" y="-.071" style="color-interpolation-filters:sRGB"><feGaussianBlur stdDeviation=".202"/></filter><filter id="f" width="1.149" height="1.166" x="-.074" y="-.083" style="color-interpolation-filters:sRGB"><feGaussianBlur stdDeviation="1.581"/></filter><radialGradient id="a" cx="-159.431" cy="15.463" r="64.707" fx="-159.431" fy="15.463" gradientTransform="matrix(-.89413 0 0 .96305 -139.718 50.732)" gradientUnits="userSpaceOnUse"><stop offset="0" style="stop-color:#006fff;stop-opacity:1"/><stop offset="1" style="stop-color:#15baff;stop-opacity:1"/></radialGradient><radialGradient xlink:href="#a" id="b" cx="63.374" cy="66.475" r="26.615" fx="63.374" fy="66.475" gradientTransform="matrix(0 -2.41322 2.4147 0 -96.352 218.84)" gradientUnits="userSpaceOnUse"/></defs><path d="M25.252 10.24a30 30 0 0 0-4.515 1.529c-.695.302-1.229 1.195-1.194 1.952a52 52 0 0 0 .28 3.56c.057.5-.243 1.107-.672 1.372a28.4 28.4 0 0 0-3.58 2.627c-.382.328-1.023.38-1.448.109a47 47 0 0 0-2.753-1.621c-.666-.362-1.636-.188-2.136.381a36 36 0 0 0-3.126 4.069c-.414.634-.398 1.687.026 2.315.65.962 1.41 2.03 1.915 2.728.306.423.558 1.19.56 1.712.008 2.453.028 9.15.028 13.927 0 8.208 10.412 12.154 23.363 12.154S55.36 53.108 55.36 44.9l.003-13.927c0-.523.267-1.277.583-1.694a50 50 0 0 0 1.933-2.741c.415-.632.427-1.686.013-2.32a36 36 0 0 0-3.126-4.07c-.5-.568-1.47-.742-2.136-.38-.94.51-1.86 1.054-2.753 1.62-.425.271-1.058.211-1.438-.12-1.117-.975-2.344-1.808-3.598-2.6-.426-.268-.72-.887-.662-1.388.135-1.182.223-2.36.278-3.559.035-.757-.499-1.65-1.194-1.952a30 30 0 0 0-4.517-1.529c-.733-.19-1.65.208-2.015.871a52 52 0 0 0-1.572 3.108c-.213.457-.783.763-1.285.711a18.4 18.4 0 0 0-3.751-.004c-.501.054-1.048-.26-1.249-.722-.463-1.069-1.01-2.094-1.592-3.103-.378-.656-1.297-1.05-2.03-.86" style="fill:url(#b);fill-rule:nonzero;stroke:none;stroke-width:.0764804" transform="translate(-1.915 -3.633)scale(1.05978)"/><path d="m7.24 41.001.002 1.82 5.52.532a2.73 2.73 0 0 1 2.395 2.082l.006.031v.002a4.35 4.35 0 0 0 4.043 3.322l4.766.2a4.48 4.48 0 0 0 4.358-2.86l.006-.012a2.48 2.48 0 0 1 2.436-1.45l.031.001h2.962c1.184 0 2.235.733 2.645 1.843l.01.028.015.032a4.175 4.175 0 0 0 4.23 2.425l5.656-.215a3.77 3.77 0 0 0 3.61-3.543v.016a2.05 2.05 0 0 1 1.892-1.9l.008-.002 4.926-.476v-1.82l-5.077.49h-.002a3.88 3.88 0 0 0-3.554 3.574l-.002.008v.008a1.934 1.934 0 0 1-1.87 1.834l-5.729.22-.03.004a2.355 2.355 0 0 1-2.396-1.346 4.64 4.64 0 0 0-4.332-2.993h-2.93l.032.002a4.31 4.31 0 0 0-4.191 2.53l-.013.029-.01.028a2.65 2.65 0 0 1-2.604 1.735l-4.767-.199a2.524 2.524 0 0 1-2.356-1.937l-.008-.031a4.55 4.55 0 0 0-3.982-3.463z" style="fill:#fff;fill-opacity:1;fill-rule:nonzero;stroke:none;stroke-width:.0810523"/><path d="m8.636 40.494.002 1.716 5.21.502a2.57 2.57 0 0 1 2.259 1.965l.006.03v.002a4.104 4.104 0 0 0 3.814 3.134l4.498.188a4.22 4.22 0 0 0 4.112-2.697l.006-.012a2.34 2.34 0 0 1 2.298-1.37l.03.003h2.795c1.116 0 2.108.69 2.496 1.738l.01.027.013.03a3.94 3.94 0 0 0 3.99 2.289l5.338-.203a3.56 3.56 0 0 0 3.406-3.344v.015a1.934 1.934 0 0 1 1.786-1.793l.007-.002 4.649-.449v-1.717l-4.791.463h-.002a3.66 3.66 0 0 0-3.354 3.371l-.002.008v.008a1.825 1.825 0 0 1-1.763 1.73l-5.407.208-.029.003a2.22 2.22 0 0 1-2.26-1.27 4.38 4.38 0 0 0-4.088-2.823H30.9l.031.002a4.065 4.065 0 0 0-3.955 2.386l-.012.028-.01.027a2.5 2.5 0 0 1-2.457 1.637L20 46.136a2.38 2.38 0 0 1-2.222-1.828l-.008-.03a4.295 4.295 0 0 0-3.758-3.267z" style="fill:none;fill-opacity:1;fill-rule:nonzero;stroke:#0023ff;stroke-width:.1;stroke-dasharray:none;stroke-opacity:1;filter:url(#c)" transform="translate(-1.913 -1.913)scale(1.05978)"/><path d="M19.014 25.535a5.52 5.52 0 1 0 .002 11.035 5.52 5.52 0 0 0-.002-11.035m25.969 0a5.517 5.517 0 1 0 0 11.037 5.52 5.52 0 0 0 0-11.037" style="fill:#fff;fill-opacity:1;fill-rule:nonzero;stroke:none;stroke-width:.0810523"/><path d="M19.747 25.9a5.208 5.208 0 1 0 .002 10.412 5.208 5.208 0 0 0-.002-10.412zm24.503 0a5.206 5.206 0 1 0 0 10.414 5.208 5.208 0 0 0 0-10.414z" style="mix-blend-mode:normal;fill:none;fill-opacity:1;fill-rule:nonzero;stroke:#0023ff;stroke-width:.2;stroke-dasharray:none;stroke-opacity:1;filter:url(#d)" transform="translate(-1.913 -1.913)scale(1.05978)"/><path d="M31.998 37.075c-.981 0-1.777-.724-1.777-1.615v-5.081c0-.891.796-1.615 1.777-1.615s1.778.724 1.778 1.615v5.081c0 .891-.797 1.615-1.778 1.615" style="fill:#fff;fill-opacity:1;fill-rule:nonzero;stroke:none;stroke-width:.0810523"/><path d="M31.998 36.788c-.926 0-1.676-.682-1.676-1.523V30.47c0-.84.75-1.524 1.676-1.524s1.678.684 1.678 1.524v4.795c0 .84-.752 1.523-1.678 1.523" style="mix-blend-mode:normal;fill:none;fill-opacity:1;fill-rule:nonzero;stroke:#0023ff;stroke-width:.2;stroke-dasharray:none;stroke-opacity:1;filter:url(#e)" transform="translate(-1.913 -1.913)scale(1.05978)"/><path d="M19.768 28.232a3.34 3.34 0 1 0 0 6.68 3.339 3.339 0 1 0 0-6.68m24.462 0a3.34 3.34 0 1 0 .003 6.68 3.34 3.34 0 0 0-.003-6.68" style="fill:#414042;fill-opacity:1;fill-rule:nonzero;stroke:none;stroke-width:.0739017"/><path d="M25.252 10.24a30 30 0 0 0-4.515 1.529c-.695.302-1.229 1.195-1.194 1.952a52 52 0 0 0 .28 3.56c.057.5-.243 1.107-.672 1.372a28.4 28.4 0 0 0-3.58 2.627c-.382.328-1.023.38-1.448.109a47 47 0 0 0-2.753-1.621c-.666-.362-1.636-.188-2.136.381a36 36 0 0 0-3.126 4.069c-.414.634-.398 1.687.026 2.315.65.962 1.41 2.03 1.915 2.728.306.423.558 1.19.56 1.712.008 2.453.028 9.15.028 13.927 0 8.208 10.412 12.154 23.363 12.154S55.36 53.108 55.36 44.9l.003-13.927c0-.523.267-1.277.583-1.694a50 50 0 0 0 1.933-2.741c.415-.632.427-1.686.013-2.32a36 36 0 0 0-3.126-4.07c-.5-.568-1.47-.742-2.136-.38-.94.51-1.86 1.054-2.753 1.62-.425.271-1.058.211-1.438-.12-1.117-.975-2.344-1.808-3.598-2.6-.426-.268-.72-.887-.662-1.388.135-1.182.223-2.36.278-3.559.035-.757-.499-1.65-1.194-1.952a30 30 0 0 0-4.517-1.529c-.733-.19-1.65.208-2.015.871a52 52 0 0 0-1.572 3.108c-.213.457-.783.763-1.285.711a18.4 18.4 0 0 0-3.751-.004c-.501.054-1.048-.26-1.249-.722-.463-1.069-1.01-2.094-1.592-3.103-.378-.656-1.297-1.05-2.03-.86z" style="mix-blend-mode:normal;fill:none;fill-rule:nonzero;stroke:#000;stroke-width:.2;stroke-dasharray:none;stroke-opacity:1;filter:url(#f)" transform="translate(-1.915 -3.633)scale(1.05978)"/></svg>