<svg xmlns="http://www.w3.org/2000/svg" xmlns:xlink="http://www.w3.org/1999/xlink" width="64" height="64"><defs><filter id="d" width="1.176" height="1.176" x="-.088" y="-.088" style="color-interpolation-filters:sRGB"><feGaussianBlur stdDeviation="1.549"/></filter><filter id="c" width="1.138" height="1.138" x="-.069" y="-.069" style="color-interpolation-filters:sRGB"><feGaussianBlur stdDeviation="1.549"/></filter><filter id="e" width="1.117" height="1.105" x="-.058" y="-.052" style="color-interpolation-filters:sRGB"><feGaussianBlur stdDeviation=".415"/></filter><radialGradient xlink:href="#a" id="b" cx="46.429" cy="24.51" r="28" fx="46.429" fy="24.51" gradientTransform="matrix(-2.70545 0 0 -2.69861 185.381 69.62)" gradientUnits="userSpaceOnUse"/><linearGradient id="a"><stop offset="0" style="stop-color:#46f79c;stop-opacity:1"/><stop offset=".381" style="stop-color:#6abfe5;stop-opacity:1"/><stop offset=".691" style="stop-color:#3666ff;stop-opacity:1"/><stop offset="1" style="stop-color:#8946f7;stop-opacity:1"/></linearGradient></defs><path d="M20.8 4C11.495 4 4 11.494 4 20.8v22.4C4 52.505 11.494 60 20.8 60h22.4C52.505 60 60 52.506 60 43.2V20.8C60 11.495 52.506 4 43.2 4z" style="fill:url(#b)"/><path d="M21 10h22c6.19 0 11 4.81 11 11v22c0 6.19-4.81 11-11 11H21c-6.19 0-11-4.81-11-11V21c0-6.19 4.81-11 11-11" style="fill:#3f3f3f"/><path d="M20.8 4C11.495 4 4 11.494 4 20.8v22.4C4 52.505 11.494 60 20.8 60h22.4C52.505 60 60 52.506 60 43.2V20.8C60 11.495 52.506 4 43.2 4z" style="fill:none;stroke:#000;stroke-width:.3;stroke-dasharray:none;stroke-opacity:1;filter:url(#c)"/><path d="M21 10h22c6.19 0 11 4.81 11 11v22c0 6.19-4.81 11-11 11H21c-6.19 0-11-4.81-11-11V21c0-6.19 4.81-11 11-11z" style="fill:none;stroke:#000;stroke-width:.3;stroke-dasharray:none;stroke-opacity:1;filter:url(#d)"/><path d="M25.002 30h4m-2 0s.982 6-4 6c-4 0-4-4-4-8s0-8 4-8 3.985 2 3.985 2" style="fill:none;stroke:#fff;stroke-width:4;stroke-linecap:round;stroke-linejoin:bevel" transform="translate(4.178 3.418)scale(.64638)"/><path d="M40.002 18c-3.324 0-6 2.676-6 6v8c0 3.324 2.676 6 6 6s6-2.676 6-6v-8c0-3.324-2.676-6-6-6m0 4c1.108 0 2 0 2 3.598v4.804c0 3.598-.892 3.598-2 3.598s-2 0-2-3.598v-4.804c0-3.598.892-3.598 2-3.598" style="fill:#fff;fill-rule:evenodd" transform="translate(4.178 3.418)scale(.64638)"/><path d="M78.957 35.945h10.448" style="fill:none;stroke:#fff;stroke-width:2.61211;stroke-linecap:round" transform="translate(-62.482 -1.3)"/><g style="fill:none;stroke:#00ffad;stroke-width:.2;stroke-dasharray:none;stroke-opacity:1;filter:url(#e)" transform="translate(.1 .1)"><g style="fill:none;stroke:#00ffad;stroke-width:.309413;stroke-dasharray:none;stroke-opacity:1"><path d="M23.002 18c-1.333 0-2.59.37-3.541 1.11s-1.523 1.754-1.857 2.757c-.67 2.006-.602 4.133-.602 6.133s-.067 4.127.602 6.133c.334 1.003.906 2.018 1.857 2.758S21.669 38 23.002 38c1.647 0 3.1-.56 4.084-1.469.983-.908 1.47-2.04 1.723-3.043.14-.56.117-.993.152-1.488h.041a2 2 0 0 0 2-2 2 2 0 0 0-2-2h-4a2 2 0 0 0-2 2 2 2 0 0 0 1.953 1.953c-.02.257.039.305-.025.559-.125.497-.325.865-.559 1.082-.234.216-.525.406-1.369.406-.667 0-.91-.13-1.084-.266-.174-.135-.354-.37-.52-.867-.33-.994-.396-2.867-.396-4.867s.065-3.873.396-4.867c.166-.497.346-.732.52-.867.174-.136.417-.266 1.084-.266 1.667 0 2.05.385 2.072.408.012.012-.027-.034-.049-.101a3 3 0 0 1-.039-.323A2 2 0 0 0 26.971 24a2 2 0 0 0 2.015-1.984s-.014-.505-.158-.948a3.8 3.8 0 0 0-.914-1.476c-.97-.977-2.579-1.592-4.912-1.592Z" style="baseline-shift:baseline;display:inline;overflow:visible;opacity:1;fill:none;stroke:#00ffad;stroke-width:.309413;stroke-linecap:round;stroke-linejoin:bevel;stroke-dasharray:none;stroke-opacity:1;enable-background:accumulate;stop-color:#000;stop-opacity:1" transform="translate(4.078 3.319)scale(.64638)"/><path d="M40.002 18c-3.324 0-6 2.676-6 6v8c0 3.324 2.676 6 6 6s6-2.676 6-6v-8c0-3.324-2.676-6-6-6zm0 4c1.108 0 2 0 2 3.598v4.804c0 3.598-.892 3.598-2 3.598s-2 0-2-3.598v-4.804c0-3.598.892-3.598 2-3.598z" style="fill:none;fill-rule:evenodd;stroke:#00ffad;stroke-width:.309413;stroke-dasharray:none;stroke-opacity:1" transform="translate(4.078 3.319)scale(.64638)"/></g><g style="fill:none;stroke:#00ffad;stroke-width:.2;stroke-dasharray:none;stroke-opacity:1"><path d="M78.957 34.639a1.306 1.306 0 0 0-1.307 1.306 1.306 1.306 0 0 0 1.307 1.305h10.45a1.306 1.306 0 0 0 1.304-1.305 1.306 1.306 0 0 0-1.305-1.306z" style="baseline-shift:baseline;display:inline;overflow:visible;opacity:1;fill:none;stroke:#00ffad;stroke-width:.2;stroke-linecap:round;stroke-dasharray:none;stroke-opacity:1;enable-background:accumulate;stop-color:#000;stop-opacity:1" transform="translate(-62.582 -1.4)"/></g></g></svg>