<svg xmlns="http://www.w3.org/2000/svg" width="64" height="64"><rect width="58" height="58" x="-62" y="-61" rx="2.9" ry="2.9" style="opacity:.2" transform="rotate(90)scale(-1 1)"/><rect width="58" height="58" x="-61" y="-61" rx="2.9" ry="2.9" style="fill:#fadd00" transform="rotate(90)scale(-1 1)"/><path d="M7 8v4h4V8Zm6 0v4h4V8Zm6 0v4h4V8Zm6 0v4h4V8Zm6 0v4h4V8Zm6 0v4h4V8Zm10 0v4h4V8Zm6 0v4h4V8ZM7 14v4h4v-4zm6 0v4h4v-4zm6 0v4h4v-4zm6 0v4h4v-4zm6 0v4h4v-4zm6 0v4h4v-4zm10 0v4h4v-4zm6 0v4h4v-4zm-6 6v4h4v-4zm6 0v4h4v-4ZM7 24v4h4v-4zm6 0v4h4v-4zm34 2v4h4v-4zm6 0v4h4v-4ZM7 30v4h4v-4zm6 0v4h4v-4zm34 2v4h4v-4zm6 0v4h4v-4ZM7 36v4h4v-4zm6 0v4h4v-4zm34 2v4h4v-4zm6 0v4h4v-4ZM7 42v4h4v-4zm6 0v4h4v-4zm-6 6v4h4v-4zm6 0v4h4v-4zm10 0v4h4v-4zm6 0v4h4v-4zm6 0v4h4v-4zm6 0v4h4v-4zm6 0v4h4v-4zm6 0v4h4v-4ZM7 54v4h4v-4zm6 0v4h4v-4zm10 0v4h4v-4zm6 0v4h4v-4zm6 0v4h4v-4zm6 0v4h4v-4zm6 0v4h4v-4zm6 0v4h4v-4z" style="opacity:.1"/><path d="M7 7v4h4V7Zm6 0v4h4V7Zm6 0v4h4V7Zm6 0v4h4V7Zm6 0v4h4V7Zm6 0v4h4V7Zm10 0v4h4V7Zm6 0v4h4V7ZM7 13v4h4v-4zm6 0v4h4v-4zm6 0v4h4v-4zm6 0v4h4v-4zm6 0v4h4v-4zm6 0v4h4v-4zm10 0v4h4v-4zm6 0v4h4v-4zm-6 6v4h4v-4zm6 0v4h4v-4ZM7 23v4h4v-4zm6 0v4h4v-4zm34 2v4h4v-4zm6 0v4h4v-4ZM7 29v4h4v-4zm6 0v4h4v-4zm34 2v4h4v-4zm6 0v4h4v-4ZM7 35v4h4v-4zm6 0v4h4v-4zm34 2v4h4v-4zm6 0v4h4v-4ZM7 41v4h4v-4zm6 0v4h4v-4zm-6 6v4h4v-4zm6 0v4h4v-4zm10 0v4h4v-4zm6 0v4h4v-4zm6 0v4h4v-4zm6 0v4h4v-4zm6 0v4h4v-4zm6 0v4h4v-4ZM7 53v4h4v-4zm6 0v4h4v-4zm10 0v4h4v-4zm6 0v4h4v-4zm6 0v4h4v-4zm6 0v4h4v-4zm6 0v4h4v-4zm6 0v4h4v-4z" style="fill:#234fa7"/><path d="M5.898 3A2.89 2.89 0 0 0 3 5.898v1A2.89 2.89 0 0 1 5.898 4h52.204A2.89 2.89 0 0 1 61 6.898v-1A2.89 2.89 0 0 0 58.102 3z" style="opacity:.2;fill:#fff"/></svg>