<svg xmlns="http://www.w3.org/2000/svg" xmlns:xlink="http://www.w3.org/1999/xlink" width="64" height="64"><defs><radialGradient xlink:href="#a" id="f" cx="23.983" cy="28.166" r="14" fx="23.983" fy="28.166" gradientTransform="rotate(255 31.455 36.084)scale(1.60448 1.3653)" gradientUnits="userSpaceOnUse"/><radialGradient xlink:href="#b" id="g" cx="32.172" cy="25.235" r="7" fx="32.172" fy="25.235" gradientTransform="matrix(3.47732 0 0 2.50115 -79.7 -30.646)" gradientUnits="userSpaceOnUse"/><radialGradient xlink:href="#c" id="i" cx="31.91" cy="25.127" r="14" fx="31.91" fy="25.127" gradientTransform="matrix(0 1.71477 -1.64703 0 73.295 -22.655)" gradientUnits="userSpaceOnUse"/><radialGradient xlink:href="#d" id="h" cx="26.606" cy="42.987" r="7" fx="26.606" fy="42.987" gradientTransform="rotate(135 123.552 109.01)scale(5.03528 5.3058)" gradientUnits="userSpaceOnUse"/><radialGradient xlink:href="#e" id="j" cx="28.156" cy="36.704" r="13.798" fx="28.156" fy="36.704" gradientTransform="translate(-36.571 -36.571)scale(2.14286)" gradientUnits="userSpaceOnUse"/><linearGradient id="e"><stop offset="0" style="stop-color:#fff;stop-opacity:1"/><stop offset="1" style="stop-color:#c3c3c3;stop-opacity:1"/></linearGradient><linearGradient id="d"><stop offset="0" style="stop-color:#198843;stop-opacity:1"/><stop offset="1" style="stop-color:#47db4c;stop-opacity:1"/></linearGradient><linearGradient id="c"><stop offset="0" style="stop-color:#6336ff;stop-opacity:1"/><stop offset="1" style="stop-color:#2095f2;stop-opacity:1"/></linearGradient><linearGradient id="b"><stop offset="0" style="stop-color:#8835f3;stop-opacity:1"/><stop offset="1" style="stop-color:#f34535;stop-opacity:1"/></linearGradient><linearGradient id="a"><stop offset="0" style="stop-color:#fe7506;stop-opacity:1"/><stop offset="1" style="stop-color:#fec006;stop-opacity:1"/></linearGradient><filter id="k" width="1.136" height="1.136" x="-.068" y="-.068" style="color-interpolation-filters:sRGB"><feGaussianBlur stdDeviation="1.487"/></filter></defs><path d="M15.083 20.917 4 32h28V18h-9.874a9.96 9.96 157.5 0 0-7.043 2.917" style="fill:url(#f)"/><path d="M32 4v28h14v-9.53a10.8 10.8 67.5 0 0-3.161-7.631Z" style="fill:url(#g)"/><path d="M18 32v8.916a12.27 12.27 67.5 0 0 3.595 8.679L32 60V32Z" style="fill:url(#h)"/><path d="M32 32v14h8.686a12.83 12.83 157.5 0 0 9.071-3.757L60 32Z" style="fill:url(#i)"/><path d="m32 18.202-1.96 7.042a6.9 6.9 135 0 1-4.796 4.797L18.202 32l7.042 1.96a6.9 6.9 45 0 1 4.797 4.796L32 45.798l1.96-7.042a6.9 6.9 135 0 1 4.796-4.797L45.798 32l-7.042-1.96a6.9 6.9 45 0 1-4.797-4.796z" style="fill:url(#j);stroke-width:1.72481"/><g style="filter:url(#k)" transform="translate(65.564 4.887)"><path d="M-43.44 13.113a9.96 9.96 0 0 0-7.042 2.918l-11.082 11.082h14.2l7.042-1.959a6.9 6.9 0 0 0 4.797-4.797l1.96-7.043v-.2zm9.876-14v14.201l1.959 7.043a6.9 6.9 0 0 0 4.796 4.797l7.041 1.96h.204v-9.53a10.8 10.8 0 0 0-3.163-7.63zm-14 28v8.916a12.27 12.27 0 0 0 3.593 8.68l10.407 10.404v-14.2l-1.961-7.044a6.9 6.9 0 0 0-4.797-4.797l-7.041-1.959z" style="baseline-shift:baseline;display:inline;overflow:visible;fill:none;stroke:#000;stroke-width:.2;stroke-dasharray:none;stroke-opacity:1;enable-background:accumulate;stop-color:#000;stop-opacity:1"/><path d="m-19.768 27.113-7.04 1.96a6.9 6.9 0 0 0-4.797 4.796l-1.96 7.043v.201h8.686c3.402 0 6.665-1.352 9.07-3.758l10.245-10.242Z" style="baseline-shift:baseline;display:inline;overflow:visible;fill:none;stroke:#000;stroke-width:.2;stroke-dasharray:none;stroke-opacity:1;enable-background:accumulate;stop-color:#000;stop-opacity:1"/><path d="m-33.564 13.314-1.961 7.043a6.9 6.9 0 0 1-4.797 4.797l-7.041 1.96 7.04 1.958a6.9 6.9 0 0 1 4.798 4.797l1.96 7.043 1.96-7.043a6.9 6.9 0 0 1 4.796-4.797l7.041-1.959-7.04-1.959a6.9 6.9 0 0 1-4.797-4.797z" style="baseline-shift:baseline;display:inline;overflow:visible;fill:none;stroke:#000;stroke-width:.2;stroke-dasharray:none;stroke-opacity:1;enable-background:accumulate;stop-color:#000;stop-opacity:1"/></g></svg>