<svg xmlns="http://www.w3.org/2000/svg" width="64" height="64"><circle cx="32" cy="33" r="28" style="opacity:.2"/><circle cx="32" cy="32" r="28" style="fill:#4f8ef5"/><path d="M45.8 21a4.2 4.2 0 0 0-2.97 1.23l-19.6 19.6a4.2 4.2 0 0 0 0 5.94 4.2 4.2 0 0 0 5.94 0l19.6-19.6a4.2 4.2 0 0 0 0-5.94A4.2 4.2 0 0 0 45.8 21m-28.3 7a5.5 5.5 0 0 0-5.5 5.5 5.5 5.5 0 0 0 5.5 5.5 5.5 5.5 0 0 0 5.5-5.5 5.5 5.5 0 0 0-5.5-5.5" style="opacity:.2"/><circle cx="17.5" cy="32.5" r="5.5" style="fill:#fcc014"/><path d="m26.2 43.8 19.6-19.6" style="fill:none;stroke:#fff;stroke-width:8.4;stroke-linecap:round;stroke-linejoin:round"/><path d="M32 4A28 28 0 0 0 4 32a28 28 0 0 0 .035.5A28 28 0 0 1 32 5a28 28 0 0 1 27.982 27.252L60 32A28 28 0 0 0 32 4" style="fill:#fff;opacity:.2"/><path d="M17.5 27a5.5 5.5 0 0 0-5.5 5.5 6 6 0 0 0 .037.5 5.5 5.5 0 0 1 5.463-5 5.5 5.5 0 0 1 5.469 4.93A6 6 0 0 0 23 32.5a5.5 5.5 0 0 0-5.5-5.5" style="fill:#fff;opacity:.2"/></svg>