<svg xmlns="http://www.w3.org/2000/svg" xml:space="preserve" width="64" height="64"><path d="M32 5C18.193 5 7 15.655 7 28.8c.008 13.018 10 24.013 23.674 24.183.249.012.333.081.331.35-.013 2.446-.006 4.914-.005 7.36 0 .096.008.189.013.307.083-.032.135-.051.185-.074 4.782-2.158 10.171-4.886 14.086-8.304a36 36 0 0 0 2.24-2.136c.308-.317.613-.64.92-.957.475-.488.887-1.034 1.335-1.548.517-.592.982-1.222 1.44-1.856a30.6 30.6 0 0 0 2.678-4.408c.384-.78.75-1.568 1.074-2.373.01-.016.025-.028.032-.044.884-2.206 1.449-4.49 1.75-6.83.05-.394.071-.79.106-1.185q.015-.163.027-.325c.025-.316.067-.63.084-.946.02-.378.024-.756.025-1.132L57 28.8l-.003-.041a22 22 0 0 0-.049-1.387l-.003-.021a23 23 0 0 0-.068-.698q-.057-.578-.146-1.154C55.004 13.755 44.457 5.013 32 5" style="opacity:.2"/><path d="M32 4C18.193 4 7 14.656 7 27.8c.008 13.018 10 24.014 23.674 24.183.249.012.333.082.331.35-.013 2.446-.006 4.915-.005 7.361 0 .095.008.188.013.306.083-.032.135-.051.185-.074 4.782-2.158 10.171-4.885 14.086-8.304a36 36 0 0 0 2.24-2.136c.308-.317.613-.64.92-.957.475-.488.887-1.033 1.335-1.547.517-.593.982-1.223 1.44-1.857a30.6 30.6 0 0 0 2.678-4.408c.384-.78.75-1.568 1.074-2.373.01-.015.025-.028.032-.044.884-2.206 1.449-4.489 1.75-6.83.05-.394.071-.79.106-1.184q.015-.163.027-.326c.025-.316.067-.63.084-.946.02-.378.024-.755.025-1.132L57 27.8l-.003-.041a22 22 0 0 0-.049-1.386q0-.012-.003-.022a23 23 0 0 0-.068-.697q-.057-.578-.146-1.154C55.004 12.755 44.457 4.013 32 4" style="fill:#119184"/><path d="M32 4C18.193 4 7 14.656 7 27.8c0 .121.011.24.018.358C7.376 15.312 18.419 5 32 5c12.457.013 23.003 8.755 24.73 20.5q.09.575.149 1.152.038.35.066.7.002.01.004.02c.023.337.03.676.035 1.015.004-.168.012-.337.012-.504L57 27.8l-.004-.043a22 22 0 0 0-.047-1.387l-.004-.02a23 23 0 0 0-.066-.699q-.06-.577-.149-1.152C55.003 12.755 44.457 4.013 32 4" style="opacity:.2;fill:#fff"/><path d="M22.125 19C19.84 19 18 20.91 18 23.285v11.43C18 37.089 19.84 39 22.125 39h13.75C38.16 39 40 37.09 40 34.715v-2.113l1 .898 5 4.5V20l-5 4.5-1 .898v-2.113C40 20.911 38.16 19 35.875 19Z" style="opacity:.2"/><rect width="22" height="20" x="18" y="18" rx="4.125" ry="4.286" style="fill:#fff"/><path d="m34.862 23.167-3.613-2.086-3.614-2.086 3.614-2.086 3.613-2.087v4.173z" style="fill:#fff" transform="matrix(1.38367 0 0 2.15693 -2.238 -12.97)"/></svg>