<svg xmlns="http://www.w3.org/2000/svg" xmlns:xlink="http://www.w3.org/1999/xlink" width="64" height="64"><defs><radialGradient xlink:href="#a" id="b" cx="16.956" cy="47.933" r="20" fx="16.956" fy="47.933" gradientTransform="rotate(-30 -281.998 225.24)scale(3.7488 4.686)" gradientUnits="userSpaceOnUse"/><linearGradient id="a"><stop offset="0" style="stop-color:#2da5ff;stop-opacity:1"/><stop offset="1" style="stop-color:#1b6bf6;stop-opacity:1"/></linearGradient></defs><path fill="#528ff5" d="M14.5 7A2.495 2.495 0 0 0 12 9.5v45c0 1.385 1.115 2.5 2.5 2.5h35c1.385 0 2.5-1.115 2.5-2.5V22L37 7Z" style="fill:url(#b)"/><path fill="#a5c5f9" d="M37 7v12.5a2.5 2.5 0 0 0 2.5 2.5H52z" style="fill:#00c8ff;fill-opacity:1;opacity:.78865628"/><path fill="#fff" d="M21 29v3h22v-3zm0 6v3h22v-3zm0 6v3h22v-3zm0 6v3h16v-3z"/></svg>