<svg xmlns="http://www.w3.org/2000/svg" width="64" height="64"><path d="m19.91 17 16.305 24.926L35.582 49h-4.523l3.445 12h21.77C58.32 61 60 59.38 60 57.395v-36.79C60 18.62 58.321 17 56.273 17Z" style="opacity:.2"/><path d="M56.275 60C58.322 60 60 58.379 60 56.394V19.606C60 17.621 58.322 16 56.275 16H19.912l16.303 24.926L34.505 60Z" style="fill:#e4e4e4"/><path d="M42 26v3h-7.138v3.003h1.219V32h9v.003h4.172c-.77 2.671-2.472 5.25-4.131 7.21-2.082-2.429-2.685-3.68-2.865-4.213h-3.06c.226.687 1.064 2.517 4.17 6.103-1.34 1.35-2.356 2.15-2.356 2.15l.938 2.892s1.417-1.202 3.19-3.056c1.78 1.901 4.077 4.186 7.046 6.911l1.831-1.901a115 115 0 0 1-7.125-6.911c2.297-2.678 4.628-6.105 5.121-9.19h4.985v.005h.006V29H45v-3Z" style="opacity:.1"/><path d="m19.91 16 .654 1h35.71C58.32 17 60 18.62 60 20.605v-1C60 17.62 58.321 16 56.273 16Z" style="opacity:.2;fill:#fff"/><path d="M44.088 48H31.06l3.445 12z" style="fill:#4352b8"/><path d="M42 25v3h-7.138v3.003h1.219V31h9v.003h4.172c-.77 2.671-2.472 5.25-4.131 7.21-2.082-2.429-2.685-3.68-2.865-4.213h-3.06c.226.687 1.064 2.517 4.17 6.103-1.34 1.35-2.356 2.15-2.356 2.15l.938 2.892s1.417-1.202 3.19-3.056c1.78 1.901 4.077 4.186 7.046 6.911l1.831-1.901a115 115 0 0 1-7.125-6.911c2.297-2.678 4.628-6.105 5.121-9.19h4.985v.005h.006V28H45v-3Z" style="fill:#5a717f"/><path d="M7.725 5C5.678 5 4 6.624 4 8.613v36.78C4 47.376 5.678 49 7.725 49h36.363L29.495 5Z" style="opacity:.2"/><path fill="#4285f4" d="M7.725 4C5.678 4 4 5.624 4 7.613v36.78C4 46.376 5.678 48 7.725 48h36.363L29.495 4Z"/><path d="M20.18 18C15.112 18 11 22.033 11 27s4.112 9 9.18 9c5.309 0 8.82-3.653 8.82-8.805 0-.503-.043-.85-.11-1.195H21v2.998l1.77.004h3.027S24.684 33.115 20 33a6 6 0 1 1 0-12 6 6 0 0 1 4.004 1.535l2.328-2.191C24.737 18.9 22.658 18 20.18 18" style="opacity:.2"/><path d="M20.18 17C15.112 17 11 21.033 11 26s4.112 9 9.18 9c5.309 0 8.82-3.653 8.82-8.805 0-.503-.043-.85-.11-1.195H21v2.998l1.77.004h3.027S24.684 32.115 20 32a6 6 0 1 1 0-12 6 6 0 0 1 4.004 1.535l2.328-2.191C24.737 17.9 22.658 17 20.18 17" style="fill:#fff"/><path d="M7.727 4C5.679 4 4 5.625 4 7.613v1C4 6.625 5.679 5 7.727 5h21.77l14.26 43h.333L29.496 4z" style="opacity:.2;fill:#fff"/></svg>