<svg xmlns="http://www.w3.org/2000/svg" width="64" height="64"><circle cx="32" cy="17" r="12" style="opacity:.2"/><path d="M28 31C16.954 31 8 39.954 8 51v4a6 6 0 0 0 6 6h30c6.648 0 12-5.352 12-12v-6c0-6.648-5.352-12-12-12Z" style="opacity:.2"/><rect width="32" height="30" x="24" y="30" rx="12" ry="12" style="fill:#578bfe"/><circle cx="32" cy="16" r="12" style="fill:#1565c0"/><path d="M28 30h6a6 6 0 0 1 6 6v18a6 6 0 0 1-6 6H14a6 6 0 0 1-6-6v-4a20 20 0 0 1 20-20" style="fill:#85a8fe"/><path d="M28 30h8a12 12 0 0 1 12 12v6a12 12 0 0 1-12 12H22a6 6 0 0 1-6-6V42a12 12 0 0 1 12-12" style="fill:#1565c0"/><path d="M28 30C16.954 30 8 38.954 8 50v1c0-11.046 8.954-20 20-20h16c6.648 0 12 5.352 12 12v-1c0-6.648-5.352-12-12-12z" style="fill:#fff;opacity:.2"/><path d="M32 4a12 12 0 0 0-12 12 12 12 0 0 0 .035.5A12 12 0 0 1 32 5a12 12 0 0 1 11.979 11.305L44 16A12 12 0 0 0 32 4" style="fill:#fff;opacity:.1"/></svg>