<svg xmlns="http://www.w3.org/2000/svg" xmlns:xlink="http://www.w3.org/1999/xlink" width="64" height="64"><defs><radialGradient xlink:href="#a" id="b" cx="11.786" cy="53.989" r="18.948" fx="11.786" fy="53.989" gradientTransform="rotate(-5.021 -1545.257 501.623)scale(3.39647 3.6652)" gradientUnits="userSpaceOnUse"/><linearGradient id="a"><stop offset="0" style="stop-color:#fd7a21;stop-opacity:1"/><stop offset="1" style="stop-color:#ff8b3d;stop-opacity:1"/></linearGradient><filter id="c" width="1.328" height="1.312" x="-.164" y="-.156" style="color-interpolation-filters:sRGB"><feGaussianBlur stdDeviation="3.12"/></filter></defs><path d="M20.254 7.672c-5.978-.126-11.409 4.777-11.408 11.064v26.626c.007 8.351 9.593 13.55 16.628 9.649l11.988-6.654 11.99-6.661.005-.003c3.513-1.955 5.697-5.871 5.697-9.649s-2.184-7.694-5.697-9.65l-.005-.001-11.99-6.66-11.974-6.646-.012-.005a11.2 11.2 0 0 0-5.188-1.41Z" style="fill:url(#b);stroke-width:1.22196"/><path d="M20.079 16.116a2.678 2.576 0 0 0-2.742 2.575V45.31a2.678 2.576 0 0 0 4.017 2.23l11.985-6.653 11.986-6.657a2.678 2.576 0 0 0 0-4.46l-11.987-6.655-11.985-6.653a2.678 2.576 0 0 0-1.276-.345z" style="opacity:.77856135;fill:#ffcc65;fill-opacity:1;stroke-width:1.22196"/><path d="M20.254 7.672c-5.978-.126-11.409 4.777-11.408 11.064v26.625c.006 8.352 9.594 13.55 16.629 9.649l11.986-6.652 11.992-6.663.004-.002c3.513-1.955 5.697-5.87 5.697-9.648s-2.184-7.695-5.697-9.65l-.004-.002-11.992-6.659-11.973-6.648-.011-.004a11.24 11.24 0 0 0-5.19-1.41Zm-.176 8.443v.002a2.678 2.576 0 0 1 1.276.346l11.984 6.652 11.986 6.655a2.678 2.576 0 0 1 0 4.46L33.34 40.888 21.354 47.54a2.678 2.576 0 0 1-4.018-2.228V18.69a2.678 2.576 0 0 1 2.742-2.576z" style="fill:none;stroke:#000;stroke-width:.2;stroke-dasharray:none;stroke-opacity:1;filter:url(#c)"/></svg>