<svg xmlns="http://www.w3.org/2000/svg" width="64" height="64"><path d="M32 5c-11.04 0-20 8.96-20 20 0 14 18.196 27.078 18 34 0 0 0 2.02 2 2 2.04 0 2-2 2-2 0-7 18-20 18-34 0-11.04-8.96-20-20-20" style="opacity:.2"/><path d="M37.852 4.875A20 20 0 0 0 32 4c-6.172 0-11.69 2.804-15.359 7.203L32 30Z" style="fill:#0079e1"/><path d="M49.996 15.32 32 24l-8.71 22.48C26.946 51.122 30.082 55.116 30 58c0 0 0 2.02 2 2 2.04 0 2-2 2-2 0-4.752 8.286-12.272 13.614-20.988C50.134 32.886 52 28.496 52 24c0-3.114-.732-6.051-2.004-8.68" style="fill:#00a85c"/><path d="M49.996 15.32c-2.404-4.971-6.79-8.807-12.144-10.445l-12 14 12.304 10.257Z" style="fill:#008bed"/><path d="m25.852 18.875-9.211-7.672A19.9 19.9 0 0 0 12 24c0 2.928.825 5.81 2.082 8.61Z" style="fill:#fa373c"/><path d="M38.156 29.132 25.852 18.875 14.082 32.61c2.25 5.01 5.922 9.7 9.208 13.87Z" style="fill:#ffb83f"/><circle cx="32" cy="25" r="8" style="opacity:.2"/><circle cx="32" cy="24" r="8" style="fill:#fff"/><path d="M32 4c-11.04 0-20 8.96-20 20 0 .127.013.254.016.381C12.344 13.628 21.168 5 32 5c10.835 0 19.66 8.632 19.984 19.389.003-.13.016-.259.016-.389 0-11.04-8.96-20-20-20" style="opacity:.2;fill:#fff"/></svg>