<svg xmlns="http://www.w3.org/2000/svg" width="64" height="64"><path d="M9 8a4 4 0 0 0-4 4v28a4 4 0 0 0 4 4h32a4 4 0 0 0 4-4V12a4 4 0 0 0-4-4Zm4 8h24v20H13Zm37 1a2 2 0 0 0-2 2v28H14a2 2 0 0 0-2 2 2 2 0 0 0 2 2h36a2 2 0 0 0 2-2V19a2 2 0 0 0-2-2m7 7a2 2 0 0 0-2 2v28H21a2 2 0 0 0-2 2 2 2 0 0 0 2 2h36a2 2 0 0 0 2-2V26a2 2 0 0 0-2-2" style="opacity:.2"/><path d="M14 48h36V18" style="fill:none;stroke:#e4e4e4;stroke-width:4;stroke-linecap:round;stroke-linejoin:round"/><path d="M9 11h32v28H9Z" style="fill:none;stroke:#e4e4e4;stroke-width:8;stroke-linecap:round;stroke-linejoin:round"/><path d="M21 55h36V25" style="fill:none;stroke:#e4e4e4;stroke-width:4;stroke-linecap:round;stroke-linejoin:round"/><path d="M9 11h32v28H9z" style="fill:#3f3f3f"/><path d="M9 7a4 4 0 0 0-4 4v1a4 4 0 0 1 4-4h32a4 4 0 0 1 4 4v-1a4 4 0 0 0-4-4Zm41 9a2 2 0 0 0-2 2v1a2 2 0 0 1 4 0v-1a2 2 0 0 0-2-2m7 7a2 2 0 0 0-2 2v1a2 2 0 0 1 4 0v-1a2 2 0 0 0-2-2M14 46a2 2 0 0 0-2 2 2 2 0 0 0 .133.5A2 2 0 0 1 14 47h34v-1zm7 7a2 2 0 0 0-2 2 2 2 0 0 0 .133.5A2 2 0 0 1 21 54h34v-1z" style="opacity:.2;fill:#fff"/><path d="M9 11h32v1H9z" style="opacity:.2"/></svg>