<svg xmlns="http://www.w3.org/2000/svg" width="64" height="64"><path d="m21.185 4.544 10 5.774v11.547l-10 5.773-10-5.773V10.318z" style="opacity:.2" transform="matrix(1.4 0 0 1.3943 16.34 22.464)"/><path d="m21.185 4.544 10 5.774v11.547l-10 5.773-10-5.773V10.318z" style="opacity:.2" transform="matrix(1.4 0 0 1.3943 -11.66 22.464)"/><path d="m21.185 4.544 10 5.774v11.547l-10 5.773-10-5.773V10.318z" style="fill:#6e7e87" transform="matrix(1.4 0 0 1.3943 16.34 21.464)"/><path d="m46 27.8 14 8.05v16.1L46 60Z" style="opacity:.25"/><path d="m46 27.8-14 8.05 14 8.05 14-8.05Z" style="fill:#83929a"/><path d="m21.185 4.544 10 5.774v11.547l-10 5.773-10-5.773V10.318z" style="fill:#2f5d7c" transform="matrix(1.4 0 0 1.3943 -11.66 21.464)"/><path d="m18 27.8 14 8.05v16.1L18 60Z" style="opacity:.2"/><path d="M18 27.8 4 35.85l14 8.05 14-8.05Z" style="fill:#366a90"/><path d="m21.185 4.544 10 5.774v11.547l-10 5.773-10-5.773V10.318z" style="opacity:.2" transform="matrix(1.4 0 0 1.3943 2.34 -1.336)"/><path d="m21.185 4.544 10 5.774v11.547l-10 5.773-10-5.773V10.318z" style="fill:#447ede" transform="matrix(1.4 0 0 1.3943 2.34 -2.336)"/><path d="m32 4 14 8.05v16.1L32 36.2Z" style="opacity:.2"/><path d="m32 4-14 8.05 14 8.05 14-8.05Z" style="fill:#649cff"/><path d="m32.87 36.35-.87.5 14 8.05 14-8.05-.87-.5L46 43.9Zm-28 0-.87.5 14 8.05 14-8.05-.87-.5L18 43.9Zm14-23.8-.87.5 14 8.05 14-8.05-.87-.5L32 20.1Z" style="opacity:.1"/><path d="M46 27.8v1l13.13 7.55.87-.5zm-28 0L4 35.85l.87.5L18 28.8z" style="opacity:.1;fill:#fff"/><path d="m32 4-14 8.05.87.5L32 5l13.13 7.55.87-.5z" style="opacity:.2;fill:#fff"/></svg>