<svg xmlns="http://www.w3.org/2000/svg" width="64" height="64"><path d="M4.051 12.777c-.531 11.947 7.74 36.357 16.585 44.067 7.15 6.23 17.563 6.615 29.509-6.965 7.304-8.304 10.167-15.451 9.804-21.386-.325 5.521-3.303 11.996-9.804 19.387-11.946 13.578-22.359 13.194-29.509 6.964C12.257 47.54 4.407 25.266 4.051 12.777" style="opacity:.2"/><path d="M50.145 48.878c-11.946 13.58-22.359 13.196-29.507 6.966C9.91 46.494-.016 12.526 5.644 6.094 11.302-.34 46.92 9.449 54.556 16.568c7.637 7.12 8.162 18.015-4.412 32.31z" style="fill:#4f4f4f"/><path d="M13.05 4.002c-3.497.052-6.168.685-7.405 2.092-1.184 1.346-1.646 3.948-1.598 7.23.055-2.81.536-5.024 1.598-6.23 1.414-1.608 4.699-2.203 8.953-2.078h.002c12.762.372 34.227 7.215 39.955 12.554 3.318 3.092 5.272 6.905 5.412 11.393.14-4.924-1.85-9.074-5.412-12.393C48.827 11.23 27.362 4.388 14.6 4.016h-.002a35 35 0 0 0-1.547-.014" style="opacity:.1;fill:#fff"/><path d="M25.037 25q-4.245 0-6.646 2.38Q16 29.753 16 34.007q.001 4.24 2.39 6.623 2.402 2.37 6.647 2.371 1.942 0 3.652-.488c1.14-.333 2.365-.822 3.311-1.465V33h-7v2h4.992v5.188a6.6 6.6 0 0 1-1.832.673c-.68.14-2.05.21-2.916.21-2.216 0-4.382-.593-5.498-1.778C18.638 38.108 18 36.345 18 34.006c0-2.348.638-4.114 1.746-5.299 1.116-1.185 3.282-1.78 5.498-1.78 1.124 0 1.895.188 2.914.56 1.019.371 1.935.926 2.842 1.661v-2.5a10.8 10.8 0 0 0-2.902-1.23c-1.06-.279-1.88-.418-3.06-.418M36 25v18h2v-7h3.531c2.03-.018 3.864-.41 4.899-1.285q1.564-1.313 1.564-3.881c0-1.697-.521-3.584-1.564-4.459-1.035-.883-2.87-1.375-4.9-1.375zm2 2.002h3.701c1.37-.036 2.43.278 3.178.834S46 29.77 46 30.79q0 1.542-1.121 2.375Q43.756 34 41.7 34H38z" style="opacity:.2"/><path d="M25.037 24q-4.245 0-6.646 2.38Q16 28.753 16 33.007q.001 4.24 2.39 6.623 2.402 2.37 6.647 2.371 1.942 0 3.652-.488c1.14-.333 2.365-.822 3.311-1.465V32h-7v2h4.992v5.188a6.6 6.6 0 0 1-1.832.673c-.68.14-2.05.21-2.916.21-2.216 0-4.382-.593-5.498-1.778C18.638 37.108 18 35.345 18 33.006c0-2.348.638-4.114 1.746-5.299 1.116-1.185 3.282-1.78 5.498-1.78 1.124 0 1.895.188 2.914.56 1.019.371 1.935.926 2.842 1.661v-2.5a10.8 10.8 0 0 0-2.902-1.23c-1.06-.279-1.88-.418-3.06-.418" style="fill:#fff"/><path d="M36 24v18h2v-7h3.531c2.03-.018 3.864-.41 4.899-1.285q1.564-1.313 1.564-3.881c0-1.697-.521-3.584-1.564-4.459-1.035-.883-2.87-1.375-4.9-1.375zm2 2.002h3.701c1.37-.036 2.43.278 3.178.834S46 28.77 46 29.79q0 1.542-1.121 2.375Q43.756 33 41.7 33H38z" style="fill:#f14649"/></svg>