<svg xmlns="http://www.w3.org/2000/svg" width="64" height="64"><path d="M4 56v2c0 1.662 1.338 3 3 3h50c1.662 0 3-1.338 3-3v-2c0 1.662-1.338 3-3 3H7c-1.662 0-3-1.338-3-3" style="opacity:.2"/><rect width="56" height="56" x="4" y="4" rx="3" ry="3" style="fill:#fabd7f"/><path d="M7 4C5.338 4 4 5.338 4 7v1c0-1.662 1.338-3 3-3h50c1.662 0 3 1.338 3 3V7c0-1.662-1.338-3-3-3z" style="opacity:.1;fill:#fff"/><path d="M29.144 12c-.791 0-1.134.687-1.144 1.54V38h-6l10 14 10-14h-6V13.54c0-.852-.355-1.539-1.145-1.539z" style="fill:#3f3f3f"/><rect width="28" height="28" x="-63" y="-64" rx="1.5" ry="1.5" style="opacity:.2" transform="rotate(90)scale(-1 1)"/><rect width="28" height="28" x="-62" y="-64" rx="1.5" ry="1.5" style="fill:#e4e4e4" transform="rotate(90)scale(-1 1)"/><path d="M41 39v4h18v-4zm0 7v4h18v-4zm0 7v4h18v-4z" style="fill:#3f3f3f"/></svg>