<svg xmlns="http://www.w3.org/2000/svg" width="64" height="64"><path d="M13.91 9a1.97 1.97 0 0 0-1.398.583l-3.965 3.965-3.965 3.964a1.973 1.973 0 0 0 0 2.797l3.965 3.965 5.363 5.363 5.363 5.364 5.364-5.364L30 24.274l-5.363-5.363-5.364-5.363-3.964-3.965A1.97 1.97 0 0 0 13.91 9m26.817 26-5.364 5.364L30 45.727l5.363 5.364 5.364 5.363 3.964 3.965a1.973 1.973 0 0 0 2.797 0l3.965-3.965 3.965-3.965a1.973 1.973 0 0 0 0-2.797l-3.965-3.965-5.363-5.363z" style="opacity:.2"/><circle cx="-18.286" cy="45.962" r="5.57" style="opacity:.2" transform="rotate(-45)"/><path d="M13.91 8.645c-.338 0-.675.132-.94.396l-7.929 7.927a1.315 1.315 0 0 0 0 1.881l40.11 40.11a1.315 1.315 0 0 0 1.881 0l7.927-7.927a1.315 1.315 0 0 0 0-1.881L14.849 9.044a1.33 1.33 0 0 0-.939-.4" style="fill:#0e427e"/><path d="M2.447 12.546a1.52 1.52 0 0 0 0 2.153l3.05 3.05 4.126-4.126-4.126-4.126Z" style="fill:#1565c0" transform="matrix(1.3 0 0 1.3 1.4 .2)"/><path d="M-8.66 22.27h5.835v5.835H-8.66z" style="fill:#1565c0" transform="matrix(1 -1 1 1 1.4 .2)"/><path d="M-2.83 22.27h5.835v5.835H-2.83z" style="fill:#039be5" transform="matrix(1 -1 1 1 1.4 .2)"/><path d="M-3.01 16.44h5.835v5.835H-3.01z" style="fill:#1565c0" transform="rotate(135 .659 .39)scale(1.3 -1.3)"/><path d="M2.83 16.44h5.835v5.835H2.83z" style="fill:#039be5" transform="rotate(135 .659 .39)scale(1.3 -1.3)"/><path d="m5.497 9.497 4.126 4.126 4.125-4.126-3.05-3.05a1.52 1.52 0 0 0-2.152 0zm24.755 33.006 3.05 3.05a1.52 1.52 0 0 0 2.152 0l3.05-3.05-4.127-4.126z" style="fill:#039be5" transform="matrix(1.3 0 0 1.3 1.4 .2)"/><path d="m34.377 38.377 4.126 4.126 3.05-3.05a1.52 1.52 0 0 0 0-2.152l-3.05-3.05Z" style="fill:#1565c0" transform="matrix(1.3 0 0 1.3 1.4 .2)"/><path d="M-3.01 45.61h5.835v5.835H-3.01z" style="fill:#039be5" transform="rotate(135 .659 .39)scale(1.3 -1.3)"/><path d="M2.83 45.61h5.835v5.835H2.83z" style="fill:#1565c0" transform="rotate(135 .659 .39)scale(1.3 -1.3)"/><path d="M-8.66 39.78h5.835v5.835H-8.66z" style="fill:#039be5" transform="matrix(1 -1 1 1 1.4 .2)"/><path d="M-2.83 39.78h5.835v5.835H-2.83z" style="fill:#1565c0" transform="matrix(1 -1 1 1 1.4 .2)"/><circle cx="-17.579" cy="45.255" r="5.57" style="fill:#455a64" transform="rotate(-45)"/><path d="M76.263 24 24 48.275l-47.154 33.123L-18.045 24l-5.11-57.398L24-.275z" style="fill:#455a64" transform="rotate(-45 40.725 -46.903)scale(.16658 .11335)"/><circle cx="33.234" cy="45.962" r="4" style="opacity:.2" transform="rotate(-45)"/><circle cx="33.941" cy="45.255" r="4" style="fill:#607d8b" transform="rotate(-45)"/><rect width="15.342" height="31.017" x="38.29" y="-13.79" rx="2.668" ry="2.668" style="opacity:.2" transform="rotate(45)"/><rect width="15.342" height="31.017" x="37.58" y="-14.5" rx="2.668" ry="2.668" style="fill:#607d8b" transform="rotate(45)"/><path d="M61.613 26.262c-6.317 6.317-16.558 6.317-22.875 0s-6.317-16.558 0-22.875z" style="opacity:.2"/><path d="M61.613 25.262c-6.317 6.317-16.558 6.317-22.875 0s-6.317-16.558 0-22.875z" style="fill:#e4e4e4"/><path d="M56.059 4a4 4 0 0 0-2.887 1.172 4 4 0 0 0-1.135 3.34 4 4 0 0 1 1.135-2.34A4 4 0 0 1 56.059 5a4 4 0 0 1 2.77 1.172 4 4 0 0 1 1.134 2.32 4 4 0 0 0-1.135-3.32A4 4 0 0 0 56.058 4" style="opacity:.1;fill:#fff"/><path d="M13.91 8c-.506 0-1.013.194-1.4.582l-3.965 3.963-3.963 3.965a1.97 1.97 0 0 0-.508 1.9c.086-.328.25-.642.508-.9l3.963-3.965 3.965-3.963a1.976 1.976 0 0 1 2.799 0l3.964 3.963 5.364 5.365 4.863 4.863.5-.5-5.363-5.363-5.364-5.365-3.964-3.963A1.97 1.97 0 0 0 13.91 8m27.377 26.56-.5.5 5.303 5.303 5.365 5.364 3.963 3.964c.258.259.422.573.508.9a1.97 1.97 0 0 0-.508-1.9l-3.963-3.964-5.365-5.364z" style="opacity:.2;fill:#fff"/></svg>