<svg xmlns="http://www.w3.org/2000/svg" width="64" height="64"><circle cx="32.5" cy="32.5" r="28.5" style="opacity:.2"/><circle cx="32.5" cy="31.5" r="28.5" style="fill:#3f3f3f"/><path d="M23.193 19c-1.936 0-3.928.225-5.3 1.693-.686.734-1.067 1.818-1.002 2.926s.486 2.25 1.228 3.535L31.195 50.24a1.5 1.5 0 0 0 2.616-.01l13.271-23.78c.959-1.66 1.523-3.525.588-5.175S44.732 19 42.092 19zm0 3H31v21.808L20.723 25.666l-.006-.012c-.593-1.027-.807-1.778-.832-2.21-.026-.434.048-.538.2-.702.308-.328 1.537-.742 3.108-.742M34 22h8.092c2.16 0 2.84.527 2.969.754.128.227.137.962-.577 2.197l-.011.02L34 43.733Z" style="opacity:.2"/><path d="M32.5 48.5 19.418 25.404c-2.67-4.625.269-5.904 3.776-5.904h18.899c4.8 0 5.362 2.306 3.69 5.201z" style="fill:none;stroke:#fff;stroke-width:3;stroke-linecap:round;stroke-linejoin:round"/><path d="M31 19.59h3v28.283h-3z" style="fill:#fff"/><path d="M32.5 3A28.5 28.5 0 0 0 4 31.5a29 29 0 0 0 .021.582A28.5 28.5 0 0 1 32.5 4a28.5 28.5 0 0 1 28.479 27.918L61 31.5A28.5 28.5 0 0 0 32.5 3" style="fill:#fff;opacity:.1"/></svg>