<svg xmlns="http://www.w3.org/2000/svg" width="64" height="64"><path d="M4 56.2v2C4 59.75 5.25 61 6.8 61h50.4c1.55 0 2.8-1.25 2.8-2.8v-2c0 1.55-1.25 2.8-2.8 2.8H6.8C5.25 59 4 57.75 4 56.2" style="opacity:.2"/><rect width="56" height="56" x="4" y="4" rx="2.8" ry="2.8" style="fill:#ac8a78"/><path d="M21 30V19h24v11M27 44V31h24v13" style="fill:none;stroke:#494949;stroke-width:1.99997139"/><path d="M15 44V31h24v13" style="fill:none;stroke:#494949;stroke-width:1.99997139"/><path d="M12 41h6v8h-6zm12 0h6v8h-6zm12 0h6v8h-6zm-6-26h6v8h-6zM18 27h6v8h-6zm24 0h6v8h-6zm6 14h6v8h-6z" style="opacity:.2"/><path d="M12 40h6v8h-6zm12 0h6v8h-6zm12 0h6v8h-6zm-6-26h6v8h-6zM18 26h6v8h-6zm24 0h6v8h-6zm6 14h6v8h-6z" style="fill:#fff"/><path d="M6.8 4C5.25 4 4 5.25 4 6.8v1.003a2.796 2.796 0 0 1 2.8-2.801h50.4c1.55 0 2.8 1.25 2.8 2.8v-1A2.796 2.796 0 0 0 57.2 4z" style="opacity:.2;fill:#fff"/></svg>