<svg xmlns="http://www.w3.org/2000/svg" width="64" height="64"><path d="M16.466 5.001a.99.99 0 0 0-1 .727l-5.719 21.3a.983.983 0 0 0 .7 1.203l16.385 4.312a.98.98 0 0 0 1.2-.676c.534-1.994 2.1-3.071 4.163-2.984q.064.004.13.016l.815.132 21.3 5.43h.004a.986.986 0 0 0 1.203-.703l4.317-16.09.004-.003a.985.985 0 0 0-.704-1.203L16.661 5.032a1 1 0 0 0-.195-.03m-7.11 26.51a.99.99 0 0 0-1.007.735L4.032 48.343v.004a.986.986 0 0 0 .704 1.203l42.603 11.417h.004a.986.986 0 0 0 1.203-.703l5.703-21.288v-.008a.98.98 0 0 0-.703-1.199l-16.374-4.316a.986.986 0 0 0-1.204.684v.004c-.63 2.348-2.765 3.458-5.113 2.828l-21.3-5.426h-.003a1 1 0 0 0-.196-.031" style="opacity:.2"/><path d="m16.662 4.033 42.601 11.43a.985.985 0 0 1 .702 1.208l-4.318 16.088a.985.985 0 0 1-1.202.703h-.004l-21.3-5.429-.819-.133a1 1 0 0 0-.126-.014c-2.062-.087-3.63.99-4.164 2.983a.98.98 0 0 1-1.2.677l-16.385-4.313a.985.985 0 0 1-.702-1.202v-.002L15.467 4.73a.987.987 0 0 1 1.196-.697" style="fill:#a058ea"/><path d="M53.547 36.77a.985.985 0 0 1 .702 1.206l-5.705 21.29a.984.984 0 0 1-1.202.701h-.002L4.736 48.55a.985.985 0 0 1-.702-1.204l4.313-16.1a.987.987 0 0 1 1.207-.702l21.302 5.428c2.348.63 4.481-.482 5.112-2.83v-.004a.985.985 0 0 1 1.203-.683z" style="fill:#00a0fd"/><path d="M16.465 4.002a.99.99 0 0 0-1 .727l-5.717 21.3a.94.94 0 0 0 .086.684l5.63-20.983a.99.99 0 0 1 1.196-.695l42.604 11.428a.98.98 0 0 1 .62.498l.079-.291.004-.004a.986.986 0 0 0-.703-1.203L16.66 4.033a1 1 0 0 0-.195-.031M9.357 30.514a.99.99 0 0 0-1.007.734L4.033 47.344v.004a.94.94 0 0 0 .086.677l4.23-15.777a.987.987 0 0 1 1.204-.703h.004l21.298 5.426c2.348.63 4.483-.48 5.114-2.828v-.004a.986.986 0 0 1 1.203-.684l16.373 4.316a.98.98 0 0 1 .625.502l.078-.294v-.008a.98.98 0 0 0-.703-1.2l-16.373-4.316a.986.986 0 0 0-1.203.684v.004c-.63 2.348-2.766 3.458-5.114 2.828L9.557 30.545h-.004a1 1 0 0 0-.196-.031" style="opacity:.2;fill:#fff"/></svg>