<svg xmlns="http://www.w3.org/2000/svg" xmlns:xlink="http://www.w3.org/1999/xlink" width="64" height="64"><defs><radialGradient xlink:href="#a" id="c" cx="15.809" cy="29.039" r="25.143" fx="15.809" fy="29.039" gradientTransform="rotate(-15 -5.942 82.722)scale(1.90165 1.11532)" gradientUnits="userSpaceOnUse"/><radialGradient xlink:href="#b" id="d" cx="6.799" cy="49.263" r="25.141" fx="6.799" fy="49.263" gradientTransform="matrix(2.2116 0 0 1.29706 -8.238 -16.292)" gradientUnits="userSpaceOnUse"/><linearGradient id="b"><stop offset="0" style="stop-color:#00d4fd;stop-opacity:1"/><stop offset="1" style="stop-color:#005dd9;stop-opacity:1"/></linearGradient><linearGradient id="a"><stop offset="0" style="stop-color:#00f0ff;stop-opacity:1"/><stop offset="1" style="stop-color:#00ffbe;stop-opacity:1"/></linearGradient><filter id="f" width="1.271" height="1.462" x="-.135" y="-.231" style="color-interpolation-filters:sRGB"><feGaussianBlur stdDeviation="2.629"/></filter><filter id="e" width="1.271" height="1.462" x="-.135" y="-.231" style="color-interpolation-filters:sRGB"><feGaussianBlur stdDeviation="2.629"/></filter></defs><path d="M16.467 4.004a.99.99 0 0 0-1 .726l-5.72 21.3v.001a.985.985 0 0 0 .7 1.203l16.385 4.311a.98.98 0 0 0 1.2-.676l.025-.082.393-1.47a2.45 2.45 149.998 0 1 3-1.732l1.65.442.04.006 21.301 5.428.004.002a.986.986 0 0 0 1.203-.703l4.317-16.088.002-.006a.986.986 0 0 0-.703-1.203L16.662 4.033a1 1 0 0 0-.195-.03" style="fill:url(#c)" transform="translate(3.285 3.254)scale(.8981)"/><path d="M9.355 30.512a.99.99 0 0 0-1.007.734l-4.313 16.1-.002.002a.986.986 0 0 0 .703 1.203L47.34 59.967h.002a.985.985 0 0 0 1.203-.701l5.703-21.29.002-.005a.984.984 0 0 0-.703-1.202L37.17 32.455a.984.984 0 0 0-1.201.684v.002l-.037.117-.356 1.326a2.553 2.553 149.989 0 1-3.125 1.805l-1.367-.366q-.114-.023-.229-.052l-21.3-5.428h-.002a1 1 0 0 0-.198-.031" style="fill:url(#d)" transform="translate(3.261 3.225)scale(.8981)"/><path d="M16.467 4.004a.99.99 0 0 0-1 .726l-5.72 21.3v.001a.985.985 0 0 0 .7 1.203l16.385 4.311a.98.98 0 0 0 1.2-.676l.025-.082.393-1.47a2.45 2.45 149.998 0 1 3-1.732l1.65.442.04.006 21.301 5.428.004.002a.986.986 0 0 0 1.203-.703l4.317-16.088.002-.006a.986.986 0 0 0-.703-1.203L16.662 4.033a1 1 0 0 0-.195-.03z" style="mix-blend-mode:normal;fill:none;stroke:#000;stroke-opacity:1;filter:url(#e)" transform="translate(3.262 3.194)scale(.8981)"/><path d="M9.355 30.512a.99.99 0 0 0-1.007.734l-4.313 16.1-.002.002a.986.986 0 0 0 .703 1.203L47.34 59.967h.002a.985.985 0 0 0 1.203-.701l5.703-21.29.002-.005a.984.984 0 0 0-.703-1.202L37.17 32.455a.984.984 0 0 0-1.201.684v.002l-.037.117-.356 1.326a2.553 2.553 149.989 0 1-3.125 1.805l-1.367-.366q-.114-.023-.229-.052l-21.3-5.428h-.002a1 1 0 0 0-.198-.031z" style="mix-blend-mode:normal;fill:none;stroke:#000;stroke-opacity:1;filter:url(#f)" transform="translate(3.262 3.194)scale(.8981)"/></svg>