<svg xmlns="http://www.w3.org/2000/svg" xmlns:xlink="http://www.w3.org/1999/xlink" width="64" height="64"><defs><filter id="f" width="1.328" height="1.312" x="-.164" y="-.156" style="color-interpolation-filters:sRGB"><feGaussianBlur stdDeviation="3.12"/></filter><filter id="q" width="1.069" height="1.066" x="-.035" y="-.033" style="color-interpolation-filters:sRGB"><feGaussianBlur stdDeviation="1.315"/></filter><filter id="i" width="1.215" height="1.199" x="-.108" y="-.099" style="color-interpolation-filters:sRGB"><feGaussianBlur stdDeviation="1.315"/></filter><filter id="j" width="1.328" height="1.312" x="-.164" y="-.156" style="color-interpolation-filters:sRGB"><feGaussianBlur stdDeviation="3.12"/></filter><filter id="m" width="1.215" height="1.199" x="-.108" y="-.099" style="color-interpolation-filters:sRGB"><feGaussianBlur stdDeviation="1.315"/></filter><filter id="n" width="1.328" height="1.312" x="-.164" y="-.156" style="color-interpolation-filters:sRGB"><feGaussianBlur stdDeviation="3.12"/></filter><filter id="o" width="1.328" height="1.312" x="-.164" y="-.156" style="color-interpolation-filters:sRGB"><feGaussianBlur stdDeviation="3.12"/></filter><radialGradient xlink:href="#a" id="p" cx="45.375" cy="9.674" r="14.663" fx="45.375" fy="9.674" gradientTransform="rotate(120 216.575 -24.638)scale(8.2605 8.94856)" gradientUnits="userSpaceOnUse"/><radialGradient xlink:href="#b" id="e" cx="7.35" cy="73.637" r="18.948" fx="7.35" fy="73.637" gradientTransform="matrix(3.66051 0 0 3.84656 -36.122 -212.675)" gradientUnits="userSpaceOnUse"/><radialGradient xlink:href="#c" id="g" cx="11.758" cy="53.963" r="18.948" fx="11.758" fy="53.963" gradientTransform="matrix(1.74251 0 0 1.83108 14.512 -68.667)" gradientUnits="userSpaceOnUse"/><radialGradient xlink:href="#d" id="h" cx="34.448" cy="13.722" r="14.663" fx="34.448" fy="13.722" gradientTransform="rotate(120 99.572 11.123)scale(3.71015 4.01918)" gradientUnits="userSpaceOnUse"/><radialGradient xlink:href="#c" id="k" cx="11.758" cy="53.963" r="18.948" fx="11.758" fy="53.963" gradientTransform="matrix(1.74251 0 0 1.83108 -16.203 -36.776)" gradientUnits="userSpaceOnUse"/><radialGradient xlink:href="#d" id="l" cx="34.448" cy="13.722" r="14.663" fx="34.448" fy="13.722" gradientTransform="rotate(120 99.572 11.123)scale(3.71015 4.01918)" gradientUnits="userSpaceOnUse"/><linearGradient id="a"><stop offset="0" style="stop-color:#000;stop-opacity:1"/><stop offset="1" style="stop-color:#00ffef;stop-opacity:1"/></linearGradient><linearGradient id="b"><stop offset="0" style="stop-color:#90e3e7;stop-opacity:1"/><stop offset="1" style="stop-color:#81befe;stop-opacity:1"/></linearGradient><linearGradient id="d"><stop offset="0" style="stop-color:#000;stop-opacity:1"/><stop offset="1" style="stop-color:#00ff7e;stop-opacity:1"/></linearGradient><linearGradient id="c"><stop offset="0" style="stop-color:#c090e7;stop-opacity:1"/><stop offset="1" style="stop-color:#8281fe;stop-opacity:1"/></linearGradient></defs><path d="M10.773 3.9c-2.986-.063-5.7 2.387-5.699 5.528V22.73c.004 4.173 4.792 6.77 8.307 4.82l5.99-3.323 5.99-3.329.002-.002c1.755-.976 2.846-2.933 2.846-4.82s-1.09-3.843-2.846-4.82l-.002-.002-5.99-3.326-5.982-3.32-.006-.003A5.6 5.6 0 0 0 10.79 3.9zM41.49 35.791c-2.986-.063-5.7 2.386-5.699 5.527v13.303c.003 4.172 4.792 6.77 8.307 4.82l5.988-3.324 5.99-3.328.004-.002c1.755-.977 2.846-2.933 2.846-4.82s-1.09-3.844-2.846-4.82h-.004l-5.99-3.329-5.98-3.32-.008-.002a5.6 5.6 0 0 0-2.592-.705z" style="fill:url(#e);stroke-width:.610471"/><path d="M10.686 8.12a1.338 1.287 0 0 0-1.37 1.286v13.298a1.338 1.287 0 0 0 2.008 1.114l5.987-3.324L23.3 17.17a1.338 1.287 0 0 0 0-2.228l-5.989-3.325-5.987-3.324a1.338 1.287 0 0 0-.637-.172Z" style="opacity:.349788;fill:#000;fill-opacity:1;stroke-width:.610471"/><path d="M20.254 7.672c-5.978-.126-11.409 4.777-11.408 11.064v26.625c.006 8.352 9.594 13.55 16.629 9.649l11.986-6.652 11.992-6.663.004-.002c3.513-1.955 5.697-5.87 5.697-9.648s-2.184-7.695-5.697-9.65l-.004-.002-11.992-6.659-11.973-6.648-.011-.004a11.24 11.24 0 0 0-5.19-1.41Zm-.176 8.443v.002a2.678 2.576 0 0 1 1.276.346l11.984 6.652 11.986 6.655a2.678 2.576 0 0 1 0 4.46L33.34 40.888 21.354 47.54a2.678 2.576 0 0 1-4.018-2.228V18.69a2.678 2.576 0 0 1 2.742-2.576z" style="fill:none;stroke:#000;stroke-width:.2;stroke-dasharray:none;stroke-opacity:1;filter:url(#f)" transform="translate(.655 .068)scale(.49958)"/><path d="M41.49 3.9c-2.987-.062-5.7 2.387-5.7 5.528V22.73c.004 4.172 4.793 6.77 8.307 4.82l5.99-3.324 5.99-3.328h.002c1.755-.978 2.846-2.934 2.846-4.821 0-1.888-1.09-3.844-2.846-4.82l-.002-.002-5.99-3.327-5.982-3.32-.006-.003a5.6 5.6 0 0 0-2.592-.704Z" style="fill:url(#g);stroke-width:.610471"/><path d="M41.402 8.12a1.338 1.287 0 0 0-1.37 1.286v13.298a1.338 1.287 0 0 0 2.007 1.114l5.988-3.324 5.988-3.325a1.338 1.287 0 0 0 0-2.228l-5.989-3.325-5.987-3.324a1.338 1.287 0 0 0-.638-.172Z" style="opacity:.349788;fill:#000;fill-opacity:1;stroke-width:.610471"/><path d="M20.079 16.116a2.678 2.576 0 0 0-2.742 2.575V45.31a2.678 2.576 0 0 0 4.017 2.23l11.985-6.653 11.986-6.657a2.678 2.576 0 0 0 0-4.46l-11.987-6.655-11.985-6.653a2.678 2.576 0 0 0-1.276-.345z" style="opacity:.277856;fill:url(#h);stroke-width:1.22196;filter:url(#i)" transform="translate(31.371 .068)scale(.49958)"/><path d="M20.254 7.672c-5.978-.126-11.409 4.777-11.408 11.064v26.625c.006 8.352 9.594 13.55 16.629 9.649l11.986-6.652 11.992-6.663.004-.002c3.513-1.955 5.697-5.87 5.697-9.648s-2.184-7.695-5.697-9.65l-.004-.002-11.992-6.659-11.973-6.648-.011-.004a11.24 11.24 0 0 0-5.19-1.41Zm-.176 8.443v.002a2.678 2.576 0 0 1 1.276.346l11.984 6.652 11.986 6.655a2.678 2.576 0 0 1 0 4.46L33.34 40.888 21.354 47.54a2.678 2.576 0 0 1-4.018-2.228V18.69a2.678 2.576 0 0 1 2.742-2.576z" style="fill:none;stroke:#000;stroke-width:.2;stroke-dasharray:none;stroke-opacity:1;filter:url(#j)" transform="translate(31.371 .068)scale(.49958)"/><path d="M10.774 35.791c-2.986-.063-5.7 2.387-5.7 5.528v13.302c.004 4.172 4.793 6.77 8.308 4.82l5.989-3.324 5.99-3.328.002-.001c1.755-.977 2.846-2.933 2.846-4.82s-1.09-3.844-2.846-4.821l-.002-.001-5.99-3.327-5.982-3.32-.006-.003a5.6 5.6 0 0 0-2.592-.705z" style="fill:url(#k);stroke-width:.610471"/><path d="M10.686 40.01a1.338 1.287 0 0 0-1.37 1.287v13.298a1.338 1.287 0 0 0 2.008 1.114l5.987-3.324L23.3 49.06a1.338 1.287 0 0 0 0-2.229l-5.989-3.324-5.987-3.324a1.338 1.287 0 0 0-.637-.173z" style="opacity:.349788;fill:#000;fill-opacity:1;stroke-width:.610471"/><path d="M20.079 16.116a2.678 2.576 0 0 0-2.742 2.575V45.31a2.678 2.576 0 0 0 4.017 2.23l11.985-6.653 11.986-6.657a2.678 2.576 0 0 0 0-4.46l-11.987-6.655-11.985-6.653a2.678 2.576 0 0 0-1.276-.345z" style="opacity:.277856;fill:url(#l);stroke-width:1.22196;filter:url(#m)" transform="translate(.655 31.959)scale(.49958)"/><path d="M20.254 7.672c-5.978-.126-11.409 4.777-11.408 11.064v26.625c.006 8.352 9.594 13.55 16.629 9.649l11.986-6.652 11.992-6.663.004-.002c3.513-1.955 5.697-5.87 5.697-9.648s-2.184-7.695-5.697-9.65l-.004-.002-11.992-6.659-11.973-6.648-.011-.004a11.24 11.24 0 0 0-5.19-1.41Zm-.176 8.443v.002a2.678 2.576 0 0 1 1.276.346l11.984 6.652 11.986 6.655a2.678 2.576 0 0 1 0 4.46L33.34 40.888 21.354 47.54a2.678 2.576 0 0 1-4.018-2.228V18.69a2.678 2.576 0 0 1 2.742-2.576z" style="fill:none;stroke:#000;stroke-width:.2;stroke-dasharray:none;stroke-opacity:1;filter:url(#n)" transform="translate(.655 31.959)scale(.49958)"/><path d="M41.402 40.01a1.338 1.287 0 0 0-1.37 1.287v13.298a1.338 1.287 0 0 0 2.007 1.114l5.988-3.324 5.988-3.325a1.338 1.287 0 0 0 0-2.229l-5.989-3.324-5.987-3.324a1.338 1.287 0 0 0-.638-.173z" style="opacity:.349788;fill:#000;fill-opacity:1;stroke-width:.610471"/><path d="M20.254 7.672c-5.978-.126-11.409 4.777-11.408 11.064v26.625c.006 8.352 9.594 13.55 16.629 9.649l11.986-6.652 11.992-6.663.004-.002c3.513-1.955 5.697-5.87 5.697-9.648s-2.184-7.695-5.697-9.65l-.004-.002-11.992-6.659-11.973-6.648-.011-.004a11.24 11.24 0 0 0-5.19-1.41Zm-.176 8.443v.002a2.678 2.576 0 0 1 1.276.346l11.984 6.652 11.986 6.655a2.678 2.576 0 0 1 0 4.46L33.34 40.888 21.354 47.54a2.678 2.576 0 0 1-4.018-2.228V18.69a2.678 2.576 0 0 1 2.742-2.576z" style="fill:none;stroke:#000;stroke-width:.2;stroke-dasharray:none;stroke-opacity:1;filter:url(#o)" transform="translate(31.371 31.959)scale(.49958)"/><path d="M20.077 16.116a2.678 2.576 0 0 0-2.74 2.576v26.616a2.678 2.576 0 0 0 4.018 2.232l11.983-6.654 11.986-6.657a2.678 2.576 0 0 0 0-4.457l-11.986-6.658-11.987-6.65a2.678 2.576 0 0 0-1.274-.348M81.562 79.95a2.678 2.576 0 0 0-2.74 2.577v26.62a2.678 2.576 0 0 0 4.014 2.228l11.987-6.654 11.986-6.658a2.678 2.576 0 0 0 0-4.457l-11.99-6.658-11.983-6.65a2.678 2.576 0 0 0-1.274-.348" style="opacity:.277856;fill:url(#p);stroke-width:1.22196;filter:url(#q)" transform="translate(.655 .068)scale(.49958)"/></svg>