<svg xmlns="http://www.w3.org/2000/svg" width="64" height="64"><path d="M9.6 11A5.6 5.6 0 0 0 4 16.6V19c0 3.093 2.507 6 5.6 6h.448c.395.574.78 1.117 1.338 2.062 1.578 2.67 3.56 6.353 5.455 10.143 3.789 7.578 7.262 14.51 7.262 14.51A5.6 5.6 0 0 0 29.2 55h5.6a5.6 5.6 0 0 0 5.061-3.202s10.771-21.9 13.07-26.653a38 38 0 0 1 1.636-.148c3.026-.09 5.432-2.97 5.433-5.997v-2.4a5.6 5.6 0 0 0-5.6-5.6z" style="opacity:.2"/><path d="M9.6 10A5.6 5.6 0 0 0 4 15.6V18c0 3.093 2.507 6 5.6 6h.448c.395.574.78 1.117 1.338 2.062 1.578 2.67 3.56 6.353 5.455 10.143 3.789 7.578 7.262 14.51 7.262 14.51A5.6 5.6 0 0 0 29.2 54h5.6a5.6 5.6 0 0 0 5.061-3.202s10.771-21.9 13.07-26.653a38 38 0 0 1 1.636-.148c3.026-.09 5.432-2.97 5.433-5.997v-2.4a5.6 5.6 0 0 0-5.6-5.6z" style="fill:#e4e4e4"/><path d="M10 16v3h2.4C15.2 19 29 50 29 50h6s12.4-26.8 13.8-29.6C49.426 19.148 54 19 54 19v-3H38v3h2.4c1.4 0 2.6 1.6 2.6 3s-7 15-7 15l-7-15c0-2.8 3-3 3-3h1v-3z" style="opacity:.1"/><path d="M10 15v3h2.4C15.2 18 29 49 29 49h6s12.4-26.8 13.8-29.6C49.426 18.148 54 18 54 18v-3H38v3h2.4c1.4 0 2.6 1.6 2.6 3s-7 15-7 15l-7-15c0-2.8 3-3 3-3h1v-3z" style="fill:#318c01"/><path d="M9.6 10A5.6 5.6 0 0 0 4 15.6v1A5.6 5.6 0 0 1 9.6 11h44.8a5.6 5.6 0 0 1 5.6 5.6v-1a5.6 5.6 0 0 0-5.6-5.6z" style="fill:#fff;opacity:.2"/></svg>