<svg xmlns="http://www.w3.org/2000/svg" xmlns:xlink="http://www.w3.org/1999/xlink" width="64" height="64"><defs><radialGradient id="a" cx="-159.431" cy="15.463" r="64.707" fx="-159.431" fy="15.463" gradientTransform="matrix(-.89413 0 0 .96305 -142.525 48.016)" gradientUnits="userSpaceOnUse"><stop offset="0" style="stop-color:#5fa4ff;stop-opacity:1"/><stop offset="1" style="stop-color:#5acfff;stop-opacity:1"/></radialGradient><radialGradient xlink:href="#a" id="f" cx="47.951" cy="45.898" r="20" fx="47.951" fy="45.898" gradientTransform="matrix(0 -2.85987 2.86127 0 -70.668 197.001)" gradientUnits="userSpaceOnUse"/><radialGradient xlink:href="#c" id="d" cx="47.951" cy="45.898" r="20" fx="47.951" fy="45.898" gradientTransform="matrix(0 -4.02347 4.02543 0 -112.44 264.135)" gradientUnits="userSpaceOnUse"/><radialGradient id="c" cx="-159.431" cy="15.463" r="64.707" fx="-159.431" fy="15.463" gradientTransform="matrix(-.89413 0 0 .96305 -142.525 48.016)" gradientUnits="userSpaceOnUse"><stop offset="0" style="stop-color:#006fff;stop-opacity:1"/><stop offset="1" style="stop-color:#15baff;stop-opacity:1"/></radialGradient><filter id="g" width="1.142" height="1.124" x="-.071" y="-.062" style="color-interpolation-filters:sRGB"><feGaussianBlur stdDeviation="1.016"/></filter><filter id="e" width="1.117" height="1.101" x="-.058" y="-.051" style="color-interpolation-filters:sRGB"><feGaussianBlur stdDeviation="1.179"/></filter></defs><path d="M28.377 3.871c-5.066 2.49-8.123 4.03-14.958 6.74-3.607 1.432-6.496 5.827-6.496 9.709v11.81c0 18.13 20.412 28.748 25.077 28.748S57.077 50.26 57.077 32.13V21.266c0-4.265-3.19-9.058-7.16-10.62-7.528-2.96-9.261-4.282-14.297-6.77-2.03-1.005-5.21-1.004-7.243-.005" style="fill:url(#d);fill-rule:evenodd;stroke-width:1.25385"/><path d="M28.377 3.871c-5.066 2.49-8.123 4.03-14.958 6.74-3.607 1.432-6.496 5.827-6.496 9.709v11.81c0 18.13 20.412 28.748 25.077 28.748S57.077 50.26 57.077 32.13V21.266c0-4.265-3.19-9.058-7.16-10.62-7.528-2.96-9.261-4.282-14.297-6.77-2.03-1.005-5.21-1.004-7.243-.005Z" style="fill:none;fill-rule:evenodd;stroke-width:.2;stroke:#000;stroke-opacity:1;stroke-dasharray:none;filter:url(#e)"/><path d="M29.425 12.006c-3.601 1.77-7.62 3.24-11.532 4.791-2.064.82-3.718 3.335-3.718 5.556v9.74c0 12.886 14.51 20.433 17.825 20.433 3.316 0 17.825-7.547 17.825-20.434v-9.739c0-2.221-1.662-4.718-3.73-5.53-3.92-1.543-7.943-3.045-11.522-4.814-1.443-.714-3.703-.713-5.148-.003" style="fill:url(#f);fill-rule:evenodd;stroke-width:.891231"/><path d="M29.425 12.006c-3.601 1.77-7.62 3.24-11.532 4.791-2.064.82-3.718 3.335-3.718 5.556v9.74c0 12.886 14.51 20.433 17.825 20.433 3.316 0 17.825-7.547 17.825-20.434v-9.739c0-2.221-1.662-4.718-3.73-5.53-3.92-1.543-7.943-3.045-11.522-4.814-1.443-.714-3.703-.713-5.148-.003z" style="fill:none;fill-rule:evenodd;stroke-width:.20000001;stroke:#0600ff;stroke-opacity:1;stroke-dasharray:none;filter:url(#g)"/></svg>