<svg xmlns="http://www.w3.org/2000/svg" xmlns:xlink="http://www.w3.org/1999/xlink" width="64" height="64"><defs><radialGradient xlink:href="#a" id="c" cx="42.896" cy="26.235" r="27.972" fx="42.896" fy="26.235" gradientTransform="matrix(0 -1.86678 1.59571 0 1.032 107.151)" gradientUnits="userSpaceOnUse"/><radialGradient xlink:href="#b" id="e" cx="31" cy="26" r="14" fx="31" fy="26" gradientUnits="userSpaceOnUse"/><linearGradient id="b"><stop offset="0" style="stop-color:#457aa0;stop-opacity:1"/><stop offset="1" style="stop-color:#2f4555;stop-opacity:.82897878"/></linearGradient><linearGradient id="a"><stop offset="0" style="stop-color:#ffdc8e;stop-opacity:1"/><stop offset="1" style="stop-color:#ff3a5e;stop-opacity:1"/></linearGradient><filter id="d" width="1.725" height="1.725" x="-.363" y="-.363" style="color-interpolation-filters:sRGB"><feGaussianBlur stdDeviation="1.744"/></filter></defs><path d="M15.34 8.243h33.286a11.18 11.18 45 0 1 11.18 11.18v25.162a11.18 11.18 135 0 1-11.18 11.18H15.341a11.18 11.18 45 0 1-11.18-11.18V19.422a11.18 11.18 135 0 1 11.18-11.18" style="fill:url(#c);fill-opacity:1;stroke:none;stroke-width:.3;stroke-linecap:round;stroke-linejoin:round;stroke-miterlimit:2.1;paint-order:markers stroke fill" transform="translate(.041 -.004)"/><path d="M44.041 20.227a5.77 5.77 0 1 1 0 11.539 5.77 5.77 0 0 1 0-11.539" style="opacity:1;fill:#fff;fill-rule:evenodd;stroke-width:.721162;filter:url(#d);fill-opacity:1"/><path d="M44.041 17.996a8 8 0 1 1 0 16 8 8 0 0 1 0-16" style="fill:#fffee4;fill-rule:evenodd;opacity:.56935216"/><path d="M4.202 43.845v-1.726s4.013-2.877 5.141-3.128 2.46-.047 3.83.234c1.369.28 3.413 1.055 4.051 1.078.638.025 1.793-.06 3.134-.148 1.342-.086 3.563-.166 4.255-.157.693 0 2.423.103 4.266.226 1.844.122 4.376.327 4.95.384.575.057 1.25.163 2.017.277s2.093.286 2.562.334c.47.046 1.558.209 2.82.335 1.263.126 3.283.17 3.867.123.583-.047 1.806-.516 3.17-.949 1.362-.432 2.865-.828 4.008-.73 1.141.1 7.572 2.12 7.572 2.12v1.727H10.957Z" style="fill:#440001;fill-opacity:1;stroke-width:.993621"/><path d="M4.107 43.835H59.81v.863a11.04 11.04 135 0 1-11.042 11.043h-33.62A11.04 11.04 45 0 1 4.107 44.698Z" style="opacity:.634609;mix-blend-mode:normal;fill:#ff005b;fill-opacity:1;stroke:none;stroke-width:.3;stroke-linecap:round;stroke-linejoin:round;stroke-miterlimit:2.1;paint-order:markers stroke fill" transform="translate(.041 -.004)"/><g style="opacity:.698051"><path d="M3.903 35.314s18.406 10.49 33.904 4.744 22.219-25.554 22.219-25.554-17.39-7.856-32.888-2.11-23.235 22.92-23.235 22.92" style="fill:#f9f9f9" transform="translate(4.692 8.098)scale(.5179)"/><path d="M17.07 27.394c.769 7.68 7.644 13.305 15.324 12.536s13.304-7.644 12.536-15.324c-.77-7.682-7.644-13.306-15.324-12.536S16.301 19.712 17.07 27.394" style="fill:url(#e)" transform="translate(4.692 8.098)scale(.5179)"/><path d="M31.015 20q-.304 0-.614.032a6.004 6.004 0 0 0-5.371 6.566 6.006 6.006 0 0 0 6.568 5.372 6.006 6.006 0 0 0 5.371-6.566A6.01 6.01 0 0 0 31.015 20" style="fill:#323232" transform="translate(4.692 8.098)scale(.5179)"/><path d="M34.586 6.006c-3.165.054-6.415.533-9.57 1.648-16.83 5.948-22.91 26.354-22.91 26.354a2.5 2.372 0 0 0-.092.945c-.106.328.013.902.123 1.149C4.312 40.968 13 58 28.439 58c17.196 0 26.74-12.271 26.74-12.271S42.947 51.776 30.638 51c-10.549-.664-19.631-7.96-24.473-12.7 5.987 2.935 20.02 8.52 32.82 3.997 16.83-5.949 22.909-26.354 22.909-26.354a2.5 2.372 0 0 0-1.086-2.707S48.302 5.77 34.586 6.006m4.348 6c9.914-.12 18.064 3.238 18.064 3.238S50.358 32.824 36 38.238 5 34.855 5 34.855s7.508-15.286 21.867-20.7c4.038-1.524 8.187-2.102 12.067-2.15" style="fill:#ef4685;fill-opacity:1" transform="translate(4.692 8.098)scale(.5179)"/></g></svg>