<svg xmlns="http://www.w3.org/2000/svg" width="64" height="64"><circle cx="32" cy="33" r="28" style="opacity:.2"/><circle cx="32" cy="32" r="28" style="fill:#4454ba"/><path d="M32 26H19.7S17 28.6 17 33.5s2.7 6.5 2.7 6.5H29v-7" style="fill:none;opacity:.2;stroke-linejoin:round;stroke-width:6;stroke:#000"/><path d="M32 25H19.7S17 27.6 17 32.5s2.7 6.5 2.7 6.5H29v-7" style="fill:none;stroke-linejoin:round;stroke-width:6;stroke:#9e9e9e"/><path d="M29 26h17L32 40h17" style="fill:none;opacity:.2;stroke-linejoin:round;stroke-width:6;stroke:#000"/><path d="M29 25h17L32 39h17" style="fill:none;stroke-linejoin:round;stroke-width:6;stroke:#fefefe"/><path d="M32 4A28 28 0 0 0 4 32a28 28 0 0 0 .021.586A28 28 0 0 1 32 5a28 28 0 0 1 27.979 27.414L60 32A28 28 0 0 0 32 4" style="fill:#fff;opacity:.1"/></svg>