<svg xmlns="http://www.w3.org/2000/svg" width="64" height="64"><path d="M31.639 5.026c-4.087-.062-7.576 3.344-7.614 7.431v.002l-.01 1.219a21 21 0 0 0-11.337 11.334l-1.24.01h-.006c-4.088.037-7.493 3.526-7.432 7.613v.004c.175 11.48 5.598 19.336 11.152 23.418 5.485 4.03 11.175 4.85 11.215 4.855 1.981.298 4.366-.32 5.928-1.627a7.4 7.4 0 0 0 1.734-2.129c.626 1.137 1.456 2.199 2.776 2.938 1.792 1.004 4.276 1.147 6.174.473.27-.079 5.716-1.677 10.312-6.25 4.639-4.616 6.237-10.183 6.295-10.385.542-1.57.331-3.139-.17-4.617A7.3 7.3 0 0 0 60 36.5c0-.705-.225-1.348-.416-2 .191-.652.416-1.295.416-2 0-.642-.22-1.223-.379-1.822.323-1.094.453-2.237.295-3.285-.006-.04-.825-5.73-4.855-11.215C50.979 10.623 43.122 5.2 31.643 5.026Z" style="opacity:.2"/><path d="M31.639 4.025c-4.087-.061-7.576 3.345-7.614 7.432v.002l-.01 1.219a21 21 0 0 0-11.337 11.334l-1.24.01h-.006c-4.088.037-7.493 3.526-7.432 7.613v.004c.175 11.48 5.598 19.336 11.152 23.418 5.485 4.03 11.175 4.85 11.215 4.855 1.981.298 4.366-.32 5.928-1.627a7.4 7.4 0 0 0 1.734-2.129c.626 1.136 1.456 2.199 2.776 2.938 1.792 1.004 4.276 1.146 6.174.472.27-.078 5.716-1.677 10.312-6.25 4.639-4.615 6.237-10.182 6.295-10.384.542-1.57.331-3.139-.17-4.617A7.3 7.3 0 0 0 60 35.5c0-.705-.225-1.348-.416-2 .191-.652.416-1.295.416-2 0-.642-.22-1.223-.379-1.822.323-1.094.453-2.237.295-3.285-.006-.04-.825-5.73-4.855-11.215C50.979 9.623 43.122 4.2 31.643 4.025Z" style="fill:#192848"/><path d="M31.549 11.026a1.5 1.5 0 0 0-1.524 1.486l-.048 5.642a15 15 0 0 0-12.823 12.82l-5.668.048A1.5 1.5 0 0 0 10 32.545c.147 9.758 4.441 15.545 8.705 18.678s8.553 3.758 8.553 3.758a1.5 1.5 0 1 0 .433-2.97s-3.557-.522-7.21-3.206c-3.422-2.514-6.765-6.937-7.301-14.797l3.869-.033A15 15 0 0 0 32 48a15 15 0 0 0 15-15 15 15 0 0 0-14.021-14.965l.033-3.828c7.858.537 12.283 3.878 14.797 7.299 2.684 3.653 3.207 7.21 3.207 7.21a1.5 1.5 0 1 0 2.968-.433s-.624-4.289-3.757-8.552c-3.134-4.264-8.92-8.558-18.678-8.705M32 23a10 10 0 0 1 10 10 10 10 0 0 1-10 10 10 10 0 0 1-10-10 10 10 0 0 1 10-10m0 2a8 8 0 0 0-8 8 8 8 0 0 0 8 8 8 8 0 0 0 8-8 8 8 0 0 0-8-8m0 3a5 5 0 0 1 5 5 5 5 0 0 1-5 5 5 5 0 0 1-5-5 5 5 0 0 1 5-5m0 1a4 4 0 0 0-4 4 4 4 0 0 0 4 4 4 4 0 0 0 4-4 4 4 0 0 0-4-4m0 1a3 3 0 0 1 3 3 3 3 0 0 1-3 3 3 3 0 0 1-3-3 3 3 0 0 1 3-3m20.5 1a1.5 1.5 0 0 0-1.5 1.5 1.5 1.5 0 0 0 1.5 1.5 1.5 1.5 0 0 0 1.5-1.5 1.5 1.5 0 0 0-1.5-1.5m0 4a1.5 1.5 0 0 0-1.5 1.5 1.5 1.5 0 0 0 1.5 1.5 1.5 1.5 0 0 0 1.5-1.5 1.5 1.5 0 0 0-1.5-1.5m.02 4.98a1.5 1.5 0 0 0-1.442 1.044s-1.523 4.313-4.137 6.914c-2.662 2.649-6.918 4.14-6.918 4.14a1.5 1.5 0 1 0 .954 2.844s4.719-1.513 8.082-4.86c3.337-3.32 4.863-8.085 4.863-8.085a1.5 1.5 0 0 0-1.402-1.996" style="opacity:.2"/><path d="M31.549 10.025a1.5 1.5 0 0 0-1.524 1.487l-.048 5.642a15 15 0 0 0-12.823 12.82l-5.668.047A1.5 1.5 0 0 0 10 31.545c.147 9.758 4.441 15.545 8.705 18.678s8.553 3.757 8.553 3.757a1.5 1.5 0 1 0 .433-2.968s-3.557-.523-7.21-3.207c-3.422-2.514-6.765-6.937-7.301-14.797l3.869-.033A15 15 0 0 0 32 47a15 15 0 0 0 15-15 15 15 0 0 0-14.021-14.965l.033-3.828c7.858.536 12.283 3.878 14.797 7.299 2.684 3.653 3.207 7.21 3.207 7.21a1.5 1.5 0 1 0 2.968-.433s-.624-4.289-3.757-8.553c-3.134-4.263-8.92-8.557-18.678-8.705M32 22a10 10 0 0 1 10 10 10 10 0 0 1-10 10 10 10 0 0 1-10-10 10 10 0 0 1 10-10m0 2a8 8 0 0 0-8 8 8 8 0 0 0 8 8 8 8 0 0 0 8-8 8 8 0 0 0-8-8m0 3a5 5 0 0 1 5 5 5 5 0 0 1-5 5 5 5 0 0 1-5-5 5 5 0 0 1 5-5m0 1a4 4 0 0 0-4 4 4 4 0 0 0 4 4 4 4 0 0 0 4-4 4 4 0 0 0-4-4m0 1a3 3 0 0 1 3 3 3 3 0 0 1-3 3 3 3 0 0 1-3-3 3 3 0 0 1 3-3m20.5 1a1.5 1.5 0 0 0-1.5 1.5 1.5 1.5 0 0 0 1.5 1.5 1.5 1.5 0 0 0 1.5-1.5 1.5 1.5 0 0 0-1.5-1.5m0 4a1.5 1.5 0 0 0-1.5 1.5 1.5 1.5 0 0 0 1.5 1.5 1.5 1.5 0 0 0 1.5-1.5 1.5 1.5 0 0 0-1.5-1.5m.02 4.98a1.5 1.5 0 0 0-1.442 1.043s-1.523 4.314-4.137 6.914c-2.662 2.65-6.918 4.141-6.918 4.141a1.5 1.5 0 1 0 .954 2.844s4.719-1.514 8.082-4.86c3.337-3.32 4.863-8.085 4.863-8.085a1.5 1.5 0 0 0-1.402-1.997" style="fill:#ef8d03"/><path d="M31.639 4.025c-4.087-.061-7.576 3.345-7.614 7.432v.002l-.01 1.219a21 21 0 0 0-11.337 11.334l-1.24.01h-.006c-4.087.037-7.493 3.526-7.432 7.613v.004c.002.157.017.306.021.463.228-3.852 3.503-7.045 7.41-7.08h.007l1.24-.01a21 21 0 0 1 11.338-11.334l.01-1.219v-.002c.037-4.087 3.526-7.493 7.613-7.432h.004c11.48.175 19.336 5.598 23.418 11.153 4.03 5.484 4.85 11.174 4.855 11.215.023.155.028.316.04.474a6.6 6.6 0 0 0-.04-1.474c-.006-.04-.825-5.73-4.855-11.215C50.979 9.623 43.122 4.2 31.643 4.025zm28.113 26.123c-.041.177-.08.355-.13.53.118.445.269.882.339 1.34q.038-.255.039-.518c0-.473-.121-.913-.248-1.352M59.727 34c-.05.166-.094.334-.143.5.153.521.321 1.04.385 1.586.017-.194.031-.388.031-.586 0-.525-.13-1.014-.273-1.5m-.153 4.883c-.05.144-.099.29-.158.431a9 9 0 0 1 .463 2.178c.07-.886-.066-1.758-.305-2.61" style="opacity:.1;fill:#fff"/></svg>