<svg xmlns="http://www.w3.org/2000/svg" width="64" height="64"><path d="M4.05 32c-.011.334-.05.662-.05 1 0 15.512 12.488 28 28 28a27.94 27.94 0 0 0 28-28c0-.337-.04-.665-.052-1-.528 15.042-12.775 27-27.95 27C16.826 59 4.579 47.042 4.05 32" style="opacity:.2"/><rect width="56" height="56" x="4" y="4" rx="28" ry="28" style="fill:#5584bb"/><path d="M32 4C16.488 4 4 16.488 4 32c0 .114.011.224.018.336C4.369 17.134 16.71 5 32 5s27.63 12.134 27.982 27.336c.007-.112.018-.222.018-.336C60 16.488 47.512 4 32 4" style="opacity:.2;fill:#fff"/><path d="M24 19.154a16 16 0 0 0-6.735 20.054L44.731 23.35a16 16 0 0 0-20.732-4.196zM19.269 42.67A16 16 0 0 0 40 46.865a16 16 0 0 0 6.734-20.053z" style="opacity:.2"/><path d="M24 18.144a16 16 0 0 0-6.735 20.054L44.731 22.34a16 16 0 0 0-20.732-4.196zM19.269 41.66A16 16 0 0 0 40 45.856a16 16 0 0 0 6.734-20.054z" style="fill:#fff"/><path d="M28 9h8v4h-8zm0 44h8v4h-8zm28-24v8h-4v-8zm-44 0v8H8v-8zm34.145-15.795 5.657 5.657-2.828 2.828-5.657-5.656zM15.033 44.318l5.657 5.656-2.829 2.829-5.656-5.657zm36.769 2.828-5.657 5.657-2.828-2.829 5.657-5.656zM20.69 16.034l-5.657 5.656-2.828-2.828 5.656-5.657z" style="opacity:.2"/><path d="M28 8h8v4h-8zm0 44h8v4h-8zm28-24v8h-4v-8zm-44 0v8H8v-8zm34.145-15.795 5.657 5.657-2.828 2.829-5.657-5.657zM15.033 43.318l5.657 5.656-2.829 2.829-5.656-5.657zm36.769 2.828-5.657 5.657-2.828-2.829 5.657-5.656zM20.69 15.034l-5.657 5.657-2.828-2.829 5.656-5.657z" style="fill:#fff"/></svg>