<svg xmlns="http://www.w3.org/2000/svg" width="64" height="64"><path d="m31.784 5-.002.006C16.372 5.123 4 17.56 4 33c0 15.512 12.488 28 28 28 14.952 0 27.091-11.605 27.948-26.335l.052-.05V10.6C60 7.498 57.502 5 54.4 5z" style="opacity:.2"/><path d="m31.784 4-.002.006C16.372 4.123 4 16.56 4 32c0 15.512 12.488 28 28 28 14.952 0 27.091-11.605 27.948-26.335l.052-.05V9.6C60 6.498 57.502 4 54.4 4z" style="fill:#c9c9c9"/><path d="M54 11c-18.244.63-29.407-.79-37.746 7.55-8.339 8.338-8.339 21.857 0 30.196s21.858 8.339 30.197 0S53.37 29.244 54 11Z" style="opacity:.1;stroke:#fff;stroke-width:0;stroke-linecap:square;stroke-opacity:0"/><path d="M54 10c-18.244.63-29.407-.79-37.746 7.55-8.339 8.338-8.339 21.857 0 30.196s21.858 8.339 30.197 0S53.37 28.244 54 10Z" style="fill:#2669ee;stroke:#fff;stroke-width:0;stroke-linecap:square;stroke-opacity:0"/><path d="M32 18c-3.84 0-7.676 1.466-10.605 4.395-5.859 5.857-5.859 15.355 0 21.212 5.858 5.858 15.352 5.858 21.21 0s5.859-15.355 0-21.212A14.95 14.95 0 0 0 32 18Zm.117 7a8 8 0 0 1 5.54 2.344 8 8 0 0 1 0 11.314 8 8 0 0 1-11.313 0 8 8 0 0 1 0-11.314A8 8 0 0 1 32.117 25Z" style="opacity:.2;stroke:#fff;stroke-width:0;stroke-linecap:square;stroke-opacity:0"/><path d="M32 17c-3.84 0-7.676 1.466-10.605 4.395-5.859 5.857-5.859 15.355 0 21.212 5.858 5.858 15.352 5.858 21.21 0s5.859-15.355 0-21.212A14.95 14.95 0 0 0 32 17zm.117 7a8 8 0 0 1 5.54 2.344 8 8 0 0 1 0 11.314 8 8 0 0 1-11.313 0 8 8 0 0 1 0-11.314A8 8 0 0 1 32.117 24z" style="fill:#fff;stroke:#fff;stroke-width:0;stroke-linecap:square;stroke-opacity:0"/><path d="m31.785 4-.004.006C16.371 4.123 4 16.56 4 32c0 .164.009.325.012.488a27.93 27.93 0 0 1 27.77-27.482L31.784 5H54.4c3.103 0 5.6 2.497 5.6 5.6v-1C60 6.497 57.503 4 54.4 4z" style="fill:#fff;opacity:.2"/></svg>