<svg xmlns="http://www.w3.org/2000/svg" width="64" height="64"><rect width="56" height="56" x="4" y="5" rx="2.8" ry="2.8" style="opacity:.2"/><rect width="56" height="56" x="4" y="4" rx="2.8" ry="2.8" style="fill:#4d525a"/><path d="M6.8 4C5.25 4 4 5.25 4 6.8v1C4 6.25 5.25 5 6.8 5h50.4C58.75 5 60 6.25 60 7.8v-1C60 5.25 58.75 4 57.2 4z" style="opacity:.1;fill:#fff"/><path d="M10 9v48h10.062L20 39h24v18h10V9H44v20H20V9Z" style="opacity:.2"/><path d="M10 8v48h10.062L20 38h24v18h10V8H44v20H20V8Z" style="fill:#ccc"/><path d="M12 15v6h6v-6Zm34 0v6h6v-6ZM12 31v6h6v-6Zm34 0v6h6v-6ZM12 45v6h6v-6Zm34 0v6h6v-6Z" style="opacity:.1"/><path d="M12 14v6h6v-6Zm34 0v6h6v-6ZM12 30v6h6v-6Zm34 0v6h6v-6ZM12 44v6h6v-6Zm34 0v6h6v-6Z" style="fill:#4d525a"/></svg>