<svg xmlns="http://www.w3.org/2000/svg" width="64" height="64"><path d="M12 5a3 3 0 0 0-3 3v50a3 3 0 0 0 3 3h9a3 3 0 0 0 3-3V42h16v16a3 3 0 0 0 3 3h9a3 3 0 0 0 3-3V8a3 3 0 0 0-3-3h-9a3 3 0 0 0-3 3v19H24V8a3 3 0 0 0-3-3z" style="opacity:.2"/><path d="M12 4a3 3 0 0 0-3 3v50a3 3 0 0 0 3 3h9a3 3 0 0 0 3-3V41h16v16a3 3 0 0 0 3 3h9a3 3 0 0 0 3-3V7a3 3 0 0 0-3-3h-9a3 3 0 0 0-3 3v19H24V7a3 3 0 0 0-3-3z" style="fill:#1a861c"/><path d="M12 4a3 3 0 0 0-3 3v1a3 3 0 0 1 3-3h9a3 3 0 0 1 3 3V7a3 3 0 0 0-3-3zm31 0a3 3 0 0 0-3 3v1a3 3 0 0 1 3-3h9a3 3 0 0 1 3 3V7a3 3 0 0 0-3-3zM24 26v1h16v-1z" style="fill:#fff;opacity:.1"/></svg>