<svg xmlns="http://www.w3.org/2000/svg" width="64" height="64"><rect width="56" height="56" x="4" y="5" rx="2.8" ry="2.8" style="opacity:.2"/><rect width="56" height="56" x="4" y="4" rx="2.8" ry="2.8" style="fill:#e4e4e4"/><path d="m38.25 18.949 1.926 1.926L12.94 50.01l2.118 1.977 27.168-29.062 1.824 1.824v-5.801z" style="opacity:.1"/><path d="m14 50 28.67-30.67" style="fill:none;stroke:#c62828;stroke-width:2.9000001"/><path d="M38.25 17.95h5.8v5.8z" style="fill:#c62828"/><path d="M14.64 13.699 13.36 16.3l24.835 12.226-1.199 2.074 5.606-1.5-1.504-5.605-1.45 2.512z" style="opacity:.1"/><path d="m14 14 26.005 12.802" style="fill:none;stroke:#2e7d32;stroke-width:2.9000001"/><path d="M36.998 29.601 42.6 28.1l-1.501-5.602Z" style="fill:#2e7d32"/><path d="M14 9a6 6 0 0 0-6 6 6 6 0 0 0 6 6 6 6 0 0 0 6-6 6 6 0 0 0-6-6m36 0a6 6 0 0 0-6 6 6 6 0 0 0 6 6 6 6 0 0 0 6-6 6 6 0 0 0-6-6M14 27a6 6 0 0 0-6 6 6 6 0 0 0 6 6 6 6 0 0 0 6-6 6 6 0 0 0-6-6m36 0a6 6 0 0 0-6 6 6 6 0 0 0 6 6 6 6 0 0 0 6-6 6 6 0 0 0-6-6M14 45a6 6 0 0 0-6 6 6 6 0 0 0 6 6 6 6 0 0 0 6-6 6 6 0 0 0-6-6m36 0a6 6 0 0 0-6 6 6 6 0 0 0 6 6 6 6 0 0 0 6-6 6 6 0 0 0-6-6" style="opacity:.1"/><circle cx="14" cy="32" r="6" style="fill:#9e9e9e"/><circle cx="14" cy="50" r="6" style="fill:#f44336"/><circle cx="50" cy="14" r="6" style="fill:#f44336"/><circle cx="50" cy="32" r="6" style="fill:#4caf50"/><circle cx="50" cy="50" r="6" style="fill:#9e9e9e"/><circle cx="14" cy="14" r="6" style="fill:#4caf50"/><path d="M6.8 4C5.25 4 4 5.25 4 6.8v1C4 6.25 5.25 5 6.8 5h50.4C58.75 5 60 6.25 60 7.8v-1C60 5.25 58.75 4 57.2 4z" style="opacity:.2;fill:#fff"/></svg>