<svg xmlns="http://www.w3.org/2000/svg" width="64" height="64"><rect width="58" height="58" x="3" y="4" rx="2.9" ry="2.9" style="opacity:.2"/><rect width="58" height="58" x="3" y="3" rx="2.9" ry="2.9" style="fill:#00695c"/><path d="M18 15c-1.662 0-3 1.338-3 3v30c0 1.662 1.338 3 3 3s3-1.338 3-3V18c0-1.662-1.338-3-3-3" style="opacity:.2"/><path d="M15 25.5V48c0 1.662 1.338 3 3 3s3-1.338 3-3V25.5Z" style="fill:#7cb342"/><path d="M46 15c-1.662 0-3 1.338-3 3v30c0 1.662 1.338 3 3 3s3-1.338 3-3V18c0-1.662-1.338-3-3-3" style="opacity:.2"/><path d="M43 25.5V48c0 1.662 1.338 3 3 3s3-1.338 3-3V25.5Z" style="fill:#7cb342"/><path d="M32 15c-1.662 0-3 1.338-3 3v30c0 1.662 1.338 3 3 3s3-1.338 3-3V18c0-1.662-1.338-3-3-3" style="opacity:.2"/><path d="M29 37.5V48c0 1.662 1.338 3 3 3s3-1.338 3-3V37.5Z" style="fill:#7cb342"/><rect width="14" height="8" x="11" y="24" rx="2.8" ry="2.8" style="opacity:.1"/><rect width="14" height="8" x="11" y="23" rx="2.8" ry="2.8" style="fill:#b5b5b5"/><rect width="14" height="8" x="25" y="36" rx="2.8" ry="2.8" style="opacity:.1"/><rect width="14" height="8" x="25" y="35" rx="2.8" ry="2.8" style="fill:#b5b5b5"/><rect width="14" height="8" x="39" y="24" rx="2.8" ry="2.8" style="opacity:.1"/><rect width="14" height="8" x="39" y="23" rx="2.8" ry="2.8" style="fill:#b5b5b5"/><path d="M5.898 3A2.89 2.89 0 0 0 3 5.898v1A2.89 2.89 0 0 1 5.898 4h52.204A2.89 2.89 0 0 1 61 6.898v-1A2.89 2.89 0 0 0 58.102 3z" style="opacity:.1;fill:#fff"/></svg>