<svg xmlns="http://www.w3.org/2000/svg" width="64" height="64"><path d="M22.098 49c-.048.33-.098.658-.098 1 0 3.878 3.122 7 7 7s7-3.122 7-7c0-.342-.05-.67-.098-1-.486 3.396-3.366 6-6.902 6s-6.416-2.604-6.902-6m18-2c-.048.33-.098.658-.098 1 0 3.878 3.122 7 7 7s7-3.122 7-7c0-.342-.05-.67-.098-1-.486 3.396-3.366 6-6.902 6s-6.416-2.604-6.902-6" style="opacity:.2"/><rect width="14" height="14" x="-54" y="-54" rx="7" ry="7" style="fill:#df82d9" transform="rotate(90)scale(-1 1)"/><path d="m22.156 36.148-12.781.77L8 39l15.274-.918z" style="opacity:.2"/><path d="m8 38 8.43-12.768 6.842 11.851Z" style="fill:#72acef"/><path d="M16.43 25.234 8 38l.688-.041 7.742-11.725 6.285 10.881.558-.033z" style="opacity:.1;fill:#fff"/><path d="m8 27-2 1 14 7v-2z" style="opacity:.2"/><path d="m6 27 14-7v14z" style="fill:#4c95eb"/><path d="M20 20 6 27l1 .5L20 21z" style="opacity:.1;fill:#fff"/><path d="m22.988 15.781-.566.117L19.445 27l-9.613-8.527L8 18.848 19.445 29z" style="opacity:.2"/><path d="m8 17.85 14.988-3.068L19.447 28Z" style="fill:#3a8ae9"/><path d="M22.988 14.781 8 17.848l.916.812 13.79-2.82z" style="opacity:.1;fill:#fff"/><path d="M14 10.234 22.43 23c8.533-13.637 7.18-14.789 0-2l-7.055-10.684Z" style="opacity:.2"/><path d="m14 9.232 15.272.917L22.43 22Z" style="fill:#3074c3"/><path d="m14 9.234.688 1.041 14.027.84.558-.967z" style="opacity:.1;fill:#fff"/><path d="M18.05 28c-.016.334-.05.662-.05 1 0 11.08 8.92 20 20 20s20-8.92 20-20c0-.338-.034-.666-.05-1-.522 10.608-9.208 19-19.95 19s-19.428-8.392-19.95-19" style="opacity:.2"/><rect width="40" height="40" x="-48" y="-58" rx="20" ry="20" style="fill:#d761cf" transform="rotate(90)scale(-1 1)"/><g style="opacity:.2" transform="matrix(1.33334 0 0 1.27272 8.667 -1.363)"><ellipse cx="26" cy="22" rx="4" ry="5"/><ellipse cx="30" cy="21" rx="4" ry="5"/></g><rect width="14" height="14" x="-56" y="-36" rx="7" ry="7" style="fill:#df82d9" transform="rotate(90)scale(-1 1)"/><g style="fill:#fff" transform="matrix(1.33334 0 0 1.27272 8.667 -2.364)"><ellipse cx="26" cy="22" rx="4" ry="5"/><ellipse cx="30" cy="21" rx="4" ry="5"/></g><ellipse cx="45.5" cy="26" rx="1.5" ry="2" style="fill:#1b1b1b"/><path d="M50.598 36c-2.185.525-3.53 2.285-5.685 2.763-1.551.302-3.593-.98-5.046-.264-.814.4-2.923 1.458-1.221 2.14 0 0 1.003.405 2.267.767 1.265.361 2.73.773 4.28.511 1.75-.296 3.16-1.31 4.355-2.202s2.08-1.73 2.08-1.73c.824-.758.192-1.976-1.03-1.986z" style="opacity:.6;fill-rule:evenodd"/><ellipse cx="51.5" cy="24" rx="1.5" ry="2" style="fill:#1b1b1b"/><path d="M38 8c-11.08 0-20 8.92-20 20 0 .11.01.218.016.326A19.95 19.95 0 0 1 38 9a19.95 19.95 0 0 1 19.984 19.326c.006-.108.016-.216.016-.326 0-11.08-8.92-20-20-20m-9 34c-3.878 0-7 3.122-7 7 0 .342.05.67.098 1 .486-3.396 3.366-6 6.902-6s6.416 2.604 6.902 6c.048-.33.098-.658.098-1 0-3.878-3.122-7-7-7" style="opacity:.1;fill:#fff"/></svg>