<svg xmlns="http://www.w3.org/2000/svg" width="64" height="64"><rect width="56" height="56" x="4" y="5" rx="5.6" ry="5.6" style="opacity:.2"/><rect width="56" height="56" x="4" y="4" rx="5.6" ry="5.6" style="fill:#3f474a;font-variation-settings:normal;stop-color:#000"/><path d="M9.6 4A5.587 5.587 0 0 0 4 9.6v1C4 7.497 6.497 5 9.6 5h44.8c3.103 0 5.6 2.497 5.6 5.6v-1C60 6.497 57.503 4 54.4 4z" style="fill:#fff;opacity:.1"/><path d="M16 8v7.396c0 .934.501 1.797 1.314 2.264l29.764 17.094A2.63 2.63 0 0 0 48 32.762V27.9c0-.941-.504-1.814-1.324-2.285zm30.686 40.34A2.61 2.61 0 0 1 48 50.603V58L17.326 40.384A2.63 2.63 0 0 1 16 38.101v-5.862c0-.47.126-.924.355-1.318 0 0 24.352 13.984 30.331 17.419" style="fill-rule:evenodd;font-variation-settings:normal;opacity:.2;stop-color:#000"/><path d="M46.686 47.34A2.61 2.61 0 0 1 48 49.603V57L17.326 39.384A2.63 2.63 0 0 1 16 37.101V31.24c0-.472.126-.925.355-1.319z" style="fill-rule:evenodd;fill:#55c5e4"/><path d="M18.952 51.963a1.95 1.95 0 0 0-.718.714 1.96 1.96 0 0 0 .695 2.663l-1.604-.92A2.63 2.63 0 0 1 16 52.135v-5.861c0-.943.505-1.813 1.325-2.284L45.05 28.072l.013-.008c.283-.165.529-.403.704-.706a1.96 1.96 0 0 0-.695-2.663l1.604.921A2.63 2.63 0 0 1 48 27.9v5.86c0 .943-.505 1.813-1.325 2.284l-1.648.946.022-.014z" style="fill-rule:evenodd;font-variation-settings:normal;opacity:.2;stop-color:#000"/><path d="m16 7 30.675 17.616A2.63 2.63 0 0 1 48 26.9v5.862c0 .47-.126.924-.355 1.318L17.314 16.661A2.61 2.61 0 0 1 16 14.397z" style="fill-rule:evenodd;fill:#706bc8"/><path d="M45.072 10.66c.919.545 1.23 1.74.694 2.664a1.94 1.94 0 0 1-.703.705l-.014.008-27.723 15.918A2.64 2.64 0 0 0 16 32.24v4.862c0 .941.506 1.811 1.326 2.283l.653.375a1.95 1.95 0 0 1 .973-1.832l26.075-14.973 1.649-.945A2.64 2.64 0 0 0 48 19.725v-5.862c0-.942-.504-1.812-1.324-2.283zM16.355 39.42" style="fill-rule:evenodd;font-variation-settings:normal;opacity:.2;stop-color:#000"/><path d="M18.952 50.964a1.95 1.95 0 0 0-.718.713 1.96 1.96 0 0 0 .695 2.663l-1.604-.92A2.63 2.63 0 0 1 16 51.136v-5.861c0-.942.505-1.813 1.325-2.283l27.724-15.92.013-.007c.283-.166.529-.404.704-.706a1.96 1.96 0 0 0-.695-2.664l1.604.921A2.63 2.63 0 0 1 48 26.9v5.861c0 .942-.505 1.813-1.325 2.283l-1.648.947.022-.014z" style="fill-rule:evenodd;fill:#997bc8"/><path d="M45.072 23.695c.919.545 1.23 1.74.694 2.664a1.94 1.94 0 0 1-.703.705l-.014.008-27.723 15.92A2.63 2.63 0 0 0 16 45.275v1c0-.942.506-1.812 1.326-2.283l27.723-15.92.013-.008c3.12-1.819 1.08-3.772.01-4.369" style="fill-rule:evenodd;fill:#fff;font-variation-settings:normal;opacity:.2;stop-color:#000"/><path d="M18.952 36.928a1.94 1.94 0 0 0-.718.714 1.96 1.96 0 0 0 .695 2.663l-1.604-.92A2.63 2.63 0 0 1 16 37.1v-5.86c0-.943.505-1.813 1.325-2.284L45.05 13.037l.013-.008a1.94 1.94 0 0 0 .704-.705 1.96 1.96 0 0 0-.695-2.664l1.604.921A2.63 2.63 0 0 1 48 12.865v5.86c0 .943-.505 1.813-1.325 2.284l-1.648.947.022-.015z" style="fill-rule:evenodd;fill:#84ddea"/><path d="M45.072 9.659c.919.544 1.23 1.74.694 2.664a1.94 1.94 0 0 1-.703.705l-.014.008-27.723 15.92A2.63 2.63 0 0 0 16 31.238v1c0-.943.506-1.813 1.326-2.284l27.723-15.92.013-.007c3.12-1.82 1.08-3.773.01-4.37" style="fill-rule:evenodd;fill:#fff;font-variation-settings:normal;opacity:.2;stop-color:#000"/></svg>