<svg xmlns="http://www.w3.org/2000/svg" width="64" height="64"><circle cx="32" cy="36" r="22" style="opacity:.2"/><circle cx="32" cy="35" r="22" style="fill:#0d3459"/><path d="M12 21h40v14H12z" style="fill:#072640"/><path d="M32 8C16.536 8 4 20.536 4 36c.028 8.782 3.975 17.041 11 22.31V33.34s3.217-3.964 11-5.04v20.418c3.733 1.693 8.532 1.727 12 0V28.3c7.783 1.076 11 5.04 11 5.04v24.97C56.025 53.041 59.972 44.782 60 36 60 20.536 47.464 8 32 8" style="opacity:.2"/><path d="M32 7C16.536 7 4 19.536 4 35c.028 8.781 3.975 17.04 11 22.31V32.34s3.217-3.965 11-5.04v20.418c3.733 1.692 8.532 1.727 12 0V27.3c7.783 1.075 11 5.04 11 5.04v24.97C56.025 52.04 59.972 43.78 60 35 60 19.536 47.464 7 32 7" style="fill:#2898f7"/><path d="M32 7v41.997c1.934.02 4.236-.401 6-1.28V27.3c7.783 1.075 11 5.04 11 5.04v24.97C56.025 52.04 59.972 43.78 60 35 60 19.536 47.464 7 32 7" style="opacity:.1"/><path d="M32 7C16.536 7 4 19.536 4 35c0 .152.01.302.014.453C4.306 20.243 16.719 8 32 8c15.28 0 27.694 12.242 27.986 27.453.003-.151.014-.301.014-.453C60 19.536 47.464 7 32 7" style="fill:#fff;opacity:.2"/></svg>