<svg xmlns="http://www.w3.org/2000/svg" xmlns:xlink="http://www.w3.org/1999/xlink" width="64" height="64"><defs><filter id="d" width="1.26" height="1.153" x="-.13" y="-.076" style="color-interpolation-filters:sRGB"><feGaussianBlur stdDeviation="1.221"/></filter><filter id="c" width="1.192" height="1.192" x="-.096" y="-.096" style="color-interpolation-filters:sRGB"><feGaussianBlur stdDeviation="2.193"/></filter><radialGradient xlink:href="#a" id="b" cx="11.099" cy="37.657" r="28" fx="11.099" fy="37.657" gradientTransform="rotate(60 71.102 26.035)scale(2.54204 2.09448)" gradientUnits="userSpaceOnUse"/><linearGradient id="a"><stop offset="0" style="stop-color:#00cfff;stop-opacity:1"/><stop offset="1" style="stop-color:#0091ff;stop-opacity:1"/></linearGradient></defs><rect width="53.49" height="53.49" x="5.255" y="5.255" rx="26.745" ry="26.745" style="fill:url(#b);stroke-width:.955185"/><rect width="56" height="56" x="4.065" y="3.955" rx="28" ry="28" style="mix-blend-mode:normal;fill:none;stroke:#000;stroke-width:.209383;stroke-dasharray:none;stroke-opacity:1;filter:url(#c)" transform="translate(1.372 1.477)scale(.95519)"/><path d="M32 12c-5.398 0-10.144 3.965-11.508 9.044-.428 1.59.946 2.956 2.598 2.956 1.552 0 2.787-1.429 3.584-2.855C27.75 19.22 29.808 17.8 32 17.8c3.19 0 6.101 2.61 6.101 5.8a5.66 5.66 0 0 1-1.71 4.087l-3.598 3.656c-1.928 1.84-2.994 4.173-3.44 6.68C29.065 39.648 30.44 41 32.093 41c1.606 0 2.743-1.37 3.115-2.973.485-2.09 1.703-3.528 3.385-5.234l2.61-2.668a9.23 9.23 0 0 0 2.699-6.523C43.902 17.192 38.409 12 32 12m-3 36.99v.02A2.99 2.99 45 0 0 31.99 52h.019a2.99 2.99 135 0 0 2.99-2.99v-.02A2.99 2.99 45 0 0 32.01 46h-.019A2.99 2.99 135 0 0 29 48.99" style="fill:#fff" transform="translate(5.538 5.538)scale(.82692)"/><path d="M32 12c-5.398 0-10.144 3.965-11.508 9.044-.428 1.59.946 2.956 2.598 2.956 1.552 0 2.787-1.429 3.584-2.855C27.75 19.22 29.808 17.8 32 17.8c3.19 0 6.101 2.61 6.101 5.8a5.66 5.66 0 0 1-1.71 4.087l-3.598 3.656c-1.928 1.84-2.994 4.173-3.44 6.68C29.065 39.648 30.44 41 32.093 41c1.606 0 2.743-1.37 3.115-2.973.485-2.09 1.703-3.528 3.385-5.234l2.61-2.668a9.23 9.23 0 0 0 2.699-6.523C43.902 17.192 38.409 12 32 12Zm-3 36.99v.02A2.99 2.99 45 0 0 31.99 52h.019a2.99 2.99 135 0 0 2.99-2.99v-.02A2.99 2.99 45 0 0 32.01 46h-.019A2.99 2.99 135 0 0 29 48.99z" style="fill:none;stroke:#002eff;stroke-opacity:1;stroke-width:.24186081;stroke-dasharray:none;filter:url(#d)" transform="translate(5.409 5.538)scale(.82692)"/><rect width="53.49" height="53.49" x="5.255" y="5.255" rx="26.745" ry="26.745" style="fill:url(#b);stroke-width:.955185"/><rect width="56" height="56" x="4.065" y="3.955" rx="28" ry="28" style="mix-blend-mode:normal;fill:none;stroke:#000;stroke-width:.209383;stroke-dasharray:none;stroke-opacity:1;filter:url(#c)" transform="translate(1.372 1.477)scale(.95519)"/><path d="M32 12c-5.398 0-10.144 3.965-11.508 9.044-.428 1.59.946 2.956 2.598 2.956 1.552 0 2.787-1.429 3.584-2.855C27.75 19.22 29.808 17.8 32 17.8c3.19 0 6.101 2.61 6.101 5.8a5.66 5.66 0 0 1-1.71 4.087l-3.598 3.656c-1.928 1.84-2.994 4.173-3.44 6.68C29.065 39.648 30.44 41 32.093 41c1.606 0 2.743-1.37 3.115-2.973.485-2.09 1.703-3.528 3.385-5.234l2.61-2.668a9.23 9.23 0 0 0 2.699-6.523C43.902 17.192 38.409 12 32 12m-3 36.99v.02A2.99 2.99 45 0 0 31.99 52h.019a2.99 2.99 135 0 0 2.99-2.99v-.02A2.99 2.99 45 0 0 32.01 46h-.019A2.99 2.99 135 0 0 29 48.99" style="fill:#fff" transform="translate(5.538 5.538)scale(.82692)"/><path d="M32 12c-5.398 0-10.144 3.965-11.508 9.044-.428 1.59.946 2.956 2.598 2.956 1.552 0 2.787-1.429 3.584-2.855C27.75 19.22 29.808 17.8 32 17.8c3.19 0 6.101 2.61 6.101 5.8a5.66 5.66 0 0 1-1.71 4.087l-3.598 3.656c-1.928 1.84-2.994 4.173-3.44 6.68C29.065 39.648 30.44 41 32.093 41c1.606 0 2.743-1.37 3.115-2.973.485-2.09 1.703-3.528 3.385-5.234l2.61-2.668a9.23 9.23 0 0 0 2.699-6.523C43.902 17.192 38.409 12 32 12Zm-3 36.99v.02A2.99 2.99 45 0 0 31.99 52h.019a2.99 2.99 135 0 0 2.99-2.99v-.02A2.99 2.99 45 0 0 32.01 46h-.019A2.99 2.99 135 0 0 29 48.99z" style="fill:none;stroke:#002eff;stroke-opacity:1;stroke-width:.24186081;stroke-dasharray:none;filter:url(#d)" transform="translate(5.409 5.538)scale(.82692)"/></svg>