<svg xmlns="http://www.w3.org/2000/svg" width="64" height="64"><path d="M4.05 32c-.011.334-.05.662-.05 1 0 15.512 12.488 28 28 28a27.94 27.94 0 0 0 28-28c0-.337-.04-.665-.052-1-.528 15.042-12.775 27-27.95 27C16.826 59 4.579 47.042 4.05 32" style="opacity:.2"/><rect width="56" height="56" x="4" y="4" rx="28" ry="28" style="fill:#fecd38"/><circle cx="32" cy="32" r="24" style="fill:#31b03b"/><path d="M12 23v20h4V32h2v7h4V23h-4v5h-2v-5zm20 0a8 8 0 0 0-8 8 8 8 0 0 0 8 8 8 8 0 0 0 8-8 8 8 0 0 0-8-8m10 0v16h4v-8.592l2 3.465V43h4V23h-4v3.379L46 23zm-10 4a4 4 0 0 1 4 4 4 4 0 0 1-4 4 4 4 0 0 1-4-4 4 4 0 0 1 4-4m-8 14v4h16v-4z" style="opacity:.2"/><path d="M12 22v20h4V31h2v7h4V22h-4v5h-2v-5zm20 0a8 8 0 0 0-8 8 8 8 0 0 0 8 8 8 8 0 0 0 8-8 8 8 0 0 0-8-8m10 0v16h4v-8.592l2 3.465V42h4V22h-4v3.379L46 22zm-10 4a4 4 0 0 1 4 4 4 4 0 0 1-4 4 4 4 0 0 1-4-4 4 4 0 0 1 4-4m-8 14v4h16v-4z" style="fill:#fff"/><path d="M32 4C16.488 4 4 16.488 4 32c0 .114.011.224.018.336C4.369 17.134 16.71 5 32 5s27.63 12.134 27.982 27.336c.007-.112.018-.222.018-.336C60 16.488 47.512 4 32 4" style="opacity:.1;fill:#fff"/></svg>