<svg xmlns="http://www.w3.org/2000/svg" xmlns:xlink="http://www.w3.org/1999/xlink" width="64" height="64"><defs><filter id="i" width="5.103" height="1.009" x="-2.052" y="-.005" style="color-interpolation-filters:sRGB"><feGaussianBlur stdDeviation=".087"/></filter><filter id="j" width="1.167" height="1.069" x="-.084" y="-.035" style="color-interpolation-filters:sRGB"><feGaussianBlur stdDeviation=".585"/></filter><filter id="f" width="1.12" height="1.107" x="-.06" y="-.054" style="color-interpolation-filters:sRGB"><feGaussianBlur stdDeviation="1.032"/></filter><filter id="e" width="1.166" height="1.147" x="-.083" y="-.073" style="color-interpolation-filters:sRGB"><feGaussianBlur stdDeviation="1.427"/></filter><radialGradient xlink:href="#a" id="d" cx="5.953" cy="34.176" r="22.292" fx="5.953" fy="34.176" gradientTransform="rotate(46.253 70.487 53.196)scale(2.2064 2.56411)" gradientUnits="userSpaceOnUse"/><radialGradient xlink:href="#b" id="g" cx="31.994" cy="30.893" r="4.602" fx="31.994" fy="30.893" gradientTransform="matrix(2.1292 0 0 10.72658 -36.064 -305.563)" gradientUnits="userSpaceOnUse"/><radialGradient xlink:href="#c" id="h" cx="27.312" cy="29.279" r="4.602" fx="27.312" fy="29.279" gradientTransform="matrix(3.272 0 0 13.60346 -62.054 -366.726)" gradientUnits="userSpaceOnUse"/><linearGradient id="c"><stop offset="0" style="stop-color:#eaeaea;stop-opacity:1"/><stop offset="1" style="stop-color:#f6f6f6;stop-opacity:1"/></linearGradient><linearGradient id="b"><stop offset="0" style="stop-color:#eaeaea;stop-opacity:1"/><stop offset="1" style="stop-color:#b2b2b2;stop-opacity:1"/></linearGradient><linearGradient id="a"><stop offset="0" style="stop-color:#3d99ff;stop-opacity:1"/><stop offset=".999" style="stop-color:#00d6ff;stop-opacity:1"/></linearGradient></defs><path d="m37.143 42.516-5.805 4.352a8.89 8.89 0 0 1-10.663 0l-5.806-4.352a15.44 15.44 56.382 0 1-5.715-8.596L5.048 17.566a7.254 7.254 112.953 0 1 3.409-8.05l12.807-7.394a9.49 9.49 0 0 1 9.484 0l12.807 7.395a7.254 7.254 67.047 0 1 3.41 8.049L42.857 33.92a15.44 15.44 123.618 0 1-5.715 8.596z" style="fill:url(#d);fill-opacity:1;stroke:#fff;stroke-width:0;stroke-dasharray:none" transform="translate(1.687 3.154)scale(1.1656)"/><path d="m36.919 42.683-7.284 5.461a6.05 6.05 0 0 1-7.258 0l-7.284-5.46a16.23 16.23 56.382 0 1-6.007-9.036L4.753 16.391a5.65 5.65 112.953 0 1 2.655-6.269l14.67-8.47a7.86 7.86 0 0 1 7.856 0l14.67 8.47a5.65 5.65 67.047 0 1 2.655 6.269l-4.333 17.257a16.23 16.23 123.618 0 1-6.007 9.035" style="opacity:.29926722;fill:#0007ff;fill-opacity:1;stroke:none;stroke-width:0;stroke-dasharray:none;stroke-opacity:1" transform="translate(6.808 8.09)scale(.96868)"/><path d="m37.143 42.516-5.805 4.352a8.89 8.89 0 0 1-10.663 0l-5.806-4.352a15.44 15.44 56.382 0 1-5.715-8.596L5.048 17.566a7.254 7.254 112.953 0 1 3.409-8.05l12.807-7.394a9.49 9.49 0 0 1 9.484 0l12.807 7.395a7.254 7.254 67.047 0 1 3.41 8.049L42.857 33.92a15.44 15.44 123.618 0 1-5.715 8.596z" style="fill:none;fill-opacity:1;stroke:#000;stroke-width:.17158522;stroke-dasharray:none;stroke-opacity:1;filter:url(#e)" transform="translate(1.687 3.154)scale(1.1656)"/><path d="m36.919 42.683-6.308 4.73a7.68 7.68 0 0 1-9.21 0l-6.308-4.73a16.23 16.23 56.382 0 1-6.007-9.035L4.753 16.391a5.65 5.65 112.953 0 1 2.655-6.269l13.613-7.86a9.97 9.97 0 0 1 9.97 0l13.614 7.86a5.65 5.65 67.047 0 1 2.654 6.269l-4.333 17.257a16.23 16.23 123.618 0 1-6.007 9.035z" style="fill:none;fill-opacity:1;stroke:#0032ff;stroke-width:.19393687;stroke-dasharray:none;stroke-opacity:1;filter:url(#f)" transform="translate(5.18 6.529)scale(1.03126)"/><path d="M32 5.528v36.816l1.276-1.275a1.8 1.8 115.413 0 0 .514-1.084l2.719-26.638a2.56 2.56 76.068 0 0-.418-1.683zm7.012 35.448-3.669.367a2.22 2.22 148.99 0 0-1.623.975l-.222.333a.94.94 90 0 0 0 1.043l.222.333a2.22 2.22 31.01 0 0 1.623.976l3.669.366a1.52 1.52 151.138 0 0 1.51-.832l.402-.804a1.25 1.25 90 0 0 0-1.121l-.402-.804a1.52 1.52 28.862 0 0-1.51-.832M32 45.53v5.2l1.254.008a.93.93 132.029 0 0 .931-1.034l-.344-3.095a1.196 1.196 42.453 0 0-1.162-1.064z" style="fill:url(#g);stroke-width:1.15052" transform="translate(-.397 3.406)scale(1.01142)"/><path d="M32 5.528v36.816l1.257-1.257a1.86 1.86 115.413 0 0 .536-1.127l2.716-26.613a2.56 2.56 76.068 0 0-.418-1.683zm7.193 35.43-4.031.403a1.83 1.83 148.99 0 0-1.34.805l-.194.29a1.29 1.29 90 0 0 0 1.433l.193.29a1.83 1.83 31.01 0 0 1.34.805l4.032.404a1.255 1.255 151.138 0 0 1.247-.688l.38-.758a1.72 1.72 90 0 0 0-1.54l-.38-.757a1.255 1.255 28.862 0 0-1.247-.687M32 45.53v5.2l1.436.01a.77.77 132.029 0 0 .77-.854l-.385-3.459a.99.99 42.453 0 0-.96-.878z" style="fill:url(#h);stroke-width:1.15052" transform="matrix(-1.01142 0 0 1.01142 64.341 3.406)"/><path d="M31.95 5.527v36.817h.1V5.527Zm0 40.023v5.197h.1V45.55z" style="baseline-shift:baseline;display:inline;overflow:visible;opacity:1;mix-blend-mode:normal;vector-effect:none;fill:#fff;stroke-linecap:round;stroke-linejoin:round;filter:url(#i);enable-background:accumulate;stop-color:#000;stop-opacity:1" transform="translate(-.393 3.406)scale(1.01142)"/><path d="M27.898 15.99a2.56 2.56 0 0 0-.416 1.678l2.707 26.53c.043.425.232.822.535 1.125l1.248 1.244 1.268-1.264c.29-.29.471-.672.513-1.08l2.711-26.555a2.56 2.56 0 0 0-.418-1.677l-4.074-6.106Zm-3.26 29.198a1.25 1.25 0 0 0-1.076.691l-.377.754a1.72 1.72 0 0 0 0 1.535l.377.756a1.25 1.25 0 0 0 1.244.686l4.02-.403a1.82 1.82 0 0 0 1.335-.802l.192-.29a1.29 1.29 0 0 0 0-1.427l-.192-.29a1.82 1.82 0 0 0-1.335-.804l-4.02-.4a1 1 0 0 0-.168-.006zm14.523.015q-.1-.003-.203.008l-3.656.366a2.2 2.2 0 0 0-1.62.972l-.22.332a.94.94 0 0 0 0 1.04l.22.331c.368.55.962.908 1.62.973l3.656.365a1.515 1.515 0 0 0 1.506-.828l.4-.803a1.25 1.25 0 0 0 0-1.117l-.4-.8a1.52 1.52 0 0 0-1.303-.839zm-8.043 4.569a.985.985 0 0 0-.957.875l-.382 3.447a.766.766 0 0 0 .765.852l1.428-.01 1.246.008a.928.928 0 0 0 .93-1.03l-.344-3.088a1.19 1.19 0 0 0-1.158-1.058l-.674-.016z" style="fill:none;stroke:#02f;stroke-width:.2;stroke-dasharray:none;stroke-opacity:1;filter:url(#j)" transform="translate(-.466 -1.022)scale(1.01456)"/></svg>