<svg xmlns="http://www.w3.org/2000/svg" xmlns:xlink="http://www.w3.org/1999/xlink" width="64" height="64"><defs><radialGradient id="a" cx="-159.431" cy="15.463" r="64.707" fx="-159.431" fy="15.463" gradientTransform="matrix(-.89413 0 0 .96305 -70.018 -8.619)" gradientUnits="userSpaceOnUse"><stop offset="0" style="stop-color:#ff302f;stop-opacity:1"/><stop offset="1" style="stop-color:#ffa653;stop-opacity:1"/></radialGradient><radialGradient xlink:href="#a" id="b" cx="94.453" cy="-1.098" r="28" fx="94.453" fy="-1.098" gradientTransform="matrix(0 -2.22556 2.18093 0 64.22 274.382)" gradientUnits="userSpaceOnUse"/><radialGradient xlink:href="#a" id="d" cx="63.931" cy="76.755" r="21.555" fx="63.931" fy="76.755" gradientTransform="matrix(0 -2.9556 2.96916 0 -163.968 252.984)" gradientUnits="userSpaceOnUse"/><filter id="c" width="1.114" height="1.167" x="-.057" y="-.084" style="color-interpolation-filters:sRGB"><feGaussianBlur stdDeviation="1.002"/></filter><filter id="f" width="1.138" height="1.16" x="-.069" y="-.08" style="color-interpolation-filters:sRGB"><feGaussianBlur stdDeviation="1.549"/></filter><filter id="e" width="1.119" height="1.184" x="-.06" y="-.092" style="color-interpolation-filters:sRGB"><feGaussianBlur stdDeviation=".459"/></filter></defs><path d="M20.8 7.882c-9.305 0-16.8 7.494-16.8 16.8v14.637c0 9.307 7.494 16.8 16.8 16.8h22.4c9.306 0 16.8-7.493 16.8-16.8V24.682c0-9.305-7.494-16.8-16.8-16.8z" style="fill:url(#b)"/><path d="M21 13.88c-6.19 0-11 4.81-11 11v14.24c0 1.586.32 3.08.895 4.427 1.637-1.224 3.703-2.242 6.05-2.242 5.897 0 10.026 4.442 16.291 1.554 8.348-3.845 7.538-9.248 12.971-9.248 4.178 0 5.432 3.535 7.793 4.645V24.88c0-6.19-4.81-11-11-11z" style="fill:#3f3f3f"/><path d="M21 13.88c-6.19 0-11 4.81-11 11v14.24c0 1.586.32 3.08.895 4.427 1.637-1.224 3.703-2.242 6.05-2.242 5.897 0 10.026 4.442 16.291 1.554 8.348-3.845 7.538-9.248 12.971-9.248 4.178 0 5.432 3.535 7.793 4.645V24.88c0-6.19-4.81-11-11-11z" style="fill:none;stroke:#000;stroke-width:.2;stroke-linejoin:round;stroke-dasharray:none;stroke-opacity:1;filter:url(#c)"/><path d="M15.621 19.727a1.16 1.16 0 0 0-1.152 1.152c0 .437.251.821.615 1.016v8.699a1.16 1.16 0 0 0-.615 1.015c0 .63.522 1.153 1.152 1.153h1.381a1.16 1.16 0 0 0 1.152-1.153c0-.447-.262-.84-.64-1.029v-3.476h3.857v3.474c-.38.19-.644.583-.644 1.031 0 .63.522 1.153 1.152 1.153h1.381c.63 0 1.15-.523 1.15-1.153 0-.435-.248-.818-.61-1.013v-8.703c.362-.196.61-.58.61-1.014 0-.63-.52-1.152-1.15-1.152h-1.381a1.16 1.16 0 0 0-1.152 1.152c0 .449.264.842.644 1.031v2.934h-3.857v-2.936c.378-.19.64-.582.64-1.03a1.16 1.16 0 0 0-1.152-1.151zm11.197 9.166c-.926 0-1.675.75-1.675 1.675v.01c0 .926.751 1.676 1.677 1.676h6.11c.926 0 1.677-.75 1.677-1.676v-.01c0-.926-.751-1.675-1.677-1.675z" style="fill:url(#d);fill-opacity:1"/><path d="M15.621 19.727a1.16 1.16 0 0 0-1.152 1.152c0 .437.251.821.615 1.016v8.699a1.16 1.16 0 0 0-.615 1.015c0 .63.522 1.153 1.152 1.153h1.381a1.16 1.16 0 0 0 1.152-1.153c0-.447-.262-.84-.64-1.029v-3.476h3.857v3.474c-.38.19-.644.583-.644 1.031 0 .63.522 1.153 1.152 1.153h1.381c.63 0 1.15-.523 1.15-1.153 0-.435-.248-.818-.61-1.013v-8.703c.362-.196.61-.58.61-1.014 0-.63-.52-1.152-1.15-1.152h-1.381a1.16 1.16 0 0 0-1.152 1.152c0 .449.264.842.644 1.031v2.934h-3.857v-2.936c.378-.19.64-.582.64-1.03a1.16 1.16 0 0 0-1.152-1.151zm11.197 9.166c-.926 0-1.675.75-1.675 1.675v.01c0 .926.751 1.676 1.677 1.676h6.11c.926 0 1.677-.75 1.677-1.676v-.01c0-.926-.751-1.675-1.677-1.675z" style="fill:none;fill-opacity:1;stroke:#ff5900;stroke-opacity:1;stroke-width:.2;stroke-dasharray:none;filter:url(#e)"/><path d="M20.8 7.882c-9.305 0-16.8 7.494-16.8 16.8v14.637c0 9.307 7.494 16.8 16.8 16.8h22.4c9.306 0 16.8-7.493 16.8-16.8V24.682c0-9.305-7.494-16.8-16.8-16.8z" style="fill:none;stroke:#000;stroke-width:.3;stroke-dasharray:none;stroke-opacity:1;filter:url(#f)"/></svg>