<svg xmlns="http://www.w3.org/2000/svg" xmlns:xlink="http://www.w3.org/1999/xlink" width="64" height="64"><defs><radialGradient xlink:href="#a" id="h" cx="20.069" cy="24.19" r="29.724" fx="20.069" fy="24.19" gradientTransform="rotate(75 47.789 25.347)scale(1.43275 1.35015)" gradientUnits="userSpaceOnUse"/><radialGradient xlink:href="#b" id="g" cx="46.674" cy="32.981" r="22.445" fx="46.674" fy="32.981" gradientTransform="matrix(-1.91144 0 0 -1.54758 131.36 80.921)" gradientUnits="userSpaceOnUse"/><radialGradient xlink:href="#c" id="i" cx="33.707" cy="13.45" r="2.001" fx="33.707" fy="13.45" gradientTransform="matrix(4.8266 .29793 -.29763 4.82367 -127.029 -59.564)" gradientUnits="userSpaceOnUse"/><radialGradient xlink:href="#d" id="j" cx="45.431" cy="19.565" r="9.212" fx="45.431" fy="19.565" gradientTransform="matrix(2.52825 0 0 1.48342 -73.77 -8.617)" gradientUnits="userSpaceOnUse"/><radialGradient xlink:href="#e" id="f" cx="24.916" cy="34.449" r="28.003" fx="24.916" fy="34.449" gradientTransform="rotate(60 102.126 2.7)scale(2.82573 2.5915)" gradientUnits="userSpaceOnUse"/><linearGradient id="d"><stop offset="0" style="stop-color:#ffc107;stop-opacity:1"/><stop offset="1" style="stop-color:#ff5007;stop-opacity:1"/></linearGradient><linearGradient id="c"><stop offset="0" style="stop-color:#bfbfbf;stop-opacity:1"/><stop offset="1" style="stop-color:#fff;stop-opacity:1"/></linearGradient><linearGradient id="b"><stop offset="0" style="stop-color:#c7c7c7;stop-opacity:1"/><stop offset="1" style="stop-color:#f7f7f7;stop-opacity:1"/></linearGradient><linearGradient id="a"><stop offset="0" style="stop-color:#424242;stop-opacity:1"/><stop offset="1" style="stop-color:#1b1b1b;stop-opacity:1"/></linearGradient><linearGradient id="e"><stop offset="0" style="stop-color:#50cdff;stop-opacity:1"/><stop offset="1" style="stop-color:#0043d2;stop-opacity:1"/></linearGradient><filter id="k" width="1.135" height="1.14" x="-.066" y="-.07" style="color-interpolation-filters:sRGB"><feGaussianBlur stdDeviation="1.593"/></filter></defs><path d="M60.005 32.003c0 9.132-4.37 17.243-11.135 22.354-4.691 3.546-9.146-3.423-15.48-3.423-14.548 0-27.855-2.477-29.256-16.252A27 27 0 0 1 4 32.002C4 16.538 16.537 4 32.003 4s28.002 12.537 28.002 28.003" style="fill:url(#f)"/><path d="M21.305 23.673c-4.586-.39-13.136 5.917-17.029 12.005A28 28 0 0 0 31.871 60a38 38 0 0 0 2.112-.066l.016-.002a28 28 0 0 0 15.166-5.82c-.613-4.005-2.692-8.435-7.167-13.583-5.637-6.586-14.3-15.79-20.693-16.856" style="fill:url(#g);fill-rule:evenodd;fill-opacity:1"/><path d="M30.531 12.031c-.904.01-1.847.08-2.84.225-7.178 1.053-11.776 4.989-17.668 12.1C7.63 27.244 5.513 30.726 4 33.4q.08 1.481.31 2.946c4.135-5.722 15.647-14.043 18.239-10.313 2.967 4.27-5.581 9.766-4.434 11.38 1.23 1.728 6.614-.716 11.612-1.075 5.579-.4 8.544 1.327 12.271 4.191-.939-1.77-1.555-3.066-1.912-4.336-.742-2.64 1.24-5.653 1.98-7.097 1.177-2.296 2.169-5.495 3.918-7.221 3.063-3.021 8.41-4.585 13.133-6.152 1.479-.49 2.788-.385 4.33-.723-1.43-.799-3.217-1.096-4.676-1.117-7.776-.115-12.515 1.062-15.654.72-3.98-.433-7.704-2.626-12.586-2.572m-19.18 28.032c-1.188-.022-3.806 1.115-5.511 1.89a28 28 0 0 0 2.719 5.344c1.113-3.57 3.913-6.065 3.332-7.024-.086-.14-.274-.206-.54-.21" style="fill:url(#h);fill-rule:evenodd"/><ellipse cx="35.1" cy="12.258" rx="2.001" ry="1.999" style="opacity:.86392929;fill:url(#i)" transform="rotate(11.469)skewX(.182)"/><path d="M47.106 18.093c3.346-.932 9.12-3.21 13.331-3.741-.775-.145-2.178.093-2.954.176-4.158.823-8.216 2.481-10.377 3.565" style="opacity:.1;fill-rule:evenodd"/><path d="M39.058 21.123c1.649-.855 2.446-1.566 6.296-2.528 3.738-.933 8.388-3.19 12.13-4.067-6.401.771-14.123 2.386-18.426 6.595" style="fill:url(#j);fill-rule:evenodd"/><g style="stroke:#000;stroke-opacity:1;stroke-width:.2;stroke-dasharray:none;filter:url(#k)"><path d="M32.002 4C16.536 4 4 16.536 4 32.002q0 .68.033 1.342c1.511-2.666 3.614-6.12 5.99-8.989 5.892-7.11 10.49-11.046 17.668-12.1a21 21 0 0 1 2.84-.224c4.882-.054 8.606 2.139 12.586 2.573 2.348.255 5.59-.34 10.332-.608C48.312 7.884 40.611 4 32.002 4Zm23.582 12.893c-3.668 1.248-7.286 2.7-9.6 4.982-1.75 1.726-2.74 4.925-3.918 7.22-.74 1.445-2.722 4.459-1.98 7.098.357 1.27.973 2.565 1.912 4.336 4.474 5.146 6.554 9.575 7.168 13.578 6.589-5.123 10.84-13.112 10.84-22.105a27.87 27.87 0 0 0-4.422-15.11zM4.127 34.607l.006.075.01.064q-.009-.069-.016-.139zm.234 1.668-.004.006q.014.086.032.17zm44.762 17.868a28 28 0 0 1-.658.496q.202-.129.406-.282c.088-.066.165-.147.252-.214z" style="fill:none;stroke:#000;stroke-opacity:1;stroke-width:.2;stroke-dasharray:none"/><path d="M20.27 25.11c-4.334.21-12.515 6.518-15.909 11.165a28 28 0 0 0 1.498 5.67c1.706-.775 4.308-1.904 5.493-1.882.265.004.453.07.539.21.58.957-2.206 3.443-3.325 7A28 28 0 0 0 31.871 60a38 38 0 0 0 2.111-.066l.016-.002a28 28 0 0 0 15.168-5.82c-.613-4.006-2.692-8.435-7.168-13.583-3.727-2.864-6.692-4.592-12.271-4.191-4.998.359-10.382 2.803-11.612 1.074-1.147-1.613 7.401-7.109 4.434-11.379-.484-.696-1.28-.972-2.28-.924z" style="fill:none;fill-rule:evenodd;stroke:#000;stroke-opacity:1;stroke-width:.2;stroke-dasharray:none"/><path d="M30.531 12.031c-.904.01-1.847.08-2.84.225-7.178 1.053-11.776 4.989-17.668 12.1C7.63 27.244 5.513 30.726 4 33.4q.08 1.481.31 2.946c4.135-5.722 15.647-14.043 18.239-10.313 2.967 4.27-5.581 9.766-4.434 11.38 1.23 1.728 6.614-.716 11.612-1.075 5.579-.4 8.544 1.327 12.271 4.191-.939-1.77-1.555-3.066-1.912-4.336-.742-2.64 1.24-5.653 1.98-7.097 1.177-2.296 2.169-5.495 3.918-7.221 3.063-3.021 8.41-4.585 13.133-6.152 1.479-.49 2.788-.385 4.33-.723-1.43-.799-3.217-1.096-4.676-1.117-7.776-.115-12.515 1.062-15.654.72-3.98-.433-7.704-2.626-12.586-2.572Zm29.227 2.276c.252-.004.486.008.68.045-4.211.53-9.986 2.81-13.333 3.742l.018-.01a28 28 0 0 1-1.77.512c-3.85.962-4.646 1.672-6.294 2.527 4.302-4.21 12.023-5.824 18.423-6.596.582-.062 1.518-.21 2.276-.22zM31.87 17.004a2.003 1.997 47.654 0 1 .52.035 2.003 1.997 47.654 0 1 1.57 2.36 2.003 1.997 47.654 0 1-2.352 1.562 2.003 1.997 47.654 0 1-1.57-2.36 2.003 1.997 47.654 0 1 1.832-1.597zM11.35 40.063c-1.188-.022-3.806 1.115-5.511 1.89a28 28 0 0 0 2.719 5.344c1.113-3.57 3.913-6.065 3.332-7.024-.086-.14-.274-.206-.54-.21Z" style="fill:none;fill-rule:evenodd;stroke:#000;stroke-opacity:1;stroke-width:.2;stroke-dasharray:none"/><path d="M31.871 17.004a2.003 1.997 47.654 0 0-1.832 1.598 2.003 1.997 47.654 0 0 1.57 2.359 2.003 1.997 47.654 0 0 2.352-1.563 2.003 1.997 47.654 0 0-1.57-2.359 2.003 1.997 47.654 0 0-.52-.035z" style="opacity:.863929;fill:none;stroke:#000;stroke-opacity:1;stroke-width:.2;stroke-dasharray:none"/><path d="M59.758 14.307c-.758.01-1.694.158-2.276.22-3.17.743-6.992 2.476-10.359 3.557l-.018.01c3.347-.933 9.122-3.211 13.332-3.742a3.6 3.6 0 0 0-.68-.045z" style="opacity:.1;fill-rule:evenodd;fill:none;stroke:#000;stroke-opacity:1;stroke-width:.2;stroke-dasharray:none"/><path d="M57.482 14.527c-6.4.772-14.121 2.387-18.423 6.596 1.648-.855 2.444-1.565 6.295-2.527 3.737-.934 8.387-3.193 12.128-4.069z" style="fill:none;fill-rule:evenodd;stroke:#000;stroke-opacity:1;stroke-width:.2;stroke-dasharray:none"/></g></svg>