<svg xmlns="http://www.w3.org/2000/svg" width="64" height="64"><rect width="56" height="56" x="4" y="5" rx="2.8" ry="2.8" style="opacity:.2"/><rect width="56" height="56" x="4" y="4" rx="2.8" ry="2.8" style="fill:#b5c0df"/><rect width="10" height="31" x="11" y="11" rx="1.429" ry="1.409" style="fill:#314277"/><rect width="26" height="31" x="27" y="11" rx="1.368" ry="1.409" style="fill:#314277"/><rect width="10" height="29.4" x="22" y="-40.4" rx="1.429" ry="1.4" style="fill:#314277" transform="rotate(90)"/><rect width="5" height="5" x="12" y="46" rx="1.25" ry="1.25" style="opacity:.3;fill:#314277"/><rect width="5" height="5" x="19" y="46" rx="1.25" ry="1.25" style="opacity:.56000001;fill:#314277"/><rect width="5" height="5" x="26" y="46" rx="1.25" ry="1.25" style="opacity:.81999966;fill:#314277"/><path d="M32.385 16c-.767 0-1.385.558-1.385 1.25v2.5c0 .692.618 1.25 1.385 1.25H44v4H32.25c-.692 0-1.25.48-1.25 1.076v11.848c0 .596.558 1.076 1.25 1.076h15.365c.767 0 1.385-.557 1.385-1.25v-2.5c0-.693-.618-1.25-1.385-1.25H36v-4h11.75c.026 0 .048-.01.074-.012a1.4 1.4 0 0 0 .217-.039c.547-.115.959-.517.959-1.025V17.076c0-.552-.485-.987-1.105-1.05-.05-.006-.094-.026-.145-.026h-2.5Z" style="opacity:.2"/><rect width="18" height="5" x="31" y="15" rx="1.385" ry="1.25" style="fill:#fff"/><rect width="18" height="5" x="31" y="33" rx="1.385" ry="1.25" style="fill:#fff"/><rect width="14" height="5" x="24" y="-36" rx="1.077" ry="1.25" style="fill:#fff" transform="rotate(90)"/><rect width="17" height="5" x="-49" y="-29" rx="1.308" ry="1.25" style="fill:#fff" transform="scale(-1)"/><rect width="14" height="5" x="15" y="-49" rx="1.077" ry="1.25" style="fill:#fff" transform="rotate(90)"/><rect width="5" height="5" x="-52" y="46" rx="1.25" ry="1.25" style="opacity:.3;fill:#314277" transform="scale(-1 1)"/><rect width="5" height="5" x="-45" y="46" rx="1.25" ry="1.25" style="opacity:.56000001;fill:#314277" transform="scale(-1 1)"/><rect width="5" height="5" x="-38" y="46" rx="1.25" ry="1.25" style="opacity:.81999966;fill:#314277" transform="scale(-1 1)"/><path d="M6.8 4C5.25 4 4 5.25 4 6.8v1C4 6.25 5.25 5 6.8 5h50.4C58.75 5 60 6.25 60 7.8v-1C60 5.25 58.75 4 57.2 4z" style="fill:#fff;opacity:.2"/><path d="M21 31v1h6v-1zm-10 8.592v1c0 .78.636 1.408 1.428 1.408h7.144c.792 0 1.428-.628 1.428-1.408v-1c0 .78-.636 1.408-1.428 1.408h-7.144A1.414 1.414 0 0 1 11 39.592m16 0v1c0 .78.611 1.408 1.37 1.408h23.26c.759 0 1.37-.628 1.37-1.408v-1c0 .78-.611 1.408-1.37 1.408H28.37c-.759 0-1.37-.628-1.37-1.408" style="opacity:.1"/><path d="M12.428 10c-.792 0-1.428.628-1.428 1.408v1c0-.78.636-1.408 1.428-1.408h7.144c.792 0 1.428.628 1.428 1.408v-1c0-.78-.636-1.408-1.428-1.408Zm15.941 0c-.758 0-1.369.628-1.369 1.408v1c0-.78.611-1.408 1.37-1.408h23.26c.759 0 1.37.628 1.37 1.408v-1c0-.78-.611-1.408-1.37-1.408ZM21 21v1h6v-1z" style="opacity:.1;fill:#fff"/></svg>