<svg xmlns="http://www.w3.org/2000/svg" xmlns:xlink="http://www.w3.org/1999/xlink" width="64" height="64"><defs><filter id="e" width="1.098" height="1.135" x="-.05" y="-.067" style="color-interpolation-filters:sRGB"><feGaussianBlur stdDeviation=".41"/></filter><filter id="d" width="1.176" height="1.176" x="-.088" y="-.088" style="color-interpolation-filters:sRGB"><feGaussianBlur stdDeviation="1.549"/></filter><filter id="c" width="1.138" height="1.138" x="-.069" y="-.069" style="color-interpolation-filters:sRGB"><feGaussianBlur stdDeviation="1.549"/></filter><radialGradient xlink:href="#a" id="b" cx="16.968" cy="32.176" r="28" fx="16.968" fy="32.176" gradientTransform="matrix(0 2.07794 -2.61512 0 84.596 -35.034)" gradientUnits="userSpaceOnUse"/><linearGradient id="a"><stop offset="0" style="stop-color:#f746b3;stop-opacity:1"/><stop offset="1" style="stop-color:#f76c46;stop-opacity:1"/></linearGradient></defs><path d="M20.8 4C11.495 4 4 11.494 4 20.8v22.4C4 52.505 11.494 60 20.8 60h22.4C52.505 60 60 52.506 60 43.2V20.8C60 11.495 52.506 4 43.2 4z" style="fill:url(#b)"/><path d="M21 10h22c6.19 0 11 4.81 11 11v22c0 6.19-4.81 11-11 11H21c-6.19 0-11-4.81-11-11V21c0-6.19 4.81-11 11-11" style="fill:#3f3f3f"/><path d="m23.75 15-6.42 5.657a2.155 2.155 83.365 0 0 .41 3.518 1.345 1.345 68.53 0 1 .638 1.623L16.25 32l6.42-5.657a2.155 2.155 83.365 0 0-.41-3.518 1.345 1.345 68.53 0 1-.638-1.623ZM28 30.502A1.5 1.5 44.91 0 0 29.502 32h6.996A1.5 1.5 135 0 0 38 30.498 1.5 1.5 44.91 0 0 36.498 29h-6.996A1.5 1.5 135 0 0 28 30.502" style="fill:#fff"/><path d="M20.8 4C11.495 4 4 11.494 4 20.8v22.4C4 52.505 11.494 60 20.8 60h22.4C52.505 60 60 52.506 60 43.2V20.8C60 11.495 52.506 4 43.2 4Z" style="fill:none;stroke:#000;stroke-opacity:1;stroke-width:.29999992;stroke-dasharray:none;filter:url(#c)"/><path d="M21 10h22c6.19 0 11 4.81 11 11v22c0 6.19-4.81 11-11 11H21c-6.19 0-11-4.81-11-11V21c0-6.19 4.81-11 11-11Z" style="fill:none;stroke:#000;stroke-opacity:1;stroke-width:.29999992;stroke-dasharray:none;filter:url(#d)"/><path d="m23.75 15-6.42 5.657a2.155 2.155 83.365 0 0 .41 3.518 1.345 1.345 68.53 0 1 .638 1.623L16.25 32l6.42-5.657a2.155 2.155 83.365 0 0-.41-3.518 1.345 1.345 68.53 0 1-.638-1.623ZM28 30.502A1.5 1.5 44.91 0 0 29.502 32h6.996A1.5 1.5 135 0 0 38 30.498 1.5 1.5 44.91 0 0 36.498 29h-6.996A1.5 1.5 135 0 0 28 30.502Z" style="mix-blend-mode:normal;fill:none;stroke:#ff009f;stroke-width:.1;stroke-dasharray:none;stroke-opacity:1;filter:url(#e)" transform="translate(-.043)"/></svg>