<svg xmlns="http://www.w3.org/2000/svg" width="64" height="64"><circle cx="32" cy="33" r="28" style="opacity:.2"/><circle cx="32" cy="32" r="28" style="fill:#504297"/><path d="M27.621 43.953c-1.485-.572-7.702-1.966-10.102-3.412-3.956-2.385-4.059-4.467-4.059-4.467s-2.39-16.75 15.148-18.982c4.3-.253 7.058.729 9.45 3.128 3.32 3.33 5.492 8.436 4.772 13.247-.488 3.257-1.156 4.288-.4 4.856.609.458 1.002.465 1.712.098 1.505-.779 1.941-2.016 1.94-4.676a34 34 0 0 0-.249-3.818c-.22-1.9-.198-2.185.212-2.744 1.479-2.016 3.777-1.261 5.28 1.734 2.705 5.393 2.108 10.093-1.627 14.008-1.52 1.594-3.924 2.873-5.867 3.236-8.256.51-10.397.27-16.21-2.208" style="opacity:.2"/><path d="M27.621 42.953c-1.485-.572-7.702-1.966-10.102-3.412-3.956-2.385-4.059-4.467-4.059-4.467s-2.39-16.75 15.148-18.982c4.3-.253 7.058.729 9.45 3.128 3.32 3.33 5.492 8.436 4.772 13.247-.488 3.257-1.156 4.288-.4 4.856.609.458 1.002.465 1.712.098 1.505-.779 1.941-2.016 1.94-4.676a34 34 0 0 0-.249-3.818c-.22-1.9-.198-2.185.212-2.744 1.479-2.016 3.777-1.261 5.28 1.734 2.705 5.393 2.108 10.093-1.627 14.008-1.52 1.594-3.924 2.873-5.867 3.236-8.256.51-10.397.27-16.21-2.208" style="fill:#ffb138"/><path d="M30.15 16.055a21 21 0 0 0-1.543.037c-14.39 1.832-15.362 13.422-15.248 17.53.1-4.732 1.897-14.83 15.248-16.53 4.3-.253 7.06.73 9.452 3.129 2.772 2.78 4.737 6.8 4.892 10.851.163-4.382-1.892-8.841-4.892-11.851-2.093-2.1-4.467-3.115-7.909-3.166m17.819 9.002c-.7.004-1.37.37-1.924 1.127-.321.437-.4.736-.315 1.746a1.54 1.54 0 0 1 .315-.746c1.479-2.017 3.777-1.261 5.28 1.734q1.52 3.034 1.66 5.77c.087-2.115-.458-4.373-1.66-6.77-.94-1.872-2.19-2.87-3.356-2.861m-1.9 8.31c-.07 2.227-.548 3.34-1.928 4.053-.71.367-1.102.36-1.711-.098a.8.8 0 0 1-.27-.383c-.125.712-.101 1.107.27 1.385.61.459 1 .465 1.71.098 1.506-.779 1.944-2.016 1.942-4.676 0-.127-.012-.252-.014-.379" style="fill:#fff;opacity:.2"/><path d="M33.98 32.327c1.334-.816 2.723-1.913 5.175-.216" style="opacity:.7;fill:none;stroke:#000;stroke-width:.42"/><path d="M22.148 45.502c1.063-.427 2.942-2.055 3.439-2.98.552-1.028.55-12-.002-13.508C24.628 26.403 22.377 25 19.14 25c-1.69 0-2.034.087-3.051.775C13.2 27.73 12 30.625 12 35.635c0 2.611.111 3.544.6 5.044.666 2.038 1.894 3.781 3.17 4.499 1.7.957 4.452 1.096 6.378.324" style="opacity:.2"/><path d="M22.148 44.502c1.063-.427 2.942-2.055 3.439-2.98.552-1.028.55-12-.002-13.508C24.628 25.403 22.377 24 19.14 24c-1.69 0-2.034.087-3.051.775C13.2 26.73 12 29.625 12 34.635c0 2.611.111 3.544.6 5.044.666 2.038 1.894 3.781 3.17 4.499 1.7.957 4.452 1.096 6.378.324" style="fill:#ffff3a"/><path d="M40.704 47.274c1.548-.755 2.387-1.996 2.288-3.382-.11-1.547-.746-1.747-3.282-1.031-2.203.621-2.255.61-4.195-.854-.6-.452-1.278-.887-1.506-.965-1.006-.346-2.127 1.516-1.999 3.32.079 1.105 1.878 2.929 3.339 3.386 1.506.471 3.845.264 5.355-.474" style="opacity:.2"/><path d="M40.704 46.274c1.548-.755 2.387-1.996 2.288-3.382-.11-1.547-.746-1.747-3.282-1.031-2.203.621-2.255.61-4.195-.854-.6-.452-1.278-.887-1.506-.965-1.006-.346-2.127 1.516-1.999 3.32.079 1.105 1.878 2.929 3.339 3.386 1.506.471 3.845.264 5.355-.474" style="fill:#fff"/><path d="M19.14 24c-1.69 0-2.033.087-3.05.775-2.89 1.955-4.09 4.85-4.09 9.86 0 .263.007.446.01.678.053-4.804 1.257-7.628 4.08-9.538 1.017-.688 1.36-.775 3.05-.775 3.236 0 5.487 1.402 6.444 4.014.26.712.395 3.542.41 6.431.016-3.214-.118-6.635-.41-7.431C24.627 25.402 22.376 24 19.141 24" style="fill:#fff;opacity:.2"/><path d="M32 4A28 28 0 0 0 4 32a28 28 0 0 0 .006.51A28 28 0 0 1 32 5a28 28 0 0 1 27.994 27.49A28 28 0 0 0 60 32 28 28 0 0 0 32 4" style="fill:#fff;opacity:.1"/></svg>