<svg xmlns="http://www.w3.org/2000/svg" width="64" height="64"><rect width="58" height="58" x="3" y="4" rx="2.9" ry="2.9" style="opacity:.2"/><path d="M5.9 3h52.2C59.707 3 61 4.293 61 5.9v52.2c0 1.607-1.293 2.9-2.9 2.9H15.026l-7.93-1.555c-1.576-.31-1.141-.638-1.584-2.182L3 48.496V5.9C3 4.293 4.293 3 5.9 3" style="fill:#2b855b"/><path d="M3 48.267V58.1C3 59.707 4.293 61 5.9 61h9.833z" style="fill:#ffb923"/><rect width="42" height="42" x="11" y="12" rx="2.1" ry="2.1" style="opacity:.2"/><rect width="42" height="42" x="11" y="11" rx="2.1" ry="2.1" style="fill:#c1c1c1"/><path d="M29 27h6v20h-6zm0-10h6v6h-6z" style="fill:#4e4e4e"/><path d="M5.898 3A2.89 2.89 0 0 0 3 5.898v1A2.89 2.89 0 0 1 5.898 4h52.204A2.89 2.89 0 0 1 61 6.898v-1A2.89 2.89 0 0 0 58.102 3z" style="opacity:.1;fill:#fff"/><path d="M3 48.266v1L14.734 61h1z" style="opacity:.1"/><path d="M13.102 11A2.1 2.1 0 0 0 11 13.102v1c0-1.164.938-2.102 2.102-2.102h37.796c1.164 0 2.102.938 2.102 2.102v-1A2.1 2.1 0 0 0 50.898 11z" style="opacity:.2;fill:#fff"/></svg>