<svg xmlns="http://www.w3.org/2000/svg" width="64" height="64"><rect width="56" height="56" x="4" y="5" rx="2.8" ry="2.8" style="opacity:.2"/><rect width="56" height="56" x="4" y="4" rx="2.8" ry="2.8" style="fill:#e4e4e4"/><path d="m21 29 18.9 21H21Z" style="opacity:.1"/><path d="m21 28 18.9 21H21Z" style="fill:#a11d21"/><path d="M21 29 39.2 8 21 50Z" style="opacity:.1"/><path d="M21 28 39.2 7 21 49Z" style="fill:#e02a32"/><circle cx="37.5" cy="34.5" r="5.5" style="opacity:.1"/><circle cx="37.5" cy="33.5" r="5.5" style="fill:#e02a32"/><path d="M6.8 4C5.25 4 4 5.25 4 6.8v1C4 6.25 5.25 5 6.8 5h50.4C58.75 5 60 6.25 60 7.8v-1C60 5.25 58.75 4 57.2 4z" style="opacity:.2;fill:#fff"/></svg>