<svg xmlns="http://www.w3.org/2000/svg" xmlns:xlink="http://www.w3.org/1999/xlink" width="64" height="64"><defs><filter id="d" width="1.596" height="1.094" x="-.298" y="-.047" style="color-interpolation-filters:sRGB"><feGaussianBlur stdDeviation=".704"/></filter><filter id="c" width="1.192" height="1.192" x="-.096" y="-.096" style="color-interpolation-filters:sRGB"><feGaussianBlur stdDeviation="2.193"/></filter><radialGradient xlink:href="#a" id="b" cx="11.099" cy="37.657" r="28" fx="11.099" fy="37.657" gradientTransform="rotate(60 71.102 26.035)scale(2.54204 2.09448)" gradientUnits="userSpaceOnUse"/><linearGradient id="a"><stop offset="0" style="stop-color:#00cfff;stop-opacity:1"/><stop offset="1" style="stop-color:#0091ff;stop-opacity:1"/></linearGradient></defs><rect width="53.49" height="53.49" x="5.255" y="5.255" rx="26.745" ry="26.745" style="fill:url(#b);stroke-width:.955185"/><rect width="56" height="56" x="4.065" y="3.955" rx="28" ry="28" style="mix-blend-mode:normal;fill:none;stroke:#000;stroke-width:.209383;stroke-dasharray:none;stroke-opacity:1;filter:url(#c)" transform="translate(1.372 1.477)scale(.95519)"/><path d="M29 47.836V28.021A3.02 3.02 135 0 1 32.021 25 3.05 3.05 46.338 0 1 35 28.12v19.768A3.11 3.11 135 0 1 31.889 51 3.03 3.03 47.6 0 1 29 47.836m0-31.723v-.248A2.866 2.866 135 0 1 31.866 13h.119A3.015 3.015 45 0 1 35 16.014v.1A2.885 2.885 135 0 1 32.115 19h-.23A2.886 2.886 45 0 1 29 16.113" style="fill:#fff" transform="translate(.001)"/><path d="M29 47.836V28.021A3.02 3.02 135 0 1 32.021 25 3.05 3.05 46.338 0 1 35 28.12v19.768A3.11 3.11 135 0 1 31.889 51 3.03 3.03 47.6 0 1 29 47.836Zm0-31.723v-.248A2.866 2.866 135 0 1 31.866 13h.119A3.015 3.015 45 0 1 35 16.014v.1A2.885 2.885 135 0 1 32.115 19h-.23A2.886 2.886 45 0 1 29 16.113Z" style="fill:none;stroke:#007cff;stroke-width:.2;stroke-dasharray:none;stroke-opacity:1;filter:url(#d)" transform="translate(-.027 .085)"/></svg>