<svg xmlns="http://www.w3.org/2000/svg" width="64" height="64"><path d="M32.148 5v.004a6.346 6.443 0 0 0-3.32.855L10.156 16.805a6.346 6.443 0 0 0-3.144 5.062l-.008-.066-.004.023.008.074v.004a6.346 6.443 0 0 0-.008.07 6.346 6.443 0 0 0 .004.024L7 22.043v21.773a6.37 6.37 0 0 0 3.172 5.512l18.656 10.82A6.4 6.4 0 0 0 32 61a6.3 6.3 0 0 0 3.172-.852l18.656-10.82A6.37 6.37 0 0 0 57 43.812V22.023a6.346 6.443 0 0 0-.004-.023l-.004-.098-.004.016a6.346 6.443 0 0 0-3.144-5.113L35.172 5.859A6.346 6.443 0 0 0 32.148 5" style="opacity:.2"/><path d="M32.145 4.7v.003a6.187 6.208 0 0 0-3.24.826L10.701 16.076a6.187 6.208 0 0 0-3.076 4.977 6.187 6.208 0 0 0 .003.027l-.003.024.008.075-.008.138v21.227a6.21 6.21 0 0 0 3.092 5.377l18.191 10.547a6.16 6.16 0 0 0 6.184 0l18.191-10.547a6.21 6.21 0 0 0 3.092-5.377V21.317l-.008-.138a6.187 6.208 0 0 0 .008-.075 6.187 6.208 0 0 0-3.076-5.028L35.094 5.529a6.187 6.208 0 0 0-2.949-.829m24.132 17.14-.037.184a6.187 6.208 0 0 0 .037-.184m-.182.728c-.014.042-.023.086-.037.128a6.187 6.208 0 0 0 .037-.128m-.638 1.407q-.047.074-.098.147a6.187 6.208 0 0 0 .098-.147m-.407.579q-.069.085-.14.168a6.187 6.208 0 0 0 .14-.168m-.45.509a6 6 0 0 1-.188.184 6.187 6.208 0 0 0 .188-.184m-.531.48q-.097.08-.199.157a6.187 6.208 0 0 0 .199-.157M34.423 36.959l-.074.032a6.187 6.208 0 0 0 .074-.032m-1.577.434-.082.011a6.187 6.208 0 0 0 .082-.01" style="fill:#0f7b9f"/><path d="M56.992 20.901a6.37 6.37 0 0 1-3.147 5.029L35.174 36.747a6.33 6.33 0 0 1-3.174.848V60c1.095 0 2.19-.284 3.171-.853L53.83 48.33A6.37 6.37 0 0 0 57 42.814v-21.77zM32 60" style="fill:#0f9f98"/><path d="M7.003 20.8 7 20.825l.008.076-.008.142v21.771a6.37 6.37 0 0 0 3.171 5.516L28.83 59.147a6.4 6.4 0 0 0 3.171.853V37.595h-.016a6 6 0 0 1-.513-.025l-.141-.011a6 6 0 0 1-.518-.08l-.095-.016a6 6 0 0 1-.459-.115l-.184-.052a6 6 0 0 1-.35-.128 6 6 0 0 1-.26-.101 6 6 0 0 1-.285-.14 6 6 0 0 1-.353-.18L10.155 25.93a6 6 0 0 1-.53-.348h-.002l-.024-.019a6 6 0 0 1-.45-.36 6 6 0 0 1-.22-.211 6 6 0 0 1-.23-.227 6 6 0 0 1-.237-.28 6 6 0 0 1-.17-.207 6 6 0 0 1-.218-.312 6 6 0 0 1-.14-.21 6 6 0 0 1-.196-.353 6 6 0 0 1-.109-.202 6 6 0 0 1-.16-.375 6 6 0 0 1-.09-.213q-.045-.135-.083-.27-.061-.18-.112-.362l-.03-.158a6 6 0 0 1-.092-.46 6 6 0 0 1-.06-.563" style="fill:#67a1fd"/><path d="M32.15 4v.003a6.346 6.443 0 0 0-3.324.858L10.154 15.806A6.346 6.443 0 0 0 7 20.972a6.346 6.443 0 0 0 3.154 5.219l18.672 10.946a6.346 6.443 0 0 0 6.347 0L53.845 26.19A6.346 6.443 0 0 0 57 21.025a6.346 6.443 0 0 0-3.155-5.219L35.173 4.861A6.346 6.443 0 0 0 32.15 4" style="fill:#216bcc"/><path d="M7.055 21.502a6.346 6.443 0 0 0-.055.47 6.346 6.443 0 0 0 3.156 5.22l18.672 10.944a6.346 6.443 0 0 0 6.344 0l18.672-10.945A6.346 6.443 0 0 0 57 22.023a6.346 6.443 0 0 0-.055-.476 6.346 6.443 0 0 1-3.101 4.644L35.172 37.136a6.346 6.443 0 0 1-6.344 0L10.156 26.191a6.346 6.443 0 0 1-3.101-4.69" style="opacity:.1"/><path d="M32.148 4v.004a6.346 6.443 0 0 0-3.32.855L10.156 15.805A6.346 6.443 0 0 0 7 20.973a6.346 6.443 0 0 0 .144 1.02 6.346 6.443 0 0 1 3.012-4.188L28.828 6.859a6.346 6.443 0 0 1 3.32-.855V6a6.346 6.443 0 0 1 3.024.86l18.672 10.945a6.346 6.443 0 0 1 3.011 4.199 6.346 6.443 0 0 0 .145-.98 6.346 6.443 0 0 0-3.156-5.22L35.172 4.86A6.346 6.443 0 0 0 32.148 4" style="opacity:.1;fill:#fff"/><path d="m37.297 14.066-9.631 6.47L21 16.059V29h19.26l-6.668-4.48 9.63-6.471zM17 34.277v7.764l-4.926-3.135 6.74 12.293 6.74-3.234L21 44.828v-7.764zm30 0-4 2.787v7.764l-4.537 3.137 6.74 3.234 6.74-12.293L47 42.041Z" style="opacity:.2"/><path d="m43.222 17.049-9.63 6.471L40.26 28H21V15.058l6.667 4.48 9.63-6.471zM17 33.277v7.765l-4.925-3.135 6.74 12.293 6.74-3.236L21 43.83v-7.765zm30 0v7.765l4.944-3.135-6.74 12.293-6.74-3.236L43 43.83v-7.765z" style="fill:#fff"/></svg>