<svg xmlns="http://www.w3.org/2000/svg" width="64" height="64"><path d="M8.055 35c-.015.334-.05.662-.05 1 0 12.188 9.811 22 21.999 22s22-9.812 22-22c0-.338-.036-.666-.05-1-.524 11.716-10.1 21-21.95 21S8.578 46.716 8.054 35z" style="opacity:.2"/><rect width="43.999" height="43.999" x="-57" y="-52" rx="22" ry="22" style="fill:#394e9a" transform="rotate(90)scale(-1 1)"/><path d="M30.004 13c-12.188 0-22 9.812-22 22 0 .114.011.225.017.338A21.945 21.945 0 0 1 30.004 14a21.947 21.947 0 0 1 21.984 21.33c.006-.11.016-.218.016-.33 0-12.188-9.812-22-22-22" style="opacity:.2;fill:#fff"/><path d="M45.268 8.002c-.014 0-.03.009-.044.01a1 1 0 0 0-.316.078 1 1 0 0 0-.265.15 1.3 1.3 0 0 0-.252.307q-.03.049-.06.102a2.3 2.3 0 0 0-.19.476l-.01.028c-.146-.707-1.674-.535-1.674-.535l.002.003h-.005s.128.087.252.208c.062.062.124.13.17.202v.002a.37.37 0 0 1 .07.212v.002q-.393.045-.775.128c-.055-.125-.049-.312-.036-.512.013-.199.032-.408-.003-.582l-.002.005v-.008a2 2 0 0 0-.242.578 4 4 0 0 0-.113.613c-.05.014-.099.035-.15.05-.197.058-.396.116-.586.19a4.4 4.4 0 0 0-.447-.621 3.3 3.3 0 0 0-.53-.504q-.05-.041-.103-.078a2.5 2.5 0 0 0-.602-.316c-.006-.003-.011-.009-.018-.01h-.005a2.3 2.3 0 0 0-.674-.11c-.023-.001-.043-.011-.067-.011-.037 0-.08.019-.118.02a2.6 2.6 0 0 0-.558.095c-.066.018-.13.034-.198.057-.252.089-.51.203-.777.371-.955.601-1.403 1.562-1.535 2.627-2.77.586-5.885 1.081-8.634 1.092l-.095.003c-2.962 0-5.364.87-7.133 2.475a9 9 0 0 0-1.358 1.549v.002q-.3.43-.56.901c-.089.16-.163.334-.245.502-.078.161-.164.317-.236.485v.003q-.219.511-.396 1.063-.179.551-.314 1.141c-.07.302-.125.616-.178.932-.016.097-.039.19-.054.288v.002a18 18 0 0 0-.141 1.288v.005q-.05.66-.057 1.355-.012 1.393.026 2.533v.006q.038 1.137.116 2.047v.003c.051.608.116 1.144.187 1.616v.003c.072.471.153.98.24 1.332v.003q.13.525.275.896v.002c.095.248.195.446.293.606v.003c.098.159.198.277.293.365a.9.9 0 0 0 .275.18c.564.209.394-.052.304-.172a.4.4 0 0 1-.056-.08l.25.154.252.16v-.317l.236.032.206.028.593-.389.062-.122h.568s.423-.14.553-.512c.014-.04.035-.063.046-.11v-.002c.038-.159.06-.354.044-.593-.048-.723.258-1.111.2-1.591a1.5 1.5 0 0 0-.2-.562c-.25-.442-.714-2.57-.797-4.711l-.005-.094c-.04-1.085-.032-2.168.048-3.032v-.003c.233-2.813 3.463-3.392 5.668-4.092q.475-.147.926-.232c.9-.169 1.703-.365 2.649-.489a15 15 0 0 1 2.147-.122h.003l.062.002c1.23.019 2.752.17 4.804.549.005.369.035.207.093.744v.011c.159 1.469.485 2.32.936 3.097.45.777 1.024 1.477 1.677 2.64l.003.003q.297.538.625.966l.002.003q.33.428.69.747.36.318.748.53l.003.002q.387.212.802.319c1.113.288 2.373.02 3.755-.763 1.138-.676 1.98-.993 2.752-1.439q.288-.164.569-.365a6 6 0 0 0 .565-.46c.19-.174.383-.37.582-.598v-.002c.198-.228.407-.484.622-.781.057-.078.069-.117.12-.19.27-.382.51-.728.672-1.014.417-.314.835-.633 1.23-.893.958-.653 2.005-1.666 2.651-2.818v-.003c.323-.575.545-1.186.607-1.804v-.003q.024-.23.016-.462v-.002a3.2 3.2 0 0 0-.373-1.388 4 4 0 0 0-.471-.7c-.054-.063-.112-.108-.168-.164a2.7 2.7 0 0 0-.362-.322c-.072-.05-.148-.091-.222-.133a2.2 2.2 0 0 0-1.06-.295c-.055-.001-.11-.007-.165-.005q-.316.01-.64.091l-.016.003h-.002a4.4 4.4 0 0 0-1.284.588l-.007-.01a7 7 0 0 0-.378-.487c-.033-.038-.06-.08-.093-.117v-.003c.06-.129.134-.3.19-.486.056-.185.095-.384.088-.564-.246.295-.319.991-.718.583a.4.4 0 0 1-.098-.139.16.16 0 0 1-.005-.11c.01-.03.049-.047.075-.07.139-.125.442-.167.442-.167l-.002-.003s-.476-.365-.852-.383a.5.5 0 0 0-.177.023.34.34 0 0 0-.144.1c.154-.587-.003-.9-.198-1.066-.196-.167-.43-.188-.43-.188v.002s.175.19.25.41c.007.024.023.044.028.068v.003a.4.4 0 0 1-.02.248v.002a.3.3 0 0 1-.119.131c-.018.011-.04.012-.06.02-.038.017-.076.035-.118.04q-.157-.095-.318-.185l-.116-.068a.65.65 0 0 1 0-.376v-.005a.55.55 0 0 0-.576.099 10 10 0 0 0-.328-.141l.088-.457.11-.57-.002.006v-.006l-.556.886-.248-.087c-.02-.27-.116-.572-.396-.752a1 1 0 0 0-.348-.133c-.094.359-.282.52-.484.564q-.109-.02-.218-.036-.108-.02-.216-.037a.7.7 0 0 1-.24-.214.43.43 0 0 1-.076-.277.55.55 0 0 1 .152-.316c.244-.262.69-.378.69-.378s-.078-.036-.201-.066a1.3 1.3 0 0 0-.342-.036zm-24.21 29.973v.705l-.504-.32v.386l-.569-.322.127.322-.507-.256.064.64-.504-.512.188.895-.504-.256.442 1.155-.633-.833.443 1.154-.378-.256.504 1.026-.443-.386.507.705-.442-.256s2.272 4.362 6.062 6.863c.947.625 2.001 1.342 3.181 2.05s2.488 1.404 3.94 1.99a20.7 20.7 0 0 0 7.59 1.53c.968.01 1.98-.047 3.038-.183a9.5 9.5 0 0 0 2.778-.773 8 8 0 0 0 2.055-1.36c.865-.791 1.503-1.723 1.97-2.675v-.002c1.401-2.857 1.28-5.9 1.28-5.9-2.36 5.42-4.483 7.143-8.065 6.163a12 12 0 0 1-1.031-.352 18 18 0 0 1-1.703-.744c-6.745-3.375-16.486-9.237-16.486-9.237l-.062.45-.947-.834v.256l-.442-.45-.064.387-.443-.642v.514z" style="opacity:.2;fill-rule:evenodd"/><path d="M45.268 7.001c-.014 0-.03.01-.044.01a1 1 0 0 0-.316.08 1 1 0 0 0-.265.148 1.7 1.7 0 0 0-.311.41 2.3 2.3 0 0 0-.19.475c-.004.012-.008.017-.011.029-.146-.707-1.674-.535-1.674-.535l.002.002h-.005s.128.087.252.21c.062.06.124.129.17.2v.003a.37.37 0 0 1 .07.211v.003q-.393.045-.775.128c-.055-.125-.049-.313-.036-.512.013-.2.032-.409-.003-.582l-.002.005v-.008a2 2 0 0 0-.242.577 4 4 0 0 0-.113.614c-.05.014-.099.035-.15.05-.197.058-.396.115-.586.19a4.4 4.4 0 0 0-.447-.621 3.3 3.3 0 0 0-.53-.504q-.05-.041-.103-.079a2.5 2.5 0 0 0-.602-.316c-.006-.002-.011-.008-.018-.01h-.005a2.3 2.3 0 0 0-.674-.11c-.023 0-.043-.01-.067-.01-.037 0-.08.019-.118.02a2.6 2.6 0 0 0-.558.095c-.066.018-.13.034-.198.057-.252.089-.51.203-.777.37-.955.602-1.403 1.563-1.535 2.628-2.77.585-5.885 1.081-8.634 1.092l-.095.002c-2.962 0-5.364.872-7.133 2.476a9 9 0 0 0-1.358 1.548v.003q-.3.43-.56.901c-.089.16-.163.334-.245.501-.078.162-.164.318-.236.486v.003q-.219.511-.396 1.063-.179.551-.314 1.14c-.07.303-.125.617-.178.933-.016.097-.039.189-.054.287v.003a18 18 0 0 0-.141 1.287v.006q-.05.66-.057 1.355c-.008.93.001 1.771.026 2.533v.005c.025.76.065 1.44.116 2.048v.002c.051.608.116 1.144.187 1.617v.002c.072.472.153.98.24 1.333v.003q.13.525.275.895v.003c.095.247.195.446.293.606v.002c.098.16.198.278.293.366a.9.9 0 0 0 .275.18c.564.208.394-.052.304-.172a.4.4 0 0 1-.056-.08l.25.154.252.16v-.317l.236.031.206.03.593-.39.062-.123h.568s.423-.139.553-.511c.014-.04.035-.064.046-.11v-.003a2 2 0 0 0 .044-.593c-.048-.722.258-1.11.2-1.59a1.5 1.5 0 0 0-.2-.562c-.25-.443-.714-2.57-.797-4.711l-.005-.094c-.04-1.086-.032-2.168.048-3.032v-.003c.233-2.813 3.463-3.392 5.668-4.092q.475-.147.926-.233c.9-.168 1.703-.364 2.649-.488a15 15 0 0 1 2.147-.123h.003l.062.003c1.23.019 2.752.17 4.804.548.005.37.035.208.093.745v.011c.159 1.468.485 2.32.936 3.097.45.777 1.024 1.477 1.677 2.64l.003.003q.297.537.625.966l.002.002q.33.429.69.747.36.319.748.53l.003.003q.387.21.802.319c1.113.288 2.373.02 3.755-.763 1.138-.676 1.98-.993 2.752-1.439q.288-.164.569-.366a6 6 0 0 0 .565-.46q.284-.258.582-.597v-.003c.198-.228.407-.483.622-.78.057-.079.069-.117.12-.191.27-.381.51-.727.672-1.013.417-.314.835-.633 1.23-.894.958-.653 2.005-1.665 2.651-2.817v-.003c.323-.576.545-1.186.607-1.804v-.003q.024-.231.016-.462v-.003a3.2 3.2 0 0 0-.373-1.387 4 4 0 0 0-.471-.7c-.054-.063-.112-.109-.168-.165a2.7 2.7 0 0 0-.362-.32c-.072-.052-.148-.093-.222-.134a2.2 2.2 0 0 0-1.06-.295c-.055-.002-.11-.007-.165-.005q-.316.009-.64.091l-.016.003h-.002a4.4 4.4 0 0 0-1.284.587l-.007-.01a7 7 0 0 0-.378-.486c-.033-.038-.06-.08-.093-.117v-.003c.06-.129.134-.3.19-.486.056-.185.095-.384.088-.564-.246.294-.319.99-.718.582a.4.4 0 0 1-.098-.138.16.16 0 0 1-.005-.11c.01-.03.049-.047.075-.07.139-.125.442-.167.442-.167l-.002-.003s-.476-.366-.852-.384a.5.5 0 0 0-.177.024.34.34 0 0 0-.144.099c.154-.587-.003-.9-.198-1.066-.196-.166-.43-.188-.43-.188v.003s.175.19.25.41c.007.024.023.044.028.068v.003a.4.4 0 0 1-.02.248v.002a.3.3 0 0 1-.119.13c-.018.012-.04.013-.06.022-.038.016-.076.034-.118.039q-.157-.095-.318-.186l-.116-.067a.65.65 0 0 1 0-.376v-.006a.55.55 0 0 0-.576.1 10 10 0 0 0-.328-.142l.088-.457.11-.569-.002.005v-.005l-.556.885-.248-.086c-.02-.27-.116-.572-.396-.752a1 1 0 0 0-.348-.133c-.094.358-.282.52-.484.564q-.109-.02-.218-.036-.108-.02-.216-.037a.7.7 0 0 1-.24-.214.43.43 0 0 1-.076-.277.55.55 0 0 1 .152-.316c.244-.263.69-.379.69-.379s-.078-.035-.201-.065a1.3 1.3 0 0 0-.342-.037zm-24.21 29.974v.705l-.504-.321v.386l-.569-.32.127.32-.507-.256.064.64-.504-.512.188.896-.504-.256.442 1.154-.633-.833.443 1.155-.378-.256.504 1.026-.443-.386.507.705-.442-.256s2.272 4.361 6.062 6.863c.947.625 2.001 1.342 3.181 2.05s2.488 1.404 3.94 1.99a20.7 20.7 0 0 0 7.59 1.53c.968.009 1.98-.047 3.038-.183a9.5 9.5 0 0 0 2.778-.773 8 8 0 0 0 2.055-1.36c.865-.791 1.503-1.723 1.97-2.675v-.002c1.401-2.858 1.28-5.9 1.28-5.9-2.36 5.42-4.483 7.143-8.065 6.163-.328-.09-.678-.218-1.031-.352a18 18 0 0 1-1.703-.745c-6.745-3.374-16.486-9.236-16.486-9.236l-.062.449-.947-.833v.256l-.442-.45-.064.387-.443-.642v.514z" style="fill:#2aa2f6;fill-rule:evenodd"/><path d="M42.91 20.013c-.818.051-1.009.171-.867.903.14.733.53 1.764 1.431 2.026.902.263 1.715-.419 2.174-.976.46-.557.582-.579-.335-1.253s-1.586-.75-2.404-.7z" style="fill:#464646;fill-rule:evenodd"/><path d="M45.266 7.002c-.014.001-.028.009-.041.01a1 1 0 0 0-.317.078 1 1 0 0 0-.265.148 1.7 1.7 0 0 0-.31.41 2.3 2.3 0 0 0-.192.477c-.004.011-.007.016-.01.027-.146-.706-1.674-.535-1.674-.535l.002.004h-.006s.128.087.252.21c.062.06.125.127.17.198v.004a.37.37 0 0 1 .07.211v.002q-.391.046-.773.129c-.056-.125-.05-.312-.037-.512.013-.199.033-.408-.002-.582l-.004.004v-.008a2 2 0 0 0-.24.578 4 4 0 0 0-.114.614c-.05.014-.1.036-.15.05-.198.059-.396.115-.586.19a4.4 4.4 0 0 0-.447-.621 3.3 3.3 0 0 0-.53-.504q-.05-.04-.103-.078a2.5 2.5 0 0 0-.602-.317l-.017-.01h-.006a2.3 2.3 0 0 0-.674-.11c-.023-.001-.043-.01-.066-.01-.038 0-.081.019-.12.021q-.27.015-.556.094c-.066.018-.132.033-.2.056a3.8 3.8 0 0 0-.777.372c-.955.6-1.402 1.561-1.535 2.627-2.769.585-5.883 1.08-8.633 1.091-.03 0-.065.004-.095.004-2.962 0-5.364.87-7.133 2.475a9 9 0 0 0-1.358 1.549v.002q-.3.43-.56.902c-.088.16-.163.333-.244.5-.079.162-.165.318-.237.486v.002q-.219.512-.396 1.063-.178.552-.314 1.142c-.07.302-.125.616-.178.932-.016.097-.038.189-.053.287v.002q-.094.626-.142 1.29v.003q-.051.66-.057 1.355c-.003.297.007.529.008.807.007-.394.02-.784.049-1.162v-.004q.05-.661.142-1.287v-.004c.015-.098.037-.19.053-.287.053-.316.108-.63.178-.932q.136-.59.314-1.14.177-.552.396-1.065v-.002c.072-.168.158-.324.237-.486.081-.167.156-.34.244-.5q.26-.472.56-.902v-.002q.6-.861 1.358-1.55c1.769-1.603 4.171-2.474 7.133-2.474.03 0 .065-.004.095-.004 2.75-.01 5.864-.506 8.633-1.091.133-1.066.58-2.026 1.535-2.627a3.8 3.8 0 0 1 .778-.372c.067-.023.133-.038.199-.056q.286-.08.557-.094c.038-.002.08-.021.119-.021.023 0 .043.01.066.011.234.005.46.038.674.11h.006q.009.004.017.01c.213.073.411.184.602.316q.053.037.103.078.283.214.53.504c.16.19.312.39.447.621.19-.075.388-.131.586-.19.05-.014.1-.036.15-.05a4 4 0 0 1 .114-.614c.056-.208.132-.409.24-.576v.008l.004-.006c.035.174.015.383.002.582-.013.2-.019.387.037.512a8 8 0 0 1 .773-.127v-.004a.37.37 0 0 0-.07-.21V9.03a1.2 1.2 0 0 0-.17-.2c-.124-.123-.252-.21-.252-.21h.006l-.002-.004s1.528-.171 1.674.535c.003-.011.006-.016.01-.027a2.3 2.3 0 0 1 .25-.578c.079-.125.161-.231.252-.307a1 1 0 0 1 .265-.15c.042-.017.082-.018.123-.03a.42.42 0 0 1-.07-.261.55.55 0 0 1 .152-.317c.244-.262.69-.378.69-.378s-.078-.037-.201-.067a1.3 1.3 0 0 0-.334-.035zm.93.797c-.095.358-.283.519-.485.562q-.109-.019-.217-.035l-.148-.025a1 1 0 0 0-.233.181.55.55 0 0 0-.152.317c-.01.095.02.19.076.275.058.086.142.16.24.215q.109.017.217.037c.108.02.145.021.217.035.202-.043.39-.204.484-.562q.209.041.348.133c.28.18.376.481.396.752q.125.041.248.086l.5-.8-.14-.06.088-.457.111-.568-.004.004v-.004l-.554.885-.249-.086c-.02-.27-.116-.573-.396-.752a1 1 0 0 0-.348-.133m2.728.863v.002s.175.19.25.41c.008.024.022.044.027.069v.003a.4.4 0 0 1-.02.249v.001a.3.3 0 0 1-.118.131c-.019.011-.04.011-.06.02-.037.016-.076.034-.118.039q-.156-.094-.317-.184-.058-.035-.117-.068a.66.66 0 0 1 0-.377v-.004a.55.55 0 0 0-.576.098l-.148-.065-.092.467-.088.457q.165.068.328.14a.55.55 0 0 1 .576-.097v.004a.66.66 0 0 0 0 .377l.117.068q.16.09.317.186c.042-.005.08-.023.119-.04.02-.008.04-.01.059-.02a.3.3 0 0 0 .119-.132v-.001a.4.4 0 0 0 .02-.249v-.003c-.006-.025-.02-.043-.028-.067-.075-.22-.25-.41-.25-.41v-.004s.234.023.43.19c.195.166.35.477.197 1.064a.34.34 0 0 1 .144-.1.5.5 0 0 1 .178-.023c.376.018.852.385.852.385l.002.002s-.303.043-.442.168c-.026.023-.064.04-.074.07a.16.16 0 0 0 .004.11.4.4 0 0 0 .097.138c.314.321.43-.037.583-.35l-.05-.062c-.032-.038-.058-.082-.091-.12v-.001c.06-.13.133-.301.19-.487.056-.185.095-.382.087-.562-.245.294-.32.99-.718.582a.4.4 0 0 1-.098-.139.16.16 0 0 1-.004-.109c.01-.03.048-.047.074-.07.139-.125.442-.168.442-.168l-.002-.002s-.476-.367-.852-.385a.5.5 0 0 0-.178.023.34.34 0 0 0-.144.1c.154-.587-.002-.9-.197-1.066-.196-.167-.43-.188-.43-.188m4.25 2.406a3 3 0 0 0-.64.09l-.016.004h-.002c-.427.112-.86.31-1.286.588l-.007-.012c-.072-.102-.153-.197-.23-.295q-.021.105-.05.205a4 4 0 0 1-.19.485v.004c.034.037.06.079.093.117q.2.235.377.484l.007.012a4.4 4.4 0 0 1 1.286-.588h.002l.015-.002q.325-.082.64-.092c.056-.002.11.003.165.004a2.4 2.4 0 0 1 .683.123q.195.067.377.172c.074.042.15.084.221.135.126.09.247.201.363.32.056.056.114.103.168.166.169.2.327.427.471.7.184.347.275.7.324 1.056.01-.067.027-.135.034-.203v-.002q.023-.23.015-.463v-.002a3.2 3.2 0 0 0-.373-1.386 4 4 0 0 0-.47-.702c-.055-.063-.113-.108-.169-.164a2.7 2.7 0 0 0-.363-.32 3 3 0 0 0-.22-.135 2.2 2.2 0 0 0-1.061-.295c-.055-.001-.109-.006-.164-.004M19.955 23.215c-.013.581-.01 1.19.012 1.814l.006.094c.083 2.141.547 4.268.797 4.711.049.088.079.164.109.24.06-.236.118-.448.09-.68a1.5 1.5 0 0 0-.2-.56c-.249-.443-.713-2.57-.796-4.711l-.006-.094c-.01-.276-.008-.542-.012-.814m1.104 13.76v.705l-.504-.32v.386l-.569-.322.125.322-.506-.256.065.639-.506-.512.19.897-.504-.256.441 1.154-.633-.834.278.723.418.213-.19-.897.506.512-.065-.639.506.256-.125-.322.569.322v-.387l.504.32v-.704l.441.642v-.513l.443.642.065-.387.441.45v-.256l.947.832.061-.45s9.741 5.862 16.486 9.237c.606.303 1.165.542 1.703.746.354.134.704.262 1.032.352 3.555.972 5.674-.728 8.013-6.051.045-.635.053-1.114.053-1.114-2.36 5.42-4.484 7.144-8.066 6.165-.328-.09-.678-.22-1.032-.354a18 18 0 0 1-1.703-.744c-6.745-3.375-16.486-9.236-16.486-9.236l-.06.449-.948-.832v.256l-.441-.45-.065.387-.443-.642v.513zm-2.336 2.502.257.527.311.408-.285-.744zm.062.64.172.24-.05-.134zm.108.475.209.14-.01-.025z" style="fill:#fff;fill-rule:evenodd;opacity:.2"/><circle cx="43.839" cy="3.265" r="1.5" style="fill:#464646" transform="rotate(15)"/><circle cx="-51.118" cy="3.385" r="1.5" style="fill:#464646" transform="rotate(15)scale(-1 1)"/></svg>