<svg xmlns="http://www.w3.org/2000/svg" width="64" height="64"><defs><filter id="a" width="1.207" height="1.207" x="-.104" y="-.104" style="color-interpolation-filters:sRGB"><feGaussianBlur stdDeviation="1.188"/></filter></defs><g transform="translate(4.489 4.489)scale(1.71944)"><rect width="8" height="13" x="12" y="2" rx="4" style="fill:#ffa726"/><rect width="8" height="13" x="12" y="-30" rx="4" style="fill:#9ccc65" transform="rotate(90)"/><rect width="8" height="13" x="12" y="-15" rx="4" style="fill:#f06292" transform="rotate(90)"/><rect width="8" height="13" x="-20" y="-30" rx="4" style="fill:#64b5f6" transform="scale(-1)"/><rect width="8" height="13" x="18.626" y="-13.956" rx="4" style="fill:#fdd835" transform="rotate(45)"/><rect width="8" height="13" x="-4" y="-36.582" rx="4" style="fill:#4db6ac" transform="rotate(135)"/><rect width="8" height="13" x="-4" y="8.669" rx="4" style="fill:#ef5350" transform="rotate(135)scale(1 -1)"/><rect width="8" height="13" x="18.658" y="-13.925" rx="4" style="fill:#9575cd" transform="rotate(45)scale(1 -1)"/></g><g style="opacity:.91363;fill:none;stroke:#000;stroke-width:.105719;stroke-dasharray:none;stroke-opacity:1;filter:url(#a)" transform="translate(4.489 4.489)scale(1.71944)"><rect width="8" height="13" x="12" y="2" rx="4" style="fill:none;stroke:#000;stroke-width:.105719;stroke-dasharray:none;stroke-opacity:1"/><rect width="8" height="13" x="12" y="-30" rx="4" style="fill:none;stroke:#000;stroke-width:.105719;stroke-dasharray:none;stroke-opacity:1" transform="rotate(90)"/><rect width="8" height="13" x="12" y="-15" rx="4" style="fill:none;stroke:#000;stroke-width:.105719;stroke-dasharray:none;stroke-opacity:1" transform="rotate(90)"/><rect width="8" height="13" x="-20" y="-30" rx="4" style="fill:none;stroke:#000;stroke-width:.105719;stroke-dasharray:none;stroke-opacity:1" transform="scale(-1)"/><rect width="8" height="13" x="18.626" y="-13.956" rx="4" style="fill:none;stroke:#000;stroke-width:.105719;stroke-dasharray:none;stroke-opacity:1" transform="rotate(45)"/><rect width="8" height="13" x="-4" y="-36.582" rx="4" style="fill:none;stroke:#000;stroke-width:.105719;stroke-dasharray:none;stroke-opacity:1" transform="rotate(135)"/><rect width="8" height="13" x="-4" y="8.669" rx="4" style="fill:none;stroke:#000;stroke-width:.105719;stroke-dasharray:none;stroke-opacity:1" transform="rotate(135)scale(1 -1)"/><rect width="8" height="13" x="18.658" y="-13.925" rx="4" style="fill:none;stroke:#000;stroke-width:.105719;stroke-dasharray:none;stroke-opacity:1" transform="rotate(45)scale(1 -1)"/></g><path d="m39.567 13.729-6.288 6.288a7.544 7.544 0 0 0-.573 10.055 7.546 7.546 0 0 0 6.861-7.531z" style="opacity:.287986;fill:#ff9100;fill-opacity:1;stroke-width:.945913" transform="translate(2.916 2.916)scale(.90888)"/><path d="M38.629 31.054a7.53 7.53 0 0 0-4.703 1.649 7.55 7.55 0 0 0 7.533 6.864h8.81l-6.29-6.288a7.55 7.55 0 0 0-5.35-2.225" style="opacity:.287986;fill:#00ff2c;fill-opacity:1;stroke-width:.945913" transform="translate(2.916 2.916)scale(.90888)"/><path d="m13.732 24.432 6.286 6.286a7.544 7.544 0 0 0 10.053.572 7.546 7.546 0 0 0-7.53-6.858z" style="opacity:.457569;fill:#890029;fill-opacity:1;stroke-width:.945913" transform="translate(2.916 2.916)scale(.90888)"/><path d="M31.375 33.922a7.546 7.546 0 0 0-6.943 7.537v8.891l6.371-6.37a7.55 7.55 0 0 0 .572-10.057" style="opacity:.287986;fill:#2e2dff;fill-opacity:1;stroke-width:.945913" transform="translate(2.916 2.916)scale(.90888)"/><path d="M24.432 13.732v8.81a7.546 7.546 0 0 0 6.858 7.53 7.544 7.544 0 0 0-.572-10.054z" style="opacity:.549386;fill:#ff8100;fill-opacity:1;stroke-width:.945913" transform="translate(2.916 2.916)scale(.90888)"/><path d="M41.459 24.432a7.546 7.546 0 0 0-7.53 6.862 7.546 7.546 0 0 0 10.05-.576l6.285-6.286z" style="opacity:.287986;fill:#16ff00;fill-opacity:1;stroke-width:.945913" transform="translate(2.916 2.916)scale(.90888)"/><path d="M25.453 31.054a7.55 7.55 0 0 0-5.35 2.225l-6.29 6.289h8.729a7.55 7.55 0 0 0 7.537-6.924 7.53 7.53 0 0 0-4.625-1.59" style="opacity:.287986;fill:#f100ff;fill-opacity:1;stroke-width:.945913" transform="translate(2.916 2.916)scale(.90888)"/><path d="M32.703 33.926a7.55 7.55 0 0 0 .577 10.054l6.287 6.288V41.46a7.55 7.55 0 0 0-6.865-7.534" style="opacity:.437438;fill:#076fc4;fill-opacity:1;stroke-width:.945913" transform="translate(2.916 2.916)scale(.90888)"/><path d="M38.576 25.425a6.86 6.86 0 0 0-4.55 4.55 6.86 6.86 0 0 0 4.55-4.55m-4.554 8.597a6.86 6.86 0 0 0 4.554 4.554 6.86 6.86 0 0 0-4.554-4.554m-8.597-8.597a6.86 6.86 0 0 0 4.55 4.55 6.86 6.86 0 0 0-4.55-4.55m4.55 8.604a6.86 6.86 0 0 0-4.55 4.547 6.86 6.86 0 0 0 4.55-4.548M32 22.649a6.86 6.86 0 0 0 0 6.633 6.86 6.86 0 0 0 0-6.633m6.025 8.49a6.84 6.84 0 0 0-3.315.856 6.86 6.86 0 0 0 6.637.004 6.85 6.85 0 0 0-3.322-.86m-11.976 0a6.84 6.84 0 0 0-3.358.88 6.86 6.86 0 0 0 6.636-.043 6.84 6.84 0 0 0-3.278-.837m5.988 3.503a6.86 6.86 0 0 0 0 6.77 6.86 6.86 0 0 0 0-6.77" style="opacity:.633111;fill:#fff;fill-opacity:1;stroke-width:.859724"/></svg>