<svg xmlns="http://www.w3.org/2000/svg" width="64" height="64"><circle cx="32" cy="33" r="28" style="opacity:.2"/><circle cx="32" cy="32" r="28" style="fill:#3f3f3f"/><path d="M32 13.629c-11.046 0-20 8.954-20 20a20 20 0 0 0 9.105 16.726c1.732 1.117 3.098 1.832 4.985 1.743 4.695-.394 6.334-2.678 7.586-5.016 4.296-8.026 1.742-12.805 1.738-11.828-.013 3.22-6.126 9.701-11.273 9.746-3.42.03-6.238-3.331-6.141-10.383.1-7.307 4.351-14.713 15-20.96a20 20 0 0 0-1-.028M34.766 19c-2.672-.065-6.155 2.615-8.493 6.531-2.851 4.779-3.047 9.758-.437 11.121 2.61 1.362 7.039-1.409 9.89-6.187s3.048-9.754.438-11.117A3.16 3.16 0 0 0 34.766 19m11.78.91c.475 10.993-1.808 23.382-7.718 32.461A20 20 0 0 0 52 33.63a20 20 0 0 0-5.453-13.719" style="opacity:.2"/><path d="M32 12.629c-11.046 0-20 8.954-20 20a20 20 0 0 0 9.105 16.726c1.732 1.117 3.098 1.832 4.985 1.743 4.695-.394 6.334-2.678 7.586-5.016 4.296-8.026 1.742-12.805 1.738-11.828-.013 3.22-6.126 9.701-11.273 9.746-3.42.03-6.238-3.331-6.141-10.383.1-7.307 4.351-14.713 15-20.96a20 20 0 0 0-1-.028M34.766 18c-2.672-.065-6.155 2.615-8.493 6.531-2.851 4.779-3.047 9.758-.437 11.121 2.61 1.362 7.039-1.409 9.89-6.187s3.048-9.754.438-11.117A3.16 3.16 0 0 0 34.766 18m11.78.91c.475 10.993-1.808 23.382-7.718 32.461A20 20 0 0 0 52 32.63a20 20 0 0 0-5.453-13.719" style="fill:#81cf3d"/><path d="M32 4A28 28 0 0 0 4 32a28 28 0 0 0 .033.482A28 28 0 0 1 32 5a28 28 0 0 1 27.982 27.242L60 32A28 28 0 0 0 32 4" style="opacity:.1;fill:#fff"/><path d="M32 12.629c-11.046 0-20 8.954-20 20 0 .141.01.28.014.422.3-10.577 8.81-19.093 19.384-19.406.52-.332 1.047-.663 1.602-.989a20 20 0 0 0-1-.027M34.766 18c-2.672-.065-6.155 2.615-8.493 6.531-1.63 2.731-2.387 5.524-2.253 7.674.113-1.98.866-4.35 2.253-6.674 2.338-3.916 5.821-6.596 8.493-6.531.515.013.985.132 1.398.348 1.118.584 1.716 1.834 1.816 3.445.12-2.09-.476-3.745-1.816-4.445A3.16 3.16 0 0 0 34.766 18m11.78.91c.016.341.019.688.028 1.031a20 20 0 0 1 5.414 13.211c.005-.174.012-.348.012-.523a20 20 0 0 0-5.453-13.719m.054 2.93c-.016 10.217-2.382 21.25-7.772 29.531q.412-.15.815-.316c4.98-8.393 7.092-19.251 6.957-29.215M35.475 34.129q-.058-.013-.06.125C35.4 37.474 29.287 43.955 24.14 44c-3.287.029-6.008-3.083-6.131-9.58-.002.066-.01.131-.01.197C17.903 41.67 20.72 45.03 24.14 45c5.148-.045 11.261-6.526 11.274-9.746.002-.489.642.461.744 2.537.08-2.305-.492-3.624-.683-3.662" style="fill:#fff;opacity:.2"/></svg>