<svg xmlns="http://www.w3.org/2000/svg" width="64" height="64"><rect width="56" height="56" x="4" y="5" rx="28" style="opacity:.2"/><rect width="56" height="56" x="4" y="4" rx="28" style="fill:#3f3f3f"/><path d="M30.207 13.005a6 6 0 0 0-.613.012c-3.306.24-5.803 3.284-5.578 6.804a6.6 6.6 0 0 0 1.047 3.2l2.761 4.332c.529 1.05 1.6 1.726 2.79 1.64 1.128-.082 2.065-.831 2.491-1.863l2.301-4.95-.011.005c.443-.97.663-2.073.59-3.227-.21-3.3-2.74-5.845-5.778-5.953M43.535 21a6.2 6.2 0 0 0-2.566.508 6.6 6.6 0 0 0-2.809 2.289l-3.418 4.66q-.06.077-.117.156l-.016.024h.004a3.6 3.6 0 0 0-.379 3.289c.469 1.24 1.537 2.03 2.707 2.14v-.004l5.586.88-.007-.008a6.2 6.2 0 0 0 3.359-.438c3.368-1.438 5-5.514 3.644-9.102-1.016-2.69-3.426-4.343-5.988-4.394M20.48 25.005c-2.44-.103-4.7 1.434-5.32 3.777-.708 2.678.997 5.394 3.809 6.067.92.22 1.848.194 2.7-.036l4.233-1.168c.956-.17 1.767-.855 2.02-1.812.242-.915-.088-1.839-.78-2.426l-3.246-3.015v.007a5.3 5.3 0 0 0-2.36-1.25 5.5 5.5 0 0 0-1.056-.144M28.617 35c-.615 0-1.225.168-1.754.484l-5.226 2.696.008.004a6.8 6.8 0 0 0-2.594 2.386c-2.023 3.183-1.044 7.382 2.183 9.383 3.228 2.001 7.486 1.046 9.508-2.137a6.7 6.7 0 0 0 1.051-3.488l.176-5.543a3.33 3.33 0 0 0-1.555-3.273A3.4 3.4 0 0 0 28.617 35m7.988 1.008a2.67 2.67 0 0 0-1.492.594c-.875.705-1.254 1.857-1.066 2.933l.574 5.16.008-.004a6.3 6.3 0 0 0 1.105 2.895c1.899 2.68 5.48 3.209 7.996 1.18s3.016-5.848 1.118-8.528a5.7 5.7 0 0 0-2.453-1.988l-4.27-1.895a2.66 2.66 0 0 0-1.52-.347" style="opacity:.2"/><path d="M30.207 12.004a6 6 0 0 0-.613.012c-3.306.24-5.803 3.284-5.578 6.804a6.6 6.6 0 0 0 1.047 3.2l2.761 4.332c.529 1.05 1.6 1.726 2.79 1.64 1.128-.082 2.065-.831 2.491-1.863l2.301-4.95-.011.005c.443-.97.663-2.073.59-3.227-.21-3.3-2.74-5.845-5.778-5.953M43.535 20a6.2 6.2 0 0 0-2.566.508 6.6 6.6 0 0 0-2.809 2.289l-3.418 4.66q-.06.076-.117.156l-.016.024h.004a3.6 3.6 0 0 0-.379 3.289c.469 1.24 1.537 2.03 2.707 2.14v-.004l5.586.88-.007-.008a6.2 6.2 0 0 0 3.359-.438c3.368-1.438 5-5.514 3.644-9.101-1.016-2.69-3.426-4.344-5.988-4.395M20.48 24.004c-2.44-.103-4.7 1.434-5.32 3.777-.708 2.678.997 5.395 3.809 6.067.92.22 1.848.194 2.7-.035l4.233-1.168c.956-.172 1.767-.856 2.02-1.813.242-.915-.088-1.839-.78-2.426l-3.246-3.015v.007a5.3 5.3 0 0 0-2.36-1.25 5.5 5.5 0 0 0-1.056-.144M28.617 34c-.615 0-1.225.168-1.754.484l-5.226 2.696.008.004a6.8 6.8 0 0 0-2.594 2.386c-2.023 3.183-1.044 7.382 2.183 9.383 3.228 2.001 7.486 1.046 9.508-2.137a6.7 6.7 0 0 0 1.051-3.488l.176-5.543a3.33 3.33 0 0 0-1.555-3.273A3.4 3.4 0 0 0 28.617 34m7.988 1.008a2.67 2.67 0 0 0-1.492.594c-.875.706-1.254 1.857-1.066 2.933l.574 5.16.008-.004a6.3 6.3 0 0 0 1.105 2.895c1.899 2.68 5.48 3.209 7.996 1.18s3.016-5.848 1.118-8.528a5.7 5.7 0 0 0-2.453-1.988l-4.27-1.895a2.66 2.66 0 0 0-1.52-.347" style="fill:#39e11e"/><path d="M32 4C16.488 4 4 16.488 4 32c0 .113.011.224.018.336C4.369 17.134 16.71 5 32 5s27.63 12.134 27.982 27.336c.007-.112.018-.223.018-.336C60 16.488 47.512 4 32 4" style="opacity:.1;fill:#fff"/><path d="M30.207 12.004a6 6 0 0 0-.613.012c-3.306.24-5.803 3.284-5.578 6.804q.003.041.01.082c.22-3.115 2.554-5.668 5.568-5.886q.309-.023.613-.012c3.017.107 5.528 2.617 5.77 5.883.022-.306.027-.615.007-.93-.21-3.3-2.738-5.845-5.777-5.953M43.535 20a6.2 6.2 0 0 0-2.566.508 6.6 6.6 0 0 0-2.809 2.289l-3.418 4.66q-.06.076-.117.156l-.016.024h.004a3.6 3.6 0 0 0-.572 2.511c.076-.544.27-1.066.572-1.511h-.004l.016-.024q.056-.08.117-.156l3.418-4.66a6.6 6.6 0 0 1 2.809-2.29A6.2 6.2 0 0 1 43.535 21c2.562.051 4.972 1.704 5.988 4.395a7.4 7.4 0 0 1 .456 2.064 7.4 7.4 0 0 0-.456-3.064c-1.016-2.69-3.426-4.344-5.988-4.395M20.48 24.004c-2.44-.103-4.7 1.434-5.32 3.777a4.8 4.8 0 0 0-.127 1.727 5 5 0 0 1 .127-.727c.62-2.343 2.88-3.88 5.32-3.777.349.015.704.06 1.055.144.921.22 1.724.665 2.361 1.25v-.007l3.247 3.015c.42.356.684.842.79 1.37a2.37 2.37 0 0 0-.79-2.37l-3.247-3.015v.007a5.3 5.3 0 0 0-2.36-1.25 5.5 5.5 0 0 0-1.056-.144M28.617 34c-.615 0-1.225.168-1.754.484l-5.226 2.696.008.004a6.8 6.8 0 0 0-2.594 2.386 6.7 6.7 0 0 0-1.028 4.086 6.7 6.7 0 0 1 1.028-3.086 6.8 6.8 0 0 1 2.594-2.386l-.008-.004 5.226-2.696A3.43 3.43 0 0 1 28.617 35c.615 0 1.237.165 1.797.512a3.33 3.33 0 0 1 1.55 2.386l.005-.113a3.33 3.33 0 0 0-1.555-3.273A3.4 3.4 0 0 0 28.617 34m7.988 1.008a2.67 2.67 0 0 0-1.492.594c-.867.699-1.246 1.835-1.07 2.902a3.02 3.02 0 0 1 1.07-1.902 2.66 2.66 0 0 1 3.012-.246l4.27 1.894a5.7 5.7 0 0 1 2.453 1.988 6.3 6.3 0 0 1 1.127 3.157 6.34 6.34 0 0 0-1.127-4.157 5.7 5.7 0 0 0-2.453-1.988l-4.27-1.895a2.66 2.66 0 0 0-1.52-.347" style="fill:#fff;opacity:.2"/></svg>