<svg xmlns="http://www.w3.org/2000/svg" width="64" height="64"><path d="M61.96 31.828A30 30 0 0 1 32 61 30 30 0 0 1 2.04 32.172 30 30 0 0 0 2 33a30 30 0 0 0 30 30 30 30 0 0 0 30-30 30 30 0 0 0-.04-1.172" style="opacity:.2"/><path d="M62 32a30 30 0 0 1-30 30A30 30 0 0 1 2 32 30 30 0 0 1 32 2a30 30 0 0 1 30 30" style="fill:#4f4f4f"/><path d="M31.998 2A30 30 0 0 0 2 32a30 30 0 0 0 .018.512A30 30 0 0 1 31.998 3H32a30 30 0 0 1 29.975 29.512 30 30 0 0 0 .023-.512A30 30 0 0 0 32 2z" style="opacity:.1;fill:#fff"/><path d="M15.372 7.064C7.322 12.433 2.033 21.592 2.033 32.036h24c0-2.432 1.454-4.513 3.534-5.455L15.368 7.065Zm33.256 49.872c8.051-5.369 13.339-14.528 13.339-24.972h-24c0 2.431-1.454 4.513-3.533 5.455z" style="opacity:.1;fill:#fff"/><path d="M44 1v12h12L44 33V21H32z" style="opacity:.2"/><rect width="24" height="24" x="20" y="20" ry="12" style="fill:#fff"/><rect width="8" height="8" x="28" y="-36" ry="4" style="fill:#3f3f3f" transform="scale(1 -1)"/><path d="M44 0v12h12L44 32V20H32z" style="fill:#ffd63f"/><path d="M20 33 8 53h12v11h.6L32 45H20z" style="opacity:.2"/><path d="M20 64V52H8l12-20v12h12z" style="fill:#ff7a3f"/><path d="M44 0 32 20h.6L44 1zm0 12v1h11.4l.6-1zM20 32 8 52h.6L20 33zm0 12v1h11.4l.6-1z" style="fill:#fff;opacity:.2"/></svg>