<svg xmlns="http://www.w3.org/2000/svg" width="64" height="64"><path d="M45.41-4.64h4.091v27.273H45.41z" style="fill:#f1502f" transform="rotate(45)"/><path d="M24-41h4v27h-4z" style="fill:#f1502f" transform="rotate(90)"/><path d="M41.5 8A20.5 20.5 0 0 0 21 28.5 20.5 20.5 0 0 0 41.5 49 20.5 20.5 0 0 0 62 28.5 20.5 20.5 0 0 0 41.5 8M10 19c-4.415 0-8 3.585-8 8s3.585 8 8 8 8-3.585 8-8-3.585-8-8-8m8 23c-4.415 0-8 3.585-8 8s3.585 8 8 8 8-3.585 8-8-3.585-8-8-8" style="opacity:.2"/><path d="M18 57c-4.415 0-8-3.585-8-8s3.585-8 8-8 8 3.585 8 8-3.585 8-8 8m-8-23c-4.415 0-8-3.585-8-8s3.585-8 8-8 8 3.585 8 8-3.585 8-8 8" style="fill:#f1502f"/><circle cx="41.5" cy="27.5" r="20.5" style="fill:#f1502f"/><path d="M41.5 13C32.945 13 26 19.945 26 28.5S32.945 44 41.5 44 57 37.055 57 28.5 50.055 13 41.5 13m4.89 7c.276 0 .549.107.762.32l2.528 2.528a1.07 1.07 0 0 1 0 1.527l-2.123 2.107-4.04-4.039 2.108-2.123c.214-.213.49-.32.766-.32M10 23c-2.208 0-4 1.792-4 4s1.792 4 4 4 4-1.792 4-4-1.792-4-4-4m32.748.213 4.037 4.039L37.04 37H33v-4.04ZM18 46c-2.208 0-4 1.792-4 4s1.792 4 4 4 4-1.792 4-4-1.792-4-4-4" style="opacity:.2"/><path d="M18 53c-2.208 0-4-1.792-4-4s1.792-4 4-4 4 1.792 4 4-1.792 4-4 4m-8-23c-2.208 0-4-1.792-4-4s1.792-4 4-4 4 1.792 4 4-1.792 4-4 4m31.5-18C32.945 12 26 18.945 26 27.5S32.945 43 41.5 43 57 36.055 57 27.5 50.055 12 41.5 12m4.89 7c.276 0 .549.107.762.32l2.528 2.528a1.07 1.07 0 0 1 0 1.527l-2.123 2.107-4.04-4.039 2.108-2.123c.214-.213.49-.32.766-.32m-3.642 3.213 4.037 4.039L37.04 36H33v-4.04z" style="fill:#fff"/><path d="M41.5 7A20.5 20.5 0 0 0 21 27.5a21 21 0 0 0 .021.414A20.5 20.5 0 0 1 41.5 8a20.5 20.5 0 0 1 20.479 20.086A21 21 0 0 0 62 27.5 20.5 20.5 0 0 0 41.5 7M10 18c-4.415 0-8 3.585-8 8 0 .169.015.334.025.5C2.285 22.318 5.753 19 10 19s7.715 3.318 7.975 7.5c.01-.166.025-.331.025-.5 0-4.415-3.585-8-8-8m8 23c-4.415 0-8 3.585-8 8 0 .169.015.334.025.5.26-4.182 3.728-7.5 7.975-7.5s7.715 3.318 7.975 7.5c.01-.166.025-.331.025-.5 0-4.415-3.585-8-8-8" style="fill:#fff;opacity:.2"/></svg>