<svg xmlns="http://www.w3.org/2000/svg" width="64" height="64"><path d="M58 40v2H6v-2zm0 6v2H6v-2zm0 6v2H6v-2zm0-30v2H6v-2zm0 6v2H6v-2zm0 6v2H6v-2zm0-18v2H6v-2zm0-6v2H6v-2z" style="fill:#8e8e8e"/><path d="M24 58h-2V6h2zm-6 0h-2V6h2zm-6 0h-2V6h2zm30 0h-2V6h2zm-6 0h-2V6h2zm-6 0h-2V6h2zm18 0h-2V6h2zm6 0h-2V6h2z" style="fill:#8e8e8e"/><path d="M8 52.602v2C8 55.932 9.338 57 11 57h42c1.662 0 3-1.068 3-2.398v-2C56 53.932 54.662 55 53 55H11c-1.662 0-3-1.068-3-2.398" style="opacity:.2"/><rect width="48" height="48" x="-56" y="-56" rx="2.4" ry="3" style="fill:#b7b7b7" transform="rotate(90)scale(-1 1)"/><path d="M11 8c-1.662 0-3 1.069-3 2.398v1C8 10.068 9.338 9 11 9h42c1.662 0 3 1.069 3 2.398v-1C56 9.068 54.662 8 53 8z" style="opacity:.2;fill:#fff"/><rect width="36" height="36" x="14" y="14" rx="2" ry="2" style="fill:#d13232"/></svg>