<svg xmlns="http://www.w3.org/2000/svg" width="64" height="64"><path d="M6.5 3A4.49 4.49 0 0 0 2 7.5v51A4.49 4.49 0 0 0 6.5 63h51a4.49 4.49 0 0 0 4.5-4.5v-51A4.49 4.49 0 0 0 57.5 3H14Z" style="opacity:.2;fill-rule:evenodd"/><path d="M14 2v12H2v36h12v12h36V50h12V14H50V2Z" style="fill:#ccc;fill-rule:evenodd"/><path d="M6.5 2A4.49 4.49 0 0 0 2 6.5V14h12V2ZM50 50v12h7.5a4.49 4.49 0 0 0 4.5-4.5V50Z" style="fill:#33d533;fill-rule:evenodd"/><path d="M2 50v7.5A4.49 4.49 0 0 0 6.5 62H14V50ZM50 2v12h12V6.5A4.49 4.49 0 0 0 57.5 2Z" style="fill:#ff5b5b;fill-rule:evenodd"/><path d="M14 2v12h12V2Zm12 12v12h12V14Zm12 0h12V2H38Zm12 0v12h12V14Zm0 12H38v12h12zm0 12v12h12V38Zm0 12H38v12h12Zm-12 0V38H26v12Zm-12 0H14v12h12Zm-12 0V38H2v12Zm0-12h12V26H14Zm0-12V14H2v12z" style="fill:#696969;fill-rule:evenodd"/><path d="M2 14v1h12v-1zm24 0v1h12v-1zm24 0v1h12v-1zM14 26v1h12v-1zm24 0v1h12v-1zM2 38v1h12v-1zm24 0v1h12v-1zm24 0v1h12v-1zM14 50v1h12v-1zm24 0v1h12v-1z" style="opacity:.2;fill-rule:evenodd"/><path d="M6.5 2A4.49 4.49 0 0 0 2 6.5v1A4.49 4.49 0 0 1 6.5 3h51A4.49 4.49 0 0 1 62 7.5v-1A4.49 4.49 0 0 0 57.5 2z" style="opacity:.2;fill:#fff;fill-rule:evenodd"/></svg>