<svg xmlns="http://www.w3.org/2000/svg" xmlns:xlink="http://www.w3.org/1999/xlink" width="64" height="64"><defs><radialGradient xlink:href="#a" id="d" cx="30.599" cy="50.652" r="11.469" fx="30.599" fy="50.652" gradientTransform="rotate(144.211 113.833 83.814)scale(4.21667 3.82603)" gradientUnits="userSpaceOnUse"/><radialGradient xlink:href="#b" id="c" cx="26.53" cy="42.445" r="28.31" fx="26.53" fy="42.445" gradientTransform="rotate(-30 -126.7 136.204)scale(2.61894 2.61765)" gradientUnits="userSpaceOnUse"/><linearGradient id="b"><stop offset="0" style="stop-color:#fff;stop-opacity:1"/><stop offset="1" style="stop-color:#aeaeae;stop-opacity:1"/></linearGradient><linearGradient id="a"><stop offset="0" style="stop-color:#575757;stop-opacity:1"/><stop offset="1" style="stop-color:#222;stop-opacity:1"/></linearGradient><filter id="e" width="1.198" height="1.198" x="-.099" y="-.099" style="color-interpolation-filters:sRGB"><feGaussianBlur stdDeviation="2.292"/></filter><filter id="f" width="1.193" height="1.193" x="-.097" y="-.097" style="color-interpolation-filters:sRGB"><feGaussianBlur stdDeviation="2.104"/></filter></defs><path d="M31.982 5.535c-3.274-.107-5.994 1.944-8.026 4.305-5.492 5.714-11.07 11.349-16.507 17.114-2.468 2.973-3.127 8.196.329 10.724 1.232 1.474 4.975.471 3.129 2.938-.493 1.735.703 3.097.739 4.493.027 1.052-1.018 2.64-.842 3.699.442 2.665 3.268 4.7 6.022 4.515 1.509.204 2.83-1.005 3.96-.796.88.163 1.897 1.406 2.753 1.76.628.262 1.238.504 1.802.815 1.432.789 3.193 2.955 4.79 3.375 2.566.675 5.442.165 7.792-1.167 1.702-.963 2.964-3.92 4.126-5.492.673-.912 3.506-1.322 4.673-2.826q.128-.166.255-.325c1.08-1.348 4.65-.371 6.558-.772 2.205-.463 4.184-1.817 4.848-4.094 1.027-2.252-1.67-5.282-3.471-5.802 5.166-2.058 4.115-7.419 2.036-10.371-2.69-3.224-5.78-6.105-8.644-9.179-3.494-3.577-6.892-7.25-10.447-10.764-1.632-1.364-3.746-2.149-5.875-2.15" style="fill:url(#c);fill-rule:evenodd;stroke-width:.940842;stroke-linecap:round;stroke-linejoin:round"/><path d="M32.095 9.812c1.57.013 5.87 5.335 9.708 9.321.384.515.442 1.035.357 1.49-.165.89-1.426 1.086-2.23.646l-5.654-3.094a1.21 1.21 167.534 0 0-1.555.343l-1.938 2.631a1.16 1.16 1.387 0 1-1.902-.046l-1.043-1.57a.94.94 170.39 0 0-1.694.287l-.943 3.677a1.23 1.23 157.795 0 1-1.831.747l-2.694-1.632a1.48 1.48 79.493 0 1-.403-2.171 21 21 132.257 0 1 1.603-1.764l7.505-7.713c.665-.677 1.174-1.164 2.714-1.152m-.099-6.465a5.73 5.73 0 0 0-4.178 1.783L7.016 26.613a6.35 6.35 0 0 0-1.777 4.297v.106c0 4.605 11.633.133 12.742 5.762.6 3.047-6.277 1.652-6.277 4.717 0 3.596 11.17.663 13.578 4.086 1.844 2.62-4.687 2.734-3.224 5.243 1.255 2.152 5.744.774 6.492 3.666.855 3.304 6.358 2.935 9.468.315 1.906-1.606-2.533-2.611-.8-4.403 1.731-1.792 9.98-1.455 9.52-5.344-.306-2.573-3.498-2.856-3.548-5.763-.172-2.463 3.042-1.744 11.912-4.194 3.546-1.667 3.672-2.552 3.658-4.086v-.105c-.02-1.547-.735-3.11-1.881-4.297L36.177 5.13A5.73 5.73 0 0 0 32 3.347Zm24.382 36.915c-.411-.014-.825.022-1.118.112-.55.174-3.162.274-2.946 2.451 2.364 1.088 5.97 1.953 6.4-.223.322-1.632-1.104-2.29-2.336-2.34m-41.936 6.476c-.23.03-.39.135-.615.233-1.8.783-3.007 2.432-1.325 3.152s2.808-.041 4.283-.934 1.435-1.056 1.328-1.4c-.205.047-1.546-.909-2.958-1.05a3.2 3.2 0 0 0-.713 0" style="fill:url(#d);fill-opacity:1;fill-rule:evenodd;stroke-width:.903797;stroke-dasharray:none" transform="translate(5.255 6.99)scale(.83448)"/><path d="M31.996 3.708c-3.48-.113-6.37 2.066-8.531 4.576-5.837 6.074-11.767 12.063-17.545 18.19-2.623 3.16-3.324 8.711.35 11.398 1.31 1.567 5.288.502 3.326 3.123-.524 1.845.747 3.292.785 4.776.029 1.118-1.081 2.806-.894 3.931.47 2.833 3.473 4.997 6.4 4.8 1.604.216 3.008-1.068 4.209-.847.936.173 2.017 1.494 2.926 1.872.668.277 1.316.535 1.916.865 1.521.839 3.393 3.141 5.091 3.588 2.727.716 5.783.175 8.282-1.24 1.808-1.025 3.15-4.167 4.385-5.838.715-.97 3.726-1.405 4.966-3.004q.136-.177.272-.346c1.147-1.432 4.942-.394 6.97-.82 2.344-.493 4.447-1.931 5.153-4.352 1.091-2.393-1.775-5.613-3.69-6.166 5.492-2.188 4.375-7.885 2.164-11.023-2.858-3.427-6.143-6.489-9.187-9.756-3.713-3.802-7.325-7.707-11.104-11.442-1.734-1.45-3.981-2.283-6.244-2.285" style="fill:none;fill-rule:evenodd;stroke:#010101;stroke-width:.21257552;stroke-linecap:round;stroke-linejoin:round;stroke-dasharray:none;stroke-opacity:1;filter:url(#e)" transform="translate(1.896 1.893)scale(.94084)"/><path d="M32.095 9.812c1.57.013 5.87 5.335 9.708 9.321.384.515.442 1.035.357 1.49-.165.89-1.426 1.086-2.23.646l-5.654-3.094a1.21 1.21 167.534 0 0-1.555.343l-1.938 2.631a1.16 1.16 1.387 0 1-1.902-.046l-1.043-1.57a.94.94 170.39 0 0-1.694.287l-.943 3.677a1.23 1.23 157.795 0 1-1.831.747l-2.694-1.632a1.48 1.48 79.493 0 1-.403-2.171 21 21 132.257 0 1 1.603-1.764l7.505-7.713c.665-.677 1.174-1.164 2.714-1.152zm-.099-6.465a5.73 5.73 0 0 0-4.178 1.783L7.016 26.613a6.35 6.35 0 0 0-1.777 4.297v.106c0 4.605 11.633.133 12.742 5.762.6 3.047-6.277 1.652-6.277 4.717 0 3.596 11.17.663 13.578 4.086 1.844 2.62-4.687 2.734-3.224 5.243 1.255 2.152 5.744.774 6.492 3.666.855 3.304 6.358 2.935 9.468.315 1.906-1.606-2.533-2.611-.8-4.403 1.731-1.792 9.98-1.455 9.52-5.344-.306-2.573-3.498-2.856-3.548-5.763-.172-2.463 3.042-1.744 11.912-4.194 3.546-1.667 3.672-2.552 3.658-4.086v-.105c-.02-1.547-.735-3.11-1.881-4.297L36.177 5.13A5.73 5.73 0 0 0 32 3.347Zm24.382 36.915c-.411-.014-.825.022-1.118.112-.55.174-3.162.274-2.946 2.451 2.364 1.088 5.97 1.953 6.4-.223.322-1.632-1.104-2.29-2.336-2.34zm-41.936 6.476c-.23.03-.39.135-.615.233-1.8.783-3.007 2.432-1.325 3.152s2.808-.041 4.283-.934 1.435-1.056 1.328-1.4c-.205.047-1.546-.909-2.958-1.05a3.2 3.2 0 0 0-.713 0z" style="opacity:1;fill:none;fill-opacity:1;fill-rule:evenodd;stroke:#010101;stroke-width:.23967;stroke-dasharray:none;stroke-opacity:1;filter:url(#f)" transform="translate(5.272 7.005)scale(.83448)"/></svg>