<svg xmlns="http://www.w3.org/2000/svg" width="64" height="64"><circle cx="32" cy="33" r="28" style="opacity:.2"/><circle cx="32" cy="32" r="28" style="fill:#e4e4e4"/><path d="M31.042 54.99c-3.036-.18-5.612-.798-8.193-1.963-.735-.331-1.909-.96-1.934-1.036-.011-.033.059-.092.155-.132.174-.072.48-.352 1.06-.968.385-.409 1.153-.758 1.65-.75.964.016 1.878.454 2.883 1.38.432.399.983.734 1.207.734.34 0 .786-.118 1.081-.286.286-.163.593-.419.593-.494 0-.083-.438-.789-.676-1.087q-.73-.921-.662-2.145c.039-.694.198-1.2.58-1.846.168-.285.306-.547.306-.583 0-.088-.282-.487-.546-.77a11 11 0 0 1-.414-.48c-.256-.32-.596-.692-1.159-1.266-.506-.518-.588-.655-.922-1.553-.332-.891-.391-1.485-.23-2.283.133-.662.382-1.269.616-1.502.047-.047.644-.758.705-.84.134-.177.582-.594.77-.715.274-.177.516-.206.923-.11.188.045.438.081.555.082.118 0 .36.054.537.119s.455.154.616.198c.401.11.766.286 1.233.595.218.143.675.423 1.017.621 1.022.593 1.167.546 2.23-.722 1.117-1.335 2.213-1.737 3.604-1.323 1.051.313 2.003 1.403 2.3 2.632.052.217.133.455.181.528a.44.44 0 0 1 .06.273 1 1 0 0 0 .028.347c.03.114.076.384.104.6.053.427.279.947.583 1.346.1.132.33.498.508.815.397.7.431.733.658.639.188-.078.188-.078.279-.838.122-1.023.53-1.891 1.266-2.693.057-.062.235-.263.395-.446.701-.801 1.724-1.587 2.49-1.913a9 9 0 0 1 1.651-.464c.123-.018.273-.044.334-.057l.506-.111a4.5 4.5 0 0 1 .791-.088c.822-.001 2.905.696 2.832.949-.016.052-.12.477-.234.943-1.071 4.403-3.643 8.504-7.226 11.523-.344.29-1.54 1.195-1.704 1.29-.034.02-.186-.08-.34-.221-.152-.142-.337-.28-.408-.308-.146-.057-1.822-.07-2.088-.017a.41.41 0 0 0-.305.44 4.4 4.4 0 0 0 .218.571c.11.249.237.579.283.733.083.275.082.284-.043.368-.43.291-2.382 1.06-3.581 1.41-.906.266-.936.27-.896.117q.029-.113-.053-.113c-.087 0-.307.212-.285.274.03.083-1.513.366-2.642.485-.787.082-2.652.146-3.247.111m-3.768-1.902q.02-.099-.092-.098c-.124 0-.257.13-.196.19.071.072.268.01.287-.092m-2.07-.757c.126-.115.13-.21.014-.326-.148-.148-.533-.01-.533.19 0 .225.325.31.518.136m-.47-.523c.1-.063.033-.175-.106-.175-.12 0-.192.086-.14.17.042.07.143.071.247.006zm10.01-.431c.097-.116-.005-.22-.165-.17-.151.049-.161.257-.013.257a.27.27 0 0 0 .179-.087zm6.581-.76c.02-.032.008-.057-.025-.057s-.06.025-.06.056.011.057.025.057.041-.026.06-.057m-5.283-.961a.057.057 0 0 0-.056-.057.057.057 0 0 0-.057.057.057.057 0 0 0 .113 0m7.939-4.775c0-.128-.029-.173-.118-.186-.172-.025-.274.12-.193.27.1.189.31.131.31-.084m-.255-.367c0-.062-.036-.113-.08-.113-.1 0-.165.093-.117.17.061.099.198.06.198-.057m-.415-.043c.111-.071.11-.278-.003-.403-.136-.15-.372-.153-.531-.004-.153.142-.154.193-.011.337.113.113.416.152.545.07m-.29-1.256c.018-.032.009-.057-.022-.057s-.073.025-.092.057c-.019.03-.01.056.022.056.03 0 .072-.025.091-.056m-8.594-.204c.094-.036.126-.249.038-.249-.13 0-.231.078-.231.176 0 .112.045.13.193.073m6.587-.466c.205-.152.205-.388-.004-1-.291-.858-.495-1.222-.754-1.348-.197-.097-.238-.1-.367-.028-.218.12-.4.525-.4.887 0 .57.566 1.62.896 1.663.2.025.457-.046.629-.174m7.744-.565c.079-.063.116-.139.095-.192-.049-.128-.493-.015-.493.124 0 .2.194.234.398.068m.734-.433c.277-.14.359-.284.198-.345-.128-.05-.451.08-.6.237-.113.12-.121.151-.05.196.117.074.14.07.452-.088m-30.554 9.007c-.311-.04-.432-.116-1.146-.724-1.615-1.373-2.922-2.82-4.061-4.497a22 22 0 0 1-3.51-8.701c-.148-.86-.262-1.99-.207-2.045.05-.05.789.132 1.817.447.929.286 1.192.291 1.678.036.362-.19.925-.708 1.402-1.29.642-.783.797-.907 1.525-1.215l.48-.203c1.233-.526 2.22-.225 3.513 1.073.647.65 1.075 1.579 1.133 2.464.027.412.016.482-.12.75-.244.481-.92 1.243-1.448 1.631a5.2 5.2 0 0 0-1.044 1.092c-.15.217-.17.29-.167.645.003.443.164.906.407 1.172.163.178.48.233 1.37.24.527.005.614.02.778.138.243.172.411.512.45.906.051.523.178.712.665.992.333.19 1.432 1.25 1.671 1.61.195.294.287.597.304.997.014.323-.346 1.92-.498 2.213-.052.101-.342.433-.645.738-.701.707-.859.78-2.95 1.36-.677.189-.978.225-1.397.171m.285-9.072c.05-.05-.129-.245-.225-.245-.078 0-.106.177-.039.245.049.048.215.048.264 0m-3.51-5.066c.058-.095-.034-.164-.19-.142q-.134.018-.152.153c-.017.122-.004.131.14.095.089-.022.179-.07.201-.106m4.648-1.812c.227-.227.038-.543-.324-.543-.187 0-.437.224-.437.39 0 .282.526.388.761.153m24.947 1.264c-.436-.118-.73-.37-.921-.79-.264-.58-.045-1.323.498-1.686.269-.18.3-.188.65-.154.483.046.806.173.915.36.205.354.333 1.309.217 1.615-.16.419-.905.778-1.359.655m.961-1.297c0-.145-.086-.19-.225-.115-.128.068-.146.171-.049.27.09.089.274-.015.274-.155m-.113-.543c0-.102-.05-.156-.205-.22-.248-.104-.22-.105-.328.003-.133.134-.107.293.064.383.213.111.47.021.47-.166zm4.633 1.543c-.015-.016-.142-.044-.282-.063a4.4 4.4 0 0 1-1.554-.572c-.976-.628-1.56-1.914-1.518-3.342.03-1.002.302-1.665.942-2.294.437-.428.786-.62 1.253-.69.33-.048.566-.158.616-.287.105-.275-.025-.463-.63-.91-.95-.702-1.3-1.293-1.404-2.364-.03-.316-.018-.367.182-.735.443-.817.522-1.028.67-1.783.08-.418.197-.988.257-1.268a5.7 5.7 0 0 0 .111-1.026c.002-.754.022-.772.355-.319a28 28 0 0 1 1.351 2.08c.26.454.894 1.696.894 1.75 0 .016-.068.03-.151.03-.243 0-1.23.357-1.3.47-.049.078.16.218.279.187.054-.014.099-.012.099.004 0 .077-.311.384-.47.464-.192.095-.27.308-.133.36.045.018.16-.01.257-.063.096-.052.362-.191.591-.31.44-.226.573-.39.513-.631-.03-.117-.007-.142.178-.193.116-.032.23-.046.255-.031.023.014.169.35.322.746 1.092 2.811 1.561 5.315 1.526 8.148l-.016 1.325-.48.414c-.805.694-1.124.824-2.204.898-.264.018-.493.02-.509.005m1.942-.813c.494-.352.74-.647.816-.976.037-.162.067-.346.067-.41 0-.197-.343-.78-.48-.813-.309-.078-.913.381-1.243.945-.313.535-.33.957-.049 1.29.211.25.504.239.89-.036m-1.055-3.34c.113-.073.187-.329.115-.401-.162-.161-.663.018-.663.238 0 .175.36.282.548.162m-1.88-2.557c.108-.105.064-.115-.15-.035-.055.02-.14.05-.188.065-.049.015-.072.054-.052.087.048.076.252.015.39-.117m.598-.328c0-.025.102-.102.226-.172.236-.132.289-.253.137-.311-.134-.052-.307.066-.392.266a.7.7 0 0 1-.193.263c-.177.125-.14.186.052.086.094-.048.17-.108.17-.132m1.032-2.507c.258-.077.832-.572.832-.717 0-.298-.393-.312-.772-.027-.365.273-.64.538-.64.614 0 .192.215.24.58.13m-1.768-1.288c.025 0 .06-.035.076-.078.04-.106-.159-.054-.257.066-.062.077-.057.084.032.05a.6.6 0 0 1 .149-.038m-22.16 10.538c-.537-.136-.89-.35-1.35-.822-.657-.67-.87-1.26-.87-2.399.001-.482.013-.529.217-.904.475-.869 1.166-1.35 2.203-1.534.473-.084.612-.088.955-.03.575.1 1.021.335 1.484.785.555.539.703.646.843.608.113-.031.113-.029.014.051-.118.095-.082.318.051.318.085 0 .107-.067.082-.254-.052-.391.006-1.142.121-1.582.115-.437.498-1.07.81-1.342.261-.225 1.381-.83 1.684-.91 1.018-.263 2.092.14 3.109 1.167.557.563.78 1.126.783 1.971.003.736-.17 1.067-.968 1.856-.852.843-1.486 1.193-2.405 1.327a3 3 0 0 0-.297.057c-.04.013-.333.04-.652.06-.645.042-.818-.011-1.225-.374-.437-.39-.5-.442-.606-.499-.145-.077-.241.016-.241.232 0 .202.125.45.393.777.298.365.368.566.285.818-.053.16-.128.233-.354.348-.26.132-.309.14-.512.078a2.3 2.3 0 0 1-.505-.26c-.163-.112-.35-.193-.447-.193-.092 0-.358.11-.6.25-.765.436-1.376.559-2.003.4zm2.837-.883c0-.03-.025-.04-.056-.021s-.057.06-.057.091.026.041.057.022c.03-.02.056-.06.056-.092m1.211-1.795c.052-.083-.132-.203-.202-.133-.034.033-.044.088-.023.122.046.074.182.08.225.011m-1.31-1.082c.125-.156.125-.176-.018-.357-.256-.325-.784-.107-.733.303.032.254.558.292.75.054m5.642-2.149c.342-.243.08-.674-.41-.674-.253 0-.556.23-.556.42 0 .334.624.498.966.254m-1.7-1.747c0-.031-.039-.057-.085-.057s-.085.026-.085.057c0 .03.038.056.085.056.046 0 .084-.025.084-.056m-3.697-2.544c0 .408-.525-.446-.525-.836 0-.288.092-.503.292-.687.169-.155.524-.302.73-.302.22 0 .549.296.586.527.164 1.037.03 1.318-.649 1.362-.165.01-.434-.169-.434-.064" style="opacity:.1"/><path d="M31.042 53.99c-3.036-.18-5.612-.798-8.193-1.963-.735-.331-1.909-.96-1.934-1.036-.011-.033.059-.092.155-.132.174-.072.48-.352 1.06-.968.385-.409 1.153-.758 1.65-.75.964.016 1.878.454 2.883 1.38.432.399.983.734 1.207.734.34 0 .786-.118 1.081-.286.286-.163.593-.419.593-.494 0-.083-.438-.789-.676-1.087q-.73-.921-.662-2.145c.039-.694.198-1.2.58-1.846.168-.285.306-.547.306-.583 0-.088-.282-.487-.546-.77a11 11 0 0 1-.414-.48c-.256-.32-.596-.692-1.159-1.266-.506-.518-.588-.655-.922-1.553-.332-.891-.391-1.485-.23-2.283.133-.662.382-1.269.616-1.502.047-.047.644-.758.705-.84.134-.177.582-.594.77-.715.274-.177.516-.206.923-.11.188.045.438.081.555.082.118 0 .36.054.537.119s.455.154.616.198c.401.11.766.286 1.233.595.218.143.675.423 1.017.621 1.022.593 1.167.546 2.23-.722 1.117-1.335 2.213-1.737 3.604-1.323 1.051.313 2.003 1.403 2.3 2.632.052.217.133.455.181.528a.44.44 0 0 1 .06.273 1 1 0 0 0 .028.347c.03.114.076.384.104.6.053.427.279.947.583 1.346.1.132.33.498.508.815.397.7.431.733.658.639.188-.078.188-.078.279-.838.122-1.023.53-1.891 1.266-2.693.057-.062.235-.263.395-.446.701-.801 1.724-1.587 2.49-1.913a9 9 0 0 1 1.651-.464c.123-.018.273-.044.334-.057l.506-.111a4.5 4.5 0 0 1 .791-.088c.822-.001 2.905.696 2.832.949-.016.052-.12.477-.234.943-1.071 4.403-3.643 8.504-7.226 11.523-.344.29-1.54 1.195-1.704 1.29-.034.02-.186-.08-.34-.221-.152-.142-.337-.28-.408-.308-.146-.057-1.822-.07-2.088-.017a.41.41 0 0 0-.305.44 4.4 4.4 0 0 0 .218.571c.11.249.237.579.283.733.083.275.082.284-.043.368-.43.291-2.382 1.06-3.581 1.41-.906.266-.936.27-.896.117q.029-.113-.053-.113c-.087 0-.307.212-.285.274.03.083-1.513.366-2.642.485-.787.082-2.652.146-3.247.111m-3.768-1.902q.02-.099-.092-.098c-.124 0-.257.13-.196.19.071.072.268.01.287-.092m-2.07-.757c.126-.115.13-.21.014-.326-.148-.148-.533-.01-.533.19 0 .225.325.31.518.136m-.47-.523c.1-.063.033-.175-.106-.175-.12 0-.192.086-.14.17.042.07.143.071.247.006zm10.01-.431c.097-.116-.005-.22-.165-.17-.151.049-.161.257-.013.257a.27.27 0 0 0 .179-.087zm6.581-.76c.02-.032.008-.057-.025-.057s-.06.025-.06.056.011.057.025.057.041-.026.06-.057m-5.283-.961a.057.057 0 0 0-.056-.057.057.057 0 0 0-.057.057.057.057 0 0 0 .113 0m7.939-4.775c0-.128-.029-.173-.118-.186-.172-.025-.274.12-.193.27.1.189.31.131.31-.084m-.255-.367c0-.062-.036-.113-.08-.113-.1 0-.165.093-.117.17.061.099.198.06.198-.057m-.415-.043c.111-.071.11-.278-.003-.403-.136-.15-.372-.153-.531-.004-.153.142-.154.193-.011.337.113.113.416.152.545.07m-.29-1.256c.018-.032.009-.057-.022-.057s-.073.025-.092.057c-.019.03-.01.056.022.056.03 0 .072-.025.091-.056m-8.594-.204c.094-.036.126-.249.038-.249-.13 0-.231.078-.231.176 0 .112.045.13.193.073m6.587-.466c.205-.152.205-.388-.004-1-.291-.858-.495-1.222-.754-1.348-.197-.097-.238-.1-.367-.028-.218.12-.4.525-.4.887 0 .57.566 1.62.896 1.663.2.025.457-.046.629-.174m7.744-.565c.079-.063.116-.139.095-.192-.049-.128-.493-.015-.493.124 0 .2.194.234.398.068m.734-.433c.277-.14.359-.284.198-.345-.128-.05-.451.08-.6.237-.113.12-.121.151-.05.196.117.074.14.07.452-.088m-30.554 9.007c-.311-.04-.432-.116-1.146-.724-1.615-1.373-2.922-2.82-4.061-4.497a22 22 0 0 1-3.51-8.701c-.148-.86-.262-1.99-.207-2.045.05-.05.789.132 1.817.447.929.286 1.192.291 1.678.036.362-.19.925-.708 1.402-1.29.642-.783.797-.907 1.525-1.215l.48-.203c1.233-.526 2.22-.225 3.513 1.073.647.65 1.075 1.579 1.133 2.464.027.412.016.482-.12.75-.244.481-.92 1.243-1.448 1.631a5.2 5.2 0 0 0-1.044 1.092c-.15.217-.17.29-.167.645.003.443.164.906.407 1.172.163.178.48.233 1.37.24.527.005.614.02.778.138.243.172.411.512.45.906.051.523.178.712.665.992.333.19 1.432 1.25 1.671 1.61.195.294.287.597.304.997.014.323-.346 1.92-.498 2.213-.052.101-.342.433-.645.738-.701.707-.859.78-2.95 1.36-.677.189-.978.225-1.397.171m.285-9.072c.05-.05-.129-.245-.225-.245-.078 0-.106.177-.039.245.049.048.215.048.264 0m-3.51-5.066c.058-.095-.034-.164-.19-.142q-.134.018-.152.153c-.017.122-.004.131.14.095.089-.022.179-.07.201-.106m4.648-1.812c.227-.227.038-.543-.324-.543-.187 0-.437.224-.437.39 0 .282.526.388.761.153m24.947 1.264c-.436-.118-.73-.37-.921-.79-.264-.58-.045-1.323.498-1.686.269-.18.3-.188.65-.154.483.046.806.173.915.36.205.354.333 1.309.217 1.615-.16.419-.905.778-1.359.655m.961-1.297c0-.145-.086-.19-.225-.115-.128.068-.146.171-.049.27.09.089.274-.015.274-.155m-.113-.543c0-.102-.05-.156-.205-.22-.248-.104-.22-.105-.328.003-.133.134-.107.293.064.383.213.111.47.021.47-.166zm4.633 1.543c-.015-.016-.142-.044-.282-.063a4.4 4.4 0 0 1-1.554-.572c-.976-.628-1.56-1.914-1.518-3.342.03-1.002.302-1.665.942-2.294.437-.428.786-.62 1.253-.69.33-.048.566-.158.616-.287.105-.275-.025-.463-.63-.91-.95-.702-1.3-1.293-1.404-2.364-.03-.316-.018-.367.182-.735.443-.817.522-1.028.67-1.783.08-.418.197-.988.257-1.268a5.7 5.7 0 0 0 .111-1.026c.002-.754.022-.772.355-.319a28 28 0 0 1 1.351 2.08c.26.454.894 1.696.894 1.75 0 .016-.068.03-.151.03-.243 0-1.23.357-1.3.47-.049.078.16.218.279.187.054-.014.099-.012.099.004 0 .077-.311.384-.47.464-.192.095-.27.308-.133.36.045.018.16-.01.257-.063.096-.052.362-.191.591-.31.44-.226.573-.39.513-.631-.03-.117-.007-.142.178-.193.116-.032.23-.046.255-.031.023.014.169.35.322.746 1.092 2.811 1.561 5.315 1.526 8.148l-.016 1.325-.48.414c-.805.694-1.124.824-2.204.898-.264.018-.493.02-.509.005m1.942-.813c.494-.352.74-.647.816-.976.037-.162.067-.346.067-.41 0-.197-.343-.78-.48-.813-.309-.078-.913.381-1.243.945-.313.535-.33.957-.049 1.29.211.25.504.239.89-.036m-1.055-3.34c.113-.073.187-.329.115-.401-.162-.161-.663.018-.663.238 0 .175.36.282.548.162m-1.88-2.557c.108-.105.064-.115-.15-.035-.055.02-.14.05-.188.065-.049.015-.072.054-.052.087.048.076.252.015.39-.117m.598-.328c0-.025.102-.102.226-.172.236-.132.289-.253.137-.311-.134-.052-.307.066-.392.266a.7.7 0 0 1-.193.263c-.177.125-.14.186.052.086.094-.048.17-.108.17-.132m1.032-2.507c.258-.077.832-.572.832-.717 0-.298-.393-.312-.772-.027-.365.273-.64.538-.64.614 0 .192.215.24.58.13m-1.768-1.288c.025 0 .06-.035.076-.078.04-.106-.159-.054-.257.066-.062.077-.057.084.032.05a.6.6 0 0 1 .149-.038m-22.16 10.538c-.537-.136-.89-.35-1.35-.822-.657-.67-.87-1.26-.87-2.399.001-.482.013-.529.217-.904.475-.869 1.166-1.35 2.203-1.534.473-.084.612-.088.955-.03.575.1 1.021.335 1.484.785.555.539.703.646.843.608.113-.031.113-.029.014.051-.118.095-.082.318.051.318.085 0 .107-.067.082-.254-.052-.391.006-1.142.121-1.582.115-.437.498-1.07.81-1.342.261-.225 1.381-.83 1.684-.91 1.018-.263 2.092.14 3.109 1.167.557.563.78 1.126.783 1.971.003.736-.17 1.067-.968 1.856-.852.843-1.486 1.193-2.405 1.327a3 3 0 0 0-.297.057c-.04.013-.333.04-.652.06-.645.042-.818-.011-1.225-.374-.437-.39-.5-.442-.606-.499-.145-.077-.241.016-.241.232 0 .202.125.45.393.777.298.365.368.566.285.818-.053.16-.128.233-.354.348-.26.132-.309.14-.512.078a2.3 2.3 0 0 1-.505-.26c-.163-.112-.35-.193-.447-.193-.092 0-.358.11-.6.25-.765.436-1.376.559-2.003.4zm2.837-.883c0-.03-.025-.04-.056-.021s-.057.06-.057.091.026.041.057.022c.03-.02.056-.06.056-.092m1.211-1.795c.052-.083-.132-.203-.202-.133-.034.033-.044.088-.023.122.046.074.182.08.225.011m-1.31-1.082c.125-.156.125-.176-.018-.357-.256-.325-.784-.107-.733.303.032.254.558.292.75.054m5.642-2.149c.342-.243.08-.674-.41-.674-.253 0-.556.23-.556.42 0 .334.624.498.966.254m-1.7-1.747c0-.031-.039-.057-.085-.057s-.085.026-.085.057c0 .03.038.056.085.056.046 0 .084-.025.084-.056m-3.697-2.544c0 .408-.525-.446-.525-.836 0-.288.092-.503.292-.687.169-.155.524-.302.73-.302.22 0 .549.296.586.527.164 1.037.03 1.318-.649 1.362-.165.01-.434-.169-.434-.064" style="fill:#393939"/><path d="M32 4A28 28 0 0 0 4 32a28 28 0 0 0 .033.482A28 28 0 0 1 32 5a28 28 0 0 1 27.982 27.242L60 32A28 28 0 0 0 32 4" style="opacity:.2;fill:#fff"/></svg>