<svg xmlns="http://www.w3.org/2000/svg" xmlns:xlink="http://www.w3.org/1999/xlink" width="64" height="64"><defs><radialGradient xlink:href="#a" id="d" cx="-49.587" cy="-.44" r="22" fx="-49.587" fy="-.44" gradientTransform="rotate(174.986 -90.411 7.295)scale(3.22383 3.33745)" gradientUnits="userSpaceOnUse"/><radialGradient xlink:href="#b" id="f" cx="14.214" cy="15.317" r="16" fx="14.214" fy="15.317" gradientTransform="rotate(44.197 142.04 -55.32)scale(8.18497 5.5687)" gradientUnits="userSpaceOnUse"/><linearGradient id="b"><stop offset="0" style="stop-color:#1ea353;stop-opacity:1"/><stop offset="1" style="stop-color:#00ffd0;stop-opacity:1"/></linearGradient><linearGradient id="a"><stop offset="0" style="stop-color:#858585;stop-opacity:1"/><stop offset="1" style="stop-color:#222;stop-opacity:1"/></linearGradient><filter id="c" width="1.017" height="1.192" x="-.009" y="-.096" style="color-interpolation-filters:sRGB"><feGaussianBlur stdDeviation=".2"/></filter><filter id="e" width="1.03" height="1.056" x="-.015" y="-.028" style="color-interpolation-filters:sRGB"><feGaussianBlur stdDeviation=".2"/></filter></defs><path d="M4 49.1v2c0 1.662 1.338 3 3 3h50c1.662 0 3-1.338 3-3v-2c0 1.662-1.338 3-3 3H7c-1.662 0-3-1.338-3-3" style="opacity:.65123266;mix-blend-mode:normal;filter:url(#c)"/><rect width="44" height="56" x="-54" y="4" rx="3" ry="3" style="fill:url(#d);fill-opacity:1" transform="rotate(-90)"/><path d="M7 10c-1.662 0-3 1.338-3 3v38c0 1.662 1.338 3 3 3h7V10z" style="opacity:.1;fill:#fff"/><path d="M63.958 44.948A16 16 0 0 1 48 60.1a16 16 0 0 1-15.958-14.848A16 16 0 0 0 32 46.1a16 16 0 0 0 16 16 16 16 0 0 0 16-16 16 16 0 0 0-.043-1.152z" style="opacity:.65123266;mix-blend-mode:normal;fill-rule:evenodd;filter:url(#e)"/><circle cx="48" cy="46" r="16" style="fill:url(#f);fill-opacity:1"/><path d="M40 50.436V54h3.564l9-9.001-3.563-3.564zm15.717-8.578a.945.945 0 0 0 0-1.348l-2.227-2.227a.945.945 0 0 0-1.348 0l-1.862 1.873 3.564 3.564z" style="fill:#fff"/></svg>