<svg xmlns="http://www.w3.org/2000/svg" width="64" height="64"><rect width="56" height="56" x="4" y="5" rx="11.2" style="opacity:.2"/><rect width="56" height="56" x="4" y="4" rx="11.2" style="fill:#0d2b5e"/><path d="M-6.539 39.148h-6.92l-6.64-10.8-6.64 10.8h-6.48l9.48-14.72-8.88-13.84h6.68l6.16 10.28 6.04-10.28h6.52l-8.96 14.16z" style="font-size:40px;line-height:1.25;opacity:.2" transform="matrix(1.16817 0 0 1.19048 55.222 3.395)"/><g style="font-size:40px;line-height:1.25;fill:#fff"><path d="M-6.539 39.148h-6.92l-6.64-10.8-6.64 10.8h-6.48l9.48-14.72-8.88-13.84h6.68l6.16 10.28 6.04-10.28h6.52l-8.96 14.16z" style="fill:#fff" transform="matrix(1.16817 0 0 1.19048 55.222 2.395)"/></g><path d="M15.2 4C8.993 4 4 8.994 4 15.2v1C4 9.993 8.994 5 15.2 5h33.6C55.007 5 60 9.994 60 16.2v-1C60 8.993 55.006 4 48.8 4z" style="fill:#fff;opacity:.1"/></svg>