<svg xmlns="http://www.w3.org/2000/svg" xmlns:xlink="http://www.w3.org/1999/xlink" width="64" height="64"><defs><filter id="d" width="1.176" height="1.176" x="-.088" y="-.088" style="color-interpolation-filters:sRGB"><feGaussianBlur stdDeviation="1.549"/></filter><filter id="c" width="1.138" height="1.138" x="-.069" y="-.069" style="color-interpolation-filters:sRGB"><feGaussianBlur stdDeviation="1.549"/></filter><filter id="e" width="1.104" height="1.091" x="-.052" y="-.046" style="color-interpolation-filters:sRGB"><feGaussianBlur stdDeviation=".358"/></filter><radialGradient xlink:href="#a" id="b" cx="37.338" cy="32.123" r="28" fx="37.338" fy="32.123" gradientTransform="matrix(2.91551 0 0 3.66922 -108.198 -53.167)" gradientUnits="userSpaceOnUse"/><linearGradient id="a"><stop offset="0" style="stop-color:#f78846;stop-opacity:1"/><stop offset=".5" style="stop-color:#d06ae5;stop-opacity:1"/><stop offset="1" style="stop-color:#468ff7;stop-opacity:1"/></linearGradient></defs><path d="M20.8 4C11.495 4 4 11.494 4 20.8v22.4C4 52.505 11.494 60 20.8 60h22.4C52.505 60 60 52.506 60 43.2V20.8C60 11.495 52.506 4 43.2 4Z" style="fill:url(#b)"/><path d="M21 10h22c6.19 0 11 4.81 11 11v22c0 6.19-4.81 11-11 11H21c-6.19 0-11-4.81-11-11V21c0-6.19 4.81-11 11-11" style="fill:#3f3f3f"/><path d="M20.8 4C11.495 4 4 11.494 4 20.8v22.4C4 52.505 11.494 60 20.8 60h22.4C52.505 60 60 52.506 60 43.2V20.8C60 11.495 52.506 4 43.2 4Z" style="fill:none;stroke:#000;stroke-width:.3;stroke-dasharray:none;stroke-opacity:1;filter:url(#c)"/><path d="M21 10h22c6.19 0 11 4.81 11 11v22c0 6.19-4.81 11-11 11H21c-6.19 0-11-4.81-11-11V21c0-6.19 4.81-11 11-11Z" style="fill:none;stroke:#000;stroke-width:.3;stroke-dasharray:none;stroke-opacity:1;filter:url(#d)"/><path d="M16.377 14.954a1.31 1.31 0 0 0-1.31 1.31 1.31 1.31 0 0 0 1.31 1.31h1.311v7.864h-1.31a1.31 1.31 0 0 0-1.311 1.31 1.31 1.31 0 0 0 1.31 1.311h5.242a1.31 1.31 0 0 0 1.311-1.31 1.31 1.31 0 0 0-1.31-1.31h-1.31v-7.864h1.31a1.31 1.31 0 0 0 1.31-1.31 1.31 1.31 0 0 0-1.31-1.311h-2.621zm15.729 0a1.31 1.31 0 0 0-1.312 1.309c0 .545.076 1.275.107 2.273s.019 2.184-.135 3.278c-.155 1.093-.466 2.08-.89 2.69-.417.6-.833.89-1.705.925a1.31 1.31 0 0 0-1.309-1.301 1.31 1.31 0 0 0-1.31 1.31v1.31a1.31 1.31 0 0 0 1.31 1.311h1.31l.039-.001A4.81 4.81 0 0 0 32.029 26c.794-1.142 1.145-2.494 1.332-3.82.187-1.327.194-2.644.16-3.725-.033-1.08-.106-2.006-.106-2.19a1.31 1.31 0 0 0-1.31-1.311M16.377 33.302a1.31 1.31 0 0 0-1.31 1.31 1.31 1.31 0 0 0 1.31 1.31h10.485a1.31 1.31 0 0 0 1.31-1.31 1.31 1.31 0 0 0-1.31-1.31z" style="fill:#fff;stroke-width:.655285;stroke-linecap:round"/><path d="M16.377 14.954a1.31 1.31 0 0 0-1.31 1.31 1.31 1.31 0 0 0 1.31 1.31h1.311v7.864h-1.31a1.31 1.31 0 0 0-1.311 1.31 1.31 1.31 0 0 0 1.31 1.311h5.242a1.31 1.31 0 0 0 1.311-1.31 1.31 1.31 0 0 0-1.31-1.31h-1.31v-7.864h1.31a1.31 1.31 0 0 0 1.31-1.31 1.31 1.31 0 0 0-1.31-1.311h-2.621zm15.729 0a1.31 1.31 0 0 0-1.312 1.309c0 .545.076 1.275.107 2.273s.019 2.184-.135 3.278c-.155 1.093-.466 2.08-.89 2.69-.417.6-.833.89-1.705.925a1.31 1.31 0 0 0-1.309-1.301 1.31 1.31 0 0 0-1.31 1.31v1.31a1.31 1.31 0 0 0 1.31 1.311h1.31l.039-.001A4.81 4.81 0 0 0 32.029 26c.794-1.142 1.145-2.494 1.332-3.82.187-1.327.194-2.644.16-3.725-.033-1.08-.106-2.006-.106-2.19a1.31 1.31 0 0 0-1.31-1.311zM16.377 33.302a1.31 1.31 0 0 0-1.31 1.31 1.31 1.31 0 0 0 1.31 1.31h10.485a1.31 1.31 0 0 0 1.31-1.31 1.31 1.31 0 0 0-1.31-1.31z" style="fill:none;stroke-width:.2;stroke-linecap:round;stroke:#ff8500;stroke-opacity:1;stroke-dasharray:none;filter:url(#e)"/></svg>