<svg xmlns="http://www.w3.org/2000/svg" width="64" height="64"><path d="M29 5a22 22 0 0 1 22 22 22 22 0 0 1-.03.807H51v2.982l.914 1.582 3.711 6.43A2.8 2.8 0 0 1 53.199 43H51v6.021A3.97 3.97 0 0 1 47.021 53H41v3.895A4.097 4.097 0 0 1 36.895 61h-17.79A4.097 4.097 0 0 1 15 56.895V43.947A22 22 0 0 1 7 27 22 22 0 0 1 29 5" style="opacity:.2"/><circle cx="-29" cy="26" r="22" style="fill:#4897e1" transform="scale(-1 1)"/><path d="M47.021 26.8H29.78a3.97 3.97 0 0 0-3.979 3.979V48.02A3.97 3.97 0 0 0 29.779 52H47.02A3.97 3.97 0 0 0 51 48.021V27Z" style="fill:#4897e1"/><rect width="26" height="26" x="-41" y="34" rx="4.105" ry="4.105" style="fill:#4897e1" transform="scale(-1 1)"/><path d="M45.926 23.546a2.8 2.8 0 0 1 2.275 1.397l3.714 6.428 3.71 6.429A2.8 2.8 0 0 1 53.2 42H38.355a2.8 2.8 0 0 1-2.426-4.2l3.71-6.429 3.714-6.428a2.8 2.8 0 0 1 2.294-1.397 3 3 0 0 1 .28 0" style="fill:#4897e1"/><path d="M29 4a22 22 0 0 1 22 22 22 22 0 0 1-.018.492A22 22 0 0 0 29 5 22 22 0 0 0 7.023 26.547 22 22 0 0 1 7 26 22 22 0 0 1 29 4m22 22.807V27l-.006-.193ZM51 27v.807h-.03A22 22 0 0 0 51 27m0 2.79.914 1.581 3.711 6.43a2.8 2.8 0 0 1 .326 1.906 2.8 2.8 0 0 0-.326-.906l-3.71-6.43L51 30.79Z" style="opacity:.2;fill:#fff"/><path d="M12.93 11a22 22 0 0 0-4.422 7H49.47a22 22 0 0 0-4.416-7zM7.035 25A22 22 0 0 0 7 26a22 22 0 0 0 .861 6h44.416l-.363-.629L51 29.79V27l-.035-.002A22 22 0 0 0 51 26a22 22 0 0 0-.049-1zM11.3 39a22 22 0 0 0 3.7 3.947V46h36v-4h2.2a2.8 2.8 0 0 0 2.788-3zM15 53v2.895A4.097 4.097 0 0 0 19.105 60h17.79A4.097 4.097 0 0 0 41 55.895V53z" style="opacity:.3"/><path d="M12.93 11a22 22 0 0 0-4.422 7h.44a22 22 0 0 1 3.982-6h32.125a22 22 0 0 1 3.965 6h.45a22 22 0 0 0-4.415-7zM7.035 25A22 22 0 0 0 7 26l.021.393.014-.393h43.916a22 22 0 0 1 .03.58A22 22 0 0 0 51 26a22 22 0 0 0-.049-1zM51 27a22 22 0 0 1-.035.998L51 28zm0 2.79v1l.7 1.21h.577l-.363-.629zM11.299 39a22 22 0 0 0 .808 1h43.77a2.8 2.8 0 0 0 .111-1zM15 53v1h26v-1z" style="opacity:.2"/></svg>