<svg xmlns="http://www.w3.org/2000/svg" width="64" height="64"><circle cx="32" cy="33" r="28" style="opacity:.2"/><circle cx="32" cy="32" r="28" style="fill:#039be5"/><path d="M32 4A28 28 0 0 0 4 32a28 28 0 0 0 .021.586A28 28 0 0 1 32 5a28 28 0 0 1 27.979 27.414L60 32A28 28 0 0 0 32 4" style="opacity:.2;fill:#fff"/><path d="M32 13a20 20 0 0 0-20 20 20 20 0 0 0 20 20 20 20 0 0 0 20-20 20 20 0 0 0-20-20m-5.852 10a2.1 2.085 0 0 1 1 .28l6.903 3.956 6.9 3.96a2.1 2.085 0 0 1 0 3.609l-6.9 3.959-6.903 3.957A2.1 2.085 0 0 1 24 40.914V25.086A2.1 2.085 0 0 1 26.148 23" style="opacity:.2"/><path d="M32 12a20 20 0 0 0-20 20 20 20 0 0 0 20 20 20 20 0 0 0 20-20 20 20 0 0 0-20-20m-5.852 10a2.1 2.085 0 0 1 1 .28l6.903 3.956 6.9 3.96a2.1 2.085 0 0 1 0 3.609l-6.9 3.959-6.903 3.957A2.1 2.085 0 0 1 24 39.914V24.086A2.1 2.085 0 0 1 26.148 22" style="fill:#fff"/></svg>