<svg xmlns="http://www.w3.org/2000/svg" width="64" height="64"><rect width="56" height="56" x="4" y="5" rx="4" ry="4" style="opacity:.2"/><rect width="56" height="56" x="4" y="4" rx="4" ry="4" style="fill:#248afd"/><path d="M8 4C5.784 4 4 5.784 4 8v1c0-2.216 1.784-4 4-4h48c2.216 0 4 1.784 4 4V8c0-2.216-1.784-4-4-4z" style="fill:#fff;opacity:.2"/><path d="m32 11-10 6 20 10-10 6 20 12V21Zm0 22L12 21v24l20 10 10-6-20-10Z" style="opacity:.2"/><path d="m32 10-10 6 20 10-10 6 20 12V20Zm0 22L12 20v24l20 10 10-6-20-10Z" style="fill:#fff"/></svg>