<svg xmlns="http://www.w3.org/2000/svg" width="64" height="64"><path d="M54 58.2V7.8C54 6.249 52.773 5 51.25 5h-38.5C11.226 5 10 6.249 10 7.8v50.4c0 1.551 1.227 2.8 2.75 2.8h38.5c1.523 0 2.75-1.249 2.75-2.8" style="opacity:.2"/><path d="M54 57.2V6.8C54 5.249 52.773 4 51.25 4h-38.5C11.226 4 10 5.249 10 6.8v50.4c0 1.551 1.227 2.8 2.75 2.8h38.5c1.523 0 2.75-1.249 2.75-2.8" style="fill:#e4e4e4"/><path d="M12.75 4C11.226 4 10 5.25 10 6.8v1C10 6.25 11.226 5 12.75 5h38.5C52.773 5 54 6.25 54 7.8v-1C54 5.25 52.773 4 51.25 4z" style="opacity:.2;fill:#fff"/><path d="M29 24.938c-1.797 0-3.785.32-4.687.875-.895.547-1.313 1.392-1.313 2.562v2.563c0 .697-.328 1.155-.875 1.5-.538.337-1.007.562-2.125.562v2c2.203 0 3 .73 3 2.125v2.188c0 1.282.413 2.242 1.25 2.812.845.578 2.837.86 4.75.875v-2.062c-.953-.016-2.953-.186-3.375-.5-.422-.316-.625-.76-.625-1.376v-2.374c0-.614-.228-2.418-2.125-2.688v-.125C24.772 33.583 25 32.128 25 31.25v-2.375c0-.615.203-1.005.625-1.312.43-.315 2.43-.525 3.375-.563Zm6 0V27c.944.038 2.944.248 3.375.563.422.307.625.697.625 1.312v2.375c0 .878.228 2.333 2.125 2.625V34C39.228 34.27 39 36.074 39 36.688v2.374c0 .616-.203 1.06-.625 1.376-.422.314-2.422.484-3.375.5V43c1.913-.015 3.905-.297 4.75-.875.837-.57 1.25-1.53 1.25-2.812v-2.188C41 35.73 41.797 35 44 35v-2c-1.118 0-1.587-.225-2.125-.562-.547-.345-.875-.803-.875-1.5v-2.563c0-1.17-.418-2.015-1.312-2.562-.903-.555-2.89-.875-4.688-.875" style="opacity:.1"/><path d="M29 23.938c-1.797 0-3.785.32-4.687.875-.895.547-1.313 1.392-1.313 2.562v2.563c0 .697-.328 1.155-.875 1.5-.538.337-1.007.562-2.125.562v2c2.203 0 3 .73 3 2.125v2.188c0 1.282.413 2.242 1.25 2.812.845.578 2.837.86 4.75.875v-2.062c-.953-.016-2.953-.186-3.375-.5-.422-.316-.625-.76-.625-1.376v-2.374c0-.614-.228-2.418-2.125-2.688v-.125C24.772 32.583 25 31.128 25 30.25v-2.375c0-.615.203-1.005.625-1.312.43-.315 2.43-.525 3.375-.563Zm6 0V26c.944.038 2.944.248 3.375.563.422.307.625.697.625 1.312v2.375c0 .878.228 2.333 2.125 2.625V33C39.228 33.27 39 35.074 39 35.688v2.374c0 .616-.203 1.06-.625 1.376-.422.314-2.422.484-3.375.5V42c1.913-.015 3.905-.297 4.75-.875.837-.57 1.25-1.53 1.25-2.812v-2.188C41 34.73 41.797 34 44 34v-2c-1.118 0-1.587-.225-2.125-.562-.547-.345-.875-.803-.875-1.5v-2.563c0-1.17-.418-2.015-1.312-2.562-.903-.555-2.89-.875-4.688-.875" style="fill:#446f7d"/></svg>