<svg xmlns="http://www.w3.org/2000/svg" width="64" height="64"><path d="M61 33c0 16.016-12.984 29-29 29S3 49.016 3 33 15.984 4 32 4s29 12.984 29 29m0 0" style="opacity:.2"/><path d="M61 32c0 16.016-12.984 29-29 29S3 48.016 3 32 15.984 3 32 3s29 12.984 29 29m0 0" style="fill:#e4e4e4"/><path d="M25 40h26v3H25Zm0 8h26v3H25Zm0 0" style="fill:#aaa9a3"/><path stroke="#949390" stroke-width="1.936" d="m32 32-7.975-10.024" style="fill:none;stroke-linecap:round"/><path stroke="#3d3846" stroke-width=".668" d="m32 32 13.45-13.45" style="fill:none;stroke-width:2.9;stroke-linecap:round"/><path stroke="#c061cb" stroke-width=".668" d="m32 32-7.45 17.4" style="fill:none;stroke-width:2.9;stroke-linecap:round"/><path d="M34.74 31.778a3.003 3.003 0 0 1-1.518 3.962 3.003 3.003 0 0 1-3.962-1.518 3.003 3.003 0 0 1 1.518-3.962 3.003 3.003 0 0 1 3.962 1.518m0 0" style="opacity:.2"/><path d="M34.74 30.778a3.003 3.003 0 0 1-1.518 3.962 3.003 3.003 0 0 1-3.962-1.518 3.003 3.003 0 0 1 1.518-3.962 3.003 3.003 0 0 1 3.962 1.518m0 0" style="fill:#fff"/><path fill="#613583" d="M33 32a1 1 0 1 1-1.999.001A1 1 0 0 1 33 32m0 0"/><path d="M21 41a1.999 1.999 0 1 1-4 0 1.999 1.999 0 1 1 4 0m0 8a1.999 1.999 0 1 1-4 0 1.999 1.999 0 1 1 4 0m0 0" style="fill:#aaa9a3"/><path d="M32 3C15.984 3 3 15.984 3 32c0 .16.009.318.014.477C3.294 16.703 16.159 4 32 4c15.84 0 28.706 12.703 28.986 28.477.005-.16.014-.317.014-.477C61 15.984 48.016 3 32 3" style="opacity:.2;fill:#fff"/></svg>