<svg xmlns="http://www.w3.org/2000/svg" width="64" height="64"><path d="M10 56v2c0 1.662 1.338 3 3 3h38c1.662 0 3-1.338 3-3v-2c0 1.662-1.338 3-3 3H13c-1.662 0-3-1.338-3-3" style="opacity:.2"/><path d="M54 57V7c0-1.662-1.338-3-3-3H13c-1.662 0-3 1.338-3 3v50c0 1.662 1.338 3 3 3h38c1.662 0 3-1.338 3-3" style="fill:#e4e4e4"/><path d="M13 4c-1.662 0-3 1.338-3 3v1c0-1.662 1.338-3 3-3h38c1.662 0 3 1.338 3 3V7c0-1.662-1.338-3-3-3z" style="opacity:.1;fill:#fff"/><path d="M18 16h24v2H18zm0 6h28v2H18zm0 6h24v2H18zm0 6h20v2H18zm0 6h24v2H18zm0 6h20v2H18z" style="fill:#9daabc"/><path d="M38 30h2v10h-2z" style="fill:#4992ff"/></svg>