<svg xmlns="http://www.w3.org/2000/svg" width="64" height="64"><rect width="56" height="56" x="4" y="5" rx="4" ry="4" style="opacity:.2"/><rect width="56" height="56" x="4" y="4" rx="4" ry="4" style="fill:#e4e4e4"/><path d="M8 8h48v44H8z" style="fill:#fecd38"/><path d="M8 30h48v22H8z" style="fill:#e97e10"/><path d="M8 8h48v1H8z" style="opacity:.1"/><path d="M54 28h2v2h-2zm-4 0h2v2h-2zm-4 0h2v2h-2zm-4 0h2v2h-2zm-4 0h2v2h-2zm-4 0h2v2h-2zm-4 0h2v2h-2zm-4 0h2v2h-2zm-4 0h2v2h-2zm-4 0h2v2h-2zm-4 0h2v2h-2zm-4 0h2v2h-2zm-2-2h2v2H8zm8 0h2v2h-2zm8 0h2v2h-2zm8 0h2v2h-2zm8 0h2v2h-2zm8 0h2v2h-2zm6-2h2v2h-2zm-4 0h2v2h-2zm-4 0h2v2h-2zm-4 0h2v2h-2zm-4 0h2v2h-2zm-4 0h2v2h-2zm-4 0h2v2h-2zm-4 0h2v2h-2zm-4 0h2v2h-2zm-4 0h2v2h-2zm-4 0h2v2h-2zm-4 0h2v2h-2zm2 2h2v2h-2zm16 0h2v2h-2zm16 0h2v2h-2zm8-4h2v2h-2zm-8 0h2v2h-2zm-8 0h2v2h-2zm-8 0h2v2h-2zm-8 0h2v2h-2zm-8 0h2v2h-2z" style="fill:#e97e10"/><path d="M10 30h2v2h-2zm4 0h2v2h-2zm4 0h2v2h-2zm4 0h2v2h-2zm4 0h2v2h-2zm4 0h2v2h-2zm4 0h2v2h-2zm4 0h2v2h-2zm4 0h2v2h-2zm4 0h2v2h-2zm4 0h2v2h-2zm4 0h2v2h-2zm-2 2h2v2h-2zm-4 0h2v2h-2zm-8 0h2v2h-2zm-4 0h2v2h-2zm-4 0h2v2h-2zm-8 0h2v2h-2zm-4 0h2v2h-2zm-4 0h2v2h-2zm-8 0h2v2H8zm2 2h2v2h-2zm4 0h2v2h-2zm4 0h2v2h-2zm4 0h2v2h-2zm4 0h2v2h-2zm4 0h2v2h-2zm4 0h2v2h-2zm4 0h2v2h-2zm4 0h2v2h-2zm4 0h2v2h-2zm4 0h2v2h-2zm4 0h2v2h-2zm-2 2h2v2h-2zm-8 0h2v2h-2zm-8 0h2v2h-2zm-8 0h2v2h-2zm-8 0h2v2h-2zm-8 0h2v2h-2zm-4 2h2v2H8zm8 0h2v2h-2zm8 0h2v2h-2zm8 0h2v2h-2zm8 0h2v2h-2zm8 0h2v2h-2z" style="fill:#fecd38"/><path d="M48 20h2v2h-2zm-8 0h2v2h-2zm-8 0h2v2h-2zm-8 0h2v2h-2zm-8 0h2v2h-2zm-8 0h2v2H8zm4-2h2v2h-2zm8 0h2v2h-2zm8 0h2v2h-2zm8 0h2v2h-2zm8 0h2v2h-2zm8 0h2v2h-2z" style="fill:#e97e10"/><path d="M52 40h2v2h-2zm-8 0h2v2h-2zm-8 0h2v2h-2zm-8 0h2v2h-2zm-8 0h2v2h-2zm-8 0h2v2h-2z" style="fill:#fecd38"/></svg>