<svg xmlns="http://www.w3.org/2000/svg" width="64" height="64"><rect width="50" height="56" x="7" y="5" rx="5.6" ry="5.6" style="opacity:.2"/><rect width="50" height="56" x="7" y="4" rx="5.6" ry="5.6" style="fill:#62a0ea"/><path d="M11 8h42v12H11zm0 26h42v14H11z" style="fill:#3368aa"/><path d="M11 8h42v1H11z" style="opacity:.2"/><path d="M11 30h42v1H11z" style="opacity:.2;fill:#fff"/><path d="M11 34h42v1H11z" style="opacity:.2"/><path d="M12.6 4A5.587 5.587 0 0 0 7 9.6v1C7 7.497 9.497 5 12.6 5h38.8c3.103 0 5.6 2.497 5.6 5.6v-1C57 6.497 54.503 4 51.4 4z" style="fill:#fff;opacity:.2"/><path d="M11 13h25v17H11z" style="fill:#d4a782"/><path d="M14 16h8v3h-8z" style="fill:#ead3c1"/><path d="M36 19h17v11H36z" style="fill:#b5835a"/><path d="M14 21h4v2h-4z" style="fill:#ead3c1"/><path d="M39 22h8v3h-8zm0 5h5v2h-5z" style="fill:#dac1ad"/><path d="M28 39h25v17H28z" style="fill:#d4a782"/><path d="M31 42h8v3h-8z" style="fill:#ead3c1"/><path d="M11 45h17v11H11z" style="fill:#b5835a"/><path d="M31 47h4v2h-4z" style="fill:#ead3c1"/><path d="M14 48h8v3h-8zm0 5h5v2h-5z" style="fill:#dac1ad"/></svg>