<svg xmlns="http://www.w3.org/2000/svg" width="64" height="64"><circle cx="32" cy="33" r="28" style="opacity:.2"/><path d="m58.605 23.476-32.443 35.84A28 28 0 0 0 32 60a28 28 0 0 0 28-28 28 28 0 0 0-1.395-8.524" style="fill:#ff90b8"/><path d="M50.765 11.267 13.263 52.699a28 28 0 0 0 12.9 6.617l32.442-35.84a28 28 0 0 0-7.84-12.21" style="fill:#f9548f"/><path d="M37.886 4.636 5.38 40.545a28 28 0 0 0 7.882 12.154l37.502-41.432a28 28 0 0 0-12.88-6.631" style="fill:#9182d7"/><path d="M10.836 13.666A28 28 0 0 0 4 32a28 28 0 0 0 1.38 8.545l32.506-35.91A28 28 0 0 0 32 4a28 28 0 0 0-21.164 9.666" style="fill:#7767c0"/><path d="M32 4A28 28 0 0 0 4 32a28 28 0 0 0 .021.586A28 28 0 0 1 32 5a28 28 0 0 1 27.979 27.414L60 32A28 28 0 0 0 32 4" style="fill:#fff;opacity:.2"/><path d="M25 19v5h.023a9 9 0 0 0-.023.6v7.986A8 8 0 0 0 22 32a8 8 0 0 0-8 8 8 8 0 0 0 8 8 8 8 0 0 0 8-8 8 8 0 0 0-.041-.797q.04-.39.041-.803V24.6q-.002-.305-.023-.6h13.046a9 9 0 0 0-.023.6v7.986A8 8 0 0 0 40 32a8 8 0 0 0-8 8 8 8 0 0 0 8 8 8 8 0 0 0 8-8 8 8 0 0 0-.041-.797q.04-.39.041-.803V24.6a9 9 0 0 0-.023-.6H48v-5zm-3 17a4 4 0 0 1 4 4 4 4 0 0 1-4 4 4 4 0 0 1-4-4 4 4 0 0 1 4-4m18 0a4 4 0 0 1 4 4 4 4 0 0 1-4 4 4 4 0 0 1-4-4 4 4 0 0 1 4-4" style="opacity:.2"/><path d="M25 18v5h.023a9 9 0 0 0-.023.6v7.986A8 8 0 0 0 22 31a8 8 0 0 0-8 8 8 8 0 0 0 8 8 8 8 0 0 0 8-8 8 8 0 0 0-.041-.797q.04-.39.041-.803V23.6q-.002-.305-.023-.6h13.046a9 9 0 0 0-.023.6v7.986A8 8 0 0 0 40 31a8 8 0 0 0-8 8 8 8 0 0 0 8 8 8 8 0 0 0 8-8 8 8 0 0 0-.041-.797q.04-.39.041-.803V23.6a9 9 0 0 0-.023-.6H48v-5zm-3 17a4 4 0 0 1 4 4 4 4 0 0 1-4 4 4 4 0 0 1-4-4 4 4 0 0 1 4-4m18 0a4 4 0 0 1 4 4 4 4 0 0 1-4 4 4 4 0 0 1-4-4 4 4 0 0 1 4-4" style="fill:#fff"/></svg>