<svg xmlns="http://www.w3.org/2000/svg" width="64" height="64"><rect width="44" height="9.561" x="10" y="50.44" ry="4.098" style="opacity:.2"/><rect width="44" height="9.561" x="10" y="49.44" ry="4.098" style="fill:#999"/><rect width="44" height="52" x="10" y="5" ry="4.105" style="opacity:.2"/><rect width="44" height="52" x="10" y="4" ry="4.105" style="fill:#e4e4e4"/><path d="M45.346 53.6c1.29-1.32 3.766-3.796 5.5-5.5L54 45l-.036 4.254c.045 1.715.106 3.36-.38 4.945-.189.38-.534.856-.768 1.058-.785.681-1.266.743-5.76.743H43z" style="fill:#bababa"/><path d="m41.244 21-7.857 22h-2.774l-7.857-22h2.897l4.96 14.112q.493 1.356.832 2.557.34 1.171.555 2.25.216-1.079.555-2.28.339-1.202.832-2.589L38.317 21Z" style="opacity:.1"/><path d="m41.244 20-7.857 22h-2.774l-7.857-22h2.897l4.96 14.112q.493 1.356.832 2.557.34 1.171.555 2.25.216-1.079.555-2.28.339-1.202.832-2.589L38.317 20Z" style="fill:#404040"/><path d="M16 9.5a1.5 1.5 0 0 1-1.5 1.5A1.5 1.5 0 0 1 13 9.5 1.5 1.5 0 0 1 14.5 8 1.5 1.5 0 0 1 16 9.5h-1.5zm35.654 38.9a476 476 0 0 1-5.5 5.5L43 57l.036-4.254c-.045-1.715-.106-3.36.38-4.945.189-.38.534-.856.768-1.058.785-.681 1.266-.743 5.76-.743H54z" style="opacity:.2"/><path d="M51.654 47.4a476 476 0 0 1-5.5 5.5L43 56l.036-4.254c-.045-1.715-.106-3.36.38-4.945.189-.38.534-.856.768-1.058.785-.681 1.266-.743 5.76-.743H54z" style="fill:#fafafa"/><path d="M21 9.5a1.5 1.5 0 0 1-1.5 1.5A1.5 1.5 0 0 1 18 9.5 1.5 1.5 0 0 1 19.5 8 1.5 1.5 0 0 1 21 9.5h-1.5zm5 0a1.5 1.5 0 0 1-1.5 1.5A1.5 1.5 0 0 1 23 9.5 1.5 1.5 0 0 1 24.5 8 1.5 1.5 0 0 1 26 9.5h-1.5zm5 0a1.5 1.5 0 0 1-1.5 1.5A1.5 1.5 0 0 1 28 9.5 1.5 1.5 0 0 1 29.5 8 1.5 1.5 0 0 1 31 9.5h-1.5zm5 0a1.5 1.5 0 0 1-1.5 1.5A1.5 1.5 0 0 1 33 9.5 1.5 1.5 0 0 1 34.5 8 1.5 1.5 0 0 1 36 9.5h-1.5zm5 0a1.5 1.5 0 0 1-1.5 1.5A1.5 1.5 0 0 1 38 9.5 1.5 1.5 0 0 1 39.5 8 1.5 1.5 0 0 1 41 9.5h-1.5zm5 0a1.5 1.5 0 0 1-1.5 1.5A1.5 1.5 0 0 1 43 9.5 1.5 1.5 0 0 1 44.5 8 1.5 1.5 0 0 1 46 9.5h-1.5zm5 0a1.5 1.5 0 0 1-1.5 1.5A1.5 1.5 0 0 1 48 9.5 1.5 1.5 0 0 1 49.5 8 1.5 1.5 0 0 1 51 9.5h-1.5z" style="opacity:.2"/><path d="M14.105 4A4.097 4.097 0 0 0 10 8.105v1A4.097 4.097 0 0 1 14.105 5h35.79A4.097 4.097 0 0 1 54 9.105v-1A4.097 4.097 0 0 0 49.895 4z" style="fill:#fff;opacity:.2"/></svg>