<svg xmlns="http://www.w3.org/2000/svg" width="64" height="64"><rect width="56" height="56" x="4" y="4" rx="3" ry="3" style="fill:#3f3f3f"/><path d="M7 4C5.338 4 4 5.338 4 7v1c0-1.662 1.338-3 3-3h50c1.662 0 3 1.338 3 3V7c0-1.662-1.338-3-3-3z" style="fill:#fff;opacity:.1"/><path d="M4 57v1c0 1.662 1.338 3 3 3h50c1.662 0 3-1.338 3-3v-1c0 1.662-1.338 3-3 3H7c-1.662 0-3-1.338-3-3" style="opacity:.2"/><path d="M30 29v6h17c1.662 0 3-1.338 3-3s-1.338-3-3-3zm6 16v6h11c1.662 0 3-1.338 3-3s-1.338-3-3-3z" style="opacity:.5;fill:#fff"/><path d="M43 13H17c-1.662 0-3 1.338-3 3s1.338 3 3 3h26z" style="fill:#df574d"/><path d="M37 45H17c-1.662 0-3 1.338-3 3s1.338 3 3 3h20Z" style="fill:#4caf50"/><path d="M28 29H17c-1.662 0-3 1.338-3 3s1.338 3 3 3h11Z" style="fill:#ff90b8"/><path d="M30 13h6v6h-6z" style="fill:#50beee"/><path d="M36 13h6v6h-6z" style="fill:#7767c0"/><path d="M18 13h6v6h-6z" style="fill:#fecd38"/><path d="M24 13h6v6h-6z" style="fill:#79de7d"/><path d="M50 17a6 6 0 1 0-12 0 6 6 0 0 0 12 0m-8 32a6 6 0 1 0-12 0 6 6 0 0 0 12 0m-6-16a6 6 0 1 0-12 0 6 6 0 0 0 12 0" style="opacity:.2"/><path d="M50 16a6 6 0 1 0-12 0 6 6 0 0 0 12 0m-8 32a6 6 0 1 0-12 0 6 6 0 0 0 12 0m-6-16a6 6 0 1 0-12 0 6 6 0 0 0 12 0" style="fill:#fff"/></svg>