<svg xmlns="http://www.w3.org/2000/svg" width="64" height="64"><path d="M32 5c-9.916 0-18.627 5.154-23.602 12.93q-.276.435-.52.879A27.85 27.85 0 0 0 4 33a27.87 27.87 0 0 0 4.734 15.582c2.82 4.065 4.61 5.197 5.594 6.137A27.88 27.88 0 0 0 32 61a27.9 27.9 0 0 0 15.352-4.582h.004a28.15 28.15 0 0 0 8.273-8.406c.05-.079.107-.151.156-.23A27.87 27.87 0 0 0 60 33C60 17.536 47.464 5 32 5" style="opacity:.2"/><path d="M60 32a27.87 27.87 0 0 1-4.216 14.782C50.842 54.718 42.038 57.838 32 57.838c-15.464 0-26.607-10.452-26.607-25.916 0-5.548.22-10.642 3.004-14.992C13.372 9.154 22.084 4 32 4c15.464 0 28 12.536 28 28" style="fill:#56cf87"/><path fill="#199a8e" d="M55.735 25.825c-.48-.272-1.01-.548-1.583-.81-1.302-.594-1.744-2.23-.93-3.407l.033-.046a1.238 1.238 0 0 0-.772-1.916l-.265-.05c-1.42-.264-2.271-1.748-1.75-3.096.256-.662.46-1.302.624-1.895.467-1.697-1.097-3.264-2.793-2.798-.532.146-1.103.326-1.693.546a2.31 2.31 0 0 1-3.076-1.749l-.01-.055a1.237 1.237 0 0 0-1.9-.809l-.225.152a2.318 2.318 0 0 1-3.435-.977c-.285-.64-.59-1.23-.89-1.759-.872-1.533-3.089-1.52-3.96.013-.272.48-.547 1.008-.807 1.58-.594 1.302-2.232 1.743-3.408.929l-.047-.032a1.237 1.237 0 0 0-1.915.771q-.026.128-.05.263c-.264 1.422-1.748 2.273-3.097 1.752a20 20 0 0 0-1.894-.624c-1.696-.467-3.264 1.097-2.798 2.794a20 20 0 0 0 .546 1.692 2.31 2.31 0 0 1-1.749 3.077l-.055.01a1.238 1.238 0 0 0-.809 1.9 17 17 0 0 0 2.165 2.64q-.134.031-.268.066c-2.212.571-4.24-1.435-3.627-3.636l.071-.25c1.236-4.285-4.567-6.927-6.97-3.17A27.86 27.86 0 0 0 4 32a27.87 27.87 0 0 0 4.733 15.581c2.82 4.065 4.609 5.197 5.594 6.136A27.88 27.88 0 0 0 32 60c4.04 0 7.88-.857 11.348-2.398h.001a28.4 28.4 0 0 0 4.005-2.186h-.002a28.15 28.15 0 0 0 8.43-8.635c-.459-3.499-1.218-7.106-2.471-9.765-.232-.49-.224-1.048-.028-1.554a1.23 1.23 0 0 0-.124-1.13l-.015-.023a2.548 2.548 0 0 1 1.056-3.733c.56-.258 1.079-.529 1.55-.796 1.53-.871 1.517-3.085-.015-3.955m-36.79 5.808a17 17 0 0 0-1.65 1.911 1.44 1.44 0 0 1-.803.536l-.02.005a1.417 1.417 0 0 1-1.737-1.126 28 28 0 0 1-.4-3.243c.879.564 2.821 1.462 4.61 1.916m7.743 17.706a9.8 9.8 0 0 0 1.613-3.333 1 1 0 0 0 .132-.056 13.54 13.54 0 0 0 3.827 7.562c.333.333.72.643 1.152.933a28 28 0 0 1-6.374-3.073 1.41 1.41 0 0 1-.35-2.033"/><path d="M23.295 53.46c-2.83 2.83-11.055 3.421-15.066 3.539A2.164 2.164 0 0 1 6 54.771c.118-4.011.71-12.237 3.54-15.066 3.798-3.798 9.956-3.798 13.754 0s3.798 9.956 0 13.755" style="opacity:.1"/><path fill="#a0c83d" d="M23.295 52.46c-2.83 2.83-11.055 3.421-15.066 3.539A2.164 2.164 0 0 1 6 53.771c.118-4.011.71-12.237 3.54-15.066 3.798-3.798 9.956-3.798 13.754 0s3.798 9.956 0 13.755"/><path fill="#489160" d="M13.055 50a1.055 1.055 0 0 1-.746-1.801l13.22-13.22a1.055 1.055 0 0 1 1.491 1.493L13.801 49.69a1.05 1.05 0 0 1-.746.309"/><path d="M49.136 36.82c3.956 3.955 4.784 15.455 4.948 21.064a3.026 3.026 0 0 1-3.114 3.115c-5.609-.165-17.109-.993-21.065-4.949-5.31-5.31-5.31-13.92 0-19.23s13.92-5.311 19.23 0" style="opacity:.1"/><path d="M49.136 35.82c3.956 3.955 4.784 15.455 4.948 21.064a3.026 3.026 0 0 1-3.114 3.115c-5.609-.165-17.109-.993-21.065-4.949-5.31-5.31-5.31-13.92 0-19.23s13.92-5.311 19.23 0" style="fill:#407f55"/><path fill="#a0c83d" d="M44.556 52a1.46 1.46 0 0 1-1.037-.43L25.037 33.09a1.465 1.465 0 1 1 2.073-2.073l18.482 18.482A1.465 1.465 0 0 1 44.556 52"/><path d="M33.559 9.402c-.77 0-1.542.383-1.977 1.149-.693 1.22-1.406 2.762-1.848 4.504a17 17 0 0 0-2.422-2.016 1.236 1.236 0 0 0-1.914.773c-.18.894-.344 2.082-.336 3.399-1.609-.995-3.291-1.619-4.707-2.008-1.698-.467-3.263 1.094-2.796 2.793.371 1.352.96 2.949 1.878 4.492a17 17 0 0 0-3.14.29 1.234 1.234 0 0 0-.805 1.898c.505.76 1.23 1.715 2.168 2.64-1.842.435-3.473 1.185-4.75 1.91-1.531.871-1.531 3.079 0 3.95 1.219.693 2.76 1.41 4.5 1.851a17 17 0 0 0-2.015 2.422 1.237 1.237 0 0 0 .777 1.914c.894.18 2.08.341 3.398.332-.995 1.61-1.622 3.295-2.011 4.711-.467 1.699 1.098 3.26 2.796 2.793 1.352-.372 2.95-.957 4.493-1.875-.006 1.212.13 2.3.285 3.137a1.237 1.237 0 0 0 1.902.805 17 17 0 0 0 2.64-2.165c.436 1.84 1.182 3.475 1.907 4.75.87 1.532 3.082 1.532 3.953 0 .693-1.218 1.406-2.763 1.848-4.503.852.86 1.725 1.534 2.426 2.015a1.233 1.233 0 0 0 1.91-.773c.18-.894.344-2.081.336-3.399 1.609.994 3.295 1.619 4.71 2.008 1.7.467 3.26-1.094 2.794-2.793-.372-1.352-.96-2.949-1.88-4.492a17 17 0 0 0 3.141-.29 1.234 1.234 0 0 0 .805-1.898 17 17 0 0 0-2.168-2.64c1.842-.435 3.477-1.184 4.754-1.91 1.531-.871 1.531-3.079 0-3.95-1.219-.693-2.764-1.41-4.504-1.851a17 17 0 0 0 2.016-2.422 1.237 1.237 0 0 0-.778-1.914 17 17 0 0 0-3.398-.332c.995-1.61 1.622-3.295 2.012-4.711.467-1.699-1.095-3.26-2.793-2.793-1.351.372-2.95.954-4.493 1.871a17 17 0 0 0-.289-3.133 1.237 1.237 0 0 0-1.902-.804 17 17 0 0 0-2.637 2.164c-.435-1.842-1.184-3.474-1.91-4.75a2.25 2.25 0 0 0-1.976-1.149m-.965 19.473c.31.18.633.277.965.277s.655-.097.964-.277c.092.347.25.644.485.879s.532.393.879.484c-.181.31-.282.63-.282.961 0 .332.101.655.282.965-.347.091-.645.25-.88.484a1.9 1.9 0 0 0-.484.88 1.9 1.9 0 0 0-.964-.278c-.332 0-.655.097-.965.277a1.9 1.9 0 0 0-.485-.879 1.9 1.9 0 0 0-.879-.484c.181-.31.282-.633.282-.965s-.1-.65-.282-.96c.347-.092.645-.25.88-.485s.392-.532.484-.88" style="opacity:.2"/><path fill="#ffe046" d="M21.507 36.233c4.192-4.192 8.94-6.24 10.604-4.576 1.665 1.664-.384 6.412-4.576 10.604-2.198 2.198-5.007 3.35-7.18 3.947-1.7.467-3.262-1.096-2.795-2.794.598-2.175 1.749-4.983 3.947-7.18m18.077-18.078c-4.193 4.192-6.242 8.94-4.577 10.605 1.665 1.664 6.412-.385 10.605-4.577 2.197-2.198 3.349-5.006 3.947-7.18.467-1.699-1.096-3.262-2.795-2.795-2.174.598-4.983 1.75-7.18 3.947"/><path fill="#ffe046" d="M37.821 42.991c0-5.928-1.908-10.734-4.262-10.734s-4.262 4.806-4.262 10.734c0 3.108 1.171 5.908 2.286 7.868.87 1.532 3.081 1.532 3.952 0 1.115-1.96 2.286-4.76 2.286-7.868"/><path fill="#fcb54c" d="M32.277 42.32c1.92-4.534 2.015-8.827.215-9.59-1.8-.761-4.815 2.297-6.734 6.83-1.234 2.916-.97 6.046-.624 7.91a1.235 1.235 0 0 0 1.9.804c1.579-1.05 4.01-3.039 5.243-5.954"/><path fill="#ffe046" d="M37.821 17.426c0 5.93-1.908 10.735-4.262 10.735s-4.262-4.806-4.262-10.735c0-3.108 1.171-5.908 2.286-7.868.87-1.531 3.081-1.531 3.952 0 1.115 1.96 2.286 4.76 2.286 7.868"/><path fill="#fcb54c" d="M41.36 20.857c-1.918 4.534-4.933 7.592-6.734 6.83-1.8-.762-1.704-5.055.215-9.59 1.233-2.914 3.664-4.904 5.243-5.954a1.235 1.235 0 0 1 1.9.804c.346 1.864.61 4.995-.624 7.91"/><path fill="#ffe046" d="M45.612 36.233c-4.193-4.192-8.94-6.24-10.605-4.576s.384 6.412 4.577 10.604c2.197 2.198 5.006 3.35 7.18 3.947 1.699.467 3.262-1.096 2.795-2.794-.598-2.175-1.75-4.983-3.947-7.18"/><path fill="#fcb54c" d="M41.217 39.679c-1.85-4.563-4.818-7.667-6.63-6.932-1.811.734-1.78 5.028.069 9.591 1.189 2.934 3.589 4.96 5.151 6.034a1.235 1.235 0 0 0 1.913-.775c.374-1.859.686-4.985-.503-7.918"/><path fill="#ffe046" d="M27.535 18.156c4.192 4.192 6.24 8.94 4.576 10.605-1.665 1.664-6.412-.385-10.604-4.577-2.198-2.198-3.35-5.006-3.947-7.18-.467-1.699 1.095-3.262 2.794-2.795 2.174.598 4.983 1.75 7.18 3.947"/><path fill="#fcb54c" d="M32.463 18.08c1.849 4.562 1.88 8.857.067 9.591-1.811.734-4.78-2.37-6.629-6.932-1.189-2.934-.877-6.06-.502-7.918a1.235 1.235 0 0 1 1.912-.775c1.562 1.073 3.963 3.1 5.152 6.034"/><path fill="#ffe046" d="M46.341 25.946c-5.928 0-10.734 1.909-10.734 4.263s4.806 4.262 10.734 4.262c3.109 0 5.908-1.171 7.869-2.286 1.531-.87 1.531-3.081 0-3.952-1.96-1.115-4.76-2.287-7.869-2.287"/><path fill="#fcb54c" d="M45.67 31.49c-4.534-1.918-8.827-2.014-9.59-.214-.761 1.8 2.297 4.815 6.831 6.734 2.915 1.234 6.046.97 7.91.624a1.235 1.235 0 0 0 .804-1.9c-1.05-1.58-3.04-4.01-5.955-5.244"/><path fill="#ffe046" d="M20.777 25.946c5.928 0 10.734 1.909 10.734 4.263s-4.806 4.262-10.734 4.262c-3.109 0-5.908-1.171-7.869-2.286-1.531-.87-1.531-3.081 0-3.952 1.96-1.115 4.76-2.287 7.869-2.287"/><path fill="#fcb54c" d="M24.207 22.408c4.534 1.918 7.592 4.933 6.83 6.734-.762 1.8-5.055 1.704-9.59-.215-2.914-1.233-4.904-3.664-5.954-5.243a1.235 1.235 0 0 1 .805-1.9c1.864-.346 4.994-.61 7.909.624m18.822.143c-4.563 1.85-7.666 4.817-6.932 6.63.734 1.811 5.028 1.78 9.591-.069 2.934-1.189 4.96-3.589 6.034-5.151a1.235 1.235 0 0 0-.775-1.913c-1.858-.374-4.984-.686-7.918.503"/><path fill="#fcb54c" d="M21.43 31.305c4.563-1.849 8.857-1.88 9.591-.068.735 1.812-2.37 4.78-6.932 6.63-2.934 1.188-6.06.877-7.918.502a1.235 1.235 0 0 1-.775-1.912c1.073-1.562 3.1-3.963 6.034-5.152"/><path fill="#a55a3c" d="M44 30a9.98 9.98 0 0 1-3.671 7.743c-1.724 1.41-3.895 1.41-6.297 1.41-5.522 0-9.185-3.598-9.185-9.12 0-3.253.706-6.176 3.111-8.002A9.96 9.96 0 0 1 34 20.001c5.523 0 10 4.476 10 10"/><path fill="#783c28" d="M39.798 36.526a9.96 9.96 0 0 1-9.975-10.178 10 10 0 0 1 .432-2.745c.415-1.358-1.166-2.43-2.297-1.572a9.98 9.98 0 0 0-3.955 8.232c.136 5.272 4.414 9.572 9.685 9.732a9.96 9.96 0 0 0 6.64-2.252.685.685 0 0 0-.44-1.217z"/><path d="M32 4C22.084 4 13.373 9.154 8.398 16.93q-.276.435-.52.879A27.85 27.85 0 0 0 4 32c0 .14.007.278.01.418a27.85 27.85 0 0 1 3.869-13.61q.243-.444.52-.878C13.372 10.154 22.083 5 32 5c15.275 0 27.686 12.234 27.986 27.438q.012-.218.014-.438C60 16.536 47.464 4 32 4" style="opacity:.2;fill:#fff"/></svg>