<svg xmlns="http://www.w3.org/2000/svg" width="64" height="64"><rect width="56" height="42" x="4" y="12" ry="4.2" style="opacity:.2"/><rect width="56" height="42" x="4" y="11" ry="4.2" style="fill:#78909c"/><path d="m19.512 6.445-1.094 1.172-3.313 10.426a1.75 1.75 0 0 0-.351.633l-.895 2.933-.203.664h.004l-.09.285-.199.668-.086.274-.2.66-7.608 24.996c-.256.84.14 1.694.886 1.914l.266.078c.747.22 1.553-.28 1.808-1.12l.165-.544c.346-.097.674-.314.914-.644l.441-.61c.49.24 1.13.19 1.648-.187l.23-.168.08.183c.214.506.728.802 1.296.817-.017.136-.018.274.012.414l.058.27c.162.76.983 1.233 1.844 1.058l30.871-6.277.754.257c3.515-.336 8.214-1.966 11.977-4.984l-1.551-.402-10.746 2.047a1.8 1.8 0 0 0-.727-.008l-3.004.61-.68.14-1.253.254-.68.136-21.23 4.317 18.882-7.809.625-.258 4.68-1.933.785.11c3.387-1 7.69-3.497 10.809-7.177l-1.602-.097-10.164 4.054a1.8 1.8 0 0 0-.707.13l-3.012 1.245-.465.192-.273.113-.644.27-.266.105-.637.266-19.933 8.246 14.71-10.711.418-.3 1.329-.966.394-.293 3.29-2.39.792-.078c3.057-1.768 6.653-5.203 8.82-9.512l-1.578.277-8.925 6.332a1.8 1.8 0 0 0-.66.293l-2.481 1.805v-.004l-.559.41-.242.176-.562.41-.235.172v-.004l-.558.41L14.28 42.277l9.805-13.492.394-.543.18-.246.074-.102.66-.91.247-.34 2.39-3.289.735-.32c2.363-2.623 4.722-6.999 5.457-11.766l-1.414.75-6.543 8.774c-.2.117-.386.275-.536.48l-1.804 2.48-.406.563-.176.242-.407.563-.171.23-.407.563-11.328 15.59 5.067-16.649.039-.125.234-.766.055-.183 1.183-3.89.586-.54c1.377-3.251 2.18-8.16 1.317-12.906" style="opacity:.1"/><path d="M8.2 11A4.19 4.19 0 0 0 4 15.2v1A4.19 4.19 0 0 1 8.2 12h47.6a4.19 4.19 0 0 1 4.2 4.2v-1a4.19 4.19 0 0 0-4.2-4.2z" style="opacity:.1;fill:#fff"/><path d="m53.037 28.542 1.6.098c-3.12 3.68-7.421 6.176-10.808 7.176l-.866-.121-3.494 1.436c-.686.219-1.687-.798-2.674.25l.075-2.387z" style="fill:#fff"/><rect width="3.086" height="35.033" x="46.36" y="-27.62" rx="1.405" ry="1.586" style="fill:#485861" transform="matrix(.39066 .92054 -.92408 .3822 0 0)"/><path d="m39.33 33.898-.641.266-.032 3.355.623-.26zm-.917.381-.642.267-.032 3.351.624-.257zm-.908.374-.64.266-.032 3.352.625-.258z" style="fill:#313131"/><path d="m57.175 38.21 1.552.402c-3.763 3.018-8.461 4.65-11.976 4.987l-.827-.284-3.704.744c-.715.085-1.505-1.104-2.673-.262l.528-2.33z" style="fill:#fff"/><rect width="3.086" height="35.033" x="48.55" y="-37.91" rx="1.405" ry="1.586" style="fill:#485861" transform="rotate(77.98)scale(1 .99996)skewX(-.526)"/><path d="m42.7 40.86-.681.139-.67 3.287.662-.137zm-.974.199-.68.14-.67 3.283.661-.134zm-.962.194-.678.14-.67 3.284.661-.134z" style="fill:#313131"/><path d="m45.109 19.193 1.578-.28c-2.167 4.309-5.763 7.746-8.82 9.513l-.87.085-3.06 2.217c-.614.374-1.827-.38-2.54.872l-.488-2.338Z" style="fill:#fff"/><rect width="3.086" height="35.033" x="41.78" y="-14.73" rx="1.405" ry="1.586" style="fill:#485861" transform="matrix(.59593 .80304 -.80847 .58853 0 0)"/><path d="m33.044 27.618-.561.41.756 3.268.545-.4zm-.802.586-.562.41.756 3.265.546-.396zm-.795.577-.559.409.756 3.265.546-.397z" style="fill:#313131"/><path d="m32.808 11.02 1.416-.752c-.735 4.767-3.096 9.145-5.46 11.768l-.802.35-2.227 3.05c-.47.546-1.856.203-2.148 1.613l-1.185-2.074z" style="fill:#fff"/><rect width="3.086" height="35.033" x="32.73" y="-.01" rx="1.405" ry="1.586" style="fill:#485861" transform="matrix(.81436 .58036 -.5878 .809 0 0)"/><path d="m23.927 22.753-.408.563 1.727 2.876.395-.548zm-.583.805-.408.563 1.725 2.874.397-.546zm-.579.794-.405.56 1.725 2.874.397-.545z" style="fill:#313131"/><path d="m18.42 6.618 1.091-1.174c.864 4.745.063 9.654-1.314 12.906l-.644.592-1.108 3.612c-.265.669-1.687.797-1.503 2.226l-1.798-1.574z" style="fill:#fff"/><rect width="3.086" height="35.033" x="19.26" y="11.21" rx="1.405" ry="1.586" style="fill:#485861" transform="matrix(.9593 .28237 -.29116 .95668 0 0)"/><path d="m13.86 20.609-.202.665 2.572 2.153.194-.647zm-.288.95-.202.666 2.57 2.152.197-.645zm-.288.94-.2.663 2.57 2.152.197-.646z" style="fill:#313131"/></svg>