<svg xmlns="http://www.w3.org/2000/svg" width="64" height="64"><path d="M8.071 12H56.93c2.247 0 4.07 1.836 4.07 4.1v32.8c0 2.264-1.823 4.1-4.071 4.1H8.07C5.823 53 4 51.164 4 48.9V16.1C4 13.836 5.823 12 8.071 12m0 0" style="opacity:.2"/><path d="M8.071 11H56.93c2.247 0 4.07 1.836 4.07 4.1v32.8c0 2.264-1.823 4.1-4.071 4.1H8.07C5.823 52 4 50.164 4 47.9V15.1C4 12.836 5.823 11 8.071 11m0 0" style="fill:#ffb55b"/><path d="M31 11v41h3V11Z" style="fill:#ff761c"/><path d="M9.826 15h17.348c1.01 0 1.826.82 1.826 1.833v29.334A1.83 1.83 0 0 1 27.174 48H9.826C8.816 48 8 47.18 8 46.167V16.833C8 15.82 8.817 15 9.826 15m28 0h17.348c1.01 0 1.826.82 1.826 1.833v29.334A1.83 1.83 0 0 1 55.174 48H37.826C36.816 48 36 47.18 36 46.167V16.833C36 15.82 36.817 15 37.826 15m0 0" style="fill:#38353e"/><path d="M49.006 16c-.003.722-.009 1.44-.002 2.16V27H52V16zM18.65 21C13.92 21 11 25.42 11 32.662 11 39.715 13.832 44 18.438 44 23.108 44 26 39.62 26 32.338 26 25.316 23.197 21 18.65 21m-.183 2.29c3.075 0 5.002 3.545 5.002 9.372 0 5.638-1.84 9.049-4.848 9.049-3.134 0-5.09-3.507-5.09-9.373 0-5.638 1.898-9.049 4.936-9.049M46.527 35c-2.772-.011-5.342 1.794-6.41 4.281-1.216 2.722-1.524 5.768-1.18 8.719h2.633c-.369-2.805-.199-5.735 1.04-8.307.911-2.093 3.66-3.257 5.747-2.076 2.58 1.562 3.084 4.827 3.22 7.557A25 25 0 0 1 51.48 48h2.573a18.6 18.6 0 0 0-.604-7.518c-.793-2.816-3.225-5.389-6.365-5.457a6 6 0 0 0-.557-.025" style="opacity:.2"/><path d="M18.437 43C23.11 43 26 38.62 26 31.339 26 24.317 23.197 20 18.65 20 13.92 20 11 24.42 11 31.661 11 38.715 13.832 43 18.437 43m.184-2.288c-3.134 0-5.09-3.507-5.09-9.373 0-5.638 1.898-9.05 4.936-9.05 3.075 0 5.002 3.546 5.002 9.372 0 5.638-1.839 9.05-4.848 9.05M49.005 15c-.002.722-.009 1.441-.002 2.161V26H52V15Zm-2.477 19c-2.772-.011-5.343 1.794-6.411 4.281-1.354 3.03-1.59 6.465-1.044 9.719h2.648c-.55-3.098-.499-6.428.888-9.307.911-2.093 3.661-3.256 5.748-2.075 2.58 1.562 3.083 4.825 3.219 7.555.019 1.237-.011 2.558-.228 3.827h2.548c.533-2.818.353-5.777-.446-8.518-.793-2.816-3.226-5.388-6.366-5.456a6 6 0 0 0-.556-.026m0 0" style="fill:#57e389"/><path d="M8.072 11C5.824 11 4 12.835 4 15.1v1C4 13.835 5.824 12 8.072 12h48.856C59.176 12 61 13.835 61 16.1v-1c0-2.265-1.824-4.1-4.072-4.1z" style="fill:#fff;opacity:.2"/><path d="M9.826 15A1.83 1.83 0 0 0 8 16.834v1A1.83 1.83 0 0 1 9.826 16h17.348c1.01 0 1.826.82 1.826 1.834v-1A1.83 1.83 0 0 0 27.174 15zm28 0A1.83 1.83 0 0 0 36 16.834v1A1.83 1.83 0 0 1 37.826 16h17.348c1.01 0 1.826.82 1.826 1.834v-1A1.83 1.83 0 0 0 55.174 15z" style="opacity:.2"/><path d="M18.65 20C13.92 20 11 24.42 11 31.662c0 .17.01.328.014.494C11.149 25.22 14.034 21 18.65 21c4.438 0 7.206 4.12 7.336 10.846.004-.17.014-.334.014-.508C26 24.316 23.197 20 18.65 20m-5.109 11.826c-.004.17-.01.337-.01.512 0 5.866 1.956 9.373 5.09 9.373 3.009 0 4.848-3.41 4.848-9.049 0-.173-.007-.338-.01-.508-.106 5.34-1.919 8.557-4.838 8.557-3.045 0-4.972-3.317-5.08-8.885M46.527 34c-2.772-.011-5.342 1.794-6.41 4.281-.967 2.164-1.354 4.535-1.303 6.899.067-2.029.472-4.04 1.303-5.899 1.068-2.487 3.638-4.292 6.41-4.281q.277 0 .557.025c3.14.068 5.572 2.64 6.365 5.457a18.9 18.9 0 0 1 .737 4.745 18.7 18.7 0 0 0-.737-5.745c-.793-2.816-3.225-5.389-6.365-5.457a6 6 0 0 0-.557-.025m-5.115 11.002A19 19 0 0 0 41.57 48h.15a21 21 0 0 1-.308-2.998m10.164.182c-.013.93-.07 1.887-.228 2.816h.132c.096-.948.11-1.905.096-2.816" style="fill:#fff;opacity:.2"/></svg>