<svg xmlns="http://www.w3.org/2000/svg" width="64" height="64"><path d="M11.5 14S4 14 4 21.6v22.8S4 52 11.5 52h42c7.5 0 7.5-7.6 7.5-7.6V21.6c0-7.6-7.5-7.6-7.5-7.6H19Z" style="opacity:.2"/><path d="M19 13h-7.5S4 13 4 20.6v22.8S4 51 11.5 51H19Z" style="fill:#0bc4f5"/><ellipse cx="11.5" cy="23.607" rx="3.5" ry="3.393" style="fill:#3f3f3f"/><path d="M19 13h27v38H19z" style="fill:#3f3f3f"/><path d="M22 30v3.801C37.2 33.801 37.199 49 37.199 49H41c0-19-19-19-19-19m0 6.786v4.071c8.143 0 8.143 8.143 8.143 8.143h4.071C34.214 36.786 22 36.786 22 36.786m0 6.785V49h5.429c0-5.429-5.429-5.429-5.429-5.429" style="opacity:.2"/><path d="M22 29v3.801C37.2 32.801 37.199 48 37.199 48H41c0-19-19-19-19-19m0 6.786v4.071c8.143 0 8.143 8.143 8.143 8.143h4.071C34.214 35.786 22 35.786 22 35.786m0 6.785V48h5.429c0-5.429-5.429-5.429-5.429-5.429" style="fill:#fff"/><path d="M46 13h7.5s7.5 0 7.5 7.6v22.8s0 7.6-7.5 7.6H46Z" style="fill:#ff4f3d"/><circle cx="53.5" cy="34.5" r="3.5" style="fill:#3f3f3f"/><path d="M11.5 13S4 13 4 20.6v1C4 14 11.5 14 11.5 14H19v-1z" style="fill:#fff;opacity:.2"/><path d="M19 13v1h27v-1z" style="fill:#fff;opacity:.1"/><path d="M46 13v1h7.5s7.5 0 7.5 7.6v-1c0-7.6-7.5-7.6-7.5-7.6z" style="fill:#fff;opacity:.2"/></svg>