<svg xmlns="http://www.w3.org/2000/svg" width="64" height="64"><rect width="56" height="44" x="4" y="11" rx="5.6" ry="5.6" style="opacity:.2"/><rect width="56" height="44" x="4" y="10" rx="5.6" ry="5.6" style="fill:#e4e4e4"/><circle cx="52" cy="18" r="4" style="fill:#b3b3b3"/><path d="M10 19h32v4H10zm0 8h24v4H10zm28 0h16v4H38zm-28 8h38v4H10zm20 8h24v4H30zm-20 0h14v4H10z" style="opacity:.2;fill:#fff"/><path d="M10 18h32v4H10zm0 8h24v4H10zm28 0h16v4H38zm-28 8h38v4H10zm20 8h24v4H30zm-20 0h14v4H10z" style="fill:#989898"/><path d="M9.6 10A5.587 5.587 0 0 0 4 15.6v1C4 13.497 6.497 11 9.6 11h44.8c3.103 0 5.6 2.497 5.6 5.6v-1c0-3.103-2.497-5.6-5.6-5.6z" style="fill:#fff;opacity:.2"/></svg>