<svg xmlns="http://www.w3.org/2000/svg" width="64" height="64"><rect width="54" height="54" x="5" y="6" rx="16.2" ry="16.2" style="opacity:.2"/><rect width="54" height="54" x="5" y="5" rx="16.2" ry="16.2" style="fill:#3f3f3f"/><path d="M50.941 39.824A12 12 0 0 1 39 51a12 12 0 0 1-11.93-11 12 12 0 0 0-.07 1 12 12 0 0 0 .033.516A12 12 0 0 1 27.07 41 12 12 0 0 0 39 52a12 12 0 0 0 11.941-11.176 12 12 0 0 1 .03.606A12 12 0 0 0 51 41a12 12 0 0 0-.059-1.176" style="opacity:.2"/><path d="M37 39a12 12 0 0 1-12 12 12 12 0 0 1-12-12 12 12 0 0 1 12-12 12 12 0 0 1 12 12" style="fill:#25b265"/><path d="M27 39a12 12 0 0 0 12 12 12 12 0 0 0 12-12 12 12 0 0 0-12-12 12 12 0 0 0-12 12" style="fill:#3584e4"/><path d="M45 25a12 12 0 0 1-12 12 12 12 0 0 1-12-12 12 12 0 0 1 12-12 12 12 0 0 1 12 12" style="fill:#e3424a"/><path d="M39 27a12 12 0 0 0-11.516 8.625A12 12 0 0 0 33 37a12 12 0 0 0 11.523-8.648A12 12 0 0 0 39 27" style="fill:#9e3cc8"/><path d="M25 27a12 12 0 0 0-3.684.598A12 12 0 0 0 33 37a12 12 0 0 0 3.71-.61A12 12 0 0 0 25 27" style="fill:#ffc224"/><path d="M32.02 29.273A12 12 0 0 0 27 39a12 12 0 0 0 5 9.71A12 12 0 0 0 37 39a12 12 0 0 0-4.98-9.727" style="fill:#29e1d5"/><path d="M32.02 29.273a12 12 0 0 0-4.508 6.368A12 12 0 0 0 33 37a12 12 0 0 0 3.7-.605 12 12 0 0 0-4.68-7.122" style="fill:#fff"/><path d="M21.2 5C12.223 5 5 12.224 5 21.2v1C5 13.223 12.224 6 21.2 6h21.6C51.777 6 59 13.224 59 22.2v-1C59 12.223 51.776 5 42.8 5z" style="opacity:.1;fill:#fff"/><path d="M36.941 39.824A12 12 0 0 1 25 51a12 12 0 0 1-11.93-11 12 12 0 0 0-.07 1 12 12 0 0 0 .033.516A12 12 0 0 1 13.07 41 12 12 0 0 0 25 52a12 12 0 0 0 11.941-11.176 12 12 0 0 1 .03.606A12 12 0 0 0 37 41a12 12 0 0 0-.059-1.176m8-14A12 12 0 0 1 33 37a12 12 0 0 1-11.93-11 12 12 0 0 0-.07 1 12 12 0 0 0 .033.516A12 12 0 0 1 21.07 27 12 12 0 0 0 33 38a12 12 0 0 0 11.941-11.176 12 12 0 0 1 .03.606A12 12 0 0 0 45 27a12 12 0 0 0-.059-1.176" style="opacity:.2"/><path d="M33 13a12 12 0 0 0-12 12 12 12 0 0 0 .033.484A12 12 0 0 1 33 14a12 12 0 0 1 11.979 11.31A12 12 0 0 0 45 25a12 12 0 0 0-12-12" style="opacity:.2;fill:#fff"/></svg>