<svg xmlns="http://www.w3.org/2000/svg" width="64" height="64"><path d="M6.8 5A2.794 2.794 0 0 0 4 7.8v50.4C4 59.751 5.249 61 6.8 61H38l22-22V7.8C60 6.249 58.751 5 57.2 5Z" style="opacity:.2"/><path d="M6.8 4A2.794 2.794 0 0 0 4 6.8v50.4C4 58.751 5.249 60 6.8 60H38l22-22V6.8C60 5.249 58.751 4 57.2 4Z" style="fill:#579c3b"/><path d="M22 15c-7.732 0-14 6.268-14 14s6.268 14 14 14 14-6.268 14-14a14 14 0 0 0-.16-2H43v20h4V27h9v-4H34.629A14 14 0 0 0 22 15m0 4.2c5.413-.001 9.801 4.387 9.8 9.8.001 5.413-4.387 9.801-9.8 9.8-5.413.001-9.801-4.387-9.8-9.8-.001-5.413 4.387-9.801 9.8-9.8" style="opacity:.2"/><path d="M26-47h20v4H26z" style="fill:#fff" transform="rotate(90)"/><path d="M60 38H40.75A2.75 2.75 0 0 0 38 40.75V60Z" style="fill:#85df66"/><path d="M32 22h24v4H32z" style="fill:#fff"/><path d="M22 14A14 14 0 0 0 8 28a14 14 0 0 0 14 14 14 14 0 0 0 14-14 14 14 0 0 0-14-14m0 4.2a9.8 9.8 0 0 1 9.8 9.8 9.8 9.8 0 0 1-9.8 9.8 9.8 9.8 0 0 1-9.8-9.8 9.8 9.8 0 0 1 9.8-9.8" style="fill:#fff"/><path d="M6.8 4C5.25 4 4 5.25 4 6.8v1C4 6.25 5.25 5 6.8 5h50.4C58.75 5 60 6.25 60 7.8v-1C60 5.25 58.75 4 57.2 4zm33.95 34A2.75 2.75 0 0 0 38 40.75v1A2.75 2.75 0 0 1 40.75 39H59l1-1z" style="opacity:.2;fill:#fff"/></svg>