<svg xmlns="http://www.w3.org/2000/svg" width="64" height="64"><rect width="58" height="58" x="-62" y="-61" rx="17.4" ry="17.4" style="opacity:.2" transform="rotate(90)scale(-1 1)"/><rect width="58" height="58" x="-61" y="-61" rx="17.4" ry="17.4" style="fill:#e4e4e4" transform="rotate(90)scale(-1 1)"/><path d="M30.3 8c-.664 0-1.2.702-1.2 1.572v18.856c0 .87.536 1.572 1.2 1.572h3.6c.665 0 1.2-.702 1.2-1.572V9.572c0-.87-.535-1.572-1.2-1.572ZM26 14.988A19 19 0 0 0 13 33a19 19 0 0 0 19 19 19 19 0 0 0 19-19 19 19 0 0 0-13-18.002v6.48A13 13 0 0 1 45 33a13 13 0 0 1-13 13 13 13 0 0 1-13-13 13 13 0 0 1 7-11.527Z" style="opacity:.1"/><rect width="6" height="22" x="29.1" y="7" rx="1.2" ry="1.571" style="fill:#3e63ca"/><path d="M20.398 3A17.36 17.36 0 0 0 3 20.398v1A17.36 17.36 0 0 1 20.398 4h23.204A17.36 17.36 0 0 1 61 21.398v-1A17.36 17.36 0 0 0 43.602 3z" style="opacity:.2;fill:#fff"/><path d="M26 13.988A19 19 0 0 0 13 32a19 19 0 0 0 19 19 19 19 0 0 0 19-19 19 19 0 0 0-13-18.002v6.48A13 13 0 0 1 45 32a13 13 0 0 1-13 13 13 13 0 0 1-13-13 13 13 0 0 1 7-11.527z" style="fill:#3e63ca"/></svg>