<svg xmlns="http://www.w3.org/2000/svg" width="64" height="64"><rect width="56" height="48" x="4" y="9" rx="2.8" ry="2.8" style="opacity:.2"/><rect width="56" height="48" x="4" y="8" rx="2.8" ry="2.8" style="fill:#4f4f4f"/><rect width="30" height="40" x="26" y="13" rx="1.6" ry="1.6" style="opacity:.2"/><path d="M8 22h14v1H8zm0 15h14v1H8zm0 15h14v1H8z" style="opacity:.2"/><rect width="30" height="40" x="26" y="12" rx="1.6" ry="1.6" style="fill:#5f5f5f"/><path d="M26 32.5h8l6-9 4 17 4-8h8" style="fill:none;stroke:#000;stroke-width:3;stroke-linejoin:round;opacity:.2"/><path d="M26 31.5h8l6-9 4 17 4-8h8" style="fill:none;stroke:#29b6f6;stroke-width:3;stroke-linejoin:round"/><rect width="14" height="9" x="8" y="12" rx="1.6" ry="1.6" style="fill:#5f5f5f"/><rect width="14" height="9" x="8" y="27" rx="1.6" ry="1.6" style="fill:#5f5f5f"/><rect width="14" height="9" x="8" y="42" rx="1.6" ry="1.6" style="fill:#5f5f5f"/><path d="M6.8 8C5.25 8 4 9.25 4 10.801v1A2.796 2.796 0 0 1 6.8 9h50.4a2.796 2.796 0 0 1 2.8 2.801v-1A2.796 2.796 0 0 0 57.199 8z" style="fill:#fff;opacity:.1"/><path d="M8 22h14v-3l-2-2-1 1-1-2-1 2-.5-1-.5 1h-2l-1 1-1-1-1 2-1-1H8Z" style="fill:#2196f3"/><path d="M8 37h14v-3l-2-2-1 1-1-2-1 2-.5-1-.5 1h-2l-1 1-1-1-1 2-1-1H8Z" style="fill:#66bb6a"/><path d="M8 52h14v-3l-2-2-1 1-1-2-1 2-.5-1-.5 1h-2l-1 1-1-1-1 2-1-1H8Z" style="fill:#ba68c8"/></svg>