<svg xmlns="http://www.w3.org/2000/svg" width="64" height="64"><path d="M9 10.86v44.325C9 57.844 11.043 60 13.563 60H37l16-16V10.86Z" style="opacity:.2"/><path d="M9 10v44.198C9 56.85 11.043 59 13.563 59H37l16-15.955V10Z" style="fill:#fffde7"/><path d="M9 10h44v1H9z" style="opacity:.1"/><path d="M13.563 3C11.035 3 9 5.148 9 7.815V10h44V7.815C53 5.148 50.965 3 48.438 3Z" style="fill:#00bfa5"/><path d="M13.563 3C11.035 3 9 5.15 9 7.816v1C9 6.15 11.035 4 13.563 4h34.875C50.965 4 53 6.15 53 8.816v-1C53 5.15 50.965 3 48.438 3z" style="opacity:.2;fill:#fff"/><path d="M53 43H41.424C38.981 43 37 45.054 37 47.586V59Z" style="fill:#dcedc8"/><path fill-opacity=".996" d="M17 19v4h1v-1h2v-3zm4 0v4h1v-1h1v1h1v-4zm4 0v4h1v-1h2v-3zm4 0v4h3v-1h-2v-.5h1.5v-1H30V20h2v-1zm4 0v4h1v-1h1v-1h-1v-1h1v1h1v-2zm2 3v1h1v-1Zm-17-2h1v1h-1zm4 0h1v1h-1zm4 0h1v1h-1Zm0 0"/><circle cx="18" cy="42" r="1" style="fill:#a5d6a7"/><circle cx="18" cy="47" r="1" style="fill:#a5d6a7"/><rect width="13.182" height="2" x="22" y="41" rx="1" style="fill:#00796b"/><rect width="7.909" height="2" x="22" y="46" rx="1" style="fill:#00796b"/><rect width="10" height="2" x="17" y="36" rx="1" style="fill:#00796b"/><rect width="29" height="2" x="17" y="26" rx="1" style="fill:#00796b"/><rect width="29" height="2" x="17" y="31" rx="1" style="fill:#00796b"/></svg>