<svg xmlns="http://www.w3.org/2000/svg" width="64" height="64"><circle cx="32" cy="33" r="28" style="opacity:.2"/><circle cx="32" cy="32" r="28" style="fill:#503584"/><path d="M42.286 22.077c-.673-.157-.959-.425-1.788-1.678-.51-.77-1.141-1.518-1.693-2.01-1.455-1.292-1.64-2.34-.599-3.38.683-.683 1.331-.816 2.17-.445C41.558 15.087 45 18.641 45 20c0 2-1.7 2.314-2.714 2.077m-9.222-6.932c-.314-.067-1.495-.091-2.624-.054-1.97.064-2.069.056-2.473-.217C27.24 14.384 27 13.85 27 13c.067-.839.368-1.231 1.173-1.635.55-.275.827-.316 2.446-.365 2 0 3.492.111 4.112.431.833.43 1.269 1.172 1.269 2.19 0 .77-.767 1.236-1.674 1.55-.492.14-.483.14-1.262-.026M21.889 23.16c-.82-.558-1.193-1.764-1.099-3.563.054-1.032.124-1.318.522-2.158C22.214 15.54 22.888 15 24 15c.791 0 2 .683 2 2 0 0-.01.394-.67 1.489-.554.918-.766 1.369-.502 2.511.133.577.172.622.172 1.227 0 .282-.194.558-.468.773-.416.326-1.028.468-1.537.468-.48 0-.77-.08-1.106-.31m9.072 6.985c-.653-.206-3.233-1.562-4.383-2.304-.973-.628-1.245-1.05-1.245-1.934 0-1.103.87-1.906 1.975-1.906 0 0 .799.078 1.667.574a71 71 0 0 0 2.547 1.365c1.672.848 1.965 1.167 2.038 2.22.041.582-.002.783-.248 1.144-.545.802-1.448 1.125-2.35.84m9.169 4.109c-.697-.367-1.838-.917-2.536-1.222s-1.405-.682-1.57-.837c-1.242-1.16-.618-3.15 1.088-3.47.495-.093 1.448.247 3.777 1.348 2.175 1.028 2.856 1.697 2.857 2.806C43.746 33.882 43 35 42 35c-.606 0-.764-.165-1.87-.747m5.017 10.12a2.4 2.4 0 0 1-.615-.404c-.57-.532-.65-.856-.644-2.585.005-1.304-.046-1.794-.255-2.455-.434-1.373-.305-2.19.44-2.775.855-.673 1.814-.648 2.606.067.41.37.56.645.822 1.507C47.811 38.746 48 40 48 41s-.083 1.71-.294 2.252c-.365.94-1.627 1.493-2.56 1.122m-7.115 7.908c-.67-.393-1.032-.85-1.032-1.656 0-1.148.217-1.388 2.428-2.641.424-.24 1.098-.71 1.497-1.044 1.092-.914 1.45-.94 2.075-.94 1.211 0 2 1 2 2 0 .247-.049.495-.17.728-.61 1.181-4.672 3.824-5.866 3.817a2.2 2.2 0 0 1-.932-.264m-9.116 2.167c-1.686-.177-2.32-.417-2.727-1.339-.107-.241-.189-.485-.189-.73 0-.752.54-1.495 1.282-1.854.495-.24.67-.254 1.959-.165a24 24 0 0 0 2.722.006c1.195-.084 1.356-.068 1.878.188.771.377 1.159.96 1.159 1.792 0 .792-.417 1.459-1.086 1.776-.248.118-1.035.267-1.754.331-1.474.133-1.933.132-3.244-.005m-6.98-2.8c-.494-.148-1.642-1.281-2.342-2.312-.992-1.46-1.594-2.864-1.594-3.863 0-.375.096-.695.264-.945.424-.632 1.449-1.046 2.124-.932.692.117 1.321.688 1.582 1.434.423 1.209.819 1.91 1.57 2.782 1.118 1.294 1.28 1.91.75 2.852-.471.839-1.458 1.25-2.355.983m-.433-9.937c-.953-.649-1.24-1.583-.779-2.535.464-.957 2.42-2.044 4.73-2.628 1.264-.32 1.898-.335 2.479-.06.854.406 1.067 1.147 1.067 2.32 0 .609-.947 1.35-1.545 1.468-1.531.302-1.96.445-3.137 1.048-.893.457-1.47.676-1.95.676-.325 0-.58-.095-.865-.29m15.9 2.29c-.937 0-1.388-.39-1.64-.629-.864-.814-1.603-1.34-2.745-1.954-.989-.532-1.182-.692-1.429-1.182-.359-.713-.359-1.075 0-1.787.333-.658 1.064-1.133 1.75-1.136 1.152-.006 4.586 2.202 5.605 3.604C40.066 42.463 38.7 44 37.4 44" style="fill-rule:evenodd;opacity:.2"/><path d="M42.286 21.077c-.673-.157-.959-.425-1.788-1.678-.51-.77-1.141-1.518-1.693-2.01-1.455-1.292-1.64-2.34-.599-3.38.683-.683 1.331-.816 2.17-.445C41.558 14.087 45 17.641 45 19c0 2-1.7 2.314-2.714 2.077m-9.222-6.932c-.314-.067-1.495-.091-2.624-.054-1.97.064-2.069.056-2.473-.217C27.24 13.384 27 12.85 27 12c.067-.839.368-1.231 1.173-1.635.55-.275.827-.316 2.446-.365 2 0 3.492.111 4.112.431.833.43 1.269 1.172 1.269 2.19 0 .77-.767 1.236-1.674 1.55-.492.14-.483.14-1.262-.026M21.889 22.16c-.82-.558-1.193-1.764-1.099-3.563.054-1.032.124-1.318.522-2.158C22.214 14.54 22.888 14 24 14c.791 0 2 .683 2 2 0 0-.01.394-.67 1.489-.554.918-.766 1.369-.502 2.511.133.577.172.622.172 1.227 0 .282-.194.558-.468.773-.416.326-1.028.468-1.537.468-.48 0-.77-.08-1.106-.31m9.072 6.985c-.653-.206-3.233-1.562-4.383-2.304-.973-.628-1.245-1.05-1.245-1.934 0-1.103.87-1.906 1.975-1.906 0 0 .799.078 1.667.574a71 71 0 0 0 2.547 1.365c1.672.848 1.965 1.167 2.038 2.22.041.582-.002.783-.248 1.144-.545.802-1.448 1.125-2.35.84m9.169 4.109c-.697-.367-1.838-.917-2.536-1.222s-1.405-.682-1.57-.837c-1.242-1.16-.618-3.15 1.088-3.47.495-.093 1.448.247 3.777 1.348 2.175 1.028 2.856 1.697 2.857 2.806C43.746 32.882 43 34 42 34c-.606 0-.764-.165-1.87-.747m5.017 10.12a2.4 2.4 0 0 1-.615-.404c-.57-.532-.65-.856-.644-2.585.005-1.304-.046-1.794-.255-2.455-.434-1.373-.305-2.19.44-2.775.855-.673 1.814-.648 2.606.067.41.37.56.645.822 1.507C47.811 37.746 48 39 48 40s-.083 1.71-.294 2.252c-.365.94-1.627 1.493-2.56 1.122m-7.115 7.908c-.67-.393-1.032-.85-1.032-1.656 0-1.148.217-1.388 2.428-2.641.424-.24 1.098-.71 1.497-1.044 1.092-.914 1.45-.94 2.075-.94 1.211 0 2 1 2 2 0 .247-.049.495-.17.728-.61 1.181-4.672 3.824-5.866 3.817a2.2 2.2 0 0 1-.932-.264m-9.116 2.167c-1.686-.177-2.32-.417-2.727-1.339-.107-.241-.189-.485-.189-.73 0-.752.54-1.495 1.282-1.854.495-.24.67-.254 1.959-.165a24 24 0 0 0 2.722.006c1.195-.084 1.356-.068 1.878.188.771.377 1.159.96 1.159 1.792 0 .792-.417 1.459-1.086 1.776-.248.118-1.035.267-1.754.331-1.474.133-1.933.132-3.244-.005m-6.98-2.8c-.494-.148-1.642-1.281-2.342-2.312-.992-1.46-1.594-2.864-1.594-3.863 0-.375.096-.695.264-.945.424-.632 1.449-1.046 2.124-.932.692.117 1.321.688 1.582 1.434.423 1.209.819 1.91 1.57 2.782 1.118 1.294 1.28 1.91.75 2.852-.471.839-1.458 1.25-2.355.983m-.433-9.937c-.953-.649-1.24-1.583-.779-2.535.464-.957 2.42-2.044 4.73-2.628 1.264-.32 1.898-.335 2.479-.06.854.406 1.067 1.147 1.067 2.32 0 .609-.947 1.35-1.545 1.468-1.531.302-1.96.445-3.137 1.048-.893.457-1.47.676-1.95.676-.325 0-.58-.095-.865-.29m15.9 2.29c-.937 0-1.388-.39-1.64-.629-.864-.814-1.603-1.34-2.745-1.954-.989-.532-1.182-.692-1.429-1.182-.359-.713-.359-1.075 0-1.787.333-.658 1.064-1.133 1.75-1.136 1.152-.006 4.586 2.202 5.605 3.604C40.066 41.463 38.7 43 37.4 43" style="fill-rule:evenodd;fill:#fff"/><path d="M32 4A28 28 0 0 0 4 32a28 28 0 0 0 .021.586A28 28 0 0 1 32 5a28 28 0 0 1 27.979 27.414L60 32A28 28 0 0 0 32 4" style="fill:#fff;opacity:.2"/></svg>