<svg xmlns="http://www.w3.org/2000/svg" width="64" height="64"><rect width="44" height="56" x="-58" y="-60" rx="3" ry="3" style="opacity:.2" transform="rotate(90)scale(-1 1)"/><rect width="44" height="56" x="-57" y="-60" rx="3" ry="3" style="fill:#8d6e63" transform="rotate(90)scale(-1 1)"/><rect width="36" height="48" x="-54" y="-56" rx="2" ry="2" style="opacity:.2" transform="rotate(90)scale(-1 1)"/><rect width="36" height="48" x="-53" y="-56" rx="2" ry="2" style="fill:#fff" transform="rotate(90)scale(-1 1)"/><path d="M7 12.998c-1.662 0-3 1.338-3 3V17c0-1.662 1.338-3 3-3h50c1.662 0 3 1.338 3 3v-1.002c0-1.662-1.338-3-3-3z" style="opacity:.1;fill:#fff"/><path d="M12 21c-.554 0-1 .446-1 1v28c0 .554.446 1 1 1h10c.554 0 1-.446 1-1V22c0-.554-.446-1-1-1zm15 0c-.554 0-1 .446-1 1v13c0 .554.446 1 1 1h10c.554 0 1-.446 1-1V22c0-.554-.446-1-1-1zm15 0c-.554 0-1 .446-1 1v20c0 .554.446 1 1 1h10c.554 0 1-.446 1-1V22c0-.554-.446-1-1-1z" style="opacity:.1"/><rect width="12" height="30" x="11" y="20" rx="1" ry="1" style="fill:#c061cb"/><rect width="12" height="15" x="26" y="20" rx="1" ry="1" style="fill:#e53935"/><rect width="12" height="22" x="41" y="20" rx="1" ry="1" style="fill:#69f0ae"/><path d="M32 4a6 6 0 0 0-6 6 6 6 0 0 0 6 6 6 6 0 0 0 6-6 6 6 0 0 0-6-6m0 3a3 3 0 0 1 3 3 3 3 0 0 1-3 3 3 3 0 0 1-3-3 3 3 0 0 1 3-3" style="fill:#989898"/><path d="M22.834 10C21.818 10 21 10.89 21 11.998V17h22v-5.002C43 10.89 42.182 10 41.166 10H35a3 3 0 0 1-3 3 3 3 0 0 1-3-3z" style="fill:#989898"/><path d="M32 4a6 6 0 0 0-6 6h-3.166C21.818 10 21 10.89 21 11.998v1C21 11.89 21.818 11 22.834 11H26a6 6 0 0 1 6-6 6 6 0 0 1 6 6h3.166c1.016 0 1.834.89 1.834 1.998v-1C43 10.89 42.182 10 41.166 10H38a6 6 0 0 0-6-6m2.957 6.486A3 3 0 0 1 32 13a3 3 0 0 1-2.957-2.486A3 3 0 0 0 29 11a3 3 0 0 0 3 3 3 3 0 0 0 3-3 3 3 0 0 0-.043-.514" style="opacity:.1;fill:#fff"/><path d="M21 17h22v1H21z" style="opacity:.1"/></svg>