<svg xmlns="http://www.w3.org/2000/svg" width="64" height="64"><circle cx="32.5" cy="32.5" r="28.5" style="opacity:.2"/><circle cx="32.5" cy="31.5" r="28.5" style="fill:#acacac"/><path d="M32.5 3A28.5 28.5 0 0 0 4 31.5a29 29 0 0 0 .021.582A28.5 28.5 0 0 1 32.5 4a28.5 28.5 0 0 1 28.479 27.918L61 31.5A28.5 28.5 0 0 0 32.5 3" style="opacity:.2;fill:#fff"/><path d="M23 10.17V20h-3v-6H1l3 3h13v3H5l3 3h19v-8.217l1.5-.996zm18 0-5.5 3.617 1.5.996V23h19l3-3H47v-3h13l3-3H44v6h-3v-4zM32 19a2 2 0 1 0 0 4 2 2 0 0 0 0-4M9 25l3 3h11v26.822l7-4.27v4.303l11-8.127V28h11l3-3H37v19.894l-2.959 2.072L33.959 25H30v19.937l-2.953 2.027L26.953 25h-8.191Z" style="opacity:.1"/><path d="M23 9.17V19h-3v-6H1l3 3h13v3H5l3 3h19v-8.217l1.5-.996zm18 0-5.5 3.617 1.5.996V22h19l3-3H47v-3h13l3-3H44v6h-3v-4ZM32 18a2 2 0 1 0 0 4 2 2 0 0 0 0-4M9 24l3 3h11v26.822l7-4.27v4.303l11-8.126V27h11l3-3H37v19.895l-2.959 2.072L33.959 24H30v19.938l-2.953 2.027L26.953 24h-8.191Z" style="fill:#be3539"/></svg>