<svg xmlns="http://www.w3.org/2000/svg" width="64" height="64"><circle cx="32" cy="33" r="28" style="opacity:.2"/><circle cx="32" cy="32" r="28" style="fill:#e4e4e4"/><path d="m19 33 9 9v0l17-17" style="opacity:.1;fill:none;stroke:#000;stroke-width:8;stroke-linecap:round;stroke-linejoin:round"/><path d="M45 24 28 41" style="fill:none;stroke:#248afd;stroke-width:8;stroke-linecap:round"/><path d="m19 32 9 9" style="fill:none;stroke:#50beee;stroke-width:8;stroke-linecap:round"/><path d="M32 4A28 28 0 0 0 4 32a28 28 0 0 0 .035.5A28 28 0 0 1 32 5a28 28 0 0 1 27.982 27.252L60 32A28 28 0 0 0 32 4" style="opacity:.2;fill:#fff"/><path d="M45 20a4 4 0 0 0-2.828 1.172L28 35.344l-6.172-6.172A4 4 0 0 0 19 28a4 4 0 0 0-2.828 1.172 4 4 0 0 0-1.121 3.328 4 4 0 0 1 1.121-2.328A4 4 0 0 1 19 29a4 4 0 0 1 2.828 1.172l9 9a4 4 0 0 1 1.139 2.328 4 4 0 0 0-1.139-3.328L28.5 35.844l13.672-13.672A4 4 0 0 1 45 21a4 4 0 0 1 2.828 1.172 4 4 0 0 1 1.135 2.328 4 4 0 0 0-1.135-3.328A4 4 0 0 0 45 20" style="fill:#fff;opacity:.2"/></svg>