<svg xmlns="http://www.w3.org/2000/svg" xmlns:xlink="http://www.w3.org/1999/xlink" xml:space="preserve" width="64" height="64"><defs><radialGradient id="a" cx="-159.431" cy="15.463" r="64.707" fx="-159.431" fy="15.463" gradientTransform="matrix(-.89413 0 0 .96305 -19.436 43.676)" gradientUnits="userSpaceOnUse"><stop offset="0" style="stop-color:#006fff;stop-opacity:1"/><stop offset="1" style="stop-color:#15baff;stop-opacity:1"/></radialGradient><radialGradient xlink:href="#a" id="d" cx="64.03" cy="62.599" r="23.999" fx="64.03" fy="62.599" gradientTransform="matrix(0 -2.5645 2.6776 0 -103.584 227.955)" gradientUnits="userSpaceOnUse"/><radialGradient xlink:href="#b" id="c" cx="-.357" cy="67.659" r="27.452" fx="-.357" fy="67.659" gradientTransform="matrix(2.41716 0 0 2.13891 .505 -81.168)" gradientUnits="userSpaceOnUse"/><linearGradient id="b"><stop offset="0" style="stop-color:#b7b6b6;stop-opacity:1"/><stop offset="1" style="stop-color:#f2f2f2;stop-opacity:1"/></linearGradient><filter id="e" width="1.171" height="1.193" x="-.085" y="-.096" style="color-interpolation-filters:sRGB"><feGaussianBlur stdDeviation="1.804"/></filter></defs><path d="M32.277 7.682c-3.627.14-6.78 1.03-8.761 2.52C10.032 7.46 7.752 21.592 7.639 22.354c-2.433 1.021-3.754 3.293-3.606 5.915 1.702 14.655 11.35 27.976 30.547 27.976 5.53 0 24.346-5.934 24.346-24.25 0-2.135-.217-4.109-.615-5.932.543-2.268-.2-5.094-2.627-6.722-5.148-8.633-15.426-11.967-23.407-11.66" style="fill:url(#c);stroke-width:1.16691" transform="translate(.465 -.017)scale(1.00196)"/><path d="M51.995 20.76c-5.317.045-5.23 7.849 0 7.817 5.229-.031 5.316-7.86 0-7.816M8.49 30.307c1.9 8.943 7.453 16.19 14.772 20.337 1.455.825 3.685.412 4.777-.855 4.102-4.76 9.17-13.06 7.831-24.087-.201-1.661-1.842-3.255-3.504-3.445a39.83 39.83 0 0 0-21.683 3.651c-1.51.722-2.54 2.762-2.193 4.399m36.159-4.01c-2.087.968-4.558 1.986-6.709 2.618q.06.831.059 1.663c0 1.274.92 2.085 2.153 1.76 3.246-.856 6.617-2.001 8.91-2.857-.895-.71-1.413-1.342-1.735-1.974-.577-1.13-1.522-1.746-2.678-1.21" style="fill:url(#d);stroke-width:1.25" transform="translate(.465 -.017)scale(1.00196)"/><path d="M23 30a3 3 0 0 0-1.483 5.606c.263.15.5.472.5.775v1.034a1.58 1.58 45.084 0 0 1.573 1.578l.837.002a1.193 1.193 127.344 0 0 1.154-1.511l-.469-1.693c-.08-.292.044-.687.233-.924a3 3 0 0 0 .656-1.866 3 3 0 0 0-3-3" style="fill:#fff;stroke-width:1.25" transform="translate(.465 -.017)scale(1.00196)"/><path d="M26.496 13.457c.722.474 1.408 1.287 2.046 2.077.503.623 1.545.947 2.331.79 2.822-.564 7.613-.947 12.107 1.413.71.373 1.844.471 2.576.144q1.24-.552 2.48-1.108c-6.468-5.157-14.81-5.904-21.54-3.316m-7.48.66c-4.113.67-7.016 4.524-7.393 9.18.093-.04.184-.086.277-.125.038 0 .457-.19 1.305-.506.75-.28 1.494-1.125 1.791-1.868.84-2.096 2.43-3.632 4.465-3.966 1.87-.305 3.871.484 5.332 2.093.537.593 1.515 1.096 2.316 1.086.545-.007 1.09.006 1.637.024-2.311-5.022-6.658-6.421-9.73-5.918m30.496 3.95c-5.209 2.396-8.205 3.282-10.948 3.865-.7.15-1.132.82-1.04 1.53.114.886.155 1.783.234 2.67a52.5 52.5 0 0 0 11.66-5.504c.604-.385.808-1.226.47-1.857zm2.753 13.067c-3.993 1.898-8.17 3.367-12.44 4.525-1.475.4-2.874 1.915-3.347 3.365q-.163.5-.36 1.066c3.746-.328 11.029-1.833 14.776-4.426.376-.26.602-.133.49.311-1.703 6.754-9.831 10.833-15.307 10.575-1.517-.072-3.302.489-4.18 1.738a30 30 0 0 1-2.58 3.177c9.437 2.063 24.202-2.358 26.505-18 .35-2.377-1.385-3.364-3.557-2.331" style="fill:#3f3f3f;stroke-width:1.25" transform="translate(.465 -.017)scale(1.00196)"/><path d="M32.76 9.066c-3.429.131-6.407.974-8.278 2.38C11.742 8.858 9.587 22.212 9.48 22.932c-2.299.964-3.548 3.11-3.408 5.588 1.607 13.848 10.723 26.433 28.863 26.433 5.224 0 23.004-5.605 23.004-22.912 0-2.017-.203-3.883-.58-5.605.513-2.144-.19-4.813-2.483-6.352C50.013 11.926 40.3 8.776 32.76 9.066Zm2.16 4.088c4.398.038 8.91 1.456 12.73 4.502q-1.171.524-2.344 1.046c-.691.309-1.763.216-2.433-.136-4.247-2.23-8.774-1.867-11.44-1.334-.742.148-1.728-.157-2.203-.746-.603-.746-1.251-1.515-1.934-1.963a20.8 20.8 0 0 1 7.623-1.37zm-13.551 1.902c2.76 0 6.143 1.53 8.054 5.682a34 34 0 0 0-1.547-.024c-.757.01-1.68-.465-2.189-1.025-1.38-1.52-3.27-2.265-5.037-1.977-1.923.315-3.426 1.765-4.219 3.746-.281.703-.985 1.502-1.693 1.766-.801.298-1.197.478-1.233.478-.088.037-.173.08-.261.118.356-4.4 3.1-8.041 6.986-8.674q.546-.09 1.139-.09zm27.675 3.822.356.664c.319.597.127 1.392-.444 1.756A49.6 49.6 0 0 1 37.94 26.5c-.075-.839-.115-1.687-.223-2.523-.086-.67.323-1.305.985-1.445 2.592-.552 5.422-1.388 10.343-3.653zm2.346 2.545c5.023-.042 4.941 7.357 0 7.387s-5.023-7.345 0-7.387zm-23.836 1.188a37 37 0 0 1 5.291.226c1.571.18 3.12 1.685 3.31 3.254 1.265 10.419-3.522 18.263-7.398 22.76-1.032 1.197-3.14 1.588-4.515.808-6.915-3.918-12.162-10.766-13.957-19.216-.329-1.547.646-3.475 2.072-4.157a37.7 37.7 0 0 1 15.197-3.675zm17.676 3.857c.737 0 1.341.53 1.75 1.33.305.597.796 1.195 1.64 1.865-2.166.808-5.352 1.89-8.42 2.7-1.164.307-2.032-.46-2.033-1.664q.002-.786-.054-1.57c2.032-.598 4.366-1.561 6.338-2.475a1.84 1.84 0 0 1 .779-.186zm-21.234 3.686a2.833 2.833 0 0 0-1.402 5.297c.248.14.47.446.47.732v.976a1.49 1.49 0 0 0 1.488 1.493l.791.002a1.128 1.128 0 0 0 1.09-1.43l-.443-1.598c-.077-.276.042-.65.22-.873a2.83 2.83 0 0 0 .62-1.763 2.835 2.835 0 0 0-2.834-2.836zm29.087.687c1.312-.044 2.172.903 1.924 2.588-2.176 14.78-16.128 18.955-25.045 17.006a29 29 0 0 0 2.438-3c.83-1.18 2.517-1.712 3.951-1.645 5.174.244 12.854-3.609 14.463-9.99.106-.42-.107-.54-.463-.295-3.54 2.45-10.422 3.872-13.963 4.182q.188-.534.342-1.006c.446-1.37 1.769-2.802 3.162-3.18 4.035-1.094 7.981-2.481 11.754-4.275.513-.244 1-.37 1.437-.385z" style="mix-blend-mode:normal;fill:none;stroke:#000;stroke-width:.2;stroke-dasharray:none;stroke-opacity:1;filter:url(#e)" transform="translate(-1.933 -1.933)scale(1.0604)"/></svg>