<svg xmlns="http://www.w3.org/2000/svg" width="64" height="64"><rect width="56" height="56" x="-61" y="-59.99" rx="27.995" ry="27.995" style="opacity:.2" transform="rotate(90)scale(-1 1)"/><rect width="56" height="56" x="-60" y="-59.99" rx="27.995" ry="27.995" style="fill:#e4e4e4" transform="rotate(90)scale(-1 1)"/><path d="M31.994 4.012A27.933 27.933 0 0 0 4 32.006c0 .113.011.223.018.334.349-15.2 12.689-27.334 27.976-27.334s27.627 12.131 27.979 27.33c.006-.11.015-.219.015-.33A27.933 27.933 0 0 0 31.994 4.012" style="opacity:.2;fill:#fff"/><path d="M29.357 17.02c-4.079-.12-8.003.72-11.626 1.573-5.338 1.256-14.122 5.15-14.122 5.15-2.12.92-2.153 3.928-.054 4.896 3.019 1.545 7.595 2.19 8.233 5.673.94 5.135-4.455 9.842-7.314 14.578-1.712 2.722 1.933 5.609 4.166 3.3 0 0 13.836-12.845 31.9-13.33 3.363-.091 7.843 1.401 11.34 3.02a298 298 0 0 1 5.989 2.844c2.211 1.444 4.944-1.47 3.903-3.904-5.18-12.103-15.902-22.062-30.635-23.685l-.023-.002a25 25 0 0 0-1.757-.113" style="opacity:.2"/><path d="M29.357 16.02c-4.079-.12-8.003.72-11.626 1.573-5.338 1.257-14.122 5.15-14.122 5.15-2.12.92-2.153 3.928-.054 4.896 3.019 1.545 7.595 2.19 8.233 5.673.94 5.136-4.455 9.842-7.314 14.578-1.712 2.722 1.933 5.61 4.166 3.3 0 0 13.836-12.844 31.9-13.33 3.363-.09 7.843 1.401 11.34 3.02a305 305 0 0 1 5.989 2.844c2.211 1.444 4.944-1.469 3.903-3.904-5.18-12.103-15.902-22.061-30.635-23.684l-.023-.003a25 25 0 0 0-1.757-.113" style="fill:#3886dc"/></svg>