<svg xmlns="http://www.w3.org/2000/svg" width="64" height="64"><rect width="56" height="56" x="4" y="5" rx="2.8" ry="2.8" style="opacity:.2"/><rect width="56" height="56" x="4" y="4" rx="2.8" ry="2.8" style="fill:#0081ff"/><path d="M16 17v32h6V17zm14 0v6h6v26h6V23h6v-6z" style="opacity:.2"/><g style="fill:#8addff"><path d="M16 16h6v32h-6zm20 0h6v32h-6z"/><path d="M48 16v6H30v-6z"/></g><path d="M6.8 4C5.25 4 4 5.25 4 6.8v1.003a2.796 2.796 0 0 1 2.8-2.801h50.4c1.55 0 2.8 1.25 2.8 2.8v-1A2.796 2.796 0 0 0 57.2 4z" style="opacity:.2;fill:#fff"/></svg>