<svg xmlns="http://www.w3.org/2000/svg" width="64" height="64" data-name="Layer 1"><circle cx="32" cy="33" r="28" style="opacity:.2"/><circle cx="32" cy="32" r="28" style="fill:#3f3f3f"/><path d="M15.156 10.724a28 28 0 0 0-4.351 3.984v14.805l-6.856 3.55 14.418 13.223 20.074-21.55 1.84-1.973 2.961-3.184ZM37.671 29.67 15.608 53h33.758z" style="opacity:.2"/><path d="M37.671 28.67 15.608 52h33.758z" style="fill:#5832e2"/><path d="m44.672 22.152-8.055 8.649 9.64 20.219 6.13-.91a28 28 0 0 0 5.843-9.52l-1.207-16.153Z" style="opacity:.2"/><path d="m44.674 21.153-8.056 8.649L46.26 50.02l8.033-1.195a28 28 0 0 0 4.064-7.57L57.025 23.44Z" style="fill:#009382"/><path d="m35.418 16.743-1.85-.025-29.62 15.345 14.418 13.22 21.914-23.52Z" style="fill:#f15a29"/><path d="M15.156 9.723a28 28 0 0 0-4.35 3.984v14.93L32.8 17.243l5.641 6.491 4.802-5.154z" style="fill:#9e1f63"/><path d="m26.508 11-7.992 20h2.605l2.434-5h8.11l2.132 3.723 1.883-2.024L28.828 11ZM12 13.504a28 28 0 0 0-2.8 3.351V31.29c0 .883-.121 1.572-.423 2.063q-.452.733-1.195 1.027a3.9 3.9 0 0 1-1.516.297q-.646.001-1.23-.086c-.18-.027-.385-.06-.586-.094a28 28 0 0 0 .45 2.395c.373.07.799.109 1.288.109q2.715 0 4.364-1.441Q12 34.116 12 31.086Zm15.625.09q.115.335.29.976.198.614.398 1.2.2.585.289.808L30.89 23h-6.477l2.324-6.422q.172-.473.43-1.281a25 25 0 0 0 .457-1.703M41.109 31l6.207 9.578L40.691 51h2.657l5.367-8.684 4.418 7.047a28 28 0 0 0 1.52-2.023l-4.458-6.817L56.375 31h-2.656L48.8 38.844 43.906 31Zm-4.73.059-1.75 1.879q.39.291.73.644c1.324 1.345 1.73 3.474 1.73 6.387 0 5.785-2.907 8.12-7.859 8.12h-2.32v-6.866L24 44.348V51h5.566q4.923 0 7.664-2.781 2.77-2.81 2.77-8.34c0-2.343-.401-4.303-1.203-5.871-.61-1.21-1.418-2.19-2.418-2.95" style="opacity:.2"/><path d="m26.508 10-7.992 20h2.605l2.434-5h8.11l2.132 3.723 1.883-2.024L28.828 10ZM12 12.504a28 28 0 0 0-2.8 3.351V30.29c0 .883-.121 1.572-.423 2.063q-.452.733-1.195 1.027a3.9 3.9 0 0 1-1.516.297q-.646.001-1.23-.086a50 50 0 0 1-.73-.117 28 28 0 0 0 .167 2.34q.172.04.36.07.58.117 1.355.117 2.715 0 4.364-1.441Q12 33.116 12 30.086Zm15.625.09q.115.335.29.976.198.614.398 1.2.2.585.289.808L30.89 22h-6.477l2.324-6.422q.172-.473.43-1.281a25 25 0 0 0 .457-1.703M41.109 30l6.207 9.578L40.691 50h2.657l5.367-8.684 5.105 8.141a28 28 0 0 0 1.532-2.047l-5.157-7.887L56.375 30h-2.656L48.8 37.844 43.906 30Zm-4.73.059-1.75 1.879q.39.291.73.644c1.324 1.345 1.73 3.474 1.73 6.387 0 5.785-2.907 8.12-7.859 8.12h-2.32v-6.866L24 43.348V50h5.566q4.923 0 7.664-2.781 2.77-2.81 2.77-8.34c0-2.343-.401-4.303-1.203-5.871-.61-1.21-1.418-2.19-2.418-2.95" style="fill:#fff"/><path d="M32 4A28 28 0 0 0 4 32a28 28 0 0 0 .033.482A28 28 0 0 1 32 5a28 28 0 0 1 27.982 27.242L60 32A28 28 0 0 0 32 4" style="opacity:.1;fill:#fff"/></svg>