<svg xmlns="http://www.w3.org/2000/svg" width="64" height="64"><circle cx="32" cy="33" r="28" style="opacity:.2"/><circle cx="32" cy="32" r="28" style="fill:#7bb034"/><path d="M43.93 13a2.067 2.067 0 0 0-2.065 1.933l-5.533 1.834a2.335 2.335 0 0 0-4.15 1.03 2.345 2.345 0 0 0 1.106 2.41l-5.275 28.107c-.7.04-1.343.393-1.754.957l-6.542-3.742a1.865 1.865 0 0 0-.873-2.06l.519-4.614c.278-.052.54-.165.766-.332l8.302 4.03.242-1.375-3.616-2.028.543-3.044a1.536 1.536 0 0 0-.19-3.058c-.746 0-1.38.535-1.51 1.286 0 0-.012.101-.017.171l-.006.078.003.054.001.02-3.275 1.337-.046-.069a1.87 1.87 0 0 0-1.546-.804c-.917 0-1.696.655-1.854 1.557-.139.774.235 1.56.904 1.953l-.517 4.607a1.86 1.86 0 0 0-1.517 1.522c-.09.496.021.997.31 1.41.29.413.722.689 1.218.776a1.9 1.9 0 0 0 1.416-.321l6.838 3.902c-.03.525.114 1.04.416 1.472A2.33 2.33 0 0 0 28.15 53a2.34 2.34 0 0 0 2.332-2.145l5.93-2.538a2.06 2.06 0 0 0 1.53.677c1.007 0 1.864-.72 2.039-1.712a2.06 2.06 0 0 0-.345-1.549 2 2 0 0 0-.416-.44l5.208-28.214a2.05 2.05 0 0 0 1.54-1.647 2.074 2.074 0 0 0-1.678-2.4l-.002-.001a2 2 0 0 0-.358-.03zm-.001 1.317q.068 0 .133.012a.76.76 0 0 1 .355.172.751.751 0 0 1-.618 1.313.756.756 0 0 1-.619-.825l.01-.054a.75.75 0 0 1 .74-.618zm-1.485 2.187q.15.158.336.281l-5.189 28.1a2.056 2.056 0 0 0-1.712 1.843l-5.87 2.517a2.3 2.3 0 0 0-.389-.408l5.313-28.339a2.34 2.34 0 0 0 1.894-2.128zm-7.957.672a1.02 1.02 0 0 1 .802.394c.18.228.256.507.215.787l-.007.05a1.02 1.02 0 0 1-.765.79.94.94 0 0 1-.42.018 1.03 1.03 0 0 1-.833-1.19 1.025 1.025 0 0 1 1.009-.849zM25.41 34.17a.413.413 0 1 1 0 .827.413.413 0 0 1 0-.827m-1.154 1.417q.075.084.188.18.09.073.179.128l-.49 2.737-3.278-1.214q.01-.042.018-.086.031-.183.023-.38zm-5.242.851q.052 0 .099.009a.57.57 0 0 1 .466.634l-.018.056a.54.54 0 0 1-.28.359l-.13.05a.5.5 0 0 1-.452-.07.57.57 0 0 1-.242-.568v-.001a.56.56 0 0 1 .557-.468zm-1.13 8.082a.6.6 0 0 1 .322.103.56.56 0 0 1 .242.544l-.029.075a.56.56 0 0 1-.31.361.555.555 0 0 1-.69-.19.56.56 0 0 1-.093-.423c.037-.216.199-.385.45-.448a.5.5 0 0 1 .108-.021zm20.067 1.638a.768.768 0 1 1 0 1.536.768.768 0 0 1 0-1.536m-9.805 3.469q.09 0 .18.017c.228.04.433.158.59.34l.05.056q.08.108.13.233.098.238.074.483l-.016.019v.079a1.027 1.027 0 0 1-1.847.389 1 1 0 0 1-.181-.525 1.2 1.2 0 0 1 .01-.242q.029-.163.116-.32c.18-.325.521-.527.894-.529" style="opacity:.2"/><path d="M43.93 12a2.067 2.067 0 0 0-2.065 1.933l-5.533 1.834a2.335 2.335 0 0 0-4.15 1.03 2.345 2.345 0 0 0 1.106 2.41l-5.275 28.107c-.7.04-1.343.393-1.754.957l-6.542-3.742a1.865 1.865 0 0 0-.873-2.06l.519-4.614c.278-.052.54-.165.766-.332l8.302 4.03.242-1.375-3.616-2.028.543-3.044a1.536 1.536 0 0 0-.19-3.058c-.746 0-1.38.535-1.51 1.286 0 0-.012.101-.017.171l-.006.078.003.054.001.02-3.275 1.337-.046-.069a1.87 1.87 0 0 0-1.546-.804c-.917 0-1.696.655-1.854 1.557-.139.775.235 1.56.904 1.953l-.517 4.607a1.86 1.86 0 0 0-1.517 1.522c-.09.496.021.997.31 1.41.29.413.722.689 1.218.776a1.9 1.9 0 0 0 1.416-.321l6.838 3.902c-.03.525.114 1.04.416 1.472A2.33 2.33 0 0 0 28.15 52a2.34 2.34 0 0 0 2.332-2.145l5.93-2.538a2.06 2.06 0 0 0 1.53.677c1.007 0 1.864-.72 2.039-1.712a2.06 2.06 0 0 0-.345-1.549 2 2 0 0 0-.416-.44l5.208-28.214a2.05 2.05 0 0 0 1.54-1.647 2.074 2.074 0 0 0-1.678-2.4l-.002-.001a2 2 0 0 0-.358-.03zm-.001 1.317q.068 0 .133.012a.76.76 0 0 1 .355.172.751.751 0 0 1-.618 1.313.756.756 0 0 1-.619-.825l.01-.054a.75.75 0 0 1 .74-.618zm-1.485 2.187q.15.158.336.281l-5.189 28.1a2.056 2.056 0 0 0-1.712 1.843l-5.87 2.517a2.3 2.3 0 0 0-.389-.408l5.313-28.339a2.34 2.34 0 0 0 1.894-2.128zm-7.957.672a1.02 1.02 0 0 1 .802.394c.18.228.256.507.215.787l-.007.05a1.02 1.02 0 0 1-.765.79.94.94 0 0 1-.42.018 1.03 1.03 0 0 1-.833-1.19 1.025 1.025 0 0 1 1.009-.849zM25.41 33.17a.413.413 0 1 1 0 .827.413.413 0 0 1 0-.827m-1.154 1.417q.075.084.188.18.09.073.179.128l-.49 2.737-3.278-1.214q.01-.042.018-.086.031-.183.023-.38zm-5.242.851q.052 0 .099.009a.57.57 0 0 1 .466.634l-.018.056a.54.54 0 0 1-.28.359l-.13.05a.5.5 0 0 1-.452-.07.57.57 0 0 1-.242-.568v-.001a.56.56 0 0 1 .557-.468zm-1.13 8.082a.6.6 0 0 1 .322.103.56.56 0 0 1 .242.544l-.029.075a.56.56 0 0 1-.31.361.555.555 0 0 1-.69-.19.56.56 0 0 1-.093-.423c.037-.216.199-.385.45-.448a.5.5 0 0 1 .108-.021zm20.067 1.638a.768.768 0 1 1 0 1.536.768.768 0 0 1 0-1.536m-9.805 3.469q.09 0 .18.017c.228.04.433.158.59.34l.05.056q.08.108.13.233.098.238.074.483l-.016.019v.079a1.027 1.027 0 0 1-1.847.389 1 1 0 0 1-.181-.525 1.2 1.2 0 0 1 .01-.242q.029-.163.116-.32c.18-.325.521-.527.894-.529" style="fill:#fff"/><path d="M32 4A28 28 0 0 0 4 32a28 28 0 0 0 .018.492A28 28 0 0 1 32 5a28 28 0 0 1 27.975 27.492A28 28 0 0 0 60 32 28 28 0 0 0 32 4" style="opacity:.2;fill:#fff"/></svg>