<svg xmlns="http://www.w3.org/2000/svg" xmlns:xlink="http://www.w3.org/1999/xlink" width="64" height="64"><defs><filter id="c" width="1.217" height="1.217" x="-.108" y="-.108" style="color-interpolation-filters:sRGB"><feGaussianBlur stdDeviation="2.556"/></filter><filter id="d" width="1.133" height="1.098" x="-.067" y="-.049" style="color-interpolation-filters:sRGB"><feGaussianBlur stdDeviation="1.132"/></filter><radialGradient xlink:href="#a" id="b" cx="8.575" cy="55.93" r="29" fx="8.575" fy="55.93" gradientTransform="translate(-3.737 -75.414)scale(2.27119)" gradientUnits="userSpaceOnUse"/><linearGradient id="a"><stop offset="0" style="stop-color:#ff524e;stop-opacity:1"/><stop offset="1" style="stop-color:coral;stop-opacity:1"/></linearGradient></defs><g transform="translate(-4.947 2.053)"><circle cx="36.947" cy="29.947" r="26.256" style="fill:url(#b);stroke-width:.905394"/><circle cx="32" cy="32" r="29" style="mix-blend-mode:normal;fill:none;stroke:#000;stroke-width:.3;stroke-dasharray:none;stroke-opacity:1;filter:url(#c)" transform="translate(7.974 .974)scale(.9054)"/></g><g style="fill:#fff;fill-opacity:1;stroke:none;stroke-width:10.4907;stroke-linecap:round;stroke-linejoin:round;stroke-dasharray:none;stroke-opacity:1;enable-background:new"><path d="M-86.682 70.021s-2.23 1.298 1.59 1.736c4.627.529 6.992.452 12.09-.511 0 0 1.343.84 3.216 1.568-11.433 4.898-25.875-.284-16.896-2.793m-1.398-6.393s-2.502 1.852 1.32 2.247c4.944.51 8.847.553 15.604-.748 0 0 .933.947 2.401 1.465-13.82 4.043-29.214.318-19.326-2.964zm11.776-10.847c2.819 3.244-.74 6.162-.74 6.162s7.153-3.692 3.87-8.317c-3.07-4.311-5.421-6.453 7.314-13.84 0 0-19.992 4.993-10.444 15.995" style="fill:#fff;fill-opacity:1;stroke:none;stroke-width:10.4907;stroke-linecap:round;stroke-linejoin:round;stroke-dasharray:none;stroke-opacity:1" transform="matrix(.758 0 0 .79865 91.896 -12.516)"/><path d="M-61.183 74.75s1.651 1.361-1.818 2.414c-6.598 1.998-27.466 2.6-33.262.08-2.081-.907 1.825-2.164 3.054-2.43 1.281-.277 2.013-.226 2.013-.226-2.317-1.632-14.977 3.204-6.43 4.591 23.308 3.779 42.488-1.701 36.442-4.429zm-24.426-17.747s-10.613 2.522-3.758 3.438c2.895.387 8.663.298 14.04-.153 4.393-.369 8.801-1.157 8.801-1.157s-1.548.664-2.668 1.429c-10.78 2.835-31.6 1.514-25.605-1.384 5.067-2.452 9.19-2.173 9.19-2.173m19.04 10.641c10.957-5.692 5.89-11.163 2.354-10.426-.865.18-1.253.337-1.253.337s.323-.505.936-.722c6.996-2.458 12.375 7.253-2.256 11.099 0 0 .168-.153.219-.288m-6.605-42.785s6.067 6.07-5.756 15.402c-9.481 7.489-2.162 11.757-.003 16.636-5.535-4.993-9.595-9.39-6.872-13.48 3.999-6.004 15.078-8.916 12.631-18.558" style="fill:#fff;fill-opacity:1;stroke:none;stroke-width:10.4907;stroke-linecap:round;stroke-linejoin:round;stroke-dasharray:none;stroke-opacity:1" transform="matrix(.758 0 0 .79865 91.896 -12.516)"/><path d="M-84.532 83.074c10.515.672 26.667-.374 27.049-5.35 0 0-.735 1.886-8.69 3.383-8.977 1.69-20.05 1.493-26.615.409 0 0 1.345 1.113 8.256 1.558" style="fill:#fff;fill-opacity:1;stroke:none;stroke-width:10.4907;stroke-linecap:round;stroke-linejoin:round;stroke-dasharray:none;stroke-opacity:1" transform="matrix(.758 0 0 .79865 91.896 -12.516)"/></g><g style="opacity:1;fill:none;fill-opacity:1;stroke:red;stroke-width:.299735;stroke-linecap:round;stroke-linejoin:round;stroke-dasharray:none;stroke-opacity:1;filter:url(#d);enable-background:new" transform="matrix(.758 0 0 .79865 91.896 -12.513)"><path d="M-86.682 70.021s-2.23 1.298 1.59 1.736c4.627.529 6.992.452 12.09-.511 0 0 1.343.84 3.216 1.568-11.433 4.898-25.875-.284-16.896-2.793m-1.398-6.393s-2.502 1.852 1.32 2.247c4.944.51 8.847.553 15.604-.748 0 0 .933.947 2.401 1.465-13.82 4.043-29.214.318-19.326-2.964zm11.776-10.847c2.819 3.244-.74 6.162-.74 6.162s7.153-3.692 3.87-8.317c-3.07-4.311-5.421-6.453 7.314-13.84 0 0-19.992 4.993-10.444 15.995" style="fill:none;fill-opacity:1;stroke:red;stroke-width:.299735;stroke-linecap:round;stroke-linejoin:round;stroke-dasharray:none;stroke-opacity:1"/><path d="M-61.183 74.75s1.651 1.361-1.818 2.414c-6.598 1.998-27.466 2.6-33.262.08-2.081-.907 1.825-2.164 3.054-2.43 1.281-.277 2.013-.226 2.013-.226-2.317-1.632-14.977 3.204-6.43 4.591 23.308 3.779 42.488-1.701 36.442-4.429zm-24.426-17.747s-10.613 2.522-3.758 3.438c2.895.387 8.663.298 14.04-.153 4.393-.369 8.801-1.157 8.801-1.157s-1.548.664-2.668 1.429c-10.78 2.835-31.6 1.514-25.605-1.384 5.067-2.452 9.19-2.173 9.19-2.173m19.04 10.641c10.957-5.692 5.89-11.163 2.354-10.426-.865.18-1.253.337-1.253.337s.323-.505.936-.722c6.996-2.458 12.375 7.253-2.256 11.099 0 0 .168-.153.219-.288m-6.605-42.785s6.067 6.07-5.756 15.402c-9.481 7.489-2.162 11.757-.003 16.636-5.535-4.993-9.595-9.39-6.872-13.48 3.999-6.004 15.078-8.916 12.631-18.558" style="fill:none;fill-opacity:1;stroke:red;stroke-width:.299735;stroke-linecap:round;stroke-linejoin:round;stroke-dasharray:none;stroke-opacity:1"/><path d="M-84.532 83.074c10.515.672 26.667-.374 27.049-5.35 0 0-.735 1.886-8.69 3.383-8.977 1.69-20.05 1.493-26.615.409 0 0 1.345 1.113 8.256 1.558" style="fill:none;fill-opacity:1;stroke:red;stroke-width:.299735;stroke-linecap:round;stroke-linejoin:round;stroke-dasharray:none;stroke-opacity:1"/></g></svg>