<svg xmlns="http://www.w3.org/2000/svg" width="64" height="64"><path d="M60 9v44c0 4-4 4-4 4H4zM50 30.742 31.036 47H50z" style="opacity:.2"/><path d="M60 8v44c0 4-4 4-4 4H4zM50 29.742 31.036 46H50z" style="fill:#f69a0d"/><path d="M60 8 4 56h1.166L60 9zM32.201 46l-1.166 1H50v-1z" style="fill:#fff;opacity:.2"/><path d="M23.97 8a1.4 1.4 0 0 0-1.316 1.015l-5.6 19.6a1.4 1.4 0 0 0 .96 1.73l19.6 5.6a1.4 1.4 0 0 0 1.732-.96l5.6-19.6a1.4 1.4 0 0 0-.96-1.73l-19.6-5.6A1.4 1.4 0 0 0 23.97 8" style="opacity:.2"/><path d="M23.97 7a1.4 1.4 0 0 0-1.316 1.015l-5.6 19.6a1.4 1.4 0 0 0 .96 1.73l19.6 5.6a1.4 1.4 0 0 0 1.732-.96l5.6-19.6a1.4 1.4 0 0 0-.96-1.73l-19.6-5.6A1.4 1.4 0 0 0 23.97 7" style="fill:#d7e50b"/><path d="M23.97 7a1.4 1.4 0 0 0-1.316 1.016l-5.6 19.6c-.085.298-.063.6.038.87l5.562-19.47a1.403 1.403 0 0 1 1.73-.961l19.602 5.6c.445.127.772.458.922.86l.037-.128a1.4 1.4 0 0 0-.959-1.733l-19.601-5.6A1.4 1.4 0 0 0 23.97 7" style="fill:#fff;opacity:.2"/></svg>