<svg xmlns="http://www.w3.org/2000/svg" width="64" height="64"><path d="M42 17c-1.662 0-3 1.338-3 3v11c0-1.662-1.338-3-3-3h-9c-1.662 0-3 1.338-3 3v8c0-1.662-1.338-3-3-3H11c-1.662 0-3 1.338-3 3v19c0 1.662 1.338 3 3 3h10c1.662 0 3-1.338 3-3 0 1.662 1.338 3 3 3h9c1.662 0 3-1.338 3-3 0 1.662 1.338 3 3 3h10c1.662 0 3-1.338 3-3V20c0-1.662-1.338-3-3-3z" style="opacity:.2"/><rect width="16" height="25" x="8" y="35" ry="3" style="fill:#d96808"/><rect width="15" height="33" x="24" y="27" ry="3" style="fill:#f69a0d"/><rect width="16" height="44" x="39" y="16" ry="3" style="fill:#f8c538"/><path d="M42 16c-1.662 0-3 1.338-3 3v1c0-1.662 1.338-3 3-3h10c1.662 0 3 1.338 3 3v-1c0-1.662-1.338-3-3-3zM27 27c-1.662 0-3 1.338-3 3v1c0-1.662 1.338-3 3-3h9c1.662 0 3 1.338 3 3v-1c0-1.662-1.338-3-3-3zm-16 8c-1.662 0-3 1.338-3 3v1c0-1.662 1.338-3 3-3h10c1.662 0 3 1.338 3 3v-1c0-1.662-1.338-3-3-3z" style="fill:#fff;opacity:.2"/><path d="M14.97 5a1.4 1.4 0 0 0-1.316 1.015l-5.6 19.6a1.4 1.4 0 0 0 .96 1.73l19.6 5.6a1.4 1.4 0 0 0 1.732-.96l5.6-19.6a1.4 1.4 0 0 0-.96-1.73l-19.6-5.6A1.4 1.4 0 0 0 14.97 5" style="opacity:.2"/><path d="M14.97 4a1.4 1.4 0 0 0-1.316 1.015l-5.6 19.6a1.4 1.4 0 0 0 .96 1.73l19.6 5.6a1.4 1.4 0 0 0 1.732-.96l5.6-19.6a1.4 1.4 0 0 0-.96-1.73l-19.6-5.6A1.4 1.4 0 0 0 14.97 4" style="fill:#d7e50b"/><path d="M14.97 4a1.4 1.4 0 0 0-1.316 1.016l-5.6 19.6c-.085.298-.063.6.038.87l5.562-19.47a1.403 1.403 0 0 1 1.73-.961l19.602 5.6c.445.127.772.458.922.86l.037-.128a1.4 1.4 0 0 0-.959-1.733l-19.601-5.6A1.4 1.4 0 0 0 14.97 4" style="fill:#fff;opacity:.2"/></svg>