<svg xmlns="http://www.w3.org/2000/svg" xmlns:xlink="http://www.w3.org/1999/xlink" width="64" height="64"><defs><filter id="c" width="1.428" height="1.428" x="-.214" y="-.214" style="color-interpolation-filters:sRGB"><feGaussianBlur stdDeviation="1.302"/></filter><filter id="b" width="1.25" height="1.25" x="-.125" y="-.125" style="color-interpolation-filters:sRGB"><feGaussianBlur stdDeviation="2.591"/></filter><radialGradient xlink:href="#a" id="d" cx="15.412" cy="7.046" r="24" fx="15.412" fy="7.046" gradientTransform="rotate(60 32.361 -13.873)scale(2.74548)" gradientUnits="userSpaceOnUse"/><linearGradient id="a"><stop offset="0" style="stop-color:#ffe61b;stop-opacity:1"/><stop offset="1" style="stop-color:#ffb347;stop-opacity:1"/></linearGradient></defs><rect width="50.855" height="50.855" x="-57.427" y="-57.427" rx="13.447" ry="13.447" style="fill:#419d45;stroke-width:.908124" transform="rotate(90)scale(-1 1)"/><rect width="50.855" height="50.855" x="-57.427" y="-57.427" rx="13.447" ry="13.447" style="fill:none;stroke:#000;stroke-width:.3;stroke-dasharray:none;stroke-opacity:1;filter:url(#b)" transform="rotate(90)scale(-1 1)"/><rect width="15.287" height="15.287" x="24.356" y="24.356" rx="5.334" ry="5.334" style="fill:#37474f;stroke-width:.764366"/><rect width="15.287" height="15.287" x="24.356" y="24.356" rx="5.334" ry="5.334" style="fill:none;stroke:#000;stroke-width:.3;stroke-dasharray:none;stroke-opacity:1;filter:url(#c)"/><path d="M24.356 13.655a1.53 1.53 0 0 0-1.529 1.529 1.53 1.53 0 0 0 1.53 1.529 1.53 1.53 0 0 0 1.528-1.53 1.53 1.53 0 0 0-1.529-1.528m4.586 0a1.53 1.53 0 0 0-1.528 1.529 1.53 1.53 0 0 0 1.528 1.529 1.53 1.53 0 0 0 1.529-1.53 1.53 1.53 0 0 0-1.53-1.528m6.116 0a1.53 1.53 0 0 0-1.529 1.529 1.53 1.53 0 0 0 1.53 1.529 1.53 1.53 0 0 0 1.527-1.53 1.53 1.53 0 0 0-1.528-1.528m4.586 0a1.53 1.53 0 0 0-1.53 1.529 1.53 1.53 0 0 0 1.53 1.529 1.53 1.53 0 0 0 1.529-1.53 1.53 1.53 0 0 0-1.53-1.528m4.585 0a1.53 1.53 0 0 0-1.527 1.529 1.53 1.53 0 0 0 1.527 1.529 1.53 1.53 0 0 0 1.53-1.53 1.53 1.53 0 0 0-1.53-1.528m4.587 0a1.53 1.53 0 0 0-1.529 1.529 1.53 1.53 0 0 0 1.53 1.529 1.53 1.53 0 0 0 1.528-1.53 1.53 1.53 0 0 0-1.529-1.528m-35.021.129v3.393l3.391-3.393zm1.389 4.458a1.53 1.53 0 0 0-1.53 1.529 1.53 1.53 0 0 0 1.53 1.527 1.53 1.53 0 0 0 1.529-1.527 1.53 1.53 0 0 0-1.53-1.53m4.587 0a1.53 1.53 0 0 0-1.53 1.529 1.53 1.53 0 0 0 1.53 1.527 1.53 1.53 0 0 0 1.527-1.527 1.53 1.53 0 0 0-1.527-1.53m4.585 0a1.53 1.53 0 0 0-1.529 1.529 1.53 1.53 0 0 0 1.53 1.527 1.53 1.53 0 0 0 1.528-1.527 1.53 1.53 0 0 0-1.529-1.53m4.586 0a1.53 1.53 0 0 0-1.528 1.529 1.53 1.53 0 0 0 1.528 1.527 1.53 1.53 0 0 0 1.529-1.527 1.53 1.53 0 0 0-1.53-1.53m6.116 0a1.53 1.53 0 0 0-1.529 1.529 1.53 1.53 0 0 0 1.53 1.527 1.53 1.53 0 0 0 1.527-1.527 1.53 1.53 0 0 0-1.528-1.53m4.586 0a1.53 1.53 0 0 0-1.53 1.529 1.53 1.53 0 0 0 1.53 1.527 1.53 1.53 0 0 0 1.529-1.527 1.53 1.53 0 0 0-1.53-1.53m4.585 0a1.53 1.53 0 0 0-1.527 1.529 1.53 1.53 0 0 0 1.527 1.527 1.53 1.53 0 0 0 1.53-1.527 1.53 1.53 0 0 0-1.53-1.53m4.587 0a1.53 1.53 0 0 0-1.529 1.529 1.53 1.53 0 0 0 1.53 1.527 1.53 1.53 0 0 0 1.528-1.527 1.53 1.53 0 0 0-1.529-1.53m-33.632 4.585a1.53 1.53 0 0 0-1.53 1.53 1.53 1.53 0 0 0 1.53 1.528 1.53 1.53 0 0 0 1.529-1.529 1.53 1.53 0 0 0-1.53-1.529m4.587 0a1.53 1.53 0 0 0-1.53 1.53 1.53 1.53 0 0 0 1.53 1.528 1.53 1.53 0 0 0 1.527-1.529 1.53 1.53 0 0 0-1.527-1.529m24.458 0a1.53 1.53 0 0 0-1.527 1.53 1.53 1.53 0 0 0 1.527 1.528 1.53 1.53 0 0 0 1.53-1.529 1.53 1.53 0 0 0-1.53-1.529m4.587 0a1.53 1.53 0 0 0-1.529 1.53 1.53 1.53 0 0 0 1.53 1.528 1.53 1.53 0 0 0 1.528-1.529 1.53 1.53 0 0 0-1.529-1.529m-33.632 4.587a1.53 1.53 0 0 0-1.53 1.528 1.53 1.53 0 0 0 1.53 1.529 1.53 1.53 0 0 0 1.529-1.53 1.53 1.53 0 0 0-1.53-1.527m4.587 0a1.53 1.53 0 0 0-1.53 1.528 1.53 1.53 0 0 0 1.53 1.529 1.53 1.53 0 0 0 1.527-1.53 1.53 1.53 0 0 0-1.527-1.527m24.458 0a1.53 1.53 0 0 0-1.527 1.528 1.53 1.53 0 0 0 1.527 1.529 1.53 1.53 0 0 0 1.53-1.53 1.53 1.53 0 0 0-1.53-1.527m4.587 0a1.53 1.53 0 0 0-1.529 1.528 1.53 1.53 0 0 0 1.53 1.529 1.53 1.53 0 0 0 1.528-1.53 1.53 1.53 0 0 0-1.529-1.527M15.184 33.53a1.53 1.53 0 0 0-1.53 1.53 1.53 1.53 0 0 0 1.53 1.527 1.53 1.53 0 0 0 1.529-1.528 1.53 1.53 0 0 0-1.53-1.529m4.587 0a1.53 1.53 0 0 0-1.53 1.53 1.53 1.53 0 0 0 1.53 1.527 1.53 1.53 0 0 0 1.527-1.528 1.53 1.53 0 0 0-1.527-1.529m24.458 0a1.53 1.53 0 0 0-1.527 1.53 1.53 1.53 0 0 0 1.527 1.527 1.53 1.53 0 0 0 1.53-1.528 1.53 1.53 0 0 0-1.53-1.529m4.587 0a1.53 1.53 0 0 0-1.529 1.53 1.53 1.53 0 0 0 1.53 1.527 1.53 1.53 0 0 0 1.528-1.528 1.53 1.53 0 0 0-1.529-1.529m-33.632 4.586a1.53 1.53 0 0 0-1.53 1.529 1.53 1.53 0 0 0 1.53 1.529 1.53 1.53 0 0 0 1.529-1.53 1.53 1.53 0 0 0-1.53-1.528m4.587 0a1.53 1.53 0 0 0-1.53 1.529 1.53 1.53 0 0 0 1.53 1.529 1.53 1.53 0 0 0 1.527-1.53 1.53 1.53 0 0 0-1.527-1.528m24.458 0a1.53 1.53 0 0 0-1.527 1.529 1.53 1.53 0 0 0 1.527 1.529 1.53 1.53 0 0 0 1.53-1.53 1.53 1.53 0 0 0-1.53-1.528m4.587 0a1.53 1.53 0 0 0-1.529 1.529 1.53 1.53 0 0 0 1.53 1.529 1.53 1.53 0 0 0 1.528-1.53 1.53 1.53 0 0 0-1.529-1.528m-33.632 4.587a1.53 1.53 0 0 0-1.53 1.527 1.53 1.53 0 0 0 1.53 1.53 1.53 1.53 0 0 0 1.529-1.53 1.53 1.53 0 0 0-1.53-1.527m4.587 0a1.53 1.53 0 0 0-1.53 1.527 1.53 1.53 0 0 0 1.53 1.53 1.53 1.53 0 0 0 1.527-1.53 1.53 1.53 0 0 0-1.527-1.527m4.585 0a1.53 1.53 0 0 0-1.529 1.527 1.53 1.53 0 0 0 1.53 1.53 1.53 1.53 0 0 0 1.528-1.53 1.53 1.53 0 0 0-1.529-1.527m4.586 0a1.53 1.53 0 0 0-1.528 1.527 1.53 1.53 0 0 0 1.528 1.53 1.53 1.53 0 0 0 1.529-1.53 1.53 1.53 0 0 0-1.53-1.527m6.116 0a1.53 1.53 0 0 0-1.529 1.527 1.53 1.53 0 0 0 1.53 1.53 1.53 1.53 0 0 0 1.527-1.53 1.53 1.53 0 0 0-1.528-1.527m4.586 0a1.53 1.53 0 0 0-1.53 1.527 1.53 1.53 0 0 0 1.53 1.53 1.53 1.53 0 0 0 1.529-1.53 1.53 1.53 0 0 0-1.53-1.527m4.585 0a1.53 1.53 0 0 0-1.527 1.527 1.53 1.53 0 0 0 1.527 1.53 1.53 1.53 0 0 0 1.53-1.53 1.53 1.53 0 0 0-1.53-1.527m4.587 0a1.53 1.53 0 0 0-1.529 1.527 1.53 1.53 0 0 0 1.53 1.53 1.53 1.53 0 0 0 1.528-1.53 1.53 1.53 0 0 0-1.529-1.527m-33.632 4.585a1.53 1.53 0 0 0-1.53 1.53 1.53 1.53 0 0 0 1.53 1.528 1.53 1.53 0 0 0 1.529-1.529 1.53 1.53 0 0 0-1.53-1.529m9.172 0a1.53 1.53 0 0 0-1.529 1.53 1.53 1.53 0 0 0 1.53 1.528 1.53 1.53 0 0 0 1.528-1.529 1.53 1.53 0 0 0-1.529-1.529m4.586 0a1.53 1.53 0 0 0-1.528 1.53 1.53 1.53 0 0 0 1.528 1.528 1.53 1.53 0 0 0 1.529-1.529 1.53 1.53 0 0 0-1.53-1.529m6.116 0a1.53 1.53 0 0 0-1.529 1.53 1.53 1.53 0 0 0 1.53 1.528 1.53 1.53 0 0 0 1.527-1.529 1.53 1.53 0 0 0-1.528-1.529m4.586 0a1.53 1.53 0 0 0-1.53 1.53 1.53 1.53 0 0 0 1.53 1.528 1.53 1.53 0 0 0 1.529-1.529 1.53 1.53 0 0 0-1.53-1.529m4.585 0a1.53 1.53 0 0 0-1.527 1.53 1.53 1.53 0 0 0 1.527 1.528 1.53 1.53 0 0 0 1.53-1.529 1.53 1.53 0 0 0-1.53-1.529m4.587 0a1.53 1.53 0 0 0-1.529 1.53 1.53 1.53 0 0 0 1.53 1.528 1.53 1.53 0 0 0 1.528-1.529 1.53 1.53 0 0 0-1.529-1.529" style="fill:url(#d);stroke-width:1.52873"/></svg>