<svg xmlns="http://www.w3.org/2000/svg" width="64" height="64"><rect width="56" height="56" x="4" y="5" rx="14" ry="14" style="opacity:.2"/><rect width="56" height="56" x="4" y="4" rx="14" ry="14" style="fill:#d92113"/><path d="m28.67 8.5-.143 1.374c-.246 2.327-1.02 7.07-1.21 7.417-.118.215-.522.331-1.162.335-1.186.007-1.935.576-1.839 1.401.05.424.244.606.828.766 1.004.276.991.248.526.95-.443.67-.506 1.075-.581 3.685l-.055 1.757-1.176.054c-.647.03-1.213.093-1.257.137s.033 1.274.17 2.734c.138 1.46.192 2.898.117 3.2-.1.402-.497.72-1.497 1.196-.748.356-1.694.718-2.099.806-.405.09-1.134.349-1.627.575s-1.165.414-1.49.417c-.975.496-1.407 1.276-2.1 1.941-.334.32-.315.306-1.123 1.306L12 40v12s0 3 3 3h34c3 0 3-3 3-3s.037-.267 0-2c-.073-3.463 0-.4 0-6 0-1-.854-1.887-1.208-2.858a239 239 0 0 0-1.914-4.956c-.697-1.753-1.377-3.55-1.518-3.993-.304-.961-.659-1.285-1.586-1.476-.854-.177-1.115-.919-.943-2.66.133-1.342.053-1.51-1.606-3.479-.865-1.025-1.043-1.14-1.846-1.141-.531-.002-1.29-.219-1.873-.54a43 43 0 0 0-1.675-.876l-.697-.334.335-1.156c.393-1.36 1.553-4.011 2.625-6.015.726-1.358.744-1.45.39-1.846-.391-.436-3.584-2.143-4.895-2.618a24 24 0 0 1-1.196-.472c-1.018-.45-3.764-1.08-4.704-1.08zm8.108 15.046c.084-.056.234-.03.5.034.848.205.924.267.929.807.003.265.197.73.43 1.032.235.302.429.856.431 1.23.009 1.161.457 2.131 1.477 3.2 1.023 1.07 1.122 1.722.267 1.722-.737 0-.734.58 0 1.784.817 1.342 2.077 5.057 1.886 5.558-.214.564-.45.427-1.654-.97a10.1 10.1 0 0 0-2.7-2.202c-1.735-.975-2.757-1.804-2.755-2.235 0-.157.588-1.057 1.306-1.996.717-.94 1.305-1.798 1.305-1.914s-.39-.48-.868-.8c-.903-.604-1.11-.957-.547-.957.44 0 .411-.29-.13-1.36-.368-.73-.404-1.003-.212-1.43a3.1 3.1 0 0 0 .233-1.072c0-.241.02-.376.102-.431m2.817.861c.072-.074.255-.038.54.116.265.144.395.374.321.568-.173.456-.453.408-.738-.13-.154-.29-.195-.48-.123-.554" style="opacity:.1"/><path d="m28.67 7.5-.143 1.374c-.246 2.327-1.02 7.07-1.21 7.417-.118.215-.522.331-1.162.335-1.186.007-1.935.576-1.839 1.401.05.424.244.606.828.766 1.004.276.991.248.526.95-.443.67-.506 1.075-.581 3.685l-.055 1.757-1.176.054c-.647.03-1.213.093-1.257.137s.033 1.274.17 2.734c.138 1.46.192 2.898.117 3.2-.1.402-.497.72-1.497 1.196-.748.356-1.694.718-2.099.806-.405.09-1.134.349-1.627.575s-1.165.414-1.49.417c-.975.496-1.407 1.276-2.1 1.941-.334.32-.315.306-1.123 1.306L12 39v12s0 3 3 3h34c3 0 3-3 3-3s.037-.267 0-2c-.073-3.463 0-.4 0-6 0-1-.854-1.887-1.208-2.858a239 239 0 0 0-1.914-4.956c-.697-1.753-1.377-3.55-1.518-3.993-.304-.961-.659-1.285-1.586-1.476-.854-.177-1.115-.919-.943-2.66.133-1.342.053-1.51-1.606-3.479-.865-1.025-1.043-1.14-1.846-1.141-.531-.002-1.29-.219-1.873-.54a43 43 0 0 0-1.675-.876l-.697-.334.335-1.156c.393-1.36 1.553-4.011 2.625-6.015.726-1.358.744-1.45.39-1.846-.391-.436-3.584-2.143-4.895-2.618a24 24 0 0 1-1.196-.472c-1.018-.45-3.764-1.08-4.704-1.08zm8.108 15.046c.084-.056.234-.03.5.034.848.205.924.267.929.807.003.265.197.73.43 1.032.235.302.429.856.431 1.23.009 1.161.457 2.131 1.477 3.2 1.023 1.07 1.122 1.722.267 1.722-.737 0-.734.58 0 1.784.817 1.342 2.077 5.057 1.886 5.558-.214.564-.45.427-1.654-.97a10.1 10.1 0 0 0-2.7-2.202c-1.735-.975-2.757-1.804-2.755-2.235 0-.157.588-1.057 1.306-1.996.717-.94 1.305-1.798 1.305-1.914s-.39-.48-.868-.8c-.903-.604-1.11-.957-.547-.957.44 0 .411-.29-.13-1.36-.368-.73-.404-1.003-.212-1.43a3.1 3.1 0 0 0 .233-1.072c0-.241.02-.376.102-.431m2.817.861c.072-.074.255-.038.54.116.265.144.395.374.321.568-.173.456-.453.408-.738-.13-.154-.29-.195-.48-.123-.554" style="fill:#3f3f3f"/><path d="M27.94 16.476c1.777.27 7.792 2.578 8.756 3.459.304.277.332.474.15 1.196-.12.477-.28.87-.355.868s-1.312-.804-2.748-1.784c-2.474-1.69-4.933-3.054-6.03-3.343-.368-.097-.428-.191-.245-.376.054-.054.218-.059.471-.02" style="fill:#f1d204"/><path d="M18 4C10.244 4 4 10.244 4 18v1c0-7.756 6.244-14 14-14h28c7.756 0 14 6.244 14 14v-1c0-7.756-6.244-14-14-14z" style="fill:#fff;opacity:.2"/></svg>