<svg xmlns="http://www.w3.org/2000/svg" width="64" height="64"><circle cx="32" cy="33" r="28" style="opacity:.2"/><circle cx="32" cy="32" r="28" style="fill:#e4e4e4"/><path d="M19.809 17s-.54.003-.637.62L16 36.336s.02.604.555.665h2.687c.617.026.852-.7.852-.7L21.34 29h5.558c.724.069.848-.434.848-.434l.246-2.734s.101-.804-.586-.832h-5.324l.57-4h7.68c.784.02.922-.633.922-.633L32 17.64s.057-.63-.668-.64zm16 0s-.54.003-.637.62L32 36.336s.02.604.555.665h2.687c.617.026.852-.7.852-.7L37.34 29h5.558c.724.069.848-.434.848-.434l.246-2.734s.101-.804-.586-.832h-5.324l.57-4h7.68c.784.02.922-.633.922-.633L48 17.64s.057-.63-.668-.64zM25.504 39c-.15 0-.265.038-.246.238-.297 1.39-.797 3.96-.797 3.96-.298-.256-.532-.709-.922-.933-.81-.488-1.89-.37-2.719.014-1.467.761-2.27 2.291-2.629 3.789-.238 1.122-.329 2.589.188 3.654.397.808 1.315 1.295 2.238 1.278.526 0 1.063-.092 1.524-.344.463-.215.8-.659 1.187-.918l-.152 1.105h1.902l2.727-11.836h-2.14a2 2 0 0 0-.161-.007m8.121 2c-.922 0-1.737.177-2.437.53a5.16 5.16 0 0 0-1.766 1.395 6.4 6.4 0 0 0-1.07 2.016A7.7 7.7 0 0 0 28 47.273q.002 1.872 1.11 2.809 1.105.918 2.874.918 1.088 0 1.899-.176.81-.196 1.601-.567v-1.965c-.59.26-1.1.453-1.53.57a5.4 5.4 0 0 1-1.434.173q-.851.001-1.333-.457c-.307-.307-.457-.705-.457-1.223v-.156q.001-.09.02-.196h.46c1.955 0 3.406-.02 4.352-.632.96-.613 1.438-1.73 1.438-2.743q0-1.146-.848-1.886-.83-.742-2.527-.742m10.172 0q-1.383 0-2.465.511a5.24 5.24 0 0 0-1.828 1.414 6.3 6.3 0 0 0-1.121 2.067A7.8 7.8 0 0 0 38 47.449q0 1.27.543 2.047a3.2 3.2 0 0 0 1.46 1.148A5.9 5.9 0 0 0 42.07 51a8.3 8.3 0 0 0 1.809-.18 8 8 0 0 0 1.484-.508v-2.121c-.454.2-.9.37-1.328.512-.414.13-.868.191-1.363.191q-.802 0-1.242-.422-.442-.425-.442-1.238.002-1.025.344-1.961.34-.954 1-1.555.662-.617 1.586-.617.64 0 1.14.16.522.142 1.044.336l.906-1.98a7 7 0 0 0-1.465-.457 8.6 8.6 0 0 0-1.746-.16m-10.402 1.87h.062q.94 0 .941.813c0 .412-.232 1.08-.699 1.399q-.682.46-2.25.46h-.406c.11-.47.29-1.185.535-1.539q.386-.53.883-.832.466-.282.934-.3M23 43.973c.6-.017 1.084.472 1.125.996.064.87-.176 1.948-.54 2.75-.29.608-.817 1.305-1.644 1.282-.505.022-.961-.258-1.066-.711-.19-.883.034-2.005.387-2.832.302-.636.791-1.358 1.617-1.477q.06-.008.121-.008" style="opacity:.1"/><path d="M25.504 38c-.15 0-.265.039-.246.238a303 303 0 0 0-.797 3.96c-.298-.256-.532-.71-.922-.933-.81-.488-1.89-.368-2.719.015-1.467.762-2.27 2.292-2.629 3.79-.238 1.122-.329 2.587.188 3.653.397.807 1.315 1.295 2.238 1.277.526 0 1.063-.091 1.524-.344.463-.215.8-.658 1.187-.918l-.152 1.106h1.902l2.727-11.836h-2.14a2 2 0 0 0-.161-.008m8.121 2c-.922 0-1.737.178-2.437.531a5.16 5.16 0 0 0-1.766 1.395 6.4 6.4 0 0 0-1.07 2.015A7.7 7.7 0 0 0 28 46.273q.002 1.873 1.11 2.809 1.105.918 2.874.918 1.088 0 1.899-.176.81-.195 1.601-.566v-1.965c-.59.26-1.1.453-1.53.57a5.4 5.4 0 0 1-1.434.172c-.566 0-1.013-.15-1.332-.457-.308-.306-.458-.705-.458-1.223v-.157q.001-.088.02-.195h.461c1.954 0 3.405-.02 4.352-.633.957-.612 1.437-1.728 1.437-2.74 0-.766-.282-1.392-.848-1.887Q35.322 40 33.625 40m10.172 0q-1.383 0-2.465.512a5.24 5.24 0 0 0-1.828 1.414 6.3 6.3 0 0 0-1.121 2.066A7.8 7.8 0 0 0 38 46.45q0 1.271.543 2.047a3.2 3.2 0 0 0 1.46 1.149A5.9 5.9 0 0 0 42.07 50q1.024-.001 1.809-.18a8 8 0 0 0 1.484-.507V47.19c-.454.2-.9.37-1.328.512q-.62.194-1.363.192-.802 0-1.242-.422-.442-.425-.442-1.239.002-1.024.344-1.96.34-.955 1-1.555.662-.617 1.586-.617.64 0 1.14.16.522.141 1.044.336l.906-1.98a7 7 0 0 0-1.465-.458 8.6 8.6 0 0 0-1.746-.16M33.395 41.87h.062q.94 0 .941.813c0 .412-.232 1.08-.699 1.397q-.682.46-2.25.461h-.406c.11-.47.29-1.185.535-1.538q.386-.53.883-.832.466-.284.934-.3M23 42.971c.6-.017 1.084.472 1.125.997.064.87-.176 1.949-.54 2.75-.29.608-.817 1.305-1.644 1.282-.505.023-.961-.257-1.066-.71-.19-.883.034-2.006.387-2.834.302-.636.791-1.358 1.617-1.476q.06-.008.121-.008" style="fill:#fe3030"/><path d="M19.809 16s-.54.003-.637.621L16 35.336s.02.603.555.664h2.687c.617.026.852-.7.852-.7L21.34 28h5.558c.724.07.848-.434.848-.434l.246-2.734s.101-.803-.586-.832h-5.324l.57-4h7.68c.784.021.922-.633.922-.633L32 16.641s.057-.63-.668-.641zm16 0s-.54.003-.637.621L32 35.336s.02.603.555.664h2.687c.617.026.852-.7.852-.7L37.34 28h5.558c.724.07.848-.434.848-.434l.246-2.734s.101-.803-.586-.832h-5.324l.57-4h7.68c.784.021.922-.633.922-.633L48 16.641s.057-.63-.668-.641z" style="fill:#0094dd"/><path d="M32 4A28 28 0 0 0 4 32a28 28 0 0 0 .033.482A28 28 0 0 1 32 5a28 28 0 0 1 27.982 27.242L60 32A28 28 0 0 0 32 4" style="opacity:.2;fill:#fff"/></svg>