<svg xmlns="http://www.w3.org/2000/svg" width="64" height="64"><path d="M8 60v2h12v-2zm18 0v2h12v-2zm18 0v2h12v-2z" style="opacity:.2"/><path d="M8 3h12v58H8zm36 0h12v58H44zM26 3h12v58H26z" style="fill:#a4a4a4"/><rect width="60" height="34" x="2" y="16" rx="6" ry="5.667" style="opacity:.2"/><rect width="60" height="34" x="2" y="15" rx="6" ry="5.667" style="fill:#536365"/><path d="M8 26v14h3.996v-5.3h1.133q.975.001 1.558.386.593.386 1.165 1.437L17.742 40H22l-2.172-3.977q-.663-1.208-1.316-1.796c-.43-.4-.922-.661-1.469-.774q1.496-.421 2.234-1.312.747-.89.746-2.278.002-2.006-1.43-2.933Q17.17 26 14.106 26Zm23 0q-3.272 0-5.14 1.863Q24 29.725 24 33.003q0 3.272 1.86 5.134Q27.727 39.998 31 40q3.282 0 5.14-1.863Q38 36.275 38 33.004q0-3.28-1.86-5.14Q34.282 26 31 26m11 0v14h3.078V29.762l2.899 7.547h2.058l2.899-7.547V40H56V26h-4.121l-2.883 7.492L46.13 26Zm-11 2.52q1.613 0 2.496 1.175.886 1.176.887 3.309-.001 2.125-.887 3.3Q32.612 37.48 31 37.48q-1.605 0-2.488-1.175-.884-1.177-.883-3.301-.001-2.133.883-3.309.885-1.175 2.488-1.175m-19.004.097h1.684q1.256.001 1.797.414.55.412.55 1.367 0 .966-.55 1.387-.54.422-1.797.422h-1.684z" style="opacity:.2"/><path d="M8 25v14h3.996v-5.3h1.133q.975.001 1.558.386.593.386 1.165 1.437L17.742 39H22l-2.172-3.977q-.663-1.208-1.316-1.796c-.43-.4-.922-.661-1.469-.774q1.496-.421 2.234-1.312.747-.89.746-2.278.002-2.006-1.43-2.933Q17.17 25 14.106 25Zm3.996 2.617h1.684q1.256.002 1.797.414.55.412.55 1.367 0 .966-.55 1.387-.54.422-1.797.422h-1.684zM31 25q-3.272 0-5.14 1.863Q24 28.725 24 32.003q0 3.272 1.86 5.134Q27.727 38.998 31 39q3.282 0 5.14-1.863Q38 35.275 38 32.004q0-3.28-1.86-5.14Q34.282 25 31 25m0 2.52q1.613 0 2.496 1.175.886 1.176.887 3.309-.001 2.125-.887 3.3Q32.612 36.48 31 36.48q-1.605 0-2.488-1.175-.884-1.177-.883-3.301-.001-2.133.883-3.309.885-1.175 2.488-1.175M42 25v14h3.076V28.76l2.899 7.55h2.059l2.898-7.55V39H56V25h-4.12l-2.885 7.492L46.129 25Z" style="fill:#fff"/><path d="M8 3v1h12V3zm18 0v1h12V3zm18 0v1h12V3z" style="opacity:.2;fill:#fff"/></svg>