<svg xmlns="http://www.w3.org/2000/svg" width="64" height="64"><path d="M29.053 5C4 5 3.948 32 3.948 32h25.053l.053-.246v3.475L29 35C3.947 35 4 61 4 61h56V31.525S60.001 5 29.054 5z" style="opacity:.2"/><path d="m29 31 3-14-2.947-13C4 4 3.948 31 3.948 31z" style="fill:#f5b32f"/><path d="M29.053 60 32 47l-3-13C3.947 34 4 60 4 60z" style="fill:#c73c78"/><path d="M29.053 4v56H35l25-26v-3.474S60 4 29.053 4" style="fill:#266fd5"/><path d="M60 60V34c-25.053 0-25.053 26-25.053 26z" style="fill:#17ac98"/><circle cx="41" cy="18" r="3" style="opacity:.1"/><circle cx="41" cy="17" r="3" style="fill:#4f4f4f"/><circle cx="41" cy="17" r="1" style="fill:#fff"/><path d="M29.053 4C4 4 3.948 31 3.948 31h.043C4.26 26.368 6.7 5 29.053 5 60 5 60 31.525 60 31.525v-1S60 4 29.053 4M29 34C3.947 34 4 60 4 60h.041c.27-4.589 2.71-25 24.96-25l.052.229v-1zm31 0c-25.053 0-25.053 26-25.053 26h.043c.278-4.589 2.76-25 25.01-25z" style="fill:#fff;opacity:.2"/></svg>