<svg xmlns="http://www.w3.org/2000/svg" xmlns:xlink="http://www.w3.org/1999/xlink" width="64" height="64"><defs><radialGradient xlink:href="#a" id="c" cx="49.469" cy="16.257" r="11.014" fx="49.469" fy="16.257" gradientTransform="rotate(105 167.407 -17.897)scale(4.63374 5.39062)" gradientUnits="userSpaceOnUse"/><radialGradient xlink:href="#a" id="b" cx="24.83" cy="22.477" r="21.116" fx="24.83" fy="22.477" gradientTransform="rotate(135 74.734 42.843)scale(3.81341 4.1582)" gradientUnits="userSpaceOnUse"/><filter id="e" width="1.374" height="1.322" x="-.187" y="-.161" style="color-interpolation-filters:sRGB"><feGaussianBlur stdDeviation="1.656"/></filter><filter id="d" width="1.195" height="1.179" x="-.098" y="-.09" style="color-interpolation-filters:sRGB"><feGaussianBlur stdDeviation="1.656"/></filter><linearGradient id="a"><stop offset="0" style="stop-color:#00d1ff;stop-opacity:1"/><stop offset="1" style="stop-color:#0089ff;stop-opacity:1"/></linearGradient></defs><path d="M25.41 14.027c-6.256 0-11.327 5.072-11.327 11.327 0 6.256 5.071 11.328 11.327 11.328s11.327-5.072 11.327-11.328-5.071-11.327-11.327-11.327m0 28.318c-12.316.007-17.935 5.247-20.5 10.028-2.088 3.894 1.46 7.705 5.914 7.705h29.175c4.455 0 8.002-3.81 5.916-7.706-2.563-4.787-8.184-10.033-20.505-10.027" style="fill:url(#b);fill-opacity:1;stroke-width:1.88782"/><path d="M49.578 14.19a5.86 5.86 0 1 0 0 11.719 5.86 5.86 0 0 0 0-11.72m0 14.648c-6.678.004-9.55 3.568-10.786 6.633-.917 2.275 1.066 4.342 3.53 4.343l14.51.002c2.465 0 4.448-2.066 3.533-4.342-1.234-3.07-4.105-6.64-10.787-6.636" style="fill:url(#c);fill-opacity:1;stroke-width:1.46479"/><path d="M25.41 14.027c-6.256 0-11.327 5.072-11.327 11.327 0 6.256 5.071 11.328 11.327 11.328s11.327-5.072 11.327-11.328-5.071-11.327-11.327-11.327zm0 28.318c-12.316.007-17.935 5.247-20.5 10.028-2.088 3.894 1.46 7.705 5.914 7.705h29.175c4.455 0 8.002-3.81 5.916-7.706-2.563-4.787-8.184-10.033-20.505-10.027z" style="fill:none;fill-opacity:1;stroke-width:.29999991;stroke:#000;stroke-opacity:1;stroke-dasharray:none;filter:url(#d)" transform="translate(-.04 -.172)"/><path d="M49.578 14.19a5.86 5.86 0 1 0 0 11.719 5.86 5.86 0 0 0 0-11.72zm0 14.648c-6.678.004-9.55 3.568-10.786 6.633-.917 2.275 1.066 4.342 3.53 4.343l14.51.002c2.465 0 4.448-2.066 3.533-4.342-1.234-3.07-4.105-6.64-10.787-6.636z" style="fill:none;fill-opacity:1;stroke-width:.29999991;stroke:#000;stroke-opacity:1;stroke-dasharray:none;filter:url(#e)" transform="translate(-.04 -.172)"/></svg>