<svg xmlns="http://www.w3.org/2000/svg" width="64" height="64"><path d="M4 52v2c0 1.662 1.338 3 3 3h50c1.662 0 3-1.338 3-3v-2c0 1.662-1.338 3-3 3H7c-1.662 0-3-1.338-3-3" style="opacity:.2"/><rect width="48" height="56" x="-56" y="-60" rx="3" ry="3" style="fill:#54402a" transform="rotate(90)scale(-1 1)"/><path d="M25.02 28A1 1.111 0 0 0 24 29.11v17.777a1 1.111 0 0 0 1.496.966l13.999-8.888a1 1.111 0 0 0 0-1.931l-13.999-8.89A1 1.111 0 0 0 25.02 28" style="opacity:.2"/><path d="M25.02 27A1 1.111 0 0 0 24 28.11v17.777a1 1.111 0 0 0 1.496.966l13.999-8.888a1 1.111 0 0 0 0-1.931l-13.999-8.89A1 1.111 0 0 0 25.02 27" style="fill:#d2d2d2"/><path d="M4 20v-9c0-1.662 1.338-3 3-3h50c1.662 0 3 1.338 3 3v9z" style="opacity:.2"/><path d="M4 14v-3c0-1.662 1.338-3 3-3h50c1.662 0 3 1.338 3 3v3z" style="opacity:.2"/><path d="M7 8c-1.662 0-3 1.338-3 3v1c0-1.662 1.338-3 3-3h50c1.662 0 3 1.338 3 3v-1c0-1.662-1.338-3-3-3z" style="opacity:.2;fill:#fff"/><path d="M7 8c-1.662 0-3 1.338-3 3v9h12v-6l-6-6z" style="fill:#d2d2d2"/><path d="m24 14-6-6h8l6 6z" style="fill:#bebebe;fill-rule:evenodd"/><path d="m24 14-6 6h8l6-6z" style="fill:#d2d2d2;fill-rule:evenodd"/><path d="m38 14-6-6h8l6 6z" style="fill:#bebebe;fill-rule:evenodd"/><path d="m38 14-6 6h8l6-6z" style="fill:#d2d2d2;fill-rule:evenodd"/><path d="m52 14-6-6h8l6 6z" style="fill:#bebebe;fill-rule:evenodd"/><path d="m52 14-6 6h8l6-6z" style="fill:#d2d2d2;fill-rule:evenodd"/></svg>