<svg xmlns="http://www.w3.org/2000/svg" width="64" height="64"><path d="M31.995 4c-1.517.002-3.036.568-4.17 1.702L4.702 28.827C3.567 29.963 3 31.481 3 33c0 1.518.567 3.036 1.702 4.172l23.123 23.126a5.84 5.84 0 0 0 3.436 1.65c.018.003.033.01.051.011l.043.003q.248.026.497.03c.043 0 .086.008.13.008H32v-.003c1.519.001 3.04-.564 4.175-1.699l23.123-23.126c1.135-1.136 1.694-2.653 1.694-4.172H61c0-.049-.007-.097-.008-.146a6 6 0 0 0-.049-.637c-.006-.047-.006-.095-.013-.142-.002-.011-.01-.02-.011-.03a5.82 5.82 0 0 0-1.621-3.218L36.175 5.702C35.04 4.567 33.518 4 32 4h-.006z" style="opacity:.2"/><path d="M31.999 3c-1.52 0-2.15 2.584-3.287 3.72L5.53 28.902c-2.27 2.272-.656 4.714 1.615 6.986l21.831 21.916c.963.963 1.054 3.008 2.335 3.155 1.74.2 3.556-.354 4.864-1.661l23.122-23.126c1.367-1.367 1.91-3.29 1.632-5.099-.184-1.196-1.968-1.49-2.872-2.395L34.837 5.703C33.7 4.567 33.516 3 31.998 3" style="fill:#487355"/><path d="M32 3v29h29c0-1.519-.567-3.037-1.702-4.173L36.175 4.702C35.04 3.567 33.518 3 32 3" style="fill:#9eba71"/><path d="M32 3v29H3c0-1.519.567-3.037 1.702-4.173L27.825 4.702C28.96 3.567 30.482 3 32 3" style="fill:#d9d991"/><path d="M32 61V32H3c0 1.519.567 3.037 1.702 4.172l23.123 23.126C28.96 60.433 30.482 60.999 32 61" style="fill:#99aa6b"/><path d="M31.996 3c-1.516.002-3.037.57-4.172 1.703L4.704 27.828C3.567 28.964 3 30.481 3 32q0 .258.023.516a5.85 5.85 0 0 1 1.68-3.688L27.824 5.703C28.96 4.57 30.48 4.002 31.996 4H32c1.518 0 3.04.568 4.176 1.703l23.12 23.125a5.82 5.82 0 0 1 1.622 3.219c.002.01.01.016.012.027.007.048.005.097.011.145q.018.14.028.281.022-.25.023-.5H61c0-.049-.007-.096-.008-.145q-.004-.112-.012-.226a6 6 0 0 0-.039-.41c-.006-.048-.004-.097-.011-.145-.002-.01-.01-.016-.012-.027a5.82 5.82 0 0 0-1.621-3.219L36.176 4.703C35.04 3.568 33.518 3.001 32 3z" style="opacity:.2;fill:#fff"/><path d="m27.554 42.535 8.763-9.42L53.243 56H40.277Z" style="opacity:.1"/><path d="m27.554 41.535 8.763-9.42L53.243 55H40.277Z" style="fill:#1f5489"/><path d="M15 14v42h10.602l.23-6.867L55 14H42.695L26.387 32.367 27 14Z" style="opacity:.1"/><path d="M15 13h12l-1.4 42H15Z" style="fill:#ed6041"/><path d="M42.696 13H55L24.62 49.59l-2.355-13.58Z" style="fill:#ed6041"/></svg>