<svg xmlns="http://www.w3.org/2000/svg" width="64" height="64"><path d="M32 5c-12.017 0-18.801 5.402-22 11S7 27 7 27v31q0 3 3 3h44q3 0 3-3V27s.199-5.402-3-11S44.017 5 32 5" style="opacity:.2"/><path d="M32 4C19.983 4 13.199 9.402 10 15S7 26 7 26v31q0 3 3 3h44q3 0 3-3V26s.199-5.402-3-11S44.017 4 32 4" style="fill:#b2b2b2"/><path d="M32 4C19.983 4 13.199 9.402 10 15S7 26 7 26v1s-.199-5.402 3-11S19.983 5 32 5s18.801 5.402 22 11 3 11 3 11v-1s.199-5.402-3-11S44.017 4 32 4" style="fill:#fff;opacity:.2"/><path d="M15 32h34v-6s-.2-13-17-13-17 13-17 13z" style="fill:#fff"/><circle cx="31.5" cy="23.5" r="5.5" style="fill:#1b87e6"/><circle cx="31.5" cy="23.5" r="2.5" style="fill:#3f3f3f"/><rect width="56" height="11" x="4" y="33" rx="3" ry="3" style="opacity:.2"/><rect width="56" height="11" x="4" y="32" rx="3" ry="3" style="fill:#e4e4e4"/><path d="M32 46a2.8 2.8 0 0 0-2.8 2.8 2.8 2.8 0 0 0 1.914 2.652L29.2 57.2h5.6l-1.914-5.748A2.8 2.8 0 0 0 34.8 48.8 2.8 2.8 0 0 0 32 46" style="fill:#3f3f3f"/><circle cx="17" cy="38" r="3" style="fill:#3f3f3f"/><circle cx="47" cy="38" r="3" style="fill:#3f3f3f"/><circle cx="37" cy="38" r="3" style="fill:#3f3f3f"/><circle cx="27" cy="38" r="3" style="fill:#3f3f3f"/><path d="M7 32c-1.662 0-3 1.338-3 3v1c0-1.662 1.338-3 3-3h50c1.662 0 3 1.338 3 3v-1c0-1.662-1.338-3-3-3z" style="opacity:.2;fill:#fff"/></svg>