<svg xmlns="http://www.w3.org/2000/svg" width="64" height="64"><path d="M48 61v-6h6v-6h6V17h-6v-6h-6V5H16v6h-6v6H4v32h6v6h6v6z" style="opacity:.2"/><path d="M48 60v-6h6v-6h6V16h-6v-6h-6V4H16v6h-6v6H4v32h6v6h6v6z" style="fill:#e41a00"/><path d="M15 16v34h8l1-6s4 1 6 1 6 0 6-7V16zm29 0v22c0 7.49-2.99 10.654-6.479 12H49V16z" style="opacity:.2"/><path d="M15 15v34h8l1-6s4 1 6 1 6 0 6-7V15zm29 0v22c0 7.49-2.99 10.654-6.479 12H49V15z" style="fill:#fff"/><path d="M16 4v1h32V4zm-6 6v1h6v-1zm38 0v1h6v-1zM4 16v1h6v-1zm50 0v1h6v-1z" style="opacity:.2;fill:#fff"/></svg>