<svg xmlns="http://www.w3.org/2000/svg" width="64" height="64"><rect width="57" height="57" x="-61" y="-61" rx="2.85" ry="2.85" style="opacity:.2" transform="rotate(90)scale(-1 1)"/><rect width="57" height="57" x="-60" y="-61" rx="2.85" ry="2.85" style="fill:#de554c" transform="rotate(90)scale(-1 1)"/><path d="m49.5 21.5-34 20m0-20 34 20" style="fill:none;stroke:#3f3f3f;stroke-width:3"/><path d="M15.5 17a5.5 5.5 0 0 0-5.5 5.5 5.5 5.5 0 0 0 5.5 5.5 5.5 5.5 0 0 0 5.5-5.5 5.5 5.5 0 0 0-5.5-5.5m34 0a5.5 5.5 0 0 0-5.5 5.5 5.5 5.5 0 0 0 5.5 5.5 5.5 5.5 0 0 0 5.5-5.5 5.5 5.5 0 0 0-5.5-5.5m-17 7a8.5 8.5 0 0 0-8.5 8.5 8.5 8.5 0 0 0 8.5 8.5 8.5 8.5 0 0 0 8.5-8.5 8.5 8.5 0 0 0-8.5-8.5m-17 13a5.5 5.5 0 0 0-5.5 5.5 5.5 5.5 0 0 0 5.5 5.5 5.5 5.5 0 0 0 5.5-5.5 5.5 5.5 0 0 0-5.5-5.5m34 0a5.5 5.5 0 0 0-5.5 5.5 5.5 5.5 0 0 0 5.5 5.5 5.5 5.5 0 0 0 5.5-5.5 5.5 5.5 0 0 0-5.5-5.5" style="opacity:.2"/><path d="M15.5 16a5.5 5.5 0 0 0-5.5 5.5 5.5 5.5 0 0 0 5.5 5.5 5.5 5.5 0 0 0 5.5-5.5 5.5 5.5 0 0 0-5.5-5.5m34 0a5.5 5.5 0 0 0-5.5 5.5 5.5 5.5 0 0 0 5.5 5.5 5.5 5.5 0 0 0 5.5-5.5 5.5 5.5 0 0 0-5.5-5.5m-17 7a8.5 8.5 0 0 0-8.5 8.5 8.5 8.5 0 0 0 8.5 8.5 8.5 8.5 0 0 0 8.5-8.5 8.5 8.5 0 0 0-8.5-8.5m-17 13a5.5 5.5 0 0 0-5.5 5.5 5.5 5.5 0 0 0 5.5 5.5 5.5 5.5 0 0 0 5.5-5.5 5.5 5.5 0 0 0-5.5-5.5m34 0a5.5 5.5 0 0 0-5.5 5.5 5.5 5.5 0 0 0 5.5 5.5 5.5 5.5 0 0 0 5.5-5.5 5.5 5.5 0 0 0-5.5-5.5" style="fill:#ffaa4f"/><path d="M6.85 3A2.843 2.843 0 0 0 4 5.85v1C4 5.27 5.27 4 6.85 4h51.3C59.73 4 61 5.27 61 6.85v-1C61 4.27 59.73 3 58.15 3z" style="fill:#fff;opacity:.2"/></svg>