<svg xmlns="http://www.w3.org/2000/svg" width="64" height="64"><path d="M34.525 5.002a20.25 20.25 0 0 0-8.378 1.677c-6.007 2.587-11.012 7.845-14.834 14.43-3.82 6.583-5.909 13.478-5.163 19.928s4.465 12.344 11.663 16.48c7.198 4.134 14.188 4.391 20.174 1.81 5.985-2.583 10.94-7.828 14.76-14.41 3.822-6.586 5.863-13.475 5.092-19.914-.772-6.438-4.482-12.32-11.579-16.484-3.555-2.086-7.08-3.195-10.47-3.456a21 21 0 0 0-1.265-.06" style="opacity:.2"/><path d="M34.525 4.002a20.25 20.25 0 0 0-8.378 1.677c-6.007 2.587-11.012 7.845-14.834 14.43-3.82 6.583-5.909 13.478-5.163 19.928s4.465 12.344 11.663 16.48c7.198 4.134 14.188 4.391 20.174 1.81 5.985-2.583 10.94-7.828 14.76-14.41 3.822-6.586 5.863-13.475 5.092-19.914-.772-6.438-4.482-12.32-11.579-16.484-3.555-2.086-7.08-3.195-10.47-3.456a21 21 0 0 0-1.265-.06" style="fill:#daf8e0"/><path d="M33.463 7.02c-2.105.107-4.124.613-6.067 1.447-5.183 2.225-9.842 6.968-13.464 13.188-3.625 6.226-5.447 12.546-4.805 18.08s3.608 10.39 10.169 14.146c6.56 3.755 12.287 3.875 17.443 1.659 5.155-2.216 9.766-6.944 13.391-13.17 3.622-6.22 5.397-12.517 4.733-18.048S51.22 13.92 44.753 10.137c-3.228-1.888-6.27-2.862-9.155-3.086a17 17 0 0 0-2.135-.03" style="fill:#3aa24e"/><path d="M34.523 7.002q-.535-.007-1.06.02c-2.106.106-4.123.61-6.067 1.445-5.182 2.224-9.842 6.968-13.464 13.19C10.68 27.24 8.885 32.898 9.012 38c.113-4.835 1.879-10.122 4.92-15.344 3.622-6.22 8.282-10.965 13.464-13.19 1.944-.833 3.961-1.338 6.067-1.445a17 17 0 0 1 2.135.03c2.884.224 5.926 1.198 9.154 3.086 6.468 3.782 9.447 8.654 10.111 14.185.072.6.11 1.208.125 1.824.022-.96-.014-1.903-.125-2.824-.664-5.53-3.643-10.403-10.111-14.185-3.228-1.888-6.27-2.862-9.154-3.086q-.54-.042-1.075-.049" style="opacity:.2"/><path d="M33 7.066q-1.53.122-3 .512v10.479l-10.715 6.156-5.117-2.938c-.077.13-.16.25-.236.381q-.651 1.12-1.221 2.24L18 26.934v12.535l-7.846 4.506c.353.926.79 1.828 1.323 2.7l8.158-4.687L30 47.943v9.047a16.7 16.7 0 0 0 3-.297v-8.175l11.283-6.483 4.463 2.563q.714-1.078 1.385-2.227c.064-.11.118-.221.181-.332L46 39.561V26.855l8.455-4.753a17 17 0 0 0-.99-2.887l-8.819 4.959L33 17.482zm-1 13.301 11 6.32v12.625l-11 6.32-11-6.32V26.688z" style="opacity:.2"/><path d="m32 17.638 12.5 7.181v14.362L32 46.362l-12.5-7.181V24.819z" style="fill:none;stroke:#daf8e0;stroke-width:2.99975038"/><path d="m44.219 25.135 10.307-5.797M31.5 18V5.4m0 40.6v12.6M19.62 39.267l-9.602 5.516m34.201-5.516 6.805 3.91M19.62 25.135l-6.806-3.909" style="fill:none;stroke:#daf8e0;stroke-width:3"/><path d="M34.525 4.002a20.3 20.3 0 0 0-8.379 1.676c-6.007 2.587-11.012 7.845-14.833 14.431-3.407 5.871-5.431 11.992-5.301 17.823.107-5.528 2.088-11.287 5.3-16.823 3.822-6.586 8.827-11.844 14.834-14.431a20.26 20.26 0 0 1 9.645-1.615c3.389.261 6.914 1.37 10.469 3.457 7.097 4.164 10.807 10.045 11.578 16.484.087.723.133 1.452.15 2.185a23 23 0 0 0-.15-3.185c-.771-6.439-4.481-12.32-11.578-16.484-3.555-2.086-7.08-3.196-10.469-3.457a21 21 0 0 0-1.266-.061" style="fill:#fff;opacity:.2"/></svg>