<svg xmlns="http://www.w3.org/2000/svg" width="64" height="64"><rect width="57" height="57" x="4" y="4" rx="2.85" ry="2.85" style="opacity:.2"/><rect width="57" height="57" x="4" y="3" rx="2.85" ry="2.85" style="fill:#dad6cd"/><path d="M32.5 50.479v-14.25" style="fill:none;stroke:#4f4f4f;stroke-width:3;stroke-linecap:round"/><path d="M20.7 37.116s-2.85-4.275-2.85-9.975 2.85-8.55 2.85-8.55m23.529 18.525s2.85-4.275 2.85-9.975-2.85-8.55-2.85-8.55" style="fill:none;stroke:#896a2a;stroke-width:5.69999981;stroke-linecap:round"/><circle cx="32.5" cy="25.5" r="12.5" style="opacity:.1"/><circle cx="32.5" cy="24.5" r="12.5" style="fill:#b1a17f"/><path d="M6.85 3A2.843 2.843 0 0 0 4 5.85v1C4 5.27 5.27 4 6.85 4h51.3C59.73 4 61 5.27 61 6.85v-1C61 4.27 59.73 3 58.15 3z" style="fill:#fff;opacity:.2"/></svg>