<svg xmlns="http://www.w3.org/2000/svg" width="64" height="64"><path d="M4.05 32c-.011.335-.05.663-.05 1 0 15.512 12.488 28 28 28a27.94 27.94 0 0 0 27.998-28c0-.337-.039-.664-.05-1-.528 15.042-12.776 27-27.95 27S4.578 47.042 4.05 32" style="opacity:.2"/><rect width="56" height="56" x="4" y="4" rx="27.999" ry="27.999" style="fill:#5db43e"/><path d="M30 13.001v2h2v14h2V13zM20 31v2h23.999v-2zm8 4v10h6v6h2V35h-2v8h-4v-8z" style="opacity:.2"/><path d="M32 4.002C16.488 4.002 4 16.488 4 32c0 .114.011.224.018.336C4.369 17.135 16.71 5 32 5s27.63 12.135 27.982 27.336c.007-.112.018-.223.018-.336A27.94 27.94 0 0 0 32 4.002" style="opacity:.1;fill:#fff"/><path d="M30 12.001v2h2v14h2v-16zM20 30v2h23.999v-2zm8 4v10h6v6h2V34h-2v8h-4v-8z" style="fill:#fff"/></svg>