<svg xmlns="http://www.w3.org/2000/svg" width="64" height="64"><rect width="56" height="56" x="-61" y="-60" rx="2.5" ry="2.5" style="opacity:.2" transform="rotate(90)scale(-1 1)"/><rect width="56" height="56" x="-60" y="-60" rx="2.5" ry="2.5" style="fill:#8e8e8e" transform="rotate(90)scale(-1 1)"/><path d="M32 12a20 20 0 0 0-20 20 20 20 0 0 0 20 20 20 20 0 0 0 20-20 20 20 0 0 0-20-20m0 12a8 8 0 0 1 8 8 8 8 0 0 1-8 8 8 8 0 0 1-8-8 8 8 0 0 1 8-8" style="opacity:.5"/><path d="M6.5 4A2.495 2.495 0 0 0 4 6.5v1C4 6.115 5.115 5 6.5 5h51C58.89 5 60 6.115 60 7.5v-1C60 5.115 58.89 4 57.5 4Z" style="opacity:.2;fill:#fff"/></svg>