<svg xmlns="http://www.w3.org/2000/svg" width="64" height="64"><g style="fill:#8e8e8e"><path d="M-24-58h2v52h-2zm6 0h2v52h-2zm-24 0h2v52h-2zm6 0h2v52h-2zm6 0h2v52h-2zm-18 0h2v52h-2z" style="fill:#8e8e8e" transform="scale(-1)"/><path d="M-24 12h2v40h-2zm6 0h2v40h-2zm6 0h2v40h-2zm-30 0h2v40h-2zm6 0h2v40h-2zm6 0h2v40h-2zm-18 0h2v40h-2zm-6 0h2v40h-2z" style="fill:#8e8e8e" transform="rotate(-90)"/></g><rect width="48" height="36" x="-57" y="-50" rx="2.5" ry="2.5" style="opacity:.2" transform="rotate(90)scale(-1 1)"/><rect width="48" height="36" x="-56" y="-50" rx="2.5" ry="2.5" style="fill:#4f4f4f" transform="rotate(90)scale(-1 1)"/><path d="M16.5 8a2.495 2.495 0 0 0-2.5 2.5v1c0-1.385 1.115-2.5 2.5-2.5h31c1.385 0 2.5 1.115 2.5 2.5v-1C50 9.115 48.885 8 47.5 8z" style="fill:#fff;opacity:.1"/><path d="M14-41h12v2H14zm14 0h6v2h-6zm8 0h14v2H36zm-22 8h16v2H14zm18 0h16v2H32zm-18 8h6v2h-6zm8 0h6v2h-6zm8 0h12v2H30z" style="opacity:.4;fill:#fff" transform="rotate(90)"/></svg>