<svg xmlns="http://www.w3.org/2000/svg" xmlns:xlink="http://www.w3.org/1999/xlink" width="64" height="64"><defs><filter id="c" width="1.18" height="1.17" x="-.09" y="-.085" style="color-interpolation-filters:sRGB"><feGaussianBlur stdDeviation="1.509"/></filter><filter id="d" width="1.095" height="1.089" x="-.048" y="-.045" style="color-interpolation-filters:sRGB"><feGaussianBlur stdDeviation=".834"/></filter><radialGradient xlink:href="#a" id="b" cx="8.715" cy="54.992" r="20.691" fx="8.715" fy="54.992" gradientTransform="matrix(3.16777 0 0 3.3543 -21.221 -129.25)" gradientUnits="userSpaceOnUse"/><linearGradient id="a"><stop offset="0" style="stop-color:#2c985c;stop-opacity:1"/><stop offset="1" style="stop-color:#37b064;stop-opacity:1"/></linearGradient></defs><path d="M37.531-1.354a6 6 0 0 0-.75.058l-4.724.717c-3.046.461-5.344 3.132-5.345 6.213v4.343L24.187 8.37c.097.061-.139-.113-.507-.346-.367-.233-.823-.684-2.245-.795h-.002a4.62 4.62 0 0 0-3.593 1.328l-3.556 3.559c-.899.898-1.36 2.325-1.309 3.395s.406 1.836.797 2.45l1.735 2.725-3.122.694c-.712.159-1.502.449-2.293 1.168-.792.72-1.477 2.052-1.477 3.327v4.443c0 1.275.685 2.607 1.477 3.327.791.72 1.582 1.009 2.296 1.167l3.122.695-1.736 2.72-.002.003c-.392.616-.746 1.383-.797 2.452-.05 1.068.407 2.493 1.309 3.395l3.556 3.556c1.748 1.749 4.73 1.749 6.478 0l-.636.512 2.747-1.75.702 3.164-.088-.812c0 2.477 2.105 4.582 4.583 4.582h5.023c1.269 0 2.6-.678 3.322-1.47.723-.791 1.014-1.586 1.173-2.3l.007-.025.714-3.317 2.537 1.813-.47-.397c1.742 1.742 4.734 1.742 6.476 0l3.559-3.556c.901-.902 1.36-2.327 1.308-3.395-.05-1.069-.404-1.836-.797-2.452l.098.165-.256-.453 2.623-1.036.002-.002c3.27-1.295 4.383-5.658 2.133-8.36v-.003l-7.992-9.588 8.153-10.588.002-.003c2.185-2.841.654-7.287-2.815-8.184L51.883-.998h-.003a6.765 6.765 0 0 0-7.387 2.942l-1.3 2.064c-.148-2.972-2.659-5.41-5.661-5.362Z" style="baseline-shift:baseline;display:inline;overflow:visible;vector-effect:none;fill:url(#b);stroke-width:1.24792;stroke-linecap:round;stroke-linejoin:round;enable-background:accumulate;stop-color:#000" transform="translate(-2.466 6.014)"/><path d="M34.48 10.091a4.5 4.5 0 0 0-.6.047l-3.786.574c-2.44.37-4.282 2.51-4.283 4.979v3.48l-2.024-1.289c.078.05-.11-.09-.406-.277-.294-.186-.66-.548-1.799-.637h-.002a3.7 3.7 0 0 0-2.879 1.064l-2.85 2.852c-.72.72-1.089 1.863-1.048 2.72s.326 1.472.639 1.964l1.39 2.183-2.502.557a3.85 3.85 0 0 0-1.838.935c-.634.577-1.183 1.645-1.183 2.666v3.561c0 1.022.55 2.09 1.183 2.666a3.86 3.86 0 0 0 1.84.936l2.502.556-1.39 2.18-.002.002a3.86 3.86 0 0 0-.639 1.965c-.04.856.326 1.998 1.049 2.72l2.85 2.85c1.4 1.401 3.79 1.401 5.19 0l-.509.41 2.201-1.402.563 2.535-.07-.65c0 1.985 1.686 3.672 3.671 3.672h4.026c1.016 0 2.083-.544 2.662-1.178s.812-1.271.94-1.844l.005-.02.573-2.658 2.033 1.453-.377-.318c1.396 1.396 3.793 1.396 5.19 0l2.85-2.85c.723-.722 1.09-1.864 1.05-2.72a3.86 3.86 0 0 0-.64-1.965l.08.133-.206-.364 2.102-.83.002-.002c2.62-1.037 3.512-4.534 1.709-6.699v-.002l-6.405-7.683 6.533-8.485.002-.002c1.751-2.277.525-5.84-2.255-6.558l-3.641-.942h-.002a5.42 5.42 0 0 0-5.92 2.358l-1.041 1.654c-.119-2.382-2.131-4.336-4.537-4.297" style="baseline-shift:baseline;display:inline;overflow:visible;mix-blend-mode:normal;fill:none;stroke:#000;stroke-width:.2;stroke-linecap:round;stroke-linejoin:round;stroke-dasharray:none;stroke-opacity:1;filter:url(#c);enable-background:accumulate;stop-color:#000" transform="translate(-7.934 -7.934)scale(1.24792)"/><path d="M37.59 2.387a2 2 0 0 0-.248.02l-4.724.716a2.54 2.54 0 0 0-2.162 2.513v28.359a1.677 1.677 0 0 0 2.11 1.618l4.827-1.296a2.85 2.85 0 0 0 2.11-2.752v-9.73a.201.201 0 0 1 .376-.102l7.85 13.161a1.8 1.8 0 0 0 2.214.754l5.625-2.226a1.582 1.582 0 0 0 .634-2.483L47.296 20.25a1.96 1.96 0 0 1-.05-2.447L56.273 6.08a1.444 1.444 0 0 0-.784-2.279l-4.544-1.175a2.99 2.99 0 0 0-3.28 1.307l-7.77 12.364a.21.21 0 0 1-.39-.112V4.267a1.88 1.88 0 0 0-1.914-1.88m-16.51 8.57a.84.84 0 0 0-.593.246l-3.556 3.559c-.328.328-.249.795 0 1.187l3.22 5.055c.254.4.295 1.07.114 1.509l-.095.231c-.174.44-.67.887-1.133.99L13.2 25.033c-.453.1-.841.377-.841.84v4.444c0 .464.388.74.84.84l5.838 1.298c.463.102.96.55 1.138.99l.098.233c.183.437.133 1.112-.122 1.511l-3.22 5.05c-.249.392-.328.862 0 1.19l3.556 3.556a.836.836 0 0 0 1.185 0l5.048-3.215c.4-.254 1.068-.291 1.506-.11q.143.06.278.113c.44.175.887.675.99 1.138l1.293 5.835c0 .464.375.838.839.838h5.023c.464 0 .74-.385.841-.838l1.3-6.037c.099-.464.541-.97.974-1.163q.21-.095.42-.195c.426-.206 1.074-.17 1.46.105l4.935 3.529a.833.833 0 0 0 1.182 0l3.559-3.556c.328-.328.249-.798 0-1.19l-1.884-3.324c-.8.295-1.654-.05-2.135-.695-.087-.116-.202-.323-.276-.448l-1.56-2.657c-.074-.125-.177-.118-.236.015-1.651 3.724-5.076 6.489-9.204 7.217-1.187.21-3.163.21-4.35 0-5.834-1.03-10.266-6.124-10.266-12.253 0-5.273 3.285-9.768 7.916-11.58.01-.41.001-1.14-.007-1.701-.006-.385-.305-.595-.663-.453q-.293.116-.583.239c-.354.15-.901.109-1.226-.098l-4.67-2.976c-.277-.177-.712-.541-1.033-.565z" style="fill:#fff;fill-opacity:1;stroke-width:1.24792" transform="translate(-2.466 6.014)"/><path d="M37.59 2.387a2 2 0 0 0-.248.02l-4.724.717a2.54 2.54 0 0 0-2.162 2.512v28.359a1.677 1.677 0 0 0 2.111 1.618l4.826-1.296a2.85 2.85 0 0 0 2.11-2.752v-9.73a.201.201 0 0 1 .376-.102l7.85 13.161a1.8 1.8 0 0 0 2.214.754l5.625-2.226a1.582 1.582 0 0 0 .634-2.483L47.296 20.25a1.96 1.96 0 0 1-.049-2.447L56.273 6.08a1.444 1.444 0 0 0-.785-2.279l-4.543-1.175a2.99 2.99 0 0 0-3.28 1.307l-7.771 12.364a.21.21 0 0 1-.39-.112V4.267a1.88 1.88 0 0 0-1.913-1.88Zm-16.51 8.57a.84.84 0 0 0-.592.246l-3.556 3.559c-.329.328-.25.795 0 1.187l3.22 5.055c.254.4.294 1.07.114 1.509l-.095.231c-.174.44-.671.887-1.134.99L13.2 25.033c-.453.1-.84.377-.84.84v4.444c0 .464.387.74.84.84l5.837 1.298c.463.102.96.55 1.139.99l.097.233c.183.437.133 1.112-.122 1.511l-3.22 5.05c-.249.392-.328.862 0 1.19l3.557 3.556a.836.836 0 0 0 1.184 0l5.048-3.215c.4-.254 1.069-.291 1.506-.11l.278.113c.44.175.887.675.99 1.138l1.294 5.835c0 .464.374.838.838.838h5.024c.464 0 .74-.385.84-.838l1.3-6.037c.1-.464.542-.97.975-1.163q.21-.094.419-.195c.427-.206 1.074-.17 1.46.105l4.936 3.529a.833.833 0 0 0 1.182 0l3.558-3.556c.328-.328.25-.798 0-1.19l-1.884-3.324c-.799.295-1.653-.05-2.135-.695-.087-.116-.202-.323-.275-.448l-1.56-2.657c-.074-.125-.178-.118-.237.015a12.46 12.46 0 0 1-9.203 7.217c-1.188.21-3.163.21-4.35 0-5.835-1.03-10.267-6.124-10.267-12.253 0-5.273 3.285-9.768 7.916-11.58.01-.41.001-1.14-.007-1.701-.006-.385-.305-.595-.663-.453q-.293.116-.582.239c-.354.15-.902.109-1.226-.098l-4.67-2.976c-.278-.177-.712-.541-1.034-.565z" style="fill:none;fill-opacity:1;stroke:#06ff00;stroke-width:.2;stroke-dasharray:none;stroke-opacity:1;filter:url(#d)" transform="translate(-2.466 6.014)"/></svg>