<svg xmlns="http://www.w3.org/2000/svg" xmlns:xlink="http://www.w3.org/1999/xlink" width="64" height="64"><defs><radialGradient id="a" cx="-159.431" cy="15.463" r="64.707" fx="-159.431" fy="15.463" gradientTransform="matrix(-.89413 0 0 .96305 -80.754 49.33)" gradientUnits="userSpaceOnUse"><stop offset="0" style="stop-color:#006fff;stop-opacity:1"/><stop offset="1" style="stop-color:#15baff;stop-opacity:1"/></radialGradient><radialGradient xlink:href="#a" id="c" cx="63.88" cy="77.955" r="28" fx="63.88" fy="77.955" gradientTransform="matrix(0 -2.27216 2.27952 0 -113.82 208.997)" gradientUnits="userSpaceOnUse"/><radialGradient xlink:href="#b" id="e" cx="1.564" cy="71.131" r="22.642" fx="1.564" fy="71.131" gradientTransform="matrix(3.6805 0 0 2.54407 -4.193 -121.605)" gradientUnits="userSpaceOnUse"/><filter id="d" width="1.142" height="1.203" x="-.071" y="-.102" style="color-interpolation-filters:sRGB"><feGaussianBlur stdDeviation="1.61"/></filter><filter id="f" width="1.092" height="1.133" x="-.046" y="-.067" style="color-interpolation-filters:sRGB"><feGaussianBlur stdDeviation=".827"/></filter><linearGradient id="b"><stop offset="0" style="stop-color:#e2e2e2;stop-opacity:1"/><stop offset="1" style="stop-color:#fff;stop-opacity:1"/></linearGradient></defs><path d="M32 12C16.536 12 4 24.336 4 39.8a28 28 0 0 0 1.448 8.818C5.896 49.955 7.512 51 8.922 51h46.156c1.41 0 3.026-1.045 3.474-2.382A28 28 0 0 0 60 39.8C60 24.336 47.464 12 32 12" style="fill:url(#c)"/><path d="M32 12C16.536 12 4 24.336 4 39.8a28 28 0 0 0 1.448 8.818C5.896 49.955 7.512 51 8.922 51h46.156c1.41 0 3.026-1.045 3.474-2.382A28 28 0 0 0 60 39.8C60 24.336 47.464 12 32 12Z" style="fill:none;stroke:#000;stroke-opacity:1;stroke-width:.2;stroke-dasharray:none;filter:url(#d)"/><path d="M31.88 17.35c-12.224.064-22.226 9.875-22.525 22.097a2.16 2.16 0 0 0 2.098 2.201 2.16 2.16 0 0 0 2.203-2.097 18.316 18.316 0 0 1 18.248-17.9 18.316 18.316 0 0 1 18.434 17.708 2.16 2.16 0 0 0 2.223 2.075h.002a2.16 2.16 0 0 0 2.074-2.223v-.002c-.427-12.218-10.53-21.923-22.756-21.86m12.679 12a2.05 2.05 0 0 0-1.566.771v.002l-8.57 10.772c-.753-.275-1.538-.545-2.423-.545-2.59 0-6.473 1.532-7.431 6.08-.254 1.206.781 2.22 2.016 2.22 1.14 0 1.975-1.063 2.481-2.18.525-1.156 1.533-1.82 2.934-1.82 1.366 0 2.328.725 2.862 1.835.53 1.105 1.488 2.165 2.723 2.165 1.14 0 2.163-1.026 1.85-2.215-.302-1.153-.884-2.216-1.634-3.218l8.406-10.572a2.035 2.035 0 0 0-.34-2.86v-.002h-.002a2.05 2.05 0 0 0-1.306-.433" style="baseline-shift:baseline;display:inline;overflow:visible;vector-effect:none;fill:url(#e);stroke-linecap:round;enable-background:accumulate;stop-color:#000"/><path d="M31.88 17.35c-12.224.064-22.226 9.875-22.525 22.097a2.16 2.16 0 0 0 2.098 2.201 2.16 2.16 0 0 0 2.203-2.097 18.316 18.316 0 0 1 18.248-17.9 18.316 18.316 0 0 1 18.434 17.708 2.16 2.16 0 0 0 2.223 2.075h.002a2.16 2.16 0 0 0 2.074-2.223v-.002c-.427-12.218-10.53-21.923-22.756-21.86m12.679 12a2.05 2.05 0 0 0-1.566.771v.002l-8.57 10.772c-.753-.275-1.538-.545-2.423-.545-2.59 0-6.473 1.532-7.431 6.08-.254 1.206.781 2.22 2.016 2.22 1.14 0 1.975-1.063 2.481-2.18.525-1.156 1.533-1.82 2.934-1.82 1.366 0 2.328.725 2.862 1.835.53 1.105 1.488 2.165 2.723 2.165 1.14 0 2.163-1.026 1.85-2.215-.302-1.153-.884-2.216-1.634-3.218l8.406-10.572a2.035 2.035 0 0 0-.34-2.86v-.002h-.002a2.05 2.05 0 0 0-1.306-.433" style="baseline-shift:baseline;display:inline;overflow:visible;fill:none;stroke-linecap:round;enable-background:accumulate;stop-color:#000;stroke:#0d00ff;stroke-opacity:1;stroke-width:.2;stroke-dasharray:none;stroke-linejoin:round;filter:url(#f)"/></svg>