<svg xmlns="http://www.w3.org/2000/svg" width="64" height="64"><rect width="54" height="54" x="-61" y="-57" rx="2.7" ry="2.7" style="opacity:.2" transform="rotate(90)scale(-1 1)"/><rect width="54" height="54" x="-60" y="-57" rx="2.7" ry="2.7" style="fill:#e4e4e4" transform="rotate(90)scale(-1 1)"/><path d="M19 6v16H3v2h16v18H3v2h16v16h2V44h18v16h2V44h16v-2H41V24h16v-2H41V6h-2v16H21V6zm2 18h18v18H21z" style="opacity:.3"/><path d="M5.7 6A2.693 2.693 0 0 0 3 8.7v1C3 8.202 4.203 7 5.7 7h48.6C55.798 7 57 8.203 57 9.7v-1C57 7.202 55.797 6 54.3 6z" style="opacity:.2;fill:#fff"/><path d="M20.103 23.564 39.436 6.806h16.758v16.758L39.436 42.897Z" style="fill:none;stroke:#003dd4;stroke-width:1.48717916px"/><path d="M40 3a5 5 0 0 0-5 5 5 5 0 0 0 5 5 5 5 0 0 0 5-5 5 5 0 0 0-5-5m16 0a5 5 0 0 0-5 5 5 5 0 0 0 5 5 5 5 0 0 0 5-5 5 5 0 0 0-5-5M20 19a5 5 0 0 0-5 5 5 5 0 0 0 5 5 5 5 0 0 0 5-5 5 5 0 0 0-5-5m20 0a5 5 0 0 0-5 5 5 5 0 0 0 5 5 5 5 0 0 0 5-5 5 5 0 0 0-5-5m16 0a5 5 0 0 0-5 5 5 5 0 0 0 5 5 5 5 0 0 0 5-5 5 5 0 0 0-5-5M20 39a5 5 0 0 0-5 5 5 5 0 0 0 5 5 5 5 0 0 0 5-5 5 5 0 0 0-5-5m20 0a5 5 0 0 0-5 5 5 5 0 0 0 5 5 5 5 0 0 0 5-5 5 5 0 0 0-5-5" style="opacity:.1"/><g transform="matrix(2 0 0 2 -1 0)"><circle cx="20.5" cy="11.5" r="2.5" style="fill:#ef533a"/><circle cx="10.5" cy="21.5" r="2.5" style="fill:#ef533a"/><circle cx="10.5" cy="11.5" r="2.5" style="fill:#5284ff"/><circle cx="20.5" cy="3.5" r="2.5" style="fill:#5284ff"/><circle cx="28.5" cy="3.5" r="2.5" style="fill:#5284ff"/><circle cx="28.5" cy="11.5" r="2.5" style="fill:#5284ff"/><circle cx="20.5" cy="21.5" r="2.5" style="fill:#5284ff"/></g><path d="M40 2a5 5 0 0 0-5 5 5 5 0 0 0 5 5 5 5 0 0 0 5-5 5 5 0 0 0-5-5m16 0a5 5 0 0 0-5 5 5 5 0 0 0 5 5 5 5 0 0 0 5-5 5 5 0 0 0-5-5M20 18a5 5 0 0 0-5 5 5 5 0 0 0 5 5 5 5 0 0 0 5-5 5 5 0 0 0-5-5m20 0a5 5 0 0 0-5 5 5 5 0 0 0 5 5 5 5 0 0 0 5-5 5 5 0 0 0-5-5m16 0a5 5 0 0 0-5 5 5 5 0 0 0 5 5 5 5 0 0 0 5-5 5 5 0 0 0-5-5M20 38a5 5 0 0 0-5 5 5 5 0 0 0 5 5 5 5 0 0 0 5-5 5 5 0 0 0-5-5m20 0a5 5 0 0 0-5 5 5 5 0 0 0 5 5 5 5 0 0 0 5-5 5 5 0 0 0-5-5" style="fill:none"/></svg>