<svg xmlns="http://www.w3.org/2000/svg" width="64" height="64"><path d="M4 56v2c0 1.662 1.338 3 3 3h50c1.662 0 3-1.338 3-3v-2c0 1.662-1.338 3-3 3H7c-1.662 0-3-1.338-3-3" style="opacity:.2"/><rect width="56" height="56" x="4" y="4" rx="3" ry="3" style="fill:#3b709f"/><path d="M30 19a10 10 0 0 1-10 10 10 10 0 0 1-10-10A10 10 0 0 1 20 9a10 10 0 0 1 10 10m24 0a10 10 0 0 1-10 10 10 10 0 0 1-10-10A10 10 0 0 1 44 9a10 10 0 0 1 10 10m0 28a10 10 0 0 1-10 10 10 10 0 0 1-10-10 10 10 0 0 1 10-10 10 10 0 0 1 10 10" style="opacity:.2"/><path d="M30 18a10 10 0 0 1-10 10 10 10 0 0 1-10-10A10 10 0 0 1 20 8a10 10 0 0 1 10 10" style="fill:#fff"/><path d="M54 18a10 10 0 0 1-10 10 10 10 0 0 1-10-10A10 10 0 0 1 44 8a10 10 0 0 1 10 10" style="fill:#ff6756"/><path d="M30 46a10 10 0 0 1-10 10 10 10 0 0 1-10-10 10 10 0 0 1 10-10 10 10 0 0 1 10 10" style="fill:#4d4d4d"/><path d="M54 46a10 10 0 0 1-10 10 10 10 0 0 1-10-10 10 10 0 0 1 10-10 10 10 0 0 1 10 10" style="fill:#ff6756"/><path d="M7 4C5.338 4 4 5.338 4 7v1c0-1.662 1.338-3 3-3h50c1.662 0 3 1.338 3 3V7c0-1.662-1.338-3-3-3z" style="opacity:.1;fill:#fff"/></svg>