<svg xmlns="http://www.w3.org/2000/svg" width="64" height="64"><path d="M6 54.398v2A2.6 2.6 0 0 0 8.602 59h46.796A2.6 2.6 0 0 0 58 56.398v-2A2.6 2.6 0 0 1 55.398 57H8.602A2.6 2.6 0 0 1 6 54.398" style="opacity:.2"/><rect width="52" height="52" x="-58" y="-58" rx="2.6" ry="2.6" style="fill:#4e91d9" transform="rotate(90)scale(-1 1)"/><path d="M12 34h8v2h-8z" style="fill:#fff"/><path d="m43 10 .667 1.734 1.739-.546-.906 1.617L46 13.86l-1.797.281.132 1.86L43 14.734 41.665 16l.132-1.86L40 13.86l1.5-1.054-.906-1.617 1.738.546z" style="fill:#ffeb5d"/><path d="M-46-44h8v2h-8z" style="fill:#742424" transform="scale(-1)"/><path d="M-38-44h8v2h-8z" style="fill:#ad3131" transform="scale(-1)"/><path d="M-30-44h8v2h-8z" style="fill:#742424" transform="scale(-1)"/><path d="M-22-44h8v2h-8z" style="fill:#ad3131" transform="scale(-1)"/><path d="M-14-44h8v2h-8z" style="fill:#742424" transform="scale(-1)"/><path d="M58 44h-4v-2h4z" style="fill:#742424"/><path d="M-42-46h8v2h-8z" style="fill:#ad3131" transform="scale(-1)"/><path d="M-34-46h8v2h-8z" style="fill:#742424" transform="scale(-1)"/><path d="M-26-46h8v2h-8z" style="fill:#ad3131" transform="scale(-1)"/><path d="M-18-46h8v2h-8z" style="fill:#742424" transform="scale(-1)"/><path d="M10 46H6v-2h4z" style="fill:#ad3131"/><path d="M-54-44h8v2h-8zm-4-2h8v2h-8z" style="fill:#ad3131" transform="scale(-1)"/><path d="M-50-46h8v2h-8z" style="fill:#742424" transform="scale(-1)"/><path d="M22 20h4v2h-4z" style="fill:#742424"/><path d="M26 20h8v2h-8z" style="fill:#ad3131"/><path d="M34 20h8v2h-8z" style="fill:#742424"/><path d="M42 20h8v2h-8z" style="fill:#ad3131"/><path d="M50 20h8v2h-8zM6 20h4v2H6z" style="fill:#742424"/><path d="M22 18h8v2h-8z" style="fill:#ad3131"/><path d="M30 18h8v2h-8z" style="fill:#742424"/><path d="M38 18h8v2h-8z" style="fill:#ad3131"/><path d="M46 18h8v2h-8z" style="fill:#742424"/><path d="M54 18h4v2h-4zM6 18h4v2H6z" style="fill:#ad3131"/><path d="M12 16h2v24h-2zm6 0h2v24h-2z" style="fill:#fff"/><path d="M12 26h8v2h-8zm0-8h8v2h-8z" style="fill:#fff"/><path d="M8.602 6A2.597 2.597 0 0 0 6 8.602v1A2.597 2.597 0 0 1 8.602 7h46.796A2.597 2.597 0 0 1 58 9.602v-1A2.597 2.597 0 0 0 55.398 6z" style="opacity:.2;fill:#fff"/></svg>