<svg xmlns="http://www.w3.org/2000/svg" width="64" height="64"><rect width="58" height="58" x="-61" y="4" rx="17.4" ry="17.4" style="opacity:.2" transform="scale(-1 1)"/><rect width="58" height="58" x="-61" y="3" rx="17.4" ry="17.4" style="fill:#ff6363" transform="scale(-1 1)"/><path d="m45.05 45.05 10.864 10.864A17.34 17.34 0 0 1 43.6 61H20.4c-4.82 0-9.169-1.941-12.314-5.086L18.95 45.05H32Z" style="opacity:.3"/><path d="M8.086 8.086 18.95 18.95v26.1L8.086 55.914A17.34 17.34 0 0 1 3 43.6V20.4c0-4.82 1.941-9.169 5.086-12.314m47.828 0A17.34 17.34 0 0 1 61 20.4v23.2c0 4.82-1.941 9.169-5.086 12.314L45.05 45.05v-26.1Z" style="opacity:.15"/><rect width="42" height="42" x="-53" y="12" rx="9.001" ry="9.001" style="opacity:.2" transform="scale(-1 1)"/><rect width="42" height="42" x="-53" y="11" rx="9.001" ry="9.001" style="fill:#eceeeb" transform="scale(-1 1)"/><path d="M45 19v26h-6V35H25v10h-6V19h6v10h14V19z" style="fill:#4f4f4f"/><path d="M20.398 3A17.36 17.36 0 0 0 3 20.398v1A17.36 17.36 0 0 1 20.398 4h23.204A17.36 17.36 0 0 1 61 21.398v-1A17.36 17.36 0 0 0 43.602 3z" style="opacity:.2;fill:#fff"/></svg>