<svg xmlns="http://www.w3.org/2000/svg" width="64" height="64"><path d="M4.05 32c-.011.335-.05.663-.05 1 0 15.512 12.488 28 28 28a27.94 27.94 0 0 0 27.998-28c0-.337-.039-.664-.05-1-.528 15.042-12.776 27-27.95 27S4.578 47.042 4.05 32" style="opacity:.2"/><rect width="56" height="56" x="4" y="4" rx="27.999" ry="27.999" style="fill:#1da6e8"/><path d="M32 4.002C16.488 4.002 4 16.488 4 32c0 .113.011.224.018.336C4.369 17.135 16.71 5 32 5s27.63 12.135 27.982 27.336c.007-.112.018-.223.018-.336A27.94 27.94 0 0 0 32 4.002" style="opacity:.1;fill:#fff"/><path d="M6 9v14h3v-4.199L13 23h3l-5-7 5-7h-3l-4 4.199V9Zm11 3v5h8v-5h-2v3h-1v-3h-2v3h-1v-3zm0 6v2h8v-2zm0 3v2h2v-2zm3 0v2h5v-2z" style="opacity:.2" transform="translate(2 1.001)scale(1.99994)"/><path d="M6 9v14h3v-4.199L13 23h3l-5-7 5-7h-3l-4 4.199V9Zm11 3v5h8v-5h-2v3h-1v-3h-2v3h-1v-3zm0 6v2h8v-2zm0 3v2h2v-2zm3 0v2h5v-2z" style="fill:#fff" transform="translate(2 .002)scale(1.99994)"/></svg>