<svg xmlns="http://www.w3.org/2000/svg" width="64" height="64"><path d="M4 56v2c0 1.662 1.338 3 3 3h50c1.662 0 3-1.338 3-3v-2c0 1.662-1.338 3-3 3H7c-1.662 0-3-1.338-3-3" style="opacity:.2"/><rect width="56" height="56" x="4" y="4" rx="3" ry="3" style="fill:#c2352a"/><path d="M7 4C5.338 4 4 5.338 4 7v1c0-1.662 1.338-3 3-3h50c1.662 0 3 1.338 3 3V7c0-1.662-1.338-3-3-3z" style="opacity:.1;fill:#fff"/><circle cx="48" cy="49" r="8" style="opacity:.2"/><circle cx="32" cy="33" r="8" style="opacity:.2"/><circle cx="32" cy="32" r="8" style="fill:#ff9cff"/><circle cx="48" cy="48" r="8" style="fill:#fff"/><circle cx="16" cy="17" r="8" style="opacity:.2"/><circle cx="16" cy="16" r="8" style="fill:#fff"/></svg>