<svg xmlns="http://www.w3.org/2000/svg" xmlns:xlink="http://www.w3.org/1999/xlink" width="64" height="64"><defs><radialGradient xlink:href="#a" id="d" cx="63.906" cy="71.421" r="23.87" fx="63.906" fy="71.421" gradientTransform="matrix(0 -2.94155 2.94059 0 -142.91 255.042)" gradientUnits="userSpaceOnUse"/><radialGradient xlink:href="#b" id="e" cx="63.957" cy="73.009" r="20.968" fx="63.957" fy="73.009" gradientTransform="matrix(0 -3.3438 3.3584 0 -178.03 281.032)" gradientUnits="userSpaceOnUse"/><linearGradient id="b"><stop offset="0" style="stop-color:#131313;stop-opacity:1"/><stop offset="1" style="stop-color:#343434;stop-opacity:1"/></linearGradient><linearGradient id="a"><stop offset="0" style="stop-color:#9b9b9b;stop-opacity:1"/><stop offset="1" style="stop-color:#e9e9e9;stop-opacity:1"/></linearGradient><filter id="f" width="1.215" height="1.266" x="-.108" y="-.133" style="color-interpolation-filters:sRGB"><feGaussianBlur stdDeviation="2.312"/></filter><filter id="c" width="1.124" height="1.157" x="-.062" y="-.078" style="color-interpolation-filters:sRGB"><feGaussianBlur stdDeviation="1.264"/></filter></defs><path d="M22.486 12.668c-5.96.084-11.254 3.283-13.629 8.057-2.33 4.684-1.541 10.853 3.838 16.35l2.752 6.984c.051.195-.07 1.49-.324 2.738-.128.626-.257 1.259-.31 1.889-.054.63-.126 1.312.408 2.072a1.35 1.35 0 0 0 2.3-.147c.513-.974.773-1.978 1.03-2.675.068-.186.115-.256.176-.383.836.43 1.692.861 2.466 1.187 1.105.465 2.027.94 2.59 1.531.69.725 1.9.475 2.246-.464.205-.558.052-1.156-.115-1.703a1.35 1.35 0 0 0 .912-.9c.113-.441.015-.872-.06-1.3.16.03.324.094.48.127 1.234.264 2.126.786 2.1.744.678 1.065 2.316.7 2.478-.552 1.995-5.521 4.828 4.459 11.217 4.365 4.984-.073 9.055-4.07 9.055-9.055a9 9 0 0 0-.711-3.5c.643.974 1.358 1.967 1.717 2.863a1.35 1.35 0 0 0 1.763.75c.81-.33 1.471-1.217 1.55-2.046.077-.83-.176-1.535-.517-2.246-.68-1.424-1.863-2.931-3.236-4.485-2.547-2.882-5.548-5.585-7.219-7.055.35-1.977-.435-3.998-1.81-5.552-1.599-1.807-3.992-3.137-6.67-3.192-.985-.02-1.888.248-2.75.584-3.8-3.289-7.606-5.045-11.727-4.986m14.135 11.78.002.001v.008h-.002z" style="baseline-shift:baseline;display:inline;overflow:visible;vector-effect:none;fill:#fff;stroke-linecap:round;stroke-linejoin:round;enable-background:accumulate;stop-color:#000;filter:url(#c);fill-opacity:1"/><path d="M22.455 10.773c-6.628.093-12.57 3.62-15.3 9.108-2.615 5.257-1.588 12.224 3.843 18.071l2.554 6.483-.009-.009-.002-.002-.004-.002h-.009l-.002.002h-.003v.002l-.002.003c-.073.088-.064 1.029-.26 1.988-.13.633-.276 1.31-.344 2.109s-.286 1.853.746 3.323c1.396 1.988 4.4 1.795 5.53-.355.308-.584.362-.883.532-1.36.22.088.528.27.726.354 1.05.442 1.72.846 1.954 1.092 1.66 1.74 4.568 1.137 5.398-1.12.236-.641.268-1.393.185-2.126q.166-.144.311-.31c1.736 1.552 4.492.826 5.239-1.38 1.862 3.416 5.363 5.84 9.497 5.84 5.353 0 9.653-3.992 10.573-9.096a3.25 3.25 0 0 0 1.967.015c1.315-.536 2.59-2.222 2.721-3.626s-.272-2.365-.692-3.241c-.838-1.754-2.1-3.308-3.527-4.923-2.365-2.676-4.796-4.839-6.593-6.444.086-2.328-.983-4.524-2.435-6.165-1.925-2.176-4.75-3.761-8.053-3.829a8.4 8.4 0 0 0-2.452.327c-3.778-3.02-7.786-4.79-12.089-4.729" style="baseline-shift:baseline;display:inline;overflow:visible;vector-effect:none;fill:url(#d);fill-opacity:1;stroke-width:1.10057;stroke-linecap:round;stroke-linejoin:round;enable-background:accumulate;stop-color:#000;opacity:.93954934"/><path d="M22.5 14.019c-10.97.154-19.329 11.861-8.612 22.41l2.854 7.243c.475 1.653-1.135 5.294-.421 6.31.822-1.56 1.027-3.792 2.11-4.051 1.909 1.3 4.73 1.737 6.325 3.409.596-1.62-1.822-2.45-3.846-3.377 1.893.303 3.2-.682 4.602.905.206-.804-.054-1.417-.601-1.915l-.854-1.124c1.582.808 5.52.802 6.423 2.22.35-2.684-2.961-1.767-4.523-2.569 1.012.121 2.021-.363 3.023-.23-.27-.752-.73-1.08-1.413-1.023-5.374 1.233-5.753-7.508-5.679-9.989 1.747-.713 3.47-1.26 5.161-1.272 5.297-.038 10.061 2.386 14.46-1.462 1.9-2.732 10.425 4.847 12.842 10.892 3.61-1.472-7.371-11.513-10.363-14.112 1.283-3.282-2.588-7.772-7.057-7.863-.976-.02-1.98.305-2.966.765-3.87-3.539-7.496-5.224-11.464-5.167m16.131 7.704a2.2 2.2 0 0 1 2.203 2.199v.002a2.225 2.179 0 0 1-.135.77 1.39 1.36 0 0 0 .02-.235 1.377 1.377 0 1 0-2.751 0 1.39 1.36 0 0 0 1.373 1.374 1.39 1.36 0 0 0 .59-.134 2.225 2.179 0 0 1-1.3.426 2.225 2.179 0 0 1-2.199-2.201 2.2 2.2 0 0 1 2.2-2.201m4.405 12.106a7.704 7.704 0 0 0-7.704 7.704 7.704 7.704 0 0 0 7.704 7.704 7.704 7.704 0 0 0 7.704-7.704 7.704 7.704 0 0 0-7.704-7.704M19.59 35.712c.527-.01.95.264 1.034.832l1.167 5.367c-.629.175-.901.78-.778 1.875.267-.303.375-.82.99-.654l1.444 1.789c-4.916.37-5.293-2.302-6.146-6.724.257-1.641 1.414-2.467 2.29-2.485" style="fill:url(#e);stroke-width:1.10057"/><path d="M22.404 10.772c-6.628.093-12.57 3.62-15.3 9.108-2.616 5.257-1.588 12.223 3.843 18.07l2.55 6.479-.005-.004-.002-.002-.004-.002h-.01l-.002.002h-.002v.002l-.002.002c-.073.088-.063 1.029-.26 1.988-.129.633-.276 1.311-.343 2.11-.068.797-.288 1.854.744 3.324 1.396 1.987 4.4 1.794 5.531-.356.308-.584.362-.884.532-1.361.219.088.528.272.726.355 1.05.442 1.718.846 1.953 1.092 1.66 1.74 4.569 1.137 5.399-1.12.236-.64.269-1.393.185-2.126q.166-.144.31-.309c1.737 1.551 4.492.824 5.24-1.38 1.862 3.414 5.364 5.837 9.497 5.837 5.353 0 9.652-3.99 10.572-9.093a3.25 3.25 0 0 0 1.967.013c1.315-.536 2.591-2.221 2.723-3.625s-.274-2.365-.693-3.242c-.84-1.754-2.1-3.306-3.528-4.922-2.365-2.676-4.795-4.84-6.592-6.445.087-2.327-.983-4.523-2.435-6.164-1.925-2.176-4.75-3.76-8.053-3.828a8.4 8.4 0 0 0-2.453.326c-3.777-3.021-7.785-4.79-12.088-4.729m.045 3.245c3.968-.057 7.595 1.629 11.465 5.167.986-.46 1.99-.785 2.967-.765 4.469.09 8.34 4.582 7.057 7.863C46.929 28.881 57.91 38.924 54.3 40.395 51.884 34.35 43.359 26.77 41.459 29.503c-4.399 3.848-9.164 1.423-14.46 1.46-1.692.013-3.414.561-5.161 1.274-.074 2.48.303 11.221 5.678 9.988.683-.056 1.142.272 1.412 1.024-1.002-.134-2.01.351-3.022.23 1.562.802 4.873-.115 4.524 2.569-.904-1.418-4.842-1.412-6.424-2.22l.853 1.124c.547.498.807 1.11.602 1.914-1.402-1.587-2.709-.601-4.602-.904 2.024.927 4.442 1.756 3.846 3.377-1.595-1.672-4.416-2.111-6.324-3.41-1.084.259-1.29 2.491-2.111 4.052-.714-1.017.897-4.656.421-6.31l-2.855-7.242C3.12 25.879 11.479 14.17 22.449 14.017m16.131 7.705a2.2 2.2 0 0 0-2.2 2.2 2.225 2.179 0 0 0 2.2 2.202 2.225 2.179 0 0 0 1.3-.426 1.39 1.36 0 0 1-.59.133 1.39 1.36 0 0 1-1.374-1.373 1.377 1.377 0 1 1 2.753 0 1.39 1.36 0 0 1-.02.234 2.225 2.179 0 0 0 .134-.77v-.001c0-1.214-.986-2.2-2.203-2.2m4.404 12.105a7.704 7.704 0 0 1 7.706 7.705 7.704 7.704 0 0 1-7.706 7.703 7.704 7.704 0 0 1-7.703-7.703 7.704 7.704 0 0 1 7.703-7.705M19.537 35.71c-.875.018-2.032.845-2.289 2.486.853 4.422 1.231 7.093 6.147 6.723l-1.446-1.787c-.613-.167-.72.35-.988.652-.123-1.094.148-1.7.777-1.875l-1.168-5.367c-.084-.568-.506-.842-1.033-.832" style="baseline-shift:baseline;display:inline;overflow:visible;fill:none;fill-opacity:1;stroke-width:.2;stroke-linecap:round;stroke-linejoin:round;enable-background:accumulate;stop-color:#000;stroke:#000;stroke-opacity:1;stroke-dasharray:none;filter:url(#f)"/></svg>