<svg xmlns="http://www.w3.org/2000/svg" width="64" height="64"><circle cx="32" cy="33" r="28" style="opacity:.2"/><circle cx="32" cy="32" r="28" style="fill:#ffb129"/><path d="M14 19a4 4 0 0 0-4 4v34a4 4 0 0 0 4 4 4 4 0 0 0 4-4V44.523l13.156 13.29a4 4 0 0 0 5.657.03 4 4 0 0 0 .03-5.655l-13.5-13.645 13.141-10.406a4 4 0 0 0 .653-5.621A4 4 0 0 0 34.035 21a4 4 0 0 0-2.52.863L18 32.574V23a4 4 0 0 0-4-4" style="opacity:.1"/><path d="M14 22v34m20-32L14.084 39.776M34 54 14.426 34.22" style="fill:none;stroke:#5c3d1c;stroke-width:8;stroke-linecap:round;stroke-linejoin:round"/><path d="M49.376 46.848q0 .702.562.975.6.234 2.124.234h3.889c.882-1.014 1.684-2.343 2.405-4.24q.482-.078.722-.078.28 0 .922.078L58.517 51H42l.24-1.442c1.417-.182 2.553-1.242 3.408-1.735l3.488-20.367q-1.283-.741-3.448-1.014l.2-1.442h10.785l-.2 1.442q-2.566.312-3.81 1.014l-3.126 18.34q-.16.857-.16 1.052" style="opacity:.2"/><path d="M49.376 45.848q0 .702.562.975.6.234 2.124.234h3.889c.882-1.014 1.684-2.343 2.405-4.24q.482-.078.722-.078.28 0 .922.078L58.517 50H42l.24-1.442c1.417-.182 2.553-1.242 3.408-1.735l3.488-20.367q-1.283-.741-3.448-1.014l.2-1.442h10.785l-.2 1.442q-2.566.312-3.81 1.014l-3.126 18.34q-.16.857-.16 1.052" style="fill:#fff"/><path d="M32 4A28 28 0 0 0 4 32a28 28 0 0 0 .006.49A28 28 0 0 1 32 5a28 28 0 0 1 27.994 27.488A28 28 0 0 0 60 32 28 28 0 0 0 32 4" style="opacity:.2;fill:#fff"/></svg>