<svg xmlns="http://www.w3.org/2000/svg" xmlns:xlink="http://www.w3.org/1999/xlink" width="64" height="64"><defs><filter id="d" width="1.358" height="1.304" x="-.179" y="-.152" style="color-interpolation-filters:sRGB"><feGaussianBlur stdDeviation="2.541"/></filter><filter id="c" width="1.248" height="1.217" x="-.124" y="-.109" style="color-interpolation-filters:sRGB"><feGaussianBlur stdDeviation="2.316"/></filter><radialGradient xlink:href="#a" id="b" cx="15.381" cy="43.013" r="23.044" fx="15.381" fy="43.013" gradientTransform="rotate(75 132.367 67.454)scale(3.6395 3.93248)" gradientUnits="userSpaceOnUse"/><linearGradient id="a"><stop offset="0" style="stop-color:#00dbff;stop-opacity:1"/><stop offset="1" style="stop-color:#0093ff;stop-opacity:1"/></linearGradient></defs><path d="M16.2 5.75a6.917 6.917 0 0 0-6.934 6.93v38.73a6.92 6.92 0 0 0 6.933 6.934h32.22a6.92 6.92 0 0 0 6.935-6.934V12.68a6.917 6.917 0 0 0-6.934-6.93z" style="fill:url(#b);stroke-width:8.3;stroke-linejoin:bevel;paint-order:stroke fill markers" transform="translate(-.31 -.047)"/><path d="M27.125 23.816a2.884 2.884 0 0 0-2.89 2.89 2.88 2.88 0 0 0 2.89 2.89H45.03a2.883 2.883 0 0 0 2.89-2.89 2.884 2.884 0 0 0-2.89-2.89zm-8.156.044a2.884 2.884 0 0 0-2.89 2.89 2.884 2.884 0 0 0 2.89 2.891h.002c1.602 0 2.89-1.289 2.89-2.89s-1.288-2.89-2.89-2.89zm8.156-10.623a2.884 2.884 0 0 0-2.89 2.89 2.88 2.88 0 0 0 2.89 2.89H45.03a2.883 2.883 0 0 0 2.89-2.89 2.884 2.884 0 0 0-2.89-2.89zm-8.156.057a2.884 2.884 0 0 0-2.89 2.89 2.883 2.883 0 0 0 2.89 2.89h.002a2.88 2.88 0 0 0 2.89-2.89 2.883 2.883 0 0 0-2.89-2.89zm.001 31.688c1.602 0 2.891 1.289 2.891 2.89s-1.29 2.891-2.89 2.891a2.884 2.884 0 0 1-2.892-2.89 2.885 2.885 0 0 1 2.891-2.891m8.155-.045H45.03c1.601 0 2.89 1.289 2.89 2.89s-1.289 2.891-2.89 2.891H27.125a2.884 2.884 0 0 1-2.89-2.89 2.884 2.884 0 0 1 2.89-2.891" style="opacity:1;fill:#fff;stroke-width:7.56386;stroke-linejoin:bevel;paint-order:stroke fill markers;fill-opacity:1"/><path d="M27.125 34.382H45.03c1.601 0 2.89 1.29 2.89 2.891a2.883 2.883 0 0 1-2.89 2.89H27.125a2.884 2.884 0 0 1-2.89-2.89 2.884 2.884 0 0 1 2.89-2.89m-8.155.032a2.885 2.885 0 0 1 2.891 2.891c0 1.602-1.29 2.89-2.89 2.89a2.884 2.884 0 0 1-2.892-2.89c0-1.601 1.29-2.89 2.891-2.89" style="fill:#fff;stroke-width:7.56386;stroke-linejoin:bevel;paint-order:stroke fill markers;fill-opacity:1"/><path d="M16.2 5.75a6.917 6.917 0 0 0-6.934 6.93v38.73a6.92 6.92 0 0 0 6.933 6.934h32.22a6.92 6.92 0 0 0 6.935-6.934V12.68a6.917 6.917 0 0 0-6.934-6.93z" style="fill:none;stroke-width:.3;stroke-linejoin:bevel;paint-order:stroke fill markers;stroke:#000;stroke-opacity:1;stroke-dasharray:none;filter:url(#c)" transform="translate(-.31 -.047)"/><g style="fill:none;stroke:#000;stroke-opacity:1;stroke-width:.32919703;stroke-dasharray:none;filter:url(#d)" transform="translate(2.838 3.132)scale(.9113)"><path d="M26.65 22.696a3.165 3.165 0 0 0-3.171 3.172 3.165 3.165 0 0 0 3.171 3.172H46.3a3.165 3.165 0 0 0 3.172-3.172 3.165 3.165 0 0 0-3.172-3.172zm-8.949.05a3.165 3.165 0 0 0-3.172 3.171 3.165 3.165 0 0 0 3.172 3.172h.002a3.165 3.165 0 0 0 3.172-3.172 3.165 3.165 0 0 0-3.172-3.172zm8.949-11.658a3.165 3.165 0 0 0-3.171 3.172 3.165 3.165 0 0 0 3.171 3.172H46.3a3.165 3.165 0 0 0 3.172-3.172 3.165 3.165 0 0 0-3.172-3.172zm-8.949.062a3.165 3.165 0 0 0-3.172 3.172 3.165 3.165 0 0 0 3.172 3.172h.002a3.165 3.165 0 0 0 3.172-3.172 3.165 3.165 0 0 0-3.172-3.172zm.001 34.772a3.165 3.165 0 0 1 3.172 3.172 3.165 3.165 0 0 1-3.172 3.172 3.165 3.165 0 0 1-3.172-3.172 3.165 3.165 0 0 1 3.172-3.172zm8.949-.05h19.647a3.165 3.165 0 0 1 3.172 3.173 3.165 3.165 0 0 1-3.172 3.172H26.65a3.165 3.165 0 0 1-3.172-3.172 3.165 3.165 0 0 1 3.172-3.172z" style="opacity:.688554;fill:none;stroke-width:.32919703;stroke-linejoin:bevel;paint-order:stroke fill markers;stroke:#000;stroke-opacity:1;stroke-dasharray:none"/><path d="M26.65 34.291h19.648a3.165 3.165 0 0 1 3.172 3.172 3.165 3.165 0 0 1-3.172 3.173H26.65a3.165 3.165 0 0 1-3.172-3.173 3.165 3.165 0 0 1 3.172-3.172zm-8.948.035a3.165 3.165 0 0 1 3.172 3.173 3.165 3.165 0 0 1-3.172 3.172 3.165 3.165 0 0 1-3.172-3.172 3.165 3.165 0 0 1 3.172-3.173z" style="fill:none;stroke-width:.32919703;stroke-linejoin:bevel;paint-order:stroke fill markers;stroke:#000;stroke-opacity:1;stroke-dasharray:none"/></g></svg>