<svg xmlns="http://www.w3.org/2000/svg" width="64" height="64"><rect width="39" height="56" x="13" y="5" rx="4.179" ry="4.2" style="opacity:.2"/><rect width="39" height="56" x="13" y="4" rx="4.179" ry="4.2" style="fill:#335065"/><path d="M16 7h5v5h-5zm0 11h5v5h-5zm0 11h5v5h-5zm0 11h5v5h-5zm0 11h5v5h-5z" style="fill:#fff"/><path d="M32.5 24c-.766.011-1.313.49-1.57 1.28l.01-.035L29.736 30H25.65a1.6 1.6 0 0 0-1.23.606c-.666.792-.525 2.038.32 2.629l3.193 2.416-1.239 3.12-.004.013a1.73 1.73 0 0 0 .465 1.761l.011.01a1.6 1.6 0 0 0 2.059.132l3.275-2.45 3.275 2.45.037.026a1.6 1.6 0 0 0 2.022-.158l.01-.01a1.73 1.73 0 0 0 .466-1.761l-.004-.013-1.239-3.12 3.192-2.416c.846-.59.988-1.837.321-2.63A1.6 1.6 0 0 0 39.324 30h-4.06l-1.204-4.755.01.036c-.257-.792-.804-1.27-1.57-1.281" style="opacity:.2"/><path d="M32.5 23c-.766.011-1.313.49-1.57 1.28l.01-.035L29.736 29H25.65a1.6 1.6 0 0 0-1.23.606c-.666.792-.525 2.038.32 2.629l3.193 2.416-1.239 3.12-.004.013a1.73 1.73 0 0 0 .465 1.761l.011.01a1.6 1.6 0 0 0 2.059.132l3.275-2.45 3.275 2.45.037.026a1.6 1.6 0 0 0 2.022-.158l.01-.01a1.73 1.73 0 0 0 .466-1.761l-.004-.013-1.239-3.12 3.192-2.416c.846-.59.988-1.837.321-2.63A1.6 1.6 0 0 0 39.324 29h-4.06l-1.204-4.755.01.036c-.257-.792-.804-1.27-1.57-1.281" style="fill:#ff3b64"/><path d="M44 7h5v5h-5zm0 11h5v5h-5zm0 11h5v5h-5zm0 11h5v5h-5zm0 11h5v5h-5z" style="fill:#fff"/><path d="M17.178 4A4.18 4.18 0 0 0 13 8.2v1C13 6.871 14.863 5 17.178 5h30.644A4.18 4.18 0 0 1 52 9.2v-1C52 5.871 50.137 4 47.822 4z" style="fill:#fff;opacity:.1"/><path d="M32.5 23c-.766.011-1.312.49-1.568 1.281L29.736 29H25.65a1.6 1.6 0 0 0-1.23.605 1.83 1.83 0 0 0-.348 1.657c.068-.236.183-.46.348-.657A1.6 1.6 0 0 1 25.676 30h4.06l1.196-4.719c.256-.791.802-1.27 1.568-1.281.766.011 1.312.49 1.568 1.281L35.264 30h4.086a1.6 1.6 0 0 1 1.23.605c.165.197.28.421.348.657a1.83 1.83 0 0 0-.348-1.657A1.6 1.6 0 0 0 39.324 29h-4.06l-1.196-4.719c-.256-.791-.802-1.27-1.568-1.281m-4.871 12.42-.936 2.351-.004.012c-.099.338-.09.68.002.994l.002-.006 1.24-3.12zm9.742 0-.305.23 1.24 3.121.003.006c.092-.315.1-.656.002-.994l-.004-.012z" style="fill:#fff;opacity:.2"/><path d="M16 12v1h5v-1zm28 0v1h5v-1zM16 23v1h5v-1zm28 0v1h5v-1zM16 34v1h5v-1zm28 0v1h5v-1zM16 45v1h5v-1zm28 0v1h5v-1zM16 56v1h5v-1zm28 0v1h5v-1z" style="opacity:.2"/></svg>