<svg xmlns="http://www.w3.org/2000/svg" width="64" height="64"><path d="M32 5C16.488 5 4 17.488 4 33s12.488 28 28 28 28-12.488 28-28S47.512 5 32 5" style="opacity:.2"/><path d="M32 4C16.488 4 4 16.488 4 32s12.488 28 28 28 28-12.488 28-28S47.512 4 32 4" style="fill:#e4e4e4"/><path d="M32 10c12.255 0 22 9.745 22 22s-9.745 22-22 22-22-9.745-22-22 9.745-22 22-22" style="fill:#f1ae3b"/><path d="M22 17v14h-6v1h6v2h-6v1h6v14h4V35h1.156l14.016 14L44 46.176 32.813 35H48v-1H31.813l-1-1 1-1H48v-1H32.813L44 19.824 41.172 17 27.156 31H26V17Z" style="opacity:.2"/><path d="M22 16v14h-6v1h6v2h-6v1h6v14h4V34h1.156l14.016 14L44 45.176 32.813 34H48v-1H31.813l-1-1 1-1H48v-1H32.813L44 18.824 41.172 16 27.156 30H26V16Z" style="fill:#fff2af"/><path d="M32 4C16.488 4 4 16.488 4 32c0 .113.011.224.018.336C4.369 17.134 16.71 5 32 5s27.63 12.134 27.982 27.336c.007-.112.018-.223.018-.336C60 16.488 47.512 4 32 4" style="opacity:.2;fill:#fff"/><path d="M22 16v1h4v-1zm19.172 0L27.156 30H26v1h1.156l14.016-14 2.328 2.324.5-.5zM16 30v1h6v-1zm17.814 0-1.001 1H48v-1zm-2.501 2.5-.5.5 1 1H48v-1H31.813zM16 33v1h6v-1zm16.813 2L43.5 45.676l.5-.5L33.814 35z" style="opacity:.2;fill:#fff"/></svg>