<svg xmlns="http://www.w3.org/2000/svg" xmlns:xlink="http://www.w3.org/1999/xlink" width="64" height="64"><defs><filter id="d" width="1.102" height="1.102" x="-.051" y="-.051" style="color-interpolation-filters:sRGB"><feGaussianBlur stdDeviation=".817"/></filter><filter id="c" width="1.14" height="1.14" x="-.07" y="-.07" style="color-interpolation-filters:sRGB"><feGaussianBlur stdDeviation="1.591"/></filter><radialGradient xlink:href="#a" id="b" cx="3.904" cy="42.012" r="28" fx="3.904" fy="42.012" gradientTransform="rotate(30 159.394 76.434)scale(2.47683)" gradientUnits="userSpaceOnUse"/><linearGradient id="a"><stop offset="0" style="stop-color:#02b3f3;stop-opacity:1"/><stop offset="1" style="stop-color:#0270f3;stop-opacity:1"/></linearGradient></defs><rect width="56" height="56" x="4" y="4" rx="27.999" ry="27.999" style="fill:url(#b)"/><rect width="56" height="56" x="4" y="4" rx="27.999" ry="27.999" style="fill:none;stroke:#000;stroke-opacity:1;stroke-width:.19999992;stroke-dasharray:none;filter:url(#c)"/><path d="M32 8.502c-12.988 0-23.517 10.529-23.517 23.516 0 12.988 10.529 23.517 23.516 23.517 12.988 0 23.516-10.529 23.516-23.517S44.987 8.502 32 8.502m-2.2 4.69c.255-.027.577.015.835 0 .03.122-.181.561-.473 1.198-1.858 4.06-1.968 8.813-.243 11.354.312.461.597.899.597.956s-.336.12-.717.12c-.893 0-1.74-.544-3.468-1.912-.767-.607-1.763-1.116-2.15-1.194-.606-.121-.766-.068-1.552.717-.73.73-.955 1.127-.955 1.796 0 2.535 3.012 4.546 8.607 5.732 7.6 1.61 9.468 3.054 9.678 7.05.263 5.01-2.402 8.787-8.245 11.712-.697.35-1.14.49-1.433.602-.13-.012-.233.011-.362 0-.05-.155-.12-.513-.12-1.194 0-2.661-1.046-5.404-2.627-6.936-.424-.411-1.61-1.28-2.627-1.91-1.018-.63-2.045-1.36-2.274-1.672-.379-.518-.406-.835-.115-1.792.531-1.747 1.16-2.726 2.389-3.83.644-.579 1.29-1.059 1.433-1.07.142-.012-.821-.306-2.27-.602-1.447-.297-3.57-.917-4.666-1.314-2.002-.724-4.706-2.247-5.736-3.348-.044-.047-.082-.078-.12-.12 1.477-5.882 5.621-10.702 11.115-13.025 1.15-.486 2.336-.82 3.587-1.075.624-.127 1.268-.178 1.911-.243m17.93 8.965c.45.278 2.148 3.952 2.632 5.741.625 2.311.58 6.308 0 8.603-.22.874-.507 1.69-.602 1.792-.094.101-.439-.479-.84-1.19s-1.677-2.224-2.742-3.348c-3.076-3.246-3.562-4.938-2.274-7.528.65-1.306 3.479-4.284 3.826-4.07" style="fill:#fff;stroke-width:1.17585"/><path d="M32 11.901c-11.046 0-20 8.954-20 20s8.954 20 20 20 19.999-8.955 19.999-20-8.954-20-20-20zm-1.872 3.989c.218-.023.492.013.711 0 .026.104-.154.477-.402 1.019-1.58 3.453-1.674 7.495-.207 9.656.265.392.508.764.508.812s-.286.102-.61.102c-.76 0-1.48-.462-2.949-1.625-.653-.517-1.5-.95-1.828-1.016-.516-.103-.653-.058-1.32.61-.622.621-.813.958-.813 1.527 0 2.157 2.562 3.866 7.32 4.875 6.463 1.37 8.052 2.598 8.23 5.996.224 4.261-2.042 7.473-7.011 9.96-.593.298-.97.416-1.219.512-.11-.01-.198.01-.308 0-.043-.131-.102-.436-.102-1.015 0-2.264-.89-4.596-2.234-5.899-.361-.35-1.37-1.089-2.234-1.625-.866-.535-1.74-1.156-1.934-1.421-.322-.44-.345-.71-.098-1.524.452-1.486.987-2.318 2.032-3.257.547-.493 1.097-.9 1.218-.91.122-.01-.698-.26-1.93-.512a35 35 0 0 1-3.968-1.117c-1.703-.617-4.002-1.912-4.879-2.848-.037-.04-.07-.066-.101-.102 1.256-5.003 4.78-9.101 9.453-11.077.977-.414 1.986-.697 3.05-.914.53-.109 1.078-.152 1.625-.207zm15.25 7.624c.382.236 1.826 3.36 2.238 4.883.532 1.965.493 5.364 0 7.316-.188.743-.432 1.437-.512 1.524s-.373-.407-.715-1.012c-.34-.605-1.425-1.892-2.332-2.848-2.615-2.76-3.029-4.2-1.933-6.402.552-1.11 2.958-3.643 3.254-3.46z" style="opacity:1;fill:none;stroke:#0200ff;stroke-width:.17009014;stroke-dasharray:none;stroke-opacity:1;filter:url(#d)" transform="translate(-5.627 -5.61)scale(1.17585)"/></svg>