<svg xmlns="http://www.w3.org/2000/svg" width="64" height="64"><path d="M4.05 32c-.011.335-.05.663-.05 1 0 15.512 12.488 28 28 28a27.94 27.94 0 0 0 27.998-28c0-.337-.039-.664-.05-1-.528 15.042-12.776 27-27.95 27S4.578 47.042 4.05 32" style="opacity:.2"/><rect width="56" height="56" x="4" y="4" rx="27.999" ry="27.999" style="fill:#e4e4e4"/><path d="M38.82 5.348a4 4 0 0 0 .27 2.043 4 4 0 0 0 5.228 2.158 4 4 0 0 0 1.635-1.27 27.3 27.3 0 0 0-7.133-2.931m-14.568.26a27.3 27.3 0 0 0-5.523 2.283 4 4 0 0 0 3.287.105 4 4 0 0 0 2.236-2.389m9.207.087a4 4 0 0 0-1.443.307 4 4 0 0 0-2.157 5.228 4 4 0 0 0 5.229 2.159 4 4 0 0 0 2.156-5.23 4 4 0 0 0-3.785-2.464m-9.234 3.842a4 4 0 0 0-1.442.305 4 4 0 0 0-2.158 5.228 4 4 0 0 0 5.23 2.159 4 4 0 0 0 2.157-5.231 4 4 0 0 0-3.787-2.46m22.304 1.55a4 4 0 0 0-1.443.308 4 4 0 0 0-2.156 5.228 4 4 0 0 0 5.228 2.156 4 4 0 0 0 2.158-5.228 4 4 0 0 0-3.787-2.463m-31.537 2.29a4 4 0 0 0-1.443.305 4 4 0 0 0-2.156 5.23 4 4 0 0 0 5.228 2.156 4 4 0 0 0 2.158-5.228 4 4 0 0 0-3.787-2.463m22.305 1.55a4 4 0 0 0-1.442.307 4 4 0 0 0-2.158 5.229 4 4 0 0 0 5.23 2.158 4 4 0 0 0 2.157-5.23 4 4 0 0 0-3.787-2.463M8.28 18.05a27.3 27.3 0 0 0-2.931 7.129 4 4 0 0 0 2.037-.27 4 4 0 0 0 2.156-5.228A4 4 0 0 0 8.28 18.05m47.826.672A4 4 0 0 0 56 22.016a4 4 0 0 0 2.396 2.24 27.3 27.3 0 0 0-2.289-5.535m-28.043.049a4 4 0 0 0-1.441.304 4 4 0 0 0-2.158 5.229 4 4 0 0 0 5.228 2.158 4 4 0 0 0 2.159-5.23 4 4 0 0 0-3.788-2.461m22.307 1.55a4 4 0 0 0-1.443.307 4 4 0 0 0-2.157 5.228A4 4 0 0 0 52 28.014a4 4 0 0 0 2.158-5.23 4 4 0 0 0-3.787-2.464m-31.539 2.29a4 4 0 0 0-1.443.304 4 4 0 0 0-2.157 5.23 4 4 0 0 0 5.229 2.157 4 4 0 0 0 2.156-5.229 4 4 0 0 0-3.785-2.463m22.307 1.55a4 4 0 0 0-1.444.307 4 4 0 0 0-2.156 5.228 4 4 0 0 0 5.229 2.159 4 4 0 0 0 2.156-5.231 4 4 0 0 0-3.785-2.463M9.598 26.45a4 4 0 0 0-1.442.304 4 4 0 0 0-2.158 5.23 4 4 0 0 0 5.23 2.157 4 4 0 0 0 2.157-5.229 4 4 0 0 0-3.787-2.463m22.306 1.554a4 4 0 0 0-1.443.305 4 4 0 0 0-2.156 5.228 4 4 0 0 0 5.228 2.158 4 4 0 0 0 2.158-5.23 4 4 0 0 0-3.787-2.461m22.303 1.549a4 4 0 0 0-1.443.306 4 4 0 0 0-2.157 5.229 4 4 0 0 0 5.229 2.158 4 4 0 0 0 2.158-5.23 4 4 0 0 0-3.787-2.463m-31.535 2.29a4 4 0 0 0-1.443.305 4 4 0 0 0-2.157 5.23 4 4 0 0 0 5.229 2.157 4 4 0 0 0 2.156-5.228 4 4 0 0 0-3.785-2.463m22.303 1.552a4 4 0 0 0-1.444.304 4 4 0 0 0-2.158 5.229 4 4 0 0 0 5.23 2.158 4 4 0 0 0 2.157-5.23 4 4 0 0 0-3.785-2.461m-31.537 2.289a4 4 0 0 0-1.442.304 4 4 0 0 0-2.158 5.23 4 4 0 0 0 5.23 2.157 4 4 0 0 0 2.157-5.229 4 4 0 0 0-3.788-2.462m22.302 1.55a4 4 0 0 0-1.441.305 4 4 0 0 0-2.158 5.23 4 4 0 0 0 5.23 2.157 4 4 0 0 0 2.156-5.229 4 4 0 0 0-3.787-2.463m22.184 1.555a4 4 0 0 0-1.324.3 4 4 0 0 0-2.157 5.23 4 4 0 0 0 1.276 1.638 27.3 27.3 0 0 0 2.935-7.135 4 4 0 0 0-.73-.033m-52.317.959a27.3 27.3 0 0 0 2.282 5.523 4 4 0 0 0 .103-3.287 4 4 0 0 0-2.385-2.236m20.9 1.326a4 4 0 0 0-1.443.305 4 4 0 0 0-2.156 5.23 4 4 0 0 0 5.229 2.157 4 4 0 0 0 2.158-5.229 4 4 0 0 0-3.787-2.463m22.304 1.549a4 4 0 0 0-1.444.307 4 4 0 0 0-2.156 5.228 4 4 0 0 0 5.228 2.158 4 4 0 0 0 2.159-5.23 4 4 0 0 0-3.787-2.463m-31.534 2.291a4 4 0 0 0-1.443.305 4 4 0 0 0-2.158 5.23 4 4 0 0 0 5.23 2.158 4 4 0 0 0 2.157-5.23 4 4 0 0 0-3.786-2.463m22.301 1.55a4 4 0 0 0-1.443.306 4 4 0 0 0-2.156 5.228 4 4 0 0 0 5.228 2.158 4 4 0 0 0 2.156-5.228 4 4 0 0 0-3.785-2.463m-9.234 3.84a4 4 0 0 0-1.442.305 4 4 0 0 0-2.158 5.23 4 4 0 0 0 5.23 2.157 4 4 0 0 0 2.157-5.228 4 4 0 0 0-3.787-2.463m-9.233 3.84a4 4 0 0 0-1.443.307 4 4 0 0 0-1.63 1.264 27.3 27.3 0 0 0 7.128 2.935 4 4 0 0 0-.268-2.043 4 4 0 0 0-3.787-2.462m22.354 1.551a4 4 0 0 0-1.492.305 4 4 0 0 0-2.243 2.402 27.3 27.3 0 0 0 5.545-2.29 4 4 0 0 0-1.81-.417" style="fill:#fff"/><path d="M32 4.002C16.488 4.002 4 16.488 4 32c0 .114.011.224.018.336C4.369 17.135 16.71 5 32 5s27.63 12.135 27.982 27.336c.007-.112.018-.223.018-.336A27.94 27.94 0 0 0 32 4.002" style="opacity:.2;fill:#fff"/></svg>