<svg xmlns="http://www.w3.org/2000/svg" width="64" height="64"><path d="M14 62 4 22l49-12 7 38Z" style="opacity:.2"/><path d="M14 61 4 21 53 9l7 38Z" style="fill:#969696"/><path d="m4 16 55-5 1 41-52 8Z" style="opacity:.2"/><path d="m4 15 55-5 1 41-52 8Z" style="fill:#a8a8a8"/><rect width="56" height="46" x="4" y="10" rx="2.8" ry="2.8" style="opacity:.2"/><rect width="56" height="46" x="4" y="9" rx="2.8" ry="2.8" style="fill:#9a62d9"/><circle cx="47" cy="45" r="13" style="opacity:.2"/><circle cx="47" cy="44" r="13" style="fill:#fff"/><circle cx="47" cy="45" r="10" style="opacity:.2"/><circle cx="47" cy="44" r="10" style="fill:#945e8d"/><path d="M6.8 9C5.25 9 4 10.25 4 11.801v1A2.796 2.796 0 0 1 6.8 10h50.4a2.796 2.796 0 0 1 2.8 2.801v-1A2.796 2.796 0 0 0 57.199 9z" style="fill:#fff;opacity:.2"/></svg>