<svg xmlns="http://www.w3.org/2000/svg" xmlns:xlink="http://www.w3.org/1999/xlink" width="64" height="64"><defs><radialGradient id="e" cx="-159.431" cy="15.463" r="64.707" fx="-159.431" fy="15.463" gradientTransform="matrix(-.89413 0 0 .96305 -80.754 49.33)" gradientUnits="userSpaceOnUse"><stop offset="0" style="stop-color:#8fd671;stop-opacity:1"/><stop offset="1" style="stop-color:#a0ce6d;stop-opacity:1"/></radialGradient><radialGradient xlink:href="#e" id="f" cx="63.964" cy="89.604" r="22" fx="63.964" fy="89.604" gradientTransform="rotate(-90 26.497 222.385)scale(2.9)" gradientUnits="userSpaceOnUse"/><radialGradient xlink:href="#c" id="g" cx="59.925" cy="52.918" r="22" fx="59.925" fy="52.918" gradientTransform="matrix(0 2.87238 -2.89823 0 153.647 -172.572)" gradientUnits="userSpaceOnUse"/><linearGradient id="c"><stop offset="0" style="stop-color:#01d9f6;stop-opacity:1"/><stop offset="1" style="stop-color:#07f;stop-opacity:1"/></linearGradient><filter id="h" width="1.181" height="1.142" x="-.09" y="-.071" style="color-interpolation-filters:sRGB"><feGaussianBlur stdDeviation="1.615"/></filter></defs><path d="M10 11.498V31.5l23.065 2.579L54 31.5V11.498A8 8 45 0 0 46.002 3.5H17.998A8 8 135 0 0 10 11.498" style="fill:url(#f)" transform="translate(0 .5)"/><path d="M10 31.5v20.002a8 8 45 0 0 7.998 7.998h28.004A8 8 135 0 0 54 51.502V31.5Z" style="fill:url(#g);fill-opacity:1" transform="translate(0 .5)"/><g style="fill:none;fill-opacity:1;stroke:#000;stroke-width:.2;stroke-dasharray:none;stroke-opacity:1;filter:url(#h)" transform="translate(-51.441 .312)"><path d="M10 11.498V31.5h44V11.498A8 8 45 0 0 46.002 3.5H17.998A8 8 135 0 0 10 11.498ZM10 31.5v20.002a8 8 45 0 0 7.998 7.998h28.004A8 8 135 0 0 54 51.502V31.5Z" style="fill:none;fill-opacity:1;stroke:#000;stroke-width:.2;stroke-dasharray:none;stroke-opacity:1" transform="translate(51.441 .188)"/></g><path d="M19.006 11.5h25.988A1.006 1.006 45 0 1 46 12.506a1 1 135.326 0 1-1.006.994H19.006A1.006 1.006 45 0 1 18 12.494a1 1 135.326 0 1 1.006-.994Zm0 6h25.988A1.006 1.006 45 0 1 46 18.506a1 1 135.326 0 1-1.006.994H19.006A1.006 1.006 45 0 1 18 18.494a1 1 135.326 0 1 1.006-.994Zm0 6h25.988A1.006 1.006 45 0 1 46 24.506a1 1 135.326 0 1-1.006.994H19.006A1.006 1.006 45 0 1 18 24.494a1 1 135.326 0 1 1.006-.994Z" style="fill:#2d5e28;fill-opacity:1;stroke:#2d5e28;stroke-opacity:1" transform="translate(0 1.003)"/><path d="M19 37.5h26a1 1 45 0 1 1 1 1 1 135.045 0 1-1 1H19a1 1 45 0 1-1-1 1 1 135.045 0 1 1-1Zm0 6h26a1 1 45 0 1 1 1 1 1 135.045 0 1-1 1H19a1 1 45 0 1-1-1 1 1 135.045 0 1 1-1Zm0 6h26a1 1 45 0 1 1 1 1 1 135.045 0 1-1 1H19a1 1 45 0 1-1-1 1 1 135.045 0 1 1-1Z" style="fill:#cfe6ff;fill-opacity:1;stroke:#cfe6ff;stroke-opacity:1" transform="translate(0 -.003)"/></svg>