<svg xmlns="http://www.w3.org/2000/svg" xmlns:xlink="http://www.w3.org/1999/xlink" width="64" height="64"><defs><radialGradient xlink:href="#a" id="f" cx="26.732" cy="14.798" r="26.777" fx="26.732" fy="14.798" gradientTransform="matrix(0 -1.62357 1.62906 0 43.118 59.59)" gradientUnits="userSpaceOnUse"/><radialGradient id="a" cx="-159.431" cy="15.463" r="64.707" fx="-159.431" fy="15.463" gradientTransform="matrix(-.89413 0 0 .96305 -19.436 43.676)" gradientUnits="userSpaceOnUse"><stop offset="0" style="stop-color:#006fff;stop-opacity:1"/><stop offset="1" style="stop-color:#15baff;stop-opacity:1"/></radialGradient><radialGradient xlink:href="#b" id="d" cx="15.063" cy="48.904" r="28.019" fx="15.063" fy="48.904" gradientTransform="matrix(-2.80825 0 0 -2.82787 106.137 138.541)" gradientUnits="userSpaceOnUse"/><filter id="e" width="1.122" height="1.122" x="-.061" y="-.061" style="color-interpolation-filters:sRGB"><feGaussianBlur stdDeviation="1.327"/></filter><filter id="h" width="1.092" height="1.092" x="-.046" y="-.046" style="color-interpolation-filters:sRGB"><feGaussianBlur stdDeviation=".576"/></filter><filter id="g" width="1.207" height="1.207" x="-.103" y="-.103" style="color-interpolation-filters:sRGB"><feGaussianBlur stdDeviation="1.599"/></filter><linearGradient id="b"><stop offset="0" style="stop-color:#8e8e8e;stop-opacity:1"/><stop offset="1" style="stop-color:#484848;stop-opacity:1"/></linearGradient></defs><path d="M15.862 3.802a.57.57 0 0 0-.346.167l-4.418 4.42a.57.57 0 0 0-.086.7l5.175 8.525a22 22 0 0 0-2.179 4.961l-9.502 1.979a.57.57 0 0 0-.454.56v6.25c0 .264.18.494.435.556l9.223 2.254a22 22 0 0 0 2.26 5.73l-5.338 8.14a.57.57 0 0 0 .074.72l4.422 4.422a.57.57 0 0 0 .7.084l8.368-5.08c1.659.96 3.436 1.699 5.286 2.199l1.951 9.386a.57.57 0 0 0 .56.453h6.254c.262 0 .492-.18.555-.438L41.1 50.39a22 22 0 0 0 5.44-2.29l8.243 5.403c.228.15.526.122.718-.07l4.422-4.422a.57.57 0 0 0 .082-.7l-5.626-7.125c-2.526-3.465-2.213-3.112-3.136-4.097L27.95 12.61l-3.306-3.2c-.642-.582-8.408-5.517-8.408-5.517a.57.57 0 0 0-.372-.09Z" style="fill:url(#d);stroke-width:1.00066"/><path d="M16.618 4.656a.55.55 0 0 0-.331.16l-4.232 4.232a.546.546 0 0 0-.081.67l4.955 8.165a21 21 0 0 0-2.086 4.751l-9.1 1.894a.546.546 0 0 0-.435.537v5.985c0 .253.173.473.417.532l8.832 2.16a21 21 0 0 0 2.165 5.486l-5.112 7.796a.546.546 0 0 0 .07.689l4.235 4.235a.546.546 0 0 0 .671.08l8.013-4.865c1.588.92 3.29 1.627 5.062 2.106l1.868 8.989a.546.546 0 0 0 .537.434h5.988a.55.55 0 0 0 .532-.42l2.201-9.003a21 21 0 0 0 5.21-2.193l7.894 5.174a.544.544 0 0 0 .687-.067l4.234-4.234a.546.546 0 0 0 .079-.671l-5.387-6.823c-2.42-3.318-2.12-2.98-3.004-3.923L28.194 13.09l-3.167-3.064c-.614-.558-8.051-5.283-8.051-5.283a.55.55 0 0 0-.356-.086z" style="mix-blend-mode:normal;fill:none;stroke:#000;stroke-width:.2;stroke-dasharray:none;stroke-opacity:1;filter:url(#e)" transform="translate(-1.491 -1.06)scale(1.04423)"/><circle cx="45.453" cy="-5.584" r="19.034" style="fill:url(#f);fill-opacity:1;stroke-width:0" transform="rotate(45)"/><path d="M48.984 15.351c-1.266-.763-3.527-3.426-4.637-2.101.307 1.233-.69 2.087-1.536 1.746-.927 1.486.562 2.465 1.945 2.025 1.338.685 4.976 1.914 4.703-.646-.156-.342-.395-.65-.475-1.024m-3.777-3.541c-.776-.299-2.34-1.713-2.89-.871.84.384 1.992 1.879 2.89.87m-4.44-1.643c-.394.67-3.52 1.23-1.254 1.277 1.92-.466 1.387 2.962 2.66 2.304.338-1.379-.683-2.92-1.644-3.246l.088-.146zm12.737 13.672c-1.112-1.013-4.127-1.357-4.563-.031.422 1.69 1.437 1.654 2.591.672 1.118-.51 1.195.298.23.711.427 1.732-2.58 1.25-3.014.012.065-.812-1.612.206-2.356-.495-1.223-.21-1.712.908-3.067.302-1.856.598-.011 2.757 1.404 1.81 1.863-.529 1.922 1.378 1.662 2.599.838-.283 1.256-1.626.87.03-.248.912-.181 1.238.678 1.029.2.918.85 2.435.64 2.952-1.612.45-2.43-2.1-3.41-2.665.1-2.061-1.692-3.863-3.766-3.685a8.5 8.5 0 0 0-2.673.38c-1.648.528-3.769 2.95-3.525 4.636.073.503.267.977.607 1.361.568.642 2.091 1.244 2.145 2.085.066 1.064-1.073 2.14-1.527 3.18-1.227 1.624-3.352 2.378-3.978 4.5-.52 1.213-2.394 2.339-.253 2.948 1.914.982 3.9.147 5.313-.905 2.435.772 2.735-2.29 4.814-2.614 1.135-.492 4.631-.319 3.84-2.116-.048-.387 4.764.632 3.385-1.57-1.044-.716.722-2.927.7-.896.052.94.627 1.798 1.48.682 2.4-3.465 3.631-7.746 3.338-11.957-1.143 1.28-2.174-1.92-.407-.733-.116-.81-.92-1.428-1.158-2.222M38.91 9.283c-1.838.644-3.608-.26-5.641.036-3.882.648-7.597 2.464-10.36 5.284-.035 2.235 1.358 4.208 1.506 6.416-.656 1.78-3.972 1.215-3.914 3.755-.011 2.24-.826 4.197-2.225 5.906-1.365 1.922.548 4.662 2.803 3.603 1.297-.998 2.595-1.383 4.218-.998 1.005-1.117 2.497-1.48 3.736-2.265-.305-2.102-1.438-4.277-1.07-6.604-.663-1.57-1.207-3.2-2.844-3.815-1.234-1.01.517-1.98-.068-2.849.815-.599 1.364-1.437-.123-1.398-1.708-1.191 1.483-2.9 2.574-1.725 1.56-.061.685 3.037 1.89 1.566 1.646-.216 3.458-.76 4.966.086.775.423 3.196.819 1.697-.536-.108-.983 2.364 1.908 3.144.369.087-.91.656-1.606.003-2.478.502-1.9-2.114-.456-2.932-.6-1.103.231-.335-1.035-.772-1.722.514-2.102 3.225.999 3.99-1.175-.013-.367-.32-.638-.578-.856m9.19 10.405c-.734-1.246-2.335-.122-.721.432.37.239.99.163.721-.432m-7.388-6.891c-1.632-.197.96 1.89.054.08zm6.803 9.488c-.487.696-2.321 2.829-.276 2.107.457-.595.413-1.413.276-2.108m-.905.495c-1.662-.826-.193 1.939 0 0m-8.166-6.063c-1.227.82.37 1.503 0 0m8.913 18.01c-.267 1.68-.478 4.319-2.08 5.014.37-1.541.91-3.124 1.412-4.65a.82.82 0 0 1 .668-.364" style="opacity:.121895;stroke-width:.943463;enable-background:new"/><path d="M36.064 12.557c-1.263 0-2.522.17-3.755.474l-.18.037v.006a15.55 15.55 0 0 0-7.127 4.063 15.54 15.54 0 0 0-4.06 7.127h-.008l-.04.193a15.7 15.7 0 0 0 .854 10.031l.008.02q.361.819.82 1.6l.11.183q.417.693.914 1.35c.057.075.11.153.168.228.382.486.786.958 1.234 1.406v.002l.002.002.15.147c.448.436.92.831 1.405 1.203.072.055.147.103.22.156a15.5 15.5 0 0 0 3.104 1.787l.033.014a15.72 15.72 0 0 0 9.91.8l.192-.04v-.008a15.54 15.54 0 0 0 7.127-4.06 15.54 15.54 0 0 0 4.06-7.126h.008l.04-.203a15.68 15.68 0 0 0-1.782-11.812q-.425-.707-.932-1.375c-.054-.071-.103-.145-.158-.215-.383-.487-.788-.96-1.236-1.408v-.002h-.002v-.002q-.537-.533-1.116-1.006a16 16 0 0 0-1.152-.861l-.014-.008q-.596-.404-1.218-.746l-.004-.002a15.5 15.5 0 0 0-2.627-1.145l-.006-.002c-1.602-.53-3.27-.81-4.942-.808m.645 1.806c2.05.09 4.055.635 5.865 1.59-.994.054-2.053.279-3.129.645-1.234.42-2.515 1.027-3.804 1.808-.71-1.347-1.202-2.655-1.45-3.84.84-.116 1.683-.24 2.518-.203m-4.352.46c.291 1.478.892 3.034 1.747 4.595a29 29 0 0 0-3.051 2.516L26.9 17.78a13.8 13.8 0 0 1 5.457-2.959m10.465 2.896c.825-.024 1.533.11 2.098.388l-5.522 5.52a25.5 25.5 0 0 1-2.865-3.684c1.203-.732 2.382-1.293 3.483-1.668 1.037-.352 1.981-.533 2.806-.556m-17.174 1.318 4.15 4.149v.002a29 29 0 0 0-2.517 3.048c-1.56-.853-3.115-1.454-4.593-1.744a13.8 13.8 0 0 1 2.96-5.455m20.524.324c.558 1.13.537 2.828-.168 4.903-.374 1.1-.936 2.28-1.668 3.482a25.4 25.4 0 0 1-3.684-2.865zm-11.15 1.586a28.4 28.4 0 0 0 3.12 3.938l-2.07 2.068-3.765-3.765a27 27 0 0 1 2.714-2.24m13.304.795c1.305 2.54 1.79 5.455 1.389 8.346-1.185-.247-2.495-.74-3.842-1.45.781-1.288 1.391-2.57 1.81-3.804.362-1.062.586-2.108.643-3.092m-17.273 2.7 3.765 3.765-2.07 2.07a28.4 28.4 0 0 0-3.937-3.123 27 27 0 0 1 2.242-2.713m8.343 1.695a28.4 28.4 0 0 0 3.938 3.12 27 27 0 0 1-2.242 2.716l-3.766-3.766zm-16.964.19c1.183.246 2.492.737 3.838 1.444-.787 1.295-1.4 2.584-1.82 3.823-.358 1.049-.58 2.082-.641 3.054-1.296-2.534-1.778-5.44-1.377-8.322m5.375 2.339a25.4 25.4 0 0 1 3.687 2.867l-5.535 5.533c-.557-1.13-.537-2.826.168-4.9.376-1.106.942-2.291 1.68-3.5m8.265.795 3.768 3.766c-.888.835-1.8 1.585-2.713 2.242a28.3 28.3 0 0 0-3.123-3.94zm8.79.715c1.56.854 3.116 1.455 4.595 1.746a13.8 13.8 0 0 1-2.96 5.455l-4.15-4.148c.94-.996 1.78-2.021 2.514-3.053m-12.116 2.611a25.4 25.4 0 0 1 2.87 3.688c-1.21.737-2.395 1.303-3.5 1.68-2.076.705-3.773.723-4.903.165zm8.35 1.695 4.148 4.149a13.8 13.8 0 0 1-5.457 2.96c-.29-1.477-.889-3.034-1.742-4.593a29 29 0 0 0 3.05-2.516m-4.588 3.53c.707 1.345 1.198 2.652 1.445 3.836-2.882.4-5.788-.08-8.322-1.375.973-.06 2.006-.284 3.055-.641 1.238-.421 2.527-1.034 3.822-1.82" style="baseline-shift:baseline;display:inline;overflow:visible;vector-effect:none;fill:#e4fbff;enable-background:accumulate;stop-color:#000"/><circle cx="36.089" cy="28.192" r="19.034" style="fill:none;fill-opacity:1;stroke:#000;stroke-width:.2;stroke-dasharray:none;stroke-opacity:1;filter:url(#g)"/><path d="M36.064 12.557c-1.263 0-2.522.17-3.755.474l-.18.037v.006a15.55 15.55 0 0 0-7.127 4.063 15.54 15.54 0 0 0-4.06 7.127h-.008l-.04.193a15.7 15.7 0 0 0 .854 10.031l.008.02q.361.819.82 1.6l.11.183q.417.693.914 1.35c.057.075.11.153.168.228.382.486.786.958 1.234 1.406v.002l.002.002.15.147c.448.436.92.831 1.405 1.203.072.055.148.103.22.156a15.5 15.5 0 0 0 3.104 1.787l.033.014a15.72 15.72 0 0 0 9.91.8l.192-.04v-.008a15.54 15.54 0 0 0 7.127-4.06 15.54 15.54 0 0 0 4.06-7.126h.008l.04-.203a15.68 15.68 0 0 0-1.782-11.812q-.425-.707-.932-1.375c-.054-.071-.103-.145-.158-.215-.383-.487-.788-.96-1.236-1.408v-.002h-.002v-.002q-.537-.533-1.116-1.006a16 16 0 0 0-1.152-.861l-.014-.008q-.595-.404-1.218-.746l-.004-.002a15.5 15.5 0 0 0-2.633-1.147c-1.602-.53-3.27-.81-4.942-.808zm.645 1.806c2.05.09 4.054.635 5.865 1.59-.994.054-2.053.279-3.129.645-1.234.42-2.515 1.027-3.804 1.808-.71-1.347-1.202-2.655-1.45-3.84.84-.116 1.683-.24 2.518-.203zm-4.352.46c.29 1.478.892 3.034 1.746 4.595a29 29 0 0 0-3.05 2.516L26.9 17.78a13.8 13.8 0 0 1 5.457-2.959zm10.465 2.896c.825-.024 1.533.11 2.098.388l-5.522 5.52a25.5 25.5 0 0 1-2.865-3.684c1.203-.732 2.382-1.293 3.483-1.668 1.037-.352 1.981-.533 2.806-.556zm-17.174 1.318 4.15 4.149v.002a29 29 0 0 0-2.517 3.048c-1.56-.853-3.116-1.454-4.594-1.744a13.8 13.8 0 0 1 2.961-5.455zm20.524.324c.558 1.13.537 2.828-.168 4.903-.374 1.1-.936 2.28-1.668 3.482a25.4 25.4 0 0 1-3.684-2.865zm-11.15 1.586a28.4 28.4 0 0 0 3.12 3.938l-2.07 2.068-3.765-3.766a27 27 0 0 1 2.714-2.24zm13.304.795c1.305 2.54 1.79 5.455 1.389 8.346-1.185-.247-2.495-.74-3.842-1.45.781-1.288 1.391-2.57 1.81-3.804.362-1.062.586-2.108.643-3.092zm-17.273 2.7 3.765 3.765-2.07 2.07a28.4 28.4 0 0 0-3.937-3.123 27 27 0 0 1 2.242-2.713zm8.343 1.695a28.4 28.4 0 0 0 3.938 3.12 27 27 0 0 1-2.242 2.716l-3.766-3.766zm-16.964.19c1.183.246 2.492.737 3.838 1.444-.787 1.295-1.4 2.584-1.82 3.823-.358 1.049-.58 2.082-.641 3.054-1.296-2.534-1.778-5.44-1.377-8.322zm5.375 2.339a25.4 25.4 0 0 1 3.687 2.867l-5.535 5.533c-.557-1.13-.537-2.826.168-4.9.376-1.106.942-2.291 1.68-3.5zm8.265.795 3.768 3.766c-.888.835-1.8 1.585-2.713 2.242a28.3 28.3 0 0 0-3.123-3.94zm8.79.715c1.56.854 3.116 1.455 4.595 1.746a13.8 13.8 0 0 1-2.96 5.455l-4.15-4.149c.94-.995 1.78-2.02 2.514-3.052zm-12.116 2.611a25.4 25.4 0 0 1 2.87 3.688c-1.21.737-2.395 1.303-3.5 1.68-2.076.705-3.773.723-4.903.165zm8.35 1.695 4.148 4.149a13.8 13.8 0 0 1-5.457 2.96c-.29-1.477-.889-3.034-1.742-4.593a29 29 0 0 0 3.05-2.516zm-4.588 3.53c.707 1.345 1.198 2.652 1.445 3.836-2.882.4-5.789-.08-8.322-1.375.973-.06 2.006-.284 3.055-.641 1.238-.421 2.527-1.034 3.822-1.82z" style="baseline-shift:baseline;display:inline;overflow:visible;fill:none;enable-background:accumulate;stop-color:#000;stroke:#001bff;stroke-opacity:1;stroke-width:.1;stroke-dasharray:none;filter:url(#h)"/></svg>