<svg xmlns="http://www.w3.org/2000/svg" width="64" height="64"><path d="M4.031 31.742v.05c-.008.314-.029.625-.027.942 0 .09-.004.176-.004.266 0 3.255.577 6.363 1.59 9.265.408 1.3.879 2.614 1.445 3.945.913 2.145 1.278 3.294 1.383 4.578.164-2.421-.053-3.453-1.383-6.58a42 42 0 0 1-1.445-3.943 28.2 28.2 0 0 1-1.558-8.524Zm55.93.464a28 28 0 0 1-.118 1.746c-.03.305-.072.607-.113.91q-.1.743-.239 1.473a27.74 27.74 0 0 1-7.687 14.512c-5.004 4.995-10.562 7.558-17.484 8.05-.766.062-1.54.102-2.322.102l-.129-.004c-.027 0-.05.004-.078.004-.334 0-.645-.022-.969-.031-.099-.004-.198-.003-.297-.008-2.363-.086-4.46-.396-6.296-.972-4.013-1.26-4.442-1.261-9.336-.008-3.22.824-6.737 1.174-8.191.922-.392.74-.704 1.418-.704 1.618 0 .817 4.717.53 8.894-.54 4.894-1.253 5.323-1.251 9.336.008 1.836.576 3.933.887 6.297.973.099.005.197.004.297.008.323.009.634.031.968.031.027 0 .051-.004.078-.004.044 0 .086.004.13.004.782 0 1.555-.04 2.32-.102 6.923-.492 12.48-3.054 17.485-8.05a27.75 27.75 0 0 0 7.925-15.984c.041-.304.083-.606.114-.91a29 29 0 0 0 .144-2.485c.002-.158.012-.314.012-.47 0-.267-.031-.527-.039-.793z" style="opacity:.2"/><path d="M32 4c-.675 0-1.34.033-2.002.08l-.249.019c-10.002.79-18.473 6.794-22.753 15.306l-.003.006c-.277.55-.56 1.1-.801 1.67-1.31 2.96-2.023 6.102-2.152 9.39-.006.106-.006.213-.011.32-.009.314-.027.626-.025.943Q4.002 31.867 4 32c0 3.256.579 6.365 1.591 9.267.408 1.3.877 2.614 1.444 3.946C8.446 48.528 8.622 49.432 8.4 52.2c-.155 1.93-.678 3.9-1.332 5.01C6.475 58.215 6 59.253 6 59.517c0 .817 4.719.53 8.896-.54 4.894-1.252 5.322-1.25 9.335.01 1.836.575 3.93.887 6.295.973.098.005.198.004.298.008.323.009.633.03.967.03l.08-.003.128.003c.782 0 1.554-.04 2.32-.101 6.921-.493 12.48-3.054 17.485-8.05a27.75 27.75 0 0 0 7.924-15.985c.041-.304.084-.606.115-.91q.1-.983.131-1.983.01-.251.014-.503c.004-.154.012-.31.012-.466C60 16.747 47.922 4.427 32.773 4.02l-.353-.007C32.278 4.01 32.14 4 32 4" style="fill:#1891d1"/><path d="M20 38v9.999h4v-10z" style="opacity:.2;fill-rule:evenodd"/><path d="M20 37v10h4V37z" style="fill:#e4e4e4;fill-rule:evenodd"/><path d="M42.482 19a1.474 1.3 0 0 0-.371.054l-25.052 6.5A1.474 1.3 0 0 0 16 26.8v10.4a1.474 1.3 0 0 0 1.06 1.247l25.05 6.5A1.474 1.3 0 0 0 44 43.7V20.3a1.474 1.3 0 0 0-1.517-1.3" style="opacity:.2;fill-rule:evenodd"/><path d="M44 29v8h4v-8z" style="opacity:.2;fill-rule:evenodd"/><path d="M44 28v8h4v-8z" style="fill:#e4e4e4;fill-rule:evenodd"/><path d="M42.482 18a1.474 1.3 0 0 0-.371.054l-25.052 6.5A1.474 1.3 0 0 0 16 25.8v10.4a1.474 1.3 0 0 0 1.06 1.247l25.05 6.5A1.474 1.3 0 0 0 44 42.7V19.3a1.474 1.3 0 0 0-1.517-1.3" style="fill:#fff;fill-rule:evenodd"/><path d="M32 4a29 29 0 0 0-2.25.1c-10.003.789-18.473 6.794-22.754 15.306l-.004.004c-.277.551-.56 1.1-.8 1.672-1.311 2.96-2.024 6.1-2.153 9.389-.006.106-.005.213-.01.32-.008.314-.027.627-.025.943 0 .09-.004.176-.004.266 0 .16.009.319.012.479l.017-.688c.005-.107.004-.214.01-.32.13-3.289.842-6.429 2.152-9.389.241-.571.524-1.12.801-1.672l.004-.004C11.276 11.894 19.747 5.89 29.75 5.1l.248-.02C30.66 5.034 31.326 5 32 5v.002c.14 0 .278.009.42.012l.353.007a27.92 27.92 0 0 1 27.215 27.475v-.03c.004-.153.012-.31.012-.466C60 16.747 47.923 4.427 32.773 4.021l-.353-.01C32.278 4.01 32.14 4 32 4M8.455 50.96c-.01.39-.016.762-.055 1.241-.154 1.93-.678 3.9-1.332 5.01C6.476 58.215 6 59.25 6 59.516c0 .11.097.197.254.267.195-.443.48-1.005.814-1.572.654-1.11 1.178-3.08 1.332-5.01.072-.895.095-1.59.055-2.24" style="fill:#fff;opacity:.2"/></svg>