<svg xmlns="http://www.w3.org/2000/svg" width="64" height="64"><path d="M36.3 15c-5.5.02-10.57 2.98-13.28 7.77A8.4 8.4 0 0 0 19.5 22a8.49 8.49 0 0 0-8.32 6.87A11.51 11.51 0 0 0 4 39.5C4 45.85 9.15 51 15.5 51H49c6.08 0 11-4.92 11-11 0-5.09-4.153-9.907-9-10 0-9-6.64-15-14.7-15" style="opacity:.2"/><path d="M36.3 14c-5.5.02-10.57 2.98-13.28 7.77A8.4 8.4 0 0 0 19.5 21a8.49 8.49 0 0 0-8.32 6.87A11.51 11.51 0 0 0 4 38.5C4 44.85 9.15 50 15.5 50H49c6.08 0 11-4.92 11-11 0-5.09-4.153-9.907-9-10 0-9-6.64-15-14.7-15" style="fill:#2f80ff"/><path d="m29 40 5 5v5h6v-5l5-5-8-15Z" style="opacity:.2"/><path d="m29 39 5 5v6h6v-6l5-5-8-15Z" style="fill:#e4e4e4"/><path d="M36.3 14c-5.5.02-10.57 2.98-13.28 7.77A8.4 8.4 0 0 0 19.5 21a8.49 8.49 0 0 0-8.32 6.87A11.51 11.51 0 0 0 4 38.5c0 .15.02.3.02.45.23-4.45 3-8.39 7.16-10.08A8.49 8.49 0 0 1 19.5 22c1.22 0 2.42.26 3.52.77 2.71-4.79 7.78-7.75 13.28-7.77C44.36 15 51 21 51 30c4.69.09 8.71 4.6 8.98 9.5 0-.17.02-.33.02-.5 0-5.09-4.15-9.91-9-10 0-9-6.64-15-14.7-15" style="fill:#fff;opacity:.2"/></svg>