<svg xmlns="http://www.w3.org/2000/svg" xmlns:xlink="http://www.w3.org/1999/xlink" width="64" height="64"><defs><radialGradient xlink:href="#a" id="c" cx="-52.153" cy="-15.663" r="26" fx="-52.153" fy="-15.663" gradientTransform="rotate(30 -137.801 171.19)scale(3.04756 2.34428)" gradientUnits="userSpaceOnUse"/><radialGradient xlink:href="#b" id="d" cx="17.328" cy="48.917" r="18.049" fx="17.328" fy="48.917" gradientTransform="rotate(-15 -622.943 325.56)scale(3.81772 4.65348)" gradientUnits="userSpaceOnUse"/><linearGradient id="b"><stop offset="0" style="stop-color:#ff6839;stop-opacity:1"/><stop offset="1" style="stop-color:#ff0059;stop-opacity:1"/></linearGradient><linearGradient id="a"><stop offset="0" style="stop-color:#fff;stop-opacity:1"/><stop offset="1" style="stop-color:silver;stop-opacity:1"/></linearGradient><filter id="f" width="1.213" height="1.277" x="-.107" y="-.139" style="color-interpolation-filters:sRGB"><feGaussianBlur stdDeviation="2.248"/></filter><filter id="e" width="1.11" height="1.09" x="-.055" y="-.045" style="color-interpolation-filters:sRGB"><feGaussianBlur stdDeviation=".779"/></filter></defs><rect width="52" height="40" x="-57.982" y="-52" rx="5.77" ry="5.77" style="fill:url(#c)" transform="rotate(90)scale(-1 1)"/><path d="M16.605 10.967 14 18h1.44a.9.9 148.283 0 0 .81-.5.9.9 148.304 0 1 .81-.5h1.88a.9.9 31.717 0 1 .81.5.9.9 31.696 0 0 .81.5h1.526l-2.715-7.038A1.5 1.5 34.453 0 0 17.969 10a1.46 1.46 144.682 0 0-1.364.967M18 12l.988 3h-1.89zm-1.852 8.025c-1.19 0-2.16 1.04-2.16 2.327 0 .666.26 1.279.678 1.703l3.268 3.408 3.377-3.408a2.43 2.43 0 0 0 .677-1.703c0-1.287-.973-2.327-2.162-2.327-.783 0-1.46.447-1.838 1.123-.377-.676-1.056-1.123-1.84-1.123m11.85 4.69c-2.974 0-5.403 2.546-5.403 5.698 0 1.641.652 3.137 1.698 4.178l8.17 8.358 8.437-8.358c1.046-1.039 1.695-2.537 1.695-4.178 0-3.152-2.428-5.698-5.402-5.698-1.958 0-3.656 1.096-4.598 2.754-.942-1.658-2.64-2.754-4.597-2.754m18.057 11.596-3.377 3.408A2.43 2.43 0 0 0 42 41.422c0 1.287.972 2.326 2.16 2.326.784 0 1.464-.446 1.84-1.123.376.677 1.056 1.123 1.84 1.123 1.188 0 2.16-1.04 2.16-2.326 0-.667-.26-1.28-.678-1.703ZM42 46l2.622 7.08a1.41 1.41 34.839 0 0 1.321.92h.077a1.43 1.43 145.547 0 0 1.333-.914L50.086 46h-1.527a.9.9 148.283 0 0-.81.5.9.9 148.304 0 1-.808.5h-1.882a.9.9 31.717 0 1-.81-.5.9.9 31.696 0 0-.808-.5Zm3.098 3h1.89L46 52Z" style="fill:url(#d)" transform="translate(3.532 3.541)scale(.88934)"/><path d="M16.605 10.967 14 18h1.44a.9.9 148.283 0 0 .81-.5.9.9 148.304 0 1 .81-.5h1.88a.9.9 31.717 0 1 .81.5.9.9 31.696 0 0 .81.5h1.526l-2.715-7.038A1.5 1.5 34.453 0 0 17.969 10a1.46 1.46 144.682 0 0-1.364.967ZM18 12l.988 3h-1.89zm-1.852 8.025c-1.19 0-2.16 1.04-2.16 2.327 0 .666.26 1.279.678 1.703l3.268 3.408 3.377-3.408a2.43 2.43 0 0 0 .677-1.703c0-1.287-.973-2.327-2.162-2.327-.783 0-1.46.447-1.838 1.123-.377-.676-1.056-1.123-1.84-1.123zm11.85 4.69c-2.974 0-5.403 2.546-5.403 5.698 0 1.641.652 3.137 1.698 4.178l8.17 8.358 8.437-8.358c1.046-1.039 1.695-2.537 1.695-4.178 0-3.152-2.428-5.698-5.402-5.698-1.958 0-3.656 1.096-4.598 2.754-.942-1.658-2.64-2.754-4.597-2.754zm18.057 11.596-3.377 3.408A2.43 2.43 0 0 0 42 41.422c0 1.287.972 2.326 2.16 2.326.784 0 1.464-.446 1.84-1.123.376.677 1.056 1.123 1.84 1.123 1.188 0 2.16-1.04 2.16-2.326 0-.667-.26-1.28-.678-1.703ZM42 46l2.622 7.08a1.41 1.41 34.839 0 0 1.321.92h.077a1.43 1.43 145.547 0 0 1.333-.914L50.086 46h-1.527a.9.9 148.283 0 0-.81.5.9.9 148.304 0 1-.808.5h-1.882a.9.9 31.717 0 1-.81-.5.9.9 31.696 0 0-.808-.5Zm3.098 3h1.89L46 52Z" style="fill:none;stroke:#000;stroke-opacity:1;stroke-width:.22488654;stroke-dasharray:none;stroke-linejoin:round;filter:url(#e)" transform="translate(3.565 3.646)scale(.88934)"/><rect width="52" height="40" x="-57.982" y="-51.88" rx="5.77" ry="5.77" style="fill:none;stroke:#000;stroke-opacity:1;stroke-linejoin:round;stroke-width:.29999992;stroke-dasharray:none;filter:url(#f)" transform="rotate(90)scale(-1 1)"/></svg>