<svg xmlns="http://www.w3.org/2000/svg" width="64" height="64"><path d="M32 8a26 6.857 0 0 0-26 6.855v34.29A26 6.857 0 0 0 32 56a26 6.857 0 0 0 26-6.855v-34.29A26 6.857 0 0 0 32 8" style="opacity:.2"/><path d="M-48.14-58h34.286v52H-48.14z" style="fill:#6666b2" transform="rotate(90)scale(-1 1)"/><ellipse cx="32" cy="48.143" rx="26" ry="6.857" style="fill:#6666b2"/><ellipse cx="32" cy="13.857" rx="26" ry="6.857" style="fill:#6666b2"/><ellipse cx="32" cy="17.5" rx="22" ry="5.5" style="opacity:.2"/><ellipse cx="32" cy="16.5" rx="22" ry="5.5" style="fill:#ffae2b"/><path d="M32 11a22 5.5 0 0 0-22 5.5 22 5.5 0 0 0 .107.502A22 5.5 0 0 1 32 12a22 5.5 0 0 1 21.898 4.994A22 5.5 0 0 0 54 16.5 22 5.5 0 0 0 32 11" style="opacity:.2;fill:#fff"/><path d="M32 7a26 6.857 0 0 0-26 6.855v1A26 6.857 0 0 1 32 8a26 6.857 0 0 1 26 6.855v-1A26 6.857 0 0 0 32 7" style="opacity:.1;fill:#fff"/><path d="M7.125 28C4.5 28 1 25 1 23.5c0-.831.39-1.5.875-1.5h5.25c.485 0 .875.669.875 1.5v3c0 .831-.39 1.5-.875 1.5" style="opacity:.1"/><path d="M7.125 27C4.5 27 1 24 1 22.5c0-.831.39-1.5.875-1.5h5.25c.485 0 .875.669.875 1.5v3c0 .831-.39 1.5-.875 1.5" style="fill:#3f3f3f"/><path d="M56.775 28c2.625 0 6.125-3 6.125-4.5 0-.831-.39-1.5-.875-1.5h-5.25c-.485 0-.875.669-.875 1.5v3c0 .831.39 1.5.875 1.5" style="opacity:.1"/><path d="M56.775 27c2.625 0 6.125-3 6.125-4.5 0-.831-.39-1.5-.875-1.5h-5.25c-.485 0-.875.669-.875 1.5v3c0 .831.39 1.5.875 1.5" style="fill:#3f3f3f"/><rect width="30" height="30" x="33" y="31" rx="2.727" ry="2.727" style="opacity:.2"/><rect width="30" height="30" x="33" y="30" rx="2.727" ry="2.727" style="fill:#f34235"/><path d="M39 36h18v4H39zm0 7h18v4H39zm0 7h18v4H39z" style="fill:#fff"/></svg>