<svg xmlns="http://www.w3.org/2000/svg" xmlns:xlink="http://www.w3.org/1999/xlink" width="64" height="64"><defs><radialGradient xlink:href="#a" id="e" cx="34.888" cy="17.733" r="17.69" fx="34.888" fy="17.733" gradientTransform="rotate(75 88.958 -15.118)scale(2.8863)" gradientUnits="userSpaceOnUse"/><radialGradient xlink:href="#b" id="c" cx="34.888" cy="17.733" r="17.69" fx="34.888" fy="17.733" gradientTransform="rotate(75 66.177 -17.952)scale(2.8863)" gradientUnits="userSpaceOnUse"/><linearGradient id="b"><stop offset="0" style="stop-color:#ff6c24;stop-opacity:1"/><stop offset="1" style="stop-color:#f34e72;stop-opacity:1"/></linearGradient><linearGradient id="a"><stop offset="0" style="stop-color:#00b9ff;stop-opacity:1"/><stop offset="1" style="stop-color:#007dff;stop-opacity:1"/></linearGradient><filter id="d" width="1.271" height="1.271" x="-.135" y="-.135" style="color-interpolation-filters:sRGB"><feGaussianBlur stdDeviation="1.919"/></filter><filter id="f" width="1.257" height="1.257" x="-.129" y="-.129" style="color-interpolation-filters:sRGB"><feGaussianBlur stdDeviation="1.82"/></filter></defs><rect width="35.126" height="35.126" x="4.707" y="24.468" rx="10.705" ry="10.705" style="fill:url(#c);stroke:none;stroke-width:.255;stroke-linecap:round;stroke-linejoin:round;stroke-miterlimit:2.1;paint-order:markers stroke fill;stroke-dasharray:none"/><path d="M26.893 50.03h-9.232l-.578 1.588a3.67 3.67 145.004 0 1-3.447 2.413h-.03a2.405 2.405 54.217 0 1-2.281-3.166l5.724-17.174a5.35 5.35 144.217 0 1 5.078-3.66h.284a5.35 5.35 35.782 0 1 5.078 3.66l5.725 17.174a2.405 2.405 125.782 0 1-2.282 3.166h-.03a3.65 3.65 35.093 0 1-3.438-2.416zm-6.486-5h3.725a.918.918 125.771 0 0 .87-1.208l-2.462-7.377a.278.278.042 0 0-.527 0l-2.475 7.378a.916.916 54.27 0 0 .869 1.207" style="fill:#fff;stroke-width:.803887;opacity:1"/><path d="M15.473 24.518A10.68 10.68 0 0 0 4.768 35.223v13.715c0 5.93 4.774 10.705 10.705 10.705h13.715c5.93 0 10.705-4.775 10.705-10.705V35.223a10.68 10.68 0 0 0-10.705-10.705zm6.714 5.562h.286a5.35 5.35 0 0 1 5.078 3.66l5.724 17.174a2.405 2.405 0 0 1-2.283 3.166h-.03a3.65 3.65 0 0 1-3.437-2.416l-.572-1.586h-9.23l-.58 1.59a3.67 3.67 0 0 1-3.446 2.412h-.029a2.405 2.405 0 0 1-2.283-3.166l5.724-17.174a5.35 5.35 0 0 1 5.078-3.66m.038 6.248a.28.28 0 0 0-.15.166L19.6 43.871a.916.916 0 0 0 .867 1.207h3.726a.918.918 0 0 0 .87-1.207l-2.461-7.377a.28.28 0 0 0-.377-.166" style="fill:none;stroke:#000;stroke-width:.30000001;stroke-linecap:round;stroke-linejoin:round;stroke-miterlimit:2.1;stroke-dasharray:none;paint-order:markers stroke fill;stroke-opacity:1;filter:url(#d)"/><rect width="35.126" height="35.126" x="24.328" y="4.564" rx="10.705" ry="10.705" style="opacity:1;fill:url(#e);stroke:none;stroke-width:.255;stroke-linecap:round;stroke-linejoin:round;stroke-miterlimit:2.1;paint-order:markers stroke fill;stroke-dasharray:none"/><path d="M36.199 34.007a53 53 0 0 0 2.731.068c4.668 0 7.524-.766 9.231-2.125 1.463-1.184 2.438-2.856 2.438-5.016 0-2.995-1.985-5.05-4.667-5.747v-.07c2.647-1.01 3.866-2.926 3.866-4.981 0-2.16-1.15-3.762-2.786-4.633-1.742-1.01-3.727-1.323-6.967-1.323-1.318 0-2.662.059-3.853.147-1.668.125-3.009 1.697-3.009 3.37v17c0 1.673 1.345 3.222 3.016 3.31m2.244-19.822c.418-.07 1.08-.139 2.264-.139 2.403 0 3.762.94 3.762 2.717 0 1.742-1.463 2.891-4.285 2.891h-1.741zm0 9.266h1.811c2.647 0 4.772.94 4.772 3.274 0 2.473-2.125 3.414-4.528 3.414-.906 0-1.533 0-2.055-.07z" aria-label="B" style="font-weight:700;font-size:34.8327px;font-family:&quot;Myriad Pro&quot;;-inkscape-font-specification:&quot;Myriad Pro Bold&quot;;fill:#fff;stroke-width:.237497;stroke-linecap:round;stroke-linejoin:round;stroke-miterlimit:2.1;paint-order:markers stroke fill"/><path d="M35.033 4.565A10.68 10.68 0 0 0 24.328 15.27v13.715c0 5.93 4.774 10.705 10.705 10.705H48.75c5.93 0 10.705-4.775 10.705-10.705V15.27c0-5.93-4.775-10.705-10.705-10.705zm5.012 5.615c3.239 0 5.225.314 6.966 1.324 1.637.871 2.787 2.473 2.787 4.633 0 2.055-1.22 3.97-3.867 4.98v.07c2.682.697 4.668 2.751 4.668 5.747 0 2.16-.974 3.833-2.437 5.017-1.707 1.359-4.565 2.124-9.233 2.124-1.012 0-1.923-.027-2.73-.069-1.67-.087-3.016-1.635-3.016-3.308v-17c0-1.674 1.34-3.245 3.008-3.37a53 53 0 0 1 3.854-.148m.662 3.867c-1.185 0-1.846.07-2.264.139v5.469h1.742c2.822 0 4.283-1.15 4.283-2.891 0-1.776-1.358-2.717-3.761-2.717m-2.264 9.404v6.618c.522.07 1.149.07 2.055.07 2.403 0 4.527-.941 4.527-3.414 0-2.334-2.124-3.274-4.771-3.274z" style="fill:none;stroke:#000;stroke-width:.30000001;stroke-linecap:round;stroke-linejoin:round;stroke-miterlimit:2.1;stroke-dasharray:none;paint-order:markers stroke fill;stroke-opacity:1;filter:url(#f)"/></svg>