<svg xmlns="http://www.w3.org/2000/svg" xmlns:xlink="http://www.w3.org/1999/xlink" width="64" height="64"><defs><radialGradient xlink:href="#a" id="f" cx="5.606" cy="50.982" r="25.504" fx="5.606" fy="50.982" gradientTransform="matrix(0 2.4191 -2.76468 0 145.396 -12.094)" gradientUnits="userSpaceOnUse"/><radialGradient xlink:href="#b" id="c" cx="9.09" cy="54.489" r="18.976" fx="9.09" fy="54.489" gradientTransform="rotate(-30 -300.059 159.992)scale(3.64821 4.09621)" gradientUnits="userSpaceOnUse"/><linearGradient id="a"><stop offset="0" style="stop-color:#00e9ff;stop-opacity:1"/><stop offset="1" style="stop-color:#00adff;stop-opacity:1"/></linearGradient><linearGradient id="b"><stop offset="0" style="stop-color:#fff;stop-opacity:1"/><stop offset="1" style="stop-color:#9b9b9b;stop-opacity:1"/></linearGradient><filter id="e" width="1.135" height="1.119" x="-.068" y="-.06" style="color-interpolation-filters:sRGB"><feGaussianBlur stdDeviation="1"/></filter><filter id="g" width="1.219" height="1.196" x="-.11" y="-.098" style="color-interpolation-filters:sRGB"><feGaussianBlur stdDeviation="2.114"/></filter></defs><path d="m45.69 14.509-27.392 17.12L45.69 48.747" style="fill:none;stroke:url(#c);stroke-width:6.84797"/><path d="M42.643 10.283 8.55 31.59l34.092 21.306 3.86-6.18-24.2-15.126 24.203-15.127Z" style="color:#000;fill:none;stroke:#000;stroke-width:.2;stroke-dasharray:none;stroke-opacity:1;filter:url(#e)" transform="translate(3.802 1.942)scale(.93975)"/><path d="M45.498 5.295a10.27 10.27 0 0 0-10.273 10.273 10.27 10.27 0 0 0 10.273 10.271 10.27 10.27 0 0 0 10.271-10.271A10.27 10.27 0 0 0 45.498 5.295m-27.2 16.062a10.27 10.27 0 0 0-10.27 10.271A10.27 10.27 0 0 0 18.297 41.9 10.27 10.27 0 0 0 28.57 31.63a10.27 10.27 0 0 0-10.272-10.272m27.39 17.12a10.27 10.27 0 0 0-10.27 10.27 10.27 10.27 0 0 0 10.27 10.273 10.27 10.27 0 0 0 10.274-10.273 10.27 10.27 0 0 0-10.273-10.27" style="fill:url(#f);fill-rule:evenodd;stroke:none;stroke-width:2.55799;stroke-dasharray:none"/><path d="M45.503 5.363a10.27 10.27 0 0 0-10.27 10.273 10.27 10.27 0 0 0 10.27 10.271 10.27 10.27 0 0 0 10.271-10.271 10.27 10.27 0 0 0-10.27-10.273Zm-27.2 16.062a10.27 10.27 0 0 0-10.27 10.271 10.27 10.27 0 0 0 10.27 10.271 10.27 10.27 0 0 0 10.274-10.27 10.27 10.27 0 0 0-10.273-10.272Zm27.393 17.12a10.27 10.27 0 0 0-10.273 10.27 10.27 10.27 0 0 0 10.273 10.273 10.27 10.27 0 0 0 10.271-10.273 10.27 10.27 0 0 0-10.27-10.27Z" style="fill:none;fill-rule:evenodd;stroke:#000;stroke-width:.375898;stroke-dasharray:none;stroke-opacity:1;filter:url(#g)"/></svg>