<svg xmlns="http://www.w3.org/2000/svg" width="64" height="64"><defs><linearGradient id="a" x2="0" y1="24" y2="19" gradientTransform="matrix(1.83584 0 0 2 -10.03 -16)" gradientUnits="userSpaceOnUse"><stop offset="0" stop-color="#484848"/><stop offset=".494" stop-color="#505050"/><stop offset="1" stop-color="#484848"/></linearGradient></defs><path d="M4 56v2c0 1.662 1.338 3 3 3h50c1.662 0 3-1.338 3-3v-2c0 1.662-1.338 3-3 3H7c-1.662 0-3-1.338-3-3" style="opacity:.2"/><rect width="56" height="56" x="4" y="4" rx="3" ry="3" style="fill:#e4e4e4"/><path d="M7 4C5.338 4 4 5.338 4 7v1c0-1.662 1.338-3 3-3h50c1.662 0 3 1.338 3 3V7c0-1.662-1.338-3-3-3z" style="opacity:.1;fill:#fff"/><path d="M12.979 22A.99.99 0 0 0 12 23v8c0 .554.437 1 .979 1h32.066c1.951 0 3.52-1.544 3.646-3.504A1.377 1.5 0 0 0 50 27a1.377 1.5 0 0 0-1.308-1.496C48.567 23.544 46.997 22 45.047 22z" style="fill:url(#a);fill-rule:evenodd"/><path d="M24 32v4h20l8 8v-2l-8-10z" style="fill:#8d6a3e"/><path d="M28 31a7 7 0 0 0-7 7 7 7 0 0 0 7 7 7 7 0 0 0 7-7 7 7 0 0 0-7-7m1 2.102a5 5 0 0 1 1.775.744L29 35.62zm-2 .003v2.516l-1.775-1.775a5 5 0 0 1 1.775-.74m5.184 2.16a5 5 0 0 1 .718 1.77h-2.488zm-8.366.003 1.768 1.767h-2.49a5 5 0 0 1 .722-1.767m-.705 3.767h2.473l-1.74 1.74a5 5 0 0 1-.733-1.74m7.301 0h2.477a5 5 0 0 1-.737 1.74zM27 40.45v2.45a5 5 0 0 1-1.732-.717zm2 0 1.734 1.735a5 5 0 0 1-1.734.71z" style="fill:#b58a55"/></svg>