<svg xmlns="http://www.w3.org/2000/svg" width="64" height="64"><rect width="57" height="57" x="4" y="4" rx="2.85" ry="2.85" style="opacity:.2"/><rect width="57" height="57" x="4" y="3" rx="2.85" ry="2.85" style="fill:#226ccc"/><path d="M6.849 3A2.84 2.84 0 0 0 4 5.849V22h19V3ZM23 22v19h19V22Zm19 0h19V5.849A2.84 2.84 0 0 0 58.151 3H42Zm0 19v19h16.151A2.84 2.84 0 0 0 61 57.151V41Zm-19 0H4v16.151A2.84 2.84 0 0 0 6.849 60H23Z" style="opacity:.3"/><path d="M52.166 7c-.414 0-.953.038-1.47.113-.519.075-1.017.187-1.352.336a7.5 7.5 0 0 0-1.752 1.06l.86 1.057q.747-.573 1.46-.896c.475-.216 1.609-.324 2.254-.324q.511.001.928.14.416.14.736.418.639.54.639 1.598 0 .88-.348 1.6-.347.716-1.04 1.468-.678.755-1.645 1.725l-3.99 3.393V20h8.622v-1.436h-6.593v-.074l3.295-2.636q1.005-.953 1.753-1.815.749-.862 1.168-1.74.421-.881.422-1.889 0-.79-.265-1.412a2.9 2.9 0 0 0-.795-1.082 3.3 3.3 0 0 0-.58-.4 4 4 0 0 0-.67-.287h-.004a5 5 0 0 0-.768-.172A6 6 0 0 0 52.166 7M32.924 26c-.885 0-1.97.129-2.67.389q-1.034.392-1.734.924l.812 1.06a9.4 9.4 0 0 1 1.492-.762c.504-.2 1.402-.298 2.115-.298q1.107 0 1.752.513.646.495.647 1.416 0 1.08-.85 1.735c-.553.436-1.66.798-2.742.798H31v1.184h.727q1.751.001 2.71.533.98.513.981 1.7 0 1.169-.793 1.841-.775.655-2.545.655-.885 0-1.846-.211a8 8 0 0 1-1.789-.622v1.454q.811.39 1.696.53.886.16 1.92.161 1.751-.002 2.857-.48c.75-.32 1.302-.758 1.658-1.325q.536-.85.537-1.966 0-1.258-.793-2.038-.774-.78-2.341-.957v-.07c.823-.165 1.77-.496 2.261-.992q.756-.762.756-2.037.001-1.364-1.012-2.248Q34.99 26 32.924 26M12.49 45q-1.273 0-2.232.514A3.57 3.57 0 0 0 8.8 46.982q-.516.957-.516 2.286 0 1.823 1.033 2.832c.701.66 1.615.994 2.746.994q1.2 0 1.957-.426.755-.442 1.178-1.045h.112q-.037 1.028-.258 1.967a4.7 4.7 0 0 1-.719 1.629q-.497.691-1.346 1.1-.83.407-2.123.408a5.3 5.3 0 0 1-1.62-.233v1.328q.294.09.792.125.498.053.865.053 1.864 0 3.045-.637 1.2-.638 1.844-1.7a6.9 6.9 0 0 0 .9-2.392q.26-1.326.262-2.689 0-1.896-.592-3.12-.59-1.24-1.603-1.843A4.26 4.26 0 0 0 12.49 45m0 1.31q.94 0 1.567.495.627.497.941 1.242.314.743.313 1.504 0 .567-.368 1.1-.35.532-.996.886-.645.336-1.531.336-1.29 0-1.918-.691-.608-.71-.607-1.932 0-1.487.718-2.213.738-.726 1.881-.726" style="opacity:.2"/><path d="M52.166 6c-.414 0-.953.038-1.47.113-.519.075-1.017.187-1.352.336a7.5 7.5 0 0 0-1.752 1.06l.86 1.057q.747-.573 1.46-.896c.475-.216 1.609-.324 2.254-.324q.511.001.928.14.416.14.736.418.639.54.639 1.598 0 .88-.348 1.6-.347.716-1.04 1.468-.678.755-1.645 1.725l-3.99 3.393V19h8.622v-1.436h-6.593v-.074l3.295-2.636q1.005-.952 1.753-1.815.749-.862 1.168-1.74.421-.881.422-1.889 0-.79-.265-1.412a2.9 2.9 0 0 0-.795-1.082 3.3 3.3 0 0 0-.58-.4 4 4 0 0 0-.67-.287h-.004a5 5 0 0 0-.768-.172A6 6 0 0 0 52.166 6M32.924 25c-.885 0-1.97.129-2.67.389q-1.034.392-1.734.924l.812 1.06a9.4 9.4 0 0 1 1.492-.762c.504-.2 1.402-.299 2.115-.299q1.107 0 1.752.514.646.495.647 1.416 0 1.08-.85 1.735c-.553.436-1.66.798-2.742.798H31v1.184h.727q1.751.001 2.71.533.98.513.981 1.7 0 1.169-.793 1.841-.775.655-2.545.654-.885 0-1.846-.21a8 8 0 0 1-1.789-.622v1.454q.811.39 1.696.53.886.16 1.92.161 1.751-.002 2.857-.48c.75-.32 1.302-.758 1.658-1.325q.536-.85.537-1.966 0-1.258-.793-2.038-.774-.78-2.341-.957v-.07c.823-.165 1.77-.496 2.261-.992q.756-.762.756-2.037.001-1.364-1.012-2.248Q34.99 25 32.924 25M12.49 44q-1.273 0-2.232.514A3.57 3.57 0 0 0 8.8 45.982q-.516.957-.516 2.286 0 1.823 1.033 2.832c.701.66 1.615.994 2.746.994q1.2 0 1.957-.426.755-.442 1.178-1.045h.112q-.037 1.028-.258 1.967a4.7 4.7 0 0 1-.719 1.629q-.497.691-1.346 1.1-.83.407-2.123.408a5.3 5.3 0 0 1-1.62-.233v1.328q.294.09.792.125.498.053.865.053 1.864 0 3.045-.637 1.2-.638 1.844-1.7a6.9 6.9 0 0 0 .9-2.392q.26-1.326.262-2.689 0-1.896-.592-3.12-.59-1.24-1.603-1.843A4.26 4.26 0 0 0 12.49 44m0 1.31q.94 0 1.567.495.627.497.941 1.242.314.743.313 1.504 0 .567-.368 1.1-.35.531-.996.886-.645.336-1.531.336-1.29 0-1.918-.691-.608-.71-.607-1.932 0-1.488.718-2.213.738-.726 1.881-.726" style="fill:#fff"/><path d="M6.85 3A2.843 2.843 0 0 0 4 5.85v1C4 5.27 5.27 4 6.85 4h51.3C59.73 4 61 5.27 61 6.85v-1C61 4.27 59.73 3 58.15 3z" style="opacity:.1;fill:#fff"/></svg>