<svg xmlns="http://www.w3.org/2000/svg" xmlns:xlink="http://www.w3.org/1999/xlink" width="64" height="64"><defs><radialGradient xlink:href="#a" id="d" cx="32" cy="21" r="25" fx="32" fy="21" gradientTransform="matrix(1 0 0 .68 0 6.72)" gradientUnits="userSpaceOnUse"/><radialGradient xlink:href="#b" id="c" cx="7.245" cy="46.823" r="25" fx="7.245" fy="46.823" gradientTransform="rotate(30 87.628 47.616)scale(2.336 1.83501)" gradientUnits="userSpaceOnUse"/><linearGradient id="b"><stop offset="0" style="stop-color:#ffca12;stop-opacity:1"/><stop offset="1" style="stop-color:#ff8312;stop-opacity:1"/></linearGradient><linearGradient id="a"><stop offset="0" style="stop-color:#ffa81c;stop-opacity:1"/><stop offset="1" style="stop-color:#ff821c;stop-opacity:1"/></linearGradient></defs><path d="M7.01 21.723a6 6 0 0 0-.01.32v21.774a6.37 6.37 0 0 0 3.171 5.513L28.83 60.147a6.32 6.32 0 0 0 6.342 0L53.83 49.33A6.37 6.37 0 0 0 57 43.814v-21.77a6 6 0 0 0-.014-.242c.014-.002-49.975-.079-49.975-.079" style="opacity:.2"/><path d="M7.01 20.723a6 6 0 0 0-.01.32v21.774a6.37 6.37 0 0 0 3.171 5.513L28.83 59.147a6.32 6.32 0 0 0 6.342 0L53.83 48.33A6.37 6.37 0 0 0 57 42.814v-21.77a6 6 0 0 0-.014-.242c.014-.002-49.975-.079-49.975-.079" style="fill:url(#c)"/><path d="M32.15 4v.003a6.346 6.443 0 0 0-3.324.858L10.155 15.806A6.346 6.443 0 0 0 7 20.972a6.346 6.443 0 0 0 3.155 5.219l18.671 10.946a6.346 6.443 0 0 0 6.348 0L53.845 26.19A6.346 6.443 0 0 0 57 21.025a6.346 6.443 0 0 0-3.155-5.219L35.174 4.861A6.346 6.443 0 0 0 32.149 4" style="fill:url(#d)"/><path d="M32.148 4v.004a6.346 6.443 0 0 0-.148.004v33.976a6.346 6.443 0 0 0 3.172-.847L53.844 26.19A6.346 6.443 0 0 0 57 21.025a6.346 6.443 0 0 0-3.156-5.218L35.172 4.86A6.346 6.443 0 0 0 32.148 4" style="opacity:.07"/><path d="M32.148 4v.004a6.346 6.443 0 0 0-3.32.855L10.156 15.805A6.346 6.443 0 0 0 7 20.973a6.346 6.443 0 0 0 .055.476 6.346 6.443 0 0 1 3.101-4.644L28.828 5.859a6.346 6.443 0 0 1 3.32-.855V5a6.346 6.443 0 0 1 3.024.86l18.672 10.945a6.346 6.443 0 0 1 3.101 4.69 6.346 6.443 0 0 0 .055-.472 6.346 6.443 0 0 0-3.156-5.218L35.172 4.859A6.346 6.443 0 0 0 32.148 4" style="opacity:.1;fill:#fff"/><path d="M7.012 20.723q-.006.105-.008.21a6.346 6.443 0 0 1 .021-.21zm-.01.267L7 21.043v21.773a6.37 6.37 0 0 0 3.172 5.514l18.656 10.816c1.01.586 2.045.871 3.172.854V37.994a6.346 6.443 0 0 1-3.174-.857L10.154 26.19a6.346 6.443 0 0 1-3.152-5.2" style="opacity:.1"/><path d="M7.055 20.502a6.346 6.443 0 0 0-.055.47 6.346 6.443 0 0 0 3.156 5.22l18.672 10.945a6.346 6.443 0 0 0 6.344 0L53.844 26.19A6.346 6.443 0 0 0 57 21.023a6.346 6.443 0 0 0-.055-.476 6.346 6.443 0 0 1-3.101 4.644L35.172 36.137a6.346 6.443 0 0 1-6.344 0L10.156 25.19a6.346 6.443 0 0 1-3.101-4.689" style="opacity:.1"/></svg>