<svg xmlns="http://www.w3.org/2000/svg" width="64" height="64"><path d="M22.886 5.002c-1.2 0-2.734 1.267-2.886 2.824V29H8l24 24 24-24H44V7.826c0-1.564-1.686-2.824-2.886-2.824zM6.802 55C5.25 55 4 56.338 4 58s1.25 3 2.8 3h50.4c1.55 0 2.8-1.338 2.8-3s-1.25-3-2.8-3z" style="opacity:.2"/><path d="M22.886 4.002c-1.2 0-2.734 1.267-2.886 2.824V28H8l24 24 24-24H44V6.826c0-1.564-1.686-2.824-2.886-2.824zM6.802 54C5.25 54 4 55.338 4 57s1.25 3 2.8 3h50.4c1.55 0 2.8-1.338 2.8-3s-1.25-3-2.8-3z" style="fill:#358de7"/><path d="M22.887 4.002c-1.2 0-2.735 1.267-2.887 2.824v1c.152-1.557 1.687-2.824 2.887-2.824h18.226c1.2 0 2.887 1.26 2.887 2.824v-1c0-1.564-1.687-2.824-2.887-2.824zM8 28l1 1h11v-1zm36 0v1h11l1-1zM6.8 54C5.25 54 4 55.338 4 57q.002.261.047.508C4.267 56.083 5.407 55 6.8 55h50.4c1.392 0 2.534 1.083 2.753 2.508Q60 57.26 60 57c0-1.662-1.25-3-2.8-3z" style="opacity:.2;fill:#fff"/></svg>