<svg xmlns="http://www.w3.org/2000/svg" width="64" height="64"><path d="M32 3.998c-4.432 0-8 3.568-8 8v9.34l-3.543-3.543a6.11 6.11 0 0 0-8.66 0 6.11 6.11 0 0 0 0 8.66L23.34 37.998 11.797 49.541a6.11 6.11 0 0 0 0 8.66 6.11 6.11 0 0 0 8.66 0l7.39-7.39c1.213.738 2.624 1.187 4.153 1.187s2.94-.45 4.152-1.187l7.391 7.39a6.11 6.11 0 0 0 8.66 0 6.11 6.11 0 0 0 0-8.66L40.66 37.998l11.543-11.543a6.11 6.11 0 0 0 0-8.66 6.11 6.11 0 0 0-8.66 0L40 21.338v-9.34c0-4.432-3.568-8-8-8" style="opacity:.2"/><path d="M32 3c-4.432 0-8 3.568-8 8v9.34l-3.543-3.543a6.11 6.11 0 0 0-8.66 0 6.11 6.11 0 0 0 0 8.66L23.34 37 11.797 48.543a6.11 6.11 0 0 0 0 8.66 6.11 6.11 0 0 0 8.66 0l7.39-7.39C29.06 50.55 30.472 51 32 51s2.94-.45 4.152-1.187l7.391 7.39a6.11 6.11 0 0 0 8.66 0 6.11 6.11 0 0 0 0-8.66L40.66 37l11.543-11.543a6.11 6.11 0 0 0 0-8.66 6.11 6.11 0 0 0-8.66 0L40 20.34V11c0-4.432-3.568-8-8-8" style="fill:#478f30"/><path d="M32 3c-4.432 0-8 3.568-8 8v.998c0-4.432 3.568-8 8-8s8 3.568 8 8V11c0-4.432-3.568-8-8-8M16.127 14.998c-1.566 0-3.131.6-4.33 1.799a6.1 6.1 0 0 0-1.776 4.828 6.1 6.1 0 0 1 1.776-3.83 6.11 6.11 0 0 1 8.66 0L24 21.338v-.998l-3.543-3.543a6.1 6.1 0 0 0-4.33-1.799m31.746 0c-1.565 0-3.13.6-4.33 1.799L40 20.34v.998l3.543-3.543a6.11 6.11 0 0 1 8.66 0 6.1 6.1 0 0 1 1.776 3.83 6.1 6.1 0 0 0-1.776-4.828 6.1 6.1 0 0 0-4.33-1.799M22.84 37.5 11.797 48.543a6.1 6.1 0 0 0-1.776 4.828 6.1 6.1 0 0 1 1.776-3.83L23.34 37.998zm18.32 0-.5.498 11.543 11.543a6.1 6.1 0 0 1 1.776 3.83 6.1 6.1 0 0 0-1.776-4.828z" style="opacity:.1;fill:#fff"/><rect width="42" height="36" x="-58" y="-50" rx="21" ry="18" style="opacity:.2" transform="rotate(90)scale(-1 1)"/><rect width="42" height="36" x="-57" y="-50" rx="21" ry="18" style="fill:#b08e57" transform="rotate(90)scale(-1 1)"/></svg>