<svg xmlns="http://www.w3.org/2000/svg" width="64" height="64"><path d="m52.495 5.605-2.937-1.26a1.936 1.936 0 0 0-2.443.81L46.19 6.75a14 14 0 0 0-3.782-.07l-.903-1.664a1.954 1.954 0 0 0-2.425-.882l-2.972 1.18a1.933 1.933 0 0 0-1.157 2.294l.49 1.822a14 14 0 0 0-2.764 2.716l-1.855-.555a1.94 1.94 0 0 0-2.336 1.085l-1.26 2.94a1.92 1.92 0 0 0 .813 2.434l1.787 1.027a14.3 14.3 0 0 0 .005 3.583l-1.811.974a1.94 1.94 0 0 0-.886 2.415l1.185 2.96a1.944 1.944 0 0 0 2.304 1.153l2.106-.563c.68.876 1.463 1.665 2.332 2.363l-.632 2.104a1.93 1.93 0 0 0 1.089 2.327l2.936 1.26a1.936 1.936 0 0 0 2.444-.81l1.095-1.888c1.144.163 2.303.192 3.45.072l1.058 1.957a1.954 1.954 0 0 0 2.424.883l2.972-1.18a1.933 1.933 0 0 0 1.157-2.295L52.5 32.33a14.3 14.3 0 0 0 2.658-2.53l2.023.6a1.94 1.94 0 0 0 2.336-1.085l1.265-2.925c.39-.9.04-1.949-.813-2.434l-1.795-1.024c.178-1.2.204-2.419.065-3.62l1.741-.937a1.94 1.94 0 0 0 .886-2.415L59.681 13a1.944 1.944 0 0 0-2.304-1.153l-1.88.503a14 14 0 0 0-2.479-2.578l.553-1.83a1.92 1.92 0 0 0-1.076-2.338" style="opacity:.2"/><path d="M6.766 48.73a14 14 0 0 0 1.25 2.967l-1.508 1.902a1.56 1.56 0 0 0 .117 2.068l2.597 2.597c.56.56 1.446.61 2.067.117l1.89-1.496c.972.56 2.006.997 3.083 1.305l.283 2.431A1.557 1.557 0 0 0 18.089 62h3.674c.788 0 1.452-.59 1.545-1.379l.27-2.345a14 14 0 0 0 3.305-1.335l1.828 1.446a1.56 1.56 0 0 0 2.067-.117l2.597-2.597c.56-.56.61-1.447.117-2.068L32.071 51.8a13.6 13.6 0 0 0 1.36-3.25l2.19-.252A1.557 1.557 0 0 0 37 46.754V43.08c0-.788-.59-1.453-1.378-1.545l-2.16-.253a13.7 13.7 0 0 0-1.305-3.212l1.33-1.68a1.56 1.56 0 0 0-.118-2.069l-2.59-2.591a1.554 1.554 0 0 0-2.068-.117l-1.631 1.293a13.7 13.7 0 0 0-3.378-1.416l-.247-2.111A1.557 1.557 0 0 0 21.911 28h-3.674c-.788 0-1.452.59-1.545 1.379l-.246 2.11a13.6 13.6 0 0 0-3.464 1.466l-1.693-1.342a1.56 1.56 0 0 0-2.067.117l-2.597 2.597c-.56.56-.61 1.447-.117 2.068l1.415 1.791a13.4 13.4 0 0 0-1.28 3.244l-2.265.259A1.557 1.557 0 0 0 3 43.234v3.674c0 .788.59 1.453 1.378 1.545z" style="opacity:.2"/><path d="M6.766 47.73a14 14 0 0 0 1.25 2.967l-1.508 1.902a1.56 1.56 0 0 0 .117 2.068l2.597 2.597c.56.56 1.446.61 2.067.117l1.89-1.496c.972.56 2.006.997 3.083 1.305l.283 2.431A1.557 1.557 0 0 0 18.089 61h3.674c.788 0 1.452-.59 1.545-1.379l.27-2.345a14 14 0 0 0 3.305-1.335l1.828 1.446a1.56 1.56 0 0 0 2.067-.117l2.597-2.597c.56-.56.61-1.447.117-2.068L32.071 50.8a13.6 13.6 0 0 0 1.36-3.25l2.19-.252A1.557 1.557 0 0 0 37 45.754V42.08c0-.788-.59-1.453-1.378-1.545l-2.16-.253a13.7 13.7 0 0 0-1.305-3.212l1.33-1.68a1.56 1.56 0 0 0-.118-2.069l-2.59-2.591a1.554 1.554 0 0 0-2.068-.117l-1.631 1.293a13.7 13.7 0 0 0-3.378-1.416l-.247-2.111A1.557 1.557 0 0 0 21.911 27h-3.674c-.788 0-1.452.59-1.545 1.379l-.246 2.11a13.6 13.6 0 0 0-3.464 1.466l-1.693-1.342a1.56 1.56 0 0 0-2.067.117l-2.597 2.597c-.56.56-.61 1.447-.117 2.068l1.415 1.791a13.4 13.4 0 0 0-1.28 3.244l-2.265.259A1.557 1.557 0 0 0 3 42.234v3.674c0 .788.59 1.453 1.378 1.545z" style="fill:#a6a6a6"/><circle cx="20" cy="45" r="6" style="opacity:.2"/><circle cx="20" cy="44" r="6" style="fill:#fff"/><path d="m52.495 4.605-2.937-1.26a1.936 1.936 0 0 0-2.443.81L46.19 5.75a14 14 0 0 0-3.782-.07l-.903-1.664a1.954 1.954 0 0 0-2.425-.882l-2.972 1.18a1.933 1.933 0 0 0-1.157 2.294l.49 1.822a14 14 0 0 0-2.764 2.716l-1.855-.554a1.94 1.94 0 0 0-2.336 1.084l-1.26 2.94a1.92 1.92 0 0 0 .813 2.434l1.787 1.027a14.3 14.3 0 0 0 .005 3.583l-1.811.974a1.94 1.94 0 0 0-.886 2.415l1.185 2.96a1.944 1.944 0 0 0 2.304 1.153l2.106-.563c.68.876 1.463 1.665 2.332 2.363l-.632 2.104a1.93 1.93 0 0 0 1.089 2.327l2.936 1.26a1.936 1.936 0 0 0 2.444-.81l1.095-1.888c1.144.163 2.303.192 3.45.072l1.058 1.957a1.954 1.954 0 0 0 2.424.883l2.972-1.18a1.933 1.933 0 0 0 1.157-2.295L52.5 31.33a14.3 14.3 0 0 0 2.658-2.53l2.023.6a1.94 1.94 0 0 0 2.336-1.085l1.265-2.925c.39-.9.04-1.949-.813-2.434l-1.795-1.024c.178-1.2.204-2.419.065-3.62l1.741-.937a1.94 1.94 0 0 0 .886-2.415L59.681 12a1.944 1.944 0 0 0-2.304-1.153l-1.88.503a14 14 0 0 0-2.479-2.578l.553-1.83a1.92 1.92 0 0 0-1.076-2.338" style="fill:#ffd52b"/><circle cx="44" cy="21" r="6" style="opacity:.2"/><circle cx="44" cy="20" r="6" style="fill:#fff"/><path d="M18.236 27c-.787 0-1.452.591-1.545 1.379l-.246 2.111c-1.218.326-2.38.819-3.463 1.465l-1.693-1.342a1.56 1.56 0 0 0-2.068.117l-2.596 2.598a1.55 1.55 0 0 0-.37 1.602 1.55 1.55 0 0 1 .37-.602l2.596-2.598a1.56 1.56 0 0 1 2.068-.117l1.693 1.342a13.6 13.6 0 0 1 3.463-1.465l.246-2.111A1.557 1.557 0 0 1 18.236 28h3.674c.788 0 1.453.591 1.545 1.379l.246 2.111c1.188.32 2.32.795 3.38 1.416l1.63-1.293a1.555 1.555 0 0 1 2.068.117l2.59 2.59c.178.18.286.398.36.625a1.56 1.56 0 0 0-.36-1.625l-2.59-2.59a1.555 1.555 0 0 0-2.068-.117l-1.63 1.293a13.7 13.7 0 0 0-3.38-1.416l-.246-2.111A1.557 1.557 0 0 0 21.91 27zm14.235 10.672-.315.398a13.7 13.7 0 0 1 1.305 3.213l2.16.252A1.557 1.557 0 0 1 37 43.08v-1c0-.788-.591-1.453-1.379-1.545l-2.16-.252a13.5 13.5 0 0 0-.99-2.611m-24.858.119a13.4 13.4 0 0 0-.97 2.639l-2.264.26A1.557 1.557 0 0 0 3 42.233v1c0-.787.591-1.452 1.379-1.545l2.264-.26a13.4 13.4 0 0 1 1.28-3.243zm.1 13.29-1.205 1.517a1.54 1.54 0 0 0-.242 1.445c.055-.156.133-.308.242-.445l1.508-1.9c-.113-.2-.2-.413-.303-.618m24.678.126q-.154.3-.32.594l1.421 1.804q.17.217.252.465a1.55 1.55 0 0 0-.252-1.465zM39.78 3a2 2 0 0 0-.7.133l-2.97 1.18a1.933 1.933 0 0 0-1.159 2.294l.002.01a1.94 1.94 0 0 1 1.156-1.304l2.971-1.18a1.95 1.95 0 0 1 2.424.883l.904 1.664c1.26-.147 2.53-.125 3.781.07l.926-1.596a1.936 1.936 0 0 1 2.444-.81l2.935 1.261c.555.24.945.71 1.096 1.256a1.914 1.914 0 0 0-1.096-2.256L49.56 3.344a1.936 1.936 0 0 0-2.444.81L46.19 5.75a14 14 0 0 0-3.78-.07l-.905-1.664A1.95 1.95 0 0 0 39.779 3m-4.56 5.605a14 14 0 0 0-2.544 2.541l-1.854-.554a1.94 1.94 0 0 0-2.336 1.084l-1.261 2.94a1.9 1.9 0 0 0-.086 1.261c.024-.088.048-.176.086-.262l1.261-2.94a1.94 1.94 0 0 1 2.336-1.083l1.854.554A14 14 0 0 1 35.44 9.43zm18.038.375-.24.793a14 14 0 0 1 2.478 2.579l1.881-.504A1.944 1.944 0 0 1 59.682 13l1.183 2.96c.027.069.042.139.06.208.105-.389.097-.81-.06-1.207L59.682 12a1.944 1.944 0 0 0-2.305-1.152l-1.88.504a14 14 0 0 0-2.24-2.372M29.74 19.027c-.025.436-.022.871-.008 1.307.016-.42.042-.84.094-1.258zm28.573.244-.075.041q.058.517.076 1.038.02-.54-.002-1.079m-28.569 2.436-1.724.928a1.93 1.93 0 0 0-.946 2.207c.135-.501.46-.947.946-1.207l1.81-.975q-.059-.476-.086-.953m28.537.287q-.038.471-.107.94l1.795 1.023c.461.263.77.692.9 1.172a1.92 1.92 0 0 0-.9-2.172zM34.824 31.75l-.396 1.316a1.9 1.9 0 0 0-.012 1.059c.005-.02.006-.04.012-.059l.633-2.103c-.083-.067-.155-.145-.237-.213m17.899.406c-.075.057-.147.118-.223.174l.553 2.053a1.9 1.9 0 0 0 .002-.99z" style="fill:#fff;opacity:.2"/></svg>