<svg xmlns="http://www.w3.org/2000/svg" width="64" height="64"><path d="M49.828 10c-.71 0-1.421.27-1.965.813l-21.87 21.796-9.856-9.796a2.78 2.78 0 0 0-3.926 0L3.816 31.16a2.74 2.74 0 0 0 0 3.903l20.239 20.125a2.79 2.79 0 0 0 2.496.761 2.75 2.75 0 0 0 1.43-.761l8.398-8.348q.1-.1.187-.207l.008-.008 23.61-23.531a2.756 2.756 0 0 0 0-3.914l-8.395-8.367A2.77 2.77 0 0 0 49.83 10" style="opacity:.2"/><rect width="17.375" height="34.081" x="4.09" y="-58.16" ry="2.768" style="fill:#005161" transform="rotate(135.162)skewX(.324)"/><path d="M14.172 21c-.71 0-1.417.272-1.961.813L3.816 30.16a2.73 2.73 0 0 0-.763 2.438c.1-.526.352-1.029.763-1.438l8.395-8.347a2.78 2.78 0 0 1 3.926 0l20.242 20.125c.41.407.662.908.762 1.431a2.73 2.73 0 0 0-.762-2.431L16.137 21.812A2.78 2.78 0 0 0 14.172 21" style="opacity:.1;fill:#fff"/><rect width="17.395" height="51.008" x="40.74" y="-29.61" ry="2.771" style="fill:#009a7c" transform="rotate(44.904)skewX(-.191)"/><path d="M49.828 9c-.71 0-1.421.27-1.965.813L15.66 41.906a2.74 2.74 0 0 0-.762 2.436 2.74 2.74 0 0 1 .762-1.436l32.203-32.093a2.776 2.776 0 0 1 3.926 0l8.395 8.367c.41.41.664.914.763 1.441a2.74 2.74 0 0 0-.763-2.441l-8.395-8.367A2.77 2.77 0 0 0 49.83 9" style="opacity:.2;fill:#fff"/></svg>