<svg xmlns="http://www.w3.org/2000/svg" width="64" height="64"><rect width="58" height="50" x="3" y="8" rx="2.636" ry="2.632" style="opacity:.2"/><rect width="56.619" height="48.81" x="3.69" y="7.59" rx="2.574" ry="2.57" style="fill:#4f4f4f"/><path d="M5.636 7c-.612 0-1.167.213-1.614.56l-.46.46A2.6 2.6 0 0 0 3 9.632V29.55L25.594 7Z" style="fill:#e53626"/><path d="M25.594 7 3 29.55v20.971L46.603 7Z" style="fill:#ffae1a"/><path d="M46.603 7 3 50.521v3.847A2.63 2.63 0 0 0 5.636 57h11.882L61 13.6V9.632A2.63 2.63 0 0 0 58.364 7z" style="fill:#2dac43"/><path d="M61 13.6 17.518 57h21.009L61 34.57Z" style="fill:#2f66dd"/><path d="M61 34.57 38.527 57h19.837A2.63 2.63 0 0 0 61 54.368Z" style="fill:#82248f"/><path d="M5.637 7A2.63 2.63 0 0 0 3 9.633v1A2.63 2.63 0 0 1 5.637 8h52.726A2.63 2.63 0 0 1 61 10.633v-1A2.63 2.63 0 0 0 58.363 7z" style="opacity:.2;fill:#fff"/><path d="M24.592 8 3 29.55v1L25.594 8zm21.01 0L3 50.521v1L46.604 8zM61 13.6 17.518 57h1.002L61 14.6zm0 20.97L38.527 57h1.002L61 35.57zM3.45 55.842" style="opacity:.1"/><path d="M18 21v2.596l2.224.168.371.505-3.691 17.475-.568.527-2.336.17V45h10v-2.56l-2.05-.147-.393-.547 1.508-6.802h2.315l3.32 6.135c1.357 2.685 2.309 3.837 5.242 3.872.843.01 1.183.07 3.458 0 7.848-6.313 11.854-11.658 12.487-13.833.383-1.318-.226-2.126-1.53-2.126q-.954-.001-2.183.779l-.59 5.057c-1.606 2.022-3.748 4.226-6.356 6.524l2.279-9.225c.358-1.778.476-2.727-.721-3.094l-5.351 1.136-.284.968 2.468.38c.172.612-.572 2.478-.947 4.532l-1.201 6.376c-.02.066-.031.138-.044.21-.779-.402-1.27-1.12-1.835-2.209l-4.696-8.45 8.584-8.043 2.52-.274V21H30v2.66l3.505.168.218.568-9.057 7.868h-1.092l1.675-7.994.48-.505L28 23.596V21z" style="opacity:.2"/><path d="M18 20v2.596l2.224.168.371.505-3.691 17.475-.568.527-2.336.17V44h10v-2.56l-2.05-.147-.393-.547 1.508-6.802h2.315l3.32 6.135c1.357 2.685 2.309 3.837 5.242 3.872.843.01 1.183.07 3.458 0 7.848-6.313 11.854-11.658 12.487-13.833.383-1.318-.226-2.126-1.53-2.126q-.954-.001-2.183.779l-.59 5.057c-1.606 2.022-3.748 4.226-6.356 6.524l2.279-9.225c.358-1.778.476-2.727-.721-3.094l-5.351 1.136-.284.968 2.468.38c.172.612-.572 2.478-.947 4.532l-1.201 6.376c-.02.066-.031.138-.044.21-.779-.402-1.27-1.12-1.835-2.209l-4.696-8.45 8.584-8.043 2.52-.274V20H30v2.66l3.505.168.218.568-9.057 7.868h-1.092l1.675-7.994.48-.505L28 22.596V20z" style="fill:#fff"/></svg>