<svg xmlns="http://www.w3.org/2000/svg" xmlns:xlink="http://www.w3.org/1999/xlink" width="64" height="64"><defs><filter id="g" width="1.257" height="1.257" x="-.129" y="-.129" style="color-interpolation-filters:sRGB"><feGaussianBlur stdDeviation="2.957"/></filter><filter id="h" width="1.178" height="1.178" x="-.089" y="-.089" style="color-interpolation-filters:sRGB"><feGaussianBlur stdDeviation="1.589"/></filter><filter id="i" width="1.129" height="1.17" x="-.064" y="-.085" style="color-interpolation-filters:sRGB"><feGaussianBlur stdDeviation=".948"/></filter><filter id="j" width="1.095" height="1.089" x="-.048" y="-.045" style="color-interpolation-filters:sRGB"><feGaussianBlur stdDeviation=".834"/></filter><radialGradient xlink:href="#a" id="d" cx="10.575" cy="53.626" r="28" fx="10.575" fy="53.626" gradientTransform="rotate(-30 -114.33 114.968)scale(2.31784)" gradientUnits="userSpaceOnUse"/><radialGradient xlink:href="#b" id="e" cx="13.839" cy="17.701" r="22" fx="13.839" fy="17.701" gradientTransform="rotate(45 46.859 8.532)scale(2.16733)" gradientUnits="userSpaceOnUse"/><radialGradient xlink:href="#c" id="f" cx="9.699" cy="33.441" r="18.512" fx="9.699" fy="33.441" gradientTransform="rotate(45 33.419 44.92)scale(1.41585 1.33332)" gradientUnits="userSpaceOnUse"/><linearGradient id="a"><stop offset="0" style="stop-color:#656565;stop-opacity:1"/><stop offset="1" style="stop-color:#333;stop-opacity:1"/></linearGradient><linearGradient id="b"><stop offset="0" style="stop-color:#fff;stop-opacity:1"/><stop offset="1" style="stop-color:#bababa;stop-opacity:1"/></linearGradient><linearGradient id="c"><stop offset="0" style="stop-color:#8e8e8e;stop-opacity:1"/><stop offset="1" style="stop-color:#6c6c6c;stop-opacity:1"/></linearGradient></defs><path d="M16.346 4h31.308A12.346 12.346 45 0 1 60 16.346v31.308A12.346 12.346 135 0 1 47.654 60H16.346A12.346 12.346 45 0 1 4 47.654V16.346A12.346 12.346 135 0 1 16.346 4" style="fill:url(#d)" transform="translate(3.164 3.07)scale(.90344)"/><path d="M16.156 10a6.157 6.157 0 0 0-6.157 6.158v31.684A6.157 6.157 0 0 0 16.156 54h31.687A6.157 6.157 0 0 0 54 47.842V16.158A6.157 6.157 0 0 0 47.843 10zM46.47 38.977a.54.54 0 0 1 .551.54v3.434a.06.06 0 0 0 .113.032l2.237-3.56a.86.86 0 0 1 .945-.377l1.308.338a.416.416 0 0 1 .227.657l-2.601 3.375a.564.564 0 0 0 .015.704l2.564 3.079a.455.455 0 0 1-.181.715l-1.62.64a.52.52 0 0 1-.637-.216l-2.262-3.79a.058.058 0 0 0-.108.029v2.801a.82.82 0 0 1-.607.794l-1.39.372a.483.483 0 0 1-.608-.465v-8.166a.73.73 0 0 1 .623-.724l1.36-.207zm-4.754 2.467.02.002c.092.007.216.111.295.162l1.345.856a.42.42 0 0 0 .353.028l.168-.067c.103-.04.189.02.19.13.003.162.005.37.003.489a3.582 3.582 0 0 0 .676 6.864c.342.06.912.06 1.254 0a3.59 3.59 0 0 0 2.65-2.078.1.1 0 0 1 .016-.024l.002-.002.002-.002.007-.002h.015l.002.002a.1.1 0 0 1 .024.024l.45.763c.02.036.054.096.08.13a.54.54 0 0 0 .613.2l.543.958c.072.113.094.248 0 .342l-1.025 1.025a.24.24 0 0 1-.341 0l-1.42-1.016a.45.45 0 0 0-.42-.03l-.121.056a.54.54 0 0 0-.281.333l-.374 1.74c-.03.13-.109.24-.242.24h-1.447a.24.24 0 0 1-.242-.24l-.372-1.682a.52.52 0 0 0-.285-.327l-.08-.032a.53.53 0 0 0-.435.03l-1.452.928a.24.24 0 0 1-.342 0l-1.022-1.025c-.095-.094-.072-.229 0-.342l.925-1.455a.53.53 0 0 0 .037-.434l-.029-.07a.52.52 0 0 0-.328-.282l-1.68-.374c-.13-.03-.242-.109-.242-.243v-1.28c0-.133.112-.213.242-.242l1.68-.374a.51.51 0 0 0 .326-.285l.028-.067a.53.53 0 0 0-.034-.434l-.925-1.455c-.072-.113-.095-.247 0-.342l1.022-1.025a.24.24 0 0 1 .17-.071" style="fill:url(#e)" transform="translate(3.164 3.07)scale(.90344)"/><path d="M18.63 17.04c-.751 0-1.356.553-1.356 1.242v7.453c0 .688.605 1.242 1.355 1.242h2.71c.751 0 1.356-.554 1.356-1.242v-7.453c0-.689-.605-1.243-1.355-1.243zm21.251 1.907a10.84 10.84 0 0 0-10.84 10.841A10.84 10.84 0 0 0 39.88 40.63a10.84 10.84 0 0 0 10.842-10.84A10.84 10.84 0 0 0 39.88 18.946m0 6.294a4.517 4.517 0 0 1 4.518 4.517 4.517 4.517 0 0 1-4.518 4.517 4.517 4.517 0 0 1-4.517-4.517 4.517 4.517 0 0 1 4.517-4.517m-21.23 7.257c-.751 0-1.356.554-1.356 1.243v7.453c0 .688.605 1.242 1.356 1.242h2.71c.75 0 1.355-.554 1.355-1.242V33.74c0-.689-.604-1.243-1.355-1.243z" style="fill:url(#f);stroke-width:.90344" transform="translate(-7.808 2.192)"/><path d="M16.346 4h31.308A12.346 12.346 45 0 1 60 16.346v31.308A12.346 12.346 135 0 1 47.654 60H16.346A12.346 12.346 45 0 1 4 47.654V16.346A12.346 12.346 135 0 1 16.346 4Z" style="mix-blend-mode:normal;fill:none;stroke:#000;stroke-width:.221376;stroke-dasharray:none;stroke-opacity:1;filter:url(#g)" transform="translate(3.09 3.09)scale(.90344)"/><path d="M16.074 10.021a6.157 6.157 0 0 0-6.156 6.157v1.732h1.477c.83 0 1.5.613 1.5 1.375v8.25c0 .762-.67 1.375-1.5 1.375H9.918v6.111h1.5c.831 0 1.5.614 1.5 1.375v8.25c0 .762-.669 1.375-1.5 1.375h-1.5v1.844c0 3.4 2.756 6.156 6.156 6.156h31.688c3.4 0 6.156-2.756 6.156-6.156V16.178c0-3.4-2.756-6.156-6.156-6.157zm15.844 10c6.627 0 12 5.373 12 12 0 6.628-5.373 12-12 12s-12-5.372-12-12c0-6.627 5.373-12 12-12zm0 6.967a5 5 0 1 0 0 10 5 5 0 0 0 0-10z" style="mix-blend-mode:normal;fill:none;stroke:#000;stroke-width:.221376;stroke-dasharray:none;filter:url(#h)" transform="translate(3.164 3.07)scale(.90344)"/><path d="M8.395 17.91c-.831 0-1.5.613-1.5 1.375v8.25c0 .762.669 1.375 1.5 1.375h3c.83 0 1.5-.613 1.5-1.375v-8.25c0-.762-.67-1.375-1.5-1.375zm23.523 2.111a12 12 0 0 0-12 12 12 12 0 0 0 12 12 12 12 0 0 0 12-12 12 12 0 0 0-12-12zm0 6.967a5 5 0 0 1 5 5 5 5 0 0 1-5 5 5 5 0 0 1-5-5 5 5 0 0 1 5-5zm-23.5 8.033c-.831 0-1.5.614-1.5 1.375v8.25c0 .762.669 1.375 1.5 1.375h3c.831 0 1.5-.613 1.5-1.375v-8.25c0-.761-.669-1.375-1.5-1.375z" style="opacity:.65124;fill:none;stroke:#000;stroke-width:.221376;stroke-dasharray:none;filter:url(#i)" transform="translate(3.164 3.07)scale(.90344)"/><path d="m34.295 20.86-1.047 3.905a.645.645 60 0 0 .457.79l.041.011a.645.645 150 0 0 .79-.456l1.047-3.905a.645.645 60 0 0-.456-.79l-.042-.012a.645.645 150 0 0-.79.457m-5.38-.458-.042.012a.645.645 120.02 0 0-.456.79l1.046 3.906a.645.645 30.02 0 0 .79.456l.043-.011a.645.645 120.02 0 0 .456-.79l-1.046-3.906a.645.645 30.02 0 0-.79-.457m10.642 3.096-2.859 2.86a.645.645 89.98 0 0 0 .912l.032.032a.645.645 179.98 0 0 .912 0l2.86-2.86a.645.645 89.98 0 0 0-.913l-.032-.03a.645.645 179.98 0 0-.913 0m-16.028 0-.03.032a.645.645 89.98 0 0 0 .913l2.86 2.859a.645.645 179.98 0 0 .911 0l.032-.032a.645.645 89.98 0 0 0-.912l-2.86-2.86a.645.645 179.98 0 0-.913 0m19.267 4.919-3.906 1.046a.645.645 120.02 0 0-.456.79l.011.043a.645.645 30.02 0 0 .79.456l3.906-1.046a.645.645 120.02 0 0 .457-.79l-.012-.043a.645.645 30.02 0 0-.79-.456m-22.382.456-.01.042a.645.645 60 0 0 .456.79l3.905 1.047a.645.645 150 0 0 .79-.457l.011-.041a.645.645 60 0 0-.456-.79l-3.905-1.047a.645.645 150 0 0-.79.456m18.031 4.832-.011.041a.645.645 60 0 0 .456.79l3.905 1.047a.645.645 150 0 0 .79-.456l.012-.042a.645.645 60 0 0-.457-.79l-3.905-1.047a.645.645 150 0 0-.79.457m-13.68-.457-3.906 1.046a.645.645 120.02 0 0-.457.79l.012.043a.645.645 30.02 0 0 .79.456l3.906-1.046a.645.645 120.02 0 0 .456-.79l-.011-.043a.645.645 30.02 0 0-.79-.456m11.965 3.45-.032.032a.645.645 89.98 0 0 0 .912l2.86 2.86a.645.645 179.98 0 0 .913 0l.03-.032a.645.645 89.98 0 0 0-.913l-2.86-2.859a.645.645 179.98 0 0-.911 0m-10.372 0-2.86 2.86a.645.645 89.98 0 0 0 .913l.032.03a.645.645 179.98 0 0 .913 0l2.859-2.86a.645.645 89.98 0 0 0-.911l-.032-.032a.645.645 179.98 0 0-.912 0m7.389 1.736-.043.011a.645.645 120.02 0 0-.456.79l1.046 3.906a.645.645 30.02 0 0 .79.457l.043-.012a.645.645 120.02 0 0 .456-.79l-1.046-3.906a.645.645 30.02 0 0-.79-.456m-4.283.456-1.047 3.905a.645.645 60 0 0 .456.79l.042.012a.645.645 150 0 0 .79-.457l1.047-3.905a.645.645 60 0 0-.457-.79l-.041-.011a.645.645 150 0 0-.79.456" style="opacity:.2" transform="translate(3.164 3.07)scale(.90344)"/><path d="M35.125 8.402a2 2 0 0 0-.248.02l-4.724.716a2.54 2.54 0 0 0-2.162 2.513v28.358a1.677 1.677 0 0 0 2.11 1.619l4.827-1.297a2.85 2.85 0 0 0 2.11-2.752v-9.73a.201.201 0 0 1 .376-.102l7.85 13.162a1.8 1.8 0 0 0 2.214.753l5.625-2.225a1.582 1.582 0 0 0 .634-2.484L44.83 26.265a1.96 1.96 0 0 1-.049-2.447l9.026-11.724a1.444 1.444 0 0 0-.785-2.279l-4.544-1.174a2.99 2.99 0 0 0-3.28 1.306l-7.77 12.365a.21.21 0 0 1-.39-.112V10.28a1.88 1.88 0 0 0-1.914-1.878Zm-16.51 8.57a.84.84 0 0 0-.593.246l-3.556 3.558c-.328.328-.249.796 0 1.187l3.22 5.055c.255.4.295 1.07.115 1.509l-.096.231c-.174.44-.67.887-1.133.99l-5.837 1.3c-.453.1-.841.376-.841.84v4.443c0 .464.388.74.84.841l5.838 1.297c.463.103.96.55 1.138.99l.098.233c.183.437.133 1.112-.122 1.512l-3.22 5.05c-.249.391-.328.861 0 1.19l3.556 3.555a.836.836 0 0 0 1.185 0l5.048-3.215c.4-.254 1.068-.291 1.506-.11l.278.113c.44.175.887.676.99 1.138l1.294 5.835c0 .464.374.839.838.839h5.023c.465 0 .74-.386.841-.839l1.3-6.037c.1-.463.541-.97.974-1.163q.21-.094.42-.195c.426-.206 1.074-.17 1.46.105L44.114 51a.833.833 0 0 0 1.182 0l3.559-3.557c.328-.328.249-.798 0-1.19L46.97 42.93c-.8.296-1.654-.049-2.135-.694-.087-.117-.202-.323-.276-.449L43 39.13c-.073-.125-.177-.118-.236.015-1.651 3.724-5.076 6.489-9.204 7.217-1.187.21-3.162.21-4.35 0-5.834-1.029-10.266-6.123-10.266-12.253 0-5.272 3.285-9.768 7.916-11.58.01-.409.001-1.14-.007-1.7-.006-.385-.305-.595-.663-.454q-.293.116-.583.239c-.354.15-.901.11-1.226-.098l-4.67-2.976c-.277-.177-.712-.54-1.033-.565z" style="fill:none;fill-opacity:1;stroke:#000;stroke-width:.2;stroke-dasharray:none;stroke-opacity:1;filter:url(#j)" transform="translate(36.01 36.097)scale(.26014)"/></svg>