<svg xmlns="http://www.w3.org/2000/svg" width="64" height="64"><path d="M59.351 9c-.471 0-2.138 1.693-2.748 2.15-1.348 1.008-5.881 1.375-7.245 1.85-.567-.087-26.811 0-26.811 0s-5.589-.409-9.774 8.989C8.59 31.386 3 53 3 53h34.129s5.632.23 9.034-7.41c3.402-7.639 8.254-27.083 8.254-27.083s.215-1.44-.74-2.753c1.337-.675 3.58-1.354 5.299-1.952 2.853-.991 2.42-4.799.375-4.802" style="opacity:.2"/><path d="M59.351 8c-.471 0-2.138 1.693-2.748 2.15-1.348 1.008-5.881 1.375-7.245 1.85-.567-.087-26.811 0-26.811 0s-5.589-.409-9.774 8.989C8.59 30.386 3 52 3 52h34.129s5.632.23 9.034-7.41c3.402-7.639 8.254-27.083 8.254-27.083s.215-1.44-.74-2.753c1.337-.675 3.58-1.354 5.299-1.952 2.853-.991 2.42-4.799.375-4.802" style="fill:#74c526"/><path d="M21 16v3h10v-3zm12 0v3h4v-3zm6 0v3h10v-3zm18.234 3.002a.96.96 0 0 0-.638.271c-7.272 7.15-20.373 23.207-20.373 23.207L35 49l5.607-1.977s13.51-17.03 20.106-23.515c1.228-1.208-1.77-4.601-3.479-4.506M17 22v3h6v-3zm8 0v3h14v-3zm16 0v3h8v-3zm-28 7v3h4v-3zm6 0v3h9v-3zm12 0v3h14v-3zm-18 5v3h7v-3zm10 0v3h10v-3zm-11 5v3h9v-3zm16.799 0c-1.42 0-2.662.401-3.35.719l-.24.11.629 1.407.283-.109c1.092-.442 1.975-.54 2.498-.54 1.211 0 1.988.43 1.988 1.01 0 .484-.222 1.43-2.16 1.43H28v1.534h.447c2.901 0 2.684.71 2.684 1.304 0 .912-1.301 1.52-2.826 1.52-.539 0-1.227-.083-2.498-.387l-.268-.057L25 48.365l.27.096a8.6 8.6 0 0 0 3.02.539c2.855 0 4.71-1.339 4.71-3.342 0-.925-.448-1.755-1.6-2.224.718-.442 1.15-1.173 1.15-2.016 0-1.409-1.507-2.418-3.75-2.418M9 45v3h10v-3zm12 0v3h3v-3z" style="opacity:.1"/><path d="m25.449 38.718-.24.11.628 1.41.284-.11c1.092-.443 1.974-.54 2.498-.54 1.21 0 1.988.429 1.988 1.009 0 .483-.223 1.43-2.16 1.43H28v1.533h.447c2.9 0 2.684.71 2.684 1.305 0 .911-1.301 1.52-2.826 1.52-.539 0-1.226-.083-2.498-.388l-.269-.055L25 47.365l.27.096a8.6 8.6 0 0 0 3.02.539c2.856 0 4.71-1.34 4.71-3.343 0-.925-.449-1.754-1.6-2.223.718-.442 1.151-1.174 1.151-2.017 0-1.409-1.51-2.417-3.753-2.417-1.42 0-2.662.4-3.35.718" style="fill:#3f3f3f"/><path d="M21 44v3h3v-3zM9 44v3h10v-3zm3-6v3h9v-3zm19-10v3h14v-3zm-12 0v3h9v-3zm-6 0v3h4v-3zm28-7v3h8v-3zm-16 0v3h14v-3zm-8 0v3h6v-3zm22-6v3h10v-3zm-6 0v3h4v-3zm-12 0v3h10v-3zm2 18v3h10v-3zm-10 0v3h7v-3z" style="fill:#1f8a1b"/><path d="M60.712 22.507c-6.595 6.485-20.104 23.517-20.104 23.517L35 48l1.223-6.519s13.101-16.06 20.373-23.208c1.404-1.38 5.52 2.854 4.116 4.234" style="fill:#3f3f3f"/><path d="M59.352 8c-.472 0-2.14 1.692-2.75 2.148-1.348 1.009-5.88 1.377-7.243 1.852-.567-.087-26.812 0-26.812 0s-5.589-.41-9.774 8.988S3 52 3 52h.268c.704-2.692 5.618-21.281 9.505-30.012C16.958 12.591 22.547 13 22.547 13s26.245-.087 26.812 0c1.364-.475 5.895-.843 7.243-1.852.61-.456 2.278-2.148 2.75-2.148.867.001 1.435.69 1.591 1.555.229-1.27-.405-2.553-1.591-2.555" style="opacity:.2;fill:#fff"/></svg>