<svg xmlns="http://www.w3.org/2000/svg" width="64" height="64"><rect width="57" height="51" x="4" y="7" rx="2.85" ry="2.833" style="opacity:.2"/><rect width="57" height="51" x="4" y="6" rx="2.85" ry="2.833" style="fill:#3b555e"/><path d="M34.627 17c-2.45.018-4.435 1.078-6.102 2.443-1.666 1.366-3.123 3.035-4.841 4.633-3.437 3.195-7.772 6.23-16.684 6.23v3c9.627 0 15.022-3.59 18.725-7.033 1.851-1.721 3.316-3.375 4.7-4.51 1.386-1.134 2.584-1.751 4.223-1.763 1.636-.012 2.706.568 3.96 1.678 1.253 1.109 2.558 2.762 4.253 4.5 3.39 3.475 8.512 7.128 18.139 7.128v-3c-8.905 0-12.877-3.03-15.99-6.222-1.557-1.596-2.856-3.274-4.416-4.654S37.08 16.982 34.627 17" style="opacity:.2"/><path d="M7 31.693v3c8.724 0 13.008 4.565 16.479 9.492 1.735 2.464 3.186 5.002 4.826 7.051s3.657 3.742 6.32 3.764h.002c2.667.02 4.656-1.697 6.18-3.756s2.815-4.6 4.392-7.066c3.155-4.933 7.084-9.485 15.801-9.485v-3c-9.816 0-14.98 5.632-18.328 10.867-1.675 2.618-2.987 5.156-4.277 6.899-1.29 1.742-2.324 2.55-3.745 2.54-1.426-.01-2.591-.873-4.004-2.638s-2.882-4.298-4.716-6.902C22.26 37.25 16.815 31.693 7 31.693" style="opacity:.2"/><path d="M7 32.194c18.54 0 19.46 20.24 27.637 20.306 8.179.06 7.83-20.306 26.363-20.306" style="fill:none;stroke:#7e7e7e;stroke-width:3"/><path d="M7 30.806c18.54 0 19.46-13.247 27.637-13.306 8.179-.06 7.83 13.306 26.363 13.306" style="fill:none;stroke:#1588e4;stroke-width:3"/><path d="M34.625 10c-2.663.022-4.68 1.715-6.32 3.764s-3.091 4.586-4.826 7.05C20.008 25.742 15.724 30.306 7 30.306v3c9.815 0 15.261-5.557 18.93-10.765 1.834-2.604 3.304-5.138 4.716-6.902s2.577-2.627 4.002-2.64c1.423-.01 2.456.799 3.747 2.542s2.602 4.28 4.277 6.898C46.02 27.675 51.184 33.306 61 33.306v-3c-8.717 0-12.646-4.552-15.8-9.484-1.578-2.466-2.87-5.008-4.393-7.066-1.524-2.059-3.513-3.776-6.18-3.756Z" style="opacity:.2"/><path d="M7 30.806c18.54 0 19.46-20.24 27.637-20.306 8.179-.06 7.83 20.306 26.363 20.306" style="fill:none;stroke:#e95656;stroke-width:3"/><path d="M7 10v45h3V34h4v3h3v-3h16v3h3v-3h18v3h3v-3h4v-3h-4v-3h-3v3H36v-3h-3v3H17v-3h-3v3h-4V10Z" style="opacity:.2"/><path d="M7 9h3v45H7z" style="fill:#fff"/><path d="M7 30h54v3H7z" style="fill:#fff"/><path d="M14 27h3v9h-3zm19 0h3v9h-3zm21 0h3v9h-3z" style="fill:#fff"/><path d="M6.85 6A2.836 2.836 0 0 0 4 8.834v1C4 8.264 5.27 7 6.85 7h51.3A2.836 2.836 0 0 1 61 9.834v-1C61 7.264 59.73 6 58.15 6z" style="fill:#fff;opacity:.1"/></svg>