<svg xmlns="http://www.w3.org/2000/svg" xmlns:xlink="http://www.w3.org/1999/xlink" width="64" height="64"><defs><radialGradient xlink:href="#a" id="i" cx="15.665" cy="53.735" r="18.431" fx="15.665" fy="53.735" gradientTransform="rotate(-15 -545.027 175.211)scale(3.44136)" gradientUnits="userSpaceOnUse"/><radialGradient xlink:href="#b" id="j" cx="30.816" cy="44.495" r="20" fx="30.816" fy="44.495" gradientTransform="rotate(-60 .861 127.41)scale(2.85258 2.5773)" gradientUnits="userSpaceOnUse"/><radialGradient xlink:href="#c" id="k" cx="15.114" cy="48.882" r="5.245" fx="15.114" fy="48.882" gradientTransform="translate(-1.503 -4.86)scale(1.09942)" gradientUnits="userSpaceOnUse"/><radialGradient xlink:href="#d" id="f" cx=".307" cy="50.589" r="14" fx=".307" fy="50.589" gradientTransform="matrix(4.12302 0 0 4.13661 4.006 -148.292)" gradientUnits="userSpaceOnUse"/><radialGradient xlink:href="#e" id="g" cx=".307" cy="50.589" r="14" fx=".307" fy="50.589" gradientTransform="matrix(4.12302 0 0 4.13661 4.006 -148.292)" gradientUnits="userSpaceOnUse"/><linearGradient id="e"><stop offset="0" style="stop-color:#ff7f00;stop-opacity:1"/><stop offset="1" style="stop-color:#ffc200;stop-opacity:1"/></linearGradient><linearGradient id="d"><stop offset="0" style="stop-color:#cc338f;stop-opacity:1"/><stop offset="1" style="stop-color:#ff7894;stop-opacity:1"/></linearGradient><linearGradient id="a"><stop offset="0" style="stop-color:#4f4f4f;stop-opacity:1"/><stop offset="1" style="stop-color:#313131;stop-opacity:1"/></linearGradient><linearGradient id="b"><stop offset="0" style="stop-color:#6e6e6e;stop-opacity:1"/><stop offset="1" style="stop-color:#a7a7a7;stop-opacity:1"/></linearGradient><linearGradient id="c"><stop offset="0" style="stop-color:#878787;stop-opacity:1"/><stop offset="1" style="stop-color:#313131;stop-opacity:1"/></linearGradient><filter id="l" width="1.115" height="1.115" x="-.057" y="-.057" style="color-interpolation-filters:sRGB"><feGaussianBlur stdDeviation="1.114"/></filter><filter id="h" width="1.102" height="1.128" x="-.051" y="-.064" style="color-interpolation-filters:sRGB"><feGaussianBlur stdDeviation="1.187"/></filter></defs><path d="M58.242 10.388 35.719 23.816a1.48 1.48 0 0 0-.721 1.274v27.25c0 1.24 1.42 1.929 2.381 1.156l13.805-11.309a17.67 17.67 119.731 0 0 6.266-10.972l2.99-19.338c.18-1.231-1.136-2.123-2.198-1.49" style="fill:url(#f);stroke-width:.909232" transform="translate(-2.495 -1.636)scale(1.05114)"/><path d="M58.242 10.388 35.719 23.816a1.48 1.48 0 0 0-.721 1.274v27.25c0 1.24 1.42 1.929 2.381 1.156l13.805-11.309a17.67 17.67 119.731 0 0 6.266-10.972l2.99-19.338c.18-1.231-1.136-2.123-2.198-1.49" style="fill:url(#g);stroke-width:.909232" transform="matrix(-1.05114 0 0 1.05114 66.495 -1.636)"/><g style="fill:none;stroke:#000;stroke-opacity:1;stroke-width:.2;stroke-dasharray:none;filter:url(#h)"><path d="M58.242 10.388 35.719 23.816a1.48 1.48 0 0 0-.721 1.274v27.25c0 1.24 1.42 1.929 2.381 1.156l13.805-11.309a17.67 17.67 119.731 0 0 6.266-10.972l2.99-19.338c.18-1.231-1.136-2.123-2.198-1.49Z" style="fill:none;stroke-width:.19027048;stroke:#000;stroke-opacity:1;stroke-dasharray:none" transform="translate(-2.495 -1.636)scale(1.05114)"/><path d="M58.242 10.388 35.719 23.816a1.48 1.48 0 0 0-.721 1.274v27.25c0 1.24 1.42 1.929 2.381 1.156l13.805-11.309a17.67 17.67 119.731 0 0 6.266-10.972l2.99-19.338c.18-1.231-1.136-2.123-2.198-1.49Z" style="fill:none;stroke-width:.19027048;stroke:#000;stroke-opacity:1;stroke-dasharray:none" transform="matrix(-1.05114 0 0 1.05114 66.495 -1.636)"/></g><path d="M31.5 49.5V28.071" style="fill:none;opacity:.2;stroke-linecap:round;stroke-linejoin:round;stroke-width:9"/><path d="M31.5 48.5v-14" style="fill:none;opacity:.2;stroke-linecap:round;stroke-linejoin:round;stroke-width:3"/><path d="M34.406 19.315 9.929 43.792a7.204 7.204 0 0 0 .002 10.188l.085.086a7.204 7.204 0 0 0 10.188.001L44.681 29.59ZM17.909 46.087a3.953 3.953 0 0 1 0 5.59 3.953 3.953 0 0 1-5.59 0 3.953 3.953 0 0 1 0-5.59 3.953 3.953 0 0 1 5.59 0" style="fill:url(#i);stroke-width:.852346" transform="rotate(-45 35.676 10.964)scale(.64753)"/><path d="M38.296 25.7a3.99 3.99 0 0 0-5.656 0L17.667 40.673c-.601.6-.401 1.212.375 1.554a7.27 7.27 0 0 1 3.728 3.728c.341.776.953.975 1.554.375l14.972-14.973a3.99 3.99 0 0 0 0-5.657" style="opacity:.3" transform="rotate(-45 35.676 10.964)scale(.64753)"/><path d="M40 8.6v6.605a3.59 3.59 116.565 0 1-1.436 2.872l-5.128 3.846a2.39 2.39 180 0 1-2.872 0l-5.128-3.846A3.59 3.59 63.435 0 1 24 15.205v-6.59c0-3.27-2.524-4.907-5-2.79A20 20 0 0 0 12 21c0 11.046 8.954 20 20 20s20-8.954 20-20a20 20 0 0 0-7-15.19c-2.476-2.118-5-.48-5 2.79" style="fill:url(#j)" transform="translate(18.314 9.404)scale(.42763)"/><path d="M18.824 45.173a5.246 5.246 0 0 0-7.419 0 5.246 5.246 0 0 0 0 7.418 5.246 5.246 0 0 0 7.418 0 5.246 5.246 0 0 0 0-7.418m-1.693 1.693a2.85 2.85 0 0 1 0 4.033 2.85 2.85 0 0 1-4.033 0 2.85 2.85 0 0 1 0-4.033 2.85 2.85 0 0 1 4.033 0" style="fill:url(#k);fill-opacity:1;stroke-width:.290478;stroke-miterlimit:7.4" transform="rotate(-45 35.676 10.964)scale(.64753)"/><g style="stroke:#000;stroke-width:.2;stroke-dasharray:none;stroke-opacity:1;filter:url(#l)" transform="rotate(-45 36.142 30.167)scale(.64753)"><path d="M51.217 31.861 31.109 51.97a7.204 7.204 0 0 0 .002 10.187l.086.086a7.204 7.204 0 0 0 10.188.002l20.107-20.107a13.2 13.2 0 0 1-3.412-1.207L44.504 54.506c-.6.6-1.213.401-1.555-.375a7.27 7.27 0 0 0-3.726-3.727c-.776-.341-.976-.954-.375-1.554l13.576-13.577a13.2 13.2 0 0 1-1.207-3.412zM36.295 51.813a5.25 5.25 0 0 1 3.709 1.537 5.246 5.246 0 0 1 0 7.418 5.246 5.246 0 0 1-7.418 0 5.246 5.246 0 0 1 0-7.418 5.25 5.25 0 0 1 3.709-1.538z" style="fill:none;stroke:#000;stroke-width:.2;stroke-dasharray:none;stroke-opacity:1"/><path d="M52.424 35.273 38.848 48.85c-.601.6-.401 1.213.375 1.554a7.27 7.27 0 0 1 3.726 3.727c.342.776.954.976 1.555.375L58.08 40.93a13.2 13.2 0 0 1-3.264-2.393 13.2 13.2 0 0 1-2.392-3.264Z" style="opacity:.3;fill:none;stroke:#000;stroke-width:.2;stroke-dasharray:none;stroke-opacity:1"/><path d="M63.756 16.006a13.2 13.2 0 0 0-8.94 3.851c-5.158 5.159-5.158 13.522 0 18.68s13.522 5.158 18.68 0a13.21 13.21 0 0 0 3.824-10.363c-.167-2.145-2.11-2.558-3.636-1.031L70.6 30.227a2.37 2.37 0 0 1-2.012.67l-4.192-.598a1.58 1.58 0 0 1-1.341-1.342l-.598-4.191a2.37 2.37 0 0 1 .67-2.012l3.076-3.076c1.527-1.527 1.114-3.472-1.031-3.639a13 13 0 0 0-1.416-.033z" style="fill:none;stroke:#000;stroke-width:.2;stroke-dasharray:none;stroke-opacity:1"/><path d="M36.295 51.813a5.25 5.25 0 0 0-3.71 1.537 5.246 5.246 0 0 0 0 7.418 5.246 5.246 0 0 0 7.419 0 5.246 5.246 0 0 0 0-7.418 5.25 5.25 0 0 0-3.71-1.538zm0 2.394a2.85 2.85 0 0 1 2.016.836 2.85 2.85 0 0 1 0 4.033 2.85 2.85 0 0 1-4.032-.002 2.85 2.85 0 0 1-.002-4.031 2.85 2.85 0 0 1 2.018-.836z" style="fill:none;stroke:#000;stroke-width:.2;stroke-miterlimit:7.4;stroke-dasharray:none;stroke-opacity:1"/></g></svg>