<svg xmlns="http://www.w3.org/2000/svg" width="64" height="64"><circle cx="32" cy="33" r="28" style="opacity:.2"/><circle cx="32" cy="32" r="28" style="fill:#4f4f4f"/><path d="M32 10.955c-12.15 0-22 9.85-22 22 0 8.279 4.573 15.49 11.33 19.244-5.375-3.495-8.93-9.554-8.93-16.443 0-10.825 8.775-19.6 19.6-19.6s19.6 8.775 19.6 19.6c0 6.89-3.555 12.948-8.93 16.443C49.427 48.444 54 41.234 54 32.955c0-12.15-9.85-22-22-22m0 8.092c-8.837 0-16 7.387-16 16.5 0 2.531.553 4.93 1.541 7.074a15.8 15.8 0 0 1-.398-3.54c0-8.461 6.652-15.32 14.857-15.32s14.857 6.859 14.857 15.32c0 1.219-.138 2.404-.398 3.54A16.9 16.9 0 0 0 48 35.547c0-9.113-7.163-16.5-16-16.5M32 29a7 7 0 1 0 0 14 7 7 0 0 0 0-14m-8.531 1.879c-2.145 2.24-3.469 5.32-3.469 8.72C20 46.448 25.373 52 32 52s12-5.551 12-12.4c0-3.4-1.324-6.48-3.469-8.72a10.6 10.6 0 0 1 1.533 5.521c0 5.744-4.506 10.4-10.064 10.4s-10.064-4.656-10.064-10.4c0-2.028.561-3.921 1.533-5.521" style="opacity:.2"/><path d="M42.67 51.2C49.427 47.445 54 40.235 54 31.956c0-12.15-9.85-22-22-22s-22 9.85-22 22c0 8.279 4.573 15.49 11.33 19.244-5.375-3.495-8.93-9.554-8.93-16.444 0-10.825 8.775-19.6 19.6-19.6s19.6 8.775 19.6 19.6c0 6.89-3.555 12.949-8.93 16.444" style="fill:#fff"/><path d="M46.459 41.621A16.9 16.9 0 0 0 48 34.547c0-9.113-7.163-16.5-16-16.5s-16 7.387-16 16.5c0 2.531.553 4.93 1.541 7.074a15.8 15.8 0 0 1-.398-3.539c0-8.461 6.652-15.321 14.857-15.321s14.857 6.86 14.857 15.321a16 16 0 0 1-.398 3.539" style="fill:#fff"/><path d="M32 45.8c5.558 0 10.065-4.656 10.065-10.4 0-2.028-.562-3.92-1.534-5.52C42.676 32.12 44 35.2 44 38.6 44 45.448 38.627 51 32 51s-12-5.552-12-12.4c0-3.4 1.324-6.48 3.469-8.72a10.6 10.6 0 0 0-1.534 5.52c0 5.744 4.507 10.4 10.065 10.4" style="fill:#fff"/><path d="M39 35a7 7 0 1 1-14 0 7 7 0 0 1 14 0" style="fill:#fff"/><path d="M32 4A28 28 0 0 0 4 32a28 28 0 0 0 .035.5A28 28 0 0 1 32 5a28 28 0 0 1 27.982 27.252L60 32A28 28 0 0 0 32 4" style="fill:#fff;opacity:.1"/></svg>