<svg xmlns="http://www.w3.org/2000/svg" width="64" height="64"><rect width="48" height="56" x="7" y="5" rx="5.647" style="opacity:.2"/><rect width="48" height="56" x="7" y="4" rx="5.647" style="fill:#00d1e0"/><path d="M15 5v56c4.913-2.867 11.083-6.328 16-9.187-.028-1.963.168-4.8 0-6.739-3.207 1.827-6.758 3.727-9.969 5.547-.064-14.705-.045-27.97-.062-42.676C19.286 6.965 16.682 5.982 15 5m10.02 5.668a7469 7469 0 0 0 0 33.074c1.672-.972 4.284-2.344 5.957-3.316.015-6.957 0-13.071.046-20.028 0 0 19.979 12.604 19.805 12.602-5.975 3.523-15.836 10.207-15.836 10.207l.016 7.035L61.418 33C48.7 25.494 37.77 18.123 25.02 10.668M35 28v9.398l4.07-2.347 4.07-2.352-4.07-2.347z" style="opacity:.1"/><path d="M12.648 4A5.637 5.637 0 0 0 7 9.648v1A5.637 5.637 0 0 1 12.648 5h36.704A5.637 5.637 0 0 1 55 10.648v-1A5.637 5.637 0 0 0 49.352 4Z" style="opacity:.2;fill:#fff"/><path d="m27.724 24.05-1.862 1.075L24 26.2v-4.3l1.862 1.075z" style="fill:#005293" transform="translate(-17.465 -20.874)scale(2.18605)"/><path d="M34.993 42.206s9.858-6.685 15.833-10.208c.174.002-19.801-12.6-19.801-12.6-.048 6.956-.035 13.073-.05 20.03-1.672.972-4.284 2.344-5.957 3.316a7469 7469 0 0 1 0-33.075c12.75 7.455 23.681 14.824 36.4 22.33L35.006 49.241Z" style="fill:#005293"/><path d="M15 32V4c1.682.982 4.288 1.965 5.97 2.946.018 14.705-.004 27.97.06 42.676 3.21-1.82 6.763-3.72 9.97-5.546.168 1.938-.028 4.773 0 6.736-4.917 2.86-11.087 6.321-16 9.188Z" style="fill:#005293"/></svg>