<svg xmlns="http://www.w3.org/2000/svg" width="64" height="64"><rect width="58" height="58" x="3" y="4" rx="2.9" ry="2.9" style="opacity:.2"/><rect width="58" height="58" x="3" y="3" rx="2.9" ry="2.9" style="fill:#e4c022"/><path d="M9 9v46h46V9Z" style="fill:#413818"/><path d="M5.898 3A2.89 2.89 0 0 0 3 5.898v1A2.89 2.89 0 0 1 5.898 4h52.204A2.89 2.89 0 0 1 61 6.898v-1A2.89 2.89 0 0 0 58.102 3z" style="opacity:.2;fill:#fff"/><path d="M9 9h46v1H9z" style="opacity:.2"/><path d="M9 55h46v1H9z" style="opacity:.2;fill:#fff"/><path d="m13 14 2 2v24l-2 2h18l4-6-5 2H19V16l2-2zm26.188 7.102c-6.87 0-15.387 5.618-16.13 14.898h6.022c.602-5.528 4.892-11.924 11.545-11.924C46.375 24.076 51 30 51 30v-5s-4.625-3.898-11.812-3.898M51 43s-4.625 6-10.375 6c-4.27 0-7.558-2.095-9.533-5h-6.485c2.907 5.44 9.24 8 14.58 8C46.376 52 51 48 51 48Z" style="opacity:.2"/><path d="m13 13 2 2v24l-2 2h18l4-6-5 2H19V15l2-2zm26.188 7.102c-6.87 0-15.387 5.618-16.13 14.898h6.022c.602-5.528 4.892-11.924 11.545-11.924C46.375 23.076 51 29 51 29v-5s-4.625-3.898-11.812-3.898M51 42s-4.625 6-10.375 6c-4.27 0-7.558-2.095-9.533-5h-6.485c2.907 5.44 9.24 8 14.58 8C46.376 51 51 47 51 47z" style="fill:#e4c022"/><path d="m13 13 1 1h6l1-1zm26.188 7.102c-6.87 0-15.387 5.618-16.13 14.898h.135c1.255-8.676 9.379-13.898 15.994-13.898C46.376 21.102 51 25 51 25v-1s-4.625-3.898-11.812-3.898M35 35l-5 2H19v1h11l4.092-1.637zm-20 4-2 2h1l1-1zm36 3s-4.625 6-10.375 6c-4.27 0-7.558-2.095-9.533-5h-6.485q.277.517.594 1h5.89c1.976 2.905 5.264 5 9.534 5C46.375 49 51 43 51 43z" style="fill:#fff;opacity:.2"/></svg>