<svg xmlns="http://www.w3.org/2000/svg" width="64" height="64"><rect width="56" height="56" x="4" y="5" rx="2.8" ry="2.8" style="opacity:.2"/><rect width="56" height="56" x="4" y="4" rx="2.8" ry="2.8" style="fill:#009d8b"/><path d="M6.8 4A2.794 2.794 0 0 0 4 6.8V10h56V6.8C60 5.249 58.751 4 57.2 4Z" style="fill:#0ac6b0"/><path d="m15.998 31 10 12 22-22" style="opacity:.2;fill:none;stroke:#020202;stroke-width:8;stroke-linecap:round;stroke-linejoin:round"/><path d="m15.998 30 10 12 22-22" style="fill:none;stroke:#fff;stroke-width:8;stroke-linecap:round;stroke-linejoin:round"/><path d="M4 10h56v1H4z" style="opacity:.1"/><path d="M6.8 4C5.25 4 4 5.25 4 6.8v1C4 6.25 5.25 5 6.8 5h50.4C58.75 5 60 6.25 60 7.8v-1C60 5.25 58.75 4 57.2 4z" style="opacity:.2;fill:#fff"/></svg>