<svg xmlns="http://www.w3.org/2000/svg" width="64" height="64"><path d="M32 4A29 29 0 0 0 3 33a29 29 0 0 0 29 29 29 29 0 0 0 29-29A29 29 0 0 0 32 4" style="opacity:.2"/><path d="M32 3A29 29 0 0 0 3 32a29 29 0 0 0 29 29 29 29 0 0 0 29-29A29 29 0 0 0 32 3" style="fill:#4f4f4f"/><path d="M32 10C19.297 10 9 20.297 9 33s10.297 23 23 23 23-10.297 23-23-10.297-23-23-23m10.988 11h4.075v4h-1.684c-.754 0-1.277.276-1.574.551-.298.267-.805.733-.805 1.403V28h4.063v4H43v12h-6V32h-3v-4h3v-1.707c0-1.803.278-3.135 1.29-3.992q1.516-1.3 4.698-1.3M17 23.875h6V40h8v4H17Z" style="opacity:.2"/><path d="M32 9C19.297 9 9 19.297 9 32s10.297 23 23 23 23-10.297 23-23S44.703 9 32 9m10.988 11h4.075v4h-1.684c-.754 0-1.277.276-1.574.551-.298.267-.805.733-.805 1.403V27h4.063v4H43v12h-6V31h-3v-4h3v-1.707c0-1.803.278-3.135 1.29-3.992q1.516-1.3 4.698-1.3M17 22.875h6V39h8v4H17Z" style="fill:#3be471"/><path d="M32 3A29 29 0 0 0 3 32l.021.408A29 29 0 0 1 32 4a29 29 0 0 1 28.979 28.574A29 29 0 0 0 61 32 29 29 0 0 0 32 3" style="opacity:.1;fill:#fff"/><path d="M32 9C19.297 9 9 19.297 9 32c0 .168.008.333.012.5C9.279 20.03 19.465 10 32 10s22.721 10.03 22.988 22.5c.004-.167.012-.332.012-.5C55 19.297 44.703 9 32 9m13.379 15c-.754 0-1.277.275-1.574.55-.298.267-.805.733-.805 1.403v1c0-.67.507-1.136.805-1.402.297-.276.82-.551 1.574-.551h1.684v-1zM34 31v1h3v-1zm9 0v1h4.063v-1zM17 43v1h14v-1zm20 0v1h6v-1z" style="fill:#fff;opacity:.2"/></svg>