<svg xmlns="http://www.w3.org/2000/svg" width="64" height="64"><circle cx="32" cy="33" r="28" style="opacity:.2"/><circle cx="32" cy="32" r="28" style="fill:#4f4f4f"/><path d="M32 4A28 28 0 0 0 4 32a28 28 0 0 0 .021.586A28 28 0 0 1 32 5a28 28 0 0 1 27.979 27.414L60 32A28 28 0 0 0 32 4" style="fill:#fff;opacity:.1"/><path d="M25 51.5h13.5M21.5 25c0-6 3-10.5 3-10.5h15S42.544 19 42.544 25C42.544 37.503 34 37.527 32 37.5s-10.5.004-10.5-12.5" style="fill:none;opacity:.2;stroke-linecap:round;stroke-linejoin:round;stroke-width:3;stroke:#000"/><path d="M25 50.5h13.5M21.5 24c0-6 3-10.5 3-10.5h15S42.544 18 42.544 24C42.544 36.503 34 36.527 32 36.5s-10.5.004-10.5-12.5" style="fill:none;stroke-linecap:round;stroke-linejoin:round;stroke-width:3;stroke:#e4e4e4"/><path d="M32 50V37" style="fill:none;stroke-width:4;stroke:#e4e4e4"/><path d="M25 25h14c0 9-5 9-7 9s-7 0-7-9" style="opacity:.2"/><path d="M25 24h14c0 9-5 9-7 9s-7 0-7-9" style="fill:#e4e4e4"/></svg>