<svg xmlns="http://www.w3.org/2000/svg" xmlns:xlink="http://www.w3.org/1999/xlink" width="64" height="64"><defs><filter id="c" width="1.198" height="1.198" x="-.099" y="-.099" style="color-interpolation-filters:sRGB"><feGaussianBlur stdDeviation="2.126"/></filter><filter id="d" width="1.188" height="1.187" x="-.094" y="-.094" style="color-interpolation-filters:sRGB"><feGaussianBlur stdDeviation="1.349"/></filter><radialGradient xlink:href="#a" id="b" cx="11.398" cy="51.914" r="29" fx="11.398" fy="51.914" gradientTransform="matrix(0 2.63422 -2.27585 0 122.838 -25.219)" gradientUnits="userSpaceOnUse"/><linearGradient id="a"><stop offset="0" style="stop-color:#00cfff;stop-opacity:1"/><stop offset="1" style="stop-color:#008eff;stop-opacity:1"/></linearGradient></defs><rect width="53.419" height="53.419" x="5.29" y="5.29" rx="13.676" ry="13.676" style="fill:url(#b);fill-opacity:1;stroke-width:.921025"/><path d="M20.271 14.533a5.907 5.907 0 0 0-5.92 5.918v13.807a5.907 5.907 0 0 0 5.92 5.918h23.6a5.905 5.905 0 0 0 5.918-5.918V20.45a5.905 5.905 0 0 0-5.918-5.918zm13.436 3.912h5.638c.738 0 1.335.597 1.335 1.335v5.638c0 .738-.597 1.335-1.335 1.335s-1.428-.597-1.428-1.335v-2.41l-9.254 9.253h2.41c.739 0 1.335.69 1.335 1.428s-.597 1.335-1.334 1.335h-5.638a1.334 1.334 0 0 1-1.335-1.335v-5.638c0-.737.597-1.334 1.335-1.334s1.428.597 1.428 1.334v2.411l9.254-9.253h-2.41c-.739 0-1.336-.69-1.336-1.429 0-.738.597-1.335 1.335-1.335m-15.38 23.526a4.046 4.046 0 0 0-4.046 4.046v.077a4.046 4.046 0 0 0 4.046 4.046h8.785a4.046 4.046 0 0 0 4.046-4.046v-.077a4.046 4.046 0 0 0-4.046-4.046zm18.703 0a4.046 4.046 0 0 0-4.046 4.046v.077a4.046 4.046 0 0 0 4.046 4.046h8.784a4.046 4.046 0 0 0 4.045-4.046v-.077a4.046 4.046 0 0 0-4.045-4.046z" style="fill:#fff;fill-opacity:1;stroke-width:.921025"/><rect width="53.419" height="53.419" x="5.258" y="5.342" rx="13.676" ry="13.676" style="fill:none;fill-opacity:1;stroke-width:.40000001;stroke:#000;stroke-opacity:1;stroke-dasharray:none;filter:url(#c)"/><path d="M20.24 14.585a5.907 5.907 0 0 0-5.921 5.918V34.31a5.907 5.907 0 0 0 5.92 5.918h23.6a5.905 5.905 0 0 0 5.918-5.918V20.503a5.905 5.905 0 0 0-5.918-5.918zm13.435 3.912h5.638c.738 0 1.334.597 1.334 1.335v5.638c0 .738-.596 1.335-1.334 1.335s-1.429-.597-1.429-1.335v-2.41l-9.253 9.253h2.41c.738 0 1.335.69 1.335 1.428s-.597 1.335-1.335 1.335h-5.637a1.334 1.334 0 0 1-1.335-1.335v-5.638c0-.737.597-1.334 1.335-1.334s1.428.597 1.428 1.334v2.411l9.253-9.253h-2.41c-.738 0-1.335-.69-1.335-1.429 0-.738.597-1.335 1.335-1.335zm-15.38 23.526a4.046 4.046 0 0 0-4.046 4.046v.077a4.046 4.046 0 0 0 4.046 4.046h8.785a4.046 4.046 0 0 0 4.046-4.046v-.077a4.046 4.046 0 0 0-4.046-4.046zm18.702 0a4.046 4.046 0 0 0-4.045 4.046v.077a4.046 4.046 0 0 0 4.045 4.046h8.784a4.046 4.046 0 0 0 4.046-4.046v-.077a4.046 4.046 0 0 0-4.046-4.046z" style="fill:none;fill-opacity:1;stroke-width:.2;stroke:#0016ff;stroke-opacity:1;stroke-dasharray:none;filter:url(#d)"/></svg>