<svg xmlns="http://www.w3.org/2000/svg" xmlns:xlink="http://www.w3.org/1999/xlink" width="64" height="64"><defs><filter id="c" width="1.173" height="1.136" x="-.087" y="-.068" style="color-interpolation-filters:sRGB"><feGaussianBlur stdDeviation="1.525"/></filter><filter id="d" width="1.198" height="1.149" x="-.099" y="-.074" style="color-interpolation-filters:sRGB"><feGaussianBlur stdDeviation="1.423"/></filter><radialGradient xlink:href="#a" id="b" cx="8.916" cy="52.562" r="21.985" fx="8.916" fy="52.562" gradientTransform="rotate(-45 -188.804 176.664)scale(3.40941 4.3496)" gradientUnits="userSpaceOnUse"/><linearGradient id="a"><stop offset="0" style="stop-color:#c94903;stop-opacity:1"/><stop offset=".999" style="stop-color:#ff9a00;stop-opacity:1"/></linearGradient></defs><rect width="43.97" height="56.095" x="10.015" y="3.952" rx="6.478" ry="6.478" style="fill:url(#b);fill-opacity:1;stroke:none;stroke-width:8.3;stroke-linejoin:bevel;stroke-opacity:1;paint-order:stroke fill markers"/><path d="M17.799 8A3.8 3.8 0 0 0 14 11.799v40.4A3.8 3.8 0 0 0 17.799 56h28.4A3.8 3.8 0 0 0 50 52.2V28.626a9.18 9.18 0 0 0-2.687-6.486L35.859 10.688A9.18 9.18 0 0 0 29.371 8Zm22.418 0a.576.576 0 0 0-.406.982l9.205 9.206A.576.576 0 0 0 50 17.78v-6.545A3.237 3.237 0 0 0 46.762 8ZM28.99 27.943h6v20h-6zm-10 6h6v14h-6zm20 4h6v10h-6z" style="fill:#f5f5f5"/><rect width="43.97" height="56.095" x="10.015" y="3.952" rx="6.478" ry="6.478" style="fill:none;fill-opacity:1;stroke:#000;stroke-width:.3;stroke-linejoin:bevel;stroke-opacity:1;paint-order:stroke fill markers;stroke-dasharray:none;filter:url(#c)"/><path d="M17.799 8A3.8 3.8 0 0 0 14 11.799v40.4A3.8 3.8 0 0 0 17.799 56h28.4A3.8 3.8 0 0 0 50 52.2V28.626a9.18 9.18 0 0 0-2.687-6.486L35.859 10.688A9.18 9.18 0 0 0 29.371 8Zm22.418 0a.576.576 0 0 0-.406.982l9.205 9.206A.576.576 0 0 0 50 17.78v-6.545A3.237 3.237 0 0 0 46.762 8ZM28.99 27.943h6v20h-6zm-10 6h6v14h-6zm20 4h6v10h-6z" style="fill:none;stroke:#ff4e00;stroke-opacity:1;stroke-width:.3;stroke-dasharray:none;filter:url(#d)"/></svg>