<svg xmlns="http://www.w3.org/2000/svg" xmlns:xlink="http://www.w3.org/1999/xlink" width="64" height="64"><defs><filter id="c" width="1.174" height="1.136" x="-.087" y="-.068" style="color-interpolation-filters:sRGB"><feGaussianBlur stdDeviation="1.529"/></filter><filter id="d" width="1.217" height="1.163" x="-.109" y="-.082" style="color-interpolation-filters:sRGB"><feGaussianBlur stdDeviation="1.568"/></filter><radialGradient xlink:href="#a" id="b" cx="8.916" cy="52.562" r="21.985" fx="8.916" fy="52.562" gradientTransform="rotate(-45 -188.804 176.664)scale(3.40941 4.3496)" gradientUnits="userSpaceOnUse"/><linearGradient id="a"><stop offset="0" style="stop-color:#00ac75;stop-opacity:1"/><stop offset=".998" style="stop-color:#00b543;stop-opacity:1"/></linearGradient></defs><rect width="43.97" height="56.095" x="10.015" y="3.952" rx="6.478" ry="6.478" style="fill:url(#b);fill-opacity:1;stroke:none;stroke-width:8.3;stroke-linejoin:bevel;stroke-opacity:1;paint-order:stroke fill markers"/><path d="M17.8 8a3.8 3.8 0 0 0-3.8 3.8v40.4a3.8 3.8 0 0 0 3.8 3.8h28.4a3.8 3.8 0 0 0 3.8-3.8V28.628a9.18 9.18 0 0 0-2.687-6.488L35.859 10.688A9.18 9.18 0 0 0 29.371 8Zm22.42 0a.576.576 0 0 0-.408.982l9.207 9.207a.576.576 0 0 0 .982-.408v-6.543A3.237 3.237 0 0 0 46.762 8ZM23.15 30.234h17.7a3.15 3.15 0 0 1 3.15 3.15v13.7a3.15 3.15 0 0 1-3.15 3.15h-17.7a3.15 3.15 0 0 1-3.15-3.15v-13.7a3.15 3.15 0 0 1 3.15-3.15m-.062 2A1.09 1.09 0 0 0 22 33.322v1.824a1.09 1.09 0 0 0 1.088 1.088h6.824A1.09 1.09 0 0 0 31 35.146v-1.824a1.09 1.09 0 0 0-1.088-1.088zm11 0A1.09 1.09 0 0 0 33 33.322v1.824a1.09 1.09 0 0 0 1.088 1.088h6.824A1.09 1.09 0 0 0 42 35.146v-1.824a1.09 1.09 0 0 0-1.088-1.088zm-11 6A1.09 1.09 0 0 0 22 39.322v1.824a1.09 1.09 0 0 0 1.088 1.088h6.824A1.09 1.09 0 0 0 31 41.146v-1.824a1.09 1.09 0 0 0-1.088-1.088zm11 0A1.09 1.09 0 0 0 33 39.322v1.824a1.09 1.09 0 0 0 1.088 1.088h6.824A1.09 1.09 0 0 0 42 41.146v-1.824a1.09 1.09 0 0 0-1.088-1.088zm-11 6A1.09 1.09 0 0 0 22 45.322v1.824a1.09 1.09 0 0 0 1.088 1.088h6.824A1.09 1.09 0 0 0 31 47.146v-1.824a1.09 1.09 0 0 0-1.088-1.088zm11 0A1.09 1.09 0 0 0 33 45.322v1.824a1.09 1.09 0 0 0 1.088 1.088h6.824A1.09 1.09 0 0 0 42 47.146v-1.824a1.09 1.09 0 0 0-1.088-1.088z" style="fill:#f5f5f5"/><rect width="43.97" height="56.095" x="10.015" y="3.952" rx="6.478" ry="6.478" style="fill:none;fill-opacity:1;stroke:#000;stroke-width:.30000001;stroke-linejoin:bevel;stroke-opacity:1;paint-order:stroke fill markers;stroke-dasharray:none;filter:url(#c)"/><path d="M17.8 8a3.8 3.8 0 0 0-3.8 3.8v40.4a3.8 3.8 0 0 0 3.8 3.8h28.4a3.8 3.8 0 0 0 3.8-3.8V28.628a9.18 9.18 0 0 0-2.687-6.488L35.859 10.688A9.18 9.18 0 0 0 29.371 8Zm22.42 0a.576.576 0 0 0-.408.982l9.207 9.207a.576.576 0 0 0 .982-.408v-6.543A3.237 3.237 0 0 0 46.762 8ZM23.15 30.234h17.7a3.15 3.15 0 0 1 3.15 3.15v13.7a3.15 3.15 0 0 1-3.15 3.15h-17.7a3.15 3.15 0 0 1-3.15-3.15v-13.7a3.15 3.15 0 0 1 3.15-3.15zm-.062 2A1.09 1.09 0 0 0 22 33.322v1.824a1.09 1.09 0 0 0 1.088 1.088h6.824A1.09 1.09 0 0 0 31 35.146v-1.824a1.09 1.09 0 0 0-1.088-1.088zm11 0A1.09 1.09 0 0 0 33 33.322v1.824a1.09 1.09 0 0 0 1.088 1.088h6.824A1.09 1.09 0 0 0 42 35.146v-1.824a1.09 1.09 0 0 0-1.088-1.088zm-11 6A1.09 1.09 0 0 0 22 39.322v1.824a1.09 1.09 0 0 0 1.088 1.088h6.824A1.09 1.09 0 0 0 31 41.146v-1.824a1.09 1.09 0 0 0-1.088-1.088zm11 0A1.09 1.09 0 0 0 33 39.322v1.824a1.09 1.09 0 0 0 1.088 1.088h6.824A1.09 1.09 0 0 0 42 41.146v-1.824a1.09 1.09 0 0 0-1.088-1.088zm-11 6A1.09 1.09 0 0 0 22 45.322v1.824a1.09 1.09 0 0 0 1.088 1.088h6.824A1.09 1.09 0 0 0 31 47.146v-1.824a1.09 1.09 0 0 0-1.088-1.088zm11 0A1.09 1.09 0 0 0 33 45.322v1.824a1.09 1.09 0 0 0 1.088 1.088h6.824A1.09 1.09 0 0 0 42 47.146v-1.824a1.09 1.09 0 0 0-1.088-1.088z" style="fill:none;stroke:#00ffdb;stroke-opacity:1;stroke-width:.29999992;stroke-dasharray:none;filter:url(#d)"/></svg>