<svg xmlns="http://www.w3.org/2000/svg" xmlns:xlink="http://www.w3.org/1999/xlink" width="64" height="64"><defs><linearGradient id="c"><stop offset="0" style="stop-color:#00b1ff;stop-opacity:1"/><stop offset=".444" style="stop-color:#7e4cff;stop-opacity:1"/><stop offset=".688" style="stop-color:#ca00f5;stop-opacity:1"/><stop offset=".999" style="stop-color:#ff5600;stop-opacity:1"/></linearGradient><linearGradient id="a"><stop offset="0" style="stop-color:#0082ff;stop-opacity:1"/><stop offset=".274" style="stop-color:#6900ff;stop-opacity:1"/><stop offset=".618" style="stop-color:#ca00f5;stop-opacity:1"/><stop offset=".999" style="stop-color:#ff5600;stop-opacity:1"/></linearGradient><linearGradient xlink:href="#a" id="g" x1="14.122" x2="51.536" y1="56.431" y2="6.319" gradientUnits="userSpaceOnUse"/><radialGradient xlink:href="#c" id="d" cx="8.916" cy="52.562" r="21.985" fx="8.916" fy="52.562" gradientTransform="rotate(-45 -188.676 176.642)scale(3.40941 4.3496)" gradientUnits="userSpaceOnUse"/><filter id="e" width="1.177" height="1.139" x="-.088" y="-.069" style="color-interpolation-filters:sRGB"><feGaussianBlur stdDeviation="1.557"/></filter></defs><rect width="43.97" height="56.095" x="10.068" y="4.037" rx="6.478" ry="6.478" style="opacity:1;fill:url(#d);fill-opacity:1;stroke:none;stroke-width:8.3;stroke-linejoin:bevel;stroke-opacity:1;paint-order:stroke fill markers"/><rect width="43.97" height="56.095" x="10.015" y="3.952" rx="6.478" ry="6.478" style="fill:none;fill-opacity:1;stroke:#000;stroke-width:.3;stroke-linejoin:bevel;stroke-opacity:1;paint-order:stroke fill markers;stroke-dasharray:none;filter:url(#e)"/><path d="M14 11.8v40.4a3.8 3.8 45 0 0 3.8 3.8h28.4a3.8 3.8 135 0 0 3.8-3.8V28.628a9.18 9.18 67.5 0 0-2.687-6.487L35.859 10.687A9.18 9.18 22.5 0 0 29.372 8H17.8a3.8 3.8 135 0 0-3.8 3.8m25.81-2.817 9.207 9.206a.576.576 157.5 0 0 .983-.407v-6.545A3.237 3.237 45 0 0 46.763 8h-6.545a.576.576 112.5 0 0-.407.983" style="fill:#f5f5f5"/><path d="M14 11.8v40.4a3.8 3.8 45 0 0 3.8 3.8h28.4a3.8 3.8 135 0 0 3.8-3.8V28.628a9.18 9.18 67.5 0 0-2.687-6.487L35.859 10.687A9.18 9.18 22.5 0 0 29.372 8H17.8a3.8 3.8 135 0 0-3.8 3.8Zm25.81-2.817 9.207 9.206a.576.576 157.5 0 0 .983-.407v-6.545A3.237 3.237 45 0 0 46.763 8h-6.545a.576.576 112.5 0 0-.407.983z" style="fill:none;fill-opacity:1;filter:url(#g);stroke:url(#g);stroke-opacity:1;stroke-width:.20000001;stroke-dasharray:none"/></svg>