<svg xmlns="http://www.w3.org/2000/svg" width="64" height="64"><circle cx="32" cy="33" r="28" style="opacity:.2"/><circle cx="32" cy="32" r="28" style="fill:#8bc34a"/><path d="M32 4A28 28 0 0 0 4 32a28 28 0 0 0 .018.492A28 28 0 0 1 32 5a28 28 0 0 1 27.975 27.492A28 28 0 0 0 60 32 28 28 0 0 0 32 4" style="opacity:.2;fill:#fff"/><circle cx="32" cy="33" r="20" style="opacity:.2"/><circle cx="32" cy="32" r="20" style="fill:#fff"/><path d="M5.324 30A28 21 0 0 0 5 32.994 28.571 30 0 0 0 5 33a28.571 30 0 0 0 .094 1.629A28 21 0 0 0 5.316 36h54.512A28 28 0 0 0 60 33a28 28 0 0 0-.193-3Z" style="opacity:.2"/><path d="M5.324 29A28 21 0 0 0 5 31.994 28.571 30 0 0 0 5 32a28.571 30 0 0 0 .094 1.629A28 21 0 0 0 5.316 35h54.512A28 28 0 0 0 60 32a28 28 0 0 0-.193-3z" style="fill:#4f4f4f"/><rect width="16" height="16" x="2" y="25" rx="2.667" ry="2.667" style="opacity:.2"/><rect width="16" height="16" x="2" y="24" rx="2.667" ry="2.667" style="fill:#4f4f4f"/></svg>