<svg xmlns="http://www.w3.org/2000/svg" xmlns:xlink="http://www.w3.org/1999/xlink" width="64" height="64"><defs><filter id="c" width="1.173" height="1.136" x="-.087" y="-.068" style="color-interpolation-filters:sRGB"><feGaussianBlur stdDeviation="1.524"/></filter><filter id="d" width="1.211" height="1.159" x="-.106" y="-.079" style="color-interpolation-filters:sRGB"><feGaussianBlur stdDeviation="1.524"/></filter><radialGradient xlink:href="#a" id="b" cx="8.916" cy="52.562" r="21.985" fx="8.916" fy="52.562" gradientTransform="rotate(-45 -188.804 176.664)scale(3.40941 4.3496)" gradientUnits="userSpaceOnUse"/><linearGradient id="a"><stop offset=".002" style="stop-color:#ff3b80;stop-opacity:1"/><stop offset=".999" style="stop-color:#ff6319;stop-opacity:1"/></linearGradient></defs><rect width="43.97" height="56.095" x="10.015" y="3.952" rx="6.478" ry="6.478" style="fill:url(#b);fill-opacity:1;stroke:none;stroke-width:8.3;stroke-linejoin:bevel;stroke-opacity:1;paint-order:stroke fill markers"/><path d="M17.8 8a3.8 3.8 0 0 0-3.8 3.8v40.4a3.8 3.8 0 0 0 3.8 3.8h28.4a3.8 3.8 0 0 0 3.8-3.8V28.628a9.18 9.18 0 0 0-2.687-6.488L35.859 10.688A9.18 9.18 0 0 0 29.371 8Zm22.42 0a.576.576 0 0 0-.408.982l9.207 9.207a.576.576 0 0 0 .982-.408v-6.545A3.237 3.237 0 0 0 46.762 8Zm-8.182 17.783c4.194 0 7.778 1.423 9.264 3.438.35.474.587.981.68 1.517a10 5.498 0 0 1 .052.547 10 5.498 0 0 1-.04.465q-.023.122-.054.242a10 5.498 0 0 1-.082.305c-.02.058-.049.114-.072.172a10 5.498 0 0 1-.164.365c-.015.028-.035.056-.05.084a10 5.498 0 0 1-.272.424 10 5.498 0 0 1-.002.006 10 5.498 0 0 1-9.264 3.435 10 5.498 0 0 1-9.263-3.435 10 5.498 0 0 1-.319-.5 10 5.498 0 0 1-.23-.514 10 5.498 0 0 1-.137-.514 3 3 0 0 1-.05-.535 10 5.498 0 0 1 .048-.514c.02-.12.058-.239.092-.357a10 5.498 0 0 1 .04-.16q.093-.261.227-.514.141-.264.329-.517c1.484-2.014 5.068-3.436 9.263-3.436zm-9.267 10a10 5.09 0 0 0 9.263 3.182 10 5.09 0 0 0 9.264-3.182 10 5.09 0 0 1 .736 1.908 10 5.09 0 0 1-10 5.092 10 5.09 0 0 1-10-5.09 10 5.09 0 0 1 .737-1.91m0 6a10 5.09 0 0 0 9.263 3.184 10 5.09 0 0 0 9.264-3.184 10 5.09 0 0 1 .736 1.91 10 5.09 0 0 1-10 5.09 10 5.09 0 0 1-10-5.092 10 5.09 0 0 1 .737-1.908" style="fill:#f5f5f5"/><rect width="43.97" height="56.095" x="10.015" y="3.952" rx="6.478" ry="6.478" style="fill:none;fill-opacity:1;stroke:#000;stroke-width:.3;stroke-linejoin:bevel;stroke-opacity:1;paint-order:stroke fill markers;stroke-dasharray:none;filter:url(#c)"/><path d="M17.8 8a3.8 3.8 0 0 0-3.8 3.8v40.4a3.8 3.8 0 0 0 3.8 3.8h28.4a3.8 3.8 0 0 0 3.8-3.8V28.628a9.18 9.18 0 0 0-2.687-6.488L35.859 10.688A9.18 9.18 0 0 0 29.371 8Zm22.42 0a.576.576 0 0 0-.408.982l9.207 9.207a.576.576 0 0 0 .982-.408v-6.545A3.237 3.237 0 0 0 46.762 8Zm-8.182 17.783c4.194 0 7.778 1.423 9.264 3.438.35.474.587.981.68 1.517a10 5.498 0 0 1 .052.547 10 5.498 0 0 1-.04.465q-.023.122-.054.242a10 5.498 0 0 1-.082.305c-.02.058-.049.114-.072.172a10 5.498 0 0 1-.164.365c-.015.028-.035.056-.05.084a10 5.498 0 0 1-.272.424 10 5.498 0 0 1-.002.006 10 5.498 0 0 1-9.264 3.435 10 5.498 0 0 1-9.264-3.435 10 5.498 0 0 1-.318-.5 10 5.498 0 0 1-.23-.514 10 5.498 0 0 1-.137-.514 3 3 0 0 1-.05-.535 10 5.498 0 0 1 .048-.513c.02-.121.058-.24.092-.358a10 5.498 0 0 1 .04-.16q.093-.261.227-.514.142-.264.328-.517c1.485-2.014 5.07-3.436 9.264-3.436zm-9.267 10a10 5.09 0 0 0 9.263 3.182 10 5.09 0 0 0 9.264-3.182 10 5.09 0 0 1 .736 1.908 10 5.09 0 0 1-10 5.092 10 5.09 0 0 1-10-5.09 10 5.09 0 0 1 .737-1.91zm0 6a10 5.09 0 0 0 9.263 3.184 10 5.09 0 0 0 9.264-3.184 10 5.09 0 0 1 .736 1.91 10 5.09 0 0 1-10 5.09 10 5.09 0 0 1-10-5.092 10 5.09 0 0 1 .737-1.908z" style="fill:none;stroke:#ff4700;stroke-opacity:1;stroke-width:.3;stroke-dasharray:none;filter:url(#d)"/></svg>