<svg xmlns="http://www.w3.org/2000/svg" xmlns:xlink="http://www.w3.org/1999/xlink" width="64" height="64"><defs><filter id="c" width="1.165" height="1.129" x="-.082" y="-.065" style="color-interpolation-filters:sRGB"><feGaussianBlur stdDeviation="1.445"/></filter><filter id="d" width="1.102" height="1.076" x="-.051" y="-.038" style="color-interpolation-filters:sRGB"><feGaussianBlur stdDeviation=".701"/></filter><radialGradient xlink:href="#a" id="b" cx="8.916" cy="52.562" r="21.985" fx="8.916" fy="52.562" gradientTransform="rotate(-45 -188.704 176.629)scale(3.40941 4.3496)" gradientUnits="userSpaceOnUse"/><linearGradient id="a"><stop offset="0" style="stop-color:#00b877;stop-opacity:1"/><stop offset=".999" style="stop-color:#00b237;stop-opacity:1"/></linearGradient></defs><rect width="43.97" height="56.095" x="10.069" y="4.013" rx="6.478" ry="6.478" style="fill:url(#b);fill-opacity:1;stroke:none;stroke-width:8.3;stroke-linejoin:bevel;stroke-opacity:1;paint-order:stroke fill markers"/><path d="M17.8 8a3.8 3.8 0 0 0-3.8 3.802V52.2a3.8 3.8 0 0 0 3.8 3.8h28.4a3.8 3.8 0 0 0 3.801-3.8V28.63a9.18 9.18 0 0 0-2.688-6.489L35.858 10.688a9.18 9.18 0 0 0-6.486-2.687zm22.418 0a.576.576 0 0 0-.406.983l9.205 9.205a.576.576 0 0 0 .984-.406v-6.545A3.237 3.237 0 0 0 46.763 8zM31.95 30.019H43v3.002h-8.99L28.8 51.019h-1.94l-4.38-10.996H18v-2.994h6.32l3.252 8.107zm1.494 8.006h2.596l3.557 4.555 3.552-4.555h2.598l-4.85 6.223L46 51.024h-2.6l-3.9-5.232-3.9 5.232H33l5.207-6.9z" style="fill:#f5f5f5" transform="translate(.001 -.024)"/><rect width="43.97" height="56.095" x="10.015" y="3.952" rx="6.478" ry="6.478" style="fill:none;fill-opacity:1;stroke:#000;stroke-width:.30000001;stroke-linejoin:bevel;stroke-opacity:1;paint-order:stroke fill markers;stroke-dasharray:none;filter:url(#c)"/><path d="M17.799 8A3.8 3.8 0 0 0 14 11.8v40.4a3.8 3.8 0 0 0 3.799 3.8h28.4A3.8 3.8 0 0 0 50 52.2V28.628a9.18 9.18 0 0 0-2.687-6.488L35.857 10.688A9.18 9.18 0 0 0 29.371 8Zm22.418 0a.576.576 0 0 0-.406.982l9.205 9.206A.576.576 0 0 0 50 17.78v-6.545A3.237 3.237 0 0 0 46.762 8Zm-8.268 22.018h11.049v3.002h-8.99l-5.21 17.998h-1.94l-4.38-10.997h-4.48v-2.994h6.32l3.252 8.108zm1.494 8.005h2.596l3.557 4.555 3.552-4.555h2.598l-4.85 6.223 5.102 6.777h-2.6l-3.9-5.232-3.9 5.232h-2.6l5.207-6.9z" style="fill:none;stroke:#00ffa0;stroke-opacity:1;stroke-width:.29999991;stroke-dasharray:none;filter:url(#d)"/></svg>