<svg xmlns="http://www.w3.org/2000/svg" width="64" height="64"><g transform="translate(0 16)"><path d="M8.8 38h50.4a2.8 2.8 0 0 0 2.8-2.813V-4.188A2.8 2.8 0 0 0 59.2-7H8.8A2.8 2.8 0 0 0 6-4.188v39.375A2.8 2.8 0 0 0 8.8 38" style="opacity:.2"/><path d="M8.8 37h50.4a2.8 2.8 0 0 0 2.8-2.812V-5.187A2.8 2.8 0 0 0 59.2-8H8.8A2.8 2.8 0 0 0 6-5.187v39.375A2.8 2.8 0 0 0 8.8 37" style="fill:#e4e4e4"/><path d="M44-4h14v8H44z" style="opacity:.3"/><path d="M56.5 11.5H35.522m20.978 6H35.52m20.98 6H35.522m20.978 6H35.522" style="opacity:.3;fill:none;stroke:#000;stroke-width:3;stroke-linecap:round"/><rect width="31" height="31" x="2" y="11" rx="15.5" ry="15.5" style="opacity:.2"/><rect width="31" height="31" x="2" y="10" rx="15.5" ry="15.5" style="fill:#2968b4"/><path d="M17.5 15C11.701 15 7 19.701 7 25.5S11.701 36 17.5 36 28 31.299 28 25.5 23.299 15 17.5 15m-1.052 2.007c.123-.013.278.007.402 0 .014.058-.09.266-.229.571-.889 1.942-.94 4.219-.114 5.435.15.22.284.43.284.457s-.16.055-.343.055c-.427 0-.832-.26-1.658-.914-.367-.29-.843-.534-1.028-.571-.29-.058-.369-.033-.744.343-.35.35-.457.538-.457.858 0 1.213 1.439 2.175 4.116 2.742 3.635.77 4.531 1.464 4.632 3.375.125 2.397-1.151 4.206-3.947 5.605-.333.167-.545.23-.685.284-.062-.006-.108.006-.17 0-.024-.074-.059-.245-.059-.571 0-1.273-.5-2.584-1.257-3.317-.203-.196-.773-.612-1.26-.914-.486-.301-.977-.65-1.086-.8-.182-.247-.195-.4-.056-.858.254-.836.555-1.303 1.143-1.831.308-.277.617-.507.685-.513.068-.005-.391-.145-1.084-.287a20 20 0 0 1-2.232-.63c-.958-.346-2.25-1.073-2.742-1.6l-.059-.058a9.2 9.2 0 0 1 5.317-6.231 9 9 0 0 1 1.717-.516c.298-.06.606-.083.914-.114m8.578 4.289c.215.133 1.026 1.889 1.257 2.745.3 1.106.278 3.018 0 4.116-.105.418-.239.81-.284.859s-.21-.231-.401-.572-.806-1.064-1.316-1.602c-1.471-1.553-1.703-2.362-1.087-3.6.311-.626 1.665-2.049 1.831-1.946" style="fill:#fff"/><path d="M38.627 12q-.688 0-1.232.24a1.96 1.96 0 0 0-.848.676q-.307.436-.309 1.059 0 .902.492 1.457.502.545 1.516.96.644.261 1.004.5.369.24.52.524a1.3 1.3 0 0 1 .164.678q0 .664-.414 1.023-.414.35-1.143.35-.512 0-.828-.24a1.5 1.5 0 0 1-.469-.643 2.7 2.7 0 0 1-.174-.852q-.37 0-.578.207a.7.7 0 0 0-.209.524q.001.688.547 1.113.555.425 1.623.424 1.23 0 1.95-.578.73-.577.732-1.611 0-.84-.533-1.352-.536-.514-1.497-.906a7 7 0 0 1-1.002-.49q-.37-.24-.533-.534a1.65 1.65 0 0 1-.152-.742q0-.567.35-.904.347-.338.978-.338.457 0 .719.207.272.207.383.523.12.317.12.655.394 0 .622-.174.24-.187.24-.535 0-.48-.533-.852-.535-.37-1.506-.369M9.4 12.11v.458h.141q.36-.001.621.13.274.129.274.609v5.341q0 .513-.262.655a1.4 1.4 0 0 1-.633.129h-.14v.459h2.736v-.46h-.143q-.37.001-.633-.128-.261-.142-.261-.655v-5.037l4.086 6.28h.777v-6.54q-.001-.51.26-.642.261-.14.632-.14h.141v-.46h-2.734v.46h.14q.361-.001.623.128.271.13.27.61v4.828l-3.9-6.026zm8.623 0v.458h.143q.37 0 .63.141.263.13.263.643v5.351q0 .479-.274.61-.26.12-.619.119h-.143v.459h5.84l.078-1.907h-.566l-.076.47a1.2 1.2 0 0 1-.295.63q-.23.261-.742.262H20.16v-3.26h2.625v-.533H20.16v-2.899h1.832q.49 0 .695.274.219.26.262.619l.055.469h.566l-.052-1.907zm6.364 0v.458h.14q.315 0 .489.12.175.119.285.455l1.994 6.748h1.002l1.67-6.104 1.775 6.104h.98l1.844-6.475q.151-.545.325-.697.186-.152.504-.15h.205v-.46h-2.66v.46h.25q.72 0 .721.533 0 .086-.045.26l-.074.304-.961 3.371a16 16 0 0 0-.25.957l-.186.828a29 29 0 0 0-.468-1.918l-1.362-4.718h-.787l-1.297 4.675q-.14.524-.25 1.035-.108.502-.195.926a35 35 0 0 0-.469-1.84l-1.002-3.49a4 4 0 0 0-.066-.217 1 1 0 0 1-.023-.183q0-.524.654-.524h.252v-.459z" style="opacity:.7" transform="translate(0 -16)"/><path d="M8.8 8A2.8 2.8 0 0 0 6 10.813v1A2.8 2.8 0 0 1 8.8 9h50.4a2.8 2.8 0 0 1 2.8 2.813v-1A2.8 2.8 0 0 0 59.2 8z" style="fill:#fff;opacity:.2" transform="translate(0 -16)"/></g></svg>