<svg xmlns="http://www.w3.org/2000/svg" width="64" height="64"><path d="M4 56.2v2C4 59.75 5.25 61 6.8 61h50.4c1.55 0 2.8-1.25 2.8-2.8v-2c0 1.55-1.25 2.8-2.8 2.8H6.8C5.25 59 4 57.75 4 56.2" style="opacity:.2"/><rect width="56" height="56" x="4" y="4" rx="2.8" ry="2.8" style="fill:#ec8c38"/><path d="M60 57.2V6.8C60 5.25 58.75 4 57.2 4H32v56h25.2c1.55 0 2.8-1.249 2.8-2.8" style="opacity:.2;fill:#fff"/><path d="M6.8 4C5.25 4 4 5.25 4 6.8v1.003a2.796 2.796 0 0 1 2.8-2.801h50.4c1.55 0 2.8 1.25 2.8 2.8v-1A2.796 2.796 0 0 0 57.2 4z" style="opacity:.2;fill:#fff"/><g style="opacity:.2"><path d="M18 17A10 10 0 0 0 8 27a10 10 0 0 0 10 10 10 10 0 0 0 10-10 10 10 0 0 0-10-10m0 6a4 4 0 0 1 4 4 4 4 0 0 1-4 4 4 4 0 0 1-4-4 4 4 0 0 1 4-4"/><path d="M16 51h4V31h-4zm4-4h4v-4h-4z"/></g><g style="fill:#ffdf98"><path d="M9 8a5 5 0 0 0-5 5 5 5 0 0 0 5 5 5 5 0 0 0 5-5 5 5 0 0 0-5-5m0 3a2 2 0 0 1 2 2 2 2 0 0 1-2 2 2 2 0 0 1-2-2 2 2 0 0 1 2-2" style="fill:#ffef78" transform="scale(1.99997)"/><path d="M8-25h2v10H8zm2 2h2v2h-2z" style="fill:#ffef78" transform="scale(1.99997 -1.99997)"/></g></svg>