<svg xmlns="http://www.w3.org/2000/svg" width="64" height="64"><path d="M4 54.8v2A4.19 4.19 0 0 0 8.2 61h47.6c2.327 0 4.2-2 4.2-4.2v-2a4.19 4.19 0 0 1-4.2 4.2H8.198C5.872 59 4 57 4 54.8" style="opacity:.2"/><rect width="56" height="56" x="4" y="4" rx="4.2" ry="4.2" style="fill:#3465a4"/><path d="M7 10v14h10v-3h-7V10zm8 0v3h7v11h3V10z" style="opacity:.2" transform="matrix(2 0 0 2 0 -1)"/><g style="fill:#fff"><path d="M14 18h6v28h-6z"/><path d="M34 40v6H14v-6zm16 6h-6V18h6z"/><path d="M30 24v-6h20v6z"/></g><path d="M8.2 4A4.19 4.19 0 0 0 4 8.2v1A4.19 4.19 0 0 1 8.2 5h47.599A4.19 4.19 0 0 1 60 9.2v-1A4.19 4.19 0 0 0 55.799 4z" style="opacity:.2;fill:#fff"/></svg>