<svg xmlns="http://www.w3.org/2000/svg" width="64" height="64"><path d="M6 48v2c0 3.324 2.676 6 6 6h40l6 6v-2l-6-6H12c-3.324 0-6-2.676-6-6" style="opacity:.2"/><rect width="52" height="52" x="6" y="3" rx="6" ry="6" style="fill:#bb050b"/><path d="m44 48 14 14v-2L46 48z" style="opacity:.2;fill-rule:evenodd"/><path d="M58 61 44 47h14Z" style="fill:#bb050b;fill-rule:evenodd"/><path d="M29.352 18s-3.961-.086-8.157 2.996S15 28.458 15 37.648c0 0 3.448 4.15 9.887 4.352 0 0 1.079-1.268 1.953-2.363-3.7-1.095-5.102-3.371-5.102-3.371 3.41 1.905 5.727 2.7 9.262 2.734 3.535-.033 7.853-.829 11.262-2.734 0 0-1.402 2.276-5.102 3.37.874 1.096 1.953 2.364 1.953 2.364 6.44-.202 9.887-4.352 9.887-4.352 0-9.19-2-13.57-6.195-16.652S34.648 18 34.648 18l-.293.346c5.245 1.47 7.633 3.742 7.633 3.742C39 20 34 20 32 20s-7 0-9.988 2.088c0 0 2.388-2.273 7.633-3.742zM27 28c1.676 0 3.03 1.56 3 3.5 0 1.94-1.324 3.5-3 3.5-1.647 0-3-1.56-3-3.5s1.324-3.5 3-3.5m10 0c1.676 0 3 1.56 3 3.5S38.647 35 37 35c-1.676 0-3-1.56-3-3.5-.03-1.94 1.324-3.5 3-3.5" style="opacity:.2"/><path d="M29.352 17s-3.961-.086-8.157 2.996S15 27.458 15 36.648c0 0 3.448 4.15 9.887 4.352 0 0 1.079-1.268 1.953-2.363-3.7-1.095-5.102-3.371-5.102-3.371 3.41 1.905 5.727 2.7 9.262 2.734 3.535-.033 7.853-.829 11.262-2.734 0 0-1.402 2.276-5.102 3.37.874 1.096 1.953 2.364 1.953 2.364 6.44-.202 9.887-4.352 9.887-4.352 0-9.19-2-13.57-6.195-16.652S34.648 17 34.648 17l-.293.346c5.245 1.47 7.633 3.742 7.633 3.742C39 19 34 19 32 19s-7 0-9.988 2.088c0 0 2.388-2.273 7.633-3.742zM27 27c1.676 0 3.03 1.56 3 3.5 0 1.94-1.324 3.5-3 3.5-1.647 0-3-1.56-3-3.5s1.324-3.5 3-3.5m10 0c1.676 0 3 1.56 3 3.5S38.647 34 37 34c-1.676 0-3-1.56-3-3.5-.03-1.94 1.324-3.5 3-3.5" style="fill:#fff"/><path d="M12 3C8.676 3 6 5.676 6 9v1c0-3.324 2.676-6 6-6h40c3.324 0 6 2.676 6 6V9c0-3.324-2.676-6-6-6z" style="opacity:.2;fill:#fff"/></svg>