<svg xmlns="http://www.w3.org/2000/svg" width="64" height="64"><circle cx="32" cy="33" r="28" style="opacity:.2"/><ellipse cx="32" cy="32" rx="27.638" ry="27.656" style="fill:#3f3f3f"/><path d="M42.71 6.125c6.018 4.987 9.77 14.071 8.408 21.927-.867 5.426-4.596 10.312-10.113 11.695-3.254.887-7.405-.173-8.907-3.434-.716-1.422-.442-3.633.133-5.043.682-2.96-1.778-5.335-4.552-5.995-4.64-1.258-9.48 1.047-12.056 4.857-4.05 5.821-3.785 13.805-.576 19.94 1.559 3.009 3.713 5.767 6.375 7.857 8.79 3.678 19.41 2.384 27.063-3.297 7.764-5.562 12.245-15.311 11.417-24.83-.67-9.51-6.595-18.422-15.106-22.71a28 28 0 0 0-2.085-.967" style="fill:#3f3f3f"/><path d="M32.168 5c-5.93-.02-11.87 1.817-16.652 5.367-6.77 4.85-11.043 12.885-11.477 21.172a28 28 0 0 0 13.047 23.137c-3.657-4.448-5.82-9.871-4.805-15.727.868-5.425 5.198-11.312 10.715-12.695 3.254-.887 7.404.172 8.906 3.433.716 1.422.443 3.634-.132 5.044-.683 2.96 1.776 5.332 4.55 5.992 4.64 1.258 10.08-1.467 12.657-5.277 4.049-5.821 3.783-14.384.574-20.52-1.559-3.008-4.311-5.766-6.973-7.855-3.297-1.38-6.852-2.059-10.41-2.07M24 30a2 2 0 0 0-2 2c0 1.104.895 3 2 3s2-1.896 2-3a2 2 0 0 0-2-2" style="opacity:.2"/><path d="m42.71 6.125-21.42 51.75c-6.017-4.987-10.368-12.072-9.007-19.928.868-5.425 5.195-11.312 10.713-12.695 3.254-.886 7.405.174 8.907 3.435.716 1.421.442 2.632-.133 4.042-.682 2.96 1.778 6.335 4.552 6.995 4.639 1.259 10.08-1.467 12.655-5.277 4.05-5.821 3.785-14.384.576-20.52-1.559-3.008-4.313-5.766-6.974-7.856-8.791-3.678-19.411-2.384-27.063 3.297-7.748 5.55-12.229 15.27-11.422 24.771.65 9.533 6.582 18.472 15.11 22.768q1.024.527 2.086.968" style="fill:#e4e4e4"/><circle cx="24" cy="32" r="2" style="fill:#e4e4e4"/><circle cx="40" cy="32" r="2" style="fill:#3f3f3f"/><path d="M32 4A28 28 0 0 0 4 32a28 28 0 0 0 .033.482A28 28 0 0 1 32 5a28 28 0 0 1 27.982 27.242L60 32A28 28 0 0 0 32 4" style="opacity:.1;fill:#fff"/></svg>