<svg xmlns="http://www.w3.org/2000/svg" width="64" height="64"><path d="M4.043 31.828A28 28 0 0 0 4 33a28 28 0 0 0 28 28 28 28 0 0 0 28-28 28 28 0 0 0-.042-.828A28 28 0 0 1 32 59 28 28 0 0 1 4.044 31.828Z" style="opacity:.2"/><path d="M32 4A28 28 0 0 0 4 32a28 28 0 0 0 28 28 28 28 0 0 0 28-28A28 28 0 0 0 32 4" style="fill:#4f4f4f"/><path d="M32 12a21 21 0 0 1 21 21 21 21 0 0 1-21 21 21 21 0 0 1-21-21 21 21 0 0 1 21-21" style="opacity:.2"/><path d="M32 11a21 21 0 0 1 21 21 21 21 0 0 1-21 21 21 21 0 0 1-21-21 21 21 0 0 1 21-21" style="fill:#fff"/><path d="m27 16-3.916 11.92L20 29l-2 8 2.809-.982L18 44h26l2-7H32.531l1.586-5.64L38 30l2-8-3.605 1.262L39 16Z" style="fill:#4f4f4f"/><path d="M32 4A28 28 0 0 0 4 32l.021.406A28 28 0 0 1 32 5a28 28 0 0 1 27.979 27.578A28 28 0 0 0 60 32 28 28 0 0 0 32 4" style="opacity:.1;fill:#fff"/></svg>