<svg xmlns="http://www.w3.org/2000/svg" xmlns:xlink="http://www.w3.org/1999/xlink" width="64" height="64"><defs><radialGradient xlink:href="#a" id="c" cx="3.604" cy="69.384" r="28" fx="3.604" fy="69.384" gradientTransform="matrix(3.66312 0 0 2.22404 -28.348 -92.906)" gradientUnits="userSpaceOnUse"/><radialGradient xlink:href="#b" id="f" cx="36.65" cy="52.676" r="8" fx="36.65" fy="52.676" gradientTransform="matrix(3.8177 0 0 4.53346 -103.27 -184.14)" gradientUnits="userSpaceOnUse"/><linearGradient id="b"><stop offset="0" style="stop-color:#42e67d;stop-opacity:1"/><stop offset="1" style="stop-color:#1fc256;stop-opacity:1"/></linearGradient><linearGradient id="a"><stop offset="0" style="stop-color:#2f2f2f;stop-opacity:1"/><stop offset="1" style="stop-color:#686868;stop-opacity:1"/></linearGradient><filter id="e" width="1.193" height="1.283" x="-.096" y="-.142" style="color-interpolation-filters:sRGB"><feGaussianBlur stdDeviation="1.966"/></filter><filter id="d" width="1.241" height="1.47" x="-.12" y="-.234" style="color-interpolation-filters:sRGB"><feGaussianBlur stdDeviation="1.966"/></filter></defs><g transform="translate(21.785 -2.148)"><path d="M17.251 6H46.75A5.25 5.25 45 0 1 52 11.251v19.557H12V11.25A5.25 5.25 135 0 1 17.251 6" style="fill:#b4b4b4;fill-opacity:1" transform="translate(-21.784 1.123)"/><path d="M16 10.345v3.77a1.115 1.115 45 0 0 1.115 1.115h7.77A1.115 1.115 135 0 0 26 14.116v-3.77a1.115 1.115 45 0 0-1.115-1.116h-7.77A1.115 1.115 135 0 0 16 10.345" style="opacity:.450368;fill:#000;fill-opacity:1" transform="translate(-26.45 -.968)scale(1.29688)"/><path d="M16 10.345v3.77a1.115 1.115 45 0 0 1.115 1.115h7.77A1.115 1.115 135 0 0 26 14.116v-3.77a1.115 1.115 45 0 0-1.115-1.116h-7.77A1.115 1.115 135 0 0 16 10.345" style="opacity:.450368;fill:#000;fill-opacity:1" transform="translate(-7.587 -.889)scale(1.29688)"/><rect width="49.931" height="34" x="-14.751" y="27.173" rx="7.882" ry="7.882" style="fill:url(#c)"/><path d="M-4.533 7.124a5.25 5.25 0 0 0-5.25 5.25v15.351a7.9 7.9 0 0 1 2.916-.553h34.168a7.9 7.9 0 0 1 2.916.553V12.374a5.25 5.25 0 0 0-5.252-5.25Zm.28 3.878H5.821a1.446 1.446 0 0 1 1.448 1.446v4.89a1.446 1.446 0 0 1-1.448 1.446H-4.254a1.446 1.446 0 0 1-1.445-1.446v-4.89a1.446 1.446 0 0 1 1.445-1.446zm18.863.079h10.076a1.446 1.446 0 0 1 1.447 1.447v4.889a1.446 1.446 0 0 1-1.447 1.445H14.61a1.446 1.446 0 0 1-1.446-1.445v-4.89a1.446 1.446 0 0 1 1.446-1.446z" style="mix-blend-mode:normal;fill:none;stroke:#000;stroke-width:.2;stroke-dasharray:none;stroke-opacity:1;filter:url(#d)"/><path d="M-6.868 27.173a7.865 7.865 0 0 0-7.883 7.881v18.237a7.866 7.866 0 0 0 7.883 7.882H27.3a7.865 7.865 0 0 0 7.88-7.882V35.054a7.863 7.863 0 0 0-7.88-7.88z" style="mix-blend-mode:normal;fill:none;fill-opacity:1;stroke:#000;stroke-width:.2;stroke-dasharray:none;stroke-opacity:1;filter:url(#e)"/></g><path d="M38.787 44.671a9.45 9.45 0 0 0 9.45 9.45c5.165 0 9.354-3.793 9.44-8.939q.008-.078.009-.157c0-.87-.903-1.535-1.772-1.535-.87 0-1.772.666-1.772 1.535 0 3.48-2.426 5.552-5.905 5.552s-5.906-2.426-5.906-5.906c0-3.258 2.128-5.593 5.256-5.876.358-.033.65.262.65.62v2.356a.533.533 22.5 0 0 .909.376l4.181-4.181a1.286 1.286 90.003 0 0 0-1.819l-4.18-4.18a.533.533 157.502 0 0-.91.376v2.228a.686.686 0 0 1-.65.672 9.45 9.45 0 0 0-8.799 9.427z" style="fill:url(#f)" transform="rotate(45 43.345 23.61)"/></svg>