<svg xmlns="http://www.w3.org/2000/svg" width="64" height="64"><circle cx="32" cy="33" r="28" style="opacity:.2"/><circle cx="32" cy="32" r="28" style="fill:#e95420"/><path d="M8 37h6.468A18 18 0 0 0 32 51c9.941 0 18-8.059 18-18-.011-9.159-6.898-16.85-16-17.868 0 0-2-.132-2 1.868s2 2.16 2 2.16A14 14 0 0 1 46 33c0 7.732-6.268 14-14 14a14 14 0 0 1-13.402-10H24l-8-8Z" style="opacity:.2"/><path d="M8 36h6.468A18 18 0 0 0 32 50c9.941 0 18-8.059 18-18-.011-9.159-6.898-16.85-16-17.868 0 0-2-.132-2 1.868s2 2.16 2 2.16A14 14 0 0 1 46 32c0 7.732-6.268 14-14 14a14 14 0 0 1-13.402-10H24l-8-8Z" style="fill:#fff"/><path d="M32 4A28 28 0 0 0 4 32a28 28 0 0 0 .021.586A28 28 0 0 1 32 5a28 28 0 0 1 27.979 27.414L60 32A28 28 0 0 0 32 4" style="fill:#fff;opacity:.2"/></svg>