<svg xmlns="http://www.w3.org/2000/svg" width="64" height="64"><rect width="56" height="56" x="4" y="5" ry="20" style="opacity:.2"/><rect width="56" height="56" x="4" y="4" ry="20" style="fill:#e4e4e4"/><path d="M24 4C12.92 4 4 12.92 4 24v1C4 13.92 12.92 5 24 5h16c11.08 0 20 8.92 20 20v-1c0-11.08-8.92-20-20-20z" style="fill:#fff;opacity:.2"/><circle cx="32" cy="33" r="12" style="opacity:.1"/><circle cx="32" cy="32" r="12" style="fill:teal"/><path d="M32 10a23 23 0 0 0-6.852 1.07 5 5 0 0 0 5.348 4.004S31.334 15 32 15s1.504.074 1.504.074a5 5 0 0 0 5.353-4.023A23 23 0 0 0 32 10m10.672 2.629a5 5 0 0 0 .941 6.633s.645.539 1.117 1.011c.47.472 1.004 1.114 1.004 1.114a5 5 0 0 0 6.635.939 23 23 0 0 0-9.697-9.697m-21.272.019a23 23 0 0 0-9.724 9.704 5 5 0 0 0 6.586-.965s.54-.643 1.011-1.114a21 21 0 0 1 1.114-1.011 5 5 0 0 0 1.013-6.614M10.09 26.094A23 23 0 0 0 9 33a23 23 0 0 0 1.09 6.906l.09-.004a5 5 0 0 0 3.922-5.882S14 33.334 14 33s.102-1.02.102-1.02a5 5 0 0 0-3.922-5.882zm43.859.049a5 5 0 0 0-4.023 5.353S50 32.334 50 33s-.074 1.504-.074 1.504a5 5 0 0 0 4.004 5.348A23 23 0 0 0 55 33a23 23 0 0 0-1.051-6.857M14.141 42.719a5 5 0 0 0-2.453.828l-.045.041a23 23 0 0 0 9.765 9.767l.045-.046a5 5 0 0 0-1.387-6.932s-.553-.409-.793-.647l-.003-.003c-.239-.24-.645-.793-.645-.793a5 5 0 0 0-3.184-2.129 5 5 0 0 0-1.3-.086m35.75.066a5 5 0 0 0-4.157 1.828s-.537.647-1.011 1.121c-.472.47-1.11 1-1.11 1a5 5 0 0 0-.967 6.592 23 23 0 0 0 9.68-9.68 5 5 0 0 0-2.435-.861m-19.395 8.141a5 5 0 0 0-5.348 4.004A23 23 0 0 0 32 56a23 23 0 0 0 6.852-1.07 5 5 0 0 0-5.348-4.004S32.666 51 32 51s-1.504-.074-1.504-.074" style="opacity:.1"/><path d="M32 9a23 23 0 0 0-6.852 1.07 5 5 0 0 0 5.348 4.004S31.334 14 32 14s1.504.074 1.504.074a5 5 0 0 0 5.353-4.023A23 23 0 0 0 32 9m10.672 2.629a5 5 0 0 0 .941 6.633s.645.539 1.117 1.011c.47.472 1.004 1.114 1.004 1.114a5 5 0 0 0 6.635.939 23 23 0 0 0-9.697-9.697m-21.272.019a23 23 0 0 0-9.724 9.704 5 5 0 0 0 6.586-.965s.54-.643 1.011-1.114a21 21 0 0 1 1.114-1.011 5 5 0 0 0 1.013-6.614M10.09 25.094A23 23 0 0 0 9 32a23 23 0 0 0 1.09 6.906l.09-.004a5 5 0 0 0 3.922-5.882S14 32.334 14 32s.102-1.02.102-1.02a5 5 0 0 0-3.922-5.882zm43.859.049a5 5 0 0 0-4.023 5.353S50 31.334 50 32s-.074 1.504-.074 1.504a5 5 0 0 0 4.004 5.348A23 23 0 0 0 55 32a23 23 0 0 0-1.051-6.857M14.141 41.719a5 5 0 0 0-2.453.828l-.045.041a23 23 0 0 0 9.765 9.767l.045-.046a5 5 0 0 0-1.387-6.932s-.553-.409-.793-.647l-.003-.003c-.239-.24-.645-.793-.645-.793a5 5 0 0 0-3.184-2.129 5 5 0 0 0-1.3-.086m35.75.066a5 5 0 0 0-4.157 1.828s-.537.647-1.011 1.121c-.472.47-1.11 1-1.11 1a5 5 0 0 0-.967 6.592 23 23 0 0 0 9.68-9.68 5 5 0 0 0-2.435-.861m-19.395 8.141a5 5 0 0 0-5.348 4.004A23 23 0 0 0 32 55a23 23 0 0 0 6.852-1.07 5 5 0 0 0-5.348-4.004S32.666 50 32 50s-1.504-.074-1.504-.074" style="fill:teal"/></svg>