<svg xmlns="http://www.w3.org/2000/svg" width="64" height="64"><circle cx="32.5" cy="32.5" r="28.5" style="opacity:.2"/><circle cx="32.5" cy="31.5" r="28.5" style="fill:#50b590"/><rect width="51" height="17" x="7" y="23" rx="2.833" ry="2.833" style="fill:#30706b"/><path d="M15.5 27c-.762 0-1.375.613-1.375 1.375v.807l-.57-.57a1.37 1.37 0 0 0-1.944 0 1.37 1.37 0 0 0 0 1.943l.57.57h-.806c-.762 0-1.375.613-1.375 1.375s.613 1.375 1.375 1.375h.807l-.57.57a1.37 1.37 0 0 0 0 1.944 1.37 1.37 0 0 0 1.943 0l.57-.57v.806c0 .762.613 1.375 1.375 1.375s1.375-.613 1.375-1.375v-.807l.57.57a1.37 1.37 0 0 0 1.944 0 1.37 1.37 0 0 0 0-1.943l-.57-.57h.806c.762 0 1.375-.613 1.375-1.375s-.613-1.375-1.375-1.375h-.807l.57-.57a1.37 1.37 0 0 0 0-1.944 1.37 1.37 0 0 0-1.943 0l-.57.57v-.806c0-.762-.613-1.375-1.375-1.375m13 0c-.762 0-1.375.613-1.375 1.375v.807l-.57-.57a1.37 1.37 0 0 0-1.944 0 1.37 1.37 0 0 0 0 1.943l.57.57h-.806c-.762 0-1.375.613-1.375 1.375s.613 1.375 1.375 1.375h.807l-.57.57a1.37 1.37 0 0 0 0 1.944 1.37 1.37 0 0 0 1.943 0l.57-.57v.806c0 .762.613 1.375 1.375 1.375s1.375-.613 1.375-1.375v-.807l.57.57a1.37 1.37 0 0 0 1.944 0 1.37 1.37 0 0 0 0-1.943l-.57-.57h.806c.762 0 1.375-.613 1.375-1.375s-.613-1.375-1.375-1.375h-.807l.57-.57a1.37 1.37 0 0 0 0-1.944 1.37 1.37 0 0 0-1.943 0l-.57.57v-.806c0-.762-.613-1.375-1.375-1.375m13 0c-.762 0-1.375.613-1.375 1.375v.807l-.57-.57a1.37 1.37 0 0 0-1.944 0 1.37 1.37 0 0 0 0 1.943l.57.57h-.806c-.762 0-1.375.613-1.375 1.375s.613 1.375 1.375 1.375h.807l-.57.57a1.37 1.37 0 0 0 0 1.944 1.37 1.37 0 0 0 1.943 0l.57-.57v.806c0 .762.613 1.375 1.375 1.375s1.375-.613 1.375-1.375v-.807l.57.57a1.37 1.37 0 0 0 1.944 0 1.37 1.37 0 0 0 0-1.943l-.57-.57h.806c.762 0 1.375-.613 1.375-1.375s-.613-1.375-1.375-1.375h-.807l.57-.57a1.37 1.37 0 0 0 0-1.944 1.37 1.37 0 0 0-1.943 0l-.57.57v-.806c0-.762-.613-1.375-1.375-1.375" style="opacity:.2"/><rect width="2.75" height="11" x="27.13" y="26" rx="1.375" ry="1.375" style="fill:#fff"/><rect width="2.75" height="11" x="30.13" y="-34" rx="1.375" ry="1.375" style="fill:#fff" transform="rotate(90)"/><rect width="2.75" height="11" x="-3.5" y="36.93" rx="1.375" ry="1.375" style="fill:#fff" transform="rotate(-45)"/><rect width="2.75" height="11" x="41.05" y="-3.38" rx="1.375" ry="1.375" style="fill:#fff" transform="rotate(45)"/><rect width="2.75" height="11" x="14.13" y="26" rx="1.375" ry="1.375" style="fill:#fff"/><rect width="2.75" height="11" x="30.13" y="-21" rx="1.375" ry="1.375" style="fill:#fff" transform="rotate(90)"/><rect width="2.75" height="11" x="-12.69" y="27.73" rx="1.375" ry="1.375" style="fill:#fff" transform="rotate(-45)"/><rect width="2.75" height="11" x="31.86" y="5.81" rx="1.375" ry="1.375" style="fill:#fff" transform="rotate(45)"/><rect width="2.75" height="11" x="40.13" y="26" rx="1.375" ry="1.375" style="fill:#fff"/><rect width="2.75" height="11" x="30.13" y="-47" rx="1.375" ry="1.375" style="fill:#fff" transform="rotate(90)"/><rect width="2.75" height="11" x="5.7" y="46.12" rx="1.375" ry="1.375" style="fill:#fff" transform="rotate(-45)"/><rect width="2.75" height="11" x="50.24" y="-12.57" rx="1.375" ry="1.375" style="fill:#fff" transform="rotate(45)"/><path d="M32.5 3A28.5 28.5 0 0 0 4 31.5a29 29 0 0 0 .021.582A28.5 28.5 0 0 1 32.5 4a28.5 28.5 0 0 1 28.479 27.918L61 31.5A28.5 28.5 0 0 0 32.5 3" style="opacity:.2;fill:#fff"/><path d="M9.834 23A2.83 2.83 0 0 0 7 25.834v1A2.83 2.83 0 0 1 9.834 24h45.332A2.83 2.83 0 0 1 58 26.834v-1A2.83 2.83 0 0 0 55.166 23z" style="opacity:.1"/><path d="M9.834 41A2.83 2.83 0 0 1 7 38.166v-1A2.83 2.83 0 0 0 9.834 40h45.332A2.83 2.83 0 0 0 58 37.166v1A2.83 2.83 0 0 1 55.166 41Z" style="opacity:.1;fill:#fff"/></svg>