<svg xmlns="http://www.w3.org/2000/svg" width="64" height="64"><rect width="56" height="56" x="4" y="5" rx="4.2" ry="4.2" style="opacity:.2"/><rect width="56" height="56" x="4" y="4" rx="4.2" ry="4.2" style="fill:#003745"/><path d="M36.021 16a3.889 6.07 78.451 0 0-2.341.314 3.889 6.07 78.451 0 0-4.532 5.245 3.889 6.07 78.451 0 0 7.172 2.125 3.889 6.07 78.451 0 0 4.532-5.245A3.889 6.07 78.451 0 0 36.022 16m-19.757 1.008a6.682 5.231 45 0 0-3.139 1.428 6.682 5.231 45 0 0 1.377 8.457 6.682 5.231 45 0 0 8.373.671 6.682 5.231 45 0 0-1.377-8.457 6.682 5.231 45 0 0-5.234-2.1M35.5 28A14.5 11 0 0 0 21 39a14.5 11 0 0 0 14.5 11A14.5 11 0 0 0 50 39a14.5 11 0 0 0-14.5-11" style="opacity:.2"/><path d="M36.021 15a3.889 6.07 78.451 0 0-2.341.314 3.889 6.07 78.451 0 0-4.532 5.245 3.889 6.07 78.451 0 0 7.172 2.125 3.889 6.07 78.451 0 0 4.532-5.245A3.889 6.07 78.451 0 0 36.022 15m-19.757 1.008a6.682 5.231 45 0 0-3.139 1.428 6.682 5.231 45 0 0 1.377 8.457 6.682 5.231 45 0 0 8.373.671 6.682 5.231 45 0 0-1.377-8.457 6.682 5.231 45 0 0-5.234-2.1M35.5 27A14.5 11 0 0 0 21 38a14.5 11 0 0 0 14.5 11A14.5 11 0 0 0 50 38a14.5 11 0 0 0-14.5-11" style="fill:#85c8c8"/><path d="M8.2 4A4.19 4.19 0 0 0 4 8.2v1A4.19 4.19 0 0 1 8.2 5h47.6A4.19 4.19 0 0 1 60 9.2v-1A4.19 4.19 0 0 0 55.8 4z" style="fill:#fff;opacity:.1"/><path d="M36.021 15a3.889 6.07 78.451 0 0-2.341.314 3.889 6.07 78.451 0 0-4.594 4.885 3.889 6.07 78.451 0 1 4.594-3.885A3.889 6.07 78.451 0 1 36.02 16a3.889 6.07 78.451 0 1 4.83 2.44 3.889 6.07 78.451 0 1 .063.359 3.889 6.07 78.451 0 0-.062-1.36A3.889 6.07 78.451 0 0 36.022 15m-19.757 1.008a6.682 5.231 45 0 0-3.139 1.428 6.682 5.231 45 0 0-1.07 3.709 6.682 5.231 45 0 1 1.07-2.71 6.682 5.231 45 0 1 3.139-1.427 6.682 5.231 45 0 1 5.234 2.1 6.682 5.231 45 0 1 2.447 4.747 6.682 5.231 45 0 0-2.447-5.748 6.682 5.231 45 0 0-5.234-2.1M35.5 27A14.5 11 0 0 0 21 38a14.5 11 0 0 0 .05.5A14.5 11 0 0 1 35.5 28a14.5 11 0 0 1 14.469 10.309A14.5 11 0 0 0 50 38a14.5 11 0 0 0-14.5-11" style="fill:#fff;opacity:.2"/></svg>