<svg xmlns="http://www.w3.org/2000/svg" width="64" height="64"><circle cx="32" cy="33" r="28" style="opacity:.2"/><circle cx="32" cy="32" r="28" style="fill:#17c8d9"/><path d="M47.04 15.678 14.065 21.56l.131.75.701 4.023.116.666 32.972-5.883-.115-.668-.701-4.023ZM15.013 27v.818H15v17.955C15 46.998 16.058 48 17.281 48H46.7c1.222 0 2.3-1.002 2.3-2.227V27Z" style="opacity:.1"/><path d="M49 44.774C49 45.998 47.922 47 46.699 47H17.282C16.058 47 15 45.998 15 44.774V28.582c0-1.225 1.058-2.226 2.282-2.226h29.417c1.223 0 2.301 1.001 2.301 2.226z" style="fill:#0f303f"/><path d="M15.014 26H49v6H15.014Z" style="fill:#fff"/><path d="m20.582 26.818-4.03 4.379h4.083l4.03-4.38zm16.976 0-4.03 4.379h4.084l4.03-4.38zm-11.318 0-4.03 4.379h4.084l4.03-4.38zm5.659 0-4.03 4.379h4.084l4.03-4.38zm11.317 0-4.03 4.379h4.084l4.03-4.38zm5.76 0-4.131 4.379H49v-4.38zm-33.975 0v4.379h.026l4.088-4.38z" style="fill:#0f303f"/><path d="M10.33 22.71h33.494v5.522H10.33z" style="fill:#fff" transform="rotate(-9.88)skewY(-.238)"/><path d="m37.816 17.095 4.625 3.324 3.976-.71-4.625-3.324zm-16.53 2.95 4.626 3.324 3.976-.71-4.625-3.324zm11.02-1.967 4.625 3.325 3.976-.71-4.625-3.324zm-5.51.984 4.626 3.324 3.976-.71-4.625-3.324zm-11.018 1.966 4.625 3.324 3.976-.71-4.625-3.324zm-1.58.282.7 4.025 3.971-.71-4.625-3.324zm29.022-5.18 4.625 3.325.026-.005-.701-4.025z" style="fill:#0f303f"/><path d="M47 38.496h-.008V34H17v11h29.992v-6H47zm-.463-4.041v4.04H35.502v-4.04Zm-11.54 0v4.04H22.474v-4.04Zm-17.542 10.09v-10.09h4.512v10.09zm5.018 0V39h12.525v5.545zm24.064 0H35.502V39h11.035z" style="fill:#fdc00f"/><path d="M32 4A28 28 0 0 0 4 32a28 28 0 0 0 .035.5A28 28 0 0 1 32 5a28 28 0 0 1 27.982 27.252L60 32A28 28 0 0 0 32 4" style="fill:#fff;opacity:.2"/></svg>