<svg xmlns="http://www.w3.org/2000/svg" width="64" height="64"><circle cx="32" cy="33" r="28" style="opacity:.2"/><circle cx="32" cy="32" r="28" style="fill:#00acc4"/><path d="M32 4A28 28 0 0 0 4 32a28 28 0 0 0 .022.586A28 28 0 0 1 32 5a28 28 0 0 1 27.979 27.414L60 32A28 28 0 0 0 32 4" style="opacity:.2;fill:#fff"/><path d="M32 15a12 12 0 0 0-12 12 12 12 0 0 0 12 12 12 12 0 0 0 12-12 12 12 0 0 0-12-12m0 24a24 24 0 0 0-21.012 12.455A28 28 0 0 0 32 61a28 28 0 0 0 21.035-9.55A24 24 0 0 0 32 39" style="opacity:.2"/><path d="M32 14a12 12 0 0 0-12 12 12 12 0 0 0 12 12 12 12 0 0 0 12-12 12 12 0 0 0-12-12m0 24a24 24 0 0 0-21.012 12.455A28 28 0 0 0 32 60a28 28 0 0 0 21.035-9.55A24 24 0 0 0 32 38" style="fill:#a9d5a0"/><path d="M32 14a12 12 0 0 0-12 12 12 12 0 0 0 .02.406A12 12 0 0 1 32 15a12 12 0 0 1 11.98 11.594A12 12 0 0 0 44 26a12 12 0 0 0-12-12m3.922 24.328A12 12 0 0 1 32 39a24 24 0 0 1 20.666 11.85 28 28 0 0 0 .37-.4 24 24 0 0 0-17.114-12.122M32 39a12 12 0 0 1-3.86-.654 24 24 0 0 0-17.152 12.11 28 28 0 0 0 .367.38A24 24 0 0 1 32 39" style="opacity:.2;fill:#fff"/><path d="m22 23 7 2v-1l-6-3zm20 0-7 2v-1l6-3z" style="fill:#3f3f3f"/><path d="M17 22h30L32 11z" style="opacity:.2"/><path d="M17 21h30L32 10z" style="fill:#db6d7d"/><path d="M22 25h5v5h-5zm15 0h5v5h-5z" style="fill:#fff"/><path d="M32 10 17 21h1.363L32 11l13.637 10H47z" style="opacity:.2;fill:#fff"/></svg>