<svg xmlns="http://www.w3.org/2000/svg" width="64" height="64"><path d="M12 54.398v2C12 57.838 13.19 59 14.668 59h34.664C50.81 59 52 57.838 52 56.398v-2C52 55.838 50.81 57 49.332 57H14.668C13.191 57 12 55.838 12 54.398" style="opacity:.2"/><rect width="52" height="40" x="-58" y="-52" rx="2.6" ry="2.666" style="fill:#e4e4e4" transform="rotate(90)scale(-1 1)"/><path d="M14.668 6C13.191 6 12 7.161 12 8.602v1C12 8.162 13.19 7 14.668 7h34.664C50.81 7 52 8.161 52 9.602v-1C52 7.162 50.81 6 49.332 6z" style="opacity:.2;fill:#fff"/><path d="M39.7-11.52h12.806V1.286H39.7zM25.94-2.88h6.404v6.404H25.94z" style="fill:#e74c3c" transform="matrix(.6247 .78087 -.6247 .78087 0 0)"/><path d="M-66.28 7.36h6.404v6.404h-6.404z" style="fill:#e74c3c" transform="matrix(-.6247 -.78087 .6247 -.78087 0 0)"/><path d="M19.5 17h-3l-.5 1h-2l2.963-8H19l3.086 8H20Zm-2.403-2h1.891L18 12zM47.5 47h-3l-.5-1h-2l2.963 8H47l3.086-8H48Zm-2.403 2h1.891L46 52z" style="fill:#e74c3c"/></svg>