<svg xmlns="http://www.w3.org/2000/svg" width="64" height="64"><rect width="58" height="42" x="3" y="12" rx="3.955" ry="3.938" style="opacity:.2"/><rect width="58" height="42" x="3" y="11" rx="3.955" ry="3.938" style="fill:#00cfff"/><path d="M8 22v22h14v-4H12V22Zm24.543 0c-2.41-.045-5.09.753-6.43 2.863-1.002 1.664-1.1 3.818-.39 5.606.797 1.908 2.657 3.052 4.468 3.906 1.345.713 2.873 1.224 3.922 2.363.967 1.127.25 3.088-1.222 3.356-2.256.498-4.533-.233-6.598-1.09-.54-.144-1.486-.934-1.258.047v3.656c2.784 1.313 6.033 1.61 9.04.965 2.289-.48 4.375-2.225 4.788-4.559.375-1.916.006-4.097-1.5-5.472-1.983-1.906-4.786-2.567-6.972-4.176-1.124-.936-.788-2.973.62-3.457 1.653-.547 3.44-.054 5.024.496.594.089 1.496.963 1.617 0l1.254-3.008c-2.011-.859-4.146-1.535-6.363-1.496M42 22v21.95l4 .05v-7.883l2.133-.047c1.964-.139 3.52-.343 4.656-1.02q1.733-1.012 2.473-2.671A8.4 8.4 0 0 0 56 28.855q0-3.196-1.816-5.011-1.79-1.845-5.707-1.844Zm4 3.992h2.254Q52 25.992 52 28.93q0 1.61-1.187 2.343-1.154.705-3.153.704H46Z" style="opacity:.2"/><path d="M8 21v22h14v-4H12V21zm24.543 0c-2.41-.045-5.09.753-6.43 2.863-1.002 1.664-1.1 3.818-.39 5.606.797 1.908 2.657 3.052 4.468 3.906 1.345.713 2.873 1.224 3.922 2.363.967 1.127.25 3.088-1.222 3.356-2.256.498-4.533-.233-6.598-1.09-.54-.144-1.486-.934-1.258.047v3.656c2.784 1.313 6.033 1.61 9.04.965 2.289-.48 4.375-2.225 4.788-4.559.375-1.916.006-4.097-1.5-5.472-1.983-1.906-4.786-2.567-6.972-4.176-1.124-.936-.788-2.973.62-3.457 1.653-.547 3.44-.054 5.024.496.594.089 1.496.963 1.617 0l1.254-3.008c-2.011-.859-4.146-1.535-6.363-1.496M42 21v21.95l4 .05v-7.883l2.133-.047c1.964-.139 3.52-.343 4.656-1.02q1.733-1.012 2.473-2.671A8.4 8.4 0 0 0 56 27.855q0-3.196-1.816-5.011Q52.394 21 48.477 21zm4 3.992h2.254Q52 24.992 52 27.93q0 1.61-1.187 2.343-1.154.705-3.153.704H46z" style="fill:#fff"/><path d="M6.953 11A3.936 3.936 0 0 0 3 14.938v1A3.936 3.936 0 0 1 6.953 12h50.094A3.936 3.936 0 0 1 61 15.938v-1A3.936 3.936 0 0 0 57.047 11z" style="opacity:.2;fill:#fff"/></svg>