<svg xmlns="http://www.w3.org/2000/svg" width="64" height="64"><path d="M59.684 37C57.749 50.598 46.149 61 32 61c-8.653 0-16.376-3.938-21.512-10.105l-3.61 3.609A1.7 1.7 0 0 1 5.665 55 1.69 1.69 0 0 1 4 53.313V38.687A1.69 1.69 0 0 1 5.688 37h14.625a1.688 1.688 0 0 1 1.195 2.879l-2.461 2.46c.117.163.229.328.351.485q.327.416.68.809c.077.086.148.177.227.262.196.21.406.41.613.609q.333.32.684.621c.203.175.401.352.613.516l.031.023a16 16 0 0 0 3.793 2.16q.607.246 1.238.442c.198.061.394.125.594.18q.824.221 1.68.355c.175.027.354.045.531.066.63.076 1.267.133 1.918.133a16 16 0 0 0 15.48-12Z" style="opacity:.2"/><circle cx="32" cy="32" r="22" style="fill:#fff"/><path d="M32 5c8.652 0 16.38 3.932 21.516 10.098l3.605-3.606A1.7 1.7 0 0 1 58.336 11 1.69 1.69 0 0 1 60 12.688v14.625A1.69 1.69 0 0 1 58.313 29H43.687a1.688 1.688 0 0 1-1.195-2.879l2.457-2.457c-.021-.03-.037-.064-.058-.094q-.317-.434-.66-.843a16 16 0 0 0-.919-1c-.17-.172-.337-.349-.515-.512-.417-.382-.86-.738-1.317-1.074q-.297-.222-.605-.43a16 16 0 0 0-2.113-1.191 16 16 0 0 0-1.672-.676c-.18-.061-.365-.11-.547-.164a16 16 0 0 0-1.938-.461c-.108-.018-.219-.024-.328-.04A16 16 0 0 0 32 17a16 16 0 0 0-15.48 12H4.316C6.251 15.402 17.851 5 32 5" style="opacity:.1"/><path d="M32 4c8.652 0 16.38 3.932 21.516 10.098l3.605-3.606A1.7 1.7 0 0 1 58.336 10 1.69 1.69 0 0 1 60 11.688v14.625A1.69 1.69 0 0 1 58.313 28H43.687a1.688 1.688 0 0 1-1.195-2.879l2.457-2.457c-.021-.03-.037-.064-.058-.094q-.317-.434-.66-.843a16 16 0 0 0-.919-1c-.17-.172-.337-.349-.515-.512-.417-.382-.86-.738-1.317-1.074q-.297-.222-.605-.43a16 16 0 0 0-2.113-1.191 16 16 0 0 0-1.672-.676c-.18-.061-.365-.11-.547-.164a16 16 0 0 0-1.938-.461c-.108-.018-.219-.024-.328-.04A16 16 0 0 0 32 16a16 16 0 0 0-15.48 12H4.316C6.251 14.402 17.851 4 32 4" style="fill:#48a9ff"/><path d="M59.684 36C57.749 49.598 46.149 60 32 60c-8.653 0-16.376-3.938-21.512-10.105l-3.61 3.609A1.7 1.7 0 0 1 5.665 54 1.69 1.69 0 0 1 4 52.313V37.687A1.69 1.69 0 0 1 5.688 36h14.625a1.688 1.688 0 0 1 1.195 2.879l-2.461 2.46c.117.163.229.328.351.485q.327.416.68.809c.077.086.148.177.227.262.196.21.406.41.613.609q.333.32.684.621c.203.175.401.352.613.516l.031.023a16 16 0 0 0 3.793 2.16q.607.246 1.238.442c.198.061.394.125.594.18q.824.221 1.68.355c.175.027.354.045.531.066.63.076 1.267.133 1.918.133a16 16 0 0 0 15.48-12Z" style="fill:#486afb"/><path d="M32 4C17.85 4 6.25 14.402 4.316 28h.166C6.83 14.896 18.2 5 32 5c8.652 0 16.38 3.932 21.516 10.098l3.605-3.606A1.688 1.688 0 0 1 60 12.687v-1a1.688 1.688 0 0 0-2.879-1.195l-3.605 3.606C48.379 7.932 40.652 4 32 4" style="opacity:.2;fill:#fff"/></svg>