<svg xmlns="http://www.w3.org/2000/svg" width="64" height="64"><path d="M32.15 5v.003a6.341 6.367 0 0 0-3.321.847L10.17 16.668A6.341 6.367 0 0 0 7 22.183v21.634a6.341 6.367 0 0 0 3.171 5.513L28.83 60.147a6.341 6.367 0 0 0 6.342 0L53.83 49.33A6.341 6.367 0 0 0 57 43.817V22.183a6.341 6.367 0 0 0-3.171-5.515L35.17 5.85A6.341 6.367 0 0 0 32.15 5" style="opacity:.2"/><path d="M32.15 4v.003a6.341 6.367 0 0 0-3.321.847L10.17 15.668A6.341 6.367 0 0 0 7 21.183v21.634a6.341 6.367 0 0 0 3.171 5.513L28.83 59.147a6.341 6.367 0 0 0 6.342 0L53.83 48.33A6.341 6.367 0 0 0 57 42.817V21.183a6.341 6.367 0 0 0-3.171-5.515L35.17 4.85A6.341 6.367 0 0 0 32.15 4" style="fill:#3f3f3f"/><path d="M32.143 12a1.5 1.5 0 0 0-.664.186s-4.439 2.432-8.89 5.046c-2.224 1.308-4.45 2.659-6.155 3.795-.853.569-1.57 1.078-2.127 1.537-.279.23-.516.44-.737.692S13 23.722 13 24.6V41h3V25.074c.069-.065.101-.101.215-.195.411-.34 1.076-.818 1.883-1.356 1.613-1.075 3.812-2.412 6.011-3.705 4.035-2.37 7.438-4.236 8.08-4.59.636.358 3.949 2.215 7.887 4.583 2.15 1.292 4.299 2.628 5.875 3.703.788.537 1.437 1.015 1.838 1.353.112.095.144.133.211.197V41h3V24.6c0-.86-.339-1.078-.555-1.33a6 6 0 0 0-.72-.696c-.546-.46-1.249-.97-2.082-1.539-1.668-1.137-3.845-2.487-6.02-3.795-4.35-2.615-8.69-5.049-8.69-5.049a1.5 1.5 0 0 0-.687-.191zm.357 5.5-.354.646-.646.354.646.354.354.646.354-.646.646-.354-.646-.354Zm-4.592 2.408A12.6 12.6 0 0 0 20 31.6c0 5.047 2.974 9.389 7.26 11.4H11v.666h4v.668h-4V45h6v.666h-4v.668h8V47h-4v.666h9v.668h-2V49h14v-.666h-2v-.668h9V47h-4v-.666h8v-.668h-4V45h6v-.666h-4v-.668h4V43H37.959a12.6 12.6 0 0 0 6.334-6.707 12.6 12.6 0 0 1-4.693.906 12.596 12.596 0 0 1-11.691-17.291M41.5 23.5l-.354.646-.646.354.646.354.354.646.354-.646.646-.354-.646-.354Zm-11 .5-.531.969L29 25.5l.969.531.531.969.531-.969L32 25.5l-.969-.531Zm-12 .5-.354.646-.646.354.646.354.354.646.354-.646.646-.354-.646-.354Zm17 2-.354.646-.646.354.646.354.354.646.354-.646.646-.354-.646-.354Zm8 2-.707 1.293-1.293.707 1.293.707.707 1.293.707-1.293L45.5 30.5l-1.293-.707Zm-6 2.5-.531.969L36 32.5l.969.531.531.969.531-.969L39 32.5l-.969-.531Zm-18 5.5-.707 1.293-1.293.707 1.293.707.707 1.293.707-1.293L21.5 38.5l-1.293-.707Z" style="opacity:.2"/><path d="m32.5 16.5.354.646.646.354-.646.354-.354.646-.354-.646-.646-.354.646-.354Zm9 6 .354.646.646.354-.646.354-.354.646-.354-.646-.646-.354.646-.354Zm-23 1 .354.646.646.354-.646.354-.354.646-.354-.646-.646-.354.646-.354Zm12-.5.53.97.97.53-.97.53-.53.97-.53-.97-.97-.53.97-.53Zm5 2.5.354.646.646.354-.646.354-.354.646-.354-.646-.646-.354.646-.354Zm8 2 .707 1.293 1.293.707-1.293.707L43.5 31.5l-.707-1.293L41.5 29.5l1.293-.707Zm-6 2.5.53.97.97.53-.97.53-.53.97-.53-.97-.97-.53.97-.53Zm-18 5.5.707 1.293 1.293.707-1.293.707L19.5 39.5l-.707-1.293L17.5 37.5l1.293-.707Z" style="fill:#fff"/><path d="M14.5 40V23.6c0-1.4 17.7-11.1 17.7-11.1s17.3 9.7 17.3 11.1V40" style="fill:none;stroke:#fff;stroke-width:3;stroke-linejoin:round"/><path d="M27.908 18.908A12.6 12.6 0 0 0 20 30.6a12.6 12.6 0 0 0 12.6 12.6 12.6 12.6 0 0 0 11.692-7.908 12.6 12.6 0 0 1-4.692.908A12.6 12.6 0 0 1 27 23.6a12.6 12.6 0 0 1 .908-4.692" style="fill:#fff"/><path d="M11 42h40v.667H11zm0 1.33h40v.667H11zm2 1.34h36v.667H13zM17 46h28v.667H17zm7 1.33h14v.667H24z" style="fill:#fff"/><path d="M15 42.67h32v.667H15zM17 44h28v.667H17zm4 1.33h20v.667H21zm5 1.34h10v.667H26z" style="fill:#fff"/><path d="M32.148 4v.004a6.341 6.367 0 0 0-3.32.848L10.172 15.668A6.341 6.367 0 0 0 7 21.184v.914a6.341 6.367 0 0 1 3.172-5.43L28.828 5.852a6.341 6.367 0 0 1 3.32-.848V5a6.341 6.367 0 0 1 3.024.852l18.656 10.816A6.341 6.367 0 0 1 57 22.184v-1a6.341 6.367 0 0 0-3.172-5.516L35.172 4.852A6.341 6.367 0 0 0 32.148 4" style="opacity:.1;fill:#fff"/></svg>