<svg xmlns="http://www.w3.org/2000/svg" width="64" height="64"><rect width="56" height="56" x="4" y="5" rx="5" ry="5" style="opacity:.2"/><rect width="56" height="56" x="4" y="4" rx="5" ry="5" style="fill:#1ab7ea"/><path d="M9 4C6.23 4 4 6.23 4 9v1c0-2.77 2.23-5 5-5h46c2.77 0 5 2.23 5 5V9c0-2.77-2.23-5-5-5z" style="fill:#fff;opacity:.2"/><path d="M15 16v34h16V16Zm16 34h18V32Zm13-34c-1.234 3.322-2.677 4.766-6 6 3.323 1.235 4.765 2.677 6 6 1.234-3.323 2.678-4.766 6-6-3.324-1.234-4.766-2.676-6-6" style="opacity:.2"/><path d="M15 15v34h16V15zm16 34h18V31zm13-34c-1.234 3.322-2.677 4.766-6 6 3.323 1.235 4.765 2.677 6 6 1.234-3.323 2.678-4.766 6-6-3.324-1.234-4.766-2.676-6-6" style="fill:#fff"/></svg>