<svg xmlns="http://www.w3.org/2000/svg" xmlns:xlink="http://www.w3.org/1999/xlink" width="64" height="64" viewBox="0 0 64 64"><defs><radialGradient xlink:href="#a" id="c" cx="36.209" cy="20.482" r="28.115" fx="36.209" fy="20.482" gradientTransform="matrix(0 2.00985 -1.59759 0 64.619 -69.216)" gradientUnits="userSpaceOnUse"/><radialGradient xlink:href="#b" id="e" cx="30.053" cy="9.266" r="22.131" fx="30.053" fy="9.266" gradientTransform="matrix(0 4.0342 -5.15573 0 77.828 -118.27)" gradientUnits="userSpaceOnUse"/><linearGradient id="b"><stop offset="0" style="stop-color:#f10;stop-opacity:1"/><stop offset="1" style="stop-color:#000;stop-opacity:1"/></linearGradient><linearGradient id="a"><stop offset="0" style="stop-color:#ffc54e;stop-opacity:1"/><stop offset="1" style="stop-color:#ff8732;stop-opacity:1"/></linearGradient><filter id="d" width="1.17" height="1.134" x="-.085" y="-.067" style="color-interpolation-filters:sRGB"><feGaussianBlur stdDeviation="1.837"/></filter><filter id="f" width="1.148" height="1.119" x="-.074" y="-.061" style="color-interpolation-filters:sRGB"><feGaussianBlur stdDeviation="1.553"/></filter></defs><path d="M54.113 3.654C49.405 9.713 42.374 13.9 38.617 15.42c-.715 2.344 1.154 1.86 1.922 3.155-.94 5.8-.122 32.902-.122 32.902s4.269-12.029 5.35-17.44c1.082-5.412 1.393-15.43 1.393-15.43.718-4.022 6.307-6.532 6.953-14.954m-44.28.037c.645 8.423 6.234 10.93 6.952 14.953 0 0 .31 10.02 1.392 15.431 1.082 5.412 5.352 17.44 5.352 17.44s.818-27.101-.121-32.901c.768-1.296 2.634-.812 1.92-3.156C21.57 13.938 14.54 9.75 9.832 3.691m22.15 2.517c-1.079 5.246-2.22 10.67-4.306 15.684.643 7.863.896 15.755.924 23.643 1.752 4.701 2.606 9.762 3.382 14.646.782-4.953 1.631-9.945 3.382-14.662.029-7.888.28-15.78.923-23.643-2.06-5.023-3.284-10.35-4.305-15.668" style="fill:url(#c);fill-opacity:1;stroke:none;stroke-width:.146854;stroke-linecap:round;stroke-linejoin:round;stroke-miterlimit:4.6"/><path d="M67.672 6.86c-5.68 7.31-14.163 12.363-18.696 14.198-.862 2.828 1.392 2.243 2.319 3.806-1.133 6.998-.147 39.696-.147 39.696s5.15-14.513 6.455-21.041c1.305-6.53 1.68-18.616 1.68-18.616.866-4.853 7.61-7.88 8.389-18.043m-53.424.045c.779 10.162 7.522 13.188 8.389 18.041 0 0 .374 12.089 1.68 18.618 1.304 6.528 6.456 21.04 6.456 21.04s.986-32.697-.146-39.695c.926-1.563 3.178-.978 2.316-3.806-4.533-1.835-13.015-6.887-18.695-14.198m26.725 3.037c-1.302 6.33-2.679 12.873-5.196 18.922.777 9.487 1.08 19.009 1.116 28.526 2.112 5.672 3.143 11.777 4.08 17.67.942-5.976 1.967-11.999 4.08-17.69.034-9.517.337-19.039 1.113-28.525-2.484-6.06-3.961-12.488-5.193-18.903" style="mix-blend-mode:normal;fill:none;fill-opacity:1;stroke:#000;stroke-width:.285708;stroke-linecap:round;stroke-linejoin:round;stroke-miterlimit:4.6;stroke-dasharray:none;stroke-opacity:1;filter:url(#d)" transform="translate(-1.95 -1.998)scale(.82886)"/><path d="M9.861 3.735c4.022 6.972 9.32 12.27 15.367 11.678C21.46 13.868 14.533 9.721 9.86 3.735m44.262-.096c-4.046 7.042-9.394 12.4-15.498 11.744-.057.192-.221.75-.139 1.166.067.675 4.977.745 5.487 1.349.26 6.05-3.546 33.565-3.546 33.565s4.269-12.029 5.35-17.44c1.082-5.412 1.393-15.43 1.393-15.43.718-4.022 6.307-6.532 6.953-14.954M31.987 6.23l-.005 53.974c.781-4.953 1.636-9.947 3.387-14.664.028-7.888.279-15.78.922-23.643-2.059-5.023-3.283-10.35-4.304-15.667M25.47 16.318c0 .087 0 .176-.016.256-.066.674-4.975.745-5.485 1.348-.26 6.05 3.543 33.522 3.543 33.522l.006.065s.817-27.102-.121-32.902c.653-1.103 2.098-.922 2.073-2.289" style="opacity:.54482852;mix-blend-mode:overlay;fill:url(#e);stroke:none;stroke-width:.146854;stroke-linecap:round;stroke-linejoin:round;stroke-miterlimit:4.6"/><path d="M59.14-2.078C54.016 4.854 50.955 8.312 42.129 9.78m-.285 2.007c.51 1.042 5.043.296 5.884 1.292.333 7.707-3.532 35.174-3.59 36.69M5.126-3.061C9.647 4.18 15.082 8.706 22.408 9.793M32.48 2.885l-.086 58.133M22.59 11.923c-.51 1.042-4.886.098-5.728 1.094-.332 7.706 3.98 35.908 4.038 37.423" style="mix-blend-mode:normal;fill:none;fill-opacity:1;stroke:#ffde00;stroke-width:.636849;stroke-linecap:butt;stroke-linejoin:bevel;stroke-miterlimit:4.6;stroke-dasharray:none;stroke-opacity:1;filter:url(#f)" transform="translate(6.52 7.751)scale(.78512)"/></svg>