<svg xmlns="http://www.w3.org/2000/svg" width="64" height="64"><circle cx="32" cy="33" r="28" style="opacity:.2"/><circle cx="32" cy="32" r="28" style="fill:#4f4f4f"/><path d="m25.248 25-3.049 18h13.442l7.361-18h-2.8L35 37.719v-7.762c-.47.157-.976.242-1.5.242s-1.03-.085-1.5-.242V40h-6.492l2.539-15z" style="opacity:.2"/><path d="M32 15a18 18 0 0 0-18 18 18 18 0 0 0 18 18 18 18 0 0 0 18-18 18 18 0 0 0-18-18m0 3a15 15 0 0 1 15 15 15 15 0 0 1-15 15 15 15 0 0 1-15-15 15 15 0 0 1 15-15" style="opacity:.2"/><path d="M25.248 24h2.8L25 42h-2.8z" style="fill:#fff"/><path d="M34.726 39v3H22.2l.84-3Z" style="fill:#fff"/><path d="M32 14a18 18 0 0 0-18 18 18 18 0 0 0 18 18 18 18 0 0 0 18-18 18 18 0 0 0-18-18m0 3a15 15 0 0 1 15 15 15 15 0 0 1-15 15 15 15 0 0 1-15-15 15 15 0 0 1 15-15" style="fill:#6f6fee"/><path d="M32 28.957V41.8h3V28.957a4.73 4.73 0 0 1-3 0" style="fill:#fff"/><path d="M40.201 24h2.8L35.64 42h-2.8z" style="fill:#fff"/><path d="M14.996 22.004c-1.062.02-2.01.123-2.832.322-1.463.354-2.69 1.052-3.06 2.412s.29 2.743 1.316 3.994c.836 1.02 2.194 2.049 3.621 3.094q.079-1.207.31-2.367c-.955-.755-1.917-1.476-2.435-2.107-.803-.98-.939-1.616-.86-1.907.08-.29.508-.725 1.653-1.002s2.848-.349 4.916-.18c4.136.34 9.738 1.625 15.723 3.784 5.984 2.159 11.22 4.784 14.785 7.223 1.782 1.219 3.148 2.397 3.951 3.376s.94 1.618.861 1.909-.509.725-1.654 1.002c-.85.205-2.2.292-3.596.257a18 18 0 0 1-1.382 2.096c2.118.161 4.101.105 5.521-.238 1.463-.354 2.692-1.054 3.062-2.414s-.294-2.74-1.32-3.99c-1.026-1.252-2.52-2.516-4.41-3.809-3.78-2.587-9.136-5.259-15.258-7.467S22.06 22.46 17.674 22.1a30 30 0 0 0-1.578-.09 23 23 0 0 0-1.1-.006" style="opacity:.2"/><path d="M14.996 21.004c-1.062.02-2.01.123-2.832.322-1.463.354-2.69 1.052-3.06 2.412s.29 2.743 1.316 3.994c.836 1.02 2.194 2.049 3.621 3.094q.079-1.207.31-2.367c-.955-.755-1.917-1.476-2.435-2.107-.803-.98-.939-1.616-.86-1.907.08-.29.508-.725 1.653-1.002s2.848-.349 4.916-.18c4.136.34 9.738 1.625 15.723 3.784 5.984 2.159 11.22 4.784 14.785 7.223 1.782 1.219 3.148 2.397 3.951 3.376s.94 1.618.861 1.909-.509.725-1.654 1.002c-.85.205-2.2.292-3.596.257a18 18 0 0 1-1.383 2.096c2.119.161 4.102.105 5.522-.238 1.463-.354 2.692-1.054 3.062-2.414s-.294-2.74-1.32-3.99c-1.026-1.252-2.52-2.516-4.41-3.809-3.78-2.587-9.136-5.259-15.258-7.467S22.06 21.46 17.674 21.1a30 30 0 0 0-1.578-.09 23 23 0 0 0-1.1-.006" style="fill:#59d4f1"/><circle cx="33.5" cy="26.5" r="2.5" style="opacity:.2"/><circle cx="33.5" cy="25.5" r="2.5" style="fill:#fff"/><path d="M32 4A28 28 0 0 0 4 32a28 28 0 0 0 .035.5A28 28 0 0 1 32 5a28 28 0 0 1 27.982 27.252L60 32A28 28 0 0 0 32 4" style="fill:#fff;opacity:.1"/></svg>