<svg xmlns="http://www.w3.org/2000/svg" width="64" height="64"><rect width="57" height="57" x="4" y="4" rx="2.85" ry="2.85" style="opacity:.2"/><rect width="57" height="57" x="4" y="3" rx="2.85" ry="2.85" style="fill:#f2385a"/><path d="M12 11v8h6v-1.025h-5.076V11Zm11 0q.233 1.92.982 3.068.688 1.057 2.012 2V19h1.012v-2.932q1.324-.943 2.012-2 .749-1.15.982-3.068h-1.023q-.202 1.57-.809 2.514-.566.882-1.668 1.672-1.102-.79-1.668-1.672-.607-.945-.809-2.514Zm12 0v8h.896v-5.63L41 19v-8h-.896v5.61zm11 0v8h6v-1.025h-5.078V15H51v-.914h-4.078v-2.06H52V11ZM16 22.5l-4 4 4 4 4-4zm11 0-4 4 4 4 4-4zm11 0-4 4 4 4 4-4zm11 0-4 4 4 4 4-4zm-33 11-4 4 4 4 4-4zm11 0-4 4 4 4 4-4zm11 0-4 4 4 4 4-4zm11 0-4 4 4 4 4-4zm-33 11-4 4 4 4 4-4zm11 0-4 4 4 4 4-4zm11 0-4 4 4 4 4-4zm11 0-4 4 4 4 4-4z" style="opacity:.2"/><path d="M12 10v8h6v-1.025h-5.076V10zm11 0q.233 1.92.982 3.068.688 1.057 2.012 2V18h1.012v-2.932q1.324-.943 2.012-2 .749-1.15.982-3.068h-1.023q-.202 1.57-.809 2.514-.566.882-1.668 1.672-1.102-.79-1.668-1.672-.607-.945-.809-2.514zm12 0v8h.896v-5.63L41 18v-8h-.896v5.61zm11 0v8h6v-1.025h-5.078V14H51v-.914h-4.078v-2.06H52V10zM16 21.5l-4 4 4 4 4-4zm11 0-4 4 4 4 4-4zm11 0-4 4 4 4 4-4zm11 0-4 4 4 4 4-4zm-33 11-4 4 4 4 4-4zm11 0-4 4 4 4 4-4zm11 0-4 4 4 4 4-4zm11 0-4 4 4 4 4-4zm-33 11-4 4 4 4 4-4zm11 0-4 4 4 4 4-4zm11 0-4 4 4 4 4-4zm11 0-4 4 4 4 4-4z" style="fill:#fff"/><path d="M6.85 3A2.843 2.843 0 0 0 4 5.85v1C4 5.27 5.27 4 6.85 4h51.3C59.73 4 61 5.27 61 6.85v-1C61 4.27 59.73 3 58.15 3z" style="fill:#fff;opacity:.2"/></svg>