<svg xmlns="http://www.w3.org/2000/svg" width="64" height="64"><path d="M4.05 32c-.011.334-.05.662-.05 1 0 15.512 12.488 28 28 28a27.94 27.94 0 0 0 28-28c0-.337-.04-.665-.052-1-.528 15.042-12.775 27-27.95 27C16.826 59 4.579 47.042 4.05 32" style="opacity:.2"/><rect width="56" height="56" x="4" y="4" rx="28" ry="28" style="fill:#246e9a"/><path d="M32 13a20 20 0 0 0-20 20 20 20 0 0 0 20 20 20 20 0 0 0 20-20 20 20 0 0 0-20-20m0 6c2.216 0 4 1.608 4 3.602V39.4c0 1.993-1.784 3.6-4 3.6s-4-1.608-4-3.602V22.602C28 20.608 29.784 19 32 19m-12 8c2.216 0 4 1.784 4 4v8c0 2.216-1.784 4-4 4s-4-1.784-4-4v-8c0-2.216 1.784-4 4-4m24 0c2.215 0 4 1.784 4 4v8c0 2.216-1.785 4-4 4a3.99 3.99 0 0 1-4-4v-8c0-2.216 1.783-4 4-4" style="opacity:.2"/><path d="M32 12a20 20 0 0 0-20 20 20 20 0 0 0 20 20 20 20 0 0 0 20-20 20 20 0 0 0-20-20m0 6c2.216 0 4 1.608 4 3.603v16.795C36 40.392 34.216 42 32 42s-4-1.608-4-3.602V21.603C28 19.608 29.784 18 32 18m-12 8c2.216 0 4 1.784 4 4v8c0 2.216-1.784 4-4 4s-4-1.784-4-4v-8c0-2.216 1.784-4 4-4m24 0c2.215 0 4 1.784 4 4v8c0 2.216-1.785 4-4 4a3.99 3.99 0 0 1-4-4v-8c0-2.216 1.783-4 4-4" style="fill:#fff"/><path d="M32 4C16.488 4 4 16.488 4 32c0 .114.011.224.018.336C4.369 17.134 16.71 5 32 5s27.63 12.134 27.982 27.336c.007-.112.018-.222.018-.336C60 16.488 47.512 4 32 4" style="opacity:.2;fill:#fff"/></svg>