<svg xmlns="http://www.w3.org/2000/svg" xmlns:xlink="http://www.w3.org/1999/xlink" width="64" height="64"><defs><filter id="k" width="1.223" height="1.318" x="-.114" y="-.16" style="color-interpolation-filters:sRGB"><feGaussianBlur stdDeviation="2.124"/></filter><filter id="i" width="1.223" height="1.318" x="-.109" y="-.16" style="color-interpolation-filters:sRGB"><feGaussianBlur stdDeviation="2.124"/></filter><filter id="g" width="1.277" height="1.339" x="-.139" y="-.17" style="color-interpolation-filters:sRGB"><feGaussianBlur stdDeviation="2.307"/></filter><filter id="f" width="1.258" height="1.315" x="-.129" y="-.157" style="color-interpolation-filters:sRGB"><feGaussianBlur stdDeviation="2.124"/></filter><filter id="e" width="1.202" height="1.225" x="-.101" y="-.113" style="color-interpolation-filters:sRGB"><feGaussianBlur stdDeviation="2.124"/></filter><radialGradient xlink:href="#a" id="j" cx="35.059" cy="55.803" r="25.999" fx="35.059" fy="55.803" gradientTransform="rotate(-15 -209.387 344.223)scale(3.4639 2.39809)" gradientUnits="userSpaceOnUse"/><radialGradient xlink:href="#b" id="h" cx="33.636" cy="46.491" r="25.999" fx="33.636" fy="46.491" gradientTransform="rotate(195 87.802 105.237)scale(4.6602 3.22629)" gradientUnits="userSpaceOnUse"/><radialGradient xlink:href="#c" id="d" cx="32.458" cy="50.789" r="27.999" fx="32.458" fy="50.789" gradientTransform="rotate(-45 8.216 87.748)scale(1.65272 1.48736)" gradientUnits="userSpaceOnUse"/><linearGradient id="a"><stop offset="0" style="stop-color:#00d0ff;stop-opacity:1"/><stop offset="1" style="stop-color:#00a2ff;stop-opacity:1"/></linearGradient><linearGradient id="b"><stop offset="0" style="stop-color:#00acff;stop-opacity:1"/><stop offset="1" style="stop-color:#0069ff;stop-opacity:1"/></linearGradient><linearGradient id="c"><stop offset="0" style="stop-color:#0082e5;stop-opacity:1"/><stop offset="1" style="stop-color:#00c7e9;stop-opacity:1"/></linearGradient></defs><g transform="translate(.124 .196)"><path d="M7.365 23.35c-.053.034-.1.075-.15.113l-.03.022v.004a2.55 2.55 0 0 0-.989 2.014v22.376c0 3.669 2.893 3.669 3.67 3.669h44.021s3.669 0 3.669-3.669V25.503c0-.841-.407-1.579-1.028-2.046l.01-.015-24.66-18.115S7.214 23.465 7.365 23.352z" style="fill:url(#d);stroke-width:.917163"/><path d="M7.365 23.244c-.053.034-.1.075-.15.113l-.03.022v.004a2.55 2.55 0 0 0-.989 2.014v22.376c0 3.669 2.893 3.669 3.67 3.669h44.021s3.669 0 3.669-3.669V25.397c0-.841-.407-1.579-1.028-2.046l.01-.015L31.879 5.22S7.214 23.359 7.365 23.246z" style="fill:none;stroke:#000;stroke-width:.2;stroke-dasharray:none;stroke-opacity:1;filter:url(#e)"/><rect width="40.354" height="33.017" x="11.699" y="10.72" rx="2.751" ry="2.75" style="fill:none;stroke:#000;stroke-width:.2;stroke-dasharray:none;stroke-opacity:1;filter:url(#f)"/><path d="M14.483 10.758a2.74 2.74 0 0 0-2.746 2.745v27.468a2.74 2.74 0 0 0 2.746 2.743H49.27a2.74 2.74 0 0 0 2.747-2.743V13.503a2.74 2.74 0 0 0-2.747-2.745zm17.394 5.493v.002a9.154 9.154 0 0 1 9.153 9.155v2.746a2.74 2.74 0 0 1-2.746 2.747 2.74 2.74 0 0 1-2.505-1.633 5.5 5.5 0 0 1-3.902 1.63 5.493 5.493 0 0 1-5.493-5.492 5.493 5.493 0 0 1 5.493-5.493 5.493 5.493 0 0 1 5.493 5.493v2.746c0 .507.408.916.915.916a.913.913 0 0 0 .916-.916v-2.746a7.324 7.324 0 0 0-7.324-7.324 7.324 7.324 0 0 0-7.324 7.324 7.324 7.324 0 0 0 7.324 7.324h6.408c.508 0 .916.408.916.915a.913.913 0 0 1-.916.916h-6.408a9.154 9.154 0 0 1-9.155-9.155 9.154 9.154 0 0 1 9.155-9.155m0 5.493a3.66 3.66 0 0 0-3.662 3.662 3.66 3.66 0 0 0 3.662 3.662 3.66 3.66 0 0 0 3.662-3.662 3.66 3.66 0 0 0-3.662-3.662" style="fill:#ebebeb;stroke-width:.915474"/><path d="M14.483 10.758a2.74 2.74 0 0 0-2.746 2.745v27.468a2.74 2.74 0 0 0 2.746 2.743H49.27a2.74 2.74 0 0 0 2.747-2.743V13.503a2.74 2.74 0 0 0-2.747-2.745zm17.394 5.493v.002a9.154 9.154 0 0 1 9.153 9.155v2.746a2.74 2.74 0 0 1-2.746 2.747 2.74 2.74 0 0 1-2.505-1.633 5.5 5.5 0 0 1-3.902 1.63 5.493 5.493 0 0 1-5.493-5.492 5.493 5.493 0 0 1 5.493-5.493 5.493 5.493 0 0 1 5.493 5.493v2.746c0 .507.408.916.915.916a.913.913 0 0 0 .916-.916v-2.746a7.324 7.324 0 0 0-7.324-7.324 7.324 7.324 0 0 0-7.324 7.324 7.324 7.324 0 0 0 7.324 7.324h6.408c.508 0 .916.408.916.915a.913.913 0 0 1-.916.916h-6.408a9.154 9.154 0 0 1-9.155-9.155 9.154 9.154 0 0 1 9.155-9.155zm0 5.493a3.66 3.66 0 0 0-3.662 3.662 3.66 3.66 0 0 0 3.662 3.662 3.66 3.66 0 0 0 3.662-3.662 3.66 3.66 0 0 0-3.662-3.662z" style="fill:none;stroke:#000;stroke-width:.1;stroke-dasharray:none;stroke-opacity:1;filter:url(#g)"/><path d="m6.197 25.502 47.69 33.016H9.866c-1.834 0-3.668-.907-3.668-3.628Z" style="fill:url(#h);stroke-width:.917163"/><path d="m6.197 25.396 47.69 33.016H9.866c-1.834 0-3.668-.907-3.668-3.628Z" style="fill:none;stroke:#000;stroke-width:.2;stroke-dasharray:none;stroke-opacity:1;filter:url(#i)"/><path d="M53.888 58.518c3.668 0 3.668-3.628 3.668-3.628V25.502L9.866 58.518Z" style="fill:url(#j);stroke-width:.917163"/><path d="M53.888 58.412c3.668 0 3.668-3.628 3.668-3.628V25.396L9.866 58.412Z" style="fill:none;stroke:#000;stroke-width:.2;stroke-dasharray:none;stroke-opacity:1;filter:url(#k)"/></g></svg>