<svg xmlns="http://www.w3.org/2000/svg" xmlns:xlink="http://www.w3.org/1999/xlink" width="64" height="64"><defs><radialGradient xlink:href="#c" id="e" cx="63.927" cy="64.005" r="28" fx="63.927" fy="64.005" gradientTransform="rotate(-90 63.877 145.552)scale(2.27485)" gradientUnits="userSpaceOnUse"/><radialGradient id="c" cx="-159.431" cy="15.463" r="64.707" fx="-159.431" fy="15.463" gradientTransform="matrix(-.89413 0 0 .96305 -80.754 49.33)" gradientUnits="userSpaceOnUse"><stop offset="0" style="stop-color:#525252;stop-opacity:1"/><stop offset="1" style="stop-color:#4f4f4f;stop-opacity:1"/></radialGradient><radialGradient xlink:href="#d" id="i" cx="21.037" cy="56.209" r="40.251" gradientTransform="matrix(1 0 0 -1 -.268 65.392)" gradientUnits="userSpaceOnUse"/><radialGradient id="d" cx="21.037" cy="56.209" r="40.251" gradientTransform="matrix(1 0 0 -1 0 66)" gradientUnits="userSpaceOnUse"><stop offset="0" style="stop-color:#fff"/><stop offset="1" style="stop-color:#c4c4c4"/></radialGradient><radialGradient xlink:href="#a" id="k" cx="25.189" cy="61.716" r="28" fx="25.189" fy="61.716" gradientTransform="rotate(-45 -75.975 170.725)scale(2.89736)" gradientUnits="userSpaceOnUse"/><filter id="f" width="1.142" height="1.142" x="-.071" y="-.071" style="color-interpolation-filters:sRGB"><feGaussianBlur stdDeviation="1.59"/></filter><filter id="g" width="1.158" height="1.158" x="-.079" y="-.079" style="color-interpolation-filters:sRGB"><feGaussianBlur stdDeviation="1.058"/></filter><filter id="h" width="1.243" height="1.221" x="-.121" y="-.11" style="color-interpolation-filters:sRGB"><feGaussianBlur stdDeviation=".949"/></filter><filter id="j" width="1.203" height="1.29" x="-.101" y="-.145" style="color-interpolation-filters:sRGB"><feGaussianBlur stdDeviation="1.629"/></filter><filter id="l" width="1.196" height="1.196" x="-.098" y="-.098" style="color-interpolation-filters:sRGB"><feGaussianBlur stdDeviation="2.217"/></filter><linearGradient id="a"><stop offset="0" style="stop-color:#42b07b;stop-opacity:1"/><stop offset="1" style="stop-color:#00d66e;stop-opacity:1"/></linearGradient></defs><path d="M20.774 4.052h22.4c9.3 0 16.8 7.5 16.8 16.8v22.4c0 9.3-7.5 16.8-16.8 16.8h-22.4c-9.3 0-16.8-7.5-16.8-16.8v-22.4c0-9.3 7.5-16.8 16.8-16.8" class="st1" style="fill:url(#e)"/><path d="M20.8 4h22.4C52.5 4 60 11.5 60 20.8v22.4C60 52.5 52.5 60 43.2 60H20.8C11.5 60 4 52.5 4 43.2V20.8C4 11.5 11.5 4 20.8 4Z" class="st1" style="opacity:.673189;fill:none;stroke:#000;stroke-width:.3;stroke-dasharray:none;stroke-opacity:1;filter:url(#f)"/><path d="M17.974 15.052c-1.7 0-3 1.4-3 3v28c0 1.7 1.3 3 3 3s3-1.3 3-3v-28c0-1.6-1.3-3-3-3m25 17v14c0 1.7 1.3 3 3 3s3-1.3 3-3v-14zm-14 5v9c0 1.7 1.3 3 3 3s3-1.3 3-3v-9z" class="st2" style="opacity:.49;fill:#fff"/><path d="M18 15c-1.7 0-3 1.4-3 3v28c0 1.7 1.3 3 3 3s3-1.3 3-3V18c0-1.6-1.3-3-3-3zm25 17v14c0 1.7 1.3 3 3 3s3-1.3 3-3V32Zm-14 5v9c0 1.7 1.3 3 3 3s3-1.3 3-3v-9z" class="st2" style="fill:none;stroke:#000;stroke-width:.3;stroke-dasharray:none;stroke-opacity:1;filter:url(#g)"/><path d="M31.974 15.052c-1.7 0-3 1.4-3 3v19h6v-19c0-1.7-1.4-3-3-3m14 0c-1.7 0-3 1.4-3 3v14h6v-14c0-1.7-1.4-3-3-3" class="st0" style="opacity:.2;enable-background:new"/><path d="M32 15c-1.7 0-3 1.4-3 3v19h6V18c0-1.7-1.4-3-3-3zm14 0c-1.7 0-3 1.4-3 3v14h6V18c0-1.7-1.4-3-3-3z" class="st0" style="opacity:.306104;fill:none;stroke:#000;stroke-width:.3;stroke-dasharray:none;stroke-opacity:1;filter:url(#h);enable-background:new"/><path d="M17.732 14.392c-3.3 0-6 2.7-6 6s2.7 6 6 6 6-2.7 6-6-2.7-6-6-6m28 11c-3.3 0-6 2.7-6 6s2.7 6 6 6 6-2.7 6-6-2.7-6-6-6m-14 5c-3.3 0-6 2.7-6 6s2.7 6 6 6 6-2.7 6-6-2.7-6-6-6" class="st4" style="fill:url(#i)"/><path d="M17.758 14.34c-3.3 0-6 2.7-6 6s2.7 6 6 6 6-2.7 6-6-2.7-6-6-6zm28 11c-3.3 0-6 2.7-6 6s2.7 6 6 6 6-2.7 6-6-2.7-6-6-6zm-14 5c-3.3 0-6 2.7-6 6s2.7 6 6 6 6-2.7 6-6-2.7-6-6-6z" class="st4" style="fill:none;stroke:#000;stroke-width:.3;stroke-dasharray:none;stroke-opacity:1;filter:url(#j)"/><path d="M4.09 26.588V57.2c0 1.551 1.249 2.8 2.8 2.8h10.48a3.72 3.72 135 0 0 3.72-3.72V27.752A6.75 6.75 135 0 1 27.84 21h8.529a3.72 3.72 135 0 0 3.72-3.72V7.72A3.72 3.72 45 0 0 36.37 4h-9.692A22.59 22.59 135 0 0 4.09 26.588m39-18.868v48.56A3.72 3.72 45 0 0 46.81 60h10.48c1.551 0 2.8-1.249 2.8-2.8V6.8c0-1.551-1.249-2.8-2.8-2.8H46.81a3.72 3.72 135 0 0-3.72 3.72m-19 20v28.56A3.72 3.72 45 0 0 27.81 60h8.56a3.72 3.72 135 0 0 3.72-3.72V27.72A3.72 3.72 45 0 0 36.37 24h-8.56a3.72 3.72 135 0 0-3.72 3.72" style="fill:url(#k)" transform="translate(38.036 38.037)scale(.39652)"/><path d="M4.09 26.588V57.2c0 1.551 1.249 2.8 2.8 2.8h10.48a3.72 3.72 135 0 0 3.72-3.72V27.752A6.75 6.75 135 0 1 27.84 21h8.529a3.72 3.72 135 0 0 3.72-3.72V7.72A3.72 3.72 45 0 0 36.37 4h-9.692A22.59 22.59 135 0 0 4.09 26.588Zm39-18.868v48.56A3.72 3.72 45 0 0 46.81 60h10.48c1.551 0 2.8-1.249 2.8-2.8V6.8c0-1.551-1.249-2.8-2.8-2.8H46.81a3.72 3.72 135 0 0-3.72 3.72zm-19 20v28.56A3.72 3.72 45 0 0 27.81 60h8.56a3.72 3.72 135 0 0 3.72-3.72V27.72A3.72 3.72 45 0 0 36.37 24h-8.56a3.72 3.72 135 0 0-3.72 3.72z" style="fill:none;stroke:#000;stroke-width:.313535;stroke-dasharray:none;stroke-opacity:1;filter:url(#l)" transform="translate(38.001 38.037)scale(.39652)"/></svg>