<svg xmlns="http://www.w3.org/2000/svg" width="64" height="64"><rect width="56" height="56" x="4" y="5" rx="28" ry="28" style="opacity:.2"/><rect width="56" height="56" x="4" y="4" rx="28" ry="28" style="fill:#3f3f3f"/><path d="M14 25.564h4v9.056l2 1.132v8.212l-6-3.603z" style="opacity:.2"/><path d="M14 24.564h4v9.056l2 1.132v8.212l-6-3.603z" style="fill:#137fb0"/><path d="m42 36.661-15.692 9.06L32 49.008l10-5.776ZM14 18.993l24.093 13.91-6.112 3.527L14 26.048Z" style="opacity:.2"/><path d="M22 36.661v6.571l10 5.773 5.692-3.284z" style="opacity:.2"/><path d="m14 17.993 24.093 13.911-6.112 3.526L14 25.05Z" style="fill:#0ea3e7"/><path d="M50 25.564h-4v9.056l-2 1.132v8.212l6-3.603z" style="opacity:.2"/><path d="m42 35.661-15.692 9.06L32 48.008l10-5.776Z" style="fill:#0ea3e7"/><path d="M22 35.661v6.571l10 5.773 5.692-3.284z" style="fill:#35cfee"/><path d="M50 24.564h-4v9.056l-2 1.132v8.212l6-3.603z" style="fill:#229eb5"/><path d="m50 18.993-24.093 13.91 6.112 3.527L50 26.048Z" style="opacity:.2"/><path d="M50 17.993 25.907 31.904l6.112 3.526L50 25.05Z" style="fill:#35cfee"/><path d="M32 4C16.488 4 4 16.488 4 32c0 .113.011.224.018.336C4.369 17.134 16.71 5 32 5s27.63 12.134 27.982 27.336c.007-.112.018-.223.018-.336C60 16.488 47.512 4 32 4" style="opacity:.1;fill:#fff"/></svg>