<svg xmlns="http://www.w3.org/2000/svg" width="64" height="64"><rect width="52" height="52" x="8" y="3" rx="2.6" ry="2.6" style="opacity:.2"/><rect width="52" height="52" x="8" y="2" rx="2.6" ry="2.6" style="fill:#e4e4e4"/><path d="M10.602 2A2.597 2.597 0 0 0 8 4.602v1A2.597 2.597 0 0 1 10.602 3h46.796A2.597 2.597 0 0 1 60 5.602v-1A2.597 2.597 0 0 0 57.398 2z" style="opacity:.2;fill:#fff"/><path d="m60 7.2-15.601 4.925L34 31.831V54h23.399C58.839 54 60 52.84 60 51.399z" style="fill:#2d5de1;fill-rule:evenodd"/><path d="m60 7.2-15.602 4.925L34 31.832v1l10.398-19.707L60 8.199z" style="opacity:.1;fill-rule:evenodd"/><path d="M28.8 24.442 8 39.22v12.179C8 52.839 9.16 54 10.601 54H57.4c1.439 0 2.6-1.16 2.6-2.601V36.757L44.399 46.61 34 31.831Z" style="fill:#e34ae9;fill-rule:evenodd"/><path d="M28.8 24.441 8 39.22v1l20.8-14.78 5.2 7.391 10.398 14.777L60 37.758v-1l-15.602 9.851L34 31.832z" style="opacity:.1;fill-rule:evenodd"/><path d="M5 3a3 3 0 1 0 0 6h6a3 3 0 1 0 0-6zm0 12a3 3 0 1 0 0 6h6a3 3 0 1 0 0-6zm0 12a3 3 0 1 0 0 6h6a3 3 0 1 0 0-6zm0 12a3 3 0 1 0 0 6h6a3 3 0 1 0 0-6zm15.953 9.956A3 3 0 0 0 18 52v6a3 3 0 1 0 6 0v-6a3 3 0 0 0-3.047-3.043m12 0A3 3 0 0 0 30 52v6a3 3 0 1 0 6 0v-6a3 3 0 0 0-3.047-3.043m12 0A3 3 0 0 0 42 52v6a3 3 0 1 0 6 0v-6a3 3 0 0 0-3.047-3.043m12 0A3 3 0 0 0 54 52v6a3 3 0 1 0 6 0v-6a3 3 0 0 0-3.047-3.043" style="opacity:.1"/><path d="M5 5h6M5 41h6M5 29h6M5 17h6m46 40v-6m-12 6v-6m-12 6v-6m-12 6v-6" style="fill:none;stroke:#4f4f4f;stroke-width:6;stroke-linecap:round"/></svg>