<svg xmlns="http://www.w3.org/2000/svg" width="64" height="64"><circle cx="32" cy="33" r="28" style="opacity:.2"/><path d="M51.799 51.799 12.201 12.201c-10.935 10.935-10.935 28.663 0 39.598s28.663 10.935 39.598 0" style="fill:#ee49ef"/><path d="M51.799 51.799 12.201 12.201c10.935-10.935 28.663-10.935 39.598 0s10.935 28.663 0 39.598" style="fill:#39c3fb"/><path d="m27.497 23.79.059.068c.169.196.308.334.4.41.26.291.51.606.733.939 1.329 1.983 2.068 2.577 3.208 2.577.77 0 1.021-.13 1.788-.92.505-.52 1.069-1.408 1.298-2.045.593-1.647 2.085-3.185 3.486-3.594 1.885-.55 3.26-.11 4.71 1.509 1.153 1.288 1.573 2.548 1.57 4.711-.004 3.063-.677 4.686-3.286 7.939-1.648 2.038-3.238 4.001-2.185 6.916.436 1.113 1.263 1.98 2.459 2.576 2.015 1.01 4.52.208 5.801-1.092 1.313-1.356 1.411-1.884 1.562-8.365.129-5.498.163-5.862.644-6.821.716-1.43 1.674-1.97 3.261-1.841 1.03.084 1.325.207 1.836.77.972 1.07 1.174 2.127 1.153 6.064.17 6.263-3.18 12.81-7.178 16.668-4.97 4.753-11.258 7.058-18.286 6.706C17.743 56.323 7.97 46.06 8 33.306c.01-3.823.724-6.72 1.958-7.932.726-.715.96-.817 1.863-.817 2.62 0 3.514 3.115 2.626 9.141-.599 4.061-.335 6.16.94 7.498 2.094 2.194 5.838 1.762 7.213-.83.987-1.862.712-3.248-1.21-6.094-1.424-2.11-1.903-3.314-2.141-5.388-.41-3.553 1.57-6.272 4.618-6.342 0 0 1.95-.128 3.63 1.248" style="opacity:.2"/><path d="m27.497 22.79.059.068c.169.196.308.334.4.41.26.291.51.606.733.939 1.329 1.983 2.068 2.577 3.208 2.577.77 0 1.021-.13 1.788-.92.505-.52 1.069-1.408 1.298-2.045.593-1.647 2.085-3.185 3.486-3.594 1.885-.55 3.26-.11 4.71 1.509 1.153 1.288 1.573 2.548 1.57 4.711-.004 3.063-.677 4.686-3.286 7.939-1.648 2.038-3.238 4.001-2.185 6.916.436 1.113 1.263 1.98 2.459 2.576 2.015 1.01 4.52.208 5.801-1.092 1.313-1.356 1.411-1.884 1.562-8.365.129-5.498.163-5.862.644-6.821.716-1.43 1.674-1.97 3.261-1.841 1.03.084 1.325.207 1.836.77.972 1.07 1.174 2.127 1.153 6.064.17 6.263-3.18 12.81-7.178 16.668-4.97 4.753-11.258 7.058-18.286 6.706C17.743 55.323 7.97 45.06 8 32.306c.01-3.823.724-6.72 1.958-7.932.726-.715.96-.817 1.863-.817 2.62 0 3.514 3.115 2.626 9.141-.599 4.061-.335 6.16.94 7.498 2.094 2.194 5.838 1.762 7.213-.83.987-1.862.712-3.248-1.21-6.094-1.424-2.11-1.903-3.314-2.141-5.388-.41-3.553 1.57-6.272 4.618-6.342 0 0 1.95-.128 3.63 1.248" style="fill:#fff"/><path d="M32 4A28 28 0 0 0 4 32a28 28 0 0 0 .033.482A28 28 0 0 1 32 5a28 28 0 0 1 27.982 27.242L60 32A28 28 0 0 0 32 4" style="opacity:.2;fill:#fff"/></svg>