<svg xmlns="http://www.w3.org/2000/svg" width="64" height="64"><path d="M32 11a22 22 0 0 1 1.688.07A22 22 0 0 0 32 11m0 0a22 22 0 0 0-19.344 11.564A22 22 0 0 1 32 11m2.745.2a22 22 0 0 1 1.153.156 22 22 0 0 0-1.153-.156m2.042.356a22 22 0 0 1 1.272.303 22 22 0 0 0-1.272-.303m2.045.561a22 22 0 0 1 1.312.458 22 22 0 0 0-1.312-.458m1.949.74a22 22 0 0 1 1.398.65 22 22 0 0 0-1.398-.65m1.807.885a22 22 0 0 1 1.486.88 22 22 0 0 0-1.486-.88m1.86 1.148a22 22 0 0 1 1.413 1.041 22 22 0 0 0-1.413-1.041m1.666 1.264a22 22 0 0 1 1.388 1.25 22 22 0 0 0-1.388-1.25m1.585 1.463a22 22 0 0 1 1.291 1.426 22 22 0 0 0-1.291-1.426M21 18.765a11 11 0 0 0-8.4 3.895l-.002.002A22 22 0 0 0 10 33a22 22 0 0 0 22 22 22 22 0 0 0 22-22 22 22 0 0 0-2.563-10.277l-.003-.005A11 11 0 0 0 43 18.765a11 11 0 0 0-11 11 11 11 0 0 0 .033.647h-.056a11 11 0 0 0 .023-.647 11 11 0 0 0-11-11m30.435 3.953a22 22 0 0 0-1.103-1.858 22 22 0 0 1 1.103 1.858m-2.33-3.526a22 22 0 0 1 1.207 1.635 22 22 0 0 0-1.208-1.635" style="opacity:.2"/><path d="M51 17a13 13 0 0 0-13 13 13 13 0 0 0 13 13 13 13 0 0 0 13-13 13 13 0 0 0-13-13m-38 0A13 13 0 0 0 0 30a13 13 0 0 0 13 13 13 13 0 0 0 13-13 13 13 0 0 0-13-13" style="opacity:.2"/><path d="M13 16A13 13 0 0 0 0 29a13 13 0 0 0 13 13 13 13 0 0 0 13-13 13 13 0 0 0-13-13" style="fill:#f8bb88"/><path d="M13 16A13 13 0 0 0 0 29a13 13 0 0 0 .021.42A13 13 0 0 1 13 17a13 13 0 0 1 12.977 12.53A13 13 0 0 0 26 29a13 13 0 0 0-13-13" style="opacity:.1;fill:#fff"/><path d="M13 23a7 7 0 0 0-7 7 7 7 0 0 0 7 7 7 7 0 0 0 7-7 7 7 0 0 0-7-7" style="opacity:.1"/><path d="M13 22a7 7 0 0 0-7 7 7 7 0 0 0 7 7 7 7 0 0 0 7-7 7 7 0 0 0-7-7" style="fill:#986135"/><path d="M51 16a13 13 0 0 0-13 13 13 13 0 0 0 13 13 13 13 0 0 0 13-13 13 13 0 0 0-13-13" style="fill:#f8bb88"/><path d="M51 16a13 13 0 0 0-13 13 13 13 0 0 0 .021.42A13 13 0 0 1 51 17a13 13 0 0 1 12.977 12.53A13 13 0 0 0 64 29a13 13 0 0 0-13-13" style="opacity:.1;fill:#fff"/><path d="M51 23a7 7 0 0 0-7 7 7 7 0 0 0 7 7 7 7 0 0 0 7-7 7 7 0 0 0-7-7" style="opacity:.1"/><path d="M51 22a7 7 0 0 0-7 7 7 7 0 0 0 7 7 7 7 0 0 0 7-7 7 7 0 0 0-7-7" style="fill:#986135"/><path d="M32 10a22 22 0 0 1 1.688.07A22 22 0 0 0 32 10m0 0a22 22 0 0 0-19.344 11.564A22 22 0 0 1 32 10m2.745.2a22 22 0 0 1 1.153.156 22 22 0 0 0-1.153-.156m2.042.356a22 22 0 0 1 1.272.303 22 22 0 0 0-1.272-.303m2.045.561a22 22 0 0 1 1.312.458 22 22 0 0 0-1.312-.458m1.949.74a22 22 0 0 1 1.398.65 22 22 0 0 0-1.398-.65m1.807.885a22 22 0 0 1 1.486.88 22 22 0 0 0-1.486-.88m1.86 1.148a22 22 0 0 1 1.413 1.041 22 22 0 0 0-1.413-1.041m1.666 1.264a22 22 0 0 1 1.388 1.25 22 22 0 0 0-1.388-1.25m1.585 1.463a22 22 0 0 1 1.291 1.426 22 22 0 0 0-1.291-1.426M21 17.765a11 11 0 0 0-8.4 3.895l-.002.002A22 22 0 0 0 10 32a22 22 0 0 0 22 22 22 22 0 0 0 22-22 22 22 0 0 0-2.563-10.277l-.003-.005A11 11 0 0 0 43 17.765a11 11 0 0 0-11 11 11 11 0 0 0 .033.647h-.056a11 11 0 0 0 .023-.647 11 11 0 0 0-11-11m30.435 3.953a22 22 0 0 0-1.103-1.858 22 22 0 0 1 1.103 1.858m-2.33-3.526a22 22 0 0 1 1.207 1.635 22 22 0 0 0-1.208-1.635" style="fill:#f59d56"/><path d="M32 11a22 22 0 0 0-19.402 11.662A11 11 0 0 1 21 18.765a11 11 0 0 1 11 11 11 11 0 0 1 11-11 11 11 0 0 1 8.437 3.958A22 22 0 0 0 32 11m0 18.765a11 11 0 0 1-.023.647h.056a11 11 0 0 1-.033-.647" style="opacity:.1"/><path d="M32 10a22 22 0 0 0-19.402 11.662A11 11 0 0 1 21 17.765a11 11 0 0 1 11 11 11 11 0 0 1 11-11 11 11 0 0 1 8.437 3.958A22 22 0 0 0 32 10m0 18.765a11 11 0 0 1-.023.647h.056a11 11 0 0 1-.033-.647" style="fill:#986135"/><circle cx="24" cy="33" r="4" style="opacity:.1"/><circle cx="24" cy="32" r="4" style="fill:#3f3f3f"/><circle cx="40" cy="33" r="4" style="opacity:.1"/><circle cx="40" cy="32" r="4" style="fill:#3f3f3f"/><path d="M22 45s4.667 4 10 4 10-4 10-4" style="opacity:.1;fill:none;stroke:#000;stroke-width:4;stroke-linecap:round;stroke-linejoin:round"/><path d="M22 44s4.667 4 10 4 10-4 10-4" style="fill:none;stroke:#3f3f3f;stroke-width:4;stroke-linecap:round;stroke-linejoin:round"/><path d="M32 10a22 22 0 0 0-19.402 11.664 11 11 0 0 1 1.63-1.562A22 22 0 0 1 32 11a22 22 0 0 1 17.81 9.15 11 11 0 0 1 1.627 1.573A22 22 0 0 0 32 10" style="opacity:.1;fill:#fff"/></svg>