<svg xmlns="http://www.w3.org/2000/svg" width="64" height="64"><circle cx="32" cy="33" r="28" style="opacity:.2"/><circle cx="32" cy="32" r="28" style="fill:#25b7d3"/><path d="M32 4A28 28 0 0 0 4 32a28 28 0 0 0 .021.586A28 28 0 0 1 32 5a28 28 0 0 1 27.979 27.414L60 32A28 28 0 0 0 32 4" style="fill:#fff;opacity:.2"/><path d="M30 44h5v5h-5z" style="fill:#e2e4e5"/><rect width="35" height="7" x="15" y="39" ry="2" style="opacity:.2"/><rect width="35" height="7" x="15" y="38" ry="2" style="fill:#fff"/><path d="M17 20c-1.108 0-2 .892-2 2v18h35V22c0-1.108-.892-2-2-2z" style="fill:#3f3f3f"/><path d="M17 20c-1.108 0-2 .892-2 2v1c0-1.108.892-2 2-2h31c1.108 0 2 .892 2 2v-1c0-1.108-.892-2-2-2z" style="fill:#fff;opacity:.1"/><circle cx="32.5" cy="23.5" r="12.5" style="opacity:.1"/><circle cx="32.5" cy="22.5" r="12.5" style="fill:#fff"/><path d="M30 14h5v6h6l-8.5 11L24 20h6Z" style="fill:#17b198"/><circle cx="32.5" cy="42.5" r="1.5" style="fill:#cfd3d4"/><path d="M25 49h15v2H25z" style="opacity:.2"/><path d="M25 48h15v2H25z" style="fill:#f2f2f2"/></svg>