<svg xmlns="http://www.w3.org/2000/svg" width="64" height="64"><path d="M59 33a28 28 0 0 1-28 28A28 28 0 0 1 3 33 28 28 0 0 1 31 5a28 28 0 0 1 28 28" style="opacity:.2"/><path d="M59 32a28 28 0 0 1-28 28A28 28 0 0 1 3 32 28 28 0 0 1 31 4a28 28 0 0 1 28 28" style="fill:#e4e4e4"/><path d="M62.807 49.982c-.755.218-4.939 1.405-5.399 1.129-4.699-2.817-8.45-1.409-12.846.423-1.374.572-2.753 1.135-4.735 1.952 7.842-15.382 2.994-30.472-14.889-33.846 3.423-.8 8.206-.877 11.963.11 10.247 2.694 15.891 6.748 21.935 17.687 1.775 3.592 4.16 9.276 3.971 12.545" style="opacity:.1"/><path d="M62.807 48.983c-.755.217-4.939 1.404-5.399 1.128-4.699-2.817-8.45-1.409-12.846.423-1.374.572-2.753 1.135-4.735 1.952 7.842-15.382 2.994-30.472-14.889-33.846 3.423-.8 8.206-.877 11.963.11 10.247 2.694 15.891 6.748 21.935 17.688 1.775 3.591 4.16 9.275 3.971 12.545" style="fill:#dc3034"/><path d="M6.052 36.034c2.591-5.017 11.74-6.328 16.889-3.687 5.122 2.628 8.521 11.107 3.856 19.333.063-5.768-1.273-11.057-5.673-14.777-4.318-3.536-9.714-2.996-15.072-.87" style="opacity:.1"/><path d="M6.052 35.034c2.591-5.017 11.74-6.328 16.889-3.687 5.122 2.628 8.521 11.107 3.856 19.333.063-5.768-1.273-11.056-5.673-14.776-4.318-3.536-9.714-2.997-15.072-.87" style="fill:#48539e"/><path d="M10.138 28.896c3.617-4.714 8.175-6.086 13.217-5.687 6.635.526 11.68 3.784 14.38 10.056 2.52 6.015 1.22 13.737-4.136 19.715 2.022-7.806 1.612-14.39-3.54-19.825-5.32-5.382-12.09-6.425-19.921-4.26" style="opacity:.1"/><path d="M10.138 27.896c3.617-4.714 8.175-6.086 13.217-5.686 6.635.526 11.68 3.783 14.38 10.056 2.52 6.014 1.22 13.736-4.136 19.714 2.022-7.806 1.612-14.39-3.54-19.825-5.32-5.382-12.09-6.424-19.921-4.26" style="fill:#469d3b"/><circle cx="12" cy="50" r="11" style="opacity:.2"/><circle cx="12" cy="49" r="11" style="fill:#4f4f4f"/><path d="M10.195 54.524q0-.435.125-.738.126-.3.348-.486a1.4 1.4 0 0 1 .524-.269 2.4 2.4 0 0 1 1.26 0q.293.083.515.27.222.185.352.485.13.302.13.738 0 .417-.13.714a1.4 1.4 0 0 1-.352.492q-.223.194-.514.282a2.3 2.3 0 0 1-1.26 0 1.4 1.4 0 0 1-.525-.282 1.3 1.3 0 0 1-.348-.492 1.9 1.9 0 0 1-.124-.714m.306-3.556v-.032c0-.316.032-.97.097-1.226q.098-.384.297-.733.199-.347.514-.677.316-.329.76-.681.39-.306.658-.548.27-.24.436-.477.167-.237.241-.495.075-.261.075-.603 0-.53-.357-.872-.357-.343-1.09-.343-.639 0-1.377.268-.736.27-1.525.659l-.945-2.049q.398-.232.866-.44.469-.21.974-.371a8 8 0 0 1 1.024-.255A6 6 0 0 1 12.17 42q.947 0 1.706.227.76.227 1.289.663.53.436.811 1.057.284.622.283 1.418 0 .585-.13 1.044a3.1 3.1 0 0 1-.384.853q-.255.394-.64.76-.384.366-.895.774-.39.306-.635.533a2.6 2.6 0 0 0-.384.431 1.3 1.3 0 0 0-.19.422c-.035.145-.052 1.08-.052.883v-.097z" style="fill:#fff"/><path d="M31 4A28 28 0 0 0 3 32a28 28 0 0 0 .018.492A28 28 0 0 1 31 5a28 28 0 0 1 27.975 27.492A28 28 0 0 0 59 32 28 28 0 0 0 31 4" style="opacity:.2;fill:#fff"/></svg>