<svg xmlns="http://www.w3.org/2000/svg" xmlns:xlink="http://www.w3.org/1999/xlink" width="64" height="64"><defs><linearGradient xlink:href="#a" id="b" x1="301.296" x2="306.318" y1="260.406" y2="284.69" gradientTransform="matrix(.74866 0 0 1.28528 -194.668 -319.6)" gradientUnits="userSpaceOnUse"/><linearGradient id="a" x1=".095" x2=".283" y2=".909" gradientUnits="objectBoundingBox"><stop offset="0" stop-color="#fff"/><stop offset="1" stop-color="#fff" stop-opacity="0"/></linearGradient><linearGradient xlink:href="#a" id="c" x1="95.099" x2="89.65" y1="289.357" y2="265.077" gradientTransform="matrix(.74877 0 0 1.28545 -37.587 -322.955)" gradientUnits="userSpaceOnUse"/><linearGradient xlink:href="#a" id="d" x1=".372" x2="32.138" y1="418.545" y2="412.646" gradientTransform="matrix(1.29788 0 0 .72866 9.517 -271.757)" gradientUnits="userSpaceOnUse"/><linearGradient xlink:href="#a" id="e" x1="34.016" x2="3.053" y1="694.509" y2="702.241" gradientTransform="matrix(1.30825 0 0 .72842 9.207 -475.61)" gradientUnits="userSpaceOnUse"/></defs><circle cx="32" cy="33" r="28" style="opacity:.2"/><circle cx="32" cy="32" r="28" style="fill:#0099f2"/><path d="m34.898 49.431-.413-3.125a14.44 14.205 0 0 0-3.111-28.069q-.305 0-.606.014v-.027a2 2 0 0 1-.162.008 1.594 1.568 0 1 1 .182-3.125q.299-.01.588-.01a17.629 17.343 0 0 1 3.525 34.334Z" style="fill:url(#b)"/><path d="m29.105 14.666.414 3.125a14.443 14.205 0 0 0 3.113 28.07q.303-.001.605-.014v.025A1.595 1.568 0 1 1 33.4 49a1.6 1.573 0 0 1-.182-.012Q32.92 49 32.63 49a17.634 17.343 0 0 1-3.526-34.335Z" style="fill:url(#c)"/><path d="M51.083 28.889c-1.86-9.907-10.832-16.752-20.717-15.806-9.886.947-17.44 8.67-17.444 18.756q0 .273.007.543h-.02c.206 1.935-2.651 2.25-2.858.315h-.033a23 23 0 0 1-.018-.864c-.008-11.67 8.763-20.71 20.208-21.743C41.653 9.056 51.98 17.074 54 28.563l-2.914.32z" style="fill:url(#d)"/><path d="M12.637 35.123c1.875 9.9 10.923 16.742 20.89 15.795 9.968-.946 17.586-8.664 17.59-18.743q0-.272-.008-.542h.021a2 2 0 0 1-.011-.174c0-1.853 2.714-1.986 2.892-.14h.033q.018.428.019.862c.008 11.663-8.837 20.696-20.377 21.73S11.733 46.93 9.696 35.45l2.938-.32z" style="fill:url(#e)"/><path d="m41.844 32.298-8.65 11.046a1.43 1.43 0 0 1-1.151.656h-.087a1.43 1.43 0 0 1-1.151-.656l-8.65-11.046s-.653-1.303.72-1.303h2.686c.23 0 .418-.195.418-.435V24.3c.002-.719.563-1.3 1.254-1.3h9.53c.693 0 1.22.584 1.254 1.303v6.259c0 .24.187.435.418.435h2.689c1.375 0 .72 1.303.72 1.303z" style="opacity:.2"/><path d="m41.844 31.298-8.65 11.046a1.43 1.43 0 0 1-1.151.656h-.087a1.43 1.43 0 0 1-1.151-.656l-8.65-11.046s-.653-1.303.72-1.303h2.686c.23 0 .418-.195.418-.435V23.3c.002-.719.563-1.3 1.254-1.3h9.53c.693 0 1.22.584 1.254 1.303v6.259c0 .24.187.435.418.435h2.689c1.375 0 .72 1.303.72 1.303z" style="fill:#52ff45"/><path d="M32 4A28 28 0 0 0 4 32a28 28 0 0 0 .035.5A28 28 0 0 1 32 5a28 28 0 0 1 27.982 27.252L60 32A28 28 0 0 0 32 4" style="fill:#fff;opacity:.2"/><path d="M27.232 22c-.69 0-1.251.58-1.253 1.299v1C25.98 23.58 26.54 23 27.232 23h9.532c.692 0 1.219.584 1.254 1.303v-1c-.035-.719-.562-1.303-1.254-1.303zm-1.253 7.56c0 .24-.188.434-.418.434h-2.686c-1.3 0-.797 1.136-.738 1.26.124-.151.347-.26.738-.26h2.686c.23 0 .418-.194.418-.433zm12.039.003v1c0 .24.187.433.418.433h2.689c.39 0 .612.108.736.258.061-.129.563-1.258-.736-1.258h-2.69a.426.426 0 0 1-.417-.433" style="fill:#fff;opacity:.2"/></svg>