<svg xmlns="http://www.w3.org/2000/svg" width="64" height="64"><rect width="58" height="46" x="-62" y="-55" rx="2.9" ry="2.875" style="opacity:.2" transform="rotate(90)scale(-1 1)"/><rect width="58" height="46" x="-61" y="-55" rx="2.9" ry="2.875" style="fill:#1b299c" transform="rotate(90)scale(-1 1)"/><path d="M15 10v6H9v34h6v6h34v-6h6V16h-6v-6zm5 9h6v10h-6zm18 0h6v10h-6ZM20 35h24v6h-6v6H26v-6h-6z" style="opacity:.2"/><path d="M15 9v6H9v34h6v6h34v-6h6V15h-6V9Zm5 9h6v10h-6zm18 0h6v10h-6ZM20 34h24v6h-6v6H26v-6h-6z" style="fill:#64fdfd"/><path d="M11.875 3A2.88 2.88 0 0 0 9 5.898v1A2.88 2.88 0 0 1 11.875 4h40.25A2.88 2.88 0 0 1 55 6.898v-1A2.88 2.88 0 0 0 52.125 3z" style="opacity:.1;fill:#fff"/><path d="M15 9v1h34V9Zm-6 6v1h6v-1zm40 0v1h6v-1ZM20 28v1h6v-1zm18 0v1h6v-1ZM20 40v1h6v-1zm18 0v1h6v-1zm-12 6v1h12v-1z" style="opacity:.2;fill:#fff"/></svg>