<svg xmlns="http://www.w3.org/2000/svg" width="64" height="64"><rect width="56" height="56" x="4" y="5" rx="2.8" ry="2.8" style="opacity:.2"/><rect width="56" height="56" x="4" y="4" rx="2.8" ry="2.8" style="fill:#384256"/><path d="M12 17v32h12V33.453l8 8.73 8-8.73V49h12V17H40l-8 8.727L24 17Z" style="opacity:.2"/><path d="M12 16v32h12V32.455l8 8.727V24.727L24 16Z" style="fill:#f83737"/><path d="M52 16v32H40V32.455l-8 8.727V24.727L40 16Z" style="fill:#c01616"/><path d="M6.8 4C5.25 4 4 5.25 4 6.8v1C4 6.25 5.25 5 6.8 5h50.4C58.75 5 60 6.25 60 7.8v-1C60 5.25 58.75 4 57.2 4z" style="opacity:.1;fill:#fff"/><path d="M12 16v1h12l8 8.727L40 17h12v-1H40l-8 8.727L24 16z" style="opacity:.2;fill:#fff"/></svg>