<svg xmlns="http://www.w3.org/2000/svg" xmlns:xlink="http://www.w3.org/1999/xlink" width="64" height="64"><defs><radialGradient xlink:href="#a" id="d" cx="37.404" cy="44.052" r="19.502" fx="37.404" fy="44.052" gradientTransform="rotate(-15 -75.307 191.093)scale(1.9659 1.69646)" gradientUnits="userSpaceOnUse"/><radialGradient xlink:href="#b" id="e" cx="23.83" cy="42.003" r="18.428" fx="23.83" fy="42.003" gradientTransform="matrix(1.59604 0 0 1.96913 -12.767 -39.09)" gradientUnits="userSpaceOnUse"/><radialGradient xlink:href="#c" id="f" cx="51.448" cy="30.361" r="27.999" fx="51.448" fy="30.361" gradientTransform="rotate(-60 67.655 140.185)scale(3.01118 2.63149)" gradientUnits="userSpaceOnUse"/><linearGradient id="c"><stop offset="0" style="stop-color:#0ffca6;stop-opacity:1"/><stop offset="1" style="stop-color:#15bff0;stop-opacity:1"/></linearGradient><linearGradient id="b"><stop offset="0" style="stop-color:#0b87da;stop-opacity:1"/><stop offset="1" style="stop-color:#0bc9da;stop-opacity:1"/></linearGradient><linearGradient id="a"><stop offset="0" style="stop-color:#228bd3;stop-opacity:1"/><stop offset="1" style="stop-color:#0e4263;stop-opacity:1"/></linearGradient><filter id="g" width="1.288" height="1.288" x="-.144" y="-.144" style="color-interpolation-filters:sRGB"><feGaussianBlur stdDeviation="3.326"/></filter></defs><path d="M51.882 44.098c-2.362 2.324-6.026 2.875-8.942 2.89-9.11 0-17.047-7.006-17.047-15.047a6.06 6.06 0 0 1 3.163-5.258c-8.24.347-10.358 8.933-10.358 13.963 0 14.223 13.11 15.665 15.934 15.665 1.523 0 3.82-.443 5.199-.878l.252-.085a24.7 24.7 0 0 0 12.823-10.164c.428-.674-.327-1.474-1.024-1.086" class="cls-1" style="fill:url(#d);stroke-width:.880248"/><path d="M27.01 53.893a15.3 15.3 0 0 1-4.379-4.108c-5.69-7.795-2.233-18.837 6.425-23.102.6-.283 1.627-.795 2.992-.77a6.23 6.23 0 0 1 4.947 2.503 6.14 6.14 0 0 1 1.224 3.592c0-.04 4.71-15.324-15.403-15.324-8.452 0-15.403 8.02-15.403 15.057a25.05 25.05 0 0 0 2.332 10.78c5.306 11.32 18.248 16.873 30.109 12.92-4.06 1.28-9.217.717-12.827-1.54Z" class="cls-3" style="fill:url(#e);stroke-width:.880248"/><path d="M36.721 34.983c-.156.202-.635.481-.635 1.09 0 .502.327.985.909 1.391 2.768 1.926 7.988 1.671 8.001 1.671a11.47 11.47 0 0 0 5.828-1.607c3.621-2.114 5.85-4.897 5.86-9.09.05-4.313-1.54-7.182-2.184-8.452-4.08-7.98-12.887-12.57-22.463-12.57-13.477 0-24.456 10.822-24.645 24.296.092-7.035 7.085-13.561 15.403-13.561.674 0 4.517.065 8.086 1.938 3.147 1.652 4.795 4.492 5.94 6.47 1.665 3.14 1.737 6.026-.1 8.424" class="cls-5" style="fill:url(#f);stroke-width:.880248"/><path d="M31.955 3.88c-15.337 0-27.833 12.317-28.049 27.65h.026l-.002.034A28.5 28.5 0 0 0 6.586 43.83c6.038 12.882 20.767 19.202 34.266 14.703l-.006-.017.265-.088a28.12 28.12 0 0 0 14.596-11.567.91.91 0 0 0-.11-1.13.91.91 0 0 0-1.12-.174l-.006.002-.006.006c-2.668 2.624-6.817 3.251-10.123 3.267-10.325 0-19.317-7.94-19.317-17.043a6.83 6.83 0 0 1 1.67-4.398c-1.085 1.198-1.753 2.728-1.771 4.398 0 9.168 9.042 17.145 19.418 17.145 3.314-.016 7.482-.644 10.181-3.291a.805.805 0 0 1 1.002.156.8.8 0 0 1 .096 1.008A28.02 28.02 0 0 1 41.08 58.335l-.287.096c-.39.123-.845.247-1.336.363-.178.042-.376.077-.565.117q-.087.015-.175.028c-.472.08-.948.146-1.432.19l-.023.001q-.29.024-.58.037l-.26.016q-.273.01-.545.012a20 20 0 0 1-.862-.008 19 19 0 0 1-1.287-.084q-.258-.024-.515-.055-.154-.02-.307-.043-.359-.049-.715-.113-.796-.141-1.57-.35-.143-.039-.285-.082-.286-.08-.569-.172-.162-.053-.322-.109a17 17 0 0 1-.816-.305q-.3-.121-.592-.254l-.205-.091q-.29-.137-.572-.286-.118-.058-.233-.119-.376-.205-.736-.43l-.004-.001-.018-.006-.002-.002a17.3 17.3 0 0 1-4.957-4.653c-.198-.271-.39-.55-.568-.828-.06-.094-.112-.19-.17-.285-.118-.191-.237-.382-.346-.576-.055-.1-.104-.2-.158-.3-4.492-8.439-.708-19.192 7.979-23.847q.262-.177.543-.334l.002-.002c.684-.322 1.84-.895 3.377-.867a7.02 7.02 0 0 1 5.578 2.823h.002c.6.8 1.01 1.718 1.218 2.685.056 1.7-.433 3.284-1.529 4.715-.16.208-.734.55-.734 1.268 0 .592.386 1.156 1.054 1.623 1.586 1.102 3.861 1.575 5.743 1.777 1.881.202 3.369.13 3.377.13a13.1 13.1 0 0 0 6.646-1.833c4.122-2.407 6.672-5.59 6.682-10.37.057-4.913-1.757-8.185-2.487-9.626C52.875 9.1 42.851 3.88 31.955 3.88Zm-3.908 22.316q-.631.426-1.147.97a7.5 7.5 0 0 1 1.286-1.048l-.14.078zm-1.147.97-.076.077zm-.076.077-.129.149c.044-.049.084-.101.13-.149zm5.131-23.261c10.864 0 20.85 5.204 25.475 14.25.732 1.446 2.531 4.691 2.474 9.58-.01 4.745-2.526 7.887-6.63 10.283a13 13 0 0 1-6.596 1.818c-.008 0-1.492.072-3.366-.129-1.873-.2-4.135-.675-5.695-1.76-.652-.455-1.012-.991-1.012-1.54 0-.665.517-.954.711-1.205 1.112-1.452 1.607-3.064 1.55-4.79h.001l-.002-.007-.002-.022a8 8 0 0 0-.117-1.13l-.002-.012-.004-.024a10 10 0 0 0-.107-.53l-.045-.177q-.05-.202-.108-.406c-.025-.088-.056-.176-.084-.264-.038-.12-.074-.239-.117-.36q-.056-.153-.117-.31c-.04-.102-.076-.205-.12-.308-.055-.135-.118-.27-.179-.407-.032-.07-.06-.141-.094-.212l-.02-.041a16 16 0 0 0-.314-.627h-.002v-.002a46 46 0 0 0-1.101-1.834c-1.245-1.947-2.975-4.12-5.666-5.534a17 17 0 0 0-1.522-.703l-.011-.004q-.374-.15-.744-.283l-.018-.006a20 20 0 0 0-2.201-.638l-.004-.002c-.042-.01-.078-.015-.12-.024a23 23 0 0 0-1.222-.244q-.63-.105-1.174-.166l-.015-.002a22 22 0 0 0-.932-.086 17 17 0 0 0-1.205-.049v-.002h-.043c-.491 0-.979.024-1.461.063l-.096.006q-.706.061-1.396.177l-.106.016q-.662.115-1.308.275l-.184.045q-.645.169-1.271.381l-.116.037q-.645.224-1.27.49l-.075.032a19 19 0 0 0-2.5 1.318c-3.589 2.254-6.258 5.638-7.291 9.383 1.8-13.72 13.4-24.316 27.574-24.314Zm-10.5 12.193c.762 0 5.122.076 9.164 2.197a12.6 12.6 0 0 1 2.37 1.617q.52.45.98.93c.918.957 1.658 1.982 2.279 2.951.414.647.774 1.269 1.1 1.83.816 1.541 1.246 3.017 1.355 4.424-.23-.84-.547-1.661-1.076-2.367a7.13 7.13 0 0 0-5.658-2.865c-1.564-.029-2.74.56-3.422.88l-.002.003q-.462.227-.904.476l-.002.002a19 19 0 0 0-.872.518l-.002.002q-.424.27-.832.56l-.002.002q-.407.291-.796.6l-.002.002a19 19 0 0 0-.758.635l-.002.002q-.74.655-1.4 1.375l-.003.004q-.33.358-.64.732v.002q-.31.375-.6.764v.002a19 19 0 0 0-1.072 1.603v.002q-.247.413-.47.836v.002q-.225.423-.427.856v.002a19 19 0 0 0-.38.873v.002q-.18.441-.336.888v.002a18.4 18.4 0 0 0-.717 2.748 17.2 17.2 0 0 0-.078 5.649 16.45 16.45 0 0 0 2.978 7.176 17.4 17.4 0 0 0 4.99 4.681l.002.002.016.006h.002l.008.004q.32.199.654.383c3.063 1.692 6.938 2.39 10.54 2.043-12.457 2.499-25.247-3.653-30.764-15.423A28.4 28.4 0 0 1 4.03 31.564c0-.633.056-1.274.153-1.916l.015-.096q.047-.277.108-.55l.027-.12q.066-.286.144-.57l.028-.1q.077-.272.166-.54l.056-.161q.09-.263.192-.524l.031-.08q.112-.285.236-.566l.041-.086q.125-.276.262-.549l.024-.047a15 15 0 0 1 1.058-1.773q.163-.234.336-.463l.106-.146q.155-.202.316-.399.071-.09.145-.18.184-.22.377-.433l.084-.096q.181-.2.37-.396l.196-.202a18 18 0 0 1 .88-.83l.245-.207a18 18 0 0 1 .611-.496q.157-.123.317-.242.152-.112.306-.22.175-.126.354-.247l.203-.133q.215-.142.434-.279l.17-.1q.24-.146.488-.287.168-.091.34-.181.186-.102.375-.2.101-.05.205-.099.254-.125.511-.242.142-.064.286-.125.213-.094.43-.182.177-.071.359-.139.2-.076.402-.148.183-.064.367-.123.187-.063.377-.121a18 18 0 0 1 .816-.227q.176-.046.354-.088a18 18 0 0 1 1.256-.246q.176-.03.353-.056c.187-.027.375-.046.563-.067l.256-.029q.326-.03.656-.049l.16-.012h.022q.426-.02.857-.021z" style="color:#000;mix-blend-mode:normal;fill:#000;fill-opacity:1;stroke:#000;stroke-width:.2;stroke-dasharray:none;stroke-opacity:1;filter:url(#g)" transform="translate(3.87 3.894)scale(.88025)"/></svg>