<svg xmlns="http://www.w3.org/2000/svg" width="64" height="64"><rect width="56" height="56" x="4" y="5" rx="4" ry="4" style="opacity:.2"/><rect width="56" height="56" x="4" y="4" rx="4" ry="4" style="fill:#2ec27e"/><path d="M8 4C5.784 4 4 5.784 4 8v1c0-2.216 1.784-4 4-4h48c2.216 0 4 1.784 4 4V8c0-2.216-1.784-4-4-4z" style="fill:#fff;opacity:.2"/><path d="M17 18v24l5 5V28.846L30 35v-7zm30 0L34 28v7l8-6.154V47l5-5V25Z" style="opacity:.2"/><path d="M17 17v24l5 5V27.846L30 34v-7zm30 0L34 27v7l8-6.154V46l5-5z" style="fill:#fff"/></svg>