<svg xmlns="http://www.w3.org/2000/svg" xml:space="preserve" width="64" height="64"><rect width="55" height="55" x="5" y="5" ry="13.75" style="opacity:.2"/><rect width="55" height="55" x="5" y="4" ry="13.75" style="fill:#e4e4e4"/><path d="M19.389 16c-1.214-.008-3.25.289-3.305.373-.108.169-.114 21.415-.006 21.582.139.215 2.127.785 3.695.975.156.019.046.043.37.05 1.05.026.857.762.857-5.863v-4.94c-.028-1.355 1.166-1.371 1.914-.825l2.133 1.924c2.67 2.411 2.876 2.591 2.967 2.591.377 0 2.218-.867 4.486-.867s4.109.867 4.486.867c.09 0 .296-.18 2.967-2.591l2.133-1.924c.748-.546 1.942-.53 1.914.824v4.941c0 6.625-.193 5.889.857 5.864.324-.008.714-.032.87-.051 1.568-.19 3.056-.76 3.195-.975.108-.167.102-21.413-.006-21.582-.054-.084-2.091-.38-3.305-.373-.404.003-.718.04-.836.13-.135.101-1.726 1.724-3.539 3.359-1.812 1.634-4.03 4.335-4.927 5.142L34.678 26.1l-.676-.08c-.437-.05-.971-.02-1.502-.02-.53 0-1.065-.03-1.502.02l-.676.08-1.63-1.469c-.898-.807-3.116-3.508-4.928-5.142-1.813-1.635-3.404-3.258-3.54-3.36-.117-.089-.43-.126-.835-.129m13.09 25c-1.144 0-1.479.156-1.479.684 0 .263.71 1.826.986 2.17.096.118.308.163.514.14.206.023.418-.022.514-.14.276-.344.986-1.907.986-2.17 0-.528-.335-.684-1.479-.684zm-15.78 1a.75.75 0 0 0-.75.75.75.75 0 0 0 .75.75h8.54a.75.75 0 0 0 .75-.75.75.75 0 0 0-.75-.75zm23.063 0a.75.75 0 0 0-.75.75.75.75 0 0 0 .75.75H48.3a.75.75 0 0 0 .75-.75.75.75 0 0 0-.75-.75zm-14.506 3.012a.8.8 0 0 0-.233.031l-8.539 2.551a.75.75 0 0 0-.504.934.75.75 0 0 0 .934.504l8.54-2.551a.75.75 0 0 0 .503-.934.75.75 0 0 0-.701-.535m14.488 0a.75.75 0 0 0-.701.535.75.75 0 0 0 .504.934l8.539 2.55a.75.75 0 0 0 .934-.503.75.75 0 0 0-.504-.934l-8.54-2.55a.8.8 0 0 0-.232-.032" style="opacity:.1"/><path d="M19.39 15c-1.214-.008-3.252.288-3.306.373-.108.168-.114 21.414-.006 21.582.139.215 2.127.785 3.696.975.155.019.046.043.37.05 1.05.025.856.761.856-5.864v-4.94c-.028-1.355 1.167-1.371 1.915-.825l2.132 1.924c2.67 2.411 2.877 2.592 2.968 2.592.377 0 2.217-.867 4.485-.867s4.108.867 4.485.867c.09 0 .297-.18 2.968-2.592l2.132-1.924c.748-.546 1.943-.53 1.915.824v4.941c0 6.625-.194 5.889.856 5.864.324-.007.715-.031.87-.05 1.569-.19 3.057-.76 3.196-.975.108-.168.102-21.414-.006-21.582-.054-.085-2.092-.38-3.306-.373-.404.003-.717.04-.835.13-.135.102-1.727 1.723-3.54 3.358-1.812 1.634-4.03 4.335-4.927 5.142l-1.63 1.47-.677-.08c-.436-.05-.97-.02-1.501-.02s-1.065-.03-1.501.02l-.677.08-1.63-1.47c-.897-.807-3.115-3.508-4.928-5.142s-3.404-3.256-3.54-3.358c-.117-.09-.43-.127-.834-.13m13.09 25c-1.144 0-1.48.155-1.48.683 0 .263.711 1.827.987 2.17.096.119.307.164.513.141.206.023.417-.022.513-.14.276-.344.987-1.908.987-2.171 0-.528-.336-.683-1.48-.683z" style="fill:#2a70d3"/><path d="M25.238 41.75H16.7m8.538 3.012-8.538 2.55m23.062-5.562H48.3m-8.538 3.012 8.538 2.55" style="fill:none;stroke:#fc972e;stroke-width:1.5;stroke-linecap:round;stroke-linejoin:round;stroke-dashoffset:2.25"/><path d="M18.75 4A13.72 13.72 0 0 0 5 17.75v1A13.72 13.72 0 0 1 18.75 5h27.5A13.72 13.72 0 0 1 60 18.75v-1A13.72 13.72 0 0 0 46.25 4Z" style="opacity:.2;fill:#fff"/></svg>