<svg xmlns="http://www.w3.org/2000/svg" width="64" height="64"><path d="M54 58.2V19H10v39.2c0 1.551 1.227 2.8 2.75 2.8h38.5c1.523 0 2.75-1.249 2.75-2.8" style="opacity:.2"/><path d="M54 57.2V18H10v39.2c0 1.551 1.227 2.8 2.75 2.8h38.5c1.523 0 2.75-1.249 2.75-2.8" style="fill:#e4e4e4"/><path d="M20 10h24l10 8H10Z" style="fill:#b8b8b8"/><path d="M20 4h24v6H20zm24 6 10 8H36Z" style="fill:#a3a3a3"/><path d="M36 18v42h15.429C52.853 60 54 58.751 54 57.2V18Z" style="fill:#b8b8b8"/><path d="M29 46.943V30.972m-11.983 0 5.983 8 6-8M17.017 46.943V30.972" style="opacity:.2;fill:none;stroke:#000;stroke-width:4;stroke-linecap:round;stroke-linejoin:round"/><path d="M29 45.972V30m-11.983 0L23 38l6-8M17.017 45.972V30" style="fill:none;stroke:#3a86c5;stroke-width:4;stroke-linecap:round;stroke-linejoin:round"/><path d="M41.028 30.972h8m-4 16v-16" style="opacity:.2;fill:none;stroke:#000;stroke-width:4;stroke-linecap:round"/><path d="M41.028 30h8m-4 16V30" style="fill:none;stroke:#3a86c5;stroke-width:4;stroke-linecap:round"/><path d="M20 4v1h24V4z" style="opacity:.1;fill:#fff"/></svg>