<svg xmlns="http://www.w3.org/2000/svg" xml:space="preserve" width="64" height="64"><defs><filter id="c" width="1.198" height="1.198" x="-.099" y="-.099" style="color-interpolation-filters:sRGB"><feGaussianBlur stdDeviation="2.158"/></filter><filter id="d" width="1.107" height="1.107" x="-.053" y="-.053" style="color-interpolation-filters:sRGB"><feGaussianBlur stdDeviation=".952"/></filter><filter id="b" width="1.142" height="1.142" x="-.071" y="-.071" style="color-interpolation-filters:sRGB"><feGaussianBlur stdDeviation="1.59"/></filter><radialGradient id="a" cx="-159.431" cy="15.463" r="64.707" fx="-159.431" fy="15.463" gradientTransform="matrix(-.89413 0 0 .96305 -38.789 31.295)" gradientUnits="userSpaceOnUse"><stop offset="0" style="stop-color:#00b4ff;stop-opacity:1"/><stop offset="1" style="stop-color:#4ac9e1;stop-opacity:1"/></radialGradient></defs><path d="M62.739-13.983h22.4c9.3 0 16.8 7.5 16.8 16.8v22.4c0 9.3-7.5 16.8-16.8 16.8h-22.4c-9.3 0-16.8-7.5-16.8-16.8v-22.4c0-9.3 7.5-16.8 16.8-16.8" class="st1" style="fill:url(#a)" transform="translate(-41.965 18.035)"/><path d="M62.765-14.035h22.4c9.3 0 16.8 7.5 16.8 16.8v22.4c0 9.3-7.5 16.8-16.8 16.8h-22.4c-9.3 0-16.8-7.5-16.8-16.8v-22.4c0-9.3 7.5-16.8 16.8-16.8z" class="st1" style="opacity:.673189;fill:none;stroke:#000;stroke-width:.3;stroke-dasharray:none;stroke-opacity:1;filter:url(#b)" transform="translate(-41.965 18.035)"/><rect width="53.401" height="53.401" x="5.3" y="5.3" rx="13.285" ry="13.285" style="fill:none;stroke:#000;stroke-width:.20000001;stop-color:#000;stroke-opacity:1;stroke-dasharray:none;filter:url(#c)"/><path d="M37.487 21.042v5.47h5.49v-5.47z" style="opacity:.700486;fill:#0a2a61;stroke-width:0"/><path d="M26.508 10.081v5.46h-.979v.01h-4.511v5.475h-5.491v5.494h-5.446v10.96h5.446v5.494h5.49v5.474h5.491v5.47H37.49v-5.47h5.492v-5.486h5.49v-5.484h5.448V26.51h-5.448v-5.473H42.98V15.54h-5.49v-5.459H32zm0 10.945H37.49v5.482h5.49v10.97h-5.49v5.494H32v.002h-5.492v-5.486h-5.49V26.51h5.49z" style="fill:#0a2a61;stroke-width:0"/><path d="M32 10.08v5.47h5.487v-5.47z" style="opacity:.700486;fill:#0a2a61;stroke-width:0"/><path d="M21.023 10.08v5.47h5.49v-5.47z" style="opacity:.700486;fill:#9ae9fe;stroke-width:0"/><path d="M37.487 10.08v5.47h5.49v-5.47z" style="opacity:.700486;fill:#98e8ff;stroke-width:0"/><path d="M26.513 10.08v5.47H32v-5.47z" style="opacity:.700486;fill:#0a2a61;stroke-width:0"/><path d="M26.513 15.56v5.471H32v-5.47z" style="opacity:.700486;fill:#003077;stroke-width:0"/><path d="M15.536 15.57v5.461h5.487v-5.46z" style="opacity:.700486;fill:#fff;stroke-width:0"/><path d="M37.487 15.55v5.481h5.49v-5.48z" style="opacity:.700486;fill:#0841ae;stroke-width:0"/><path d="M42.977 15.56v5.471h5.487v-5.47z" style="opacity:.700486;fill:#98e8ff;stroke-width:0"/><path d="M21.023 15.56v5.471h5.49v-5.47Z" style="opacity:.700486;fill:#0a2a61;stroke-width:0"/><path d="M32 15.55v5.481h5.487v-5.48z" style="opacity:.700486;fill:#0841ae;stroke-width:0"/><path d="M32 21.042v5.47h5.487v-5.47z" style="opacity:.700486;fill:#4ecffa;stroke-width:0"/><path d="M10.077 21.042v5.47h5.459v-5.47z" style="opacity:.700486;fill:#aef3fc;stroke-width:0"/><path d="M42.977 21.042v5.47h5.487v-5.47z" style="opacity:.700486;fill:#0a2a61;stroke-width:0"/><path d="M21.023 21.031v5.482h5.49V21.03z" style="opacity:.700486;fill:#003077;stroke-width:0"/><path d="M15.536 21.031v5.482h5.487V21.03z" style="opacity:.700486;fill:#0841ae;stroke-width:0"/><path d="M26.513 21.031v5.482H32V21.03z" style="opacity:.700486;fill:#4ecffa;stroke-width:0"/><path d="M48.464 21.042v5.47h5.459v-5.47z" style="opacity:.700486;fill:#98e8ff;stroke-width:0"/><path d="M26.513 26.523v5.47H32v-5.47z" style="opacity:.700486;fill:#52d6fe;stroke-width:0"/><path d="M48.464 26.513v5.483h5.459v-5.483zm-32.928.01v5.47h5.487v-5.47z" style="opacity:.700486;fill:#0a2a61;stroke-width:0"/><path d="M37.487 26.513v5.483h5.49v-5.483z" style="opacity:.700486;fill:#4dbbff;stroke-width:0"/><path d="M42.977 26.513v5.483h5.487v-5.483z" style="opacity:.700486;fill:#0a2a61;stroke-width:0"/><path d="M21.023 26.523v5.47h5.49v-5.47z" style="opacity:.700486;fill:#4ecffa;stroke-width:0"/><path d="M32 26.513v5.483h5.487v-5.483z" style="opacity:.700486;fill:#72e2fe;stroke-width:0"/><path d="M10.077 26.523v5.47h5.459v-5.47z" style="opacity:.700486;fill:#0a2a61;stroke-width:0"/><path d="M32 32.004v5.473h5.487v-5.473z" style="opacity:.700486;fill:#fff;stroke-width:0"/><path d="M10.077 31.994v5.483h5.459v-5.483z" style="opacity:.700486;fill:#0a2a61;stroke-width:0"/><path d="M42.977 32.004v5.473h5.487v-5.473z" style="opacity:.700486;fill:#0841ae;stroke-width:0"/><path d="M21.023 31.994v5.483h5.49v-5.483z" style="opacity:.700486;fill:#4dbbff;stroke-width:0"/><path d="M15.536 31.994v5.483h5.487v-5.483z" style="opacity:.700486;fill:#0841ae;stroke-width:0"/><path d="M37.487 32.004v5.473h5.49v-5.473z" style="opacity:.700486;fill:#4dbbff;stroke-width:0"/><path d="M26.513 31.994v5.483H32v-5.483z" style="opacity:.700486;fill:#74e1ff;stroke-width:0"/><path d="M48.464 32.004v5.473h5.459v-5.473z" style="opacity:.700486;fill:#003077;stroke-width:0"/><path d="M32 42.969v5.47h5.487v-5.47z" style="opacity:.700486;fill:#0841ae;stroke-width:0"/><path d="M42.977 42.969v5.47h5.487v-5.47z" style="opacity:.700486;fill:#4bd5ff;stroke-width:0"/><path d="M21.023 42.969v5.47h5.49v-5.47z" style="opacity:.700486;fill:#003077;stroke-width:0"/><path d="M15.536 42.969v5.46h5.487v-5.46z" style="opacity:.700486;fill:#4bd5ff;stroke-width:0"/><path d="M37.487 42.969v5.47h5.49v-5.47z" style="opacity:.700486;fill:#0841ae;stroke-width:0"/><path d="M26.513 42.969v5.47H32v-5.47z" style="opacity:.700486;fill:#0a2a61;stroke-width:0"/><path d="M26.513 48.45v5.473H32V48.45z" style="opacity:.700486;fill:#003077;stroke-width:0"/><path d="M37.487 48.44v5.48h5.49v-5.48zm-16.464.01v5.473h5.49V48.45z" style="opacity:.700486;fill:#4bd5ff;stroke-width:0"/><path d="M32 48.44v5.48h5.487v-5.48z" style="opacity:.700486;fill:#003077;stroke-width:0"/><path d="M26.513 37.487v5.482H32v-5.482z" style="opacity:.700486;fill:#9ae6fc;stroke-width:0"/><path d="M48.464 37.477v5.481h5.459v-5.48z" style="opacity:.700486;fill:#4bd5ff;stroke-width:0"/><path d="M15.536 37.487v5.481h5.487v-5.48z" style="opacity:.700486;fill:#003077;stroke-width:0"/><path d="M37.487 37.477v5.481h5.49v-5.48z" style="opacity:.700486;fill:#0a2a61;stroke-width:0"/><path d="M42.977 37.477v5.481h5.487v-5.48z" style="opacity:.700486;fill:#003077;stroke-width:0"/><path d="M21.023 37.487v5.482h5.49v-5.482Z" style="opacity:.700486;fill:#0a2a61;stroke-width:0"/><path d="M32 37.477v5.481h5.487v-5.48z" style="opacity:.700486;fill:#aef3fc;stroke-width:0"/><path d="M10.077 37.487v5.471h5.459v-5.47Z" style="opacity:.700486;fill:#4bd5ff;stroke-width:0"/><path d="M15.536 10.849a9.15 9.15 0 0 0-4.7 4.711h4.7z" style="opacity:.700486;fill:#4ed6ff;stroke-width:0"/><path d="M18.793 10.09a9.1 9.1 0 0 0-3.257.759v4.721h5.487v-5.48z" style="opacity:.700486;fill:#71e0fe;stroke-width:0"/><path d="M10.837 15.56a9.2 9.2 0 0 0-.76 3.671v1.81h5.459v-5.48z" style="opacity:.700486;fill:#74e1ff;stroke-width:0"/><path d="M48.464 10.849v4.701h4.693a9.15 9.15 0 0 0-4.693-4.701" style="opacity:.700486;fill:#4ed6ff;stroke-width:0"/><path d="M42.977 10.08v5.48h5.487v-4.71a9.2 9.2 0 0 0-3.693-.77z" style="opacity:.700486;fill:#fdffff;stroke-width:0"/><path d="M48.464 15.55v5.481h5.459v-1.8a9.2 9.2 0 0 0-.766-3.68z" style="opacity:.700486;fill:#4ed6ff;stroke-width:0"/><path d="M48.464 48.45v4.703a9.15 9.15 0 0 0 4.695-4.703z" style="opacity:.700486;fill:#71e0ff;stroke-width:0"/><path d="M42.977 48.44v5.48h1.989a9.2 9.2 0 0 0 3.498-.767V48.44z" style="opacity:.700486;fill:#95e8fe;stroke-width:0"/><path d="M48.464 42.969v5.48h4.695a9.2 9.2 0 0 0 .764-3.678v-1.802z" style="opacity:.700486;fill:#4cd5ff;stroke-width:0"/><path d="M10.837 48.44a9.15 9.15 0 0 0 4.699 4.713V48.44z" style="opacity:.700486;fill:#73dfff;stroke-width:0"/><path d="M15.536 48.43v4.723c.99.435 2.074.7 3.214.758h2.273v-5.482z" style="opacity:.700486;fill:#4dd4ff;stroke-width:0"/><path d="M10.077 42.958v1.813c0 1.306.271 2.546.76 3.669h4.699v-5.482z" style="opacity:.700486;fill:#97e7fe;stroke-width:0"/><path d="M26.407 9.678v5.56h-.997v.011h-4.594v5.575h-5.592v5.595H9.678v11.162h5.546v5.595h5.592v5.575h5.591v5.571h11.184v-5.571h5.592v-5.587h5.591V37.58h5.548V26.408h-5.548v-5.574h-5.591v-5.596H37.59v-5.56h-5.592zm0 11.146h11.184v5.583h5.592V37.58H37.59v5.595h-5.592v.002h-5.592V37.59h-5.591V26.41h5.591z" style="fill:none;stroke:#000eff;stroke-width:.2;stroke-dasharray:none;stroke-opacity:1;filter:url(#d)" transform="translate(.578 .578)scale(.98193)"/></svg>