<svg xmlns="http://www.w3.org/2000/svg" xmlns:xlink="http://www.w3.org/1999/xlink" width="64" height="64"><defs><radialGradient xlink:href="#a" id="d" cx="8.756" cy="42.733" r="28" fx="8.756" fy="42.733" gradientTransform="rotate(30 51.042 36.483)scale(2.32962 1.41441)" gradientUnits="userSpaceOnUse"/><radialGradient xlink:href="#b" id="h" cx="13.022" cy="25.523" r="14" fx="13.022" fy="25.523" gradientTransform="rotate(-15 -257.922 199.033)scale(3.73033 3.99679)" gradientUnits="userSpaceOnUse"/><radialGradient xlink:href="#c" id="f" cx="20.568" cy="33.863" r="4" fx="20.568" fy="33.863" gradientTransform="rotate(75 215.103 101.387)scale(4.74577 8.01184)" gradientUnits="userSpaceOnUse"/><linearGradient id="c"><stop offset="0" style="stop-color:#ffa800;stop-opacity:1"/><stop offset="1" style="stop-color:#a0722e;stop-opacity:1"/></linearGradient><linearGradient id="b"><stop offset="0" style="stop-color:#d3e92f;stop-opacity:1"/><stop offset="1" style="stop-color:#74ba2f;stop-opacity:1"/></linearGradient><linearGradient id="a"><stop offset="0" style="stop-color:#23c156;stop-opacity:1"/><stop offset="1" style="stop-color:#197135;stop-opacity:1"/></linearGradient><filter id="e" width="1.089" height="1.146" x="-.044" y="-.073" style="color-interpolation-filters:sRGB"><feGaussianBlur stdDeviation=".951"/></filter><filter id="g" width="1.621" height="1.368" x="-.31" y="-.184" style="color-interpolation-filters:sRGB"><feGaussianBlur stdDeviation=".951"/></filter><filter id="i" width="1.177" height="1.166" x="-.089" y="-.083" style="color-interpolation-filters:sRGB"><feGaussianBlur stdDeviation=".951"/></filter></defs><path d="M31.867 26.002c-.929.021-1.792.158-2.808.726L6.207 39.492c-1.017.568-2.082 1.642-2.199 3.253s1.075 3.135 2.188 3.757L29.07 59.278c1.113.622 2.134.741 3.063.72s1.791-.158 2.808-.726l22.851-12.764c1.017-.568 2.083-1.64 2.2-3.253s-1.076-3.136-2.188-3.757L34.93 26.722c-1.112-.622-2.132-.74-3.06-.72Z" style="fill:url(#d)"/><path d="M32.008 25.934c-.928.021-1.791.158-2.808.726L6.349 39.424c-1.018.568-2.082 1.642-2.2 3.254-.117 1.612 1.075 3.134 2.188 3.756L29.212 59.21c1.113.622 2.134.741 3.062.72.93-.021 1.792-.158 2.809-.726l22.85-12.763c1.018-.568 2.083-1.642 2.2-3.254s-1.075-3.136-2.187-3.757L35.07 26.654c-1.113-.621-2.133-.74-3.06-.72z" style="fill:none;stroke:#000;stroke-opacity:1;stroke-width:.39999991;stroke-dasharray:none;filter:url(#e)"/><path d="M20 30h8v9.517a2.97 2.97 116.565 0 1-1.187 2.373l-1.627 1.22a1.98 1.98 0 0 1-2.373 0l-1.627-1.22A2.97 2.97 63.435 0 1 20 39.517Z" style="fill:url(#f)"/><path d="M20 30h8v9.517a2.97 2.97 116.565 0 1-1.187 2.373l-1.627 1.22a1.98 1.98 0 0 1-2.373 0l-1.627-1.22A2.97 2.97 63.435 0 1 20 39.517Z" style="fill:none;stroke:#000;stroke-opacity:1;stroke-width:.39999991;stroke-dasharray:none;filter:url(#g)" transform="translate(.141 -.068)"/><path d="M24.084 4.001a3.551 3.41 0 0 0-1.86.455l-10.448 5.795A3.551 3.41 0 0 0 10 13.205v11.59a3.551 3.41 0 0 0 1.776 2.953l10.448 5.795a3.551 3.41 0 0 0 3.551 0l10.45-5.795A3.551 3.41 0 0 0 38 24.794v-11.59a3.551 3.41 0 0 0-1.776-2.954L25.775 4.456A3.551 3.41 0 0 0 24.084 4Z" style="fill:url(#h)"/><path d="M24.226 3.933a3.551 3.41 0 0 0-1.86.455l-10.449 5.795a3.551 3.41 0 0 0-1.776 2.954v11.59a3.551 3.41 0 0 0 1.776 2.953l10.449 5.795a3.551 3.41 0 0 0 3.55 0l10.45-5.795a3.551 3.41 0 0 0 1.775-2.954v-11.59a3.551 3.41 0 0 0-1.775-2.954l-10.45-5.794a3.551 3.41 0 0 0-1.69-.455z" style="fill:none;stroke:#000;stroke-opacity:1;stroke-width:.39999991;stroke-dasharray:none;filter:url(#i)"/></svg>