<svg xmlns="http://www.w3.org/2000/svg" width="64" height="64"><defs><filter id="c" width="1.309" height="1.14" x="-.154" y="-.07" style="color-interpolation-filters:sRGB"><feGaussianBlur stdDeviation=".901"/></filter><filter id="b" width="1.158" height="1.143" x="-.079" y="-.071" style="color-interpolation-filters:sRGB"><feGaussianBlur stdDeviation=".901"/></filter><filter id="a" width="1.128" height="1.128" x="-.064" y="-.064" style="color-interpolation-filters:sRGB"><feGaussianBlur stdDeviation="1.454"/></filter></defs><path d="M32 4C16.488 4 4 16.488 4 32s12.488 28 28 28 28-12.488 28-28S47.512 4 32 4" style="fill:#e4e4e4"/><path d="M32 4C16.488 4 4 16.488 4 32s12.488 28 28 28 28-12.488 28-28S47.512 4 32 4" style="fill:#e4e4e4"/><path d="M32 4C16.488 4 4 16.488 4 32s12.488 28 28 28 28-12.488 28-28S47.512 4 32 4Z" style="fill:none;stroke:#000;stroke-opacity:1;filter:url(#a);stroke-width:.19999992;stroke-dasharray:none"/><path d="m22.607 16-1.896 1.097-.607.35-2.096 1.211-.008.005.008.006V44.2L22 47l4-2.8V27.437l6 4.1 6-4.1V44.2l4 2.8 3.992-2.8V18.669l.008-.006-.008-.005-2.096-1.211-.607-.35L41.393 16 32 21.941Z" style="fill:#878787;fill-opacity:1"/><path d="m22.583 15.897-1.896 1.096-.607.35-2.096 1.212-.008.005.008.006v25.53l3.992 2.801 4-2.8V27.334l6 4.1v-9.596z" style="opacity:.2"/><path d="m22.667 15.964-1.896 1.097-.607.35-2.096 1.211-.008.006.008.005v25.531l3.992 2.8 4-2.8V27.401l6 4.101 6-4.1v16.762l4 2.8 3.991-2.8V18.633l.009-.005-.009-.006-2.096-1.211-.606-.35-1.897-1.097-9.392 5.941z" style="fill:none;stroke:#000;stroke-linejoin:round;stroke-opacity:1;stroke-width:.1;stroke-dasharray:none;filter:url(#b)"/><path d="m22.643 15.861-1.896 1.097-.607.35-2.096 1.211-.008.006.008.005v25.531l3.992 2.8 4-2.8V27.298l6 4.101v-9.597z" style="opacity:1;fill:none;stroke:#000;stroke-linejoin:round;stroke-opacity:1;stroke-width:0;stroke-dasharray:none;filter:url(#c)"/></svg>