<svg xmlns="http://www.w3.org/2000/svg" width="64" height="64"><circle cx="32" cy="33" r="28" style="opacity:.2"/><circle cx="32" cy="32" r="28" style="fill:#e4e4e4"/><path d="M24 37.5v-9l8-4.5 8 4.5v9L32 42zm9.085-23.787v7.912l8.266 4.487 6.888-4.133zm-2.755 0v7.912l-8.266 4.487-6.888-4.133zM49.581 24.01l-6.852 3.955.248 9.402L50 41.266Zm-35.163 0 6.853 3.956-.248 9.401-7.023 3.9zm18.667 28.277v-7.912l8.266-4.487 6.888 4.133zm-2.755 0v-7.912l-8.266-4.487-6.888 4.133z" style="opacity:.1"/><path d="M24 36.5v-9l8-4.5 8 4.5v9L32 41z" style="fill:#d6ac12"/><path d="M33.085 12.713v7.912l8.266 4.487 6.888-4.133z" style="fill:#8fb635"/><path d="M30.33 12.713v7.912l-8.266 4.487-6.888-4.133z" style="fill:#3895bd"/><path d="m49.581 23.01-6.852 3.955.248 9.402L50 40.266Z" style="fill:#d18c3b"/><path d="m14.418 23.01 6.853 3.956-.248 9.401L14 40.266z" style="fill:#3941bf"/><path d="M33.085 51.287v-7.912l8.266-4.487 6.888 4.133z" style="fill:#a02c35"/><path d="M30.33 51.287v-7.912l-8.266-4.487-6.888 4.133z" style="fill:#bb3a84"/><path d="M32 4A28 28 0 0 0 4 32a28 28 0 0 0 .021.586A28 28 0 0 1 32 5a28 28 0 0 1 27.979 27.414L60 32A28 28 0 0 0 32 4" style="opacity:.2;fill:#fff"/></svg>