<svg xmlns="http://www.w3.org/2000/svg" width="64" height="64"><path d="M32 5A28 28 0 0 0 4 33a28 28 0 0 0 28 28 28 28 0 0 0 28-28A28 28 0 0 0 32 5" style="opacity:.2"/><path d="M32 4A28 28 0 0 0 4 32a28 28 0 0 0 28 28 28 28 0 0 0 28-28A28 28 0 0 0 32 4" style="fill:#234780"/><path d="m32 12 14 22-14 8-14-8Z" style="opacity:.2"/><path d="m32 54 14-18-14 8-14-8Z" style="opacity:.2"/><path d="m32 11 14 22-14 8-14-8Z" style="fill:#63bfd7"/><path d="m32 53 14-18-14 8-14-8Z" style="fill:#63bfd7"/><path d="M32 4A28 28 0 0 0 4 32l.021.406A28 28 0 0 1 32 5a28 28 0 0 1 27.979 27.578A28 28 0 0 0 60 32 28 28 0 0 0 32 4" style="opacity:.1;fill:#fff"/></svg>