<svg xmlns="http://www.w3.org/2000/svg" xmlns:xlink="http://www.w3.org/1999/xlink" width="64" height="64"><defs><radialGradient xlink:href="#a" id="c" cx="9.794" cy="53.224" r="27.922" fx="9.794" fy="53.224" gradientTransform="matrix(2.4419 0 0 2.23273 -9.175 -76.744)" gradientUnits="userSpaceOnUse"/><radialGradient xlink:href="#b" id="e" cx="25.189" cy="61.716" r="28" fx="25.189" fy="61.716" gradientTransform="rotate(-45 -75.975 170.725)scale(2.89736)" gradientUnits="userSpaceOnUse"/><linearGradient id="a"><stop offset="0" style="stop-color:#626262;stop-opacity:1"/><stop offset="1" style="stop-color:#262626;stop-opacity:1"/></linearGradient><linearGradient id="b"><stop offset="0" style="stop-color:#42b07b;stop-opacity:1"/><stop offset="1" style="stop-color:#00d66e;stop-opacity:1"/></linearGradient><filter id="d" width="1.199" height="1.228" x="-.1" y="-.114" style="color-interpolation-filters:sRGB"><feGaussianBlur stdDeviation="2.292"/></filter><filter id="f" width="1.196" height="1.196" x="-.098" y="-.098" style="color-interpolation-filters:sRGB"><feGaussianBlur stdDeviation="2.217"/></filter></defs><path d="M13.49 3.32h37.02a9.623 9.623 45 0 1 9.622 9.622V42.95a9.623 9.623 135 0 1-9.622 9.623H13.49a9.623 9.623 45 0 1-9.622-9.623V12.942a9.623 9.623 135 0 1 9.622-9.623" style="fill:url(#c);fill-opacity:1;stroke-width:.4" transform="matrix(.94764 0 0 -.84888 1.676 55.723)"/><path d="M5.355 45.189c.261 4.22 4.074 7.565 8.79 7.711h35.71c4.716-.146 8.528-3.49 8.79-7.71z" style="opacity:.559839;fill:#161616;fill-opacity:1;stroke:none;stroke-width:.254022;stroke-linecap:round;stroke-linejoin:round" transform="matrix(1 0 0 -1 0 64)"/><path d="M35.513 47.106a1.84 1.84 0 0 0-1.84 1.84 1.84 1.84 0 0 0 1.84 1.837 1.84 1.84 0 0 0 1.837-1.838 1.84 1.84 0 0 0-1.837-1.84zm5.441 0a1.84 1.84 0 0 0-1.838 1.84 1.84 1.84 0 0 0 1.838 1.837 1.84 1.84 0 0 0 1.84-1.838 1.84 1.84 0 0 0-1.84-1.84zm5.443 0a1.84 1.84 0 0 0-1.838 1.84 1.84 1.84 0 0 0 1.838 1.837 1.84 1.84 0 0 0 1.838-1.838 1.84 1.84 0 0 0-1.838-1.84zm5.444 0a1.84 1.84 0 0 0-1.84 1.84 1.84 1.84 0 0 0 1.84 1.837 1.84 1.84 0 0 0 1.838-1.838 1.84 1.84 0 0 0-1.838-1.84z" style="opacity:.703111;fill:#fff;fill-opacity:1;stroke:#fff;stroke-width:0" transform="matrix(1 0 0 -1 0 64)"/><path d="M13.49 3.32h37.02a9.623 9.623 45 0 1 9.622 9.622V42.95a9.623 9.623 135 0 1-9.622 9.623H13.49a9.623 9.623 45 0 1-9.622-9.623V12.942a9.623 9.623 135 0 1 9.622-9.623Z" style="fill:none;fill-opacity:1;stroke:#000;stroke-width:.222989;stroke-dasharray:none;stroke-opacity:1;filter:url(#d)" transform="matrix(.94764 0 0 -.84888 1.676 55.723)"/><path d="M4.09 26.588V57.2c0 1.551 1.249 2.8 2.8 2.8h10.48a3.72 3.72 135 0 0 3.72-3.72V27.752A6.75 6.75 135 0 1 27.84 21h8.529a3.72 3.72 135 0 0 3.72-3.72V7.72A3.72 3.72 45 0 0 36.37 4h-9.692A22.59 22.59 135 0 0 4.09 26.588m39-18.868v48.56A3.72 3.72 45 0 0 46.81 60h10.48c1.551 0 2.8-1.249 2.8-2.8V6.8c0-1.551-1.249-2.8-2.8-2.8H46.81a3.72 3.72 135 0 0-3.72 3.72m-19 20v28.56A3.72 3.72 45 0 0 27.81 60h8.56a3.72 3.72 135 0 0 3.72-3.72V27.72A3.72 3.72 45 0 0 36.37 24h-8.56a3.72 3.72 135 0 0-3.72 3.72" style="fill:url(#e)" transform="translate(38.036 38.037)scale(.39652)"/><path d="M4.09 26.588V57.2c0 1.551 1.249 2.8 2.8 2.8h10.48a3.72 3.72 135 0 0 3.72-3.72V27.752A6.75 6.75 135 0 1 27.84 21h8.529a3.72 3.72 135 0 0 3.72-3.72V7.72A3.72 3.72 45 0 0 36.37 4h-9.692A22.59 22.59 135 0 0 4.09 26.588Zm39-18.868v48.56A3.72 3.72 45 0 0 46.81 60h10.48c1.551 0 2.8-1.249 2.8-2.8V6.8c0-1.551-1.249-2.8-2.8-2.8H46.81a3.72 3.72 135 0 0-3.72 3.72zm-19 20v28.56A3.72 3.72 45 0 0 27.81 60h8.56a3.72 3.72 135 0 0 3.72-3.72V27.72A3.72 3.72 45 0 0 36.37 24h-8.56a3.72 3.72 135 0 0-3.72 3.72z" style="fill:none;stroke:#000;stroke-width:.313535;stroke-dasharray:none;stroke-opacity:1;filter:url(#f)" transform="translate(38.001 38.037)scale(.39652)"/></svg>