<svg xmlns="http://www.w3.org/2000/svg" width="64" height="64"><path d="M9.5 5a5.5 5.5 0 1 0 0 11h45a5.5 5.5 0 1 0 0-11zm44.838 14.004a5.5 5.5 0 0 0-4.29 2.265L32 46.136 13.951 21.27A5.5 5.5 0 0 0 4 24.5v31a5.5 5.5 0 1 0 11 0V41.442l12.549 17.29a5.5 5.5 0 0 0 8.902 0L49 41.44V55.5a5.5 5.5 0 1 0 11 0v-31a5.5 5.5 0 0 0-5.662-5.496" style="opacity:.2"/><path d="M9.5 54.5v-31l22.5 31 22.5-31v31" style="fill:none;stroke:#4f4f4f;stroke-width:11;stroke-linecap:round;stroke-linejoin:round"/><path d="M9.5 9.5h45" style="fill:none;stroke:#3f51b5;stroke-width:11;stroke-linecap:round;stroke-linejoin:round"/><path d="M9.5 4a5.5 5.5 0 0 0-5.55 5.979A5.5 5.5 0 0 1 9.5 5h45a5.5 5.5 0 0 1 5.55 5.02A5.5 5.5 0 0 0 54.5 4zm44.838 14.004a5.5 5.5 0 0 0-4.29 2.266L32 45.137 13.951 20.27A5.5 5.5 0 0 0 4 23.5v.928a5.5 5.5 0 0 1 9.951-3.158L32 46.137 50.049 21.27a5.5 5.5 0 0 1 4.289-2.266A5.5 5.5 0 0 1 60 24.5v-1a5.5 5.5 0 0 0-5.662-5.496" style="opacity:.1;fill:#fff"/></svg>