<svg xmlns="http://www.w3.org/2000/svg" width="64" height="64"><path d="M42.684 42.418C38.2 50.39 34.762 51.196 32 49.56s-3.8-5.096.683-13.068 13.555-16.989 16.638-17.728c.917 3.11-2.154 15.682-6.638 23.654z" style="opacity:.2" transform="translate(0 -1)"/><path d="M25.042 38.594C32.81 43.196 33.594 46.726 32 49.56s-4.964 3.902-12.73-.702C11.502 44.256 2.72 34.944 2 31.78c3.03-.942 15.276 2.21 23.042 6.814" style="opacity:.2" transform="translate(0 -1)"/><path d="M25.042 37.594C32.81 42.196 33.594 45.726 32 48.56s-4.964 3.902-12.73-.702C11.502 43.256 2.72 33.944 2 30.78c3.03-.942 15.276 2.21 23.042 6.814" style="fill:#fec8a4" transform="translate(0 -1)"/><path d="M31.316 36.492C35.8 44.464 34.762 47.924 32 49.56s-6.2.83-10.684-7.142-7.554-20.544-6.637-23.654c3.083.74 12.154 9.755 16.638 17.727z" style="opacity:.2" transform="translate(0 -1)"/><path d="M31.316 35.492C35.8 43.464 34.762 46.924 32 48.56s-6.2.83-10.684-7.142-7.554-20.544-6.637-23.654c3.083.74 12.153 9.756 16.637 17.728" style="fill:#fba66f" transform="translate(0 -1)"/><path d="M37.774 38.892c0 9.206-2.585 11.668-5.774 11.668s-5.773-2.462-5.773-11.668S29.69 17.222 32 15c2.31 2.222 5.774 14.686 5.774 23.892" style="opacity:.2" transform="translate(0 -1)"/><path d="M37.774 36.892c0 9.206-2.585 11.668-5.774 11.668s-5.773-2.462-5.773-11.668S29.69 15.222 32 13c2.31 2.222 5.774 14.686 5.774 23.892" style="fill:#f8863b" transform="translate(0 -1)"/><path d="M42.684 41.418C38.2 49.39 34.762 50.196 32 48.56s-3.8-5.096.684-13.068S46.238 18.503 49.32 17.764c.918 3.11-2.152 15.682-6.636 23.654" style="fill:#f76d12" transform="translate(0 -1)"/><path d="M44.73 48.858c-7.766 4.604-11.136 3.536-12.73.702s-.81-6.364 6.958-10.966C46.724 33.99 58.97 30.838 62 31.78c-.72 3.164-9.503 12.476-17.27 17.079z" style="opacity:.2" transform="translate(0 -1)"/><path d="M42.684 40.418C38.2 48.39 34.762 49.196 32 47.56s-3.8-5.096.684-13.068S46.238 17.503 49.32 16.764c.918 3.11-2.152 15.682-6.636 23.654" style="fill:#f76d12" transform="translate(0 -1)"/><path d="M44.73 47.858c-7.766 4.604-11.136 3.536-12.73.702s-.81-6.364 6.958-10.966C46.724 32.99 58.97 29.838 62 30.78c-.72 3.164-9.503 12.476-17.27 17.079z" style="fill:#d75908" transform="translate(0 -1)"/><path d="M33.003 55c-2 0-2.013-2.98-2-4" style="opacity:.2;stroke-linejoin:bevel;stroke:#000;stroke-linecap:round;stroke-width:2;fill:none" transform="translate(0 -1)"/><path d="M33.003 54c-2 0-2.013-2.98-2-4" style="stroke-linejoin:bevel;stroke:#3aa03d;stroke-linecap:round;stroke-width:2;fill:none" transform="translate(0 -1)"/></svg>