<svg xmlns="http://www.w3.org/2000/svg" width="64" height="64"><rect width="56" height="56" x="4" y="5" rx="11.2" ry="11.2" style="opacity:.2"/><rect width="56" height="56" x="4" y="4" rx="11.2" ry="11.2" style="fill:#ffc107"/><path d="M24.184 17.008a2 2 0 0 0-.551.074c-.855.237-2.005 2.037-3.461 4.453C19.114 23.29 18 25.593 18 25.828c0 .568.48 1.335.766 1.223.09-.035.56-.657 1.047-1.383s1.226-1.976 1.648-2.527c.284-.371.466-.644.582-.84-.04.291-.486 4.25-.992 8.066-.507 3.818-1.594 8.165-1.762 9.371-.543 3.897-.385 5.336.594 5.336.325 0 2.066-.896 2.344-1.207.161-.18.378-.742.562-1.469 1.675-6.59 5.047-13.043 7.348-16.058.413-.542.768-1.385.789-1.363.02.021-.065 1.06-.188 1.796-1.041 6.246-1.512 10.139-1.531 12.012-.012 1.221.019 1.554.191 1.883.197.376.238.397.704.344.489-.057 1.796-.662 2.171-1.004.107-.098.489-1.1.844-2.23 1.104-3.511 2.894-7.108 4.496-9.567.716-1.099 2.097-2.866 2.176-2.785.027.027-.218 1.458-.543 3.18-1.446 7.66-1.39 11.521-1.475 13.98-.069 1.945.034 2.666.543 3.766.466 1.008 1.15 1.726 2.12 2.222.876.448 1.804.542 2.524.285.2-.071.367-.207.367-.3 0-.094-.161-.494-.359-.895-.198-.4-.488-1.243-.645-1.867-.39-1.557-.387-4.247.016-7.899.507-4.6.081-6.158 1.55-13.375.13-.642.234-1.327.234-1.52 0-.576-.303-1-1.043-1.46-.927-.576-1.788-.68-2.61-.309-1.745.79-3.678 3.037-5.308 6.473-.557 1.175-1.468 3.384-1.797 4.371-.04.124-.093.205-.117.18-.045-.048.328-2.263 1.027-5.406.725-3.26.902-4.296.766-4.555-.316-.604-1.632-1.305-2.453-1.309-1.69-.009-3.707 2.057-5.414 5.54-.575 1.172-1.79 4.625-2.285 6.16-.21.651-.387 1.075-.39.945-.008-.228-.075-3.02 1.382-11.774.723-4.346.725-4.325.121-4.629-.338-.169-1.174-.222-1.816-.222m20.09 26.191c-.294.004-.299.054-.254.18.154.44.324 1.429.324 1.875v.465l.957.14c1.157.172 2.514.566 3.465 1.008.387.18.731.33.77.332.037.003.174-.302.3-.68.196-.589.207-.758.078-1.195-.222-.749-.523-1.143-1.07-1.414-.63-.312-2.14-.587-3.68-.672-.436-.024-.714-.041-.89-.039M35.151 45c-.453 0-2.927.442-4.359.777-.672.158-1.688.392-2.258.524s-1.943.475-3.05.758c-1.108.282-2.428.6-2.934.707-.99.208-1.554.393-1.551.511.004.2.618.723.848.723.058 0 1.172-.16 2.476-.352 3.666-.54 10.355-1.284 11.656-1.296.045 0 .01-.209-.078-.465a11 11 0 0 1-.3-1.176c-.128-.662-.155-.711-.45-.711" style="opacity:.1"/><path d="M24.184 16.008a2 2 0 0 0-.551.074c-.855.237-2.005 2.037-3.461 4.453C19.114 22.29 18 24.593 18 24.828c0 .568.48 1.335.766 1.223.09-.035.56-.657 1.047-1.383s1.226-1.976 1.648-2.527c.284-.371.466-.644.582-.84-.04.291-.486 4.25-.992 8.066-.507 3.818-1.594 8.165-1.762 9.371-.543 3.897-.385 5.336.594 5.336.325 0 2.066-.896 2.344-1.207.161-.18.378-.742.562-1.469 1.675-6.59 5.047-13.043 7.348-16.058.413-.542.768-1.385.789-1.363.02.021-.065 1.06-.188 1.796-1.041 6.246-1.512 10.139-1.531 12.012-.012 1.221.019 1.554.191 1.883.197.376.238.397.704.344.489-.057 1.796-.662 2.171-1.004.107-.098.489-1.1.844-2.23 1.104-3.511 2.894-7.108 4.496-9.567.716-1.099 2.097-2.866 2.176-2.785.027.027-.218 1.458-.543 3.18-1.446 7.66-1.39 11.521-1.475 13.98-.069 1.945.034 2.666.543 3.766.466 1.008 1.15 1.726 2.12 2.222.876.448 1.804.542 2.524.285.2-.071.367-.207.367-.3 0-.094-.161-.494-.359-.895-.198-.4-.488-1.243-.645-1.867-.39-1.557-.387-4.247.016-7.899.507-4.6.081-6.158 1.55-13.375.13-.642.234-1.327.234-1.52 0-.576-.303-1-1.043-1.46-.927-.576-1.788-.68-2.61-.309-1.745.79-3.678 3.037-5.308 6.473-.557 1.175-1.468 3.384-1.797 4.371-.04.124-.093.205-.117.18-.045-.048.328-2.263 1.027-5.406.725-3.26.902-4.296.766-4.555-.316-.604-1.632-1.305-2.453-1.309-1.69-.009-3.707 2.057-5.414 5.54-.575 1.172-1.79 4.625-2.285 6.16-.21.651-.387 1.075-.39.945-.008-.228-.075-3.02 1.382-11.774.723-4.346.725-4.325.121-4.629-.338-.169-1.174-.222-1.816-.222m20.09 25.991c-.294.004-.299.054-.254.18.154.44.324 1.629.324 2.075v.465l.957.14c1.157.172 2.514.566 3.465 1.008.387.18.731.33.77.332.037.003.174-.302.3-.68.196-.589.207-.758.078-1.195-.222-.749-.523-1.143-1.07-1.414-.63-.312-2.14-.787-3.68-.872-.436-.024-.714-.041-.89-.039M35.151 44c-.453 0-2.927.442-4.359.777-.672.158-1.688.392-2.258.524s-1.943.475-3.05.758c-1.108.282-2.428.6-2.934.707-.99.208-1.554.393-1.551.511.004.2.618.723.848.723.058 0 1.172-.16 2.476-.352 3.666-.54 10.355-1.284 11.656-1.296.045 0 .01-.209-.078-.465a11 11 0 0 1-.3-1.176c-.128-.662-.155-.711-.45-.711" style="fill:#383838"/><path d="M15.2 4C8.993 4 4 8.994 4 15.2v1C4 9.993 8.994 5 15.2 5h33.6C55.007 5 60 9.994 60 16.2v-1C60 8.993 55.006 4 48.8 4z" style="opacity:.2;fill:#fff"/></svg>