<svg xmlns="http://www.w3.org/2000/svg" width="64" height="64"><defs><clipPath id="b"><circle cx="32" cy="32" r="28"/></clipPath><clipPath id="d"><path d="M3 41h11V17l18 18 18-18v24h12v6H44V32L32 44 20 32v15H3z"/></clipPath><clipPath id="c"><path d="M3 42h11V18l18 18 18-18v24h12v6H44V33L32 45 20 33v15H3z"/></clipPath><clipPath id="a"><path d="M3 44h14V24l15 15 15-15v20h14V3H3z"/></clipPath></defs><circle cx="32" cy="33" r="28" style="opacity:.2"/><circle cx="32" cy="32" r="28" clip-path="url(#a)" style="fill:#f60"/><path d="M5 44h12V24l15 15 15-15v20h13v18H5z" clip-path="url(#b)" style="fill:#4d4d4d"/><circle cx="32" cy="32" r="28" clip-path="url(#c)" style="opacity:.2"/><circle cx="32" cy="32" r="28" clip-path="url(#d)" style="fill:#f2f2f2"/><path d="M32 4A28 28 0 0 0 4 32a28 28 0 0 0 .021.586A28 28 0 0 1 32 5a28 28 0 0 1 27.979 27.414L60 32A28 28 0 0 0 32 4" style="fill:#fff;opacity:.2"/></svg>