<svg xmlns="http://www.w3.org/2000/svg" width="64" height="64"><circle cx="31.5" cy="-32.5" r="28.5" style="opacity:.2" transform="scale(1 -1)"/><circle cx="31.5" cy="-31.5" r="28.5" style="fill:#565c64" transform="scale(1 -1)"/><path d="M31.5 3A28.5 28.5 0 0 0 3 31.5l.021.418A28.5 28.5 0 0 1 31.5 4a28.5 28.5 0 0 1 28.479 28.082A29 29 0 0 0 60 31.5 28.5 28.5 0 0 0 31.5 3" style="fill:#fff;opacity:.1"/><path d="M30 10.052a22.5 22.5 0 0 0-13.295 5.532L30 28.879Zm3 .024v18.803l13.3-13.301A22.5 22.5 0 0 0 33 10.076m-18.422 7.623a22.5 22.5 0 0 0-5.502 13.3H27.88Zm33.838.006L35.121 31h18.826a22.5 22.5 0 0 0-5.531-13.295M9.053 34a22.5 22.5 0 0 0 5.531 13.295L27.879 34Zm26.068 0 13.3 13.3A22.5 22.5 0 0 0 53.925 34ZM30 36.12 16.7 49.423A22.5 22.5 0 0 0 30 54.924Zm3 0v18.827a22.5 22.5 0 0 0 13.295-5.531z" style="opacity:.2"/><path d="M30 9.053a22.5 22.5 0 0 0-13.295 5.531L30 27.879zm3 .023V27.88l13.3-13.3A22.5 22.5 0 0 0 33 9.075M14.578 16.7A22.5 22.5 0 0 0 9.076 30H27.88zm33.838.006L35.121 30h18.826a22.5 22.5 0 0 0-5.531-13.295M9.053 33a22.5 22.5 0 0 0 5.531 13.295L27.879 33zm26.068 0 13.3 13.3A22.5 22.5 0 0 0 53.925 33zM30 35.121l-13.3 13.3A22.5 22.5 0 0 0 30 53.925zm3 0v18.826a22.5 22.5 0 0 0 13.295-5.531z" style="fill:#fff"/></svg>