<svg xmlns="http://www.w3.org/2000/svg" width="64" height="64"><path d="M53 5c-2.782.001-5.3 1.45-6.412 4H15.2s-2.942-.01-5.764 1.867S3.982 16.705 4 23.008c.017 6.044 2.786 10.284 5.69 11.84 2.507 1.343 4.877 1.292 5.51 1.252h33.2q.135 0 .27-.013s1.307.01 2.596.701c1.288.69 2.721 1.449 2.734 6.02.014 4.897-1.554 6.337-2.94 7.26-1.385.922-2.66.932-2.66.932H17.407c-1.112-2.548-3.627-3.996-6.407-4a7 7 0 0 0 0 14c2.782-.001 5.3-1.35 6.412-3.9H48.8s2.942.01 5.764-1.867S60.018 49.395 60 43.092c-.017-6.044-2.786-10.284-5.69-11.84C51.803 29.91 49.433 29.96 48.8 30H15.6q-.135 0-.27.013s-1.307.09-2.596-.601c-1.288-.69-2.721-1.649-2.734-6.22-.014-4.898 1.554-6.238 2.94-7.16s2.66-.932 2.66-.932h30.993C47.705 17.648 50.22 18.996 53 19a7 7 0 0 0 0-14" style="opacity:.2"/><path d="M53 4c-2.782.001-5.3 1.45-6.412 4H15.2s-2.942-.01-5.764 1.867S3.982 15.705 4 22.008c.017 6.044 2.786 10.284 5.69 11.84 2.507 1.343 4.877 1.292 5.51 1.252h33.2q.135 0 .27-.013s1.307.01 2.596.701c1.288.69 2.721 1.449 2.734 6.02.014 4.897-1.554 6.337-2.94 7.26-1.385.922-2.66.932-2.66.932H17.407c-1.112-2.548-3.627-3.996-6.407-4a7 7 0 0 0 0 14c2.782-.001 5.3-1.35 6.412-3.9H48.8s2.942.01 5.764-1.867S60.018 48.395 60 42.092c-.017-6.044-2.786-10.284-5.69-11.84C51.803 28.91 49.433 28.96 48.8 29H15.6q-.135 0-.27.013s-1.307.09-2.596-.601c-1.288-.69-2.721-1.649-2.734-6.22-.014-4.898 1.554-6.238 2.94-7.16s2.66-.932 2.66-.932h30.993C47.705 16.648 50.22 17.996 53 18a7 7 0 0 0 0-14" style="fill:#4738ae"/><path d="M53 4c-2.782.001-5.3 1.45-6.412 4H15.199s-2.941-.01-5.763 1.867S3.982 15.705 4 22.007c0 .146.01.285.014.429.14-5.967 2.687-9.75 5.422-11.569C12.258 8.99 15.199 9 15.199 9h31.389C47.7 6.45 50.218 5.001 53 5c3.697 0 6.717 2.869 6.975 6.5.011-.166.025-.331.025-.5a7 7 0 0 0-7-7M10.021 22.666c-.004.181-.022.333-.021.525.013 4.572 1.446 5.53 2.734 6.221s2.596.602 2.596.602q.135-.015.27-.014h33.2c.634-.04 3.003-.091 5.51 1.252 2.835 1.519 5.532 5.6 5.676 11.412.005-.19.015-.377.014-.572-.017-6.044-2.785-10.284-5.69-11.84-2.507-1.343-4.876-1.292-5.51-1.252H15.6q-.135 0-.27.014s-1.307.088-2.596-.602c-1.239-.664-2.598-1.61-2.713-5.746M53.98 42.338c-.104 4.447-1.587 5.845-2.918 6.73-1.386.923-2.66.932-2.66.932H17.405c-1.112-2.548-3.626-3.996-6.406-4a7 7 0 0 0-7 7c0 .169.014.334.025.5C4.283 49.869 7.303 47 11 47c2.78.004 5.294 1.452 6.406 4H48.4s1.275-.01 2.66-.932 2.954-2.362 2.94-7.26c0-.174-.017-.307-.021-.47" style="opacity:.1;fill:#fff"/><rect width="31" height="31" x="17" y="17" rx="15.5" ry="15.5" style="opacity:.2"/><rect width="31" height="31" x="17" y="17" rx="15.5" ry="15.5" style="opacity:.2"/><rect width="31" height="31" x="17" y="16" rx="15.5" ry="15.5" style="fill:#2968b4"/><path d="M32.5 22C26.701 22 22 26.701 22 32.5S26.701 43 32.5 43 43 38.299 43 32.5 38.299 22 32.5 22m-1.052 2.007c.123-.013.278.007.402 0 .014.058-.09.266-.229.571-.889 1.942-.94 4.219-.114 5.435.15.22.284.43.284.457s-.16.055-.343.055c-.427 0-.832-.26-1.658-.914-.367-.29-.843-.534-1.028-.571-.29-.058-.369-.033-.744.343-.35.35-.457.538-.457.858 0 1.213 1.439 2.175 4.116 2.742 3.635.77 4.531 1.464 4.632 3.375.125 2.397-1.151 4.206-3.947 5.605-.333.167-.545.23-.685.284-.062-.006-.108.006-.17 0-.024-.074-.059-.245-.059-.571 0-1.273-.5-2.584-1.257-3.317-.203-.196-.773-.612-1.26-.914-.486-.301-.977-.65-1.086-.8-.182-.247-.195-.4-.056-.858.254-.836.555-1.303 1.143-1.831.308-.277.617-.507.685-.513.068-.005-.391-.145-1.084-.287a20 20 0 0 1-2.232-.63c-.958-.346-2.25-1.073-2.742-1.6l-.059-.058a9.2 9.2 0 0 1 5.317-6.231 9 9 0 0 1 1.717-.516c.298-.06.606-.083.914-.114m8.578 4.289c.215.133 1.026 1.889 1.257 2.745.3 1.106.278 3.018 0 4.116-.105.418-.239.81-.284.859s-.21-.231-.401-.572-.806-1.064-1.316-1.602c-1.471-1.553-1.703-2.362-1.087-3.6.311-.626 1.665-2.049 1.831-1.946" style="opacity:.2"/><path d="M32.5 21C26.701 21 22 25.701 22 31.5S26.701 42 32.5 42 43 37.299 43 31.5 38.299 21 32.5 21m-1.052 2.007c.123-.013.278.007.402 0 .014.058-.09.266-.229.571-.889 1.942-.94 4.219-.114 5.435.15.22.284.43.284.457s-.16.055-.343.055c-.427 0-.832-.26-1.658-.914-.367-.29-.843-.534-1.028-.571-.29-.058-.369-.033-.744.343-.35.35-.457.538-.457.858 0 1.213 1.439 2.175 4.116 2.742 3.635.77 4.531 1.464 4.632 3.375.125 2.397-1.151 4.206-3.947 5.605-.333.167-.545.23-.685.284-.062-.006-.108.006-.17 0-.024-.074-.059-.245-.059-.571 0-1.273-.5-2.584-1.257-3.317-.203-.196-.773-.612-1.26-.914-.486-.301-.977-.65-1.086-.8-.182-.247-.195-.4-.056-.858.254-.836.555-1.303 1.143-1.831.308-.277.617-.507.685-.513.068-.005-.391-.145-1.084-.287a20 20 0 0 1-2.232-.63c-.958-.346-2.25-1.073-2.742-1.6l-.059-.058a9.2 9.2 0 0 1 5.317-6.231 9 9 0 0 1 1.717-.516c.298-.06.606-.083.914-.114m8.578 4.289c.215.133 1.026 1.889 1.257 2.745.3 1.106.278 3.018 0 4.116-.105.418-.239.81-.284.859s-.21-.231-.401-.572-.806-1.064-1.316-1.602c-1.471-1.553-1.703-2.362-1.087-3.6.311-.626 1.665-2.049 1.831-1.946" style="fill:#fff"/><path d="M32.5 16C23.913 16 17 22.913 17 31.5c0 .169.02.333.025.5.265-8.352 7.057-15 15.475-15s15.21 6.648 15.475 15c.005-.167.025-.331.025-.5C48 22.913 41.087 16 32.5 16" style="fill:#fff;opacity:.2"/></svg>