<svg xmlns="http://www.w3.org/2000/svg" width="64" height="64"><path d="M12 54h40v6H12z" style="opacity:.2"/><path d="M26 35h12l6 24H20z" style="fill:#4f4f4f"/><path d="m23.723 13.98 3.032 5.251 3.032 5.252H17.66l3.032-5.252z" style="fill:#9c9c9c" transform="rotate(60 23.1 37.37)scale(.6926 .79976)"/><path d="M46.94 39.412c-9.227 5.327-21.025 2.166-26.352-7.06C15.26 23.124 18.422 11.326 27.648 6Z" style="opacity:.2"/><path d="M46.94 38.412c-9.227 5.327-21.025 2.166-26.352-7.06C15.26 22.124 18.422 10.326 27.648 5Z" style="fill:#686868"/><circle cx="37.954" cy="-27.739" r="3" style="opacity:.2" transform="rotate(60)"/><circle cx="37.088" cy="-28.239" r="3" style="fill:#e4e4e4" transform="rotate(60)"/><path d="M12 53h40v6H12z" style="fill:#4f4f4f"/><path d="M27.648 5c-6.415 3.704-9.889 10.537-9.625 17.459.091-6.573 3.52-12.934 9.625-16.459L46.5 38.65c.146-.08.294-.154.44-.238z" style="opacity:.1;fill:#fff"/></svg>