<svg xmlns="http://www.w3.org/2000/svg" width="64" height="64"><rect width="56" height="56" x="4" y="5" rx="2.8" ry="2.8" style="opacity:.2"/><rect width="56" height="56" x="4" y="4" rx="2.8" ry="2.8" style="fill:#12a9e7"/><path d="M6.8 4C5.25 4 4 5.25 4 6.8v1C4 6.25 5.25 5 6.8 5h50.4C58.75 5 60 6.25 60 7.8v-1C60 5.25 58.75 4 57.2 4z" style="fill:#fff;opacity:.2"/><path d="m18 16-8 34h7l5-22 6 22h8l6-22 5 22h7l-8-34h-7l-7 24-7-24Z" style="opacity:.2"/><path d="m18 15-8 34h7l5-22 6 22h8l6-22 5 22h7l-8-34h-7l-7 24-7-24Z" style="fill:#fff"/></svg>