<svg xmlns="http://www.w3.org/2000/svg" width="64" height="64"><circle cx="32" cy="33" r="28" style="opacity:.2"/><circle cx="32" cy="32" r="28" style="fill:#a776d6"/><path d="M32 4A28 28 0 0 0 4 32a28 28 0 0 0 .021.586A28 28 0 0 1 32 5a28 28 0 0 1 27.979 27.414L60 32A28 28 0 0 0 32 4" style="fill:#fff;opacity:.2"/><rect width="34" height="34" x="15" y="16" rx="3" ry="3" style="opacity:.2"/><rect width="34" height="34" x="15" y="15" rx="3" ry="3" style="fill:#e5e9f0"/><path d="M34 42c-.554 0-1 .335-1 .75V45h1v-2h1v2h1v-2h1v2h1v-2.25c0-.415-.446-.75-1-.75zm8 0c-.554 0-1 .335-1 .75v1.5c0 .416.446.75 1 .75h3c.554 0 1-.334 1-.75v-1.5c0-.415-.446-.75-1-.75zm-2.5 1a.499.499 0 1 0 0 1 .499.499 0 1 0 0-1m2.5 0h3v1h-3z" style="fill:#9aa0aa"/><path d="M22 15v5c0 1.662 1.338 3 3 3h14c1.662 0 3-1.338 3-3v-5z" style="fill:#4f4f4f"/><path d="M22 15v1h20v-1z" style="opacity:.2"/><path d="M26 19v1h4v-1zm8 0v1h4v-1z" style="fill:#fbe604"/><path d="M26 20v1h4v-1zm8 0v1h4v-1z" style="opacity:.2"/><path d="M18 15c-1.662 0-3 1.338-3 3v1c0-1.662 1.338-3 3-3h4v-1zm24 0v1h4c1.662 0 3 1.338 3 3v-1c0-1.662-1.338-3-3-3z" style="fill:#fff;opacity:.2"/></svg>