<svg xmlns="http://www.w3.org/2000/svg" width="64" height="64"><path d="M20.8 5C11.493 5 4 12.493 4 21.8v35A4.19 4.19 0 0 0 8.2 61h47.6a4.19 4.19 0 0 0 4.2-4.2V9.2A4.19 4.19 0 0 0 55.8 5H22.2Z" style="opacity:.2"/><path d="M20.8 4C11.493 4 4 11.493 4 20.8v35A4.19 4.19 0 0 0 8.2 60h47.6a4.19 4.19 0 0 0 4.2-4.2V8.2A4.19 4.19 0 0 0 55.8 4H22.2Z" style="fill:#ff9800"/><path d="M22.559 13c-2.595-.014-5.372.24-8.332.8L14 13.71c.032.04.066.075.098.114l-.016.004.023.012c5.714 6.955 11.776 12.392 14.477 21.242-3.114 2.308-5.794 5.598-7.617 9.855l1.73.18c1.832-3.27 4.035-5.678 6.575-7.336.571 2.721.846 5.753.73 9.219h-4l7 6 7-6h-4c-.236-4.554-.547-8.25-1.258-11.543q2.654-.628 5.63-.559c4.116.095 8.68 1.047 13.628 2.196C50.433 26.603 41.015 13.1 22.559 13m1.363 4.809c8.765 1.63 18.195 5.328 23.047 14.359l-.047-.031c-2.072-.637-4.272-1.083-6.492-1.078-2.2.004-4.421.4-6.563 1.175-1.61-4.847-4.5-9.068-9.945-14.425" style="opacity:.1"/><path d="M22.557 12c-2.636-.014-5.458.246-8.473.826l8.607 3.759c9.1 1.511 19.198 5.128 24.277 14.584l-.044-.03c-2.073-.638-4.272-1.083-6.493-1.079-7.64.015-15.54 4.712-19.467 13.879l1.73.178C26.828 36.74 32.852 33.727 40.37 33.9c4.117.094 8.68 1.045 13.63 2.193-3.567-10.49-12.986-23.991-31.443-24.092" style="fill:#985a00"/><path d="M14 12.712C21.926 22.395 30.566 29.084 30 46h-4l7 6 7-6h-4c-.694-13.356-2.02-19.355-12.234-29.35" style="fill:#985a00"/><path d="M20.8 4C11.495 4 4 11.494 4 20.8v1C4 12.495 11.494 5 20.8 5h35A4.19 4.19 0 0 1 60 9.2v-1A4.19 4.19 0 0 0 55.8 4z" style="opacity:.2;fill:#fff"/></svg>