<svg xmlns="http://www.w3.org/2000/svg" width="64" height="64"><path d="M6.8 5C5.25 5 4 6.25 4 7.8v50.4C4 59.75 5.25 61 6.8 61h24.778c.04 0 .085-.011.125-.012L32 61a28 28 0 0 0 28-28A28 28 0 0 0 32 5l-.246.016c-.056-.001-.12-.016-.176-.016H8Z" style="opacity:.2"/><path d="M15.8 4v56h15.78c8.82 0 26.6-12.536 26.6-28S40.4 4 31.58 4Z" style="fill:#e4e4e4"/><path d="M6.8 4A2.794 2.794 0 0 0 4 6.8v50.4C4 58.751 5.249 60 6.8 60H8V4Z" style="fill:#e8494e"/><path d="M8 4h4v56H8z" style="fill:#38af29"/><path d="M12 4h4v56h-4z" style="fill:#1f72c7"/><path d="M32 5a28 28 0 0 0-2.691.156A28 28 0 0 1 54.399 33a28 28 0 0 1-25.31 27.844A28 28 0 0 0 32 61a28 28 0 0 0 28-28A28 28 0 0 0 32 5m.066 12a16 16 0 0 0-2.718.23A16 16 0 0 1 42.73 33a16 16 0 0 1-13.277 15.77 16 16 0 0 0 2.613.23 16 16 0 0 0 16-16 16 16 0 0 0-16-16M28 25a8 8 0 0 0-8 8 8 8 0 0 0 8 8 8 8 0 0 0 8-8 8 8 0 0 0-8-8" style="opacity:.1"/><path d="M32 4a28 28 0 0 0-2.69.156A28 28 0 0 1 54.4 32a28 28 0 0 1-25.31 27.844A28 28 0 0 0 32 60a28 28 0 0 0 28-28A28 28 0 0 0 32 4" style="fill:#4f4f4f"/><path d="M32.065 16a16 16 0 0 0-2.719.232A16 16 0 0 1 42.731 32a16 16 0 0 1-13.278 15.768 16 16 0 0 0 2.612.232 16 16 0 0 0 16-16 16 16 0 0 0-16-16" style="fill:#4f4f4f"/><circle cx="28" cy="32" r="8" style="fill:#4f4f4f"/><path d="M25.818 36.649q0-.375.108-.632.106-.258.298-.417.19-.16.449-.23a2.1 2.1 0 0 1 1.08 0q.25.07.442.23.19.159.301.417.111.257.111.632 0 .357-.11.612-.113.254-.302.421-.192.166-.442.243-.25.075-.528.075-.294 0-.552-.075a1.2 1.2 0 0 1-.45-.243 1.14 1.14 0 0 1-.297-.421 1.6 1.6 0 0 1-.107-.612M26.08 34v-.657q0-.405.084-.735.083-.33.254-.628.17-.297.44-.58a6.5 6.5 0 0 1 .653-.584q.333-.261.564-.47.23-.204.373-.409.143-.202.207-.424.064-.223.064-.517a1 1 0 0 0-.307-.747q-.306-.294-.934-.294-.547 0-1.18.23-.631.23-1.307.565l-.81-1.757q.34-.198.743-.377t.834-.318a7 7 0 0 1 .878-.218q.445-.08.875-.08.81 0 1.461.195.653.195 1.105.568a2.5 2.5 0 0 1 .696.906q.242.532.242 1.216 0 .5-.111.894a2.7 2.7 0 0 1-.33.731q-.219.338-.548.652t-.767.663a9 9 0 0 0-.545.457q-.21.196-.33.37-.118.174-.162.362a2 2 0 0 0-.044.44V34z" style="fill:#fff"/><path d="M6.8 4C5.25 4 4 5.25 4 6.8v1C4 6.25 5.25 5 6.8 5h24.778c.055 0 .12.015.176.016L32 5a28 28 0 0 1 27.979 27.578A28 28 0 0 0 60 32 28 28 0 0 0 32 4l-.246.016c-.056-.001-.12-.016-.176-.016z" style="opacity:.1;fill:#fff"/></svg>