<svg xmlns="http://www.w3.org/2000/svg" width="64" height="64"><rect width="39" height="30" x="21" y="6" rx="4.179" ry="4.091" style="opacity:.2"/><circle cx="23.5" cy="33.5" r="19.5" style="opacity:.2"/><rect width="16" height="3" x="33" y="58" rx="1.5" ry="1.5" style="opacity:.2"/><rect width="39" height="30" x="21" y="5" rx="4.179" ry="4.091" style="fill:#00b4ed"/><circle cx="23.5" cy="32.5" r="19.5" style="fill:#4f4f4f"/><circle cx="23.5" cy="32.5" r="15.5" style="fill:#3f3f3f"/><circle cx="23.5" cy="32.5" r="5.5" style="opacity:.2"/><rect width="8" height="7" x="37" y="51.6" rx="1.143" ry="1.4" style="fill:#3f3f3f"/><rect width="28" height="22" x="27" y="35" rx="3" ry="3" style="opacity:.2"/><rect width="28" height="22" x="27" y="34" rx="3" ry="3" style="fill:#1d64bc"/><rect width="16" height="3" x="33" y="57" rx="1.5" ry="1.5" style="fill:#4f4f4f"/><path d="M25.178 5C22.863 5 21 6.825 21 9.092v1C21 7.825 22.863 6 25.178 6h30.644C58.137 6 60 7.825 60 10.092v-1C60 6.825 58.137 5 55.822 5z" style="opacity:.2;fill:#fff"/></svg>