<svg xmlns="http://www.w3.org/2000/svg" width="64" height="64"><circle cx="32" cy="33" r="29" style="opacity:.2"/><circle cx="32" cy="32" r="29" style="fill:#792d72"/><path d="M27.285 14c-1.21 0-2.285.98-2.285 2.191V26h-9.809c-1.21 0-2.19 1.074-2.191 2.285v9.43c0 1.21.98 2.285 2.191 2.285H25v9.809c0 1.21 1.074 2.19 2.285 2.191h9.43c1.21 0 2.285-.98 2.285-2.191V40h9.809c1.21 0 2.19-1.074 2.191-2.285v-9.43c0-1.21-.98-2.285-2.191-2.285H39v-9.809c0-1.21-1.074-2.19-2.285-2.191ZM29 18h6v9.75A2.25 2.25 0 0 0 37.25 30H47v6h-9.75A2.25 2.25 0 0 0 35 38.25V48h-6v-9.75A2.25 2.25 0 0 0 26.75 36H17v-6h9.75A2.25 2.25 0 0 0 29 27.75Z" style="opacity:.2"/><path d="M27.285 13c-1.21 0-2.285.98-2.285 2.191V25h-9.809c-1.21 0-2.19 1.074-2.191 2.285v9.43c0 1.21.98 2.285 2.191 2.285H25v9.809c0 1.21 1.074 2.19 2.285 2.191h9.43c1.21 0 2.285-.98 2.285-2.191V39h9.809c1.21 0 2.19-1.074 2.191-2.285v-9.43c0-1.21-.98-2.285-2.191-2.285H39v-9.809c0-1.21-1.074-2.19-2.285-2.191ZM29 17h6v9.75A2.25 2.25 0 0 0 37.25 29H47v6h-9.75A2.25 2.25 0 0 0 35 37.25V47h-6v-9.75A2.25 2.25 0 0 0 26.75 35H17v-6h9.75A2.25 2.25 0 0 0 29 26.75Z" style="fill:#fcd600"/><path d="M32 3A29 29 0 0 0 3 32a29 29 0 0 0 .018.488A29 29 0 0 1 32 4a29 29 0 0 1 28.975 28.494A29 29 0 0 0 61 32 29 29 0 0 0 32 3" style="opacity:.1;fill:#fff"/><path d="M27.285 13c-1.21 0-2.285.98-2.285 2.191v1c0-1.21 1.074-2.19 2.285-2.191h9.43c1.21 0 2.285.98 2.285 2.191v-1c0-1.21-1.074-2.19-2.285-2.191zM15.191 25c-1.21 0-2.19 1.074-2.191 2.285v1c0-1.21.98-2.285 2.191-2.285H25v-1zM39 25v1h9.809c1.21 0 2.19 1.074 2.191 2.285v-1c0-1.21-.98-2.285-2.191-2.285zM17 35v1h9.75A2.25 2.25 0 0 1 29 38.25v-1A2.25 2.25 0 0 0 26.75 35zm20.25 0A2.25 2.25 0 0 0 35 37.25v1A2.25 2.25 0 0 1 37.25 36H47v-1zM29 47v1h6v-1z" style="opacity:.2;fill:#fff"/></svg>