<svg xmlns="http://www.w3.org/2000/svg" width="64" height="64"><path d="M23 4v3h16V4Zm16 3v3h3V7Zm3 3v3h3v14h3V16h5v-3h-5V8h-3v2zm6-2h5V5h-5zm5 0v5h3V8Zm-8 19h-3v3h-3v3h8v14h3V33h-2v-3h-3zm2 20H17V36h-3v11h-3v3h6v3h-6v2H8v3h3v3h36v-3h3v-3h-3v-2h-5v-3h5zm-36 0V36H8v11zm0-11h3v-3h-3zm3-3h3v-3h-3zm0-3V16h-3v14zm0-14h3v-6h-3zm3-6h6V7h-6zm0 23v3h22v-3z" style="opacity:.2"/><path d="M23 3v3h16V3Zm16 3v3h3V6Zm3 3v3h3v14h3V15h5v-3h-5V7h-3v2zm6-2h5V4h-5zm5 0v5h3V7Zm-8 19h-3v3h-3v3h8v14h3V32h-2v-3h-3zm2 20H17V35h-3v11h-3v3h6v3h-6v2H8v3h3v3h36v-3h3v-3h-3v-2h-5v-3h5zm-36 0V35H8v11zm0-11h3v-3h-3zm3-3h3v-3h-3zm0-3V15h-3v14zm0-14h3V9h-3zm3-6h6V6h-6zm0 23v3h22v-3z" style="fill:#3f3f3f"/><path d="M23 3v1h16V3zm25 1v1h5V4zM17 6v1h6V6zm22 0v1h3V6zm6 1v1h3V7zm8 0v1h3V7zM14 9v1h3V9zm28 0v1h3V9zm6 3v1h5v-1zm-37 3v1h3v-1zm31 11v1h3v-1zm-28 3v1h3v-1zm25 0v1h3v-1zm6 0v1h3v-1zm-34 3v1h3v-1zm6 0v1h22v-1zm31 0v1h2v-1zM8 35v1h3v-1zm6 0v1h3v-1zm-3 11v1h3v-1zm6 0v1h30v-1zm-6 6v1h6v-1zm31 0v1h5v-1zM8 54v1h3v-1zm39 0v1h3v-1z" style="fill:#fff;opacity:.1"/><path d="M14 15v14h19v-3h3v-8h-3v-3zm0 17v3h3v-3zm25 0v3h3v-3z" style="fill:#df574d"/><path d="M48 7v5h5V7ZM17 18v8h16v-8z" style="fill:#ff90b8"/><path d="M23 6v3h3V6Zm11 0v3h5V6Zm5 3v3h3V9Zm3 3v3h3v-3ZM17 9v3h3V9Zm25 14v3h3v-3z" style="fill:#ccc"/><path d="M23 9v3h-3v3h16v14h3v-3h3V12h-6V9Zm13 20H20v3h16z" style="fill:#eee"/><path d="M17 19v8h3v-8zm10 0v8h3v-8z" style="opacity:.2"/><path d="M17 18v8h3v-8zm10 0v8h3v-8z" style="fill:#3f3f3f"/><path d="M17 55v3h8v-3zm11 0v3h11v-3z" style="fill:#ff90b8"/><path d="M20 35v11h10v-3h-6.364v-3H30v-5z" style="fill:#50beee"/><path d="M17 35v5h3v-5zm13 0v5h6v-5zm-13 8v3h3v-3zm13 0v3h6v-3z" style="fill:#248afd"/><path d="M36 36v5H26v3h10v3h11v-6h-8v-5zm-25 5v3h9v-3z" style="opacity:.2"/><path d="M36 35v5H26v3h10v3h11v-6h-8v-5zm-25 5v3h9v-3z" style="fill:teal"/><path d="M26 7v3h8V7Zm-6 3v3h3v-3zm0 3h-3v3h3zm16-3v3h3v-3zm-3 6v3h3v-3zm9 0v8h3v-8zm-9 11v3h3v-3zm3 3v3h3v-3zm3 0h3v-3h-3zm-22 0v3h3v-3zm25 3v3h-3v5h8v-8h-2zm-31 3v5h3v-5zm9 2v6h6v-3h-3v-3zm-9 6v3h3v-3zm8 6v3h6v-3h-3zm9 0v3h11v-3h-5z" style="opacity:.1"/><path d="M26 6v3h8V6Zm-6 3v3h3V9Zm0 3h-3v3h3zm16-3v3h3V9Zm-3 6v3h3v-3zm9 0v8h3v-8zm-9 11v3h3v-3zm3 3v3h3v-3zm3 0h3v-3h-3zm-22 0v3h3v-3zm25 3v3h-3v5h8v-8h-2zm-31 3v5h3v-5zm9 2v6h6v-3h-3v-3zm-9 6v3h3v-3zm8 6v3h6v-3h-3zm9 0v3h11v-3h-5z" style="fill:#79de7d"/></svg>