<svg xmlns="http://www.w3.org/2000/svg" xmlns:xlink="http://www.w3.org/1999/xlink" width="64" height="64"><defs><radialGradient xlink:href="#a" id="e" cx="13.188" cy="31.419" r="14.247" fx="13.188" fy="31.419" gradientTransform="rotate(15 431.682 -184.888)scale(5.37943 4.43674)" gradientUnits="userSpaceOnUse"/><radialGradient xlink:href="#b" id="c" cx="31.862" cy="36.396" r="24" fx="31.862" fy="36.396" gradientTransform="rotate(60 106.633 26.601)scale(2.51516 2.93435)" gradientUnits="userSpaceOnUse"/><linearGradient id="b"><stop offset="0" style="stop-color:#185c37;stop-opacity:1"/><stop offset="1" style="stop-color:#108043;stop-opacity:1"/></linearGradient><linearGradient id="a"><stop offset="0" style="stop-color:#139c53;stop-opacity:1"/><stop offset="1" style="stop-color:#003c1b;stop-opacity:1"/></linearGradient><filter id="f" width="1.342" height="1.342" x="-.171" y="-.171" style="color-interpolation-filters:sRGB"><feGaussianBlur stdDeviation="1.815"/></filter><filter id="d" width="1.261" height="1.223" x="-.13" y="-.112" style="color-interpolation-filters:sRGB"><feGaussianBlur stdDeviation="2.537"/></filter></defs><path d="M14 12.248v39.823A7.93 7.93 45 0 0 21.93 60h32.14A7.93 7.93 135 0 0 62 52.07V12.249A8.25 8.25 45 0 0 53.752 4H22.248A8.25 8.25 135 0 0 14 12.248" style="fill:url(#c)" transform="translate(3.21 3.506)scale(.89044)"/><path d="M37.046 19.534V32h21.371V19.534ZM23.017 7.068a7.34 7.34 0 0 0-7.342 7.34v5.126h21.371V7.068Z" style="fill:#21a366;stroke-width:.890439"/><path d="M38 4v14h24v-5.76A8.24 8.24 45 0 0 53.76 4Z" style="fill:#33c481" transform="translate(3.21 3.506)scale(.89044)"/><path d="M37.046 32v12.466h21.371V32ZM15.675 19.534V32h21.371V19.534Z" style="fill:#107c41;stroke-width:.890439"/><path d="M14 12.248v39.823A7.93 7.93 45 0 0 21.93 60h32.14A7.93 7.93 135 0 0 62 52.07V12.249A8.25 8.25 45 0 0 53.752 4H22.248A8.25 8.25 135 0 0 14 12.248Z" style="fill:none;stroke:#000;stroke-width:.33691261;stroke-dasharray:none;stroke-opacity:1;filter:url(#d)" transform="translate(3.21 3.506)scale(.89044)"/><rect width="28.494" height="28.494" x="4.991" y="17.753" rx="7.199" ry="7.199" style="fill:url(#e);stroke-width:.890439"/><rect width="26.023" height="26.023" x="7.603" y="18.988" rx="6.575" ry="6.575" style="mix-blend-mode:normal;fill:none;stroke:#000;stroke-width:.2;stroke-dasharray:none;stroke-opacity:1;filter:url(#f)" transform="translate(-3.334 -3.038)scale(1.09495)"/><path d="m12.309 39.565 4.897-7.588-4.474-7.526a.467.467 119.637 0 1 .402-.705h1.708a2.4 2.4 30.386 0 1 2.096 1.229l2.49 4.449 2.712-4.474a2.5 2.5 150.612 0 1 2.139-1.204h1.386a.46.46 60.76 0 1 .391.699l-4.59 7.486 4.714 7.626a.457.457 119.138 0 1-.389.697h-1.616a2.48 2.48 29.556 0 1-2.131-1.208l-2.777-4.642-2.806 4.645a2.5 2.5 150.57 0 1-2.137 1.205h-1.64a.447.447 61.417 0 1-.375-.689" style="fill:#fff;stroke-width:.825444"/></svg>