<svg xmlns="http://www.w3.org/2000/svg" width="64" height="64"><rect width="56" height="56" x="4" y="5" ry="8.4" style="opacity:.2"/><path d="M4 41.66v9.94c0 4.654 3.746 8.4 8.4 8.4h39.2c4.654 0 8.4-3.746 8.4-8.4v-9.94Z" style="fill:#4dbb1a"/><path d="M12.4 4A8.38 8.38 0 0 0 4 12.4V42h56V12.4C60 7.746 56.254 4 51.6 4Z" style="fill:#0098ff"/><path d="m11.129 26.882-.055.273c-.083.405-.236 1.41-.465 3.032a272 272 0 0 1-.347 2.386c-.079.515-.235 1.568-.348 2.34s-.232 1.54-.262 1.707l-.05.305h1.128c.585 0 .873-.005 1.11-.055.012.027.027.046.043.04.135-.058.4-.194.644-.317.178-.09.233-.121.364-.192l.062-.03.008-.009c.082-.045.242-.126.242-.132 0-.01.056-.268.07-.348l.004-.008c.069-.233.14-.63.239-1.168.081-.396.149-.761.18-.887l.003-.03c.06-.237.098-.262.149-.13.027.072.204.51.39.973l.34.844.68.007c.278.005.557-.019.82-.066.024 0 .075-.015.117-.023q.17-.035.325-.082l.023-.008c.038-.012.043-.01.086-.024.074-.023.132-.051.191-.078l.043-.015.016-.008.055-.031c.245-.142.433-.397 1.011-1.2.62-.86.85-1.116.848-.949-.002.126-.065.903-.145 1.727-.08.823-.147 1.658-.148 1.855v.36l1.289-.032c.32-.007.604-.02.84-.035.038.053.124.047.34-.008.055-.013.094-.02.129-.043.004-.001.04-.002.043-.004l.011-.066c.096-.186.175-.781.485-2.918l.433-2.973.168-1.136.008-.047c.137-.922.247-1.785.246-1.918a.3.3 0 0 0-.082-.211c-.012-.015-.019-.028-.035-.043-.087-.079-.23-.161-.469-.281l-.586-.297-.004.058c-.238-.066-.484-.08-.984-.078h-.91l-1.512 2.457c-.83 1.35-1.508 2.427-1.508 2.399l-.062-.2a61 61 0 0 0-.473-1.527c-.172-.541-.28-.892-.422-1.347l-.117-.375-.18-.575c-.046-.154-.08-.27-.113-.36l-.078-.253c-.001-.002-.127-.012-.148-.016a1.4 1.4 0 0 0-.25-.05c-.085-.012-.325-.027-.559-.043-.094-.007-.148-.013-.258-.02-.324-.028-.698-.062-.707-.055l.008.02-.402-.02zm12.164.027-.008.54c-.004.295-.025.686-.047.867s-.109 1.61-.195 3.18-.176 3.028-.2 3.237c-.04.371-.016.406.907 1.329.713.712 1.03.962 1.27 1.004.159.027 1.118.137 2.097.246.102.01.115.016.219.027 1.099.12 2.127.224 2.285.23s.38-.092.77-.347l.027-.02a9 9 0 0 0 .84-.594c.308-.23.474-.384.554-.558.009-.016.028-.041.032-.055l.012-.047c.033-.14.091-.354.136-.52.05-.18.09-.886.09-1.57 0-.683.067-1.863.149-2.62.058-.546.104-.998.148-1.419l.059-.55c.016-.164.016-.32.007-.48 0-.057-.007-.12-.011-.173a4.5 4.5 0 0 0-.157-.789l-.007-.031-.227-.887h-2.027l-.067 1.14c-.036.627-.066 2.33-.066 3.786v2.648l-.434.34-.437.34-1.586-.012c-1.043-.008-1.547.002-1.77-.175l-.02-.02-.007-.008a.4.4 0 0 1-.067-.094.4.4 0 0 1-.027-.086c-.005-.019-.008-.045-.012-.066-.023-.181.012-.629.086-1.328.078-.698.228-1.986.375-3.184l.293-2.382v-.004l-.418-.438-.418-.437-1.074-.008zm17.508 0-2.586.004-2.59.004-.855.778-.86.773-.058 2.145a104 104 0 0 1-.106 2.484c-.023.333-.042.563-.07.996l-.098 1.52-.027.37.004.005.785.816v.004c.432.45.82.842.863.871s1.01.106 2.149.172 2.09.14 2.113.16.235.035.473.035h.011c.398 0 .493-.052.996-.504q.005-.001.008-.004c.31-.277.676-.583.817-.687l.004-.004c.074-.055.201-.18.343-.332l.008-.008c.153-.162.33-.36.492-.555.152-.181.264-.323.352-.453.28-.412.269-.678.137-1.5l-.055-.351h-1.066l-1.063.004-.426.644a5 5 0 0 0-.386.668c-.009.02-.04.07-.04.078 0 .122.122.116-1.69.114l-1.442-.004-.38-.352-.374-.355-.067-2.012-.066-2.012.047-.043.004.008.262-.234.261-.235 1.442.094h.004l1.437.094.168.176.164.164v.004c.236.249.325.439.328.683l.004.336v.02l.473.035.285.015c.456.042.753.068.938.043l.265.008.301-.738.02-.043.015-.035c.034-.083.05-.142.078-.215.103-.262.223-.566.223-.59 0-.004-.029-.008-.043-.012.061-.32.052-.628-.015-1.129-.053-.388-.113-.45-1.403-1.5zm3.215 0-.274 1.008-.031.117-.238.797v.078l-.004.016v9.297l.422.05c.233.027.7.068 1.035.09l.097.008c.168.014.35.029.395.035.003 0 .015-.01.02-.011l.097.007.805-.718.808-.723-.086-.695c-.184-1.52-.206-1.868-.12-1.868.048 0 .75.968 1.558 2.149l1.473 2.148h.011l.504.032c.178.011.48.02.758.03.17.007.316.017.461.02.016 0 .036.004.05.004l.653.016.293-.273.676-.618c.393-.357.667-.629.82-.793l.2-.187h-.067c-.028-.07-.614-.81-1.351-1.695-2.672-3.21-2.844-3.43-2.77-3.649.038-.11.349-.588.691-1.058a8 8 0 0 0 .176-.254l.04-.055c.012-.018.031-.052.046-.074l.024-.035.078-.13.015-.027c.24-.39.455-.802.602-1.168.066-.166.12-.29.191-.468.073-.17.142-.336.184-.453l.187-.458.207-.492h-2.359l-1.035 2.016c-.898 1.747-1.065 2.01-1.266 2.016a39 39 0 0 1-1.36 0c-.094-.005-.175-.51-.308-1.903-.1-1.042-.198-1.947-.219-2.012-.026-.083-.326-.117-1.062-.117z" style="opacity:.2"/><path d="m50.49 37.728-.519-.034-1.47-2.148c-.808-1.18-1.51-2.147-1.559-2.147-.085 0-.063.347.122 1.867l.084.697-.806.72-.807.72-.61-.041a28 28 0 0 1-1.033-.09l-.425-.048v-9.299l.274-1.007.274-1.006h1.028c.736 0 1.038.033 1.064.117.02.064.118.97.217 2.012.133 1.392.215 1.897.31 1.901a41 41 0 0 0 1.36 0c.2-.006.366-.271 1.264-2.018l1.033-2.012h2.362l-.208.491c-.114.27-.367.891-.563 1.38a8.6 8.6 0 0 1-.979 1.742c-.342.47-.653.945-.69 1.056-.075.218.094.441 2.766 3.65.754.906 1.372 1.68 1.373 1.717.001.039-.436.47-.972.957l-.974.887-.699-.015c-.384-.008-.932-.03-1.217-.049m-11.026-.717c-.023-.021-.974-.092-2.112-.158-1.14-.065-2.106-.143-2.148-.172-.043-.03-.432-.423-.866-.875l-.788-.822.121-1.612c.067-.886.148-2.577.18-3.757l.059-2.146.858-.775.859-.776 2.586-.003 2.586-.004.51.415c1.29 1.05 1.351 1.116 1.404 1.504.117.866.083 1.135-.245 1.942-.378.927-.271.877-1.623.758l-.674-.06-.004-.337c-.003-.245-.094-.433-.329-.682l-.325-.345-1.444-.094-1.443-.095-.287.252-.287.252.065 2.012.065 2.012.377.354.377.355 1.443.001c1.812.003 1.692.01 1.692-.111 0-.057.191-.393.425-.748l.424-.645h1.065l1.065-.001.057.35c.173 1.082.144 1.197-.49 1.955-.324.389-.704.79-.844.893s-.508.414-.818.693c-.51.458-.608.507-1.007.507-.244 0-.461-.017-.484-.038zm-12.127-.67a85 85 0 0 1-2.317-.273c-.24-.042-.557-.292-1.27-1.005-.923-.923-.948-.96-.906-1.33.023-.21.113-1.666.2-3.236.086-1.57.174-3.001.195-3.182.021-.18.042-.57.046-.865l.007-.538 1.074.01 1.074.008.418.439.418.438-.292 2.383c-.161 1.31-.346 2.88-.41 3.488-.163 1.514-.233 1.458 1.852 1.474l1.587.013.435-.341.436-.341v-2.648c0-1.456.03-3.16.065-3.786l.066-1.137h2.027l.228.885c.172.668.213 1.03.167 1.474-.033.324-.127 1.208-.208 1.966a30 30 0 0 0-.148 2.62c0 .684-.041 1.39-.09 1.57-.05.181-.116.438-.147.57-.084.352-1.831 1.587-2.223 1.572a82 82 0 0 1-2.284-.228m-17.684-.72c.03-.167.146-.936.26-1.708.112-.772.27-1.825.348-2.34s.234-1.588.347-2.386c.228-1.622.383-2.627.466-3.032l.056-.272 1.512.061c.831.034 1.693.087 1.915.118.4.056.405.06.59.678.103.342.427 1.377.72 2.3.294.921.534 1.7.534 1.728s.68-1.053 1.51-2.403l1.51-2.453.912-.003c.84-.003.96.021 1.535.304.519.255.624.347.624.549 0 .133-.11.996-.247 1.918s-.426 2.892-.644 4.378c-.217 1.485-.424 2.728-.459 2.76-.035.033-.644.074-1.354.091l-1.29.031.002-.358c.001-.197.067-1.032.147-1.856s.146-1.6.148-1.727c.002-.167-.229.092-.848.951-.844 1.171-.856 1.183-1.429 1.364a4 4 0 0 1-1.26.172l-.681-.011-.34-.842-.388-.973c-.082-.214-.123-.098-.295.833-.342 1.854-.282 1.731-1.028 2.102-.646.322-.692.33-1.795.33H9.6Z" style="fill:#ffcc1e"/><path d="m50.547 37.728-.56-.033-1.475-2.148c-.81-1.182-1.509-2.148-1.552-2.148-.081 0-.139-.288-.249-1.24l-.062-.539h1.703l1.727 2.15 1.728 2.149 1.296.003 1.297.004-.995.936-.995.936-.651-.018a45 45 0 0 1-1.212-.051zm-5.632-.367a47 47 0 0 1-.923-.085l-.525-.054.003-4.696.004-4.696.278-.93.278-.929.17 1.912c.242 2.71.541 6.16.622 7.177l.07.865h2.216l-.794.75c-.437.41-.84.74-.897.732-.056-.008-.282-.03-.502-.046m-5.451-.35c-.023-.021-.974-.092-2.112-.158-1.14-.065-2.106-.143-2.148-.172-.043-.03-.431-.422-.863-.872l-.786-.82.122-1.894c.227-3.51.274-3.704.288-1.192l.014 2.295.926.864.925.863h5.721l.72-.725.719-.725-.484.595c-.267.328-.597.68-.735.78-.139.102-.51.414-.827.692-.513.451-.623.506-1.007.506-.238 0-.45-.017-.473-.037m-12.345-.7c-1.219-.137-2.249-.28-2.289-.317-.04-.038 1.136-.069 2.613-.069h2.687l.937-.865.937-.866-.067.374c-.112.633-.134.66-1.095 1.346-.687.49-1.01.664-1.22.656a89 89 0 0 1-2.503-.259m-15.313-.665c0-.162.067-.745.149-1.295.254-1.707.55-4.04.55-4.327 0-.152.036-.275.08-.275.043 0 .33.613.637 1.363.483 1.182.546 1.409.473 1.708-.083.34-.49 2.343-.49 2.412 0 .028-.995.537-1.324.677-.041.018-.075-.1-.075-.263m8.792.069c.001-.116.046-.737.1-1.38.053-.644.164-2.118.247-3.276s.17-2.295.194-2.527c.025-.232.075-.912.113-1.512l.069-1.09.584.295c.48.242.585.338.586.537.001.133-.112 1.017-.252 1.965s-.41 2.797-.601 4.11c-.465 3.202-.413 2.965-.67 3.03-.343.086-.373.074-.37-.152m-4.568-1.357c.357-.624 2.91-4.601 2.936-4.576.02.019.006.45-.032.957l-.07.923-.886 1.235c-.828 1.153-.918 1.245-1.35 1.383-.512.164-.659.183-.598.078m24.044-.28c0-.091.192-.438.424-.773l.422-.608.032.41c.028.368-.009.45-.345.773-.415.398-.537.443-.533.197m-14.691-.313-.323-.382.119-2.73c.065-1.5.146-3.174.179-3.717l.06-.988.429.43.429.43-.292 2.383c-.546 4.446-.554 4.553-.346 4.768.1.103.156.188.125.188s-.202-.172-.38-.382m-9.926-1.588c-.63-1.57-2.435-6.218-2.421-6.23.024-.022 1.906.155 1.922.18.006.01.226.713.49 1.563.262.85.589 1.902.725 2.34l.248.795-.455.744c-.285.466-.475.693-.51.608m16.615-3.505a137 137 0 0 1-.028-2.647c.007-.016.111.345.232.802.205.778.211.902.102 1.993-.257 2.56-.264 2.557-.306-.148m8.574 1.85-.475-.035v-.35c0-.268-.08-.433-.331-.691l-.332-.34-1.441-.094-1.441-.094-.262.234-.261.234-.062-.217a2.8 2.8 0 0 1-.063-.595c-.001-.316.061-.436.377-.725l.379-.346h3.197l.37.354c.292.28.37.428.37.702v.347h1.048c.577 0 1.05.028 1.05.061 0 .034-.143.413-.318.842l-.316.782-.508-.017a29 29 0 0 1-.981-.052m10.039-.843.823-1.59c.432-.836.798-1.507.814-1.492.088.082-.872 2.165-1.206 2.62-.215.292-.409.532-.43.532s-.022-.032-.001-.07" style="fill:#444"/><path d="M12.398 4A8.38 8.38 0 0 0 4 12.398v1A8.38 8.38 0 0 1 12.398 5h39.204A8.38 8.38 0 0 1 60 13.398v-1A8.38 8.38 0 0 0 51.602 4zM4 42h56v1H4z" style="opacity:.2;fill:#fff"/></svg>