<svg xmlns="http://www.w3.org/2000/svg" width="64" height="64"><rect width="56" height="56" x="4" y="5" rx="2.8" ry="2.8" style="opacity:.2"/><rect width="56" height="56" x="4" y="4" rx="2.8" ry="2.8" style="fill:#1e3854"/><path d="M6.8 4C5.25 4 4 5.25 4 6.8v1C4 6.25 5.25 5 6.8 5h50.4A2.796 2.796 0 0 1 60 7.8v-1C60 5.25 58.75 4 57.199 4z" style="fill:#fff;opacity:.1"/><path d="M12 13v40h8V33l6 11h12l6-11v20h8V13h-8L32 35 20 13Z" style="opacity:.1"/><path d="M12 12v40h8V32l6 11h12l6-11v20h8V12h-8L32 34 20 12Z" style="fill:#fdd321"/><path d="M12 12v1h8l12 22 12-22h8v-1h-8L32 34 20 12z" style="fill:#fff;opacity:.2"/></svg>