<svg xmlns="http://www.w3.org/2000/svg" width="64" height="64"><path d="M26 4s-3.626-.041-7.342 1.816C14.943 7.674 11 12 11 19v21h6V19c0-5 2.056-6.674 4.34-7.816.596-.298 1.097-.364 1.66-.53V21c0 4 2.443 6.826 4.658 7.934C29.874 30.04 32 30 32 30s2.126.041 4.342-1.066C38.557 27.826 41 25 41 21V10.653c.563.167 1.063.233 1.658.53C44.943 12.327 47 14 47 19v21h6V19c0-7-3.943-11.326-7.658-13.184S38 4 38 4h-3v17c0 2-.557 2.174-1.342 2.566C32.874 23.96 32 24 32 24s-.874-.041-1.658-.434C29.557 23.174 29 23 29 21V4Z" style="opacity:.2"/><path d="M17 32.043C9.184 32.573 3 39.05 3 47s6.184 14.427 14 14.957zm30 0V60h-7.016A4.97 4.97 0 0 0 41 57v-2c0-2.77-2.23-5-5-5h-8c-2.77 0-5 2.23-5 5v2c0 2.77 2.23 5 5 5h19v-.043c7.816-.53 14-7.007 14-14.957s-6.184-14.427-14-14.957" style="opacity:.2"/><path d="M26 3s-3.626-.041-7.342 1.816C14.943 6.674 11 11 11 18v21h6V18c0-5 2.056-6.674 4.34-7.816.596-.298 1.097-.364 1.66-.53V20c0 4 2.443 6.826 4.658 7.934C29.874 29.04 32 29 32 29s2.126.041 4.342-1.066C38.557 26.826 41 24 41 20V9.653c.563.167 1.063.233 1.658.53C44.943 11.327 47 13 47 18v21h6V18c0-7-3.943-11.326-7.658-13.184S38 3 38 3h-3v17c0 2-.557 2.174-1.342 2.566C32.874 22.96 32 23 32 23s-.874-.041-1.658-.434C29.557 22.174 29 22 29 20V3Z" style="fill:#195bbd"/><path d="M17 31.043C9.184 31.573 3 38.05 3 46s6.184 14.427 14 14.957zm30 0V59h-7.016A4.97 4.97 0 0 0 41 56v-2c0-2.77-2.23-5-5-5h-8c-2.77 0-5 2.23-5 5v2c0 2.77 2.23 5 5 5h19v-.043c7.816-.53 14-7.007 14-14.957s-6.184-14.427-14-14.957" style="fill:#229cfe"/><path d="M26 3s-3.624-.041-7.34 1.816C14.945 6.674 11 11 11 18v1c0-7 3.945-11.326 7.66-13.184S26 4 26 4h3V3zm9 0v1h3s3.624-.041 7.34 1.816C49.055 7.674 53 12 53 19v-1c0-7-3.945-11.326-7.66-13.184S38 3 38 3zm-6 17v1c0 2 .555 2.174 1.34 2.566C31.124 23.96 32 24 32 24s.876-.041 1.66-.434C34.445 23.174 35 23 35 21v-1c0 2-.555 2.174-1.34 2.566C32.876 22.96 32 23 32 23s-.876-.041-1.66-.434C29.555 22.174 29 22 29 20" style="opacity:.1;fill:#fff"/><path d="M17 31.043C9.184 31.573 3 38.05 3 46c0 .169.02.333.025.5C3.28 38.782 9.35 32.562 17 32.043zm30 0v1c7.65.52 13.72 6.739 13.975 14.457.005-.167.025-.331.025-.5 0-7.95-6.184-14.427-14-14.957M28 49c-2.77 0-5 2.23-5 5v1c0-2.77 2.23-5 5-5h8c2.77 0 5 2.23 5 5v-1c0-2.77-2.23-5-5-5zm12.557 10a5 5 0 0 1-.573 1H47v-1z" style="opacity:.2;fill:#fff"/></svg>