<svg xmlns="http://www.w3.org/2000/svg" width="64" height="64"><path d="M59.958 31.828A28 28 0 0 1 32 59 28 28 0 0 1 4.044 32.172 28 28 0 0 0 4 33a28 28 0 0 0 28 28 28 28 0 0 0 28-28 28 28 0 0 0-.042-1.172" style="opacity:.2"/><circle cx="32" cy="32" r="28" style="fill:#736dab"/><path d="M60 32c0 15.464-12.536 28-28 28V4c15.464 0 28 12.536 28 28" style="fill:#ffba58"/><circle cx="32" cy="33" r="20" style="opacity:.2"/><circle cx="32" cy="32" r="20" style="fill:#fff"/><path d="M26 20v14.102A5 5 0 0 0 25 34a5 5 0 0 0-5 5 5 5 0 0 0 5 5 5 5 0 0 0 5-5V24h8v6.102A5 5 0 0 0 37 30a5 5 0 0 0-5 5 5 5 0 0 0 5 5 5 5 0 0 0 5-5V20z" style="opacity:.8"/><path d="M31.998 4A28 28 0 0 0 4 32a28 28 0 0 0 .018.492A28 28 0 0 1 31.998 5H32a28 28 0 0 1 27.973 27.5 28 28 0 0 0 .025-.5A28 28 0 0 0 32 4z" style="opacity:.2;fill:#fff"/></svg>