<svg xmlns="http://www.w3.org/2000/svg" width="64" height="64"><circle cx="32" cy="33" r="28" style="opacity:.2"/><circle cx="32" cy="32" r="28" style="fill:#ff395d"/><path d="m42.136 18.692-10.05 7.275-.086.063-10.231-7.274a3.15 3.15 0 0 0-1.863-.595c-1.49 0-2.904.995-2.904 2.462v5.516L17 42.538C17 44.005 18.413 45 19.904 45c.642 0 1.299-.184 1.863-.595L32 37.067a2776 2776 0 0 0 10.134 7.338c.564.41 1.22.595 1.862.595C45.488 45 47 44.005 47 42.538V20.51c0-1.467-1.51-2.414-3.001-2.414-.642 0-1.299.184-1.863.595" style="fill:#fff;fill-opacity:.7"/><path d="m10.65 14.04 5.3-4.05-5.3-4.07-5.33 4.07zM0 5.99v8l5.32-4zm15.95 4 5.35 4.05V5.92z" style="fill:#fff;fill-opacity:.6" transform="matrix(1.40846 0 0 1.35954 17 17.98)"/><path d="M42 18.787 32 26.03l7.46 5.528L47 26.03v-5.519c0-2.097-2.857-3.449-5-1.724m-20.221-.074c-1.877-1.364-4.773-.232-4.773 1.865v5.542l7.485 5.44L32 26.03z" style="fill:#fff"/><path d="m32 37.066-10.234 7.338a3.15 3.15 0 0 1-1.862.596C18.414 45 17 44.004 17 42.537v1C17 45.004 18.413 46 19.904 46c.642 0 1.298-.185 1.862-.596L32 38.066a2742 2742 0 0 0 10.135 7.338c.564.41 1.22.596 1.861.596C45.487 46 47 45.004 47 43.537v-1C47 44.004 45.487 45 43.996 45a3.15 3.15 0 0 1-1.861-.596S37.092 40.774 32 37.066" style="opacity:.2"/><path d="M32 4A28 28 0 0 0 4 32a28 28 0 0 0 .021.586A28 28 0 0 1 32 5a28 28 0 0 1 27.979 27.414L60 32A28 28 0 0 0 32 4" style="fill:#fff;opacity:.2"/></svg>