<svg xmlns="http://www.w3.org/2000/svg" width="64" height="64"><g transform="translate(0 1)"><rect width="42" height="32" x="-56" y="-48" rx="2.5" ry="2.5" style="opacity:.2" transform="rotate(90)scale(-1 1)"/><rect width="42" height="32" x="-55" y="-48" rx="2.5" ry="2.5" style="fill:#8e8e8e" transform="rotate(90)scale(-1 1)"/><rect width="40" height="52" x="-50" y="-58" rx="2.5" ry="2.5" style="opacity:.2" transform="rotate(90)scale(-1 1)"/><rect width="40" height="52" x="-49" y="-58" rx="2.5" ry="2.5" style="fill:#4f4f4f" transform="rotate(90)scale(-1 1)"/><rect width="32" height="44" x="-45" y="-54" rx="0" ry="0" style="fill:#0072c0" transform="rotate(90)scale(-1 1)"/><path d="M8.5 9A2.495 2.495 0 0 0 6 11.5v1C6 11.115 7.115 10 8.5 10h47c1.385 0 2.5 1.115 2.5 2.5v-1c0-1.385-1.115-2.5-2.5-2.5zM10 45h44v1H10z" style="fill:#fff;opacity:.1"/></g><path d="m10 46 44-32H10z" style="fill:#00ade5"/><path d="M10 14h44v1H10zm22 3a14 14 0 0 0-14 14 14 14 0 0 0 14 14 14 14 0 0 0 14-14 14 14 0 0 0-14-14m0 2a12 12 0 0 1 12 12 12 12 0 0 1-12 12 12 12 0 0 1-12-12 12 12 0 0 1 12-12m0 2a3 3 0 0 0-3 3 3 3 0 0 0 3 3 3 3 0 0 0 3-3 3 3 0 0 0-3-3m-3 7v13h6V28z" style="opacity:.2"/><path d="M32 16a14 14 0 0 0-14 14 14 14 0 0 0 14 14 14 14 0 0 0 14-14 14 14 0 0 0-14-14m0 2a12 12 0 0 1 12 12 12 12 0 0 1-12 12 12 12 0 0 1-12-12 12 12 0 0 1 12-12m0 2a3 3 0 0 0-3 3 3 3 0 0 0 3 3 3 3 0 0 0 3-3 3 3 0 0 0-3-3m-3 7v13h6V27z" style="fill:#fff"/></svg>