<svg xmlns="http://www.w3.org/2000/svg" width="64" height="64"><rect width="42" height="32" x="-58" y="-48" rx="2.5" ry="2.5" style="opacity:.2" transform="rotate(90)scale(-1 1)"/><rect width="42" height="32" x="-57" y="-48" rx="2.5" ry="2.5" style="fill:#8e8e8e" transform="rotate(90)scale(-1 1)"/><rect width="40" height="52" x="-52" y="-58" rx="2.5" ry="2.5" style="opacity:.2" transform="rotate(90)scale(-1 1)"/><rect width="40" height="52" x="-51" y="-58" rx="2.5" ry="2.5" style="fill:#4f4f4f" transform="rotate(90)scale(-1 1)"/><rect width="32" height="44" x="-47" y="-54" rx="0" ry="0" style="fill:#0cf" transform="rotate(90)scale(-1 1)"/><path d="M8.5 11A2.495 2.495 0 0 0 6 13.5v1C6 13.115 7.115 12 8.5 12h47c1.385 0 2.5 1.115 2.5 2.5v-1c0-1.385-1.115-2.5-2.5-2.5zM10 47h44v1H10z" style="fill:#fff;opacity:.1"/><path d="M10 15h44v1H10zm22 5a12 12 0 0 0-7.645 2.762L28.535 30l5.653-9.791A12 12 0 0 0 32 20m4.178.766L32 28h11.299a12 12 0 0 0-7.121-7.234M22.88 24.207A12 12 0 0 0 20 32a12 12 0 0 0 .17 2h8.365zM35.465 30l5.654 9.793A12 12 0 0 0 44 32a12 12 0 0 0-.17-2Zm0 4-5.653 9.791A12 12 0 0 0 32 44a12 12 0 0 0 7.645-2.762zM20.7 36a12 12 0 0 0 7.121 7.234L32 36Z" style="opacity:.2"/><path d="M32 19a12 12 0 0 0-7.645 2.762L28.535 29l5.653-9.791A12 12 0 0 0 32 19m4.178.766L32 27h11.299a12 12 0 0 0-7.121-7.234M22.88 23.207A12 12 0 0 0 20 31a12 12 0 0 0 .17 2h8.365zM35.465 29l5.654 9.793A12 12 0 0 0 44 31a12 12 0 0 0-.17-2Zm0 4-5.653 9.791A12 12 0 0 0 32 43a12 12 0 0 0 7.645-2.762zM20.7 35a12 12 0 0 0 7.121 7.234L32 35Z" style="fill:#4f4f4f"/><circle cx="32" cy="32" r="3" style="opacity:.2"/><circle cx="32" cy="31" r="3" style="fill:#fff"/></svg>