<svg xmlns="http://www.w3.org/2000/svg" width="64" height="64"><rect width="56" height="56" x="4" y="5" rx="2.8" ry="2.8" style="opacity:.2"/><rect width="56" height="56" x="4" y="4" rx="2.8" ry="2.8" style="fill:#318e9e"/><path d="M6.8 4C5.25 4 4 5.25 4 6.8v1C4 6.25 5.25 5 6.8 5h50.4C58.75 5 60 6.25 60 7.8v-1C60 5.25 58.75 4 57.2 4Z" style="fill:#fff;opacity:.1"/><path d="M20 13c-.873 0-1.74.15-2.566.434L23 19v5h-5l-5.568-5.568A8 8 0 0 0 12 21a8 8 0 0 0 8 8 8 8 0 0 0 2.17-.309l6.871 7.731-2.23 2.623L24 36 9 53h44L43 41l-1.158 1.322-7.215-8.117 8.607-10.127L49 26v2l2 2 6-6-2-2h-3v-2l-6-5H36s4.913.194 6 2l-.865 5.195-8.401 9.881-6.002-6.754A8 8 0 0 0 20 13m10.934 25.551 7.16 8.054L36 49l-7.262-7.867Z" style="opacity:.2"/><path d="M20 12c-.873 0-1.74.15-2.566.434L23 18v5h-5l-5.568-5.568A8 8 0 0 0 12 20a8 8 0 0 0 8 8 8 8 0 0 0 2.17-.309l6.871 7.731-2.23 2.623L24 35 9 52h44L43 40l-1.158 1.322-7.215-8.117 8.607-10.127L49 25v2l2 2 6-6-2-2h-3v-2l-6-5H36s4.913.194 6 2l-.865 5.195-8.401 9.881-6.002-6.754A8 8 0 0 0 20 12m10.934 25.551 7.16 8.054L36 48l-7.262-7.867Z" style="fill:#fff"/></svg>