<svg xmlns="http://www.w3.org/2000/svg" width="64" height="64"><rect width="56" height="56" x="4" y="5" rx="2.8" ry="2.8" style="opacity:.2"/><rect width="56" height="56" x="4" y="4" rx="2.8" ry="2.8" style="fill:#fabd7f"/><path d="M6.8 4C5.25 4 4 5.25 4 6.8v1C4 6.25 5.25 5 6.8 5h50.4A2.796 2.796 0 0 1 60 7.8v-1C60 5.25 58.75 4 57.199 4Z" style="fill:#fff;opacity:.2"/><path d="M32 14a4 4 0 0 0-4 4 4 4 0 0 0 4 4 4 4 0 0 0 4-4 4 4 0 0 0-4-4m-14 2-3 3 12 9v25h4V35h2v18h4V28l12-9-3-3-10 8h-8z" style="opacity:.2"/><path d="M32 13a4 4 0 0 0-4 4 4 4 0 0 0 4 4 4 4 0 0 0 4-4 4 4 0 0 0-4-4m-14 2-3 3 12 9v25h4V34h2v18h4V27l12-9-3-3-10 8h-8z" style="fill:#4f4f4f"/></svg>