<svg xmlns="http://www.w3.org/2000/svg" width="64" height="64"><rect width="45" height="57" x="10" y="4" rx="2.8" ry="2.8" style="opacity:.2"/><rect width="45" height="57" x="10" y="3" rx="2.8" ry="2.8" style="fill:#3584e4"/><path d="M28.375 12c-.762 0-1.375.669-1.375 1.5s.613 1.5 1.375 1.5h8.25c.762 0 1.375-.669 1.375-1.5s-.613-1.5-1.375-1.5Zm0 19c-.762 0-1.375.669-1.375 1.5s.613 1.5 1.375 1.5h8.25c.762 0 1.375-.669 1.375-1.5s-.613-1.5-1.375-1.5Zm0 19c-.762 0-1.375.669-1.375 1.5s.613 1.5 1.375 1.5h8.25c.762 0 1.375-.669 1.375-1.5s-.613-1.5-1.375-1.5Z" style="opacity:.2"/><path d="M10 21h45v2H10zm0 19h45v2H10z" style="opacity:.15"/><rect width="11" height="3" x="27" y="11" rx="1.375" ry="1.5" style="fill:#fff"/><rect width="11" height="3" x="27" y="30" rx="1.375" ry="1.5" style="fill:#fff"/><rect width="11" height="3" x="27" y="49" rx="1.375" ry="1.5" style="fill:#fff"/><path d="M12.8 3C11.25 3 10 4.25 10 5.8v1C10 5.25 11.25 4 12.8 4h39.4C53.75 4 55 5.25 55 6.8v-1C55 4.25 53.75 3 52.2 3z" style="opacity:.1;fill:#fff"/></svg>