<svg xmlns="http://www.w3.org/2000/svg" width="64" height="64"><path d="M60 33c0 15.464-12.536 28-28 28-4.515 0-8.78-1.069-12.557-2.967 1.178-6.04 2.716-11.197 4.49-15.6 2.052-5.092 6.998-4.415 9.492-7.69 3.995-5.244 5.735-13.172 9.592-15.082 4.767-2.361 11.522-3.304 11.522-3.304l.305.448q.446.627.855 1.277A27.87 27.87 0 0 1 60 33" style="opacity:.2"/><path d="M57.961 32.082c0 15.464-13.218 21.734-28.682 21.734S7.567 47.36 7.567 31.896c0-5.708-1.859-10.914 1.075-15.342C13.655 8.99 22.245 4 32 4c9.237 0 17.428 4.472 22.528 11.37q.164.22.322.444c3.243 4.57 3.111 10.237 3.111 16.268" style="fill:#001e55"/><path d="M32 4C22.245 4 13.655 8.99 8.643 16.555c-1.402 2.114-1.706 4.408-1.645 6.847.047-2.067.437-4.024 1.645-5.847C13.655 9.989 22.245 5 32 5c9.236 0 17.43 4.472 22.53 11.37q.162.22.32.444c2.837 4 3.092 8.839 3.11 14.026.002-5.563-.092-10.772-3.11-15.026q-.159-.224-.32-.445C49.43 8.472 41.235 4 32 4" style="fill:#fff;opacity:.1"/><circle cx="24.21" cy="16.79" r=".21" style="fill:#fff"/><path d="M60 32c0 15.464-12.536 28-28 28-4.515 0-8.78-1.069-12.557-2.967 1.178-6.04 2.716-11.197 4.49-15.6 2.052-5.092 6.998-4.415 9.492-7.69 3.995-5.244 5.735-13.172 9.592-15.082 4.767-2.361 11.522-3.304 11.522-3.304l.305.448q.446.627.855 1.277A27.87 27.87 0 0 1 60 32" style="fill:#cdfaf0"/><path d="M51.701 15.992c-3.632 0-7.544 1.059-10.785 2.592-2.777 1.314-5.485 3.586-10.736 7.756-3.885 3.085-6.496 4.147-8.996 4.637-.987.193-2.975.15-4.02-.088-4.467-1.016-7.893-4.364-8.53-8.938-.194-1.398-.06-3.286.323-4.545.08-.263.133-.494.115-.511-.053-.053-1.162 1.697-1.69 2.668-1.585 2.918-2.572 5.83-3.116 9.19-.287 1.768-.355 5.458-.137 7.349.75 6.495 3.71 12.547 8.32 17.007l.746.721-.617.572c-2.425 2.238-5.498 4.14-8.443 5.229-.166.061-.138.09.193.209 1.194.428 3.694.932 5.461 1.098 1.4.131 3.925.038 5.266-.192a23.3 23.3 0 0 0 4.736-1.326l2.236-1.031c2.788-1.44 5.687-3.825 7.354-6.051 2.178-2.908 4.94-8.632 7.95-16.479 1.45-3.783 2.11-5.345 3.097-7.324q2.072-4.154 4.191-6.295c2.239-2.261 5.86-4.706 9.354-5.646l.537-.22-.016-.02-1.256-.307a22 22 0 0 0-1.537-.055M32.5 31a1.5 1.5 0 1 1 0 3 1.5 1.5 0 0 1 0-3" style="opacity:.2"/><path d="M51.701 14.992c-3.632 0-7.544 1.059-10.785 2.592-2.777 1.313-5.485 3.586-10.736 7.756-3.885 3.085-6.496 4.147-8.996 4.637-.987.193-2.975.15-4.02-.088-4.467-1.016-7.893-4.364-8.53-8.938-.194-1.398-.06-3.286.323-4.545.08-.263.133-.494.115-.511-.053-.054-1.162 1.697-1.69 2.668-1.585 2.918-2.572 5.83-3.116 9.19-.287 1.768-.355 5.458-.137 7.349.75 6.495 3.71 12.547 8.32 17.007l.746.721-.617.572c-2.425 2.238-5.498 4.14-8.443 5.229-.166.061-.138.09.193.209 1.194.428 3.694.932 5.461 1.097 1.4.132 3.925.04 5.266-.19a23.3 23.3 0 0 0 4.736-1.327l2.236-1.031c2.788-1.44 5.687-3.825 7.354-6.051 2.178-2.908 4.94-8.632 7.95-16.479 1.45-3.783 2.11-5.345 3.097-7.324q2.072-4.154 4.191-6.295c2.239-2.261 5.86-4.706 9.354-5.646l.537-.221-.016-.02-1.256-.306a22 22 0 0 0-1.537-.055M32.5 30a1.5 1.5 0 1 1 0 3 1.5 1.5 0 0 1 0-3" style="fill:#00e6b9"/><circle cx="35" cy="9" r="1" style="fill:#fff"/><circle cx="42.5" cy="11.5" r=".5" style="fill:#fff"/><circle cx="23.81" cy="17.79" r=".21" style="fill:#fff"/><circle cx="32.5" cy="17.5" r=".5" style="fill:#fff"/><circle cx="17.5" cy="18.5" r=".5" style="fill:#fff"/><circle cx="22" cy="21.9" r="1" style="fill:#fff"/><path d="M51.701 14.992c-3.632 0-7.544 1.059-10.785 2.592-2.777 1.313-5.485 3.586-10.736 7.756-3.885 3.085-6.496 4.147-8.996 4.637-.987.193-2.975.15-4.02-.088-4.467-1.016-7.893-4.364-8.53-8.938a10 10 0 0 1-.066-.869c-.023.654-.012 1.304.067 1.871.636 4.574 4.062 7.922 8.53 8.938 1.044.237 3.032.28 4.019.088 2.5-.49 5.11-1.552 8.996-4.637 5.251-4.17 7.96-6.443 10.736-7.756 3.241-1.533 7.153-2.591 10.785-2.592.313 0 .618.02.926.033a15 15 0 0 1 1.346-.433l.537-.221-.016-.02-1.256-.306a22 22 0 0 0-1.537-.055m-42.629.903c-.053-.054-1.162 1.697-1.69 2.668-1.585 2.918-2.572 5.83-3.116 9.19-.175 1.08-.258 2.861-.254 4.528.028-1.343.114-2.664.254-3.525.544-3.362 1.53-6.273 3.117-9.192.36-.663.974-1.66 1.355-2.226.06-.333.133-.65.219-.932.08-.263.133-.494.115-.511M31.092 32a1.5 1.5 0 0 0-.092.502 1.5 1.5 0 1 0 3 0c0-.177-.036-.344-.092-.502-.206.581-.756 1-1.408 1a1.495 1.495 0 0 1-1.408-1M12.666 53.32l-.088.082c-2.425 2.238-5.498 4.14-8.443 5.229-.166.061-.138.09.193.209.274.098.63.2 1.016.3a26.9 26.9 0 0 0 7.234-4.736l.617-.572z" style="fill:#fff;opacity:.2"/></svg>