<svg xmlns="http://www.w3.org/2000/svg" width="64" height="64"><path d="M24.3 8c-7.178 0-11.9 6.423-11.9 13 0 .366.16.705.189 1.07C7.779 22.991 4 27.003 4 31.946c0 5.543 4.2 10.264 9.8 10.264v2.736c0 5.319 3.248 9.713 6.907 11.98C24.366 59.192 28.357 60 32 60s7.634-.807 11.293-3.074 6.907-6.66 6.907-11.979v-2.736c5.6 0 9.8-4.72 9.8-10.264 0-4.943-3.778-8.955-8.589-9.878.03-.364.189-.703.189-1.069 0-6.577-4.722-13-11.9-13-3.139 0-5.69 1.366-7.7 3.298C29.99 9.366 27.439 8 24.3 8" style="opacity:.2"/><path d="M24.3 7c-7.178 0-11.9 6.423-11.9 13 0 .366.16.705.189 1.07C7.779 21.991 4 26.003 4 30.946c0 5.543 4.2 10.264 9.8 10.264v2.736c0 5.319 3.248 9.713 6.907 11.98C24.366 58.192 28.357 59 32 59s7.634-.807 11.293-3.074 6.907-6.66 6.907-11.979v-2.736c5.6 0 9.8-4.72 9.8-10.264 0-4.943-3.778-8.955-8.589-9.878.03-.364.189-.703.189-1.069 0-6.577-4.722-13-11.9-13-3.139 0-5.69 1.366-7.7 3.298C29.99 8.366 27.439 7 24.3 7" style="fill:#4e1a1b"/><path d="M24 13a6 7.5 0 0 0-6 7.5 6 7.5 0 0 0 6 7.5 6 7.5 0 0 0 6-7.5 6 7.5 0 0 0-6-7.5m16 0a6 7.5 0 0 0-6 7.5 6 7.5 0 0 0 6 7.5 6 7.5 0 0 0 6-7.5 6 7.5 0 0 0-6-7.5M14.5 27a4.5 4.5 0 0 0-4.5 4.5 4.5 4.5 0 0 0 4.5 4.5 4.5 4.5 0 0 0 4.5-4.5 4.5 4.5 0 0 0-4.5-4.5m35 0a4.5 4.5 0 0 0-4.5 4.5 4.5 4.5 0 0 0 4.5 4.5 4.5 4.5 0 0 0 4.5-4.5 4.5 4.5 0 0 0-4.5-4.5M32 29c-6.633 0-13 8.625-13 15.5S26.68 54 32 54s13-2.625 13-9.5S38.633 29 32 29" style="opacity:.2"/><path d="M24 12a6 7.5 0 0 0-6 7.5 6 7.5 0 0 0 6 7.5 6 7.5 0 0 0 6-7.5 6 7.5 0 0 0-6-7.5m16 0a6 7.5 0 0 0-6 7.5 6 7.5 0 0 0 6 7.5 6 7.5 0 0 0 6-7.5 6 7.5 0 0 0-6-7.5M14.5 26a4.5 4.5 0 0 0-4.5 4.5 4.5 4.5 0 0 0 4.5 4.5 4.5 4.5 0 0 0 4.5-4.5 4.5 4.5 0 0 0-4.5-4.5m35 0a4.5 4.5 0 0 0-4.5 4.5 4.5 4.5 0 0 0 4.5 4.5 4.5 4.5 0 0 0 4.5-4.5 4.5 4.5 0 0 0-4.5-4.5M32 28c-6.633 0-13 8.625-13 15.5S26.68 53 32 53s13-2.625 13-9.5S38.633 28 32 28" style="fill:#ed99a1"/><path d="M24.3 7c-7.178 0-11.9 6.423-11.9 13 0 .075.024.147.036.22C12.79 13.926 17.406 8 24.3 8c3.14 0 5.69 1.367 7.7 3.299C34.01 9.367 36.56 8 39.7 8c6.893 0 11.509 5.925 11.864 12.22.012-.073.036-.145.036-.22 0-6.577-4.722-13-11.9-13-3.14 0-5.69 1.367-7.7 3.299C29.99 8.367 27.44 7 24.3 7M12.419 21.11C7.69 22.093 4 26.062 4 30.946c0 .168.016.332.023.498.247-4.71 3.92-8.485 8.565-9.377-.026-.326-.143-.635-.17-.959m39.164 0c-.027.323-.144.632-.17.958 4.646.892 8.318 4.667 8.565 9.377.007-.166.023-.33.023-.498 0-4.884-3.69-8.853-8.418-9.838" style="opacity:.1;fill:#fff"/></svg>