<svg xmlns="http://www.w3.org/2000/svg" width="64" height="64"><path d="M8 5S4 5 4 9v48c0 4 4 4 4 4h32l20-20V9c0-4-4-4-4-4Z" style="opacity:.2"/><path d="M8 4S4 4 4 8v48c0 4 4 4 4 4h32l20-20V8c0-4-4-4-4-4Z" style="fill:#e4e4e4"/><path d="M12 12v7h7v-7zm11 0v7h7v-7zm11 0v7h7v-7zm11 0v7h7v-7zM12 23v7h7v-7zm11 0v7h7v-7zm11 0v7h7v-7zm0 11v7h7v-7zm11 0v7h7v-7zM12 45v7h7v-7zm11 0v7h7v-7zm11 0v7h7v-7z" style="opacity:.1"/><path d="M60 40H43c-1.656 0-3 1.344-3 3v17Z" style="fill:#b7b2b2"/><path d="M45 23v7h7v-7zM12 34v7h7v-7zm11 0v7h7v-7z" style="opacity:.2"/><path d="M43 40c-1.656 0-3 1.344-3 3v1c0-1.656 1.344-3 3-3h16l1-1ZM8 4S4 4 4 8v1c0-4 4-4 4-4h48s4 0 4 4V8c0-4-4-4-4-4z" style="opacity:.2;fill:#fff"/><path d="M8 15c-3.324 0-6 2.676-6 6v9c0 3.324 2.676 6 6 6h11.385L27 45v-9.09A5.98 5.98 0 0 0 32 30v-9c0-3.324-2.676-6-6-6z" style="opacity:.2"/><path d="M8 14c-3.324 0-6 2.676-6 6v9c0 3.324 2.676 6 6 6h11.385L27 44v-9.09A5.98 5.98 0 0 0 32 29v-9c0-3.324-2.676-6-6-6z" style="fill:#50beee"/><path d="M8 14c-3.324 0-6 2.676-6 6v1c0-3.324 2.676-6 6-6h18c3.324 0 6 2.676 6 6v-1c0-3.324-2.676-6-6-6z" style="fill:#fff;opacity:.2"/></svg>