<svg xmlns="http://www.w3.org/2000/svg" width="64" height="64"><circle cx="32" cy="33" r="28" style="opacity:.2"/><circle cx="32" cy="32" r="28" style="fill:#4f4f4f"/><path d="M41.066 13.005a13 13 0 0 0-.796.008c-2.197.087-4.97.735-8.282 2.867s-7.165 5.747-9.914 9.3-4.622 7.358-5.469 11.024c-.846 3.666-.74 6.645-.066 9.5.675 2.856 2.612 5.428 4.563 6.438s3.99 1.003 6.48.617a20.8 20.8 0 0 0 6.945-2.441c1.976-1.135 3.448-2.482 4.54-4.489.308-.568.582-1.193.82-1.828-.293 1.711-.58 3.56-.61 4.742-.05 2.04 1.464 1.859 2.297 1.473s.906-1.445 1.516-3.61 1.13-5.199.969-7.488c-.162-2.289-1.786-4.066-3.664-4.129s-4.715 1.358-7.34 2.54-5.035 2.125-6.118 3.257c-1.082 1.132-.835 2.451.036 2.825.87.373 2.364-.2 3.832-.883 1.468-.684 2.91-1.483 4.265-2.13a29 29 0 0 1 2.524-1.062c-.432 1.228-.633 3.035-1.606 4.508-1.251 1.895-2.936 3.38-5.218 4.266-2.283.885-5.47 1.561-7.383.8s-2.942-3.034-3.383-5.19c-.442-2.158-.375-4.821.336-7.29.712-2.468 1.838-4.979 3.703-7.86 1.865-2.88 4.852-5.896 7.723-8.277s6.142-3.906 8.707-4.03c2.564-.126 4.26 1.758 5.488 2.132 1.227.374 2.2-.928 2.016-1.8-.184-.874-1.365-1.925-2.63-2.661-1.105-.644-2.482-1.086-4.28-1.129" style="opacity:.2"/><path d="M26.973 42.61c-.87-.373-1.12-1.692-.037-2.824 1.082-1.132 3.495-2.077 6.12-3.26 2.625-1.181 5.46-2.599 7.34-2.537 1.878.062 3.5 1.839 3.663 4.128.161 2.289-.358 5.324-.967 7.489-.61 2.164-.685 3.223-1.519 3.609s-2.347.566-2.297-1.474.882-6.145 1.156-7.91c.274-1.767-.87-1.899-1.803-1.638s-2.202.76-3.558 1.406c-1.356.647-2.799 1.443-4.267 2.128-1.468.684-2.96 1.256-3.831.883" style="fill:#ff4e4e"/><path d="M31.767 19.491c-2.87 2.382-5.86 5.4-7.726 8.279-1.865 2.88-2.99 5.389-3.702 7.857s-.778 5.133-.336 7.29c.441 2.157 1.469 4.433 3.383 5.194 1.914.76 5.1.083 7.382-.802s3.968-2.37 5.22-4.265 1.22-4.357 2.055-5.404c.834-1.048 2.534-.681 2.68.915.148 1.596-.564 4.264-1.656 6.272-1.091 2.007-2.564 3.353-4.54 4.488s-4.453 2.057-6.944 2.444c-2.49.386-4.531.393-6.482-.617s-3.89-3.584-4.564-6.44c-.675-2.855-.78-5.834.067-9.5.847-3.665 2.722-7.47 5.47-11.023 2.749-3.553 6.601-7.169 9.914-9.3 3.313-2.133 6.085-2.781 8.282-2.869 2.196-.087 3.816.387 5.08 1.123 1.263.735 2.444 1.788 2.628 2.66.184.874-.792 2.175-2.019 1.8-1.227-.373-2.923-2.257-5.487-2.132s-5.834 1.649-8.705 4.03" style="fill:#ff4e4e"/><path d="M22 45v8h1.023v-3.719c-.02-.785 0-1.713-.046-2.554h.043L25.168 53h1.457c.639-2.074 1.671-4.264 2.375-6.262V53h1v-8h-1.56l-2.475 6.717h-.031L23.66 45Zm10 0v8h1v-2.998h.625c.843.039 1.513-.125 2-.371q.74-.37 1.055-.973c.21-.41.32-1.037.32-1.5-.257-1.69-1.515-2.145-3.227-2.158Zm6.137 0 1.996 3.879L38 53h1.457l1.492-3.027L42.443 53H44l-2.17-4.035L43.85 45h-1.471l-1.356 2.879L39.637 45ZM33 46h1.37Q36 46 36 47.47q-.001.807-.52 1.175-.502.354-1.373.355H33Z" style="opacity:.2"/><path d="M22 44v8h1.023v-3.719c-.02-.785 0-1.713-.046-2.554h.043L25.168 52h1.457c.639-2.074 1.671-4.264 2.375-6.262V52h1v-8h-1.56l-2.475 6.717h-.031L23.66 44zm10 0v8h1v-2.998h.625c.843.039 1.513-.125 2-.371q.74-.37 1.055-.973c.21-.41.32-1.037.32-1.5-.257-1.69-1.515-2.145-3.227-2.158zm6.137 0 1.996 3.879L38 52h1.457l1.492-3.027L42.443 52H44l-2.17-4.035L43.85 44h-1.471l-1.356 2.879L39.637 44zM33 45h1.37Q36 45 36 46.47q-.001.807-.52 1.175-.502.354-1.373.355H33z" style="fill:#41ec41"/><path d="M32 4A28 28 0 0 0 4 32a28 28 0 0 0 .033.482A28 28 0 0 1 32 5a28 28 0 0 1 27.982 27.242L60 32A28 28 0 0 0 32 4" style="opacity:.1;fill:#fff"/></svg>