<svg xmlns="http://www.w3.org/2000/svg" width="64" height="64"><path d="M4 50v2c0 1.662 1.338 3 3 3h50c1.662 0 3-1.338 3-3v-2c0 1.662-1.338 3-3 3H7c-1.662 0-3-1.338-3-3" style="opacity:.2"/><rect width="44" height="56" x="-54" y="-60" rx="3" ry="3" style="fill:#e4e4e4" transform="rotate(90)scale(-1 1)"/><path d="M7 10c-1.662 0-3 1.338-3 3v1c0-1.662 1.338-3 3-3h50c1.662 0 3 1.338 3 3v-1c0-1.662-1.338-3-3-3z" style="opacity:.2;fill:#fff"/><path d="M10 23h44v2H10zm0 24h44v2H10z" style="fill:#bbb"/><path d="M10 23h2v26h-2zm42 0h2v26h-2z" style="fill:#bbb"/><path d="M11 38h42v2H11z" style="fill:#bbb"/><path d="M20 24h2v15h-2zm22 0h2v15h-2zm-11 0h2v24h-2z" style="fill:#bbb"/><path d="M15 15.451a2.5 2.5 0 1 1-5.001-.001 2.5 2.5 0 0 1 5.001 0m0 0" style="fill:#3f3f3f"/><path d="M12.5 15.43V7.45" style="fill:none;stroke:#bbb;stroke-width:3;stroke-linecap:round"/><path d="M25 15.451a2.5 2.5 0 1 1-5.001-.001 2.5 2.5 0 0 1 5.001 0m0 0" style="fill:#3f3f3f"/><path d="M22.5 15.43V7.45" style="fill:none;stroke:#bbb;stroke-width:3;stroke-linecap:round"/><path d="M35 15.451a2.5 2.5 0 1 1-5.001-.001 2.5 2.5 0 0 1 5.001 0m0 0" style="fill:#3f3f3f"/><path d="M32.5 15.43V7.45" style="fill:none;stroke:#bbb;stroke-width:3;stroke-linecap:round"/><path d="M45 15.451a2.5 2.5 0 1 1-5.001-.001 2.5 2.5 0 0 1 5.001 0m0 0" style="fill:#3f3f3f"/><path d="M42.5 15.43V7.45" style="fill:none;stroke:#bbb;stroke-width:3;stroke-linecap:round"/><path d="M54 15.451a2.5 2.5 0 1 1-5.001-.001 2.5 2.5 0 0 1 5.001 0m0 0" style="fill:#3f3f3f"/><path d="M51.5 15.43V7.45" style="fill:none;stroke:#bbb;stroke-width:3;stroke-linecap:round"/><path d="M55.016 30.008c-.46-.043-.7.094-.7.094l-4.242 3.093-4.277 3.14L27.805 49.81 24.8 56.297 23 60l4.121-.625 6.856-1.23 18.18-13.36 4.265-3.156 4.242-3.094s1.427-1.329-1.602-5.36l-.003-.003-.008-.008c-1.897-2.516-3.27-3.085-4.035-3.156" style="opacity:.2"/><path d="m50.074 32.195 4.244-3.094s1.7-.964 4.734 3.062l.007.008.002.003c3.029 4.03 1.604 5.361 1.604 5.361l-4.244 3.093z" style="fill:#ea5a67"/><path d="m50.074 32.195-4.277 3.142 6.36 8.45 4.264-3.159z" style="fill:#9e9e9e"/><path d="m45.797 35.337 6.36 8.45-18.182 13.36.513-3.294-3.526-.778.375-3.543-3.534-.722Z" style="fill:#ffb505"/><path d="m27.803 48.81 3.534.722-.375 3.543 3.526.778-.513 3.293-6.855 1.23-2.318-3.08z" style="fill:#fbe289"/><path d="m27.12 58.376-2.318-3.08L23 59Z" style="fill:#3f3f3f"/><path d="M55.016 29.008c-.46-.043-.7.094-.7.094l-4.242 3.093-4.277 3.14L27.805 48.81 24.8 55.297 23 59l1.05-.16.75-1.543 3.005-6.488 17.992-13.473 4.277-3.14 4.242-3.094s.24-.137.7-.094c.764.071 2.138.64 4.035 3.156l.008.008.004.004c1.008 1.342 1.496 2.362 1.734 3.156.267-.446.723-1.886-1.734-5.156l-.004-.004-.008-.008c-1.897-2.516-3.27-3.085-4.035-3.156" style="opacity:.2;fill:#fff"/></svg>