<svg xmlns="http://www.w3.org/2000/svg" width="64" height="64"><circle cx="32" cy="33" r="29" style="opacity:.2"/><circle cx="32" cy="32" r="29" style="fill:#e4e4e4"/><path d="M32 10a3 3 0 0 0-2.121.879l-20 20a3 3 0 0 0 0 4.242 3 3 0 0 0 4.242 0L29 20.242V53a3 3 0 0 0 3 3 3 3 0 0 0 3-3V20.242l14.879 14.88a3 3 0 0 0 4.242 0 3 3 0 0 0 0-4.243l-20-20A3 3 0 0 0 32 10" style="opacity:.1"/><path d="M32 52V12M12 32l20-20 20 20" style="fill:none;stroke:#0ebb67;stroke-width:6;stroke-linecap:round;stroke-linejoin:round"/><path d="m27.648 36.75-3.921 3.926 2.046 2.05 1.875-1.874 2.903 2.898 2.902-2.898 2.899 2.898 3.921-3.926-2.046-2.05-1.875 1.874-2.903-2.898-2.902 2.898Z" style="opacity:.1"/><path d="m24.75 40.7 2.9-2.9 2.9 2.9 2.9-2.9 2.9 2.9 2.9-2.9" style="fill:none;stroke:#fe8f00;stroke-width:2.9"/><path d="M32 3A29 29 0 0 0 3 32a29 29 0 0 0 .033.482A29 29 0 0 1 32 4a29 29 0 0 1 28.982 28.229L61 32A29 29 0 0 0 32 3" style="opacity:.2;fill:#fff"/></svg>