<svg xmlns="http://www.w3.org/2000/svg" xmlns:xlink="http://www.w3.org/1999/xlink" width="64" height="64"><defs><filter id="d" width="1.141" height="1.141" x="-.071" y="-.071" style="color-interpolation-filters:sRGB"><feGaussianBlur stdDeviation="1.601"/></filter><filter id="f" width="1.743" height="1.743" x="-.371" y="-.371" style="color-interpolation-filters:sRGB"><feGaussianBlur stdDeviation="2.788"/></filter><filter id="h" width="1.076" height="1.227" x="-.038" y="-.114" style="color-interpolation-filters:sRGB"><feGaussianBlur stdDeviation=".847"/></filter><filter id="e" width="1.194" height="1.075" x="-.097" y="-.037" style="color-interpolation-filters:sRGB"><feGaussianBlur stdDeviation=".847"/></filter><radialGradient xlink:href="#a" id="c" cx="26.732" cy="14.798" r="26.777" fx="26.732" fy="14.798" gradientTransform="matrix(0 -2.38125 2.3893 0 28.575 127.556)" gradientUnits="userSpaceOnUse"/><radialGradient id="a" cx="-159.431" cy="15.463" r="64.707" fx="-159.431" fy="15.463" gradientTransform="matrix(-.89413 0 0 .96305 -19.436 43.676)" gradientUnits="userSpaceOnUse"><stop offset="0" style="stop-color:#006fff;stop-opacity:1"/><stop offset="1" style="stop-color:#15baff;stop-opacity:1"/></radialGradient><radialGradient xlink:href="#b" id="g" cx="23.965" cy="43.637" r="28" fx="23.965" fy="43.637" gradientTransform="rotate(15 152.415 41.312)scale(2.0935 1.61997)" gradientUnits="userSpaceOnUse"/><linearGradient id="b"><stop offset="0" style="stop-color:#3e3e3e;stop-opacity:1"/><stop offset="1" style="stop-color:#1e1e1e;stop-opacity:1"/></linearGradient></defs><circle cx="32" cy="31.968" r="27.917" style="fill:url(#c);fill-opacity:1;stroke-width:0"/><circle cx="32" cy="32" r="27.917" style="fill:none;fill-opacity:1;stroke:#000;stroke-width:.2;stroke-dasharray:none;stroke-opacity:1;filter:url(#d)"/><path d="M24.104 5c-1.521.377-5.211.075-5.05 1.9 1.154.694 1.047 2.082.157 2.46.419 1.809 2.269 1.426 2.976.06 1.516-.489 5.163-2.295 3.04-4.009-.373-.14-.783-.191-1.123-.411m-5.485.176c-.805.358-3.038.471-2.818 1.513.917-.342 2.9-.084 2.818-1.513m-4.56 2.097c.207.796-1.716 3.56.018 1.896 1.089-1.788 3.259 1.18 3.72-.267-.78-1.287-2.7-1.676-3.665-1.2l-.044-.176zm19.793.7c-1.592.074-4.11 2.076-3.443 3.396 1.583.951 2.317.163 2.446-1.438.455-1.22 1.119-.672.705.361 1.618.978-.998 2.87-2.25 2.268-.56-.658-1.054 1.362-2.137 1.394-1.073.76-.602 1.964-2.072 2.525-.943 1.84 2.058 2.075 2.409.305 1-1.793 2.473-.408 3.193.702.416-.84-.277-2.16.674-.63.499.87.793 1.064 1.28.263.839.538 2.462 1.188 2.692 1.734-.87 1.545-3.394.246-4.553.558-1.47-1.62-4.163-1.627-5.584.06a9 9 0 0 0-1.718 2.289c-.84 1.631-.614 5.035.832 6.116.432.322.932.532 1.475.565.907.056 2.5-.635 3.17-.045.848.748.8 2.408 1.239 3.528.298 2.137-.73 4.294.392 6.354.519 1.298-.042 3.547 2.02 2.399 2.17-.698 3.033-2.813 3.303-4.66 2.404-1.247.334-3.766 1.649-5.567.482-1.22 3.232-3.71 1.291-4.464-.325-.255 4.045-3.097 1.362-3.714-1.32.246-1.653-2.735-.147-1.196.742.665 1.817.878 1.62-.599-.798-4.395-3.084-8.526-6.46-11.463.103 1.817-3.068.191-.854-.244-.694-.52-1.761-.38-2.534-.797m-21.846.029c-.895 1.86-2.899 2.51-4.201 4.255C5.381 15.652 3.958 19.797 4 23.982c1.65 1.701 4.172 2.136 5.938 3.68.843 1.826-2.067 3.887-.119 5.747 1.67 1.687 2.526 3.765 2.759 6.094.417 2.464 3.904 3.084 4.801.6.224-1.72.908-2.981 2.413-3.91-.084-1.59.763-2.98 1.102-4.497-1.803-1.347-4.283-2.128-5.75-4.148-1.675-.68-3.304-1.494-4.992-.727-1.681.168-1.097-1.872-2.186-2.084.162-1.06-.055-2.1-1.14-.956-2.173.387-1.062-3.285.636-3.222 1.123-1.215 2.79 1.762 2.59-.243 1.072-1.396 2.022-3.162 3.787-3.657.898-.264 3.009-1.782.87-1.674-.818-.656 3.202-.342 2.633-2.08-.617-.747-.712-1.695-1.855-1.86-1.048-1.8-1.926 1.243-2.648 1.748-.652 1-1.026-.524-1.868-.712-1.19-1.96 3.165-1.668 2.11-3.871-.285-.265-.718-.238-1.075-.208m14.686.91c-1.484-.383-1.841 1.659-.217.865.456-.098.864-.62.217-.865m-10.702.373c-1.371 1.076 2.135.697.101.02zm12.21 2.012c.156.887.38 3.86 1.372 1.786-.103-.788-.749-1.368-1.373-1.786m-.307 1.049c-1.865.626 1.308 1.598 0 0m-10.664 1.576c-.306 1.534 1.404.849 0 0m20.177 6.818c1.06 1.459 2.879 3.595 2.2 5.317-.878-1.433-1.66-3.023-2.427-4.544a.87.87 0 0 1 .227-.773" style="opacity:.121895;stroke-width:1;enable-background:new" transform="translate(-1.297 -1.641)scale(1.38375)"/><path d="M17.655 7.009c-6 22 1.692 38.456 17 54" style="fill:none;stroke:#3f3f3f;stroke-width:3;stroke-linecap:round;stroke-linejoin:round"/><path d="M18.05 5.562a1.5 1.5 0 0 0-1.841 1.053c-6.136 22.497 1.876 39.705 17.379 55.447a1.5 1.5 0 0 0 2.121.016 1.5 1.5 0 0 0 .016-2.122C20.612 44.611 13.239 28.906 19.104 7.404a1.5 1.5 0 0 0-1.053-1.842" style="baseline-shift:baseline;display:inline;overflow:visible;fill:none;stroke:#000;stroke-width:.2;stroke-linecap:round;stroke-linejoin:round;stroke-dasharray:none;stroke-opacity:1;enable-background:accumulate;stop-color:#000;filter:url(#e)"/><path d="m49.534 11.343-1.253 3.854a.25.25 60.086 0 0 .186.324l3.962.854a.507.507 82.586 0 1 .123.948l-3.611 1.84a.25.25 105.086 0 0-.097.36l2.197 3.405a.507.507 127.586 0 1-.583.758l-3.854-1.253a.25.25 150.086 0 0-.324.186l-.854 3.963a.507.507 172.586 0 1-.948.123l-1.84-3.612a.25.25 15.086 0 0-.36-.097l-3.406 2.198a.507.507 37.586 0 1-.758-.583l1.253-3.855a.25.25 60.086 0 0-.186-.324l-3.962-.853a.507.507 82.586 0 1-.123-.949l3.611-1.84a.25.25 105.086 0 0 .097-.36l-2.197-3.405a.507.507 127.586 0 1 .583-.758l3.854 1.253a.25.25 150.086 0 0 .324-.186l.854-3.962a.507.507 172.586 0 1 .948-.124l1.84 3.612a.25.25 15.086 0 0 .36.097l3.406-2.198a.507.507 37.586 0 1 .758.584" style="fill:#fff;stroke-width:1.42918;opacity:.78164349"/><path d="m49.534 11.343-1.253 3.854a.25.25 60.086 0 0 .186.324l3.962.854a.507.507 82.586 0 1 .123.948l-3.611 1.84a.25.25 105.086 0 0-.097.36l2.197 3.405a.507.507 127.586 0 1-.583.758l-3.854-1.253a.25.25 150.086 0 0-.324.186l-.854 3.963a.507.507 172.586 0 1-.948.123l-1.84-3.612a.25.25 15.086 0 0-.36-.097l-3.406 2.198a.507.507 37.586 0 1-.758-.583l1.253-3.855a.25.25 60.086 0 0-.186-.324l-3.962-.853a.507.507 82.586 0 1-.123-.949l3.611-1.84a.25.25 105.086 0 0 .097-.36l-2.197-3.405a.507.507 127.586 0 1 .583-.758l3.854 1.253a.25.25 150.086 0 0 .324-.186l.854-3.962a.507.507 172.586 0 1 .948-.124l1.84 3.612a.25.25 15.086 0 0 .36.097l3.406-2.198a.507.507 37.586 0 1 .758.584" style="mix-blend-mode:normal;fill:#fff;stroke-width:1.42918;filter:url(#f)" transform="translate(18.538 7.604)scale(.57699)"/><path d="M59.655 32.009c-15.762 15.681-33 19-53 13" style="fill:none;stroke:url(#g);stroke-width:3;stroke-linecap:round;stroke-linejoin:round;stroke-opacity:1"/><path d="M59.66 30.51a1.5 1.5 0 0 0-1.062.437c-15.45 15.37-31.883 18.513-51.51 12.625a1.5 1.5 0 0 0-1.87 1.006 1.5 1.5 0 0 0 1.007 1.869c20.373 6.112 38.415 2.618 54.49-13.375a1.5 1.5 0 0 0 .004-2.121 1.5 1.5 0 0 0-1.059-.442" style="baseline-shift:baseline;display:inline;overflow:visible;fill:none;stroke:#000;stroke-width:.2;stroke-linecap:round;stroke-linejoin:round;stroke-dasharray:none;stroke-opacity:1;enable-background:accumulate;stop-color:#000;filter:url(#h)"/></svg>