<svg xmlns="http://www.w3.org/2000/svg" width="64" height="64"><rect width="34" height="39" x="15" y="22" rx="3" ry="3" style="opacity:.2"/><rect width="34" height="39" x="15" y="21" rx="3" ry="3" style="fill:#4f4f4f"/><path d="M18 21c-1.662 0-3 1.338-3 3v1c0-1.662 1.338-3 3-3h28c1.662 0 3 1.338 3 3v-1c0-1.662-1.338-3-3-3z" style="fill:#fff;opacity:.1"/><path d="M15.2 5S4 12 4 19c0 11.2 11 14 11 14l6-11s-11 0-11-6c0-3 5.2-11 5.2-11m33.6 0S54 13.2 54 16c0 6-11 6-11 6l6 11s11-2.8 11-14c0-7-11.2-14-11.2-14" style="opacity:.2"/><path d="M15.2 4S4 11 4 18c0 11.2 11 14 11 14l6-11s-11 0-11-6c0-3 5.2-11 5.2-11m33.6 0S54 12.2 54 15c0 6-11 6-11 6l6 11s11-2.8 11-14c0-7-11.2-14-11.2-14" style="fill:#de081c"/><circle cx="25" cy="40" r="7" style="opacity:.2"/><circle cx="25" cy="39" r="7" style="fill:#fff"/><circle cx="39" cy="40" r="7" style="opacity:.2"/><circle cx="25" cy="39" r="4" style="fill:#de081c"/><circle cx="39" cy="39" r="7" style="fill:#fff"/><circle cx="39" cy="39" r="4" style="fill:#de081c"/><path d="M25 38a1 1 0 0 0-1 1 1 1 0 0 0 1 1 1 1 0 0 0 1-1 1 1 0 0 0-1-1m14 0a1 1 0 0 0-1 1 1 1 0 0 0 1 1 1 1 0 0 0 1-1 1 1 0 0 0-1-1" style="fill:#4f4f4f"/><path d="m18 32 14 12 14-12z" style="fill:#4f4f4f"/><path d="M15.2 4S4 11 4 18c0 .208.012.407.02.61.326-5.588 7.438-11.026 10.11-12.883A87 87 0 0 1 15.2 4m33.6 0s.44.71 1.026 1.695c2.638 1.829 9.826 7.297 10.154 12.914.008-.202.02-.401.02-.609 0-7-11.2-14-11.2-14M10.04 15.588c-.018.142-.04.287-.04.412 0 5.211 8.281 5.894 10.463 5.984L21 21s-10.265-.001-10.96-5.412m43.919.008C53.254 20.998 43 21 43 21l.537.984C45.72 21.894 54 21.211 54 16c0-.121-.022-.264-.041-.404" style="fill:#fff;opacity:.2"/></svg>