<svg xmlns="http://www.w3.org/2000/svg" xmlns:xlink="http://www.w3.org/1999/xlink" width="64" height="64"><defs><linearGradient id="a"><stop offset="0" style="stop-color:#09f;stop-opacity:1"/><stop offset="1" style="stop-color:#00d0ff;stop-opacity:1"/></linearGradient><linearGradient xlink:href="#a" id="b" x1=".271" x2="63.842" y1="63.661" y2=".509" gradientUnits="userSpaceOnUse"/><filter id="c" width="1.096" height="1.209" x="-.048" y="-.105" style="color-interpolation-filters:sRGB"><feGaussianBlur stdDeviation=".939"/></filter></defs><path d="M32 17.074a14.93 14.93 0 0 0-11.752 5.783A10.55 10.55 0 0 0 15 21.455 10.545 10.545 0 0 0 4.455 32 10.545 10.545 0 0 0 15 42.545a10.55 10.55 0 0 0 5.234-1.42A14.93 14.93 0 0 0 32 46.925a14.93 14.93 0 0 0 11.766-5.8A10.55 10.55 0 0 0 49 42.545 10.545 10.545 0 0 0 59.545 32 10.545 10.545 0 0 0 49 21.455a10.55 10.55 0 0 0-5.207 1.404A14.93 14.93 0 0 0 32 17.074" style="opacity:1;fill:url(#b);fill-opacity:1;stroke:none;stroke-width:.2"/><path d="M32 21a11 11 0 0 0-10.61 8.15A7 7 0 0 0 15 25a7 7 0 0 0-7 7 7 7 0 0 0 7 7 7 7 0 0 0 6.39-4.154A11 11 0 0 0 32 43a11 11 0 0 0 10.61-8.154A7 7 0 0 0 49 39a7 7 0 0 0 7-7 7 7 0 0 0-7-7 7 7 0 0 0-6.383 4.135A11 11 0 0 0 32 21m.125 4a7 7 0 0 1 7 7 7 7 0 0 1-7 7 7 7 0 0 1-7-7 7 7 0 0 1 7-7M15 29a3 3 0 0 1 3 3 3 3 0 0 1-3 3 3 3 0 0 1-3-3 3 3 0 0 1 3-3m34 0a3 3 0 0 1 3 3 3 3 0 0 1-3 3 3 3 0 0 1-3-3 3 3 0 0 1 3-3" style="fill:#fff;fill-opacity:1"/><path d="M32 21a11 11 0 0 0-10.61 8.15A7 7 0 0 0 15 25a7 7 0 0 0-7 7 7 7 0 0 0 7 7 7 7 0 0 0 6.39-4.154A11 11 0 0 0 32 43a11 11 0 0 0 10.61-8.154A7 7 0 0 0 49 39a7 7 0 0 0 7-7 7 7 0 0 0-7-7 7 7 0 0 0-6.383 4.135A11 11 0 0 0 32 21Zm.125 4a7 7 0 0 1 7 7 7 7 0 0 1-7 7 7 7 0 0 1-7-7 7 7 0 0 1 7-7zM15 29a3 3 0 0 1 3 3 3 3 0 0 1-3 3 3 3 0 0 1-3-3 3 3 0 0 1 3-3zm34 0a3 3 0 0 1 3 3 3 3 0 0 1-3 3 3 3 0 0 1-3-3 3 3 0 0 1 3-3z" style="fill:none;fill-opacity:1;stroke:#002eff;stroke-opacity:1;stroke-width:.1;stroke-dasharray:none;filter:url(#c)"/></svg>