<svg xmlns="http://www.w3.org/2000/svg" width="64" height="64"><path d="M14 51.668V55a2 2 0 0 0 2 2 2 2 0 0 0 2-2v-3.332zm32 0V55a2 2 0 0 0 2 2 2 2 0 0 0 2-2v-3.332z" style="opacity:.2"/><path d="M46 50.667V54a2 2 0 0 0 2 2 2 2 0 0 0 2-2v-3.333zm-32 0V54a2 2 0 0 0 2 2 2 2 0 0 0 2-2v-3.333z" style="fill:#5a4b11"/><path d="M31.974 7C21.2 7 14 12.561 14 23.684V45h36V23.684C50 12.56 42.8 7 32 7Z" style="fill:#ffd949"/><path d="M9 28a5 5 0 0 0-5 5 5 5 0 0 0 4 4.898v12.547C8 52.41 9.535 54 11.43 54h41.14c1.895 0 3.43-1.591 3.43-3.555V37.891A5 5 0 0 0 60 33a5 5 0 0 0-5-5 5 5 0 0 0-5 5v13H14V33a5 5 0 0 0-5-5" style="opacity:.2"/><path d="M11.43 45h41.14c1.896 0 3.43 1.592 3.43 3.556v.888C56 51.408 54.466 53 52.57 53H11.43C9.533 53 8 51.408 8 49.444v-.888C8 46.592 9.534 45 11.43 45m0 0" style="fill:#eebf07"/><path d="M23.057 37.003c-2.96-.045-5.94.41-9.057 1.498V47h36v-8.499c-6.235-2.175-11.914-1.817-18 0-3.043-.908-5.983-1.453-8.943-1.498" style="fill:#ffe992"/><path d="M8 32h6v17H8z" style="fill:#eebf07"/><path d="m30.6 16.7 2.8 2.8m0-2.8-2.8 2.8m9.8 2.8 2.8 2.8m0-2.8-2.8 2.8m-19.6-2.8 2.8 2.8m0-2.8-2.8 2.8m9.8 2.8 2.8 2.8m0-2.8-2.8 2.8" style="fill:none;stroke:#5a4b11;stroke-width:.69999999"/><circle cx="9" cy="32" r="5" style="fill:#eebf07"/><path d="M-56 32h6v17h-6z" style="fill:#eebf07" transform="scale(-1 1)"/><circle cx="55" cy="32" r="5" style="fill:#eebf07"/><path d="M9 31a1.999 1.999 0 1 0 0 4 1.999 1.999 0 1 0 0-4m46 0a1.999 1.999 0 1 0 0 4 1.999 1.999 0 1 0 0-4" style="opacity:.1"/><path d="M11 32a1.999 1.999 0 1 1-4 0 1.999 1.999 0 1 1 4 0m46 0a1.999 1.999 0 1 1-4 0 1.999 1.999 0 1 1 4 0m0 0" style="fill:#5a4b11"/><path d="M31.973 7C21.2 7 14 12.561 14 23.684v1C14 13.56 21.2 8 31.973 8H32c10.8 0 18 5.561 18 16.684v-1C50 12.56 42.8 7 32 7Zm8.97 30.002c-2.96.045-5.9.59-8.943 1.498-3.043-.908-5.982-1.451-8.941-1.496S17.118 37.412 14 38.5v1c3.118-1.088 6.099-1.54 9.059-1.496s5.898.588 8.941 1.496c6.086-1.817 11.765-2.176 18 0v-1c-3.118-1.088-6.097-1.543-9.057-1.498" style="opacity:.2;fill:#fff"/><path d="M14 47h36v1H14z" style="opacity:.2"/></svg>