<svg xmlns="http://www.w3.org/2000/svg" xmlns:xlink="http://www.w3.org/1999/xlink" width="64" height="64"><defs><filter id="d" width="1.103" height="1.103" x="-.052" y="-.052" style="color-interpolation-filters:sRGB"><feGaussianBlur stdDeviation=".817"/></filter><filter id="c" width="1.14" height="1.14" x="-.07" y="-.07" style="color-interpolation-filters:sRGB"><feGaussianBlur stdDeviation="1.591"/></filter><radialGradient xlink:href="#a" id="b" cx="3.904" cy="42.012" r="28" fx="3.904" fy="42.012" gradientTransform="rotate(30 159.394 76.434)scale(2.47683)" gradientUnits="userSpaceOnUse"/><linearGradient id="a"><stop offset="0" style="stop-color:#8c61d6;stop-opacity:1"/><stop offset="1" style="stop-color:#563187;stop-opacity:1"/></linearGradient></defs><rect width="56" height="56" x="4" y="4" rx="27.999" ry="27.999" style="fill:url(#b)"/><rect width="56" height="56" x="4" y="4" rx="27.999" ry="27.999" style="fill:none;stroke:#000;stroke-width:.2;stroke-dasharray:none;stroke-opacity:1;filter:url(#c)"/><path d="M32 12.001c-11.046 0-20 8.954-20 20s8.954 20 20 20 19.999-8.955 19.999-20-8.954-20-20-20m-1.872 3.989c.218-.023.492.013.711 0 .026.104-.154.477-.402 1.02-1.58 3.452-1.674 7.494-.207 9.655.265.392.508.764.508.813s-.286.101-.61.101c-.76 0-1.48-.462-2.949-1.625-.653-.517-1.5-.95-1.828-1.015-.516-.104-.653-.059-1.32.609-.622.621-.813.959-.813 1.527 0 2.157 2.562 3.866 7.32 4.875 6.463 1.37 8.052 2.598 8.23 5.996.224 4.261-2.042 7.473-7.011 9.96-.593.298-.97.416-1.219.512-.11-.01-.198.01-.308 0-.043-.131-.102-.436-.102-1.015 0-2.263-.89-4.596-2.234-5.899-.361-.35-1.37-1.089-2.234-1.624-.866-.536-1.74-1.157-1.934-1.422-.322-.44-.345-.71-.098-1.524.452-1.486.987-2.318 2.032-3.257.547-.493 1.097-.9 1.218-.91.122-.01-.698-.26-1.93-.512a35 35 0 0 1-3.968-1.117c-1.703-.617-4.002-1.912-4.879-2.848-.037-.04-.07-.066-.101-.102 1.256-5.003 4.78-9.101 9.453-11.077.977-.414 1.986-.697 3.05-.914.53-.109 1.078-.152 1.625-.207m15.25 7.624c.382.237 1.826 3.36 2.238 4.883.532 1.965.493 5.364 0 7.316-.188.743-.432 1.437-.512 1.524s-.373-.407-.715-1.012c-.34-.605-1.425-1.891-2.332-2.848-2.615-2.76-3.029-4.199-1.933-6.402.552-1.11 2.958-3.643 3.254-3.46" style="fill:#fff;fill-opacity:1"/><path d="M32 11.901c-11.046 0-20 8.954-20 20s8.954 20 20 20 19.999-8.955 19.999-20-8.954-20-20-20zm-1.872 3.989c.218-.023.492.013.711 0 .026.104-.154.477-.402 1.019-1.58 3.453-1.674 7.495-.207 9.656.265.392.508.764.508.812s-.286.102-.61.102c-.76 0-1.48-.462-2.949-1.625-.653-.517-1.5-.95-1.828-1.016-.516-.103-.653-.058-1.32.61-.622.621-.813.958-.813 1.527 0 2.157 2.562 3.866 7.32 4.875 6.463 1.37 8.052 2.598 8.23 5.996.224 4.261-2.042 7.473-7.011 9.96-.593.298-.97.416-1.219.512-.11-.01-.198.01-.308 0-.043-.131-.102-.436-.102-1.015 0-2.264-.89-4.596-2.234-5.899-.361-.35-1.37-1.089-2.234-1.625-.866-.535-1.74-1.156-1.934-1.421-.322-.44-.345-.71-.098-1.524.452-1.486.987-2.318 2.032-3.257.547-.493 1.097-.9 1.218-.91.122-.01-.698-.26-1.93-.512a35 35 0 0 1-3.968-1.117c-1.703-.617-4.002-1.912-4.879-2.848-.037-.04-.07-.066-.101-.102 1.256-5.003 4.78-9.101 9.453-11.077.977-.414 1.986-.697 3.05-.914.53-.109 1.078-.152 1.625-.207zm15.25 7.624c.382.236 1.826 3.36 2.238 4.883.532 1.965.493 5.364 0 7.316-.188.743-.432 1.437-.512 1.524s-.373-.407-.715-1.012c-.34-.605-1.425-1.892-2.332-2.848-2.615-2.76-3.029-4.2-1.933-6.402.552-1.11 2.958-3.643 3.254-3.46z" style="fill:none;stroke:#1800ff;stroke-width:.2;stroke-dasharray:none;stroke-opacity:1;filter:url(#d)"/></svg>