<svg xmlns="http://www.w3.org/2000/svg" width="64" height="64"><path d="M16.658 5A12.627 12.627 0 0 0 4 17.658v30.684A12.627 12.627 0 0 0 16.658 61h30.684A12.627 12.627 0 0 0 60 48.342V17.658A12.627 12.627 0 0 0 47.342 5Z" style="opacity:.2"/><path d="M16.658 4A12.627 12.627 0 0 0 4 16.658v30.684A12.627 12.627 0 0 0 16.658 60h30.684A12.627 12.627 0 0 0 60 47.342V16.658A12.627 12.627 0 0 0 47.342 4Z" style="fill:#4f4f4f"/><path d="M12 14h36v30H12z" style="opacity:.2;fill:#ff2e88"/><path d="M14.727 15.111h-2.182c-.3 0-.545-.25-.545-.555s.245-.556.545-.556h2.182c.3 0 .545.25.545.556a.55.55 0 0 1-.545.555m6.545 0H19.09c-.3 0-.545-.25-.545-.555S18.79 14 19.09 14h2.182c.3 0 .545.25.545.556a.55.55 0 0 1-.545.555M14.727 44h-2.182c-.3 0-.545-.25-.545-.556 0-.305.245-.555.545-.555h2.182c.3 0 .545.25.545.555a.55.55 0 0 1-.545.556m6.545 0H19.09c-.3 0-.545-.25-.545-.556 0-.305.245-.555.545-.555h2.182c.3 0 .545.25.545.555a.55.55 0 0 1-.545.556m6.545-28.889h-2.182c-.3 0-.545-.25-.545-.555s.245-.556.545-.556h2.182c.3 0 .545.25.545.556a.55.55 0 0 1-.545.555m6.544 0H32.18c-.3 0-.546-.25-.546-.555S31.88 14 32.18 14h2.181c.3 0 .546.25.546.556a.55.55 0 0 1-.546.555m6.545 0h-2.181c-.3 0-.546-.25-.546-.555s.246-.556.546-.556h2.181c.3 0 .546.25.546.556a.55.55 0 0 1-.546.555m6.545 0H45.27c-.3 0-.546-.25-.546-.555S44.97 14 45.27 14h2.181c.3 0 .546.25.546.556a.55.55 0 0 1-.546.555M12.545 24c-.3 0-.545-.25-.545-.556v-2.222c0-.305.245-.555.545-.555s.546.25.546.555v2.222a.55.55 0 0 1-.546.556" style="fill:#ff2e88"/><path d="M12.545 17.333c-.3 0-.545-.25-.545-.555v-2.222c0-.306.245-.556.545-.556s.546.25.546.556v2.222a.55.55 0 0 1-.546.555m0 20c-.3 0-.545-.25-.545-.555v-2.222c0-.306.245-.556.545-.556s.546.25.546.556v2.222a.55.55 0 0 1-.546.555m0 6.667c-.3 0-.545-.25-.545-.556v-2.222c0-.305.245-.555.545-.555s.546.25.546.555v2.222a.55.55 0 0 1-.546.556m0-13.333c-.3 0-.545-.25-.545-.556V27.89c0-.306.245-.556.545-.556s.546.25.546.556v2.222a.55.55 0 0 1-.546.556M47.451 24c-.3 0-.545-.25-.545-.556v-2.222c0-.305.245-.555.545-.555s.546.25.546.555v2.222a.55.55 0 0 1-.546.556m0-6.667c-.3 0-.545-.25-.545-.555v-2.222c0-.306.245-.556.545-.556s.546.25.546.556v2.222a.55.55 0 0 1-.546.555m0 13.334c-.3 0-.545-.25-.545-.556V27.89c0-.306.245-.556.545-.556s.546.25.546.556v2.222a.55.55 0 0 1-.546.556" style="fill:#ff2e88"/><path d="M12 14h1.092v1.111H12zm34.91 0h1.092v1.111H46.91zM12 42.89h1.092v1.111H12zm34.91.552V41.22c0-.306.245-.556.545-.556s.545.25.545.556v2.222a.55.55 0 0 1-.545.555c-.3 0-.546-.25-.546-.555" style="fill:#ff2e88"/><path d="M44.698 43.442c0-.306.246-.556.546-.556h2.181c.3 0 .546.25.546.556a.55.55 0 0 1-.546.555h-2.181c-.3 0-.546-.25-.546-.555" style="fill:#ff2e88"/><path d="M42.89-48h1.111v1.092H42.89z" style="fill:#ff2e88" transform="rotate(90)"/><path d="M47.434 37.32c-.3 0-.545-.25-.545-.556v-2.222c0-.305.245-.555.545-.555s.546.25.546.555v2.222a.55.55 0 0 1-.546.556m-19.627 6.669h-2.182c-.3 0-.545-.25-.545-.556 0-.305.245-.555.545-.555h2.182c.3 0 .545.25.545.555a.55.55 0 0 1-.545.556m6.544 0H32.17c-.3 0-.546-.25-.546-.556 0-.305.246-.555.546-.555h2.181c.3 0 .546.25.546.555a.55.55 0 0 1-.546.556m6.545 0h-2.181c-.3 0-.546-.25-.546-.556 0-.305.246-.555.546-.555h2.181c.3 0 .546.25.546.555a.55.55 0 0 1-.546.556" style="fill:#ff2e88"/><path d="M17.988 8.977 17.77 14l-4.711 1.758 4.71 1.762.22 5.023 3.128-3.937 4.848 1.347-2.781-4.195 2.78-4.192-4.847 1.348zm16.098 6.812-.172 3.988-3.742 1.395 3.742 1.398.172 3.989 2.484-3.125 3.848 1.07-2.207-3.332 2.207-3.328-3.848 1.07zM24.504 25a1.23 1.23 0 0 0-.695.215l-.004.004a1 1 0 0 0-.13.105c-.02.018-.042.032-.062.051l-1.238 1.238c-.02.02-.033.042-.05.063a1 1 0 0 0-.106.129l-.004.004a1.24 1.24 0 0 0 .14 1.566l8.149 8.211.035-.035 18.094 18.094a1.245 1.245 0 0 0 1.758-.016l1.238-1.238a1.245 1.245 0 0 0 .015-1.758L25.371 25.359a1.2 1.2 0 0 0-.195-.156 1.2 1.2 0 0 0-.672-.203m-12.445.621-.133 3.125-2.934 1.094 2.934 1.098.133 3.125 1.945-2.45 3.016.836-1.727-2.61 1.727-2.605-3.016.836z" style="opacity:.2"/><path d="m30.172 20.174 3.741 1.396.172 3.99 2.485-3.127 3.847 1.07-2.206-3.33 2.206-3.328-3.847 1.07-2.485-3.127-.172 3.99zm-21.18 8.668 2.932 1.094.135 3.127 1.947-2.45 3.015.838-1.729-2.61 1.729-2.608-3.015.838-1.947-2.45-.135 3.126zm4.066-14.082 4.713 1.758.216 5.026 3.13-3.938 4.846 1.347-2.778-4.194 2.778-4.193-4.846 1.347-3.13-3.938L17.771 13zm9.319 10.853a1.245 1.245 0 0 0-.017 1.758l26.273 26.274c.482.482 1.272.47 1.759-.017l1.236-1.236c.487-.487.499-1.277.017-1.759L25.372 24.36a1.247 1.247 0 0 0-1.759.017z" style="fill:#fff"/><path d="m22.72 25.956 1.236-1.237a.75.75 0 0 1 1.072-.016l26.274 26.274a.75.75 0 0 1-.017 1.072l-1.236 1.236a.75.75 0 0 1-1.072.017L22.703 27.028a.75.75 0 0 1 .017-1.072" style="fill:#3f3f3f"/><path d="M22.362 25.632a1.235 1.235 0 0 0-.005 1.742l8.146 8.211 3.016-3.016-8.147-8.21a1.23 1.23 0 0 0-1.74.003z" style="fill:#fff"/><path d="M16.656 4A12.625 12.625 0 0 0 4 16.656v1A12.625 12.625 0 0 1 16.656 5h30.688A12.625 12.625 0 0 1 60 17.656v-1A12.625 12.625 0 0 0 47.344 4z" style="opacity:.1;fill:#fff"/></svg>