<svg xmlns="http://www.w3.org/2000/svg" width="64" height="64"><path d="M8.5 5q-.47 0-.91.084a4.6 4.6 0 0 0-1.61.633C4.785 6.47 4 7.746 4 9.199V47l5.941 8 4.559 6 4.559-6L25 47v-6.074l14.68 18.076C40.47 60.199 41.876 61 43.5 61h12c2.493 0 4.5-1.872 4.5-4.2V9.2C60 6.871 57.993 5 55.5 5h-12C41.007 5 39 6.872 39 9.2v15.78L24.31 6.766a2.2 2.2 0 0 0-.609-.512 4.4 4.4 0 0 0-.681-.537h-.002a4.7 4.7 0 0 0-1.608-.633h-.004A5 5 0 0 0 20.5 5H11Z" style="opacity:.2"/><path d="M8.5 4.7q-.402 0-.779.071a3.9 3.9 0 0 0-1.37.539C5.342 5.947 4.7 6.998 4.7 8.2v37.568l6.86 9.143 2.94 3.921 2.94-3.92 6.86-9.144v-5.844a.7.7 0 0 1 1.244-.44L40.22 57.555l.04.055c.66 1.001 1.845 1.69 3.24 1.69h12c2.142 0 3.8-1.576 3.8-3.5V8.2c0-1.924-1.658-3.5-3.8-3.5h-12c-2.142 0-3.8 1.576-3.8 3.5v15.78a.7.7 0 0 1-1.244.44L23.766 6.207a1.5 1.5 0 0 0-.45-.364.7.7 0 0 1-.129-.093 4 4 0 0 0-.533-.435l-.006-.005h-.002a4 4 0 0 0-1.365-.539h-.005a4 4 0 0 0-.777-.071H11Z" style="fill:#fabe5c"/><path d="M19.08 5.067c-.288.133-1.314-.768-1.57-.561l-1.944 1.57 41.53 51.495 1.211-.345.2-1.708.533-5.498-.63-1.973-34.1-42.28c-.662-.823-1.7-.88-2.572-1.233Z" style="fill:#faab00"/><path d="m10.117 10.47-1.944 1.566c-1.94 1.565-2.034 4.649-.208 6.913l32.006 39.41 2.59.467 7.5 1.174Z" style="fill:#ffcd6e"/><path d="m15.566 6.075-5.45 4.395L50.062 60l7.034-2.429-.868-1.076Z" style="fill:#f5b94a"/><path d="M53 4v56h2.5c2.492 0 4.5-1.873 4.5-4.2V8.2C60 5.873 57.992 4 55.5 4Z" style="fill:#faab00"/><path d="M11 4v51.332L14.5 60l3.5-4.668V4Z" style="fill:#f5b94a"/><path d="M18 4v51.332L25 46V8.2c0-1.453-.784-2.73-1.98-3.484h-.002a4.7 4.7 0 0 0-1.608-.631h-.003A5 5 0 0 0 20.499 4Z" style="fill:#faab00"/><path d="M8.5 4q-.467 0-.91.085a4.6 4.6 0 0 0-1.61.632C4.784 5.47 4 6.746 4 8.2V46l7 9.332V4Zm35 0C41.009 4 39 5.873 39 8.2v47.6c0 2.327 2.008 4.2 4.5 4.2H46V4Z" style="fill:#ffcd6e"/><path d="M46 4h7v56h-7z" style="fill:#f5b94a"/><path d="M39 15h21v6H39z" style="fill:#8d8d8d"/><path d="M43.5 4C41.009 4 39 5.873 39 8.2V15h21V8.2C60 5.873 57.992 4 55.5 4Z" style="fill:#ff7863"/><path d="m4 46 5.942 8h9.116L25 46Z" style="fill:#f8e2c8"/><path d="m9.942 54 4.558 6 4.558-6Z" style="fill:#8d6e63"/><path d="M8.5 4q-.47 0-.91.084a4.6 4.6 0 0 0-1.61.633C4.785 5.47 4 6.746 4 8.199v1c0-1.453.785-2.729 1.98-3.482a4.6 4.6 0 0 1 1.61-.633Q8.03 5 8.5 5h12q.467 0 .906.084h.004a4.7 4.7 0 0 1 1.608.633h.002c.247.156.472.34.681.537.223.131.43.29.61.512L39 24.98v-1L24.31 5.766a2.2 2.2 0 0 0-.609-.512 4.4 4.4 0 0 0-.681-.537h-.002a4.7 4.7 0 0 0-1.608-.633h-.004A5 5 0 0 0 20.5 4zm35 0C41.007 4 39 5.872 39 8.2v1C39 6.871 41.007 5 43.5 5h12C57.993 5 60 6.872 60 9.2v-1C60 5.871 57.993 4 55.5 4z" style="opacity:.2;fill:#fff"/><path d="M39 15h21v1H39z" style="opacity:.2"/><path d="M39 21h21v1H39zM4 46l.742 1h19.516L25 46z" style="opacity:.2;fill:#fff"/></svg>