<svg xmlns="http://www.w3.org/2000/svg" width="64" height="64"><path d="M12.75 5C11.226 5 10 6.249 10 7.8v50.4c0 1.551 1.227 2.8 2.75 2.8h38.5c1.523 0 2.75-1.249 2.75-2.8V7.8C54 6.249 52.773 5 51.25 5Z" style="opacity:.2"/><path d="M12.75 4C11.226 4 10 5.249 10 6.8v50.4c0 1.551 1.227 2.8 2.75 2.8h38.5c1.523 0 2.75-1.249 2.75-2.8V6.8C54 5.249 52.773 4 51.25 4Z" style="fill:#5a72e3"/><path d="M12.75 4C11.226 4 10 5.249 10 6.8v50.4c0 1.551 1.227 2.8 2.75 2.8H18V4z" style="opacity:.3"/><path d="M43 17v30h6V17Zm-20 8v22h6V25Zm10 8v14h6V33Z" style="opacity:.2"/><path d="M43 16v30h6V16Zm-20 8v22h6V24Zm10 8v14h6V32Z" style="fill:#fff"/><path d="M12.75 4C11.226 4 10 5.25 10 6.8v1C10 6.25 11.226 5 12.75 5h38.5C52.773 5 54 6.25 54 7.8v-1C54 5.25 52.773 4 51.25 4z" style="opacity:.1;fill:#fff"/></svg>