<svg xmlns="http://www.w3.org/2000/svg" xmlns:xlink="http://www.w3.org/1999/xlink" width="64" height="64"><defs><filter id="c" width="1.25" height="1.322" x="-.125" y="-.161" style="color-interpolation-filters:sRGB"><feGaussianBlur stdDeviation="2.89"/></filter><filter id="d" width="1.151" height="1.215" x="-.076" y="-.108" style="color-interpolation-filters:sRGB"><feGaussianBlur stdDeviation="1.25"/></filter><radialGradient xlink:href="#a" id="b" cx="11.235" cy="51.977" r="27" fx="11.235" fy="51.977" gradientTransform="matrix(2.356 -.73494 .4923 1.57814 -39.587 -27.157)" gradientUnits="userSpaceOnUse"/><linearGradient id="a"><stop offset="0" style="stop-color:#4bbb70;stop-opacity:1"/><stop offset="1" style="stop-color:#6cec60;stop-opacity:1"/></linearGradient></defs><path d="m27.154 12.25.035.011c-2.777.058-5.419 1.867-6.232 4.842-7.702 2.589-12.474 8.06-12.474 8.06a6.58 6.58 0 0 0-1.538 6.685s3.603 11.316 14.122 15.41a6.58 6.58 0 0 0 6.234 4.492H50.81a6.584 6.584 0 0 0 6.584-6.583V18.833a6.584 6.584 0 0 0-6.584-6.583z" style="fill:url(#b);stroke-width:.94047"/><path d="M15.007 29.172s3.883-5.932 11.47-6.545v-2.152c-8.403.714-15.764 8.244-15.764 8.244s4.205 12.606 15.765 13.76v-2.287C17.995 39.06 15.007 29.17 15.007 29.17Zm11.47 6.47v2.095c-6.41-1.209-8.273-8.26-8.273-8.26s3.161-3.607 8.274-4.192v2.298h-.008c-2.684-.342-4.863 2.31-4.863 2.31s1.258 4.465 4.873 5.75m0-15.168c.246-.02.41-.037.658-.046 9.554-.34 15.78 8.29 15.78 8.29s-7.15 9.198-14.6 9.198a9.5 9.5 0 0 1-1.838-.18v2.455c.513.068.962.11 1.517.11 5.912 0 10.427-2.724 14.64-6.275 1.215-1.025 3.23-1.186 4.602-.383 1.335.781 1.362 2.406.012 3.243-5.271 3.265-13.92 5.686-19.147 5.686-.588 0-1.07-.037-1.624-.094v.073a3.376 3.376 45 0 0 3.376 3.376h19.512a3.376 3.376 135 0 0 3.376-3.376v-22.67a3.376 3.376 45 0 0-3.376-3.376h-18.92a3.97 3.97 135 0 0-3.968 3.969m0 4.81v-2.658c.244-.015.407-.032.658-.04 6.87-.229 11.378 6.246 11.378 6.246s-4.868 7.153-10.089 7.153a5.5 5.5 0 0 1-1.947-.343v-8.06c1.697.218 2.5.8 3.272 1.921.909 1.322 2.436 1.642 3.633.573.778-.693.613-2.324-.693-3.247-1.19-.842-2.855-1.631-4.91-1.631-.478 0-.853.035-1.302.086" style="fill:#000;stroke-width:1.05079;opacity:.70683846;fill-opacity:1" transform="translate(3.603 4.06)scale(.89501)"/><path d="m26.586 9.933.04.013c-3.104.064-6.056 2.086-6.964 5.41-8.605 2.892-13.938 9.005-13.938 9.005a7.36 7.36 0 0 0-1.718 7.469s4.025 12.644 15.779 17.219a7.36 7.36 0 0 0 6.965 5.018h26.266a7.356 7.356 0 0 0 7.355-7.356V17.289a7.356 7.356 0 0 0-7.355-7.356Z" style="mix-blend-mode:normal;fill:none;stroke:#000;stroke-width:.33519097;stroke-dasharray:none;stroke-opacity:1;filter:url(#c)" transform="translate(3.36 3.36)scale(.89501)"/><path d="M15.007 29.172s3.883-5.932 11.47-6.545v-2.152c-8.403.714-15.764 8.244-15.764 8.244s4.205 12.606 15.765 13.76v-2.287C17.995 39.06 15.007 29.17 15.007 29.17Zm11.47 6.47v2.095c-6.41-1.209-8.273-8.26-8.273-8.26s3.161-3.607 8.274-4.192v2.298h-.008c-2.684-.342-4.863 2.31-4.863 2.31s1.258 4.465 4.873 5.75m0-15.168c.246-.02.41-.037.658-.046 9.554-.34 15.78 8.29 15.78 8.29s-7.15 9.198-14.6 9.198a9.5 9.5 0 0 1-1.838-.18v2.455c.513.068.962.11 1.517.11 5.912 0 10.427-2.724 14.64-6.275 1.215-1.025 3.23-1.186 4.602-.383 1.335.781 1.362 2.406.012 3.243-5.271 3.265-13.92 5.686-19.147 5.686-.588 0-1.07-.037-1.624-.094v.073a3.376 3.376 45 0 0 3.376 3.376h19.512a3.376 3.376 135 0 0 3.376-3.376v-22.67a3.376 3.376 45 0 0-3.376-3.376h-18.92a3.97 3.97 135 0 0-3.968 3.969Zm0 4.81v-2.658c.244-.015.407-.032.658-.04 6.87-.229 11.378 6.246 11.378 6.246s-4.868 7.153-10.089 7.153a5.5 5.5 0 0 1-1.947-.343v-8.06c1.697.218 2.5.8 3.272 1.921.909 1.322 2.436 1.642 3.633.573.778-.693.613-2.324-.693-3.247-1.19-.842-2.855-1.631-4.91-1.631-.478 0-.853.035-1.302.086" style="mix-blend-mode:normal;fill:none;stroke:#000;stroke-width:.33519097;stroke-dasharray:none;stroke-opacity:1;filter:url(#d)" transform="translate(3.603 4.06)scale(.89501)"/></svg>