<svg xmlns="http://www.w3.org/2000/svg" xmlns:xlink="http://www.w3.org/1999/xlink" width="64" height="64"><defs><radialGradient xlink:href="#a" id="b" cx="17.386" cy="47.039" r="22" fx="17.386" fy="47.039" gradientTransform="rotate(-45 -113.287 148.239)scale(2.8598 3.63975)" gradientUnits="userSpaceOnUse"/><linearGradient id="a"><stop offset="0" style="stop-color:#4f97ff;stop-opacity:1"/><stop offset="1" style="stop-color:#6afac0;stop-opacity:1"/></linearGradient></defs><path d="M12.75 4C11.226 4 10 5.249 10 6.8v50.4c0 1.55 1.227 2.8 2.75 2.8h38.5c1.522 0 2.75-1.25 2.75-2.8V22L36 4Z" style="fill:url(#b)"/><path d="M54 22 36 4v15.188A2.806 2.806 0 0 0 38.813 22Z" style="opacity:.457139;fill:#fff;fill-opacity:1"/><path d="M30 30v14a2 2 45 0 0 2 2 2 2 135 0 0 2-2V30a2 2 45 0 0-2-2 2 2 135 0 0-2 2m0 22a2 2 45 0 0 2 2 2 2 135 0 0 2-2 2 2 45 0 0-2-2 2 2 135 0 0-2 2" style="fill:#fff;fill-opacity:1" transform="translate(-6.204 -11.309)scale(1.19387)"/></svg>