<svg xmlns="http://www.w3.org/2000/svg" width="64" height="64"><rect width="45.855" height="45.855" x="23.034" y="-22.22" rx="8.286" style="opacity:.2" transform="rotate(45)"/><rect width="45.855" height="45.855" x="22.327" y="-22.928" rx="8.286" style="fill:#4f4f4f" transform="rotate(45)"/><path d="M32 11 18 24.9l18.4 16.9-4.4 4.4-7-6.677v8.498L32 55l14-13.9-18.4-16.9 4.4-4.4 7 6.677v-8.498Zm14 30.1 8-8.1-8-8.102ZM18 24.9 10 33l8 8.102z" style="opacity:.2"/><path d="M32 10 18 23.9l18.4 16.9-4.4 4.4-7-6.677v8.498L32 54l14-13.9-18.4-16.9 4.4-4.4 7 6.677v-8.498Zm14 30.1 8-8.1-8-8.102ZM18 23.9 10 32l8 8.102z" style="fill:#ff8000"/><path d="M24.749-20.506a8.26 8.26 0 0 0-2.423 5.864v29.284a8.26 8.26 0 0 0 2.787 6.207 8.26 8.26 0 0 1-2.08-5.5v-29.284a8.27 8.27 0 0 1 8.287-8.286h29.284a8.26 8.26 0 0 1 5.5 2.08 8.26 8.26 0 0 0-6.207-2.787H30.613a8.26 8.26 0 0 0-5.864 2.422" style="fill:#fff;opacity:.1" transform="rotate(45)"/><path d="M32 10 18 23.9l.523.48L32 11l7 6.979v-1zM18 23.9 10 32l.494.5L18 24.9zm10.121-.222-.521.521 17.877 16.42.523-.52zm17.879.22v1l7.506 7.602L54 32zM25 38.523v1l7 6.676 4.4-4.398-.521-.479L32 45.2z" style="fill:#fff;opacity:.2"/></svg>