<svg xmlns="http://www.w3.org/2000/svg" width="64" height="64"><path d="M4.05 32c-.011.335-.05.663-.05 1 0 15.512 12.488 28 28 28a27.94 27.94 0 0 0 27.998-28c0-.337-.039-.664-.05-1-.528 15.042-12.776 27-27.95 27S4.578 47.042 4.05 32" style="opacity:.2"/><path d="M59.998 32C59.998 16.488 47.511 4 32 4S4 16.489 4 32s12.488 28 28 28a27.94 27.94 0 0 0 27.998-28" style="fill:#37a0f2"/><path d="M32 4A27.94 27.94 0 0 0 4 32c0 .114.011.224.018.336C4.369 17.135 16.71 5 32 5s27.63 12.135 27.982 27.336c.007-.112.018-.223.018-.336A27.94 27.94 0 0 0 32 4" style="opacity:.1;fill:#fff"/><path d="m14 37 16 6v4l-16-6zm0-8 16 6v4l-16-6zm0-8 16 6v4l-16-6zm20 15 15.999 6v4l-16-6zm0-8 15.999 6v4l-16-6zm0-8 15.999 6v4l-16-6z" style="opacity:.2"/><path d="m14 36 16 6v4l-16-6zm0-8 16 6v4l-16-6zm0-8 16 6v4l-16-6zm20 15 15.999 6v4l-16-6zm0-8 15.999 6v4l-16-6zm0-8 15.999 6v4l-16-6z" style="fill:#fff"/></svg>