<?xml version="1.0" encoding="UTF-8" standalone="no"?>
<svg
   width="64"
   height="64"
   version="1.1"
   id="svg6"
   sodipodi:docname="obs.svg"
   inkscape:version="1.4.4 (dcaf3e7d9e, 2026-05-05)"
   xmlns:inkscape="http://www.inkscape.org/namespaces/inkscape"
   xmlns:sodipodi="http://sodipodi.sourceforge.net/DTD/sodipodi-0.dtd"
   xmlns:xlink="http://www.w3.org/1999/xlink"
   xmlns="http://www.w3.org/2000/svg"
   xmlns:svg="http://www.w3.org/2000/svg">
  <sodipodi:namedview
     id="namedview6"
     pagecolor="#ffffff"
     bordercolor="#000000"
     borderopacity="0.25"
     inkscape:showpageshadow="2"
     inkscape:pageopacity="0.0"
     inkscape:pagecheckerboard="0"
     inkscape:deskcolor="#d1d1d1"
     inkscape:zoom="2.8284271"
     inkscape:cx="60.280853"
     inkscape:cy="113.66741"
     inkscape:current-layer="svg6" />
  <defs
     id="defs3">
    <filter
       id="c"
       width="1.0173333"
       height="1.0173333"
       x="-0.0086666513"
       y="-0.0086666513"
       style="color-interpolation-filters:sRGB">
      <feGaussianBlur
         stdDeviation="0.070832952"
         id="feGaussianBlur1" />
    </filter>
    <filter
       id="d"
       width="1.0082264"
       height="1.0082225"
       x="-0.0041226858"
       y="-0.0041032843"
       style="color-interpolation-filters:sRGB">
      <feGaussianBlur
         stdDeviation="0.036521001"
         id="feGaussianBlur2" />
    </filter>
    <radialGradient
       xlink:href="#a"
       id="b"
       cx="48.918457"
       cy="59.488152"
       r="30"
       fx="48.918457"
       fy="59.488152"
       gradientTransform="matrix(0,-2.143117,2.1300249,0,-62.713973,168.84507)"
       gradientUnits="userSpaceOnUse" />
    <linearGradient
       id="a">
      <stop
         offset="0"
         style="stop-color:#2e2e2e;stop-opacity:1;"
         id="stop3" />
      <stop
         offset="1"
         style="stop-color:#555555;stop-opacity:1;"
         id="stop2" />
    </linearGradient>
    <filter
       inkscape:collect="always"
       style="color-interpolation-filters:sRGB"
       id="filter6"
       x="-0.092370283"
       y="-0.092370283"
       width="1.1847406"
       height="1.1847406">
      <feGaussianBlur
         inkscape:collect="always"
         stdDeviation="2.262794"
         id="feGaussianBlur6" />
    </filter>
    <filter
       inkscape:collect="always"
       style="color-interpolation-filters:sRGB"
       id="filter7"
       x="-0.047381209"
       y="-0.04736644"
       width="1.0947434"
       height="1.0947488">
      <feGaussianBlur
         inkscape:collect="always"
         stdDeviation="0.75426513"
         id="feGaussianBlur7" />
    </filter>
  </defs>
  <path
     d="M58.896 31.991a26.903 26.903 0 0 1-26.903 26.903A26.903 26.903 0 0 1 5.09 31.991 26.903 26.903 0 0 1 31.993 5.088a26.903 26.903 0 0 1 26.903 26.903"
     style="fill:url(#b);stroke-width:0.896769;stroke:none"
     id="path3" />
  <path
     d="m 31.993275,11.837296 c -7.928441,-0.110564 -15.574498,4.985065 -18.576892,12.313625 -3.135369,7.199321 -1.513523,16.142256 3.981776,21.758578 5.289114,5.691027 14.000464,7.767079 21.295408,5.110569 C 46.25446,48.45171 51.828947,41.024539 52.128514,33.036334 52.630531,25.270749 48.130302,17.508899 41.172279,14.042587 a 20.095645,20.095645 0 0 0 -9.179004,-2.205291 m 0,3.101751 c 7.577328,-0.13148 14.739297,5.445995 16.521758,12.801449 0.569252,1.801138 0.711939,5.426571 0.305543,6.28045 -0.507994,-2.660245 -2.092487,-5.035117 -4.241002,-6.64501 -2.786497,-2.086511 -7.524288,0.829225 -10.854637,1.624087 -2.024505,0.482594 -4.234279,0.186762 -5.966688,-1.051847 -3.434189,-2.199315 -4.340361,-7.30839 -1.88406,-10.561793 1.046617,-1.996864 3.270585,-2.363666 5.304055,-2.426418 a 15.68805,15.68805 0 0 1 0.815031,-0.02092 m -6.657709,1.354402 c -2.437625,1.77275 -3.964595,4.59884 -4.32542,7.55417 -0.42283,3.454359 4.479312,6.098169 6.831772,8.585845 1.489618,1.574035 2.348726,3.744215 2.049906,5.948012 -0.328702,4.151357 -4.567464,7.350972 -8.649345,6.618863 -2.235174,-1.331243 -3.75318,-3.832366 -4.87749,-6.175862 C 13.423853,32.365483 15.142815,24.186779 20.440147,19.4587 a 17.107445,17.107445 0 0 1 4.895419,-3.165251 m 15.78666,14.128957 c 3.518606,0.03362 6.699545,2.864189 7.24265,6.327513 -1.9625,7.119387 -8.975059,12.430912 -16.372348,12.307649 a 16.958035,16.958035 0 0 1 -8.482006,-2.277755 c 2.095476,0.37726 4.279103,0.08516 6.224421,-0.753027 3.198121,-1.378307 3.047964,-6.932624 4.022864,-10.216656 0.606605,-2.043928 2.017035,-3.848054 4.028094,-4.707162 a 7.575087,7.575087 0 0 1 3.336325,-0.680562"
     style="fill:#ffffff;stroke-width:1.55089"
     id="path4" />
  <path
     d="m 31.993275,11.837296 c -7.928442,-0.110564 -15.574498,4.985064 -18.576892,12.313625 -3.135369,7.199321 -1.513524,16.142256 3.981776,21.758578 5.289114,5.691027 14.000464,7.767079 21.295407,5.110569 C 46.25446,48.45171 51.828947,41.024539 52.128514,33.036333 52.630531,25.270749 48.130302,17.508899 41.172278,14.042587 a 20.095645,20.095645 0 0 0 -9.179003,-2.205291 m 0,3.101751 c 7.577328,-0.131481 14.739297,5.445995 16.521758,12.801449 0.569252,1.801138 0.711938,5.426571 0.305543,6.280449 -0.507994,-2.660245 -2.092487,-5.035117 -4.241003,-6.645009 -2.786496,-2.086511 -7.524287,0.829225 -10.854636,1.624086 -2.024506,0.482595 -4.23428,0.186763 -5.966688,-1.051846 -3.434189,-2.199315 -4.340361,-7.30839 -1.884061,-10.561793 1.046617,-1.996865 3.270585,-2.363666 5.304055,-2.426418 a 15.68805,15.68805 0 0 1 0.815032,-0.02092 m -6.65771,1.354402 c -2.437624,1.77275 -3.964594,4.59884 -4.325419,7.554169 -0.42283,3.45436 4.479312,6.09817 6.831772,8.585846 1.489618,1.574034 2.348725,3.744215 2.049905,5.948012 -0.328702,4.151357 -4.567463,7.350972 -8.649345,6.618863 -2.235173,-1.331243 -3.753179,-3.832366 -4.877489,-6.175862 -2.941136,-6.458994 -1.222174,-14.637698 4.075158,-19.365777 a 17.107445,17.107445 0 0 1 4.895418,-3.165251 m 15.786661,14.128956 c 3.518605,0.03362 6.699544,2.86419 7.24265,6.327514 -1.962501,7.119388 -8.975059,12.430914 -16.372348,12.307651 a 16.958035,16.958035 0 0 1 -8.482006,-2.277756 c 2.095475,0.377261 4.279103,0.08516 6.224421,-0.753026 3.198121,-1.378307 3.047964,-6.932624 4.022864,-10.216656 0.606605,-2.043929 2.017035,-3.848054 4.028094,-4.707162 a 7.575087,7.575087 0 0 1 3.336325,-0.680563"
     style="fill:none;stroke-width:0.2;stroke:#000000;stroke-opacity:1;stroke-dasharray:none;filter:url(#filter7)"
     id="path4-6" />
  <path
     d="M61.93 31.913a30 30 0 0 1-30 30 30 30 0 0 1-30-30 30 30 0 0 1 30-30 30 30 0 0 1 30 30"
     style="mix-blend-mode:normal;fill:none;fill-opacity:1;stroke:#000000;stroke-width:0.22302263;stroke-linecap:round;stroke-linejoin:round;stroke-dasharray:none;stroke-opacity:1;paint-order:normal;opacity:1;filter:url(#filter6)"
     transform="translate(3.296 3.294)scale(.89677)"
     id="path5" />
</svg>
