<svg xmlns="http://www.w3.org/2000/svg" width="64" height="64"><defs><radialGradient id="d" cx="0" cy="0" r="1" gradientTransform="matrix(-10.10781 -17.16222 19.68917 -11.68716 40.347 58.954)" gradientUnits="userSpaceOnUse"><stop offset="0" stop-color="#fff" stop-opacity=".3"/><stop offset="1" stop-opacity=".3" style="stop-color:#410094;stop-opacity:.30000001"/></radialGradient><radialGradient id="c" cx="0" cy="0" r="1" gradientTransform="matrix(7.26499 -33.58741 22.95315 4.94862 23.511 37.349)" gradientUnits="userSpaceOnUse"><stop offset="0" stop-color="#fff" stop-opacity=".8" style="stop-color:#fff;stop-opacity:.21404234"/><stop offset="1" stop-color="#fff" stop-opacity=".4" style="stop-color:#fff;stop-opacity:0"/></radialGradient><radialGradient id="b" cx="0" cy="0" r="1" gradientTransform="matrix(5.26448 -39.9048 29.48112 3.89572 42.948 44.424)" gradientUnits="userSpaceOnUse"><stop offset="0" stop-color="#fff" stop-opacity=".6"/><stop offset="1" stop-color="#fff" stop-opacity=".1"/></radialGradient><radialGradient id="a" cx="0" cy="0" r="1" gradientTransform="matrix(-6.2121 -23.69018 15.79345 -4.1063 22.037 54.511)" gradientUnits="userSpaceOnUse"><stop offset="0" stop-color="#fff" stop-opacity=".4"/><stop offset="1" stop-opacity=".1"/></radialGradient><filter id="e" width="1.219" height="1.17" x="-.11" y="-.085" style="color-interpolation-filters:sRGB"><feGaussianBlur stdDeviation="1.94"/></filter></defs><path d="M33.723 5.047a4 4 0 0 0-.446.006c-.053.004-.103.019-.156.025a3.6 3.6 0 0 0-1.14.338q-.083.042-.165.088-.192.107-.37.236-.054.04-.104.08c-.062.049-.13.088-.188.14l-10.4 9.366-.697.627a3.6 3.6 0 0 0-.463.51l-.01.014a4 4 0 0 0-.252.386q-.053.098-.1.198a3.5 3.5 0 0 0-.193.482l-.031.094.021-.06-.033.116-.002.006q-.039.15-.066.301c-.005.027-.014.053-.018.08l-.062.426-1.221 8.101c-.06.346-.112.637-.15.795.01-.04.028-.074.039-.115a5 5 0 0 1-.227.67L11.83 40.129l-.406.894c-.013.03-.021.06-.033.088q-.074.174-.127.352l-.008.027a3.58 3.58 0 0 0 .863 3.514l9.381 9.654a3.6 3.6 0 0 0 1.012.737v-.01a3.8 3.8 0 0 0 1.314.347s2.542.209 5.586.428c.954.082 1.934.25 2.926.467h.004c2.637.588 5.615 1.576 7.826 2.19v.011c2.39.653 4.8-1.265 5.127-3.728a19.7 19.7 0 0 1 2.043-6.727c.19-.326.38-.653.59-.969a162 162 0 0 0 4.717-7.433 1.79 1.79 0 0 0-.137-2.022c-1.158-1.537-3.37-4.655-4.58-7.53-1.243-2.968-1.421-7.58-1.432-9.812a3.82 3.82 0 0 0-.8-2.357l-9.32-11.836a4 4 0 0 0-.152-.172l-.006-.017c-.03-.033-.062-.061-.092-.092q-.044-.047-.092-.092a4 4 0 0 0-.219-.19l-.097-.08a3.6 3.6 0 0 0-1.336-.626q-.007-.002-.016-.002a3.6 3.6 0 0 0-.644-.096m.853 11.223c-.253.484-.515.979-.758 1.484.243-.505.505-1 .758-1.484m-1.144 2.273q-.094.204-.182.41.089-.206.182-.41m-.264.603-.045.106zm-.162.407q-.09.222-.172.447l.047-.13q.061-.16.125-.317m-.936 3.244q-.059.302-.107.605c.03-.202.07-.404.107-.605m-.146.904c-.026.187-.053.375-.072.563q.032-.282.072-.563m-.162 2.51q.002.13.008.262.003.134.01.27c.004.13.005.258.013.392l.006.119q-.03-.496-.037-.969c0 .061.006.126.008.188-.002-.074-.007-.152-.008-.225zm.037.978q.013.211.031.426-.018-.215-.031-.426m.008.198c.008.12.022.245.033.367.008.1.013.196.023.299l.018.146c.008.08.012.156.021.237.013.112.034.231.05.345.146 1.13.381 2.346.732 3.67a28 28 0 0 1-.782-4.015q-.021-.194-.039-.383a22 22 0 0 1-.056-.666m.082.877q.024.22.054.445-.03-.226-.054-.445m.828 4.312q.155.584.342 1.194.261.858.586 1.773.322.915.71 1.89l.249.032-.112-.012-.137-.02q-.388-.975-.71-1.89a43 43 0 0 1-.586-1.773 37 37 0 0 1-.342-1.194m-7.826 3.131c.35.844.624 1.717.82 2.61-.018-.084-.047-.165-.066-.249a15.5 15.5 0 0 0-.754-2.361m10.506 1.877q.137.022.275.047c-.037-.007-.075-.01-.111-.018zm.828.17.173.043q-.086-.023-.173-.043m.554.144c.062.018.124.031.186.05q.039.011.078.027zm-11.066.422q.116.532.2 1.092-.054-.345-.122-.68l-.014-.064-.002-.008c-.021-.112-.038-.23-.062-.34m.21 1.18q.07.477.114.975l-.008-.07a18 18 0 0 0-.105-.905M41.8 40.598q.16.137.318.28-.158-.143-.318-.28m.707.644c.07.067.141.128.21.197q.062.062.122.125l-.018-.015q-.157-.157-.314-.307m.994 1.033q.133.153.266.313c-.089-.105-.177-.212-.266-.313m.738.895q.157.203.313.416-.155-.211-.313-.416m.743 1.017q.14.203.279.413l-.043-.065-.002-.002-.004-.006zm.808 1.258.186.307c-.049-.083-.098-.16-.147-.242zm.115.198c.043.072.087.139.13.212.046.081.09.168.136.25q-.132-.234-.266-.462m.59 1.046c.056.106.114.205.17.313-.056-.108-.113-.207-.17-.313m.06.118.14.257.038.079q-.088-.171-.177-.336m-21.189 1.015q-.06.237-.127.477c.043-.16.088-.32.127-.477m-.652 2.242a36 36 0 0 1-.477 1.356l.065-.18q.134-.365.258-.722.079-.228.154-.454m-.924 2.49q-.06.149-.123.298zm-.273.645c-.133.31-.266.618-.41.934l.04-.088.03-.068c.119-.263.229-.52.34-.778m5.955 2.965" style="fill:#6c31e3;stroke-width:.10529"/><path d="M33.723 5.047a3.58 3.58 0 0 0-2.568.914l-10.4 9.365 10.4-9.353a3.59 3.59 0 0 1 3.228-.828 3.6 3.6 0 0 0-.66-.098m1.996.725.098.08q-.048-.041-.098-.08m.316.27q.047.045.092.091zm.547 5.161q-.063.356-.152.707l-.022.08.022-.068q.09-.357.152-.719m-.906 2.82c-.331.747-.711 1.486-1.1 2.247q.618-1.09 1.1-2.246m-1.1 2.247c-.252.484-.515.979-.757 1.484-.5.952-.91 1.944-1.23 2.963a18 18 0 0 1 1.23-2.951zm-14.697-.127c-.084.086-.172.17-.246.263.074-.094.163-.176.246-.263m-.246.263a3.55 3.55 0 0 0-.723 1.674l-.062.426.062-.414a3.6 3.6 0 0 1 .723-1.686m12.143 8.834c-.057 1.309.026 2.756.295 4.383-.268-1.629-.349-3.077-.295-4.383m-14.149 1.368c-.06.345-.112.636-.15.795.011-.04.028-.075.039-.116q-.003 0-.006-.004l.053-.242zm16.729 10.826v.008a14.5 14.5 0 0 1 2.61.505 14.5 14.5 0 0 0-2.61-.513m-8.711.635c.103.437.197.883.267 1.35a17 17 0 0 0-.199-1.102h-.002c-.018-.084-.047-.165-.066-.248m-13.783 1.99-.438.965a3.6 3.6 0 0 0-.27.935 3.6 3.6 0 0 1 .27-.926zm30.06.638c1.971 1.713 3.794 4.19 5.414 7.67-1.614-3.485-3.439-5.96-5.414-7.67m3.506 13.467-.04.254c.015-.085.025-.167.04-.254M29.4 56.158c.958.082 1.944.251 2.941.47-1.03-.23-2.013-.405-2.871-.464z" style="fill:#6c31e3;stroke-width:.10529"/><path d="M17.516 27.287a5 5 0 0 1-.227.67l-5.865 13.076a3.58 3.58 0 0 0 .695 3.971l9.381 9.654a3.6 3.6 0 0 0 1.012.737v-.01q.312-.634.594-1.252l.04-.088.03-.068q.249-.549.475-1.084l.168-.408q.152-.373.293-.739l.125-.326.064-.18q.134-.365.258-.722.08-.228.154-.453a33 33 0 0 0 .27-.854q.081-.274.156-.545l.092-.336q.072-.263.138-.523.025-.105.05-.211a28 28 0 0 0 .24-1.092l.01-.047.042-.232q.083-.445.149-.88l.045-.308q.071-.526.117-1.035l.01-.088v-.01q.024-.283.04-.562l.004-.098a20 20 0 0 0 .026-1.668v-.002a19 19 0 0 0-.06-1.043l-.005-.054-.007-.073q-.044-.469-.108-.92l-.008-.054-.002-.012c-.07-.466-.164-.912-.267-1.35a15.5 15.5 0 0 0-.754-2.36c-1.694-4.167-4.87-6.789-7.375-8.42z" style="fill:url(#a);stroke-width:.10529"/><path d="M36.225 6.242a10.1 10.1 0 0 1 .508 2.811v.012q.013.353.002.707v.011q-.014.353-.051.706-.075.723-.254 1.433l-.022.068a13 13 0 0 1-.732 2.034q-.482 1.155-1.1 2.246l-.757 1.496a18 18 0 0 0-2.043 7.465v.01c-.095 2.321.236 5.093 1.283 8.529a47 47 0 0 0 1.297 3.664c.884.095 1.757.26 2.61.514.04.012.08.028.12.04.246.076.492.154.735.245a13 13 0 0 1 2.609 1.332l.004.002q.317.209.63.441l.003.002c2.307 1.711 4.426 4.376 6.271 8.363.19-.326.38-.652.59-.968a162 162 0 0 0 4.717-7.434 1.79 1.79 0 0 0-.137-2.021c-1.158-1.538-3.37-4.655-4.58-7.53-1.242-2.969-1.421-7.58-1.432-9.812a3.82 3.82 0 0 0-.8-2.358L36.377 6.414a4 4 0 0 0-.152-.172" style="fill:url(#b);stroke-width:.10529"/><path d="M33.385 5.053a3.6 3.6 0 0 0-2.23.92l-11.098 9.98a3.6 3.6 0 0 0-1.147 2.139l-1.347 8.95-.053.241c2.506 1.632 5.686 4.255 7.38 8.424.35.844.625 1.717.821 2.61h.002l-.002-.01c2.357-.575 4.695-.972 6.963-.96q.848.007 1.682.095v-.008c-2.075-5.202-2.717-9.097-2.58-12.203.13-2.611.827-5.163 2.043-7.477.242-.505.505-1 .757-1.484.748-1.464 1.475-2.843 1.854-4.36.475-1.876.402-3.85-.211-5.685a3.59 3.59 0 0 0-2.834-1.172" style="fill:url(#c);stroke-width:.10529"/><path d="M32.674 37.348c-2.268-.013-4.606.384-6.963.959.937 4.254.38 9.824-3.2 17.078a3.8 3.8 0 0 0 1.315.348s2.57.21 5.645.431c3.053.21 7.623 1.8 10.697 2.653v.011c2.39.653 4.8-1.264 5.127-3.728a19.7 19.7 0 0 1 2.043-6.727c-2.695-5.79-5.948-8.803-9.517-10.14-1.659-.618-3.383-.875-5.147-.885" style="fill:url(#d);stroke-width:.10529"/><path d="m33.367 4.703-.28.014-.019.11c-.783.103-1.553.349-2.148.886l-11.098 9.98a3.94 3.94 0 0 0-1.258 2.348l-1.304 8.662-.352-.23.24.81a4 4 0 0 1-.181.535l-5.862 13.07a3.93 3.93 0 0 0 .764 4.36h-.002l9.381 9.652q.357.372.797.64l-.008.015.211.095.11.059.503.246v-.064c.301.098.613.169.942.191.005 0 2.57.21 5.642.432h.002c2.887.199 7.282 1.695 10.371 2.566v.016l.258.07c2.616.714 5.214-1.357 5.567-4.02v-.005a19.3 19.3 0 0 1 2-6.594c.188-.325.374-.645.576-.947v-.002q2.464-3.66 4.726-7.448v-.002a2.14 2.14 0 0 0-.162-2.416c-1.15-1.528-3.347-4.632-4.533-7.447-1.197-2.86-1.394-7.461-1.404-9.678a4.17 4.17 0 0 0-.875-2.572L36.648 6.193l-.002-.004q-.053-.062-.11-.125l-.009-.021-.048-.053a3.94 3.94 0 0 0-3.112-1.287m.035.7q.16-.009.32 0a3.23 3.23 0 0 1 2.182 1.03 9.75 9.75 0 0 1 .186 5.391v.002c-.193.772-.486 1.515-.826 2.26l-.002.004c-.304.664-.646 1.329-.998 2.02-.25.478-.512.973-.756 1.482v.002l-.006.01a18.35 18.35 0 0 0-2.076 7.609v.002q-.042.95.025 2.008l.006.1c.007.103.017.212.025.318v.021c.01.114.017.225.028.342.018.192.042.384.064.57a26 26 0 0 0 .276 1.787 31 31 0 0 0 .463 2.037c.124.477.256.965.412 1.473.304.998.681 2.061 1.11 3.172a18 18 0 0 0-1.903-.033q-.195.006-.391.017l-.307.018a26 26 0 0 0-2.619.305l-.031.005q-.49.082-.98.178l-.198.035-.146.034q-.65.132-1.301.287a15 15 0 0 0-.207-.784l-.008-.027-.105-.342-.004-.007-.002-.006a16 16 0 0 0-1.53-3.363l-.003-.012-.004-.004-.002-.004a16 16 0 0 0-.778-1.164l.038.049c-.047-.065-.092-.134-.14-.198l-.001-.002-.002-.002-.164-.21q.073.095.144.193-.151-.205-.308-.4.083.102.164.206-.147-.194-.297-.382l-.002-.002-.002-.004-.002-.002-.002-.002-.002-.002q-.477-.587-.98-1.113l-.002-.004h-.002q-.5-.522-1.012-.987l-.002-.002c-.017-.015-.039-.034-.006-.003v-.002q-.05-.045-.023-.018a22 22 0 0 0-1.053-.893q-.493-.39-.974-.734l-.002-.002c-.01-.007-.005-.002-.004-.002l-.002-.002c-.265-.189-.521-.36-.776-.529l.004-.023 1.35-8.961a3.24 3.24 0 0 1 1.035-1.93l11.098-9.98a3.24 3.24 0 0 1 2.013-.83m-9.691 27.335-.033-.052-.002-.004-.006-.008-.004-.006v-.002c-.07-.104-.143-.201-.215-.303q.131.185.26.375M36.94 7.701l8.479 10.766a3.47 3.47 0 0 1 .726 2.14v.002c.011 2.249.172 6.869 1.46 9.946v.002c1.234 2.931 3.456 6.055 4.623 7.603l.001.004.004.002c.37.468.414 1.113.11 1.627a161 161 0 0 1-4.707 7.416v.002c-.096.144-.176.289-.264.434a27.4 27.4 0 0 0-2.105-3.646l-.004-.005c-.065-.094-.128-.193-.194-.285l-.136-.191-.057-.08a21 21 0 0 0-.436-.575l-.07-.086q-.045-.056-.092-.111l-.011-.016-.112-.134c-.126-.154-.255-.315-.392-.471-.083-.094-.162-.175-.233-.252l-.261-.281-.147-.155a17 17 0 0 0-.34-.337h-.002l-.064-.061a16 16 0 0 0-.348-.322l-.014-.014-.03-.03-.003-.001q-.142-.129-.293-.258v.002a15 15 0 0 0-.62-.5l-.13-.104-.002-.002-.002-.001-.002-.002a14 14 0 0 0-.623-.436 13.3 13.3 0 0 0-2.707-1.387 14 14 0 0 0-.923-.302l.08.021-.036-.012q-.056-.016-.113-.029-.36-.104-.724-.187l-.04-.008-.064-.016q-.749-.165-1.51-.256-.36-.912-.666-1.773c.202.573.418 1.164.658 1.773-2-5.072-2.613-8.862-2.48-11.869a17.6 17.6 0 0 1 .771-4.328 18 18 0 0 1 .524-1.469q.317-.775.709-1.521v-.002l.642-1.268c-.215.413-.435.826-.636 1.246.238-.496.498-.986.752-1.472v-.002h.002l.027-.055.012-.023a21 21 0 0 0 .904-1.829c.343-.736.647-1.483.865-2.27l.012-.042q.019-.06.035-.12l.004-.013.018-.057.002-.005.002-.008q.092-.372.158-.744v-.002c.21-1.18.21-2.383.013-3.56m10.114 39.303h.002c-.106-.207-.213-.404-.319-.6q.16.295.317.6M17.699 27.836c1.458.983 3.086 2.282 4.498 4.021.461.568.898 1.183 1.297 1.846q.028.045.055.094l.062.107c.353.605.676 1.246.955 1.934v.004q.515 1.24.803 2.549c-.017-.08-.044-.157-.062-.237q.075.314.138.635c-.022-.113-.04-.229-.064-.34.238 1.105.372 2.304.377 3.602a20 20 0 0 1-.069 1.744q-.011.136-.025.273a24 24 0 0 1-.457 2.891l-.002.008q-.081.374-.176.756c-.04.163-.086.33-.13.496l-.006.021-.096.346c-.05.175-.097.35-.15.527q-.187.621-.409 1.264a36 36 0 0 1-.76 2.014l-.142.347a45 45 0 0 1-.967 2.13c-.215-.138-.44-.265-.617-.45v-.004l-9.383-9.654a3.23 3.23 0 0 1-.627-3.582l5.867-13.08.002-.002c.037-.085.057-.174.088-.26m2.33.886.155.132-.155-.131m12.393.842c.036.222.072.44.115.665v.001c.036.19.079.39.121.59q-.137-.645-.236-1.256m-10.885.532.145.148q-.073-.076-.145-.148m11.154.875q.077.353.164.716l.125.506a32 32 0 0 1-.289-1.222m.404 1.635c.09.325.174.644.276.982a32 32 0 0 1-.275-.983m-8.12 4.356.091.298zm7.697.735a17 17 0 0 1 1.97.125l-.08-.008q.129.017.256.036c.98.134 1.941.361 2.88.71 1.556.584 3.054 1.502 4.474 2.848l.004.004c1.719 1.632 3.323 3.895 4.777 6.984a20 20 0 0 0-2.006 6.663c-.3 2.245-2.493 3.984-4.64 3.431l-.045-.011c-3.052-.847-7.616-2.447-10.766-2.665h-.002c-3.07-.22-5.639-.431-5.639-.431h-.005c-.294-.02-.567-.124-.844-.223.142-.295.285-.591.418-.88l.04-.09q.026-.056.03-.069c.1-.22.189-.43.28-.639v-.002c.062-.144.133-.295.199-.45l.006-.016v-.002l.148-.358.016-.037q.153-.376.294-.746l.03-.072.097-.256.065-.182q.135-.369.26-.73.079-.227.156-.457a39 39 0 0 0 .24-.758h.002l.031-.105c.056-.184.105-.363.155-.54v-.001c-.008.026-.003.015.004-.01v-.002l.091-.338q.072-.26.141-.53l.049-.212a29 29 0 0 0 .244-1.106v-.004l.01-.043v-.002l.043-.234v-.006q.083-.446.15-.885v-.002l.024-.167v-.002l.023-.143v-.008q.072-.529.12-1.043 0-.013.005-.058v-.004l.002-.004v-.018l.002-.004v-.012l.004-.038a22 22 0 0 0 .037-.532l.004-.1a21 21 0 0 0 .025-1.687v-.012a19 19 0 0 0-.06-1.062V40.5q.006.079 0-.006v-.004l-.004-.045-.008-.072-.002-.002a18 18 0 0 0-.107-.912v-.002q.005.036-.002-.023v-.002l-.008-.055-.002-.012-.002-.006v-.005l-.002-.008-.002-.008-.002-.004q-.053-.34-.117-.668h.015l-.015-.068c1.925-.455 3.83-.805 5.681-.883l.104-.004q.379-.015.754-.014M25.7 40.654q.016.184.028.37-.013-.187-.028-.37m.405 5.215c-.021.124-.05.252-.073.377.023-.125.052-.253.073-.377" style="opacity:1;filter:url(#e)"/></svg>