<svg xmlns="http://www.w3.org/2000/svg" xmlns:xlink="http://www.w3.org/1999/xlink" width="64" height="64"><defs><filter id="d" width="1.173" height="1.136" x="-.087" y="-.068" style="color-interpolation-filters:sRGB"><feGaussianBlur stdDeviation="1.524"/></filter><filter id="c" width="1.137" height="1.102" x="-.068" y="-.051" style="color-interpolation-filters:sRGB"><feGaussianBlur stdDeviation=".982"/></filter><radialGradient xlink:href="#a" id="b" cx="8.916" cy="52.562" r="21.985" fx="8.916" fy="52.562" gradientTransform="rotate(-45 -188.804 176.664)scale(3.40941 4.3496)" gradientUnits="userSpaceOnUse"/><linearGradient id="a"><stop offset=".002" style="stop-color:#ff423b;stop-opacity:1"/><stop offset=".999" style="stop-color:#f16232;stop-opacity:1"/></linearGradient></defs><rect width="43.97" height="56.095" x="10.015" y="3.952" rx="6.478" ry="6.478" style="fill:url(#b);fill-opacity:1;stroke:none;stroke-width:8.3;stroke-linejoin:bevel;stroke-opacity:1;paint-order:stroke fill markers"/><path d="M17.8 8a3.8 3.8 0 0 0-3.8 3.8v40.4a3.8 3.8 0 0 0 3.8 3.8h28.4a3.8 3.8 0 0 0 3.8-3.8V11.235A3.237 3.237 0 0 0 46.762 8zm.954 2.701h8.55c1.185 0 2.137.955 2.137 2.139v8.549a2.133 2.133 0 0 1-2.136 2.138h-8.551a2.135 2.135 0 0 1-2.139-2.138v-8.55c0-1.183.955-2.138 2.139-2.138m15.629 0h11.863c.624-.02 1.147.47 1.168 1.094 0 .646-.522 1.17-1.168 1.17H34.383a1.13 1.13 0 0 1-1.168-1.096c0-.645.523-1.167 1.168-1.168m0 5.281h11.863a1.133 1.133 0 0 1 1.168 1.096c0 .645-.523 1.168-1.168 1.168H34.383a1.13 1.13 0 0 1-1.168-1.096c0-.645.523-1.167 1.168-1.168m0 5.282h11.863c.625-.02 1.148.47 1.168 1.095 0 .645-.523 1.168-1.168 1.168H34.383a1.13 1.13 0 0 1-1.168-1.093c0-.646.522-1.17 1.168-1.17M32 26.818a13.24 13.24 0 0 1 13.24 13.239A13.24 13.24 0 0 1 32 53.297a13.24 13.24 0 0 1-13.24-13.24A13.24 13.24 0 0 1 32 26.818m0 1.946a11.3 11.3 0 0 0-5.975 1.72c-.756.473-.94 1.58-.494 2.354l3.018 5.226 5.277-9.138A11.3 11.3 0 0 0 32 28.764m4.676 1.164a1.87 1.87 0 0 0-1.658.916L32 36.072h10.56c-.951-2.549-2.864-4.7-5.257-5.974a1.5 1.5 0 0 0-.627-.17m-13.408 2.978c-1.734 2.092-2.65 4.831-2.557 7.541.03.892.898 1.606 1.791 1.606h6.047zm12.183 5.158 5.281 9.145c1.734-2.092 2.65-4.83 2.557-7.541-.03-.891-.898-1.604-1.791-1.604zm0 3.989-5.277 9.138c2.676.477 5.504-.124 7.803-1.56.756-.473.938-1.579.492-2.352zM21.44 44.045c.95 2.545 2.866 4.698 5.258 5.973.787.419 1.84.027 2.285-.747L32 44.045z" style="fill:#f5f5f5"/><path d="M17.8 8a3.8 3.8 0 0 0-3.8 3.8v40.4a3.8 3.8 0 0 0 3.8 3.8h28.4a3.8 3.8 0 0 0 3.8-3.8V11.235A3.237 3.237 0 0 0 46.762 8Zm.954 2.701h8.55c1.185 0 2.137.955 2.137 2.139v8.549a2.133 2.133 0 0 1-2.136 2.138h-8.551a2.135 2.135 0 0 1-2.139-2.138v-8.55c0-1.183.955-2.138 2.139-2.138zm15.629 0h11.863c.624-.02 1.147.47 1.168 1.094 0 .646-.522 1.17-1.168 1.17H34.383a1.13 1.13 0 0 1-1.168-1.096c0-.645.523-1.167 1.168-1.168zm0 5.281h11.863a1.133 1.133 0 0 1 1.168 1.096c0 .645-.523 1.168-1.168 1.168H34.383a1.13 1.13 0 0 1-1.168-1.096c0-.645.523-1.167 1.168-1.168zm0 5.282h11.863c.625-.02 1.148.47 1.168 1.095 0 .645-.523 1.168-1.168 1.168H34.383a1.13 1.13 0 0 1-1.168-1.093c0-.646.522-1.17 1.168-1.17zM32 26.818a13.24 13.24 0 0 1 13.24 13.239A13.24 13.24 0 0 1 32 53.297a13.24 13.24 0 0 1-13.24-13.24A13.24 13.24 0 0 1 32 26.818Zm0 1.946a11.3 11.3 0 0 0-5.975 1.72c-.756.473-.94 1.58-.494 2.354l3.018 5.226 5.277-9.138A11.3 11.3 0 0 0 32 28.764Zm4.676 1.164a1.87 1.87 0 0 0-1.658.916L32 36.072h10.56c-.951-2.549-2.864-4.7-5.257-5.974a1.5 1.5 0 0 0-.627-.17Zm-13.408 2.978c-1.734 2.092-2.65 4.831-2.557 7.541.03.892.898 1.606 1.791 1.606h6.047zm12.183 5.158 5.281 9.145c1.734-2.092 2.65-4.83 2.557-7.541-.03-.891-.898-1.604-1.791-1.604zm0 3.989-5.277 9.138c2.676.477 5.504-.124 7.803-1.56.756-.473.938-1.579.492-2.352zM21.44 44.045c.95 2.545 2.866 4.698 5.258 5.973.787.419 1.84.027 2.285-.747L32 44.045Z" style="fill:none;stroke:red;stroke-opacity:1;stroke-width:.2;stroke-dasharray:none;filter:url(#c)"/><rect width="43.97" height="56.095" x="10.015" y="3.952" rx="6.478" ry="6.478" style="fill:none;fill-opacity:1;stroke:#000;stroke-width:.3;stroke-linejoin:bevel;stroke-dasharray:none;stroke-opacity:1;paint-order:stroke fill markers;filter:url(#d)"/></svg>