<svg xmlns="http://www.w3.org/2000/svg" width="64" height="64"><path d="M32 5A28 28 0 0 0 4 33a28 28 0 0 0 28 28 28 28 0 0 0 28-28A28 28 0 0 0 32 5" style="opacity:.2"/><path d="M32 4A28 28 0 0 0 4 32a28 28 0 0 0 28 28 28 28 0 0 0 28-28A28 28 0 0 0 32 4" style="fill:#144379"/><path d="M32 13a20 20 0 0 0-13.025 4.854l5.46 5.46A4 4 0 0 1 26 23h12c.556 0 1.084.111 1.564.314l5.471-5.47A20 20 0 0 0 32 13m-15.156 6.965A20 20 0 0 0 12 33a20 20 0 0 0 4.854 13.025L22 40.88V27c0-.556.111-1.084.314-1.564zm30.302.01-5.46 5.46c.203.48.314 1.01.314 1.565v12c0 .556-.111 1.084-.314 1.564l5.47 5.471A20 20 0 0 0 52 33a20 20 0 0 0-4.854-13.025m-7.582 22.71A4 4 0 0 1 38 43h-9l-7 7v-4.879l-3.035 3.035A20 20 0 0 0 32 53a20 20 0 0 0 13.025-4.854z" style="opacity:.2"/><path d="M32 12a20 20 0 0 0-13.025 4.854l5.46 5.46A4 4 0 0 1 26 22h12c.556 0 1.084.111 1.564.314l5.471-5.47A20 20 0 0 0 32 12" style="fill:#00cea5"/><path d="M16.844 18.965A20 20 0 0 0 12 32a20 20 0 0 0 4.854 13.025L22 39.88V26c0-.556.111-1.084.314-1.564z" style="fill:#d152ac"/><path d="m47.146 18.975-5.46 5.46c.203.48.314 1.01.314 1.565v12c0 .556-.111 1.084-.314 1.564l5.47 5.471A20 20 0 0 0 52 32a20 20 0 0 0-4.854-13.025" style="fill:#d75950"/><path d="M39.564 41.686A4 4 0 0 1 38 42h-9l-7 7v-4.879l-3.035 3.035A20 20 0 0 0 32 52a20 20 0 0 0 13.025-4.854z" style="fill:#e88a19"/><path d="M32 4A28 28 0 0 0 4 32l.021.414A28 28 0 0 1 32 5a28 28 0 0 1 27.979 27.586A28 28 0 0 0 60 32 28 28 0 0 0 32 4" style="fill:#fff;opacity:.1"/><path d="M32 12a20 20 0 0 0-13.025 4.854l.558.558A20 20 0 0 1 32 13a20 20 0 0 1 12.475 4.404l.56-.56A20 20 0 0 0 32 12m-15.156 6.965A20 20 0 0 0 12 32c0 .167.019.333.023.5a20 20 0 0 1 4.82-12.535L22.08 25.2q.08-.4.234-.765zm30.302.01-5.46 5.46q.154.367.234.766l5.226-5.226a20 20 0 0 1 4.83 12.525c.005-.167.024-.332.024-.5a20 20 0 0 0-4.854-13.025M42 38c0 .556-.111 1.084-.314 1.564l.234.235A4 4 0 0 0 42 39zm-2.436 3.686A4 4 0 0 1 38 42h-9l-7 7v.307c.148.085.303.158.453.24L29 43h9c.556 0 1.084-.111 1.564-.314l4.903 4.902c.185-.149.378-.286.558-.442zM22 44.12l-3.035 3.035c.18.156.375.291.56.44L22 45.12z" style="fill:#fff;opacity:.2"/></svg>