<svg xmlns="http://www.w3.org/2000/svg" width="64" height="64"><rect width="56" height="56" x="4" y="5" rx="28" ry="28" style="opacity:.2"/><rect width="56" height="56" x="4" y="4" rx="28" ry="28" style="fill:#e1569c"/><path d="M31.479 18.978A1.5 1.5 0 0 0 30 20.5v25a1.5 1.5 0 1 0 3 0v-25a1.5 1.5 0 0 0-1.521-1.522m-12 1A1.5 1.5 0 0 0 18 21.5v23a1.5 1.5 0 1 0 3 0v-23a1.5 1.5 0 0 0-1.521-1.522m6 3A1.5 1.5 0 0 0 24 24.5v17a1.5 1.5 0 1 0 3 0v-17a1.5 1.5 0 0 0-1.521-1.522m24 0A1.5 1.5 0 0 0 48 24.5v17a1.5 1.5 0 1 0 3 0v-17a1.5 1.5 0 0 0-1.521-1.522m-12 2A1.5 1.5 0 0 0 36 26.5v13a1.5 1.5 0 1 0 3 0v-13a1.5 1.5 0 0 0-1.521-1.522m-24 2A1.5 1.5 0 0 0 12 28.5v9a1.5 1.5 0 1 0 3 0v-9a1.5 1.5 0 0 0-1.521-1.522m30 0A1.5 1.5 0 0 0 42 28.5v9a1.5 1.5 0 1 0 3 0v-9a1.5 1.5 0 0 0-1.521-1.522" style="opacity:.2"/><path d="M13.5 27.5v9m6-16v23m6-20v17m6-21v25m6-19v13m6-11v9m6-13v17" style="fill:none;stroke:#fff;stroke-width:3;stroke-linecap:round;stroke-linejoin:round"/><path d="M32 4C16.488 4 4 16.488 4 32c0 .168.01.333.014.5C4.28 17.221 16.656 5 32 5s27.72 12.221 27.986 27.5c.003-.167.014-.332.014-.5C60 16.488 47.512 4 32 4" style="fill:#fff;opacity:.2"/></svg>