<svg xmlns="http://www.w3.org/2000/svg" width="64" height="64"><rect width="56" height="56" x="4" y="5" rx="14" ry="14" style="opacity:.2"/><rect width="56" height="56" x="4" y="4" rx="14" ry="14" style="fill:#3b2d4a"/><path d="M18 4C10.244 4 4 10.244 4 18v1c0-7.756 6.244-14 14-14h28c7.756 0 14 6.244 14 14v-1c0-7.756-6.244-14-14-14z" style="opacity:.1;fill:#fff"/><path d="M31.781 19c-.408-.037-.762.831-1.633 2.836-.628 1.445-1.43 3.435-1.78 4.425l-.641 1.801-1.309 1.657c-.72.91-1.967 2.6-2.77 3.753l-1.48 2.13c-.014.018-.171-.11-.348-.29-.255-.259-.376-.324-.59-.324-.344 0-.4.065-.976 1.219l-.477.96-.406-.476c-.387-.448-.423-.471-.719-.449l-.308.027-3.035 3.727c-1.735 2.13-3.098 3.873-3.184 4.07-.21.481-.171.622.23.79.325.134 1.175.14 19.965.144 13.712.003 19.642-.021 19.676-.078.027-.045-.075-.379-.226-.743-.254-.61-.44-.864-2.418-3.261-1.62-1.963-2.325-2.88-2.868-3.742-.395-.628-.803-1.238-.91-1.356-.298-.327-.592-.293-1.047.129l-.375.348-1.062-1.106-1.063-1.097-1.515-2.641c-.832-1.452-1.574-2.711-1.653-2.793-.221-.23-.539-.184-.914.125-.18.15-.434.347-.562.437l-.235.164-.64-.906-.64-.914-.77-2.601c-.424-1.431-.83-2.665-.903-2.75-.073-.086-.563-.81-1.086-1.606-.66-1.005-1.01-1.58-1.328-1.61m.254 12c.436 0 .874.017 1.026.053q.032.007.046.015c.081.051.122.251.141.68l.03.603.515.202c.285.11.553.199.592.199s.22-.15.406-.34c.444-.453.68-.462 1.19-.041.4.33.84.849.912 1.076.06.188-.068.422-.434.803l-.299.312.188.416c.1.229.201.47.224.54.034.099.172.133.662.156.443.02.64.059.692.14.04.063.074.547.074 1.072 0 .526-.035 1.004-.074 1.067-.052.081-.25.123-.686.142l-.611.03-.117.355a4 4 0 0 1-.227.541c-.1.182-.09.218.305.631.552.579.55.726-.06 1.451-.37.44-.809.75-1.055.75-.122 0-.33-.146-.616-.427l-.433-.428-.293.15a5 5 0 0 1-.578.24l-.282.09-.025.69c-.02.506-.056.704-.14.758-.064.04-.547.074-1.073.074s-1.003-.035-1.066-.074c-.085-.054-.125-.254-.145-.768-.022-.563-.05-.704-.152-.738-.07-.024-.312-.128-.54-.229l-.411-.178-.432.41c-.237.227-.503.435-.594.463-.28.09-.817-.281-1.355-.937-.41-.5-.378-.712.183-1.268l.454-.45-.137-.274a5 5 0 0 1-.233-.557l-.086-.277-.689-.028c-.506-.02-.708-.056-.762-.14-.04-.063-.07-.543-.07-1.069s.034-1.013.074-1.076c.054-.084.254-.117.768-.136.563-.022.7-.05.734-.153.023-.07.131-.316.233-.545l.181-.416-.422-.427c-.278-.282-.422-.492-.422-.614 0-.246.307-.681.747-1.05.726-.612.877-.618 1.462-.06.243.232.463.402.487.378s.24-.125.486-.225l.445-.181.043-.621c.029-.426.076-.642.153-.69.073-.047.569-.07 1.066-.07M32 35a2 2 0 0 0-2 2 2 2 0 0 0 2 2 2 2 0 0 0 2-2 2 2 0 0 0-2-2" style="opacity:.2"/><path d="M31.781 18c-.408-.036-.762.832-1.633 2.836-.628 1.445-1.43 3.435-1.78 4.426l-.641 1.8-1.309 1.657c-.72.91-1.967 2.6-2.77 3.754l-1.48 2.129c-.014.018-.171-.11-.348-.29-.255-.258-.376-.324-.59-.324-.344 0-.4.065-.976 1.219l-.477.961-.406-.477c-.387-.448-.423-.471-.719-.449l-.308.028-3.035 3.726c-1.735 2.131-3.098 3.873-3.184 4.07-.21.482-.171.622.23.79.325.135 1.175.14 19.965.144 13.712.003 19.642-.02 19.676-.078.027-.045-.075-.379-.226-.742-.254-.61-.44-.865-2.418-3.262-1.62-1.963-2.325-2.88-2.868-3.742-.395-.628-.803-1.238-.91-1.356-.298-.327-.592-.292-1.047.13l-.375.347-1.062-1.106-1.063-1.097-1.515-2.64c-.832-1.453-1.574-2.712-1.653-2.794-.221-.23-.539-.184-.914.125-.18.15-.434.347-.562.438l-.235.164-.64-.907-.64-.914-.77-2.601c-.424-1.431-.83-2.665-.903-2.75-.073-.086-.563-.81-1.086-1.606-.66-1.005-1.01-1.58-1.328-1.609m.254 12c.436 0 .874.017 1.026.053q.032.008.046.015c.081.052.122.251.141.68l.03.604.515.2c.285.112.553.2.592.2s.22-.15.406-.34c.444-.452.68-.462 1.19-.04.4.33.84.848.912 1.075.06.188-.068.423-.434.803l-.299.313.188.416c.1.228.201.47.224.539.034.099.172.134.662.156.443.02.64.06.692.14.04.063.074.547.074 1.073s-.035 1.003-.074 1.066c-.052.081-.25.123-.686.143l-.611.029-.117.355a4 4 0 0 1-.227.541c-.1.182-.09.218.305.631.552.58.55.726-.06 1.452-.37.439-.809.75-1.055.75-.122 0-.33-.146-.616-.428l-.433-.428-.293.15a5 5 0 0 1-.578.24l-.282.09-.025.69c-.02.506-.056.704-.14.758-.064.04-.547.074-1.073.074s-1.003-.034-1.066-.074c-.085-.054-.125-.254-.145-.768-.022-.563-.05-.704-.152-.738-.07-.023-.312-.128-.54-.229l-.411-.177-.432.41c-.237.226-.503.434-.594.463-.28.089-.817-.282-1.355-.938-.41-.5-.378-.712.183-1.267l.454-.452-.137-.273a5 5 0 0 1-.233-.557l-.086-.277-.689-.027c-.506-.02-.708-.056-.762-.14-.04-.064-.07-.544-.07-1.07 0-.525.034-1.012.074-1.075.054-.085.254-.117.768-.137.563-.022.7-.05.734-.153.023-.069.131-.316.233-.544l.181-.416-.422-.428c-.278-.282-.422-.492-.422-.613 0-.247.307-.682.747-1.051.726-.612.877-.618 1.462-.059.243.231.463.401.487.377s.24-.125.486-.224l.445-.182.043-.621c.029-.425.076-.641.153-.69.073-.046.569-.07 1.066-.07M32 34a2 2 0 0 0-2 2 2 2 0 0 0 2 2 2 2 0 0 0 2-2 2 2 0 0 0-2-2" style="fill:#fff"/></svg>