<svg xmlns="http://www.w3.org/2000/svg" width="64" height="64"><path d="M20.8 5C11.495 5 4 12.494 4 21.8v22.4C4 53.505 11.494 61 20.8 61h22.4C52.505 61 60 53.506 60 44.2V21.8C60 12.495 52.506 5 43.2 5H32Z" style="opacity:.2"/><path d="M4 32v11.2C4 52.507 11.493 60 20.8 60H32V32Z" style="fill:#e4e4e4"/><path d="M20.8 4C11.493 4 4 11.493 4 20.8V32h28V4Z" style="fill:#ebc53d"/><path d="M32 4v28h28V20.8C60 11.493 52.507 4 43.2 4Z" style="fill:#e4e4e4"/><path d="M32 32v28h11.2C52.507 60 60 52.507 60 43.2V32Z" style="fill:#008aff"/><path d="M18.008 10c-2.494 0-4.46.711-5.883 2.13C10.708 13.548 10 15.5 10 18q0 3.74 2.125 5.868C13.549 25.285 15.514 26 18.008 26c2.5 0 4.45-.715 5.867-2.133Q26 21.74 26 18c0-2.5-.708-4.452-2.125-5.87S20.508 10 18.008 10m0 2.88c1.229 0 2.176.45 2.85 1.345S21.87 16.375 21.87 18c0 1.618-.339 2.88-1.012 3.775-.674.895-1.621 1.342-2.85 1.342q-1.835 0-2.845-1.342c-.674-.895-1.018-2.157-1.018-3.775 0-1.625.344-2.88 1.018-3.775q1.01-1.344 2.844-1.345M40 38v16h6.762c2.099 0 3.668-.374 4.697-1.132C52.487 52.112 53 50.956 53 49.412q0-1.509-.716-2.55c-.478-.692-1.163-1.167-2.039-1.424.684-.264 1.211-.664 1.57-1.208.36-.55.538-1.222.538-2 0-1.48-.489-2.552-1.478-3.225-.98-.673-2.567-1.005-4.76-1.005Zm4.075 2.805h2.247q.962-.002 1.46.438c.332.283.503.706.503 1.257q-.002.836-.503 1.263-.498.43-1.46.43h-2.247zm-.005 6.2h2.387c.823 0 1.448.17 1.858.52.41.343.61.862.61 1.555q.001 1.061-.622 1.588c-.407.35-1.03.525-1.846.525H44.07z" style="fill:#3f3f3f"/><path d="M20.8 4C11.495 4 4 11.494 4 20.8v1C4 12.495 11.494 5 20.8 5h22.4C52.505 5 60 12.494 60 21.8v-1C60 11.495 52.506 4 43.2 4z" style="opacity:.2;fill:#fff"/><path d="M32 32h28v1H32z" style="opacity:.2"/><path d="M4 32h28v1H4z" style="opacity:.2;fill:#fff"/></svg>