<svg xmlns="http://www.w3.org/2000/svg" width="64" height="64"><rect width="58" height="58" x="-61" y="4" rx="17.4" ry="17.4" style="opacity:.2" transform="scale(-1 1)"/><rect width="58" height="58" x="-61" y="3" rx="17.4" ry="17.4" style="fill:#6becec" transform="scale(-1 1)"/><path d="M55.914 8.086 45.051 18.949V45.05H18.95L8.085 55.915A17.35 17.35 0 0 0 20.4 61h23.2c4.82 0 9.169-1.94 12.314-5.086A17.35 17.35 0 0 0 61 43.6V20.4c0-4.82-1.94-9.169-5.086-12.314" style="opacity:.3"/><rect width="42" height="42" x="-53" y="12" rx="9.001" ry="9.001" style="opacity:.1" transform="scale(-1 1)"/><rect width="42" height="42" x="-53" y="11" rx="9.001" ry="9.001" style="fill:#1ad7d7" transform="scale(-1 1)"/><path d="M20.398 3A17.36 17.36 0 0 0 3 20.398v1A17.36 17.36 0 0 1 20.398 4h23.204A17.36 17.36 0 0 1 61 21.398v-1A17.36 17.36 0 0 0 43.602 3z" style="fill:#fff;opacity:.2"/></svg>