<?xml version="1.0" encoding="UTF-8" standalone="no"?>
<svg
   width="64"
   height="64"
   version="1.1"
   id="svg9"
   sodipodi:docname="openhardwaremonitor.svg"
   inkscape:version="1.4.4 (dcaf3e7d9e, 2026-05-05)"
   xmlns:inkscape="http://www.inkscape.org/namespaces/inkscape"
   xmlns:sodipodi="http://sodipodi.sourceforge.net/DTD/sodipodi-0.dtd"
   xmlns:xlink="http://www.w3.org/1999/xlink"
   xmlns="http://www.w3.org/2000/svg"
   xmlns:svg="http://www.w3.org/2000/svg">
  <defs
     id="defs9">
    <filter
       id="b"
       width="1.2504533"
       height="1.2504533"
       x="-0.12522663"
       y="-0.12522663"
       style="color-interpolation-filters:sRGB">
      <feGaussianBlur
         stdDeviation="2.591"
         id="feGaussianBlur1" />
    </filter>
    <filter
       id="c"
       width="1.4284425"
       height="1.4284425"
       x="-0.21422125"
       y="-0.21422125"
       style="color-interpolation-filters:sRGB">
      <feGaussianBlur
         stdDeviation="1.302"
         id="feGaussianBlur2" />
    </filter>
    <radialGradient
       xlink:href="#a"
       id="d"
       cx="15.412"
       cy="7.046"
       r="24"
       fx="15.412"
       fy="7.046"
       gradientTransform="matrix(1.37274,2.3776554,-2.3776554,1.37274,4.1661296,-34.961948)"
       gradientUnits="userSpaceOnUse" />
    <linearGradient
       id="a">
      <stop
         offset="0"
         style="stop-color:#ffe61b;stop-opacity:1"
         id="stop2" />
      <stop
         offset="1"
         style="stop-color:#ffb347;stop-opacity:1"
         id="stop3" />
    </linearGradient>
  </defs>
  <sodipodi:namedview
     id="namedview9"
     pagecolor="#ffffff"
     bordercolor="#000000"
     borderopacity="0.25"
     inkscape:showpageshadow="2"
     inkscape:pageopacity="0.0"
     inkscape:pagecheckerboard="0"
     inkscape:deskcolor="#d1d1d1"
     inkscape:zoom="10.033034"
     inkscape:cx="32.442828"
     inkscape:cy="44.502989"
     inkscape:current-layer="svg9" />
  <g
     id="g6"
     transform="translate(5.0390609e-4,5.0390609e-4)">
    <rect
       width="50.855"
       height="50.855"
       x="-57.426998"
       y="-57.426998"
       rx="13.447"
       ry="13.447"
       style="fill:#323232;stroke-width:0.908124;fill-opacity:1"
       transform="matrix(0,-1,-1,0,0,0)"
       id="rect3" />
    <rect
       width="50.855"
       height="50.855"
       x="-57.426998"
       y="-57.426998"
       rx="13.447"
       ry="13.447"
       style="fill:none;stroke:#000000;stroke-width:0.3;stroke-dasharray:none;stroke-opacity:1;filter:url(#b)"
       transform="matrix(0,-1,-1,0,0,0)"
       id="rect4" />
    <rect
       width="15.287"
       height="15.287"
       x="24.356001"
       y="24.356001"
       rx="5.3340001"
       ry="5.3340001"
       style="fill:#aaaaaa;stroke-width:0.764366;fill-opacity:1"
       id="rect5" />
    <rect
       width="15.287"
       height="15.287"
       x="24.356001"
       y="24.356001"
       rx="5.3340001"
       ry="5.3340001"
       style="fill:none;stroke:#000000;stroke-width:0.3;stroke-dasharray:none;stroke-opacity:1;filter:url(#c)"
       id="rect6" />
    <path
       d="m 24.356,13.655 a 1.53,1.53 0 0 0 -1.529,1.529 1.53,1.53 0 0 0 1.53,1.529 1.53,1.53 0 0 0 1.528,-1.53 1.53,1.53 0 0 0 -1.529,-1.528 m 4.586,0 a 1.53,1.53 0 0 0 -1.528,1.529 1.53,1.53 0 0 0 1.528,1.529 1.53,1.53 0 0 0 1.529,-1.53 1.53,1.53 0 0 0 -1.53,-1.528 m 6.116,0 a 1.53,1.53 0 0 0 -1.529,1.529 1.53,1.53 0 0 0 1.53,1.529 1.53,1.53 0 0 0 1.527,-1.53 1.53,1.53 0 0 0 -1.528,-1.528 m 4.586,0 a 1.53,1.53 0 0 0 -1.53,1.529 1.53,1.53 0 0 0 1.53,1.529 1.53,1.53 0 0 0 1.529,-1.53 1.53,1.53 0 0 0 -1.53,-1.528 m 4.585,0 a 1.53,1.53 0 0 0 -1.527,1.529 1.53,1.53 0 0 0 1.527,1.529 1.53,1.53 0 0 0 1.53,-1.53 1.53,1.53 0 0 0 -1.53,-1.528 m 4.587,0 a 1.53,1.53 0 0 0 -1.529,1.529 1.53,1.53 0 0 0 1.53,1.529 1.53,1.53 0 0 0 1.528,-1.53 1.53,1.53 0 0 0 -1.529,-1.528 m -35.021,0.129 v 3.393 l 3.391,-3.393 z m 1.389,4.458 a 1.53,1.53 0 0 0 -1.53,1.529 1.53,1.53 0 0 0 1.53,1.527 1.53,1.53 0 0 0 1.529,-1.527 1.53,1.53 0 0 0 -1.53,-1.53 m 4.587,0 a 1.53,1.53 0 0 0 -1.53,1.529 1.53,1.53 0 0 0 1.53,1.527 1.53,1.53 0 0 0 1.527,-1.527 1.53,1.53 0 0 0 -1.527,-1.53 m 4.585,0 a 1.53,1.53 0 0 0 -1.529,1.529 1.53,1.53 0 0 0 1.53,1.527 1.53,1.53 0 0 0 1.528,-1.527 1.53,1.53 0 0 0 -1.529,-1.53 m 4.586,0 a 1.53,1.53 0 0 0 -1.528,1.529 1.53,1.53 0 0 0 1.528,1.527 1.53,1.53 0 0 0 1.529,-1.527 1.53,1.53 0 0 0 -1.53,-1.53 m 6.116,0 a 1.53,1.53 0 0 0 -1.529,1.529 1.53,1.53 0 0 0 1.53,1.527 1.53,1.53 0 0 0 1.527,-1.527 1.53,1.53 0 0 0 -1.528,-1.53 m 4.586,0 a 1.53,1.53 0 0 0 -1.53,1.529 1.53,1.53 0 0 0 1.53,1.527 1.53,1.53 0 0 0 1.529,-1.527 1.53,1.53 0 0 0 -1.53,-1.53 m 4.585,0 a 1.53,1.53 0 0 0 -1.527,1.529 1.53,1.53 0 0 0 1.527,1.527 1.53,1.53 0 0 0 1.53,-1.527 1.53,1.53 0 0 0 -1.53,-1.53 m 4.587,0 a 1.53,1.53 0 0 0 -1.529,1.529 1.53,1.53 0 0 0 1.53,1.527 1.53,1.53 0 0 0 1.528,-1.527 1.53,1.53 0 0 0 -1.529,-1.53 m -33.632,4.585 a 1.53,1.53 0 0 0 -1.53,1.53 1.53,1.53 0 0 0 1.53,1.528 1.53,1.53 0 0 0 1.529,-1.529 1.53,1.53 0 0 0 -1.53,-1.529 m 4.587,0 a 1.53,1.53 0 0 0 -1.53,1.53 1.53,1.53 0 0 0 1.53,1.528 1.53,1.53 0 0 0 1.527,-1.529 1.53,1.53 0 0 0 -1.527,-1.529 m 24.458,0 a 1.53,1.53 0 0 0 -1.527,1.53 1.53,1.53 0 0 0 1.527,1.528 1.53,1.53 0 0 0 1.53,-1.529 1.53,1.53 0 0 0 -1.53,-1.529 m 4.587,0 a 1.53,1.53 0 0 0 -1.529,1.53 1.53,1.53 0 0 0 1.53,1.528 1.53,1.53 0 0 0 1.528,-1.529 1.53,1.53 0 0 0 -1.529,-1.529 m -33.632,4.587 a 1.53,1.53 0 0 0 -1.53,1.528 1.53,1.53 0 0 0 1.53,1.529 1.53,1.53 0 0 0 1.529,-1.53 1.53,1.53 0 0 0 -1.53,-1.527 m 4.587,0 a 1.53,1.53 0 0 0 -1.53,1.528 1.53,1.53 0 0 0 1.53,1.529 1.53,1.53 0 0 0 1.527,-1.53 1.53,1.53 0 0 0 -1.527,-1.527 m 24.458,0 a 1.53,1.53 0 0 0 -1.527,1.528 1.53,1.53 0 0 0 1.527,1.529 1.53,1.53 0 0 0 1.53,-1.53 1.53,1.53 0 0 0 -1.53,-1.527 m 4.587,0 a 1.53,1.53 0 0 0 -1.529,1.528 1.53,1.53 0 0 0 1.53,1.529 1.53,1.53 0 0 0 1.528,-1.53 1.53,1.53 0 0 0 -1.529,-1.527 M 15.184,33.53 a 1.53,1.53 0 0 0 -1.53,1.53 1.53,1.53 0 0 0 1.53,1.527 1.53,1.53 0 0 0 1.529,-1.528 1.53,1.53 0 0 0 -1.53,-1.529 m 4.587,0 a 1.53,1.53 0 0 0 -1.53,1.53 1.53,1.53 0 0 0 1.53,1.527 1.53,1.53 0 0 0 1.527,-1.528 1.53,1.53 0 0 0 -1.527,-1.529 m 24.458,0 a 1.53,1.53 0 0 0 -1.527,1.53 1.53,1.53 0 0 0 1.527,1.527 1.53,1.53 0 0 0 1.53,-1.528 1.53,1.53 0 0 0 -1.53,-1.529 m 4.587,0 a 1.53,1.53 0 0 0 -1.529,1.53 1.53,1.53 0 0 0 1.53,1.527 1.53,1.53 0 0 0 1.528,-1.528 1.53,1.53 0 0 0 -1.529,-1.529 m -33.632,4.586 a 1.53,1.53 0 0 0 -1.53,1.529 1.53,1.53 0 0 0 1.53,1.529 1.53,1.53 0 0 0 1.529,-1.53 1.53,1.53 0 0 0 -1.53,-1.528 m 4.587,0 a 1.53,1.53 0 0 0 -1.53,1.529 1.53,1.53 0 0 0 1.53,1.529 1.53,1.53 0 0 0 1.527,-1.53 1.53,1.53 0 0 0 -1.527,-1.528 m 24.458,0 a 1.53,1.53 0 0 0 -1.527,1.529 1.53,1.53 0 0 0 1.527,1.529 1.53,1.53 0 0 0 1.53,-1.53 1.53,1.53 0 0 0 -1.53,-1.528 m 4.587,0 a 1.53,1.53 0 0 0 -1.529,1.529 1.53,1.53 0 0 0 1.53,1.529 1.53,1.53 0 0 0 1.528,-1.53 1.53,1.53 0 0 0 -1.529,-1.528 m -33.632,4.587 a 1.53,1.53 0 0 0 -1.53,1.527 1.53,1.53 0 0 0 1.53,1.53 1.53,1.53 0 0 0 1.529,-1.53 1.53,1.53 0 0 0 -1.53,-1.527 m 4.587,0 a 1.53,1.53 0 0 0 -1.53,1.527 1.53,1.53 0 0 0 1.53,1.53 1.53,1.53 0 0 0 1.527,-1.53 1.53,1.53 0 0 0 -1.527,-1.527 m 4.585,0 a 1.53,1.53 0 0 0 -1.529,1.527 1.53,1.53 0 0 0 1.53,1.53 1.53,1.53 0 0 0 1.528,-1.53 1.53,1.53 0 0 0 -1.529,-1.527 m 4.586,0 a 1.53,1.53 0 0 0 -1.528,1.527 1.53,1.53 0 0 0 1.528,1.53 1.53,1.53 0 0 0 1.529,-1.53 1.53,1.53 0 0 0 -1.53,-1.527 m 6.116,0 a 1.53,1.53 0 0 0 -1.529,1.527 1.53,1.53 0 0 0 1.53,1.53 1.53,1.53 0 0 0 1.527,-1.53 1.53,1.53 0 0 0 -1.528,-1.527 m 4.586,0 a 1.53,1.53 0 0 0 -1.53,1.527 1.53,1.53 0 0 0 1.53,1.53 1.53,1.53 0 0 0 1.529,-1.53 1.53,1.53 0 0 0 -1.53,-1.527 m 4.585,0 a 1.53,1.53 0 0 0 -1.527,1.527 1.53,1.53 0 0 0 1.527,1.53 1.53,1.53 0 0 0 1.53,-1.53 1.53,1.53 0 0 0 -1.53,-1.527 m 4.587,0 a 1.53,1.53 0 0 0 -1.529,1.527 1.53,1.53 0 0 0 1.53,1.53 1.53,1.53 0 0 0 1.528,-1.53 1.53,1.53 0 0 0 -1.529,-1.527 m -33.632,4.585 a 1.53,1.53 0 0 0 -1.53,1.53 1.53,1.53 0 0 0 1.53,1.528 1.53,1.53 0 0 0 1.529,-1.529 1.53,1.53 0 0 0 -1.53,-1.529 m 9.172,0 a 1.53,1.53 0 0 0 -1.529,1.53 1.53,1.53 0 0 0 1.53,1.528 1.53,1.53 0 0 0 1.528,-1.529 1.53,1.53 0 0 0 -1.529,-1.529 m 4.586,0 a 1.53,1.53 0 0 0 -1.528,1.53 1.53,1.53 0 0 0 1.528,1.528 1.53,1.53 0 0 0 1.529,-1.529 1.53,1.53 0 0 0 -1.53,-1.529 m 6.116,0 a 1.53,1.53 0 0 0 -1.529,1.53 1.53,1.53 0 0 0 1.53,1.528 1.53,1.53 0 0 0 1.527,-1.529 1.53,1.53 0 0 0 -1.528,-1.529 m 4.586,0 a 1.53,1.53 0 0 0 -1.53,1.53 1.53,1.53 0 0 0 1.53,1.528 1.53,1.53 0 0 0 1.529,-1.529 1.53,1.53 0 0 0 -1.53,-1.529 m 4.585,0 a 1.53,1.53 0 0 0 -1.527,1.53 1.53,1.53 0 0 0 1.527,1.528 1.53,1.53 0 0 0 1.53,-1.529 1.53,1.53 0 0 0 -1.53,-1.529 m 4.587,0 a 1.53,1.53 0 0 0 -1.529,1.53 1.53,1.53 0 0 0 1.53,1.528 1.53,1.53 0 0 0 1.528,-1.529 1.53,1.53 0 0 0 -1.529,-1.529"
       style="fill:url(#d);stroke-width:1.52873"
       id="path6" />
  </g>
</svg>
