<svg xmlns="http://www.w3.org/2000/svg" width="64" height="64"><circle cx="32" cy="33" r="28" style="opacity:.2"/><circle cx="32" cy="32" r="28" style="fill:#fec006"/><path d="m19.43 34.519 2.155.047c4.24.093 7.486.59 8.988 2.922 3.505 5.44-2.657 6.904-5.447 3.062-2.606-4.218-1.705-12.98 2.05-13.997 6.796-1.55 8.121 9.837 12.305 7.732 3.232-1.627-2.243-8.98.919-10.738 1.355-.754 4.189 1.682 4.189 1.682" style="opacity:.2;fill:none;stroke:#000;stroke-width:2.79999995;stroke-linecap:square"/><path d="m19.43 33.519 2.155.048c4.24.092 7.486.589 8.988 2.92 3.505 5.442-2.657 6.905-5.447 3.063-2.606-4.217-1.705-12.98 2.05-13.997 6.796-1.549 8.121 9.838 12.305 7.732 3.232-1.627-2.243-8.98.919-10.738 1.355-.754 4.189 1.683 4.189 1.683" style="fill:none;stroke:#fff;stroke-width:2.79999995;stroke-linecap:square"/><path d="M32 4A28 28 0 0 0 4 32a28 28 0 0 0 .021.586A28 28 0 0 1 32 5a28 28 0 0 1 27.979 27.414L60 32A28 28 0 0 0 32 4" style="opacity:.2;fill:#fff"/></svg>