<svg xmlns="http://www.w3.org/2000/svg" width="64" height="64"><circle cx="32" cy="33" r="28" style="opacity:.2"/><circle cx="32" cy="32" r="28" style="fill:#8e8e8e"/><circle cx="32" cy="32" r="21" style="fill:#3f3f3f"/><path d="M32 14a19 19 0 0 0-19 19 19 19 0 0 0 19 19 19 19 0 0 0 6.725-1.254l-1.026-3.963A14.9 14.9 0 0 1 32 47.93 14.93 14.93 0 0 1 17.071 33 14.93 14.93 0 0 1 32 18.071a14.9 14.9 0 0 1 5.707 1.143l1.031-3.97A19 19 0 0 0 32 14" style="opacity:.2"/><path d="M32 13a19 19 0 0 0-19 19 19 19 0 0 0 19 19 19 19 0 0 0 6.725-1.254l-1.026-3.963A14.9 14.9 0 0 1 32 46.93 14.93 14.93 0 0 1 17.071 32 14.93 14.93 0 0 1 32 17.071a14.9 14.9 0 0 1 5.707 1.143l1.031-3.97A19 19 0 0 0 32 13" style="fill:#e13535"/><path d="M32 20a13 13 0 0 0-13 13 13 13 0 0 0 13 13 13 13 0 0 0 5.134-1.059l-.993-3.839A9.1 9.1 0 0 1 32 42.1a9.1 9.1 0 0 1-9.1-9.1 9.1 9.1 0 0 1 9.1-9.1 9.1 9.1 0 0 1 4.141 1.008l.993-3.834A13 13 0 0 0 32 20" style="opacity:.2"/><path d="M32 19a13 13 0 0 0-13 13 13 13 0 0 0 13 13 13 13 0 0 0 5.134-1.059l-.993-3.839A9.1 9.1 0 0 1 32 41.1a9.1 9.1 0 0 1-9.1-9.1 9.1 9.1 0 0 1 9.1-9.1 9.1 9.1 0 0 1 4.141 1.008l.993-3.834A13 13 0 0 0 32 19" style="fill:#e13535"/><path d="M35.432 26.895a7 7 0 0 0-6.861.006l.953 3.623-3.63-.956a7 7 0 0 0 .007 6.861l3.623-.953-.956 3.63a7 7 0 0 0 6.861-.007l-.953-3.623 3.63.956a7 7 0 0 0-.007-6.861l-3.623.953z" style="opacity:.2"/><path d="M35.432 25.895a7 7 0 0 0-6.861.006l.953 3.623-3.63-.956a7 7 0 0 0 .007 6.861l3.623-.953-.956 3.63a7 7 0 0 0 6.861-.007l-.953-3.623 3.63.956a7 7 0 0 0-.007-6.861l-3.623.953z" style="fill:#ffa92e"/><path d="M32 4A28 28 0 0 0 4 32a28 28 0 0 0 .021.586A28 28 0 0 1 32 5a28 28 0 0 1 27.979 27.414L60 32A28 28 0 0 0 32 4" style="fill:#fff;opacity:.1"/><path d="M32 13a19 19 0 0 0-19 19 19 19 0 0 0 .021.408A19 19 0 0 1 32 14a19 19 0 0 1 6.498 1.164l.24-.922A19 19 0 0 0 32 13M17.094 32.586a15 15 0 0 0-.022.414A14.93 14.93 0 0 0 32 47.928a14.9 14.9 0 0 0 5.7-1.145l.786 3.045.239-.082-1.026-3.963A14.9 14.9 0 0 1 32 46.928a14.93 14.93 0 0 1-14.906-14.342" style="opacity:.2;fill:#fff"/><path d="M32 19a13 13 0 0 0-13 13 13 13 0 0 0 .021.42A13 13 0 0 1 32 20a13 13 0 0 1 4.898.986l.237-.912A13 13 0 0 0 32 19m-9.08 13.598a9 9 0 0 0-.02.402 9.1 9.1 0 0 0 9.1 9.1 9.1 9.1 0 0 0 4.14-.998l.758 2.93.237-.09-.994-3.84A9.1 9.1 0 0 1 32 41.1a9.1 9.1 0 0 1-9.08-8.502" style="opacity:.2;fill:#fff"/><path d="M32.084 25a7 7 0 0 0-3.514.9l.233.881a7 7 0 0 1 6.396-.002l.233-.884A7 7 0 0 0 32.084 25m-6.19 3.568a7 7 0 0 0-.87 3.96 7 7 0 0 1 .87-2.96l3.63.955-.284-1.074zm12.206.002-3.34.88-.283 1.073 3.623-.953a7 7 0 0 1 .877 2.903 7 7 0 0 0-.877-3.903m-8.577 6.907-.283.074-.672 2.554a7 7 0 0 0 .233.116zm4.954 0 .72 2.742a7 7 0 0 0 .233-.12l-.67-2.548z" style="opacity:.2;fill:#fff"/></svg>