<svg xmlns="http://www.w3.org/2000/svg" width="64" height="64"><circle cx="32" cy="33" r="28" style="opacity:.2"/><circle cx="32" cy="32" r="28" style="fill:#e74c3c"/><path d="m14 22.608 3.33 12.424 4.14-1.11-3.328-12.424zm7.984-2.14 3.329 12.425 4.142-1.11-3.33-12.424zm7.984-2.139 3.329 12.425 12.424-3.33L42.392 15zm-11.61 20.546L21.609 51l4.141-1.11-3.25-12.125Zm7.985-2.14 1.11 4.142 20.408-5.469-1.11-4.141zm2.139 7.984 1.11 4.142L50 43.392l-1.11-4.141Z" style="opacity:.2"/><path d="m14 21.608 3.33 12.424 4.14-1.11-3.328-12.424zm7.984-2.14 3.329 12.425 4.142-1.11-3.33-12.424zm7.984-2.139 3.329 12.425 12.424-3.33L42.392 14zm-11.61 20.546L21.609 50l4.141-1.11-3.25-12.125Zm7.985-2.14 1.11 4.142 20.408-5.469-1.11-4.141zm2.139 7.984 1.11 4.142L50 42.392l-1.11-4.141Z" style="fill:#fff"/><path d="M32 4A28 28 0 0 0 4 32a28 28 0 0 0 .018.492A28 28 0 0 1 32 5a28 28 0 0 1 27.975 27.492A28 28 0 0 0 60 32 28 28 0 0 0 32 4" style="opacity:.2;fill:#fff"/></svg>