<svg xmlns="http://www.w3.org/2000/svg" width="64" height="64"><g transform="translate(0 -1058.52)"><rect width="56" height="56" x="4" y="1063.52" rx="2.8" ry="2.8" style="opacity:.2"/><rect width="56" height="56" x="4" y="1062.52" rx="2.8" ry="2.8" style="fill:#3f4077"/><path d="M50 1068.52a7 7 0 0 0-7 7 7 7 0 0 0 .76 3.156l-1.989 1.844h-18.55l-6.701 6.959a7 7 0 0 0-3.52-.96 7 7 0 0 0-7 7 7 7 0 0 0 7 7 7 7 0 0 0 7-7 7 7 0 0 0-1.271-4.01l5.767-5.99H42.95l2.71-2.511a7 7 0 0 0 4.34 1.512 7 7 0 0 0 7-7 7 7 0 0 0-7-7m-35 2a3 3 0 0 0-3 3 3 3 0 0 0 3 3 3 3 0 0 0 3-3 3 3 0 0 0-3-3m11 0a3 3 0 0 0-3 3 3 3 0 0 0 3 3 3 3 0 0 0 3-3 3 3 0 0 0-3-3m11 0a3 3 0 0 0-3 3 3 3 0 0 0 3 3 3 3 0 0 0 3-3 3 3 0 0 0-3-3m13 .8a4.2 4.2 0 0 1 4.2 4.2 4.2 4.2 0 0 1-4.2 4.199 4.2 4.2 0 0 1-4.2-4.2 4.2 4.2 0 0 1 4.2-4.198m.2 16.399a7 7 0 0 0-6.89 5.8H26.593l-12.547 11.567a4 4 0 0 0-2.045-.566 4 4 0 0 0-4 4 4 4 0 0 0 4 4 4 4 0 0 0 4-4 4 4 0 0 0-.139-1.028l11.903-10.972H43.44a7 7 0 0 0 6.76 5.199 7 7 0 0 0 7-7 7 7 0 0 0-7-7m-17.2 12.8a5 5 0 0 0-5 5 5 5 0 0 0 5 5 5 5 0 0 0 2.326-.577l3.18 3.578H59.99v-3H39.854l-2.41-2.711a5 5 0 0 0 .556-2.29 5 5 0 0 0-5-5m0 2.858a2.143 2.143 0 0 1 2.143 2.143 2.143 2.143 0 0 1-2.143 2.142 2.143 2.143 0 0 1-2.143-2.142 2.143 2.143 0 0 1 2.143-2.143m-21 3.809a1.333 1.333 0 0 1 1.334 1.334 1.333 1.333 0 0 1-1.334 1.334 1.333 1.333 0 0 1-1.334-1.334 1.333 1.333 0 0 1 1.334-1.334" style="opacity:.2"/><path d="M50 1067.52a7 7 0 0 0-7 7 7 7 0 0 0 .76 3.156l-1.989 1.844h-18.55l-6.701 6.959a7 7 0 0 0-3.52-.96 7 7 0 0 0-7 7 7 7 0 0 0 7 7 7 7 0 0 0 7-7 7 7 0 0 0-1.271-4.01l5.767-5.99H42.95l2.71-2.511a7 7 0 0 0 4.34 1.512 7 7 0 0 0 7-7 7 7 0 0 0-7-7m-35 2a3 3 0 0 0-3 3 3 3 0 0 0 3 3 3 3 0 0 0 3-3 3 3 0 0 0-3-3m11 0a3 3 0 0 0-3 3 3 3 0 0 0 3 3 3 3 0 0 0 3-3 3 3 0 0 0-3-3m11 0a3 3 0 0 0-3 3 3 3 0 0 0 3 3 3 3 0 0 0 3-3 3 3 0 0 0-3-3m13 .8a4.2 4.2 0 0 1 4.2 4.2 4.2 4.2 0 0 1-4.2 4.199 4.2 4.2 0 0 1-4.2-4.2 4.2 4.2 0 0 1 4.2-4.198m.2 16.399a7 7 0 0 0-6.89 5.8H26.593l-12.547 11.567a4 4 0 0 0-2.045-.566 4 4 0 0 0-4 4 4 4 0 0 0 4 4 4 4 0 0 0 4-4 4 4 0 0 0-.139-1.028l11.903-10.972H43.44a7 7 0 0 0 6.76 5.199 7 7 0 0 0 7-7 7 7 0 0 0-7-7m-17.2 12.8a5 5 0 0 0-5 5 5 5 0 0 0 5 5 5 5 0 0 0 2.326-.577l3.18 3.578H59.99v-3H39.854l-2.41-2.711a5 5 0 0 0 .556-2.29 5 5 0 0 0-5-5m0 2.858a2.143 2.143 0 0 1 2.143 2.143 2.143 2.143 0 0 1-2.143 2.142 2.143 2.143 0 0 1-2.143-2.142 2.143 2.143 0 0 1 2.143-2.143m-21 3.809a1.333 1.333 0 0 1 1.334 1.334 1.333 1.333 0 0 1-1.334 1.334 1.333 1.333 0 0 1-1.334-1.334 1.333 1.333 0 0 1 1.334-1.334" style="fill:#fff"/><path d="M6.8 1062.52c-1.55 0-2.8 1.25-2.8 2.8v1c0-1.55 1.25-2.8 2.8-2.8h50.4c1.55 0 2.8 1.25 2.8 2.8v-1c0-1.55-1.25-2.8-2.8-2.8z" style="opacity:.1;fill:#fff"/></g></svg>