<svg xmlns="http://www.w3.org/2000/svg" xmlns:xlink="http://www.w3.org/1999/xlink" width="64" height="64"><defs><radialGradient xlink:href="#a" id="b" cx="-34.963" cy="-10.956" r="27.999" fx="-34.963" fy="-10.956" gradientTransform="rotate(165 81.252 -24.357)scale(-4.57415 3.35832)" gradientUnits="userSpaceOnUse"/><linearGradient id="a"><stop offset="0" style="stop-color:#01d9f6;stop-opacity:1"/><stop offset="1" style="stop-color:#07f;stop-opacity:1"/></linearGradient><filter id="c" width="1.275" height="1.275" x="-.138" y="-.138" style="color-interpolation-filters:sRGB"><feGaussianBlur stdDeviation="2.839"/></filter></defs><path d="M57.113 32A25.06 25.06 0 0 0 32 6.889 25.06 25.06 0 0 0 6.888 32 25.06 25.06 0 0 0 32 57.113 25.06 25.06 0 0 0 57.113 32" style="fill:url(#b);stroke-width:.89691"/><path d="M57.113 32A25.06 25.06 0 0 0 32 6.889 25.06 25.06 0 0 0 6.888 32 25.06 25.06 0 0 0 32 57.113 25.06 25.06 0 0 0 57.113 32" style="fill:none;stroke-width:.2;stroke:#000;stroke-opacity:1;stroke-dasharray:none;filter:url(#c)"/><path d="M31.984 4C16.527 4.01 4.001 16.543 4 32c0 15.456 12.524 27.988 27.98 28l.002-21.998h5.103a1.57 1.57 34.383 0 1 1.465 1.002l3.067 7.894A1.73 1.73 34.383 0 0 43.227 48h1.641a.898.898 124.443 0 0 .838-1.222L34.228 17.054A1.65 1.65 34.443 0 0 32.692 16h-.708Zm-.633 12h.633v4.153l-4.471 12.59A.942.942 54.777 0 0 28.4 34h3.582v3.998L26.807 38a1.57 1.57 145.548 0 0-1.463 1.004l-3.05 7.893A1.72 1.72 145.568 0 1 20.685 48H19.13a.897.897 55.591 0 1-.836-1.221l11.519-29.726A1.65 1.65 145.591 0 1 31.35 16m.633 4.229 4.522 12.516a.936.936 125.069 0 1-.88 1.255h-3.644z" style="opacity:.614128;fill:#000b83;fill-opacity:1" transform="translate(3.279 3.28)scale(.89748)"/></svg>