<svg xmlns="http://www.w3.org/2000/svg" width="64" height="64"><rect width="56" height="56" x="4" y="5" ry="12.445" style="opacity:.2"/><rect width="56" height="56" x="4" y="4" ry="12.445" style="fill:#ed3737"/><path d="M32 13a20 20 0 0 0-14.213 6h6.531A16 16 0 0 1 32 17a16 16 0 0 1 16 16 16 16 0 0 1-16 16 16 16 0 0 1-7.682-2h-6.53A20 20 0 0 0 32 53a20 20 0 0 0 20-20 20 20 0 0 0-20-20M12.764 23c-.977 0-1.764.763-1.764 1.71v4.58c0 .947.787 1.71 1.764 1.71h7.472c.977 0 1.764-.763 1.764-1.71v-4.58c0-.947-.787-1.71-1.764-1.71Zm14 0c-.977 0-1.764.763-1.764 1.71v4.58c0 .947.787 1.71 1.764 1.71h7.472c.977 0 1.764-.763 1.764-1.71v-4.58c0-.947-.787-1.71-1.764-1.71Zm-14 11c-.977 0-1.764.763-1.764 1.71v4.58c0 .947.787 1.71 1.764 1.71h7.472c.977 0 1.764-.763 1.764-1.71v-4.58c0-.947-.787-1.71-1.764-1.71Zm14 0c-.977 0-1.764.763-1.764 1.71v4.58c0 .947.787 1.71 1.764 1.71h7.472c.977 0 1.764-.763 1.764-1.71v-4.58c0-.947-.787-1.71-1.764-1.71Z" style="opacity:.2"/><path d="M32 12a20 20 0 0 0-14.213 6h6.531A16 16 0 0 1 32 16a16 16 0 0 1 16 16 16 16 0 0 1-16 16 16 16 0 0 1-7.682-2h-6.53A20 20 0 0 0 32 52a20 20 0 0 0 20-20 20 20 0 0 0-20-20M12.764 22c-.977 0-1.764.763-1.764 1.71v4.58c0 .947.787 1.71 1.764 1.71h7.472c.977 0 1.764-.763 1.764-1.71v-4.58c0-.947-.787-1.71-1.764-1.71zm14 0c-.977 0-1.764.763-1.764 1.71v4.58c0 .947.787 1.71 1.764 1.71h7.472c.977 0 1.764-.763 1.764-1.71v-4.58c0-.947-.787-1.71-1.764-1.71zm-14 11c-.977 0-1.764.763-1.764 1.71v4.58c0 .947.787 1.71 1.764 1.71h7.472c.977 0 1.764-.763 1.764-1.71v-4.58c0-.947-.787-1.71-1.764-1.71zm14 0c-.977 0-1.764.763-1.764 1.71v4.58c0 .947.787 1.71 1.764 1.71h7.472c.977 0 1.764-.763 1.764-1.71v-4.58c0-.947-.787-1.71-1.764-1.71z" style="fill:#f9f9f9"/><path d="M16.445 4A12.42 12.42 0 0 0 4 16.445v1A12.42 12.42 0 0 1 16.445 5h31.11A12.42 12.42 0 0 1 60 17.445v-1A12.42 12.42 0 0 0 47.555 4z" style="fill:#fff;opacity:.2"/></svg>