<svg xmlns="http://www.w3.org/2000/svg" width="64" height="64"><path d="M9.885 7A5.873 5.873 0 0 0 4 12.885v34.23A5.873 5.873 0 0 0 9.885 53h3.094L7.2 60l20.553-7h26.361A5.873 5.873 0 0 0 60 47.115v-34.23A5.873 5.873 0 0 0 54.115 7Z" style="opacity:.2"/><rect width="56" height="46" x="4" y="6" ry="5.884" style="fill:#41db41"/><path d="M29.24 51.495 7.2 59l6.382-7.733Z" style="fill:#41db41"/><path d="M45.631 15.042a.25.25 0 0 0-.177.364c.81 1.52 1.638 3.468 2.325 5.18-.338.359-.916.545-1.544.778-2.361.372-4.866.455-7.342.638a.25.25 0 0 0-.206.143c-.843 1.796-1.934 3.353-3.011 4.952a.3.3 0 0 0-.037.08c-.4 1.675-.937 3.252-1.462 4.79-1.57.123-3.024.193-3.855.066-.695-1.496-1.305-3.012-1.394-4.108a.25.25 0 0 0-.059-.14c-1.754-2.067-3.39-4.16-4.768-6.304a.25.25 0 0 0-.326-.084c-1.023.547-1.986 1.107-3.147 1.316-1.393-.608-2.634-1.305-3.814-2.043.7-1.648 1.469-3.747 2.42-5.234a.249.249 0 0 0-.311-.36c-2.086.972-4.212 1.897-6.698 2.538a.25.25 0 0 0-.165.348c.587 1.242.985 3.04 1.354 4.355a.25.25 0 0 0 .12.15c1.84 1.01 3.66 2.374 5.455 3.46q.064.037.14.033c1.126-.042 2.217-.048 3.179.159 1.159 2.29 2.133 4.069 3.172 6.24 1.247 3.406 2.315 6.95 3.444 10.467a.25.25 0 0 0 .26.173c1.786-.159 3.757-.126 5.762-.062a.25.25 0 0 0 .243-.169 102 102 0 0 1 2.614-6.726 238 238 0 0 1 1.771-5.253l.008-.014.004-.01c.858-1.788 1.706-3.57 2.729-5.268 2.444-.65 4.923-1.17 7.415-1.654a.25.25 0 0 0 .192-.168c.593-1.81 1.21-4.097 2.024-5.757a.25.25 0 0 0-.144-.344 53 53 0 0 1-6.017-2.509.25.25 0 0 0-.154-.023" style="opacity:.2"/><path d="M45.631 14.042a.25.25 0 0 0-.177.364c.81 1.52 1.638 3.468 2.325 5.18-.338.359-.916.545-1.544.778-2.361.372-4.866.455-7.342.638a.25.25 0 0 0-.206.143c-.843 1.796-1.934 3.353-3.011 4.952a.3.3 0 0 0-.037.08c-.4 1.675-.937 3.252-1.462 4.79-1.57.123-3.024.193-3.855.066-.695-1.496-1.305-3.012-1.394-4.108a.25.25 0 0 0-.059-.14c-1.754-2.067-3.39-4.16-4.768-6.304a.25.25 0 0 0-.326-.084c-1.023.547-1.986 1.107-3.147 1.316-1.393-.608-2.634-1.305-3.814-2.043.7-1.648 1.469-3.747 2.42-5.234a.249.249 0 0 0-.311-.36c-2.086.972-4.212 1.897-6.698 2.538a.25.25 0 0 0-.165.348c.587 1.242.985 3.04 1.354 4.355a.25.25 0 0 0 .12.15c1.84 1.01 3.66 2.374 5.455 3.46q.064.037.14.033c1.126-.042 2.217-.048 3.179.159 1.159 2.29 2.133 4.069 3.172 6.24 1.247 3.406 2.315 6.95 3.444 10.467a.25.25 0 0 0 .26.173c1.786-.159 3.757-.126 5.762-.062a.25.25 0 0 0 .243-.169 102 102 0 0 1 2.614-6.726 238 238 0 0 1 1.771-5.253l.008-.014.004-.01c.858-1.788 1.706-3.57 2.729-5.268 2.444-.65 4.923-1.17 7.415-1.654a.25.25 0 0 0 .192-.168c.593-1.81 1.21-4.097 2.024-5.757a.25.25 0 0 0-.144-.344 53 53 0 0 1-6.017-2.509.25.25 0 0 0-.154-.023" style="fill:#fff"/><path d="M9.885 6A5.873 5.873 0 0 0 4 11.885v1A5.873 5.873 0 0 1 9.885 7h44.23A5.873 5.873 0 0 1 60 12.885v-1A5.873 5.873 0 0 0 54.115 6zm2.267 47-4.95 6 1.148-.39L12.979 53z" style="fill:#fff;opacity:.2"/></svg>