<svg xmlns="http://www.w3.org/2000/svg" width="64" height="64"><rect width="56" height="50" x="-61" y="-57" rx="2.8" ry="2.778" style="opacity:.2" transform="rotate(90)scale(-1 1)"/><rect width="56" height="50" x="-60" y="-57" rx="2.8" ry="2.778" style="fill:#976e2e" transform="rotate(90)scale(-1 1)"/><path d="M17.071 11C14.816 11 13 12.933 13 15.333V37h38V15.333c0-2.4-1.816-4.333-4.071-4.333ZM17 15h30v18H17v-4.667z" style="opacity:.1"/><path d="M27.651 43C26.333 43 25 44.4 25 45.827V57h8a2.667 2.8 0 0 1 2.667-2.8 2.667 2.8 0 0 1 .229.011 4 4.2 0 0 1 3.77-2.81 4 4.2 0 0 1 1.334.242V43Z" style="opacity:.2"/><path d="M17.071 10C14.816 10 13 11.933 13 14.333V36h38V14.333c0-2.4-1.816-4.333-4.071-4.333ZM17 14h30v18H17v-4.667z" style="fill:#c3c3c3"/><path d="M17.07 10C14.815 10 13 11.931 13 14.332v1c0-2.4 1.815-4.332 4.07-4.332h29.86c2.255 0 4.07 1.931 4.07 4.332v-1c0-2.4-1.815-4.332-4.07-4.332zM17 32v1h30v-1z" style="opacity:.2;fill:#fff"/><path d="M31 34h3.106v12H31z" style="fill:#a4a4a4"/><path d="m27.176 37.586 1.39-7m4.166 7 1.389-7m4.166 7 1.39-7" style="fill:none;stroke:#c3c3c3;stroke-width:2.78886676;stroke-linecap:round"/><path d="M27.651 42C26.333 42 25 43.4 25 44.827V56h8a2.667 2.8 0 0 1 2.667-2.8 2.667 2.8 0 0 1 .229.011 4 4.2 0 0 1 3.77-2.81 4 4.2 0 0 1 1.334.242V42Z" style="fill:#ffb22b"/><circle cx="28.5" cy="52.5" r="1.5" style="opacity:.2"/><path d="m24.398 38.586 1.39-7" style="opacity:.2;fill:none;stroke:#000;stroke-width:2.78886676;stroke-linecap:round"/><path d="m24.398 37.586 1.39-7" style="fill:none;stroke:#eaeaea;stroke-width:2.78886676;stroke-linecap:round"/><path d="m29.954 38.586 1.389-7" style="opacity:.2;fill:none;stroke:#000;stroke-width:2.78886676;stroke-linecap:round"/><path d="m29.954 37.586 1.389-7" style="fill:none;stroke:#eaeaea;stroke-width:2.78886676;stroke-linecap:round"/><path d="m35.51 38.586 1.388-7" style="opacity:.2;fill:none;stroke:#000;stroke-width:2.78886676;stroke-linecap:round"/><path d="m35.51 37.586 1.388-7" style="fill:none;stroke:#eaeaea;stroke-width:2.78886676;stroke-linecap:round"/><path d="M27.652 42C26.334 42 25 43.4 25 44.828v2.633A4 4 0 0 0 27 48a4 4 0 0 0 4-4 4 4 0 0 0-.543-2ZM40 44a3 3 0 0 0-3 3 3 3 0 0 0 3 3 3 3 0 0 0 1-.176v-5.648A3 3 0 0 0 40 44" style="opacity:.2"/><path d="M9.777 4A2.783 2.783 0 0 0 7 6.8v1C7 6.25 8.238 5 9.777 5h44.446A2.783 2.783 0 0 1 57 7.8v-1C57 5.25 55.762 4 54.223 4z" style="opacity:.1;fill:#fff"/><path d="M28.5 51a1.5 1.5 0 0 0-1.5 1.5 1.5 1.5 0 0 0 .088.5 1.5 1.5 0 0 1 1.412-1 1.5 1.5 0 0 1 1.412 1 1.5 1.5 0 0 0 .088-.5 1.5 1.5 0 0 0-1.5-1.5m-.848-9C26.334 42 25 43.4 25 44.828v1C25 44.401 26.334 43 27.652 43h2.805a4 4 0 0 1 .506 1.502A4 4 0 0 0 31 44a4 4 0 0 0-.543-2zM40 44a3 3 0 0 0-3 3 3 3 0 0 0 .043.486A3 3 0 0 1 40 45a3 3 0 0 1 1 .176v-1A3 3 0 0 0 40 44" style="opacity:.1"/></svg>