<svg xmlns="http://www.w3.org/2000/svg" width="64" height="64"><path d="M13.1 5h37.8c1.16 0 2.1.963 2.1 2.154v47.384C53 58.108 50.18 61 46.7 61H13.1c-1.16 0-2.1-.963-2.1-2.154V7.154C11 5.964 11.94 5 13.1 5m0 0" style="opacity:.2"/><path fill="#f6d32d" d="M13.1 4h37.8c1.16 0 2.1.963 2.1 2.154v47.384C53 57.108 50.18 60 46.7 60H13.1c-1.16 0-2.1-.963-2.1-2.154V6.154C11 4.964 11.94 4 13.1 4m0 0"/><path d="M20 42a1 1 0 0 0-1 1v3h-3a1 1 0 0 0-1 1v2a1 1 0 0 0 1 1h3v3a1 1 0 0 0 1 1h2a1 1 0 0 0 1-1v-3h3a1 1 0 0 0 1-1v-2a1 1 0 0 0-1-1h-3v-3a1 1 0 0 0-1-1zm25.5 0a3.5 3.5 0 0 0 0 7 3.5 3.5 0 0 0 0-7m-9 5a3.5 3.5 0 0 0 0 7 3.5 3.5 0 0 0 0-7" style="opacity:.1"/><path d="M16 45h10a1 1 0 0 1 1 1v2a1 1 0 0 1-1 1H16a1 1 0 0 1-1-1v-2a1 1 0 0 1 1-1m0 0" style="fill:#424048"/><path d="M23 42v10a1 1 0 0 1-1 1h-2a1 1 0 0 1-1-1V42a1 1 0 0 1 1-1h2a1 1 0 0 1 1 1m0 0" style="fill:#424048"/><path fill="#3584e4" d="M40 49.5a3.5 3.5 0 0 1-7 0 3.5 3.5 0 0 1 7 0m0 0"/><path fill="#ed333b" d="M49 44.5a3.5 3.5 0 0 1-7 0 3.5 3.5 0 0 1 7 0m0 0"/><path d="M15 7h34a1 1 0 0 1 1 1v21a4 4 0 0 1-4 4H15a1 1 0 0 1-1-1V8a1 1 0 0 1 1-1m0 0" style="fill:#424048"/><path fill="#e01b24" d="M19.2 15.724a.7.7 0 0 1-.7.7.7.7 0 0 1-.7-.7.7.7 0 0 1 1.4 0m0 0"/><path fill="#9a9996" d="M17.1 15.024a.7.7 0 0 0-.7.7.7.7 0 0 0 1.05.607.697.697 0 0 1 0-1.211.7.7 0 0 0-.35-.096m-1.4 0a.7.7 0 0 0-.7.7.7.7 0 0 0 1.05.607.697.697 0 0 1 0-1.211.7.7 0 0 0-.35-.096m0 0"/><path d="M20 11h24v18H20Zm0 0" style="fill:#757376;fill-opacity:.509804"/><path d="M50 28a4 4 0 0 1-4 4H15a1 1 0 0 1-1-1v1a1 1 0 0 0 1 1h31a4 4 0 0 0 4-4z" style="opacity:.1"/><path d="M13.1 4c-1.161 0-2.1.964-2.1 2.154v1C11 5.964 11.939 5 13.1 5h37.8c1.161 0 2.1.964 2.1 2.154v-1C53 4.964 52.061 4 50.9 4z" style="fill:#fff;opacity:.2"/></svg>