<svg xmlns="http://www.w3.org/2000/svg" width="64" height="64"><rect width="60" height="44" x="2" y="14" rx="4" ry="4" style="opacity:.2"/><path d="M2 49v4c0 2.216 1.784 4 4 4h52c2.216 0 4-1.784 4-4v-4l-4 3H6Z" style="fill:#ff8915"/><rect width="60" height="44" x="2" y="10" rx="4" ry="4" style="opacity:.2"/><rect width="60" height="44" x="2" y="9" rx="4" ry="4" style="fill:#e4e4e4"/><g style="opacity:.1"><rect width="14" height="14" x="48" y="39" rx="4" ry="4"/><path d="M57 39h5v5h-5zm-9 9h5v5h-5z"/></g><rect width="14" height="3" x="8" y="14" ry="0" style="fill:#ff8915"/><path d="M8 20v3h16v-3Zm0 6v3h14v-3Zm0 6v3h16v-3Zm30 0v3h10v-3ZM8 38v3h10v-3Zm30 0v3h16v-3ZM8 44v3h16v-3Zm30 0v3h16v-3Z" style="fill:#9c9891"/><path d="M6 9c-2.216 0-4 1.784-4 4v1c0-2.216 1.784-4 4-4h52c2.216 0 4 1.784 4 4v-1c0-2.216-1.784-4-4-4Z" style="opacity:.2;fill:#fff"/><circle cx="41" cy="27" r="3" style="fill:#ff8915"/><path d="M38 19v1.408c.01.751.62 1.354 1.371 1.355 3.762 0 6.874 3.123 6.874 6.866.001.757.606 1.37 1.363 1.371H49v-1.355C49 23.476 44.873 19 39.75 19Z" style="fill:#ff8915"/><path d="M54 28.551C54 20.667 47.582 14 39.726 14H38v1.352c0 .729.603 1.315 1.332 1.316 6.62 0 12.01 5.395 12 12.016A1.333 1.333 0 0 0 52.664 30H54" style="fill:#ff8915"/><path d="M52 40c-2.216 0-4 1.784-4 4v10l14-14Z" style="opacity:.1"/><path d="M52 39c-2.216 0-4 1.784-4 4v10l14-14Z" style="fill:#fafafa"/></svg>