<svg xmlns="http://www.w3.org/2000/svg" width="64" height="64"><path d="M24 5s5 5 5 7C29 22 4 36 4 44c0 9 30 17 30 17s-13-6-13-12c0-4 18-20 18-27S24 5 24 5m20 19s1 2 1 3c0 6-15 15-15 22 0 2.603 5 6 5 6s-1-2.626-1-4c0-4 15-13 15-21 0-2-5-6-5-6m10 6s2 3 2 4c0 5-5 10-8 12-6 4-8 12-8 12s7-5 13-9c4.16-2.774 7-6.5 7-9 0-4-6-10-6-10" style="opacity:.2"/><path d="M24 4s5 5 5 7C29 21 4 35 4 43c0 9 30 17 30 17s-13-6-13-12c0-4 18-20 18-27S24 4 24 4m20 19s1 2 1 3c0 6-15 15-15 22 0 2.603 5 6 5 6s-1-2.626-1-4c0-4 15-13 15-21 0-2-5-6-5-6m10 6s2 3 2 4c0 5-5 10-8 12-6 4-8 12-8 12s7-5 13-9c4.16-2.774 7-6.5 7-9 0-4-6-10-6-10" style="fill:#ff5722"/><path d="M24 4s1.309 1.314 2.588 2.861c4.138 3.103 11.852 9.517 12.377 14.604.016-.157.035-.316.035-.465 0-7-15-17-15-17m4.951 7.646C27.931 21.596 4 35.17 4 43c0 .16.03.319.049.479C5.066 35.403 29 21.788 29 12c0-.108-.021-.229-.049-.354M44 23s.357.741.646 1.543c1.228 1.046 3.992 3.55 4.313 5.172q.04-.359.041-.715c0-2-5-6-5-6m.955 3.578C44.065 32.568 30 41.222 30 48c0 .12.021.241.041.363C30.889 41.461 45 32.82 45 27q-.002-.192-.045-.422M54 29s.991 1.502 1.576 2.736c1.675 1.954 4.103 5.184 4.383 7.787q.04-.269.041-.523c0-4-6-10-6-10m1.955 4.756C55.493 38.496 50.85 43.1 48 45c-6 4-8 12-8 12s.367-.258.396-.28C41.224 54.31 43.462 49.026 48 46c3-2 8-7 8-12 0-.066-.028-.161-.045-.244m-34.908 14.86Q21 48.822 21 49c0 3.748 5.073 7.496 8.88 9.781C32.31 59.537 34 60 34 60s-12.124-5.597-12.953-11.385m13.002 1.978Q34 50.804 34 51c0 .76.28 1.802.553 2.672.175.127.447.328.447.328s-.754-1.985-.951-3.406" style="fill:#fff;opacity:.2"/></svg>