<svg xmlns="http://www.w3.org/2000/svg" width="64" height="64"><path d="M4.242 4.148a2 2 0 0 0-1.086 1.079 2 2 0 0 0 1.07 2.617l3.766 1.578a2 2 0 0 0 .164.058c1.984.632 2.775 1.885 3.305 3.707C11.99 15.01 12 17.255 12 19a2 2 0 0 0 2 2 2 2 0 0 0 2-2c0-1.71.057-4.328-.7-6.93-.755-2.601-2.582-5.336-5.929-6.402l.164.062-3.762-1.574a2 2 0 0 0-1.53-.008M61 41.857v9.857C61 54.09 58.919 56 56.333 56H9.667C7.08 56 5 54.089 5 51.714v-9.857z" style="opacity:.2"/><path d="M61 40.857v9.857C61 53.09 58.919 55 56.333 55H9.667C7.08 55 5 53.089 5 50.714v-9.857z" style="fill:#5e5c64"/><path d="M9.666 20C7.081 20 5 22.007 5 24.5v19C5 45.993 7.081 48 9.666 48h46.666C58.917 48 61 45.993 61 43.5v-19c0-2.493-2.083-4.5-4.668-4.5H10.25Z" style="opacity:.2"/><path d="M9.666 19C7.081 19 5 21.007 5 23.5v19C5 44.993 7.081 47 9.666 47h46.666C58.917 47 61 44.993 61 42.5v-19c0-2.493-2.083-4.5-4.668-4.5H10.25Z" style="fill:#77767b"/><path d="M9.668 19C7.083 19 5 21.007 5 23.5v1C5 22.007 7.083 20 9.668 20h46.664C58.917 20 61 22.007 61 24.5v-1c0-2.493-2.083-4.5-4.668-4.5z" style="opacity:.1;fill:#fff"/><path d="M51 29.032v6.59h2v-6.59zm-38 0v6.59h2v-6.59zm20 0v6.59h2v-6.59z" style="fill:#8a8a8a"/><path d="M39 28c0 2.208-2.239 4-5 4s-5-1.792-5-4c0-2.21 2.239-4 5-4s5 1.79 5 4m0 0" style="opacity:.2"/><path d="M39 27c0 2.208-2.239 4-5 4s-5-1.792-5-4c0-2.21 2.239-4 5-4s5 1.79 5 4m0 0" style="fill:#458fe6"/><path d="M37.75 27c0 1.472-1.678 2.667-3.75 2.667S30.25 28.472 30.25 27s1.678-2.667 3.75-2.667 3.75 1.195 3.75 2.667m0 0" style="fill:#3d3846"/><path d="M19 28c0 2.21-2.237 4-5 4-2.761 0-5-1.79-5-4 0-2.208 2.239-4 5-4 2.763 0 5 1.792 5 4m0 0" style="opacity:.2"/><path d="M19 27c0 2.21-2.237 4-5 4-2.761 0-5-1.79-5-4 0-2.208 2.239-4 5-4 2.763 0 5 1.792 5 4m0 0" style="fill:#458fe6"/><path d="M11 20.182v7.316C11.001 28.879 12.344 30 14 30c1.654 0 2.997-1.118 2.999-2.5v-.003L17 20.182c-.476 1.05-1.67 1.453-3 1.453s-2.523-.403-3-1.453" style="opacity:.2"/><path d="M11 19.182v7.316C11.001 27.879 12.344 29 14 29c1.654 0 2.997-1.118 2.999-2.5v-.003L17 19.182c-.476 1.05-1.67 1.453-3 1.453s-2.523-.403-3-1.453" style="fill:#b4b4b4"/><path d="M17 19c0 1.104-1.343 2-3 2s-3-.896-3-2 1.343-2 3-2 3 .896 3 2m0 0" style="fill:#dfdfdf"/><path d="M14 18c0-3.455.093-9.727-5.237-11.425L5 5" style="fill:none;stroke:#458fe6;stroke-width:4;stroke-linecap:round;stroke-linejoin:round"/><path d="M57 28c0 2.208-2.239 4-5 4s-5-1.792-5-4c0-2.21 2.239-4 5-4s5 1.79 5 4m0 0" style="opacity:.2"/><path d="M57 27c0 2.208-2.239 4-5 4s-5-1.792-5-4c0-2.21 2.239-4 5-4s5 1.79 5 4m0 0" style="fill:#458fe6"/><path d="M55.75 27c0 1.472-1.678 2.667-3.75 2.667S48.25 28.472 48.25 27s1.678-2.667 3.75-2.667 3.75 1.195 3.75 2.667m0 0" style="fill:#3d3846"/><path d="M39 40c0 2.208-2.239 4-5 4s-5-1.792-5-4c0-2.21 2.239-4 5-4s5 1.79 5 4m0 0" style="opacity:.2"/><path d="M39 39c0 2.208-2.239 4-5 4s-5-1.792-5-4c0-2.21 2.239-4 5-4s5 1.79 5 4m0 0" style="fill:#ea5259"/><path d="M37.75 39c0 1.472-1.678 2.667-3.75 2.667S30.25 40.472 30.25 39s1.678-2.667 3.75-2.667 3.75 1.195 3.75 2.667m0 0" style="fill:#3d3846"/><path d="M57 40c0 2.208-2.239 4-5 4s-5-1.792-5-4c0-2.21 2.239-4 5-4s5 1.79 5 4m0 0" style="opacity:.2"/><path d="M57 39c0 2.208-2.239 4-5 4s-5-1.792-5-4c0-2.21 2.239-4 5-4s5 1.79 5 4m0 0" style="fill:#ea5259"/><path d="M55.75 39c0 1.472-1.678 2.667-3.75 2.667S48.25 40.472 48.25 39s1.678-2.667 3.75-2.667 3.75 1.195 3.75 2.667m0 0" style="fill:#3d3846"/><path d="M19 40c0 2.208-2.239 4-5 4s-5-1.792-5-4c0-2.21 2.239-4 5-4s5 1.79 5 4m0 0" style="opacity:.2"/><path d="M19 39c0 2.208-2.239 4-5 4s-5-1.792-5-4c0-2.21 2.239-4 5-4s5 1.79 5 4m0 0" style="fill:#ea5259"/><path d="M17.75 39c0 1.472-1.678 2.667-3.75 2.667S10.25 40.472 10.25 39s1.678-2.667 3.75-2.667 3.75 1.195 3.75 2.667m0 0" style="fill:#3d3846"/><path d="M4.746 3.016a2 2 0 0 0-.504.132 2 2 0 0 0-1.086 1.079 2 2 0 0 0-.072 1.26 2 2 0 0 1 .072-.26 2 2 0 0 1 1.086-1.079 2 2 0 0 1 .504-.132 2 2 0 0 1 1.027.14l3.68 1.54c3.294 1.084 5.098 3.794 5.848 6.374.626 2.154.692 4.288.697 5.94L16 18c0-1.71.057-4.328-.7-6.93-.75-2.58-2.553-5.29-5.847-6.375l-3.68-1.539a2 2 0 0 0-1.027-.14" style="opacity:.2;fill:#fff"/></svg>