<svg xmlns="http://www.w3.org/2000/svg" width="64" height="64"><rect width="58" height="42" x="3" y="12" rx="3.955" ry="3.938" style="opacity:.2"/><rect width="58" height="42" x="3" y="11" rx="3.955" ry="3.938" style="fill:#9e5fb0"/><path d="m32 25 6 11.846V53h-6z" style="fill:#a7a6a4"/><path d="m32 25-6 11.846V53h6z" style="fill:#d6d5d3"/><path d="M6.955 11A3.94 3.94 0 0 0 3 14.938v1A3.94 3.94 0 0 1 6.955 12h50.09A3.94 3.94 0 0 1 61 15.938v-1A3.94 3.94 0 0 0 57.045 11zM32 25l-6 11.846v1L32 26l6 11.846v-1z" style="fill:#fff;opacity:.2"/></svg>