<svg xmlns="http://www.w3.org/2000/svg" width="64" height="64"><path d="M53.676 49.711 36.3 59.823a8.66 8.66 0 0 1-8.7.011l-17.14-9.907a8.79 8.79 0 0 1-4.377-7.572L6 23.873a8.78 8.78 0 0 1 4.31-7.61l17.053-10.06a8.66 8.66 0 0 1 8.7-.062l17.46 9.959a8.73 8.73 0 0 1 4.391 7.546L58 42.128a8.73 8.73 0 0 1-4.324 7.583" style="opacity:.2"/><path d="M53.676 48.711 36.3 58.823a8.66 8.66 0 0 1-8.7.011l-17.14-9.907a8.79 8.79 0 0 1-4.377-7.572L6 22.873a8.78 8.78 0 0 1 4.31-7.61l17.053-10.06a8.66 8.66 0 0 1 8.7-.062l17.46 9.959a8.73 8.73 0 0 1 4.391 7.546L58 41.128a8.73 8.73 0 0 1-4.324 7.583" style="fill:#e4e4e4"/><path d="M32 19c-11.668 0-19.168 7.926-19.168 7.926a3 3 0 0 0 .094 4.242 3 3 0 0 0 4.242-.094S23.048 25 32 25s14.832 6.074 14.832 6.074a3 3 0 0 0 4.242.094 3 3 0 0 0 .094-4.242S43.668 19 32 19m0 10c-7.813 0-12.285 5.059-12.285 5.059a3 3 0 0 0 .344 4.226 3 3 0 0 0 4.226-.344s2.325-2.94 7.715-2.94 7.715 2.94 7.715 2.94a3 3 0 0 0 4.226.344 3 3 0 0 0 .344-4.226S39.813 29 32 29m0 10a4 4 0 0 0-4 4 4 4 0 0 0 4 4 4 4 0 0 0 4-4 4 4 0 0 0-4-4" style="opacity:.1;stop-color:#000"/><path d="M22 35s3.398-4 10-4 10 4 10 4" style="fill:none;stroke-linecap:round;stroke-linejoin:round;stroke-width:5.99998;stroke:#ff9026"/><circle cx="32" cy="42" r="4" style="fill:#ff9026"/><path d="M15 28s6.69-7 17-7 17 7 17 7" style="fill:none;stroke-linecap:round;stroke-linejoin:round;stroke-width:5.99998;stroke:#ff9026"/><path d="M31.703 4a8.65 8.65 0 0 0-4.34 1.203L10.31 15.262A8.78 8.78 0 0 0 6 22.872l.004.708a8.78 8.78 0 0 1 4.305-7.318L27.363 6.203a8.65 8.65 0 0 1 8.7-.062l17.46 9.957a8.73 8.73 0 0 1 4.391 7.547l.082 17.718q.004-.117.004-.234l-.086-18.484a8.73 8.73 0 0 0-4.39-7.547L36.062 5.14A8.66 8.66 0 0 0 31.703 4" style="fill:#fff;opacity:.2"/></svg>