<svg xmlns="http://www.w3.org/2000/svg" xmlns:xlink="http://www.w3.org/1999/xlink" width="64" height="64"><defs><radialGradient xlink:href="#a" id="d" cx="31.468" cy="34.686" r="20" fx="31.468" fy="34.686" gradientTransform="matrix(1.6833 -1.64565 .9378 .95926 -54.031 42.64)" gradientUnits="userSpaceOnUse"/><radialGradient xlink:href="#b" id="e" cx="9.667" cy="56.387" r="28" fx="9.667" fy="56.387" gradientTransform="rotate(-2.475 -875.725 366.623)scale(2.33293 1.5546)" gradientUnits="userSpaceOnUse"/><radialGradient xlink:href="#c" id="f" cx="41.836" cy="15.105" r="5" fx="41.836" fy="15.105" gradientTransform="rotate(-22.38 -51.974 616.76)scale(6.36236 6.1981)" gradientUnits="userSpaceOnUse"/><radialGradient xlink:href="#c" id="g" cx="41.836" cy="15.105" r="5" fx="41.836" fy="15.105" gradientTransform="rotate(-22.38 -62.78 671.388)scale(6.36236 6.1981)" gradientUnits="userSpaceOnUse"/><linearGradient id="a"><stop offset="0" style="stop-color:#e1e1e1;stop-opacity:1"/><stop offset="1" style="stop-color:#9b9b9b;stop-opacity:1"/></linearGradient><linearGradient id="b"><stop offset="0" style="stop-color:#4f4f4f;stop-opacity:1"/><stop offset="1" style="stop-color:#363636;stop-opacity:1"/></linearGradient><linearGradient id="c"><stop offset="0" style="stop-color:#2f2f2f;stop-opacity:1"/><stop offset="1" style="stop-color:#000;stop-opacity:1"/></linearGradient><filter id="h" width="1.051" height="1.748" x="-.026" y="-.374" style="color-interpolation-filters:sRGB"><feGaussianBlur stdDeviation=".597"/></filter></defs><path d="M12 4.783h40v20H12z" style="fill:url(#d)"/><rect width="56" height="34" x="4" y="22.783" rx="2.8" ry="2.834" style="fill:url(#e)"/><rect width="32" height="4" x="16" y="30.783" rx="2" ry="2" style="opacity:.4;stroke-width:2"/><rect width="24" height="4" x="20" y="38.783" rx="1.852" ry="1.852" style="opacity:.4;stroke-width:2"/><rect width="16" height="4" x="24" y="46.783" rx="2" ry="2" style="opacity:.4;stroke-width:2"/><rect width="10" height="6" x="38" y="8.783" rx="1.048" ry="1.462" style="fill:url(#f)"/><rect width="10" height="6" x="16.386" y="8.783" rx="1.048" ry="1.462" style="fill:url(#g)"/><path d="M4 53.951v1c0 1.57 1.25 2.832 2.8 2.832h50.4c1.55 0 2.8-1.262 2.8-2.832v-1c0 1.57-1.25 2.832-2.8 2.832H6.8c-1.55 0-2.8-1.262-2.8-2.832" style="opacity:.386824;filter:url(#h)"/></svg>