<svg xmlns="http://www.w3.org/2000/svg" width="64" height="64"><rect width="56" height="56" x="4" y="5" ry="12.445" style="opacity:.2"/><rect width="56" height="56" x="4" y="4" ry="12.445" style="fill:#009f9f"/><path d="M14.008 15 14 25.992 24.99 26 25 15.008Zm14 0L28 25.992 38.99 26 39 15.008Zm-14 14L14 39.992 24.99 40 25 29.008Zm14.012 0L28 50.98l21.984.02L50 29.02Z" style="opacity:.2"/><path d="M14.008 14 14 24.992 24.99 25 25 14.008zm14 0L28 24.992 38.99 25 39 14.008zm-14 14L14 38.992 24.99 39 25 28.008zm14.012 0L28 49.98l21.984.02L50 28.02z" style="fill:#fff"/><path d="M16.445 4A12.42 12.42 0 0 0 4 16.445v1A12.42 12.42 0 0 1 16.445 5h31.11A12.42 12.42 0 0 1 60 17.445v-1A12.42 12.42 0 0 0 47.555 4z" style="fill:#fff;opacity:.1"/></svg>