<svg xmlns="http://www.w3.org/2000/svg" width="64" height="64"><path d="M8.967 15.395a3.99 3.99 0 0 0-2.829 4.899l5.177 19.318 4.4 16.421a3.99 3.99 0 0 0 4.899 2.829l30.91-8.283a3.99 3.99 0 0 0 2.828-4.899L44.776 9.941a3.99 3.99 0 0 0-4.9-2.828z" opacity=".2"/><path fill="#7767c0" d="m11.315 38.612 4.4 16.421a3.99 3.99 0 0 0 4.899 2.829l30.91-8.283a3.99 3.99 0 0 0 2.828-4.899l-4.4-16.42z"/><path fill="#248afd" d="M8.967 14.395a3.99 3.99 0 0 0-2.828 4.9l5.176 19.318L49.952 28.26 44.776 8.941a3.99 3.99 0 0 0-4.9-2.828z"/><path fill="#fff" d="M8.967 14.395a3.99 3.99 0 0 0-2.828 4.899l.259.966a3.99 3.99 0 0 1 2.828-4.9l30.91-8.281a3.99 3.99 0 0 1 4.899 2.828l-.259-.966a3.99 3.99 0 0 0-4.899-2.828z" opacity=".2"/><path d="M22.926 5.003a3.99 3.99 0 0 0-3.701 2.963L9.655 43.68a3.993 3.993 0 0 0 2.828 4.9L40.178 56h6.896a4 4 0 0 0 1.219-1.966L57.86 18.32a3.993 3.993 0 0 0-2.828-4.9l-30.91-8.282a4 4 0 0 0-1.197-.135" opacity=".2"/><path fill="#b6b6b6" d="m24.127 4.139 30.91 8.282a3.99 3.99 0 0 1 2.829 4.898l-9.57 35.713a3.99 3.99 0 0 1-4.9 2.829l-30.91-8.282a3.99 3.99 0 0 1-2.828-4.9l9.57-35.712a3.99 3.99 0 0 1 4.899-2.829"/><path fill="#fff" d="M24.123 4.138a3.99 3.99 0 0 0-4.899 2.829l-.259.966a3.99 3.99 0 0 1 4.9-2.829l30.91 8.282a3.99 3.99 0 0 1 2.828 4.9l.259-.966a3.99 3.99 0 0 0-2.829-4.9z" opacity=".2"/><rect width="40" height="48" x="12" y="9" opacity=".2" rx="4" ry="4"/><rect width="40" height="48" x="12" y="8" fill="#e4e4e4" rx="4" ry="4"/><path fill="#e83c44" d="M16 8c-2.216 0-4 1.784-4 4v20h40V22H42c-2.216 0-4-1.784-4-4V8zm35.981 3.59"/><path d="M18 50h28v3H18zm0-5h28v3H18zm0-5h28v3H18zm0-5h28v3H18z" opacity=".2"/><path fill="#e4e4e4" d="M18 22h12v3H18z"/><path fill="#fff" d="M18 16h14v3H18zm20-8v10c0 2.216 1.784 4 4 4h10z"/><path d="M38 18v1c0 2.216 1.784 4 4 4h10v-1H42c-2.216 0-4-1.784-4-4" opacity=".2"/><path fill="#fff" d="M16 8c-2.216 0-4 1.784-4 4v1c0-2.216 1.784-4 4-4h32c2.216 0 4 1.784 4 4v-1c0-2.216-1.784-4-4-4z" opacity=".2"/></svg>