<svg xmlns="http://www.w3.org/2000/svg" width="64" height="64"><rect width="48" height="56" x="8" y="5" rx="2.824" ry="2.8" style="opacity:.2"/><rect width="48" height="56" x="8" y="4" rx="2.824" ry="2.8" style="fill:#77767b"/><path d="M14 13v10h2.665c0-6.263 2.24-5.78 5.921-6H28v25.6c0 6.667-2.5 7.778-7 7.778V53h22v-2.622c-4.5 0-7-1.11-7-7.778V17h5.414c3.68.22 5.92-.263 5.92 6H50V13H18.5Z" style="opacity:.2"/><path d="M14 12v10h2.665c0-6.263 2.24-5.78 5.921-6H28v25.6c0 6.667-2.5 7.778-7 7.778V52h22v-2.622c-4.5 0-7-1.11-7-7.778V16h5.414c3.68.22 5.92-.263 5.92 6H50V12H18.5Z" style="fill:#deddda"/><path d="M14 12v1h36v-1zm14 29.602c0 6.666-2.5 7.777-7 7.777v1c4.5 0 7-1.11 7-7.777zm8 0v1c0 6.666 2.5 7.777 7 7.777v-1c-4.5 0-7-1.11-7-7.777" style="opacity:.2;fill:#fff"/><path d="M10.824 4A2.807 2.807 0 0 0 8 6.8v1C8 6.25 9.26 5 10.824 5h42.352A2.807 2.807 0 0 1 56 7.8v-1C56 5.25 54.74 4 53.176 4z" style="opacity:.1;fill:#fff"/></svg>