<svg xmlns="http://www.w3.org/2000/svg" width="64" height="64"><circle cx="32" cy="33" r="29" style="opacity:.2"/><circle cx="32" cy="32" r="29" style="fill:#e4e4e4"/><path d="M33.09 8c-.366 0-.733.089-1.059.268-.647.355-1.031.987-1.031 1.689v2.77c-8.299.405-15.292 5.819-18.04 13.275C9.684 26.023 7 28.717 7 32c0 3.068 2.342 5.622 5.324 5.96a20.35 20.35 0 0 0 6.723 10.65l1.539-2.473a17.4 17.4 0 0 1-5.375-8.565C17.423 36.686 19 34.516 19 32c0-2.293-1.31-4.298-3.217-5.307C18.188 20.49 24.036 16.026 31 15.633v2.41c0 .702.384 1.336 1.031 1.691.325.18.69.266 1.055.266.367 0 .733-.09 1.06-.271l6.325-3.223C41.427 15.975 42 15.038 42 14s-.572-1.974-1.53-2.504l-6.324-3.223A2.2 2.2 0 0 0 33.09 8m.91 3.621L38.8 14 34 16.379v-3.336zm10.953 5.77-1.539 2.472a17.4 17.4 0 0 1 4.799 6.832C46.308 27.705 45 29.708 45 32c0 2.516 1.576 4.685 3.787 5.572-1.918 7.09-8.19 12.366-15.787 12.795v-2.41c0-.702-.384-1.336-1.031-1.691A2.2 2.2 0 0 0 30.914 46c-.367 0-.733.09-1.06.271l-6.325 3.223C22.573 50.025 22 50.962 22 52s.572 1.974 1.53 2.504l6.324 3.223a2.2 2.2 0 0 0 2.115.006c.647-.356 1.031-.988 1.031-1.69v-2.768c9.04-.44 16.534-6.823 18.676-15.314C54.658 37.62 57 35.068 57 32c0-3.283-2.683-5.977-5.96-5.998a20.4 20.4 0 0 0-6.087-8.611M32 24c-4.953 0-9 4.047-9 9s4.047 9 9 9 9-4.047 9-9-4.047-9-9-9m0 3c3.331 0 6 2.669 6 6s-2.669 6-6 6-6-2.669-6-6 2.669-6 6-6m-19 2c1.675 0 3 1.325 3 3s-1.325 3-3 3-3-1.325-3-3 1.325-3 3-3m38 0c1.675 0 3 1.325 3 3s-1.325 3-3 3-3-1.325-3-3 1.325-3 3-3m-19 1a3 3 0 0 0-3 3 3 3 0 0 0 3 3 3 3 0 0 0 3-3 3 3 0 0 0-3-3m-2 19.621v4.758L25.2 52z" style="opacity:.1"/><path d="M32 11.7c-9.468 0-17.43 6.517-19.664 15.3h3C17.478 19.82 24.113 14.602 32 14.602Zm12.953 4.69-1.539 2.473A17.4 17.4 0 0 1 48.664 27h3a20.34 20.34 0 0 0-6.71-10.61M14.887 35.138a3.6 3.6 0 0 1-1.739.488 3.6 3.6 0 0 1-1.152-.195c.832 4.868 3.406 9.147 7.05 12.18l1.54-2.473a17.35 17.35 0 0 1-5.7-10m34.226 0C47.641 43.26 40.556 49.398 32 49.398v2.903c10.025 0 18.369-7.306 20.004-16.871-.371.127-.76.193-1.152.195a3.6 3.6 0 0 1-1.739-.488" style="fill:#007bff"/><circle cx="13" cy="31" r="4.5" style="fill:none;stroke:#007bff;stroke-width:3;stroke-linecap:round;stroke-linejoin:round"/><circle cx="51" cy="31" r="4.5" style="fill:none;stroke:#007bff;stroke-width:3;stroke-linecap:round;stroke-linejoin:round"/><circle cx="32" cy="32" r="7.5" style="fill:none;stroke:#007bff;stroke-width:3;stroke-linecap:round;stroke-linejoin:round"/><circle cx="32" cy="32" r="3" style="fill:#007bff"/><path d="M33.089 7c-.366 0-.732.088-1.058.267-.647.355-1.031.988-1.031 1.69v8.086c0 .702.384 1.335 1.031 1.69.325.18.69.267 1.055.267.367 0 .733-.09 1.06-.272l6.324-3.223C41.427 14.974 42 14.038 42 13s-.572-1.975-1.53-2.505l-6.324-3.223A2.2 2.2 0 0 0 33.09 7m.91 3.621L38.8 13 34 15.379v-3.337zM30.911 57c.366 0 .732-.088 1.058-.267.647-.355 1.031-.988 1.031-1.69v-8.086c0-.702-.384-1.335-1.031-1.69A2.2 2.2 0 0 0 30.914 45c-.367 0-.733.09-1.06.272l-6.324 3.223C22.573 49.026 22 49.962 22 51s.572 1.975 1.53 2.505l6.324 3.223c.325.18.691.271 1.057.272M30 53.379 25.2 51l4.8-2.379v3.337z" style="fill:#007bff"/><path d="M32 3A29 29 0 0 0 3 32a29 29 0 0 0 .033.482A29 29 0 0 1 32 4a29 29 0 0 1 28.982 28.229L61 32A29 29 0 0 0 32 3" style="opacity:.2;fill:#fff"/></svg>