<svg xmlns="http://www.w3.org/2000/svg" width="64" height="64"><path d="m7 3 6 6m44-6-6 6" style="fill:none;stroke:#afb42b;stroke-width:3;stroke-linecap:round"/><rect width="44" height="32" x="10" y="29" rx="3" ry="3" style="opacity:.2"/><rect width="44" height="18" x="10" y="5" rx="3" ry="3" style="opacity:.2"/><rect width="44" height="18" x="10" y="4" rx="3" ry="3" style="fill:#aeea00"/><rect width="44" height="32" x="10" y="28" rx="3" ry="3" style="fill:#1976d2"/><path d="M32 32a12 12 0 0 0-12 12 12 12 0 0 0 12 12 12 12 0 0 0 12-12 12 12 0 0 0-12-12m0 2a10 10 0 0 1 10 10 10 10 0 0 1-10 10 10 10 0 0 1-10-10 10 10 0 0 1 10-10m0 2a8 8 0 0 0-7.73 6h2.09A6 6 0 0 1 32 38a6 6 0 0 1 6 6 6 6 0 0 1-6 6 6 6 0 0 1-5.64-4h-2.09A8 8 0 0 0 32 52a8 8 0 0 0 8-8 8 8 0 0 0-8-8" style="fill:#0d47a1"/><path d="M13 4c-1.662 0-3 1.338-3 3v1c0-1.662 1.338-3 3-3h38c1.662 0 3 1.338 3 3V7c0-1.662-1.338-3-3-3Zm0 24c-1.662 0-3 1.338-3 3v1c0-1.662 1.338-3 3-3h38c1.662 0 3 1.338 3 3v-1c0-1.662-1.338-3-3-3z" style="opacity:.2;fill:#fff"/><circle cx="22" cy="14" r="4" style="opacity:.2"/><circle cx="22" cy="13" r="4" style="fill:#fff"/><circle cx="42" cy="14" r="4" style="opacity:.2"/><circle cx="42" cy="13" r="4" style="fill:#fff"/></svg>