<svg xmlns="http://www.w3.org/2000/svg" width="64" height="64"><rect width="57" height="57" x="4" y="4" rx="4.275" ry="4.275" style="opacity:.2"/><rect width="57" height="57" x="4" y="3" rx="4.275" ry="4.275" style="fill:#2ec27e"/><path d="M21 3h3v57h-3zm20 0h3v57h-3z" style="fill:#26a269"/><path d="M20-61h3v57h-3zm20 0h3v57h-3z" style="fill:#26a269" transform="rotate(90)"/><circle cx="32.5" cy="32.5" r="7.5" style="opacity:.2"/><circle cx="32.5" cy="31.5" r="7.5" style="fill:#fff"/><circle cx="52.5" cy="52.5" r="7.5" style="opacity:.2"/><circle cx="52.5" cy="51.5" r="7.5" style="fill:#fff"/><circle cx="52.5" cy="32.5" r="7.5" style="opacity:.1"/><circle cx="52.5" cy="31.5" r="7.5" style="fill:#3d3846"/><circle cx="32.5" cy="52.5" r="7.5" style="opacity:.1"/><circle cx="32.5" cy="51.5" r="7.5" style="fill:#3d3846"/><path d="M8.275 3A4.266 4.266 0 0 0 4 7.275v1A4.266 4.266 0 0 1 8.275 4h48.45A4.266 4.266 0 0 1 61 8.275v-1A4.266 4.266 0 0 0 56.725 3z" style="opacity:.2;fill:#fff"/></svg>