<svg xmlns="http://www.w3.org/2000/svg" width="64" height="64"><path d="M29 12h6v12h-6z" style="fill:#f7cf68"/><path d="M32 6a6 6 0 0 0-6 6 6 6 0 0 0 6 6 6 6 0 0 0 6-6 6 6 0 0 0-6-6m0 14a20 20 0 0 0-14.389 6.113c-2.206-.89-4.493-1.147-6.55-1.082C7.1 25.157 4 27 4 27s.003 14.23 8.229 15.846A20 20 0 0 0 32 60a20 20 0 0 0 19.78-17.176C59.996 41.204 60 27 60 27s-3.102-1.865-7.06-1.99c-2.068-.066-4.367.197-6.583 1.097A20 20 0 0 0 32 20" style="opacity:.2"/><path d="M52.94 24.01c-3.08-.098-6.677.497-9.74 2.915C40.547 29.019 40 36 40 36s6.438 5.981 10.2 5.981C60 41.981 60 26 60 26s-3.101-1.864-7.06-1.99m-41.88.022C7.101 24.157 4 26 4 26s0 16 9.8 16c3.762 0 10.2-6 10.2-6s-.547-6.962-3.2-9.057c-3.062-2.417-6.66-3.01-9.74-2.911" style="fill:#3dabab"/><path d="M51.764 24.008c-2.794.081-5.885.8-8.565 2.916C40.546 29.018 40 36 40 36l.104.09c.227-1.868.98-6.496 3.095-8.166 3.063-2.418 6.661-3.012 9.74-2.914 3.886.123 6.907 1.901 7.02 1.969.03-.576.041-.979.041-.979s-3.102-1.865-7.06-1.99a19 19 0 0 0-1.176-.002m-39.528.021q-.598-.016-1.175.002C7.1 24.157 4 26 4 26s.011.403.041.979c.113-.067 3.135-1.824 7.02-1.948 3.079-.097 6.677.495 9.74 2.912 2.114 1.67 2.867 6.283 3.095 8.147L24 36s-.546-6.963-3.2-9.057c-2.679-2.115-5.77-2.833-8.564-2.914" style="fill:#fff;opacity:.1"/><circle cx="32" cy="39" r="20" style="fill:#51c9cc"/><path d="M23 34c-1.108 0-2 .892-2 2v3c0 1.108.892 2 2 2s2-.892 2-2v-3c0-1.108-.892-2-2-2m18 0c-1.108 0-2 .892-2 2v3c0 1.108.892 2 2 2s2-.892 2-2v-3c0-1.108-.892-2-2-2m-15 9c-1.5 0-3 1.429-3 2.857 0 2.858 1.5 4.286 1.5 4.286.66.628 1.256 1.1 1.822 1.482C28.332 52.981 29.9 53 32 53s3.665-.02 5.674-1.375a14 14 0 0 0 1.826-1.482s1.5-1.428 1.5-4.286C41 44.43 39.5 43 38 43c-2.236 0-3 1.957-6 1.957S28.236 43 26 43" style="opacity:.1"/><rect width="4" height="7" x="21" y="33" ry="2" style="fill:#4a5469"/><rect width="4" height="7" x="39" y="33" ry="2" style="fill:#4a5469"/><path d="M26 42c-1.5 0-3 1.429-3 2.857 0 2.857 1.5 4.286 1.5 4.286.66.628 1.256 1.099 1.822 1.481h11.353a14 14 0 0 0 1.825-1.481s1.5-1.429 1.5-4.286C41 43.43 39.5 42 38 42c-2.236 0-3 1.957-6 1.957S28.236 42 26 42" style="fill:#4a5469"/><path d="M32 48.014c-2.57.002-4.853.872-5.678 2.61C28.332 51.98 29.9 52 32 52s3.666-.02 5.675-1.376c-.825-1.737-3.106-2.608-5.675-2.61" style="fill:#fd7d93"/><circle cx="32" cy="11" r="6" style="fill:#f5e0ac"/><path d="M32 5a6 6 0 0 0-6 6 6 6 0 0 0 .025.502A6 6 0 0 1 32 6a6 6 0 0 1 5.975 5.498A6 6 0 0 0 38 11a6 6 0 0 0-6-6m0 14a20 20 0 0 0-20 20 20 20 0 0 0 .021.418A20 20 0 0 1 32 20a20 20 0 0 1 19.979 19.582A20 20 0 0 0 52 39a20 20 0 0 0-20-20" style="fill:#fff;opacity:.2"/></svg>