<svg xmlns="http://www.w3.org/2000/svg" width="64" height="64"><rect width="45" height="56" x="-53" y="-61" rx="4.091" ry="4.148" style="opacity:.2" transform="scale(-1)"/><path d="M8 11v44.852C8 58.15 9.825 60 12.092 60h36.816C51.175 60 53 58.15 53 55.852V11z" style="fill:#e4e4e4"/><path d="M46.399 50A4.39 4.39 0 0 0 42 54.399v5.344c0 .44.082.857.201 1.257L53 50.201A4.4 4.4 0 0 0 51.743 50Z" clip-path="url(#clipPath1609-7)" style="opacity:.2"/><path d="M46.399 49A4.39 4.39 0 0 0 42 53.399v5.344c0 .44.082.857.201 1.257L53 49.201A4.4 4.4 0 0 0 51.743 49Z" clip-path="url(#clipPath1609-7)" style="fill:#fff"/><path d="M12.092 4C9.825 4 8 5.85 8 8.148V11h45V8.148C53 5.85 51.175 4 48.908 4Z" style="fill:#df574d"/><path d="M12.09 4C9.824 4 8 5.85 8 8.148v1C8 6.85 9.824 5 12.09 5h36.82C51.176 5 53 6.85 53 9.148v-1C53 5.85 51.176 4 48.91 4Z" style="opacity:.2;fill:#fff"/><path d="M8 11h45v1H8z" style="opacity:.1"/><path d="M12 56h3v-5.7l2.5 2.858L20 50.3V56h3V46h-3l-2.5 2.857L15 46h-3m15 0v6h-2.5l3.5 4h1l3.5-4H30v-6z" style="fill:#9e9e9e"/><path d="M11 16v3h30v-3zm0 6v3h12v-3zm15 0v3h23v-3zm-15 6v3h17v-3zm20 0v3h15v-3zm-20 6v3h23v-3z" style="fill:#bdbdbd"/></svg>