<svg xmlns="http://www.w3.org/2000/svg" width="64" height="64"><rect width="56" height="56" x="4" y="5" ry="11.2" style="opacity:.2"/><rect width="56" height="56" x="4" y="4" ry="11.2" style="fill:#0092dd"/><path d="M25.267 11.989C14.73 12.785 8.139 17.625 4 23.443V49c7.924-3.562 15.197-6.292 23.942-6 15.556.53 25.676-12.464 25.676-12.464l-.007-.014v-.007l-.007-.007-.006-.007-.007-.007-.021-.014c-11.493 3.237-17.1 6.674-31.179 2.822 15.423 5.562 35.796-14.674 35.535-15.816 0 0-13.348 8.654-27.58 5.919C53.123 17.82 60 1 60 1c-9.902 8.191-20.594 9.738-34.734 10.99z" style="opacity:.2"/><path d="M25.267 10.989C14.73 11.785 8.139 16.625 4 22.443V48c7.924-3.562 15.197-6.292 23.942-6 15.556.53 25.676-12.464 25.676-12.464l-.007-.014v-.007l-.007-.007-.006-.007-.007-.007-.021-.014c-11.493 3.237-17.1 6.674-31.179 2.822 15.423 5.562 35.796-14.674 35.535-15.816 0 0-13.348 8.654-27.58 5.919C53.123 16.82 60 0 60 0c-9.902 8.191-20.594 9.738-34.734 10.99z" style="fill:#fff"/><path d="M15.2 4C8.993 4 4 8.994 4 15.2v1C4 9.993 8.994 5 15.2 5h33.6C55.007 5 60 9.994 60 16.2v-1C60 8.993 55.006 4 48.8 4z" style="fill:#fff;opacity:.2"/></svg>