<svg xmlns="http://www.w3.org/2000/svg" width="64" height="64"><g style="opacity:.2"><path d="m33.412 24.84 15.588-9L46.206 29ZM22 41.16l-15.588-9L19.206 28ZM41 42v18l-10-9Z" style="stroke:#000;stroke-width:2;stroke-linejoin:round"/><path d="M28 7a6 6 0 0 0-5.144 2.914l-6.704 11.172L26.79 27.23 33 17l3.602 6.722 10.64-6.144-3.95-7.402A6 6 0 0 0 38 7Zm25.836 22.942L43.214 36.07 48 45h-8v12h10a6 6 0 0 0 5.368-3.316l4-8a6 6 0 0 0-.076-5.508Zm-44.89 3.152-4.09 6.82a6 6 0 0 0-.223 5.77l4 8A6 6 0 0 0 14 57h12V45H16l3.519-5.8Z"/></g><path d="m15.826 44-3.459 5.742a6.01 6.01 0 0 0-.222 5.776l.109.22c.558.17 1.145.262 1.746.262h12V44Zm38.01-15.059-10.606 6.12 5.036 9.441h6.232a6 6 0 0 0 5.369-3.316l.053-.108a6 6 0 0 0-.627-1.902ZM27.689 6.011a6 6 0 0 0-4.834 2.903l-6.703 11.172 10.637 6.144 6.606-10.941-3.844-7.191a6 6 0 0 0-1.862-2.086" style="fill:#006680"/><path d="m8.945 32.094-4.09 6.821a6 6 0 0 0-.222 5.77l4 8a6 6 0 0 0 4.469 3.246l-.457-.914a6.01 6.01 0 0 1 .222-5.774l6.653-11.042Zm50.727 7.981-.304.61a6 6 0 0 1-5.369 3.316H40v12h10a6 6 0 0 0 5.367-3.316l4.001-8a6 6 0 0 0 .304-4.61M28 6q-.7.002-1.368.16a6 6 0 0 1 2.418 2.438l7.552 14.124 10.64-6.144-3.95-7.402A6 6 0 0 0 38 6Z" style="fill:#008bae"/><path d="m33.412 23.84 15.588-9L46.206 28ZM22 40.16l-15.588-9L19.206 27ZM41 41v18l-10-9Z" style="fill:#008bae;stroke:#008bae;stroke-width:2;stroke-linejoin:round"/><path d="m59.672 40.074-.305.612a6 6 0 0 1-5.369 3.316H42v1h11.998a6 6 0 0 0 5.369-3.316l.305-.612c.159.469.26.952.301 1.44a6.1 6.1 0 0 0-.301-2.44M48.861 13.85a1 1 0 0 0-.361.125l-2.432 1.404.409.764 2.023-1.168a1 1 0 0 1 .361-.125 1 1 0 0 1 .381.019 1 1 0 0 1 .66.535l.077-.357a1 1 0 0 0-.737-1.178 1 1 0 0 0-.381-.019m-13.437 7.675-2.512 1.45a1 1 0 0 0-.334 1.351 1 1 0 0 1 .334-.351l2.92-1.686Zm-16.113 4.481a1 1 0 0 0-.415.043l-12.792 4.16a1 1 0 0 0-.526 1.465 1 1 0 0 1 .526-.465l12.792-4.16a1 1 0 0 1 .415-.043 1 1 0 0 1 .873.787l2.712 12.771a1 1 0 0 0 .083-.611l-2.795-13.16a1 1 0 0 0-.873-.787M41.033 40a1 1 0 0 0-.703.256l-10 9a1 1 0 0 0-.152 1.244 1 1 0 0 1 .152-.244l10-9a1 1 0 0 1 .703-.256 1 1 0 0 1 .373.086A1 1 0 0 1 42 42v-1a1 1 0 0 0-.594-.914 1 1 0 0 0-.373-.086M28 6a6 6 0 0 0-5.145 2.914l-6.703 11.172.446.258 6.257-10.43A6 6 0 0 1 28 7h10a6 6 0 0 1 5.293 3.176l2.775 5.203.409-.236-3.184-5.967A6 6 0 0 0 38 6Zm25.836 22.941L43.215 35.07l.41.764 10.211-5.893 5.457 10.235q.086.164.162.332l.217-.434c.16.471.26.956.301 1.446a6 6 0 0 0-.68-2.344ZM8.195 33.344l-3.339 5.57a6 6 0 0 0-.829 3.635c.07-.918.34-1.821.829-2.635l3.785-6.312ZM16.607 44 16 45h10v-1Z" style="fill:#fff;opacity:.1"/><path d="M27.809 7.006q-.6.02-1.176.154a6 6 0 0 1 2.418 2.438l3.67 6.863L33 16l-3.949-7.402a6 6 0 0 0-1.242-1.592M16.025 44l-3.158 5.242a6 6 0 0 0-.832 3.606 6 6 0 0 1 .832-2.606L16.629 44z" style="opacity:.2"/></svg>