<svg xmlns="http://www.w3.org/2000/svg" width="64" height="64"><rect width="56" height="56" x="4" y="5" rx="8.4" ry="8.4" style="opacity:.2"/><rect width="56" height="56" x="4" y="4" rx="8.4" ry="8.4" style="fill:#e74c3c"/><g style="opacity:.2" transform="translate(0 1)"><rect width="3" height="6" x="41" y="29" rx=".75" ry=".65"/><rect width="3" height="11" x="36" y="26" rx=".75" ry=".65"/><rect width="3" height="16" x="31" y="24" rx=".75" ry=".65"/><rect width="3" height="21" x="26" y="21" rx=".75" ry=".65"/><rect width="3" height="26" x="21" y="19" rx=".75" ry=".65"/><path d="M32 8A24 24 0 0 0 8 32a24 24 0 0 0 24 24 24 24 0 0 0 24-24A24 24 0 0 0 32 8m0 3a21 21 0 0 1 21 21 21 21 0 0 1-21 21 21 21 0 0 1-21-21 21 21 0 0 1 21-21"/><path d="M48.75 30c-.416 0-.75.29-.75.65v1.7c0 .36.334.65.75.65H60v-3ZM4 30v3h11.25c.415 0 .75-.29.75-.65v-1.7c0-.36-.335-.65-.75-.65Z"/></g><rect width="3" height="6" x="41" y="29" rx=".75" ry=".65" style="fill:#e4e4e4"/><rect width="3" height="11" x="36" y="26" rx=".75" ry=".65" style="fill:#e4e4e4"/><rect width="3" height="16" x="31" y="24" rx=".75" ry=".65" style="fill:#e4e4e4"/><rect width="3" height="21" x="26" y="21" rx=".75" ry=".65" style="fill:#e4e4e4"/><rect width="3" height="26" x="21" y="19" rx=".75" ry=".65" style="fill:#e4e4e4"/><path d="M12.4 4A8.38 8.38 0 0 0 4 12.4v1C4 8.747 7.747 5 12.4 5h39.2c4.653 0 8.4 3.747 8.4 8.4v-1C60 7.747 56.253 4 51.6 4z" style="fill:#fff;opacity:.2"/><path d="M32 8A24 24 0 0 0 8 32a24 24 0 0 0 24 24 24 24 0 0 0 24-24A24 24 0 0 0 32 8m0 3a21 21 0 0 1 21 21 21 21 0 0 1-21 21 21 21 0 0 1-21-21 21 21 0 0 1 21-21" style="fill:#e4e4e4"/><path d="M48.75 30c-.416 0-.75.29-.75.65v1.7c0 .36.334.65.75.65H60v-3zM4 30v3h11.25c.415 0 .75-.29.75-.65v-1.7c0-.36-.335-.65-.75-.65z" style="fill:#e4e4e4"/></svg>