<svg xmlns="http://www.w3.org/2000/svg" width="64" height="64"><rect width="55.993" height="55.993" x="4" y="-61" stroke="#fff" stroke-width=".007" rx="4.2" ry="4.2" style="opacity:.2" transform="scale(1 -1)"/><rect width="55.993" height="55.993" x="4" y="-60" stroke="#fff" stroke-width=".007" rx="4.2" ry="4.2" style="fill:#dfdfdf" transform="scale(1 -1)"/><path d="m18.344 16-2.358-6.722L13.642 16H12l2.828-8h2.33L20 16Zm9.624 3v.047H20V20h16v-1zm14.376-3-2.358-6.722L37.642 16H36l2.828-8h2.33L44 16zM16.066 38q-1.092-1.657-1.58-3.307Q14 33.043 14 30.989q0-2.046.487-3.689.487-1.65 1.579-3.3h1.954q-1.099 1.672-1.6 3.33-.493 1.657-.493 3.666 0 2.002.494 3.652.493 1.643 1.6 3.352zm7.946-10q-1.946 0-2.979 1.041T20 31.992q0 1.918 1.041 2.967Q22.081 36 23.965 36q1.952 0 2.994-1.041Q28 33.91 28 31.992 28 28 24.012 28m.031 1q1.062 0 1.51.717.447.709.447 2.271 0 1.587-.492 2.303-.491.709-1.578.709-.956 0-1.448-.717Q22 33.56 22 31.988q0-1.555.475-2.271.481-.717 1.568-.717m15.901 8.997q1.113-1.716 1.6-3.352.494-1.643.494-3.652 0-2.017-.501-3.674-.501-1.665-1.593-3.322h1.955q1.099 1.664 1.578 3.314.487 1.65.487 3.674 0 2.04-.487 3.69-.48 1.65-1.578 3.321zM52.23 36 46 24h1.739L54 36zM20 55v1h16v-1h-8.032zm-3.934 3q-1.092-1.657-1.579-3.308t-.486-3.703q0-2.046.486-3.69.487-1.65 1.58-3.3h1.954q-1.1 1.673-1.6 3.33-.494 1.657-.494 3.667 0 2.002.494 3.652.494 1.643 1.6 3.352zm23.879-.003q1.112-1.717 1.6-3.352.493-1.643.493-3.652 0-2.017-.5-3.675-.501-1.664-1.593-3.322h1.954q1.099 1.665 1.579 3.315.487 1.65.487 3.674 0 2.039-.487 3.689-.48 1.65-1.579 3.322zM52.23 56 46 44h1.739L54 56z" style="fill:#3c3c3c"/><path d="M8.203 4.004a4.19 4.19 0 0 0-4.2 4.2v1a4.19 4.19 0 0 1 4.2-4.2h47.594a4.19 4.19 0 0 1 4.2 4.2v-1a4.19 4.19 0 0 0-4.2-4.2z" style="opacity:.2;fill:#fff"/><path d="M34.012 28q-1.945 0-2.979 1.041Q30 30.081 30 31.992q0 1.918 1.041 2.967Q32.081 36 33.965 36q1.952 0 2.994-1.041Q38 33.91 38 31.992 38 28 34.012 28m.031 1q1.062 0 1.51.717.447.709.447 2.271 0 1.587-.492 2.303-.491.709-1.578.709-.956 0-1.448-.717Q32 33.56 32 31.988q0-1.555.475-2.271.481-.717 1.568-.717" style="fill:#3c3c3c"/></svg>