<svg xmlns="http://www.w3.org/2000/svg" xml:space="preserve" width="64" height="64"><rect width="56" height="56" x="4" y="5" rx="4.2" ry="4.2" style="opacity:.2"/><rect width="56" height="56" x="4" y="4" rx="4.2" ry="4.2" style="fill:#4f4f4f"/><path d="M8.2 4A4.19 4.19 0 0 0 4 8.2v1A4.19 4.19 0 0 1 8.2 5h47.6A4.19 4.19 0 0 1 60 9.2v-1A4.19 4.19 0 0 0 55.8 4z" style="opacity:.1;fill:#fff"/><path d="M32 12.998c-.458 0-.914 1.725-1.668 5.172-1.508 6.895-2.147 7.031-3.547 6.787s-1.95-2.21-1.723-5.564c.228-3.355.226-3.622-4.05 2.144-4.277 5.766-4.052 4.889-6.032 4.016a354 354 0 0 0-2.855-1.254c-.337-.144-.142.267 2.527 3.242s4.019 6.115 2.176 6.262-1.581-.01 1.77 2.91 7.204 9.351 6.043 10.004c-1.162.653-.27 2.352 1.035 2.969s1.711 1.152 1.89 1.734c.166.539.429 1.181.582 1.426.191.303.454.161.82-.446.704-1.16.645-1.14 1.927-.69.886.31 1.312.313 2.152.019 1.425-.5 1.459-.492 1.855.523.456 1.166 1.106.908 1.461-.582.202-.847.483-1.282 1.918-1.96 1.436-.68 2.247-2.336 1.078-2.993s2.693-7.084 6.043-10.004 3.612-2.763 1.77-2.91-.494-3.286 2.176-6.262 2.864-3.386 2.527-3.242-.876.381-2.855 1.254-1.855 1.75-6.131-4.016c-4.277-5.766-4.179-5.499-3.951-2.144s-.323 5.32-1.723 5.564-2.039.108-3.547-6.787c-.754-3.447-1.21-5.172-1.668-5.172m-9.582 18c.447-.01 1.382.92 3.312 3.02 3.432 3.734 2.788 3.407-.683 1.996s-3.027-1.032-3.027-3.399c0-1.035.05-1.61.398-1.617m19.082 0c.32.036.34.647.34 1.68 0 2.36 1.111 1.705-2.516 3.195s-4.69 2.04-1.14-1.836c1.996-2.18 2.904-3.085 3.316-3.039m-9.523 12c1.572-.015 2.899 1.589 4.011 2.235s1.624 2.064-.152 1.609-2.794-1.937-3.86-1.938c-1.16 0-1.935 1.52-3.257 1.98-1.323.461-2.423-.602-1.16-1.308.946-.528 1.968-1.703 3.16-2.265a3 3 0 0 1 1.258-.313" style="opacity:.2"/><path d="M32 12c-.458 0-.914 1.725-1.668 5.172-1.508 6.895-2.147 7.031-3.547 6.787s-1.95-2.21-1.723-5.564c.228-3.355.226-3.622-4.05 2.144-4.277 5.766-4.052 4.889-6.032 4.016a354 354 0 0 0-2.855-1.254c-.337-.144-.142.267 2.527 3.242s4.019 6.115 2.176 6.262-1.581-.01 1.77 2.91 7.204 9.351 6.043 10.004c-1.162.652-.27 2.352 1.035 2.968s1.711 1.153 1.89 1.735c.166.539.429 1.18.582 1.426.191.303.454.161.82-.446.704-1.161.645-1.14 1.927-.691.886.311 1.312.314 2.152.02 1.425-.5 1.459-.492 1.855.523.456 1.166 1.106.908 1.461-.582.202-.847.483-1.282 1.918-1.961s2.247-2.335 1.078-2.992 2.693-7.084 6.043-10.004 3.612-2.763 1.77-2.91-.494-3.287 2.176-6.262 2.864-3.386 2.527-3.242c-.337.143-.876.38-2.855 1.254-1.98.873-1.855 1.75-6.131-4.016-4.277-5.766-4.179-5.499-3.951-2.144s-.323 5.32-1.723 5.564-2.039.108-3.547-6.787C32.914 13.725 32.458 12 32 12m-9.582 18c.447-.01 1.382.919 3.312 3.02 3.432 3.734 2.788 3.407-.683 1.996s-3.027-1.032-3.027-3.399c0-1.035.05-1.61.398-1.617M41.5 30c.32.036.34.647.34 1.68 0 2.36 1.111 1.705-2.516 3.195s-4.69 2.04-1.14-1.836C40.18 30.86 41.088 29.954 41.5 30m-9.523 12c1.572-.015 2.899 1.589 4.011 2.234 1.113.646 1.624 2.065-.152 1.61s-2.794-1.937-3.86-1.938c-1.16 0-1.935 1.52-3.257 1.98-1.323.461-2.423-.602-1.16-1.308.946-.528 1.968-1.703 3.16-2.266A3 3 0 0 1 31.977 42" style="fill:#fff"/></svg>