<svg xmlns="http://www.w3.org/2000/svg" width="64" height="64"><path d="M18.955 5c-2.62 0-5.198.7-7.478 2A15 15 0 0 0 6 12.476c-1.3 2.281-2 4.86-2 7.479v26.09c0 2.62.7 5.198 2 7.478A15 15 0 0 0 11.476 59c2.281 1.3 4.86 2 7.479 2h26.09c2.62 0 5.198-.7 7.478-2A15 15 0 0 0 58 53.524c1.3-2.281 2-4.86 2-7.479v-26.09c0-2.62-.7-5.198-2-7.478A15 15 0 0 0 52.524 7c-2.281-1.3-4.86-2-7.479-2Z" style="opacity:.2"/><path d="M18.955 4c-2.62 0-5.198.7-7.478 2A15 15 0 0 0 6 11.476c-1.3 2.281-2 4.86-2 7.479v26.09c0 2.62.7 5.198 2 7.478A15 15 0 0 0 11.476 58c2.281 1.3 4.86 2 7.479 2h26.09c2.62 0 5.198-.7 7.478-2A15 15 0 0 0 58 52.524c1.3-2.281 2-4.86 2-7.479v-26.09c0-2.62-.7-5.198-2-7.478A15 15 0 0 0 52.524 6c-2.281-1.3-4.86-2-7.479-2Z" style="fill:#1c71cc"/><path d="M44.834 16.004c-1.648.047-3.296.482-4.877.916-4.827 1.495-9.38 4.547-12.473 8.652-.138.14-.236.439-.492.38-1.064-.02-2.13.048-3.193.048-1.872.04-3.662.764-4.549 2.438-1.044 1.992-2.05 3.686-3.074 5.68-.473.916.058 2.575 1.023 2.874.65.18 1.32.04 1.97.04 1.38 0 2.497-.1 3.856-.04.217 1.814 1.403 3.443 2.881 4.54 1.261.956 2.897 1.374 4.473 1.275.335 1.933.632 3.906.967 5.859.236 1.136 1.753 1.733 2.68 1.035 1.773-1.415 3.326-2.87 5.099-4.305 1.38-1.155 2.107-3.009 1.89-4.802-.196-1.216-.45-2.43-.667-3.625 3.665-3.866 5.893-9.07 6.484-14.33.197-2.173.358-4.445-.352-6.537a9 9 0 0 0-1.646-.098M37.554 23c.918.015 1.825.4 2.456 1.074.92.92 1.234 2.376.793 3.61-.46 1.289-1.711 2.245-3.073 2.3-1.858.185-3.645-1.382-3.718-3.242-.147-1.657 1.068-3.294 2.687-3.644a3.3 3.3 0 0 1 .856-.098m-.113 1.002a3 3 0 0 0-.806.144 2.6 2.6 0 0 0-1.051.752c-.27.323-.458.728-.54 1.159-.08.457-.053.887.108 1.29.162.431.404.78.754 1.077.324.269.727.458 1.158.539.432.08.89.025 1.293-.11.405-.16.782-.402 1.051-.751.297-.323.486-.728.567-1.159.053-.43.026-.887-.135-1.29a2.4 2.4 0 0 0-.727-1.05 2.55 2.55 0 0 0-1.185-.566 2.3 2.3 0 0 0-.487-.035M20.322 40a.8.8 0 0 0-.59.285c-.841 1.019-1.703 2.036-2.564 3.055-.411.509-.02 1.39.627 1.39.509 0 1.038-.08 1.547-.119-.274 1.273-.607 2.528-.881 3.801-.137.607.547 1.175 1.135.94 1.194-.51 2.368-1.038 3.562-1.547.059.528.08 1.037.158 1.547.118.646 1.056.88 1.467.37.862-1.018 1.742-2.055 2.604-3.093.372-.49.04-1.273-.567-1.352-2.486-.568-4.62-2.368-5.619-4.718-.11-.368-.504-.575-.879-.559" style="opacity:.2"/><path d="M44.834 15.004c-1.648.047-3.296.482-4.877.916-4.827 1.495-9.38 4.547-12.473 8.652-.138.14-.236.439-.492.38-1.064-.02-2.13.048-3.193.048-1.872.04-3.662.764-4.549 2.438-1.044 1.992-2.05 3.686-3.074 5.68-.473.916.058 2.575 1.023 2.874.65.18 1.32.04 1.97.04 1.38 0 2.497-.1 3.856-.04.217 1.814 1.403 3.443 2.881 4.54 1.261.956 2.897 1.374 4.473 1.275.335 1.933.632 3.906.967 5.859.236 1.136 1.753 1.733 2.68 1.035 1.773-1.415 3.326-2.87 5.099-4.305 1.38-1.155 2.107-3.009 1.89-4.802-.196-1.216-.45-2.43-.667-3.625 3.665-3.866 5.893-9.07 6.484-14.33.197-2.173.358-4.445-.352-6.537a9 9 0 0 0-1.646-.098M37.554 22c.918.015 1.825.4 2.456 1.074.92.92 1.234 2.376.793 3.61-.46 1.289-1.711 2.245-3.073 2.3-1.858.185-3.645-1.382-3.718-3.242-.147-1.657 1.068-3.294 2.687-3.644a3.3 3.3 0 0 1 .856-.098m-.113 1.002a3 3 0 0 0-.806.144 2.6 2.6 0 0 0-1.051.752c-.27.323-.458.728-.54 1.159-.08.457-.053.887.108 1.29.162.431.404.78.754 1.077.324.269.727.458 1.158.539.432.08.89.025 1.293-.11.405-.16.782-.402 1.051-.751.297-.323.486-.728.567-1.159.053-.43.026-.887-.135-1.29a2.4 2.4 0 0 0-.727-1.05 2.55 2.55 0 0 0-1.185-.566 2.3 2.3 0 0 0-.487-.035M20.322 39a.8.8 0 0 0-.59.285c-.841 1.019-1.703 2.036-2.564 3.055-.411.509-.02 1.39.627 1.39.509 0 1.038-.08 1.547-.119-.274 1.273-.607 2.528-.881 3.801-.137.607.547 1.175 1.135.94 1.194-.51 2.368-1.038 3.562-1.547.059.528.08 1.037.158 1.547.118.646 1.056.88 1.467.37.862-1.018 1.742-2.055 2.604-3.093.372-.49.04-1.273-.567-1.352-2.486-.568-4.62-2.368-5.619-4.718-.11-.368-.504-.575-.879-.559" style="fill:#fff"/><path d="M18.955 4c-2.619 0-5.2.7-7.478 2A15 15 0 0 0 6 11.477c-1.3 2.279-2 4.859-2 7.478v1c0-2.619.7-5.2 2-7.478A15 15 0 0 1 11.477 7c2.279-1.3 4.859-2 7.478-2h26.09c2.619 0 5.2.7 7.478 2A15 15 0 0 1 58 12.477c1.3 2.279 2 4.859 2 7.478v-1c0-2.619-.7-5.2-2-7.478A15 15 0 0 0 52.523 6c-2.279-1.3-4.859-2-7.478-2z" style="fill:#fff;opacity:.1"/></svg>