<svg xmlns="http://www.w3.org/2000/svg" width="64" height="64"><rect width="56" height="56" x="4" y="5" rx="4.2" ry="4.2" style="opacity:.2"/><rect width="56" height="56" x="4" y="4" rx="4.2" ry="4.2" style="fill:#3f3f3f"/><path d="M21 24a9 9 0 0 0-9 9 9 9 0 0 0 9 9 9 9 0 0 0 8.465-6h5.101l3.965 4.2 3.942-4.2h.398l3.953 4.2 4.778-4.86L46.844 30h-17.36A9 9 0 0 0 21 24m0 6a3 3 0 0 1 3 3 3 3 0 0 1-3 3 3 3 0 0 1-3-3 3 3 0 0 1 3-3" style="opacity:.2"/><path d="M21 23a9 9 0 0 0-9 9 9 9 0 0 0 9 9 9 9 0 0 0 8.465-6h5.101l3.965 4.2 3.942-4.2h.398l3.953 4.2 4.778-4.86L46.844 29h-17.36A9 9 0 0 0 21 23m0 6a3 3 0 0 1 3 3 3 3 0 0 1-3 3 3 3 0 0 1-3-3 3 3 0 0 1 3-3" style="fill:#e4e4e4"/><path d="M8.2 4A4.19 4.19 0 0 0 4 8.2v1A4.19 4.19 0 0 1 8.2 5h47.6A4.19 4.19 0 0 1 60 9.2v-1A4.19 4.19 0 0 0 55.8 4z" style="opacity:.1;fill:#fff"/></svg>