<svg xmlns="http://www.w3.org/2000/svg" width="64" height="64"><path d="M31.992 5a2 2 0 0 0-.887.211l-24 12A2 2 0 0 0 6 19.001v27a2 2 0 0 0 1.047 1.757l24 13a2 2 0 0 0 1.906 0l24-13A2 2 0 0 0 58 46V20a2 2 0 0 0-1.047-1.757l-24-13a2 2 0 0 0-.96-.243" style="opacity:.2"/><path d="M31.992 4a2 2 0 0 0-.887.21l-24 12A2 2 0 0 0 6 18v27a2 2 0 0 0 1.047 1.758l24 13a2 2 0 0 0 1.906 0l24-13A2 2 0 0 0 58 45V19a2 2 0 0 0-1.047-1.758l-24-13a2 2 0 0 0-.96-.242" style="fill:#3f3f3f"/><path d="M31.975 14A2 2 0 0 0 30 16v16a2 2 0 0 0 1.064 1.767l17 9C49.396 43.472 51 42.507 51 41V25a2 2 0 0 0-1.064-1.768l-17-9a2 2 0 0 0-.961-.232" style="opacity:.2"/><path d="M31.975 13A2 2 0 0 0 30 15v16a2 2 0 0 0 1.064 1.768l17 9C49.396 42.472 51 41.507 51 40V24a2 2 0 0 0-1.064-1.768l-17-9a2 2 0 0 0-.961-.232" style="fill:#5891d9"/><path d="M22.975 19A2 2 0 0 0 21 21v16a2 2 0 0 0 1.064 1.767l17 9C40.396 48.472 42 47.507 42 46V30a2 2 0 0 0-1.064-1.768l-17-9a2 2 0 0 0-.961-.232" style="opacity:.2"/><path d="M22.975 18A2 2 0 0 0 21 20v16a2 2 0 0 0 1.064 1.768l17 9C40.396 47.472 42 46.507 42 45V29a2 2 0 0 0-1.064-1.768l-17-9a2 2 0 0 0-.961-.232" style="fill:#8ed599"/><path d="m38 34-17 1.063V36a2 2 0 0 0 1.064 1.768l17 9C40.396 47.472 42 46.507 42 45v-7z" style="fill:#fff"/><path d="M14.975 23A2 2 0 0 0 13 25v16a2 2 0 0 0 1.064 1.767l17 9C32.396 52.472 34 51.507 34 50V34a2 2 0 0 0-1.064-1.768l-17-9a2 2 0 0 0-.961-.232" style="opacity:.2"/><path d="M14.975 22A2 2 0 0 0 13 24v16a2 2 0 0 0 1.064 1.768l17 9C32.396 51.472 34 50.507 34 49V33a2 2 0 0 0-1.064-1.768l-17-9a2 2 0 0 0-.961-.232" style="fill:#d75a86"/><path d="M44 27c0 1 1 3 2 3s2-1 2-1-1.592-1.15-2-2c-.48-1 0-3 0-3s-2 1-2 3m-26 7-5 .334V40a2 2 0 0 0 1.064 1.768l15.252 8.074z" style="fill:#fff"/><path d="M31.992 4a2 2 0 0 0-.887.21l-24 12A2 2 0 0 0 6 18v1a2 2 0 0 1 1.105-1.79l24-12a2 2 0 0 1 1.848.032l24 13A2 2 0 0 1 58 20v-1a2 2 0 0 0-1.047-1.758l-24-13a2 2 0 0 0-.96-.242" style="fill:#fff;opacity:.1"/><path d="M31.975 13A2 2 0 0 0 30 15v1a2 2 0 0 1 2.936-1.768l17 9A2 2 0 0 1 51 25v-1a2 2 0 0 0-1.064-1.768l-17-9a2 2 0 0 0-.961-.232m-9 5A2 2 0 0 0 21 20v1a2 2 0 0 1 2.936-1.768l17 9A2 2 0 0 1 42 30v-1a2 2 0 0 0-1.064-1.768l-17-9a2 2 0 0 0-.961-.232m-8 4A2 2 0 0 0 13 24v1a2 2 0 0 1 2.936-1.768l17 9A2 2 0 0 1 34 34v-1a2 2 0 0 0-1.064-1.768l-17-9a2 2 0 0 0-.961-.232" style="fill:#fff;opacity:.2"/></svg>