<svg xmlns="http://www.w3.org/2000/svg" width="64" height="64"><g style="opacity:.2" transform="matrix(2 0 0 2 0 1)"><rect width="6" height="28" x="5" y="2" rx="1.8" ry="1.8"/><rect width="19" height="28" x="8" y="2" rx=".75" ry=".75"/></g><rect width="12" height="56" x="10" y="4" rx="3.6" ry="3.6" style="fill:#4e7bc0"/><path fill="#e9b064" d="M38 4v28l4-4 4 4V4Z"/><rect width="38" height="56" x="16" y="4" rx="1.5" ry="1.5" style="fill:#4e7bc0"/><path d="M15.199 52C13.426 52 12 53.338 12 55s1.426 3 3.199 3H54v-6Z" style="fill:#deddda"/><rect width="24" height="16" x="20" y="17" rx="2.8" ry="2.8" style="opacity:.1"/><rect width="24" height="16" x="20" y="16" rx="2.8" ry="2.8" style="fill:#deddda"/><path d="M15.199 52C13.426 52 12 53.338 12 55q.002.256.047.5c.253-1.421 1.562-2.5 3.152-2.5H54v-1z" style="opacity:.2"/><path d="M13.6 4A3.59 3.59 0 0 0 10 7.6v1C10 6.605 11.605 5 13.6 5h38.9c.831 0 1.5.669 1.5 1.5v-1c0-.831-.669-1.5-1.5-1.5z" style="fill:#fff;opacity:.1"/><rect width="6" height="58" x="41" y="3" rx="1" ry="1" style="fill:#394f6d"/><path d="M42 3c-.554 0-1 .446-1 1v1c0-.554.446-1 1-1h4c.554 0 1 .446 1 1V4c0-.554-.446-1-1-1Z" style="opacity:.1;fill:#fff"/></svg>