<svg xmlns="http://www.w3.org/2000/svg" width="64" height="64"><path d="M8.308 5h47.384C58.072 5 60 7.006 60 9.48v47.04c0 2.474-1.929 4.48-4.308 4.48H8.308C5.928 61 4 58.994 4 56.52V9.48C4 7.006 5.929 5 8.308 5m0 0" style="opacity:.2"/><path d="M8.308 4h47.384C58.072 4 60 6.006 60 8.48v47.04c0 2.474-1.929 4.48-4.308 4.48H8.308C5.928 60 4 57.994 4 55.52V8.48C4 6.006 5.929 4 8.308 4m0 0" style="fill:#e4e4e4"/><path d="M19.5 9C13.148 9 8 14.148 8 20.5S13.148 32 19.5 32 31 26.852 31 20.5 25.852 9 19.5 9m25 0C38.148 9 33 14.148 33 20.5S38.148 32 44.5 32 56 26.852 56 20.5 50.852 9 44.5 9m-25 25C13.148 34 8 39.148 8 45.5S13.148 57 19.5 57 31 51.852 31 45.5 25.852 34 19.5 34m25 0C38.148 34 33 39.148 33 45.5S38.148 57 44.5 57 56 51.852 56 45.5 50.852 34 44.5 34" style="opacity:.1"/><path d="M19.5 33C25.852 33 31 38.148 31 44.5S25.852 56 19.5 56 8 50.852 8 44.5 13.148 33 19.5 33m0 0" style="fill:#ffaa04"/><path d="M44.5 8C50.852 8 56 13.148 56 19.5S50.852 31 44.5 31 33 25.852 33 19.5 38.148 8 44.5 8m0 0" style="fill:#ff753a"/><path d="M44.5 56C50.852 56 56 50.852 56 44.5S50.852 33 44.5 33 33 38.148 33 44.5 38.148 56 44.5 56m0 0" style="fill:#6358c7"/><path fill="#ed333b" d="M19.5 8C25.852 8 31 13.148 31 19.5S25.852 31 19.5 31 8 25.852 8 19.5 13.148 8 19.5 8m0 0"/><path d="M17.328 16c-.323 0-.723.101-.932.316L13 20.5l3.396 4.184c.21.215.609.316.932.316H19v-1.125a1.3 1.3 0 0 0-.318-.809L17.428 22H26v-3h-8.572l1.254-1.066a1.25 1.25 0 0 0 .318-.809V16ZM43 39v5h-5v3h5v5h3v-5h5v-3h-5v-5z" style="opacity:.2"/><path d="M19 15v1.125c0 .29-.126.598-.318.809L17.429 18H26v3h-8.571l1.253 1.066c.192.216.31.52.318.809V24h-1.673c-.323 0-.72-.101-.93-.316L13 19.5l3.397-4.184c.21-.215.607-.316.93-.316Zm32 31H38v-3h13zm0 0" style="fill:#fff"/><path d="M43 51V38h3v13zm0 0" style="fill:#fff"/><path d="M41.2 13c-1.2 0-2.2.877-2.2 1.927v11.145C39 27.122 40 28 41.2 28h6.6c1.2 0 2.2-.877 2.2-1.928V14.927C50 13.877 49 13 47.8 13zm.8 3h5v3h-5zm0 6h5v3h-5zM19.5 38a7.48 7.48 0 0 0-5.305 2.195 7.506 7.506 0 0 0 0 10.61 7.506 7.506 0 0 0 10.61 0 7.506 7.506 0 0 0 0-10.61A7.48 7.48 0 0 0 19.5 38m.37 3.015a4.5 4.5 0 0 1 2.814 1.301 4.5 4.5 0 0 1 .875 5.121l-5.997-5.996a4.5 4.5 0 0 1 2.307-.426m-4.429 2.547 5.996 5.996a4.5 4.5 0 0 1-5.12-.875 4.5 4.5 0 0 1-.876-5.12" style="opacity:.1"/><path d="M24.804 39.196a7.505 7.505 0 0 0-10.608 0 7.505 7.505 0 0 0 0 10.608 7.505 7.505 0 0 0 10.608 0 7.505 7.505 0 0 0 0-10.608m-2.121 2.121a4.5 4.5 0 0 1 .876 5.12l-5.996-5.996a4.5 4.5 0 0 1 5.12.876m-7.242 1.246 5.996 5.996a4.5 4.5 0 0 1-5.12-.876 4.5 4.5 0 0 1-.876-5.12M41.2 12c-1.2 0-2.2.877-2.2 1.928v11.144C39 26.123 40 27 41.2 27h6.6c1.2 0 2.2-.877 2.2-1.928V13.928C50 12.877 49 12 47.8 12Zm.8 3h5v3h-5zm0 6h5v3h-5z" style="fill:#3a3a3a"/><path d="M8.309 4C5.929 4 4 6.006 4 8.48v1C4 7.006 5.93 5 8.309 5H55.69C58.071 5 60 7.006 60 9.48v-1C60 6.006 58.07 4 55.691 4z" style="fill:#fff;opacity:.2"/></svg>