<svg xmlns="http://www.w3.org/2000/svg" width="64" height="64"><path d="M11.894 11C9.743 11 8 12.718 8 14.84v40.318C8 57.278 9.743 59 11.894 59h29.212c2.15 0 3.893-1.721 3.893-3.842V14.84C45 12.71 43.264 11 41.106 11Z" style="opacity:.2"/><path d="M11.894 10C9.743 10 8 11.718 8 13.84v40.318C8 56.278 9.743 58 11.894 58h29.212c2.15 0 3.893-1.721 3.893-3.842V13.84C45 11.71 43.264 10 41.106 10Z" style="fill:#5263d5"/><path d="M11.895 10C9.744 10 8 11.72 8 13.84v1C8 12.72 9.744 11 11.895 11h29.21C43.264 11 45 12.712 45 14.84v-1c0-2.128-1.736-3.84-3.895-3.84z" style="fill:#fff;opacity:.1"/><path d="M45 46.4c0 2.128-1.686 3.61-3.783 3.6h-28.38C11.27 50 10 51.327 10 52.917S11.27 56 12.837 56h28.38C43.314 56 45 54.286 45 52.158Z" style="fill:#e4e4e4"/><path d="M10.921 20C9.303 20 8 21.165 8 22.76v21.12c0-1.595 1.303-2.877 2.921-2.88H45V20Z" style="fill:#b563e7"/><path d="M20.879 5C18.729 5 17 6.743 17 8.91v35.18c0 2.167 1.73 3.91 3.879 3.91H45.12c2.151 0 3.88-1.743 3.88-3.91V15L39 5Z" style="opacity:.2"/><path d="M20.879 4C18.729 4 17 5.743 17 7.91v35.18c0 2.167 1.73 3.91 3.879 3.91H45.12c2.151 0 3.88-1.743 3.88-3.91V14L39 4Z" style="fill:#e4e4e4"/><path d="M21 29v6h20v-3h4v-3z" style="opacity:.1"/><path d="M21 10v3h13v-3zm0 0" style="opacity:.3"/><path d="M21 16h24v9H28.059v1H21Z" style="opacity:.1"/><path d="M39 5v6.001A4 4 0 0 0 43 15h6Z" style="opacity:.2"/><path d="M39 4v6.001A4 4 0 0 0 43 14h6Z" style="fill:#fafafa"/><path d="M33 16c-4.432 0-8 3.568-8 8a7.98 7.98 0 0 0 6.703 7.895L28 41h3l8.719-12.65A7.96 7.96 0 0 0 41 24c0-4.432-3.568-8-8-8m17 0c-4.432 0-8 3.568-8 8a7.98 7.98 0 0 0 6.703 7.895L45 41h3l8.719-12.65A7.96 7.96 0 0 0 58 24c0-4.432-3.568-8-8-8" style="opacity:.1"/><path d="M50 15c-4.432 0-8 3.568-8 8a7.98 7.98 0 0 0 6.703 7.895L45 40h3l8.719-12.65A7.96 7.96 0 0 0 58 23c0-4.432-3.568-8-8-8" style="fill:#5263d5"/><path d="M33 15c-4.432 0-8 3.568-8 8a7.98 7.98 0 0 0 6.703 7.895L28 40h3l8.719-12.65A7.96 7.96 0 0 0 41 23c0-4.432-3.568-8-8-8" style="fill:#b563e7"/><path d="M18 54h7v7l-3.5-2.333L18 61Zm0 0" style="opacity:.2"/><path d="M18 53h7v7l-3.5-2.333L18 60Zm0 0" style="fill:#b563e7"/><path d="M20.879 4C18.729 4 17 5.742 17 7.908v1C17 6.742 18.73 5 20.879 5H39V4Z" style="opacity:.2;fill:#fff"/><path d="M45 46.4c0 2.129-1.686 3.61-3.783 3.6H12.838C11.27 50 10 51.328 10 52.918c0 .17.02.336.047.502.232-1.36 1.391-2.42 2.79-2.42h28.38c2.097.01 3.783-1.471 3.783-3.6z" style="opacity:.2"/></svg>