<svg xmlns="http://www.w3.org/2000/svg" xmlns:xlink="http://www.w3.org/1999/xlink" width="64" height="64"><defs><radialGradient xlink:href="#a" id="g" cx="33.997" cy="33.426" r="12.242" fx="33.997" fy="33.426" gradientTransform="matrix(2.62986 0 0 2.6168 -57.455 -55.304)" gradientUnits="userSpaceOnUse"/><radialGradient xlink:href="#b" id="h" cx="33.96" cy="34.218" r="11.982" fx="33.96" fy="34.218" gradientTransform="matrix(2.687 0 0 2.67366 -59.299 -59.322)" gradientUnits="userSpaceOnUse"/><radialGradient xlink:href="#c" id="i" cx="31.418" cy="35.075" r="12.5" fx="31.418" fy="35.075" gradientTransform="matrix(2.57558 0 0 2.56278 -48.969 -57.725)" gradientUnits="userSpaceOnUse"/><radialGradient xlink:href="#d" id="j" cx="34.033" cy="17.251" r="12.5" fx="34.033" fy="17.251" gradientTransform="matrix(2.57563 0 0 2.56284 -55.706 -12.047)" gradientUnits="userSpaceOnUse"/><radialGradient xlink:href="#e" id="k" cx="33.96" cy="31.263" r="11.981" fx="33.96" fy="31.263" gradientTransform="matrix(2.68706 0 0 2.67371 -59.3 -51.424)" gradientUnits="userSpaceOnUse"/><radialGradient xlink:href="#f" id="l" cx="33.997" cy="36.942" r="12.242" fx="33.997" fy="36.942" gradientTransform="matrix(2.62988 0 0 2.61682 -57.456 -64.505)" gradientUnits="userSpaceOnUse"/><linearGradient id="f"><stop offset="0" style="stop-color:#7c48a3;stop-opacity:1"/><stop offset="1" style="stop-color:#7c0e93;stop-opacity:1"/></linearGradient><linearGradient id="e"><stop offset="0" style="stop-color:#3cb7f2;stop-opacity:1"/><stop offset="1" style="stop-color:#3182eb;stop-opacity:1"/></linearGradient><linearGradient id="d"><stop offset="0" style="stop-color:#5dd08d;stop-opacity:1"/><stop offset="1" style="stop-color:#39a165;stop-opacity:1"/></linearGradient><linearGradient id="c"><stop offset="0" style="stop-color:#ffe360;stop-opacity:1"/><stop offset="1" style="stop-color:#ffad4e;stop-opacity:1"/></linearGradient><linearGradient id="b"><stop offset="0" style="stop-color:#ff9e64;stop-opacity:1"/><stop offset="1" style="stop-color:#ff7e31;stop-opacity:1"/></linearGradient><linearGradient id="a"><stop offset="0" style="stop-color:#ea5771;stop-opacity:1"/><stop offset="1" style="stop-color:#ff002d;stop-opacity:1"/></linearGradient><filter id="m" width="1.154" height="1.138" x="-.077" y="-.069" style="color-interpolation-filters:sRGB"><feGaussianBlur stdDeviation="1.567"/></filter></defs><path d="M32 4 20.017 25 32 32l11.98-7 .521-14.91C39.03 6.893 33.384 4 32.001 4Z" style="fill:url(#g)"/><path d="M44.501 10.09 32.001 32l11.98 7 11.982-21c-.691-1.212-5.99-4.712-11.461-7.91Z" style="fill:url(#h)"/><path d="M55.963 18 32 32.6 43.98 39 57 32c0-6.394-.345-12.787-1.037-14" style="fill:url(#i)"/><path d="M32 32v14h23.963c.692-1.212 1.036-7.606 1.036-14z" style="fill:url(#j)"/><path d="M32 31.6V46l12.501 7.91c5.472-3.197 10.77-6.698 11.462-7.91z" style="fill:url(#k)"/><path d="m32 32-11.983 7L32 60c1.384 0 7.03-2.893 12.501-6.09z" style="fill:url(#l)"/><path d="M20.017 25 8.037 46C9.421 48.425 29.233 60 32 60V32Z" style="fill:#514235"/><path d="M8.038 18c-1.384 2.425-1.384 25.575 0 28L32 31.4V18Z" style="fill:#785539"/><path d="M32 4C29.233 4 9.42 15.575 8.038 18L32 32.6Z" style="fill:#b4cd61"/><path d="M32 4C29.233 4 9.42 15.575 8.037 18s-1.383 25.573 0 28C9.421 48.425 29.234 60 32 60c1.384 0 7.03-2.893 12.502-6.09s10.77-6.698 11.461-7.91S57 38.394 57 32s-.345-12.788-1.037-14-5.99-4.713-11.46-7.91C39.03 6.893 33.382 4 32 4Z" style="opacity:1;fill:none;stroke:#000;stroke-opacity:1;stroke-width:.2;stroke-dasharray:none;filter:url(#m)"/><path d="M31.998 18c-1.439 0-11.74 5.788-12.459 7l.006.004-.002-.004 12.455 7H32l12.455-6.996.002-.004c-.72-1.212-11.02-7-12.459-7m0 27.996V46H32v-.002z" style="fill:#fff"/><path d="m19.543 25 .002.004L31.998 32Zm12.455 7-1.301 5.259 1.301 8.737L32 46c1.439 0 11.742-5.788 12.46-7 .72-1.212.72-12.788 0-14L32 32Z" style="fill:#dfdfdf"/><path d="M19.54 25c-.72 1.212-.72 12.788 0 14 .718 1.212 11.02 7 12.458 7V32Z" style="fill:#d6d2d2"/></svg>