<svg xmlns="http://www.w3.org/2000/svg" width="64" height="64"><path d="M10 16v44h39.691C52.08 60 54 58.131 54 55.809V20.19c0-2.32-1.921-4.19-4.309-4.19Z" style="opacity:.2"/><path d="M10 15v44h39.691C52.08 59 54 57.131 54 54.809V19.19c0-2.32-1.921-4.19-4.309-4.19Z" style="fill:#e4e4e4"/><path d="M10 5v50h40.875C52.606 55 54 53.48 54 51.592V8.408C54 6.52 52.606 5 50.875 5H29Z" style="opacity:.1"/><path d="M10 4v50h40.875C52.606 54 54 52.48 54 50.592V7.408C54 5.52 52.606 4 50.875 4z" style="fill:#ff6f00"/><path d="M42 4h3v50h-3z" style="fill:#fff"/><path d="M10 4v1h40.875C52.606 5 54 6.52 54 8.408v-1C54 5.52 52.606 4 50.875 4z" style="fill:#fff;opacity:.2"/><path d="M18 54h3v10h-3z" style="fill:#fa5e4a"/></svg>