<svg xmlns="http://www.w3.org/2000/svg" width="64" height="64"><circle cx="45.5" cy="10.5" r="5.5" style="opacity:.2"/><path d="M40.512 18.178a2.8 2.8 0 0 0-2.34 1.525l-7.318 15.903-8.6 9.83L11.11 44.1c-3.71-.412-4.327 5.153-.617 5.564l12.594 1.5c.91.1 1.813-.25 2.416-.94l9.796-11.196q.23-.262.388-.574l5.26-11.029 3.19 7.022a2.8 2.8 0 0 0 4.526.82l8.396-8.396c2.748-2.638-1.32-6.705-3.957-3.958l-5.54 5.54-4.347-8.637a2.8 2.8 0 0 0-2.703-1.637" style="opacity:.2"/><path d="M40.512 17.178a2.8 2.8 0 0 0-2.34 1.525l-7.318 15.903-8.6 9.83L11.11 43.1c-3.71-.412-4.327 5.153-.617 5.564l12.594 1.5c.91.1 1.813-.25 2.416-.94l9.796-11.196q.23-.262.388-.574l5.26-11.029 3.19 7.022a2.8 2.8 0 0 0 4.526.82l8.396-8.396c2.748-2.638-1.32-6.705-3.957-3.958l-5.54 5.54-4.347-8.637a2.8 2.8 0 0 0-2.703-1.637" style="fill:#548536"/><path d="M40.512 17.178a2.8 2.8 0 0 0-2.34 1.525l-7.318 15.902-8.6 9.833L11.11 43.1c-2.228-.248-3.331 1.659-3.06 3.312.217-1.327 1.278-2.51 3.06-2.312l11.143 1.337 8.6-9.832 7.318-15.902a2.8 2.8 0 0 1 5.043.111l4.347 8.637 5.54-5.539c1.862-1.94 4.427-.48 4.812 1.473.494-2.377-2.64-4.736-4.812-2.473l-5.54 5.54-4.347-8.638a2.8 2.8 0 0 0-2.703-1.636" style="opacity:.1;fill:#fff"/><circle cx="45.5" cy="9.5" r="5.5" style="fill:#75b74a"/><path d="M34.732 16.095a2.8 2.8 0 0 0-.72.085l-10.895 2.799a2.8 2.8 0 0 0-2.12 2.714v12.594c-.054 3.785 5.057 3.785 5.003 0V23.979l6.089-1.451.186 3.307c-.696 2.064-1.355 4.119-1.859 6.144-1.523 5.317.149 8.515 3.378 9.306q.19.202.413.363l8.03 5.765 5.288 11.9c1.516 3.41 6.633 1.137 5.117-2.274l-5.598-12.595a2.8 2.8 0 0 0-.926-1.136l-6.401-4.595c1.325-2.259 1.87-5.506 2.643-8.221q.9-3.163 1.806-6.325c.548-1.732.396-3.166.007-4.15-.866-2.064-2.061-2.273-4.02-2.727l-4.65-1.08-.003.008a2.8 2.8 0 0 0-.768-.123" style="opacity:.2"/><path d="M34.732 15.095a2.8 2.8 0 0 0-.72.085l-10.895 2.799a2.8 2.8 0 0 0-2.12 2.714v12.594c-.054 3.785 5.057 3.785 5.003 0V22.979l6.089-1.451.186 3.307c-.696 2.064-1.355 4.119-1.859 6.144-1.523 5.317.149 8.515 3.378 9.306q.19.202.413.363l8.03 5.765 5.288 11.9c1.516 3.41 6.633 1.137 5.117-2.274l-5.598-12.595a2.8 2.8 0 0 0-.926-1.136l-6.401-4.595c1.325-2.259 1.87-5.506 2.643-8.221q.9-3.163 1.806-6.325c.548-1.732.396-3.166.007-4.15-.866-2.064-2.061-2.273-4.02-2.727l-4.65-1.08-.003.008a2.8 2.8 0 0 0-.768-.123" style="fill:#75b74a"/><path d="M45.5 4A5.5 5.5 0 0 0 40 9.5a6 6 0 0 0 .025.486A5.5 5.5 0 0 1 45.5 5a5.5 5.5 0 0 1 5.475 5.014A6 6 0 0 0 51 9.5 5.5 5.5 0 0 0 45.5 4M34.732 15.096a2.8 2.8 0 0 0-.718.084l-10.897 2.799a2.8 2.8 0 0 0-2.12 2.714v1a2.8 2.8 0 0 1 2.12-2.714l10.897-2.8q.354-.088.718-.083c.26.005.52.046.768.123l.002-.008 4.65 1.078c1.96.455 3.155.663 4.022 2.729.159.402.26.898.308 1.441.07-.969-.058-1.807-.308-2.441-.867-2.066-2.063-2.274-4.022-2.729l-4.65-1.078-.002.008a2.8 2.8 0 0 0-.768-.123m-2.505 9.886c-.678 2.014-1.32 4.02-1.811 5.997-.452 1.578-.617 2.966-.549 4.164.046-.955.217-2.006.549-3.164.504-2.025 1.164-4.08 1.86-6.145zm7.869 13.002a10 10 0 0 1-.38.729l6.401 4.594c.405.29.726.684.928 1.138l5.598 12.594c.114.257.179.504.222.746.11-.524.058-1.115-.222-1.746l-5.598-12.594a2.8 2.8 0 0 0-.928-1.138z" style="opacity:.2;fill:#fff"/></svg>