<svg xmlns="http://www.w3.org/2000/svg" xmlns:xlink="http://www.w3.org/1999/xlink" width="64" height="64"><defs><radialGradient xlink:href="#a" id="h" cx="25.775" cy="38.098" r="10" fx="25.775" fy="38.098" gradientTransform="translate(-99.214 -137.932)scale(4.81413)" gradientUnits="userSpaceOnUse"/><radialGradient xlink:href="#b" id="g" cx="32" cy="32" r="25" fx="32" fy="32" gradientTransform="matrix(1.37885 0 0 .88247 -1.195 -1.31)" gradientUnits="userSpaceOnUse"/><radialGradient xlink:href="#c" id="d" cx="-1.818" cy="64.815" r="28" fx="-1.818" fy="64.815" gradientTransform="rotate(-15 -641.524 81.409)scale(3.76526 3.49631)" gradientUnits="userSpaceOnUse"/><linearGradient id="a"><stop offset="0" style="stop-color:#414141;stop-opacity:1"/><stop offset="1" style="stop-color:#242424;stop-opacity:1"/></linearGradient><linearGradient id="b"><stop offset="0" style="stop-color:#fbd14e;stop-opacity:1"/><stop offset="1" style="stop-color:#fba74e;stop-opacity:1"/></linearGradient><linearGradient id="c"><stop offset="0" style="stop-color:#4bae4f;stop-opacity:1"/><stop offset="1" style="stop-color:#2aaa6a;stop-opacity:1"/></linearGradient><filter id="i" width="1.201" height="1.201" x="-.1" y="-.1" style="color-interpolation-filters:sRGB"><feGaussianBlur stdDeviation=".796"/></filter><filter id="f" width="1.165" height="1.165" x="-.083" y="-.083" style="color-interpolation-filters:sRGB"><feGaussianBlur stdDeviation=".784"/></filter><filter id="e" width="1.14" height="1.151" x="-.07" y="-.076" style="color-interpolation-filters:sRGB"><feGaussianBlur stdDeviation="1.595"/></filter></defs><g transform="translate(-10.928 5.072)"><rect width="56" height="52" x="14.928" y=".928" rx="11.648" ry="11.648" style="fill:url(#d)"/><rect width="56" height="52" x="14.928" y=".928" rx="11.648" ry="11.648" style="fill:none;stroke:#000;stroke-width:.2;stroke-dasharray:none;stroke-opacity:1;filter:url(#e)"/><rect width="24" height="24" x="30.928" y="14.928" rx="4.534" ry="4.534" style="fill:#646464;fill-opacity:1"/><rect width="24" height="24" x="30.928" y="14.928" rx="4.534" ry="4.534" style="fill:none;fill-opacity:1;stroke:#000;stroke-width:.2;stroke-dasharray:none;stroke-opacity:1;filter:url(#f)"/><path d="M25 11.512V24h3V11.512A1.51 1.51 45 0 0 26.488 10 1.5 1.5 134.56 0 0 25 11.512M25 24H14v-5.5c0-1.5-1.5-1.5-1.5-1.5h-4v3H11v5.5s.1 1.5 1.5 1.5H25Zm6-12.488V24h3V11.512A1.51 1.51 45 0 0 32.488 10 1.5 1.5 134.56 0 0 31 11.512m6 0V24h3V11.512A1.51 1.51 45 0 0 38.488 10 1.5 1.5 134.56 0 0 37 11.512M54 17.5V25H41v3h14.5c1.5 0 1.5-1.5 1.5-1.5v-9zM8.5 30v3H25v-3ZM41 31v3h14.5v-3ZM8.5 36C7 36 7 37.5 7 37.5v9h3V39h14v-3ZM24 39v13.488A1.51 1.51 45 0 0 25.512 54 1.5 1.5 134.56 0 0 27 52.488V39Zm17-2v3h9v5.5c0 1.5 1.5 1.5 1.5 1.5h4v-3H53v-5.5s-.1-1.5-1.5-1.5Zm-11 2v13.488A1.51 1.51 45 0 0 31.512 54 1.5 1.5 134.56 0 0 33 52.488V39Zm6 0v13.488A1.51 1.51 45 0 0 37.512 54 1.5 1.5 134.56 0 0 39 52.488V39Z" style="opacity:.252905;fill:#000;fill-opacity:1" transform="translate(12.997 -3.003)scale(.93535)"/><path d="M64.909 11.962a1.403 1.403 0 0 0-1.403 1.403 1.403 1.403 0 0 0 1.403 1.403 1.403 1.403 0 0 0 1.403-1.403 1.403 1.403 0 0 0-1.403-1.403m-43.962.936a1.403 1.403 0 0 0-1.403 1.403 1.403 1.403 0 0 0 1.403 1.403A1.403 1.403 0 0 0 22.35 14.3a1.403 1.403 0 0 0-1.403-1.403m15.434.935v5.612h-6.548v2.806h5.612v2.806h-5.612v2.806h5.612v2.806h-5.612v2.807h5.612v6.547h2.806V34.41h2.806v5.612h2.806V34.41h2.806v5.612h2.807V34.41h6.547v-2.806h-5.612v-2.806h5.612v-2.806h-5.612v-2.806h5.612V20.38h-5.612v-6.548h-2.806v5.612h-2.806v-5.612h-2.806v5.612h-2.806v-5.612ZM20.947 25.057a1.403 1.403 0 0 0-1.403 1.403 1.403 1.403 0 0 0 1.403 1.403 1.403 1.403 0 0 0 1.403-1.403 1.403 1.403 0 0 0-1.403-1.403m43.962.936a1.403 1.403 0 0 0-1.403 1.403 1.403 1.403 0 0 0 1.403 1.403 1.403 1.403 0 0 0 1.403-1.403 1.403 1.403 0 0 0-1.403-1.403m0 12.16a1.403 1.403 0 0 0-1.403 1.402 1.403 1.403 0 0 0 1.403 1.403 1.403 1.403 0 0 0 1.403-1.403 1.403 1.403 0 0 0-1.403-1.403m-43.962.935a1.403 1.403 0 0 0-1.403 1.403 1.403 1.403 0 0 0 1.403 1.403 1.403 1.403 0 0 0 1.403-1.403 1.403 1.403 0 0 0-1.403-1.403" style="fill:url(#g);stroke-width:.935355"/><rect width="20" height="20" x="32.928" y="16.928" rx="2.719" ry="2.719" style="fill:url(#h)"/><rect width="20" height="20" x="32.928" y="16.928" rx="2.719" ry="2.719" style="fill:none;stroke:#000;stroke-width:.2;stroke-dasharray:none;stroke-opacity:1;filter:url(#i)"/></g></svg>