<svg xmlns="http://www.w3.org/2000/svg" width="64" height="64"><path d="M54.846 6H9.154C6.86 6 5 7.934 5 10.32v45.36C5 58.066 6.86 60 9.154 60h45.692C57.14 60 59 58.066 59 55.68V10.32C59 7.934 57.14 6 54.846 6m0 0" style="opacity:.2"/><path d="M54.846 5H9.154C6.86 5 5 6.934 5 9.32v45.36C5 57.066 6.86 59 9.154 59h45.692C57.14 59 59 57.066 59 54.68V9.32C59 6.934 57.14 5 54.846 5m0 0" style="fill:#4f4f4f"/><path d="M9.154 5C6.86 5 5 6.935 5 9.32v1C5 7.935 6.86 6 9.154 6h45.692C57.14 6 59 7.935 59 10.32v-1C59 6.935 57.14 5 54.846 5z" style="fill:#fff;opacity:.1"/><path d="M9 32C9 19.298 19.298 9 32 9s23 10.298 23 23-10.298 23-23 23S9 44.702 9 32m0 0" style="fill:#767676"/><path d="M11.31 10h25.38c1.827 0 3.31 1.454 3.31 3.247v39.506C40 54.546 38.517 56 36.69 56H11.31C9.483 56 8 54.546 8 52.753V13.247C8 11.454 9.483 10 11.31 10m0 0" style="opacity:.2"/><path d="M31.878 23.634a8.488 8.488 0 1 1-.001 16.977 8.488 8.488 0 0 1 .001-16.977m0 0" style="fill:#373639"/><path d="M42 29.76c0-.973.895-1.76 2-1.76h15v11H44c-1.105 0-2-.787-2-1.76Zm0 0" style="opacity:.2"/><path d="M42 28.76c0-.973.895-1.76 2-1.76h15v11H44c-1.105 0-2-.787-2-1.76Zm0 0" style="fill:#8bc0ff"/><path d="M11.31 9h25.38C38.517 9 40 10.454 40 12.247v39.506C40 53.546 38.517 55 36.69 55H11.31C9.483 55 8 53.546 8 51.753V12.247C8 10.454 9.483 9 11.31 9m0 0" style="fill:#fff"/><path d="M12 15h23m-23 5h23m-23 5h23m-23 5h23m-23 5h23m-23 4h23m-23 5h23m-23 5h23" style="fill:none;stroke:#dbdbdb;stroke-width:2"/><path fill="#62a0ea" d="M20.858 17a1.043 1.043 0 0 0-.93 1.52c1.34 2.634 1.86 5.342 1.88 7.898-.915-.384-1.156-.847-2.136-.93-1.021-.086-2.118.116-3.023.813C14.842 27.689 14 30.664 14 35.82c0 1.57.204 2.758.693 3.675.487.915 1.437 1.53 2.388 1.503.954-.026 1.79-.51 2.57-1.192.78-.685 1.516-1.61 2.189-2.729 1.172-1.954 1.412-4.543 1.838-7.429.842.425 2.95 1.1 3.76 1.324.817.225 1.8.294 2.567-.343.769-.637.995-1.64.995-2.891a1.044 1.044 0 1 0-2.087 0c0 .97-.222 1.266-.238 1.28-.017.012-.155.084-.683-.063-.675-.186-2.983-.99-4.108-1.551a19.9 19.9 0 0 0-1.461-8.314h7.49c.576 0 1.043-.467 1.043-1.045S30.489 17 29.912 17zm.242 11.385c.19.082.384.192.575.282-.32 2.89-.512 5.483-1.624 7.333-.583.972-1.213 1.738-1.773 2.23-.563.494-1.046.672-1.254.678-.21.006-.265.025-.49-.4-.227-.423-.447-1.317-.447-2.688 0-4.907.952-7.183 1.834-7.861 1.306-.746 2.308-.121 3.18.426M28.985 38c-.634 0-.852.207-1.277.437s-.92.54-1.49.916c-1.138.757-2.561 1.785-4.084 2.925-3.048 2.278-6.49 5.001-8.74 6.821a1.095 1.095 0 0 0-.182 1.49.986.986 0 0 0 1.423.189 327 327 0 0 1 8.68-6.776c1.505-1.125 2.909-2.136 3.991-2.854.541-.36 1.003-.644 1.338-.827.333-.18.67-.199.341-.199.561 0 1.015-.474 1.015-1.06S29.546 38 28.985 38m0 0"/><path d="M58.418 2.002a3.2 3.2 0 0 0-1.273.334q-.36.16-.665.418c-.37.293-.7.662-.959 1.105l-.75 1.282-2.812 4.804-.69 1.18.086.049L34.602 39.8l-.006.01-2.787 4.763-.149.254-1.523 2.604-1.674 2.86-.557.95a3.8 3.8 0 0 0 .545 4.57l-.36.616-.558.953L26 60l2.768-.328.697-1.192.918-1.568a3.91 3.91 0 0 0 4.283-1.82l.557-.951.27-.46 1.403-2.4 21.217-36.258.086.05.69-1.18L61.7 9.09l.75-1.283c.257-.44.416-.903.488-1.362.051-.266.067-.534.038-.799-.067-.967-.54-1.835-1.373-2.31l-1.735-.988a2.7 2.7 0 0 0-1.451-.346" style="opacity:.2"/><path fill="#1a5fb4" d="m28.09 55.428 2.628-.09-1.95 3.334L26 59Zm0 0"/><path d="M39.926 37.402c-1.872-1.066-4.25-.438-5.33 1.409l-6.69 11.432a3.8 3.8 0 0 0 .546 4.57l-.918 1.567 1.93 1.101.918-1.569a3.91 3.91 0 0 0 4.285-1.82l6.69-11.43a3.814 3.814 0 0 0-1.43-5.26m0 0" style="fill:#3e87e1"/><path d="M59.672 1.46a2.803 2.803 0 0 0-3.807 1.006L54.472 4.85 30.136 46.432l-1.672 2.859 6.76 3.85 1.672-2.86L61.23 8.699l1.394-2.382a2.72 2.72 0 0 0-1.021-3.755Zm0 0" style="fill:#bcbcbc"/><path d="m31.808 43.574 6.76 3.85-1.115 1.905-6.758-3.849zm0 0" style="fill:#1c64d8"/><path d="M59.87 1.348c-1.44-.819-3.38-.144-4.35 1.512l-.75 1.281-3.5 5.984 2.598 1.48 1.733.987 2.598 1.48L61.7 8.09l.75-1.282c.97-1.656.593-3.65-.847-4.472Zm0 0" style="fill:#3e87e1"/><path d="m51.96 8.945 6.929 3.948-.69 1.18-6.93-3.948zm0 0" style="fill:#1c64d8"/></svg>