<svg xmlns="http://www.w3.org/2000/svg" width="64" height="64"><path d="M8.545 8h40.91C51.965 8 54 9.937 54 12.327v44.346C54 59.063 51.965 61 49.455 61H8.545C6.035 61 4 59.063 4 56.673V12.327C4 9.937 6.035 8 8.545 8m0 0" style="opacity:.2"/><path d="M8.545 7h40.91C51.965 7 54 8.937 54 11.327v44.346C54 58.063 51.965 60 49.455 60H8.545C6.035 60 4 58.063 4 55.673V11.327C4 8.937 6.035 7 8.545 7m0 0" style="fill:#269ea3"/><path d="M8.545 7C6.035 7 4 8.937 4 11.326v1C4 9.936 6.035 8 8.545 8h40.91C51.965 8 54 9.937 54 12.326v-1C54 8.936 51.965 7 49.455 7z" style="fill:#fff;opacity:.2"/><path d="M30.844 25 29.83 36.067c-.163 1.74-.244 4.631-.244 6.37q0 4.977 1.155 6.055 1.19 1.045 2.695 1.044c2.242 0 3.287-1.644 3.708-4.453h1.296C37.67 51.533 35.375 55 30.986 55q-6.9 0-6.9-7.865c0-2.645.257-7.09.77-11.034L26.152 25h-3.465a8.54 8.54 0 0 0-4.482 1.256c-1.051.625-2.032 2.734-2.942 4.66H14c.747-2.551 1.635-5.12 2.661-6.606 1.029-1.507 2.01-2 2.942-2.509q1.401-.8 4.168-.801H41v4z" style="opacity:.2"/><path d="M30.844 24 29.83 35.067c-.163 1.74-.244 4.631-.244 6.37q0 4.977 1.155 6.055 1.19 1.045 2.695 1.044c2.242 0 3.287-1.644 3.708-4.453h1.296C37.67 50.533 35.375 54 30.986 54q-6.9 0-6.9-7.865c0-2.645.257-7.09.77-11.034L26.152 24h-3.465a8.54 8.54 0 0 0-4.482 1.256c-1.051.625-2.032 2.734-2.942 4.66H14c.747-2.551 1.635-5.12 2.661-6.606 1.029-1.507 2.01-2 2.942-2.509q1.401-.8 4.168-.801H41v4z" style="fill:#fff"/><path d="M48 54a6 6 0 1 0 12 0 6 6 0 1 0-12 0m0 0" style="fill:#ed43c1"/><path d="M60 51.2H48V54h12zm0 0" style="fill:#ed43c1"/><path d="M54 17.5 48 26h12zm0 0" style="fill:#d5bf91"/><path d="M54 17.5 50.824 22h6.352z" style="fill:#3f3f3f"/><path d="M48 26v22h12V26h-8.4Z" style="fill:#f59e2b"/><path d="M60 48H48v4h12zm0 0" style="fill:#c7c7c7"/><path d="M12 12.5a2.5 2.5 0 1 1-5.001-.001A2.5 2.5 0 0 1 12 12.5m0 0" style="fill:#3f3f3f"/><path d="M9.5 12.479V4.5" style="fill:none;stroke:#bbb;stroke-width:3;stroke-linecap:round"/><path d="M22 12.5a2.5 2.5 0 1 1-5.001-.001A2.5 2.5 0 0 1 22 12.5m0 0" style="fill:#3f3f3f"/><path d="M19.5 12.479V4.5" style="fill:none;stroke:#bbb;stroke-width:3;stroke-linecap:round"/><path d="M32 12.5a2.5 2.5 0 1 1-5.001-.001A2.5 2.5 0 0 1 32 12.5m0 0" style="fill:#3f3f3f"/><path d="M29.5 12.479V4.5" style="fill:none;stroke:#bbb;stroke-width:3;stroke-linecap:round"/><path d="M42 12.5a2.5 2.5 0 1 1-5.001-.001A2.5 2.5 0 0 1 42 12.5m0 0" style="fill:#3f3f3f"/><path d="M39.5 12.479V4.5" style="fill:none;stroke:#bbb;stroke-width:3;stroke-linecap:round"/><path d="M51 12.5a2.5 2.5 0 1 1-5.001-.001A2.5 2.5 0 0 1 51 12.5m0 0" style="fill:#3f3f3f"/><path d="M48.5 12.479V4.5" style="fill:none;stroke:#bbb;stroke-width:3;stroke-linecap:round"/><path d="M48 26h12v1H48zm0 26h12v1H48z" style="opacity:.2"/><path d="M48 48h12v1H48z" style="opacity:.2;fill:#fff"/></svg>