<svg xmlns="http://www.w3.org/2000/svg" xmlns:xlink="http://www.w3.org/1999/xlink" width="64" height="64"><defs><filter id="d" width="1.181" height="1.181" x="-.09" y="-.09" style="color-interpolation-filters:sRGB"><feGaussianBlur stdDeviation=".916"/></filter><filter id="c" width="1.204" height="1.204" x="-.102" y="-.102" style="color-interpolation-filters:sRGB"><feGaussianBlur stdDeviation="2.315"/></filter><radialGradient xlink:href="#a" id="b" cx="11.002" cy="34.411" r="28" fx="11.002" fy="34.411" gradientTransform="rotate(75 46.779 28.88)scale(1.99802 1.73235)" gradientUnits="userSpaceOnUse"/><linearGradient id="a"><stop offset="0" style="stop-color:#00c8ff;stop-opacity:1"/><stop offset="1" style="stop-color:#009cff;stop-opacity:1"/></linearGradient></defs><rect width="53.49" height="53.49" x="5.193" y="5.298" rx="26.745" ry="26.745" style="fill:url(#b);stroke-width:.955185"/><rect width="56" height="56" x="4.065" y="3.955" rx="28" ry="28" style="mix-blend-mode:normal;fill:none;stroke:#000;stroke-width:.314075;stroke-dasharray:none;stroke-opacity:1;filter:url(#c)" transform="translate(1.372 1.477)scale(.95519)"/><path d="M19.907 14.66c0 1.797.764 2.552 2.551 2.552 12.682 0 22.961 10.28 22.961 22.96 0 1.588.866 2.552 2.551 2.552 1.735 0 2.552-1.014 2.552-2.551 0-15.5-12.564-28.064-28.064-28.064-1.696 0-2.55.826-2.55 2.552m0 10.205c0 1.748.715 2.552 2.551 2.552 7.045 0 12.756 5.71 12.756 12.756 0 1.502.862 2.55 2.552 2.55 1.648 0 2.55-.914 2.55-2.55 0-9.863-7.995-17.859-17.858-17.859-1.647 0-2.55.728-2.55 2.551m5.103 7.654a5.102 5.102 0 1 0 0 10.204 5.102 5.102 0 0 0 0-10.204" style="fill:#fff;stroke-width:.850403" transform="translate(-2.203 3.797)"/><path d="M19.262 21.385c0 1.495.636 2.123 2.123 2.123 10.553 0 19.107 8.554 19.107 19.107 0 1.32.72 2.123 2.123 2.123 1.443 0 2.123-.844 2.123-2.123 0-12.898-10.455-23.353-23.353-23.353-1.411 0-2.123.688-2.123 2.123zm0 8.492c0 1.454.595 2.123 2.123 2.123C27.248 32 32 36.752 32 42.615c0 1.25.717 2.123 2.123 2.123 1.371 0 2.123-.762 2.123-2.123 0-8.208-6.653-14.86-14.86-14.86-1.371 0-2.124.605-2.124 2.122zm4.246 6.369a4.246 4.246 0 1 0 0 8.491 4.246 4.246 0 0 0 0-8.491z" style="fill:none;stroke:#0007ff;stroke-width:.2;stroke-dasharray:none;stroke-opacity:1;filter:url(#d)" transform="translate(-5.445 -7.242)scale(1.20175)"/></svg>