<svg xmlns="http://www.w3.org/2000/svg" width="64" height="64"><path d="M7.615 10A4.595 4.595 0 0 0 3 14.594v36.814A4.594 4.594 0 0 0 7.615 56h31.043c3.208 0 5.413-1.721 7.121-3.299L57.963 40.21A10.03 10.03 0 0 0 61 33.029a10.03 10.03 0 0 0-3.037-7.177l-12.309-12.48C43.704 11.43 40.998 10 37.594 10ZM51 29c2.209-.002 4 1.79 4 4a4 4 0 0 1-4 4 4 4 0 0 1 0-8" style="opacity:.2"/><path d="M7.615 9A4.595 4.595 0 0 0 3 13.594v36.814A4.594 4.594 0 0 0 7.615 55h31.043c3.208 0 5.413-1.721 7.121-3.299L57.963 39.21A10.03 10.03 0 0 0 61 32.029a10.03 10.03 0 0 0-3.037-7.177l-12.309-12.48C43.704 10.43 40.998 9 37.594 9zM51 28c2.209-.002 4 1.79 4 4a4 4 0 0 1-4 4 4 4 0 0 1 0-8" style="fill:#69e683"/><path d="M18 17v11h4v3h-8v6h-4v11h11V37h-4v-3h13v3h-4v11h11V37h-4v-6h-8v-3h4V17Z" style="opacity:.1"/><path d="M18 16v11h4v3h-8v6h-4v11h11V36h-4v-3h13v3h-4v11h11V36h-4v-6h-8v-3h4V16Z" style="fill:#176642"/><path d="M7.615 9A4.595 4.595 0 0 0 3 13.594v1A4.595 4.595 0 0 1 7.615 10h29.979c3.404 0 6.11 1.43 8.06 3.371l12.309 12.48a10.03 10.03 0 0 1 3.012 6.678c.008-.167.025-.332.025-.5a10.03 10.03 0 0 0-3.037-7.177l-12.309-12.48C43.704 10.43 40.998 9 37.594 9zm39.436 23.5c-.021.166-.051.329-.051.5 0 2.211 1.791 4 4 4 2.209.002 4-1.789 4-4 0-.171-.03-.334-.05-.5-.25 1.972-1.912 3.502-3.95 3.5-2.038 0-3.7-1.528-3.95-3.5" style="fill:#fff;opacity:.2"/></svg>