<svg xmlns="http://www.w3.org/2000/svg" width="64" height="64"><circle cx="32" cy="33" r="28" style="opacity:.2"/><path d="M32 4a27.9 27.9 0 0 0-11.722 2.56C10.666 10.994 9.763 21.169 9.763 32.457c0 15.474 7.515 20.765 22.989 20.765s17.69-6.286 17.69-21.76c0-12.047 1.965-21.769-8.7-25.722A28 28 0 0 0 32 4" style="fill:#e4e4e4"/><path d="M9.339 15.546A27.9 27.9 0 0 0 4 32c0 15.474 12.526 28 28 28 5.64 0 10.886-1.665 15.278-4.529-.042-1.511-.428-5.112-2.984-8.206-3.33-4.03-7.886-2.103-7.886-2.103l-6.486 6.835s-17-16.3-17.876-20.505c-.877-4.207 2.804-7.888 1.928-10.517-.708-2.121-3.552-4.557-4.635-5.429" style="fill:#76acec"/><path d="M58.665 23.435 37.81 44.636s5.153 1.505 7.08 4.134c1.493 2.036 2.724 4.933 3.208 6.147a28 28 0 0 0 3.883-3.297c.462-.503.942-1.027 1.43-1.571A27.9 27.9 0 0 0 60 32c0-2.988-.47-5.865-1.335-8.565" style="fill:#1ebe74"/><path d="M19.758 6.809a28.1 28.1 0 0 0-10.09 8.294c1.11 1.175 3.474 3.902 4.656 6.924 1.577 4.03-2.278 4.207-1.753 9.815s7.187 9.64 7.187 9.64z" style="fill:#ffa437"/><path d="M32 4c-2.564 0-5.046.346-7.405.99v41.447l10.936-.048-.73-42.25a28 28 0 0 0-2.8-.139" style="fill:#d4d4d4"/><path d="m42.574 6.065 1.457 17.276-.975 15.11 15.605-15.03A28.05 28.05 0 0 0 42.574 6.065" style="fill:#1ebe74"/><path d="m34.802 4.14.73 42.249 8.693-8.715L42.21 5.92a28 28 0 0 0-7.41-1.78" style="fill:#b4b4b4"/><path d="m40.578 5.356 1.43 26.51c.135 2.507.052 5.075-.834 7.424l-.03.07-1.05 1.25-3.76 2.783a21 21 0 0 0-7.107-.196c-1.533.222-3.038 1.034-4.481 1.594L21 40.838V6.268c-.96.433-2.095 1.02-3 1.557v32.49c-1.518-1.586-4.052-4.996-4.637-7.599-.79-3.505 2.89-6.045 2.89-6.045s-.088-3.244-1.665-6.136c-1.12-2.054-3.304-4.56-4.499-5.87a28 28 0 0 0-1.714 2.329c1.11.973 2.904 2.886 3.145 5.296.35 3.505-1.317 5.87-.528 9.639.626 2.99 5.624 7.888 7.667 9.789q.037.053.082.101l4.288 4.29c-2.94 1.454-5.549 3.584-7.512 6.213 2.386-2.35 5.304-4.145 8.458-5.267l5.455 5.706a.877.877 0 0 0 1.241 0l6.133-6.39c.612.159 1.22.345 1.813.564 2.61.962 5.007 2.527 6.853 4.608.472.533.914 1.11 1.164 1.777.292.776.304 1.656.033 2.439-.008.024-.022.046-.033.068 1.119-.594 2.245-1.534 3.134-2.24l.02-.016a21 21 0 0 0-2.473-3.144 14.5 14.5 0 0 1-1.684-4.547c-.218-1.165-.29-2.374-.022-3.528s.901-2.252 1.881-2.917a4.1 4.1 0 0 1 2.516-.681 4.46 4.46 0 0 1 2.444.93 4.66 4.66 0 0 1 1.595 2.324c.275.914.26 1.914-.047 2.819-.23.68-.736 1.26-1.378 1.58s-1.41.377-2.092.154a2.9 2.9 0 0 1-1.23-.807 3.1 3.1 0 0 1-.69-1.299c-.145-.567-.13-1.188.116-1.72a2 2 0 0 1 .522-.694c.225-.188.5-.321.787-.375a1.62 1.62 0 0 1 1.042.156c.318.167.576.446.722.774a1.45 1.45 0 0 0-1.05-.413 1.46 1.46 0 0 0-1.025.473 1.5 1.5 0 0 0-.353.73 1.54 1.54 0 0 0 .552 1.463c.21.174.463.293.73.347.306.062.629.04.924-.057a2 2 0 0 0 .785-.49c.443-.438.68-1.06.708-1.681a3 3 0 0 0-.864-2.232 3 3 0 0 0-2.234-.87 3.14 3.14 0 0 0-1.498.474c-.45.279-.835.67-1.118 1.118-.567.896-.727 2.013-.545 3.057.206 1.18.85 2.287 1.808 3.005.958.719 2.228 1.029 3.399.777a4.2 4.2 0 0 0 2.02-1.094 4.7 4.7 0 0 0 1.204-1.966c.468-1.48.213-3.138-.53-4.5-.46-.843-1.103-1.597-1.395-2.51-.198-.617-.223-1.277-.154-1.92.054-.497.163-.992.364-1.45s.497-.88.883-1.197a2.4 2.4 0 0 1 1.367-.553 1.9 1.9 0 0 1 1.381.47c.317.29.519.698.586 1.122a2.5 2.5 0 0 1-.15 1.266c-.184.477-.506.914-.958 1.154-.226.12-.483.189-.738.186a1.3 1.3 0 0 1-.722-.227 1.15 1.15 0 0 1-.386-.454 1.1 1.1 0 0 1-.095-.59c.025-.201.111-.394.246-.545a.93.93 0 0 1 1.072-.238.82.82 0 0 0-.58.405.83.83 0 0 0-.038.71.83.83 0 0 0 .26.337.9.9 0 0 0 .393.17.98.98 0 0 0 .796-.236 1.13 1.13 0 0 0 .369-.751 1.34 1.34 0 0 0-.208-.82 1.58 1.58 0 0 0-.949-.668 1.8 1.8 0 0 0-1.156.11 2.02 2.02 0 0 0-1.198 2.023 2.12 2.12 0 0 0 1.474 1.851c.357.117.742.138 1.113.074.37-.064.726-.214 1.036-.427.62-.425 1.05-1.093 1.258-1.815.202-.7.202-1.467-.052-2.15s-.77-1.273-1.436-1.57c-.684-.303-1.482-.282-2.193-.046-.71.237-1.34.673-1.894 1.176-1.108 1.007-1.958 2.298-3.191 3.147-.999.688-2.19 1.046-3.189 1.734-.936.645-1.661 1.551-2.357 2.45-.695.9-1.388 1.817-2.291 2.507a6.3 6.3 0 0 1-1.395.804q.166-.372.342-.74a29 29 0 0 1 1.983-3.517l15.916-16.02c-.195-.699-.415-1.253-.637-1.877L47.873 33.46a6.3 6.3 0 0 1 .287-1.736c.483-1.541 1.53-2.834 2.6-4.042 1.072-1.208 2.207-2.396 2.92-3.844.704-1.426.962-3.052.849-4.638-.114-1.586-.59-3.134-1.286-4.563a15.4 15.4 0 0 0-1.613-2.598q-.406-.402-.826-.785l-.003-.002a28 28 0 0 0-2.094-1.72 28 28 0 0 0-1.094-.771c.697 2.351.83 4.866.37 7.276-.632 3.299-2.328 6.327-2.894 9.638a14.68 14.68 0 0 0 1.474 9.223L45.2 36.4a1.3 1.3 0 0 1-.345-.301 1.7 1.7 0 0 1-.311-.667c-.06-.24-.085-.49-.11-.736-.312-3.09-.64-6.256.123-9.267.431-1.701 1.198-3.296 1.827-4.935.628-1.64 1.124-3.378.976-5.127-.19-2.238-1.499-4.356-3.418-5.524a12.5 12.5 0 0 1 2.018 6.136 12.54 12.54 0 0 1-1.928 7.364l-.445-5.264-.197-11.648c-.915-.437-1.87-.76-2.811-1.075" style="fill:#3f3f3f"/><path d="M48.201 9.16a13.33 13.33 0 0 1 .777 8.094c-.652 2.95-2.293 5.606-2.973 8.55a13.7 13.7 0 0 0 .867 8.673 14.5 14.5 0 0 1 .665-9.472c.929-2.158 2.388-4.09 3.024-6.351.775-2.758.19-5.865-1.534-8.152 1.456 1.862 2.16 4.284 1.982 6.637.334-.571.853-.789 1.584-1.01-.783.28-1.215.632-1.595 1.122a9 9 0 0 1-.262 1.534q-.03.11-.063.221c.686-.874 1.344-.901 2.09-1.126-.8.285-1.36.53-2.136 1.29-.195.635-.45 1.247-.733 1.849.954-.841 2.221-1.005 2.977-1.233-.785.28-2.093.545-3 1.28-.446.946-.96 1.87-1.43 2.81 1.338-1.433 3.47-1.867 4.57-2.17-1.176.383-3.351 1.282-4.687 2.408a16 16 0 0 0-.812 1.928c1.12-.875 2.24-1.252 3.36-1.562a14.4 14.4 0 0 0-3.382 1.62 16 16 0 0 0-.58 2.154c1.12-.873 2.239-1.25 3.358-1.559a14.4 14.4 0 0 0-3.366 1.608q-.166.852-.243 1.715c.723-.623 1.448-.888 2.171-1.108a9 9 0 0 0-2.174 1.14 16.4 16.4 0 0 0 .216 4.427 18 18 0 0 1 2.603-6.319c.77-1.17 1.674-2.244 2.467-3.399.792-1.154 1.483-2.414 1.747-3.79.257-1.336.097-2.731-.312-4.03-.408-1.298-1.06-2.508-1.796-3.653a27 27 0 0 0-3.013-3.864l-.006-.002q-.18-.132-.36-.26" style="fill:#60e357"/><path d="M32 4A28 28 0 0 0 4 32a28 28 0 0 0 .033.482A28 28 0 0 1 32 5a28 28 0 0 1 27.982 27.242L60 32A28 28 0 0 0 32 4" style="opacity:.1;fill:#fff"/><path d="m40.578 6.355 1.43 26.51c.025.475.033.953.039 1.43.021-.81.004-1.623-.04-2.43l-1.374-25.49zm7.035 3.405c.375 1.264.581 2.576.625 3.892a15.6 15.6 0 0 0-.326-3.681q-.148-.107-.299-.211m-3.672 1.084a12.5 12.5 0 0 1 2.018 6.135c.003.05 0 .1.002.15.015-.383.019-.768-.002-1.15a12.5 12.5 0 0 0-1.102-4.452 7 7 0 0 0-.916-.683m3.424 5.66c-.084 1.362-.49 2.707-.982 3.99-.629 1.64-1.395 3.234-1.826 4.936-.394 1.555-.495 3.151-.46 4.758.023-1.269.148-2.526.46-3.758.293-1.157.738-2.266 1.193-3.371.427-1.346.936-2.671 1.39-4.01.186-.84.281-1.69.225-2.545m-38.566.88c-.142.204-.288.403-.424.61 1.11.973 2.904 2.885 3.145 5.295q.021.232.03.457c.021-.468.02-.949-.03-1.457-.213-2.122-1.628-3.855-2.721-4.904m45.74 3.06c-.063 1.175-.338 2.34-.857 3.394-.714 1.448-1.85 2.636-2.922 3.844s-2.117 2.5-2.6 4.04a6.3 6.3 0 0 0-.287 1.737l.152-.168c.041-.19.077-.383.135-.568.483-1.541 1.528-2.833 2.6-4.041 1.071-1.208 2.208-2.396 2.922-3.844.667-1.354.929-2.886.857-4.395m4.043 3.786L42.908 40.008a29 29 0 0 0-2.324 4.258q.329-.14.64-.317a29 29 0 0 1 1.684-2.941l15.916-16.02c-.077-.273-.16-.515-.242-.758M16.17 26.734c-.234.167-3.23 2.366-2.88 5.49.306-2.71 2.962-4.554 2.962-4.554s-.014-.368-.082-.936m28.736 1.846a14.7 14.7 0 0 0 1.346 6.66l.31-.342a14.7 14.7 0 0 1-1.656-6.318m-34.113 1.733c-.041.81 0 1.667.2 2.615.625 2.99 5.622 7.888 7.665 9.789q.037.054.082.101l3.635 3.637c.217-.117.433-.236.654-.346l-4.289-4.29a1 1 0 0 1-.082-.102c-.17-.159-.45-.441-.658-.639v.236a21 21 0 0 1-1.238-1.437c-2.31-2.323-5.295-5.68-5.77-7.95a10 10 0 0 1-.199-1.614m45.215 2.957a3.4 3.4 0 0 0-1.108.177 4 4 0 0 0-.457.188l-.035.025c-.386.317-.681.74-.883 1.197-.2.458-.31.953-.363 1.45a5.4 5.4 0 0 0-.008 1.103q.003-.052.008-.103c.053-.497.162-.992.363-1.45.202-.457.497-.88.883-1.197a2.4 2.4 0 0 1 1.367-.553c.5-.027 1.012.134 1.381.471.281.257.465.607.551.979.06-.283.08-.573.035-.858a1.93 1.93 0 0 0-.586-1.12c-.047-.044-.102-.077-.154-.114a2.7 2.7 0 0 0-.994-.195m-.27 2.082a1.85 1.85 0 0 0-.802.142c-.132.15-.217.341-.243.54-.025.2.01.406.096.589.008.018.022.032.031.049.036-.064.07-.13.12-.184a.94.94 0 0 1 .414-.258.82.82 0 0 1 .078-.574.8.8 0 0 1 .306-.304m2.948.367a4 4 0 0 1-.106.494c-.208.722-.638 1.391-1.258 1.816-.31.213-.665.362-1.035.426s-.756.042-1.113-.074a2.2 2.2 0 0 1-1.02-.701 2.1 2.1 0 0 1-.398-.813 2.08 2.08 0 0 0 .398 1.813c.262.326.622.571 1.02.7.357.117.743.14 1.113.075a2.6 2.6 0 0 0 1.035-.426c.62-.425 1.05-1.094 1.258-1.816.14-.483.176-.997.106-1.494m-1.584.57c-.063.132-.15.251-.26.348a.98.98 0 0 1-.795.236.9.9 0 0 1-.395-.17.8.8 0 0 1-.148-.148q-.04.047-.072.101a.82.82 0 0 0-.092.502c.174.086.363.144.556.147.256.003.513-.066.739-.186a1.9 1.9 0 0 0 .57-.48 1.3 1.3 0 0 0-.103-.35m-7.096 2.465a4.1 4.1 0 0 0-2.516.68c-.98.665-1.613 1.764-1.88 2.918-.16.687-.19 1.395-.15 2.101.024-.37.065-.74.15-1.101.267-1.154.9-2.253 1.88-2.918a4.1 4.1 0 0 1 2.516-.68 4.46 4.46 0 0 1 2.445.93 4.66 4.66 0 0 1 1.594 2.324c.079.262.127.532.158.804a4.7 4.7 0 0 0-.158-1.804 4.66 4.66 0 0 0-1.594-2.324 4.46 4.46 0 0 0-2.445-.93m.295 2.885q-.136.001-.268.027a1.74 1.74 0 0 0-.787.375 2 2 0 0 0-.523.693c-.214.465-.243.995-.153 1.5a1.98 1.98 0 0 1 .676-1.193q.174-.145.379-.242c.033-.047.057-.1.096-.143a1.46 1.46 0 0 1 1.025-.474c.387-.012.775.142 1.05.414a1.63 1.63 0 0 0-.722-.774 1.6 1.6 0 0 0-.773-.183m2.72 1.681c-.086.499-.303.973-.662 1.328-.221.22-.487.393-.783.49-.296.098-.62.12-.926.057a1.66 1.66 0 0 1-.728-.347 1.6 1.6 0 0 1-.477-.657l-.006-.025c-.024.073-.057.143-.07.219a1.54 1.54 0 0 0 .553 1.463c.21.174.46.293.728.347.306.062.63.041.926-.056.296-.098.562-.271.783-.49.443-.439.682-1.06.71-1.682a3 3 0 0 0-.048-.647m2.428.862c-.033.357-.1.71-.209 1.054a4.7 4.7 0 0 1-1.203 1.967c-.558.54-1.263.93-2.021 1.094-1.171.252-2.44-.06-3.399-.777-.958-.719-1.603-1.825-1.808-3.004-.019-.106-.018-.215-.03-.323-.048.44-.046.887.03 1.323.205 1.18.85 2.285 1.808 3.004s2.228 1.03 3.399.777a4.2 4.2 0 0 0 2.021-1.094 4.7 4.7 0 0 0 1.203-1.967c.21-.663.269-1.362.21-2.054m-18.644 2.19-6.133 6.388a.88.88 0 0 1-1.242 0l-5.455-5.705a23.6 23.6 0 0 0-3.745 1.722 20.7 20.7 0 0 0-4.712 4.545c2.386-2.349 5.303-4.145 8.457-5.267l5.455 5.705c.342.343.9.343 1.242 0l6.133-6.389c.612.158 1.219.346 1.812.565 2.61.961 5.006 2.526 6.852 4.607.473.533.915 1.11 1.166 1.777.096.258.15.528.185.801.09-.604.03-1.23-.185-1.8-.25-.668-.693-1.245-1.166-1.778-1.846-2.08-4.242-3.646-6.852-4.607-.593-.22-1.2-.407-1.812-.565m12.54 7.546c-.754.603-1.608 1.274-2.495 1.78-.011.36-.064.719-.182 1.06q-.015.035-.033.068c1.118-.594 2.244-1.533 3.133-2.238l.02-.018a21 21 0 0 0-.442-.652" style="opacity:.1"/></svg>