<svg xmlns="http://www.w3.org/2000/svg" width="64" height="64"><path d="M8.308 5h47.384A4.307 4.307 0 0 1 60 9.306v47.388A4.307 4.307 0 0 1 55.692 61H8.308A4.307 4.307 0 0 1 4 56.694V9.306A4.307 4.307 0 0 1 8.308 5m0 0" style="opacity:.2"/><path d="M8.308 4h47.384A4.307 4.307 0 0 1 60 8.306v47.388A4.307 4.307 0 0 1 55.692 60H8.308A4.307 4.307 0 0 1 4 55.694V8.306A4.307 4.307 0 0 1 8.308 4m0 0" style="fill:#e4e4e4"/><path d="M25 8v7h23.428C50.406 15 52 13.439 52 11.5S50.406 8 48.428 8h-9.285z" style="opacity:.1"/><path d="M42.016 56H56V42.016Z" style="fill:#f6cb32"/><path d="M8 56h34l14-14V19H8Z" style="fill:#2ebed7"/><path d="M15.571 8C13.593 8 12 9.561 12 11.5s1.593 3.5 3.571 3.5H25V8Z" style="opacity:.3"/><path d="M42.016 56 56 42.016 42 42Zm0 0" style="fill:#2d9b68"/><path d="M37 8h1v7h-1z" style="opacity:.2"/><path d="M8 56h48v1H8z" style="opacity:.1"/><path d="M8.309 4A4.31 4.31 0 0 0 4 8.307v1A4.31 4.31 0 0 1 8.309 5H55.69A4.31 4.31 0 0 1 60 9.307v-1A4.31 4.31 0 0 0 55.691 4z" style="fill:#fff;opacity:.2"/></svg>