<svg xmlns="http://www.w3.org/2000/svg" width="64" height="64"><path d="M32 36a8 8 0 0 0-7.734 6H14v-2.389A1.517 1.613 0 0 0 12.438 38a1.517 1.613 0 0 0-.713.215l-3.983 2.443-3.982 2.446a1.517 1.613 0 0 0 0 2.792l3.982 2.444 3.983 2.443A1.517 1.613 0 0 0 14 49.387V47h10.588A8 8 0 0 0 32 52a8 8 0 0 0 7.41-5H50v2.387a1.517 1.613 0 0 0 2.275 1.396l3.983-2.443 3.982-2.444a1.517 1.613 0 0 0 0-2.792l-3.982-2.446-3.983-2.443a1.517 1.613 0 0 0-.712-.215A1.517 1.613 0 0 0 50 39.611V42H39.74A8 8 0 0 0 32 36" style="opacity:.2"/><path d="M61 43H3c0-16.016 12.984-29 29-29s29 12.984 29 29" style="fill:#65b457"/><path d="M32 14C15.984 14 3 26.984 3 43h.025C3.554 27.448 16.32 15 32 15s28.446 12.448 28.975 28H61c0-16.016-12.984-29-29-29" style="fill:#fff;opacity:.2"/><path d="M34 18.09v3.01a22 22 0 0 1 7.44 2.068l2.62-2.027A25 25 0 0 0 34 18.09m-4 .01a25 25 0 0 0-10.086 3.021l2.633 2.037A22 22 0 0 1 30 21.11zm17.59 5.367-2.475 1.914A22 22 0 0 1 50.432 31h3.5a25 25 0 0 0-6.342-7.533m-31.166.01A25 25 0 0 0 10.1 31h3.484a22 22 0 0 1 5.291-5.627zM8.348 35A25 25 0 0 0 7 43a25 25 0 0 0 .05 1h2.985A22 22 0 0 1 10 43a22 22 0 0 1 1.53-8zm44.144 0A22 22 0 0 1 54 43a22 22 0 0 1-.049 1h3.014A25 25 0 0 0 57 43a25 25 0 0 0-1.34-8z" style="opacity:.2"/><path d="M34 17.09v3.01a22 22 0 0 1 7.44 2.068l2.62-2.027A25 25 0 0 0 34 17.09m-4 .01a25 25 0 0 0-10.086 3.021l2.633 2.037A22 22 0 0 1 30 20.11zm17.59 5.367-2.475 1.914A22 22 0 0 1 50.432 30h3.5a25 25 0 0 0-6.342-7.533m-31.166.01A25 25 0 0 0 10.1 30h3.484a22 22 0 0 1 5.291-5.627zM8.348 34A25 25 0 0 0 7 42a25 25 0 0 0 .05 1h2.985A22 22 0 0 1 10 42a22 22 0 0 1 1.53-8zm44.144 0A22 22 0 0 1 54 42a22 22 0 0 1-.049 1h3.014A25 25 0 0 0 57 42a25 25 0 0 0-1.34-8z" style="fill:#fff"/><path d="M10 41v5h22v-5z" style="fill:#3f3f3f"/><path d="M12.438 37a1.517 1.613 0 0 0-.714.215L3.76 42.103a1.517 1.613 0 0 0 0 2.793l3.983 2.444 3.982 2.444A1.517 1.613 0 0 0 14 48.387v-9.775A1.517 1.613 0 0 0 12.438 37M54 41v5H32v-5z" style="fill:#3f3f3f"/><path d="M51.562 37a1.517 1.613 0 0 1 .714.215l3.982 2.444 3.983 2.444a1.517 1.613 0 0 1 0 2.793l-3.983 2.444-3.982 2.444A1.517 1.613 0 0 1 50 48.387v-9.775A1.517 1.613 0 0 1 51.562 37" style="fill:#3f3f3f"/><circle cx="32" cy="43" r="8" style="fill:#4f4f4f"/><circle cx="32" cy="44" r="5" style="opacity:.2"/><circle cx="32" cy="43" r="5" style="fill:#fff"/></svg>