<svg xmlns="http://www.w3.org/2000/svg" width="64" height="64"><path d="M21.056 5v11.2H3v42C3 59.751 4.239 61 5.778 61h44.444A2.783 2.783 0 0 0 53 58.2V7.8C53 6.249 51.761 5 50.222 5Z" style="opacity:.2"/><path d="M21.056 4v11.2H3v42C3 58.751 4.239 60 5.778 60h44.444A2.783 2.783 0 0 0 53 57.2V6.8C53 5.249 51.761 4 50.222 4Z" style="fill:#e4e4e4"/><path d="M6 50v7h37v-3h7v-4Zm0-11v8h11v-3h33v-5Z" style="opacity:.15"/><path d="M26 24v12h16v-3h8v-9Z" style="opacity:.2"/><path d="M26 13h24v8H26z" style="opacity:.15"/><path d="M26 7h21v3H26z" style="opacity:.3"/><path d="M21.055 4v1h29.168A2.783 2.783 0 0 1 53 7.8v-1C53 5.25 51.762 4 50.223 4Z" style="opacity:.2;fill:#fff"/><path d="M5.805 5.001C3.397 4.954 3 6.401 3 8.41v8.997c1.292 2.027 1.888 5.201 4.311 6.414 1.175.899 1.186 3.453 2.858 3.938 1.074 1.076.563 3.145 1.777 4.254.744-.16 2.687.094.977.63-2.015.246-4.113-.04-6.155-.1L3 32.333v5.784c-1.046.758-1.723 1.457.091.732.056.94-1.146 1.018-.97 1.74-.875.347-.635 1.828.701 1.245-1.217.845 1.037.47.335 2.086-.346 1.594.457 1.386 1.633 1.477.286 2.706 3.929.892 5.51 2.066 2.612-1.474 4.552-3.925 6.669-6.002 1.307-1.287 3.53-1.87 5.095-.748.922.41 1.847.955 2.247 1.955.7 1.183 2.329 1.26 3.315 2.171.88.795 2.106.76 3.138 1.15.355.757 1.048 1.106 1.855 1.321.145.529 1.123 1.069 1.662 1.201.521.733 1.398.738 2.02 1.319 1.03.056 1.072.829 2.218.45.87.88 1.316.091 1.907.933.94-.28 1.565.58 2.435.029.954.176 1.142 0 1.896.476.952.009 1.462-.666 2.451-.547.768-.69 1.696-.185 2.511-.723.732-.676 1.706.053 2.612-.48 1.94.122-.15-.95 1.033-1.202l3.069-1.184c-1.22-.57-.794-.405.193-1.313 1.327-1.145 2.839-2.126 3.627-3.75 1.117-1.863 2.603-3.67 2.943-5.862-.902.735-1.212 1.961-1.855 2.91.408-1.418-.977.386-1.258.824-.756 1.319-2.117 1.583-3.308 2.446-1.519.08-3.04.184-4.485-.392-3.81-1.26-7.41-2.687-10.239-4.677-1.305-1.268-2.987-1.981-4.487-2.964-.585-1.213-.046-1.643 1.146-2.5 1.293-.832 2.778-2.031 4.34-2.148.46-.034.928.28 1.4.41.688.81.608-1.192.414-1.702-.217-1.183-1.35-2.047-2.546-1.943-1.365-.815-3.224-1.289-4.576-.193-1.76.414-3.794 1.071-5.37-.181-2.17-1.37-4.08-3.204-4.957-5.682C25.472 16.043 23.759 10.052 22.493 5h-2.917Z" style="opacity:.1"/><path d="M5.805 4.001C3.397 3.954 3 5.401 3 7.41v8.998c1.292 2.027 1.888 5.2 4.311 6.413 1.175.9 1.186 3.453 2.858 3.938 1.074 1.076.563 3.145 1.777 4.254.744-.16 2.687.094.977.63-2.015.246-4.113-.04-6.155-.1L3 31.333v5.784c-1.046.758-1.723 1.458.091.732.056.94-1.146 1.018-.97 1.74-.875.347-.635 1.828.701 1.246-1.217.844 1.037.468.335 2.085-.346 1.594.457 1.386 1.633 1.477.286 2.706 3.929.892 5.51 2.066 2.612-1.474 4.552-3.925 6.669-6.002 1.307-1.287 3.53-1.869 5.095-.748.922.41 1.847.955 2.247 1.955.7 1.183 2.329 1.26 3.315 2.171.88.795 2.106.76 3.138 1.15.355.757 1.048 1.106 1.855 1.321.145.529 1.123 1.07 1.662 1.201.521.733 1.398.738 2.02 1.319 1.03.056 1.072.829 2.218.45.87.88 1.316.091 1.907.933.94-.28 1.565.58 2.435.03.954.175 1.142-.001 1.896.475.952.009 1.462-.665 2.451-.547.768-.69 1.696-.184 2.511-.723.732-.676 1.706.053 2.612-.48 1.94.122-.15-.95 1.033-1.202l3.069-1.184c-1.22-.57-.794-.405.193-1.313 1.327-1.145 2.839-2.126 3.627-3.75 1.117-1.863 2.603-3.67 2.943-5.862-.902.735-1.212 1.961-1.855 2.911.408-1.42-.977.385-1.258.823-.756 1.319-2.117 1.584-3.308 2.446-1.519.08-3.04.184-4.485-.392-3.81-1.26-7.41-2.687-10.239-4.677-1.305-1.268-2.987-1.981-4.487-2.964-.585-1.213-.046-1.643 1.146-2.5 1.293-.832 2.778-2.031 4.34-2.148.46-.034.928.28 1.4.41.688.81.608-1.192.414-1.702-.217-1.183-1.35-2.047-2.546-1.943-1.365-.815-3.224-1.288-4.576-.193-1.76.414-3.794 1.071-5.37-.18-2.17-1.37-4.08-3.205-4.957-5.683C25.472 15.043 23.759 9.052 22.493 4h-2.917Z" style="fill:#3f3f3f"/></svg>