<svg xmlns="http://www.w3.org/2000/svg" width="64" height="64"><path d="M31.999 3c-1.571 0-3.144.586-4.319 1.76L3.76 28.684c-2.349 2.35-2.346 6.281.004 8.631l23.92 23.922c2.349 2.35 6.285 2.353 8.634.004l23.92-23.923c2.349-2.349 2.349-6.284 0-8.634L36.318 4.761C35.143 3.586 33.571 3 31.999 3" style="opacity:.2"/><path d="M2 32c.001 1.57.59 3.14 1.764 4.314l23.92 23.922c2.349 2.35 6.285 2.353 8.634.004l23.92-23.924C61.413 35.142 62 33.571 62 32z" style="fill:#48de78"/><path d="M2 32h60c0-1.571-.587-3.141-1.762-4.316L36.318 3.76C35.143 2.585 33.57 2 31.998 2c-1.571 0-3.143.585-4.318 1.76L3.76 27.684C2.585 28.859 1.999 30.429 2 32" style="fill:#3686e3"/><path d="M32 2c-1.571 0-3.146.585-4.32 1.76L3.76 27.684c-1.3 1.299-1.876 3.082-1.737 4.814a6.04 6.04 0 0 1 1.737-3.814L27.68 4.76C28.854 3.585 30.429 3 32 3s3.144.585 4.318 1.76l23.92 23.924a6.05 6.05 0 0 1 1.739 3.816c.138-1.733-.439-3.517-1.739-4.816L36.318 3.76C35.144 2.585 33.572 2 32 2" style="opacity:.2;fill:#fff"/><path d="M32 19v13h-1l1 1 9 9 1 1V33h-1v-1h-8l13-13zm0 14H11l21 21z" style="opacity:.2"/><path d="M11 32h21v21zm0 0" style="fill:#fff"/><path d="M46 18H32v14zm0 0" style="fill:#9ae5ff"/><path d="M32 32h10v10zm0 0" style="fill:#97ffbe"/></svg>