<svg xmlns="http://www.w3.org/2000/svg" width="64" height="64"><path d="M4 47v8.75C4 58.614 6.386 61 9.25 61H18v-6h-8v-8zm50 0v8h-8v6h8.75c2.864 0 5.25-2.386 5.25-5.25V47Z" style="opacity:.2"/><path d="M10.532 7h42.936C55.42 7 57 8.927 57 11.3v41.4c0 2.373-1.58 4.3-3.532 4.3H10.532C8.58 57 7 55.073 7 52.7V11.3C7 8.928 8.58 7 10.532 7m0 0" style="fill:#e4e4e4"/><path d="M9.25 5C6.386 5 4 7.386 4 10.25V19h6v-8h8V5ZM46 5v6h8v8h6v-8.75C60 7.386 57.614 5 54.75 5Z" style="opacity:.1"/><path d="M54 46v8h-8v6h8.75c2.864 0 5.25-2.386 5.25-5.25V46ZM4 46v8.75C4 57.614 6.386 60 9.25 60H18v-6h-8v-8zM46 4v6h8v8h6V9.25C60 6.386 57.614 4 54.75 4ZM9.25 4C6.386 4 4 6.386 4 9.25V18h6v-8h8V4Z" style="fill:#ed333b"/><path fill="#3584e4" d="M12 18v3h4v11h-4v3h16V25h-3v7h-6V21h4v-3Zm19 0h3v3h-3zm6 0h3v3h-3zm6 0h3v3h-3zm6 0h3v3h-3zm0 0"/><path d="M31 25h21v3H31Zm0 7h21v3H31Zm-19 7h40v3H12Zm0 7h22v3H12Zm0 0" style="fill:#afafaf"/><path fill="#ed333b" d="M37 46h3v3h-3zm6 0h3v3h-3zm6 0h3v3h-3zm0 0"/><path d="M18 57h28v1H18z" style="opacity:.2"/><path d="M18 7h28v1H18z" style="opacity:.2;fill:#fff"/><path d="M9.25 4C6.386 4 4 6.386 4 9.25v1C4 7.386 6.386 5 9.25 5H18V4zM46 4v1h8.75C57.614 5 60 7.386 60 10.25v-1C60 6.386 57.614 4 54.75 4z" style="fill:#fff;opacity:.2"/></svg>