<svg xmlns="http://www.w3.org/2000/svg" xmlns:xlink="http://www.w3.org/1999/xlink" width="64" height="64"><defs><radialGradient xlink:href="#a" id="f" cx="34.448" cy="13.722" r="14.663" fx="34.448" fy="13.722" gradientTransform="rotate(120 99.572 11.123)scale(3.71015 4.01918)" gradientUnits="userSpaceOnUse"/><radialGradient xlink:href="#b" id="d" cx="30.195" cy="38.907" r="18.948" fx="30.195" fy="38.907" gradientTransform="rotate(255 40.084 109.06)scale(3.50297 3.681)" gradientUnits="userSpaceOnUse"/><radialGradient xlink:href="#c" id="e" cx="15.418" cy="60.022" r="23.154" fx="15.418" fy="60.022" gradientTransform="matrix(1.63539 0 0 1.7185 -6.36 -40.395)" gradientUnits="userSpaceOnUse"/><linearGradient id="c"><stop offset="0" style="stop-color:#00ff63;stop-opacity:1"/><stop offset="1" style="stop-color:#00ff46;stop-opacity:0"/></linearGradient><linearGradient id="a"><stop offset="0" style="stop-color:#000;stop-opacity:1"/><stop offset="1" style="stop-color:#00d2ff;stop-opacity:1"/></linearGradient><linearGradient id="b"><stop offset="0" style="stop-color:#feb34f;stop-opacity:1"/><stop offset=".242" style="stop-color:#fe8668;stop-opacity:1"/><stop offset=".505" style="stop-color:#cd5dd9;stop-opacity:1"/><stop offset=".768" style="stop-color:#4263e7;stop-opacity:1"/></linearGradient><filter id="h" width="1.328" height="1.312" x="-.164" y="-.156" style="color-interpolation-filters:sRGB"><feGaussianBlur stdDeviation="3.12"/></filter><filter id="g" width="1.215" height="1.199" x="-.108" y="-.099" style="color-interpolation-filters:sRGB"><feGaussianBlur stdDeviation="1.315"/></filter></defs><path d="M20.254 7.672c-5.978-.126-11.409 4.777-11.408 11.064v26.626c.007 8.351 9.593 13.55 16.628 9.649l11.988-6.654 11.99-6.661.005-.003c3.513-1.955 5.697-5.871 5.697-9.649s-2.184-7.694-5.697-9.65l-.005-.001-11.99-6.66-11.974-6.646-.012-.005a11.2 11.2 0 0 0-5.188-1.41Z" style="fill:url(#d);stroke-width:1.22196"/><path d="M20.254 7.672c-5.978-.126-11.409 4.777-11.408 11.064v26.625c.007 8.352 9.593 13.551 16.628 9.65l11.988-6.654 11.99-6.661.005-.003c3.513-1.955 5.697-5.871 5.697-9.65 0-3.777-2.184-7.693-5.697-9.648l-.005-.003-11.99-6.658-11.974-6.647-.012-.005a11.2 11.2 0 0 0-5.189-1.41z" style="fill:url(#e);stroke-width:1.22196"/><path d="M20.079 16.116a2.678 2.576 0 0 0-2.742 2.575V45.31a2.678 2.576 0 0 0 4.017 2.23l11.985-6.653 11.986-6.657a2.678 2.576 0 0 0 0-4.46l-11.987-6.655-11.985-6.653a2.678 2.576 0 0 0-1.276-.345z" style="opacity:.277856;fill:url(#f);stroke-width:1.22196;filter:url(#g)"/><path d="M20.254 7.672c-5.978-.126-11.409 4.777-11.408 11.064v26.625c.006 8.352 9.594 13.55 16.629 9.649l11.986-6.652 11.992-6.663.004-.002c3.513-1.955 5.697-5.87 5.697-9.648s-2.184-7.695-5.697-9.65l-.004-.002-11.992-6.659-11.973-6.648-.011-.004a11.24 11.24 0 0 0-5.19-1.41Zm-.176 8.443v.002a2.678 2.576 0 0 1 1.275.346l11.985 6.652 11.986 6.655a2.678 2.576 0 0 1 0 4.46L33.34 40.888 21.353 47.54a2.678 2.576 0 0 1-4.017-2.228V18.69a2.678 2.576 0 0 1 2.742-2.576z" style="fill:none;stroke:#000;stroke-width:.2;stroke-dasharray:none;stroke-opacity:1;filter:url(#h)"/><path d="M20.078 16.115c-1.504-.034-2.743 1.13-2.742 2.576v26.62c.002 1.981 2.233 3.219 4.018 2.228l11.986-6.652 11.984-6.657a2.527 2.527 0 0 0 0-4.46l-11.986-6.655-11.984-6.652a2.76 2.76 0 0 0-1.276-.346z" style="opacity:.349788;stroke-width:1.22196"/></svg>