<svg xmlns="http://www.w3.org/2000/svg" width="64" height="64"><rect width="56" height="56" x="4" y="5" rx="28" ry="28" style="opacity:.2"/><rect width="56" height="56" x="4" y="4" rx="28" ry="28" style="fill:#ababab"/><circle cx="32" cy="33" r="22" style="opacity:.1"/><circle cx="32" cy="32" r="22" style="fill:#3f3f3f"/><path d="M24.869 22A1.827 1.783 0 0 0 23 23.785v18.432a1.827 1.783 0 0 0 2.74 1.544l8.174-4.607 8.173-4.609a1.827 1.783 0 0 0 0-3.088l-8.173-4.61-8.174-4.607a1.827 1.783 0 0 0-.871-.24" style="opacity:.2"/><path d="M24.869 21A1.827 1.783 0 0 0 23 22.785v18.432a1.827 1.783 0 0 0 2.74 1.544l8.174-4.607 8.173-4.609a1.827 1.783 0 0 0 0-3.088l-8.173-4.61-8.174-4.607a1.827 1.783 0 0 0-.871-.24" style="fill:#fff"/><path d="M32 4C16.488 4 4 16.488 4 32c0 .113.011.224.018.336C4.369 17.134 16.71 5 32 5s27.63 12.134 27.982 27.336c.007-.112.018-.223.018-.336C60 16.488 47.512 4 32 4" style="opacity:.2;fill:#fff"/></svg>