<svg xmlns="http://www.w3.org/2000/svg" xmlns:xlink="http://www.w3.org/1999/xlink" width="64" height="64"><defs><radialGradient xlink:href="#a" id="g" cx="11.378" cy="51.785" r="22" fx="11.378" fy="51.785" gradientTransform="matrix(1.97322 -.3201 .318 1.96032 -29.91 -42.337)" gradientUnits="userSpaceOnUse"/><radialGradient xlink:href="#b" id="h" cx="27.126" cy="37.229" r="4.547" fx="27.126" fy="37.229" gradientTransform="rotate(20.971 260.565 1.19)scale(1.85206 3.11238)" gradientUnits="userSpaceOnUse"/><radialGradient xlink:href="#c" id="i" cx="25.905" cy="18.542" r="22.014" fx="25.905" fy="18.542" gradientTransform="matrix(-.26146 .64142 -1.56452 -.32669 47.034 -4.948)" gradientUnits="userSpaceOnUse"/><radialGradient xlink:href="#d" id="j" cx="58.684" cy="11.498" r="19.5" fx="58.684" fy="11.498" gradientTransform="rotate(135.176 76.762 1.935)scale(1.72633 .93356)" gradientUnits="userSpaceOnUse"/><radialGradient xlink:href="#e" id="k" cx="58.684" cy="11.498" r="19.5" fx="58.684" fy="11.498" gradientTransform="rotate(135.176 76.762 1.935)scale(1.72633 .93356)" gradientUnits="userSpaceOnUse"/><radialGradient xlink:href="#f" id="l" cx="58.684" cy="11.498" r="19.5" fx="58.684" fy="11.498" gradientTransform="rotate(135.176 76.762 1.935)scale(1.72633 .93356)" gradientUnits="userSpaceOnUse"/><linearGradient id="a"><stop offset="0" style="stop-color:#e4e4e4;stop-opacity:1"/><stop offset="1" style="stop-color:#eee;stop-opacity:1"/></linearGradient><linearGradient id="b"><stop offset="0" style="stop-color:#f3d491;stop-opacity:1"/><stop offset="1" style="stop-color:#f3b491;stop-opacity:1"/></linearGradient><linearGradient id="c"><stop offset="0" style="stop-color:#3ee087;stop-opacity:1"/><stop offset="1" style="stop-color:#0db97d;stop-opacity:1"/></linearGradient><linearGradient id="d"><stop offset="0" style="stop-color:#ffbb29;stop-opacity:1"/><stop offset="1" style="stop-color:#ff8929;stop-opacity:1"/></linearGradient><linearGradient id="e"><stop offset="0" style="stop-color:#7c7c7c;stop-opacity:1"/><stop offset="1" style="stop-color:#c9c9c9;stop-opacity:1"/></linearGradient><linearGradient id="f"><stop offset="0" style="stop-color:#ff3533;stop-opacity:1"/><stop offset="1" style="stop-color:#ff7e9f;stop-opacity:1"/></linearGradient><filter id="m" width="1.218" height="1.221" x="-.109" y="-.109" style="color-interpolation-filters:sRGB"><feGaussianBlur stdDeviation="2.335"/></filter></defs><path d="M8.423 58.168c-1.422 0-2.567-1.166-2.567-2.614V8.503c0-1.448 1.145-2.614 2.567-2.614h35.942c1.423 0 2.567 1.166 2.567 2.614V43.23L31.996 58.168Z" style="fill:url(#g);stroke:none;stroke-width:.933561"/><rect width="24.49" height="6.773" x="9.227" y="19.174" rx="1.941" ry="2.007" style="opacity:.404597;fill:#000;fill-opacity:1;stroke:none;stroke-width:0"/><rect width="24.49" height="6.773" x="9.227" y="27.404" rx="1.941" ry="2.007" style="opacity:.404597;fill:#000;fill-opacity:1;stroke:none;stroke-width:0"/><rect width="15.068" height="6.773" x="9.227" y="35.635" rx="1.835" ry="2.007" style="opacity:.404597;fill:#000;fill-opacity:1;stroke:none;stroke-width:0"/><path d="M31.996 58.168V45.721a2.49 2.49 0 0 1 2.49-2.49h12.446z" style="fill:#fafafa;stroke:none;stroke-width:.933561"/><path d="M21.704 42.406v-8.49l8.49 8.49z" style="fill:url(#h);stroke:none;stroke-width:.933561"/><rect width="41.103" height="6.773" x="5.797" y="5.861" rx="1.773" ry="1.758" style="fill:url(#i);fill-opacity:1;stroke:none;stroke-width:.933561;stroke-dasharray:none"/><path d="M21.704 42.406V39.01l3.396 3.396z" style="fill:#545454;stroke:none;stroke-width:.933561"/><path d="M48.869 6.751 21.704 33.917l8.49 8.489L57.358 15.24s1.697-1.698 0-3.396L52.265 6.75c-1.698-1.697-3.396 0-3.396 0" style="fill:url(#j);stroke:none;stroke-width:.933561"/><path d="m47.71 7.91-2.247 2.248 8.49 8.49L56.2 16.4z" style="fill:url(#k);stroke:none;stroke-width:.933561"/><path d="M50.725 6c-1.054-.05-1.856.752-1.856.752l-1.9 1.9 8.488 8.49 1.902-1.902s1.698-1.698 0-3.396l-5.093-5.092c-.531-.53-1.063-.73-1.541-.752" style="fill:url(#l);stroke:none;stroke-width:.933561"/><g style="stroke:#000;stroke-width:.2;stroke-dasharray:none;stroke-opacity:1;filter:url(#m)" transform="translate(63.718 -.26)"><path d="M-16.771 8.268v.628l.03-.03v-.188q0-.21-.03-.41zm-41.045 3.234V55.73c0 1.448 1.144 2.614 2.566 2.614h23.572V45.896a2.49 2.49 0 0 1 2.49-2.49h12.448V25.842L-33.48 42.58h-7.619l-.115.004H-52.61c-1.017 0-1.834-.896-1.834-2.008v-2.76c0-1.111.817-2.005 1.834-2.005h10.642v-1.457h-10.535c-1.075 0-1.941-.897-1.941-2.008v-2.76c0-1.112.866-2.006 1.941-2.006h17.047L-34 26.123h-18.504c-1.075 0-1.941-.896-1.941-2.008v-2.76c0-1.111.866-2.005 1.941-2.005h20.608c1.075 0 1.94.894 1.94 2.005v.723l9.272-9.27h-35.418a1.77 1.77 0 0 1-1.714-1.306z" style="fill:none;stroke:#000;stroke-width:.2;stroke-dasharray:none;stroke-opacity:1"/><path d="M-52.504 19.35c-1.075 0-1.941.894-1.941 2.005v2.76c0 1.112.866 2.008 1.941 2.008H-34l4.045-4.045v-.723c0-1.111-.866-2.005-1.941-2.005zm0 8.23c-1.075 0-1.941.894-1.941 2.006v2.76c0 1.111.866 2.008 1.941 2.008h10.535v-.262l6.512-6.512zm-.107 8.23c-1.017 0-1.834.895-1.834 2.006v2.76c0 1.112.817 2.008 1.834 2.008h11.398q.058 0 .115-.004h-.87v-6.769z" style="opacity:.404597;fill:none;stroke:#000;stroke-width:.2;stroke-dasharray:none;stroke-opacity:1"/><path d="M-29.187 43.406a2.49 2.49 0 0 0-2.49 2.49v12.448l14.937-14.938zM-56.102 6.035c-.982 0-1.773.784-1.773 1.758v3.258c0 .974.791 1.758 1.773 1.758h35.418l2.475-2.475 1.438-1.438V7.793c0-.974-.791-1.758-1.774-1.758z" style="fill:none;stroke:#000;stroke-width:.2;stroke-dasharray:none;stroke-opacity:1"/><path d="M-12.947 6.174c-.032-.002-.063.002-.094.002q-.066-.001-.13.002l-.126.011-.1.016q-.114.02-.222.05l-.072.02a3 3 0 0 0-.293.11q-.03.014-.057.03a3 3 0 0 0-.459.266c-.023.015-.036.026-.057.042a2 2 0 0 0-.142.113c-.063.053-.104.09-.104.09v.002l-1.9 1.9-1.506 1.506-23.76 23.758v8.488h8.49L-9.72 18.822l.002.002 1.504-1.506 1.903-1.902s1.538-1.542.216-3.156v-.002a3 3 0 0 0-.216-.238h-.002L-8.86 9.473l-2.547-2.545v-.002c-.015-.015-.03-.025-.045-.04a3 3 0 0 0-.22-.193q-.05-.04-.099-.076a3 3 0 0 0-.248-.162l-.074-.039a2 2 0 0 0-.22-.102l-.057-.023a2 2 0 0 0-.322-.084 2 2 0 0 0-.207-.027l-.05-.006z" style="fill:none;stroke:#000;stroke-width:.2;stroke-dasharray:none;stroke-opacity:1"/></g></svg>