<svg xmlns="http://www.w3.org/2000/svg" width="64" height="64"><path d="M4 50v2c0 1.662 1.338 3 3 3h50c1.662 0 3-1.338 3-3v-2c0 1.662-1.338 3-3 3H7c-1.662 0-3-1.338-3-3" style="opacity:.2"/><rect width="44" height="56" x="-54" y="-60" rx="3" ry="3" style="fill:#2f8ef2" transform="rotate(90)scale(-1 1)"/><rect width="10" height="14" x="17" y="-24" rx="1.545" ry="1.637" style="opacity:.2" transform="rotate(90)"/><rect width="10" height="14" x="16" y="-24" rx="1.545" ry="1.637" style="fill:#edd400" transform="rotate(90)"/><path d="M44 18h2v4h-2zm4 0h2v4h-2zm4 0h2v4h-2z" style="fill:#fecd38"/><path d="M10 19h5v1h-5zm0 4h5v1h-5zm9 0h5v1h-5zm0-4h5v1h-5z" style="fill:#6c5f1e"/><path d="M14 16h1v10h-1zm5 3h1v7h-1z" style="fill:#6c5f1e"/><path d="M7 10c-1.662 0-3 1.338-3 3v1c0-1.662 1.338-3 3-3h50c1.662 0 3 1.338 3 3v-1c0-1.662-1.338-3-3-3z" style="opacity:.2;fill:#fff"/><path d="M48 45a5 5 0 1 1-5-5 5 5 0 0 1 5 5m0 0" style="opacity:.2"/><path d="M48 44a5 5 0 1 1-5-5 5 5 0 0 1 5 5m0 0" style="fill:#ff3737"/><path d="M54.154 45a5 5 0 1 1-10.001-.002A5 5 0 0 1 54.154 45m0 0" style="opacity:.2"/><path d="M54.154 44a5 5 0 1 1-10.001-.002A5 5 0 0 1 54.154 44m0 0" style="fill:#ffc025"/><path d="M46.072 40.063A5 5 0 0 0 44.152 44a5 5 0 0 0 1.93 3.936A5 5 0 0 0 47.998 44a5 5 0 0 0-1.928-3.938zm0 0" style="fill:#ff872b"/><path d="M9 45h18v4H9Zm0 0" style="fill:#9a9996"/><path d="M9 39h10v3H9Zm0 0" style="fill:#deddda"/><path d="M9 42h10v1H9z" style="opacity:.2"/><path d="M21 39h10v3H21zm0 0" style="fill:#deddda"/><path d="M21 42h10v1H21zM9 49h18v1H9z" style="opacity:.2"/></svg>