<svg xmlns="http://www.w3.org/2000/svg" width="64" height="64"><path d="M16.629 5.004a1.24 1.24 0 0 0-1.277.922L4.043 48.121a1.244 1.244 0 0 0 .883 1.527l42.195 11.309a1.244 1.244 0 0 0 1.527-.883l11.309-42.195a1.244 1.244 0 0 0-.883-1.527L16.879 5.043a1.3 1.3 0 0 0-.25-.039M28.539 27 38 29.54 35.46 39 26 36.46z" style="opacity:.2"/><path d="M16.629 4.004a1.24 1.24 0 0 0-1.277.922L4.043 47.121a1.244 1.244 0 0 0 .883 1.528l42.195 11.308a1.244 1.244 0 0 0 1.527-.883L59.957 16.88a1.244 1.244 0 0 0-.883-1.527L16.879 4.043a1.3 1.3 0 0 0-.25-.039M28.539 26 38 28.54 35.46 38 26 35.461z" style="fill:#a1adbb"/><path d="M16.629 4.004a1.24 1.24 0 0 0-1.277.922L4.043 47.12c-.074.275-.045.551.055.795l11.254-41.99a1.243 1.243 0 0 1 1.527-.883l42.195 11.309c.392.105.686.385.828.732l.055-.205a1.244 1.244 0 0 0-.883-1.527L16.88 4.043a1.3 1.3 0 0 0-.25-.04m21.12 25.47L35.46 38l-9.21-2.473-.25.934L35.46 39 38 29.54z" style="fill:#fff;opacity:.2"/></svg>