<svg xmlns="http://www.w3.org/2000/svg" width="64" height="64"><circle cx="32" cy="33" r="28" style="opacity:.2"/><circle cx="32" cy="32" r="28" style="fill:#26a269"/><path d="M27.267 24.633c.083 3.545-1.065 6.627-4.289 8.935l4.807 2.307c-.299-3.934 1.388-6.77 4.289-8.934zm0 0" style="fill:#b7b7b7"/><path d="M36.32 24.913c-.083 3.544 1.064 6.627 4.288 8.935l-4.807 2.307c.3-3.934-1.388-6.77-4.288-8.934zm0 0" style="fill:#b7b7b7"/><path d="M36.75 35.84c-3.038 1.606-6.187 1.904-9.526-.006l-.003 5.332c3.286-1.97 6.445-1.675 9.526.006zm0 0" style="fill:#b7b7b7"/><path d="M32 17a6 6 0 0 0-6 6 6 6 0 0 0 6 6 6 6 0 0 0 6-6 6 6 0 0 0-6-6m-8 16a6 6 0 0 0-6 6 6 6 0 0 0 6 6 6 6 0 0 0 6-6 6 6 0 0 0-6-6m16 0a6 6 0 0 0-6 6 6 6 0 0 0 6 6 6 6 0 0 0 6-6 6 6 0 0 0-6-6" style="opacity:.2"/><circle cx="32" cy="22" r="6" style="fill:#fff"/><circle cx="24" cy="38" r="6" style="fill:#fff"/><circle cx="40" cy="38" r="6" style="fill:#fff"/><path d="M32 4A28 28 0 0 0 4 32a28 28 0 0 0 .018.492A28 28 0 0 1 32 5a28 28 0 0 1 27.975 27.492A28 28 0 0 0 60 32 28 28 0 0 0 32 4" style="opacity:.2;fill:#fff"/></svg>