<svg xmlns="http://www.w3.org/2000/svg" width="64" height="64"><path d="M7 57.4V10.6h37.227c4.935 1.336 4.477 2.937 4.773 4.5v42.3c-.877 3.214-3.346 3.321-5.727 3.6h-31.5c-1.961-.089-4.164-.864-4.773-3.6" style="opacity:.2"/><path d="M7 56.4V9.6h37.227c4.935 1.336 4.477 2.937 4.773 4.5v42.3c-.877 3.214-3.346 3.321-5.727 3.6h-31.5c-1.961-.089-4.164-.864-4.773-3.6" style="fill:#229460"/><path d="M15 8.714v48.285h37.227c4.935-1.379 4.477-3.03 4.773-4.643V8.714c-.877-3.317-3.346-3.427-5.727-3.715h-31.5c-1.961.092-4.164.892-4.773 3.715" style="opacity:.2"/><path d="M15 7.714V56h37.227c4.935-1.379 4.477-3.03 4.773-4.643V7.714C56.123 4.398 53.654 4.287 51.273 4h-31.5c-1.961.092-4.164.892-4.773 3.714" style="fill:#e4e4e4"/><path d="M15 8.733v48.533c0-1.822-.709-4.267-4-4.267s-4 2.356-4 4.267V8.733c0-3.734 4-3.734 4-3.734s4 0 4 3.734" style="opacity:.2"/><path d="M15 7.733v48.534C15 54.445 14.291 52 11 52s-4 2.355-4 4.267V7.733C7 4 11 4 11 4s4 0 4 3.733" style="fill:#2ec27e"/><path d="m29.434 19-6.325 18.816-2.109.399V39h6v-.785l-1.785-.399L26.684 33h7.113l1.844 4.816-2.641.399V39h8v-.785l-2.355-.399L32.062 19Zm.648 3.527 3.285 8.5h-5.863ZM46.828 25c-1.216 0-2.726.167-4.328.5v3h.934l.504-1.746c.82-.447 1.827-.668 2.816-.668q1.096 0 1.613.656c.356.438.59 1.116.59 2.04v2.19l-2.547.055c-1.503.029-2.35.23-3.14.543q-1.189.456-1.739 1.34-.532.871-.531 2.215C41 37.789 42.191 39 44.574 39c1.75 0 3.342-.54 4.469-1.625l.23 1.625H53v-.648l-1-.36v-9.34c-.009-1.236-.4-2.154-1.121-2.754-.712-.599-2.528-.898-4.05-.898M49 32.02v4.625c-.494.228-.888.422-1.383.574-.484.142-.765.21-1.437.21-1.414 0-2.121-.696-2.121-2.37q0-1.57.699-2.243c.474-.447 1.073-.69 2.398-.738z" style="opacity:.1"/><path d="m29.434 18-6.325 18.816-2.109.399V38h6v-.785l-1.785-.399L26.684 32h7.113l1.844 4.816-2.641.399V38h8v-.785l-2.355-.399L32.062 18Zm.648 3.527 3.285 8.5h-5.863ZM46.828 24c-1.216 0-2.726.167-4.328.5v3h.934l.504-1.746c.82-.447 1.827-.668 2.816-.668q1.096 0 1.613.656c.356.438.59 1.116.59 2.04v2.19l-2.547.055c-1.503.029-2.35.23-3.14.543q-1.189.456-1.739 1.34-.532.871-.531 2.215C41 36.789 42.191 38 44.574 38c1.75 0 3.342-.54 4.469-1.625l.23 1.625H53v-.648l-1-.36v-9.34c-.009-1.236-.4-2.154-1.121-2.754-.712-.599-2.528-.898-4.05-.898M49 31.02v4.625c-.494.228-.888.422-1.383.574-.484.142-.765.21-1.437.21-1.414 0-2.121-.696-2.121-2.37q0-1.57.699-2.243c.474-.447 1.073-.69 2.398-.738z" style="fill:#3f3f3f"/><path d="M19.773 4c-1.96.092-4.164.892-4.773 3.715v1c.609-2.823 2.812-3.623 4.773-3.715h31.5c2.382.287 4.85.399 5.727 3.715v-1C56.123 4.399 53.655 4.287 51.273 4zM11 4s-4 .001-4 3.734v1C7 5.001 11 5 11 5s4 .001 4 3.734v-1C15 4.001 11 4 11 4" style="opacity:.2;fill:#fff"/></svg>