<svg xmlns="http://www.w3.org/2000/svg" width="64" height="64"><path d="M9.598 17C6.498 17 4 19.455 4 22.5v33C4 58.55 6.497 61 9.598 61h44.804c3.1 0 5.598-2.45 5.598-5.5v-33c0-3.045-2.497-5.5-5.598-5.5H31.996z" style="opacity:.2"/><path d="M9.6 16C6.498 16 4 18.455 4 21.5v33C4 57.55 6.499 60 9.6 60h22.397V16Zm0 0" style="fill:#e63e60"/><path d="M31.997 16v44h22.404C57.5 60 60 57.55 60 54.5v-33c0-3.045-2.499-5.5-5.6-5.5Zm0 0" style="fill:#177bc7"/><path d="M9.598 16C6.498 16 4 18.455 4 21.5v1C4 19.455 6.497 17 9.598 17h44.804c3.1 0 5.598 2.455 5.598 5.5v-1c0-3.045-2.497-5.5-5.598-5.5z" style="opacity:.2;fill:#fff"/><path d="M32 22c-6.627 0-12 5.373-12 12s5.373 12 12 12c6.633 0 12-5.373 12-12s-5.367-12-12-12" style="opacity:.1"/><path d="M32 21c-6.627 0-12 5.373-12 12s5.373 12 12 12c6.633 0 12-5.373 12-12s-5.367-12-12-12" style="fill:#5d6266"/><circle cx="32" cy="34" r="9" style="opacity:.1"/><circle cx="32" cy="33" r="9" style="fill:#9badff"/><path d="M10 5c-3.322 0-6 2.5-6 5.602v44C4 51.5 6.678 49 10 49s6 2.5 6 5.602v-44C16 7.5 13.322 5 10 5m44 0c-3.328 0-6 2.5-6 5.602v44C48 51.5 50.672 49 54 49c3.322 0 6 2.5 6 5.602v-44C60 7.5 57.322 5 54 5" style="opacity:.1"/><path d="M54 4c-3.328 0-6 2.5-6 5.6v44c0-3.1 2.672-5.6 6-5.6 3.322 0 6 2.5 6 5.6v-44C60 6.5 57.322 4 54 4" style="fill:#3daee9"/><path d="M10 4C6.678 4 4 6.5 4 9.6v44c0-3.1 2.678-5.6 6-5.6s6 2.5 6 5.6v-44C16 6.5 13.322 4 10 4" style="fill:#ff6c7f"/><path d="M10 4C6.678 4 4 6.5 4 9.602v1C4 7.5 6.678 5 10 5s6 2.5 6 5.602v-1C16 6.5 13.322 4 10 4m44 0c-3.328 0-6 2.5-6 5.602v1C48 7.5 50.672 5 54 5c3.322 0 6 2.5 6 5.602v-1C60 6.5 57.322 4 54 4" style="opacity:.2;fill:#fff"/></svg>