<svg xmlns="http://www.w3.org/2000/svg" xmlns:xlink="http://www.w3.org/1999/xlink" width="64" height="64"><defs><radialGradient xlink:href="#a" id="b" cx="84.172" cy="52.231" r="27.5" fx="84.172" fy="52.231" gradientTransform="matrix(0 -2.7648 1.9264 0 -38.398 295.059)" gradientUnits="userSpaceOnUse"/><radialGradient id="a" cx="-159.431" cy="15.463" r="64.707" fx="-159.431" fy="15.463" gradientTransform="matrix(-.89413 0 0 .96305 -72.732 112.1)" gradientUnits="userSpaceOnUse"><stop offset="0" style="stop-color:#ff5f00;stop-opacity:1"/><stop offset="1" style="stop-color:#ffb418;stop-opacity:1"/></radialGradient><filter id="c" width="1.324" height="1.357" x="-.162" y="-.178" style="color-interpolation-filters:sRGB"><feGaussianBlur stdDeviation="3.676"/></filter></defs><path d="M7.856 22.255V47.79a6.147 6.147 0 0 0 6.16 6.16h35.969a6.147 6.147 0 0 0 6.16-6.16V22.255Z" style="fill:#e4e4e4;stroke-width:.877964"/><path d="M14.909 10.05a7.04 7.04 0 0 0-7.053 7.054v5.238h48.288V17.04a6.97 6.97 0 0 0-6.988-6.988zm21.92 24.584a3.51 3.51 0 0 0-3.512 3.512 3.51 3.51 0 0 0 3.512 3.512 3.51 3.51 0 0 0 3.511-3.512 3.51 3.51 0 0 0-3.511-3.512" style="fill:url(#b);stroke-width:.877964"/><path d="M11 26.326v3.348A2.326 2.326 45 0 0 13.326 32h3.348A2.326 2.326 135 0 0 19 29.674v-3.348A2.326 2.326 45 0 0 16.674 24h-3.348A2.326 2.326 135 0 0 11 26.326m11 0v3.348A2.326 2.326 45 0 0 24.326 32h3.348A2.326 2.326 135 0 0 30 29.674v-3.348A2.326 2.326 45 0 0 27.674 24h-3.348A2.326 2.326 135 0 0 22 26.326m11 0v3.348A2.326 2.326 45 0 0 35.326 32h3.348A2.326 2.326 135 0 0 41 29.674v-3.348A2.326 2.326 45 0 0 38.674 24h-3.348A2.326 2.326 135 0 0 33 26.326m11 0v3.348A2.326 2.326 45 0 0 46.326 32h3.348A2.326 2.326 135 0 0 52 29.674v-3.348A2.326 2.326 45 0 0 49.674 24h-3.348A2.326 2.326 135 0 0 44 26.326m-33 11v3.348A2.326 2.326 45 0 0 13.326 43h3.348A2.326 2.326 135 0 0 19 40.674v-3.348A2.326 2.326 45 0 0 16.674 35h-3.348A2.326 2.326 135 0 0 11 37.326m11 0v3.348A2.326 2.326 45 0 0 24.326 43h3.348A2.326 2.326 135 0 0 30 40.674v-3.348A2.326 2.326 45 0 0 27.674 35h-3.348A2.326 2.326 135 0 0 22 37.326m22 0v3.348A2.326 2.326 45 0 0 46.326 43h3.348A2.326 2.326 135 0 0 52 40.674v-3.348A2.326 2.326 45 0 0 49.674 35h-3.348A2.326 2.326 135 0 0 44 37.326m-33 11v3.348A2.326 2.326 45 0 0 13.326 54h3.348A2.326 2.326 135 0 0 19 51.674v-3.348A2.326 2.326 45 0 0 16.674 46h-3.348A2.326 2.326 135 0 0 11 48.326m11 0v3.348A2.326 2.326 45 0 0 24.326 54h3.348A2.326 2.326 135 0 0 30 51.674v-3.348A2.326 2.326 45 0 0 27.674 46h-3.348A2.326 2.326 135 0 0 22 48.326m11 0v3.348A2.326 2.326 45 0 0 35.326 54h3.348A2.326 2.326 135 0 0 41 51.674v-3.348A2.326 2.326 45 0 0 38.674 46h-3.348A2.326 2.326 135 0 0 33 48.326m11 0v3.348A2.326 2.326 45 0 0 46.326 54h3.348A2.326 2.326 135 0 0 52 51.674v-3.348A2.326 2.326 45 0 0 49.674 46h-3.348A2.326 2.326 135 0 0 44 48.326" style="opacity:.2" transform="translate(4.344 3.905)scale(.87796)"/><circle cx="17.074" cy="15.758" r="2.195" style="fill:#fff;stroke-width:.877964"/><circle cx="46.925" cy="15.758" r="2.195" style="fill:#fff;stroke-width:.877964"/><path d="M12.533 7A8.016 8.016 0 0 0 4.5 15.033V20.9h55v-5.94c0-4.411-3.55-7.96-7.959-7.96zM15 11a2.5 2.5 0 0 1 2.5 2.5A2.5 2.5 0 0 1 15 16a2.5 2.5 0 0 1-2.5-2.5A2.5 2.5 0 0 1 15 11Zm34 0a2.5 2.5 0 0 1 2.5 2.5A2.5 2.5 0 0 1 49 16a2.5 2.5 0 0 1-2.5-2.5A2.5 2.5 0 0 1 49 11ZM4.5 21v28.984A7 7 0 0 0 11.516 57h40.968a7 7 0 0 0 7.016-7.016V21Zm9.326 3h3.348a2.326 2.326 0 0 1 2.326 2.326v3.348A2.326 2.326 0 0 1 17.174 32h-3.348a2.326 2.326 0 0 1-2.326-2.326v-3.348A2.326 2.326 0 0 1 13.826 24Zm11 0h3.348a2.326 2.326 0 0 1 2.326 2.326v3.348A2.326 2.326 0 0 1 28.174 32h-3.348a2.326 2.326 0 0 1-2.326-2.326v-3.348A2.326 2.326 0 0 1 24.826 24Zm11 0h3.348a2.326 2.326 0 0 1 2.326 2.326v3.348A2.326 2.326 0 0 1 39.174 32h-3.348a2.326 2.326 0 0 1-2.326-2.326v-3.348A2.326 2.326 0 0 1 35.826 24Zm11 0h3.348a2.326 2.326 0 0 1 2.326 2.326v3.348A2.326 2.326 0 0 1 50.174 32h-3.348a2.326 2.326 0 0 1-2.326-2.326v-3.348A2.326 2.326 0 0 1 46.826 24Zm-33 11h3.348a2.326 2.326 0 0 1 2.326 2.326v3.348A2.326 2.326 0 0 1 17.174 43h-3.348a2.326 2.326 0 0 1-2.326-2.326v-3.348A2.326 2.326 0 0 1 13.826 35Zm11 0h3.348a2.326 2.326 0 0 1 2.326 2.326v3.348A2.326 2.326 0 0 1 28.174 43h-3.348a2.326 2.326 0 0 1-2.326-2.326v-3.348A2.326 2.326 0 0 1 24.826 35ZM37.5 35a4 4 0 0 1 4 4 4 4 0 0 1-4 4 4 4 0 0 1-4-4 4 4 0 0 1 4-4zm9.326 0h3.348a2.326 2.326 0 0 1 2.326 2.326v3.348A2.326 2.326 0 0 1 50.174 43h-3.348a2.326 2.326 0 0 1-2.326-2.326v-3.348A2.326 2.326 0 0 1 46.826 35Zm-33 11h3.348a2.326 2.326 0 0 1 2.326 2.326v3.348A2.326 2.326 0 0 1 17.174 54h-3.348a2.326 2.326 0 0 1-2.326-2.326v-3.348A2.326 2.326 0 0 1 13.826 46Zm11 0h3.348a2.326 2.326 0 0 1 2.326 2.326v3.348A2.326 2.326 0 0 1 28.174 54h-3.348a2.326 2.326 0 0 1-2.326-2.326v-3.348A2.326 2.326 0 0 1 24.826 46Zm11 0h3.348a2.326 2.326 0 0 1 2.326 2.326v3.348A2.326 2.326 0 0 1 39.174 54h-3.348a2.326 2.326 0 0 1-2.326-2.326v-3.348A2.326 2.326 0 0 1 35.826 46Zm11 0h3.348a2.326 2.326 0 0 1 2.326 2.326v3.348A2.326 2.326 0 0 1 50.174 54h-3.348a2.326 2.326 0 0 1-2.326-2.326v-3.348A2.326 2.326 0 0 1 46.826 46Z" style="mix-blend-mode:normal;fill:none;stroke:#000;stroke-width:.2;stroke-dasharray:none;stroke-opacity:1;filter:url(#c)" transform="translate(3.905 3.905)scale(.87796)"/></svg>