<svg xmlns="http://www.w3.org/2000/svg" width="64" height="64"><path d="M52.443 23.484 22.672 6.49C15.262 2.259 6 7.546 6 16.005v33.99c0 8.459 9.262 13.746 16.672 9.516l29.77-16.996c7.41-4.228 7.41-14.8 0-19.03" style="opacity:.2"/><path d="M52.443 22.484 22.672 5.49C15.262 1.259 6 6.546 6 15.005v33.99c0 8.459 9.262 13.746 16.672 9.516l29.77-16.996c7.41-4.228 7.41-14.8 0-19.03" style="fill:#39b54a"/><path d="M20.75 15.89a6.85 6.85 0 0 0-3.336.887c-3.252 1.831-4.344 5.961-2.562 9.215l6.3 11.504c1.777 3.245 5.852 4.476 9.153 2.79 3.407-1.742 4.638-6.014 2.812-9.349l-1.691-3.082-3.336 1.786a.925.925 0 0 1-1.246-.364.9.9 0 0 1-.07-.691.9.9 0 0 1 .44-.54l2.462-1.32a.974.974 0 0 0 .402-1.328A1.003 1.003 0 0 0 28.73 25l-2.421 1.297c-.457.244-1.06.09-1.293-.367a.88.88 0 0 1-.059-.664.9.9 0 0 1 .438-.543l2.464-1.317a.98.98 0 0 0 .399-1.332.996.996 0 0 0-1.344-.394L24.45 23a.917.917 0 0 1-1.238-.367.9.9 0 0 1 .367-1.23l3.34-1.782-.102-.187a6.8 6.8 0 0 0-4.066-3.262 7 7 0 0 0-2-.281m12.168 7.536q-.113-.005-.227.008a1.535 1.535 0 0 0-1.219 2.266l2.704 4.925c2.079 3.796.644 8.558-3.196 10.613-3.838 2.056-8.655.64-10.734-3.156l-2.7-4.93a1.565 1.565 0 0 0-2.108-.62 1.53 1.53 0 0 0-.626 2.085l2.696 4.934c2.644 4.83 8.467 6.885 13.531 5.027l3.598 6.574.226.399 2.68-1.531-.207-.415-3.559-6.492c4.342-3.177 5.778-9.123 3.133-13.953l-2.7-4.926a1.56 1.56 0 0 0-1.292-.808" style="fill:#58595b"/><path d="M16.941 4C11.211 4.1 6 8.66 6 15.004v1C6 9.66 11.21 5.099 16.941 5c1.91-.033 3.879.43 5.73 1.488l29.77 16.996c3.524 2.012 5.368 5.459 5.54 8.975.16-3.85-1.682-7.772-5.54-9.975L22.671 5.488A11.1 11.1 0 0 0 16.942 4" style="opacity:.2;fill:#fff"/></svg>