<svg xmlns="http://www.w3.org/2000/svg" width="64" height="64"><path d="M8 5a4 4 0 0 0-4 4 4 4 0 0 0 4 4 4 4 0 0 0 4-4 4 4 0 0 0-4-4m0 8a4 4 0 0 0-4 4 4 4 0 0 0 4 4 4 4 0 0 0 4-4 4 4 0 0 0-4-4m4 4a4 4 0 0 0 4 4 4 4 0 0 0 4-4 4 4 0 0 0-4-4 4 4 0 0 0-4 4m4 4a4 4 0 0 0-4 4 4 4 0 0 0 4 4 4 4 0 0 0 4-4 4 4 0 0 0-4-4m4 4a4 4 0 0 0 4 4 4 4 0 0 0 4-4 4 4 0 0 0-4-4 4 4 0 0 0-4 4m8 0a4 4 0 0 0 4 4 4 4 0 0 0 4-4 4 4 0 0 0-4-4 4 4 0 0 0-4 4m4-4a4 4 0 0 0 4-4 4 4 0 0 0-4-4 4 4 0 0 0-4 4 4 4 0 0 0 4 4m0-8a4 4 0 0 0 4-4 4 4 0 0 0-4-4 4 4 0 0 0-4 4 4 4 0 0 0 4 4m4 4a4 4 0 0 0 4 4 4 4 0 0 0 4-4 4 4 0 0 0-4-4 4 4 0 0 0-4 4m4 4a4 4 0 0 0-4 4 4 4 0 0 0 4 4 4 4 0 0 0 4-4 4 4 0 0 0-4-4m4 4a4 4 0 0 0 4 4 4 4 0 0 0 4-4 4 4 0 0 0-4-4 4 4 0 0 0-4 4m4 4a4 4 0 0 0-4 4 4 4 0 0 0 4 4 4 4 0 0 0 4-4 4 4 0 0 0-4-4m4 4a4 4 0 0 0 4 4 4 4 0 0 0 4-4 4 4 0 0 0-4-4 4 4 0 0 0-4 4m-4 4a4 4 0 0 0-4 4 4 4 0 0 0 4 4 4 4 0 0 0 4-4 4 4 0 0 0-4-4m-4 4a4 4 0 0 0-4-4 4 4 0 0 0-4 4 4 4 0 0 0 4 4 4 4 0 0 0 4-4m-4 4a4 4 0 0 0-4 4 4 4 0 0 0 4 4 4 4 0 0 0 4-4 4 4 0 0 0-4-4m-4 4a4 4 0 0 0-4-4 4 4 0 0 0-4 4 4 4 0 0 0 4 4 4 4 0 0 0 4-4m-4 4a4 4 0 0 0-4 4 4 4 0 0 0 4 4 4 4 0 0 0 4-4 4 4 0 0 0-4-4m0-8a4 4 0 0 0 4-4 4 4 0 0 0-4-4 4 4 0 0 0-4 4 4 4 0 0 0 4 4m-4-4a4 4 0 0 0-4-4 4 4 0 0 0-4 4 4 4 0 0 0 4 4 4 4 0 0 0 4-4m-8 0a4 4 0 0 0-4-4 4 4 0 0 0-4 4 4 4 0 0 0 4 4 4 4 0 0 0 4-4m-4 4a4 4 0 0 0-4 4 4 4 0 0 0 4 4 4 4 0 0 0 4-4 4 4 0 0 0-4-4m-4 4a4 4 0 0 0-4-4 4 4 0 0 0-4 4 4 4 0 0 0 4 4 4 4 0 0 0 4-4m-4 4a4 4 0 0 0-4 4 4 4 0 0 0 4 4 4 4 0 0 0 4-4 4 4 0 0 0-4-4m0-8a4 4 0 0 0 4-4 4 4 0 0 0-4-4 4 4 0 0 0-4 4 4 4 0 0 0 4 4m0-8a4 4 0 0 0 4-4 4 4 0 0 0-4-4 4 4 0 0 0-4 4 4 4 0 0 0 4 4m0-8a4 4 0 0 0 4-4 4 4 0 0 0-4-4 4 4 0 0 0-4 4 4 4 0 0 0 4 4m4 4a4 4 0 0 0 4 4 4 4 0 0 0 4-4 4 4 0 0 0-4-4 4 4 0 0 0-4 4m8 0a4 4 0 0 0 4 4 4 4 0 0 0 4-4 4 4 0 0 0-4-4 4 4 0 0 0-4 4m8 0a4 4 0 0 0 4 4 4 4 0 0 0 4-4 4 4 0 0 0-4-4 4 4 0 0 0-4 4m8 0a4 4 0 0 0 4 4 4 4 0 0 0 4-4 4 4 0 0 0-4-4 4 4 0 0 0-4 4" style="opacity:.2"/><path d="M8 4a4 4 0 0 0-4 4 4 4 0 0 0 4 4 4 4 0 0 0 4-4 4 4 0 0 0-4-4m0 8a4 4 0 0 0-4 4 4 4 0 0 0 4 4 4 4 0 0 0 4-4 4 4 0 0 0-4-4m4 4a4 4 0 0 0 4 4 4 4 0 0 0 4-4 4 4 0 0 0-4-4 4 4 0 0 0-4 4m4 4a4 4 0 0 0-4 4 4 4 0 0 0 4 4 4 4 0 0 0 4-4 4 4 0 0 0-4-4m0 8a4 4 0 0 0-4 4 4 4 0 0 0 4 4 4 4 0 0 0 4-4 4 4 0 0 0-4-4m0 8a4 4 0 0 0-4 4 4 4 0 0 0 4 4 4 4 0 0 0 4-4 4 4 0 0 0-4-4m0 8a4 4 0 0 0-4 4 4 4 0 0 0 4 4 4 4 0 0 0 4-4 4 4 0 0 0-4-4m-4 4a4 4 0 0 0-4-4 4 4 0 0 0-4 4 4 4 0 0 0 4 4 4 4 0 0 0 4-4m-4 4a4 4 0 0 0-4 4 4 4 0 0 0 4 4 4 4 0 0 0 4-4 4 4 0 0 0-4-4m0-8a4 4 0 0 0 4-4 4 4 0 0 0-4-4 4 4 0 0 0-4 4 4 4 0 0 0 4 4m0-8a4 4 0 0 0 4-4 4 4 0 0 0-4-4 4 4 0 0 0-4 4 4 4 0 0 0 4 4m0-8a4 4 0 0 0 4-4 4 4 0 0 0-4-4 4 4 0 0 0-4 4 4 4 0 0 0 4 4m40-8a4 4 0 0 0-4 4 4 4 0 0 0 4 4 4 4 0 0 0 4-4 4 4 0 0 0-4-4m0 8a4 4 0 0 0-4 4 4 4 0 0 0 4 4 4 4 0 0 0 4-4 4 4 0 0 0-4-4m4 4a4 4 0 0 0 4 4 4 4 0 0 0 4-4 4 4 0 0 0-4-4 4 4 0 0 0-4 4m-4 4a4 4 0 0 0-4 4 4 4 0 0 0 4 4 4 4 0 0 0 4-4 4 4 0 0 0-4-4" style="fill:#159532"/><path d="M32 4a4 4 0 0 0-4 4 4 4 0 0 0 4 4 4 4 0 0 0 4-4 4 4 0 0 0-4-4m0 8a4 4 0 0 0-4 4 4 4 0 0 0 4 4 4 4 0 0 0 4-4 4 4 0 0 0-4-4m4 4a4 4 0 0 0 4 4 4 4 0 0 0 4-4 4 4 0 0 0-4-4 4 4 0 0 0-4 4m4 4a4 4 0 0 0-4 4 4 4 0 0 0 4 4 4 4 0 0 0 4-4 4 4 0 0 0-4-4m0 8a4 4 0 0 0-4 4 4 4 0 0 0 4 4 4 4 0 0 0 4-4 4 4 0 0 0-4-4m0 8a4 4 0 0 0-4 4 4 4 0 0 0 4 4 4 4 0 0 0 4-4 4 4 0 0 0-4-4m0 8a4 4 0 0 0-4 4 4 4 0 0 0 4 4 4 4 0 0 0 4-4 4 4 0 0 0-4-4m-4 4a4 4 0 0 0-4-4 4 4 0 0 0-4 4 4 4 0 0 0 4 4 4 4 0 0 0 4-4m-4 4a4 4 0 0 0-4 4 4 4 0 0 0 4 4 4 4 0 0 0 4-4 4 4 0 0 0-4-4m0-8a4 4 0 0 0 4-4 4 4 0 0 0-4-4 4 4 0 0 0-4 4 4 4 0 0 0 4 4m-4-4a4 4 0 0 0-4-4 4 4 0 0 0-4 4 4 4 0 0 0 4 4 4 4 0 0 0 4-4m-4-4a4 4 0 0 0 4-4 4 4 0 0 0-4-4 4 4 0 0 0-4 4 4 4 0 0 0 4 4m0-8a4 4 0 0 0 4-4 4 4 0 0 0-4-4 4 4 0 0 0-4 4 4 4 0 0 0 4 4m4-4a4 4 0 0 0 4 4 4 4 0 0 0 4-4 4 4 0 0 0-4-4 4 4 0 0 0-4 4m4 4a4 4 0 0 0-4 4 4 4 0 0 0 4 4 4 4 0 0 0 4-4 4 4 0 0 0-4-4" style="fill:#fecd38"/><path d="M8 4a4 4 0 0 0-4 4 4 4 0 0 0 .035.5A4 4 0 0 1 8 5a4 4 0 0 1 3.965 3.48A4 4 0 0 0 12 8a4 4 0 0 0-4-4m24 0a4 4 0 0 0-4 4 4 4 0 0 0 .035.5A4 4 0 0 1 32 5a4 4 0 0 1 3.965 3.48A4 4 0 0 0 36 8a4 4 0 0 0-4-4M8 12a4 4 0 0 0-4 4 4 4 0 0 0 .035.5A4 4 0 0 1 8 13a4 4 0 0 1 3.965 3.48A4 4 0 0 0 12 16a4 4 0 0 0-4-4m4 4a4 4 0 0 0 .035.5A4 4 0 0 1 16 13a4 4 0 0 1 3.965 3.48A4 4 0 0 0 20 16a4 4 0 0 0-4-4 4 4 0 0 0-4 4m20-4a4 4 0 0 0-4 4 4 4 0 0 0 .035.5A4 4 0 0 1 32 13a4 4 0 0 1 3.965 3.48A4 4 0 0 0 36 16a4 4 0 0 0-4-4m4 4a4 4 0 0 0 .035.5A4 4 0 0 1 40 13a4 4 0 0 1 3.965 3.48A4 4 0 0 0 44 16a4 4 0 0 0-4-4 4 4 0 0 0-4 4M8 20a4 4 0 0 0-4 4 4 4 0 0 0 .035.5A4 4 0 0 1 8 21a4 4 0 0 1 3.965 3.48A4 4 0 0 0 12 24a4 4 0 0 0-4-4m4 4a4 4 0 0 0 .035.5A4 4 0 0 1 16 21a4 4 0 0 1 3.965 3.48A4 4 0 0 0 20 24a4 4 0 0 0-4-4 4 4 0 0 0-4 4m8 0a4 4 0 0 0 .035.5A4 4 0 0 1 24 21a4 4 0 0 1 3.965 3.48A4 4 0 0 0 28 24a4 4 0 0 0-4-4 4 4 0 0 0-4 4m8 0a4 4 0 0 0 .035.5A4 4 0 0 1 32 21a4 4 0 0 1 3.965 3.48A4 4 0 0 0 36 24a4 4 0 0 0-4-4 4 4 0 0 0-4 4m8 0a4 4 0 0 0 .035.5A4 4 0 0 1 40 21a4 4 0 0 1 3.965 3.48A4 4 0 0 0 44 24a4 4 0 0 0-4-4 4 4 0 0 0-4 4m8 0a4 4 0 0 0 .035.5A4 4 0 0 1 48 21a4 4 0 0 1 3.965 3.48A4 4 0 0 0 52 24a4 4 0 0 0-4-4 4 4 0 0 0-4 4M8 28a4 4 0 0 0-4 4 4 4 0 0 0 .035.5A4 4 0 0 1 8 29a4 4 0 0 1 3.965 3.48A4 4 0 0 0 12 32a4 4 0 0 0-4-4m4 4a4 4 0 0 0 .035.5A4 4 0 0 1 16 29a4 4 0 0 1 3.965 3.48A4 4 0 0 0 20 32a4 4 0 0 0-4-4 4 4 0 0 0-4 4m8 0a4 4 0 0 0 .035.5A4 4 0 0 1 24 29a4 4 0 0 1 3.965 3.48A4 4 0 0 0 28 32a4 4 0 0 0-4-4 4 4 0 0 0-4 4m8 0a4 4 0 0 0 .035.5A4 4 0 0 1 32 29a4 4 0 0 1 3.965 3.48A4 4 0 0 0 36 32a4 4 0 0 0-4-4 4 4 0 0 0-4 4m8 0a4 4 0 0 0 .035.5A4 4 0 0 1 40 29a4 4 0 0 1 3.965 3.48A4 4 0 0 0 44 32a4 4 0 0 0-4-4 4 4 0 0 0-4 4m8 0a4 4 0 0 0 .035.5A4 4 0 0 1 48 29a4 4 0 0 1 3.965 3.48A4 4 0 0 0 52 32a4 4 0 0 0-4-4 4 4 0 0 0-4 4m8 0a4 4 0 0 0 .035.5A4 4 0 0 1 56 29a4 4 0 0 1 3.965 3.48A4 4 0 0 0 60 32a4 4 0 0 0-4-4 4 4 0 0 0-4 4M8 36a4 4 0 0 0-4 4 4 4 0 0 0 .035.5A4 4 0 0 1 8 37a4 4 0 0 1 3.965 3.48A4 4 0 0 0 12 40a4 4 0 0 0-4-4m4 4a4 4 0 0 0 .035.5A4 4 0 0 1 16 37a4 4 0 0 1 3.965 3.48A4 4 0 0 0 20 40a4 4 0 0 0-4-4 4 4 0 0 0-4 4m8 0a4 4 0 0 0 .035.5A4 4 0 0 1 24 37a4 4 0 0 1 3.965 3.48A4 4 0 0 0 28 40a4 4 0 0 0-4-4 4 4 0 0 0-4 4m8 0a4 4 0 0 0 .035.5A4 4 0 0 1 32 37a4 4 0 0 1 3.965 3.48A4 4 0 0 0 36 40a4 4 0 0 0-4-4 4 4 0 0 0-4 4m8 0a4 4 0 0 0 .035.5A4 4 0 0 1 40 37a4 4 0 0 1 3.965 3.48A4 4 0 0 0 44 40a4 4 0 0 0-4-4 4 4 0 0 0-4 4m8 0a4 4 0 0 0 .035.5A4 4 0 0 1 48 37a4 4 0 0 1 3.965 3.48A4 4 0 0 0 52 40a4 4 0 0 0-4-4 4 4 0 0 0-4 4M8 44a4 4 0 0 0-4 4 4 4 0 0 0 .035.5A4 4 0 0 1 8 45a4 4 0 0 1 3.965 3.48A4 4 0 0 0 12 48a4 4 0 0 0-4-4m4 4a4 4 0 0 0 .035.5A4 4 0 0 1 16 45a4 4 0 0 1 3.965 3.48A4 4 0 0 0 20 48a4 4 0 0 0-4-4 4 4 0 0 0-4 4m20-4a4 4 0 0 0-4 4 4 4 0 0 0 .035.5A4 4 0 0 1 32 45a4 4 0 0 1 3.965 3.48A4 4 0 0 0 36 48a4 4 0 0 0-4-4m4 4a4 4 0 0 0 .035.5A4 4 0 0 1 40 45a4 4 0 0 1 3.965 3.48A4 4 0 0 0 44 48a4 4 0 0 0-4-4 4 4 0 0 0-4 4M8 52a4 4 0 0 0-4 4 4 4 0 0 0 .035.5A4 4 0 0 1 8 53a4 4 0 0 1 3.965 3.48A4 4 0 0 0 12 56a4 4 0 0 0-4-4m24 0a4 4 0 0 0-4 4 4 4 0 0 0 .035.5A4 4 0 0 1 32 53a4 4 0 0 1 3.965 3.48A4 4 0 0 0 36 56a4 4 0 0 0-4-4" style="opacity:.2;fill:#fff"/></svg>