<svg xmlns="http://www.w3.org/2000/svg" width="64" height="64"><g style="fill:#8e8e8e"><path d="M58 40v2H6v-2zm0 6v2H6v-2zm0 6v2H6v-2zm0-30v2H6v-2zm0 6v2H6v-2zm0 6v2H6v-2zm0-18v2H6v-2zm0-6v2H6v-2z"/><path d="M24 58h-2V6h2zm-6 0h-2V6h2zm-6 0h-2V6h2zm30 0h-2V6h2zm-6 0h-2V6h2zm-6 0h-2V6h2zm18 0h-2V6h2zm6 0h-2V6h2z"/></g><rect width="48" height="48" x="-57" y="-56" rx="2.5" ry="2.5" style="opacity:.2" transform="rotate(90)scale(-1 1)"/><rect width="48" height="48" x="-56" y="-56" rx="2.5" ry="2.5" style="fill:#00b7f8" transform="rotate(90)scale(-1 1)"/><path d="M10.5 8A2.495 2.495 0 0 0 8 10.5v1C8 10.115 9.115 9 10.5 9h43c1.385 0 2.5 1.115 2.5 2.5v-1C56 9.115 54.885 8 53.5 8z" style="fill:#fff;opacity:.2"/><path d="M38.218 15 23 36h6.519l-3.737 15L41 30h-6.519z" style="opacity:.2;fill-rule:evenodd"/><path d="M38.218 14 23 35h6.519l-3.737 15L41 29h-6.519z" style="fill:#fff;fill-rule:evenodd"/></svg>