<svg xmlns="http://www.w3.org/2000/svg" width="64" height="64"><path d="M8.385 4C5.955 4 4 6.033 4 8.56v47.88A4.55 4.55 0 0 0 8.56 61h48.055C59.045 61 61 58.967 61 56.44V8.56C61 6.034 59.045 4 56.615 4Z" style="opacity:.2"/><path d="M8.385 3C5.955 3 4 5.033 4 7.56V31.5h28.5V60h24.115C59.045 60 61 57.967 61 55.44V7.56C61 5.033 59.045 3 56.615 3Z" style="fill:#e4e4e4"/><path d="M31 3v27H4v3h27v27h3V33h27v-3H34V3Z" style="fill:#534b5e"/><path d="M41 10v14h3v-9.213L48.697 24H52V10h-2.984l-.032 9.143L44.371 10Zm-23.138 0C13.674 10 11 12.9 11 17.156 11 21.253 13.487 24 17.197 24q2.81 0 4.803-1.943V16h-5v3h2v1.654c-.415.256-.785.404-1.445.404-2.128 0-3.455-1.588-3.455-4.175 0-2.53 1.277-3.884 3.676-3.884 1.005 0 2.179.216 2.963.53l.817-2.667c-1.004-.548-2.35-.862-3.694-.862" style="fill:#8d8a87"/><path d="M40.057 36c-.368 0-.702.118-.974.351l.178.537c.229-.165.454-.248.656-.248.28 0 .46.156.46.385 0 .363-.451.804-1.188 1.438v.516h1.993v-.635h-.968q.896-.74.896-1.435c0-.55-.416-.909-1.053-.909m-2.285.041-1.317 2.027v.387h1.293V39h.687v-.545h.498v-.617l-.498-.002V36.04zm-.024.819v.973l-.59-.002zM10.792 6c-.714 0-1.197.605-1.197 1.512 0 .89.473 1.488 1.176 1.488.712 0 1.191-.605 1.191-1.516 0-.891-.471-1.484-1.17-1.484m-2.54.041L6.944 8.054v.384h1.284v.541h.685v-.541h.491v-.614l-.49-.002V6.041Zm2.525.58c.278 0 .467.358.467.897 0 .516-.185.86-.457.86-.287 0-.472-.357-.472-.89 0-.522.185-.866.462-.866m-2.548.233v.966l-.586-.004Zm0 0" style="fill:#b5b5b5"/><path d="M4 31.5v23.94A4.55 4.55 0 0 0 8.56 60H34V31.5Z" style="fill:#534b5e"/><path d="M8.385 3C5.955 3 4 5.033 4 7.56v1C4 6.034 5.955 4 8.385 4h48.23C59.045 4 61 6.033 61 8.56v-1C61 5.034 59.045 3 56.615 3z" style="fill:#fff;opacity:.2"/></svg>