<svg xmlns="http://www.w3.org/2000/svg" width="64" height="64"><path d="M14.04 5C11.814 5 10 6.84 10 9.096v47.808C10 59.16 11.815 61 14.04 61h36.92c2.225 0 4.04-1.84 4.04-4.096V9.096C55 6.84 53.185 5 50.96 5Z" style="opacity:.2"/><path d="M14.04 4C11.814 4 10 5.84 10 8.096v47.808C10 58.16 11.815 60 14.04 60h36.92c2.225 0 4.04-1.84 4.04-4.096V8.096C55 5.84 53.185 4 50.96 4Z" style="fill:#3584e4"/><path d="M15.947 8a.933.92 0 0 0-.65 1.577l2.451 2.416-2.451 2.415a.933.92 0 1 0 1.319 1.3l3.111-3.066a.933.92 0 0 0 0-1.3l-3.111-3.065a.933.92 0 0 0-.67-.277" font-weight="400" overflow="visible" style="opacity:.2"/><path d="M15.947 7a.933.92 0 0 0-.65 1.577l2.451 2.416-2.451 2.415a.933.92 0 1 0 1.319 1.3l3.111-3.066a.933.92 0 0 0 0-1.3l-3.111-3.065a.933.92 0 0 0-.67-.277" font-weight="400" overflow="visible" style="fill:#f6f5f4"/><path d="M13 18v36.577C13 55.932 14.027 57 15.33 57h34.34c1.303 0 2.33-1.068 2.33-2.423V18Z" style="fill:#241f31"/><path d="M15 35v3h15v-3zm0 5v3h32v-3zm0 5v3h25v-3zm0 5v3h29v-3z" style="opacity:.3;fill:#fff"/><path d="M13 18v15h39V18Z" style="opacity:.15;fill:#fff"/><path d="M14.04 4C11.813 4 10 5.84 10 8.096v1C10 6.84 11.814 5 14.04 5h36.92C53.187 5 55 6.84 55 9.096v-1C55 5.84 53.186 4 50.96 4z" style="fill:#fff;opacity:.2"/><path d="M13 18h39v1H13z" style="opacity:.2;fill:#1a1a1a"/></svg>