<svg xmlns="http://www.w3.org/2000/svg" width="64" height="64"><circle cx="32" cy="33" r="28" style="opacity:.2"/><circle cx="32" cy="32" r="28" style="fill:#e4e4e4"/><path d="M23.5 16c-4.717 0-8.5 3.878-8.5 8.492v10.016C15 39.122 18.783 43 23.5 43s8.5-3.878 8.5-8.492V24.492C32 19.878 28.217 16 23.5 16m.05 4c2.04 0 2.45 1.641 2.45 3.908v11.184C26 37.359 25.59 39 23.55 39 21.513 39 21 37.359 21 35.092V23.908c0-2.267.512-3.908 2.55-3.908" style="opacity:.1"/><path d="M23.5 15c-4.717 0-8.5 3.878-8.5 8.492v10.016C15 38.122 18.783 42 23.5 42s8.5-3.878 8.5-8.492V23.492C32 18.878 28.217 15 23.5 15m.05 4c2.04 0 2.45 1.641 2.45 3.908v11.184C26 36.359 25.59 38 23.55 38 21.513 38 21 36.359 21 34.092V22.908c0-2.267.512-3.908 2.55-3.908" style="fill:#00a500"/><path d="M18.591 16.582C16.417 18.135 15 20.674 15 23.493v10.014c0 4.589 3.742 8.447 8.423 8.49-4.093-.838-5.836-3.763-5.91-7.471l-.244-12.077c-.037-1.825.632-4.33 1.322-5.867" style="fill:#006e00"/><path d="m47.057 19-6.153 1.451c1.192 6.9 1.842 13.733 1.812 20.619-3.094-4.854-5.016-11.466-5.96-16.758l-6.15 1.47c.72 4.699 1.28 9.711.953 14.035-1.371-2.95-2.867-6.763-3.395-10.094L22 31.094c1.276 6.947 4.19 13.627 7.598 18.906 2.486-1.057 5.006-2.167 7.304-3.138l.402-2.181c1.023 2.375 2.437 4.2 3.225 5.196l8.373-3.405c.159-9.46.41-14.01-1.845-27.472" style="opacity:.1"/><path d="m47.057 18-6.153 1.451c1.192 6.9 1.842 13.733 1.812 20.619-3.094-4.854-5.016-11.466-5.96-16.758l-6.15 1.47c.72 4.699 1.28 9.711.953 14.035-1.371-2.95-2.867-6.763-3.395-10.094L22 30.094c1.276 6.947 4.19 13.627 7.598 18.906 2.486-1.057 5.006-2.167 7.304-3.138l.402-2.181c1.023 2.375 2.437 4.2 3.225 5.196l8.373-3.405c.159-9.46.41-14.01-1.845-27.472" style="fill:#ffa20e"/><path d="M22.835 33.731A54.6 54.6 0 0 0 29.6 49c1.718-.73 3.38-1.451 5.046-2.169-4.256-.093-5.622 1.244-11.81-13.1m8.833-4.785c.984 5.927 4.45 13.89 8.86 19.93l6.7-2.665c-6.319.934-9.139-1.648-15.56-17.265" style="fill:#ff7015"/><path d="M32 4A28 28 0 0 0 4 32a28 28 0 0 0 .006.51A28 28 0 0 1 32 5a28 28 0 0 1 27.994 27.49A28 28 0 0 0 60 32 28 28 0 0 0 32 4" style="fill:#fff;opacity:.2"/></svg>