<svg xmlns="http://www.w3.org/2000/svg" width="64" height="64"><path d="M31.5 5A26.5 28 0 0 0 5 33a26.5 28 0 0 0 26.5 28A26.5 28 0 0 0 58 33 26.5 28 0 0 0 31.5 5m0 20.8a5.579 7.2 0 0 1 5.579 7.2 5.579 7.2 0 0 1-5.579 7.2 5.579 7.2 0 0 1-5.579-7.2 5.579 7.2 0 0 1 5.579-7.2" style="opacity:.2"/><path d="M31.5 4A26.5 28 0 0 0 5 32a26.5 28 0 0 0 26.5 28A26.5 28 0 0 0 58 32 26.5 28 0 0 0 31.5 4m0 20.8a5.579 7.2 0 0 1 5.579 7.2 5.579 7.2 0 0 1-5.579 7.2 5.579 7.2 0 0 1-5.579-7.2 5.579 7.2 0 0 1 5.579-7.2" style="fill:#ae2d20"/><path d="M31.5 9A22.5 24 0 0 0 9 33a22.5 24 0 0 0 22.5 24A22.5 24 0 0 0 54 33 22.5 24 0 0 0 31.5 9m0 12A9.5 12 0 0 1 41 33a9.5 12 0 0 1-9.5 12A9.5 12 0 0 1 22 33a9.5 12 0 0 1 9.5-12" style="opacity:.2"/><path d="M31.5 8A22.5 24 0 0 0 9 32a22.5 24 0 0 0 22.5 24A22.5 24 0 0 0 54 32 22.5 24 0 0 0 31.5 8m0 12A9.5 12 0 0 1 41 32a9.5 12 0 0 1-9.5 12A9.5 12 0 0 1 22 32a9.5 12 0 0 1 9.5-12" style="fill:#fff"/><path d="M31.5 4A26.5 28 0 0 0 5 32a26.5 28 0 0 0 .02.414A26.5 28 0 0 1 31.5 5a26.5 28 0 0 1 26.48 27.586A26.5 28 0 0 0 58 32 26.5 28 0 0 0 31.5 4m5.56 28.453A5.579 7.2 0 0 1 31.5 39.2a5.579 7.2 0 0 1-5.56-6.652 5.579 7.2 0 0 0-.018.453 5.579 7.2 0 0 0 5.578 7.2 5.579 7.2 0 0 0 5.578-7.2 5.579 7.2 0 0 0-.018-.547" style="opacity:.1;fill:#fff"/></svg>