<svg xmlns="http://www.w3.org/2000/svg" width="64" height="64"><path d="M12 13c-5.432 5.27-7.996 12.432-8 20 0 15.464 12.536 28 28 28s28-12.536 28-28c0-7.587-2.547-14.725-8-20l-6 6c3.954 3.774 6 8.534 6 14a19.9 19.9 0 0 1-2.46 9.615L38 33l-4-12v18l10 10a19.9 19.9 0 0 1-12 4 19.9 19.9 0 0 1-12-4l10-10V21l-4 12-11.54 9.615A19.9 19.9 0 0 1 12 33c.005-5.446 2.067-10.232 6-14Z" style="opacity:.2"/><path d="M12 12c-5.432 5.27-7.996 12.432-8 20 0 15.464 12.536 28 28 28s28-12.536 28-28c0-7.587-2.547-14.725-8-20l-6 6c3.954 3.774 6 8.534 6 14a19.9 19.9 0 0 1-2.46 9.615L38 32l-4-12v18l10 10a19.9 19.9 0 0 1-12 4 19.9 19.9 0 0 1-12-4l10-10V20l-4 12-11.54 9.615A19.9 19.9 0 0 1 12 32c.005-5.446 2.067-10.232 6-14z" style="fill:#afafb1"/><path d="M12 12c-5.432 5.27-7.996 12.432-8 20 0 .155.01.307.012.46C4.135 25.094 6.697 18.145 12 13l5.502 5.502c.164-.168.327-.338.498-.502zm40 0-6 6c.172.164.335.332.5.5L52 13c5.32 5.146 7.867 12.066 7.988 19.445.003-.148.012-.296.012-.445 0-7.587-2.547-14.725-8-20m-22 8-4 12-11.54 9.615a19.9 19.9 0 0 1-2.446-9.174c-.005.186-.014.371-.014.559 0 3.486.893 6.762 2.46 9.615L26 33l4-12zm4 0v1l4 12 11.54 9.615A19.9 19.9 0 0 0 52 33c0-.194-.009-.385-.014-.578a19.9 19.9 0 0 1-2.447 9.193L38 32zM20.592 48.408 20 49a19.9 19.9 0 0 0 12 4 19.9 19.9 0 0 0 12-4l-.592-.592A19.9 19.9 0 0 1 32 52c-4.245 0-8.17-1.336-11.408-3.592" style="fill:#fff;opacity:.2"/><path d="M32 5c-6.59.005-12.958 1.757-18 6l6 6c3.515-2.758 7.532-3.994 12-4 4.452 0 8.488 1.264 12 4l6-6c-5.04-4.221-11.426-6-18-6" style="opacity:.2"/><path d="M32 4c-6.59.005-12.958 1.757-18 6l6 6c3.515-2.758 7.532-3.994 12-4 4.452 0 8.488 1.264 12 4l6-6c-5.04-4.221-11.426-6-18-6" style="fill:#fecd38"/><path d="M32 4c-6.59.005-12.958 1.757-18 6l.557.557C19.507 6.639 25.649 5.005 32 5c6.335 0 12.494 1.658 17.443 5.557L50 10c-5.04-4.221-11.426-6-18-6" style="fill:#fff;opacity:.2"/></svg>