<svg xmlns="http://www.w3.org/2000/svg" width="64" height="64"><path d="m20 57-4-4H8c-2.216 0-4-1.784-4-4V13c0-2.216 1.784-4 4-4h48c2.216 0 4 1.784 4 4v36c0 2.216-1.784 4-4 4h-8l-4 4Z" style="opacity:.2"/><path d="m20 56-4-4H8c-2.216 0-4-1.784-4-4V12c0-2.216 1.784-4 4-4h48c2.216 0 4 1.784 4 4v36c0 2.216-1.784 4-4 4h-8l-4 4Z" style="fill:#2c80c2"/><path d="m24 48-4-4h-8V16h40v28h-8l-4 4Z" style="opacity:.5"/><path d="M18 20h4v-4h-4zm6 0h4v-4h-4zm6 0h4v-4h-4zm6 0h4v-4h-4zm6 0h4v-4h-4z" style="fill:#f8c44e"/><path d="M8 8c-2.216 0-4 1.784-4 4v1c0-2.216 1.784-4 4-4h48c2.216 0 4 1.784 4 4v-1c0-2.216-1.784-4-4-4z" style="fill:#fff;opacity:.2"/><path d="M12 44v1h8l4 4h16l4-4h8v-1h-8l-4 4H24l-4-4Z" style="opacity:.2;fill:#fff"/></svg>