<svg xmlns="http://www.w3.org/2000/svg" width="64" height="64"><path d="m56.24 15.1-9.849 4.332 1.543.544-7.175 3.615 2.515.889-7.9 3.978 11.05 3.905-2.201-7.55 7.585 2.68-1.999-6.855 7.635 2.699zM44.582 34.456l-10.705 3.841 8.54 4.526-2.63 1.452 7.505 3.41-2.486 1.345 10.771 2.083.347-8.099-6.002 3.249.011-7.59-5.75 3.174z" style="opacity:.2"/><path d="M35 5A28 28 0 0 0 7 33a28 28 0 0 0 28 28 28 28 0 0 0 21.782-10.495L34.007 33 56.82 15.462A28 28 0 0 0 35 5" style="opacity:.2"/><path d="m56.24 14.1-9.849 4.332 1.543.544-7.175 3.615 2.515.889-7.9 3.978 11.05 3.905-2.201-7.55 7.585 2.68-1.999-6.855 7.635 2.699zM44.582 33.456l-10.705 3.841 8.54 4.526-2.63 1.452 7.505 3.41-2.486 1.345 10.771 2.083.347-8.099-6.002 3.249.011-7.59-5.75 3.174z" style="fill:#e4e4e4"/><path d="M35 4A28 28 0 0 0 7 32a28 28 0 0 0 28 28 28 28 0 0 0 21.782-10.495L34.007 32 56.82 14.462A28 28 0 0 0 35 4" style="fill:#3f3f3f"/><circle cx="33" cy="17" r="4" style="opacity:.2"/><circle cx="33" cy="16" r="4" style="fill:#fff"/><path d="M35 4A28 28 0 0 0 7 32a28 28 0 0 0 .035.5A28 28 0 0 1 35 5a28 28 0 0 1 21.283 9.873l.537-.412A28 28 0 0 0 35 4m-.342 28.5-.65.5 22.238 17.094a28 28 0 0 0 .535-.588z" style="fill:#fff;opacity:.1"/></svg>