<svg xmlns="http://www.w3.org/2000/svg" width="64" height="64"><rect width="56" height="56" x="4" y="5" rx="16.8" ry="16.8" style="opacity:.2"/><rect width="56" height="56" x="4" y="4" rx="16.8" ry="16.8" style="fill:#bdc0b9"/><path d="M19.4 44.6 8.91 55.09A16.75 16.75 0 0 0 20.8 60h22.4a16.75 16.75 0 0 0 11.89-4.91L44.6 44.6H32Z" style="opacity:.3"/><path d="M55.09 8.91 44.6 19.4v25.2l10.49 10.49A16.75 16.75 0 0 0 60 43.2V20.8a16.75 16.75 0 0 0-4.91-11.89m-46.18 0A16.75 16.75 0 0 0 4 20.8v22.4a16.75 16.75 0 0 0 4.91 11.89L19.4 44.6V19.4Z" style="opacity:.15"/><rect width="40" height="40" x="12" y="13" rx="8.571" ry="8.571" style="opacity:.2"/><rect width="40" height="40" x="12" y="12" rx="8.571" ry="8.571" style="fill:#eceeeb"/><path d="M32 18c-7.732 0-14 6.268-14 14a14 14 0 0 0 5.6 11.184V39h1.556c-1.887-1.84-3.152-4.364-3.156-7 0-5.412 4.588-10 10-10s10 4.588 10 10c0 2.634-1.262 5.157-3.145 7H41.8v2.98A14 14 0 0 0 46 32c0-7.732-6.268-14-14-14" style="fill:#3f3f3f"/><rect width="8.608" height="14.358" x="6.14" y="36.66" rx="5.096" ry="5.208" style="fill:#3f3f3f" transform="matrix(.9613 -.27548 .29553 .95533 0 0)"/><rect width="8.608" height="14.358" x="-55.01" y="19.02" rx="5.096" ry="5.208" style="fill:#3f3f3f" transform="matrix(-.9613 -.2755 -.29554 .95533 0 0)"/><path d="M20.8 4C11.495 4 4 11.494 4 20.8v1C4 12.495 11.494 5 20.8 5h22.4C52.505 5 60 12.494 60 21.8v-1C60 11.495 52.506 4 43.2 4z" style="opacity:.2;fill:#fff"/></svg>