<svg xmlns="http://www.w3.org/2000/svg" width="64" height="64"><path d="M8.308 61h47.384C58.08 61 60 59.002 60 56.52V45H4v11.52C4 59.002 5.921 61 8.308 61" style="opacity:.2"/><path d="M8.308 60h47.384C58.08 60 60 58.002 60 55.52V44H4v11.52C4 58.002 5.921 60 8.308 60" style="fill:#e4e4e4"/><path d="M8.308 4h47.384C58.08 4 60 5.998 60 8.48V44H4V8.48C4 5.998 5.921 4 8.308 4" style="fill:#3f3f3f"/><path d="M28 50h26v4H28z" style="fill:#7e7e7e"/><path d="M10 50h18v4H10z" style="fill:#f04113"/><path d="M24 50h8v4h-8z" style="opacity:.2;fill:#fff"/><path d="M32 11c-7.727 0-14 6.273-14 14s6.273 14 14 14 14-6.273 14-14-6.273-14-14-14m0 1.273c7.034 0 12.727 5.693 12.727 12.727S39.034 37.727 32 37.727 19.273 32.034 19.273 25 24.966 12.273 32 12.273m-3.988 6.364L28 31.363l11.453-6.355Z" style="opacity:.2"/><path d="M39.455 24.009 28 30.364l.01-12.728Z" style="fill:#fff"/><path d="M32 10c-7.727 0-14 6.273-14 14s6.273 14 14 14 14-6.273 14-14-6.273-14-14-14m0 1.273c7.034 0 12.727 5.693 12.727 12.727S39.034 36.727 32 36.727 19.273 31.034 19.273 24 24.966 11.273 32 11.273" style="fill:#fff"/><path d="M10 54h44v1H10z" style="opacity:.1"/><path d="M4 44h56v1H4z" style="opacity:.2;fill:#fff"/><path d="M8.309 4C5.922 4 4 5.999 4 8.48v1C4 7 5.922 5 8.309 5H55.69C58.078 5 60 6.999 60 9.48v-1C60 6 58.078 4 55.691 4z" style="opacity:.1;fill:#fff"/></svg>