<svg xmlns="http://www.w3.org/2000/svg" width="64" height="64"><defs><filter id="a" width="1.24" height="1.157" x="-.12" y="-.079" style="color-interpolation-filters:sRGB"><feGaussianBlur stdDeviation="1.569"/></filter></defs><g style="stroke:none;filter:url(#a)" transform="translate(-1.38 1.036)"><path d="M28.787 6.735c-1.964.105-2.058-.566-3.24.999.038-.003.074-.173.112-.175a5.93 5.93 0 0 1 3.227.738l12.957 7.184c2.67 1.48 4.343 4.357 4.343 7.467v25.104a6.14 6.14 0 0 1-1.205 3.656c1.756-.347 4-1.296 4-4.757V22.069c0-3.083-1.045-6.016-3.756-7.483l-13.158-7.12a6.15 6.15 0 0 0-3.28-.731M26.065 18.47l-.246 21.005a.76.76 0 0 0 .397.686l9.491 5.272-.081-3.28-6.035-3.403c-.306-.149-.485-.418-.485-.73V20.241Z" style="baseline-shift:baseline;display:inline;overflow:visible;opacity:1;vector-effect:none;fill:#26abff;fill-rule:evenodd;stroke:none;stroke-linecap:round;stroke-linejoin:round;stroke-miterlimit:28;enable-background:accumulate;stop-color:#000;stop-opacity:1"/><path d="M23.605 10.382c-3.147.168-6.064 2.76-6.064 6.172v23.342a8.1 8.1 0 0 0 4.236 7.106l12.788 6.921c3.873 2.096 8.902-.902 8.902-5.306V24.912a8.03 8.03 0 0 0-4.202-7.05L26.73 11.078a5.86 5.86 0 0 0-3.125-.696m1.401 5.47 12.415 6.422a.83.83 0 0 1 .466.747v24.992a1.218 1.218 148.672 0 1-1.777 1.081l-12.478-6.452a.91.91 0 0 1-.511-.82V17.001a1.292 1.292 148.674 0 1 1.885-1.148" style="baseline-shift:baseline;display:inline;overflow:visible;opacity:1;vector-effect:none;fill:#f02f68;fill-rule:evenodd;stroke:none;stroke-linecap:round;stroke-linejoin:round;stroke-miterlimit:28;enable-background:accumulate;stop-color:#000;stop-opacity:1"/></g><g style="opacity:.71732605;fill:#26abff;fill-opacity:1;stroke:none;stroke-width:.2;stroke-dasharray:none;stroke-opacity:1"><path d="M27.406 6.514c-2.026.108-3.963 1.145-5.2 2.744l.116-.008a6.34 6.34 0 0 1 3.381.754l13.572 7.344a8.7 8.7 0 0 1 4.55 7.632v25.663a6.18 6.18 0 0 1-1.263 3.736c3.295-.187 6.346-2.903 6.346-6.473V22.244c0-3.18-1.752-6.12-4.549-7.633L30.79 7.268a6.35 6.35 0 0 0-3.383-.754m-3.703 12.174V41.2c0 .303.156.563.422.707l11.086 5.996v-5.486l-6-3.246a.79.79 0 0 1-.422-.707V21.439Z" style="baseline-shift:baseline;display:inline;overflow:visible;fill:#26abff;fill-opacity:1;fill-rule:evenodd;stroke:none;stroke-width:.2;stroke-linecap:round;stroke-linejoin:round;stroke-miterlimit:28;stroke-dasharray:none;stroke-opacity:1;enable-background:accumulate;stop-color:#000"/><path d="M21.654 9.621c-3.406.183-6.562 2.987-6.562 6.682v25.27a8.76 8.76 0 0 0 4.586 7.693l13.843 7.492c4.193 2.268 9.635-.977 9.635-5.744V25.352c0-3.18-1.752-6.12-4.549-7.633L25.04 10.375a6.35 6.35 0 0 0-3.385-.754m1.383 8.705 11.79 6.381a.72.72 0 0 1 .384.645v23.287l-11.752-6.36a.79.79 0 0 1-.422-.707z" style="baseline-shift:baseline;display:inline;overflow:visible;fill:#f02f68;fill-opacity:1;fill-rule:evenodd;stroke:none;stroke-width:.2;stroke-linecap:round;stroke-linejoin:round;stroke-miterlimit:28;stroke-dasharray:none;stroke-opacity:1;enable-background:accumulate;stop-color:#000"/></g></svg>