<svg xmlns="http://www.w3.org/2000/svg" width="64" height="64"><defs><filter id="e" width="1.823" height="1.32" x="-.411" y="-.16" style="color-interpolation-filters:sRGB"><feGaussianBlur stdDeviation="1.142"/></filter><filter id="d" width="1.238" height="1.245" x="-.119" y="-.123" style="color-interpolation-filters:sRGB"><feGaussianBlur stdDeviation=".895"/></filter><filter id="c" width="1.147" height="1.63" x="-.074" y="-.315" style="color-interpolation-filters:sRGB"><feGaussianBlur stdDeviation=".895"/></filter><filter id="b" width="1.186" height="1.7" x="-.093" y="-.35" style="color-interpolation-filters:sRGB"><feGaussianBlur stdDeviation="1.108"/></filter><filter id="a" width="1.182" height="1.141" x="-.091" y="-.07" style="color-interpolation-filters:sRGB"><feGaussianBlur stdDeviation="1.481"/></filter></defs><rect width="43.094" height="55.722" x="10.453" y="4.139" rx="6.92" ry="6.92" style="fill:#deddda;fill-opacity:1;stroke:none;stroke-width:.107688;stroke-linecap:round;stroke-linejoin:round;stroke-miterlimit:2.1;paint-order:markers stroke fill"/><path fill="#6fb182" d="M17.709 18.45h28.477c1.21 0 2.189-.98 2.189-2.19v-4.377c0-1.21-.98-2.19-2.19-2.19H17.71c-1.21 0-2.19.98-2.19 2.19v4.377c0 1.21.98 2.19 2.19 2.19m0 0" style="fill:#3f3f3f;fill-opacity:1;stroke-width:.547224"/><path d="M19.351 22.827a3.83 3.83 0 1 0-.003 7.663 3.83 3.83 0 0 0 .003-7.663m12.586 0a3.83 3.83 0 1 0-.003 7.663 3.83 3.83 0 0 0 .003-7.663m12.586 0a3.83 3.83 0 1 0-.003 7.663 3.83 3.83 0 0 0 .003-7.663" style="fill:#9a9996;fill-opacity:1;stroke-width:.547224"/><path d="M19.351 34.866a3.83 3.83 0 1 0-.003 7.661 3.83 3.83 0 0 0 .003-7.661m12.586 0a3.83 3.83 0 1 0-.003 7.661 3.83 3.83 0 0 0 .003-7.661M19.351 46.905a3.83 3.83 0 1 0-.003 7.661 3.83 3.83 0 0 0 .003-7.661m12.586 0a3.83 3.83 0 1 0-.003 7.661 3.83 3.83 0 0 0 .003-7.661" style="fill:#5e5c64;fill-opacity:1;stroke-width:.547224"/><path fill="#ff7800" d="M44.523 34.866a3.83 3.83 0 0 1 3.83 3.83v12.04a3.83 3.83 0 1 1-7.661 0v-12.04a3.83 3.83 0 0 1 3.83-3.83m0 0" style="stroke-width:.547224;fill:#00b67e;fill-opacity:1"/><rect width="40.018" height="51.744" x="11.991" y="6.128" rx="6.426" ry="6.426" style="fill:none;fill-opacity:1;stroke:#000;stroke-width:.185722;stroke-linecap:round;stroke-linejoin:round;stroke-miterlimit:2.1;stroke-dasharray:none;stroke-opacity:1;paint-order:markers stroke fill;filter:url(#a)" transform="translate(-2.46 -2.46)scale(1.07688)"/><path fill="#6fb182" d="M18.729 19.417h26.444c1.123 0 2.033-.91 2.033-2.033V13.32c0-1.124-.91-2.033-2.033-2.033H18.729c-1.124 0-2.033.91-2.033 2.033v4.065c0 1.124.91 2.033 2.033 2.033zm0 0" style="fill:none;stroke:#032c00;stroke-width:.371444;stroke-dasharray:none;stroke-opacity:1;filter:url(#b)" transform="translate(-2.46 -2.46)scale(1.07688)"/><path d="M20.254 23.481a3.557 3.557 0 1 0-.003 7.116 3.557 3.557 0 0 0 .003-7.116zm11.688 0a3.557 3.557 0 1 0-.003 7.116 3.557 3.557 0 0 0 .003-7.116zm11.687 0a3.557 3.557 0 1 0-.003 7.116 3.557 3.557 0 0 0 .003-7.116z" style="fill:none;fill-opacity:1;stroke:#000;stroke-width:.185722;stroke-dasharray:none;stroke-opacity:1;filter:url(#c)" transform="translate(-2.46 -2.46)scale(1.07688)"/><path d="M20.254 34.661a3.557 3.557 0 1 0-.003 7.114 3.557 3.557 0 0 0 .003-7.114zm11.688 0a3.557 3.557 0 1 0-.003 7.114 3.557 3.557 0 0 0 .003-7.114zm-11.688 11.18a3.557 3.557 0 1 0-.003 7.114 3.557 3.557 0 0 0 .003-7.114zm11.688 0a3.557 3.557 0 1 0-.003 7.114 3.557 3.557 0 0 0 .003-7.114z" style="fill:none;fill-opacity:1;stroke:#000;stroke-width:.185722;stroke-dasharray:none;stroke-opacity:1;filter:url(#d)" transform="translate(-2.46 -2.46)scale(1.07688)"/><path fill="#ff7800" d="M43.629 34.661a3.556 3.556 0 0 1 3.557 3.558v11.179a3.556 3.556 0 1 1-7.114 0v-11.18a3.556 3.556 0 0 1 3.557-3.557zm0 0" style="fill:none;stroke:#841508;stroke-width:.371444;stroke-dasharray:none;stroke-opacity:1;filter:url(#e)" transform="translate(-2.46 -2.46)scale(1.07688)"/></svg>