<svg xmlns="http://www.w3.org/2000/svg" xmlns:xlink="http://www.w3.org/1999/xlink" width="64" height="64"><defs><radialGradient xlink:href="#a" id="d" cx="63.799" cy="63.799" r="28.43" fx="63.799" fy="63.799" gradientTransform="rotate(-90 63.799 142.535)scale(2.23414)" gradientUnits="userSpaceOnUse"/><radialGradient xlink:href="#b" id="e" cx="16.105" cy="18.451" r="20.554" fx="16.105" fy="18.451" gradientTransform="matrix(0 3.07081 -3.0706 0 57.056 -48.966)" gradientUnits="userSpaceOnUse"/><radialGradient xlink:href="#c" id="f" cx=".468" cy="63.743" r="17.358" fx=".468" fy="63.743" gradientTransform="translate(-1.265 -172.335)scale(3.70359)" gradientUnits="userSpaceOnUse"/><linearGradient id="c"><stop offset="0" style="stop-color:#283d8a;stop-opacity:1"/><stop offset="1" style="stop-color:#285a8a;stop-opacity:1"/></linearGradient><linearGradient id="b"><stop offset="0" style="stop-color:#5092ff;stop-opacity:1"/><stop offset="1" style="stop-color:#8550ff;stop-opacity:1"/></linearGradient><linearGradient id="a"><stop offset="0" style="stop-color:#d3d5ff;stop-opacity:1"/><stop offset="1" style="stop-color:#c7e0ff;stop-opacity:1"/></linearGradient><filter id="h" width="1.098" height="1.097" x="-.049" y="-.048" style="color-interpolation-filters:sRGB"><feGaussianBlur stdDeviation=".977"/></filter><filter id="g" width="1.12" height="1.12" x="-.06" y="-.06" style="color-interpolation-filters:sRGB"><feGaussianBlur stdDeviation="1.379"/></filter></defs><path d="M32 3.57c-1.49 0-2.98.555-4.094 1.668L5.238 27.91c-2.226 2.226-2.223 5.952.004 8.179l22.668 22.67c2.226 2.227 5.955 2.23 8.182.004l22.668-22.67c2.227-2.227 2.227-5.957 0-8.183L36.092 5.239c-1.113-1.114-2.604-1.669-4.093-1.669" style="fill:url(#d);stroke-width:.980342" transform="translate(-.21 -.21)scale(1.00654)"/><path d="M31.9 6.707a2 2 0 0 0-1.415.586l-8.79 8.79a2 2 0 0 0 0 2.827l5.86 5.86a2 2 0 0 0 2.829 0l7.373-7.376 3.03 3.031-3.955 3.955a2 2 0 0 0 0 2.83 2 2 0 0 0 2.829 0l5.37-5.37a2 2 0 0 0 0-2.83l-5.86-5.857a2 2 0 0 0-2.826 0l-7.376 7.373-3.029-3.03 7.372-7.374a2 2 0 0 0 0-2.83 2 2 0 0 0-1.413-.585M17.74 20.866a2 2 0 0 0-1.415.586L7.537 30.24a2 2 0 0 0 0 2.83 2 2 0 0 0 2.83 0l7.373-7.374 3.029 3.029-7.372 7.375a2 2 0 0 0 0 2.827l5.858 5.86a2 2 0 0 0 2.83 0 2 2 0 0 0 0-2.829l-4.446-4.445 7.375-7.374a2 2 0 0 0 0-2.829l-5.86-5.858a2 2 0 0 0-1.414-.586m16.622 6.815a2 2 0 0 0-1.415.584l-8.788 8.79a2 2 0 0 0 0 2.827 2 2 0 0 0 2.827 0l7.375-7.372 3.03 3.03-7.374 7.375a2 2 0 0 0-.006 2.821l5.839 5.882a2 2 0 0 0 2.833.004l8.79-8.789a2 2 0 0 0 0-2.827 2 2 0 0 0-2.831 0l-7.368 7.37-3.02-3.043 7.38-7.38a2 2 0 0 0 0-2.828l-5.858-5.86a2 2 0 0 0-1.415-.584" style="baseline-shift:baseline;display:inline;overflow:visible;opacity:1;vector-effect:none;fill:url(#e);stroke-linecap:round;stroke-linejoin:round;enable-background:accumulate;stop-color:#000;stop-opacity:1" transform="translate(-.21 -.21)scale(1.00654)"/><path d="M23.11 45.814c-1.082 1.082-.995 2.91.195 4.1l6.446 6.446c1.19 1.19 3.019 1.277 4.1.195l.19-.189a2.576 2.576 89.817 0 0-.012-3.654l-7.121-7.03a2.61 2.61 179.817 0 0-3.677.011zm19.647-15.48 6.533 6.616a2.927 2.927.183 0 0 4.153.014l2.868-2.868c1.082-1.082.995-2.91-.195-4.1l-6.446-6.447c-1.19-1.19-3.019-1.276-4.1-.194l-2.8 2.799a2.965 2.965 90.183 0 0-.013 4.18" style="fill:url(#f)" transform="translate(-.21 -.21)scale(1.00654)"/><path d="M32 3.57c-1.49 0-2.98.555-4.094 1.668L5.238 27.91c-2.226 2.226-2.223 5.952.004 8.179l22.668 22.67c2.226 2.227 5.955 2.23 8.182.004l22.668-22.67c2.227-2.227 2.227-5.957 0-8.183L36.092 5.239c-1.113-1.114-2.604-1.669-4.093-1.669Z" style="mix-blend-mode:normal;fill:none;stroke:#000;stroke-width:.20712;stroke-dasharray:none;stroke-opacity:1;filter:url(#g)" transform="translate(-.21 -.21)scale(1.00654)"/><g style="fill:none;stroke:#0200ff;stroke-width:.2;stroke-dasharray:none;stroke-opacity:1;filter:url(#h)" transform="translate(56.017 9.983)scale(1.00654)"><path d="m-39.544 11.315-8.79 8.789a2 2 0 0 0 0 2.828 2 2 0 0 0 2.829 0l7.375-7.373 3.029 3.03-7.373 7.374a2 2 0 0 0 0 2.829l5.86 5.859a2 2 0 0 0 2.827 0 2 2 0 0 0 0-2.828l-4.445-4.446 7.375-7.375a2 2 0 0 0 0-2.828l-5.86-5.859a2 2 0 0 0-2.827 0m14.158-14.158-8.79 8.789a2 2 0 0 0 0 2.828l5.86 5.86a2 2 0 0 0 2.828 0l7.375-7.376 3.03 3.032-3.956 3.955a2 2 0 0 0 0 2.828 2 2 0 0 0 2.829 0l5.37-5.37a2 2 0 0 0 0-2.827l-5.859-5.86a2 2 0 0 0-2.828 0l-7.375 7.373-3.03-3.03 7.374-7.374a2 2 0 0 0 0-2.828 2 2 0 0 0-2.828 0" style="baseline-shift:baseline;display:inline;overflow:visible;fill:none;stroke:#0200ff;stroke-width:.2;stroke-linecap:round;stroke-linejoin:round;stroke-dasharray:none;stroke-opacity:1;enable-background:accumulate;stop-color:#000"/><path d="m-22.923 18.13-8.79 8.788a2 2 0 0 0 0 2.829 2 2 0 0 0 2.829 0l7.375-7.373 3.029 3.029-7.373 7.375a2 2 0 0 0-.006 2.822l5.838 5.881a2 2 0 0 0 2.834.004l8.789-8.787a2 2 0 0 0 0-2.828 2 2 0 0 0-2.83 0l-7.37 7.369-3.019-3.041 7.381-7.381a2 2 0 0 0 0-2.828l-5.86-5.86a2 2 0 0 0-2.827 0" style="baseline-shift:baseline;display:inline;overflow:visible;fill:none;stroke:#0200ff;stroke-width:.2;stroke-linecap:round;stroke-linejoin:round;stroke-dasharray:none;stroke-opacity:1;enable-background:accumulate;stop-color:#000"/><path d="M-32.76 35.677c-1.082 1.082-.996 2.91.194 4.1l6.447 6.447c1.19 1.19 3.018 1.277 4.1.195l.189-.19a2.576 2.576 0 0 0-.012-3.653l-7.12-7.03a2.61 2.61 0 0 0-3.678.011zm19.646-15.48 6.533 6.617a2.927 2.927 0 0 0 4.153.014L.44 23.96c1.082-1.082.996-2.91-.194-4.1l-6.447-6.447c-1.19-1.19-3.018-1.277-4.1-.195l-2.8 2.8a2.965 2.965 0 0 0-.013 4.18z" style="fill:none;stroke:#0200ff;stroke-width:.2;stroke-dasharray:none;stroke-opacity:1"/></g></svg>