<svg xmlns="http://www.w3.org/2000/svg" width="64" height="64"><rect width="45" height="57" x="-56" y="-60" rx="2.813" ry="2.85" style="opacity:.2" transform="rotate(90)scale(-1 1)"/><rect width="45" height="57" x="-55" y="-60" rx="2.813" ry="2.85" style="fill:#4f4f4f" transform="rotate(90)scale(-1 1)"/><path d="M17 15v6H7v25h10v6h29v-6h10V21H46v-6z" style="opacity:.2"/><path d="M17 14h29v37H17z" style="fill:#fff"/><path d="M20-56h25v49H20z" style="fill:#fff" transform="rotate(90)"/><path d="M38 17v3h3v5.025A6.5 6.5 0 0 0 37.5 24a6.5 6.5 0 0 0-6.5 6.5 6.5 6.5 0 0 0 6.5 6.5 6.5 6.5 0 0 0 3.5-1.031V37h6v-3h-3V17Zm-24 7v3h3v14h-3v3h9v-3h-3v-5.025A6.5 6.5 0 0 0 23.5 37a6.5 6.5 0 0 0 6.5-6.5 6.5 6.5 0 0 0-6.5-6.5 6.5 6.5 0 0 0-3.5 1.031V24Zm9.5 3a3.5 3.5 0 0 1 3.5 3.5 3.5 3.5 0 0 1-3.5 3.5 3.5 3.5 0 0 1-3.5-3.5 3.5 3.5 0 0 1 3.5-3.5m14 0a3.5 3.5 0 0 1 3.5 3.5 3.5 3.5 0 0 1-3.5 3.5 3.5 3.5 0 0 1-3.5-3.5 3.5 3.5 0 0 1 3.5-3.5" style="opacity:.1"/><path d="M23-20h3v6h-3z" style="fill:#3f3f3f" transform="rotate(90)"/><path d="M17 23h3v19h-3z" style="fill:#3f3f3f"/><path d="M40-23h3v9h-3z" style="fill:#3f3f3f" transform="rotate(90)"/><path d="M23.5 23a6.5 6.5 0 0 0-6.5 6.5 6.5 6.5 0 0 0 6.5 6.5 6.5 6.5 0 0 0 6.5-6.5 6.5 6.5 0 0 0-6.5-6.5m0 3a3.5 3.5 0 0 1 3.5 3.5 3.5 3.5 0 0 1-3.5 3.5 3.5 3.5 0 0 1-3.5-3.5 3.5 3.5 0 0 1 3.5-3.5" style="fill:#3f3f3f"/><path d="M-36 41h3v6h-3z" style="fill:#3f3f3f" transform="rotate(-90)"/><path d="M-44-36h3v19h-3z" style="fill:#3f3f3f" transform="scale(-1)"/><path d="M-19 38h3v6h-3z" style="fill:#3f3f3f" transform="rotate(-90)"/><path d="M37.5 36a6.5 6.5 0 0 0 6.5-6.5 6.5 6.5 0 0 0-6.5-6.5 6.5 6.5 0 0 0-6.5 6.5 6.5 6.5 0 0 0 6.5 6.5m0-3a3.5 3.5 0 0 1-3.5-3.5 3.5 3.5 0 0 1 3.5-3.5 3.5 3.5 0 0 1 3.5 3.5 3.5 3.5 0 0 1-3.5 3.5" style="fill:#3f3f3f"/><path d="M5.85 10C4.27 10 3 11.254 3 12.813v1C3 12.254 4.27 11 5.85 11h51.3c1.58 0 2.85 1.254 2.85 2.813v-1C60 11.254 58.73 10 57.15 10z" style="fill:#fff;opacity:.1"/></svg>