<svg xmlns="http://www.w3.org/2000/svg" width="64" height="64"><rect width="56" height="56" x="4" y="5" rx="2.8" ry="2.8" style="opacity:.2"/><rect width="56" height="56" x="4" y="4" rx="2.8" ry="2.8" style="fill:#4f4f4f"/><path d="M6.8 4C5.25 4 4 5.25 4 6.8v1C4 6.25 5.25 5 6.8 5h50.4A2.796 2.796 0 0 1 60 7.8v-1C60 5.25 58.75 4 57.199 4z" style="opacity:.1;fill:#fff"/><path d="M8 21h48v36H8z" style="opacity:.2"/><path d="M8 20h48v36H8z" style="fill:#ff8e20"/><circle cx="52" cy="13" r="3" style="opacity:.2"/><circle cx="52" cy="12" r="3" style="fill:#ed333b"/><path d="M14.5 43.5v7h7m28-7v7h-7m7-16v-7h-7m-28 7v-7h7" style="opacity:.2;fill:none;stroke:#000;stroke-width:3;stroke-linecap:round"/><path d="M14.5 42.5v7h7m28-7v7h-7m7-16v-7h-7m-28 7v-7h7" style="fill:none;stroke:#fff;stroke-width:3;stroke-linecap:round"/><rect width="16" height="3" x="24" y="12" rx="1.4" ry="1.4" style="opacity:.2"/><rect width="16" height="3" x="24" y="11" rx="1.4" ry="1.4" style="fill:#e4e4e4"/></svg>