<svg xmlns="http://www.w3.org/2000/svg" xmlns:xlink="http://www.w3.org/1999/xlink" width="64" height="64"><defs><filter id="d" width="1.07" height="1.082" x="-.035" y="-.041" style="color-interpolation-filters:sRGB"><feGaussianBlur stdDeviation=".528"/></filter><filter id="c" width="1.125" height="1.14" x="-.062" y="-.07" style="color-interpolation-filters:sRGB"><feGaussianBlur stdDeviation="1.415"/></filter><radialGradient xlink:href="#a" id="b" cx="63.959" cy="67.794" r="28" fx="63.959" fy="67.794" gradientTransform="matrix(0 -2.28673 2.27697 0 -90.406 210.216)" gradientUnits="userSpaceOnUse"/><linearGradient id="a"><stop offset="0" style="stop-color:#131313;stop-opacity:1"/><stop offset="1" style="stop-color:#414141;stop-opacity:1"/></linearGradient></defs><path d="M23.29 56.643c-9.406-1.46-16.418-7.406-18.704-15.863-.818-3.024-.775-7.708.1-11.006C7.574 18.9 17.515 10.114 29.91 7.477c3.183-.677 9.478-.625 12.408.103 9.323 2.316 15.235 7.85 17.218 16.117.742 3.093.58 7.77-.382 10.982-1.452 4.852-3.742 8.606-7.584 12.432-7.504 7.475-18.232 11.091-28.279 9.532" style="fill:url(#b)"/><path d="M23.29 56.643c-9.406-1.46-16.418-7.406-18.704-15.863-.818-3.024-.775-7.708.1-11.006C7.574 18.9 17.515 10.114 29.91 7.477c3.183-.677 9.478-.625 12.408.103 9.323 2.316 15.235 7.85 17.218 16.117.742 3.093.58 7.77-.382 10.982-1.452 4.852-3.742 8.606-7.584 12.432-7.504 7.475-18.232 11.091-28.279 9.532z" style="fill:none;stroke:#000;stroke-opacity:1;stroke-width:.2;stroke-dasharray:none;filter:url(#c)"/><path d="m50.834 15.281-13.859 3.18a7.4 7.4 179.927 0 1-3.29.004L26 16.723v2.568a2.12 2.12 128.537 0 1-1.645 2.065l-8.259 1.895A2.7 2.7 128.537 0 0 14 25.883v3.549L29.032 26c.539-.123.971-.678 1.104-1.213.26-1.048 1.04-2.533 3.364-2.787a3.5 3.5 0 0 1 2.715 1.296c.347.428.949.758 1.488.636l13.522-3.046c.816-.184 1.342-.999 1.11-1.803a22 22 0 0 0-1.501-3.802m2.328 8.803L49.6 24.9c-1.157.266-2.228 1.438-2.522 2.588-1.237 4.835-3.883 7.162-8.344 9.096-5.352 2.32-14.941 4.022-22.633 5.653-1.161.247-2.101 1.42-2.101 2.607v3.533c3.119-.72 6.977-1.43 10.965-2.247.572-.117 1.035.26 1.035.844v.068a1.954 1.954 45 0 0 1.954 1.954h4.092A1.954 1.954 135 0 0 34 47.042v-1.95c0-.583.457-1.18 1.017-1.347 7.645-2.269 18.68-7.637 18.145-19.661M27 30.209l-10.901 2.445A2.69 2.69 128.679 0 0 14 35.276v3.67l10.901-2.448A2.69 2.69 128.675 0 0 27 33.877Z" style="fill:#ff4b4b;stroke:none"/><path d="m50.834 15.281-13.859 3.18a7.4 7.4 179.927 0 1-3.29.004L26 16.723v2.568a2.12 2.12 128.537 0 1-1.645 2.065l-8.259 1.895A2.7 2.7 128.537 0 0 14 25.883v3.549L29.032 26c.539-.123.971-.678 1.104-1.213.26-1.048 1.04-2.533 3.364-2.787a3.5 3.5 0 0 1 2.715 1.296c.347.428.949.758 1.488.636l13.522-3.046c.816-.184 1.342-.999 1.11-1.803a22 22 0 0 0-1.501-3.802zm2.328 8.803L49.6 24.9c-1.157.266-2.228 1.438-2.522 2.588-1.237 4.835-3.883 7.162-8.344 9.096-5.352 2.32-14.941 4.022-22.633 5.653-1.161.247-2.101 1.42-2.101 2.607v3.533c3.119-.72 6.977-1.43 10.965-2.247.572-.117 1.035.26 1.035.844v.068a1.954 1.954 45 0 0 1.954 1.954h4.092A1.954 1.954 135 0 0 34 47.042v-1.95c0-.583.457-1.18 1.017-1.347 7.645-2.269 18.68-7.637 18.145-19.661ZM27 30.209l-10.901 2.445A2.69 2.69 128.679 0 0 14 35.276v3.67l10.901-2.448A2.69 2.69 128.675 0 0 27 33.877Z" style="fill:none;stroke:red;stroke-opacity:1;stroke-width:.2;stroke-dasharray:none;filter:url(#d)"/></svg>