<svg xmlns="http://www.w3.org/2000/svg" width="64" height="64"><circle cx="32" cy="33" r="29" style="opacity:.2"/><circle cx="32" cy="32" r="29" style="fill:#3f3f3f"/><path d="M31 10.035A23 23 0 0 0 9.05 32h10A13 13 0 0 1 31 20.043Zm2 .016v10A13 13 0 0 1 44.957 32h10.008A23 23 0 0 0 33 10.05M9.035 34A23 23 0 0 0 31 55.95v-10A13 13 0 0 1 19.043 34Zm35.914 0A13 13 0 0 1 33 45.957v10.008A23 23 0 0 0 54.95 34Z" style="opacity:.2"/><path d="M31 9.035A23 23 0 0 0 9.05 31h10A13 13 0 0 1 31 19.043Zm2 .016v10A13 13 0 0 1 44.957 31h10.008A23 23 0 0 0 33 9.05M9.035 33A23 23 0 0 0 31 54.95v-10A13 13 0 0 1 19.043 33Zm35.914 0A13 13 0 0 1 33 44.957v10.008A23 23 0 0 0 54.95 33Z" style="fill:#39b44a"/><path d="M49 23s-.472-.009-.965.213C47.543 23.434 47 24.2 47 25h1c0-1 1-1 1-1s.967 0 .967.8c0 .317-.094.494-.272.694-.177.2-.461.4-.795.625-.9.65-1.9 1.539-1.9 2.281v.6h4v-1h-3.031c.98-1.136 3.031-2 3.031-3.2 0-.8-.543-1.366-1.035-1.587C49.472 22.99 49 23 49 23m-28 6v8h2v-2h.629c.84-.065 1.51-.004 1.996-.25q.742-.37 1.059-.977c.21-.41.316-1.814.316-2.277q0-1.164-.777-1.824-.769-.672-2.45-.672Zm8 0v8h2v-3h2v3h2v-8h-2v3h-2v-3Zm8 0v8h2.047q1.875 0 2.91-1.02Q43 34.95 43 32.922q0-1.29-.465-2.152a3.06 3.06 0 0 0-1.297-1.32Q40.405 29 39.27 29Zm-14 2h.893Q25 31 25 31.98q0 .538-.352.784-.341.236-.931.236H23Zm16 0h.57q.698 0 1.065.482.366.474.365 1.498Q40.998 35 39.455 35H39Z" style="opacity:.2"/><path d="M21 28v8h2v-2h.629c.84-.065 1.51-.004 1.996-.25q.742-.37 1.059-.977c.21-.41.316-1.814.316-2.277q0-1.164-.777-1.824-.769-.672-2.45-.672zm2 2h.893Q25 30 25 30.98q0 .538-.352.784-.341.236-.931.236H23zm6-2v8h2v-3h2v3h2v-8h-2v3h-2v-3Zm8 0v8h2.047q1.875 0 2.91-1.02Q43 33.95 43 31.922q0-1.29-.465-2.152a3.06 3.06 0 0 0-1.297-1.32Q40.405 28 39.27 28zm2 2h.57q.698 0 1.065.482.366.474.365 1.498Q40.998 34 39.455 34H39z" style="fill:#fff"/><path d="M49 22s-.473-.008-.965.213C47.543 22.435 47 23.2 47 24h1c0-1 1-1 1-1s.966 0 .966.8c0 .317-.093.494-.27.694s-.463.4-.796.626c-.9.649-1.9 1.538-1.9 2.28v.6h4v-1h-3.032c.98-1.136 3.032-2 3.032-3.2 0-.8-.543-1.365-1.035-1.587C49.472 21.992 49 22 49 22" style="fill:#fff;fill-rule:evenodd"/><path d="M32 3A29 29 0 0 0 3 32a29 29 0 0 0 .018.488A29 29 0 0 1 32 4a29 29 0 0 1 28.975 28.494A29 29 0 0 0 61 32 29 29 0 0 0 32 3" style="opacity:.1;fill:#fff"/><path d="M31 9.035A23 23 0 0 0 9.05 31h.087A23 23 0 0 1 31 10.035zm2 .016v1A23 23 0 0 1 54.871 31h.094A23 23 0 0 0 33 9.05M9.035 33a23 23 0 0 0 .096 1h9.912A13 13 0 0 0 31 45.95v-1A13 13 0 0 1 19.043 33zm35.914 0A13 13 0 0 1 33 44.957v1A13 13 0 0 0 44.95 34h9.907a23 23 0 0 0 .092-1z" style="opacity:.2;fill:#fff"/></svg>