<svg xmlns="http://www.w3.org/2000/svg" width="64" height="64"><path d="M4 56v2c0 1.662 1.338 3 3 3h50c1.662 0 3-1.338 3-3v-2c0 1.662-1.338 3-3 3H7c-1.662 0-3-1.338-3-3" style="opacity:.2"/><rect width="56" height="56" x="4" y="4" rx="3" ry="3" style="fill:#4f4f4f"/><path d="M7 4C5.338 4 4 5.338 4 7v1c0-1.662 1.338-3 3-3h50c1.662 0 3 1.338 3 3V7c0-1.662-1.338-3-3-3z" style="opacity:.1;fill:#fff"/><path d="M19.4 10c-1.043 0-1.4 3.4-1.4 3.4s-2.885.633-4 1.6c-.788.684-1.6 2-1.6 2H8.2c0 1.4 2.8 5 2.8 5l-1 1 1 1.6s-.179.969 0 1.4c.253.61.935.744 1 1.4-1.4 1.4-2 4.6-2 4.6l2 2 .4 1.8c.42 1.885 4.2 8.2 4.2 8.2S11 40 4 37.328V57c0 1.662 1.338 3 3 3h50c.762 0 1.448-.29 1.977-.756L47 55v-1l-5-6h-1s-3.217-5.054-3.4-8c-.148-2.375 1.4-7 1.4-7 8.4-1.4 14-7 14-7s-4 1.6-11 3c9.8-4.2 14-9 14-9s-7.6 3-16 3c8.4-4.2 16-5 16-5s-7.2-1.4-17 0c5.6-1.4 15-3 15-3s-15-5-34.6-5m-.793 22.97c.282-.016.549-.009.793.03 3.03.483 5.562 1.39 5.6 4.2.038 2.76-1.4 4.2-4.2 5.6-.834.418-2.8 0-2.8 0-1.546-4.353-4-8.4-4-8.4s2.638-1.31 4.607-1.43" style="opacity:.2"/><path d="M19.4 9c-1.043 0-1.4 3.4-1.4 3.4s-2.885.633-4 1.6c-.788.684-1.6 2-1.6 2H8.2c0 1.4 2.8 5 2.8 5l-1 1 1 1.6s-.179.969 0 1.4c.253.61.935.743 1 1.4-1.4 1.4-2 4.6-2 4.6l2 2 .4 1.8c.419 1.884 4.2 8.2 4.2 8.2S11 39 4 36.329V57.2C4 58.751 5.249 60 6.8 60h50.4a2.78 2.78 0 0 0 2.472-1.51L47 54v-1l-5-6h-1s-3.217-5.054-3.4-8c-.148-2.375 1.4-7 1.4-7 8.4-1.4 14-7 14-7s-4 1.6-11 3c9.8-4.2 14-9 14-9s-7.6 3-16 3c8.4-4.2 16-5 16-5s-7.2-1.4-17 0c5.6-1.4 15-3 15-3S39 9 19.4 9m0 23c3.03.483 5.562 1.392 5.6 4.2.038 2.76-1.4 4.2-4.2 5.6-.835.417-2.8 0-2.8 0-1.546-4.354-4-8.4-4-8.4s3.445-1.712 5.4-1.4" style="fill:#fff"/></svg>