<svg xmlns="http://www.w3.org/2000/svg" width="64" height="64"><rect width="56" height="56" x="4" y="5" rx="8" ry="8" style="opacity:.2"/><rect width="56" height="56" x="4" y="4" rx="8" style="fill:#18a497"/><path d="M12 4c-4.432 0-8 3.568-8 8v1c0-4.432 3.568-8 8-8h40c4.432 0 8 3.568 8 8v-1c0-4.432-3.568-8-8-8z" style="fill:#fff;opacity:.2"/><path d="M35.5 13C23.111 13 12 23.153 12 37v23h7V37c0-10.153 7.889-17 16.5-17 4.132 0 9.5 4.696 9.5 10 0 2.906-1.342 5.354-3.316 7.184C39.709 39.014 37.084 40 35.5 40c-2.685 0-3.5-1.667-3.5-3.5 0-1.692 1.47-3.5 3.5-3.5a3.5 3.5 0 1 0 0-7C29.53 26 25 30.945 25 36.5 25 41.667 29.185 47 35.5 47c3.917 0 7.79-1.763 10.941-4.684C49.592 39.396 52 35.094 52 30c0-9.489-7.895-17-16.5-17" style="opacity:.2"/><path d="M35.5 12C23.111 12 12 22.153 12 36v24h7V36c0-10.153 7.889-17 16.5-17 4.132 0 9.5 4.696 9.5 10 0 2.906-1.342 5.354-3.316 7.184C39.709 38.014 37.084 39 35.5 39c-2.685 0-3.5-1.667-3.5-3.5 0-1.692 1.47-3.5 3.5-3.5a3.5 3.5 0 1 0 0-7C29.53 25 25 29.945 25 35.5 25 40.667 29.185 46 35.5 46c3.917 0 7.79-1.763 10.941-4.684C49.592 38.396 52 34.094 52 29c0-9.489-7.895-17-16.5-17" style="fill:#fff"/></svg>