<svg xmlns="http://www.w3.org/2000/svg" xmlns:xlink="http://www.w3.org/1999/xlink" width="64" height="64"><defs><filter id="d" width="1.195" height="1.337" x="-.098" y="-.168" style="color-interpolation-filters:sRGB"><feGaussianBlur stdDeviation=".94"/></filter><filter id="f" width="1.459" height="1.25" x="-.23" y="-.125" style="color-interpolation-filters:sRGB"><feGaussianBlur stdDeviation=".732"/></filter><filter id="g" width="1.253" height="1.209" x="-.126" y="-.105" style="color-interpolation-filters:sRGB"><feGaussianBlur stdDeviation="2.266"/></filter><radialGradient xlink:href="#a" id="c" cx="31.016" cy="50.17" r="18" fx="31.016" fy="50.17" gradientTransform="rotate(-45 -39.994 194.325)scale(3.41284 2.96797)" gradientUnits="userSpaceOnUse"/><radialGradient xlink:href="#b" id="e" cx="20.728" cy="73.244" r="22.056" fx="20.728" fy="73.244" gradientTransform="rotate(-45 -125.637 187.85)scale(3.33241 2.9148)" gradientUnits="userSpaceOnUse"/><linearGradient id="b"><stop offset="0" style="stop-color:#00c994;stop-opacity:1"/><stop offset="1" style="stop-color:#57e857;stop-opacity:1"/></linearGradient><linearGradient id="a"><stop offset="0" style="stop-color:#00a565;stop-opacity:1"/><stop offset="1" style="stop-color:#57e857;stop-opacity:1"/></linearGradient></defs><path d="M32 5.176c-9.717.017-17.666 7.828-17.96 17.649v32.758a2.54 2.54 45 0 0 2.539 2.54h1.157a2.54 2.54 135 0 0 2.54-2.54v-24.26H43.75v24.26a2.54 2.54 45 0 0 2.54 2.54h1.157a2.54 2.54 135 0 0 2.54-2.54V22.825C49.691 12.995 41.726 5.179 32 5.176" style="fill:url(#c)" transform="translate(-.299 .35)"/><path d="M32 11.915c-7.625 0-12.45 5.576-12.038 12.614.045.768.77 1.386 1.54 1.386h20.999c.77 0 1.494-.618 1.538-1.386.407-7.1-4.467-12.614-12.039-12.614" style="fill:#fff" transform="translate(-.298 -.825)"/><path d="M26.702 16.089a3 3 0 0 0-3 3 3 3 0 0 0 3 3 3 3 0 0 0 3-3 3 3 0 0 0-3-3m10 0a3 3 0 0 0-3 3 3 3 0 0 0 3 3 3 3 0 0 0 3-3 3 3 0 0 0-3-3" style="fill:#3f3f3f"/><path d="M31.702 11.09c-7.625 0-12.45 5.575-12.04 12.612.046.769.772 1.387 1.542 1.387h20.998c.77 0 1.495-.618 1.539-1.387.407-7.1-4.467-12.613-12.039-12.613zm-5 5a3 3 0 0 1 3 3 3 3 0 0 1-3 3 3 3 0 0 1-3-3 3 3 0 0 1 3-3zm10 0a3 3 0 0 1 3 3 3 3 0 0 1-3 3 3 3 0 0 1-3-3 3 3 0 0 1 3-3z" style="mix-blend-mode:normal;fill:none;fill-opacity:1;stroke:#00ff2f;stroke-width:.2;stroke-dasharray:none;stroke-opacity:1;filter:url(#d)"/><path d="M17.725 28.264a7.63 7.63 0 0 0-7.631 7.631v16.314a7.63 7.63 0 0 0 7.63 7.63h28.551a7.63 7.63 0 0 0 7.631-7.63V35.895a7.63 7.63 0 0 0-7.63-7.63z" style="fill:url(#e);stroke-width:.3;stroke-linecap:square;paint-order:stroke fill markers" transform="translate(0 -3.134)"/><path d="M32 37.627a4.044 4.044 0 0 1 4.043 4.045 4.04 4.04 0 0 1-1.765 3.33.46.46 0 0 0-.189.432l1.114 5.993a.886.886 129.733 0 1-.871 1.049h-4.664a.886.886 50.267 0 1-.871-1.049l1.114-5.993a.46.46 0 0 0-.189-.432 4.04 4.04 0 0 1-1.765-3.33A4.044 4.044 0 0 1 32 37.627" style="opacity:.486411;fill:#000;fill-opacity:1;stroke:none;stroke-width:.2;stroke-linecap:square;stroke-dasharray:none;stroke-opacity:1;paint-order:stroke fill markers" transform="translate(0 -4.133)"/><path d="M32 37.627a4.044 4.044 0 0 1 4.043 4.045 4.04 4.04 0 0 1-1.765 3.33.46.46 0 0 0-.189.432l1.114 5.993a.886.886 129.733 0 1-.871 1.049h-4.664a.886.886 50.267 0 1-.871-1.049l1.114-5.993a.46.46 0 0 0-.189-.432 4.04 4.04 0 0 1-1.765-3.33A4.044 4.044 0 0 1 32 37.627Z" style="opacity:1;fill:none;fill-opacity:1;stroke:#004f14;stroke-width:.2;stroke-linecap:square;stroke-dasharray:none;stroke-opacity:1;paint-order:stroke fill markers;filter:url(#f)" transform="translate(0 -4.133)"/><g style="filter:url(#g)"><path d="M31.701 5.526c-9.717.017-17.666 7.829-17.96 17.649v3.09a7.6 7.6 0 0 1 3.984-1.133h28.55c1.228 0 2.385.297 3.413.812v-2.769c-.295-9.83-8.26-17.646-17.987-17.649Zm-17.96 50.047v.362a2.54 2.54 0 0 0 2.538 2.539h1.159c1.131 0 2.08-.745 2.408-1.768h-2.121a7.6 7.6 0 0 1-3.985-1.133zm35.947.32a7.6 7.6 0 0 1-3.413.813h-2.693a2.53 2.53 0 0 0 2.408 1.768h1.158a2.54 2.54 0 0 0 2.54-2.54z" style="baseline-shift:baseline;display:inline;overflow:visible;fill:none;stroke:#000;stroke-width:.2;stroke-dasharray:none;stroke-opacity:1;enable-background:accumulate;stop-color:#000"/><path d="M17.725 25.132a7.63 7.63 0 0 0-7.631 7.63v16.313a7.63 7.63 0 0 0 7.63 7.631h28.551a7.63 7.63 0 0 0 7.631-7.63V32.762a7.63 7.63 0 0 0-7.63-7.631z" style="baseline-shift:baseline;display:inline;overflow:visible;fill:none;stroke:#000;stroke-width:.2;stroke-linecap:square;stroke-dasharray:none;stroke-opacity:1;paint-order:stroke fill markers;enable-background:accumulate;stop-color:#000"/></g></svg>