<svg xmlns="http://www.w3.org/2000/svg" width="64" height="64"><path d="M30.6 5a5.587 5.587 0 0 0-5.6 5.6v2.625a21 21 0 0 0-6.623 3.826l-2.275-1.313a5.59 5.59 0 0 0-7.65 2.051L7.05 20.211a5.59 5.59 0 0 0 2.05 7.65l2.266 1.309A21 21 0 0 0 11 33a21 21 0 0 0 .367 3.83l-2.265 1.31a5.59 5.59 0 0 0-2.051 7.65l1.4 2.422a5.59 5.59 0 0 0 7.65 2.05l2.26-1.304A21 21 0 0 0 25 52.77v2.63c0 3.103 2.497 5.6 5.6 5.6h2.8c3.103 0 5.6-2.497 5.6-5.6v-2.64a21 21 0 0 0 6.623-3.81l2.275 1.312a5.59 5.59 0 0 0 7.65-2.051l1.401-2.422a5.59 5.59 0 0 0-2.05-7.65l-2.266-1.309A21 21 0 0 0 53 33a21 21 0 0 0-.367-3.83l2.265-1.309a5.59 5.59 0 0 0 2.051-7.65l-1.4-2.422a5.59 5.59 0 0 0-7.65-2.05l-2.26 1.304A21 21 0 0 0 39 13.229v-2.63A5.587 5.587 0 0 0 33.4 5Z" style="opacity:.2"/><path d="M30.6 4A5.587 5.587 0 0 0 25 9.6v2.625a21 21 0 0 0-6.623 3.826l-2.275-1.313a5.59 5.59 0 0 0-7.65 2.051L7.05 19.211a5.59 5.59 0 0 0 2.05 7.65l2.266 1.309A21 21 0 0 0 11 32a21 21 0 0 0 .367 3.83l-2.265 1.31a5.59 5.59 0 0 0-2.051 7.65l1.4 2.422a5.59 5.59 0 0 0 7.65 2.05l2.26-1.304A21 21 0 0 0 25 51.77v2.63c0 3.103 2.497 5.6 5.6 5.6h2.8c3.103 0 5.6-2.497 5.6-5.6v-2.64a21 21 0 0 0 6.623-3.81l2.275 1.312a5.59 5.59 0 0 0 7.65-2.051l1.401-2.422a5.59 5.59 0 0 0-2.05-7.65l-2.266-1.309A21 21 0 0 0 53 32a21 21 0 0 0-.367-3.83l2.265-1.309a5.59 5.59 0 0 0 2.051-7.65l-1.4-2.422a5.59 5.59 0 0 0-7.65-2.05l-2.26 1.304A21 21 0 0 0 39 12.229v-2.63A5.587 5.587 0 0 0 33.4 4Z" style="fill:#e4e4e4"/><path d="M32 19a14 14 0 0 0-14 14v14.918l.186.14.175-.101A21 21 0 0 0 24 51.379v-6.91A14 14 0 0 0 32 47a14 14 0 0 0 14-14 14 14 0 0 0-14-14m0 6a8 8 0 0 1 8 8 8 8 0 0 1-8 8 8 8 0 0 1-8-8 8 8 0 0 1 8-8" style="opacity:.1"/><path d="M32 18a14 14 0 0 0-14 14v16.166l.361-.209A21 21 0 0 0 24 51.379v-7.91A14 14 0 0 0 32 46a14 14 0 0 0 14-14 14 14 0 0 0-14-14m0 6a8 8 0 0 1 8 8 8 8 0 0 1-8 8 8 8 0 0 1-8-8 8 8 0 0 1 8-8" style="fill:#2eb1b4"/><path d="M30.6 4A5.587 5.587 0 0 0 25 9.6v1C25 7.497 27.497 5 30.6 5h2.8c3.103 0 5.6 2.497 5.6 5.6v-1C39 6.497 36.503 4 33.4 4zM25 12.225a21 21 0 0 0-6.623 3.826l-2.275-1.313a5.59 5.59 0 0 0-7.65 2.051L7.05 19.211a5.6 5.6 0 0 0-.727 3.32 5.6 5.6 0 0 1 .727-2.32l1.4-2.422a5.59 5.59 0 0 1 7.65-2.05l2.276 1.312A21 21 0 0 1 25 13.225zm14 .004v1a21 21 0 0 1 6.639 3.814l2.26-1.305a5.59 5.59 0 0 1 7.65 2.051l1.4 2.422c.425.736.658 1.528.727 2.32a5.6 5.6 0 0 0-.727-3.32l-1.4-2.422a5.59 5.59 0 0 0-7.65-2.05l-2.26 1.304A21 21 0 0 0 39 12.229m13.768 16.863-.135.078a21 21 0 0 1 .342 3.371A21 21 0 0 0 53 32a21 21 0 0 0-.232-2.908m-41.528.004A21 21 0 0 0 11 32a21 21 0 0 0 .025.459 21 21 0 0 1 .342-3.29zm41.52 6.808a21 21 0 0 1-.127.926l2.265 1.309a5.59 5.59 0 0 1 2.778 4.33 5.58 5.58 0 0 0-2.778-5.33zm-41.528.004-2.13 1.23a5.58 5.58 0 0 0-2.778 5.33 5.59 5.59 0 0 1 2.778-4.33l2.265-1.308a21 21 0 0 1-.135-.922" style="fill:#fff;opacity:.2"/></svg>