<svg xmlns="http://www.w3.org/2000/svg" width="64" height="64"><defs><filter id="a" width="1.16" height="1.16" x="-.08" y="-.08" style="color-interpolation-filters:sRGB"><feGaussianBlur stdDeviation="1.789"/></filter></defs><path d="M26 15v11H15v11h11v11h11V37h11V26H37V15Z" style="fill:#fff1e8" transform="translate(.5 .5)"/><path d="M26 4v11h11V4Z" style="fill:#ff004d" transform="translate(.5 .5)"/><path d="M15 15v11h11V15Z" style="fill:#ffa300" transform="translate(.5 .5)"/><path d="M4 26v11h11V26Z" style="fill:#f9da3c;fill-opacity:1" transform="translate(.5 .5)"/><path d="M15 37v11h11V37Z" style="fill:#2ed856;fill-opacity:1" transform="translate(.5 .5)"/><path d="M26 48v11h11V48Z" style="fill:#29adff" transform="translate(.5 .5)"/><path d="M37 37v11h11V37Z" style="fill:#83769c" transform="translate(.5 .5)"/><path d="M48 26v11h11V26Z" style="fill:#ff77a8" transform="translate(.5 .5)"/><path d="M37 15v11h11V15Z" style="fill:#fca" transform="translate(.5 .5)"/><g style="mix-blend-mode:normal;stroke:#000;stroke-width:.2;stroke-dasharray:none;stroke-opacity:1;filter:url(#a)" transform="translate(-61.51 -1.868)"><path d="M88.01 6.368v11h11v-11Zm-11 11v11h11v-11zm-11 11v11h11v-11zm11 11v11h11v-11zm11 11v11h11v-11zm11.002-11.002v11h11v-11z" style="fill:none;stroke:#000;stroke-width:.2;stroke-dasharray:none;stroke-opacity:1"/><path d="M110.01 28.368v11h11v-11zm-11-11v11h11v-11z" style="fill:none;stroke:#000;stroke-width:.2;stroke-dasharray:none;stroke-opacity:1"/></g></svg>