<svg xmlns="http://www.w3.org/2000/svg" width="64" height="64"><circle cx="32" cy="33" r="28" style="opacity:.2"/><circle cx="32" cy="32" r="28" style="fill:#4454ba"/><path d="M32 4A28 28 0 0 0 4 32a28 28 0 0 0 .022.586A28 28 0 0 1 32 5a28 28 0 0 1 27.979 27.414L60 32A28 28 0 0 0 32 4" style="opacity:.1;fill:#fff"/><path d="M19 30c-6.833 0-11.714 2.485-14.824 4.844A28 28 0 0 0 32 60a28 28 0 0 0 27.916-26.346C56.625 36.147 51.63 39 46 39c-13 0-13-9-27-9" style="fill:#7dd728"/><path d="M19 30c-6.833 0-11.714 2.485-14.824 4.844a28 28 0 0 0 .138.902C7.43 33.416 12.262 31 19 31c14 0 14 9 27 9 5.568 0 10.509-2.79 13.8-5.264a28 28 0 0 0 .116-1.082C56.625 36.147 51.63 39 46 39c-13 0-13-9-27-9" style="opacity:.2;fill:#fff"/><circle cx="45" cy="18" r="5" style="opacity:.2"/><circle cx="45" cy="17" r="5" style="fill:#fff"/></svg>