<svg xmlns="http://www.w3.org/2000/svg" width="64" height="64"><rect width="56" height="56" x="4" y="5" ry="11.2" style="opacity:.2"/><rect width="56" height="56" x="4" y="4" ry="11.2" style="fill:#4f4f4f"/><path d="M29.625 16C38.25 16 44 17.875 44 28.5 44 40.542 37.625 41 29 41v9h-8V16zM29 24v9c5.75 0 7-.25 7-4.5S34.75 24 29 24" style="opacity:.1"/><path d="M29.625 15C38.25 15 44 16.875 44 27.5 44 39.542 37.625 40 29 40v9h-8V15zM29 23v9c5.75 0 7-.25 7-4.5S34.75 23 29 23" style="fill:#232323"/><path d="M15.2 4C8.993 4 4 8.994 4 15.2v1C4 9.993 8.994 5 15.2 5h33.6C55.007 5 60 9.994 60 16.2v-1C60 8.993 55.006 4 48.8 4z" style="fill:#fff;opacity:.1"/></svg>