<svg xmlns="http://www.w3.org/2000/svg" width="64" height="64"><defs><filter id="b" width="1.091" height="1.091" x="-.045" y="-.045" style="color-interpolation-filters:sRGB"><feGaussianBlur stdDeviation=".795"/></filter><filter id="a" width="1.068" height="1.068" x="-.034" y="-.034" style="color-interpolation-filters:sRGB"><feGaussianBlur stdDeviation=".795"/></filter><filter id="c" width="1.112" height="1.112" x="-.056" y="-.056" style="color-interpolation-filters:sRGB"><feGaussianBlur stdDeviation=".795"/></filter><filter id="d" width="1.06" height="1.06" x="-.03" y="-.03" style="color-interpolation-filters:sRGB"><feGaussianBlur stdDeviation=".263"/></filter></defs><path d="M18 5v3h-7v4H7v7H4v28h3v7h4v4h7v3h28v-3h8v-4h3v-7h3V19h-3v-7h-3V8h-8V5z" style="opacity:.6501726;filter:url(#a)"/><path d="M18 4v3h-7v4H7v7H4v28h3v7h4v4h7v3h28v-3h8v-4h3v-7h3V18h-3v-7h-3V7h-8V4z" style="fill:#3f3f3f"/><path d="M18 8v4h-7v7H7v28h4v7h7v4h28v-4h8v-7h3V19h-3v-7h-8V8z" style="opacity:.2"/><path d="M18 7v4h-7v7H7v28h4v7h7v4h28v-4h8v-7h3V18h-3v-7h-8V7z" style="fill:#e4e4e4"/><path d="M18 12v4h-3v3h-4v28h4v3h3v4h28v-4h3v-3h4V19h-4v-3h-3v-4H22z" style="opacity:.6501726;filter:url(#b)"/><path d="M22 11h20v42H22z" style="fill:#30f693;fill-opacity:1"/><path d="M18 53h4V11h-4v4h-3v3h-4v28h4v3h3z" style="fill:#00baff;fill-opacity:1"/><path d="M46 53h-4V11h4v4h3v3h4v28h-4v3h-3z" style="fill:#f6303b;fill-opacity:1"/><path d="M22 16v3h-4v3h-3v22h3v3h4v3h20v-3h4v-3h3V22h-3v-3h-4v-3z" style="opacity:.6501726;filter:url(#c)"/><path d="M22 15v3h-4v3h-3v22h3v3h4v3h20v-3h4v-3h3V21h-3v-3h-4v-3z" style="fill:#3f3f3f"/><path d="M25 23v3h-3v7h3v3h7v-3h3v-7h-3v-3zm14 17v4h4v-4z" style="opacity:.36477167;filter:url(#d)"/><path d="M25 22v3h-3v7h3v3h7v-3h3v-7h-3v-3zm14 17v4h4v-4z" style="fill:#fff"/><path d="M18 7v1h28V7zm-7 4v1h7v-1zm35 0v1h8v-1zM7 18v1h4v-1zm47 0v1h3v-1z" style="fill:#fff;opacity:.2"/></svg>