<svg xmlns="http://www.w3.org/2000/svg" width="64" height="64"><rect width="56" height="56" x="4" y="5" rx="5.6" ry="5.6" style="opacity:.2"/><rect width="56" height="56" x="4" y="4" rx="5.6" ry="5.6" style="fill:#3f3f3f"/><path d="M38.008 11c-.445.895-.731-.07-1.329.263-.193.808-.944-.264-1.207.766-.264.476-.886.623-.753 1.379-.516.325-.347 1.413-1.035 1.33-.385.711-.623 1.665-.991 2.28-.498.377-.386 1.129-.789 1.63-.332.593-.195 1.277-.433 1.899-.402-1.117-.773.134-.918.556-.758.681-.637 1.937-1 2.86-.313.231-.418 1.661-.675 1.171-.621-.288-.753.856-1.073 1.257-.364.429-.459 1.003-.378 1.832-.207.655-.876 1.048-.787 1.758.108.503-.098 1.363-.462 1.512-.853-.14-.289 1.319-.983 1.51-.453.282-.007 1.458.309.752.221-.403.518-.933.558-1.469.566-.035.866-.987 1.024-1.545.028-.894.389-1.652.813-2.464-.133-.794.37-1.42.556-2.166.509-.999-.063.635.104 1.018.158.808-.16 1.827.385 2.488.729-.409-.145-1.277.1-2.072.008-.771-.212-1.449.346-1.843.149-.784.413-1.08.644-1.73.219-.738.301-1.512.572-2.238.678-.532.365-.733 1.15-.567.464-.98.175-2.11.945-2.924.586-.218.262-1.111.65-1.556.395-.354.256-1.466.806-1.347.53-.34.445-1.191.986-1.37-.156-.801.292-1.078.676-1.606.113-.7.996.328 1.102-.604.246-.065.956.845 1.114-.137.416.298.924 1.709 1.343.935.153-.5.353.415.531.572-.463.606-.958 1.416-1.34 2.103.487-.84.154-1.349.024-1.649.609-1.16-.695-.469-.571.362-.167.508-.539 2.092.348 1.7-.789 1.589-2.291 2.705-2.924 4.396-.698 1.373-1.513 2.68-2.209 4.055-.992 1.37-1.976 2.746-2.611 4.327-.539 1.059-1.39 1.937-1.808 3.07-.608-.67-.142-1.452-.14-2.069-.381-.446-.233-1.438-.163-2.046-.842-.305-.488 1.175-.478 1.705.025.908-.164 1.995.41 2.785.416.533-.539.528-.531-.453-.295-1.225-1.083-.566-.363.33.144.687.81 1.322.255 1.936-.388.87-.494-.944-.655-1.345-.872-.308-.097 1.299-.003 1.875.263.322-.341 1.285-.548 1.063-.377-.42.237-2.052-.569-1.303-.039.661-.885.904-.612 1.877-.172.932.931.861.462.017.029-1.362.055-.771.631-.022-.318 1.057-1.168 1.902-1.746 2.831-.2 1.143-.601.046-.592-.477.135-.314.369-.62.334-.984 1.018.424.471-.414.293-.802.257-.568-.699-1.099-.489-.38-.167.532-.247 1.151-.446 1.735-.509.721.233 1.471.361 2.151-.364 1.175-.608 2.401-.934 3.572-.592.872.908.738.493.027.256-.975.432-1.991.745-2.963.245-1.16.904-2.144 1.643-3.04.688-1.2 1.221-2.484 2.038-3.609.779-1.682 1.478-3.424 2.64-4.89.481-.943.867-1.943 1.461-2.823.649.731.809-.48 1.578-.445 1.081-.445 2.169-.876 3.221-1.386.216.308-.387.922-.883 1.192-.428.285-1.118.622-1.765.905-.564.137-1.929 1.287-.838 1.055.795-.55 1.744-1.049 2.637-1.297.919.002-.588.357-.733.709-.227.716-1.178.099-1.771.624-1.028.371-2.253.715-2.886 1.659.436.515 1.191-.751 1.964-.825.511-.123 1.614-.871 1.737-.348-.536.118-.604.92-1.067.904-.492-.383-1.217.351-1.787.522-.763-.033-1.682 1.587-.605.835.646-.345 1.501-.786 2.068-.999.265.695-.714.698-1.249.991-.647.254-1.455.615-1.627 1.281-.893-.054-1.171 1.67-.404.826.474-.587 1.487-.61 2.041-1.149-.837-.324-.694-.06.288-.582.384-.257 1.654-.582.622-.148-.262.438-.762.693-1.011 1.198-.397.583-1.069.269-1.755.743-.193.711-1.048.892-1.255 1.689.432.539-.87.769-1.09 1.311-.437 1.152.881-.23 1.318-.509 1.07-.23-.011-.603.442-1.092.45-.495 1.455-.471 1.687-1.044-1.323.015-.624-.069.277-.304.36-.77-.362 1.292.553.38.353-.195.231-.815.497-.986.328-.374.637-.797.982-1.14 1.052-.159.34-.988.404-1.484.554-.29.937-.659 1.278-1.036.263-.508.567-.7 1.198-.976-.285-.682 1.076-.477 1.015-1.181-1.164-.436.15-.318.118-1.085.751-.151.543-.84.489-.986.447-.322 1.487-.476 1.337-1.19-.938-.255 1.276-.702.097-1.02-.289-.024 1.487-.71.376-.943-.815-.114.775-.446 1.026-.73-.072-.62.687-.551.979-1.073-.89-.326.833-.881-.056-1.325-1.086-.058-.445-.631.273-.648.923-.188-.265-.859-.721-.566-.132.635-1.088.077-1.658.547-1.078.501-1.133.191-.101-.289.635-.086 1.456-.73 1.909-.393.197-.415 1.112-.51 1.098-1.112-.678-.261.796-.092.85-.55-.612-.605 1.593-.23.754-.977a27 27 0 0 0-3.357-.747c-.558-.037-.685-.462-.994-.935-.306-.868-.719.463-.939-.138-.269-.321-.501-.721-.868-.925m-.717 1.302c-.734.619-.549 1.815-.781 2.694.023.689-.291 1.549.142 2.121.764-.357.972-.619.815-1.55.093-.831.117-1.679.34-2.482-.794-.307-.61 1.251-.739 1.838-.066.407-.141 2.336-.148 1.066.011-1.197.243-2.45.586-3.546l-.051-.073Zm3.343.994c.701.445 1.792.346 2.624.682-.763 0-.757.752-1.375.801-.856.353-1.99.363-2.554 1.197.62.611-1.226.631-1.29 1.452.242.144-1.294 1.452.235 1.135-.404-.668 1.034-.769 1.56-1.071.964-.662.597.53 1.496.609.365.11-1.45.792-.341 1.031-.869.142-.774.805-1.328 1.055-.65.081-1.357.944-.342 1.06-.692.104-.928.806-.554 1.011a7.53 7.53 0 0 0-4.658 2.024c.462.628 1.189-.645 1.844-.733a6.6 6.6 0 0 1 2.5-.805c.779.449-.312.577-.701.884-.578.445-1.312.385-1.955.835-1.062.456-2.15.852-3.196 1.342 1.238-1.522 1.966-3.356 2.991-5.01.599-1.451 1.543-2.696 2.558-3.873.636-.737.704-1.942 1.803-2.073.755-.327 1.741-.442 2.36-.726-.092-.72-1.119-.014-1.582-.03-.557.197-1.672.741-.814-.198.074-.402.707-.328.719-.599m-4.267.739c-.728.261-.544 1.377-.615 2.035-.272.585.28 1.91.601.827-.344-.541-.066-1.395-.048-2.045.039-.25.4-.635.062-.817m-1.026.819c-.699.361-.425 1.436-.687 2.108-.006 1.014-.422 2.091-.043 3.062.741-.043.074-1.374.399-1.938.014-1.064.389-2.143.43-3.164Zm6.083.566c.523.348-.616.525-1.001.587-1.098.539-.581-.16.186-.347.272-.079.543-.162.815-.24m-7.033.661c-.405.744-.257 1.748-.457 2.589-.508.783.403 1.899.447.665-.087-1.001.361-2.17.26-3.197l-.073-.052Zm7.21.516c.093-.04.047.142 0 0m-8.091.682c-.735.369-.444 1.512-.558 2.235.084.836-.221 1.914.41 2.552.78-.522-.253-.998.051-1.859.002-.924-.035-1.876.253-2.758l-.055-.106Zm6.526.889c-1.352.229-2.689.838-3.694 1.757-.196 1.112 1.027-.462 1.614-.55.698-.496 1.638-.53 2.339-.906l.009-.119-.269-.182Zm-8.35 1.359c.051.047-.048.036 0 0m6.83.518c-1.097.359-2.413.693-3.065 1.713.487.961.633-.511 1.37-.582.588-.412 1.461-.404 1.968-.861.035-.148-.116-.315-.273-.27m-5.831.11c-.532.61-.214 1.632-.322 2.418-.027.545-.033 2.333.626 1.434-.389-1.184-.013-2.553-.146-3.774l-.071-.055Zm5.242 1.233c-.996.136-1.944.672-2.686 1.302.438.818 1.093-.493 1.806-.603.254-.183 1.673-.164.88-.699m-6.636.539c-.567.496-.244 1.532-.391 2.259.063.603-.363 2.044.483 1.872-.11-1.258.015-2.666.104-3.973a.23.23 0 0 0-.196-.157Zm-.749 1.808c-.535.79-.369 1.892-.375 2.807-.227 1.036 1.257 1.088.568.34-.285-.979-.08-2.046.105-3.014a.23.23 0 0 0-.298-.133m7.238.859c.143-.009-.009.025 0 0m-8.189 1.246c-.689.534-.31 1.645-.389 2.423.56 1.207.595-.228.448-.875-.216-.532.429-1.29-.059-1.548m-4.823 11.121c.019-.003-.018.017-.012.01zM50.12 23.646c-.926.13-1.789.535-2.57.986-1.679.41-3.217 1.159-4.881 1.654-3.1 1.197-6.216 2.6-8.641 4.932-2.033 1.651-4.407 3.023-5.83 5.289a81 81 0 0 0-3.215 3.82c-1.074.973-1.445 2.444-2.103 3.692-.15 1.062.694-.067.747-.535.576-1.122.984-2.357 1.995-3.182 1.237-1.71 2.791-3.162 3.987-4.902 1.959-1.926 4.328-3.363 6.356-5.212 1.736-1.282 3.724-2.159 5.693-3.016 2.089.388 4.22.528 6.322.825.868-.61-.941-.535-1.416-.642-1.363-.158-2.727-.309-4.087-.5 1.481-.49 2.937-1.07 4.395-1.555 1.022-.128 1.737-.866 2.733-1.074.285-.053 1.277-.214.515-.58m3.606.341c-1.055.074-2.167-.009-3.185.245.059.691 1.246.182 1.817.273.773-.106 1.264-.156 1.546.463.774-.118 1.095.288.171.488-.626.302-1.54.085-1.943.646-.479.054-.898.653-1.3.576-.41-.527-1.349-.147-1.957-.344-.799.012-1.6-.237-2.381-.215.418 1.125-1.051.458-1.788.482-1.296.258.605.642 1.225.605.879.002 1.808.377 2.653.149-.739-.738-.496-.249.582-.318 1.103-.247.12.774 1.244.659-.757.151-1.722.125-2.267.623-.64.126-1.436.674-1.984.22-2.062-.264-4.151-.2-6.217-.365-.195.871.722 1.007 1.859.884 1.29.003 2.596.105 3.847.427-1.035.381.858.693-.725.8-.489.236-1.837.174-1.501.908.178.379-1.162.476-1.572.249-2.087-.131-4.185-.037-6.267-.22-.456.783 1.318.47 1.92.561 1.165.042 2.699.012 3.628.119-.524.412-1.49.069-2.199.166-.93-.032-1.872-.052-2.785-.241-.984.221.597.741 1.278.624 1.253.119 2.513.072 3.768.112 1.04-.426.67.122-.301.168-1.48.202-3.003-.223-4.498-.302-.645-.008-1.327-.254-1.955-.078-.194.256-1.76.551-.443.681.67-.033.955-.503 1.778-.202 1.158.108 2.312.253 3.469.363.955.51-.418.679-.918.464a39 39 0 0 0-4.276-.252c-.494.831 1.254.342 1.849.506.425.077 2.229.068 1.635.225-.861.151-.87.705-1.958.267-1.365-.122-2.718-.327-4.093-.149-.425.896 1.286.184 1.864.443 1.126-.002 1.419.127.147.334-.76.362-1.711-.188-2.393.256.478.518 1.283.332 1.905.339.502-.065 2.06.563 1.74-.225-1.046-.123.624-.201.593-.568.315.12 1.868.16 1.212.345-1.041.082-1.13.942-.034.738 1.153-.16.591.219-.187.446-.581.301-1.683.068-1.789.759-.668.293-1.296.766-2.021.407-.961.062-2.008-.114-2.909.212.065.821-1.181.382-1.802.599-.811.275-1.347 1.17-.045.869.485-.45 1.524-.271 2.229-.354.624-.112 1.036-.48 1.812-.362.925-.133-.603.559-.945.606-.144 1.014-.874-.059-1.332.237-.571.564-1.587.086-2.077.69.969.485-.859.564-1.315.672-.996-.184-1.22 1.29-.282.631 1.084-.624-.396.48.564.341.44-.008 2.143.006 1.214-.515-1.4.078.28-.347.826-.293.75.056 1.279-.339 2.073-.234 1.152-.408-.114.489-.517.608-.896.156-.401.961.328.827 1.216.035.207.09-.458.117-1.596.058-3.196-.005-4.752-.314-.658.657.995.591 1.503.694.374.097 2.242.032 1.096.158-1.129.133-2.248.4-3.367.556-.521.868 1.107.204 1.617.191 1.898-.359 3.854-.49 5.728-.9.818.241 1.162-.823.169-.843-.377-.155-1.434.01-1.417-.186.426-.278 1.322-.659 1.073-1.263-.277-.308.614-.447.8-.846-.165-.612.462-.698.982-1.087.298-.513 1.19-.586 1.724-.933.646-.12.889-.579 1.561-.65.509-.259 1.363-.389 1.507-1.003-1.027-.414-.744-.363.226-.645 1.06-.259-.473-.892.787-.898.424-.26 1.8-.22 1.308-.915.853-.24 1.883-.255 2.593-.773-.731-.616-.23-.455.509-.691.755-.002.467-.828.711-.887.762-.294 1.754-.273 2.361-.823-.197-.59 1.067-.283 1.44-.742-.609-.683.2-.39.673-.904.911-.33 2.008-.158 2.847-.644-.141-.694-1.284-.44-.132-.855.711-.569 1.639-.543 2.501-.698.138-.599 1.002-.399 1.251-1.023.47-.407-.35-.789-.784-.727-.12-.085.1-.692-.672-.541m-4.28.733c-.464.816 1.271.346 1.848.478.565.296 1.966-.206.777-.415-.873-.087-1.75-.029-2.625-.063m5.484.103c-.057.102-.037-.006 0 0m-7.794.523c-.493.817 1.247.408 1.791.551.819-.064 1.719.249 2.474-.022-.188-.639-1.211-.276-1.761-.416-.835-.035-1.671-.035-2.504-.113m-4.702 2.232c-.564.781 1.247.349 1.802.544 1.09.139 2.2.17 3.276.382.897-.478-.744-.622-1.145-.63-1.311-.116-2.614-.32-3.933-.296m-4.222 1.786c-.527.656.926.4.516 1.053 1.475.103 2.953-.145 4.426.083.332-.245 1.932-.588.552-.751-1.617.214-3.244.181-4.828-.237-.23-.015-.445-.123-.666-.148m.626 1.302c-.789.012-1.578-.012-2.366.022-.29.83 1.492.295 2.173.441 1.188.063 2.381.16 3.563.268.868-.644-1.009-.5-1.496-.588-.625-.047-1.249-.098-1.874-.143m-4.947 5.385c-1.11.044-2.219.118-3.327.188-.788.078-2.001 1.043-.468.973.188-.608 1.21-.224 1.764-.401.589-.127 1.619.305 1.883-.293.449.092.755-.487.148-.467m-3.145.26c.038-.036.035.049 0 0M22.87 11.792c-.026.741-.972.231-1.473.338-.513.101-1.483-.452-1.53.24.289.346 1.304.963 1.08 1.146-.826.137-.139.98-.091 1.412.12.531-.309 1.124-.072 1.766-.234.851-.589-.439-.92-.668-1.074-.357.17 1.114-.29 1.529.097.645.767 1.216.175 1.754-.07.808.03 1.47-.669 1.826-.156 1.074.248 2.144.25 3.177.154.932.823 1.8.604 2.726-.532.129-.897 1.018-.793 1.656-.071.531-.572 1.055-.531 1.846-.247.767.453 1.103.536 1.81.349.621-.018 1.171.076 1.887-.122.578.564 1.313.342 1.655.263 1.151.234 2.407.974 3.33.664-.12.965.029 1.018.766-.385.727.922.985.145 1.149-.392-.653-.656.505-.808.811-.065.673-.622 1.451-.246 2.066.61-.193.287-1.023.576-1.512.448-.816.099.759.122 1.171-.339.871.685.939.845.198.211-.807.187-1.644.191-2.476.432-.528.213-1.241.402-1.896.058-.737.068-1.491.691-2.006.453-.841.888-1.683 1.48-2.444-.164-.484.031-.773.166-1.358-.056-.624-.399-.879.389-1.301.836-.674-.614-.523.051-1.265.525-.716-.476-.786-.206-1.127.565-.72-.356-.952.373-1.542.037-.71-.972-.159-.218-1.128-.471-.399-.425-.409-.177-1.115-.021-.522-.131-.917.169-1.455-.348-.421-.29-.741.067-1.463.235-.43-.05-.788.339-1.148.254-.486.174-.939.533-1.408.657-.684-.758-.624-.147-1.016.723-.546.221-.968.406-1.52-.193-.489-.568-.239-.322-.951-.911.082-.328-.621-.046-1.281.54-.542-.593-.624-.207-1.139.005-.577-.978-.313-.508-1.054-.752-.328.109-.417-.161-1.079-.884.389.157-.699-.706-.603-.474-.098-1.187.347-1.503.083-.073-.165-.112-.464-.376-.387m-2.087.763c.44.133 1.28-.133 1.45.236-.644.401.781.902-.416.613.003.464 1.365 1.545.381.765-.627-.323-.658-.986-1.227-1.461Zm3.706.615c.329.086.049.867-.167 1.192-.001 1.237.785-.378.669.153-.67.503-.083 1.198-.543 1.453-.472.389-.156 1.427-.407.457-.121-.773-.361-1.721-.187-2.425.021-.5.34-.457.635-.83m-3.478.846c.889.132 1.3 1.108 1.73 1.837.068.675-.513-.98-1.034-.996-.332.126-.573-.627-.696-.841m1.977.827c.594.414.468 1.311.652 2.041.248 2.865-.287 5.721-.228 8.586.126 1.017-.304-.615-.5-.885-.332-1.502-1.553-2.602-2.403-3.834-.584.197-.3-.432-.351-.907.463-.245.496-.89.235-1.443-.032-.178-.039-.998.049-.897.487.018 1.179.726.874-.314-.225-.75-.184-1.665.569-.778.669.33 1.043 1.735.16.859-1.046-.491-.165 1.075.072 1.521.471.701.378 1.232-.265.319-.649-1.146-1.134-.17-.55.657.328.637.888 1.18 1.074 1.869-.513-.56-.975-1.192-1.515-1.71-.57.575.71 1.263 1.034 1.859.645.276.549 2.111 1.056 1.007-.055-.828-.724-.94-.183-1.431-.076-.49-.927-1.452-.872-1.55.421.271 1.162 1.776 1.436.877-.178-.106-.914-.72-.406-1.233-.243-.638-.697-1.356.031-.379-.072.722.959 1.015.565-.034-.405-.594-1.228-1.041-.444-1.585-.15-.783-.546-1.17.116-1.523.16-.387-.886-1.207-.206-1.092m2.532 1.775c-.103.806-1.051.885-1.362 1.585-.027-.261.027-.392.253-.526-.148-.602.662-.879 1.109-1.059m-.397 1.238c.908-.057.346.641.821.952-.303.495.089.8-.548 1.358.231.648.97.223.196 1.189-.385-.516-1.229.618-1.483 1.054.32.823 1.38-1.201 1.107-.532.09.589-1.372.736-1.076 1.533.853-.06-.956 1.673.386 1.03.436-1.021-.174.268.425.452-.267-.234-1.139 1.008-1.077.554-.08-1.665.165-3.318.249-4.977.501.007.379-.95 1.165-.984.119-.809-1.704.357-.508-.56 1.069-.306.634-1.248-.18-.435-.554.46.497-.732.523-.634m-.073 2.396c-1.101-.082-.893 2.029-.618.881.103.081 1.186-.693.618-.881m-4.917.738c.572.821 1.243 1.587 1.786 2.436-.857-1.074-.896.154-.023.657.69.587.856 1.503 1.266 2.252.576.07.266 1.68.116 1.855-1.113-.637-1.792-1.76-2.613-2.677-.478.772-.722-.829-.887-1.314.057-.467-.211-1.423.207-.47.594 1.177 1.486 2.16 2.46 3.027.38.761.785-.154.207-.475a71 71 0 0 1-2.586-3.892c-.533.245-.519.369-.521-.357.48.374.699-.679.588-1.042m.327 4.915c.747 1.139 1.708 2.175 2.855 2.879-.021.799-.07 1.434-.759.594-.827-.59-1.181-1.578-1.685-2.42-.724.556-.428-.415-.392-.981Zm4.088.609c.258.311-1.144 1.779.107 1.282.325-.561-.039.533-.411.778-.002 1.282.852-.462.689.23-.181.521-1.127 1.48-.288 1.588-.229.301-.921.885-.876 1.263-.576.922.477.444.878.133-.15-.508-.431-.595.514-1.004-.105.599-.372 1.228-.929 1.531.819.719-1.286.863-.227 1.444.636-.629.775.466.409.345-1.242-.211-.679.786-.18.427-.321.569.271.75-.482 1.465-.221.246-.526 1.406-.657.921.389-1.802.08-3.652.427-5.456.133-1.466.327-2.95.4-4.445.847.295.116-.492.626-.502m-4.144 1.169c.483.753 1.175 1.349 1.639 2.105.539.317 1.365.523 1.047 1.351-.178 1.213-.277 2.488-.237 3.677-1.143-1.015-2.406-1.957-3.094-3.365-.555.14-.826-.671-.612-1.262.262-.864.661.569.884.92.716.977 1.697 1.78 2.261 2.85 1.005.249-.12-.936-.172-1.288-.762-1.157-1.766-2.222-2.462-3.398-.175-.476.256-.691.177-1.163-.16-.649.58.434.569-.427m-.282.832c-.577.591.655 1.373 1.115 1.855.698.339 1.316 1.554 1.737 1.016-.173-.784-1.249-.942-1.684-1.59-.52-.326-.737-.897-1.168-1.281m-.177 4.872c.594.573 1.3 1.105 1.635 1.877 1.292.461-.772-1.714.059-.91.41.399 1.022.85 1.175 1.217-.094.683-.05 1.736-.863.84-.798-.497-1.224-1.406-1.799-2.098-.596.552.566 1.415.941 1.976.317.584 1.405.68 1.438 1.276-.027.389-.318 1.605-.737 1.235-.35-.68-1.676-1.528-.866-.277.349.556-.491.082-.372-.349-.254-.722-.406-1.489-.504-2.274.512.914 1.218 1.737 1.596 2.71.834.024-.019-1.054-.232-1.421-.477-.505-.716-1.63-1.372-1.646-.103-.57-.499-.973-.352-1.498.47.03.296-.413.253-.658M12.69 41.38c-1.3-.02-2.75.17-3.66 1.17.09.94.76-.26 1.27-.33.93-.42 2-.39 3-.34-.79.04-1.56.32-2.37.36-.53.81 1.04.28 1.54.23.4-.26 1.91.19 1.2-.47-.73-.23.66.01.9-.04 1.48-.15 3-.08 4.4.51.4.1 1.64.74 1.37-.06-1.75-.56-3.57-1.26-5.44-.91-.74.01-1.48-.09-2.21-.12m4.27 1c-1.66.17-3.25.79-4.86 1.23-.78.69.36.46.81.23 1.46-.37 2.95-.95 4.43-1.04.12-.24-.18-.4-.38-.42m-7.26.48c-.83.56.1 1.5.7 1.82.63.48.91-.37.13-.48-.6-.27-.75-.8-.62-1.25l-.03-.04Zm-.96.24c-.27.54.38 1.18.74 1.63 1.93 1.72 3.33 3.97 5.3 5.66 2.55 2.03 5.76 2.86 8.73 4.06 2.02.7 4.19.45 6.29.55.96-.1 1.88-.39 2.84-.44.92-.65.09-.78-.52-1.08-.21-.77-1.1-.36-.42.25-.61-.11-1.08-.61-1.52-1.01-.68.37.49 1.08.97 1.31.9.27-.31.24-.63.41-.86.18-1.75.05-2.62.06.59.03 1.79-.72.55-.64-1.02.07-.68.88-1.71.62-.65.07-1.29-.15-1.94-.17.67-.57 1.66-.63 2.34-1.08-.49-.6-1.47.22-2.13.4-.52.61-.9.7-1.7.25-2.79-1.12-5.79-1.91-8.18-3.82-1.21-.52-.04-.76-.74-1.2-.38-.3-1.15-1.81-1.07-.68.1.29-.72-.76-.94-1-.86-1.22-2.07-2.15-2.99-3.31-.27-.23-.16-.86-.65-.77m10.13.16c-1.55.36-3.09.98-4.41 1.89-.86.89 1.41 1.05.35.31 1.24-.81 2.83-1.48 4.17-1.73.26-.11.13-.46-.11-.47m5.03.44c-.71.54.01.44.44.57 1 .51 1.74 1.41 2.73 1.96 1.04.8 2.05 1.62 2.99 2.54.7.65 1.53 1.24 1.73 2.24.41.78.61 1.71 1.21 2.37.77 0-.02-.7-.16-1.08-.51-1.05-.71-2.31-1.63-3.11-1.2-1.07-2.35-2.25-3.69-3.17-.9-.64-1.77-1.33-2.64-2.02-.31-.15-.62-.3-.98-.3m-12.41.41c-.66.59.15 1.89.96 1.92.43-.55-.9-.67-.75-1.39 0-.2.16-.54-.21-.53m1.52 1.14c-.6.38 0 1.29.44 1.57 1.12-.04-.24-.55-.23-1.11.02-.19.11-.47-.21-.46m5.91.14c-1.04.39-2.15.91-2.85 1.81-.79-.03-.21 1.04.25 1.22.31.52 1.42.38.58-.15-.7-.32-.69-.67-.18-1.11.66-.71 1.7-.95 2.43-1.49l-.01-.12Zm1.81.7c-.9.38-1.84.91-2.44 1.69.62.44 1.28-.83 2.04-1 .23-.15 1.04-.39.4-.69m3.73.14c-1.39.44-2.84.98-3.96 1.95.33.76 1.36-.68 2.11-.76.66-.36 1.45-.5 2.08-.86l.02-.12Zm-10.04.02c-.6.38.08 1.12.37 1.5.6.55 1.12-.25.23-.41-.33-.31-.28-.89-.6-1.09m12.51 1.1c-1.34.77-2.97 1.08-4.13 2.09.41.59 1.38-.58 2.14-.68.72-.41 1.75-.54 2.24-1.2l-.03-.08Zm-11.88.78c-.64.6.34 1.4.77 1.86.42.61 1.14-.05.33-.32-.6-.38-.74-1.12-1.1-1.54m3.09.13c-.6.47.41.99.57 1.5.55.54 1.03-.17.26-.4-.2-.41-.52-.85-.83-1.1m10.43.46c-.88.39-1.88.77-2.52 1.51.33.94.86-.51 1.55-.56.25-.24 1.64-.48.97-.95m-11.55.3c-.59.47.3 1.47.68 1.93.37.7 1.41.35.5-.19-.7-.41-.74-1.31-1.18-1.74m3.09.16c-.58.44.38 1.07.8 1.32.35.41 1.04.29 1.14.35.2.48 1.11 1.24 1.38.55-.46-.23-1.03-.51-1.05-1.1-.44.43-.85.01-1.45-.34-.41-.14-.48-.6-.82-.78m9.96 1.24c-.62.15-1.43.49-1.54 1.17.48.06 1.39-.66 1.76-1Zm-10.53.26c-.87.15.14 2.06.21.96-.24-.32.25-.85-.21-.96m4.21.02c-.33.35.39.9.68 1.28-.53.1-1.53.43-1.64 1.03.51.04 1.51-.41 1.78-.89.3.11.81-.32-.08-.73-.18-.27-.34-.7-.74-.69m1.6.41c-.44.49.72.94 1.04 1.38.97.18-.1-.69-.41-1.01-.19-.14-.39-.34-.63-.37m5.52.26c-.95.55.84.51 0 0m-9.12.06c-.82.05-1.08 1.85-.27.84.07-.33 1-.58.27-.84m5.18.12c-.59.58.63 1.21 1.09 1.2.6.19 1.05 1.5 1.84 1-.22-.43-.92-.62-1.2-1.13-.36-.42-.85-.18-1.25-.6-.22-.11-.23-.39-.48-.47" style="opacity:.2"/><path d="M12.69 40.38c-1.3-.02-2.75.17-3.66 1.17.09.94.76-.26 1.27-.33.93-.42 2-.39 3-.34-.79.04-1.56.32-2.37.36-.53.81 1.04.28 1.54.23.4-.26 1.91.19 1.2-.47-.73-.23.66.01.9-.04 1.48-.15 3-.08 4.4.51.4.1 1.64.74 1.37-.06-1.75-.56-3.57-1.26-5.44-.91-.74.01-1.48-.09-2.21-.12m4.27 1c-1.66.17-3.25.79-4.86 1.23-.78.69.36.46.81.23 1.46-.37 2.95-.95 4.43-1.04.12-.24-.18-.4-.38-.42m-7.26.48c-.83.56.1 1.5.7 1.82.63.48.91-.37.13-.48-.6-.27-.75-.8-.62-1.25l-.03-.04Zm-.96.24c-.27.54.38 1.18.74 1.63 1.93 1.72 3.33 3.97 5.3 5.66 2.55 2.03 5.76 2.86 8.73 4.06 2.02.7 4.19.45 6.29.55.96-.1 1.88-.39 2.84-.44.92-.65.09-.78-.52-1.08-.21-.77-1.1-.36-.42.25-.61-.11-1.08-.61-1.52-1.01-.68.37.49 1.08.97 1.31.9.27-.31.24-.63.41-.86.18-1.75.05-2.62.06.59.03 1.79-.72.55-.64-1.02.07-.68.88-1.71.62-.65.07-1.29-.15-1.94-.17.67-.57 1.66-.63 2.34-1.08-.49-.6-1.47.22-2.13.4-.52.61-.9.7-1.7.25-2.79-1.12-5.79-1.91-8.18-3.82-1.21-.52-.04-.76-.74-1.2-.38-.3-1.15-1.81-1.07-.68.1.29-.72-.76-.94-1-.86-1.22-2.07-2.15-2.99-3.31-.27-.23-.16-.86-.65-.77m10.13.16c-1.55.36-3.09.98-4.41 1.89-.86.89 1.41 1.05.35.31 1.24-.81 2.83-1.48 4.17-1.73.26-.11.13-.46-.11-.47m5.03.44c-.71.54.01.44.44.57 1 .51 1.74 1.41 2.73 1.96 1.04.8 2.05 1.62 2.99 2.54.7.65 1.53 1.24 1.73 2.24.41.78.61 1.71 1.21 2.37.77 0-.02-.7-.16-1.08-.51-1.05-.71-2.31-1.63-3.11-1.2-1.07-2.35-2.25-3.69-3.17-.9-.64-1.77-1.33-2.64-2.02-.31-.15-.62-.3-.98-.3m-12.41.41c-.66.59.15 1.89.96 1.92.43-.55-.9-.67-.75-1.39 0-.2.16-.54-.21-.53m1.52 1.14c-.6.38 0 1.29.44 1.57 1.12-.04-.24-.55-.23-1.11.02-.19.11-.47-.21-.46m5.91.14c-1.04.39-2.15.91-2.85 1.81-.79-.03-.21 1.04.25 1.22.31.52 1.42.38.58-.15-.7-.32-.69-.67-.18-1.11.66-.71 1.7-.95 2.43-1.49l-.01-.12Zm1.81.7c-.9.38-1.84.91-2.44 1.69.62.44 1.28-.83 2.04-1 .23-.15 1.04-.39.4-.69m3.73.14c-1.39.44-2.84.98-3.96 1.95.33.76 1.36-.68 2.11-.76.66-.36 1.45-.5 2.08-.86l.02-.12Zm-10.04.02c-.6.38.08 1.12.37 1.5.6.55 1.12-.25.23-.41-.33-.31-.28-.89-.6-1.09m12.51 1.1c-1.34.77-2.97 1.08-4.13 2.09.41.59 1.38-.58 2.14-.68.72-.41 1.75-.54 2.24-1.2l-.03-.08Zm-11.88.78c-.64.6.34 1.4.77 1.86.42.61 1.14-.05.33-.32-.6-.38-.74-1.12-1.1-1.54m3.09.13c-.6.47.41.99.57 1.5.55.54 1.03-.17.26-.4-.2-.41-.52-.85-.83-1.1m10.43.46c-.88.39-1.88.77-2.52 1.51.33.94.86-.51 1.55-.56.25-.24 1.64-.48.97-.95m-11.55.3c-.59.47.3 1.47.68 1.93.37.7 1.41.35.5-.19-.7-.41-.74-1.31-1.18-1.74m3.09.16c-.58.44.38 1.07.8 1.32.35.41 1.04.29 1.14.35.2.48 1.11 1.24 1.38.55-.46-.23-1.03-.51-1.05-1.1-.44.43-.85.01-1.45-.34-.41-.14-.48-.6-.82-.78m9.96 1.24c-.62.15-1.43.49-1.54 1.17.48.06 1.39-.66 1.76-1Zm-10.53.26c-.87.15.14 2.06.21.96-.24-.32.25-.85-.21-.96m4.21.02c-.33.35.39.9.68 1.28-.53.1-1.53.43-1.64 1.03.51.04 1.51-.41 1.78-.89.3.11.81-.32-.08-.73-.18-.27-.34-.7-.74-.69m1.6.41c-.44.49.72.94 1.04 1.38.97.18-.1-.69-.41-1.01-.19-.14-.39-.34-.63-.37m5.52.26c-.95.55.84.51 0 0m-9.12.06c-.82.05-1.08 1.85-.27.84.07-.33 1-.58.27-.84m5.18.12c-.59.58.63 1.21 1.09 1.2.6.19 1.05 1.5 1.84 1-.22-.43-.92-.62-1.2-1.13-.36-.42-.85-.18-1.25-.6-.22-.11-.23-.39-.48-.47" style="fill:#87e133"/><path d="M22.87 10.792c-.026.741-.972.231-1.473.338-.513.101-1.483-.452-1.53.24.289.346 1.304.963 1.08 1.146-.826.137-.139.98-.091 1.412.12.531-.309 1.124-.072 1.766-.234.851-.589-.439-.92-.668-1.074-.357.17 1.114-.29 1.529.097.645.767 1.216.175 1.754-.07.808.03 1.47-.669 1.826-.156 1.074.248 2.144.25 3.177.154.932.823 1.8.604 2.726-.532.129-.897 1.018-.793 1.656-.071.531-.572 1.055-.531 1.846-.247.767.453 1.103.536 1.81.349.621-.018 1.171.076 1.887-.122.578.564 1.313.342 1.655.263 1.151.234 2.407.974 3.33.664-.12.965.029 1.018.766-.385.727.922.985.145 1.149-.392-.653-.656.505-.808.811-.065.673-.622 1.451-.246 2.066.61-.193.287-1.023.576-1.512.448-.816.099.759.122 1.171-.339.871.685.939.845.198.211-.807.187-1.644.191-2.476.432-.528.213-1.241.402-1.896.058-.737.068-1.491.691-2.006.453-.841.888-1.683 1.48-2.444-.164-.484.031-.773.166-1.358-.056-.624-.399-.879.389-1.301.836-.674-.614-.523.051-1.265.525-.716-.476-.786-.206-1.127.565-.72-.356-.952.373-1.542.037-.71-.972-.159-.218-1.128-.471-.399-.425-.409-.177-1.115-.021-.522-.131-.917.169-1.455-.348-.421-.29-.741.067-1.463.235-.43-.05-.788.339-1.148.254-.486.174-.939.533-1.408.657-.684-.758-.624-.147-1.016.723-.546.221-.968.406-1.52-.193-.489-.568-.239-.322-.951-.911.082-.328-.621-.046-1.281.54-.542-.593-.624-.207-1.139.005-.577-.978-.313-.508-1.054-.752-.328.109-.417-.161-1.079-.884.389.157-.699-.706-.603-.474-.098-1.187.347-1.503.083-.073-.165-.112-.464-.376-.387m-2.087.763c.44.133 1.28-.133 1.45.236-.644.401.781.902-.416.613.003.464 1.365 1.545.381.765-.627-.323-.658-.986-1.227-1.461Zm3.706.615c.329.086.049.867-.167 1.192-.001 1.237.785-.378.669.153-.67.503-.083 1.198-.543 1.453-.472.389-.156 1.427-.407.457-.121-.773-.361-1.721-.187-2.425.021-.5.34-.457.635-.83m-3.478.846c.889.132 1.3 1.108 1.73 1.837.068.675-.513-.98-1.034-.996-.332.126-.573-.627-.696-.841m1.977.827c.594.414.468 1.311.652 2.041.248 2.865-.287 5.721-.228 8.586.126 1.017-.304-.615-.5-.885-.332-1.502-1.553-2.602-2.403-3.834-.584.197-.3-.432-.351-.907.463-.245.496-.89.235-1.443-.032-.178-.039-.998.049-.897.487.018 1.179.726.874-.314-.225-.75-.184-1.665.569-.778.669.33 1.043 1.735.16.859-1.046-.491-.165 1.075.072 1.521.471.701.378 1.232-.265.319-.649-1.146-1.134-.17-.55.657.328.637.888 1.18 1.074 1.869-.513-.56-.975-1.192-1.515-1.71-.57.575.71 1.263 1.034 1.859.645.276.549 2.111 1.056 1.007-.055-.828-.724-.94-.183-1.431-.076-.49-.927-1.452-.872-1.55.421.271 1.162 1.776 1.436.877-.178-.106-.914-.72-.406-1.233-.243-.638-.697-1.356.031-.379-.072.722.959 1.015.565-.034-.405-.594-1.228-1.041-.444-1.585-.15-.783-.546-1.17.116-1.523.16-.387-.886-1.207-.206-1.092m2.532 1.775c-.103.806-1.051.885-1.362 1.585-.027-.261.027-.392.253-.526-.148-.602.662-.879 1.109-1.059m-.397 1.238c.908-.057.346.641.821.952-.303.495.089.8-.548 1.358.231.648.97.223.196 1.189-.385-.516-1.229.618-1.483 1.054.32.823 1.38-1.201 1.107-.532.09.589-1.372.736-1.076 1.533.853-.06-.956 1.673.386 1.03.436-1.021-.174.268.425.452-.267-.234-1.139 1.008-1.077.554-.08-1.665.165-3.318.249-4.977.501.007.379-.95 1.165-.984.119-.809-1.704.357-.508-.56 1.069-.306.634-1.248-.18-.435-.554.46.497-.732.523-.634m-.073 2.396c-1.101-.082-.893 2.029-.618.881.103.081 1.186-.693.618-.881m-4.917.738c.572.821 1.243 1.587 1.786 2.436-.857-1.074-.896.154-.023.657.69.587.856 1.503 1.266 2.252.576.07.266 1.68.116 1.855-1.113-.637-1.792-1.76-2.613-2.677-.478.772-.722-.829-.887-1.314.057-.467-.211-1.423.207-.47.594 1.177 1.486 2.16 2.46 3.027.38.761.785-.154.207-.475a71 71 0 0 1-2.586-3.892c-.533.245-.519.369-.521-.357.48.374.699-.679.588-1.042m.327 4.915c.747 1.139 1.708 2.175 2.855 2.879-.021.799-.07 1.434-.759.594-.827-.59-1.181-1.578-1.685-2.42-.724.556-.428-.415-.392-.981Zm4.088.609c.258.311-1.144 1.779.107 1.282.325-.561-.039.533-.411.778-.002 1.282.852-.462.689.23-.181.521-1.127 1.48-.288 1.588-.229.301-.921.885-.876 1.263-.576.922.477.444.878.133-.15-.508-.431-.595.514-1.004-.105.599-.372 1.228-.929 1.531.819.719-1.286.863-.227 1.444.636-.629.775.466.409.345-1.242-.211-.679.786-.18.427-.321.569.271.75-.482 1.465-.221.246-.526 1.406-.657.921.389-1.802.08-3.652.427-5.456.133-1.466.327-2.95.4-4.445.847.295.116-.492.626-.502m-4.144 1.169c.483.753 1.175 1.349 1.639 2.105.539.317 1.365.523 1.047 1.351-.178 1.213-.277 2.488-.237 3.677-1.143-1.015-2.406-1.957-3.094-3.365-.555.14-.826-.671-.612-1.262.262-.864.661.569.884.92.716.977 1.697 1.78 2.261 2.85 1.005.249-.12-.936-.172-1.288-.762-1.157-1.766-2.222-2.462-3.398-.175-.476.256-.691.177-1.163-.16-.649.58.434.569-.427m-.282.832c-.577.591.655 1.373 1.115 1.855.698.339 1.316 1.554 1.737 1.016-.173-.784-1.249-.942-1.684-1.59-.52-.326-.737-.897-1.168-1.281m-.177 4.872c.594.573 1.3 1.105 1.635 1.877 1.292.461-.772-1.714.059-.91.41.399 1.022.85 1.175 1.217-.094.683-.05 1.736-.863.84-.798-.497-1.224-1.406-1.799-2.098-.596.552.566 1.415.941 1.976.317.584 1.405.68 1.438 1.276-.027.389-.318 1.605-.737 1.235-.35-.68-1.676-1.528-.866-.277.349.556-.491.082-.372-.349-.254-.722-.406-1.489-.504-2.274.512.914 1.218 1.737 1.596 2.71.834.024-.019-1.054-.232-1.421-.477-.505-.716-1.63-1.372-1.646-.103-.57-.499-.973-.352-1.498.47.03.296-.413.253-.658" style="fill:#fae84c"/><path d="M50.12 22.646c-.926.13-1.789.535-2.57.986-1.679.41-3.217 1.159-4.881 1.654-3.1 1.197-6.216 2.6-8.641 4.932-2.033 1.651-4.407 3.023-5.83 5.289a81 81 0 0 0-3.215 3.82c-1.074.973-1.445 2.444-2.103 3.692-.15 1.062.694-.067.747-.535.576-1.122.984-2.357 1.995-3.182 1.237-1.71 2.791-3.162 3.987-4.902 1.959-1.926 4.328-3.363 6.356-5.212 1.736-1.282 3.724-2.159 5.693-3.016 2.089.388 4.22.528 6.322.825.868-.61-.941-.535-1.416-.642-1.363-.158-2.727-.309-4.087-.5 1.481-.49 2.937-1.07 4.395-1.555 1.022-.128 1.737-.866 2.733-1.074.285-.053 1.277-.214.515-.58m3.606.341c-1.055.074-2.167-.009-3.185.245.059.691 1.246.182 1.817.273.773-.106 1.264-.156 1.546.463.774-.118 1.095.288.171.488-.626.302-1.54.085-1.943.646-.479.054-.898.653-1.3.576-.41-.527-1.349-.147-1.957-.344-.799.012-1.6-.237-2.381-.215.418 1.125-1.051.458-1.788.482-1.296.258.605.642 1.225.605.879.002 1.808.377 2.653.149-.739-.738-.496-.249.582-.318 1.103-.247.12.774 1.244.659-.757.151-1.722.125-2.267.623-.64.126-1.436.674-1.984.22-2.062-.264-4.151-.2-6.217-.365-.195.871.722 1.007 1.859.884 1.29.003 2.596.105 3.847.427-1.035.381.858.693-.725.8-.489.236-1.837.174-1.501.908.178.379-1.162.476-1.572.249-2.087-.131-4.185-.037-6.267-.22-.456.783 1.318.47 1.92.561 1.165.042 2.699.012 3.628.119-.524.412-1.49.069-2.199.166-.93-.032-1.872-.052-2.785-.241-.984.221.597.741 1.278.624 1.253.119 2.513.072 3.768.112 1.04-.426.67.122-.301.168-1.48.202-3.003-.223-4.498-.302-.645-.008-1.327-.254-1.955-.078-.194.256-1.76.551-.443.681.67-.033.955-.503 1.778-.202 1.158.108 2.312.253 3.469.363.955.51-.418.679-.918.464a39 39 0 0 0-4.276-.252c-.494.831 1.254.342 1.849.506.425.077 2.229.068 1.635.225-.861.151-.87.705-1.958.267-1.365-.122-2.718-.327-4.093-.149-.425.896 1.286.184 1.864.443 1.126-.002 1.419.127.147.334-.76.362-1.711-.188-2.393.256.478.518 1.283.332 1.905.339.502-.065 2.06.563 1.74-.225-1.046-.123.624-.201.593-.568.315.12 1.868.16 1.212.345-1.041.082-1.13.942-.034.738 1.153-.16.591.219-.187.446-.581.301-1.683.068-1.789.759-.668.293-1.296.766-2.021.407-.961.062-2.008-.114-2.909.212.065.821-1.181.382-1.802.599-.811.275-1.347 1.17-.045.869.485-.45 1.524-.271 2.229-.354.624-.112 1.036-.48 1.812-.362.925-.133-.603.559-.945.606-.144 1.014-.874-.059-1.332.237-.571.564-1.587.086-2.077.69.969.485-.859.564-1.315.672-.996-.184-1.22 1.29-.282.631 1.084-.624-.396.48.564.341.44-.008 2.143.006 1.214-.515-1.4.078.28-.347.826-.293.75.056 1.279-.339 2.073-.234 1.152-.408-.114.489-.517.608-.896.156-.401.961.328.827 1.216.035.207.09-.458.117-1.596.058-3.196-.005-4.752-.314-.658.657.995.591 1.503.694.374.097 2.242.032 1.096.158-1.129.133-2.248.4-3.367.556-.521.868 1.107.204 1.617.191 1.898-.359 3.854-.49 5.728-.9.818.241 1.162-.823.169-.843-.377-.155-1.434.01-1.417-.186.426-.278 1.322-.659 1.073-1.263-.277-.308.614-.447.8-.846-.165-.612.462-.698.982-1.087.298-.513 1.19-.586 1.724-.933.646-.12.889-.579 1.561-.65.509-.259 1.363-.389 1.507-1.003-1.027-.414-.744-.363.226-.645 1.06-.259-.473-.892.787-.898.424-.26 1.8-.22 1.308-.915.853-.24 1.883-.255 2.593-.773-.731-.616-.23-.455.509-.691.755-.002.467-.828.711-.887.762-.294 1.754-.273 2.361-.823-.197-.59 1.067-.283 1.44-.742-.609-.683.2-.39.673-.904.911-.33 2.008-.158 2.847-.644-.141-.694-1.284-.44-.132-.855.711-.569 1.639-.543 2.501-.698.138-.599 1.002-.399 1.251-1.023.47-.407-.35-.789-.784-.727-.12-.085.1-.692-.672-.541m-4.28.733c-.464.816 1.271.346 1.848.478.565.296 1.966-.206.777-.415-.873-.087-1.75-.029-2.625-.063m5.484.103c-.057.102-.037-.006 0 0m-7.794.523c-.493.817 1.247.408 1.791.551.819-.064 1.719.249 2.474-.022-.188-.639-1.211-.276-1.761-.416-.835-.035-1.671-.035-2.504-.113m-4.702 2.232c-.564.781 1.247.349 1.802.544 1.09.139 2.2.17 3.276.382.897-.478-.744-.622-1.145-.63-1.311-.116-2.614-.32-3.933-.296m-4.222 1.786c-.527.656.926.4.516 1.053 1.475.103 2.953-.145 4.426.083.332-.245 1.932-.588.552-.751-1.617.214-3.244.181-4.828-.237-.23-.015-.445-.123-.666-.148m.626 1.302c-.789.012-1.578-.012-2.366.022-.29.83 1.492.295 2.173.441 1.188.063 2.381.16 3.563.268.868-.644-1.009-.5-1.496-.588-.625-.047-1.249-.098-1.874-.143m-4.947 5.385c-1.11.044-2.219.118-3.327.188-.788.078-2.001 1.043-.468.973.188-.608 1.21-.224 1.764-.401.589-.127 1.619.305 1.883-.293.449.092.755-.487.148-.467m-3.145.26c.038-.036.035.049 0 0" style="fill:#ce5ac3"/><path d="M38.008 10c-.445.895-.731-.07-1.329.263-.193.808-.944-.264-1.207.766-.264.476-.886.623-.753 1.379-.516.325-.347 1.413-1.035 1.33-.385.711-.623 1.665-.991 2.28-.498.377-.386 1.129-.789 1.63-.332.593-.195 1.277-.433 1.899-.402-1.117-.773.134-.918.556-.758.681-.637 1.937-1 2.86-.313.231-.418 1.661-.675 1.171-.621-.288-.753.856-1.073 1.257-.364.429-.459 1.003-.378 1.832-.207.655-.876 1.048-.787 1.758.108.503-.098 1.363-.462 1.512-.853-.14-.289 1.319-.983 1.51-.453.282-.007 1.458.309.752.221-.403.518-.933.558-1.469.566-.035.866-.987 1.024-1.545.028-.894.389-1.652.813-2.464-.133-.794.37-1.42.556-2.166.509-.999-.063.635.104 1.018.158.808-.16 1.827.385 2.488.729-.409-.145-1.277.1-2.072.008-.771-.212-1.449.346-1.843.149-.784.413-1.08.644-1.73.219-.738.301-1.512.572-2.238.678-.532.365-.733 1.15-.567.464-.98.175-2.11.945-2.924.586-.218.262-1.111.65-1.556.395-.354.256-1.466.806-1.347.53-.34.445-1.191.986-1.37-.156-.801.292-1.078.676-1.606.113-.7.996.328 1.102-.604.246-.065.956.845 1.114-.137.416.298.924 1.709 1.343.935.153-.5.353.415.531.572-.463.606-.958 1.416-1.34 2.103.487-.84.154-1.349.024-1.649.609-1.16-.695-.469-.571.362-.167.508-.539 2.092.348 1.7-.789 1.589-2.291 2.705-2.924 4.396-.698 1.373-1.513 2.68-2.209 4.055-.992 1.37-1.976 2.746-2.611 4.327-.539 1.059-1.39 1.937-1.808 3.07-.608-.67-.142-1.452-.14-2.069-.381-.446-.233-1.438-.163-2.046-.842-.305-.488 1.175-.478 1.705.025.908-.164 1.995.41 2.785.416.533-.539.528-.531-.453-.295-1.225-1.083-.566-.363.33.144.687.81 1.322.255 1.936-.388.87-.494-.944-.655-1.345-.872-.308-.097 1.299-.003 1.875.263.322-.341 1.285-.548 1.063-.377-.42.237-2.052-.569-1.303-.039.661-.885.904-.612 1.877-.172.932.931.861.462.017.029-1.362.055-.771.631-.022-.318 1.057-1.168 1.902-1.746 2.831-.2 1.143-.601.046-.592-.477.135-.314.369-.62.334-.984 1.018.424.471-.414.293-.802.257-.568-.699-1.099-.489-.38-.167.532-.247 1.151-.446 1.735-.509.721.233 1.471.361 2.151-.364 1.175-.608 2.401-.934 3.572-.592.872.908.738.493.027.256-.975.432-1.991.745-2.963.245-1.16.904-2.144 1.643-3.04.688-1.2 1.221-2.484 2.038-3.609.779-1.682 1.478-3.424 2.64-4.89.481-.943.867-1.943 1.461-2.823.649.731.809-.48 1.578-.445 1.081-.445 2.169-.876 3.221-1.386.216.308-.387.922-.883 1.192-.428.285-1.118.622-1.765.905-.564.137-1.929 1.287-.838 1.055.795-.55 1.744-1.049 2.637-1.297.919.002-.588.357-.733.709-.227.716-1.178.099-1.771.624-1.028.371-2.253.715-2.886 1.659.436.515 1.191-.751 1.964-.825.511-.123 1.614-.871 1.737-.348-.536.118-.604.92-1.067.904-.492-.383-1.217.351-1.787.522-.763-.033-1.682 1.587-.605.835.646-.345 1.501-.786 2.068-.999.265.695-.714.698-1.249.991-.647.254-1.455.615-1.627 1.281-.893-.054-1.171 1.67-.404.826.474-.587 1.487-.61 2.041-1.149-.837-.324-.694-.06.288-.582.384-.257 1.654-.582.622-.148-.262.438-.762.693-1.011 1.198-.397.583-1.069.269-1.755.743-.193.711-1.048.892-1.255 1.689.432.539-.87.769-1.09 1.311-.437 1.152.881-.23 1.318-.509 1.07-.23-.011-.603.442-1.092.45-.495 1.455-.471 1.687-1.044-1.323.015-.624-.069.277-.304.36-.77-.362 1.292.553.38.353-.195.231-.815.497-.986.328-.374.637-.797.982-1.14 1.052-.159.34-.988.404-1.484.554-.29.937-.659 1.278-1.036.263-.508.567-.7 1.198-.976-.285-.682 1.076-.477 1.015-1.181-1.164-.436.15-.318.118-1.085.751-.151.543-.84.489-.986.447-.322 1.487-.476 1.337-1.19-.938-.255 1.276-.702.097-1.02-.289-.024 1.487-.71.376-.943-.815-.114.775-.446 1.026-.73-.072-.62.687-.551.979-1.073-.89-.326.833-.881-.056-1.325-1.086-.058-.445-.631.273-.648.923-.188-.265-.859-.721-.566-.132.635-1.088.077-1.658.547-1.078.501-1.133.191-.101-.289.635-.086 1.456-.73 1.909-.393.197-.415 1.112-.51 1.098-1.112-.678-.261.796-.092.85-.55-.612-.605 1.593-.23.754-.977a27 27 0 0 0-3.357-.747c-.558-.037-.685-.462-.994-.935-.306-.868-.719.463-.939-.138-.269-.321-.501-.721-.868-.925m-.717 1.302c-.734.619-.549 1.815-.781 2.694.023.689-.291 1.549.142 2.121.764-.357.972-.619.815-1.55.093-.831.117-1.679.34-2.482-.794-.307-.61 1.251-.739 1.838-.066.407-.141 2.336-.148 1.066.011-1.197.243-2.45.586-3.546l-.051-.073Zm3.343.994c.701.445 1.792.346 2.624.682-.763 0-.757.752-1.375.801-.856.353-1.99.363-2.554 1.197.62.611-1.226.631-1.29 1.452.242.144-1.294 1.452.235 1.135-.404-.668 1.034-.769 1.56-1.071.964-.662.597.53 1.496.609.365.11-1.45.792-.341 1.031-.869.142-.774.805-1.328 1.055-.65.081-1.357.944-.342 1.06-.692.104-.928.806-.554 1.011a7.53 7.53 0 0 0-4.658 2.024c.462.628 1.189-.645 1.844-.733a6.6 6.6 0 0 1 2.5-.805c.779.449-.312.577-.701.884-.578.445-1.312.385-1.955.835-1.062.456-2.15.852-3.196 1.342 1.238-1.522 1.966-3.356 2.991-5.01.599-1.451 1.543-2.696 2.558-3.873.636-.737.704-1.942 1.803-2.073.755-.327 1.741-.442 2.36-.726-.092-.72-1.119-.014-1.582-.03-.557.197-1.672.741-.814-.198.074-.402.707-.328.719-.599m-4.267.739c-.728.261-.544 1.377-.615 2.035-.272.585.28 1.91.601.827-.344-.541-.066-1.395-.048-2.045.039-.25.4-.635.062-.817m-1.026.819c-.699.361-.425 1.436-.687 2.108-.006 1.014-.422 2.091-.043 3.062.741-.043.074-1.374.399-1.938.014-1.064.389-2.143.43-3.164Zm6.083.566c.523.348-.616.525-1.001.587-1.098.539-.581-.16.186-.347.272-.079.543-.162.815-.24m-7.033.661c-.405.744-.257 1.748-.457 2.589-.508.783.403 1.899.447.665-.087-1.001.361-2.17.26-3.197l-.073-.052Zm7.21.516c.093-.04.047.142 0 0m-8.091.682c-.735.369-.444 1.512-.558 2.235.084.836-.221 1.914.41 2.552.78-.522-.253-.998.051-1.859.002-.924-.035-1.876.253-2.758l-.055-.106Zm6.526.889c-1.352.229-2.689.838-3.694 1.757-.196 1.112 1.027-.462 1.614-.55.698-.496 1.638-.53 2.339-.906l.009-.119-.269-.182Zm-8.35 1.359c.051.047-.048.036 0 0m6.83.518c-1.097.359-2.413.693-3.065 1.713.487.961.633-.511 1.37-.582.588-.412 1.461-.404 1.968-.861.035-.148-.116-.315-.273-.27m-5.831.11c-.532.61-.214 1.632-.322 2.418-.027.545-.033 2.333.626 1.434-.389-1.184-.013-2.553-.146-3.774l-.071-.055Zm5.242 1.233c-.996.136-1.944.672-2.686 1.302.438.818 1.093-.493 1.806-.603.254-.183 1.673-.164.88-.699m-6.636.539c-.567.496-.244 1.532-.391 2.259.063.603-.363 2.044.483 1.872-.11-1.258.015-2.666.104-3.973a.23.23 0 0 0-.196-.157Zm-.749 1.808c-.535.79-.369 1.892-.375 2.807-.227 1.036 1.257 1.088.568.34-.285-.979-.08-2.046.105-3.014a.23.23 0 0 0-.298-.133m7.238.859c.143-.009-.009.025 0 0m-8.189 1.246c-.689.534-.31 1.645-.389 2.423.56 1.207.595-.228.448-.875-.216-.532.429-1.29-.059-1.548m-4.823 11.121c.019-.003-.018.017-.012.01z" style="fill:#509def"/><path d="M9.602 4A5.59 5.59 0 0 0 4 9.602v1A5.59 5.59 0 0 1 9.602 5h44.796A5.59 5.59 0 0 1 60 10.602v-1A5.59 5.59 0 0 0 54.398 4z" style="opacity:.1;fill:#fff"/></svg>