<svg xmlns="http://www.w3.org/2000/svg" width="64" height="64"><rect width="57" height="57" x="-61" y="-61" rx="2.85" ry="2.85" style="opacity:.2" transform="rotate(90)scale(-1 1)"/><rect width="57" height="57" x="-60" y="-61" rx="2.85" ry="2.85" style="fill:#fa7645" transform="rotate(90)scale(-1 1)"/><path d="M19.438 16 16 40l9.899 12H39.1L49 40l-3.437-24h-19.25zm5.905 3h14.314l7.28 21-8.421 9.23H37V45h-9v4.23h-1.516L18.062 40Zm.282 1L27 24h2.75l1.375 8h2.75l1.375-8H38l1.375-4zM21.5 33l5.658 7.923L28 37Zm22 0L37 37l.842 3.923z" style="opacity:.1;fill-rule:evenodd"/><path d="M19.438 15 16 39l9.899 12H39.1L49 39l-3.437-24h-19.25zm5.905 3h14.314l7.28 21-8.421 9.23H37V44h-9v4.23h-1.516L18.062 39Zm.282 1L27 23h2.75l1.375 8h2.75l1.375-8H38l1.375-4zM21.5 32l5.658 7.923L28 36Zm22 0L37 36l.842 3.923z" style="fill:#3f3f3f;fill-rule:evenodd"/><path d="M6.85 3A2.843 2.843 0 0 0 4 5.85v1C4 5.27 5.27 4 6.85 4h51.3C59.73 4 61 5.27 61 6.85v-1C61 4.27 59.73 3 58.15 3z" style="fill:#fff;opacity:.2"/></svg>