<svg xmlns="http://www.w3.org/2000/svg" xmlns:xlink="http://www.w3.org/1999/xlink" width="64" height="64"><defs><filter id="c" width="1.199" height="1.228" x="-.1" y="-.114" style="color-interpolation-filters:sRGB"><feGaussianBlur stdDeviation="2.292"/></filter><filter id="d" width="1.278" height="1.219" x="-.139" y="-.109" style="color-interpolation-filters:sRGB"><feGaussianBlur stdDeviation="2.487"/></filter><radialGradient xlink:href="#a" id="b" cx="9.794" cy="53.224" r="27.922" fx="9.794" fy="53.224" gradientTransform="matrix(2.4419 0 0 2.23273 -9.175 -76.744)" gradientUnits="userSpaceOnUse"/><linearGradient id="a"><stop offset="0" style="stop-color:#00baff;stop-opacity:1"/><stop offset="1" style="stop-color:#007aff;stop-opacity:1"/></linearGradient></defs><g transform="translate(0 .041)"><path d="M13.49 3.32h37.02a9.623 9.623 45 0 1 9.622 9.622V42.95a9.623 9.623 135 0 1-9.622 9.623H13.49a9.623 9.623 45 0 1-9.622-9.623V12.942a9.623 9.623 135 0 1 9.622-9.623" style="fill:url(#b);fill-opacity:1;stroke-width:.4" transform="matrix(.94764 0 0 .84888 1.676 8.277)"/><path d="M16.437 24.765a9.119 8.168 0 0 0-7.057 2.994h49.195a9.119 8.168 0 0 0-7.056-2.994ZM7.333 58.859a9.119 8.168 0 0 0 8.79 7.71h35.71a9.119 8.168 0 0 0 8.79-7.71z" style="opacity:.559839;fill:#0053ff;fill-opacity:1;stroke:none;stroke-width:.254022;stroke-linecap:round;stroke-linejoin:round" transform="translate(-1.978 -13.67)"/><path d="M25.814 60.775a1.84 1.84 0 0 0-1.84 1.84 1.84 1.84 0 0 0 1.84 1.838 1.84 1.84 0 0 0 1.838-1.838 1.84 1.84 0 0 0-1.838-1.84zm5.442 0a1.84 1.84 0 0 0-1.838 1.84 1.84 1.84 0 0 0 1.838 1.838 1.84 1.84 0 0 0 1.84-1.838 1.84 1.84 0 0 0-1.84-1.84zm5.443 0a1.84 1.84 0 0 0-1.838 1.84 1.84 1.84 0 0 0 1.838 1.838 1.84 1.84 0 0 0 1.838-1.838 1.84 1.84 0 0 0-1.838-1.84zm5.444 0a1.84 1.84 0 0 0-1.84 1.84 1.84 1.84 0 0 0 1.84 1.838 1.84 1.84 0 0 0 1.837-1.838 1.84 1.84 0 0 0-1.837-1.84z" style="opacity:.703111;fill:#fff;fill-opacity:1;stroke:#fff;stroke-width:0" transform="translate(-1.978 -13.67)"/><path d="M13.49 3.32h37.02a9.623 9.623 45 0 1 9.622 9.622V42.95a9.623 9.623 135 0 1-9.622 9.623H13.49a9.623 9.623 45 0 1-9.622-9.623V12.942a9.623 9.623 135 0 1 9.622-9.623Z" style="fill:none;fill-opacity:1;stroke:#000;stroke-width:.222989;stroke-dasharray:none;stroke-opacity:1;filter:url(#c)" transform="matrix(.94764 0 0 .84888 1.676 8.277)"/><rect width="44" height="56" x="-53.959" y="-59.999" rx="7.322" ry="7.322" style="opacity:1;mix-blend-mode:normal;fill:none;stroke:#000;stroke-width:.3;stroke-dasharray:none;stroke-opacity:1;filter:url(#d)" transform="matrix(0 -.9345 -.9345 0 2.096 2.093)"/></g><path d="M32.5 14.782a3.35 3.35 0 0 0-2.23.857c-.065.056-.134.108-.194.17a3.6 3.6 0 0 0-1.165 2.642 3.59 3.59 0 0 0 2.46 3.404v1.806h-3.68a1.173 1.173 135 0 0-1.173 1.174 1.13 1.13 42.817 0 0 1.173 1.087h3.68v9.198c0 1.13-1.557 1.799-2.301 1.702-3.336-.437-6.043-1.157-7.602-2.6l2.286.115-1.948-1.816-1.056-.984c-.493-.46-1.122-.333-1.306.316-.363 1.283-.43 2.578-.503 3.947l1.207-1.188c.581 2.392 8.5 3.899 9.618 4.883L32.5 41.9l2.733-2.403c1.12-.987 9.04-2.499 9.61-4.893L46.06 35.8c0-1.39-.232-2.645-.575-3.923-.176-.651-.74-.8-1.234-.34l-1.056.984-1.654 1.816 1.996-.115c-1.554 1.438-4.25 2.161-7.573 2.6-.754.1-2.332-.571-2.332-1.702v-9.198h3.678a1.173 1.173 135 0 0 1.173-1.174 1.13 1.13 42.817 0 0-1.173-1.087H33.63v-1.81a3.59 3.59 0 0 0 2.458-3.4 3.6 3.6 0 0 0-1.152-2.628 3.37 3.37 0 0 0-2.437-1.041m0 2.472c1.595 0 1.595 2.393 0 2.393s-1.595-2.393 0-2.393" style="opacity:.3;stroke-width:.797596"/></svg>