<svg xmlns="http://www.w3.org/2000/svg" width="64" height="64"><rect width="56" height="56" x="4" y="5" rx="11.2" ry="11.2" style="opacity:.2"/><rect width="56" height="56" x="4" y="4" rx="11.2" ry="11.2" style="fill:#6868ff"/><path d="M31.953 15c-.581.003-.693.017-1.035.125-1.36.43-2.455 1.673-2.832 3.219-.079.322-.088.457-.086 1.222.003.966.045 1.34.348 2.985.257 1.397.24 1.311.718 3.71.903 4.526 1.352 7.121 1.871 10.86.128.92.24 1.721.25 1.777.02.102.022.102.805.102h.785l.02-.148.215-1.528a182 182 0 0 1 1.957-11.379c.401-1.982.664-3.333.805-4.16.387-2.275.287-3.528-.38-4.683-.463-.804-1.288-1.561-2.023-1.86-.513-.208-.738-.246-1.418-.242M32 42a4 4 0 1 0 0 8 4 4 0 0 0 0-8" style="opacity:.2"/><path d="m32.798 37.853.215-1.527a182 182 0 0 1 1.957-11.38c.402-1.981.663-3.335.804-4.162.388-2.276.286-3.525-.38-4.681-.463-.803-1.286-1.56-2.021-1.86-.513-.208-.738-.246-1.418-.243-.582.003-.696.017-1.037.125-1.36.429-2.455 1.674-2.832 3.22-.078.322-.087.456-.086 1.222.003.965.046 1.338.349 2.983.257 1.397.24 1.313.72 3.713.902 4.525 1.349 7.12 1.868 10.86.128.92.241 1.72.251 1.775.02.102.021.102.804.102h.785z" style="fill:#fff"/><circle cx="32" cy="45" r="4" style="fill:#fff"/><path d="M15.2 4C8.993 4 4 8.994 4 15.2v1C4 9.993 8.994 5 15.2 5h33.6C55.007 5 60 9.994 60 16.2v-1C60 8.993 55.006 4 48.8 4z" style="opacity:.1;fill:#fff"/></svg>