<svg xmlns="http://www.w3.org/2000/svg" xmlns:xlink="http://www.w3.org/1999/xlink" width="64" height="64"><defs><filter id="f" width="1.189" height="1.185" x="-.095" y="-.092" style="color-interpolation-filters:sRGB"><feGaussianBlur stdDeviation="1.109"/></filter><filter id="g" width="1.328" height="1.312" x="-.164" y="-.156" style="color-interpolation-filters:sRGB"><feGaussianBlur stdDeviation="3.12"/></filter><filter id="e" width="1.102" height="1.094" x="-.051" y="-.047" style="color-interpolation-filters:sRGB"><feGaussianBlur stdDeviation=".621"/></filter><radialGradient xlink:href="#a" id="c" cx="11.758" cy="53.963" r="18.948" fx="11.758" fy="53.963" gradientTransform="matrix(3.48793 0 0 3.6652 -33.746 -137.583)" gradientUnits="userSpaceOnUse"/><radialGradient xlink:href="#b" id="d" cx="34.448" cy="13.722" r="14.663" fx="34.448" fy="13.722" gradientTransform="rotate(120 99.572 11.123)scale(3.71015 4.01918)" gradientUnits="userSpaceOnUse"/><linearGradient id="a"><stop offset="0" style="stop-color:#474747;stop-opacity:1"/><stop offset="1" style="stop-color:#616161;stop-opacity:1"/></linearGradient><linearGradient id="b"><stop offset="0" style="stop-color:#ff7900;stop-opacity:1"/><stop offset="1" style="stop-color:gold;stop-opacity:1"/></linearGradient></defs><path d="M20.254 7.672c-5.978-.126-11.409 4.777-11.408 11.064v26.626c.007 8.351 9.593 13.55 16.628 9.649l11.988-6.654 11.99-6.661.005-.003c3.513-1.955 5.697-5.871 5.697-9.649s-2.184-7.694-5.697-9.65l-.005-.001-11.99-6.66-11.974-6.646-.012-.005a11.2 11.2 0 0 0-5.188-1.41Z" style="fill:url(#c);stroke-width:1.22196"/><path d="M20.079 16.116a2.678 2.576 0 0 0-2.742 2.575V45.31a2.678 2.576 0 0 0 4.017 2.23l11.985-6.653 11.986-6.657a2.678 2.576 0 0 0 0-4.46l-11.987-6.655-11.985-6.653a2.678 2.576 0 0 0-1.276-.345z" style="opacity:.324401;fill:#000;fill-opacity:1;stroke-width:1.22196"/><path d="M20.078 16.113c-.743-.017-.746.624-.048 1.028l24.065 13.91a1.093 1.093 90.015 0 1-.001 1.893L20.059 46.82a.45.45 0 1 1-.45-.779l23.098-13.337a.818.818 90.013 0 0 0-1.417l-23.45-13.554c-.699-.404-1.766-.22-1.89.566q-.03.191-.031.39v.122a3.17 3.17 0 0 0 1.586 2.746l17.937 10.355a.1.1 0 0 1 0 .172L18.922 42.441a3 3 0 0 0-.668.517c-.84.854-.042 1.48 1.018.87l20.339-11.704a.146.146 90.034 0 0 0-.252L19.289 20.146a.45.45 0 1 1 .452-.78L40.68 31.448a.634.634 90.032 0 1 0 1.099L19.335 44.83c-1.06.61-1.614 2.23-.554 2.761.764.384 1.718.42 2.572-.054l11.986-6.652 11.984-6.656a2.527 2.527 0 0 0 0-4.461l-11.986-6.655-11.984-6.652a2.76 2.76 0 0 0-1.276-.346z" style="fill:url(#d)"/><path d="M20.078 16.113c-.743-.017-.746.624-.048 1.028l24.065 13.91a1.093 1.093 90.015 0 1-.001 1.893L20.059 46.82a.45.45 0 1 1-.45-.779l23.098-13.337a.818.818 90.013 0 0 0-1.417l-23.45-13.554c-.699-.404-1.766-.22-1.89.566q-.03.191-.031.39v.122a3.17 3.17 0 0 0 1.586 2.746l17.937 10.355a.1.1 0 0 1 0 .172L18.922 42.441a3 3 0 0 0-.668.517c-.84.854-.042 1.48 1.018.87l20.339-11.704a.146.146 90.034 0 0 0-.252L19.289 20.146a.45.45 0 1 1 .452-.78L40.68 31.448a.634.634 90.032 0 1 0 1.099L19.335 44.83c-1.06.61-1.614 2.23-.554 2.761.764.384 1.718.42 2.572-.054l11.986-6.652 11.984-6.656a2.527 2.527 0 0 0 0-4.461l-11.986-6.655-11.984-6.652a2.76 2.76 0 0 0-1.276-.346z" style="fill:#ff9d00;fill-opacity:1;opacity:.33850494;filter:url(#e)"/><path d="M17.336 18.81v26.375a3.17 3.17 0 0 1 1.586-2.744L36.86 32.084a.1.1 0 0 0 0-.172L18.922 21.557a3.17 3.17 0 0 1-1.586-2.747Zm28.575 14.983a2.7 2.7 0 0 1-.586.435L33.34 40.885l-11.986 6.652v.002l11.986-6.652 11.985-6.657q.334-.188.586-.437z" style="baseline-shift:baseline;display:inline;overflow:visible;fill:none;stroke:#000;stroke-width:.0999999;stroke-dasharray:none;stroke-opacity:1;filter:url(#f);enable-background:accumulate;stop-color:#000"/><path d="M20.078 16.113c-1.504-.034-2.742 1.13-2.742 2.576v.121a3.17 3.17 0 0 0 1.586 2.747L36.86 31.912a.1.1 0 0 1 0 .172L18.922 42.44a3.17 3.17 0 0 0-1.586 2.744v.123c.002 1.982 2.233 3.22 4.018 2.229l11.986-6.652 11.985-6.657a2.527 2.527 0 0 0 0-4.46l-11.987-6.655-11.984-6.652a2.76 2.76 0 0 0-1.276-.346z" style="fill:none;stroke:#000;stroke-width:.0999999;stroke-dasharray:none;stroke-opacity:1;filter:url(#f)"/><path d="M20.191 7.672c-5.978-.126-11.408 4.777-11.408 11.064v26.625c.007 8.352 9.594 13.55 16.63 9.649l11.985-6.652 11.993-6.663.004-.002c3.512-1.955 5.697-5.87 5.697-9.648s-2.185-7.695-5.697-9.65l-.004-.002-11.993-6.659-11.972-6.648-.012-.004a11.24 11.24 0 0 0-5.19-1.41Zm-.175 8.443v.002a2.678 2.576 0 0 1 1.275.346l11.984 6.652 11.987 6.655a2.678 2.576 0 0 1 0 4.46l-11.985 6.657-11.986 6.652a2.678 2.576 0 0 1-4.018-2.228V18.69a2.678 2.576 0 0 1 2.743-2.576z" style="fill:none;stroke:#000;stroke-width:.2;stroke-dasharray:none;stroke-opacity:1;filter:url(#g)"/></svg>