<svg xmlns="http://www.w3.org/2000/svg" xmlns:xlink="http://www.w3.org/1999/xlink" width="64" height="64"><defs><radialGradient xlink:href="#a" id="d" cx="34.448" cy="13.722" r="14.663" fx="34.448" fy="13.722" gradientTransform="rotate(120 99.572 11.123)scale(3.71015 4.01918)" gradientUnits="userSpaceOnUse"/><radialGradient xlink:href="#b" id="c" cx="11.758" cy="53.963" r="18.948" fx="11.758" fy="53.963" gradientTransform="matrix(3.48793 0 0 3.6652 -33.746 -137.583)" gradientUnits="userSpaceOnUse"/><radialGradient xlink:href="#a" id="e" cx="34.448" cy="13.722" r="14.663" fx="34.448" fy="13.722" gradientTransform="rotate(120 99.572 11.123)scale(3.71015 4.01918)" gradientUnits="userSpaceOnUse"/><filter id="h" width="1.328" height="1.312" x="-.164" y="-.156" style="color-interpolation-filters:sRGB"><feGaussianBlur stdDeviation="3.12"/></filter><filter id="g" width="1.185" height="1.171" x="-.092" y="-.085" style="color-interpolation-filters:sRGB"><feGaussianBlur stdDeviation="1.109"/></filter><filter id="f" width="1.334" height="1.308" x="-.167" y="-.154" style="color-interpolation-filters:sRGB"><feGaussianBlur stdDeviation="2.038"/></filter><linearGradient id="a"><stop offset="0" style="stop-color:#ffe400;stop-opacity:1"/><stop offset="1" style="stop-color:#ffab00;stop-opacity:1"/></linearGradient><linearGradient id="b"><stop offset="0" style="stop-color:#474747;stop-opacity:1"/><stop offset="1" style="stop-color:#616161;stop-opacity:1"/></linearGradient></defs><path d="M20.254 7.672c-5.978-.126-11.409 4.777-11.408 11.064v26.626c.007 8.351 9.593 13.55 16.628 9.649l11.988-6.654 11.99-6.661.005-.003c3.513-1.955 5.697-5.871 5.697-9.649s-2.184-7.694-5.697-9.65l-.005-.001-11.99-6.66-11.974-6.646-.012-.005a11.2 11.2 0 0 0-5.188-1.41Z" style="fill:url(#c);stroke-width:1.22196"/><path d="M20.079 16.116a2.678 2.576 0 0 0-2.742 2.575V45.31a2.678 2.576 0 0 0 4.017 2.23l11.985-6.653 11.986-6.657a2.678 2.576 0 0 0 0-4.46l-11.987-6.655-11.985-6.653a2.678 2.576 0 0 0-1.276-.345z" style="opacity:.324401;fill:#000;fill-opacity:1;stroke-width:1.22196"/><path d="M20.078 16.115c-1.504-.034-2.743 1.13-2.742 2.576v.121a3.17 3.17 60 0 0 1.585 2.746L36.86 31.914a.1.1 0 0 1 0 .172L18.921 42.442a3.17 3.17 120 0 0-1.585 2.746v.123c.002 1.981 2.233 3.219 4.018 2.228l11.986-6.652 11.984-6.657a2.527 2.527 0 0 0 0-4.46l-11.986-6.655-11.984-6.652a2.76 2.76 0 0 0-1.276-.346z" style="baseline-shift:baseline;display:inline;overflow:visible;vector-effect:none;fill:url(#d);enable-background:accumulate;stop-color:#000;stop-opacity:1" transform="translate(0 -.001)"/><path d="M20.078 16.115c-1.504-.034-2.743 1.13-2.742 2.576v.121a3.17 3.17 60 0 0 1.585 2.746L36.86 31.914a.1.1 0 0 1 0 .172L18.921 42.442a3.17 3.17 120 0 0-1.585 2.746v.123c.002 1.981 2.233 3.219 4.018 2.228l11.986-6.652 11.984-6.657a2.527 2.527 0 0 0 0-4.46l-11.986-6.655-11.984-6.652a2.76 2.76 0 0 0-1.276-.346z" style="baseline-shift:baseline;display:inline;overflow:visible;vector-effect:none;fill:url(#e);enable-background:accumulate;stop-color:#000;filter:url(#f);opacity:.32299013" transform="translate(0 -.001)"/><g style="filter:url(#g)" transform="translate(5.593 -.606)"><path d="M11.743 19.417v26.375a3.17 3.17 0 0 1 1.586-2.744L31.267 32.69a.1.1 0 0 0 0-.172L13.329 22.163a3.17 3.17 0 0 1-1.586-2.746zm28.575 14.982a2.7 2.7 0 0 1-.586.436L27.747 41.49l-11.986 6.652v.002l11.986-6.652 11.985-6.656q.334-.189.586-.438z" style="baseline-shift:baseline;display:inline;overflow:visible;fill:none;stroke:#000;stroke-width:.0999999;stroke-dasharray:none;stroke-opacity:1;enable-background:accumulate;stop-color:#000;stop-opacity:1"/><path d="M14.486 16.72c-1.505-.035-2.743 1.129-2.743 2.576v.12a3.17 3.17 0 0 0 1.586 2.747l17.938 10.355a.1.1 0 0 1 0 .172L13.329 43.048a3.17 3.17 0 0 0-1.586 2.744v.123c.002 1.981 2.233 3.219 4.018 2.228l11.986-6.652 11.985-6.656a2.527 2.527 0 0 0 0-4.461l-11.987-6.655-11.984-6.652a2.76 2.76 0 0 0-1.275-.346z" style="fill:none;stroke:#000;stroke-width:.0999999;stroke-dasharray:none;stroke-opacity:1"/></g><path d="M20.254 7.672c-5.978-.126-11.409 4.777-11.408 11.064v26.625c.006 8.352 9.594 13.55 16.629 9.649l11.986-6.652 11.992-6.663.004-.002c3.513-1.955 5.697-5.87 5.697-9.648s-2.184-7.695-5.697-9.65l-.004-.002-11.992-6.659-11.973-6.648-.011-.004a11.24 11.24 0 0 0-5.19-1.41Zm-.176 8.443v.002a2.678 2.576 0 0 1 1.276.346l11.984 6.652 11.986 6.655a2.678 2.576 0 0 1 0 4.46L33.34 40.888 21.354 47.54a2.678 2.576 0 0 1-4.018-2.228V18.69a2.678 2.576 0 0 1 2.742-2.576z" style="fill:none;stroke:#000;stroke-width:.2;stroke-dasharray:none;stroke-opacity:1;filter:url(#h)"/></svg>