<svg xmlns="http://www.w3.org/2000/svg" width="64" height="64"><path d="M8 5h48c2.2 0 4 1.8 4 4v48c0 2.2-1.8 4-4 4H8c-2.2 0-4-1.8-4-4V9c0-2.2 1.8-4 4-4" style="opacity:.2"/><path d="M8 4h48c2.2 0 4 1.8 4 4v48c0 2.2-1.8 4-4 4H8c-2.2 0-4-1.8-4-4V8c0-2.2 1.8-4 4-4" style="fill:#248afd"/><path d="M8 4C5.8 4 4 5.8 4 8v1c0-2.2 1.8-4 4-4h48c2.2 0 4 1.8 4 4V8c0-2.2-1.8-4-4-4z" style="fill:#fff;opacity:.1"/><path d="M14.963 13A2.96 2.96 0 0 0 12 15.963v34.074A2.96 2.96 0 0 0 14.963 53h34.074A2.96 2.96 0 0 0 52 50.037V15.963C52 14.27 50.73 13 49.037 13ZM20 23h7v20h-7zm17 0h7v20h-7z" style="opacity:.2"/><path d="M14.963 12A2.96 2.96 0 0 0 12 14.963v34.074A2.96 2.96 0 0 0 14.963 52h34.074A2.96 2.96 0 0 0 52 49.037V14.963C52 13.27 50.73 12 49.037 12zM20 22h7v20h-7zm17 0h7v20h-7z" style="fill:#fff"/></svg>