<svg xmlns="http://www.w3.org/2000/svg" width="64" height="64"><circle cx="32" cy="33" r="28" style="opacity:.2"/><circle cx="32" cy="32" r="28" style="fill:#f43e37"/><path d="M32 11c-12.15 0-22 9.85-22 22s9.85 22 22 22v-6c-9.113 0-16-6.887-16-16s6.887-16 16-16 16 6.887 16 16h6c0-12.15-9.85-22-22-22m-.012 10A12 12 0 0 0 20 33a12 12 0 0 0 12 12v-4a8 8 0 0 1-8-8 8 8 0 0 1 8-8 8 8 0 0 1 8 8h4a12 12 0 0 0-12-12z" style="opacity:.2"/><path d="M32 10c-12.15 0-22 9.85-22 22s9.85 22 22 22v-6c-9.113 0-16-6.887-16-16s6.887-16 16-16 16 6.887 16 16h6c0-12.15-9.85-22-22-22" style="fill:#fff"/><path d="M31.987 20A12 12 0 0 0 20 32a12 12 0 0 0 12 12v-4a8 8 0 0 1-8-8 8 8 0 0 1 8-8 8 8 0 0 1 8 8h4a12 12 0 0 0-12-12z" style="fill:#fff"/><path d="M32 4A28 28 0 0 0 4 32a28 28 0 0 0 .006.49A28 28 0 0 1 32 5a28 28 0 0 1 27.994 27.488A28 28 0 0 0 60 32 28 28 0 0 0 32 4" style="opacity:.2;fill:#fff"/></svg>