<svg xmlns="http://www.w3.org/2000/svg" width="64" height="64"><path d="M32 5c-.487 0-.974.112-1.42.336L5.748 17.813A3.18 3.18 0 0 0 4 20.648v24.704a3.18 3.18 0 0 0 1.748 2.836L30.58 60.664a3.17 3.17 0 0 0 2.84 0l24.832-12.477A3.18 3.18 0 0 0 60 45.353V20.648a3.19 3.19 0 0 0-1.748-2.836L33.42 5.336A3.2 3.2 0 0 0 32 5" style="opacity:.2"/><path d="M32 4c-.487 0-.974.113-1.42.336L5.748 16.813A3.18 3.18 0 0 0 4 19.648v24.704c0 .416.083.821.235 1.195L59.338 17.71a3.16 3.16 0 0 0-1.085-.897L33.419 4.336A3.16 3.16 0 0 0 32 4" style="fill:#35a2ff"/><path d="M59.338 17.71 4.235 45.547c.285.7.815 1.29 1.512 1.64l24.834 12.477a3.17 3.17 0 0 0 2.838 0l24.834-12.476A3.18 3.18 0 0 0 60 44.352V19.648c0-.711-.24-1.391-.662-1.938" style="fill:#ac2ecf"/><path d="M32.39 11.093a.87.87 0 0 0-.78 0L10.482 21.706a.88.88 0 0 0-.482.784v21.02c0 .332.187.636.482.784L31.61 54.907a.87.87 0 0 0 .78 0l21.128-10.613A.88.88 0 0 0 54 43.51V22.49a.88.88 0 0 0-.482-.784z" style="opacity:.1"/><path d="M32.39 10.093a.87.87 0 0 0-.78 0L10.482 20.706a.88.88 0 0 0-.482.784v21.02c0 .332.187.636.482.784L31.61 53.907a.87.87 0 0 0 .78 0l21.128-10.613A.88.88 0 0 0 54 42.51V21.49a.88.88 0 0 0-.482-.784z" style="fill:#4e3667"/><path d="M16.11 24c-.614 0-1.11.496-1.11 1.11v14.882c0 .557.425 1.008.951 1.008H48.05c.526 0 .951-.451.951-1.008V25.11c0-.614-.496-1.11-1.11-1.11Zm2.31 3h2.16c.232 0 .42.167.42.373v7.254c0 .206-.188.373-.42.373h-2.16c-.232 0-.42-.167-.42-.373v-7.254c0-.206.188-.373.42-.373m6 0h2.16c.232 0 .42.167.42.373v7.254c0 .206-.188.373-.42.373h-2.16c-.232 0-.42-.167-.42-.373v-7.254c0-.206.188-.373.42-.373m6 0h2.16c.232 0 .42.167.42.373v7.254c0 .206-.188.373-.42.373h-2.16c-.232 0-.42-.167-.42-.373v-7.254c0-.206.188-.373.42-.373m6 0h2.16c.232 0 .42.167.42.373v7.254c0 .206-.188.373-.42.373h-2.16c-.232 0-.42-.167-.42-.373v-7.254c0-.206.188-.373.42-.373" style="opacity:.2"/><path d="M16.11 23c-.614 0-1.11.496-1.11 1.11V37h34V24.11c0-.614-.496-1.11-1.11-1.11zm2.31 3h2.16c.232 0 .42.167.42.373v7.254c0 .206-.188.373-.42.373h-2.16c-.232 0-.42-.167-.42-.373v-7.254c0-.206.188-.373.42-.373m6 0h2.16c.232 0 .42.167.42.373v7.254c0 .206-.188.373-.42.373h-2.16c-.232 0-.42-.167-.42-.373v-7.254c0-.206.188-.373.42-.373m6 0h2.16c.232 0 .42.167.42.373v7.254c0 .206-.188.373-.42.373h-2.16c-.232 0-.42-.167-.42-.373v-7.254c0-.206.188-.373.42-.373m6 0h2.16c.232 0 .42.167.42.373v7.254c0 .206-.188.373-.42.373h-2.16c-.232 0-.42-.167-.42-.373v-7.254c0-.206.188-.373.42-.373" style="fill:#c6bfec"/><path d="M15 37h34v1.992c0 .557-.426 1.008-.952 1.008H15.952c-.526 0-.952-.451-.952-1.008z" style="fill:#685fe4"/><path d="M32 4c-.487 0-.974.112-1.42.336L5.748 16.812A3.18 3.18 0 0 0 4 19.648v1c0-1.193.678-2.298 1.748-2.836L30.58 5.336a3.17 3.17 0 0 1 2.84 0l24.832 12.476A3.19 3.19 0 0 1 60 20.648v-1a3.19 3.19 0 0 0-1.748-2.836L33.42 4.336A3.2 3.2 0 0 0 32 4M16.11 23c-.614 0-1.11.496-1.11 1.11v1c0-.614.496-1.11 1.11-1.11h31.78c.614 0 1.11.496 1.11 1.11v-1c0-.614-.496-1.11-1.11-1.11zM18 33.627v1c0 .206.188.373.42.373h2.16c.232 0 .42-.167.42-.373v-1c0 .206-.188.373-.42.373h-2.16c-.232 0-.42-.167-.42-.373m6 0v1c0 .206.188.373.42.373h2.16c.232 0 .42-.167.42-.373v-1c0 .206-.188.373-.42.373h-2.16c-.232 0-.42-.167-.42-.373m6 0v1c0 .206.188.373.42.373h2.16c.232 0 .42-.167.42-.373v-1c0 .206-.188.373-.42.373h-2.16c-.232 0-.42-.167-.42-.373m6 0v1c0 .206.188.373.42.373h2.16c.232 0 .42-.167.42-.373v-1c0 .206-.188.373-.42.373h-2.16c-.232 0-.42-.167-.42-.373" style="fill:#fff;opacity:.2"/></svg>