<svg xmlns="http://www.w3.org/2000/svg" xml:space="preserve" width="64" height="64"><rect width="56" height="56" x="4" y="5" rx="6" ry="6" style="opacity:.2"/><rect width="56" height="56" x="4" y="4" rx="6" ry="6" style="fill:#4f4f4f"/><path d="M10.801 15a.8.8 0 0 0-.801.801v.399a.8.8 0 0 1-.8.8h-.4a.8.8 0 0 0-.8.801v.399a.8.8 0 0 0 .8.8h.4a.8.8 0 0 1 .8.801v.399a.8.8 0 0 0 .801.8h.398a.8.8 0 0 0 .801-.8v-.399a.8.8 0 0 1 .801-.801h.398a.8.8 0 0 0 .801-.8v-.399a.8.8 0 0 0-.801-.801h-.398a.8.8 0 0 1-.801-.8v-.399a.8.8 0 0 0-.801-.801Zm42 0a.8.8 0 0 0-.801.801v.399a.8.8 0 0 1-.801.8h-.398a.8.8 0 0 0-.801.801v.399a.8.8 0 0 0 .801.8h.398a.8.8 0 0 1 .801.801v.399a.8.8 0 0 0 .801.8h.398a.8.8 0 0 0 .801-.8v-.399a.8.8 0 0 1 .801-.801h.398a.8.8 0 0 0 .801-.8v-.399a.8.8 0 0 0-.801-.801h-.398a.8.8 0 0 1-.801-.8v-.399a.8.8 0 0 0-.801-.801Zm-36 2a.8.8 0 0 0-.801.801v.399a.8.8 0 0 0 .801.8h4.398a.8.8 0 0 0 .801-.8v-.399a.8.8 0 0 0-.801-.801Zm8 0a.8.8 0 0 0-.801.801v.399a.8.8 0 0 0 .801.8h4.398a.8.8 0 0 0 .801-.8v-.399a.8.8 0 0 0-.801-.801Zm8 0a.8.8 0 0 0-.801.801v.399a.8.8 0 0 0 .801.8h4.398a.8.8 0 0 0 .801-.8v-.399a.8.8 0 0 0-.801-.801Zm8 0a.8.8 0 0 0-.801.801v.399a.8.8 0 0 0 .801.8h6.398a.8.8 0 0 0 .801-.8v-.399a.8.8 0 0 0-.801-.801Zm-30 8a.8.8 0 0 0-.801.801V32.2a.8.8 0 0 0 .801.8h.398a.8.8 0 0 0 .801-.8v-6.399a.8.8 0 0 0-.801-.801ZM23 25c-1.693 0-3 1.392-3 3.002A3.004 3.004 0 0 0 23 31c1.693 0 3-1.387 3-2.998C26 26.392 24.693 25 23 25m18 0c-1.693 0-3 1.392-3 3.002A3.004 3.004 0 0 0 41 31c1.693 0 3-1.387 3-2.998C44 26.392 42.693 25 41 25m11.801 0a.8.8 0 0 0-.801.801V32.2a.8.8 0 0 0 .801.8h.398a.8.8 0 0 0 .801-.8v-6.399a.8.8 0 0 0-.801-.801ZM23 26.473c.745 0 1.414.639 1.414 1.529 0 .891-.669 1.526-1.414 1.526s-1.414-.635-1.414-1.526c0-.89.669-1.529 1.414-1.529m18 0c.745 0 1.414.639 1.414 1.529 0 .891-.669 1.526-1.414 1.526s-1.414-.635-1.414-1.526c0-.89.669-1.529 1.414-1.529M10.801 35a.8.8 0 0 0-.801.801V42.2a.8.8 0 0 0 .801.8h.398a.8.8 0 0 0 .801-.8v-6.399a.8.8 0 0 0-.801-.801Zm42 0a.8.8 0 0 0-.801.801V42.2a.8.8 0 0 0 .801.8h.398a.8.8 0 0 0 .801-.8v-6.399a.8.8 0 0 0-.801-.801Zm-23.322 2c-.184.003-.369.055-.465.145-.274.256-.103 1.459-.127 1.861-.012.193-.015.283-.024.43-.008.154.007.441-.029.474q-.017.014-.033 0c-.037-.031-.044-.294-.065-.435-.019-.133-.029-.218-.058-.389-.056-.329-.02-1.236-.272-1.445-.192-.16-.667-.16-.861 0-.253.208-.222 1.105-.283 1.437a9 9 0 0 0-.07.405c-.021.14-.018.396-.053.427-.01.009-.024.01-.033 0-.036-.034-.015-.326-.024-.482-.008-.147-.017-.237-.029-.43-.026-.401.158-1.596-.115-1.853-.194-.182-.782 0-.938 0 .078.614-.029 3.249.469 3.687.276.244.914.194 1.144 0 .246-.207.171-.968.221-1.281.029-.179.044-.288.063-.426.017-.13.013-.351.046-.381a.03.03 0 0 1 .036 0c.032.03.024.251.041.381.017.138.034.246.062.426.05.313-.031 1.073.215 1.281.233.198.887.248 1.168 0 .256-.225.466-1.076.562-1.91.042.836.136 1.679.399 1.91.276.244.914.194 1.144 0 .246-.207.171-.968.221-1.281.029-.179.044-.288.063-.426.017-.13.013-.351.047-.381a.03.03 0 0 1 .035 0c.032.03.024.251.041.381.017.138.034.246.062.426.049.312-.036 1.073.209 1.281.233.198.892.249 1.174 0 .257-.226.466-1.078.562-1.912.042.836.136 1.68.399 1.912.276.244.915.195 1.144 0 .245-.207.164-.969.215-1.281.03-.18.049-.288.069-.426.018-.13.013-.351.047-.381a.03.03 0 0 1 .035 0c.032.03.018.251.035.381.017.138.039.246.068.426.051.312-.036 1.073.209 1.281.233.198.892.249 1.174 0 .502-.442.829-3.278.469-3.687-.18-.204-.733-.181-.926 0-.274.256-.094 1.459-.121 1.861-.013.193-.021.283-.029.43-.009.154.012.441-.024.474-.009.01-.025.009-.035 0-.037-.031-.041-.294-.062-.435l-.065-.389c-.057-.329-.014-1.236-.266-1.445-.193-.161-.672-.16-.867 0-.253.208-.224 1.105-.283 1.437a10 10 0 0 0-.064.405c-.02.14-.018.396-.053.427-.01.009-.024.01-.033 0-.036-.034-.015-.326-.024-.482-.008-.147-.016-.237-.029-.43-.027-.401.152-1.597-.121-1.853-.194-.182-.777 0-.932 0l.004.039a.2.2 0 0 0-.027-.039c-.179-.203-.728-.18-.92 0-.274.256-.1 1.459-.127 1.861-.013.193-.021.283-.029.43-.009.154.011.441-.024.474-.009.01-.025.009-.035 0-.037-.031-.042-.294-.063-.435-.019-.133-.029-.218-.058-.389-.056-.329-.019-1.236-.272-1.445-.193-.161-.672-.16-.867 0-.253.208-.224 1.105-.283 1.437a10 10 0 0 0-.064.405c-.02.14-.018.396-.053.427-.01.009-.024.01-.033 0-.036-.034-.015-.326-.024-.482-.008-.147-.017-.237-.029-.43-.026-.401.158-1.596-.115-1.853-.194-.182-.782 0-.938 0l.004.039-.027-.039c-.09-.102-.272-.148-.455-.145M10.801 47a.8.8 0 0 0-.801.801v.399a.8.8 0 0 1-.8.8h-.4a.8.8 0 0 0-.8.801v.399a.8.8 0 0 0 .8.8h.4a.8.8 0 0 1 .8.801v.399a.8.8 0 0 0 .801.8h.398a.8.8 0 0 0 .801-.8v-.399a.8.8 0 0 1 .801-.801h.398a.8.8 0 0 0 .801-.8v-.399a.8.8 0 0 0-.801-.801h-.398a.8.8 0 0 1-.801-.8v-.399a.8.8 0 0 0-.801-.801Zm42 0a.8.8 0 0 0-.801.801v.399a.8.8 0 0 1-.801.8h-.398a.8.8 0 0 0-.801.801v.399a.8.8 0 0 0 .801.8h.398a.8.8 0 0 1 .801.801v.399a.8.8 0 0 0 .801.8h.398a.8.8 0 0 0 .801-.8v-.399a.8.8 0 0 1 .801-.801h.398a.8.8 0 0 0 .801-.8v-.399a.8.8 0 0 0-.801-.801h-.398a.8.8 0 0 1-.801-.8v-.399a.8.8 0 0 0-.801-.801Zm-36 2a.8.8 0 0 0-.801.801v.399a.8.8 0 0 0 .801.8h4.398a.8.8 0 0 0 .801-.8v-.399a.8.8 0 0 0-.801-.801Zm8 0a.8.8 0 0 0-.801.801v.399a.8.8 0 0 0 .801.8h4.398a.8.8 0 0 0 .801-.8v-.399a.8.8 0 0 0-.801-.801Zm8 0a.8.8 0 0 0-.801.801v.399a.8.8 0 0 0 .801.8h4.398a.8.8 0 0 0 .801-.8v-.399a.8.8 0 0 0-.801-.801Zm8 0a.8.8 0 0 0-.801.801v.399a.8.8 0 0 0 .801.8h6.398a.8.8 0 0 0 .801-.8v-.399a.8.8 0 0 0-.801-.801Z" style="opacity:.2"/><path d="M10.801 14a.8.8 0 0 0-.801.801v.399a.8.8 0 0 1-.8.8h-.4a.8.8 0 0 0-.8.801v.399a.8.8 0 0 0 .8.8h.4a.8.8 0 0 1 .8.801v.399a.8.8 0 0 0 .801.8h.398a.8.8 0 0 0 .801-.8v-.399a.8.8 0 0 1 .801-.801h.398a.8.8 0 0 0 .801-.8v-.399a.8.8 0 0 0-.801-.801h-.398a.8.8 0 0 1-.801-.8v-.399a.8.8 0 0 0-.801-.801Zm42 0a.8.8 0 0 0-.801.801v.399a.8.8 0 0 1-.801.8h-.398a.8.8 0 0 0-.801.801v.399a.8.8 0 0 0 .801.8h.398a.8.8 0 0 1 .801.801v.399a.8.8 0 0 0 .801.8h.398a.8.8 0 0 0 .801-.8v-.399a.8.8 0 0 1 .801-.801h.398a.8.8 0 0 0 .801-.8v-.399a.8.8 0 0 0-.801-.801h-.398a.8.8 0 0 1-.801-.8v-.399a.8.8 0 0 0-.801-.801Zm-36 2a.8.8 0 0 0-.801.801v.399a.8.8 0 0 0 .801.8h4.398a.8.8 0 0 0 .801-.8v-.399a.8.8 0 0 0-.801-.801Zm8 0a.8.8 0 0 0-.801.801v.399a.8.8 0 0 0 .801.8h4.398a.8.8 0 0 0 .801-.8v-.399a.8.8 0 0 0-.801-.801Zm8 0a.8.8 0 0 0-.801.801v.399a.8.8 0 0 0 .801.8h4.398a.8.8 0 0 0 .801-.8v-.399a.8.8 0 0 0-.801-.801Zm8 0a.8.8 0 0 0-.801.801v.399a.8.8 0 0 0 .801.8h6.398a.8.8 0 0 0 .801-.8v-.399a.8.8 0 0 0-.801-.801Zm-30 8a.8.8 0 0 0-.801.801V31.2a.8.8 0 0 0 .801.8h.398a.8.8 0 0 0 .801-.8v-6.399a.8.8 0 0 0-.801-.801ZM23 24c-1.693 0-3 1.392-3 3.002A3.004 3.004 0 0 0 23 30c1.693 0 3-1.387 3-2.998C26 25.392 24.693 24 23 24m18 0c-1.693 0-3 1.392-3 3.002A3.004 3.004 0 0 0 41 30c1.693 0 3-1.387 3-2.998C44 25.392 42.693 24 41 24m11.801 0a.8.8 0 0 0-.801.801V31.2a.8.8 0 0 0 .801.8h.398a.8.8 0 0 0 .801-.8v-6.399a.8.8 0 0 0-.801-.801ZM23 25.473c.745 0 1.414.639 1.414 1.529 0 .891-.669 1.526-1.414 1.526s-1.414-.635-1.414-1.526c0-.89.669-1.529 1.414-1.529m18 0c.745 0 1.414.639 1.414 1.529 0 .891-.669 1.526-1.414 1.526s-1.414-.635-1.414-1.526c0-.89.669-1.529 1.414-1.529M10.801 34a.8.8 0 0 0-.801.801V41.2a.8.8 0 0 0 .801.8h.398a.8.8 0 0 0 .801-.8v-6.399a.8.8 0 0 0-.801-.801Zm42 0a.8.8 0 0 0-.801.801V41.2a.8.8 0 0 0 .801.8h.398a.8.8 0 0 0 .801-.8v-6.399a.8.8 0 0 0-.801-.801Zm-23.322 2c-.184.003-.369.055-.465.145-.274.256-.103 1.459-.127 1.861-.012.193-.015.283-.024.43-.008.154.007.441-.029.474q-.017.014-.033 0c-.037-.031-.044-.294-.065-.435-.019-.133-.029-.218-.058-.389-.056-.329-.02-1.236-.272-1.445-.192-.16-.667-.16-.861 0-.253.208-.222 1.105-.283 1.437a9 9 0 0 0-.07.405c-.021.14-.018.396-.053.427-.01.009-.024.01-.033 0-.036-.034-.015-.326-.024-.482-.008-.147-.017-.237-.029-.43-.026-.401.158-1.596-.115-1.853-.194-.182-.782 0-.938 0 .078.614-.029 3.249.469 3.687.276.244.914.194 1.144 0 .246-.207.171-.968.221-1.281.029-.179.044-.288.063-.426.017-.13.013-.351.046-.381a.03.03 0 0 1 .036 0c.032.03.024.251.041.381.017.138.034.246.062.426.05.313-.031 1.073.215 1.281.233.198.887.248 1.168 0 .256-.225.466-1.076.562-1.91.042.836.136 1.679.399 1.91.276.244.914.194 1.144 0 .246-.207.171-.968.221-1.281.029-.179.044-.288.063-.426.017-.13.013-.351.047-.381a.03.03 0 0 1 .035 0c.032.03.024.251.041.381.017.138.034.246.062.426.049.312-.036 1.073.209 1.281.233.198.892.249 1.174 0 .257-.226.466-1.078.562-1.912.042.836.136 1.68.399 1.912.276.244.915.195 1.144 0 .245-.207.164-.969.215-1.281.03-.18.049-.288.069-.426.018-.13.013-.351.047-.381a.03.03 0 0 1 .035 0c.032.03.018.251.035.381.017.138.039.246.068.426.051.312-.036 1.073.209 1.281.233.198.892.249 1.174 0 .502-.442.829-3.278.469-3.687-.18-.204-.733-.181-.926 0-.274.256-.094 1.459-.121 1.861-.013.193-.021.283-.029.43-.009.154.012.441-.024.474-.009.01-.025.009-.035 0-.037-.031-.041-.294-.062-.435l-.065-.389c-.057-.329-.014-1.236-.266-1.445-.193-.161-.672-.16-.867 0-.253.208-.224 1.105-.283 1.437a10 10 0 0 0-.064.405c-.02.14-.018.396-.053.427-.01.009-.024.01-.033 0-.036-.034-.015-.326-.024-.482-.008-.147-.016-.237-.029-.43-.027-.401.152-1.597-.121-1.853-.194-.182-.777 0-.932 0l.004.039a.2.2 0 0 0-.027-.039c-.179-.203-.728-.18-.92 0-.274.256-.1 1.459-.127 1.861-.013.193-.021.283-.029.43-.009.154.011.441-.024.474-.009.01-.025.009-.035 0-.037-.031-.042-.294-.063-.435-.019-.133-.029-.218-.058-.389-.056-.329-.019-1.236-.272-1.445-.193-.161-.672-.16-.867 0-.253.208-.224 1.105-.283 1.437a10 10 0 0 0-.064.405c-.02.14-.018.396-.053.427-.01.009-.024.01-.033 0-.036-.034-.015-.326-.024-.482-.008-.147-.017-.237-.029-.43-.026-.401.158-1.596-.115-1.853-.194-.182-.782 0-.938 0l.004.039-.027-.039c-.09-.102-.272-.148-.455-.145M10.801 46a.8.8 0 0 0-.801.801v.399a.8.8 0 0 1-.8.8h-.4a.8.8 0 0 0-.8.801v.399a.8.8 0 0 0 .8.8h.4a.8.8 0 0 1 .8.801v.399a.8.8 0 0 0 .801.8h.398a.8.8 0 0 0 .801-.8v-.399a.8.8 0 0 1 .801-.801h.398a.8.8 0 0 0 .801-.8v-.399a.8.8 0 0 0-.801-.801h-.398a.8.8 0 0 1-.801-.8v-.399a.8.8 0 0 0-.801-.801Zm42 0a.8.8 0 0 0-.801.801v.399a.8.8 0 0 1-.801.8h-.398a.8.8 0 0 0-.801.801v.399a.8.8 0 0 0 .801.8h.398a.8.8 0 0 1 .801.801v.399a.8.8 0 0 0 .801.8h.398a.8.8 0 0 0 .801-.8v-.399a.8.8 0 0 1 .801-.801h.398a.8.8 0 0 0 .801-.8v-.399a.8.8 0 0 0-.801-.801h-.398a.8.8 0 0 1-.801-.8v-.399a.8.8 0 0 0-.801-.801Zm-36 2a.8.8 0 0 0-.801.801v.399a.8.8 0 0 0 .801.8h4.398a.8.8 0 0 0 .801-.8v-.399a.8.8 0 0 0-.801-.801Zm8 0a.8.8 0 0 0-.801.801v.399a.8.8 0 0 0 .801.8h4.398a.8.8 0 0 0 .801-.8v-.399a.8.8 0 0 0-.801-.801Zm8 0a.8.8 0 0 0-.801.801v.399a.8.8 0 0 0 .801.8h4.398a.8.8 0 0 0 .801-.8v-.399a.8.8 0 0 0-.801-.801Zm8 0a.8.8 0 0 0-.801.801v.399a.8.8 0 0 0 .801.8h6.398a.8.8 0 0 0 .801-.8v-.399a.8.8 0 0 0-.801-.801Z" style="fill:#fff"/><path d="M10 4c-3.324 0-6 2.676-6 6v1c0-3.324 2.676-6 6-6h44c3.324 0 6 2.676 6 6v-1c0-3.324-2.676-6-6-6Z" style="opacity:.1;fill:#fff"/></svg>