<svg xmlns="http://www.w3.org/2000/svg" width="64" height="64"><rect width="57" height="57" x="4" y="4" rx="2.85" ry="2.85" style="opacity:.2"/><rect width="57" height="57" x="4" y="3" rx="2.85" ry="2.85" style="fill:#3f3f3f"/><path d="M39 22v5h7.25c1.523 0 2.75-1.115 2.75-2.5S47.773 22 46.25 22zM26 36v5h20.25c1.523 0 2.75-1.115 2.75-2.5S47.773 36 46.25 36z" style="opacity:.3"/><path d="M6.85 3A2.843 2.843 0 0 0 4 5.85v1C4 5.27 5.27 4 6.85 4h51.3C59.73 4 61 5.27 61 6.85v-1C61 4.27 59.73 3 58.15 3z" style="fill:#fff;opacity:.1"/><path d="M18.75 22C17.227 22 16 23.115 16 24.5s1.227 2.5 2.75 2.5H39v-5zm0 14C17.227 36 16 37.115 16 38.5s1.227 2.5 2.75 2.5H26v-5z" style="fill:#008d6a"/><path d="M44 25.5a5.5 5.5 0 1 0-11 0 5.5 5.5 0 0 0 11 0" style="opacity:.2"/><path d="M44 24.5a5.5 5.5 0 1 0-11 0 5.5 5.5 0 0 0 11 0" style="fill:#3ffe3f"/><path d="M32 39.5a5.5 5.5 0 1 0-11 0 5.5 5.5 0 0 0 11 0" style="opacity:.2"/><path d="M32 38.5a5.5 5.5 0 1 0-11 0 5.5 5.5 0 0 0 11 0" style="fill:#3ffe3f"/><path d="M38.5 19a5.5 5.5 0 0 0-5.5 5.5q.001.253.025.5a5.5 5.5 0 0 1 5.475-5 5.5 5.5 0 0 1 5.475 5q.023-.247.025-.5a5.5 5.5 0 0 0-5.5-5.5m-12 14a5.5 5.5 0 0 0-5.5 5.5q.001.253.025.5a5.5 5.5 0 0 1 5.475-5 5.5 5.5 0 0 1 5.475 5 5.5 5.5 0 0 0-5.475-6" style="fill:#fff;opacity:.2"/></svg>