<svg xmlns="http://www.w3.org/2000/svg" width="64" height="64"><rect width="57" height="57" x="4" y="4" rx="17.1" ry="17.1" style="opacity:.2"/><rect width="57" height="57" x="4" y="3" rx="17.1" ry="17.1" style="fill:#e4e4e4"/><path d="m47.223 11.781-1.612 2.336a14.21 14.21 0 0 1 5.516 11.266c0 4.55-2.121 8.59-5.428 11.197l1.68 2.285c4.012-3.132 6.598-8.01 6.598-13.482 0-5.542-2.654-10.475-6.754-13.602M43.6 16.594l-1.614 2.338a7.8 7.8 0 0 1 3.143 6.275 7.82 7.82 0 0 1-3.352 6.434l1.678 2.285c2.732-1.94 4.524-5.127 4.524-8.719 0-3.529-1.729-6.665-4.38-8.613m-25.846.62C13.654 20.343 11 25.275 11 30.817c0 5.472 2.588 10.35 6.6 13.483l1.677-2.285a14.21 14.21 0 0 1-5.427-11.198c0-4.59 2.16-8.663 5.517-11.267zm3.625 4.813C18.729 23.976 17 27.112 17 30.641c0 3.592 1.792 6.777 4.523 8.716l1.678-2.285a7.81 7.81 0 0 1-3.351-6.431 7.8 7.8 0 0 1 3.142-6.276zM37.314 23a3.677 5.242 65.076 0 0-3.209.836 3.677 5.242 65.076 0 0-3.091 4.066 5.242 3.677 24.924 0 0-.12-.066 5.242 3.677 24.924 0 0-6.521.717 5.242 3.677 24.924 0 0 2.732 5.611 5.242 3.677 24.924 0 0 3.895.793v17.617c0 .787.672 1.426 1.5 1.426s1.5-.639 1.5-1.426V30.96a3.677 5.242 65.076 0 0 3.895-.795 3.677 5.242 65.076 0 0 2.732-5.611A3.677 5.242 65.076 0 0 37.314 23" style="opacity:.1"/><path d="M32.5 27.475c-.828 0-1.5.637-1.5 1.424v22.676c0 .787.672 1.425 1.5 1.425s1.5-.638 1.5-1.425V28.899c0-.787-.672-1.425-1.5-1.425" style="fill:#3f3f3f"/><ellipse cx="40.346" cy="12.98" rx="5.235" ry="3.687" style="fill:#3f3f3f" transform="rotate(30.9)scale(.9986 1)skewY(-3.023)"/><ellipse cx="-17.563" cy="39.87" rx="5.235" ry="3.687" style="fill:#3f3f3f" transform="matrix(-.88399 .4675 .51354 .85806 0 0)"/><path d="M21.378 21.027C18.728 22.975 17 26.112 17 29.64c0 3.592 1.79 6.777 4.523 8.717l1.678-2.285a7.81 7.81 0 0 1-3.351-6.432 7.8 7.8 0 0 1 3.142-6.276z" style="fill:#e27f29"/><path d="M17.755 16.215C13.655 19.342 11 24.275 11 29.816c0 5.471 2.587 10.35 6.599 13.482l1.678-2.285a14.21 14.21 0 0 1-5.427-11.197c0-4.59 2.159-8.662 5.516-11.266zm25.845-.621-1.614 2.338a7.8 7.8 0 0 1 3.142 6.276 7.81 7.81 0 0 1-3.351 6.432l1.678 2.285c2.732-1.94 4.523-5.125 4.523-8.717 0-3.529-1.727-6.666-4.378-8.614" style="fill:#e27f29"/><path d="m47.222 10.782-1.611 2.335a14.21 14.21 0 0 1 5.516 11.266c0 4.55-2.12 8.59-5.427 11.197l1.678 2.285c4.012-3.132 6.6-8.01 6.6-13.482 0-5.541-2.655-10.474-6.756-13.601" style="fill:#e27f29"/><path d="M21.1 3C11.626 3 4 10.626 4 20.1v1C4 11.626 11.626 4 21.1 4h22.8C53.374 4 61 11.626 61 21.1v-1C61 10.626 53.374 3 43.9 3z" style="fill:#fff;opacity:.2"/></svg>