<svg xmlns="http://www.w3.org/2000/svg" width="64" height="64"><path d="M16 8h39.5a4.5 4.5 0 0 1 4.5 4.5V50H16Z" style="fill:#fcb96f"/><path d="M16 34c22 0 28 2 44 7v9H16Z" style="fill:#fada7b"/><path d="M16 34v1c22 0 28 2 44 7v-1c-16-5-22-7-44-7" style="opacity:.2;fill:#fff"/><path d="M16 50h44v3.5a4.5 4.5 0 0 1-4.5 4.5H16Z" style="fill:#554741"/><path d="M8.5 8H16v50H8.5A4.5 4.5 0 0 1 4 53.5v-41A4.5 4.5 0 0 1 8.5 8" style="fill:#aaa09b"/><circle cx="10" cy="46" r="2" style="fill:#8a7d77"/><circle cx="10" cy="38" r="2" style="fill:#8a7d77"/><circle cx="10" cy="30" r="2" style="fill:#8a7d77"/><path d="M10 20a2 2 0 0 0 0 4h28v-4Z" style="fill:#8a7d77"/><circle cx="10" cy="14" r="2" style="fill:#8a7d77"/><path d="M4 53.5v1A4.49 4.49 0 0 0 8.5 59h47a4.49 4.49 0 0 0 4.5-4.5v-1a4.49 4.49 0 0 1-4.5 4.5h-47A4.49 4.49 0 0 1 4 53.5" style="opacity:.2"/><path d="M8.5 8A4.49 4.49 0 0 0 4 12.5v1A4.49 4.49 0 0 1 8.5 9h47a4.49 4.49 0 0 1 4.5 4.5v-1A4.49 4.49 0 0 0 55.5 8Z" style="opacity:.2;fill:#fff"/><path d="M34.431 44.33c-.014.072-.414 2.338-.452 3.03a12 12 0 0 0 .004 1.23.32.32 0 0 0 .252.292c.328.058.965.154 1.783.18 1.211.04 1.984.048 1.984.048s.772-.008 1.985-.048a13 13 0 0 0 1.781-.18.32.32 0 0 0 .253-.292 12 12 0 0 0 .004-1.23c-.038-.692-.439-2.958-.453-3.03l.004-.002s-.004-.292.008-.446c.014-.196.156-.436.415-1.816q.199-.01.398-.036l2.61-.324a1.47 1.47 0 0 1 1.461.738l6.847 12.317s.38.81.622.676c.152-.086-.036-.896-.036-.896l-3.374-17.377a1.86 1.86 0 0 0-.553-1l-5.32-5.028A.5.5 0 0 0 44.31 31h-.57c.392-2.641.266-4.969.126-8.001-.142-3.03-1.117-7.423-2.43-11.999-.708-2.469-1.351-4.188-2.273-6-.721-1.414-1.161-1.398-1.161-1.398s-.44-.016-1.161 1.398c-.923 1.812-1.565 3.531-2.274 6-1.312 4.576-2.287 8.969-2.429 11.999-.14 3.032-.266 5.36.126 8.001h-.579a.5.5 0 0 0-.344.136l-5.32 5.028a1.87 1.87 0 0 0-.552 1l-3.374 17.377s-.188.81-.036.896c.242.134.622-.676.622-.676l6.847-12.317c.29-.52.871-.812 1.461-.738l2.61.324q.205.026.406.036c.258 1.38.4 1.62.414 1.816.012.154.008.446.008.446z" style="opacity:.2"/><path d="M34.428 43.328s-.412 2.328-.452 3.032c-.024.458-.01.946.002 1.23a.33.33 0 0 0 .256.294c.326.058.964.152 1.782.178 1.21.04 1.984.048 1.984.048V43.4m3.572-.072s.412 2.328.452 3.032c.024.458.01.946-.002 1.23a.33.33 0 0 1-.256.294c-.326.058-.964.152-1.782.178-1.21.04-1.984.048-1.984.048V43.4" style="fill:#d9d9d9"/><path d="M37.996 30h-6.312a.5.5 0 0 0-.346.138l-5.318 5.026a1.86 1.86 0 0 0-.55 1.002l-3.376 17.376s-.186.81-.034.894c.242.136.618-.674.618-.674l6.85-12.318c.29-.52.868-.812 1.458-.738l2.614.324q.397.05.796.05h3.6m0-11.08h6.312c.128 0 .252.05.346.138l5.318 5.026c.284.268.476.618.55 1.002l3.376 17.376s.186.81.034.894c-.242.136-.618-.674-.618-.674l-6.85-12.318a1.46 1.46 0 0 0-1.458-.738l-2.614.324q-.397.05-.796.05h-3.6" style="fill:#ececec"/><path d="M38.002 2.6s-.44-.014-1.161 1.4c-.923 1.812-1.563 3.533-2.272 6.001-1.312 4.577-2.289 8.968-2.431 11.999-.14 3.032-.264 5.36.126 8s1.173 7.562 1.555 10c.384 2.437.584 2.643.602 2.881.012.154.008.446.008.446 1.089.552 2.382.604 3.573.672m0-41.399s.44-.014 1.161 1.4c.922 1.812 1.563 3.533 2.271 6.001 1.313 4.577 2.29 8.968 2.432 11.999.14 3.032.266 5.36-.126 8-.39 2.64-1.173 7.562-1.555 10-.385 2.437-.585 2.643-.603 2.881-.012.154-.008.446-.008.446-1.088.552-2.381.604-3.572.672" style="fill:#fff"/><path d="m33.66 32.426.25 1.624c.222.042 1.006.174 2.09.254 1.274.094 2 .078 2 .078v-1.504s-1.094.002-2-.096c-.906-.1-2.34-.356-2.34-.356m.512 3.332.246 1.598s.742.18 1.582.246 2 .078 2 .078v-1.578s-1.126.016-2-.086a46 46 0 0 1-1.828-.258m8.168-3.332-.25 1.624c-.222.042-1.006.174-2.09.254-1.274.094-2 .078-2 .078v-1.504s1.094.002 2-.096c.906-.1 2.34-.356 2.34-.356m-.512 3.332-.246 1.598s-.742.18-1.582.246-2 .078-2 .078v-1.578s1.126.016 2-.086a46 46 0 0 0 1.828-.258" style="fill:#fada7b"/><path d="M38 8.6s-1.744.038-2.016.322c-.276.29-.46.86-.46.86s-.188.562-.22.984c-.03.421-.022.632 0 .781.024.148.118.273.29.398s.274.282.976.516c.606.202 1.43.199 1.43.199m0-4.06s1.744.038 2.016.322c.276.29.46.86.46.86s.188.562.22.984c.03.421.022.632 0 .781-.024.148-.118.273-.29.398s-.274.282-.976.516c-.606.202-1.43.199-1.43.199" style="fill:#47b9c8"/></svg>