<svg xmlns="http://www.w3.org/2000/svg" width="64" height="64"><path d="M45 7.223V26l-3-2-23 15-.959 17.244A28 28 0 0 0 32 60a28 28 0 0 0 28-28A28 28 0 0 0 45 7.223" style="fill:#56aad4"/><path d="M32 4A28 28 0 0 0 4 32a28 28 0 0 0 14.041 24.244L19 39l23-15 3 2V7.223A28 28 0 0 0 32 4" style="fill:#f37b21"/><path d="M44.002 7.738V25.82L44 25.816v.004A14 14 0 0 0 42.684 24H44v-2h-3.383A14 14 0 0 0 32 19a14 14 0 0 0-8.635 3H6.258a28 28 0 0 0-.742 2h15.779A14 14 0 0 0 18 33H4a28 28 0 0 0 .193 3H18v7l.002 14.222a28 28 0 0 0 2 1.04V40.178a14 14 0 0 0 2.105 2.715l-.003.004L39.204 60a28 28 0 0 0 2.179-.649L28.596 46.562a14 14 0 0 0 3.406.438h24.22a28 28 0 0 0 1.042-2H39.182a14 14 0 0 0 2.713-2.106l.003.004L59 25.798a28 28 0 0 0-.646-2.181L45.562 36.406a14 14 0 0 0 .44-3.406V8.777a28 28 0 0 0-2-1.039M59 25.798q.099.32.19.643c-.055-.224-.099-.454-.157-.676zM39.203 60q-.303.093-.607.18c.212-.053.428-.093.638-.149zM18 43H5.854a28 28 0 0 0 3.209 6H18zM47.17 9.496c.248.16.506.308.75.476a28 28 0 0 0-.75-.476M12.412 13a28 28 0 0 0-1.857 2H44v-2zm39.527.355c.262.267.506.551.758.828a28 28 0 0 0-.758-.828m1.733 1.942c.266.325.515.666.767 1.004a28 28 0 0 0-.767-1.004m5.801 12.398c.078.396.137.797.199 1.2a28 28 0 0 0-.2-1.2m.394 2.809c.018.212.05.42.067.632q-.03-.316-.067-.632m-4.363 17.664c-.16.248-.309.506-.477.75a28 28 0 0 0 .477-.75m-3.86 4.77c-.247.243-.513.47-.771.706a28 28 0 0 0 .772-.707m-1.964 1.757c-.298.242-.61.47-.918.7a28 28 0 0 0 .918-.7M16.063 56.01q.409.271.828.528c-.276-.178-.56-.342-.828-.528m26.958 2.696c-.462.196-.924.392-1.398.566a28 28 0 0 0 1.398-.566m-8.599 2.17c-.188.016-.369.042-.557.056q.28-.026.557-.056" style="opacity:.2"/><path d="M44.002 6.738V24.82L44 24.816v.004A14 14 0 0 0 42.684 23H44v-2h-3.383A14 14 0 0 0 32 18a14 14 0 0 0-8.635 3H6.258a28 28 0 0 0-.742 2h15.779A14 14 0 0 0 18 32H4a28 28 0 0 0 .193 3H18v7l.002 14.223a28 28 0 0 0 2 1.039V39.18a14 14 0 0 0 2.105 2.715l-.003.003L39.204 59a28 28 0 0 0 2.179-.648l-12.787-12.79a14 14 0 0 0 3.406.438h24.22a28 28 0 0 0 1.042-2H39.182a14 14 0 0 0 2.713-2.105l.003.003L59 24.798a28 28 0 0 0-.646-2.18L45.562 35.405a14 14 0 0 0 .44-3.406V7.777a28 28 0 0 0-2-1.039M59 24.798q.099.32.19.643c-.055-.224-.099-.453-.157-.675zM39.203 59q-.303.093-.607.18c.212-.052.428-.093.638-.149zM18 42H5.854a28 28 0 0 0 3.209 6H18zM47.17 8.496c.248.16.506.309.75.477a28 28 0 0 0-.75-.477M12.412 12a28 28 0 0 0-1.857 2H44v-2zm39.527.355c.262.267.506.552.758.829a28 28 0 0 0-.758-.829m1.733 1.942c.266.326.515.666.767 1.004a28 28 0 0 0-.767-1.004m5.801 12.398c.078.396.137.798.199 1.2a28 28 0 0 0-.2-1.2m.394 2.809c.018.212.05.42.067.633q-.03-.316-.067-.633m-4.363 17.664c-.16.248-.309.506-.477.75a28 28 0 0 0 .477-.75m-3.86 4.77c-.247.244-.513.47-.771.707a28 28 0 0 0 .772-.707m-1.964 1.757c-.298.242-.61.47-.918.7a28 28 0 0 0 .918-.7m-33.617 1.317q.409.27.828.527c-.276-.178-.56-.341-.828-.527m26.958 2.695c-.462.196-.924.392-1.398.566a28 28 0 0 0 1.398-.566m-8.599 2.17c-.188.016-.369.043-.557.057q.28-.026.557-.057" style="fill:#fff"/><path d="M32 4A28 28 0 0 0 4 32a28 28 0 0 0 .018.492A28 28 0 0 1 32 5a28 28 0 0 1 27.975 27.492A28 28 0 0 0 60 32 28 28 0 0 0 32 4" style="fill:#fff;opacity:.2"/><path d="M59.957 32.828A28 28 0 0 1 32 60 28 28 0 0 1 4.045 33.172 28 28 0 0 0 4 34a28 28 0 0 0 .025.52l.02-.348A28 28 0 0 0 32 61a28 28 0 0 0 27.957-27.172 28 28 0 0 1 .025.68A28 28 0 0 0 60 34a28 28 0 0 0-.043-1.172" style="opacity:.2"/></svg>