<svg xmlns="http://www.w3.org/2000/svg" width="64" height="64"><circle cx="32" cy="32" r="27.3" style="fill:#4f4f4f"/><path d="M32 5C16.572 5 4 17.572 4 33s12.572 28 28 28 28-12.572 28-28S47.428 5 32 5m0 6c12.186 0 22 9.814 22 22s-9.814 22-22 22-22-9.814-22-22 9.814-22 22-22m-9.137 6.592a18 18 0 0 0-6.129 25.047l3.393-2.12a13.996 13.996 0 0 1 4.768-19.482zm1.516 6.763a11.51 11.51 0 0 0-1.781 13.999 11.515 11.515 0 0 0 13.127 5.185l-.842-2.88a8.485 8.485 0 0 1-9.701-3.83 8.49 8.49 0 0 1 1.316-10.349zM45.33 36.953a13.997 13.997 0 0 1-19.7 8.567l-1.79 3.576a18 18 0 0 0 15.238.412 18 18 0 0 0 10.09-11.426z" style="opacity:.2"/><circle cx="32" cy="32" r="25" style="fill:none;stroke:#e4e4e4;stroke-width:6;stroke-linejoin:round"/><path d="M47.249 36.518a16 16 0 0 1-8.97 10.155 16 16 0 0 1-13.543-.366m-6.305-5.727a16 16 0 0 1-1.973-12.283 16 16 0 0 1 7.421-9.983" style="fill:none;stroke:#e4e4e4;stroke-width:4;stroke-linejoin:round"/><path d="M35.304 41.098a10 10 0 0 1-11.414-4.507 10 10 0 0 1 1.548-12.174" style="fill:none;stroke:#e4e4e4;stroke-width:3;stroke-linejoin:round"/><path d="M32 4C16.572 4 4 16.572 4 32c0 .168.01.333.014.5C4.283 17.302 16.739 5 32 5c15.26 0 27.717 12.302 27.986 27.5.003-.167.014-.332.014-.5C60 16.572 47.428 4 32 4m-9.137 12.592a18 18 0 0 0-8.347 11.23 18 18 0 0 0-.504 4.756c.036-1.257.2-2.515.504-3.756a18 18 0 0 1 8.347-11.23l1.608 2.724c.143-.09.277-.193.424-.279zm1.516 6.763a11.5 11.5 0 0 0-3.367 8.625 11.5 11.5 0 0 1 3.367-7.625L26.019 26q.227-.268.479-.52zm-.365 8.64a8.5 8.5 0 0 0 1.168 4.833 8.485 8.485 0 0 0 9.7 3.83l.57 1.947c.09-.024.182-.04.273-.066l-.842-2.88a8.485 8.485 0 0 1-9.701-3.83 8.5 8.5 0 0 1-1.168-3.835m-5.994.456a14 14 0 0 0 1.693 7.326l.414-.257a14 14 0 0 1-2.107-7.069m-8.006.049c-.004.167-.014.332-.014.5 0 12.186 9.814 22 22 22s22-9.814 22-22c0-.168-.01-.333-.014-.5C53.721 44.452 44.018 54 32 54s-21.721-9.548-21.986-21.5m35.316 3.453a13.997 13.997 0 0 1-19.7 8.567l-1.79 3.576c.134.067.27.126.406.19l1.385-2.766a13.997 13.997 0 0 0 19.7-8.567l3.54 1.041q.16-.45.297-.912z" style="fill:#fff;opacity:.2"/></svg>