<svg xmlns="http://www.w3.org/2000/svg" width="64" height="64"><rect width="56" height="56" x="4" y="5" rx="16.8" ry="16.8" style="opacity:.2"/><rect width="56" height="56" x="4" y="4" rx="16.8" ry="16.8" style="fill:#e4e4e4"/><circle cx="19.5" cy="32.5" r="10.5" style="opacity:.1"/><circle cx="19.5" cy="31.5" r="10.5" style="fill:#296ec6"/><circle cx="44.5" cy="32.5" r="10.5" style="opacity:.1"/><circle cx="44.5" cy="31.5" r="10.5" style="fill:#e03c90"/><circle cx="50" cy="49" r="14" style="opacity:.2"/><circle cx="50" cy="48" r="14" style="fill:#9a3cdb"/><path d="M49.966 40 44 48h4v8h4v-8h4z" style="fill:#fff"/><path d="M20.8 4C11.495 4 4 11.494 4 20.8v1C4 12.495 11.494 5 20.8 5h22.4C52.505 5 60 12.494 60 21.8v-1C60 11.495 52.506 4 43.2 4z" style="opacity:.2;fill:#fff"/></svg>