<svg xmlns="http://www.w3.org/2000/svg" width="64" height="64"><path d="M12 58c0 3 6 3 6 3h25s3 0 3-3-3-3-3-3-11 0-11-8c0-11 14-11 14-11s6-1 6-12c0-14-6-16-6-16s-7-3-28-3c-2.8 0-6 0-6 3s3.2 3 6 3c3 0 3 5 3 5v35c0 4-3 4-3 4s-6 0-6 3" style="opacity:.2"/><path d="M12 57c0 3 6 3 6 3h25s3 0 3-3-3-3-3-3-11 0-11-8c0-11 14-11 14-11s6-1 6-12c0-14-6-16-6-16s-7-3-28-3c-2.8 0-6 0-6 3s3.2 3 6 3c3 0 3 5 3 5v35c0 4-3 4-3 4s-6 0-6 3" style="fill:#ec4040"/><path d="M30 33s16-.2 16-10-16-10-16-10 2 7 2 10-2 10-2 10" style="opacity:.1"/><path d="M30 32s16-.2 16-10-16-10-16-10 2 7 2 10-2 10-2 10" style="fill:#4f4f4f"/><path d="M18 4c-2.8 0-6 0-6 3q.001.266.035.5C12.38 5.002 15.365 5 18 5c21 0 28 3 28 3s5.82 1.968 5.984 15.44c.003-.152.016-.285.016-.44 0-14-6-16-6-16s-7-3-28-3m14.021 42.488c-.007.17-.021.336-.021.512 0 8 11 8 11 8s2.654.002 2.969 2.5q.03-.234.031-.5c0-3-3-3-3-3s-10.536-.005-10.979-7.512M21 50c0 4-3 4-3 4s-6 0-6 3q.002.266.063.5C12.692 55.002 18 55 18 55s3 0 3-4z" style="fill:#fff;opacity:.2"/><circle cx="47" cy="47.999" r="15" style="opacity:.2"/><circle cx="47" cy="46.999" r="15" style="fill:#42cd68"/><path d="M43 40v14h3v-5l2 5h3l-3-5s3 0 3-3v-3c0-3-3-3-3-3zm3.5 3a1.5 1.5 0 1 1 0 3 1.5 1.5 0 0 1 0-3" style="fill:#fff"/></svg>