<svg xmlns="http://www.w3.org/2000/svg" width="64" height="64"><path d="M32.15 5v.003a6.341 6.367 0 0 0-3.321.847L10.17 16.668A6.341 6.367 0 0 0 7 22.183v21.634a6.341 6.367 0 0 0 3.171 5.513L28.83 60.147a6.341 6.367 0 0 0 6.342 0L53.83 49.33A6.341 6.367 0 0 0 57 43.817V22.183a6.341 6.367 0 0 0-3.171-5.515L35.17 5.85A6.341 6.367 0 0 0 32.15 5" style="opacity:.2"/><path d="M31.943 5.12v.003a6.088 6.112 0 0 0-3.187.813L10.844 16.321A6.088 6.112 0 0 0 7.8 21.615v20.77a6.088 6.112 0 0 0 3.044 5.291l17.912 10.385a6.088 6.112 0 0 0 6.088 0l17.912-10.385a6.088 6.112 0 0 0 3.044-5.292V21.615a6.088 6.112 0 0 0-3.044-5.294L34.844 5.936a6.088 6.112 0 0 0-2.9-.816" style="fill:#3f3f3f"/><path d="M32.148 4v.004a6.3 6.3 0 0 0-2.343.394L29 4.863l-16 9.239v6.93l19-10.97 6.094-3.515-2.922-1.695a6.3 6.3 0 0 0-2.219-.774 6 6 0 0 0-.43-.05A6 6 0 0 0 32.156 4z" style="fill:#f1d41a"/><path d="m13 14.027-2.828 1.641A6.37 6.37 0 0 0 7 21.184v18.32l6 3.465V21.03z" style="fill:#aed447"/><path d="M51 21.031V49.97l2.828-1.64A6.37 6.37 0 0 0 57 42.815v-18.32Z" style="fill:#d25e91"/><path d="M51 42.969 32 53.937l-6.094 3.516 2.922 1.695a6.32 6.32 0 0 0 5.367.454l.805-.465 16-9.235Z" style="fill:#7acdcb"/><path d="M38.004 6.598 32 10.063l25 14.433v-3.312a6.38 6.38 0 0 0-2.508-5.067z" style="fill:#ec8239"/><path d="M7 39.504v3.312c.002 2 .94 3.881 2.531 5.082l.469.27 15.992 9.234L32 53.937 13 42.97Z" style="fill:#5e8a93"/><path d="M32.148 4v.004a6.341 6.367 0 0 0-3.32.848L10.172 15.668A6.341 6.367 0 0 0 7 21.184v1a6.341 6.367 0 0 1 3.172-5.516L28.828 5.852a6.341 6.367 0 0 1 3.32-.848V5a6.341 6.367 0 0 1 3.024.852l18.656 10.816A6.341 6.367 0 0 1 57 22.184v-1a6.341 6.367 0 0 0-3.172-5.516L35.172 4.852A6.341 6.367 0 0 0 32.148 4" style="opacity:.2;fill:#fff"/><path d="M32 15a3 3 0 0 0-3 3 3 3 0 0 0 3 3 3 3 0 0 0 3-3 3 3 0 0 0-3-3m-4 8a3 3 0 0 0-3 3 3 3 0 0 0 3 3 3 3 0 0 0 3-3 3 3 0 0 0-3-3m8 0a3 3 0 0 0-3 3 3 3 0 0 0 3 3 3 3 0 0 0 3-3 3 3 0 0 0-3-3m-12 8a3 3 0 0 0-3 3 3 3 0 0 0 3 3 3 3 0 0 0 3-3 3 3 0 0 0-3-3m8 0a3 3 0 0 0-3 3 3 3 0 0 0 3 3 3 3 0 0 0 3-3 3 3 0 0 0-3-3m8 0a3 3 0 0 0-3 3 3 3 0 0 0 3 3 3 3 0 0 0 3-3 3 3 0 0 0-3-3m-20 8a3 3 0 0 0-3 3 3 3 0 0 0 3 3 3 3 0 0 0 3-3 3 3 0 0 0-3-3m8 0a3 3 0 0 0-3 3 3 3 0 0 0 3 3 3 3 0 0 0 3-3 3 3 0 0 0-3-3m8 0a3 3 0 0 0-3 3 3 3 0 0 0 3 3 3 3 0 0 0 3-3 3 3 0 0 0-3-3m8 0a3 3 0 0 0-3 3 3 3 0 0 0 3 3 3 3 0 0 0 3-3 3 3 0 0 0-3-3" style="opacity:.2"/><circle cx="20" cy="41" r="3" style="fill:#fff"/><circle cx="28" cy="41" r="3" style="fill:#fff"/><circle cx="36" cy="41" r="3" style="fill:#fff"/><circle cx="44" cy="41" r="3" style="fill:#fff"/><circle cx="24" cy="33" r="3" style="fill:#fff"/><circle cx="32" cy="33" r="3" style="fill:#fff"/><circle cx="40" cy="33" r="3" style="fill:#fff"/><circle cx="28" cy="25" r="3" style="fill:#fff"/><circle cx="36" cy="25" r="3" style="fill:#fff"/><circle cx="32" cy="17" r="3" style="fill:#fff"/></svg>