<?xml version="1.0" encoding="UTF-8" standalone="no"?>
<svg
   width="64"
   height="64"
   version="1.1"
   id="svg5"
   sodipodi:docname="poweriso-gui.svg"
   inkscape:version="1.4.4 (dcaf3e7d9e, 2026-05-05)"
   xmlns:inkscape="http://www.inkscape.org/namespaces/inkscape"
   xmlns:sodipodi="http://sodipodi.sourceforge.net/DTD/sodipodi-0.dtd"
   xmlns:xlink="http://www.w3.org/1999/xlink"
   xmlns="http://www.w3.org/2000/svg"
   xmlns:svg="http://www.w3.org/2000/svg">
  <defs
     id="defs5">
    <linearGradient
       id="linearGradient6">
      <stop
         offset="0"
         style="stop-color:#977d4e;stop-opacity:1;"
         id="stop5" />
      <stop
         offset="1"
         style="stop-color:#884a38;stop-opacity:1;"
         id="stop6" />
    </linearGradient>
    <linearGradient
       id="linearGradient7"
       inkscape:collect="always">
      <stop
         style="stop-color:#ff8b45;stop-opacity:1;"
         offset="0"
         id="stop7" />
      <stop
         style="stop-color:#eab150;stop-opacity:1;"
         offset="1"
         id="stop8" />
    </linearGradient>
    <radialGradient
       xlink:href="#a"
       id="c"
       cx="15.717"
       cy="10.069"
       r="15"
       fx="15.717"
       fy="10.069"
       gradientTransform="matrix(-1.3335658,3.2054204,-5.2238854,-2.173317,89.276541,-18.426434)"
       gradientUnits="userSpaceOnUse" />
    <linearGradient
       id="a">
      <stop
         offset="0"
         style="stop-color:#bebebe;stop-opacity:1"
         id="stop1" />
      <stop
         offset="1"
         style="stop-color:#373737;stop-opacity:1"
         id="stop2" />
    </linearGradient>
    <radialGradient
       xlink:href="#b"
       id="d"
       cx="12.889"
       cy="20.523001"
       r="28"
       fx="12.889"
       fy="20.523001"
       gradientTransform="matrix(0.67674732,2.4785298,-1.9512709,0.53278251,44.211675,-22.355834)"
       gradientUnits="userSpaceOnUse" />
    <linearGradient
       id="b">
      <stop
         offset="0"
         style="stop-color:#fff5e2;stop-opacity:1;"
         id="stop3" />
      <stop
         offset="1"
         style="stop-color:#ffeade;stop-opacity:1;"
         id="stop4" />
    </linearGradient>
    <radialGradient
       xlink:href="#linearGradient6"
       id="e"
       cx="15.717"
       cy="10.069"
       r="15"
       fx="15.717"
       fy="10.069"
       gradientTransform="matrix(-1.3335658,3.2054204,-5.2238854,-2.173317,89.276541,-18.426434)"
       gradientUnits="userSpaceOnUse" />
    <filter
       id="f"
       width="1.2263182"
       height="1.2263182"
       x="-0.11315909"
       y="-0.11315909"
       style="color-interpolation-filters:sRGB">
      <feGaussianBlur
         stdDeviation="2.618"
         id="feGaussianBlur4" />
    </filter>
    <radialGradient
       inkscape:collect="always"
       xlink:href="#linearGradient7"
       id="radialGradient8"
       cx="26.642181"
       cy="51.727009"
       fx="26.642181"
       fy="51.727009"
       r="26.148921"
       gradientUnits="userSpaceOnUse"
       gradientTransform="matrix(0,-2.4468727,2.4468727,0,-62.665511,129.31169)" />
  </defs>
  <sodipodi:namedview
     id="namedview5"
     pagecolor="#ffffff"
     bordercolor="#000000"
     borderopacity="0.25"
     inkscape:showpageshadow="2"
     inkscape:pageopacity="0.0"
     inkscape:pagecheckerboard="0"
     inkscape:deskcolor="#d1d1d1"
     inkscape:zoom="9.1838331"
     inkscape:cx="29.72615"
     inkscape:cy="40.995954"
     inkscape:current-layer="svg5" />
  <g
     id="g10"
     transform="translate(-8.1553674e-5,-8.1553674e-5)">
    <path
       d="M 32,17 A 15,15 0 0 0 17,32 15,15 0 0 0 32,47 15,15 0 0 0 47,32 15,15 0 0 0 32,17 m 0,9 a 6,6 0 0 1 6,6 6,6 0 0 1 -6,6 6,6 0 0 1 -6,-6 6,6 0 0 1 6,-6"
       style="fill:url(#c)"
       transform="matrix(0.93094,0,0,0.93094,2.21,2.21)"
       id="path4" />
    <path
       d="M 32,4 A 28,28 0 0 0 4,32 28,28 0 0 0 32,60 28,28 0 0 0 60,32 28,28 0 0 0 32,4 m 0,16 A 12,12 0 0 1 44,32 12,12 0 0 1 32,44 12,12 0 0 1 20,32 12,12 0 0 1 32,20"
       style="fill:url(#d)"
       transform="matrix(0.93094,0,0,0.93094,2.21,2.21)"
       id="path5" />
    <path
       d="M 32,17 A 15,15 0 0 0 17,32 15,15 0 0 0 32,47 15,15 0 0 0 47,32 15,15 0 0 0 32,17 m 0,9 a 6,6 0 0 1 6,6 6,6 0 0 1 -6,6 6,6 0 0 1 -6,-6 6,6 0 0 1 6,-6"
       style="opacity:0.58358028;fill:url(#e)"
       id="path6-3"
       transform="matrix(0.93094,0,0,0.93094,2.21,2.21)" />
    <g
       style="mix-blend-mode:normal;fill:none;stroke:#000000;stroke-width:0.107418;stroke-dasharray:none;stroke-opacity:1;filter:url(#f)"
       transform="matrix(0.93094,0,0,0.93094,2.21,2.21)"
       id="g9">
      <path
         d="M 32,17 A 15,15 0 0 0 17,32 15,15 0 0 0 32,47 15,15 0 0 0 47,32 15,15 0 0 0 32,17 Z m 0,9 a 6,6 0 0 1 6,6 6,6 0 0 1 -6,6 6,6 0 0 1 -6,-6 6,6 0 0 1 6,-6 z"
         style="fill:none;stroke:#000000;stroke-width:0.107418;stroke-dasharray:none;stroke-opacity:1"
         id="path7-3" />
      <path
         d="M 32,4 A 28,28 0 0 0 4,32 28,28 0 0 0 32,60 28,28 0 0 0 60,32 28,28 0 0 0 32,4 Z m 0,16 A 12,12 0 0 1 44,32 12,12 0 0 1 32,44 12,12 0 0 1 20,32 12,12 0 0 1 32,20 Z"
         style="fill:none;stroke:#000000;stroke-width:0.107418;stroke-dasharray:none;stroke-opacity:1"
         id="path8" />
      <path
         d="M 32,17 A 15,15 0 0 0 17,32 15,15 0 0 0 32,47 15,15 0 0 0 47,32 15,15 0 0 0 32,17 Z m 0,9 a 6,6 0 0 1 6,6 6,6 0 0 1 -6,6 6,6 0 0 1 -6,-6 6,6 0 0 1 6,-6 z"
         style="opacity:0.305456;fill:none;stroke:#000000;stroke-width:0.107418;stroke-dasharray:none;stroke-opacity:1"
         id="path9" />
    </g>
  </g>
  <path
     d="M 32,5.851079 A 26.148921,26.148921 0 0 0 5.8510789,32 26.148921,26.148921 0 0 0 32,58.148921 26.148921,26.148921 0 0 0 58.148921,32 26.148921,26.148921 0 0 0 32,5.851079 Z m 0,3.7355602 a 22.413361,22.413361 0 0 1 18.347656,9.5596048 l -4.910219,8.928499 A 14.008351,14.008351 0 0 0 32,17.991649 14.008351,14.008351 0 0 0 18.002594,31.770175 L 12.160308,42.394998 A 22.413361,22.413361 0 0 1 9.5866391,32 22.413361,22.413361 0 0 1 32,9.5866392 Z M 32,20.79332 A 11.20668,11.20668 0 0 1 43.20668,32 11.20668,11.20668 0 0 1 32,43.20668 11.20668,11.20668 0 0 1 20.79332,32 11.20668,11.20668 0 0 1 32,20.79332 Z m 19.839692,0.811682 A 22.413361,22.413361 0 0 1 54.413361,32 22.413361,22.413361 0 0 1 32,54.413361 22.413361,22.413361 0 0 1 13.652344,44.853756 l 4.910219,-8.928499 A 14.008351,14.008351 0 0 0 32,46.008351 14.008351,14.008351 0 0 0 45.997406,32.229825 Z"
     style="fill:url(#radialGradient8);stroke-width:0.93389;fill-opacity:1"
     id="path7" />
</svg>
