<svg xmlns="http://www.w3.org/2000/svg" xmlns:xlink="http://www.w3.org/1999/xlink" width="64" height="64"><defs><radialGradient xlink:href="#a" id="e" cx="16.377" cy="14.739" r="28" fx="16.377" fy="14.739" gradientTransform="rotate(123.965 33.555 19.097)scale(2.54327 2.33094)" gradientUnits="userSpaceOnUse"/><radialGradient xlink:href="#a" id="c" cx="16.377" cy="-70.715" r="10" fx="16.377" fy="-70.715" gradientTransform="rotate(123.965 -60.891 -248.791)scale(7.12113 6.5266)" gradientUnits="userSpaceOnUse"/><filter id="d" width="1.022" height="1.442" x="-.011" y="-.221" style="color-interpolation-filters:sRGB"><feGaussianBlur stdDeviation=".254"/></filter><filter id="b" width="1.061" height="1.203" x="-.031" y="-.102" style="color-interpolation-filters:sRGB"><feGaussianBlur stdDeviation=".254"/></filter><linearGradient id="a"><stop offset="0" style="stop-color:#ffba00;stop-opacity:1"/><stop offset="1" style="stop-color:#ff7000;stop-opacity:1"/></linearGradient></defs><path d="M22 52.3c1.478 3.476 5.374 6 10 6s8.522-2.524 10-6h-.514c-1.748 2.948-5.115 3.62-9.284 3.62-4.168 0-7.94-.672-9.688-3.62z" style="opacity:.434488;mix-blend-mode:normal;filter:url(#b)"/><path d="M22 52c1.477 3.475 5.373 6 10 6s8.523-2.525 10-6z" style="fill:url(#c)"/><path d="M59.948 49.54c-.295 1.133-2.022 1.05-5.517 1.05l-44.777.02c-3.49.002-5.305.065-5.602-1.066-.328 1.756.84 2.756 5.25 2.756h45.394c4.414 0 5.582-1.002 5.252-2.76" style="opacity:.434488;mix-blend-mode:normal;filter:url(#d)"/><path d="M10.74 32.484C10.74 43.732-3.431 52 9.325 52h45.352c12.756 0-1.416-8.268-1.416-19.516C53.26 19.939 47.59 6 32 6S10.74 19.94 10.74 32.484" style="fill:url(#e)"/></svg>