<svg xmlns="http://www.w3.org/2000/svg" xmlns:xlink="http://www.w3.org/1999/xlink" xml:space="preserve" width="64" height="64"><defs><filter id="d" width="1.158" height="1.128" x="-.079" y="-.064" style="color-interpolation-filters:sRGB"><feGaussianBlur stdDeviation=".955"/></filter><filter id="c" width="1.199" height="1.199" x="-.1" y="-.1" style="color-interpolation-filters:sRGB"><feGaussianBlur stdDeviation="2.281"/></filter><radialGradient xlink:href="#a" id="b" cx="2.416" cy="39.791" r="28" fx="2.416" fy="39.791" gradientTransform="rotate(90 60.593 66.814)scale(2.65076)" gradientUnits="userSpaceOnUse"/><linearGradient id="a"><stop offset="0" style="stop-color:#ff829b;stop-opacity:1"/><stop offset="1" style="stop-color:#b650ff;stop-opacity:1"/></linearGradient></defs><g transform="translate(-21.52 -12.52)"><circle cx="53.573" cy="44.622" r="26.283" style="fill:url(#b);stroke-width:.938665"/><circle cx="31.944" cy="31.892" r="28" style="fill:none;stroke:#000;stroke-width:.213069;stroke-dasharray:none;stroke-opacity:1;filter:url(#c)" transform="translate(23.536 14.585)scale(.93867)"/></g><path d="M31.418 13.378A4.083 4.083 0 0 0 32 21.502a4.087 4.087 0 0 0 4.083-4.083 4.083 4.083 0 0 0-4.665-4.04m-12.746 8.126c-1.11.042-1.834 1.26-1.834 2.386 0 1.274 1.143 1.88 2.299 2.315v.021l6.942 2.168c.71.272.898.55.99.79.302.772.062 2.301-.024 2.835l-.422 3.281-2.347 12.844q-.011.052-.02.107l-.016.092c-.17 1.178.695 2.32 2.332 2.32 1.429 0 2.06-.986 2.334-2.328 0 0 2.04-11.487 3.06-11.487s3.124 11.487 3.124 11.487c.274 1.342.904 2.328 2.333 2.328 1.642 0 2.507-1.147 2.334-2.328a4 4 0 0 0-.056-.296L37.32 35.3l-.42-3.28c-.306-1.91-.061-2.542.022-2.69l.005-.012c.08-.146.439-.472 1.276-.786l6.507-2.275a1 1 0 0 0 .12-.038c1.166-.437 2.332-1.042 2.332-2.327s-.946-2.694-2.331-2.33l-.033.008-.032.009q-.109.03-.218.065c-1.357.398-7.942 2.253-12.58 2.253-4.311 0-10.3-1.602-12.216-2.147a5 5 0 0 0-.583-.189 1.7 1.7 0 0 0-.498-.057" style="fill:#fff;fill-opacity:1;stroke-width:.0729035"/><path d="M31.418 13.379A4.083 4.083 0 0 0 32 21.502a4.087 4.087 0 0 0 4.083-4.083 4.083 4.083 0 0 0-4.665-4.04zm-12.746 8.125c-1.11.043-1.834 1.261-1.834 2.386 0 1.274 1.143 1.88 2.299 2.315v.021l6.942 2.168c.71.272.898.55.99.79.302.772.062 2.302-.024 2.835l-.422 3.281-2.347 12.844q-.012.052-.02.107l-.016.093c-.17 1.177.695 2.32 2.332 2.32 1.429 0 2.06-.987 2.334-2.33 0 0 2.04-11.486 3.06-11.486s3.124 11.487 3.124 11.487c.274 1.342.904 2.329 2.333 2.329 1.642 0 2.507-1.148 2.334-2.33a4 4 0 0 0-.056-.294L37.32 35.3l-.42-3.279c-.306-1.91-.061-2.542.022-2.69l.005-.013c.08-.145.439-.472 1.276-.786l6.507-2.274a1 1 0 0 0 .12-.039c1.166-.437 2.331-1.042 2.331-2.327s-.945-2.694-2.33-2.33l-.033.008-.032.01q-.109.03-.218.064c-1.357.398-7.942 2.254-12.58 2.254-4.311 0-10.3-1.603-12.216-2.148a5 5 0 0 0-.583-.188 1.7 1.7 0 0 0-.498-.058z" style="fill:none;fill-opacity:1;stroke:#4100ff;stroke-width:.2;stroke-dasharray:none;stroke-opacity:1;filter:url(#d)"/></svg>