<svg xmlns="http://www.w3.org/2000/svg" xmlns:xlink="http://www.w3.org/1999/xlink" width="64" height="64"><defs><filter id="i" width="1.26" height="1.26" x="-.13" y="-.13" style="color-interpolation-filters:sRGB"><feGaussianBlur stdDeviation=".391"/></filter><filter id="h" width="1.26" height="1.26" x="-.13" y="-.13" style="color-interpolation-filters:sRGB"><feGaussianBlur stdDeviation=".391"/></filter><filter id="g" width="1.26" height="1.26" x="-.13" y="-.13" style="color-interpolation-filters:sRGB"><feGaussianBlur stdDeviation=".391"/></filter><filter id="f" width="1.147" height="1.612" x="-.074" y="-.306" style="color-interpolation-filters:sRGB"><feGaussianBlur stdDeviation="1.672"/></filter><filter id="d" width="1.146" height="1.199" x="-.073" y="-.099" style="color-interpolation-filters:sRGB"><feGaussianBlur stdDeviation="1.658"/></filter><radialGradient xlink:href="#a" id="e" cx="26.667" cy="29.029" r="28" fx="26.667" fy="29.029" gradientTransform="matrix(0 1.3507 -1.52146 0 48.174 -32.592)" gradientUnits="userSpaceOnUse"/><radialGradient xlink:href="#b" id="c" cx="9.794" cy="53.224" r="27.922" fx="9.794" fy="53.224" gradientTransform="matrix(2.4419 0 0 2.23273 -9.175 -76.744)" gradientUnits="userSpaceOnUse"/><linearGradient id="a"><stop offset="0" style="stop-color:#2563a2;stop-opacity:1"/><stop offset="1" style="stop-color:#266fd8;stop-opacity:1"/></linearGradient><linearGradient id="b"><stop offset="0" style="stop-color:#00baff;stop-opacity:1"/><stop offset="1" style="stop-color:#007aff;stop-opacity:1"/></linearGradient></defs><g transform="translate(-41.466 -1.293)"><path d="M9.954 11.427h44.092a5.876 5.876 45 0 1 5.876 5.876v29.394a5.876 5.876 135 0 1-5.876 5.876H9.954a5.876 5.876 45 0 1-5.876-5.876V17.303a5.876 5.876 135 0 1 5.876-5.876" style="fill:url(#c);fill-opacity:1;stroke-width:.4" transform="matrix(.94793 0 0 .83397 43.136 10.31)"/><path d="M9.954 11.427h44.092a5.876 5.876 45 0 1 5.876 5.876v29.394a5.876 5.876 135 0 1-5.876 5.876H9.954a5.876 5.876 45 0 1-5.876-5.876V17.303a5.876 5.876 135 0 1 5.876-5.876z" style="mix-blend-mode:normal;fill:none;fill-opacity:1;stroke:#000;stroke-width:.213131;stroke-dasharray:none;stroke-opacity:1;filter:url(#d)" transform="matrix(.94793 0 0 .83397 43.008 10.335)"/><path d="M4.076 9.774 4 17.361h56V9.88c0-3.247-2.632-5.907-5.878-5.917A26224 26224 0 0 0 10.013 3.9a5.945 5.945 0 0 0-5.937 5.874" style="fill:url(#e);fill-opacity:1" transform="translate(43.15 9.18)scale(.9475)"/><path d="M4.076 9.774 4 17.361h56V9.88c0-3.247-2.632-5.907-5.878-5.917A26224 26224 0 0 0 10.013 3.9a5.945 5.945 0 0 0-5.937 5.874Z" style="fill:none;fill-opacity:1;stroke:#000;stroke-width:.211082;stroke-dasharray:none;stroke-opacity:1;filter:url(#f)" transform="translate(43.18 9.206)scale(.9475)"/><circle cx="53.397" cy="19.464" r="2.922" style="fill:#ff8383;fill-opacity:1;stroke-width:.730536"/><circle cx="62.164" cy="19.464" r="2.922" style="fill:#ffdb7f;fill-opacity:1;stroke-width:.730536"/><circle cx="70.93" cy="19.464" r="2.922" style="fill:#7fff96;fill-opacity:1;stroke-width:.730536"/><circle cx="12" cy="20.155" r="4" style="mix-blend-mode:normal;fill:none;stroke:#f44a4f;stroke-width:.2;stroke-dasharray:none;stroke-opacity:1;filter:url(#g)" transform="translate(44.532 4.762)scale(.73054)"/><circle cx="24" cy="20.155" r="4" style="mix-blend-mode:normal;fill:none;stroke:#ffce00;stroke-width:.2;stroke-dasharray:none;stroke-opacity:1;filter:url(#h)" transform="translate(44.532 4.762)scale(.73054)"/><circle cx="36" cy="20.155" r="4" style="mix-blend-mode:normal;fill:none;stroke:#00ff7c;stroke-width:.2;stroke-dasharray:none;stroke-opacity:1;filter:url(#i)" transform="translate(44.532 4.762)scale(.73054)"/></g></svg>