<svg xmlns="http://www.w3.org/2000/svg" xmlns:xlink="http://www.w3.org/1999/xlink" width="64" height="64"><defs><radialGradient xlink:href="#a" id="b" cx="14.827" cy="15.78" r="19.89" fx="14.827" fy="15.78" gradientTransform="matrix(0 4.26827 -4.14692 0 71.826 -56.118)" gradientUnits="userSpaceOnUse"/><linearGradient id="a"><stop offset="0" style="stop-color:#00d2ff;stop-opacity:1"/><stop offset="1" style="stop-color:#00acff;stop-opacity:1"/></linearGradient><filter id="c" width="1.256" height="1.264" x="-.128" y="-.132" style="color-interpolation-filters:sRGB"><feGaussianBlur stdDeviation="2.099"/></filter></defs><path d="M52.034 7.36c-1.707.047-3.42.27-5.093.506-7.689 1.292-15.224 4.585-20.747 10.194-.248.201-.447.627-.83.49a219 219 0 0 0-4.9-.694c-2.875-.319-5.847 1.007-7.533 3.358-1.974 2.8-3.901 5.63-5.857 8.443-.92 1.29-.34 3.286 1.094 3.928.948.393 2.001.31 3 .461 2.107.272 4.28.369 6.347.73-.02 2.799 1.012 5.646 3.07 7.586 1.76 1.71 4.17 2.663 6.603 2.81.146 3.023.202 6.051.35 9.073.12 1.791 2.327 2.997 3.893 2.1 3.005-1.785 5.978-3.63 8.964-5.45 2.328-1.48 3.832-4.158 3.829-6.924-.056-1.878-.207-3.753-.294-5.63 6.366-5.117 10.483-12.614 12.428-20.465.725-3.24 1.415-6.65.73-9.953-1.648-.476-3.348-.61-5.054-.563m-10.419 9.168c1.742.045 3.453.907 4.484 2.322 1.32 1.71 1.524 4.182.526 6.096-1.009 2.013-3.278 3.333-5.533 3.139-3.076-.11-5.671-3.049-5.396-6.116.1-2.751 2.436-5.178 5.174-5.409q.372-.042.745-.032M12.83 38.062a1.2 1.2 0 0 0-.792.334c-1.522 1.399-3.048 2.79-4.557 4.203-.754.68-.33 2.12.678 2.267.8.083 1.609.083 2.411.122-.68 1.9-1.442 3.771-2.127 5.67-.313.905.632 1.926 1.56 1.676 1.942-.529 3.866-1.124 5.807-1.661-.018.806-.088 1.614-.07 2.419.067 1.016 1.461 1.566 2.202.862a577 577 0 0 0 4.619-4.26c.685-.672.314-1.953-.596-2.21-3.707-1.357-6.664-4.565-7.712-8.37-.123-.663-.789-1.08-1.423-1.052" style="fill:url(#b);fill-opacity:1;stroke-width:.135674"/><path d="M47.177 13.738c-1.338.036-2.682.212-3.992.396-6.029 1.013-11.936 3.595-16.266 7.992-.195.158-.351.492-.65.385-1.28-.194-2.56-.38-3.842-.545-2.255-.25-4.585.79-5.907 2.633-1.547 2.194-3.058 4.415-4.591 6.619-.722 1.012-.267 2.577.857 3.08.744.308 1.57.244 2.352.361 1.652.213 3.356.29 4.976.573-.015 2.194.793 4.426 2.406 5.947 1.38 1.34 3.27 2.088 5.178 2.203.114 2.37.158 4.744.274 7.113.095 1.404 1.824 2.35 3.052 1.647 2.356-1.4 4.687-2.846 7.028-4.274 1.825-1.159 3.004-3.259 3.002-5.427-.044-1.473-.162-2.943-.23-4.414 4.99-4.012 8.218-9.89 9.743-16.045.569-2.54 1.11-5.214.573-7.803-1.292-.374-2.625-.478-3.963-.441zm-8.168 7.187c1.365.035 2.707.711 3.515 1.82 1.034 1.342 1.195 3.28.413 4.78-.791 1.578-2.57 2.613-4.338 2.46-2.412-.085-4.446-2.39-4.23-4.794.078-2.157 1.91-4.06 4.056-4.24q.291-.032.584-.026zM16.44 37.808a.94.94 0 0 0-.62.262c-1.194 1.096-2.39 2.187-3.573 3.295-.591.533-.259 1.662.531 1.777.627.065 1.262.065 1.89.096-.533 1.49-1.13 2.956-1.667 4.445-.245.71.495 1.51 1.223 1.314 1.522-.414 3.031-.881 4.552-1.302-.013.632-.068 1.265-.054 1.896.053.797 1.145 1.228 1.726.676a453 453 0 0 0 3.621-3.34c.538-.527.247-1.53-.466-1.732-2.907-1.064-5.225-3.58-6.047-6.563-.096-.52-.619-.846-1.116-.824z" style="mix-blend-mode:normal;fill:none;fill-opacity:1;stroke:#000;stroke-width:.106368;stroke-opacity:1;filter:url(#c)" transform="translate(-8.14 -10.163)scale(1.27551)"/></svg>