<svg xmlns="http://www.w3.org/2000/svg" xmlns:xlink="http://www.w3.org/1999/xlink" width="64" height="64"><defs><radialGradient xlink:href="#a" id="b" cx="18.851" cy="50.033" r="29" fx="18.851" fy="50.033" gradientTransform="rotate(-30 -25.452 80.915)scale(1.56197 1.5081)" gradientUnits="userSpaceOnUse"/><linearGradient id="a"><stop offset="0" style="stop-color:#ffbc2c;stop-opacity:1"/><stop offset="1" style="stop-color:#ff612c;stop-opacity:1"/></linearGradient><filter id="c" width="1.147" height="1.152" x="-.073" y="-.076" style="color-interpolation-filters:sRGB"><feGaussianBlur stdDeviation="1.687"/></filter></defs><path d="M32 5.085c-2.513.036-4.305 1.55-5.146 4.056l.03-.113-3.949 11.438H9.534c-1.59.051-3.025.985-4.035 2.215-2.185 2.508-1.72 7.031 1.054 8.901l10.468 7.653-4.062 12.622-.014.042c-.62 2.04-.037 4.14 1.525 5.578l.037.032c1.877 1.668 4.513 1.88 6.632.5q.06-.04.12-.084L32 50.265l10.741 7.66q.06.044.12.083c2.12 1.38 4.755 1.169 6.632-.5l.037-.031c1.562-1.437 2.145-3.539 1.525-5.578l-.014-.042-4.062-12.622 10.468-7.653c2.775-1.87 3.239-6.393 1.054-8.9-1.01-1.23-2.445-2.165-4.035-2.216H41.065L37.116 9.028l.03.113c-.84-2.506-2.633-4.02-5.146-4.056" style="fill:url(#b);stroke-width:.961274"/><path d="M32 4c-2.614.037-4.479 1.612-5.354 4.219l.032-.118L22.57 20H8.63c-1.654.053-3.146 1.025-4.197 2.304-2.273 2.61-1.79 7.314 1.095 9.26l10.891 7.961-4.227 13.131-.013.043c-.646 2.121-.039 4.308 1.586 5.803l.039.033c1.952 1.735 4.694 1.956 6.898.52q.064-.042.125-.087L32 51l11.174 7.968q.061.046.125.086c2.204 1.437 4.946 1.216 6.898-.52l.04-.032c1.624-1.495 2.231-3.682 1.585-5.803l-.013-.043-4.227-13.13 10.89-7.962c2.887-1.946 3.37-6.65 1.096-9.26-1.05-1.279-2.543-2.25-4.197-2.304H41.43L37.322 8.1l.032.118c-.875-2.607-2.74-4.182-5.354-4.22z" style="fill:none;fill-opacity:1;stroke:#000;stroke-width:.4;stroke-dasharray:none;stroke-opacity:1;filter:url(#c)" transform="translate(1.24 1.24)scale(.96127)"/></svg>