<svg xmlns="http://www.w3.org/2000/svg" xmlns:xlink="http://www.w3.org/1999/xlink" width="64" height="64"><defs><radialGradient xlink:href="#a" id="b" cx="55.162" cy="-10.206" r="26.945" fx="55.162" fy="-10.206" gradientTransform="rotate(-45 210.335 153.289)scale(2.47883 2.46816)" gradientUnits="userSpaceOnUse"/><radialGradient id="a" cx="-159.431" cy="15.463" r="64.707" fx="-159.431" fy="15.463" gradientTransform="matrix(-.89413 0 0 .96305 -13.556 37.152)" gradientUnits="userSpaceOnUse"><stop offset="0" style="stop-color:#006fff;stop-opacity:1"/><stop offset="1" style="stop-color:#15baff;stop-opacity:1"/></radialGradient><filter id="c" width="1.14" height="1.141" x="-.07" y="-.07" style="color-interpolation-filters:sRGB"><feGaussianBlur stdDeviation="1.585"/></filter></defs><path d="M28.706 9.82c-1.057 1.32-1.916 2.708-3.171 3.831a5.45 5.45 0 0 1-2.114 1.322c-.397.132-.793.132-1.256.066s-.859-.198-1.123-.463c-.529-.396-.793-1.057-1.057-1.718-.264-.66-.463-1.255-.859-1.783a2.98 2.98 0 0 0-1.652-1.124c-.594-.198-1.321-.264-1.916-.066-1.321.265-3.04 1.85-3.898 2.841-.66.793-1.057 1.718-1.123 2.71 0 .528.066.99.198 1.519.198.462.462.859.925 1.19.529.396 1.255.594 1.916.858.33.066.66.264.925.397.33.198.529.396.727.726s.33.727.264 1.057c0 .397-.066.727-.198 1.124-.264.66-.793 1.321-1.322 1.85-2.775 3.039-5.88 5.748-9.183 8.126-.529.397-.727 1.124-.463 1.784a49.3 49.3 0 0 0 4.295 7.202c.594.859 1.255 1.784 2.18 2.312.463.33.991.463 1.52.463.528 0 1.057-.132 1.52-.463.33-.198.396-.396.594-.726s.33-.727.462-1.123c.199-.727.265-1.718.727-2.445a3.94 3.94 0 0 1 1.652-1.255c.66-.265 1.454-.265 2.114-.133 1.454.265 2.71 1.256 3.832 2.247.925.925 1.916 2.18 2.247 3.435q.198.992 0 1.983c-.132.66-.529 1.189-.991 1.651-.397.265-.86.463-1.322.661s-.859.198-1.387.33c-.463.199-1.19.133-1.52.463-.396.264-.528.529-.66 1.057-.067.33-.067.727 0 1.057.066.33.264.66.33.991.99 2.048 2.709 3.898 4.559 5.22 1.718 1.19 3.568 1.982 5.616 2.312.462.066.925-.132 1.321-.528l4.757-6.343c.925-1.19 1.652-2.312 2.71-3.37.528-.528 1.32-.925 1.981-1.189.397-.132.727-.198 1.19-.132.396 0 .792.132 1.123.33q.495.298.793.793c.198.33.396.66.528.925.264.66.595 1.388.991 1.916.397.529.991.991 1.586 1.19.66.264 1.321.264 2.048.198 1.388-.199 3.04-1.454 3.832-2.511.727-.859 1.123-1.916 1.19-3.04 0-.528-.067-1.122-.33-1.651-.199-.463-.595-.991-.926-1.321-.594-.463-1.255-.727-1.982-1.058-.33-.198-.66-.264-.925-.528a2.3 2.3 0 0 1-.793-.793c-.33-.463-.396-1.057-.396-1.586 0-.528.264-1.057.594-1.52q.199-.396.595-.594c3.304-2.379 6.343-4.625 9.382-7.4.463-.462.595-1.123.33-1.652-1.52-2.709-3.435-5.55-5.351-7.994-.66-.793-1.388-1.652-2.313-2.18a3.9 3.9 0 0 0-1.52-.331c-.528 0-1.056.264-1.387.595-.264.264-.396.66-.462.99-.132.397-.132.794-.199 1.124-.066.727.067.991-.264 1.718a3.35 3.35 0 0 1-1.652 1.652q-1.09.495-2.378.396c-.793-.132-1.586-.396-2.313-.859-.66-.396-1.387-1.123-1.982-1.718-.859-.99-1.652-2.18-1.85-3.568-.132-.66 0-1.321.198-1.916a3.2 3.2 0 0 1 1.124-1.52c.66-.528 1.52-.198 2.312-.462.397-.132.86-.198 1.322-.396.396-.265.726-.463.99-.86.265-.396.331-.858.397-1.32-.066-.463-.132-.926-.33-1.388-.397-.793-1.784-2.18-1.784-2.18-3.04-2.775-7.268-5.154-7.268-5.154-.595-.462-1.388-.33-1.916.198Z" class="st1" style="fill:url(#b);stroke-width:.934384"/><path d="M28.706 9.82c-1.057 1.32-1.916 2.708-3.171 3.831a5.45 5.45 0 0 1-2.114 1.322c-.397.132-.793.132-1.256.066s-.859-.198-1.123-.463c-.529-.396-.793-1.057-1.057-1.718-.264-.66-.463-1.255-.859-1.783a2.98 2.98 0 0 0-1.652-1.124c-.594-.198-1.321-.264-1.916-.066-1.321.265-3.04 1.85-3.898 2.841-.66.793-1.057 1.718-1.123 2.71 0 .528.066.99.198 1.519.198.462.462.859.925 1.19.529.396 1.255.594 1.916.858.33.066.66.264.925.397.33.198.529.396.727.726s.33.727.264 1.057c0 .397-.066.727-.198 1.124-.264.66-.793 1.321-1.322 1.85-2.775 3.039-5.88 5.748-9.183 8.126-.529.397-.727 1.124-.463 1.784a49.3 49.3 0 0 0 4.295 7.202c.594.859 1.255 1.784 2.18 2.312.463.33.991.463 1.52.463.528 0 1.057-.132 1.52-.463.33-.198.396-.396.594-.726s.33-.727.462-1.123c.199-.727.265-1.718.727-2.445a3.94 3.94 0 0 1 1.652-1.255c.66-.265 1.454-.265 2.114-.133 1.454.265 2.71 1.256 3.832 2.247.925.925 1.916 2.18 2.247 3.435q.198.992 0 1.983c-.132.66-.529 1.189-.991 1.651-.397.265-.86.463-1.322.661s-.859.198-1.387.33c-.463.199-1.19.133-1.52.463-.396.264-.528.529-.66 1.057-.067.33-.067.727 0 1.057.066.33.264.66.33.991.99 2.048 2.709 3.898 4.559 5.22 1.718 1.19 3.568 1.982 5.616 2.312.462.066.925-.132 1.321-.528l4.757-6.343c.925-1.19 1.652-2.312 2.71-3.37.528-.528 1.32-.925 1.981-1.189.397-.132.727-.198 1.19-.132.396 0 .792.132 1.123.33q.495.298.793.793c.198.33.396.66.528.925.264.66.595 1.388.991 1.916.397.529.991.991 1.586 1.19.66.264 1.321.264 2.048.198 1.388-.199 3.04-1.454 3.832-2.511.727-.859 1.123-1.916 1.19-3.04 0-.528-.067-1.122-.33-1.651-.199-.463-.595-.991-.926-1.321-.594-.463-1.255-.727-1.982-1.058-.33-.198-.66-.264-.925-.528a2.3 2.3 0 0 1-.793-.793c-.33-.462-.396-1.057-.396-1.586 0-.528.264-1.057.594-1.52q.199-.396.595-.594c3.304-2.379 6.343-4.625 9.382-7.4.463-.462.595-1.123.33-1.652-1.52-2.709-3.435-5.55-5.351-7.994-.66-.793-1.388-1.652-2.313-2.18a3.9 3.9 0 0 0-1.52-.331c-.528 0-1.056.264-1.387.595-.264.264-.396.66-.462.99-.132.397-.132.794-.199 1.124-.066.727.067.991-.264 1.718a3.35 3.35 0 0 1-1.652 1.652q-1.09.495-2.378.396c-.793-.132-1.586-.396-2.313-.859-.66-.396-1.387-1.123-1.982-1.718-.859-.99-1.652-2.18-1.85-3.568-.132-.66 0-1.321.198-1.916a3.2 3.2 0 0 1 1.124-1.52c.66-.528 1.52-.198 2.312-.462.397-.132.86-.198 1.322-.396.396-.265.726-.463.99-.86.265-.396.331-.858.397-1.32-.066-.463-.132-.926-.33-1.388-.397-.793-1.784-2.18-1.784-2.18-3.04-2.775-7.268-5.154-7.268-5.154-.595-.462-1.388-.33-1.916.198Z" class="st1" style="fill:none;stroke-width:.2;stroke:#000;stroke-opacity:1;stroke-dasharray:none;filter:url(#c)"/></svg>