<svg xmlns="http://www.w3.org/2000/svg" xmlns:xlink="http://www.w3.org/1999/xlink" width="64" height="64"><defs><radialGradient xlink:href="#a" id="b" cx="9.775" cy="45.003" r="26" fx="9.775" fy="45.003" gradientTransform="rotate(42.856 168.696 91.544)scale(1.84389 3.61762)" gradientUnits="userSpaceOnUse"/><linearGradient id="a"><stop offset="0" style="stop-color:#3dc1fd;stop-opacity:1"/><stop offset="1" style="stop-color:#006fff;stop-opacity:1"/></linearGradient><filter id="c" width="1.227" height="1.277" x="-.114" y="-.139" style="color-interpolation-filters:sRGB"><feGaussianBlur stdDeviation="2.441"/></filter></defs><path fill="#36aca3" d="M58 42.84V21.16A10.46 10.46 45 0 0 47.539 10.7H16.46A10.46 10.46 135 0 0 6 21.16v21.68A10.46 10.46 45 0 0 16.461 53.3H47.54A10.46 10.46 135 0 0 58 42.84" style="fill:url(#b)"/><path d="M45.326 17.465c-2.067 0-4.133 1.092-5.717 3.277L29.422 34.797 39.47 48.66c.975 1.345 1.646 2.946 2.021 4.64h6.047C53.316 53.3 58 48.618 58 42.84v-12.5l-6.957-9.598c-1.584-2.185-3.65-3.277-5.717-3.277" style="opacity:.28238342;fill:#0011a3;fill-opacity:1"/><path d="M19.344 25.506c-2.067 0-4.133 1.092-5.717 3.277L6 39.305v3.535A10.46 10.46 0 0 0 16.46 53.3h25.032c-.375-1.694-1.046-3.295-2.021-4.64L25.063 28.783c-1.584-2.185-3.652-3.277-5.72-3.277" style="opacity:.49481865;fill:#000974;fill-opacity:1"/><path fill="#36aca3" d="M58 42.84V21.16A10.46 10.46 45 0 0 47.539 10.7H16.46A10.46 10.46 135 0 0 6 21.16v21.68A10.46 10.46 45 0 0 16.461 53.3H47.54A10.46 10.46 135 0 0 58 42.84Z" style="fill:none;stroke:#000;stroke-width:.0999999;stroke-dasharray:none;stroke-opacity:1;filter:url(#c)"/></svg>