<svg xmlns="http://www.w3.org/2000/svg" xmlns:xlink="http://www.w3.org/1999/xlink" width="64" height="64"><defs><filter id="d" width="1.111" height="1.077" x="-.056" y="-.038" style="color-interpolation-filters:sRGB"><feGaussianBlur stdDeviation=".656"/></filter><filter id="c" width="1.204" height="1.204" x="-.102" y="-.102" style="color-interpolation-filters:sRGB"><feGaussianBlur stdDeviation="2.315"/></filter><radialGradient xlink:href="#a" id="b" cx="11.002" cy="34.411" r="28" fx="11.002" fy="34.411" gradientTransform="rotate(75 68.19 21.98)scale(1.99802 1.73235)" gradientUnits="userSpaceOnUse"/><linearGradient id="a"><stop offset="0" style="stop-color:#00c8ff;stop-opacity:1"/><stop offset="1" style="stop-color:#009cff;stop-opacity:1"/></linearGradient></defs><g transform="translate(-9.203 25.797)"><rect width="53.49" height="53.49" x="14.396" y="-20.499" rx="26.745" ry="26.745" style="fill:url(#b);stroke-width:.955185"/><rect width="56" height="56" x="4.065" y="3.955" rx="28" ry="28" style="mix-blend-mode:normal;fill:none;stroke:#000;stroke-width:.314075;stroke-dasharray:none;stroke-opacity:1;filter:url(#c)" transform="translate(10.576 -24.32)scale(.95519)"/></g><path d="M39.228 26.177a2.883 2.883 0 0 0-2.89 2.89v13.11h-4.003c-1.537 0-2.497 1.239-1.728 2.229l7.003 9.03c.338.434.948.713 1.622.74.75.03 1.46-.256 1.835-.74l7.004-9.03c.77-.99-.191-2.229-1.728-2.229h-4.004v-13.11c0-1.6-1.289-2.89-2.889-2.89zM27.109 10.463c-.674.027-1.283.306-1.621.74l-7.004 9.03c-.769.99.192 2.229 1.729 2.228h4.004v13.112c0 1.6 1.288 2.888 2.888 2.888h.223c1.6 0 2.889-1.288 2.889-2.888V22.46h4.003c1.537 0 2.498-1.238 1.729-2.228l-7.004-9.03c-.376-.484-1.085-.77-1.836-.74" style="fill:#fff;stroke-width:2" transform="rotate(90 32.799 31.52)"/><path d="M39.228 26.177a2.883 2.883 0 0 0-2.89 2.89v13.11h-4.003c-1.537 0-2.497 1.239-1.728 2.229l7.003 9.03c.338.434.948.713 1.622.74.75.03 1.46-.256 1.835-.74l7.004-9.03c.77-.99-.191-2.229-1.728-2.229h-4.004v-13.11c0-1.6-1.289-2.89-2.889-2.89zM27.109 10.463c-.674.027-1.283.306-1.621.74l-7.004 9.03c-.769.99.192 2.228 1.729 2.228h4.004v13.112c0 1.6 1.288 2.888 2.888 2.888h.223c1.6 0 2.889-1.288 2.889-2.888V22.46h4.003c1.537 0 2.498-1.238 1.729-2.228l-7.004-9.03c-.376-.484-1.085-.77-1.836-.74z" style="fill:none;stroke:#0001ff;stroke-width:.2;stroke-dasharray:none;stroke-opacity:1;filter:url(#d)" transform="rotate(90 32.799 31.52)"/></svg>