<svg xmlns="http://www.w3.org/2000/svg" xmlns:xlink="http://www.w3.org/1999/xlink" width="64" height="64"><defs><filter id="c" width="1.199" height="1.199" x="-.1" y="-.1" style="color-interpolation-filters:sRGB"><feGaussianBlur stdDeviation="2.281"/></filter><filter id="d" width="1.256" height="1.106" x="-.128" y="-.053" style="color-interpolation-filters:sRGB"><feGaussianBlur stdDeviation="1.25"/></filter><radialGradient xlink:href="#a" id="b" cx="14.847" cy="31.657" r="28" fx="14.847" fy="31.657" gradientTransform="rotate(90 39.824 35.28)scale(1.87856)" gradientUnits="userSpaceOnUse"/><linearGradient id="a"><stop offset="0" style="stop-color:#00b9ff;stop-opacity:1"/><stop offset="1" style="stop-color:#0078ff;stop-opacity:1"/></linearGradient></defs><circle cx="31.997" cy="31.991" r="26.283" style="fill:url(#b);stroke-width:.938665"/><circle cx="31.944" cy="31.892" r="28" style="fill:none;stroke:#000;stroke-width:.2130685;stroke-dasharray:none;stroke-opacity:1;filter:url(#c)" transform="translate(1.96 1.954)scale(.93867)"/><path d="M31.118 2.613 20.617 27.93A2.942 2.942 56.264 0 0 23.335 32h6.585a1.068 1.068 58.557 0 1 .95 1.554l-5.85 11.429a1.063 1.063 173.573 0 1-1.762.198l-1.6-1.908a.66.66 162.41 0 0-1.164.37L19.007 61.4a.664.664 27.261 0 0 1.09.562l13.717-11.619a.684.684 72.835 0 0-.371-1.202l-2.864-.298a.97.97 64.751 0 1-.71-1.503l12.39-18.67a2.364 2.364 61.784 0 0-1.97-3.67h-7.223a1.01 1.01 59.956 0 1-.875-1.514L44.256 2.514A1.01 1.01 59.956 0 0 43.381 1h-9.848a2.615 2.615 146.264 0 0-2.415 1.613" style="fill:#fff;stroke-width:.5;stroke-dasharray:none" transform="translate(9.853 10.181)scale(.68919)"/><path d="M31.118 2.613 20.617 27.93A2.942 2.942 56.264 0 0 23.335 32h6.585a1.068 1.068 58.557 0 1 .95 1.554l-5.85 11.429a1.063 1.063 173.573 0 1-1.762.198l-1.6-1.908a.66.66 162.41 0 0-1.164.37L19.007 61.4a.664.664 27.261 0 0 1.09.562l13.717-11.619a.684.684 72.835 0 0-.371-1.202l-2.864-.298a.97.97 64.751 0 1-.71-1.503l12.39-18.67a2.364 2.364 61.784 0 0-1.97-3.67h-7.223a1.01 1.01 59.956 0 1-.875-1.514L44.256 2.514A1.01 1.01 59.956 0 0 43.381 1h-9.848a2.615 2.615 146.264 0 0-2.415 1.613z" style="mix-blend-mode:normal;fill:none;stroke:#0021ff;stroke-width:.5;stroke-dasharray:none;stroke-opacity:1;filter:url(#d)" transform="translate(9.814 10.107)scale(.68919)"/></svg>