<svg xmlns="http://www.w3.org/2000/svg" xmlns:xlink="http://www.w3.org/1999/xlink" width="64" height="64"><defs><filter id="c" width="1.215" height="1.138" x="-.107" y="-.069" style="color-interpolation-filters:sRGB"><feGaussianBlur stdDeviation="1.549"/></filter><filter id="d" width="1.609" height="1.281" x="-.304" y="-.14" style="color-interpolation-filters:sRGB"><feGaussianBlur stdDeviation=".699"/></filter><radialGradient xlink:href="#a" id="b" cx="14.088" cy="49.579" r="18" fx="14.088" fy="49.579" gradientTransform="rotate(-30 -439.402 267.385)scale(4.0709 6.33252)" gradientUnits="userSpaceOnUse"/><linearGradient id="a"><stop offset="0" style="stop-color:#5d5d5d;stop-opacity:1"/><stop offset="1" style="stop-color:#444;stop-opacity:1"/></linearGradient></defs><path d="m32 4-.074.004h-.008C22.946 4.06 14 13.358 14 20.336v23.07C14 52.888 20.75 60 32 60c11.25.002 18-7.108 18-16.59V20.972c0-7.252-8.988-16.906-18-16.964z" style="fill:url(#b)"/><path d="m32 4-.073.003h-.008C22.947 4.059 14 13.357 14 20.335V32h36V20.972c0-7.252-8.988-16.906-18-16.964Z" style="opacity:.1;fill:#fff;fill-opacity:1"/><path d="m32 4-.073.003h-.008C22.947 4.059 14 13.357 14 20.335V32h18V4.008z" style="opacity:.1;fill:#fff;fill-opacity:1"/><path d="M32 11c1.653 0 3 1.249 3 2.787v7.429C35 22.752 33.653 24 32 24s-3-1.248-3-2.786v-7.43C29 12.248 30.347 11 32 11" style="fill:#e4e4e4;opacity:1"/><path d="M31.981 4.07c-.024 0-.05.005-.074.005H31.9c-8.972.056-17.918 9.354-17.918 16.332v23.07c0 9.482 6.75 16.594 18 16.594 11.25.002 18-7.108 18-16.59V21.043c0-7.252-8.988-16.906-18-16.964z" style="fill:none;stroke:#000;stroke-opacity:1;stroke-width:.29999991;stroke-dasharray:none;filter:url(#c)"/><path d="M31.981 11.071c1.653 0 3 1.248 3 2.786v7.43c0 1.536-1.347 2.784-3 2.784s-3-1.248-3-2.787v-7.429c0-1.536 1.347-2.784 3-2.784" style="opacity:.802847;fill:none;stroke:#000;stroke-opacity:1;stroke-width:.29999989;stroke-dasharray:none;filter:url(#d)"/></svg>