<svg xmlns="http://www.w3.org/2000/svg" xmlns:xlink="http://www.w3.org/1999/xlink" width="64" height="64"><defs><filter id="d" width="1.192" height="1.192" x="-.097" y="-.095" style="color-interpolation-filters:sRGB"><feGaussianBlur stdDeviation="1.372"/></filter><filter id="c" width="1.258" height="1.258" x="-.129" y="-.129" style="color-interpolation-filters:sRGB"><feGaussianBlur stdDeviation="2.656"/></filter><radialGradient xlink:href="#a" id="b" cx="9.209" cy="24.436" r="29" fx="9.209" fy="24.436" gradientTransform="rotate(90 36.06 22.96)scale(2.13574)" gradientUnits="userSpaceOnUse"/><linearGradient id="a"><stop offset="0" style="stop-color:#00e0ff;stop-opacity:1"/><stop offset="1" style="stop-color:#0083ff;stop-opacity:1"/></linearGradient></defs><circle cx="32" cy="32" r="25.293" style="fill:url(#b);stroke-width:.872162"/><circle cx="32" cy="32" r="25.293" style="fill:none;stroke:#000;stroke-width:.3;stroke-dasharray:none;stroke-opacity:1;filter:url(#c)"/><path d="M35.882 16.517c-6.574 0-12.006 5.377-12.006 11.951 0 2.5.845 4.798 2.17 6.723l-8.004 8.013a2.183 2.185 0 0 0 3.053 3.124l8.004-8.013a11.96 11.96 0 0 0 6.783 2.105c6.575 0 11.939-5.377 11.939-11.952 0-6.574-5.364-11.951-11.939-11.951m0 4.346a7.565 7.565 0 0 1 7.597 7.605 7.565 7.565 0 0 1-7.597 7.606 7.565 7.565 0 0 1-7.597-7.606 7.565 7.565 0 0 1 7.597-7.605" style="fill:#fff;stroke-width:1.08679"/><path d="M36.018 13.594c-7.933 0-14.488 6.489-14.488 14.423 0 3.015 1.02 5.79 2.62 8.113l-9.66 9.67a2.634 2.637 0 0 0 3.684 3.769l9.659-9.67a14.43 14.43 0 0 0 8.186 2.54c7.934 0 14.406-6.489 14.406-14.422S43.953 13.594 36.02 13.594zm0 5.244a9.13 9.13 0 0 1 9.168 9.179 9.13 9.13 0 0 1-9.168 9.178 9.13 9.13 0 0 1-9.168-9.178 9.13 9.13 0 0 1 9.168-9.179z" style="mix-blend-mode:normal;fill:none;stroke:#005dff;stroke-width:.418767;stroke-dasharray:none;stroke-opacity:1;filter:url(#d)" transform="translate(6.088 5.214)scale(.82867)"/></svg>