<svg xmlns="http://www.w3.org/2000/svg" xmlns:xlink="http://www.w3.org/1999/xlink" width="64" height="64"><defs><filter id="d" width="1.278" height="1.278" x="-.139" y="-.139" style="color-interpolation-filters:sRGB"><feGaussianBlur stdDeviation="1.75"/></filter><filter id="b" width="1.304" height="1.304" x="-.152" y="-.152" style="color-interpolation-filters:sRGB"><feGaussianBlur stdDeviation="1.72"/></filter><radialGradient xlink:href="#a" id="c" cx="27.734" cy="11.548" r="14" fx="27.734" fy="11.548" gradientTransform="rotate(45 75.76 -36.3)scale(2.72712)" gradientUnits="userSpaceOnUse"/><linearGradient id="a"><stop offset="0" style="stop-color:#00d6ff;stop-opacity:1"/><stop offset="1" style="stop-color:#0097ff;stop-opacity:1"/></linearGradient></defs><path d="M36.146 9h9.447a9.277 9.277 45 0 1 9.276 9.277v9.446A9.277 9.277 135 0 1 45.594 37h-9.447a9.277 9.277 45 0 1-9.276-9.277v-9.446A9.277 9.277 135 0 1 36.146 9" style="fill:#ececec;stroke-width:.25079318;stroke-linecap:round;stroke-linejoin:round;stroke-miterlimit:2.1;paint-order:markers stroke fill;stroke:none;stroke-opacity:1;stroke-dasharray:none;fill-opacity:1" transform="translate(-27.023 14.252)scale(1.1962)"/><path d="M36.146 9h9.447a9.277 9.277 45 0 1 9.276 9.277v9.446A9.277 9.277 135 0 1 45.594 37h-9.447a9.277 9.277 45 0 1-9.276-9.277v-9.446A9.277 9.277 135 0 1 36.146 9" style="fill:none;stroke-width:.25079318;stroke-linecap:round;stroke-linejoin:round;stroke-miterlimit:2.1;paint-order:markers stroke fill;stroke:#000;stroke-opacity:1;stroke-dasharray:none;filter:url(#b)" transform="translate(-27.023 14.252)scale(1.1962)"/><path d="M23.26 29.838q-.86 3.096-2.366 5.26c-.329.473-.326 1.187.05 1.624l.56.653q.928-.929 1.342-1.754l.433-.722a1.7 1.7 150.487 0 1 1.46-.827h7.917v-1.86h-8.054q.21-.472.367-.972c.168-.537-.195-1.082-.747-1.199zm-6.04 1.544c-.372.345-.296.91.134 1.3a16.5 16.5 0 0 1 1.777 1.906l.677-.833c.367-.452.372-1.19-.042-1.598-.3-.297-.617-.575-.944-.843-.45-.368-1.176-.327-1.602.068m-6.97 3.251V49.46h.902a.955.955 135 0 0 .955-.955V47.47a.695.695 135 0 1 .696-.696h.365a.695.695 45 0 1 .695.696v.105a.955.955 45 0 0 .956.955h.904V34.633a2.315 2.315 45 0 0-2.315-2.315h-.843a2.315 2.315 135 0 0-2.315 2.315m2.3-.56h.87a.443.443 45 0 1 .443.442V44.52a.5.5 135 0 1-.5.5h-.756a.5.5 45 0 1-.5-.5V34.515a.443.443 135 0 1 .443-.443m10.075 4.977q-.066 1.296-.15 2.552a.684.684 0 0 1-.673.628h-1.023v.918a.94.94 45 0 0 .94.94c.28 0 .479.28.444.627q-.121 1.202-.259 2.345c-.2 1.67.961 3.018 2.643 3.018h5.01q-.207 1.859-.93 1.858-.721 0-2.065-.206l.095.539c.118.672.758 1.33 1.437 1.394q.303.028.533.028 2.28 0 2.813-3.058c.053-.306.332-.557.642-.557h.291a.9.9 135 0 0 .902-.902v-.353a.5.5 45 0 0-.5-.5h-.486a.53.53 0 0 1-.533-.563q.088-1.561.234-3.182a.55.55 0 0 1 .535-.488h.957V43.04a.813.813 45 0 0-.812-.812h-.04a.47.47 0 0 1-.472-.49q.042-1.3.064-2.686c.023-1.553-1.239-2.813-2.792-2.813h-3.875c-1.554 0-2.852 1.259-2.93 2.81m-5.44-1.13c-.353.327-.243.89.206 1.3q.864.79 1.634 1.77l.674-.88c.37-.484.323-1.227-.128-1.636q-.352-.32-.714-.62c-.468-.39-1.227-.348-1.673.066m8.39.076h3.728c.54 0 .977.437.97.976a90 90 0 0 1-.055 2.257 1.05 1.05 0 0 1-1.044 1.001h-3.88a.894.894 0 0 1-.907-.997q.096-1.087.163-2.262a1.04 1.04 0 0 1 1.026-.975m.861.992-.362.393c-.242.262-.203.643.075.866q.837.672 1.552 1.466l.836-1.044c.222-.278.195-.704-.076-.935a20 20 0 0 0-1.07-.838.734.734 0 0 0-.955.092m-1.244 5.102h3.882c.554 0 .98.448.946 1a95 95 0 0 1-.149 2.05c-.054.653-.637 1.182-1.292 1.182h-4.002c-.499 0-.84-.4-.77-.893q.158-1.124.285-2.342a1.13 1.13 0 0 1 1.1-.997m-6.786.205a36 36 0 0 1-3.133 6.979c-.314.54-.18 1.278.316 1.658l.856.654a34.6 34.6 0 0 0 3.227-6.925c.227-.676-.09-1.558-.677-1.962zm7.544.926-.01.01c-.339.34-.297.842.072 1.15q.765.637 1.482 1.426l.773-.892c.314-.363.281-.92-.096-1.217q-.42-.332-.87-.632c-.398-.267-1.012-.185-1.35.155" style="opacity:1;fill:#00b3ff;fill-opacity:1;stroke:#00b3ff;stroke-width:.2;stroke-linecap:round;stroke-linejoin:round;stroke-dasharray:none;stroke-opacity:1;paint-order:normal" transform="translate(-1.477 -2.821)scale(1.06755)"/><path d="M36.146 9h9.447a9.277 9.277 45 0 1 9.276 9.277v9.446A9.277 9.277 135 0 1 45.594 37h-9.447a9.277 9.277 45 0 1-9.276-9.277v-9.446A9.277 9.277 135 0 1 36.146 9" style="fill:url(#c);stroke-width:.217316;stroke-linecap:round;stroke-linejoin:round;stroke-miterlimit:2.1;paint-order:markers stroke fill" transform="translate(-6.754 -5.277)scale(1.1962)"/><path d="M40.984 16.22c.36 1.509 1.265 5.291 1.905 7.882.122.496-.191.898-.702.898h-2.841c-.51 0-.814-.4-.682-.893.686-2.56 1.63-6.372 2.002-7.888.09-.361.231-.36.318.002M50.739 34l-6-19.175A4.03 4.03 36.313 0 0 40.897 12h-.053A4.03 4.03 143.687 0 0 37 14.825L31 34h3.533a1.995 1.995 142.555 0 0 1.926-1.475l.67-2.484A1.41 1.41 142.555 0 1 38.49 29h4.559a1.41 1.41 37.448 0 1 1.359 1.041l.67 2.484A1.995 1.995 37.448 0 0 47.003 34Z" style="fill:#fff" transform="translate(2.28 -.193)scale(.97515)"/><path d="M35.658 7.555a10.235 10.235 0 0 0-10.234 10.234v10.422a10.235 10.235 0 0 0 10.234 10.234H46.08a10.235 10.235 0 0 0 10.234-10.234V17.789A10.235 10.235 0 0 0 46.08 7.555Zm5.188 5.552h.047a3.62 3.62 0 0 1 3.457 2.541l5.396 17.245h-3.36a1.794 1.794 0 0 1-1.732-1.327l-.603-2.234a1.266 1.266 0 0 0-1.223-.936h-4.1a1.266 1.266 0 0 0-1.222.936l-.604 2.234a1.794 1.794 0 0 1-1.732 1.327h-3.178l5.397-17.245a3.62 3.62 0 0 1 3.457-2.54m-.016 3.551c-.052 0-.103.082-.143.244a419 419 0 0 1-1.8 7.094c-.12.444.154.803.613.803h2.555c.46 0 .74-.36.63-.807-.575-2.33-1.388-5.733-1.712-7.09-.04-.163-.091-.244-.143-.244" style="mix-blend-mode:normal;fill:none;stroke:#000;stroke-width:.181281;stroke-linecap:round;stroke-linejoin:round;stroke-miterlimit:2.1;paint-order:markers stroke fill;filter:url(#d)" transform="translate(-2.178 -2.702)scale(1.08425)"/></svg>