<svg xmlns="http://www.w3.org/2000/svg" xmlns:xlink="http://www.w3.org/1999/xlink" width="64" height="64"><defs><filter id="c" width="1.199" height="1.199" x="-.1" y="-.1" style="color-interpolation-filters:sRGB"><feGaussianBlur stdDeviation="2.11"/></filter><filter id="d" width="1.838" height="1.14" x="-.419" y="-.07" style="color-interpolation-filters:sRGB"><feGaussianBlur stdDeviation=".795"/></filter><radialGradient xlink:href="#a" id="b" cx="14.172" cy="48.049" r="26.132" fx="14.172" fy="48.049" gradientTransform="rotate(-37.588 -56.722 108.86)scale(2.5789 2.1627)" gradientUnits="userSpaceOnUse"/><linearGradient id="a"><stop offset="0" style="stop-color:#ff5a2f;stop-opacity:1"/><stop offset="1" style="stop-color:#ed3f3b;stop-opacity:1"/></linearGradient></defs><circle cx="32" cy="31.157" r="26.132" style="fill:url(#b);stroke-width:1.68596;fill-opacity:1"/><circle cx="32" cy="31.543" r="26.132" style="opacity:1;mix-blend-mode:normal;stroke-width:.30000001;filter:url(#c);fill:none;stroke:#000;stroke-opacity:1;stroke-dasharray:none"/><path d="M29.471 17.503v17.193a2.36 2.36 45 0 0 2.362 2.362h.334a2.36 2.36 135 0 0 2.362-2.362V17.503a2.36 2.36 45 0 0-2.362-2.363h-.334a2.36 2.36 135 0 0-2.362 2.363m0 25.289v.334a2.36 2.36 45 0 0 2.362 2.362h.334a2.36 2.36 135 0 0 2.362-2.362v-.334a2.36 2.36 45 0 0-2.362-2.362h-.334a2.36 2.36 135 0 0-2.362 2.362" style="fill:#fff;stroke-width:1.68596" transform="translate(-6.247 -4.232)scale(1.19522)"/><path d="M29.471 17.503v17.193a2.36 2.36 45 0 0 2.362 2.362h.334a2.36 2.36 135 0 0 2.362-2.362V17.503a2.36 2.36 45 0 0-2.362-2.363h-.334a2.36 2.36 135 0 0-2.362 2.363zm0 25.289v.334a2.36 2.36 45 0 0 2.362 2.362h.334a2.36 2.36 135 0 0 2.362-2.362v-.334a2.36 2.36 45 0 0-2.362-2.362h-.334a2.36 2.36 135 0 0-2.362 2.362z" style="fill:none;stroke:red;stroke-width:.41833267;stroke-dasharray:none;stroke-opacity:1;filter:url(#d)" transform="translate(-6.25 -4.232)scale(1.19522)"/></svg>