<svg xmlns="http://www.w3.org/2000/svg" xmlns:xlink="http://www.w3.org/1999/xlink" width="64" height="64"><defs><filter id="d" width="1.125" height="1.119" x="-.062" y="-.059" style="color-interpolation-filters:sRGB"><feGaussianBlur stdDeviation=".93"/></filter><filter id="c" width="1.089" height="1.089" x="-.044" y="-.044" style="color-interpolation-filters:sRGB"><feGaussianBlur stdDeviation=".93"/></filter><radialGradient xlink:href="#a" id="b" cx="16.103" cy="47.803" r="28.008" fx="16.103" fy="47.803" gradientTransform="rotate(-45 -36.595 93.809)scale(2.06189 2.06134)" gradientUnits="userSpaceOnUse"/><linearGradient id="a"><stop offset="0" style="stop-color:#ffaa46;stop-opacity:1"/><stop offset="1" style="stop-color:#ff8546;stop-opacity:1"/></linearGradient></defs><path d="M33.575 4.003c-3.515.12-6.811 1.489-10.247 2.082 2.592 5.763-1.333 12.596-6.87 14.863-2.986 1.432-6.525 1.923-9.712.876-.783 4.66-4.025 9.304-2.122 14.108 1.172 3.583 1.168 7.928 4.324 10.514 2.711 2.875 4.684 6.378 7.418 9.215 5.035 3.966 11.78 3.544 17.797 4.337 4.3.146 7.782-2.72 11.67-4.049 3.34-1.37 6.388-3.84 7.543-7.366 1.549-3.079 3.097-6.312 5.782-8.58 1.659-3.473.484-7.388.532-11.05-.79-4.179-2.65-8.057-4.118-12.014-2.004-3.23-5.352-5.241-8.219-7.605-3.555-2.03-7.65-2.87-11.22-4.866-.824-.278-1.687-.456-2.558-.465" style="fill:url(#b)"/><path d="M30.291 16.617c-.852 2.446.814 4.857 2.533 6.451 2.302.412 5 1.509 6.957-.433 3.234-2.587 2.96-8.725-1.138-10.31-2.489-.81-4.958.787-6.903 2.18-.649.566-1.192 1.282-1.449 2.112m-.608 26.765c.806-2.598-.76-5.475-3.24-6.455-2.064-1.204-4.693-.724-6.478.743-2.315 1.191-2.14 4.257-1.347 6.349.595 2.64 3.62 4.823 6.256 3.557 1.918-.614 5.462-1.09 4.998-3.832-.06-.121-.127-.241-.19-.362m18.296-3.741c2.383-.243 4.917-2.974 3.337-5.332-1.025-2.786-5.504-3.286-6.915-.614-.908 2.258.43 4.882 2.33 6.175.41.233.942.11 1.248-.229M15.691 24.359c-3.471-.11-5.135 5.41-2.032 7.113 2.165 1.31 6.105.486 6.23-2.45.115-1.89-1.975-5.86-4.198-4.663M41.8 50.788c.546-1.951-.869-5.042-3.23-4.553-1.93.452-4.882 1.325-4.563 3.866.277 2.117 2.194 4.566 4.544 3.412.98-1.036 2.257-1.61 3.347-2.359z" style="fill:#835145"/><path d="M33.575 4.003c-3.515.12-6.811 1.489-10.247 2.082 2.592 5.763-1.333 12.596-6.87 14.863-2.986 1.432-6.525 1.923-9.712.876-.783 4.66-4.025 9.304-2.122 14.108 1.172 3.583 1.168 7.928 4.324 10.514 2.711 2.875 4.684 6.378 7.418 9.215 5.035 3.966 11.78 3.544 17.797 4.337 4.3.146 7.782-2.72 11.67-4.049 3.34-1.37 6.388-3.84 7.543-7.366 1.549-3.079 3.097-6.312 5.782-8.58 1.659-3.473.484-7.388.532-11.05-.79-4.179-2.65-8.057-4.118-12.014-2.004-3.23-5.352-5.241-8.219-7.605-3.555-2.03-7.65-2.87-11.22-4.866-.824-.278-1.687-.456-2.558-.465Z" style="fill:none;stroke:#000;stroke-opacity:1;filter:url(#c);stroke-width:.49999992;stroke-dasharray:none" transform="translate(-.041 -.003)"/><g style="fill:none;stroke:#000;stroke-opacity:1;filter:url(#d);stroke-width:.49999992;stroke-dasharray:none" transform="translate(-.241 .268)"><path d="M30.291 16.617c-.852 2.446.814 4.857 2.533 6.451 2.302.412 5 1.509 6.957-.433 3.234-2.587 2.96-8.725-1.138-10.31-2.489-.81-4.958.787-6.903 2.18-.649.566-1.192 1.282-1.449 2.112zm-.608 26.765c.806-2.598-.76-5.475-3.24-6.455-2.064-1.204-4.693-.724-6.478.743-2.315 1.191-2.14 4.257-1.347 6.349.595 2.64 3.62 4.823 6.256 3.557 1.918-.614 5.462-1.09 4.998-3.832-.06-.121-.127-.241-.19-.362zm18.295-3.741c2.383-.243 4.917-2.974 3.337-5.332-1.025-2.786-5.504-3.286-6.915-.614-.908 2.258.43 4.882 2.33 6.175.41.233.942.11 1.248-.229zM15.691 24.359c-3.471-.11-5.135 5.41-2.032 7.113 2.165 1.31 6.105.486 6.23-2.45.115-1.89-1.975-5.86-4.198-4.663zM41.8 50.788c.546-1.951-.869-5.042-3.23-4.553-1.93.452-4.882 1.325-4.563 3.866.277 2.117 2.194 4.566 4.544 3.412.98-1.036 2.257-1.61 3.347-2.359z" style="fill:none;stroke:#000;stroke-opacity:1;stroke-width:.49999992;stroke-dasharray:none"/></g></svg>