<svg xmlns="http://www.w3.org/2000/svg" xmlns:xlink="http://www.w3.org/1999/xlink" width="64" height="64"><defs><filter id="c" width="1.198" height="1.198" x="-.099" y="-.099" style="color-interpolation-filters:sRGB"><feGaussianBlur stdDeviation="2.126"/></filter><filter id="d" width="1.208" height="1.189" x="-.104" y="-.094" style="color-interpolation-filters:sRGB"><feGaussianBlur stdDeviation="1.419"/></filter><radialGradient xlink:href="#a" id="b" cx="11.398" cy="51.914" r="29" fx="11.398" fy="51.914" gradientTransform="matrix(0 2.63422 -2.27585 0 122.838 -25.219)" gradientUnits="userSpaceOnUse"/><linearGradient id="a"><stop offset="0" style="stop-color:#00cfff;stop-opacity:1"/><stop offset="1" style="stop-color:#008eff;stop-opacity:1"/></linearGradient></defs><rect width="53.419" height="53.419" x="5.29" y="5.29" rx="13.676" ry="13.676" style="fill:url(#b);fill-opacity:1;stroke-width:.921025"/><rect width="53.419" height="53.419" x="5.29" y="5.29" rx="13.676" ry="13.676" style="fill:none;fill-opacity:1;stroke:#000;stroke-width:.4;stroke-dasharray:none;stroke-opacity:1;filter:url(#c)"/><path d="M32 13.144c-6.3 0-11.673 4.806-11.673 10.775v5.387h-2.544c-1.575 0-2.843 1.202-2.843 2.694v16.162c0 1.492 1.268 2.694 2.843 2.694h28.434c1.575 0 2.843-1.202 2.843-2.694V32c0-1.492-1.268-2.694-2.843-2.694h-2.544V23.92c0-5.97-5.372-10.775-11.673-10.775Zm0 4.987c3.15 0 6.615 2.822 6.285 5.788v5.387h-12.57V23.92c0-2.985 3.135-5.788 6.285-5.788z" style="fill:#fff;fill-opacity:1;stroke:#fff;stroke-width:0;stroke-dasharray:none;stroke-opacity:1"/><path d="M32 13.144c-6.3 0-11.673 4.806-11.673 10.775v5.387h-2.544c-1.575 0-2.843 1.202-2.843 2.694v16.162c0 1.492 1.268 2.694 2.843 2.694h28.434c1.575 0 2.843-1.202 2.843-2.694V32c0-1.492-1.268-2.694-2.843-2.694h-2.544V23.92c0-5.97-5.372-10.775-11.673-10.775Zm0 4.987c3.15 0 6.615 2.822 6.285 5.788v5.387h-12.57V23.92c0-2.985 3.135-5.788 6.285-5.788z" style="fill:none;fill-opacity:1;stroke:#5700ff;stroke-width:.3;stroke-dasharray:none;stroke-opacity:1;filter:url(#d)"/></svg>