<svg xmlns="http://www.w3.org/2000/svg" xmlns:xlink="http://www.w3.org/1999/xlink" width="64" height="64"><defs><filter id="c" width="1.23" height="1.23" x="-.115" y="-.115" style="color-interpolation-filters:sRGB"><feGaussianBlur stdDeviation="2.623"/></filter><filter id="d" width="1.127" height="1.127" x="-.063" y="-.063" style="color-interpolation-filters:sRGB"><feGaussianBlur stdDeviation=".782"/></filter><radialGradient xlink:href="#a" id="b" cx="25.01" cy="54.075" r="28" fx="25.01" fy="54.075" gradientTransform="rotate(147.029 58.562 66.278)scale(2.09259 2.46645)" gradientUnits="userSpaceOnUse"/><linearGradient id="a"><stop offset="0" style="stop-color:#00cdff;stop-opacity:1"/><stop offset="1" style="stop-color:#0085ff;stop-opacity:1"/></linearGradient></defs><rect width="51.641" height="51.641" x="6.18" y="6.18" rx="25.82" ry="25.82" style="fill:url(#b);stroke-width:.922158"/><path d="M32 17.246c-8.149 0-14.755 6.606-14.755 14.754S23.851 46.755 32 46.755h9.221s1.73 0 1.844-1.845c0-1.844-1.844-1.844-1.844-1.844H32c-6.112 0-11.066-4.954-11.066-11.066 0-6.111 4.954-11.065 11.066-11.065 6.111 0 11.065 4.954 11.065 11.065v1.845a1.844 1.844 0 0 1-3.688 0V32A7.377 7.377 0 1 0 32 39.378c1.93 0 3.67-.758 4.985-1.97a5.54 5.54 0 0 0 4.236 1.969 5.533 5.533 0 0 0 5.533-5.533V32c0-8.148-6.606-14.755-14.754-14.755zm0 11.066a3.689 3.689 0 1 1 0 7.377 3.689 3.689 0 0 1 0-7.377" style="fill:#fff;stroke-width:.922158"/><rect width="56" height="56" x="4" y="4" rx="28" ry="28" style="fill:none;stroke:#000;stroke-width:.3;stroke-dasharray:none;stroke-opacity:1;filter:url(#c)" transform="translate(2.49 2.49)scale(.92216)"/><path d="M32 16c-8.837 0-16 7.164-16 16s7.163 16 16 16h10s1.875 0 2-2c0-2-2-2-2-2H32c-6.627 0-12-5.372-12-12 0-6.627 5.373-12 12-12s12 5.373 12 12v2a2 2 0 0 1-4 0v-2a8 8 0 1 0-8 8c2.092 0 3.98-.822 5.406-2.136A6 6 0 0 0 42 39.999a6 6 0 0 0 6-6v-2c0-8.835-7.164-16-16-16zm0 12a4 4 0 1 1 0 8 4 4 0 0 1 0-8z" style="fill:none;stroke:#3b00ff;stroke-width:.3;stroke-dasharray:none;stroke-opacity:1;filter:url(#d)" transform="translate(2.49 2.49)scale(.92216)"/></svg>