<svg xmlns="http://www.w3.org/2000/svg" xmlns:xlink="http://www.w3.org/1999/xlink" width="64" height="64"><defs><radialGradient xlink:href="#a" id="b" cx="20.132" cy="45.909" r="20.585" fx="20.132" fy="45.909" gradientTransform="rotate(-30 -53.942 100.532)scale(1.94603)" gradientUnits="userSpaceOnUse"/><radialGradient xlink:href="#a" id="d" cx="31.965" cy="32" r="29.867" fx="31.965" fy="32" gradientUnits="userSpaceOnUse"/><radialGradient xlink:href="#a" id="e" cx="31.965" cy="32" r="29.867" fx="31.965" fy="32" gradientUnits="userSpaceOnUse"/><radialGradient xlink:href="#a" id="f" cx="31.965" cy="32" r="29.867" fx="31.965" fy="32" gradientUnits="userSpaceOnUse"/><radialGradient xlink:href="#a" id="g" cx="31.965" cy="32" r="29.867" fx="31.965" fy="32" gradientUnits="userSpaceOnUse"/><radialGradient xlink:href="#a" id="h" cx="31.965" cy="32" r="29.867" fx="31.965" fy="32" gradientUnits="userSpaceOnUse"/><radialGradient xlink:href="#a" id="i" cx="31.965" cy="32" r="29.867" fx="31.965" fy="32" gradientUnits="userSpaceOnUse"/><radialGradient xlink:href="#a" id="j" cx="31.965" cy="32" r="29.867" fx="31.965" fy="32" gradientUnits="userSpaceOnUse"/><radialGradient xlink:href="#a" id="k" cx="31.965" cy="32" r="29.867" fx="31.965" fy="32" gradientUnits="userSpaceOnUse"/><radialGradient xlink:href="#a" id="l" cx="31.965" cy="32" r="29.867" fx="31.965" fy="32" gradientUnits="userSpaceOnUse"/><filter id="c" width="1.571" height="1.285" x="-.285" y="-.143" style="color-interpolation-filters:sRGB"><feGaussianBlur stdDeviation="1.575"/></filter><filter id="m" width="1.143" height="1.143" x="-.071" y="-.071" style="color-interpolation-filters:sRGB"><feGaussianBlur stdDeviation=".967"/></filter><filter id="n" width="1.057" height="1.057" x="-.029" y="-.029" style="color-interpolation-filters:sRGB"><feGaussianBlur stdDeviation=".674"/></filter><linearGradient id="a"><stop offset="0" style="stop-color:#ffae00;stop-opacity:1"/><stop offset="1" style="stop-color:#ff5a00;stop-opacity:1"/></linearGradient></defs><path d="M51.198 32a19.203 19.203 0 0 1-19.203 19.203A19.203 19.203 0 0 1 12.792 32a19.203 19.203 0 0 1 19.203-19.203A19.203 19.203 0 0 1 51.198 32" style="fill:url(#b);stroke-width:.559725;stroke-linecap:round"/><path d="M31.995 17.826c-7.928 0-13.993 6.065-13.993 13.994s6.065 13.993 13.993 13.993z" style="fill:#fff;stroke-width:.932874"/><path d="M32.013 17c-8.5 0-15 6.501-15 15s6.5 15 15 15z" style="fill:none;stroke:#ffed00;stroke-opacity:1;filter:url(#c)" transform="translate(2.143 1.968)scale(.93287)"/><g style="fill:url(#d)" transform="translate(-.243 -.241)scale(1.00753)"><path d="M35.768 5.901A3.77 3.77 0 0 1 32 9.67a3.77 3.77 0 0 1-3.768-3.77A3.77 3.77 0 0 1 32 2.133 3.77 3.77 0 0 1 35.768 5.9" style="fill:url(#e);stroke-width:.109841;stroke-linecap:round"/><path d="M35.768 58.099A3.77 3.77 0 0 1 32 61.867a3.77 3.77 0 0 1-3.768-3.768A3.77 3.77 0 0 1 32 54.33a3.77 3.77 0 0 1 3.768 3.769" style="fill:url(#f);stroke-width:.109841;stroke-linecap:round"/><path d="M58.064 35.694a3.77 3.77 0 0 1-3.769-3.768 3.77 3.77 0 0 1 3.769-3.769 3.77 3.77 0 0 1 3.768 3.769 3.77 3.77 0 0 1-3.768 3.768" style="fill:url(#g);stroke-width:.109841;stroke-linecap:round"/><path d="M5.866 35.694a3.77 3.77 0 0 1-3.768-3.768 3.77 3.77 0 0 1 3.768-3.769 3.77 3.77 0 0 1 3.769 3.769 3.77 3.77 0 0 1-3.769 3.768" style="fill:url(#h);stroke-width:.109841;stroke-linecap:round"/><path d="M53.042 16.154a3.77 3.77 0 0 1-5.33 0 3.77 3.77 0 0 1 0-5.33 3.77 3.77 0 0 1 5.33 0 3.77 3.77 0 0 1 0 5.33" style="fill:url(#i);stroke-width:.109841;stroke-linecap:round"/><path d="M16.133 53.064a3.77 3.77 0 0 1-5.33 0 3.77 3.77 0 0 1 0-5.33 3.77 3.77 0 0 1 5.33 0 3.77 3.77 0 0 1 0 5.33" style="fill:url(#j);stroke-width:.109841;stroke-linecap:round"/><path d="M47.787 53.064a3.77 3.77 0 0 1 0-5.33 3.77 3.77 0 0 1 5.33 0 3.77 3.77 0 0 1 0 5.33 3.77 3.77 0 0 1-5.33 0" style="fill:url(#k);stroke-width:.109841;stroke-linecap:round"/><path d="M10.877 16.155a3.77 3.77 0 0 1 0-5.33 3.77 3.77 0 0 1 5.33 0 3.77 3.77 0 0 1 0 5.33 3.77 3.77 0 0 1-5.33 0" style="fill:url(#l);stroke-width:.109841;stroke-linecap:round"/></g><path d="M48.881 32A16.88 16.88 0 0 1 32 48.881 16.88 16.88 0 0 1 15.119 32 16.88 16.88 0 0 1 32 15.119 16.88 16.88 0 0 1 48.881 32Z" style="mix-blend-mode:normal;fill:none;stroke:#000;stroke-width:.17581566;stroke-linecap:round;stroke-dasharray:none;stroke-opacity:1;filter:url(#m)" transform="translate(-4.402 -4.402)scale(1.13756)"/><g style="mix-blend-mode:normal;fill:none;stroke:#000;stroke-width:.1985047;stroke-dasharray:none;stroke-opacity:1;filter:url(#n)" transform="translate(-.206 -.241)scale(1.00753)"><path d="M35.768 5.901A3.77 3.77 0 0 1 32 9.67a3.77 3.77 0 0 1-3.768-3.77A3.77 3.77 0 0 1 32 2.133 3.77 3.77 0 0 1 35.768 5.9Zm0 52.198A3.77 3.77 0 0 1 32 61.867a3.77 3.77 0 0 1-3.768-3.768A3.77 3.77 0 0 1 32 54.33a3.77 3.77 0 0 1 3.768 3.769zm22.296-22.405a3.77 3.77 0 0 1-3.769-3.768 3.77 3.77 0 0 1 3.769-3.769 3.77 3.77 0 0 1 3.768 3.769 3.77 3.77 0 0 1-3.768 3.768zm-52.198 0a3.77 3.77 0 0 1-3.768-3.768 3.77 3.77 0 0 1 3.768-3.769 3.77 3.77 0 0 1 3.769 3.769 3.77 3.77 0 0 1-3.769 3.768zm47.176-19.54a3.77 3.77 0 0 1-5.33 0 3.77 3.77 0 0 1 0-5.33 3.77 3.77 0 0 1 5.33 0 3.77 3.77 0 0 1 0 5.33zm-36.909 36.91a3.77 3.77 0 0 1-5.33 0 3.77 3.77 0 0 1 0-5.33 3.77 3.77 0 0 1 5.33 0 3.77 3.77 0 0 1 0 5.33zm31.654 0a3.77 3.77 0 0 1 0-5.33 3.77 3.77 0 0 1 5.33 0 3.77 3.77 0 0 1 0 5.33 3.77 3.77 0 0 1-5.33 0zm-36.91-36.909a3.77 3.77 0 0 1 0-5.33 3.77 3.77 0 0 1 5.33 0 3.77 3.77 0 0 1 0 5.33 3.77 3.77 0 0 1-5.33 0z" style="fill:none;stroke:#000;stroke-width:.1985047;stroke-linecap:round;stroke-dasharray:none;stroke-opacity:1"/></g></svg>