<svg xmlns="http://www.w3.org/2000/svg" xmlns:xlink="http://www.w3.org/1999/xlink" width="64" height="64"><defs><radialGradient xlink:href="#a" id="c" cx="27.944" cy="26.919" r="16" fx="27.944" fy="26.919" gradientTransform="matrix(0 -1.3146 .9534 0 6.35 62.828)" gradientUnits="userSpaceOnUse"/><radialGradient xlink:href="#b" id="d" cx="-43.001" cy="-32" r="17" fx="-43.001" fy="-32" gradientTransform="matrix(.95955 0 0 1.24181 -1.234 7.739)" gradientUnits="userSpaceOnUse"/><linearGradient id="b"><stop offset="0" style="stop-color:#ffb437;stop-opacity:1"/><stop offset="1" style="stop-color:#ff8a37;stop-opacity:1"/></linearGradient><linearGradient id="a"><stop offset="0" style="stop-color:#d2d2d2;stop-opacity:1"/><stop offset="1" style="stop-color:#8a8a8a;stop-opacity:1"/></linearGradient><filter id="e" width="1.326" height="1.474" x="-.163" y="-.237" style="color-interpolation-filters:sRGB"><feGaussianBlur stdDeviation="2.132"/></filter><filter id="f" width="1.307" height="1.237" x="-.153" y="-.119" style="color-interpolation-filters:sRGB"><feGaussianBlur stdDeviation="2.132"/></filter></defs><path d="M32 5.133a15.32 15.32 0 0 0-15.354 15.352v5.758h5.758v-5.758a9.574 9.574 0 0 1 9.595-9.595 9.574 9.574 0 0 1 9.596 9.595v5.758h5.757v-5.758A15.32 15.32 0 0 0 31.999 5.133" style="fill:url(#c);stroke-width:.959555"/><rect width="32.624" height="42.22" x="-58.807" y="-53.109" rx="5.947" ry="5.947" style="fill:url(#d);stroke-width:.959555" transform="rotate(90)scale(-1 1)"/><rect width="42.22" height="19.191" x="10.889" y="32.9" rx="0" ry="0" style="opacity:.46493094;fill:#ff4b00;fill-opacity:1;stroke-width:.959555"/><path d="M31.98 3.997c-8.864 0-16 7.136-16 16v6h6v-6c0-5.54 4.46-10 10-10s10 4.46 10 10v6h6v-6c0-8.864-7.136-16-16-16z" style="mix-blend-mode:normal;fill:none;stroke:#000;stroke-width:.2;stroke-dasharray:none;stroke-opacity:1;filter:url(#e)" transform="translate(1.293 1.294)scale(.95955)"/><rect width="33.999" height="44" x="-59.997" y="-53.98" rx="6.017" ry="6.017" style="mix-blend-mode:normal;fill:none;stroke:#000;stroke-width:.2;stroke-dasharray:none;stroke-opacity:1;filter:url(#f)" transform="rotate(90 0 1.294)scale(-.95955 .95955)"/></svg>