<?xml version="1.0" encoding="UTF-8" standalone="no"?>
<svg
   width="64"
   height="64"
   version="1.1"
   id="svg18"
   sodipodi:docname="preferences-desktop-display-color.svg"
   inkscape:version="1.4.3 (0d15f75042, 2025-12-25)"
   xmlns:inkscape="http://www.inkscape.org/namespaces/inkscape"
   xmlns:sodipodi="http://sodipodi.sourceforge.net/DTD/sodipodi-0.dtd"
   xmlns:xlink="http://www.w3.org/1999/xlink"
   xmlns="http://www.w3.org/2000/svg"
   xmlns:svg="http://www.w3.org/2000/svg">
  <sodipodi:namedview
     id="namedview18"
     pagecolor="#ffffff"
     bordercolor="#000000"
     borderopacity="0.25"
     inkscape:showpageshadow="2"
     inkscape:pageopacity="0.0"
     inkscape:pagecheckerboard="0"
     inkscape:deskcolor="#d1d1d1"
     inkscape:zoom="13.760732"
     inkscape:cx="27.505805"
     inkscape:cy="26.488417"
     inkscape:current-layer="svg18" />
  <defs
     id="defs12">
    <radialGradient
       xlink:href="#a"
       id="m"
       cx="8.802"
       cy="36.805"
       r="25.717"
       fx="8.802"
       fy="36.805"
       gradientTransform="matrix(1.391194,0.37276931,-0.42285856,1.5781296,10.772711,-23.380863)"
       gradientUnits="userSpaceOnUse" />
    <radialGradient
       xlink:href="#b"
       id="j"
       cx="18.34"
       cy="20.028"
       r="25.717"
       fx="18.34"
       fy="20.028"
       gradientTransform="matrix(1.2162634,-0.70221,0.789475,1.3674108,-16.167417,6.1283778)"
       gradientUnits="userSpaceOnUse" />
    <radialGradient
       xlink:href="#c"
       id="h"
       cx="44.443"
       cy="18.727"
       r="25.717"
       fx="44.443"
       fy="18.727"
       gradientUnits="userSpaceOnUse" />
    <radialGradient
       xlink:href="#d"
       id="l"
       cx="41.653"
       cy="52.092"
       r="25.717"
       fx="41.653"
       fy="52.092"
       gradientTransform="matrix(0.29393044,-1.0969633,1.0969633,0.29393044,-27.816574,82.538735)"
       gradientUnits="userSpaceOnUse" />
    <radialGradient
       xlink:href="#e"
       id="i"
       cx="50.094"
       cy="34.159"
       r="25.717"
       fx="50.094"
       fy="34.159"
       gradientTransform="matrix(0.76114107,0.439445,-0.468785,0.81195944,27.978626,-15.589652)"
       gradientUnits="userSpaceOnUse" />
    <radialGradient
       xlink:href="#f"
       id="k"
       cx="23.612"
       cy="54.858"
       r="25.717"
       fx="23.612"
       fy="54.858"
       gradientTransform="matrix(1.4783688,-0.39612772,0.39612772,1.4783688,-31.335648,-17.505879)"
       gradientUnits="userSpaceOnUse" />
    <linearGradient
       id="f">
      <stop
         offset="0"
         style="stop-color:#ff6fd8;stop-opacity:1"
         id="stop1" />
      <stop
         offset="1"
         style="stop-color:#ff82dd;stop-opacity:0"
         id="stop2" />
    </linearGradient>
    <linearGradient
       id="e">
      <stop
         offset="0"
         style="stop-color:#00ffd7;stop-opacity:1"
         id="stop3" />
      <stop
         offset="1"
         style="stop-color:#00ffd8;stop-opacity:0"
         id="stop4" />
    </linearGradient>
    <linearGradient
       id="d">
      <stop
         offset="0"
         style="stop-color:#07f;stop-opacity:1"
         id="stop5" />
      <stop
         offset="1"
         style="stop-color:#0065ff;stop-opacity:0"
         id="stop6" />
    </linearGradient>
    <linearGradient
       id="c">
      <stop
         offset="0"
         style="stop-color:#1aff00;stop-opacity:1"
         id="stop7" />
      <stop
         offset="1"
         style="stop-color:#17ff00;stop-opacity:0"
         id="stop8" />
    </linearGradient>
    <linearGradient
       id="b">
      <stop
         offset="0"
         style="stop-color:#ffb800;stop-opacity:1"
         id="stop9" />
      <stop
         offset="1"
         style="stop-color:#ffb200;stop-opacity:0"
         id="stop10" />
    </linearGradient>
    <linearGradient
       id="a">
      <stop
         offset="0"
         style="stop-color:#ff3737;stop-opacity:1"
         id="stop11" />
      <stop
         offset="1"
         style="stop-color:#ff3939;stop-opacity:0"
         id="stop12" />
    </linearGradient>
    <filter
       id="g"
       width="1.1387106"
       height="1.1387106"
       x="-0.069355289"
       y="-0.069355289"
       style="color-interpolation-filters:sRGB">
      <feGaussianBlur
         stdDeviation="1.446"
         id="feGaussianBlur12" />
    </filter>
    <radialGradient
       xlink:href="#a"
       id="m-3"
       cx="8.802"
       cy="36.805"
       r="25.716999"
       fx="8.802"
       fy="36.805"
       gradientTransform="matrix(1.391194,0.37276931,-0.42285856,1.5781296,10.772711,-23.380863)"
       gradientUnits="userSpaceOnUse" />
    <filter
       id="g-5"
       width="1.1387106"
       height="1.1387106"
       x="-0.069355289"
       y="-0.069355289"
       style="color-interpolation-filters:sRGB">
      <feGaussianBlur
         stdDeviation="1.446"
         id="feGaussianBlur12-6" />
    </filter>
    <radialGradient
       xlink:href="#c"
       id="h-2"
       cx="44.443001"
       cy="18.726999"
       r="25.716999"
       fx="44.443001"
       fy="18.726999"
       gradientUnits="userSpaceOnUse" />
    <radialGradient
       xlink:href="#e"
       id="i-2"
       cx="50.094002"
       cy="34.159"
       r="25.716999"
       fx="50.094002"
       fy="34.159"
       gradientTransform="matrix(0.76114107,0.439445,-0.468785,0.81195944,27.978626,-15.589652)"
       gradientUnits="userSpaceOnUse" />
    <radialGradient
       xlink:href="#b"
       id="j-9"
       cx="18.34"
       cy="20.028"
       r="25.716999"
       fx="18.34"
       fy="20.028"
       gradientTransform="matrix(1.2162634,-0.70221,0.789475,1.3674108,-16.167417,6.1283778)"
       gradientUnits="userSpaceOnUse" />
    <radialGradient
       xlink:href="#f"
       id="k-0"
       cx="23.612"
       cy="54.858002"
       r="25.716999"
       fx="23.612"
       fy="54.858002"
       gradientTransform="matrix(1.4783688,-0.39612772,0.39612772,1.4783688,-31.335648,-17.505879)"
       gradientUnits="userSpaceOnUse" />
    <radialGradient
       xlink:href="#d"
       id="l-6"
       cx="41.653"
       cy="52.091999"
       r="25.716999"
       fx="41.653"
       fy="52.091999"
       gradientTransform="matrix(0.29393044,-1.0969633,1.0969633,0.29393044,-27.816574,82.538735)"
       gradientUnits="userSpaceOnUse" />
    <radialGradient
       xlink:href="#a"
       id="m-7"
       cx="8.802"
       cy="36.805"
       r="25.716999"
       fx="8.802"
       fy="36.805"
       gradientTransform="matrix(1.391194,0.37276931,-0.42285856,1.5781296,10.772711,-23.380863)"
       gradientUnits="userSpaceOnUse" />
    <filter
       inkscape:collect="always"
       style="color-interpolation-filters:sRGB"
       id="filter18"
       x="-0.070441414"
       y="-0.070441414"
       width="1.1408828"
       height="1.1408828">
      <feGaussianBlur
         inkscape:collect="always"
         stdDeviation="1.4679515"
         id="feGaussianBlur18" />
    </filter>
  </defs>
  <g
     id="g18"
     transform="matrix(1.0891661,0,0,1.0891661,-2.8533156,-2.8533156)">
    <path
       d="M 32,6.981 C 18.182,6.981 6.981,18.182 6.981,32 6.981,45.818 18.182,57.019 32,57.019 45.818,57.019 57.019,45.818 57.019,32 57.019,18.182 45.818,6.981 32,6.981 m 0,10.945 c 7.773,0 14.075,6.3 14.074,14.074 0,7.773 -6.3,14.075 -14.074,14.074 -7.773,0 -14.075,-6.3 -14.074,-14.074 0,-7.773 6.3,-14.075 14.074,-14.074"
       style="opacity:1;fill:#ffffff;fill-opacity:1;stroke:none;stroke-width:0;stroke-dasharray:none;stroke-opacity:1;paint-order:markers stroke fill;filter:url(#g-5)"
       transform="matrix(0.91513,0,0,0.91513,2.716,2.716)"
       id="path12" />
    <path
       d="M 32,6.283 C 17.797,6.283 6.283,17.797 6.283,32 6.283,46.203 17.797,57.717 32,57.717 46.203,57.717 57.717,46.203 57.717,32 57.717,17.797 46.203,6.283 32,6.283 m 0,15.806 c 5.474,0 9.912,4.437 9.911,9.911 0,5.474 -4.437,9.912 -9.911,9.911 -5.474,0 -9.912,-4.437 -9.911,-9.911 0,-5.474 4.437,-9.912 9.911,-9.911"
       style="opacity:1;mix-blend-mode:normal;fill:url(#h-2);fill-opacity:1;stroke:none;stroke-width:0;stroke-dasharray:none;stroke-opacity:1;paint-order:markers stroke fill"
       id="path13" />
    <path
       d="M 32,6.283 C 17.797,6.283 6.283,17.797 6.283,32 6.283,46.203 17.797,57.717 32,57.717 46.203,57.717 57.717,46.203 57.717,32 57.717,17.797 46.203,6.283 32,6.283 m 0,15.806 c 5.474,0 9.912,4.437 9.911,9.911 0,5.474 -4.437,9.912 -9.911,9.911 -5.474,0 -9.912,-4.437 -9.911,-9.911 0,-5.474 4.437,-9.912 9.911,-9.911"
       style="opacity:1;mix-blend-mode:normal;fill:url(#i-2);fill-opacity:1;stroke:none;stroke-width:0;stroke-dasharray:none;stroke-opacity:1;paint-order:markers stroke fill"
       id="path14" />
    <path
       d="M 32,6.283 C 17.797,6.283 6.283,17.797 6.283,32 6.283,46.203 17.797,57.717 32,57.717 46.203,57.717 57.717,46.203 57.717,32 57.717,17.797 46.203,6.283 32,6.283 m 0,15.806 c 5.474,0 9.912,4.437 9.911,9.911 0,5.474 -4.437,9.912 -9.911,9.911 -5.474,0 -9.912,-4.437 -9.911,-9.911 0,-5.474 4.437,-9.912 9.911,-9.911"
       style="opacity:1;mix-blend-mode:hard-light;fill:url(#j-9);fill-opacity:1;stroke:none;stroke-width:0;stroke-dasharray:none;stroke-opacity:1;paint-order:markers stroke fill"
       id="path15" />
    <path
       d="M 32,6.283 C 17.797,6.283 6.283,17.797 6.283,32 6.283,46.203 17.797,57.717 32,57.717 46.203,57.717 57.717,46.203 57.717,32 57.717,17.797 46.203,6.283 32,6.283 m 0,15.806 c 5.474,0 9.912,4.437 9.911,9.911 0,5.474 -4.437,9.912 -9.911,9.911 -5.474,0 -9.912,-4.437 -9.911,-9.911 0,-5.474 4.437,-9.912 9.911,-9.911"
       style="opacity:1;mix-blend-mode:normal;fill:url(#k-0);fill-opacity:1;stroke:none;stroke-width:0;stroke-dasharray:none;stroke-opacity:1;paint-order:markers stroke fill"
       id="path16" />
    <path
       d="M 32,6.283 C 17.797,6.283 6.283,17.797 6.283,32 6.283,46.203 17.797,57.717 32,57.717 46.203,57.717 57.717,46.203 57.717,32 57.717,17.797 46.203,6.283 32,6.283 m 0,15.806 c 5.474,0 9.912,4.437 9.911,9.911 0,5.474 -4.437,9.912 -9.911,9.911 -5.474,0 -9.912,-4.437 -9.911,-9.911 0,-5.474 4.437,-9.912 9.911,-9.911"
       style="opacity:1;mix-blend-mode:hard-light;fill:url(#l-6);fill-opacity:1;stroke:none;stroke-width:0;stroke-dasharray:none;stroke-opacity:1;paint-order:markers stroke fill"
       id="path17" />
    <path
       d="M 32,6.283 C 17.797,6.283 6.283,17.797 6.283,32 6.283,46.203 17.797,57.717 32,57.717 46.203,57.717 57.717,46.203 57.717,32 57.717,17.797 46.203,6.283 32,6.283 m 0,15.806 c 5.474,0 9.912,4.437 9.911,9.911 0,5.474 -4.437,9.912 -9.911,9.911 -5.474,0 -9.912,-4.437 -9.911,-9.911 0,-5.474 4.437,-9.912 9.911,-9.911"
       style="opacity:1;mix-blend-mode:hard-light;fill:url(#m-7);fill-opacity:1;stroke:none;stroke-width:0;stroke-dasharray:none;stroke-opacity:1;paint-order:markers stroke fill"
       id="path18" />
    <path
       d="M 32,6.283 C 17.797,6.283 6.283,17.797 6.283,32 6.283,46.203 17.797,57.717 32,57.717 46.203,57.717 57.717,46.203 57.717,32 57.717,17.797 46.203,6.283 32,6.283 m 0,15.806 c 5.474,0 9.912,4.437 9.911,9.911 0,5.474 -4.437,9.912 -9.911,9.911 -5.474,0 -9.912,-4.437 -9.911,-9.911 0,-5.474 4.437,-9.912 9.911,-9.911"
       style="mix-blend-mode:hard-light;fill:none;fill-opacity:1;stroke:#000000;stroke-width:0.2;stroke-dasharray:none;stroke-opacity:1;paint-order:markers stroke fill;filter:url(#filter18)"
       id="path18-3" />
  </g>
</svg>
