<svg xmlns="http://www.w3.org/2000/svg" xmlns:xlink="http://www.w3.org/1999/xlink" width="64" height="64"><defs><filter id="e" width="1.13" height="1.13" x="-.065" y="-.065" style="color-interpolation-filters:sRGB"><feGaussianBlur stdDeviation=".281"/></filter><filter id="d" width="1.18" height="1.252" x="-.09" y="-.126" style="color-interpolation-filters:sRGB"><feGaussianBlur stdDeviation="1.499"/></filter><filter id="c" width="1.438" height="1.438" x="-.219" y="-.219" style="color-interpolation-filters:sRGB"><feGaussianBlur stdDeviation=".615"/></filter><radialGradient xlink:href="#a" id="b" cx="6.588" cy="12.167" r="27.251" fx="6.588" fy="12.167" gradientTransform="rotate(60 73.65 9.82)scale(5.79078 5.73276)" gradientUnits="userSpaceOnUse"/><linearGradient id="a"><stop offset="0" style="stop-color:#50cdff;stop-opacity:1"/><stop offset="1" style="stop-color:#0043d2;stop-opacity:1"/></linearGradient></defs><path d="M26.898 44.232h38.065v14.84H26.898z" style="fill:#e5f2ff;fill-opacity:1;stroke:none;stroke-width:.457416;stroke-linecap:round;stroke-linejoin:round;stroke-miterlimit:4.7;stroke-opacity:1" transform="translate(-14.163 -27.375)"/><path d="M31.736 11.888c-5.322.09-10.664-.168-15.968.337-1.897.14-3.833.867-4.827 2.596-1.788 2.895-2.625 6.274-3.7 9.478C5.55 30.444 4.01 36.878 4.787 43.288c.565 3.873 4.043 7.394 8.022 7.53 2.56.04 3.878-2.35 4.832-4.351 1.62-2.253 1.943-5.639 4.53-7.03 1.927-.548 3.983-.18 5.972-.287 4.105.022 8.214-.045 12.317.034 2.656.36 3.16 3.292 4.345 5.218 1.2 1.951 2.012 4.43 3.896 5.828.3.222.858.454 1.227.51 3.078.47 6.105-1.77 7.674-4.294 2.488-4.492 1.255-9.815.49-14.592-1.231-5.895-2.676-11.866-5.473-17.238-1.663-2.722-5.192-2.49-7.975-2.638-4.302-.07-8.605-.086-12.908-.09M18.24 16.894a4.77 4.77 0 1 1 0 9.54 4.77 4.77 0 0 1-4.773-4.77 4.77 4.77 0 0 1 4.773-4.77m25.584.748a2.046 2.046 0 1 1-.004 4.092 2.046 2.046 0 0 1 .004-4.092m-3.684 3.684a2.046 2.046 0 1 1-.003 4.092 2.046 2.046 0 0 1 .003-4.092m7.368 0a2.046 2.046 0 1 1-.004 4.092 2.046 2.046 0 0 1 .004-4.092m-3.684 3.684a2.046 2.046 0 1 1-.004 4.091 2.046 2.046 0 0 1 .004-4.091" style="fill:url(#b);stroke-width:1.6032" transform="translate(.168 .647)"/><path d="M21.586 20.453a3.597 3.597 0 0 0-3.598 3.596 3.597 3.597 0 0 0 7.194 0 3.596 3.596 0 0 0-3.596-3.596z" style="mix-blend-mode:normal;fill:none;stroke:#0800ff;stroke-width:.2;stroke-dasharray:none;stroke-opacity:1;filter:url(#c)" transform="translate(-10.228 -9.607)scale(1.32658)"/><path d="M31.76 16.68c-4.012.068-8.039-.127-12.037.254-1.43.106-2.89.654-3.639 1.957-1.348 2.182-1.979 4.73-2.79 7.144-1.275 4.633-2.435 9.483-1.849 14.315.426 2.92 3.048 5.574 6.047 5.675 1.93.031 2.923-1.77 3.643-3.279 1.221-1.698 1.464-4.25 3.414-5.299 1.453-.413 3.003-.136 4.502-.217 3.095.017 6.192-.033 9.285.026 2.002.272 2.382 2.482 3.275 3.933.99 1.61 1.63 3.697 3.364 4.67 2.486.703 5.015-1.09 6.283-3.129 1.876-3.386.946-7.399.369-11-.928-4.443-2.017-8.944-4.125-12.994-1.254-2.052-3.914-1.876-6.012-1.988a633 633 0 0 0-9.73-.068z" style="fill:none;stroke:#000;stroke-width:.209;stroke-dasharray:none;stroke-opacity:1;filter:url(#d)" transform="translate(-10.228 -9.592)scale(1.32658)"/><path d="M58.16 45.679a2.036 2.036 0 1 0-.003 4.073 2.036 2.036 0 0 0 .003-4.073zm-3.667 3.667a2.036 2.036 0 1 0-.003 4.072 2.036 2.036 0 0 0 .003-4.072zm7.334 0a2.036 2.036 0 1 0-.003 4.072 2.036 2.036 0 0 0 .003-4.072zm-3.667 3.666a2.036 2.036 0 1 0-.003 4.073 2.036 2.036 0 0 0 .003-4.073z" style="opacity:.750702;mix-blend-mode:normal;fill:none;stroke:#0800ff;stroke-width:.128299;stroke-dasharray:none;stroke-opacity:1;filter:url(#e)" transform="translate(-14.163 -27.375)"/></svg>