<svg xmlns="http://www.w3.org/2000/svg" xmlns:xlink="http://www.w3.org/1999/xlink" width="64" height="64"><defs><radialGradient xlink:href="#a" id="d" cx="27.734" cy="11.548" r="14" fx="27.734" fy="11.548" gradientTransform="rotate(45 75.76 -36.3)scale(2.72712)" gradientUnits="userSpaceOnUse"/><radialGradient xlink:href="#b" id="c" cx="27.734" cy="11.548" r="14" fx="27.734" fy="11.548" gradientTransform="rotate(45 75.76 -36.3)scale(2.72712)" gradientUnits="userSpaceOnUse"/><linearGradient id="b"><stop offset="0" style="stop-color:#fff;stop-opacity:1"/><stop offset="1" style="stop-color:#e4e4e4;stop-opacity:1"/></linearGradient><linearGradient id="a"><stop offset="0" style="stop-color:#00d6ff;stop-opacity:1"/><stop offset="1" style="stop-color:#0097ff;stop-opacity:1"/></linearGradient><filter id="f" width="1.278" height="1.278" x="-.139" y="-.139" style="color-interpolation-filters:sRGB"><feGaussianBlur stdDeviation="1.75"/></filter><filter id="e" width="1.278" height="1.278" x="-.139" y="-.139" style="color-interpolation-filters:sRGB"><feGaussianBlur stdDeviation="1.75"/></filter></defs><path d="M36.146 9h9.447a9.277 9.277 45 0 1 9.276 9.277v9.446A9.277 9.277 135 0 1 45.594 37h-9.447a9.277 9.277 45 0 1-9.276-9.277v-9.446A9.277 9.277 135 0 1 36.146 9" style="fill:url(#c);stroke-width:.217316;stroke-linecap:round;stroke-linejoin:round;stroke-miterlimit:2.1;paint-order:markers stroke fill" transform="translate(-27.023 14.252)scale(1.1962)"/><path d="M17.994 30.665q1.342.93 2.478 2.272l-1.342 1.65q-1.24-1.549-2.583-2.58zm0 6.505q1.239.93 2.375 2.065l-1.342 1.756a14 14 0 0 0-2.479-2.479zm.413 7.124 1.652 1.137a34.4 34.4 0 0 1-3.614 8.155l-1.755-1.342a36.3 36.3 0 0 0 3.717-7.95m4.853-14.456 1.961.413a9.3 9.3 0 0 1-.619 1.962h8.055v1.859h-8.88l-.93 1.548q-.414.827-1.342 1.756l-1.24-1.446q1.962-2.374 2.995-6.092m-.516 6.402h9.5q0 3.2-.103 5.989h1.342v1.858h-1.446a94 94 0 0 0-.31 4.234h1.55v1.756H31.52q-.414 3.614-2.893 3.614-.62 0-1.755-.206l-.31-1.755q1.343.206 2.065.206.724 0 .93-1.858h-8.055q.414-2.789.723-5.99h-1.446V42.23h1.653q.205-2.891.31-5.99m1.548 5.99h5.886q.103-2.168.103-4.234H24.6a72 72 0 0 1-.31 4.234m2.585-3.717a12 12 0 0 1 2.065 1.652l-1.239 1.549a13.3 13.3 0 0 0-2.064-1.859zm2.892 9.81q.205-2.169.31-4.234h-5.887a65 65 0 0 1-.516 4.233zm-3.201-3.717a13.7 13.7 0 0 1 2.271 1.653l-1.342 1.548a14.4 14.4 0 0 0-2.168-1.961zM15.722 32.318v16.211h-1.86v-1.755h-1.755v2.685H10.25V32.318l2.808-.031m-.95 12.732h1.756V34.073h-1.756z" style="opacity:1;fill:#00b3ff;fill-opacity:1;stroke-width:1.08425"/><path d="M36.146 9h9.447a9.277 9.277 45 0 1 9.276 9.277v9.446A9.277 9.277 135 0 1 45.594 37h-9.447a9.277 9.277 45 0 1-9.276-9.277v-9.446A9.277 9.277 135 0 1 36.146 9" style="fill:url(#d);stroke-width:.217316;stroke-linecap:round;stroke-linejoin:round;stroke-miterlimit:2.1;paint-order:markers stroke fill" transform="translate(-6.754 -5.277)scale(1.1962)"/><path d="M40.984 16.22c.36 1.509 1.265 5.291 1.905 7.882.122.496-.191.898-.702.898h-2.841c-.51 0-.814-.4-.682-.893.686-2.56 1.63-6.372 2.002-7.888.09-.361.231-.36.318.002M50.739 34l-6-19.175A4.03 4.03 36.313 0 0 40.897 12h-.053A4.03 4.03 143.687 0 0 37 14.825L31 34h3.533a1.995 1.995 142.555 0 0 1.926-1.475l.67-2.484A1.41 1.41 142.555 0 1 38.49 29h4.559a1.41 1.41 37.448 0 1 1.359 1.041l.67 2.484A1.995 1.995 37.448 0 0 47.003 34Z" style="fill:#fff" transform="translate(2.28 -.193)scale(.97515)"/><path d="M16.965 25.566c-5.652 0-10.234 4.583-10.235 10.235v10.422c0 5.652 4.583 10.234 10.235 10.234h10.422c5.652 0 10.234-4.582 10.234-10.234v-7.778h-1.963c-1.39 0-2.717-.278-3.926-.78a143 143 0 0 1-.08 3.774h1.237v1.715h-1.334a86 86 0 0 0-.284 3.905H32.7v1.619h-1.62q-.382 3.334-2.668 3.334-.571 0-1.619-.19l-.287-1.619q1.24.19 1.906.19.667 0 .858-1.713h-7.43q.381-2.573.666-5.526h-1.332v-1.713h1.523q.19-2.667.287-5.525h5.942a10.3 10.3 0 0 1-1.766-2h-3.222l-.858 1.43q-.381.761-1.238 1.617l-1.143-1.332q1.81-2.19 2.762-5.62l1.809.382a8.6 8.6 0 0 1-.57 1.808h1.53a10.2 10.2 0 0 1-.806-3.99v-2.645zm1.639 5.21h.002a11.8 11.8 0 0 1 2.285 2.093l-1.239 1.524q-1.144-1.429-2.38-2.381zm-7.143 1.523h5.049V47.25h-1.715v-1.617h-1.62v2.474h-1.714zm1.715 1.619v10.096h1.619V33.918Zm5.428 2.855a21 21 0 0 1 2.19 1.907l-1.237 1.619a13 13 0 0 0-2.286-2.287zm6.093.762a67 67 0 0 1-.285 3.906h5.428q.095-2 .096-3.906zm2.098.479q1.049.666 1.906 1.523l-1.142 1.428a12.2 12.2 0 0 0-1.905-1.715zm-2.477 5.142a60 60 0 0 1-.476 3.905h5.619q.19-2 .287-3.905zm-5.334.19 1.524 1.047a31.7 31.7 0 0 1-3.332 7.521l-1.62-1.236a33.4 33.4 0 0 0 3.428-7.332m7.526.287q1.143.666 2.095 1.523l-1.238 1.428a13.3 13.3 0 0 0-2-1.809z" style="mix-blend-mode:normal;fill:none;stroke:#000;stroke-width:.181281;stroke-linecap:round;stroke-linejoin:round;stroke-miterlimit:2.1;paint-order:markers stroke fill;filter:url(#e)" transform="translate(-2.178 -2.702)scale(1.08425)"/><path d="M35.658 7.555a10.235 10.235 0 0 0-10.234 10.234v10.422a10.235 10.235 0 0 0 10.234 10.234H46.08a10.235 10.235 0 0 0 10.234-10.234V17.789A10.235 10.235 0 0 0 46.08 7.555Zm5.188 5.552h.047a3.62 3.62 0 0 1 3.457 2.541l5.396 17.245h-3.36a1.794 1.794 0 0 1-1.732-1.327l-.603-2.234a1.266 1.266 0 0 0-1.223-.936h-4.1a1.266 1.266 0 0 0-1.222.936l-.604 2.234a1.794 1.794 0 0 1-1.732 1.327h-3.178l5.397-17.245a3.62 3.62 0 0 1 3.457-2.54m-.016 3.551c-.052 0-.103.082-.143.244a419 419 0 0 1-1.8 7.094c-.12.444.154.803.613.803h2.555c.46 0 .74-.36.63-.807-.575-2.33-1.388-5.733-1.712-7.09-.04-.163-.091-.244-.143-.244" style="mix-blend-mode:normal;fill:none;stroke:#000;stroke-width:.181281;stroke-linecap:round;stroke-linejoin:round;stroke-miterlimit:2.1;paint-order:markers stroke fill;filter:url(#f)" transform="translate(-2.178 -2.702)scale(1.08425)"/></svg>