<svg xmlns="http://www.w3.org/2000/svg" xmlns:xlink="http://www.w3.org/1999/xlink" width="64" height="64"><defs><radialGradient id="b" cx="-159.431" cy="15.463" r="64.707" fx="-159.431" fy="15.463" gradientTransform="matrix(-.89413 0 0 .96305 -140.854 38.048)" gradientUnits="userSpaceOnUse"><stop offset="0" style="stop-color:#656565;stop-opacity:1"/><stop offset="1" style="stop-color:#424242;stop-opacity:1"/></radialGradient><radialGradient id="a" cx="-159.431" cy="15.463" r="64.707" fx="-159.431" fy="15.463" gradientTransform="matrix(-.89413 0 0 .96305 -140.854 38.048)" gradientUnits="userSpaceOnUse"><stop offset="0" style="stop-color:#646464;stop-opacity:1"/><stop offset="1" style="stop-color:#848484;stop-opacity:1"/></radialGradient><radialGradient xlink:href="#a" id="c" cx="7.45" cy="80.081" r="25.649" fx="7.45" fy="80.081" gradientTransform="matrix(0 -2.58859 2.59716 0 -142.694 84.584)" gradientUnits="userSpaceOnUse"/><radialGradient xlink:href="#b" id="d" cx="-9.067" cy="42.035" r="26.99" fx="-9.067" fy="42.035" gradientTransform="matrix(2.26124 0 0 2.45383 19.296 -38.053)" gradientUnits="userSpaceOnUse"/><radialGradient xlink:href="#b" id="f" cx="46.101" cy="18.019" r="8.17" fx="46.101" fy="18.019" gradientTransform="translate(468.282 153.323)scale(-8.6917)" gradientUnits="userSpaceOnUse"/><filter id="e" width="1.052" height="1.048" x="-.026" y="-.024" style="color-interpolation-filters:sRGB"><feGaussianBlur stdDeviation=".531"/></filter><filter id="g" width="1.167" height="1.167" x="-.084" y="-.084" style="color-interpolation-filters:sRGB"><feGaussianBlur stdDeviation=".549"/></filter></defs><path d="M30.637 2.899a5.806 5.806 0 0 0-5.82 5.818v2.73a21.8 21.8 0 0 0-6.884 3.976l-2.365-1.363a5.807 5.807 0 0 0-7.95 2.13L6.16 18.707a5.81 5.81 0 0 0 2.132 7.953l2.354 1.358a22 22 0 0 0-.38 3.982 22 22 0 0 0 .38 3.982L8.293 37.34a5.81 5.81 0 0 0-2.132 7.953l1.456 2.517a5.807 5.807 0 0 0 7.951 2.13l2.35-1.354a21.8 21.8 0 0 0 6.898 3.963v2.734a5.806 5.806 0 0 0 5.821 5.818h2.91a5.806 5.806 0 0 0 5.821-5.818v-2.745a21.8 21.8 0 0 0 6.884-3.96l2.365 1.362a5.807 5.807 0 0 0 7.95-2.13l1.457-2.517a5.81 5.81 0 0 0-2.133-7.953l-2.354-1.358A22 22 0 0 0 53.92 32a22 22 0 0 0-.383-3.982l2.354-1.358a5.81 5.81 0 0 0 2.133-7.953l-1.457-2.517a5.807 5.807 0 0 0-7.95-2.13l-2.348 1.354a21.8 21.8 0 0 0-6.9-3.965V8.717A5.806 5.806 0 0 0 33.547 2.9zm1.376 20.037A9.06 9.06 0 0 1 41.077 32a9.066 9.066 0 0 1-18.13 0c0-5.007 4.06-9.064 9.066-9.064" style="baseline-shift:baseline;display:inline;overflow:visible;vector-effect:none;fill:url(#c);stroke-width:1.04162;enable-background:accumulate;stop-color:#000"/><path d="M30.637 1.492c-3.98 0-7.226 3.247-7.226 7.226v1.833a23.2 23.2 0 0 0-5.548 3.206l-1.591-.917v.002c-3.447-1.99-7.883-.801-9.873 2.645l-1.455 2.516v.002c-1.99 3.447-.801 7.882 2.645 9.871l1.579.912c-.153 1.064-.303 2.13-.307 3.206v.012c.004 1.076.154 2.142.307 3.206l-1.579.912c-3.446 1.99-4.634 6.424-2.645 9.87v.003L6.4 48.513c1.99 3.447 6.426 4.635 9.873 2.645l1.577-.91a23.2 23.2 0 0 0 5.562 3.195v1.839c0 3.979 3.247 7.226 7.226 7.226h2.911c3.98 0 7.226-3.247 7.226-7.226v-1.85a23 23 0 0 0 5.548-3.191l1.593.92c3.446 1.987 7.882.798 9.87-2.648l1.456-2.516.002-.002c1.99-3.447.799-7.882-2.647-9.871l-1.577-.912c.153-1.064.303-2.13.307-3.206v-.012c-.004-1.076-.154-2.142-.307-3.206l1.577-.912c3.446-1.99 4.636-6.424 2.647-9.87l-.002-.003-1.455-2.516c-1.99-3.446-6.427-4.635-9.873-2.645l-1.575.91a23.2 23.2 0 0 0-5.564-3.197V8.718c0-3.979-3.247-7.226-7.226-7.226zm0 2.812h2.911a4.375 4.375 0 0 1 4.415 4.414v3.727l.938.332c2.36.83 4.55 2.087 6.457 3.709l.755.642 3.208-1.85a4.374 4.374 0 0 1 6.03 1.615v.002l1.456 2.516h-.002a4.374 4.374 0 0 1-1.615 6.03l-3.22 1.86.187.98A20.4 20.4 0 0 1 52.513 32a20.4 20.4 0 0 1-.356 3.719l-.187.98 3.22 1.86a4.374 4.374 0 0 1 1.615 6.03h.002l-1.456 2.516v.003a4.374 4.374 0 0 1-6.03 1.615h-.002l-3.223-1.86-.755.643a20.4 20.4 0 0 1-6.44 3.705l-.938.332v3.739a4.375 4.375 0 0 1-4.415 4.414h-2.911a4.373 4.373 0 0 1-4.413-4.414V51.55l-.94-.33a20.4 20.4 0 0 1-6.457-3.707l-.755-.642-3.206 1.85a4.376 4.376 0 0 1-6.032-1.614v-.003L7.38 44.59a4.375 4.375 0 0 1 1.618-6.03l3.218-1.86-.185-.98a20.4 20.4 0 0 1-.359-3.72c.005-1.248.126-2.493.358-3.719l.185-.98-3.218-1.86a4.375 4.375 0 0 1-1.618-6.03l1.455-2.516v-.003a4.376 4.376 0 0 1 6.032-1.615l3.225 1.86.756-.645a20.4 20.4 0 0 1 6.44-3.721l.937-.332V8.72a4.373 4.373 0 0 1 4.413-4.415" style="baseline-shift:baseline;display:inline;overflow:visible;vector-effect:none;fill:url(#d);stroke-width:1.04162;enable-background:accumulate;stop-color:#000"/><path d="M30.691 4.586c-3.575 0-6.493 2.917-6.493 6.493v1.647a20.8 20.8 0 0 0-4.985 2.881l-1.43-.824v.002c-3.097-1.788-7.084-.72-8.872 2.376l-1.307 2.262v.001c-1.788 3.097-.72 7.083 2.377 8.87l1.418.82c-.137.956-.272 1.913-.276 2.88v.012c.004.967.139 1.924.276 2.88l-1.418.82c-3.097 1.787-4.165 5.773-2.377 8.87v.001l1.307 2.262c1.788 3.097 5.775 4.164 8.872 2.376l1.417-.817a20.8 20.8 0 0 0 4.998 2.87v1.653c0 3.576 2.918 6.493 6.493 6.493h2.616c3.576 0 6.494-2.917 6.494-6.493v-1.662a20.8 20.8 0 0 0 4.985-2.868l1.431.826c3.097 1.787 7.083.718 8.87-2.378l1.307-2.262.002-.001c1.788-3.097.719-7.083-2.378-8.87l-1.417-.82c.138-.956.273-1.913.276-2.88v-.012c-.003-.967-.138-1.924-.276-2.88l1.417-.82c3.097-1.787 4.166-5.773 2.378-8.87l-.002-.002-1.307-2.26c-1.787-3.098-5.774-4.165-8.871-2.377l-1.415.817a20.8 20.8 0 0 0-5-2.872v-1.65c0-3.577-2.918-6.494-6.494-6.494zm0 2.526h2.616a3.93 3.93 0 0 1 3.967 3.967v3.35l.843.297a18.4 18.4 0 0 1 5.802 3.333l.679.577 2.883-1.663a3.93 3.93 0 0 1 5.418 1.451v.002l1.31 2.262h-.003a3.93 3.93 0 0 1-1.451 5.418l-2.894 1.671.168.881a18.4 18.4 0 0 1 .32 3.342 18.4 18.4 0 0 1-.32 3.342l-.168.88 2.894 1.672a3.93 3.93 0 0 1 1.451 5.418h.002L52.9 45.574v.002a3.93 3.93 0 0 1-5.418 1.451h-.002l-2.896-1.67-.678.577a18.4 18.4 0 0 1-5.788 3.329l-.843.298v3.36a3.93 3.93 0 0 1-3.967 3.967h-2.616a3.93 3.93 0 0 1-3.965-3.967v-3.353l-.845-.296a18.4 18.4 0 0 1-5.802-3.33l-.678-.579-2.881 1.664a3.933 3.933 0 0 1-5.42-1.451v-.002l-1.308-2.262a3.93 3.93 0 0 1 1.454-5.418l2.892-1.671-.167-.881A18.4 18.4 0 0 1 13.65 32c.004-1.121.113-2.24.321-3.342l.167-.881-2.892-1.67a3.93 3.93 0 0 1-1.454-5.42l1.307-2.26v-.003a3.933 3.933 0 0 1 5.42-1.451l2.898 1.67.68-.579a18.4 18.4 0 0 1 5.786-3.343l.843-.298v-3.344a3.93 3.93 0 0 1 3.965-3.967z" style="baseline-shift:baseline;display:inline;overflow:visible;mix-blend-mode:normal;fill:none;stroke:#000;stroke-width:.1;stroke-dasharray:none;stroke-opacity:1;filter:url(#e);enable-background:accumulate;stop-color:#000" transform="translate(-3.611 -3.611)scale(1.11285)"/><path d="M32 22.908A9.09 9.09 0 0 0 22.908 32 9.09 9.09 0 0 0 32 41.092 9.09 9.09 0 0 0 41.092 32 9.09 9.09 0 0 0 32 22.908m0 3.106a5.987 5.987 0 1 1-.001 11.973A5.987 5.987 0 0 1 32 26.014" style="opacity:1;fill:url(#f);stroke-width:.757757"/><path d="M32 23.83A8.17 8.17 0 0 0 23.83 32 8.17 8.17 0 0 0 32 40.17 8.17 8.17 0 0 0 40.17 32 8.17 8.17 0 0 0 32 23.83zm0 2.791a5.38 5.38 0 1 1-.001 10.76A5.38 5.38 0 0 1 32 26.62z" style="opacity:1;mix-blend-mode:normal;fill:none;stroke:#000;stroke-width:.1;stroke-dasharray:none;stroke-opacity:1;filter:url(#g)" transform="translate(-3.611 -3.611)scale(1.11285)"/></svg>