<svg xmlns="http://www.w3.org/2000/svg" xmlns:xlink="http://www.w3.org/1999/xlink" width="64" height="64"><defs><filter id="c" width="1.088" height="1.091" x="-.044" y="-.045" style="color-interpolation-filters:sRGB"><feGaussianBlur stdDeviation="1.017"/></filter><filter id="d" width="1.153" height="1.148" x="-.076" y="-.074" style="color-interpolation-filters:sRGB"><feGaussianBlur stdDeviation=".576"/></filter><radialGradient xlink:href="#a" id="b" cx="18.851" cy="50.033" r="29" fx="18.851" fy="50.033" gradientTransform="rotate(-30 -29.53 85.935)scale(1.6249 1.56886)" gradientUnits="userSpaceOnUse"/><linearGradient id="a"><stop offset="0" style="stop-color:#2ccfff;stop-opacity:1"/><stop offset="1" style="stop-color:#2c94ff;stop-opacity:1"/></linearGradient></defs><path d="M32 4c-2.614.037-4.479 1.612-5.354 4.219l.032-.118L22.57 20H8.63c-1.654.053-3.146 1.025-4.197 2.304-2.273 2.61-1.79 7.314 1.095 9.26l10.891 7.961-4.227 13.131-.013.043c-.646 2.121-.039 4.308 1.586 5.803l.039.033c1.952 1.735 4.694 1.956 6.898.52q.064-.042.125-.087L32 51l11.174 7.968q.061.046.125.086c2.204 1.437 4.946 1.216 6.898-.52l.04-.032c1.624-1.495 2.231-3.682 1.585-5.803l-.013-.043-4.227-13.13 10.89-7.962c2.887-1.946 3.37-6.65 1.096-9.26-1.05-1.279-2.543-2.25-4.197-2.304H41.43L37.322 8.1l.032.118c-.875-2.607-2.74-4.182-5.354-4.22" style="fill:url(#b)"/><path d="M32 4c-2.614.038-4.479 1.613-5.354 4.22l.032-.118-4.108 11.899H8.63c-1.654.054-3.146 1.025-4.197 2.305-2.273 2.609-1.79 7.314 1.095 9.26l10.891 7.96-4.227 13.131-.013.043c-.646 2.122-.039 4.308 1.586 5.803l.039.033c1.952 1.735 4.694 1.956 6.898.52q.064-.042.125-.086L32 51l11.174 7.97q.061.044.125.086c2.204 1.436 4.946 1.215 6.898-.52l.04-.033c1.624-1.495 2.231-3.681 1.585-5.803l-.013-.043-4.227-13.13 10.89-7.962c2.887-1.945 3.37-6.65 1.096-9.26-1.05-1.279-2.543-2.25-4.197-2.304H41.43L37.322 8.102l.032.118C36.479 5.613 34.614 4.038 32 4Z" style="fill:none;fill-opacity:1;stroke:#000;stroke-width:.2;stroke-dasharray:none;stroke-opacity:1;filter:url(#c)"/><path d="m36.726 40.542-.66-1.753A1.22 1.22 34.676 0 0 34.925 38h-5.85a1.22 1.22 145.324 0 0-1.14.79l-.66 1.752A2.25 2.25 145.324 0 1 25.165 42H22l6.37-17.44A3.9 3.9 145.032 0 1 32.03 22a3.84 3.84 35.59 0 1 3.575 2.559L42 42h-3.166a2.25 2.25 34.676 0 1-2.108-1.458m-2.208-7.217-2.292-7.49a.234.234 179.83 0 0-.448.002l-2.242 7.486a.526.526 53.336 0 0 .504.677h3.978a.522.522 126.493 0 0 .5-.675" style="font-size:19.9042px;line-height:1.25;letter-spacing:0;word-spacing:0;fill:#fff;stroke-width:1.42857"/><path d="M36.726 40.542 35.768 38h-7.536l-.958 2.542A2.25 2.25 145.324 0 1 25.166 42H22l6.37-17.44A3.9 3.9 145.032 0 1 32.03 22a3.84 3.84 35.59 0 1 3.575 2.559L42 42h-3.166a2.25 2.25 34.676 0 1-2.108-1.458zM34.725 34 32 25.096 29.333 34z" style="font-size:19.9042px;line-height:1.25;letter-spacing:0;word-spacing:0;fill:none;stroke-width:.2;stroke:#01f;stroke-opacity:1;stroke-dasharray:none;filter:url(#d)"/></svg>