<svg xmlns="http://www.w3.org/2000/svg" xmlns:xlink="http://www.w3.org/1999/xlink" width="64" height="64"><defs><filter id="e" width="1.6" height="1.6" x="-.3" y="-.3" style="color-interpolation-filters:sRGB"><feGaussianBlur stdDeviation=".943"/></filter><filter id="f" width="1.6" height="1.6" x="-.3" y="-.3" style="color-interpolation-filters:sRGB"><feGaussianBlur stdDeviation=".943"/></filter><filter id="g" width="1.6" height="1.6" x="-.3" y="-.3" style="color-interpolation-filters:sRGB"><feGaussianBlur stdDeviation=".943"/></filter><filter id="h" width="1.194" height="1.252" x="-.097" y="-.126" style="color-interpolation-filters:sRGB"><feGaussianBlur stdDeviation="2.112"/></filter><radialGradient xlink:href="#a" id="c" cx="7.229" cy="65.76" r="27.922" fx="7.229" fy="65.76" gradientTransform="matrix(4.12708 -1.25697 .88956 3.77358 -79.856 -168.984)" gradientUnits="userSpaceOnUse"/><radialGradient xlink:href="#b" id="d" cx="28.933" cy="55.842" r="28" fx="28.933" fy="55.842" gradientTransform="rotate(-15 -422.53 563.42)scale(4.26271 3.429)" gradientUnits="userSpaceOnUse"/><linearGradient id="a"><stop offset="0" style="stop-color:#ff5ba6;stop-opacity:1"/><stop offset="1" style="stop-color:#ff7500;stop-opacity:1"/></linearGradient><linearGradient id="b"><stop offset="0" style="stop-color:#cd3a77;stop-opacity:1"/><stop offset="1" style="stop-color:#d83626;stop-opacity:1"/></linearGradient></defs><path d="M22.739 11.427h31.307a5.876 5.876 45 0 1 5.876 5.876v43.633a5.876 5.876 135 0 1-5.876 5.876H22.74a5.876 5.876 45 0 1-5.876-5.876V17.303a5.876 5.876 135 0 1 5.876-5.876" style="fill:url(#c);fill-opacity:1;stroke-width:.4" transform="matrix(0 -.94793 .83397 0 2.857 68.393)"/><path d="m16.867 9.774-.076 7.587H60V9.88c0-3.247-2.632-5.91-5.878-5.922-8.228-.028-23.09-.047-31.318-.055a5.943 5.943 0 0 0-5.937 5.872" style="fill:url(#d);fill-opacity:1" transform="matrix(0 -.9475 .9475 0 1.727 68.38)"/><g transform="rotate(90 12.21 17.737)"><circle cx="11.931" cy="18.17" r="2.922" style="fill:#fff;fill-opacity:1;stroke-width:.730536;opacity:.71263223"/><circle cx="20.697" cy="18.17" r="2.922" style="fill:#fff;fill-opacity:1;stroke-width:.730536;opacity:.71263223"/><circle cx="29.464" cy="18.17" r="2.922" style="fill:#fff;fill-opacity:1;stroke-width:.730536;opacity:.71263223"/><circle cx="12" cy="20.155" r="4" style="mix-blend-mode:normal;fill:none;stroke:#000;stroke-width:.273772;stroke-dasharray:none;stroke-opacity:1;filter:url(#e)" transform="translate(3.066 3.468)scale(.73054)"/><circle cx="24" cy="20.155" r="4" style="mix-blend-mode:normal;fill:none;stroke:#000;stroke-width:.273772;stroke-dasharray:none;stroke-opacity:1;filter:url(#f)" transform="translate(3.066 3.468)scale(.73054)"/><circle cx="36" cy="20.155" r="4" style="mix-blend-mode:normal;fill:none;stroke:#000;stroke-width:.273772;stroke-dasharray:none;stroke-opacity:1;filter:url(#g)" transform="translate(3.066 3.468)scale(.73054)"/></g><g style="stroke:#000;stroke-width:.2;stroke-dasharray:none;stroke-opacity:1;filter:url(#h)" transform="translate(.405 -37.641)"><path d="M17.771 49.232V90.05H53.27a4.9 5.57 0 0 0 4.9-5.57V54.8a4.9 5.57 0 0 0-4.9-5.569zm-7.089-.062c-3.077 0-5.6 2.494-5.61 5.57-.027 7.796-.044 21.878-.052 29.674a5.63 5.63 0 0 0 5.564 5.625l7.187.072V49.17z" style="fill:none;stroke:#000;stroke-width:.2;stroke-dasharray:none;stroke-opacity:1"/></g></svg>