<svg xmlns="http://www.w3.org/2000/svg" xmlns:xlink="http://www.w3.org/1999/xlink" width="64" height="64"><defs><filter id="c" width="1.204" height="1.239" x="-.102" y="-.12" style="color-interpolation-filters:sRGB"><feGaussianBlur stdDeviation="2.411"/></filter><filter id="d" width="1.256" height="1.256" x="-.128" y="-.128" style="color-interpolation-filters:sRGB"><feGaussianBlur stdDeviation=".906"/></filter><radialGradient xlink:href="#a" id="b" cx="9.617" cy="46.423" r="29.302" fx="9.617" fy="46.423" gradientTransform="rotate(-45 -47.158 86.074)scale(2.33172 2.16177)" gradientUnits="userSpaceOnUse"/><linearGradient id="a"><stop offset="0" style="stop-color:#00bdff;stop-opacity:.99607497"/><stop offset="1" style="stop-color:#0078f0;stop-opacity:1"/></linearGradient></defs><rect width="52.998" height="45.262" x="5.501" y="9.369" rx="13.228" ry="13.228" style="opacity:1;fill:url(#b);stroke:none;stroke-width:.361738"/><rect width="58.604" height="50.05" x="2.698" y="6.975" rx="14.627" ry="14.627" style="fill:none;stroke:#000;stroke-width:.4;stroke-opacity:1;filter:url(#c)" transform="translate(3.061 3.061)scale(.90434)"/><g transform="translate(3.965 3.965)scale(1.80869)"><circle cx="-15.5" cy="8.5" r="1.5" style="opacity:.6;fill:#fff" transform="scale(-1 1)"/><circle cx="-15.5" cy="22.5" r="1.5" style="fill:#fff" transform="scale(-1 1)"/><circle cx="-15.5" cy="-22.5" r="1.5" style="opacity:.4;fill:#fff" transform="rotate(90)scale(-1 1)"/><circle cx="-15.5" cy="-8.5" r="1.5" style="opacity:.8;fill:#fff" transform="rotate(90)scale(-1 1)"/><circle cy="-28.92" r="1.5" style="opacity:.3;fill:#fff" transform="rotate(-45)scale(1 -1)"/><circle cy="-14.92" r="1.5" style="opacity:.7;fill:#fff" transform="rotate(-45)scale(1 -1)"/><circle cx="-21.92" cy="-7" r="1.5" style="opacity:.9;fill:#fff" transform="rotate(-135)"/><circle cx="-21.92" cy="7" r="1.5" style="opacity:.5;fill:#fff" transform="rotate(-135)"/></g><g style="opacity:1;fill:#fff;fill-opacity:1;stroke:none;stroke-width:.25;stroke-dasharray:none;stroke-opacity:1;filter:url(#d)" transform="translate(3.965 3.965)scale(1.80869)"><circle cx="-15.5" cy="8.5" r="1.5" style="opacity:.6;fill:#fff;fill-opacity:1;stroke:none;stroke-width:.25;stroke-dasharray:none;stroke-opacity:1" transform="scale(-1 1)"/><circle cx="-15.5" cy="22.5" r="1.5" style="fill:#fff;fill-opacity:1;stroke:none;stroke-width:.25;stroke-dasharray:none;stroke-opacity:1" transform="scale(-1 1)"/><circle cx="-15.5" cy="-22.5" r="1.5" style="opacity:.4;fill:#fff;fill-opacity:1;stroke:none;stroke-width:.25;stroke-dasharray:none;stroke-opacity:1" transform="rotate(90)scale(-1 1)"/><circle cx="-15.5" cy="-8.5" r="1.5" style="opacity:.8;fill:#fff;fill-opacity:1;stroke:none;stroke-width:.25;stroke-dasharray:none;stroke-opacity:1" transform="rotate(90)scale(-1 1)"/><circle cy="-28.92" r="1.5" style="opacity:.3;fill:#fff;fill-opacity:1;stroke:none;stroke-width:.25;stroke-dasharray:none;stroke-opacity:1" transform="rotate(-45)scale(1 -1)"/><circle cy="-14.92" r="1.5" style="opacity:.7;fill:#fff;fill-opacity:1;stroke:none;stroke-width:.25;stroke-dasharray:none;stroke-opacity:1" transform="rotate(-45)scale(1 -1)"/><circle cx="-21.92" cy="-7" r="1.5" style="opacity:.9;fill:#fff;fill-opacity:1;stroke:none;stroke-width:.25;stroke-dasharray:none;stroke-opacity:1" transform="rotate(-135)"/><circle cx="-21.92" cy="7" r="1.5" style="opacity:.5;fill:#fff;fill-opacity:1;stroke:none;stroke-width:.25;stroke-dasharray:none;stroke-opacity:1" transform="rotate(-135)"/></g></svg>