<svg xmlns="http://www.w3.org/2000/svg" width="64" height="64"><circle cx="32.5" cy="32.5" r="28.5" class="cls-1" style="opacity:.2"/><circle cx="32.5" cy="31.5" r="28.5" class="cls-1" style="fill:#6a84e2"/><path d="M15.535 20A2.535 2.513 0 0 0 13 22.512v19.976A2.535 2.513 0 0 0 15.535 45h33.93A2.535 2.513 0 0 0 52 42.488V22.512A2.535 2.513 0 0 0 49.465 20Zm2.153 5a.736.747 0 0 1 .074 0 .736.747 0 0 1 .338.1l11.535 6.757a.736.747 0 0 1 0 1.29L18.1 39.901a.736.747 0 0 1-1.1-.644V25.744a.736.747 0 0 1 .688-.744m17.496 1h7.632A1.189 1.506 0 0 1 44 27.5a1.189 1.506 0 0 1-1.184 1.5h-7.632A1.189 1.506 0 0 1 34 27.5a1.166 1.477 0 0 1 .35-1.057 1.166 1.477 0 0 1 .834-.443m-.069 5h11.77a1.115 1.5 0 0 1 .79 2.557 1.12 1.506 0 0 1-.79.443h-11.77A1.12 1.506 0 0 1 34 32.5a1.12 1.506 0 0 1 1.115-1.5m0 5h11.77a1.115 1.5 0 0 1 .79 2.557 1.12 1.506 0 0 1-.79.443h-11.77A1.12 1.506 0 0 1 34 37.5a1.12 1.506 0 0 1 1.115-1.5" style="opacity:.2"/><path d="M15.535 19A2.535 2.513 0 0 0 13 21.512v19.976A2.535 2.513 0 0 0 15.535 44h33.93A2.535 2.513 0 0 0 52 41.488V21.512A2.535 2.513 0 0 0 49.465 19Zm2.153 5a.736.747 0 0 1 .074 0 .736.747 0 0 1 .338.1l11.535 6.757a.736.747 0 0 1 0 1.29L18.1 38.901a.736.747 0 0 1-1.1-.644V24.744a.736.747 0 0 1 .688-.744m17.496 1h7.632A1.189 1.506 0 0 1 44 26.5a1.189 1.506 0 0 1-1.184 1.5h-7.632A1.189 1.506 0 0 1 34 26.5a1.166 1.477 0 0 1 .35-1.057 1.166 1.477 0 0 1 .834-.443m-.069 5h11.77a1.115 1.5 0 0 1 .79 2.557 1.12 1.506 0 0 1-.79.443h-11.77A1.12 1.506 0 0 1 34 31.5a1.12 1.506 0 0 1 1.115-1.5m0 5h11.77a1.115 1.5 0 0 1 .79 2.557 1.12 1.506 0 0 1-.79.443h-11.77A1.12 1.506 0 0 1 34 36.5a1.12 1.506 0 0 1 1.115-1.5" style="fill:#fff"/><path d="M32.5 3A28.5 28.5 0 0 0 4 31.5a29 29 0 0 0 .021.582A28.5 28.5 0 0 1 32.5 4a28.5 28.5 0 0 1 28.479 27.918L61 31.5A28.5 28.5 0 0 0 32.5 3" style="fill:#fff;opacity:.2"/></svg>