<svg xmlns="http://www.w3.org/2000/svg" xmlns:xlink="http://www.w3.org/1999/xlink" width="64" height="64"><defs><radialGradient xlink:href="#a" id="b" cx="18.53" cy="62.7" r="18.948" fx="18.53" fy="62.7" gradientTransform="rotate(-60 -37.191 104.93)scale(2.4061 2.49494)" gradientUnits="userSpaceOnUse"/><linearGradient id="a"><stop offset="0" style="stop-color:#d990e7;stop-opacity:1"/><stop offset="1" style="stop-color:#81d5fe;stop-opacity:1"/></linearGradient><filter id="c" width="1.295" height="1.311" x="-.148" y="-.155" style="color-interpolation-filters:sRGB"><feGaussianBlur stdDeviation="2.994"/></filter></defs><path d="M14.807 9.173C9.163 11.147 5.792 17.64 7.992 23.53l9.315 24.937.002.005c2.929 7.82 13.728 9.337 18.953 3.22l8.902-10.428 8.901-10.435.004-.004c2.606-3.061 3.282-7.494 1.96-11.033s-4.738-6.443-8.713-7.046h-.005l-13.563-2.042-13.542-2.037h-.013a11.2 11.2 0 0 0-5.354.494z" style="fill:url(#b);stroke-width:1.22196"/><path d="M7.785 16.6c-.661 2.194-.66 4.609.207 6.93l9.315 24.937.002.006c.972 2.597 2.814 4.498 5.03 5.656l23.768-28.815a1.505 1.505 0 0 0-.912-2.443z" style="fill:#3974ff;stroke-width:1.22196;fill-opacity:1;opacity:.49831014"/><g style="fill:none;stroke:#000;stroke-width:.2;stroke-dasharray:none;stroke-opacity:1;filter:url(#c)"><path d="M14.807 9.173C9.163 11.147 5.792 17.64 7.992 23.53l9.315 24.937.002.005c2.929 7.82 13.728 9.337 18.953 3.22l8.902-10.428 8.901-10.435.004-.004c2.606-3.061 3.282-7.494 1.96-11.033s-4.738-6.443-8.713-7.046h-.005l-13.563-2.042-13.542-2.037h-.013a11.2 11.2 0 0 0-5.354.494z" style="fill:none;stroke:#000;stroke-width:.2;stroke-dasharray:none;stroke-opacity:1"/><path d="M7.785 16.6c-.661 2.194-.66 4.609.207 6.93l9.315 24.937.002.006c.972 2.597 2.814 4.498 5.03 5.656l23.768-28.815a1.505 1.505 0 0 0-.912-2.443z" style="opacity:1;fill:none;fill-opacity:1;stroke:#000;stroke-width:.2;stroke-dasharray:none;stroke-opacity:1"/></g></svg>