<svg xmlns="http://www.w3.org/2000/svg" xmlns:xlink="http://www.w3.org/1999/xlink" width="64" height="64"><defs><radialGradient xlink:href="#a" id="b" cx="8.009" cy="71.139" r="28" fx="8.009" fy="71.139" gradientTransform="rotate(-15 -468.548 172.2)scale(3.07114 2.68725)" gradientUnits="userSpaceOnUse"/><linearGradient id="a"><stop offset="0" style="stop-color:#d98bff;stop-opacity:1"/><stop offset="1" style="stop-color:#8b8cff;stop-opacity:1"/></linearGradient><filter id="c" width="1.137" height="1.157" x="-.069" y="-.079" style="color-interpolation-filters:sRGB"><feGaussianBlur stdDeviation="1.562"/></filter></defs><path d="M58.217 7.006c-.292.027-.58.145-.83.37L32 29 6.613 7.377C5.573 6.488 4 7.287 4 8.645V50c0 2.803 3.004 6 5.8 6h44.364C57.388 56 60 53.417 60 50V8.645c0-.998-.908-1.722-1.783-1.64" style="fill:url(#b)" transform="translate(0 .5)"/><path d="M48 15.375 28.1 32.324c-1.9 1.689-4.154 1.631-6.1 0L4 17v33c0 2.802 2.998 6 5.8 6H48Z" style="opacity:.524117;fill:#4d16c8;fill-opacity:1" transform="translate(0 .5)"/><g style="fill:none;stroke:#000;stroke-width:.2;stroke-dasharray:none;stroke-opacity:1;filter:url(#c)" transform="translate(0 .5)"><path d="M58.217 7.006c-.292.027-.58.145-.83.37L32 29 6.613 7.377C5.573 6.488 4 7.287 4 8.645V50c0 2.803 3.004 6 5.8 6h44.364C57.388 56 60 53.417 60 50V8.645c0-.998-.908-1.722-1.783-1.64Z" style="fill:none;stroke:#000;stroke-width:.2;stroke-dasharray:none;stroke-opacity:1"/><path d="M48 15.375 28.1 32.324c-1.9 1.689-4.154 1.631-6.1 0L4 17v33c0 2.802 2.998 6 5.8 6H48Z" style="opacity:1;fill:none;fill-opacity:1;stroke:#000;stroke-width:.2;stroke-dasharray:none;stroke-opacity:1"/></g></svg>