<svg xmlns="http://www.w3.org/2000/svg" width="64" height="64"><rect width="56" height="56" x="4" y="5" rx="28" ry="28" style="opacity:.2"/><rect width="56" height="56" x="4" y="4" rx="28" ry="28" style="fill:#56b366"/><path d="M32 47 18 27l24-6z" style="opacity:.2;fill:none;stroke:#000;stroke-width:2.5999999"/><path d="M32 46 18 26l24-6Z" style="fill:none;stroke:#fff;stroke-width:2.5999999"/><path d="M42 17a4 4 0 0 0-4 4 4 4 0 0 0 4 4 4 4 0 0 0 4-4 4 4 0 0 0-4-4m-24 6a4 4 0 0 0-4 4 4 4 0 0 0 4 4 4 4 0 0 0 4-4 4 4 0 0 0-4-4m14 20a4 4 0 0 0-4 4 4 4 0 0 0 4 4 4 4 0 0 0 4-4 4 4 0 0 0-4-4" style="opacity:.2"/><circle cx="18" cy="26" r="4" style="fill:#fff"/><circle cx="42" cy="20" r="4" style="fill:#fff"/><circle cx="32" cy="46" r="4" style="fill:#fff"/><path d="M32 4C16.488 4 4 16.488 4 32c0 .113.011.224.018.336C4.369 17.134 16.71 5 32 5s27.63 12.134 27.982 27.336c.007-.112.018-.223.018-.336C60 16.488 47.512 4 32 4" style="opacity:.2;fill:#fff"/></svg>