<svg xmlns="http://www.w3.org/2000/svg" width="64" height="64"><rect width="56" height="56" x="4" y="5" ry="11.2" style="opacity:.2"/><rect width="56" height="56" x="4" y="4" ry="11.2" style="fill:#e4e4e4"/><path d="M37.98 16.035c-4.575-.017-9.155-.078-13.73.018-.027.704-.737 1.8.277 2.078.903.509 1.83 1.392 1.647 2.531-.101 3.716-1.113 7.717-1.867 11.332a50 50 0 0 1-2.877 0c-.195.851-.496 1.866.343 2.475.484.715.854 1.443.811 2.299-.035.71-.43 1.439-.586 2.134 1.378.178 2.514.046 3.906.116.07.01.115.03.135.05l.004.002c0 .002.005.009.006.01l.002.014v.004l-.006.015c-.075.171-1.031.5-1.29.655-.92.425-1.928.723-2.753 1.32-.533 1.476-.451 2.852-1.248 4.248-.677 1.364-2.041 2.145-3.322 2.846-.311.42-.57 1.533-.348 1.818h14.23c-.028-.783.583-1.83-.26-2.32-1.143-1.142-2.071-2.534-1.558-4.188q.5-2.242 1.006-4.482c2.159-.023 4.355.043 6.44-.62 3.778-1.053 8.066-4.21 9.675-7.773 1.073-2.342 1.78-5.01 1.137-7.574-.613-2.59-2.123-5.111-4.5-6.418-1.444-.796-3.698-.506-5.274-.59m-1.77 5.945c.825 0 1.275-.01 1.904.094.028.007.054.011.08.022.783.307 1.296 1.308 1.56 2.138.482 1.534.32 3.172-.347 4.61-.588 1.281-1.64 2.28-2.88 2.744-.9.345-1.866.45-2.813.39-.315-.02-.668-.223-.715-.595-.06-.377.013-.76.12-1.117.48-1.936.814-3.81 1.142-5.782.122-.747.235-1.698.351-2.447.427-.009 1.173-.057 1.598-.057M40.691 39l-.982 4h-4.014l-.687 3h3.965l-.98 3.988 2.82.012.982-4h4.213l.687-3h-4.164l.98-3.988z" style="opacity:.1"/><path d="M37.98 15.036c-4.576-.018-9.155-.08-13.73.016-.026.705-.737 1.8.277 2.078.903.509 1.832 1.392 1.648 2.531-.101 3.716-1.115 7.719-1.869 11.334a50 50 0 0 1-2.877 0c-.195.85-.495 1.864.345 2.473.483.716.852 1.445.81 2.3-.036.71-.43 1.439-.586 2.134 1.378.178 2.514.046 3.907.116.07.01.115.03.135.05l.003.003.005.008.003.014c0 .005-.004.015-.006.02-.074.17-1.03.5-1.289.655-.92.425-1.93.723-2.754 1.32-.533 1.476-.451 2.852-1.248 4.248-.677 1.364-2.042 2.145-3.323 2.846-.311.42-.57 1.533-.348 1.818h14.231c-.028-.783.583-1.83-.26-2.321-1.143-1.142-2.072-2.534-1.559-4.187q.501-2.242 1.008-4.482c2.158-.022 4.355.042 6.44-.62 3.778-1.053 8.066-4.209 9.675-7.772 1.072-2.342 1.78-5.01 1.137-7.575-.613-2.59-2.125-5.11-4.502-6.418-1.444-.796-3.697-.505-5.273-.589m-1.772 5.944c.826 0 1.276-.01 1.905.094q.04.008.08.022c.783.307 1.296 1.309 1.56 2.14.482 1.532.32 3.17-.347 4.608-.588 1.281-1.64 2.28-2.88 2.744-.899.346-1.865.45-2.813.39-.315-.02-.668-.222-.715-.594-.06-.377.013-.76.12-1.118.48-1.936.814-3.81 1.142-5.782.122-.747.234-1.697.35-2.446.427-.009 1.174-.058 1.598-.058" style="fill:#8d2a97"/><path d="M35.009 45h11l.687-3h-11z" style="fill:#de1faa"/><path d="M37.993 48.987 40.693 38l2.819.013L40.812 49Z" style="fill:#de1faa"/><path d="M15.2 4C8.993 4 4 8.994 4 15.2v1C4 9.993 8.994 5 15.2 5h33.6C55.007 5 60 9.994 60 16.2v-1C60 8.993 55.006 4 48.8 4z" style="fill:#fff;opacity:.2"/></svg>