<?xml version="1.0" encoding="UTF-8" standalone="no"?>
<svg
   width="64"
   height="64"
   version="1.1"
   id="svg16"
   sodipodi:docname="pulseeffects.svg"
   inkscape:version="1.4.4 (dcaf3e7d9e, 2026-05-05)"
   xmlns:inkscape="http://www.inkscape.org/namespaces/inkscape"
   xmlns:sodipodi="http://sodipodi.sourceforge.net/DTD/sodipodi-0.dtd"
   xmlns:xlink="http://www.w3.org/1999/xlink"
   xmlns="http://www.w3.org/2000/svg"
   xmlns:svg="http://www.w3.org/2000/svg">
  <sodipodi:namedview
     id="namedview16"
     pagecolor="#ffffff"
     bordercolor="#000000"
     borderopacity="0.25"
     inkscape:showpageshadow="2"
     inkscape:pageopacity="0.0"
     inkscape:pagecheckerboard="0"
     inkscape:deskcolor="#d1d1d1"
     inkscape:zoom="18.890625"
     inkscape:cx="32"
     inkscape:cy="32"
     inkscape:current-layer="svg16" />
  <defs
     id="defs9">
    <radialGradient
       xlink:href="#a"
       id="e"
       cx="-1.832"
       cy="63.985"
       r="28"
       fx="-1.832"
       fy="63.985"
       gradientTransform="rotate(-90 -11.082 71.161)scale(2.28503)"
       gradientUnits="userSpaceOnUse" />
    <radialGradient
       id="a"
       cx="21.037"
       cy="56.209"
       r="40.251"
       gradientTransform="matrix(1 0 0 -1 0 66)"
       gradientUnits="userSpaceOnUse">
      <stop
         offset="0"
         style="stop-color:#5d5d5d;stop-opacity:1"
         id="stop1" />
      <stop
         offset="1"
         style="stop-color:#565656;stop-opacity:1"
         id="stop2" />
    </radialGradient>
    <radialGradient
       id="d"
       cx="-159.431"
       cy="15.463"
       r="64.707"
       fx="-159.431"
       fy="15.463"
       gradientTransform="matrix(-.89413 0 0 .96305 -135.766 49.941)"
       gradientUnits="userSpaceOnUse">
      <stop
         offset="0"
         style="stop-color:#00d6ff;stop-opacity:1"
         id="stop3" />
      <stop
         offset="1"
         style="stop-color:#31d878;stop-opacity:1"
         id="stop4" />
    </radialGradient>
    <radialGradient
       xlink:href="#b"
       id="j"
       cx="15.931"
       cy="6.676"
       r="40.251"
       fx="15.931"
       fy="6.676"
       gradientTransform="rotate(-30 87.345 -11.3)scale(1.28788 -1.28788)"
       gradientUnits="userSpaceOnUse" />
    <radialGradient
       id="b"
       cx="21.037"
       cy="56.209"
       r="40.251"
       gradientTransform="matrix(1 0 0 -1 0 66)"
       gradientUnits="userSpaceOnUse">
      <stop
         offset="0"
         style="stop-color:#9b9999;stop-opacity:1"
         id="stop5" />
      <stop
         offset="1"
         style="stop-color:#807878;stop-opacity:1"
         id="stop6" />
    </radialGradient>
    <filter
       id="f"
       width="1.1416429"
       height="1.1416429"
       x="-0.07082143"
       y="-0.07082143"
       style="color-interpolation-filters:sRGB">
      <feGaussianBlur
         stdDeviation="1.59"
         id="feGaussianBlur6" />
    </filter>
    <filter
       id="h"
       width="1.1373176"
       height="1.1373176"
       x="-0.068658823"
       y="-0.068658823"
       style="color-interpolation-filters:sRGB">
      <feGaussianBlur
         stdDeviation=".931"
         id="feGaussianBlur7" />
    </filter>
    <filter
       id="i"
       width="1.24276"
       height="1.2206909"
       x="-0.12138"
       y="-0.11034545"
       style="color-interpolation-filters:sRGB">
      <feGaussianBlur
         stdDeviation=".949"
         id="feGaussianBlur8" />
    </filter>
    <filter
       id="k"
       width="1.20298"
       height="1.2899714"
       x="-0.10149"
       y="-0.14498571"
       style="color-interpolation-filters:sRGB">
      <feGaussianBlur
         stdDeviation="1.629"
         id="feGaussianBlur9" />
    </filter>
    <linearGradient
       xlink:href="#d"
       id="g"
       x1="-33.937"
       x2="-33.937"
       y1="9.367"
       y2="49.811"
       gradientTransform="rotate(90 -1.28 63.743)"
       gradientUnits="userSpaceOnUse" />
  </defs>
  <path
     d="M20.774 4.052h22.4c9.3 0 16.8 7.5 16.8 16.8v22.4c0 9.3-7.5 16.8-16.8 16.8h-22.4c-9.3 0-16.8-7.5-16.8-16.8v-22.4c0-9.3 7.5-16.8 16.8-16.8"
     class="st1"
     style="fill:url(#e)"
     id="path9" />
  <path
     d="M20.8 4h22.4C52.5 4 60 11.5 60 20.8v22.4C60 52.5 52.5 60 43.2 60H20.8C11.5 60 4 52.5 4 43.2V20.8C4 11.5 11.5 4 20.8 4z"
     class="st1"
     style="opacity:.673189;fill:none;stroke:#000;stroke-width:.3;stroke-dasharray:none;stroke-opacity:1;filter:url(#f)"
     id="path10" />
  <path
     d="M47.691 17.201c0-1.7-1.4-3-3-3h-28c-1.7 0-3 1.3-3 3s1.3 3 3 3h28c1.6 0 3-1.3 3-3m-17 25h-14c-1.7 0-3 1.3-3 3s1.3 3 3 3h14zm-5-14h-9c-1.7 0-3 1.3-3 3s1.3 3 3 3h9z"
     class="st2"
     style="fill:url(#g)"
     transform="rotate(-90 31.91 30.985)"
     id="path11" />
  <path
     d="M47.691 17.201c0-1.7-1.4-3-3-3h-28c-1.7 0-3 1.3-3 3s1.3 3 3 3h28c1.6 0 3-1.3 3-3zm-17 25h-14c-1.7 0-3 1.3-3 3s1.3 3 3 3h14zm-5-14h-9c-1.7 0-3 1.3-3 3s1.3 3 3 3h9z"
     class="st2"
     style="fill:none;stroke:#00ff95;stroke-width:0.2;stroke-dasharray:none;stroke-opacity:1;filter:url(#h)"
     transform="rotate(-90 31.91 30.985)"
     id="path12" />
  <path
     d="M47.691 31.201c0-1.7-1.4-3-3-3h-19v6h19c1.7 0 3-1.4 3-3m0 14c0-1.7-1.4-3-3-3h-14v6h14c1.7 0 3-1.4 3-3"
     class="st0"
     style="opacity:.2;enable-background:new"
     transform="rotate(-90 31.91 30.985)"
     id="path13" />
  <path
     d="M-33.796 14.72c-1.7 0-3 1.4-3 3v19h6v-19c0-1.7-1.4-3-3-3zm14 0c-1.7 0-3 1.4-3 3v14h6v-14c0-1.7-1.4-3-3-3z"
     class="st0"
     style="opacity:.306104;fill:none;stroke:#000;stroke-width:.3;stroke-dasharray:none;stroke-opacity:1;filter:url(#i);enable-background:new"
     transform="translate(65.948 .432)"
     id="path14" />
  <path
     d="M48.351 16.959c0-3.3-2.7-6-6-6s-6 2.7-6 6 2.7 6 6 6 6-2.7 6-6m-11 28c0-3.3-2.7-6-6-6s-6 2.7-6 6 2.7 6 6 6 6-2.7 6-6m-5-14c0-3.3-2.7-6-6-6s-6 2.7-6 6 2.7 6 6 6 6-2.7 6-6"
     class="st4"
     style="fill:url(#j)"
     transform="rotate(-90 31.91 30.985)"
     id="path15" />
  <path
     d="M-48.038 14.06c-3.3 0-6 2.7-6 6s2.7 6 6 6 6-2.7 6-6-2.7-6-6-6zm28 11c-3.3 0-6 2.7-6 6s2.7 6 6 6 6-2.7 6-6-2.7-6-6-6zm-14 5c-3.3 0-6 2.7-6 6s2.7 6 6 6 6-2.7 6-6-2.7-6-6-6z"
     class="st4"
     style="fill:none;stroke:#000;stroke-width:.3;stroke-dasharray:none;stroke-opacity:1;filter:url(#k)"
     transform="translate(65.948 .432)"
     id="path16" />
</svg>
