<svg xmlns="http://www.w3.org/2000/svg" width="64" height="64"><circle cx="32" cy="33" r="28" style="opacity:.2"/><circle cx="32" cy="32" r="28" style="fill:#6a1b9a"/><path d="M32 4A28 28 0 0 0 4 32a28 28 0 0 0 .035.5A28 28 0 0 1 32 5a28 28 0 0 1 27.982 27.252L60 32A28 28 0 0 0 32 4" style="opacity:.1;fill:#fff"/><path d="M52.027 12.441 39.635 22.826l-1.114 2.861a1.6 1.6 0 0 0-.546-.105 1.423 1.423 0 0 0 .021 2.842c.357 0 .714-.148 1.008-.422.42-.421.524-1.03.314-1.535l2.858-1.115 10.369-12.366a28 28 0 0 0-.518-.545M23.725 13c-3.348.019-6.336 1.065-8.496 3.219-2.951 2.948-3.912 7.487-2.741 12.777a25.4 25.4 0 0 0 1.301 4.053c-2.331 6.111-2.451 11.797.039 14.953l1.213-1.441c-1.643-2.981-1.645-7.031-.219-11.295a33.5 33.5 0 0 0 4.321 6.38l1.15-1.38c-1.921-2.302-3.477-4.76-4.592-7.25 1.463-3.285 3.732-6.611 6.727-9.604 2.932-2.93 6.229-5.227 9.588-6.713 2.447 1.097 4.916 2.642 7.254 4.602l1.38-1.151a33.6 33.6 0 0 0-6.404-4.312c.72-.239 1.44-.443 2.156-.602 3.599-.815 6.78-.522 9.186.795l1.443-1.213c-1.97-1.25-4.396-1.869-7.127-1.814a19.4 19.4 0 0 0-3.898.496c-1.342.3-2.693.734-4.035 1.285-2.82-1.193-5.642-1.8-8.246-1.785m-.079 1.754c1.915-.02 3.987.34 6.112 1.057-3.028 1.556-5.959 3.709-8.586 6.347-2.69 2.688-4.82 5.644-6.346 8.631a23 23 0 0 1-.623-2.191c-1.046-4.663-.251-8.614 2.26-11.123 1.812-1.812 4.323-2.691 7.183-2.721m26.545 3.223-1.212 1.441c1.004 1.84 1.4 4.142 1.169 6.734a30 30 0 0 1 1.424 2.489c.879-4.182.398-7.883-1.381-10.664M31.959 22C25.908 22 21 26.944 21 33.041c0 2.137.604 4.108 1.664 5.805l.604-.231c.104-.628.373-1.195.81-1.635.083-.083.187-.167.291-.23-.54-1.131-.873-2.388-.873-3.729 0-4.714 3.804-8.548 8.483-8.548a8.2 8.2 0 0 1 3.701.879c.083-.105.147-.21.23-.293.437-.44.977-.712 1.58-.795l.229-.61A10.83 10.83 0 0 0 31.959 22m12.896 2.332-1.15 1.381c1.962 2.337 3.508 4.807 4.606 7.256l-.045.103c-1.507 3.346-3.808 6.651-6.674 9.494-4.206 4.203-9.165 7.11-13.977 8.176-3.598.816-6.779.522-9.185-.816l-1.444 1.213C18.89 52.372 21.408 53 24.002 53c1.339 0 2.547-.189 4.012-.523 5.147-1.15 10.419-4.224 14.834-8.657 2.609-2.607 4.782-5.553 6.349-8.597 1.788 5.301 1.362 10.27-1.664 13.281-2.28 2.279-5.857 3.138-10 2.469-.774.481-1.57.919-2.365 1.316 1.757.46 3.431.711 5.021.711 3.474 0 6.466-1.088 8.6-3.221 5.524-5.541 3.661-16.518-3.934-25.447m-3.498 2.822-.603.231c-.125.628-.395 1.195-.832 1.635a1.6 1.6 0 0 1-.291.23c.541 1.131.875 2.388.875 3.729 0 4.714-3.806 8.548-8.485 8.548a8.2 8.2 0 0 1-3.701-.879c-.083.105-.145.21-.228.293-.437.44-.979.712-1.582.795l-.229.61A10.83 10.83 0 0 0 32.041 44C38.092 44 43 39.056 43 32.959c0-2.137-.603-4.108-1.643-5.805M32 28a5 5 0 0 0-5 5 5 5 0 0 0 5 5 5 5 0 0 0 5-5 5 5 0 0 0-5-5m-5.996 9.576c-.357 0-.714.148-1.008.422a1.41 1.41 0 0 0-.316 1.535l-2.856 1.115-9.429 11.243a28 28 0 0 0 .709.709l11.22-9.448 1.114-2.861c.168.063.355.105.544.105.357 0 .714-.148.987-.421a1.423 1.423 0 0 0 0-1.998 1.3 1.3 0 0 0-.965-.401m-1.275 7.08-1.381 1.151a35 35 0 0 0 3.808 2.843c.502-.167 1.547-.585 1.987-.857-1.632-.941-2.908-1.882-4.414-3.137" style="opacity:.2"/><path d="M53.753 10.011 39.64 21.837l-1.113 2.862a1.6 1.6 0 0 0-.546-.105c-.357 0-.714.147-.987.42a1.425 1.425 0 0 0 0 1.999c.273.274.63.421 1.008.421.357 0 .714-.147 1.008-.421a1.41 1.41 0 0 0 .315-1.536l2.856-1.115 11.824-14.098ZM39.911 12.01c-1.241.021-2.545.19-3.9.505-1.342.295-2.693.737-4.035 1.284-6.445-2.735-12.899-2.399-16.74 1.431-2.951 2.946-3.913 7.491-2.741 12.772a25.5 25.5 0 0 0 1.3 4.061c-2.331 6.103-2.451 11.784.04 14.94l1.212-1.431c-1.643-2.988-1.645-7.028-.219-11.299 1.139 2.209 2.592 4.356 4.32 6.376l1.151-1.368c-1.921-2.315-3.478-4.756-4.591-7.26 1.462-3.282 3.732-6.607 6.725-9.595 2.932-2.925 6.229-5.239 9.588-6.712 2.448 1.094 4.916 2.63 7.254 4.608l1.382-1.157c-2.057-1.747-4.222-3.199-6.406-4.314.72-.231 1.441-.442 2.157-.61 3.6-.8 6.779-.526 9.186.799l1.443-1.22c-1.97-1.241-4.396-1.852-7.126-1.81m-16.258 1.747c1.914-.021 3.986.358 6.11 1.073-3.027 1.557-5.958 3.703-8.586 6.334-2.688 2.693-4.82 5.639-6.345 8.627a21 21 0 0 1-.623-2.188c-1.046-4.651-.25-8.607 2.26-11.111 1.812-1.809 4.324-2.693 7.184-2.735m26.545 3.24-1.214 1.431c1.004 1.831 1.401 4.146 1.17 6.734a34 34 0 0 1 1.424 2.483c.88-4.167.397-7.87-1.38-10.648m-18.232 4.019c-6.053 0-10.959 4.945-10.959 11.026 0 2.147.603 4.125 1.663 5.808l.603-.231a2.94 2.94 0 0 1 .811-1.621c.084-.084.187-.168.292-.231-.542-1.136-.874-2.399-.874-3.725 0-4.734 3.804-8.564 8.483-8.564 1.329 0 2.577.316 3.7.884.084-.105.147-.21.231-.295a2.73 2.73 0 0 1 1.58-.799l.229-.61a10.97 10.97 0 0 0-5.759-1.642m12.895 2.336L43.71 24.72c1.962 2.335 3.508 4.818 4.606 7.259l-.044.105c-1.508 3.346-3.808 6.65-6.675 9.49-4.204 4.209-9.163 7.113-13.976 8.186-3.598.799-6.78.505-9.185-.821l-1.442 1.221c1.902 1.22 4.42 1.851 7.014 1.851 1.338 0 2.548-.189 4.012-.526 5.147-1.157 10.419-4.229 14.833-8.648 2.609-2.609 4.782-5.555 6.349-8.606 1.79 5.302 1.363 10.268-1.663 13.277-2.281 2.294-5.858 3.136-9.999 2.483a37 37 0 0 1-2.367 1.305c1.758.463 3.432.715 5.021.715 3.474 0 6.467-1.094 8.601-3.219 5.523-5.534 3.66-16.518-3.934-25.44m-3.499 2.82-.603.231c-.123.631-.394 1.179-.831 1.62a1.5 1.5 0 0 1-.292.232c.542 1.136.876 2.399.876 3.724 0 4.735-3.806 8.564-8.485 8.564a8.15 8.15 0 0 1-3.701-.883c-.084.105-.145.21-.229.294a2.73 2.73 0 0 1-1.581.8l-.229.61a10.97 10.97 0 0 0 5.761 1.641c6.05 0 10.959-4.945 10.959-11.026 0-2.146-.605-4.124-1.645-5.807m-9.356.841A5 5 0 0 0 27.005 32a5 5 0 0 0 5.001 5.008 5 5 0 0 0 5-5.008 5 5 0 0 0-5-4.987m-5.996 9.574a1.5 1.5 0 0 0-1.008.421 1.41 1.41 0 0 0-.315 1.536L21.83 39.66 10.006 53.758l.252.252L24.33 42.164l1.113-2.862c.168.063.357.105.546.105.357 0 .712-.147.985-.421a1.425 1.425 0 0 0 0-1.999 1.3 1.3 0 0 0-.964-.4m-1.275 7.071-1.382 1.157a32.6 32.6 0 0 0 3.81 2.841c.502-.169 1.545-.59 1.987-.842-1.634-.947-2.909-1.894-4.415-3.156" style="fill:#fff"/></svg>