<svg xmlns="http://www.w3.org/2000/svg" width="64" height="64"><rect width="59" height="59" x="3" y="3" rx="2.95" ry="2.95" style="opacity:.2"/><rect width="59" height="59" x="3" y="2" rx="2.95" ry="2.95" style="fill:#e4e4e4"/><path d="M5.95 2A2.94 2.94 0 0 0 3 4.95v1A2.94 2.94 0 0 1 5.95 3h53.1A2.94 2.94 0 0 1 62 5.95v-1A2.94 2.94 0 0 0 59.051 2z" style="fill:#fff;opacity:.2"/><path d="M45 33c-1.3 0-3 1-3 3v3c0 2 1.7 3 3 3h7.5s1.5 0 1.5 1.5-1.5 1.5-1.5 1.5H42v3h12c1.3 0 3-1 3-3v-3c0-2-1.7-3-3-3h-7.5S45 39 45 37.5s1.5-1.5 1.5-1.5H57v-3Zm-20 0v12c0 2 1.7 3 3 3h12v-3H29.5S28 45 28 43.5s1.5-1.5 1.5-1.5H40v-3H29.5S28 39 28 37.5s1.5-1.5 1.5-1.5H40v-3ZM8 33v15h3V36h7.5c1.5 0 1.5 1.5 1.5 1.5V48h3V36c0-2-1.7-3-3-3Zm25-18v12c0 2.25 2 3 3 3h9c1 0 3-.75 3-3V15h-3v10.5c0 1.5-1.5 1.5-1.5 1.5h-6S36 27 36 25.5V15Zm-17 0v15h3v-4.5s0-1.5 1.5-1.5H28c1.3 0 3-1 3-3v-3c0-2-1.7-3-3-3Zm4.5 3h6s1.5 0 1.5 1.5-1.5 1.5-1.5 1.5h-6S19 21 19 19.5s1.5-1.5 1.5-1.5" style="opacity:.1"/><path d="M45 32c-1.3 0-3 1-3 3v3c0 2 1.7 3 3 3h7.5s1.5 0 1.5 1.5-1.5 1.5-1.5 1.5H42v3h12c1.3 0 3-1 3-3v-3c0-2-1.7-3-3-3h-7.5S45 38 45 36.5s1.5-1.5 1.5-1.5H57v-3Zm-20 0v12c0 2 1.7 3 3 3h12v-3H29.5S28 44 28 42.5s1.5-1.5 1.5-1.5H40v-3H29.5S28 38 28 36.5s1.5-1.5 1.5-1.5H40v-3ZM8 32v15h3V35h7.5c1.5 0 1.5 1.5 1.5 1.5V47h3V35c0-2-1.7-3-3-3Zm25-18v12c0 2.25 2 3 3 3h9c1 0 3-.75 3-3V14h-3v10.5c0 1.5-1.5 1.5-1.5 1.5h-6S36 26 36 24.5V14Zm-17 0v15h3v-4.5s0-1.5 1.5-1.5H28c1.3 0 3-1 3-3v-3c0-2-1.7-3-3-3Zm4.5 3h6s1.5 0 1.5 1.5-1.5 1.5-1.5 1.5h-6S19 20 19 18.5s1.5-1.5 1.5-1.5" style="fill:#007f0e"/></svg>