<svg xmlns="http://www.w3.org/2000/svg" width="64" height="64"><rect width="56" height="56" x="4" y="4" rx="28" ry="28" style="fill:#4ab367"/><path d="M17.332 23.001h5.334c.736 0 1.334.544 1.334 1.218v19.558c0 .674-.6 1.223-1.334 1.223h-5.333C16.599 45 16 44.452 16 43.778V24.219c0-.674.599-1.218 1.333-1.218m9.924 0c-.696 0-1.258.544-1.258 1.218v19.554c0 .673.562 1.222 1.259 1.222 3.79 0 7.578.005 11.371.005C44.908 44.998 50 40.072 50 33.999S44.908 23 38.63 23z" style="opacity:.2"/><path d="M17.332 22.001h5.334c.736 0 1.334.544 1.334 1.218v19.558c0 .674-.6 1.223-1.334 1.223h-5.333C16.599 44 16 43.452 16 42.778V23.219c0-.674.599-1.218 1.333-1.218m9.924 0c-.696 0-1.258.544-1.258 1.218v19.554c0 .673.562 1.222 1.259 1.222 3.79 0 7.578.005 11.371.005C44.908 43.998 50 39.072 50 32.999S44.908 22 38.63 22z" style="fill:#f9f9f9"/><path d="M32 4C16.488 4 4 16.488 4 32c0 .114.011.224.018.336C4.369 17.134 16.71 5 32 5s27.63 12.134 27.982 27.336c.007-.112.018-.222.018-.336C60 16.488 47.512 4 32 4" style="opacity:.2;fill:#fff"/><path d="M4.018 32.664C4.01 32.776 4 32.886 4 33c0 15.512 12.488 28 28 28s28-12.488 28-28c0-.114-.011-.224-.018-.336C59.631 47.866 47.29 60 32 60S4.37 47.866 4.018 32.664" style="opacity:.2"/></svg>