<svg xmlns="http://www.w3.org/2000/svg" xmlns:xlink="http://www.w3.org/1999/xlink" width="64" height="64"><defs><filter id="c" width="1.138" height="1.138" x="-.069" y="-.069" style="color-interpolation-filters:sRGB"><feGaussianBlur stdDeviation="1.549"/></filter><filter id="d" width="1.176" height="1.176" x="-.088" y="-.088" style="color-interpolation-filters:sRGB"><feGaussianBlur stdDeviation="1.549"/></filter><radialGradient xlink:href="#a" id="b" cx="44.99" cy="25.601" r="28" fx="44.99" fy="25.601" gradientTransform="matrix(-2.61249 0 0 -2.75623 244.064 71.963)" gradientUnits="userSpaceOnUse"/><linearGradient id="a"><stop offset="0" style="stop-color:#46c4f7;stop-opacity:1"/><stop offset=".714" style="stop-color:#6ee992;stop-opacity:1"/><stop offset="1" style="stop-color:#f7dc46;stop-opacity:1"/></linearGradient></defs><path d="M83.389 5.077a16.764 16.764 0 0 0-16.801 16.8v22.399c0 9.307 7.493 16.8 16.8 16.8h22.399c9.307 0 16.8-7.493 16.8-16.8V21.877c0-9.307-7.493-16.8-16.8-16.8z" style="fill:url(#b)" transform="translate(-62.588 -1.077)"/><path d="M83.588 11.077h22c6.189 0 11 4.81 11 11v22c0 6.189-4.811 11-11 11h-22c-6.19 0-11-4.811-11-11v-22c0-6.19 4.81-11 11-11" style="fill:#3f3f3f" transform="translate(-62.588 -1.077)"/><path d="M83.389 5.077a16.764 16.764 0 0 0-16.801 16.8v22.399c0 9.307 7.493 16.8 16.8 16.8h22.399c9.307 0 16.8-7.493 16.8-16.8V21.877c0-9.307-7.493-16.8-16.8-16.8z" style="fill:none;stroke:#000;stroke-width:.3;stroke-dasharray:none;stroke-opacity:1;filter:url(#c)" transform="translate(-62.588 -1.077)"/><path d="M83.588 11.077h22c6.189 0 11 4.81 11 11v22c0 6.189-4.811 11-11 11h-22c-6.19 0-11-4.811-11-11v-22c0-6.19 4.81-11 11-11z" style="fill:none;stroke:#000;stroke-width:.3;stroke-dasharray:none;stroke-opacity:1;filter:url(#d)" transform="translate(-62.588 -1.077)"/><path d="M79.062 34.416a1.306 1.306 0 0 0-1.305 1.304 1.306 1.306 0 0 0 1.305 1.307h10.45a1.306 1.306 0 0 0 1.306-1.307 1.306 1.306 0 0 0-1.307-1.304z" style="baseline-shift:baseline;display:inline;overflow:visible;vector-effect:none;fill:#fff;stroke-linecap:round;enable-background:accumulate;stop-color:#000" transform="translate(-62.588 -1.077)"/><path d="m79.066 16.18-.014.013-.137-.006a1.31 1.31 0 0 0-1.09 1.233l-.07.07v10.488a1.31 1.31 0 0 0 1.31 1.313 1.31 1.31 0 0 0 1.311-1.313V23.98c.565.012.75.097 1.559-.059.783-.15 1.636-.415 2.38-1.017.746-.602 1.307-1.63 1.307-2.793s-.561-2.189-1.306-2.791-1.598-.87-2.381-1.02c-1.481-.284-2.71-.124-2.856-.107zm1.31 2.656c.417-.002.56-.056 1.065.04.528.102.988.29 1.226.483.239.193.332.299.332.752s-.093.561-.332.754c-.238.192-.698.38-1.226.482-.506.097-.648.043-1.065.041z" style="baseline-shift:baseline;display:inline;overflow:visible;vector-effect:none;fill:#fff;stroke-linecap:round;stroke-linejoin:bevel;enable-background:accumulate;stop-color:#000" transform="translate(-62.588 -1.077)"/><path d="M94.815 26.691s0 1.314-2.628 1.314-2.628-2.628-2.628-5.256 0-5.256 2.628-5.256 2.628 1.314 2.628 1.314" style="fill:none;stroke:#fff;stroke-width:2.62795;stroke-linecap:round;stroke-linejoin:bevel" transform="translate(-62.588 -1.077)"/></svg>