<svg xmlns="http://www.w3.org/2000/svg" xmlns:xlink="http://www.w3.org/1999/xlink" width="64" height="64"><defs><filter id="c" width="1.138" height="1.138" x="-.069" y="-.069" style="color-interpolation-filters:sRGB"><feGaussianBlur stdDeviation="1.549"/></filter><filter id="d" width="1.176" height="1.176" x="-.088" y="-.088" style="color-interpolation-filters:sRGB"><feGaussianBlur stdDeviation="1.549"/></filter><radialGradient xlink:href="#a" id="b" cx="44.99" cy="25.601" r="28" fx="44.99" fy="25.601" gradientTransform="matrix(-2.61249 0 0 -2.75623 181.476 70.886)" gradientUnits="userSpaceOnUse"/><linearGradient id="a"><stop offset="0" style="stop-color:#46c4f7;stop-opacity:1"/><stop offset=".714" style="stop-color:#6ee992;stop-opacity:1"/><stop offset="1" style="stop-color:#f7dc46;stop-opacity:1"/></linearGradient></defs><path d="M20.8 4C11.495 4 4 11.494 4 20.8v22.4C4 52.505 11.494 60 20.8 60h22.4C52.505 60 60 52.506 60 43.2V20.8C60 11.495 52.506 4 43.2 4z" style="fill:url(#b)"/><path d="M21 10h22c6.19 0 11 4.81 11 11v22c0 6.19-4.81 11-11 11H21c-6.19 0-11-4.81-11-11V21c0-6.19 4.81-11 11-11" style="fill:#3f3f3f"/><path d="M20.8 4C11.495 4 4 11.494 4 20.8v22.4C4 52.505 11.494 60 20.8 60h22.4C52.505 60 60 52.506 60 43.2V20.8C60 11.495 52.506 4 43.2 4z" style="fill:none;stroke:#000;stroke-width:.3;stroke-dasharray:none;stroke-opacity:1;filter:url(#c)"/><path d="M21 10h22c6.19 0 11 4.81 11 11v22c0 6.19-4.81 11-11 11H21c-6.19 0-11-4.81-11-11V21c0-6.19 4.81-11 11-11Z" style="fill:none;stroke:#000;stroke-width:.3;stroke-dasharray:none;stroke-opacity:1;filter:url(#d)"/><path d="M18 46h16" style="fill:none;stroke:#fff;stroke-width:4;stroke-linecap:round" transform="translate(4.708 4.646)scale(.6537)"/><path d="M18 26s8 .929 8-4-8-4-8-4m0 16V18m16 16h8m-8-8h8m-8-8h8m-8 16V18" style="fill:none;stroke:#fff;stroke-width:4;stroke-linecap:round;stroke-linejoin:bevel" transform="translate(4.708 4.646)scale(.6537)"/></svg>