<svg xmlns="http://www.w3.org/2000/svg" width="64" height="64"><path d="M49.918 9.003c-.04.004-.088.02-.129.028a2.2 2.2 0 0 0-.457.125c-.079.028-.171.07-.258.105-.255.107-.534.23-.879.399l-1.836.898-3.52 1.719L5.876 30.324c-.422.205-.753.372-1.016.53l-.02.009c-.263.16-.453.32-.585.511-.279.404-.298.954-.192 2.028v20.285c.11 2.584.666 2.442 3.38 2.488l48.29.825A4.193 4.193 0 0 0 60 52.808V31.194a30 30 0 0 0-.168-2.938l-.008-.046a28 28 0 0 0-.12-.934c-.025-.172-.044-.346-.071-.516q-.072-.432-.157-.855-.053-.287-.113-.57-.08-.362-.168-.72c-.053-.218-.102-.436-.16-.651-.061-.23-.129-.455-.195-.68q-.093-.319-.192-.633a28 28 0 0 0-.238-.703q-.093-.27-.191-.535-.142-.377-.293-.746-.102-.253-.207-.504a31 31 0 0 0-1.2-2.496q-.125-.237-.253-.472-.172-.306-.348-.61-.172-.298-.348-.593-.165-.276-.336-.547-.165-.265-.332-.528-.136-.211-.277-.421c-.403-.61-.82-1.218-1.25-1.813q-.75-1.036-1.543-2.05a21 21 0 0 0-.508-.704 6 6 0 0 0-.332-.41l-.012-.008a2.3 2.3 0 0 0-.351-.316 1.1 1.1 0 0 0-.364-.164 1 1 0 0 0-.3-.024c-.017.001-.03-.005-.047-.004" style="opacity:.2"/><path d="M5.875 29.324 46.36 9.559l10.52 11.434-1.056 31.65L31 51.856l-26.94-.312v-19.14c-.206-2.092.05-2.219 1.815-3.08" style="fill:#eea400"/><path d="m4.06 37.554 50.346 1.537v9.125L4.061 46.637Z" style="fill:#b80066"/><path d="m48.195 8.662-5.356 2.614c.146.536.798 1.038 1.14 1.477 5.073 6.172 7.963 10.118 8.02 17.51v17.679L4.062 46.731v5.956c.109 2.583.665 2.442 3.379 2.489l48.293.823A4.194 4.194 0 0 0 60 51.807V30.194c-.068-8.68-3.684-14.818-8.169-20.56-1.342-1.94-1.524-2.002-3.636-.972" style="fill:#fedda6"/><path d="M49.921 8.006c-.412.038-.934.27-1.726.655l-1.836.898-3.52 1.717v.003L5.874 29.324c-.86.42-1.358.668-1.622 1.051l55.699-1.66c-.443-7.908-3.895-13.672-8.12-19.082-.84-1.212-1.223-1.69-1.91-1.627" style="opacity:.2;fill:#fff"/><path d="M49.918 8.004c-.039.004-.088.02-.129.027a2.2 2.2 0 0 0-.457.125c-.078.029-.171.07-.258.106-.255.106-.534.23-.879.398l-1.836.899-3.52 1.718L5.876 29.324c-.422.206-.753.372-1.016.531l-.02.008c-.263.161-.453.322-.585.512-.242.35-.283.834-.22 1.652.033-.262.098-.476.22-.652.132-.19.322-.35.586-.512l.02-.008c.262-.159.593-.325 1.015-.53L42.84 12.276l3.52-1.718 1.835-.899c.345-.168.624-.292.88-.398.086-.036.179-.077.257-.106a2.2 2.2 0 0 1 .457-.125c.041-.007.09-.023.129-.027.017-.001.03.005.047.004a1 1 0 0 1 .36.039 1.1 1.1 0 0 1 .359.187q.144.111.296.278l.012.008c.104.114.215.254.332.41.152.201.318.428.508.703q.792 1.014 1.543 2.05c.43.595.847 1.203 1.25 1.813q.14.21.277.422.169.262.332.527.171.273.336.547.177.296.348.594.177.303.348.61.128.234.254.472a34 34 0 0 1 .675 1.336 31 31 0 0 1 .524 1.16q.105.25.207.504.151.37.293.746.098.266.191.535.123.348.238.703.1.314.192.633c.066.225.134.451.195.68.058.215.107.434.16.652q.089.356.168.719.06.283.114.57c.054.284.11.566.156.856.027.17.046.344.07.515.044.31.087.618.121.934l.008.047c.1.947.16 1.924.168 2.937v-1a30 30 0 0 0-.168-2.937l-.008-.047a28 28 0 0 0-.12-.934c-.025-.171-.044-.346-.071-.515-.046-.29-.102-.572-.156-.856q-.054-.287-.114-.57-.08-.362-.168-.719c-.053-.218-.102-.437-.16-.652-.061-.229-.129-.455-.195-.68q-.093-.319-.192-.633-.114-.354-.238-.703-.093-.269-.191-.535-.142-.375-.293-.746-.101-.253-.207-.504a31 31 0 0 0-.871-1.867q-.161-.317-.328-.629-.126-.237-.254-.473-.171-.306-.348-.61-.172-.297-.348-.593a41 41 0 0 0-.336-.547q-.164-.265-.332-.527-.136-.211-.277-.422c-.403-.61-.82-1.218-1.25-1.812q-.75-1.037-1.543-2.051c-.19-.275-.356-.502-.508-.703a6 6 0 0 0-.332-.41l-.012-.008a2.3 2.3 0 0 0-.351-.317 1.1 1.1 0 0 0-.363-.164 1 1 0 0 0-.301-.023c-.017 0-.03-.005-.047-.004" style="opacity:.2;fill:#fff"/></svg>