<svg xmlns="http://www.w3.org/2000/svg" width="64" height="64"><rect width="52" height="52" x="-58" y="-58" rx="15.6" ry="15.6" style="fill:#3f3f3f" transform="rotate(90)scale(-1 1)"/><path d="M20.8 5C11.495 5 4 12.494 4 21.8v22.4C4 53.505 11.494 61 20.8 61h22.4C52.505 61 60 53.506 60 44.2V21.8C60 12.495 52.506 5 43.2 5Zm0 8h22.4c5.012 0 8.8 3.788 8.8 8.8v22.4c0 5.012-3.788 8.8-8.8 8.8H20.8c-5.012 0-8.8-3.788-8.8-8.8V21.8c0-5.012 3.788-8.8 8.8-8.8" style="opacity:.2"/><path d="M20.8 4C11.493 4 4 11.493 4 20.8v1.4c0-9.307 7.493-16.8 16.8-16.8h22.4c9.307 0 16.8 7.493 16.8 16.8v-1.4C60 11.493 52.507 4 43.2 4Z" style="opacity:.1;fill:#fff"/><circle cx="15.7" cy="48.3" r="6.3" class="st6" style="fill:#ffd517"/><circle cx="44" cy="29" r="6" class="st9" style="opacity:.2"/><circle cx="44" cy="28" r="6" class="st9" style="fill:#ffd517"/><path d="m20.267 44.872 7.322-5.412m7.806-5.59 6.088-4.06" style="fill:none;stroke:#7c7c7c;stroke-width:4.19999981;stroke-linecap:round"/><circle cx="32" cy="37" r="8" class="st13" style="opacity:.2"/><circle cx="32" cy="36" r="8" class="st13" style="fill:#b3e5fc"/><path d="m23 15 5.414 13.536" style="fill:none;stroke:#7c7c7c;stroke-width:4.19999981;stroke-linecap:round"/><path d="M20.8 4C11.495 4 4 11.494 4 20.8v22.4C4 52.505 11.494 60 20.8 60h22.4C52.505 60 60 52.506 60 43.2V20.8C60 11.495 52.506 4 43.2 4Zm0 8h22.4c5.012 0 8.8 3.788 8.8 8.8v22.4c0 5.012-3.788 8.8-8.8 8.8H20.8c-5.012 0-8.8-3.788-8.8-8.8V20.8c0-5.012 3.788-8.8 8.8-8.8" style="fill:#4c6378"/><path d="M20.8 4C11.495 4 4 11.494 4 20.8v1C4 12.495 11.494 5 20.8 5h22.4C52.505 5 60 12.494 60 21.8v-1C60 11.495 52.506 4 43.2 4zM12 43.2v1c0 5.012 3.788 8.8 8.8 8.8h22.4c5.012 0 8.8-3.788 8.8-8.8v-1c0 5.012-3.788 8.8-8.8 8.8H20.8c-5.012 0-8.8-3.788-8.8-8.8" style="opacity:.1;fill:#fff"/><circle cx="23" cy="16" r="7" class="st19" style="opacity:.2"/><circle cx="23" cy="15" r="7" class="st19" style="fill:#ffd517"/><circle cx="47.001" cy="50" r="7" class="st17" style="opacity:.2"/><circle cx="47.001" cy="49" r="7" class="st17" style="fill:#ffd517"/><path d="M23 8a7 7 0 0 0-7 7 7 7 0 0 0 .025.438A7 7 0 0 1 23 9a7 7 0 0 1 6.975 6.492A7 7 0 0 0 30 15a7 7 0 0 0-7-7m21 14a6 6 0 0 0-6 6 6 6 0 0 0 .027.484A6 6 0 0 1 44 23a6 6 0 0 1 5.977 5.514A6 6 0 0 0 50 28a6 6 0 0 0-6-6m3 20a7 7 0 0 0-7 7 7 7 0 0 0 .025.438A7 7 0 0 1 47 43a7 7 0 0 1 6.975 6.492A7 7 0 0 0 54 49a7 7 0 0 0-7-7" style="opacity:.2;fill:#fff"/><path d="m37.053 40.86 4.917 4.024" style="fill:none;stroke:#7c7c7c;stroke-width:4.19999981;stroke-linecap:round"/></svg>