<svg xmlns="http://www.w3.org/2000/svg" width="64" height="64"><path d="M32 5C16.536 5 4 17.536 4 33a28 28 0 0 0 3.83 14.066c.362 1.219.624 2.427.72 3.641.218 2.736-.33 5.523-2.394 8.756-.416.653.037 1.537.81 1.537 6.034 0 9.192-1.135 14.141-2.207A28 28 0 0 0 32 61c15.464 0 28-12.536 28-28S47.464 5 32 5" style="opacity:.2"/><path d="M32 4C16.536 4 4 16.536 4 32a28 28 0 0 0 3.83 14.066c.362 1.219.624 2.427.72 3.641.218 2.736-.33 5.523-2.394 8.756-.416.653.037 1.537.81 1.537 6.034 0 9.192-1.135 14.141-2.207A28 28 0 0 0 32 60c15.464 0 28-12.536 28-28S47.464 4 32 4" style="fill:#a7bf3c"/><path d="m24 20-5 5 9 8-9 8 6 5 7-7 8 7 5-5-9-8 9-8-5-5-8 8Z" style="opacity:.2;stroke:#000;stroke-width:2;stroke-linecap:round"/><path d="m24 19-5 5 9 8-9 8 6 5 7-7 8 7 5-5-9-8 9-8-5-5-8 8Z" style="fill:#4f4f4f;stroke:#4f4f4f;stroke-width:2;stroke-linecap:round"/><path d="M23.984 18a1 1 0 0 0-.691.293l-5 5a1 1 0 0 0-.158 1.207 1 1 0 0 1 .158-.207l5-5a1 1 0 0 1 1.414 0L32 26.586l7.293-7.293a1 1 0 0 1 1.414 0l5 5a1 1 0 0 1 .158.207 1 1 0 0 0-.158-1.207l-5-5a1 1 0 0 0-1.414 0L32 25.586l-7.293-7.293a1 1 0 0 0-.723-.293m1.948 14.5-7.596 6.752a1 1 0 0 0-.201 1.248 1 1 0 0 1 .201-.248L26.494 33Zm12.136 0-.562.5 8.158 7.252q.12.107.201.248a1 1 0 0 0-.201-1.248Z" style="opacity:.1;fill:#fff"/><path d="M32 4C16.536 4 4 16.536 4 32c0 .14.013.278.016.418C4.326 17.224 16.73 5 32 5c15.296 0 27.719 12.268 27.986 27.5.003-.167.014-.332.014-.5C60 16.536 47.464 4 32 4M8.576 51.287c-.083 2.24-.75 4.561-2.42 7.176a1 1 0 0 0-.02 1.043c.009-.014.011-.029.02-.043 1.919-3.005 2.519-5.624 2.42-8.176" style="opacity:.2;fill:#fff"/></svg>