<svg xmlns="http://www.w3.org/2000/svg" xmlns:xlink="http://www.w3.org/1999/xlink" width="64" height="64"><defs><radialGradient xlink:href="#a" id="e" cx="34.888" cy="17.733" r="17.69" fx="34.888" fy="17.733" gradientTransform="rotate(75 89.107 -15.224)scale(2.8863)" gradientUnits="userSpaceOnUse"/><radialGradient xlink:href="#b" id="c" cx="34.888" cy="17.733" r="17.69" fx="34.888" fy="17.733" gradientTransform="rotate(75 66.327 -18.058)scale(2.8863)" gradientUnits="userSpaceOnUse"/><linearGradient id="a"><stop offset="0" style="stop-color:#ffa700;stop-opacity:1"/><stop offset="1" style="stop-color:#ff3b00;stop-opacity:1"/></linearGradient><linearGradient id="b"><stop offset="0" style="stop-color:#00c8ff;stop-opacity:1"/><stop offset="1" style="stop-color:#0061ff;stop-opacity:1"/></linearGradient><filter id="f" width="1.257" height="1.257" x="-.129" y="-.129" style="color-interpolation-filters:sRGB"><feGaussianBlur stdDeviation="1.82"/></filter><filter id="d" width="1.271" height="1.271" x="-.135" y="-.135" style="color-interpolation-filters:sRGB"><feGaussianBlur stdDeviation="1.919"/></filter></defs><rect width="35.126" height="35.126" x="4.715" y="24.245" rx="10.705" ry="10.705" style="fill:url(#c);stroke:none;stroke-width:.255;stroke-linecap:round;stroke-linejoin:round;stroke-miterlimit:2.1;stroke-dasharray:none;paint-order:markers stroke fill"/><path d="M26.893 50.03h-9.232l-.578 1.588a3.67 3.67 145.004 0 1-3.447 2.413h-.03a2.405 2.405 54.217 0 1-2.281-3.166l5.724-17.174a5.35 5.35 144.217 0 1 5.078-3.66h.284a5.35 5.35 35.782 0 1 5.078 3.66l5.725 17.174a2.405 2.405 125.782 0 1-2.282 3.166h-.03a3.65 3.65 35.093 0 1-3.438-2.416zm-6.486-5h3.725a.918.918 125.771 0 0 .87-1.208l-2.462-7.377a.278.278.042 0 0-.527 0l-2.475 7.378a.916.916 54.27 0 0 .869 1.207" style="fill:#fff;stroke-width:.803887" transform="translate(.008 -.223)"/><path d="M15.481 24.294A10.68 10.68 0 0 0 4.776 35v13.714a10.68 10.68 0 0 0 10.705 10.705h13.715c5.93 0 10.705-4.774 10.705-10.705V35a10.683 10.683 0 0 0-10.705-10.706zm6.715 5.563h.285a5.35 5.35 0 0 1 5.078 3.66l5.725 17.174A2.405 2.405 0 0 1 31 53.857h-.029a3.65 3.65 0 0 1-3.437-2.416l-.573-1.586h-9.23l-.58 1.59a3.67 3.67 0 0 1-3.445 2.412h-.03a2.405 2.405 0 0 1-2.283-3.166l5.725-17.174a5.35 5.35 0 0 1 5.078-3.66m.037 6.248a.28.28 0 0 0-.15.166l-2.475 7.377a.916.916 0 0 0 .867 1.207h3.727a.918.918 0 0 0 .869-1.207l-2.461-7.377a.28.28 0 0 0-.377-.166" style="fill:none;stroke:#000;stroke-width:.3;stroke-linecap:round;stroke-linejoin:round;stroke-miterlimit:2.1;stroke-dasharray:none;stroke-opacity:1;paint-order:markers stroke fill;filter:url(#d)"/><rect width="35.126" height="35.126" x="24.337" y="4.341" rx="10.705" ry="10.705" style="fill:url(#e);stroke:none;stroke-width:.255;stroke-linecap:round;stroke-linejoin:round;stroke-miterlimit:2.1;stroke-dasharray:none;paint-order:markers stroke fill"/><path d="M36.199 34.007a53 53 0 0 0 2.731.068c4.668 0 7.524-.766 9.231-2.125 1.463-1.184 2.438-2.856 2.438-5.016 0-2.995-1.985-5.05-4.667-5.747v-.07c2.647-1.01 3.866-2.926 3.866-4.981 0-2.16-1.15-3.762-2.786-4.633-1.742-1.01-3.727-1.323-6.967-1.323-1.318 0-2.662.059-3.853.147-1.668.125-3.009 1.697-3.009 3.37v17c0 1.673 1.345 3.222 3.016 3.31m2.244-19.822c.418-.07 1.08-.139 2.264-.139 2.403 0 3.762.94 3.762 2.717 0 1.742-1.463 2.891-4.285 2.891h-1.741zm0 9.266h1.811c2.647 0 4.772.94 4.772 3.274 0 2.473-2.125 3.414-4.528 3.414-.906 0-1.533 0-2.055-.07z" aria-label="B" style="font-weight:700;font-size:34.8327px;font-family:&quot;Myriad Pro&quot;;-inkscape-font-specification:&quot;Myriad Pro Bold&quot;;fill:#fff;stroke-width:.237497;stroke-linecap:round;stroke-linejoin:round;stroke-miterlimit:2.1;paint-order:markers stroke fill" transform="translate(.008 -.223)"/><path d="M35.041 4.342a10.68 10.68 0 0 0-10.705 10.705v13.715c0 5.93 4.774 10.705 10.705 10.705h13.717c5.93 0 10.705-4.775 10.705-10.705V15.047c0-5.93-4.774-10.705-10.705-10.705zm5.012 5.615c3.24 0 5.225.314 6.967 1.324 1.637.87 2.787 2.473 2.787 4.633 0 2.055-1.22 3.97-3.867 4.98v.07c2.682.697 4.668 2.751 4.668 5.747 0 2.16-.975 3.833-2.438 5.017-1.707 1.359-4.565 2.123-9.232 2.123-1.012 0-1.924-.026-2.73-.068-1.671-.087-3.016-1.635-3.016-3.309v-17c0-1.673 1.34-3.244 3.007-3.369a53 53 0 0 1 3.854-.148m.662 3.867c-1.184 0-1.846.07-2.264.139v5.469h1.742c2.822 0 4.284-1.15 4.284-2.891 0-1.777-1.359-2.717-3.762-2.717m-2.264 9.404v6.618c.523.07 1.15.07 2.055.07 2.403 0 4.527-.941 4.527-3.414 0-2.334-2.124-3.274-4.771-3.274z" style="fill:none;stroke:#000;stroke-width:.3;stroke-linecap:round;stroke-linejoin:round;stroke-miterlimit:2.1;stroke-dasharray:none;stroke-opacity:1;paint-order:markers stroke fill;filter:url(#f)"/></svg>