<svg xmlns="http://www.w3.org/2000/svg" width="64" height="64"><circle cx="32" cy="33" r="28" style="opacity:.2"/><circle cx="32" cy="32" r="28" style="fill:#448aff"/><path d="M34 15.12v12.23A6 6 0 0 1 37.652 31h12.215A18 18 0 0 0 34 15.12m-4 .012a18 18 0 0 0-15.879 15.867h12.23A6 6 0 0 1 30 27.347Zm8.285 18.398-5.894 5.895 9.726 9.726 5.895-5.894zM14.133 35A18 18 0 0 0 30 50.877v-12.23a6 6 0 0 1-3.652-3.649z" style="opacity:.2"/><path d="M34 14.121v12.23A6 6 0 0 1 37.652 30h12.215A18 18 0 0 0 34 14.121m-4 .012A18 18 0 0 0 14.121 30h12.23A6 6 0 0 1 30 26.348ZM14.133 34A18 18 0 0 0 30 49.879v-12.23A6 6 0 0 1 26.348 34Z" style="fill:#fff"/><path d="m35.338 35.478 9.727 9.727" style="fill:none;stroke:#fff;stroke-width:8.33712769"/><path d="M32 4A28 28 0 0 0 4 32a28 28 0 0 0 .018.492A28 28 0 0 1 32 5a28 28 0 0 1 27.975 27.492A28 28 0 0 0 60 32 28 28 0 0 0 32 4" style="opacity:.2;fill:#fff"/></svg>