<svg xmlns="http://www.w3.org/2000/svg" width="64" height="64"><rect width="56" height="56" x="4" y="5" rx="4.2" ry="4.2" style="opacity:.2"/><path d="M55.8 4H32v56h23.8a4.19 4.19 0 0 0 4.2-4.2V8.2A4.19 4.19 0 0 0 55.8 4" style="fill:#e631a1"/><path d="M8.2 4H32v56H8.2A4.19 4.19 0 0 1 4 55.8V8.2A4.19 4.19 0 0 1 8.2 4" style="fill:#4f4f4f"/><path d="M32 32v28H8.2A4.19 4.19 0 0 1 4 55.8V32Z" style="opacity:.1;fill:#fff"/><path d="M17.469 12c-.68 0-1.624.25-3.455.9-.178.062-.179.061-.326.123l.117.465c1.152-.31 1.359-.342 1.654-.342.738 0 .917.279 1.33 2.137l.856 3.81-2.42 3.624c-.62.929-1.181 1.486-1.506 1.486-.177 0-.474-.093-.77-.28-.384-.216-.68-.308-.945-.308-.59 0-1.004.465-1.004 1.084 0 .806.56 1.301 1.477 1.301.915 0 1.27-.28 2.748-2.139.797-1.022 1.447-1.949 2.658-3.652l.885 3.715c.384 1.61.767 2.076 1.712 2.076 1.123 0 1.89-.742 3.604-3.53l-.412-.25a11 11 0 0 0-.652.839c-.68.929-1.03 1.238-1.385 1.238-.414 0-.68-.402-.887-1.27-.089-.34-.092-.405-.121-.498-.738-3.159-1.063-4.582-1.063-5.047 1.33-2.415 2.363-3.748 2.895-3.748.177 0 .443.094.709.248.354.217.562.28.828.28.59 0 1.004-.465 1.004-1.116 0-.68-.502-1.146-1.21-1.146-1.3 0-2.394 1.115-4.462 4.43l-.324-1.703C18.59 12.62 18.266 12 17.469 12M39 27v3h14v-3zm0 9v3h14v-3zm-20.916 4q-3.123.001-5.066 1.748c-1.29 1.164-1.934 2.566-1.934 4.215q0 2.232 1.393 3.697 1.39 1.463 3.078 1.785l.023.68h-2.453q-.882-.002-1.285-.285-.404-.283-.445-1H11V54h5.502l-.2-3.047q-1.594-.555-2.16-1.918-.561-1.373-.56-3.039-.001-2.301 1.252-3.775 1.264-1.484 3.186-1.483c1.203 0 2.252.46 3.144 1.389q1.35 1.395 1.35 4.01 0 3.997-2.739 4.816L19.498 54H25v-3.16h-.395q-.02.555-.35.918c-.212.242-.653.367-1.325.367h-2.508l.105-.68q2.04-.565 3.229-2.02 1.201-1.463 1.203-3.552-.002-2.573-1.926-4.217-1.922-1.655-4.949-1.656" style="opacity:.2"/><path d="M17.469 11c-.68 0-1.624.25-3.455.9-.178.062-.179.061-.326.123l.117.465c1.152-.31 1.359-.342 1.654-.342.738 0 .917.279 1.33 2.137l.856 3.81-2.42 3.624c-.62.929-1.181 1.486-1.506 1.486-.177 0-.474-.093-.77-.28-.384-.216-.68-.308-.945-.308-.59 0-1.004.465-1.004 1.084 0 .806.56 1.301 1.477 1.301.915 0 1.27-.28 2.748-2.139.797-1.022 1.447-1.949 2.658-3.652l.885 3.715c.384 1.61.767 2.076 1.712 2.076 1.123 0 1.89-.742 3.604-3.53l-.412-.25a11 11 0 0 0-.652.839c-.68.929-1.03 1.238-1.385 1.238-.414 0-.68-.402-.887-1.27-.089-.34-.092-.405-.121-.498-.738-3.159-1.063-4.582-1.063-5.047 1.33-2.415 2.363-3.748 2.895-3.748.177 0 .443.094.709.248.354.217.562.28.828.28.59 0 1.004-.465 1.004-1.116 0-.68-.502-1.146-1.21-1.146-1.3 0-2.394 1.115-4.462 4.43l-.324-1.703C18.59 11.62 18.266 11 17.469 11M39 26v3h14v-3zm0 9v3h14v-3zm-20.916 4q-3.123.001-5.066 1.748c-1.29 1.164-1.934 2.566-1.934 4.215q0 2.232 1.393 3.697 1.39 1.463 3.078 1.785l.023.68h-2.453q-.882-.002-1.285-.285-.404-.283-.445-1H11V53h5.502l-.2-3.047q-1.594-.555-2.16-1.918-.561-1.373-.56-3.039-.001-2.301 1.252-3.775 1.264-1.484 3.186-1.483c1.203 0 2.252.46 3.144 1.389q1.35 1.395 1.35 4.01 0 3.997-2.739 4.816L19.498 53H25v-3.16h-.395q-.02.555-.35.918c-.212.242-.653.367-1.325.367h-2.508l.105-.68q2.04-.565 3.229-2.02 1.201-1.463 1.203-3.552-.002-2.573-1.926-4.217-1.922-1.655-4.949-1.656" style="fill:#fff"/><path d="M8.2 4A4.19 4.19 0 0 0 4 8.2v1A4.19 4.19 0 0 1 8.2 5h47.6A4.19 4.19 0 0 1 60 9.2v-1A4.19 4.19 0 0 0 55.8 4z" style="opacity:.1;fill:#fff"/></svg>