<svg xmlns="http://www.w3.org/2000/svg" xmlns:xlink="http://www.w3.org/1999/xlink" width="64" height="64"><defs><radialGradient xlink:href="#a" id="b" cx="26.732" cy="14.798" r="26.777" fx="26.732" fy="14.798" gradientTransform="matrix(0 -2.38125 2.3893 0 28.575 127.556)" gradientUnits="userSpaceOnUse"/><radialGradient id="a" cx="-159.431" cy="15.463" r="64.707" fx="-159.431" fy="15.463" gradientTransform="matrix(-.89413 0 0 .96305 -19.436 43.676)" gradientUnits="userSpaceOnUse"><stop offset="0" style="stop-color:#46bd7d;stop-opacity:1"/><stop offset="1" style="stop-color:#12b07c;stop-opacity:1"/></radialGradient><filter id="c" width="1.141" height="1.141" x="-.071" y="-.071" style="color-interpolation-filters:sRGB"><feGaussianBlur stdDeviation="1.601"/></filter><filter id="d" width="1.083" height="1.083" x="-.042" y="-.042" style="color-interpolation-filters:sRGB"><feGaussianBlur stdDeviation=".752"/></filter></defs><circle cx="32" cy="31.968" r="27.917" style="fill:url(#b);fill-opacity:1;stroke-width:0"/><circle cx="32" cy="32" r="27.917" style="fill:none;fill-opacity:1;stroke:#000;stroke-width:.2;stroke-dasharray:none;stroke-opacity:1;filter:url(#c)"/><g style="stroke:#ffec85;stroke-width:2.6;stroke-dasharray:none;stroke-opacity:1"><ellipse cx="32" cy="32.015" fill="none" rx="10.433" ry="21.184" style="opacity:1;fill:#fff;fill-opacity:0;stroke:#ffec85;stroke-width:2.6;stroke-dasharray:none;stroke-opacity:1"/><circle cx="32" cy="32" r="21.663" style="fill:none;fill-opacity:1;stroke:#ffec85;stroke-width:2.6;stroke-dasharray:none;stroke-opacity:1"/><path d="M32 38.875a21.184 10.433 0 0 0-18.059 5.006A21.66 21.66 0 0 0 32 53.662a21.66 21.66 0 0 0 18.059-9.781A21.184 10.433 0 0 0 32 38.875Zm0-28.537a21.66 21.66 0 0 0-18.059 9.781A21.184 10.433 0 0 0 32 25.125a21.184 10.433 0 0 0 18.059-5.006A21.66 21.66 0 0 0 32 10.338Z" style="fill:none;fill-opacity:1;stroke:#ffec85;stroke-width:2.6;stroke-dasharray:none;stroke-opacity:1"/><path fill="none" d="M10.407 32h43.186" style="opacity:1;fill:#fff;fill-opacity:0;stroke:#ffec85;stroke-width:2.6;stroke-linecap:round;stroke-linejoin:round;stroke-miterlimit:7.4;stroke-dasharray:none;stroke-opacity:1"/><path fill="none" d="M32 10.407v43.186" style="fill:#fff;fill-opacity:0;stroke:#ffec85;stroke-width:2.6;stroke-linecap:round;stroke-linejoin:round;stroke-miterlimit:7.4;stroke-dasharray:none;stroke-opacity:1"/></g><path d="M31.996 9.037c-.927 0-1.835.072-2.734.18-.145.017-.286.046-.43.066a23 23 0 0 0-2.685.54q-1.261.33-2.461.796l-.028.01a23.05 23.05 0 0 0-11.283 9.508l-.166.254.008.006A22.8 22.8 0 0 0 9.037 32a22.8 22.8 0 0 0 3.18 11.604l-.008.005.158.243a23 23 0 0 0 13.793 10.33q.184.049.367.095 1.119.276 2.278.438c.159.023.315.053.474.072a23 23 0 0 0 2.717.176h.008c.922 0 1.825-.07 2.719-.176.16-.02.316-.05.474-.072a23 23 0 0 0 2.278-.438q.184-.046.367-.095A23 23 0 0 0 51.66 43.81l.131-.202-.006-.005A22.8 22.8 0 0 0 54.963 32c0-4.236-1.17-8.194-3.178-11.603l.008-.006-.166-.254A23 23 0 0 0 37.457 9.72q-1.124-.276-2.287-.438c-.144-.02-.285-.049-.43-.066a23 23 0 0 0-2.736-.18H32zM30.7 12.353v11.45a37.3 37.3 0 0 1-6.79-.85c.487-2.007 1.127-3.814 1.88-5.344 1.42-2.882 3.16-4.662 4.91-5.256zm2.602 0c1.75.594 3.49 2.374 4.91 5.256.753 1.53 1.395 3.337 1.883 5.344-2.111.47-4.406.768-6.793.85zm-7.305.237c-.96 1.079-1.812 2.395-2.539 3.87-.844 1.715-1.542 3.678-2.068 5.825-2.132-.662-4-1.509-5.485-2.48 2.581-3.414 6.107-5.934 10.092-7.215zm12.01 0c3.985 1.281 7.509 3.801 10.09 7.215-1.485.971-3.351 1.818-5.483 2.48-.526-2.147-1.226-4.11-2.07-5.824-.727-1.476-1.577-2.792-2.537-3.871zm-23.738 9.383c1.835 1.232 4.071 2.224 6.576 2.957a42 42 0 0 0-.557 5.77h-8.61a20.26 20.26 0 0 1 2.59-8.727zm35.466 0a20.26 20.26 0 0 1 2.59 8.726h-8.61a42 42 0 0 0-.556-5.77c2.505-.732 4.741-1.724 6.576-2.956zm-26.353 3.59a41.5 41.5 0 0 0 7.318.843V30.7h-7.81a40 40 0 0 1 .492-5.137zm17.24 0c.266 1.626.436 3.35.492 5.136h-7.812v-4.293a41.6 41.6 0 0 0 7.32-.844zM11.678 33.3h8.61c.056 2.005.245 3.94.552 5.771-2.503.732-4.738 1.724-6.572 2.955a20.26 20.26 0 0 1-2.59-8.726zm11.21 0H30.7v4.293c-2.549.074-5.02.36-7.324.845a40 40 0 0 1-.486-5.138zm10.413 0h7.812a40 40 0 0 1-.486 5.138 41.6 41.6 0 0 0-7.326-.845zm10.414 0h8.61a20.26 20.26 0 0 1-2.59 8.726c-1.835-1.231-4.07-2.223-6.573-2.955.307-1.832.496-3.766.553-5.771zm-13.016 6.898v11.479c-1.75-.594-3.49-2.375-4.91-5.258-.757-1.537-1.4-3.353-1.889-5.371a37.3 37.3 0 0 1 6.8-.85zm2.602 0c2.39.082 4.688.38 6.8.85-.488 2.018-1.133 3.834-1.89 5.37-1.42 2.884-3.16 4.665-4.91 5.259zm-11.92 1.518c.527 2.157 1.228 4.13 2.076 5.851.718 1.457 1.556 2.759 2.502 3.83-3.97-1.285-7.481-3.8-10.055-7.203 1.483-.97 3.349-1.817 5.477-2.478zm21.24 0c2.128.661 3.992 1.508 5.475 2.478-2.574 3.404-6.083 5.918-10.053 7.203.946-1.071 1.782-2.373 2.5-3.83.848-1.722 1.551-3.694 2.078-5.851z" style="baseline-shift:baseline;display:inline;overflow:visible;mix-blend-mode:normal;fill:none;stroke:#cf0;stroke-width:.2;stroke-dasharray:none;stroke-opacity:1;filter:url(#d);enable-background:accumulate;stop-color:#000"/></svg>