<svg xmlns="http://www.w3.org/2000/svg" width="64" height="64"><path d="M10 55v2c0 2.216 1.784 4 4 4h36c2.216 0 4-1.784 4-4v-2c0 2.216-1.784 4-4 4H14c-2.216 0-4-1.784-4-4" style="opacity:.2"/><rect width="56" height="44" x="-60" y="-54" rx="4" ry="4" style="fill:#8e8e8e" transform="rotate(90)scale(-1 1)"/><path d="M32 12c-7.732 0-14 6.268-14 14v14h14c7.732 0 14-6.268 14-14s-6.268-14-14-14m0 6a8 8 0 0 1 8 8 8 8 0 0 1-8 8 8 8 0 0 1-8-8 8 8 0 0 1 8-8" style="opacity:.5"/><path d="M14 4c-2.216 0-4 1.784-4 4v1c0-2.216 1.784-4 4-4h36c2.216 0 4 1.784 4 4V8c0-2.216-1.784-4-4-4z" style="opacity:.1;fill:#fff"/><path d="M63.958 45.848A16 16 0 0 1 48 61a16 16 0 0 1-15.958-14.848A16 16 0 0 0 32 47a16 16 0 0 0 16 16 16 16 0 0 0 16-16 16 16 0 0 0-.043-1.152z" style="opacity:.2"/><circle cx="48" cy="46" r="16" style="fill:#86ff7b"/><path d="M48 36a10 10 0 0 0-10 10 10 10 0 0 0 10 10 10 10 0 0 0 10-10 10 10 0 0 0-10-10m0 6a4 4 0 0 1 4 4 4 4 0 0 1-4 4 4 4 0 0 1-4-4 4 4 0 0 1 4-4" style="fill:#fff"/></svg>