<svg xmlns="http://www.w3.org/2000/svg" width="64" height="64"><rect width="56" height="56" x="4" y="5" rx="2.8" ry="2.8" style="opacity:.2"/><rect width="56" height="56" x="4" y="4" rx="2.8" ry="2.8" style="fill:#3f3f3f"/><path d="M13 19v22h20v6h7V19H20Zm31 0v28h7V19Zm-24 7h13v8H20Z" style="opacity:.2"/><path d="M13 18h7v22h-7z" style="fill:#fff"/><path d="M18-40h7v27h-7z" style="fill:#fff" transform="rotate(90)"/><path d="M-40-46h7v28h-7z" style="fill:#fff" transform="scale(-1)"/><path d="M33-40h7v27h-7z" style="fill:#fff" transform="rotate(90)"/><path d="M-51-46h7v28h-7z" style="fill:#fff" transform="scale(-1)"/><path d="M6.8 4C5.25 4 4 5.25 4 6.8v1C4 6.25 5.25 5 6.8 5h50.4C58.75 5 60 6.25 60 7.8v-1C60 5.25 58.75 4 57.2 4z" style="fill:#fff;opacity:.1"/></svg>