<svg xmlns="http://www.w3.org/2000/svg" width="64" height="64"><path d="M56 5s4 0 4 4v48c0 4-4 4-4 4H24L4 41V9c0-4 4-4 4-4Z" style="opacity:.2"/><path d="M56 4s4 0 4 4v48c0 4-4 4-4 4H24L4 40V8c0-4 4-4 4-4Z" style="fill:#303d75"/><path d="M4 40h17c1.656 0 3 1.344 3 3v17Z" style="fill:#44559e"/><path d="m4 40 1 1h16c1.656 0 3 1.344 3 3v-1c0-1.656-1.344-3-3-3Z" style="opacity:.1;fill:#fff"/><path d="M32 16a10 10 0 0 0-.875.043l-.195.023A10 10 0 0 0 22 26l.004.074A7 7 0 0 0 16 33l.004.172-.004.16A6.667 6.667 0 0 0 22.668 40H40a8 8 0 0 0 8-8 8 8 0 0 0-6.16-7.766 10 10 0 0 0-8.481-8.129l-.129-.019a10 10 0 0 0-.609-.055A9 9 0 0 0 32 16m-.02 3.002q.196.004.391.019l.074.004q.207.012.41.037l.016.002.018.004.062.01a6.98 6.98 0 0 1 5.936 5.69 3 3 0 0 0 2.263 2.386 4.974 4.974 0 0 1 3.85 4.85A4.955 4.955 0 0 1 40 37H22.668c-2.06 0-3.666-1.605-3.668-3.664v-.004l.002-.051a3 3 0 0 0 0-.215L19 33.002v-.004a3.97 3.97 0 0 1 3.432-3.955A3 3 0 0 0 25 26.002v-.004a6.96 6.96 0 0 1 6.25-6.949l.068-.008.11-.014q.275-.023.552-.025" style="opacity:.2"/><path d="M32 15a10 10 0 0 0-.875.043l-.195.023A10 10 0 0 0 22 25l.004.074A7 7 0 0 0 16 32l.004.172-.004.16A6.667 6.667 0 0 0 22.668 39H40a8 8 0 0 0 8-8 8 8 0 0 0-6.16-7.766 10 10 0 0 0-8.481-8.129l-.129-.019a10 10 0 0 0-.609-.055A9 9 0 0 0 32 15m-.02 3.002q.196.004.391.019l.074.004q.207.012.41.037l.016.002.018.004.062.01a6.98 6.98 0 0 1 5.936 5.69 3 3 0 0 0 2.263 2.386 4.974 4.974 0 0 1 3.85 4.85A4.955 4.955 0 0 1 40 36H22.668c-2.06 0-3.666-1.605-3.668-3.664v-.004l.002-.051a3 3 0 0 0 0-.215L19 32.002v-.004a3.97 3.97 0 0 1 3.432-3.955A3 3 0 0 0 25 25.002v-.004a6.96 6.96 0 0 1 6.25-6.949l.068-.008.11-.014q.275-.023.552-.025" style="fill:#5d8cb9"/><path d="M8 4S4 4 4 8v1c0-4 4-4 4-4h48s4 0 4 4V8c0-4-4-4-4-4Z" style="opacity:.1;fill:#fff"/></svg>