<svg xmlns="http://www.w3.org/2000/svg" width="64" height="64"><circle cx="32" cy="33" r="28" style="opacity:.2"/><circle cx="32" cy="32" r="28" style="fill:#3f3f3f"/><circle cx="32" cy="33" r="22" style="opacity:.2"/><path d="M32.001 10a21.9 21.9 0 0 0-15.542 6.459 21.93 21.93 0 0 0 0 31.082A21.9 21.9 0 0 0 32.001 54z" style="fill:#ffbd2d"/><path d="M32 10a21.9 21.9 0 0 1 15.542 6.459 21.93 21.93 0 0 1 0 31.082A21.9 21.9 0 0 1 32 54z" style="fill:#42d973"/><path d="m32 32 15.542 15.542a21.93 21.93 0 0 0 0-31.084z" style="fill:#3b9fff"/><path d="M32 32 16.458 16.458a21.93 21.93 0 0 0 0 31.084z" style="fill:#eb3b3b"/><circle cx="32" cy="32" r="12" style="fill:#3f3f3f"/><circle cx="36" cy="26" r="4" style="fill:#fff"/><circle cx="32" cy="32" r="3" style="fill:#fff"/><path d="M32 4A28 28 0 0 0 4 32a28 28 0 0 0 .033.482A28 28 0 0 1 32 5a28 28 0 0 1 27.982 27.242L60 32A28 28 0 0 0 32 4" style="opacity:.1;fill:#fff"/><path d="M32 10a22 22 0 0 0-22 22 22 22 0 0 0 .033.482A22 22 0 0 1 32 11a22 22 0 0 1 21.982 21.238L54 32a22 22 0 0 0-22-22" style="opacity:.2;fill:#fff"/></svg>