<svg xmlns="http://www.w3.org/2000/svg" width="64" height="64"><path d="M41 60H23a7.6 7.6 0 0 1-5.193-2.047L7.193 48.047A6.9 6.9 0 0 1 5 43V24a7.24 7.24 0 0 1 2.121-5.121L17.88 8.121A7.24 7.24 0 0 1 23 6h18a7.24 7.24 0 0 1 5.121 2.121L56.879 18.88A7.24 7.24 0 0 1 59 24v19a6.9 6.9 0 0 1-2.193 5.047l-10.614 9.906A7.6 7.6 0 0 1 41 60" style="opacity:.2"/><path d="M41 59H23a7.6 7.6 0 0 1-5.193-2.047L7.193 47.047A6.9 6.9 0 0 1 5 42V23a7.24 7.24 0 0 1 2.121-5.121L17.88 7.121A7.24 7.24 0 0 1 23 5h18a7.24 7.24 0 0 1 5.121 2.121L56.879 17.88A7.24 7.24 0 0 1 59 23v19a6.9 6.9 0 0 1-2.193 5.047l-10.614 9.906A7.6 7.6 0 0 1 41 59" style="fill:#4f4f4f"/><path d="M23 5a7.24 7.24 0 0 0-5.121 2.121L7.121 17.88A7.24 7.24 0 0 0 5 23v1a7.24 7.24 0 0 1 2.121-5.121L17.88 8.121A7.24 7.24 0 0 1 23 6h18a7.24 7.24 0 0 1 5.121 2.121L56.879 18.88A7.24 7.24 0 0 1 59 24v-1a7.24 7.24 0 0 0-2.121-5.121L46.121 7.121A7.24 7.24 0 0 0 41 5Z" style="opacity:.1;fill:#fff"/><path d="M5.13 22A7 7 0 0 0 5 23v2.104l37.744 24.744c.673.467 1.547-.214 1.256-.979L33.725 24.328C33.141 22.935 31.827 22 30.314 22Zm37.731 6c-2.266 0-3.422 1.723-2.591 3.863l1.263 3.26c.83 2.14 3.324 3.865 5.59 3.865h11.016c.309 0 .596-.035.861-.095v-7.934C57.911 29.258 55.813 28 53.877 28Z" style="opacity:.1"/><path d="m44 47.869-10.274-24.54C33.142 21.936 31.828 21 30.315 21H4.16c-1.138.009-1.592 1.472-.657 2.121l39.242 25.726c.672.467 1.546-.213 1.255-.978" style="fill:#17c7e1"/><path d="M42.861 27h11.016c2.266 0 4.759 1.723 5.589 3.864l1.265 3.26c.83 2.14-.326 3.864-2.592 3.864H47.123c-2.266 0-4.759-1.724-5.589-3.864l-1.265-3.26c-.83-2.141.326-3.864 2.592-3.864" style="fill:#2ec27e"/><path d="M4.16 21c-.92.007-1.377.959-1.033 1.668A1.13 1.13 0 0 1 4.16 22h26.154c1.514 0 2.827.935 3.411 2.328l10.179 24.315a.81.81 0 0 0 .096-.774L33.725 23.328C33.141 21.935 31.828 21 30.314 21Zm38.701 6c-1.967 0-3.095 1.298-2.816 3.041.216-1.216 1.249-2.041 2.816-2.041h11.016c2.266 0 4.76 1.723 5.59 3.863l1.263 3.26q.163.424.225.822c.096-.542.031-1.162-.225-1.822l-1.263-3.26c-.83-2.14-3.324-3.863-5.59-3.863Z" style="opacity:.2;fill:#fff"/></svg>