<svg xmlns="http://www.w3.org/2000/svg" width="64" height="64"><path d="M32 5A28 28 0 0 0 4.75 26.88q-.117.487-.214.977a28 28 0 0 0-.295 1.777 28 28 0 0 0-.227 3.158L4 33l.005.074a27.6 27.6 0 0 0 8.061 19.624 28.3 28.3 0 0 0 8.198 5.715l.232.104q1.727.78 3.539 1.32l.142.042a27.6 27.6 0 0 0 7.787 1.118L32 61l.055-.003a28 28 0 0 0 3.855-.276l.153-.022c10.693-1.556 19.85-9.139 22.912-19.71.851-2.94 1.021-4.239 1.025-7.798 0-.065-.003-.1-.003-.164L60 33l-.006-.18c-.005-3.026-.116-3.957-.792-6.634a25 25 0 0 0-1.22-3.612 28 28 0 0 0-9.464-12.179c-.099-.356-.195-.951-.38-2.122a298 298 0 0 0-.46-2.86L47.603 5l-1.047.7c-.576.384-1.567.98-2.201 1.323l-.845.46A28 28 0 0 0 32 5" style="opacity:.2"/><path d="M32 4A28 28 0 0 0 4.75 25.88q-.117.487-.214.977a28 28 0 0 0-.295 1.777 28 28 0 0 0-.227 3.158L4 32l.005.074a27.6 27.6 0 0 0 8.061 19.624 28.3 28.3 0 0 0 8.198 5.715l.232.104q1.727.78 3.539 1.32l.142.042a27.6 27.6 0 0 0 7.787 1.118L32 60l.055-.003a28 28 0 0 0 3.855-.276l.153-.022c10.693-1.556 19.85-9.139 22.912-19.71.851-2.94 1.021-4.239 1.025-7.798 0-.065-.003-.1-.003-.164L60 32l-.006-.18c-.005-3.026-.116-3.957-.792-6.634a25 25 0 0 0-1.22-3.612 28 28 0 0 0-9.464-12.18c-.099-.355-.195-.95-.38-2.121a298 298 0 0 0-.46-2.86L47.603 4l-1.047.7c-.576.384-1.567.98-2.201 1.323l-.845.46A28 28 0 0 0 32 4" style="fill:#fddb00"/><path d="M30.518 57.98c-5.308-.347-9.642-3.326-11.076-7.614-1.056-3.157-.194-6.29 2.307-9.09 1.684-1.883 4.644-3.462 7.533-4.017 1.317-.253 4.665-.298 5.593-.078.482.113.562.105.5-.055-.04-.105-3.861-5.687-7.636-12.135-3.775-6.449-6.786-11.181-6.815-11.373-.069-.468.293-1.131.739-1.355.253-.127 1.185-.208 3.083-.268 8.5-.266 16.41-2.804 21.563-6.188a30 30 0 0 1 1.293-.804c0 .188-.778 1.964-1.287 2.978-2.72 5.419-7.422 10.086-13.118 13.506-.78.468-1.404.898-1.389.955.015.058 2.695 4.648 5.956 10.2 3.26 5.553 6.194 10.423 6.374 10.822 2.462 5.471-.756 11.364-7.354 13.724-1.564.56-4.572.902-6.266.792" style="opacity:.1"/><path d="M32 4A28 28 0 0 0 4.75 25.88q-.117.488-.215.977a28 28 0 0 0-.295 1.778 28 28 0 0 0-.226 3.158L4 32l.006.074c-.001.205.008.409.012.614q.025-1.528.222-3.053a28 28 0 0 1 .295-1.778q.099-.489.215-.976A28 28 0 0 1 32 5a28 28 0 0 1 11.51 2.482l.844-.459a35 35 0 0 0 2.2-1.324L47.603 5l.078.412c.04.228.247 1.516.459 2.861.184 1.171.28 1.766.379 2.122a28 28 0 0 1 9.464 12.18c.498 1.178.91 2.385 1.22 3.61.662 2.623.78 3.596.79 6.48.001-.172.008-.291.008-.474l-.002-.164L60 32l-.006-.18c-.006-3.025-.116-3.958-.793-6.634a25 25 0 0 0-1.219-3.612 28 28 0 0 0-9.464-12.18c-.1-.355-.195-.95-.38-2.12a306 306 0 0 0-.458-2.862L47.602 4l-1.047.7c-.577.384-1.568.98-2.201 1.323l-.844.46A28 28 0 0 0 32 4" style="fill:#fff;opacity:.2"/><path d="M30.518 56.98c-5.308-.347-9.642-3.326-11.076-7.614-1.056-3.157-.194-6.29 2.307-9.09 1.684-1.883 4.644-3.462 7.533-4.017 1.317-.253 4.665-.298 5.593-.079.482.114.562.105.5-.054-.04-.105-3.861-5.687-7.636-12.135-3.775-6.449-6.786-11.182-6.815-11.373-.069-.468.293-1.131.739-1.355.253-.127 1.185-.208 3.083-.268 8.5-.266 16.41-2.804 21.563-6.188a30 30 0 0 1 1.293-.804c0 .188-.778 1.964-1.287 2.978-2.72 5.419-7.422 10.086-13.118 13.506-.78.468-1.404.898-1.389.955.015.058 2.695 4.648 5.956 10.2 3.26 5.552 6.194 10.422 6.374 10.822 2.462 5.471-.756 11.364-7.354 13.724-1.564.56-4.572.902-6.266.792" style="fill:#16bd73"/></svg>