<svg xmlns="http://www.w3.org/2000/svg" xmlns:xlink="http://www.w3.org/1999/xlink" width="64" height="64"><defs><filter id="c" width="1.164" height="1.205" x="-.082" y="-.102" style="color-interpolation-filters:sRGB"><feGaussianBlur stdDeviation="2"/></filter><filter id="d" width="1.262" height="1.196" x="-.131" y="-.098" style="color-interpolation-filters:sRGB"><feGaussianBlur stdDeviation=".94"/></filter><radialGradient xlink:href="#a" id="b" cx="34.988" cy="58.377" r="30" fx="34.988" fy="58.377" gradientTransform="matrix(0 -2.15736 2.11085 0 -59.256 139.88)" gradientUnits="userSpaceOnUse"/><linearGradient id="a"><stop offset="0" style="stop-color:#00ab60;stop-opacity:1"/><stop offset="1" style="stop-color:#00f06d;stop-opacity:1"/></linearGradient></defs><path d="M15.951 8h43.192S62 8 62 10.824V41.76a14.28 14.28 112.003 0 1-4.008 9.92l-.165.17A13.6 13.6 157.003 0 1 48.049 56H4.857S2 56 2 53.176V22.24a14.28 14.28 112.003 0 1 4.008-9.92l.165-.17A13.6 13.6 157.003 0 1 15.951 8" style="fill:url(#b)" transform="translate(2.719 2.719)scale(.91504)"/><path d="M15.951 8h43.192S62 8 62 10.824V41.76a14.28 14.28 112.003 0 1-4.008 9.92l-.165.17A13.6 13.6 157.003 0 1 48.049 56H4.857S2 56 2 53.176V22.24a14.28 14.28 112.003 0 1 4.008-9.92l.165-.17A13.6 13.6 157.003 0 1 15.951 8Z" style="mix-blend-mode:normal;fill:none;stroke:#000;stroke-width:.231168;stroke-dasharray:none;stroke-opacity:1;filter:url(#c)" transform="translate(2.719 2.719)scale(.91504)"/><path d="M23 21.645v20.71A1.645 1.645 45 0 0 24.645 44h7.998C37.273 44 41 40.135 41 35.333v-6.666C41 23.865 37.273 20 32.643 20h-7.998A1.645 1.645 135 0 0 23 21.645M27 24h5.643C35.203 24 37 26.012 37 28.667v6.666C37 37.988 35.203 40 32.643 40H27Z" style="fill:#fff"/><path d="M23 20v24h9.643C37.273 44 41 40.135 41 35.333v-6.666C41 23.865 37.273 20 32.643 20h-5.786Zm4 4h5.643C35.203 24 37 26.012 37 28.667v6.666C37 37.988 35.203 40 32.643 40H27Z" style="fill:none;stroke:#006fff;stroke-opacity:1;stroke-width:.19999991;stroke-dasharray:none;filter:url(#d)"/></svg>