<svg xmlns="http://www.w3.org/2000/svg" width="64" height="64"><path d="M5.9 4A2.894 2.894 0 0 0 3 6.9V30h26V4ZM35 4v26h26V6.9C61 5.294 59.706 4 58.1 4ZM3 36v23.1C3 60.706 4.294 62 5.9 62H29V36Zm32 0v26h23.1c1.606 0 2.9-1.294 2.9-2.9V36Z" style="opacity:.2"/><path d="M5.9 3A2.894 2.894 0 0 0 3 5.9V29h26V3zM35 3v26h26V5.9C61 4.294 59.706 3 58.1 3zM3 35v23.1C3 59.706 4.294 61 5.9 61H29V35zm32 0v26h23.1c1.606 0 2.9-1.294 2.9-2.9V35z" style="fill:#84c22e"/><path d="M5.9 3A2.894 2.894 0 0 0 3 5.9v1C3 5.294 4.294 4 5.9 4H29V3zM35 3v1h23.1C59.706 4 61 5.294 61 6.9v-1C61 4.294 59.706 3 58.1 3zM3 35v1h26v-1zm32 0v1h26v-1z" style="fill:#fff;opacity:.2"/><path d="M17.8 16c-1.55 0-2.8 1.273-2.8 2.855V43.11c0 1.6 1.262 2.89 2.832 2.89h28.336C47.738 46 49 44.71 49 43.11V22.89c0-1.6-1.262-2.89-2.832-2.89H29v-1.145C29 17.273 27.75 16 26.2 16Z" style="opacity:.2"/><rect width="34" height="26" x="15" y="19" rx="2.833" ry="2.889" style="fill:#fff"/><rect width="14" height="10" x="15" y="15" rx="2.8" ry="2.857" style="fill:#fff"/></svg>