<svg xmlns="http://www.w3.org/2000/svg" width="64" height="64"><circle cx="32" cy="33" r="28" style="opacity:.2"/><circle cx="32" cy="32" r="28" style="fill:#787784"/><path d="M31.969 13.05C20.94 13.05 12 21.992 12 33.02s8.94 19.968 19.969 19.968a19.97 19.97 0 0 0 13.625-5.406l5.695 5.695a28 28 0 0 0 6.57-9.566l-6.41-6.414c.317-1.405.48-2.838.488-4.277 0-11.029-8.94-19.97-19.968-19.97m0 9.985c5.514 0 9.984 4.47 9.984 9.985s-4.47 9.984-9.984 9.984-9.985-4.47-9.985-9.984 4.47-9.985 9.985-9.985" style="opacity:.2"/><path d="M31.969 12.05C20.94 12.05 12 20.992 12 32.02s8.94 19.968 19.969 19.968a19.97 19.97 0 0 0 13.625-5.406l5.695 5.695a28 28 0 0 0 6.57-9.566l-6.41-6.414c.317-1.405.48-2.838.488-4.277 0-11.029-8.94-19.97-19.968-19.97m0 9.985c5.514 0 9.984 4.47 9.984 9.985s-4.037 7.755-9.55 7.755c-5.515 0-10.419-2.241-10.419-7.755 0-5.515 4.47-9.985 9.985-9.985" style="fill:#fff"/><path d="M50.035 11.582 31.98 30.438l-5.853-5.682-8.255 7.537 8.023 8.656C27.347 42.517 29.722 43 32.023 43c2.248 0 4.56-.457 6.004-1.965l19.223-20.07a28 28 0 0 0-7.215-9.383" style="opacity:.1"/><path d="M50.035 10.582 31.98 29.438l-5.853-5.682-8.255 7.537 8.023 8.656C27.347 41.517 29.722 42 32.023 42c2.248 0 4.56-.457 6.004-1.965l19.223-20.07a28 28 0 0 0-7.215-9.383" style="fill:#94c000"/><path d="M32 4A28 28 0 0 0 4 32a28 28 0 0 0 .018.492A28 28 0 0 1 32 5a28 28 0 0 1 27.975 27.492A28 28 0 0 0 60 32 28 28 0 0 0 32 4" style="opacity:.1;fill:#fff"/></svg>