<svg xmlns="http://www.w3.org/2000/svg" width="64" height="64"><path d="M32 5c-4.271 0-7.96 1.75-10.38 4.51C19.197 12.27 18 15.914 18 19.7V43h6V19.7c0-2.515.801-4.72 2.13-6.234C27.46 11.95 29.271 11 32 11s4.54.95 5.87 2.466C39.197 14.98 40 17.185 40 19.7V43h6V19.7c0-3.785-1.199-7.43-3.62-10.19C39.96 6.75 36.271 5 32 5" style="opacity:.2"/><path d="M32 61 13.453 41.817A11.79 12.194 0 1 1 32 27.097a11.79 12.194 0 1 1 18.547 14.72Z" style="opacity:.2"/><path d="M21 42V18.7C21 12.4 25 7 32 7s11 5.4 11 11.7V42" style="fill:none;stroke:#8e8e8e;stroke-width:6.00000143"/><path d="M32 60 13.453 40.817A11.79 12.194 0 1 1 32 26.097a11.79 12.194 0 1 1 18.547 14.72Z" style="fill:#1b61a4"/><circle cx="32" cy="-36" r="4" style="fill:#272727" transform="scale(1 -1)"/><path d="M31.867 36.1 28 48h8l-4-11.9z" style="fill:#272727"/><path d="M32 4c-4.271 0-7.958 1.748-10.379 4.508S18 14.914 18 18.699v1c0-3.785 1.2-7.431 3.621-10.191S27.729 5 32 5s7.958 1.748 10.379 4.508 3.62 6.406 3.62 10.191v-1c0-3.785-1.2-7.431-3.62-10.191S36.27 4 31.999 4" style="opacity:.1;fill:#fff"/><path d="M22.307 20.012a11.79 12.194 0 0 0-12.284 12.654A11.79 12.194 0 0 1 32 27.098a11.79 12.194 0 0 1 21.977 5.56A11.79 12.194 0 0 0 32 26.098a11.79 12.194 0 0 0-9.693-6.086" style="opacity:.1;fill:#fff"/></svg>