<svg xmlns="http://www.w3.org/2000/svg" width="64" height="64"><rect width="56" height="56" x="-61" y="4" rx="28" ry="28" style="opacity:.2" transform="rotate(-90)"/><rect width="56" height="56" x="-60" y="4" rx="28" ry="28" style="fill:#4f4f4f" transform="rotate(-90)"/><circle cx="-32" cy="33" r="11" style="opacity:.2" transform="scale(-1 1)"/><path d="M32 12c-11.046 0-20 8.954-20 20a20 20 0 0 0 1.639 7.889c.001.002.002 0 .004.004l.01.023a1.427 1.427 0 0 0 2.71-.625c0-.173-.041-.335-.097-.488-.004-.014.005-.03 0-.043l-.014-.028q-.04-.093-.078-.187A17.1 17.1 0 0 1 14.857 32c0-9.468 7.675-17.143 17.143-17.143a17.1 17.1 0 0 1 6.463 1.278c.014.005.032.002.047.006l.011.005a1.43 1.43 0 0 0 2.012-1.303 1.42 1.42 0 0 0-.78-1.257c-.025-.014-.027-.032-.058-.045l-.056-.02-.014-.01-.016-.001A20 20 0 0 0 32 12m17.064 11.281c-.789 0-1.427.639-1.427 1.428 0 .173.041.335.097.488.004.014-.005.03 0 .043l.014.028q.04.093.078.187A17.1 17.1 0 0 1 49.143 32c0 9.468-7.675 17.143-17.143 17.143a17.1 17.1 0 0 1-6.463-1.278c-.014-.005-.032-.002-.047-.006l-.011-.005a1.43 1.43 0 0 0-2.012 1.303c0 .55.321 1.019.78 1.257.025.014.027.032.058.045l.056.02.014.01.016.001A20 20 0 0 0 32 52c11.046 0 20-8.954 20-20a20 20 0 0 0-1.639-7.889c-.001-.002-.002 0-.004-.004l-.01-.023a1.43 1.43 0 0 0-1.283-.803" style="opacity:.1;fill:#fff"/><circle cx="-32" cy="32" r="11" style="fill:#e34343" transform="scale(-1 1)"/><path d="M32 21a11 11 0 0 1 11 11 11 11 0 0 1-.021.586A11 11 0 0 0 32 22a11 11 0 0 0-10.979 10.414A11 11 0 0 1 21 32a11 11 0 0 1 11-11" style="opacity:.1;fill:#fff"/><circle cx="-32" cy="32" r="4" style="fill:#fff" transform="scale(-1 1)"/><path d="m50.295 19 .08.002a.79.79 0 0 1 .682.568s.637 5.634 1.287 8.387c1.832 7.99 5.086 15.674 7.449 23.441a9.625 9.625 0 1 1-19.043 1.977 9.62 9.62 0 0 1 2.463-6.41l.006-.008c-2.874-.896-5.667-1.7-7.89-2.187-2.987-.655-9.104-1.098-9.104-1.098-.598-.15-.8-.867-.366-1.29l11.803-11.456.069.068.056-.187 11.928-11.58a.82.82 0 0 1 .58-.227" style="opacity:.2"/><path d="M50.294 18q.041 0 .081.003a.79.79 0 0 1 .682.566s.637 5.634 1.287 8.387c1.832 7.99 5.086 15.675 7.45 23.442a9.625 9.625 0 1 1-19.043 1.977 9.63 9.63 0 0 1 2.467-6.418c-2.874-.896-3.066-3.382-5.29-3.87a36 36 0 0 1-5.413-1.662c-.597-.15 1.784-.193 2.219-.615l3.054-10.004 11.926-11.58a.82.82 0 0 1 .58-.226" style="fill:#ffae11"/><path d="m37.662 29.927 17.41 17.41.016.038a6.88 6.88 0 0 1 2.162 5 6.875 6.875 0 0 1-6.875 6.875 6.875 6.875 0 0 1-6.875-6.875 6.88 6.88 0 0 1 2.49-5.29 14 14 0 0 0-2.777-1.12l.005-.009c-2.874-.895-5.666-1.698-7.89-2.186-2.986-.654-9.104-1.098-9.104-1.098-.597-.15-.8-.867-.365-1.289ZM50.375 48.25a4.125 4.125 0 0 0-4.125 4.125 4.125 4.125 0 0 0 4.125 4.125 4.125 4.125 0 0 0 4.125-4.125 4.125 4.125 0 0 0-4.125-4.125" style="fill:#c3831f"/><path d="M32 4c15.512 0 28 12.488 28 28 0 .168-.01.333-.014.5C59.72 17.221 47.344 5 32 5S4.28 17.221 4.014 32.5C4.01 32.333 4 32.168 4 32 4 16.488 16.488 4 32 4" style="opacity:.1;fill:#fff"/><path d="m50.295 18 .08.002a.79.79 0 0 1 .682.568s.637 5.634 1.287 8.387c1.832 7.99 5.086 15.674 7.449 23.441A9.7 9.7 0 0 1 60 52.375c0 .175-.016.345-.025.518a9.6 9.6 0 0 0-.182-1.495c-2.363-7.767-5.617-15.451-7.45-23.441-.65-2.753-1.286-8.387-1.286-8.387a.79.79 0 0 0-.682-.568q-.04-.003-.08-.002a.82.82 0 0 0-.58.227l-11.928 11.58-.057.187-.068-.068L25.86 42.383c-.014.014-.022.03-.035.045a.747.747 0 0 1 .035-1.045l11.803-11.457.068.068.057-.187 11.928-11.58a.82.82 0 0 1 .58-.227m-7.72 28.766c.22.067.423.122.644.191l-.006.008a9.6 9.6 0 0 0-2.438 5.906c-.008-.165-.025-.329-.025-.496a9.62 9.62 0 0 1 1.824-5.61" style="opacity:.2;fill:#fff"/></svg>