<svg xmlns="http://www.w3.org/2000/svg" width="64" height="64"><path d="M22.463 14.2c-1.489 0-2.97 1.277-2.687 2.8l4.164 22.4-7.462 15.553c-.531 1.067-.631 1.719-.242 2.647.372.886 1.332 1.4 2.33 1.4h26.868c.998 0 1.958-.514 2.33-1.4.389-.928.29-1.58-.242-2.647L40.06 39.4 44.224 17c.283-1.523-1.198-2.8-2.687-2.8H32Z" style="opacity:.2"/><path d="M22.463 13.2c-1.489 0-2.97 1.277-2.687 2.8l4.164 22.4-7.462 15.553c-.531 1.067-.631 1.719-.242 2.647.372.886 1.332 1.4 2.33 1.4h26.868c.998 0 1.958-.514 2.33-1.4.389-.928.29-1.58-.242-2.647L40.06 38.4 44.224 16c.283-1.523-1.198-2.8-2.687-2.8H32Z" style="fill:#ccc"/><path d="M4 45v3.2C4 49.751 5.249 51 6.8 51h50.4c1.551 0 2.8-1.249 2.8-2.8V45Z" style="opacity:.2"/><path d="M4 44v3.2C4 48.751 5.249 50 6.8 50h50.4c1.551 0 2.8-1.249 2.8-2.8V44Z" style="fill:#e4e4e4"/><path d="M6.8 6A2.794 2.794 0 0 0 4 8.8V44h56V8.8C60 7.249 58.751 6 57.2 6Z" style="fill:#077063"/><path d="M49.828 19a2.1 2.1 0 0 0-1.613.848l-4.727 6.355A22.07 22.07 0 0 0 32.004 23c-4.21 0-8.14 1.174-11.488 3.207l-4.73-6.36a2.1 2.1 0 0 0-1.38-.824 2.1 2.1 0 0 0-1.558.391 2.1 2.1 0 0 0-.434 2.938l4.734 6.363c-3.957 3.58-6.607 8.566-7.144 14.168C9.903 45 12.137 45 12.137 45h39.672s2.299 0 2.187-2.223c-.56-5.56-3.201-10.513-7.137-14.07l4.727-6.352a2.1 2.1 0 0 0-.434-2.94A2.1 2.1 0 0 0 49.828 19" style="opacity:.1"/><path d="m19.68 27.6-5.58-7.5m30.22 7.5 5.58-7.5" style="fill:none;stroke:#30dd81;stroke-width:4.2;stroke-linecap:round"/><path d="M32.003 22c-11.489 0-20.93 8.727-22 19.884C9.903 44 12.137 44 12.137 44h39.671s2.3 0 2.188-2.224C52.876 30.67 43.456 22 32.003 22" style="fill:#30dd81"/><path d="M21 33a3 3 0 0 0-3 3 3 3 0 0 0 3 3 3 3 0 0 0 3-3 3 3 0 0 0-3-3m22 0a3 3 0 0 0-3 3 3 3 0 0 0 3 3 3 3 0 0 0 3-3 3 3 0 0 0-3-3" style="opacity:.2"/><path d="M21 32a3 3 0 0 1 3 3 3 3 0 0 1-3 3 3 3 0 0 1-3-3 3 3 0 0 1 3-3m22 0a3 3 0 0 1 3 3 3 3 0 0 1-3 3 3 3 0 0 1-3-3 3 3 0 0 1 3-3" style="fill:#fff"/><path d="M6.8 6C5.25 6 4 7.25 4 8.8v1C4 8.25 5.25 7 6.8 7h50.4C58.75 7 60 8.25 60 9.8v-1C60 7.25 58.75 6 57.2 6z" style="opacity:.1;fill:#fff"/></svg>