<svg xmlns="http://www.w3.org/2000/svg" width="64" height="64"><path d="M32 15c3.682 0 27 0 27 16.228v13.544C59 61 57.773 61 32 61c-4.91 0-27 0-27-16.228V31.228C5 15 28.318 15 32 15" style="opacity:.2"/><path d="m25 6 6.29 8.526M39 6l-5.769 8.526" style="fill:none;stroke:#37474f;stroke-width:2.13157892"/><ellipse cx="32" cy="15.5" rx="10" ry="3.5" style="fill:#37474f"/><circle cx="25" cy="7" r="3" style="opacity:.2"/><circle cx="25" cy="6" r="3" style="fill:#455a64"/><path d="M32 14c3.682 0 27 0 27 16.228v13.544C59 60 57.773 60 32 60c-4.91 0-27 0-27-16.228V30.228C5 14 28.318 14 32 14" style="fill:#455a64"/><circle cx="52.5" cy="53.5" r="3.5" style="opacity:.2"/><circle cx="52.5" cy="52.5" r="3.5" style="fill:#fff"/><path d="M29 20c2.727 0 20 0 20 11.995v10.01C49 54 32.636 54 29 54S9 54 9 42.005v-10.01C9 20 26.273 20 29 20" style="opacity:.3"/><path d="m29.058 28.1-6.295 19.74M42.758 28.1l-5.784 19.74" style="opacity:.5;fill:none;stroke:#26a69a;stroke-width:4.26315784;stroke-linecap:round"/><path d="m15.558 29.1 7.205 19.74" style="opacity:.2;fill:none;stroke:#000;stroke-width:4.26315784;stroke-linecap:round"/><path d="m15.558 28.1 7.205 19.74" style="fill:none;stroke:#26a69a;stroke-width:4.26315784;stroke-linecap:round"/><path d="m29.058 29.1 7.916 19.74" style="opacity:.2;fill:none;stroke:#000;stroke-width:4.26315784;stroke-linecap:round"/><path d="m29.058 28.1 7.916 19.74" style="fill:none;stroke:#26a69a;stroke-width:4.26315784;stroke-linecap:round"/><circle cx="39" cy="7" r="3" style="opacity:.2"/><circle cx="39" cy="6" r="3" style="fill:#455a64"/><path d="M25 3a3 3 0 0 0-3 3 3 3 0 0 0 .043.514A3 3 0 0 1 25 4a3 3 0 0 1 2.957 2.486A3 3 0 0 0 28 6a3 3 0 0 0-3-3m7 11c-3.682 0-27 0-27 16.229v1C5 15 28.318 15 32 15s27 0 27 16.229v-1C59 14 35.682 14 32 14m7-11a3 3 0 0 0-3 3 3 3 0 0 0 .043.514A3 3 0 0 1 39 4a3 3 0 0 1 2.957 2.486A3 3 0 0 0 42 6a3 3 0 0 0-3-3" style="opacity:.1;fill:#fff"/></svg>