<svg xmlns="http://www.w3.org/2000/svg" width="64" height="64"><circle cx="32" cy="32" r="27" style="opacity:.2"/><circle cx="32" cy="31" r="27" style="fill:#4f4f4f"/><path d="m30.6 33 2.4 2.7v17.95L36 62l3-8.35V35.7l2.4-2.7h-8.1z" style="opacity:.2"/><path d="M24.917 16.572A17 17 0 0 0 15 32a17 17 0 0 0 17 17 17 17 0 0 0 17-17 17 17 0 0 0-9.917-15.417v.332a14.17 14.17 0 0 1 7.084 12.252A14.167 14.167 0 0 1 32 43.333a14.167 14.167 0 0 1-14.167-14.166 14.17 14.17 0 0 1 7.084-12.247Z" style="opacity:.2"/><path d="M24.917 15.572A17 17 0 0 0 15 31a17 17 0 0 0 17 17 17 17 0 0 0 17-17 17 17 0 0 0-9.917-15.417v.332a14.17 14.17 0 0 1 7.084 12.252A14.167 14.167 0 0 1 32 42.333a14.167 14.167 0 0 1-14.167-14.166 14.17 14.17 0 0 1 7.084-12.247Z" style="fill:#86c14d"/><path d="M24.916 15.572A17 17 0 0 0 15 31l.016.31a17 17 0 0 1 6.564-12.693 14.2 14.2 0 0 1 3.336-2.697zm14.168.01v.332a14.2 14.2 0 0 1 3.385 2.732 17 17 0 0 1 6.51 12.946A17 17 0 0 0 49 31a17 17 0 0 0-9.916-15.418m7.064 12.922A14.167 14.167 0 0 1 32 42.334 14.167 14.167 0 0 1 17.855 28.76a14 14 0 0 0-.021.406A14.167 14.167 0 0 0 32 43.334a14.167 14.167 0 0 0 14.166-14.168 14 14 0 0 0-.018-.662" style="opacity:.2;fill:#fff"/><path d="M32 4A27 27 0 0 0 5 31a27 27 0 0 0 .018.498A27 27 0 0 1 32 5a27 27 0 0 1 26.975 26.486A27 27 0 0 0 59 31 27 27 0 0 0 32 4" style="opacity:.1;fill:#fff"/><path d="m22.6 33 2.4 2.7v17.95L28 62l3-8.35V35.7l2.4-2.7h-8.1z" style="opacity:.2"/><path d="m22.6 32 2.4 2.7v17.95L28 61l3-8.35V34.7l2.4-2.7h-8.1z" style="fill:#86c14d"/><path d="m30.6 32 2.4 2.7v17.95L36 61l3-8.35V34.7l2.4-2.7h-8.1z" style="fill:#86c14d"/><path d="m22.6 32 .888 1h9.024l.888-1z" style="opacity:.2;fill:#fff"/><path d="m30.6 32 .888 1h9.024l.888-1z" style="opacity:.2;fill:#fff"/></svg>