<svg xmlns="http://www.w3.org/2000/svg" width="64" height="64"><ellipse cx="31.461" cy="30.587" rx="23.257" ry="22.694" style="fill:#005e76"/><path d="M31.805 5c-8.539 0-15.32 2.505-20.346 7.46C6.487 17.416 4 23.53 4 31.823q0 12.364 7.539 19.871 7.62 7.433 20.024 7.432 7.864 0 14.269-3.238c4.432 3.042 7.936 4.767 11.882 5.994l2.27-4.447c-3.243-1.129-5.884-2.748-9.289-4.858C56.586 47.474 60 40.557 60 31.823c0-8.489-2.927-14.654-7.846-19.512C47.236 7.453 40.453 5 31.805 5m.235 7c6.188 0 11.015 1.735 14.483 5.494C50.043 21.206 52 25.646 52 31.834c0 7.09-2.517 12.564-7.158 16.419q-4.4-3.213-10.721-4.927l-1.92 4.64c2.453.523 4.935 1.761 7.442 3.141-1.867.81-4.402.927-7.603.927-6.242 0-11.122-1.544-14.643-5.208C13.93 43.114 12 38.116 12 31.833c0-6.425 1.956-10.935 5.477-14.552S25.852 12 32.04 12" style="opacity:.2"/><path d="M31.805 4c-8.539 0-15.32 2.505-20.346 7.46C6.487 16.416 4 22.53 4 30.823q0 12.364 7.539 19.871 7.62 7.433 20.024 7.432 7.864 0 14.269-3.238c4.432 3.042 7.936 4.767 11.882 5.994l2.27-4.447c-3.243-1.129-5.884-2.748-9.289-4.858C56.586 46.474 60 39.557 60 30.823c0-8.489-2.927-14.654-7.846-19.512C47.236 6.453 40.453 4 31.805 4m.235 7c6.188 0 11.015 1.735 14.483 5.494C50.043 20.206 52 24.646 52 30.834c0 7.09-2.517 12.564-7.158 16.419q-4.4-3.213-10.721-4.927l-1.92 4.64c2.453.523 4.935 1.761 7.442 3.141-1.867.81-4.402.927-7.603.927-6.242 0-11.122-1.544-14.643-5.208C13.93 42.114 12 37.116 12 30.833c0-6.425 1.956-10.935 5.477-14.552S25.852 11 32.04 11" style="fill:#66d5ff"/><path d="M31.46 23.657q-2.544 0-3.696.849-1.113.811-1.75 2.804l-3.338-.443Q23.987 21 31.937 21q4.373 0 6.161 1.513 1.829 1.476 1.829 5.72v8.413q0 2.03 1.073 3.911h-3.617q-.517-1.033-.676-2.361Q33.09 41 29.075 41q-3.1 0-5.088-1.44Q22 38.086 22 35.54q0-2.952 2.981-4.724 1.272-.774 5.486-1.328 4.213-.59 5.922-1.144v-.812q0-3.874-4.929-3.874m-1.51 14.686q6.44 0 6.44-6.2V31q-1.313.517-4.373.96-3.021.405-4.77 1.143-1.71.701-1.71 2.325 0 2.915 4.413 2.915" style="opacity:.2"/><path d="M31.46 22.657q-2.544 0-3.696.849-1.113.811-1.75 2.804l-3.338-.443Q23.987 20 31.937 20q4.373 0 6.161 1.513 1.829 1.476 1.829 5.72v8.413q0 2.03 1.073 3.911h-3.617q-.517-1.033-.676-2.361Q33.09 40 29.075 40q-3.1 0-5.088-1.44Q22 37.086 22 34.54q0-2.952 2.981-4.724 1.272-.774 5.486-1.328 4.213-.59 5.922-1.144v-.812q0-3.874-4.929-3.874m-1.51 14.686q6.44 0 6.44-6.2V30q-1.313.517-4.373.96-3.021.405-4.77 1.143-1.71.701-1.71 2.325 0 2.915 4.413 2.915" style="fill:#66d5ff"/><path d="M31.938 20q-7.95 0-9.262 5.867l.281.037C24.105 22.638 27.095 21 31.937 21q4.372 0 6.16 1.512 1.83 1.477 1.829 5.722v-1q0-4.245-1.828-5.722-1.79-1.513-6.16-1.512m4.304 7.379c-1.154.358-3.057.728-5.777 1.11q-4.214.552-5.485 1.327Q22 31.587 22 34.54q0 .281.03.547c.143-1.756 1.12-3.182 2.95-4.27q1.272-.774 5.485-1.328c2.72-.38 4.623-.751 5.777-1.11q.114.45.137.97l.012-.004v-.813c0-.423-.06-.798-.149-1.152m.149 4.62c-.016.006-.047.01-.063.016-.297 3.536-2.408 5.328-6.379 5.328-2.339 0-3.732-.627-4.21-1.856-.12.286-.2.592-.2.942 0 .186.026.356.053.525a2.7 2.7 0 0 1 .146-.467c.48 1.23 1.872 1.856 4.211 1.856 3.971 0 6.082-1.792 6.38-5.328.015-.006.046-.01.062-.016zm3.535 3.645v1c0 .997.199 1.97.588 2.914H41q-1.073-1.883-1.074-3.914" style="opacity:.2;fill:#fff"/><path d="M31.805 4c-8.54 0-15.32 2.505-20.346 7.46C6.487 16.418 4 22.53 4 30.823c0 .169.008.333.01.5.1-8.036 2.578-14.007 7.449-18.861C16.485 7.505 23.265 5 31.805 5c8.647 0 15.431 2.453 20.35 7.31 4.813 4.755 7.712 10.768 7.833 18.98.002-.157.012-.31.012-.468 0-8.488-2.928-14.654-7.846-19.511C47.236 6.453 40.452 4 31.804 4M12.02 31.336c-.003.17-.02.326-.02.498 0 6.282 1.929 11.28 5.396 14.992 3.521 3.665 8.402 5.207 14.643 5.207 3.2 0 5.736-.117 7.604-.926-.386-.212-.769-.412-1.153-.615-1.716.458-3.862.541-6.45.541-6.242 0-11.123-1.542-14.644-5.207-3.372-3.61-5.274-8.448-5.376-14.49m39.966.144c-.15 6.776-2.646 12.036-7.144 15.772q-4.4-3.213-10.72-4.926l-1.923 4.64c.125.027.25.064.375.095l1.547-3.735q6.32 1.713 10.72 4.926C49.484 44.397 52 38.925 52 31.834c0-.122-.012-.233-.014-.354m-.634 20.499c-.218.2-.432.402-.657.597 3.252 2.015 5.813 3.58 8.862 4.7l.427-.84c-3.024-1.053-5.548-2.552-8.632-4.457" style="fill:#fff;opacity:.2"/></svg>