<svg xmlns="http://www.w3.org/2000/svg" width="64" height="64"><rect width="56" height="56" x="4" y="5" rx="2.8" ry="2.8" style="opacity:.2"/><rect width="56" height="56" x="4" y="4" rx="2.8" ry="2.8" style="fill:#e4e4e4"/><g style="opacity:.1"><path d="M35 37v4l1.296-1.407 7.111 7.111L42 48h4v-4l-1.296 1.407-7.111-7.111L39 37Zm-7 14 3-3v2h15v2H31v2Zm9-36 3-3v2h6v2h-6v2Zm-5 13-3-3h2v-6h2v6h2Zm-13 5 3-3v2h6v2h-6v2Zm31-13 3 3h-2v24h-2V23h-2Z"/><path d="M32 10a5 5 0 0 0-5 5 5 5 0 0 0 5 5 5 5 0 0 0 5-5 5 5 0 0 0-5-5m18 0a5 5 0 0 0-5 5 5 5 0 0 0 5 5 5 5 0 0 0 5-5 5 5 0 0 0-5-5M14 28a5 5 0 0 0-5 5 5 5 0 0 0 5 5 5 5 0 0 0 5-5 5 5 0 0 0-5-5m18 0a5 5 0 0 0-5 5 5 5 0 0 0 5 5 5 5 0 0 0 5-5 5 5 0 0 0-5-5m-9 18a5 5 0 0 0-5 5 5 5 0 0 0 5 5 5 5 0 0 0 5-5 5 5 0 0 0-5-5m27 0a5 5 0 0 0-5 5 5 5 0 0 0 5 5 5 5 0 0 0 5-5 5 5 0 0 0-5-5"/></g><path d="M35 36v4l1.296-1.407 7.111 7.111L42 47h4v-4l-1.296 1.407-7.111-7.111L39 36Zm-7 14 3-3v2h15v2H31v2Zm9-36 3-3v2h6v2h-6v2Zm-5 13-3-3h2v-6h2v6h2Zm-13 5 3-3v2h6v2h-6v2Zm31-13 3 3h-2v24h-2V22h-2Z" style="fill:#999"/><circle cx="32" cy="32" r="5" style="fill:#c162c9"/><circle cx="14" cy="32" r="5" style="fill:#009688"/><circle cx="32" cy="14" r="5" style="fill:#03a9f4"/><circle cx="50" cy="14" r="5" style="fill:#ffc107"/><circle cx="23" cy="50" r="5" style="fill:#f4f4f4"/><circle cx="50" cy="50" r="5" style="fill:#fa3e30"/><path d="M32 9a5 5 0 0 0-5 5 5 5 0 0 0 .078.5A5 5 0 0 1 32 10a5 5 0 0 1 4.949 4.326A5 5 0 0 0 37 14a5 5 0 0 0-5-5m18 0a5 5 0 0 0-5 5 5 5 0 0 0 .078.5A5 5 0 0 1 50 10a5 5 0 0 1 4.949 4.326A5 5 0 0 0 55 14a5 5 0 0 0-5-5M14 27a5 5 0 0 0-5 5 5 5 0 0 0 .078.5A5 5 0 0 1 14 28a5 5 0 0 1 4.949 4.326A5 5 0 0 0 19 32a5 5 0 0 0-5-5m18 0a5 5 0 0 0-5 5 5 5 0 0 0 .078.5A5 5 0 0 1 32 28a5 5 0 0 1 4.949 4.326A5 5 0 0 0 37 32a5 5 0 0 0-5-5m-9 18a5 5 0 0 0-5 5 5 5 0 0 0 .078.5A5 5 0 0 1 23 46a5 5 0 0 1 4.949 4.326A5 5 0 0 0 28 50a5 5 0 0 0-5-5m27 0a5 5 0 0 0-5 5 5 5 0 0 0 .078.5A5 5 0 0 1 50 46a5 5 0 0 1 4.949 4.326A5 5 0 0 0 55 50a5 5 0 0 0-5-5M6.8 4C5.25 4 4 5.25 4 6.8v1C4 6.25 5.25 5 6.8 5h50.4A2.796 2.796 0 0 1 60 7.8v-1C60 5.25 58.75 4 57.199 4z" style="fill:#fff;opacity:.2"/></svg>