<svg xmlns="http://www.w3.org/2000/svg" width="64" height="64"><path d="M53.952 6.03c-7.165-.378-13.635 2.95-18.016 7.915-3.062 3.293-5.12 6.864-6.767 10.329-3.824-3.938-8.781-6.764-14.664-7.217a6 6 0 0 0-.864-.004c.899-.06-.828-.19-2.82-.008-.997.092-2.44.056-4.44 1.746-.999.845-1.968 2.34-2.258 3.846-.289 1.507-.022 2.799.313 3.741a6 6 0 0 0 1.852 2.632c.346.284 1.19 1.476 2.395 3.386 1.201 1.905 2.925 4.652 6.314 6.47 2.134 1.157 4.42 1.27 6.639.93-.24 2.272-.503 4.553-1.258 7.065l.207-.578c-.778 1.867-1.278 3.875-.786 6.548.49 2.664 3.352 6.246 6.838 6.912 1.82.377 4.445.581 7.154-1.179l.074-.047c2.95-1.977 3.901-5.746 3.9-7.76-.002-2.013-.27-3.311-.27-3.33a6 6 0 0 0-.012-.277c-.252-4.073.415-7.978 1.927-11.153.644-.06.63-.003 1.39-.118 2.57-.386 5.733-.916 8.929-3.3 4.876-3.107 6.662-7.926 7.668-11.723.57-3.073 2.105-3.909 2.545-7.06.342-2.259-.9-4.753-1.871-5.818a6 6 0 0 0-4.119-1.949m-28.46 41.584c.002.118.012.08.016.192.001.027-.006.058-.004.085z" style="opacity:.2"/><path d="M53.952 5.03c-7.165-.378-13.635 2.95-18.016 7.915-3.062 3.293-5.12 6.864-6.767 10.329-3.824-3.938-8.781-6.764-14.664-7.217a6 6 0 0 0-.864-.004c.899-.06-.828-.19-2.82-.008-.997.092-2.44.056-4.44 1.746-.999.845-1.968 2.34-2.258 3.846-.289 1.507-.022 2.799.313 3.741a6 6 0 0 0 1.852 2.632c.346.284 1.19 1.476 2.395 3.386 1.201 1.905 2.925 4.652 6.314 6.47 2.134 1.157 4.42 1.27 6.639.93-.24 2.272-.503 4.553-1.258 7.065l.207-.578c-.778 1.867-1.278 3.875-.786 6.548.49 2.664 3.352 6.246 6.838 6.912 1.82.377 4.445.582 7.154-1.179l.074-.047c2.95-1.977 3.901-5.746 3.9-7.76-.002-2.013-.27-3.311-.27-3.33a6 6 0 0 0-.012-.277c-.252-4.073.415-7.978 1.927-11.153.644-.06.63-.003 1.39-.118 2.57-.386 5.733-.916 8.929-3.3 4.876-3.107 6.662-7.926 7.668-11.723.57-3.073 2.105-3.909 2.545-7.06.342-2.259-.9-4.753-1.871-5.818a6 6 0 0 0-4.119-1.949m-28.46 41.584c.002.118.012.08.016.192.001.027-.006.058-.004.085z" style="fill:#e4e4e4"/><path d="M27.752 53.879c-2.53-.467-2.409-3.423-1.636-5.28 1.098-3.65 1.96-7.443 1.946-11.266-.128-1.967-1.276-5.41-2.645-6.107-2.046 2.71-5.048 3.756-7.577 2.374-3.615-1.929-4.695-6.72-7.752-9.225-.678-1.908 2.768-1.253 3.951-1.333 7.473.575 13.973 6.948 15.978 14.045 3.255-6.461 5.29-13.71 10.347-19.12 3.29-3.762 8.185-6.214 13.259-5.947 1.254 1.375-.983 1.619-1.41 4.725-.987 4.035-2.044 8.657-5.9 10.965-3.22 2.53-10.42 2.592-10.42 2.592s-.867-.187-1.38 1.768c-2.628 4.657-3.354 10.192-3.028 15.462.03 1.955 1.01 4.686-.974 6.017-.81.527-1.844.527-2.759.33" style="opacity:.1"/><path d="M27.752 52.879c-2.53-.467-2.409-3.423-1.636-5.28 1.098-3.65 1.96-7.443 1.946-11.266-.128-1.967-1.276-5.41-2.645-6.107-2.046 2.71-5.048 3.756-7.577 2.374-3.615-1.929-4.695-6.72-7.752-9.225-.678-1.908 2.768-1.253 3.951-1.333 7.473.575 13.973 6.948 15.978 14.045 3.255-6.461 5.29-13.71 10.347-19.12 3.29-3.762 8.185-6.214 13.259-5.947 1.254 1.375-.983 1.619-1.41 4.725-.987 4.035-2.044 8.657-5.9 10.965-3.22 2.53-10.42 2.592-10.42 2.592s-.867-.187-1.38 1.768c-2.628 4.657-3.354 10.192-3.028 15.462.03 1.955 1.01 4.686-.974 6.017-.81.527-1.844.527-2.759.33" style="fill:#37b245"/><path d="M52.674 11.001c-4.73.063-9.226 2.44-12.31 5.966-3.245 3.472-5.244 7.7-7.121 11.991 3.37.735 6.774.204 11.65-3.667 2.02-1.603 3.751-4.215 5.094-7.155.433-.949 1.723-2.63 2.763-4.16.252-.506.537-.887.773-1.208.191-.323.353-.625.469-.894.03-.256-.067-.522-.37-.854a14 14 0 0 0-.948-.019M12.09 21.996c-1.239-.004-2.426.186-2.002 1.38.448.367.85.777 1.228 1.211 1.989 1.27 4.373 2.73 6.22 3.706 1.777.935 3.578 1.734 5.817 2.04 0 0 2.538.317 4.186.139-3.042-4.499-8.004-8.007-13.5-8.43-.443.03-1.205-.043-1.949-.046m15.92 13.903c.018.146.044.296.053.434.015 3.823-.848 7.617-1.946 11.267-.772 1.856-.894 4.812 1.636 5.279.164.035.335.054.504.075 1.673-2.502 1.115-5.593 1.093-8.39-.025-3.258-.52-6.26-1.34-8.665" style="fill:#00ed1a"/><path d="M52.613 5.016c-6.63.073-12.572 3.291-16.68 7.945-3.061 3.293-5.118 6.864-6.765 10.328-3.824-3.937-8.781-6.766-14.664-7.219a6 6 0 0 0-.863-.004c.898-.06-.832-.19-2.825-.007-.996.09-2.438.056-4.437 1.746-1 .844-1.969 2.34-2.258 3.847a6.7 6.7 0 0 0-.098 1.793c.018-.257.046-.519.098-.793.29-1.506 1.258-3.003 2.258-3.847 1.999-1.69 3.441-1.655 4.437-1.746 1.993-.183 3.723-.053 2.825.007q.432-.029.863.004c5.883.453 10.84 3.282 14.664 7.22 1.647-3.465 3.704-7.036 6.766-10.33 4.107-4.653 10.048-7.871 16.68-7.944q.662-.008 1.335.027a6 6 0 0 1 4.117 1.95c.786.86 1.736 2.66 1.895 4.51.193-2.173-.967-4.494-1.895-5.51a6 6 0 0 0-4.117-1.95 21 21 0 0 0-1.336-.027m-30.98 35.793q-.117.017-.235.03c-.201 1.571-.48 3.176-.984 4.888-.525 1.357-.877 2.811-.797 4.548.066-1.309.376-2.46.797-3.548.503-1.712.783-3.317.984-4.887l.122-.016q.058-.508.113-1.015m15.824 4.66a30 30 0 0 0-.01 1.666c.004-.222.001-.446.01-.666.008.231.01.462.023.695q.009.139.012.277c0 .017.2 1.071.25 2.698.007-.123.02-.255.02-.366-.002-2.013-.27-3.313-.27-3.332a6 6 0 0 0-.012-.277c-.014-.233-.015-.464-.023-.695m-11.969 3.16.012.277c-.002-.027.006-.058.004-.086-.003-.11-.014-.074-.016-.191" style="opacity:.2;fill:#fff"/></svg>