<svg xmlns="http://www.w3.org/2000/svg" width="64" height="64"><rect width="56" height="48" x="4" y="9" rx="5.6" style="opacity:.2"/><rect width="56" height="48" x="4" y="8" rx="5.6" style="fill:#0093d9"/><path d="M10 20v4.447C10 27.524 12.31 30 15.182 30H18v-4h-2.818C14.457 26 14 25.224 14 24.447V20Zm40 0v4.447c0 .777-.457 1.553-1.182 1.553H46v4h2.818C51.69 30 54 27.524 54 24.447V20Zm-23.656 1C23.382 21 21 23.399 21 26.38V39h22V26.381C43 23.399 40.618 21 37.656 21Zm-.102 4h11.516c.76 0 1.242.49 1.242 1.268V35H25v-8.732c0-.777.481-1.268 1.242-1.268M15 42v4h34v-4z" style="opacity:.2"/><path d="M10 19v4.447C10 26.524 12.31 29 15.182 29H18v-4h-2.818C14.457 25 14 24.224 14 23.447V19zm40 0v4.447c0 .777-.457 1.553-1.182 1.553H46v4h2.818C51.69 29 54 26.524 54 23.447V19zm-23.656 1C23.382 20 21 22.399 21 25.38V38h22V25.381C43 22.399 40.618 20 37.656 20zm-.102 4h11.516c.76 0 1.242.49 1.242 1.268V34H25v-8.732c0-.777.481-1.268 1.242-1.268M15 41v4h34v-4z" style="fill:#fff"/><path d="M9.6 8A5.587 5.587 0 0 0 4 13.6v1C4 11.497 6.497 9 9.6 9h44.8c3.103 0 5.6 2.497 5.6 5.6v-1c0-3.103-2.497-5.6-5.6-5.6z" style="fill:#fff;opacity:.2"/></svg>