<svg xmlns="http://www.w3.org/2000/svg" width="64" height="64"><path d="M32 4A28 28 0 0 0 4 32a28 28 0 0 0 28 28 28 28 0 0 0 28-28A28 28 0 0 0 32 4" style="fill:#4f4f4f"/><path d="M31.998 4A28 28 0 0 0 4 32l.021.406A28 28 0 0 1 31.998 5H32a28 28 0 0 1 27.977 27.586 28 28 0 0 0 .021-.586A28 28 0 0 0 32 4z" style="opacity:.1;fill:#fff"/><path d="M4.021 32.422A28 28 0 0 0 4 33a28 28 0 0 0 28 28 28 28 0 0 0 28-28l-.021-.406A28 28 0 0 1 32 60 28 28 0 0 1 4.021 32.422" style="opacity:.2"/><path d="M38 47.397C38 49.345 35.294 55 32 55c-4.113 0-10-4.482-10-7.42S25.887 43 30 43s8 2.317 8 4.397m10-15.375A4 2.978 0 0 1 44 35a4 2.978 0 0 1-4-2.978 4 2.978 0 0 1 4-2.979 4 2.978 0 0 1 4 2.979m4.255-18.353S37.31 26.499 21.235 27c-4.408.137-7.63-.968-9.797-2-2.166-1.032-4.908-3.63-4.908-3.63l-.855 2.09s1.465 1.381 2.17 1.889C8.417 28.4 10.688 37 20 37c7.884 0 10.87-6.42 11.717-9.642 11.683-3.33 21.955-12.086 21.955-12.086z" style="opacity:.1"/><path d="M38 46.397C38 48.345 35.294 54 32 54c-4.113 0-10-4.482-10-7.42S25.887 42 30 42s8 2.317 8 4.397m10-15.375C48 32.667 46.21 34 44 34s-4-1.333-4-2.978 1.79-2.979 4-2.979 4 1.334 4 2.979m3.705-17.894S37.009 25.219 20.935 25.72c-4.409.137-7.631-.968-9.798-2s-4.255-3.063-4.255-3.063l-.893 2.017s.85.887 1.556 1.394C8.115 27.122 10.687 36 20 36c7.884 0 10.87-6.42 11.717-9.642C43.4 23.028 53.12 14.65 53.12 14.65Z" style="fill:#e6e6e6"/></svg>