<svg xmlns="http://www.w3.org/2000/svg" width="64" height="64"><path d="m54 5 6 6v32c0 1.108-.892 2-2 2H30c-1.108 0-2-.892-2-2V7c0-1.108.892-2 2-2z" style="opacity:.2"/><path d="m54 4 6 6v32c0 1.108-.892 2-2 2H30c-1.108 0-2-.892-2-2V6c0-1.108.892-2 2-2z" style="fill:#c2352a"/><rect width="24" height="16" x="-56" y="-39" rx="2" ry="2" style="opacity:.4" transform="scale(-1)"/><path d="M45 8h-2v6h2zm-3 0h-2v6h2zm-3 0h-2v6h2zm-3 0h-2v6h2zm-3 0h-2v6h2zm24 3h-2v3h2zm-6-3h-2v6h2zm-3 0h-2v6h2zm6 0h-2v6h2z" style="opacity:.2"/><path d="M45 7h-2v6h2zm-3 0h-2v6h2zm-3 0h-2v6h2zm-3 0h-2v6h2zm-3 0h-2v6h2zm24 3h-2v3h2zm-6-3h-2v6h2zm-3 0h-2v6h2zm6 0h-2v6h2z" style="fill:#f8c44e"/><path d="m54 4 6 6v1l-6-6H30c-1.108 0-2 .892-2 2V6c0-1.108.892-2 2-2z" style="opacity:.1;fill:#fff"/><path d="m30 21 6 6v32c0 1.108-.892 2-2 2H6c-1.108 0-2-.892-2-2V23c0-1.108.892-2 2-2z" style="opacity:.2"/><path d="m30 20 6 6v32c0 1.108-.892 2-2 2H6c-1.108 0-2-.892-2-2V22c0-1.108.892-2 2-2z" style="fill:#1778ba"/><rect width="24" height="16" x="-32" y="-55" rx="2" ry="2" style="opacity:.4" transform="scale(-1)"/><path d="M21 24h-2v6h2zm-3 0h-2v6h2zm-3 0h-2v6h2zm-3 0h-2v6h2zm-3 0H7v6h2zm24 3h-2v3h2zm-6-3h-2v6h2zm-3 0h-2v6h2zm6 0h-2v6h2z" style="opacity:.2"/><path d="M21 23h-2v6h2zm-3 0h-2v6h2zm-3 0h-2v6h2zm-3 0h-2v6h2zm-3 0H7v6h2zm24 3h-2v3h2zm-6-3h-2v6h2zm-3 0h-2v6h2zm6 0h-2v6h2z" style="fill:#f8c44e"/><path d="m30 20 6 6v1l-6-6H6c-1.108 0-2 .892-2 2v-1c0-1.108.892-2 2-2z" style="opacity:.1;fill:#fff"/></svg>