<svg xmlns="http://www.w3.org/2000/svg" width="64" height="64"><circle cx="32.5" cy="32.5" r="28.5" style="opacity:.2"/><circle cx="32.5" cy="31.5" r="28.5" style="fill:#333e5b"/><path d="M19 18c-6.958 0-11.28 3.76-13.16 7.361C3.96 28.964 4 32.5 4 32.5h6s.04-2.214 1.16-4.361C12.28 25.99 13.958 24 19 24c2.042 0 3.84.933 5.852 2.795 2.01 1.862 4.031 4.59 6.086 7.453 2.054 2.863 4.14 5.859 6.636 8.303S43.204 47 47 47c6.545 0 10.621-3.878 12.332-7.455C61.042 35.968 61 32.5 61 32.5h-6s-.043 2.282-1.082 4.455S51.455 41 47 41c-1.705 0-3.321-.87-5.23-2.738-1.91-1.869-3.887-4.623-5.958-7.51-2.07-2.887-4.237-5.91-6.882-8.36C26.284 19.943 22.958 18 19 18m-.5 9a1.5 1.5 0 0 0-1.5 1.5V31h-2.5a1.5 1.5 0 0 0-1.5 1.5 1.5 1.5 0 0 0 1.5 1.5H17v2.5a1.5 1.5 0 0 0 1.5 1.5 1.5 1.5 0 0 0 1.5-1.5V34h2.5a1.5 1.5 0 0 0 1.5-1.5 1.5 1.5 0 0 0-1.5-1.5H20v-2.5a1.5 1.5 0 0 0-1.5-1.5m29 0a1.5 1.5 0 0 0-1.5 1.5v1a1.5 1.5 0 0 0 1.5 1.5 1.5 1.5 0 0 0 1.5-1.5v-1a1.5 1.5 0 0 0-1.5-1.5m-4 4a1.5 1.5 0 0 0-1.5 1.5 1.5 1.5 0 0 0 1.5 1.5h1a1.5 1.5 0 0 0 1.5-1.5 1.5 1.5 0 0 0-1.5-1.5Zm7 0a1.5 1.5 0 0 0-1.5 1.5 1.5 1.5 0 0 0 1.5 1.5h1a1.5 1.5 0 0 0 1.5-1.5 1.5 1.5 0 0 0-1.5-1.5Zm-3 3a1.5 1.5 0 0 0-1.5 1.5v1a1.5 1.5 0 0 0 1.5 1.5 1.5 1.5 0 0 0 1.5-1.5v-1a1.5 1.5 0 0 0-1.5-1.5" style="opacity:.2"/><path d="M14.5 31.5h8m21 0h1" style="fill:none;stroke:#26cbfc;stroke-width:3;stroke-linecap:round;stroke-linejoin:round"/><path d="M7 31.7S7 20 19 20s17 23 28 23 11-11.7 11-11.7" style="fill:none;stroke:#26cbfc;stroke-width:6"/><path d="M32.5 3A28.5 28.5 0 0 0 4 31.5a29 29 0 0 0 .021.582A28.5 28.5 0 0 1 32.5 4a28.5 28.5 0 0 1 28.479 27.918L61 31.5A28.5 28.5 0 0 0 32.5 3" style="opacity:.1;fill:#fff"/><path d="M47 23c-1.705 0-3.321.87-5.23 2.738-1.91 1.869-3.887 4.623-5.958 7.51-2.07 2.887-4.237 5.91-6.882 8.36C26.284 44.057 22.958 46 19 46c-6.958 0-11.28-3.76-13.16-7.361-1.278-2.45-1.662-4.842-1.781-6.139H4s-.04 3.536 1.84 7.139C7.72 43.24 12.042 47 19 47c3.958 0 7.284-1.942 9.93-4.393s4.812-5.472 6.882-8.359c2.071-2.887 4.048-5.641 5.958-7.51C43.679 24.87 45.295 24 47 24c4.455 0 5.879 1.872 6.918 4.045S55 31.5 55 31.5h5.947s.052.61 0 0H55s-.043-2.282-1.082-4.455S51.455 23 47 23" style="opacity:.2"/><path d="M7 31.3S7 43 19 43s17-23 28-23 11 11.7 11 11.7" style="fill:none;stroke:#26cbfc;stroke-width:6"/><path d="M50.5 31.5h1m-4-4v1m0 6v1m-29-8v8" style="fill:none;stroke:#26cbfc;stroke-width:3;stroke-linecap:round;stroke-linejoin:round"/></svg>