<svg xmlns="http://www.w3.org/2000/svg" width="64" height="64"><path d="M32 5a27.97 27.97 0 0 0-19.781 8.2l-.01.009-.01.01A27.97 27.97 0 0 0 4 33a27.97 27.97 0 0 0 8.2 19.781A27.97 27.97 0 0 0 32 61a27.97 27.97 0 0 0 19.781-8.2l.01-.009.01-.01A27.97 27.97 0 0 0 60 33a27.97 27.97 0 0 0-8.2-19.781A27.97 27.97 0 0 0 32 5m0 14a14 14 0 0 1 9.893 4.105A14 14 0 0 1 46 33a14 14 0 0 1-4.102 9.889l-.003.004-.006.005A14 14 0 0 1 32 47a14 14 0 0 1-9.889-4.102l-.004-.003-.005-.006A14 14 0 0 1 18 33a14 14 0 0 1 4.102-9.889l.003-.004.006-.005A14 14 0 0 1 32 19" style="opacity:.2"/><path d="M32 4a27.97 27.97 0 0 0-19.8 8.219l9.902 9.892A14 14 0 0 1 32 18z" style="fill:#e647ff"/><path d="M32 4v14a14 14 0 0 1 9.898 4.111l9.903-9.892A27.97 27.97 0 0 0 32 4" style="fill:#ff3636"/><path d="M12.219 12.2A27.97 27.97 0 0 0 4 32h14a14 14 0 0 1 4.111-9.898z" style="fill:#5964ff"/><path d="M4 32a27.97 27.97 0 0 0 8.219 19.8l9.892-9.902A14 14 0 0 1 18 32z" style="fill:#53bdff"/><path d="m51.781 12.2-9.892 9.902A14 14 0 0 1 46 32h14a27.97 27.97 0 0 0-8.219-19.8" style="fill:#ff7221"/><path d="M46 32a14 14 0 0 1-4.111 9.898l9.892 9.903A27.97 27.97 0 0 0 60 32z" style="fill:#ffac29"/><path d="m22.102 41.889-9.903 9.892A27.97 27.97 0 0 0 32 60V46a14 14 0 0 1-9.898-4.111" style="fill:#80ffe5"/><path d="M41.898 41.889A14 14 0 0 1 32 46v14a27.97 27.97 0 0 0 19.8-8.219z" style="fill:#73ff44"/><path d="M32 4a27.97 27.97 0 0 0-19.781 8.2q-.006.004-.01.009l-.01.01A27.97 27.97 0 0 0 4 32c0 .167.009.333.012.5a27.96 27.96 0 0 1 8.187-19.281l.01-.01.01-.01A27.97 27.97 0 0 1 32 5a27.97 27.97 0 0 1 19.8 8.219A27.96 27.96 0 0 1 59.989 32.5c.003-.167.012-.333.012-.5a27.97 27.97 0 0 0-8.2-19.781A27.97 27.97 0 0 0 32 4m13.977 28.469a14 14 0 0 1-4.079 9.42l-.003.004-.006.005A14 14 0 0 1 32 46a14 14 0 0 1-9.889-4.102l-.004-.003-.005-.006a14 14 0 0 1-4.079-9.35A14 14 0 0 0 18 33a14 14 0 0 0 4.102 9.889l.005.006.004.003A14 14 0 0 0 32 47a14 14 0 0 0 9.889-4.102l.006-.005.003-.004A14 14 0 0 0 46 33a14 14 0 0 0-.023-.531" style="fill:#fff;opacity:.2"/></svg>