<svg xmlns="http://www.w3.org/2000/svg" width="64" height="64"><path d="M31.96 5c-6.383-.018-12.556 3.36-15.8 9.332-1.545 2.845-2.188 5.921-2.11 8.945a20.2 20.2 0 0 1 5.821-.863l4.04-.004a8.2 8.2 0 0 1 .956-3.348c2.178-4.01 6.892-5.31 10.93-3.117 3.758 2.047 5.163 6.359 3.508 10.274l-3.711 6.883L38.828 37h6.047l2.965-5.469c4.718-8.687 1.45-19.577-7.297-24.328A18.05 18.05 0 0 0 31.96 5m-4.874 20-7.211.004c-9.871 0-17.875 8.061-17.875 18S10.004 61 19.875 61a17.7 17.7 0 0 0 9.98-3.066 19.6 19.6 0 0 1-4.191-5.086l-1.566-2.922a8.2 8.2 0 0 1-4.22 1.18c-4.556 0-7.944-3.518-7.944-8.106.005-4.273 3.119-7.56 7.343-7.973L27.086 35 30 30.277zm24.879 1.984a19.6 19.6 0 0 1-2.309 6.172l-1.746 2.817a8.2 8.2 0 0 1 3.133 3.066c2.278 3.946.927 8.64-3.047 10.934-3.703 2.132-8.108 1.076-10.578-2.375l-3.926-6.75-5.547-.164-3.117 5.164 3.613 6.242c4.936 8.549 15.917 11.45 24.524 6.48s11.584-15.927 6.648-24.476a17.7 17.7 0 0 0-7.648-7.11" style="opacity:.2"/><path d="m24.83 44.848 3.61 6.243c4.936 8.549 15.917 11.45 24.524 6.48s11.584-15.928 6.649-24.477a17.7 17.7 0 0 0-7.647-7.11 19.6 19.6 0 0 1-2.309 6.174l-1.748 2.814a8.2 8.2 0 0 1 3.135 3.066c2.278 3.946.925 8.64-3.048 10.934-3.704 2.132-8.11 1.078-10.58-2.374l-3.926-6.75-5.546-.163z" style="fill:#aee5ff"/><path d="m27.086 24-7.212.005C10.003 24.005 2 32.065 2 42.003 2 51.943 10.003 60 19.874 60c3.697 0 7.13-1.132 9.98-3.067a19.6 19.6 0 0 1-4.192-5.087l-1.563-2.92a8.2 8.2 0 0 1-4.222 1.18c-4.557 0-7.945-3.518-7.945-8.106.005-4.273 3.12-7.561 7.345-7.974L27.086 34 30 29.278z" style="fill:#2279ca"/><path d="M31.96 4c-6.383-.018-12.556 3.36-15.8 9.332-1.545 2.845-2.188 5.921-2.11 8.945a20.2 20.2 0 0 1 5.821-.863l4.04-.004a8.2 8.2 0 0 1 .956-3.348c2.178-4.01 6.892-5.31 10.93-3.117 3.758 2.047 5.163 6.359 3.508 10.274l-3.711 6.883L38.828 36h6.047l2.965-5.469c4.718-8.687 1.45-19.577-7.297-24.328A18.05 18.05 0 0 0 31.96 4" style="fill:#64cefe"/><path d="M31.96 4c-6.383-.018-12.556 3.36-15.8 9.332-1.545 2.845-2.188 5.921-2.11 8.945h.005c.073-2.699.73-5.413 2.105-7.945C19.404 8.36 25.577 4.982 31.96 5c2.903.008 5.85.719 8.583 2.203 5.856 3.18 9.232 9.116 9.422 15.297.165-6.535-3.25-12.945-9.422-16.297A18.05 18.05 0 0 0 31.961 4m7.954 18.79a8.6 8.6 0 0 1-.61 2.429l-3.71 6.883.326.394 3.385-6.277c.339-.802.52-1.618.61-2.43.027.2.03.406.042.61a8 8 0 0 0-.043-1.61m12.05 3.194a19.6 19.6 0 0 1-2.308 6.172l-1.746 2.817c.155.085.296.19.444.285l1.302-2.102a19.6 19.6 0 0 0 2.309-6.172c3.1 1.501 5.8 3.908 7.648 7.11a17.66 17.66 0 0 1 2.36 8.332 17.71 17.71 0 0 0-10.008-16.441m-24.019 13.7-3.117 5.164.295.51 2.822-4.674 5.547.164 3.926 6.75c2.47 3.451 6.875 4.507 10.578 2.375 2.362-1.364 3.769-3.58 4.066-5.977.028.196.025.39.038.586a7.7 7.7 0 0 0-.038-1.586c-.297 2.398-1.704 4.613-4.066 5.977-3.703 2.132-8.108 1.076-10.578-2.375l-3.926-6.75z" style="opacity:.2;fill:#fff"/><path d="m27.086 24-7.211.004c-9.871 0-17.875 8.061-17.875 18 0 .167.015.331.025.496.268-9.703 8.148-17.496 17.85-17.496l7.21-.004 2.624 4.75.291-.473zM12.023 42.996c-.04.332-.089.658-.09 1.004 0 .223.016.442.032.66.018-.222.032-.444.058-.664.458 4.084 3.64 7.11 7.856 7.11a8.2 8.2 0 0 0 4.219-1.18l1.566 2.922a19.5 19.5 0 0 0 3.545 4.478c.22-.123.438-.25.646-.392a19.6 19.6 0 0 1-4.19-5.086l-1.567-2.922a8.2 8.2 0 0 1-4.22 1.18c-4.215 0-7.397-3.026-7.855-7.11" style="opacity:.1;fill:#fff"/></svg>