<svg xmlns="http://www.w3.org/2000/svg" xmlns:xlink="http://www.w3.org/1999/xlink" width="64" height="64"><defs><radialGradient xlink:href="#a" id="c" cx="9.321" cy="50.255" r="26.691" fx="9.321" fy="50.255" gradientTransform="rotate(-30 -375.529 180.968)scale(4.29334)" gradientUnits="userSpaceOnUse"/><radialGradient xlink:href="#b" id="e" cx="37.929" cy="49.711" r="12.011" fx="37.929" fy="49.711" gradientTransform="rotate(-30 -602.48 489.618)scale(4.9099 9.09254)" gradientUnits="userSpaceOnUse"/><linearGradient id="b"><stop offset="0" style="stop-color:#46bd62;stop-opacity:1"/><stop offset="1" style="stop-color:#0f6;stop-opacity:1"/></linearGradient><linearGradient id="a"><stop offset="0" style="stop-color:#31d0ff;stop-opacity:1"/><stop offset="1" style="stop-color:#317aff;stop-opacity:1"/></linearGradient><filter id="d" width="1.436" height="1.236" x="-.218" y="-.118" style="color-interpolation-filters:sRGB"><feGaussianBlur stdDeviation="1.922"/></filter></defs><path d="M31.888 5.309A26.69 26.69 0 0 0 5.197 32a26.69 26.69 0 0 0 26.69 26.691A26.69 26.69 0 0 0 58.58 32 26.69 26.69 0 0 0 31.888 5.309m0 23.357A3.335 3.335 0 0 1 35.222 32a3.335 3.335 0 0 1-3.334 3.334A3.335 3.335 0 0 1 28.554 32a3.335 3.335 0 0 1 3.334-3.334" style="fill:url(#c);stroke-width:1.11213"/><path d="M32.605 5.318c-1.199-.03-2.391.048-3.576.177l2.287 21.213a5.3 5.3 0 0 1 3.242.67c.483.279.886.639 1.244 1.03L51.55 13.95a26.7 26.7 0 0 0-6.319-5.062 26.56 26.56 0 0 0-12.625-3.57M15.36 11.065a26.6 26.6 0 0 0-6.584 7.593 26.7 26.7 0 0 0-2.47 5.829l20.473 6.012c.117-.399.27-.793.487-1.169a5.3 5.3 0 0 1 1.32-1.513z" style="opacity:.3;fill:#fff;stroke-width:1.11213"/><path d="M31.888 23.103A8.897 8.897 0 0 0 22.99 32a8.897 8.897 0 0 0 8.897 8.897A8.897 8.897 0 0 0 40.785 32a8.897 8.897 0 0 0-8.897-8.897m0 5.565A3.33 3.33 0 0 1 35.22 32a3.33 3.33 0 0 1-3.332 3.332A3.33 3.33 0 0 1 28.556 32a3.33 3.33 0 0 1 3.332-3.332" style="fill:#fff;stroke-width:1.11213"/><path d="M31.797 27.553q-.539.014-1.058.152a4.44 4.44 0 0 0-2.709 2.066c-1.223 2.117-.486 4.863 1.632 6.086s4.861.486 6.084-1.631.484-4.86-1.634-6.082a4.4 4.4 0 0 0-2.315-.591m.139 2.7a1.748 1.748 0 1 1-.921 3.258 1.745 1.745 0 0 1 .92-3.258" style="fill:#5e5c64;stroke-width:1.11213"/><path d="M42.172 7.397 33.935 27.1c.21.087.421.161.623.278a5.3 5.3 0 0 1 2.202 2.477l19.522-8.607c-2.205-5.015-5.943-9.41-11.052-12.36a27 27 0 0 0-3.058-1.49" style="opacity:.3;fill:#fff;stroke-width:1.11213"/><path d="M40.645 12q-.032 0-.065.004a.635.635 0 0 0-.557.807c1.794 6.395 5.115 19.918 6.457 25.43A8 7 0 0 0 44.4 38a8 7 0 0 0-8 7 8 7 0 0 0 8 7 8 7 0 0 0 7.995-6.738 2.1 2.1 0 0 0-.036-1.162l-.054-.176a8 7 0 0 0-.389-1.324c-1.525-5.432-3.295-14.434-4.781-19.457 1.578.667 3.251 1.036 4.808 1.738 2.002.903 3.57 2.03 4.827 6.226.21.687 1.21.55 1.23-.168.002-.08-.03-.117-.03-.197h.003v-.004h-.002c.043-4.57-.907-6.86-2.864-8.586-1.992-1.756-4.568-2.56-7.097-3.81-2.347-1.16-5.057-3.66-6.88-6.088a.63.63 0 0 0-.485-.254Z" style="mix-blend-mode:normal;fill:none;stroke:#000;stroke-width:.2;stroke-dasharray:none;stroke-opacity:1;filter:url(#d)" transform="translate(-3.7 -3.588)scale(1.11213)"/><path d="M41.502 9.757q-.036 0-.072.005a.707.707 0 0 0-.619.897c1.995 7.113 5.688 22.151 7.181 28.281a8.897 7.785 0 0 0-2.313-.267 8.897 7.785 0 0 0-8.897 7.785 8.897 7.785 0 0 0 8.897 7.785 8.897 7.785 0 0 0 8.89-7.494 2.35 2.35 0 0 0-.039-1.293l-.06-.195a8.897 7.785 0 0 0-.433-1.473c-1.696-6.04-3.664-16.052-5.317-21.639 1.754.743 3.616 1.153 5.348 1.934 2.226 1.003 3.969 2.258 5.367 6.924.234.764 1.346.612 1.368-.186.002-.09-.033-.131-.032-.22h.002v-.004h-.002c.048-5.083-1.008-7.63-3.185-9.549-2.215-1.953-5.08-2.847-7.893-4.238-2.61-1.29-5.624-4.07-7.65-6.77a.7.7 0 0 0-.541-.283" style="fill:url(#e);fill-opacity:1;stroke-width:1.11213"/><path d="M32 8A24 24 0 0 0 8 32a24 24 0 0 0 24 24 24 24 0 0 0 13.34-4.049 8 7 0 0 1-.94.049 8 7 0 0 1-8-7 8 7 0 0 1 8-7 8 7 0 0 1 2.08.24c-1.342-5.511-4.663-19.034-6.457-25.43a.635.635 0 0 1 .557-.806q.032-.004.065-.004c.191.005.37.1.486.254 1.822 2.428 4.532 4.927 6.879 6.088 1.69.836 3.389 1.49 4.933 2.346.094.051.207.088.3.142A24 24 0 0 0 32 8Zm15.135 15.143c1.486 5.023 3.256 14.025 4.781 19.457a8 7 0 0 1 .389 1.324l.054.176q.074.233.092.459A24 24 0 0 0 56 32a24 24 0 0 0-.268-3.576v-.002a10 10 0 0 0-.404-.719l-.002-.002a8 8 0 0 0-.422-.613l-.002-.002c-.021-.028-.044-.05-.066-.078a7 7 0 0 0-.375-.442 6 6 0 0 0-.463-.443c-.63-.542-1.312-.907-2.055-1.242-1.557-.703-3.23-1.07-4.808-1.739zM32.043 30.43a1.571 1.571 0 1 1-.828 2.93 1.569 1.569 0 0 1 .828-2.93z" style="mix-blend-mode:normal;fill:none;stroke:#000;stroke-width:.2;stroke-dasharray:none;stroke-opacity:1;filter:url(#d)" transform="translate(-3.7 -3.588)scale(1.11213)"/></svg>