<svg xmlns="http://www.w3.org/2000/svg" width="64" height="64"><path d="m12.297 5-2 2H8a4 4.222 0 0 0-4 4.223V47a4 4 0 0 0 4 4h.324l3.973 4H18a4 4 0 0 0 7.453 2h22.29a.6.6 0 0 0 .257-.062v1.261h.008C48.143 59.764 49.879 61 52 61s3.857-1.236 3.992-2.8H56V57h2.98c.563 0 1.02-.895 1.02-2s-.457-2-1.02-2H56v-3.02c1.227-.732 2-1.795 2-2.98v-5.902c0-1.235-.771-2.34-2-3.098V22.031c1.113-.664 1.849-1.6 1.977-2.652l.023.023V13.18c0-1.235-.771-2.34-2-3.098V8.91c0-1.432-1.791-2.594-4-2.594s-4 1.162-4 2.594v1.176c-.75.463-1.335 1.059-1.672 1.73L39.258 5ZM38 13.98 44.008 19H46v.05c0 1.185.773 2.249 2 2.981v15.973c-.87.538-1.514 1.246-1.812 2.055L46 41h-1.992L38 46.281V17Zm8.473 34.579c.347.548.872 1.03 1.527 1.421v3.083a.6.6 0 0 0-.258-.063H41.5Z" style="opacity:.2"/><path d="M52 5.317c-2.209 0-4 1.16-4 2.593v4.666h8V7.91c0-1.432-1.791-2.593-4-2.593m0 0" style="fill:#e4e4e4"/><path d="M8 12h26a4 4 0 0 1 4 4v30a4 4 0 0 1-4 4H8a4 4 0 0 1-4-4V16a4 4 0 0 1 4-4m0 0" style="fill:#fb6a00"/><path fill="#5d5f74" d="m12.296 6.074-4.148 4.148v2.074h29.037L44.008 18h10.08l1.038-.519v-5.185h-8.607l-7.26-6.222zm31.111 35.26-6.222 6.222H8v2.114L12.296 54H39.26l7.223-6.444h9.007l1.037-1.037-1.037-1.038 1.037-4.148z"/><path fill="#7a8599" d="M12.296 4 8.148 8.148v2.074h29.037L44.008 16h10.08l1.038 1.481V11.96L54.089 11h-7.57l-7.26-7Zm31.712 36-6.823 6H8v1.556L12.296 52H39.26l6.823-6h8.987l1.037.519v-5.223L55.051 40z"/><path d="M52 8.032c-2.806 0-5.15 1.318-5.813 3.11H46L46.8 16 57 17.365l1 1.037V12.18c0-2.3-2.676-4.148-6-4.148" style="fill:#7a8599"/><path fill="#5d5f74" d="M52 14.05c3.315 0 6 1.791 6 4s-2.685 4-6 4-6-1.79-6-4 2.686-4 6-4m0 0"/><path d="M52 15.407c-2.209 0-4 1.16-4 2.593v23.333h8V18c0-1.432-1.791-2.593-4-2.593m0 0" style="fill:#e4e4e4"/><path d="M52.957 15.485c-2.068.287-3.945 1.283-4.957 3.034v2.074c1.488-2.572 4.402-3.862 7.914-3.128-.315-.973-1.474-1.743-2.957-1.98m1.281 4.058c-2.55-.002-5.02 1.017-6.238 3.124v2.074c1.5-2.593 4.449-3.885 8-3.111v-1.923a9.899 10.265 0 0 0-1.762-.164m0 4.149c-2.55-.002-5.02 1.016-6.238 3.123v2.074c1.5-2.593 4.449-3.885 8-3.111v-1.922a9.899 10.265 0 0 0-1.762-.164m0 4.148c-2.55-.002-5.02 1.016-6.238 3.123v2.074c1.5-2.593 4.449-3.885 8-3.111v-1.922a9.899 10.265 0 0 0-1.762-.164m0 4.148c-2.55-.002-5.02 1.016-6.238 3.123v2.074c1.5-2.592 4.449-3.885 8-3.11v-1.923a9.899 10.265 0 0 0-1.762-.164m0 4.148c-2.55-.002-5.02 1.017-6.238 3.123v2.074c1.5-2.592 4.449-3.884 8-3.11V36.3a9.899 10.265 0 0 0-1.762-.164" style="fill:#bcc3ca"/><path d="M52 35.948c-2.806 0-5.15 1.318-5.813 3.11L46 40l1.05 6.121H57L58 46v-5.904c0-2.3-2.676-4.148-6-4.148" style="fill:#7a8599"/><path fill="#5d5f74" d="M52 42c3.315 0 6 1.791 6 4s-2.685 4-6 4-6-1.791-6-4 2.686-4 6-4m0 0"/><path d="M55.418 52h3.564c.562 0 1.018.895 1.018 2s-.456 2-1.018 2h-3.564c-.562 0-1.018-.895-1.018-2s.456-2 1.018-2m0 0" style="fill:#e4e4e4"/><path d="M52 44.444c-2.209 0-4 1.16-4 2.593V57.2h8V47.037c0-1.432-1.791-2.593-4-2.593M26 54a4 4 0 1 1-8 0 4 4 0 0 1 8 0m0 0" style="fill:#e4e4e4"/><path d="M24.658 52h23.084c.585 0 1.058.895 1.058 2s-.473 2-1.058 2H24.658c-.584 0-1.058-.895-1.058-2s.474-2 1.058-2" style="fill:#e4e4e4"/><path d="M48 57c0-1.657 1.791-3 4-3s4 1.343 4 3-1.791 3-4 3-4-1.343-4-3m4-12.556c-1.41 0-2.647.474-3.36 1.187a6 6 0 0 0-.365.46 1.8 1.8 0 0 0-.275.946v1.556c1.354-2.341 3.89-3.621 6.983-3.279-.732-.532-1.796-.87-2.983-.87" style="fill:#bcc3ca"/><path d="M12.297 4 8.148 8.148v1L12.297 5H39.26l7.07 6.818c.811-1.624 3.036-2.787 5.67-2.787 3.324 0 6 1.85 6 4.149v-1c0-2.3-2.676-4.149-6-4.149-2.634 0-4.859 1.163-5.67 2.787L39.26 4zM52 35.947c-2.806 0-5.15 1.32-5.812 3.112L46 40h-1.992l-6.822 6H8v1h29.186l6.822-6H46l.188-.941c.662-1.793 3.005-3.112 5.812-3.112 3.324 0 6 1.85 6 4.149v-1c0-2.3-2.676-4.149-6-4.149" style="fill:#fff;opacity:.2"/><path d="M8 6h26a4 4.222 0 0 1 4 4.222v29.556A4 4.222 0 0 1 34 44H8a4 4.222 0 0 1-4-4.222V10.222A4 4.222 0 0 1 8 6m0 0" style="fill:#ffab39"/><path d="M17.576 14.015c-1.5.01-2.93.819-3.586 2.248-.338.736-.314 1.51-.14 2.247-.778-.182-1.597-.289-2.388.005-1.04.38-1.922 1.18-2.302 2.154-.38.977-.281 2.007.106 2.849.301.656.951 1.094 1.6 1.493-.642.398-1.285.834-1.584 1.485-.386.84-.487 1.863-.111 2.836s1.251 1.777 2.286 2.162c.792.295 1.613.188 2.393.006-.175.738-.197 1.51.142 2.246.896 1.95 3.128 2.707 5.059 1.985.849-.316 1.449-1.021 1.885-1.79.437.768 1.035 1.474 1.883 1.79 1.933.723 4.167-.035 5.061-1.988.338-.735.312-1.507.137-2.243.782.183 1.605.29 2.4-.006l.01-.003.01-.005c1.02-.394 1.88-1.2 2.246-2.167s.265-1.984-.118-2.818c-.29-.631-.918-1.047-1.533-1.443.209-.127.473-.162.653-.324 1.058-.95 1.596-2.723.903-4.231-.85-1.852-2.823-2.427-4.568-2.007.17-.734.196-1.501-.14-2.233v-.003h-.003c-.473-1.027-1.395-1.78-2.34-2.074a4.15 4.15 0 0 0-2.718.092c-.787.293-1.497.866-1.99 1.688-.44-.708-.975-1.39-1.773-1.688h-.003a4.1 4.1 0 0 0-1.474-.264zm11.445 13.737c-.058.022-.107-.071-.035.087l-.008-.018c.015-.016.09-.087.021-.06z" style="fill:#c64600"/><path d="M17.941 18c-.675.005-1.315.366-1.59.965-.368.797.054 1.71.94 2.041l1.358 2.954-3.28-1.224c-.368-.796-1.383-1.176-2.267-.845-.886.33-1.306 1.243-.94 2.041.368.797 1.382 1.175 2.266.845l3.282 1.224-3.282 1.222c-.885-.33-1.898.049-2.266.846-.366.797.054 1.71.94 2.042.884.33 1.899-.05 2.267-.847l3.28-1.224-1.359 2.956c-.885.33-1.307 1.242-.939 2.039.367.798 1.382 1.176 2.267.845s1.305-1.243.939-2.041l1.359-2.952 1.359 2.952c-.367.798.053 1.711.939 2.04.885.332 1.9-.046 2.266-.844s-.053-1.71-.939-2.04l-1.359-2.955 3.282 1.224c.367.798 1.38 1.176 2.267.847.885-.332 1.305-1.245.939-2.042-.367-.798-1.382-1.176-2.269-.846L24.121 26l3.28-1.224c.887.33 1.902-.049 2.269-.845.366-.798-.054-1.711-.94-2.04-.886-.332-1.9.048-2.266.844l-3.282 1.224 1.36-2.954c.884-.331 1.304-1.244.938-2.04-.366-.8-1.381-1.176-2.266-.846s-1.306 1.242-.94 2.04l-1.358 2.955-1.36-2.954c.367-.799-.053-1.711-.938-2.041a1.9 1.9 0 0 0-.677-.12m0 0" style="opacity:.2"/><path d="M17.941 17c-.675.005-1.315.366-1.59.965-.368.797.054 1.71.94 2.041l1.358 2.954-3.28-1.224c-.368-.796-1.383-1.176-2.267-.845-.886.33-1.306 1.243-.94 2.041.368.797 1.382 1.175 2.266.845l3.282 1.224-3.282 1.222c-.885-.33-1.898.048-2.266.846-.366.797.054 1.71.94 2.041.884.33 1.899-.048 2.267-.846l3.28-1.224-1.359 2.956c-.885.33-1.307 1.242-.939 2.039.367.798 1.382 1.176 2.267.845s1.305-1.243.939-2.041l1.359-2.952 1.359 2.952c-.367.798.053 1.711.939 2.04.885.332 1.9-.046 2.266-.844s-.053-1.71-.939-2.04l-1.359-2.955 3.282 1.224c.367.798 1.38 1.176 2.267.846.885-.331 1.305-1.244.939-2.04-.367-.799-1.382-1.177-2.269-.847L24.121 25l3.28-1.224c.887.33 1.902-.049 2.269-.845.366-.798-.054-1.711-.94-2.04-.886-.332-1.9.048-2.266.844l-3.282 1.224 1.36-2.954c.884-.331 1.304-1.244.938-2.041-.366-.798-1.381-1.175-2.266-.845s-1.306 1.242-.94 2.04l-1.358 2.955-1.36-2.954c.367-.799-.053-1.711-.938-2.041a1.9 1.9 0 0 0-.677-.12m0 0" style="fill:#fff"/><path d="M8 6a4 4.222 0 0 0-4 4.223v1A4 4.222 0 0 1 8 7h26a4 4.222 0 0 1 4 4.223v-1A4 4.222 0 0 0 34 6z" style="opacity:.2;fill:#fff"/></svg>