<svg xmlns="http://www.w3.org/2000/svg" width="64" height="64"><rect width="56" height="56" x="4" y="5" rx="2.8" ry="2.8" style="opacity:.2"/><rect width="56" height="56" x="4" y="4" rx="2.8" ry="2.8" style="fill:#e13c23"/><path d="M47.563 13c-.164 0-.527.038-.805.084-.279.046-1.18.178-2.004.293a1398 1398 0 0 0-9.102 1.3c-.157.032-.187.075-.144.225.149.527.224 1.272.176 1.768-.56 5.778-1.131 11.152-1.25 11.758-.068.341-.202.81-.3 1.04-.096.231-.154.454-.128.497.028.047.22.046.486-.002.242-.043.665-.109.94-.147s1.586-.229 2.914-.425c1.327-.197 3.086-.453 3.91-.569s1.982-.286 2.572-.379c.59-.092 1.172-.169 1.291-.17.12 0 .266-.032.326-.072s.256-.643.434-1.342.35-1.363.383-1.476c.066-.235.117-.241-.881.117-.52.187-1.929.457-3.166.61-.16.019-.48.07-.71.115-.946.181-2.297.361-2.345.312-.028-.029.032-.908.135-1.953.135-1.376.217-1.924.305-1.994.066-.053.486-.143.931-.2a50 50 0 0 0 1.85-.28 12.6 12.6 0 0 1 2.226-.184c.653-.001 1.188-.002 1.19-.004.033-.04.312-3.164.285-3.192-.021-.021-.385.079-.809.225-.852.294-1.297.393-2.523.566l-1.85.268c-.562.082-1.04.126-1.064.102-.037-.039.065-1.24.287-3.366.006-.056.133-.123.281-.146 4.375-.674 4.985-.738 6.096-.647l.5.041-.006-.64a22 22 0 0 0-.07-1.387L47.86 13Zm-16.374 2.01c-.697-.038-1.79.045-3.205.246-2.823.4-7.815 1.105-9.119 1.285-1.223.169-1.47.26-1.342.504.042.078.124.386.182.682.11.561.067 1.26-.226 3.798a476 476 0 0 0-.631 5.885c-.25 2.456-.406 3.448-.637 4.002-.115.276-.211.528-.211.56 0 .079 1.833-.031 2.21-.132a6 6 0 0 1 .68-.121 143 143 0 0 0 3.215-.45c.344-.056.365-.075.313-.283-.257-1.035-.27-.775.295-6.111.137-1.3.33-3.174.43-4.166.22-2.216.211-2.18.445-2.232.235-.054 3.279-.475 3.432-.475.06 0 .167.086.236.193.11.171.112.328.004 1.31-.221 2-.196 1.971-1.79 2.202-.593.086-1.094.173-1.115.193-.06.061-.354 2.41-.31 2.48.022.037.11.065.197.065.158 0 .269.277.72 1.805.231.778 1.076 3.447 1.24 3.908l.153.43.495-.03c.645-.038 5.638-.755 5.7-.818.027-.026-.09-.334-.259-.681-.17-.348-.31-.671-.31-.721s-.113-.376-.25-.725c-.2-.506-.668-1.717-1.506-3.902-.02-.05.206-.16.5-.248 1-.299 1.511-.833 1.808-1.887.132-.467.467-3.674.467-4.459 0-1.015-.495-1.818-1.248-2.03a2.7 2.7 0 0 0-.563-.077m12.702 14.992a16 16 0 0 0-.936.02c-1.33.058-2.336.253-3.637.712-.751.265-1.932.865-2.365 1.202-1.991 1.547-3.08 3.089-3.816 5.398-.213.67-.461 1.924-.395 1.992.034.034.28.023.551-.023.27-.047.808-.116 1.193-.157 1.245-.13 3.092-.45 3.155-.544.033-.05.061-.281.062-.512.001-.467.221-1.124.55-1.656.408-.657 1.346-1.511 2.052-1.866.592-.297.729-.331 1.453-.367.71-.035.844-.018 1.19.153.325.16.423.267.603.662.348.766.28 1.831-.172 2.714-.21.412-1.202 1.5-1.71 1.874l-.622.46c-.155.116-.404.295-.553.399-2.14 1.493-3.307 2.405-4.265 3.336-.582.564-2.017 2.192-2.508 2.846-.544.722-1.22 1.825-1.17 1.908.03.049.155.07.275.047s.681-.102 1.248-.178 1.591-.228 2.272-.338 1.526-.245 1.88-.3l.645-.1.21-.42c.305-.615 1.31-1.584 2.626-2.532 2.518-1.813 3.905-2.966 5.022-4.171.861-.931 1.278-1.53 1.675-2.413.451-1.001.425-.917.565-1.822.446-2.886-.702-5.21-2.957-5.984-.65-.223-1.271-.327-2.121-.34m-15.795 2c-.718.012-1.596.085-2.52.215-.834.117-2.1.293-2.812.39-1.653.227-2.387.334-2.98.43-.591.096-1.15.172-1.6.22-.19.022-.657.093-1.038.161-.38.067-.874.145-1.1.174-.224.028-.427.086-.452.127-.025.04-.009.352.04.693.096.668-.037 2.871-.263 4.375a50 50 0 0 0-.21 1.934c-.418 4.474-.699 6.648-.954 7.383-.333.958-.357.926.629.876.463-.023 1.019-.083 1.232-.136a8 8 0 0 1 .604-.127c.119-.016.637-.093 1.15-.172l1.164-.18c1.91-.276 2.763-.4 2.909-.433.097-.023.488-.079.869-.121 3.847-.434 5.01-.776 6.025-1.778.983-.97 1.292-1.874 1.584-4.668.116-1.11.312-2.966.438-4.123.278-2.561.256-3.44-.102-4.166-.25-.509-.471-.703-1.057-.93-.281-.109-.839-.156-1.556-.144m-3.21 2.957v.002q.123.019.212.082c.27.197.246.56-.344 5.934-.334 3.038-.433 3.635-.65 3.865-.116.123-.364.227-.674.285-.83.156-2.376.36-2.727.36h-.334l.053-.41c.028-.225.111-1.007.183-1.74.073-.731.152-1.426.174-1.544.023-.118.117-1.064.213-2.104.096-1.039.215-2.098.262-2.355s.085-.702.086-.988c0-.65.064-.888.246-.944.134-.04 1.797-.28 2.412-.347.157-.017.432-.057.607-.086a.9.9 0 0 1 .282-.01m25.067 11.592c-.02-.007-.05 0-.088.012a8 8 0 0 1-.818.14l-1.266.168a43 43 0 0 0-1.32.201c-.391.067-1.64.26-2.773.426a755 755 0 0 0-3.176.473c-1.68.257-3.48.52-6.313.92-.998.14-1.9.271-2.002.293-.376.078-1.045 1.899-1.14 3.101L31 53l.363-.002c.2-.001.51-.039.692-.084.464-.116 3.16-.565 4-.666.385-.046 1.462-.199 2.392-.342s2.1-.311 2.6-.375a201 201 0 0 0 4.869-.717 95 95 0 0 1 1.813-.253c.726-.097 1.41-.204 1.521-.239.183-.057.22-.161.434-1.232a20 20 0 0 0 .285-1.875c.039-.502.047-.645-.016-.664" style="opacity:.2"/><path d="M47.563 12c-.164 0-.527.038-.805.084-.279.046-1.18.178-2.004.293a1398 1398 0 0 0-9.102 1.3c-.157.032-.187.075-.144.225.149.527.224 1.272.176 1.768-.56 5.778-1.131 11.152-1.25 11.758-.068.341-.202.81-.3 1.04-.096.231-.154.454-.128.497.028.047.22.046.486-.002.242-.043.665-.109.94-.147s1.586-.229 2.914-.425c1.327-.197 3.086-.453 3.91-.569s1.982-.286 2.572-.379c.59-.092 1.172-.169 1.291-.17.12 0 .266-.032.326-.072s.256-.643.434-1.342.35-1.363.383-1.476c.066-.235.117-.241-.881.117-.52.187-1.929.457-3.166.61-.16.02-.48.07-.71.115-.946.181-2.297.361-2.345.312-.028-.029.032-.908.135-1.953.135-1.376.217-1.924.305-1.994.066-.053.486-.143.931-.2a50 50 0 0 0 1.85-.28 12.6 12.6 0 0 1 2.226-.184c.653-.001 1.188-.002 1.19-.004.033-.04.312-3.164.285-3.192-.021-.021-.385.079-.809.225-.852.294-1.297.393-2.523.566l-1.85.268c-.562.082-1.04.126-1.064.102-.037-.039.065-1.24.287-3.366.006-.056.133-.123.281-.146 4.375-.674 4.985-.738 6.096-.647l.5.041-.006-.64a22 22 0 0 0-.07-1.387L47.86 12zm-16.374 2.01c-.697-.038-1.79.045-3.205.246-2.823.4-7.815 1.105-9.119 1.285-1.223.169-1.47.26-1.342.504.042.078.124.386.182.682.11.561.067 1.26-.226 3.798a476 476 0 0 0-.631 5.885c-.25 2.456-.406 3.448-.637 4.002-.115.276-.211.528-.211.56 0 .079 1.833-.031 2.21-.132a6 6 0 0 1 .68-.121 143 143 0 0 0 3.215-.45c.344-.056.365-.075.313-.283-.257-1.035-.27-.775.295-6.111.137-1.3.33-3.174.43-4.166.22-2.216.211-2.18.445-2.232.235-.054 3.279-.475 3.432-.475.06 0 .167.086.236.193.11.171.112.328.004 1.31-.221 2-.196 1.971-1.79 2.202-.593.086-1.094.173-1.115.193-.06.061-.354 2.41-.31 2.48.022.037.11.065.197.065.158 0 .269.277.72 1.805.231.778 1.076 3.447 1.24 3.908l.153.43.495-.03c.645-.038 5.638-.755 5.7-.818.027-.026-.09-.334-.259-.681-.17-.348-.31-.671-.31-.721s-.113-.376-.25-.725c-.2-.506-.668-1.717-1.506-3.902-.02-.05.206-.16.5-.248 1-.299 1.511-.833 1.808-1.887.132-.467.467-3.674.467-4.459 0-1.015-.495-1.818-1.248-2.03a2.7 2.7 0 0 0-.563-.077m12.702 14.992a16 16 0 0 0-.936.02c-1.33.058-2.336.253-3.637.712-.751.265-1.932.865-2.365 1.202-1.991 1.547-3.08 3.089-3.816 5.398-.213.67-.461 1.924-.395 1.992.034.034.28.023.551-.023.27-.047.808-.116 1.193-.157 1.245-.13 3.092-.45 3.155-.544.033-.05.061-.281.062-.512.001-.467.221-1.124.55-1.656.408-.657 1.346-1.511 2.052-1.866.592-.297.729-.331 1.453-.367.71-.035.844-.018 1.19.153.325.16.423.267.603.662.348.766.28 1.831-.172 2.714-.21.412-1.202 1.5-1.71 1.874l-.622.46c-.155.116-.404.295-.553.399-2.14 1.493-3.307 2.405-4.265 3.336-.582.564-2.017 2.192-2.508 2.846-.544.722-1.22 1.825-1.17 1.908.03.049.155.07.275.047s.681-.102 1.248-.178 1.591-.228 2.272-.338 1.526-.245 1.88-.3l.645-.1.21-.42c.305-.614 1.31-1.584 2.626-2.532 2.518-1.813 3.905-2.966 5.022-4.171.861-.931 1.278-1.53 1.675-2.413.451-1.001.425-.917.565-1.822.446-2.886-.702-5.21-2.957-5.984-.65-.223-1.271-.327-2.121-.34m-15.795 2a21 21 0 0 0-2.52.215c-.834.117-2.1.293-2.812.39-1.653.227-2.387.334-2.98.43-.591.096-1.15.172-1.6.22-.19.022-.657.093-1.038.161-.38.067-.874.145-1.1.174-.224.028-.427.086-.452.127-.025.04-.009.352.04.693.096.668-.037 2.871-.263 4.375a50 50 0 0 0-.21 1.934c-.418 4.474-.699 6.648-.954 7.383-.333.958-.357.926.629.876.463-.023 1.019-.083 1.232-.136a8 8 0 0 1 .604-.127c.119-.016.637-.093 1.15-.172l1.164-.18c1.91-.276 2.763-.4 2.909-.433.097-.023.488-.079.869-.121 3.847-.434 5.01-.776 6.025-1.778.983-.97 1.292-1.874 1.584-4.668.116-1.11.312-2.966.438-4.123.277-2.561.256-3.44-.102-4.166-.25-.509-.471-.703-1.057-.93-.281-.109-.839-.156-1.556-.144m-3.21 2.957v.002q.123.019.212.082c.27.197.246.56-.344 5.934-.334 3.038-.433 3.635-.65 3.865-.116.122-.364.227-.674.285-.83.156-2.376.36-2.727.36h-.334l.053-.41c.028-.225.111-1.007.183-1.74.073-.731.152-1.426.174-1.544.023-.118.117-1.065.213-2.104s.215-2.098.262-2.355.085-.702.086-.988c0-.65.064-.888.246-.944.134-.04 1.797-.28 2.412-.347.157-.017.432-.057.607-.086a.9.9 0 0 1 .282-.01m25.067 11.592c-.02-.007-.05 0-.088.011a8 8 0 0 1-.818.141l-1.266.168a43 43 0 0 0-1.32.201c-.391.067-1.64.26-2.773.426a755 755 0 0 0-3.176.473c-1.68.257-3.48.52-6.313.92-.998.14-1.9.271-2.002.293-.376.078-1.045 1.899-1.14 3.101L31 52l.363-.002c.2-.001.51-.039.692-.084.464-.116 3.16-.565 4-.666.385-.046 1.462-.199 2.392-.342s2.1-.311 2.6-.375a201 201 0 0 0 4.869-.717 95 95 0 0 1 1.813-.253c.726-.097 1.41-.204 1.521-.239.183-.057.22-.161.434-1.232a20 20 0 0 0 .285-1.875c.039-.502.047-.645-.016-.664" style="fill:#fff"/><path d="M6.8 4C5.25 4 4 5.25 4 6.8v1C4 6.25 5.25 5 6.8 5h50.4C58.75 5 60 6.25 60 7.8v-1C60 5.25 58.75 4 57.2 4z" style="fill:#fff;opacity:.2"/></svg>