<svg xmlns="http://www.w3.org/2000/svg" width="64" height="64"><path d="M12.75 6C11.226 6 10 7.249 10 8.8v50.4c0 1.551 1.227 2.8 2.75 2.8h38.5c1.524 0 2.75-1.248 2.75-2.8V8.8C54 7.249 52.774 6 51.25 6z" style="fill:#008295"/><path d="M12.75 6C11.226 6 10 7.249 10 8.8v50.4c0 1.551 1.227 2.8 2.75 2.8H18V6Z" style="opacity:.2"/><path d="M36.039 21c-5.906 0-10.953 3.675-12.99 8.843-.109.262-.204.532-.297.802q-.029.083-.056.167A13.7 13.7 0 0 0 22 35.1C22 42.767 28.261 49 35.962 49c5.85 0 10.862-3.6 12.938-8.69l.002-.004c.15-.35.275-.712.395-1.076.45-1.364.703-2.818.703-4.33C50 27.235 43.738 21 36.038 21zm-1.005 2.17v4.68a25.4 25.4 0 0 1-3.786-.41c.177-.413.362-.81.564-1.173.933-1.671 2.06-2.714 3.222-3.096m1.994.078c.105.017.211.03.315.049 1.05.457 2.06 1.45 2.908 2.97.199.356.38.745.555 1.15a25 25 0 0 1-3.778.428zm-6.25.958c-.25.348-.491.708-.709 1.097-.29.52-.548 1.081-.786 1.668a16 16 0 0 1-1.629-.572c.91-.89 1.966-1.628 3.124-2.193m10.723.299c.545.217.962.42 1.381.624q.799.555 1.496 1.227c-.498.211-1.034.407-1.613.58a15 15 0 0 0-.771-1.633 12 12 0 0 0-.493-.799m4.18 3.35a11.8 11.8 0 0 1 2.275 6.06H44.2a22 22 0 0 0-.789-5.094 17 17 0 0 0 2.228-.84c.019-.043.029-.085.04-.126zm-19.382.132c.716.331 1.504.619 2.343.868a22 22 0 0 0-.78 5.06h-3.74c.18-2.204.96-4.23 2.177-5.928m15.177 1.324a20 20 0 0 1 .728 4.603h-5.177v-4.083a27 27 0 0 0 4.449-.52m-10.897.03a27 27 0 0 0 4.454.494v4.08h-5.175c.074-1.646.329-3.192.72-4.575M24.12 35.9h3.74c.076 1.851.358 3.602.815 5.188-.82.243-1.588.523-2.292.844A11.8 11.8 0 0 1 24.12 35.9m5.737 0h5.175v4.219a27 27 0 0 0-4.42.486 20 20 0 0 1-.755-4.705m7.17 0h5.176c-.077 1.707-.346 3.311-.764 4.734a27 27 0 0 0-4.413-.512zm7.172 0h3.755a11.8 11.8 0 0 1-2.308 6.092l-.008-.02a17 17 0 0 0-2.263-.85c.463-1.594.748-3.357.824-5.223zm-9.167 6.204v4.537c-1.162-.383-2.29-1.421-3.221-3.092a13 13 0 0 1-.51-1.045 25.4 25.4 0 0 1 3.73-.4zm1.994.004c1.312.052 2.567.195 3.726.417-.16.359-.325.704-.503 1.024-.933 1.671-2.06 2.71-3.223 3.092zm-7.693.86c.225.54.465 1.062.734 1.544.212.38.444.733.686 1.073a12 12 0 0 1-2.982-2.073 16 16 0 0 1 1.562-.545zm13.38.034c.554.164 1.063.352 1.545.55a12 12 0 0 1-2.955 2.04c.243-.343.477-.698.69-1.08.263-.472.5-.982.72-1.51" style="opacity:.2;fill-rule:evenodd"/><path d="M36.039 20c-5.906 0-10.953 3.674-12.99 8.841-.109.263-.204.532-.297.803q-.029.083-.056.167A13.8 13.8 0 0 0 22 34.1C22 41.767 28.261 48 35.962 48c5.85 0 10.862-3.6 12.938-8.69l.002-.005c.15-.35.275-.711.395-1.076a13.8 13.8 0 0 0 .703-4.33C50 26.236 43.738 20 36.038 20zm-1.005 2.17v4.678a25.4 25.4 0 0 1-3.786-.409c.177-.413.362-.81.564-1.173.933-1.671 2.06-2.714 3.222-3.096m1.994.077c.105.017.211.03.315.049 1.05.457 2.06 1.45 2.908 2.97.199.356.38.746.555 1.15a25 25 0 0 1-3.778.428zm-6.25.958c-.25.348-.491.708-.709 1.097-.29.52-.548 1.081-.786 1.668a16 16 0 0 1-1.629-.572c.91-.89 1.966-1.628 3.124-2.193m10.723.299c.545.217.962.42 1.381.624q.799.555 1.496 1.227c-.498.211-1.034.407-1.613.58a15 15 0 0 0-.771-1.633 12 12 0 0 0-.493-.798m4.18 3.35a11.8 11.8 0 0 1 2.275 6.06H44.2a22 22 0 0 0-.789-5.094 17 17 0 0 0 2.228-.84c.019-.043.029-.084.04-.126zm-19.382.132c.716.331 1.504.619 2.343.868a22 22 0 0 0-.78 5.06h-3.74c.18-2.204.96-4.23 2.177-5.928m15.177 1.324a20 20 0 0 1 .728 4.603h-5.177V28.83a27 27 0 0 0 4.449-.52m-10.897.03a27 27 0 0 0 4.454.494v4.08h-5.175c.074-1.646.329-3.192.72-4.575m-6.458 6.559h3.74c.076 1.851.358 3.602.815 5.188-.82.243-1.588.523-2.292.844a11.8 11.8 0 0 1-2.264-6.032zm5.737 0h5.175v4.219a27 27 0 0 0-4.42.487 20 20 0 0 1-.755-4.706m7.17 0h5.176c-.077 1.707-.346 3.311-.764 4.734a27 27 0 0 0-4.413-.511zm7.172 0h3.755a11.8 11.8 0 0 1-2.308 6.092l-.008-.02a17 17 0 0 0-2.263-.849c.463-1.595.748-3.358.824-5.224zm-9.167 6.204v4.537c-1.162-.383-2.29-1.421-3.221-3.092a13 13 0 0 1-.51-1.045 25.4 25.4 0 0 1 3.73-.4zm1.994.004c1.312.052 2.567.195 3.726.417-.16.359-.325.704-.503 1.024-.933 1.672-2.06 2.71-3.223 3.093zm-7.693.86c.225.54.465 1.062.734 1.544.212.38.444.733.686 1.073a12 12 0 0 1-2.982-2.073 16 16 0 0 1 1.562-.545zm13.38.034c.554.164 1.063.352 1.545.55a12 12 0 0 1-2.955 2.04c.243-.342.477-.698.69-1.08.263-.471.5-.982.72-1.51" style="fill:#fff;fill-rule:evenodd"/><path d="M12.75 6C11.226 6 10 7.25 10 8.8v1C10 8.25 11.226 7 12.75 7h38.5C52.774 7 54 8.25 54 9.8v-1C54 7.25 52.774 6 51.25 6z" style="opacity:.2;fill:#fff"/><path d="M10 59.2v1c0 1.55 1.226 2.8 2.75 2.8h38.5c1.524 0 2.75-1.25 2.75-2.8v-1c0 1.55-1.226 2.8-2.75 2.8h-38.5C11.226 62 10 60.75 10 59.2" style="opacity:.2"/></svg>