<svg xmlns="http://www.w3.org/2000/svg" width="64" height="64"><path d="M41 41v18h15.3c1.496 0 2.7-1.204 2.7-2.7V41z" style="fill:#259fb3"/><path d="M23 41h18v18H23z" style="fill:#1e8496"/><path d="M5 41v15.3C5 57.796 6.204 59 7.7 59H23V41z" style="fill:#186977"/><path d="M5 24h18v18H5z" style="opacity:.2"/><path d="M5 23h18v18H5z" style="fill:#4ca9ba"/><path d="M23 24h18v18H23z" style="opacity:.2"/><path d="M23 23h18v18H23z" style="fill:#6eb9c7"/><path d="M41 24h18v18H41z" style="opacity:.2"/><path d="M41 23h18v18H41z" style="fill:#90cad5"/><path d="M41 6v18h18V8.7C59 7.204 57.796 6 56.3 6z" style="opacity:.2"/><path d="M41 5v18h18V7.7C59 6.204 57.796 5 56.3 5z" style="fill:#c5e6ec"/><path d="M23 6h18v18H23z" style="opacity:.2"/><path d="M23 5h18v18H23z" style="fill:#acdbe3"/><path d="M7.7 6A2.694 2.694 0 0 0 5 8.7V24h18V6z" style="opacity:.2"/><path d="M7.7 5A2.694 2.694 0 0 0 5 7.7V23h18V5z" style="fill:#96d1dc"/><path d="M5 56.3v1C5 58.797 6.203 60 7.7 60h48.6c1.497 0 2.7-1.203 2.7-2.7v-1c0 1.496-1.203 2.7-2.7 2.7H7.7A2.693 2.693 0 0 1 5 56.3" style="opacity:.2"/><path d="M7.7 5A2.693 2.693 0 0 0 5 7.7v1C5 7.202 6.203 6 7.7 6h48.6C57.798 6 59 7.203 59 8.7v-1C59 6.202 57.797 5 56.3 5z" style="opacity:.2;fill:#fff"/><circle cx="47" cy="47" r="16" style="fill:#48aeff"/><path d="M31.025 47.5a16 16.002 0 0 0-.025.498A16 16.002 0 0 0 47 64a16 16.002 0 0 0 16-16.002 16 16.002 0 0 0-.018-.492A16 16.002 0 0 1 47 63a16 16.002 0 0 1-15.975-15.5" style="opacity:.2"/><path d="M39.5 39h6a.5.5 0 0 1 .5.5v6a.5.5 0 0 1-.5.5h-6a.5.5 0 0 1-.5-.5v-6c0-.277.223-.5.5-.5m9 0h6a.5.5 0 0 1 .5.5v6a.5.5 0 0 1-.5.5h-6a.5.5 0 0 1-.5-.5v-6c0-.277.223-.5.5-.5m-9 9h6a.5.5 0 0 1 .5.5v6a.5.5 0 0 1-.5.5h-6a.5.5 0 0 1-.5-.5v-6c0-.277.223-.5.5-.5m9 0h6a.5.5 0 0 1 .5.5v6a.5.5 0 0 1-.5.5h-6a.5.5 0 0 1-.5-.5v-6c0-.277.223-.5.5-.5" style="fill:#fff"/></svg>