<svg xmlns="http://www.w3.org/2000/svg" width="64" height="64"><g transform="translate(0 -268.3)"><circle cx="32" cy="300.3" r="26.1" style="fill:#fff"/><path d="m20.62 26.92 8.93 5.96-8.93 5.95v9.18l22.7-15.13-22.7-15.14z" class="st1" style="opacity:.1" transform="translate(3.197 270.301)scale(.76645)"/><path d="m43.32 32.88-22.7-15.14v9.18l8.93 5.96-8.93 5.95v9.18z" class="st1" style="fill:#20aa73" transform="translate(3.197 269.301)scale(.76645)"/><path d="M55.39 59.23v-9.18l-8.93-5.95 8.93-5.96v-9.18L32.69 44.1z" class="st2" style="opacity:.1" transform="translate(2.55 273.303)scale(.76642)"/><path d="M55.39 28.96 32.69 44.1l22.7 15.13v-9.18l-8.93-5.95 8.93-5.96z" class="st2" style="fill:#3989da" transform="translate(2.55 272.303)scale(.76642)"/><path d="m57.372 287.301-4.877 3.246A23.2 23.2 0 0 1 55.2 301.3 23.2 23.2 0 0 1 32 324.5a23.2 23.2 0 0 1-17.85-8.442l-4.86 3.234C14.606 325.99 22.804 330.3 32 330.3c15.99 0 29-13.009 29-29 0-5.077-1.325-9.844-3.628-13.999" style="opacity:.2"/><path d="m57.372 286.301-4.877 3.246A23.2 23.2 0 0 1 55.2 300.3 23.2 23.2 0 0 1 32 323.5a23.2 23.2 0 0 1-17.85-8.442l-4.86 3.234C14.606 324.99 22.804 329.3 32 329.3c15.99 0 29-13.009 29-29 0-5.077-1.325-9.844-3.628-13.999" style="fill:#20aa73"/><path d="M32 272.3c-15.991 0-29 13.009-29 29a28.8 28.8 0 0 0 3.146 13.118l4.9-3.26A23.2 23.2 0 0 1 8.8 301.3 23.2 23.2 0 0 1 32 278.1a23.2 23.2 0 0 1 17.19 7.678l4.889-3.252C48.756 276.276 40.834 272.3 32 272.3" style="opacity:.2"/><path d="M32 271.3c-15.991 0-29 13.009-29 29a28.8 28.8 0 0 0 3.146 13.118l4.9-3.26A23.2 23.2 0 0 1 8.8 300.3 23.2 23.2 0 0 1 32 277.1a23.2 23.2 0 0 1 17.19 7.678l4.889-3.252C48.756 275.276 40.834 271.3 32 271.3" style="fill:#3989da"/><path d="M32 3C16.009 3 3 16.009 3 32c0 .152.011.302.014.453C3.307 16.714 16.192 4 32 4c8.531 0 16.205 3.715 21.516 9.6l.562-.373C48.755 6.975 40.834 3 32 3M8.816 32.678 8.801 33a23.2 23.2 0 0 0 1.918 9.074l.326-.217a23.2 23.2 0 0 1-2.229-9.18" style="fill:#fff;opacity:.2" transform="translate(0 268.3)"/></g></svg>