<svg xmlns="http://www.w3.org/2000/svg" width="64" height="64"><rect width="56" height="56" x="4" y="5" rx="13" ry="13" style="opacity:.2"/><rect width="56" height="56" x="4" y="4" rx="13" ry="13" style="fill:#e4e4e4"/><path d="M17 4C9.798 4 4 9.798 4 17v1C4 10.798 9.798 5 17 5h30c7.202 0 13 5.798 13 13v-1c0-7.202-5.798-13-13-13z" style="fill:#fff;opacity:.2"/><path d="M29.62 13c-.92 0-1.38 0-1.73.18-.31.15-.55.4-.71.7-.18.35-.18.8-.18 1.71v10.24l-7.29-7.24c-.65-.64-.97-.96-1.35-1.08-.32-.11-.68-.11-1.01 0-.37.12-.69.44-1.34 1.08l-3.38 3.35c-.64.64-.97.96-1.09 1.33-.1.33-.1.68 0 1 .12.37.45.69 1.09 1.34l7.3 7.39H9.62c-.92 0-1.38.05-1.73.22-.31.16-.55.4-.71.71-.18.35-.18.8-.18 1.71v4.53c0 .91 0 1.37.18 1.71.16.31.4.56.71.71.35.18.81.41 1.73.41h15.11l5.18-7.08c.55-.9 1.11-1.45 2.09-1.68 1.02.06 1.51.93 2.09 1.68L39.26 43h15.12c.92 0 1.38-.23 1.72-.41.31-.15.56-.4.72-.71.18-.34.18-.8.18-1.71v-4.53c0-.91 0-1.36-.18-1.71-.16-.31-.41-.55-.72-.71-.34-.17-.8-.22-1.72-.22H44.07l7.29-7.39c.65-.65.98-.97 1.1-1.34.1-.32.1-.67 0-1-.12-.37-.45-.69-1.1-1.33l-3.37-3.35c-.65-.64-.97-.96-1.34-1.08-.33-.11-.68-.11-1.01 0-.38.12-.7.44-1.35 1.08L37 25.83V15.59c0-.91 0-1.36-.18-1.71-.16-.3-.41-.55-.71-.7-.35-.18-.81-.18-1.73-.18Zm9.64 30H24.73l-4.59 5.85c-1.01 1.34-1.52 2-1.51 2.56.02.49.24.95.63 1.25.44.34 1.28.34 2.97.34h19.54c1.68 0 2.53 0 2.97-.34.38-.3.61-.76.63-1.25.01-.56-.5-1.22-1.51-2.56Z" style="opacity:.2"/><path d="M29.62 12c-.92 0-1.38 0-1.73.18-.31.15-.55.4-.71.7-.18.35-.18.8-.18 1.71v10.24l-7.29-7.24c-.65-.64-.97-.96-1.35-1.08-.32-.11-.68-.11-1.01 0-.37.12-.69.44-1.34 1.08l-3.38 3.35c-.64.64-.97.96-1.09 1.33-.1.33-.1.68 0 1 .12.37.45.69 1.09 1.34l7.3 7.39H9.62c-.92 0-1.38.05-1.73.22-.31.16-.55.4-.71.71-.18.35-.18.8-.18 1.71v4.53c0 .91 0 1.37.18 1.71.16.31.4.56.71.71.35.18.81.41 1.73.41h15.11l5.18-7.08c.55-.9 1.11-1.45 2.09-1.68 1.02.06 1.51.93 2.09 1.68L39.26 42h15.12c.92 0 1.38-.23 1.72-.41.31-.15.56-.4.72-.71.18-.34.18-.8.18-1.71v-4.53c0-.91 0-1.36-.18-1.71-.16-.31-.41-.55-.72-.71-.34-.17-.8-.22-1.72-.22H44.07l7.29-7.39c.65-.65.98-.97 1.1-1.34.1-.32.1-.67 0-1-.12-.37-.45-.69-1.1-1.33l-3.37-3.35c-.65-.64-.97-.96-1.34-1.08-.33-.11-.68-.11-1.01 0-.38.12-.7.44-1.35 1.08L37 24.83V14.59c0-.91 0-1.36-.18-1.71-.16-.3-.41-.55-.71-.7-.35-.18-.81-.18-1.73-.18Zm9.64 30H24.73l-4.59 5.85c-1.01 1.34-1.52 2-1.51 2.56.02.49.24.95.63 1.25.44.34 1.28.34 2.97.34h19.54c1.68 0 2.53 0 2.97-.34.38-.3.61-.76.63-1.25.01-.56-.5-1.22-1.51-2.56Z" style="fill:#506cf7"/><path d="M29.619 12c-.92 0-1.378 0-1.728.18-.31.15-.551.401-.711.701-.18.35-.18.799-.18 1.709v1c0-.91 0-1.359.18-1.709.16-.3.401-.551.711-.701.35-.18.808-.18 1.728-.18h4.762c.92 0 1.378 0 1.728.18.3.15.551.401.711.701.18.35.18.799.18 1.709v-1c0-.91 0-1.359-.18-1.709-.16-.3-.411-.551-.711-.701-.35-.18-.808-.18-1.728-.18zm-11.76 4.428c-.171 0-.344.027-.509.082-.37.12-.69.44-1.34 1.08l-3.379 3.349c-.64.64-.972.961-1.092 1.331-.1.33-.1.68 0 1 .12-.37.452-.691 1.092-1.331l3.379-3.349c.65-.64.97-.96 1.34-1.08.33-.11.689-.11 1.009 0 .38.12.702.44 1.352 1.08L27 25.83v-1l-7.289-7.24c-.65-.64-.972-.96-1.352-1.08a1.5 1.5 0 0 0-.5-.082m28.286 0q-.256 0-.504.082c-.38.12-.702.44-1.352 1.08L37 24.83v1l7.289-7.24c.65-.64.972-.96 1.352-1.08.33-.11.679-.11 1.009 0 .37.12.69.44 1.34 1.08l3.369 3.349c.65.64.982.961 1.102 1.331.1-.32.1-.67 0-1-.12-.37-.452-.691-1.102-1.331L47.99 17.59c-.65-.64-.97-.96-1.34-1.08a1.6 1.6 0 0 0-.505-.082M9.619 32c-.92 0-1.378.051-1.728.221-.31.16-.551.399-.711.709-.18.35-.18.801-.18 1.711v1c0-.91 0-1.361.18-1.711.16-.31.4-.549.71-.709.35-.17.81-.221 1.73-.221h10.31l-.989-1zm35.438 0-.987 1h10.311c.92 0 1.379.051 1.719.221.31.16.56.399.72.709.18.35.18.801.18 1.711v-1c0-.91 0-1.361-.18-1.711-.16-.31-.41-.549-.72-.709-.34-.17-.799-.221-1.719-.221zM25.463 42l-.733 1h14.53l-.731-1zm13.797 1 4.599 5.85c.738.978 1.204 1.591 1.401 2.07.059-.163.102-.333.109-.51.01-.56-.5-1.22-1.51-2.56L40.047 43zm-14.53 0h-.785l-3.804 4.85c-1.01 1.34-1.52 2-1.51 2.56.007.179.048.349.107.514.196-.48.663-1.093 1.403-2.074z" style="fill:#fff;opacity:.2"/></svg>