<svg xmlns="http://www.w3.org/2000/svg" width="64" height="64"><path d="M4 50v2c0 1.662 1.338 3 3 3h50c1.662 0 3-1.338 3-3v-2c0 1.662-1.338 3-3 3H7c-1.662 0-3-1.338-3-3" style="opacity:.2"/><rect width="44" height="56" x="-54" y="-60" rx="3" ry="3" style="fill:#e7a522" transform="rotate(90)scale(-1 1)"/><path d="M7 10c-1.662 0-3 1.338-3 3v1c0-1.662 1.338-3 3-3h50c1.662 0 3 1.338 3 3v-1c0-1.662-1.338-3-3-3z" style="opacity:.2;fill:#fff"/><path d="M48 32c0-16.615-6.666-18-20-18S8 15.385 8 32c0 16.616 6.667 18 20 18s20-1.384 20-18m2 8v2h8v-2zm0 3v2h8v-2zm0 3v2h8v-2z" style="fill:#323232"/><g style="opacity:.2" transform="matrix(2 0 0 2 0 -2)"><circle cx="27" cy="11" r="2"/><circle cx="27" cy="16" r="2"/></g><circle cx="54" cy="19" r="4" style="fill:#fff"/><circle cx="54" cy="29" r="4" style="fill:#fff"/><path d="M19 37.99V42h4.01l10.125-10.126-4.009-4.01zm17.682-9.65a1.063 1.063 0 0 0 0-1.516l-2.506-2.506a1.063 1.063 0 0 0-1.516 0l-2.095 2.107 4.01 4.01z" style="opacity:.2"/><path d="M19 36.99V41h4.01l10.125-10.126-4.009-4.01zm17.682-9.65a1.063 1.063 0 0 0 0-1.516l-2.506-2.506a1.063 1.063 0 0 0-1.516 0l-2.095 2.107 4.01 4.01z" style="fill:#848484"/></svg>