<svg xmlns="http://www.w3.org/2000/svg" width="64" height="64"><path d="M33.165 5.004c-1.245-.044-2.386.311-3.153 1.107a3241 3241 0 0 0-24.4 28.599c-1.339 1.609-2.303 3.45-.982 5.562 3.991 6.43 7.75 12.814 12.036 19.638.792 1.19 3.29 1.716 5.015-.052 11.96-11.96 24.328-24.354 37.14-37.09 1.558-1.544 1.757-5.097-.536-6.296-2.293-1.2-19.961-9.54-22.159-10.667-.961-.493-1.993-.768-2.961-.801" style="opacity:.2"/><path d="M33.165 4.004c-1.245-.044-2.386.311-3.153 1.107a3241 3241 0 0 0-24.4 28.599c-1.339 1.609-2.303 3.45-.982 5.561 3.991 6.431 7.75 12.815 12.036 19.639.792 1.19 3.29 1.716 5.015-.052 11.96-11.96 24.328-24.354 37.14-37.09 1.558-1.544 1.757-5.097-.536-6.297S38.324 5.931 36.126 4.805c-.961-.493-1.993-.768-2.961-.801" style="fill:#a54923"/><path d="M26.775 26q-.226 0-.46.021c-2.493.243-9.442.956-9.442.956l-.238 3.966s4.267-.285 5.052-.324a1.22 1.22 0 0 1 1.307 1.205l.02 2.686c.003.632-.589 1.49-1.319 1.49s-5.299.121-5.299.121l-.261 3.89s4.459.006 5.244.022a1.38 1.38 0 0 1 1.363 1.44c-.03.786-.33 8.97-.33 8.97l7.951.73.532-.53c-.02-.881-.182-8.11-.217-10.098-.036-2.05-1.655-3.096-1.655-3.096s1.924-1.674 1.85-3.363-.13-2.31-.184-4.408c-.05-1.968-1.658-3.673-3.914-3.678m-11.158 1.191-3.945.373q-1.116 1.314-2.23 2.63l-1.32 15.797c.641 1.055 1.29 2.103 1.934 3.164l4.228.358z" style="opacity:.2"/><path d="M26.775 25q-.226 0-.46.021c-2.493.243-9.442.956-9.442.956l-.238 3.966s4.267-.285 5.052-.324a1.22 1.22 0 0 1 1.307 1.205l.02 2.686c.003.632-.589 1.49-1.319 1.49s-5.299.121-5.299.121l-.261 3.89s4.459.006 5.244.022a1.38 1.38 0 0 1 1.363 1.44c-.03.786-.33 8.97-.33 8.97l7.951.73.532-.53c-.02-.881-.182-8.11-.217-10.098-.036-2.05-1.655-3.096-1.655-3.096s1.924-1.674 1.85-3.363-.13-2.31-.184-4.408c-.05-1.968-1.658-3.673-3.914-3.678m-11.158 1.191-3.945.373q-1.116 1.314-2.23 2.63l-1.32 15.797c.641 1.055 1.29 2.103 1.934 3.164l4.228.358z" style="fill:#fff"/><path d="M33.164 4.004c-1.245-.043-2.386.312-3.152 1.107a3241 3241 0 0 0-24.4 28.598c-1.012 1.216-1.806 2.567-1.565 4.064.147-1.104.784-2.125 1.564-3.064a3241 3241 0 0 1 24.4-28.598c.767-.795 1.908-1.15 3.153-1.107.968.034 2.001.308 2.963.8 2.198 1.127 19.865 9.467 22.158 10.667 1.05.548 1.556 1.595 1.67 2.71.158-1.458-.309-2.998-1.67-3.71-2.293-1.2-19.96-9.54-22.158-10.666-.962-.493-1.995-.767-2.963-.801" style="fill:#fff;opacity:.1"/></svg>