<svg xmlns="http://www.w3.org/2000/svg" xmlns:xlink="http://www.w3.org/1999/xlink" width="64" height="64"><defs><radialGradient xlink:href="#a" id="e" cx="32" cy="32" r="26.551" fx="32" fy="32" gradientUnits="userSpaceOnUse"/><radialGradient xlink:href="#b" id="i" cx="34.053" cy="33.203" r="8" fx="34.053" fy="33.203" gradientTransform="rotate(60 128.625 -3.553)scale(3.34181 2.92409)" gradientUnits="userSpaceOnUse"/><radialGradient xlink:href="#c" id="g" cx="29.927" cy="33.621" r="8" fx="29.927" fy="33.621" gradientTransform="rotate(195 44.689 50.345)scale(2.10848 1.84492)" gradientUnits="userSpaceOnUse"/><radialGradient xlink:href="#d" id="h" cx="31.973" cy="28.609" r="7" fx="31.973" fy="28.609" gradientTransform="matrix(2.02972 0 0 2.60964 -32.923 -44.162)" gradientUnits="userSpaceOnUse"/><linearGradient id="d"><stop offset="0" style="stop-color:#08d3f9;stop-opacity:1"/><stop offset="1" style="stop-color:#1085d6;stop-opacity:1"/></linearGradient><linearGradient id="c"><stop offset="0" style="stop-color:#e9ff61;stop-opacity:1"/><stop offset="1" style="stop-color:#ffc061;stop-opacity:1"/></linearGradient><linearGradient id="b"><stop offset="0" style="stop-color:#ff5e5e;stop-opacity:1"/><stop offset="1" style="stop-color:#f22;stop-opacity:1"/></linearGradient><linearGradient id="a"><stop offset="0" style="stop-color:#5a5a5a;stop-opacity:1"/><stop offset="1" style="stop-color:#353535;stop-opacity:1"/></linearGradient><filter id="f" width="1.147" height="1.147" x="-.074" y="-.074" style="color-interpolation-filters:sRGB"><feGaussianBlur stdDeviation="1.487"/></filter><filter id="j" width="1.115" height="1.125" x="-.057" y="-.062" style="color-interpolation-filters:sRGB"><feGaussianBlur stdDeviation=".776"/></filter></defs><circle cx="32" cy="32" r="26.251" style="fill:url(#e);stroke:none;stroke-width:.6;stroke-linecap:round;stroke-linejoin:round"/><circle cx="32" cy="32" r="26.251" style="fill:none;stroke:#000;stroke-width:.6;stroke-linecap:round;stroke-linejoin:round;stroke-opacity:1;filter:url(#f)"/><path d="M21.105 45.998a6 6 0 0 0 1.412-.144c1.446-.317 2.673-.974 3.616-2.139.574-.71 1.056-1.48 1.472-2.29a24 24 0 0 0 1.253-2.954 32 32 0 0 0 1.09-3.718c.157-.704-.02-1.145-.8-1.388a36 36 0 0 0-3.001-.81c-1.683-.368-3.378-.605-5.108-.546q-.733.03-1.458.157a6.3 6.3 0 0 0-3.556 1.909c-1.657 1.737-2.316 3.81-1.907 6.172.587 3.376 3.583 5.778 6.987 5.751" style="fill:url(#g)"/><path d="M25.003 20.382c-.02.515.071 1.077.223 1.64.289 1.07.767 2.05 1.332 2.977 1.285 2.107 2.906 3.91 4.664 5.585.144.138.316.254.5.343a.62.62 0 0 0 .557.013q.276-.123.485-.35c.61-.63 1.214-1.263 1.791-1.915a31 31 0 0 0 2.29-2.901c.637-.927 1.207-1.901 1.627-2.958.42-1.05.623-2.133.485-3.272-.23-1.88-.997-3.472-2.368-4.72-1.622-1.474-3.51-2.064-5.636-1.736-3.457.536-5.964 3.72-5.95 7.294" style="fill:url(#h)"/><path d="M42.895 45.998a6 6 0 0 1-1.412-.144c-1.446-.317-2.673-.974-3.616-2.139a13.3 13.3 0 0 1-1.472-2.29 24 24 0 0 1-1.253-2.954 32 32 0 0 1-1.09-3.718c-.157-.704.02-1.145.8-1.388a36 36 0 0 1 3.001-.81c1.683-.368 3.378-.605 5.108-.546q.733.03 1.458.157a6.3 6.3 0 0 1 3.556 1.909c1.657 1.737 2.316 3.81 1.907 6.172-.587 3.376-3.583 5.778-6.987 5.751" style="fill:url(#i)"/><path d="M42.904 45.976a6 6 0 0 1-1.412-.144c-1.445-.317-2.673-.974-3.616-2.139a13.3 13.3 0 0 1-1.472-2.29 24 24 0 0 1-1.253-2.954 32 32 0 0 1-1.089-3.718c-.158-.704.02-1.145.799-1.388a36 36 0 0 1 3.002-.81c1.682-.368 3.377-.605 5.107-.546q.734.03 1.458.157a6.3 6.3 0 0 1 3.557 1.909c1.656 1.737 2.315 3.81 1.907 6.172-.587 3.376-3.583 5.778-6.988 5.751zM25.012 20.36c-.02.515.072 1.077.223 1.64.29 1.07.768 2.05 1.332 2.977 1.286 2.107 2.906 3.91 4.665 5.585.144.138.315.254.499.342a.62.62 0 0 0 .557.014c.183-.082.348-.199.486-.35a59 59 0 0 0 1.79-1.915 31 31 0 0 0 2.29-2.902c.637-.926 1.207-1.9 1.627-2.957.42-1.05.623-2.133.486-3.272-.23-1.88-.997-3.472-2.369-4.72-1.621-1.474-3.51-2.064-5.636-1.736-3.457.536-5.963 3.72-5.95 7.294zm-3.898 25.616a6 6 0 0 0 1.413-.144c1.445-.317 2.672-.974 3.616-2.139.573-.71 1.056-1.48 1.471-2.29.49-.954.897-1.948 1.254-2.954a32 32 0 0 0 1.089-3.718c.158-.704-.02-1.145-.799-1.388a36 36 0 0 0-3.002-.81c-1.682-.368-3.378-.605-5.107-.546q-.734.03-1.459.157a6.3 6.3 0 0 0-3.556 1.909c-1.657 1.737-2.315 3.81-1.907 6.172.587 3.376 3.583 5.778 6.987 5.751z" style="fill:none;stroke:#000;stroke-opacity:1;stroke-width:.39999991;stroke-dasharray:none;filter:url(#j)"/></svg>