<svg xmlns="http://www.w3.org/2000/svg" width="64" height="64"><rect width="56" height="56" x="4" y="5" rx="28" ry="28" style="opacity:.2"/><rect width="56" height="56" x="4" y="4" rx="28" ry="28" style="fill:#59657f"/><path d="M32 4C16.488 4 4 16.488 4 32c0 .113.011.224.018.336C4.369 17.134 16.71 5 32 5s27.63 12.134 27.982 27.336c.007-.112.018-.223.018-.336C60 16.488 47.512 4 32 4" style="opacity:.1;fill:#fff"/><path d="m8.77 13.658 5.056 16.117" style="fill:none;stroke:#9f9f9f;stroke-width:1.39999998px;stroke-linecap:round;stroke-linejoin:round"/><path d="m23.584 44.503 5.078 1.594-.158 4.054-2.66.707zm10.01 1.05 5.162-1.293 1.983 3.54-1.899 1.992Z" style="fill:#c3a178"/><path d="M40.74 48.8c-1.046.992-2.295 1.079-2.336 2.694L41.43 53l2.441-1.52c.582-1.778-.875-1.657-2.021-1.394zM27.89 51c-1.06.003-1.976.403-2.889.816l.918 1.532c-.544.827-1.002 1.624.852 1.652l1.931-1.672.299-2.183A4.3 4.3 0 0 0 27.889 51" style="opacity:.1"/><path d="M40.74 47.8c-1.047.99-2.295 1.08-2.336 2.694L41.429 52l2.443-1.52c.581-1.78-.876-1.656-2.023-1.393Z" style="fill:#ffe252"/><ellipse cx="31.569" cy="40.639" rx="12.356" ry="8.361" style="opacity:.1"/><ellipse cx="31.569" cy="39.639" rx="12.356" ry="8.361" style="fill:#d4bca1"/><path d="M13.826 29.775c1.67 6.115-1.955 2.426-1.97 2.395" style="fill:none;stroke:#fa4648;stroke-width:1.39999998px;stroke-linecap:round;stroke-linejoin:round"/><path d="M16.29 33.558c-1.58 0-2.29-.386-2.29-1.571s1.39-1.493 2.97-1.493z" style="fill:#d4bca1"/><path d="m19.038 35.177-3.522-1.62.68-3.063 6.865-1.616 8.864 4.9-1.268 8.935c-4.242-.067-8.477-.206-12.535-2.113Z" style="fill:#ffe252"/><path d="m55.23 11.758-5.056 18.017" style="fill:none;stroke:#9f9f9f;stroke-width:1.39999998px;stroke-linecap:round;stroke-linejoin:round"/><path d="M50.174 29.775c-1.67 6.115 1.955 2.426 1.97 2.395" style="fill:none;stroke:#fa4648;stroke-width:1.39999998px;stroke-linecap:round;stroke-linejoin:round"/><path d="M47.528 32.223c1.58 0 2.569-.385 2.569-1.57s-1.67-1.493-3.249-1.493z" style="fill:#d4bca1"/><path d="m43.404 34.966 4.503-2.743-.68-3.063-8.128.07-7.174 4.548.14 9.222c4.243-.067 9.182-.353 12.677-3.245z" style="fill:#ffe252"/><ellipse cx="-43.996" cy="1.552" rx="2.007" ry="2.535" style="fill:#c3a178" transform="rotate(22.746)scale(-1 1)"/><ellipse cx="14.166" cy="25.941" rx="2.007" ry="2.535" style="fill:#c3a178" transform="rotate(-22.746)"/><path d="M43.224 25.09c0 4.517-8.882 10.072-10.777 9.906-3.72-.325-11.891-5.389-11.891-9.906s5.074-8.18 11.334-8.18 11.334 3.662 11.334 8.18" style="opacity:.1"/><path d="M43.224 24.09c0 4.517-8.882 10.072-10.777 9.906-3.72-.325-11.891-5.389-11.891-9.906s5.074-8.18 11.334-8.18 11.334 3.662 11.334 8.18" style="fill:#d4bca1"/><path d="M31.957 14c1.644.866 2.33 2.253 2.928 3.688q-1.002 1.997-3.194.434z" style="fill:#91dc1c"/><path d="M31.957 14c1.699.277 3.376.598 3.86 3.327l-.932.361c-.768-1.435-1.634-2.822-2.928-3.688" style="fill:#7c87e2"/><path d="M28.097 18.327c2.656.947 5.235 1.169 7.72 0C35.688 19.968 37.423 21 32.309 21c-5.115 0-4.295-.53-4.212-2.673" style="opacity:.1"/><path d="M31.957 14c-1.645.866-2.331 2.253-2.929 3.688.935 1.838 2.067 1.12 3.195.434z" style="fill:#e15d85"/><path d="M31.957 14c-1.7.277-3.376.598-3.86 3.327l.931.361c.768-1.435 1.634-2.822 2.929-3.688" style="fill:#ed8061"/><path d="M28.097 17.327c2.656.947 5.235 1.169 7.72 0C35.688 18.968 37.423 20 32.309 20c-5.115 0-4.295-.53-4.212-2.673" style="fill:#ffe252"/><ellipse cx="32" cy="28.38" rx="1.4" ry="1.62" style="fill:#ff5151"/><ellipse cx="32" cy="27.376" rx="2.1" ry="1.162" style="fill:#e6d8c7"/><ellipse cx="32.07" cy="26.438" rx="1.05" ry=".7" style="fill:#3f3f3f"/><path d="M25 50.817c1.217-.55 2.441-1.08 4-.673l-.3 2.185L26.77 54c-1.853-.028-1.396-.826-.852-1.653z" style="fill:#ffe252"/><path d="M52.703 12.964a9.3 9.3 0 0 0-8.812 6.38 5.2 5.2 0 0 1 1.77-.321 5.14 5.14 0 0 1 4.62 2.898 3.1 3.1 0 0 1 1.578-.437c1.593.001 2.909 1.21 3.016 2.761a5.15 5.15 0 0 1 3.39-1.28 5.14 5.14 0 0 1 3.485 1.374c.16-.68.242-1.38.246-2.078a9.295 9.295 0 0 0-9.293-9.297m-41.41 2.137A9.295 9.295 0 0 0 2 24.398c.004.699.086 1.394.246 2.074a5.14 5.14 0 0 1 3.484-1.375 5.15 5.15 0 0 1 3.391 1.281c.107-1.552 1.427-2.756 3.02-2.758a3.07 3.07 0 0 1 1.574.438 5.15 5.15 0 0 1 4.625-2.902c.604.002 1.2.11 1.765.32a9.29 9.29 0 0 0-8.812-6.375" style="opacity:.1"/><path d="M11.294 14.1A9.296 9.296 0 0 0 2 23.397c.004.698.086 1.395.246 2.075a5.14 5.14 0 0 1 3.486-1.373 5.14 5.14 0 0 1 3.388 1.28c.107-1.552 1.427-2.758 3.02-2.759a3.1 3.1 0 0 1 1.577.438 5.14 5.14 0 0 1 4.62-2.902c.605.002 1.204.11 1.77.32a9.3 9.3 0 0 0-8.813-6.376" style="fill:#fa4648"/><path d="M24 23a4 4 0 0 0-4 4 4 4 0 0 0 4 4 4 4 0 0 0 4-4 4 4 0 0 0-4-4m16 0a4 4 0 0 0-4 4 4 4 0 0 0 4 4 4 4 0 0 0 4-4 4 4 0 0 0-4-4" style="opacity:.1"/><circle cx="24" cy="26" r="4" style="fill:#fff"/><circle cx="24" cy="26" r="1" style="fill:#3f3f3f"/><path d="M52.703 11.966a9.296 9.296 0 0 1 9.294 9.297 9.3 9.3 0 0 1-.246 2.075 5.14 5.14 0 0 0-3.486-1.373 5.14 5.14 0 0 0-3.388 1.28c-.107-1.552-1.427-2.758-3.019-2.759a3.1 3.1 0 0 0-1.578.438 5.14 5.14 0 0 0-4.62-2.902 5.1 5.1 0 0 0-1.77.32 9.3 9.3 0 0 1 8.813-6.376" style="fill:#fa4648"/><circle cx="40" cy="26" r="4" style="fill:#fff"/><circle cx="40" cy="26" r="1" style="fill:#3f3f3f"/></svg>