<svg xmlns="http://www.w3.org/2000/svg" xmlns:xlink="http://www.w3.org/1999/xlink" width="64" height="64"><defs><radialGradient xlink:href="#a" id="n" cx="15.952" cy="23.011" r="9" fx="15.952" fy="23.011" gradientTransform="matrix(0 5.23445 -5.42596 0 139.16 -59.131)" gradientUnits="userSpaceOnUse"/><radialGradient xlink:href="#b" id="i" cx="12.96" cy="41.102" r="20" fx="12.96" fy="41.102" gradientTransform="matrix(0 2.3555 -2.44168 0 114.66 -6.156)" gradientUnits="userSpaceOnUse"/><radialGradient xlink:href="#c" id="h" cx="13.733" cy="23.247" r="18.499" fx="13.733" fy="23.247" gradientTransform="matrix(0 2.54662 -2.63979 0 75.671 -10.602)" gradientUnits="userSpaceOnUse"/><radialGradient xlink:href="#d" id="k" cx="40.482" cy="44.956" r="3" fx="40.482" fy="44.956" gradientTransform="rotate(-15 -545.648 1179.816)scale(7.77717 5.18478)" gradientUnits="userSpaceOnUse"/><radialGradient xlink:href="#e" id="j" cx="31.427" cy="47.783" r="3" fx="31.427" fy="47.783" gradientTransform="rotate(-15 -294.967 524.836)scale(4.59358 3.06239)" gradientUnits="userSpaceOnUse"/><radialGradient xlink:href="#f" id="m" cx="26.05" cy="27.661" r="3" fx="26.05" fy="27.661" gradientTransform="rotate(-30 -2143.9 1173.102)scale(11.62257 46.10285)" gradientUnits="userSpaceOnUse"/><radialGradient xlink:href="#g" id="l" cx="22.175" cy="47.579" r="6" fx="22.175" fy="47.579" gradientTransform="matrix(5.24372 0 0 2.62186 -94.104 -83.456)" gradientUnits="userSpaceOnUse"/><linearGradient id="b"><stop offset="0" style="stop-color:#ff3a6a;stop-opacity:1"/><stop offset="1" style="stop-color:#df802b;stop-opacity:1"/></linearGradient><linearGradient id="g"><stop offset="0" style="stop-color:#3f3f3f;stop-opacity:1"/><stop offset="1" style="stop-color:#1a1a1a;stop-opacity:1"/></linearGradient><linearGradient id="f"><stop offset="0" style="stop-color:#e4e4e4;stop-opacity:1"/><stop offset="1" style="stop-color:#c3c3c3;stop-opacity:1"/></linearGradient><linearGradient id="e"><stop offset="0" style="stop-color:#ffd428;stop-opacity:1"/><stop offset="1" style="stop-color:#ff7f28;stop-opacity:.99998987"/></linearGradient><linearGradient id="d"><stop offset="0" style="stop-color:#72ba3e;stop-opacity:1"/><stop offset="1" style="stop-color:#9cff56;stop-opacity:1"/></linearGradient><linearGradient id="c"><stop offset="0" style="stop-color:#991a2e;stop-opacity:1"/><stop offset="1" style="stop-color:#992d1a;stop-opacity:1"/></linearGradient><linearGradient id="a"><stop offset="0" style="stop-color:#ee1e56;stop-opacity:1"/><stop offset="1" style="stop-color:#df802b;stop-opacity:1"/></linearGradient><filter id="o" width="1.166" height="1.117" x="-.083" y="-.058" style="color-interpolation-filters:sRGB"><feGaussianBlur stdDeviation="1.343"/></filter></defs><g transform="translate(0 .5)"><path d="M22.2 32h19.6c4.654 0 10.034 4.043 8.4 8.4L46 51.6c-1.634 4.357-3.746 8.4-8.4 8.4H26.4c-4.654 0-6.766-4.043-8.4-8.4l-4.2-11.2c-1.634-4.357 3.746-8.4 8.4-8.4" style="fill:url(#h)"/><path d="M32 29a4.444 2.222 0 0 0-2.533.396 4.444 2.222 0 0 0-2.646-.056 4.444 2.222 0 0 0-2.237.71 4.444 2.222 0 0 0-2.584.29 4.444 2.222 0 0 0-1.797.976 4.444 2.222 0 0 0-2.344.614 4.444 2.222 0 0 0-1.233 1.177A4.444 2.222 0 0 0 14.68 34a4.444 2.222 0 0 0-.578 1.295 4.444 2.222 0 0 0-1.42 1.116 4.444 2.222 0 0 0 .114 1.325A4.444 2.222 0 0 0 12 39a4.444 2.222 0 0 0 .795 1.267 4.444 2.222 0 0 0-.114 1.322 4.444 2.222 0 0 0 1.42 1.12A4.444 2.222 0 0 0 14.679 44a4.444 2.222 0 0 0 1.953.898 4.444 2.222 0 0 0 1.227 1.172 4.444 2.222 0 0 0 2.352.617A4.444 2.222 0 0 0 22 47.66a4.444 2.222 0 0 0 2.592.29 4.444 2.222 0 0 0 2.23.709 4.444 2.222 0 0 0 2.653-.056A4.444 2.222 0 0 0 32 49a4.444 2.222 0 0 0 2.533-.396 4.444 2.222 0 0 0 2.646.056 4.444 2.222 0 0 0 2.237-.71A4.444 2.222 0 0 0 42 47.66a4.444 2.222 0 0 0 1.797-.976 4.444 2.222 0 0 0 2.344-.614 4.444 2.222 0 0 0 1.233-1.177A4.444 2.222 0 0 0 49.32 44a4.444 2.222 0 0 0 .578-1.295 4.444 2.222 0 0 0 1.42-1.116 4.444 2.222 0 0 0-.114-1.325A4.444 2.222 0 0 0 52 39a4.444 2.222 0 0 0-.795-1.267 4.444 2.222 0 0 0 .114-1.322 4.444 2.222 0 0 0-1.42-1.12A4.444 2.222 0 0 0 49.321 34a4.444 2.222 0 0 0-1.953-.898 4.444 2.222 0 0 0-1.227-1.172 4.444 2.222 0 0 0-2.352-.617A4.444 2.222 0 0 0 42 30.34a4.444 2.222 0 0 0-2.592-.29 4.444 2.222 0 0 0-2.23-.709 4.444 2.222 0 0 0-2.653.056A4.444 2.222 0 0 0 32 29" style="fill:url(#i)"/><ellipse cx="38" cy="41" rx="3" ry="2" style="fill:url(#j)"/><ellipse cx="45" cy="38" rx="3" ry="2" style="fill:url(#k)"/><ellipse cx="32" cy="35" rx="6" ry="3" style="fill:url(#l);stroke:none"/><path d="M32 33V15.2" style="fill:none;stroke:url(#m);stroke-width:6;stroke-linecap:round"/><circle cx="32" cy="12" r="9" style="fill:url(#n)"/></g><g style="fill:none;stroke:#000;stroke-width:.2;stroke-dasharray:none;stroke-opacity:1;filter:url(#o)" transform="translate(47.363 -1.219)"><path d="M1.33 46.137a4.444 2.222 0 0 1-1.32.476 4.444 2.222 0 0 1-1.233 1.176 4.444 2.222 0 0 1-2.343.615 4.444 2.222 0 0 1-1.797.977 4.444 2.222 0 0 1-2.584.289 4.444 2.222 0 0 1-2.239.709 4.444 2.222 0 0 1-2.644-.055 4.444 2.222 0 0 1-2.533.395 4.444 2.222 0 0 1-2.526-.395 4.444 2.222 0 0 1-2.654.055 4.444 2.222 0 0 1-2.228-.71 4.444 2.222 0 0 1-2.592-.288 4.444 2.222 0 0 1-1.79-.975 4.444 2.222 0 0 1-2.35-.617 4.444 2.222 0 0 1-1.23-1.172 4.444 2.222 0 0 1-1.324-.478l2.694 7.181c1.634 4.358 3.747 8.399 8.4 8.399h11.2c4.653 0 6.766-4.041 8.4-8.399z" style="fill:none;stroke:#000;stroke-width:.2;stroke-dasharray:none;stroke-opacity:1"/><path d="M-19.455 30.984a4.444 2.222 0 0 0-1.088.077 4.444 2.222 0 0 0-2.236.709 4.444 2.222 0 0 0-2.584.289 4.444 2.222 0 0 0-1.797.976 4.444 2.222 0 0 0-2.344.613 4.444 2.222 0 0 0-1.234 1.178 4.444 2.222 0 0 0-1.948.893 4.444 2.222 0 0 0-.576 1.295 4.444 2.222 0 0 0-1.422 1.117 4.444 2.222 0 0 0 .116 1.324 4.444 2.222 0 0 0-.795 1.264 4.444 2.222 0 0 0 .795 1.267 4.444 2.222 0 0 0-.116 1.323 4.444 2.222 0 0 0 1.422 1.119 4.444 2.222 0 0 0 .576 1.29 4.444 2.222 0 0 0 1.954.9 4.444 2.222 0 0 0 1.228 1.171 4.444 2.222 0 0 0 2.352.617 4.444 2.222 0 0 0 1.789.975 4.444 2.222 0 0 0 2.592.289 4.444 2.222 0 0 0 2.228.709 4.444 2.222 0 0 0 2.654-.055 4.444 2.222 0 0 0 2.526.395 4.444 2.222 0 0 0 2.533-.395 4.444 2.222 0 0 0 2.644.055 4.444 2.222 0 0 0 2.239-.71 4.444 2.222 0 0 0 2.584-.288 4.444 2.222 0 0 0 1.797-.977 4.444 2.222 0 0 0 2.343-.615A4.444 2.222 0 0 0 .01 46.613a4.444 2.222 0 0 0 1.947-.894 4.444 2.222 0 0 0 .578-1.293 4.444 2.222 0 0 0 1.42-1.117 4.444 2.222 0 0 0-.113-1.325 4.444 2.222 0 0 0 .795-1.265 4.444 2.222 0 0 0-.795-1.266 4.444 2.222 0 0 0 .113-1.322 4.444 2.222 0 0 0-1.42-1.12 4.444 2.222 0 0 0-.578-1.292 4.444 2.222 0 0 0-1.953-.899 4.444 2.222 0 0 0-1.227-1.172 4.444 2.222 0 0 0-2.351-.615 4.444 2.222 0 0 0-1.79-.974 4.444 2.222 0 0 0-2.591-.29 4.444 2.222 0 0 0-2.23-.708 4.444 2.222 0 0 0-2.178-.016v3.076a6 3 0 0 1 3 2.598 6 3 0 0 1-6 3 6 3 0 0 1-6-3 6 3 0 0 1 3-2.598v-3.076a4.444 2.222 0 0 0-1.092-.06zm17.092 6.735a3 2 0 0 1 3 2 3 2 0 0 1-3 2 3 2 0 0 1-3-2 3 2 0 0 1 3-2zm-7 3a3 2 0 0 1 3 2 3 2 0 0 1-3 2 3 2 0 0 1-3-2 3 2 0 0 1 3-2z" style="fill:none;stroke:#000;stroke-width:.2;stroke-dasharray:none;stroke-opacity:1"/><path d="M-9.363 40.719a3 2 0 0 0-3 2 3 2 0 0 0 3 2 3 2 0 0 0 3-2 3 2 0 0 0-3-2zm7-3a3 2 0 0 0-3 2 3 2 0 0 0 3 2 3 2 0 0 0 3-2 3 2 0 0 0-3-2zm-16-3.598a6 3 0 0 0-3 2.598 6 3 0 0 0 6 3 6 3 0 0 0 6-3 6 3 0 0 0-3-2.598v.598a3 3 0 0 1-3 3 3 3 0 0 1-3-3z" style="fill:none;stroke:#000;stroke-width:.2;stroke-dasharray:none;stroke-opacity:1"/><path d="M-18.363 22.203V34.72a3 3 0 0 0 3 3 3 3 0 0 0 3-3V22.203a9 9 0 0 1-3 .516 9 9 0 0 1-3-.516z" style="baseline-shift:baseline;display:inline;overflow:visible;opacity:1;fill:none;stroke:#000;stroke-width:.2;stroke-linecap:round;stroke-dasharray:none;stroke-opacity:1;enable-background:accumulate;stop-color:#000;stop-opacity:1"/><path d="M-15.363 4.719a9 9 0 0 0-9 9 9 9 0 0 0 9 9 9 9 0 0 0 9-9 9 9 0 0 0-9-9z" style="fill:none;stroke:#000;stroke-width:.2;stroke-dasharray:none;stroke-opacity:1"/></g></svg>