<svg xmlns="http://www.w3.org/2000/svg" xmlns:xlink="http://www.w3.org/1999/xlink" width="64" height="64"><defs><radialGradient xlink:href="#a" id="f" cx="12.127" cy="52.151" r="23.034" fx="12.127" fy="52.151" gradientTransform="rotate(-30 -188.531 157.972)scale(3.1935)" gradientUnits="userSpaceOnUse"/><radialGradient xlink:href="#c" id="e" cx="5.483" cy="54.561" r="28" fx="5.483" fy="54.561" gradientTransform="rotate(-15 -498.506 169.855)scale(3.4576)" gradientUnits="userSpaceOnUse"/><radialGradient xlink:href="#d" id="g" cx="23.133" cy="45.98" r="28" fx="23.133" fy="45.98" gradientTransform="rotate(-15 -73.461 26.37)scale(1.12213 1.2849)" gradientUnits="userSpaceOnUse"/><linearGradient id="c"><stop offset="0" style="stop-color:#3f3f3f;stop-opacity:1"/><stop offset="1" style="stop-color:#151515;stop-opacity:1"/></linearGradient><linearGradient id="a"><stop offset="0" style="stop-color:#696969;stop-opacity:1"/><stop offset="1" style="stop-color:#d6d6d6;stop-opacity:1"/></linearGradient><linearGradient id="d"><stop offset="0" style="stop-color:#328fff;stop-opacity:1"/><stop offset="1" style="stop-color:#00e0ff;stop-opacity:1"/></linearGradient><filter id="h" width="1.168" height="1.168" x="-.084" y="-.084" style="color-interpolation-filters:sRGB"><feGaussianBlur stdDeviation="1.893"/></filter><filter id="i" width="1.237" height="1.237" x="-.119" y="-.118" style="color-interpolation-filters:sRGB"><feGaussianBlur stdDeviation="1.472"/></filter><filter id="j" width="1.132" height="1.132" x="-.066" y="-.066" style="color-interpolation-filters:sRGB"><feGaussianBlur stdDeviation="1.472"/></filter></defs><path d="M59.48 31.464A26.877 26.877 0 0 1 32.603 58.34 26.877 26.877 0 0 1 5.727 31.464 26.877 26.877 0 0 1 32.603 4.587 26.877 26.877 0 0 1 59.48 31.464" style="fill:url(#e);stroke-width:.959882"/><path d="M52.1 11.967 7.88 24.251l31.936 31.936Zm-8.276 8.276L36.91 45.136l-17.98-17.98z" style="color:#000;fill:url(#f);stroke-width:.959882;-inkscape-stroke:none"/><path d="M47.962 6.506a9.6 9.6 0 0 0-9.6 9.599 9.6 9.6 0 0 0 9.6 9.599 9.6 9.6 0 0 0 9.598-9.6 9.6 9.6 0 0 0-9.598-9.598m-34.556 9.599a9.6 9.6 0 0 0-9.599 9.599 9.6 9.6 0 0 0 9.599 9.599 9.6 9.6 0 0 0 9.599-9.6 9.6 9.6 0 0 0-9.6-9.598m24.957 24.957a9.6 9.6 0 0 0-9.599 9.599 9.6 9.6 0 0 0 9.599 9.598 9.6 9.6 0 0 0 9.599-9.598 9.6 9.6 0 0 0-9.6-9.6" style="fill:url(#g);stroke-width:.959882"/><path d="M33.102 2.824c-9.772 0-18.37 5.01-23.38 12.596a10 10 0 0 1 3.38-.598c3.514 0 6.599 1.817 8.382 4.559l17.635-4.899a10 10 0 0 1 6.135-8.888 27.9 27.9 0 0 0-12.152-2.77Zm25.23 15.846c-1.467 3.509-4.88 6-8.89 6.135l-4.899 17.634c2.742 1.784 4.559 4.869 4.559 8.383a10 10 0 0 1-.6 3.383c7.589-5.009 12.6-13.608 12.6-23.38a27.9 27.9 0 0 0-2.77-12.155zm-17.613 1.594-17.635 4.898a9.94 9.94 0 0 1-1.12 4.281L34.48 41.96a9.94 9.94 0 0 1 4.282-1.12l4.898-17.634a10 10 0 0 1-2.941-2.941ZM5.102 30.807v.017c0 15.464 12.536 28 28 28h.02c-2.437-1.824-4.02-4.724-4.02-8.002 0-1.668.414-3.236 1.136-4.619L17.721 33.686a9.94 9.94 0 0 1-4.62 1.136c-3.275 0-6.175-1.581-8-4.015z" style="mix-blend-mode:normal;fill:none;stroke:#000;stroke-width:.3;stroke-dasharray:none;filter:url(#h)" transform="translate(.804 1.757)scale(.95988)"/><path d="m39.12 14.482-17.636 4.899a9.94 9.94 0 0 1 1.618 5.441c0 .115-.014.226-.018.34l17.635-4.898a9.94 9.94 0 0 1-1.617-5.442c0-.115.013-.226.017-.34zm4.54 8.723L38.762 40.84c.114-.004.225-.018.34-.018 2.008 0 3.874.598 5.441 1.617l4.898-17.634c-.114.003-.225.017-.34.017a9.94 9.94 0 0 1-5.44-1.617zm-21.695 6.238a10.04 10.04 0 0 1-4.244 4.243l12.517 12.517a10.04 10.04 0 0 1 4.242-4.244z" style="mix-blend-mode:normal;fill:none;stroke:#000;stroke-width:.3;stroke-dasharray:none;filter:url(#i)" transform="translate(.87 1.757)scale(.95988)"/><path d="M49.102 4.822a10 10 0 0 0-10 10 10 10 0 0 0 10 10 10 10 0 0 0 10-10 10 10 0 0 0-10-10zm-36 10a10 10 0 0 0-10 10 10 10 0 0 0 10 10 10 10 0 0 0 10-10 10 10 0 0 0-10-10zm26 26a10 10 0 0 0-10 10 10 10 0 0 0 10 10 10 10 0 0 0 10-10 10 10 0 0 0-10-10z" style="mix-blend-mode:normal;fill:none;stroke:#000;stroke-width:.3;stroke-dasharray:none;filter:url(#j)" transform="translate(.87 1.757)scale(.95988)"/></svg>