<svg xmlns="http://www.w3.org/2000/svg" xmlns:xlink="http://www.w3.org/1999/xlink" width="64" height="64"><defs><radialGradient xlink:href="#a" id="b" cx="34.563" cy="41.981" r="23.829" fx="34.563" fy="41.981" gradientTransform="rotate(195 79.88 74.977)scale(3.46004 3.1746)" gradientUnits="userSpaceOnUse"/><radialGradient xlink:href="#a" id="c" cx="34.563" cy="41.981" r="23.829" fx="34.563" fy="41.981" gradientTransform="rotate(195 85.829 81.766)scale(3.81103 3.49664)" gradientUnits="userSpaceOnUse"/><linearGradient id="a"><stop offset="0" style="stop-color:#83d03e;stop-opacity:1"/><stop offset="1" style="stop-color:#3cbbca;stop-opacity:1"/></linearGradient><filter id="d" width="1.047" height="1.066" x="-.024" y="-.033" style="color-interpolation-filters:sRGB"><feGaussianBlur stdDeviation=".504"/></filter></defs><rect width="26.68" height="9.944" x="18.191" y="25.79" rx="6.533" ry="6.533" style="opacity:.939549;fill:#fff;fill-rule:evenodd;stroke:#fff;stroke-width:2.701;stroke-linecap:round;stroke-linejoin:round"/><path d="M39.205 27.311v3.078a.627.627 45 0 0 .627.628h3.079a.627.627 135 0 0 .627-.628v-3.078a.627.627 45 0 0-.627-.627h-3.079a.627.627 135 0 0-.627.627m-17.33 0v3.078a.627.627 45 0 0 .627.628h3.078a.627.627 135 0 0 .627-.628v-3.078a.627.627 45 0 0-.627-.627h-3.078a.627.627 135 0 0-.627.627m.627 16.703h7.41a.627.627 45 0 1 .628.628v3.078a.627.627 135 0 1-.627.627h-7.411a.627.627 45 0 1-.627-.627v-3.078a.627.627 135 0 1 .627-.628m21.036.628v3.078a.627.627 135 0 1-.627.627H35.5a.627.627 45 0 1-.627-.627v-3.078a.627.627 135 0 1 .627-.628h7.41a.627.627 45 0 1 .628.628m0-27.25v-3.079a.627.627 135 0 1 .627-.627h3.078a.627.627 45 0 1 .627.627v3.079a.627.627 135 0 1-.627.627h-3.078a.627.627 45 0 1-.627-.627m-21.036.627h3.078a.627.627 45 0 1 .627.627v3.078a.627.627 45 0 0 .628.627h11.743a.627.627 135 0 0 .627-.627v-3.078a.627.627 135 0 1 .627-.627h3.079a.627.627 45 0 1 .627.627v3.078a.627.627 45 0 0 .627.627h3.078a.627.627 45 0 1 .627.628v3.078a.627.627 45 0 0 .628.627h3.078a.627.627 45 0 1 .627.627v3.078a.627.627 45 0 0 .627.628h3.078a.627.627 45 0 1 .628.627v11.743a.627.627 135 0 1-.628.627H52.83a.627.627 45 0 1-.627-.627v-7.41a.627.627 45 0 0-.627-.628h-3.078a.627.627 135 0 0-.628.627v7.411a.627.627 135 0 1-.627.627h-3.078a.627.627 45 0 1-.627-.627V40.31a.627.627 45 0 0-.627-.627H22.5a.627.627 135 0 0-.626.627v3.078a.627.627 135 0 1-.627.627h-3.079a.627.627 45 0 1-.627-.627v-7.41a.627.627 45 0 0-.627-.628h-3.078a.627.627 135 0 0-.627.627v7.411a.627.627 135 0 1-.628.627H9.504a.627.627 45 0 1-.627-.627V31.644a.627.627 135 0 1 .627-.627h3.078a.627.627 135 0 0 .628-.628v-3.078a.627.627 135 0 1 .627-.627h3.078a.627.627 135 0 0 .627-.627v-3.078a.627.627 135 0 1 .627-.628h3.079a.627.627 135 0 0 .627-.627v-3.078a.627.627 135 0 1 .627-.627m-4.333-4.333h3.079a.627.627 45 0 1 .627.627v3.079a.627.627 135 0 1-.627.627h-3.079a.627.627 45 0 1-.627-.627v-3.079a.627.627 135 0 1 .627-.627" style="opacity:1;fill:#00744c;fill-rule:evenodd;stroke-width:0;stroke-miterlimit:4;fill-opacity:1" transform="translate(-4.024 -2.163)scale(1.10144)"/><path d="M39.205 27.311v3.078a.627.627 45 0 0 .627.628h3.079a.627.627 135 0 0 .627-.628v-3.078a.627.627 45 0 0-.627-.627h-3.079a.627.627 135 0 0-.627.627m-17.33 0v3.078a.627.627 45 0 0 .627.628h3.078a.627.627 135 0 0 .627-.628v-3.078a.627.627 45 0 0-.627-.627h-3.078a.627.627 135 0 0-.627.627m.627 16.703h7.41a.627.627 45 0 1 .628.628v3.078a.627.627 135 0 1-.627.627h-7.411a.627.627 45 0 1-.627-.627v-3.078a.627.627 135 0 1 .627-.628m21.036.628v3.078a.627.627 135 0 1-.627.627H35.5a.627.627 45 0 1-.627-.627v-3.078a.627.627 135 0 1 .627-.628h7.41a.627.627 45 0 1 .628.628m0-27.25v-3.079a.627.627 135 0 1 .627-.627h3.078a.627.627 45 0 1 .627.627v3.079a.627.627 135 0 1-.627.627h-3.078a.627.627 45 0 1-.627-.627m-21.036.627h3.078a.627.627 45 0 1 .627.627v3.078a.627.627 45 0 0 .628.627h11.743a.627.627 135 0 0 .627-.627v-3.078a.627.627 135 0 1 .627-.627h3.079a.627.627 45 0 1 .627.627v3.078a.627.627 45 0 0 .627.627h3.078a.627.627 45 0 1 .627.628v3.078a.627.627 45 0 0 .628.627h3.078a.627.627 45 0 1 .627.627v3.078a.627.627 45 0 0 .627.628h3.078a.627.627 45 0 1 .628.627v11.743a.627.627 135 0 1-.628.627H52.83a.627.627 45 0 1-.627-.627v-7.41a.627.627 45 0 0-.627-.628h-3.078a.627.627 135 0 0-.628.627v7.411a.627.627 135 0 1-.627.627h-3.078a.627.627 45 0 1-.627-.627V40.31a.627.627 45 0 0-.627-.627H22.5a.627.627 135 0 0-.626.627v3.078a.627.627 135 0 1-.627.627h-3.079a.627.627 45 0 1-.627-.627v-7.41a.627.627 45 0 0-.627-.628h-3.078a.627.627 135 0 0-.627.627v7.411a.627.627 135 0 1-.628.627H9.504a.627.627 45 0 1-.627-.627V31.644a.627.627 135 0 1 .627-.627h3.078a.627.627 135 0 0 .628-.628v-3.078a.627.627 135 0 1 .627-.627h3.078a.627.627 135 0 0 .627-.627v-3.078a.627.627 135 0 1 .627-.628h3.079a.627.627 135 0 0 .627-.627v-3.078a.627.627 135 0 1 .627-.627m-4.333-4.333h3.079a.627.627 45 0 1 .627.627v3.079a.627.627 135 0 1-.627.627h-3.079a.627.627 45 0 1-.627-.627v-3.079a.627.627 135 0 1 .627-.627" style="fill:url(#b);fill-rule:evenodd;stroke-width:0;stroke-miterlimit:4;opacity:.72409676" transform="translate(-4.024 -2.163)scale(1.10144)"/><path d="M16.047 13.662v3.272h3.271v-3.272zm28.633 0v3.272h3.273v-3.272zm-23.86 4.772v3.332c0 .786-.654 1.441-1.441 1.441h-3.332v3.33c0 .787-.655 1.442-1.442 1.442h-3.33v3.33c0 .786-.654 1.441-1.441 1.441h-3.33v12.816h3.271v-8.103c0-.787.653-1.442 1.44-1.442h3.39c.787 0 1.442.655 1.442 1.442v8.103h3.271v-3.332c0-.786.655-1.441 1.442-1.441h22.478c.787 0 1.442.655 1.442 1.441v3.332h3.273v-8.103c0-.787.655-1.442 1.442-1.442h3.388c.787 0 1.442.655 1.442 1.442v8.103h3.273V32.75h-3.332a1.453 1.453 0 0 1-1.441-1.441v-3.33h-3.33a1.453 1.453 0 0 1-1.442-1.442v-3.33H44.62a1.45 1.45 0 0 1-1.437-1.441v-3.332h-3.274v3.332c0 .786-.654 1.441-1.441 1.441H25.53a1.45 1.45 0 0 1-1.437-1.441v-3.332zm-.06 8.045h3.39c.787 0 1.442.652 1.442 1.439v3.39c0 .787-.655 1.442-1.442 1.442h-3.39a1.453 1.453 0 0 1-1.442-1.441v-3.391c0-.787.655-1.44 1.442-1.44m19.088 0h3.39c.787 0 1.442.652 1.442 1.439v3.39c0 .787-.655 1.442-1.442 1.442h-3.39c-.787 0-1.44-.655-1.44-1.441v-3.391c0-.787.653-1.44 1.44-1.44M20.82 47.066v3.272h8.045v-3.272zm14.315 0v3.272h8.047v-3.272z" style="baseline-shift:baseline;display:inline;overflow:visible;vector-effect:none;fill:url(#c);fill-rule:evenodd;stroke-width:1.10144;enable-background:accumulate;stop-color:#000;opacity:1;filter:url(#d)"/></svg>