<svg xmlns="http://www.w3.org/2000/svg" width="64" height="64"><circle cx="32" cy="33" r="28" style="opacity:.2"/><circle cx="32" cy="32" r="28" style="fill:#b5b5b5"/><path d="M32 13a3 3 0 0 0-3 3 3 3 0 0 0 1.654 2.678l-3.845 7.66-8.885 2.004A3 3 0 0 0 15 26a3 3 0 0 0-3 3 3 3 0 0 0 3 3 3 3 0 0 0 2.344-1.13l6.256 4.987-1.174 8.178A3 3 0 0 0 22 44a3 3 0 0 0-3 3 3 3 0 0 0 3 3 3 3 0 0 0 3-3 3 3 0 0 0-.346-1.396L32 41.738l7.348 3.866A3 3 0 0 0 39 47a3 3 0 0 0 3 3 3 3 0 0 0 3-3 3 3 0 0 0-3-3 3 3 0 0 0-.426.033L40.4 35.857l6.254-4.986A3 3 0 0 0 49 32a3 3 0 0 0 3-3 3 3 0 0 0-3-3 3 3 0 0 0-2.924 2.342l-8.885-2.004-3.845-7.658A3 3 0 0 0 35 16a3 3 0 0 0-3-3" style="opacity:.2"/><circle cx="32" cy="32" r="21" style="opacity:.4"/><path d="m23.308 11.006 3.709 7.662 8.434 1.972-6.143 5.08 1.143 8.26-7.143-3.9-7.143 3.9 1.143-8.26-6.143-5.08 8.435-1.972z" style="fill:#e5e5e5" transform="matrix(1.4 0 0 1.34938 -.632 .15)"/><circle cx="32" cy="15" r="3" style="fill:#e5e5e5"/><circle cx="15" cy="28" r="3" style="fill:#e5e5e5"/><circle cx="49" cy="28" r="3" style="fill:#e5e5e5"/><circle cx="22" cy="46" r="3" style="fill:#e5e5e5"/><circle cx="42" cy="46" r="3" style="fill:#e5e5e5"/><path d="M32 4A28 28 0 0 0 4 32a28 28 0 0 0 .021.586A28 28 0 0 1 32 5a28 28 0 0 1 27.979 27.414L60 32A28 28 0 0 0 32 4" style="fill:#fff;opacity:.2"/><path d="M32 11a21 21 0 0 0-21 21 21 21 0 0 0 .021.586A21 21 0 0 1 32 12a21 21 0 0 1 20.979 20.414A21 21 0 0 0 53 32a21 21 0 0 0-21-21" style="opacity:.2"/><path d="M52.979 32.414A21 21 0 0 1 32 53a21 21 0 0 1-20.979-20.414A21 21 0 0 0 11 33a21 21 0 0 0 21 21 21 21 0 0 0 21-21 21 21 0 0 0-.021-.586" style="opacity:.2;fill:#fff"/></svg>