<svg xmlns="http://www.w3.org/2000/svg" width="64" height="64"><path d="M9.446 58.904c-1.231-1.282-2.706-1.66-4.214-.613-1.36-2.758 1.706-5.217 1.762-8.128.321-2.402 4.174-4.362 1.386-6.506-1.312-.79-3.282-.407-4.363-.237 1.244-2.917 5.746-2.823 5.531.773 1.265 3.367 3.898-1.02 5.446-2.134 1.566-1.582 3.114-3.182 4.671-4.772-1.903-2.062-5.455-2.03-6.575-4.909.341-1.596-3.928-2.199-1.742-2.556 1.179-.127 2.163-1.08 1.25-2.063 2.552.147 4.664 2.917 7.41 1.577 1.718 0 .074-1.025-.39-1.7-1.165-.904-1.581-3.139.451-1.804 3.54.248-2.23-1.737-2.18-3.426-.457-1.244-2.862-2.743-.366-2.09 3.846.609-.298-2.994-1.859-3.304-1.16-.129-3.526-2.078-3.287-2.646 1.357.153 4.615-.505 1.817-1.788-.907-.58-4.995-.728-4.137-1.49 2.19-1.567 4.922-2.998 7.284-.999 1.288.85-.31-1.915 1.474-.44 1.075.434 3.188 2.84 2.13.087.005-1.698-4.854-4.218-1.127-3.578 2.062.037 4.27 3.488 5.378 1.812 1.532.113 3.747 2.337 4.39 2.138 1.046-1.029 3.589 2.388 4.963 3.275 1.635-2.665 2.683 2.415 4.445 2.93 2.24-.2-.465-2.786.252-4.397.082-.95 1.437 1.305 2.067 1.575 2.133 1.334 3.401 3.115 5.585 4.354 3.163 1.663 6.848-1.45 6.348-4.804.06-2.927-3.906-5.212-5.968-2.707-2.082 2 1.121 6.24 2.991 3.245.758-1.612-2.598 2.254-2.981-.97-1.171-3.586 4.777-3.9 5.147-.357 1.159 3.225-2.551 6.759-5.616 4.757-4.029-2.062-2.712-8.597 1.163-10.077 4.819-2.19 10.926 2.467 10.057 7.695.147 2.86-2.151 4.535-3.432 6.579-1.585 3.295 4.227 4.506 3.36.821-.213-1.91-3.023.305-.567-.482 1.906 3.15-3.983 3.04-2.357-.312 1.314-2.896 4.701-.975 4.941 1.85.218 2.56-2.225 3.682-2.99 4.638 2.11 2.482.58 5.886-1.727 7.599-2.865 1.915.88 5.414-1.863 7.328-2.296.742-5.075 4.01-2.147 5.829 2.416.588 5.388 1.937 5.869 4.713.605 3.493-3.256 7.166-6.615 6.28-3.665-.632-3.432-6.634-7.151-7.124-2.673.27-3.497 3.086-4.529 5.134-2.442 2.286-5.23-.48-3.082-3.522 1.458-2.065-4.701.492-5.801-2.602-.417-1.174-1.485-2.879-.655-4.297s1.443-2.748.157-2.773c-1.054-.02-2.446-.444-3.168.472-1.258 1.417-2.755 2.583-3.713 4.233-.111 1.57-1.788 2.864-3.343 3.865-2.2.223-3.523.05-6.842.124-1.95.044-2.1-3.348-2.317-.687-2.074 1.627-.53 5.28 1.933 5.166 1.543-.606 3.842-2.326.653-2.274 1.692-.398-.475-1.984 1.815-1.274 2.173.507.34 2.453.014 3.849-1.24 1.093-3.658 2.767-5.036 1.144" style="opacity:.2"/><path d="M9.446 57.904c-1.231-1.282-2.706-1.66-4.214-.613-1.36-2.758 1.706-5.217 1.762-8.129.321-2.402 4.174-4.361 1.386-6.505-1.312-.79-3.282-.408-4.363-.238 1.244-2.917 5.746-2.822 5.531.773 1.265 3.367 3.898-1.019 5.446-2.133 1.566-1.583 3.114-3.182 4.671-4.772-1.903-2.063-5.455-2.03-6.575-4.91.341-1.595-3.928-2.198-1.742-2.555 1.179-.127 2.163-1.08 1.25-2.064 2.552.147 4.664 2.918 7.41 1.577 1.718.001.074-1.024-.39-1.7-1.165-.903-1.581-3.138.451-1.803 3.54.247-2.23-1.738-2.18-3.427-.457-1.244-2.862-2.742-.366-2.09 3.846.61-.298-2.993-1.859-3.304-1.16-.128-3.526-2.077-3.287-2.645 1.357.152 4.615-.505 1.817-1.788-.907-.581-4.995-.728-4.137-1.491 2.19-1.566 4.922-2.997 7.284-.998 1.288.849-.31-1.915 1.474-.44 1.075.434 3.188 2.84 2.13.087.005-1.699-4.854-4.219-1.127-3.578 2.062.037 4.27 3.488 5.378 1.811 1.532.113 3.747 2.338 4.39 2.138 1.046-1.028 3.589 2.389 4.963 3.275 1.635-2.665 2.683 2.415 4.445 2.93 2.24-.199-.465-2.785.252-4.397.082-.949 1.437 1.306 2.067 1.575 2.133 1.335 3.401 3.115 5.585 4.354 3.163 1.663 6.848-1.45 6.348-4.803.06-2.927-3.906-5.212-5.968-2.708-2.082 2 1.121 6.24 2.991 3.245.758-1.611-2.598 2.255-2.981-.969-1.171-3.587 4.777-3.9 5.147-.357 1.159 3.225-2.551 6.758-5.616 4.756-4.029-2.061-2.712-8.597 1.163-10.077 4.819-2.19 10.926 2.467 10.057 7.696.147 2.86-2.151 4.534-3.432 6.578-1.585 3.296 4.227 4.506 3.36.822-.213-1.91-3.023.304-.567-.483 1.906 3.15-3.983 3.041-2.357-.311 1.314-2.896 4.701-.975 4.941 1.85.218 2.559-2.225 3.682-2.99 4.638 2.11 2.482.58 5.885-1.727 7.599-2.865 1.914.88 5.413-1.863 7.327-2.296.742-5.075 4.01-2.147 5.83 2.416.587 5.388 1.937 5.869 4.713.605 3.493-3.256 7.165-6.615 6.28-3.665-.632-3.432-6.635-7.151-7.124-2.673.269-3.497 3.086-4.529 5.133-2.442 2.286-5.23-.48-3.082-3.522 1.458-2.064-4.701.492-5.801-2.602-.417-1.173-1.485-2.878-.655-4.296s1.443-2.749.157-2.774c-1.054-.02-2.446-.444-3.168.472-1.258 1.417-2.755 2.584-3.713 4.234-.111 1.569-1.788 2.864-3.343 3.864-2.2.223-3.523.05-6.842.124-1.95.044-2.1-3.348-2.317-.686-2.074 1.627-.53 5.28 1.933 5.165 1.543-.605 3.842-2.326.653-2.273 1.692-.398-.475-1.984 1.815-1.275 2.173.508.34 2.454.014 3.85-1.24 1.092-3.658 2.767-5.036 1.144" style="fill:#4e3b96"/><path d="M18.797 5.059c-.67.032-.373.438.185 1.007.213.007.473.03.836.092 2.063.037 4.27 3.487 5.377 1.81 1.532.114 3.747 2.339 4.39 2.14 1.047-1.03 3.59 2.388 4.964 3.275 1.635-2.665 2.683 2.415 4.445 2.93.971-.087.997-.631.791-1.34-.128.181-.372.302-.79.34-1.763-.515-2.81-5.595-4.446-2.93-1.374-.887-3.917-4.304-4.963-3.276-.644.2-2.859-2.025-4.39-2.138-1.109 1.676-3.315-1.774-5.378-1.81-.465-.08-.797-.111-1.021-.1m31.976.322a6.2 6.2 0 0 0-2.79.55c-2.405.92-3.822 3.784-3.59 6.319.161-2.247 1.498-4.52 3.59-5.318 4.344-1.974 9.716 1.619 10.099 6.175.322-4.038-3.404-7.604-7.309-7.726M14.576 8.113c-1.57.07-3.15.996-4.52 1.975-.297.264.02.451.573.611 2.083-1.391 4.55-2.44 6.71-.61 1.289.85-.308-1.916 1.475-.44 1.026.413 2.966 2.572 2.225.382-.441-.038-1.542-1.107-2.225-1.383-1.783-1.475-.186 1.29-1.474.442-.886-.75-1.822-1.018-2.764-.977m35.012 1.149c-.835-.027-1.666.29-2.31 1.072-.048.046-.08.097-.122.145a2.5 2.5 0 0 0 .053.769c.556-2.224 4.91-2.017 5.227 1.004.091.255.142.513.175.77a3.7 3.7 0 0 0-.175-1.77 3 3 0 0 0-.15-.658c-.704-.785-1.704-1.301-2.698-1.332m-10.174 1.424c-.092-.014-.153.052-.168.23-.157.354-.135.756-.05 1.168.016-.056.026-.114.05-.168.082-.949 1.436 1.305 2.066 1.574 2.133 1.335 3.403 3.117 5.586 4.356 3.126 1.643 6.753-1.378 6.358-4.686-.14 1.17-.754 2.236-1.623 2.996-1.15 1.347-3.084 1.982-4.815.852a4.3 4.3 0 0 1-1.455-1.215c-1.358-1.078-2.468-2.312-4.05-3.303-.513-.219-1.502-1.748-1.899-1.804m7.244.794c-.418 2.07 2.054 4.594 3.612 2.098.734-1.56-2.38 1.993-2.928-.7a3.05 3.05 0 0 1-.684-1.398m-31.76 1.499c-.619.327-1.82.465-2.521.386-.087.208.178.6.6 1.02 1.304-.04 3.108-.536 1.921-1.406M57.121 18.8a1.9 1.9 0 0 0-.785.101l-.002.002c-.523.672-1.06 1.33-1.523 2.008-.072.34-.06.637.021.887a3 3 0 0 1 .211-.567c1.286-2.833 4.548-1.051 4.914 1.672a3.5 3.5 0 0 0 .027-.822c-.15-1.765-1.529-3.177-2.863-3.281m-40.318.365c-.761-.084-.268.42.285 1.06.135.026.247.041.435.09 1.711.272 1.837-.294 1.317-1.029-.243.107-.654.132-1.317.027a5 5 0 0 0-.72-.148m40.244 2.076c-.66.113-1.182.795.353.303.129.212.215.407.278.59.083-.187.115-.408.076-.67-.185-.22-.455-.266-.707-.223m-2.65.543c-.676 2.789 4.169 3.656 3.595.432a1.4 1.4 0 0 1-.22.472c-.01 1.573-2.812 1.506-2.993-.195a1.8 1.8 0 0 1-.383-.709m-35.418 2.639c-.391.061-.4.553-.184 1.088.196-.168.597-.126 1.275.32 1.775.124 1.207-.312.207-.992-.072-.004-.124-.002-.207-.008-.508-.334-.863-.444-1.091-.408m-6.381 2.334c.337.364.413.724.318 1.039 2.412.34 4.461 2.823 7.092 1.539 1.19 0 .753-.495.226-1.022-.077.007-.128.022-.226.022-2.746 1.34-4.858-1.431-7.41-1.578m44.81.547a4 4 0 0 0-.414.416c.582.684.88 1.44.969 2.21a4.1 4.1 0 0 0-.555-2.626m-44.613.734c-.262.413-.823.716-1.447.783-1.188.194-.468.467.38.926.885-.238 1.516-.939 1.067-1.709m6.355 8.775c-1.383 1.417-2.763 2.837-4.156 4.245-1.548 1.114-4.18 5.5-5.445 2.132.214-3.595-4.289-3.689-5.533-.771.221-.035.5-.078.783-.12 1.74-1.676 4.931-1.15 4.75 1.893 1.264 3.368 3.897-1.02 5.445-2.134 1.566-1.583 3.115-3.182 4.672-4.772a5 5 0 0 0-.516-.473m35 .215c-.132.935.189 1.976.293 2.963.127-.93-.191-1.972-.293-2.963m-24.09 7.485c-.157.454-.443.991-.767 1.545-.323.55-.355 1.146-.254 1.736a2.2 2.2 0 0 1 .254-.736c.632-1.08 1.13-2.105.768-2.545m-20.755.314c-.379 1.372-2.1 2.758-2.31 4.334-.05 2.561-2.427 4.773-2.073 7.145.274-2.006 2.03-3.947 2.072-6.145.262-1.959 2.87-3.623 2.31-5.334m40.756 1.15c-.203.897.078 1.803 1.197 2.499 2.416.588 5.386 1.936 5.867 4.712.017.099.017.197.027.295a4.4 4.4 0 0 0-.027-1.295c-.481-2.776-3.451-4.124-5.867-4.712-.7-.435-1.065-.953-1.197-1.498m-35.518 6.983c-.35-.001-.801.008-1.209.012-.013.348.308.98-.682 1.213.291-.005.49.018.694.04-.054-.407-.118-.7 1.12-.316.522.122.81.328.946.588.213-.68.138-1.26-.777-1.537zm21.1.168c-.583.9-.75 1.767-.618 2.476.091-.518.321-1.079.723-1.648.353-.5.253-.724-.105-.828m-26.498.693c-.312 1.705 1.014 3.723 2.855 3.637 1.266-.497 3.036-1.744 1.867-2.147-.45.437-1.215.891-1.867 1.147-1.487.07-2.631-1.235-2.855-2.637" style="fill:#fff;opacity:.1"/><path d="M41 19 11 48h6l8.363-8h8.91L31 48h13l1.715-4H38l1.54-4h7.888l2.144-5h-8.111L43 31h8.285L53 27h-9.035L47 19zm-1 7-3.682 9h-5.726z" style="opacity:.2"/><path d="M41 18 11 47h6l8.363-8h8.91L31 47h13l1.715-4H38l1.54-4h7.888l2.144-5h-8.111L43 30h8.285L53 26h-9.035L47 18zm-1 7-3.682 9h-5.726z" style="fill:#fff"/></svg>