<svg xmlns="http://www.w3.org/2000/svg" width="64" height="64"><path d="m26.574 2.5-5.568 9.748a.5.5 0 0 1-.434.252H9.434L4.004 22l5.572 9.752a.5.5 0 0 1 0 .496L4.004 42l5.43 9.5h11.138a.5.5 0 0 1 .434.252l5.57 9.748h10.848l5.57-9.748a.5.5 0 0 1 .434-.252h11.138l5.43-9.5-5.572-9.752a.5.5 0 0 1 0-.496L59.996 22l-5.43-9.5H43.428a.5.5 0 0 1-.434-.252L37.424 2.5zm-.289 19h11.43a.5.5 0 0 1 .433.252l5.713 10a.5.5 0 0 1 0 .496l-5.713 10a.5.5 0 0 1-.433.252h-11.43a.5.5 0 0 1-.433-.252l-5.713-10a.5.5 0 0 1 0-.496l5.713-10a.5.5 0 0 1 .433-.252" style="fill:#e4e4e4"/><path d="m15.147 12 3.464 6-3.464 6H8.22l-3.464-6 3.464-6z" style="opacity:.2" transform="matrix(1.64957 0 0 1.66667 29.87 -7)"/><path d="m15.147 12 3.464 6-3.464 6H8.22l-3.464-6 3.464-6z" style="opacity:.2" transform="matrix(1.64957 0 0 1.66667 12.728 23)"/><path d="m15.147 12 3.464 6-3.464 6H8.22l-3.464-6 3.464-6z" style="fill:#fb8902" transform="matrix(1.64957 0 0 1.66667 29.87 -8)"/><path d="m15.147 12 3.464 6-3.464 6H8.22l-3.464-6 3.464-6z" style="fill:#e4e4e4" transform="matrix(1.64957 0 0 1.66667 12.728 22)"/><path d="m15.147 12 3.464 6-3.464 6H8.22l-3.464-6 3.464-6z" style="opacity:.2" transform="matrix(1.64957 0 0 1.66667 29.87 13)"/><path d="m15.147 12 3.464 6-3.464 6H8.22l-3.464-6 3.464-6z" style="fill:#e4e4e4" transform="matrix(1.64957 0 0 1.66667 29.87 12)"/><path d="m15.147 12 3.464 6-3.464 6H8.22l-3.464-6 3.464-6z" style="opacity:.2" transform="matrix(1.64957 0 0 1.66667 -4.415 13)"/><path d="m15.147 12 3.464 6-3.464 6H8.22l-3.464-6 3.464-6z" style="fill:#e4e4e4" transform="matrix(1.64957 0 0 1.66667 -4.415 12)"/><path d="m15.147 12 3.464 6-3.464 6H8.22l-3.464-6 3.464-6z" style="opacity:.2" transform="matrix(1.64957 0 0 1.66667 -4.415 -7)"/><path d="m15.147 12 3.464 6-3.464 6H8.22l-3.464-6 3.464-6z" style="fill:#e4e4e4" transform="matrix(1.64957 0 0 1.66667 -4.415 -8)"/><path d="m15.147 12 3.464 6-3.464 6H8.22l-3.464-6 3.464-6z" style="opacity:.2" transform="matrix(1.64957 0 0 1.66667 12.728 -17)"/><path d="m15.147 12 3.464 6-3.464 6H8.22l-3.464-6 3.464-6z" style="fill:#e4e4e4" transform="matrix(1.64957 0 0 1.66667 12.728 -18)"/><path d="M26.285 2 20.57 12l.285.5 5.43-9.5h11.43l5.43 9.5.285-.5-5.715-10z" style="opacity:.2;fill:#fff"/><path d="m43.43 12-.57 1 .285.5.285-.5h11.425l5.43 9.5.285-.5-5.715-10zM9.145 12 3.43 22l.285.5 5.43-9.5H20.57l.285.5.286-.5-.57-1zM43.43 32l-5.715 10 .285.5 5.43-9.5h11.425l5.43 9.5.285-.5-5.715-10zM26.285 42l-.57 1 .285.5.285-.5h11.43l.285.5.285-.5-.57-1z" style="opacity:.2;fill:#fff"/></svg>