<svg xmlns="http://www.w3.org/2000/svg" width="64" height="64"><path d="M39.37 5.492a14.21 14.21 0 0 0-17.44 10.069A14.207 14.207 0 0 0 4.493 25.629 14.21 14.21 0 0 0 14.56 43.07a14.21 14.21 0 0 0 10.07 17.438 14.21 14.21 0 0 0 17.439-10.069 14.21 14.21 0 0 0 17.439-10.068 14.21 14.21 0 0 0-10.069-17.44A14.21 14.21 0 0 0 39.371 5.494Z" style="opacity:.2"/><path d="M39.37 4.493A14.21 14.21 0 0 0 21.93 14.56 14.207 14.207 0 0 0 4.493 24.629 14.21 14.21 0 0 0 14.56 42.07a14.21 14.21 0 0 0 10.07 17.438 14.21 14.21 0 0 0 17.439-10.069 14.21 14.21 0 0 0 17.439-10.068 14.21 14.21 0 0 0-10.069-17.44A14.21 14.21 0 0 0 39.371 4.494Z" style="fill:#c53b7c"/><path d="M35.107 4.01a14.21 14.21 0 0 0-13.175 10.55 14.21 14.21 0 0 0-17.44 10.07 14.3 14.3 0 0 0-.47 4.387 14.3 14.3 0 0 1 .47-3.387 14.21 14.21 0 0 1 17.44-10.068 14.207 14.207 0 0 1 17.437-10.07h.002a14.2 14.2 0 0 1 10.54 13.053A14.194 14.194 0 0 0 39.37 4.492h-.002a14.3 14.3 0 0 0-4.262-.482M49.64 21.996c-.062.312-.118.624-.202.936a14.2 14.2 0 0 1 10.54 13.052A14.19 14.19 0 0 0 49.64 21.996M14.359 43.004a14.3 14.3 0 0 0-.27 3.441 14.3 14.3 0 0 1 .472-3.377c-.07-.018-.133-.045-.202-.064" style="fill:#fff;opacity:.1"/><path d="M16 4c-3.324 0-6 2.676-6 6-3.324 0-6 2.676-6 6s2.676 6 6 6c0 3.324 2.676 6 6 6s6-2.676 6-6c3.324 0 6-2.676 6-6s-2.676-6-6-6c0-3.324-2.676-6-6-6" style="opacity:.2" transform="rotate(60 30.348 32.71)scale(1.96404)"/><path d="M16 4c-3.324 0-6 2.676-6 6-3.324 0-6 2.676-6 6s2.676 6 6 6c0 3.324 2.676 6 6 6s6-2.676 6-6c3.324 0 6-2.676 6-6s-2.676-6-6-6c0-3.324-2.676-6-6-6" style="fill:#dc6ca0" transform="rotate(60 31.214 32.21)scale(1.96404)"/><path d="M16 11.5a3 3 0 0 0-2.732 1.768A3 3 0 0 0 11.5 16a3 3 0 0 0 1.768 2.732A3 3 0 0 0 16 20.5a3 3 0 0 0 2.732-1.768A3 3 0 0 0 20.5 16a3 3 0 0 0-1.768-2.732A3 3 0 0 0 16 11.5" style="opacity:.2" transform="rotate(15 14.35 43.13)scale(1.79855)"/><path d="M16 11.5a3 3 0 0 0-2.732 1.768A3 3 0 0 0 11.5 16a3 3 0 0 0 1.768 2.732A3 3 0 0 0 16 20.5a3 3 0 0 0 2.732-1.768A3 3 0 0 0 20.5 16a3 3 0 0 0-1.768-2.732A3 3 0 0 0 16 11.5" style="fill:#f0a9ca" transform="rotate(15 18.147 42.63)scale(1.79855)"/><g style="fill:#fff;opacity:.1"><path d="M25.797 10.004a11.8 11.8 0 0 0-5.582 1.586 11.75 11.75 0 0 0-5.881 10.73 11.74 11.74 0 0 1 5.88-9.73 11.76 11.76 0 0 1 16.099 4.312 11.76 11.76 0 0 1 16.097 4.313 11.8 11.8 0 0 1 1.569 5.357c.084-2.149-.41-4.35-1.569-6.357a11.76 11.76 0 0 0-16.097-4.313 11.76 11.76 0 0 0-10.516-5.898m-10.28 17.932a11.74 11.74 0 0 0-5.496 10.492 11.74 11.74 0 0 1 5.881-9.74c-.142-.247-.262-.5-.384-.752m32.965 9.128c-.13.082-.25.171-.384.248a11.76 11.76 0 0 1 1.568 5.368 11.7 11.7 0 0 0-1.184-5.616" style="fill:#fff"/></g><g style="fill:#fff;opacity:.2"><path d="M32.492 24.004a5.4 5.4 0 0 0-3.967 1.978 5.4 5.4 0 0 0-4.343 3.922 5.4 5.4 0 0 0-.153 1.887 5.4 5.4 0 0 1 .153-.887 5.4 5.4 0 0 1 4.343-3.922 5.4 5.4 0 0 1 5.57-1.8 5.4 5.4 0 0 1 3.923 4.343 5.4 5.4 0 0 1 1.953 3.682 5.4 5.4 0 0 0-1.953-4.682 5.4 5.4 0 0 0-3.922-4.343 5.4 5.4 0 0 0-1.604-.178" style="fill:#fff"/></g></svg>