<svg xmlns="http://www.w3.org/2000/svg" width="64" height="64"><rect width="56" height="56" x="4" y="5" rx="16.8" ry="16.8" style="opacity:.2"/><rect width="56" height="56" x="4" y="4" rx="16.8" ry="16.8" style="fill:#4980f5"/><path d="M32.164 13C22.104 13 13.6 19.883 12.22 29.57c-.244 1.592 1.23 1.403 1.23 1.403H25.2l-.613.613A2 2 0 0 0 24 33a2 2 0 0 0 .586 1.414 2 2 0 0 0 2.828 0l4-4a2 2 0 0 0 0-2.828l-4-4A2 2 0 0 0 26 23a2 2 0 0 0-1.414.586 2 2 0 0 0 0 2.828l.586.586h-7.656a15.68 15.68 0 0 1 14.648-10c7.595 0 13.903 5.025 15.387 12.168v.004C47.719 30.209 48.613 31 49.664 31c1.184 0 2.145-.988 2.145-2.172.003-.184-.046-.35-.07-.543C49.832 19.23 41.773 13 32.163 13M24 33v-.145q-.014.15 0 .301zm14-2a2 2 0 0 0-1.414.586l-4 4a2 2 0 0 0 0 2.828l4 4A2 2 0 0 0 38 43a2 2 0 0 0 1.414-.586 2 2 0 0 0 0-2.828L38.828 39h7.656a15.68 15.68 0 0 1-14.648 10c-7.595 0-13.903-5.025-15.387-12.168v-.004C16.281 35.791 15.387 35 14.336 35c-1.184 0-2.145.988-2.145 2.172-.003.184.046.35.07.543C14.168 46.77 22.227 53 31.837 53c10.06 0 18.565-6.883 19.945-16.57.244-1.592-1.23-1.403-1.23-1.403H38.8l.613-.613A2 2 0 0 0 40 33a2 2 0 0 0-.586-1.414A2 2 0 0 0 38 31m2 2v.145q.014-.15 0-.301z" style="opacity:.2"/><path d="M32.164 12C22.104 12 13.6 18.883 12.22 28.57c-.244 1.592 1.23 1.403 1.23 1.403H25.2l-.613.613A2 2 0 0 0 24 32a2 2 0 0 0 .586 1.414 2 2 0 0 0 2.828 0l4-4a2 2 0 0 0 0-2.828l-4-4A2 2 0 0 0 26 22a2 2 0 0 0-1.414.586 2 2 0 0 0 0 2.828l.586.586h-7.656a15.68 15.68 0 0 1 14.648-10c7.595 0 13.903 5.025 15.387 12.168v.004C47.719 29.209 48.613 30 49.664 30c1.184 0 2.145-.988 2.145-2.172.003-.184-.046-.35-.07-.543C49.832 18.23 41.773 12 32.163 12M24 32v-.145q-.014.15 0 .301z" style="fill:#fff"/><path d="M38 30a2 2 0 0 0-1.414.586l-4 4A2 2 0 0 0 32.27 37a2 2 0 0 1 .316-.414l4-4a2 2 0 0 1 2.828 0 2 2 0 0 1 .316.414 2 2 0 0 0 .27-1 2 2 0 0 0-.586-1.414A2 2 0 0 0 38 30m2 2v.145q.014-.15 0-.301zm-25.664 2c-1.184 0-2.145.988-2.145 2.172-.003.184.046.35.07.543q.06.278.126.555A2.15 2.15 0 0 1 14.336 36c1.05 0 1.945.79 2.113 1.828v.004C17.933 44.975 24.241 50 31.836 50a15.68 15.68 0 0 0 14.648-10h-.945a15.68 15.68 0 0 1-13.703 8c-7.595 0-13.903-5.025-15.387-12.168v-.004C16.281 34.791 15.387 34 14.336 34m36.277.023-.062.004H40.008q-.002.059-.008.118v-.118a2 2 0 0 1-.586 1.387l-.613.613h11.75s.71-.09 1.062.387q.097-.487.168-.984c.213-1.393-.889-1.421-1.168-1.406M38.828 40l.586.586a2 2 0 0 1 .316.414 2 2 0 0 0 .27-1z" style="fill:#fff;opacity:.2"/><path d="M31.836 52c10.06 0 18.565-6.883 19.946-16.57.243-1.592-1.23-1.403-1.23-1.403h-11.75l.612-.613A2 2 0 0 0 40 32a2 2 0 0 0-.586-1.414 2 2 0 0 0-2.828 0l-4 4a2 2 0 0 0 0 2.828l4 4A2 2 0 0 0 38 42a2 2 0 0 0 1.414-.586 2 2 0 0 0 0-2.828L38.828 38h7.657a15.68 15.68 0 0 1-14.649 10c-7.594 0-13.903-5.025-15.386-12.168v-.004C16.28 34.791 15.387 34 14.336 34c-1.183 0-2.144.988-2.144 2.172-.004.184.045.35.07.543C14.167 45.77 22.226 52 31.836 52M40 32v.145q.015-.15 0-.301z" style="fill:#aec6f8"/><path d="M20.8 4C11.495 4 4 11.494 4 20.8v1C4 12.495 11.494 5 20.8 5h22.4C52.505 5 60 12.494 60 21.8v-1C60 11.495 52.506 4 43.2 4zM38 30a2 2 0 0 0-1.414.586l-4 4a2 2 0 0 0-.522 1.914 2 2 0 0 1 .522-.914l4-4a2 2 0 0 1 2.828 0 2 2 0 0 1 .522.914A2 2 0 0 0 40 32a2 2 0 0 0-.586-1.414A2 2 0 0 0 38 30m2 2v.145q.014-.15 0-.301zm-25.664 2c-1.184 0-2.145.988-2.145 2.172-.003.165.037.316.063.484.23-.941 1.076-1.656 2.082-1.656 1.05 0 1.945.79 2.113 1.828v.004C17.933 43.975 24.241 49 31.836 49a15.68 15.68 0 0 0 14.648-10h-.427a15.68 15.68 0 0 1-14.221 9c-7.595 0-13.903-5.025-15.387-12.168v-.004C16.281 34.791 15.387 34 14.336 34m36.277.021-.062.006H39.717a2 2 0 0 1-.303.387l-.613.613h11.75s.94-.12 1.195.643l.035-.24c.213-1.393-.889-1.423-1.168-1.409M38.828 39l.586.586a2 2 0 0 1 .522.914 2 2 0 0 0-.204-1.5z" style="fill:#fff;opacity:.2"/></svg>