<svg xmlns="http://www.w3.org/2000/svg" width="64" height="64"><rect width="56" height="56" x="4" y="5" ry="4" style="opacity:.2"/><rect width="56" height="56" x="4" y="4" ry="4" style="fill:#37528c"/><path d="M29.309 12c-1.885 0-3.07.894-3.961 1.951-.95 1.126-1.727 2.523-1.97 4.149L22.5 24l4.5 1h-6.691c-1.112 0-3.886.976-4.309 4l-3.5 25H23l3.035-22H30c.349 0 .577.032.744 0a.5.5 0 0 0 .156-.06c.202-.134.317-.49.56-1.4l.142-.938L32.882 21H40l-1.34 9H49l1.99-13.361c.023-.151.03-.304.03-.457 0-1.967-1.818-4.182-4.48-4.182z" style="fill-rule:evenodd;opacity:.2"/><path d="M8 4C5.784 4 4 5.784 4 8v1c0-2.216 1.784-4 4-4h48c2.216 0 4 1.784 4 4V8c0-2.216-1.784-4-4-4z" style="fill-rule:evenodd;fill:#fff;opacity:.1"/><path d="M29.308 11c-1.885 0-3.068.894-3.96 1.951-.95 1.126-1.727 2.524-1.97 4.15L22.5 23l4.5 1h-4v7h7c1 0 1 .261 1.462-1.462L32.882 20H40l-1.34 9H49l1.99-13.361q.032-.226.03-.456c0-1.967-1.818-4.183-4.482-4.183z" style="fill-rule:evenodd;fill:#ffad33"/><path d="M23 24v7h7.744c.313-.06.416-.34.717-1.46l.14-.938L27 24z" style="fill-rule:evenodd;fill:#966214"/><path d="m16 28-3.5 25H23l4-29h-6.692c-1.112 0-3.885.976-4.308 4" style="fill-rule:evenodd;fill:#ffad33"/><path d="M20.309 24c-1.112 0-3.886.976-4.309 4l-3.5 25h.64l3.36-24c.423-3.024 3.197-4 4.309-4h6.052L27 24z" style="fill-rule:evenodd;fill:#fff;opacity:.2"/></svg>