<svg xmlns="http://www.w3.org/2000/svg" width="64" height="64"><rect width="56" height="56" x="4" y="5" rx="8.4" ry="8.4" style="opacity:.2"/><rect width="56" height="56" x="4" y="4" rx="8.4" ry="8.4" style="fill:#0071ff"/><path d="M28.945 13a3 3 0 0 0-.168.012s-.93.215-1.449.328c-7.977 2.076-14.264 8.875-15.285 18.3-.027.461-.038.913-.043 1.36.005.447.016.899.043 1.36 1.02 9.425 7.308 16.224 15.285 18.3.519.113 1.45.328 1.45.328q.174.017.32.008c.678-.05.889-.545.902-1.476v-4.973s.02-.645-1.05-.93A12.995 12.995 0 0 1 18.995 33a12.995 12.995 0 0 1 9.953-12.617c1.071-.285 1.051-.93 1.051-.93V14.48c-.013-.93-.224-1.426-.902-1.476a2 2 0 0 0-.153-.004m6.11 0a2 2 0 0 0-.153.004c-.678.05-.889.545-.902 1.476v4.973s-.02.645 1.05.93A12.995 12.995 0 0 1 45.005 33a12.995 12.995 0 0 1-9.953 12.617c-1.071.285-1.051.93-1.051.93v4.973c.013.93.224 1.427.902 1.476q.146.01.32-.008s.931-.215 1.45-.328c7.977-2.076 14.264-8.875 15.285-18.3.027-.461.038-.913.043-1.36a28 28 0 0 0-.043-1.36c-1.02-9.425-7.308-16.224-15.285-18.3-.519-.113-1.45-.328-1.45-.328a3 3 0 0 0-.167-.012" style="opacity:.2"/><path d="M28.945 12a3 3 0 0 0-.168.012s-.93.215-1.449.328c-7.977 2.076-14.264 8.875-15.285 18.3-.027.461-.038.913-.043 1.36.005.447.016.899.043 1.36 1.02 9.425 7.308 16.224 15.285 18.3.519.113 1.45.328 1.45.328q.174.017.32.008c.678-.05.889-.545.902-1.476v-4.973s.02-.645-1.05-.93A12.995 12.995 0 0 1 18.995 32a12.995 12.995 0 0 1 9.953-12.617c1.071-.285 1.051-.93 1.051-.93V13.48c-.013-.93-.224-1.426-.902-1.476a2 2 0 0 0-.153-.004m6.11 0a2 2 0 0 0-.153.004c-.678.05-.889.545-.902 1.476v4.973s-.02.645 1.05.93A12.995 12.995 0 0 1 45.005 32a12.995 12.995 0 0 1-9.953 12.617c-1.071.285-1.051.93-1.051.93v4.973c.013.93.224 1.427.902 1.476q.146.01.32-.008s.931-.215 1.45-.328c7.977-2.076 14.264-8.875 15.285-18.3.027-.461.038-.913.043-1.36a28 28 0 0 0-.043-1.36c-1.02-9.425-7.308-16.224-15.285-18.3-.519-.113-1.45-.328-1.45-.328a3 3 0 0 0-.167-.012" style="fill:#fff"/><path d="M12.398 4A8.38 8.38 0 0 0 4 12.398v1A8.38 8.38 0 0 1 12.398 5h39.204A8.38 8.38 0 0 1 60 13.398v-1A8.38 8.38 0 0 0 51.602 4z" style="opacity:.2;fill:#fff"/></svg>