<svg xmlns="http://www.w3.org/2000/svg" xmlns:xlink="http://www.w3.org/1999/xlink" width="64" height="64"><defs><filter id="c" width="1.138" height="1.138" x="-.069" y="-.069" style="color-interpolation-filters:sRGB"><feGaussianBlur stdDeviation="1.549"/></filter><filter id="d" width="1.176" height="1.176" x="-.088" y="-.088" style="color-interpolation-filters:sRGB"><feGaussianBlur stdDeviation="1.549"/></filter><filter id="e" width="1.152" height="1.13" x="-.076" y="-.065" style="color-interpolation-filters:sRGB"><feGaussianBlur stdDeviation=".524"/></filter><radialGradient xlink:href="#a" id="b" cx="45.112" cy="45.772" r="28" fx="45.112" fy="45.772" gradientTransform="matrix(0 2.7645 -2.75751 0 194.249 -124.654)" gradientUnits="userSpaceOnUse"/><linearGradient id="a"><stop offset="0" style="stop-color:#f7464b;stop-opacity:1"/><stop offset=".7" style="stop-color:#ffcb58;stop-opacity:1"/><stop offset="1" style="stop-color:#9ed543;stop-opacity:1"/></linearGradient></defs><path d="M87.692 4.221a16.765 16.765 0 0 0-16.801 16.801v22.399c0 9.307 7.493 16.8 16.8 16.8h22.399c9.307 0 16.8-7.493 16.8-16.8V21.022c0-9.307-7.493-16.8-16.8-16.8z" style="fill:url(#b)" transform="translate(-66.89 -.221)"/><path d="M87.89 10.221h22c6.19 0 11 4.811 11 11v22c0 6.19-4.81 11-11 11h-22c-6.188 0-11-4.81-11-11v-22c0-6.189 4.812-11 11-11" style="fill:#3f3f3f" transform="translate(-66.89 -.221)"/><path d="M87.692 4.221a16.765 16.765 0 0 0-16.801 16.801v22.399c0 9.307 7.493 16.8 16.8 16.8h22.399c9.307 0 16.8-7.493 16.8-16.8V21.022c0-9.307-7.493-16.8-16.8-16.8z" style="fill:none;stroke:#000;stroke-width:.3;stroke-dasharray:none;stroke-opacity:1;filter:url(#c)" transform="translate(-66.89 -.221)"/><path d="M87.89 10.221h22c6.19 0 11 4.811 11 11v22c0 6.19-4.81 11-11 11h-22c-6.188 0-11-4.81-11-11v-22c0-6.189 4.812-11 11-11z" style="fill:none;stroke:#000;stroke-width:.3;stroke-dasharray:none;stroke-opacity:1;filter:url(#d)" transform="translate(-66.89 -.221)"/><path d="M83.265 34.766h10.449" style="fill:none;stroke:#fff;stroke-width:2.61211;stroke-linecap:round" transform="translate(-66.89 -.221)"/><path d="M88.347 26.722 85.79 22.89m-2.556-1.278s5.112.594 5.112-2.555-5.112-2.556-5.112-2.556m0 10.222V16.5M98.57 26.722l-2.557-3.833m-2.555-1.278s5.111.594 5.111-2.555-5.111-2.556-5.111-2.556m0 10.222V16.5" style="fill:none;stroke:#fff;stroke-width:2.5556;stroke-linecap:round" transform="translate(-66.89 -.221)"/><g style="fill:none;stroke:#ff7e00;stroke-width:.2;stroke-linejoin:round;stroke-dasharray:none;stroke-opacity:1;filter:url(#e)" transform="translate(-66.89 -.221)"><path d="M83.266 33.459a1.306 1.306 0 0 0-1.307 1.307 1.306 1.306 0 0 0 1.307 1.306h10.447a1.306 1.306 0 0 0 1.307-1.306 1.306 1.306 0 0 0-1.307-1.307zm-.03-18.236-.013.013-.135-.006a1.28 1.28 0 0 0-1.059 1.198 1 1 0 0 0-.072.072v10.223A1.28 1.28 0 0 0 83.237 28a1.28 1.28 0 0 0 1.277-1.277v-3.897c.134.003.214-.01.37-.013a1.28 1.28 0 0 0-.155.785l2.554 3.834a1.28 1.28 0 0 0 1.772.353 1.28 1.28 0 0 0 .355-1.771l-2.433-3.649c.467-.162.944-.24 1.375-.588.726-.586 1.273-1.59 1.273-2.722 0-1.133-.547-2.134-1.273-2.721-.727-.587-1.558-.846-2.32-.992-1.443-.277-2.638-.123-2.782-.106zm1.278 2.59c.405-.002.544-.056 1.037.039.514.098.96.283 1.193.47.232.188.324.291.324.733 0 .441-.092.546-.324.734s-.679.372-1.193.47c-.493.095-.632.042-1.037.04zm8.943-2.59-.014.013-.132-.006a1.28 1.28 0 0 0-.528.666 1.28 1.28 0 0 0-.603.604v10.223A1.28 1.28 0 0 0 93.457 28a1.28 1.28 0 0 0 1.28-1.277v-3.897l.06-.002a1.28 1.28 0 0 0 .154.774l2.555 3.834a1.28 1.28 0 0 0 1.771.353 1.28 1.28 0 0 0 .356-1.771l-2.434-3.649c.468-.162.945-.24 1.375-.588.726-.586 1.274-1.59 1.274-2.722 0-1.133-.548-2.134-1.274-2.721s-1.557-.846-2.32-.992c-1.443-.277-2.641-.123-2.783-.106zm1.28 2.59c.405-.002.544-.056 1.036.039.515.098.962.283 1.194.47.232.188.324.291.324.733 0 .441-.092.546-.324.734s-.679.372-1.194.47c-.492.095-.631.042-1.037.04z" style="baseline-shift:baseline;display:inline;overflow:visible;opacity:1;fill:none;stroke:#ff7e00;stroke-width:.2;stroke-linecap:round;stroke-linejoin:round;stroke-dasharray:none;stroke-opacity:1;enable-background:accumulate;stop-color:#000;stop-opacity:1"/></g></svg>