<svg xmlns="http://www.w3.org/2000/svg" width="64" height="64"><rect width="56" height="56" x="4" y="4" rx="3" ry="3" style="fill:#c2352a"/><path d="M7 4C5.338 4 4 5.338 4 7v1c0-1.662 1.338-3 3-3h50c1.662 0 3 1.338 3 3V7c0-1.662-1.338-3-3-3z" style="opacity:.1;fill:#fff"/><path d="M4 57v1c0 1.662 1.338 3 3 3h50c1.662 0 3-1.338 3-3v-1c0 1.662-1.338 3-3 3H7c-1.662 0-3-1.338-3-3M33.995 33.01l2 1.999-2 2-2-2zM39.996 15l-2 12h-7.998l-2-12zm-9.998 14h7.998v2h-7.998zM14 29l11.998 2v8L14 41zm13.998 10v-8h2v8zm15.898 14-7.07-9.9 5.656-5.656 9.898 7.07zm-2.828-16.97-5.656 5.657-1.414-1.415 5.656-5.656z" style="opacity:.2"/><path d="m33.995 32.01 2 1.999-2 2-2-2zM39.996 14l-2 12h-7.998l-2-12zm-9.998 14h7.998v2h-7.998zM14 28l11.998 2v8L14 40zm13.998 10v-8h2v8zm15.898 14-7.07-9.9 5.656-5.656 9.898 7.07zm-2.828-16.97-5.656 5.657-1.414-1.415 5.656-5.656z" style="fill:#fff"/></svg>