<svg xmlns="http://www.w3.org/2000/svg" width="64" height="64"><rect width="56" height="44" x="-61" y="-54" rx="2.8" ry="2.75" style="opacity:.2" transform="rotate(90)scale(-1 1)"/><rect width="56" height="44" x="-60" y="-54" rx="2.8" ry="2.75" style="fill:#ff4848" transform="rotate(90)scale(-1 1)"/><path d="M19.461 5c.116.416.301 1.13.301 1.13l.344 1.034-.012.004.024.07q.13.41.214.833c.056.282.1.573.126.86a8.2 8.2 0 0 1-.172 2.53 7.2 7.2 0 0 1-.551 1.555q-.184.36-.41.688l.027-.008a7.4 7.4 0 0 0-.793 1.437 7 7 0 0 0-.277.774 7 7 0 0 0-.18.808 7 7 0 0 0 .027 2.531 7 7 0 0 0 .469 1.528 7.2 7.2 0 0 0 1.11 1.776c.298.35.632.666.988.946q.53.42 1.128.73c.4.206.826.37 1.258.496q.649.191 1.328.25c.454.04.906.038 1.368-.014a8 8 0 0 0 .694-.118c.232-.052.466-.12.696-.196s.456-.152.672-.25a6 6 0 0 0 .624-.328 7.1 7.1 0 0 0 2.052-1.804q.414-.541.718-1.152c.204-.406.364-.832.488-1.27a7.03 7.03 0 0 0 .122-3.457 7.2 7.2 0 0 0-.512-1.52 7.3 7.3 0 0 0-.882-1.441 7.3 7.3 0 0 0-1.172-1.156 7.3 7.3 0 0 0-1.396-.848 7 7 0 0 0-.76-.297l.042-.015a6 6 0 0 1-1.43-.727 7.8 7.8 0 0 1-1.804-1.734 8 8 0 0 1-.472-.715 8 8 0 0 1-.404-.762 8 8 0 0 1-.238-.609l.012-.004-.442-1.328s-.05-.188-.062-.227zm19.917 14.004a7 7 0 0 0-.842.02 7.2 7.2 0 0 0-3.008.922 7 7 0 0 0-1.13.804 7.1 7.1 0 0 0-1.66 2.128 7 7 0 0 0-.484 1.258 6.85 6.85 0 0 0-.2 2.708 6.3 6.3 0 0 0 .318 1.382c.078.23.162.454.26.668.1.216.214.424.332.626q.358.602.818 1.112.46.513 1.008.922a7.1 7.1 0 0 0 2.424 1.188c.44.12.896.2 1.356.234.46.036.93.03 1.398-.026a7 7 0 0 0 1.404-.322q.421-.138.812-.324a7 7 0 0 0 1.426-.894c.214-.176.422-.36.612-.558a7 7 0 0 0 .988-1.306 7 7 0 0 0 .38-.722q.167-.372.288-.762l.016.04c.086-.25.186-.49.306-.73a6.8 6.8 0 0 1 .91-1.368q.267-.318.574-.61c.204-.194.414-.382.64-.554s.466-.328.712-.476q.366-.222.756-.404.297-.135.602-.246l.008.012c1.198-.242 2.312-.25 3.598-.25v-2.784c-1.3 0-2.642.016-4.23.316l-.008-.012-.066.024c-.274.09-.556.166-.836.226a8.2 8.2 0 0 1-1.704.172 8.7 8.7 0 0 1-1.68-.188 7 7 0 0 1-.804-.234 7 7 0 0 1-.75-.304 7 7 0 0 1-.696-.406l.012.03a8 8 0 0 0-.702-.438 7 7 0 0 0-.74-.342 7 7 0 0 0-.78-.274 7 7 0 0 0-.806-.172 7 7 0 0 0-.832-.086m-20.648 8a8 8 0 0 0-.703.046 8 8 0 0 0-1.402.318q-.42.138-.809.324-.39.185-.75.414a6.7 6.7 0 0 0-1.293 1.05 7 7 0 0 0-.992 1.294q-.207.349-.37.722a7 7 0 0 0-.298.762l-.011-.036c-.086.25-.19.49-.309.73a7 7 0 0 1-.402.708c-.357.444-.845.68-1.391.812v4.442h.844q.427.002.847.046a7.6 7.6 0 0 1 1.633.364 6.8 6.8 0 0 1 1.446.71l-.012-.026a7 7 0 0 0 1.441.78q.382.157.781.27c.266.074.532.124.805.168.274.044.557.082.836.094.28.012.558.002.84-.02s.565-.056.847-.112q.425-.085.844-.224a7 7 0 0 0 1.316-.586 6.9 6.9 0 0 0 2.068-1.8c.276-.358.52-.736.722-1.136a7 7 0 0 0 .48-1.258 6.9 6.9 0 0 0 .09-3.4 6 6 0 0 0-.204-.69 7 7 0 0 0-.26-.664c-.1-.216-.218-.42-.336-.622a6.97 6.97 0 0 0-2.978-2.746 7.2 7.2 0 0 0-3.32-.734m14.184 6.054q-.344.004-.692.044-.347.038-.694.112a7 7 0 0 0-.692.196q-.347.112-.672.258a8 8 0 0 0-.622.324q-.607.353-1.124.808a7.1 7.1 0 0 0-1.652 2.15 7 7 0 0 0-.488 1.272c-.124.44-.216.892-.254 1.352q-.06.691.018 1.398a8 8 0 0 0 .306 1.41c.09.284.2.552.32.814a7 7 0 0 0 1.438 2.058 7.3 7.3 0 0 0 2.772 1.688l-.042.008c.248.086.492.194.73.316q.36.181.7.41a7.2 7.2 0 0 1 1.262 1.09c.192.206.38.424.55.652q.254.342.468.71.221.37.4.758c.09.2.164.404.238.61l-.016.008.454 1.332s.832 2.672 1.182 6.164h2.818c-.366-4.032-1.384-7.074-1.384-7.074l-.348-1.028.016-.004-.024-.074a8 8 0 0 1-.21-.836 8 8 0 0 1-.13-.848 9 9 0 0 1 .032-1.71q.051-.424.144-.832a7.3 7.3 0 0 1 .552-1.552c.12-.24.26-.47.41-.69l-.032.016a7.5 7.5 0 0 0 .794-1.442 6.8 6.8 0 0 0 .456-1.582q.069-.412.09-.832a7 7 0 0 0 0-.844 7 7 0 0 0-.116-.852 7.2 7.2 0 0 0-.466-1.526 8 8 0 0 0-.32-.642 7 7 0 0 0-.794-1.14 7.1 7.1 0 0 0-2.112-1.676 7 7 0 0 0-1.254-.5 7 7 0 0 0-1.328-.25 7 7 0 0 0-.684-.024" style="opacity:.2"/><path d="M19.461 4a85 85 0 0 1 .301 1.129l.344 1.035-.012.004.024.07q.13.41.214.832c.056.282.1.574.126.86a8.2 8.2 0 0 1-.172 2.531 7.2 7.2 0 0 1-.551 1.555c-.122.241-.26.467-.41.687l.027-.008a7.4 7.4 0 0 0-.793 1.438 7 7 0 0 0-.277.773 7 7 0 0 0-.18.809 7 7 0 0 0 .027 2.531 7 7 0 0 0 .469 1.527 7.2 7.2 0 0 0 1.11 1.777c.298.35.632.666.988.946q.53.42 1.128.73c.4.206.826.37 1.258.496q.649.191 1.328.25c.454.04.906.038 1.368-.014a8 8 0 0 0 .694-.118q.35-.08.696-.196c.346-.116.456-.152.672-.25a6 6 0 0 0 .624-.328 7.1 7.1 0 0 0 2.052-1.804q.414-.541.718-1.152t.488-1.27a7.03 7.03 0 0 0 .122-3.457 7.2 7.2 0 0 0-.512-1.52 7.3 7.3 0 0 0-.882-1.441 7.3 7.3 0 0 0-1.172-1.156 7.3 7.3 0 0 0-1.396-.848 7 7 0 0 0-.76-.297l.042-.016a6 6 0 0 1-1.43-.726 7.8 7.8 0 0 1-1.804-1.734 8 8 0 0 1-.472-.715 8 8 0 0 1-.404-.762c-.09-.2-.164-.403-.238-.61l.012-.003-.442-1.328s-.05-.188-.062-.227zm19.917 14.004a7 7 0 0 0-.842.02q-.425.031-.848.117a7 7 0 0 0-.844.218 7 7 0 0 0-.68.266 7.05 7.05 0 0 0-2.7 2.113c-.276.358-.524.74-.726 1.14a7 7 0 0 0-.484 1.258 6.85 6.85 0 0 0-.2 2.708 6.3 6.3 0 0 0 .318 1.382q.115.346.26.668c.1.216.214.424.332.626q.358.602.818 1.112.46.514 1.008.922a7.1 7.1 0 0 0 2.424 1.188c.44.12.896.2 1.356.234.46.036.93.03 1.398-.026a7 7 0 0 0 1.404-.322q.421-.138.812-.324a7 7 0 0 0 1.426-.894c.214-.176.422-.36.612-.558a7 7 0 0 0 .988-1.306 7 7 0 0 0 .38-.722q.167-.372.288-.762l.016.04c.086-.25.186-.49.306-.73a6.8 6.8 0 0 1 .91-1.368q.267-.319.574-.61c.204-.194.414-.382.64-.554s.466-.328.712-.476q.366-.222.756-.404.297-.134.602-.246l.008.012c1.198-.242 2.312-.25 3.598-.25v-2.785c-1.3.002-2.642.016-4.23.317l-.008-.012-.066.024c-.274.09-.556.166-.836.226a8.2 8.2 0 0 1-1.704.172 8.7 8.7 0 0 1-1.68-.188 7 7 0 0 1-.804-.234 7 7 0 0 1-.75-.305 6 6 0 0 1-.696-.406l.012.031a7 7 0 0 0-.702-.437 7 7 0 0 0-.74-.344 7 7 0 0 0-.78-.273 7 7 0 0 0-.806-.172 7 7 0 0 0-.832-.086m-20.648 8a8 8 0 0 0-.703.046 8 8 0 0 0-1.402.318q-.42.138-.809.324-.39.184-.75.414a6.7 6.7 0 0 0-1.293 1.05 7 7 0 0 0-.992 1.294q-.207.349-.37.722a7 7 0 0 0-.298.762l-.011-.036c-.086.25-.19.49-.309.73a7 7 0 0 1-.402.708c-.357.444-.845.68-1.391.812v4.442h.844q.427.002.847.046a7.6 7.6 0 0 1 1.633.364 6.8 6.8 0 0 1 1.446.71l-.012-.026a7 7 0 0 0 1.441.78q.382.157.781.27c.266.074.532.124.805.168.274.044.557.082.836.094.28.012.558.002.84-.02s.565-.056.847-.112q.425-.085.844-.224a7 7 0 0 0 1.316-.586 6.9 6.9 0 0 0 2.068-1.8c.276-.358.52-.736.722-1.136a7 7 0 0 0 .48-1.258 6.9 6.9 0 0 0 .09-3.4 6 6 0 0 0-.204-.69 7 7 0 0 0-.26-.664c-.1-.216-.218-.42-.336-.622a6.97 6.97 0 0 0-2.978-2.746 7.2 7.2 0 0 0-3.32-.734m14.184 6.054q-.344.004-.692.044-.347.038-.694.112a7 7 0 0 0-.692.196q-.347.112-.672.258a8 8 0 0 0-.622.324q-.607.353-1.124.808a7.1 7.1 0 0 0-1.652 2.15 7 7 0 0 0-.488 1.272c-.124.44-.216.892-.254 1.352q-.06.691.018 1.398a8 8 0 0 0 .306 1.41c.09.284.2.552.32.814a7 7 0 0 0 1.438 2.058 7.3 7.3 0 0 0 2.772 1.688l-.042.008c.248.086.492.194.73.316q.36.181.7.41a7.2 7.2 0 0 1 1.262 1.09c.192.206.38.424.55.652q.254.341.468.71.221.37.4.758c.09.2.164.404.238.61l-.016.008.454 1.332s1.22 3.7 1.35 8.164h2.77c-.13-4.988-1.504-9.074-1.504-9.074l-.348-1.028.016-.004-.024-.074a8 8 0 0 1-.21-.836 8 8 0 0 1-.13-.848 9 9 0 0 1 .032-1.71q.051-.423.144-.832a7.3 7.3 0 0 1 .552-1.552c.12-.24.26-.47.41-.69l-.032.016a7.5 7.5 0 0 0 .794-1.442 6.8 6.8 0 0 0 .456-1.582q.069-.412.09-.832a7 7 0 0 0 0-.844 7 7 0 0 0-.116-.852 7.2 7.2 0 0 0-.466-1.526 8 8 0 0 0-.32-.642 7 7 0 0 0-.794-1.14 7.1 7.1 0 0 0-2.112-1.676 7 7 0 0 0-1.254-.5 7 7 0 0 0-1.328-.25 7 7 0 0 0-.684-.024" style="fill:#fff"/><path d="M12.75 4C11.226 4 10 5.25 10 6.8v1C10 6.25 11.226 5 12.75 5h38.5C52.774 5 54 6.25 54 7.8v-1C54 5.25 52.774 4 51.25 4z" style="opacity:.2;fill:#fff"/></svg>