<svg xmlns="http://www.w3.org/2000/svg" xmlns:xlink="http://www.w3.org/1999/xlink" width="64" height="64"><defs><filter id="g" width="1.268" height="1.089" x="-.134" y="-.044" style="color-interpolation-filters:sRGB"><feGaussianBlur stdDeviation=".713"/></filter><filter id="f" width="1.326" height="1.138" x="-.163" y="-.069" style="color-interpolation-filters:sRGB"><feGaussianBlur stdDeviation="1.319"/></filter><filter id="q" width="1.201" height="1.067" x="-.101" y="-.033" style="color-interpolation-filters:sRGB"><feGaussianBlur stdDeviation=".524"/></filter><filter id="p" width="1.326" height="1.138" x="-.163" y="-.069" style="color-interpolation-filters:sRGB"><feGaussianBlur stdDeviation="1.319"/></filter><filter id="r" width="1.565" height="1.565" x="-.282" y="-.282" style="color-interpolation-filters:sRGB"><feGaussianBlur stdDeviation=".867"/></filter><filter id="h" width="1.62" height="1.62" x="-.31" y="-.31" style="color-interpolation-filters:sRGB"><feGaussianBlur stdDeviation=".961"/></filter><filter id="i" width="1.62" height="1.62" x="-.31" y="-.31" style="color-interpolation-filters:sRGB"><feGaussianBlur stdDeviation=".961"/></filter><filter id="j" width="1.62" height="1.62" x="-.31" y="-.31" style="color-interpolation-filters:sRGB"><feGaussianBlur stdDeviation=".961"/></filter><filter id="k" width="1.62" height="1.62" x="-.31" y="-.31" style="color-interpolation-filters:sRGB"><feGaussianBlur stdDeviation=".961"/></filter><filter id="l" width="1.62" height="1.62" x="-.31" y="-.31" style="color-interpolation-filters:sRGB"><feGaussianBlur stdDeviation=".961"/></filter><filter id="o" width="1.174" height="1.174" x="-.087" y="-.087" style="color-interpolation-filters:sRGB"><feGaussianBlur stdDeviation=".424"/></filter><radialGradient xlink:href="#a" id="e" cx="40.531" cy="52.873" r="10.016" fx="40.531" fy="52.873" gradientTransform="matrix(0 -6.40027 6.37684 0 -261.663 323.387)" gradientUnits="userSpaceOnUse"/><radialGradient xlink:href="#c" id="m" cx="49.601" cy="23.779" r="10.016" fx="49.601" fy="23.779" gradientTransform="matrix(-5.36815 0 0 -5.38787 336.831 133.384)" gradientUnits="userSpaceOnUse"/><radialGradient id="a" cx="-159.431" cy="15.463" r="64.707" fx="-159.431" fy="15.463" gradientTransform="matrix(-.89413 0 0 .96305 -152.485 49.51)" gradientUnits="userSpaceOnUse"><stop offset="0" style="stop-color:#006fff;stop-opacity:1"/><stop offset="1" style="stop-color:#15baff;stop-opacity:1"/></radialGradient><radialGradient xlink:href="#d" id="n" cx="34.657" cy="27.656" r="6.758" fx="34.657" fy="27.656" gradientTransform="matrix(8.02878 0 0 7.99638 -261.689 -162.045)" gradientUnits="userSpaceOnUse"/><linearGradient id="d"><stop offset="0" style="stop-color:#f4bc84;stop-opacity:1"/><stop offset="1" style="stop-color:#ea8374;stop-opacity:1"/></linearGradient><linearGradient id="c"><stop offset="0" style="stop-color:#f08047;stop-opacity:1"/><stop offset="1" style="stop-color:#e23a43;stop-opacity:1"/></linearGradient></defs><g transform="rotate(15 17.524 30.094)"><path d="M33.332 8.387h4.055a4.63 4.63 45 0 1 4.629 4.628v37.97a4.63 4.63 135 0 1-4.629 4.628h-4.055a11.35 11.35 45 0 1-11.348-11.348v-24.53A11.35 11.35 135 0 1 33.332 8.387" style="fill:url(#e);stroke-width:.2;stroke-linecap:square;stroke-linejoin:round;stroke-miterlimit:28" transform="translate(-16.6 -3.598)scale(1.11353)"/><path d="M33.634 11.647h3.71a1.414 1.414 45 0 1 1.414 1.414v37.87a1.414 1.414 135 0 1-1.414 1.414h-3.71a8.39 8.39 45 0 1-8.392-8.392V20.04a8.39 8.39 135 0 1 8.392-8.392" style="opacity:.3;fill:#fff;fill-opacity:1;stroke-width:.153428;stroke-linecap:square;stroke-linejoin:round;stroke-miterlimit:28" transform="translate(-16.6 -3.598)scale(1.11353)"/><path d="M33.332 8.387h4.055a4.63 4.63 45 0 1 4.629 4.628v37.97a4.63 4.63 135 0 1-4.629 4.628h-4.055a11.35 11.35 45 0 1-11.348-11.348v-24.53A11.35 11.35 135 0 1 33.332 8.387Z" style="fill:none;stroke:#000;stroke-width:.2;stroke-linecap:square;stroke-linejoin:round;stroke-miterlimit:28;stroke-dasharray:none;stroke-opacity:1;filter:url(#f)" transform="translate(-16.6 -3.598)scale(1.11353)"/><path d="M33.634 11.647h3.71a1.414 1.414 45 0 1 1.414 1.414v37.87a1.414 1.414 135 0 1-1.414 1.414h-3.71a8.39 8.39 45 0 1-8.392-8.392V20.04a8.39 8.39 135 0 1 8.392-8.392z" style="fill:none;fill-opacity:1;stroke:#0012ff;stroke-width:.2;stroke-linecap:square;stroke-linejoin:round;stroke-miterlimit:28;stroke-dasharray:none;stroke-opacity:1;filter:url(#g)" transform="translate(-16.6 -3.598)scale(1.11353)"/><circle cx="19.636" cy="17.506" r="4.297" style="fill:#fff;fill-opacity:1;stroke:none;stroke-width:.187612;stroke-linecap:square;stroke-linejoin:round;stroke-miterlimit:28;stroke-dasharray:none;stroke-opacity:1"/><circle cx="20.897" cy="18.984" r="3.859" style="fill:none;fill-opacity:1;stroke:#0012ff;stroke-width:.168484;stroke-linecap:square;stroke-linejoin:round;stroke-miterlimit:28;stroke-dasharray:none;stroke-opacity:1;filter:url(#h)" transform="translate(-3.633 -3.633)scale(1.11353)"/><g style="opacity:.705207"><g transform="translate(12.002 24.28)scale(.40705)"><circle cx="17.275" cy="36.735" r="4.569" style="fill:#fff;fill-opacity:1;stroke:none;stroke-width:.199475;stroke-linecap:square;stroke-linejoin:round;stroke-miterlimit:28;stroke-dasharray:none;stroke-opacity:1"/><circle cx="20.897" cy="18.984" r="3.859" style="fill:none;fill-opacity:1;stroke:#0012ff;stroke-width:.168484;stroke-linecap:square;stroke-linejoin:round;stroke-miterlimit:28;stroke-dasharray:none;stroke-opacity:1;filter:url(#i)" transform="translate(-7.466 14.26)scale(1.18394)"/></g><g transform="translate(12.002 30)scale(.40705)"><circle cx="17.275" cy="41.766" r="4.569" style="fill:#fff;fill-opacity:1;stroke:none;stroke-width:.199475;stroke-linecap:square;stroke-linejoin:round;stroke-miterlimit:28;stroke-dasharray:none;stroke-opacity:1"/><circle cx="20.897" cy="18.984" r="3.859" style="fill:none;fill-opacity:1;stroke:#0012ff;stroke-width:.168484;stroke-linecap:square;stroke-linejoin:round;stroke-miterlimit:28;stroke-dasharray:none;stroke-opacity:1;filter:url(#j)" transform="translate(-7.466 19.29)scale(1.18394)"/></g><g transform="rotate(90 .893 36.978)scale(.40705)"><circle cx="17.275" cy="36.735" r="4.569" style="fill:#fff;fill-opacity:1;stroke:none;stroke-width:.199475;stroke-linecap:square;stroke-linejoin:round;stroke-miterlimit:28;stroke-dasharray:none;stroke-opacity:1"/><circle cx="20.897" cy="18.984" r="3.859" style="fill:none;fill-opacity:1;stroke:#0012ff;stroke-width:.168484;stroke-linecap:square;stroke-linejoin:round;stroke-miterlimit:28;stroke-dasharray:none;stroke-opacity:1;filter:url(#k)" transform="translate(-7.466 14.26)scale(1.18394)"/></g><g transform="rotate(90 -1.967 34.118)scale(.40705)"><circle cx="17.275" cy="41.766" r="4.569" style="fill:#fff;fill-opacity:1;stroke:none;stroke-width:.199475;stroke-linecap:square;stroke-linejoin:round;stroke-miterlimit:28;stroke-dasharray:none;stroke-opacity:1"/><circle cx="20.897" cy="18.984" r="3.859" style="fill:none;fill-opacity:1;stroke:#0012ff;stroke-width:.168484;stroke-linecap:square;stroke-linejoin:round;stroke-miterlimit:28;stroke-dasharray:none;stroke-opacity:1;filter:url(#l)" transform="translate(-7.466 19.29)scale(1.18394)"/></g></g></g><g transform="rotate(15 46.476 33.906)"><path d="M33.332 8.387h4.055a4.63 4.63 45 0 1 4.629 4.628v37.97a4.63 4.63 135 0 1-4.629 4.628h-4.055a11.35 11.35 45 0 1-11.348-11.348v-24.53A11.35 11.35 135 0 1 33.332 8.387" style="fill:url(#m);stroke-width:.2;stroke-linecap:square;stroke-linejoin:round;stroke-miterlimit:28" transform="matrix(-1.11353 0 0 1.11353 80.6 -3.668)"/><path d="M33.634 11.647h3.71a1.414 1.414 45 0 1 1.414 1.414v37.87a1.414 1.414 135 0 1-1.414 1.414h-3.71a8.39 8.39 45 0 1-8.392-8.392V20.04a8.39 8.39 135 0 1 8.392-8.392" style="opacity:.485359;fill:url(#n);fill-opacity:1;stroke-width:.153428;stroke-linecap:square;stroke-linejoin:round;stroke-miterlimit:28" transform="matrix(-1.11353 0 0 1.11353 80.6 -3.668)"/><g style="opacity:.614619" transform="translate(1.903 1.903)scale(.94053)"><circle cx="45.786" cy="15.223" r="1.977" style="opacity:1;fill:#fff;fill-opacity:1;stroke:none;stroke-width:.086331;stroke-linecap:square;stroke-linejoin:round;stroke-miterlimit:28;stroke-dasharray:none;stroke-opacity:1"/><circle cx="45.786" cy="23.483" r="1.977" style="opacity:1;fill:#fff;fill-opacity:1;stroke:none;stroke-width:.086331;stroke-linecap:square;stroke-linejoin:round;stroke-miterlimit:28;stroke-dasharray:none;stroke-opacity:1"/><circle cx="19.353" cy="-49.916" r="1.977" style="opacity:1;fill:#fff;fill-opacity:1;stroke:none;stroke-width:.086331;stroke-linecap:square;stroke-linejoin:round;stroke-miterlimit:28;stroke-dasharray:none;stroke-opacity:1" transform="rotate(90)"/><circle cx="19.353" cy="-41.657" r="1.977" style="opacity:1;fill:#fff;fill-opacity:1;stroke:none;stroke-width:.086331;stroke-linecap:square;stroke-linejoin:round;stroke-miterlimit:28;stroke-dasharray:none;stroke-opacity:1" transform="rotate(90)"/></g><g style="filter:url(#o)" transform="translate(1.903 1.903)scale(.94053)"><circle cx="20.897" cy="18.984" r="3.859" style="opacity:1;fill:none;fill-opacity:1;stroke:#ff0006;stroke-width:.168484;stroke-linecap:square;stroke-linejoin:round;stroke-miterlimit:28;stroke-dasharray:none;stroke-opacity:1" transform="translate(35.079 5.496)scale(.5124)"/><circle cx="20.897" cy="18.984" r="3.859" style="opacity:1;fill:none;fill-opacity:1;stroke:#ff0006;stroke-width:.168484;stroke-linecap:square;stroke-linejoin:round;stroke-miterlimit:28;stroke-dasharray:none;stroke-opacity:1" transform="translate(35.079 13.756)scale(.5124)"/><circle cx="20.897" cy="18.984" r="3.859" style="opacity:1;fill:none;fill-opacity:1;stroke:#ff0006;stroke-width:.168484;stroke-linecap:square;stroke-linejoin:round;stroke-miterlimit:28;stroke-dasharray:none;stroke-opacity:1" transform="rotate(90 25.499 34.145)scale(.5124)"/><circle cx="20.897" cy="18.984" r="3.859" style="opacity:1;fill:none;fill-opacity:1;stroke:#ff0006;stroke-width:.168484;stroke-linecap:square;stroke-linejoin:round;stroke-miterlimit:28;stroke-dasharray:none;stroke-opacity:1" transform="rotate(90 21.369 30.015)scale(.5124)"/></g><path d="M33.332 8.387h4.055a4.63 4.63 45 0 1 4.629 4.628v37.97a4.63 4.63 135 0 1-4.629 4.628h-4.055a11.35 11.35 45 0 1-11.348-11.348v-24.53A11.35 11.35 135 0 1 33.332 8.387Z" style="fill:none;stroke:#000;stroke-width:.2;stroke-linecap:square;stroke-linejoin:round;stroke-miterlimit:28;stroke-dasharray:none;stroke-opacity:1;filter:url(#p)" transform="matrix(-1.11353 0 0 1.11353 80.6 -3.668)"/><path d="M33.634 11.647h3.71a1.414 1.414 45 0 1 1.414 1.414v37.87a1.414 1.414 135 0 1-1.414 1.414h-3.71a8.39 8.39 45 0 1-8.392-8.392V20.04a8.39 8.39 135 0 1 8.392-8.392z" style="fill:none;fill-opacity:1;stroke:#bd002b;stroke-width:.2;stroke-linecap:square;stroke-linejoin:round;stroke-miterlimit:28;stroke-dasharray:none;stroke-opacity:1;filter:url(#q)" transform="matrix(-1.11353 0 0 1.11353 80.6 -3.668)"/><circle cx="44.202" cy="45.716" r="4.297" style="fill:#fff;fill-opacity:1;stroke:none;stroke-width:.187612;stroke-linecap:square;stroke-linejoin:round;stroke-miterlimit:28;stroke-dasharray:none;stroke-opacity:1"/><circle cx="42.958" cy="44.318" r="3.859" style="fill:none;fill-opacity:1;stroke:#ff0001;stroke-width:.2;stroke-linecap:square;stroke-linejoin:round;stroke-miterlimit:28;stroke-dasharray:none;stroke-opacity:1;filter:url(#r)" transform="translate(-3.633 -3.633)scale(1.11353)"/></g></svg>