<svg xmlns="http://www.w3.org/2000/svg" width="64" height="64"><path d="M32 4C15.934 4 3 16.934 3 33s12.934 29 29 29 29-12.934 29-29S48.066 4 32 4" style="opacity:.2"/><path d="M32 3C15.934 3 3 15.934 3 32s12.934 29 29 29 29-12.934 29-29S48.066 3 32 3" style="fill:#d2d2d2"/><circle cx="45.961" cy=".707" r="21" style="opacity:.1" transform="rotate(45)"/><circle cx="45.254" r="21" style="fill:#4d4d4d" transform="rotate(45)"/><path d="M44.728 20.272a18 18 0 0 0-5.602-3.8l-7.833 17.235 17.236-7.833a18 18 0 0 0-3.801-5.602" style="opacity:.2"/><path d="M44.728 19.272a18 18 0 0 0-5.602-3.8l-7.833 17.235 17.236-7.833a18 18 0 0 0-3.801-5.602" style="fill:#57beff"/><circle cx="32" cy="17" r="3" style="opacity:.2"/><circle cx="32" cy="16" r="3" style="fill:#94ff57"/><circle cx="32" cy="49" r="3" style="opacity:.2"/><circle cx="32" cy="48" r="3" style="fill:#94ff57"/><circle cx="33" cy="-48" r="3" style="opacity:.2" transform="rotate(90)"/><circle cx="32" cy="-48" r="3" style="fill:#94ff57" transform="rotate(90)"/><circle cx="33" cy="-16" r="3" style="opacity:.2" transform="rotate(90)"/><circle cx="32" cy="-16" r="3" style="fill:#94ff57" transform="rotate(90)"/><path d="M32 3C15.934 3 3 15.934 3 32c0 .11.011.219.018.328C3.374 16.576 16.159 4 32 4s28.626 12.576 28.982 28.328c.007-.11.018-.217.018-.328C61 15.934 48.066 3 32 3" style="opacity:.2;fill:#fff"/></svg>