<svg xmlns="http://www.w3.org/2000/svg" width="64" height="64"><rect width="56" height="56" x="4" y="5" rx="2.8" ry="2.8" style="opacity:.2"/><rect width="56" height="56" x="4" y="4" rx="2.8" ry="2.8" style="fill:#695fff"/><path d="M48.5 32.5 48 25" style="fill:none;stroke:#86a1ff;stroke-width:.99235499"/><path d="m43 37 5-12m-4.5 20.5L43 37m-8 7 8.5 1.5" style="fill:none;stroke:#86a1ff;stroke-width:.49617749"/><path d="M29.507 50.363 23 47" style="fill:none;stroke:#86a1ff;stroke-width:.99235499"/><path d="m23 47 12-3m-17.482-6.384L22 29" style="fill:none;stroke:#86a1ff;stroke-width:.49617749"/><path d="M15.533 24.387 20.26 21.3m0 0 6.24-7.8" style="fill:none;stroke:#86a1ff;stroke-width:.99235499"/><path d="m30 23 8.7-4.8m-12.339-4.434L22 29m-6.467-4.613L30 23" style="fill:none;stroke:#86a1ff;stroke-width:.49617749"/><path d="M38.785 18.247 34 37m4.263-18.47L20.26 21.3M34 37 20.26 21.3" style="fill:none;stroke:#d1dbff;stroke-width:1.98470998"/><path d="m34 37-4.493 13.363" style="fill:none;stroke:#d1dbff;stroke-width:1.48853242"/><path d="m17.243 37.969 3.27-17.64" style="fill:none;stroke:#d1dbff;stroke-width:1.48819995"/><path d="m29.507 50.363-11.99-12.747M43.5 45.5l-13.993 4.863M48.5 32.5l-5 13M34 37l14.5-4.5" style="fill:none;stroke:#d1dbff;stroke-width:1.48853242"/><path d="m38.8 18.2 9.7 14.3" style="fill:none;stroke:#d1dbff;stroke-width:1.48819995"/><path d="M17.518 37.616 34 37" style="fill:none;stroke:#d1dbff;stroke-width:1.48853242"/><path d="M13.916 37.122 23 47m-8.147-22.816-.665 12.938M26.5 13.5 39 15m9 10-9-10m-.64 3.213.784-3.854M17.518 37.616l-3.602-.494" style="fill:none;stroke:#86a1ff;stroke-width:.99235499"/><path d="M26.5 13a1.5 1.5 0 0 0-1.5 1.5 1.5 1.5 0 0 0 1.5 1.5 1.5 1.5 0 0 0 1.5-1.5 1.5 1.5 0 0 0-1.5-1.5M39 15a1 1 0 0 0-1 1 1 1 0 0 0 1 1 1 1 0 0 0 1-1 1 1 0 0 0-1-1m-.25 2.5A1.75 1.75 0 0 0 37 19.25 1.75 1.75 0 0 0 38.75 21a1.75 1.75 0 0 0 1.75-1.75 1.75 1.75 0 0 0-1.75-1.75m-18.5 3a1.75 1.75 0 0 0-1.75 1.75A1.75 1.75 0 0 0 20.25 24 1.75 1.75 0 0 0 22 22.25a1.75 1.75 0 0 0-1.75-1.75M30 23a1 1 0 0 0-1 1 1 1 0 0 0 1 1 1 1 0 0 0 1-1 1 1 0 0 0-1-1m-14.5 1a1.5 1.5 0 0 0-1.5 1.5 1.5 1.5 0 0 0 1.5 1.5 1.5 1.5 0 0 0 1.5-1.5 1.5 1.5 0 0 0-1.5-1.5M48 25a1 1 0 0 0-1 1 1 1 0 0 0 1 1 1 1 0 0 0 1-1 1 1 0 0 0-1-1m-26 4a1 1 0 0 0-1 1 1 1 0 0 0 1 1 1 1 0 0 0 1-1 1 1 0 0 0-1-1m26.5 3a1.5 1.5 0 0 0-1.5 1.5 1.5 1.5 0 0 0 1.5 1.5 1.5 1.5 0 0 0 1.5-1.5 1.5 1.5 0 0 0-1.5-1.5M34 36a2 2 0 0 0-2 2 2 2 0 0 0 2 2 2 2 0 0 0 2-2 2 2 0 0 0-2-2m-20 1a1 1 0 0 0-1 1 1 1 0 0 0 1 1 1 1 0 0 0 1-1 1 1 0 0 0-1-1m3.5 0a1.5 1.5 0 0 0-1.5 1.5 1.5 1.5 0 0 0 1.5 1.5 1.5 1.5 0 0 0 1.5-1.5 1.5 1.5 0 0 0-1.5-1.5M43 37a1 1 0 0 0-1 1 1 1 0 0 0 1 1 1 1 0 0 0 1-1 1 1 0 0 0-1-1m-8 7a1 1 0 0 0-1 1 1 1 0 0 0 1 1 1 1 0 0 0 1-1 1 1 0 0 0-1-1m8.5 1a1.5 1.5 0 0 0-1.5 1.5 1.5 1.5 0 0 0 1.5 1.5 1.5 1.5 0 0 0 1.5-1.5 1.5 1.5 0 0 0-1.5-1.5M23 47a1 1 0 0 0-1 1 1 1 0 0 0 1 1 1 1 0 0 0 1-1 1 1 0 0 0-1-1m6.5 3a1.5 1.5 0 0 0-1.5 1.5 1.5 1.5 0 0 0 1.5 1.5 1.5 1.5 0 0 0 1.5-1.5 1.5 1.5 0 0 0-1.5-1.5" style="opacity:.2"/><path d="M26.5 12a1.5 1.5 0 0 0-1.5 1.5 1.5 1.5 0 0 0 1.5 1.5 1.5 1.5 0 0 0 1.5-1.5 1.5 1.5 0 0 0-1.5-1.5M39 14a1 1 0 0 0-1 1 1 1 0 0 0 1 1 1 1 0 0 0 1-1 1 1 0 0 0-1-1m-.25 2.5A1.75 1.75 0 0 0 37 18.25 1.75 1.75 0 0 0 38.75 20a1.75 1.75 0 0 0 1.75-1.75 1.75 1.75 0 0 0-1.75-1.75m-18.5 3a1.75 1.75 0 0 0-1.75 1.75A1.75 1.75 0 0 0 20.25 23 1.75 1.75 0 0 0 22 21.25a1.75 1.75 0 0 0-1.75-1.75M30 22a1 1 0 0 0-1 1 1 1 0 0 0 1 1 1 1 0 0 0 1-1 1 1 0 0 0-1-1m-14.5 1a1.5 1.5 0 0 0-1.5 1.5 1.5 1.5 0 0 0 1.5 1.5 1.5 1.5 0 0 0 1.5-1.5 1.5 1.5 0 0 0-1.5-1.5M48 24a1 1 0 0 0-1 1 1 1 0 0 0 1 1 1 1 0 0 0 1-1 1 1 0 0 0-1-1m-26 4a1 1 0 0 0-1 1 1 1 0 0 0 1 1 1 1 0 0 0 1-1 1 1 0 0 0-1-1m26.5 3a1.5 1.5 0 0 0-1.5 1.5 1.5 1.5 0 0 0 1.5 1.5 1.5 1.5 0 0 0 1.5-1.5 1.5 1.5 0 0 0-1.5-1.5M34 35a2 2 0 0 0-2 2 2 2 0 0 0 2 2 2 2 0 0 0 2-2 2 2 0 0 0-2-2m-20 1a1 1 0 0 0-1 1 1 1 0 0 0 1 1 1 1 0 0 0 1-1 1 1 0 0 0-1-1m3.5 0a1.5 1.5 0 0 0-1.5 1.5 1.5 1.5 0 0 0 1.5 1.5 1.5 1.5 0 0 0 1.5-1.5 1.5 1.5 0 0 0-1.5-1.5M43 36a1 1 0 0 0-1 1 1 1 0 0 0 1 1 1 1 0 0 0 1-1 1 1 0 0 0-1-1m-8 7a1 1 0 0 0-1 1 1 1 0 0 0 1 1 1 1 0 0 0 1-1 1 1 0 0 0-1-1m8.5 1a1.5 1.5 0 0 0-1.5 1.5 1.5 1.5 0 0 0 1.5 1.5 1.5 1.5 0 0 0 1.5-1.5 1.5 1.5 0 0 0-1.5-1.5M23 46a1 1 0 0 0-1 1 1 1 0 0 0 1 1 1 1 0 0 0 1-1 1 1 0 0 0-1-1m6.5 3a1.5 1.5 0 0 0-1.5 1.5 1.5 1.5 0 0 0 1.5 1.5 1.5 1.5 0 0 0 1.5-1.5 1.5 1.5 0 0 0-1.5-1.5" style="fill:#fff"/><path d="M6.8 4C5.25 4 4 5.25 4 6.8v1C4 6.25 5.25 5 6.8 5h50.4C58.75 5 60 6.25 60 7.8v-1C60 5.25 58.75 4 57.2 4z" style="opacity:.1;fill:#fff"/></svg>