<svg xmlns="http://www.w3.org/2000/svg" width="64" height="64"><path d="M40 7s-7.301 3.6-10.101 9.2S32 26 32 26s4.2-2.6 7-11c0 7-4 12-4 12s5.699.4 8.499-5.2C44.899 19 43 7 43 7s-1.6 3-3 3zm-27 4s1.562 1.825.8 3l-2.761-2s-.366 9.41 2.813 14.805c3.178 5.394 9.748 2.494 9.748 2.494S24 25 17 18c5.876 3.805 9.4 9 9.4 9s3.08-3.09-.1-8.484C24.712 15.819 13 11 13 11m33 14c-5.6 0-8 6.6-8 6.6S41.6 34 50 34c-5.6 2.8-12 .4-12 .4s1 5.6 6.6 5.6c5.462 0 15.4-6 15.4-6l-1-1 1-1s-8.783-7-14-7m-15.5 4c-2.485 0-4.5 1.567-4.5 3.5s2.015 3.5 4.5 3.5 4.5-1.567 4.5-3.5-2.015-3.5-4.5-3.5m-11.959 4.02a8.5 8.5 0 0 0-2.953.501C10.458 35.395 4 44.2 4 44.2s2.444-.862 2.8 0c.253.61-1.4 1.4-1.4 1.4s11.215 3.699 16.116 1.909C26.776 45.587 26 39 26 39s-4.11-1.882-12 1c4.3-4.551 12-4 12-4s-3.263-2.971-7.459-2.98m15.996 6.015c-.7-.022-1.337.064-1.337.064S31.8 42.6 36 51c-5.6-5.6-5-11-5-11s-5.601 2.8-1.401 9.8C32.151 54.056 40 59 40 59s-1-2.2.4-2.2c.744 0 1.6 1.2 1.6 1.2s1.733-7.382.699-11c-1.49-3.836-3.699-7.6-8.162-7.965" style="opacity:.2"/><path d="M40 6s-7.301 3.6-10.101 9.2S32 25 32 25s4.2-2.6 7-11c0 7-4 12-4 12s5.699.4 8.499-5.2C44.899 18 43 6 43 6s-1.6 3-3 3Zm-27 4s1.562 1.825.8 3l-2.761-2s-.366 9.41 2.813 14.805c3.178 5.394 9.748 2.494 9.748 2.494S24 24 17 17c5.876 3.805 9.4 9 9.4 9s3.08-3.09-.1-8.484C24.712 14.819 13 10 13 10m33 14c-5.6 0-8 6.6-8 6.6S41.6 33 50 33c-5.6 2.8-12 .4-12 .4s1 5.6 6.6 5.6c5.462 0 15.4-6 15.4-6l-1-1 1-1s-8.783-7-14-7m-15.5 4c-2.485 0-4.5 1.567-4.5 3.5s2.015 3.5 4.5 3.5 4.5-1.567 4.5-3.5-2.015-3.5-4.5-3.5m-11.959 4.02a8.5 8.5 0 0 0-2.953.501C10.458 34.395 4 43.2 4 43.2s2.444-.862 2.8 0c.253.61-1.4 1.4-1.4 1.4s11.215 3.699 16.116 1.909C26.776 44.587 26 38 26 38s-4.11-1.882-12 1c4.3-4.551 12-4 12-4s-3.263-2.971-7.459-2.98m15.996 6.015c-.7-.022-1.337.064-1.337.064S31.8 41.6 36 50c-5.6-5.6-5-11-5-11s-5.601 2.8-1.401 9.8C32.151 53.056 40 58 40 58s-1-2.2.4-2.2c.744 0 1.6 1.2 1.6 1.2s1.733-7.382.699-11c-1.49-3.836-3.699-7.6-8.162-7.965" style="fill:#ee545f"/><path d="M40 6s-7.302 3.6-10.102 9.2c-.714 1.429-.923 2.766-.843 3.966.068-.928.322-1.923.843-2.967C32.698 10.6 40 7 40 7zm3 0s-1.6 3-3 3v1c1.4 0 3-3 3-3s.965 6.167.998 10.693C44.127 13.143 43 6 43 6m-30 4s.508.608.803 1.344c2.031.857 11.08 4.766 12.498 7.172.947 1.607 1.33 3.004 1.414 4.181.104-1.352-.183-3.091-1.414-5.181C24.71 14.819 13 10 13 10m-1.96 1s-.024.65-.005 1.682c.004-.209.004-.682.004-.682l2.762 2c.246-.381.236-.828.127-1.262q-.047.136-.127.262zM39 15c-.012.037-.027.07-.04.107C38.577 21.52 35 26 35 26s.287.007.7-.016C36.843 24.193 39 20.147 39 15m-22 3c5.078 5.078 6.247 8.707 6.514 10.332l.086-.033s.273-3.122-3.957-8.365A32 32 0 0 0 17 18m29 6c-5.6 0-8 6.6-8 6.6s.236.124.361.195C39.14 29.127 41.492 25 46 25c4.705 0 11.982 5.453 13.43 6.57L60 31s-8.783-7-14-7m-15.5 4c-2.485 0-4.5 1.567-4.5 3.5 0 .171.034.335.064.5.315-1.694 2.171-3 4.436-3s4.121 1.306 4.436 3c.03-.165.064-.329.064-.5 0-1.933-2.015-3.5-4.5-3.5m-11.959 4.02a8.5 8.5 0 0 0-2.953.501C10.458 34.395 4 43.2 4 43.2s.454-.145.977-.258c1.941-2.447 6.63-7.965 10.61-9.42a8.5 8.5 0 0 1 2.954-.501c2.556.005 4.755 1.107 6.092 1.97C25.472 34.966 26 35 26 35s-3.263-2.971-7.459-2.98m40.959.48-.5.5.363.363C59.537 33.261 60 33 60 33zm-21.5.9s.098.465.338 1.104c.877.301 6.497 2.079 11.662-.504-.901 0-1.737-.033-2.53-.082C42.638 35.127 38 33.4 38 33.4m-16.736 4.018c-1.422.07-3.168.333-5.211.92A10.5 10.5 0 0 0 14 40c7.89-2.882 12-1 12-1s.007.306.016.43C26.052 38.59 26 38 26 38s-1.606-.734-4.736-.582m13.273.617a9 9 0 0 0-1.338.065s-.253.734-.195 2.226c.054-.805.195-1.226.195-1.226s.638-.087 1.338-.065C39 39.4 41.21 43.164 42.7 47c.214.749.288 1.676.305 2.648.043-1.346-.018-2.643-.305-3.648-1.49-3.836-3.699-7.6-8.162-7.965M31 39s-3.209 1.614-2.937 5.441C28.345 41.33 31 40 31 40s-.6 5.4 5 11a42 42 0 0 1-.926-1.99C30.473 43.78 31 39 31 39M6.463 43.914c-.423.378-1.063.686-1.063.686s.642.19 1.059.318c.258-.23.438-.487.342-.719-.059-.142-.187-.225-.338-.285m33.28 13.252c-.08.173-.092.39-.073.615.063.04.33.219.33.219s-.156-.395-.258-.834" style="opacity:.2;fill:#fff"/></svg>