<svg xmlns="http://www.w3.org/2000/svg" width="64" height="64"><path d="M15 5C8.749 5 4 9.749 4 16v42c0 1.551 1.449 3 3 3h50c1.551 0 3-1.449 3-3V16c0-6.251-4.749-11-11-11Z" style="opacity:.2"/><path d="M15 4C8.749 4 4 8.749 4 15v42c0 1.551 1.449 3 3 3h50c1.551 0 3-1.449 3-3V15c0-6.251-4.749-11-11-11Z" style="fill:#4f4f4f"/><path d="M15 4C8.749 4 4 8.749 4 15v1C4 9.749 8.749 5 15 5h34c6.251 0 11 4.749 11 11v-1c0-6.251-4.749-11-11-11z" style="fill:#fff;opacity:.1"/><rect width="56" height="1" x="4" y="34" rx="0" ry="0" style="opacity:.2"/><rect width="56" height="1" x="4" y="35" rx="0" ry="0" style="fill:#fff;opacity:.1"/><path d="M40 23V13H24v20h16v19H24V41" style="fill:none;stroke:#000;stroke-width:10;stroke-linejoin:round;opacity:.2"/><path d="M40 22V12H24v20h16v19H24V40" style="fill:none;stroke:#d2f2ff;stroke-width:10;stroke-linejoin:round"/><circle cx="53" cy="16" r="2" style="opacity:.2"/><circle cx="53" cy="15" r="2" style="fill:#666"/><circle cx="11" cy="16" r="2" style="opacity:.2"/><circle cx="11" cy="15" r="2" style="fill:#666"/><circle cx="11" cy="15" r="1" style="opacity:.2"/><circle cx="53" cy="52" r="2" style="opacity:.2"/><circle cx="53" cy="51" r="2" style="fill:#666"/><circle cx="11" cy="52" r="2" style="opacity:.2"/><circle cx="11" cy="51" r="2" style="fill:#666"/><circle cx="53" cy="15" r="1" style="opacity:.2"/><circle cx="53" cy="51" r="1" style="opacity:.2"/><circle cx="11" cy="51" r="1" style="opacity:.2"/></svg>