<svg xmlns="http://www.w3.org/2000/svg" xmlns:xlink="http://www.w3.org/1999/xlink" width="64" height="64"><defs><filter id="g" width="1.192" height="2.856" x="-.096" y="-.928" style="color-interpolation-filters:sRGB"><feGaussianBlur stdDeviation="2.13"/></filter><filter id="f" width="1.113" height="1.083" x="-.056" y="-.042" style="color-interpolation-filters:sRGB"><feGaussianBlur stdDeviation=".691"/></filter><filter id="d" width="1.355" height="1.262" x="-.177" y="-.131" style="color-interpolation-filters:sRGB"><feGaussianBlur stdDeviation="2.308"/></filter><radialGradient xlink:href="#a" id="c" cx="3.874" cy="-3.301" r="26.624" fx="3.874" fy="-3.301" gradientTransform="matrix(3.68565 0 0 2.9231 -10.75 -15.544)" gradientUnits="userSpaceOnUse"/><radialGradient xlink:href="#b" id="e" cx="15.478" cy="38.014" r="15.607" fx="15.478" fy="38.014" gradientTransform="matrix(3.0104 0 0 2.291 -34.917 -48.451)" gradientUnits="userSpaceOnUse"/><linearGradient id="b"><stop offset="0" style="stop-color:#ff39c1;stop-opacity:1"/><stop offset="1" style="stop-color:#ffc139;stop-opacity:1"/></linearGradient><linearGradient id="a"><stop offset="0" style="stop-color:#606060;stop-opacity:1"/><stop offset="1" style="stop-color:#3b3b3b;stop-opacity:1"/></linearGradient></defs><g transform="translate(-15.954 .346)"><rect width="53.248" height="42.232" x="5.03" y="-69.07" rx="3.806" ry="4.223" style="fill:url(#c);fill-opacity:1;stroke-width:.918076" transform="rotate(90)"/><g style="opacity:.25366;filter:url(#d)" transform="translate(15.954 -.346)"><path d="M16.393 34.64V11.873s0-.99 1.007-.99h29.2c1.007 0 1.007.99 1.007.99v22.765" style="fill:#df0127;stroke-width:.918076;fill-opacity:1"/><path d="M16.393 34.64h31.214v7.459l-7.316 3.952-3.7 7.065H17.855c-1.463 0-1.463-1.63-1.463-1.63z" style="fill:#e4e4e4;stroke-width:.918076"/></g><g style="opacity:.765199"><path d="M16.393 34.64V11.873s0-.99 1.007-.99h29.2c1.007 0 1.007.99 1.007.99v22.765" style="fill:url(#e);fill-opacity:1;stroke-width:.918076" transform="translate(15.954 -.346)"/><path d="M16.393 34.64h31.214v7.459l-7.316 3.952-3.7 7.065H17.855c-1.463 0-1.463-1.63-1.463-1.63z" style="fill:#e4e4e4;stroke-width:.918076" transform="translate(15.954 -.346)"/></g><path d="M52.544 52.77v-9.514s0-1.503 1.503-1.503h9.514z" style="fill:#e7e7e7;fill-opacity:1;stroke-width:.918076"/><path d="M33.353 10.54c-1.006 0-1.005.99-1.005.99v39.61s0 1.629 1.462 1.629h18.735L63.56 41.754V11.529s.002-.99-1.005-.99z" style="opacity:.617871;fill:none;stroke:#000;stroke-width:.2;stroke-dasharray:none;stroke-opacity:1;filter:url(#f)"/><rect width="53.248" height="5.508" x="5.376" y="29.246" rx="1.331" ry="1.377" style="opacity:.47496;mix-blend-mode:normal;fill:#e700ff;fill-opacity:1;stroke-width:.918076;filter:url(#g)" transform="translate(18.76 2.46)scale(.91232)"/><rect width="53.248" height="5.508" x="21.33" y="28.9" rx="1.331" ry="1.377" style="opacity:.741818;fill:#fff;stroke-width:.918076;fill-opacity:1"/></g></svg>