<svg xmlns="http://www.w3.org/2000/svg" width="64" height="64"><path d="M31.999 3c-1.571 0-3.144.586-4.319 1.76L3.76 28.684c-2.349 2.35-2.346 6.281.004 8.631l23.92 23.922c2.349 2.35 6.285 2.353 8.634.004l23.92-23.923c2.349-2.349 2.349-6.284 0-8.634L36.318 4.761C35.143 3.586 33.571 3 31.999 3" style="opacity:.2"/><path d="M31.999 2c-1.571 0-3.144.586-4.319 1.76L3.76 27.684c-2.349 2.349-2.346 6.281.004 8.631l23.92 23.922c2.349 2.35 6.285 2.353 8.634.004l23.92-23.923c2.349-2.349 2.349-6.284 0-8.634L36.318 3.761C35.143 2.586 33.571 2 31.999 2" style="fill:#159532"/><path d="m5.101 32.996 4.243 4.243 2.828-2.829-4.243-4.242Zm5.657-5.657 9.9 9.9 15.555-15.557-9.899-9.9ZM29.142 8.954l4.243 4.243 2.828-2.828-4.242-4.243ZM10.758 38.653 15 42.896l2.829-2.829-4.243-4.242zm24.041-24.042 4.243 4.243 2.828-2.828-4.242-4.243zM16.415 44.31l4.242 4.243 2.829-2.829-4.243-4.243zm24.041-24.042 4.243 4.243 2.828-2.829-4.243-4.242zM24.9 41.481 37.628 54.21l15.556-15.556-12.728-12.728Zm-2.829 8.486 4.243 4.242 2.828-2.828-4.242-4.243zm24.042-24.042 4.242 4.243 2.829-2.829-4.243-4.242zM27.728 55.624l4.243 4.242 2.828-2.828-4.242-4.243zM51.77 31.582l4.242 4.243 2.829-2.829-4.243-4.243z" style="opacity:.2"/><path d="m5.101 31.996 4.243 4.243 2.828-2.828-4.243-4.243zm5.657-5.657 9.9 9.9 15.555-15.556-9.899-9.9ZM29.142 7.955l4.243 4.242 2.828-2.828-4.242-4.243ZM10.758 37.653 15 41.896l2.829-2.829-4.243-4.242zm24.041-24.041 4.243 4.242 2.828-2.828-4.242-4.243zM16.415 43.31l4.242 4.243 2.829-2.829-4.243-4.242zm24.041-24.042 4.243 4.243 2.828-2.828-4.243-4.243zM24.9 40.482 37.628 53.21l15.556-15.557-12.728-12.728Zm-2.829 8.485 4.243 4.243 2.828-2.829L24.9 46.14zm24.042-24.042 4.242 4.243 2.829-2.829-4.243-4.242zM27.728 54.624l4.243 4.242 2.828-2.828-4.242-4.243zM51.77 30.582l4.242 4.243 2.829-2.829-4.243-4.242z" style="fill:#e4e4e4"/><path d="M32 2c-1.571 0-3.146.585-4.32 1.76L3.76 27.684c-1.3 1.299-1.876 3.082-1.737 4.814a6.04 6.04 0 0 1 1.737-3.814L27.68 4.76C28.854 3.585 30.429 3 32 3s3.144.585 4.318 1.76l23.92 23.924a6.05 6.05 0 0 1 1.739 3.816c.138-1.733-.439-3.517-1.739-4.816L36.318 3.76C35.144 2.585 33.572 2 32 2" style="opacity:.2;fill:#fff"/></svg>