<svg xmlns="http://www.w3.org/2000/svg" xmlns:xlink="http://www.w3.org/1999/xlink" width="64" height="64"><defs><radialGradient xlink:href="#b" id="d" cx="94.453" cy="-1.098" r="28" fx="94.453" fy="-1.098" gradientTransform="matrix(0 -2.22556 2.18093 0 64.22 270.5)" gradientUnits="userSpaceOnUse"/><radialGradient id="b" cx="-159.431" cy="15.463" r="64.707" fx="-159.431" fy="15.463" gradientTransform="matrix(-.89413 0 0 .96305 -70.018 -8.619)" gradientUnits="userSpaceOnUse"><stop offset="0" style="stop-color:#006fff;stop-opacity:1"/><stop offset="1" style="stop-color:#15baff;stop-opacity:1"/></radialGradient><radialGradient xlink:href="#c" id="h" cx="31.966" cy="59.983" r="27.825" fx="31.966" fy="59.983" gradientTransform="rotate(-45 2.805 61.947)scale(1.4044 1.39273)" gradientUnits="userSpaceOnUse"/><filter id="e" width="1.138" height="1.16" x="-.069" y="-.08" style="color-interpolation-filters:sRGB"><feGaussianBlur stdDeviation="1.549"/></filter><filter id="f" width="1.176" height="1.213" x="-.088" y="-.107" style="color-interpolation-filters:sRGB"><feGaussianBlur stdDeviation="1.549"/></filter><filter id="g" width="1.28" height="1.402" x="-.14" y="-.201" style="color-interpolation-filters:sRGB"><feGaussianBlur stdDeviation=".958"/></filter><linearGradient id="c"><stop offset="0" style="stop-color:#00a7ff;stop-opacity:1"/><stop offset="1" style="stop-color:#00ecff;stop-opacity:1"/></linearGradient></defs><path d="M20.8 4C11.495 4 4 11.494 4 20.8v14.637c0 9.307 7.494 16.8 16.8 16.8h22.4c9.306 0 16.8-7.493 16.8-16.8V20.8C60 11.495 52.506 4 43.2 4Z" style="fill:url(#d)" transform="translate(0 3.882)"/><path d="M21 10h22c6.19 0 11 4.81 11 11v14.238c0 6.189-4.81 11-11 11H21c-6.19 0-11-4.811-11-11V21c0-6.19 4.81-11 11-11" style="fill:#3f3f3f" transform="translate(0 3.882)"/><path d="M20.8 4C11.495 4 4 11.494 4 20.8v14.637c0 9.307 7.494 16.8 16.8 16.8h22.4c9.306 0 16.8-7.493 16.8-16.8V20.8C60 11.495 52.506 4 43.2 4Z" style="fill:none;stroke:#000;stroke-width:.3;stroke-dasharray:none;stroke-opacity:1;filter:url(#e)" transform="translate(0 3.882)"/><path d="M21 10h22c6.19 0 11 4.81 11 11v14.238c0 6.189-4.81 11-11 11H21c-6.19 0-11-4.811-11-11V21c0-6.19 4.81-11 11-11z" style="fill:none;stroke:#000;stroke-width:.3;stroke-dasharray:none;stroke-opacity:1;filter:url(#f)" transform="translate(0 3.882)"/><path d="m14.63 17.659-.004.005a1.585 1.585 90 0 0 0 2.241l2.57 2.57a.55.55 89.986 0 1 0 .776l-2.57 2.572a1.586 1.586 89.986 0 0 0 2.242l.005.005a1.585 1.585 179.996 0 0 2.24 0l3.847-3.848a1.92 1.92 89.991 0 0 0-2.719l-3.846-3.844a1.585 1.585 179.996 0 0-2.241 0m7.705 9.881v.008a1.585 1.585 45 0 0 1.585 1.585h5.776a1.585 1.585 135 0 0 1.585-1.585v-.008a1.585 1.585 45 0 0-1.585-1.585H23.92a1.585 1.585 135 0 0-1.585 1.585" style="baseline-shift:baseline;display:inline;overflow:visible;vector-effect:none;fill:#fff;fill-opacity:1;stroke:none;stroke-miterlimit:7.4;enable-background:accumulate;stop-color:#000" transform="translate(1.513 2.029)scale(1.05792)"/><path d="m14.63 17.659-.004.005a1.585 1.585 90 0 0 0 2.241l2.57 2.57a.55.55 89.986 0 1 0 .776l-2.57 2.572a1.586 1.586 89.986 0 0 0 2.242l.005.005a1.585 1.585 179.996 0 0 2.24 0l3.847-3.848a1.92 1.92 89.991 0 0 0-2.719l-3.846-3.844a1.585 1.585 179.996 0 0-2.241 0zm7.705 9.881v.008a1.585 1.585 45 0 0 1.585 1.585h5.776a1.585 1.585 135 0 0 1.585-1.585v-.008a1.585 1.585 45 0 0-1.585-1.585H23.92a1.585 1.585 135 0 0-1.585 1.585z" style="baseline-shift:baseline;display:inline;overflow:visible;fill:none;fill-opacity:1;stroke:#0038ff;stroke-width:.2;stroke-miterlimit:7.4;stroke-dasharray:none;stroke-opacity:1;filter:url(#g);enable-background:accumulate;stop-color:#000" transform="translate(1.513 2.029)scale(1.05792)"/><path d="M47.993 13C38.928 13 30.768 16.22 24 21.216l23.993 26.142 23.808-26.235C65.06 16.183 56.989 13 47.993 13" style="fill:url(#h);fill-opacity:1;stroke-width:.858953" transform="translate(27.042 39.621)scale(.51473)"/><path d="M47.895 19.869a32.3 32.3 0 0 0-19.306 6.368l19.407 21.126 19.207-21.125a32.38 32.38 0 0 0-19.315-6.369Z" style="opacity:.2;fill:#004eff;fill-opacity:1;stroke-width:1.14558" transform="translate(27.042 39.621)scale(.51473)"/><path d="M47.895 26.743a24.23 24.23 0 0 0-14.48 4.776l14.556 15.844 14.405-15.844a24.23 24.23 0 0 0-14.48-4.776" style="opacity:.2;fill:#00f;fill-opacity:1;stroke-width:1.14558" transform="translate(27.042 39.621)scale(.51473)"/></svg>