<svg xmlns="http://www.w3.org/2000/svg" xmlns:xlink="http://www.w3.org/1999/xlink" width="64" height="64"><defs><filter id="e" width="1.116" height="1.101" x="-.058" y="-.051" style="color-interpolation-filters:sRGB"><feGaussianBlur stdDeviation="1.064"/></filter><filter id="f" width="1.149" height="1.13" x="-.075" y="-.065" style="color-interpolation-filters:sRGB"><feGaussianBlur stdDeviation="1.064"/></filter><radialGradient xlink:href="#c" id="d" cx="47.951" cy="45.898" r="20" fx="47.951" fy="45.898" gradientTransform="matrix(0 -4.02347 4.02543 0 -112.42 264.044)" gradientUnits="userSpaceOnUse"/><linearGradient id="c"><stop offset="0" style="stop-color:#ff256e;stop-opacity:1"/><stop offset="1" style="stop-color:#ff6b42;stop-opacity:1"/></linearGradient></defs><path d="M28.398 3.78c-5.066 2.49-10.721 4.558-16.224 6.74-2.904 1.153-5.23 4.692-5.23 7.817v13.702c0 18.13 20.412 28.748 25.077 28.748s25.077-10.618 25.077-28.748V18.337c0-3.125-2.338-6.637-5.246-7.781-5.517-2.17-11.175-4.283-16.21-6.772-2.031-1.004-5.21-1.003-7.244-.004" style="fill:url(#d);fill-rule:evenodd;stroke-width:1.25385" transform="translate(-.02 .092)"/><path d="M32 5.76c-1.184 0-2.37.225-3.293.68-4.603 2.262-9.742 4.14-14.742 6.124-2.64 1.048-4.752 4.264-4.752 7.104v12.451C9.213 48.594 27.76 58.24 32 58.24s22.787-9.646 22.787-26.12V19.667c0-2.84-2.125-6.03-4.767-7.07-5.013-1.972-10.155-3.893-14.73-6.155-.924-.456-2.106-.683-3.29-.683Z" style="mix-blend-mode:normal;fill:none;fill-rule:evenodd;stroke:#000;stroke-width:.2;stroke-dasharray:none;stroke-opacity:1;filter:url(#e)" transform="translate(-3.216 -3.215)scale(1.1005)"/><path d="M29.513 12.811c-3.458 1.7-7.318 3.11-11.074 4.601-1.983.787-3.57 3.202-3.57 5.335V32.1c0 12.376 13.932 19.624 17.117 19.624 3.184 0 17.118-7.247 17.118-19.624v-9.353c0-2.133-1.596-4.53-3.582-5.311-3.765-1.481-7.628-2.923-11.064-4.622-1.387-.685-3.557-.685-4.945-.003" style="opacity:.428177;fill:#ffcabb;fill-opacity:1;fill-rule:evenodd;stroke-width:.855876" transform="translate(-.02 .092)"/><path d="M32 11.533c.923 0 1.847.178 2.566.533 3.569 1.764 7.579 3.263 11.489 4.801 2.061.81 3.718 3.299 3.718 5.514v9.71c0 12.85-14.467 20.376-17.773 20.376S14.227 44.94 14.227 32.092V22.38c0-2.215 1.648-4.723 3.707-5.54 3.9-1.546 7.907-3.012 11.498-4.777.72-.354 1.645-.531 2.568-.53z" style="mix-blend-mode:normal;fill:none;fill-rule:evenodd;stroke:red;stroke-width:.2;stroke-dasharray:none;stroke-opacity:1;filter:url(#f)" transform="translate(1.048 1.363)scale(.96313)"/></svg>