<svg xmlns="http://www.w3.org/2000/svg" xmlns:xlink="http://www.w3.org/1999/xlink" width="64" height="64"><defs><linearGradient id="b"><stop offset="0" style="stop-color:#00e6ff"/><stop offset="1" style="stop-color:#00e6ff;stop-opacity:0"/></linearGradient><linearGradient id="a"><stop offset="0" style="stop-color:#0c8df2"/><stop offset="1" style="stop-color:#0c8df2;stop-opacity:0"/></linearGradient><linearGradient xlink:href="#a" id="c" x1="21.589" x2="24.06" y1="36.7" y2="26.864" gradientTransform="translate(-3.222 -2.111)scale(1.44444)" gradientUnits="userSpaceOnUse"/><linearGradient xlink:href="#b" id="d" x1="38.323" x2="30.099" y1="27.66" y2="22.787" gradientTransform="translate(-2.896 -3.385)scale(1.47403)" gradientUnits="userSpaceOnUse"/><linearGradient xlink:href="#b" id="e" x1="27.828" x2="19.208" y1="20.905" y2="23.493" gradientTransform="translate(-3.696 -2.784)scale(1.47403)" gradientUnits="userSpaceOnUse"/><filter id="f" width="1.184" height="1.194" x="-.092" y="-.097" style="color-interpolation-filters:sRGB"><feGaussianBlur stdDeviation="2.221"/></filter></defs><g transform="translate(2.352 2.77)scale(.91346)"><path d="M42.398 49.578c11.792 0 14.74 4.422 14.74 4.422h-14.74Zm2.127-29.014c8.289 4.21 14.262 6.685 17.39 14.583-7.893-7.19-9.875-3.183-19.083-3.28.13-7.87 1.693-11.303 1.693-11.303" style="fill:#0c8df2"/><path d="M26.515 59.887c-2.896-.24-6.135-1.141-8.95-2.492C11.84 54.648 7.238 49.779 4.86 43.956a25.26 25.26 0 0 1-1.716-12.205c.62-5.692 3.08-10.863 7.162-15.055 1.928-1.98 4.602-3.91 7.032-5.079.5-.24.57-.262.388-.118l-.849.666A23.55 23.55 0 0 0 8.74 24.534c-.537 2.026-.757 3.757-.758 5.953 0 1.68.063 2.472.317 3.984.852 5.063 3.425 9.754 7.175 13.232a23 23 0 0 0 2.844 2.249c.367.245.4.248.343.027-.343-.027-.694-.517-.782-1.09-.2-1.305-.992-1.692-.878-2.889 0-7.11 4.584-12.071 9.419-15.4 1.845-1.245 3.736-2.08 6.117-2.704 1.81-.474 2.767-1.223 3.896-2.164.239-.198.403-.38.372-.41-.091-.09-1.734-.6-2.594-.807-1.929-.461-3.28-.517-5.538-.515-2.417.002-4.296.14-5.116.534-.382.184-2.126.385-2.854 1.268-2.382 2.893-3.34 5.663-4.093 9.306-.182.879-.126 1.643-.34 1.837-.406.37-.007-.303-.23-.803-.232-.52-.188-2.127-.319-3.669-.082-.972-.282-2.614-.169-3.55.529-4.37 2.79-7.452 5.553-10.889.745-.926 2.012-2.416 2.936-3.14 2-1.57 4.309-2.195 6.608-3.055l-.14-1.918.006-.641c.006-.52.04-.737.182-1.147.273-.79.715-1.428 1.286-1.861l.34-.257.348.1c1.036.3 2.016 1.096 2.484 2.018.14.278.274 1.152.296 1.234.036.137.22 1.859.444 1.815.135-.027 2.114.337 3.046.332l1.616-.63-.19-1.58c.823-1.506 1.275-2.25 2.954-2.767l.823.383c.561.374.938.327 1.328.945.382.607.167.956.33 1.67.163.707.227 1.535.05 2.24-.201.8-.343 1.58-.735 2.165-1.374-.03.685.84.685.861 0 .02.366.364.814.763 2.3 2.049 4.337 4.725 5.753 7.556 0 0 2.608 5.006 2.629 11.793.049 2.384-.453 4.926-1.09 7.027-1.959 5.754-5.703 10.277-10.256 13.648l-.508.335.701.176c2.58.87 4.599 2.219 6.34 3.9h-18.39s-3.639.025-5.28-.112" style="fill:#0cb7f2"/><path d="M22.044 26.31c-2.343 3.02-3.908 6.48-4.649 10.282-.178.916-.201.983-.411 1.185-.4.387-1.018.253-1.238-.268-.229-.544-.574-2.627-.702-4.236-.081-1.014-.045-3.379.067-4.355.52-4.56 2.121-8.59 4.84-12.176.733-.967 2.523-2.847 3.432-3.603 4.295-3.795 9.051-4.99 14.268-5.065l1.667-.008.203-.597a6.65 6.65 0 0 1 3.838-3.294L43.894 4l.352.25c.552.39 1.39 1.316 1.773 1.96.377.634.709 1.486.87 2.231.16.738.145 2.17-.03 2.907-.197.835-.492 1.568-.878 2.178-.185.294-.337.552-.337.573 0 0-.968 2.514-4.61 4.068-3.41 1.455-6.281.479-9.345 1.46-4.006 1.017-7.36 3.64-9.645 6.684" style="fill:#00e6ff"/><circle cx="30" cy="47" r="13" style="fill:url(#c)"/><path d="M43.703 27.683c8.29 4.21 13.898 10.336 17.025 18.234-7.892-7.19-12.795-10.393-22.003-10.49.13-7.87 4.978-7.744 4.978-7.744" style="fill:url(#d)"/><path d="m36.605 25.223-.007.007c.002.002.03.01.03.012.002.002-.015.018-.015.02.02.009.153.044.16.05-.06-.028-.104-.061-.168-.09m.196.101c.026.033-.131.21-.367.406-1.13.941-2.089 1.69-3.899 2.165-2.38.623-4.271 1.458-6.117 2.703-1.34.903-2.564 2.098-3.664 3.445 2.112-.73 4.158-1.45 6.726-1.784 3.01-.39 4.79-.085 6.114-.398 1.16-.158 3.33-2.068 3.406-3.838.041-.96-.609-1.94-2.2-2.699" style="fill:url(#e)"/></g><g style="mix-blend-mode:normal;stroke:#000;stroke-width:.2;stroke-linecap:round;stroke-linejoin:round;stroke-dasharray:none;stroke-opacity:1;filter:url(#f)" transform="translate(42.014 -32.531)scale(.91346)"><path d="M5.908 88.846a30 30 0 0 1-3.691 3.804h11.506s-1.726-2.588-7.815-3.804M9.824 63.84a29.5 29.5 0 0 1 1.455 5.762c2.03.325 4.19 1.435 7.219 4.195-1.89-4.774-4.82-7.565-8.674-9.957" style="fill:none;stroke:#000;stroke-width:.2;stroke-linecap:round;stroke-linejoin:round;stroke-dasharray:none;stroke-opacity:1"/><path d="m-11.096 44.666-.338.256c-.571.433-1.014 1.072-1.287 1.861a2.8 2.8 0 0 0-.177.969 23 23 0 0 1 4.666-.9l-.032-.069c-.467-.922-1.446-1.718-2.482-2.017zm-14.506 5.395c-.03 0-.18.064-.476.207-2.43 1.168-5.104 3.098-7.031 5.078-4.082 4.192-6.542 9.364-7.162 15.056a25.26 25.26 0 0 0 1.716 12.205c2.378 5.823 6.98 10.69 12.703 13.438 2.816 1.351 6.053 2.253 8.95 2.492.757.063 1.94.091 2.994.104a13 13 0 0 1-12.33-10.854q-.89-.677-1.705-1.433c-3.75-3.479-6.324-8.169-7.176-13.233-.255-1.512-.317-2.305-.317-3.984.001-2.196.221-3.927.758-5.953a23.55 23.55 0 0 1 8.139-12.368l.85-.668a.6.6 0 0 0 .09-.08l.001-.002v-.006h-.002zm27.575 3.187c-.48.812-1.717 2.444-4.356 3.57-3.41 1.456-6.28.479-9.344 1.46-3.203.813-5.99 2.653-8.146 4.913l.012-.005c.82-.394 2.7-.533 5.117-.536 2.258-.002 3.608.054 5.537.516.696.167 1.904.533 2.389.715l.004-.004.002-.002.001-.002q.04.019.075.039a.5.5 0 0 1 .125.06v.003h.002v.004c1.586.759 2.234 1.736 2.193 2.695-.076 1.77-2.246 3.68-3.406 3.838-1.324.313-3.105.008-6.114.398-2.568.333-4.614 1.053-6.726 1.783.978-1.197 2.054-2.275 3.223-3.134-4.669 3.324-8.977 8.199-8.977 15.091-.018.193-.012.364.01.522a13 13 0 0 1 12.99-12.522 13 13 0 0 1 13 13 13 13 0 0 1-12.736 12.998c.878.006 1.53 0 1.53 0h18.39c-1.741-1.68-3.76-3.028-6.34-3.898l-.701-.176.507-.336c4.553-3.371 8.297-7.895 10.256-13.648q.204-.673.385-1.399c-4.75-3.443-9.095-5.046-15.566-5.115.122-7.377 4.39-7.727 4.923-7.742h.055c4.551 2.312 8.294 5.202 11.262 8.645q.045-.713.031-1.415c-.02-6.787-2.629-11.794-2.629-11.794C7.536 58.939 5.5 56.264 3.2 54.215c-.447-.399-.814-.743-.814-.764 0-.006-.188-.09-.412-.203" style="fill:none;stroke:#000;stroke-width:.2;stroke-linecap:round;stroke-linejoin:round;stroke-dasharray:none;stroke-opacity:1"/><path d="m.477 42.65-.534.174a6.66 6.66 0 0 0-3.84 3.295l-.2.598-1.669.008c-5.217.074-9.972 1.27-14.267 5.064-.909.757-2.699 2.636-3.432 3.604-2.718 3.585-4.322 7.615-4.842 12.175-.111.977-.147 3.341-.066 4.356.128 1.61.474 3.69.703 4.234.22.522.838.657 1.238.27.21-.203.232-.27.41-1.186.741-3.802 2.306-7.262 4.649-10.281 2.286-3.044 5.64-5.666 9.646-6.684 3.064-.98 5.934-.003 9.344-1.459C1.258 55.264 2.23 52.75 2.23 52.75c0-.021.15-.28.335-.574.386-.61.682-1.343.88-2.178.174-.736.188-2.169.029-2.906a8 8 0 0 0-.87-2.23C2.222 44.216 1.384 43.29.83 42.9Zm-13.893 30a13 13 0 0 0-13 13 13 13 0 0 0 13 13 13 13 0 0 0 13-13 13 13 0 0 0-13-13M.232 66.334c-.533.015-4.801.365-4.923 7.742 9.207.098 14.11 3.302 22.002 10.492C14.183 76.67 8.576 70.545.287 66.334zm-7.042-2.461-.002.002-.002.002-.004.004c.002.002.03.01.03.012v.002l-.001.002-.014.013v.002c.018.009.132.04.157.05-.059-.029-.103-.062-.165-.089zm.197.104v.008c-.002.05-.152.215-.37.396-1.129.941-2.088 1.69-3.898 2.164-2.38.623-4.271 1.459-6.117 2.703-1.34.904-2.564 2.099-3.664 3.446 2.112-.731 4.158-1.45 6.726-1.784 3.01-.39 4.79-.085 6.114-.398 1.16-.159 3.33-2.067 3.406-3.838.041-.96-.608-1.938-2.197-2.697" style="fill:none;stroke:#000;stroke-width:.2;stroke-linecap:round;stroke-linejoin:round;stroke-dasharray:none;stroke-opacity:1"/></g></svg>