<svg xmlns="http://www.w3.org/2000/svg" width="64" height="64"><circle cx="32" cy="33" r="28" style="opacity:.2"/><path d="M32 4a28 28 0 0 0-16.57 5.518l14.664 19.876 3.67.815L48.84 9.636A28 28 0 0 0 32 4" style="fill:#42be65"/><path d="m27.677 33.955-22.148 6.99a28 28 0 0 0 25.41 18.978l-.071-24.579Z" style="fill:#1192e8"/><path d="m34.056 33.955-3.188 1.39-.074 24.57A28 28 0 0 0 32 60a28 28 0 0 0 26.234-18.413Z" style="fill:#1192e8"/><path d="M15.367 9.564A28 28 0 0 0 4 32a28 28 0 0 0 1.75 9.543l24.052-8.403.292-3.746Zm33.603.173L33.764 30.209l.292 3.746 23.91 8.348A28 28 0 0 0 60 32 28 28 0 0 0 48.97 9.737" style="fill:#009d9a"/><path d="M46.867 9.281 41.18 17H22.82l-5.68-7.707-.007.004q-.268.168-.531.344a28 28 0 0 0-2.852 2.132l5.973 8.106-5.535 16.617-9.356 2.996c.22.928.492 1.842.805 2.742a28 28 0 0 0 .468 1.258l10.56-3.367L30 49.582v11.273A28 28 0 0 0 32 61a28 28 0 0 0 2-.145V49.582l13.336-9.457 10.559 3.367a28 28 0 0 0 .468-1.258c.313-.9.585-1.814.805-2.742l-9.355-2.996-5.536-16.617 5.973-8.102a28 28 0 0 0-3.29-2.433z" style="opacity:.1"/><path d="M46.867 8.281 32 28.457 17.14 8.293l-.007.004q-.268.168-.531.344a28 28 0 0 0-2.852 2.132l14.824 20.118-23.742 7.601c.22.928.492 1.842.805 2.742a28 28 0 0 0 .468 1.258L30 34.875v24.98A28 28 0 0 0 32 60a28 28 0 0 0 2-.145v-24.98l23.895 7.617a28 28 0 0 0 .468-1.258c.313-.9.585-1.814.805-2.742l-23.742-7.601L50.25 10.777a28 28 0 0 0-3.29-2.433z" style="fill:#3f3f3f"/><path d="m-1.318-47.462 18.01 13.085-6.88 21.172h-22.261l-6.88-21.172z" style="fill:#3f3f3f" transform="matrix(-1.01692 0 0 -.99248 30.66 2.895)"/><path d="M32 4A28 28 0 0 0 4 32a28 28 0 0 0 .033.482A28 28 0 0 1 32 5a28 28 0 0 1 27.982 27.242L60 32A28 28 0 0 0 32 4" style="opacity:.2;fill:#fff"/></svg>