<svg xmlns="http://www.w3.org/2000/svg" width="64" height="64"><path d="M32 5c-4.828 0-5.933.075-7.863.56-7.952 1.995-12.34 6.937-13.897 15.65-.032.207-.053.39-.084.593a3.122 8.4 0 0 0-.035-.002A3.122 8.4 0 0 0 7 30.2a3.122 8.4 0 0 0 3.121 8.4 3.122 8.4 0 0 0 .178-.029 59 59 0 0 0 .81 3.375c.694 2.03 2.592 5.76 3.987 7.84 1.518 2.264 4.831 5.775 6.996 7.412 1.959 1.482 4.717 2.88 6.713 3.404 1.158.304 1.998.44 3.195.387 1.197.052 2.037-.083 3.195-.387.5-.13 1.046-.317 1.616-.545s1.163-.498 1.755-.799q.444-.225.883-.47h.002c.584-.327 1.156-.68 1.69-1.041.076-.052.144-.105.218-.156.187-.13.375-.261.55-.393h.001c.22-.166.456-.364.696-.565.055-.046.105-.082.162-.13l.002-.002c.6-.514 1.25-1.12 1.902-1.77l.002-.002a45 45 0 0 0 2.8-3.06q.421-.507.782-.98.361-.476.647-.901l.002-.002c.697-1.04 1.52-2.493 2.255-3.94.736-1.446 1.384-2.885 1.73-3.9v-.002a51 51 0 0 0 .51-2.03c.133-.553.249-1.097.358-1.63a3.122 8.4 0 0 0 .119.316A3.122 8.4 0 0 0 57 30.2a3.122 8.4 0 0 0-3.123-8.399 3.122 8.4 0 0 0-.023.065c-.034-.225-.056-.427-.092-.656-.876-4.901-2.65-8.61-5.448-11.272q-.465-.443-.968-.847h-.002q-.505-.405-1.047-.772a17 17 0 0 0-2.332-1.322c-1.245-.587-2.61-1.063-4.102-1.438a15 15 0 0 0-2.845-.46 39 39 0 0 0-2.024-.079C34.181 5.006 33.207 5 32 5" style="opacity:.2"/><ellipse cx="10.122" cy="29.2" rx="3.122" ry="8.4" style="fill:#0c73fa"/><ellipse cx="-53.878" cy="29.2" rx="3.122" ry="8.4" style="fill:#0c73fa" transform="scale(-1 1)"/><path d="M32 4c-4.828 0-5.933.073-7.863.558-7.952 1.996-12.34 6.938-13.898 15.65-1.297 8.29-1.163 13.289.871 20.737.694 2.03 2.592 5.76 3.986 7.84 1.519 2.265 4.831 5.775 6.996 7.412 1.959 1.482 4.717 2.88 6.713 3.404 1.159.304 1.998.44 3.195.388 1.197.052 2.036-.084 3.195-.388 1.996-.524 4.754-1.922 6.713-3.404 2.165-1.637 5.477-5.147 6.996-7.411 1.394-2.08 3.292-5.81 3.986-7.84 2.034-7.45 2.168-12.448.87-20.737-1.557-8.713-5.945-13.655-13.897-15.651C37.933 4.073 36.828 4 32 4" style="fill:#0c6ffa"/><path d="M32 4v55.989c1.197.053 2.037-.084 3.196-.388 1.995-.524 4.754-1.923 6.713-3.405 2.165-1.637 5.475-5.145 6.994-7.41 1.394-2.08 3.293-5.812 3.987-7.842a57 57 0 0 0 .868-3.661 3.122 8.4 0 0 0 .12.317A3.122 8.4 0 0 0 57 29.2a3.122 8.4 0 0 0-3.122-8.4 3.122 8.4 0 0 0-.025.066c-.033-.225-.056-.427-.092-.657-1.557-8.712-5.946-13.655-13.897-15.651C37.934 4.073 36.828 4 32 4" style="opacity:.2;fill:#fff"/><path d="M22.872 37.308c-1.555-1-3.17-2.916-4.14-4.915-.785-1.618-.8-1.721-.671-4.459.153-3.221.987-6.129 2.803-9.77L21.944 16l.327 1.276c.712 2.783 1.856 4.59 4.753 7.508 1.764 1.777 2.82 3.05 2.921 3.522.421 1.967-1.644 6.575-3.99 8.9-1.04 1.031-1.608 1.05-3.083.102" style="fill:#373737"/><path d="M20.55 27c-.61-.02-.554.37-.546 1.203C20.028 30.787 21.64 33 23.496 33c.508 0 1.406-.268 1.994-.596C26.5 31.842 28 30.171 28 29.61c0-.429-.396-.598-3.785-1.627-2.068-.627-3.126-.964-3.664-.982m22.9 0c-.54.018-1.597.355-3.665.982C36.395 29.011 36 29.18 36 29.61c0 .562 1.5 2.233 2.51 2.795.588.328 1.486.596 1.994.596 1.856 0 3.468-2.213 3.492-4.797.008-.834.063-1.223-.547-1.203" style="opacity:.2"/><path d="M25.49 31.404C26.5 30.842 28 29.171 28 28.61c0-.43-.396-.6-3.786-1.629-4.412-1.338-4.224-1.348-4.21.222C20.03 29.786 21.64 32 23.498 32c.507 0 1.404-.268 1.993-.596" style="fill:#fff"/><path d="M38 45.33c0 2.58-2.686 4.67-6 4.67s-6-2.09-6-4.67 2.686-.613 6-.613 6-1.966 6 .613m3.128-8.022c1.555-1 3.17-2.916 4.14-4.915.785-1.618.8-1.721.67-4.459-.152-3.221-.986-6.129-2.802-9.77L42.056 16l-.327 1.276c-.712 2.783-1.856 4.59-4.753 7.508-1.764 1.777-2.82 3.05-2.921 3.522-.421 1.967 1.644 6.575 3.99 8.9 1.04 1.031 1.608 1.05 3.083.102" style="fill:#373737"/><path d="M38.51 31.404C37.5 30.842 36 29.171 36 28.61c0-.43.396-.6 3.786-1.629 4.412-1.338 4.224-1.348 4.21.222C43.97 29.786 42.36 32 40.502 32c-.507 0-1.404-.268-1.993-.596" style="fill:#fff"/><path d="M32 4c-4.828 0-5.933.074-7.863.559-7.952 1.996-12.34 6.937-13.897 15.65-.032.207-.053.39-.084.594a3.122 8.4 0 0 0-.035-.002A3.122 8.4 0 0 0 7 29.199a3.122 8.4 0 0 0 .025.504 3.122 8.4 0 0 1 3.096-7.902 3.122 8.4 0 0 1 .035.002c.03-.204.052-.387.084-.594 1.558-8.713 5.945-13.654 13.897-15.65C26.067 5.074 27.172 5 32 5c1.207 0 2.181.005 2.994.02a39 39 0 0 1 2.024.078 15 15 0 0 1 2.845.46c1.491.375 2.857.851 4.102 1.438q.622.293 1.205.623a17 17 0 0 1 2.174 1.47h.002q.504.405.968.848c2.798 2.662 4.572 6.371 5.448 11.272.036.23.058.432.092.656a3.122 8.4 0 0 1 .023-.064 3.122 8.4 0 0 1 3.111 8.146A3.122 8.4 0 0 0 57 29.2a3.122 8.4 0 0 0-3.123-8.398 3.122 8.4 0 0 0-.023.064c-.034-.224-.056-.427-.092-.656-.876-4.901-2.65-8.61-5.448-11.271q-.465-.443-.968-.848h-.002q-.505-.405-1.047-.772a17 17 0 0 0-2.332-1.322c-1.245-.587-2.61-1.063-4.102-1.437a15 15 0 0 0-2.845-.461 39 39 0 0 0-2.024-.078A158 158 0 0 0 32 4" style="fill:#fff;opacity:.2"/></svg>