<svg xmlns="http://www.w3.org/2000/svg" width="64" height="64"><circle cx="32" cy="33" r="28" style="opacity:.2"/><circle cx="32" cy="32" r="28" style="fill:#3f3f3f"/><path d="M32.844 16q-3.527-.001-7.055.014a10.6 10.6 0 0 0-2.209.236 7.5 7.5 0 0 0-2.482 1.014c-.639.41-1.237.865-1.75 1.431a8.8 8.8 0 0 0-1.79 2.928c-.266.726-.411 1.473-.505 2.22-.157 1.213.055 2.043.406 3.202.23.764.571 1.483 1.006 2.156.654 1.015 1.432 1.903 2.422 2.57.528.358 1.08.672 1.63.993.446.261.895.503 1.34.754l1.178.658c.723.406 1.45.806 2.162 1.228.215.128.523.17.565.565-.12.005-.225.016-.325.021-1.151 0-2.302-.02-3.449.006-.91.021-1.822.069-2.691.453-.618.273-1.21.582-1.733 1.004a6.7 6.7 0 0 0-2.105 2.951c-.283.775-.46 1.584-.428 2.422.016.438.084 1.245.162 1.678.068.368.142.748.284 1.09.335.822.785 1.581 1.392 2.238a6.53 6.53 0 0 0 3.313 1.943c.638.155 1.315.21 1.974.21 4.696.015 9.39.021 14.086.005 1.293-.005 2.55-.225 3.748-.775a8.4 8.4 0 0 0 2.219-1.475 8.2 8.2 0 0 0 1.717-2.209 10 10 0 0 0 .65-1.584c.152-.464.23-.96.293-1.447.063-.486.13-1.188.098-1.674-.063-.934-.224-1.285-.543-2.172a9.7 9.7 0 0 0-1.203-2.324c-.68-.956-1.494-1.772-2.504-2.365-.79-.465-1.576-.94-2.371-1.395-.57-.33-1.163-.634-1.739-.955-.712-.4-1.43-.806-2.136-1.222-.095-.054-.133-.19-.201-.286.089-.037.176-.1.265-.1.9-.005 1.805.008 2.705-.003.99-.01 1.992.077 2.94-.281.576-.22 1.145-.46 1.674-.764a5.2 5.2 0 0 0 1.8-1.717c.335-.534.655-1.086.9-1.668.179-.422.211-.903.321-1.357.293-1.191.03-2.701-.352-3.807-.282-.823-.765-1.551-1.351-2.203-.906-1.004-2.025-1.643-3.297-1.975-.639-.165-1.313-.218-1.973-.218q-3.53-.012-7.058-.014m0 3a2251 2251 0 0 1 7.058.014c.499 0 .928.047 1.221.123.774.202 1.315.52 1.82 1.08.388.431.624.823.743 1.168l.002.006c.245.71.328 1.893.275 2.109l-.004.01c-.192.794-.257 1.11-.168.898-.147.349-.38.764-.674 1.233a2.1 2.1 0 0 1-.77.722c-.31.179-.726.362-1.228.553h-.002c-.143.054-.724.075-1.91.088h-.002c-.381.004-.805.003-1.205.002V27h-6.83c-1.17 0-1.17.945-1.17.945v5.565s-1.98-1.101-3.496-1.95l-.006-.003-1.166-.653-.012-.006c-.477-.269-.907-.5-1.281-.72l-.01-.006c-.569-.332-1.061-.614-1.46-.885l-.005-.002c-.571-.386-1.079-.935-1.578-1.709l-.002-.002a5.5 5.5 0 0 1-.652-1.394l-.002-.004c-.333-1.1-.393-1.25-.303-1.948l.002-.01c.078-.615.187-1.129.346-1.56a5.7 5.7 0 0 1 1.19-1.941l.005-.008c.27-.298.642-.595 1.153-.924l.002-.002a4.5 4.5 0 0 1 1.5-.604h.005a7.7 7.7 0 0 1 1.573-.166q3.52-.015 7.04-.013M33 31.9s1.191.635 1.992 1.102a127 127 0 0 0 2.156 1.234c.636.354 1.212.65 1.692.928l.02.012c.749.427 1.523.896 2.337 1.375l.002.002c.58.34 1.085.822 1.578 1.515l.002.006c.328.458.599.987.825 1.606l.002.002c.333.921.324.71.367 1.344v.002c.001.038-.029.703-.078 1.087-.056.43-.12.746-.17.9l-.008.026a7 7 0 0 1-.451 1.102v.002a5.2 5.2 0 0 1-1.098 1.396 5.3 5.3 0 0 1-1.426.945l-.004.002c-.751.345-1.545.498-2.506.502a2054 2054 0 0 1-14.076-.006c-.495 0-.945-.046-1.267-.125q-.008 0-.014-.002c-.718-.17-1.265-.488-1.807-1.068-.325-.353-.59-.779-.812-1.326l-.008-.016c.017.041-.04-.143-.103-.478v-.002l-.002-.008a23 23 0 0 1-.114-1.24v-.004c-.013-.347.058-.761.248-1.282a3.57 3.57 0 0 1 1.168-1.642l.002-.002c.223-.18.564-.375 1.06-.594l.005-.002c.242-.107.692-.177 1.547-.197.304-.007.626-.005.941-.006V39h7.044s.956-.024.956-1v-2z" style="opacity:.2"/><path d="M32.844 15q-3.527-.001-7.055.014a10.6 10.6 0 0 0-2.209.236 7.5 7.5 0 0 0-2.482 1.014c-.639.41-1.237.865-1.75 1.431a8.8 8.8 0 0 0-1.79 2.928c-.266.726-.411 1.473-.505 2.22-.157 1.213.055 2.043.406 3.202.23.764.571 1.483 1.006 2.156.654 1.015 1.432 1.903 2.422 2.57.528.358 1.08.672 1.63.993.446.261.895.503 1.34.754l1.178.658c.723.406 1.45.806 2.162 1.228.215.128.523.17.565.565-.12.005-.225.016-.325.021-1.151 0-2.302-.02-3.449.006-.91.021-1.822.069-2.691.453-.618.273-1.21.582-1.733 1.004a6.7 6.7 0 0 0-2.105 2.951c-.283.775-.46 1.584-.428 2.422.016.438.084 1.245.162 1.678.068.368.142.748.284 1.09.335.822.785 1.581 1.392 2.238a6.53 6.53 0 0 0 3.313 1.943c.638.155 1.315.21 1.974.21 4.696.015 9.39.021 14.086.005 1.293-.005 2.55-.225 3.748-.775a8.4 8.4 0 0 0 2.219-1.475 8.2 8.2 0 0 0 1.717-2.209 10 10 0 0 0 .65-1.584c.152-.464.23-.96.293-1.447.063-.486.13-1.188.098-1.674-.063-.934-.224-1.285-.543-2.172a9.7 9.7 0 0 0-1.203-2.324c-.68-.956-1.494-1.772-2.504-2.365-.79-.465-1.576-.94-2.371-1.395-.57-.33-1.163-.634-1.739-.955-.712-.4-1.43-.806-2.136-1.222-.095-.054-.133-.19-.201-.286.089-.037.176-.1.265-.1.9-.005 1.805.008 2.705-.003.99-.01 1.992.077 2.94-.281.576-.22 1.145-.46 1.674-.764a5.2 5.2 0 0 0 1.8-1.717c.335-.534.655-1.086.9-1.668.179-.422.211-.903.321-1.357.293-1.191.03-2.701-.352-3.807-.282-.823-.765-1.551-1.351-2.203-.906-1.004-2.025-1.643-3.297-1.975-.639-.165-1.313-.218-1.973-.218q-3.53-.012-7.058-.014m0 3a2251 2251 0 0 1 7.058.014c.499 0 .928.047 1.221.123.774.202 1.315.52 1.82 1.08.388.431.624.823.743 1.168l.002.006c.245.71.328 1.893.275 2.109l-.004.01c-.192.794-.257 1.11-.168.898-.147.349-.38.764-.674 1.233a2.1 2.1 0 0 1-.77.722c-.31.179-.726.362-1.228.553h-.002c-.143.054-.724.075-1.91.088h-.002c-.381.004-.805.003-1.205.002V26h-6.83c-1.17 0-1.17.945-1.17.945v5.565s-1.98-1.101-3.496-1.95l-.006-.003-1.166-.653-.012-.006c-.477-.269-.907-.5-1.281-.72l-.01-.006c-.569-.332-1.061-.614-1.46-.885l-.005-.002c-.571-.386-1.079-.935-1.578-1.709l-.002-.002a5.5 5.5 0 0 1-.652-1.394l-.002-.004c-.333-1.1-.393-1.25-.303-1.948l.002-.01c.078-.615.187-1.129.346-1.56a5.7 5.7 0 0 1 1.19-1.941l.005-.008c.27-.298.642-.595 1.153-.924l.002-.002a4.5 4.5 0 0 1 1.5-.604h.005a7.7 7.7 0 0 1 1.573-.166q3.52-.015 7.04-.013M33 30.9s1.191.635 1.992 1.102a127 127 0 0 0 2.156 1.234c.636.354 1.212.65 1.692.928l.02.012c.749.427 1.523.896 2.337 1.375l.002.002c.58.34 1.085.822 1.578 1.515l.002.006c.328.458.599.987.825 1.606l.002.002c.333.921.324.71.367 1.344v.002c.001.038-.029.703-.078 1.087-.056.43-.12.746-.17.9l-.008.026a7 7 0 0 1-.451 1.102v.002a5.2 5.2 0 0 1-1.098 1.396 5.3 5.3 0 0 1-1.426.945l-.004.002c-.751.345-1.545.498-2.506.502a2054 2054 0 0 1-14.076-.006c-.495 0-.945-.046-1.267-.125q-.008 0-.014-.002c-.718-.17-1.265-.488-1.807-1.068-.325-.353-.59-.779-.812-1.326l-.008-.016c.017.041-.04-.143-.103-.478v-.002l-.002-.008a23 23 0 0 1-.114-1.24v-.004c-.013-.347.058-.761.248-1.282a3.57 3.57 0 0 1 1.168-1.642l.002-.002c.223-.18.564-.375 1.06-.594l.005-.002c.242-.107.692-.177 1.547-.197.304-.007.626-.005.941-.006V38h7.044s.956-.024.956-1v-2z" style="fill:#00f782"/><path d="M32 4A28 28 0 0 0 4 32a28 28 0 0 0 .035.5A28 28 0 0 1 32 5a28 28 0 0 1 27.982 27.252L60 32A28 28 0 0 0 32 4" style="fill:#fff;opacity:.1"/></svg>