<svg xmlns="http://www.w3.org/2000/svg" width="64" height="64"><path d="M2 17v12.6c0 .775.625 1.4 1.4 1.4h25.2c.775 0 1.4-.625 1.4-1.4V17z" style="opacity:.2" transform="matrix(2 0 0 2 0 -1)"/><path d="M32 4H6.8A2.794 2.794 0 0 0 4 6.8V32h28Z" style="fill:#8e8e8e"/><path d="M32 4h25.2C58.751 4 60 5.249 60 6.8V32H32Z" style="fill:#e4e4e4"/><path d="M32 60H6.8A2.794 2.794 0 0 1 4 57.2V32h28Z" style="fill:#45792a"/><path d="M32 60h25.2c1.551 0 2.8-1.249 2.8-2.8V32H32Z" style="fill:#8e8e8e"/><circle cx="18" cy="19" r="8" style="opacity:.1"/><circle cx="18" cy="18" r="8" style="fill:#fff"/><path d="m14.07 26.76 4.02 6.96 4.018 6.96H6.033l4.019-6.96z" style="opacity:.1" transform="matrix(1.24414 0 0 1.4366 .495 -1.442)"/><path d="m14.07 26.76 4.02 6.96 4.018 6.96H6.033l4.019-6.96z" style="fill:#ffdd4c" transform="matrix(1.24414 0 0 1.4366 .495 -2.442)"/><path d="M44 11v6h-6v4h6v6h4v-6h6v-4h-6v-6z" style="opacity:.1"/><path d="M44 10v6h-6v4h6v6h4v-6h6v-4h-6v-6z" style="fill:#3f3f3f"/><path d="M50 41h4v16h-4z" style="opacity:.1"/><path d="M50 40h4v16h-4z" style="fill:#3f3f3f"/><path d="m14.07 26.76 4.02 6.96 4.018 6.96H6.033l4.019-6.96z" style="opacity:.1" transform="matrix(0 .8709 1.29295 0 1.402 31.746)"/><path d="m14.07 26.76 4.02 6.96 4.018 6.96H6.033l4.019-6.96z" style="fill:#e33939" transform="matrix(0 .8709 1.29295 0 1.402 30.746)"/><path d="M6.8 4C5.25 4 4 5.25 4 6.8v1C4 6.25 5.25 5 6.8 5h50.4C58.75 5 60 6.25 60 7.8v-1C60 5.25 58.75 4 57.2 4z" style="opacity:.2;fill:#fff"/></svg>