<svg xmlns="http://www.w3.org/2000/svg" width="64" height="64"><rect width="56" height="56" x="4" y="5" ry="11.2" style="opacity:.2"/><rect width="56" height="56" x="4" y="4" ry="11.2" style="fill:#3a54b4"/><path d="M44.059 5 43 14.182 41.8 24.6l9.622-4.17L60 16.714V16.2c0-.25-.02-.493-.036-.738l-7.341-5.447L45.863 5Zm2.368 3.905 4.525 3.358 4.528 3.357-5.173 2.243-5.171 2.239.645-5.597zM4 40.505v2.96l.246.084 12.868 4.403-4.118 12.012-.26.757c.793.177 1.616.279 2.464.279h.402l.044-.129L20.67 46.21 5.154 40.9z" style="opacity:.2"/><path stroke="#139ffb" stroke-linecap="square" stroke-width="2.626" d="m57.234 41.565-6.658 3.955 3.86 6.714-3.956-6.658-6.714 3.86 6.658-3.956-3.86-6.714 3.956 6.658z" style="opacity:.2;fill:none;stroke:#000;stroke-width:2.99971"/><path d="M44.059 4 43 13.182 41.8 23.6l9.622-4.17L60 15.714V15.2c0-.25-.02-.493-.036-.738l-7.341-5.447L45.863 4Zm2.368 3.905 4.525 3.357 4.528 3.358-5.173 2.243-5.171 2.239.645-5.597zM4 39.505v2.96l.246.084 12.868 4.403-4.118 12.012-.26.757c.793.177 1.616.279 2.464.279h.402l.044-.129L20.67 45.21 5.154 39.9z" style="fill:#139ffb"/><path stroke="#139ffb" stroke-linecap="square" stroke-width="2.626" d="m57.234 40.565-6.658 3.955 3.86 6.714-3.956-6.658-6.714 3.86 6.658-3.956-3.86-6.714 3.956 6.658z" style="fill:none;stroke-width:2.99971"/><path stroke="#fff" stroke-linecap="square" stroke-linejoin="round" stroke-width="2.32" d="M37.5 44.5v-28l-21 22h27" style="opacity:.2;fill:none;stroke:#000;stroke-width:5"/><path stroke="#fff" stroke-linecap="square" stroke-linejoin="round" stroke-width="2.32" d="M37.5 43.5v-28l-21 22h27" style="fill:none;stroke-width:5"/><path stroke="#139ffb" stroke-linecap="round" stroke-width="2.192" d="M22.5 18.5a7 7 0 0 1-6.973 7A7 7 0 0 1 8.5 18.556a7 7 0 0 1 6.917-7.055 7 7 0 0 1 7.082 6.888" style="opacity:.2;fill:none;stroke:#000;stroke-width:3"/><path stroke="#139ffb" stroke-linecap="round" stroke-width="2.192" d="M22.5 17.5a7 7 0 0 1-6.973 7A7 7 0 0 1 8.5 17.556a7 7 0 0 1 6.917-7.055 7 7 0 0 1 7.082 6.888" style="fill:none;stroke-width:3"/><path d="M44.059 4 43 13.182 41.8 23.6l.122-.053L43 14.182 44.059 5h1.804l6.76 5.016 7.342 5.445c.006.087.006.176.012.264l.023-.01v-.516c0-.25-.02-.493-.035-.738l-7.342-5.445L45.863 4zm-28.66 5c-4.664.055-8.436 3.905-8.399 8.568.001.143.017.282.025.422.266-4.398 3.905-7.937 8.373-7.99 4.544-.054 8.317 3.514 8.577 8.01.01-.17.025-.338.025-.51l-.023-.023.021-.112c-.074-4.663-3.936-8.42-8.6-8.365m39.23 5.99-4.322 1.873-5.05 2.186-.12 1.053 5.17-2.239 5.173-2.242zm-44.604 2.977q-.027.284-.025.576A5.48 5.48 0 0 0 15.521 24 5.48 5.48 0 0 0 21 18.5l.018-.043-.02-.045c-.002-.125-.013-.246-.023-.369A5.476 5.476 0 0 1 15.52 23a5.47 5.47 0 0 1-5.496-5.033M47.854 37l-2.59 1.514.43.748L47.853 38l.011.018.037.064 3.153 5.305 5.431-3.123 1.08 1.847.352-.209.064-.037.018-.011-1.514-2.59-5.431 3.123-3.153-5.305-.037-.064zM4 39.506v1l1.154.394 15.211 5.204.307-.895L5.154 39.9zm43.959 4.693-4.877 2.899-.064.037-.018.011.434.743 4.953-2.944zm5.082 1.602-.428.254 2.694 4.683.43-.252zm-36.234 2.045-3.81 11.117-.26.758c.105.023.216.033.324.054l4.052-11.824z" style="fill:#fff;opacity:.2"/><path d="M15.2 4C8.993 4 4 8.994 4 15.2v1C4 9.993 8.994 5 15.2 5h33.6C55.007 5 60 9.994 60 16.2v-1C60 8.993 55.006 4 48.8 4z" style="fill:#fff;opacity:.1"/></svg>