<svg xmlns="http://www.w3.org/2000/svg" width="64" height="64"><circle cx="32" cy="33" r="28" style="opacity:.2"/><circle cx="32" cy="32" r="28" style="fill:#e4e4e4"/><path d="M13.224 44.423c22.456-7.459 22.74-7.744 30.2-30.199-8.478-5.182-19.685-4.119-27.002 3.198s-8.38 18.524-3.198 27.001m12.237 9.57c10.356-16.97 10.561-17.176 27.531-27.532 2.368 7.562.565 16.138-5.414 22.117S33.023 56.36 25.46 53.992" style="opacity:.1"/><path fill="#673ab7" d="M13.224 43.423c22.456-7.459 22.74-7.744 30.2-30.199-8.478-5.182-19.685-4.119-27.002 3.198s-8.38 18.524-3.198 27.001m12.237 9.57c10.356-16.97 10.561-17.176 27.531-27.532 2.368 7.562.565 16.138-5.414 22.117S33.023 55.36 25.46 52.992"/><path d="M32 4A28 28 0 0 0 4 32a28 28 0 0 0 .033.482A28 28 0 0 1 32 5a28 28 0 0 1 27.982 27.242L60 32A28 28 0 0 0 32 4" style="opacity:.2;fill:#fff"/></svg>