<svg xmlns="http://www.w3.org/2000/svg" xmlns:xlink="http://www.w3.org/1999/xlink" width="64" height="64"><defs><radialGradient xlink:href="#a" id="b" cx="11.2" cy="52.256" r="22" fx="11.2" fy="52.256" gradientTransform="rotate(-15 -356.157 174.377)scale(2.4782 3.15406)" gradientUnits="userSpaceOnUse"/><linearGradient id="a"><stop offset="0" style="stop-color:#28a268;stop-opacity:1"/><stop offset="1" style="stop-color:#1fc327;stop-opacity:1"/></linearGradient></defs><path d="M13.75 12C12.226 12 11 13.249 11 14.8v50.4c0 1.55 1.227 2.8 2.75 2.8h38.5c1.522 0 2.75-1.25 2.75-2.8V30L37 12Z" style="fill:url(#b);fill-opacity:1" transform="translate(-1 -8)"/><path d="M55 30 37 12v15.188A2.806 2.806 0 0 0 39.813 30Z" style="opacity:.537555;fill:#fff;fill-opacity:1" transform="translate(-1 -8)"/><path d="M21 34.887v11.226A2.887 2.887 45 0 0 23.887 49h16.226A2.887 2.887 135 0 0 43 46.113V34.887A2.887 2.887 45 0 0 40.113 32H23.887A2.887 2.887 135 0 0 21 34.887M23.916 34h6.168a.916.916 45 0 1 .916.916v1.168a.916.916 135 0 1-.916.916h-6.168a.916.916 45 0 1-.916-.916v-1.168a.916.916 135 0 1 .916-.916m10 0h6.168a.916.916 45 0 1 .916.916v1.168a.916.916 135 0 1-.916.916h-6.168a.916.916 45 0 1-.916-.916v-1.168a.916.916 135 0 1 .916-.916m-10 5h6.168a.916.916 45 0 1 .916.916v1.168a.916.916 135 0 1-.916.916h-6.168a.916.916 45 0 1-.916-.916v-1.168a.916.916 135 0 1 .916-.916m10 0h6.168a.916.916 45 0 1 .916.916v1.168a.916.916 135 0 1-.916.916h-6.168a.916.916 45 0 1-.916-.916v-1.168a.916.916 135 0 1 .916-.916m-10 5h6.168a.916.916 45 0 1 .916.916v1.168a.916.916 135 0 1-.916.916h-6.168a.916.916 45 0 1-.916-.916v-1.168a.916.916 135 0 1 .916-.916m10 0h6.168a.916.916 45 0 1 .916.916v1.168a.916.916 135 0 1-.916.916h-6.168a.916.916 45 0 1-.916-.916v-1.168a.916.916 135 0 1 .916-.916" style="fill:#fff"/></svg>