<svg xmlns="http://www.w3.org/2000/svg" xmlns:xlink="http://www.w3.org/1999/xlink" width="64" height="64"><defs><radialGradient xlink:href="#a" id="c" cx="13.039" cy="49.908" r="28.054" fx="13.039" fy="49.908" gradientTransform="matrix(2.2285 -.39502 .38086 2.14864 -35.027 -52.176)" gradientUnits="userSpaceOnUse"/><radialGradient xlink:href="#a" id="e" cx="13.039" cy="49.908" r="28.054" fx="13.039" fy="49.908" gradientTransform="matrix(2.2285 -.39502 .38086 2.14864 -35.027 -52.176)" gradientUnits="userSpaceOnUse"/><radialGradient xlink:href="#b" id="f" cx="40.393" cy="41.255" r="26.804" fx="40.393" fy="41.255" gradientTransform="matrix(2.29601 -.4437 .40237 2.0821 -96.203 -22.536)" gradientUnits="userSpaceOnUse"/><linearGradient id="a"><stop offset="0" style="stop-color:#707070;stop-opacity:1"/><stop offset="1" style="stop-color:#353535;stop-opacity:1"/></linearGradient><linearGradient id="b"><stop offset="0" style="stop-color:#363636;stop-opacity:1"/><stop offset="1" style="stop-color:#202020;stop-opacity:1"/></linearGradient><filter id="d" width="1.216" height="1.216" x="-.108" y="-.108" style="color-interpolation-filters:sRGB"><feGaussianBlur stdDeviation="1.314"/></filter></defs><rect width="51.308" height="51.308" x="6.346" y="6.346" rx="15.03" ry="15.03" style="opacity:.95898;mix-blend-mode:normal;fill:url(#c);fill-opacity:1;stroke:#000;stroke-width:4.8;stroke-linejoin:round;stroke-dasharray:none;stroke-opacity:1;filter:url(#d)" transform="translate(1.638 3.736)scale(.9488)"/><rect width="51.308" height="51.308" x="6.346" y="6.346" rx="15.03" ry="15.03" style="fill:url(#e);fill-opacity:1;stroke:url(#f);stroke-width:4.8;stroke-linejoin:round;stroke-dasharray:none"/><path d="M37.576 14.57h.21c.168 2.08-.626 3.635-1.591 4.76-.947 1.118-2.244 2.203-4.341 2.038-.14-2.05.655-3.49 1.62-4.613.893-1.047 2.532-1.978 4.102-2.185m6.45 21.777v.058c-.59 1.785-1.43 3.315-2.457 4.735-.936 1.29-2.084 3.024-4.133 3.024-1.771 0-2.947-1.139-4.762-1.17-1.92-.031-2.976.952-4.731 1.2h-.599c-1.289-.187-2.329-1.208-3.087-2.128-2.234-2.717-3.961-6.228-4.283-10.72v-1.32c.137-3.216 1.699-5.83 3.775-7.097 1.096-.674 2.603-1.248 4.28-.991.72.111 1.454.358 2.098.601.61.235 1.373.65 2.096.628.49-.014.977-.27 1.47-.45 1.446-.521 2.863-1.12 4.731-.839 2.245.34 3.838 1.337 4.823 2.876-1.9 1.209-3.4 3.03-3.144 6.14.228 2.826 1.87 4.479 3.923 5.453" style="opacity:.669776;fill:#000;fill-opacity:1;stroke-width:1.2951;stroke-dasharray:none"/></svg>