<svg xmlns="http://www.w3.org/2000/svg" width="64" height="64"><path d="M53.836 19.002c-.745.035-1.408.621-1.606 1.5l-.173.766c-.197.872.128 1.76.754 2.22l.906 2.223c.45 1.106 1.541 1.592 2.443 1.092l.832-.461c.902-.5 1.266-1.794.815-2.9l-1.118-2.74c-.262-.644-.74-1.079-1.271-1.231a1.7 1.7 0 0 0-.443-.213l-.616-.19a1.5 1.5 0 0 0-.523-.066" style="opacity:.2"/><path d="m54.246 18.607-.832.463c-.902.5-1.265 1.794-.814 2.9l1.118 2.74c.45 1.106 1.54 1.594 2.442 1.093l.833-.462c.901-.5 1.264-1.794.813-2.9L56.69 19.7c-.452-1.107-1.54-1.594-2.443-1.094" style="fill:#4f4f4f"/><path d="m54.976 18.258-.616-.189c-.937-.288-1.887.35-2.13 1.432l-.173.766c-.244 1.082.315 2.184 1.251 2.472l.616.19c.936.288 1.887-.351 2.13-1.433l.173-.765c.243-1.082-.315-2.185-1.251-2.473" style="fill:#4f4f4f"/><path d="m47.317 37.703 1.668-.597c1.202-.43 2.674.48 3.301 2.038l1.434 3.564c.627 1.559.165 3.16-1.037 3.589l-1.668.597c-1.202.43-2.674-.48-3.301-2.038l-1.434-3.564c-.627-1.559-.165-3.16 1.037-3.589" style="opacity:.2"/><path d="m47.317 36.703 1.668-.597c1.202-.43 2.674.48 3.301 2.038l1.434 3.564c.627 1.559.165 3.16-1.037 3.589l-1.668.597c-1.202.43-2.674-.48-3.301-2.038l-1.434-3.564c-.627-1.559-.165-3.16 1.037-3.589" style="fill:#4f4f4f"/><path d="m37.423 53.631 3.716-.776a1.735 1.735 0 0 1 2.07 1.38l.772 4.027a1.81 1.81 0 0 1-1.404 2.107l-3.716.776a1.735 1.735 0 0 1-2.07-1.38l-.772-4.027a1.81 1.81 0 0 1 1.404-2.107" style="opacity:.2"/><path d="m37.423 52.631 3.716-.776a1.735 1.735 0 0 1 2.07 1.38l.772 4.027a1.81 1.81 0 0 1-1.404 2.107l-3.716.776a1.735 1.735 0 0 1-2.07-1.38l-.772-4.027a1.81 1.81 0 0 1 1.404-2.107" style="fill:#4f4f4f"/><path d="M25.143 31h13.714C45.03 31 50 35.97 50 42.143v3.714C50 52.03 45.03 57 38.857 57H25.143A11.12 11.12 0 0 1 14 45.857v-3.714C14 35.97 18.97 31 25.143 31" style="opacity:.2"/><path d="M25.143 30h13.714C45.03 30 50 34.97 50 41.143v3.714C50 51.03 45.03 56 38.857 56H25.143A11.12 11.12 0 0 1 14 44.857v-3.714C14 34.97 18.97 30 25.143 30" style="fill:#ccc"/><path d="M54 22a22 17 0 0 1-22 17 22 17 0 0 1-22-17A22 17 0 0 1 32 5a22 17 0 0 1 22 17" style="opacity:.2"/><path d="M54 21a22 17 0 0 1-22 17 22 17 0 0 1-22-17A22 17 0 0 1 32 4a22 17 0 0 1 22 17" style="fill:#ccc"/><path d="M32 4a22 17 0 0 0-22 17 22 17 0 0 0 .01.5A22 17 0 0 1 32 5a22 17 0 0 1 21.99 16.5A22 17 0 0 0 54 21 22 17 0 0 0 32 4" style="fill:#fff;opacity:.2"/><path d="M50 20a17 12 0 0 1-17 12 17 12 0 0 1-17-12A17 12 0 0 1 33 8a17 12 0 0 1 17 12" style="fill:#4f4f4f"/><path d="M33 8a17 12 0 0 0-17 12 17 12 0 0 0 .016.5A17 12 0 0 1 33 9a17 12 0 0 1 16.984 11.5A17 12 0 0 0 50 20 17 12 0 0 0 33 8" style="opacity:.2"/><path d="M28 18a2.5 4 0 0 1-2.5 4 2.5 4 0 0 1-2.5-4 2.5 4 0 0 1 2.5-4 2.5 4 0 0 1 2.5 4M46 18a2.5 4 0 0 1-2.5 4 2.5 4 0 0 1-2.5-4 2.5 4 0 0 1 2.5-4 2.5 4 0 0 1 2.5 4" style="fill:#e6e6e6"/><path d="M32.5 19c-.831 0-1.5.669-1.5 1.5s.669 1.5 1.5 1.5H34v1.5c0 .831.669 1.5 1.5 1.5s1.5-.669 1.5-1.5V22h1.5c.831 0 1.5-.669 1.5-1.5s-.669-1.5-1.5-1.5z" style="opacity:.2"/><path d="M32.5 18h6c.831 0 1.5.669 1.5 1.5s-.669 1.5-1.5 1.5h-6c-.831 0-1.5-.669-1.5-1.5s.669-1.5 1.5-1.5" style="fill:#e6e6e6"/><path d="M35.5 18c.831 0 1.5.669 1.5 1.5v3c0 .831-.669 1.5-1.5 1.5s-1.5-.669-1.5-1.5v-3c0-.831.669-1.5 1.5-1.5" style="fill:#e6e6e6"/><path d="m22.017 53.094 1.316.255c1.642.32 2.824 1.359 2.65 2.33l-.724 4.05c-.173.972-1.635 1.497-3.276 1.177l-1.316-.255c-1.642-.32-2.824-1.359-2.65-2.33l.724-4.05c.173-.972 1.635-1.497 3.276-1.177" style="opacity:.2"/><path d="m22.017 52.094 1.316.255c1.642.32 2.824 1.359 2.65 2.33l-.724 4.05c-.173.972-1.635 1.497-3.276 1.177l-1.316-.255c-1.642-.32-2.824-1.359-2.65-2.33l.724-4.05c.173-.972 1.635-1.497 3.276-1.177" style="fill:#4f4f4f"/><path d="m14.89 37.091 1.71.554c1.232.399 1.746 1.984 1.155 3.555L16.4 44.793c-.592 1.57-2.06 2.514-3.291 2.116l-1.71-.554c-1.232-.399-1.746-1.984-1.155-3.555l1.354-3.593c.592-1.57 2.06-2.514 3.291-2.116" style="opacity:.2"/><path d="m14.89 36.091 1.71.554c1.232.399 1.746 1.984 1.155 3.555L16.4 43.793c-.592 1.57-2.06 2.514-3.291 2.116l-1.71-.554c-1.232-.399-1.746-1.984-1.155-3.555l1.354-3.593c.592-1.57 2.06-2.514 3.291-2.116" style="fill:#4f4f4f"/><path d="M10.164 19.002a1.5 1.5 0 0 0-.523.066l-.616.19a1.7 1.7 0 0 0-.443.213c-.531.152-1.01.587-1.271 1.23l-1.118 2.74c-.45 1.107-.087 2.4.815 2.9l.832.462c.902.5 1.992.014 2.443-1.092l.906-2.223c.626-.46.951-1.348.754-2.22l-.173-.766c-.198-.879-.861-1.465-1.606-1.5" style="opacity:.2"/><path d="m9.754 18.607.832.463c.902.5 1.265 1.794.814 2.9l-1.118 2.74c-.45 1.106-1.54 1.594-2.442 1.093l-.833-.462c-.901-.5-1.264-1.794-.813-2.9L7.31 19.7c.452-1.107 1.54-1.594 2.443-1.094" style="fill:#4f4f4f"/><path d="m9.024 18.258.616-.189c.937-.288 1.887.35 2.13 1.432l.173.766c.244 1.082-.315 2.184-1.251 2.472l-.616.19c-.936.288-1.887-.351-2.13-1.433l-.173-.765c-.243-1.082.315-2.185 1.251-2.473" style="fill:#4f4f4f"/></svg>