<svg xmlns="http://www.w3.org/2000/svg" xmlns:xlink="http://www.w3.org/1999/xlink" width="64" height="64"><defs><filter id="e" width="1.285" height="1.139" x="-.143" y="-.07" style="color-interpolation-filters:sRGB"><feGaussianBlur stdDeviation="1.148"/></filter><filter id="c" width="1.263" height="1.141" x="-.131" y="-.071" style="color-interpolation-filters:sRGB"><feGaussianBlur stdDeviation="1.376"/></filter><filter id="d" width="1.17" height="1.081" x="-.085" y="-.041" style="color-interpolation-filters:sRGB"><feGaussianBlur stdDeviation=".71"/></filter><radialGradient xlink:href="#a" id="b" cx="23.504" cy="45.96" r="12.9" fx="23.504" fy="45.96" gradientTransform="matrix(3.54284 0 0 4.71148 -66.164 -158.59)" gradientUnits="userSpaceOnUse"/><linearGradient id="a"><stop offset="0" style="stop-color:#d0c6c6;stop-opacity:1"/><stop offset="1" style="stop-color:#f0f0f0;stop-opacity:1"/></linearGradient></defs><path d="M40.833 8.337 20.8 18.857a3.18 3.18 121.147 0 0-1.7 2.814v10.16a3.18 3.18 58.858 0 0 1.7 2.814l4.958 2.605-4.957 2.601a3.18 3.18 121.155 0 0-1.701 2.814v10.537a2.777 2.777 31.149 0 0 4.067 2.459L43.2 45.143a3.18 3.18 121.149 0 0 1.7-2.814v-10.16a3.18 3.18 58.858 0 0-1.7-2.814l-4.958-2.605 4.957-2.601a3.18 3.18 121.155 0 0 1.701-2.814v-10.54a2.777 2.777 31.147 0 0-4.067-2.458" style="baseline-shift:baseline;display:inline;overflow:visible;opacity:1;vector-effect:none;fill:url(#b);enable-background:accumulate;stop-color:#000;stop-opacity:1" transform="translate(-5.436 -5.436)scale(1.16988)"/><path d="M40.833 8.337 20.8 18.857a3.18 3.18 121.147 0 0-1.7 2.814v10.16a3.18 3.18 58.858 0 0 1.7 2.814l4.958 2.605-4.957 2.601a3.18 3.18 121.155 0 0-1.701 2.814v10.537a2.777 2.777 31.149 0 0 4.067 2.459L43.2 45.143a3.18 3.18 121.149 0 0 1.7-2.814v-10.16a3.18 3.18 58.858 0 0-1.7-2.814l-4.958-2.605 4.957-2.601a3.18 3.18 121.155 0 0 1.701-2.814v-10.54a2.777 2.777 31.147 0 0-4.067-2.458Z" style="baseline-shift:baseline;display:inline;overflow:visible;fill:none;enable-background:accumulate;stop-color:#000;stroke:#000;stroke-opacity:1;stroke-width:.17095822;stroke-dasharray:none;filter:url(#c)" transform="translate(-5.436 -5.435)scale(1.16988)"/><g style="opacity:.58042153;mix-blend-mode:normal;filter:url(#d)" transform="translate(-5.436 -5.436)scale(1.16988)"><path d="M32.002 26.75v10.5h-.003L22 32Z" style="fill:#ff6f3d"/><path d="M42 11v10.502l-9.998-5.253Z" style="fill:#ffa03a"/><path d="m42 21.502-9.998 5.249V16.249Z" style="fill:#ff6f3d"/><path d="M32.002 16.25v10.5L22 21.503Zm0 31.5L22 53V42.498Z" style="fill:#6239ae"/><path fill="#8d3f42" d="M42 32v10.5l-9.998-5.25Z"/><path fill="#ec232e" d="m42 42.499-9.998 5.252V37.249Z"/><path fill="#b62078" d="M32.002 37.25v10.5L22 42.5l9.998-5.25Z"/><path fill="#ec232f" d="m42 32-9.998 5.25v-10.5Z"/><path d="M32.002 26.75 22 32V21.502Z" style="fill:#f0463f"/></g><g style="opacity:.72770003"><path d="M32.002 26.75v10.5h-.003L22 32Z" style="fill:#ff6f3d" transform="translate(-5.436 -5.436)scale(1.16988)"/><path d="M42 11v10.502l-9.998-5.253Z" style="fill:#ffa03a" transform="translate(-5.436 -5.436)scale(1.16988)"/><path d="m42 21.502-9.998 5.249V16.249Z" style="fill:#ff6f3d" transform="translate(-5.436 -5.436)scale(1.16988)"/><path d="M32.002 16.25v10.5L22 21.503Zm0 31.5L22 53V42.498Z" style="fill:#6239ae" transform="translate(-5.436 -5.436)scale(1.16988)"/><path fill="#8d3f42" d="M43.699 32v12.282l-11.697-6.14Z"/><path fill="#ec232e" d="m43.699 44.282-11.697 6.145V38.14Z"/><path fill="#b62078" d="M32.002 38.141v12.286l-11.7-6.145 11.696-6.14Z"/><path fill="#ec232f" d="m43.699 32-11.697 6.141V25.86Z"/><path d="M32.002 26.75 22 32V21.502Z" style="fill:#f0463f" transform="translate(-5.436 -5.436)scale(1.16988)"/></g><path d="m42 11-9.998 5.25L22 21.502V32l9.998 5.25L22 42.5V53l10.002-5.248L42 42.5V32l-9.998-5.248L42 21.502Z" style="mix-blend-mode:normal;fill:none;fill-opacity:1;stroke:red;stroke-width:.2;stroke-dasharray:none;stroke-opacity:1;filter:url(#e)" transform="translate(-5.436 -5.436)scale(1.16988)"/></svg>