<svg xmlns="http://www.w3.org/2000/svg" width="64" height="64"><rect width="57" height="57" x="4" y="4" rx="2.85" ry="2.85" style="opacity:.2"/><rect width="57" height="57" x="4" y="3" rx="2.85" ry="2.85" style="fill:#4cc74c"/><path d="m18.385 7.93-4.342 14.113 13.03-2.172-4.573-3.047c7.544-4.716 17.568-3.588 23.861 3.174l2.86-2.662c-4.287-4.606-10.048-7.041-15.89-7.254a22.8 22.8 0 0 0-13.282 3.67ZM10 19.47v26.06l8.686-13.03Zm45 0L46.314 32.5 55 45.53ZM32.5 20a6.5 6.5 0 0 0-6.5 6.5 7 7 0 0 0 .023.518A6.5 6.5 0 0 0 20 33.5a6.5 6.5 0 0 0 6.5 6.5 6.5 6.5 0 0 0 4.5-1.812V44h3v-5.82A6.5 6.5 0 0 0 38.5 40a6.5 6.5 0 0 0 6.5-6.5 6.5 6.5 0 0 0-6.027-6.477A7 7 0 0 0 39 26.5a6.5 6.5 0 0 0-6.5-6.5m18.457 22.885-13.03 2.172 4.57 3.045c-7.56 4.722-17.6 3.58-23.886-3.204l-2.867 2.657c7.658 8.264 20.062 9.572 29.207 3.62L46.615 57Z" style="opacity:.2"/><path d="M10 18.471V44.53l8.686-13.03Zm45 0V44.53L46.314 31.5Z" style="fill:#2bffbf"/><path d="M18.284 16.592a20.889 20.89 0 0 1 29.507 1.075m-1.128 28.715a20.889 20.89 0 0 1-29.485-1.156" style="fill:none;stroke:#bfecbf;stroke-width:3.90857148"/><path d="m14.043 21.043 4.343-14.114 2.171 7.6 6.514 4.343zm36.914 20.843L46.614 56l-2.171-7.6-6.514-4.343Z" style="fill:#bfecbf"/><circle cx="32.5" cy="25.5" r="6.5" style="fill:#fff"/><circle cx="38.5" cy="32.5" r="6.5" style="fill:#fff"/><circle cx="26.5" cy="32.5" r="6.5" style="fill:#fff"/><path d="M31 29h3v14h-3z" style="fill:#fff"/><path d="M6.85 3A2.843 2.843 0 0 0 4 5.85v1C4 5.27 5.27 4 6.85 4h51.3C59.73 4 61 5.27 61 6.85v-1C61 4.27 59.73 3 58.15 3z" style="fill:#fff;opacity:.2"/></svg>