<svg xmlns="http://www.w3.org/2000/svg" width="64" height="64"><path d="M21.13 61h37.74c.626 0 1.13-.58 1.13-1.299V46.3c0-.72-.504-1.299-1.13-1.299H21.13c-.626 0-1.13.58-1.13 1.299v13.4c0 .72.504 1.299 1.13 1.299M20 22.13v37.74c0 .626-.58 1.13-1.299 1.13H5.3c-.721 0-1.3-.504-1.3-1.13V22.13c0-.626.58-1.13 1.299-1.13H18.7c.72 0 1.299.504 1.299 1.13" style="opacity:.2"/><path d="M20 21.13v37.74c0 .626-.58 1.13-1.299 1.13H5.3c-.721 0-1.3-.504-1.3-1.13V21.13c0-.626.58-1.13 1.299-1.13H18.7c.72 0 1.299.504 1.299 1.13" style="fill:#3f3f3f"/><path d="M5.13 21h37.74c.626 0 1.13-.58 1.13-1.299V6.3c0-.721-.504-1.3-1.13-1.3H5.13C4.504 5 4 5.58 4 6.299V19.7c0 .721.504 1.3 1.13 1.3" style="opacity:.2"/><path d="M5.13 20h37.74c.626 0 1.13-.58 1.13-1.299V5.3c0-.721-.504-1.3-1.13-1.3H5.13C4.504 4 4 4.58 4 5.299V18.7c0 .721.504 1.3 1.13 1.3" style="fill:#0169c9"/><path d="M21.13 60h37.74c.626 0 1.13-.58 1.13-1.299V45.3c0-.72-.504-1.299-1.13-1.299H21.13c-.626 0-1.13.58-1.13 1.299v13.4c0 .72.504 1.299 1.13 1.299" style="fill:#fdca01"/><path d="M21.129 44c-.626 0-1.129.58-1.129 1.299v1c0-.72.503-1.299 1.129-1.299h24.17c-.669 0-1.21-.437-1.285-1z" style="opacity:.2;fill:#fff"/><path d="M60 6.13v37.74c0 .626-.58 1.13-1.299 1.13H45.3c-.72 0-1.299-.504-1.299-1.13V6.13c0-.626.58-1.13 1.299-1.13h13.4c.721 0 1.3.504 1.3 1.13" style="opacity:.1"/><path d="M60 5.13v37.74c0 .626-.58 1.13-1.299 1.13H45.3c-.72 0-1.299-.504-1.299-1.13V5.13c0-.626.58-1.13 1.299-1.13h13.4c.721 0 1.3.504 1.3 1.13" style="fill:#e51ae5"/><path d="M5.129 4C4.503 4 4 4.577 4 5.297v1C4 5.577 4.503 5 5.129 5H42.87c.627 0 1.13.577 1.13 1.297v-1C44 4.577 43.497 4 42.871 4zm40.168 0C44.577 4 44 4.503 44 5.129v1C44 5.503 44.577 5 45.297 5h13.406C59.423 5 60 5.503 60 6.129v-1C60 4.503 59.423 4 58.703 4z" style="opacity:.2;fill:#fff"/></svg>