<svg xmlns="http://www.w3.org/2000/svg" width="64" height="64"><rect width="56" height="44" x="-61" y="-54" rx="2.8" ry="2.75" style="opacity:.2" transform="rotate(90)scale(-1 1)"/><rect width="56" height="44" x="-60" y="-54" rx="2.8" ry="2.75" style="fill:#4f4f4f" transform="rotate(90)scale(-1 1)"/><rect width="34" height="28" x="-44" y="-49" ry="4.2" style="opacity:.2" transform="rotate(90)scale(-1 1)"/><rect width="34" height="28" x="-56" y="-43" ry="4.2" style="opacity:.2" transform="rotate(90)scale(-1 1)"/><rect width="34" height="28" x="-43" y="-49" ry="4.2" style="fill:#dbdbdb" transform="rotate(90)scale(-1 1)"/><rect width="34" height="28" x="-55" y="-43" ry="4.2" style="fill:#fff" transform="rotate(90)scale(-1 1)"/><path d="M18 26h22v3H18zm0 6h8v3h-8zm0 6h22v3H18zm0 6h14v3H18z" style="fill:#8e8e8e"/><path d="M24 12h17v3H24zm0 6h22v3H24z" style="fill:#a1a1a1"/><rect width="56" height="6" x="4" y="21" rx="1.4" ry="1.5" style="opacity:.2"/><rect width="56" height="6" x="4" y="20" rx="1.4" ry="1.5" style="fill:#3584f3"/><path d="M-4-12.75C-4-11.226-5.25-10-6.8-10h-1c1.55 0 2.8-1.226 2.8-2.75v-38.5C-5-52.773-6.25-54-7.8-54h1c1.55 0 2.8 1.227 2.8 2.75z" style="fill:#fff;opacity:.1" transform="rotate(90)scale(-1 1)"/></svg>