<svg xmlns="http://www.w3.org/2000/svg" width="64" height="64"><path d="M34 5a22 22 0 0 0-22 22 22 22 0 0 0 8.594 17.406l30.824-30.824A22 22 0 0 0 34 5" style="opacity:.2"/><path d="M34 4a22 22 0 0 0-22 22 22 22 0 0 0 8.594 17.406l30.824-30.824A22 22 0 0 0 34 4" style="fill:#4f4f4f"/><path d="M34 4a22 22 0 0 0-22 22l.021.398A22 22 0 0 1 34 5a22 22 0 0 1 16.957 8.043l.461-.461A22 22 0 0 0 34 4" style="opacity:.1;fill:#fff"/><path d="M43.406 21.594 12.582 52.418A22 22 0 0 0 30 61a22 22 0 0 0 22-22 22 22 0 0 0-8.594-17.406" style="opacity:.2"/><path d="M43.406 20.594 12.582 51.418A22 22 0 0 0 30 60a22 22 0 0 0 22-22 22 22 0 0 0-8.594-17.406" style="fill:#ed6b21"/><path d="M43.406 20.594 12.582 51.418a22 22 0 0 0 .461.539l30.363-30.363a22 22 0 0 1 8.573 17.002A22 22 0 0 0 52 38a22 22 0 0 0-8.594-17.406" style="fill:#fff;opacity:.2"/></svg>