<svg xmlns="http://www.w3.org/2000/svg" width="64" height="64"><rect width="56" height="56" x="4" y="5" rx="28" ry="28" style="opacity:.2"/><rect width="56" height="56" x="4" y="4" rx="28" ry="28" style="fill:#37a0f2"/><path d="m76.784 5.298 94.375 163.83 39.378 297 54.998-202.85 117.26 93.553.058 93.773 46.94-93.744 93.968-46.828-93.997-.058-94.37-117.56 203.92-54.29L241.664 98.9 76.774 5.31z" style="opacity:.2" transform="matrix(-.04253 -.04258 -.04263 .04268 51.491 36.07)"/><path d="m76.784 5.298 94.375 163.83 39.378 297 54.998-202.85 117.26 93.553.058 93.773 46.94-93.744 93.968-46.828-93.997-.058-94.37-117.56 203.92-54.29L241.664 98.9 76.774 5.31z" style="fill:#fff" transform="matrix(-.04253 -.04258 -.04263 .04268 51.491 35.07)"/><path d="M32 4C16.488 4 4 16.488 4 32c0 .114.011.224.018.336C4.369 17.134 16.71 5 32 5s27.63 12.134 27.982 27.336c.007-.112.018-.222.018-.336C60 16.488 47.512 4 32 4" style="opacity:.2;fill:#fff"/></svg>