<svg xmlns="http://www.w3.org/2000/svg" width="64" height="64"><circle cx="32" cy="32" r="26" style="fill:#f4f4f4"/><path d="M32 17v12h12L32 49V37H20Z" style="opacity:.2"/><path d="M32 16v12h12L32 48V36H20Z" style="fill:#4bae4f"/><path d="M32 16 20 36h.6L32 17zm0 12v1h11.4l.6-1z" style="fill:#fff;opacity:.2"/><path d="M32 5A28 28 0 0 0 4 33a28 28 0 0 0 28 28 28 28 0 0 0 28-28A28 28 0 0 0 32 5m0 4a24 24 0 0 1 24 24 24 24 0 0 1-24 24A24 24 0 0 1 8 33 24 24 0 0 1 32 9" style="opacity:.2"/><path d="M32 4A28 28 0 0 0 4 32a28 28 0 0 0 28 28 28 28 0 0 0 28-28A28 28 0 0 0 32 4m0 4a24 24 0 0 1 24 24 24 24 0 0 1-24 24A24 24 0 0 1 8 32 24 24 0 0 1 32 8" style="fill:#4bae4f"/><path d="M32 4A28 28 0 0 0 4 32a28 28 0 0 0 .035.5A28 28 0 0 1 32 5a28 28 0 0 1 27.982 27.252L60 32A28 28 0 0 0 32 4m23.98 28.256A24 24 0 0 1 32 56 24 24 0 0 1 8.04 32.5 24 24 0 0 0 8 33a24 24 0 0 0 24 24 24 24 0 0 0 24-24 24 24 0 0 0-.02-.744" style="opacity:.2;fill:#fff"/></svg>