<svg xmlns="http://www.w3.org/2000/svg" width="64" height="64"><rect width="58" height="46" x="3" y="10" rx="4" ry="4" style="opacity:.2"/><rect width="58" height="46" x="3" y="9" rx="4" ry="4" style="fill:#2769bc"/><path d="M41 27c0 1.592-15.622 10.747-16.981 9.951s-1.359-19.107 0-19.902S41 25.409 41 27" style="opacity:.2"/><path d="M41 26c0 1.592-15.622 10.748-16.981 9.951s-1.359-19.106 0-19.902S41 24.41 41 26.001z" style="fill:#fff"/><rect width="34" height="3" x="15" y="45" rx="1.5" ry="1.5" style="opacity:.5;fill:#fff"/><rect width="9" height="9" x="19" y="43" rx="4.5" ry="4.5" style="opacity:.2"/><rect width="9" height="9" x="19" y="42" rx="4.5" ry="4.5" style="fill:#fff"/><path d="M7 9c-2.216 0-4 1.784-4 4v1c0-2.216 1.784-4 4-4h50c2.216 0 4 1.784 4 4v-1c0-2.216-1.784-4-4-4z" style="fill:#fff;opacity:.1"/></svg>