<svg xmlns="http://www.w3.org/2000/svg" width="64" height="64"><rect width="56" height="56" x="4" y="5" rx="2.8" ry="2.8" style="opacity:.2"/><rect width="56" height="56" x="4" y="4" rx="2.8" ry="2.8" style="fill:#e4e4e4"/><path d="M31.832 19.117 12 33l15.117 10.582 1.192-6.168L22 33l8.273-5.793Zm5.422 3.563-1.188 6.168L42 33l-7.785 5.45-1.559 8.09L52 33Z" style="opacity:.1"/><path d="M31.832 18.117 12 32l15.117 10.582 1.192-6.168L22 32l8.273-5.793Z" style="fill:#483c8f"/><path d="m37.254 21.68-1.188 6.168L42 32l-7.785 5.45-1.559 8.09L52 32Z" style="fill:#4b8adf"/><path d="M6.8 4C5.25 4 4 5.25 4 6.8v1C4 6.25 5.25 5 6.8 5h50.4C58.75 5 60 6.25 60 7.8v-1C60 5.25 58.75 4 57.2 4z" style="opacity:.2;fill:#fff"/></svg>