<svg xmlns="http://www.w3.org/2000/svg" width="64" height="64"><g transform="translate(1)"><g style="fill:#8e8e8e"><path d="M58 40v2H6v-2zm0 6v2H6v-2zm0 6v2H6v-2zm0-30v2H6v-2zm0 6v2H6v-2zm0 6v2H6v-2zm0-18v2H6v-2zm0-6v2H6v-2z"/><path d="M24 58h-2V6h2zm-6 0h-2V6h2zm-6 0h-2V6h2zm30 0h-2V6h2zm-6 0h-2V6h2zm-6 0h-2V6h2zm18 0h-2V6h2zm6 0h-2V6h2z"/></g><rect width="48" height="48" x="-57" y="-56" rx="2.5" ry="2.5" style="opacity:.2" transform="rotate(90)scale(-1 1)"/><rect width="48" height="48" x="-56" y="-56" rx="2.5" ry="2.5" style="fill:#b7b7b7" transform="rotate(90)scale(-1 1)"/><path d="M10.5 8A2.495 2.495 0 0 0 8 10.5v1C8 10.115 9.115 9 10.5 9h43c1.385 0 2.5 1.115 2.5 2.5v-1C56 9.115 54.885 8 53.5 8z" style="fill:#fff;opacity:.2"/></g><path d="M23 39v3s0 4 4 4h12c4 0 4-4 4-4v-8s0-4-4-4h-9c-2 0-2-2-2-2v-1s0-2 2-2h6c2 0 2 2 2 2h5v-3s0-4-4-4H27c-4 0-4 4-4 4v9s0 3 4 3h9c2 0 2 2 2 2v1s0 2-2 2h-6c-2 0-2-2-2-2z" style="opacity:.1"/><path d="M23 38v3s0 4 4 4h12c4 0 4-4 4-4v-8s0-4-4-4h-9c-2 0-2-2-2-2v-1s0-2 2-2h6c2 0 2 2 2 2h5v-3s0-4-4-4H27c-4 0-4 4-4 4v9s0 3 4 3h9c2 0 2 2 2 2v1s0 2-2 2h-6c-2 0-2-2-2-2z" style="fill:#008282"/></svg>