<svg xmlns="http://www.w3.org/2000/svg" width="64" height="64"><path d="M32 5C16.488 5 4 13.859 4 24.865V38.99c0 5.113 4.056 9.398 9 10.01v2c0 5.538 3.668 10 9 10h20c5.332 0 9-4.462 9-10v-2c4.944-.612 9-4.897 9-10.01V24.865C60 13.86 47.512 5 32 5" style="opacity:.2"/><path d="M51 38v12c0 5.538-3.668 10-9 10H22c-5.332 0-9-4.462-9-10V38c0-14.872 38-14.872 38 0" style="fill:#f0c3a5"/><path d="M26 36c1.108 0 2 .892 2 2v12c0 1.108-.892 2-2 2s-2-.892-2-2V38c0-1.108.892-2 2-2m12 0c1.108 0 2 .892 2 2v12c0 1.108-.892 2-2 2s-2-.892-2-2V38c0-1.108.892-2 2-2" style="fill:#3f3f3f"/><path d="M32 26.846c-9.5 0-19 3.718-19 11.154v8c0-3.392 2.607-6 6-6h26c3.393 0 6 2.608 6 6v-8c0-7.436-9.5-11.154-19-11.154" style="opacity:.1"/><path d="M32 4C16.488 4 4 12.858 4 23.865V37.99c0 5.113 4.056 9.398 9 10.01v-3c0-3.392 2.607-6 6-6h26c3.393 0 6 2.608 6 6v3c4.944-.612 9-4.898 9-10.01V23.863C60 12.858 47.512 4 32 4" style="fill:#ff3137"/><path d="M27.992 5.208c-4.195.423-8.087 1.501-11.46 3.085.938 2.778 3.026 4.709 5.468 4.709 3.273 0 5.911-3.46 5.992-7.794m8.016 0c.08 4.335 2.72 7.794 5.992 7.794 2.442 0 4.53-1.93 5.469-4.71-3.374-1.583-7.266-2.66-11.461-3.084m18.601 7.919A7.975 7.975 0 0 0 48 20.999v3.913a7.98 7.98 0 0 0 8 7.997 8 8 0 0 0 4-1.07v-6.967c0-4.402-2-8.459-5.39-11.745m-45.296.078C5.97 16.477 4 20.505 4 24.872v7.053a8 8 0 0 0 4 1.07c4.432 0 8-3.567 8-7.998v-3.912a7.97 7.97 0 0 0-6.687-7.88zM30 18c-5.54 0-10 3.459-10 8.997s4.46 8.996 10 8.996h4c5.54 0 10-3.458 10-8.996S39.54 18 34 18z" style="opacity:.2"/><path d="M27.992 4.208c-4.195.423-8.087 1.5-11.46 3.084.938 2.779 3.026 4.71 5.468 4.71 3.273 0 5.911-3.46 5.992-7.794m8.016 0C36.088 8.542 38.728 12 42 12c2.442 0 4.53-1.93 5.469-4.709-3.374-1.583-7.266-2.661-11.461-3.084m18.601 7.918A7.975 7.975 0 0 0 48 20v3.912a7.98 7.98 0 0 0 8 7.997 8 8 0 0 0 4-1.07v-6.966c0-4.403-2-8.46-5.39-11.746m-45.296.078C5.97 15.477 4 19.504 4 23.872v7.052a8 8 0 0 0 4 1.07c4.432 0 8-3.567 8-7.997v-3.913a7.97 7.97 0 0 0-6.687-7.88zM30 17c-5.54 0-10 3.458-10 8.996s4.46 8.997 10 8.997h4c5.54 0 10-3.459 10-8.997S39.54 17 34 17z" style="fill:#fff"/><path d="M32 4C16.488 4 4 12.859 4 23.865v1C4 13.86 16.488 5 32 5s28 8.859 28 19.865v-1C60 12.86 47.512 4 32 4" style="fill:#fff;opacity:.2"/></svg>