<svg xmlns="http://www.w3.org/2000/svg" width="64" height="64"><rect width="56" height="56" x="4" y="5" rx="2.8" ry="2.8" style="opacity:.2"/><rect width="56" height="56" x="4" y="4" rx="2.8" ry="2.8" style="fill:#704b91"/><path d="M14 32h6v6h-6z" style="fill:#4c8a4c"/><path d="M20 32h6v6h-6z" style="fill:#e45e5e"/><path d="M26 32h6v6h-6z" style="fill:#7079ff"/><path d="M32 32h6v6h-6z" style="fill:#cdcdcd"/><path d="M38 32h6v6h-6z" style="fill:#ffbd1a"/><path d="M44 32h6v6h-6z" style="fill:#f3f3f3"/><path d="M14 26h6v6h-6z" style="fill:#7079ff"/><path d="M20 26h6v6h-6z" style="fill:#f3f3f3"/><path d="M26 26h6v6h-6z" style="fill:#4c8a4c"/><path d="M32 26h6v6h-6z" style="fill:#f3f3f3"/><path d="M38 26h6v6h-6z" style="fill:#cdcdcd"/><path d="M44 26h6v6h-6z" style="fill:#7079ff"/><path d="M14 20h6v6h-6z" style="fill:#f3f3f3"/><path d="M20 20h6v6h-6z" style="fill:#ffee35"/><path d="M26 20h6v6h-6z" style="fill:#ffbd1a"/><path d="M32 20h6v6h-6z" style="fill:#db5fe8"/><path d="M38 20h6v6h-6z" style="fill:#ffee35"/><path d="M20 38h6v6h-6z" style="fill:#ffbd1a"/><path d="M26 38h6v6h-6z" style="fill:#db5fe8"/><path d="M32 38h6v6h-6z" style="fill:#e45e5e"/><path d="M38 38h6v6h-6z" style="fill:#ffee35"/><path d="M44 38h6v6h-6z" style="fill:#e45e5e"/><path d="M26 44h6v6h-6z" style="fill:#7079ff"/><path d="M32 44h6v6h-6z" style="fill:#f3f3f3"/><path d="M38 44h6v6h-6z" style="fill:#4c8a4c"/><path d="M44 44h6v6h-6z" style="fill:#db5fe8"/><path d="M14 14h6v6h-6z" style="fill:#ffbd1a"/><path d="M20 14h6v6h-6z" style="fill:#e45e5e"/><path d="M26 14h6v6h-6z" style="fill:#ffee35"/><path d="M32 14h6v6h-6z" style="fill:#7079ff"/><path d="M14 20h24v1H14zm0 6h30v1H14zm0 6h36v1H14zm0 6h36v1H14zm6 6h30v1H20zm6 6h24v1H26z" style="opacity:.2"/><path d="M6.8 4C5.25 4 4 5.25 4 6.8v1C4 6.25 5.25 5 6.8 5h50.4C58.75 5 60 6.25 60 7.8v-1C60 5.25 58.75 4 57.2 4z" style="opacity:.1;fill:#fff"/></svg>