<svg xmlns="http://www.w3.org/2000/svg" width="64" height="64"><path d="M32 5a10 10 0 0 0-10 10 10 10 0 0 0 10 10 10 10 0 0 0 10-10A10 10 0 0 0 32 5M14 23A10 10 0 0 0 4 33a10 10 0 0 0 10 10 10 10 0 0 0 10-10 10 10 0 0 0-10-10m36 0a10 10 0 0 0-10 10 10 10 0 0 0 10 10 10 10 0 0 0 10-10 10 10 0 0 0-10-10M32 41a10 10 0 0 0-10 10 10 10 0 0 0 10 10 10 10 0 0 0 10-10 10 10 0 0 0-10-10" style="opacity:.2"/><path d="M42 14a10 10 0 0 1-10 10 10 10 0 0 1-10-10A10 10 0 0 1 32 4a10 10 0 0 1 10 10" style="fill:#8685b9"/><path d="M42 50a10 10 0 0 1-10 10 10 10 0 0 1-10-10 10 10 0 0 1 10-10 10 10 0 0 1 10 10m8-8a10 10 0 0 1-10-10 10 10 0 0 1 10-10 10 10 0 0 1 10 10 10 10 0 0 1-10 10" style="fill:#6560e0"/><path d="M14 42A10 10 0 0 1 4 32a10 10 0 0 1 10-10 10 10 0 0 1 10 10 10 10 0 0 1-10 10" style="fill:#8685b9"/><path d="M50 22a10 10 0 0 0-10 10 10 10 0 0 0 .021.414A10 10 0 0 1 50 23a10 10 0 0 1 9.979 9.586A10 10 0 0 0 60 32a10 10 0 0 0-10-10M32 40a10 10 0 0 0-10 10 10 10 0 0 0 .021.414A10 10 0 0 1 32 41a10 10 0 0 1 9.979 9.586A10 10 0 0 0 42 50a10 10 0 0 0-10-10" style="fill:#fff;opacity:.1"/><path d="M32 4a10 10 0 0 0-10 10 10 10 0 0 0 .021.414A10 10 0 0 1 32 5a10 10 0 0 1 9.979 9.586A10 10 0 0 0 42 14 10 10 0 0 0 32 4M14 22A10 10 0 0 0 4 32a10 10 0 0 0 .021.414A10 10 0 0 1 14 23a10 10 0 0 1 9.979 9.586A10 10 0 0 0 24 32a10 10 0 0 0-10-10" style="fill:#fff;opacity:.2"/></svg>