<svg xmlns="http://www.w3.org/2000/svg" width="64" height="64"><circle cx="32" cy="33" r="28" style="opacity:.2"/><circle cx="32" cy="32" r="28" style="fill:#c061cb"/><path d="M26.842 19.002a29.2 29.2 0 0 0-7.328 2.318.1.1 0 0 0-.045.041c-4.667 7.115-5.948 14.056-5.32 20.91a.13.13 0 0 0 .046.086c3.08 2.308 6.061 3.709 8.989 4.637a.12.12 0 0 0 .127-.04c.692-.966 1.31-1.763 1.84-2.833a.117.117 0 0 0-.063-.162c-.98-.379-1.91-.84-2.807-1.365-.07-.043-.079-.146-.013-.196.188-.144.378-.295.558-.447a.11.11 0 0 1 .117-.015c5.892 2.744 12.27 2.744 18.092 0a.1.1 0 0 1 .115.013c.18.152.37.305.56.45a.12.12 0 0 1-.01.195 18.3 18.3 0 0 1-2.81 1.365.117.117 0 0 0-.06.162c.54 1.069 1.156 1.865 1.836 2.83.028.041.08.058.127.043 2.941-.928 5.925-2.329 9.004-4.637a.12.12 0 0 0 .049-.086c.75-7.924-1.261-14.804-5.326-20.906a.1.1 0 0 0-.045-.045 29.2 29.2 0 0 0-7.327-2.318.11.11 0 0 0-.119.055c-.316.574-.664.643-.91 1.232a26.9 26.9 0 0 0-8.232 0c-.246-.602-.608-.658-.926-1.232a.115.115 0 0 0-.12-.055M25.496 32c1.964 0 3.535 1.585 3.504 3.5 0 1.93-1.555 3.5-3.504 3.5A3.51 3.51 0 0 1 22 35.5c0-1.93 1.547-3.5 3.496-3.5M38.5 32c1.964 0 3.53 1.585 3.5 3.5 0 1.93-1.536 3.5-3.5 3.5-1.918 0-3.5-1.57-3.5-3.5s1.55-3.5 3.5-3.5" style="opacity:.2"/><path d="M26.842 18.002a29.2 29.2 0 0 0-7.328 2.318.1.1 0 0 0-.045.041c-4.667 7.115-5.948 14.056-5.32 20.91a.13.13 0 0 0 .046.086c3.08 2.308 6.061 3.709 8.989 4.637a.12.12 0 0 0 .127-.04c.692-.966 1.31-1.763 1.84-2.833a.117.117 0 0 0-.063-.162c-.98-.379-1.91-.84-2.807-1.365-.07-.043-.079-.146-.013-.196.188-.144.378-.295.558-.447a.11.11 0 0 1 .117-.015c5.892 2.744 12.27 2.744 18.092 0a.1.1 0 0 1 .115.013c.18.152.37.305.56.45a.12.12 0 0 1-.01.195 18.3 18.3 0 0 1-2.81 1.365.117.117 0 0 0-.06.162c.54 1.069 1.156 1.865 1.836 2.83.028.041.08.058.127.043 2.941-.928 5.925-2.329 9.004-4.637a.12.12 0 0 0 .049-.086c.75-7.924-1.261-14.804-5.326-20.906a.1.1 0 0 0-.045-.045 29.2 29.2 0 0 0-7.327-2.318.11.11 0 0 0-.119.055c-.316.574-.664.643-.91 1.232a26.9 26.9 0 0 0-8.232 0c-.246-.602-.608-.658-.926-1.232a.115.115 0 0 0-.12-.055M25.496 31c1.964 0 3.535 1.585 3.504 3.5 0 1.93-1.555 3.5-3.504 3.5A3.51 3.51 0 0 1 22 34.5c0-1.93 1.547-3.5 3.496-3.5M38.5 31c1.964 0 3.53 1.585 3.5 3.5 0 1.93-1.536 3.5-3.5 3.5-1.918 0-3.5-1.57-3.5-3.5s1.55-3.5 3.5-3.5" style="fill:#fff"/><path d="M32 4A28 28 0 0 0 4 32a28 28 0 0 0 .006.51A28 28 0 0 1 32 5a28 28 0 0 1 27.994 27.49A28 28 0 0 0 60 32 28 28 0 0 0 32 4" style="fill:#fff;opacity:.1"/></svg>