<svg xmlns="http://www.w3.org/2000/svg" xmlns:xlink="http://www.w3.org/1999/xlink" xml:space="preserve" style="enable-background:new 0 0 64 64" viewBox="0 0 64 64"><defs><radialGradient id="a" cx="-159.431" cy="15.463" r="64.707" fx="-159.431" fy="15.463" gradientTransform="matrix(-.89413 0 0 .96305 -80.754 49.33)" gradientUnits="userSpaceOnUse"><stop offset="0" style="stop-color:#006fff;stop-opacity:1"/><stop offset="1" style="stop-color:#15baff;stop-opacity:1"/></radialGradient><radialGradient xlink:href="#a" id="b" cx="21.394" cy="28.864" r="22.292" fx="21.394" fy="28.864" gradientTransform="matrix(0 -2.97313 2.71098 0 -24.427 118.979)" gradientUnits="userSpaceOnUse"/><filter id="c" width="1.301" height="1.275" x="-.151" y="-.137" style="color-interpolation-filters:sRGB"><feGaussianBlur stdDeviation="2.226"/></filter></defs><path d="m43.607 40.703-13.253 7.652a8.7 8.7 0 0 1-8.695 0L7.66 40.273a7.89 7.89 60 0 1-3.946-6.835V17.06a8.32 8.32 120 0 1 4.161-7.207L21.79 1.82a8.43 8.43 0 0 1 8.434 0l14.162 8.177a7.83 7.83 60 0 1 3.913 6.776V32.58a9.38 9.38 120 0 1-4.69 8.124" style="fill:url(#b);fill-opacity:1;stroke:none;stroke-width:0;stroke-dasharray:none" transform="translate(1.687 2.738)scale(1.1656)"/><path d="M26.006.69a8.43 8.43 0 0 0-4.217 1.13L7.876 9.853a8.32 8.32 0 0 0-4.162 7.207v16.378a7.89 7.89 0 0 0 3.945 6.834l14 8.083a8.7 8.7 0 0 0 8.695 0l13.252-7.652a9.38 9.38 0 0 0 4.692-8.124V16.773a7.83 7.83 0 0 0-3.914-6.778L30.224 1.82A8.43 8.43 0 0 0 26.006.69m-1.944 10.98h4.018c1.686 0 3.112 1.426 3.112 3.112v8.816c0 .518.52 1.038 1.038 1.038h4.668c.778 0 1.167.907.648 1.556L26.654 38.248c-.26.39-.907.39-1.296 0L14.466 26.191c-.518-.649-.13-1.556.648-1.556h4.668c.519 0 1.038-.52 1.038-1.038V14.78c0-1.686 1.427-3.112 3.242-3.112" style="opacity:.3778188;fill:#000;fill-opacity:1;stroke:none;stroke-width:0;stroke-dasharray:none" transform="translate(10.912 11.643)scale(.81088)"/><path d="M32 12.203a6.84 6.84 0 0 0-3.42.916L17.3 19.633a6.75 6.75 0 0 0-3.375 5.844v13.28a6.4 6.4 0 0 0 3.199 5.542l11.352 6.555a7.05 7.05 0 0 0 7.05 0l10.746-6.206a7.61 7.61 0 0 0 3.805-6.587V25.244a6.35 6.35 0 0 0-3.174-5.496L35.42 13.119a6.84 6.84 0 0 0-3.42-.916Zm-1.576 8.902h3.258c1.366 0 2.523 1.157 2.523 2.524v7.148c0 .42.421.842.842.842h3.785c.63 0 .946.736.525 1.262l-8.832 9.777c-.21.316-.735.316-1.05 0l-8.832-9.777c-.421-.526-.106-1.262.525-1.262h3.785c.42 0 .842-.421.842-.842V23.63c0-1.367 1.157-2.524 2.629-2.524z" style="opacity:1;fill:none;fill-opacity:1;stroke:#000;stroke-width:.2;stroke-dasharray:none;filter:url(#c);stroke-opacity:1"/></svg>