<svg xmlns="http://www.w3.org/2000/svg" width="64" height="64"><path d="M15.5 24A13.5 13.5 0 0 0 2 37.5 13.5 13.5 0 0 0 15.5 51a13.5 13.5 0 0 0 9.578-4h12.838a13.5 13.5 0 0 0 9.584 4A13.5 13.5 0 0 0 61 37.5 13.5 13.5 0 0 0 47.5 24Z" style="opacity:.2"/><path d="M15.5 23h32v23h-32z" style="fill:#ffa800"/><circle cx="15.5" cy="36.5" r="13.5" style="fill:#ffa800"/><circle cx="47.5" cy="36.5" r="13.5" style="fill:#ffa800"/><path d="M14.25 29c-.693 0-1.25.631-1.25 1.416V35H8.416C7.631 35 7 35.557 7 36.25v2.5c0 .693.631 1.25 1.416 1.25H13v4.584c0 .785.557 1.416 1.25 1.416h2.5c.692 0 1.25-.631 1.25-1.416V40h4.584c.785 0 1.416-.557 1.416-1.25v-2.5c0-.693-.631-1.25-1.416-1.25H18v-4.584c0-.785-.558-1.416-1.25-1.416Zm33.25 0a2.5 2.5 0 0 0-2.5 2.5 2.5 2.5 0 0 0 2.5 2.5 2.5 2.5 0 0 0 2.5-2.5 2.5 2.5 0 0 0-2.5-2.5m-6 6a2.5 2.5 0 0 0-2.5 2.5 2.5 2.5 0 0 0 2.5 2.5 2.5 2.5 0 0 0 2.5-2.5 2.5 2.5 0 0 0-2.5-2.5m12 0a2.5 2.5 0 0 0-2.5 2.5 2.5 2.5 0 0 0 2.5 2.5 2.5 2.5 0 0 0 2.5-2.5 2.5 2.5 0 0 0-2.5-2.5m-6 6a2.5 2.5 0 0 0-2.5 2.5 2.5 2.5 0 0 0 2.5 2.5 2.5 2.5 0 0 0 2.5-2.5 2.5 2.5 0 0 0-2.5-2.5" style="opacity:.2"/><rect width="5" height="17" x="13" y="28" rx="1.25" ry="1.417" style="fill:#fff"/><rect width="5" height="17" x="34" y="-24" rx="1.25" ry="1.417" style="fill:#fff" transform="rotate(90)"/><circle cx="47.5" cy="30.5" r="2.5" style="fill:#fff"/><circle cx="47.5" cy="42.5" r="2.5" style="fill:#fff"/><circle cx="36.5" cy="-53.5" r="2.5" style="fill:#fff" transform="rotate(90)"/><circle cx="36.5" cy="-41.5" r="2.5" style="fill:#fff" transform="rotate(90)"/><path d="M15.5 23A13.5 13.5 0 0 0 2 36.5a14 14 0 0 0 .021.406A13.5 13.5 0 0 1 15.5 24h32a13.5 13.5 0 0 1 13.479 13.094A14 14 0 0 0 61 36.5 13.5 13.5 0 0 0 47.5 23z" style="opacity:.2;fill:#fff"/></svg>