<svg xmlns="http://www.w3.org/2000/svg" xml:space="preserve" viewBox="0 0 64 64"><path d="M23.9 5h16.2C51.1 5 60 13.9 60 24.9v16.2c0 11-8.9 19.9-19.9 19.9H23.9C12.9 61 4 52.1 4 41.1V24.9C4 13.9 12.9 5 23.9 5" style="opacity:.2"/><radialGradient id="a" cx="20.534" cy="23.9" r="45.291" gradientUnits="userSpaceOnUse"><stop offset="0" style="stop-color:#ffb100"/><stop offset=".994" style="stop-color:#ff8a15"/></radialGradient><path d="M24.5 4h15C50.8 4 60 13.2 60 24.5v15C60 50.8 50.8 60 39.5 60h-15C13.2 60 4 50.8 4 39.5v-15C4 13.2 13.2 4 24.5 4" style="fill:url(#a)"/><path d="m22.7 15.3-1.3.8c-1.1.6-1.4 2-.8 3l2.8 4.9c.5.8.4 1.8-.2 2.5q-.75 1.05-1.2 2.1c-.4.8-1.2 1.4-2.1 1.4h-5.6C13 30 12 31 12 32.2v1.5c0 1.2 1 2.2 2.2 2.2h5.6c.9 0 1.7.6 2.1 1.4q.45 1.2 1.2 2.1c.5.7.6 1.7.2 2.5-.8 1.3-2 3.4-2.8 4.9-.6 1.1-.2 2.4.8 3l1.3.8c1.1.6 2.4.3 3-.8l2.8-4.8c.5-.8 1.4-1.3 2.3-1.2.4 0 .8.1 1.2.1s.8 0 1.2-.1c1-.1 1.9.3 2.4 1.2l2.8 4.8c.6 1.1 2 1.4 3 .8l1.3-.8c1.1-.6 1.4-2 .8-3L40.7 42c-.5-.8-.4-1.8.2-2.5q.75-1.05 1.2-2.1c.4-.8 1.2-1.4 2.1-1.4h5.6c1.2 0 2.2-1 2.2-2.2v-1.5c0-1.2-1-2.2-2.2-2.2h-5.6c-.9 0-1.7-.6-2.1-1.4q-.45-1.2-1.2-2.1c-.5-.7-.6-1.7-.2-2.5.8-1.3 2-3.4 2.8-4.9.6-1.1.2-2.4-.8-3l-1.3-.8c-1.1-.6-2.4-.3-3 .8L35.6 21c-.5.8-1.4 1.3-2.3 1.2-.5-.2-.9-.2-1.3-.2s-.8 0-1.2.1c-1 .1-1.9-.3-2.4-1.2l-2.8-4.8c-.5-1.1-1.9-1.4-2.9-.8M32 27.6c3 0 5.4 2.4 5.4 5.4S35 38.4 32 38.4 26.6 36 26.6 33s2.4-5.4 5.4-5.4" style="opacity:6.000000e-02"/><path d="m22.7 14.3-1.3.8c-1.1.6-1.4 2-.8 3l2.8 4.9c.5.8.4 1.8-.2 2.5q-.75 1.05-1.2 2.1c-.4.8-1.2 1.4-2.1 1.4h-5.6C13 29 12 30 12 31.2v1.5c0 1.2 1 2.2 2.2 2.2h5.6c.9 0 1.7.6 2.1 1.4q.45 1.2 1.2 2.1c.5.7.6 1.7.2 2.5-.8 1.3-2 3.4-2.8 4.9-.6 1.1-.2 2.4.8 3l1.3.8c1.1.6 2.4.3 3-.8l2.8-4.8c.5-.8 1.4-1.3 2.3-1.2.4 0 .8.1 1.2.1s.8 0 1.2-.1c1-.1 1.9.3 2.4 1.2l2.8 4.8c.6 1.1 2 1.4 3 .8l1.3-.8c1.1-.6 1.4-2 .8-3L40.7 41c-.5-.8-.4-1.8.2-2.5q.75-1.05 1.2-2.1c.4-.8 1.2-1.4 2.1-1.4h5.6c1.2 0 2.2-1 2.2-2.2v-1.5c0-1.2-1-2.2-2.2-2.2h-5.6c-.9 0-1.7-.6-2.1-1.4q-.45-1.2-1.2-2.1c-.5-.7-.6-1.7-.2-2.5.8-1.3 2-3.4 2.8-4.9.6-1.1.2-2.4-.8-3l-1.3-.8c-1.1-.6-2.4-.3-3 .8L35.6 20c-.5.8-1.4 1.3-2.3 1.2-.5-.2-.9-.2-1.3-.2s-.8 0-1.2.1c-1 .1-1.9-.3-2.4-1.2l-2.8-4.8c-.5-1.1-1.9-1.4-2.9-.8M32 26.6c3 0 5.4 2.4 5.4 5.4S35 37.4 32 37.4 26.6 35 26.6 32s2.4-5.4 5.4-5.4" style="fill:#fff"/></svg>