<svg xmlns="http://www.w3.org/2000/svg" xmlns:xlink="http://www.w3.org/1999/xlink" width="64" height="64"><defs><linearGradient id="a"><stop offset="0" style="stop-color:#fff"/><stop offset="1" style="stop-color:#fff;stop-opacity:0"/></linearGradient><linearGradient xlink:href="#a" id="b" x1="10.851" x2="25.973" y1="6.316" y2="28.879" gradientTransform="translate(-1.6 -1.6)scale(1.39999)" gradientUnits="userSpaceOnUse"/><linearGradient xlink:href="#a" id="c" x1="7.503" x2="20.999" y1="11.573" y2="26.616" gradientTransform="translate(-1.6 -1.6)scale(1.39999)" gradientUnits="userSpaceOnUse"/><linearGradient xlink:href="#a" id="d" x1="4.28" x2="13.307" y1="40.068" y2="30.327" gradientTransform="translate(-1.6 -1.6)scale(1.39999)" gradientUnits="userSpaceOnUse"/><linearGradient xlink:href="#a" id="e" x1="5.404" x2="13.103" y1="42.613" y2="33.017" gradientTransform="translate(-1.6 -1.6)scale(1.39999)" gradientUnits="userSpaceOnUse"/></defs><path d="M21.872 5.002q-.292-.009-.63.017c-1.215.092-2.3.954-2.92 2.324-.109.241-1.329 4.86-1.353 4.903 7.43 5.489 9.446 9.762 12.906 17.85l-12.007 7.839-.281.448-.014-.008a.6.6 0 0 1-.076.21c-.068.123-.317.661-.556 1.198l-.434.976-.681.575c-3.205 2.698-6.168 5.69-8.619 8.703-1.136 1.397-2.425 3.17-2.8 3.853-.488.89-.54 1.635-.136 1.936.241.18.725.265 1.24.216l.43-.041-.142.494c-.194.676-.306 1.44-.279 1.887.064 1.07.87 1.262 2.1.5.271-.167.43-.24.435-.194.13 1.249.263 1.734.563 2.035.181.181.605.308.902.27.38-.047 1.294-.576 1.731-1 .192-.186 2.073-2.61 4.181-5.39 2.077-2.738 3.745-4.926 3.817-5.004 14.031-4.549 15.882-11.232 17.536-6.682-.401 2.612 6.25-3.38 7.076-3.935 1.24-.834 4.762-3.527 4.963-3.7l3.035-6.086L55 25c-.9-.974.502-1.197.458-2.274-.043-1.06-.391-2.055-.241-3.146-.025-.028-.051-.056-.068-.085-.303-.51-1.88-2.223-2.839-3.046-2.497-2.146-5.284-3.371-8.222-3.449-3.867.086-6.833 2.09-9.01 4.75-.278.34-.513.623-.525.629-.01.006-.435-.673-.943-1.507-3.21-5.276-6.742-9.202-10.338-11.495-.369-.235-.82-.357-1.4-.375" style="opacity:.2"/><path d="M21.872 4.002q-.292-.009-.63.017c-1.215.091-2.3.954-2.92 2.324-.109.241-1.329 4.86-1.353 4.903 7.43 5.489 9.446 9.762 12.906 17.85l-12.007 7.839-.281.448-.014-.008a.6.6 0 0 1-.076.21c-.068.123-.317.661-.556 1.198l-.434.976-.681.574c-3.205 2.699-6.168 5.692-8.619 8.704-1.136 1.397-2.425 3.17-2.8 3.853-.488.89-.54 1.635-.136 1.936.241.18.725.265 1.24.216l.43-.041-.142.494c-.194.675-.306 1.44-.279 1.887.064 1.07.87 1.262 2.1.5.271-.167.43-.24.435-.194.13 1.249.263 1.734.563 2.035.181.181.605.308.902.27.38-.047 1.294-.576 1.731-1 .192-.186 2.073-2.61 4.181-5.39 2.077-2.738 3.745-4.926 3.817-5.004 14.031-4.55 15.882-11.232 17.536-6.682-.401 2.612 6.25-3.38 7.076-3.935 1.24-.834 4.762-3.527 4.963-3.7l3.035-6.086 4.29-3.278c-.899-.974-.647-2.115-.691-3.192-.043-1.06-.391-2.055-.241-3.146-.025-.028-.051-.056-.068-.085-.303-.51-1.88-2.223-2.839-3.046-2.497-2.146-5.284-3.371-8.222-3.449-3.867.086-6.833 2.09-9.01 4.75-.278.34-.513.623-.525.629-.01.006-.435-.673-.943-1.507-3.21-5.276-6.742-9.203-10.338-11.495-.369-.235-.82-.357-1.4-.375" style="fill:#b3691d"/><path d="M21.871 4.002q-.291-.009-.629.018c-1.216.091-2.3.954-2.92 2.324-.109.241-1.329 4.859-1.353 4.902.078.058.147.114.224.172.307-1.128 1.04-3.875 1.13-4.074.62-1.37 1.703-2.233 2.92-2.324q.337-.026.628-.018c.581.018 1.032.14 1.4.375 3.597 2.293 7.129 6.22 10.338 11.496.508.834.933 1.512.944 1.506a22 22 0 0 0 .525-.629c2.177-2.66 5.143-4.664 9.01-4.75 2.938.078 5.725 1.303 8.223 3.45.958.823 2.534 2.534 2.837 3.044q.024.036.057.07a4.6 4.6 0 0 1 .012-.984.6.6 0 0 1-.069-.086c-.303-.51-1.88-2.221-2.837-3.045-2.498-2.146-5.285-3.371-8.223-3.449-3.867.086-6.833 2.09-9.01 4.75a22 22 0 0 1-.525.629c-.011.006-.436-.674-.944-1.508-3.21-5.276-6.74-9.201-10.338-11.494-.368-.235-.819-.357-1.4-.375m33.34 15.637c-.13 1.068.204 2.047.246 3.088.034.839-.104 1.716.256 2.523l.435-.332c-.899-.974-.647-2.114-.691-3.191-.029-.708-.185-1.39-.246-2.088m-25.674 9.677-11.668 7.62-.283.447-.014-.008a.6.6 0 0 1-.076.21 29 29 0 0 0-.555 1.198l-.435.977-.68.574c-3.204 2.698-6.169 5.69-8.619 8.703-1.137 1.397-2.424 3.17-2.799 3.852-.401.73-.503 1.36-.304 1.73a3.6 3.6 0 0 1 .304-.728c.375-.683 1.662-2.457 2.799-3.854 2.45-3.012 5.415-6.005 8.62-8.703l.679-.574.435-.977a29 29 0 0 1 .555-1.197.6.6 0 0 0 .076-.211l.014.008.283-.447 12.006-7.84c-.118-.275-.223-.513-.338-.78M5.941 56l-.257.025c-.11.516-.184 1.026-.164 1.358.005.099.024.182.043.265.046-.365.126-.77.236-1.152z" style="fill:#fff;opacity:.1"/><path d="M12.204 9.174c-.506.729-.927 1.972-1.07 3.154l-.034.296-.613.38c-.87.536-1.211 1.013-1.754 2.174-.497 1.062-.926 2.694-1.02 3.871-.107 1.354-.238 2.452.174 3.356l.178.391-.203.208c-.911.931-1.153 2.255-.72 3.942.266 1.043.53 1.643 1.382 3.149 2.114 3.736 5.003 6.419 8.293 8.525 2.958 1.668 15.563 3.853 10.702 4.498-.977-.038-2.155.003-3.204.308h-.006c-1.525.387-3.072.968-4.353 1.808v.003c-.715.46-1.478 1.056-2.03 1.737-.442.553-.65.941-.696 1.19-.045.248.022.357.214.495.69.324 1.336.66 1.997.993 2.678 1.136 5.187 1.336 7.54 1.348 4.8.023 8.956-1.594 12.595-3.635 5.726-3.211 9.198-7.042 11.013-13.032l.302-.732c-1.162-.24-1.024-1.747-2.091-2.002-.087.068-1.578 1.562-1.799 1.72a168 168 0 0 1-3.199 2.218c-.433.292-2.01 1.22-3.5 2.082a202 202 0 0 1-1.998 1.143c-.269.15-.493.274-.65.358a5 5 0 0 1-.252.123c-.01.004-.02.01-.042.014l-.02.003h-.03l-.062-.014-.085-.07-.008-.017-.006-.014c-3.41-6.407-5.877-12.598-9.048-18.69-3.218-4.815-6.49-9.908-11.014-11.997-2.063-.736-3.563-.66-4.883.716" style="opacity:.2"/><path d="M12.204 8.174c-.506.73-.927 1.972-1.07 3.154l-.034.296-.613.38c-.87.536-1.211 1.014-1.754 2.175-.497 1.06-.926 2.694-1.02 3.87-.107 1.354-.238 2.452.174 3.357l.178.39-.203.209c-.911.93-1.153 2.254-.72 3.941.266 1.043.53 1.643 1.382 3.149 2.114 3.736 5.003 6.42 8.293 8.525 2.958 1.668 15.563 3.853 10.702 4.498-.977-.038-2.155.003-3.204.308h-.006c-1.525.387-3.072.969-4.353 1.808v.003c-.715.46-1.478 1.056-2.03 1.737-.442.553-.65.941-.696 1.19-.045.248.022.357.214.495.69.324 1.336.66 1.997.993 2.678 1.136 5.187 1.337 7.54 1.348 4.8.023 8.956-1.594 12.595-3.635 5.726-3.211 9.198-7.042 11.013-13.031l.302-.733c-1.162-.24-1.024-1.747-2.091-2.002-.087.069-1.578 1.563-1.799 1.72a168 168 0 0 1-3.199 2.218c-.433.292-2.01 1.22-3.5 2.082a202 202 0 0 1-1.998 1.143c-.269.15-.493.274-.65.359a5 5 0 0 1-.252.123c-.01.004-.02.009-.042.013l-.02.003h-.03l-.062-.014-.085-.07-.008-.017-.006-.014c-3.41-6.406-5.877-12.598-9.048-18.69-3.218-4.814-6.49-9.907-11.014-11.997-2.063-.735-3.563-.66-4.883.716" style="fill:#e3c97f"/><path d="M14.984 6.998c-1.059-.036-1.954.315-2.779 1.176-.506.728-.928 1.972-1.07 3.154l-.035.295-.614.38c-.87.537-1.21 1.014-1.754 2.175-.496 1.061-.926 2.694-1.02 3.87-.067.857-.143 1.61-.087 2.276.02-.4.052-.819.088-1.275.093-1.177.523-2.81 1.02-3.871.543-1.161.883-1.638 1.753-2.174l.614-.381.035-.295c.142-1.182.564-2.426 1.07-3.154 1.32-1.377 2.82-1.452 4.883-.717 4.524 2.09 7.794 7.184 11.012 11.998 3.171 6.093 5.638 12.283 9.048 18.69l.006.013.01.018.084.07.06.014h.032l.02-.002q.028-.008.042-.014l.063-.027q.07-.034.187-.096a151.277 151.277 0 0 0 2.65-1.502c1.49-.861 3.067-1.79 3.5-2.082a168 168 0 0 0 3.2-2.219c.22-.157 1.71-1.65 1.797-1.718.946.225.948 1.433 1.744 1.873l.045-.139.303-.732c-1.162-.24-1.025-1.748-2.092-2.002-.087.068-1.577 1.561-1.797 1.718a168 168 0 0 1-3.2 2.219c-.433.292-2.01 1.22-3.5 2.082-.744.43-1.462.842-2 1.143-.268.15-.491.275-.65.36a5 5 0 0 1-.25.122c-.01.004-.021.01-.043.014l-.02.002h-.03l-.061-.014-.084-.07-.01-.018-.006-.013c-3.41-6.407-5.877-12.597-9.048-18.69-3.218-4.814-6.488-9.908-11.012-11.998-.774-.276-1.468-.437-2.104-.459M7.775 22.105c-.657.729-.927 1.685-.808 2.854.086-.772.38-1.429.894-1.955l.203-.207-.177-.39a3 3 0 0 1-.112-.302m19.907 19.98c-.062.01-.093.023-.162.032-.978-.038-2.156.004-3.206.309h-.005c-1.525.387-3.073.969-4.354 1.808v.002c-.715.461-1.477 1.058-2.03 1.739-.441.553-.649.94-.695 1.19-.045.247.02.356.213.493h.002c.113-.192.268-.42.48-.685.553-.68 1.315-1.276 2.03-1.737v-.002c1.281-.839 2.829-1.42 4.354-1.808h.005c1.05-.305 2.228-.347 3.206-.309 1.562-.207 1.308-.574.162-1.031" style="fill:#fff;opacity:.2"/><path d="M45.27 17.594a12.76 12.76 0 0 0-5.616 1.346c-.909.514-1.182.703-2.105 1.457l-.197.16c-1.087 1.052-2.832 2.039-4.55 3.027.584 5.125 7.422 7.822 18.089 10.018 1.305-1.014 2.346-2.038 3.043-3.072.732-1.01 1.41-2.8 2.087-4.305l.143-.316c1.562-.825 2.748-1.576 3.836-2.885.004-.104-.168-.283-.777-.805-.945-.81-2.099-1.7-3.084-2.17-.463-.22-.808-.344-.922-.47-.592.992-1.973 1.324-2.908 1.587-2.437-2.818-4.444-3.48-6.602-3.566a12 12 0 0 0-.437-.006m3.933 7.362c.042-.009.06.003.07.027l-.095-.02z" style="opacity:.2"/><path d="M32.803 22.583c1.718-.988 3.463-1.974 4.55-3.026 2.033-.173 5.651 3.63 8.19 4.83 1.794.849 2.463-1.03 4.232-.25l1.509 2.886 2.649 2.506c-.696 1.035-1.737 2.058-3.042 3.072-10.667-2.196-17.504-4.893-18.088-10.018" style="fill:#e4e4e4"/><path d="M52.308 20.166c-2.436-2.818-4.442-3.48-6.6-3.567a12.74 12.74 0 0 0-6.053 1.34c-.909.514-1.183.704-2.106 1.457l-.197.16.669.168c.773.193 1.148.356 1.848.803.805.515 1.66 1.338 2.505 2.414.645.821.69.87 1.195 1.25 2.06 1.285 3.362.779 4.996.091.606-.344.693-.378.715-.284.014.06.222.768.46 1.576.422 1.451 1.451 2.144 2.445 2.811l1.44.932.308.212c.733-1.01 1.41-2.8 2.088-4.304l.143-.317c-1.49-2.142-1.354-3.68-.946-6.332-.592.993-1.974 1.327-2.91 1.59" style="fill:#393939"/><circle cx="46" cy="22" r="3" style="opacity:.2"/><circle cx="46" cy="21" r="3" style="fill:#ffc335"/><circle cx="46" cy="21" r="1.5" style="fill:#393939"/><path d="M55.217 18.579s-.818 1.557-.818 3.42c0 1.864 1.75 2.918 1.75 2.918l.014-.008c1.562-.825 2.749-1.577 3.836-2.886.005-.103-.167-.282-.776-.804-.945-.809-2.099-1.7-3.084-2.17-.463-.22-.808-.344-.922-.47" style="fill:gray"/><path d="M54.4 22c0 1.863 1.75 2.917 1.75 2.917l.013-.008c1.562-.825 2.748-1.576 3.836-2.885L59.994 22z" style="opacity:.2"/><path d="M14.984 6.997c-1.06-.036-1.956.318-2.781 1.179-.506.728-.927 1.97-1.07 3.152l-.032.296c10.596 6.698 15.382 17.72 21.678 27.766l4.424-.743v-.435l-.04-.036-.01-.016-.005-.014c-3.41-6.407-5.876-12.598-9.048-18.691-3.217-4.814-6.49-9.909-11.014-11.998-.773-.276-1.467-.438-2.102-.46" style="opacity:.5;fill:url(#b)"/><path d="m11.101 11.624-.615.38c-.87.536-1.21 1.013-1.753 2.174-.497 1.06-.927 2.695-1.02 3.871-.107 1.355-.237 2.451.175 3.356l.178.39c10.414 5.18 13.548 12.857 20.097 19.51.263.135.435.264.451.377l4.165-2.292a47 47 0 0 1-1.635-2.688c-4.72-7.916-8.925-16.033-16.018-22.1l-.038-.028-.058-.052a35 35 0 0 0-3.929-2.898" style="opacity:.3;fill:url(#c)"/><path d="m16.406 39.847-.58.487c-3.205 2.698-6.168 5.69-8.619 8.703-1.136 1.397-2.425 3.17-2.8 3.853-.488.89-.54 1.635-.136 1.936.241.18.725.265 1.241.216l.43-.041-.055.186.04-.058c3.469-5.808 8.479-9.985 13.456-14.194z" style="opacity:.5;fill:url(#d)"/><path d="M19.348 40.965c-4.966 4.2-9.96 8.37-13.42 14.164l-.039.055-.002.003-.088.309c-.194.675-.306 1.44-.279 1.886.064 1.071.87 1.262 2.1.5.271-.167.43-.239.435-.193.005.049.011.079.016.125 3.867-5.516 7.855-11.081 13.404-16.037Z" style="opacity:.3;fill:url(#e)"/></svg>