<svg xmlns="http://www.w3.org/2000/svg" width="64" height="64"><rect width="56" height="56" x="4" y="5" rx="16.8" ry="16.8" style="opacity:.2"/><rect width="56" height="56" x="4" y="4" rx="16.8" ry="16.8" style="fill:#3f3f3f"/><path d="M49 26s-1.875 17.448-8 18c-9.13.823-7.855-22.35-17-23-2.586-.184-5 7-5 7" style="fill:none;stroke:#2257e1;stroke-width:10;stroke-linecap:round;stroke-linejoin:round"/><path d="M32.756 30.794C34.39 26.076 36.052 21.28 40 21c2.586-.184 6 7 6 7" style="fill:none;stroke:#5be759;stroke-width:10;stroke-linecap:round;stroke-linejoin:round"/><path d="M15 26s2.875 17.448 9 18c4.368.393 5.99-4.983 7.756-10.236" style="fill:none;stroke:#11c9ff;stroke-width:10;stroke-linecap:round;stroke-linejoin:round"/><path d="m31.184 19.355-5.329 10.127c.624 1.472 1.264 3.267 1.916 5.182.988 2.9 1.973 5.994 3.782 8.854a12.8 12.8 0 0 0 2.336 2.714l4.576-11.406a87 87 0 0 1-1.227-3.387c-.977-2.87-1.975-6.029-3.685-8.97a15.7 15.7 0 0 0-2.37-3.114" style="fill:#2257e1"/><path d="m53.973 26.514-.002.021s-.484 4.667-1.858 9.6c-.687 2.466-1.564 5.033-3.002 7.408s-3.808 5.09-7.662 5.437c-4.362.393-8.088-2.603-9.896-5.462-1.809-2.86-2.794-5.953-3.782-8.854-.987-2.9-1.955-5.607-2.863-7.168-.128-.22-.077-.053-.178-.213a55 55 0 0 0-.99 2.309 5 5 0 0 1-2.111 2.615q.125.411.26.824a5 5 0 0 0 1.851-2.44s.487-1.22.99-2.308c.101.16.05-.007.178.213.908 1.56 1.876 4.267 2.863 7.168s1.973 5.994 3.782 8.854 5.534 5.855 9.896 5.462c3.854-.347 6.225-3.062 7.662-5.437s2.315-4.942 3.002-7.408c1.374-4.933 1.858-9.6 1.858-9.6a5 5 0 0 0 .002-1.021" style="opacity:.2"/><path d="M23.805 15.994c-2.678.012-4.362 1.544-5.373 2.654-.804.883-1.381 1.76-1.864 2.608q.251.081.49.19a13.4 13.4 0 0 1 1.374-1.798c1.079-1.184 2.923-2.85 5.922-2.636 4.39.311 7.488 3.515 9.199 6.457s2.708 6.1 3.685 8.97c.978 2.871 1.96 5.458 2.766 6.733.481.76.337.503.326.506.087-.115.093-.093.227-.313.636-1.052 1.376-2.95 1.923-4.914.226-.81.418-1.617.59-2.4q-.097-.074-.191-.15a43 43 0 0 1-.399 1.55c-.547 1.965-1.287 3.862-1.923 4.914-.134.22-.14.198-.227.313.011-.003.155.254-.326-.506-.806-1.275-1.788-3.862-2.766-6.733-.977-2.87-1.975-6.029-3.685-8.97s-4.81-6.146-9.2-6.457a7 7 0 0 0-.548-.018m25.73 5.035a5 5 0 0 0-1.728.157c.11.16.225.322.33.48.087.131.166.26.25.39a5 5 0 0 1 1.148-.027 5 5 0 0 1 4.438 4.485 5 5 0 0 0-4.438-5.485" style="fill:#fff;opacity:.1"/><path d="M39.69 27.049c-.647 1.115-1.39 3.028-2.157 5.232l.178.504c.704-1.988 1.382-3.708 1.978-4.736.045.065.072.08.116.146a29 29 0 0 1 1.68 2.951 5 5 0 0 0 6.661 2.37 5 5 0 0 0 2.827-5.02 5 5 0 0 1-2.827 4.02 5 5 0 0 1-6.662-2.37s-.747-1.546-1.68-2.95c-.043-.067-.07-.082-.115-.147m-29.64-.58a5 5 0 0 0 .017 1.343s.753 4.662 2.397 9.569c.822 2.453 1.839 5.004 3.373 7.328s3.873 4.925 7.715 5.271c2.133.193 4.39-.419 6.035-1.52 1.421-.95 2.421-2.129 3.201-3.321q-.198-.221-.383-.446c-.72 1-1.618 1.965-2.818 2.768-1.646 1.1-3.902 1.712-6.035 1.52-3.842-.347-6.181-2.948-7.715-5.272s-2.551-4.875-3.373-7.328a68 68 0 0 1-2.397-9.568 5 5 0 0 1-.017-.344" style="opacity:.2"/><path d="M40.197 15.99q-.267 0-.55.022c-3.297.234-5.879 2.237-7.542 4.373q.209.253.403.51c1.665-1.943 4.097-3.667 7.138-3.883 3.022-.215 4.676 1.29 5.82 2.375s1.96 2.208 2.67 3.279a37 37 0 0 1 2.38 4.188 5 5 0 0 1 .457 1.642 5 5 0 0 0-.457-2.642s-.958-2.047-2.38-4.188c-.71-1.07-1.525-2.195-2.67-3.28-1.072-1.015-2.593-2.403-5.269-2.396m-24.89 5.02a5 5 0 0 0-1.12.056 5 5 0 0 0-4.138 5.403 5 5 0 0 1 4.139-4.403 5 5 0 0 1 5.746 4.122s.685 4.062 2.01 8.017c.662 1.977 1.512 3.894 2.24 4.996.15.228.18.223.289.352.053-.078.033-.027.093-.127.688-1.146 1.55-3.58 2.45-6.256a5 5 0 0 1 .134-.291l-.193-.54c-.879 2.608-1.718 4.966-2.39 6.087-.06.1-.04.05-.094.127-.11-.129-.139-.124-.29-.352-.727-1.102-1.577-3.019-2.24-4.996-1.324-3.955-2.01-8.017-2.01-8.017a5 5 0 0 0-4.626-4.178" style="fill:#fff;opacity:.2"/><path d="M20.8 4C11.495 4 4 11.494 4 20.8v1C4 12.495 11.494 5 20.8 5h22.4C52.505 5 60 12.494 60 21.8v-1C60 11.495 52.506 4 43.2 4z" style="fill:#fff;opacity:.1"/></svg>