<svg xmlns="http://www.w3.org/2000/svg" width="64" height="64"><rect width="44" height="56" x="10" y="4" rx="2.8" ry="2.8" style="opacity:.2"/><rect width="44" height="56" x="10" y="3" rx="2.8" ry="2.8" style="fill:#4a1a3a"/><path d="M10 46v10.199A2.796 2.796 0 0 0 12.801 59h38.398A2.796 2.796 0 0 0 54 56.199V46z" style="fill:#3b1530"/><path d="M16 11h28v2H16z" style="opacity:.2"/><path d="M16 10h28v2H16z" style="fill:#e4e4e4"/><path d="M20 15h24v2H20z" style="opacity:.2"/><path d="M20 14h24v2H20z" style="fill:#667b9e"/><path d="M16 23h28v2H16z" style="opacity:.2"/><path d="M16 22h28v2H16z" style="fill:#e4e4e4"/><path d="M20 27h24v2H20z" style="opacity:.2"/><path d="M20 26h24v2H20z" style="fill:#667b9e"/><path d="M16 35h28v2H16z" style="opacity:.2"/><path d="M16 34h28v2H16z" style="fill:#e4e4e4"/><path d="M20 39h24v2H20z" style="opacity:.2"/><path d="M20 38h24v2H20z" style="fill:#667b9e"/><circle cx="48" cy="47" r="16" style="opacity:.2"/><circle cx="48" cy="46" r="16" style="fill:#d38b2e"/><path d="M42 42v2h12v-2zm0 6v2h12v-2z" style="fill:#fff"/><path d="M12.801 3A2.796 2.796 0 0 0 10 5.8v1C10 5.25 11.25 4 12.801 4h38.398A2.796 2.796 0 0 1 54 6.8v-1C54 4.25 52.75 3 51.199 3z" style="opacity:.1;fill:#fff"/></svg>