<svg xmlns="http://www.w3.org/2000/svg" xmlns:xlink="http://www.w3.org/1999/xlink" width="64" height="64"><defs><radialGradient xlink:href="#a" id="b" cx="63.945" cy="63.945" r="28" fx="63.945" fy="63.945" gradientTransform="rotate(-90 63.649 145.85)scale(2.28085)" gradientUnits="userSpaceOnUse"/><radialGradient xlink:href="#a" id="c" cx="63.945" cy="63.945" r="28" fx="63.945" fy="63.945" gradientTransform="rotate(-90 58.131 120.424)scale(1.88323)" gradientUnits="userSpaceOnUse"/><filter id="d" width="1.147" height="1.147" x="-.073" y="-.073" style="color-interpolation-filters:sRGB"><feGaussianBlur stdDeviation="1.586"/></filter><filter id="e" width="1.203" height="1.29" x="-.102" y="-.154" style="color-interpolation-filters:sRGB"><feGaussianBlur stdDeviation=".943"/></filter><linearGradient id="a"><stop offset="0" style="stop-color:#00ab60;stop-opacity:1"/><stop offset="1" style="stop-color:#2edd6c;stop-opacity:1"/></linearGradient></defs><path fill="#1ed760" d="M59.74 32C59.74 16.644 47.356 4.26 32 4.26S4.26 16.644 4.26 32 16.644 59.74 32 59.74 59.74 47.356 59.74 32" style="opacity:1;fill:url(#b);stroke-width:.990704"/><path fill="#1ed760" d="M54.904 32C54.904 19.321 44.679 9.096 32 9.096S9.096 19.321 9.096 32 19.321 54.904 32 54.904 54.904 44.679 54.904 32" style="fill:url(#c);stroke-width:.817993"/><path fill="#1ed760" d="M58.57 32C58.57 17.292 46.708 5.43 32 5.43S5.43 17.292 5.43 32 17.292 58.57 32 58.57 58.57 46.708 58.57 32Z" style="mix-blend-mode:normal;fill:none;stroke:#000;stroke-width:.191564;stroke-dasharray:none;stroke-opacity:1;filter:url(#d)" transform="translate(-1.41 -1.41)scale(1.04404)"/><g style="stroke:#00ff41;stroke-opacity:1;filter:url(#e)" transform="translate(1.351 .114)scale(.99137)"><path d="M14.113 22.343c7.553-1.82 21.821-3.666 35.774 3.162" style="opacity:.551886;mix-blend-mode:normal;fill:none;stroke:#00ff41;stroke-width:2.75;stroke-linecap:round;stroke-miterlimit:7.4;stroke-dasharray:none;stroke-opacity:1"/><path d="M17.195 42.196c5.002-1.205 14.45-2.428 23.689 2.094" style="opacity:.551886;mix-blend-mode:normal;fill:none;stroke:#00ff41;stroke-width:1.9;stroke-linecap:round;stroke-miterlimit:7.4;stroke-dasharray:none;stroke-opacity:1"/><path d="M15.736 32.569c6.04-1.455 17.452-2.932 28.612 2.529" style="opacity:.551886;mix-blend-mode:normal;fill:none;stroke:#00ff41;stroke-width:2.2;stroke-linecap:round;stroke-miterlimit:7.4;stroke-dasharray:none;stroke-opacity:1"/></g><g style="opacity:.767307"><path d="M14.113 22.345c7.553-1.82 21.821-3.666 35.774 3.162" style="opacity:.551886;fill:none;stroke:#000;stroke-width:5.5;stroke-linecap:round;stroke-miterlimit:7.4;stroke-dasharray:none;stroke-opacity:1" transform="translate(1.351 .114)scale(.99137)"/><path d="M17.195 42.198c5.002-1.205 14.45-2.428 23.689 2.093" style="opacity:.551886;fill:none;stroke:#000;stroke-width:3.8;stroke-linecap:round;stroke-miterlimit:7.4;stroke-dasharray:none;stroke-opacity:1" transform="translate(1.351 .114)scale(.99137)"/><path d="M15.736 32.57c6.04-1.455 17.452-2.932 28.612 2.53" style="opacity:.551886;fill:none;stroke:#000;stroke-width:4.4;stroke-linecap:round;stroke-miterlimit:7.4;stroke-dasharray:none;stroke-opacity:1" transform="translate(1.351 .114)scale(.99137)"/></g></svg>