<svg xmlns="http://www.w3.org/2000/svg" width="64" height="64"><g transform="translate(-15 9)"><path d="M23 5c-2.216 0-4 1.784-4 4v39c0 2.216 1.784 4 4 4h37V5Z" style="opacity:.2"/><rect width="13" height="47" x="19" y="4" rx="4" ry="4" style="fill:#456048"/><path d="M28 4h32v47H28z" style="fill:#3d944e"/><path d="M23 4c-2.216 0-4 1.784-4 4v1c0-2.216 1.784-4 4-4h37V4Z" style="opacity:.1;fill:#fff"/><path d="M24 44c-2.216 0-4 1.335-4 2.994v.012C20 48.665 21.784 50 24 50h36v-6Z" style="fill:#c8cc8c"/><path d="M24 44c-2.216 0-4 1.335-4 2.994v.012c0 .169.023.333.059.494.313-1.422 1.95-2.5 3.941-2.5h36v-1Z" style="opacity:.2"/></g><path d="M23 5c-2.216 0-4 1.784-4 4v39c0 2.216 1.784 4 4 4h37V5Z" style="opacity:.2"/><rect width="13" height="47" x="19" y="4" rx="4" ry="4" style="fill:#6c5353"/><path d="M28 4h32v47H28z" style="fill:#957575"/><path d="M23 4c-2.216 0-4 1.784-4 4v1c0-2.216 1.784-4 4-4h37V4z" style="opacity:.1;fill:#fff"/><path d="M24 44c-2.216 0-4 1.335-4 2.994v.012C20 48.665 21.784 50 24 50h36v-6z" style="fill:#c8cc8c"/><path d="M24 44c-2.216 0-4 1.335-4 2.994v.012c0 .169.023.333.059.494.313-1.422 1.95-2.5 3.941-2.5h36v-1z" style="opacity:.2"/></svg>