<svg xmlns="http://www.w3.org/2000/svg" width="64" height="64"><rect width="56" height="56" x="4" y="5" ry="9.333" style="opacity:.2"/><rect width="56" height="56" x="4" y="4" ry="9.333" style="fill:#3f3f3f"/><path d="M32 12c-1.108 0-2 .892-2 2v9c0 1.108.892 2 2 2s2-.892 2-2v-9c0-1.108-.892-2-2-2m-9.27 4.635c-.25.002-.505.07-.738.215a19 19 0 0 0-8.467 20.586A19 19 0 1 0 42.008 16.85c-.745-.462-1.704-.146-2.102.634-.398.781-.082 1.73.655 2.203a15.83 15.83 0 0 1 1.238 25.743 15.83 15.83 0 0 1-25.19-8.735 15.83 15.83 0 0 1 6.83-17.008c.737-.473 1.053-1.422.655-2.203a1.53 1.53 0 0 0-1.364-.85M38 29c-4.936 0-9.08 6.586-13.986 6C21.56 34.707 20 32.01 20 32.01c0 3.445 1.265 6.75 3.516 9.185C25.766 43.631 28.817 45 32 45s6.234-1.369 8.484-3.805S44 35.455 44 32.01c0 0-.713-3.01-6-3.01" style="opacity:.2"/><rect width="4" height="13" x="30" y="11" fill="#61d0ff" rx="2"/><path fill="#61d0ff" d="M20 31.25c0 3.345 2.075 4.857 4.325 7.221 2.25 2.365 3.977 3.472 7.16 3.472 3.182 0 4.466-1.77 6.716-4.135s3.368-1.666 3.368-5.01c0 0 .87.255-1.583.54-4.906.568-10.668-3.908-15.575-3.34-2.453.285-4.41 1.253-4.41 1.253"/><path d="M32 11c-1.108 0-2 .892-2 2v1c0-1.108.892-2 2-2s2 .892 2 2v-1c0-1.108-.892-2-2-2m-6.66 18.95a8 8 0 0 0-.928.048C21.96 30.282 20 31.25 20 31.25q0 .51.063.969a15.1 15.1 0 0 1 4.35-1.221q.458-.052.927-.049c4.694.021 10.046 3.922 14.646 3.389.823-.095 1.271-.187 1.504-.268.044-.29.07-.628.076-1.029-.205.087-.657.19-1.58.297-4.6.533-9.952-3.368-14.646-3.389m16.226 3.091c.342-.144.002-.242.002-.242q0 .124-.002.242" style="fill:#fff;opacity:.2"/><path d="M44 31.01c0 3.445-1.264 6.75-3.515 9.185C38.235 42.631 35.183 44 32 44s-6.235-1.369-8.485-3.805S20 34.455 20 31.01c0 0 1.56 2.697 4.014 2.99 4.907.586 9.05-6 13.986-6 5.287 0 6 3.01 6 3.01" style="fill:#1d6fe4"/><path d="M24.094 16.485c-.397-.781-1.357-1.097-2.102-.636a19 19 0 1 0 20.016 0c-.745-.461-1.705-.145-2.102.636-.398.78-.082 1.73.654 2.203a15.827 15.827 0 1 1-17.12 0c.736-.474 1.052-1.423.654-2.203" style="fill:#1d6fe4"/><path d="M13.334 4A9.314 9.314 0 0 0 4 13.334v1A9.314 9.314 0 0 1 13.334 5h37.332A9.314 9.314 0 0 1 60 14.334v-1A9.314 9.314 0 0 0 50.666 4Zm9.396 11.635c-.25.002-.505.07-.738.215a19 19 0 0 0-8.984 16.65 19 19 0 0 1 8.984-15.65 1.4 1.4 0 0 1 .738-.215 1.53 1.53 0 0 1 1.364.85q.057.111.095.228a1.62 1.62 0 0 0-.095-1.229 1.53 1.53 0 0 0-1.364-.85m18.54 0a1.53 1.53 0 0 0-1.364.85c-.2.394-.22.83-.095 1.228q.038-.116.095-.229c.398-.78 1.357-1.096 2.102-.634a19 19 0 0 1 8.984 15.65 19 19 0 0 0-8.984-16.65 1.4 1.4 0 0 0-.738-.215M38 28c-4.936 0-9.08 6.586-13.986 6C21.56 33.707 20 31.01 20 31.01q0 .536.041 1.066c.26.418 1.75 2.658 3.973 2.924 4.906.586 9.05-6 13.986-6 4.722 0 5.795 2.401 5.97 2.914q.03-.45.03-.904S43.287 28 38 28m-21.82 4.504a15.827 15.827 0 1 0 31.64 0 15.828 15.828 0 0 1-31.64 0" style="fill:#fff;opacity:.1"/></svg>