<svg xmlns="http://www.w3.org/2000/svg" width="64" height="64"><rect width="54" height="54" x="-60" y="-59" rx="4.05" ry="4.05" style="opacity:.2" transform="rotate(90)scale(-1 1)"/><rect width="54" height="54" x="-59" y="-59" rx="4.05" ry="4.05" style="fill:#597f97" transform="rotate(90)scale(-1 1)"/><path d="M27 13v10h10V13zm14 0v10h10V13zM13 27v10h10V27zm14 0v10h10V27zm14 0v10h10V27zM13 41v10h10V41zm14 0v10h10V41z" style="fill:#fff"/><path d="M9.05 5A4.04 4.04 0 0 0 5 9.05v1A4.04 4.04 0 0 1 9.05 6h45.9A4.04 4.04 0 0 1 59 10.05v-1A4.04 4.04 0 0 0 54.95 5z" style="opacity:.2;fill:#fff"/><path d="M27 23v1h10v-1zm14 0v1h10v-1zM13 37v1h10v-1zm14 0v1h10v-1zm14 0v1h10v-1zM13 51v1h10v-1zm14 0v1h10v-1z" style="opacity:.2"/></svg>