<svg xmlns="http://www.w3.org/2000/svg" xmlns:xlink="http://www.w3.org/1999/xlink" width="64" height="64"><defs><filter id="c" width="1.132" height="1.185" x="-.066" y="-.092" style="color-interpolation-filters:sRGB"><feGaussianBlur stdDeviation="1.111"/></filter><filter id="d" width="1.228" height="1.228" x="-.114" y="-.114" style="color-interpolation-filters:sRGB"><feGaussianBlur stdDeviation="2.344"/></filter><radialGradient xlink:href="#a" id="b" cx="15.732" cy="49.006" r="26.066" fx="15.732" fy="49.006" gradientTransform="rotate(-30 -113.632 132.37)scale(2.54779)" gradientUnits="userSpaceOnUse"/><linearGradient id="a"><stop offset="0" style="stop-color:#8746ce;stop-opacity:1"/><stop offset="1" style="stop-color:#4765bb;stop-opacity:1"/></linearGradient></defs><path d="M22.352 6.184h19.296a16.17 16.17 45 0 1 16.168 16.168v19.296a16.17 16.17 135 0 1-16.168 16.168H22.352A16.17 16.17 45 0 1 6.184 41.648V22.352A16.17 16.17 135 0 1 22.352 6.184" style="opacity:1;fill:url(#b);stroke:none;stroke-width:.5;stroke-linejoin:bevel;stroke-miterlimit:4.6"/><path d="M31.89 17.2c4.388 0 8.776.035 11.498.104 1.463.038 4.027.234 4.945 1.332.657.787 1.245 2.096 2.111 4.366 1.7 4.452 3.137 10.585 3.575 15.237.254 2.694.043 4.545-.723 6.327-1.152 2.681-4.35 4.7-6.714 4.237-1.216-.238-1.968-1.185-3.962-4.963-.558-1.059-1.126-2.207-1.575-3.08-.405-.787-1.515-1.392-2.404-1.392H25.154c-.89 0-1.996.611-2.408 1.4-.493.943-.916 1.88-1.365 2.747-.859 1.647-1.781 3.34-2.047 3.763-.88 1.398-2.745 1.955-4.438 1.324-2.098-.782-3.817-2.459-4.558-4.444-1.446-3.874.049-13.503 3.448-22.167.517-1.318.943-2.249 1.382-2.914.922-1.395 3.951-1.74 5.68-1.78 2.748-.064 6.896-.096 11.041-.096m-9.036 4.75a4.925 4.925 0 1 0 0 9.85 4.925 4.925 0 0 0 0-9.85m18.292 0a4.925 4.925 0 1 0 0 9.85 4.925 4.925 0 0 0 0-9.85" style="fill:#fff;stroke-width:1.20852" transform="translate(2.377 1.375)scale(.92703)"/><path d="M31.89 17.2c4.388 0 8.776.035 11.498.104 1.463.038 4.027.234 4.945 1.332.657.787 1.245 2.096 2.111 4.366 1.7 4.452 3.137 10.585 3.575 15.237.254 2.694.043 4.545-.723 6.327-1.152 2.681-4.35 4.7-6.714 4.237-1.216-.238-1.968-1.185-3.962-4.963-.558-1.059-1.126-2.207-1.575-3.08-.405-.787-1.515-1.392-2.404-1.392H25.154c-.89 0-1.996.611-2.408 1.4-.493.943-.916 1.88-1.365 2.747-.859 1.647-1.781 3.34-2.047 3.763-.88 1.398-2.745 1.955-4.438 1.324-2.098-.782-3.817-2.459-4.558-4.444-1.446-3.874.049-13.503 3.448-22.167.517-1.318.943-2.249 1.382-2.914.922-1.395 3.951-1.74 5.68-1.78 2.748-.064 6.896-.096 11.041-.096zm-9.036 4.75a4.925 4.925 0 1 0 0 9.85 4.925 4.925 0 0 0 0-9.85zm18.292 0a4.925 4.925 0 1 0 0 9.85 4.925 4.925 0 0 0 0-9.85z" style="mix-blend-mode:normal;fill:none;stroke:#000;stroke-width:.518694;stroke-dasharray:none;stroke-opacity:1;filter:url(#c)" transform="translate(2.379 1.375)scale(.92703)"/><path d="M22.352 6.184h19.296a16.17 16.17 45 0 1 16.168 16.168v19.296a16.17 16.17 135 0 1-16.168 16.168H22.352A16.17 16.17 45 0 1 6.184 41.648V22.352A16.17 16.17 135 0 1 22.352 6.184Z" style="opacity:1;fill:none;stroke:#000;stroke-width:.5;stroke-linejoin:bevel;stroke-miterlimit:4.6;stroke-opacity:1;filter:url(#d)"/></svg>