<svg xmlns="http://www.w3.org/2000/svg" width="64" height="64"><circle cx="32" cy="33" r="26" style="opacity:.2"/><circle cx="32" cy="32" r="26" style="fill:#ccb886"/><path d="M18 23c-7.23 0-10.128 4.743-11.273 8H4v6h2.783c1.134 2.946 3.845 7 10.217 7 11 0 15-7 15-7s4 7 14 7c7.009 0 9.95-4.054 11.168-7H60v-6h-2.727C56.128 27.743 53.23 23 46 23c-11 0-14 8-14 8s-4-8-14-8" style="opacity:.1"/><path d="M18 22c-7.23 0-10.128 4.743-11.273 8H4v6h2.783c1.134 2.946 3.845 7 10.217 7 11 0 15-7 15-7s4 7 14 7c7.009 0 9.95-4.054 11.168-7H60v-6h-2.727C56.128 26.743 53.23 22 46 22c-11 0-14 8-14 8s-4-8-14-8" style="fill:#3f3f3f"/><path d="M20 26a8 8 0 0 0-8 8 8 8 0 0 0 8 8 8 8 0 0 0 8-8 8 8 0 0 0-8-8m24 0a8 8 0 0 0-8 8 8 8 0 0 0 8 8 8 8 0 0 0 8-8 8 8 0 0 0-8-8" style="opacity:.2"/><ellipse cx="32" cy="47" rx="3" ry="1.5" style="fill:#b99159"/><circle cx="20" cy="33" r="8" style="fill:#84d682"/><circle cx="44" cy="33" r="8" style="fill:#84d682"/><path d="M32 6A26 26 0 0 0 6 32a26 26 0 0 0 .021.59A26 26 0 0 1 32 7a26 26 0 0 1 25.979 25.41L58 32A26 26 0 0 0 32 6" style="opacity:.1;fill:#fff"/><path d="M20 25a8 8 0 0 0-8 8 8 8 0 0 0 .021.424A8 8 0 0 1 20 26a8 8 0 0 1 7.979 7.576A8 8 0 0 0 28 33a8 8 0 0 0-8-8m24 0a8 8 0 0 0-8 8 8 8 0 0 0 .021.424A8 8 0 0 1 44 26a8 8 0 0 1 7.979 7.576A8 8 0 0 0 52 33a8 8 0 0 0-8-8" style="opacity:.2;fill:#fff"/></svg>