<svg xmlns="http://www.w3.org/2000/svg" xmlns:xlink="http://www.w3.org/1999/xlink" xml:space="preserve" width="64" height="64"><defs><linearGradient id="d"><stop offset="0" style="stop-color:#a17555;stop-opacity:1"/><stop offset="1" style="stop-color:#a57852;stop-opacity:1"/></linearGradient><linearGradient id="c"><stop offset="0" style="stop-color:#594141;stop-opacity:1"/><stop offset="1" style="stop-color:#54543e;stop-opacity:1"/></linearGradient><linearGradient xlink:href="#a" id="k" x1="6.707" x2="63.852" y1="1.719" y2="58.865" gradientTransform="translate(.044 -2.12)" gradientUnits="userSpaceOnUse"/><linearGradient id="a"><stop offset="0" style="stop-color:#998484;stop-opacity:1"/><stop offset="1" style="stop-color:#a58282;stop-opacity:1"/></linearGradient><linearGradient xlink:href="#b" id="j" x1="6.707" x2="63.852" y1="1.719" y2="58.865" gradientTransform="translate(.086 7.61)scale(1.00042)" gradientUnits="userSpaceOnUse"/><linearGradient id="b"><stop offset="0" style="stop-color:#aaa;stop-opacity:1"/><stop offset="1" style="stop-color:#dbc5c5;stop-opacity:1"/></linearGradient><linearGradient xlink:href="#c" id="i" x1=".079" x2="63.921" y1="33.017" y2="33.017" gradientTransform="translate(.086 2.046)scale(1.00042)" gradientUnits="userSpaceOnUse"/><linearGradient xlink:href="#d" id="e" x1="9.995" x2="54.005" y1="32" y2="32" gradientTransform="rotate(-75 30.22 46.43)scale(1.38884)" gradientUnits="userSpaceOnUse"/><linearGradient xlink:href="#c" id="g" x1="-20.5" x2="2.953" y1="58.789" y2="58.789" gradientUnits="userSpaceOnUse"/><linearGradient xlink:href="#b" id="f" x1="-22.373" x2="3.976" y1="71.851" y2="45.502" gradientUnits="userSpaceOnUse"/><filter id="l" width="1.071" height="1.148" x="-.035" y="-.074" style="color-interpolation-filters:sRGB"><feGaussianBlur stdDeviation=".798"/></filter><filter id="h" width="1.077" height="1.077" x="-.038" y="-.038" style="color-interpolation-filters:sRGB"><feGaussianBlur stdDeviation=".354"/></filter></defs><path d="m51.04 14.63 6.408.532-1.292.734a4.186 4.186 0 0 0 .149 7.362l5.716 2.945-1.475.183a4.186 4.186 0 0 0-2.68 6.859l4.155 4.908-1.433-.396a4.186 4.186 0 0 0-5.1 5.312l1.96 6.124-1.172-.914a4.186 4.186 0 0 0-6.745 2.956l-.533 6.408-.733-1.293a4.186 4.186 0 0 0-7.362.15l-2.945 5.716-.183-1.475a4.186 4.186 0 0 0-6.859-2.68l-4.908 4.155.395-1.433a4.186 4.186 0 0 0-5.311-5.1l-6.124 1.96.913-1.173a4.186 4.186 0 0 0-2.955-6.744l-6.408-.533 1.292-.734a4.186 4.186 0 0 0-.149-7.362l-5.716-2.944 1.475-.184a4.186 4.186 0 0 0 2.68-6.858l-4.155-4.908 1.433.395a4.186 4.186 0 0 0 5.1-5.312l-1.96-6.124 1.172.914a4.186 4.186 0 0 0 6.745-2.956l.533-6.408.733 1.293a4.186 4.186 0 0 0 7.362-.15l2.945-5.716.183 1.475a4.186 4.186 0 0 0 6.859 2.68l4.908-4.155-.395 1.433a4.186 4.186 0 0 0 5.311 5.1l6.124-1.96-.913 1.173a4.186 4.186 0 0 0 2.955 6.744" style="fill:url(#e);stroke-width:5.54843;stroke-linecap:round;stroke-miterlimit:7.3;paint-order:fill markers stroke" transform="translate(3.781 .074)scale(.8823)"/><path d="M-8.773 48.064c-5.923 0-10.725 4.802-10.725 10.725s4.802 10.725 10.725 10.725S1.95 64.712 1.95 58.789s-4.8-10.725-10.723-10.725" style="baseline-shift:baseline;display:inline;overflow:visible;vector-effect:none;fill:url(#f);stroke-linecap:round;stroke-miterlimit:7.3;paint-order:fill markers stroke;enable-background:accumulate;stop-color:#000" transform="translate(49.018 -85.57)scale(1.93972)"/><path d="M-8.773 47.063c-6.465 0-11.727 5.262-11.727 11.726s5.262 11.727 11.727 11.727c6.464 0 11.726-5.263 11.726-11.727S-2.309 47.063-8.773 47.063m0 2.003A9.707 9.707 0 0 1 .949 58.79a9.707 9.707 0 0 1-9.722 9.723 9.707 9.707 0 0 1-9.723-9.723 9.707 9.707 0 0 1 9.723-9.723" style="baseline-shift:baseline;display:inline;overflow:visible;vector-effect:none;fill:url(#g);fill-opacity:1;stroke:none;stroke-linecap:round;stroke-miterlimit:7.3;stroke-opacity:1;paint-order:fill markers stroke;enable-background:accumulate;stop-color:#000" transform="translate(49.018 -85.57)scale(1.93972)"/><path d="M-8.773 47.063c-6.465 0-11.727 5.262-11.727 11.726s5.262 11.727 11.727 11.727c6.464 0 11.726-5.263 11.726-11.727S-2.309 47.063-8.773 47.063zm0 2.003A9.707 9.707 0 0 1 .949 58.79a9.707 9.707 0 0 1-9.722 9.723 9.707 9.707 0 0 1-9.723-9.723 9.707 9.707 0 0 1 9.723-9.723z" style="baseline-shift:baseline;display:inline;overflow:visible;fill:none;fill-opacity:1;stroke:#000;stroke-width:.1;stroke-linecap:round;stroke-miterlimit:7.3;stroke-dasharray:none;stroke-opacity:1;paint-order:fill markers stroke;filter:url(#h);enable-background:accumulate;stop-color:#000" transform="translate(49.018 -85.57)scale(1.93972)"/><path d="m64.034 19.03-12.044.12-.368 1.085-.512-1.065-7.272-.06v.646l-.903-.676h-9.486l-1.796 1.368-1.794-1.368h-9.488l-1.768 1.327L16.91 19.1.165 19.084 4.6 23.47l.02 22.017v.035l.185 5.604L19.274 39.4l7.433 5.557 4.946-3.71 4.945 3.71 7.79-5.823 7.498 5.386.191.506.194-.587 7.546 5.348.033-26.313zM25.28 26.373l-.018 7.814-.334-.252-.006-7.56zm12.744 0 .357.002-.006 7.56-.334.252zm-25.806.055v8.816l-.375.285-.022-9.099z" style="baseline-shift:baseline;display:inline;overflow:visible;vector-effect:none;fill:url(#i);stroke-width:1.00042;enable-background:accumulate;stop-color:#000" transform="translate(-.1 -3.077)"/><path d="m59.265 21.076-5.935.06-1.483 4.385-2.097-4.362-4.012-.034v16.133l-.268.264 4.596 3.303.072-6.275 1.71 4.5 1.542-4.677.03 8.502 4.306 3.052.028-23.246zm-38.326.002-1.383 1.038-.002 15.074 7.053 5.272 3.857-2.894-.015-17.45-1.364-1.04zm13.086 0-1.364 1.04-.015 17.45 3.857 2.894 7.053-5.272-.002-15.074-1.383-1.037zM6.498 22.634l.021 22.851v.005l.051 1.553 11.215-9.086-.334-.273V22.118l-1.321-1.02-11.196-.011Zm19.909 1.737.778.262-.028 13.55-4.324-3.247-.006-10.305.53-.245zm10.296 0 3.05.015.53.245-.006 10.305-4.324 3.247-.028-13.55zm-23.105.055.522.234v11.577l-4.362 3.31-.036-15.106Z" style="fill:url(#j);fill-opacity:1;stroke:none;stroke-width:2.79605;stroke-dasharray:none;stroke-opacity:1" transform="translate(-.1 -3.077)"/><path d="m59.198 11.34-5.932.06-1.482 4.383-2.096-4.36-4.01-.034v16.126l-.27.264 4.595 3.302.073-6.273 1.708 4.499 1.542-4.676.03 8.499 4.304 3.05.028-23.236zm-38.31.002-1.382 1.038-.002 15.067 7.05 5.27 3.855-2.893-.014-17.442-1.364-1.04zm13.08 0-1.363 1.04-.014 17.442 3.855 2.893 7.05-5.27-.002-15.067-1.382-1.038zM6.455 12.897l.02 22.842v.004l.052 1.553 11.21-9.082-.334-.273v-15.56l-1.32-1.02-11.192-.01Zm19.9 1.736.777.262-.027 13.545-4.322-3.246-.006-10.3.53-.246zm10.292 0 3.048.015.53.245-.006 10.3-4.322 3.247-.027-13.545zm-23.095.056.522.234v11.572l-4.36 3.308-.037-15.1z" style="opacity:.523969;fill:url(#k);fill-opacity:1;stroke:none;stroke-width:2.79488;stroke-dasharray:none;stroke-opacity:1;filter:url(#l)" transform="translate(-.013 7.052)scale(1.00042)"/></svg>