<svg xmlns="http://www.w3.org/2000/svg" width="64" height="64"><path d="M31.5 5 10 12l1.5 21.5-6.5 7L14 51l5.5-2 2.5 8 9.5 3 9.5-3 2.5-8 5.5 2 9-10.5-6.5-7L53 12z" style="opacity:.2;stop-color:#000"/><path d="M31.5 4 10 11l1.5 21.5-6.5 7L14 50l5.5-2 2.5 8 9.5 3 9.5-3 2.5-8 5.5 2 9-10.5-6.5-7L53 11z" style="fill:#fbc02d;stop-color:#000"/><path d="M31.5 4 10 11l.068.979L31.5 5l21.432 6.979L53 11zM11.436 32.57 5 39.5l.445.52L11.5 33.5zm40.128 0-.064.93 6.055 6.52.445-.52z" style="fill:#fff;opacity:.2;stop-color:#000"/><circle cx="20" cy="36.5" r="5.5" style="fill:#3f3f3f;stop-color:#000"/><circle cx="43" cy="36.5" r="5.5" style="fill:#3f3f3f;stop-color:#000"/><path d="m27.5 46.5 4-5.5 4 5.5L33 49l-1.5-2-1.5 2z" style="fill-rule:evenodd;fill:#3f3f3f;stop-color:#000"/><path d="M20 31a5.5 5.5 0 0 0-5.5 5.5 6 6 0 0 0 .057.5A5.5 5.5 0 0 1 20 32a5.5 5.5 0 0 1 5.459 4.865 6 6 0 0 0 .041-.365A5.5 5.5 0 0 0 20 31m23 0a5.5 5.5 0 0 0-5.5 5.5 6 6 0 0 0 .057.5A5.5 5.5 0 0 1 43 32a5.5 5.5 0 0 1 5.459 4.865 6 6 0 0 0 .041-.365A5.5 5.5 0 0 0 43 31M31.5 41l-4 5.5.422.422L31.5 42l3.578 4.922.422-.422z" style="fill-rule:evenodd;opacity:.2;stop-color:#000"/><path d="M25.459 36.865A5.5 5.5 0 0 1 20 42a5.5 5.5 0 0 1-5.443-5 6 6 0 0 0-.057.5A5.5 5.5 0 0 0 20 43a5.5 5.5 0 0 0 5.5-5.5 6 6 0 0 0-.041-.635m23 0A5.5 5.5 0 0 1 43 42a5.5 5.5 0 0 1-5.443-5 6 6 0 0 0-.057.5A5.5 5.5 0 0 0 43 43a5.5 5.5 0 0 0 5.5-5.5 6 6 0 0 0-.041-.635M27.922 46.922l-.422.578L30 50l1.5-2 1.5 2 2.5-2.5-.422-.578L33 49l-1.5-2-1.5 2z" style="fill-rule:evenodd;fill:#fff;opacity:.2;stop-color:#000"/></svg>