<svg xmlns="http://www.w3.org/2000/svg" width="64" height="64"><path d="M21 14A19 19 0 0 0 2 33a19 19 0 0 0 19 19 19 19 0 0 0 15.473-8h22.812C60.79 44 62 42.773 62 41.25v-16.5c0-1.523-1.211-2.75-2.715-2.75h-22.82A19 19 0 0 0 21 14" style="opacity:.2"/><circle cx="21" cy="32" r="19" style="fill:#8e8e8e"/><rect width="38" height="22" x="24" y="21" rx="2.714" ry="2.75" style="fill:#8e8e8e"/><circle cx="21" cy="33" r="13" style="opacity:.1"/><circle cx="21" cy="32" r="13" style="fill:#3949ab"/><rect width="18" height="8" x="38" y="28" rx="2.4" ry="2.162" style="opacity:.3"/><path d="M21 13A19 19 0 0 0 2 32a19 19 0 0 0 .02.426A19 19 0 0 1 21 14a19 19 0 0 1 15.465 8h22.82C60.79 22 62 23.227 62 24.75v-1c0-1.523-1.211-2.75-2.715-2.75h-22.82A19 19 0 0 0 21 13" style="opacity:.1;fill:#fff"/></svg>