<svg xmlns="http://www.w3.org/2000/svg" width="64" height="64"><rect width="56" height="56" x="4" y="5" rx="11.2" ry="11.2" style="opacity:.2"/><rect width="56" height="56" x="4" y="4" rx="11.2" ry="11.2" style="fill:#546d78"/><path d="M17.419 52.861c-1.379.597-3.456-.855-1.871-1.94 1.97-1.389 4.67-.911 6.967-1.307 1.823-.061 4.122-.083 4.96-2.006 1.056-1.269 2.539-4.393-.036-4.638-1.05 1.008-1.773 3.435-3.778 3.278-1.056 1.049-3.097.887-4.527 1.606-1.684 1.095-1.528-1.956-.051-2.24 1.54-.333 2.81-.809 4.316-1.464 1.486-.421 2.128-3.602-.059-2.62-.859 1.365-3.887 2.012-3.383-.141.635-1.832 2.633-2.656 3.521-4.195.863-1.223 2.06-2.085 2.581-3.393 1.1-2.306-2.072-1.447-3.336-1.907-1.315.113-3.981-1.936-4.39-.112 1.047 1.396 3.03 1.468 4.226 2.643 2.062.507-.51 2.81-1.563 1.127-.739-.571-3.086-1.113-2.642.47.304.986.02 1.956-1.275 1.627-1.538-.416-1.65-2.66-2.106-4.046-.338-1.834-1.04-3.427-.968-5.389.54-1.85.283-4.225 1.71-5.801.85-1.726 3.948.475 2.745 1.844.101 1.653 2.81 1.907 4.27 1.999 1.577-.244 4.176 2.88 1.295 2.469-.968.299-3.335-.858-3.48.018 1.394.65 2.565 1.07 4.042 1.497 1.29.712 3.282 1.11 3.24-1.045.638-1.555-.005-3.42-1.173-4.29-1.927-.477-3.672.718-5.569.164-1.94-.717-1.277-4.017-1.068-5.434.653-1.71 2.54-2.087 4.24-2.265 2.15-.271 4.323-.201 6.485-.272 1.316-.932 4.027 1.261 1.9 2.164-2.82.248-5.742-.255-8.492.557-1.51.288-1.987 3.295.203 2.412 1.947.239 3.86-1.267 5.767-.324.96 1.377.162 3.396.414 5.03-.469 1.742-.78 3.75-1.58 5.34-.013 1.49-1.258 2.825-1.8 4.317-1.579 1.711.625 3.17 2.261 3.41 2.247.217 4.704.69 6.854-.07 2.063-.427 4.123-1.194 6.099-1.69 1.217.673 1.169 3.15-.531 3.284-2.216.783.817 2.42 1.885 2.785 1.714.657 4.035.213 5.34 1.616-1.37.665-2.714 1.946-4.536 1.038-1.977-.158-3.929-.77-5.472-2.008-.211-1.205-2.601-3.281-2.583-.942.527 1.612.222 3.75 1.735 4.897 3.179 1.152 6.623.374 9.895.902 1.926-.18 2.643 1.59.934 2.52-2.127.244-4.23-.515-6.403-.28-1.99-.067-3.8-.063-5.645-.25-2.145.358-4.277-.604-6.461-.084-3.128.249-6.268.171-9.399.347-1.139.518-2.479.656-3.708.792m14.936-3.943c1.114-.033 2.766.441 2.052-1.267-.585-1.415-.2-4.118-2.185-4.366-1.267 1.5-1.395 3.742-2.322 5.5.794.272 1.64.058 2.455.133m15.756-9.429c-1.814.207-1.311-2.58-2.74-3.288-1.633-.172-3.075.899-4.685.896-1.464.361-3.145.479-4.864.58-1.834.443-4.265-.465-4.925-1.812 1.859-.911 4.063-.843 6.083-1.186 2.11-.245 4.153-.507 6.164-1.156 1.7-1.483-1.829-.993-2.679-1.011-2.828.036-5.614.583-8.445.591-1.31-1.554 1.353-2.159 2.51-2.273 2.13-.307 4.232-.858 6.415-.728 1.633-.049 3.317.24 4.918-.109.818-1.774-2.407-.73-3.41-.878-2.18-.144-4.39-.307-6.567-.123-1.388.174-3.22 1.358-4.377.227-1.53-1.13-.324-3.808 1.607-3.001 1.652.302 2.483-.355 4.082-.253.664-.142 1.668.313 2.07-.286-.346-2.337 1.784-3.458 3.564-4.391 1.495-1.66-2.001-1.374-2.945-1.107-2.252-.308-1.725 2.259-2.766 3.38-.71.788-1.936 1.547-1.547-.102L35.4 15.38c.392-1.417 2.246-3.589 3.507-1.543 1.011 1.18-1.453 3.704 1.307 3.296 1.651.233 3.247-.51 4.816-.471 2.123.312 1.866 2.539 1.365 4.056-.124 1.561-.823 3.57-2.832 3.442-2.121.467-.748 2.63.898 2.404 1.612-.23 3.458-.172 3.737 1.766 1.139 2.1-1.04 4.366-.24 6.413-.089 1.61 1.759 2.875 1.461 4.358-.356.299-.852.391-1.307.388" style="opacity:.2"/><path d="M17.419 51.861c-1.379.597-3.456-.855-1.871-1.94 1.97-1.389 4.67-.911 6.967-1.307 1.823-.061 4.122-.083 4.96-2.006 1.056-1.269 2.539-4.393-.036-4.638-1.05 1.008-1.773 3.435-3.778 3.278-1.056 1.049-3.097.887-4.527 1.606-1.684 1.095-1.528-1.956-.051-2.24 1.54-.333 2.81-.809 4.316-1.464 1.486-.421 2.128-3.602-.059-2.62-.859 1.365-3.887 2.012-3.383-.141.635-1.831 2.633-2.656 3.521-4.195.863-1.223 2.06-2.085 2.581-3.393 1.1-2.306-2.072-1.447-3.336-1.907-1.315.113-3.981-1.936-4.39-.112 1.047 1.396 3.03 1.468 4.226 2.643 2.062.507-.51 2.81-1.563 1.127-.739-.571-3.086-1.113-2.642.47.304.986.02 1.956-1.275 1.627-1.538-.416-1.65-2.66-2.106-4.046-.338-1.834-1.04-3.427-.968-5.389.54-1.85.283-4.225 1.71-5.801.85-1.726 3.948.475 2.745 1.844.101 1.653 2.81 1.907 4.27 1.999 1.577-.244 4.176 2.88 1.295 2.469-.968.299-3.335-.858-3.48.018 1.394.65 2.565 1.07 4.042 1.498 1.29.712 3.282 1.109 3.24-1.046.638-1.555-.005-3.42-1.173-4.29-1.927-.477-3.672.718-5.569.164-1.94-.717-1.277-4.017-1.068-5.434.653-1.71 2.54-2.087 4.24-2.265 2.15-.271 4.323-.201 6.485-.272 1.316-.932 4.027 1.261 1.9 2.164-2.82.248-5.742-.255-8.492.557-1.51.288-1.987 3.295.203 2.412 1.947.239 3.86-1.267 5.767-.324.96 1.377.162 3.396.414 5.03-.469 1.742-.78 3.75-1.58 5.34-.013 1.49-1.258 2.825-1.8 4.317-1.579 1.711.625 3.17 2.261 3.41 2.247.217 4.704.69 6.854-.07 2.063-.427 4.123-1.194 6.099-1.69 1.217.673 1.169 3.15-.531 3.284-2.216.783.817 2.42 1.885 2.785 1.714.657 4.035.213 5.34 1.616-1.37.665-2.714 1.946-4.536 1.038-1.977-.158-3.929-.77-5.472-2.008-.211-1.205-2.601-3.281-2.583-.942.527 1.612.222 3.75 1.735 4.897 3.179 1.152 6.623.374 9.895.902 1.926-.18 2.643 1.59.934 2.52-2.127.244-4.23-.515-6.403-.28-1.99-.067-3.8-.063-5.645-.25-2.145.358-4.277-.604-6.461-.084-3.128.249-6.268.171-9.399.347-1.139.518-2.479.656-3.708.792m14.936-3.943c1.114-.033 2.766.441 2.052-1.267-.585-1.415-.2-4.118-2.185-4.366-1.267 1.5-1.395 3.742-2.322 5.5.794.272 1.64.058 2.455.133m15.756-9.429c-1.814.207-1.311-2.58-2.74-3.288-1.633-.172-3.075.899-4.685.896-1.464.361-3.145.479-4.864.58-1.834.443-4.265-.465-4.925-1.812 1.859-.911 4.063-.843 6.083-1.186 2.11-.245 4.153-.507 6.164-1.156 1.7-1.483-1.829-.993-2.679-1.011-2.828.036-5.614.583-8.445.592-1.31-1.555 1.353-2.16 2.51-2.274 2.13-.307 4.232-.858 6.415-.728 1.633-.049 3.317.24 4.918-.109.818-1.774-2.407-.73-3.41-.878-2.18-.144-4.39-.307-6.567-.123-1.388.174-3.22 1.358-4.377.227-1.53-1.13-.324-3.808 1.607-3.001 1.652.302 2.483-.355 4.082-.253.664-.142 1.668.313 2.07-.286-.346-2.337 1.784-3.458 3.564-4.391 1.495-1.66-2.001-1.374-2.945-1.107-2.252-.308-1.725 2.259-2.766 3.38-.71.788-1.936 1.547-1.547-.102L35.4 14.38c.392-1.417 2.246-3.589 3.507-1.543 1.011 1.18-1.453 3.704 1.307 3.296 1.651.233 3.247-.51 4.816-.471 2.123.312 1.866 2.539 1.365 4.056-.124 1.561-.823 3.57-2.832 3.442-2.121.467-.748 2.63.898 2.404 1.612-.23 3.458-.172 3.737 1.766 1.139 2.1-1.04 4.366-.24 6.413-.089 1.61 1.759 2.875 1.461 4.358-.356.299-.852.391-1.307.388" style="fill:#f84042"/><path d="M15.2 4C8.993 4 4 8.994 4 15.2v1C4 9.993 8.994 5 15.2 5h33.6C55.007 5 60 9.994 60 16.2v-1C60 8.993 55.006 4 48.8 4z" style="opacity:.1;fill:#fff"/><path d="M37.613 12.004c-.984.072-1.946 1.403-2.215 2.377l.022.945c.422-1.417 2.24-3.51 3.486-1.49a1 1 0 0 1 .188.357c.095-.496.126-.992-.188-1.357-.394-.64-.846-.865-1.293-.832m7.416 3.658c-1.569-.039-3.165.704-4.816.47-.759.113-1.116-.001-1.266-.243-.188.82-.23 1.465 1.266 1.244 1.651.233 3.247-.51 4.816-.47 1.096.16 1.555.833 1.676 1.653.137-1.224-.155-2.43-1.676-2.654m-13.441.213c-.304-.016-.6.048-.846.223-2.162.07-4.334.002-6.484.273-1.7.178-3.587.554-4.24 2.264-.11.738-.34 1.986-.262 3.115.047-.812.184-1.592.262-2.115.653-1.71 2.54-2.086 4.24-2.264 2.15-.271 4.322-.203 6.484-.273.783-.556 2.055 0 2.512.728.617-.793-.573-1.894-1.666-1.951m11.318 4.316c-.027.033-.043.062-.074.096-1.78.934-3.91 2.056-3.564 4.393-.403.6-1.407.143-2.07.285-1.6-.102-2.43.556-4.08.254-1.519-.635-2.583.881-2.23 2.11.249-.885 1.118-1.575 2.23-1.11 1.65.302 2.48-.356 4.08-.254.663-.142 1.667.314 2.07-.285-.347-2.337 1.785-3.46 3.564-4.393.513-.57.432-.905.074-1.096m-14.218.403c-1.434.014-2.874.816-4.334.636-.78.315-1.218.132-1.395-.242-.288.861.05 1.784 1.395 1.242 1.946.24 3.86-1.267 5.767-.324.312.448.428.966.465 1.514.056-.914.032-1.8-.465-2.514a3.1 3.1 0 0 0-1.433-.312m-12.016.187c-.391.015-.745.2-.957.631-1.427 1.577-1.17 3.953-1.71 5.803-.01.31.002.608.024.902.505-1.836.283-4.155 1.686-5.705.616-1.251 2.406-.436 2.89.627.544-1.007-.84-2.3-1.933-2.258m18.883 1.809c-.068.352-.06.592.015.717zm-16.889 1.305a1.1 1.1 0 0 1-.205.36c.1 1.654 2.808 1.909 4.27 2 .818-.126 1.907.654 2.367 1.378.88-.537-1.083-2.576-2.368-2.377-.198-.013-.423-.03-.658-.05a3.8 3.8 0 0 1-.914-.12c-1.023-.168-2.062-.495-2.492-1.191m23.97.789c-.559.792.546 2.056 1.825 1.88 1.611-.23 3.457-.171 3.736 1.766.163.3.252.604.297.91.083-.644.042-1.284-.297-1.91-.279-1.937-2.125-1.995-3.736-1.766-.792.11-1.517-.338-1.824-.88m-12.132.89q-.016.278-.018.551c.016-.061.03-.127.047-.187-.018-.118-.02-.242-.03-.364m-2.467 1.772a3.3 3.3 0 0 1-.21.85c.042 2.154-1.95 1.756-3.241 1.044a31 31 0 0 1-1.738-.556c-1.032-.184-2.203-.549-2.303.06 1.393.65 2.565 1.07 4.04 1.496 1.291.712 3.284 1.11 3.241-1.045.245-.596.3-1.236.211-1.85m17.598 1.687c-1.533.276-3.134.022-4.69.069-2.182-.13-4.284.421-6.414.728-1.091.107-3.519.652-2.693 2.018.488-.647 1.923-.942 2.693-1.018 2.13-.307 4.232-.858 6.414-.728 1.633-.049 3.317.24 4.918-.108.256-.554.117-.834-.226-.96zm-26.936 2.15c-.169.118-.299.303-.365.598 1.047 1.397 3.029 1.469 4.225 2.643.238.058.409.142.533.24.381-.428.389-1.013-.533-1.24-1.069-1.05-2.764-1.22-3.86-2.24m24.436 1.342c-2.009.648-4.048.91-6.155 1.155-2.02.343-4.225.274-6.084 1.185.133.27.34.522.596.75 1.724-.646 3.68-.628 5.488-.935 2.11-.245 4.152-.507 6.163-1.157.698-.608.51-.882-.008-.998m-16.983.04c-.029.077-.053.15-.093.236-.522 1.308-1.718 2.17-2.58 3.392-.889 1.54-2.886 2.364-3.522 4.196-.09.388-.064.682.041.9.673-1.76 2.609-2.585 3.48-4.096.863-1.223 2.06-2.084 2.58-3.392.288-.602.28-.986.094-1.237m21.664.619c-.072.53-.058 1.051.141 1.56-.07 1.257 1.037 2.303 1.387 3.406.024-.017.051-.03.074-.048.298-1.483-1.55-2.748-1.461-4.358a2.6 2.6 0 0 1-.14-.56m-29.402 2.1c-.117.164-.155.401-.06.74.014.045.02.089.03.134.09-.247.095-.551.03-.875m23.953 1.958c-1.975.497-4.034 1.266-6.097 1.692-2.151.76-4.609.286-6.856.07-1.055-.155-2.34-.819-2.7-1.729-.544 1.404 1.287 2.522 2.7 2.729 2.247.216 4.705.69 6.856-.07 2.063-.426 4.122-1.195 6.097-1.692.408.226.67.655.78 1.13.193-.786-.09-1.748-.78-2.13m-17.705 4.465c-.187.627-.651 1.27-1.264 1.443-1.505.655-2.775 1.13-4.316 1.463-.942.181-1.343 1.484-1.076 2.123.155-.52.522-1.016 1.076-1.123 1.54-.333 2.81-.808 4.316-1.463.98-.277 1.587-1.75 1.264-2.443m16.637.107c-1.027.841 1.473 2.173 2.424 2.499 1.415.542 3.24.337 4.568 1.037.258-.15.513-.296.77-.42-1.305-1.404-3.624-.96-5.338-1.617-.617-.212-1.887-.848-2.424-1.499m-4.738 1.55a1.9 1.9 0 0 0-.09.654c.527 1.612.221 3.75 1.734 4.896 3.179 1.152 6.624.375 9.897.902.889-.083 1.515.251 1.77.725.445-.886-.317-1.86-1.77-1.725-3.273-.527-6.718.25-9.897-.902-1.408-1.068-1.249-2.99-1.644-4.55m-7.752.58c-.19.96-.813 2.037-1.334 2.663-.838 1.924-3.137 1.945-4.96 2.006-2.296.396-4.999-.082-6.968 1.307-.658.45-.68.963-.387 1.367a1.6 1.6 0 0 1 .387-.367c1.97-1.389 4.672-.911 6.969-1.307 1.822-.061 4.121-.082 4.959-2.006.716-.86 1.625-2.573 1.334-3.664m5.627 3.786c-.362.366-1.34.166-2.08.188-.682-.062-1.384.072-2.06-.04a8 8 0 0 1-.396.907c.794.272 1.64.058 2.455.133 1.095-.033 2.705.42 2.08-1.188" style="fill:#fff;opacity:.2"/></svg>