<svg xmlns="http://www.w3.org/2000/svg" width="64" height="64"><rect width="49" height="60" x="-57" y="-62" rx="3.063" ry="3.068" style="opacity:.2" transform="rotate(90)scale(-1 1)"/><rect width="49" height="60" x="-56" y="-62" rx="3.063" ry="3.068" style="fill:#4f4f4f" transform="rotate(90)scale(-1 1)"/><path d="M8 13v37h48V13Z" style="opacity:.3"/><path d="M44.768 30 40 30.416l.125 18.418h3.266v-.984c.475.277.99.541 1.552.777.564.25 1.153.373 1.791.373a6.1 6.1 0 0 0 4.406-1.842c.576-.596 1.039-1.345 1.39-2.232.648-1.685.572-3.38.099-4.549a7.6 7.6 0 0 0-1.188-2.203 6.3 6.3 0 0 0-1.79-1.567 4.45 4.45 0 0 0-2.28-.597c-.638 0-1.15.099-1.55.28q-.6.27-1.239.665zm-27.354.016a8.4 8.4 0 0 0-2.633.527 6.5 6.5 0 0 0-2.16 1.314 6.1 6.1 0 0 0-1.46 2.086c-.363.813-.524 1.734-.499 2.778q.019.914.336 1.625c.212.474.488.88.813 1.232a5 5 0 0 0 1.06.924c.387.257.787.472 1.174.648s.737.327 1.074.422c.337.109.597.19.809.244q.47.203.826.405a.68.68 0 0 1 .348.584c.012.393-.149.663-.498.826-.35.162-.776.258-1.288.285a3.4 3.4 0 0 1-1.048-.11c-.362-.094-.699-.19-1.036-.312a8 8 0 0 1-.921-.392 7 7 0 0 0-.75-.34L10 47.547c.412.203.86.408 1.322.584.462.19.948.35 1.448.486.486.136.986.23 1.498.297a9 9 0 0 0 1.472.082 10.2 10.2 0 0 0 2.936-.53c.911-.31 1.685-.743 2.334-1.298a5.7 5.7 0 0 0 1.51-2.047c.362-.813.512-1.748.474-2.805-.025-.745-.163-1.395-.4-1.937a5 5 0 0 0-.897-1.397 5.5 5.5 0 0 0-1.224-.988c-.45-.27-.885-.515-1.309-.719a6.4 6.4 0 0 0-1.113-.379l-.338-.095c-.225-.054-.534-.12-.934-.215-.1-.014-.227-.041-.377-.055a2.3 2.3 0 0 1-.435-.095 1.3 1.3 0 0 1-.377-.163.3.3 0 0 1-.149-.27c.013-.257.112-.473.325-.622a2.1 2.1 0 0 1 .736-.326c.275-.068.564-.096.852-.096.3 0 .535.016.722.043.6.095 1.122.214 1.584.39.45.177.949.38 1.498.637l1.225-5.16a9.7 9.7 0 0 0-2.385-.719 12.7 12.7 0 0 0-2.584-.134M30.133 36 25 36.387v8.918c0 1.197.386 2.113 1.143 2.744.756.63 1.737.951 2.968.951.935 0 1.75-.168 2.448-.49.697-.322 1.2-.875 1.527-1.66h.047v1.957l4.496-.168L38 36l-5.035.387.148 7.879c.015.347-.088.579-.281.72-.208.142-1.064.22-1.39.22-.401 0-1.013-.077-1.206-.231-.193-.142-.268-.386-.254-.721zm17.049 4.002c.287.026.561.102.798.219.238.116.451.273.614.467a1.7 1.7 0 0 1 .336.671 1.8 1.8 0 0 1-.227 1.498c-.15.22-.335.425-.572.606-.237.18-.515.322-.852.412a2.4 2.4 0 0 1-.935.117 2.05 2.05 0 0 1-.824-.205 1.8 1.8 0 0 1-.6-.453 1.64 1.64 0 0 1-.35-.672 1.8 1.8 0 0 1-.05-.773c.037-.246.139-.492.289-.725.137-.22.335-.425.572-.62.237-.18.527-.32.851-.411.338-.104.65-.144.95-.131" style="opacity:.2"/><path d="M44.768 29 40 29.416l.125 18.418h3.266v-.984c.475.277.99.541 1.552.777.564.25 1.153.373 1.791.373a6.1 6.1 0 0 0 4.406-1.842c.576-.596 1.039-1.345 1.39-2.232.648-1.685.572-3.38.099-4.549a7.6 7.6 0 0 0-1.188-2.203 6.3 6.3 0 0 0-1.79-1.567 4.45 4.45 0 0 0-2.28-.597c-.638 0-1.15.099-1.55.28q-.6.27-1.239.665zm-27.354.016a8.4 8.4 0 0 0-2.633.527 6.5 6.5 0 0 0-2.16 1.314 6.1 6.1 0 0 0-1.46 2.086c-.363.813-.524 1.734-.499 2.778q.019.914.336 1.625c.212.474.488.88.813 1.232a5 5 0 0 0 1.06.924c.387.257.787.472 1.174.648s.737.327 1.074.422c.337.109.597.19.809.244q.47.203.826.405a.68.68 0 0 1 .348.584c.012.393-.149.663-.498.826-.35.162-.776.258-1.288.285a3.4 3.4 0 0 1-1.048-.11c-.362-.094-.699-.19-1.036-.312a8 8 0 0 1-.921-.392 7 7 0 0 0-.75-.34L10 46.547c.412.203.86.408 1.322.584.462.19.948.35 1.448.486.486.136.986.23 1.498.297a9 9 0 0 0 1.472.082 10.2 10.2 0 0 0 2.936-.53c.911-.31 1.685-.743 2.334-1.298a5.7 5.7 0 0 0 1.51-2.047c.362-.813.512-1.748.474-2.805-.025-.745-.163-1.395-.4-1.937a5 5 0 0 0-.897-1.397 5.5 5.5 0 0 0-1.224-.988c-.45-.27-.885-.515-1.309-.719a6.4 6.4 0 0 0-1.113-.379l-.338-.095c-.225-.054-.534-.12-.934-.215-.1-.014-.227-.041-.377-.055a2.3 2.3 0 0 1-.435-.095 1.3 1.3 0 0 1-.377-.163.3.3 0 0 1-.149-.27c.013-.257.112-.473.325-.622a2.1 2.1 0 0 1 .736-.326c.275-.068.564-.096.852-.096.3 0 .535.016.722.043.6.095 1.122.214 1.584.39.45.177.949.38 1.498.637l1.225-5.16a9.7 9.7 0 0 0-2.385-.719 12.7 12.7 0 0 0-2.584-.134M30.133 35 25 35.387v8.918c0 1.197.386 2.113 1.143 2.744.756.63 1.737.951 2.968.951.935 0 1.75-.168 2.448-.49.697-.322 1.2-.875 1.527-1.66h.047v1.957l4.496-.168L38 35l-5.035.387.148 7.879c.015.347-.088.579-.281.72-.208.142-1.064.22-1.39.22-.401 0-1.013-.077-1.206-.231-.193-.142-.268-.386-.254-.721zm17.049 4.002c.287.026.561.102.798.219.238.116.451.273.614.467a1.7 1.7 0 0 1 .336.671 1.8 1.8 0 0 1-.227 1.498c-.15.22-.335.425-.572.606-.237.18-.515.322-.852.412a2.4 2.4 0 0 1-.935.117 2.05 2.05 0 0 1-.824-.205 1.8 1.8 0 0 1-.6-.453 1.64 1.64 0 0 1-.35-.672 1.8 1.8 0 0 1-.05-.773c.037-.246.139-.492.289-.725.137-.22.335-.425.572-.62.237-.18.527-.32.851-.411.338-.104.65-.144.95-.131" style="fill:#ff9121"/><path d="M5.068 7A3.06 3.06 0 0 0 2 10.063v1A3.06 3.06 0 0 1 5.068 8h53.864C60.632 8 62 9.366 62 11.063v-1A3.06 3.06 0 0 0 58.932 7z" style="fill:#fff;opacity:.1"/><path d="M44.768 29 40 29.416l.006 1 4.734-.414zm-27.354.016a8.4 8.4 0 0 0-2.633.527 6.5 6.5 0 0 0-2.16 1.314 6.1 6.1 0 0 0-1.46 2.086c-.363.813-.524 1.734-.499 2.778.002.069.018.128.022.195.055-.72.21-1.376.476-1.973a6.1 6.1 0 0 1 1.461-2.086 6.5 6.5 0 0 1 2.16-1.314 8.4 8.4 0 0 1 2.633-.527 12.7 12.7 0 0 1 2.584.134 10 10 0 0 1 2.166.637l.219-.918a9.7 9.7 0 0 0-2.385-.719 12.7 12.7 0 0 0-2.584-.134M30.133 35 25 35.387v1l5.115-.385zM38 35l-5.035.387.02.998 4.986-.383zm9.371.01c-.638 0-1.15.099-1.55.28-.393.175-.796.396-1.212.651l-.027 1.014q.639-.395 1.238-.666c.4-.18.913-.28 1.551-.28a4.46 4.46 0 0 1 2.28.598 6.3 6.3 0 0 1 1.79 1.567c.514.651.9 1.385 1.188 2.203.18.446.303.969.35 1.537.069-.956-.068-1.84-.35-2.537a7.6 7.6 0 0 0-1.188-2.203 6.3 6.3 0 0 0-1.79-1.567 4.45 4.45 0 0 0-2.28-.597m-31.574.353-.031.018c-.213.149-.312.365-.325.623 0 .122.049.202.149.27q.151.1.377.162c.137.04.286.082.435.095.15.014.277.041.377.055.4.095.71.16.934.215l.338.095a6.4 6.4 0 0 1 1.113.38c.424.203.86.447 1.309.718s.862.596 1.224.988c.362.393.66.855.897 1.397.22.504.345 1.11.383 1.79.019-.275.028-.558.017-.853-.025-.745-.163-1.395-.4-1.937a5 5 0 0 0-.897-1.397 5.5 5.5 0 0 0-1.224-.988c-.45-.27-.885-.515-1.309-.719a6.4 6.4 0 0 0-1.113-.379l-.338-.095c-.225-.054-.534-.12-.934-.215-.1-.014-.227-.041-.377-.055a2.3 2.3 0 0 1-.435-.095c-.068-.019-.112-.049-.17-.073m33.127 5.98a2 2 0 0 1-.22.514 2.6 2.6 0 0 1-.573.606c-.237.18-.515.322-.852.412a2.4 2.4 0 0 1-.935.117 2.05 2.05 0 0 1-.824-.205 1.8 1.8 0 0 1-.6-.453 1.64 1.64 0 0 1-.342-.654c-.02.07-.048.139-.058.209-.038.258-.025.515.05.773.063.258.188.478.35.672s.362.337.6.453c.237.116.512.192.824.205q.449.038.935-.117c.337-.09.615-.231.852-.412s.422-.386.572-.606a1.8 1.8 0 0 0 .227-1.498zm-37.363.419L10 46.547c.089.044.193.081.285.125l1.276-3.91c.212.081.462.19.75.34.287.149.584.27.921.392s.674.218 1.036.313c.35.094.699.123 1.048.109.512-.027.938-.123 1.288-.285.349-.163.51-.433.498-.826a.67.67 0 0 0-.18-.422.9.9 0 0 1-.318.248c-.35.162-.776.258-1.288.285a3.4 3.4 0 0 1-1.048-.11c-.362-.094-.699-.19-1.036-.312a8 8 0 0 1-.921-.392 7 7 0 0 0-.75-.34m21.535 1.62c-.014.275-.097.482-.264.604-.208.142-1.064.22-1.39.22-.401 0-1.013-.077-1.206-.231-.162-.12-.225-.326-.238-.582l-.016.86c-.014.336.061.58.254.722.193.154.805.23 1.205.23.327 0 1.183-.077 1.391-.219.193-.141.296-.373.281-.72z" style="fill:#fff;opacity:.2"/><path d="M8 13h48v1H8z" style="opacity:.1"/><path d="M8 50h48v1H8z" style="opacity:.1;fill:#fff"/></svg>