<svg xmlns="http://www.w3.org/2000/svg" width="64" height="64"><rect width="56" height="56" x="4.199" y="5" rx="2.8" ry="2.8" style="opacity:.2"/><rect width="56" height="56" x="4.199" y="4" rx="2.8" ry="2.8" style="fill:#811623"/><path d="M6.8 5C5.25 5 4 6.25 4 7.8v27.4L20.8 32l6 9-10.833 20h41.232c.77 0 1.466-.309 1.97-.809L37.802 38l3-11L60 17.818V7.801A2.796 2.796 0 0 0 57.2 5H42l-7.2 16-10 3L8.28 5z" style="opacity:.2"/><path d="M7 4C5.449 4 4.2 5.25 4.2 6.8v27.4L21 31l6 9-10.834 20h41.232c.77 0 1.466-.309 1.971-.809L38 37l3-11 19.2-9.182V6.801A2.796 2.796 0 0 0 57.397 4H42.2L35 20l-10 3L8.479 4z" style="fill:#581118"/><path d="M7 4C5.449 4 4.2 5.25 4.2 6.8v1C4.2 6.25 5.448 5 7 5h50.398A2.796 2.796 0 0 1 60.2 7.8v-1c0-1.55-1.25-2.8-2.8-2.8z" style="opacity:.1;fill:#fff"/><path d="m42 5-3 7 15 11-8 24-25 4-10-15 8.809-18L15 12.508 4.2 36.557v.785L18 61l35-7 7.2-20.29V19.89zm-7 16-10 3-4 8 6 9 11-3 3-11zm0 3 3 3-2 9-8 2-4-6 3-6z" style="opacity:.2"/><path d="m42 4-3 7 15 11-8 24-25 4-10-15 8.809-18L15 11.508 4.2 35.557v.785L18 60l35-7 7.2-20.29V18.89zm-7 16-10 3-4 8 6 9 11-3 3-11zm0 3 3 3-2 9-8 2-4-6 3-6z" style="fill:#d12b43"/></svg>