<svg xmlns="http://www.w3.org/2000/svg" width="64" height="64"><circle cx="32" cy="33" r="28" style="opacity:.2"/><circle cx="32" cy="32" r="28" style="fill:#ffbc66"/><path d="M46.72 45.287c-3.497-1.448-6.238-3.599-8.26-6.481-3.3-4.703-5.69-11.324-6.427-18.632a23 23 0 0 0-.123-1.087c-.008-.008-.065.503-.127 1.136-1.283 7.509-2.845 14.025-7.662 19.833-1.894 2.243-4.353 4.012-7.208 5.186l-.573.236-.14-.178c-1.06-1.342-2.333-3.61-2.922-5.211-1.845-5.017-1.689-10.35.445-15.163a20.05 20.05 0 0 1 13.671-11.342c1.962-.464 4.219-.645 6.056-.487 2.765.239 4.988.852 7.403 2.041a19.93 19.93 0 0 1 9.02 8.936c1.549 3.077 2.294 6.639 2.095 10.012-.204 3.465-1.204 6.643-2.996 9.517-.46.738-1.383 2.003-1.457 1.997a14 14 0 0 1-.795-.313M31.374 18.803c.355-.055.618-.054 1.104.009.773.098.857.057.636-.308-.36-.598-.524-1.048-.656-1.797-.075-.426-.182-.87-.237-.987-.14-.296-.334-.345-.518-.13-.14.162-.21.416-.442 1.63a2.6 2.6 0 0 1-.395 1.001c-.417.682-.382.722.508.583z" style="opacity:.1"/><path d="M46.72 44.287c-3.497-1.448-6.238-3.599-8.26-6.481-3.3-4.703-5.69-11.324-6.427-18.632a23 23 0 0 0-.123-1.087c-.008-.008-.065.503-.127 1.136-1.283 7.509-2.845 14.025-7.662 19.833-1.894 2.243-4.353 4.012-7.208 5.186l-.573.236-.14-.178c-1.06-1.342-2.333-3.61-2.922-5.211-1.845-5.017-1.689-10.35.445-15.163a20.05 20.05 0 0 1 13.671-11.342c1.962-.464 4.219-.645 6.056-.487 2.765.239 4.988.852 7.403 2.041a19.93 19.93 0 0 1 9.02 8.936c1.549 3.077 2.294 6.639 2.095 10.012-.204 3.465-1.204 6.643-2.996 9.517-.46.738-1.383 2.003-1.457 1.997a14 14 0 0 1-.795-.313M31.374 17.803c.355-.055.618-.054 1.104.009.773.098.857.057.636-.308-.36-.598-.524-1.048-.656-1.797-.075-.426-.182-.87-.237-.987-.14-.296-.334-.345-.518-.13-.14.162-.21.416-.442 1.63a2.6 2.6 0 0 1-.395 1.001c-.417.682-.382.722.508.583z" style="fill:#ed3312"/><path d="M32 4A28 28 0 0 0 4 32a28 28 0 0 0 .033.482A28 28 0 0 1 32 5a28 28 0 0 1 27.982 27.242L60 32A28 28 0 0 0 32 4" style="opacity:.2;fill:#fff"/></svg>