<svg xmlns="http://www.w3.org/2000/svg" width="64" height="64"><circle cx="32" cy="33" r="28" style="opacity:.2"/><path d="M57.748 32.564c0 15.468-10.141 25.605-25.615 25.605-4.428 0-8.73.804-12.453-1.024C10.393 52.585 4 43.035 4 31.992c0-11.648 7.113-21.635 17.233-25.858 3.32-1.385 6.849-.09 10.671-.09 15.474 0 25.844 11.051 25.844 26.52" style="fill:#3a8eed"/><path d="M56.637 18.746c.223.415.429.838.633 1.262q-.105-.24-.215-.477c-.05-.102-.094-.207-.145-.308q-.134-.24-.273-.477m1.3 2.75c.073.18.15.358.22.54q-.051-.134-.098-.266-.06-.138-.122-.274m.801 2.293c.112.363.227.727.324 1.094l-.042-.192-.09-.332q-.093-.285-.192-.57m.785 3.14c.026.143.059.284.082.426l-.046-.277zm.43 3.762L56 33.7 52 31c-5.791-.502-7.099.692-7.027 2.5l1.605-.828s-9.245 8.97-22.555 18.277l-4.015 2.489-.016 3.746s-.016.026.676.37q.177.079.355.153v.016l-.046-.02c.148.072.09.052.293.148l-.07-.07c.14.057.28.123.421.18q.18.074.36.144-.336-.117-.669-.242c.253.103.51.19.766.285a28 28 0 0 0 .961.352c.273.09.552.164.828.246q-.531-.164-1.058-.344.913.323 1.847.582c.106.03.214.05.32.078l.11.028q-.042-.011-.082-.024 1.172.304 2.367.504l-.191-.027.472.082q.476.08.953.145c.154.019.308.03.461.046-.239-.027-.48-.068-.718-.101q.723.097 1.453.156 1.255.092 2.515.078v.04a28 28 0 0 0 2.434-.153v-.02a28.4 28.4 0 0 0 5.64-1.136l.286-.094c.55-.178 1.1-.364 1.64-.578q.036-.011.07-.024l.016-.007c.958-.453 1.92-.91 2.918-1.38a28 28 0 0 0 1.344-.769c.134-.082.271-.163.402-.25l.024-.016.336-.21a28 28 0 0 0 1.566-1.122q.175-.131.348-.265l.27-.211a28 28 0 0 0 1.632-1.434q.204-.187.403-.379a28 28 0 0 0 1.609-1.73q.122-.14.242-.281a28 28 0 0 0 1.512-1.989l.16-.226a28 28 0 0 0 1.312-2.137q.07-.119.137-.238a28 28 0 0 0 1.14-2.375l.048-.102a28 28 0 0 0 1.605-5.176c.022-.102.038-.205.059-.308a28 28 0 0 0 .52-5.11 29 29 0 0 0-.036-1.578m-30.152 29.18c-.152-.011-.305-.013-.457-.027q.205.023.41.043 1.091.097 2.187.11l.079.003.195-.008a28 28 0 0 1-2.414-.12m-4.715-.781q.952.247 1.918.426l-.442-.082a27 27 0 0 1-1.476-.344m-.43-.106c-.265-.07-.526-.16-.789-.238.063.02.125.044.188.063q.3.091.601.175" style="fill:#f14f4f"/><path d="M32.055 4.004c-.358 0-.717.017-1.075.031a28 28 0 0 0-.777.027c-.21.015-.42.042-.629.063a28 28 0 0 0-9.734 2.68L24 9.585v5.602l4.941.543-1.457 2.415 14.485 8.644 6.351 8.074L51.633 31 56 33.7l3.953-3.048a28 28 0 0 0-.023-.632 28 28 0 0 0-.32-2.653l-.055-.3a28 28 0 0 0-.535-2.387l-.086-.309a28 28 0 0 0-.778-2.34l-.093-.254a28 28 0 0 0-.989-2.207c-.057-.114-.105-.233-.164-.347a28 28 0 0 0-1.347-2.352 28 28 0 0 0-1.512-2.113c-.178-.227-.37-.443-.555-.664a28 28 0 0 0-1.14-1.297c-.541-.52-1.094-1.055-1.649-1.59a28 28 0 0 0-5.281-3.781 28 28 0 0 0-2.524-1.215 28 28 0 0 0-2.59-.945l-.035-.012-.117-.031a28 28 0 0 0-2.574-.657c-.008-.001-.015-.006-.023-.007l-.106-.016a28 28 0 0 0-2.496-.379l-.328-.031a28 28 0 0 0-2.578-.13" style="fill:#ffd32c"/><circle cx="32" cy="33" r="20" style="opacity:.2"/><path d="M20.748 7.412c-.303.13-.61.25-.908.392L24 10.586v-1zm39.143 23.287-3.891 3-4.367-2.898v1L56 34.699l3.953-3.047a28 28 0 0 0-.023-.633c-.01-.107-.028-.213-.04-.32" style="opacity:.2"/><circle cx="32" cy="32" r="20" style="fill:#fff"/><path d="M52 31 24 51V13Z" style="fill:#ff7d2c"/><path d="M24 13v1l27.264 17.525L52 31z" style="opacity:.2"/><path d="M32 4A28 28 0 0 0 4 32a28 28 0 0 0 .018.492A28 28 0 0 1 32 5a28 28 0 0 1 27.975 27.492A28 28 0 0 0 60 32 28 28 0 0 0 32 4" style="opacity:.2;fill:#fff"/><path d="m23.678 51.164-3.67 2.274-.016 3.746.004.002.012-2.748 4.015-2.489c.191-.133.36-.263.55-.396a20 20 0 0 1-.895-.389" style="opacity:.2"/></svg>