<svg xmlns="http://www.w3.org/2000/svg" width="64" height="64"><path d="M32.156 4.004a6.6 6.6 0 0 0-3.453.88L9.298 16.085A6.6 6.6 0 0 0 6 21.796v22.407a6.6 6.6 0 0 0 3.297 5.71l19.405 11.204a6.6 6.6 0 0 0 6.595 0l19.405-11.203A6.6 6.6 0 0 0 58 44.202V21.796a6.6 6.6 0 0 0-3.298-5.711L35.297 4.883a6.6 6.6 0 0 0-3.141-.88Z" style="opacity:.2"/><path d="M32.156 3.002a6.6 6.6 0 0 0-3.453.883L9.297 15.087A6.6 6.6 0 0 0 6 20.798v22.406a6.6 6.6 0 0 0 1.54 4.226L32 27.65l24.457 19.78A6.6 6.6 0 0 0 58 43.204V20.798a6.6 6.6 0 0 0-3.297-5.715L35.297 3.885a6.6 6.6 0 0 0-3.14-.883M7.54 47.43a7 7 0 0 0 .445.485 7 7 0 0 1-.445-.485m.445.485a7 7 0 0 0 .395.351 7 7 0 0 1-.395-.351m48.465-.473a6.6 6.6 0 0 1-1.191 1.113 6.6 6.6 0 0 0 1.191-1.113M31.187 60.949a6.6 6.6 0 0 0 1.317.032 6.6 6.6 0 0 1-1.317-.032" style="fill:#0073d6"/><path d="M32.156 3.002a6.6 6.6 0 0 0-3.453.883L9.297 15.088A6.6 6.6 0 0 0 6 20.798v1a6.6 6.6 0 0 1 3.297-5.71L28.703 4.885a6.6 6.6 0 0 1 3.453-.883 6.6 6.6 0 0 1 3.14.883l19.407 11.199A6.6 6.6 0 0 1 58 21.799v-1a6.6 6.6 0 0 0-3.297-5.715l-19.406-11.2a6.6 6.6 0 0 0-3.14-.882" style="opacity:.1;fill:#fff"/><path d="M32 3.006a6.6 6.6 0 0 0-3.297.875L9.297 15.087A6.6 6.6 0 0 0 6 20.798v22.406a6.6 6.6 0 0 0 1.54 4.226L32 27.65ZM7.54 47.43a7 7 0 0 0 .444.485 7 7 0 0 1-.445-.485m.444.485a7 7 0 0 0 .395.351 7 7 0 0 1-.395-.351" style="opacity:.3"/><path d="M32 27.65 7.538 47.433a6.6 6.6 0 0 0 1.76 1.481l19.404 11.203a6.6 6.6 0 0 0 6.596 0l19.405-11.203a6.6 6.6 0 0 0 1.755-1.484z" style="fill:#ff9e43"/><path d="m23.599 12.424 10.392 6v12l-10.392 6-10.393-6v-12z" style="opacity:.1" transform="matrix(1.50111 0 0 1.46722 -3.424 -3.249)"/><path d="M32 27.65 7.54 47.43a7 7 0 0 0 .538.564L32 28.648l23.918 19.346a7 7 0 0 0 .539-.564z" style="opacity:.2;fill:#fff"/><path d="m23.599 12.424 10.392 6v12l-10.392 6-10.393-6v-12z" style="fill:#f13f3f" transform="matrix(1.50111 0 0 1.46722 -3.424 -4.248)"/><path d="M47.6 22.783 32 31.587v17.606l15.6-8.803Z" style="opacity:.3"/><path d="M16.4 22.783V40.39L32 49.193V31.587z" style="opacity:.1"/><path d="m32 13.982-15.602 8.801.885.498L32 14.982l14.717 8.3.885-.499z" style="opacity:.2;fill:#fff"/><path d="M16.398 22.783v1L32 32.586l15.602-8.803v-1L32 31.588Z" style="opacity:.1"/></svg>