<svg xmlns="http://www.w3.org/2000/svg" width="64" height="64"><path d="M6.8 4A2.8 2.8 0 0 0 4 6.81V56h56V6.81A2.8 2.8 0 0 0 57.2 4Z" style="fill:#9f6c2c"/><path d="M4 11v20h3v-7h8v7h3v-7h13v7h3v-7h26V11H7Zm3 3h8v7H7Zm11 0h13v7H18Zm16 0h12v7H34Zm15 0h8v7h-8z" style="opacity:.2"/><path d="M4 34.64h17v25.364H4z" style="fill:#dc912f"/><path d="M4 36h17v8H4z" style="opacity:.4;fill:#fff"/><path d="M4 44h17v8H4z" style="opacity:.2;fill:#fff"/><circle cx="12.5" cy="39.5" r="1.5" style="fill:#fff"/><path d="M4 10v20h3v-7h8v7h3v-7h13v7h3v-7h26V10H7Zm3 3h8v7H7Zm11 0h13v7H18Zm16 0h12v7H34Zm15 0h8v7h-8z" style="fill:#eabd82"/><circle cx="12.5" cy="47.5" r="1.5" style="fill:#fff"/><circle cx="12.5" cy="55.5" r="1.5" style="fill:#fff"/><path d="M43 34.64h17v25.364H43z" style="fill:#dc912f"/><path d="M43 36h17v8H43z" style="opacity:.4;fill:#fff"/><path d="M43 44h17v8H43z" style="opacity:.2;fill:#fff"/><circle cx="51.5" cy="39.5" r="1.5" style="fill:#fff"/><circle cx="51.5" cy="47.5" r="1.5" style="fill:#fff"/><circle cx="51.5" cy="55.5" r="1.5" style="fill:#fff"/><path d="M4 44h17v1H4zm0 8h17v1H4zm0 8h17v1H4zm17-4h22v1H21zm22-12h17v1H43zm0 8h17v1H43zm0 8h17v1H43z" style="opacity:.2"/><rect width="62" height="6" x="1" y="31" rx="1.409" ry="1.5" style="opacity:.1"/><rect width="62" height="6" x="1" y="30" rx="1.409" ry="1.5" style="fill:#dc912f"/><path d="M2.408 30C1.628 30 1 30.669 1 31.5v1c0-.831.628-1.5 1.408-1.5h59.184c.78 0 1.408.669 1.408 1.5v-1c0-.831-.628-1.5-1.408-1.5z" style="opacity:.2;fill:#fff"/><path d="M6.8 4A2.8 2.8 0 0 0 4 6.81v1A2.8 2.8 0 0 1 6.8 5h50.4A2.8 2.8 0 0 1 60 7.81v-1A2.8 2.8 0 0 0 57.2 4z" style="fill:#fff;opacity:.1"/></svg>