<svg xmlns="http://www.w3.org/2000/svg" width="64" height="64"><path d="M4 56v2c0 1.662 1.338 3 3 3h50c1.662 0 3-1.338 3-3v-2c0 1.662-1.338 3-3 3H7c-1.662 0-3-1.338-3-3" style="opacity:.2"/><path d="M32 4H7C5.338 4 4 5.338 4 7v25h28z" style="fill:#f2ae37"/><path d="M32 4h25c1.662 0 3 1.338 3 3v25H32zm0 56H7c-1.662 0-3-1.338-3-3V32h28z" style="fill:#4785e2"/><path d="M32 60h25c1.662 0 3-1.338 3-3V32H32z" style="fill:#77e247"/><path d="M7 4C5.338 4 4 5.338 4 7v1c0-1.662 1.338-3 3-3h50c1.662 0 3 1.338 3 3V7c0-1.662-1.338-3-3-3z" style="opacity:.1;fill:#fff"/><path d="m18 8 3.09 6.584L28 15.64l-5 5.124L24.18 28 18 24.584 11.82 28 13 20.764 8 15.64l6.91-1.056z" style="fill:#3f3f3f"/><circle cx="46" cy="18" r="10" style="fill:#3f3f3f"/><path d="M36 36h20v20H36z" style="fill:#3f3f3f"/><circle cx="18" cy="46" r="10" style="fill:#3f3f3f"/></svg>