<svg xmlns="http://www.w3.org/2000/svg" width="64" height="64"><circle cx="32" cy="33" r="29" style="opacity:.2"/><circle cx="32" cy="32" r="29" style="fill:#dc587f"/><path d="M32 11a21 21 0 0 0-21 21 21 21 0 0 0 .243 3h35.452A15 15 0 0 1 32 47a15 15 0 0 1-11.982-6h-6.964A21 21 0 0 0 32 53a21 21 0 0 0 21-21 21 21 0 0 0-.243-3H17.305A15 15 0 0 1 32 17a15 15 0 0 1 11.982 6h6.964A21 21 0 0 0 32 11" style="opacity:.2"/><path d="M28 22v11h-5l9 11 9-11h-5V22Z" style="opacity:.2"/><path d="M28 21h8v14h-8z" style="fill:#fff"/><path d="M-6.606 28.755 4.211 35l-10.817 6.245Z" style="fill:#fff" transform="matrix(1.24808 -.50848 .72058 .8807 10.524 3.317)"/><path d="M32 3A29 29 0 0 0 3 32a29 29 0 0 0 .018.488A29 29 0 0 1 32 4a29 29 0 0 1 28.975 28.494A29 29 0 0 0 61 32 29 29 0 0 0 32 3" style="opacity:.2;fill:#fff"/></svg>