<svg xmlns="http://www.w3.org/2000/svg" width="64" height="64"><circle cx="32" cy="33" r="28" style="opacity:.2"/><path d="M32 4a28 28 0 0 1 28 28H32Z" style="fill:#196260"/><path d="M32 60A28 28 0 0 1 4 32h28z" style="fill:#97c33d"/><path d="M32 4A28 28 0 0 0 4 32h28z" style="fill:#5d7dbd"/><path d="M32 60a28 28 0 0 0 28-28H32Z" style="fill:#3f96b9"/><path d="m4 32 5 4 5-4Z" style="fill:#5d7dbd"/><path d="m60 32-5-4-5 4Z" style="fill:#3f96b9"/><path d="m32 60 4-5-4-5Z" style="fill:#97c33d"/><path d="m32 4-4 5 4 5Z" style="fill:#196260"/><circle cx="32" cy="33" r="18" style="opacity:.2"/><circle cx="32" cy="32" r="18" style="fill:#f9f9f9"/><path d="M32 4A28 28 0 0 0 4 32a28 28 0 0 0 .018.492A28 28 0 0 1 32 5a28 28 0 0 1 27.975 27.492A28 28 0 0 0 60 32 28 28 0 0 0 32 4" style="opacity:.1;fill:#fff"/></svg>