<svg xmlns="http://www.w3.org/2000/svg" width="64" height="64"><rect width="36" height="44" x="24" y="11" rx="2.118" ry="2.2" style="opacity:.2"/><rect width="42" height="50" x="14" y="8" rx="2.471" ry="2.5" style="opacity:.2"/><rect width="48" height="56" x="4" y="5" rx="2.824" ry="2.8" style="opacity:.2"/><rect width="36" height="44" x="24" y="10" rx="2.118" ry="2.2" style="fill:#3057c5"/><rect width="42" height="50" x="14" y="7" rx="2.471" ry="2.5" style="fill:#14a4f2"/><rect width="48" height="56" x="4" y="4" rx="2.824" ry="2.8" style="fill:#e4e4e4"/><path d="m17.87 18-4.367 5.953c.612.545 1.4 1.035 2.222 1.047h12.921c1.87-.21 2.897 1.686 2.897 1.686l3.047 4.977c.326.435.44.905.448 1.337a2.26 2.26 0 0 1-.448 1.337l-3.047 4.977S30.516 41.21 28.646 41H15.725c-.821.012-1.61.502-2.222 1.047L17.87 48h14.888c1.21 0 2.33-.64 2.943-1.68l6.83-11.591a3.41 3.41 0 0 0-.001-3.458l-6.829-11.59A3.42 3.42 0 0 0 32.758 18Z" style="opacity:.1"/><path d="m17.87 17-4.367 5.953c.612.545 1.4 1.035 2.222 1.047h12.921c1.87-.21 2.897 1.686 2.897 1.686l3.047 4.977c.326.435.44.905.448 1.337a2.26 2.26 0 0 1-.448 1.337l-3.047 4.977S30.516 40.21 28.646 40H15.725c-.821.012-1.61.502-2.222 1.047L17.87 47h14.888c1.21 0 2.33-.64 2.943-1.68l6.83-11.591a3.41 3.41 0 0 0-.001-3.458l-6.829-11.59A3.42 3.42 0 0 0 32.758 17Z" style="fill:#3188fb"/><path d="M17.87 18c-.878.208-1.155.667-1.649 1.252l-2.582 4.46c-.913 1.25-.772 1.482-.054 2.733L17.888 33l-4.303 6.555c-.718 1.25-.859 1.484.054 2.732l2.582 4.461c.494.585.771 1.044 1.649 1.252.221-.104-1.052-.814-.275-1.715l7-11.591c.3-.524.448-1.108.448-1.694s-.148-1.17-.448-1.694l-7-11.59c-.777-.902.496-1.612.275-1.716" style="opacity:.1"/><path d="M17.87 17c-.878.208-1.155.667-1.649 1.252l-2.582 4.46c-.913 1.25-.772 1.482-.054 2.733L17.888 32l-4.303 6.555c-.718 1.25-.859 1.484.054 2.732l2.582 4.461c.494.585.771 1.044 1.649 1.252.221-.104-1.052-.814-.275-1.715l7-11.591c.3-.524.448-1.108.448-1.694s-.148-1.17-.448-1.694l-7-11.59c-.777-.902.496-1.612.275-1.716" style="fill:#02d5c3"/><path d="M6.824 4A2.807 2.807 0 0 0 4 6.8v1C4 6.25 5.26 5 6.824 5h42.352A2.807 2.807 0 0 1 52 7.8v-1C52 5.25 50.74 4 49.176 4z" style="fill:#fff;opacity:.2"/></svg>