<svg xmlns="http://www.w3.org/2000/svg" width="64" height="64"><circle cx="32" cy="33" r="29" style="opacity:.2"/><circle cx="32" cy="32" r="29" style="fill:#007ad2"/><path d="M32 16a17 17 0 0 0-17 17 17 17 0 0 0 17 17 17 17 0 0 0 11.004-4.055L43 46a4 4 0 0 0 4 4 4 4 0 0 0 4-4 4 4 0 0 0-4-4 4 4 0 0 0-.621.05A17 17 0 0 0 49 33a17 17 0 0 0-17-17m0 4a13 13 0 0 1 13 13 13 13 0 0 1-13 13 13 13 0 0 1-13-13 13 13 0 0 1 13-13m-3 4v6h-6v6h6v6h6v-6h6v-6h-6v-6z" style="opacity:.2"/><path d="M32 15a17 17 0 0 0-17 17 17 17 0 0 0 17 17 17 17 0 0 0 17-17 17 17 0 0 0-17-17m0 4a13 13 0 0 1 13 13 13 13 0 0 1-13 13 13 13 0 0 1-13-13 13 13 0 0 1 13-13" style="fill:#fff"/><path d="M29 23h6v18h-6z" style="fill:#fff"/><circle cx="47" cy="45" r="4" style="fill:#fff"/><path d="M29-41h6v18h-6z" style="fill:#fff" transform="rotate(90)"/><path d="M32 3A29 29 0 0 0 3 32a29 29 0 0 0 .033.482A29 29 0 0 1 32 4a29 29 0 0 1 28.982 28.229L61 32A29 29 0 0 0 32 3" style="opacity:.1;fill:#fff"/></svg>