<svg xmlns="http://www.w3.org/2000/svg" xmlns:xlink="http://www.w3.org/1999/xlink" width="64" height="64"><defs><radialGradient xlink:href="#a" id="b" cx="49.435" cy="8.136" r="28" fx="49.435" fy="8.136" gradientTransform="rotate(210 111.572 31.197)scale(3.41748)" gradientUnits="userSpaceOnUse"/><linearGradient id="a"><stop offset="0" style="stop-color:#705747;stop-opacity:1"/><stop offset="1" style="stop-color:#362f2b;stop-opacity:1"/></linearGradient><filter id="c" width="1.135" height="1.135" x="-.068" y="-.068" style="color-interpolation-filters:sRGB"><feGaussianBlur stdDeviation="1.534"/></filter></defs><circle cx="32" cy="32" r="28" style="fill:url(#b)"/><path d="M44.648 7.05 33.57 28.07q-.193.338-.363.684l-.059.11.004.003c-2.011 4.255-1.367 9.369 1.766 12.989A12.015 12.015 0 0 0 48.79 45a12.02 12.02 0 0 0 7.14-12.305 12.02 12.02 0 0 0-9.624-10.48 2 2 0 0 0-.395-.04c-2.435-.007-2.769 3.52-.375 3.97a7.985 7.985 0 0 1 6.414 6.984c.38 3.49-1.54 6.8-4.758 8.203a7.99 7.99 0 0 1-9.25-2.098 7.99 7.99 0 0 1-.75-9.453 2 2 0 0 0 .196-.367L48.09 9.105a28 28 0 0 0-3.442-2.054M8 22a2 2 0 0 0-1.664 3.11l4 6a2 2 0 1 0 3.328-2.22L11.738 26h12.907L11.262 50.766a28 28 0 0 0 2.988 2.87L29.762 24.95A2 2 0 0 0 28 22Z" style="fill:#fff"/><path d="M35.656 50C34.74 50 34 50.884 34 51.98v.04c0 1.096.74 1.98 1.656 1.98h13.657a28 28 0 0 0 4.132-4z" style="fill:#faa41a"/><g style="stroke:#000;stroke-width:.2;stroke-dasharray:none;stroke-opacity:1;filter:url(#c)" transform="translate(69.71 15.073)"><circle cx="-37.71" cy="16.927" r="28" style="fill:none;stroke:#000;stroke-width:.2;stroke-dasharray:none;stroke-opacity:1"/><path d="m-25.061-8.022-11.078 21.02q-.193.338-.364.683l-.058.11.004.004c-2.012 4.254-1.367 9.368 1.765 12.988a12.015 12.015 0 0 0 13.872 3.144 12.02 12.02 0 0 0 7.14-12.304 12.02 12.02 0 0 0-9.625-10.48 2 2 0 0 0-.394-.04c-2.436-.008-2.77 3.52-.375 3.969a7.985 7.985 0 0 1 6.414 6.984 7.99 7.99 0 0 1-4.758 8.204 7.99 7.99 0 0 1-9.25-2.098 7.99 7.99 0 0 1-.75-9.453 2 2 0 0 0 .195-.367l10.703-20.31a28 28 0 0 0-3.441-2.054zM-61.71 6.928a2 2 0 0 0-1.664 3.109l4 6a2 2 0 1 0 3.328-2.219l-1.925-2.89h12.906l-13.383 24.765a28 28 0 0 0 2.988 2.871l15.512-28.687a2 2 0 0 0-1.762-2.95zm27.657 27.999c-.917 0-1.657.885-1.657 1.98v.04c0 1.096.74 1.98 1.657 1.98h13.656a28 28 0 0 0 4.133-4z" style="fill:none;stroke:#000;stroke-width:.2;stroke-dasharray:none;stroke-opacity:1"/></g></svg>