<svg xmlns="http://www.w3.org/2000/svg" xmlns:xlink="http://www.w3.org/1999/xlink" width="64" height="64"><defs><radialGradient xlink:href="#a" id="b" cx="11.778" cy="17.502" r="29" fx="11.778" fy="17.502" gradientTransform="rotate(90 58.54 11.444)scale(3.99368)" gradientUnits="userSpaceOnUse"/><linearGradient id="a"><stop offset="0" style="stop-color:#158ce4;stop-opacity:1"/><stop offset="1" style="stop-color:#5e2db7;stop-opacity:1"/></linearGradient><filter id="c" width="1.198" height="1.198" x="-.099" y="-.099" style="color-interpolation-filters:sRGB"><feGaussianBlur stdDeviation="2.129"/></filter></defs><circle cx="32" cy="32" r="26.597" style="fill:url(#b);stroke-width:.91714"/><path d="M32 12.74A19.26 19.26 0 0 0 12.74 32 19.26 19.26 0 0 0 32 51.26 19.26 19.26 0 0 0 51.26 32 19.26 19.26 0 0 0 32 12.74m0 5.503A13.757 13.757 0 0 1 45.757 32 13.757 13.757 0 0 1 32 45.757 13.757 13.757 0 0 1 18.243 32 13.757 13.757 0 0 1 32 18.243m0 8.254A5.503 5.503 0 0 0 26.497 32 5.503 5.503 0 0 0 32 37.503 5.503 5.503 0 0 0 37.503 32 5.503 5.503 0 0 0 32 26.497" style="fill:#fff;stroke-width:.91714;opacity:1"/><path d="M32 5.402A26.597 26.597 0 0 0 5.402 32 26.597 26.597 0 0 0 32 58.598 26.597 26.597 0 0 0 58.598 32 26.597 26.597 0 0 0 32 5.402zm0 7.338A19.26 19.26 0 0 1 51.26 32 19.26 19.26 0 0 1 32 51.26 19.26 19.26 0 0 1 12.74 32 19.26 19.26 0 0 1 32 12.74zm0 5.502A13.757 13.757 0 0 0 18.242 32 13.757 13.757 0 0 0 32 45.758 13.757 13.757 0 0 0 45.758 32 13.757 13.757 0 0 0 32 18.242zm0 8.256A5.503 5.503 0 0 1 37.502 32 5.503 5.503 0 0 1 32 37.502 5.503 5.503 0 0 1 26.498 32 5.503 5.503 0 0 1 32 26.498z" style="fill:none;stroke-width:.3;stroke:#000;stroke-opacity:1;stroke-dasharray:none;filter:url(#c)"/></svg>