<svg xmlns="http://www.w3.org/2000/svg" xmlns:xlink="http://www.w3.org/1999/xlink" width="64" height="64"><defs><radialGradient xlink:href="#a" id="b" cx="18.625" cy="23.394" r="29" fx="18.625" fy="23.394" gradientTransform="rotate(75 92.533 5.383)scale(3.7564 3.83313)" gradientUnits="userSpaceOnUse"/><linearGradient id="a"><stop offset="0" style="stop-color:#1aef85;stop-opacity:1"/><stop offset="1" style="stop-color:#006f54;stop-opacity:1"/></linearGradient><filter id="c" width="1.2" height="1.2" x="-.1" y="-.1" style="color-interpolation-filters:sRGB"><feGaussianBlur stdDeviation="2.141"/></filter></defs><circle cx="32" cy="32" r="26.479" style="fill:url(#b);stroke-width:.91306"/><path d="M32 12.826A19.174 19.174 0 0 0 12.826 32 19.174 19.174 0 0 0 32 51.174 19.174 19.174 0 0 0 51.174 32 19.174 19.174 0 0 0 32 12.826m0 5.478A13.696 13.696 0 0 1 45.696 32 13.696 13.696 0 0 1 32 45.696 13.696 13.696 0 0 1 18.304 32 13.696 13.696 0 0 1 32 18.304m-5.45 10.957a2.727 2.74 0 1 0 0 5.478h10.903a2.727 2.74 0 1 0 0-5.478z" style="fill:#fff;stroke-width:.91306"/><path d="M32 5.521A26.48 26.48 0 0 0 5.521 32 26.48 26.48 0 0 0 32 58.479 26.48 26.48 0 0 0 58.479 32 26.48 26.48 0 0 0 32 5.521zm0 7.305A19.174 19.174 0 0 1 51.174 32 19.174 19.174 0 0 1 32 51.174 19.174 19.174 0 0 1 12.826 32 19.174 19.174 0 0 1 32 12.826zm0 5.479A13.696 13.696 0 0 0 18.305 32 13.696 13.696 0 0 0 32 45.695 13.696 13.696 0 0 0 45.695 32 13.696 13.696 0 0 0 32 18.305zm-5.45 10.957h10.903a2.727 2.74 0 1 1 0 5.476H26.551a2.727 2.74 0 1 1 0-5.476z" style="fill:none;stroke-width:.30000001;stroke:#000;stroke-opacity:1;stroke-dasharray:none;filter:url(#c)"/></svg>