<svg xmlns="http://www.w3.org/2000/svg" xmlns:xlink="http://www.w3.org/1999/xlink" width="64" height="64"><defs><radialGradient id="a" cx="-489.368" cy="84.434" r="64.707" fx="-489.368" fy="84.434" gradientTransform="matrix(.96794 0 0 -.96305 473.646 81.005)" gradientUnits="userSpaceOnUse"><stop offset="0" style="stop-color:#ffbd00;stop-opacity:1"/><stop offset="1" style="stop-color:#ff6a15;stop-opacity:1"/></radialGradient><radialGradient xlink:href="#a" id="b" cx="9.209" cy="24.436" r="29" fx="9.209" fy="24.436" gradientTransform="rotate(90 8.699 -10.584)scale(2.13574)" gradientUnits="userSpaceOnUse"/><filter id="d" width="1.188" height="1.17" x="-.094" y="-.085" style="color-interpolation-filters:sRGB"><feGaussianBlur stdDeviation="1.426"/></filter><filter id="c" width="1.258" height="1.258" x="-.129" y="-.129" style="color-interpolation-filters:sRGB"><feGaussianBlur stdDeviation="2.656"/></filter></defs><g transform="translate(60.905 6.182)"><circle cx="-28.905" cy="25.818" r="25.293" style="fill:url(#b);stroke-width:.872162"/><circle cx="-28.905" cy="25.818" r="25.293" style="fill:none;stroke:#000;stroke-width:.3;stroke-dasharray:none;stroke-opacity:1;filter:url(#c)"/></g><path d="M32 15.318c-5.235 0-9.697 3.992-9.697 8.951v4.476h-2.114c-1.308 0-2.362.998-2.362 2.238V44.41c0 1.24 1.054 2.238 2.362 2.238h23.622c1.308 0 2.362-.998 2.362-2.238V30.983c0-1.24-1.054-2.238-2.362-2.238h-2.114V24.27c0-4.959-4.462-8.95-9.697-8.95zm0 4.476c2.617 0 5.495 2.011 5.222 4.475v4.476H26.778V24.27c0-2.48 2.605-4.475 5.222-4.475z" style="fill:#fff;fill-opacity:1;stroke:#fff;stroke-width:0;stroke-dasharray:none;stroke-opacity:1"/><path d="M32 11c-7.017 0-13 5.352-13 12v6h-2.833C14.412 29 13 30.338 13 32v18c0 1.662 1.412 3 3.167 3h31.666C49.588 53 51 51.662 51 50V32c0-1.662-1.412-3-3.167-3H45v-6c0-6.648-5.983-12-13-12Zm0 6c3.509 0 7.367 2.696 7 6v6H25v-6c0-3.324 3.491-6 7-6z" style="mix-blend-mode:normal;fill:none;fill-opacity:1;stroke:#ff1800;stroke-width:.3;stroke-dasharray:none;stroke-opacity:1;filter:url(#d)" transform="translate(8.13 7.113)scale(.74594)"/></svg>