<svg xmlns="http://www.w3.org/2000/svg" xmlns:xlink="http://www.w3.org/1999/xlink" width="64" height="64"><defs><filter id="c" width="1.221" height="1.221" x="-.111" y="-.111" style="color-interpolation-filters:sRGB"><feGaussianBlur stdDeviation="2.336"/></filter><filter id="d" width="1.149" height="1.162" x="-.074" y="-.081" style="color-interpolation-filters:sRGB"><feGaussianBlur stdDeviation="1.344"/></filter><radialGradient xlink:href="#a" id="b" cx="17.734" cy="40.681" r="29" fx="17.734" fy="40.681" gradientTransform="rotate(60 99.3 42.252)scale(2.48954)" gradientUnits="userSpaceOnUse"/><linearGradient id="a"><stop offset="0" style="stop-color:#32c4fa;stop-opacity:1"/><stop offset="1" style="stop-color:#007fff;stop-opacity:1"/></linearGradient></defs><circle cx="32" cy="32" r="25.997" style="fill:url(#b);stroke-width:.896446"/><path d="M31.078 11.02q-.925.041-1.844.164A20.94 20.94 0 0 0 16.2 18.14c-6.926 7.9-6.935 19.775-.023 27.687s18.672 9.489 27.418 3.672c3.333-2.216.012-7.22-3.32-5.004A14.946 14.946 0 0 1 20.69 41.88a14.985 14.985 0 0 1 .02-19.777 14.946 14.946 0 0 1 19.586-2.586c3.331 2.24 6.675-2.78 3.328-4.996a20.9 20.9 0 0 0-12.547-3.5M45 22.835v4.83A1.335 1.335 135 0 1 43.665 29H34a3 3 0 1 0 0 6h9.665A1.335 1.335 45 0 1 45 36.335v4.83a.638.638 25.536 0 0 1.038.496l9.668-7.808a2.38 2.38 90 0 0 0-3.706l-9.668-7.808a.638.638 154.464 0 0-1.038.496" style="fill:#fff" transform="translate(2.405 3.314)scale(.89645)"/><circle cx="32" cy="32" r="25.997" style="fill:none;stroke-width:.3;stroke:#000;stroke-opacity:1;stroke-dasharray:none;filter:url(#c)"/><path d="M31.078 11.02q-.925.041-1.844.164A20.94 20.94 0 0 0 16.2 18.14c-6.926 7.9-6.935 19.775-.023 27.687s18.672 9.489 27.418 3.672c3.333-2.216.012-7.22-3.32-5.004A14.946 14.946 0 0 1 20.69 41.88a14.985 14.985 0 0 1 .02-19.777 14.946 14.946 0 0 1 19.586-2.586c3.331 2.24 6.675-2.78 3.328-4.996a20.9 20.9 0 0 0-12.547-3.5zM45 22.835v4.83A1.335 1.335 135 0 1 43.665 29H34a3 3 0 1 0 0 6h9.665A1.335 1.335 45 0 1 45 36.335v4.83a.638.638 25.536 0 0 1.038.496l9.668-7.808a2.38 2.38 90 0 0 0-3.706l-9.668-7.808a.638.638 154.464 0 0-1.038.496Z" style="fill:none;stroke:#0036ff;stroke-opacity:1;stroke-width:.33465483;stroke-dasharray:none;filter:url(#d)" transform="translate(2.405 3.314)scale(.89645)"/></svg>