<svg xmlns="http://www.w3.org/2000/svg" xmlns:xlink="http://www.w3.org/1999/xlink" width="64" height="64"><defs><filter id="b" width="1.182" height="1.182" x="-.091" y="-.091" style="color-interpolation-filters:sRGB"><feGaussianBlur stdDeviation="1.773"/></filter><filter id="d" width="1.181" height="1.181" x="-.09" y="-.09" style="color-interpolation-filters:sRGB"><feGaussianBlur stdDeviation="1.773"/></filter><radialGradient xlink:href="#a" id="c" cx="11.326" cy="50.833" r="29" fx="11.326" fy="50.833" gradientTransform="rotate(-75 -1.553 77.926)scale(2.05772)" gradientUnits="userSpaceOnUse"/><linearGradient id="a"><stop offset="0" style="stop-color:#e74c3c;stop-opacity:1"/><stop offset="1" style="stop-color:#d01840;stop-opacity:1"/></linearGradient></defs><path d="M13.14 12.902a26.8 26.8 0 0 0-5.929 8.862A26.747 26.747 0 0 0 21.76 56.772a26.745 26.745 0 0 0 35.007-14.546A26.747 26.747 0 0 0 42.218 7.217a26.75 26.75 0 0 0-29.077 5.685m8.634 8.878a14.446 14.446 0 0 1 20.429 0 14.446 14.446 0 0 1 0 20.429 14.446 14.446 0 0 1-20.43 0 14.446 14.446 0 0 1 0-20.43" style="fill:#e4e4e4;stroke-width:1.03182"/><path d="M15.074 14.795a24.3 24.3 0 0 0-5.36 8.011 24.18 24.18 0 0 0 13.151 31.647 24.176 24.176 0 0 0 31.645-13.15A24.18 24.18 0 0 0 41.36 9.657a24.18 24.18 0 0 0-26.286 5.138Zm7.804 8.026a13.06 13.06 0 0 1 18.467 0 13.06 13.06 0 0 1 0 18.467 13.06 13.06 0 0 1-18.467 0 13.06 13.06 0 0 1 0-18.467z" style="mix-blend-mode:normal;fill:none;stroke:#000;stroke-width:.3;stroke-dasharray:none;stroke-opacity:1;filter:url(#b)" transform="translate(-3.412 -3.406)scale(1.10624)"/><path d="M10.952 10.714a27.3 27.3 0 0 0-5.738 8.347 2.526 2.502 45 0 0 1.28 3.328l11.473 5.187a2.526 2.502 45 0 0 3.318-1.247 9.9 9.9 0 0 1 2.047-2.988 9.9 9.9 0 0 1 2.987-2.034 2.526 2.502 45 0 0 1.255-3.318l-5.193-11.49a2.526 2.502 45 0 0-3.331-1.282c-2.97 1.321-5.73 3.154-8.098 5.497M5.733 42.129a2.502 2.526 45 0 0-.52 2.798 27.3 27.3 0 0 0 5.739 8.348c2.367 2.343 5.127 4.175 8.098 5.496a2.502 2.526 45 0 0 3.331-1.281L27.576 46a2.502 2.526 45 0 0-1.257-3.32 9.9 9.9 0 0 1-2.987-2.034 9.9 9.9 0 0 1-2.047-2.987 2.502 2.526 45 0 0-3.318-1.248L6.495 41.599a2.502 2.526 45 0 0-.762.53m36.39-36.39a2.502 2.526 45 0 0-.53.762l-5.187 11.472a2.502 2.526 45 0 0 1.248 3.318 9.9 9.9 0 0 1 2.987 2.047 9.9 9.9 0 0 1 2.035 2.987 2.502 2.526 45 0 0 3.32 1.257l11.488-5.195a2.502 2.526 45 0 0 1.28-3.332c-1.32-2.97-3.152-5.73-5.495-8.097a27.3 27.3 0 0 0-8.348-5.739 2.502 2.526 45 0 0-2.798.52m1.13 31.116a2.526 2.502 45 0 0-.577.809 9.9 9.9 0 0 1-2.035 2.987 9.9 9.9 0 0 1-2.987 2.046 2.526 2.502 45 0 0-1.248 3.318l5.187 11.473a2.526 2.502 45 0 0 3.328 1.28 27.3 27.3 0 0 0 8.348-5.737c2.343-2.368 4.175-5.128 5.496-8.098a2.526 2.502 45 0 0-1.281-3.332l-11.49-5.193a2.526 2.502 45 0 0-2.742.447" style="fill:url(#c);stroke-width:1.03182"/><path d="M13.095 12.817a24.7 24.7 0 0 0-5.187 7.546 2.284 2.262 45 0 0 1.158 3.009l10.371 4.689a2.284 2.262 45 0 0 3-1.128 9 9 0 0 1 1.85-2.7 9 9 0 0 1 2.7-1.84 2.284 2.262 45 0 0 1.134-2.999L23.427 9.007a2.284 2.262 45 0 0-3.012-1.158c-2.685 1.194-5.18 2.85-7.32 4.968ZM8.378 41.215a2.262 2.284 45 0 0-.47 2.53 24.7 24.7 0 0 0 5.187 7.546c2.14 2.118 4.635 3.775 7.32 4.968a2.262 2.284 45 0 0 3.012-1.158l4.696-10.385a2.262 2.284 45 0 0-1.137-3 9 9 0 0 1-2.7-1.84 9 9 0 0 1-1.85-2.7 2.262 2.284 45 0 0-2.999-1.128l-10.37 4.689a2.262 2.284 45 0 0-.69.478zM41.273 8.321a2.262 2.284 45 0 0-.479.688l-4.689 10.37a2.262 2.284 45 0 0 1.128 3 9 9 0 0 1 2.7 1.85 9 9 0 0 1 1.84 2.7 2.262 2.284 45 0 0 3 1.137l10.385-4.696a2.262 2.284 45 0 0 1.158-3.012c-1.193-2.685-2.85-5.18-4.968-7.32a24.7 24.7 0 0 0-7.546-5.187 2.262 2.284 45 0 0-2.53.47zm1.02 28.127a2.284 2.262 45 0 0-.52.731 9 9 0 0 1-1.84 2.7 9 9 0 0 1-2.7 1.85 2.284 2.262 45 0 0-1.128 3l4.69 10.37a2.284 2.262 45 0 0 3.007 1.158 24.7 24.7 0 0 0 7.546-5.187c2.118-2.14 3.775-4.635 4.968-7.32a2.284 2.262 45 0 0-1.158-3.011l-10.386-4.695a2.284 2.262 45 0 0-2.478.404z" style="mix-blend-mode:normal;fill:none;stroke:#000;stroke-width:.3;stroke-dasharray:none;stroke-opacity:1;filter:url(#d)" transform="translate(-3.412 -3.406)scale(1.10624)"/></svg>