<svg xmlns="http://www.w3.org/2000/svg" width="64" height="64"><defs><filter id="c" width="1.142" height="1.142" x="-.071" y="-.071" style="color-interpolation-filters:sRGB"><feGaussianBlur stdDeviation="1.022"/></filter><filter id="b" width="1.141" height="1.141" x="-.071" y="-.071" style="color-interpolation-filters:sRGB"><feGaussianBlur stdDeviation="1.583"/></filter><radialGradient id="a" cx="-159.431" cy="15.463" r="64.707" fx="-159.431" fy="15.463" gradientTransform="matrix(-.89413 0 0 .96305 -80.728 49.279)" gradientUnits="userSpaceOnUse"><stop offset="0" style="stop-color:#006fff;stop-opacity:1"/><stop offset="1" style="stop-color:#15baff;stop-opacity:1"/></radialGradient></defs><path d="M20.8 4h22.4C52.5 4 60 11.5 60 20.8v22.4C60 52.5 52.5 60 43.2 60H20.8C11.5 60 4 52.5 4 43.2V20.8C4 11.5 11.5 4 20.8 4" class="st1" style="fill:url(#a)"/><path d="M20.8 4h22.4C52.5 4 60 11.5 60 20.8v22.4C60 52.5 52.5 60 43.2 60H20.8C11.5 60 4 52.5 4 43.2V20.8C4 11.5 11.5 4 20.8 4z" class="st1" style="fill:none;fill-opacity:1;stroke:#000;stroke-opacity:1;stroke-width:.3;stroke-dasharray:none;filter:url(#b)"/><path d="M16.452 14.708a2.75 2.75 0 0 0-2.744 2.744v24.667a8.9 8.9 67.5 0 0 2.606 6.291l.276.276a8.9 8.9 22.5 0 0 6.29 2.606h24.668a2.75 2.75 0 0 0 2.744-2.744V17.452a2.75 2.75 0 0 0-2.744-2.744zm4.037 5.488h23.022a1.293 1.293 45 0 1 1.293 1.293v22.974a1.34 1.34 135 0 1-1.341 1.341h-.061a1.34 1.34 45 0 1-1.341-1.341V37.11a5.94 5.94 45 0 0-5.94-5.94h-8.242a5.94 5.94 135 0 0-5.94 5.94v8.143a.55.55 135 0 1-.551.551 2.19 2.19 45 0 1-2.192-2.192V21.49a1.293 1.293 135 0 1 1.293-1.293M35.141 34.83h1.035a2.226 2.226 45 0 1 2.226 2.226v6.523a2.226 2.226 135 0 1-2.226 2.226h-1.035a2.226 2.226 45 0 1-2.226-2.226v-6.523a2.226 2.226 135 0 1 2.226-2.226" style="opacity:1;fill:#fff;fill-opacity:1;stroke-width:.914594" transform="translate(0 -1)"/><path d="M16.452 14.708a2.75 2.75 0 0 0-2.744 2.744v24.667a8.9 8.9 67.5 0 0 2.606 6.291l.276.276a8.9 8.9 22.5 0 0 6.29 2.606h24.668a2.75 2.75 0 0 0 2.744-2.744V17.452a2.75 2.75 0 0 0-2.744-2.744zm4.037 5.488h23.022a1.293 1.293 45 0 1 1.293 1.293v22.974a1.34 1.34 135 0 1-1.341 1.341h-.061a1.34 1.34 45 0 1-1.341-1.341V37.11a5.94 5.94 45 0 0-5.94-5.94h-8.242a5.94 5.94 135 0 0-5.94 5.94v8.143a.55.55 135 0 1-.551.551 2.19 2.19 45 0 1-2.192-2.192V21.49a1.293 1.293 135 0 1 1.293-1.293zm14.652 14.633h1.035a2.226 2.226 45 0 1 2.226 2.226v6.523a2.226 2.226 135 0 1-2.226 2.226h-1.035a2.226 2.226 45 0 1-2.226-2.226v-6.523a2.226 2.226 135 0 1 2.226-2.226z" style="fill:none;fill-opacity:1;stroke-width:.30000001;stroke:#0059ff;stroke-opacity:1;stroke-dasharray:none;filter:url(#c)" transform="translate(0 -1)"/></svg>