<svg xmlns="http://www.w3.org/2000/svg" xmlns:xlink="http://www.w3.org/1999/xlink" width="64" height="64"><defs><radialGradient xlink:href="#a" id="b" cx="63.929" cy="67.916" r="25.757" fx="63.929" fy="67.916" gradientTransform="matrix(0 -2.4082 2.15493 0 -46.39 207.137)" gradientUnits="userSpaceOnUse"/><radialGradient id="a" cx="-159.431" cy="15.463" r="64.707" fx="-159.431" fy="15.463" gradientTransform="matrix(-.89413 0 0 .96305 -80.754 49.33)" gradientUnits="userSpaceOnUse"><stop offset="0" style="stop-color:#006fff;stop-opacity:1"/><stop offset="1" style="stop-color:#15baff;stop-opacity:1"/></radialGradient><filter id="d" width="1.174" height="1.163" x="-.087" y="-.082" style="color-interpolation-filters:sRGB"><feGaussianBlur stdDeviation=".845"/></filter><filter id="c" width="1.242" height="1.271" x="-.121" y="-.135" style="color-interpolation-filters:sRGB"><feGaussianBlur stdDeviation="2.559"/></filter></defs><path d="M56.935 4.67c0 1.561-1.194 2.847-2.755 2.847h-4.96a6.976 6.976 0 0 0-6.979 6.979v22.313c0 4.133 3.398 7.53 7.53 7.53h36.455c4.132 0 7.53-3.397 7.53-7.53V14.404a6.976 6.976 0 0 0-6.979-6.98h-5.05c-1.561 0-2.755-1.193-2.755-2.754 0-3.581-2.847-6.428-6.336-6.428H63.27c-3.49.092-6.337 2.939-6.337 6.428m6.427-2.663h9.183c1.561 0 2.755 1.194 2.755 2.755s-1.194 2.755-2.755 2.755H63.36c-1.56 0-2.754-1.194-2.754-2.755s1.193-2.755 2.754-2.755" class="st1" style="fill:url(#b);stroke-width:.918263" transform="translate(-36 10.71)"/><path d="M56.935 4.67c0 1.561-1.194 2.847-2.755 2.847h-4.96a6.976 6.976 0 0 0-6.979 6.979v22.313c0 4.133 3.398 7.53 7.53 7.53h36.455c4.132 0 7.53-3.397 7.53-7.53V14.404a6.976 6.976 0 0 0-6.979-6.98h-5.05c-1.561 0-2.755-1.193-2.755-2.754 0-3.581-2.847-6.428-6.336-6.428H63.27c-3.49.092-6.336 2.939-6.336 6.428zm6.427-2.663h9.183c1.561 0 2.755 1.194 2.755 2.755s-1.194 2.755-2.755 2.755h-9.183c-1.56 0-2.754-1.194-2.754-2.755s1.193-2.755 2.754-2.755z" class="st1" style="mix-blend-mode:normal;fill:none;stroke:#000;stroke-width:.2;stroke-dasharray:none;stroke-opacity:1;filter:url(#c)" transform="translate(-36 10.71)"/><path d="M73.162 16.94v6.5c0 .5.4.9.9.9h3c.6 0 .9.6.6 1.1l-9.1 10.4c-.3.4-.8.4-1.1 0l-9.1-10.4c-.3-.5 0-1.1.6-1.1h3c.5 0 .9-.4.9-.9v-6.5c0-1.7 1.4-3.1 3.1-3.1h4.3c1.6 0 2.9 1.4 2.9 3.1m-15.7 19.6h21c1 0 1.7.8 1.7 1.7 0 1-.8 1.7-1.7 1.7h-21c-1 0-1.7-.8-1.7-1.7s.7-1.7 1.7-1.7" class="st2" style="opacity:.256694;fill:#000;fill-opacity:1" transform="translate(-36 10.71)"/><path d="M73.162 16.94v6.5c0 .5.4.9.9.9h3c.6 0 .9.6.6 1.1l-9.1 10.4c-.3.4-.8.4-1.1 0l-9.1-10.4c-.3-.5 0-1.1.6-1.1h3c.5 0 .9-.4.9-.9v-6.5c0-1.7 1.4-3.1 3.1-3.1h4.3c1.6 0 2.9 1.4 2.9 3.1zm-15.7 19.6h21c1 0 1.7.8 1.7 1.7 0 1-.8 1.7-1.7 1.7h-21c-1 0-1.7-.8-1.7-1.7s.7-1.7 1.7-1.7z" class="st2" style="opacity:.256694;fill:none;fill-opacity:1;stroke:#000;stroke-width:.2;stroke-dasharray:none;stroke-opacity:1;filter:url(#d)" transform="translate(-36 10.71)"/></svg>