<svg xmlns="http://www.w3.org/2000/svg" xmlns:xlink="http://www.w3.org/1999/xlink" width="64" height="64"><defs><filter id="c" width="1.244" height="1.244" x="-.122" y="-.122" style="color-interpolation-filters:sRGB"><feGaussianBlur stdDeviation="2.765"/></filter><filter id="d" width="1.519" height="1.095" x="-.26" y="-.048" style="color-interpolation-filters:sRGB"><feGaussianBlur stdDeviation=".244"/></filter><radialGradient xlink:href="#a" id="b" cx="22.065" cy="28.15" r="28" fx="22.065" fy="28.15" gradientTransform="rotate(90 75.728 22.629)scale(2.93187)" gradientUnits="userSpaceOnUse"/><linearGradient id="a"><stop offset="0" style="stop-color:#ff6000;stop-opacity:1"/><stop offset="1" style="stop-color:#ff0005;stop-opacity:1"/></linearGradient></defs><path d="M21.112 4h21.776A17.11 17.11 45 0 1 60 21.112v21.776A17.11 17.11 135 0 1 42.888 60H21.112A17.11 17.11 45 0 1 4 42.888V21.112A17.11 17.11 135 0 1 21.112 4" style="fill:url(#b)" transform="translate(3.014 2.994)scale(.90564)"/><path d="M551.812-352.6v7.868a1.213 1.213 45 0 0 1.214 1.213 1.19 1.19 133.769 0 0 1.162-1.213v-7.869a1.213 1.213 45 0 0-1.214-1.213 1.19 1.19 133.769 0 0-1.162 1.213m-.069 11.276a1.257 1.257 44.61 0 0 1.266 1.248 1.257 1.257 134.61 0 0 1.248-1.266 1.257 1.257 44.61 0 0-1.266-1.248 1.257 1.257 134.61 0 0-1.248 1.266" style="fill:#fff" transform="translate(-1471.361 974.76)scale(2.7169)"/><path d="M21.422 4h21.156A17.42 17.42 45 0 1 60 21.422v21.156A17.42 17.42 135 0 1 42.578 60H21.422A17.42 17.42 45 0 1 4 42.578V21.422A17.42 17.42 135 0 1 21.422 4Z" style="fill:none;stroke:#000;stroke-width:.4;stroke-linejoin:round;stroke-dasharray:none;stroke-opacity:1;filter:url(#c)" transform="translate(2.96 2.938)scale(.90564)"/><path d="M551.812-352.6v7.868a1.213 1.213 45 0 0 1.214 1.213 1.19 1.19 133.769 0 0 1.162-1.213v-7.869a1.213 1.213 45 0 0-1.214-1.213 1.19 1.19 133.769 0 0-1.162 1.213zm-.069 11.276a1.257 1.257 44.61 0 0 1.266 1.248 1.257 1.257 134.61 0 0 1.248-1.266 1.257 1.257 44.61 0 0-1.266-1.248 1.257 1.257 134.61 0 0-1.248 1.266z" style="fill:none;stroke:red;stroke-width:.133333;stroke-linejoin:round;stroke-dasharray:none;stroke-opacity:1;filter:url(#d)" transform="translate(-1471.415 974.703)scale(2.7169)"/></svg>