<svg xmlns="http://www.w3.org/2000/svg" xmlns:xlink="http://www.w3.org/1999/xlink" width="64" height="64"><defs><filter id="d" width="1.278" height="1.219" x="-.139" y="-.109" style="color-interpolation-filters:sRGB"><feGaussianBlur stdDeviation="2.487"/></filter><filter id="c" width="1.199" height="1.228" x="-.1" y="-.114" style="color-interpolation-filters:sRGB"><feGaussianBlur stdDeviation="2.292"/></filter><radialGradient xlink:href="#a" id="b" cx="9.794" cy="53.224" r="27.922" fx="9.794" fy="53.224" gradientTransform="matrix(2.31404 0 0 1.89532 -43.042 -61.551)" gradientUnits="userSpaceOnUse"/><linearGradient id="a"><stop offset="0" style="stop-color:#00baff;stop-opacity:1"/><stop offset="1" style="stop-color:#007aff;stop-opacity:1"/></linearGradient></defs><g transform="translate(36.023 4.723)"><path d="M-21.563 6.414h35.081a9.12 8.169 0 0 1 9.118 8.168v25.473a9.12 8.169 0 0 1-9.118 8.169h-35.081a9.12 8.169 0 0 1-9.119-8.17V14.583a9.12 8.169 0 0 1 9.119-8.17" style="fill:url(#b);fill-opacity:1;stroke-width:.358761"/><path d="M-21.564 6.413a9.119 8.168 0 0 0-7.057 2.994h49.195a9.119 8.168 0 0 0-7.056-2.994zm-9.104 34.094a9.119 8.168 0 0 0 8.79 7.71h35.71a9.119 8.168 0 0 0 8.79-7.71z" style="opacity:.559839;fill:#0053ff;fill-opacity:1;stroke:none;stroke-width:.254022;stroke-linecap:round;stroke-linejoin:round"/><path d="M-12.187 42.423a1.84 1.84 0 0 0-1.84 1.84 1.84 1.84 0 0 0 1.84 1.838 1.84 1.84 0 0 0 1.838-1.838 1.84 1.84 0 0 0-1.838-1.84zm5.442 0a1.84 1.84 0 0 0-1.838 1.84 1.84 1.84 0 0 0 1.838 1.838 1.84 1.84 0 0 0 1.84-1.838 1.84 1.84 0 0 0-1.84-1.84zm5.443 0a1.84 1.84 0 0 0-1.838 1.84 1.84 1.84 0 0 0 1.838 1.838 1.84 1.84 0 0 0 1.838-1.838 1.84 1.84 0 0 0-1.838-1.84zm5.444 0a1.84 1.84 0 0 0-1.84 1.84 1.84 1.84 0 0 0 1.84 1.838 1.84 1.84 0 0 0 1.837-1.838 1.84 1.84 0 0 0-1.837-1.84z" style="opacity:.703111;fill:#fff;fill-opacity:1;stroke:#fff;stroke-width:0"/><path d="M13.49 3.32h37.02a9.623 9.623 45 0 1 9.622 9.622V42.95a9.623 9.623 135 0 1-9.622 9.623H13.49a9.623 9.623 45 0 1-9.622-9.623V12.942a9.623 9.623 135 0 1 9.622-9.623Z" style="fill:none;fill-opacity:1;stroke:#000;stroke-width:.222989;stroke-dasharray:none;stroke-opacity:1;filter:url(#c)" transform="matrix(.94764 0 0 .84888 -34.347 3.595)"/><rect width="44" height="56" x="-53.959" y="-59.999" rx="7.322" ry="7.322" style="mix-blend-mode:normal;fill:none;stroke:#000;stroke-width:.3;stroke-dasharray:none;stroke-opacity:1;filter:url(#d)" transform="matrix(0 -.9345 -.9345 0 -33.927 -2.589)"/></g></svg>