<svg xmlns="http://www.w3.org/2000/svg" width="64" height="64"><circle cx="32" cy="33" r="28" style="opacity:.2"/><circle cx="32" cy="32" r="28" style="fill:#b864e6"/><path d="M18.766 10.826A25 25 0 0 0 7 32h12a13 13 0 0 1 6.113-11.018zM45 32a13 13 0 0 1-6.113 11.018l6.347 10.156A25 25 0 0 0 57 32z" style="fill:#d69def"/><path d="M32 4A28 28 0 0 0 4 32a28 28 0 0 0 .022.586A28 28 0 0 1 32 5a28 28 0 0 1 27.979 27.414L60 32A28 28 0 0 0 32 4" style="opacity:.2;fill:#fff"/><circle cx="32" cy="33" r="10" style="opacity:.1"/><circle cx="32" cy="32" r="10" style="fill:#4f4f4f"/><circle cx="32" cy="32" r="2" style="fill:#fff"/></svg>