<svg xmlns="http://www.w3.org/2000/svg" width="64" height="64"><path d="M10 37v20.2c0 1.551 1.227 2.8 2.75 2.8h38.5c1.523 0 2.75-1.249 2.75-2.8V37Z" style="opacity:.2"/><rect width="24" height="56" x="-45" y="-60" rx="2.824" ry="2.8" style="opacity:.2" transform="rotate(90)scale(-1 1)"/><rect width="40" height="56" x="-44" y="-60" rx="2.8" ry="2.8" style="fill:#797979" transform="rotate(90)scale(-1 1)"/><path d="M7 33h50v6H7z" style="opacity:.2"/><path d="M10 36v20.2c0 1.551 1.227 2.8 2.75 2.8h38.5c1.523 0 2.75-1.249 2.75-2.8V36Z" style="fill:#e4e4e4"/><path d="M15 52h29v3H15zm0-6h24v3H15zm0-6h34v3H15z" style="opacity:.5"/><path d="M37.25 8A2.245 2.245 0 0 0 35 10.25v1.5A2.245 2.245 0 0 0 37.25 14h1.5A2.245 2.245 0 0 0 41 11.75v-1.5A2.245 2.245 0 0 0 38.75 8Zm8 0A2.245 2.245 0 0 0 43 10.25v1.5A2.245 2.245 0 0 0 45.25 14h1.5A2.245 2.245 0 0 0 49 11.75v-1.5A2.245 2.245 0 0 0 46.75 8Zm8 0A2.245 2.245 0 0 0 51 10.25v1.5A2.245 2.245 0 0 0 53.25 14h1.5A2.245 2.245 0 0 0 57 11.75v-1.5A2.245 2.245 0 0 0 54.75 8Zm-16 8A2.245 2.245 0 0 0 35 18.25v1.5A2.245 2.245 0 0 0 37.25 22h1.5A2.245 2.245 0 0 0 41 19.75v-1.5A2.245 2.245 0 0 0 38.75 16Zm8 0A2.245 2.245 0 0 0 43 18.25v1.5A2.245 2.245 0 0 0 45.25 22h1.5A2.245 2.245 0 0 0 49 19.75v-1.5A2.245 2.245 0 0 0 46.75 16Zm8 0A2.245 2.245 0 0 0 51 18.25v1.5A2.245 2.245 0 0 0 53.25 22h1.5A2.245 2.245 0 0 0 57 19.75v-1.5A2.245 2.245 0 0 0 54.75 16Zm-16 8A2.245 2.245 0 0 0 35 26.25v1.5A2.245 2.245 0 0 0 37.25 30h1.5A2.245 2.245 0 0 0 41 27.75v-1.5A2.245 2.245 0 0 0 38.75 24Zm8 0A2.245 2.245 0 0 0 43 26.25v1.5A2.245 2.245 0 0 0 45.25 30h1.5A2.245 2.245 0 0 0 49 27.75v-1.5A2.245 2.245 0 0 0 46.75 24Zm8 0A2.245 2.245 0 0 0 51 26.25v1.5A2.245 2.245 0 0 0 53.25 30h1.5A2.245 2.245 0 0 0 57 27.75v-1.5A2.245 2.245 0 0 0 54.75 24Z" style="opacity:.2"/><rect width="6" height="6" x="51" y="7" rx="2.25" ry="2.25" style="fill:#fff"/><rect width="6" height="6" x="43" y="7" rx="2.25" ry="2.25" style="fill:#fff"/><rect width="6" height="6" x="35" y="7" rx="2.25" ry="2.25" style="fill:#fff"/><rect width="6" height="6" x="51" y="15" rx="2.25" ry="2.25" style="fill:#fff"/><rect width="6" height="6" x="43" y="15" rx="2.25" ry="2.25" style="fill:#fff"/><rect width="6" height="6" x="35" y="15" rx="2.25" ry="2.25" style="fill:#fff"/><rect width="6" height="6" x="51" y="23" rx="2.25" ry="2.25" style="fill:#ff5a5a"/><rect width="6" height="6" x="43" y="23" rx="2.25" ry="2.25" style="fill:#fff"/><rect width="6" height="6" x="35" y="23" rx="2.25" ry="2.25" style="fill:#6bd70f"/><path d="M9 12h20v12H9z" style="fill:#48cdff"/><path d="M6.8 4C5.25 4 4 5.25 4 6.8v1C4 6.25 5.25 5 6.8 5h50.4C58.75 5 60 6.25 60 7.8v-1C60 5.25 58.75 4 57.2 4z" style="fill:#fff;opacity:.1"/><path d="M9 12h20v1H9z" style="opacity:.1"/></svg>