<svg xmlns="http://www.w3.org/2000/svg" width="64" height="64"><path d="M6.8 61C5.25 61 4 59.75 4 58.2v-2C4 57.75 5.25 59 6.8 59h50.4c1.55 0 2.8-1.25 2.8-2.8v2c0 1.55-1.25 2.8-2.8 2.8H32Z" style="opacity:.2"/><path d="M32 4H6.8A2.794 2.794 0 0 0 4 6.8V32h28z" style="fill:#6655e4"/><path d="M32 4h25.2C58.751 4 60 5.249 60 6.8V32H32Z" style="fill:#21d789"/><path d="M32 60H6.8A2.794 2.794 0 0 1 4 57.2V32h28z" style="fill:#14ddb1"/><path d="M32 60h25.2c1.551 0 2.8-1.249 2.8-2.8V32H32Z" style="fill:#2086e7"/><path d="M6.8 4C5.25 4 4 5.25 4 6.8v1C4 6.25 5.25 5 6.8 5h50.4C58.75 5 60 6.25 60 7.8v-1C60 5.25 58.75 4 57.2 4z" style="opacity:.2;fill:#fff"/><path d="M12 12h40v40H12z" style="fill:#3f3f3f"/><path d="M42 32.999s0 2-4 2-4-4-4-8 0-8 4-8 4 2 4 2" style="opacity:.2;fill:none;stroke:#000;stroke-width:3.99999976;stroke-linecap:round;stroke-linejoin:bevel"/><path d="M42 32s0 2-4 2-4-4-4-8 0-8 4-8 4 2 4 2" style="fill:none;stroke:#fff;stroke-width:3.99999976;stroke-linecap:round;stroke-linejoin:bevel"/><path d="M18 47h16" style="opacity:.2;fill:none;stroke:#000;stroke-width:4;stroke-linecap:round"/><path d="M18 46h16" style="fill:none;stroke:#fff;stroke-width:4;stroke-linecap:round"/><path d="M18 19h8m-4 16V19" style="opacity:.2;fill:none;stroke:#000;stroke-width:3.99999976;stroke-linecap:round"/><path d="M18 18h8m-4 16V18" style="fill:none;stroke:#fff;stroke-width:3.99999976;stroke-linecap:round"/></svg>