<svg xmlns="http://www.w3.org/2000/svg" xmlns:xlink="http://www.w3.org/1999/xlink" width="64" height="64"><defs><filter id="k" width="1.624" height="1.52" x="-.312" y="-.26" style="color-interpolation-filters:sRGB"><feGaussianBlur stdDeviation="1.908"/></filter><filter id="j" width="1.323" height="1.323" x="-.161" y="-.161" style="color-interpolation-filters:sRGB"><feGaussianBlur stdDeviation="1.908"/></filter><filter id="h" width="1.323" height="1.167" x="-.161" y="-.084" style="color-interpolation-filters:sRGB"><feGaussianBlur stdDeviation="1.908"/></filter><filter id="f" width="1.492" height="1.228" x="-.246" y="-.114" style="color-interpolation-filters:sRGB"><feGaussianBlur stdDeviation="1.908"/></filter><radialGradient xlink:href="#a" id="i" cx="8.431" cy="43.795" r="14.5" fx="8.431" fy="43.795" gradientTransform="rotate(-30 -155.644 123.454)scale(3.11693)" gradientUnits="userSpaceOnUse"/><radialGradient xlink:href="#c" id="g" cx="21.426" cy="43.881" r="14.5" fx="21.426" fy="43.881" gradientTransform="rotate(-45 -204.302 209.16)scale(3.0599 5.90879)" gradientUnits="userSpaceOnUse"/><radialGradient xlink:href="#d" id="e" cx="42.587" cy="37.881" r="9.5" fx="42.587" fy="37.881" gradientTransform="rotate(-60 -177.79 360.9)scale(4.81609 10.3926)" gradientUnits="userSpaceOnUse"/><linearGradient id="a"><stop offset="0" style="stop-color:#5742ff;stop-opacity:1"/><stop offset="1" style="stop-color:#5b5bff;stop-opacity:1"/></linearGradient><linearGradient id="c"><stop offset="0" style="stop-color:#6b62ff;stop-opacity:1"/><stop offset="1" style="stop-color:#969cff;stop-opacity:1"/></linearGradient><linearGradient id="d"><stop offset="0" style="stop-color:#6164ff;stop-opacity:1"/><stop offset="1" style="stop-color:#8589ff;stop-opacity:1"/></linearGradient></defs><path d="M50.513 11.114a6.17 6.17 0 0 0-6.171 6.17 6.17 6.17 0 0 0 6.17 6.172 6.17 6.17 0 0 0 6.171-6.171 6.17 6.17 0 0 0-6.17-6.171m-7.087 15.19c-1.07 0-1.932.861-1.932 1.932V41.48h.033a9.02 9.02 0 0 0 8.986 8.557 9.02 9.02 0 0 0 8.985-8.557h.034V28.236c0-1.07-.862-1.932-1.933-1.932z" style="fill:url(#e);stroke-width:.949363"/><path d="M51.5 10a6.5 6.5 0 0 0-6.5 6.5 6.5 6.5 0 0 0 6.5 6.5 6.5 6.5 0 0 0 6.5-6.5 6.5 6.5 0 0 0-6.5-6.5zm-7.465 16A2.03 2.03 0 0 0 42 28.035v13.951h.035A9.5 9.5 0 0 0 51.5 51a9.5 9.5 0 0 0 9.465-9.014H61V28.035A2.03 2.03 0 0 0 58.965 26Z" style="mix-blend-mode:normal;fill:none;stroke:#000;stroke-width:.2;stroke-dasharray:none;stroke-opacity:1;filter:url(#f)" transform="translate(1.62 1.62)scale(.94936)"/><path d="M33.424 5.418a9.02 9.02 0 0 0-9.019 9.019 9.02 9.02 0 0 0 9.019 9.019 9.02 9.02 0 0 0 9.019-9.02 9.02 9.02 0 0 0-9.019-9.018M22.786 26.304a3.12 3.12 0 0 0-3.128 3.128v15.644h.019a13.766 13.766 0 0 0 13.747 13.506 13.766 13.766 0 0 0 13.747-13.506h.019V29.432a3.12 3.12 0 0 0-3.128-3.128z" style="fill:url(#g);stroke-width:.949363"/><path d="M33.5 4a9.5 9.5 0 0 0-9.5 9.5 9.5 9.5 0 0 0 9.5 9.5 9.5 9.5 0 0 0 9.5-9.5A9.5 9.5 0 0 0 33.5 4zM22.295 26A3.287 3.287 0 0 0 19 29.295v16.478h.02A14.5 14.5 0 0 0 33.5 60a14.5 14.5 0 0 0 14.48-14.227H48V29.295A3.287 3.287 0 0 0 44.705 26Z" style="mix-blend-mode:normal;fill:none;stroke:#000;stroke-width:.2;stroke-dasharray:none;stroke-opacity:1;filter:url(#h)" transform="translate(1.62 1.62)scale(.94936)"/><path d="M10.23 18h14.54A7.23 7.23 45 0 1 32 25.23v14.54A7.23 7.23 135 0 1 24.77 47H10.23A7.23 7.23 45 0 1 3 39.77V25.23A7.23 7.23 135 0 1 10.23 18" style="fill:url(#i)" transform="translate(1.62 1.62)scale(.94936)"/><path d="M10.23 18h14.54A7.23 7.23 45 0 1 32 25.23v14.54A7.23 7.23 135 0 1 24.77 47H10.23A7.23 7.23 45 0 1 3 39.77V25.23A7.23 7.23 135 0 1 10.23 18Z" style="mix-blend-mode:normal;fill:none;stroke:#000;stroke-width:.2;stroke-dasharray:none;stroke-opacity:1;filter:url(#j)" transform="translate(1.62 1.62)scale(.94936)"/><path d="M13.487 24.405a2.37 2.37 0 0 0-2.373 2.374 2.37 2.37 0 0 0 2.373 2.373h1.667c.395 0 .714.32.713.714-.001 1.802-.006 6.576-.006 9.228 0 1.33 1.058 2.4 2.371 2.4h.07a2.38 2.38 0 0 0 2.372-2.4c-.005-2.652-.007-7.426-.007-9.228 0-.394.32-.714.714-.714h1.6a2.37 2.37 0 0 0 2.374-2.373 2.37 2.37 0 0 0-2.374-2.374z" style="fill:#fff;stroke-width:.949363"/><path d="M12.5 24a2.495 2.495 0 0 0-2.5 2.5c0 1.385 1.115 2.5 2.5 2.5h2.508q-.006.073-.008.146v10.327c0 1.4 1.114 2.527 2.498 2.527h.074c1.384 0 2.498-1.127 2.498-2.527V29.146q-.002-.074-.007-.146H22.5c1.385 0 2.5-1.115 2.5-2.5S23.885 24 22.5 24z" style="mix-blend-mode:normal;fill:none;stroke:#000;stroke-width:.2;stroke-dasharray:none;stroke-opacity:1;filter:url(#k)" transform="translate(1.62 1.62)scale(.94936)"/></svg>