<svg xmlns="http://www.w3.org/2000/svg" width="64" height="64"><rect width="56" height="56" x="4" y="5" rx="7" ry="7" style="opacity:.2"/><rect width="56" height="56" x="4" y="4" rx="7" ry="7" style="fill:#d9282b"/><path d="M11.427 9C9.498 9 8 10.498 8 12.427V29h10V19h7v7h7V13h7v10h7v6h10V12.427C56 10.498 54.502 9 52.573 9ZM8 36v17.573C8 55.502 9.498 57 11.427 57h41.146C54.502 57 56 55.502 56 53.573V36H46v7h-7v10h-7V40h-7v7h-7V36Z" style="opacity:.2"/><path d="M11.427 8C9.498 8 8 9.498 8 11.427V28h10V18h7v7h7V12h7v10h7v6h10V11.427C56 9.498 54.502 8 52.573 8ZM8 35v17.573C8 54.502 9.498 56 11.427 56h41.146C54.502 56 56 54.502 56 52.573V35H46v7h-7v10h-7V39h-7v7h-7V35Z" style="fill:#fff"/><path d="M11 4c-3.878 0-7 3.122-7 7v1c0-3.878 3.122-7 7-7h42c3.878 0 7 3.122 7 7v-1c0-3.878-3.122-7-7-7z" style="fill:#fff;opacity:.2"/></svg>