<svg xmlns="http://www.w3.org/2000/svg" width="64" height="64"><path d="M32 5 4 33l28 28 28-28z" style="opacity:.2"/><path d="M32 4 4 32l28 28 28-28z" style="fill:#00a1fd"/><path d="M32 4 4 32l.5.5L32 5l27.5 27.5.5-.5z" style="opacity:.1;fill:#fff"/><rect width="44" height="44" x="10" y="11" rx="4" ry="4" style="opacity:.2"/><rect width="44" height="44" x="10" y="10" rx="4" ry="4" style="fill:#47bcff"/><path d="M22 29v-6h6l4 4 4-4h6v6l-4 4 4 4v6h-6l-4-4-4 4h-6v-6l4-4z" style="opacity:.2"/><path d="M22 28v-6h6l4 4 4-4h6v6l-4 4 4 4v6h-6l-4-4-4 4h-6v-6l4-4z" style="fill:#fff"/><path d="M14 10c-2.216 0-4 1.784-4 4v1c0-2.216 1.784-4 4-4h36c2.216 0 4 1.784 4 4v-1c0-2.216-1.784-4-4-4z" style="opacity:.2;fill:#fff"/></svg>