<svg xmlns="http://www.w3.org/2000/svg" width="64" height="64"><path d="M31.262 29.218c-.894.51-1.912.78-2.946.782-.108 0-.21-.022-.316-.028v11.15l-2.546-2.84a2.67 2.67 0 0 1-2.122 1.05 2.7 2.7 0 0 1-.066.574L28 45.082v8.458c-3.288 1.054-4 3.548-4 6.46h16c0-2.912-.712-5.406-4-6.46v-2.758l4.832-4.668a2.667 2.857 0 0 1-.164-.97 2.667 2.857 0 0 1 .36-1.434 2.667 2.857 0 0 1-.016-.022 2.667 2.857 0 0 1-.344.026 2.667 2.857 0 0 1-1.126-.268L36 46.82V29.7c-.574.18-1.168.3-1.79.3a6 6 0 0 1-2.948-.782" style="fill:#a57959"/><path d="M31.262 4a5.96 5.96 0 0 0-4.168 1.7 6 6 0 0 0-1.726-.254c-3.256 0-5.895 2.586-5.895 5.777a5.7 5.7 0 0 0 1.391 3.719A5.76 5.76 0 0 0 18 19.89c.003 2.691 1.901 5.023 4.578 5.625.614 2.622 2.994 4.48 5.738 4.484a6 6 0 0 0 2.946-.782c.896.51 1.912.78 2.948.782 2.126-.002 4.086-1.124 5.13-2.938 2.958-.35 5.184-2.81 5.188-5.73a6 6 0 0 0-.028-.492A5.7 5.7 0 0 0 46 17c-.004-2.691-1.902-5.024-4.578-5.625-.556-2.37-2.57-4.146-5.036-4.44-1.044-1.81-3.002-2.93-5.124-2.933zM20.668 34A2.667 2.667 0 0 0 18 36.668 2.67 2.67 0 0 0 18.359 38 2.67 2.67 0 0 0 18 39.332 2.667 2.667 0 0 0 20.668 42a2.667 2.667 0 0 0 2.664-2.668A2.667 2.667 0 0 0 26 36.668 2.667 2.667 0 0 0 23.332 34a2.67 2.67 0 0 0-1.332.36 2.67 2.67 0 0 0-1.332-.36m20 4A2.667 2.857 0 0 0 38 40.856a2.667 2.857 0 0 0 2.668 2.858 2.667 2.857 0 0 0 .344-.026 2.667 2.857 0 0 0 .016.022 2.667 2.857 0 0 0-.36 1.434A2.667 2.857 0 0 0 43.332 48 2.667 2.857 0 0 0 46 45.144a2.667 2.857 0 0 0-.36-1.43 2.667 2.857 0 0 0 .36-1.428 2.667 2.857 0 0 0-2.668-2.856 2.667 2.857 0 0 0-.344.028A2.667 2.857 0 0 0 40.668 38" style="fill:#1c8d43"/><path d="M31.262 4a5.96 5.96 0 0 0-4.168 1.7 6 6 0 0 0-1.727-.255c-3.256 0-5.894 2.587-5.894 5.778 0 .129.026.256.035.384.314-2.9 2.816-5.162 5.859-5.162a6 6 0 0 1 1.727.254A5.96 5.96 0 0 1 31.262 5c2.122.003 4.081 1.123 5.125 2.934 2.466.293 4.479 2.069 5.035 4.441 2.501.561 4.303 2.641 4.533 5.107.014-.161.045-.319.045-.482-.004-2.692-1.902-5.024-4.578-5.625-.556-2.372-2.569-4.148-5.035-4.441C35.343 5.123 33.384 4.003 31.262 4M20.381 15.27c-1.484 1.081-2.379 2.786-2.381 4.621 0 .146.028.287.039.431a5.76 5.76 0 0 1 2.824-4.381 6 6 0 0 1-.482-.671m24.123 6.564-.004.006.002.033zM20.668 34A2.667 2.667 0 0 0 18 36.668a2.7 2.7 0 0 0 .049.498A2.67 2.67 0 0 1 20.668 35a2.67 2.67 0 0 1 1.332.359A2.67 2.67 0 0 1 23.332 35a2.67 2.67 0 0 1 2.619 2.164 2.7 2.7 0 0 0 .049-.496A2.667 2.667 0 0 0 23.332 34a2.67 2.67 0 0 0-1.332.359A2.67 2.67 0 0 0 20.668 34m20 4A2.667 2.857 0 0 0 38 40.855a2.667 2.857 0 0 0 .043.499A2.667 2.857 0 0 1 40.668 39a2.667 2.857 0 0 1 2.32 1.459 2.667 2.857 0 0 1 .344-.029 2.667 2.857 0 0 1 2.623 2.347 2.667 2.857 0 0 0 .045-.49 2.667 2.857 0 0 0-2.668-2.857 2.667 2.857 0 0 0-.344.029A2.667 2.857 0 0 0 40.668 38m-22.531.498a2.7 2.7 0 0 0-.137.834 2.7 2.7 0 0 0 .049.508 2.7 2.7 0 0 1 .31-.84 2.7 2.7 0 0 1-.222-.502m27.715 5.721a2.667 2.857 0 0 1-.211.496 2.667 2.857 0 0 1 .316.937 2.667 2.857 0 0 0 .043-.507 2.667 2.857 0 0 0-.148-.926m-4.84.469a2.667 2.857 0 0 1-.311.025 2.667 2.857 0 0 0-.033.432 2.667 2.857 0 0 0 .045.503 2.667 2.857 0 0 1 .314-.937 2.667 2.857 0 0 1-.015-.023" style="opacity:.2;fill:#fff"/><path d="M19.508 11.607a6 6 0 0 0-.035.615 5.7 5.7 0 0 0 .908 3.047c.156-.114.313-.229.482-.328a5.7 5.7 0 0 1-1.355-3.334m26.447 5.875a5.7 5.7 0 0 1-1.455 3.357q.024.247.027.493 0 .253-.023.502A5.7 5.7 0 0 0 46 18c0-.176-.029-.346-.045-.518m-27.916 2.84c-.02.188-.039.377-.04.568.004 2.692 1.902 5.023 4.579 5.625.614 2.622 2.994 4.48 5.738 4.485a6 6 0 0 0 2.946-.782 6 6 0 0 0 2.947.782c2.126-.002 4.087-1.124 5.13-2.938 2.959-.35 5.184-2.81 5.188-5.73a6 6 0 0 0-.025-.46c-.259 2.678-2.39 4.862-5.162 5.19-1.044 1.814-3.005 2.936-5.131 2.938a6 6 0 0 1-2.947-.78 6 6 0 0 1-2.946.78c-2.744-.004-5.124-1.862-5.738-4.484-2.531-.57-4.344-2.69-4.54-5.193zm7.912 16.842a2.67 2.67 0 0 1-2.619 2.168A2.667 2.667 0 0 1 20.668 42a2.67 2.67 0 0 1-2.619-2.16 2.7 2.7 0 0 0-.049.492A2.667 2.667 0 0 0 20.668 43a2.667 2.667 0 0 0 2.664-2.668A2.667 2.667 0 0 0 26 37.668a2.7 2.7 0 0 0-.049-.504m-7.902.002a2.7 2.7 0 0 0-.05.502 2.7 2.7 0 0 0 .138.83 2.7 2.7 0 0 1 .222-.498 2.7 2.7 0 0 1-.31-.834m19.994 4.187a2.667 2.857 0 0 0-.043.501 2.667 2.857 0 0 0 2.668 2.86 2.667 2.857 0 0 0 .033-.002 2.667 2.857 0 0 1 .326-1.002 2.667 2.857 0 0 1-.015-.024 2.667 2.857 0 0 1-.344.028 2.667 2.857 0 0 1-2.625-2.362zm7.912 1.424a2.667 2.857 0 0 1-.315.938 2.667 2.857 0 0 1 .211.504 2.667 2.857 0 0 0 .15-.932 2.667 2.857 0 0 0-.046-.51m-5.242 2.871a2.667 2.857 0 0 0-.045.496A2.667 2.857 0 0 0 43.332 49 2.667 2.857 0 0 0 46 46.144a2.667 2.857 0 0 0-.043-.493A2.667 2.857 0 0 1 43.332 48a2.667 2.857 0 0 1-2.62-2.352z" style="opacity:.2"/><path d="M31.262 29.219a6 6 0 0 1-2.946.781c-.108 0-.21-.021-.316-.027v1c.106.006.208.027.316.027a6 6 0 0 0 2.946-.781c.896.51 1.911.779 2.947.781A6 6 0 0 0 36 30.701v-1a6 6 0 0 1-1.791.299 6 6 0 0 1-2.947-.781m-5.809 9.062a2.67 2.67 0 0 1-2.121 1.051 2.7 2.7 0 0 1-.066.574l.373.406a2.67 2.67 0 0 0 1.814-1.031L28 42.123v-1zm14.088 5.164L36 46.82v1l3.541-3.375a2.667 2.857 0 0 0 1.127.27 2.667 2.857 0 0 0 .033 0 2.667 2.857 0 0 1 .326-1.004 2.667 2.857 0 0 1-.015-.023 2.667 2.857 0 0 1-.344.027 2.667 2.857 0 0 1-1.127-.27m1.172 2.19a2.667 2.857 0 0 0-.045.51 2.667 2.857 0 0 0 .004.123l.16-.155a2.667 2.857 0 0 1-.119-.478M28 53.541c-3.288 1.054-4 3.547-4 6.459h.035c.169-2.473 1.061-4.528 3.965-5.459zm8 0v1c2.904.931 3.796 2.986 3.965 5.459H40c0-2.912-.712-5.405-4-6.459" style="opacity:.1;fill:#fff"/><path d="M23.639 40.312a3 3 0 0 1-.307.02 2.7 2.7 0 0 1-.066.574L28 46.082v-1zm17.373 4.375a2.667 2.857 0 0 1-.31.027 2.667 2.857 0 0 0-.034.43 2.667 2.857 0 0 0 .045.49 2.667 2.857 0 0 1 .315-.924 2.667 2.857 0 0 1-.016-.023m-.34 1.581L36 50.781v1l4.832-4.668a2.667 2.857 0 0 1-.16-.845M24.035 60q-.034.49-.035 1h16q-.001-.51-.035-1z" style="opacity:.2"/></svg>