<svg xmlns="http://www.w3.org/2000/svg" xmlns:xlink="http://www.w3.org/1999/xlink" width="64" height="64"><defs><radialGradient id="b" cx="-159.431" cy="15.463" r="64.707" fx="-159.431" fy="15.463" gradientTransform="matrix(-.89413 0 0 .96305 -135.807 48.82)" gradientUnits="userSpaceOnUse"><stop offset="0" style="stop-color:#006fff;stop-opacity:1"/><stop offset="1" style="stop-color:#004e6f;stop-opacity:1"/></radialGradient><radialGradient id="a" cx="-159.431" cy="15.463" r="64.707" fx="-159.431" fy="15.463" gradientTransform="matrix(-.89413 0 0 .96305 -135.807 48.82)" gradientUnits="userSpaceOnUse"><stop offset="0" style="stop-color:#006fff;stop-opacity:1"/><stop offset="1" style="stop-color:#15baff;stop-opacity:1"/></radialGradient><radialGradient xlink:href="#a" id="e" cx="62.388" cy="62.461" r="24.126" fx="62.388" fy="62.461" gradientTransform="matrix(0 -2.68791 2.67908 0 -105.004 228.012)" gradientUnits="userSpaceOnUse"/><radialGradient xlink:href="#b" id="c" cx="61.011" cy="20.227" r="25" fx="61.011" fy="20.227" gradientTransform="matrix(1.38019 0 0 1.49158 -10.404 4.184)" gradientUnits="userSpaceOnUse"/><radialGradient xlink:href="#a" id="d" cx="65.78" cy="59.13" r="25" fx="65.78" fy="59.13" gradientTransform="matrix(3.81314 0 0 1.58917 -217.297 -53.816)" gradientUnits="userSpaceOnUse"/><radialGradient xlink:href="#a" id="g" cx="62.388" cy="93.143" r="11.099" fx="62.388" fy="93.143" gradientTransform="matrix(0 -5.84277 5.82357 0 -480.09 424.838)" gradientUnits="userSpaceOnUse"/><radialGradient xlink:href="#a" id="h" cx="62.388" cy="93.143" r="11.099" fx="62.388" fy="93.143" gradientTransform="matrix(0 -5.84277 5.82357 0 -480.09 424.838)" gradientUnits="userSpaceOnUse"/><filter id="f" width="1.307" height="1.5" x="-.154" y="-.25" style="color-interpolation-filters:sRGB"><feGaussianBlur stdDeviation="2.096"/></filter><filter id="i" width="1.174" height="1.182" x="-.087" y="-.091" style="color-interpolation-filters:sRGB"><feGaussianBlur stdDeviation="1.93"/></filter></defs><g transform="translate(-3.133)"><path d="M60.115 27.01a2.276 2.276 0 0 0-2.276 2.276c0 3.33-.351 5.243-.756 5.85-.202.304-.36.449-.913.64-.553.192-1.508.338-2.883.338a2.276 2.276 0 0 0-2.277 2.277 2.276 2.276 0 0 0 2.277 2.276c1.66 0 3.075-.138 4.371-.587s2.467-1.3 3.213-2.419c1.492-2.238 1.52-4.877 1.52-8.375a2.276 2.276 0 0 0-2.276-2.277" style="fill:url(#c);fill-opacity:1;stroke-width:.75875"/><path d="M14 56.985v.03A2.985 2.985 45 0 0 16.985 60h8.03A2.985 2.985 135 0 0 28 57.015v-.03A2.985 2.985 45 0 0 25.015 54h-8.03A2.985 2.985 135 0 0 14 56.985m22 0v.03A2.985 2.985 45 0 0 38.985 60h8.03A2.985 2.985 135 0 0 50 57.015v-.03A2.985 2.985 45 0 0 47.015 54h-8.03A2.985 2.985 135 0 0 36 56.985" style="fill:url(#d);fill-opacity:1" transform="translate(-.053 -2.043)"/><rect width="48.251" height="48.092" x="7.874" y="6.043" rx="9.883" ry="9.883" style="fill:url(#e);fill-opacity:1;stroke:none;stroke-width:.2;stroke-linecap:round;stroke-linejoin:round;stroke-miterlimit:7.4"/><rect width="36.889" height="24.152" x="13.556" y="12.015" rx="4.122" ry="4.122" style="opacity:.782181;fill:#fff;fill-opacity:1;stroke:none;stroke-width:.2;stroke-linecap:round;stroke-linejoin:round;stroke-miterlimit:7.4"/><rect width="32.74" height="20.114" x="15.63" y="14.034" rx="3.659" ry="3.433" style="opacity:.782181;fill:#fff;fill-opacity:1;stroke:none;stroke-width:.171946;stroke-linecap:round;stroke-linejoin:round;stroke-miterlimit:7.4;filter:url(#f)"/><path d="m21.808 44.322-.01.01a2.47 2.47 90 0 0 0 3.49l.105.106a9.05 9.05 22.5 0 0 6.397 2.65h7.506a9.05 9.05 157.5 0 0 6.396-2.65l.1-.1a2.476 2.476 90 0 0 0-3.501 2.475 2.475 179.984 0 0-3.5 0l-.004.005a4.25 4.25 157.5 0 1-3.006 1.245h-7.479a4.25 4.25 22.5 0 1-3.005-1.245l-.01-.01a2.47 2.47 0 0 0-3.49 0" style="opacity:.317;fill:#000;fill-opacity:1" transform="translate(-.053 -2.043)"/><rect width="6.078" height="12.155" x="20.848" y="16.983" rx="3.039" ry="3.039" style="fill:url(#g);fill-opacity:1;stroke:none;stroke-width:.2;stroke-linecap:round;stroke-linejoin:round;stroke-miterlimit:7.4"/><rect width="6.078" height="12.155" x="36.968" y="16.983" rx="3.039" ry="3.039" style="fill:url(#h);fill-opacity:1;stroke:none;stroke-width:.2;stroke-linecap:round;stroke-linejoin:round;stroke-miterlimit:7.4"/></g><g style="fill:none;stroke:#000;stroke-width:.2;stroke-dasharray:none;stroke-opacity:1;filter:url(#i)" transform="translate(65.677 -3.658)"><path d="M-8.693 30.668a2.276 2.276 0 0 0-2.278 2.277c0 3.33-.351 5.243-.756 5.85-.202.303-.358.449-.912.64l-.045.016v4.674a9.6 9.6 0 0 0 1.534-.387c1.296-.448 2.466-1.298 3.213-2.418 1.492-2.238 1.519-4.876 1.519-8.375a2.276 2.276 0 0 0-2.275-2.277zM-54.504 57.18a3 3 0 0 0-.36 1.422v.029a2.985 2.985 0 0 0 2.987 2.984h8.03a2.985 2.985 0 0 0 2.984-2.984v-.03a3 3 0 0 0-.112-.806h-10.078a9.9 9.9 0 0 1-3.45-.615zm35.299.033a9.9 9.9 0 0 1-3.361.582h-10.186a3 3 0 0 0-.111.807v.029a2.985 2.985 0 0 0 2.986 2.984h8.03a2.985 2.985 0 0 0 2.984-2.984v-.03a3 3 0 0 0-.342-1.388z" style="fill:none;stroke:#000;stroke-width:.2;stroke-dasharray:none;stroke-opacity:1"/><path d="M-51.053 9.701a9.86 9.86 0 0 0-9.883 9.883v28.328a9.86 9.86 0 0 0 9.883 9.883h28.487a9.86 9.86 0 0 0 9.882-9.883V19.584a9.86 9.86 0 0 0-9.882-9.883z" style="fill:none;stroke:#000;stroke-width:.2;stroke-linecap:round;stroke-linejoin:round;stroke-miterlimit:7.4;stroke-dasharray:none;stroke-opacity:1"/></g></svg>