<svg xmlns="http://www.w3.org/2000/svg" width="64" height="64"><circle cx="32" cy="33" r="28" style="opacity:.2"/><circle cx="32" cy="32" r="28" style="fill:#3f3f3f"/><path d="M33 15v25a5 5 0 1 1-4-4.898v-6.047A11 11 0 0 0 28 29c-6.075 0-11 4.925-11 11s4.925 11 11 11 11-4.925 11-11V27.223C41.368 28.839 43.92 30 47 30v-6.375c-1.612.001-2.887-.454-4.254-1.309v.004A8.63 8.63 0 0 1 39 17.254L38.6 15Z" style="opacity:.2"/><path d="M33 14v25a5 5 0 1 1-4-4.898v-6.047A11 11 0 0 0 28 28c-6.075 0-11 4.925-11 11s4.925 11 11 11 11-4.925 11-11V26.223C41.368 27.839 43.92 29 47 29v-6.375c-1.612.001-2.887-.454-4.254-1.309v.004A8.63 8.63 0 0 1 39 16.254L38.6 14Z" style="fill:#fff"/><path d="M32 4A28 28 0 0 0 4 32a28 28 0 0 0 .018.492A28 28 0 0 1 32 5a28 28 0 0 1 27.975 27.492A28 28 0 0 0 60 32 28 28 0 0 0 32 4" style="opacity:.1;fill:#fff"/></svg>