<svg xmlns="http://www.w3.org/2000/svg" width="64" height="64"><path d="M11.365 8.845c3.02-1.494 8.292-3.292 16.642-3.738a75 75 0 0 1 7.996 0c8.35.446 13.622 2.244 16.643 3.739a6.65 6.65 61.422 0 1 3.353 6.156V57a4 4 135 0 1-4 4H12.011a4 4 45 0 1-4-4V15.002a6.65 6.65 118.58 0 1 3.354-6.157" style="opacity:.2"/><path d="M11.365 7.845c3.02-1.494 8.29-3.292 16.637-3.738a75 75 0 0 1 7.996 0c8.347.446 13.617 2.244 16.638 3.738a6.65 6.65 61.424 0 1 3.353 6.157V56a4 4 135 0 1-4 4H12.011a4 4 45 0 1-4-4V14.002a6.65 6.65 118.577 0 1 3.354-6.157" style="fill:#757575"/><path d="M13.59 10.224c2.675-.91 7.159-1.884 14.411-2.15a109 109 0 0 1 7.998 0c7.253.266 11.736 1.24 14.411 2.15a5.83 5.83 58.368 0 1 3.559 5.778v23.996a5.9 5.9 119.761 0 1-3.415 5.973c-2.558.866-6.976 1.74-14.555 1.969a132 132 0 0 1-7.998 0c-7.58-.23-11.998-1.103-14.555-1.97a5.9 5.9 60.24 0 1-3.415-5.972V16.002a5.83 5.83 121.633 0 1 3.56-5.778" style="fill:#424242"/><rect width="40" height="28" x="12" y="12" rx="4" ry="4" style="fill:#aed581"/><path d="M52 17v-1c0-2.216-1.785-4-4.001-4h-32A3.99 3.99 0 0 0 12 16v1c0-2.216 1.785-4 4.001-4h32A3.99 3.99 0 0 1 52 17" style="opacity:.2"/><rect width="4" height="3" x="18" y="42" rx="1" style="opacity:.2"/><rect width="7.998" height="5" x="10.01" y="52" rx="2" style="opacity:.2"/><rect width="12" height="4" x="42" y="55" rx="1" style="opacity:.2"/><path d="M46.855 50a.85.85 0 0 0-.855.855V54h-3c-.554 0-1 .446-1 1v2c0 .554.446 1 1 1h3v2h4v-2h3c.554 0 1-.446 1-1v-2c0-.554-.446-1-1-1h-3v-3.145a.85.85 0 0 0-.855-.855z" style="fill:#e0e0e0"/><rect width="7.998" height="5" x="20.008" y="52" rx="2" style="opacity:.2"/><rect width="7.998" height="5" x="30.006" y="52" rx="2" style="opacity:.2"/><rect width="8" height="4" x="10" y="52" rx="2" style="fill:#81d4fa"/><rect width="8" height="4" x="20" y="52" rx="2" style="fill:#e0e0e0"/><rect width="8" height="4" x="30" y="52" rx="2" style="fill:#e0e0e0"/><rect width="4" height="3" x="24" y="42" rx="1" style="opacity:.2"/><rect width="4" height="3" x="30" y="42" rx="1" style="opacity:.2"/><rect width="4" height="3" x="36" y="42" rx=".999" style="opacity:.2"/><rect width="4" height="3" x="42" y="42" rx=".999" ry="1" style="opacity:.2"/><rect width="4" height="2" x="18" y="42" rx="1" style="fill:#e0e0e0"/><rect width="4" height="2" x="24" y="42" rx="1" style="fill:#e0e0e0"/><rect width="4" height="2" x="30" y="42" rx="1" style="fill:#e0e0e0"/><rect width="4" height="2" x="36" y="42" rx="1" style="fill:#e0e0e0"/><rect width="4" height="2" x="42" y="42" rx="1" ry="2" style="fill:#e0e0e0"/><path d="M22 58c-1.108 0-2 .892-2 2h8c0-1.108-.892-2-2-2zm10 0c-1.108 0-2 .892-2 2h8c0-1.108-.892-2-2-2z" style="fill:#e0e0e0"/><path d="M12 58c-.918 0-1.763.612-2 1.453a4 4 0 0 0 1.926.547H18c0-1.108-.966-2-2.074-2z" style="fill:#69f0ae"/><path d="M32 4a74.885 74.869 0 0 0-3.998.107c-8.348.447-13.617 2.244-16.638 3.738A6.646 6.644 0 0 0 8.011 14v1a6.646 6.644 0 0 1 3.353-6.155c3.02-1.494 8.29-3.292 16.638-3.738a74.885 74.869 0 0 1 7.996 0c8.348.446 13.617 2.244 16.638 3.738a6.646 6.644 0 0 1 3.353 5.438V14a6.646 6.644 0 0 0-3.353-6.155c-3.02-1.494-8.29-3.291-16.638-3.738A74.885 74.869 0 0 0 32 4" style="fill:#fff;opacity:.2"/></svg>