<svg xmlns="http://www.w3.org/2000/svg" width="64" height="64"><rect width="56" height="46" x="4" y="10" rx="2.8" ry="2.8" style="opacity:.2"/><rect width="56" height="46" x="4" y="9" rx="2.8" ry="2.8" style="fill:#4f4f4f"/><path d="M9.5 13A2.495 2.495 0 0 0 7 15.5V24l6 9V19h18l-8-6ZM31 19h12v34h9V19h5v-3.5c0-1.385-1.115-2.5-2.5-2.5H40ZM13 33l-6 8v9.5C7 51.885 8.115 53 9.5 53H23l8-6H13Z" style="opacity:.2"/><path d="M9.5 12A2.495 2.495 0 0 0 7 14.5V23l6 9V18h18l-8-6zM31 18h12v34h9V18h5v-3.5c0-1.385-1.115-2.5-2.5-2.5H40zM13 32l-6 8v9.5C7 50.885 8.115 52 9.5 52H23l8-6H13z" style="fill:#e4e4e4"/><path d="M6.8 9C5.25 9 4 10.25 4 11.801v1A2.796 2.796 0 0 1 6.8 10h50.4a2.796 2.796 0 0 1 2.8 2.801v-1A2.796 2.796 0 0 0 57.199 9z" style="fill:#fff;opacity:.1"/></svg>