<svg xmlns="http://www.w3.org/2000/svg" width="64" height="64"><path d="M32.5 5C23.359 5 16 12.324 16 21.465V39h5V21.465C21 14.863 25.898 10 32.5 10S44.185 14.865 44 21.465V39h5V21.465C49 12.324 41.641 5 32.5 5" style="opacity:.2;fill-rule:evenodd"/><rect width="39" height="31" x="13" y="30" rx="2.786" ry="2.818" style="opacity:.2"/><path d="M32.5 4C23.359 4 16 11.324 16 20.465V38h5V20.465C21 13.863 25.898 9 32.5 9S44.185 13.865 44 20.465V38h5V20.465C49 11.324 41.641 4 32.5 4" style="fill:#adadad;fill-rule:evenodd"/><rect width="39" height="31" x="13" y="29" rx="2.786" ry="2.818" style="fill:#f74242"/><path d="M45 45.5C45 52.404 39.404 58 32.5 58S20 52.404 20 45.5 25.596 33 32.5 33 45 38.596 45 45.5" style="opacity:.2"/><path d="M45 44.5C45 51.404 39.404 57 32.5 57S20 51.404 20 44.5 25.596 32 32.5 32 45 37.596 45 44.5" style="fill:#fff"/><path d="M32.347 33.389v2.778" style="fill:none;stroke:#6c0061;stroke-width:.69444442;stroke-linecap:round;stroke-linejoin:round"/><path d="m27.497 37.528 4.859 8.415" style="fill:none;stroke:#e0e0e0;stroke-width:2.08333325;stroke-linecap:round;stroke-linejoin:round"/><path d="M32.356 36.227v9.716" style="fill:none;stroke:#bfbfbf;stroke-width:2.08333325;stroke-linecap:round;stroke-linejoin:round"/><path d="m37.214 37.528-4.858 8.415" style="fill:none;stroke:gray;stroke-width:2.08333325;stroke-linecap:round;stroke-linejoin:round"/><path d="m25.936 42.236 6.42 3.707 8.414-4.858" style="fill:none;stroke:#444;stroke-width:2.08333325;stroke-linecap:round;stroke-linejoin:round"/><path d="M32.347 52.833v2.778m11.264-10.958h-2.778m-16.666 0h-2.778" style="fill:none;stroke:#6c0061;stroke-width:.69444442;stroke-linecap:round;stroke-linejoin:round"/><path d="M32.5 4C23.359 4 16 11.324 16 20.465v1C16 12.324 23.359 5 32.5 5S49 12.324 49 21.465v-1C49 11.324 41.641 4 32.5 4" style="fill:#fff;fill-rule:evenodd;opacity:.2"/><path d="M15.785 29C14.242 29 13 30.257 13 31.818v1C13 31.258 14.242 30 15.785 30h33.43C50.758 30 52 31.257 52 32.818v-1C52 30.258 50.758 29 49.215 29z" style="fill:#fff;opacity:.2"/></svg>