<svg xmlns="http://www.w3.org/2000/svg" width="64" height="64"><rect width="57" height="57" x="3" y="4" rx="2.85" ry="2.85" style="opacity:.2"/><rect width="57" height="57" x="3" y="3" rx="2.85" ry="2.85" style="fill:#7d7d7d"/><path d="M14 9v11h4v9h11v-9h4V9Zm25 0v4h11V9Zm0 7v13h11V16ZM8.25 33C7.003 33 6 33.93 6 35.084v20.832C6 57.07 7.003 58 8.25 58h1.5c1.246 0 2.25-.93 2.25-2.084V35.084C12 33.93 10.996 33 9.75 33Zm9 0c-1.247 0-2.25.93-2.25 2.084v20.832C15 57.07 16.003 58 17.25 58h1.5c1.247 0 2.25-.93 2.25-2.084V35.084C21 33.93 19.997 33 18.75 33Zm9 0c-1.247 0-2.25.93-2.25 2.084v20.832C24 57.07 25.003 58 26.25 58h1.5c1.247 0 2.25-.93 2.25-2.084V35.084C30 33.93 28.997 33 27.75 33Zm9 0c-1.246 0-2.25.93-2.25 2.084v20.832C33 57.07 34.004 58 35.25 58h1.5c1.246 0 2.25-.93 2.25-2.084V35.084C39 33.93 37.996 33 36.75 33Zm9 0c-1.246 0-2.25.93-2.25 2.084v20.832C42 57.07 43.004 58 44.25 58h1.5c1.246 0 2.25-.93 2.25-2.084V35.084C48 33.93 46.996 33 45.75 33Zm9 0c-1.246 0-2.25.93-2.25 2.084v20.832C51 57.07 52.004 58 53.25 58h1.5c1.246 0 2.25-.93 2.25-2.084V35.084C57 33.93 55.996 33 54.75 33Z" style="opacity:.2"/><rect width="6" height="25" x="6" y="32" rx="2.25" ry="2.083" style="fill:#fff"/><path d="M18 8h11v20H18z" style="fill:#17d4e4"/><path d="M8-33h11v19H8z" style="fill:#17d4e4" transform="rotate(90)"/><path d="M39 15h11v13H39zm0-7h11v4H39z" style="fill:#17d4e4"/><rect width="6" height="25" x="15" y="32" rx="2.25" ry="2.083" style="fill:#fff"/><rect width="6" height="25" x="24" y="32" rx="2.25" ry="2.083" style="fill:#fff"/><rect width="6" height="25" x="33" y="32" rx="2.25" ry="2.083" style="fill:#fff"/><rect width="6" height="25" x="42" y="32" rx="2.25" ry="2.083" style="fill:#fff"/><rect width="6" height="25" x="51" y="32" rx="2.25" ry="2.083" style="fill:#fff"/><rect width="6" height="14" x="11" y="32" rx="2.25" ry="2.1" style="fill:#4f4f4f"/><rect width="6" height="14" x="20" y="32" rx="2.25" ry="2.1" style="fill:#4f4f4f"/><rect width="6" height="14" x="29" y="32" rx="2.25" ry="2.1" style="fill:#4f4f4f"/><rect width="6" height="14" x="47" y="32" rx="2.25" ry="2.1" style="fill:#4f4f4f"/><path d="M5.85 3A2.843 2.843 0 0 0 3 5.85v1C3 5.27 4.27 4 5.85 4h51.3C58.73 4 60 5.27 60 6.85v-1C60 4.27 58.73 3 57.15 3z" style="fill:#fff;opacity:.1"/><path d="M14 8v1h19V8zm25 0v1h11V8zm0 7v1h11v-1z" style="opacity:.2;fill:#fff"/></svg>