<svg xmlns="http://www.w3.org/2000/svg" width="64" height="64"><path d="M4 56v2c0 1.662 1.338 3 3 3h50c1.662 0 3-1.338 3-3v-2c0 1.662-1.338 3-3 3H7c-1.662 0-3-1.338-3-3" style="opacity:.2"/><rect width="56" height="56" x="4" y="4" rx="3" ry="3" style="fill:#4f4f4f"/><path d="M14.182 1.5 2.146 27.639c.24.508.753.861 1.354.861h.453L16 2.336 28.047 28.5h.453c.601 0 1.114-.353 1.354-.861L17.818 1.5z" style="opacity:.2" transform="translate(0 2)scale(1.99999)"/><path d="M14.182 2 2 28.459v.041c0 .828.665 1.496 1.492 1.5L16 2.836 28.508 30A1.497 1.497 0 0 0 30 28.5v-.041L17.818 2z" style="fill:#ed5050" transform="scale(1.99999)"/><path d="M6.844 5.032A2.98 2.98 0 0 0 4.016 7.86L29.17 33.016 4.51 57.676v.004A2.99 2.99 0 0 0 7 59h1.843L32 35.844 55.155 59h1.844a2.99 2.99 0 0 0 2.488-1.32v-.004l-24.66-24.66L59.983 7.86a2.98 2.98 0 0 0-2.828-2.828L31.999 30.187z" style="opacity:.2"/><path d="M6.844 4.016a2.98 2.98 0 0 0-2.828 2.828L29.17 32 4.016 57.156a2.98 2.98 0 0 0 2.828 2.828L32 34.828l25.155 25.156a2.98 2.98 0 0 0 2.829-2.828L34.828 32 59.984 6.844a2.98 2.98 0 0 0-2.828-2.828L32 29.172z" style="fill:#70ed50"/><path d="M7 5C5.338 5 4 6.338 4 8v1h26v50h4V9h26V8c0-1.662-1.338-3-3-3z" style="opacity:.2"/><path d="M7 4C5.338 4 4 5.338 4 7v1h26v52h4V8h26V7c0-1.662-1.338-3-3-3z" style="fill:#5093ed"/><path d="M7 4C5.338 4 4 5.338 4 7v1c0-1.662 1.338-3 3-3h50c1.662 0 3 1.338 3 3V7c0-1.662-1.338-3-3-3z" style="opacity:.1;fill:#fff"/></svg>