<svg xmlns="http://www.w3.org/2000/svg" width="64" height="64"><rect width="56" height="56" x="4" y="5" ry="4.2" style="opacity:.2"/><rect width="56" height="56" x="4" y="4" ry="4.2" style="fill:#00aefc"/><path d="M13 22v5h6v17h5V27h6v-5zm20 0v16.7c0 1.533.817 3 2.05 3.925C36.285 43.55 37.884 44 39.7 44H50v-5H39.7c-.984 0-1.483-.25-1.65-.375l-.05-.04V22Z" style="opacity:.2"/><path d="M13 21h17v5H13z" style="fill:#fff"/><path d="M26-24h17v5H26z" style="fill:#fff" transform="rotate(90)"/><path d="M35.5 21v16.7c0 1.4 1.4 2.8 4.2 2.8H50" style="fill:none;stroke:#fbfbfb;stroke-width:5"/><path d="M8.2 4A4.19 4.19 0 0 0 4 8.2v1A4.19 4.19 0 0 1 8.2 5h47.6A4.19 4.19 0 0 1 60 9.2v-1A4.19 4.19 0 0 0 55.8 4z" style="fill:#fff;opacity:.2"/></svg>