<svg xmlns="http://www.w3.org/2000/svg" width="64" height="64"><rect width="56" height="40" x="4" y="9" rx="2" ry="2" style="opacity:.2"/><rect width="56" height="4" x="4" y="52" rx="2" ry="2" style="opacity:.2"/><rect width="56" height="40" x="4" y="8" fill="#4f4f4f" rx="2" ry="2"/><path d="M35 13 19 32h13l-2 13 15-18H32Zm-25 5v21h6V18Zm9 0v10.895l6-7.125V18Zm20 0v7h6v-7Zm9 0v21h6V18Zm-3 12.123-6 7.201V39h6ZM19 34v5h6v-5Z" style="opacity:.1"/><path d="M19 17v10.895l6-7.125V17zm0 16v5h6v-5z" style="fill:#f57524"/><rect width="56" height="4" x="4" y="51" fill="#4f4f4f" rx="2" ry="2"/><path d="M39 17v7h6v-7zm6 12.123-6 7.201V38h6z" style="fill:#16be71"/><path fill="#f6a500" d="M35 12 19 31h13l-2 13 15-18H32Z"/><path fill="#05ac9c" d="M48 17h6v21h-6z"/><path d="M10 17h6v21h-6z" style="fill:#e74b32"/><path d="M6 8c-1.108 0-2 .892-2 2v1c0-1.108.892-2 2-2h52c1.108 0 2 .892 2 2v-1c0-1.108-.892-2-2-2Zm0 43c-1.108 0-2 .892-2 2 0 .174.029.339.07.5A1.99 1.99 0 0 1 6 52h52a1.99 1.99 0 0 1 1.93 1.5c.041-.161.07-.326.07-.5 0-1.108-.892-2-2-2Z" style="opacity:.1;fill:#fff"/><path fill="#f6a500" d="M35 12 19 31h13l-2 13 15-18H32Z"/><path d="M35 12 19 31h.842l14.871-17.658zm-25 5v1h6v-1zm9 0v1h6v-1zm20 0v1h6v-1zm9 0v1h6v-1zm-15.785 9L32 27h12.166L45 26zM45 29.123l-6 7.201v1l6-7.201zM19 33v1h6v-1z" style="fill:#fff;opacity:.2"/></svg>