<svg xmlns="http://www.w3.org/2000/svg" width="64" height="64"><circle cx="32" cy="33" r="28" style="opacity:.2"/><circle cx="32" cy="32" r="28" style="fill:#50beee"/><path d="M39 27c1.743 7.466 5.402 10.156 7 11 .595.315.985.384 1 .5.016.117-.34.486-1 .5-1.589.035-5.437-1.494-9-6-4.124-5.216-2-6-2-6Zm-14 0c-1.79 7.667-5.219 10.209-7 11-.6.266-.986.392-1 .5-.015.116.332.483 1 .5 1.632.042 5.421-1.474 9-6 4.124-5.216 2-6 2-6Z" style="opacity:.2"/><path d="M39 26c1.743 7.466 5.402 10.156 7 11 .595.315.985.384 1 .5.016.117-.34.486-1 .5-1.589.035-5.437-1.494-9-6-4.124-5.216-2-6-2-6Zm-14 0c-1.79 7.667-5.219 10.209-7 11-.6.266-.986.392-1 .5-.015.116.332.483 1 .5 1.632.042 5.421-1.474 9-6 4.124-5.216 2-6 2-6Z" style="fill:#e4e4e4"/><path d="M42 17c3 0 6 3 6 6v4c0 1.488-1.423 3-3 3h-7l-.01 5.095L38 40c.003 1.256.278 2.145.278 2.145.653 1.452 1.792 3.044 3.761 3.258.99.108 2.535-.342 2.809-.639.157-.17.152-.486.152-.764 0-.5 0-1 1-1 .133 0 .317.035.487.062.367.057.521.162.513.438-.016.538-.566 1.422-.774 1.726C47.417 45.435 48 45.46 48 46c0 .565-.287 1-1 1-.49 0-.563-.361-1.309-.123C43.723 47.505 42 49 36 49c-3 0-7.611-3.2-9-6-.992-1.999-.961-4.908-.975-7.885L26 30h-4c-3 0-5.994-3-5.996-6.043L16 20c0-1.46 1.598-3 3-3Z" style="opacity:.2"/><path d="M42 16c3 0 6 3 6 6v4c0 1.488-1.423 3-3 3h-7l-.01 5.095L38 39c.003 1.256.278 2.145.278 2.145.653 1.452 1.792 3.044 3.761 3.258.99.108 2.535-.342 2.809-.639.157-.17.152-.486.152-.764 0-.5 0-1 1-1 .133 0 .317.035.487.062.367.057.521.162.513.438-.016.538-.566 1.422-.774 1.726C47.417 44.435 48 44.46 48 45c0 .565-.287 1-1 1-.49 0-.563-.361-1.309-.123C43.723 46.505 42 48 36 48c-3 0-7.611-3.2-9-6-.992-1.999-.961-4.908-.975-7.885L26 29h-4c-3 0-5.994-3-5.996-6.043L16 19c0-1.46 1.598-3 3-3Z" style="fill:#4f4f4d"/><ellipse cx="-5.179" cy="44.499" rx="2.225" ry="1.746" style="opacity:.1" transform="matrix(.55937 -.82892 .89658 .44287 0 0)"/><ellipse cx="-4.274" cy="43.934" rx="2.225" ry="1.746" style="fill:#e4e4e4" transform="matrix(.55937 -.82892 .89658 .44287 0 0)"/><ellipse cx="-34.229" cy="-9.874" rx="2.225" ry="1.746" style="opacity:.1" transform="rotate(63.713)scale(-.99093 1)skewY(7.656)"/><ellipse cx="-33.324" cy="-10.439" rx="2.225" ry="1.746" style="fill:#e4e4e4" transform="rotate(63.713)scale(-.99092 1)skewY(7.656)"/><path d="M32 4C16.488 4 4 16.488 4 32c0 .113.011.224.018.336C4.369 17.134 16.71 5 32 5s27.63 12.134 27.982 27.336c.007-.112.018-.223.018-.336C60 16.488 47.512 4 32 4" style="fill:#fff;opacity:.2"/><path d="M19 16c-1.402 0-3 1.54-3 3v.984C16.011 18.529 17.603 17 19 17h23c3 0 6 3 6 6v-1c0-3-3-6-6-6zm18.992 18.586-.002.51L38 40c.003 1.256.277 2.145.277 2.145.653 1.452 1.793 3.043 3.762 3.257.99.108 2.535-.341 2.809-.638.157-.17.152-.486.152-.764 0-.5 0-1 1-1 .133 0 .316.036.486.062.143.023.245.056.326.1.101-.236.182-.471.188-.662.008-.276-.147-.381-.514-.438-.17-.026-.353-.062-.486-.062-1 0-1 .5-1 1 0 .278.005.594-.152.764-.274.297-1.819.746-2.809.638-1.969-.214-3.109-1.805-3.762-3.257 0 0-.274-.889-.277-2.145zm8.752 9.728c-.178.378-.399.74-.517.913.823.144 1.349.202 1.599.402.117-.171.174-.386.174-.629 0-.45-.43-.546-1.256-.686" style="fill:#fff;opacity:.1"/></svg>