<svg xmlns="http://www.w3.org/2000/svg" width="64" height="64"><rect width="42" height="58" x="11" y="4" rx="3" ry="2.9" style="opacity:.2"/><rect width="42" height="58" x="11" y="3" rx="3" ry="2.9" style="fill:#5d6c7b"/><path d="M17 7h30v18H17z" style="fill:#b0ee80"/><circle cx="22" cy="55" r="3" style="opacity:.2"/><circle cx="22" cy="54" r="3" style="fill:#ef5c51"/><circle cx="32" cy="55" r="3" style="opacity:.2"/><circle cx="32" cy="54" r="3" style="fill:#c5e7fb"/><circle cx="42" cy="55" r="3" style="opacity:.2"/><circle cx="42" cy="54" r="3" style="fill:#c5e7fb"/><circle cx="50.205" cy="4.95" r="11" style="opacity:.2" transform="rotate(45)"/><circle cx="49.497" cy="4.243" r="11" style="fill:#fff" transform="rotate(45)"/><path d="M39.778 30.222a11 11 0 0 0-1.042-.902l-4.791 4.79a1.375 1.375 0 1 0 1.944 1.945l4.793-4.793a11 11 0 0 0-.904-1.04" style="fill:#129eee"/><path d="M30 9h3v14h-3zm-5 0h3v8.4h-3z" style="fill:#44525e"/><path d="M15-32h3v7h-3z" style="fill:#44525e" transform="rotate(90)"/><path d="M41 9h3v9h-3zm-5 6h3v8h-3z" style="fill:#44525e"/><path d="M15-43h3v7h-3zm-6 0h3v7H9zm11-1.33h3v7h-3z" style="fill:#44525e" transform="rotate(90)"/><path d="M14 3c-1.662 0-3 1.292-3 2.898v1C11 5.292 12.338 4 14 4h36c1.662 0 3 1.292 3 2.898v-1C53 4.292 51.662 3 50 3z" style="opacity:.1;fill:#fff"/><path d="M17 7h30v1H17z" style="opacity:.2"/><path d="M17 25h30v1H17z" style="opacity:.1;fill:#fff"/></svg>