<svg xmlns="http://www.w3.org/2000/svg" xmlns:xlink="http://www.w3.org/1999/xlink" width="64" height="64"><defs><filter id="c" width="1.154" height="1.154" x="-.077" y="-.077" style="color-interpolation-filters:sRGB"><feGaussianBlur stdDeviation="1.559"/></filter><filter id="d" width="1.151" height="1.076" x="-.075" y="-.038" style="color-interpolation-filters:sRGB"><feGaussianBlur stdDeviation=".705"/></filter><radialGradient xlink:href="#a" id="b" cx="12.546" cy="81.334" r="28" fx="12.546" fy="81.334" gradientTransform="rotate(-90 -14.287 106.759)scale(2.27507)" gradientUnits="userSpaceOnUse"/><linearGradient id="a"><stop offset="0" style="stop-color:#32c77a;stop-opacity:1"/><stop offset="1" style="stop-color:#35a9b4;stop-opacity:1"/></linearGradient></defs><path d="M32 5.237C17.22 5.237 5.237 17.22 5.237 32S17.22 58.763 32 58.763 58.763 46.781 58.763 32C58.763 17.22 46.78 5.237 32 5.237" style="fill:#fff;fill-opacity:1;stroke-width:.955806"/><path d="M32 4.244C16.671 4.244 4.244 16.671 4.244 32S16.671 59.756 32 59.756 59.756 47.329 59.756 32 47.329 4.244 32 4.244M33.921 8.3q.108-.003.219.006C46.256 9.391 55.79 19.607 55.79 32s-9.534 22.61-21.65 23.695c-1.178.105-2.14-.863-2.14-2.046 0-1.136.962-2.046 2.137-2.172C43.971 50.417 51.59 42.122 51.59 32s-7.619-18.416-17.453-19.477C32.962 12.397 32 11.451 32 10.268c0-1.065.845-1.95 1.921-1.97m-.002 7.969q.107 0 .216.015C41.865 17.332 47.86 23.99 47.86 32s-5.993 14.668-13.724 15.717c-1.171.159-2.135-.817-2.135-2v-.041c0-1.183.97-2.122 2.13-2.336a11.49 11.49 0 0 0 9.21-9.21c.214-1.16.214-3.1 0-4.26a11.49 11.49 0 0 0-9.21-9.21c-1.16-.214-2.13-1.153-2.13-2.336v-.041c0-1.11.848-2.035 1.92-2.015m-.22 8.03q.203 0 .417.058a7.933 7.933 0 0 1 0 15.288C32.979 39.958 32 38.97 32 37.788V26.212c0-1.035.75-1.92 1.699-1.914" style="opacity:1;fill:url(#b);stroke-width:.991241"/><path d="M32 7.17C18.287 7.17 7.17 18.287 7.17 32S18.287 56.83 32 56.83 56.83 45.713 56.83 32 45.713 7.17 32 7.17Z" style="mix-blend-mode:normal;fill:none;stroke:#000;stroke-width:.17892;stroke-dasharray:none;stroke-opacity:1;filter:url(#c)" transform="translate(-3.77 -3.77)scale(1.11782)"/><path d="M33.92 8.298q.108-.002.218.007C46.255 9.39 55.79 19.607 55.79 32c0 12.392-9.535 22.609-21.652 23.694-1.177.106-2.14-.862-2.14-2.045 0-1.137.963-2.046 2.138-2.173C43.97 50.416 51.59 42.122 51.59 32s-7.62-18.417-17.453-19.477C32.961 12.396 32 11.45 32 10.268c0-1.066.845-1.95 1.921-1.97zm-.002 7.97q.107 0 .216.014c7.73 1.05 13.724 7.708 13.724 15.718s-5.993 14.668-13.724 15.717c-1.171.159-2.135-.817-2.135-2v-.042c0-1.182.97-2.121 2.13-2.336a11.49 11.49 0 0 0 9.21-9.209c.214-1.161.214-3.1 0-4.261a11.49 11.49 0 0 0-9.21-9.21c-1.16-.214-2.13-1.152-2.13-2.335v-.042c0-1.109.848-2.034 1.919-2.015zm-.22 8.03q.203 0 .416.058a7.933 7.933 0 0 1 0 15.287C32.978 39.957 32 38.97 32 37.787V26.212c0-1.035.75-1.92 1.699-1.915z" style="opacity:1;fill:none;stroke:#004eff;stroke-width:.2;stroke-dasharray:none;stroke-opacity:1;filter:url(#d)"/></svg>