<svg xmlns="http://www.w3.org/2000/svg" width="64" height="64"><path d="M32 4.998c-4.432 0-8 3.568-8 8v9.34l-3.543-3.543a6.11 6.11 0 0 0-8.66 0 6.11 6.11 0 0 0 0 8.66L23.34 38.998 11.797 50.541a6.11 6.11 0 0 0 0 8.66 6.11 6.11 0 0 0 8.66 0l7.39-7.39c1.213.738 2.624 1.187 4.153 1.187s2.94-.45 4.152-1.187l7.391 7.39a6.11 6.11 0 0 0 8.66 0 6.11 6.11 0 0 0 0-8.66L40.66 38.998l11.543-11.543a6.11 6.11 0 0 0 0-8.66 6.11 6.11 0 0 0-8.66 0L40 22.338v-9.34c0-4.432-3.568-8-8-8" style="opacity:.2"/><path d="M32 4c-4.432 0-8 3.568-8 8v9.34l-3.543-3.543a6.11 6.11 0 0 0-8.66 0 6.11 6.11 0 0 0 0 8.66L23.34 38 11.797 49.543a6.11 6.11 0 0 0 0 8.66 6.11 6.11 0 0 0 8.66 0l7.39-7.39C29.06 51.55 30.472 52 32 52s2.94-.45 4.152-1.187l7.391 7.39a6.11 6.11 0 0 0 8.66 0 6.11 6.11 0 0 0 0-8.66L40.66 38l11.543-11.543a6.11 6.11 0 0 0 0-8.66 6.11 6.11 0 0 0-8.66 0L40 21.34V12c0-4.432-3.568-8-8-8" style="fill:#2d5a37"/><path d="M32 4c-4.432 0-8 3.568-8 8v1c0-4.432 3.568-8 8-8s8 3.568 8 8v-1c0-4.432-3.568-8-8-8M16.125 16a6.1 6.1 0 0 0-4.328 1.797 6.08 6.08 0 0 0-1.76 4.8 6.06 6.06 0 0 1 1.76-3.8A6.1 6.1 0 0 1 16.125 17c1.565 0 3.133.598 4.332 1.797L24 22.34v-1l-3.543-3.543A6.1 6.1 0 0 0 16.125 16m31.746 0a6.1 6.1 0 0 0-4.328 1.797L40 21.34v1l3.543-3.543A6.1 6.1 0 0 1 47.871 17c1.566 0 3.133.598 4.332 1.797a6.06 6.06 0 0 1 1.76 3.8 6.08 6.08 0 0 0-1.76-4.8A6.1 6.1 0 0 0 47.871 16M22.34 39 11.797 49.543a6.08 6.08 0 0 0-1.76 4.8 6.06 6.06 0 0 1 1.76-3.8L22.34 40l.5.5.5-.5zm19.32 0-1 1 .5.5.5-.5 10.543 10.543a6.06 6.06 0 0 1 1.76 3.8 6.08 6.08 0 0 0-1.76-4.8z" style="opacity:.1;fill:#fff"/><rect width="42" height="40" x="-59" y="-52" rx="21" ry="20" style="opacity:.2" transform="rotate(90)scale(-1 1)"/><rect width="42" height="40" x="-58" y="-52" rx="21" ry="20" style="fill:#6d7481" transform="rotate(90)scale(-1 1)"/><path d="M21.058 26.942a2 2 0 0 0-2.027 2.031h-.004v7.688l-.004.02-.008.07a2 2 0 0 0-.011.163 2 2 0 0 0 .003.18l.008.094.012.101v7.684a2 2 0 0 0 .027.34 2 2 0 0 0 .043.195 2 2 0 0 0 .059.188v.008a2 2 0 0 0 .074.171l.004.012a2 2 0 0 0 .098.168 2 2 0 0 0 .113.164 2 2 0 0 0 .129.153 2 2 0 0 0 .133.132l.011.008.004.004a2 2 0 0 0 .153.117 2 2 0 0 0 .164.106l.011.008a2 2 0 0 0 .121.058l.075.035a2 2 0 0 0 .164.063 2 2 0 0 0 .344.078l.097.012h.031a2 2 0 0 0 .149.008 2 2 0 0 0 .144-.008h.032l.097-.012a2 2 0 0 0 .344-.078 2 2 0 0 0 .18-.07h.004l.012-.004a2 2 0 0 0 .164-.086h.004l.007-.004a2 2 0 0 0 .317-.223l.015-.012a2 2 0 0 0 .133-.133 2 2 0 0 0 .13-.152 2 2 0 0 0 .112-.164 2 2 0 0 0 .098-.168l.004-.012a2 2 0 0 0 .074-.172v-.007a2 2 0 0 0 .059-.188 2 2 0 0 0 .043-.195 2 2 0 0 0 .027-.34v-6h3.996v6a2 2 0 0 0 .028.34 2 2 0 0 0 .043.195 2 2 0 0 0 .058.188v.007a2 2 0 0 0 .074.172l.004.012a2 2 0 0 0 .098.168 2 2 0 0 0 .113.164 2 2 0 0 0 .13.152 2 2 0 0 0 .132.133l.012.008.004.004a2 2 0 0 0 .152.117 2 2 0 0 0 .164.106l.008.004.004.004a2 2 0 0 0 .121.058l.05.028.024.007a2 2 0 0 0 .164.063 2 2 0 0 0 .344.078l.098.012h.031a2 2 0 0 0 .149.008 2 2 0 0 0 .144-.008h.031l.098-.012a2 2 0 0 0 .344-.078 2 2 0 0 0 .18-.07h.003l.012-.004a2 2 0 0 0 .164-.086h.004l.008-.004a2 2 0 0 0 .316-.223l.004-.004.012-.008a2 2 0 0 0 .133-.133 2 2 0 0 0 .129-.152 2 2 0 0 0 .113-.164 2 2 0 0 0 .098-.168v-.004l.004-.008a2 2 0 0 0 .074-.172v-.008a2 2 0 0 0 .059-.187 2 2 0 0 0 .043-.196 2 2 0 0 0 .027-.34V37.29l.012-.102.008-.093.004-.11-.004-.117v-.028a2 2 0 0 0-.02-.163v-7.703h-.004A2 2 0 0 0 29 26.942a2 2 0 0 0-1.348.554 2 2 0 0 0-.14.145 2 2 0 0 0-.098.125l-.067.09-.023.035a2 2 0 0 0-.297 1.39v5.692h-3.996v-5.691a2 2 0 0 0-.297-1.391l-.004-.008-.059-.086-.027-.031a2 2 0 0 0-.098-.125 2 2 0 0 0-.14-.145 2 2 0 0 0-1.348-.554M39 31a6 6 0 0 0-6 6 6 6 0 0 0 6 6 6 6 0 0 0 1.484-.195c-.044.167-.072.364-.125.516-.287.824-.648 1.316-1.004 1.554-.356.24-.82.406-1.941.168a2 2 0 1 0-.828 3.914c1.878.399 3.665.134 4.996-.757 1.33-.892 2.095-2.232 2.558-3.567C45.067 41.965 45 39 45 37a2 2 0 0 0-.012-.23A6 6 0 0 0 39 31m0 4a2 2 0 0 1 2 2 2 2 0 0 1-2 2 2 2 0 0 1-2-2 2 2 0 0 1 2-2" style="opacity:.2"/><path d="M21.058 25.941a2 2 0 0 0-2.027 2.032h-.004v7.687l-.004.02-.008.07a2 2 0 0 0-.011.164 2 2 0 0 0 .003.18l.008.094.012.101v7.684a2 2 0 0 0 .027.34 2 2 0 0 0 .043.195 2 2 0 0 0 .059.187v.008a2 2 0 0 0 .074.172l.004.012a2 2 0 0 0 .098.168 2 2 0 0 0 .113.164 2 2 0 0 0 .129.152 2 2 0 0 0 .133.133l.011.008.004.004a2 2 0 0 0 .153.117 2 2 0 0 0 .164.105l.011.008a2 2 0 0 0 .121.059l.075.035a2 2 0 0 0 .164.063 2 2 0 0 0 .344.078l.097.011h.031a2 2 0 0 0 .149.008 2 2 0 0 0 .144-.008h.032l.097-.011a2 2 0 0 0 .344-.078 2 2 0 0 0 .18-.07h.004l.012-.005a2 2 0 0 0 .164-.086h.004l.007-.004a2 2 0 0 0 .317-.222l.015-.012a2 2 0 0 0 .133-.133 2 2 0 0 0 .13-.152 2 2 0 0 0 .112-.164 2 2 0 0 0 .098-.168l.004-.012a2 2 0 0 0 .074-.172v-.008a2 2 0 0 0 .059-.187 2 2 0 0 0 .043-.196 2 2 0 0 0 .027-.34v-6h3.996v6a2 2 0 0 0 .028.34 2 2 0 0 0 .043.196 2 2 0 0 0 .058.187v.008a2 2 0 0 0 .074.172l.004.012a2 2 0 0 0 .098.168 2 2 0 0 0 .113.164 2 2 0 0 0 .13.152 2 2 0 0 0 .132.133l.012.008.004.004a2 2 0 0 0 .152.117 2 2 0 0 0 .164.105l.008.004.004.004a2 2 0 0 0 .121.059l.05.027.024.008a2 2 0 0 0 .164.062 2 2 0 0 0 .344.079l.098.011h.031a2 2 0 0 0 .149.008 2 2 0 0 0 .144-.008h.031l.098-.011a2 2 0 0 0 .344-.079 2 2 0 0 0 .18-.07h.003l.012-.004a2 2 0 0 0 .164-.086h.004l.008-.004a2 2 0 0 0 .316-.222l.004-.004.012-.008a2 2 0 0 0 .133-.133 2 2 0 0 0 .129-.152 2 2 0 0 0 .113-.164 2 2 0 0 0 .098-.168v-.004l.004-.008a2 2 0 0 0 .074-.172v-.008a2 2 0 0 0 .059-.188 2 2 0 0 0 .043-.195 2 2 0 0 0 .027-.34V36.29l.012-.102.008-.094.004-.109-.004-.117v-.028a2 2 0 0 0-.02-.164v-7.703h-.004A2 2 0 0 0 29 25.942a2 2 0 0 0-1.348.554 2 2 0 0 0-.14.145 2 2 0 0 0-.098.125l-.067.09-.023.035a2 2 0 0 0-.297 1.39v5.692h-3.996V28.28a2 2 0 0 0-.297-1.39l-.004-.008-.059-.086-.027-.031a2 2 0 0 0-.098-.125 2 2 0 0 0-.14-.145 2 2 0 0 0-1.348-.555M39 30a6 6 0 0 0-6 6 6 6 0 0 0 6 6 6 6 0 0 0 1.484-.195c-.044.167-.072.364-.125.515-.287.825-.648 1.316-1.004 1.555s-.82.406-1.941.168a2 2 0 1 0-.828 3.914c1.878.399 3.665.134 4.996-.758 1.33-.892 2.095-2.232 2.558-3.566C45.067 40.964 45 38 45 36a2 2 0 0 0-.012-.23A6 6 0 0 0 39 30m0 4a2 2 0 0 1 2 2 2 2 0 0 1-2 2 2 2 0 0 1-2-2 2 2 0 0 1 2-2" style="fill:#c4c4c4"/></svg>