<svg xmlns="http://www.w3.org/2000/svg" width="64" height="64"><path d="M9.25 5C6.372 5 4 7.372 4 10.25v45.5C4 58.628 6.372 61 9.25 61h45.5c2.878 0 5.25-2.372 5.25-5.25v-45.5C60 7.372 57.628 5 54.75 5Zm.476 4.013h44.548c.978 0 1.714.734 1.714 1.713v44.548c0 .978-.736 1.714-1.714 1.714H9.726c-.979 0-1.713-.736-1.713-1.714V10.726c0-.979.734-1.713 1.713-1.713" style="opacity:.2"/><path d="M9.25 4C6.372 4 4 6.372 4 9.25v45.5C4 57.628 6.372 60 9.25 60h45.5c2.878 0 5.25-2.372 5.25-5.25V9.25C60 6.372 57.628 4 54.75 4Zm.476 4.013h44.548c.978 0 1.714.734 1.714 1.713v44.548c0 .978-.736 1.714-1.714 1.714H9.726c-.979 0-1.713-.736-1.713-1.714V9.726c0-.979.734-1.713 1.713-1.713" style="fill:#d35cc6"/><path d="M9.25 4C6.372 4 4 6.372 4 9.25v1C4 7.372 6.372 5 9.25 5h45.5C57.628 5 60 7.372 60 10.25v-1C60 6.372 57.628 4 54.75 4ZM8.012 54.274v1c0 .978.736 1.714 1.715 1.714h44.547c.978 0 1.714-.736 1.714-1.714v-1c0 .978-.736 1.714-1.714 1.714H9.727c-.979 0-1.715-.736-1.715-1.714" style="opacity:.1;fill:#fff"/><path d="m42.562 25.751-3.688-8.778a1.443 1.416 0 0 1 1.216-1.951l5.664-.456a.268.263 0 0 0 .156-.458l-2.418-2.105a11.5 11.286 0 0 0-7.226-2.837l-4.662-.161a7.557 7.416 0 0 0-6.38 3.054l-.086.114a27.16 26.656 0 0 0-2.074 3.282l-2.666 4.988A20.954 20.564 0 0 0 18 29.995v2.216a.805.79 0 0 0 1.012.762l22.938-6.006a.92.902 0 0 0 .612-1.216" style="opacity:.2"/><path d="m42.562 24.751-3.688-8.778a1.443 1.416 0 0 1 1.216-1.951l5.664-.456a.268.263 0 0 0 .156-.458l-2.418-2.105a11.5 11.286 0 0 0-7.226-2.837l-4.662-.161a7.557 7.416 0 0 0-6.38 3.054l-.086.114a27.16 26.656 0 0 0-2.074 3.282l-2.666 4.988A20.954 20.564 0 0 0 18 28.995v2.216a.805.79 0 0 0 1.012.762l22.938-6.006a.92.902 0 0 0 .612-1.216" style="fill:#4f4f4f"/><path d="M31.604 8.005a7.6 7.6 0 0 0-6.382 3.055l-.084.115a26.5 26.5 0 0 0-2.076 3.282l-2.666 4.99A20.3 20.3 0 0 0 18 29.001v1c0-3.328.822-6.606 2.396-9.554l2.666-4.99a26.5 26.5 0 0 1 2.076-3.282l.084-.115c1.477-1.997 3.869-3.142 6.382-3.055l4.662.162a11.62 11.62 0 0 1 7.226 2.836l1.836 1.6.426-.035a.262.262 0 0 0 .156-.459l-2.418-2.106a11.62 11.62 0 0 0-7.226-2.836Z" style="opacity:.1;fill:#fff"/><path d="m14.01 14.639 1.033 9.41a2.219 2.186 0 0 0 3.076 1.776l8.805-3.699a8.894 8.762 0 0 1 2.036-.585l3.38-.551a63.135 62.2 0 0 1 2.113-.309l10.984-1.416a.647.638 0 0 0 .446-.999l-4.149-5.832a1.034 1.018 0 0 0-1.468-.23l-7.559 5.593a1.696 1.671 0 0 1-.716.308l-1.828.326a2.16 2.128 0 0 1-1.257-.147l-12.449-5.408a1.75 1.724 0 0 0-2.447 1.763" style="fill:#e4e4e4"/><path d="M41.048 12.013a1.034 1.018 0 0 0-.783.191l-7.558 5.594a1.696 1.671 0 0 1-.717.308l-1.828.327a2.16 2.128 0 0 1-1.256-.147l-12.449-5.41a1.75 1.724 0 0 0-2.447 1.764l.043.396a1.75 1.724 0 0 1 2.404-1.16l12.449 5.41a2.16 2.128 0 0 0 1.256.147l1.828-.327a1.696 1.671 0 0 0 .717-.308l7.558-5.594a1.034 1.018 0 0 1 1.469.231l4.041 5.681a.647.638 0 0 0 .107-.849l-4.148-5.832a1.034 1.018 0 0 0-.686-.422" style="opacity:.2;fill:#fff"/><g transform="matrix(.95704 -.28997 .2951 .95547 0 0)"><ellipse cx="21.428" cy="38.947" rx="24.886" ry="10.034" style="opacity:.2"/><ellipse cx="21.722" cy="37.989" rx="24.886" ry="10.034" style="fill:#4f4f4f"/></g><path d="M43.991 18a10.034 24.886 73.203 0 0-14.952 2.412A10.034 24.886 73.203 0 0 8.041 36.453 10.034 24.886 73.203 0 1 29.04 21.412a10.034 24.886 73.203 0 1 26.778 2.371 10.034 24.886 73.203 0 1 .141.762 10.034 24.886 73.203 0 0-.142-1.763A10.034 24.886 73.203 0 0 43.991 18" style="opacity:.1;fill:#fff"/><path d="m18.867 34.144.268 6.54a7.236 7.558 0 0 1-1.978 5.522l-3.02 3.326a.501.523 0 0 0 .331.884l8.166.568a7.212 7.533 0 0 0 4.994-1.642l.208-.174a9.698 10.13 0 0 1 4.588-2.112l3.022-.488a4.838 5.053 0 0 1 3.364.75l2.7 1.82a1.21 1.264 0 0 0 1.584-.246 11.172 11.669 0 0 0 2.574-7l.27-6.196a58.618 61.226 0 0 0-.132-7.776l-.124-1.584a1.192 1.246 0 0 0-1.152-1.144l-5.65-.178a30.96 32.336 0 0 0-9.232 1.17l-4.798 1.394c-1.436.418-3.662 1.378-4.85 2.32-.814.644-1.196 2.688-1.133 4.246" style="opacity:.2"/><path d="m18.867 33.144.268 6.54a7.236 7.558 0 0 1-1.978 5.522l-3.02 3.326a.501.523 0 0 0 .331.884l8.166.568a7.212 7.533 0 0 0 4.994-1.642l.208-.174a9.698 10.13 0 0 1 4.588-2.112l3.022-.488a4.838 5.053 0 0 1 3.364.75l2.7 1.82a1.21 1.264 0 0 0 1.584-.246 11.172 11.669 0 0 0 2.574-7l.27-6.196a58.618 61.226 0 0 0-.132-7.776l-.124-1.584a1.192 1.246 0 0 0-1.152-1.144l-5.65-.178a30.96 32.336 0 0 0-9.232 1.17l-4.798 1.394c-1.436.418-3.662 1.378-4.85 2.318-.814.646-1.196 2.69-1.133 4.248" style="fill:#ffe300"/><path d="M38.88 24.014a30.96 32.336 0 0 0-9.232 1.17L24.85 26.58c-1.438.416-3.662 1.376-4.85 2.318-.815.646-1.197 2.69-1.133 4.246l.008.202c.069-1.392.444-2.908 1.125-3.448 1.188-.942 3.412-1.902 4.85-2.318l4.798-1.396a30.96 32.336 0 0 1 9.232-1.17l5.65.178a1.192 1.246 0 0 1 1.152 1.144l.122 1.584a58.618 61.226 0 0 1 .194 4.358 58.618 61.226 0 0 0-.194-5.358l-.122-1.584a1.192 1.246 0 0 0-1.152-1.144ZM19.127 40.486a7.236 7.558 0 0 1-1.971 4.722l-3.019 3.326a.501.523 0 0 0 .156.828l2.863-3.154a7.236 7.558 0 0 0 1.979-5.524Z" style="opacity:.2;fill:#fff"/><path d="M18 57c.142-.594 2.396-2.694 4.556-4.596 2.178-1.92 6.302-4.07 9.146-4.874l1.22-.344a4.736 4.512 0 0 1 2.706.004l1.816.52a10.031 9.556 0 0 1 5.968 4.662L46 57Z" style="opacity:.2"/><path d="M18 56c.142-.594 2.396-2.694 4.556-4.596 2.178-1.92 6.302-4.07 9.146-4.874l1.22-.344a4.736 4.512 0 0 1 2.706.004l1.816.52a10.031 9.556 0 0 1 5.968 4.662L46 56Z" style="fill:#e4e4e4"/><path d="M33.82 46.02a4.736 4.512 0 0 0-.898.168l-1.218.344c-2.846.802-6.972 2.952-9.15 4.87C20.396 53.304 18.142 55.406 18 56h1.719a83 83 0 0 1 2.835-2.598c2.178-1.918 6.304-4.068 9.15-4.87l1.218-.344a4.736 4.512 0 0 1 2.706.004l1.818.52a10.031 9.556 0 0 1 5.968 4.66L44.882 56H46l-2.586-4.628a10.031 9.556 0 0 0-5.968-4.662l-1.818-.518a4.736 4.512 0 0 0-1.808-.172" style="opacity:.2;fill:#fff"/><path d="m24 35.124.068 3.986a6.69 6.69 0 0 0 2.7 5.254l1.564 1.162a7.48 7.48 0 0 0 8.848.052l2.181-1.58a6.38 6.38 0 0 0 2.638-5.224l-.032-3.816A6.01 6.01 0 0 0 35.902 29l-5.99.056A5.967 5.967 0 0 0 24 35.124" style="opacity:.2"/><path d="m24 34.124.068 3.986a6.69 6.69 0 0 0 2.7 5.254l1.564 1.162a7.48 7.48 0 0 0 8.848.052l2.181-1.58a6.38 6.38 0 0 0 2.638-5.224l-.032-3.816A6.01 6.01 0 0 0 35.902 28l-5.99.056A5.967 5.967 0 0 0 24 34.124" style="fill:#ffeedb"/></svg>