<svg xmlns="http://www.w3.org/2000/svg" width="64" height="64"><circle cx="32" cy="33" r="29" style="opacity:.2"/><circle cx="32" cy="32" r="29" style="fill:#2f66d6"/><path d="M32 12a21 21 0 0 0-21 21 21 21 0 0 0 21 21 21 21 0 0 0 21-21 21 21 0 0 0-21-21m-3 4h6v4.355a13 13 0 0 1 3.82 1.583l3.078-3.079 4.243 4.243-3.078 3.078A13 13 0 0 1 44.645 30H49v6h-4.383a13 13 0 0 1-1.562 3.813l3.086 3.085-4.243 4.243-3.086-3.086A13 13 0 0 1 35 45.617V50h-6v-4.383a13 13 0 0 1-3.812-1.562l-3.086 3.086-4.243-4.243 3.086-3.086A13 13 0 0 1 19.383 36H15v-6h4.383a13 13 0 0 1 1.562-3.812l-3.086-3.086 4.243-4.243 3.086 3.086A13 13 0 0 1 29 20.383Z" style="opacity:.2"/><path d="M32 11a21 21 0 0 0-21 21 21 21 0 0 0 21 21 21 21 0 0 0 21-21 21 21 0 0 0-21-21m-3 4h6v4.355a13 13 0 0 1 3.82 1.582l3.078-3.078 4.243 4.243-3.078 3.078A13 13 0 0 1 44.645 29H49v6h-4.383a13 13 0 0 1-1.562 3.813l3.086 3.085-4.243 4.243-3.086-3.086A13 13 0 0 1 35 44.617V49h-6v-4.383a13 13 0 0 1-3.812-1.562l-3.086 3.086-4.243-4.243 3.086-3.086A13 13 0 0 1 19.383 35H15v-6h4.383a13 13 0 0 1 1.562-3.812l-3.086-3.086 4.243-4.243 3.086 3.086A13 13 0 0 1 29 19.383Z" style="fill:#fff"/><path d="M32 3A29 29 0 0 0 3 32a29 29 0 0 0 .033.482A29 29 0 0 1 32 4a29 29 0 0 1 28.982 28.229L61 32A29 29 0 0 0 32 3" style="opacity:.1;fill:#fff"/></svg>