<svg xmlns="http://www.w3.org/2000/svg" width="64" height="64"><rect width="39" height="39" x="-59" y="-51" rx="4.179" ry="4.179" style="opacity:.2" transform="rotate(90)scale(-1 1)"/><rect width="39" height="39" x="-58" y="-51" rx="4.179" ry="4.179" style="fill:#cecece" transform="rotate(90)scale(-1 1)"/><path d="M16.178 19A4.17 4.17 0 0 0 12 23.178v1A4.17 4.17 0 0 1 16.178 20h30.644A4.17 4.17 0 0 1 51 24.178v-1A4.17 4.17 0 0 0 46.822 19Z" style="opacity:.2;fill:#fff"/><path d="M31.5 24 20 32h6v12h-6l11.5 8L43 44h-6V32h6z" style="fill:#4f4f4f"/><path d="M26-38h11v33H26z" style="fill:#7e7e7e" transform="scale(1 -1)"/><rect width="11" height="33" x="-14" y="-48" rx="5.5" ry="5.5" style="opacity:.2" transform="rotate(90)scale(-1 1)"/><rect width="11" height="33" x="-13" y="-48" rx="5.5" ry="5.5" style="fill:#db4539" transform="rotate(90)scale(-1 1)"/><path d="M20.5 2a5.49 5.49 0 0 0-5.477 6c.252-2.81 2.599-5 5.477-5h22a5.486 5.486 0 0 1 5.477 5q.022-.247.023-.5C48 4.453 45.547 2 42.5 2Z" style="opacity:.2;fill:#fff"/><path d="M26 38h11v1H26zm-4.562-7L20 32h6v-1ZM37 31v1h6l-1.437-1ZM20 44l11.5 8L43 44h-1.437L31.5 51l-10.062-7Z" style="opacity:.1"/><path d="M63 58.5C63 43.5 52.5 33 37.5 33c-2.25 0-4.5 2.25-4.5 4.5v21c0 2.25 2.25 4.5 4.5 4.5h21c2.25 0 4.5-2.25 4.5-4.5" style="opacity:.2"/><path d="M63 57.5C63 42.5 52.5 32 37.5 32c-2.25 0-4.5 2.25-4.5 4.5v21c0 2.25 2.25 4.5 4.5 4.5h21c2.25 0 4.5-2.25 4.5-4.5" style="fill:#426bcd"/><path d="M38 37v1.667c0 .917.756 1.666 1.667 1.666 8.284 0 15 6.716 15 15 0 .917.755 1.667 1.666 1.667H58v-1.667C58 45.208 49.792 37 39.667 37Z" style="fill:#fff"/><path d="M38 43.667v1.666c0 .917.756 1.667 1.667 1.667A8.333 8.333 0 0 1 48 55.333c0 .917.756 1.667 1.667 1.667h1.666v-1.667c0-6.443-5.223-11.666-11.666-11.666Z" style="fill:#fff"/><path d="M41.5 50a3.5 3.5 0 1 0 0 7 3.5 3.5 0 0 0 0-7" style="fill:#fff"/></svg>