<svg xmlns="http://www.w3.org/2000/svg" xmlns:xlink="http://www.w3.org/1999/xlink" width="64" height="64"><defs><radialGradient xlink:href="#a" id="c" cx="2.158" cy="22.664" r="21.491" fx="2.158" fy="22.664" gradientTransform="rotate(75 67.971 48.72)scale(4.21802 4.767)" gradientUnits="userSpaceOnUse"/><radialGradient id="a" cx="18.978" cy="1036.882" r="38.583" gradientTransform="translate(3.236 -910.113)scale(.9014)" gradientUnits="userSpaceOnUse"><stop offset="0" style="stop-color:#6f6f6f;stop-opacity:1"/><stop offset="1" style="stop-color:#5e5e5e;stop-opacity:1"/></radialGradient><radialGradient xlink:href="#b" id="d" cx="9.832" cy="-5.958" r="25.174" fx="9.832" fy="-5.958" gradientTransform="rotate(90.124 -11.549 -.652)scale(.36785 1.95444)" gradientUnits="userSpaceOnUse"/><radialGradient id="b" cx="11.487" cy="1016.485" r="36.125" gradientTransform="rotate(-5.816 -8929.827 -99.991)scale(.9014)" gradientUnits="userSpaceOnUse"><stop offset="0" style="stop-color:#898989;stop-opacity:1"/><stop offset="1" style="stop-color:#797979;stop-opacity:1"/></radialGradient></defs><path d="M21.6 13.718h30.13V48.98c0 5.135-4.194 9.33-9.33 9.33H21.601c-5.136 0-9.33-4.195-9.33-9.33V13.718Z" class="st1" style="fill:url(#c);stroke-width:.855901" transform="translate(0 -.262)"/><path d="M26.444 6.237a2.61 2.61 0 0 0-1.98.915c-.472.54-1.185 1.172-1.864 1.174l-10 .02c-3.047.007-5.533 2.818-5.525 6.248.007 3.43 2.505 6.233 5.551 6.227l38.774-.082c3.047-.007 5.533-2.82 5.525-6.25-.007-3.43-2.505-6.23-5.551-6.224l-10 .021c-.68.001-1.395-.627-1.87-1.165a2.61 2.61 0 0 0-1.983-.907z" style="baseline-shift:baseline;display:inline;overflow:visible;vector-effect:none;fill:url(#d);stroke-width:1.05061;stop-color:#000" transform="translate(0 -.262)"/><path d="M22.196 25.98a2.754 2.754 0 0 0-2.754 2.755v19.607a2.754 2.754 0 0 0 2.754 2.754 2.754 2.754 0 0 0 2.754-2.754V28.735a2.754 2.754 0 0 0-2.754-2.754m9.804 0a2.754 2.754 0 0 0-2.754 2.755v19.607A2.754 2.754 0 0 0 32 51.096a2.754 2.754 0 0 0 2.754-2.754V28.735A2.754 2.754 0 0 0 32 25.98m9.804 0a2.754 2.754 0 0 0-2.754 2.755v19.607a2.754 2.754 0 0 0 2.754 2.754 2.754 2.754 0 0 0 2.754-2.754V28.735a2.754 2.754 0 0 0-2.754-2.754" style="opacity:.3;stroke-width:.917982;stroke-linecap:round" transform="translate(0 -.262)"/></svg>