<svg xmlns="http://www.w3.org/2000/svg" xmlns:xlink="http://www.w3.org/1999/xlink" width="64" height="64"><defs><filter id="e" width="1.597" height="1.597" x="-.298" y="-.298" style="color-interpolation-filters:sRGB"><feGaussianBlur stdDeviation="2.114"/></filter><filter id="d" width="1.628" height="1.314" x="-.314" y="-.157" style="color-interpolation-filters:sRGB"><feGaussianBlur stdDeviation="2.114"/></filter><filter id="c" width="1.209" height="1.209" x="-.105" y="-.105" style="color-interpolation-filters:sRGB"><feGaussianBlur stdDeviation="2.114"/></filter><radialGradient xlink:href="#a" id="b" cx="-34.332" cy="-53.23" r="26.442" fx="-34.332" fy="-53.196" gradientTransform="rotate(-45 121.52 -197.216)scale(3.1791)" gradientUnits="userSpaceOnUse"/><linearGradient id="a"><stop offset="0" style="stop-color:#00c6ff;stop-opacity:1"/><stop offset="1" style="stop-color:#006aff;stop-opacity:1"/></linearGradient></defs><rect width="52.884" height="52.884" x="-58.442" y="-58.442" rx="12.251" ry="12.251" style="fill:url(#b);stroke-width:.927787" transform="rotate(90)scale(-1 1)"/><rect width="15.696" height="31.391" x="13.413" y="13.057" rx="5.927" ry="5.927" style="opacity:1;fill:#fff;stroke-width:.826089"/><rect width="16.522" height="16.522" x="34.065" y="13.057" rx="6.593" ry="6.593" style="opacity:1;fill:#fff;stroke-width:.826089"/><rect width="52.884" height="52.884" x="-58.442" y="-58.442" rx="12.251" ry="12.251" style="fill:none;stroke-width:.927787;stroke:#000;stroke-opacity:1;filter:url(#c)" transform="rotate(90)scale(-1 1)"/><rect width="17.628" height="35.256" x="11.125" y="11.125" rx="6.657" ry="6.657" style="opacity:1;fill:none;stroke:#000cff;stroke-width:.927787;stroke-opacity:1;filter:url(#d)" transform="translate(3.508 3.152)scale(.89039)"/><rect width="18.556" height="18.556" x="34.319" y="11.125" rx="7.405" ry="7.405" style="opacity:1;fill:none;stroke:#000cff;stroke-width:.927787;stroke-opacity:1;filter:url(#e)" transform="translate(3.508 3.152)scale(.89039)"/></svg>