<svg xmlns="http://www.w3.org/2000/svg" width="64" height="64"><circle cx="32" cy="33" r="28" style="opacity:.2"/><circle cx="32" cy="32" r="28" style="fill:#4f4f4f"/><path d="M41.621 17.899c-2.322-.025-4.474.478-6.117 2.015-2.204 2.061-2.035 3.77-2.04 3.762.001 0-.344-1.113-.448-2.305-2.398 3.32-3.346 7.715-1.528 10.996 1.129-2.722 2.921-5.068 5.23-6.918.077-1.941.856-3.582 2.09-4.793-1.113 1.334-1.604 2.852-1.554 4.383 2.686-2.004 5.977-3.339 9.594-3.777-2.619.481-4.99 1.526-7.063 2.949 1.298.593 2.778.683 4.336.14-1.493.7-3.15.817-4.828.208a21 21 0 0 0-3.95 3.793c2.02.66 4.228.523 6.427-.598-2.019 1.304-4.388 1.794-6.922 1.238a22.3 22.3 0 0 0-2.52 4.313c.815.6 4.354 2.486 10.422-1.988a10 10 0 0 1-1.55-.614c.019.009.621.066 2.394-.996 1.567-.916 2.915-2.575 3.91-3.867A16 16 0 0 1 46 25.2c0-.001 1.092.072 2.79-1.227 1.513-1.16 3.205-2.837 3.21-2.79.01.01-3.727-2.753-7.652-2.874-2.346-.073-3.562 1.023-3.856 1.125.267-.506.446-.825 1.13-1.535m-20.004 6.09c-.749.003-1.518.127-2.293.335.655.408.85.617 1.149.95-.244-.02-1.377-.62-3.157-.102-2.978.866-5.322 3.709-5.316 3.7-.005-.038 1.6.91 2.973 1.495 1.54.656 2.363.383 2.363.383s-.442.38-1.031.785c1.001.79 2.338 1.79 3.707 2.18 1.553.46 2.006.3 2.02.289 0 0-.463.408-1.071.77 5.473 2.215 7.824.08 8.336-.54a17.2 17.2 0 0 0-2.727-2.789c-1.834.923-3.737 1.018-5.523.422 1.89.421 3.602.09 5.023-.812-3.595-2.983-8.025-3.286-10.117-3.137 2.847-.379 5.612-.01 8.04.988-.248-1.176-.905-2.238-2.005-3.035 1.17.68 2.073 1.778 2.492 3.242 2.11.956 3.916 2.39 5.286 4.243.779-2.86-.764-6.025-3.215-8.082.142.929.085 1.848.086 1.847-.002.007-.19-1.328-2.258-2.465-.868-.477-1.799-.673-2.762-.668m10.176 11.285a16.7 16.7 0 0 0-.992 3.636c1.661 1.051 2.668 2.57 3.043 4.336-.571-1.765-1.682-3.012-3.125-3.734-.73 4.442 1.177 8.24 2.32 9.887-1.702-2.155-2.741-4.616-3.094-7.11-.858.789-1.42 1.859-1.547 3.16-.004-1.3.467-2.586 1.48-3.66a12.9 12.9 0 0 1 .954-6.46c-2.759.78-4.639 3.622-5.156 6.663.704-.579 1.497-.988 1.496-.988.007-.002-1.015.818-.953 3.086.046 1.691.928 3.103 2.187 4.324.02-.741.1-1.007.23-1.418.103.21.16 1.44 1.458 2.649 2.172 2.02 5.679 2.535 5.668 2.535-.029.022-.025-1.77-.207-3.192-.205-1.593-.833-2.136-.832-2.136 0 0 .532.177 1.156.46.168-1.216.347-2.816.004-4.136-.374-1.507-.727-1.8-.742-1.805 0 0 .566.18 1.164.5-.824-5.606-3.748-6.484-4.512-6.597" style="opacity:.2"/><path d="M44.347 17.308c-2.346-.072-3.56 1.025-3.854 1.127.267-.506.445-.824 1.128-1.535-2.322-.024-4.475.478-6.118 2.015-2.204 2.061-2.032 3.769-2.037 3.76 0 .001-.348-1.113-.452-2.305-2.398 3.32-3.345 7.717-1.527 10.998 1.129-2.722 2.92-5.069 5.23-6.919.076-1.941.857-3.581 2.092-4.792-1.114 1.333-1.606 2.852-1.556 4.383 2.686-2.004 5.978-3.34 9.595-3.778-2.619.481-4.99 1.525-7.064 2.948 1.297.593 2.78.686 4.337.143-1.493.7-3.151.815-4.828.205a21 21 0 0 0-3.95 3.794c2.02.66 4.23.523 6.428-.597-2.018 1.304-4.39 1.793-6.924 1.237a22.3 22.3 0 0 0-2.518 4.313c.815.6 4.352 2.486 10.42-1.988a10 10 0 0 1-1.551-.612c.02.008.625.064 2.397-.998 1.567-.916 2.915-2.576 3.91-3.868A17 17 0 0 1 46 24.2s1.094.074 2.792-1.226c1.514-1.158 3.204-2.839 3.209-2.791.01.01-3.728-2.753-7.653-2.874" style="fill:#4cb01f"/><path d="M17.317 24.173c1.78-.518 2.913.08 3.156.1-.298-.333-.494-.541-1.148-.948 1.77-.477 3.51-.518 5.053.33 2.068 1.137 2.255 2.473 2.257 2.465 0 .001.059-.917-.083-1.846 2.451 2.057 3.994 5.223 3.215 8.083-1.37-1.853-3.177-3.289-5.287-4.244-.42-1.465-1.323-2.561-2.492-3.241 1.1.797 1.759 1.858 2.006 3.034-2.427-.998-5.193-1.367-8.04-.989 2.092-.149 6.522.154 10.117 3.137-1.421.902-3.136 1.233-5.026.812 1.786.596 3.69.502 5.524-.42a17.2 17.2 0 0 1 2.729 2.79c-.511.619-2.865 2.753-8.338.538a8 8 0 0 0 1.072-.772c-.013.01-.466.172-2.019-.288-1.368-.39-2.708-1.39-3.71-2.178.59-.404 1.033-.784 1.033-.784s-.823.271-2.362-.385c-1.374-.585-2.979-1.532-2.974-1.495-.006.01 2.338-2.833 5.317-3.7" style="fill:#ff8806"/><path d="M30.092 48.643c-1.298-1.207-1.353-2.437-1.456-2.647-.131.41-.208.675-.228 1.416-1.26-1.22-2.142-2.632-2.189-4.323-.062-2.268.958-3.086.952-3.084 0 0-.792.408-1.496.987.517-3.04 2.4-5.885 5.158-6.666a12.9 12.9 0 0 0-.954 6.462c-1.014 1.074-1.486 2.362-1.482 3.663.127-1.302.688-2.372 1.547-3.16.352 2.494 1.393 4.954 3.096 7.109-1.144-1.648-3.05-5.445-2.321-9.887 1.443.722 2.554 1.968 3.125 3.733-.374-1.766-1.381-3.287-3.043-4.338a16.7 16.7 0 0 1 .992-3.633c.765.113 3.688.989 4.512 6.595a7.5 7.5 0 0 0-1.165-.499c.015.006.37.298.745 1.805.342 1.32.164 2.92-.005 4.137a13 13 0 0 0-1.155-.46s.626.542.831 2.136c.183 1.421.177 3.213.205 3.19.011.001-3.497-.515-5.669-2.536" style="fill:#f1443e"/><path d="M32 4A28 28 0 0 0 4 32a28 28 0 0 0 .033.482A28 28 0 0 1 32 5a28 28 0 0 1 27.982 27.242L60 32A28 28 0 0 0 32 4" style="opacity:.1;fill:#fff"/><path d="M41.621 16.9c-2.322-.024-4.476.477-6.119 2.014-2.204 2.061-2.03 3.77-2.035 3.762 0 0-.349-1.115-.453-2.307-1.653 2.287-2.615 5.087-2.46 7.68.107-2.299 1.018-4.684 2.46-6.68.104 1.192.453 2.308.453 2.307.004.008-.169-1.7 2.035-3.762 1.445-1.352 3.287-1.902 5.289-1.998.178-.28.402-.57.83-1.016m2.725.409c-1.308-.04-2.252.283-2.893.595l.168-.004c-.683.711-.862 1.03-1.129 1.536.294-.102 1.508-1.2 3.854-1.127 2.946.09 5.787 1.667 7.017 2.445.361-.334.635-.59.637-.572.01.01-3.73-2.752-7.654-2.873m-5.537 3.347a6.9 6.9 0 0 0-1.46 2.08 6.3 6.3 0 0 0-.097 1.303l.057-.039c.155-1.172.639-2.314 1.5-3.344m8.039.606a20.5 20.5 0 0 0-6.797 2.056q.368.149.754.243a18.1 18.1 0 0 1 6.043-2.3m-25.23 1.726c-.75.004-1.519.128-2.294.336.54.336.768.54.998.785a8 8 0 0 1 1.295-.12c.963-.006 1.892.188 2.76.665 2.069 1.137 2.256 2.474 2.258 2.467 0 0 .023-.446-.006-1.021-.012-.056-.233-1.336-2.252-2.446-.868-.477-1.797-.67-2.76-.666m17.857.627q-.527.291-1.032.612a21.2 21.2 0 0 0-3.101 3.125c.23.075.461.135.695.189a20.8 20.8 0 0 1 3.256-2.982c1.677.61 3.335.494 4.828-.205-1.558.542-3.04.45-4.338-.143q.28-.189.567-.37a7 7 0 0 1-.875-.226m-20.95.352c-.36.016-.764.076-1.209.205-2.978.866-5.322 3.709-5.316 3.7-.002-.013.355.183.627.331.882-.89 2.622-2.43 4.69-3.031 1.78-.517 2.912.08 3.156.1-.299-.333-.494-.54-1.149-.948q.368-.097.733-.168a4.6 4.6 0 0 0-1.532-.19m8.026.306c.06.388.08.76.088 1.079 1.831 1.571 3.134 3.762 3.306 5.968.215-2.564-1.236-5.235-3.394-7.047m20.879.536c-.893.415-1.43.39-1.43.39s.4.183.906.395c.208-.257.416-.515.6-.754-.03-.011-.047-.02-.076-.031M21.988 25.87a5.1 5.1 0 0 1 1.61 1.887c.124.047.252.09.375.14a5.3 5.3 0 0 0-1.985-2.027m19.783 1.883c-2.198 1.12-4.41 1.258-6.43.598.067-.082.139-.16.206-.24a10 10 0 0 1-.7-.12 22.3 22.3 0 0 0-2.519 4.313c.086.063.22.147.367.23a22.4 22.4 0 0 1 2.153-3.543c2.534.555 4.905.066 6.923-1.238m-23.7.017q-1.047.005-2.116.147c1.944-.139 5.907.116 9.344 2.549a6.5 6.5 0 0 0 .771-.412c-.156-.13-.317-.25-.476-.37a14 14 0 0 0-1.114-.572c-.021-.076-.05-.148-.074-.222q-.241-.145-.486-.278.042.145.074.293a15.4 15.4 0 0 0-5.924-1.135m24.51 2.489c-.992.48-1.369.452-1.384.445 0 0 .244.121.602.27.311-.205.625-.418.951-.659-.06-.017-.111-.038-.17-.056m-16.013.185a8 8 0 0 1-.83.354c.11.085.223.165.332.256-1.421.901-3.135 1.233-5.025.812 1.786.596 3.69.501 5.523-.422a17.3 17.3 0 0 1 2.266 2.227c.208-.169.376-.328.465-.436a17.2 17.2 0 0 0-2.73-2.79m-9.232.307s-.24.072-.69.045c.107.082.21.164.323.248.218-.17.367-.293.367-.293m4.697 3.25c-.006.005-.122.036-.367.031.074.026.152.06.225.084.045-.038.142-.115.142-.115m9.76.273a16.7 16.7 0 0 0-.992 3.633c.057.036.107.076.162.113.2-.946.478-1.867.83-2.746.71.106 3.289.875 4.309 5.495.068.033.133.062.203.1-.824-5.607-3.748-6.481-4.512-6.595m-.959.051c-2.759.78-4.641 3.625-5.158 6.666.094-.078.19-.144.285-.215.713-2.404 2.286-4.509 4.457-5.312.122-.384.256-.765.416-1.139m-.115 4.188a12.4 12.4 0 0 0-.149 2.507c.02-.492.065-.995.149-1.507 1.443.722 2.554 1.967 3.125 3.732-.375-1.766-1.382-3.287-3.043-4.338.016-.106.04-.21.058-.316-.047-.025-.092-.054-.14-.078m-.903 1.43q-.017.458-.002.92l.065-.075q-.044-.423-.063-.846m-2.646 1.062s-.347.185-.777.467c-.114.43-.192.954-.174 1.615.002.084.017.164.023.246.148-1.696.934-2.33.928-2.328m2.773.285q-.048.047-.095.096c.01.134.017.268.03.402-1.013 1.074-1.486 2.362-1.482 3.662.127-1.301.689-2.371 1.547-3.16.353 2.494 1.394 4.955 3.096 7.11-.606-.874-1.424-2.356-1.953-4.214a14.4 14.4 0 0 1-1.143-3.896m5.198.08c.015.006.37.298.744 1.805.104.4.156.827.18 1.26.033-.767.003-1.552-.18-2.26-.06-.241-.117-.404-.174-.586a8 8 0 0 0-.57-.219m-.416 5.483s.627.54.832 2.134c.095.743.137 1.55.162 2.184l.043.008c-.029.022-.023-1.77-.205-3.192a6 6 0 0 0-.184-.886c-.36-.144-.648-.249-.648-.248" style="fill:#fff;opacity:.2"/></svg>