<svg xmlns="http://www.w3.org/2000/svg" width="64" height="64"><rect width="56" height="56" x="4" y="5" rx="2.8" ry="2.8" style="opacity:.2"/><rect width="56" height="56" x="4" y="4" rx="2.8" ry="2.8" style="fill:#20c88c"/><rect width="28" height="28" x="-47" y="-46" rx="2.8" ry="2.8" style="opacity:.2" transform="rotate(90)scale(-1 1)"/><rect width="28" height="28" x="-46" y="-46" rx="2.8" ry="2.8" style="fill:#fff" transform="rotate(90)scale(-1 1)"/><path d="M6.8 4C5.25 4 4 5.25 4 6.8v1C4 6.25 5.25 5 6.8 5h50.4C58.75 5 60 6.25 60 7.8v-1C60 5.25 58.75 4 57.2 4z" style="opacity:.2;fill:#fff"/></svg>