<svg xmlns="http://www.w3.org/2000/svg" width="64" height="64"><rect width="56" height="56" x="4" y="5" rx="28" ry="28" style="opacity:.2"/><rect width="56" height="56" x="4" y="4" rx="28" ry="28" style="fill:#3f3f3f"/><path d="M16 15v3.563a271 271 0 0 0 13.707 16.144q.93-.987 1.852-1.988A267 267 0 0 1 17.05 15.53a1.334 1.385 0 0 0-1-.531A1.334 1.385 0 0 0 16 15m31.95 0a1.334 1.385 0 0 0-1 .531c-6.815 8.799-14.009 17.04-21.587 24.61l1.883 1.96C34.523 34.83 41.435 26.94 48 18.564V15a1.334 1.385 0 0 0-.05 0M34.311 35.672c-.615.666-1.23 1.334-1.851 1.992 1.42 1.496 2.844 2.99 4.293 4.438l1.883-1.961a237 237 0 0 1-4.324-4.47m-9.425 4.953c-.317.315-.643.617-.961.93l-.13-.145a.667.693 0 0 0-.472-.226.667.693 0 0 0-.504 1.171l.13.141c-2.146 2.08-4.31 4.13-6.516 6.098a1.335 1.386 0 0 0 1.738 2.097 212 212 0 0 0 6.601-6.171l.051.054a.668.693 0 1 0 .973-.949l-.047-.055c.338-.332.683-.65 1.02-.984zm14.226 0-1.883 1.96c.337.336.682.653 1.02.985l-.047.055a.668.693 0 1 0 .973.95l.05-.055a212 212 0 0 0 6.602 6.171 1.335 1.386 0 0 0 1.738-2.097c-2.207-1.968-4.37-4.017-6.515-6.098l.129-.14a.667.693 0 0 0-.504-1.172.667.693 0 0 0-.473.226l-.129.145c-.318-.313-.644-.615-.96-.93" style="opacity:.2"/><path d="M16 14v3.563a271 271 0 0 0 13.707 16.144q.93-.987 1.852-1.988A267 267 0 0 1 17.05 14.53a1.334 1.385 0 0 0-1-.531A1.334 1.385 0 0 0 16 14m31.95 0a1.334 1.385 0 0 0-1 .531c-6.815 8.799-14.009 17.04-21.587 24.61l1.883 1.96C34.523 33.83 41.435 25.94 48 17.564V14a1.334 1.385 0 0 0-.05 0M34.311 34.672c-.615.666-1.23 1.334-1.851 1.992 1.42 1.496 2.844 2.99 4.293 4.438l1.883-1.961a237 237 0 0 1-4.324-4.47m-9.425 4.953c-.317.315-.643.617-.961.93l-.13-.145a.667.693 0 0 0-.472-.226.667.693 0 0 0-.504 1.171l.13.141c-2.146 2.08-4.31 4.13-6.516 6.098a1.335 1.386 0 0 0 1.738 2.097 212 212 0 0 0 6.601-6.171l.051.054a.668.693 0 1 0 .973-.949l-.047-.055c.338-.332.683-.65 1.02-.984zm14.226 0-1.883 1.96c.337.336.682.653 1.02.985l-.047.055a.668.693 0 1 0 .973.95l.05-.055a212 212 0 0 0 6.602 6.171 1.335 1.386 0 0 0 1.738-2.097c-2.207-1.968-4.37-4.017-6.515-6.098l.129-.14a.667.693 0 0 0-.504-1.172.667.693 0 0 0-.473.226l-.129.145c-.318-.313-.644-.615-.96-.93" style="fill:#fff"/><path d="M32 4C16.488 4 4 16.488 4 32c0 .113.011.224.018.336C4.369 17.134 16.71 5 32 5s27.63 12.134 27.982 27.336c.007-.112.018-.223.018-.336C60 16.488 47.512 4 32 4" style="opacity:.1;fill:#fff"/></svg>