<svg xmlns="http://www.w3.org/2000/svg" xmlns:xlink="http://www.w3.org/1999/xlink" width="64" height="64"><defs><radialGradient xlink:href="#a" id="e" cx="30.854" cy="18.413" r="18.057" fx="30.854" fy="18.413" gradientTransform="matrix(0 2.17282 -1.81439 0 64.262 -56.11)" gradientUnits="userSpaceOnUse"/><radialGradient xlink:href="#b" id="f" cx="31.959" cy="37" r="12" fx="31.959" fy="37" gradientTransform="matrix(1 0 0 1.41666 0 -15.417)" gradientUnits="userSpaceOnUse"/><radialGradient xlink:href="#c" id="g" cx="31.889" cy="18.927" r="6" fx="31.889" fy="18.927" gradientTransform="matrix(3.0242 0 0 2.4442 -64.692 -32.639)" gradientUnits="userSpaceOnUse"/><radialGradient xlink:href="#d" id="h" cx="31.895" cy="13.823" r="24.042" fx="31.895" fy="13.823" gradientTransform="rotate(120 47.494 11.831)scale(1.84345 1.68696)" gradientUnits="userSpaceOnUse"/><linearGradient id="a"><stop offset="0" style="stop-color:#586f80;stop-opacity:1"/><stop offset="1" style="stop-color:#294b42;stop-opacity:1"/></linearGradient><linearGradient id="b"><stop offset="0" style="stop-color:#fff0d7;stop-opacity:1"/><stop offset="1" style="stop-color:#fff1e8;stop-opacity:1"/></linearGradient><linearGradient id="c"><stop offset="0" style="stop-color:#ffc104;stop-opacity:1"/><stop offset="1" style="stop-color:#ff8d00;stop-opacity:1"/></linearGradient><linearGradient id="d"><stop offset="0" style="stop-color:#ffc104;stop-opacity:1"/><stop offset="1" style="stop-color:#ff890d;stop-opacity:1"/></linearGradient><filter id="i" width="1.16" height="1.138" x="-.08" y="-.069" style="color-interpolation-filters:sRGB"><feGaussianBlur stdDeviation="1.566"/></filter></defs><path d="M31.959 4c-5.37 0-10 4.994-10 11.2 0 14-8 15.4-8 25.2 0 10.825 8.059 19.6 18 19.6 8.988 0 16.438-7.175 17.783-16.55.36-1.139.42-2.457.21-3.557-.271-9.346-7.993-10.94-7.993-24.694 0-6.205-4.63-11.199-10-11.199" style="fill:url(#e)"/><path d="M31.959 20C28.379 20 26 23.033 26 26.8c0 8.5-6.04 9.35-6.04 15.3 0 6.572 5.372 11.9 11.999 11.9s12-5.328 12-11.9c0-5.95-5.959-6.8-5.959-15.3 0-3.767-2.461-6.8-6.041-6.8" style="fill:url(#f)"/><path d="M37.959 19.2c0 3.866-2.686 6.8-6 6.8s-6-2.934-6-6.8z" style="fill:url(#g)"/><path d="M30.734 18.134a4 4 0 0 0 1.19-4.01 4 4 0 0 0-4.9-2.83 4 4 0 0 0-2.828 4.9 4 4 0 0 0 .484 1.102 5.205 6.555 75 0 0 5.931.871 5.205 6.555 75 0 0 .123-.033" style="fill:#fff"/><path d="M33.298 18.134a4 4 0 0 1-1.19-4.011 4 4 0 0 1 4.9-2.828 4 4 0 0 1 2.828 4.899 4 4 0 0 1-.484 1.101 6.555 5.205 15 0 1-5.931.872 6.555 5.205 15 0 1-.123-.033" style="fill:#fff"/><g transform="translate(.009 .64)"><circle cx="28.682" cy="14.482" r="2" style="fill:#323232"/><circle cx="35.332" cy="14.482" r="2" style="fill:#323232"/></g><path d="M31.959 16c-3.314 0-6 1.493-6 3.334 0 .667 2.686 4.666 6 4.666s6-4 6-4.666c0-1.841-2.686-3.334-6-3.334m-14.28 24c-.939.038-2.088.028-2.671 1.057-.375.666-.57 2.146-.858 2.42-.3.287-.626.452-1.07.554-.082.02-.453.035-1.094.055-.79.086-.57.028-.789.086C10.48 44.196 9.976 45.249 10 46c.001.51.02.806.107 1.607.147 1.355.182 2.006.14 2.584-.074.984-1.258 1.343-1.735 2.342-.358.748-.488 1.104-.537 1.475-.077.578.123 1.099.55 1.435.314.247.541.342 1.397.588.315.09.983.297 1.484.46 1.378.445 1.968.606 3.555.968 3.182.726 3.994.97 5.732 1.72 1.168.504 1.7.684 2.303.78v.002a5.3 5.3 0 0 0 1.313 0c1.526-.251 2.844-1.357 3.373-2.83a4 4 0 0 1 .119-.297c.06-.122.095-.363.137-.924.032-.442.03-.506-.028-.892-.172-1.108-.658-2.216-1.35-3.18a35 35 0 0 0-.747-.973c-.369-.466-.715-.906-.772-.98-.335-.429-1.24-1.846-1.742-2.73-.46-.812-.81-1.366-1.951-3.096-1.441-2.183-1.747-2.605-2.389-3.29-.255-.271-.34-.34-.633-.507-.292-.17-.38-.206-.646-.262m32.909.063a2.1 2.1 0 0 0-.596.068c.38 2.486-.566 5.889-3.13 5.967-2.304 0-2.322-1.913-2.782-4.17-.104-.51-.2-.977-.254-1.399-.083 0-.178.01-.334.028a1.84 1.84 0 0 0-.982.404c-.198.154-.256.22-.428.475-.173.256-.215.344-.314.668-.25.815-.328 1.282-.618 3.636-.229 1.866-.289 2.456-.334 3.301-.049.92-.21 2.436-.31 2.92-.017.082-.12.581-.233 1.11-.111.527-.21 1.017-.218 1.09-.174 1.062-.116 2.157.2 3.124.113.336.138.39.349.735.266.437.396.617.498.69.04.03.139.116.22.192a4.14 4.14 0 0 0 3.973.918 5 5 0 0 0 1.088-.535v.008c.46-.323.826-.687 1.586-1.57 1.13-1.316 1.101-1.843 3.44-3.727 1.165-.94 1.588-1.309 2.546-2.23a56 56 0 0 1 1.041-.977c.608-.548.757-.72.914-1.047.215-.447.165-.947-.139-1.385-.194-.28-.45-.516-1.056-.976-.81-.615-1.143-1.144-1.611-1.91-.276-.452.084-1.591-.356-2.748-.26-.685-.268-.932-.478-1.346-.23-.449-.276-.527-.41-.674-.38-.416-.79-.624-1.272-.64" style="fill:url(#h)"/><g style="stroke:#000;stroke-width:.2;stroke-dasharray:none;stroke-opacity:1;filter:url(#i)" transform="translate(63.305 3.333)"><path d="M-31.346.666c-5.37 0-10 4.994-10 11.2 0 14-8 15.4-8 25.2q.002 1.558.217 3.05c.274-.334.469-1.747.832-2.393.583-1.029 1.733-1.019 2.672-1.057.266.056.355.093.646.262.294.168.378.236.633.508a10 10 0 0 1 1 1.23c.068-5.86 6.041-6.749 6.041-15.201 0-1.416.336-2.729.946-3.815-.6-1.028-.958-2.263-.985-3.619l-.002-.031v-.135h.004c.027-.377.168-.737.402-1.072a5.205 6.555 75 0 1-1.685-.832 4 4 0 0 1-.482-1.102 4 4 0 0 1 2.828-4.9 4 4 0 0 1 1.035-.135 4 4 0 0 1 3.863 2.965 4 4 0 0 1 .092.445 4 4 0 0 1 .094-.447 4 4 0 0 1 3.863-2.963 4 4 0 0 1 1.035.135 4 4 0 0 1 2.828 4.9 4 4 0 0 1-.482 1.102 6.555 5.205 15 0 1-1.781.86c.222.326.356.678.382 1.044h.004V16l-.002.031c-.026 1.335-.374 2.554-.957 3.573.642 1.095 1 2.424 1 3.86 0 7.693 4.879 9.12 5.807 13.731h.02c.053.422.15.889.253 1.399.46 2.257.478 4.17 2.782 4.17 1.481-.045 2.423-1.2 2.88-2.647v-.002q.13-.414.207-.853c.016-.09.023-.18.036-.27.029-.204.057-.408.07-.613.006-.106.003-.211.006-.317a8 8 0 0 0-.002-.554c-.006-.12-.022-.235-.033-.352-.02-.202-.038-.406-.075-.597-.27-9.346-7.992-10.94-7.992-24.694 0-6.205-4.63-11.199-10-11.199zm.057 11.748a4 4 0 0 1-.045.252h.092a4 4 0 0 1-.047-.252zm8.709 34.479a12 12 0 0 1-8.766 3.771 12.05 12.05 0 0 1-4.67-.935c.304.63.518 1.293.621 1.955.059.386.06.45.028.892-.041.561-.076.802-.137.924-.024.05-.078.183-.12.297a4.4 4.4 0 0 1-1.339 1.896 16.7 16.7 0 0 0 5.617.973c3.059 0 5.939-.831 8.461-2.297a3 3 0 0 1-.164-.418c-.316-.967-.374-2.062-.201-3.125.008-.072.107-.561.219-1.09l.232-1.109c.063-.305.15-1.018.219-1.734z" style="fill:none;stroke:#000;stroke-width:.2;stroke-dasharray:none;stroke-opacity:1"/><path d="M-26.305 19.604c-1.068 1.868-2.927 3.062-5.04 3.062-2.097 0-3.942-1.175-5.014-3.016-.61 1.086-.946 2.4-.946 3.815 0 8.452-5.973 9.341-6.04 15.201.322.453.74 1.078 1.388 2.059 1.142 1.73 1.49 2.284 1.951 3.095.502.885 1.407 2.302 1.742 2.73.057.075.404.515.772.981.368.468.704.906.748.973.278.388.524.799.728 1.225a12.05 12.05 0 0 0 4.67.935c3.459 0 6.576-1.45 8.766-3.771.04-.422.074-.845.092-1.186.045-.845.104-1.435.334-3.3.29-2.355.368-2.822.617-3.637.099-.324.141-.412.314-.668.173-.255.23-.321.428-.475.314-.245.597-.356.983-.404.144-.016.235-.027.314-.028-.928-4.61-5.807-6.038-5.807-13.73 0-1.437-.358-2.766-1-3.861z" style="fill:none;stroke:#000;stroke-width:.2;stroke-dasharray:none;stroke-opacity:1"/><path d="M-37.346 15.865v.092l.004-.092zm11.996 0q.004.045.004.092v-.092zm-11.994.166c.076 3.784 2.732 6.635 5.998 6.635s5.923-2.85 5.998-6.635c-.075.75-2.731 4.635-5.998 4.635-3.266 0-5.922-3.885-5.998-4.635zm2.1-8.207a4 4 0 0 0-1.035.135 4 4 0 0 0-2.828 4.9 4 4 0 0 0 .482 1.102 5.205 6.555 75 0 0 1.686.832c.321-.46.82-.872 1.453-1.207a2 2 0 0 1-1.127-1.799 2 2 0 0 1 2-2 2 2 0 0 1 2 2 2 2 0 0 1-.262.988c.488-.07 1.001-.109 1.53-.109h.011a4 4 0 0 0 .045-.252 4 4 0 0 1 0-1.18 4 4 0 0 0-.092-.445 4 4 0 0 0-3.863-2.965z" style="fill:none;stroke:#000;stroke-width:.2;stroke-dasharray:none;stroke-opacity:1"/><path d="M-27.332 7.824a4 4 0 0 0-3.863 2.963 4 4 0 0 0-.047 1.879c.537.005 1.057.05 1.55.129a2 2 0 0 1-.27-1.008 2 2 0 0 1 2-2 2 2 0 0 1 2 2 2 2 0 0 1-1.19 1.828c.62.337 1.107.747 1.42 1.205a6.555 5.205 15 0 0 1.78-.86 4 4 0 0 0 .483-1.1 4 4 0 0 0-2.828-4.901 4 4 0 0 0-1.035-.135zm-7.281 1.963a2 2 0 0 0-2 2 2 2 0 0 0 1.127 1.799c.722-.383 1.616-.665 2.611-.81a2 2 0 0 0 .262-.989 2 2 0 0 0-2-2z" style="fill:none;stroke:#000;stroke-width:.2;stroke-dasharray:none;stroke-opacity:1"/><path d="M-27.963 9.787a2 2 0 0 0-2 2 2 2 0 0 0 .272 1.008c.968.154 1.838.44 2.539.82a2 2 0 0 0 1.19-1.828 2 2 0 0 0-2-2z" style="fill:none;stroke:#000;stroke-width:.2;stroke-dasharray:none;stroke-opacity:1"/><path d="M-31.346 12.666c-3.313 0-6 1.493-6 3.334 0 .667 2.687 4.666 6 4.666s6-4 6-4.666c0-1.841-2.686-3.334-6-3.334zm-14.279 24c-.94.038-2.089.028-2.672 1.057-.374.666-.57 2.146-.857 2.42-.302.287-.627.452-1.07.554-.083.02-.453.035-1.094.055-.79.086-.57.028-.79.086-.718.024-1.22 1.077-1.197 1.828.002.51.02.806.108 1.607.147 1.355.181 2.006.138 2.584-.072.984-1.256 1.343-1.734 2.342-.357.748-.488 1.104-.537 1.475-.077.578.123 1.099.55 1.435.314.247.542.342 1.397.588.315.09.983.297 1.485.46 1.377.445 1.967.606 3.554.968 3.182.726 3.994.97 5.733 1.72 1.167.505 1.7.684 2.302.78v.002a5.3 5.3 0 0 0 1.313 0c1.526-.251 2.844-1.357 3.373-2.83.041-.113.095-.247.12-.297.06-.122.095-.363.136-.924.032-.442.03-.506-.028-.892-.172-1.108-.658-2.216-1.35-3.18a31 31 0 0 0-.747-.973c-.368-.466-.715-.906-.772-.98-.335-.429-1.24-1.846-1.742-2.73-.46-.812-.81-1.366-1.951-3.096-1.44-2.183-1.746-2.605-2.389-3.29-.255-.271-.339-.34-.633-.507-.291-.17-.38-.206-.646-.262zm32.908.063a2.1 2.1 0 0 0-.595.068c.379 2.486-.567 5.889-3.131 5.967-2.304 0-2.322-1.913-2.782-4.17-.104-.51-.2-.977-.254-1.399-.083 0-.178.01-.333.028a1.84 1.84 0 0 0-.983.404c-.198.154-.255.22-.428.475-.173.256-.215.344-.314.668-.249.815-.328 1.282-.617 3.636-.23 1.866-.29 2.456-.334 3.301-.05.92-.21 2.436-.31 2.92l-.233 1.11c-.112.528-.21 1.017-.219 1.09-.173 1.062-.115 2.157.201 3.124.112.336.138.39.348.735.267.437.397.617.498.69.04.03.139.116.22.192a4.14 4.14 0 0 0 3.973.918 5 5 0 0 0 1.088-.535v.008c.46-.323.827-.687 1.586-1.57 1.13-1.316 1.102-1.843 3.44-3.727 1.166-.94 1.589-1.309 2.546-2.23a56 56 0 0 1 1.041-.977c.608-.548.757-.72.914-1.047.215-.447.165-.947-.138-1.385-.195-.28-.45-.516-1.057-.976-.81-.615-1.143-1.144-1.611-1.91-.276-.452.085-1.591-.356-2.748-.26-.685-.267-.932-.478-1.346-.229-.449-.276-.527-.41-.674-.38-.416-.79-.624-1.272-.64z" style="fill:none;stroke:#000;stroke-width:.2;stroke-dasharray:none;stroke-opacity:1"/></g></svg>