<svg xmlns="http://www.w3.org/2000/svg" width="64" height="64"><rect width="40" height="28" x="-54" y="-46" rx="2.5" ry="2.5" style="opacity:.2" transform="rotate(90)scale(-1 1)"/><rect width="40" height="28" x="-53" y="-46" rx="2.5" ry="2.5" style="fill:#8e8e8e" transform="rotate(90)scale(-1 1)"/><rect width="38" height="52" x="-50" y="-58" rx="2.5" ry="2.5" style="opacity:.2" transform="rotate(90)scale(-1 1)"/><rect width="38" height="52" x="-49" y="-58" rx="2.5" ry="2.5" style="fill:#4f4f4f" transform="rotate(90)scale(-1 1)"/><rect width="32" height="46" x="-46" y="-55" rx="0" ry="0" style="fill:#333" transform="rotate(90)scale(-1 1)"/><path d="M8.5 11A2.495 2.495 0 0 0 6 13.5v1C6 13.115 7.115 12 8.5 12h47c1.385 0 2.5 1.115 2.5 2.5v-1c0-1.385-1.115-2.5-2.5-2.5ZM9 46h46v1H9z" style="opacity:.1;fill:#fff"/></svg>