<svg xmlns="http://www.w3.org/2000/svg" width="64" height="64"><path d="M32 5c-2.614.037-4.48 1.611-5.355 4.218l.035-.117-4.11 11.898H8.63c-1.654.054-3.144 1.026-4.195 2.305-2.273 2.61-1.793 7.316 1.093 9.262l10.891 7.957-4.227 13.133-.011.043c-.646 2.121-.039 4.305 1.586 5.8l.035.036c1.952 1.735 4.698 1.956 6.902.52q.061-.042.121-.087L32 52l11.176 7.97q.06.044.12.085c2.205 1.437 4.951 1.216 6.903-.52q.018-.016.035-.035c1.625-1.495 2.232-3.679 1.586-5.8l-.011-.043-4.227-13.133 10.89-7.957c2.887-1.946 3.367-6.653 1.094-9.262-1.05-1.28-2.54-2.25-4.195-2.305H41.43L37.32 9.101l.035.117C36.48 6.611 34.615 5.037 32 5" style="opacity:.2"/><path d="M32 4c-2.614.037-4.479 1.612-5.354 4.219l.032-.117L22.57 20H8.63c-1.654.054-3.146 1.025-4.197 2.305-2.273 2.609-1.79 7.314 1.095 9.26l10.891 7.96-4.227 13.131-.013.043c-.646 2.122-.039 4.308 1.586 5.803.011.011.027.022.039.033 1.952 1.736 4.694 1.956 6.898.52q.064-.041.125-.086L32 51l11.174 7.969q.061.045.125.086c2.204 1.436 4.946 1.216 6.898-.52l.04-.033c1.624-1.495 2.231-3.681 1.585-5.803l-.013-.043-4.227-13.13 10.89-7.962c2.887-1.945 3.37-6.65 1.096-9.26-1.05-1.279-2.543-2.25-4.197-2.304H41.43L37.322 8.102l.032.117C36.479 5.612 34.614 4.037 32 4" style="fill:#ffd52c"/><path d="M32 4c-2.614.037-4.48 1.612-5.355 4.219l.035-.117L22.57 20H8.63c-1.654.054-3.144 1.025-4.195 2.305-1.063 1.22-1.516 2.896-1.41 4.537.1-1.303.563-2.565 1.41-3.537 1.05-1.28 2.54-2.251 4.195-2.305h13.94l4.11-11.898-.035.117C27.52 6.612 29.385 5.037 32 5c2.614.037 4.48 1.612 5.355 4.219l-.035-.117L41.43 21h13.94c1.654.054 3.144 1.025 4.195 2.305.847.972 1.31 2.234 1.41 3.537.106-1.64-.347-3.317-1.41-4.537-1.05-1.28-2.54-2.251-4.195-2.305H41.43L37.32 8.102l.035.117C36.481 5.612 34.615 4.037 32 4M16.158 40.334l-3.967 12.322-.011.043a5.7 5.7 0 0 0-.221 2.207c.034-.402.098-.804.22-1.207q.007-.02.012-.043l4.227-13.133zm31.684 0-.26.19 4.227 13.132.011.043c.123.403.187.805.221 1.207a5.7 5.7 0 0 0-.22-2.207q-.007-.02-.012-.043z" style="opacity:.2;fill:#fff"/><circle cx="32" cy="36" r="10" style="opacity:.1"/><circle cx="32" cy="35" r="10" style="fill:#6d63f4"/></svg>