<svg xmlns="http://www.w3.org/2000/svg" width="64" height="64"><rect width="56" height="56" x="4" y="5" rx="16.8" ry="16.8" style="opacity:.2"/><rect width="56" height="56" x="4" y="4" rx="16.8" ry="16.8" style="fill:#3f3f3f"/><path d="M18 14v3h-2v2h-3v18h5v6h4v4h6v5h8v-5h6v-4h4v-6h5V19h-3v-2h-2v-3h-7v3h-2v2h-2v4h-6v-4h-2v-2h-2v-3h-3.857z" style="opacity:.2"/><path d="M18 13v3h-2v2h-3v18h5v6h4v4h6v5h8v-5h6v-4h4v-6h5V18h-3v-2h-2v-3h-7v3h-2v2h-2v4h-6v-4h-2v-2h-2v-3z" style="fill:#ff433d"/><path d="M20.8 4C11.495 4 4 11.494 4 20.8v1C4 12.495 11.494 5 20.8 5h22.4C52.505 5 60 12.494 60 21.8v-1C60 11.495 52.506 4 43.2 4z" style="fill:#fff;opacity:.1"/><path d="M18 13v1h7v-1zm21 0v1h7v-1zm-23 3v1h2v-1zm9 0v1h2v-1zm12 0v1h2v-1zm9 0v1h2v-1zm-33 2v1h3v-1zm14 0v1h2v-1zm8 0v1h2v-1zm13 0v1h3v-1zm-19 4v1h6v-1z" style="fill:#fff;opacity:.2"/></svg>