<svg xmlns="http://www.w3.org/2000/svg" width="64" height="64"><rect width="56" height="56" x="4" y="5" rx="16.8" ry="16.8" style="opacity:.2"/><rect width="56" height="56" x="4" y="4" rx="16.8" ry="16.8" style="fill:#4791ce"/><path d="M16 4.695A16.75 16.75 0 0 0 4.234 18H16zM16 18v14h14V18zm0 14H4v11.201c0 .955.083 1.888.234 2.799H16zm0 14v13.307c1.52.449 3.131.693 4.801.693H30V46z" style="fill:#87bdff"/><rect width="6" height="60" x="29" y="3" rx="3" ry="3" style="opacity:.2"/><rect width="6" height="60" x="29" y="2" rx="3" ry="3" style="fill:#304059"/><circle cx="32" cy="33" r="12" style="opacity:.2"/><circle cx="32" cy="32" r="12" style="fill:#375179"/><path d="M35 27v10l7-5Zm-6 0v10l-7-5Z" style="fill:#9fc8ff"/><path d="M34.83 4A2.99 2.99 0 0 0 32 2c-1.311 0-2.42.833-2.83 2m-8.369 0A16.765 16.765 0 0 0 4 20.801v1A16.765 16.765 0 0 1 20.801 5h22.398A16.765 16.765 0 0 1 60 21.801v-1A16.765 16.765 0 0 0 43.199 4Z" style="opacity:.1;fill:#fff"/></svg>