<svg xmlns="http://www.w3.org/2000/svg" width="64" height="64"><rect width="56" height="56" x="4" y="4" rx="3" ry="3" style="fill:#2a74c2"/><g style="opacity:.2"><path d="m51.762 21.287 10.238 6-11.822 20.785-10.237-6ZM38.955 43.804l10.238 6L46.238 55 36 49z"/><path d="m52.483 24.02 6.826 4-9.852 17.32-6.825-4zM39.677 46.536l6.825 4-.985 1.732-6.826-4z"/></g><g style="opacity:.2"><path d="m32.283 8.985 11.591 3.105-6.212 23.183-11.59-3.106Zm-6.729 25.114 11.59 3.106L35.593 43 24 39.894z"/><path d="m33.697 11.434 7.728 2.07-5.177 19.32-7.727-2.071zm-6.729 25.114 7.727 2.07-.517 1.933-7.728-2.07z"/></g><path d="M7 4C5.34 4 4 5.338 4 7v1c0-1.662 1.34-3 3-3h50c1.663 0 3 1.338 3 3V7c0-1.662-1.337-3-3-3z" style="opacity:.1;fill:#fff"/><g style="opacity:.2"><path d="m2 22.09 11.591-3.105 6.212 23.182-11.591 3.106Zm6.73 25.115 11.59-3.106 1.553 5.795L10.283 53z"/><path d="m4.45 23.505 7.727-2.071 5.176 19.319-7.727 2.07zm6.729 25.114 7.727-2.07.518 1.931-7.728 2.07z"/></g><path d="M2 9h6v12H2Zm0 13h6v3H2z" style="fill:#fff" transform="rotate(-15 14.737 27.141)scale(2)"/><path d="M3 10h4v10H3zm0 13h4v1H3z" style="fill:#b0b0b0" transform="rotate(-15 14.737 27.141)scale(2)"/><path d="M2 9h6v12H2Zm0 13h6v3H2z" style="fill:#fff" transform="rotate(15 56.179 120.407)scale(2)"/><path d="M3 10h4v10H3zm0 13h4v1H3z" style="fill:#b0b0b0" transform="rotate(15 56.179 120.407)scale(2)"/><path d="M2 9h6v12H2Zm0 13h6v3H2z" style="fill:#fff" transform="rotate(30 23.732 108.713)scale(2)"/><path d="M3 10h4v10H3zm0 13h4v1H3z" style="fill:#b0b0b0" transform="rotate(30 23.732 108.713)scale(2)"/><path d="M4 57v1c0 1.662 1.339 3 3 3h50c1.663 0 3-1.338 3-3v-1c0 1.662-1.337 3-3 3H7c-1.661 0-3-1.338-3-3" style="opacity:.2"/></svg>