<svg xmlns="http://www.w3.org/2000/svg" xmlns:xlink="http://www.w3.org/1999/xlink" width="64" height="64"><defs><filter id="d" width="1.241" height="1.47" x="-.12" y="-.234" style="color-interpolation-filters:sRGB"><feGaussianBlur stdDeviation="1.966"/></filter><filter id="e" width="1.195" height="1.286" x="-.097" y="-.143" style="color-interpolation-filters:sRGB"><feGaussianBlur stdDeviation="1.986"/></filter><filter id="g" width="1.235" height="1.152" x="-.118" y="-.076" style="color-interpolation-filters:sRGB"><feGaussianBlur stdDeviation=".677"/></filter><radialGradient xlink:href="#a" id="f" cx="29.98" cy="86.025" r="7" fx="29.98" fy="86.025" gradientTransform="rotate(150 360.222 707.479)scale(9.77108 16.91023)" gradientUnits="userSpaceOnUse"/><radialGradient xlink:href="#b" id="c" cx="3.604" cy="69.384" r="28" fx="3.604" fy="69.384" gradientTransform="matrix(3.66312 0 0 2.22404 -6.562 -95.054)" gradientUnits="userSpaceOnUse"/><linearGradient id="a"><stop offset="0" style="stop-color:#42e67d;stop-opacity:1"/><stop offset="1" style="stop-color:#1fc2b1;stop-opacity:1"/></linearGradient><linearGradient id="b"><stop offset="0" style="stop-color:#2f2f2f;stop-opacity:1"/><stop offset="1" style="stop-color:#686868;stop-opacity:1"/></linearGradient></defs><path d="M17.251 6H46.75A5.25 5.25 45 0 1 52 11.251v19.557H12V11.25A5.25 5.25 135 0 1 17.251 6" style="fill:#b4b4b4;fill-opacity:1" transform="translate(.001 -1.025)"/><path d="M16 10.345v3.77a1.115 1.115 45 0 0 1.115 1.115h7.77A1.115 1.115 135 0 0 26 14.116v-3.77a1.115 1.115 45 0 0-1.115-1.116h-7.77A1.115 1.115 135 0 0 16 10.345" style="opacity:.450368;fill:#000;fill-opacity:1" transform="translate(-4.665 -3.116)scale(1.29688)"/><path d="M16 10.345v3.77a1.115 1.115 45 0 0 1.115 1.115h7.77A1.115 1.115 135 0 0 26 14.116v-3.77a1.115 1.115 45 0 0-1.115-1.116h-7.77A1.115 1.115 135 0 0 16 10.345" style="opacity:.450368;fill:#000;fill-opacity:1" transform="translate(14.198 -3.037)scale(1.29688)"/><rect width="49.931" height="34" x="7.035" y="25.024" rx="7.882" ry="7.882" style="fill:url(#c)"/><path d="M17.252 4.975a5.25 5.25 0 0 0-5.25 5.25v15.352a7.9 7.9 0 0 1 2.916-.553h34.168a7.9 7.9 0 0 1 2.916.553V10.225a5.25 5.25 0 0 0-5.252-5.25Zm.28 3.879h10.075a1.446 1.446 0 0 1 1.448 1.445v4.89a1.446 1.446 0 0 1-1.448 1.446H17.531a1.446 1.446 0 0 1-1.445-1.445V10.3a1.446 1.446 0 0 1 1.445-1.446Zm18.863.078H46.47a1.446 1.446 0 0 1 1.447 1.447v4.89a1.446 1.446 0 0 1-1.447 1.444H36.395a1.446 1.446 0 0 1-1.446-1.445V10.38a1.446 1.446 0 0 1 1.446-1.447z" style="mix-blend-mode:normal;fill:none;stroke:#000;stroke-width:.2;stroke-dasharray:none;stroke-opacity:1;filter:url(#d)"/><path d="M14.917 25.025a7.865 7.865 0 0 0-7.883 7.88v18.237a7.866 7.866 0 0 0 7.883 7.883h34.168a7.865 7.865 0 0 0 7.88-7.883V32.906a7.863 7.863 0 0 0-7.88-7.881z" style="mix-blend-mode:normal;fill:none;fill-opacity:1;stroke:#000;stroke-width:.2;stroke-dasharray:none;stroke-opacity:1;filter:url(#e)"/><path d="m24.855 45.406 6.61 7.977a.684.684 179.499 0 0 1.06-.009l6.643-8.308a.735.735 64.486 0 0-.57-1.194l-2.389-.013a.654.654 45.165 0 1-.65-.655v-8.77a3.524 3.524 45 0 0-3.525-3.525h-.067a3.524 3.524 135 0 0-3.523 3.524v9.083a.66.66 134.556 0 1-.651.661l-2.39.037a.728.728 114.733 0 0-.548 1.192" style="fill:url(#f)"/><path d="m24.855 45.406 6.61 7.977a.684.684 179.499 0 0 1.06-.009l6.643-8.308a.735.735 64.486 0 0-.57-1.194l-2.389-.013a.654.654 45.165 0 1-.65-.655v-8.77a3.524 3.524 45 0 0-3.525-3.525h-.067a3.524 3.524 135 0 0-3.523 3.524v9.083a.66.66 134.556 0 1-.651.661l-2.39.037a.728.728 114.733 0 0-.548 1.192z" style="fill:none;stroke:#000;stroke-opacity:1;stroke-width:.2;stroke-dasharray:none;filter:url(#g)"/></svg>