<svg xmlns="http://www.w3.org/2000/svg" xmlns:xlink="http://www.w3.org/1999/xlink" width="64" height="64"><defs><filter id="c" width="1.241" height="1.47" x="-.12" y="-.234" style="color-interpolation-filters:sRGB"><feGaussianBlur stdDeviation="1.966"/></filter><filter id="d" width="1.193" height="1.283" x="-.096" y="-.142" style="color-interpolation-filters:sRGB"><feGaussianBlur stdDeviation="1.966"/></filter><radialGradient xlink:href="#a" id="b" cx="3.604" cy="69.384" r="28" fx="3.604" fy="69.384" gradientTransform="matrix(3.66312 0 0 2.22404 -6.563 -95.054)" gradientUnits="userSpaceOnUse"/><linearGradient id="a"><stop offset="0" style="stop-color:#2f2f2f;stop-opacity:1"/><stop offset="1" style="stop-color:#686868;stop-opacity:1"/></linearGradient></defs><path d="M17.251 6H46.75A5.25 5.25 45 0 1 52 11.251v19.557H12V11.25A5.25 5.25 135 0 1 17.251 6" style="fill:#b4b4b4;fill-opacity:1" transform="translate(0 -1.025)"/><path d="M16 10.345v3.77a1.115 1.115 45 0 0 1.115 1.115h7.77A1.115 1.115 135 0 0 26 14.116v-3.77a1.115 1.115 45 0 0-1.115-1.116h-7.77A1.115 1.115 135 0 0 16 10.345" style="opacity:.450368;fill:#000;fill-opacity:1" transform="translate(-4.666 -3.116)scale(1.29688)"/><path d="M16 10.345v3.77a1.115 1.115 45 0 0 1.115 1.115h7.77A1.115 1.115 135 0 0 26 14.116v-3.77a1.115 1.115 45 0 0-1.115-1.116h-7.77A1.115 1.115 135 0 0 16 10.345" style="opacity:.450368;fill:#000;fill-opacity:1" transform="translate(14.197 -3.037)scale(1.29688)"/><rect width="49.931" height="34" x="7.034" y="25.025" rx="7.882" ry="7.882" style="fill:url(#b)"/><path d="M17.251 4.976a5.25 5.25 0 0 0-5.25 5.25v15.351a7.9 7.9 0 0 1 2.916-.553h34.168a7.9 7.9 0 0 1 2.916.553V10.226a5.25 5.25 0 0 0-5.252-5.25Zm.28 3.878h10.075a1.446 1.446 0 0 1 1.448 1.446v4.89a1.446 1.446 0 0 1-1.448 1.446H17.53a1.446 1.446 0 0 1-1.445-1.446V10.3a1.446 1.446 0 0 1 1.445-1.446zm18.863.079H46.47a1.446 1.446 0 0 1 1.447 1.447v4.889a1.446 1.446 0 0 1-1.447 1.445H36.394a1.446 1.446 0 0 1-1.446-1.445v-4.89a1.446 1.446 0 0 1 1.446-1.446z" style="mix-blend-mode:normal;fill:none;stroke:#000;stroke-width:.2;stroke-dasharray:none;stroke-opacity:1;filter:url(#c)"/><path d="m31.999 28.434-4.119 6.59h2.354v8.237h-4.825v-2.176a3.53 3.53 0 0 0 1.883-3.12 3.53 3.53 0 0 0-3.53-3.53 3.53 3.53 0 0 0-3.531 3.53 3.53 3.53 0 0 0 1.882 3.12v2.176c0 3.295 3.296 3.53 3.296 3.53h4.825v2.243a3.53 3.53 0 0 0-1.765 3.053 3.53 3.53 0 0 0 3.53 3.53 3.53 3.53 0 0 0 3.53-3.53 3.53 3.53 0 0 0-1.765-3.054v-2.242h4.825s3.296-.235 3.296-3.53v-1.765h.411c.815 0 1.471-.656 1.471-1.471v-4.12c0-.814-.656-1.47-1.471-1.47h-4.119c-.815 0-1.47.656-1.47 1.47v4.12c0 .815.655 1.47 1.47 1.47h.412v1.766h-4.825v-8.238h2.354z" style="fill:#000;fill-opacity:1;stroke-width:0;stroke-dasharray:none;opacity:.48237147"/><path d="M14.916 25.025a7.865 7.865 0 0 0-7.883 7.881v18.237a7.866 7.866 0 0 0 7.883 7.882h34.168a7.865 7.865 0 0 0 7.88-7.882V32.906a7.863 7.863 0 0 0-7.88-7.88zM32 28.434l4.12 6.587h-2.354v8.239h4.824v-1.766h-.412a1.467 1.467 0 0 1-1.471-1.47v-4.12c0-.815.656-1.47 1.47-1.47h4.12c.815 0 1.47.655 1.47 1.47v4.12c0 .814-.655 1.47-1.47 1.47h-.412v1.766c0 3.295-3.295 3.531-3.295 3.531h-4.824v2.242a3.53 3.53 0 0 1 1.765 3.053A3.53 3.53 0 0 1 32 55.617a3.53 3.53 0 0 1-3.531-3.531 3.53 3.53 0 0 1 1.765-3.053v-2.242H25.41s-3.295-.236-3.295-3.531v-2.176a3.53 3.53 0 0 1-1.883-3.12 3.53 3.53 0 0 1 3.53-3.53 3.53 3.53 0 0 1 3.531 3.53 3.53 3.53 0 0 1-1.883 3.12v2.176h4.824v-8.24h-2.353z" style="opacity:1;mix-blend-mode:normal;fill:none;fill-opacity:1;stroke:#000;stroke-width:.2;stroke-dasharray:none;stroke-opacity:1;filter:url(#d)"/></svg>