<svg xmlns="http://www.w3.org/2000/svg" xmlns:xlink="http://www.w3.org/1999/xlink" width="64" height="64"><defs><radialGradient xlink:href="#a" id="c" cx="3.604" cy="69.384" r="28" fx="3.604" fy="69.384" gradientTransform="matrix(3.66312 0 0 2.22404 -6.562 -95.054)" gradientUnits="userSpaceOnUse"/><radialGradient xlink:href="#b" id="f" cx="12.749" cy="51.876" r="10.22" fx="12.749" fy="51.876" gradientTransform="rotate(-15 -980.287 439.194)scale(6.20899 6.20884)" gradientUnits="userSpaceOnUse"/><linearGradient id="b"><stop offset="0" style="stop-color:#0bf;stop-opacity:1"/><stop offset="1" style="stop-color:#0073ff;stop-opacity:1"/></linearGradient><linearGradient id="a"><stop offset="0" style="stop-color:#2f2f2f;stop-opacity:1"/><stop offset="1" style="stop-color:#686868;stop-opacity:1"/></linearGradient><filter id="d" width="1.241" height="1.47" x="-.12" y="-.234" style="color-interpolation-filters:sRGB"><feGaussianBlur stdDeviation="1.966"/></filter><filter id="e" width="1.193" height="1.283" x="-.096" y="-.142" style="color-interpolation-filters:sRGB"><feGaussianBlur stdDeviation="1.966"/></filter></defs><path d="M17.251 6H46.75A5.25 5.25 45 0 1 52 11.251v19.557H12V11.25A5.25 5.25 135 0 1 17.251 6" style="fill:#b4b4b4;fill-opacity:1" transform="translate(.001 -1.025)"/><path d="M16 10.345v3.77a1.115 1.115 45 0 0 1.115 1.115h7.77A1.115 1.115 135 0 0 26 14.116v-3.77a1.115 1.115 45 0 0-1.115-1.116h-7.77A1.115 1.115 135 0 0 16 10.345" style="opacity:.450368;fill:#000;fill-opacity:1" transform="translate(-4.665 -3.116)scale(1.29688)"/><path d="M16 10.345v3.77a1.115 1.115 45 0 0 1.115 1.115h7.77A1.115 1.115 135 0 0 26 14.116v-3.77a1.115 1.115 45 0 0-1.115-1.116h-7.77A1.115 1.115 135 0 0 16 10.345" style="opacity:.450368;fill:#000;fill-opacity:1" transform="translate(14.198 -3.037)scale(1.29688)"/><rect width="49.931" height="34" x="7.035" y="25.024" rx="7.882" ry="7.882" style="fill:url(#c)"/><path d="M17.252 4.975a5.25 5.25 0 0 0-5.25 5.25v15.352a7.9 7.9 0 0 1 2.916-.553h34.168a7.9 7.9 0 0 1 2.916.553V10.225a5.25 5.25 0 0 0-5.252-5.25Zm.28 3.879h10.075a1.446 1.446 0 0 1 1.448 1.445v4.89a1.446 1.446 0 0 1-1.448 1.446H17.531a1.446 1.446 0 0 1-1.445-1.445V10.3a1.446 1.446 0 0 1 1.445-1.446Zm18.863.078H46.47a1.446 1.446 0 0 1 1.447 1.447v4.89a1.446 1.446 0 0 1-1.447 1.444H36.395a1.446 1.446 0 0 1-1.446-1.445V10.38a1.446 1.446 0 0 1 1.446-1.447z" style="mix-blend-mode:normal;fill:none;stroke:#000;stroke-width:.2;stroke-dasharray:none;stroke-opacity:1;filter:url(#d)"/><path d="M14.917 25.025a7.865 7.865 0 0 0-7.883 7.88v18.237a7.866 7.866 0 0 0 7.883 7.883h34.168a7.865 7.865 0 0 0 7.88-7.883V32.906a7.863 7.863 0 0 0-7.88-7.881z" style="mix-blend-mode:normal;fill:none;fill-opacity:1;stroke:#000;stroke-width:.2;stroke-dasharray:none;stroke-opacity:1;filter:url(#e)"/><path d="M14.903 25.024c.288 5.73 1.498 11.732 4.001 16.247 2.713 4.894 6.533 8.718 13.097 11.07 6.564-2.352 10.384-6.176 13.097-11.07 2.503-4.515 3.713-10.518 4-16.247h-29.09Zm16.972 1.572h.003c4.172 0 8.103 3.103 9.366 6.704.075.214-.077.442-.298.442h-4.044a.32.32 0 0 1-.258-.138c-1.099-1.57-2.768-2.484-4.846-2.484-3.505 0-5.46 2.273-5.46 5.708 0 3.473 2.182 5.896 5.666 5.797 3.705-.105 4.855-1.894 4.855-1.894h-5.303a.32.32 0 0 1-.317-.326v-4.038c0-.18.141-.328.317-.328h10.348c.176 0 .316.147.316.328v.47a.3.3 0 0 1-.009.08c-.044 5.345-4.394 10.118-10.01 10.118-5.862 0-10.42-4.496-10.42-10.26 0-5.66 4.5-10.179 10.094-10.179" style="fill:#000;stroke-width:.786102;fill-opacity:1;opacity:.43981855"/><path d="M31.873 26.594h.003c4.172 0 8.103 3.103 9.366 6.703.074.214-.078.442-.298.442H36.9a.32.32 0 0 1-.258-.138c-1.099-1.569-2.768-2.484-4.846-2.484-3.505 0-5.46 2.274-5.46 5.708 0 3.473 2.181 5.897 5.666 5.798 3.705-.105 4.855-1.895 4.855-1.895h-5.304a.32.32 0 0 1-.316-.325v-4.038c0-.181.14-.328.316-.329h10.349c.175 0 .316.148.316.329v.47a.3.3 0 0 1-.01.08c-.043 5.344-4.393 10.117-10.01 10.117-5.86 0-10.419-4.496-10.419-10.259 0-5.661 4.5-10.18 10.094-10.18" style="opacity:1;fill:url(#f);fill-opacity:1;stroke-width:.786102"/></svg>