<svg xmlns="http://www.w3.org/2000/svg" xmlns:xlink="http://www.w3.org/1999/xlink" width="64" height="64"><defs><radialGradient xlink:href="#a" id="e" cx="-50.839" cy="-12.642" r="16" fx="-50.839" fy="-12.642" gradientTransform="rotate(30.435 -212.043 193.28)scale(3.46729 4.59945)" gradientUnits="userSpaceOnUse"/><radialGradient xlink:href="#a" id="d" cx="-47.185" cy="4.373" r="20" fx="-47.185" fy="4.373" gradientTransform="rotate(196.778 -76.905 -27.16)scale(2.83436 5.33431)" gradientUnits="userSpaceOnUse"/><radialGradient xlink:href="#b" id="f" cx="37.067" cy="56.557" r="16" fx="37.067" fy="56.557" gradientTransform="rotate(-30 -52.736 150.003)scale(2.00424)" gradientUnits="userSpaceOnUse"/><linearGradient id="b"><stop offset="0" style="stop-color:#ff5981;stop-opacity:1"/><stop offset="1" style="stop-color:#ec2b1b;stop-opacity:.99816096"/></linearGradient><linearGradient id="a"><stop offset="0" style="stop-color:#707070;stop-opacity:1"/><stop offset="1" style="stop-color:#282828;stop-opacity:1"/></linearGradient><filter id="c" width="1.039" height="1.03" x="-.019" y="-.015" style="color-interpolation-filters:sRGB"><feGaussianBlur stdDeviation=".323"/></filter><filter id="g" width="1.187" height="1.187" x="-.094" y="-.094" style="color-interpolation-filters:sRGB"><feGaussianBlur stdDeviation="1.173"/></filter></defs><rect width="40" height="52" x="-50" y="-58" rx="2.5" ry="2.5" style="opacity:.862891;mix-blend-mode:normal;filter:url(#c)" transform="matrix(0 -1 -1 0 0 2)"/><rect width="40" height="52" x="-52" y="-58" rx="2.5" ry="2.5" style="fill:url(#d)" transform="rotate(90)scale(-1 1)"/><rect width="32" height="44" x="-48" y="-54" rx="1.32" ry="1.32" style="fill:url(#e)" transform="rotate(90)scale(-1 1)"/><circle cx="48.003" cy="46.006" r="13.252" style="fill:url(#f);stroke-width:.828242"/><circle cx="48.018" cy="46.034" r="16" style="fill:none;stroke:#000;stroke-opacity:1;filter:url(#g);stroke-width:.36221305;stroke-dasharray:none" transform="translate(8.247 7.907)scale(.82824)"/><path d="M48.067 35.871h.007a1.997 1.997 45 0 1 1.997 1.997v8.006a1.997 1.997 135 0 1-1.997 1.997h-.007a1.997 1.997 45 0 1-1.996-1.997v-8.006a1.997 1.997 135 0 1 1.996-1.997m-.025 16h.058a1.97 1.97 45 0 1 1.97 1.971v.058a1.97 1.97 135 0 1-1.97 1.971h-.058A1.97 1.97 45 0 1 46.07 53.9v-.058a1.97 1.97 135 0 1 1.97-1.971" style="fill:#fff" transform="translate(8.247 7.907)scale(.82824)"/></svg>