<svg xmlns="http://www.w3.org/2000/svg" width="64" height="64"><rect width="42" height="32" x="-56" y="-48" rx="2.5" ry="2.5" style="opacity:.2" transform="rotate(90)scale(-1 1)"/><rect width="42" height="32" x="-55" y="-48" rx="2.5" ry="2.5" style="fill:#8e8e8e" transform="rotate(90)scale(-1 1)"/><rect width="40" height="52" x="-50" y="-58" rx="2.5" ry="2.5" style="opacity:.2" transform="rotate(90)scale(-1 1)"/><rect width="40" height="52" x="-49" y="-58" rx="2.5" ry="2.5" style="fill:#4f4f4f" transform="rotate(90)scale(-1 1)"/><rect width="32" height="44" x="-45" y="-54" rx="0" ry="0" style="fill:#333" transform="rotate(90)scale(-1 1)"/><path d="M8.5 9A2.495 2.495 0 0 0 6 11.5v1C6 11.115 7.115 10 8.5 10h47c1.385 0 2.5 1.115 2.5 2.5v-1c0-1.385-1.115-2.5-2.5-2.5ZM10 45h44v1H10z" style="opacity:.1;fill:#fff"/><path d="M42 18a4 4 0 1 0 0 8 4 4 0 0 0 0-8" style="opacity:.2"/><path d="M42 17a4 4 0 1 0 0 8 4 4 0 0 0 0-8M21 29c-5.5 0-11 4-11 14.124V45h44s-3.667-12-9.166-12-5.5 6-9.167 6-9.166-10-14.666-10z" style="fill:#c0ca33"/></svg>