<svg xmlns="http://www.w3.org/2000/svg" width="64" height="64"><path d="M23.806 15c-2.921 0-5.528.162-7.322 2H11c-4.986 0-9 4.413-9 9.4v13.2c0 4.987 4.014 9.4 9 9.4h5.484c1.794 1.838 4.4 2 7.322 2h16.388c2.921 0 5.528-.162 7.322-2H53c4.986 0 9-4.413 9-9.4V26.4c0-4.987-4.014-9.4-9-9.4h-5.484c-1.794-1.838-4.4-2-7.322-2z" style="opacity:.2"/><path d="M23.806 14c-2.921 0-5.528.162-7.322 2H11c-4.986 0-9 4.413-9 9.4v13.2c0 4.987 4.014 9.4 9 9.4h5.484c1.794 1.838 4.4 2 7.322 2h16.388c2.921 0 5.528-.162 7.322-2H53c4.986 0 9-4.413 9-9.4V25.4c0-4.987-4.014-9.4-9-9.4h-5.484c-1.794-1.838-4.4-2-7.322-2z" style="fill:#7f4fc8"/><circle cx="57" cy="30" r="3" style="opacity:.2"/><circle cx="57" cy="29" r="3" style="fill:#fff"/><circle cx="34" cy="-49" r="3" style="opacity:.2" transform="rotate(90)"/><circle cx="33" cy="-49" r="3" style="fill:#fff" transform="rotate(90)"/><path d="M20 20h24v24H20z" style="fill:#7b92ed"/><circle cx="21.5" cy="-53.5" r="1.5" style="opacity:.2" transform="rotate(90)"/><circle cx="20.5" cy="-53.5" r="1.5" style="fill:#52ff41" transform="rotate(90)"/><path d="M10 25c-1.108 0-2 .892-2 2v2H6c-1.108 0-2 .892-2 2v2c0 1.108.892 2 2 2h2v2c0 1.108.892 2 2 2h2c1.108 0 2-.892 2-2v-2h2c1.108 0 2-.892 2-2v-2c0-1.108-.892-2-2-2h-2v-2c0-1.108-.892-2-2-2z" style="opacity:.2"/><path d="M10 24c-1.108 0-2 .892-2 2v2H6c-1.108 0-2 .892-2 2v2c0 1.108.892 2 2 2h2v2c0 1.108.892 2 2 2h2c1.108 0 2-.892 2-2v-2h2c1.108 0 2-.892 2-2v-2c0-1.108-.892-2-2-2h-2v-2c0-1.108-.892-2-2-2z" style="fill:#fff"/><path d="M23.805 14c-2.921 0-5.527.162-7.32 2H11c-4.986 0-9 4.412-9 9.398v1C2 21.412 6.014 17 11 17h5.484c1.794-1.838 4.4-2 7.32-2h16.391c2.921 0 5.527.162 7.32 2H53c4.986 0 9 4.412 9 9.398v-1C62 20.412 57.986 16 53 16h-5.484c-1.794-1.838-4.4-2-7.32-2z" style="fill:#fff;opacity:.1"/></svg>