<svg xmlns="http://www.w3.org/2000/svg" xml:space="preserve" id="Layer_1" x="0" y="0" viewBox="0 0 64 64"><style>.st0{opacity:.2;enable-background:new}</style><path d="M4 31.8V33c0 15.5 12.5 28 28 28s28-12.5 28-28v-.8C59.3 47.2 47 59 32 59 16.9 59 4.5 47 4 31.8" class="st0"/><radialGradient id="SVGID_1_" cx="16.292" cy="18.832" r="45.742" gradientUnits="userSpaceOnUse"><stop offset="0" style="stop-color:#717171"/><stop offset="1" style="stop-color:#242424"/></radialGradient><path d="M32 4C16.5 4 4 16.5 4 32s12.5 28 28 28 28-12.5 28-28S47.5 4 32 4" style="fill:url(#SVGID_1_)"/><path d="M22.4 19H21c-2.6-.1-5.1 0-7.7 0-1.8 0-1.4 2.2-.9 3.1 5.7 10.2 12.4 21.5 18.7 32.3 1.2 1.8 2.5-.6 3.2-1.7 1.7-2.6 3.1-5.4 4.6-8.1.6-1.8-1.1-3.3-1.7-4.8-3.7-6.6-7.6-13-11.4-19.6-.9-1.1-2-1.2-3.4-1.2m18.7 0c-1.9 0-.7 2.2-.7 2.2s2.9 5.5 4.5 8.4c1.7 3 2.6.4 3-.4 1.5-3 2.8-6.1 3.8-8.1 1-2.1-1.1-2.1-1.1-2.1z" class="st0"/><path d="M22.4 18H21c-2.6-.1-5.1 0-7.7 0-1.8 0-1.4 2.2-.9 3.1 5.7 10.2 12.4 21.5 18.7 32.3 1.2 1.8 2.5-.6 3.2-1.7 1.7-2.6 3.1-5.4 4.6-8.1.6-1.8-1.1-3.3-1.7-4.8-3.7-6.6-7.6-13-11.4-19.6-.9-1.1-2-1.2-3.4-1.2m18.7 0c-1.9 0-.7 2.2-.7 2.2s2.9 5.5 4.5 8.4c1.7 3 2.6.4 3-.4 1.5-3 2.8-6.1 3.8-8.1 1-2.1-1.1-2.1-1.1-2.1z" style="fill:#e4e4e4"/><path d="M22.4 18H21c-2.6-.1-5.1 0-7.7 0-1.2 0-1.4 1-1.2 2 .1-.5.5-1 1.2-1 2.6 0 5.1-.1 7.7 0h1.4c1.3 0 2.4.1 3.4 1.2 3.8 6.5 7.7 13 11.4 19.6.5 1.2 1.5 2.2 1.8 3.5.3-1.7-1.2-3-1.8-4.5-3.7-6.6-7.6-13-11.4-19.6-.9-1.1-2-1.2-3.4-1.2m18.7 0c-1.2 0-1.2.9-1 1.5.1-.3.4-.5 1-.5h9.5s1 0 1.3.6c.5-1.6-1.3-1.6-1.3-1.6z" style="opacity:.2;fill:#fff"/></svg>