<svg xmlns="http://www.w3.org/2000/svg" width="64" height="64"><rect width="56" height="56" x="4" y="5" rx="16.8" ry="16.8" style="opacity:.2"/><rect width="56" height="56" x="4" y="4" rx="16.8" ry="16.8" style="fill:#653d32"/><path d="M21 11h22c6.189 0 11 4.811 11 11v22c0 6.19-4.811 11-11 11H21c-6.189 0-11-4.81-11-11V22c0-6.189 4.811-11 11-11" style="opacity:.2"/><path d="M21 10h22c6.189 0 11 4.811 11 11v22c0 6.19-4.811 11-11 11H21c-6.189 0-11-4.81-11-11V21c0-6.189 4.811-11 11-11" style="fill:#346f8a"/><path d="M19.141 17c-2.13 0-3.141.718-3.141 2.984 0 1.935.906 2.987 2.717 2.985h.424l8.093 23.381c.693 1.99.853 2.65 3.196 2.65h3.14c2.343 0 2.503-.66 3.196-2.65l8.093-23.381h.424c1.811.002 2.717-1.05 2.717-2.985C48 17.718 46.989 17 44.859 17h-6.623C36.107 17 35 17.774 35 19.984s1.105 2.985 2.832 2.985L32 41l-5.832-18.031c1.727 0 2.832-.774 2.832-2.985S27.893 17 25.764 17Z" style="opacity:.2"/><path d="M19.141 16c-2.13 0-3.141.718-3.141 2.984 0 1.935.906 2.987 2.717 2.985h.424l8.093 23.381c.693 1.99.853 2.65 3.196 2.65h3.14c2.343 0 2.503-.66 3.196-2.65l8.093-23.381h.424c1.811.002 2.717-1.05 2.717-2.985C48 16.718 46.989 16 44.859 16h-6.623C36.107 16 35 16.774 35 18.984s1.105 2.985 2.832 2.985L32 40l-5.832-18.031c1.727 0 2.832-.774 2.832-2.985S27.893 16 25.764 16Z" style="fill:#5fd6ff"/><path d="M20.801 4A16.765 16.765 0 0 0 4 20.801v1A16.765 16.765 0 0 1 20.801 5h22.398A16.765 16.765 0 0 1 60 21.801v-1A16.765 16.765 0 0 0 43.199 4Z" style="opacity:.1;fill:#fff"/><path d="M21 10c-6.189 0-11 4.811-11 11v1c0-6.189 4.811-11 11-11h22c6.189 0 11 4.811 11 11v-1c0-6.189-4.811-11-11-11Z" style="opacity:.1;fill:#fff"/><path d="M19.141 16c-2.13 0-3.141.718-3.141 2.984 0 .173.017.33.031.489.153-1.852 1.155-2.473 3.11-2.473h6.623c1.955 0 3.037.666 3.203 2.484.015-.162.033-.319.033-.5C29 16.774 27.893 16 25.764 16Zm19.095 0C36.107 16 35 16.774 35 18.984c0 .181.018.338.033.5.166-1.818 1.248-2.484 3.203-2.484h6.623c1.955 0 2.957.621 3.11 2.473.014-.159.031-.316.031-.489C48 16.718 46.989 16 44.859 16ZM26.48 22.934l-.312.035L32 41l5.832-18.031-.312-.035L32 40Z" style="opacity:.2;fill:#fff"/></svg>