<svg xmlns="http://www.w3.org/2000/svg" width="64" height="64"><rect width="56" height="56" x="4" y="4" rx="3" ry="3" style="fill:#4f4f4f"/><path d="m10 15 12 40h30l-4-10h-9l-3-9 3-11h9l4-10H32l-5.984 20.942L20 15z" style="opacity:.2"/><path d="M7 4C5.338 4 4 5.338 4 7v1c0-1.662 1.338-3 3-3h50c1.662 0 3 1.338 3 3V7c0-1.662-1.338-3-3-3z" style="opacity:.1;fill:#fff"/><path d="M4 57v1c0 1.662 1.338 3 3 3h50c1.662 0 3-1.338 3-3v-1c0 1.662-1.338 3-3 3H7c-1.662 0-3-1.338-3-3" style="opacity:.2"/><path d="M10 14h10l10.538 36.67.712 3.33H22z" style="fill:#0198c4"/><path d="M34.688 35.01 26.45 35 22 54h9c4.114-17.837 3.689-18.99 3.689-18.99z" style="fill:#4dbac2"/><path d="m32 14-6 21 5.25 19H52l-4-10h-9l-3-9 3-11h9l4-10z" style="fill:#06b788"/></svg>