<svg xmlns="http://www.w3.org/2000/svg" width="64" height="64"><rect width="56" height="56" x="4" y="5" ry="11.2" style="opacity:.2"/><path d="M4.063 50c.595 5.636 5.337 10 11.136 10h33.602c5.8 0 10.541-4.364 11.136-10z" style="fill:#aa5bd5"/><path d="M15.2 4a11.17 11.17 0 0 0-10.985 9h55.57a11.17 11.17 0 0 0-10.984-9z" style="fill:#f04b5e"/><path d="M4.215 13A11.3 11.3 0 0 0 4 15.2V22h56v-6.8q-.002-1.132-.215-2.2z" style="fill:#fd904c"/><path d="M4 22h56v10H4z" style="fill:#facf50"/><path d="M4 32h56v9H4z" style="fill:#3cc86d"/><path d="M4 41v7.8q0 .609.063 1.2h55.875q.062-.591.062-1.2V41z" style="fill:#5498f2"/><path d="M14 17v13.547l.615 1.48 7 6.973h2.97l6.8-6.974.615-1.479V17h-4v12.681l-4.9 5.081-5.1-5.081V17z" style="fill:none;opacity:.1;stroke-linecap:square;stroke-width:6;stroke:#000"/><path d="M14 16v13.547l.615 1.48 7 6.973h2.97l6.8-6.974.615-1.479V16h-4v12.681l-4.9 5.081-5.1-5.081V16z" style="fill:none;stroke-linecap:square;stroke-width:6;stroke:#555"/><path d="M14 16v13.547l.615 1.48 7 6.973h2.97l6.8-6.974.615-1.479V16h-4v12.681l-4.9 5.081-5.1-5.081V16z" style="fill:#fff"/><path d="M32 26v4h-4v14h4v4h14v-4h4v-4h-7v4h-8V30h8v4h7v-4h-4v-4z" style="fill:none;opacity:.1;stroke-width:6;stroke:#000"/><path d="M32 25v4h-4v14h4v4h14v-4h4v-4h-7v4h-8V29h8v4h7v-4h-4v-4z" style="fill:none;stroke-width:6;stroke:#555"/><path d="M32 25v4h-4v14h4v4h14v-4h4v-4h-7v4h-8V29h8v4h7v-4h-4v-4z" style="fill:#ecb2c3"/><path d="M15.2 4C8.993 4 4 8.994 4 15.2v1C4 9.993 8.994 5 15.2 5h33.6C55.007 5 60 9.994 60 16.2v-1C60 8.993 55.006 4 48.8 4z" style="fill:#fff;opacity:.2"/></svg>