<svg xmlns="http://www.w3.org/2000/svg" xmlns:xlink="http://www.w3.org/1999/xlink" width="64" height="64"><defs><radialGradient xlink:href="#a" id="h" cx="44.443" cy="18.727" r="25.717" fx="44.443" fy="18.727" gradientUnits="userSpaceOnUse"/><radialGradient xlink:href="#b" id="i" cx="50.094" cy="34.159" r="25.717" fx="50.094" fy="34.159" gradientTransform="rotate(30 43.08 44.414)scale(.87889 .93757)" gradientUnits="userSpaceOnUse"/><radialGradient xlink:href="#c" id="j" cx="18.34" cy="20.028" r="25.717" fx="18.34" fy="20.028" gradientTransform="rotate(-30 3.352 33.233)scale(1.40442 1.57895)" gradientUnits="userSpaceOnUse"/><radialGradient xlink:href="#d" id="k" cx="23.612" cy="54.858" r="25.717" fx="23.612" fy="54.858" gradientTransform="rotate(-15 -82.153 110.256)scale(1.53052)" gradientUnits="userSpaceOnUse"/><radialGradient xlink:href="#e" id="l" cx="41.653" cy="52.092" r="25.717" fx="41.653" fy="52.092" gradientTransform="rotate(-75 39.875 59.395)scale(1.13566)" gradientUnits="userSpaceOnUse"/><radialGradient xlink:href="#f" id="m" cx="8.802" cy="36.805" r="25.717" fx="8.802" fy="36.805" gradientTransform="rotate(15 94.184 29.223)scale(1.44027 1.6338)" gradientUnits="userSpaceOnUse"/><linearGradient id="a"><stop offset="0" style="stop-color:#1aff00;stop-opacity:1"/><stop offset="1" style="stop-color:#17ff00;stop-opacity:0"/></linearGradient><linearGradient id="b"><stop offset="0" style="stop-color:#00ffd7;stop-opacity:1"/><stop offset="1" style="stop-color:#00ffd8;stop-opacity:0"/></linearGradient><linearGradient id="c"><stop offset="0" style="stop-color:#ffb800;stop-opacity:1"/><stop offset="1" style="stop-color:#ffb200;stop-opacity:0"/></linearGradient><linearGradient id="d"><stop offset="0" style="stop-color:#ff6fd8;stop-opacity:1"/><stop offset="1" style="stop-color:#ff82dd;stop-opacity:0"/></linearGradient><linearGradient id="e"><stop offset="0" style="stop-color:#07f;stop-opacity:1"/><stop offset="1" style="stop-color:#0065ff;stop-opacity:0"/></linearGradient><linearGradient id="f"><stop offset="0" style="stop-color:#ff3737;stop-opacity:1"/><stop offset="1" style="stop-color:#ff3939;stop-opacity:0"/></linearGradient><filter id="g" width="1.139" height="1.139" x="-.069" y="-.069" style="color-interpolation-filters:sRGB"><feGaussianBlur stdDeviation="1.446"/></filter></defs><path d="M32 6.981C18.182 6.981 6.981 18.182 6.981 32S18.182 57.019 32 57.019 57.019 45.818 57.019 32 45.818 6.981 32 6.981m0 10.945c7.773 0 14.075 6.3 14.074 14.074 0 7.773-6.3 14.075-14.074 14.074-7.773 0-14.075-6.3-14.074-14.074 0-7.773 6.3-14.075 14.074-14.074" style="opacity:1;fill:#fff;fill-opacity:1;stroke:none;stroke-width:0;stroke-dasharray:none;stroke-opacity:1;paint-order:markers stroke fill;filter:url(#g)" transform="translate(2.716 2.716)scale(.91513)"/><path d="M32 6.283C17.797 6.283 6.283 17.797 6.283 32S17.797 57.717 32 57.717 57.717 46.203 57.717 32 46.203 6.283 32 6.283m0 15.806c5.474 0 9.912 4.437 9.911 9.911 0 5.474-4.437 9.912-9.911 9.911-5.474 0-9.912-4.437-9.911-9.911 0-5.474 4.437-9.912 9.911-9.911" style="opacity:1;mix-blend-mode:normal;fill:url(#h);fill-opacity:1;stroke:none;stroke-width:0;stroke-dasharray:none;stroke-opacity:1;paint-order:markers stroke fill"/><path d="M32 6.283C17.797 6.283 6.283 17.797 6.283 32S17.797 57.717 32 57.717 57.717 46.203 57.717 32 46.203 6.283 32 6.283m0 15.806c5.474 0 9.912 4.437 9.911 9.911 0 5.474-4.437 9.912-9.911 9.911-5.474 0-9.912-4.437-9.911-9.911 0-5.474 4.437-9.912 9.911-9.911" style="opacity:1;mix-blend-mode:normal;fill:url(#i);fill-opacity:1;stroke:none;stroke-width:0;stroke-dasharray:none;stroke-opacity:1;paint-order:markers stroke fill"/><path d="M32 6.283C17.797 6.283 6.283 17.797 6.283 32S17.797 57.717 32 57.717 57.717 46.203 57.717 32 46.203 6.283 32 6.283m0 15.806c5.474 0 9.912 4.437 9.911 9.911 0 5.474-4.437 9.912-9.911 9.911-5.474 0-9.912-4.437-9.911-9.911 0-5.474 4.437-9.912 9.911-9.911" style="opacity:1;mix-blend-mode:hard-light;fill:url(#j);fill-opacity:1;stroke:none;stroke-width:0;stroke-dasharray:none;stroke-opacity:1;paint-order:markers stroke fill"/><path d="M32 6.283C17.797 6.283 6.283 17.797 6.283 32S17.797 57.717 32 57.717 57.717 46.203 57.717 32 46.203 6.283 32 6.283m0 15.806c5.474 0 9.912 4.437 9.911 9.911 0 5.474-4.437 9.912-9.911 9.911-5.474 0-9.912-4.437-9.911-9.911 0-5.474 4.437-9.912 9.911-9.911" style="opacity:1;mix-blend-mode:normal;fill:url(#k);fill-opacity:1;stroke:none;stroke-width:0;stroke-dasharray:none;stroke-opacity:1;paint-order:markers stroke fill"/><path d="M32 6.283C17.797 6.283 6.283 17.797 6.283 32S17.797 57.717 32 57.717 57.717 46.203 57.717 32 46.203 6.283 32 6.283m0 15.806c5.474 0 9.912 4.437 9.911 9.911 0 5.474-4.437 9.912-9.911 9.911-5.474 0-9.912-4.437-9.911-9.911 0-5.474 4.437-9.912 9.911-9.911" style="opacity:1;mix-blend-mode:hard-light;fill:url(#l);fill-opacity:1;stroke:none;stroke-width:0;stroke-dasharray:none;stroke-opacity:1;paint-order:markers stroke fill"/><path d="M32 6.283C17.797 6.283 6.283 17.797 6.283 32S17.797 57.717 32 57.717 57.717 46.203 57.717 32 46.203 6.283 32 6.283m0 15.806c5.474 0 9.912 4.437 9.911 9.911 0 5.474-4.437 9.912-9.911 9.911-5.474 0-9.912-4.437-9.911-9.911 0-5.474 4.437-9.912 9.911-9.911" style="opacity:1;mix-blend-mode:hard-light;fill:url(#m);fill-opacity:1;stroke:none;stroke-width:0;stroke-dasharray:none;stroke-opacity:1;paint-order:markers stroke fill"/></svg>