<svg xmlns="http://www.w3.org/2000/svg" width="64" height="64"><path d="M7 54v7h5v-7zm9 0v7h5v-7zm9 0v7h5v-7zm9 0v7h5v-7zm9 0v7h5v-7zm9 0v7h5v-7z" style="opacity:.2"/><path d="M7 53v7h5v-7zm9 0v7h5v-7zm9 0v7h5v-7zm9 0v7h5v-7zm9 0v7h5v-7zm9 0v7h5v-7z" style="fill:#9f9f9f"/><rect width="56" height="46" x="4" y="10" rx="3" ry="3" style="opacity:.2"/><path d="M7 4v7h5V4zm9 0v7h5V4zm9 0v7h5V4zm9 0v7h5V4zm9 0v7h5V4zm9 0v7h5V4z" style="fill:#9f9f9f"/><path d="M7 4v1h5V4zm9 0v1h5V4zm9 0v1h5V4zm9 0v1h5V4zm9 0v1h5V4zm9 0v1h5V4z" style="fill:#fff;opacity:.2"/><rect width="56" height="46" x="4" y="9" rx="3" ry="3" style="fill:#4f4f4f"/><path d="M7 9c-1.662 0-3 1.338-3 3v1c0-1.662 1.338-3 3-3h50c1.662 0 3 1.338 3 3v-1c0-1.662-1.338-3-3-3z" style="fill:#fff;opacity:.1"/><path d="M40 34v7h16l-7-7zM11.081 16A24.55 24.55 0 0 0 8.75 26.5C8.75 39.355 18.274 49.945 30 50h8V16h-8v25c-7.04-.058-12.75-6.334-12.75-14.5 0-4.16 1.472-7.798 3.84-10.5zM40 25v7h9l7-7z" style="opacity:.2"/><path d="M11.082 15A24.55 24.55 0 0 0 8.75 25.5C8.75 38.355 18.274 48.945 30 49h8V15h-8v25c-7.04-.058-12.75-6.334-12.75-14.5 0-4.16 1.473-7.798 3.84-10.5zM40 24v7h9l7-7zm0 9v7h16l-7-7z" style="fill:#f4f4f4"/></svg>