<svg xmlns="http://www.w3.org/2000/svg" width="64" height="64"><path d="M8 8c-2.216 0-4 1.784-4 4v18c0 15.464 12.536 28 28 28h24c2.216 0 4-1.784 4-4V12c0-2.216-1.784-4-4-4z" style="opacity:.2"/><path d="M8 7c-2.216 0-4 1.784-4 4v18c0 15.464 12.536 28 28 28h24c2.216 0 4-1.784 4-4V11c0-2.216-1.784-4-4-4z" style="fill:#4f4f4f"/><path d="M8 8c-2.216 0-4 1.784-4 4v17h56V12c0-2.216-1.784-4-4-4z" style="opacity:.1"/><path d="M8 7c-2.216 0-4 1.784-4 4v17h56V11c0-2.216-1.784-4-4-4z" style="fill:#5e5e5e"/><path d="M8 7c-2.216 0-4 1.784-4 4v1c0-2.216 1.784-4 4-4h48c2.216 0 4 1.784 4 4v-1c0-2.216-1.784-4-4-4z" style="fill:#fff;opacity:.1"/><path d="M44 34v7h14l-7-7zM15.081 16a24.55 24.55 0 0 0-2.331 10.5c0 12.855 9.524 23.445 21.25 23.5h8V16h-8v25c-7.04-.058-12.75-6.334-12.75-14.5 0-4.16 1.472-7.798 3.84-10.5zM44 25v7h7l7-7z" style="opacity:.2"/><path d="M15.082 15a24.55 24.55 0 0 0-2.332 10.5c0 12.855 9.524 23.445 21.25 23.5h8V15h-8v25c-7.04-.058-12.75-6.334-12.75-14.5 0-4.16 1.473-7.798 3.84-10.5zM44 24v7h7l7-7zm0 9v7h14l-7-7z" style="fill:#e4e4e4"/><path d="M15.082 15a24.55 24.55 0 0 0-2.328 11c.07-3.63.906-6.95 2.328-10h9.205q.382-.52.803-1zM34 15v1h8v-1zm10 9v1h13l1-1zm-22.742 2q-.008.249-.008.5c0 8.166 5.711 14.442 12.75 14.5v-1c-6.895-.057-12.515-6.079-12.742-14M44 33v1h7l6 6h1l-7-7z" style="fill:#fff;opacity:.2"/></svg>