<svg xmlns="http://www.w3.org/2000/svg" width="64" height="64"><rect width="56" height="48" x="4" y="9" rx="4" style="opacity:.2"/><rect width="56" height="48" x="4" y="8" rx="4" style="fill:#4f4f4f"/><path d="M4 32v20c0 2.216 1.784 4 4 4h48c2.216 0 4-1.784 4-4V32z" style="fill:#636363"/><path d="M4 32h56v1H4zM8 8c-2.216 0-4 1.784-4 4v1c0-2.216 1.784-4 4-4h48c2.216 0 4 1.784 4 4v-1c0-2.216-1.784-4-4-4z" style="fill:#fff;opacity:.1"/><path d="M15.191 16c-2.341 3.19-4.12 6.675-5.144 10.5C6.602 39.355 13.289 49.945 25 50h8l9.111-34h-8l-6.699 25c-7.023-.058-11.053-6.334-8.865-14.5C19.66 22.34 22.11 18.702 25.2 16zM41.7 25l-1.875 7h9l8.875-7zm-2.41 9-1.877 7h16l-5.123-7z" style="opacity:.2"/><path d="M15.191 15c-2.341 3.19-4.12 6.675-5.144 10.5C6.602 38.355 13.289 48.945 25 49h8l9.111-34h-8l-6.699 25c-7.023-.058-11.053-6.334-8.865-14.5C19.66 21.34 22.11 17.702 25.2 15zM41.7 24l-1.875 7h9l8.875-7zm-2.41 9-1.877 7h16l-5.123-7z" style="fill:#f4f4f4"/></svg>