<svg xmlns="http://www.w3.org/2000/svg" width="64" height="64"><circle cx="32" cy="33" r="28" style="opacity:.2"/><circle cx="32" cy="32" r="28" style="fill:#35c2c1"/><path d="M36.59 5.412 4.074 31.54a28 28 0 0 0-.053 1.049 28 28 0 0 0 .028.79l1.63-1.31a1.416 1.416 0 0 1 1.992.215l1.774 2.21c.492.611.395 1.5-.217 1.991L7.021 38.26c-.611.491-1.5.393-1.992-.219l-.463-.574a28 28 0 0 0 1.028 3.754l8.939-7.184c.459-.369.996-.57 1.54-.615a2.83 2.83 0 0 1 2.444 1.05l8.873 11.044a2.83 2.83 0 0 1-.433 3.984l-8.62 6.926a28 28 0 0 0 2.503 1.24 1.414 1.414 0 0 1 .379-1.738l2.21-1.774a1.4 1.4 0 0 1 1.04-.308c.36.04.703.217.949.523l1.777 2.21c.492.611.393 1.5-.219 1.992l-.95.765a28 28 0 0 0 1.859.324l32.018-25.734a28 28 0 0 0 .076-1.506l-.014-.384a1.403 1.403 0 0 1-1.85-.305l-1.777-2.209a1.414 1.414 0 0 1 .217-1.992l2.211-1.776q.112-.09.234-.152a28 28 0 0 0-.478-1.47l-9.479 7.618a2.825 2.825 0 0 1-3.982-.435l-8.877-11.041a2.826 2.826 0 0 1 .435-3.982l9.36-7.524a28 28 0 0 0-1.363-.73c-.018.016-.032.035-.051.05l-2.207 1.774c-.612.491-1.5.395-1.992-.217l-1.774-2.207a1.41 1.41 0 0 1-.092-1.64 28 28 0 0 0-1.91-.385zm-3.639 5.049q.138-.012.274.002c.36.04.701.217.947.523l1.777 2.21c.492.611.393 1.5-.218 1.991l-2.207 1.774a1.416 1.416 0 0 1-1.993-.217l-1.775-2.207a1.414 1.414 0 0 1 .217-1.992l2.207-1.777c.23-.185.499-.285.771-.307m-8.834 7.1a1.42 1.42 0 0 1 1.221.525l1.777 2.209c.492.612.393 1.5-.218 1.992l-2.21 1.773c-.611.492-1.5.395-1.992-.216l-1.773-2.21a1.41 1.41 0 0 1 .217-1.99l2.209-1.777c.23-.184.498-.284.77-.306m6.309 4.324a2.83 2.83 0 0 1 2.447 1.052l8.873 11.043a2.824 2.824 0 0 1-.435 3.98l-6.623 5.327a2.83 2.83 0 0 1-3.985-.433L21.83 31.81a2.83 2.83 0 0 1 .434-3.985l6.625-5.324a2.8 2.8 0 0 1 1.537-.617M15.283 24.66a1.42 1.42 0 0 1 1.223.524l1.773 2.21a1.41 1.41 0 0 1-.215 1.99l-2.209 1.776c-.612.492-1.5.393-1.992-.219l-1.775-2.207a1.414 1.414 0 0 1 .218-1.992l2.207-1.773c.23-.185.498-.286.77-.309m35.416 7.887q.136-.013.271.002c.36.039.706.217.952.523l1.773 2.21c.492.611.397 1.5-.215 1.991l-2.209 1.774c-.612.491-1.5.395-1.992-.217l-1.775-2.207a1.414 1.414 0 0 1 .218-1.992l2.207-1.778c.23-.184.498-.284.77-.306m-8.834 7.1q.136-.012.271.001c.36.04.706.216.952.522l1.773 2.21a1.41 1.41 0 0 1-.215 1.989l-2.209 1.777c-.612.492-1.5.395-1.992-.216l-1.773-2.211a1.41 1.41 0 0 1 .214-1.989l2.21-1.777c.229-.184.497-.284.769-.307m-8.834 7.099q.137-.01.273.004c.36.04.704.214.95.52l1.775 2.206a1.415 1.415 0 0 1-.219 1.993l-2.207 1.777c-.612.492-1.5.393-1.992-.219l-1.773-2.207a1.414 1.414 0 0 1 .214-1.992l2.21-1.775c.229-.185.497-.285.769-.307" style="opacity:.1"/><path d="M36.59 4.412 4.074 30.54A28 28 0 0 0 4 32l.013.406 1.666-1.338a1.416 1.416 0 0 1 1.992.215l1.774 2.21c.492.611.395 1.5-.217 1.991L7.021 37.26c-.611.491-1.5.393-1.992-.219l-.691-.857a28 28 0 0 0 .994 4.248l9.201-7.395c.459-.369.996-.57 1.54-.615a2.83 2.83 0 0 1 2.444 1.05l8.873 11.044a2.83 2.83 0 0 1-.433 3.984l-9.326 7.494a28 28 0 0 0 4.32 2.108L21 56.92a1.414 1.414 0 0 1 .217-1.992l2.211-1.774a1.4 1.4 0 0 1 1.04-.308c.36.039.703.217.949.523l1.777 2.21c.492.611.393 1.5-.219 1.991l-1.896 1.526a28 28 0 0 0 1.758.406l33.117-26.617a28 28 0 0 0 .044-.885 28 28 0 0 0-.035-.965 1.403 1.403 0 0 1-1.85-.304l-1.777-2.21a1.414 1.414 0 0 1 .217-1.991l2.211-1.776q.112-.09.235-.152a28 28 0 0 0-.479-1.47l-9.479 7.618a2.825 2.825 0 0 1-3.982-.435l-8.877-11.041a2.826 2.826 0 0 1 .436-3.983l9.359-7.523a28 28 0 0 0-1.363-.73c-.018.015-.032.035-.051.05l-2.207 1.774c-.612.491-1.5.395-1.992-.217L38.59 6.438a1.41 1.41 0 0 1-.091-1.64 28 28 0 0 0-1.91-.386zm-3.639 5.049q.138-.012.274.002c.36.039.701.217.947.523l1.777 2.21c.492.611.393 1.5-.218 1.991l-2.207 1.774a1.415 1.415 0 0 1-1.993-.217l-1.775-2.207a1.414 1.414 0 0 1 .217-1.992l2.207-1.777c.23-.185.499-.285.771-.307m-8.834 7.1a1.42 1.42 0 0 1 1.221.525l1.777 2.209c.492.612.393 1.5-.218 1.992l-2.21 1.773c-.611.492-1.5.395-1.992-.216l-1.773-2.21a1.41 1.41 0 0 1 .217-1.99l2.209-1.777c.23-.184.498-.284.77-.306m6.309 4.324a2.83 2.83 0 0 1 2.447 1.052l8.873 11.043a2.824 2.824 0 0 1-.435 3.98l-6.623 5.327a2.83 2.83 0 0 1-3.985-.433L21.83 30.81a2.83 2.83 0 0 1 .434-3.985l6.625-5.324a2.8 2.8 0 0 1 1.537-.617M15.283 23.66a1.42 1.42 0 0 1 1.223.524l1.773 2.21a1.41 1.41 0 0 1-.215 1.99l-2.209 1.776c-.612.492-1.5.393-1.992-.219l-1.775-2.207a1.414 1.414 0 0 1 .218-1.992l2.207-1.773c.23-.185.498-.286.77-.309m35.416 7.887q.136-.013.271.002c.36.039.706.217.952.523l1.773 2.21c.492.611.397 1.5-.215 1.991l-2.209 1.774c-.612.491-1.5.395-1.992-.217l-1.775-2.207a1.414 1.414 0 0 1 .218-1.992l2.207-1.778c.23-.184.498-.284.77-.306m-8.834 7.1q.136-.012.271.001c.36.04.706.216.952.522l1.773 2.21a1.41 1.41 0 0 1-.215 1.989l-2.209 1.777c-.612.492-1.5.395-1.992-.216l-1.773-2.211a1.41 1.41 0 0 1 .214-1.989l2.21-1.777c.229-.184.497-.284.769-.307m-8.834 7.099q.137-.01.273.004c.36.04.704.214.95.52l1.775 2.206a1.415 1.415 0 0 1-.219 1.993l-2.207 1.777c-.612.492-1.5.393-1.992-.219l-1.773-2.207a1.414 1.414 0 0 1 .214-1.992l2.21-1.775c.229-.185.497-.285.769-.307" style="fill:#ec2f2f"/><path d="M32 4A28 28 0 0 0 4 32a28 28 0 0 0 .021.586A28 28 0 0 1 32 5a28 28 0 0 1 27.979 27.414L60 32A28 28 0 0 0 32 4" style="fill:#fff;opacity:.2"/></svg>