<svg xmlns="http://www.w3.org/2000/svg" xmlns:xlink="http://www.w3.org/1999/xlink" width="64" height="64"><defs><radialGradient xlink:href="#a" id="h" cx="63.971" cy="69.487" r="22.25" fx="63.971" fy="69.487" gradientTransform="rotate(-75 55.52 307.33)scale(4.53458 3.72471)" gradientUnits="userSpaceOnUse"/><radialGradient xlink:href="#b" id="f" cx="90.264" cy="0" r="18.478" fx="90.264" fy="0" gradientTransform="rotate(225 202.47 46.477)scale(3.48618)" gradientUnits="userSpaceOnUse"/><radialGradient xlink:href="#c" id="d" cx="90.264" cy="0" r="18.478" fx="90.264" fy="0" gradientTransform="rotate(225 202.47 46.477)scale(3.48618)" gradientUnits="userSpaceOnUse"/><linearGradient id="c"><stop offset="0" style="stop-color:#ff8d32;stop-opacity:1"/><stop offset="1" style="stop-color:#ff5341;stop-opacity:1"/></linearGradient><linearGradient id="a"><stop offset="0" style="stop-color:#9b9a9a;stop-opacity:1"/><stop offset="1" style="stop-color:#e4e4e4;stop-opacity:1"/></linearGradient><linearGradient id="b"><stop offset="0" style="stop-color:#a01a06;stop-opacity:1"/><stop offset="1" style="stop-color:#d25700;stop-opacity:1"/></linearGradient><filter id="i" width="1.153" height="1.157" x="-.076" y="-.078" style="color-interpolation-filters:sRGB"><feGaussianBlur stdDeviation="1.47"/></filter><filter id="g" width="1.251" height="1.279" x="-.125" y="-.14" style="color-interpolation-filters:sRGB"><feGaussianBlur stdDeviation="2.025"/></filter><filter id="e" width="1.299" height="1.299" x="-.149" y="-.149" style="color-interpolation-filters:sRGB"><feGaussianBlur stdDeviation="2.299"/></filter></defs><path d="M32.833-18.478h24.844a6.057 6.057 45 0 1 6.056 6.056v24.844a6.057 6.057 135 0 1-6.056 6.056H32.833a6.057 6.057 45 0 1-6.057-6.056v-24.844a6.057 6.057 135 0 1 6.057-6.056" style="fill:url(#d);fill-rule:evenodd;stroke-width:.147363;stroke-linecap:round;stroke-linejoin:round;filter:url(#e)" transform="rotate(45 -.912 2.181)scale(.95989)"/><path d="M33.892-18.478h22.726a7.115 7.115 45 0 1 7.115 7.115v22.726a7.115 7.115 135 0 1-7.115 7.115H33.892a7.115 7.115 45 0 1-7.116-7.115v-22.726a7.115 7.115 135 0 1 7.116-7.115" style="opacity:.732682;fill:url(#f);fill-rule:evenodd;stroke-width:.147363;stroke-linecap:round;stroke-linejoin:round" transform="rotate(45 3.821 -9.246)scale(1.16907)"/><path d="M16.707 14.46a3.01 3.01 47.606 0 1 2.872 3.146v20.55a1.791 1.791 22.5 0 0 3.058 1.267l22.41-22.41a5.2 5.2 157.5 0 1 3.672-1.52h1.332a2.259 2.259 67.5 0 1 1.597 3.856L24.724 46.273a10.13 10.13 157.5 0 1-7.163 2.967 4.066 4.066 46.948 0 1-3.92-4.197l-.071-27.438a3.14 3.14 134.926 0 1 3.137-3.145" style="opacity:.732682;fill:#fff;fill-opacity:1;fill-rule:evenodd;stroke:none;stroke-width:.2;stroke-linecap:round;stroke-linejoin:round;stroke-dasharray:none;stroke-opacity:1;filter:url(#g)" transform="translate(.614)"/><path d="M11.105 11.802a2.78 2.78 0 0 0-2.787 2.787 2.78 2.78 0 0 0 2.787 2.787h.93v31.586a5.574 5.574 0 0 0 9.468 3.986l36.44-35.61a2.77 2.77 0 0 0 2.398-2.749 2.78 2.78 0 0 0-2.787-2.787H44.55a2.78 2.78 0 0 0-1.858 4.854l-19.51 19.066V17.376h.93a2.78 2.78 0 0 0 2.786-2.787 2.78 2.78 0 0 0-2.787-2.787z" style="opacity:.953683;fill:url(#h);stroke-width:.928979"/><g style="mix-blend-mode:normal;fill:none;stroke:#000;stroke-width:.2;stroke-dasharray:none;stroke-opacity:1;filter:url(#i)" transform="translate(75.684 -14.071)scale(1.16907)"><path d="M-37.375 16.225a7.12 7.12 0 0 0-5.031 2.084l-3.824 3.824h2.113a2.38 2.38 0 0 1 2.385 2.385 2.38 2.38 0 0 1-2.385 2.382h-.793v15.694l16.685-16.309a2.378 2.378 0 0 1 .172-3.686l-4.29-4.29a7.12 7.12 0 0 0-5.032-2.084M-54.447 30.35l-4.03 4.029a7.115 7.115 0 0 0 0 10.062l4.03 4.03zm34.918.773-26.436 25.83 3.559 3.559a7.115 7.115 0 0 0 10.062 0l16.07-16.07a7.115 7.115 0 0 0 0-10.063z" style="fill:none;fill-rule:evenodd;stroke:#000;stroke-width:.2;stroke-linecap:round;stroke-linejoin:round;stroke-dasharray:none;stroke-opacity:1"/><path d="M-55.242 22.133a2.38 2.38 0 0 0-2.383 2.385 2.377 2.377 0 0 0 2.383 2.382h.795v27.018a4.768 4.768 0 0 0 8.1 3.41l31.17-30.459a2.37 2.37 0 0 0 2.052-2.351 2.38 2.38 0 0 0-2.385-2.385h-11.125a2.379 2.379 0 0 0-1.59 4.152L-44.91 42.594V26.9h.793a2.38 2.38 0 0 0 2.385-2.382 2.38 2.38 0 0 0-2.385-2.385z" style="fill:none;stroke:#000;stroke-width:.2;stroke-dasharray:none;stroke-opacity:1"/></g></svg>