<svg xmlns="http://www.w3.org/2000/svg" width="64" height="64"><defs><filter id="b" width="1.142" height="1.142" x="-.071" y="-.071" style="color-interpolation-filters:sRGB"><feGaussianBlur stdDeviation="1.59"/></filter><filter id="c" width="1.184" height="1.184" x="-.092" y="-.092" style="color-interpolation-filters:sRGB"><feGaussianBlur stdDeviation="1.646"/></filter><radialGradient id="a" cx="-159.431" cy="15.463" r="64.707" fx="-159.431" fy="15.463" gradientTransform="matrix(-.89413 0 0 .96305 -41.789 62.295)" gradientUnits="userSpaceOnUse"><stop offset="0" style="stop-color:#006fff;stop-opacity:1"/><stop offset="1" style="stop-color:#15baff;stop-opacity:1"/></radialGradient></defs><path d="M59.739 17.017h22.4c9.3 0 16.8 7.5 16.8 16.8v22.4c0 9.3-7.5 16.8-16.8 16.8h-22.4c-9.3 0-16.8-7.5-16.8-16.8v-22.4c0-9.3 7.5-16.8 16.8-16.8" class="st1" style="fill:url(#a)" transform="translate(-38.965 -12.965)"/><path d="M59.765 16.965h22.4c9.3 0 16.8 7.5 16.8 16.8v22.4c0 9.3-7.5 16.8-16.8 16.8h-22.4c-9.3 0-16.8-7.5-16.8-16.8v-22.4c0-9.3 7.5-16.8 16.8-16.8z" class="st1" style="opacity:.673189;fill:none;stroke:#000;stroke-width:.3;stroke-dasharray:none;stroke-opacity:1;filter:url(#b)" transform="translate(-38.965 -12.965)"/><path d="m10.004 18.876-.003 3.229A1.893 1.893 45.023 0 0 11.895 24h5.372a4.035 4.035 35.233 0 1 3.803 2.686l2.076 5.852a.408.408 179.625 0 0 .771-.005l5.955-17.507a.455.455 177.581 0 1 .848-.036l4.146 9.477a.485.485 178.817 0 0 .896-.018l4.379-11.257a.431.431 1.095 0 1 .809.015l6.472 18.726A3.07 3.07 35.466 0 0 50.323 34h1.973A1.704 1.704 135 0 0 54 32.296V18.79a8.823 8.823 44.943 0 0-8.84-8.823l-26.308.052a8.865 8.865 134.965 0 0-8.848 8.858M39.81 30.594l-3.72 9.57a.485.485 178.808 0 1-.895.018l-3.77-8.618a.456.456 177.584 0 0-.85.036l-6.536 19.207a.408.408 179.629 0 1-.77.005l-6.432-18.126A4.04 4.04 35.232 0 0 13.033 30h-1.138a1.915 1.915 135.3 0 0-1.915 1.895l-.14 13.443a8.69 8.69 0 0 0 8.748 8.806c7.284-.026 17.801-.059 26.559-.068 4.882-.005 8.844-3.957 8.848-8.84l.003-3.532A1.7 1.7 45.025 0 0 52.296 40H46.05a3.07 3.07 35.467 0 1-2.901-2.067l-2.531-7.323a.43.43 1.088 0 0-.809-.016" style="opacity:.940905;fill:#fff;fill-opacity:1" transform="translate(2.335 2.21)scale(.92935)"/><path d="m10.004 18.876-.003 3.229A1.893 1.893 45.023 0 0 11.895 24h5.372a4.035 4.035 35.233 0 1 3.803 2.686l2.076 5.852a.408.408 179.625 0 0 .771-.005l5.955-17.507a.455.455 177.581 0 1 .848-.036l4.146 9.477a.485.485 178.817 0 0 .896-.018l4.379-11.257a.431.431 1.095 0 1 .809.015l6.472 18.726A3.07 3.07 35.466 0 0 50.323 34h1.973A1.704 1.704 135 0 0 54 32.296V18.79a8.823 8.823 44.943 0 0-8.84-8.823l-26.308.052a8.865 8.865 134.965 0 0-8.848 8.858zM39.81 30.594l-3.72 9.57a.485.485 178.808 0 1-.895.018l-3.77-8.618a.456.456 177.584 0 0-.85.036l-6.536 19.207a.408.408 179.629 0 1-.77.005l-6.432-18.126A4.04 4.04 35.232 0 0 13.033 30h-1.138a1.915 1.915 135.3 0 0-1.915 1.895l-.14 13.443a8.69 8.69 0 0 0 8.748 8.806c7.284-.026 17.801-.059 26.559-.068 4.882-.005 8.844-3.957 8.848-8.84l.003-3.532A1.7 1.7 45.025 0 0 52.296 40H46.05a3.07 3.07 35.467 0 1-2.901-2.067l-2.531-7.323a.43.43 1.088 0 0-.809-.016z" style="opacity:1;fill:none;fill-opacity:1;stroke:#000;stroke-opacity:1;stroke-width:.21520302;stroke-dasharray:none;filter:url(#c)" transform="translate(2.335 2.21)scale(.92935)"/></svg>