<svg xmlns="http://www.w3.org/2000/svg" xmlns:xlink="http://www.w3.org/1999/xlink" width="64" height="64"><defs><radialGradient xlink:href="#a" id="f" cx="46.201" cy="40.061" r="8.745" fx="46.201" fy="40.061" gradientTransform="rotate(-15 -506.49 1567.524)scale(9.36778 6.36252)" gradientUnits="userSpaceOnUse"/><radialGradient xlink:href="#b" id="e" cx="16.897" cy="16.458" r="28" fx="16.897" fy="16.458" gradientTransform="matrix(0 -2.1593 2.3483 0 31.592 92.357)" gradientUnits="userSpaceOnUse"/><radialGradient xlink:href="#c" id="d" cx="5.179" cy="47.731" r="28" fx="5.179" fy="47.731" gradientTransform="rotate(30 220.545 91.68)scale(3.49583 3.05744)" gradientUnits="userSpaceOnUse"/><linearGradient id="a"><stop offset="0" style="stop-color:#00995c;stop-opacity:1"/><stop offset="1" style="stop-color:#49d8a3;stop-opacity:1"/></linearGradient><linearGradient id="b"><stop offset="0" style="stop-color:#00bd92;stop-opacity:1"/><stop offset="1" style="stop-color:#00e58e;stop-opacity:1"/></linearGradient><linearGradient id="c"><stop offset="0" style="stop-color:#00cea3;stop-opacity:1"/><stop offset="1" style="stop-color:#00a656;stop-opacity:1"/></linearGradient></defs><path d="M67.335 7.559 56.59 2.355a3.235 3.235 0 0 0-3.706.634L17.709 34.668a2.194 2.194 0 0 0 .002 3.232l2.873 2.627c.775.708 1.941.76 2.775.124L65.718 8.909c1.421-1.085 3.462-.065 3.462 1.729v-.126a3.28 3.28 0 0 0-1.845-2.953" style="fill:url(#d);stroke-width:.931798" transform="translate(-11.104 3.894)"/><path d="M67.335 48.684 56.59 53.888a3.235 3.235 0 0 1-3.706-.634l-35.175-33.6a2.194 2.194 0 0 1 .002-3.232l2.873-2.627a2.16 2.16 0 0 1 2.775-.124l42.359 33.663c1.421 1.084 3.462.065 3.462-1.729v.126a3.28 3.28 0 0 1-1.845 2.953" style="fill:url(#e);stroke-width:.931798" transform="translate(-11.104 3.894)"/><path d="M56.619 53.857a3.24 3.24 0 0 1-3.707-.634c1.203 1.21 3.26.353 3.26-1.358V4.315c0-1.71-2.057-2.567-3.26-1.357a3.24 3.24 0 0 1 3.707-.635l10.743 5.196a3.28 3.28 0 0 1 1.847 2.955v35.233a3.28 3.28 0 0 1-1.847 2.954z" style="fill:url(#f);stroke-width:.931798" transform="translate(-11.104 3.894)"/></svg>