<svg xmlns="http://www.w3.org/2000/svg" xmlns:xlink="http://www.w3.org/1999/xlink" width="64" height="64"><defs><radialGradient xlink:href="#a" id="c" cx="9.21" cy="7.81" r="24.801" fx="9.21" fy="7.81" gradientTransform="matrix(0 3.88573 -3.6299 0 34.27 -31.746)" gradientUnits="userSpaceOnUse"/><radialGradient xlink:href="#b" id="e" cx="62.338" cy="39.095" r="21.239" fx="62.338" fy="39.095" gradientTransform="matrix(0 2.61223 -2.63 0 122.356 -144.75)" gradientUnits="userSpaceOnUse"/><linearGradient id="b"><stop offset="0" style="stop-color:#ffdede;stop-opacity:1"/><stop offset="1" style="stop-color:#ffb5b9;stop-opacity:1"/></linearGradient><linearGradient id="a"><stop offset="0" style="stop-color:#ff3b3b;stop-opacity:1"/><stop offset="1" style="stop-color:#ff6068;stop-opacity:1"/></linearGradient><filter id="d" width="1.16" height="1.168" x="-.08" y="-.084" style="color-interpolation-filters:sRGB"><feGaussianBlur stdDeviation="1.798"/></filter><filter id="f" width="1.065" height="1.071" x="-.033" y="-.036" style="color-interpolation-filters:sRGB"><feGaussianBlur stdDeviation=".537"/></filter></defs><path d="M46.068 6.262c-5.203-.001-9.537 2.917-11.785 7.027-2.731 4.994-3.479 6.144-6.4 1.084l-1.238-2.146c-3.31-5.732-10.754-7.55-16.272-4.364-5.62 3.245-7.61 10.653-4.363 16.276l.011.015L22.313 52.01h-.002c4.973 8.73 15.335 9.192 20.662-.033v-.004l14.982-25.807.09-.184c.589-1.184 1.506-3.273 1.506-6.238-.001-7.37-6.112-13.48-13.483-13.48z" style="baseline-shift:baseline;display:inline;overflow:visible;vector-effect:none;fill:url(#c);stroke-width:1.11088;stroke-miterlimit:7.4;enable-background:accumulate;stop-color:#000" transform="translate(0 -.495)"/><path d="M46.068 6.262c-5.203-.001-9.537 2.917-11.785 7.027-2.731 4.994-3.479 6.144-6.4 1.084l-1.238-2.146c-3.31-5.732-10.754-7.55-16.272-4.364-5.62 3.245-7.61 10.653-4.363 16.276l.012.015 16.29 27.856h-.001c4.973 8.73 15.335 9.192 20.662-.033v-.004l14.982-25.807.09-.184c.589-1.184 1.506-3.273 1.506-6.238 0-7.37-6.112-13.48-13.483-13.48z" style="baseline-shift:baseline;display:inline;overflow:visible;fill:none;stroke:#000;stroke-width:.2;stroke-miterlimit:7.4;stroke-dasharray:none;stroke-opacity:1;filter:url(#d);enable-background:accumulate;stop-color:#000" transform="translate(0 -.495)"/><path d="M46.087 12.498a7.152 7.152 0 0 0-5.875 11.23c1.998 2.873 2.484 5.746.766 8.492s-7.344 4.647-9.866.279L21.18 15.295c-1.593-2.76-5.033-3.538-7.622-2.044a5.57 5.57 0 0 0-2.043 7.625l16.283 27.84c2.175 3.722 7.556 3.712 9.718-.016l14.88-25.633c.323-.651.844-1.928.844-3.417a7.153 7.153 0 0 0-7.152-7.152z" style="fill:url(#e);fill-opacity:1;stroke:#fff;stroke-width:0;stroke-miterlimit:7.4" transform="translate(0 -.495)"/><path d="M46.087 12.5a7.152 7.152 0 0 0-5.875 11.23c1.997 2.873 2.483 5.746.766 8.492s-7.344 4.647-9.866.278l-9.933-17.203c-1.593-2.76-5.034-3.538-7.622-2.044a5.57 5.57 0 0 0-2.044 7.624l16.284 27.841c2.175 3.721 7.556 3.711 9.718-.017l14.88-25.633c.323-.65.844-1.928.843-3.417a7.15 7.15 0 0 0-7.15-7.151z" style="fill:none;fill-opacity:1;stroke:#ff0100;stroke-width:.2;stroke-miterlimit:7.4;stroke-dasharray:none;stroke-opacity:1;filter:url(#f)" transform="translate(0 -.495)"/></svg>