<svg xmlns="http://www.w3.org/2000/svg" xmlns:xlink="http://www.w3.org/1999/xlink" width="64" height="64"><defs><radialGradient xlink:href="#a" id="d" cx="66.077" cy="61.69" r="20" fx="66.077" fy="61.69" gradientTransform="rotate(-90 87.117 319.774)scale(4.51525)" gradientUnits="userSpaceOnUse"/><radialGradient xlink:href="#b" id="c" cx="38.742" cy="24.718" r="8.494" fx="38.742" fy="24.718" gradientTransform="translate(-111.549 -62.145)scale(3.7348)" gradientUnits="userSpaceOnUse"/><linearGradient id="b"><stop offset="0" style="stop-color:#e47234;stop-opacity:1"/><stop offset="1" style="stop-color:#af4219;stop-opacity:1"/></linearGradient><linearGradient id="a"><stop offset="0" style="stop-color:#ff6937;stop-opacity:1"/><stop offset="1" style="stop-color:#ffb834;stop-opacity:1"/></linearGradient><filter id="e" width="1.13" height="1.128" x="-.065" y="-.064" style="color-interpolation-filters:sRGB"><feGaussianBlur stdDeviation="1.37"/></filter></defs><path d="M33.735 11.854h17.898v17.898H33.735z" style="opacity:1;fill:url(#c);stroke:#000;stroke-width:.213229;stroke-linecap:round;stroke-linejoin:round;stroke-miterlimit:7.4;stroke-dasharray:none;stroke-opacity:1"/><path d="M35.769 3.785c-5.68 0-10.26 4.58-10.26 10.26v12.89H9.367c-2.879 0-5.066 2.577-5.066 5.456s2.187 5.458 5.066 5.458h9.973L5.8 51.436a5.175 5.175 0 0 0 .007 7.311l.002.002a5.004 5.004 0 0 0 7.186-.114l13.133-13.997v9.972c0 2.879 2.578 5.066 5.458 5.066 2.879 0 5.455-2.187 5.455-5.066V37.983H49.45c5.68 0 10.26-4.58 10.26-10.26V14.044c0-5.68-4.58-10.26-10.26-10.26zm1.812 9.864h10.057a2.2 2.2 0 0 1 2.207 2.205v10.06a2.2 2.2 0 0 1-2.207 2.205H37.581a2.2 2.2 0 0 1-2.206-2.206v-10.06a2.2 2.2 0 0 1 2.206-2.204" style="fill:url(#d);stroke-width:1.8189"/><path d="M35.535 5.536a9.607 9.607 0 0 0-9.623 9.623V27.25h-15.14c-2.701 0-4.753 2.416-4.753 5.117s2.052 5.119 4.752 5.119h9.354L7.425 50.23a4.854 4.854 0 0 0 .006 6.857l.002.002a4.693 4.693 0 0 0 6.74-.107l12.319-13.129v9.353c0 2.701 2.418 4.752 5.119 4.752s5.117-2.051 5.117-4.752V37.612h11.639a9.607 9.607 0 0 0 9.623-9.623v-12.83a9.607 9.607 0 0 0-9.623-9.623zm1.7 9.252h9.433c1.146 0 2.07.922 2.07 2.068v9.436a2.065 2.065 0 0 1-2.07 2.068h-9.434a2.063 2.063 0 0 1-2.068-2.068v-9.436c0-1.146.922-2.068 2.068-2.068z" style="mix-blend-mode:normal;fill:none;stroke:#000;stroke-width:.2;stroke-dasharray:none;stroke-opacity:1;filter:url(#e)" transform="translate(-2.117 -2.117)scale(1.06614)"/></svg>