<svg xmlns="http://www.w3.org/2000/svg" xmlns:xlink="http://www.w3.org/1999/xlink" width="64" height="64"><defs><radialGradient xlink:href="#a" id="b" cx="66.077" cy="61.69" r="20" fx="66.077" fy="61.69" gradientTransform="rotate(-90 62.308 158.584)scale(2.4824)" gradientUnits="userSpaceOnUse"/><linearGradient id="a"><stop offset="0" style="stop-color:#ff6937;stop-opacity:1"/><stop offset="1" style="stop-color:#ffb834;stop-opacity:1"/></linearGradient><filter id="c" width="1.156" height="1.156" x="-.078" y="-.078" style="color-interpolation-filters:sRGB"><feGaussianBlur stdDeviation="1.267"/></filter></defs><path d="M14.857 12A2.85 2.85 0 0 0 12 14.857v12.358C12 28.798 13.417 30 15 30s3-1.202 3-2.785v-5.483l4 4.286v2.684A1.3 1.3 45 0 0 23.298 30h3.646c.426 0 .763-.346.79-.77.075-1.109.387-1.422 1.496-1.495.424-.028.77-.365.77-.791v-3.646A1.3 1.3 45 0 0 28.702 22h-2.684l-4.286-4h5.483C28.798 18 30 16.583 30 15s-1.202-3-2.785-3Zm21.928 0C35.202 12 34 13.417 34 15s1.202 3 2.785 3h5.483l-4.286 4h-2.684A1.3 1.3 135 0 0 34 23.298v3.646c0 .426.346.763.77.79 1.109.075 1.422.387 1.495 1.496.028.424.365.77.791.77h3.646A1.3 1.3 135 0 0 42 28.702v-2.684l4-4.286v5.483C46 28.798 47.417 30 49 30s3-1.202 3-2.785V14.857A2.85 2.85 0 0 0 49.143 12ZM22 35.298v3.845A2.85 2.85 0 0 0 24.857 42h3.845A1.3 1.3 135 0 0 30 40.702v-3.646c0-.426-.346-.763-.77-.79-1.109-.075-1.422-.387-1.495-1.496-.028-.424-.365-.77-.791-.77h-3.646A1.3 1.3 135 0 0 22 35.298m14.265-.528c-.074 1.109-.386 1.422-1.495 1.495-.424.028-.77.365-.77.791v3.646A1.3 1.3 45 0 0 35.298 42h2.684l4.286 4h-5.483C35.202 46 34 47.417 34 49s1.202 3 2.785 3h12.358A2.85 2.85 0 0 0 52 49.143V36.785C52 35.202 50.583 34 49 34s-3 1.202-3 2.785v5.483l-4-4.286v-2.684A1.3 1.3 45 0 0 40.702 34h-3.646c-.426 0-.763.346-.79.77" style="fill:url(#b)" transform="translate(-12.313 -12.313)scale(1.38479)"/><path d="M14.857 12A2.85 2.85 0 0 0 12 14.857v12.358C12 28.798 13.417 30 15 30s3-1.202 3-2.785v-5.483l4 4.286v2.684A1.3 1.3 45 0 0 23.298 30h3.646c.426 0 .763-.346.79-.77.075-1.109.387-1.422 1.496-1.495.424-.028.77-.365.77-.791v-3.646A1.3 1.3 45 0 0 28.702 22h-2.684l-4.286-4h5.483C28.798 18 30 16.583 30 15s-1.202-3-2.785-3Zm21.928 0C35.202 12 34 13.417 34 15s1.202 3 2.785 3h5.483l-4.286 4h-2.684A1.3 1.3 135 0 0 34 23.298v3.646c0 .426.346.763.77.79 1.109.075 1.422.387 1.495 1.496.028.424.365.77.791.77h3.646A1.3 1.3 135 0 0 42 28.702v-2.684l4-4.286v5.483C46 28.798 47.417 30 49 30s3-1.202 3-2.785V14.857A2.85 2.85 0 0 0 49.143 12ZM22 35.298v3.845A2.85 2.85 0 0 0 24.857 42h3.845A1.3 1.3 135 0 0 30 40.702v-3.646c0-.426-.346-.763-.77-.79-1.109-.075-1.422-.387-1.495-1.496-.028-.424-.365-.77-.791-.77h-3.646A1.3 1.3 135 0 0 22 35.298Zm14.265-.528c-.074 1.109-.386 1.422-1.495 1.495-.424.028-.77.365-.77.791v3.646A1.3 1.3 45 0 0 35.298 42h2.684l4.286 4h-5.483C35.202 46 34 47.417 34 49s1.202 3 2.785 3h12.358A2.85 2.85 0 0 0 52 49.143V36.785C52 35.202 50.583 34 49 34s-3 1.202-3 2.785v5.483l-4-4.286v-2.684A1.3 1.3 45 0 0 40.702 34h-3.646c-.426 0-.763.346-.79.77z" style="mix-blend-mode:normal;fill:none;stroke:#000;stroke-width:.14442653;stroke-dasharray:none;stroke-opacity:1;filter:url(#c)" transform="translate(-12.313 -12.313)scale(1.38479)"/></svg>