<svg xmlns="http://www.w3.org/2000/svg" width="64" height="64"><rect width="56" height="56" x="4" y="5" rx="2.8" ry="2.8" style="opacity:.2"/><rect width="56" height="56" x="4" y="4" rx="2.8" ry="2.8" style="fill:#288cf4"/><path d="m11.27 17 9.008 29.879c.01.018.018.022.027.039a2.8 2.8 0 0 0 2.7 2.082c1.23 0 2.26-.796 2.636-1.898.008-.017.028-.04.035-.055L34.735 17h-3.022l-8.709 29.115L14.295 17ZM44 17a7 7 0 0 0-7 7v7h3v-7c0-2.245 1.756-4 4-4 2.245 0 4 1.755 4 4v7h3v-7a7 7 0 0 0-7-7m0 18a7 7 0 0 0 0 14h7v-3h-7c-2.244 0-4-1.755-4-4s1.756-4 4-4h7v-3z" style="opacity:.2"/><path d="m11.27 16 9.008 29.879c.01.018.018.022.027.039a2.8 2.8 0 0 0 2.7 2.082c1.23 0 2.26-.796 2.636-1.898.008-.017.028-.04.035-.055L34.735 16h-3.022l-8.709 29.115L14.295 16ZM44 16a7 7 0 0 0-7 7v7h3v-7c0-2.245 1.756-4 4-4 2.245 0 4 1.755 4 4v7h3v-7a7 7 0 0 0-7-7m0 18a7 7 0 0 0 0 14h7v-3h-7c-2.244 0-4-1.755-4-4s1.756-4 4-4h7v-3z" style="fill:#fff"/><path d="M6.8 4C5.25 4 4 5.25 4 6.8v1C4 6.25 5.25 5 6.8 5h50.4C58.75 5 60 6.25 60 7.8v-1C60 5.25 58.75 4 57.2 4z" style="opacity:.2;fill:#fff"/></svg>