<svg xmlns="http://www.w3.org/2000/svg" width="64" height="64"><rect width="40" height="56" x="-53" y="-60" rx="3.333" ry="3.5" style="opacity:.2" transform="rotate(90)scale(-1 1)"/><rect width="40" height="56" x="-52" y="-60" rx="3.333" ry="3.5" style="fill:#ffb943" transform="rotate(90)scale(-1 1)"/><path d="M7.5 12C5.561 12 4 13.487 4 15.334v1C4 14.487 5.561 13 7.5 13h49c1.939 0 3.5 1.487 3.5 3.334v-1C60 13.487 58.439 12 56.5 12z" style="fill:#fff;opacity:.2"/><path d="m17.022 7 8.4 14" style="fill:none;stroke:#3f3f3f;stroke-width:6;stroke-linecap:round;stroke-linejoin:round"/><path d="M17.895 21.013a1.788 1.718 0 0 0-.001 2.976l5.212 2.89 5.212 2.891a1.788 1.718 0 0 0 2.68-1.487L31 22.5v-5.782a1.788 1.718 0 0 0-2.683-1.487l-5.21 2.89z" style="opacity:.1"/><path d="M17.135 3.967a3 3 0 0 0-3.09 3.504 3 3 0 0 1 3.09-2.504 3 3 0 0 1 2.459 1.49l8.4 14a3 3 0 0 1 .418 1.094 3 3 0 0 0-.418-2.094l-8.4-14a3 3 0 0 0-2.46-1.49" style="opacity:.1;fill:#fff"/><path d="M17.895 20.013a1.788 1.718 0 0 0-.001 2.976l5.212 2.89 5.212 2.891a1.788 1.718 0 0 0 2.68-1.487L31 21.5v-5.782a1.788 1.718 0 0 0-2.683-1.487l-5.21 2.89z" style="fill:#4f4f4f"/><path d="m35.022 38 8.4 14" style="fill:none;stroke:#3f3f3f;stroke-width:6;stroke-linecap:round;stroke-linejoin:round"/><path d="M35.895 52.013a1.788 1.718 0 0 0-.001 2.976l5.212 2.89 5.212 2.891a1.788 1.718 0 0 0 2.68-1.487L49 53.5v-5.782a1.788 1.718 0 0 0-2.683-1.487l-5.21 2.89z" style="opacity:.1"/><path d="M35.895 51.013a1.788 1.718 0 0 0-.001 2.976l5.212 2.89 5.212 2.891a1.788 1.718 0 0 0 2.68-1.487L49 52.5v-5.782a1.788 1.718 0 0 0-2.683-1.487l-5.21 2.89z" style="fill:#4f4f4f"/></svg>