<svg xmlns="http://www.w3.org/2000/svg" xmlns:xlink="http://www.w3.org/1999/xlink" width="64" height="64"><defs><radialGradient xlink:href="#a" id="b" cx="30.138" cy="38.361" r="18.709" fx="30.138" fy="38.361" gradientTransform="rotate(-15 -123.178 243.28)scale(2.54362 2.48007)" gradientUnits="userSpaceOnUse"/><linearGradient id="a"><stop offset="0" style="stop-color:#ec8530;stop-opacity:1"/><stop offset="1" style="stop-color:#ec6921;stop-opacity:1"/></linearGradient><filter id="c" width="1.096" height="1.098" x="-.048" y="-.049" style="color-interpolation-filters:sRGB"><feGaussianBlur stdDeviation=".704"/></filter></defs><path d="M31.432 9.594c-1.372.246-1.52.437-2.387.937-1.98 1.271-2.935 3.503-2.879 5.735-1.604-1.977-3.708-2.875-6.258-2.762a6.57 6.57 0 0 0-4.37 2.476v.002c-2.153 2.762-1.66 6.826 1.013 9.051-5.321-.845-7.528 2.252-7.528 6.362 0 4.925 1.563 10.297 5.93 13.912 3.466 3.187 6.455 2.587 9.063 3.83.355 2.26 2.042 3.821 3.295 4.45 1.399.704 2.628.923 3.955.923 1.602 0 2.883-.407 4.158-1.174 1.274-.767 3.049-2.174 3.049-4.979 0-1.05.168-1.454 1.65-2.308s4.36-1.611 8.28-1.606c3.57.006 6.567-2.975 6.574-6.548v-.002c.004-2.265-1.262-4.196-3.047-5.381.25-1.52.363-3.076.312-4.657v-.004c-.08-2.394-1.548-4.388-3.545-5.468 1.026-1.16 1.707-2.633 1.707-4.274v-.002c.002-3.577-2.988-6.562-6.56-6.564h-.002c-2.05 0-3.881.549-5.502 1.363-.89-1.725-2.54-2.72-4.356-3.267h-.004a6.6 6.6 0 0 0-2.548-.045" style="fill:#fff;fill-opacity:1"/><path d="M31.35 14.122a2.29 2.29 0 0 0-.687 3.17c3.782 5.862 4.675 10.283 4.288 14.157-1.566 7.42-4.97 8.925-7.943 8.925-2.904 0-2.127-4.782.056-6.181 1.303-.814 2.972-1.344 4.253-1.344a2.295 2.295 0 0 0 2.298-2.293 2.295 2.295 0 0 0-2.298-2.292c-1.496 0-2.964.315-4.334.85.28-1.322.384-2.75.022-4.268-.55-2.305-2.131-4.506-4.877-6.64a2.3 2.3 0 0 0-3.225.399c-.78 1-.599 2.44.403 3.218 2.237 1.738 2.976 3.025 3.228 4.084.253 1.06.049 2.196-.458 3.757-.648 2.105-1.401 3.983-1.732 5.784-.161.887-.175 1.852-.218 2.623-1.61-1.571-2.241-3.645-2.241-6.676a2.295 2.295 0 0 0-2.298-2.293 2.295 2.295 0 0 0-2.296 2.293c0 4.14 1.21 8.078 4.452 10.706 2.935 2.798 10.399 1.765 10.399 6.256 0 1.267 1.854 1.885 3.123 1.885 1.301 0 2.94-.871 2.94-1.885 0-5.097 5.367-8.194 14.204-8.181a2.294 2.294 0 1 0 .007-4.587c-.605 0-1.193.02-1.774.055.988-2.326 1.425-4.885 1.336-7.65a2.297 2.297 0 0 0-2.373-2.217 2.297 2.297 0 0 0-2.223 2.369c.12 3.62-.015 6.852-2.71 8.556-.767.484-1.658.904-2.503.904.656-1.785 1.152-3.67 1.355-5.7.129-1.297.143-2.837-.005-4.033-.23-1.854-.506-3.956.196-5.538.633-1.364 2.047-1.936 4.126-1.936a2.295 2.295 0 0 0 2.295-2.292 2.296 2.296 0 0 0-2.295-2.296c-3.088 0-5.429 1.627-6.756 3.592a39 39 0 0 0-2.56-4.593 2.29 2.29 0 0 0-2.34-1.015 2.3 2.3 0 0 0-.835.327" style="fill:url(#b);stroke-width:.935481"/><path d="M31.35 14.122a2.29 2.29 0 0 0-.687 3.17c3.782 5.862 4.675 10.283 4.288 14.157-1.566 7.42-4.97 8.925-7.943 8.925-2.904 0-2.127-4.782.056-6.181 1.303-.814 2.972-1.344 4.253-1.344a2.295 2.295 0 0 0 2.298-2.293 2.295 2.295 0 0 0-2.298-2.292c-1.496 0-2.964.315-4.334.85.28-1.322.384-2.75.022-4.268-.55-2.305-2.131-4.506-4.877-6.64a2.3 2.3 0 0 0-3.225.399c-.78 1-.599 2.44.403 3.218 2.237 1.738 2.976 3.025 3.228 4.084.253 1.06.049 2.196-.458 3.757-.648 2.105-1.401 3.983-1.732 5.784-.161.887-.175 1.852-.218 2.623-1.61-1.571-2.241-3.645-2.241-6.676a2.295 2.295 0 0 0-2.298-2.293 2.295 2.295 0 0 0-2.296 2.293c0 4.14 1.21 8.078 4.452 10.706 2.935 2.798 10.399 1.765 10.399 6.256 0 1.267 1.854 1.885 3.123 1.885 1.301 0 2.94-.871 2.94-1.885 0-5.097 5.367-8.194 14.204-8.181a2.294 2.294 0 1 0 .007-4.587c-.605 0-1.193.02-1.774.055.988-2.326 1.425-4.885 1.336-7.65a2.297 2.297 0 0 0-2.373-2.217 2.297 2.297 0 0 0-2.223 2.369c.12 3.62-.015 6.852-2.71 8.556-.767.484-1.658.904-2.503.904.656-1.785 1.152-3.67 1.355-5.7.129-1.297.143-2.837-.005-4.033-.23-1.854-.506-3.956.196-5.538.633-1.364 2.047-1.936 4.126-1.936a2.295 2.295 0 0 0 2.295-2.292 2.296 2.296 0 0 0-2.295-2.296c-3.088 0-5.429 1.627-6.756 3.592a39 39 0 0 0-2.56-4.593 2.29 2.29 0 0 0-2.34-1.015 2.3 2.3 0 0 0-.835.327z" style="fill:none;stroke-width:.2;stroke:red;stroke-opacity:1;stroke-dasharray:none;filter:url(#c)"/></svg>