<svg xmlns="http://www.w3.org/2000/svg" width="64" height="64"><rect width="56" height="56" x="4" y="5" rx="28" ry="28" style="opacity:.2"/><rect width="56" height="56" x="4" y="4" rx="28" ry="28" style="fill:#e4e4e4"/><path d="M31.89 52.911a1.85 1.85 0 0 1-1.047-.772c-.38-.568-.506-.98-.969-3.157-.193-.908-.477-1.513-.956-2.033-.837-.909-1.803-1.232-4.09-1.367-2.56-.15-3.469-.377-4.324-1.076-.972-.796-1.378-1.695-1.958-4.34-.36-1.635-.564-2.295-.987-3.175-.776-1.616-1.843-2.872-3.388-3.988-.996-.72-1.292-1.157-1.128-1.664.133-.41.557-.674 1.083-.674.424 0 .682.105 1.019.415.322.297.513.578.959 1.413.407.763.798 1.319.928 1.319.078 0 .09-.322.09-2.313 0-1.384.026-2.407.064-2.545.076-.28.377-.555.605-.555.378 0 .702.365.867.975.038.139.197 1.527.353 3.085s.307 2.857.336 2.888c.086.094.484-.406.742-.937.255-.52.426-1.185.428-1.655 0-.149-.07-.621-.157-1.05-.129-.638-.146-.826-.092-1.027.168-.637.863-.742 1.32-.199.33.394.444.839.441 1.728 0 .963-.083 1.321-.78 3.487-.603 1.872-.793 2.701-.791 3.455 0 2.701 2.224 4.46 5.942 4.712.331.023.602.02.602-.006 0-.025-.207-.433-.46-.906-.873-1.63-1.228-2.768-1.228-3.944 0-.886.128-1.426.69-2.901.766-2.018.84-2.346.841-3.677.001-.693-.03-1.124-.107-1.49-.418-1.985-1.446-3.69-2.896-4.805-.575-.441-.747-.537-2.217-1.228-1.414-.666-1.782-.897-2.348-1.477-.607-.623-.865-1.132-.906-1.79-.026-.408-.016-.472.086-.526.234-.126.73-.149 1.174-.054.823.174 1.56.65 2.74 1.768 1.256 1.19 1.964 1.63 2.829 1.757.42.062.463.057.543-.053.129-.18.109-.847-.037-1.242-.268-.728-.844-1.269-2.13-2.001-.828-.47-1.386-.874-1.635-1.18-.609-.75-.733-1.848-.27-2.408.437-.53 1.178-.59 2.032-.164.416.207.602.359 1.232 1.006 1.84 1.89 2.948 4.369 3.435 7.687.13.886.114 4.223-.028 5.382a52 52 0 0 1-.598 3.676c-.217 1.092-.234 1.593-.067 1.969.123.276.378.46.636.46.293 0 .81-.34 1.406-.923.974-.953 1.52-1.876 1.832-3.098.136-.532.16-.795.2-2.184.042-1.467.055-1.6.188-1.878.193-.406.549-.666.914-.666.237 0 .309.034.509.238.52.53.503 1.228-.096 3.709-.426 1.768-.996 3.13-1.72 4.11-.217.294-.855.983-1.417 1.53-.676.656-1.127 1.152-1.328 1.458-1.177 1.794-.55 3.551 1.384 3.877a2.84 2.84 0 0 0 2.317-.684c.853-.773 1.65-2.497 2.208-4.777.83-3.388 1.096-7.073.663-9.182-.391-1.908-1.177-3.507-2.28-4.642-.301-.31-.954-.848-1.616-1.333-1.845-1.35-2.587-2.223-2.844-3.344-.127-.556-.095-1.122.07-1.249.214-.163.751-.243 1.123-.167.92.188 1.726.92 2.577 2.336.668 1.114.974 1.529 1.433 1.946q.512.465.513.252c0-.037-.163-.384-.363-.77-1.451-2.813-2.493-4.934-2.633-5.36-.316-.962-.136-1.644.514-1.936.737-.333 1.557.206 1.95 1.281.085.23.629 2.1 1.21 4.155 1.254 4.437 1.169 4.158 1.258 4.129.11-.037.517-1.052.723-1.8a10 10 0 0 0 .347-3.03c-.041-1.003-.145-1.652-.512-3.166-.197-.814-.27-1.248-.27-1.587 0-.8.312-1.453.85-1.776.597-.357 1.498-.178 2.101.42.593.586.785 1.222.734 2.427-.055 1.29-.263 2.071-1.432 5.382-1.042 2.951-1.355 4.051-1.543 5.425-.123.9-.12 2.32 0 3.077.11.66.33 1.393.429 1.424.035.012.338-.766.672-1.727.819-2.353.93-2.618 1.185-2.847.507-.453 1.259-.065 1.259.65 0 .598-1.264 4.375-4.486 13.403-.9 2.52-1.627 4.626-1.616 4.68.014.064 1.3-1.09 3.663-3.283 5.048-4.684 5.124-4.764 5.45-5.72.131-.385.149-.523.121-.983-.043-.734-.283-1.369-1.012-2.679-.862-1.55-1.136-2.208-1.226-2.94-.183-1.49 1.125-2.46 2.048-1.518.513.522 1.223 2.32 1.533 3.882.085.432.156.843.156.915 0 .362.19.061.962-1.512 1.116-2.277 1.322-2.589 1.921-2.904.526-.278 1.17.01 1.52.682.19.363.183 1.047-.014 1.658-.522 1.616-2.58 5.057-4.795 8.02-.123.164-.191.299-.151.299s.23-.093.423-.208c1.192-.706 2.036-.752 2.868-.156.254.183.537.723.536 1.025 0 .34-.187.736-.439.93-.46.353-.941.467-2.306.547-2.246.131-3.952.747-5.589 2.018-1.29 1.002-2.044 2.012-3.334 4.467-1.05 1.999-1.543 2.723-2.525 3.714-.711.718-1.242 1.06-1.847 1.189-.395.084-.392.084-.805-.029z" style="opacity:.1"/><path d="M31.89 51.911a1.85 1.85 0 0 1-1.047-.772c-.38-.568-.506-.98-.969-3.157-.193-.908-.477-1.513-.956-2.033-.837-.909-1.803-1.232-4.09-1.367-2.56-.15-3.469-.377-4.324-1.076-.972-.796-1.378-1.695-1.958-4.34-.36-1.635-.564-2.295-.987-3.175-.776-1.616-1.843-2.872-3.388-3.988-.996-.72-1.292-1.157-1.128-1.664.133-.41.557-.674 1.083-.674.424 0 .682.105 1.019.415.322.297.513.578.959 1.413.407.763.798 1.319.928 1.319.078 0 .09-.322.09-2.313 0-1.384.026-2.407.064-2.545.076-.28.377-.555.605-.555.378 0 .702.365.867.975.038.139.197 1.527.353 3.085s.307 2.857.336 2.888c.086.094.484-.406.742-.937.255-.52.426-1.185.428-1.655 0-.149-.07-.621-.157-1.05-.129-.638-.146-.826-.092-1.027.168-.637.863-.742 1.32-.199.33.394.444.839.441 1.728 0 .963-.083 1.321-.78 3.487-.603 1.872-.793 2.701-.791 3.455 0 2.701 2.224 4.46 5.942 4.712.331.023.602.02.602-.006 0-.025-.207-.433-.46-.906-.873-1.63-1.228-2.768-1.228-3.944 0-.886.128-1.426.69-2.901.766-2.018.84-2.346.841-3.677.001-.693-.03-1.124-.107-1.49-.418-1.985-1.446-3.69-2.896-4.805-.575-.441-.747-.537-2.217-1.228-1.414-.666-1.782-.897-2.348-1.477-.607-.623-.865-1.132-.906-1.79-.026-.408-.016-.472.086-.526.234-.126.73-.149 1.174-.054.823.174 1.56.65 2.74 1.768 1.256 1.19 1.964 1.63 2.829 1.757.42.062.463.057.543-.053.129-.18.109-.847-.037-1.242-.268-.728-.844-1.269-2.13-2.001-.828-.47-1.386-.874-1.635-1.18-.609-.75-.733-1.848-.27-2.408.437-.53 1.178-.59 2.032-.164.416.207.602.359 1.232 1.006 1.84 1.89 2.948 4.369 3.435 7.687.13.886.114 4.223-.028 5.382a52 52 0 0 1-.598 3.676c-.217 1.092-.234 1.593-.067 1.969.123.276.378.46.636.46.293 0 .81-.34 1.406-.923.974-.953 1.52-1.876 1.832-3.098.136-.532.16-.795.2-2.184.042-1.467.055-1.6.188-1.878.193-.406.549-.666.914-.666.237 0 .309.034.509.238.52.53.503 1.228-.096 3.709-.426 1.768-.996 3.13-1.72 4.11-.217.294-.855.983-1.417 1.53-.676.656-1.127 1.152-1.328 1.458-1.177 1.794-.55 3.551 1.384 3.877a2.84 2.84 0 0 0 2.317-.684c.853-.773 1.65-2.497 2.208-4.777.83-3.388 1.096-7.073.663-9.182-.391-1.908-1.177-3.507-2.28-4.642-.301-.31-.954-.848-1.616-1.333-1.845-1.35-2.587-2.223-2.844-3.344-.127-.556-.095-1.122.07-1.249.214-.163.751-.243 1.123-.167.92.188 1.726.92 2.577 2.336.668 1.114.974 1.529 1.433 1.946q.512.465.513.252c0-.037-.163-.384-.363-.77-1.451-2.813-2.493-4.934-2.633-5.36-.316-.962-.136-1.644.514-1.936.737-.333 1.557.206 1.95 1.281.085.23.629 2.1 1.21 4.155 1.254 4.437 1.169 4.158 1.258 4.129.11-.037.517-1.052.723-1.8a10 10 0 0 0 .347-3.03c-.041-1.003-.145-1.652-.512-3.166-.197-.814-.27-1.248-.27-1.587 0-.8.312-1.453.85-1.776.597-.357 1.498-.178 2.101.42.593.586.785 1.222.734 2.427-.055 1.29-.263 2.071-1.432 5.382-1.042 2.951-1.355 4.051-1.543 5.425-.123.9-.12 2.32 0 3.077.11.66.33 1.393.429 1.424.035.012.338-.766.672-1.727.819-2.353.93-2.618 1.185-2.847.507-.453 1.259-.065 1.259.65 0 .598-1.264 4.375-4.486 13.403-.9 2.52-1.627 4.626-1.616 4.68.014.064 1.3-1.09 3.663-3.283 5.048-4.684 5.124-4.764 5.45-5.72.131-.385.149-.523.121-.983-.043-.734-.283-1.369-1.012-2.679-.862-1.55-1.136-2.208-1.226-2.94-.183-1.49 1.125-2.46 2.048-1.518.513.522 1.223 2.32 1.533 3.882.085.432.156.843.156.915 0 .362.19.061.962-1.512 1.116-2.277 1.322-2.589 1.921-2.904.526-.278 1.17.01 1.52.682.19.363.183 1.047-.014 1.658-.522 1.616-2.58 5.057-4.795 8.02-.123.164-.191.299-.151.299s.23-.093.423-.208c1.192-.706 2.036-.752 2.868-.156.254.183.537.723.536 1.025 0 .34-.187.736-.439.93-.46.353-.941.467-2.306.547-2.246.131-3.952.747-5.589 2.018-1.29 1.002-2.044 2.012-3.334 4.467-1.05 1.999-1.543 2.723-2.525 3.714-.711.718-1.242 1.06-1.847 1.189-.395.084-.392.084-.805-.029z" style="fill:#3099ec"/><path d="M32 4C16.488 4 4 16.488 4 32c0 .168.01.333.014.5C4.28 17.221 16.656 5 32 5s27.72 12.221 27.986 27.5c.003-.167.014-.332.014-.5C60 16.488 47.512 4 32 4" style="fill:#fff;opacity:.2"/></svg>