<svg xmlns="http://www.w3.org/2000/svg" xmlns:xlink="http://www.w3.org/1999/xlink" width="64" height="64"><defs><radialGradient xlink:href="#a" id="b" cx="12.967" cy="23.483" r="28" fx="12.967" fy="23.483" gradientTransform="rotate(30 185.456 95.082)scale(3.49583 3.05744)" gradientUnits="userSpaceOnUse"/><radialGradient id="a" cx="-159.431" cy="15.463" r="64.707" fx="-159.431" fy="15.463" gradientTransform="matrix(-.89413 0 0 .96305 -80.754 49.33)" gradientUnits="userSpaceOnUse"><stop offset="0" style="stop-color:#006fff;stop-opacity:1"/><stop offset="1" style="stop-color:#15baff;stop-opacity:1"/></radialGradient><radialGradient xlink:href="#a" id="c" cx="36.368" cy="-9.133" r="28" fx="36.368" fy="-9.133" gradientTransform="matrix(0 3.34078 -3.30974 0 -21.47 -107.502)" gradientUnits="userSpaceOnUse"/><radialGradient xlink:href="#a" id="d" cx="47.47" cy="41.166" r="8.745" fx="47.47" fy="41.166" gradientTransform="matrix(0 -7.27059 7.14923 0 -222.94 423.357)" gradientUnits="userSpaceOnUse"/></defs><path d="M64.335 25.559 53.59 20.355a3.235 3.235 0 0 0-3.706.634L14.709 52.668a2.194 2.194 0 0 0 .002 3.232l2.873 2.627c.775.708 1.941.76 2.775.124l42.359-31.742c1.421-1.085 3.462-.065 3.462 1.729v-.126a3.28 3.28 0 0 0-1.845-2.953" style="fill:url(#b);stroke-width:.931798" transform="translate(-8.104 -14.106)"/><path d="M64.335 66.684 53.59 71.888a3.235 3.235 0 0 1-3.706-.634l-35.175-33.6a2.194 2.194 0 0 1 .002-3.232l2.873-2.627a2.16 2.16 0 0 1 2.775-.124l42.359 33.663c1.421 1.084 3.462.065 3.462-1.729v.126a3.28 3.28 0 0 1-1.845 2.953" style="fill:url(#c);stroke-width:.931798" transform="translate(-8.104 -14.106)"/><path d="M53.619 71.857a3.24 3.24 0 0 1-3.707-.634c1.203 1.21 3.26.353 3.26-1.358v-47.55c0-1.71-2.057-2.567-3.26-1.357a3.24 3.24 0 0 1 3.707-.635l10.743 5.196a3.28 3.28 0 0 1 1.847 2.955v35.233a3.28 3.28 0 0 1-1.847 2.954z" style="fill:url(#d);stroke-width:.931798" transform="translate(-8.104 -14.106)"/></svg>