<svg xmlns="http://www.w3.org/2000/svg" width="64" height="64"><circle cx="32" cy="33" r="28" style="opacity:.2"/><circle cx="32" cy="32" r="28" style="fill:#248afd"/><path d="M32 4A28 28 0 0 0 4 32a28 28 0 0 0 5.69 16.8H18a4.19 4.19 0 0 0 3.957-2.8H37.6a4.19 4.19 0 0 0 4.2-4.2V32a4.19 4.19 0 0 0-4.2-4.2H22.2V15.2h32.197A28 28 0 0 0 32 4" style="fill:#f57f17"/><path d="M32 4A28 28 0 0 0 4 32a28 28 0 0 0 .021.586A28 28 0 0 1 32 5a28 28 0 0 1 27.979 27.414L60 32A28 28 0 0 0 32 4" style="opacity:.2;fill:#fff"/><path d="M37 30h-7l-2 6h7zm23-16-2 7H25l3 3h20l-5 13 6 5-4 10H4l2-7h33l-3-3H17l5-12-7-6 4-10z" style="opacity:.2"/><path fill="#fff" d="M37 29h-7l-2 6h7zm23-16-2 7H25l3 3h20l-5 13 6 5-4 10H4l2-7h33l-3-3H17l5-12-7-6 4-10z"/></svg>