<svg xmlns="http://www.w3.org/2000/svg" width="64" height="64"><path d="m16 34 6-12h19.224L48 34Z" style="fill:#3f3f3f"/><rect width="36" height="18" x="14" y="12" rx="3" ry="3" style="opacity:.2"/><rect width="48" height="18" x="8" y="33" rx="3" ry="3" style="opacity:.2"/><rect width="48" height="18" x="8" y="32" rx="3" ry="3" style="fill:#8e8e8e"/><path d="M11 32c-1.662 0-3 1.338-3 3v7h48v-7c0-1.662-1.338-3-3-3Z" style="opacity:.1;fill:#fff"/><rect width="14" height="22" x="46" y="35" rx="1.5" ry="1.5" style="opacity:.2"/><rect width="14" height="22" x="4" y="35" rx="1.5" ry="1.5" style="opacity:.2"/><path d="M11 32c-1.662 0-3 1.338-3 3v1c0-1.662 1.338-3 3-3h42c1.662 0 3 1.338 3 3v-1c0-1.662-1.338-3-3-3z" style="fill:#fff;opacity:.2"/><rect width="14" height="22" x="4" y="34" rx="1.5" ry="1.5" style="fill:#4f4f4f"/><rect width="36" height="18" x="14" y="11" rx="3" ry="3" style="fill:#8e8e8e"/><rect width="14" height="22" x="46" y="34" rx="1.5" ry="1.5" style="fill:#4f4f4f"/><g style="fill:#3f3f3f" transform="matrix(2 0 0 2 0 1)"><rect width="3" height="3" x="8" y="6" rx=".75" ry=".75" style="fill:#3f3f3f"/><rect width="3" height="3" x="12" y="6" rx=".75" ry=".75" style="fill:#3f3f3f"/><rect width="3" height="3" x="17" y="6" rx=".75" ry=".75" style="fill:#3f3f3f"/><rect width="3" height="3" x="21" y="6" rx=".75" ry=".75" style="fill:#3f3f3f"/><rect width="3" height="3" x="21" y="10" rx=".75" ry=".75" style="fill:#3f3f3f"/><rect width="3" height="3" x="17" y="10" rx=".75" ry=".75" style="fill:#3f3f3f"/><rect width="3" height="3" x="12" y="10" rx=".75" ry=".75" style="fill:#3f3f3f"/><rect width="3" height="3" x="8" y="10" rx=".75" ry=".75" style="fill:#3f3f3f"/></g><path d="M17 11c-1.662 0-3 1.338-3 3v1c0-1.662 1.338-3 3-3h30c1.662 0 3 1.338 3 3v-1c0-1.662-1.338-3-3-3z" style="opacity:.2;fill:#fff"/><path d="M4 49h14v5H4zm0-10h14v5H4zm42 5h14v5H46zm1.5-10c-.831 0-1.5.669-1.5 1.5V39h14v-3.5c0-.831-.669-1.5-1.5-1.5zM46 54v.5c0 .831.669 1.5 1.5 1.5h11c.831 0 1.5-.669 1.5-1.5V54z" style="fill:#3f3f3f"/></svg>