<svg xmlns="http://www.w3.org/2000/svg" width="64" height="64"><path d="M30.982 7c-7.71 0-17.443 1.644-24.29 8.43a5.992 6.04 0 0 0-.06.062l-.29.297a5.992 6.04 0 0 0-1.617 3.086l-.06.32c-1.254 5.303-.8 11.92 1.92 19.02 2.763 7.214 8.114 14.757 16.898 20.219a5.992 6.04 0 0 0 6.978-1.423 5.992 6.04 0 0 0 .837.153 5.992 6.04 0 0 0 .702.13 5.992 6.04 0 0 0 .702-.13 5.992 6.04 0 0 0 .837-.153 5.992 6.04 0 0 0 6.978 1.423c8.784-5.462 14.135-13.005 16.898-20.22 2.72-7.1 3.174-13.718 1.92-19.02l-.06-.317a5.992 6.04 0 0 0-1.617-3.088l-.29-.297a5.992 6.04 0 0 0-.06-.061C50.46 8.644 40.727 7 33.017 7A5.992 6.04 0 0 0 32 7.423 5.992 6.04 0 0 0 30.982 7" style="opacity:.2"/><path d="M30.982 6c-7.71 0-17.443 1.644-24.29 8.43a5.992 6.04 0 0 0-.06.062l-.29.297a5.992 6.04 0 0 0-1.617 3.086l-.06.32c-1.254 5.303-.8 11.92 1.92 19.02 2.763 7.214 8.114 14.757 16.898 20.219a5.992 6.04 0 0 0 6.978-1.423 5.992 6.04 0 0 0 .837.153 5.992 6.04 0 0 0 .702.13 5.992 6.04 0 0 0 .702-.13 5.992 6.04 0 0 0 .837-.153 5.992 6.04 0 0 0 6.978 1.423c8.784-5.462 14.135-13.005 16.898-20.22 2.72-7.1 3.174-13.718 1.92-19.02l-.06-.317a5.992 6.04 0 0 0-1.617-3.088l-.29-.297a5.992 6.04 0 0 0-.06-.061C50.46 7.644 40.727 6 33.017 6A5.992 6.04 0 0 0 32 6.423 5.992 6.04 0 0 0 30.982 6" style="fill:#3f3f3f"/><path d="M30.981 13c-6.6 0-15.23 1.848-20.117 6.655l-.29.293-.072.372C8.678 27.601 11.339 43.572 26.62 53 10.754 37.806 12.648 23.905 13.126 21.427c4.377-4.066 12.012-5.322 14.893-5.51l-.038 4.239c-3.83.443-8.582 1.1-11.791 3.467-.726 5.4 1.493 11.41 4.708 16.771 2.553 4.33 5.764 7.762 9.448 11.09l1.651-18.34-4.756 11.243c-2.917-3.475-8.132-10.42-8.314-18.997 3.939-2.032 8.387-2.662 12.764-2.7l.309.004c.102 0 .207-.004.309-.003 4.377.037 8.825.667 12.764 2.7-.182 8.576-5.397 15.52-8.314 18.996l-4.756-11.243 1.651 18.34c3.684-3.328 6.895-6.76 9.448-11.09 3.215-5.36 5.434-11.371 4.708-16.771-3.21-2.366-7.962-3.024-11.791-3.467l-.038-4.238c2.881.187 10.516 1.443 14.893 5.51.478 2.477 2.372 16.378-13.495 31.572 15.282-9.428 17.943-25.399 16.12-32.68l-.073-.372-.29-.293C48.249 14.848 39.62 13 33.019 13l-.038 6.972c-.51-.016-.552-.022-.981-.024-.43.002-.47.008-.981.024z" style="opacity:.2"/><path d="M30.981 12c-6.6 0-15.23 1.848-20.117 6.655l-.29.293-.072.372C8.678 26.601 11.339 42.572 26.62 52 10.754 36.806 12.648 22.905 13.126 20.427c4.377-4.066 12.012-5.322 14.893-5.51l-.038 4.239c-3.83.443-8.582 1.1-11.791 3.467-.726 5.4 1.493 11.41 4.708 16.771 2.553 4.33 5.764 7.762 9.448 11.09l1.651-18.34-4.756 11.243c-2.917-3.475-8.132-10.42-8.314-18.997 3.939-2.032 8.387-2.662 12.764-2.7l.309.004c.102 0 .207-.004.309-.003 4.377.037 8.825.667 12.764 2.7-.182 8.576-5.397 15.52-8.314 18.996l-4.756-11.243 1.651 18.34c3.684-3.328 6.895-6.76 9.448-11.09 3.215-5.36 5.434-11.371 4.708-16.771-3.21-2.366-7.962-3.024-11.791-3.467l-.038-4.238c2.881.187 10.516 1.443 14.893 5.51.478 2.477 2.372 16.378-13.495 31.572 15.282-9.428 17.943-25.399 16.12-32.68l-.073-.372-.29-.293C48.249 13.848 39.62 12 33.019 12l-.038 6.972c-.51-.016-.552-.022-.981-.024-.43.002-.47.008-.981.024z" style="fill:#8bc53f"/><path d="M30.981 12c-6.6 0-15.23 1.848-20.117 6.654l-.29.294 2.522 1.643c.01-.05.021-.121.03-.164 4.377-4.067 12.012-5.322 14.893-5.51l-.038 4.238c-3.825.443-8.572 1.1-11.78 3.46l2.726 1.775c3.939-2.033 8.387-2.662 12.764-2.7l.309.003c.102 0 .207-.004.309-.003 4.377.038 8.825.667 12.764 2.7l2.726-1.776c-3.208-2.36-7.955-3.016-11.78-3.459l-.038-4.237c2.881.187 10.516 1.442 14.893 5.509l.03.164 2.522-1.643-.29-.294C48.249 13.848 39.62 12 33.019 12l-.038 6.972c-.51-.016-.552-.022-.981-.024-.43.002-.47.008-.981.024z" style="fill:#ff7e00"/><path d="M30.982 6c-7.71 0-17.442 1.645-24.289 8.432a5.992 6.04 0 0 0-.06.06l-.291.297a5.992 6.04 0 0 0-1.617 3.086l-.06.32c-.476 2.013-.704 4.215-.657 6.56.027-1.972.249-3.836.656-5.56l.06-.32a5.992 6.04 0 0 1 1.618-3.086l.29-.297a5.992 6.04 0 0 1 .061-.06C13.54 8.645 23.273 7 30.983 7A5.992 6.04 0 0 1 32 7.422 5.992 6.04 0 0 1 33.018 7c7.71 0 17.442 1.645 24.289 8.432a5.992 6.04 0 0 1 .06.06l.291.297a5.992 6.04 0 0 1 1.617 3.088l.06.316c.408 1.724.63 3.588.657 5.56.047-2.345-.18-4.547-.656-6.56l-.06-.316a5.992 6.04 0 0 0-1.618-3.088l-.29-.297a5.992 6.04 0 0 0-.061-.06C50.46 7.645 40.727 6 33.017 6A5.992 6.04 0 0 0 32 6.422 5.992 6.04 0 0 0 30.982 6" style="fill:#fff;opacity:.1"/></svg>