<svg xmlns="http://www.w3.org/2000/svg" xmlns:xlink="http://www.w3.org/1999/xlink" xml:space="preserve" width="64" height="64"><defs><radialGradient xlink:href="#a" id="n" cx="9.983" cy="57.484" r="16.5" fx="9.983" fy="57.484" gradientTransform="rotate(-30 -154.278 122.243)scale(2.20723 2.60669)" gradientUnits="userSpaceOnUse"/><radialGradient xlink:href="#b" id="j" cx="5.649" cy="58.954" r="18.295" fx="5.649" fy="58.954" gradientTransform="rotate(-30 -192.934 124.657)scale(2.6102 2.84035)" gradientUnits="userSpaceOnUse"/><radialGradient xlink:href="#c" id="i" cx="19.017" cy="29.404" r="11.831" fx="19.017" fy="29.404" gradientTransform="rotate(75 86.312 29.788)scale(3.30229 3.3891)" gradientUnits="userSpaceOnUse"/><radialGradient xlink:href="#d" id="h" cx="59.395" cy="27.328" r="12.256" fx="59.395" fy="27.328" gradientTransform="rotate(165 130.12 43.176)scale(3.19764 3.40391)" gradientUnits="userSpaceOnUse"/><radialGradient xlink:href="#e" id="g" cx="-.041" cy="22.738" r="12.256" fx="-.041" fy="22.738" gradientTransform="matrix(0 4.36986 -6.74208 0 156.503 15.921)" gradientUnits="userSpaceOnUse"/><radialGradient xlink:href="#f" id="l" cx="33.078" cy="10.084" r="6" fx="33.078" fy="10.084" gradientTransform="rotate(135 33.838 9.023)scale(1.1207 .60616)" gradientUnits="userSpaceOnUse"/><radialGradient xlink:href="#f" id="k" cx="45" cy="9.001" r="3" fx="45" fy="9.001" gradientTransform="translate(-20.921 -1.592)scale(1.43566)" gradientUnits="userSpaceOnUse"/><radialGradient xlink:href="#f" id="m" cx="19" cy="19.477" r="3" fx="19" fy="19.477" gradientTransform="rotate(15 109.39 13.555)scale(1.31454 2.1909)" gradientUnits="userSpaceOnUse"/><linearGradient id="f"><stop offset="0" style="stop-color:#bdeff4;stop-opacity:1"/><stop offset="1" style="stop-color:#20ebff;stop-opacity:1"/></linearGradient><linearGradient id="e"><stop offset="0" style="stop-color:#00cbf5;stop-opacity:1"/><stop offset="1" style="stop-color:#0056f5;stop-opacity:1"/></linearGradient><linearGradient id="d"><stop offset="0" style="stop-color:#7369e8;stop-opacity:1"/><stop offset="1" style="stop-color:#3f73c8;stop-opacity:1"/></linearGradient><linearGradient id="c"><stop offset="0" style="stop-color:#9948be;stop-opacity:1"/><stop offset="1" style="stop-color:#27d0fb;stop-opacity:1"/></linearGradient><linearGradient id="b"><stop offset="0" style="stop-color:#20a9ff;stop-opacity:1"/><stop offset="1" style="stop-color:#20ebff;stop-opacity:1"/></linearGradient><linearGradient id="a"><stop offset="0" style="stop-color:#20a2ff;stop-opacity:1"/><stop offset="1" style="stop-color:#20c1ff;stop-opacity:1"/></linearGradient><filter id="o" width="1.185" height="1.213" x="-.092" y="-.106" style="color-interpolation-filters:sRGB"><feGaussianBlur stdDeviation="2.265"/></filter></defs><path d="M13.364 21.694a6.12 6.12 0 0 0-4.682.143 6.12 6.12 0 0 0-3.068 8.092l9.791 21.75a6.12 6.12 0 0 0 8.092 3.069 6.12 6.12 0 0 0 3.068-8.093l-9.79-21.75a6.12 6.12 0 0 0-3.411-3.21" style="baseline-shift:baseline;display:inline;overflow:visible;opacity:1;vector-effect:none;fill:url(#g);stroke-width:.898737;stroke-linecap:round;stroke-linejoin:round;enable-background:accumulate;stop-color:#000;stop-opacity:1"/><path d="M50.636 21.694a6.12 6.12 0 0 0-3.41 3.21l-9.791 21.751a6.12 6.12 0 0 0 3.068 8.093 6.12 6.12 0 0 0 8.092-3.069l9.791-21.75a6.12 6.12 0 0 0-3.068-8.092 6.12 6.12 0 0 0-4.682-.143" style="baseline-shift:baseline;display:inline;overflow:visible;opacity:1;vector-effect:none;fill:url(#h);stroke-width:.898737;stroke-linecap:round;stroke-linejoin:round;enable-background:accumulate;stop-color:#000;stop-opacity:1"/><path d="M37.937 27.703c-.609 1.013-1.215 2.05-1.865 3.088l-.2.312-5.036 8.95 6.86 12.197c2.468 4.384 8.878 4.082 10.924-.515l3.482-7.836c-1.735 1.01-3.562 1.568-5.197-.177l-4.538-8.064.02-.031c-1.327-2.365-2.758-5.256-4.45-7.924" style="fill:url(#i);stroke-width:.898737"/><path d="M36.006 19.824c-4.002 1.324-6.459 3.383-8.266 5.425-2.47 3.23-4.4 7.26-6.148 10.377l.02.031-4.538 8.066c-1.635 1.745-3.464 1.187-5.2.177l3.484 7.835c2.046 4.597 8.456 4.899 10.924.514l10.93-19.43.2-.312c2.185-3.492 3.876-6.956 6.81-9.612 2.686-2.71-5.416-3.854-8.216-3.071" style="fill:url(#j);stroke:none;stroke-width:.898737"/><path d="m33.455 35.4-2.619 4.654 6.86 12.196c2.468 4.384 8.878 4.082 10.924-.515l1.355-3.05c-3.181 1.709-6.488 2.437-9.465-.741z" style="opacity:.559662;fill:#0095da;stroke-width:.898737"/><circle cx="43.684" cy="11.33" r="2.696" style="fill:url(#k);stroke-width:.898737"/><path d="M33.599 10.431c-.788 0-1.625.236-2.469.708-3.15 1.762-4.702 4.814-4.506 8.858.05 1.022.203 2.12.34 2.438.139.318.368.578.511.578s.751-.554 1.351-1.231c.817-.92 1.524-1.457 2.807-2.127 3.429-1.79 3.742-1.994 4.565-2.966 1.552-1.832 1.593-3.634.114-5.11-.767-.764-1.7-1.15-2.713-1.148" style="fill:url(#l);stroke-width:.898737"/><path d="M20.626 17.622a2.6 2.6 0 0 0-.568.046c-1.496.296-2.668 2.533-2.399 4.582.167 1.27 1.304 3.214 2.275 3.888.421.293.969.503 1.217.466.39-.058.474-.296.611-1.716.088-.908.412-2.27.72-3.026.673-1.652.695-2.19.129-3.15-.385-.653-1.167-1.065-1.985-1.09" style="fill:url(#m);stroke-width:.898737"/><path d="M43.1 20.341c-3.259 1.64-5.537 3.683-7.335 5.714-3.29 4.3-5.86 9.67-8.188 13.821l.024.042-6.044 10.743c-2.03 2.168-4.286 1.666-6.456.497l.257.577c2.045 4.597 8.456 4.899 10.925.515l10.929-19.43.2-.313c2.184-3.491 3.876-6.956 6.81-9.612 1.125-1.135.357-1.995-1.121-2.554" style="opacity:1;fill:url(#n);fill-opacity:1;stroke-width:.898737"/><g style="stroke:#000;stroke-width:.2;stroke-dasharray:none;stroke-opacity:1;filter:url(#o)" transform="translate(48.27 31.65)scale(.89874)"><path d="M-41.46-11.516a6.8 6.8 0 0 0-2.589.598 6.81 6.81 0 0 0-3.414 9.004l7.008 15.568c1.918 1.109 3.938 1.707 5.744-.22l5.049-8.973-.022-.035.006-.008v-.002l-5.367-11.92a6.8 6.8 0 0 0-3.795-3.572 6.8 6.8 0 0 0-2.62-.44m46.714 0a6.8 6.8 0 0 0-2.621.44 6.8 6.8 0 0 0-3.795 3.572L-6.557 4.48l5.037 8.954c1.817 1.939 3.847 1.322 5.776.2l7-15.548a6.81 6.81 0 0 0-3.414-9.004 6.8 6.8 0 0 0-2.588-.598" style="baseline-shift:baseline;display:inline;overflow:visible;fill:none;stroke:#000;stroke-width:.2;stroke-linecap:round;stroke-linejoin:round;stroke-dasharray:none;stroke-opacity:1;enable-background:accumulate;stop-color:#000"/><path d="M-10.178-2.2c-.62 1.038-1.241 2.096-1.904 3.155l-.223.348-2.896 5.15 6.566 11.678c3.313 3.536 6.992 2.726 10.531.824l2.368-5.324C2.333 14.755.3 15.375-1.52 13.434L-6.568 4.46l.021-.035C-7.665 2.433-8.85.103-10.177-2.2Zm-.304-11.214c-1.237-.044-2.386.04-3.164.258-4.454 1.473-7.187 3.763-9.198 6.035-2.748 3.593-4.894 8.079-6.84 11.547l.022.035-5.049 8.973c-1.82 1.941-3.854 1.32-5.785.197l3.59 8.076c2.414 1.3 4.923 1.86 7.183-.553l6.725-11.953-.027-.047c2.591-4.619 5.451-10.593 9.11-15.379 1.996-2.254 4.525-4.522 8.138-6.343-1.3-.493-3.067-.788-4.705-.846zm5.15 1.012c.035.016.074.03.107.047-.033-.017-.072-.031-.107-.047zm.285.142zm.596.387zm.156.14zm.313.458zm.021.056zm.027.1zm.018.088zm.008.197q-.002.03-.006.059zm-.117.44zm-.116.208z" style="fill:none;stroke:#000;stroke-width:.2;stroke-dasharray:none;stroke-opacity:1"/><path d="m-15.201 6.453-2.914 5.18 6.35 11.289C-9.02 27.8-1.889 27.464.388 22.35l1.507-3.395c-3.539 1.902-7.218 2.712-10.53-.824z" style="opacity:.559662;fill:none;stroke:#000;stroke-width:.2;stroke-dasharray:none;stroke-opacity:1"/><path d="M-5.104-25.607a3 3 0 0 0-3 3 3 3 0 0 0 3 3 3 3 0 0 0 3-3 3 3 0 0 0-3-3zm-11.22 1.997c-.877.002-1.807.264-2.746.79-3.505 1.96-5.234 5.355-5.016 9.855.055 1.137.228 2.359.38 2.713.154.354.408.643.567.643.16 0 .836-.616 1.504-1.37.908-1.024 1.696-1.621 3.123-2.367 3.815-1.992 4.164-2.217 5.08-3.299 1.728-2.038 1.77-4.044.125-5.685-.852-.85-1.89-1.28-3.017-1.28zm-14.436 8.003q-.316-.01-.63.05c-1.666.33-2.97 2.818-2.67 5.098.185 1.414 1.45 3.578 2.53 4.328.47.326 1.08.559 1.356.518.433-.064.527-.33.68-1.91.097-1.01.458-2.525.8-3.368.75-1.838.773-2.435.143-3.504-.428-.725-1.298-1.184-2.209-1.212zm25.008 3.025c-3.627 1.824-6.162 4.097-8.162 6.357-3.66 4.786-6.52 10.76-9.111 15.38l.027.046-6.725 11.953c-2.26 2.413-4.769 1.854-7.183.553l.285.643c2.276 5.114 9.41 5.45 12.156.572l12.16-21.62.223-.347c2.43-3.885 4.313-7.74 7.578-10.695 1.252-1.263.397-2.22-1.248-2.842z" style="fill:none;stroke:#000;stroke-width:.2;stroke-dasharray:none;stroke-opacity:1"/></g></svg>