<svg xmlns="http://www.w3.org/2000/svg" xmlns:xlink="http://www.w3.org/1999/xlink" width="64" height="64"><defs><radialGradient xlink:href="#a" id="e" cx="33.645" cy="33.713" r="6.025" fx="33.645" fy="33.713" gradientTransform="rotate(-45 -63.88 275.18)scale(5.11344 5.1944)" gradientUnits="userSpaceOnUse"/><radialGradient xlink:href="#b" id="f" cx="11.674" cy="48.279" r="29" fx="11.674" fy="48.279" gradientTransform="rotate(15 191.062 81.248)scale(2.75547 1.42524)" gradientUnits="userSpaceOnUse"/><radialGradient xlink:href="#c" id="d" cx="-19.731" cy="66.287" r="25.827" fx="-19.731" fy="66.287" gradientTransform="rotate(15 322.426 449.11)scale(3.09398 1.60034)" gradientUnits="userSpaceOnUse"/><linearGradient id="c"><stop offset="0" style="stop-color:#ffe345;stop-opacity:1"/><stop offset="1" style="stop-color:#ff8c25;stop-opacity:1"/></linearGradient><linearGradient id="a"><stop offset="0" style="stop-color:#28a067;stop-opacity:1"/><stop offset="1" style="stop-color:#39bf75;stop-opacity:1"/></linearGradient><linearGradient id="b"><stop offset="0" style="stop-color:#52e171;stop-opacity:1"/><stop offset="1" style="stop-color:#2fa165;stop-opacity:1"/></linearGradient><filter id="g" width="1.225" height="1.384" x="-.112" y="-.192" style="color-interpolation-filters:sRGB"><feGaussianBlur stdDeviation="2.675"/></filter><filter id="h" width="1.121" height="1.685" x="-.06" y="-.342" style="color-interpolation-filters:sRGB"><feGaussianBlur stdDeviation=".726"/></filter><filter id="i" width="1.148" height="1.226" x="-.074" y="-.113" style="color-interpolation-filters:sRGB"><feGaussianBlur stdDeviation=".847"/></filter></defs><circle cx="32.045" cy="36.777" r="25.884" style="fill:url(#d);fill-opacity:1;stroke:none;stroke-width:.206227;stroke-linecap:round;stroke-linejoin:round;stroke-miterlimit:7.4"/><path d="M12.541 16.781a2.7 2.7 0 0 0-1.724.427 2.69 2.69 0 0 0-.776 3.72l5.419 8.288a2.69 2.69 0 0 0 3.72.779 2.69 2.69 0 0 0 .779-3.722l-5.421-8.288a2.69 2.69 0 0 0-1.997-1.204m39.144.079a2.6 2.6 0 0 0-.506.054 2.6 2.6 0 0 0-1.643 1.12l-5.42 8.288a2.6 2.6 0 0 0 .753 3.597 2.6 2.6 0 0 0 3.596-.752l5.42-8.288a2.6 2.6 0 0 0-.751-3.596 2.6 2.6 0 0 0-1.45-.423" style="fill:url(#e);fill-opacity:1;stroke-width:.895947;stroke-linecap:round" transform="translate(0 -9.588)"/><path d="M55.395 47.231H8.54s-2.638 0-2.519-2.587c1.265-13.63 12.416-24.291 25.985-24.291 13.526 0 24.65 10.593 25.971 24.162.132 2.716-2.582 2.716-2.582 2.716" style="fill:url(#f);stroke-width:.895947" transform="translate(0 -9.588)"/><g style="filter:url(#g)" transform="translate(-54.241 -5.325)scale(.89595)"><path d="M74.031 13.967a3 3 0 0 0-2.285 4.633l4.774 7.298a29.3 29.3 0 0 1 4.767-3.671l-4.521-6.913a3 3 0 0 0-2.735-1.347zm44.196.092a2.9 2.9 0 0 0-2.399 1.31l-4.514 6.902a29.3 29.3 0 0 1 4.61 3.55l4.758-7.276a2.9 2.9 0 0 0-2.455-4.486z" style="baseline-shift:baseline;display:inline;overflow:visible;fill:none;stroke:#000;stroke-width:.2;stroke-linecap:round;stroke-dasharray:none;stroke-opacity:1;enable-background:accumulate;stop-color:#000;stop-opacity:1"/><path d="M96.264 17.957c-15.145 0-27.591 11.898-29.002 27.111-.133 2.888 2.81 2.889 2.81 2.889h52.297s3.03-.002 2.883-3.033c-1.476-15.145-13.891-26.967-28.988-26.967Z" style="baseline-shift:baseline;display:inline;overflow:visible;fill:none;stroke:#000;stroke-width:.2;stroke-dasharray:none;stroke-opacity:1;enable-background:accumulate;stop-color:#000;stop-opacity:1"/></g><path d="M19.457 34.688a2.69 2.69 0 0 0-2.687 2.687 2.69 2.69 0 0 0 2.687 2.69 2.69 2.69 0 0 0 2.688-2.69 2.69 2.69 0 0 0-2.688-2.687m25.086 0a2.69 2.69 0 0 0-2.688 2.687 2.69 2.69 0 0 0 2.688 2.69 2.69 2.69 0 0 0 2.687-2.69 2.69 2.69 0 0 0-2.687-2.687" style="fill:#fff;stroke-width:.895947" transform="translate(0 -9.588)"/><path d="M19.457 34.688a2.69 2.69 0 0 0-2.687 2.687 2.69 2.69 0 0 0 2.687 2.69 2.69 2.69 0 0 0 2.688-2.69 2.69 2.69 0 0 0-2.688-2.687zm25.086 0a2.69 2.69 0 0 0-2.688 2.687 2.69 2.69 0 0 0 2.688 2.69 2.69 2.69 0 0 0 2.687-2.69 2.69 2.69 0 0 0-2.687-2.687z" style="fill:none;stroke:#ffd400;stroke-width:.2;stroke-dasharray:none;stroke-opacity:1;filter:url(#h)" transform="translate(0 -9.588)"/><path d="m-48.353 41.457-2.245 5.854-3.883-11.08a2.443 2.443 25.69 0 0-3.114-1.498 2.34 2.34 113.155 0 0-1.302 3.045l4.584 13.072a3.904 3.904.826 0 0 7.329.106l2.318-6.048 2.318 6.048a3.903 3.903 179.172 0 0 7.329-.106l4.582-13.072a2.443 2.443 64.315 0 0-1.497-3.113 2.34 2.34 151.765 0 0-2.917 1.566l-3.885 11.078-2.243-5.851a3.949 3.949.002 0 0-7.374 0" style="baseline-shift:baseline;display:inline;overflow:visible;vector-effect:none;fill:#fff;stroke-linecap:square;stroke-miterlimit:7.4;enable-background:accumulate;stop-color:#000" transform="translate(76.727 5.158)"/><path d="m-48.353 41.457-2.245 5.854-3.883-11.08a2.443 2.443 25.69 0 0-3.114-1.498 2.34 2.34 113.155 0 0-1.302 3.045l4.584 13.072a3.904 3.904.826 0 0 7.329.106l2.318-6.048 2.318 6.048a3.903 3.903 179.172 0 0 7.329-.106l4.582-13.072a2.443 2.443 64.315 0 0-1.497-3.113 2.34 2.34 151.765 0 0-2.917 1.566l-3.885 11.078-2.243-5.851a3.949 3.949.002 0 0-7.374 0z" style="baseline-shift:baseline;display:inline;overflow:visible;mix-blend-mode:normal;fill:none;stroke:#ff1800;stroke-width:.2;stroke-linecap:square;stroke-miterlimit:7.4;stroke-dasharray:none;stroke-opacity:1;filter:url(#i);enable-background:accumulate;stop-color:#000" transform="translate(76.727 5.158)"/></svg>