<svg xmlns="http://www.w3.org/2000/svg" xmlns:xlink="http://www.w3.org/1999/xlink" width="64" height="64"><defs><radialGradient xlink:href="#a" id="d" cx="41.578" cy="10.355" r="25.459" fx="41.578" fy="10.355" gradientTransform="rotate(-90 107.295 68.755)scale(2.64784)" gradientUnits="userSpaceOnUse"/><radialGradient xlink:href="#b" id="f" cx="63.983" cy="58.585" r="18.69" fx="63.983" fy="58.585" gradientTransform="matrix(0 -3.41757 3.41266 0 -135.946 282.742)" gradientUnits="userSpaceOnUse"/><radialGradient xlink:href="#c" id="g" cx="63.983" cy="58.694" r="19.136" fx="63.983" fy="58.694" gradientTransform="matrix(0 -3.33784 3.33305 0 -131.648 277.641)" gradientUnits="userSpaceOnUse"/><linearGradient id="c"><stop offset="0" style="stop-color:#ffead1;stop-opacity:1"/><stop offset="1" style="stop-color:#ffefe6;stop-opacity:1"/></linearGradient><linearGradient id="b"><stop offset="0" style="stop-color:#ffead1;stop-opacity:1"/><stop offset="1" style="stop-color:#ffefe6;stop-opacity:1"/></linearGradient><linearGradient id="a"><stop offset="0" style="stop-color:#f36416;stop-opacity:1"/><stop offset="1" style="stop-color:#f3af16;stop-opacity:1"/></linearGradient><filter id="e" width="1.171" height="1.171" x="-.085" y="-.085" style="color-interpolation-filters:sRGB"><feGaussianBlur stdDeviation="1.77"/></filter><filter id="h" width="1.147" height="1.124" x="-.074" y="-.062" style="color-interpolation-filters:sRGB"><feGaussianBlur stdDeviation="1.127"/></filter></defs><path d="M32 4.735A27.265 27.265 0 0 0 4.735 32 27.265 27.265 0 0 0 32 59.265 27.265 27.265 0 0 0 59.265 32 27.265 27.265 0 0 0 32 4.735" style="fill:url(#d);stroke-width:.973765"/><path d="M32 6.54A25.46 25.46 0 0 0 6.54 32 25.46 25.46 0 0 0 32 57.46 25.46 25.46 0 0 0 57.46 32 25.46 25.46 0 0 0 32 6.54Z" style="mix-blend-mode:normal;fill:none;stroke:#000;stroke-width:.2;stroke-dasharray:none;stroke-opacity:1;filter:url(#e)" transform="translate(-2.27 -2.27)scale(1.07095)"/><path d="M49.064 7.504q1.316 0 1.471 2.073l-1.108 6.508h.27l.581-.482h.155v.145q-1.2.916-2.322 5.014-.426 3.52-1.433 6.509-.89 3.085-.89 5.689l-1.123 3.423q0 .433 1.278.868-.232 1.012-.697 1.012v.193h.271v.145q0 .53-1.316.53l.155.193v.675h-.271q.27 1.012 1.161 1.012v.338h-1.161v.192q.58 0 .58.868l-1.625.675.154.193v.145q0 .337-.58.337v.193q.735 0 .735.338-1.045.434-2.748 4.29-1.742 3.424-3.02 3.424h-.31q-.967-.772-1.586-5.111-2.478-6.604-2.478-7.762c0-1.993-.529-3.759-1.587-6.009-.284-.996-.477-2.738-.58-4.249h-.697c-1.755 3.31-2.671 5.838-2.749 7.703q-.735 1.638-1.161 3.953 1.587.53 1.587 1.012v.193q-1.24-.193-1.742-.723c-.361.868-.839 2.745-1.432 6.698-.465 1.832-1.046 2.515-1.742 2.515-1.962-.804-3.6-1.888-4.917-3.72q-.309 0-1.006-2.748-.426 0-.58-2.749c-.981-2.603-1.652-5.042-2.014-8.385v-5.014h-.154l-.697.193v-.193q0-.337.697-.337l-.155-2.893v-2.266l-1.123-7.232v-2.73q.735-2.892 2.555-2.892l.465.482-.465-.145c1.884 2.572 2.994 4.385 3.33 6.153h1.315v.337H19.35v.386q.58 2.218.851 2.218h.31l.697-.193.155.193.155-.193.154.193v.144q-.774.58-1.045 1.591h-.116v.338h.271c.361 5.368 1.032 10.146 2.013 12.91l.58.532h.31c.387 0 1.2-2.108 2.44-5.869.8-1.703 1.38-2.95 1.741-4.236l-.155-.53c.8-1.254 1.626-1.825 2.478-1.825h.27c.543 0 .93.298 1.162 1.005.723 1.06 1.303 2.404 1.742 4.526l2.168 4.48q.426.53.426 1.205c.8 1.896 1.522 4.193 2.167 4.804h.465c.542 0 1.264-3.39 2.168-8.083q.232 0 1.277-3.76v-.193l-.736-.338-.581.193h-.735v-.385l1.47-.145h1.163q1.665-6.219 3.058-9.643.465-7.039 1.277-7.039z" style="fill:url(#f);stroke-width:0;stroke:url(#g);stroke-opacity:1;stroke-linejoin:round;stroke-linecap:round;stroke-dasharray:none"/><path d="M49.064 7.504q1.316 0 1.471 2.073l-1.108 6.508h.27l.581-.482h.155v.145q-1.2.916-2.322 5.014-.426 3.52-1.433 6.509-.89 3.085-.89 5.689l-1.123 3.423q0 .433 1.278.868-.232 1.012-.697 1.012v.193h.271v.145q0 .53-1.316.53l.155.193v.675h-.271q.27 1.012 1.161 1.012v.338h-1.161v.192q.58 0 .58.868l-1.625.675.154.193v.145q0 .337-.58.337v.193q.735 0 .735.338-1.045.434-2.748 4.29-1.742 3.424-3.02 3.424h-.31q-.967-.772-1.586-5.111-2.478-6.604-2.478-7.762c0-1.993-.529-3.759-1.587-6.009-.284-.996-.477-2.738-.58-4.249h-.697c-1.755 3.31-2.671 5.838-2.749 7.703q-.735 1.638-1.161 3.953 1.587.53 1.587 1.012v.193q-1.24-.193-1.742-.723c-.361.868-.839 2.745-1.432 6.698-.465 1.832-1.046 2.515-1.742 2.515-1.962-.804-3.6-1.888-4.917-3.72q-.309 0-1.006-2.748-.426 0-.58-2.749c-.981-2.603-1.652-5.042-2.014-8.385v-5.014h-.154l-.697.193v-.193q0-.337.697-.337l-.155-2.893v-2.266l-1.123-7.232v-2.73q.735-2.892 2.555-2.892l.465.482-.465-.145c1.884 2.572 2.994 4.385 3.33 6.153h1.315v.337H19.35v.386q.58 2.218.851 2.218h.31l.697-.193.155.193.155-.193.154.193v.144q-.774.58-1.045 1.591h-.116v.338h.271c.361 5.368 1.032 10.146 2.013 12.91l.58.532h.31c.387 0 1.2-2.108 2.44-5.869.8-1.703 1.38-2.95 1.741-4.236l-.155-.53c.8-1.254 1.626-1.825 2.478-1.825h.27c.543 0 .93.298 1.162 1.005.723 1.06 1.303 2.404 1.742 4.526l2.168 4.48q.426.53.426 1.205c.8 1.896 1.522 4.193 2.167 4.804h.465c.542 0 1.264-3.39 2.168-8.083q.232 0 1.277-3.76v-.193l-.736-.338-.581.193h-.735v-.385l1.47-.145h1.163q1.665-6.219 3.058-9.643.465-7.039 1.277-7.039z" style="fill:none;stroke:#ff6400;stroke-width:.1;stroke-linecap:round;stroke-linejoin:round;stroke-dasharray:none;stroke-opacity:1;filter:url(#h)"/></svg>