<svg xmlns="http://www.w3.org/2000/svg" width="64" height="64"><circle cx="32" cy="33" r="28" style="opacity:.2"/><circle cx="32" cy="32" r="28" style="fill:#3f3f3f"/><path d="M15.906 17a2 2 0 0 0-.758.192 2 2 0 0 0-.957 2.66l16 34a2 2 0 0 0 3.618 0l16-34a2 2 0 0 0-.957-2.66 2 2 0 0 0-2.66.957l-6.047 12.852h-16.29L17.81 18.149a2 2 0 0 0-1.735-1.148 2 2 0 0 0-.168 0" style="opacity:.2"/><path d="m16 18 16 34 16-34" style="fill:none;stroke:#fff;stroke-width:4;stroke-linecap:round;stroke-linejoin:round"/><path d="M21.667 30h20.62L32 50.9Z" style="fill:#fff"/><path d="M32 4A28 28 0 0 0 4 32a28 28 0 0 0 .006.49A28 28 0 0 1 32 5a28 28 0 0 1 27.994 27.488A28 28 0 0 0 60 32 28 28 0 0 0 32 4" style="opacity:.1;fill:#fff"/></svg>