<svg xmlns="http://www.w3.org/2000/svg" width="64" height="64"><path d="M16.656 5A12.625 12.625 0 0 0 4 17.656v30.688c0 2.45.7 4.725 1.898 6.656h-.003l.03.043q.345.551.743 1.062c.082.106.173.203.258.305.147.178.289.358.445.528h.016c.02.022.045.04.066.062h-.012c.31.33.638.638.98.934.165.142.341.268.513.402.203.158.407.315.62.46.095.065.178.142.274.204h.043c1.958 1.255 4.275 2 6.785 2h30.688c2.51 0 4.827-.745 6.785-2h.043c.096-.062.18-.139.273-.203.214-.146.418-.303.621-.461.171-.134.348-.26.512-.402.343-.296.67-.604.98-.934h-.011c.02-.022.046-.04.066-.062h.016c.156-.17.298-.35.445-.528.085-.102.176-.2.258-.305q.397-.51.742-1.062l.031-.043h-.004A12.56 12.56 0 0 0 60 48.344V17.656A12.625 12.625 0 0 0 47.344 5Z" style="opacity:.2"/><path d="M16.656 4A12.625 12.625 0 0 0 4 16.656v30.688c0 2.45.7 4.725 1.898 6.656h-.003l.03.043q.345.551.743 1.062c.082.106.173.203.258.305.147.178.289.358.445.528h.016A12.6 12.6 0 0 0 9.828 58h44.344a12.6 12.6 0 0 0 2.441-2.062h.016c.156-.17.298-.35.445-.528.085-.102.176-.2.258-.305q.397-.51.742-1.062l.031-.043h-.004A12.56 12.56 0 0 0 60 47.344V16.656A12.625 12.625 0 0 0 47.344 4Z" style="fill:#515e6f"/><g style="opacity:.2"><path d="M34.668 21a8.67 8.67 0 0 0-6.898 3.438 6.7 6.7 0 0 0-3.102-.77A6.667 6.667 0 0 0 18 30.332a6.7 6.7 0 0 0 .148 1.367A4.667 4.667 0 0 0 14 36.332 4.667 4.667 0 0 0 18.668 41a4.7 4.7 0 0 0 1.781-.36A6.5 6.5 0 0 1 20 38.333c0-2.605 1.574-4.77 3.793-5.836a6 6 0 0 1 2.047-.676 8.85 8.85 0 0 1 3.566-5.261C30.691 25.596 32.26 25 34 25h.004c.053 0 .104.01.156.012.039 0 .075-.012.114-.012 2.462.003 4.62 1.213 6.265 2.965.477-.153.955-.296 1.457-.297H42c.1 0 .192.022.29.027.053-.003.104-.027.16-.027h.003c.223 0 .435.039.653.059A8.67 8.67 0 0 0 34.668 21"/><path d="M34.273 27a6.818 6.667 0 0 0-6.818 6.667 6.818 6.667 0 0 0 .002.054 4.773 4.667 0 0 0-.684-.054A4.773 4.667 0 0 0 22 38.333 4.773 4.667 0 0 0 26.773 43h21.136A4.09 4 0 0 0 52 39a4.09 4 0 0 0-4.09-4 5.455 5.333 0 0 0-5.455-5.333 5.455 5.333 0 0 0-2.366.534A6.818 6.667 0 0 0 34.273 27"/></g><path d="M16.334 11a4.33 4.33 0 0 0-3.45 1.719 3.3 3.3 0 0 0-1.55-.385A3.333 3.333 0 0 0 8 15.666a3.3 3.3 0 0 0 .074.684A2.333 2.333 0 0 0 6 18.666 2.333 2.333 0 0 0 8.334 21a2.3 2.3 0 0 0 .89-.18A3.2 3.2 0 0 1 9 19.666c0-1.302.787-2.385 1.896-2.918.313-.17.658-.285 1.024-.338.25-1.085.9-2.014 1.783-2.63A3.8 3.8 0 0 1 16 13h.002c.027 0 .052.005.078.006.02 0 .037-.006.057-.006 1.231.001 2.31.606 3.133 1.482.238-.076.477-.147.728-.148H20c.05 0 .096.011.145.014.027-.002.052-.014.08-.014h.002c.111 0 .217.02.326.03A4.33 4.33 0 0 0 16.334 11" style="fill:#fff" transform="matrix(2 0 0 2 2 -2)"/><path d="M16.136 14a3.41 3.333 0 0 0-3.409 3.333 3.41 3.333 0 0 0 .002.028 2.386 2.333 0 0 0-.343-.028A2.386 2.333 0 0 0 10 19.667 2.386 2.333 0 0 0 12.386 22h10.569A2.045 2 0 0 0 25 20a2.045 2 0 0 0-2.045-2 2.727 2.667 0 0 0-2.728-2.667 2.727 2.667 0 0 0-1.182.267 3.41 3.333 0 0 0-2.909-1.6" style="fill:#fff" transform="matrix(2 0 0 2 2 -2)"/><path d="M18 56v4h14v-4z" style="fill:#2bb563"/><path d="M7.441 56c2.305 2.455 5.565 4 9.215 4H18v-4z" style="fill:#5057eb"/><path d="M46 56v4h1.344c3.65 0 6.91-1.545 9.215-4z" style="fill:#ffb73f"/><path d="M32 56v4h14v-4z" style="fill:#e8475b"/><path d="M16.656 4A12.625 12.625 0 0 0 4 16.656v1A12.625 12.625 0 0 1 16.656 5h30.688A12.625 12.625 0 0 1 60 17.656v-1A12.625 12.625 0 0 0 47.344 4z" style="opacity:.1;fill:#fff"/><path d="M7.441 56a12 12 0 0 0 1.067 1h46.984a12 12 0 0 0 1.067-1z" style="opacity:.2;fill:#fff"/></svg>