<svg xmlns="http://www.w3.org/2000/svg" width="64" height="64"><path d="M31.998 3c-1.571 0-3.143.585-4.318 1.76L3.76 28.684c-2.35 2.35-2.346 6.28.004 8.63l9.83 9.83-2.203 2.39a1.43 1.43 0 0 0-.42 1.009v7.143a1.43 1.43 0 0 0 2.185 1.21l7.438-4.75 7.09 7.09c2.349 2.35 6.285 2.353 8.634.004l23.92-23.924c2.35-2.349 2.35-6.282 0-8.632l-9.797-9.8 2.168-2.216c.268-.268.418-.633.418-1.012V8.514a1.427 1.427 0 0 0-2.19-1.207l-7.294 4.68-7.225-7.227C35.143 3.585 33.57 3 31.998 3" style="opacity:.2"/><path d="M31.999 2c-1.571 0-3.144.586-4.319 1.76L3.76 27.684c-2.349 2.349-2.346 6.281.004 8.631l23.92 23.922c2.349 2.35 6.285 2.353 8.634.004l23.92-23.923c2.349-2.349 2.349-6.284 0-8.634L36.318 3.761C35.143 2.586 33.571 2 31.999 2" style="fill:#347f85"/><path d="M44.152 11.596 12.666 31.793A1.43 1.43 0 0 0 12 33v5.715c0 .86.754 1.525 1.607 1.418l7.297-.914-6.832 7.406 7.133 7.133 26.137-16.69c.418-.26.671-.718.672-1.21v-5.715c0-.542-.305-1.036-.79-1.278L43 26.5l7.936-8.12z" style="opacity:.2"/><path d="M32 2c-1.571 0-3.146.585-4.32 1.76L3.76 27.684c-1.3 1.299-1.876 3.082-1.737 4.814a6.04 6.04 0 0 1 1.737-3.814L27.68 4.76C28.854 3.585 30.429 3 32 3s3.144.585 4.318 1.76l23.92 23.924a6.05 6.05 0 0 1 1.739 3.816c.138-1.733-.439-3.517-1.739-4.816L36.318 3.76C35.144 2.585 33.572 2 32 2" style="opacity:.1;fill:#fff"/><path d="M51.558 6.085a1.43 1.43 0 0 0-.72.22L12.667 30.793A1.43 1.43 0 0 0 12 32v5.714c0 .86.754 1.525 1.607 1.418l7.296-.913-9.513 10.314a1.43 1.43 0 0 0-.418 1.01v7.143a1.429 1.429 0 0 0 2.184 1.21l34.185-21.828c.418-.26.672-.718.673-1.21v-5.715a1.43 1.43 0 0 0-.79-1.278L43 25.5l9.61-9.833c.268-.268.418-.631.418-1.01V7.514a1.43 1.43 0 0 0-1.47-1.429" style="fill:#fdd04b"/><path d="m38 23 5 2.5 9.61-9.833c.268-.268.418-.631.418-1.01V8.942S41.21 19.797 38 23m9.464 5.032L10.972 49.543v7.143a1.429 1.429 0 0 0 2.184 1.21l34.185-21.828c.418-.26.672-.718.673-1.21v-5.715c0-.442-.212-.843-.55-1.11m-19.75 2.54L12 32v5.714c0 .86.754 1.525 1.607 1.418l7.288-.913z" style="opacity:.1;fill:maroon"/><path d="M51.559 6.086a1.43 1.43 0 0 0-.721.22L12.666 30.792A1.43 1.43 0 0 0 12 32v1c0-.49.251-.945.666-1.207L50.838 7.307a1.427 1.427 0 0 1 2.19 1.207v-1c0-.806-.664-1.452-1.47-1.428M43.63 25.854 43 26.5l4.225 2.365c.484.242.789.736.789 1.278v-1c0-.542-.305-1.036-.79-1.278zM20.904 39.219l-1.043.13-8.47 9.184a1.43 1.43 0 0 0-.42 1.01v1c0-.379.152-.742.42-1.01z" style="opacity:.2;fill:#fff"/></svg>