<svg xmlns="http://www.w3.org/2000/svg" width="64" height="64"><rect width="52" height="52" x="-58" y="-58" rx="2.6" ry="2.6" style="fill:#97417c" transform="rotate(90)scale(-1 1)"/><path d="m15.012 20 8 28 10-20 10 20 8-28" style="opacity:.2;fill:none;stroke:#000;stroke-width:5.99995375;stroke-linecap:round;stroke-linejoin:round"/><path d="m15.012 19 8 28 10-20 10 20 8-28" style="fill:none;stroke:#fff;stroke-width:5.99995375;stroke-linecap:round;stroke-linejoin:round"/><path d="M8.602 6A2.596 2.596 0 0 0 6 8.6v1C6 8.16 7.161 7 8.602 7h46.796C56.838 7 58 8.16 58 9.6v-1C58 7.16 56.838 6 55.398 6z" style="opacity:.2;fill:#fff"/><path d="M6 55.4v1C6 57.839 7.161 59 8.602 59h46.796A2.597 2.597 0 0 0 58 56.4v-1c0 1.44-1.162 2.6-2.602 2.6H8.602A2.597 2.597 0 0 1 6 55.4" style="opacity:.2"/></svg>