<svg xmlns="http://www.w3.org/2000/svg" xmlns:xlink="http://www.w3.org/1999/xlink" width="64" height="64"><defs><filter id="c" width="1.171" height="1.223" x="-.085" y="-.112" style="color-interpolation-filters:sRGB"><feGaussianBlur stdDeviation="1.894"/></filter><filter id="d" width="1.17" height="1.425" x="-.085" y="-.213" style="color-interpolation-filters:sRGB"><feGaussianBlur stdDeviation=".926"/></filter><radialGradient xlink:href="#a" id="b" cx="14.5" cy="36.987" r="27.28" fx="14.5" fy="36.987" gradientTransform="rotate(-15 -202.665 152.914)scale(2.69396 2.08539)" gradientUnits="userSpaceOnUse"/><linearGradient id="a"><stop offset="0" style="stop-color:#00d3ff;stop-opacity:1"/><stop offset="1" style="stop-color:#0089ff;stop-opacity:1"/></linearGradient></defs><path d="M50.562 35.128a18.583 10.367 0 0 1-18.584 10.367 18.583 10.367 0 0 1-18.583-10.367A18.583 10.367 0 0 1 31.978 24.76a18.583 10.367 0 0 1 18.584 10.368" style="fill:#fff;stroke-width:.8;stroke-linecap:round;stroke-linejoin:round"/><path d="M23.3 11.115a42 42 0 0 0-7.716 2.28c-1.37.55-3.118 2.063-3.876 3.331-5.407 9.055-7.23 17.927-6.848 26.684.064 1.474 1.137 3.387 2.364 4.204a44.5 44.5 0 0 0 10.106 5.032c.834.292 1.944-.076 2.43-.814q.568-.861 1.083-1.76c.56-.975.09-2.093-.874-2.672-1.543-.927-2.133-1.906-1.678-2.29 8.977 4.198 18.731 4.198 27.602 0 .456.38-.13 1.364-1.688 2.297-.964.578-1.434 1.696-.874 2.67q.516.9 1.083 1.76c.486.739 1.597 1.104 2.432.813a44.4 44.4 0 0 0 10.114-5.035c1.227-.817 2.3-2.731 2.365-4.204.431-9.932-2.076-18.748-6.861-26.7-.762-1.264-2.517-2.771-3.89-3.316a44.4 44.4 0 0 0-7.703-2.273c-.605-.12-1.351.247-1.831.628-1.377 1.092-4.047 1.708-6.946 1.688-2.9.014-5.577-.598-6.96-1.69-.48-.38-1.229-.75-1.834-.633m-.27 17.432c2.741 0 4.95 2.514 4.904 5.582.004 3.064-2.163 5.58-4.905 5.58-2.695 0-4.906-2.516-4.906-5.58s2.164-5.582 4.906-5.582m18.124 0c2.742 0 4.954 2.514 4.907 5.582 0 3.064-2.165 5.58-4.907 5.58-2.695 0-4.904-2.516-4.904-5.58s2.162-5.582 4.904-5.582" style="fill:url(#b);stroke-width:.213123"/><path d="M23.3 11.115a42 42 0 0 0-7.716 2.28c-1.37.55-3.118 2.063-3.876 3.331-5.407 9.055-7.23 17.927-6.848 26.684.064 1.474 1.137 3.387 2.364 4.204a44.5 44.5 0 0 0 10.106 5.032c.834.292 1.944-.076 2.43-.814q.568-.861 1.083-1.76c.56-.975.09-2.093-.874-2.672-1.543-.927-2.133-1.906-1.678-2.29 8.977 4.198 18.731 4.198 27.602 0 .456.38-.13 1.364-1.688 2.297-.964.578-1.434 1.696-.874 2.67q.516.9 1.083 1.76c.486.739 1.597 1.104 2.432.813a44.4 44.4 0 0 0 10.114-5.035c1.227-.817 2.3-2.731 2.365-4.204.431-9.932-2.076-18.748-6.861-26.7-.762-1.264-2.517-2.771-3.89-3.316a44.4 44.4 0 0 0-7.703-2.273c-.605-.12-1.351.247-1.831.628-1.377 1.092-4.047 1.708-6.946 1.688-2.9.014-5.577-.598-6.96-1.69-.48-.38-1.229-.75-1.834-.633z" style="fill:none;stroke:#000;stroke-width:.213123;stroke-opacity:1;filter:url(#c)" transform="translate(-.092 .078)"/><path d="M23.031 39.77c-2.695 0-4.905-2.515-4.905-5.58 0-3.063 2.163-5.583 4.905-5.583s4.952 2.516 4.905 5.584c.005 3.064-2.163 5.58-4.905 5.58zm18.127 0c-2.695 0-4.905-2.515-4.905-5.58 0-3.063 2.163-5.583 4.905-5.583s4.952 2.516 4.905 5.584c0 3.064-2.163 5.58-4.905 5.58z" style="mix-blend-mode:normal;fill:none;fill-rule:nonzero;stroke:#6500ff;stroke-width:.3;stroke-dasharray:none;stroke-opacity:1;filter:url(#d)"/></svg>