<svg xmlns="http://www.w3.org/2000/svg" width="64" height="64"><circle cx="32" cy="33" r="28" style="opacity:.2"/><circle cx="32" cy="32" r="28" style="fill:#3f51b5"/><path d="M35.865 48.457c1.256-.744 1.285-1.905.101-2.714-.748-.513-1.285-.669-2.65-.77l-1.712-.125-.387-1.047c-.218-.592-.392-1.165-.399-2.043-.011-1.452.03-1.585.633-2.03 1.556-1.145 3.28-1.085 3.71.19.185.548.384.702.98.761l.748.075.066 1.851c.045 1.245.143 1.486.645 1.826.499.338.621.346.896.061.176-.18.38-.715.454-1.187.107-.684.018-1.45-.443-2.146-.561-.845-.863-2.657-.87-3.26-.002-.164.95-.777 2.113-1.363 2.64-1.33 3.42-2.84 4.506-5.076.685-1.41.784-2.13.772-3.577-.009-1.184-.158-2.008-.522-2.882l-.51-1.225.5-.55c.707-.78 1.845-1.115 3.918-1.156 2.69-.053 2.585-.021 2.585-.786 0-.613-.124-.73-1.245-1.163-.684-.265-1.33-.482-1.432-.482-.103 0-.958-.52-1.898-1.155-.941-.635-2.27-1.022-2.952-1.227-1.135-.341-1.347-.342-2.465-.005-1.316.396-2.125 1.105-3.548 3.111-.95 1.34-1.705 1.667-3.846 1.669-1.502.001-4.31.886-5.61 1.766-.466.316-1.175.639-1.574.717-.94.184-1.494.473-2.187 1.139-.309.297-1.118.798-1.798 1.113-1.311.607-3.077 2.315-3.682 3.561-.197.406-.567 1.314-.822 2.018-.46 1.272-2.063 3.5-3.955 5.494-.883.93-.985 1.153-.985 2.137 0 .604.088 1.155.195 1.223.214.137 1.796-.882 3.478-2.24.598-.484 1.65-1.048 2.338-1.255 1.63-.49 2.553-.217 4.67 1.382 1.458 1.103 1.286 1.2 2.795 1.332 1.09.096 1.773.279 2.069.556.547.512.99 2.606.787 3.722-.241 1.328.512 2.229 2.812 3.367 1.052.52 2.117.941 2.367.936.25-.006.86-.25 1.354-.543" style="opacity:.2"/><path d="M35.865 47.457c1.256-.744 1.285-1.905.101-2.714-.748-.513-1.285-.669-2.65-.77l-1.712-.125-.387-1.047c-.218-.592-.392-1.165-.399-2.043-.011-1.452.03-1.585.633-2.03 1.556-1.145 3.28-1.085 3.71.19.185.548.384.702.98.761l.748.075.066 1.851c.045 1.245.143 1.486.645 1.826.499.338.621.346.896.061.176-.18.38-.715.454-1.187.107-.684.018-1.45-.443-2.146-.561-.845-.863-2.657-.87-3.26-.002-.164.95-.777 2.113-1.363 2.64-1.33 3.42-2.84 4.506-5.076.685-1.41.784-2.13.772-3.577-.009-1.184-.158-2.008-.522-2.882l-.51-1.225.5-.55c.707-.78 1.845-1.115 3.918-1.156 2.69-.053 2.585-.021 2.585-.786 0-.613-.124-.73-1.245-1.163-.684-.265-1.33-.482-1.432-.482-.103 0-.958-.52-1.898-1.154-.941-.636-2.27-1.023-2.952-1.228-1.135-.341-1.347-.342-2.465-.005-1.316.396-2.125 1.105-3.548 3.111-.95 1.34-1.705 1.667-3.846 1.669-1.502.001-4.31.886-5.61 1.766-.466.316-1.175.639-1.574.717-.94.184-1.494.473-2.187 1.139-.309.297-1.118.798-1.798 1.113-1.311.607-3.077 2.315-3.682 3.561-.197.406-.567 1.314-.822 2.018-.46 1.272-2.063 3.5-3.955 5.494-.883.93-.985 1.153-.985 2.137 0 .604.088 1.155.195 1.223.214.137 1.796-.882 3.478-2.24.598-.484 1.65-1.048 2.338-1.255 1.63-.49 2.553-.217 4.67 1.382 1.458 1.103 1.286 1.2 2.795 1.332 1.09.096 1.773.279 2.069.556.547.512.99 2.606.787 3.722-.241 1.328.512 2.229 2.812 3.367 1.052.52 2.117.941 2.367.936.25-.006.86-.25 1.354-.543" style="fill:#fff"/><path d="M32 4A28 28 0 0 0 4 32a28 28 0 0 0 .033.482A28 28 0 0 1 32 5a28 28 0 0 1 27.982 27.242L60 32A28 28 0 0 0 32 4" style="opacity:.1;fill:#fff"/></svg>