<svg xmlns="http://www.w3.org/2000/svg" width="64" height="64"><path d="M7 33a25.9 25.9 0 0 0 7.613 18.383A25.93 25.93 0 0 0 33 59c14.36 0 26-11.64 26-26H33Z" style="opacity:.2"/><path d="M7.355 32.324c.082 6.462 2.56 12.898 7.49 17.83A25.6 25.6 0 0 0 33 57.673c14.072 0 25.463-11.32 25.642-25.35H33Z" style="fill:#a78f66"/><path d="M33 58c14.36 0 26-11.641 26-26H33Z" style="fill:#f44336"/><path d="M33 32 14.615 50.383A25.92 25.92 0 0 0 33 58Z" style="fill:#ffc107"/><path d="M33 32H7a25.92 25.92 0 0 0 7.615 18.385z" style="fill:#03a9f4"/><path d="M7 30.069v1.93h4v-5.108Zm7-5.403v7.333h5V19.58Zm8-7.103V32h5V17.563Zm8 5.81V32h5v-8.626Zm8 1.168V32h5v-7.458zm8-4.608V32h5V15.172Zm8-8.734V32h5V11.2z" style="fill:#1e7b53"/><path d="M11 24.666v7.333h3v-7.333zm8-6.443v13.776h3V18.223Zm8 1.608v12.168h3V19.831Zm8 6.968V32h3v-5.2zm8-6.866V32h3V19.933zm8-8.734V32h3V11.2z" style="fill:#fff"/><path d="M7 32q0 .5.021 1h51.956q.023-.498.023-1z" style="opacity:.2"/><path d="M58.29 7a2.6 2.6 0 0 0-.602.09l-8.739 2.344a2.633 2.633 0 0 0-1.18 4.403l.82.82-10.784 9.516-12.063-8.614a3 3 0 0 0-3.734.2l-18 16a3 3 0 0 0-.25 4.234 3 3 0 0 0 4.234.25l16.211-14.41 12.055 8.61a3 3 0 0 0 3.726-.192L52.84 18.907l1.324 1.324a2.633 2.633 0 0 0 4.406-1.18l2.34-8.738a2.633 2.633 0 0 0-2.62-3.312" style="opacity:.2"/><path d="m6 33 18-16 14 10 17-15" style="fill:none;stroke:#4caf50;stroke-width:6;stroke-linecap:round;stroke-linejoin:round"/><path d="m57.686 6.09-8.735 2.342a2.633 2.633 0 0 0-1.18 4.404l6.395 6.394a2.633 2.633 0 0 0 4.405-1.18l2.34-8.736a2.633 2.633 0 0 0-3.225-3.224" style="fill:#4caf50"/><path d="M58.291 6.002a2.6 2.6 0 0 0-.605.088L48.95 8.432a2.633 2.633 0 0 0-1.847 3.033 2.63 2.63 0 0 1 1.847-2.033l8.735-2.342a2.6 2.6 0 0 1 .605-.088 2.63 2.63 0 0 1 2.65 2.133 2.633 2.633 0 0 0-2.65-3.133m-34.45 8.002a3 3 0 0 0-1.833.754l-18 16a3 3 0 0 0-.912 2.719 3 3 0 0 1 .912-1.72l18-16a3 3 0 0 1 3.736-.198l12.059 8.613 10.787-9.518-.531-.531-10.256 9.049-12.059-8.613a3 3 0 0 0-1.902-.555" style="fill:#fff;opacity:.2"/></svg>