<svg xmlns="http://www.w3.org/2000/svg" xmlns:xlink="http://www.w3.org/1999/xlink" width="64" height="64"><defs><radialGradient xlink:href="#a" id="b" cx="31.966" cy="59.983" r="27.825" fx="31.966" fy="59.983" gradientTransform="rotate(-45 -2.927 82.006)scale(1.4044 1.39273)" gradientUnits="userSpaceOnUse"/><linearGradient id="a"><stop offset="0" style="stop-color:#00a7ff;stop-opacity:1"/><stop offset="1" style="stop-color:#00ecff;stop-opacity:1"/></linearGradient><filter id="c" width="1.338" height="1.469" x="-.169" y="-.234" style="color-interpolation-filters:sRGB"><feGaussianBlur stdDeviation="3.857"/></filter></defs><path d="M32.13 14.822c-9.065 0-17.225 3.22-23.993 8.216L32.13 49.18l23.808-26.235c-6.741-4.94-14.812-8.123-23.808-8.123" style="fill:url(#b);fill-opacity:1;stroke-width:.858953"/><path d="M32.032 21.691a32.3 32.3 0 0 0-19.306 6.368l19.407 21.126L51.34 28.06a32.38 32.38 0 0 0-19.315-6.369Z" style="opacity:.2;fill:#004eff;fill-opacity:1;stroke-width:1.14558"/><path d="M32.032 28.565a24.23 24.23 0 0 0-14.48 4.776l14.556 15.844 14.405-15.844a24.23 24.23 0 0 0-14.48-4.776" style="opacity:.2;fill:#00f;fill-opacity:1;stroke-width:1.14558"/><g style="mix-blend-mode:normal;stroke:#000;stroke-width:.2;stroke-dasharray:none;stroke-opacity:1;filter:url(#c)" transform="translate(40.866 -13.278)scale(.85895)"><path d="M-10.215 32.686c-10.553 0-20.052 3.75-27.931 9.566l5.355 5.836a37.6 37.6 0 0 1 22.463-7.404l-.01-.002a37.7 37.7 0 0 1 22.455 7.394l5.385-5.935C9.654 36.39.259 32.686-10.215 32.686Z" style="baseline-shift:baseline;display:inline;overflow:visible;fill:none;stroke:#000;stroke-width:.2;stroke-dasharray:none;stroke-opacity:1;enable-background:accumulate;stop-color:#000;stop-opacity:1"/><path d="m-10.338 40.682.01.002a37.6 37.6 0 0 0-22.477 7.414l5.637 6.136a28.2 28.2 0 0 1 16.84-5.548 28.2 28.2 0 0 1 16.857 5.56l-16.756 18.43.016.015 22.36-24.593a37.7 37.7 0 0 0-22.487-7.416z" style="baseline-shift:baseline;display:inline;overflow:visible;fill:none;stroke:#000;stroke-width:.2;stroke-dasharray:none;stroke-opacity:1;enable-background:accumulate;stop-color:#000;stop-opacity:1"/><path d="M-10.328 48.686a28.2 28.2 0 0 0-16.858 5.56l16.946 18.445L6.53 54.246a28.2 28.2 0 0 0-16.858-5.56Z" style="baseline-shift:baseline;display:inline;overflow:visible;fill:none;stroke:#000;stroke-width:.2;stroke-dasharray:none;stroke-opacity:1;enable-background:accumulate;stop-color:#000;stop-opacity:1"/></g></svg>