<svg xmlns="http://www.w3.org/2000/svg" width="64" height="64"><path d="M60.275 51H3.725c-.4 0-.725.336-.725.75V55c0 2.21 1.731 4 3.867 4h50.266C59.27 59 61 57.21 61 55v-3.25a.74.74 0 0 0-.725-.75" style="opacity:.2"/><path d="M55.143 20C57.273 20 59 21.705 59 23.809v28.19H5V23.81C5 21.705 6.727 20 8.857 20Z" style="fill:#95a4b3"/><path d="M8.855 20C6.725 20 5 21.705 5 23.809v1C5 22.705 6.725 21 8.855 21h46.29C57.275 21 59 22.705 59 24.809v-1C59 21.705 57.275 20 55.145 20z" style="opacity:.2;fill:#fff"/><path d="M55 52V25.892C55 24.847 54.142 24 53.083 24H10.917C9.858 24 9 24.847 9 25.892V52Z" style="fill:#1e81e9"/><circle cx="32" cy="26" r="19" style="opacity:.2"/><path d="M60.275 50H3.725c-.4 0-.725.336-.725.75V54c0 2.21 1.731 4 3.867 4h50.266C59.27 58 61 56.21 61 54v-3.25a.74.74 0 0 0-.725-.75" style="fill:#adc1ce"/><path d="M52.476 54h-6.952C44.132 54 43 55.063 43 56.37V58h1.333v-1.63c0-.493.667-1.037 1.191-1.037h6.952c.524 0 1.19.544 1.19 1.036V58H55v-1.63c0-1.307-1.132-2.37-2.524-2.37m-15.221-4-.571 1.847c-.123.398-.564.82-1.072.82h-7.221c-.508 0-.949-.422-1.072-.82L26.747 50H25l.686 2.205C26.013 53.262 27.183 54 28.53 54h6.941c1.348 0 2.518-.738 2.845-1.795L39 50Z" style="fill:#6a91ac"/><path d="M7.7 55c-.387 0-.7.419-.7.935V58h1.4v-2.065c0-.516-.313-.935-.7-.935" style="fill:#35495e"/><circle cx="32" cy="25" r="19" style="fill:#1cd678"/><path d="M32 15.01a19.64 19.64 0 0 0-14.723 6.616 1.09 1.09 0 0 0 .07 1.524l1.594 1.5a1.1 1.1 0 0 0 1.579-.086A15.28 15.28 0 0 1 32 19.384c4.572 0 8.674 2.004 11.48 5.18a1.1 1.1 0 0 0 1.579.086l1.593-1.5c.433-.406.465-1.08.07-1.524A19.64 19.64 0 0 0 32 15.01m0 8.019a10.9 10.9 0 0 0-8.344 3.867 1.1 1.1 0 0 0 .082 1.512l1.598 1.5a1.094 1.094 0 0 0 1.598-.114A6.55 6.55 0 0 1 32 27.404a6.55 6.55 0 0 1 5.066 2.39c.406.492 1.133.55 1.598.114l1.602-1.5a1.1 1.1 0 0 0 .078-1.512A10.9 10.9 0 0 0 32 23.029M32.035 31a3 3 0 0 0-3.023 2.75 3 3 0 0 0 2.738 3.239 3 3 0 0 0 3.238-2.739 3 3 0 0 0-2.738-3.238 3 3 0 0 0-.215-.012" style="opacity:.2"/><circle cx="-30.231" cy="34.627" r="3" style="fill:#f5f5f5" transform="rotate(-85.241)"/><path d="M18.942 23.647a1.1 1.1 0 0 0 1.577-.084A15.28 15.28 0 0 1 32 18.383c4.572 0 8.675 2.004 11.481 5.18a1.1 1.1 0 0 0 1.577.084l1.596-1.497a1.095 1.095 0 0 0 .07-1.526A19.64 19.64 0 0 0 32 14.007a19.64 19.64 0 0 0-14.724 6.617 1.095 1.095 0 0 0 .07 1.526z" style="fill:#f5f5f5"/><path d="M25.335 28.906a1.1 1.1 0 0 0 1.6-.113A6.55 6.55 0 0 1 32 26.403c2.04 0 3.861.93 5.065 2.39a1.097 1.097 0 0 0 1.6.113l1.599-1.498a1.1 1.1 0 0 0 .081-1.513A10.91 10.91 0 0 0 32 22.026a10.91 10.91 0 0 0-8.345 3.87 1.1 1.1 0 0 0 .082 1.512z" style="fill:#f5f5f5"/><path d="M10.7 55c-.387 0-.7.419-.7.935V58h1.4v-2.065c0-.516-.313-.935-.7-.935m3 0c-.387 0-.7.419-.7.935V58h1.4v-2.065c0-.516-.313-.935-.7-.935" style="fill:#35495e"/><path d="M32 6a19 19 0 0 0-19 19 19 19 0 0 0 .018.512A19 19 0 0 1 32 7a19 19 0 0 1 18.977 18.518A19 19 0 0 0 51 25 19 19 0 0 0 32 6M3.727 50a.74.74 0 0 0-.727.75v1a.74.74 0 0 1 .727-.75h56.546c.4 0 .727.336.727.75v-1a.74.74 0 0 0-.727-.75z" style="opacity:.2;fill:#fff"/></svg>