<svg xmlns="http://www.w3.org/2000/svg" width="64" height="64"><circle cx="32" cy="33" r="28" style="opacity:.2"/><circle cx="32" cy="32" r="28" style="fill:#248afd"/><path d="M32 4A28 28 0 0 0 4 32a28 28 0 0 0 .021.586A28 28 0 0 1 32 5a28 28 0 0 1 27.979 27.414L60 32A28 28 0 0 0 32 4" style="opacity:.2;fill:#fff"/><path d="M26 17s-2 6 7 15 17 7 17 7-10 6-20-4-4-18-4-18m-8 2s-2 10 8 20 22 8 22 8-16 6-26-4-4-24-4-24" style="opacity:.2"/><path d="M26 16s-2 6 7 15 17 7 17 7-10 6-20-4-4-18-4-18m-8 2s-2 10 8 20 22 8 22 8-16 6-26-4-4-24-4-24" style="fill:#fff"/></svg>