<svg xmlns="http://www.w3.org/2000/svg" xmlns:xlink="http://www.w3.org/1999/xlink" width="64" height="64"><defs><filter id="g" width="1.466" height="1.464" x="-.233" y="-.232" style="color-interpolation-filters:sRGB"><feGaussianBlur stdDeviation=".932"/></filter><filter id="f" width="1.266" height="1.266" x="-.133" y="-.133" style="color-interpolation-filters:sRGB"><feGaussianBlur stdDeviation=".932"/></filter><filter id="d" width="1.296" height="1.294" x="-.148" y="-.147" style="color-interpolation-filters:sRGB"><feGaussianBlur stdDeviation="2.386"/></filter><radialGradient xlink:href="#a" id="e" cx="45.875" cy="58.844" r="8.889" fx="45.875" fy="58.844" gradientTransform="translate(-46.56 -56.73)scale(1.99368)" gradientUnits="userSpaceOnUse"/><radialGradient xlink:href="#b" id="c" cx="24.06" cy="25.245" r="19.625" fx="24.06" fy="25.245" gradientTransform="rotate(60 109.485 -4.873)scale(3.4501 3.47036)" gradientUnits="userSpaceOnUse"/><linearGradient id="a"><stop offset="0" style="stop-color:#faa457;stop-opacity:1"/><stop offset="1" style="stop-color:#fa6257;stop-opacity:1"/></linearGradient><linearGradient id="b"><stop offset="0" style="stop-color:#00dfff;stop-opacity:1"/><stop offset="1" style="stop-color:#0097ff;stop-opacity:1"/></linearGradient></defs><path d="M12.51 14.916v13.05a2.69 2.69 45 0 0 2.687 2.688h13.05a2.69 2.69 135 0 0 2.687-2.687V14.916a2.69 2.69 45 0 0-2.688-2.687H15.197a2.69 2.69 135 0 0-2.687 2.687m20.652.047v13.05a2.69 2.69 45 0 0 2.688 2.688H48.9a2.69 2.69 135 0 0 2.688-2.687V14.963a2.69 2.69 45 0 0-2.688-2.688H35.85a2.69 2.69 135 0 0-2.688 2.688M12.338 35.908v13.049a2.69 2.69 45 0 0 2.687 2.688h13.05a2.69 2.69 135 0 0 2.687-2.688V35.908a2.69 2.69 45 0 0-2.688-2.687H15.025a2.69 2.69 135 0 0-2.687 2.687m20.824.065V49.02a2.69 2.69 45 0 0 2.688 2.688H48.9a2.69 2.69 135 0 0 2.688-2.688V35.973a2.69 2.69 45 0 0-2.688-2.688H35.85a2.69 2.69 135 0 0-2.688 2.688" style="fill:url(#c);stroke-width:.329007" transform="translate(-8.018 -8.004)scale(1.25057)"/><path d="M12.51 15.015v12.853a2.786 2.786 45 0 0 2.786 2.786h12.851a2.786 2.786 135 0 0 2.787-2.786V15.015a2.786 2.786 45 0 0-2.787-2.786h-12.85a2.786 2.786 135 0 0-2.787 2.786zm20.652.047v12.853a2.786 2.786 45 0 0 2.786 2.786h12.854a2.786 2.786 135 0 0 2.786-2.786V15.062a2.786 2.786 45 0 0-2.786-2.787H35.948a2.786 2.786 135 0 0-2.786 2.787zM12.338 36.007v12.851a2.786 2.786 45 0 0 2.786 2.787h12.851a2.786 2.786 135 0 0 2.787-2.787v-12.85a2.786 2.786 45 0 0-2.787-2.787h-12.85a2.786 2.786 135 0 0-2.787 2.786zm20.824.065v12.85a2.786 2.786 45 0 0 2.786 2.787h12.854a2.786 2.786 135 0 0 2.786-2.786V36.072a2.786 2.786 45 0 0-2.786-2.787H35.948a2.786 2.786 135 0 0-2.786 2.787z" style="mix-blend-mode:normal;fill:none;stroke:#000;stroke-width:.159928;stroke-dasharray:none;stroke-opacity:1;filter:url(#d)" transform="translate(-7.972 -7.979)scale(1.25057)"/><circle cx="52.834" cy="52.812" r="8.889" style="fill:url(#e);stroke-width:.555539"/><path d="m52.286 56.796-2.115 1.17a.427.427 35.165 0 1-.628-.444l.413-2.532a1.24 1.24 72.482 0 0-.337-1.068l-1.726-1.768a.452.452 108.506 0 1 .256-.763l2.349-.359a1.18 1.18 143.226 0 0 .886-.662l1.077-2.294a.413.413 0 0 1 .747 0l1.077 2.294a1.18 1.18 36.774 0 0 .886.662l2.35.36a.452.452 71.494 0 1 .254.762l-1.725 1.768a1.24 1.24 107.518 0 0-.337 1.068l.413 2.532a.427.427 144.835 0 1-.628.443l-2.115-1.169a1.14 1.14 0 0 0-1.097 0" style="fill:#fff;stroke-width:.555539" transform="translate(0 -.204)"/><circle cx="52.754" cy="52.739" r="8.889" style="fill:none;stroke-width:.25600001;stroke:#000;stroke-opacity:1;stroke-dasharray:none;filter:url(#f)"/><path d="m52.286 56.796-2.115 1.17a.427.427 35.165 0 1-.628-.444l.413-2.532a1.24 1.24 72.482 0 0-.337-1.068l-1.726-1.768a.452.452 108.506 0 1 .256-.763l2.349-.359a1.18 1.18 143.226 0 0 .886-.662l1.077-2.294a.413.413 0 0 1 .747 0l1.077 2.294a1.18 1.18 36.774 0 0 .886.662l2.35.36a.452.452 71.494 0 1 .254.762l-1.725 1.768a1.24 1.24 107.518 0 0-.337 1.068l.413 2.532a.427.427 144.835 0 1-.628.443l-2.115-1.169a1.14 1.14 0 0 0-1.097 0z" style="fill:none;stroke-width:.25600001;stroke:#ff0026;stroke-opacity:1;stroke-dasharray:none;filter:url(#g)" transform="translate(-.08 -.277)"/></svg>