<svg xmlns="http://www.w3.org/2000/svg" xmlns:xlink="http://www.w3.org/1999/xlink" width="64" height="64"><defs><filter id="e" width="1.499" height="1.499" x="-.249" y="-.249" style="color-interpolation-filters:sRGB"><feGaussianBlur stdDeviation="2.625"/></filter><filter id="d" width="1.154" height="1.141" x="-.077" y="-.071" style="color-interpolation-filters:sRGB"><feGaussianBlur stdDeviation="1.608"/></filter><filter id="g" width="1.296" height="1.294" x="-.148" y="-.147" style="color-interpolation-filters:sRGB"><feGaussianBlur stdDeviation="2.386"/></filter><radialGradient xlink:href="#a" id="c" cx="12.129" cy="37.205" r="25.704" fx="12.129" fy="37.205" gradientTransform="rotate(-45 -30.116 97.503)scale(2.35928 2.57)" gradientUnits="userSpaceOnUse"/><radialGradient xlink:href="#b" id="f" cx="24.06" cy="25.245" r="19.625" fx="24.06" fy="25.245" gradientTransform="rotate(60 109.485 -4.873)scale(3.4501 3.47036)" gradientUnits="userSpaceOnUse"/><linearGradient id="a"><stop offset="0" style="stop-color:#4f4f4f;stop-opacity:1"/><stop offset="1" style="stop-color:#2f2f2f;stop-opacity:1"/></linearGradient><linearGradient id="b"><stop offset="0" style="stop-color:#00dfff;stop-opacity:1"/><stop offset="1" style="stop-color:#0097ff;stop-opacity:1"/></linearGradient></defs><g transform="translate(-31.662 5.042)"><path d="M30.6 4a5.586 5.586 0 0 0-5.508 4.58c-.102.556-.092 1.479-.092 2.045v.574c0 .566-.434 1.177-.958 1.392a21 21 0 0 0-4.87 2.813c-.447.346-1.193.417-1.684.134l-.498-.287c-.49-.283-1.285-.753-1.818-.943A5.59 5.59 0 0 0 9.04 15.95c-.366.432-.82 1.236-1.103 1.726L7.05 19.21a5.59 5.59 0 0 0 2.05 7.65l1.378.796c.49.283.8.964.722 1.525q-.124.893-.172 1.793a24 24 0 0 0 0 2.05 21 21 0 0 0 .172 1.793c.078.561-.232 1.242-.722 1.525l-1.377.796a5.59 5.59 0 0 0-2.051 7.65l1.4 2.422a5.59 5.59 0 0 0 7.65 2.05l1.372-.791c.49-.283 1.237-.213 1.686.132a21 21 0 0 0 4.882 2.804c.525.214.959.823.959 1.39V54.4c0 3.103 2.497 5.6 5.6 5.6h2.8c3.103 0 5.6-2.497 5.6-5.6v-1.614c0-.567.434-1.177.959-1.391a21 21 0 0 0 4.867-2.8c.449-.346 1.195-.416 1.686-.133l1.386.8a5.59 5.59 0 0 0 7.65-2.051l1.401-2.422a5.59 5.59 0 0 0-1.213-7.06c-.431-.367-1.235-.82-1.726-1.103l-.489-.283c-.49-.283-.8-.964-.722-1.525q.124-.893.172-1.793c.03-.565.03-1.485 0-2.05a21 21 0 0 0-.172-1.793c-.078-.561.232-1.242.722-1.525l1.377-.796a5.59 5.59 0 0 0 2.051-7.65l-1.4-2.422a5.59 5.59 0 0 0-7.65-2.05l-1.372.791c-.49.283-1.237.213-1.686-.132a21 21 0 0 0-4.882-2.806c-.525-.213-.959-.823-.959-1.39V9.6A5.586 5.586 0 0 0 33.4 4z" style="fill:url(#c);stroke:none" transform="translate(31.662 -5.042)"/><path d="M30.6 4a5.586 5.586 0 0 0-5.508 4.58c-.102.556-.092 1.479-.092 2.045v.574c0 .566-.434 1.177-.958 1.392a21 21 0 0 0-4.87 2.813c-.447.346-1.193.417-1.684.134l-.498-.287c-.49-.283-1.285-.753-1.818-.943A5.59 5.59 0 0 0 9.04 15.95c-.366.432-.82 1.236-1.103 1.726L7.05 19.21a5.59 5.59 0 0 0 2.05 7.65l1.378.796c.49.283.8.964.722 1.525q-.124.893-.172 1.793a24 24 0 0 0 0 2.05 21 21 0 0 0 .172 1.793c.078.561-.232 1.242-.722 1.525l-1.377.796a5.59 5.59 0 0 0-2.051 7.65l1.4 2.422a5.59 5.59 0 0 0 7.65 2.05l1.372-.791c.49-.283 1.237-.213 1.686.132a21 21 0 0 0 4.882 2.804c.525.214.959.823.959 1.39V54.4c0 3.103 2.497 5.6 5.6 5.6h2.8c3.103 0 5.6-2.497 5.6-5.6v-1.614c0-.567.434-1.177.959-1.391a21 21 0 0 0 4.867-2.8c.449-.346 1.195-.416 1.686-.133l1.386.8a5.59 5.59 0 0 0 7.65-2.051l1.401-2.422a5.59 5.59 0 0 0-1.213-7.06c-.431-.367-1.235-.82-1.726-1.103l-.489-.283c-.49-.283-.8-.964-.722-1.525q.124-.893.172-1.793c.03-.565.03-1.485 0-2.05a21 21 0 0 0-.172-1.793c-.078-.561.232-1.242.722-1.525l1.377-.796a5.59 5.59 0 0 0 2.051-7.65l-1.4-2.422a5.59 5.59 0 0 0-7.65-2.05l-1.372.791c-.49.283-1.237.213-1.686-.132a21 21 0 0 0-4.882-2.806c-.525-.213-.959-.823-.959-1.39V9.6A5.586 5.586 0 0 0 33.4 4z" style="opacity:.650751;fill:none;stroke:#010101;stroke-width:.2;stroke-dasharray:none;stroke-opacity:1;filter:url(#d)" transform="translate(31.662 -5.042)"/><circle cx="63.407" cy="27.117" r="15.321" style="opacity:.287828;fill:#000;stroke:none;stroke-width:7.681;stroke-linecap:round;stroke-linejoin:round;paint-order:stroke fill markers"/><circle cx="63.662" cy="26.959" r="15.321" style="opacity:.321549;fill:none;stroke:#000;stroke-width:2.681;stroke-linecap:round;stroke-linejoin:round;stroke-dasharray:none;stroke-opacity:1;paint-order:stroke fill markers;filter:url(#e)"/></g><path d="M12.51 14.916v13.05a2.69 2.69 45 0 0 2.687 2.688h13.05a2.69 2.69 135 0 0 2.687-2.687V14.916a2.69 2.69 45 0 0-2.688-2.687H15.197a2.69 2.69 135 0 0-2.687 2.687m20.652.047v13.05a2.69 2.69 45 0 0 2.688 2.688H48.9a2.69 2.69 135 0 0 2.688-2.687V14.963a2.69 2.69 45 0 0-2.688-2.688H35.85a2.69 2.69 135 0 0-2.688 2.688M12.338 35.908v13.049a2.69 2.69 45 0 0 2.687 2.688h13.05a2.69 2.69 135 0 0 2.687-2.688V35.908a2.69 2.69 45 0 0-2.688-2.687H15.025a2.69 2.69 135 0 0-2.687 2.687m20.824.065V49.02a2.69 2.69 45 0 0 2.688 2.688H48.9a2.69 2.69 135 0 0 2.688-2.688V35.973a2.69 2.69 45 0 0-2.688-2.688H35.85a2.69 2.69 135 0 0-2.688 2.688" style="fill:url(#f);stroke-width:.329007" transform="translate(39.405 -2.758)scale(.42825)"/><path d="M12.51 15.015v12.853a2.786 2.786 45 0 0 2.786 2.786h12.851a2.786 2.786 135 0 0 2.787-2.786V15.015a2.786 2.786 45 0 0-2.787-2.786h-12.85a2.786 2.786 135 0 0-2.787 2.786zm20.652.047v12.853a2.786 2.786 45 0 0 2.786 2.786h12.854a2.786 2.786 135 0 0 2.786-2.786V15.062a2.786 2.786 45 0 0-2.786-2.787H35.948a2.786 2.786 135 0 0-2.786 2.787zM12.338 36.007v12.851a2.786 2.786 45 0 0 2.786 2.787h12.851a2.786 2.786 135 0 0 2.787-2.787v-12.85a2.786 2.786 45 0 0-2.787-2.787h-12.85a2.786 2.786 135 0 0-2.787 2.786zm20.824.065v12.85a2.786 2.786 45 0 0 2.786 2.787h12.854a2.786 2.786 135 0 0 2.786-2.786V36.072a2.786 2.786 45 0 0-2.786-2.787H35.948a2.786 2.786 135 0 0-2.786 2.787z" style="mix-blend-mode:normal;fill:none;stroke:#000;stroke-width:.159928;stroke-dasharray:none;stroke-opacity:1;filter:url(#g)" transform="translate(39.42 -2.75)scale(.42825)"/></svg>