<svg xmlns="http://www.w3.org/2000/svg" xmlns:xlink="http://www.w3.org/1999/xlink" width="64" height="64"><defs><filter id="f" width="1.266" height="1.266" x="-.133" y="-.133" style="color-interpolation-filters:sRGB"><feGaussianBlur stdDeviation=".932"/></filter><filter id="g" width="1.188" height="1.156" x="-.094" y="-.078" style="color-interpolation-filters:sRGB"><feGaussianBlur stdDeviation=".248"/></filter><filter id="h" width="1.68" height="1.68" x="-.34" y="-.34" style="color-interpolation-filters:sRGB"><feGaussianBlur stdDeviation=".205"/></filter><filter id="d" width="1.296" height="1.294" x="-.148" y="-.147" style="color-interpolation-filters:sRGB"><feGaussianBlur stdDeviation="2.386"/></filter><radialGradient xlink:href="#a" id="e" cx="45.875" cy="58.844" r="8.889" fx="45.875" fy="58.844" gradientTransform="translate(-46.56 -56.73)scale(1.99368)" gradientUnits="userSpaceOnUse"/><radialGradient xlink:href="#b" id="c" cx="24.06" cy="25.245" r="19.625" fx="24.06" fy="25.245" gradientTransform="rotate(60 109.485 -4.873)scale(3.4501 3.47036)" gradientUnits="userSpaceOnUse"/><linearGradient id="a"><stop offset="0" style="stop-color:#faa457;stop-opacity:1"/><stop offset="1" style="stop-color:#fa6257;stop-opacity:1"/></linearGradient><linearGradient id="b"><stop offset="0" style="stop-color:#00dfff;stop-opacity:1"/><stop offset="1" style="stop-color:#0097ff;stop-opacity:1"/></linearGradient></defs><path d="M12.51 14.916v13.05a2.69 2.69 45 0 0 2.687 2.688h13.05a2.69 2.69 135 0 0 2.687-2.687V14.916a2.69 2.69 45 0 0-2.688-2.687H15.197a2.69 2.69 135 0 0-2.687 2.687m20.652.047v13.05a2.69 2.69 45 0 0 2.688 2.688H48.9a2.69 2.69 135 0 0 2.688-2.687V14.963a2.69 2.69 45 0 0-2.688-2.688H35.85a2.69 2.69 135 0 0-2.688 2.688M12.338 35.908v13.049a2.69 2.69 45 0 0 2.687 2.688h13.05a2.69 2.69 135 0 0 2.687-2.688V35.908a2.69 2.69 45 0 0-2.688-2.687H15.025a2.69 2.69 135 0 0-2.687 2.687m20.824.065V49.02a2.69 2.69 45 0 0 2.688 2.688H48.9a2.69 2.69 135 0 0 2.688-2.688V35.973a2.69 2.69 45 0 0-2.688-2.688H35.85a2.69 2.69 135 0 0-2.688 2.688" style="fill:url(#c);stroke-width:.329007" transform="translate(-8.018 -8.004)scale(1.25057)"/><path d="M12.51 15.015v12.853a2.786 2.786 45 0 0 2.786 2.786h12.851a2.786 2.786 135 0 0 2.787-2.786V15.015a2.786 2.786 45 0 0-2.787-2.786h-12.85a2.786 2.786 135 0 0-2.787 2.786zm20.652.047v12.853a2.786 2.786 45 0 0 2.786 2.786h12.854a2.786 2.786 135 0 0 2.786-2.786V15.062a2.786 2.786 45 0 0-2.786-2.787H35.948a2.786 2.786 135 0 0-2.786 2.787zM12.338 36.007v12.851a2.786 2.786 45 0 0 2.786 2.787h12.851a2.786 2.786 135 0 0 2.787-2.787v-12.85a2.786 2.786 45 0 0-2.787-2.787h-12.85a2.786 2.786 135 0 0-2.787 2.786zm20.824.065v12.85a2.786 2.786 45 0 0 2.786 2.787h12.854a2.786 2.786 135 0 0 2.786-2.786V36.072a2.786 2.786 45 0 0-2.786-2.787H35.948a2.786 2.786 135 0 0-2.786 2.787z" style="mix-blend-mode:normal;fill:none;stroke:#000;stroke-width:.159928;stroke-dasharray:none;stroke-opacity:1;filter:url(#d)" transform="translate(-7.972 -7.979)scale(1.25057)"/><circle cx="52.834" cy="52.812" r="8.889" style="fill:url(#e);stroke-width:.555539"/><circle cx="52.754" cy="52.739" r="8.889" style="fill:none;stroke:#000;stroke-width:.256;stroke-dasharray:none;stroke-opacity:1;filter:url(#f)"/><path d="M52.826 47.58c-1.966-.044-3.057.638-3.518 1.344-.325.497.257 1.034.866 1.017.087-.002.214-.575.685-.922.562-.415 1.434-.432 2.001-.42.842.015 1.456.716 1.456 1.627 0 1.683-2.016 1.673-2.496 4.007-.121.59.385 1.032.985.966.126-.014.199-.528.365-1.107.539-1.879 2.474-1.775 2.369-3.955-.058-1.2-.85-2.516-2.713-2.558" style="baseline-shift:baseline;display:inline;overflow:visible;vector-effect:none;fill:#fff;fill-opacity:.87451;stroke-linejoin:round;stroke-miterlimit:7.4;enable-background:accumulate;stop-color:#000;filter:url(#g)" transform="translate(.034 .017)"/><path d="M52.623 47c-2.143-.048-3.393 1.264-3.859 2.321-.238.542.302 1.056.904 1.056h.008c.602 0 1.106-.565 1.535-.97.395-.373.967-.442 1.412-.432.698.015 1.207.678 1.207 1.539 0 1.056-1.971 1.578-2.456 3.893-.123.59.383 1.085.987 1.085h.012c.604 0 1.065-.502 1.23-1.081.529-1.864 2.428-1.716 2.428-3.897 0-1.78-1.544-3.473-3.408-3.514" style="baseline-shift:baseline;display:inline;overflow:visible;opacity:.81904699;vector-effect:none;fill:#fff;fill-opacity:.87451;stroke-linejoin:round;stroke-miterlimit:7.4;enable-background:accumulate;stop-color:#000;stop-opacity:1"/><circle cx="52.414" cy="57.242" r=".725" style="fill:#fff;fill-opacity:1;stroke:none;stroke-width:3.27795;stroke-linecap:butt;stroke-linejoin:round;stroke-miterlimit:7.4;stroke-dasharray:none;stroke-opacity:.87451;filter:url(#h)"/><circle cx="52.414" cy="57.242" r="1.188" style="opacity:.71779904;fill:#fff;fill-opacity:1;stroke:none;stroke-width:5.37308;stroke-linecap:butt;stroke-linejoin:round;stroke-miterlimit:7.4;stroke-dasharray:none;stroke-opacity:.87451"/></svg>