<svg xmlns="http://www.w3.org/2000/svg" width="64" height="64"><path d="M32 4C16.488 4 4 16.488 4 32s12.488 28 28 28 28-12.488 28-28S47.512 4 32 4" style="fill:#e4e4e4"/><path d="M17 20v17.647S17 45 26 45s9-7.353 9-7.353V24.412S35 21 32 21s-3 3.41-3 3.41v13.236S29 45 38 45s9-7.353 9-7.353V20" style="fill:none;stroke:#313131;stroke-width:1.99997139"/><path d="M32 4C16.488 4 4 16.488 4 32c0 .114.011.224.018.336C4.369 17.134 16.71 5 32 5s27.63 12.134 27.982 27.336c.007-.112.018-.222.018-.336C60 16.488 47.512 4 32 4" style="opacity:.2;fill:#fff"/><path d="M59.982 32.664C59.631 47.866 47.29 60 32 60S4.371 47.868 4.018 32.668c-.007.11-.018.22-.018.332 0 15.512 12.488 28 28 28s28-12.488 28-28c0-.113-.011-.224-.018-.336" style="opacity:.2"/></svg>