<svg xmlns="http://www.w3.org/2000/svg" width="64" height="64"><rect width="57" height="57" x="-61" y="-61" rx="2.85" ry="2.85" style="opacity:.2" transform="rotate(90)scale(-1 1)"/><rect width="57" height="57" x="-60" y="-61" rx="2.85" ry="2.85" style="fill:#4f4f4f" transform="rotate(90)scale(-1 1)"/><path d="M30 10.17V23h4v-8.217l1.5-.996zm-6.912 5.64-.24 4.192-5.27-.004 2.95-.998H1.362l10.696 1-3.72 3H27v-5.473zm17.824 0L37 17.528V23h18.66l-3.719-3 10.696-1H43.473l2.949.998-5.27.004zM18.762 25 23 28.37v26.452l7-4.27v4.303l11-8.126v-18.27L45.3 25H37v19.895l-2.959 2.072L33.959 25H30v19.938l-2.953 2.027L26.953 25Z" style="opacity:.2"/><path d="M30 9.17V22h4v-8.217l1.5-.996zm-6.912 5.64-.24 4.192-5.27-.004 2.95-.998H1.362l10.696 1-3.72 3H27v-5.473zm17.824 0L37 16.528V22h18.66l-3.719-3 10.696-1H43.473l2.949.998-5.27.004zM18.762 24 23 27.37v26.452l7-4.27v4.303l11-8.126v-18.27L45.3 24H37v19.895l-2.959 2.072L33.959 24H30v19.938l-2.953 2.027L26.953 24z" style="fill:#dc4043"/><path d="M6.85 3A2.843 2.843 0 0 0 4 5.85v1C4 5.27 5.27 4 6.85 4h51.3C59.73 4 61 5.27 61 6.85v-1C61 4.27 59.73 3 58.15 3z" style="fill:#fff;opacity:.1"/></svg>