<svg xmlns="http://www.w3.org/2000/svg" width="64" height="64"><path d="M54 57V7c0-1.662-1.338-3-3-3H13c-1.662 0-3 1.338-3 3v50c0 1.662 1.338 3 3 3h38c1.662 0 3-1.338 3-3" style="fill:#4e9e45"/><path d="M13 4c-1.662 0-3 1.338-3 3v1c0-1.662 1.338-3 3-3h38c1.662 0 3 1.338 3 3V7c0-1.662-1.338-3-3-3z" style="opacity:.1;fill:#fff"/><path d="M18 16h28v2H18Zm0 6h28v2H18zm0 6h28v2H18zm0 6h28v2H18zm0 6h28v2H18zm0 6h28v2H18z" style="fill:#4c4c4c"/><path d="M10 57v1c0 1.662 1.338 3 3 3h38c1.662 0 3-1.338 3-3v-1c0 1.662-1.338 3-3 3H13c-1.662 0-3-1.338-3-3" style="opacity:.2"/></svg>