<svg xmlns="http://www.w3.org/2000/svg" width="64" height="64"><path d="M32 4a12 12 0 0 0-9.598 4.82 12 12 0 0 0-10.203 3.38 12 12 0 0 0-3.476 8.998 12 12 0 0 0 .101 1.201l-.084.069A12 12 0 0 0 4 32a12 12 0 0 0 .023.455 12 12 0 0 0 4.797 9.147 12 12 0 0 0-.088.931 12 12 0 0 0-.02 1.2A12 12 0 0 0 12.2 51.8a12 12 0 0 0 10.2 3.375A12 12 0 0 0 32 60a12 12 0 0 0 9.598-4.82A12 12 0 0 0 51.8 51.8a12 12 0 0 0 .803-.89 12 12 0 0 0 2.673-7.11 12 12 0 0 0-.017-1.267 12 12 0 0 0-.04-.596 12 12 0 0 0-.044-.336 12 12 0 0 0 4.8-9.045v-.005a12 12 0 0 0 .024-.55 12 12 0 0 0-4.732-9.533l-.088-.07a12 12 0 0 0 .107-1.13A12 12 0 0 0 51.8 12.2a12 12 0 0 0-10.2-3.375A12 12 0 0 0 32 4.002z" style="fill:#e4e4e4"/><rect width="9.368" height="18.735" x="-42.87" y=".53" rx="4.684" ry="4.684" style="fill:#d09e73" transform="rotate(45)scale(-1 1)"/><circle cx="32" cy="32" r="12" style="fill:#d09e73"/><rect width="9.368" height="18.735" x="2.39" y="45.79" rx="4.684" ry="4.684" style="fill:#d09e73" transform="rotate(-45)"/><circle cx="27" cy="30" r="3" style="opacity:.2"/><circle cx="27.001" cy="29" r="3" style="fill:#4d4d4d"/><circle cx="37" cy="30" r="3" style="opacity:.2"/><circle cx="37" cy="29" r="3" style="fill:#4d4d4d"/><path d="M32 4a12 12 0 0 0-9.598 4.82 12 12 0 0 0-10.203 3.38 12 12 0 0 0-3.476 8.998 12 12 0 0 1 3.476-7.998 12 12 0 0 1 10.203-3.38A12 12 0 0 1 32 5a12 12 0 0 1 9.602 4.824A12 12 0 0 1 51.801 13.2a12 12 0 0 1 3.486 8.069 12 12 0 0 0-3.486-9.069 12 12 0 0 0-10.199-3.375A12 12 0 0 0 32 4M8.74 22.467A12 12 0 0 0 4 32a12 12 0 0 0 .023.449 12 12 0 0 1 4.801-9.051 12 12 0 0 1-.084-.931m46.528 0a12 12 0 0 1-.088.931 12 12 0 0 1 4.797 9.153A12 12 0 0 0 60 32a12 12 0 0 0-4.732-9.533M8.732 42.533a12 12 0 0 0-.02 1.199 12 12 0 0 1 .108-1.13zm46.528 0-.084.069a12 12 0 0 1 .101 1.199 12 12 0 0 0-.017-1.268" style="opacity:.2;fill:#fff"/><path d="M55.287 21.268a12 12 0 0 1-.107 1.13l.087.07.02-.2a12 12 0 0 0 0-1m-46.555.033a12 12 0 0 0-.01.897l.024.265.078-.064a12 12 0 0 1-.092-1.098m-4.709 11.16a12 12 0 0 0-.023.54 12 12 0 0 0 .023.454 12 12 0 0 0 4.71 9.074 12 12 0 0 1 .087-.927 12 12 0 0 1-4.797-9.14m55.953.096a12 12 0 0 1-4.8 9.045 12 12 0 0 1 .045.336 12 12 0 0 1 .039.593 12 12 0 0 0 4.716-8.974v-.006A12 12 0 0 0 60 33a12 12 0 0 0-.023-.443zM8.727 43.896a12 12 0 0 0-.013.836A12 12 0 0 0 12.2 52.8a12 12 0 0 0 10.199 3.375A12 12 0 0 0 32 61a12 12 0 0 0 9.598-4.82A12 12 0 0 0 51.8 52.8a12 12 0 0 0 .802-.89 12 12 0 0 0 2.674-7.11 12 12 0 0 0-.01-.838 12 12 0 0 1-2.664 6.947 12 12 0 0 1-.802.891 12 12 0 0 1-10.203 3.379A12 12 0 0 1 32 60a12 12 0 0 1-9.602-4.824 12 12 0 0 1-10.2-3.375 12 12 0 0 1-3.472-7.905z" style="opacity:.2"/></svg>