<svg xmlns="http://www.w3.org/2000/svg" xmlns:xlink="http://www.w3.org/1999/xlink" width="64" height="64"><defs><radialGradient xlink:href="#a" id="c" cx="9.794" cy="53.224" r="27.922" fx="9.794" fy="53.224" gradientTransform="matrix(2.4419 0 0 2.23273 -9.175 -76.744)" gradientUnits="userSpaceOnUse"/><radialGradient xlink:href="#b" id="e" cx="2.485" cy="63.119" r="27.922" fx="2.485" fy="63.119" gradientTransform="matrix(3.99334 -2.24938 2.16073 3.6513 -149.414 -160.694)" gradientUnits="userSpaceOnUse"/><linearGradient id="b"><stop offset="0" style="stop-color:#fff;stop-opacity:1"/><stop offset="1" style="stop-color:#c1c1c1;stop-opacity:1"/></linearGradient><linearGradient id="a"><stop offset="0" style="stop-color:#00baff;stop-opacity:1"/><stop offset="1" style="stop-color:#007aff;stop-opacity:1"/></linearGradient><filter id="f" width="1.146" height="1.199" x="-.073" y="-.099" style="color-interpolation-filters:sRGB"><feGaussianBlur stdDeviation="1.658"/></filter><filter id="d" width="1.196" height="1.249" x="-.098" y="-.125" style="color-interpolation-filters:sRGB"><feGaussianBlur stdDeviation="2.244"/></filter></defs><path d="M13.49 3.32h37.02a9.623 9.623 45 0 1 9.622 9.622V42.95a9.623 9.623 135 0 1-9.622 9.623H13.49a9.623 9.623 45 0 1-9.622-9.623V12.942a9.623 9.623 135 0 1 9.622-9.623" style="fill:url(#c);fill-opacity:1;stroke-width:.4" transform="matrix(.94764 0 0 .84888 1.68 8.277)"/><path d="M14.323 11.096A9.119 8.168 0 0 0 5.4 18.378V32h53.263V19.263a9.119 8.168 0 0 0-8.977-8.167z" style="opacity:.277966;fill:#fff;fill-opacity:1;stroke-width:.358762"/><path d="M32.032 11.096v41.808h17.654a9.119 8.168 0 0 0 8.977-8.167V19.263a9.119 8.168 0 0 0-8.977-8.167z" style="opacity:.277966;fill:#fff;fill-opacity:1;stroke-width:.358762"/><g style="mix-blend-mode:normal;stroke:#000;stroke-width:.2;stroke-dasharray:none;stroke-opacity:1;filter:url(#d)" transform="translate(22.334 47.611)scale(.94984)"><path d="M13.49 3.32h37.02a9.623 9.623 45 0 1 9.622 9.622V42.95a9.623 9.623 135 0 1-9.622 9.623H13.49a9.623 9.623 45 0 1-9.622-9.623V12.942a9.623 9.623 135 0 1 9.622-9.623Z" style="opacity:1;fill:none;fill-opacity:1;stroke:#000;stroke-width:.211803;stroke-dasharray:none;stroke-opacity:1" transform="matrix(.99769 0 0 .89372 -21.745 -41.411)"/><path d="M-8.462-38.444a9.6 8.6 0 0 0-9.395 7.666v14.342h28.04v-22.008Zm18.644 22.008V5.572h18.586a9.6 8.6 0 0 0 9.451-8.598v-13.41Z" style="opacity:1;fill:none;fill-opacity:1;stroke:#000;stroke-width:.2;stroke-dasharray:none;stroke-opacity:1"/></g><path d="M9.954 11.427h44.092a5.876 5.876 45 0 1 5.876 5.876v29.394a5.876 5.876 135 0 1-5.876 5.876H9.954a5.876 5.876 45 0 1-5.876-5.876V17.303a5.876 5.876 135 0 1 5.876-5.876" style="fill:url(#e);fill-opacity:1;stroke-width:.4" transform="matrix(.53196 0 0 .54524 28.482 24.884)"/><path d="M9.954 11.427h44.092a5.876 5.876 45 0 1 5.876 5.876v29.394a5.876 5.876 135 0 1-5.876 5.876H9.954a5.876 5.876 45 0 1-5.876-5.876V17.303a5.876 5.876 135 0 1 5.876-5.876z" style="mix-blend-mode:normal;fill:none;fill-opacity:1;stroke:#000;stroke-width:.213131;stroke-dasharray:none;stroke-opacity:1;filter:url(#f)" transform="matrix(.53196 0 0 .54524 28.41 24.9)"/></svg>