<svg xmlns="http://www.w3.org/2000/svg" width="64" height="64"><rect width="58" height="58" x="-62" y="-61" rx="2.9" ry="2.9" style="opacity:.2" transform="rotate(90)scale(-1 1)"/><rect width="58" height="58" x="-61" y="-61" rx="2.9" ry="2.9" style="fill:#3c7fb0" transform="rotate(90)scale(-1 1)"/><rect width="19.5" height="6" x="29.5" y="29" rx="3" ry="3" style="opacity:.4;fill:#fff"/><rect width="33" height="6" x="16" y="41" rx="3" ry="3" style="opacity:.4;fill:#fff"/><rect width="33" height="6" x="16" y="17" rx="3" ry="3" style="opacity:.4;fill:#fff"/><circle cx="21" cy="21" r="6" style="opacity:.2"/><circle cx="21" cy="20" r="6" style="fill:#fff"/><circle cx="21" cy="45" r="6" style="opacity:.2"/><circle cx="21" cy="44" r="6" style="fill:#fff"/><circle cx="30" cy="33" r="6" style="opacity:.2"/><circle cx="30" cy="32" r="6" style="fill:#fff"/><path d="M5.898 3A2.89 2.89 0 0 0 3 5.898v1A2.89 2.89 0 0 1 5.898 4h52.204A2.89 2.89 0 0 1 61 6.898v-1A2.89 2.89 0 0 0 58.102 3z" style="opacity:.1;fill:#fff"/></svg>