<svg xmlns="http://www.w3.org/2000/svg" width="64" height="64"><circle cx="32" cy="33" r="28" style="opacity:.2"/><path d="M32 4C16.488 4 4 16.488 4 32c0 8.392 3.674 15.877 9.486 21L32 57.2 50.514 53C56.326 47.877 60 40.392 60 32 60 16.488 47.512 4 32 4" style="fill:#8e2121"/><path d="M32 4A28 28 0 0 0 4 32a28 28 0 0 0 .021.586A28 28 0 0 1 32 5a28 28 0 0 1 27.979 27.414L60 32A28 28 0 0 0 32 4" style="opacity:.1;fill:#fff"/><path d="m30 31-1 4v2.8C29 53 24 53 24 53l8 1.4 8-1.4s-5 0-5-15.2V35l-1-4z" style="fill:#f2c557"/><path d="M32 11c-13.75 0-22 12.5-22 16.666 0 2.285.7 3.855 1.521 4.924.832 2.705 5.068 3.457 8.104 3.408 3.942-.064 9.625 0 9.625 0h5.5s5.683-.064 9.625 0c3.036.05 7.272-.703 8.104-3.408C53.3 31.52 54 29.95 54 27.666 54 20.722 41.537 11 32 11M12.4 40c-.775 0-1.4.625-1.4 1.4v.2c0 .775.625 1.4 1.4 1.4h39.2c.775 0 1.4-.625 1.4-1.4v-.2c0-.775-.625-1.4-1.4-1.4z" style="opacity:.2"/><path d="M32 14.166c-17.875 0-21.198 7.495-20.625 16.665.208 3.332 4.945 4.22 8.25 4.167 3.942-.065 9.625 0 9.625 0h5.5s5.683-.065 9.625 0c3.305.054 8.042-.835 8.25-4.167.573-9.17-6.875-16.665-20.625-16.665" style="fill:#f2f257"/><rect width="42" height="3" x="11" y="39" ry="1.4" style="fill:#e66b19"/><path d="M13.486 53c4.93 4.347 11.394 7 18.514 7s13.584-2.653 18.514-7z" style="fill:#82461d"/><path d="M14.125 33.609s-1.375-5.555-1.375-6.944c0-5.175 8.912 4.484 13.75 2.778 4.6-1.623 4.768-10.724 9.625-11.11 3.569-.284 4.732 6.273 8.25 6.943 1.424.272 2.676-1.388 4.125-1.388 2.75 0 2.75 2.202 2.75 4.166 0 2.777-1.375 5.555-1.375 5.555S54 32.22 54 26.665C54 19.721 41.537 10 32 10c-13.75 0-22 12.499-22 16.665 0 5.555 4.125 6.944 4.125 6.944" style="fill:#f29a57"/></svg>