<svg xmlns="http://www.w3.org/2000/svg" width="64" height="64"><rect width="56" height="56" x="4" y="5" rx="16.8" ry="16.8" style="opacity:.2"/><rect width="56" height="56" x="4" y="4" rx="16.8" ry="16.8" style="fill:#4f4f4f"/><path d="M22.114 48.281a18.2 18.2 0 0 1-7.576-20.413 18.2 18.2 0 0 1 17.414-13.07 18.2 18.2 0 0 1 17.483 12.979 18.2 18.2 0 0 1-7.469 20.452" style="opacity:.2;fill:none;stroke:#101010;stroke-width:5.60023785;stroke-linecap:round;stroke-linejoin:round"/><path d="M22.114 47.281a18.2 18.2 0 0 1-7.576-20.413 18.2 18.2 0 0 1 17.414-13.07 18.2 18.2 0 0 1 17.483 12.979 18.2 18.2 0 0 1-7.469 20.452" style="fill:none;stroke:#ececec;stroke-width:5.60023785;stroke-linecap:round;stroke-linejoin:round"/><path d="M26.33 41.325a10.11 10.11 0 0 1-4.004-11.318 10.11 10.11 0 0 1 9.63-7.169 10.11 10.11 0 0 1 9.692 7.085 10.11 10.11 0 0 1-3.906 11.352" style="opacity:.2;fill:none;stroke:#101010;stroke-width:5.77854633;stroke-linecap:round;stroke-linejoin:round"/><path d="M26.33 40.325a10.11 10.11 0 0 1-4.004-11.318 10.11 10.11 0 0 1 9.63-7.169 10.11 10.11 0 0 1 9.692 7.085 10.11 10.11 0 0 1-3.906 11.352" style="fill:none;stroke:#ececec;stroke-width:5.77854633;stroke-linecap:round;stroke-linejoin:round"/><circle cx="32" cy="33" r="5" style="opacity:.2"/><circle cx="32" cy="32" r="5" style="fill:#fff"/><path d="M20.8 4C11.495 4 4 11.494 4 20.8v1C4 12.495 11.494 5 20.8 5h22.4C52.505 5 60 12.494 60 21.8v-1C60 11.495 52.506 4 43.2 4z" style="fill:#fff;opacity:.1"/></svg>