<svg xmlns="http://www.w3.org/2000/svg" width="64" height="64"><path d="M32.151 12c-10.553 0-20.053 3.75-27.932 9.567L32.15 52l27.717-30.543C52.021 15.706 42.626 12 32.152 12z" style="fill:#4f4f4f"/><path d="M159.9 252.99a28.2 28.2 0 0 0-16.853 5.559l16.941 18.44 16.765-18.44a28.26 28.26 0 0 0-16.86-5.56z" style="opacity:.2" transform="translate(-181.22 -317.413)scale(1.3337)"/><path d="M32.044 20a37.62 37.62 0 0 0-22.478 7.412L32.162 52l22.36-24.588A37.62 37.62 0 0 0 32.044 20" style="fill:#797979"/><path d="M159.9 258.99a21.15 21.15 0 0 0-12.64 4.17l12.706 13.83 12.574-13.83a21.15 21.15 0 0 0-12.64-4.17" style="opacity:.2" transform="translate(-181.22 -317.413)scale(1.3337)"/><path d="M32.044 28a28.2 28.2 0 0 0-16.857 5.559L32.132 52l16.77-18.44a28.2 28.2 0 0 0-16.858-5.558Z" style="fill:#e4e4e4"/><path d="M32.014 12.02c-10.534 0-20.018 3.744-27.883 9.548l.555.606c7.755-5.575 17.038-9.154 27.328-9.154h.002c10.21 0 19.392 3.537 27.115 9.05l.553-.61c-7.836-5.74-17.216-9.44-27.668-9.44z" style="opacity:.1;fill:#fff"/><path d="M32.047 19.992a37.62 37.62 0 0 0-22.48 7.414l.556.604a37.6 37.6 0 0 1 21.924-7.018l.002.002a37.6 37.6 0 0 1 21.924 7.02l.552-.608a37.6 37.6 0 0 0-22.476-7.412z" style="opacity:.1;fill:#fff"/><path d="M32.047 27.992a28.2 28.2 0 0 0-16.86 5.563l.565.613a28.2 28.2 0 0 1 16.295-5.176c6.062 0 11.69 1.929 16.293 5.18l.56-.617a28.2 28.2 0 0 0-16.853-5.563" style="opacity:.1;fill:#fff"/><path d="M59.307 22.074 32.154 52 4.781 22.18c-.189.127-.38.251-.562.386L32.154 53l27.713-30.543c-.182-.133-.372-.257-.56-.383" style="opacity:.2"/><circle cx="44" cy="45" r="16" style="opacity:.2"/><circle cx="44" cy="44" r="16" style="fill:#5565cc"/><path d="M38.5 37a7.5 7.5 0 0 0-7.5 7.5 7.5 7.5 0 0 0 7.5 7.5 7.5 7.5 0 0 0 7.5-7.5 7.5 7.5 0 0 0-7.5-7.5m0 3a4.5 4.5 0 0 1 4.5 4.5 4.5 4.5 0 0 1-4.5 4.5 4.5 4.5 0 0 1-4.5-4.5 4.5 4.5 0 0 1 4.5-4.5" style="fill:#fff"/><path d="M44 43h14v3H44z" style="fill:#fff"/><path d="M46-56h3v3h-3z" style="fill:#fff" transform="rotate(90)"/></svg>