<svg xmlns="http://www.w3.org/2000/svg" width="64" height="64"><rect width="56" height="56" x="4" y="5" rx="4.2" ry="4.2" style="opacity:.2"/><rect width="56" height="56" x="4" y="4" rx="4.2" ry="4.2" style="fill:#ffc107"/><path d="M17.375 16H29.75l4.5 7.083L39.875 16H54.5L39.875 33l9 17h-13.5l-4.5-6.8L25.25 50H9.5l15.75-18.133Z" style="opacity:.1"/><path d="M17.375 15H29.75l4.5 7.083L39.875 15H54.5L39.875 32l9 17h-13.5l-4.5-6.8L25.25 49H9.5l15.75-18.133Z" style="fill:#3e3e3e"/><path d="M8.2 4A4.19 4.19 0 0 0 4 8.2v1A4.19 4.19 0 0 1 8.2 5h47.6A4.19 4.19 0 0 1 60 9.2v-1A4.19 4.19 0 0 0 55.8 4z" style="fill:#fff;opacity:.2"/></svg>