<svg xmlns="http://www.w3.org/2000/svg" width="64" height="64"><path d="M8.2 32A4.19 4.19 0 0 0 4 36.2V38h28v-1.8a4.19 4.19 0 0 0-4.2-4.2Z" style="fill:#ee902f"/><path d="M36.2 32a4.19 4.19 0 0 0-4.2 4.2V38h28v-1.8a4.19 4.19 0 0 0-4.2-4.2Z" style="fill:#f05353"/><path d="M4 11v17.8A4.19 4.19 0 0 0 8.2 33h19.6a4.19 4.19 0 0 0 4.2-4.2 4.19 4.19 0 0 0 4.2 4.2h19.6a4.19 4.19 0 0 0 4.2-4.2V11H32Zm0 28v17.8A4.19 4.19 0 0 0 8.2 61h19.6a4.19 4.19 0 0 0 4.2-4.2 4.19 4.19 0 0 0 4.2 4.2h19.6a4.19 4.19 0 0 0 4.2-4.2V39H32Z" style="opacity:.2"/><path d="M4 10v17.8A4.19 4.19 0 0 0 8.2 32h19.6a4.19 4.19 0 0 0 4.2-4.2V10Z" style="fill:#e4e4e4"/><path d="M8.2 4A4.19 4.19 0 0 0 4 8.2V10h28V8.2A4.19 4.19 0 0 0 27.8 4Z" style="fill:#2fb0ee"/><path d="M32 10v17.8a4.19 4.19 0 0 0 4.2 4.2h19.6a4.19 4.19 0 0 0 4.2-4.2V10Z" style="fill:#ccc"/><path d="M36.2 4A4.19 4.19 0 0 0 32 8.2V10h28V8.2A4.19 4.19 0 0 0 55.8 4Z" style="fill:#208c6e"/><path d="M4 38v17.8A4.19 4.19 0 0 0 8.2 60h19.6a4.19 4.19 0 0 0 4.2-4.2V38Z" style="fill:#ccc"/><path d="M32 38v17.8a4.19 4.19 0 0 0 4.2 4.2h19.6a4.19 4.19 0 0 0 4.2-4.2V38Z" style="fill:#e4e4e4"/><path d="M4 38h56v1H4z" style="opacity:.1"/><path d="M12 17v2.462l5.492.731 10.983 12.973-11.803 12.84-4.672.532V49h16v-2.462l-5.18-.465-.41-.799 8.36-9.646 7.623 9.913-.41.532-3.983.465V49h18v-2.462l-4.918-.532-12.05-14.237 10.82-11.642L50 19.462V17H36v2.462l3.623.399.656.865-7.46 8.515-6.885-8.715.41-.665 3.656-.4V17Z" style="opacity:.1"/><path d="M12 16v2.462l5.492.731 10.983 12.973-11.803 12.84-4.672.532V48h16v-2.462l-5.18-.465-.41-.799 8.36-9.646 7.623 9.913-.41.532-3.983.465V48h18v-2.462l-4.918-.532-12.05-14.237 10.82-11.642L50 18.462V16H36v2.462l3.623.399.656.865-7.46 8.515-6.885-8.715.41-.665 3.656-.4V16Z" style="fill:#3f3f3f"/><path d="M4 10h56v1H4z" style="opacity:.1"/><path d="M8.2 4A4.19 4.19 0 0 0 4 8.2v1A4.19 4.19 0 0 1 8.2 5h19.6A4.19 4.19 0 0 1 32 9.2 4.19 4.19 0 0 1 36.2 5h19.6A4.19 4.19 0 0 1 60 9.2v-1A4.19 4.19 0 0 0 55.8 4H36.2A4.19 4.19 0 0 0 32 8.2 4.19 4.19 0 0 0 27.8 4z" style="opacity:.2;fill:#fff"/></svg>