<svg xmlns="http://www.w3.org/2000/svg" width="64" height="64"><rect width="56" height="56" x="4" y="4" rx="3" ry="3" style="fill:#fb7a24"/><path d="M22 13a10 10 0 0 0-10 10 10 10 0 0 0 10 10 10 10 0 0 0-10 10 10 10 0 0 0 10 10 10 10 0 0 0 10-10 10 10 0 0 0-.035-.684l.035.004h.024A10 10 0 0 0 32 43a10 10 0 0 0 10 10 10 10 0 0 0 10-10 10 10 0 0 0-10-10l-.035.004V33H42a10 10 0 0 0 10-10 10 10 0 0 0-10-10 10 10 0 0 0-9.977 9.32h-.058A10 10 0 0 0 22 13m19.98 5.949a4 4 0 0 1 3.696 5.625c-1.172 2.734-2.186 5.512-4.208 8.024C39.448 35.108 35.984 37 32 37c-2.39 0-2.366.107-3.012.867s-1.713 3.052-3.324 6.734a4 4 0 1 1-7.328-3.204c1.564-3.576 2.494-6.284 4.554-8.71C24.952 30.261 28.39 29 32 29c2.016 0 2.357-.322 3.238-1.418.882-1.095 1.87-3.316 3.086-6.156a4 4 0 0 1 3.656-2.477m-19.98.05a4 4 0 0 1 4 4 4 4 0 0 1-4 4 4 4 0 0 1-4-4 4 4 0 0 1 4-4m20 20a4 4 0 0 1 4 4 4 4 0 0 1-4 4 4 4 0 0 1-4-4 4 4 0 0 1 4-4" style="opacity:.2"/><path d="M7 4C5.338 4 4 5.338 4 7v1c0-1.662 1.338-3 3-3h50c1.662 0 3 1.338 3 3V7c0-1.662-1.338-3-3-3z" style="opacity:.2;fill:#fff"/><path d="M4 57v1c0 1.662 1.338 3 3 3h50c1.662 0 3-1.338 3-3v-1c0 1.662-1.338 3-3 3H7c-1.662 0-3-1.338-3-3" style="opacity:.2"/><path d="M22 12a10 10 0 0 0-10 10 10 10 0 0 0 10 10 10 10 0 0 0-10 10 10 10 0 0 0 10 10 10 10 0 0 0 10-10 10 10 0 0 0-.035-.684l.035.004h.024A10 10 0 0 0 32 42a10 10 0 0 0 10 10 10 10 0 0 0 10-10 10 10 0 0 0-10-10l-.035.004V32H42a10 10 0 0 0 10-10 10 10 0 0 0-10-10 10 10 0 0 0-9.977 9.32h-.058A10 10 0 0 0 22 12m19.98 5.95a4 4 0 0 1 3.696 5.624c-1.172 2.734-2.186 5.512-4.208 8.024C39.448 34.108 35.984 36 32 36c-2.39 0-2.366.108-3.012.867-.645.76-1.713 3.053-3.324 6.735a4 4 0 1 1-7.328-3.204c1.564-3.576 2.494-6.284 4.554-8.71C24.952 29.262 28.39 28 32 28c2.016 0 2.357-.322 3.238-1.418.882-1.096 1.87-3.317 3.086-6.156a4 4 0 0 1 3.656-2.477zM22 18a4 4 0 0 1 4 4 4 4 0 0 1-4 4 4 4 0 0 1-4-4 4 4 0 0 1 4-4m20 20a4 4 0 0 1 4 4 4 4 0 0 1-4 4 4 4 0 0 1-4-4 4 4 0 0 1 4-4" style="fill:#fff"/></svg>