<svg xmlns="http://www.w3.org/2000/svg" width="64" height="64"><circle cx="32" cy="33" r="28" style="opacity:.2"/><circle cx="32" cy="32" r="28" style="fill:#236110"/><path d="M39.815 47c-2.171-4.093-4.836-7.91-7.724-11.526-2.959 3.704-5.925 7.428-8.328 11.526h-5.13c2.907-5.304 6.765-9.995 10.5-14.724L19.057 19h5.612l7.543 9.776L39.151 19h5.31l-9.233 12.974c3.597 4.852 7.353 9.643 10.138 15.026z" style="opacity:.2"/><path d="M39.815 46c-2.171-4.093-4.836-7.91-7.724-11.526-2.959 3.704-5.925 7.428-8.328 11.526h-5.13c2.907-5.304 6.765-9.995 10.5-14.724L19.057 18h5.612l7.543 9.776L39.151 18h5.31l-9.233 12.974c3.597 4.852 7.353 9.643 10.138 15.026z" style="fill:#81dc8a"/><path d="M32 4A28 28 0 0 0 4 32a28 28 0 0 0 .006.49A28 28 0 0 1 32 5a28 28 0 0 1 27.994 27.488A28 28 0 0 0 60 32 28 28 0 0 0 32 4" style="opacity:.1;fill:#fff"/></svg>