<svg xmlns="http://www.w3.org/2000/svg" width="64" height="64"><path d="M32 5C16.488 5 4 17.488 4 33s12.488 28 28 28 28-12.488 28-28S47.512 5 32 5" style="opacity:.2"/><path d="M32 4C16.488 4 4 16.488 4 32s12.488 28 28 28 28-12.488 28-28S47.512 4 32 4" style="fill:#ffa50c"/><path d="M22 23.047a4 4 0 0 0-4 4c0 2.209 1.79 0 4 0s4 2.209 4 0a4 4 0 0 0-4-4m20 0a4 4 0 0 0-4 4c0 2.209 1.79 0 4 0s4 2.209 4 0a4 4 0 0 0-4-4m2.406 17.91a1.5 1.5 0 0 0-1.176.605S39.805 46 32 46s-11.23-4.437-11.23-4.437a1.5 1.5 0 0 0-1.168-.579 1.5 1.5 0 0 0-1.172 2.453S23.005 49 32 49s13.57-5.562 13.57-5.562a1.5 1.5 0 0 0-1.164-2.481" style="opacity:.1"/><path d="M26 26.048c0 2.21-1.79 0-4 0s-4 2.21-4 0a4 4 0 1 1 8 0m20 0c0 2.21-1.79 0-4 0s-4 2.21-4 0a4 4 0 1 1 8 0" style="fill:#3f3f3f"/><path d="M19.6 41.5s4 5 12.4 5 12.4-5 12.4-5v0" style="fill:none;stroke:#3f3f3f;stroke-width:3;stroke-linecap:round;stroke-linejoin:round"/><path d="M32 4C16.488 4 4 16.488 4 32c0 .113.011.224.018.336C4.369 17.134 16.71 5 32 5s27.63 12.134 27.982 27.336c.007-.112.018-.223.018-.336C60 16.488 47.512 4 32 4" style="opacity:.2;fill:#fff"/></svg>