<svg xmlns="http://www.w3.org/2000/svg" width="64" height="64"><path d="M512.005 346.52a.117.124 0 0 0-.065.026l-1.983 1.572a.117.124 0 0 0-.046.1v2.096a.117.124 0 0 0 .188.1l1.981-1.572a.117.124 0 0 0 .046-.1v-2.096a.117.124 0 0 0-.12-.126zm3.01 0a.117.124 0 0 0-.12.126v2.096a.117.124 0 0 0 .046.1l1.981 1.572a.117.124 0 0 0 .189-.1v-2.096a.117.124 0 0 0-.047-.1l-1.983-1.572a.117.124 0 0 0-.064-.026.117.124 0 0 0-.002 0" style="opacity:.2" transform="matrix(5 0 0 5 -2535.555 -1702.001)"/><path d="M18.8 32.75c-.386 7.323 3.213 7.997 5.17 11.25 1.958-3.253 5.559-3.927 5.173-11.25h-9.979z" style="opacity:.2" transform="matrix(1.15392 0 0 1.33333 4.339 1.334)"/><path d="M512.005 346.32a.117.124 0 0 0-.065.026l-1.983 1.572a.117.124 0 0 0-.046.1v2.096a.117.124 0 0 0 .188.1l1.981-1.572a.117.124 0 0 0 .046-.1v-2.096a.117.124 0 0 0-.12-.126zm3.01 0a.117.124 0 0 0-.12.126v2.097a.117.124 0 0 0 .046.1l1.981 1.571a.117.124 0 0 0 .189-.1v-2.096a.117.124 0 0 0-.047-.1l-1.983-1.572a.117.124 0 0 0-.064-.026.117.124 0 0 0-.002 0" style="fill:#e6461d" transform="matrix(5 0 0 5 -2535.555 -1702.001)"/><path d="M24.473 29.602a.586.62 0 0 0-.328.128l-9.915 7.86a.586.62 0 0 0-.23.5v.98a.586.62 0 0 1 .23-.48l9.915-7.86a.586.62 0 0 1 .328-.128.586.62 0 0 1 .605.628v-1a.586.62 0 0 0-.605-.628m14.988 0a.586.62 0 0 0-.54.628v.995a.586.62 0 0 1 .54-.623.586.62 0 0 1 .059 0 .586.62 0 0 1 .01 0 .586.62 0 0 1 .324.128l9.914 7.86a.586.62 0 0 1 .234.5v-1a.586.62 0 0 0-.234-.5l-9.914-7.86a.586.62 0 0 0-.325-.128.586.62 0 0 0-.01 0 .586.62 0 0 0-.058 0" style="opacity:.2;fill:#fff"/><path d="M18.8 32.75c-.386 7.323 3.213 7.997 5.17 11.25 1.958-3.253 5.559-3.927 5.173-11.25h-9.979z" style="fill:#ff7c19" transform="matrix(1.15392 0 0 1.33333 4.339 .334)"/><path d="M512.084 343.6c-.296 1.024-.534 2.048-.57 3.08a4.33 4.33 0 0 0 .666 2.52h2.661c.527-.826.697-1.661.666-2.52-.036-1.012-.254-2.052-.57-3.08z" style="opacity:.2" transform="matrix(5 0 0 5 -2535.555 -1702.001)"/><path d="M512.084 343.4c-.296 1.024-.534 2.048-.57 3.08a4.33 4.33 0 0 0 .666 2.52h2.661c.527-.826.697-1.661.666-2.52-.036-1.012-.254-2.052-.57-3.08z" style="fill:#e4e4e4" transform="matrix(5 0 0 5 -2535.555 -1702.001)"/><path d="M-512.71 345.2a.8.8 0 0 1-.8.8.8.8 0 0 1-.8-.8.8.8 0 0 1 .798-.8.8.8 0 0 1 .801.798" style="opacity:.1" transform="matrix(-5 0 0 5 -2535.555 -1702.001)"/><path d="M-512.71 345a.8.8 0 0 1-.8.8.8.8 0 0 1-.8-.8.8.8 0 0 1 .798-.8.8.8 0 0 1 .801.798" style="fill:#007ede" transform="matrix(-5 0 0 5 -2535.555 -1702.001)"/><path d="M20.121 32.75c-.29 4.882 2.41 5.332 3.879 7.5 1.468-2.168 4.169-2.618 3.879-7.5h-7.484z" style="opacity:.2" transform="matrix(1.02551 0 0 1.27272 7.388 3.318)"/><path d="M20.121 32.75c-.29 4.882 2.41 5.332 3.879 7.5 1.468-2.168 4.169-2.618 3.879-7.5h-7.484z" style="fill:#ffe113" transform="matrix(1.02551 0 0 1.27272 7.388 2.318)"/><path d="M513.508 346.6a.2.276 0 0 0-.197.28v3.043a.2.277 0 1 0 .4 0v-3.042a.2.276 0 0 0-.203-.28m.002-5.401c.002-.002 1.427 2.2 1.427 2.2h-2.853z" style="fill:#e6461d" transform="matrix(5 0 0 5 -2535.555 -1702.001)"/><path d="m32 4-7.133 11h.649L32 5c.006-.009 5.41 8.345 6.48 10h.649S32.007 3.99 32 4" style="opacity:.2;fill:#fff"/></svg>