<svg xmlns="http://www.w3.org/2000/svg" xmlns:xlink="http://www.w3.org/1999/xlink" width="64" height="64"><defs><filter id="e" width="1.472" height="1.472" x="-.236" y="-.236" style="color-interpolation-filters:sRGB"><feGaussianBlur stdDeviation="2.063"/></filter><filter id="c" width="1.182" height="1.232" x="-.091" y="-.116" style="color-interpolation-filters:sRGB"><feGaussianBlur stdDeviation="2.084"/></filter><filter id="d" width="1.311" height="1.311" x="-.155" y="-.155" style="color-interpolation-filters:sRGB"><feGaussianBlur stdDeviation="1.739"/></filter><radialGradient xlink:href="#a" id="b" cx="-54.995" cy="-7.522" r="28" fx="-54.995" fy="-7.522" gradientTransform="rotate(39.194 -81.121 37.599)scale(1.68182 2.53094)" gradientUnits="userSpaceOnUse"/><linearGradient id="a"><stop offset="0" style="stop-color:#8e8e8e;stop-opacity:1"/><stop offset="1" style="stop-color:#5f5f5f;stop-opacity:1"/></linearGradient></defs><rect width="53.923" height="42.368" x="-58.962" y="-53.184" rx="9.546" ry="9.546" style="fill:url(#b);stroke-width:.962918" transform="rotate(90)scale(-1 1)"/><rect width="56" height="44" x="-60" y="-54" rx="9.913" ry="9.913" style="mix-blend-mode:normal;fill:none;stroke:#000;stroke-width:.2;stroke-dasharray:none;stroke-opacity:1;filter:url(#c)" transform="rotate(90 0 1.187)scale(-.96292 .96292)"/><path d="M31.978 9.722c-6.61 0-11.969 5.358-11.969 11.968v9.766a2.2 2.2 45 0 0 2.202 2.203h9.767c6.61 0 11.968-5.359 11.968-11.969S38.588 9.722 31.978 9.722m0 6.839a5.13 5.13 0 1 1 0 10.258 5.13 5.13 0 0 1 0-10.258" style="opacity:.383514;stroke-width:.854892" transform="translate(1.208 .477)scale(.96292)"/><path d="M31.846 12.382c-7.732 0-14 6.268-14 14v10.744a3.256 3.256 45 0 0 3.256 3.256h10.744c7.732 0 14-6.268 14-14s-6.268-14-14-14zm0 8a6 6 0 1 1 0 12 6 6 0 0 1 0-12z" style="mix-blend-mode:normal;fill:none;fill-opacity:1;stroke:#000;stroke-width:.350921;stroke-dasharray:none;stroke-opacity:1;filter:url(#d)" transform="translate(5.785 -.354)scale(.8232)"/><path d="M32.695 35.125c-6.012 0-10.886 4.874-10.886 10.887-.001 6.013 4.873 10.888 10.886 10.888 6.014 0 10.888-4.875 10.887-10.888s-4.874-10.887-10.887-10.887m0 4.084a2.04 2.04 45 0 1 2.041 2.04v.001a2.04 2.04 135 0 1-2.04 2.041h-.001a2.04 2.04 45 0 1-2.04-2.04v-.001a2.04 2.04 135 0 1 2.04-2.041m0 5.443a2.04 2.04 45 0 1 2.041 2.04v4.084a2.04 2.04 135 0 1-2.04 2.04h-.001a2.04 2.04 45 0 1-2.04-2.04v-4.083a2.04 2.04 135 0 1 2.04-2.04" class="st3" style="opacity:.38;fill:#000;fill-opacity:1;stroke-width:.680438" transform="matrix(.81435 0 0 -.81435 6.07 83.483)"/><path d="M32.695 35.125c-6.012 0-10.886 4.874-10.886 10.887-.001 6.013 4.873 10.888 10.886 10.888 6.014 0 10.888-4.875 10.887-10.888s-4.874-10.887-10.887-10.887Zm0 4.084a2.04 2.04 45 0 1 2.041 2.04v.001a2.04 2.04 135 0 1-2.04 2.041h-.001a2.04 2.04 45 0 1-2.04-2.04v-.001a2.04 2.04 135 0 1 2.04-2.041zm0 5.443a2.04 2.04 45 0 1 2.041 2.04v4.084a2.04 2.04 135 0 1-2.04 2.04h-.001a2.04 2.04 45 0 1-2.04-2.04v-4.083a2.04 2.04 135 0 1 2.04-2.04z" class="st3" style="fill:none;fill-opacity:1;stroke:#000;stroke-width:.368394;stroke-dasharray:none;stroke-opacity:1;filter:url(#e)" transform="matrix(.81435 0 0 -.81435 6.07 83.483)"/></svg>