<svg xmlns="http://www.w3.org/2000/svg" xmlns:xlink="http://www.w3.org/1999/xlink" width="64" height="64"><defs><filter id="g" width="1.441" height="1.441" x="-.221" y="-.221" style="color-interpolation-filters:sRGB"><feGaussianBlur stdDeviation="1.456"/></filter><filter id="f" width="1.223" height="1.206" x="-.112" y="-.103" style="color-interpolation-filters:sRGB"><feGaussianBlur stdDeviation="2.213"/></filter><filter id="e" width="1.265" height="1.241" x="-.132" y="-.121" style="color-interpolation-filters:sRGB"><feGaussianBlur stdDeviation="2.213"/></filter><radialGradient xlink:href="#a" id="d" cx="56.666" cy="41.043" r="26.201" fx="56.666" fy="41.043" gradientTransform="rotate(78.437 78.885 8.228)scale(1.44726 1.71141)" gradientUnits="userSpaceOnUse"/><radialGradient xlink:href="#b" id="c" cx="10.169" cy="19.316" r="25.704" fx="10.169" fy="19.316" gradientTransform="rotate(77.445 25.024 28.492)scale(1.38975 1.98169)" gradientUnits="userSpaceOnUse"/><linearGradient id="a"><stop offset="0" style="stop-color:#51b196;stop-opacity:1"/><stop offset="1" style="stop-color:#66ae83;stop-opacity:1"/></linearGradient><linearGradient id="b"><stop offset="0" style="stop-color:#318569;stop-opacity:1"/><stop offset="1" style="stop-color:#468e70;stop-opacity:1"/></linearGradient></defs><g style="stroke-width:.2;stroke-dasharray:none"><path d="M30.866 7.658a4.857 4.857 0 0 0-4.868 4.868v2.282a18.3 18.3 0 0 0-5.758 3.326l-1.979-1.14a4.86 4.86 0 0 0-6.65 1.782l-1.218 2.106a4.86 4.86 0 0 0 1.783 6.65l1.97 1.138a18.3 18.3 0 0 0-.32 3.33 18.3 18.3 0 0 0 .32 3.33l-1.97 1.137a4.86 4.86 0 0 0-1.783 6.651l1.217 2.106a4.86 4.86 0 0 0 6.651 1.783l1.965-1.134a18.3 18.3 0 0 0 5.772 3.314v2.287a4.857 4.857 0 0 0 4.868 4.868H33.3a4.857 4.857 0 0 0 4.868-4.868V49.18a18.3 18.3 0 0 0 5.758-3.313l1.978 1.14a4.86 4.86 0 0 0 6.65-1.782l1.218-2.106a4.86 4.86 0 0 0-1.783-6.65l-1.97-1.138a18.3 18.3 0 0 0 .32-3.33 18.3 18.3 0 0 0-.32-3.33l1.97-1.137a4.86 4.86 0 0 0 1.783-6.651l-1.217-2.106a4.86 4.86 0 0 0-6.651-1.783l-1.965 1.134a18.3 18.3 0 0 0-5.771-3.316v-2.285A4.857 4.857 0 0 0 33.3 7.658z" style="color:#000;fill:url(#c);stroke-width:.2;stroke-dasharray:none" transform="translate(0 .017)"/><path d="M30.866 5.746c-3.723 0-6.781 3.056-6.781 6.78v1.066q-2.101.915-3.941 2.279l-.926-.533-.002-.002c-3.224-1.86-7.4-.74-9.262 2.484l-1.218 2.104v.002c-1.862 3.225-.742 7.4 2.483 9.262l.913.528c-.089.758-.216 1.513-.219 2.277v.014c.003.764.13 1.519.22 2.277l-.914.528c-3.225 1.862-4.345 6.037-2.483 9.262v.002l1.218 2.106c1.862 3.224 6.04 4.342 9.264 2.48l.914-.528q1.847 1.362 3.953 2.272v1.068c0 3.724 3.058 6.78 6.781 6.78h2.435c3.724 0 6.78-3.056 6.78-6.78v-1.078a20 20 0 0 0 3.94-2.267l.929.535c3.224 1.86 7.4.74 9.262-2.482v-.002l1.218-2.104v-.002c1.862-3.225.742-7.4-2.483-9.262l-.913-.528c.089-.758.216-1.513.219-2.277v-.014c-.003-.764-.13-1.519-.22-2.277l.914-.528c3.225-1.862 4.345-6.037 2.483-9.262v-.002l-1.218-2.104v-.002c-1.862-3.223-6.04-4.342-9.264-2.48l-.914.528a20 20 0 0 0-3.953-2.274v-1.066c0-3.724-3.056-6.78-6.78-6.78zm0 3.824h2.435c1.671 0 2.955 1.285 2.955 2.956v3.64l1.278.45c1.89.665 3.642 1.67 5.167 2.968l1.028.875 3.132-1.81c1.447-.835 3.203-.364 4.038 1.083v.002l1.218 2.105c.834 1.446.363 3.203-1.084 4.038l-3.144 1.815.253 1.335c.186.98.28 1.975.285 2.973a16.4 16.4 0 0 1-.285 2.973l-.253 1.335 3.144 1.815c1.447.835 1.918 2.592 1.084 4.038l-1.218 2.105v.002c-.835 1.447-2.591 1.918-4.038 1.083v-.001l-3.148-1.816-1.025.875a16.4 16.4 0 0 1-5.155 2.966l-1.277.45v3.65c0 1.67-1.284 2.955-2.955 2.955h-2.435c-1.67 0-2.956-1.285-2.956-2.956v-3.642l-1.278-.45a16.3 16.3 0 0 1-5.167-2.966l-1.028-.875-3.132 1.81c-1.447.835-3.203.364-4.038-1.083v-.002l-1.218-2.104v-.001c-.834-1.446-.363-3.203 1.084-4.038l3.144-1.815-.253-1.335A16.3 16.3 0 0 1 15.74 32c.004-.998.1-1.993.285-2.973l.253-1.335-3.144-1.815c-1.447-.835-1.918-2.592-1.084-4.038v-.001l1.218-2.104v-.002c.835-1.447 2.591-1.918 4.038-1.083l.001.001 3.148 1.816 1.028-.878a16.3 16.3 0 0 1 5.155-2.977l1.273-.452v-3.633c0-1.671 1.286-2.956 2.956-2.956" style="color:#000;fill:url(#d);stroke-width:.2;stroke-dasharray:none" transform="translate(0 .017)"/><path d="M32.011 23.855a8.146 8.146 0 1 1 0 16.292 8.146 8.146 0 0 1 0-16.292" style="opacity:1;fill:#fff;stroke-width:.2;stroke-dasharray:none" transform="translate(0 .017)"/><path d="M30.783 9.553c-1.67 0-2.955 1.286-2.955 2.957v3.633l-1.275.45a16.3 16.3 0 0 0-5.155 2.977l-1.027.88-3.148-1.815-.002-.002c-1.447-.835-3.202-.365-4.037 1.082v.002l-1.217 2.103v.002c-.834 1.446-.365 3.204 1.082 4.04l3.144 1.814-.252 1.334c-.186.98-.28 1.976-.285 2.974.004.998.1 1.992.285 2.973l.252 1.334-3.144 1.816c-1.447.835-1.916 2.592-1.082 4.038v.002l1.217 2.103v.002c.835 1.447 2.59 1.917 4.037 1.082l3.133-1.809 1.027.873a16.4 16.4 0 0 0 5.168 2.967l1.28.451v3.641c0 1.67 1.283 2.957 2.954 2.957h2.436c1.67 0 2.953-1.286 2.953-2.957V47.81l1.277-.45a16.4 16.4 0 0 0 5.156-2.966l1.026-.875 3.148 1.816c1.447.835 3.202.365 4.037-1.082v-.002l1.217-2.105c.834-1.447.364-3.203-1.082-4.038l-3.144-1.816.252-1.334c.185-.98.28-1.975.285-2.973-.004-.998-.1-1.994-.285-2.974l-.252-1.334 3.144-1.815c1.446-.835 1.916-2.593 1.082-4.039l-1.217-2.105v-.002c-.835-1.447-2.59-1.917-4.037-1.082l-3.133 1.808-1.027-.873a16.4 16.4 0 0 0-5.168-2.968l-1.28-.45v-3.64c0-1.671-1.281-2.957-2.952-2.957zM32 23.853a8.147 8.147 0 1 1 0 16.294 8.147 8.147 0 0 1 0-16.293z" style="fill:none;stroke:#000;stroke-width:.2;stroke-dasharray:none;filter:url(#e)" transform="translate(0 .017)"/><path d="M30.783 5.729c-3.723 0-6.781 3.057-6.781 6.78v1.067q-2.101.915-3.941 2.278l-.926-.534h-.002c-3.225-1.86-7.4-.741-9.262 2.483l-1.217 2.105v.002c-1.862 3.225-.742 7.4 2.483 9.262l.912.527c-.09.758-.216 1.514-.219 2.278v.013c.003.764.13 1.52.219 2.278l-.912.527c-3.225 1.862-4.345 6.038-2.483 9.264v.002l1.217 2.105c1.862 3.224 6.039 4.342 9.264 2.48l.914-.529q1.847 1.362 3.953 2.274v1.066c0 3.724 3.058 6.781 6.781 6.781h2.436c3.723 0 6.779-3.057 6.779-6.78v-1.079a20 20 0 0 0 3.94-2.266l.93.536c3.224 1.86 7.4.74 9.26-2.483v-.002l1.218-2.103v-.002c1.862-3.226.742-7.402-2.483-9.264l-.912-.527c.09-.758.216-1.514.219-2.278v-.013c-.003-.764-.13-1.52-.219-2.278l.912-.527c3.225-1.862 4.345-6.039 2.483-9.264l-1.217-2.105c-1.862-3.224-6.039-4.345-9.264-2.483l-.914.53a20 20 0 0 0-3.953-2.274V12.51c0-3.724-3.056-6.781-6.78-6.781zm0 3.824h2.436c1.67 0 2.953 1.286 2.953 2.957v3.64l1.28.45a16.4 16.4 0 0 1 5.167 2.968l1.027.873 3.133-1.808c1.447-.835 3.202-.365 4.037 1.082v.002l1.217 2.105c.834 1.446.364 3.204-1.082 4.04l-3.144 1.814.252 1.334c.185.98.28 1.976.285 2.974a16.5 16.5 0 0 1-.285 2.973l-.252 1.334 3.144 1.816c1.446.835 1.916 2.591 1.082 4.038l-1.217 2.105v.002c-.835 1.447-2.59 1.917-4.037 1.082l-3.148-1.816-1.026.875a16.4 16.4 0 0 1-5.156 2.966l-1.277.45v3.648c0 1.67-1.282 2.957-2.953 2.957h-2.436c-1.67 0-2.955-1.286-2.955-2.957v-3.64l-1.28-.452a16.4 16.4 0 0 1-5.167-2.967l-1.027-.873-3.133 1.809c-1.447.835-3.202.365-4.037-1.082v-.002l-1.217-2.104v-.002c-.834-1.446-.364-3.202 1.082-4.037l3.144-1.816-.252-1.334a16.5 16.5 0 0 1-.285-2.973c.005-.998.1-1.994.285-2.974l.252-1.334-3.144-1.815c-1.446-.835-1.916-2.593-1.082-4.039v-.002l1.217-2.103v-.002c.835-1.447 2.59-1.917 4.037-1.082l.002.002 3.148 1.814 1.027-.879a16.3 16.3 0 0 1 5.155-2.976l1.275-.452V12.51c0-1.671 1.284-2.957 2.955-2.957z" style="fill:none;stroke:#000;stroke-width:.2;stroke-dasharray:none;filter:url(#f)" transform="translate(0 .017)"/><path d="M32 23.854a8.147 8.147 0 1 0 0 16.293 8.147 8.147 0 0 0 0-16.293z" style="fill:none;stroke:#000;stroke-width:.2;stroke-dasharray:none;filter:url(#g)" transform="translate(0 .017)"/></g></svg>