<svg xmlns="http://www.w3.org/2000/svg" xmlns:xlink="http://www.w3.org/1999/xlink" width="64" height="64"><defs><filter id="d" width="1.146" height="1.199" x="-.073" y="-.099" style="color-interpolation-filters:sRGB"><feGaussianBlur stdDeviation="1.658"/></filter><filter id="f" width="1.147" height="1.612" x="-.074" y="-.306" style="color-interpolation-filters:sRGB"><feGaussianBlur stdDeviation="1.672"/></filter><filter id="g" width="1.26" height="1.26" x="-.13" y="-.13" style="color-interpolation-filters:sRGB"><feGaussianBlur stdDeviation=".391"/></filter><filter id="h" width="1.26" height="1.26" x="-.13" y="-.13" style="color-interpolation-filters:sRGB"><feGaussianBlur stdDeviation=".391"/></filter><filter id="i" width="1.26" height="1.26" x="-.13" y="-.13" style="color-interpolation-filters:sRGB"><feGaussianBlur stdDeviation=".391"/></filter><filter id="r" width="1.146" height="1.199" x="-.073" y="-.099" style="color-interpolation-filters:sRGB"><feGaussianBlur stdDeviation="1.658"/></filter><filter id="t" width="1.147" height="1.612" x="-.074" y="-.306" style="color-interpolation-filters:sRGB"><feGaussianBlur stdDeviation="1.672"/></filter><filter id="u" width="1.26" height="1.26" x="-.13" y="-.13" style="color-interpolation-filters:sRGB"><feGaussianBlur stdDeviation=".391"/></filter><filter id="v" width="1.26" height="1.26" x="-.13" y="-.13" style="color-interpolation-filters:sRGB"><feGaussianBlur stdDeviation=".391"/></filter><filter id="w" width="1.26" height="1.26" x="-.13" y="-.13" style="color-interpolation-filters:sRGB"><feGaussianBlur stdDeviation=".391"/></filter><filter id="k" width="1.146" height="1.199" x="-.073" y="-.099" style="color-interpolation-filters:sRGB"><feGaussianBlur stdDeviation="1.658"/></filter><filter id="m" width="1.147" height="1.612" x="-.074" y="-.306" style="color-interpolation-filters:sRGB"><feGaussianBlur stdDeviation="1.672"/></filter><filter id="n" width="1.26" height="1.26" x="-.13" y="-.13" style="color-interpolation-filters:sRGB"><feGaussianBlur stdDeviation=".391"/></filter><filter id="o" width="1.26" height="1.26" x="-.13" y="-.13" style="color-interpolation-filters:sRGB"><feGaussianBlur stdDeviation=".391"/></filter><filter id="p" width="1.26" height="1.26" x="-.13" y="-.13" style="color-interpolation-filters:sRGB"><feGaussianBlur stdDeviation=".391"/></filter><radialGradient xlink:href="#a" id="c" cx="9.794" cy="53.224" r="27.922" fx="9.794" fy="53.224" gradientTransform="matrix(2.4419 0 0 2.23273 -9.175 -76.744)" gradientUnits="userSpaceOnUse"/><radialGradient xlink:href="#b" id="e" cx="26.667" cy="29.029" r="28" fx="26.667" fy="29.029" gradientTransform="matrix(0 1.3507 -1.52146 0 48.174 -32.592)" gradientUnits="userSpaceOnUse"/><radialGradient xlink:href="#a" id="q" cx="9.794" cy="53.224" r="27.922" fx="9.794" fy="53.224" gradientTransform="matrix(2.4419 0 0 2.23273 -9.175 -76.744)" gradientUnits="userSpaceOnUse"/><radialGradient xlink:href="#b" id="s" cx="26.667" cy="29.029" r="28" fx="26.667" fy="29.029" gradientTransform="matrix(0 1.3507 -1.52146 0 48.174 -32.592)" gradientUnits="userSpaceOnUse"/><radialGradient xlink:href="#a" id="j" cx="9.794" cy="53.224" r="27.922" fx="9.794" fy="53.224" gradientTransform="matrix(2.4419 0 0 2.23273 -9.175 -76.744)" gradientUnits="userSpaceOnUse"/><radialGradient xlink:href="#b" id="l" cx="26.667" cy="29.029" r="28" fx="26.667" fy="29.029" gradientTransform="matrix(0 1.3507 -1.52146 0 48.174 -32.592)" gradientUnits="userSpaceOnUse"/><linearGradient id="a"><stop offset="0" style="stop-color:#00baff;stop-opacity:1"/><stop offset="1" style="stop-color:#007aff;stop-opacity:1"/></linearGradient><linearGradient id="b"><stop offset="0" style="stop-color:#2563a2;stop-opacity:1"/><stop offset="1" style="stop-color:#266fd8;stop-opacity:1"/></linearGradient></defs><g style="opacity:.474867" transform="translate(14.396 -6.085)scale(.79037)"><path d="M9.954 11.427h44.092a5.876 5.876 45 0 1 5.876 5.876v29.394a5.876 5.876 135 0 1-5.876 5.876H9.954a5.876 5.876 45 0 1-5.876-5.876V17.303a5.876 5.876 135 0 1 5.876-5.876" style="fill:url(#c);fill-opacity:1;stroke-width:.4" transform="matrix(.94793 0 0 .83397 1.794 10.598)"/><path d="M9.954 11.427h44.092a5.876 5.876 45 0 1 5.876 5.876v29.394a5.876 5.876 135 0 1-5.876 5.876H9.954a5.876 5.876 45 0 1-5.876-5.876V17.303a5.876 5.876 135 0 1 5.876-5.876z" style="opacity:1;mix-blend-mode:normal;fill:none;fill-opacity:1;stroke:#000;stroke-width:.213131;stroke-dasharray:none;stroke-opacity:1;filter:url(#d)" transform="matrix(.94793 0 0 .83397 1.666 10.623)"/><path d="M4.076 9.774 4 17.361h56V9.88c0-3.247-2.632-5.907-5.878-5.917A26224 26224 0 0 0 10.013 3.9a5.945 5.945 0 0 0-5.937 5.874" style="opacity:1;fill:url(#e);fill-opacity:1" transform="translate(1.808 9.468)scale(.9475)"/><path d="M4.076 9.774 4 17.361h56V9.88c0-3.247-2.632-5.907-5.878-5.917A26224 26224 0 0 0 10.013 3.9a5.945 5.945 0 0 0-5.937 5.874Z" style="fill:none;fill-opacity:1;stroke:#000;stroke-width:.211082;stroke-dasharray:none;stroke-opacity:1;filter:url(#f)" transform="translate(1.839 9.495)scale(.9475)"/><circle cx="12.055" cy="19.752" r="2.922" style="fill:#ff8383;fill-opacity:1;stroke-width:.730536"/><circle cx="20.822" cy="19.752" r="2.922" style="fill:#ffdb7f;fill-opacity:1;stroke-width:.730536"/><circle cx="29.588" cy="19.752" r="2.922" style="fill:#7fff96;fill-opacity:1;stroke-width:.730536"/><circle cx="12" cy="20.155" r="4" style="opacity:1;mix-blend-mode:normal;fill:none;stroke:#f44a4f;stroke-width:.2;stroke-dasharray:none;stroke-opacity:1;filter:url(#g)" transform="translate(3.19 5.05)scale(.73054)"/><circle cx="24" cy="20.155" r="4" style="opacity:1;mix-blend-mode:normal;fill:none;stroke:#ffce00;stroke-width:.2;stroke-dasharray:none;stroke-opacity:1;filter:url(#h)" transform="translate(3.19 5.05)scale(.73054)"/><circle cx="36" cy="20.155" r="4" style="opacity:1;mix-blend-mode:normal;fill:none;stroke:#00ff7c;stroke-width:.2;stroke-dasharray:none;stroke-opacity:1;filter:url(#i)" transform="translate(3.19 5.05)scale(.73054)"/></g><g style="opacity:.7929014" transform="translate(6.61 5.458)scale(.79037)"><path d="M9.954 11.427h44.092a5.876 5.876 45 0 1 5.876 5.876v29.394a5.876 5.876 135 0 1-5.876 5.876H9.954a5.876 5.876 45 0 1-5.876-5.876V17.303a5.876 5.876 135 0 1 5.876-5.876" style="fill:url(#j);fill-opacity:1;stroke-width:.4" transform="matrix(.94793 0 0 .83397 1.794 10.598)"/><path d="M9.954 11.427h44.092a5.876 5.876 45 0 1 5.876 5.876v29.394a5.876 5.876 135 0 1-5.876 5.876H9.954a5.876 5.876 45 0 1-5.876-5.876V17.303a5.876 5.876 135 0 1 5.876-5.876z" style="opacity:1;mix-blend-mode:normal;fill:none;fill-opacity:1;stroke:#000;stroke-width:.213131;stroke-dasharray:none;stroke-opacity:1;filter:url(#k)" transform="matrix(.94793 0 0 .83397 1.666 10.623)"/><path d="M4.076 9.774 4 17.361h56V9.88c0-3.247-2.632-5.907-5.878-5.917A26224 26224 0 0 0 10.013 3.9a5.945 5.945 0 0 0-5.937 5.874" style="opacity:1;fill:url(#l);fill-opacity:1" transform="translate(1.808 9.468)scale(.9475)"/><path d="M4.076 9.774 4 17.361h56V9.88c0-3.247-2.632-5.907-5.878-5.917A26224 26224 0 0 0 10.013 3.9a5.945 5.945 0 0 0-5.937 5.874Z" style="fill:none;fill-opacity:1;stroke:#000;stroke-width:.211082;stroke-dasharray:none;stroke-opacity:1;filter:url(#m)" transform="translate(1.839 9.495)scale(.9475)"/><circle cx="12.055" cy="19.752" r="2.922" style="fill:#ff8383;fill-opacity:1;stroke-width:.730536"/><circle cx="20.822" cy="19.752" r="2.922" style="fill:#ffdb7f;fill-opacity:1;stroke-width:.730536"/><circle cx="29.588" cy="19.752" r="2.922" style="fill:#7fff96;fill-opacity:1;stroke-width:.730536"/><circle cx="12" cy="20.155" r="4" style="opacity:1;mix-blend-mode:normal;fill:none;stroke:#f44a4f;stroke-width:.2;stroke-dasharray:none;stroke-opacity:1;filter:url(#n)" transform="translate(3.19 5.05)scale(.73054)"/><circle cx="24" cy="20.155" r="4" style="opacity:1;mix-blend-mode:normal;fill:none;stroke:#ffce00;stroke-width:.2;stroke-dasharray:none;stroke-opacity:1;filter:url(#o)" transform="translate(3.19 5.05)scale(.73054)"/><circle cx="36" cy="20.155" r="4" style="opacity:1;mix-blend-mode:normal;fill:none;stroke:#00ff7c;stroke-width:.2;stroke-dasharray:none;stroke-opacity:1;filter:url(#p)" transform="translate(3.19 5.05)scale(.73054)"/></g><g transform="translate(-1.177 17.001)scale(.79037)"><path d="M9.954 11.427h44.092a5.876 5.876 45 0 1 5.876 5.876v29.394a5.876 5.876 135 0 1-5.876 5.876H9.954a5.876 5.876 45 0 1-5.876-5.876V17.303a5.876 5.876 135 0 1 5.876-5.876" style="fill:url(#q);fill-opacity:1;stroke-width:.4" transform="matrix(.94793 0 0 .83397 1.794 10.598)"/><path d="M9.954 11.427h44.092a5.876 5.876 45 0 1 5.876 5.876v29.394a5.876 5.876 135 0 1-5.876 5.876H9.954a5.876 5.876 45 0 1-5.876-5.876V17.303a5.876 5.876 135 0 1 5.876-5.876z" style="opacity:1;mix-blend-mode:normal;fill:none;fill-opacity:1;stroke:#000;stroke-width:.213131;stroke-dasharray:none;stroke-opacity:1;filter:url(#r)" transform="matrix(.94793 0 0 .83397 1.666 10.623)"/><path d="M4.076 9.774 4 17.361h56V9.88c0-3.247-2.632-5.907-5.878-5.917A26224 26224 0 0 0 10.013 3.9a5.945 5.945 0 0 0-5.937 5.874" style="opacity:1;fill:url(#s);fill-opacity:1" transform="translate(1.808 9.468)scale(.9475)"/><path d="M4.076 9.774 4 17.361h56V9.88c0-3.247-2.632-5.907-5.878-5.917A26224 26224 0 0 0 10.013 3.9a5.945 5.945 0 0 0-5.937 5.874Z" style="fill:none;fill-opacity:1;stroke:#000;stroke-width:.211082;stroke-dasharray:none;stroke-opacity:1;filter:url(#t)" transform="translate(1.839 9.495)scale(.9475)"/><circle cx="12.055" cy="19.752" r="2.922" style="fill:#ff8383;fill-opacity:1;stroke-width:.730536"/><circle cx="20.822" cy="19.752" r="2.922" style="fill:#ffdb7f;fill-opacity:1;stroke-width:.730536"/><circle cx="29.588" cy="19.752" r="2.922" style="fill:#7fff96;fill-opacity:1;stroke-width:.730536"/><circle cx="12" cy="20.155" r="4" style="opacity:1;mix-blend-mode:normal;fill:none;stroke:#f44a4f;stroke-width:.2;stroke-dasharray:none;stroke-opacity:1;filter:url(#u)" transform="translate(3.19 5.05)scale(.73054)"/><circle cx="24" cy="20.155" r="4" style="opacity:1;mix-blend-mode:normal;fill:none;stroke:#ffce00;stroke-width:.2;stroke-dasharray:none;stroke-opacity:1;filter:url(#v)" transform="translate(3.19 5.05)scale(.73054)"/><circle cx="36" cy="20.155" r="4" style="opacity:1;mix-blend-mode:normal;fill:none;stroke:#00ff7c;stroke-width:.2;stroke-dasharray:none;stroke-opacity:1;filter:url(#w)" transform="translate(3.19 5.05)scale(.73054)"/></g></svg>