<svg xmlns="http://www.w3.org/2000/svg" width="64" height="64"><rect width="58" height="58" x="3" y="4" rx="2.9" ry="2.9" style="opacity:.2"/><rect width="58" height="58" x="3" y="3" rx="2.9" ry="2.9" style="fill:#ff7515"/><path d="M11.441 20a.433.433 0 0 0-.441.422v25.16c0 .23.198.418.441.418h5.246c.243 0 .442-.189.442-.418v-19.07c0-.228.197-.418.441-.418h13.024c3.45 0 4.43 2.56 4.43 4.21v15.278c0 .23.197.418.44.418h5.095a.43.43 0 0 0 .441-.418V27.734c0-1.472-.182-3.59-2.145-5.453C36.803 20.336 34.93 20 32.835 20Zm35.961 0a.413.413 0 0 0-.402.422v25.16c0 .23.18.418.402.418h5.196c.22 0 .402-.189.402-.418v-25.16a.415.415 0 0 0-.402-.422ZM23.387 32a.38.38 0 0 0-.387.367v13.27c0 .2.174.363.387.363h5.23a.374.374 0 0 0 .383-.363v-13.27a.376.376 0 0 0-.383-.367Z" style="opacity:.2"/><path d="M11.441 19a.433.433 0 0 0-.441.422v25.16c0 .23.198.418.441.418h5.246c.243 0 .442-.189.442-.418v-19.07c0-.228.197-.418.441-.418h13.024c3.45 0 4.43 2.56 4.43 4.21v15.278c0 .23.197.418.44.418h5.095a.43.43 0 0 0 .441-.418V26.734c0-1.472-.182-3.59-2.145-5.453C36.803 19.336 34.93 19 32.835 19Zm35.961 0a.413.413 0 0 0-.402.422v25.16c0 .23.18.418.402.418h5.196c.22 0 .402-.189.402-.418v-25.16a.415.415 0 0 0-.402-.422ZM23.387 31a.38.38 0 0 0-.387.367v13.27c0 .2.174.363.387.363h5.23a.374.374 0 0 0 .383-.363v-13.27a.376.376 0 0 0-.383-.367Z" style="fill:#fff"/><path d="M5.898 3A2.89 2.89 0 0 0 3 5.898v1A2.89 2.89 0 0 1 5.898 4h52.204A2.89 2.89 0 0 1 61 6.898v-1A2.89 2.89 0 0 0 58.102 3z" style="opacity:.2;fill:#fff"/></svg>