<svg xmlns="http://www.w3.org/2000/svg" width="64" height="64"><path d="M10 56v2c0 1.662 1.338 3 3 3h38c1.662 0 3-1.338 3-3v-2c0 1.662-1.338 3-3 3H13c-1.662 0-3-1.338-3-3" style="opacity:.2"/><path d="M13 4c-1.662 0-3 1.338-3 3v50c0 1.662 1.338 3 3 3h38c1.662 0 3-1.338 3-3V7c0-1.662-1.338-3-3-3z" style="fill:#961a1a"/><path d="M13 4c-1.662 0-3 1.338-3 3v50c0 1.662 1.338 3 3 3h5V4z" style="opacity:.2"/><path d="M13 4c-1.662 0-3 1.338-3 3v1c0-1.662 1.338-3 3-3h38c1.662 0 3 1.338 3 3V7c0-1.662-1.338-3-3-3z" style="opacity:.1;fill:#fff"/><path d="M32 13v10H22v8h10v22h8V31h10v-8H40V13Z" style="opacity:.2"/><path d="M32 12h8v40h-8z" style="fill:#fff"/><path d="M22-50h8v28h-8z" style="fill:#fff" transform="rotate(90)"/></svg>