<svg xmlns="http://www.w3.org/2000/svg" width="64" height="64"><rect width="56" height="56" x="4" y="5" rx="16.8" ry="16.8" style="opacity:.2"/><rect width="56" height="56" x="4" y="4" rx="16.8" ry="16.8" style="fill:#f8a084"/><path d="M20.8 4C11.495 4 4 11.494 4 20.8v1C4 12.495 11.494 5 20.8 5h22.4C52.505 5 60 12.494 60 21.8v-1C60 11.495 52.506 4 43.2 4z" style="fill:#fff;opacity:.2"/><circle cx="32" cy="33" r="20" style="opacity:.2"/><path d="M42.748 15.16c-1.093.204-2.185.44-2.748.44-4.618 0-9.991 1.943-13.176 5.843-2.719 3.33-3.59 8.318-3.787 12.211.196-1.932 2.779-2.316 4.102-3.402 1.439-1.181 2.703-5.451 4.861-5.451q.406 0 .81.04l.024.003C41.28 25.28 47.5 31.444 47.5 40c0 1.714-.278 3.362-.777 4.91.14.063.273.11.406.156l.008-.01c.282-.326.54-.669.799-1.011a20 20 0 0 0 .373-.49c.219-.31.418-.63.619-.95a20 20 0 0 0 .404-.66 20 20 0 0 0 .496-.93 20 20 0 0 0 .363-.751q.216-.475.407-.96a20 20 0 0 0 .297-.808c.107-.312.212-.625.304-.941a20 20 0 0 0 .24-.948c.068-.285.14-.569.196-.857a20 20 0 0 0 .17-1.123c.033-.25.077-.498.101-.75A20 20 0 0 0 52 32q-.003-.63-.045-1.26v-.006q-.014-.177-.031-.355a20 20 0 0 0-.201-1.66q-.033-.185-.07-.37l-.005-.02a20 20 0 0 0-.302-1.348l-.002-.004a20 20 0 0 0-1.323-3.608q-.165-.351-.343-.695l-.006-.014-.002-.002q-.279-.522-.588-1.027l-.012-.018a20 20 0 0 0-.5-.781l-.004-.006-.004-.008a20 20 0 0 0-1.261-1.666l-.008-.01-.217-.246a20 20 0 0 0-1.274-1.338l-.017-.015-.098-.092q-.359-.34-.736-.662l.012-.014a20 20 0 0 0-2.215-1.615m2.623 31.19q-.184.177-.375.35l-.02.046q.2-.195.395-.396" style="fill:#ccc"/><path d="M32.818 24.041c4.034.41 5.881 3.916 5.881 8.059q0 .405-.04.81l-.003.024C38.22 41.38 32.556 47.6 24 47.6c-1.714 0-4.206-1.3-5.754-1.8.05.044-.02.256-.144.552A20 20 0 0 0 32 52q.63-.003 1.26-.045h.006q.178-.014.355-.031.834-.066 1.66-.201.185-.033.37-.07l.02-.005q.68-.128 1.348-.302l.004-.002a20 20 0 0 0 3.608-1.323q.351-.165.695-.343l.014-.006.002-.002a20 20 0 0 0 1.027-.588l.018-.012q.396-.24.781-.5l.006-.004.008-.004a20 20 0 0 0 1.666-1.261l.01-.008.246-.217q.695-.604 1.338-1.273l.015-.018.092-.098q.34-.359.662-.736C47.72 43.391 48 41.73 48 40c0-8.56-6.728-15.53-15.182-15.96zM17.254 45.076q.195.2.396.395a20 20 0 0 1-.35-.375z" style="fill:#fff"/><path d="M18.924 17.254q-.2.195-.395.396.186-.176.375-.35zm-1.883 1.498A20 20 0 0 0 12 32a20 20 0 0 0 .045 1.26c.008.12.021.24.031.361a20 20 0 0 0 .201 1.66c.022.131.05.26.075.39a20 20 0 0 0 .302 1.349q.09.345.194.687a20 20 0 0 0 .37 1.115q.157.43.333.852a20 20 0 0 0 .428.957c.114.237.226.476.35.709l.001.002a20 20 0 0 0 .588 1.027 20 20 0 0 0 1.79 2.488l.216.247q.603.695 1.273 1.337l.116.108q.359.34.736.662A16 16 0 0 0 24 48c8.56 0 15.53-6.728 15.959-15.182-.41 4.034-3.817 6.881-7.959 6.881q-.406 0-.81-.04l-.024-.003C22.72 39.22 16.4 32.556 16.4 24c0-1.714.278-3.362.778-4.91-.046-.125-.091-.22-.137-.338" style="fill:#ccc"/><path d="M31.182 39.959c-1.065-.108 4.606-1.352 3.748-1.836C32.535 36.773 24.4 35.049 24.4 32c0-.27-.386-.541-.359-.81l.002-.024C24.479 22.72 31.445 16 40 16c1.714 0 3.362.278 4.91.777A20 20 0 0 0 32 12a20 20 0 0 0-15.21 7.049A16 16 0 0 0 16 24c0 8.56 6.728 15.53 15.182 15.959m15.564-21.436a20 20 0 0 0-.396-.394q.177.185.35.375zM45.5 17.29" style="fill:#fff"/><circle cx="32" cy="32" r="9" style="fill:#4f4f4f"/><path d="M54.98 5c-.75 0-1.504.288-2.08.863l-5.195 5.196.002.002-15.59 15.587-1.558 4.676-.518 1.559h-.002L29 36l3.117-1.04v-.001l1.559-.518 4.676-1.558 15.587-15.59.002.002 5.196-5.195a2.935 2.935 0 0 0 0-4.159l-2.078-2.078A2.93 2.93 0 0 0 54.98 5" style="opacity:.1"/><path d="M47.706 10.06 32.118 25.648l6.234 6.234L53.94 16.294Z" style="fill:#b94141"/><path d="m32.118 25.648-1.56 4.676-.518 1.558 2.078 2.078 1.558-.518 4.676-1.56-3.116-3.118z" style="fill:#f6b473"/><path d="m47.705 10.06 6.235 6.235 5.196-5.196a2.933 2.933 0 0 0 0-4.157l-2.078-2.078a2.933 2.933 0 0 0-4.157 0z" style="fill:#8a5f5a"/><path d="M26.62 40.85h1.47v8.818h-1.47z" style="fill:#fff" transform="rotate(-45)"/><path d="M30.04 31.882 29 35l3.118-1.04Z" style="fill:#7d5651"/></svg>