<svg xmlns="http://www.w3.org/2000/svg" width="64" height="64"><rect width="56" height="56" x="4" y="5" rx="5.6" ry="5.6" style="opacity:.2"/><rect width="56" height="56" x="4" y="4" rx="5.6" ry="5.6" style="fill:#e4e4e4"/><path d="M30.105 54.3c-.545-.667-1.402-1.344-1.214-2.302.075-2.905-.004-6.054-1.922-8.425-1.64-1.839-3.265-3.73-4.287-6.006-1.344-2.704-1.964-5.693-2.856-8.552-.403-1.8-3.469-2.84-2.704-4.639.992-.635 2.9.063 1.537-1.594-.043-1.416 4.446-2.04 1.805-3.607-1.526-1.16 1.238-1.466 2.18-1.32.979-.681.106-1.811.16-2.4.633-.407 2.151-.073 1-1.173.864-.396 1.562-.515 1.496-1.513 1.16-.298-.31-1.326.966-1.773.912-1.702 2.638.707 3.014 1.466.623.407 1.028 1.492 1.912 1.392-.228.722-.038 2.294.913 1.434 1.467-1.01.448 1.672 1.146 2.12 1.127 1.539 2.497.773 3.72-.091 2.063-.004 1.924 2.983 3.566 3.766 1.414 1.097 3.167.36 4.702.54 1.232 1.152 1.248 3.064 1.593 4.634.628 4.959-.62 9.91-1.85 14.68-.516 1.74-1.335 4.004-3.473 4.12-1.844-.039-3.076 3.017-.55 2.973 1.308 1.395-1.63 3.018-2.741 3.712-1.5 1.042-3.463.529-4.217-1.152-1.63-.846-1.064 3.077-2.766 3.46-.333.169-.756.524-1.13.25m.39-.502c-.232-.383-.428.39 0 0m1.033-.352c1.205-2.072 1.513-4.535 2.29-6.786.2-.881 1.029-3.161.879-3.368-1.33 2.771-2.127 5.773-2.978 8.711.353-2.843 1.446-5.562 2.43-8.243.987-2.667 1.752-5.44 2.21-8.24.032-4.968-.076-9.937-.016-14.901.559-2.302.227.764.19 1.534-.073 3.766.484 7.524.155 11.29-.053 1.951-.451 4.098-.725 5.893 1.544-4.296 1.06-8.967.916-13.44-.135-2.143-.312-4.357.246-6.45.816-.963.344.773.389.556.17.142-.734.828.35.442-.363.299-.925.938 0 .55-1.551.994.363.43.345.535-.822.014-1.475.829-.926 1.416.785-.43 2.876-.763.962-.16-.923.095-1.573 1.307-.228.624.752-.384 3.095-.695 1.038-.177-.73.005-3.044 1.512-1.033.75.915-.449 3.495-.57 1.193-.15-.878.056-3.031 1.391-.973.817.925-.367 2.132-.332.499.06-.848-.02-2.241 1.383-.614.768.897-.309 4.038-.706 1.608-.177-.657-.057-3.75 1.156-1.648.814.851-.222 3.532-.433 3.143-.223-1.155.231-3.202-.005-3.719.937.782.018 3.515-.557 3.24-.249-.87.268-3.73.162-3.072 1.227 1.24-.462 2.597-.244 3.895-.324-1.372.184-2.875.045-4.1.756.401.64 3.25-.65 3.383-.197-.975.295-3.167.303-3.322 1.284.973-.181 2.868-.662 3.333-.297-1.05.286-2.847.037-3.353.937 1.187-.052 3.115-.261 3.84-.053-1.095.305-3.226-.268-3.638.792 1.302-.21 3.604-.351 4.268-.08-1.346.139-3.455-.179-4.27.677 1.178.151 2.372.089 3.558.117-1.22.081-2.441.157-3.66.269-.014 1.536 2.66.066 3.741.598 2.434.438-.987.129-1.725.18-.838-.504-3.123.95-1.2.7.722-.186 3.99.005 1.647.143-.683-.159-3.919.385-1.871.71.957.099 3.869.008 3.796.5-1.362-.14-3.656-.843-4.499.2.712.233 3.488.078 2.89.297-.855.197-3.013-.41-3.014.612.506-.123 3.818-.09 2.254.042-1.023-.097-3.195.584-1.02.563.717-.044 3.872.197 1.564.223-.727.145-3.038-.308-2.903.51.673-.01 3.192.15 2.847.469-.747-.023-3.345-.48-2.967.4.774.045 3.18.133 2.892.524-.713-.193-3.57-.467-3.002.191 1.178.098 2.799.11 3.629.738-1.108-.344-4.004-.964-4.018.192.614-.117 3.359.332 2.672.433-.907.033-2.535-.48-2.978.285 1.068.236 3.951.258 3.942 1.102-.987-.647-3.75-1.127-4-.345.747.02 3.668.817 3.052.884-.843-.121-3.46-1.16-3.224-.21.993.102 2.564.374 3.114.766-.757-.085-3.533-.965-3.224-.291.942.364 2.644.529 3.117 1.177-.92-.245-3.166-1.326-3.413-.565.95.227 2.704.546 3.064 1.185-.813-.276-3.16-1.343-3.212-.576.603.036 2.886.93 2.297 1.039-.663-.275-2.615-1.228-2.651-.3.716-.127 3.27 1.442 1.321.632-.669-.73-2.596-.065-.973.39.711.119 2.005 1.073.548.437-.837-.517-2.19-.222-.573.34 1.968 1.08-.67-.28-1.034.292.672.297 2.447 1.76.722.703-1.059-.85-1.282.55-.034.601 1.998 1.585-2.205-1.158-.714.386 1.254 1.005.27.275-.596.152.417.724.908.942-.225.639-.486 1.395 1.472 2.471 2.419 3.192.945.145 2.921-.514 1.205-1.234-1.203-1.147 2.556 1.59 1.285-.143-.765-.445-1.716-1.252-.246-.433 1.376.829.848.03.008-.575.998 1.049 2.832.33 2.293-1.11-2.494-.136-1.632-3.368.33-3.599 2.224-.062 3.21-2.205 3.655-4.082.612-2.636 1.413-5.245 1.756-7.933.132-3.453.57-7.15-1.051-10.344-1.283-.966-3.37.34-4.824-.722-1.981-.476-1.596-4.14-3.729-3.738-1.428 1.36-3.322 1.162-4.944.59-1.418 1.51-2.887 2.811-4.782 3.698-1.159 1.234-2.76 2.256-2.931 4.1-.774 1.833-.884 3.89-.075 5.732 1.435 4.523 4.03 8.549 5.593 13.022.163.034-.122-2.061-.116-2.741-.023-1.32-.606-3.632-.404-4.413.66 2.939.705 5.976.977 8.963.319-1.701-.117-3.687.3-5.27.408 1.635.037 3.307.087 4.974.144-.879.744-3.808.493-1.342-.197 1.329-.062 3.467-.394 4.362.017-.745-.58-2.073-.488-.55-.187 1.618-.698 3.718 1.167 4.572zm4.427-2.081c-.062-.574.579.411 0 0m.462-.342c-.99-1.235 1.192.665.202.206zm-4.911-.79c-.6-1.153-.043-3.118.143-4.73.658-3.691.865-7.461 1.66-11.123.083 1.446-.452 3.476-.585 5.14-.282 2.67-.843 5.324-1.099 7.984.548-1.54.789-3.336 1.234-4.971 1.274-5 1.468-10.18 1.371-15.315-.03-.764.033-3.897.178-1.611.213 6.226.017 12.552-1.714 18.576-.349 1.31-.732 3.27-.961 4.246-.48-1.4-.09 1.97.235-.033 1.282-3.373 2.484-6.78 3.238-10.317.901-3.551.423-7.259.568-10.88.034-2.27-.029-4.545.131-6.808.32-.623.062 2.187.149 2.901-.063 4.203.143 8.425-.17 12.617-.82 4.07-1.936 8.074-3.444 11.944-.326.557-.88 3.19-.93 2.683zm7.815-.586c-.994-1.005 1.42.881 0 0m-5.472-.43c-.064-.575.583.413 0 0m5.61-.122c-.069-.633.496.325 0 0m-6.356-5.216c.312-1.123.233.582 0 0m8.687-.133c-.29-.696.81.3 0 0m-10.663-1.042c.667-4.407 1.566-8.808 1.486-13.29.204-1.834.215 2.09.127 2.963-.234 3.652-.864 7.268-1.523 10.863-.204.632-.081-.492-.09-.536m2.282.438c.57-2.472 1.246-4.932 1.71-7.42.113 1.664-.604 3.452-.947 5.13-.228.696-.41 1.865-.763 2.29m8.66-.03c-.143-.438 1.059.488 0 0m.156-.48c-.679-.452 1.466.448 0 0m.767-.208c-.59-.847.878.623 0 0m-14.048-.506c-.182-1.156-.905-3.84-.695-4.17.261 1.18.972 3.704.695 4.17m1.144-.822c-.205-.498-.187-2.57-.156-2.443-.134 1.083.902 2.051.29 2.67zm12.682.05c-.074-.379 1.195.463 0 0m.814-.281c-.41-.516.886.468 0 0m.22-1.03c-1.207-.8 1.35.514 0 0M30.67 38.542c-.1-2.392-.147-4.837.108-7.201a65 65 0 0 1-.033 7.939zm-1.033-1.923c-.197-1.105.04-1.408.125-.144.04 1.157-.047 1.4-.124.153zm-.846.14c.273-.965.162.93 0 0m-.94.023c-.193-.874.086-1.496.192-.214.09.213-.037.685-.192.214m.794-1.259c-.238-.736-.056-1.825.103-.404.015-.023.106.916-.103.404m6.512-7.21c.012-2.38-.015-4.763.064-7.142.33 3.868.138 7.787.14 11.675.017.716-.095 3.503-.165 1.517-.04-2.016-.036-4.033-.04-6.05m6.566 6.906c.363-.376.39.365 0 0M31.57 32.256c.04-1.57-.239-3.47-.18-4.824.52 2.52.449 5.14.323 7.694-.13-.948-.107-1.915-.143-2.87m-5.07 1.582c-.533-1.76.328-.22.234.597-.134-.17-.15-.404-.234-.597m6.952-.579c.203-1.325-.082-5.028.413-5.072.078 1.577-.05 3.849-.413 5.072m11.854-3.143c.72-.11-.068.168 0 0m-17.756-.384c-.13-.936-.708-3.89-.318-3.658.118 1.148.48 2.815.318 3.658m17.681-.134c-.723-.479 1.69.354 0 0m.25-.48c-1.064-.61 1.36.325 0 0m-17.334-.794c-.33-.958-.383-3.14-.01-1.02-.044.146.308 1.195.01 1.02m16.56.014c1.144-.036-.106.117 0 0m.198-.836c.72-.11-.068.168 0 0m-18.15-.375c-.31-.596-.466-2.808-.009-.928-.006.122.273 1.124.01.928m18.376-.066c.386-.274.657.218 0 0m.05-.524c.362-.362.547.31 0 0m-15.02-.528c.035-1.466.433 1.103-.001 0zm14.62-.779c.256-.355.528.35 0 0m-15.468-.334c-.47-.845-.918-3.737-.187-1.263-.003.047.614 1.977.187 1.263m.68.092c-.177-.737-1.28-4.143-.346-1.848.084.34.786 2.165.346 1.848m.667-.481c-.414-.906-.795-3.146-.113-.961-.065.046.53 1.287.113.96m1.917-1.353c-.226-.971-.602-3.383-.314-3.533.063 1.086.548 2.784.314 3.533m.596.055c-.296-.864-.34-4.448-.05-1.803-.037.452.337 1.617.05 1.803m-4.967-.153c-.5-1.512.556.142 0 0m9.105-.648c.7-.514 1.973-.637.498-.074.216-.134-.887.4-.498.074m-3.804-.795c-.267-.95.057-1.679.147-.254.053.044.076 1.225-.147.254m-1.794-1.001c-.177-1.303.45.809 0 0m-2.203 30.553c.517-3.324-.36-6.682-1.686-9.712-.634-1.66-1.948-2.917-2.585-4.585-.371-.93-1.373-2.504-1.231-3.143.374.845.757 1.588.29.203-1.28-3.244-1.503-6.809-3.055-9.96-.3-.79-.782-1.559.233-.746 1.162.745 1.226 3.31 1.883 3.995.33-1.146-1.151-3.275-.751-3.657.36.578 1.49 3.895 1.027 1.634-.263-.816-1.002-3.232-.067-1.251.733 1.459.452-.04.366-.68.69 1.444 1.058-.288 2.163-.536.219-.875.932-1.967 1.34-1.908-.027-.824.706.708.437-.621-.164-.219 2.032 1.013.985-.046-.763-.468-1.645-.918-2.199.024-1.141.976-2.236 2.382-3.911 2.151-1.071-.152-4.63-1.144-3.15.995.637.837-.653-1.6.461-.058.543 1.16.738.628.256-.235.707.07 1.303 2.83 1.676 3.995.936 3.75 1.507 7.66 3.44 11.073.347.737 2.19 3.412.126 2.177-.907-.844.918 1.667 1.181 2.057.554.677 1.447 2.6 1.685 2.592-.387-1.443-1.774-2.925-1.898-4.195 1.442 1.165 1.762 3.271 2.215 4.995.593 2.164.42 4.438.57 6.657.2-.345.117-.832.2-1.215m5.84-9.54c.338-.852.409-2-.035-.488-.399.968-.728 2.798-.07.815zm-10.779-1.823c-.383-.623-1.216-1.467-.383-.26.609.967 1.618 1.939.383.26m1.208.218c-.206-.606-2.153-3.118-.699-2.022-1.863-3.383-2.456-7.23-3.3-10.947-.322-.06.586 1.892.023 2.202.535 1.389.406 2.902.707 4.407.486 2.298 1.55 4.498 2.966 6.347.044.027.611.551.303.013m-2.032-3.657c-.482-.696-.692-2.236-.094-.659.347.486.744 1.821.094.66m-.075 1.368c-1.013-1.552.78 1.674 0 0m-.601-.279c-.595-.563.252.619 0 0m-.397-.739c-.556-.64.301.839 0 0m.09-1.035c-.412-1.065-.96-3.834-1.251-3.9.224 1.35 1.104 4.438 1.461 4.596l-.09-.316zm-.481-.059c-.353-.108.298 1.027 0 0m2.697-.026c-.556-.64.3.838 0 0m-3.397-2.244c-.346-.541.276 1.614 0 0m-.244-.854c-.179-.195.065.55 0 0m-.365-1.573c-.468-2.168-1.504-4.33-3.394-5.584.394-.239 1.304.722.862-.118 1.392.584 2.263 3.422 2.67 3.649-.264-1.154-1.608-2.839-1.592-3.57.622.874 1.239 1.468.467.132.505-1.78-4.518-1.157-2.154.364 1.5 1.393 2.568 3.198 2.963 5.215.39 1.36.453 1.084.178-.088m.365-.201c-.179-.195.065.55 0 0m.379-2.217c-.022-.5-.348.299 0 0m1.458-.572c-.425.062-.025-.06 0 0m-.349-1.165c-.322-1.043-.714-2.357-1.336-3.11.45.944 1.093 3.279 1.422 3.514zm-1.374-.837c-.546-.665.22.723 0 0m-.316-.817c-.177-.064.11.657 0 0m2.139-3.716c-.322-.763-.807 1.62 0 0m-.547-.195c.524-.778-.805-3.47.263-1.568.211 1.249.396 1.132.647.021 0 .823-.463 3.375.187 1.231.211-.934.421-1.908.335-.394-.263.953.034 1.864.293.398.176-1.122.237-1.26.229-.04.297 1.173.585-2.306.662-.118.382-.087.383-1.458.558-.124.25-1.19 2.135-1.718 2.728-1.501.718 1.362.634.122.463-.61.352.653.846 2.292.616.536-.385-1.623.133-.06.494.14-.786-1.533 1.055-1.288 1.058-1.302-.517-.747.93.492.47-.681.305-.63 1.57-2.44.042-1.208-1.22.235-1.21 2.393-2.52 1.167-.25-1.37.944 1.268.351-.41-.873-1.816-2.038 1.897-3.472.278-1.61-.806-2.356 2.368-4.269 1.255-.993-.347-2.074.72-.491.44 2.315.017-.887 2.697-.042 2.59.366-.685 1.42-2.526 1.245-.67-.494.66-.45 1.966.153.57m.313-2.01c-.4-1.046.717.284 0 0m2.239-.954c.342-.62 1.182-1.646.601-.159.068.341-.453.277-.601.16m.877-.11c-.528-.885 1.065.4 0 0m.572-.222c-.702-.656.72-.022.232.176zm2.233-.388c-.31-.611.362-.044 0 0m2.173-.354c-.169-.732.482.33 0 0m-8.908 3.748c.665-1.413-1.437 1.934-.221.362zm11.975-2.201c-1.042-.923-1.041-.587-.022.066zm-3.8-.512c-.395.246.318.707 0 0m2.848.216c-1.197-.54.297.38 0 0m-9.332-.994c.094-.651-.524.554 0 0m8.36-.106c.012-1.723-.717 1.104 0 0m-2.09-.538c-.783-.476.401.943 0 0m-2.56.04c.472-1.427 2.594-1.111 2.364-2.806-.516.305-.994.78-.404.89-.745.755-1.769-.082-1-.144.035-.787-2.048.173-1.21.6-.985.442-.648-.318-.671-.631-.52.155-1.303.724-.728.923-.888.748-.713-.16-1.014-.535-1.184 1.03 1.978 2.168 2.663 1.703m.4-.958c-.069-.633.496.325 0 0m2.359-.092c-.27.086.302.774 0 0m.708.226c-.763-1.287-.465.212 0 0m-6.942-.215c-1.446-.537-.504.241 0 0m1.528-1.133c1.291-.86-1.263-.662 0 0m4.58-.075c-.18-.195.065.55 0 0m-2.743-.37c.448-.468.785-.65 1.53-.582-.223-.809-1.95.178-2.61.176-.252 1.08.343-.63.476.564.198-.038.39-.309.604-.157m-.145-1.317c.81.011-.091-1.25-.756-.35-.801.325.853 1.142.756.35m1.215-.676c-.53-.61-.657.648 0 0m-1.551-.518c1.528-.317-1.07-.533-.308.095-.003-.042.308.015.308-.095m1.016-.316c-.55-.518-.066.839 0 0m-.89-.6c-.318-.357-.474.517 0 0" style="opacity:.1"/><path d="M9.602 4A5.59 5.59 0 0 0 4 9.602v1A5.59 5.59 0 0 1 9.602 5h44.796A5.59 5.59 0 0 1 60 10.602v-1A5.59 5.59 0 0 0 54.398 4z" style="opacity:.2;fill:#fff"/><path d="M30.105 53.9c-.545-.667-1.402-1.344-1.214-2.302.075-2.905-.004-6.054-1.922-8.425-1.64-1.839-3.265-3.73-4.287-6.006-1.344-2.704-1.964-5.693-2.856-8.552-.403-1.8-3.469-2.84-2.704-4.639.992-.635 2.9.063 1.537-1.594-.043-1.416 4.446-2.04 1.805-3.607-1.526-1.16 1.238-1.466 2.18-1.32.979-.681.106-1.811.16-2.4.633-.407 2.151-.073 1-1.173.864-.396 1.562-.515 1.496-1.513 1.16-.298-.31-1.326.966-1.773.912-1.702 2.638.707 3.014 1.466.623.407 1.028 1.492 1.912 1.392-.228.722-.038 2.294.913 1.434 1.467-1.01.448 1.672 1.146 2.12 1.127 1.539 2.497.773 3.72-.091 2.063-.004 1.924 2.983 3.566 3.766 1.414 1.097 3.167.36 4.702.54 1.232 1.152 1.248 3.064 1.593 4.634.628 4.959-.62 9.91-1.85 14.68-.516 1.74-1.335 4.004-3.473 4.12-1.844-.039-3.076 3.017-.55 2.973 1.308 1.395-1.63 3.018-2.741 3.712-1.5 1.042-3.463.529-4.217-1.152-1.63-.846-1.064 3.077-2.766 3.46-.333.169-.756.524-1.13.25m.39-.502c-.232-.383-.428.39 0 0m1.033-.352c1.205-2.072 1.513-4.535 2.29-6.786.2-.881 1.029-3.161.879-3.368-1.33 2.771-2.127 5.773-2.978 8.711.353-2.843 1.446-5.562 2.43-8.243.987-2.667 1.752-5.44 2.21-8.24.032-4.968-.076-9.937-.016-14.901.559-2.302.227.764.19 1.534-.073 3.766.484 7.524.155 11.29-.053 1.951-.451 4.098-.725 5.893 1.544-4.296 1.06-8.967.916-13.44-.135-2.143-.312-4.357.246-6.45.816-.963.344.773.389.556.17.142-.734.828.35.442-.363.299-.925.938 0 .55-1.551.994.363.43.345.535-.822.014-1.475.829-.926 1.416.785-.43 2.876-.763.962-.16-.923.095-1.573 1.307-.228.624.752-.384 3.095-.695 1.038-.177-.73.005-3.044 1.512-1.033.75.915-.449 3.495-.57 1.193-.15-.878.056-3.031 1.391-.973.817.925-.367 2.132-.332.499.06-.848-.02-2.241 1.383-.614.768.897-.309 4.038-.706 1.608-.177-.657-.057-3.75 1.156-1.648.814.851-.222 3.532-.433 3.143-.223-1.155.231-3.202-.005-3.719.937.782.018 3.515-.557 3.24-.249-.87.268-3.73.162-3.072 1.227 1.24-.462 2.597-.244 3.895-.324-1.372.184-2.875.045-4.1.756.401.64 3.25-.65 3.383-.197-.975.295-3.167.303-3.322 1.284.973-.181 2.868-.662 3.333-.297-1.05.286-2.847.037-3.353.937 1.187-.052 3.115-.261 3.84-.053-1.095.305-3.226-.268-3.638.792 1.302-.21 3.604-.351 4.268-.08-1.346.139-3.455-.179-4.27.677 1.178.151 2.372.089 3.558.117-1.22.081-2.441.157-3.66.269-.014 1.536 2.66.066 3.741.598 2.434.438-.987.129-1.725.18-.838-.504-3.123.95-1.2.7.722-.186 3.99.005 1.647.143-.683-.159-3.919.385-1.871.71.957.099 3.869.008 3.796.5-1.362-.14-3.656-.843-4.499.2.712.233 3.488.078 2.89.297-.855.197-3.013-.41-3.014.612.506-.123 3.818-.09 2.254.042-1.023-.097-3.195.584-1.02.563.717-.044 3.872.197 1.564.223-.727.145-3.038-.308-2.903.51.673-.01 3.192.15 2.847.469-.747-.023-3.345-.48-2.967.4.774.045 3.18.133 2.892.524-.713-.193-3.57-.467-3.002.191 1.178.098 2.799.11 3.629.738-1.108-.344-4.004-.964-4.018.192.614-.117 3.359.332 2.672.433-.907.033-2.535-.48-2.978.285 1.068.236 3.951.258 3.942 1.102-.987-.647-3.75-1.127-4-.345.747.02 3.668.817 3.052.884-.843-.121-3.46-1.16-3.224-.21.993.102 2.564.374 3.114.766-.757-.085-3.533-.965-3.224-.291.942.364 2.644.529 3.117 1.177-.92-.245-3.166-1.326-3.413-.565.95.227 2.704.546 3.064 1.185-.813-.276-3.16-1.343-3.212-.576.603.036 2.886.93 2.297 1.039-.663-.275-2.615-1.228-2.651-.3.716-.127 3.27 1.442 1.321.632-.669-.73-2.596-.065-.973.39.711.119 2.005 1.073.548.437-.837-.517-2.19-.222-.573.34 1.968 1.08-.67-.28-1.034.292.672.297 2.447 1.76.722.703-1.059-.85-1.282.55-.034.601 1.998 1.585-2.205-1.158-.714.386 1.254 1.005.27.275-.596.152.417.724.908.942-.225.639-.486 1.395 1.472 2.471 2.419 3.192.945.145 2.921-.514 1.205-1.234-1.203-1.147 2.556 1.59 1.285-.143-.765-.445-1.716-1.252-.246-.433 1.376.829.848.03.008-.575.998 1.049 2.832.33 2.293-1.11-2.494-.136-1.632-3.368.33-3.599 2.224-.062 3.21-2.205 3.655-4.082.612-2.636 1.413-5.245 1.756-7.933.132-3.453.57-7.15-1.051-10.344-1.283-.966-3.37.34-4.824-.722-1.981-.476-1.596-4.14-3.729-3.738-1.428 1.36-3.322 1.162-4.944.59-1.418 1.51-2.887 2.811-4.782 3.698-1.159 1.234-2.76 2.256-2.931 4.1-.774 1.833-.884 3.89-.075 5.732 1.435 4.523 4.03 8.549 5.593 13.022.163.034-.122-2.061-.116-2.741-.023-1.32-.606-3.632-.404-4.413.66 2.939.705 5.976.977 8.963.319-1.701-.117-3.687.3-5.27.408 1.635.037 3.307.087 4.974.144-.879.744-3.808.493-1.342-.197 1.329-.062 3.467-.394 4.362.017-.745-.58-2.073-.488-.55-.187 1.618-.698 3.718 1.167 4.572zm4.427-2.081c-.062-.574.579.411 0 0m.462-.342c-.99-1.235 1.192.665.202.206zm-4.911-.79c-.6-1.153-.043-3.118.143-4.73.658-3.691.865-7.461 1.66-11.123.083 1.446-.452 3.476-.585 5.14-.282 2.67-.843 5.324-1.099 7.984.548-1.54.789-3.336 1.234-4.971 1.274-5 1.468-10.18 1.371-15.315-.03-.764.033-3.897.178-1.611.213 6.226.017 12.552-1.714 18.576-.349 1.31-.732 3.27-.961 4.246-.48-1.4-.09 1.97.235-.033 1.282-3.373 2.484-6.78 3.238-10.317.901-3.551.423-7.259.568-10.88.034-2.27-.029-4.545.131-6.808.32-.623.062 2.187.149 2.901-.063 4.203.143 8.425-.17 12.617-.82 4.07-1.936 8.074-3.444 11.944-.326.557-.88 3.19-.93 2.683zm7.815-.586c-.994-1.005 1.42.881 0 0m-5.472-.43c-.064-.575.583.413 0 0m5.61-.122c-.069-.633.496.325 0 0m-6.356-5.216c.312-1.123.233.582 0 0m8.687-.133c-.29-.696.81.3 0 0m-10.663-1.042c.667-4.407 1.566-8.808 1.486-13.29.204-1.834.215 2.09.127 2.963-.234 3.652-.864 7.268-1.523 10.863-.204.632-.081-.492-.09-.536m2.282.438c.57-2.472 1.246-4.932 1.71-7.42.113 1.664-.604 3.452-.947 5.13-.228.696-.41 1.865-.763 2.29m8.66-.03c-.143-.438 1.059.488 0 0m.156-.48c-.679-.452 1.466.448 0 0m.767-.208c-.59-.847.878.623 0 0m-14.048-.506c-.182-1.156-.905-3.84-.695-4.17.261 1.18.972 3.704.695 4.17m1.144-.822c-.205-.498-.187-2.57-.156-2.443-.134 1.083.902 2.051.29 2.67zm12.682.05c-.074-.379 1.195.463 0 0m.814-.281c-.41-.516.886.468 0 0m.22-1.03c-1.207-.8 1.35.514 0 0M30.67 38.142c-.1-2.392-.147-4.837.108-7.201a65 65 0 0 1-.033 7.939zm-1.033-1.923c-.197-1.105.04-1.408.125-.144.04 1.157-.047 1.4-.124.153zm-.846.14c.273-.965.162.93 0 0m-.94.023c-.193-.874.086-1.496.192-.214.09.213-.037.685-.192.214m.794-1.259c-.238-.736-.056-1.825.103-.404.015-.023.106.916-.103.404m6.512-7.21c.012-2.38-.015-4.763.064-7.142.33 3.868.138 7.787.14 11.675.017.716-.095 3.503-.165 1.517-.04-2.016-.036-4.033-.04-6.05m6.566 6.906c.363-.376.39.365 0 0M31.57 31.856c.04-1.57-.239-3.47-.18-4.824.52 2.52.449 5.14.323 7.694-.13-.948-.107-1.915-.143-2.87m-5.07 1.582c-.533-1.76.328-.22.234.597-.134-.17-.15-.404-.234-.597m6.952-.579c.203-1.325-.082-5.028.413-5.072.078 1.577-.05 3.849-.413 5.072m11.854-3.143c.72-.11-.068.168 0 0m-17.756-.384c-.13-.936-.708-3.89-.318-3.658.118 1.148.48 2.815.318 3.658m17.681-.134c-.723-.479 1.69.354 0 0m.25-.48c-1.064-.61 1.36.325 0 0m-17.334-.794c-.33-.958-.383-3.14-.01-1.02-.044.146.308 1.195.01 1.02m16.56.014c1.144-.036-.106.117 0 0m.198-.836c.72-.11-.068.168 0 0m-18.15-.375c-.31-.596-.466-2.808-.009-.928-.006.122.273 1.124.01.928m18.376-.066c.386-.274.657.218 0 0m.05-.524c.362-.362.547.31 0 0m-15.02-.528c.035-1.466.433 1.103-.001 0zm14.62-.779c.256-.355.528.35 0 0m-15.468-.334c-.47-.845-.918-3.737-.187-1.263-.003.047.614 1.977.187 1.263m.68.092c-.177-.737-1.28-4.143-.346-1.848.084.34.786 2.165.346 1.848m.667-.481c-.414-.906-.795-3.146-.113-.961-.065.046.53 1.287.113.96m1.917-1.353c-.226-.971-.602-3.383-.314-3.533.063 1.086.548 2.784.314 3.533m.596.055c-.296-.864-.34-4.448-.05-1.803-.037.452.337 1.617.05 1.803m-4.967-.153c-.5-1.512.556.142 0 0m9.105-.648c.7-.514 1.973-.637.498-.074.216-.134-.887.4-.498.074m-3.804-.795c-.267-.95.057-1.679.147-.254.053.044.076 1.225-.147.254m-1.794-1.001c-.177-1.303.45.809 0 0m-2.203 30.553c.517-3.324-.36-6.682-1.686-9.712-.634-1.66-1.948-2.917-2.585-4.585-.371-.93-1.373-2.504-1.231-3.143.374.845.757 1.588.29.203-1.28-3.244-1.503-6.809-3.055-9.96-.3-.79-.782-1.559.233-.746 1.162.745 1.226 3.31 1.883 3.995.33-1.146-1.151-3.275-.751-3.657.36.578 1.49 3.895 1.027 1.634-.263-.816-1.002-3.232-.067-1.251.733 1.459.452-.04.366-.68.69 1.444 1.058-.288 2.163-.536.219-.875.932-1.967 1.34-1.908-.027-.824.706.708.437-.621-.164-.219 2.032 1.013.985-.046-.763-.468-1.645-.918-2.199.024-1.141.976-2.236 2.382-3.911 2.151-1.071-.152-4.63-1.144-3.15.995.637.837-.653-1.6.461-.058.543 1.16.738.628.256-.235.707.07 1.303 2.83 1.676 3.995.936 3.75 1.507 7.66 3.44 11.073.347.737 2.19 3.412.126 2.177-.907-.844.918 1.667 1.181 2.057.554.677 1.447 2.6 1.685 2.592-.387-1.443-1.774-2.925-1.898-4.195 1.442 1.165 1.762 3.271 2.215 4.995.593 2.164.42 4.438.57 6.657.2-.345.117-.832.2-1.215m5.84-9.54c.338-.852.409-2-.035-.488-.399.968-.728 2.798-.07.815zm-10.779-1.823c-.383-.623-1.216-1.467-.383-.26.609.967 1.618 1.939.383.26m1.208.218c-.206-.606-2.153-3.118-.699-2.022-1.863-3.383-2.456-7.23-3.3-10.947-.322-.06.586 1.892.023 2.202.535 1.389.406 2.902.707 4.407.486 2.298 1.55 4.498 2.966 6.347.044.027.611.551.303.013m-2.032-3.657c-.482-.696-.692-2.236-.094-.659.347.486.744 1.821.094.66m-.075 1.368c-1.013-1.552.78 1.674 0 0m-.601-.279c-.595-.563.252.619 0 0m-.397-.739c-.556-.64.301.839 0 0m.09-1.035c-.412-1.065-.96-3.834-1.251-3.9.224 1.35 1.104 4.438 1.461 4.596l-.09-.316zm-.481-.059c-.353-.108.298 1.027 0 0m2.697-.026c-.556-.64.3.838 0 0m-3.397-2.244c-.346-.541.276 1.614 0 0m-.244-.854c-.179-.195.065.55 0 0m-.365-1.573c-.468-2.168-1.504-4.33-3.394-5.584.394-.239 1.304.722.862-.118 1.392.584 2.263 3.422 2.67 3.649-.264-1.154-1.608-2.839-1.592-3.57.622.874 1.239 1.468.467.132.505-1.78-4.518-1.157-2.154.364 1.5 1.393 2.568 3.198 2.963 5.215.39 1.36.453 1.084.178-.088m.365-.201c-.179-.195.065.55 0 0m.379-2.217c-.022-.5-.348.299 0 0m1.458-.572c-.425.062-.025-.06 0 0m-.349-1.165c-.322-1.043-.714-2.357-1.336-3.11.45.944 1.093 3.279 1.422 3.514zm-1.374-.837c-.546-.665.22.723 0 0m-.316-.817c-.177-.064.11.657 0 0m2.139-3.716c-.322-.763-.807 1.62 0 0m-.547-.195c.524-.778-.805-3.47.263-1.568.211 1.249.396 1.132.647.021 0 .823-.463 3.375.187 1.231.211-.934.421-1.908.335-.394-.263.953.034 1.864.293.398.176-1.122.237-1.26.229-.04.297 1.173.585-2.306.662-.118.382-.087.383-1.458.558-.124.25-1.19 2.135-1.718 2.728-1.501.718 1.362.634.122.463-.61.352.653.846 2.292.616.536-.385-1.623.133-.06.494.14-.786-1.533 1.055-1.288 1.058-1.302-.517-.747.93.492.47-.681.305-.63 1.57-2.44.042-1.208-1.22.235-1.21 2.393-2.52 1.167-.25-1.37.944 1.268.351-.41-.873-1.816-2.038 1.897-3.472.278-1.61-.806-2.356 2.368-4.269 1.255-.993-.347-2.074.72-.491.44 2.315.017-.887 2.697-.042 2.59.366-.685 1.42-2.526 1.245-.67-.494.66-.45 1.966.153.57m.313-2.01c-.4-1.046.717.284 0 0m2.239-.954c.342-.62 1.182-1.646.601-.159.068.341-.453.277-.601.16m.877-.11c-.528-.885 1.065.4 0 0m.572-.222c-.702-.656.72-.022.232.176zm2.233-.388c-.31-.611.362-.044 0 0m2.173-.354c-.169-.732.482.33 0 0m-8.908 3.748c.665-1.413-1.437 1.934-.221.362zm11.975-2.201c-1.042-.923-1.041-.587-.022.066zm-3.8-.512c-.395.246.318.707 0 0m2.848.216c-1.197-.54.297.38 0 0m-9.332-.994c.094-.651-.524.554 0 0m8.36-.106c.012-1.723-.717 1.104 0 0m-2.09-.538c-.783-.476.401.943 0 0m-2.56.04c.472-1.427 2.594-1.111 2.364-2.806-.516.305-.994.78-.404.89-.745.755-1.769-.082-1-.144.035-.787-2.048.173-1.21.6-.985.442-.648-.318-.671-.631-.52.155-1.303.724-.728.923-.888.748-.713-.16-1.014-.535-1.184 1.03 1.978 2.168 2.663 1.703m.4-.958c-.069-.633.496.325 0 0m2.359-.092c-.27.086.302.774 0 0m.708.226c-.763-1.287-.465.212 0 0m-6.942-.215c-1.446-.537-.504.241 0 0m1.528-1.133c1.291-.86-1.263-.662 0 0m4.58-.075c-.18-.195.065.55 0 0m-2.743-.37c.448-.468.785-.65 1.53-.582-.223-.809-1.95.178-2.61.176-.252 1.08.343-.63.476.564.198-.038.39-.309.604-.157m-.145-1.317c.81.011-.091-1.25-.756-.35-.801.325.853 1.142.756.35m1.215-.676c-.53-.61-.657.648 0 0m-1.551-.518c1.528-.317-1.07-.533-.308.095-.003-.042.308.015.308-.095m1.016-.316c-.55-.518-.066.839 0 0m-.89-.6c-.318-.357-.474.517 0 0" style="fill:#383838"/></svg>