<svg xmlns="http://www.w3.org/2000/svg" xmlns:xlink="http://www.w3.org/1999/xlink" xml:space="preserve" width="64" height="64"><defs><filter id="d" width="1.146" height="1.199" x="-.073" y="-.099" style="color-interpolation-filters:sRGB"><feGaussianBlur stdDeviation="1.658"/></filter><filter id="f" width="1.147" height="1.612" x="-.074" y="-.306" style="color-interpolation-filters:sRGB"><feGaussianBlur stdDeviation="1.672"/></filter><filter id="g" width="1.26" height="1.26" x="-.13" y="-.13" style="color-interpolation-filters:sRGB"><feGaussianBlur stdDeviation=".391"/></filter><filter id="h" width="1.26" height="1.26" x="-.13" y="-.13" style="color-interpolation-filters:sRGB"><feGaussianBlur stdDeviation=".391"/></filter><filter id="i" width="1.26" height="1.26" x="-.13" y="-.13" style="color-interpolation-filters:sRGB"><feGaussianBlur stdDeviation=".391"/></filter><radialGradient xlink:href="#a" id="c" cx="9.794" cy="53.224" r="27.922" fx="9.794" fy="53.224" gradientTransform="matrix(2.4419 0 0 2.23273 -9.175 -76.744)" gradientUnits="userSpaceOnUse"/><radialGradient xlink:href="#b" id="e" cx="26.667" cy="29.029" r="28" fx="26.667" fy="29.029" gradientTransform="matrix(0 1.3507 -1.52146 0 48.174 -32.592)" gradientUnits="userSpaceOnUse"/><radialGradient xlink:href="#b" id="j" cx="681.634" cy="392.565" r="181.328" fx="681.634" fy="392.565" gradientTransform="matrix(0 -2.12123 2.20132 0 -185.156 1841.434)" gradientUnits="userSpaceOnUse"/><linearGradient id="a"><stop offset="0" style="stop-color:#00baff;stop-opacity:1"/><stop offset="1" style="stop-color:#007aff;stop-opacity:1"/></linearGradient><linearGradient id="b"><stop offset="0" style="stop-color:#2563a2;stop-opacity:1"/><stop offset="1" style="stop-color:#266fd8;stop-opacity:1"/></linearGradient></defs><g transform="translate(-.124 -1.582)"><path d="M9.954 11.427h44.092a5.876 5.876 45 0 1 5.876 5.876v29.394a5.876 5.876 135 0 1-5.876 5.876H9.954a5.876 5.876 45 0 1-5.876-5.876V17.303a5.876 5.876 135 0 1 5.876-5.876" style="fill:url(#c);fill-opacity:1;stroke-width:.4" transform="matrix(.94793 0 0 .83397 1.794 10.598)"/><path d="M9.954 11.427h44.092a5.876 5.876 45 0 1 5.876 5.876v29.394a5.876 5.876 135 0 1-5.876 5.876H9.954a5.876 5.876 45 0 1-5.876-5.876V17.303a5.876 5.876 135 0 1 5.876-5.876z" style="opacity:1;mix-blend-mode:normal;fill:none;fill-opacity:1;stroke:#000;stroke-width:.213131;stroke-dasharray:none;stroke-opacity:1;filter:url(#d)" transform="matrix(.94793 0 0 .83397 1.666 10.623)"/><path d="M4.076 9.774 4 17.361h56V9.88c0-3.247-2.632-5.907-5.878-5.917A26224 26224 0 0 0 10.013 3.9a5.945 5.945 0 0 0-5.937 5.874" style="opacity:1;fill:url(#e);fill-opacity:1" transform="translate(1.808 9.468)scale(.9475)"/><path d="M4.076 9.774 4 17.361h56V9.88c0-3.247-2.632-5.907-5.878-5.917A26224 26224 0 0 0 10.013 3.9a5.945 5.945 0 0 0-5.937 5.874Z" style="fill:none;fill-opacity:1;stroke:#000;stroke-width:.211082;stroke-dasharray:none;stroke-opacity:1;filter:url(#f)" transform="translate(1.839 9.495)scale(.9475)"/><circle cx="12.055" cy="19.752" r="2.922" style="fill:#ff8383;fill-opacity:1;stroke-width:.730536"/><circle cx="20.822" cy="19.752" r="2.922" style="fill:#ffdb7f;fill-opacity:1;stroke-width:.730536"/><circle cx="29.588" cy="19.752" r="2.922" style="fill:#7fff96;fill-opacity:1;stroke-width:.730536"/><circle cx="12" cy="20.155" r="4" style="opacity:1;mix-blend-mode:normal;fill:none;stroke:#f44a4f;stroke-width:.2;stroke-dasharray:none;stroke-opacity:1;filter:url(#g)" transform="translate(3.19 5.05)scale(.73054)"/><circle cx="24" cy="20.155" r="4" style="opacity:1;mix-blend-mode:normal;fill:none;stroke:#ffce00;stroke-width:.2;stroke-dasharray:none;stroke-opacity:1;filter:url(#h)" transform="translate(3.19 5.05)scale(.73054)"/><circle cx="36" cy="20.155" r="4" style="opacity:1;mix-blend-mode:normal;fill:none;stroke:#00ff7c;stroke-width:.2;stroke-dasharray:none;stroke-opacity:1;filter:url(#i)" transform="translate(3.19 5.05)scale(.73054)"/></g><path d="m347.57 383.517 98.235-128.44a16.38 16.38 90.901 0 0 .306-19.49l-102.05-142.5a4.643 4.643 117.22 0 1 3.779-7.346l26.748.022a74.06 74.06 27.04 0 1 59.876 30.56l59.15 81.505a22.54 22.54 90.631 0 1-.296 26.878L376.94 377.854a32.53 32.53 153.616 0 1-25.9 12.848 4.45 4.45 64.216 0 1-3.47-7.185m189.922-23.331-58.702-81.59a22.55 22.55 90.857 0 1 .402-26.88L596.606 98.407a32.69 32.69 153.724 0 1 25.949-12.811 4.312 4.312 68.355 0 1 2.852 7.186l-98.695 129.122a16.41 16.41 90.936 0 0-.319 19.502l101.389 142.036a4.657 4.657 117.24 0 1-3.79 7.362h-26.75a73.6 73.6 27.133 0 1-59.75-30.62" style="fill:#fff;fill-opacity:.66164291" transform="translate(-2.776 20.757)scale(.07073)"/><path d="M488.992 146.408q-2.07 0-4.175.048c-12.53.279-16.46 9.518-8.876 19.497 3.52 4.631 6.967 9.177 10.412 13.722 9.961 13.144 11.137 12.355 2.79-1.857-4.158-7.081-6.572-13.106-3.798-17.25 5.717-8.54 16.251-7.102 17.054-7.102 16.888 0 33.145 1.907 48.343 5.437l3.563-4.906c-20.27-5.218-42.289-7.589-65.313-7.589m89.775 18.384c-.877 1.252-.354 2.747 1.155 3.367 45.316 18.615 75.758 53.05 75.758 92.4 0 59.106-68.665 107.063-153.281 107.063-84.617 0-153.313-47.957-153.313-107.063 0-29.615 17.246-56.44 45.1-75.836 4.054-2.822 5.296-8.23 2.586-12.36l-.09-.138c-2.71-4.13-8.606-5.934-13.066-3.809-45.966 21.903-75.936 57.728-75.936 98.206 0 66.634 81.222 120.687 181.312 120.687s181.344-54.053 181.344-120.687c0-43.672-34.896-81.96-87.13-103.158-1.511-.614-3.503-.008-4.44 1.328" style="fill:url(#j)" transform="translate(-2.776 20.757)scale(.07073)"/></svg>