<svg xmlns="http://www.w3.org/2000/svg" width="64" height="64"><rect width="56" height="56" x="4" y="4" rx="4.2" ry="4.2" style="fill:#e4e4e4"/><path d="m9.947 15 5.125 8.236L9.6 32h3.74l3.834-6.428L21.006 32H25l-5.564-8.572L24.606 15h-3.762l-3.487 6.117L13.803 15ZM26 15v17h4v-7h1.7l4.173 7H40l-5.156-7.97c2.11-.145 3.257-1.946 3.185-4.5.072-3.113-2.362-4.53-6.922-4.53Zm21.76 0q-2.501 0-4.239 1.088-1.714 1.089-2.619 3.012Q40 21.02 40 23.52q0 2.55.787 4.473.787 1.898 2.432 2.963Q44.886 32 47.434 32q1.322 0 2.388-.207a12 12 0 0 0 2.15-.65V28.2c-2.493.783-4.865 1.719-7.027-.556-.803-.846-.972-2.338-.972-4.098-.074-3.326 2.881-6.283 5.617-5.305q.949.324 1.875.764L52.6 16.16a12.5 12.5 0 0 0-2.385-.836A9.6 9.6 0 0 0 47.76 15M30 18h.975q1.566 0 2.285.455.74.435.74 1.492 0 1.017-.697 1.535-.678.518-2.266.518H30Zm10.986 18v3.38q0 .708.086 1.391.088.663.153 1.016h-.108c-.316-.5-.948-.92-1.494-1.258q-.819-.508-2.092-.508-2.027 0-3.279 1.59C33.418 42.671 33 44.715 33 46.775q0 3.068 1.23 4.657Q35.48 53 37.441 53q1.273 0 2.07-.51a4.3 4.3 0 0 0 1.274-1.277h.131L41.541 53H44V36Zm-16.343 3q-1.684 0-2.952.791-1.268.792-1.99 2.375-.7 1.558-.701 3.932 0 2.325.787 3.859.787 1.535 2.164 2.303 1.379.74 3.172.74 1.378 0 2.34-.246a6.8 6.8 0 0 0 1.86-.719v-2.844a10 10 0 0 1-1.946.815 8.3 8.3 0 0 1-2.102.248q-1.377 0-2.164-.89c-.51-.594-.78-1.325-.808-2.364H30v-1.867q0-2.943-1.441-4.526Q27.114 39 24.643 39m.021 3q1.159 0 1.705.861.548.836.57 2.139h-4.572q.11-1.54.723-2.271.634-.73 1.574-.729m13.72 1q1.501 0 2.048.902.567.902.568 2.62v.341q-.022 1.568-.59 2.364-.569.773-1.978.773-1.16 0-1.795-.86Q36 48.26 36 46.544t.637-2.62Q37.272 43 38.385 43" style="opacity:.1"/><path d="m9.947 14 5.125 8.236L9.6 31h3.74l3.834-6.428L21.006 31H25l-5.564-8.572L24.606 14h-3.762l-3.487 6.117L13.803 14zM26 14v17h4v-7h1.7l4.173 7H40l-5.156-7.97c2.11-.145 3.257-1.946 3.185-4.5.072-3.113-2.362-4.53-6.922-4.53zm21.76 0q-2.501 0-4.239 1.088-1.714 1.089-2.619 3.012Q40 20.02 40 22.52q0 2.55.787 4.473.787 1.898 2.432 2.963Q44.886 31 47.434 31q1.322 0 2.388-.207a12 12 0 0 0 2.15-.65V27.2c-2.493.783-4.865 1.719-7.027-.556-.803-.846-.972-2.338-.972-4.098-.074-3.326 2.881-6.283 5.617-5.305q.949.324 1.875.764L52.6 15.16a12.5 12.5 0 0 0-2.385-.836A9.6 9.6 0 0 0 47.76 14M30 17h.975q1.566 0 2.285.455.74.435.74 1.492 0 1.017-.697 1.535-.678.518-2.266.518H30z" style="fill:#3f3f3f"/><path d="M40.986 35v3.38q0 .708.086 1.391.088.663.153 1.016h-.108c-.316-.5-.948-.92-1.494-1.258q-.819-.508-2.092-.508-2.027 0-3.279 1.59C33.418 41.671 33 43.715 33 45.775q0 3.068 1.23 4.657Q35.48 52 37.441 52q1.273 0 2.07-.51a4.3 4.3 0 0 0 1.274-1.277h.131L41.541 52H44V35zm-16.343 3q-1.684 0-2.952.791-1.268.792-1.99 2.375-.7 1.558-.701 3.932 0 2.325.787 3.859.787 1.535 2.164 2.303 1.379.74 3.172.74 1.378 0 2.34-.246a6.8 6.8 0 0 0 1.86-.719v-2.844a10 10 0 0 1-1.946.815 8.3 8.3 0 0 1-2.102.248q-1.377 0-2.164-.89c-.51-.594-.78-1.325-.808-2.364H30v-1.867q0-2.943-1.441-4.526Q27.114 38 24.643 38m.021 3q1.159 0 1.705.861.548.836.57 2.139h-4.572q.11-1.54.723-2.271.634-.73 1.574-.729m13.72 1q1.501 0 2.048.902.567.902.568 2.62v.341q-.022 1.568-.59 2.364-.569.773-1.978.773-1.16 0-1.795-.86Q36 47.26 36 45.544t.637-2.62Q37.272 42 38.385 42" style="fill:#2c4bc8"/></svg>