<svg xmlns="http://www.w3.org/2000/svg" width="64" height="64"><defs><filter id="a" width="1.498" height="1.517" x="-.249" y="-.258" style="color-interpolation-filters:sRGB"><feGaussianBlur stdDeviation="4.169"/></filter><filter id="b" width="1.303" height="1.317" x="-.151" y="-.159" style="color-interpolation-filters:sRGB"><feGaussianBlur stdDeviation="3.052"/></filter></defs><path d="M8.434 23.998c-.303 1.083-5.856 21.938 15.443 22.95-3.63 6.006.04 14.46 15.742 1.759 1.155-.935 3.255-1.968 4.617-2.557 4.206-1.82 7.811-5.682 10.05-9.94 4.866-10.132 1.334-18.97-3.365-22.827C37.979 2.76 12.107 10.863 8.434 23.998" style="fill:#fff;stroke-linecap:round"/><path d="M26.343 51.168c-.068-.11.519-1.056 1.304-2.103 2.012-2.68 3.105-4.359 2.21-5.396-.367-.426-.869-.913-3.863-.913-6.481 0-9.137-1.256-11.148-3.432-2.765-2.993-3.684-9.086-2.263-14.166 1.667-5.958 8.04-10.367 17.523-12.12 6.18-.808 13.567-.756 18.18 3.694 4.089 4.08 4.994 11.62 2.115 17.613-1.883 3.922-5.313 7.311-9.589 8.448-1.5.398-1.689.538-3.98 2.943-2.448 2.569-5.738 4.147-8.026 5.126-1.227.525-2.25.652-2.463.306" style="opacity:.65021157;mix-blend-mode:normal;fill:#ffc933;stroke-width:.717091;filter:url(#a)" transform="translate(5.476 5.476)scale(.82888)"/><path d="M26.343 51.168c-.068-.11.519-1.056 1.304-2.103 2.012-2.68 3.105-4.359 2.21-5.396-.367-.426-.869-.913-3.863-.913-6.481 0-9.137-1.256-11.148-3.432-2.765-2.993-3.684-9.086-2.263-14.166 1.667-5.958 8.04-10.367 17.523-12.12 6.18-.808 13.567-.756 18.18 3.694 4.089 4.08 4.994 11.62 2.115 17.613-1.883 3.922-5.313 7.311-9.589 8.448-1.5.398-1.689.538-3.98 2.943-2.448 2.569-5.738 4.147-8.026 5.126-1.227.525-2.25.652-2.463.306" style="fill:#ffc933;stroke-width:.717091;opacity:.67559944"/><path d="M8.434 23.998c-.303 1.083-5.856 21.938 15.443 22.95-3.63 6.006.04 14.46 15.742 1.759 1.155-.935 3.255-1.968 4.617-2.557 4.206-1.82 7.811-5.682 10.05-9.94 4.866-10.132 1.334-18.97-3.365-22.827C37.979 2.76 12.107 10.863 8.434 23.998Z" style="fill:none;stroke-linecap:round;stroke:#000;stroke-opacity:1;stroke-width:.2;stroke-dasharray:none;filter:url(#b)" transform="translate(-.092 .097)"/></svg>