<svg xmlns="http://www.w3.org/2000/svg" xmlns:xlink="http://www.w3.org/1999/xlink" width="64" height="64"><defs><radialGradient xlink:href="#a" id="d" cx="33.505" cy="41.864" r="20" fx="33.505" fy="41.864" gradientTransform="matrix(8.64081 0 0 8.52109 -231.172 -254.198)" gradientUnits="userSpaceOnUse"/><radialGradient xlink:href="#b" id="h" cx="30.468" cy="44.691" r="14" fx="30.468" fy="44.691" gradientTransform="rotate(-15 -487.271 794.889)scale(6.5141 4.65292)" gradientUnits="userSpaceOnUse"/><radialGradient xlink:href="#c" id="f" cx="30.468" cy="44.691" r="14" fx="30.468" fy="44.691" gradientTransform="rotate(-15 -383.22 652.45)scale(5.47907 3.91362)" gradientUnits="userSpaceOnUse"/><linearGradient id="c"><stop offset="0" style="stop-color:#53e18c;stop-opacity:1"/><stop offset="1" style="stop-color:#003a14;stop-opacity:1"/></linearGradient><linearGradient id="b"><stop offset="0" style="stop-color:#316a9d;stop-opacity:1"/><stop offset="1" style="stop-color:#2e9e7d;stop-opacity:1"/></linearGradient><linearGradient id="a"><stop offset="0" style="stop-color:#dedede;stop-opacity:1"/><stop offset="1" style="stop-color:#fff;stop-opacity:.61702126"/></linearGradient><filter id="i" width="1.253" height="2.347" x="-.126" y="-.673" style="color-interpolation-filters:sRGB"><feGaussianBlur stdDeviation=".8"/></filter><filter id="e" width="1.212" height="1.157" x="-.106" y="-.078" style="color-interpolation-filters:sRGB"><feGaussianBlur stdDeviation="1.723"/></filter><filter id="g" width="1.935" height="2.309" x="-.468" y="-.655" style="color-interpolation-filters:sRGB"><feGaussianBlur stdDeviation="5.454"/></filter></defs><path d="m25 5.694.034.138a32.5 32.5 82.996 0 1 .966 7.86v1.503c0 3.008-2.398 6.126-4.912 7.763A20 20 0 0 0 12 39.694c0 11.046 8.954 20 20 20s20-8.954 20-20a20 20 0 0 0-9.088-16.758C40.398 21.3 38 18.181 38 15.173v-1.5a35.8 35.8 96.357 0 1 .878-7.881l.022-.098Z" style="opacity:1;fill:url(#d);fill-opacity:1"/><path d="M26 5.694v9.443c0 3.04-2.425 6.191-4.96 7.852A20 20 0 0 0 12 39.694c0 11.046 8.954 20 20 20s20-8.954 20-20a20 20 0 0 0-9.04-16.726C40.425 21.307 38 18.156 38 15.115v-9.42Z" style="fill:none;fill-opacity:1;stroke:#000;stroke-width:.2;stroke-dasharray:none;stroke-opacity:1;filter:url(#e)"/><path d="M19.371 34A14 14 0 0 0 18 40a14 14 0 0 0 14 14 14 14 0 0 0 14-14 14 14 0 0 0-1.367-6Z" style="opacity:.640338;mix-blend-mode:normal;fill:url(#f);filter:url(#g)" transform="translate(5.753 8.682)scale(.82023)"/><path d="M16.985 32.883a16.65 16.65 0 0 0-1.63 7.133A16.645 16.645 0 0 0 32 56.661a16.645 16.645 0 0 0 16.645-16.645 16.65 16.65 0 0 0-1.626-7.133Z" style="opacity:.685472;fill:url(#h);stroke-width:1.1889"/><rect width="16" height="3" x="24" y="4" rx="1.333" ry="1.5" style="fill:none;stroke:#000;stroke-opacity:1;stroke-width:.19999991;stroke-dasharray:none;filter:url(#i)"/><rect width="16" height="3" x="24" y="4" rx="1.333" ry="1.5" style="fill:#e4e4e4"/></svg>