<svg xmlns="http://www.w3.org/2000/svg" xmlns:xlink="http://www.w3.org/1999/xlink" width="64" height="64"><defs><radialGradient xlink:href="#a" id="c" cx="7.558" cy="53.431" r="21.577" fx="7.558" fy="53.431" gradientTransform="rotate(-15 -429.822 189.996)scale(3.26167)" gradientUnits="userSpaceOnUse"/><radialGradient xlink:href="#b" id="d" cx="32.547" cy="32.766" r="25.935" fx="32.547" fy="32.766" gradientTransform="rotate(-15 -138.473 243.088)scale(2.49795)" gradientUnits="userSpaceOnUse"/><linearGradient id="b"><stop offset="0" style="stop-color:#f33a38;stop-opacity:1"/><stop offset="1" style="stop-color:#fb7f2c;stop-opacity:1"/></linearGradient><linearGradient id="a"><stop offset="0" style="stop-color:#a6a6a6;stop-opacity:1"/><stop offset="1" style="stop-color:#ddd;stop-opacity:1"/></linearGradient><filter id="e" width="1.126" height="1.115" x="-.063" y="-.058" style="color-interpolation-filters:sRGB"><feGaussianBlur stdDeviation="1.228"/></filter></defs><circle cx="10.326" cy="42.156" r="2.734" style="fill:#9c2a19;stroke-width:.683587;fill-opacity:1"/><path d="M58.17 29.574A26.17 26.17 0 0 1 32 55.744a26.17 26.17 0 0 1-26.17-26.17A26.17 26.17 0 0 1 32 3.404a26.17 26.17 0 0 1 26.17 26.17" style="fill:url(#c);stroke:none;stroke-width:0;stroke-linecap:round;stroke-linejoin:round;stroke-miterlimit:4.1;stroke-dasharray:none;paint-order:stroke fill markers"/><path d="M10.666 8.744a5 5 0 0 0-3.404 1.73 4.99 4.99 0 0 0 .55 7.033l19.2 16.42v21.681A4.99 4.99 0 0 0 32 60.597a4.99 4.99 0 0 0 4.988-4.989V33.927l19.2-16.42a4.99 4.99 0 0 0 .55-7.033 4.99 4.99 0 0 0-7.033-.55L32 25.068 14.295 9.924a5 5 0 0 0-3.63-1.18" style="fill:url(#d);stroke:none;stroke-width:1.21855;stroke-linecap:round;stroke-linejoin:round"/><g style="filter:url(#e)" transform="translate(-58.168 -8.869)scale(1.0796)"><path d="M83.52 11.367a24.24 24.24 0 0 0-16.2 6.21l16.2 13.857 16.2-13.858a24.24 24.24 0 0 0-16.2-6.209m21.779 13.596L88.14 39.639v19.765a24.24 24.24 0 0 0 19.62-23.797 24.24 24.24 0 0 0-2.462-10.644m-43.559.002a24.24 24.24 0 0 0-2.46 10.642A24.24 24.24 0 0 0 78.9 59.404V39.64Z" style="fill:none;stroke:#000;stroke-width:.2;stroke-linecap:round;stroke-linejoin:round;stroke-miterlimit:4.1;stroke-dasharray:none;stroke-opacity:1;paint-order:stroke fill markers"/><path d="M64.363 16.305a5 5 0 0 0-.603.007 4.62 4.62 0 0 0-3.153 1.604 4.62 4.62 0 0 0 .508 6.514L78.9 39.639v20.084a4.62 4.62 0 0 0 4.62 4.62 4.62 4.62 0 0 0 4.62-4.62V39.639l17.784-15.21a4.62 4.62 0 0 0 .51-6.513 4.62 4.62 0 0 0-6.514-.51l-16.4 14.028-16.4-14.028a4.62 4.62 0 0 0-2.758-1.101" style="fill:none;stroke:#000;stroke-width:.2;stroke-linecap:round;stroke-linejoin:round;stroke-dasharray:none;stroke-opacity:1"/></g><path d="M26.048 44.784H10.326a2.74 2.74 0 0 1-2.735-2.735v8.887a6.14 6.14 0 0 0 6.152 6.152H32.2v-6.152a6.14 6.14 0 0 0-6.152-6.152" style="fill:#ff8650;fill-opacity:1;stroke-width:.683587"/><path d="M11.01 48.095v5.469h1.525q.788 0 1.242-.422.45-.42.45-1.164 0-.429-.108-.69a.93.93 0 0 0-.297-.398 1.1 1.1 0 0 0-.42-.191v-.038a.75.75 0 0 0 .523-.39q.188-.322.188-.79-.001-.772-.473-1.08-.471-.306-1.394-.306zm4.784 0v5.469h3.418v-.684h-2.734v-2.05h2.05v-.684h-2.05v-1.367h2.734v-.684zm4.785 0v.684h1.368v4.785h.752l-.069-4.785h1.367v-.684zm6.1 0-1.998 5.469h.813l.48-1.367h2.813l.414 1.367h.949l-2.006-5.469zm.736.436 1.086 2.982h-2.224zm-15.722.248h.894c.815-.039.807.742.807.742s.045.625-.756.625h-.945zm1.04 2.047c.279-.008.476.155.585.275.12.122.18.557.18.762 0 .224-.058.68-.174.818q-.174.2-.614.2h-1.017v-2.052h.984z" style="fill:#3f3f3f;stroke-width:.683587"/></svg>