<svg xmlns="http://www.w3.org/2000/svg" xmlns:xlink="http://www.w3.org/1999/xlink" width="64" height="64"><defs><filter id="g" width="1.309" height="1.701" x="-.154" y="-.351" style="color-interpolation-filters:sRGB"><feGaussianBlur stdDeviation="1.8"/></filter><filter id="f" width="1.144" height="1.352" x="-.072" y="-.176" style="color-interpolation-filters:sRGB"><feGaussianBlur stdDeviation="1.801"/></filter><filter id="d" width="1.229" height="1.327" x="-.115" y="-.163" style="color-interpolation-filters:sRGB"><feGaussianBlur stdDeviation="1.711"/></filter><radialGradient xlink:href="#a" id="e" cx="18.212" cy="63.086" r="30.63" fx="18.212" fy="63.086" gradientTransform="matrix(2.26302 .06517 -.02673 .93097 -23.842 -2.372)" gradientUnits="userSpaceOnUse"/><radialGradient xlink:href="#b" id="c" cx="30.495" cy="29.082" r="18.35" fx="30.495" fy="29.082" gradientTransform="matrix(1 0 0 .70156 0 8.68)" gradientUnits="userSpaceOnUse"/><linearGradient id="b"><stop offset="0" style="stop-color:#1d008f;stop-opacity:1"/><stop offset="1" style="stop-color:#2d2b4f;stop-opacity:1"/></linearGradient><linearGradient id="a"><stop offset="0" style="stop-color:#3488ff;stop-opacity:1"/><stop offset="1" style="stop-color:#9f70e2;stop-opacity:1"/></linearGradient></defs><path d="M30.357 16.209c-11.505 0-8.829 10.141-14.719 13.307-5.976 3.39-2.683 6.425-1.716 9.701 1.632 5.463 6.204 1.603 19.721-1.643s16.424-2.755 14.792-8.217c-.98-3.24 2.233-6.242-4.752-6.528-5.677.311-5.11-6.62-13.326-6.62" style="fill:url(#c);stroke-width:.821727;fill-opacity:1"/><path d="M30.357 16.209c-11.505 0-8.829 10.141-14.719 13.307-5.976 3.39-2.683 6.425-1.716 9.701 1.632 5.463 6.204 1.603 19.721-1.643s16.424-2.755 14.792-8.217c-.98-3.24 2.233-6.242-4.752-6.528-5.677.311-5.11-6.62-13.326-6.62z" style="fill:none;fill-opacity:1;stroke-width:.2;stroke:#000;stroke-opacity:1;stroke-dasharray:none;filter:url(#d)"/><ellipse cx="21.813" cy="37.672" rx="25.17" ry="10.322" style="fill:url(#e);stroke-width:.821727" transform="matrix(.97235 -.23352 .28643 .9581 0 0)"/><ellipse cx="21.813" cy="37.672" rx="30.63" ry="12.561" style="mix-blend-mode:normal;fill:none;stroke:#000;stroke-width:.20015;stroke-dasharray:none;stroke-opacity:1;filter:url(#f)" transform="matrix(.799 -.19189 .23537 .7873 5.705 5.526)"/><ellipse cx="24.602" cy="45.169" rx="11.772" ry="5.181" style="fill:#fff;stroke-width:.821727" transform="matrix(.97263 -.23237 .21506 .9766 0 0)"/><ellipse cx="24.605" cy="46.813" rx="14.326" ry="6.305" style="mix-blend-mode:normal;fill:none;stroke:#000;stroke-width:.200016;stroke-dasharray:none;stroke-opacity:1;filter:url(#g)" transform="matrix(.79924 -.19094 .17672 .8025 5.705 5.526)"/></svg>