<svg xmlns="http://www.w3.org/2000/svg" width="64" height="64"><circle cx="32" cy="33" r="28" style="opacity:.2"/><circle cx="32" cy="32" r="28" style="fill:#3f3f3f"/><path d="m51.621 28.247-.156-.776-6.596-1.152 3.833-5.186-.446-.488-5.638 2.704.713-7.18-.58-.332-3.43 5.806L35.464 13h-.668l.913 8.355-9.693-7.757-.825.244 7.465 9.374-14.774-4.92-.669.754 13.193 7.513L12.2 28.069l-.2 1.13 18.92 2.061-15.778 13.053.669.908 18.785-10.215L30.875 53h1.136l7.198-16.93 4.39 13.251.78-.598-1.805-13.474 6.841 7.757.446-.71-5.237-9.617 7.31 2.703.066-.82-6.552-4.83z" style="opacity:.2"/><path fill="#fed42b" d="m51.621 27.247-.156-.776-6.596-1.152 3.833-5.186-.446-.488-5.638 2.704.713-7.18-.58-.332-3.43 5.806L35.464 12h-.668l.913 8.355-9.693-7.757-.825.244 7.465 9.374-14.774-4.92-.669.754 13.193 7.513L12.2 27.069l-.2 1.13 18.92 2.061-15.778 13.053.669.908 18.785-10.215L30.875 52h1.136l7.198-16.93 4.39 13.251.78-.598-1.805-13.474 6.841 7.757.446-.71-5.237-9.617 7.31 2.703.066-.82-6.552-4.83z"/><path d="M32 4A28 28 0 0 0 4 32a28 28 0 0 0 .033.482A28 28 0 0 1 32 5a28 28 0 0 1 27.982 27.242L60 32A28 28 0 0 0 32 4" style="opacity:.1;fill:#fff"/><path d="m34.797 12 .11 1h.558l3.855 8.643 3.432-5.805.486.277.094-.945-.58-.334-3.432 5.807L35.465 12zm-8.78.598-.826.244.645.808.182-.052 9.693 7.757-.12-1.095zm-8.134 4.699-.668.754.59.336.078-.09 14.773 4.92-1.084-1.362zm30.373 2.348-5.533 2.654-.104 1.05 5.637-2.703.037.04.408-.553zm-2.733 5.789-.654.884 6.145 1.075.607-.147-.156-.775zm-16.65.255-16.672 1.38-.201 1.13.174.02.027-.15 18.205-1.506zm17.598 3.795-1.022.246 6.13 4.522.355.13.066-.82zm-16.62 1.659-14.708 12.17.457.62L30.92 31.26zm14.772 1.537 4.945 9.08.293-.463-4.554-8.365zm-10.027 2.326-.233.127L30.875 52h.207zm7.978.244 1.684 12.566.12-.093-1.646-12.293z" style="fill:#fff;opacity:.2"/></svg>