<svg xmlns="http://www.w3.org/2000/svg" xmlns:xlink="http://www.w3.org/1999/xlink" width="64" height="64"><defs><radialGradient xlink:href="#a" id="c" cx="17.494" cy="44.111" r="28" fx="17.494" fy="44.111" gradientTransform="rotate(-30 -44.809 110.16)scale(2.08824)" gradientUnits="userSpaceOnUse"/><radialGradient xlink:href="#b" id="d" cx="31.696" cy="59.767" r="18" fx="31.696" fy="59.767" gradientTransform="rotate(-15 -454.63 395.225)scale(3.24747 3.23831)" gradientUnits="userSpaceOnUse"/><linearGradient id="b"><stop offset="0" style="stop-color:#e23b51;stop-opacity:1"/><stop offset="1" style="stop-color:#ff6926;stop-opacity:1"/></linearGradient><linearGradient id="a"><stop offset="0" style="stop-color:#fff24a;stop-opacity:1"/><stop offset="1" style="stop-color:#ffad50;stop-opacity:1"/></linearGradient><filter id="e" width="1.31" height="1.31" x="-.155" y="-.155" style="color-interpolation-filters:sRGB"><feGaussianBlur stdDeviation="3.109"/></filter><filter id="f" width="1.184" height="1.184" x="-.092" y="-.092" style="color-interpolation-filters:sRGB"><feGaussianBlur stdDeviation="1.157"/></filter></defs><circle cx="32" cy="32" r="24.355" style="fill:url(#c);stroke-width:.869833"/><path d="M32 25.041a15.657 15.657 0 0 0-15.657 15.657 15.657 15.657 0 0 0 14.415 15.569 8.7 8.7 0 0 1-7.456-8.61A8.7 8.7 0 0 1 32 38.959a8.7 8.7 0 0 1 8.698 8.698 8.7 8.7 0 0 1-7.456 8.61 15.657 15.657 0 0 0 14.415-15.569A15.657 15.657 0 0 0 32 25.041" style="fill:url(#d);stroke-width:.869833"/><circle cx="32" cy="32" r="24.355" style="fill:none;stroke-width:.2;stroke:#000;stroke-opacity:1;stroke-dasharray:none;filter:url(#e)"/><path d="M32 25.041a15.657 15.657 0 0 0-15.657 15.657 15.657 15.657 0 0 0 14.415 15.569 8.7 8.7 0 0 1-7.456-8.61A8.7 8.7 0 0 1 32 38.959a8.7 8.7 0 0 1 8.698 8.698 8.7 8.7 0 0 1-7.456 8.61 15.657 15.657 0 0 0 14.415-15.569A15.657 15.657 0 0 0 32 25.041Z" style="fill:none;stroke-width:.2;stroke:red;stroke-opacity:1;stroke-dasharray:none;filter:url(#f)"/></svg>