<svg xmlns="http://www.w3.org/2000/svg" xmlns:xlink="http://www.w3.org/1999/xlink" width="64" height="64"><defs><radialGradient xlink:href="#a" id="c" cx="7.965" cy="58.525" r="25.341" fx="7.965" fy="58.525" gradientTransform="rotate(-15 -368.214 146.897)scale(2.72058)" gradientUnits="userSpaceOnUse"/><radialGradient xlink:href="#b" id="d" cx="7.965" cy="58.525" r="25.341" fx="7.965" fy="58.525" gradientTransform="rotate(-15 -272.957 99.352)scale(2.20816)" gradientUnits="userSpaceOnUse"/><linearGradient id="b"><stop offset="0" style="stop-color:#9b3131;stop-opacity:1"/><stop offset="1" style="stop-color:#593030;stop-opacity:1"/></linearGradient><linearGradient id="a"><stop offset="0" style="stop-color:#e95151;stop-opacity:1"/><stop offset="1" style="stop-color:#8d3838;stop-opacity:1"/></linearGradient><filter id="e" width="1.26" height="1.26" x="-.13" y="-.13" style="color-interpolation-filters:sRGB"><feGaussianBlur stdDeviation="2.708"/></filter><filter id="f" width="1.447" height="1.396" x="-.224" y="-.198" style="color-interpolation-filters:sRGB"><feGaussianBlur stdDeviation="1.913"/></filter></defs><circle cx="32" cy="32" r="25.341" style="fill:url(#c);stroke-width:1.15186"/><circle cx="32" cy="32" r="20.568" style="fill:url(#d);stroke-width:.934907"/><path d="M26.544 20.97a2.514 2.55 0 0 0-2.574 2.546v8.481l.001 8.482a2.514 2.55 0 0 0 3.77 2.21l7.243-4.243 7.243-4.24a2.514 2.55 0 0 0 .002-4.416l-7.245-4.238-7.242-4.241a2.514 2.55 0 0 0-.7-.278 2.514 2.55 0 0 0-.498-.063" style="fill:#fff;fill-rule:evenodd;stroke-width:.848495"/><circle cx="32" cy="32" r="25.341" style="fill:none;stroke-width:.2;stroke:#000;stroke-opacity:1;stroke-dasharray:none;filter:url(#e)"/><path d="M25.843 19.894a2.76 2.798 0 0 0-2.825 2.794v9.31l.001 9.308a2.76 2.798 0 0 0 4.139 2.426l7.95-4.657 7.949-4.654a2.76 2.798 0 0 0 .002-4.846l-7.952-4.652-7.95-4.656a2.76 2.798 0 0 0-.768-.304 2.76 2.798 0 0 0-.546-.07z" style="fill:none;fill-rule:evenodd;stroke:#ff4700;stroke-width:.4;stroke-dasharray:none;stroke-opacity:1;filter:url(#f)" transform="translate(2.999 2.845)scale(.91108)"/></svg>