<svg xmlns="http://www.w3.org/2000/svg" xmlns:xlink="http://www.w3.org/1999/xlink" width="64" height="64"><defs><filter id="c" width="1.193" height="1.27" x="-.097" y="-.135" style="color-interpolation-filters:sRGB"><feGaussianBlur stdDeviation="1.943"/></filter><filter id="d" width="1.465" height="1.43" x="-.233" y="-.215" style="color-interpolation-filters:sRGB"><feGaussianBlur stdDeviation="1.081"/></filter><radialGradient xlink:href="#a" id="b" cx="7.544" cy="10.5" r="28" fx="7.544" fy="10.5" gradientTransform="rotate(30 9.401 2.977)scale(2.1049 1.5035)" gradientUnits="userSpaceOnUse"/><linearGradient id="a"><stop offset="0" style="stop-color:#ff5f58;stop-opacity:1"/><stop offset="1" style="stop-color:#ff3030;stop-opacity:1"/></linearGradient></defs><path d="M27.595 51.097c-8.854-.172-12.447-.323-14.645-.618-1.611-.216-2.403-.426-3.295-.877-1.475-.743-2.392-1.78-3.053-3.453-.605-1.529-.851-2.743-1.078-5.311-.255-2.898-.275-3.423-.301-7.938-.031-5.31.032-7.05.381-10.575.183-1.847.45-3.075.952-4.378.457-1.186.875-1.84 1.633-2.561.954-.907 2.002-1.458 3.324-1.749 1.974-.434 10.895-.768 20.492-.768 9.596 0 18.517.334 20.491.768 1.427.314 2.475.894 3.497 1.937.8.815 1.212 1.556 1.703 3.062.505 1.55.699 2.924.986 6.986.136 1.929.136 10.81 0 12.738-.16 2.255-.355 4.264-.486 4.983-.335 1.848-.993 3.578-1.735 4.561-.51.675-1.514 1.48-2.354 1.884-.851.41-1.662.614-2.97.745-4.05.406-16.417.702-23.542.564" style="fill:url(#b);stroke-width:.956574"/><path d="m37.6 30.07-7.162-4.116a2.27 2.27 149.958 0 0-3.401 1.967l-.005 8.144a2.276 2.276 30.175 0 0 3.404 1.98l7.158-4.08a2.244 2.244 90.1 0 0 .007-3.896" style="fill:#fff" transform="translate(-9.288 -7.628)scale(1.23855)"/><path d="M27.859 49.955c-8.325-.162-11.703-.304-13.77-.581-1.514-.203-2.259-.401-3.098-.825-1.386-.699-2.248-1.674-2.87-3.246-.569-1.438-.8-2.58-1.013-4.994-.24-2.725-.258-3.218-.283-7.463-.03-4.992.03-6.628.358-9.942.172-1.737.423-2.892.895-4.116.43-1.115.822-1.73 1.536-2.408.897-.853 1.881-1.37 3.125-1.644 1.855-.408 10.243-.723 19.265-.723s17.41.315 19.266.723c1.342.295 2.327.84 3.288 1.82.752.767 1.14 1.464 1.6 2.88.476 1.458.658 2.748.928 6.567.128 1.814.128 10.163 0 11.976-.15 2.12-.334 4.01-.457 4.685-.315 1.738-.934 3.364-1.631 4.289-.479.635-1.424 1.39-2.214 1.771-.8.386-1.562.577-2.79.7-3.809.382-15.436.66-22.135.53z" style="mix-blend-mode:normal;fill:none;stroke:#000;stroke-width:.4;stroke-dasharray:none;stroke-opacity:1;filter:url(#c)" transform="translate(-2.036 -2.036)scale(1.06362)"/><path d="m37.556 30.044-7.073-4.065a2.3 2.3 149.958 0 0-3.446 1.993l-.005 8.042a2.306 2.306 30.175 0 0 3.449 2.005l7.068-4.03a2.273 2.273 90.1 0 0 .007-3.945z" style="mix-blend-mode:normal;fill:none;stroke:#ff0002;stroke-width:.24221813;stroke-dasharray:none;stroke-opacity:1;filter:url(#d)" transform="translate(-9.303 -7.643)scale(1.23855)"/></svg>