<svg xmlns="http://www.w3.org/2000/svg" xmlns:xlink="http://www.w3.org/1999/xlink" width="64" height="64"><defs><filter id="f" width="1.221" height="1.247" x="-.11" y="-.124" style="color-interpolation-filters:sRGB"><feGaussianBlur stdDeviation="2.53"/></filter><filter id="g" width="1.254" height="1.254" x="-.127" y="-.127" style="color-interpolation-filters:sRGB"><feGaussianBlur stdDeviation="1.112"/></filter><filter id="e" width="1.163" height="1.183" x="-.082" y="-.091" style="color-interpolation-filters:sRGB"><feGaussianBlur stdDeviation="1.453"/></filter><radialGradient xlink:href="#a" id="c" cx="2.546" cy="39.483" r="28" fx="2.546" fy="39.483" gradientTransform="rotate(30 482.346 89.493)scale(7.50507 8.04755)" gradientUnits="userSpaceOnUse"/><radialGradient xlink:href="#b" id="d" cx="5.802" cy="34.667" r="28" fx="5.802" fy="34.667" gradientTransform="rotate(28.74 80.112 52.739)scale(1.86232 1.99694)" gradientUnits="userSpaceOnUse"/><linearGradient id="a"><stop offset="0" style="stop-color:#ff4e7d;stop-opacity:1"/><stop offset="1" style="stop-color:#ffb86d;stop-opacity:1"/></linearGradient><linearGradient id="b"><stop offset="0" style="stop-color:#717171;stop-opacity:1"/><stop offset="1" style="stop-color:#555;stop-opacity:1"/></linearGradient></defs><rect width="52.091" height="46.51" x="5.909" y="8.724" rx="10.058" ry="9.533" style="fill:url(#c);stroke-width:.2;stroke-dasharray:none"/><rect width="44.004" height="39.289" x="9.998" y="12.355" rx="6.74" ry="6.74" style="fill:url(#d);stroke-width:.16895;stroke-dasharray:none"/><rect width="44.004" height="39.289" x="9.998" y="12.355" rx="6.74" ry="6.74" style="fill:none;stroke-width:.2;stroke-dasharray:none;stroke:#000;stroke-opacity:1;filter:url(#e)"/><rect width="56" height="50" x="4.049" y="7.023" rx="10.813" ry="10.249" style="fill:none;stroke:#000;stroke-width:.21501;stroke-dasharray:none;stroke-opacity:1;filter:url(#f)" transform="translate(2.188 2.213)scale(.93019)"/><path d="M15.947 16.945a1.36 1.36 0 0 0-.797.274 1.36 1.36 0 0 0-.271 1.906l3.812 5.082v4.994a1.36 1.36 0 0 0 1.364 1.363 1.36 1.36 0 0 0 1.361-1.363v-4.994l3.813-5.082a1.36 1.36 0 0 0-.272-1.906 1.36 1.36 0 0 0-1.908.271l-2.994 3.994-2.996-3.994a1.36 1.36 0 0 0-1.112-.545m13.639 0a1.36 1.36 0 0 0-1.361 1.364 1.36 1.36 0 0 0 1.36 1.36h1.362v9.532a1.36 1.36 0 0 0 1.364 1.363 1.36 1.36 0 0 0 1.36-1.363V19.67h1.362a1.36 1.36 0 0 0 1.362-1.361 1.36 1.36 0 0 0-1.362-1.364zM15.969 36.012a1.36 1.36 0 0 0-1.362 1.361 1.36 1.36 0 0 0 1.362 1.361h10.894a1.36 1.36 0 0 0 1.362-1.361 1.36 1.36 0 0 0-1.362-1.361z" style="fill:#fff;stroke-linecap:round"/><path d="M15.947 16.945a1.36 1.36 0 0 0-.797.274 1.36 1.36 0 0 0-.271 1.906l3.812 5.082v4.994a1.36 1.36 0 0 0 1.364 1.363 1.36 1.36 0 0 0 1.361-1.363v-4.994l3.813-5.082a1.36 1.36 0 0 0-.272-1.906 1.36 1.36 0 0 0-1.908.271l-2.994 3.994-2.996-3.994a1.36 1.36 0 0 0-1.112-.545zm13.639 0a1.36 1.36 0 0 0-1.361 1.364 1.36 1.36 0 0 0 1.36 1.36h1.362v9.532a1.36 1.36 0 0 0 1.364 1.363 1.36 1.36 0 0 0 1.36-1.363V19.67h1.362a1.36 1.36 0 0 0 1.362-1.361 1.36 1.36 0 0 0-1.362-1.364zM15.969 36.012a1.36 1.36 0 0 0-1.362 1.361 1.36 1.36 0 0 0 1.362 1.361h10.894a1.36 1.36 0 0 0 1.362-1.361 1.36 1.36 0 0 0-1.362-1.361z" style="fill:none;stroke-linecap:round;stroke:#000;stroke-opacity:1;stroke-width:.2;stroke-dasharray:none;filter:url(#g)"/></svg>