<svg xmlns="http://www.w3.org/2000/svg" xmlns:xlink="http://www.w3.org/1999/xlink" width="64" height="64"><defs><filter id="e" width="1.294" height="1.262" x="-.147" y="-.131" style="color-interpolation-filters:sRGB"><feGaussianBlur stdDeviation="1.451"/></filter><filter id="d" width="1.239" height="1.239" x="-.12" y="-.12" style="color-interpolation-filters:sRGB"><feGaussianBlur stdDeviation="2.521"/></filter><filter id="g" width="1.356" height="1.326" x="-.178" y="-.163" style="color-interpolation-filters:sRGB"><feGaussianBlur stdDeviation="1.595"/></filter><radialGradient xlink:href="#a" id="c" cx="3.227" cy="62.25" r="28" fx="3.227" fy="62.25" gradientTransform="translate(-6.601 -175.482)scale(3.77905)" gradientUnits="userSpaceOnUse"/><radialGradient xlink:href="#b" id="f" cx="37.443" cy="59.186" r="11.051" fx="37.443" fy="59.186" gradientTransform="matrix(2.32998 0 0 2.54083 -49.798 -90.183)" gradientUnits="userSpaceOnUse"/><linearGradient id="b"><stop offset="0" style="stop-color:#ffd04a;stop-opacity:1"/><stop offset="1" style="stop-color:#ff942d;stop-opacity:1"/></linearGradient><linearGradient id="a"><stop offset="0" style="stop-color:#83d03e;stop-opacity:1"/><stop offset="1" style="stop-color:#3cbbca;stop-opacity:1"/></linearGradient></defs><path d="M32 6.306A25.696 25.696 0 0 0 6.304 32.002 25.696 25.696 0 0 0 32 57.698a25.696 25.696 0 0 0 25.696-25.696A25.696 25.696 0 0 0 32 6.306" style="fill:url(#c);stroke-width:.917702" transform="translate(0 .066)"/><path d="M32 6.238A25.696 25.696 0 0 0 6.304 31.934 25.696 25.696 0 0 0 32 57.629a25.696 25.696 0 0 0 25.696-25.695A25.696 25.696 0 0 0 32 6.238Z" style="fill:none;stroke:#000;stroke-width:.2;stroke-dasharray:none;stroke-opacity:1;filter:url(#d)" transform="translate(0 .066)"/><path d="M21.99 19.008a3 3 96.096 0 0-.45 4.22l7.862 9.829-5.942 7.725a3.014 3.014 82.58 0 0 .55 4.226 3 3 172.345 0 0 4.204-.565L44.54 23.218a3.014 3.014 82.581 0 0-.55-4.226 3 3 172.343 0 0-4.203.566L33.17 28.16l-6.946-8.683a3.01 3.01 6.329 0 0-4.234-.47" style="fill:#fff;stroke-linecap:round;stroke-linejoin:round" transform="translate(-3.383 -3.126)scale(1.0999)"/><path d="M21.99 19.008a3 3 96.096 0 0-.45 4.22l7.862 9.829-5.942 7.725a3.014 3.014 82.58 0 0 .55 4.226 3 3 172.345 0 0 4.204-.565L44.54 23.218a3.014 3.014 82.581 0 0-.55-4.226 3 3 172.343 0 0-4.203.566L33.17 28.16l-6.946-8.683a3.01 3.01 6.329 0 0-4.234-.47" style="mix-blend-mode:normal;fill:none;fill-opacity:1;stroke:#000;stroke-width:.166871;stroke-linecap:round;stroke-linejoin:round;stroke-dasharray:none;stroke-opacity:1;filter:url(#e)" transform="translate(-3.383 -3.126)scale(1.0999)"/><path d="M42 35.95c-2.753 0-5.05 2.297-5.05 5.05v14c0 2.753 2.297 5.05 5.05 5.05s5.05-2.297 5.05-5.05v-.95H54c2.753 0 5.05-2.297 5.05-5.05v-8c0-2.753-2.297-5.05-5.05-5.05Z" style="fill:url(#f);stroke-linecap:round;stroke-linejoin:round;fill-opacity:1"/><path d="M42 39a2 2 0 0 0-2 2v14a2 2 0 0 0 2 2 2 2 0 0 0 2-2v-4h10a2 2 0 0 0 2-2v-8a2 2 0 0 0-2-2zm2 4h8v4h-8z" style="fill:#fff;stroke-linecap:round;stroke-linejoin:round;stroke:#0b0000;stroke-opacity:1;stroke-width:0;stroke-dasharray:none"/><path d="M42 35.95c-2.753 0-5.05 2.297-5.05 5.05v14c0 2.753 2.297 5.05 5.05 5.05s5.05-2.297 5.05-5.05v-.95H54c2.753 0 5.05-2.297 5.05-5.05v-8c0-2.753-2.297-5.05-5.05-5.05ZM42 39h12a2 2 0 0 1 2 2v8a2 2 0 0 1-2 2H44v4a2 2 0 0 1-2 2 2 2 0 0 1-2-2V41a2 2 0 0 1 2-2m2 4v4h8v-4z" style="fill:none;fill-opacity:1;stroke-linecap:round;stroke-linejoin:round;stroke:#0b0000;stroke-opacity:1;stroke-width:.2;stroke-dasharray:none;filter:url(#g)"/></svg>