<svg xmlns="http://www.w3.org/2000/svg" xmlns:xlink="http://www.w3.org/1999/xlink" width="64" height="64"><defs><filter id="d" width="1.239" height="1.239" x="-.12" y="-.12" style="color-interpolation-filters:sRGB"><feGaussianBlur stdDeviation="2.521"/></filter><filter id="e" width="1.294" height="1.262" x="-.147" y="-.131" style="color-interpolation-filters:sRGB"><feGaussianBlur stdDeviation="1.451"/></filter><filter id="g" width="1.364" height="1.332" x="-.182" y="-.166" style="color-interpolation-filters:sRGB"><feGaussianBlur stdDeviation="1.309"/></filter><radialGradient xlink:href="#a" id="c" cx="3.227" cy="62.25" r="28" fx="3.227" fy="62.25" gradientTransform="translate(-6.601 -175.482)scale(3.77905)" gradientUnits="userSpaceOnUse"/><radialGradient xlink:href="#b" id="f" cx="38.537" cy="55.737" r="8.902" fx="38.537" fy="55.737" gradientTransform="rotate(15 609.151 -196.409)scale(3.2036 3.51003)" gradientUnits="userSpaceOnUse"/><linearGradient id="b"><stop offset="0" style="stop-color:#9e4ae1;stop-opacity:1"/><stop offset="1" style="stop-color:#5d2f81;stop-opacity:1"/></linearGradient><linearGradient id="a"><stop offset="0" style="stop-color:#83d03e;stop-opacity:1"/><stop offset="1" style="stop-color:#3cbbca;stop-opacity:1"/></linearGradient></defs><path d="M32 6.306A25.696 25.696 0 0 0 6.304 32.002 25.696 25.696 0 0 0 32 57.698a25.696 25.696 0 0 0 25.696-25.696A25.696 25.696 0 0 0 32 6.306" style="fill:url(#c);stroke-width:.917702" transform="translate(0 .066)"/><path d="M32 6.238A25.696 25.696 0 0 0 6.304 31.934 25.696 25.696 0 0 0 32 57.629a25.696 25.696 0 0 0 25.696-25.695A25.696 25.696 0 0 0 32 6.238Z" style="fill:none;stroke:#000;stroke-width:.2;stroke-dasharray:none;stroke-opacity:1;filter:url(#d)" transform="translate(0 .066)"/><path d="M21.99 19.008a3 3 96.096 0 0-.45 4.22l7.862 9.829-5.942 7.725a3.014 3.014 82.58 0 0 .55 4.226 3 3 172.345 0 0 4.204-.565L44.54 23.218a3.014 3.014 82.581 0 0-.55-4.226 3 3 172.343 0 0-4.203.566L33.17 28.16l-6.946-8.683a3.01 3.01 6.329 0 0-4.234-.47" style="fill:#fff;stroke-linecap:round;stroke-linejoin:round" transform="translate(-3.383 -3.126)scale(1.0999)"/><path d="M21.99 19.008a3 3 96.096 0 0-.45 4.22l7.862 9.829-5.942 7.725a3.014 3.014 82.58 0 0 .55 4.226 3 3 172.345 0 0 4.204-.565L44.54 23.218a3.014 3.014 82.581 0 0-.55-4.226 3 3 172.343 0 0-4.203.566L33.17 28.16l-6.946-8.683a3.01 3.01 6.329 0 0-4.234-.47" style="mix-blend-mode:normal;fill:none;fill-opacity:1;stroke:#000;stroke-width:.166871;stroke-linecap:round;stroke-linejoin:round;stroke-dasharray:none;stroke-opacity:1;filter:url(#e)" transform="translate(-3.383 -3.126)scale(1.0999)"/><path d="M53.111 37.246c-2.069 0-3.79 1.722-3.79 3.791v1.68l-3.555-4.147v-.002c-1.079-1.255-2.84-1.585-4.192-1.086-1.35.5-2.474 1.896-2.476 3.551v11.93c0 2.069 1.722 3.79 3.79 3.79 2.07 0 3.792-1.721 3.792-3.79v-1.68l3.554 4.147v.002c1.079 1.255 2.84 1.585 4.192 1.086 1.35-.5 2.474-1.896 2.476-3.551v-11.93c0-2.069-1.722-3.79-3.79-3.79m-9.84 4.828 1.604 1.871a2.1 2.1 0 0 0-1.604.596zm9.458 7.385v2.467l-1.604-1.871a2.1 2.1 0 0 0 1.604-.596" style="stroke-linecap:round;stroke-linejoin:round;fill:url(#f);fill-opacity:1"/><path d="M53.111 39.333a1.704 1.704 0 0 0-1.703 1.704v7.322l-7.227-8.43a1.704 1.704 0 0 0-2.996 1.108v11.926a1.704 1.704 0 0 0 1.704 1.704 1.704 1.704 0 0 0 1.703-1.704v-7.322l7.227 8.43a1.704 1.704 0 0 0 2.996-1.108V41.037a1.704 1.704 0 0 0-1.704-1.704" style="fill:#fff;stroke-width:.851902;stroke-linecap:round;stroke-linejoin:round"/><path d="M53.111 37.246c-2.069 0-3.79 1.722-3.79 3.791v1.68l-3.555-4.147v-.002c-1.079-1.255-2.84-1.585-4.192-1.086-1.35.5-2.474 1.896-2.476 3.551v11.93c0 2.069 1.722 3.79 3.79 3.79 2.07 0 3.792-1.721 3.792-3.79v-1.68l3.554 4.147v.002c1.079 1.255 2.84 1.585 4.192 1.086 1.35-.5 2.474-1.896 2.476-3.551v-11.93c0-2.069-1.722-3.791-3.79-3.791m0 2.088c.942 0 1.705.762 1.705 1.703v11.928c-.003 1.579-1.966 2.305-2.996 1.107l-7.226-8.431v7.324a1.704 1.704 0 0 1-3.408 0V41.037c.003-1.579 1.966-2.305 2.996-1.107l7.226 8.43v-7.323c0-.94.763-1.703 1.703-1.703" style="fill:none;fill-opacity:1;stroke-linecap:round;stroke-linejoin:round;stroke:#000;stroke-opacity:1;stroke-width:.2;stroke-dasharray:none;filter:url(#g)"/></svg>