<svg xmlns="http://www.w3.org/2000/svg" xmlns:xlink="http://www.w3.org/1999/xlink" width="64" height="64"><defs><filter id="e" width="1.294" height="1.262" x="-.147" y="-.131" style="color-interpolation-filters:sRGB"><feGaussianBlur stdDeviation="1.451"/></filter><filter id="h" width="1.32" height="1.2" x="-.16" y="-.1" style="color-interpolation-filters:sRGB"><feGaussianBlur stdDeviation=".889"/></filter><filter id="d" width="1.239" height="1.239" x="-.12" y="-.12" style="color-interpolation-filters:sRGB"><feGaussianBlur stdDeviation="2.521"/></filter><filter id="g" width="1.713" height="1.492" x="-.356" y="-.246" style="color-interpolation-filters:sRGB"><feGaussianBlur stdDeviation="2.747"/></filter><radialGradient xlink:href="#a" id="f" cx="36.677" cy="57.146" r="9.402" fx="36.677" fy="57.146" gradientTransform="matrix(2.91987 0 0 3.68462 -70.415 -148.673)" gradientUnits="userSpaceOnUse"/><radialGradient xlink:href="#b" id="c" cx="3.227" cy="62.25" r="28" fx="3.227" fy="62.25" gradientTransform="translate(-6.601 -175.482)scale(3.77905)" gradientUnits="userSpaceOnUse"/><linearGradient id="b"><stop offset="0" style="stop-color:#83d03e;stop-opacity:1"/><stop offset="1" style="stop-color:#3cbbca;stop-opacity:1"/></linearGradient><linearGradient id="a"><stop offset="0" style="stop-color:#3a877b;stop-opacity:1"/><stop offset="1" style="stop-color:#538f69;stop-opacity:1"/></linearGradient></defs><path d="M32 6.306A25.696 25.696 0 0 0 6.304 32.002 25.696 25.696 0 0 0 32 57.698a25.696 25.696 0 0 0 25.696-25.696A25.696 25.696 0 0 0 32 6.306" style="fill:url(#c);stroke-width:.917702"/><path d="M32 6.238A25.696 25.696 0 0 0 6.304 31.934 25.696 25.696 0 0 0 32 57.629a25.696 25.696 0 0 0 25.696-25.695A25.696 25.696 0 0 0 32 6.238Z" style="fill:none;stroke:#000;stroke-width:.2;stroke-dasharray:none;stroke-opacity:1;filter:url(#d)"/><path d="M21.99 19.008a3 3 96.096 0 0-.45 4.22l7.862 9.829-5.942 7.725a3.014 3.014 82.58 0 0 .55 4.226 3 3 172.345 0 0 4.204-.565L44.54 23.218a3.014 3.014 82.581 0 0-.55-4.226 3 3 172.343 0 0-4.203.566L33.17 28.16l-6.946-8.683a3.01 3.01 6.329 0 0-4.234-.47" style="fill:#fff;stroke-linecap:round;stroke-linejoin:round" transform="translate(-3.382 -3.192)scale(1.0999)"/><path d="M21.99 19.008a3 3 96.096 0 0-.45 4.22l7.862 9.829-5.942 7.725a3.014 3.014 82.58 0 0 .55 4.226 3 3 172.345 0 0 4.204-.565L44.54 23.218a3.014 3.014 82.581 0 0-.55-4.226 3 3 172.343 0 0-4.203.566L33.17 28.16l-6.946-8.683a3.01 3.01 6.329 0 0-4.234-.47" style="mix-blend-mode:normal;fill:none;fill-opacity:1;stroke:#000;stroke-width:.166871;stroke-linecap:round;stroke-linejoin:round;stroke-dasharray:none;stroke-opacity:1;filter:url(#e)" transform="translate(-3.382 -3.192)scale(1.0999)"/><path d="M48 32.92c-5.164 0-9.402 4.239-9.402 9.402 0 3.182 1.651 5.996 4.172 7.692.549.37.496.607-.166.607h-.013a1.2 1.2 135 0 0-1.198 1.198v5.23a1.2 1.2 45 0 0 1.198 1.199h.398a1.2 1.2 45 0 1 1.198 1.198.97.97 29.028 0 0 1.199.665h5.228a1.2 1.2 135 0 0 1.199-1.198v-6.941c0-.662.493-1.414 1.058-1.759 2.72-1.656 4.531-4.565 4.531-7.89 0-5.164-4.238-9.402-9.402-9.403" style="fill:url(#f)" transform="translate(2.634 2.636)scale(.9177)"/><path d="M48 32.92c-5.164 0-9.402 4.239-9.402 9.402 0 3.182 1.651 5.996 4.172 7.692.549.37.496.607-.166.607h-.013a1.2 1.2 135 0 0-1.198 1.198v5.23a1.2 1.2 45 0 0 1.198 1.199h.398a1.2 1.2 45 0 1 1.198 1.198.97.97 29.028 0 0 1.199.665h5.228a1.2 1.2 135 0 0 1.199-1.198v-6.941c0-.662.493-1.414 1.058-1.759 2.72-1.656 4.531-4.565 4.531-7.89 0-5.164-4.238-9.402-9.402-9.403Z" style="fill:none;stroke:#000;stroke-width:.21793575;stroke-dasharray:none;stroke-opacity:1;filter:url(#g)" transform="translate(2.634 2.567)scale(.9177)"/><path d="M54.987 42.323a6.987 6.987 0 1 0-8.384 6.845v3.179a.69.69 135 0 1-.69.69h-1.416a.69.69 135 0 0-.69.69v1.415a.69.69 45 0 0 .69.69h1.416a.69.69 45 0 1 .69.69v.483a.69.69 45 0 0 .69.69h1.415a.69.69 135 0 0 .69-.69v-7.837a6.99 6.99 0 0 0 5.59-6.845m-2.795 0a4.192 4.192 0 1 1-8.384 0 4.192 4.192 0 0 1 8.384 0" style="fill:#fff;stroke-width:.931624" transform="translate(2.634 2.636)scale(.9177)"/><path d="M54.987 42.323a6.987 6.987 0 1 0-8.384 6.845v3.179a.69.69 135 0 1-.69.69h-1.416a.69.69 135 0 0-.69.69v1.415a.69.69 45 0 0 .69.69h1.416a.69.69 45 0 1 .69.69v.483a.69.69 45 0 0 .69.69h1.415a.69.69 135 0 0 .69-.69v-7.837a6.99 6.99 0 0 0 5.59-6.845zm-2.795 0a4.192 4.192 0 1 1-8.384 0 4.192 4.192 0 0 1 8.384 0z" style="mix-blend-mode:normal;fill:none;stroke:#000;stroke-width:.2;stroke-dasharray:none;stroke-opacity:1;filter:url(#h)" transform="translate(2.634 2.636)scale(.9177)"/></svg>