<svg xmlns="http://www.w3.org/2000/svg" xmlns:xlink="http://www.w3.org/1999/xlink" width="64" height="64"><defs><radialGradient xlink:href="#a" id="b" cx="4.048" cy="60.062" r="28" fx="4.048" fy="60.062" gradientTransform="rotate(-30 -135.768 97.513)scale(2.22515)" gradientUnits="userSpaceOnUse"/><linearGradient id="a"><stop offset="0" style="stop-color:#32466d;stop-opacity:1"/><stop offset="1" style="stop-color:#325a6d;stop-opacity:1"/></linearGradient><filter id="c" width="1.314" height="1.314" x="-.157" y="-.157" style="color-interpolation-filters:sRGB"><feGaussianBlur stdDeviation="3.144"/></filter></defs><circle cx="32" cy="32" r="24.364" style="fill:url(#b);stroke-width:.870148"/><circle cx="32" cy="32" r="24.364" style="fill:none;stroke-width:.2;stroke:#000;stroke-opacity:1;stroke-dasharray:none;filter:url(#c)"/><path d="M20.492 6.502a28 28 0 0 0-5.933 3.627c2.14 8.417 4.935 24.268 12.02 31.038C27.793 42.327 29 44.37 29 46.053v13.754c.996.118 3 .193 3 .193s2.004-.075 3-.193V46.053c0-1.683 1.207-3.726 2.421-4.886 7.085-6.77 9.88-22.621 12.02-31.038a28 28 0 0 0-5.933-3.627c-3.066 15.241-5.739 25.565-9.705 28.631-.874.676-2.732.676-3.606 0-3.966-3.066-6.639-13.39-9.705-28.631" style="fill:#d7d7d7" transform="translate(4.155 4.155)scale(.87015)"/></svg>