<svg xmlns="http://www.w3.org/2000/svg" xmlns:xlink="http://www.w3.org/1999/xlink" width="64" height="64"><defs><radialGradient xlink:href="#a" id="e" cx="24.005" cy="40.266" r="25" fx="24.005" fy="40.266" gradientTransform="rotate(-30 -92.672 172.269)scale(2.78743 3.12192)" gradientUnits="userSpaceOnUse"/><radialGradient xlink:href="#b" id="f" cx="29.718" cy="27.619" r="19" fx="29.718" fy="27.619" gradientTransform="matrix(1.62967 0 0 1.53831 -20.15 -20.725)" gradientUnits="userSpaceOnUse"/><radialGradient xlink:href="#b" id="c" cx="31.923" cy="9.092" r="26.836" fx="31.923" fy="9.092" gradientTransform="rotate(135 50.961 8.796)scale(2.06682 2.27529)" gradientUnits="userSpaceOnUse"/><linearGradient id="b"><stop offset="0" style="stop-color:#7ee0fa;stop-opacity:1"/><stop offset="1" style="stop-color:#2caeff;stop-opacity:1"/></linearGradient><linearGradient id="a"><stop offset="0" style="stop-color:gray;stop-opacity:1"/><stop offset="1" style="stop-color:#666;stop-opacity:1"/></linearGradient><filter id="d" width="1.329" height="1.298" x="-.164" y="-.149" style="color-interpolation-filters:sRGB"><feGaussianBlur stdDeviation="3.016"/></filter></defs><path d="M13.207 23.986V32c0 1.779-.141 4.841 1.03 6.267 1.949 3.264 6.124 10.33 7.726 13.563.523.968 1.684 1.224 3.149 1.224h13.776c1.465 0 2.626-.256 3.149-1.224 1.602-3.234 5.777-10.299 7.726-13.563 1.171-1.426 1.03-4.488 1.03-6.267v-8.014c0-6.724-8.353-13.04-18.793-13.04s-18.793 6.316-18.793 13.04z" style="fill:none;stroke:url(#c);stroke-width:7.0755;stroke-dasharray:none"/><path d="M31.999 7.408c-5.934 0-11.308 1.763-15.365 4.656-4.058 2.894-6.965 7.094-6.965 11.92V32c0 .796-.048 2.135.092 3.602.14 1.466.323 3.183 1.742 4.91l-.305-.432c1.937 3.246 6.169 10.44 7.596 13.32l.027.057.03.055c.72 1.332 2.049 2.248 3.185 2.638s2.138.442 3.076.442h13.776c.938 0 1.94-.052 3.076-.442s2.465-1.306 3.185-2.638l.03-.055.027-.057c1.427-2.88 5.657-10.074 7.594-13.32l-.305.432c1.42-1.727 1.605-3.444 1.744-4.91.14-1.467.092-2.806.092-3.602v-8.016c0-4.826-2.91-9.026-6.967-11.92C43.307 9.171 37.933 7.408 32 7.408Zm0 7.076c4.507 0 8.53 1.395 11.258 3.34 2.729 1.946 3.998 4.264 3.998 6.16V32c0 .983.022 2.064-.06 2.93-.083.865-.412 1.39-.165 1.09l-.17.205-.134.228c-1.85 3.1-5.505 9.31-7.418 13.031-.135.018-.137.032-.42.032H25.112c-.283 0-.285-.014-.42-.032-1.913-3.72-5.568-9.932-7.418-13.03l-.134-.23-.17-.204c.247.3-.084-.225-.166-1.09-.083-.866-.059-1.947-.059-2.93v-8.016c0-1.896 1.27-4.214 3.998-6.16s6.75-3.34 11.256-3.34zm-6.936 35.65c.004.007.009.006.012.012l.059.114c-.016-.033-.054-.092-.07-.125zm13.874 0c-.017.034-.055.093-.07.126l.058-.114c.003-.006.008-.005.012-.011z" style="fill:none;stroke:#000;stroke-opacity:1;stroke-width:.2;stroke-dasharray:none;filter:url(#d)"/><path d="M13.207 23.986V32c0 1.779-.141 4.841 1.03 6.267 1.949 3.264 6.124 10.33 7.726 13.563.523.968 1.684 1.224 3.149 1.224h13.776c1.465 0 2.626-.256 3.149-1.224 1.602-3.234 5.777-10.299 7.726-13.563 1.171-1.426 1.03-4.488 1.03-6.267v-8.014c0-6.724-8.353-13.04-18.793-13.04s-18.793 6.316-18.793 13.04" style="fill:url(#e);stroke-width:.75192"/><path d="M15.833 31.212c-1.217.009-2.436.027-2.625.056v1.034c0 1.779-.143 4.54 1.028 5.965 1.949 3.264 6.124 10.33 7.727 13.563.523.968 1.684 1.224 3.149 1.224h13.776c1.465 0 2.626-.256 3.15-1.224 1.602-3.234 5.777-10.299 7.726-13.563 1.171-1.426 1.028-4.186 1.028-5.965v-1.034c-.22 0-4.58-.03-4.771-.02-4.246-.036-4.069 1.48-5.816 4.212-1.64 2.83-1.646 7.114-2.465 9.172C36.587 40.66 37.222 32 32 32s-4.587 8.66-5.74 12.632c-.819-2.058-.374-6.341-2.014-9.172-1.135-1.923-3.017-4.085-5.507-4.243-.168-.011-1.685-.013-2.906-.005" style="opacity:.2;stroke-width:.75192"/><path d="M25.112 53.054h13.776l-1.148-8.422c-1.153-3.972-.518-11.58-5.74-11.58s-4.587 7.608-5.74 11.58z" style="opacity:.15;stroke-width:.75192"/><path d="M13 31c5.3-.83 9.247 10.165 11.367 18 1.533-5.283.689-15 7.633-15s6.1 9.717 7.633 15C41.75 41.17 45.698 30.17 51 31a3.05 3.05 44.026 0 0-3.104-3H16.104A3.05 3.05 135.974 0 0 13 31" style="fill:url(#f)" transform="translate(7.939 7.939)scale(.75192)"/></svg>