<svg xmlns="http://www.w3.org/2000/svg" xmlns:xlink="http://www.w3.org/1999/xlink" width="64" height="64"><defs><radialGradient xlink:href="#a" id="c" cx="9.576" cy="56.236" r="23.297" fx="9.576" fy="56.236" gradientTransform="rotate(-15 -405.971 184.584)scale(2.99027)" gradientUnits="userSpaceOnUse"/><radialGradient xlink:href="#b" id="e" cx="17.559" cy="48.684" r="24.609" fx="17.559" fy="48.684" gradientTransform="rotate(-30 -153.662 167.832)scale(3.08639)" gradientUnits="userSpaceOnUse"/><linearGradient id="b"><stop offset="0" style="stop-color:#fff;stop-opacity:1"/><stop offset="1" style="stop-color:#fff4cb;stop-opacity:1"/></linearGradient><linearGradient id="a"><stop offset="0" style="stop-color:#2b6beb;stop-opacity:1"/><stop offset="1" style="stop-color:#2bbbeb;stop-opacity:1"/></linearGradient><filter id="f" width="1.172" height="1.17" x="-.087" y="-.085" style="color-interpolation-filters:sRGB"><feGaussianBlur stdDeviation="1.697"/></filter><filter id="d" width="1.333" height="1.333" x="-.167" y="-.167" style="color-interpolation-filters:sRGB"><feGaussianBlur stdDeviation="3.192"/></filter></defs><circle cx="32.879" cy="32.879" r="23.297" style="fill:url(#c);stroke-width:.862851"/><circle cx="32.879" cy="32.879" r="23.297" style="fill:none;stroke-width:.20000001;stroke:#000;stroke-opacity:1;stroke-dasharray:none;filter:url(#d)"/><path d="M7.391 11.786 29.363 7.39l12.305 12.305-7.207 2.46L44.304 32l-4.394 1.758 16.699 22.85-35.156-19.335 5.274-2.636-14.062-9.668 7.03-2.812Z" style="fill:url(#e);stroke-width:.878877"/><path d="M7.391 11.786 29.363 7.39l12.305 12.305-7.207 2.46L44.304 32l-4.394 1.758 16.699 22.85-35.156-19.335 5.274-2.636-14.062-9.668 7.03-2.812Z" style="fill:none;stroke-width:.2;stroke:#000;stroke-opacity:1;stroke-dasharray:none;filter:url(#f)"/></svg>