<svg xmlns="http://www.w3.org/2000/svg" xmlns:xlink="http://www.w3.org/1999/xlink" width="64" height="64"><defs><radialGradient xlink:href="#a" id="c" cx="45.196" cy="56.678" r="22" fx="45.196" fy="56.678" gradientTransform="rotate(255 85.098 225.18)scale(5.38886 4.4016)" gradientUnits="userSpaceOnUse"/><radialGradient xlink:href="#b" id="d" cx="16.148" cy="36.846" r="4.861" fx="16.148" fy="36.846" gradientTransform="rotate(-30 -865.583 728.435)scale(14.26526 15.8984)" gradientUnits="userSpaceOnUse"/><linearGradient id="b"><stop offset="0" style="stop-color:#b07575;stop-opacity:1"/><stop offset="1" style="stop-color:#835151;stop-opacity:1"/></linearGradient><linearGradient id="a"><stop offset="0" style="stop-color:#5e3243;stop-opacity:1"/><stop offset="1" style="stop-color:#5c2626;stop-opacity:1"/></linearGradient></defs><path d="M20.709 7.041H43.29a8.32 8.32 45 0 1 8.32 8.32V48.64a8.32 8.32 135 0 1-8.32 8.319H20.71a8.32 8.32 45 0 1-8.32-8.32V15.36a8.32 8.32 135 0 1 8.32-8.319" style="fill:url(#c);stroke-width:.891381" transform="translate(-2.428 -2.423)scale(1.07606)"/><path d="M37.677 5.154V23.11l3.836-3.837 3.837 3.837V5.154Z" style="opacity:.35646963;fill:#ff7581;fill-opacity:1;stroke-width:.959183"/><path d="M20.54 7.022h1.561v49.934h-1.56a8.16 8.16 45 0 1-8.162-8.161V15.183a8.16 8.16 135 0 1 8.161-8.161" style="opacity:1;fill:url(#d);fill-opacity:1;stroke-width:.3;stroke-linecap:round;stroke-linejoin:round;stroke-miterlimit:4.6;paint-order:stroke fill markers" transform="translate(-2.428 -2.423)scale(1.07606)"/><path d="M30.773 32.471v.054a2.81 2.81 45 0 0 2.81 2.809h5.471a.756.756 64.044 0 1 .595 1.222l-7.761 9.903a5.131 5.131 64.044 0 0 4.038 8.297h8.13a2.81 2.81 135 0 0 2.81-2.81v-.053a2.81 2.81 45 0 0-2.81-2.809h-5.468a.756.756 64.043 0 1-.595-1.222l7.76-9.903a5.132 5.132 64.043 0 0-4.039-8.297h-8.132a2.81 2.81 135 0 0-2.809 2.81" style="opacity:.747754;fill:#ff7581;stroke-linecap:square" transform="translate(1.915)"/></svg>