<svg xmlns="http://www.w3.org/2000/svg" xmlns:xlink="http://www.w3.org/1999/xlink" width="64" height="64"><defs><radialGradient xlink:href="#a" id="h" cx="8.545" cy="54.526" r="18.018" fx="8.545" fy="54.526" gradientTransform="rotate(-15 -301.27 132.914)scale(2.48635 2.49)" gradientUnits="userSpaceOnUse"/><radialGradient xlink:href="#b" id="e" cx="63.898" cy="63.819" r="23.706" fx="63.898" fy="63.819" gradientTransform="rotate(-90 63.964 168.82)scale(2.64426)" gradientUnits="userSpaceOnUse"/><radialGradient xlink:href="#c" id="d" cx="63.898" cy="63.819" r="23.706" fx="63.898" fy="63.819" gradientTransform="rotate(-90 69.618 198.682)scale(3.11202)" gradientUnits="userSpaceOnUse"/><linearGradient id="c"><stop offset="0" style="stop-color:#555;stop-opacity:1"/><stop offset="1" style="stop-color:#292929;stop-opacity:1"/></linearGradient><linearGradient id="b"><stop offset="0" style="stop-color:#555;stop-opacity:1"/><stop offset="1" style="stop-color:#3f3f3f;stop-opacity:1"/></linearGradient><linearGradient id="a"><stop offset="0" style="stop-color:#00f4ff;stop-opacity:1"/><stop offset="1" style="stop-color:#00b9ff;stop-opacity:1"/></linearGradient><filter id="g" width="1.202" height="1.202" x="-.101" y="-.101" style="color-interpolation-filters:sRGB"><feGaussianBlur stdDeviation="1.318"/></filter><filter id="f" width="1.109" height="1.109" x="-.055" y="-.055" style="color-interpolation-filters:sRGB"><feGaussianBlur stdDeviation=".991"/></filter></defs><rect width="55.599" height="55.599" x="4.2" y="4.2" rx="14.13" ry="14.13" style="fill:url(#d);fill-opacity:1;stroke:none;stroke-width:.200484;stroke-dasharray:none;stroke-opacity:1"/><rect width="47.242" height="47.242" x="8.379" y="8.379" rx="10.148" ry="10.148" style="opacity:1;fill:url(#e);fill-opacity:1;stroke:none;stroke-width:.17035;stroke-dasharray:none;stroke-opacity:1"/><rect width="47.242" height="47.242" x="8.379" y="8.379" rx="10.148" ry="10.148" style="fill:none;fill-opacity:1;stroke:#000;stroke-width:.40000001;stroke-dasharray:none;stroke-opacity:1;filter:url(#f)"/><path d="M16.808 15.796c-.448 0-.896.448-.896.895v24.066c0 .448.448.896.896.896s.896-.448.896-.896v-23.17H45.02l-3.583 3.582H22.182c-.448 0-.896.448-.896.896v13.791c0 .448.448.896.896.896.447 0 .895-.448.895-.896V22.961h16.569l-3.582 3.582h-8.509c-.448 0-.895.448-.895.896v2.686c0 .448.447.896.895.896s.896-.448.896-.896v-1.79h5.821c-5.293 5.377-15.248 15.283-17.91 17.93a1 1 0 0 0-.149.193c-.132.166-.332.464-.332.763 0 .448.448.895.895.895h30.451c.448 0 .896-.447.896-.895V23.153c0-.448-.448-.896-.896-.896s-.895.448-.895.896v23.172H19.015l3.583-3.582h19.256c.447 0 .895-.448.895-.896v-13.79c0-.449-.448-.896-.895-.896-.448 0-.896.447-.896.895v12.896H24.389l3.583-3.583h8.508c.448 0 .895-.448.895-.896v-2.686c0-.448-.447-.896-.895-.896s-.896.448-.896.896v1.79h-5.821c5.293-5.377 15.248-15.283 17.91-17.93a1 1 0 0 0 .149-.193c.133-.166.332-.464.332-.763 0-.447-.448-.895-.895-.895z" style="fill:none;stroke-width:.20000001;opacity:1;fill-opacity:1;stroke:#001dff;stroke-opacity:1;filter:url(#g);stroke-dasharray:none"/><path d="M16.808 15.796c-.448 0-.896.448-.896.895v24.066c0 .448.448.896.896.896s.896-.448.896-.896v-23.17H45.02l-3.583 3.582H22.182c-.448 0-.896.448-.896.896v13.791c0 .448.448.896.896.896.447 0 .895-.448.895-.896V22.961h16.569l-3.582 3.582h-8.509c-.448 0-.895.448-.895.896v2.686c0 .448.447.896.895.896s.896-.448.896-.896v-1.79h5.821c-5.293 5.377-15.248 15.283-17.91 17.93a1 1 0 0 0-.149.193c-.132.166-.332.464-.332.763 0 .448.448.895.895.895h30.451c.448 0 .896-.447.896-.895V23.153c0-.448-.448-.896-.896-.896s-.895.448-.895.896v23.172H19.015l3.583-3.582h19.256c.447 0 .895-.448.895-.896v-13.79c0-.449-.448-.896-.895-.896-.448 0-.896.447-.896.895v12.896H24.389l3.583-3.583h8.508c.448 0 .895-.448.895-.896v-2.686c0-.448-.447-.896-.895-.896s-.896.448-.896.896v1.79h-5.821c5.293-5.377 15.248-15.283 17.91-17.93a1 1 0 0 0 .149-.193c.133-.166.332-.464.332-.763 0-.447-.448-.895-.895-.895z" style="fill:url(#h);stroke-width:.895609"/></svg>