<svg xmlns="http://www.w3.org/2000/svg" xmlns:xlink="http://www.w3.org/1999/xlink" width="64" height="64"><defs><radialGradient xlink:href="#a" id="f" cx="23.18" cy="48.922" r="28" fx="23.18" fy="48.922" gradientTransform="rotate(-15 -234.703 344.92)scale(3.26414 2.62297)" gradientUnits="userSpaceOnUse"/><radialGradient xlink:href="#b" id="g" cx="28.664" cy="34.453" r="8" fx="28.664" fy="34.453" gradientTransform="matrix(5.1484 0 0 5.56695 -132.749 -136.552)" gradientUnits="userSpaceOnUse"/><radialGradient xlink:href="#c" id="h" cx="32.326" cy="18.661" r="7" fx="32.326" fy="18.661" gradientTransform="rotate(15 179.333 -233.892)scale(2.818 2.67472)" gradientUnits="userSpaceOnUse"/><radialGradient xlink:href="#d" id="j" cx="27.155" cy="30.154" r="10.999" fx="27.155" fy="30.154" gradientTransform="matrix(2.37055 0 0 2.15519 -43.858 -35.81)" gradientUnits="userSpaceOnUse"/><radialGradient xlink:href="#e" id="i" cx="28.301" cy="34.323" r="10.999" fx="28.301" fy="34.323" gradientTransform="matrix(2.68684 0 0 2.44256 -53.979 -44.72)" gradientUnits="userSpaceOnUse"/><linearGradient id="e"><stop offset="0" style="stop-color:#69501b;stop-opacity:1"/><stop offset="1" style="stop-color:#613615;stop-opacity:1"/></linearGradient><linearGradient id="d"><stop offset="0" style="stop-color:#9b7528;stop-opacity:1"/><stop offset="1" style="stop-color:#9b5928;stop-opacity:1"/></linearGradient><linearGradient id="c"><stop offset="0" style="stop-color:#8ab9c1;stop-opacity:1"/><stop offset="1" style="stop-color:#8a9cc1;stop-opacity:1"/></linearGradient><linearGradient id="b"><stop offset="0" style="stop-color:#28837e;stop-opacity:1"/><stop offset="1" style="stop-color:#5cc0e3;stop-opacity:1"/></linearGradient><linearGradient id="a"><stop offset="0" style="stop-color:#148256;stop-opacity:1"/><stop offset="1" style="stop-color:#59dda8;stop-opacity:1"/></linearGradient><filter id="k" width="1.15" height="1.169" x="-.075" y="-.085" style="color-interpolation-filters:sRGB"><feGaussianBlur stdDeviation="1.691"/></filter></defs><path d="m6.192 13.616-1.384 2.768a5.15 5.15 97.235 0 0-.43 3.383l2.243 10.466a3.94 3.94 53.258 0 0 1.965 2.632l7.828 4.27a3.31 3.31 0 0 0 3.172 0l7.828-4.27A3.04 3.04 120.695 0 0 29 30.193v-2.386a2.165 2.165 50.152 0 0-1.778-2.13l-7.444-1.354a5.37 5.37 28.897 0 1-2.999-1.655l-8.558-9.336a1.244 1.244 172.027 0 0-2.029.284m49.587-.284-8.558 9.336a5.37 5.37 151.103 0 1-2.999 1.655l-7.444 1.354A2.165 2.165 129.848 0 0 35 27.807v2.386a3.04 3.04 59.305 0 0 1.586 2.672l7.828 4.27a3.34 3.34.216 0 0 3.179.012l8.014-4.294a3.83 3.83 126.566 0 0 1.947-2.625l2.092-10.456a5.27 5.27 82.372 0 0-.454-3.388l-1.384-2.768a1.244 1.244 7.973 0 0-2.029-.284M27.555 44.084l-5.11 3.832a2.003 2.003 101.083 0 0-.515 2.633l1.14 1.902a5.18 5.18 39.796 0 0 2.622 2.183l4.616 1.732a4.82 4.82 0 0 0 3.384 0l4.616-1.732a5.18 5.18 140.204 0 0 2.622-2.183l1.14-1.902a2.003 2.003 78.917 0 0-.515-2.633l-5.11-3.832A5.42 5.42 18.435 0 0 33.193 43h-2.386a5.42 5.42 161.565 0 0-3.252 1.084" style="fill:url(#f)"/><path d="m30.733 8.067-3.066 3.066a2.56 2.56 100.048 0 0-.512 2.892l1.09 2.35a3.3 3.3 93.55 0 1-.195 3.145l-3.1 4.96a6.25 6.25 106.003 0 0-.95 3.312v8.416a7.2 7.2 75.964 0 0 .843 3.373l6.314 11.838a.956.956 0 0 0 1.686 0l6.314-11.838A7.2 7.2 104.036 0 0 40 36.208v-8.416a6.25 6.25 73.997 0 0-.95-3.312l-3.1-4.96a3.3 3.3 86.45 0 1-.195-3.145l1.09-2.35a2.56 2.56 79.952 0 0-.512-2.892l-3.066-3.066a1.79 1.79 0 0 0-2.534 0" style="fill:url(#g)"/><rect width="14" height="3" x="32" y="12" rx="1.5" ry="1.5" style="fill:url(#h)"/><path d="m38.025 21.742-16 14a3 3 0 0 0-.283 4.233 3 3 0 0 0 4.233.283l16-14a3 3 0 0 0 .283-4.233 3 3 0 0 0-4.233-.283" style="fill:url(#i);stroke-linecap:round;stroke-linejoin:round"/><path d="M23.8 21.006a3 3 0 0 0-2.058 1.02 3 3 0 0 0 .283 4.232l16 14a3 3 0 0 0 4.233-.283 3 3 0 0 0-.283-4.233l-16-14a3 3 0 0 0-2.174-.736" style="fill:url(#j);stroke-linecap:round;stroke-linejoin:round"/><g style="filter:url(#k)"><path d="M7.226 12.835a1.24 1.24 0 0 0-.933.676l-1.385 2.767a5.15 5.15 0 0 0-.43 3.383L6.72 30.128a3.94 3.94 0 0 0 1.965 2.63l7.828 4.27c.989.54 2.184.54 3.172 0l2.291-1.25q.071-.072.149-.142l1.974-1.729V27.88l-1.974-1.729a3 3 0 0 1-.971-1.7l-1.277-.233a5.37 5.37 0 0 1-2.998-1.656L8.32 13.226a1.24 1.24 0 0 0-1.094-.391zm49.746 0a1.24 1.24 0 0 0-1.093.39l-8.559 9.337a5.37 5.37 0 0 1-2.998 1.656l-1.277.232a3 3 0 0 1-.971 1.701l-1.975 1.729v6.027l1.975 1.729q.077.069.148.142l2.291 1.25c.99.54 2.186.545 3.18.012l8.014-4.293a3.83 3.83 0 0 0 1.947-2.625l2.092-10.457c.23-1.148.07-2.34-.453-3.387l-1.385-2.767a1.24 1.24 0 0 0-.936-.676zM27.433 44.144l-4.888 3.666a2.003 2.003 0 0 0-.516 2.632l1.14 1.903a5.18 5.18 0 0 0 2.622 2.183l4.617 1.73a4.82 4.82 0 0 0 3.383 0l4.617-1.73a5.18 5.18 0 0 0 2.621-2.183l1.14-1.903a2.003 2.003 0 0 0-.515-2.632l-4.889-3.666-3.822 7.168a.956.956 0 0 1-1.687 0z" style="baseline-shift:baseline;display:inline;overflow:visible;fill:none;stroke:#000;stroke-width:.2;stroke-dasharray:none;stroke-opacity:1;enable-background:accumulate;stop-color:#000;stop-opacity:1"/><path d="M32.1 7.437c-.476 0-.932.189-1.268.525l-3.065 3.064a2.56 2.56 0 0 0-.513 2.893l1.091 2.35a3.3 3.3 0 0 1-.195 3.144l-1.63 2.611 5.58 4.883 5.581-4.883-1.63-2.61a3.3 3.3 0 0 1-.196-3.145l.639-1.375h-2.895c-.83 0-1.5-.67-1.5-1.5 0-.831.67-1.5 1.5-1.5h3.397a2.55 2.55 0 0 0-.563-.868l-3.066-3.064a1.8 1.8 0 0 0-1.268-.525Zm-8 20.443v6.027l3.445-3.013zm16 0-3.446 3.014 3.445 3.013zm-8 7-6.026 5.271a3 3 0 0 1-.564.387l5.746 10.774a.956.956 0 0 0 1.687 0l5.746-10.774a3 3 0 0 1-.564-.387z" style="baseline-shift:baseline;display:inline;overflow:visible;fill:none;stroke:#000;stroke-width:.2;stroke-dasharray:none;stroke-opacity:1;enable-background:accumulate;stop-color:#000;stop-opacity:1"/><path d="M33.6 11.894c-.832 0-1.5.669-1.5 1.5 0 .83.668 1.5 1.5 1.5h11c.83 0 1.5-.67 1.5-1.5 0-.831-.67-1.5-1.5-1.5z" style="baseline-shift:baseline;display:inline;overflow:visible;fill:none;stroke:#000;stroke-width:.2;stroke-dasharray:none;stroke-opacity:1;enable-background:accumulate;stop-color:#000;stop-opacity:1"/><path d="M40.004 20.896a3 3 0 0 0-1.88.74L32.1 26.907l4.555 3.987 5.42-4.743a3 3 0 0 0-2.07-5.256m-12.46 9.998-5.42 4.742a3 3 0 0 0 3.95 4.515l6.025-5.271z" style="baseline-shift:baseline;display:inline;overflow:visible;fill:none;stroke:#000;stroke-width:.2;stroke-linecap:round;stroke-linejoin:round;stroke-dasharray:none;stroke-opacity:1;enable-background:accumulate;stop-color:#000;stop-opacity:1"/><path d="M23.9 20.9a3 3 0 0 0-2.058 1.019 3 3 0 0 0 .283 4.232l16 14a3 3 0 0 0 4.232-.283 3 3 0 0 0-.283-4.232l-16-14a3 3 0 0 0-2.174-.737" style="baseline-shift:baseline;display:inline;overflow:visible;fill:none;stroke:#000;stroke-width:.2;stroke-linecap:round;stroke-linejoin:round;stroke-dasharray:none;stroke-opacity:1;enable-background:accumulate;stop-color:#000;stop-opacity:1"/></g></svg>