<svg xmlns="http://www.w3.org/2000/svg" xmlns:xlink="http://www.w3.org/1999/xlink" width="64" height="64"><defs><filter id="c" width="1.254" height="1.211" x="-.127" y="-.106" style="color-interpolation-filters:sRGB"><feGaussianBlur stdDeviation="2.282"/></filter><filter id="d" width="1.247" height="1.197" x="-.123" y="-.099" style="color-interpolation-filters:sRGB"><feGaussianBlur stdDeviation="1.643"/></filter><radialGradient xlink:href="#a" id="b" cx="22.595" cy="41.069" r="19.74" fx="22.595" fy="41.069" gradientTransform="rotate(-30 -113.509 189.779)scale(2.9062 3.4926)" gradientUnits="userSpaceOnUse"/><linearGradient id="a"><stop offset="0" style="stop-color:#f556b6;stop-opacity:1"/><stop offset="1" style="stop-color:#f57856;stop-opacity:1"/></linearGradient></defs><path d="M31.998 5.621a5.85 5.85 0 0 0-4.591 2.235L11.284 28.43c-1.644 2.098-1.645 5.106 0 7.203l16.125 20.571v.002c2.276 2.898 6.906 2.898 9.182 0v-.002l16.125-20.57c1.645-2.098 1.644-5.106 0-7.204v-.002L36.593 7.857a5.85 5.85 0 0 0-4.59-2.236Z" style="fill:url(#b);stroke-width:1.11192"/><path d="M31.998 5.621a5.85 5.85 0 0 0-4.591 2.235L11.284 28.43c-1.644 2.098-1.645 5.106 0 7.203l16.125 20.571v.002c2.276 2.898 6.906 2.898 9.182 0v-.002l16.125-20.57c1.645-2.098 1.644-5.106 0-7.204v-.002L36.593 7.857a5.85 5.85 0 0 0-4.59-2.236Z" style="fill:none;stroke-width:.2;stroke:#000;stroke-opacity:1;stroke-dasharray:none;filter:url(#c)"/><path d="M32 12a1.5 1.5 0 0 0-1.18.574l-14.5 18.5a1.5 1.5 0 0 0 0 1.852l14.5 18.5a1.5 1.5 0 0 0 2.36 0l14.5-18.5a1.5 1.5 0 0 0 0-1.852l-14.5-18.5A1.5 1.5 0 0 0 32 12m0 5.418 3.385 12.234A1.064 1.064 127.267 0 1 34.359 31h-4.718a1.064 1.064 52.733 0 1-1.026-1.348Zm-3.213 2.613-2.492 9.002A2.68 2.68 142.738 0 1 23.709 31h-3.52zm6.426 0L43.81 31h-3.52a2.68 2.68 37.262 0 1-2.586-1.967ZM20.189 33h3.52a2.68 2.68 37.262 0 1 2.586 1.967l2.492 9.002zm9.452 0h4.718a1.064 1.064 52.733 0 1 1.026 1.348L32 46.582l-3.385-12.234A1.064 1.064 127.267 0 1 29.641 33m10.65 0h3.52l-8.598 10.969 2.492-9.002A2.68 2.68 142.738 0 1 40.291 33" style="fill:#fff;stroke-linecap:round;stroke-linejoin:round;filter:url(#d);opacity:.5976243" transform="translate(-3.581 -3.552)scale(1.11192)"/><path d="M32 12a1.5 1.5 0 0 0-1.18.574l-14.5 18.5a1.5 1.5 0 0 0 0 1.852l14.5 18.5a1.5 1.5 0 0 0 2.36 0l14.5-18.5a1.5 1.5 0 0 0 0-1.852l-14.5-18.5A1.5 1.5 0 0 0 32 12m0 5.418 3.385 12.234A1.064 1.064 127.267 0 1 34.359 31h-4.718a1.064 1.064 52.733 0 1-1.026-1.348Zm-3.213 2.613-2.492 9.002A2.68 2.68 142.738 0 1 23.709 31h-3.52zm6.426 0L43.81 31h-3.52a2.68 2.68 37.262 0 1-2.586-1.967ZM20.189 33h3.52a2.68 2.68 37.262 0 1 2.586 1.967l2.492 9.002zm9.452 0h4.718a1.064 1.064 52.733 0 1 1.026 1.348L32 46.582l-3.385-12.234A1.064 1.064 127.267 0 1 29.641 33m10.65 0h3.52l-8.598 10.969 2.492-9.002A2.68 2.68 142.738 0 1 40.291 33" style="opacity:.705825;fill:#fff;stroke-linecap:round;stroke-linejoin:round" transform="translate(-3.581 -3.581)scale(1.11192)"/></svg>