<svg xmlns="http://www.w3.org/2000/svg" xmlns:xlink="http://www.w3.org/1999/xlink" width="64" height="64"><defs><radialGradient xlink:href="#a" id="b" cx="-3.005" cy="71.243" r="26.4" fx="-3.005" fy="71.243" gradientTransform="rotate(-30 -437.608 165.84)scale(4.24227 4.32261)" gradientUnits="userSpaceOnUse"/><linearGradient id="a"><stop offset="0" style="stop-color:#ff7316;stop-opacity:1"/><stop offset="1" style="stop-color:#ffb216;stop-opacity:1"/></linearGradient><filter id="c" width="1.29" height="1.284" x="-.145" y="-.142" style="color-interpolation-filters:sRGB"><feGaussianBlur stdDeviation="3.144"/></filter></defs><path d="M11.904 7.147a4.295 4.295 0 0 0-4.295 4.295v3.237a4.295 4.295 0 0 0 4.295 4.295h8.1c-4.164 3.47-6.839 8.647-6.852 14.401v.022c.018 7.732 4.794 14.452 11.628 17.308.711.297 1.307 1.115 1.307 1.886v.99a3.27 3.27 0 0 0 3.271 3.272h5.284a3.27 3.27 0 0 0 3.271-3.272v-.99c0-.77.596-1.589 1.307-1.886 6.834-2.856 11.61-9.576 11.628-17.308v-.011c0-5.753-2.663-10.932-6.816-14.413h8.064a4.295 4.295 0 0 0 4.295-4.294v-3.237a4.295 4.295 0 0 0-4.295-4.295Z" style="fill:url(#b);stroke-width:.923885;paint-order:stroke fill markers"/><path d="M10.248 5.1A4.65 4.65 0 0 0 5.6 9.748v3.504a4.65 4.65 0 0 0 4.648 4.648h8.768c-4.508 3.757-7.402 9.36-7.416 15.588v.024c.018 8.369 5.189 15.643 12.586 18.734.769.322 1.414 1.207 1.414 2.041v1.072a3.54 3.54 0 0 0 3.54 3.541h5.72a3.54 3.54 0 0 0 3.54-3.54v-1.073c0-.834.645-1.72 1.414-2.04C47.211 49.154 52.382 41.88 52.4 33.511V33.5c0-6.227-2.881-11.833-7.377-15.6h8.729a4.65 4.65 0 0 0 4.648-4.648V9.748A4.65 4.65 0 0 0 53.752 5.1z" style="mix-blend-mode:normal;fill:none;stroke:#000;stroke-width:.2;stroke-dasharray:none;stroke-opacity:1;paint-order:stroke fill markers;filter:url(#c)" transform="translate(2.436 2.436)scale(.92389)"/><path d="M11 11.239v.522A1.24 1.24 45 0 0 12.239 13H31v5.107c-7.929.771-13.982 7.427-14 15.393.018 7.966 6.071 14.622 14 15.393v3.989A1.12 1.12 45 0 0 32.118 54h.764A1.12 1.12 135 0 0 34 52.882v-3.99c7.929-.77 13.982-7.426 14-15.392 0-7.98-6.058-14.656-14-15.428V13h18.761A1.24 1.24 135 0 0 54 11.761v-.522A1.24 1.24 45 0 0 52.761 10H12.24A1.24 1.24 135 0 0 11 11.239m23 9.855A12.5 12.5 0 0 1 45 33.5a12.5 12.5 0 0 1-11 12.38zm-3 .025v24.762A12.5 12.5 0 0 1 20 33.5a12.5 12.5 0 0 1 11-12.38" style="fill:#3e3e3e;paint-order:stroke fill markers" transform="translate(2.436 2.436)scale(.92389)"/></svg>