<svg xmlns="http://www.w3.org/2000/svg" xmlns:xlink="http://www.w3.org/1999/xlink" width="64" height="64"><defs><filter id="i" width="1.35" height="1.65" x="-.175" y="-.325" style="color-interpolation-filters:sRGB"><feGaussianBlur stdDeviation="1.853"/></filter><filter id="h" width="1.298" height="1.722" x="-.149" y="-.361" style="color-interpolation-filters:sRGB"><feGaussianBlur stdDeviation="1.853"/></filter><filter id="g" width="1.366" height="1.722" x="-.183" y="-.361" style="color-interpolation-filters:sRGB"><feGaussianBlur stdDeviation="1.853"/></filter><filter id="e" width="1.274" height="1.274" x="-.137" y="-.137" style="color-interpolation-filters:sRGB"><feGaussianBlur stdDeviation="2.985"/></filter><filter id="c" width="1.761" height="1.76" x="-.38" y="-.38" style="color-interpolation-filters:sRGB"><feGaussianBlur stdDeviation="7.958"/></filter><filter id="j" width="1.266" height="2.376" x="-.133" y="-.688" style="color-interpolation-filters:sRGB"><feGaussianBlur stdDeviation="1.609"/></filter><radialGradient xlink:href="#a" id="f" cx="13.918" cy="93.249" r="14.683" fx="13.918" fy="93.249" gradientTransform="rotate(-15 -934.674 304.836)scale(3.45366 3.07502)" gradientUnits="userSpaceOnUse"/><radialGradient xlink:href="#b" id="d" cx="9" cy="39.697" r="25.102" fx="9" fy="39.697" gradientTransform="matrix(3.25605 0 0 3.2593 -34.478 -66.226)" gradientUnits="userSpaceOnUse"/><linearGradient id="b"><stop offset="0" style="stop-color:#97b871;stop-opacity:1"/><stop offset="1" style="stop-color:#c4ffac;stop-opacity:1"/></linearGradient><linearGradient id="a"><stop offset="0" style="stop-color:#2e7d32;stop-opacity:1"/><stop offset="1" style="stop-color:#43a047;stop-opacity:1"/></linearGradient></defs><path d="M21.107 6.873v6.86a22.3 22.3 0 0 1-1.603 8.307L7.13 52.939c-.837 2.094.697 4.188 2.929 4.188h43.935c2.231 0 3.626-2.234 2.928-4.188L44.5 22.038a22.3 22.3 0 0 1-1.606-8.305v-6.86Z" style="opacity:1;mix-blend-mode:normal;fill:#fff;fill-opacity:1;stroke-width:.947263;filter:url(#c)" transform="translate(13.848 13.848)scale(.56724)"/><path d="M21.107 6.873v6.86a22.3 22.3 0 0 1-1.603 8.307L7.13 52.939c-.837 2.094.697 4.188 2.929 4.188h43.935c2.231 0 3.626-2.234 2.928-4.188L44.5 22.038a22.3 22.3 0 0 1-1.606-8.305v-6.86Z" style="opacity:.795916;fill:url(#d);stroke-width:.947263"/><path d="M20 6.947v7.242a23.6 23.6 0 0 1-1.691 8.77L5.244 55.579C4.361 57.788 5.98 60 8.336 60h46.38c2.357 0 3.829-2.359 3.093-4.422L44.695 22.957A23.5 23.5 0 0 1 43 14.189V6.947Z" style="fill:none;stroke:#000;stroke-width:.2;stroke-dasharray:none;stroke-opacity:1;filter:url(#e)" transform="translate(2.161 .292)scale(.94726)"/><path d="M43.746 9.764H20.254c-1.615 0-2.936-1.279-2.936-2.841s1.321-2.842 2.936-2.842h23.492c1.615 0 2.937 1.279 2.937 2.842 0 1.562-1.322 2.841-2.937 2.841" style="fill:url(#f);stroke-width:.947263"/><path d="M31.402 36.699c-6.565-1.09-11.243-7.79-11.243-7.79s6.065-4.92 12.63-3.831c6.564 1.089 11.052 7.506 11.052 7.506s-5.875 5.204-12.44 4.115" style="fill:#2e7d32;stroke-width:.947263"/><path d="M30.973 38.43c-6.93-1.15-11.869-8.224-11.869-8.224s6.402-5.193 13.332-4.043 11.668 7.923 11.668 7.923-6.201 5.494-13.131 4.344z" style="fill:none;stroke:#000;stroke-width:.2;stroke-dasharray:none;stroke-opacity:1;filter:url(#g)" transform="translate(2.161 .292)scale(.94726)"/><path d="M34.865 54.968c-8.632-.486-16.76-7.1-16.76-7.1s5.565-5.983 14.04-5.436c8.473.546 16.76 7.1 16.76 7.1s-5.409 5.922-14.04 5.436z" style="fill:none;stroke:#000;stroke-width:.2;stroke-dasharray:none;stroke-opacity:1;filter:url(#h)" transform="translate(2.161 .292)scale(.94726)"/><path d="M35.088 52.364c-8.176-.46-15.876-6.725-15.876-6.725s5.272-5.668 13.3-5.15c8.026.518 15.876 6.725 15.876 6.725s-5.123 5.61-13.3 5.15" style="fill:#388e3c;stroke-width:.947263"/><path d="M25.915 35.58c-6.88 3.702-6.703 10.139-6.703 10.139s11.247.632 17.926-3.036c6.68-3.667 6.703-10.138 6.703-10.138s-11.045-.666-17.926 3.036" style="fill:#43a047;stroke-width:.947263"/><path d="M25.18 37.25c-7.263 3.907-7.075 10.703-7.075 10.703s11.873.667 18.924-3.205 7.075-10.702 7.075-10.702-11.66-.703-18.923 3.204z" style="fill:none;stroke:#000;stroke-width:.2;stroke-dasharray:none;stroke-opacity:1;filter:url(#i)" transform="translate(2.161 .292)scale(.94726)"/><path d="M43.746 9.764H20.254c-1.615 0-2.936-1.279-2.936-2.841s1.321-2.842 2.936-2.842h23.492c1.615 0 2.937 1.279 2.937 2.842 0 1.562-1.322 2.841-2.937 2.841z" style="fill:none;stroke-width:.1;stroke:#000;stroke-opacity:1;stroke-dasharray:none;filter:url(#j)"/></svg>