<svg xmlns="http://www.w3.org/2000/svg" xmlns:xlink="http://www.w3.org/1999/xlink" width="64" height="64"><defs><filter id="d" width="1.294" height="1.281" x="-.147" y="-.141" style="color-interpolation-filters:sRGB"><feGaussianBlur stdDeviation="2.51"/></filter><filter id="c" width="1.217" height="1.217" x="-.109" y="-.109" style="color-interpolation-filters:sRGB"><feGaussianBlur stdDeviation="2.309"/></filter><radialGradient xlink:href="#a" id="b" cx="19.11" cy="9.668" r="26.208" fx="19.11" fy="9.668" gradientTransform="rotate(90 28.908 -3.564)scale(2.0088)" gradientUnits="userSpaceOnUse"/><linearGradient id="a"><stop offset="0" style="stop-color:#7c7c7c;stop-opacity:1"/><stop offset="1" style="stop-color:#595959;stop-opacity:1"/></linearGradient></defs><circle cx="32" cy="32" r="26.208" style="fill:url(#b);fill-opacity:1;stroke:none;stroke-width:.3;stroke-linecap:round;stroke-linejoin:round;stroke-miterlimit:4.2;paint-order:markers stroke fill"/><path d="M36.542 10.464a22.5 22.5 0 0 0-4.8-.476c-9.314.102-17.458 5.92-20.572 14.422-.456 1.244.374 2.284 1.7 2.271l38.217-.37c1.325-.012 2.126-1.066 1.637-2.297-2.729-6.869-8.784-12.004-16.182-13.55m8.4 18.678-6.74.053c-.866.007-1.687.729-1.512 1.573.432 2.08 2.244 4.026 4.97 4.004 2.44-.02 4.333-1.895 4.783-4.082.174-.845-.635-1.555-1.501-1.548m-20.496.074-6.643.066c-.866.009-1.687.731-1.515 1.576.424 2.082 2.215 4.02 4.913 3.994 2.63 0 4.414-2.086 4.808-4.093.166-.844-.696-1.551-1.563-1.543M51.23 37.32l-38.217.37c-1.326.012-2.127 1.066-1.638 2.298 3.352 8.445 11.663 14.107 20.983 14.025 9.314-.102 17.458-5.92 20.572-14.422.456-1.244-.374-2.284-1.7-2.271" style="fill:#fff;fill-opacity:1" transform="rotate(-15 40.44 20.983)scale(.92)"/><circle cx="32" cy="32" r="26.208" style="fill:none;fill-opacity:1;stroke:#000;stroke-width:.3;stroke-linecap:round;stroke-linejoin:round;stroke-miterlimit:4.2;paint-order:markers stroke fill;stroke-opacity:1;stroke-dasharray:none;filter:url(#c)"/><path d="M36.542 10.464a22.5 22.5 0 0 0-4.8-.476c-9.314.102-17.458 5.92-20.572 14.422-.456 1.244.374 2.284 1.7 2.271l38.217-.37c1.325-.012 2.126-1.066 1.637-2.297-2.729-6.869-8.784-12.004-16.182-13.55Zm8.4 18.678-6.74.053c-.866.007-1.687.729-1.512 1.573.432 2.08 2.244 4.026 4.97 4.004 2.44-.02 4.333-1.895 4.783-4.082.174-.845-.635-1.555-1.501-1.548zm-20.496.074-6.643.066c-.866.009-1.687.731-1.515 1.576.424 2.082 2.215 4.02 4.913 3.994 2.63 0 4.414-2.086 4.808-4.093.166-.844-.696-1.551-1.563-1.543zM51.23 37.32l-38.217.37c-1.326.012-2.127 1.066-1.638 2.298 3.352 8.445 11.663 14.107 20.983 14.025 9.314-.102 17.458-5.92 20.572-14.422.456-1.244-.374-2.284-1.7-2.271z" style="fill:none;fill-opacity:1;stroke:#000;stroke-width:.326085;stroke-dasharray:none;stroke-opacity:1;filter:url(#d)" transform="rotate(-15 40.465 21.173)scale(.92)"/></svg>