<svg xmlns="http://www.w3.org/2000/svg" xmlns:xlink="http://www.w3.org/1999/xlink" width="64" height="64"><defs><filter id="c" width="1.219" height="1.219" x="-.11" y="-.11" style="color-interpolation-filters:sRGB"><feGaussianBlur stdDeviation="2.326"/></filter><filter id="d" width="1.085" height="1.085" x="-.042" y="-.042" style="color-interpolation-filters:sRGB"><feGaussianBlur stdDeviation=".712"/></filter><radialGradient xlink:href="#a" id="b" cx="17.233" cy="19.954" r="28" fx="17.233" fy="19.954" gradientTransform="rotate(90 55.918 6.562)scale(2.99617)" gradientUnits="userSpaceOnUse"/><linearGradient id="a"><stop offset="0" style="stop-color:#00c8ff;stop-opacity:1"/><stop offset="1" style="stop-color:#0081ff;stop-opacity:1"/></linearGradient></defs><path d="M32.026 5.882a7.2 7.2 0 0 0-4.104 1.27L8.988 20.212a7.18 7.18 0 0 0-3.104 5.912V47.67s-.101 2.251 1.11 4.756c1.21 2.506 5.173 5.69 9.227 5.69h31.558c4.054 0 8.016-3.184 9.227-5.69 1.211-2.505 1.11-4.756 1.11-4.756V26.124a7.18 7.18 0 0 0-3.104-5.913L36.078 7.152a7.2 7.2 0 0 0-4.052-1.27" style="fill:url(#b);stroke-width:.932776"/><path d="M32.026 5.882a7.2 7.2 0 0 0-4.104 1.27L8.988 20.212a7.18 7.18 0 0 0-3.104 5.912V47.67s-.101 2.251 1.11 4.756c1.21 2.506 5.173 5.69 9.227 5.69h31.558c4.054 0 8.016-3.184 9.227-5.69 1.211-2.505 1.11-4.756 1.11-4.756V26.124a7.18 7.18 0 0 0-3.104-5.913L36.078 7.152a7.2 7.2 0 0 0-4.052-1.27z" style="fill:none;stroke-width:.3;stroke:#000;stroke-opacity:1;stroke-dasharray:none;filter:url(#c)"/><path d="m30.87 10.35-20 13.7A2 2 0 0 0 10 25.7v7.991a2 2 0 0 0 1.016 1.743l20 11.306a2 2 0 0 0 1.992-.011l12-7a2 2 0 1 0-2.016-3.458l-11.008 6.422-16.672-9.426A2.58 2.58 59.741 0 1 14 31.017v-2.755a2.86 2.86 117.794 0 1 1.244-2.36L32 14.424l16.756 11.478c.687.47 1.244 1.527 1.244 2.36l.008 19.737A2 2 0 0 1 48.006 50H15.895A1.895 1.895 45 0 1 14 48.105V41a2 2 0 0 0-4 0v7.455s.012 1.287.684 2.637c.671 1.35 2.4 2.908 4.8 2.908h33.432c2.401 0 4.131-1.67 4.676-3.078.544-1.409.4-2.688.4-2.688L54 48.4V25.7a2 2 0 0 0-.87-1.65l-20-13.7a2 2 0 0 0-2.26 0" style="color:#000;fill:#fff;stroke-linecap:round;stroke-linejoin:round;-inkscape-stroke:none" transform="translate(2.151 2.151)scale(.93278)"/><path d="M24.11 26.403a2 2 0 0 0-.228.015s-1.084.116-2.237.676-2.704 1.919-2.704 3.973a1.866 1.866 0 0 0 1.866 1.866 1.866 1.866 0 0 0 1.865-1.866c0-.336.103-.376.601-.617.477-.231.972-.308 1.019-.316h15.494c.012.002.452.049.866.274.42.227.676.299.676 1.244v5.945a1.866 1.866 0 0 0 1.865 1.865 1.866 1.866 0 0 0 1.866-1.865v-5.945c0-2.236-1.395-3.855-2.627-4.524a6.2 6.2 0 0 0-2.429-.721l-.113-.004z" style="color:#000;fill:#ffad42;stroke-width:.932776;stroke-linecap:round;stroke-linejoin:round;-inkscape-stroke:none"/><path d="M32 10c-.395 0-.79.115-1.13.349L10.869 24.05A2 2 0 0 0 10 25.7v7.992a2 2 0 0 0 1.016 1.743l20 11.307c.62.35 1.377.345 1.992-.013l12-7c.025-.014.045-.035.069-.05a2 2 0 0 0 .184-.134q.166-.134.297-.295a2 2 0 0 0 .118-.17 2 2 0 0 0 .184-.362 2 2 0 0 0 .056-.155 2 2 0 0 0 .08-.5l.008-.055v-6.374c0-2.397-1.495-4.132-2.816-4.85a6.7 6.7 0 0 0-2.603-.772l-.121-.004H23.545a2 2 0 0 0-.243.017s-1.162.124-2.4.724c-1.236.6-2.897 2.056-2.897 4.26a2 2 0 0 0 2 1.999 2 2 0 0 0 2-2c0-.36.11-.402.644-.662.51-.247 1.04-.33 1.091-.339h16.613c.012.002.484.052.928.293.45.244.724.321.724 1.334v5.214l-10.021 5.846-16.672-9.427A2.58 2.58 0 0 1 14 31.018v-2.756a2.86 2.86 0 0 1 1.244-2.36L32 14.424l16.756 11.478c.687.47 1.243 1.527 1.243 2.36.002 6.579.008 13.158.009 19.737a2 2 0 0 1-2.002 2.002H15.894A1.895 1.895 0 0 1 14 48.106v-7.107A2 2 0 1 0 10 41v7.456s.01 1.287.683 2.637c.671 1.35 2.4 2.908 4.8 2.908h33.434c2.401 0 4.131-1.67 4.676-3.078a6.2 6.2 0 0 0 .408-2.56V25.698c0-.659-.328-1.275-.871-1.648l-20-13.7A2 2 0 0 0 32 10" style="color:#000;fill:none;stroke-linecap:round;stroke-linejoin:round;stroke:#0024ff;stroke-opacity:1;stroke-width:.32162075;stroke-dasharray:none;filter:url(#d)" transform="translate(2.147 2.152)scale(.93278)"/></svg>