<svg xmlns="http://www.w3.org/2000/svg" xmlns:xlink="http://www.w3.org/1999/xlink" width="64" height="64"><defs><filter id="d" width="1.152" height="1.164" x="-.076" y="-.082" style="color-interpolation-filters:sRGB"><feGaussianBlur stdDeviation="1.111"/></filter><filter id="c" width="1.237" height="1.237" x="-.119" y="-.119" style="color-interpolation-filters:sRGB"><feGaussianBlur stdDeviation="2.493"/></filter><radialGradient xlink:href="#a" id="b" cx="19.82" cy="18.65" r="28" fx="19.82" fy="18.65" gradientTransform="rotate(30 58.703 -17.905)scale(2.02303)" gradientUnits="userSpaceOnUse"/><linearGradient id="a"><stop offset="0" style="stop-color:#ff782e;stop-opacity:1"/><stop offset="1" style="stop-color:#cf3c37;stop-opacity:1"/></linearGradient></defs><circle cx="32" cy="32" r="25.863" style="fill:url(#b);stroke-width:.923664"/><path d="M31.446 12.95c-6.313.299-11.283 5.488-11.318 11.801a11.8 11.8 0 0 0-3.132 2.224 11.88 11.88 0 0 0-.536 16.206 7.92 7.92 0 0 1 .536-10.606 7.9 7.9 0 0 1 5.86-2.307 9 9 0 0 0-.093 1.279 9.24 9.24 0 0 0 7.375 9.024 7.9 7.9 0 0 1-1.943 3.202 7.92 7.92 0 0 1-10.79.382A11.88 11.88 0 0 0 32 45.25a11.884 11.884 0 0 0 14.595-1.095 7.92 7.92 0 0 1-10.79-.382 7.9 7.9 0 0 1-1.943-3.202 9.24 9.24 0 0 0 7.375-9.024 9 9 0 0 0-.09-1.28 7.9 7.9 0 0 1 5.857 2.308 7.92 7.92 0 0 1 .536 10.606 11.88 11.88 0 0 0-.536-16.206 11.8 11.8 0 0 0-3.123-2.22c-.035-6.22-4.864-11.365-11.076-11.784a7.92 7.92 0 0 1 7.12 7.88c0 1.584-.47 3.055-1.272 4.293A9.24 9.24 0 0 0 32 22.31a9.24 9.24 0 0 0-6.637 2.845 7.87 7.87 0 0 1-1.277-4.304 7.92 7.92 0 0 1 7.36-7.9m.554 12a6.6 6.6 0 0 1 4.853 2.153 7.87 7.87 0 0 1-4.848 1.666 7.88 7.88 0 0 1-4.854-1.67A6.6 6.6 0 0 1 32 24.95m.005 5.14 1.98 1.98-1.98 1.979-1.98-1.979zm-6.537.706a7.9 7.9 0 0 1 2.727 1.78 7.88 7.88 0 0 1 2.31 5.375 6.6 6.6 0 0 1-5.102-6.404 7 7 0 0 1 .065-.75m13.064 0a7 7 0 0 1 .065.75 6.6 6.6 0 0 1-5.101 6.427 7.88 7.88 0 0 1 2.309-5.398 7.9 7.9 0 0 1 2.727-1.779" style="fill:#fff;stroke-width:.923664"/><circle cx="32" cy="32" r="25.863" style="fill:none;stroke-width:.30000001;stroke:#000;stroke-opacity:1;stroke-dasharray:none;stroke-linecap:round;stroke-linejoin:round;filter:url(#c)"/><path d="M31.446 12.95c-6.313.299-11.283 5.488-11.318 11.801a11.8 11.8 0 0 0-3.132 2.224 11.88 11.88 0 0 0-.536 16.206 7.92 7.92 0 0 1 .536-10.606 7.9 7.9 0 0 1 5.86-2.307 9 9 0 0 0-.093 1.279 9.24 9.24 0 0 0 7.375 9.024 7.9 7.9 0 0 1-1.943 3.202 7.92 7.92 0 0 1-10.79.382A11.88 11.88 0 0 0 32 45.25a11.884 11.884 0 0 0 14.595-1.095 7.92 7.92 0 0 1-10.79-.382 7.9 7.9 0 0 1-1.943-3.202 9.24 9.24 0 0 0 7.375-9.024 9 9 0 0 0-.09-1.28 7.9 7.9 0 0 1 5.857 2.308 7.92 7.92 0 0 1 .536 10.606 11.88 11.88 0 0 0-.536-16.206 11.8 11.8 0 0 0-3.123-2.22c-.035-6.22-4.864-11.365-11.076-11.784a7.92 7.92 0 0 1 7.12 7.88c0 1.584-.47 3.055-1.272 4.293A9.24 9.24 0 0 0 32 22.31a9.24 9.24 0 0 0-6.637 2.845 7.87 7.87 0 0 1-1.277-4.304 7.92 7.92 0 0 1 7.36-7.9m.554 12a6.6 6.6 0 0 1 4.853 2.153 7.87 7.87 0 0 1-4.848 1.666 7.88 7.88 0 0 1-4.854-1.67A6.6 6.6 0 0 1 32 24.95m.005 5.14 1.98 1.98-1.98 1.979-1.98-1.979zm-6.537.706a7.9 7.9 0 0 1 2.727 1.78 7.88 7.88 0 0 1 2.31 5.375 6.6 6.6 0 0 1-5.102-6.404 7 7 0 0 1 .065-.75m13.064 0a7 7 0 0 1 .065.75 6.6 6.6 0 0 1-5.101 6.427 7.88 7.88 0 0 1 2.309-5.398 7.9 7.9 0 0 1 2.727-1.779" style="fill:none;stroke-width:.30000001;stroke:red;stroke-opacity:1;stroke-dasharray:none;stroke-linecap:round;stroke-linejoin:round;filter:url(#d)"/></svg>