<svg xmlns="http://www.w3.org/2000/svg" xmlns:xlink="http://www.w3.org/1999/xlink" width="64" height="64"><defs><filter id="d" width="1.125" height="1.125" x="-.063" y="-.063" style="color-interpolation-filters:sRGB"><feGaussianBlur stdDeviation=".819"/></filter><filter id="c" width="1.225" height="1.225" x="-.112" y="-.112" style="color-interpolation-filters:sRGB"><feGaussianBlur stdDeviation="2.553"/></filter><radialGradient xlink:href="#a" id="b" cx="4.076" cy="3.666" r="28" fx="4.076" fy="3.666" gradientTransform="rotate(45 16.912 -2.464)scale(2.98583)" gradientUnits="userSpaceOnUse"/><linearGradient id="a"><stop offset="0" style="stop-color:#f16929;stop-opacity:1"/><stop offset="1" style="stop-color:#f12b29;stop-opacity:1"/></linearGradient></defs><path d="M18.462 4h27.076A14.46 14.46 45 0 1 60 18.462v27.076A14.46 14.46 135 0 1 45.538 60H18.462A14.46 14.46 45 0 1 4 45.538V18.462A14.46 14.46 135 0 1 18.462 4" style="fill:url(#b)" transform="translate(2.21 2.21)scale(.93096)"/><path d="M15 21.07v21.86A6.07 6.07 45 0 0 21.07 49h21.86A6.07 6.07 135 0 0 49 42.93V21.07A6.07 6.07 45 0 0 42.93 15H21.07A6.07 6.07 135 0 0 15 21.07M22.745 20h18.51A2.745 2.745 45 0 1 44 22.745v.663a3.84 3.84 112.5 0 1-1.126 2.718l-6.913 6.913a2.774 2.774 90 0 0 0 3.922l.078.078a2.774 2.774 0 0 0 3.922 0l3.275-3.275a.448.448 22.5 0 1 .764.317v7.174A2.745 2.745 135 0 1 41.255 44h-18.51A2.745 2.745 45 0 1 20 41.255v-1.663a3.84 3.84 112.5 0 1 1.126-2.718l6.913-6.913a2.774 2.774 90 0 0 0-3.922l-.078-.078a2.774 2.774 0 0 0-3.922 0l-3.275 3.275a.448.448 22.5 0 1-.764-.317v-6.174A2.745 2.745 135 0 1 22.745 20" style="fill:#fff" transform="translate(2.21 2.21)scale(.93096)"/><path d="M18.462 4h27.076A14.46 14.46 45 0 1 60 18.462v27.076A14.46 14.46 135 0 1 45.538 60H18.462A14.46 14.46 45 0 1 4 45.538V18.462A14.46 14.46 135 0 1 18.462 4Z" style="fill:none;stroke:#000;stroke-opacity:1;stroke-width:.32224799;stroke-dasharray:none;filter:url(#c)" transform="translate(2.21 2.21)scale(.93096)"/><path d="M15 21.07v21.86A6.07 6.07 45 0 0 21.07 49h21.86A6.07 6.07 135 0 0 49 42.93V21.07A6.07 6.07 45 0 0 42.93 15H21.07A6.07 6.07 135 0 0 15 21.07ZM22.745 20h18.51A2.745 2.745 45 0 1 44 22.745v.663a3.84 3.84 112.5 0 1-1.126 2.718l-6.913 6.913a2.774 2.774 90 0 0 0 3.922l.078.078a2.774 2.774 0 0 0 3.922 0l3.275-3.275a.448.448 22.5 0 1 .764.317v7.174A2.745 2.745 135 0 1 41.255 44h-18.51A2.745 2.745 45 0 1 20 41.255v-1.663a3.84 3.84 112.5 0 1 1.126-2.718l6.913-6.913a2.774 2.774 90 0 0 0-3.922l-.078-.078a2.774 2.774 0 0 0-3.922 0l-3.275 3.275a.448.448 22.5 0 1-.764-.317v-6.174A2.745 2.745 135 0 1 22.745 20Z" style="fill:none;stroke:red;stroke-opacity:1;stroke-width:.32224799;stroke-dasharray:none;filter:url(#d)" transform="translate(2.21 2.21)scale(.93096)"/></svg>