<svg xmlns="http://www.w3.org/2000/svg" xmlns:xlink="http://www.w3.org/1999/xlink" width="64" height="64"><defs><radialGradient xlink:href="#a" id="b" cx="22.283" cy="25.49" r="28" fx="22.283" fy="25.49" gradientTransform="matrix(2.01947 0 0 1.95223 -32.623 -30.471)" gradientUnits="userSpaceOnUse"/><linearGradient id="a"><stop offset="0" style="stop-color:#92d6c1;stop-opacity:1"/><stop offset="1" style="stop-color:#60c791;stop-opacity:1"/></linearGradient><filter id="c" width="1.161" height="1.161" x="-.08" y="-.08" style="color-interpolation-filters:sRGB"><feGaussianBlur stdDeviation="1.777"/></filter></defs><circle cx="32" cy="32" r="27.437" style="fill:url(#b);stroke-width:.979889"/><path d="M19 17h23.447a4.854 4.854 122.204 0 1-4.408 7H27.156a7.5 7.5 31.546 0 1-6.687-4.105z" style="fill:#1b4f2f" transform="translate(.644 .644)scale(.97989)"/><path d="m19 40 23.447-23 .97 1.91a7.79 7.79 99.322 0 1-1.492 9.087L28.157 41.503A5.752 5.752 9.322 0 1 19 40" style="fill:#207344" transform="translate(.644 .644)scale(.97989)"/><path d="M19 40h19.382a6.62 6.62 31.546 0 1 5.905 3.625L46 47H26.817a6.95 6.95 31.546 0 1-6.194-3.803z" style="fill:#219053" transform="translate(.644 .644)scale(.97989)"/><path d="M32 4.563A27.437 27.437 0 0 0 4.563 32 27.437 27.437 0 0 0 32 59.437 27.437 27.437 0 0 0 59.437 32 27.437 27.437 0 0 0 32 4.563ZM19.261 17.302h22.976l.95 1.871a7.63 7.63 0 0 1-1.46 8.906l-11.991 11.76h8.518a6.49 6.49 0 0 1 5.786 3.552l1.678 3.307H26.921a6.81 6.81 0 0 1-6.07-3.726l-1.59-3.133 15.983-15.678h-7.99a7.35 7.35 0 0 1-6.553-4.023z" style="fill:none;stroke:#000;stroke-width:.293967;stroke-dasharray:none;stroke-opacity:1;filter:url(#c)"/></svg>