<svg xmlns="http://www.w3.org/2000/svg" xmlns:xlink="http://www.w3.org/1999/xlink" width="64" height="64"><defs><filter id="c" width="1.23" height="1.23" x="-.115" y="-.115" style="color-interpolation-filters:sRGB"><feGaussianBlur stdDeviation="2.615"/></filter><filter id="d" width="1.111" height="1.174" x="-.056" y="-.087" style="color-interpolation-filters:sRGB"><feGaussianBlur stdDeviation=".818"/></filter><radialGradient xlink:href="#a" id="b" cx="6.858" cy="8.284" r="28" fx="6.858" fy="8.284" gradientTransform="rotate(75 18.092 7.868)scale(2.27262)" gradientUnits="userSpaceOnUse"/><linearGradient id="a"><stop offset="0" style="stop-color:#ee4343;stop-opacity:1"/><stop offset="1" style="stop-color:#ef3d52;stop-opacity:1"/></linearGradient></defs><path d="M19.05 4h25.9A15.05 15.05 45 0 1 60 19.05v25.9A15.05 15.05 135 0 1 44.95 60h-25.9A15.05 15.05 45 0 1 4 44.95v-25.9A15.05 15.05 135 0 1 19.05 4" style="fill:url(#b)" transform="translate(2.344 2.344)scale(.92675)"/><path d="M19.05 4h25.9A15.05 15.05 45 0 1 60 19.05v25.9A15.05 15.05 135 0 1 44.95 60h-25.9A15.05 15.05 45 0 1 4 44.95v-25.9A15.05 15.05 135 0 1 19.05 4Z" style="fill:none;stroke:#000;stroke-width:.323711;stroke-dasharray:none;stroke-opacity:1;filter:url(#c)" transform="translate(2.344 2.344)scale(.92675)"/><path d="M45.666 19.871c-6.168.059-12.079 4.884-12.078 12.033 0 2.879.942 5.365 2.465 7.319l-11.694-.002a.548.548 0 0 1-.431-.885l8.074-10.383c1.25-1.61.103-3.955-1.936-3.957H17.375a2.453 2.453 0 0 0 0 4.906h6.553c.456 0 .714.525.433.885l-8.076 10.377c-1.255 1.611-.106 3.961 1.936 3.961l26.537.004c.554 0 3.164-.122 5.525-1.107q.33-.138.658-.3c.882-.434 1.355-1.238 1.373-2.066s-.386-1.671-1.132-2.281h-.002l-.29-.236h-.001c-.867-.707-2.15-.71-3.118-.358-3.835 1.394-8.392-1.296-8.392-5.877 0-4.645 4.84-7.488 8.783-5.724.941.42 2.224.511 3.143-.127l.318-.221c.791-.55 1.26-1.357 1.305-2.184.044-.826-.37-1.662-1.215-2.162a11.6 11.6 0 0 0-6.047-1.615" style="color:#000;fill:#fa6;fill-opacity:1;stroke:none;stroke-width:5.798;stroke-linecap:butt;stroke-linejoin:miter;stroke-dasharray:none" transform="translate(-1.927)"/><path d="M45.666 19.871c-6.168.059-12.079 4.884-12.078 12.033 0 2.879.942 5.365 2.465 7.319l-11.694-.002a.548.548 0 0 1-.431-.885l8.074-10.383c1.25-1.61.103-3.955-1.936-3.957H17.375a2.453 2.453 0 0 0 0 4.906h6.553c.456 0 .714.525.433.885l-8.076 10.377c-1.255 1.611-.106 3.961 1.936 3.961l26.537.004c.554 0 3.164-.122 5.525-1.107q.33-.138.658-.3c.882-.434 1.355-1.238 1.373-2.066s-.386-1.671-1.132-2.281h-.002l-.29-.236h-.001c-.867-.707-2.15-.71-3.118-.358-3.835 1.394-8.392-1.296-8.392-5.877 0-4.645 4.84-7.488 8.783-5.724.941.42 2.224.511 3.143-.127l.318-.221c.791-.55 1.26-1.357 1.305-2.184.044-.826-.37-1.662-1.215-2.162a11.6 11.6 0 0 0-6.047-1.615z" style="color:#000;fill:none;fill-opacity:1;stroke:#ff000c;stroke-width:.3;stroke-linecap:butt;stroke-linejoin:miter;stroke-dasharray:none;stroke-opacity:1;filter:url(#d)" transform="translate(-1.927)"/></svg>