<svg xmlns="http://www.w3.org/2000/svg" xmlns:xlink="http://www.w3.org/1999/xlink" width="64" height="64"><defs><filter id="d" width="1.11" height="1.168" x="-.055" y="-.084" style="color-interpolation-filters:sRGB"><feGaussianBlur stdDeviation=".462"/></filter><filter id="c" width="1.23" height="1.23" x="-.115" y="-.115" style="color-interpolation-filters:sRGB"><feGaussianBlur stdDeviation="2.615"/></filter><radialGradient xlink:href="#a" id="b" cx="6.858" cy="8.284" r="28" fx="6.858" fy="8.284" gradientTransform="rotate(75 18.092 7.868)scale(2.27262)" gradientUnits="userSpaceOnUse"/><linearGradient id="a"><stop offset="0" style="stop-color:#ee4343;stop-opacity:1"/><stop offset="1" style="stop-color:#ef3d52;stop-opacity:1"/></linearGradient></defs><path d="M19.05 4h25.9A15.05 15.05 45 0 1 60 19.05v25.9A15.05 15.05 135 0 1 44.95 60h-25.9A15.05 15.05 45 0 1 4 44.95v-25.9A15.05 15.05 135 0 1 19.05 4" style="fill:url(#b)" transform="translate(2.344 2.344)scale(.92675)"/><path d="M17.361 9.227h-.039a1.75 1.75 135 0 0-1.752 1.752v9.093a.5.5 135 0 1-.498.498H9.495l4.321-6.139a2.1 2.1 107.57 0 0 .38-1.197 1.65 1.65 44.985 0 0-1.651-1.65h-5.17a1.584 1.584 135 0 0-1.584 1.584 1.44 1.44 38.83 0 0 1.585 1.275h2.767L6.189 19.86a2.07 2.07 108.063 0 0-.398 1.22v.038a2.31 2.31 45 0 0 2.312 2.312h7.39a2.937 2.937 135 0 0 2.937-2.938v-4.838a.251.251 162.259 0 1 .455-.146l.901 1.264a2.105 2.105 180 0 0 3.428 0l.9-1.264a.251.251 17.741 0 1 .456.146v6.365a1.397 1.397 45 0 0 1.397 1.397 1.56 1.56 131.505 0 0 1.463-1.653V10.98a1.75 1.75 45 0 0-1.752-1.752h-.04a1.54 1.54 151.367 0 0-1.296.708l-2.44 3.796a.478.478 0 0 1-.804 0l-2.44-3.796a1.54 1.54 28.633 0 0-1.297-.708" style="fill:#ffa85e;stroke:none;stroke-width:2.58969146;stroke-linecap:square;stroke-linejoin:miter;stroke-dasharray:none;color:#000;stroke-miterlimit:1.5;-inkscape-stroke:none;fill-opacity:1" transform="translate(2.344 2.318)scale(1.8535)"/><path d="M19.05 4h25.9A15.05 15.05 45 0 1 60 19.05v25.9A15.05 15.05 135 0 1 44.95 60h-25.9A15.05 15.05 45 0 1 4 44.95v-25.9A15.05 15.05 135 0 1 19.05 4Z" style="fill:none;stroke-width:.32371148;stroke-dasharray:none;stroke:#000;stroke-opacity:1;filter:url(#c)" transform="translate(2.344 2.344)scale(.92675)"/><path d="M17.361 9.227h-.039a1.75 1.75 135 0 0-1.752 1.752v9.093a.5.5 135 0 1-.498.498H9.495l4.321-6.139a2.1 2.1 107.57 0 0 .38-1.197 1.65 1.65 44.985 0 0-1.651-1.65h-5.17a1.584 1.584 135 0 0-1.584 1.584 1.44 1.44 38.83 0 0 1.585 1.275h2.767L6.189 19.86a2.07 2.07 108.063 0 0-.398 1.22v.038a2.31 2.31 45 0 0 2.312 2.312h7.39a2.937 2.937 135 0 0 2.937-2.938v-4.838a.251.251 162.259 0 1 .455-.146l.901 1.264a2.105 2.105 180 0 0 3.428 0l.9-1.264a.251.251 17.741 0 1 .456.146v6.365a1.397 1.397 45 0 0 1.397 1.397 1.56 1.56 131.505 0 0 1.463-1.653V10.98a1.75 1.75 45 0 0-1.752-1.752h-.04a1.54 1.54 151.367 0 0-1.296.708l-2.44 3.796a.478.478 0 0 1-.804 0l-2.44-3.796a1.54 1.54 28.633 0 0-1.297-.708z" style="color:#000;fill:none;stroke:#ff000e;stroke-width:.16185574;stroke-linecap:square;stroke-linejoin:miter;stroke-miterlimit:1.5;stroke-dasharray:none;stroke-opacity:1;filter:url(#d)" transform="translate(2.344 2.318)scale(1.8535)"/></svg>