<svg xmlns="http://www.w3.org/2000/svg" xmlns:xlink="http://www.w3.org/1999/xlink" xml:space="preserve" style="enable-background:new 0 0 64 64" viewBox="0 0 64 64"><defs><radialGradient xlink:href="#a" id="c" cx="10.757" cy="61.399" r="24.566" fx="10.757" fy="61.399" gradientTransform="matrix(0 -2.33099 2.51789 0 -79.138 79.402)" gradientUnits="userSpaceOnUse"/><radialGradient id="a" cx="-159.431" cy="15.463" r="64.707" fx="-159.431" fy="15.463" gradientTransform="matrix(-.89413 0 0 .96305 -80.754 49.33)" gradientUnits="userSpaceOnUse"><stop offset="0" style="stop-color:#5b5b5b;stop-opacity:1"/><stop offset="1" style="stop-color:#727272;stop-opacity:1"/></radialGradient><radialGradient xlink:href="#b" id="d" cx="51.926" cy="78.491" r="27.708" fx="51.926" fy="78.491" gradientTransform="matrix(0 -2.191 2.24189 0 -31.11 186.533)" gradientUnits="userSpaceOnUse"/><radialGradient id="b" cx="-159.431" cy="15.463" r="64.707" fx="-159.431" fy="15.463" gradientTransform="matrix(-.89413 0 0 .96305 -80.754 49.33)" gradientUnits="userSpaceOnUse"><stop offset="0" style="stop-color:gray;stop-opacity:1"/><stop offset="1" style="stop-color:#8e8e8e;stop-opacity:1"/></radialGradient><filter id="e" width="1.184" height="1.21" x="-.092" y="-.105" style="color-interpolation-filters:sRGB"><feGaussianBlur stdDeviation="2.045"/></filter></defs><path d="M22.196 11.795h-9.993A4.794 4.794 135 0 0 7.41 16.59V40.3c0 3.69 2.988 6.767 6.68 6.767h35.772a6.677 6.677 0 0 0 6.68-6.68V22.105a6.677 6.677 0 0 0-6.68-6.68H30.038a5.64 5.64 19.982 0 1-3.624-1.317l-1.642-1.376a4 4 19.982 0 0-2.576-.937" style="fill:url(#c);stroke-width:.878921" transform="translate(-3.06 -4.522)scale(1.0965)"/><path d="M11.604 20.662H40.25a13.76 13.76 45 0 1 13.762 13.762 13.637 13.637 135.527 0 1-13.762 13.51H24.64A14.755 14.755 45 0 1 9.885 33.18V22.382a1.72 1.72 135 0 1 1.719-1.72" style="opacity:.870323;fill:#fff;stroke-width:.2" transform="translate(-2.417 -5.74)scale(1.0965)"/><path d="M74.041 22.73h10.853a7.07 7.07 0 0 0 5.326-2.419 7.05 7.05 0 0 1 5.31-2.4h16.772a7.85 7.85 0 0 1 7.852 7.853v24.041a7.85 7.85 0 0 1-7.852 7.852h-38.26a7.85 7.85 0 0 1-7.853-7.852V30.583a7.85 7.85 0 0 1 7.852-7.853" style="fill:url(#d);fill-opacity:1;stroke:none;stroke-width:.681659;stroke-linecap:round;stroke-linejoin:round" transform="translate(-61.171 -2.069)"/><g style="filter:url(#e)" transform="translate(61.121 3.735)"><path d="M-50.8 4.676a5.257 5.257 0 0 0-5.257 5.258v14.101a7.84 7.84 0 0 1 3.358-5.726v-3.243c0-1.04.844-1.884 1.885-1.884H-30.5a7.04 7.04 0 0 1 3.738-1.075H-9.99a7.85 7.85 0 0 1 7.806 7.024v-3.15a7.32 7.32 0 0 0-7.324-7.325h-21.736a6.2 6.2 0 0 1-3.975-1.445l-1.799-1.508a4.4 4.4 0 0 0-2.826-1.027Zm.027 2.762h10.521c1.067 0 1.926.859 1.926 1.925s-.86 1.926-1.926 1.926h-10.521A1.92 1.92 0 0 1-52.7 9.363c0-1.066.86-1.925 1.926-1.925z" style="baseline-shift:baseline;display:inline;overflow:visible;fill:none;stroke:#000;stroke-width:.1;stroke-dasharray:none;stroke-opacity:1;enable-background:accumulate;stop-color:#000;stop-opacity:1"/><path d="M-50.814 13.182c-1.041 0-1.885.844-1.885 1.884v3.243a7.8 7.8 0 0 1 4.449-1.383h10.852a7.07 7.07 0 0 0 5.326-2.42c.46-.524.993-.963 1.572-1.324z" style="baseline-shift:baseline;display:inline;overflow:visible;fill:none;stroke:#000;stroke-width:.1;stroke-dasharray:none;stroke-opacity:1;enable-background:accumulate;stop-color:#000;stop-opacity:1"/><path d="M-26.762 12.107a7.05 7.05 0 0 0-5.31 2.399 7.07 7.07 0 0 1-5.326 2.42H-48.25a7.85 7.85 0 0 0-7.854 7.851V44a7.85 7.85 0 0 0 7.854 7.854h38.26A7.85 7.85 0 0 0-2.14 44V19.959a7.85 7.85 0 0 0-7.851-7.852z" style="baseline-shift:baseline;display:inline;overflow:visible;fill:none;stroke:#000;stroke-width:.1;stroke-linecap:round;stroke-linejoin:round;stroke-dasharray:none;stroke-opacity:1;enable-background:accumulate;stop-color:#000;stop-opacity:1"/></g><path d="M44.551 37.06a7.16 7.16 0 0 0-6.554 4.37c-2.73.327-4.915 2.621-4.915 5.461 0 3.059 2.403 5.462 5.461 5.462h12.78c1.967 0 3.496-1.638 3.496-3.495 0-1.311-.765-2.513-1.857-3.059.437-.546.765-1.31.765-2.075 0-1.857-1.42-3.277-3.277-3.277-1.202-2.185-3.496-3.387-5.899-3.387m.328 2.076c2.73 0 4.806 2.184 4.806 4.806 0 2.73-2.185 4.806-4.806 4.806-2.731 0-4.806-2.184-4.806-4.806s2.184-4.806 4.806-4.806m0 1.42c-.765 0-1.53.218-2.076.655h2.513c.983 0 1.747.328 1.747 1.639 0 1.529-.655 1.857-1.747 1.857h-1.093v2.731h.656c1.966 0 3.495-1.53 3.495-3.496 0-1.857-1.529-3.386-3.495-3.386m-2.076.655c-.873.656-1.42 1.639-1.42 2.731s.547 2.076 1.42 2.73V44.38zm1.42 1.42v.656h.656c.437 0 .655 0 .655-.328s-.218-.328-.655-.328z" style="opacity:.3;fill:#000;fill-opacity:1;stroke-width:1"/></svg>