<svg xmlns="http://www.w3.org/2000/svg" xmlns:xlink="http://www.w3.org/1999/xlink" xml:space="preserve" style="enable-background:new 0 0 64 64" viewBox="0 0 64 64"><defs><radialGradient xlink:href="#a" id="c" cx="10.757" cy="61.399" r="24.566" fx="10.757" fy="61.399" gradientTransform="matrix(0 -2.33099 2.51789 0 -79.138 79.402)" gradientUnits="userSpaceOnUse"/><radialGradient id="a" cx="-159.431" cy="15.463" r="64.707" fx="-159.431" fy="15.463" gradientTransform="matrix(-.89413 0 0 .96305 -80.754 49.33)" gradientUnits="userSpaceOnUse"><stop offset="0" style="stop-color:#5b5b5b;stop-opacity:1"/><stop offset="1" style="stop-color:#727272;stop-opacity:1"/></radialGradient><radialGradient xlink:href="#b" id="d" cx="51.926" cy="78.491" r="27.708" fx="51.926" fy="78.491" gradientTransform="matrix(0 -2.191 2.24189 0 -31.11 186.533)" gradientUnits="userSpaceOnUse"/><radialGradient id="b" cx="-159.431" cy="15.463" r="64.707" fx="-159.431" fy="15.463" gradientTransform="matrix(-.89413 0 0 .96305 -80.754 49.33)" gradientUnits="userSpaceOnUse"><stop offset="0" style="stop-color:gray;stop-opacity:1"/><stop offset="1" style="stop-color:#8e8e8e;stop-opacity:1"/></radialGradient><filter id="e" width="1.184" height="1.21" x="-.092" y="-.105" style="color-interpolation-filters:sRGB"><feGaussianBlur stdDeviation="2.045"/></filter></defs><path d="M22.196 11.795h-9.993A4.794 4.794 135 0 0 7.41 16.59V40.3c0 3.69 2.988 6.767 6.68 6.767h35.772a6.677 6.677 0 0 0 6.68-6.68V22.105a6.677 6.677 0 0 0-6.68-6.68H30.038a5.64 5.64 19.982 0 1-3.624-1.317l-1.642-1.376a4 4 19.982 0 0-2.576-.937" style="fill:url(#c);stroke-width:.878921" transform="translate(-3.06 -4.522)scale(1.0965)"/><path d="M11.604 20.662H40.25a13.76 13.76 45 0 1 13.762 13.762 13.637 13.637 135.527 0 1-13.762 13.51H24.64A14.755 14.755 45 0 1 9.885 33.18V22.382a1.72 1.72 135 0 1 1.719-1.72" style="opacity:.870323;fill:#fff;stroke-width:.2" transform="translate(-2.417 -5.74)scale(1.0965)"/><path d="M74.041 22.73h10.853a7.07 7.07 0 0 0 5.326-2.419 7.05 7.05 0 0 1 5.31-2.4h16.772a7.85 7.85 0 0 1 7.852 7.853v24.041a7.85 7.85 0 0 1-7.852 7.852h-38.26a7.85 7.85 0 0 1-7.853-7.852V30.583a7.85 7.85 0 0 1 7.852-7.853" style="fill:url(#d);fill-opacity:1;stroke:none;stroke-width:.681659;stroke-linecap:round;stroke-linejoin:round" transform="translate(-61.171 -2.069)"/><g style="filter:url(#e)" transform="translate(61.121 3.735)"><path d="M-50.8 4.676a5.257 5.257 0 0 0-5.257 5.258v14.101a7.84 7.84 0 0 1 3.358-5.726v-3.243c0-1.04.844-1.884 1.885-1.884H-30.5a7.04 7.04 0 0 1 3.738-1.075H-9.99a7.85 7.85 0 0 1 7.806 7.024v-3.15a7.32 7.32 0 0 0-7.324-7.325h-21.736a6.2 6.2 0 0 1-3.975-1.445l-1.799-1.508a4.4 4.4 0 0 0-2.826-1.027Zm.027 2.762h10.521c1.067 0 1.926.859 1.926 1.925s-.86 1.926-1.926 1.926h-10.521A1.92 1.92 0 0 1-52.7 9.363c0-1.066.86-1.925 1.926-1.925z" style="baseline-shift:baseline;display:inline;overflow:visible;fill:none;stroke:#000;stroke-width:.1;stroke-dasharray:none;stroke-opacity:1;enable-background:accumulate;stop-color:#000;stop-opacity:1"/><path d="M-50.814 13.182c-1.041 0-1.885.844-1.885 1.884v3.243a7.8 7.8 0 0 1 4.449-1.383h10.852a7.07 7.07 0 0 0 5.326-2.42c.46-.524.993-.963 1.572-1.324z" style="baseline-shift:baseline;display:inline;overflow:visible;fill:none;stroke:#000;stroke-width:.1;stroke-dasharray:none;stroke-opacity:1;enable-background:accumulate;stop-color:#000;stop-opacity:1"/><path d="M-26.762 12.107a7.05 7.05 0 0 0-5.31 2.399 7.07 7.07 0 0 1-5.326 2.42H-48.25a7.85 7.85 0 0 0-7.854 7.851V44a7.85 7.85 0 0 0 7.854 7.854h38.26A7.85 7.85 0 0 0-2.14 44V19.959a7.85 7.85 0 0 0-7.851-7.852z" style="baseline-shift:baseline;display:inline;overflow:visible;fill:none;stroke:#000;stroke-width:.1;stroke-linecap:round;stroke-linejoin:round;stroke-dasharray:none;stroke-opacity:1;enable-background:accumulate;stop-color:#000;stop-opacity:1"/></g><path d="m38.962 49.44.786 1.348c.112.337.45.562.674.674l2.807-4.94h-5.614c0 .336.112.673.224.898zm7.635-8.757-2.807-4.94c-.224.112-.561.448-.673.673l-5.165 9.207c-.113.337-.225.562-.225.899h5.614zm6.064 10.779c.224-.112.561-.45.673-.674l.337-.561 1.572-2.807c.113-.337.225-.562.225-.898h-5.614l1.235 2.358Zm-6.064-10.78 2.808-4.94a2.1 2.1 0 0 0-.899-.224H44.69c-.337 0-.674.112-.899.224zm3.257 5.84h-6.625l-2.807 4.94c.224.112.561.225.898.225h10.33c.337 0 .814-.137 1.039-.25zm2.807-5.502-2.583-4.604c-.112-.337-.449-.561-.673-.674l-2.808 4.94 3.257 5.84h5.614c0-.337-.112-.674-.225-.899z" style="opacity:.3;fill:#000;fill-opacity:1;stroke-width:1"/></svg>