<svg xmlns="http://www.w3.org/2000/svg" xmlns:xlink="http://www.w3.org/1999/xlink" xml:space="preserve" id="Layer_1" x="0" y="0" style="enable-background:new 0 0 64 64" viewBox="0 0 64 64"><defs id="defs3"><radialGradient id="SVGID_1_-3" cx="18.522" cy="17.064" r="52.855" fx="67.94" fy="-1.684" gradientTransform="translate(0 -.014)" gradientUnits="userSpaceOnUse"><stop id="stop1-6" offset="0" style="stop-color:#ff007a;stop-opacity:1"/><stop id="stop2-7" offset="1" style="stop-color:#a200f7;stop-opacity:1"/></radialGradient><radialGradient id="SVGID_1_-36" cx="11.779" cy="8.371" r="52.855" fx="11.779" fy="8.371" gradientUnits="userSpaceOnUse"><stop id="stop1-7" offset="0" style="stop-color:#00f4ff;stop-opacity:1"/><stop id="stop2-5" offset="1" style="stop-color:#008dff;stop-opacity:1"/></radialGradient><radialGradient xlink:href="#SVGID_1_-3-2-7" id="radialGradient4" cx="57.889" cy="70.65" r="29.046" fx="57.889" fy="70.65" gradientTransform="matrix(0 -2.13828 2.06228 0 -75.465 205.343)" gradientUnits="userSpaceOnUse"/><radialGradient id="SVGID_1_-3-2-7" cx="-159.431" cy="15.463" r="64.707" fx="-159.431" fy="15.463" gradientTransform="matrix(-.89413 0 0 .96305 -80.754 49.33)" gradientUnits="userSpaceOnUse"><stop id="stop1-6-9-5" offset="0" style="stop-color:#006fff;stop-opacity:1"/><stop id="stop2-7-1-3" offset="1" style="stop-color:#15baff;stop-opacity:1"/></radialGradient><filter id="filter1-3" width="1.199" height="1.207" x="-.1" y="-.103" style="color-interpolation-filters:sRGB"><feGaussianBlur id="feGaussianBlur1-6" stdDeviation="2.367"/></filter><filter id="filter1" width="1.2" height="1.207" x="-.1" y="-.104" style="color-interpolation-filters:sRGB"><feGaussianBlur id="feGaussianBlur1" stdDeviation="2.353"/></filter></defs><style id="style1" type="text/css">.st1{fill:url(#SVGID_1_)}</style><radialGradient id="SVGID_1_" cx="18.522" cy="17.064" r="52.855" fx="67.94" fy="-1.684" gradientUnits="userSpaceOnUse"><stop id="stop1" offset="0" style="stop-color:#78daff;stop-opacity:1"/><stop id="stop2" offset="1" style="stop-color:#ff8dba;stop-opacity:1"/></radialGradient><g id="g1" style="opacity:.45106023" transform="translate(-.003)"><path id="path2" d="M32 4c-2.6 0-4.5 1.6-5.4 4.2v-.1L23.608 17a4.4 4.4 144.29 0 1-4.173 3H8.6c-1.7.1-3.1 1-4.2 2.3-2.3 2.6-1.8 7.3 1.1 9.3l8.348 6.127a4.4 4.4 72.027 0 1 1.586 4.887L12.2 52.7c-.6 2.1 0 4.3 1.6 5.8 2 1.7 4.7 2 6.9.5l.1-.1 8.614-6.076a4.46 4.46.17 0 1 5.162.016L43.2 59l.1.1c2.2 1.4 4.9 1.2 6.9-.5 1.6-1.5 2.2-3.7 1.6-5.8l-3.234-10.086a4.4 4.4 107.973 0 1 1.586-4.887L58.5 31.7c2.9-1.9 3.4-6.7 1.1-9.3-1.1-1.4-2.6-2.3-4.2-2.4H44.565a4.44 4.44 35.495 0 1-4.196-2.993L37.3 8.1v.1C36.5 5.6 34.6 4 32 4" class="st1" style="fill:url(#radialGradient4)" transform="translate(2.721 2.718)scale(.9151)"/><path id="path2-5-3" d="M32 3.986c-2.6 0-4.5 1.6-5.4 4.2v-.1l-3.093 9.202a3.96 3.96 144.29 0 1-3.753 2.698H8.6c-1.7.1-3.1 1-4.2 2.3-2.3 2.6-1.8 7.3 1.1 9.3l8.605 6.316a3.95 3.95 72.027 0 1 1.426 4.395L12.2 52.687c-.6 2.1 0 4.3 1.6 5.8 2 1.7 4.7 2 6.9.5l.1-.1 8.874-6.26a4.01 4.01.17 0 1 4.642.014l8.884 6.345.1.1c2.2 1.4 4.9 1.2 6.9-.5 1.6-1.5 2.2-3.7 1.6-5.8l-3.331-10.39a3.95 3.95 107.973 0 1 1.426-4.394l8.605-6.316c2.9-1.9 3.4-6.7 1.1-9.3-1.1-1.4-2.6-2.3-4.2-2.4H44.246a3.99 3.99 35.495 0 1-3.773-2.69L37.3 8.085v.1c-.8-2.6-2.7-4.2-5.3-4.2z" class="st1" style="fill:none;stroke:#000;stroke-width:.218555;stroke-dasharray:none;stroke-opacity:1;filter:url(#filter1-3)" transform="translate(2.721 2.718)scale(.9151)"/></g><path id="path2-5" d="M32 3.986c-2.6 0-4.5 1.6-5.4 4.2v-.1l-3.093 9.202a3.96 3.96 144.29 0 1-3.753 2.698H8.6c-1.7.1-3.1 1-4.2 2.3-2.3 2.6-1.8 7.3 1.1 9.3l8.605 6.316a3.95 3.95 72.027 0 1 1.426 4.395L12.2 52.687c-.6 2.1 0 4.3 1.6 5.8 2 1.7 4.7 2 6.9.5l.1-.1 8.874-6.26a4.01 4.01.17 0 1 4.642.014l8.884 6.345.1.1c2.2 1.4 4.9 1.2 6.9-.5 1.6-1.5 2.2-3.7 1.6-5.8l-3.331-10.39a3.95 3.95 107.973 0 1 1.426-4.394l8.605-6.316c2.9-1.9 3.4-6.7 1.1-9.3-1.1-1.4-2.6-2.3-4.2-2.4H44.246a3.99 3.99 35.495 0 1-3.773-2.69L37.3 8.085v.1c-.8-2.6-2.7-4.2-5.3-4.2z" class="st1" style="fill:none;stroke:#0009ff;stroke-width:.32783242;stroke-dasharray:none;stroke-opacity:1;opacity:.84465342;filter:url(#filter1)" transform="translate(2.721 2.718)scale(.9151)"/></svg>