<svg xmlns="http://www.w3.org/2000/svg" xmlns:xlink="http://www.w3.org/1999/xlink" xml:space="preserve" style="enable-background:new 0 0 64 64" viewBox="0 0 64 64"><defs><radialGradient xlink:href="#a" id="c" cx="10.757" cy="61.399" r="24.566" fx="10.757" fy="61.399" gradientTransform="matrix(0 -2.33099 2.51789 0 -79.138 79.402)" gradientUnits="userSpaceOnUse"/><radialGradient id="a" cx="-159.431" cy="15.463" r="64.707" fx="-159.431" fy="15.463" gradientTransform="matrix(-.89413 0 0 .96305 -80.754 49.33)" gradientUnits="userSpaceOnUse"><stop offset="0" style="stop-color:#323232;stop-opacity:1"/><stop offset="1" style="stop-color:#3f3f3f;stop-opacity:1"/></radialGradient><radialGradient xlink:href="#b" id="d" cx="51.926" cy="78.491" r="27.708" fx="51.926" fy="78.491" gradientTransform="matrix(0 -2.191 2.24189 0 -92.281 184.464)" gradientUnits="userSpaceOnUse"/><radialGradient id="b" cx="-159.431" cy="15.463" r="64.707" fx="-159.431" fy="15.463" gradientTransform="matrix(-.89413 0 0 .96305 -80.754 49.33)" gradientUnits="userSpaceOnUse"><stop offset="0" style="stop-color:#525252;stop-opacity:1"/><stop offset="1" style="stop-color:#4f4f4f;stop-opacity:1"/></radialGradient><filter id="e" width="1.184" height="1.21" x="-.092" y="-.105" style="color-interpolation-filters:sRGB"><feGaussianBlur stdDeviation="2.045"/></filter></defs><path d="M22.196 11.795h-9.993A4.794 4.794 135 0 0 7.41 16.59V40.3c0 3.69 2.988 6.767 6.68 6.767h35.772a6.677 6.677 0 0 0 6.68-6.68V22.105a6.677 6.677 0 0 0-6.68-6.68H30.038a5.64 5.64 19.982 0 1-3.624-1.317l-1.642-1.376a4 4 19.982 0 0-2.576-.937" style="fill:url(#c);stroke-width:.878921" transform="translate(-3.06 -4.522)scale(1.0965)"/><path d="M11.604 20.662H40.25a13.76 13.76 45 0 1 13.762 13.762 13.637 13.637 135.527 0 1-13.762 13.51H24.64A14.755 14.755 45 0 1 9.885 33.18V22.382a1.72 1.72 135 0 1 1.719-1.72" style="opacity:.870323;fill:#fff;stroke-width:.2" transform="translate(-2.417 -5.74)scale(1.0965)"/><path d="M12.87 20.662h10.852a7.07 7.07 0 0 0 5.327-2.42 7.05 7.05 0 0 1 5.31-2.4H51.13a7.85 7.85 0 0 1 7.852 7.853v24.041a7.85 7.85 0 0 1-7.852 7.852H12.87a7.85 7.85 0 0 1-7.852-7.852V28.514a7.85 7.85 0 0 1 7.852-7.852" style="fill:url(#d);fill-opacity:1;stroke:none;stroke-width:.681659;stroke-linecap:round;stroke-linejoin:round"/><g style="filter:url(#e)" transform="translate(61.121 3.735)"><path d="M-50.8 4.676a5.257 5.257 0 0 0-5.257 5.258v14.101a7.84 7.84 0 0 1 3.358-5.726v-3.243c0-1.04.844-1.884 1.885-1.884H-30.5a7.04 7.04 0 0 1 3.738-1.075H-9.99a7.85 7.85 0 0 1 7.806 7.024v-3.15a7.32 7.32 0 0 0-7.324-7.325h-21.736a6.2 6.2 0 0 1-3.975-1.445l-1.799-1.508a4.4 4.4 0 0 0-2.826-1.027Zm.027 2.762h10.521c1.067 0 1.926.859 1.926 1.925s-.86 1.926-1.926 1.926h-10.521A1.92 1.92 0 0 1-52.7 9.363c0-1.066.86-1.925 1.926-1.925z" style="baseline-shift:baseline;display:inline;overflow:visible;fill:none;stroke:#000;stroke-width:.1;stroke-dasharray:none;stroke-opacity:1;enable-background:accumulate;stop-color:#000;stop-opacity:1"/><path d="M-50.814 13.182c-1.041 0-1.885.844-1.885 1.884v3.243a7.8 7.8 0 0 1 4.449-1.383h10.852a7.07 7.07 0 0 0 5.326-2.42c.46-.524.993-.963 1.572-1.324z" style="baseline-shift:baseline;display:inline;overflow:visible;fill:none;stroke:#000;stroke-width:.1;stroke-dasharray:none;stroke-opacity:1;enable-background:accumulate;stop-color:#000;stop-opacity:1"/><path d="M-26.762 12.107a7.05 7.05 0 0 0-5.31 2.399 7.07 7.07 0 0 1-5.326 2.42H-48.25a7.85 7.85 0 0 0-7.854 7.851V44a7.85 7.85 0 0 0 7.854 7.854h38.26A7.85 7.85 0 0 0-2.14 44V19.959a7.85 7.85 0 0 0-7.851-7.852z" style="baseline-shift:baseline;display:inline;overflow:visible;fill:none;stroke:#000;stroke-width:.1;stroke-linecap:round;stroke-linejoin:round;stroke-dasharray:none;stroke-opacity:1;enable-background:accumulate;stop-color:#000;stop-opacity:1"/></g><path d="M34.711 45.786a2.16 2.16 0 0 0 1.027 1.825l3.194 1.826v.342A4.21 4.21 0 0 0 43.153 54a4.21 4.21 0 0 0 4.222-4.221v-.57l5.133-3.651c2.738-.114 4.792-2.282 4.792-5.02s-2.282-5.02-5.02-5.02-5.02 2.282-5.02 5.02l-3.308 5.134c-.342-.114-.684-.114-.913-.114-.684 0-1.255.114-1.825.456l-3.423-2.053c-1.255-.8-3.08.228-3.08 1.825M52.508 37a3.554 3.554 0 0 1 3.537 3.537 3.554 3.554 0 0 1-3.537 3.537 3.554 3.554 0 0 1-3.536-3.537 3.554 3.554 0 0 1 3.536-3.537m0 1.37c-1.14 0-2.167.912-2.167 2.167s.912 2.168 2.167 2.168c1.141 0 2.168-.913 2.168-2.168s-.913-2.168-2.168-2.168m-9.24 8.556a2.824 2.824 0 0 1 2.852 2.852 2.824 2.824 0 0 1-2.852 2.852c-1.37 0-2.51-.913-2.739-2.282l1.027.57c1.027.571 2.282.229 2.966-.798.57-1.027.229-2.282-.798-2.966zc-.115 0 0 0 0 0" style="enable-background:new 0 0 64 64;opacity:.3;fill:#000;fill-opacity:1;stroke-width:1"/></svg>