<svg xmlns="http://www.w3.org/2000/svg" xmlns:xlink="http://www.w3.org/1999/xlink" xml:space="preserve" style="enable-background:new 0 0 64 64" viewBox="0 0 64 64"><defs><radialGradient xlink:href="#a" id="c" cx="10.757" cy="61.399" r="24.566" fx="10.757" fy="61.399" gradientTransform="matrix(0 -2.33099 2.51789 0 -79.138 79.402)" gradientUnits="userSpaceOnUse"/><radialGradient id="a" cx="-159.431" cy="15.463" r="64.707" fx="-159.431" fy="15.463" gradientTransform="matrix(-.89413 0 0 .96305 -80.754 49.33)" gradientUnits="userSpaceOnUse"><stop offset="0" style="stop-color:#b47e00;stop-opacity:1"/><stop offset="1" style="stop-color:#e19d00;stop-opacity:1"/></radialGradient><radialGradient xlink:href="#b" id="d" cx="51.926" cy="78.491" r="27.708" fx="51.926" fy="78.491" gradientTransform="matrix(0 -2.191 2.24189 0 -33.838 185.04)" gradientUnits="userSpaceOnUse"/><radialGradient id="b" cx="-159.431" cy="15.463" r="64.707" fx="-159.431" fy="15.463" gradientTransform="matrix(-.89413 0 0 .96305 -80.754 49.33)" gradientUnits="userSpaceOnUse"><stop offset="0" style="stop-color:#e4a719;stop-opacity:1"/><stop offset="1" style="stop-color:#f9bd30;stop-opacity:1"/></radialGradient><filter id="e" width="1.184" height="1.21" x="-.092" y="-.105" style="color-interpolation-filters:sRGB"><feGaussianBlur stdDeviation="2.045"/></filter></defs><path d="M22.196 11.795h-9.993A4.794 4.794 135 0 0 7.41 16.59V40.3c0 3.69 2.988 6.767 6.68 6.767h35.772a6.677 6.677 0 0 0 6.68-6.68V22.105a6.677 6.677 0 0 0-6.68-6.68H30.038a5.64 5.64 19.982 0 1-3.624-1.317l-1.642-1.376a4 4 19.982 0 0-2.576-.937" style="fill:url(#c);stroke-width:.878921" transform="translate(-3.06 -4.522)scale(1.0965)"/><path d="M11.604 20.662H40.25a13.76 13.76 45 0 1 13.762 13.762 13.637 13.637 135.527 0 1-13.762 13.51H24.64A14.755 14.755 45 0 1 9.885 33.18V22.382a1.72 1.72 135 0 1 1.719-1.72" style="opacity:.870323;fill:#fff;stroke-width:.2" transform="translate(-2.417 -5.74)scale(1.0965)"/><path d="M71.313 21.237h10.852a7.07 7.07 0 0 0 5.327-2.42 7.05 7.05 0 0 1 5.309-2.399h16.772a7.85 7.85 0 0 1 7.852 7.852v24.042a7.85 7.85 0 0 1-7.852 7.852h-38.26a7.85 7.85 0 0 1-7.852-7.852V29.089a7.85 7.85 0 0 1 7.852-7.852" style="fill:url(#d);fill-opacity:1;stroke:none;stroke-width:.681659;stroke-linecap:round;stroke-linejoin:round" transform="translate(-58.443 -.575)"/><g style="filter:url(#e)" transform="translate(61.121 3.735)"><path d="M-50.8 4.676a5.257 5.257 0 0 0-5.257 5.258v14.101a7.84 7.84 0 0 1 3.358-5.726v-3.243c0-1.04.844-1.884 1.885-1.884H-30.5a7.04 7.04 0 0 1 3.738-1.075H-9.99a7.85 7.85 0 0 1 7.806 7.024v-3.15a7.32 7.32 0 0 0-7.324-7.325h-21.736a6.2 6.2 0 0 1-3.975-1.445l-1.799-1.508a4.4 4.4 0 0 0-2.826-1.027Zm.027 2.762h10.521c1.067 0 1.926.859 1.926 1.925s-.86 1.926-1.926 1.926h-10.521A1.92 1.92 0 0 1-52.7 9.363c0-1.066.86-1.925 1.926-1.925z" style="baseline-shift:baseline;display:inline;overflow:visible;fill:none;stroke:#000;stroke-width:.1;stroke-dasharray:none;stroke-opacity:1;enable-background:accumulate;stop-color:#000;stop-opacity:1"/><path d="M-50.814 13.182c-1.041 0-1.885.844-1.885 1.884v3.243a7.8 7.8 0 0 1 4.449-1.383h10.852a7.07 7.07 0 0 0 5.326-2.42c.46-.524.993-.963 1.572-1.324z" style="baseline-shift:baseline;display:inline;overflow:visible;fill:none;stroke:#000;stroke-width:.1;stroke-dasharray:none;stroke-opacity:1;enable-background:accumulate;stop-color:#000;stop-opacity:1"/><path d="M-26.762 12.107a7.05 7.05 0 0 0-5.31 2.399 7.07 7.07 0 0 1-5.326 2.42H-48.25a7.85 7.85 0 0 0-7.854 7.851V44a7.85 7.85 0 0 0 7.854 7.854h38.26A7.85 7.85 0 0 0-2.14 44V19.959a7.85 7.85 0 0 0-7.851-7.852z" style="baseline-shift:baseline;display:inline;overflow:visible;fill:none;stroke:#000;stroke-width:.1;stroke-linecap:round;stroke-linejoin:round;stroke-dasharray:none;stroke-opacity:1;enable-background:accumulate;stop-color:#000;stop-opacity:1"/></g><path d="M47.702 36.447c-.938.586-1.876 1.29-2.462 2.58-.938 2.11 1.993 4.338 2.11 4.455h.235s.117-.117 0-.235c0 0-1.055-1.993-1.055-3.517 0-.469.703-1.055 1.407-1.641.703-.587 1.407-1.173 1.876-1.876.938-1.642-.118-3.166-.118-3.166 0-.117-.117-.117-.234 0-.117 0-.117.117-.117.234 0 0 .234 1.056-.352 2.11-.117.235-.704.587-1.29 1.056m3.752.704c.117 0 .117-.118 0-.235 0-.117-.117-.117-.234-.117s-3.752 1.407-3.752 3.165c0 1.173.469 1.76.82 2.228.118.117.235.352.352.47.117.35-.117 1.054-.234 1.289v.234h.234c.117 0 1.524-1.055 1.29-2.345a2.27 2.27 0 0 0-.586-1.055c-.352-.469-.587-.82-.235-1.407.586-.82 2.345-2.227 2.345-2.227m-9.262 6.917c-.118.235 0 .352.117.586.352.587 1.759.821 3.869.821h.938c3.4-.117 4.573-1.172 4.69-1.172 0 0 .117-.118 0-.235 0-.117-.117-.117-.235-.117-1.172.352-3.4.469-4.924.469-1.759 0-2.58-.117-2.814-.235.117-.117.82-.469 1.642-.586.117 0 .117-.117.117-.117l-.117-.117c-.587-.118-3.049 0-3.283.703m11.255-1.055c-.703 0-1.407.352-1.407.352-.117 0-.117.117-.117.234s.117.117.117.117 1.524 0 1.642.821c.117.704-1.407 1.876-1.993 2.345-.118 0-.118.117-.118.234s.118.118.118.118c.117 0 3.4-.704 3.048-2.697 0-1.29-.704-1.524-1.29-1.524m-2.227 3.634c0-.117 0-.117-.118-.117l-.82-.586h-.118s-.82.235-1.993.352h-1.524c-1.172 0-1.993-.117-2.11-.235 0 0 .117-.117.234-.117s.117-.117.117-.234-.117-.118-.234-.118c-.82.235-1.173.47-1.173.821 0 .586 1.407.938 2.58.938h.586c1.993 0 4.455-.586 4.455-.586zm-5.98 1.173c.117 0 .117-.117.117-.235s-.117-.117-.117-.117c-.117 0-1.055 0-1.055.586 0 .235 0 .352.117.47q.528.527 2.814.703h.586c1.993 0 3.283-.586 3.283-.586l.117-.118s0-.117-.117-.117l-1.055-.586h-.117s-.587.117-1.642.234h-.703c-.938.118-1.993 0-2.228-.234q0 .175 0 0m1.407 3.4c4.455 0 6.8-.82 7.27-1.29.116-.117.234-.351.116-.469 0-.234-.234-.469-.351-.469h-.235v.469c-.234.118-1.993.704-5.159.821h-1.29c-2.813 0-4.806-.352-5.04-.586.116-.117.82-.352 1.523-.47.118 0 .118-.116.118-.234 0-.117-.118-.117-.235-.117h-.234c-1.29.117-2.697.235-2.814.938 0 .235 0 .352.117.586.703.352 1.641.821 6.214.821m8.09-1.055h-.235s-.703.703-2.696 1.055c-.82.117-2.228.235-4.338.235s-4.104-.118-4.104-.118c-.117 0-.117 0-.117.118s0 .117.117.234c0 0 2.11.469 4.924.469 1.407 0 2.697-.117 3.987-.352 2.345-.351 2.462-1.524 2.462-1.641q.175 0 0 0" style="opacity:.3;fill:#000;fill-opacity:1;stroke-width:1"/></svg>