<svg xmlns="http://www.w3.org/2000/svg" xmlns:xlink="http://www.w3.org/1999/xlink" xml:space="preserve" style="enable-background:new 0 0 64 64" viewBox="0 0 64 64"><defs><radialGradient xlink:href="#a" id="c" cx="10.757" cy="61.399" r="24.566" fx="10.757" fy="61.399" gradientTransform="matrix(0 -2.33099 2.51789 0 -79.138 79.402)" gradientUnits="userSpaceOnUse"/><radialGradient id="a" cx="-159.431" cy="15.463" r="64.707" fx="-159.431" fy="15.463" gradientTransform="matrix(-.89413 0 0 .96305 -80.754 49.33)" gradientUnits="userSpaceOnUse"><stop offset="0" style="stop-color:#147eb8;stop-opacity:1"/><stop offset="1" style="stop-color:#106593;stop-opacity:1"/></radialGradient><radialGradient xlink:href="#b" id="d" cx="51.926" cy="78.491" r="27.708" fx="51.926" fy="78.491" gradientTransform="matrix(0 -2.191 2.24189 0 -35.522 185.625)" gradientUnits="userSpaceOnUse"/><radialGradient id="b" cx="-159.431" cy="15.463" r="64.707" fx="-159.431" fy="15.463" gradientTransform="matrix(-.89413 0 0 .96305 -80.754 49.33)" gradientUnits="userSpaceOnUse"><stop offset="0" style="stop-color:#2b8bbf;stop-opacity:1"/><stop offset="1" style="stop-color:#57b8ec;stop-opacity:1"/></radialGradient><filter id="e" width="1.184" height="1.21" x="-.092" y="-.105" style="color-interpolation-filters:sRGB"><feGaussianBlur stdDeviation="2.045"/></filter></defs><path d="M22.196 11.795h-9.993A4.794 4.794 135 0 0 7.41 16.59V40.3c0 3.69 2.988 6.767 6.68 6.767h35.772a6.677 6.677 0 0 0 6.68-6.68V22.105a6.677 6.677 0 0 0-6.68-6.68H30.038a5.64 5.64 19.982 0 1-3.624-1.317l-1.642-1.376a4 4 19.982 0 0-2.576-.937" style="fill:url(#c);stroke-width:.878921" transform="translate(-3.06 -4.522)scale(1.0965)"/><path d="M11.604 20.662H40.25a13.76 13.76 45 0 1 13.762 13.762 13.637 13.637 135.527 0 1-13.762 13.51H24.64A14.755 14.755 45 0 1 9.885 33.18V22.382a1.72 1.72 135 0 1 1.719-1.72" style="opacity:.870323;fill:#fff;stroke-width:.2" transform="translate(-2.417 -5.74)scale(1.0965)"/><path d="M69.629 21.822H80.48a7.07 7.07 0 0 0 5.326-2.419 7.05 7.05 0 0 1 5.31-2.4h16.772a7.85 7.85 0 0 1 7.852 7.853v24.041a7.85 7.85 0 0 1-7.852 7.852h-38.26a7.85 7.85 0 0 1-7.852-7.852V29.674a7.85 7.85 0 0 1 7.852-7.852" style="fill:url(#d);fill-opacity:1;stroke:none;stroke-width:.681659;stroke-linecap:round;stroke-linejoin:round" transform="translate(-56.759 -1.16)"/><g style="filter:url(#e)" transform="translate(61.121 3.735)"><path d="M-50.8 4.676a5.257 5.257 0 0 0-5.257 5.258v14.101a7.84 7.84 0 0 1 3.358-5.726v-3.243c0-1.04.844-1.884 1.885-1.884H-30.5a7.04 7.04 0 0 1 3.738-1.075H-9.99a7.85 7.85 0 0 1 7.806 7.024v-3.15a7.32 7.32 0 0 0-7.324-7.325h-21.736a6.2 6.2 0 0 1-3.975-1.445l-1.799-1.508a4.4 4.4 0 0 0-2.826-1.027Zm.027 2.762h10.521c1.067 0 1.926.859 1.926 1.925s-.86 1.926-1.926 1.926h-10.521A1.92 1.92 0 0 1-52.7 9.363c0-1.066.86-1.925 1.926-1.925z" style="baseline-shift:baseline;display:inline;overflow:visible;fill:none;stroke:#000;stroke-width:.1;stroke-dasharray:none;stroke-opacity:1;enable-background:accumulate;stop-color:#000;stop-opacity:1"/><path d="M-50.814 13.182c-1.041 0-1.885.844-1.885 1.884v3.243a7.8 7.8 0 0 1 4.449-1.383h10.852a7.07 7.07 0 0 0 5.326-2.42c.46-.524.993-.963 1.572-1.324z" style="baseline-shift:baseline;display:inline;overflow:visible;fill:none;stroke:#000;stroke-width:.1;stroke-dasharray:none;stroke-opacity:1;enable-background:accumulate;stop-color:#000;stop-opacity:1"/><path d="M-26.762 12.107a7.05 7.05 0 0 0-5.31 2.399 7.07 7.07 0 0 1-5.326 2.42H-48.25a7.85 7.85 0 0 0-7.854 7.851V44a7.85 7.85 0 0 0 7.854 7.854h38.26A7.85 7.85 0 0 0-2.14 44V19.959a7.85 7.85 0 0 0-7.851-7.852z" style="baseline-shift:baseline;display:inline;overflow:visible;fill:none;stroke:#000;stroke-width:.1;stroke-linecap:round;stroke-linejoin:round;stroke-dasharray:none;stroke-opacity:1;enable-background:accumulate;stop-color:#000;stop-opacity:1"/></g><path d="M50.451 33.762c.469-.117.937-.117 1.406-.117l-1.64 2.695c-.352.586-.118 1.29.351 1.524l1.055.586c.586.351 1.289.117 1.64-.469l1.64-2.695c.235.351.47.82.587 1.289.586 2.226-.703 4.453-2.93 4.921-.234.118-.468.118-.703.118-.469 0-.82.234-1.054.586a1.67 1.67 0 0 1-1.407.703h-3.164s.82-1.524 1.407-2.344c.234-.469.234-.937.117-1.406-.117 0-.235-.235-.235-.469-.586-2.11.703-4.336 2.93-4.922m-9.375.703c-.234 0-.586.118-.82.235 0 .703.117 1.64-.234 1.992-.235.234-1.172 0-1.992 0-.118.234-.235.586-.352.937.586.47 1.289.938 1.289 1.407 0 .351-.703.937-1.289 1.406.117.351.234.586.469.82.703-.117 1.64-.469 1.875-.234.351.234.351 1.172.351 1.875.235.117.586.117.938.117.351-.703.703-1.524 1.054-1.64.352-.118 1.172.585 1.758.937.234-.235.469-.352.703-.586-.351-.703-.82-1.524-.703-1.875.117-.352 1.172-.586 1.875-.82V38.8c0-.234 0-.468-.117-.703-.703-.234-1.758-.234-1.875-.586-.234-.351.234-1.289.469-1.992-.235-.234-.47-.351-.82-.586-.587.469-1.29 1.172-1.641 1.055-.352 0-.82-.938-1.172-1.524zm.703 2.227c1.055 0 1.993.937 1.993 1.992s-.938 1.992-1.993 1.992c-1.054 0-1.992-.937-1.992-1.992s.938-1.992 1.992-1.992m-1.992 7.5-2.578 2.695a1.133 1.133 0 0 0 0 1.64 1.133 1.133 0 0 0 1.64 0l1.993-1.992v4.219c0 .937.703 1.64 1.64 1.64h7.5c.938 0 1.64-.703 1.64-1.64v-4.219l1.993 1.992a1.133 1.133 0 0 0 1.64 0 1.133 1.133 0 0 0 0-1.64l-2.695-2.695z" style="opacity:.3;fill:#000;fill-opacity:1;stroke-width:1"/></svg>