<svg xmlns="http://www.w3.org/2000/svg" xmlns:xlink="http://www.w3.org/1999/xlink" xml:space="preserve" style="enable-background:new 0 0 64 64" viewBox="0 0 64 64"><defs><radialGradient xlink:href="#a" id="c" cx="10.757" cy="61.399" r="24.566" fx="10.757" fy="61.399" gradientTransform="matrix(0 -2.33099 2.51789 0 -79.138 79.402)" gradientUnits="userSpaceOnUse"/><radialGradient id="a" cx="-159.431" cy="15.463" r="64.707" fx="-159.431" fy="15.463" gradientTransform="matrix(-.89413 0 0 .96305 -80.754 49.33)" gradientUnits="userSpaceOnUse"><stop offset="0" style="stop-color:#005762;stop-opacity:1"/><stop offset="1" style="stop-color:#008ea3;stop-opacity:1"/></radialGradient><radialGradient xlink:href="#b" id="d" cx="53.672" cy="72.128" r="27.708" fx="53.672" fy="72.128" gradientTransform="matrix(0 -2.73506 2.79857 0 -75.525 215.565)" gradientUnits="userSpaceOnUse"/><radialGradient id="b" cx="-159.431" cy="15.463" r="64.707" fx="-159.431" fy="15.463" gradientTransform="matrix(-.89413 0 0 .96305 -80.754 49.33)" gradientUnits="userSpaceOnUse"><stop offset="0" style="stop-color:#268fa6;stop-opacity:1"/><stop offset="1" style="stop-color:#00e1f2;stop-opacity:1"/></radialGradient><filter id="e" width="1.184" height="1.21" x="-.092" y="-.105" style="color-interpolation-filters:sRGB"><feGaussianBlur stdDeviation="2.045"/></filter></defs><path d="M22.196 11.795h-9.993A4.794 4.794 135 0 0 7.41 16.59V40.3c0 3.69 2.988 6.767 6.68 6.767h35.772a6.677 6.677 0 0 0 6.68-6.68V22.105a6.677 6.677 0 0 0-6.68-6.68H30.038a5.64 5.64 19.982 0 1-3.624-1.317l-1.642-1.376a4 4 19.982 0 0-2.576-.937" style="fill:url(#c);stroke-width:.878921" transform="translate(-3.06 -4.522)scale(1.0965)"/><path d="M11.604 20.662H40.25a13.76 13.76 45 0 1 13.762 13.762 13.637 13.637 135.527 0 1-13.762 13.51H24.64A14.755 14.755 45 0 1 9.885 33.18V22.382a1.72 1.72 135 0 1 1.719-1.72" style="opacity:.870323;fill:#fff;stroke-width:.2" transform="translate(-2.417 -5.74)scale(1.0965)"/><path d="M72.892 23.18h10.852a7.07 7.07 0 0 0 5.326-2.42 7.05 7.05 0 0 1 5.31-2.399h16.772a7.85 7.85 0 0 1 7.852 7.852v24.042a7.85 7.85 0 0 1-7.852 7.852h-38.26a7.85 7.85 0 0 1-7.853-7.852V31.032a7.85 7.85 0 0 1 7.853-7.852" style="fill:url(#d);fill-opacity:1;stroke:none;stroke-width:.681659;stroke-linecap:round;stroke-linejoin:round" transform="translate(-60.022 -2.518)"/><g style="filter:url(#e)" transform="translate(61.121 3.735)"><path d="M-50.8 4.676a5.257 5.257 0 0 0-5.257 5.258v14.101a7.84 7.84 0 0 1 3.358-5.726v-3.243c0-1.04.844-1.884 1.885-1.884H-30.5a7.04 7.04 0 0 1 3.738-1.075H-9.99a7.85 7.85 0 0 1 7.806 7.024v-3.15a7.32 7.32 0 0 0-7.324-7.325h-21.736a6.2 6.2 0 0 1-3.975-1.445l-1.799-1.508a4.4 4.4 0 0 0-2.826-1.027Zm.027 2.762h10.521c1.067 0 1.926.859 1.926 1.925s-.86 1.926-1.926 1.926h-10.521A1.92 1.92 0 0 1-52.7 9.363c0-1.066.86-1.925 1.926-1.925z" style="baseline-shift:baseline;display:inline;overflow:visible;fill:none;stroke:#000;stroke-width:.1;stroke-dasharray:none;stroke-opacity:1;enable-background:accumulate;stop-color:#000;stop-opacity:1"/><path d="M-50.814 13.182c-1.041 0-1.885.844-1.885 1.884v3.243a7.8 7.8 0 0 1 4.449-1.383h10.852a7.07 7.07 0 0 0 5.326-2.42c.46-.524.993-.963 1.572-1.324z" style="baseline-shift:baseline;display:inline;overflow:visible;fill:none;stroke:#000;stroke-width:.1;stroke-dasharray:none;stroke-opacity:1;enable-background:accumulate;stop-color:#000;stop-opacity:1"/><path d="M-26.762 12.107a7.05 7.05 0 0 0-5.31 2.399 7.07 7.07 0 0 1-5.326 2.42H-48.25a7.85 7.85 0 0 0-7.854 7.851V44a7.85 7.85 0 0 0 7.854 7.854h38.26A7.85 7.85 0 0 0-2.14 44V19.959a7.85 7.85 0 0 0-7.851-7.852z" style="baseline-shift:baseline;display:inline;overflow:visible;fill:none;stroke:#000;stroke-width:.1;stroke-linecap:round;stroke-linejoin:round;stroke-dasharray:none;stroke-opacity:1;enable-background:accumulate;stop-color:#000;stop-opacity:1"/></g><path d="M32 16.705v.673a.46.46 45 0 0 .458.459h1.084a.46.46 135 0 0 .458-.459v-1.075a.406.406 0 0 0-.456-.416 7.6 7.6 0 0 0-1.109.219c-.243.067-.435.346-.435.6m-.458 1.132h-1.084a.46.46 135 0 0-.458.458v1.083a.46.46 45 0 0 .458.459h1.084a.46.46 135 0 0 .458-.459v-1.083a.46.46 45 0 0-.458-.458M32 20.295v1.083a.46.46 45 0 0 .458.459h1.084a.46.46 135 0 0 .458-.459v-1.083a.46.46 45 0 0-.458-.458h-1.084a.46.46 135 0 0-.458.458m-.458 1.542h-1.084a.46.46 135 0 0-.458.458v1.083a.46.46 45 0 0 .458.459h1.084a.46.46 135 0 0 .458-.459v-1.083a.46.46 45 0 0-.458-.458M32 24.295v1.083a.46.46 45 0 0 .458.459h1.084a.46.46 135 0 0 .458-.459v-1.083a.46.46 45 0 0-.458-.458h-1.084a.46.46 135 0 0-.458.458m-.458 1.542h-1.084a.46.46 135 0 0-.458.458v1.083a.46.46 45 0 0 .458.459h1.084a.46.46 135 0 0 .458-.459v-1.083a.46.46 45 0 0-.458-.458M32 28.295v1.083c0 .253.209.464.454.401.726-.186 1.304-.8 1.486-1.49.064-.243-.145-.452-.398-.452h-1.084a.46.46 135 0 0-.458.458m-.457 1.568A4.014 4.014 0 0 0 28 33.837v8c0 2.2 1.8 4 4 4s4-1.8 4-4v-8a4.014 4.014 0 0 0-3.542-3.974 5 5 0 0 0-.915 0M32 31.837c1.1 0 2 .8 2 2 0 1-.9 2-2 2s-2-1-2-2c0-1.2.8-2 2-2m0 6c1.1 0 2 .8 2 2v2c0 1-.9 2-2 2s-2-1-2-2v-2c0-1.2.8-2 2-2" style="opacity:.3;fill:#000;fill-opacity:1"/></svg>