<svg xmlns="http://www.w3.org/2000/svg" xmlns:xlink="http://www.w3.org/1999/xlink" xml:space="preserve" style="enable-background:new 0 0 64 64" viewBox="0 0 64 64"><defs><radialGradient xlink:href="#a" id="c" cx="2.158" cy="22.664" r="21.491" fx="2.158" fy="22.664" gradientTransform="rotate(75 68.525 49.442)scale(4.21802 4.767)" gradientUnits="userSpaceOnUse"/><radialGradient id="a" cx="18.978" cy="1036.882" r="38.583" gradientTransform="translate(3.236 -910.113)scale(.9014)" gradientUnits="userSpaceOnUse"><stop offset="0" style="stop-color:#6f6f6f;stop-opacity:1"/><stop offset="1" style="stop-color:#5e5e5e;stop-opacity:1"/></radialGradient><radialGradient xlink:href="#b" id="d" cx="9.832" cy="-5.958" r="25.174" fx="9.832" fy="-5.958" gradientTransform="rotate(86.126 -13.588 .298)scale(.36785 1.95444)" gradientUnits="userSpaceOnUse"/><radialGradient id="b" cx="11.487" cy="1016.485" r="36.125" gradientTransform="rotate(-5.816 -8929.827 -99.991)scale(.9014)" gradientUnits="userSpaceOnUse"><stop offset="0" style="stop-color:#898989;stop-opacity:1"/><stop offset="1" style="stop-color:#797979;stop-opacity:1"/></radialGradient><filter id="e" width="1.226" height="1.214" x="-.113" y="-.107" style="color-interpolation-filters:sRGB"><feGaussianBlur stdDeviation="2.305"/></filter></defs><path d="M22.708 13.718h20.799c5.135 0 9.329-2.072 9.329 3.063v32.2c0 5.135-4.194 9.33-9.33 9.33H22.709c-5.135 0-9.329-4.195-9.329-9.33V23.047c0-5.135 4.194-9.33 9.33-9.33" style="fill:url(#c);stroke-width:.855901"/><path d="M23.26 25.98a2.754 2.754 0 0 0-2.753 2.755v19.607a2.754 2.754 0 0 0 2.754 2.754 2.754 2.754 0 0 0 2.754-2.754V28.735a2.754 2.754 0 0 0-2.754-2.754m9.805 0a2.754 2.754 0 0 0-2.754 2.755v19.607a2.754 2.754 0 0 0 2.754 2.754 2.754 2.754 0 0 0 2.754-2.754V28.735a2.754 2.754 0 0 0-2.754-2.754m9.803 0a2.754 2.754 0 0 0-2.753 2.755v19.607a2.754 2.754 0 0 0 2.753 2.754 2.754 2.754 0 0 0 2.754-2.754V28.735a2.754 2.754 0 0 0-2.754-2.754" style="opacity:.3;stroke-width:.917982;stroke-linecap:round"/><path d="m-.718 8.767-4.686 8.561a1.76 1.76 178.695 0 1-3.048.07l-5.07-8.339Z" style="opacity:1;fill:#fff;fill-opacity:1;stroke:none;stroke-width:.2" transform="rotate(26.43 -4.539 82.761)scale(1.29308)"/><path d="m-.718 8.767-5.014 9.16a1.366 1.366 178.695 0 1-2.365.055l-5.426-8.923Z" style="fill:#fff;fill-opacity:1;stroke:none;stroke-width:.2" transform="matrix(1.53121 -.25977 .31884 1.2475 48.9 4.7)"/><path d="M25.879 6.492a2.61 2.61 0 0 0-1.912 1.051c-.433.572-1.1 1.252-1.778 1.3l-9.974.719c-3.039.219-5.323 3.196-5.076 6.617.246 3.421 2.933 6.043 5.972 5.824l38.674-2.785c3.039-.219 5.323-3.199 5.076-6.62-.246-3.421-2.933-6.04-5.972-5.822l-9.974.719c-.677.049-1.435-.528-1.946-1.032a2.61 2.61 0 0 0-2.042-.766Z" style="baseline-shift:baseline;display:inline;overflow:visible;vector-effect:none;fill:url(#d);stroke-width:1.05061;enable-background:accumulate;stop-color:#000"/><g style="filter:url(#e)" transform="translate(62.734 8.213)"><path d="M-9.898 10.81c-.338.101-.69.17-1.051.196l-38.34 2.762c-.04.35-.066.705-.066 1.066V40.77c0 5.135 4.192 9.328 9.328 9.328h20.798c5.136 0 9.33-4.193 9.33-9.328zm-29.577 6.958a2.754 2.754 0 0 1 2.754 2.753V40.13a2.754 2.754 0 0 1-5.508 0V20.52a2.754 2.754 0 0 1 2.754-2.753zm9.805 0a2.754 2.754 0 0 1 2.754 2.753V40.13a2.754 2.754 0 0 1-5.508 0V20.52a2.754 2.754 0 0 1 2.754-2.753zm9.803 0a2.754 2.754 0 0 1 2.754 2.753V40.13a2.754 2.754 0 0 1-5.508 0V20.52a2.754 2.754 0 0 1 2.754-2.753z" style="baseline-shift:baseline;display:inline;overflow:visible;fill:none;fill-opacity:1;stroke:#000;stroke-width:.2;stroke-dasharray:none;stroke-opacity:1;enable-background:accumulate;stop-color:#000;stop-opacity:1"/><path d="M-25.516-2.521a3 3 0 0 0-.293.005l-11.046.795A2.61 2.61 0 0 0-38.768-.67c-.432.572-1.1 1.252-1.777 1.3l-9.975.72c-3.038.218-5.322 3.196-5.076 6.617s2.934 6.043 5.973 5.824l38.674-2.785c3.038-.219 5.322-3.198 5.076-6.62-.246-3.42-2.934-6.04-5.973-5.822l-9.974.72c-.678.048-1.435-.53-1.946-1.034a2.62 2.62 0 0 0-1.75-.771z" style="baseline-shift:baseline;display:inline;overflow:visible;fill:none;fill-opacity:1;stroke:#000;stroke-width:.2;stroke-dasharray:none;stroke-opacity:1;enable-background:accumulate;stop-color:#000;stop-opacity:1"/></g></svg>