<svg xmlns="http://www.w3.org/2000/svg" xmlns:xlink="http://www.w3.org/1999/xlink" width="64" height="64"><defs><radialGradient xlink:href="#a" id="c" cx="10.757" cy="61.399" r="24.566" fx="10.757" fy="61.399" gradientTransform="matrix(0 -2.33099 2.51789 0 -79.138 79.402)" gradientUnits="userSpaceOnUse"/><radialGradient xlink:href="#b" id="d" cx="54.881" cy="69.699" r="27.708" fx="54.881" fy="69.699" gradientTransform="matrix(0 -2.191 2.24189 0 -92.254 184.464)" gradientUnits="userSpaceOnUse"/><radialGradient id="a" cx="-159.431" cy="15.463" r="64.707" fx="-159.431" fy="15.463" gradientTransform="matrix(-.89413 0 0 .96305 -80.754 49.33)" gradientUnits="userSpaceOnUse"><stop offset="0" style="stop-color:#005762;stop-opacity:1"/><stop offset="1" style="stop-color:#008ea3;stop-opacity:1"/></radialGradient><radialGradient id="b" cx="-159.431" cy="15.463" r="64.707" fx="-159.431" fy="15.463" gradientTransform="matrix(-.89413 0 0 .96305 -80.754 49.33)" gradientUnits="userSpaceOnUse"><stop offset="0" style="stop-color:#268fa6;stop-opacity:1"/><stop offset="1" style="stop-color:#00e1f2;stop-opacity:1"/></radialGradient><filter id="e" width="1.187" height="1.451" x="-.093" y="-.222" style="color-interpolation-filters:sRGB"><feGaussianBlur stdDeviation="2.057"/></filter><filter id="f" width="1.177" height="1.308" x="-.088" y="-.154" style="color-interpolation-filters:sRGB"><feGaussianBlur stdDeviation="2.057"/></filter></defs><path d="M22.196 11.795h-9.993A4.794 4.794 135 0 0 7.41 16.59V40.3c0 3.69 2.988 6.767 6.68 6.767h35.772a6.677 6.677 0 0 0 6.68-6.68V22.105a6.677 6.677 0 0 0-6.68-6.68H30.038a5.64 5.64 19.982 0 1-3.624-1.317l-1.642-1.376a4 4 19.982 0 0-2.576-.937" class="st1" style="fill:url(#c);stroke-width:.878921" transform="translate(-3.035 -4.522)scale(1.0965)"/><path d="M12.826 20.662H51.07a2.94 2.94 45 0 1 2.94 2.941v10.57a13.76 13.76 135 0 1-13.76 13.761H24.64A14.755 14.755 45 0 1 9.885 33.18v-9.576a2.94 2.94 135 0 1 2.94-2.94" style="opacity:.870323;fill:#fff;stroke-width:.2" transform="translate(-3.411 -7.012)scale(1.0965)"/><path d="M11.848 27.954h11.447c2.154 0 4.202-.93 5.619-2.551a7.43 7.43 0 0 1 5.6-2.531h17.691a8.28 8.28 0 0 1 8.283 8.282l-1.48 16.582a7.85 7.85 0 0 1-7.851 7.852h-38.26c-4.337 0-7.3-3.55-7.852-7.852l-1.48-11.5c-.583-4.536 3.709-8.282 8.283-8.282" style="fill:url(#d);fill-opacity:1;stroke:none;stroke-width:.681659;stroke-linecap:round;stroke-linejoin:round"/><path d="M10.348 8.412a5.257 5.257 0 0 0-5.258 5.256v17.478c1.568-1.934 4.112-3.19 6.758-3.19h11.447a7.46 7.46 0 0 0 5.62-2.554 7.43 7.43 0 0 1 5.599-2.53h17.691a8.27 8.27 0 0 1 6.758 3.503v-6.658a7.32 7.32 0 0 0-7.324-7.324H29.902a6.2 6.2 0 0 1-3.972-1.446L24.129 9.44a4.4 4.4 0 0 0-2.824-1.027Z" style="fill:none;stroke:#000;stroke-width:.2;stroke-dasharray:none;stroke-opacity:1;filter:url(#e)"/><path d="M34.514 22.871a7.43 7.43 0 0 0-5.6 2.531 7.46 7.46 0 0 1-5.62 2.553H11.849c-4.575 0-8.865 3.744-8.282 8.281l1.479 11.5c.553 4.301 3.515 7.852 7.851 7.852h38.26a7.853 7.853 0 0 0 7.854-7.852l1.478-16.582a8.284 8.284 0 0 0-8.283-8.283z" style="fill:none;stroke:#000;stroke-width:.2;stroke-linecap:round;stroke-linejoin:round;stroke-dasharray:none;stroke-opacity:1;filter:url(#f)"/><g style="fill:none"><path d="M22.196 11.795h-9.993A4.794 4.794 135 0 0 7.41 16.59V40.3c0 3.69 2.988 6.767 6.68 6.767h35.772a6.677 6.677 0 0 0 6.68-6.68V22.105a6.677 6.677 0 0 0-6.68-6.68H30.038a5.64 5.64 19.982 0 1-3.624-1.317l-1.642-1.376a4 4 19.982 0 0-2.576-.937" class="st1" style="fill:none;stroke-width:.878921" transform="translate(-3.035 -4.522)scale(1.0965)"/><path d="M12.336 21.543h11.447c2.153 0 4.202-.93 5.619-2.552a7.43 7.43 0 0 1 5.6-2.531h17.691a8.28 8.28 0 0 1 8.283 8.282l-1.48 16.583a7.85 7.85 0 0 1-7.851 7.852h-38.26c-4.337 0-7.3-3.551-7.853-7.852l-1.479-11.5c-.583-4.537 3.709-8.282 8.283-8.282" style="fill:none;fill-opacity:1;stroke:none;stroke-width:.681659;stroke-linecap:round;stroke-linejoin:round" transform="translate(-.489 6.412)"/></g></svg>