<svg xmlns="http://www.w3.org/2000/svg" xmlns:xlink="http://www.w3.org/1999/xlink" width="64" height="64"><defs><radialGradient xlink:href="#a" id="c" cx="10.757" cy="61.399" r="24.566" fx="10.757" fy="61.399" gradientTransform="matrix(0 -2.33099 2.51789 0 -79.138 79.402)" gradientUnits="userSpaceOnUse"/><radialGradient id="a" cx="-159.431" cy="15.463" r="64.707" fx="-159.431" fy="15.463" gradientTransform="matrix(-.89413 0 0 .96305 -80.754 49.33)" gradientUnits="userSpaceOnUse"><stop offset="0" style="stop-color:#005762;stop-opacity:1"/><stop offset="1" style="stop-color:#008ea3;stop-opacity:1"/></radialGradient><radialGradient xlink:href="#b" id="d" cx="53.672" cy="72.128" r="27.708" fx="53.672" fy="72.128" gradientTransform="matrix(0 -2.73506 2.79857 0 -75.525 215.565)" gradientUnits="userSpaceOnUse"/><radialGradient id="b" cx="-159.431" cy="15.463" r="64.707" fx="-159.431" fy="15.463" gradientTransform="matrix(-.89413 0 0 .96305 -80.754 49.33)" gradientUnits="userSpaceOnUse"><stop offset="0" style="stop-color:#268fa6;stop-opacity:1"/><stop offset="1" style="stop-color:#00e1f2;stop-opacity:1"/></radialGradient><filter id="e" width="1.184" height="1.21" x="-.092" y="-.105" style="color-interpolation-filters:sRGB"><feGaussianBlur stdDeviation="2.045"/></filter></defs><path d="M22.196 11.795h-9.993A4.794 4.794 135 0 0 7.41 16.59V40.3c0 3.69 2.988 6.767 6.68 6.767h35.772a6.677 6.677 0 0 0 6.68-6.68V22.105a6.677 6.677 0 0 0-6.68-6.68H30.038a5.64 5.64 19.982 0 1-3.624-1.317l-1.642-1.376a4 4 19.982 0 0-2.576-.937" class="st1" style="fill:url(#c);stroke-width:.878921" transform="translate(-3.06 -4.522)scale(1.0965)"/><path d="M11.604 20.662H40.25a13.76 13.76 45 0 1 13.762 13.762 13.637 13.637 135.527 0 1-13.762 13.51H24.64A14.755 14.755 45 0 1 9.885 33.18V22.382a1.72 1.72 135 0 1 1.719-1.72" style="opacity:.870323;fill:#fff;stroke-width:.2" transform="translate(-2.417 -5.74)scale(1.0965)"/><path d="M72.892 23.18h10.852a7.07 7.07 0 0 0 5.326-2.42 7.05 7.05 0 0 1 5.31-2.399h16.772a7.85 7.85 0 0 1 7.852 7.852v24.042a7.85 7.85 0 0 1-7.852 7.852h-38.26a7.85 7.85 0 0 1-7.853-7.852V31.032a7.85 7.85 0 0 1 7.853-7.852" style="fill:url(#d);fill-opacity:1;stroke:none;stroke-width:.681659;stroke-linecap:round;stroke-linejoin:round" transform="translate(-60.022 -2.518)"/><g style="filter:url(#e)" transform="translate(61.121 3.735)"><path d="M-50.8 4.676a5.257 5.257 0 0 0-5.257 5.258v14.101a7.84 7.84 0 0 1 3.358-5.726v-3.243c0-1.04.844-1.884 1.885-1.884H-30.5a7.04 7.04 0 0 1 3.738-1.075H-9.99a7.85 7.85 0 0 1 7.806 7.024v-3.15a7.32 7.32 0 0 0-7.324-7.325h-21.736a6.2 6.2 0 0 1-3.975-1.445l-1.799-1.508a4.4 4.4 0 0 0-2.826-1.027Zm.027 2.762h10.521c1.067 0 1.926.859 1.926 1.925s-.86 1.926-1.926 1.926h-10.521A1.92 1.92 0 0 1-52.7 9.363c0-1.066.86-1.925 1.926-1.925z" style="baseline-shift:baseline;display:inline;overflow:visible;fill:none;stroke:#000;stroke-width:.1;stroke-dasharray:none;stroke-opacity:1;enable-background:accumulate;stop-color:#000;stop-opacity:1"/><path d="M-50.814 13.182c-1.041 0-1.885.844-1.885 1.884v3.243a7.8 7.8 0 0 1 4.449-1.383h10.852a7.07 7.07 0 0 0 5.326-2.42c.46-.524.993-.963 1.572-1.324z" style="baseline-shift:baseline;display:inline;overflow:visible;fill:none;stroke:#000;stroke-width:.1;stroke-dasharray:none;stroke-opacity:1;enable-background:accumulate;stop-color:#000;stop-opacity:1"/><path d="M-26.762 12.107a7.05 7.05 0 0 0-5.31 2.399 7.07 7.07 0 0 1-5.326 2.42H-48.25a7.85 7.85 0 0 0-7.854 7.851V44a7.85 7.85 0 0 0 7.854 7.854h38.26A7.85 7.85 0 0 0-2.14 44V19.959a7.85 7.85 0 0 0-7.851-7.852z" style="baseline-shift:baseline;display:inline;overflow:visible;fill:none;stroke:#000;stroke-width:.1;stroke-linecap:round;stroke-linejoin:round;stroke-dasharray:none;stroke-opacity:1;enable-background:accumulate;stop-color:#000;stop-opacity:1"/></g><path d="M48.852 35.655c-.608.149-1.001.695-1.49 1.055-1.01.879-2.061 1.717-3.047 2.622-.37.535-.307 1.227-.448 1.841-.054.453-.282 1.04.203 1.346 1.13.688 2.075 1.692 2.624 2.902.332.55 1.74.477 1.58-.328-.555-1.73-.626-3.69.253-5.332.517-1.043 1.31-2.164.94-3.39-.062-.32-.235-.701-.615-.716m1.531.883c-.232.55-.066 1.39-.435 1.992-.583 1.249-1.41 2.463-1.376 3.9.017.96.153 1.958.567 2.827.5.65 1.42.518 2.065.942 1.162.581 1.993 1.635 2.632 2.736.857.524 1.13-1.11 1.633-1.58.685-.71-.233-1.375-.662-1.913-.691-.782-1.214-1.75-1.218-2.817-.089-.768.082-1.552-.07-2.31-.308-.601-.834-1.063-1.243-1.6-.602-.705-1.18-1.433-1.797-2.124zm-6.684 6.674c-.415.115-.444.638-.648.963-.53 1.184-1.093 2.354-1.602 3.546-.211.629.236 1.162.704 1.51.765.655 1.495 1.356 2.283 1.98.698.435 1.3-.318 1.423-.953.62-1.5.854-3.274.073-4.76a5.7 5.7 0 0 0-2.114-2.275zm5.092 3.156c-.647.01-1.849-.048-1.661.936.079 1.37-.39 2.69-.883 3.945-.195.94.943.92 1.57.924 1.295.091 2.567.373 3.83.643.927-.048 1.321-1.06 1.71-1.76.405-.602.145-1.324-.217-1.871-.755-1.445-2.135-2.68-3.821-2.79a6 6 0 0 0-.528-.027" style="opacity:.3;stroke-width:.716521"/></svg>