<svg xmlns="http://www.w3.org/2000/svg" viewBox="0 0 22 22"><path d="M9.652 3c.41.175.75.49 1.006.943l1.824 3.248-1.142.664 3.701.055 1.809-3.32-1.125.681-1.041-1.818c-.172-.297-.461-.453-.836-.453zm-.974.158c-.648 0-1.176.314-1.5.89h.002L5.625 6.792l3.258 1.938 2.015-3.565-.582-.994c-.392-.68-.938-1.012-1.638-1.012m8.531 4.785-3.258 1.903 2.012 3.564h1.127c.357 0 .714-.086.97-.226.546-.314.94-.979.94-1.608 0-.314-.086-.61-.24-.89zm-10.49.805L3 8.816l1.143.664-1.024 1.836c-.068.122-.119.313-.119.471s.05.333.12.455l2.13 3.756c-.017-.122-.016-.212-.016-.281 0-.298.136-.768.307-1.082h-.002l1.828-3.233 1.158.682zm6.754 3.719-1.91 3.267L13.473 19v-1.344h1.996a.94.94 0 0 0 .836-.47l2.115-3.776c-.358.28-.784.42-1.295.42h-3.652zm-6.994 1.328-.545.996c-.171.297-.291.77-.291 1.049 0 .995.803 1.816 1.775 1.816h3.103v-3.861z" style="fill:#3bad7e"/></svg>