<svg xmlns="http://www.w3.org/2000/svg" viewBox="0 0 22 22"><path d="M3.125 3v.002c-.04 0-.072-.001-.092.021-.638.605 8.09 8.188 8.09 8.188l3.27 2.945c-1.055 2.328 2.25 2.366 2.962 3.547.314.517-.067 1.22-.636 1.256 1.132.353 2.656-1.702 2.197-2.863-.547-1.387-1.1-1.989-2.14-2.41-.43-.175-1.522-.188-1.903.015l-3.031-3.17S4.364 3.102 3.125 3m1.379 7.361c-.29.001-.379.397-.379.94.055 1.072.773 4.202 4.334 6.482 2.998 1.92 8.486 1.227 8.396.137-1.206-1.418-3.225-.534-3.251-3.93-1.174.013-2.438-.165-2.391.303.197 1.958-3.084.546-4.356-1.451-1.277-1.831-1.981-2.48-2.353-2.479zM9.18 12.78c-.195 0-.351.06-.426.182-.148.242.092.637.537.88.445.244.926.243 1.074 0 .148-.241-.092-.636-.537-.878-.223-.121-.648 0-.648-.184" style="color:#fcfcfc;fill:currentColor"/></svg>