<svg xmlns="http://www.w3.org/2000/svg" viewBox="0 0 22 22"><path d="m12.5 2.793-.354.353L8.793 6.5l3.353 3.354.354.353.707-.707-.353-.354L10.707 7H14a1 1 0 0 1 1 1v6.05a2.5 2.5 0 0 0-2 2.45 2.5 2.5 0 0 0 2.5 2.5 2.5 2.5 0 0 0 2.5-2.5 2.5 2.5 0 0 0-2-2.445V8a2 2 0 0 0-1.951-2h-3.342l2.147-2.146.353-.354zM5.5 4A2.5 2.5 0 0 0 3 6.5a2.5 2.5 0 0 0 2 2.445v5.106A2.5 2.5 0 0 0 3 16.5 2.5 2.5 0 0 0 5.5 19 2.5 2.5 0 0 0 8 16.5a2.5 2.5 0 0 0-2-2.445V8.949A2.5 2.5 0 0 0 8 6.5 2.5 2.5 0 0 0 5.5 4m0 1A1.5 1.5 0 0 1 7 6.5 1.5 1.5 0 0 1 5.5 8 1.5 1.5 0 0 1 4 6.5 1.5 1.5 0 0 1 5.5 5m0 10A1.5 1.5 0 0 1 7 16.5 1.5 1.5 0 0 1 5.5 18 1.5 1.5 0 0 1 4 16.5 1.5 1.5 0 0 1 5.5 15m10 0a1.5 1.5 0 0 1 1.5 1.5 1.5 1.5 0 0 1-1.5 1.5 1.5 1.5 0 0 1-1.5-1.5 1.5 1.5 0 0 1 1.5-1.5" style="color:#fcfcfc;fill:currentColor"/></svg>