<svg xmlns="http://www.w3.org/2000/svg" viewBox="0 0 22 22"><path d="M10.5 3a.5.5 0 0 0-.35.15.5.5 0 0 0 0 .7L14.4 8.1a5.5 5.5 0 0 0-.9-.1h-10a.5.5 0 0 0-.5.5.5.5 0 0 0 .5.5h6.844a5.5 5.5 0 0 0-1.194 1.15l-6 6a.5.5 0 0 0 0 .7.5.5 0 0 0 .7 0l4.25-4.21a5.5 5.5 0 0 0-.1.86 5.5 5.5 0 0 0 5.5 5.5 5.5 5.5 0 0 0 5.5-5.5 5.5 5.5 0 0 0-2.16-4.36l-5.99-5.99A.5.5 0 0 0 10.5 3m3 6a4.5 4.5 0 0 1 4.5 4.5 4.5 4.5 0 0 1-4.5 4.5A4.5 4.5 0 0 1 9 13.5 4.5 4.5 0 0 1 13.5 9m0 3a1.5 1.5 0 0 0-1.5 1.5 1.5 1.5 0 0 0 1.5 1.5 1.5 1.5 0 0 0 1.5-1.5 1.5 1.5 0 0 0-1.5-1.5" style="color:#fcfcfc;fill:currentColor"/></svg>