<svg xmlns="http://www.w3.org/2000/svg" viewBox="0 0 22 22"><path d="M14 3c-1.7 0-3 1.3-3 3s1.3 3 3 3 3-1.3 3-3-1.3-3-3-3m0 1a2 2 0 0 1 2 2 2 2 0 0 1-2 2 2 2 0 0 1-2-2 2 2 0 0 1 2-2M8 6C6.3 6 5 7.3 5 9s1.3 3 3 3 3-1.3 3-3-1.3-3-3-3m0 1a2 2 0 0 1 2 2 2 2 0 0 1-2 2 2 2 0 0 1-2-2 2 2 0 0 1 2-2m6 3c-.6 0-1.3.1-1.8.4l.4.9c.4-.2.9-.3 1.4-.3 2.2 0 4 1.8 4 4h-3.5l.5 1h4v-1c0-2.8-2.2-5-5-5m-6 3c-2.8 0-5 2.2-5 5v1h10v-1c0-2.8-2.2-5-5-5m0 1c2.2 0 4 1.8 4 4H4c0-2.2 1.8-4 4-4" style="color:#fcfcfc;fill:currentColor"/></svg>