<svg xmlns="http://www.w3.org/2000/svg" xmlns:xlink="http://www.w3.org/1999/xlink" width="64" height="64"><defs><filter id="b" width="1.381" height="1.381" x="-.19" y="-.19" style="color-interpolation-filters:sRGB"><feGaussianBlur stdDeviation=".836"/></filter><filter id="d" width="1.237" height="1.289" x="-.119" y="-.144" style="color-interpolation-filters:sRGB"><feGaussianBlur stdDeviation="2.489"/></filter><radialGradient xlink:href="#a" id="c" cx="33.897" cy="43.015" r="11" fx="33.897" fy="43.015" gradientTransform="rotate(30 190.352 -30.23)scale(2.70172 2.59446)" gradientUnits="userSpaceOnUse"/><linearGradient id="a"><stop offset="0" style="stop-color:#f8c44e;stop-opacity:1"/><stop offset="1" style="stop-color:#f89a4e;stop-opacity:1"/></linearGradient></defs><path d="M13.55 22.342V46.95c0 1.414 1.097 2.554 2.46 2.554h3.369a1.547 1.547 135 0 0 1.547-1.548V46.7a2.727 2.727 135 0 1 2.727-2.727h5.61a2.727 2.727 45 0 1 2.726 2.727v1.257a1.547 1.547 45 0 0 1.547 1.548h18.84a5.427 5.427 135 0 0 5.428-5.428V21.553a5.24 5.24 45 0 0-5.24-5.24l-32.987.001a6.027 6.027 135 0 0-6.027 6.028" style="fill:#38a95a;fill-opacity:1;stroke-width:.921948"/><rect width="11.063" height="11.063" x="30.145" y="25.533" rx="2.213" ry="2.213" style="fill:#4e4e4e;stroke-width:.921948"/><rect width="11.063" height="11.063" x="30.107" y="25.546" rx="2.213" ry="2.213" style="fill:none;stroke-width:.2;stroke:#000;stroke-opacity:1;stroke-dasharray:none;filter:url(#b)"/><path d="M8.04 12.648h.193a3.48 3.48 45 0 1 3.478 3.478v35.226" style="fill:none;stroke:#b7b7b7;stroke-width:3.68779;stroke-linecap:round;stroke-linejoin:round"/><path d="M34 45.989v4.022A1.99 1.99 45 0 0 35.989 52h.022A1.99 1.99 135 0 0 38 50.011v-4.022A1.99 1.99 45 0 0 36.011 44h-.022A1.99 1.99 135 0 0 34 45.989m6 0v4.022A1.99 1.99 45 0 0 41.989 52h.022A1.99 1.99 135 0 0 44 50.011v-4.022A1.99 1.99 45 0 0 42.011 44h-.022A1.99 1.99 135 0 0 40 45.989m6 0v4.022A1.99 1.99 45 0 0 47.989 52h.022A1.99 1.99 135 0 0 50 50.011v-4.022A1.99 1.99 45 0 0 48.011 44h-.022A1.99 1.99 135 0 0 46 45.989m6 0v4.022A1.99 1.99 45 0 0 53.989 52h.022A1.99 1.99 135 0 0 56 50.011v-4.022A1.99 1.99 45 0 0 54.011 44h-.022A1.99 1.99 135 0 0 52 45.989" style="fill:url(#c)" transform="translate(2.487 3.406)scale(.92195)"/><path d="M8.042 10.805a1.844 1.844 0 0 0-1.846 1.843 1.844 1.844 0 0 0 1.846 1.844h.191c.925 0 1.635.71 1.635 1.635v35.225a1.844 1.844 0 0 0 1.844 1.843 1.844 1.844 0 0 0 1.844-1.843V47.01c.03 1.386 1.11 2.494 2.453 2.494h3.369a1.547 1.547 0 0 0 1.549-1.547v-1.258a2.727 2.727 0 0 1 2.726-2.726h5.61a2.727 2.727 0 0 1 2.726 2.726v1.258a1.547 1.547 0 0 0 1.547 1.547h.297v.01a1.834 1.834 0 0 0 1.834 1.834h.02a1.834 1.834 0 0 0 1.834-1.834v-.01h1.843v.01a1.834 1.834 0 0 0 1.834 1.834h.022a1.834 1.834 0 0 0 1.832-1.834v-.01h1.845v.01a1.834 1.834 0 0 0 1.832 1.834h.022a1.834 1.834 0 0 0 1.834-1.834v-.01h1.844v.01a1.834 1.834 0 0 0 1.834 1.834h.02a1.834 1.834 0 0 0 1.833-1.834v-.332a5.43 5.43 0 0 0 3.688-5.104V21.555a5.24 5.24 0 0 0-5.24-5.24H19.576a6.027 6.027 0 0 0-6.021 5.982v-6.17c0-2.918-2.405-5.322-5.323-5.322z" style="fill:none;stroke:#000;stroke-width:.3;stroke-linecap:round;stroke-linejoin:round;stroke-miterlimit:4.2;stroke-dasharray:none;stroke-opacity:1;filter:url(#d)"/><path d="M32 22.006v1.988A1.006 1.006 45 0 0 33.006 25 1 1 134.638 0 0 34 23.994v-1.988A1.006 1.006 45 0 0 32.994 21 1 1 134.638 0 0 32 22.006m6 0v1.988A1.006 1.006 45 0 0 39.006 25 1 1 134.638 0 0 40 23.994v-1.988A1.006 1.006 45 0 0 38.994 21 1 1 134.638 0 0 38 22.006m-11 5a1 1 44.638 0 0 1.006.994h1.988A1.006 1.006 135 0 0 31 26.994 1 1 44.638 0 0 29.994 26h-1.988A1.006 1.006 135 0 0 27 27.006m14 0a1 1 44.638 0 0 1.006.994h1.988A1.006 1.006 135 0 0 45 26.994 1 1 44.638 0 0 43.994 26h-1.988A1.006 1.006 135 0 0 41 27.006m-14 6a1 1 44.638 0 0 1.006.994h1.988A1.006 1.006 135 0 0 31 32.994 1 1 44.638 0 0 29.994 32h-1.988A1.006 1.006 135 0 0 27 33.006m14 0a1 1 44.638 0 0 1.006.994h1.988A1.006 1.006 135 0 0 45 32.994 1 1 44.638 0 0 43.994 32h-1.988A1.006 1.006 135 0 0 41 33.006m-9 3v1.988A1.006 1.006 45 0 0 33.006 39 1 1 134.638 0 0 34 37.994v-1.988A1.006 1.006 45 0 0 32.994 35 1 1 134.638 0 0 32 36.006m6 0v1.988A1.006 1.006 45 0 0 39.006 39 1 1 134.638 0 0 40 37.994v-1.988A1.006 1.006 45 0 0 38.994 35 1 1 134.638 0 0 38 36.006" style="fill:#ddd;fill-opacity:1;stroke:none" transform="translate(2.487 3.406)scale(.92195)"/></svg>