<svg xmlns="http://www.w3.org/2000/svg" xmlns:xlink="http://www.w3.org/1999/xlink" width="64" height="64"><defs><filter id="d" width="1.242" height="1.135" x="-.121" y="-.068" style="color-interpolation-filters:sRGB"><feGaussianBlur stdDeviation=".96"/></filter><filter id="c" width="1.211" height="1.296" x="-.106" y="-.148" style="color-interpolation-filters:sRGB"><feGaussianBlur stdDeviation="2.258"/></filter><radialGradient xlink:href="#a" id="b" cx="-30.805" cy="-11.006" r="28" fx="-30.805" fy="-11.006" gradientTransform="matrix(0 -2.2219 2.24994 0 24.464 -68.755)" gradientUnits="userSpaceOnUse"/><linearGradient id="a"><stop offset="0" style="stop-color:#26caeb;stop-opacity:1"/><stop offset="1" style="stop-color:#115dea;stop-opacity:1"/></linearGradient></defs><rect width="52.704" height="37.646" x="-58.352" y="-50.823" rx="20.705" ry="18.823" style="fill:url(#b);stroke-width:.941152" transform="rotate(90)scale(-1 1)"/><rect width="52.704" height="37.646" x="-58.352" y="-50.823" rx="20.705" ry="18.823" style="fill:none;stroke-width:.3;stroke:#000;stroke-opacity:1;stroke-dasharray:none;filter:url(#c)" transform="rotate(90)scale(-1 1)"/><path d="m23.477 23.53 16.94 16.94-8.47 8V15.53l8.47 8-16.94 15.058" style="fill:none;stroke:#fff;stroke-width:3.30000029;stroke-linecap:round;stroke-dasharray:none;stroke-linejoin:round"/><path d="M31.348 14.016a1.65 1.65 0 0 0-.998 1.513v12.487l-5.653-5.653a1.65 1.65 0 0 0-2.334 0 1.65 1.65 0 0 0 0 2.334l6.735 6.735-6.664 5.923a1.65 1.65 0 0 0-.137 2.329 1.65 1.65 0 0 0 2.328.136l5.725-5.088v13.739a1.65 1.65 0 0 0 2.783 1.199l8.47-8a1.65 1.65 0 0 0 .034-2.367l-7.73-7.73 7.66-6.81a1.65 1.65 0 0 0 .037-2.433l-8.471-8a1.65 1.65 0 0 0-1.785-.314m2.302 5.341 4.38 4.135-4.38 3.893zm0 16.627 4.454 4.453-4.454 4.206z" style="color:#000;fill:none;stroke-linecap:round;stroke-linejoin:round;stroke:#001cff;stroke-opacity:1;stroke-width:.3;stroke-dasharray:none;filter:url(#d)"/></svg>