<svg xmlns="http://www.w3.org/2000/svg" xmlns:xlink="http://www.w3.org/1999/xlink" width="64" height="64"><defs><radialGradient xlink:href="#a" id="n" cx="16.33" cy="19.343" r="3.57" fx="16.33" fy="19.343" gradientTransform="matrix(5.47153 0 0 1.82384 -79.914 -16.253)" gradientUnits="userSpaceOnUse"/><radialGradient xlink:href="#b" id="m" cx="28.342" cy="35.325" r="9.349" fx="28.342" fy="35.325" gradientTransform="matrix(1.1216 -.44799 .36807 1.0751 -14.2 15.58)" gradientUnits="userSpaceOnUse"/><radialGradient xlink:href="#c" id="l" cx="28.342" cy="35.325" r="9.349" fx="28.342" fy="35.325" gradientTransform="matrix(2.13732 .40185 -.18078 2.10333 -19.507 -51.822)" gradientUnits="userSpaceOnUse"/><radialGradient xlink:href="#d" id="k" cx="28.342" cy="35.325" r="9.349" fx="28.342" fy="35.325" gradientTransform="translate(-68.74 -83.607)scale(3.4724)" gradientUnits="userSpaceOnUse"/><radialGradient xlink:href="#e" id="i" cx="28.342" cy="35.325" r="9.349" fx="28.342" fy="35.325" gradientTransform="translate(-45.867 -57.905)scale(2.7075)" gradientUnits="userSpaceOnUse"/><radialGradient xlink:href="#f" id="g" cx="4.671" cy="61.328" r="21.21" fx="4.671" fy="61.328" gradientTransform="rotate(-15 -532.77 182.955)scale(4.19682 3.22832)" gradientUnits="userSpaceOnUse"/><linearGradient id="a"><stop offset="0" style="stop-color:orange;stop-opacity:1"/><stop offset="1" style="stop-color:gold;stop-opacity:1"/></linearGradient><linearGradient id="b"><stop offset="0" style="stop-color:#66b3bf;stop-opacity:1"/><stop offset="1" style="stop-color:#999;stop-opacity:0"/></linearGradient><linearGradient id="c"><stop offset="0" style="stop-color:#66a9bf;stop-opacity:1"/><stop offset="1" style="stop-color:#000;stop-opacity:0"/></linearGradient><linearGradient id="d"><stop offset="0" style="stop-color:#005594;stop-opacity:1"/><stop offset="1" style="stop-color:#00293c;stop-opacity:1"/></linearGradient><linearGradient id="e"><stop offset="0" style="stop-color:#66bfb7;stop-opacity:1"/><stop offset="1" style="stop-color:#000;stop-opacity:1"/></linearGradient><linearGradient id="f"><stop offset="0" style="stop-color:#4f4f4f;stop-opacity:1"/><stop offset="1" style="stop-color:#686868;stop-opacity:1"/></linearGradient><filter id="p" width="2" height="2" x="-.5" y="-.5" style="color-interpolation-filters:sRGB"><feGaussianBlur stdDeviation=".795"/></filter><filter id="o" width="1.353" height="2.059" x="-.176" y="-.529" style="color-interpolation-filters:sRGB"><feGaussianBlur stdDeviation=".525"/></filter><filter id="j" width="1.52" height="1.52" x="-.26" y="-.26" style="color-interpolation-filters:sRGB"><feGaussianBlur stdDeviation="1.619"/></filter><filter id="h" width="1.29" height="1.357" x="-.145" y="-.178" style="color-interpolation-filters:sRGB"><feGaussianBlur stdDeviation="2.531"/></filter></defs><path d="M12.925 11.806c-1.056 0-1.907.85-1.907 1.907V14h7.63v-.287c0-1.057-.85-1.907-1.908-1.907z" style="baseline-shift:baseline;display:inline;overflow:visible;vector-effect:none;fill:#2d2d2d;fill-opacity:1;stroke:none;stroke-width:.95373;enable-background:accumulate;stop-color:#000"/><path d="M10.79 19.12v25.336a3.647 3.647 45 0 0 3.647 3.647h27.065A11.71 11.71 135 0 0 53.21 36.396V27.18a11.71 11.71 45 0 0-11.708-11.707H14.437a3.647 3.647 135 0 0-3.647 3.647" style="baseline-shift:baseline;display:inline;overflow:visible;vector-effect:none;fill:url(#g);stroke-width:.81576;enable-background:accumulate;stop-color:#000" transform="translate(-5.278 -4.09)scale(1.16913)"/><path d="M10.79 19.12v25.336a3.647 3.647 45 0 0 3.647 3.647h5.647a3.11 3.11 135 0 0 3.11-3.11v-26.41a3.11 3.11 45 0 0-3.11-3.11h-5.647a3.647 3.647 135 0 0-3.647 3.647" style="baseline-shift:baseline;display:inline;overflow:visible;opacity:.332863;vector-effect:none;fill:#000;fill-opacity:1;stroke-width:.81576;enable-background:accumulate;stop-color:#000" transform="translate(-5.412 -4.09)scale(1.16913)"/><g style="filter:url(#h)" transform="translate(-5.412 -4.09)scale(1.16913)"><path d="M10.79 19.12v25.336a3.647 3.647 45 0 0 3.647 3.647h27.065A11.71 11.71 135 0 0 53.21 36.396V27.18a11.71 11.71 45 0 0-11.708-11.707H14.437a3.647 3.647 135 0 0-3.647 3.647z" style="baseline-shift:baseline;display:inline;overflow:visible;fill:none;stroke:#000;stroke-width:.2;stroke-dasharray:none;stroke-opacity:1;enable-background:accumulate;stop-color:#000" transform="translate(.058 .02)"/><path d="M10.79 19.12v25.336a3.647 3.647 45 0 0 3.647 3.647h5.647a3.11 3.11 135 0 0 3.11-3.11v-26.41a3.11 3.11 45 0 0-3.11-3.11h-5.647a3.647 3.647 135 0 0-3.647 3.647z" style="baseline-shift:baseline;display:inline;overflow:visible;fill:none;fill-opacity:1;stroke:#000;stroke-width:.2;stroke-dasharray:none;stroke-opacity:1;enable-background:accumulate;stop-color:#000" transform="translate(-.058 .02)"/><path d="M15.685 13.596c-.904 0-1.632.728-1.632 1.631v.246h6.526v-.246c0-.903-.727-1.631-1.631-1.631z" style="baseline-shift:baseline;display:inline;overflow:visible;fill:none;stroke:#000;stroke-width:.163152;stroke-dasharray:none;stroke-opacity:1;enable-background:accumulate;stop-color:#000"/></g><circle cx="47.709" cy="22.595" r="1.907" style="opacity:.4;stroke-width:.95373"/><circle cx="35.096" cy="33.075" r="12.117" style="opacity:.4;stroke-width:.757343"/><circle cx="35.096" cy="-33.075" r="11.209" style="fill:#0f2d44;fill-opacity:1;stroke-width:.934106" transform="scale(1 -1)"/><circle cx="35.096" cy="33.075" r="7.473" style="opacity:.620592;mix-blend-mode:normal;fill:url(#i);stroke-width:.934106;filter:url(#j)"/><circle cx="35.096" cy="33.075" r="9.584" style="opacity:.393512;mix-blend-mode:normal;fill:url(#k);stroke-width:1.198"/><path d="M38.83 25.066a6.216 5.599 44.541 0 0-6.399 4.697 6.216 5.599 44.541 0 0 5.402 6.914 6.216 5.599 44.541 0 0 6.397-4.696 6.216 5.599 44.541 0 0-5.4-6.915m-.097 1.134a5.002 4.506 44.541 0 1 4.345 5.565 5.002 4.506 44.541 0 1-5.148 3.778 5.002 4.506 44.541 0 1-4.346-5.563 5.002 4.506 44.541 0 1 5.15-3.78" style="opacity:.620592;mix-blend-mode:normal;fill:url(#l);stroke-width:.737387"/><path d="M30.69 35.342a3.106 3.362 49.905 0 0-2.078 4.204 3.106 3.362 49.905 0 0 4.11 1.73 3.106 3.362 49.905 0 0 2.081-4.203 3.106 3.362 49.905 0 0-4.112-1.731m.23.67a2.405 2.603 49.905 0 1 3.184 1.34 2.405 2.603 49.905 0 1-1.61 3.256 2.405 2.603 49.905 0 1-3.184-1.34 2.405 2.603 49.905 0 1 1.61-3.255" style="opacity:.620592;mix-blend-mode:normal;fill:url(#m);stroke-width:.403925"/><rect width="8.347" height="2.782" x="10.659" y="16.239" rx="1.391" ry="1.391" style="fill:url(#n);fill-opacity:1;stroke:none;stroke-width:.233826;stroke-linecap:round;stroke-miterlimit:4.1;stroke-dasharray:none;stroke-opacity:1;paint-order:stroke fill markers"/><rect width="7.139" height="2.38" x="13.747" y="17.388" rx="1.19" ry="1.19" style="opacity:.732017;fill:#fffbbc;fill-opacity:1;stroke:none;stroke-width:.2;stroke-linecap:round;stroke-miterlimit:4.1;stroke-dasharray:none;stroke-opacity:1;paint-order:stroke fill markers;filter:url(#o)" transform="translate(-5.412 -4.09)scale(1.16913)"/><circle cx="47.709" cy="22.595" r="1.907" style="opacity:.531497;fill:#ff2600;fill-opacity:1;stroke-width:.95373;filter:url(#p)"/></svg>