<svg xmlns="http://www.w3.org/2000/svg" xmlns:xlink="http://www.w3.org/1999/xlink" width="64" height="64"><defs><filter id="d" width="1.243" height="1.243" x="-.121" y="-.121" style="color-interpolation-filters:sRGB"><feGaussianBlur stdDeviation="1.959"/></filter><filter id="c" width="1.255" height="1.255" x="-.128" y="-.128" style="color-interpolation-filters:sRGB"><feGaussianBlur stdDeviation="2.712"/></filter><radialGradient xlink:href="#a" id="b" cx="-54.995" cy="-7.522" r="28" fx="-54.995" fy="-7.522" gradientTransform="matrix(1.2331 1.27917 -1.51311 2.36081 3.409 78.395)" gradientUnits="userSpaceOnUse"/><linearGradient id="a"><stop offset="0" style="stop-color:#a5a5a5;stop-opacity:1"/><stop offset="1" style="stop-color:#5f5f5f;stop-opacity:1"/></linearGradient></defs><rect width="51.014" height="50.993" x="-57.583" y="-57.497" rx="12.355" ry="12.355" style="fill:url(#b);stroke:none;stroke-width:.273288;stroke-dasharray:none;stroke-opacity:1" transform="rotate(90)scale(-1 1)"/><rect width="51.014" height="50.993" x="-57.583" y="-57.497" rx="12.355" ry="12.355" style="fill:none;stroke-width:1.02749;stroke:none;filter:url(#c)" transform="rotate(90)scale(-1 1)"/><path d="M32 13.788a18.22 18.22 0 0 0-18.22 18.219A18.22 18.22 0 0 0 32 50.226a18.22 18.22 0 0 0 18.22-18.22A18.22 18.22 0 0 0 32 13.789m0 10.931a7.29 7.29 0 0 1 7.288 7.288A7.29 7.29 0 0 1 32 39.294a7.29 7.29 0 0 1-7.288-7.287A7.29 7.29 0 0 1 32 24.719" style="opacity:.38;stroke-width:.910959"/><path d="M32 12a20 20 0 0 0-20 20 20 20 0 0 0 20 20 20 20 0 0 0 20-20 20 20 0 0 0-20-20Zm0 12a8 8 0 0 1 8 8 8 8 0 0 1-8 8 8 8 0 0 1-8-8 8 8 0 0 1 8-8z" style="opacity:1;mix-blend-mode:normal;fill:none;stroke:#000;stroke-width:.3;stroke-dasharray:none;stroke-opacity:1;filter:url(#d)" transform="translate(2.85 2.856)scale(.91096)"/></svg>