<svg xmlns="http://www.w3.org/2000/svg" xmlns:xlink="http://www.w3.org/1999/xlink" width="64" height="64"><defs><filter id="c" width="1.182" height="1.232" x="-.091" y="-.116" style="color-interpolation-filters:sRGB"><feGaussianBlur stdDeviation="2.084"/></filter><filter id="d" width="1.308" height="1.3" x="-.154" y="-.151" style="color-interpolation-filters:sRGB"><feGaussianBlur stdDeviation="1.195"/></filter><filter id="e" width="1.182" height="1.232" x="-.091" y="-.116" style="color-interpolation-filters:sRGB"><feGaussianBlur stdDeviation="2.084"/></filter><radialGradient xlink:href="#a" id="b" cx="-54.995" cy="-7.522" r="28" fx="-54.995" fy="-7.522" gradientTransform="rotate(39.194 -80.923 37.729)scale(1.68182 2.53094)" gradientUnits="userSpaceOnUse"/><linearGradient id="a"><stop offset="0" style="stop-color:#8e8e8e;stop-opacity:1"/><stop offset="1" style="stop-color:#5f5f5f;stop-opacity:1"/></linearGradient></defs><rect width="53.923" height="42.368" x="-58.835" y="-53.28" rx="9.546" ry="9.546" style="fill:url(#b);stroke-width:.962918" transform="rotate(90)scale(-1 1)"/><rect width="56" height="44" x="-60" y="-54" rx="9.913" ry="9.913" style="mix-blend-mode:normal;fill:none;stroke:#000;stroke-width:.2;stroke-dasharray:none;stroke-opacity:1;filter:url(#c)" transform="matrix(0 -.96292 -.96292 0 1.282 1.06)"/><path d="M22 28.173h20v4H22Zm10-16 10 12H22Z" style="opacity:.38"/><path d="M22.003 28.184h20v4h-20zm10-16 10 12h-20z" style="opacity:1;fill:none;stroke:#000;stroke-width:.2;stroke-dasharray:none;stroke-opacity:1;filter:url(#d)"/><rect width="56" height="44" x="-60" y="-54" rx="9.913" ry="9.913" style="mix-blend-mode:normal;fill:none;stroke:#000;stroke-width:.2;stroke-dasharray:none;stroke-opacity:1;filter:url(#e)" transform="matrix(0 -.96292 -.96292 0 -51.42 -.82)"/></svg>