<svg xmlns="http://www.w3.org/2000/svg" xmlns:xlink="http://www.w3.org/1999/xlink" width="64" height="64"><defs><filter id="c" width="1.182" height="1.232" x="-.091" y="-.116" style="color-interpolation-filters:sRGB"><feGaussianBlur stdDeviation="2.084"/></filter><filter id="d" width="1.195" height="1.181" x="-.098" y="-.091" style="color-interpolation-filters:sRGB"><feGaussianBlur stdDeviation="1.036"/></filter><radialGradient xlink:href="#a" id="b" cx="-54.995" cy="-7.522" r="28" fx="-54.995" fy="-7.522" gradientTransform="rotate(39.194 -81.121 37.599)scale(1.68182 2.53094)" gradientUnits="userSpaceOnUse"/><linearGradient id="a"><stop offset="0" style="stop-color:#8e8e8e;stop-opacity:1"/><stop offset="1" style="stop-color:#5f5f5f;stop-opacity:1"/></linearGradient></defs><rect width="53.923" height="42.368" x="-58.962" y="-53.184" rx="9.546" ry="9.546" style="fill:url(#b);stroke-width:.962918" transform="rotate(90)scale(-1 1)"/><rect width="56" height="44" x="-60" y="-54" rx="9.913" ry="9.913" style="mix-blend-mode:normal;fill:none;stroke:#000;stroke-width:.2;stroke-dasharray:none;stroke-opacity:1;filter:url(#c)" transform="rotate(90 0 1.187)scale(-.96292 .96292)"/><path d="m23.894 11.987-4.988 4.988 1.871 1.87 4.986-4.988zm16.206 0-4.988 4.988 4.988 4.987 4.987-4.987zm-13.09 3.119-4.986 4.986 1.87 1.87 4.986-4.987zM32 18.964a6.17 6.17 0 0 0-6.171 6.17 6.17 6.17 0 0 0 6.17 6.172 6.17 6.17 0 0 0 6.171-6.171A6.17 6.17 0 0 0 32 18.964m0 2.645a3.526 3.526 0 0 1 3.526 3.526A3.526 3.526 0 0 1 32 28.66a3.526 3.526 0 0 1-3.527-3.526A3.526 3.526 0 0 1 32 21.609m-3.527 11.46v2.644h7.053V33.07zm0 4.407v2.645h7.053v-2.645z" style="opacity:.38;fill:#000;fill-opacity:1;stroke-width:.881539"/><path d="m23.894 11.987-4.988 4.988 1.871 1.87 4.986-4.988zm16.206 0-4.988 4.988 4.988 4.987 4.987-4.987zm-13.09 3.119-4.986 4.986 1.87 1.87 4.986-4.987zM32 18.964a6.17 6.17 0 0 0-6.171 6.17 6.17 6.17 0 0 0 6.17 6.172 6.17 6.17 0 0 0 6.171-6.171A6.17 6.17 0 0 0 32 18.964zm0 2.645a3.526 3.526 0 0 1 3.526 3.526A3.526 3.526 0 0 1 32 28.66a3.526 3.526 0 0 1-3.527-3.526A3.526 3.526 0 0 1 32 21.609zm-3.527 11.46v2.644h7.053V33.07zm0 4.407v2.645h7.053v-2.645z" style="opacity:1;fill:none;fill-opacity:1;stroke-width:.1;stroke:#000;stroke-opacity:1;stroke-dasharray:none;filter:url(#d)"/></svg>