<svg xmlns="http://www.w3.org/2000/svg" xmlns:xlink="http://www.w3.org/1999/xlink" width="64" height="64"><defs><radialGradient xlink:href="#a" id="b" cx="-51.568" cy="-12.041" r="19" fx="-51.568" fy="-12.041" gradientTransform="matrix(4.3339 .84862 -1.5891 4.3339 142.843 91.258)" gradientUnits="userSpaceOnUse"/><linearGradient id="a"><stop offset="0" style="stop-color:#4c4c4c;stop-opacity:1"/><stop offset="1" style="stop-color:#727272;stop-opacity:1"/></linearGradient></defs><rect width="52" height="52" x="-58" y="-58" rx="4.365" ry="4.365" style="fill:url(#b);stroke-width:1.1698" transform="rotate(90)scale(-1 1)"/><path d="M-10.076-9H-39.4a1.337 1.337 45 0 1-1.337-1.337v-43.326A1.337 1.337 135 0 1-39.401-55h29.325a1.337 1.337 45 0 1 1.338 1.337v43.326A1.337 1.337 135 0 1-10.076-9m-34.773-.084h-8.784a1.337 1.337 45 0 1-1.338-1.337v-18.331a1.337 1.337 135 0 1 1.338-1.338h8.784a1.337 1.337 45 0 1 1.337 1.338v18.33a1.337 1.337 135 0 1-1.337 1.338m0-24.826h-8.784a1.337 1.337 45 0 1-1.338-1.338v-18.33a1.337 1.337 135 0 1 1.338-1.338h8.784a1.337 1.337 45 0 1 1.337 1.337v18.331a1.337 1.337 135 0 1-1.337 1.338" style="opacity:.482682;fill:#000;fill-opacity:1" transform="rotate(90)scale(-1 1)"/></svg>