<svg xmlns="http://www.w3.org/2000/svg" xmlns:xlink="http://www.w3.org/1999/xlink" width="64" height="64"><defs><radialGradient xlink:href="#a" id="c" cx="6.588" cy="12.167" r="27.251" fx="6.588" fy="12.167" gradientTransform="rotate(60 73.65 9.82)scale(5.79078 5.73276)" gradientUnits="userSpaceOnUse"/><radialGradient xlink:href="#b" id="d" cx="42.272" cy="26.068" r="5.729" fx="42.272" fy="26.068" gradientTransform="rotate(-15 -176.378 586.153)scale(4.13211)" gradientUnits="userSpaceOnUse"/><linearGradient id="b"><stop offset="0" style="stop-color:#00bcff;stop-opacity:1"/><stop offset="1" style="stop-color:#00ffea;stop-opacity:1"/></linearGradient><linearGradient id="a"><stop offset="0" style="stop-color:#4c4c4c;stop-opacity:1"/><stop offset="1" style="stop-color:#727272;stop-opacity:1"/></linearGradient><filter id="e" width="1.098" height="1.289" x="-.049" y="-.145" style="color-interpolation-filters:sRGB"><feGaussianBlur stdDeviation=".714"/></filter></defs><path d="M31.943 12.842c-5.321.09-10.664-.17-15.968.336-1.897.14-3.832.869-4.827 2.597-1.787 2.896-2.626 6.274-3.7 9.477-1.693 6.145-3.232 12.58-2.454 18.99.565 3.873 4.043 7.394 8.022 7.53 2.56.04 3.877-2.348 4.832-4.35 1.62-2.253 1.942-5.639 4.529-7.03 1.927-.548 3.984-.182 5.973-.288 4.105.022 8.213-.044 12.316.035 2.656.36 3.161 3.29 4.346 5.216 1.2 1.952 2.012 4.43 3.896 5.829.3.221.857.455 1.227.511 3.077.47 6.105-1.77 7.674-4.295 2.488-4.492 1.255-9.815.49-14.591-1.23-5.895-2.676-11.867-5.473-17.239-1.664-2.722-5.191-2.49-7.974-2.638-4.303-.07-8.606-.086-12.909-.09" style="baseline-shift:baseline;display:inline;overflow:visible;vector-effect:none;fill:url(#c);enable-background:accumulate;stop-color:#000;stop-opacity:1"/><path d="M44.031 18.596a2.046 2.046 0 1 0-.005 4.091 2.046 2.046 0 0 0 .005-4.091m-3.683 3.683a2.046 2.046 0 1 0-.005 4.09 2.046 2.046 0 0 0 .005-4.09m7.367 0a2.047 2.047 0 1 0 0 4.092 2.046 2.046 0 0 0 0-4.092m-3.684 3.684a2.046 2.046 0 1 0-.005 4.091 2.046 2.046 0 0 0 .005-4.091" style="baseline-shift:baseline;display:inline;overflow:visible;opacity:1;vector-effect:none;fill:url(#d);fill-opacity:1;stroke-linecap:round;stroke-linejoin:round;stroke-miterlimit:4.7;enable-background:accumulate;stop-color:#000;stop-opacity:1" transform="translate(0 .108)"/><path d="M18.445 17.848a4.77 4.77 0 1 0 4.772 4.77 4.77 4.77 0 0 0-4.772-4.77" style="baseline-shift:baseline;display:inline;overflow:visible;opacity:.45;vector-effect:none;fill:#000;fill-opacity:1;stroke-linecap:round;stroke-linejoin:round;stroke-miterlimit:4.7;enable-background:accumulate;stop-color:#000;stop-opacity:1" transform="translate(0 .108)"/><path d="M18.445 17.956a4.77 4.77 0 1 0 4.772 4.77 4.77 4.77 0 0 0-4.772-4.77m25.586.748a2.046 2.046 0 1 0-.005 4.091 2.046 2.046 0 0 0 .005-4.09m-3.683 3.684a2.046 2.046 0 1 0-.005 4.09 2.046 2.046 0 0 0 .005-4.09m7.367 0a2.047 2.047 0 1 0 0 4.091 2.046 2.046 0 0 0 0-4.092M44.03 26.07a2.046 2.046 0 1 0-.005 4.091 2.046 2.046 0 0 0 .005-4.09" style="baseline-shift:baseline;display:inline;overflow:visible;fill:none;fill-opacity:1;stroke:#000;stroke-width:.1;stroke-linecap:round;stroke-linejoin:round;stroke-miterlimit:4.7;stroke-dasharray:none;stroke-opacity:1;filter:url(#e);enable-background:accumulate;stop-color:#000"/></svg>