<svg xmlns="http://www.w3.org/2000/svg" xmlns:xlink="http://www.w3.org/1999/xlink" width="64" height="64"><defs><filter id="d" width="1.193" height="1.283" x="-.096" y="-.142" style="color-interpolation-filters:sRGB"><feGaussianBlur stdDeviation="1.966"/></filter><filter id="c" width="1.241" height="1.47" x="-.12" y="-.234" style="color-interpolation-filters:sRGB"><feGaussianBlur stdDeviation="1.966"/></filter><radialGradient xlink:href="#a" id="b" cx="3.604" cy="69.384" r="28" fx="3.604" fy="69.384" gradientTransform="matrix(3.66312 0 0 2.22404 -2.778 -97.211)" gradientUnits="userSpaceOnUse"/><linearGradient id="a"><stop offset="0" style="stop-color:#2f2f2f;stop-opacity:1"/><stop offset="1" style="stop-color:#686868;stop-opacity:1"/></linearGradient></defs><g transform="translate(-3.784 2.157)"><path d="M17.251 6H46.75A5.25 5.25 45 0 1 52 11.251v19.557H12V11.25A5.25 5.25 135 0 1 17.251 6" style="fill:#b4b4b4;fill-opacity:1" transform="translate(3.785 -3.182)"/><path d="M16 10.345v3.77a1.115 1.115 45 0 0 1.115 1.115h7.77A1.115 1.115 135 0 0 26 14.116v-3.77a1.115 1.115 45 0 0-1.115-1.116h-7.77A1.115 1.115 135 0 0 16 10.345" style="opacity:.450368;fill:#000;fill-opacity:1" transform="translate(-.881 -5.273)scale(1.29688)"/><path d="M16 10.345v3.77a1.115 1.115 45 0 0 1.115 1.115h7.77A1.115 1.115 135 0 0 26 14.116v-3.77a1.115 1.115 45 0 0-1.115-1.116h-7.77A1.115 1.115 135 0 0 16 10.345" style="opacity:.450368;fill:#000;fill-opacity:1" transform="translate(17.982 -5.194)scale(1.29688)"/><rect width="49.931" height="34" x="10.819" y="22.867" rx="7.882" ry="7.882" style="fill:url(#b)"/><path d="M21.036 2.818a5.25 5.25 0 0 0-5.25 5.25V23.42a7.9 7.9 0 0 1 2.916-.553H52.87a7.9 7.9 0 0 1 2.916.553V8.068a5.25 5.25 0 0 0-5.252-5.25Zm.28 3.88H31.39a1.446 1.446 0 0 1 1.448 1.444v4.891a1.446 1.446 0 0 1-1.448 1.445H21.315a1.446 1.446 0 0 1-1.445-1.445v-4.89a1.446 1.446 0 0 1 1.445-1.446zm18.863.077h10.076a1.446 1.446 0 0 1 1.447 1.447v4.89a1.446 1.446 0 0 1-1.447 1.444H40.179a1.446 1.446 0 0 1-1.446-1.445V8.222a1.446 1.446 0 0 1 1.446-1.447z" style="mix-blend-mode:normal;fill:none;stroke:#000;stroke-width:.2;stroke-dasharray:none;stroke-opacity:1;filter:url(#c)"/><path d="m35.784 26.276-4.119 6.59h2.354v8.237h-4.825v-2.175a3.53 3.53 0 0 0 1.883-3.12 3.53 3.53 0 0 0-3.53-3.53 3.53 3.53 0 0 0-3.531 3.53 3.53 3.53 0 0 0 1.882 3.12v2.175c0 3.295 3.296 3.53 3.296 3.53h4.825v2.244a3.53 3.53 0 0 0-1.765 3.052 3.53 3.53 0 0 0 3.53 3.53 3.53 3.53 0 0 0 3.53-3.53 3.53 3.53 0 0 0-1.765-3.053v-2.242h4.825s3.296-.236 3.296-3.53v-1.766h.411c.815 0 1.471-.656 1.471-1.47v-4.12c0-.815-.656-1.47-1.471-1.47h-4.119c-.815 0-1.47.655-1.47 1.47v4.12c0 .814.655 1.47 1.47 1.47h.412v1.765h-4.825v-8.237h2.354z" style="opacity:.482371;fill:#000;fill-opacity:1;stroke-width:0;stroke-dasharray:none"/><path d="M18.701 22.868a7.865 7.865 0 0 0-7.883 7.88v18.237a7.866 7.866 0 0 0 7.883 7.883h34.168a7.865 7.865 0 0 0 7.88-7.883V30.75a7.863 7.863 0 0 0-7.88-7.881zm17.084 3.408 4.12 6.588H37.55v8.238h4.824v-1.765h-.412c-.815 0-1.471-.656-1.471-1.471v-4.12c0-.814.656-1.47 1.47-1.47h4.12c.815 0 1.47.656 1.47 1.47v4.12c0 .815-.655 1.47-1.47 1.47h-.412v1.766c0 3.295-3.295 3.532-3.295 3.532H37.55v2.242a3.53 3.53 0 0 1 1.765 3.053 3.53 3.53 0 0 1-3.531 3.53 3.53 3.53 0 0 1-3.531-3.53 3.53 3.53 0 0 1 1.765-3.053v-2.242h-4.824s-3.295-.237-3.295-3.532v-2.175a3.53 3.53 0 0 1-1.883-3.12 3.53 3.53 0 0 1 3.53-3.53 3.53 3.53 0 0 1 3.53 3.53 3.53 3.53 0 0 1-1.882 3.12v2.175h4.824v-8.238h-2.353z" style="mix-blend-mode:normal;fill:none;fill-opacity:1;stroke:#000;stroke-width:.2;stroke-dasharray:none;stroke-opacity:1;filter:url(#d)"/></g></svg>