<svg xmlns="http://www.w3.org/2000/svg" xmlns:xlink="http://www.w3.org/1999/xlink" width="64" height="64"><defs><radialGradient xlink:href="#a" id="b" cx="25.293" cy="38.421" r="18" fx="25.293" fy="38.421" gradientTransform="matrix(3.4085 0 0 4.54467 -71.66 -120.337)" gradientUnits="userSpaceOnUse"/><linearGradient id="a"><stop offset="0" style="stop-color:#4c4c4c;stop-opacity:1"/><stop offset="1" style="stop-color:#727272;stop-opacity:1"/></linearGradient><filter id="c" width="1.21" height="1.158" x="-.105" y="-.079" style="color-interpolation-filters:sRGB"><feGaussianBlur stdDeviation="1.536"/></filter></defs><path d="M-21.291-5.235v-9.63h9.633a1.076 1.076 135 0 0 1.076-1.077 1.07 1.07 44.725 0 0-1.076-1.066h-9.633v-4.283h9.633a1.076 1.076 135 0 0 1.076-1.076 1.07 1.07 44.725 0 0-1.076-1.067h-9.633v-4.283h9.633a1.076 1.076 135 0 0 1.076-1.076 1.07 1.07 44.672 0 0-1.076-1.064h-9.633v-4.286h9.633a1.076 1.076 135 0 0 1.076-1.076 1.07 1.07 44.672 0 0-1.076-1.064h-9.633v-4.283h9.633a1.076 1.076 135 0 0 1.076-1.077 1.07 1.07 44.725 0 0-1.076-1.066h-9.633v-4.283h9.633a1.076 1.076 135 0 0 1.076-1.077 1.07 1.07 44.725 0 0-1.076-1.066h-9.633v-9.63a1.076 1.076 45 0 0-1.076-1.077 1.07 1.07 134.725 0 0-1.067 1.077v9.63h-4.283v-9.63a1.076 1.076 45 0 0-1.076-1.077 1.07 1.07 134.672 0 0-1.064 1.077v9.63h-4.286v-9.63a1.076 1.076 45 0 0-1.076-1.077 1.07 1.07 134.672 0 0-1.064 1.077v9.63h-4.283v-9.63a1.076 1.076 45 0 0-1.077-1.077 1.07 1.07 134.725 0 0-1.066 1.077v9.63h-9.633a1.076 1.076 135 0 0-1.076 1.077 1.07 1.07 44.725 0 0 1.076 1.066h9.633v4.283h-9.633a1.076 1.076 135 0 0-1.076 1.076 1.07 1.07 44.725 0 0 1.076 1.067h9.633v4.283h-9.633a1.076 1.076 135 0 0-1.076 1.076 1.07 1.07 44.672 0 0 1.076 1.064h9.633v4.286h-9.633a1.076 1.076 135 0 0-1.076 1.076 1.07 1.07 44.672 0 0 1.076 1.064h9.633v4.283h-9.633a1.076 1.076 135 0 0-1.076 1.077 1.07 1.07 44.725 0 0 1.076 1.066h9.633v4.283h-9.633a1.076 1.076 135 0 0-1.076 1.077 1.07 1.07 44.725 0 0 1.076 1.066h9.633v9.63a1.076 1.076 45 0 0 1.076 1.077 1.07 1.07 134.725 0 0 1.067-1.077v-9.63h4.283v9.63a1.076 1.076 45 0 0 1.076 1.077 1.07 1.07 134.672 0 0 1.064-1.077v-9.63h4.286v9.63a1.076 1.076 45 0 0 1.076 1.077 1.07 1.07 134.672 0 0 1.064-1.077v-9.63h4.283v9.63a1.076 1.076 45 0 0 1.077 1.077 1.07 1.07 134.725 0 0 1.066-1.077" style="fill:#a2a2a2;fill-opacity:1;stroke-width:1.07087" transform="scale(-1)"/><rect width="36" height="48" x="14" y="8" rx="7.106" ry="7.106" style="fill:url(#b)"/><rect width="36" height="48" x="14" y="8" rx="7.106" ry="7.106" style="fill:none;stroke:#000;stroke-opacity:1;stroke-width:.2;stroke-dasharray:none;filter:url(#c)"/></svg>