<svg xmlns="http://www.w3.org/2000/svg" xmlns:xlink="http://www.w3.org/1999/xlink" width="64" height="64"><defs><radialGradient xlink:href="#a" id="c" cx="9.673" cy="55.035" r="22" fx="9.673" fy="55.035" gradientTransform="rotate(-15 -800.99 279.302)scale(3.97689 5.0615)" gradientUnits="userSpaceOnUse"/><radialGradient xlink:href="#b" id="e" cx="11.279" cy="66.603" r="17.5" fx="11.279" fy="66.603" gradientTransform="rotate(-15 -106.95 171.37)scale(3.99585 .91334)" gradientUnits="userSpaceOnUse"/><linearGradient id="b"><stop offset="0" style="stop-color:#f8c44e;stop-opacity:1"/><stop offset="1" style="stop-color:#f8a44e;stop-opacity:1"/></linearGradient><linearGradient id="a"><stop offset="0" style="stop-color:#4c4c4c;stop-opacity:1"/><stop offset="1" style="stop-color:#727272;stop-opacity:1"/></linearGradient><filter id="f" width="1.084" height="1.366" x="-.042" y="-.183" style="color-interpolation-filters:sRGB"><feGaussianBlur stdDeviation=".589"/></filter><filter id="d" width="1.262" height="1.445" x="-.131" y="-.223" style="color-interpolation-filters:sRGB"><feGaussianBlur stdDeviation="1.855"/></filter></defs><path d="M20 4 10 14v43.5c0 1.385 1.115 2.5 2.5 2.5h39c1.385 0 2.5-1.115 2.5-2.5v-51C54 5.115 52.885 4 51.5 4z" style="fill:url(#c)"/><rect width="34" height="20" x="15" y="-53" rx="2.5" ry="2.5" style="opacity:.4;filter:url(#d)" transform="scale(1 -1)"/><rect width="34" height="20" x="15" y="-53" rx="2.5" ry="2.5" style="opacity:.4" transform="scale(1 -1)"/><path d="M19 10.493v5.014A1.493 1.493 45 0 0 20.493 17h.014A1.493 1.493 135 0 0 22 15.507v-5.014A1.493 1.493 45 0 0 20.507 9h-.014A1.493 1.493 135 0 0 19 10.493m4 0v5.014A1.493 1.493 45 0 0 24.493 17h.014A1.493 1.493 135 0 0 26 15.507v-5.014A1.493 1.493 45 0 0 24.507 9h-.014A1.493 1.493 135 0 0 23 10.493m4 0v5.014A1.493 1.493 45 0 0 28.493 17h.014A1.493 1.493 135 0 0 30 15.507v-5.014A1.493 1.493 45 0 0 28.507 9h-.014A1.493 1.493 135 0 0 27 10.493m4 0v5.014A1.493 1.493 45 0 0 32.493 17h.014A1.493 1.493 135 0 0 34 15.507v-5.014A1.493 1.493 45 0 0 32.507 9h-.014A1.493 1.493 135 0 0 31 10.493m4 0v5.014A1.493 1.493 45 0 0 36.493 17h.014A1.493 1.493 135 0 0 38 15.507v-5.014A1.493 1.493 45 0 0 36.507 9h-.014A1.493 1.493 135 0 0 35 10.493m4 0v5.014A1.493 1.493 45 0 0 40.493 17h.014A1.493 1.493 135 0 0 42 15.507v-5.014A1.493 1.493 45 0 0 40.507 9h-.014A1.493 1.493 135 0 0 39 10.493m4 0v5.014A1.493 1.493 45 0 0 44.493 17h.014A1.493 1.493 135 0 0 46 15.507v-5.014A1.493 1.493 45 0 0 44.507 9h-.014A1.493 1.493 135 0 0 43 10.493m4 0v5.014A1.493 1.493 45 0 0 48.493 17h.014A1.493 1.493 135 0 0 50 15.507v-5.014A1.493 1.493 45 0 0 48.507 9h-.014A1.493 1.493 135 0 0 47 10.493m-32 4v1.014A1.493 1.493 45 0 0 16.493 17h.014A1.493 1.493 135 0 0 18 15.507v-1.014A1.493 1.493 45 0 0 16.507 13h-.014A1.493 1.493 135 0 0 15 14.493" style="fill:url(#e)"/><path d="M19 10.493v5.014A1.493 1.493 45 0 0 20.493 17h.014A1.493 1.493 135 0 0 22 15.507v-5.014A1.493 1.493 45 0 0 20.507 9h-.014A1.493 1.493 135 0 0 19 10.493Zm4 0v5.014A1.493 1.493 45 0 0 24.493 17h.014A1.493 1.493 135 0 0 26 15.507v-5.014A1.493 1.493 45 0 0 24.507 9h-.014A1.493 1.493 135 0 0 23 10.493Zm4 0v5.014A1.493 1.493 45 0 0 28.493 17h.014A1.493 1.493 135 0 0 30 15.507v-5.014A1.493 1.493 45 0 0 28.507 9h-.014A1.493 1.493 135 0 0 27 10.493Zm4 0v5.014A1.493 1.493 45 0 0 32.493 17h.014A1.493 1.493 135 0 0 34 15.507v-5.014A1.493 1.493 45 0 0 32.507 9h-.014A1.493 1.493 135 0 0 31 10.493Zm4 0v5.014A1.493 1.493 45 0 0 36.493 17h.014A1.493 1.493 135 0 0 38 15.507v-5.014A1.493 1.493 45 0 0 36.507 9h-.014A1.493 1.493 135 0 0 35 10.493Zm4 0v5.014A1.493 1.493 45 0 0 40.493 17h.014A1.493 1.493 135 0 0 42 15.507v-5.014A1.493 1.493 45 0 0 40.507 9h-.014A1.493 1.493 135 0 0 39 10.493Zm4 0v5.014A1.493 1.493 45 0 0 44.493 17h.014A1.493 1.493 135 0 0 46 15.507v-5.014A1.493 1.493 45 0 0 44.507 9h-.014A1.493 1.493 135 0 0 43 10.493Zm4 0v5.014A1.493 1.493 45 0 0 48.493 17h.014A1.493 1.493 135 0 0 50 15.507v-5.014A1.493 1.493 45 0 0 48.507 9h-.014A1.493 1.493 135 0 0 47 10.493Zm-32 4v1.014A1.493 1.493 45 0 0 16.493 17h.014A1.493 1.493 135 0 0 18 15.507v-1.014A1.493 1.493 45 0 0 16.507 13h-.014A1.493 1.493 135 0 0 15 14.493Z" style="fill:none;stroke:#000;stroke-opacity:1;stroke-width:.1;stroke-dasharray:none;filter:url(#f)"/></svg>