<svg xmlns="http://www.w3.org/2000/svg" xmlns:xlink="http://www.w3.org/1999/xlink" width="64" height="64"><defs><radialGradient xlink:href="#b" id="d" cx="7.973" cy="50.237" r="28" fx="7.973" fy="50.237" gradientTransform="rotate(23.796 215.087 45.106)scale(3.28561 2.58912)" gradientUnits="userSpaceOnUse"/><radialGradient xlink:href="#c" id="f" cx="16.098" cy="14.255" r="14" fx="16.098" fy="14.255" gradientTransform="matrix(2.61389 0 0 2.94373 -25.98 -55.355)" gradientUnits="userSpaceOnUse"/><linearGradient id="c"><stop offset="0" style="stop-color:#f8c44e;stop-opacity:1"/><stop offset="1" style="stop-color:#f8a44e;stop-opacity:1"/></linearGradient><linearGradient id="b"><stop offset="0" style="stop-color:#4c4c4c;stop-opacity:1"/><stop offset="1" style="stop-color:#727272;stop-opacity:1"/></linearGradient><filter id="e" width="1.234" height="1.293" x="-.117" y="-.146" style="color-interpolation-filters:sRGB"><feGaussianBlur stdDeviation="1.951"/></filter></defs><path d="m18.012 53.012-.024-.024a6.8 6.8 22.5 0 0-4.8-1.988A10.12 10.12 50.068 0 1 4 40.024V17.976A10.976 10.976 135 0 1 14.976 7h34.048A10.976 10.976 45 0 1 60 17.976v22.048A10.976 10.976 135 0 1 49.024 51a4.72 4.72 146.569 0 0-3.012 1.988l-.024.024a6.8 6.8 157.5 0 1-4.8 1.988H22.812a6.8 6.8 22.5 0 1-4.8-1.988" style="fill:url(#d)"/><path d="M22.001 45.001 22 45A6.82 6.82 22.5 0 0 17.173 43h-2.346A2.827 2.827 45 0 1 12 40.173V17.827A2.827 2.827 135 0 1 14.827 15h34.346A2.827 2.827 45 0 1 52 17.827v22.346A2.827 2.827 135 0 1 49.173 43h-2.346A6.82 6.82 157.5 0 0 42 44.999L42 45A6.82 6.82 157.5 0 1 37.173 47H26.827A6.82 6.82 22.5 0 1 22 45.001" style="opacity:.45;filter:url(#e)"/><path d="M22.001 45.001 22 45A6.82 6.82 22.5 0 0 17.173 43h-2.346A2.827 2.827 45 0 1 12 40.173V17.827A2.827 2.827 135 0 1 14.827 15h34.346A2.827 2.827 45 0 1 52 17.827v22.346A2.827 2.827 135 0 1 49.173 43h-2.346A6.82 6.82 157.5 0 0 42 44.999L42 45A6.82 6.82 157.5 0 1 37.173 47H26.827A6.82 6.82 22.5 0 1 22 45.001" style="opacity:.45"/><path d="M18 17.035A2 2 43.984 0 0 20.035 19 2 2 133.984 0 0 22 16.965 2 2 43.984 0 0 19.965 15 2 2 133.984 0 0 18 17.035m6 0A2 2 43.984 0 0 26.035 19 2 2 133.984 0 0 28 16.965 2 2 43.984 0 0 25.965 15 2 2 133.984 0 0 24 17.035m6 0A2 2 43.984 0 0 32.035 19 2 2 133.984 0 0 34 16.965 2 2 43.984 0 0 31.965 15 2 2 133.984 0 0 30 17.035m6 0A2 2 43.984 0 0 38.035 19 2 2 133.984 0 0 40 16.965 2 2 43.984 0 0 37.965 15 2 2 133.984 0 0 36 17.035m6 0A2 2 43.984 0 0 44.035 19 2 2 133.984 0 0 46 16.965 2 2 43.984 0 0 43.965 15 2 2 133.984 0 0 42 17.035" style="baseline-shift:baseline;display:inline;overflow:visible;vector-effect:none;fill:url(#f);enable-background:accumulate;stop-color:#000;stop-opacity:1"/></svg>