<svg xmlns="http://www.w3.org/2000/svg" xmlns:xlink="http://www.w3.org/1999/xlink" width="64" height="64"><defs><radialGradient xlink:href="#a" id="b" cx="14.225" cy="51.195" r="17" fx="14.225" fy="51.195" gradientTransform="rotate(-15 -298.47 226.688)scale(3.72686 2.63072)" gradientUnits="userSpaceOnUse"/><linearGradient id="a"><stop offset="0" style="stop-color:#fe8b38;stop-opacity:1"/><stop offset="1" style="stop-color:#feb938;stop-opacity:1"/></linearGradient></defs><g transform="translate(-3 -1)"><path d="M32 45v9H9c-1.662 0-3 1.338-3 3s1.338 3 3 3h52c1.662 0 3-1.338 3-3s-1.338-3-3-3H38v-9z" style="fill:#828282"/><path d="M35 4c-7.2 0-13 5.8-13 13v17h26V17c0-7.2-5.8-13-13-13m0 6c3.9 0 7 3.1 7 7v11H28V17c0-3.9 3.1-7 7-7" style="fill:#e4e4e4"/><rect width="34" height="24" x="18" y="22" rx="2.8" ry="2.8" style="fill:url(#b);fill-opacity:1"/><path d="M18 26h34v16H18z" style="opacity:.3;fill:#fff"/><rect width="20" height="10" x="25" y="52" rx="5" ry="5" style="fill:#afafb1"/><path d="M35 4c-7.2 0-13 5.8-13 13v1c0-7.2 5.8-13 13-13s13 5.8 13 13v-1c0-7.2-5.8-13-13-13" style="opacity:.2;fill:#fff"/></g></svg>