<svg xmlns="http://www.w3.org/2000/svg" xmlns:xlink="http://www.w3.org/1999/xlink" width="64" height="64"><defs><radialGradient xlink:href="#a" id="d" cx="14.73" cy="45.746" r="28" fx="14.73" fy="45.746" gradientTransform="rotate(-18.26 45.017 69.361)scale(1.61474 .91695)" gradientUnits="userSpaceOnUse"/><radialGradient xlink:href="#b" id="c" cx="3.796" cy="2.308" r="17" fx="3.796" fy="2.308" gradientTransform="rotate(.509 1967.523 -216.07)scale(1.86385 1.9436)" gradientUnits="userSpaceOnUse"/><linearGradient id="b"><stop offset="0" style="stop-color:#a4a2a2;stop-opacity:1"/><stop offset="1" style="stop-color:#9b9b9b;stop-opacity:1"/></linearGradient><linearGradient id="a"><stop offset="0" style="stop-color:#737373;stop-opacity:1"/><stop offset="1" style="stop-color:#4f4f4f;stop-opacity:1"/></linearGradient><filter id="e" width="1.195" height="1.195" x="-.098" y="-.098" style="color-interpolation-filters:sRGB"><feGaussianBlur stdDeviation="2.105"/></filter><filter id="f" width="1.287" height="1.67" x="-.143" y="-.335" style="color-interpolation-filters:sRGB"><feGaussianBlur stdDeviation=".91"/></filter></defs><rect width="32.315" height="5.703" x="5.387" y="-18.694" ry="2.851" style="fill:url(#c);stroke-width:.950452" transform="rotate(90)"/><rect width="53.225" height="26.613" x="5.366" y="32" rx="7.893" ry="7.893" style="fill:url(#d);stroke-width:.950452"/><path d="M15.864 5.388a2.845 2.845 0 0 0-2.851 2.851v23.776a7.87 7.87 0 0 0-7.625 7.879V50.72a7.875 7.875 0 0 0 7.892 7.892h37.44a7.875 7.875 0 0 0 7.892-7.892V39.894A7.875 7.875 0 0 0 50.72 32H18.716V8.239a2.845 2.845 0 0 0-2.852-2.851z" style="fill:none;stroke-width:.3;stroke:#000;stroke-opacity:1;stroke-dasharray:none;filter:url(#e)"/><g style="filter:url(#f);opacity:.45180973" transform="translate(20.03 .628)"><circle cx="30.11" cy="50.356" r="3.262" style="fill:#00ff97;fill-opacity:1;stroke-width:.543724"/><circle cx="21.41" cy="50.356" r="3.262" style="fill:#00fff4;fill-opacity:1;stroke-width:.543724"/></g><path d="M41.441 47.723a3.26 3.26 0 0 0-3.263 3.261 3.26 3.26 0 0 0 3.263 3.262 3.26 3.26 0 0 0 3.262-3.262 3.26 3.26 0 0 0-3.262-3.261m8.7 0a3.26 3.26 0 0 0-3.264 3.261 3.26 3.26 0 0 0 3.264 3.262 3.26 3.26 0 0 0 3.261-3.262 3.26 3.26 0 0 0-3.261-3.261" style="fill:#fff;stroke-width:.543724;fill-opacity:1;opacity:.51161491"/></svg>