<svg xmlns="http://www.w3.org/2000/svg" xmlns:xlink="http://www.w3.org/1999/xlink" width="64" height="64"><defs><radialGradient xlink:href="#a" id="b" cx="-51.568" cy="-12.041" r="19" fx="-51.568" fy="-12.041" gradientTransform="rotate(15 -297.703 416.947)scale(3.2788 4.48679)" gradientUnits="userSpaceOnUse"/><linearGradient id="a"><stop offset="0" style="stop-color:#4c4c4c;stop-opacity:1"/><stop offset="1" style="stop-color:#727272;stop-opacity:1"/></linearGradient></defs><g transform="translate(62 64)"><path d="M-44.721-58h29.442A4.28 4.28 45 0 1-11-53.721v37.982A9.74 9.74 135 0 1-20.74-6h-18.52A9.74 9.74 45 0 1-49-15.74V-53.72A4.28 4.28 135 0 1-44.721-58" style="fill:url(#b)"/><rect width="32" height="41.123" x="-46" y="-55" rx="1.355" ry="1.355" style="opacity:.482682;fill:#000;fill-opacity:1"/></g><path d="M21.167 48.404a2.025 2.025 0 0 0-2.024 2.024 2.025 2.025 0 0 0 2.024 2.025 2.025 2.025 0 0 0 2.025-2.025 2.025 2.025 0 0 0-2.025-2.024m16.873 0a2.025 2.025 0 0 0-2.026 2.024 2.025 2.025 0 0 0 2.026 2.025 2.025 2.025 0 0 0 2.023-2.025 2.025 2.025 0 0 0-2.023-2.024m-8.1.674a2.7 2.7 0 0 0-2.7 2.7 2.7 2.7 0 0 0 2.7 2.7 2.7 2.7 0 0 0 2.7-2.7 2.7 2.7 0 0 0-2.7-2.7" style="opacity:.415531;fill:#000;fill-opacity:1;stroke-width:.674852" transform="translate(2.47 2.409)"/><path d="M41.275 3.599h2.957v1.469a1.49 1.49 135 0 1-1.488 1.487 1.48 1.48 45.368 0 1-1.469-1.487Z" style="opacity:.20586;stroke-width:.739204" transform="translate(2.47 2.409)"/></svg>