<svg xmlns="http://www.w3.org/2000/svg" xmlns:xlink="http://www.w3.org/1999/xlink" width="64" height="64"><defs><radialGradient xlink:href="#a" id="b" cx="-62.13" cy="-1.032" r="28" fx="-62.13" fy="-1.032" gradientTransform="matrix(3.10607 0 0 2.44049 130.851 -5.15)" gradientUnits="userSpaceOnUse"/><linearGradient id="a"><stop offset="0" style="stop-color:#4c4c4c;stop-opacity:1"/><stop offset="1" style="stop-color:#727272;stop-opacity:1"/></linearGradient><filter id="c" width="1.916" height="1.393" x="-.458" y="-.196" style="color-interpolation-filters:sRGB"><feGaussianBlur stdDeviation="1.145"/></filter></defs><rect width="56" height="44" x="-60" y="-54" rx="4" ry="4" style="fill:url(#b)" transform="rotate(90)scale(-1 1)"/><path d="M18 4v30c0 7.756 6.244 14 14 14s14-6.244 14-14V4zm14 24a6 6 0 0 1 6 6 6 6 0 0 1-6 6 6 6 0 0 1-6-6 6 6 0 0 1 6-6m-22 4v2h3c.554 0 1-.446 1-1s-.446-1-1-1zm41 0c-.554 0-1 .446-1 1s.446 1 1 1h3v-2zm-41 4v2h3c.554 0 1-.446 1-1s-.446-1-1-1zm41 0c-.554 0-1 .446-1 1s.446 1 1 1h3v-2zm-41 4v2h3c.554 0 1-.446 1-1s-.446-1-1-1zm41 0c-.554 0-1 .446-1 1s.446 1 1 1h3v-2zM15 56v4h34v-4z" style="opacity:.45;fill:#000;fill-opacity:1"/><circle cx="32" cy="21" r="3" style="fill:#fff;fill-opacity:1;opacity:.4260951"/><g style="filter:url(#c)" transform="translate(-9.129 -.089)"><circle cx="41.129" cy="21.089" r="3" style="fill:#ff6e40"/><circle cx="41.129" cy="13.089" r="3" style="fill:#76ff03"/></g><circle cx="32" cy="13" r="3" style="fill:#fff;fill-opacity:1;opacity:.4260951"/></svg>