<svg xmlns="http://www.w3.org/2000/svg" xmlns:xlink="http://www.w3.org/1999/xlink" xml:space="preserve" viewBox="0 0 64 64"><defs><radialGradient xlink:href="#a" id="d" cx="51.926" cy="78.491" r="27.708" fx="51.926" fy="78.491" gradientTransform="matrix(0 -2.191 2.24189 0 -92.281 184.464)" gradientUnits="userSpaceOnUse"/><radialGradient id="a" cx="-159.431" cy="15.463" r="64.707" fx="-159.431" fy="15.463" gradientTransform="matrix(-.89413 0 0 .96305 -80.754 49.33)" gradientUnits="userSpaceOnUse"><stop offset="0" style="stop-color:#006fff;stop-opacity:1"/><stop offset="1" style="stop-color:#15baff;stop-opacity:1"/></radialGradient><radialGradient xlink:href="#b" id="c" cx="10.757" cy="61.399" r="24.566" fx="10.757" fy="61.399" gradientTransform="matrix(0 -2.33099 2.51789 0 -79.138 79.402)" gradientUnits="userSpaceOnUse"/><radialGradient id="b" cx="-159.431" cy="15.463" r="64.707" fx="-159.431" fy="15.463" gradientTransform="matrix(-.89413 0 0 .96305 -80.754 49.33)" gradientUnits="userSpaceOnUse"><stop offset="0" style="stop-color:#3d6aa4;stop-opacity:1"/><stop offset="1" style="stop-color:#0097d2;stop-opacity:1"/></radialGradient></defs><path d="M22.196 11.795h-9.993A4.794 4.794 135 0 0 7.41 16.59V40.3c0 3.69 2.988 6.767 6.68 6.767h35.772a6.677 6.677 0 0 0 6.68-6.68V23.375c0-3.691-4.329-7.95-8.02-7.95H30.038a5.64 5.64 19.982 0 1-3.624-1.317l-1.642-1.376a4 4 19.982 0 0-2.576-.937" style="fill:url(#c);stroke-width:.878921" transform="translate(-3.06 -1.077)scale(1.0965)"/><path d="M12.87 20.662h10.852a7.07 7.07 0 0 0 5.327-2.42 7.05 7.05 0 0 1 5.31-2.4H51.13a7.85 7.85 0 0 1 7.852 7.853v24.041a7.85 7.85 0 0 1-7.852 7.852H12.87a7.85 7.85 0 0 1-7.852-7.852V28.514a7.85 7.85 0 0 1 7.852-7.852" style="fill:url(#d);fill-opacity:1;stroke:none;stroke-width:.681659;stroke-linecap:round;stroke-linejoin:round"/><path d="M32 16.705v.673a.46.46 45 0 0 .458.459h1.084a.46.46 135 0 0 .458-.459v-1.075a.406.406 0 0 0-.456-.416 7.6 7.6 0 0 0-1.109.219c-.243.067-.435.346-.435.6m-.458 1.132h-1.084a.46.46 135 0 0-.458.458v1.083a.46.46 45 0 0 .458.459h1.084a.46.46 135 0 0 .458-.459v-1.083a.46.46 45 0 0-.458-.458M32 20.295v1.083a.46.46 45 0 0 .458.459h1.084a.46.46 135 0 0 .458-.459v-1.083a.46.46 45 0 0-.458-.458h-1.084a.46.46 135 0 0-.458.458m-.458 1.542h-1.084a.46.46 135 0 0-.458.458v1.083a.46.46 45 0 0 .458.459h1.084a.46.46 135 0 0 .458-.459v-1.083a.46.46 45 0 0-.458-.458M32 24.295v1.083a.46.46 45 0 0 .458.459h1.084a.46.46 135 0 0 .458-.459v-1.083a.46.46 45 0 0-.458-.458h-1.084a.46.46 135 0 0-.458.458m-.458 1.542h-1.084a.46.46 135 0 0-.458.458v1.083a.46.46 45 0 0 .458.459h1.084a.46.46 135 0 0 .458-.459v-1.083a.46.46 45 0 0-.458-.458M32 28.295v1.083c0 .253.209.464.454.401.726-.186 1.304-.8 1.486-1.49.064-.243-.145-.452-.398-.452h-1.084a.46.46 135 0 0-.458.458m-.457 1.568A4.014 4.014 0 0 0 28 33.837v8c0 2.2 1.8 4 4 4s4-1.8 4-4v-8a4.014 4.014 0 0 0-3.542-3.974 5 5 0 0 0-.915 0M32 31.837c1.1 0 2 .8 2 2 0 1-.9 2-2 2s-2-1-2-2c0-1.2.8-2 2-2m0 6c1.1 0 2 .8 2 2v2c0 1-.9 2-2 2s-2-1-2-2v-2c0-1.2.8-2 2-2" style="opacity:.3;fill:#000;fill-opacity:1"/></svg>