<svg xmlns="http://www.w3.org/2000/svg" xmlns:xlink="http://www.w3.org/1999/xlink" width="48" height="48"><defs><radialGradient xlink:href="#a" id="b" cx="-34.963" cy="-10.956" r="27.999" fx="-34.963" fy="-10.956" gradientTransform="rotate(165 64.08 -20.249)scale(-3.64394 2.67536)" gradientUnits="userSpaceOnUse"/><linearGradient id="a"><stop offset="0" style="stop-color:#01a4f6;stop-opacity:1"/><stop offset="1" style="stop-color:#002c6f;stop-opacity:1"/></linearGradient></defs><path d="M44.006 24A19.96 19.96 0 0 0 24 3.994 19.96 19.96 0 0 0 3.994 24 19.96 19.96 0 0 0 24 44.006 19.96 19.96 0 0 0 44.006 24" style="fill:url(#b);stroke-width:.714513"/><path d="M24 11c-3.72 0-6.573 1.734-6.953 6h3.04c.4-2.224 2.155-3 3.913-3 2 0 4 1 4 4v3H15.666c-.923 0-1.666.75-1.666 1.7v10.585c0 .95.743 1.715 1.666 1.715h16.668c.923 0 1.666-.765 1.666-1.715V22.7c0-.95-.743-1.699-1.666-1.699H31v-3c0-5-3-7-7-7" style="fill:#fff"/></svg>