<svg xmlns="http://www.w3.org/2000/svg" xmlns:xlink="http://www.w3.org/1999/xlink" width="48" height="48"><defs><radialGradient xlink:href="#a" id="b" cx="-34.963" cy="-10.956" r="27.999" fx="-34.963" fy="-10.956" gradientTransform="rotate(165 64.08 -20.249)scale(-3.64394 2.67536)" gradientUnits="userSpaceOnUse"/><linearGradient id="a"><stop offset="0" style="stop-color:#01a4f6;stop-opacity:1"/><stop offset="1" style="stop-color:#002c6f;stop-opacity:1"/></linearGradient></defs><path d="M44.006 24A19.96 19.96 0 0 0 24 3.994 19.96 19.96 0 0 0 3.994 24 19.96 19.96 0 0 0 24 44.006 19.96 19.96 0 0 0 44.006 24" style="fill:url(#b);stroke-width:.714513"/><path d="M16 17.04v13.92A3.04 3.04 45 0 0 19.04 34 3 3 134.249 0 0 22 30.96V17.04A3.04 3.04 45 0 0 18.96 14 3 3 134.249 0 0 16 17.04m10 0v13.92A3.04 3.04 45 0 0 29.04 34 3 3 134.249 0 0 32 30.96V17.04A3.04 3.04 45 0 0 28.96 14 3 3 134.249 0 0 26 17.04" style="fill:#fff"/></svg>