<svg xmlns="http://www.w3.org/2000/svg" xmlns:xlink="http://www.w3.org/1999/xlink" width="48" height="48"><defs><radialGradient xlink:href="#a" id="b" cx="-34.963" cy="-10.956" r="27.999" fx="-34.963" fy="-10.956" gradientTransform="rotate(165 64.08 -20.249)scale(-3.64394 2.67536)" gradientUnits="userSpaceOnUse"/><linearGradient id="a"><stop offset="0" style="stop-color:#01a4f6;stop-opacity:1"/><stop offset="1" style="stop-color:#002c6f;stop-opacity:1"/></linearGradient></defs><path d="M44.006 24A19.96 19.96 0 0 0 24 3.994 19.96 19.96 0 0 0 3.994 24 19.96 19.96 0 0 0 24 44.006 19.96 19.96 0 0 0 44.006 24" style="fill:url(#b);stroke-width:.714513"/><path d="M24 12c-6.627 0-12 5.373-12 12s5.373 12 12 12h7.5s1.406 0 1.5-1.5c0-1.5-1.5-1.5-1.5-1.5H24a9 9 0 1 1 0-18 9 9 0 0 1 9 9v1.5a1.5 1.5 0 0 1-3 0V24a6 6 0 1 0-6 6 5.96 5.96 0 0 0 4.055-1.603A4.5 4.5 0 0 0 36 25.5V24c0-6.627-5.373-12-12-12m0 9a3 3 0 1 1 0 6 3 3 0 0 1 0-6" style="fill:#fff"/></svg>