<svg xmlns="http://www.w3.org/2000/svg" xmlns:xlink="http://www.w3.org/1999/xlink" width="48" height="48"><defs><radialGradient xlink:href="#a" id="b" cx="-34.963" cy="-10.956" r="27.999" fx="-34.963" fy="-10.956" gradientTransform="rotate(165 64.08 -20.249)scale(-3.64394 2.67536)" gradientUnits="userSpaceOnUse"/><linearGradient id="a"><stop offset="0" style="stop-color:#01a4f6;stop-opacity:1"/><stop offset="1" style="stop-color:#002c6f;stop-opacity:1"/></linearGradient></defs><path d="M44.006 24A19.96 19.96 0 0 0 24 3.994 19.96 19.96 0 0 0 3.994 24 19.96 19.96 0 0 0 24 44.006 19.96 19.96 0 0 0 44.006 24" style="fill:url(#b);stroke-width:.714513"/><path d="M23.398 7.125a1.003 1.003 0 0 0-1.05 1.002v2.125c-7.18 0-13 5.82-13 13 0 3.84 1.664 7.29 4.31 9.67 1.09.98 2.712.52 3.328-.81.551-1.19-.064-2.801-.96-3.956a7.97 7.97 0 0 1-1.678-4.904 8 8 0 0 1 8-8v2.127a.916.916 0 0 0 1.478.723l6.041-4.7a1.35 1.35 0 0 0-.078-2.19l-5.883-3.921a1 1 0 0 0-.508-.166m9.725 7.283c-.795.013-1.574.504-1.959 1.336-.55 1.19.064 2.8.961 3.955a7.97 7.97 0 0 1 1.678 4.905 8 8 0 0 1-8 8v-2.127a.916.916 0 0 0-1.479-.723l-6.04 4.7a1.35 1.35 0 0 0 .077 2.189l5.883 3.921a1 1 0 0 0 .508.166 1.003 1.003 0 0 0 1.05-1.001v-2.125c7.18 0 13-5.82 13-13 0-3.84-1.663-7.29-4.31-9.67a1.98 1.98 0 0 0-1.369-.526" style="fill:#fff"/></svg>