<svg xmlns="http://www.w3.org/2000/svg" xmlns:xlink="http://www.w3.org/1999/xlink" width="48" height="48"><defs><radialGradient xlink:href="#a" id="b" cx="-34.963" cy="-10.956" r="27.999" fx="-34.963" fy="-10.956" gradientTransform="rotate(165 64.08 -20.249)scale(-3.64394 2.67536)" gradientUnits="userSpaceOnUse"/><linearGradient id="a"><stop offset="0" style="stop-color:#01a4f6;stop-opacity:1"/><stop offset="1" style="stop-color:#002c6f;stop-opacity:1"/></linearGradient></defs><path d="M44.006 24A19.96 19.96 0 0 0 24 3.994 19.96 19.96 0 0 0 3.994 24 19.96 19.96 0 0 0 24 44.006 19.96 19.96 0 0 0 44.006 24" style="fill:url(#b);stroke-width:.714513"/><path d="M21 10v3.42a11 11 0 0 0-2.352.984l-2.425-2.425-4.244 4.244 2.42 2.42A11 11 0 0 0 13.427 21H10v6h3.42a11 11 0 0 0 .984 2.352l-2.425 2.425 4.244 4.244 2.42-2.42a11 11 0 0 0 2.357.971V38h6v-3.42a11 11 0 0 0 2.352-.984l2.425 2.425 4.244-4.244-2.42-2.42A11 11 0 0 0 34.573 27H38v-6h-3.42a11 11 0 0 0-.984-2.352l2.425-2.425-4.244-4.244-2.42 2.42A11 11 0 0 0 27 13.427V10zm3 9a5 5 0 0 1 5 5 5 5 0 0 1-5 5 5 5 0 0 1-5-5 5 5 0 0 1 5-5" style="fill:#fff"/></svg>