<svg xmlns="http://www.w3.org/2000/svg" xmlns:xlink="http://www.w3.org/1999/xlink" width="48" height="48"><defs><radialGradient xlink:href="#a" id="b" cx="-34.963" cy="-10.956" r="27.999" fx="-34.963" fy="-10.956" gradientTransform="rotate(165 64.08 -20.249)scale(-3.64394 2.67536)" gradientUnits="userSpaceOnUse"/><linearGradient id="a"><stop offset="0" style="stop-color:#01a4f6;stop-opacity:1"/><stop offset="1" style="stop-color:#002c6f;stop-opacity:1"/></linearGradient></defs><path d="M44.006 24A19.96 19.96 0 0 0 24 3.994 19.96 19.96 0 0 0 3.994 24 19.96 19.96 0 0 0 24 44.006 19.96 19.96 0 0 0 44.006 24" style="fill:url(#b);stroke-width:.714513"/><path d="M24 11c-4 0-7 2-7 7v3h-1.333c-.924 0-1.667.75-1.667 1.7v10.586c0 .95.743 1.714 1.667 1.714h16.666c.924 0 1.667-.765 1.667-1.714V22.7c0-.95-.743-1.7-1.667-1.7H31v-3c0-5-3-7-7-7m0 3c2 0 4 1 4 4v3h-8v-3c0-3 2-4 4-4" style="fill:#fff"/></svg>