<svg xmlns="http://www.w3.org/2000/svg" xmlns:xlink="http://www.w3.org/1999/xlink" width="48" height="48"><defs><radialGradient xlink:href="#a" id="b" cx="-34.963" cy="-10.956" r="27.999" fx="-34.963" fy="-10.956" gradientTransform="rotate(165 64.08 -20.249)scale(-3.64394 2.67536)" gradientUnits="userSpaceOnUse"/><linearGradient id="a"><stop offset="0" style="stop-color:#01a4f6;stop-opacity:1"/><stop offset="1" style="stop-color:#002c6f;stop-opacity:1"/></linearGradient></defs><path d="M44.006 24A19.96 19.96 0 0 0 24 3.994 19.96 19.96 0 0 0 3.994 24 19.96 19.96 0 0 0 24 44.006 19.96 19.96 0 0 0 44.006 24" style="fill:url(#b);stroke-width:.714513"/><path d="M24.026 38h-.052A1.974 1.974 45 0 1 22 36.026v-.052A1.974 1.974 135 0 1 23.974 34h.052A1.974 1.974 45 0 1 26 35.974v.052A1.974 1.974 135 0 1 24.026 38m6.114-15.5-1.8 1.84c-1.06 1.074-1.826 2.007-2.158 3.62-.228 1.108-1.1 2.04-2.234 2.04-1.076 0-2.042-.93-1.858-2.046.281-1.7 1.073-3.228 2.25-4.614l2.48-2.52A3.9 3.9 0 0 0 28 18c0-2.2-1.8-4-4-4a4.01 4.01 0 0 0-3.52 2.106c-.514.949-1.364 1.894-2.454 1.894h-.052c-1.09 0-1.998-.9-1.734-1.954A8 8 0 0 1 24 10c4.42 0 8 3.58 8 8 0 1.76-.72 3.36-1.86 4.5" style="fill:#fff"/></svg>