<svg xmlns="http://www.w3.org/2000/svg" xmlns:xlink="http://www.w3.org/1999/xlink" width="48" height="48"><defs><radialGradient xlink:href="#a" id="b" cx="-34.963" cy="-10.956" r="27.999" fx="-34.963" fy="-10.956" gradientTransform="rotate(165 73.137 -27.192)scale(-3.64394 2.67536)" gradientUnits="userSpaceOnUse"/><linearGradient id="a"><stop offset="0" style="stop-color:#01a4f6;stop-opacity:1"/><stop offset="1" style="stop-color:#002c6f;stop-opacity:1"/></linearGradient></defs><path d="M60.011 8.006A19.96 19.96 0 0 0 40.006-12 19.96 19.96 0 0 0 20 8.006 19.96 19.96 0 0 0 40.006 28.01 19.96 19.96 0 0 0 60.01 8.006" style="fill:url(#b);stroke-width:.714513" transform="translate(-16.006 15.994)"/><path d="M17.503 13.503 24 20l6.497-6.497a2.83 2.83 0 0 1 4.006 0 2.83 2.83 90.077 0 1-.006 4L28 24l6.497 6.497a2.83 2.83 90 0 1 0 4.006 2.83 2.83.077 0 1-4-.006L24 28l-6.497 6.497a2.83 2.83 0 0 1-4.006 0 2.83 2.83 90.077 0 1 .006-4L20 24l-6.497-6.497a2.83 2.83 90 0 1 0-4.006 2.83 2.83.077 0 1 4 .006" style="fill:#fff" transform="rotate(45 24 24)"/></svg>