<svg xmlns="http://www.w3.org/2000/svg" xmlns:xlink="http://www.w3.org/1999/xlink" width="48" height="48"><defs><radialGradient xlink:href="#a" id="b" cx="21.177" cy="20.165" r="26.945" fx="21.177" fy="20.165" gradientTransform="matrix(0 .99106 -1.1443 0 36.015 -7.063)" gradientUnits="userSpaceOnUse"/><linearGradient id="a" x1="-.487" x2="70.614" y1="62.568" y2="-5.454" gradientTransform="translate(3.287 3.281)scale(.8983)" gradientUnits="userSpaceOnUse"><stop offset="0" style="stop-color:#00e1ff;stop-opacity:1"/><stop offset="1" style="stop-color:#3f99ff;stop-opacity:1"/></linearGradient></defs><path d="M11.232 14.537c.132 1.193.397 2.32.331 3.513 0 .597-.133 1.193-.398 1.724-.132.265-.331.463-.596.662-.265.2-.53.332-.796.332-.464.066-.928-.133-1.392-.332s-.861-.397-1.325-.464c-.464-.066-.928 0-1.392.265-.398.2-.796.53-.994.928-.53.796-.597 2.453-.53 3.38.066.73.33 1.393.795 1.923.265.265.53.464.861.663.332.132.663.199 1.061.132.464-.066.928-.331 1.392-.53.199-.132.464-.199.663-.265.265-.066.464-.066.729 0s.53.199.663.398c.199.199.331.397.464.663.198.464.265 1.06.265 1.59.132 2.917-.067 5.833-.53 8.683-.067.464.198.928.662 1.127a35 35 0 0 0 5.767 1.458c.729.133 1.524.265 2.254.067.397-.067.729-.266.994-.53.265-.266.464-.597.53-.995.066-.265 0-.398-.066-.663-.067-.265-.2-.53-.332-.795-.265-.464-.729-.994-.861-1.59-.067-.465 0-.995.198-1.46.2-.463.597-.86.995-1.126.861-.596 1.988-.729 3.049-.795.928 0 2.054.132 2.85.596q.597.398.994.995c.265.397.332.861.332 1.325-.067.332-.2.663-.332.994-.132.332-.331.53-.53.862-.133.331-.53.663-.53.994-.067.332 0 .53.198.862.133.199.332.398.53.53.2.133.465.2.664.332 1.524.53 3.314.596 4.904.331 1.459-.265 2.784-.795 3.977-1.657.265-.199.398-.53.398-.928l-.795-5.568c-.133-1.06-.332-1.988-.332-3.049 0-.53.2-1.126.398-1.59.133-.266.265-.464.53-.663a1.6 1.6 0 0 1 .73-.398q.397-.099.795 0c.265.066.53.133.729.199.464.199.994.398 1.458.464s.994 0 1.392-.199c.464-.199.795-.53 1.127-.928.596-.795.795-2.254.663-3.182a3.63 3.63 0 0 0-.928-2.12c-.266-.266-.597-.53-.995-.663-.331-.133-.795-.2-1.126-.2-.53.067-.995.266-1.525.465-.265.066-.464.199-.729.199q-.398.099-.795 0c-.398-.067-.73-.332-.995-.597s-.397-.663-.464-1.06a.92.92 0 0 1 0-.597c.464-2.85.862-5.501.995-8.418 0-.464-.266-.862-.663-.994a46 46 0 0 0-6.695-1.326c-.729-.066-1.524-.132-2.253.067a2.8 2.8 0 0 0-.928.596 1.46 1.46 0 0 0-.398.994c0 .265.133.53.265.73.133.265.332.463.464.662.332.398.53.464.73.994.198.53.198 1.127 0 1.658q-.3.795-.995 1.391a4.4 4.4 0 0 1-1.59.73c-.531.132-1.26.132-1.857.132-.928-.066-1.922-.265-2.717-.862-.398-.265-.663-.662-.862-1.06a2.25 2.25 0 0 1-.199-1.326c.066-.596.663-.861.928-1.392.133-.265.332-.53.464-.861.066-.332.133-.597.066-.928-.066-.332-.265-.597-.464-.862-.265-.199-.53-.398-.861-.53-.597-.199-1.989-.199-1.989-.199-2.916.133-6.23 1.06-6.23 1.06-.53.067-.862.53-.862 1.061Z" class="st1" style="fill:url(#b);stroke-width:.662824"/></svg>