<svg xmlns="http://www.w3.org/2000/svg" xmlns:xlink="http://www.w3.org/1999/xlink" width="48" height="48"><defs><radialGradient xlink:href="#a" id="b" cx="-34.963" cy="-10.956" r="27.999" fx="-34.963" fy="-10.956" gradientTransform="rotate(165 64.08 -20.249)scale(-3.64394 2.67536)" gradientUnits="userSpaceOnUse"/><linearGradient id="a"><stop offset="0" style="stop-color:#01a4f6;stop-opacity:1"/><stop offset="1" style="stop-color:#002c6f;stop-opacity:1"/></linearGradient></defs><path d="M44.006 24A19.96 19.96 0 0 0 24 3.994 19.96 19.96 0 0 0 3.994 24 19.96 19.96 0 0 0 24 44.006 19.96 19.96 0 0 0 44.006 24" style="fill:url(#b);stroke-width:.714513"/><path d="m18.033 14.967-.066.066a3.3 3.3 157.5 0 1-2.335.967H15c-2.442-.026-3 0-3 1.855V32c0 2 1.089 2 3.428 2h17.144c2.686.006 3.428 0 3.428-2V18c0-2-.725-2-3-2h-.632a3.3 3.3 22.5 0 1-2.335-.967l-.066-.066A3.3 3.3 22.5 0 0 27.632 14h-7.264a3.3 3.3 157.5 0 0-2.335.967M24 19a5 5 0 1 1 0 10 5 5 0 0 1 0-10" style="fill:#fff"/></svg>