<svg xmlns="http://www.w3.org/2000/svg" xmlns:xlink="http://www.w3.org/1999/xlink" width="48" height="48"><defs><radialGradient xlink:href="#a" id="b" cx="-34.963" cy="-10.956" r="27.999" fx="-34.963" fy="-10.956" gradientTransform="rotate(165 64.08 -20.249)scale(-3.64394 2.67536)" gradientUnits="userSpaceOnUse"/><linearGradient id="a"><stop offset="0" style="stop-color:#01a4f6;stop-opacity:1"/><stop offset="1" style="stop-color:#002c6f;stop-opacity:1"/></linearGradient></defs><path d="M44.006 24A19.96 19.96 0 0 0 24 3.994 19.96 19.96 0 0 0 3.994 24 19.96 19.96 0 0 0 24 44.006 19.96 19.96 0 0 0 44.006 24" style="fill:url(#b);stroke-width:.714513"/><path d="M17.005 11.873a13.93 13.93 0 0 0-6.853 14.132c.038.282.09.562.146.842q.016.087.034.173c.294 1.391.795 2.76 1.547 4.057 3.847 6.63 12.416 8.895 19.109 5.05A13.94 13.94 0 0 0 37.87 22.15v-.005a14 14 0 0 0-.196-1.128 13.7 13.7 0 0 0-1.562-4.095c-3.846-6.63-12.417-8.895-19.108-5.05zm.215 2.378 2.348 4.046a25.6 25.6 0 0 1-3.496 1.537 13 13 0 0 1-.097-1.297c-.028-1.91.427-3.375 1.245-4.286m1.773-.929c.1-.037.198-.08.298-.115 1.142-.13 2.518.226 4.017 1.117.352.208.705.454 1.06.717a25 25 0 0 1-3.069 2.257zm-4.951 3.95c-.043.425-.072.856-.066 1.302.009.594.066 1.21.153 1.835-.593.144-1.159.247-1.702.319a11.9 11.9 0 0 1 1.615-3.457m9.468-5.097a19 19 0 0 1 1.514-.15c.647.055 1.288.159 1.915.315-.327.431-.694.868-1.11 1.307a15 15 0 0 0-1.49-1.027 12 12 0 0 0-.829-.445m5.314.811a11.83 11.83 0 0 1 5.017 4.104l-3.263 1.875a22 22 0 0 0-3.242-4.011 17 17 0 0 0 1.515-1.839c-.005-.046-.017-.087-.027-.129m-16.778 9.792c.788-.07 1.618-.216 2.472-.419.4 1.56 1.02 3.17 1.861 4.764l-3.251 1.868a11.74 11.74 0 0 1-1.082-6.213M25.9 16.345a20.2 20.2 0 0 1 2.943 3.617l-4.5 2.585-2.048-3.532a27 27 0 0 0 3.605-2.67m-9.456 5.466a27 27 0 0 0 4.12-1.796l2.046 3.528-4.497 2.584a20 20 0 0 1-1.668-4.316m-2.32 8.898 3.25-1.868a22 22 0 0 0 3.311 4.08 18 18 0 0 0-1.569 1.875 11.84 11.84 0 0 1-4.993-4.087m4.985-2.865 4.497-2.584 2.117 3.649a27 27 0 0 0-3.596 2.627 20 20 0 0 1-3.018-3.692m6.23-3.58 4.5-2.584c.79 1.515 1.36 3.036 1.712 4.476a27 27 0 0 0-4.093 1.76zm6.234-3.581 3.263-1.875a11.74 11.74 0 0 1 1.052 6.421c-.007-.003-.01-.01-.017-.013-.765.068-1.567.204-2.393.396-.398-1.61-1.035-3.279-1.905-4.93zm-4.853 9.943 2.276 3.924c-1.202.249-2.702-.087-4.351-1.066-.321-.19-.644-.413-.968-.65a25.5 25.5 0 0 1 3.043-2.208m1.735-.992a25.4 25.4 0 0 1 3.447-1.5c.042.39.071.771.077 1.136.028 1.912-.431 3.373-1.25 4.284zM22.2 34.218c.467.355.938.687 1.414.97.374.222.753.412 1.133.585-1.227.083-2.45-.02-3.63-.304.325-.414.678-.832 1.083-1.251m11.646-6.651c.563-.134 1.1-.226 1.618-.295a11.9 11.9 0 0 1-1.544 3.24c.04-.419.064-.843.057-1.279-.008-.54-.058-1.1-.131-1.666" style="fill:#fff;fill-rule:evenodd"/></svg>