<svg xmlns="http://www.w3.org/2000/svg" xmlns:xlink="http://www.w3.org/1999/xlink" width="48" height="48"><defs><radialGradient xlink:href="#a" id="b" cx="-34.963" cy="-10.956" r="27.999" fx="-34.963" fy="-10.956" gradientTransform="rotate(165 83.531 -28.876)scale(-3.64394 2.67536)" gradientUnits="userSpaceOnUse"/><linearGradient id="a"><stop offset="0" style="stop-color:#f6b501;stop-opacity:1"/><stop offset="1" style="stop-color:#ff4549;stop-opacity:1"/></linearGradient></defs><path d="M80.011 2.006A19.96 19.96 0 0 0 60.006-18 19.96 19.96 0 0 0 40 2.006 19.96 19.96 0 0 0 60.006 22.01 19.96 19.96 0 0 0 80.01 2.006" style="fill:url(#b);stroke-width:.714513" transform="translate(7.99 36.993)scale(.50006)"/><path d="M21 12.994v12.012A2.994 2.994 45 0 0 23.994 28h.012A2.994 2.994 135 0 0 27 25.006V12.994A2.994 2.994 45 0 0 24.006 10h-.012A2.994 2.994 135 0 0 21 12.994m0 22v.012A2.994 2.994 45 0 0 23.994 38h.012A2.994 2.994 135 0 0 27 35.006v-.012A2.994 2.994 45 0 0 24.006 32h-.012A2.994 2.994 135 0 0 21 34.994" style="fill:#fff" transform="translate(25.995 25.995)scale(.50006)"/></svg>