<svg xmlns="http://www.w3.org/2000/svg" xmlns:xlink="http://www.w3.org/1999/xlink" width="48" height="48"><defs><radialGradient xlink:href="#a" id="b" cx="-34.963" cy="-10.956" r="27.999" fx="-34.963" fy="-10.956" gradientTransform="rotate(165 64.08 -20.249)scale(-3.64394 2.67536)" gradientUnits="userSpaceOnUse"/><linearGradient id="a"><stop offset="0" style="stop-color:#ff4a39;stop-opacity:1"/><stop offset="1" style="stop-color:#98002c;stop-opacity:1"/></linearGradient></defs><path d="M14 28h24v20H14z" style="fill:#455a64"/><circle cx="14" cy="38" r="10" style="fill:#455a64"/><path d="M19 30a3 3 0 0 0-3 3 3 3 0 0 0 .04.473l-4.884 2.441-.004-.004A3 3 0 0 0 9 35a3 3 0 0 0-3 3 3 3 0 0 0 3 3 3 3 0 0 0 2.152-.918l4.887 2.445A3 3 0 0 0 16 43a3 3 0 0 0 3 3 3 3 0 0 0 3-3 3 3 0 0 0-3-3 3 3 0 0 0-2.152.918l-4.887-2.445A3 3 0 0 0 12 38a3 3 0 0 0-.04-.477l4.884-2.441A3 3 0 0 0 19 36a3 3 0 0 0 3-3 3 3 0 0 0-3-3" style="fill:#fff"/><path d="M44.006 24A19.96 19.96 0 0 0 24 3.994 19.96 19.96 0 0 0 3.994 24 19.96 19.96 0 0 0 24 44.006 19.96 19.96 0 0 0 44.006 24" style="fill:url(#b);stroke-width:.714513" transform="translate(26.04 26.04)scale(.49904)"/><path d="M17.503 13.503 24 20l6.497-6.497a2.83 2.83 0 0 1 4.006 0 2.83 2.83 90.077 0 1-.006 4L28 24l6.497 6.497a2.83 2.83 90 0 1 0 4.006 2.83 2.83.077 0 1-4-.006L24 28l-6.497 6.497a2.83 2.83 0 0 1-4.006 0 2.83 2.83 90.077 0 1 .006-4L20 24l-6.497-6.497a2.83 2.83 90 0 1 0-4.006 2.83 2.83.077 0 1 4 .006" style="fill:#fff" transform="translate(26.04 26.04)scale(.49904)"/></svg>