<svg xmlns="http://www.w3.org/2000/svg" xmlns:xlink="http://www.w3.org/1999/xlink" width="48" height="48"><defs><radialGradient xlink:href="#a" id="b" cx="-34.963" cy="-10.956" r="27.999" fx="-34.963" fy="-10.956" gradientTransform="rotate(165 66.137 -28.114)scale(-3.64394 2.67536)" gradientUnits="userSpaceOnUse"/><linearGradient id="a"><stop offset="0" style="stop-color:#01f67a;stop-opacity:1"/><stop offset="1" style="stop-color:#006955;stop-opacity:1"/></linearGradient></defs><path d="M14 28h24v20H14z" style="fill:#455a64"/><circle cx="14" cy="38" r="10" style="fill:#455a64"/><path d="M19 30a3 3 0 0 0-3 3 3 3 0 0 0 .04.473l-4.884 2.441-.004-.004A3 3 0 0 0 9 35a3 3 0 0 0-3 3 3 3 0 0 0 3 3 3 3 0 0 0 2.152-.918l4.887 2.445A3 3 0 0 0 16 43a3 3 0 0 0 3 3 3 3 0 0 0 3-3 3 3 0 0 0-3-3 3 3 0 0 0-2.152.918l-4.887-2.445A3 3 0 0 0 12 38a3 3 0 0 0-.04-.477l4.884-2.441A3 3 0 0 0 19 36a3 3 0 0 0 3-3 3 3 0 0 0-3-3" style="fill:#fff"/><path d="M46.011 8.006A19.96 19.96 0 0 0 26.006-12 19.96 19.96 0 0 0 6 8.006 19.96 19.96 0 0 0 26.006 28.01 19.96 19.96 0 0 0 46.01 8.006" style="fill:url(#b);stroke-width:.714513" transform="translate(24.992 33.993)scale(.50006)"/><path d="M32.977 16.023 22.861 26.139a1.217 1.217 0 0 1-1.722 0l-5.116-5.116a2.86 2.86 0 0 0-4.046 0 2.83 2.83 89.341 0 0 .046 4l6.032 6.032a5.58 5.58 180 0 0 7.89 0l11.032-11.032a2.86 2.86 90 0 0 0-4.046 2.83 2.83 179.341 0 0-4 .046" style="fill:#fff" transform="translate(25.995 25.995)scale(.50006)"/></svg>