<svg xmlns="http://www.w3.org/2000/svg" xmlns:xlink="http://www.w3.org/1999/xlink" width="48" height="48"><defs><radialGradient xlink:href="#a" id="b" cx="-34.963" cy="-10.956" r="27.999" fx="-34.963" fy="-10.956" gradientTransform="rotate(165 64.015 -19.746)scale(-3.64394 2.67536)" gradientUnits="userSpaceOnUse"/><linearGradient id="a"><stop offset="0" style="stop-color:#01d9f6;stop-opacity:1"/><stop offset="1" style="stop-color:#07f;stop-opacity:1"/></linearGradient></defs><path d="M14 28h24v20H14z" style="fill:#455a64"/><circle cx="14" cy="38" r="10" style="fill:#455a64"/><path d="M19 30a3 3 0 0 0-3 3 3 3 0 0 0 .04.473l-4.884 2.441-.004-.004A3 3 0 0 0 9 35a3 3 0 0 0-3 3 3 3 0 0 0 3 3 3 3 0 0 0 2.152-.918l4.887 2.445A3 3 0 0 0 16 43a3 3 0 0 0 3 3 3 3 0 0 0 3-3 3 3 0 0 0-3-3 3 3 0 0 0-2.152.918l-4.887-2.445A3 3 0 0 0 12 38a3 3 0 0 0-.04-.477l4.884-2.441A3 3 0 0 0 19 36a3 3 0 0 0 3-3 3 3 0 0 0-3-3" style="fill:#fff"/><path d="M44.006 25.006A19.96 19.96 0 0 0 24 5 19.96 19.96 0 0 0 3.994 25.006 19.96 19.96 0 0 0 24 45.01a19.96 19.96 0 0 0 20.006-20.005" style="fill:url(#b);stroke-width:.714513" transform="translate(25.995 25.492)scale(.50006)"/><path d="M23.669 15.771a.49.49 0 0 0-.515.49v1.042a6.367 6.367 0 0 0-4.256 11.102c.534.48 1.329.254 1.63-.397.27-.583-.031-1.372-.47-1.937a3.918 3.918 0 0 1 3.096-6.32v1.042a.449.449 0 0 0 .724.354l2.959-2.302a.66.66 0 0 0-.039-1.072l-2.88-1.92a.5.5 0 0 0-.25-.082m4.762 3.567c-.39.006-.77.247-.96.654-.27.583.032 1.372.471 1.937a3.918 3.918 0 0 1-3.096 6.32v-1.042a.449.449 0 0 0-.724-.354l-2.959 2.302a.66.66 0 0 0 .039 1.072l2.88 1.92a.5.5 0 0 0 .25.082.49.49 0 0 0 .514-.49v-1.042a6.367 6.367 0 0 0 4.256-11.102.97.97 0 0 0-.671-.257" style="fill:#fff;stroke-width:.489732" transform="translate(13.996 13.996)"/></svg>