<svg xmlns="http://www.w3.org/2000/svg" xmlns:xlink="http://www.w3.org/1999/xlink" width="48" height="48"><defs><radialGradient xlink:href="#a" id="b" cx="-34.963" cy="-10.956" r="27.999" fx="-34.963" fy="-10.956" gradientTransform="rotate(165 64.08 -20.249)scale(-3.64394 2.67536)" gradientUnits="userSpaceOnUse"/><linearGradient id="a"><stop offset="0" style="stop-color:#01d9f6;stop-opacity:1"/><stop offset="1" style="stop-color:#07f;stop-opacity:1"/></linearGradient></defs><path d="M44.006 24A19.96 19.96 0 0 0 24 3.994 19.96 19.96 0 0 0 3.994 24 19.96 19.96 0 0 0 24 44.006 19.96 19.96 0 0 0 44.006 24" style="fill:url(#b);stroke-width:.714513"/><path d="M24 11c-7.18 0-13 5.82-13 13s5.82 13 13 13c6.186 0 11.363-4.32 12.677-10.11.356-1.566-.982-2.89-2.592-2.89-1.151 0-2.037 1.355-2.608 2.851A8 8 0 1 1 24 16zm1.56-2.96 5.88 3.92a1.35 1.35 87.908 0 1 .08 2.19l-6.04 4.7a.916.916 26.063 0 1-1.48-.724V8.874a1.003 1.003 151.845 0 1 1.56-.835" style="fill:#fff"/></svg>