<svg xmlns="http://www.w3.org/2000/svg" xmlns:xlink="http://www.w3.org/1999/xlink" width="48" height="48"><defs><radialGradient xlink:href="#a" id="b" cx="-34.963" cy="-10.956" r="27.999" fx="-34.963" fy="-10.956" gradientTransform="rotate(165 64.08 -20.249)scale(-3.64394 2.67536)" gradientUnits="userSpaceOnUse"/><linearGradient id="a"><stop offset="0" style="stop-color:#01f67a;stop-opacity:1"/><stop offset="1" style="stop-color:#006955;stop-opacity:1"/></linearGradient></defs><path d="M44.006 24A19.96 19.96 0 0 0 24 3.994 19.96 19.96 0 0 0 3.994 24 19.96 19.96 0 0 0 24 44.006 19.96 19.96 0 0 0 44.006 24" style="fill:url(#b);stroke-width:.714513"/><path d="M21 12.994V21h-8.006A2.994 2.994 135 0 0 10 23.994v.012A2.994 2.994 45 0 0 12.994 27H21v8.006A2.994 2.994 45 0 0 23.994 38h.012A2.994 2.994 135 0 0 27 35.006V27h8.006A2.994 2.994 135 0 0 38 24.006v-.012A2.994 2.994 45 0 0 35.006 21H27v-8.006A2.994 2.994 45 0 0 24.006 10h-.012A2.994 2.994 135 0 0 21 12.994" style="fill:#fff"/></svg>