<svg xmlns="http://www.w3.org/2000/svg" width="22" height="22"><defs><style id="current-color-scheme" type="text/css">.ColorScheme-Text{color:#dfdfdf}</style></defs><path d="M6.5 3C5.669 3 5 3.669 5 4.5V5h12v-.5c0-.831-.669-1.5-1.5-1.5zM5 7v2h12V7zm0 4v2h12v-2zm0 4v2h9.25l1.998-2z" class="ColorScheme-Text" style="fill:currentColor"/><path d="M5 5v2h12V5Zm0 4v2h12V9Zm0 4v2h11.248l.752-.752V13Zm0 4v.5c0 .831.669 1.5 1.5 1.5H13v-.75L14.25 17Z" class="ColorScheme-Text" style="opacity:.35;fill:currentColor"/><path d="M15 3v13.248l2-2V4.5c0-.831-.669-1.5-1.5-1.5Z" class="ColorScheme-Text" style="opacity:.35;fill:currentColor"/><path d="M18.806 14a.36.36 0 0 0-.254.105l-.697.704 1.336 1.336.703-.698a.354.354 0 0 0 0-.505l-.836-.837a.36.36 0 0 0-.252-.105m-1.481 1.339L14 18.664V20h1.336l3.325-3.325Z" class="ColorScheme-Text" style="fill:currentColor"/></svg>