<svg xmlns="http://www.w3.org/2000/svg" width="22" height="22"><defs><style id="current-color-scheme" type="text/css">.ColorScheme-Text{color:#dfdfdf}</style></defs><path d="M6.5 3C5.669 3 5 3.669 5 4.5V5h12v-.5c0-.831-.669-1.5-1.5-1.5zM5 7v2h12V7zm0 4v2h12v-2zm0 4v2h9.172l-.879-.879a1 1 0 0 1-.293-.707V15z" class="ColorScheme-Text" style="fill:currentColor"/><path d="M5 5v2h12V5zm0 4v2h12V9zm0 4v2h8v-1a1 1 0 0 1 1-1zm10.414 0a1 1 0 0 1 .707.293l.879.879V13zM5 17v.5c0 .831.669 1.5 1.5 1.5H13v-.414a1 1 0 0 1 .293-.707l.879-.879z" class="ColorScheme-Text" style="opacity:.35;fill:currentColor"/><path d="M15 3v10h.414a1 1 0 0 1 .707.293l.879.879V4.5c0-.831-.669-1.5-1.5-1.5z" class="ColorScheme-Text" style="opacity:.35;fill:currentColor"/><path d="M14 14v1.414L15.586 17 14 18.586V20h1.414L17 18.414 18.586 20H20v-1.414L18.414 17 20 15.414V14h-1.414L17 15.586 15.414 14Z" class="ColorScheme-Text" style="fill:currentColor"/><path d="M12 14v1.414L13.586 17 12 18.586V20h1.414L15 18.414 16.586 20H18v-1.414L16.414 17 18 15.414V14h-1.414L15 15.586 13.414 14z" style="fill:none"/></svg>