<svg xmlns="http://www.w3.org/2000/svg" width="22" height="22"><defs><style id="current-color-scheme" type="text/css">.ColorScheme-Text{color:#dfdfdf}</style></defs><path d="M6.5 3C5.669 3 5 3.669 5 4.5V5h12v-.5c0-.831-.669-1.5-1.5-1.5zM5 7v2h12V7zm0 4v2h12v-2zm0 4v2h8a4 4 0 0 1 .541-2z" class="ColorScheme-Text" style="fill:currentColor"/><path d="M5 5v2h12V5zm0 4v2h12V9zm0 4v2h8.541A4 4 0 0 1 17 13zm0 4v.5c0 .831.669 1.5 1.5 1.5h7.041A4 4 0 0 1 13 17z" class="ColorScheme-Text" style="opacity:.35;fill:currentColor"/><path d="M15 3v10.541A4 4 0 0 1 17 13V4.5c0-.831-.669-1.5-1.5-1.5z" class="ColorScheme-Text" style="opacity:.35;fill:currentColor"/><path d="M17 14a3 3 0 0 0-3 3 3 3 0 0 0 3 3 3 3 0 0 0 3-3 3 3 0 0 0-3-3m0 1a2 2 0 0 1 2 2 2 2 0 0 1-2 2 2 2 0 0 1-2-2 2 2 0 0 1 2-2" class="ColorScheme-Text" style="fill:currentColor"/></svg>