<svg xmlns="http://www.w3.org/2000/svg" width="22" height="22"><defs><style id="current-color-scheme" type="text/css">.ColorScheme-Text{color:#dfdfdf}</style></defs><path d="M6.5 3C5.669 3 5 3.669 5 4.5V5h12v-.5c0-.831-.669-1.5-1.5-1.5zM5 7v2h12V7zm0 4v2h12v-2zm0 4v2h8v-1a1 1 0 0 1 1-1z" class="ColorScheme-Text" style="fill:currentColor"/><path d="M5 5v2h12V5zm0 4v2h12V9zm0 4v2h10v-1a1 1 0 0 1 1-1zm0 4v.5c0 .831.669 1.5 1.5 1.5H14a1 1 0 0 1-1-1v-1z" class="ColorScheme-Text" style="opacity:.35;fill:currentColor"/><path d="M15 3v11a1 1 0 0 1 1-1h1V4.5c0-.831-.669-1.5-1.5-1.5z" class="ColorScheme-Text" style="opacity:.35;fill:currentColor"/><path d="M16 14v2h-2v2h2v2h2v-2h2v-2h-2v-2z" class="ColorScheme-Text" style="fill:currentColor"/></svg>