<svg xmlns="http://www.w3.org/2000/svg" width="16" height="16"><path d="M8 15a9.82 9.82 0 0 1-7.197-3.135l-.496-.537c-.399-.423-.41-1.131-.032-1.576l.016-.018L3.156 6.54c.571-.693 1.306-.52 2.082-.52q.115 0 .235.034.05.06.103.119C6.246 6.924 7.123 7 8 7s1.754-.076 2.424-.828q.053-.059.103-.12a1 1 0 0 1 .235-.032c.776 0 1.51-.174 2.082.52l2.865 3.194.016.018c.379.445.367 1.153-.032 1.576l-.496.537A9.82 9.82 0 0 1 8 15m0-2a7.8 7.8 0 0 0 5.719-2.488l-2.244-2.506-.387.008C10.003 8.734 8.79 9 8 9s-2.003-.267-3.088-.986l-.387-.008-2.244 2.506A7.8 7.8 0 0 0 8 13m0-7a2 2 0 1 1-.001-4A2 2 0 0 1 8 6" style="color:#dfdfdf;fill:currentColor;opacity:.35"/></svg>