<svg xmlns="http://www.w3.org/2000/svg" viewBox="0 0 22 22"><path fill="currentColor" d="M11 3a.5.5 0 1 0 0 1 .5.5 0 0 0 0-1M7.236 4.006a.499.499 0 1 0 .264.932.5.5 0 0 0-.264-.932m7.479 0a.499.499 0 0 0-.215.931.5.5 0 1 0 .215-.931M11 5.5a1 1 0 1 0 0 2 1 1 0 0 0 0-2M4.518 6.75a.5.5 0 1 0-.025 1.002.5.5 0 0 0 .025-1.002m12.964 0a.5.5 0 1 0 .028 1 .5.5 0 0 0-.028-1m-9.712.068a1 1 0 1 0 .097 2 1 1 0 0 0-.097-2m6.365 0a1 1 0 1 0 .096 1.999 1 1 0 0 0-.096-1.999M11 9.5A1.5 1.5 0 0 0 9.5 11a1.5 1.5 0 0 0 1.5 1.5 1.5 1.5 0 0 0 1.5-1.5A1.5 1.5 0 0 0 11 9.5m-4.5.5a1 1 0 1 0 0 2 1 1 0 0 0 0-2m9 0a1 1 0 1 0 0 2 1 1 0 0 0 0-2m-12 .5a.5.5 0 1 0 0 1 .5.5 0 0 0 0-1m15 0a.5.5 0 1 0 0 1 .5.5 0 0 0 0-1M7.818 13.182a1 1 0 1 0 0 2 1 1 0 0 0 0-2m6.364 0a1 1 0 1 0 0 2 1 1 0 0 0 0-2m-9.69 1.068a.5.5 0 1 0 .026.998.5.5 0 0 0-.026-.998m13.016 0a.5.5 0 1 0-.022 1 .5.5 0 0 0 .022-1M11 14.5a1 1 0 1 0 0 2 1 1 0 0 0 0-2m-3.785 2.496a.501.501 0 1 0 .072 1 .501.501 0 0 0-.072-1m7.521 0a.5.5 0 1 0 .028 1 .5.5 0 0 0-.028-1M11 18a.5.5 0 1 0 0 1 .5.5 0 0 0 0-1" style="color:#fcfcfc"/></svg>