<svg xmlns="http://www.w3.org/2000/svg" width="16" height="16"><defs><style id="current-color-scheme" type="text/css">.ColorScheme-Text{color:#dfdfdf}</style></defs><path d="M10 11a5 5 0 0 1-5 5 5 5 0 0 1-5-5 5 5 0 0 1 5-5 5 5 0 0 1 5 5" class="ColorScheme-Text" style="fill:currentColor;opacity:.35"/><path d="M5 6a5 5 0 0 0-5 5 5 5 0 0 0 5 5 5 5 0 0 0 5-5 5 5 0 0 0-5-5m0 1a4 4 0 0 1 4 4 4 4 0 0 1-4 4 4 4 0 0 1-4-4 4 4 0 0 1 4-4" class="ColorScheme-Text" style="opacity:.7;fill:currentColor"/><path d="M4 0v12h12v-2H6V0Z" class="ColorScheme-Text" style="fill:currentColor"/></svg>