<svg xmlns="http://www.w3.org/2000/svg" width="22" height="22"><defs><style id="current-color-scheme" type="text/css">.ColorScheme-Text{color:#dfdfdf}</style></defs><rect width="7" height="2" x="3" y="17" class="ColorScheme-Text" rx=".538" ry=".5" style="fill:currentColor"/><rect width="7" height="2" x="3" y="15" class="ColorScheme-Text" rx=".538" ry=".5" style="fill:currentColor;opacity:.35"/><rect width="7" height="2" x="3" y="13" class="ColorScheme-Text" rx=".538" ry=".5" style="fill:currentColor"/><rect width="7" height="2" x="3" y="11" class="ColorScheme-Text" rx=".538" ry=".5" style="fill:currentColor;opacity:.35"/><rect width="7" height="2" x="3" y="9" class="ColorScheme-Text" rx=".538" ry=".5" style="fill:currentColor"/><rect width="7" height="2" x="3" y="7" class="ColorScheme-Text" rx=".538" ry=".5" style="fill:currentColor;opacity:.35"/><rect width="7" height="2" x="3" y="5" class="ColorScheme-Text" rx=".538" ry=".5" style="fill:currentColor"/><rect width="7" height="2" x="3" y="3" class="ColorScheme-Text" rx=".538" ry=".5" style="fill:currentColor;opacity:.35"/><rect width="7" height="2" x="12" y="17" class="ColorScheme-Text" rx=".538" ry=".5" style="fill:currentColor;opacity:.35"/><rect width="7" height="2" x="12" y="15" class="ColorScheme-Text" rx=".538" ry=".5" style="fill:currentColor"/><rect width="7" height="2" x="12" y="13" class="ColorScheme-Text" rx=".538" ry=".5" style="fill:currentColor;opacity:.35"/><rect width="7" height="2" x="12" y="11" class="ColorScheme-Text" rx=".538" ry=".5" style="fill:currentColor"/><path d="M15 2v1h-2v1h6V3h-2V2Zm-1 3v4h4V5Z" class="ColorScheme-Text" style="fill:currentColor"/></svg>