<svg xmlns="http://www.w3.org/2000/svg" width="16" height="16"><defs><style id="current-color-scheme" type="text/css">.ColorScheme-Text{color:#fcfcfc}</style></defs><path d="M7.5 6C6.669 6 6 6.669 6 7.5v4c0 .831.669 1.5 1.5 1.5h4c.831 0 1.5-.669 1.5-1.5v-.705l2.354 1.143c.287.177.646-.046.646-.4V7.46c0-.26-.2-.468-.443-.461a.4.4 0 0 0-.203.063L13 8.205V7.5c0-.831-.669-1.5-1.5-1.5z" class="ColorScheme-Text" style="fill:currentColor"/><path d="M4.5 2C3.669 2 3 2.669 3 3.5v.705L.646 3.063A.4.4 0 0 0 .443 3C.201 2.993 0 3.202 0 3.46v4.077c0 .355.36.578.646.4L3 6.796V7.5C3 8.331 3.669 9 4.5 9H5V7.5C5 6.132 6.132 5 7.5 5H10V3.5C10 2.669 9.331 2 8.5 2z" class="ColorScheme-Text" style="opacity:.35;fill:currentColor"/></svg>