<svg xmlns="http://www.w3.org/2000/svg" xmlns:xlink="http://www.w3.org/1999/xlink" width="22" height="22"><defs><linearGradient id="a"><stop offset="0" style="stop-color:#1d99f3;stop-opacity:1"/><stop offset=".417" style="stop-color:#48acf5;stop-opacity:.76119405"/><stop offset=".667" style="stop-color:#73c0f7;stop-opacity:0"/><stop offset="1" style="stop-color:#cae7fc;stop-opacity:0"/></linearGradient><linearGradient xlink:href="#a" id="b" x1="3" x2="19" y1="1049.362" y2="1033.362" gradientTransform="matrix(.75 0 0 .75 3.75 -767.022)" gradientUnits="userSpaceOnUse"/></defs><path d="M11 4c-.973 3.405-3.356 6.344-4.406 8.688A4.9 4.9 0 0 0 6 15c0 2.77 2.23 5 5 5s5-2.23 5-5a4.9 4.9 0 0 0-.594-2.312C14.356 10.344 11.973 7.405 11 4" style="fill:#b3b3b3;fill-opacity:1;stroke:none" transform="translate(0 -1)"/><path d="M11 4c-.3 1.048-.732 2.044-1.219 3H11zm0 3v4h3.5c-.705-1.214-1.545-2.554-2.281-4zm0 4H7.5c-.167.288-.354.57-.5.844V15h4zm0 4v4h3a5 5 0 0 0 1-1v-3z" style="fill:#777;fill-opacity:1;stroke:none" transform="translate(0 -1)"/><path d="M11 4c-.973 3.405-3.356 6.344-4.406 8.688A4.9 4.9 0 0 0 6 15c0 2.77 2.23 5 5 5s5-2.23 5-5a4.9 4.9 0 0 0-.594-2.312C14.356 10.344 11.973 7.405 11 4" style="fill:url(#b);fill-opacity:1;stroke:none" transform="translate(0 -1)"/><path d="M11 4c-.973 3.405-3.356 6.344-4.406 8.688A4.9 4.9 0 0 0 6 15c0 2.77 2.23 5 5 5s5-2.23 5-5a4.9 4.9 0 0 0-.594-2.312C14.356 10.344 11.973 7.405 11 4m0 2c.778 2.767 2.691 5.158 3.531 7.063.156.3.261.6.344.937.034.14.075.292.094.438.003.02-.003.042 0 .062.017.145.031.287.031.438V15a4 4 0 0 1-.094.75c-.003.02.004.043 0 .063a4 4 0 0 1-.219.718c-.003.01.004.022 0 .032a4 4 0 0 1-.374.656c-.006.007.004.024 0 .031-.14.208-.294.385-.47.563a4 4 0 0 1-.593.5A3.98 3.98 0 0 1 11 19a4 4 0 0 1-1.344-.25q-.046-.016-.094-.031c-.04-.016-.085-.015-.124-.032-.065-.027-.126-.063-.188-.093-.11-.054-.21-.125-.312-.188-.072-.043-.15-.077-.22-.125-.018-.013-.043-.017-.062-.031a4 4 0 0 1-.5-.437 4 4 0 0 1-.406-.5c-.012-.009-.02-.024-.031-.032A4.13 4.13 0 0 1 7 14.938c0-.687.175-1.31.469-1.876C8.309 11.159 10.222 8.768 11 6" style="color:#fcfcfc;fill:currentColor;fill-opacity:1;stroke:none" transform="translate(0 -1)"/></svg>