<svg xmlns="http://www.w3.org/2000/svg" width="22" height="22" fill="none" viewBox="0 0 22 22"><style id="current-color-scheme" type="text/css">.ColorScheme-Text{color:#fcfcfc}</style><path fill="currentColor" fill-rule="evenodd" d="M3.996 13.366c-.52.268-1.186.384-1.996.384v-1.5c.69 0 1.087-.103 1.309-.217a.6.6 0 0 0 .323-.364c.061-.183.079-.444.047-.82-.023-.266-.064-.534-.11-.833l-.061-.41c-.12-.843-.252-2.017.413-2.948C4.61 5.69 5.943 5.25 8 5.25v1.5c-1.943 0-2.612.434-2.858.78-.273.38-.28.957-.15 1.864l.052.343c.049.32.102.665.129.984.038.444.04.949-.118 1.422-.169.508-.508.939-1.059 1.223" class="ColorScheme-Text" clip-rule="evenodd"/><path fill="currentColor" fill-rule="evenodd" d="M3.996 12.634c-.52-.268-1.186-.384-1.996-.384v1.5c.69 0 1.087.103 1.309.217a.6.6 0 0 1 .323.364c.061.183.079.444.047.82-.023.266-.064.534-.11.833l-.061.41c-.12.843-.252 2.017.413 2.948.69.967 2.022 1.408 4.079 1.408v-1.5c-1.943 0-2.612-.434-2.858-.78-.273-.38-.28-.957-.15-1.864l.052-.343c.049-.32.102-.665.129-.984.038-.444.04-.949-.118-1.422a2.09 2.09 0 0 0-1.059-1.223M18.004 13.366c.52.268 1.186.384 1.996.384v-1.5c-.69 0-1.087-.103-1.308-.217a.6.6 0 0 1-.324-.364c-.061-.183-.079-.444-.046-.82.022-.266.063-.534.11-.833q.03-.195.06-.41c.12-.843.252-2.017-.413-2.948C17.39 5.69 16.057 5.25 14 5.25v1.5c1.943 0 2.612.434 2.858.78.273.38.28.957.15 1.864l-.052.343c-.049.32-.102.665-.129.984-.038.444-.04.949.118 1.422.169.508.508.939 1.059 1.223" class="ColorScheme-Text" clip-rule="evenodd"/><path fill="currentColor" fill-rule="evenodd" d="M18.004 12.634c.52-.268 1.186-.384 1.996-.384v1.5c-.69 0-1.087.103-1.308.217a.6.6 0 0 0-.324.364c-.061.183-.079.444-.046.82.022.266.063.534.11.833q.03.195.06.41c.12.843.252 2.017-.413 2.948-.69.967-2.022 1.408-4.079 1.408v-1.5c1.943 0 2.612-.434 2.858-.78.273-.38.28-.957.15-1.864l-.052-.343c-.049-.32-.102-.665-.129-.984-.038-.444-.04-.949.118-1.422.169-.508.508-.939 1.059-1.223" class="ColorScheme-Text" clip-rule="evenodd"/><path fill="#3daee9" d="M11.5 12 10 10h3z"/><path fill="#3daee9" fill-rule="evenodd" d="M4.845 2.13c-.866.314-1.693.85-2.347 1.43l-.996-1.12C2.27 1.756 3.258 1.11 4.333.72S6.623.177 7.796.567c2.307.766 3.948 3.41 4.355 8.683H14.5l-3 4-3-4h2.147c-.408-5.04-1.942-6.8-3.324-7.26-.757-.252-1.61-.175-2.478.14" clip-rule="evenodd"/></svg>