<svg xmlns="http://www.w3.org/2000/svg" viewBox="0 0 22 22"><path d="M11 3c-4.432 0-8 3.568-8 8s3.568 8 8 8a7.96 7.96 0 0 0 5-1.752V16h-.094A6.98 6.98 0 0 1 11 18c-3.878 0-7-3.122-7-7s3.122-7 7-7 7 3.122 7 7c0 .696-.105 1.366-.293 2h1.033A7.982 7.982 0 0 0 11 3m-1 2v7h6v-1h-5V5z" style="color:#fcfcfc;fill:currentColor;fill-opacity:1;stroke:none"/><path d="M13.656 14v1H16.5a1.5 1.5 0 0 1 1.5 1.5 1.5 1.5 0 0 1-1.5 1.5v1a2.5 2.5 0 0 0 2.5-2.5 2.5 2.5 0 0 0-2.5-2.5z" style="color:#3daee9;fill:currentColor;fill-opacity:1;stroke:none"/></svg>