<svg xmlns="http://www.w3.org/2000/svg" viewBox="0 0 22 22"><path fill="#da4453" d="M16 12a2 2 0 0 0-2 2 2 2 0 0 0 .68 1.5A2 2 0 0 0 14 17a2 2 0 0 0 2 2 2 2 0 0 0 2-2 2 2 0 0 0-.68-1.5A2 2 0 0 0 18 14a2 2 0 0 0-2-2m0 1a1 1 0 0 1 1 1 1 1 0 0 1-1 1 1 1 0 0 1-1-1 1 1 0 0 1 1-1m0 3a1 1 0 0 1 1 1 1 1 0 0 1-1 1 1 1 0 0 1-1-1 1 1 0 0 1 1-1"/><path fill="#1d99f3" d="M3 3v1h1v6h1V3H3m5 0a2 2 0 0 0-2 2v3a2 2 0 0 0 2 2 2 2 0 0 0 2-2 2 2 0 0 0-2-2 2 2 0 0 0-1 .27V5a1 1 0 0 1 1-1 1 1 0 0 1 1 1h1a2 2 0 0 0-2-2m0 4a1 1 0 0 1 1 1 1 1 0 0 1-1 1 1 1 0 0 1-1-1 1 1 0 0 1 1-1"/><path d="M11 3v1a7 7 0 0 1 6.309 4H14v1h5V4h-1v3.17A8 8 0 0 0 11 3M3 13v5h1v-3.17A8 8 0 0 0 11 19v-1a7 7 0 0 1-6.309-4H8v-1z" style="color:#fcfcfc;fill:currentColor;fill-opacity:1;stroke:none"/></svg>