<svg xmlns="http://www.w3.org/2000/svg" width="16" height="16"><defs><style id="current-color-scheme" type="text/css">.ColorScheme-Text{color:#dfdfdf}</style></defs><path d="M8 9c-1 0-1 1-1 1H2.5s-.5 0-.5.5.5.5.5.5H7s0 1 1 1 1-1 1-1h4.5s.5 0 .5-.5-.5-.5-.5-.5H9s0-1-1-1m0-7s1 0 1 1v1H7V3c0-1 1-1 1-1M0 0v16h16V0Zm1 1h14v14H1Z" class="ColorScheme-Text" style="fill:currentColor"/><path d="M8 3a2 2 0 0 0-2 2 2 2 0 0 0 2 2 2 2 0 0 0 2-2 2 2 0 0 0-2-2m0 1a1 1 0 0 1 1 1 1 1 0 0 1-1 1 1 1 0 0 1-1-1 1 1 0 0 1 1-1M6 5 5 6 4 9v4l1 1v-3l1-4 .586-.586A2 2 0 0 1 6 5m4 0a2 2 0 0 1-.586 1.414L10 7l1 4v3l1-1V9l-1-3Z" class="ColorScheme-Text" style="fill:currentColor"/></svg>