<svg xmlns="http://www.w3.org/2000/svg" width="16" height="16"><path d="M4.8 0A4.79 4.79 0 0 0 0 4.8v6.4A4.79 4.79 0 0 0 4.8 16h6.4a4.79 4.79 0 0 0 4.8-4.8V4.8A4.79 4.79 0 0 0 11.2 0zm3.7 2A1.5 1.5 0 0 1 10 3.5 1.5 1.5 0 0 1 8.5 5 1.5 1.5 0 0 1 7 3.5 1.5 1.5 0 0 1 8.5 2M7.031 6c.191 0 .38.011.502.033.646.114 1.082.401 1.326.875.132.256.172.572.131 1.02-.024.27-.08.497-.459 1.857-.572 2.053-.58 2.192-.562 2.549.03.62.406.67.818.67.69 0 1.21-.203 1.213-.207.006-.007-.157.518-.178.564l-.002.004c-.05.066-.484.265-.814.371-.43.139-.786.21-1.281.25-1.053.088-1.707-.235-2.055-.884-.112-.208-.15-.364-.162-.637-.018-.429-.009-.478.46-2.29.522-2.009.579-2.342.579-2.495-.022-.545-.292-.7-.797-.678-.798 0-1.183.19-1.242.203H4.5v-.002l.166-.582a6.5 6.5 0 0 1 1.844-.59C6.646 6.01 6.84 6 7.03 6" style="color:#dfdfdf;fill:currentColor"/></svg>