<svg xmlns="http://www.w3.org/2000/svg" width="16" height="16"><defs><style id="current-color-scheme" type="text/css">.ColorScheme-Text{color:#dfdfdf}</style></defs><path d="M1.5 10h13a.499.499 0 1 1 0 1h-13a.499.499 0 1 1 0-1M8 9c.554 0 1 .446 1 1v1c0 .554-.446 1-1 1s-1-.446-1-1v-1c0-.554.446-1 1-1m0-9c.554 0 1 .446 1 1s-.446 1-1 1-1-.446-1-1 .446-1 1-1" class="ColorScheme-Text" style="fill:currentColor"/><path d="M8 1a3 3 0 0 0-3 3 3 3 0 0 0 3 3 3 3 0 0 0 3-3 3 3 0 0 0-3-3m0 2a1 1 0 0 1 1 1 1 1 0 0 1-1 1 1 1 0 0 1-1-1 1 1 0 0 1 1-1M5.242 5.172 4 6l-1 5v4l1 1v-2l1-2 .273-5 .83-.678a3 3 0 0 1-.86-1.15m5.52.002a3 3 0 0 1-.866 1.148l.831.678.273 5 1 2v2l1-1v-4l-1-5Z" class="ColorScheme-Text" style="fill:currentColor"/></svg>