<svg xmlns="http://www.w3.org/2000/svg" viewBox="0 0 22 22"><defs><style id="current-color-scheme" type="text/css">.ColorScheme-Text{color:#fcfcfc}</style></defs><path fill="currentColor" d="M11 3 3.082 9.076 6 19h10l2.918-9.994Zm0 1.32 6.598 5.005L15 18H7L4.4 9.382Z" class="ColorScheme-Text"/><path fill="currentColor" fill-opacity=".502" d="M6.501 18.217c-.08-.134-2.756-8.64-2.756-8.759 0-.063 1.62-1.344 3.599-2.846 3.131-2.377 3.622-2.717 3.782-2.618.101.063 1.748 1.288 3.66 2.723l3.476 2.608-.189.617-1.367 4.457-1.18 3.842-4.49.025c-2.47.014-4.51-.008-4.535-.049" class="ColorScheme-Text"/></svg>