<svg xmlns="http://www.w3.org/2000/svg" width="16" height="16"><path d="M0 7.739A.75.75 0 0 1 .76 7c1.982 0 3.33.763 4.117 1.822s1.068 2.313 1.346 3.36c.277 1.046.574 1.825.949 2.107.187.141.408.229.844.209s1.073-.177 1.925-.547c.971-.421 1.494.988.598 1.377-.957.416-1.748.635-2.453.668s-1.339-.15-1.815-.508c-.95-.715-1.214-1.853-1.498-2.922-.283-1.068-.562-2.128-1.099-2.85C3.136 8.992 2.395 8.5.76 8.5A.75.75 0 0 1 0 7.739M1.75 1c-.671 0-1.003.807-.523 1.29L13.71 14.77c.7.7 1.755-.365 1.06-1.06L2.289 1.227A.72.72 0 0 0 1.75 1m5.988-1A.75.75 0 0 0 7 .76c0 1.982.763 3.33 1.822 4.117s2.313 1.068 3.36 1.346c1.046.277 1.825.574 2.107.949.141.187.229.408.209.844s-.177 1.073-.547 1.925c-.421.971.988 1.494 1.377.598.416-.957.635-1.748.668-2.453s-.15-1.339-.508-1.815c-.715-.95-1.853-1.214-2.922-1.498-1.068-.283-2.128-.562-2.851-1.1C8.99 3.137 8.5 2.396 8.5.76A.75.75 0 0 0 7.738 0" style="color:#dfdfdf;fill:currentColor"/></svg>