<svg xmlns="http://www.w3.org/2000/svg" width="16" height="16"><defs><style id="current-color-scheme" type="text/css">.ColorScheme-Text{color:#dfdfdf}</style></defs><path d="M6.5 1A5.5 5.5 0 0 0 1 6.5a5.5 5.5 0 0 0 5 5.463V15h9V6h-3.023A5.5 5.5 0 0 0 6.5 1m0 2A3.5 3.5 0 0 1 10 6.5 3.5 3.5 0 0 1 9.648 8H13v5H8V9.648A3.5 3.5 0 0 1 6.5 10 3.5 3.5 0 0 1 3 6.5 3.5 3.5 0 0 1 6.5 3" class="ColorScheme-Text" style="fill:currentColor"/><path d="M6 6v5.963a6 6 0 0 0 .5.037 5.5 5.5 0 0 0 1.5-.213V8h3.787A5.5 5.5 0 0 0 12 6.5a6 6 0 0 0-.023-.5Zm3.963 0a3.5 3.5 0 0 1 .037.5A3.5 3.5 0 0 1 6.5 10a3.5 3.5 0 0 1-.5-.043v2.006a6 6 0 0 0 .5.037A5.5 5.5 0 0 0 12 6.5a6 6 0 0 0-.023-.5Z" class="ColorScheme-Text" style="opacity:.35;fill:currentColor"/></svg>