<svg xmlns="http://www.w3.org/2000/svg" viewBox="0 0 22 22"><defs><style id="current-color-scheme" type="text/css">.ColorScheme-Text{color:#fcfcfc}</style></defs><path fill="currentColor" d="M19 11c0 4.432-3.568 8-8 8s-8-3.568-8-8v-1h16zm-1 0H4c0 3.878 3.122 7 7 7s7-3.122 7-7" class="ColorScheme-Text"/><path fill="currentColor" fill-opacity=".502" d="m10.543 18.326-.283-.028a7.2 7.2 0 0 1-1.519-.325c-2.146-.711-3.878-2.407-4.704-4.606a8.2 8.2 0 0 1-.517-2.6l-.012-.292H18.51l-.011.255c-.006.14-.023.38-.037.533-.217 2.326-1.41 4.42-3.267 5.738a7.3 7.3 0 0 1-3.346 1.29c-.223.028-1.157.052-1.307.035" class="ColorScheme-Text"/></svg>