<svg xmlns="http://www.w3.org/2000/svg" width="22" height="22"><path fill="currentColor" fill-rule="evenodd" d="M11 3a8 8 0 1 0 0 16 8 8 0 0 0 0-16M8.293 7H9v7h2.049c.074-.378.231-.71.459-.98.323-.385.744-.656 1.234-.95 1.214-.728 1.777-1.283 2.026-1.668S15 9.815 15 9.5c0-.834-.666-1.5-1.5-1.5S12 8.666 12 9.5v.5h-1v-.5C11 8.125 12.125 7 13.5 7S16 8.125 16 9.5c0 .315-.016.863-.393 1.445s-1.063 1.213-2.35 1.985c-.468.28-.797.51-.984.732-.075.09-.065.24-.109.338H16v1H6v-1h2V8.707l-1.5 1.5-.707-.707z" style="color:#fcfcfc"/></svg>