<svg xmlns="http://www.w3.org/2000/svg" viewBox="0 0 22 22"><path fill="currentColor" d="M3 3v8h8V3zm1 1h6v6H4zm8 .072v1.012A6 6 0 0 1 16.172 8H14v1h4V5h-1v2.428a7 7 0 0 0-5-3.356M4 13v4h1v-2.424A7 7 0 0 0 11 18v-1a6 6 0 0 1-5.172-3H8v-1z" style="color:#fcfcfc;paint-order:markers fill stroke"/><path fill="currentColor" d="m16.5 9.793-2.354 2.353-.353.354.707.707.354-.353L16 11.707V15h1v-3.293l1.146 1.147.354.353.707-.707-.353-.354zM14 14v3.293l-1.146-1.147-.354-.353-.707.707.353.354 2.354 2.353 2.354-2.353.353-.354-.707-.707-.354.353L15 17.293V14z" style="color:#3daee9;paint-order:markers fill stroke"/></svg>