<svg xmlns="http://www.w3.org/2000/svg" width="16" height="16"><path d="M2 0C.892 0 0 .892 0 2v12c0 1.108.892 2 2 2h12c1.108 0 2-.892 2-2V2c0-1.108-.892-2-2-2Zm5 .5h1V1h3V.5h1V1h2v1h-2v2h-2v1h3v3h-3v1h3v1h-3v1h4v1h-3.662c.257.394.639.782 1.113 1.115.876.616 1.998.998 2.539.987l.02 1c-.944.019-2.111-.451-3.133-1.168-.531-.374-1.027-.826-1.377-1.346-.35.52-.846.972-1.377 1.346-1.022.717-2.189 1.187-3.133 1.168l.02-1c.54.011 1.663-.371 2.539-.987A4.2 4.2 0 0 0 8.662 12H5v-1h4v-1H6V9h3V8H6V5h3V4H7V2H5V1h2ZM2.352 2.377q1.268.692 2.306 1.674l-.75.98a14.6 14.6 0 0 0-2.365-1.846ZM8 2v1h3V2ZM1.775 5.653q1.154.634 2.133 1.442l-.806.98A9.5 9.5 0 0 0 .967 6.46ZM7 6v1h2V6Zm3 0v1h2V6ZM3.102 8.986l.98.694a24.3 24.3 0 0 1-2.02 5.248L.91 14.119a24.3 24.3 0 0 0 2.192-5.133" style="color:#dfdfdf;fill:currentColor"/></svg>