<svg xmlns="http://www.w3.org/2000/svg" width="16" height="16"><path d="M2 0C.892 0 0 .892 0 2v12c0 1.108.892 2 2 2h12c1.108 0 2-.892 2-2V2c0-1.108-.892-2-2-2zm8.031.992 1 .016A37 37 0 0 0 11.068 3H14v1h-2.883c.149 2.308.482 4.4.89 6.033.291 1.158.617 2.094.913 2.71.148.307.293.534.396.655.047.055-.001.03.012.04.238-.064.371-.154.479-.43.121-.313.176-.812.183-1.375l1 .012c-.008.606-.047 1.197-.252 1.724s-.66 1-1.302 1.111l-.08.006c-.373.005-.608-.212-.801-.44-.194-.226-.364-.514-.535-.87-.343-.712-.679-1.696-.98-2.9-.43-1.714-.775-3.883-.925-6.276H2V3h8.07c-.024-.66-.049-1.322-.039-2.008M13 1q.625.569 1.023 1.193l-.966.569a6.5 6.5 0 0 0-.91-1.25zM3 5h6v1H3zm0 2h6v1H3zm0 2h6v3H8v-2H4v2H3zm2.01 2h1.082c-.083 1.204-.384 2.115-.93 2.693Q4.196 14.773 1.695 15l-.455-.967q2.274-.227 3.012-1.023c.43-.43.676-1.108.758-2.01m1.693.998q1.422.683 2.615 1.592l-.797.91a12.4 12.4 0 0 0-2.5-1.648z" style="color:#dfdfdf;fill:currentColor"/></svg>