<svg xmlns="http://www.w3.org/2000/svg" width="16" height="16"><path d="M2 0C.892 0 0 .892 0 2v12c0 1.108.892 2 2 2h12c1.108 0 2-.892 2-2V2c0-1.108-.892-2-2-2Zm8.799 2.057.873.697q-.048.079-.08.143a.83.83 0 0 0 .096.585c.512.393.816.861 1.144 1.366.087.186.186.37.201.566.035.453-.147.836-.443 1.143-.296.306-1.121.459-1.871.459-.201 0-.497-.028-.719-.08v3.703c.19-.053.461-.121.641-.205q.285-.127.586-.286l.412 1.063a10 10 0 0 1-.776.316c-.253.085-.599.16-.863.223V15H9v-3.061c-.306.043-1.827.112-2.102.112q-1.474 0-2.568-.428-1.094-.444-1.713-1.301C2.216 9.752 2 8.938 2 8.082a2.44 2.44 0 0 1 .543-1.43c.603-.764 1.319-1.132 2.137-1.437.349-.095.755-.12 1.22-.152A20 20 0 0 1 7.613 5H9c-.032-.497-.215-1.3-.5-1.533q-.413-.349-1.062-.348-.62 0-.936.238a.71.71 0 0 0-.316.618s.015.206.015.238l-1.127.143c-.02-.096-.031-.493-.031-.493q0-.871.62-1.332.617-.459 1.694-.459 1.649 0 2.284 1.332a5.3 5.3 0 0 1 1.158-1.347m-.096 1.617c-.264.317-.518.629-.592.935s-.111.24-.111.6v.697c.17.034.44.063.656.063.349 0 .892-.058 1.03-.174.132-.185.169-.337.158-.477-.05-.275-.162-.5-.305-.712-.218-.39-.563-.658-.836-.932M7.725 6q-1.111 0-1.778.063a4.7 4.7 0 0 0-1.062.207 3.4 3.4 0 0 0-.713.324c-.587.471-.848.886-.902 1.338-.022.303-.084.562-.04.787.202 1.013.78 1.359 1.545 1.826q.84.38 2.25.379c.286 0 1.71-.047 1.975-.078V6Z" style="color:#dfdfdf;fill:currentColor"/></svg>