<svg xmlns="http://www.w3.org/2000/svg" width="16" height="16"><path d="M1.412 0 0 1.412l1.791 1.791C1.319 3.461 1 3.943 1 4.512v8.933C1 14.301 1.72 15 2.6 15h10.8q.09 0 .178-.01l1.01 1.01L16 14.588zM6 1c-.4 0-.4 0-.78.404l-.163.24 3.386 3.387a3.99 3.99 0 0 1 3.526 3.526L15 11.587V4.513C15 3.656 14.28 3 13.4 3h-1.537l-1.097-1.611C10.4 1 10.4 1 10 1zm7.488 3h.012a.5.5 0 1 1-.012 0M4.973 6.385l1.422 1.422a2 2 0 0 0 2.799 2.799l1.421 1.421a4 4 0 0 1-5.643-5.643" style="color:#fcfcfc;fill:currentColor;opacity:.35"/></svg>