<svg xmlns="http://www.w3.org/2000/svg" width="16" height="16"><path d="M1.424 0 0 1.408l2.012 2.014a.667.636 0 0 0 0 .002.667.636 0 0 0-.012.12V8c0 2.192 1.49 3.919 2.895 5.092 1.404 1.173 2.806 1.84 2.806 1.84a.667.636 0 0 0 .598 0s1.402-.667 2.806-1.84q.153-.127.305-.262L14.576 16 16 14.592zM8 1a.667.636 0 0 0-.234.041l-2.434.871 1.563 1.565L8 3.08l4 1.432V8q-.001.267-.055.531l1.58 1.582A5.1 5.1 0 0 0 14 8V3.545a.667.636 0 0 0-.432-.596L8.234 1.041A.667.636 0 0 0 8 1M4 5.412l5.994 6-.17.145c-.909.759-1.445 1-1.824 1.2-.38-.2-.915-.441-1.824-1.2C4.979 10.557 4 9.285 4 8z" style="color:#fcfcfc;fill:currentColor;opacity:.35"/></svg>