<svg xmlns="http://www.w3.org/2000/svg" width="22" height="22" viewBox="0 0 22 22"><path fill="currentColor" d="M10.965 2.998c-1.585-.007-2.942.286-4.178.904-.411.206-.476.278-.45.5.055.454.29.5.983.188 1.29-.579 1.918-.703 3.545-.705 1.868-.002 2.555.158 4.086.95.263.137 1.097.78 1.408.435.308-.308.145-.561-.648-1.012-1.564-.89-2.93-1.251-4.746-1.26m-.047 1.832a7.75 7.75 0 0 0-5.713 2.48C4.612 7.95 3.922 9 3.922 9.26c0 .302.123.469.35.469.177 0 .357-.191.787-.836.96-1.443 2.205-2.401 3.808-2.93 1.244-.406 2.7-.359 4.1 0 1.807.594 3.356 1.916 4.205 3.59.185.364.295.476.476.476.312 0 .496-.233.41-.521-.137-.465-.869-1.59-1.423-2.19a7.77 7.77 0 0 0-5.717-2.488m.098 1.822a6 6 0 0 0-1.35.13c-2.147.448-3.941 2.186-4.516 4.374-.304 1.161-.165 3.058.338 4.574.15.454.224.548.44.573.495.057.542-.178.246-1.203-.848-2.934-.118-5.429 1.986-6.79 2.08-1.345 4.94-.948 6.569.913 1.02 1.166 1.58 3.139 1.134 4-.294.568-1.01.909-1.597.761-.43-.107-.941-.635-1.006-1.04-.23-1.43-.555-1.989-1.377-2.372-.702-.326-1.285-.317-1.973.032-.641.324-1.133.979-1.232 1.642-.036.24-.02.758.035 1.15a5.94 5.94 0 0 0 4.5 4.977c.302.075.797.128 1.1.117l.548-.017c.311-.158.328-.523 0-.702l-.777-.117c-.979-.149-1.384-.28-2.057-.658-1.463-.824-2.511-2.61-2.511-4.277 0-.735.278-1.165.927-1.434.47-.194.475-.194.944 0 .593.246.88.659.953 1.371.135 1.308 1.042 2.168 2.287 2.168.999 0 1.84-.647 2.139-1.646.291-.978-.101-2.622-.924-3.871a5.88 5.88 0 0 0-4.826-2.655m-.065 1.895a5.3 5.3 0 0 0-1.785.326c-.808.396-1.578 1.186-1.977 2.027-.303.64-.32.74-.32 1.827 0 1.336.161 2.046.736 3.246.496 1.034 1.184 1.936 1.948 2.554.662.536.732.561 1.008.36.282-.207.124-.561-.446-.998-.618-.474-1.286-1.33-1.736-2.229-.74-1.476-.926-3.301-.443-4.346.35-.758.883-1.323 1.564-1.658.818-.401 2.012-.401 2.83 0 .976.48 1.6 1.354 1.82 2.551.132.715.332.952.637.756.141-.091.171-.243.158-.787-.032-1.323-.958-2.651-2.312-3.317-.455-.22-1.06-.32-1.682-.312m-.004 3.615a.5.5 0 0 0-.244.072c-.191.103-.209.174-.162.727.148 1.748 1.464 3.252 3.172 3.625.757.165.96.162 1.142-.02.364-.363.12-.652-.634-.755-1.542-.211-2.688-1.388-2.871-2.948-.055-.465-.186-.696-.403-.7" style="color:#fcfcfc"/></svg>