<svg xmlns="http://www.w3.org/2000/svg" viewBox="0 0 22 22"><defs><style id="current-color-scheme" type="text/css">.ColorScheme-Text{color:#fcfcfc}</style></defs><path d="M5 11v2h2v-2zm4 0v2h2v-2zm7.5 1c-.831 0-1.5.669-1.5 1.5v.5h1v-.5a.499.499 0 1 1 1 0V15h-3v4h5v-4h-1v-1.5c0-.831-.669-1.5-1.5-1.5M7 14v2h2v-2zm8 2h3v2h-3zM5 17v2h2v-2zm4 0v2h2v-2z" class="ColorScheme-Text" style="fill:currentColor;fill-opacity:1;stroke:none"/><path d="M3 3v16h1v-9h3v-.008l.008.008 2-2H18v4h1V5h-6.992l-2-2-.008.008V3H4z" class="ColorScheme-Text" style="fill:currentColor;fill-opacity:1;stroke:none"/></svg>