<svg xmlns="http://www.w3.org/2000/svg" width="16" height="16"><path d="M4.041 0q-.234 0-.488.06C2.497.318 2.004 1.4 2 3.474c-.001.643.01.818.078 1.185.28 1.507.755 2.86 1.176 3.352.089.103.207.19.207.19l2.652-.704c.145-.138.313-.788.422-1.633.07-.534.08-1.747.02-2.173C6.36 2.313 5.92 1.219 5.313.596 4.926.2 4.51.004 4.04 0m6.85 4.002c-.369.013-.425.025-.631.129-.655.33-1.151 1.03-1.492 2.113-.365 1.155-.451 2.224-.295 3.602.086.764.261 1.461.408 1.617l2.625.726s.237-.185.373-.396c.52-.809 1.063-2.787 1.115-4.059a9.5 9.5 0 0 0-.111-1.74c-.145-.858-.528-1.54-1.008-1.79-.326-.172-.542-.217-.984-.202M6.217 8.12l-2.518.813c-.087.086.107 1.117.309 1.638.265.685.744 1.229 1.225 1.389.089.03.267.046.445.041.244-.007.33-.028.496-.111.718-.364 1.009-1.352.709-2.415-.103-.363-.419-1.05-.569-1.234Zm2.578 4.008c-.082.006-.136.099-.309.426Q8 13.475 8 14.287c0 .827.416 1.494 1.041 1.668.819.228 1.626-.424 2.022-1.633.143-.439.296-1.317.244-1.404Z" style="color:#dfdfdf;fill:currentColor"/></svg>