<svg xmlns="http://www.w3.org/2000/svg" viewBox="0 0 22 22"><path d="M16 3v1H5.912c.058.16.087.33.088.5 0 .17-.03.34-.088.5H16v1h3V3zm1 1h1v1h-1zM4 5.912V16H3v3h3v-3H5V5.912A1.5 1.5 0 0 1 4.5 6a1.5 1.5 0 0 1-.5-.088M4 17h1v1H4z" style="color:#fcfcfc;fill:currentColor;fill-opacity:1;stroke:none"/><path d="M4.5 3A1.5 1.5 0 0 0 3 4.5 1.5 1.5 0 0 0 4.5 6 1.5 1.5 0 0 0 6 4.5 1.5 1.5 0 0 0 4.5 3m0 1a.5.5 0 0 1 .5.5.5.5 0 0 1-.5.5.5.5 0 0 1-.5-.5.5.5 0 0 1 .5-.5" style="color:#3daee9;fill:currentColor;fill-opacity:1;stroke:none"/></svg>