<svg xmlns="http://www.w3.org/2000/svg" viewBox="0 0 22 22"><path d="M7.5 2C5.57 2 4 3.8 4 6v3c0 2.2 1.57 4 3.5 4 1.9 0 3.5-1.8 3.5-4V6c0-2.2-1.6-4-3.5-4m8 0C13.57 2 12 3.8 12 6v3c0 2.2 1.57 4 3.5 4 1.9 0 3.5-1.8 3.5-4V6c0-2.2-1.6-4-3.5-4m-8 1C8.9 3 10 4.343 10 6v3c0 1.66-1.1 3-2.5 3S5 10.66 5 9V6c0-1.657 1.1-3 2.5-3m8 0C16.9 3 18 4.343 18 6v3c0 1.66-1.1 3-2.5 3S13 10.66 13 9V6c0-1.657 1.1-3 2.5-3M3 12v1h1v-1z" style="color:#fcfcfc;fill:currentColor;fill-opacity:1;stroke:none"/><path d="M15 14v2h-2v1h2v2h1v-2h2v-1h-2v-2z" style="color:#3daee9;fill:currentColor;fill-opacity:1;stroke:none"/></svg>