<svg xmlns="http://www.w3.org/2000/svg" width="22" height="22"><path d="M5 3v1h5v13H7v2h8v-2h-3V4h5V3zm0 1.021L2.035 11H2c0 .022.005.043.006.064l-.016.04.022.01A2.994 2.994 0 0 0 5 14a2.994 2.994 0 0 0 2.988-2.887l.022-.01-.016-.039c0-.021.006-.042.006-.064h-.035zm12 0L14.035 11H14c0 .022.005.043.006.064l-.016.04.022.01A2.994 2.994 0 0 0 17 14a2.994 2.994 0 0 0 2.988-2.887l.022-.01-.016-.039c0-.021.006-.042.006-.064h-.035zM5 6.581 6.879 11H3.12zm12 0L18.879 11H15.12z" style="color:#dfdfdf;opacity:.35;fill:currentColor"/></svg>