<svg xmlns="http://www.w3.org/2000/svg" width="16" height="16"><path d="M8 9c-4.432 0-8 3.122-8 7h10c-1.259-1-2-2.426-2-4 0-1.063.362-2.15 1-3Zm0-9a4 4 0 0 0-4 4 4 4 0 0 0 4 4 4 4 0 0 0 4-4 4 4 0 0 0-4-4" style="color:#dfdfdf;fill:currentColor"/><path d="M12.5 9A3.5 3.5 0 0 0 9 12.5a3.5 3.5 0 0 0 3.5 3.5 3.5 3.5 0 0 0 3.5-3.5A3.5 3.5 0 0 0 12.5 9m-1.414 1.379 1.414 1.414 1.414-1.414.707.707-1.414 1.414 1.414 1.414-.707.707-1.414-1.414-1.414 1.414-.707-.707 1.414-1.414-1.414-1.414Z" class="error" style="color:#f44336;fill:currentColor"/></svg>