<svg xmlns="http://www.w3.org/2000/svg" viewBox="0 0 22 22"><path d="M3 3v1h10V3zm0 2v1h6V5zm0 4v1h8V9zm0 2v1h4v-1zm0 4v1h7v-1zm0 2v1h2v-1z" style="color:#fcfcfc;fill:currentColor;fill-opacity:1;stroke:none"/><path d="M16 3v1h1v2h-1v1h3V6h-1V4h1V3h-3m-6 2v1h1V5zm2 0v1h1V5zm2 0v1h1V5zm0 4v1h1v2h-1v1h5v-1h-1v-2h1V9zm2 1h1v2h-1zm-8 1v1h1v-1zm2 0v1h1v-1zm2 0v1h1v-1zm0 4v1h1v2h-1v1h7v-1h-1v-2h1v-1h-7m2 1h1v2h-1zm2 0h1v2h-1zM6 17v1h1v-1zm2 0v1h1v-1zm2 0v1h1v-1z" style="color:#3daee9;fill:currentColor;fill-opacity:1;stroke:none"/></svg>