<svg xmlns="http://www.w3.org/2000/svg" viewBox="0 0 22 22"><path fill="currentColor" d="M11 3a8 8 0 0 0-8 8 8 8 0 0 0 8 8 8 8 0 0 0 4.893-1.693l3.4 3.4a1 1 0 0 0 1.414 0 1 1 0 0 0 0-1.414l-3.4-3.4A8 8 0 0 0 19 11a8 8 0 0 0-8-8m0 1a7 7 0 0 1 7 7 7 7 0 0 1-7 7 7 7 0 0 1-7-7 7 7 0 0 1 7-7" style="color:#fcfcfc;-inkscape-stroke:none;paint-order:markers stroke fill"/><path fill="currentColor" stroke-linecap="square" stroke-width="2.4" d="M2.93 12.826v-.93q.778.519 1.945.519 1.815 0 1.815-1.697 0-1.588-1.858-1.588-.481 0-1.249.14l-.486-.308.297-3.718h3.729v.897H4.248l-.21 2.264q.577-.108 1.129-.108 1.134 0 1.831.622.703.616.703 1.691 0 1.265-.746 1.956-.746.687-2.102.687-1.21 0-1.924-.427" aria-label="5" style="color:#3daee9;paint-order:markers stroke fill;white-space:pre" transform="translate(5.685 1.756)"/></svg>