<svg xmlns="http://www.w3.org/2000/svg" viewBox="0 0 22 22"><path fill="currentColor" d="M11 3a8 8 0 0 0-8 8 8 8 0 0 0 8 8 8 8 0 0 0 4.893-1.693l3.4 3.4a1 1 0 0 0 1.414 0 1 1 0 0 0 0-1.414l-3.4-3.4A8 8 0 0 0 19 11a8 8 0 0 0-8-8m0 1a7 7 0 0 1 7 7 7 7 0 0 1-7 7 7 7 0 0 1-7-7 7 7 0 0 1 7-7" style="color:#fcfcfc;-inkscape-stroke:none;paint-order:markers stroke fill"/><path fill="currentColor" stroke-linecap="square" stroke-width="2.4" d="M8.085 11.372H6.934v1.772h-.952v-1.772H2.33v-.86l3.588-5.31h1.016v5.273h1.15zm-2.103-.897V8.551q0-.95.07-2.334h-.048q-.194.551-.486.973l-2.221 3.285z" aria-label="4" style="color:#3daee9;paint-order:markers stroke fill;white-space:pre" transform="matrix(1 0 0 1.00713 5.793 1.762)"/></svg>