<svg xmlns="http://www.w3.org/2000/svg" viewBox="0 0 22 22"><path fill="currentColor" d="M11 3a8 8 0 0 0-8 8 8 8 0 0 0 8 8 8 8 0 0 0 4.893-1.693l3.4 3.4a1 1 0 0 0 1.414 0 1 1 0 0 0 0-1.414l-3.4-3.4A8 8 0 0 0 19 11a8 8 0 0 0-8-8m0 1a7 7 0 0 1 7 7 7 7 0 0 1-7 7 7 7 0 0 1-7-7 7 7 0 0 1 7-7" style="color:#fcfcfc;-inkscape-stroke:none;paint-order:markers stroke fill"/><path fill="currentColor" stroke-linecap="square" stroke-width="2.4" d="M5.75 8.984v.032q1.95.254 1.95 1.88 0 1.097-.745 1.73-.746.627-2.156.627-1.308 0-2.091-.427v-.919q.994.519 2.07.519 1.912 0 1.912-1.562 0-1.394-2.058-1.394h-.72v-.816h.72q.864 0 1.34-.41.475-.411.475-1.087 0-.551-.367-.87-.368-.324-.984-.324-.962 0-1.859.654L2.74 5.94q1.01-.81 2.356-.81 1.113 0 1.735.535.627.535.627 1.426 0 .746-.443 1.249t-1.265.643" aria-label="3" style="color:#3daee9;paint-order:markers stroke fill;white-space:pre" transform="matrix(1.0007 0 0 .98501 5.794 1.946)"/></svg>