<svg xmlns="http://www.w3.org/2000/svg" width="16" height="16"><defs><style id="current-color-scheme" type="text/css">.ColorScheme-Text{color:#fcfcfc}</style></defs><g class="ColorScheme-Text" style="fill:currentColor"><path d="M5.004 0c-1.094 0-2 .91-2 2v9c0 1.09.906 2 2 2h9c1.09 0 2-.91 2-2V2c0-1.09-.91-2-2-2zm5 2h3v2h-2v5a1.999 1.999 0 1 1-4 0 2 2 0 0 1 3-1.73zm-8 1c-1.094 0-2 .91-2 2v9c0 1.09.906 2 2 2h9c1.09 0 2-.91 2-2h-11z" class="ColorScheme-Text" style="fill:currentColor" transform="translate(-.004)"/></g></svg>