<svg xmlns="http://www.w3.org/2000/svg" width="16" height="16"><path d="M8 0a4 4 0 1 0 0 8 4 4 0 0 0 0-8m0 9c-4.432 0-8 3.122-8 7h10c-1.259-1-2-2.426-2-4 0-1.063.362-2.15 1-3zm4 0v1.05a2.5 2.5 0 0 0-.879.364l-.742-.742-.707.707.742.742a2.5 2.5 0 0 0-.363.879H9v1h1.05a2.5 2.5 0 0 0 .364.879l-.742.742.707.707.742-.742a2.5 2.5 0 0 0 .879.363V16h1v-1.05a2.5 2.5 0 0 0 .879-.364l.742.742.707-.707-.742-.742a2.5 2.5 0 0 0 .363-.879H16v-1h-1.05a2.5 2.5 0 0 0-.364-.879l.742-.742-.707-.707-.742.742a2.5 2.5 0 0 0-.879-.363V9zm.5 3a.5.5 0 0 1 .5.5.5.5 0 0 1-.5.5.5.5 0 0 1-.5-.5.5.5 0 0 1 .5-.5" style="color:#fcfcfc;fill:currentColor"/></svg>