<svg xmlns="http://www.w3.org/2000/svg" width="16" height="16"><path d="M4-.006a1 1 0 0 0-1 1 1 1 0 0 0 1 1h2a1 1 0 0 0 1-1 1 1 0 0 0-1-1zm-3 3a1 1 0 0 0-1 1 1 1 0 0 0 1 1h5.13l-.933 1.4-.629.754-.861-.861a1 1 0 0 0-1.414 0 1 1 0 0 0 0 1.414l.992.992-1.357 1.631a1 1 0 0 0 .129 1.408 1 1 0 0 0 1.408-.129l1.24-1.49 1.588 1.588a1 1 0 0 0 1.414 0 1 1 0 0 0 0-1.414L5.99 8.57l.78-.935a1 1 0 0 0 .062-.086l1.703-2.555H9a1 1 0 0 0 1-1 1 1 0 0 0-1-1zm10.5 4a1 1 0 0 0-.895.553l-3.5 7.006a1 1 0 0 0 .448 1.341 1 1 0 0 0 1.341-.447l.727-1.453h3.762l.722 1.447a1 1 0 0 0 1.342.448 1 1 0 0 0 .447-1.342l-3.5-7a1 1 0 0 0-.894-.553m0 3.236.883 1.764h-1.764z" style="color:#fcfcfc;fill:currentColor"/></svg>