<svg xmlns="http://www.w3.org/2000/svg" width="16" height="16"><path d="M8 0c-.269 0-.536.07-.775.213h-.002L7.22.215l-5.44 3.2-.004.001A1.61 1.61 0 0 0 1 4.799v6.404c.002.569.299 1.097.777 1.381l.004.002 5.44 3.2.002.001h.002a1.52 1.52 0 0 0 1.55 0l.002-.002h.002L9 15.656v-7l4-2.353V9h2V4.797a1.62 1.62 0 0 0-.777-1.381l-.004-.002-5.44-3.2h-.004A1.5 1.5 0 0 0 8 0m0 2.076L12.12 4.5 8 6.922 3.879 4.5zM3 6.303l4 2.353v4.678l-4-2.352zm5.26.572-.207.08-.004-.004c.1-.035.126-.046.21-.076M12 10v2h-2v2h2v2h2v-2h2v-2h-2v-2z" style="color:#fcfcfc;fill:currentColor"/></svg>