<svg xmlns="http://www.w3.org/2000/svg" viewBox="0 0 22 22"><path fill="currentColor" d="M1 3v16h13v-1H2v-.586l.463-.463 6.267-6.267 1.454 1.45.814.815H11l.816-.814 1.454-1.451L14.586 12H16l-2.023-2.023 5.752-5.754L19.95 4H20v8h1V3H1m1 1h.049l.222.223 5.752 5.754L2 16V4m1.463 0h15.074L11 11.537z" style="color:#fcfcfc"/><path fill="#da4453" d="M21 16c0-1.662-1.338-3-3-3s-3 1.338-3 3 1.338 3 3 3 3-1.338 3-3m-1 0c0 .372-.106.714-.281 1.012l-2.73-2.73c.297-.176.64-.282 1.011-.282 1.108 0 2 .892 2 2m-.988 1.719A1.996 1.996 0 0 1 16 16c0-.372.106-.714.281-1.012z"/></svg>