<svg xmlns="http://www.w3.org/2000/svg" width="16" height="16"><defs><style id="current-color-scheme" type="text/css">.ColorScheme-Text{color:#fcfcfc}</style></defs><path d="M11.5 1A3.5 3.5 0 0 0 8 4.5 3.5 3.5 0 0 0 11.5 8 3.5 3.5 0 0 0 15 4.5 3.5 3.5 0 0 0 11.5 1m-9 2C1.669 3 1 3.669 1 4.5S1.669 6 2.5 6h4.842A3.5 3.5 0 0 1 7 4.5 3.5 3.5 0 0 1 7.342 3zm2 5A3.5 3.5 0 0 0 1 11.5 3.5 3.5 0 0 0 4.5 15 3.5 3.5 0 0 0 8 11.5 3.5 3.5 0 0 0 4.5 8" class="ColorScheme-Text" style="fill:currentColor"/><path d="M8.662 10A3.5 3.5 0 0 1 9 11.5a3.5 3.5 0 0 1-.342 1.5H13.5c.831 0 1.5-.669 1.5-1.5s-.669-1.5-1.5-1.5z" class="ColorScheme-Text" style="fill:currentColor;opacity:.35"/></svg>