<svg xmlns="http://www.w3.org/2000/svg" width="22" height="22"><style id="current-color-scheme" type="text/css">.ColorScheme-Text{color:#fcfcfc}</style><g id="notification-active"><path fill="none" d="M0 0h22v22H0z"/><path fill="currentColor" fill-rule="evenodd" d="M5.346 2.346A8 8 0 0 0 3 8h1a7 7 0 0 1 2.053-4.947zm11.308 0-.707.707A7 7 0 0 1 18 8h1a8 8 0 0 0-2.346-5.654m-1.416 1.416-.709.709A5 5 0 0 1 16 8h1a6 6 0 0 0-1.762-4.238m-8.472.004A6 6 0 0 0 5 8h1a5 5 0 0 1 1.467-3.533zM9.27 16A2 2 0 0 0 9 17a2 2 0 0 0 2 2 2 2 0 0 0 2-2 2 2 0 0 0-.271-1zM11 3a1 1 0 0 0-1 1 1 1 0 0 0 .01.129A4 4 0 0 0 7 8c0 3-1 4-3 6v1h14v-1c-2-2-3-3-3-6a4 4 0 0 0-3.01-3.871A1 1 0 0 0 12 4a1 1 0 0 0-1-1m0 2a3 3 0 0 1 3 3c0 3 .586 4 2.586 6H5.414C7.414 12 8 11 8 8a3 3 0 0 1 3-3" class="ColorScheme-Text"/></g></svg>