<svg xmlns="http://www.w3.org/2000/svg" width="16" height="16"><defs><style id="current-color-scheme" type="text/css">.ColorScheme-Text{color:#dfdfdf}</style></defs><path d="M5 11h2v4H5Z" class="ColorScheme-Text" style="fill:currentColor" transform="rotate(30 6 13)"/><path d="M9 11h2v4H9Z" class="ColorScheme-Text" style="fill:currentColor" transform="rotate(30 10 13)"/><path d="M9 6h2v4H9Z" class="ColorScheme-Text" style="fill:currentColor" transform="rotate(60 10 8)"/><path d="M5 6h2v4H5Z" class="ColorScheme-Text" style="fill:currentColor" transform="rotate(60 6 8)"/><path d="M5 1h2v4H5Z" class="ColorScheme-Text" style="fill:currentColor" transform="rotate(45 6 3)"/><path d="M9 1h2v4H9Z" class="ColorScheme-Text" style="fill:currentColor" transform="rotate(45 10 3)"/><path d="M13 1h2v4h-2ZM1 1h2v4H1Zm0 5h2v4H1Zm12 0h2v4h-2Zm0 5h2v4h-2ZM1 11h2v4H1Z" class="ColorScheme-Text" style="fill:currentColor"/></svg>