<svg xmlns="http://www.w3.org/2000/svg" width="16" height="16"><defs><style id="current-color-scheme" type="text/css">.ColorScheme-Text{color:#dfdfdf}</style></defs><path d="M2 7c-.554 0-1 .446-1 1v5c0 .554.446 1 1 1h8c.554 0 1-.446 1-1V8c0-.554-.446-1-1-1zm4 2h.666L8 10.334 9.334 9H10v.666L8.666 11 10 12.334V13h-.666L8 11.666 6.666 13H6v-.666L7.334 11 6 9.666z" class="ColorScheme-Text" style="fill:currentColor;opacity:.35"/><path d="M6 2c-.554 0-1 .446-1 1v3h5c1.09 0 2 .91 2 2v1h2c.554 0 1-.446 1-1V3c0-.554-.446-1-1-1Z" class="ColorScheme-Text" style="fill:currentColor"/></svg>