<svg xmlns="http://www.w3.org/2000/svg" width="16" height="16"><defs><style id="current-color-scheme" type="text/css">.ColorScheme-Text{color:#dfdfdf}</style></defs><path d="M2 7c-.554 0-1 .446-1 1v5c0 .554.446 1 1 1h8c.554 0 1-.446 1-1V8c0-.554-.446-1-1-1zm7.576 1.734.848.532-2.26 3.615-2.422-1.451.516-.86 1.578.95z" class="ColorScheme-Text" style="fill:currentColor"/><path d="M6 2c-.554 0-1 .446-1 1v3h5c1.09 0 2 .91 2 2v1h2c.554 0 1-.446 1-1V3c0-.554-.446-1-1-1Z" class="ColorScheme-Text" style="fill:currentColor;opacity:.35"/></svg>