<svg xmlns="http://www.w3.org/2000/svg" width="16" height="16"><path d="M12 11h2s1 0 1 1v2s0 1-1 1h-2s-1 0-1-1v-2s0-1 1-1m-5 0h2s1 0 1 1v2s0 1-1 1H7s-1 0-1-1v-2s0-1 1-1m-5 0h2s1 0 1 1v2s0 1-1 1H2s-1 0-1-1v-2s0-1 1-1m10-5h2s1 0 1 1v2s0 1-1 1h-2s-1 0-1-1V7s0-1 1-1M7 6h2s1 0 1 1v2s0 1-1 1H7s-1 0-1-1V7s0-1 1-1M2 6h2s1 0 1 1v2s0 1-1 1H2s-1 0-1-1V7s0-1 1-1m10-5h2s1 0 1 1v2s0 1-1 1h-2s-1 0-1-1V2s0-1 1-1M7 1h2s1 0 1 1v2s0 1-1 1H7S6 5 6 4V2s0-1 1-1M2 1h2s1 0 1 1v2s0 1-1 1H2S1 5 1 4V2s0-1 1-1" style="color:#dfdfdf;fill:currentColor"/></svg>