<svg xmlns="http://www.w3.org/2000/svg" width="24" height="24"><defs><style id="current-color-scheme" type="text/css">.ColorScheme-Text{color:#dfdfdf}</style></defs><path d="M10 10h13v13H10Zm7 0a7 7 0 0 1-7 7 7 7 0 0 1-7-7 7 7 0 0 1 7-7 7 7 0 0 1 7 7" class="ColorScheme-Text" style="opacity:.35;fill:currentColor"/><path d="M10 1a9 9 0 0 0-9 9 9 9 0 0 0 9 9 9 9 0 0 0 9-9 9 9 0 0 0-9-9m0 3a6 6 0 0 1 6 6 6 6 0 0 1-6 6 6 6 0 0 1-6-6 6 6 0 0 1 6-6" class="ColorScheme-Text" style="fill:currentColor"/><path d="M18 8v2h5V8ZM8 18v5h2v-5Z" class="ColorScheme-Text" style="fill:currentColor"/></svg>