<svg xmlns="http://www.w3.org/2000/svg" width="24" height="24"><defs><style id="current-color-scheme" type="text/css">.ColorScheme-Text{color:#dfdfdf}</style></defs><path d="M10 10h13v13H10Zm7 0a7 7 0 0 1-7 7 7 7 0 0 1-7-7 7 7 0 0 1 7-7 7 7 0 0 1 7 7" class="ColorScheme-Text" style="opacity:.35;fill:currentColor"/><path d="M10 1a9 9 0 0 0-9 9 9 9 0 0 0 9 9v-3a6 6 0 0 1-6-6 6 6 0 0 1 6-6 6 6 0 0 1 6 6h3a9 9 0 0 0-9-9" class="ColorScheme-Text" style="fill:currentColor"/><path d="M8 10v13h2V10h13V8H10s-2 0-2 2" class="ColorScheme-Text" style="fill:currentColor"/></svg>