<svg xmlns="http://www.w3.org/2000/svg" width="16" height="16"><defs><style id="current-color-scheme" type="text/css">.ColorScheme-Text{color:#dfdfdf}</style></defs><path d="M12.5 9a3.5 3.5 0 1 0 0 7 3.5 3.5 0 0 0 0-7M11 11h3v3h-3z" class="ColorScheme-Text" style="fill:currentColor"/><path d="M8 0a8 8 0 1 0 0 16 8 8 0 0 0 1.494-.158 4.5 4.5 0 0 1-1.234-1.863A6 6 0 0 1 8 14a6 6 0 1 1 6-6 6 6 0 0 1-.02.252 4.5 4.5 0 0 1 1.862 1.236A8 8 0 0 0 16 8a8 8 0 0 0-8-8m0 4a4 4 0 1 0 0 8l.035-.004a4.5 4.5 0 0 1 3.961-3.96L12 8a4 4 0 0 0-4-4" class="ColorScheme-Text" style="opacity:.35;fill:currentColor"/></svg>