<svg xmlns="http://www.w3.org/2000/svg" width="16" height="16"><defs><style id="current-color-scheme" type="text/css">.ColorScheme-Text{color:#dfdfdf}</style></defs><path d="M11 11v1c0 .28.1.54.28.72l.78.78-.78.78c-.18.18-.28.44-.28.72v1h1c.28 0 .54-.1.72-.28l.78-.78.78.78c.18.18.44.28.72.28h1v-1c0-.28-.1-.54-.28-.72l-.78-.78.78-.78c.18-.18.28-.44.28-.72v-1h-1c-.28 0-.54.1-.72.28l-.78.78-.78-.78c-.18-.18-.44-.28-.72-.28Z" class="ColorScheme-Text" style="fill:currentColor"/><g style="opacity:.35"><path d="M5 11v5l3-2 2 1v-4" class="ColorScheme-Text" style="fill:currentColor"/><path d="M8 1a6 6 0 0 0-6 6 6 6 0 0 0 6 6 6 6 0 0 0 2-.344v-2.191A4 4 0 0 1 8 11a4 4 0 0 1-4-4 4 4 0 0 1 4-4 4 4 0 0 1 4 4 4 4 0 0 1-1.355 3h2.55A6 6 0 0 0 14 7a6 6 0 0 0-6-6m0 3a3 3 0 0 0-3 3 3 3 0 0 0 3 3 3 3 0 0 0 3-3 3 3 0 0 0-3-3" class="ColorScheme-Text" style="fill:currentColor"/></g></svg>