<svg xmlns="http://www.w3.org/2000/svg" viewBox="0 0 22 22"><defs><style id="current-color-scheme" type="text/css">.ColorScheme-Text{color:#fcfcfc}</style></defs><g fill="currentColor" fill-opacity=".5" class="ColorScheme-Text"><path d="M4.92 15.519v-2.637h3.246v5.273H4.919zM12.775 17.092c.008-.014.512-.808 1.121-1.764.976-1.532 1.11-1.735 1.131-1.708.045.06 2.219 3.476 2.219 3.487 0 .005-1.01.01-2.243.01-1.917 0-2.24-.004-2.228-.025M12.862 6.521V3.818h5.323v5.406h-5.323zM6.276 9.164q-.98-.115-1.634-.75a2.6 2.6 0 0 1-.791-1.54 3.4 3.4 0 0 1 0-.706 2.684 2.684 0 0 1 2.477-2.28c.828-.051 1.558.221 2.13.795.363.366.595.793.712 1.314.057.255.058.796.001 1.052a2.69 2.69 0 0 1-2.127 2.073c-.181.036-.614.06-.768.042"/></g><path fill="currentColor" d="M6.5 3C4.561 3 3 4.561 3 6.5S4.561 10 6.5 10 10 8.439 10 6.5 8.439 3 6.5 3M12 3v7h7V3zM6.5 4A2.5 2.5 0 0 1 9 6.5 2.5 2.5 0 0 1 6.5 9 2.5 2.5 0 0 1 4 6.5 2.5 2.5 0 0 1 6.5 4M13 4h5v5h-5zm-9 8v7h5v-7zm11 0-4 6h8zM5 13h3v5H5zm10 .72 1.064 1.64L17.13 17H12.87l1.065-1.64z" class="ColorScheme-Text"/></svg>