<svg xmlns="http://www.w3.org/2000/svg" viewBox="0 0 16 16"><g transform="translate(-105.293 -978.52)scale(3.77953)"><rect width="2.646" height="2.646" x="28.575" y="259.694" fill="currentColor" class="ColorScheme-Background" opacity=".8" ry=".124"/><path fill="none" d="M27.859 258.9h4.233v4.233h-4.233z"/><path fill="currentColor" d="M28.575 259.43a.264.264 0 0 0-.265.264v2.646c0 .146.118.264.265.264h2.646a.264.264 0 0 0 .264-.264v-2.646a.264.264 0 0 0-.264-.265zm.124.264h2.398c.069 0 .124.055.124.124v2.397a.124.124 0 0 1-.124.125h-2.398a.124.124 0 0 1-.124-.125v-2.397c0-.069.055-.124.124-.124" class="ColorScheme-Text" opacity=".4"/><path fill="currentColor" stroke-width=".265" d="M29.958 260.22q.24 0 .355.123t.115.392v1.075h-.157l-.041-.247h-.01a.6.6 0 0 1-.182.186.5.5 0 0 1-.26.06.42.42 0 0 1-.296-.109q-.115-.112-.113-.346c0-.153.047-.31.15-.392q.154-.125.475-.135l.223-.009v-.054q0-.192-.07-.267a.27.27 0 0 0-.202-.074.5.5 0 0 0-.196.037q-.093.035-.174.08l-.066-.189a1 1 0 0 1 .204-.091.8.8 0 0 1 .245-.04zm.257.796-.194.008q-.245.01-.34.09c-.062.053-.093.145-.093.243q0 .129.066.189.069.06.174.06.164 0 .274-.106.113-.109.113-.332z" aria-label="a" class="ColorScheme-Text"/></g></svg>