<svg xmlns="http://www.w3.org/2000/svg" width="16" height="16"><path d="M7.22 1.998a7.6 7.6 0 0 0-2.69.807.215.215 0 0 0-.09.277l1.011 2.25c.023.05.064.087.112.106q.03.01.062.011a.2.2 0 0 0 .086-.02 5 5 0 0 1 1.771-.53c.107-.012.187-.115.176-.23l-.226-2.485a.2.2 0 0 0-.069-.141.18.18 0 0 0-.142-.045m1.825.035a.2.2 0 0 0-.18.18l-.312 2.476c-.015.114.06.22.166.235.614.09 1.204.292 1.752.603q.043.025.09.024a.19.19 0 0 0 .171-.11l1.092-2.207a.215.215 0 0 0-.08-.28 7.6 7.6 0 0 0-2.66-.919.2.2 0 0 0-.04-.002M3.059 3.832a.2.2 0 0 0-.104.045A8.4 8.4 0 0 0 1.13 6.139a.22.22 0 0 0-.022.158.2.2 0 0 0 .088.127l2 1.281q.049.03.1.03a.2.2 0 0 0 .168-.102A5.6 5.6 0 0 1 4.67 6.139a.2.2 0 0 0 .07-.141.2.2 0 0 0-.04-.152L3.228 3.908a.2.2 0 0 0-.17-.076m10.08.207a.2.2 0 0 0-.133.07l-1.54 1.875a.22.22 0 0 0-.046.153.2.2 0 0 0 .064.142c.468.44.857.96 1.155 1.543.035.07.1.11.17.11a.2.2 0 0 0 .093-.026l2.045-1.199a.2.2 0 0 0 .092-.123.23.23 0 0 0-.016-.16A8.5 8.5 0 0 0 13.28 4.09a.2.2 0 0 0-.14-.05M.53 7.822a.2.2 0 0 0-.166.145 9.2 9.2 0 0 0-.355 2.967c.005.11.09.199.193.199H.21l2.328-.115a.2.2 0 0 0 .135-.069.22.22 0 0 0 .05-.15 6 6 0 0 1 .234-1.96c.033-.11-.024-.229-.126-.263L.607 7.83a.2.2 0 0 0-.076-.008m10.824.248a.2.2 0 0 0-.093.03L8.23 10.016A2 2 0 0 0 8 10a2 2 0 0 0-2 2 2 2 0 0 0 2 2 2 2 0 0 0 2-2 2 2 0 0 0-.047-.428l1.586-3.187a.23.23 0 0 0-.037-.256.2.2 0 0 0-.115-.059zm4.165.06-.038.007-2.248.654c-.103.03-.164.145-.136.256a6 6 0 0 1 .177 1.752.22.22 0 0 0 .051.15.2.2 0 0 0 .135.069l2.326.115h.01c.103 0 .188-.088.193-.2a9 9 0 0 0-.27-2.65.2.2 0 0 0-.09-.127.2.2 0 0 0-.11-.025" style="color:#dfdfdf;fill:currentColor"/></svg>