<svg xmlns="http://www.w3.org/2000/svg" viewBox="0 0 22 22"><path d="M5 4v1h6v13h6v-1h-5V4H5" style="color:#fcfcfc;fill:currentColor;fill-opacity:1;stroke:none"/><path d="M4.5 3A1.5 1.5 0 0 0 3 4.5 1.5 1.5 0 0 0 4.5 6 1.5 1.5 0 0 0 6 4.5 1.5 1.5 0 0 0 4.5 3m0 1a.5.5 0 0 1 .5.5.5.5 0 0 1-.5.5.5.5 0 0 1-.5-.5.5.5 0 0 1 .5-.5m13 12a1.5 1.5 0 0 0-1.5 1.5 1.5 1.5 0 0 0 1.5 1.5 1.5 1.5 0 0 0 1.5-1.5 1.5 1.5 0 0 0-1.5-1.5m0 1a.5.5 0 0 1 .5.5.5.5 0 0 1-.5.5.5.5 0 0 1-.5-.5.5.5 0 0 1 .5-.5" style="color:#3daee9;fill:currentColor;fill-opacity:1;stroke:none"/></svg>