<svg xmlns="http://www.w3.org/2000/svg" width="16" height="16"><defs><style id="current-color-scheme" type="text/css">.ColorScheme-Text{color:#fcfcfc}</style></defs><path d="M12.49 8c.38 0 .75.063 1.11.154L16 6.203l-5.88-.316L8 .393 5.88 5.887 0 6.203l4.57 3.715-1.52 5.691L8 12.41C8.05 9.98 10.05 8 12.49 8" class="ColorScheme-Text" style="fill:currentColor"/><path d="M12.5 9C10.57 9 9 10.567 9 12.5s1.57 3.5 3.5 3.5 3.5-1.567 3.5-3.5S14.43 9 12.5 9m-.5 1h1v2h2v1h-2v2h-1v-2h-2v-1h2Z" class="ColorScheme-Text" style="fill:currentColor"/></svg>