<svg xmlns="http://www.w3.org/2000/svg" width="16" height="16"><path d="M7.994 0c-.43 0-.81.274-.947.684l-1.45 4.34-4.59-.016C.028 5.004-.374 6.264.427 6.826L4.05 9.38l-2 4.283c-.317.902.687 1.691 1.492 1.172l4.502-2.592 4.394 2.584c.801.531 1.817-.256 1.5-1.158l-2.003-4.29 3.644-2.575c.789-.563.394-1.807-.574-1.81l-4.66-.016L8.943.69A1 1 0 0 0 7.994 0m-.01 4.19.461 1.408a2 2 0 0 0 1.895 1.379l1.521.005-1.08.764a2 2 0 0 0-.658 2.48l.592 1.264-1.654-.972a2 2 0 0 0-2.012-.01l-1.803 1.037.617-1.32a2 2 0 0 0-.66-2.48L4.172 7.02l1.418.003a2 2 0 0 0 1.904-1.367z" style="color:#fcfcfc;fill:currentColor;opacity:.35;stop-color:currentColor"/></svg>