<svg xmlns="http://www.w3.org/2000/svg" width="16" height="16"><defs><style id="current-color-scheme" type="text/css">.ColorScheme-Text{color:#dfdfdf}</style></defs><path d="M15 10a5 5 0 0 1-5 5 5 5 0 0 1-5-5 5 5 0 0 1 5-5 5 5 0 0 1 5 5" class="ColorScheme-Text" style="opacity:.35;fill:currentColor"/><path d="M10 5a5 5 0 0 0-5 5 5 5 0 0 0 5 5 5 5 0 0 0 5-5 5 5 0 0 0-5-5m0 1a4 4 0 0 1 4 4 4 4 0 0 1-4 4 4 4 0 0 1-4-4 4 4 0 0 1 4-4" class="ColorScheme-Text" style="fill:currentColor"/><path d="M10 0 7 4h2v5H2v2h9V4h2Z" class="ColorScheme-Text" style="fill:currentColor"/></svg>