<svg xmlns="http://www.w3.org/2000/svg" width="22" height="22"><g stroke-width="1.455"><path fill="currentColor" d="M35.818 21.09a.727.727 0 0 1-.727.728.727.727 0 0 1-.727-.727.727.727 0 0 1 .727-.727.727.727 0 0 1 .727.727m-2.182 0a.727.727 0 0 1-.727.728.727.727 0 0 1-.727-.727.727.727 0 0 1 .727-.727.727.727 0 0 1 .727.727m-2.181 0a.727.727 0 0 1-.728.728.727.727 0 0 1-.727-.727.727.727 0 0 1 .727-.727.727.727 0 0 1 .728.727m-2.182 0a.727.727 0 0 1-.728.728.727.727 0 0 1-.727-.727.727.727 0 0 1 .727-.727.727.727 0 0 1 .728.727m5.818-10.908H38v1.454h-2.91zm-2.91 0h1.455v1.454h-1.454zm-4.363 0h2.91v1.454h-2.91zm-2.909 7.273v7.272h26.182v-7.272zm1.455 1.454h23.272v4.364H26.364ZM24.909 7.273v7.272h26.182V7.273Zm1.455 1.454h23.272v4.364H26.364Z" style="color:#fcfcfc" transform="translate(-15.125)scale(.6875)"/><path fill="none" d="M0 0v22h22V0Z"/></g></svg>