<svg xmlns="http://www.w3.org/2000/svg" width="22" height="22"><g stroke-width="1.455"><path fill="currentColor" d="M44.552 10.182c-.374 0-.72.103-1.028.27 0 .002-.096.058-.095.06.114 1.453-.25 2.377-.665 3.099a2.18 2.18 0 0 0 1.788.934 2.183 2.183 0 0 0 0-4.363m-13.097 0c.374 0 .72.103 1.028.27 0 .002.095.058.095.06-.115 1.453.25 2.377.665 3.099a2.18 2.18 0 0 1-1.788.934 2.183 2.183 0 0 1 0-4.363m0 5.818c1.226 0 2.302.566 2.96 1.477-.37.196-.745.436-1.071.63-.359-.422-1.025-.652-1.89-.652-1.309 0-2.181.96-2.181 2.909h1.818l-.727 1.454h-2.546v-2.21c0-2.093 1.622-3.608 3.637-3.608m13.09 0c-1.226 0-2.302.566-2.96 1.477.37.196.745.436 1.071.63.359-.422 1.025-.652 1.89-.652 1.309 0 2.181.993 2.181 2.909H44.91l.727 1.454h2.546v-2.21c0-2.093-1.622-3.608-3.637-3.608M38 18.91c2.91 0 5.818 1.454 5.818 5.817H32.182c0-4.363 2.909-5.818 5.818-5.818m0-1.455c-4.23 0-7.261 2.974-7.27 7.272l-.003 1.455h14.546l-.003-1.455c-.009-4.321-3.04-7.272-7.27-7.272m0-11.637A5.09 5.09 0 1 0 38 16a5.09 5.09 0 0 0 0-10.182" style="color:#fcfcfc" transform="translate(-15.125)scale(.6875)"/><path fill="none" d="M0 0v22h22V0Z"/></g></svg>