<svg xmlns="http://www.w3.org/2000/svg" width="16" height="16"><path d="M2 1c-.554 0-1 .446-1 1v4c0 .554.446 1 1 1h4c.554 0 1-.446 1-1V2c0-.554-.446-1-1-1zm8 0c-.554 0-1 .446-1 1v4c0 .554.446 1 1 1h4c.554 0 1-.446 1-1V2c0-.554-.446-1-1-1zM2 9c-.554 0-1 .446-1 1v4c0 .554.446 1 1 1h4c.554 0 1-.446 1-1v-4c0-.554-.446-1-1-1zm10 0c-.554 0-1 .454-1 1.02V12H9.427a.429.375 0 0 0-.302.64l2.572 2.25a.429.375 0 0 0 .605 0l2.573-2.25a.429.375 0 0 0-.303-.64H13v-1.98C13 9.453 12.554 9 12 9" style="color:#dfdfdf;fill:currentColor"/></svg>