<svg xmlns="http://www.w3.org/2000/svg" viewBox="0 0 22 22"><path d="M3 3v16h16V3zm1 1h5v5H4V4m6 0h2v2h-2zm3 0h2v2h-2zm3 0h2v2h-2zm-6 3h2v2h-2zm3 0h2v2h-2zm3 0h2v2h-2zM4 10h2v2H4zm3 0h2v2H7zm3 0h2v2h-2zm3 0h2v2h-2zm3 0h2v2h-2zM4 13h2v2H4zm3 0h2v2H7zm3 0h2v2h-2zm3 0h2v2h-2zm3 0h2v2h-2zM4 16h2v2H4zm3 0h2v2H7zm3 0h2v2h-2zm3 0h2v2h-2zm3 0h2v2h-2z" style="color:#fcfcfc;fill:currentColor;fill-opacity:1;stroke:none"/><path d="M4 4v5h5V4H4" style="color:#3daee9;fill:currentColor;fill-opacity:1;stroke:none"/></svg>