<svg xmlns="http://www.w3.org/2000/svg" width="16" height="16"><defs><style id="current-color-scheme" type="text/css">.ColorScheme-Text{color:#dfdfdf}</style></defs><path d="M8 0a2 2 0 0 0-2 2H2a1 1 0 0 0-1 1v11a1 1 0 0 0 1 1h8v-3H4v-1h6v-1h5V3a1 1 0 0 0-1-1h-4a2 2 0 0 0-2-2m0 1a1 1 0 0 1 1 1 1 1 0 0 1-1 1 1 1 0 0 1-1-1 1 1 0 0 1 1-1M4 5h8v1H4Zm0 3h8v1H4Z" class="ColorScheme-Text" style="opacity:.35;fill:currentColor"/><path d="M11 11v1c0 .28.1.54.28.72l.78.78-.78.78c-.18.18-.28.44-.28.72v1h1c.28 0 .54-.1.72-.28l.78-.78.78.78c.18.18.44.28.72.28h1v-1c0-.28-.1-.54-.28-.72l-.78-.78.78-.78c.18-.18.28-.44.28-.72v-1h-1c-.28 0-.54.1-.72.28l-.78.78-.78-.78c-.18-.18-.44-.28-.72-.28Z" class="ColorScheme-Text" style="fill:currentColor"/></svg>