<svg xmlns="http://www.w3.org/2000/svg" viewBox="0 0 22 22"><path d="M12 5v8h1v-1.361A4 4 0 0 0 16 13a4 4 0 0 0 4-4 4 4 0 0 0-4-4 4 4 0 0 0-3 1.361V5zm4 1a3 3 0 0 1 3 3 3 3 0 0 1-3 3 3 3 0 0 1-3-3 3 3 0 0 1 3-3M5 11a4 4 0 0 0-4 4 4 4 0 0 0 4 4 4 4 0 0 0 3-1.361V19h1v-8H8v1.361A4 4 0 0 0 5 11m0 1a3 3 0 0 1 3 3 3 3 0 0 1-3 3 3 3 0 0 1-3-3 3 3 0 0 1 3-3" style="color:#fcfcfc;fill:currentColor;fill-opacity:1;stroke:none"/><path d="M10 3v16h1v-4h9v-1h-9V3z" style="color:#3daee9;fill:currentColor;fill-opacity:1;stroke:none"/></svg>