<svg xmlns="http://www.w3.org/2000/svg" width="24" height="24"><defs><style id="current-color-scheme" type="text/css">.ColorScheme-Text{color:#dfdfdf}</style></defs><path d="M1 4v16h22V4Z" class="ColorScheme-Text" style="opacity:.35;fill:currentColor" transform="rotate(-90 12 12)"/><path d="M.5 3c-.5 0-.5.5-.5.5v17c0 .5.5.5.5.5h23c.5 0 .5-.5.5-.5v-17c0-.5-.5-.5-.5-.5ZM1 4h6v11H4v-2l-3 2.5Zm7 0h8v11H8Zm9 0h6v11.5L20 13v2h-3ZM4 18v-2h3v4H1v-4.5Zm19-2.5V20h-6v-4h3v2ZM8 16h8v4H8Z" class="ColorScheme-Text" style="fill:currentColor" transform="rotate(-90 12 12)"/></svg>