<svg xmlns="http://www.w3.org/2000/svg" width="16" height="16"><path d="M7.865 1.008a1 1 0 0 0-.49.21l-5 4a1 1 0 0 0-.156 1.407 1 1 0 0 0 .67.37 1 1 0 0 0 .736-.214L8 3.281l4.375 3.5a1 1 0 0 0 .578.217 1 1 0 0 0 .828-.373 1 1 0 0 0-.156-1.406l-5-4a1 1 0 0 0-.76-.211m0 8a1 1 0 0 0-.49.21l-5 4a1 1 0 0 0-.156 1.407 1 1 0 0 0 .67.37 1 1 0 0 0 .736-.214L8 11.281l4.375 3.5a1 1 0 0 0 .578.217 1 1 0 0 0 .828-.373 1 1 0 0 0-.156-1.406l-5-4a1 1 0 0 0-.76-.211" style="color:#dfdfdf;fill:currentColor"/></svg>