<svg xmlns="http://www.w3.org/2000/svg" width="16" height="16"><defs><style id="current-color-scheme" type="text/css">.ColorScheme-Text{color:#dfdfdf}</style></defs><path d="M7 1 0 8h2v7h8.342A3.5 3.5 0 0 1 10 13.5a3.5 3.5 0 0 1 2-3.158V8h2zm0 5a2 2 0 0 1 2 2 2 2 0 0 1-2 2c3 0 3 2.5 3 2.5v.5H4v-.5S4 10 7 10a2 2 0 0 1-2-2 2 2 0 0 1 2-2" class="ColorScheme-Text" style="fill:currentColor"/><path d="M13.5 10v.857c-1.381 0-2.5 1.151-2.5 2.571S12.119 16 13.5 16c1.367 0 2.476-1.129 2.498-2.529a.417.429 0 0 0 .002-.043.417.429 0 0 0-.416-.428.417.429 0 0 0-.418.428c0 .947-.746 1.715-1.666 1.715s-1.666-.769-1.666-1.715.746-1.713 1.666-1.713v.857l1.666-1.287Z" class="ColorScheme-Text" style="fill:currentColor"/></svg>