<svg xmlns="http://www.w3.org/2000/svg" width="16" height="16"><defs><style id="current-color-scheme" type="text/css">.ColorScheme-Text{color:#fcfcfc}</style></defs><path d="M1.861 0C1.081 0 0 .692 0 1.576v12.811C0 15.271 1.08 16 1.861 16l3.891-2.947C6.36 12.597 7 12.324 7 11.439V4.525c0-.884-.812-1.222-1.248-1.613ZM2 1.354 5.852 4.26S6 4.328 6 4.525v6.914c0 .26-.102.26-.102.26L2 14.641Z" class="ColorScheme-Text" style="fill:currentColor"/><path d="M13.139 0C13.919 0 15 .692 15 1.576v12.811C15 15.271 13.919 16 13.139 16l-3.891-2.947C8.64 12.597 8 12.324 8 11.439V4.525c0-.884.812-1.222 1.248-1.613ZM13 1.354 9.148 4.26S9 4.328 9 4.525v6.914c0 .26.102.26.102.26L13 14.641Z" class="ColorScheme-Text" style="opacity:.35;fill:currentColor"/></svg>