<svg xmlns="http://www.w3.org/2000/svg" width="16" height="16"><path d="M1.25 1C1 1 1 1.25 1 1.25v3.5c0 .25.25.25.25.25h3.5C5 5 5 4.75 5 4.75v-3.5C5 1 4.75 1 4.75 1zm5 0C6 1 6 1.25 6 1.25v3.5c0 .25.25.25.25.25h3.5c.25 0 .25-.25.25-.25v-3.5C10 1 9.75 1 9.75 1zm5 0c-.25 0-.25.25-.25.25v3.5c0 .25.25.25.25.25h3.5c.25 0 .25-.25.25-.25v-3.5C15 1 14.75 1 14.75 1zm-10 5C1 6 1 6.25 1 6.25v3.5c0 .25.25.25.25.25h3.5C5 10 5 9.75 5 9.75v-3.5C5 6 4.75 6 4.75 6zm5 0C6 6 6 6.25 6 6.25v3.5c0 .25.25.25.25.25h3.5c.25 0 .25-.25.25-.25v-3.5C10 6 9.75 6 9.75 6zm5 0c-.25 0-.25.25-.25.25v3.5c0 .25.25.25.25.25h3.5c.25 0 .25-.25.25-.25v-3.5C15 6 14.75 6 14.75 6zm-10 5c-.25 0-.25.25-.25.25v3.5c0 .25.25.25.25.25h3.5c.25 0 .25-.25.25-.25v-3.5C5 11 4.75 11 4.75 11zm5 0c-.25 0-.25.25-.25.25v3.5c0 .25.25.25.25.25h3.5c.25 0 .25-.25.25-.25v-3.5c0-.25-.25-.25-.25-.25zm5 0c-.25 0-.25.25-.25.25v3.5c0 .25.25.25.25.25h3.5c.25 0 .25-.25.25-.25v-3.5c0-.25-.25-.25-.25-.25z" style="color:#dfdfdf;fill:currentColor"/></svg>