<svg xmlns="http://www.w3.org/2000/svg" width="16" height="16"><path d="M4.5 0A2.517 2.517 0 0 0 2 2.5v2.55A2.52 2.52 0 0 0 0 7.5v6C0 14.868 1.132 16 2.5 16h6c.338 0 .661-.07.957-.195A4.5 4.5 0 0 1 8.267 14H2.5a.48.48 0 0 1-.5-.5v-6c0-.294.206-.5.5-.5h6c.294 0 .5.206.5.5v2.186a4.5 4.5 0 0 1 2-1.418V7.5C11 6.132 9.868 5 8.5 5h5A2.5 2.5 0 0 1 11 2.5V3H7.5a2.52 2.52 0 0 0-2.45 2H4V2.5c0-.294.206-.5.5-.5h6c.294 0 .5.206.5.5a2.5 2.5 0 0 1 .998-1.99A2.47 2.47 0 0 0 10.5 0zm9 5c.294 0 .5.206.5.5v2.758a4.5 4.5 0 0 1 2 1.414V5.5c0-.56-.192-1.079-.51-1.498A2.5 2.5 0 0 1 13.5 5m0-4A1.5 1.5 0 0 0 12 2.5 1.5 1.5 0 0 0 13.5 4 1.5 1.5 0 0 0 15 2.5 1.5 1.5 0 0 0 13.5 1m-1 8a3.5 3.5 0 1 0 0 7 3.5 3.5 0 0 0 0-7m0 1a2.5 2.5 0 1 1 0 5 2.5 2.5 0 0 1-.5-.057v-1.029A1.5 1.5 0 1 0 11.086 12H12l-2 2v-2h.05a2.5 2.5 0 0 1 2.45-2" style="color:#dfdfdf;fill:currentColor"/></svg>