<svg xmlns="http://www.w3.org/2000/svg" width="16" height="16"><path d="M4.5 0A2.517 2.517 0 0 0 2 2.5v2.55A2.52 2.52 0 0 0 0 7.5v6C0 14.868 1.132 16 2.5 16h6a2.52 2.52 0 0 0 2.45-2h2.55c1.368 0 2.5-1.132 2.5-2.5v-6C16 4.132 14.868 3 13.5 3H13v-.5C13 1.132 11.868 0 10.5 0zm0 2h6c.294 0 .5.206.5.5V3H7.5a2.52 2.52 0 0 0-2.45 2H4V2.5c0-.294.206-.5.5-.5m4 3h5c.294 0 .5.206.5.5v6c0 .294-.206.5-.5.5H11V7.5C11 6.132 9.868 5 8.5 5m-6 2h6c.294 0 .5.206.5.5v6c0 .294-.206.5-.5.5h-6a.48.48 0 0 1-.5-.5v-6c0-.294.206-.5.5-.5" style="color:#dfdfdf;fill:currentColor"/></svg>