<svg xmlns="http://www.w3.org/2000/svg" width="16" height="16"><path d="M4.5 0A2.517 2.517 0 0 0 2 2.5v2.55A2.52 2.52 0 0 0 0 7.5v6C0 14.868 1.132 16 2.5 16h6c.338 0 .661-.07.957-.195A4.5 4.5 0 0 1 8.267 14H2.5a.48.48 0 0 1-.5-.5v-6c0-.294.206-.5.5-.5h6c.294 0 .5.206.5.5v2.186a4.5 4.5 0 0 1 2-1.418V7.5C11 6.132 9.868 5 8.5 5h5c.294 0 .5.206.5.5v2.758a4.5 4.5 0 0 1 2 1.414V5.5C16 4.132 14.868 3 13.5 3H13v-.5C13 1.132 11.868 0 10.5 0zm0 2h6c.294 0 .5.206.5.5V3H7.5a2.52 2.52 0 0 0-2.45 2H4V2.5c0-.294.206-.5.5-.5m8 7A3.5 3.5 0 0 0 9 12.5a3.5 3.5 0 0 0 3.5 3.5 3.5 3.5 0 0 0 3.5-3.5A3.5 3.5 0 0 0 12.5 9m-.5 1h1v2h2v1h-3z" style="color:#dfdfdf;fill:currentColor"/></svg>