<svg xmlns="http://www.w3.org/2000/svg" width="16" height="16"><path d="m6.203 1-1.924.621C.214 2.933.082 2.981.031 3.135c-.038.117.123.309.82.98.478.46.868.87.868.912s-.387.439-.86.881c-.473.443-.859.848-.859.9s.054.142.121.196 1.438.525 3.047 1.045 2.957.948 2.994.951.466-.372.953-.834L8 7.324l.895.85c.492.467.937.833.99.814.053-.018 1.391-.446 2.974-.95C15.59 7.166 16 7.007 16 6.82c0-.044-.386-.45-.86-.902-.472-.453-.859-.855-.859-.895s.39-.448.867-.908c.697-.67.86-.864.82-.98-.038-.117-.477-.286-2.232-.862-1.201-.393-2.58-.841-3.064-.994l-.879-.275-.897.86L8 2.72l-.898-.862Zm1.81 2 2.231.742c1.226.408 2.241.751 2.256.766.015.014-.968.352-2.184.75A522 522 0 0 1 8.036 6c-.09.024-4.577-1.454-4.536-1.494.016-.016 1.04-.362 2.273-.768ZM8 8.705l-.197.186c-.252.238-.487.455-.674.619a7 7 0 0 1-.25.21 2 2 0 0 1-.129.094c-.028.02-.058.042-.123.075a1 1 0 0 1-.291.095 3 3 0 0 1-.256.012c-.001 0-.147-.022-.166-.027l-.043-.012-.068-.02-.196-.058-.656-.207C4.406 9.499 3.667 9.26 2.861 9c-.327-.106-.558-.186-.857-.285.005 1.847.037 4.332.076 4.392.04.061 1.363.534 2.94 1.053h.001c1.577.519 2.981.955 2.981.955v-.013s1.457-.448 3-.95l.463-.152-.297-.445A1 1 0 0 1 12 12v-2a1 1 0 0 1 .35-.75l-1.246.398-.649.207c-.157.05-.344.115-.236.077-.001 0-.167.045-.235.052a1 1 0 0 1-.171.002 1 1 0 0 1-.213-.035c-.104-.029-.157-.057-.202-.08a1.4 1.4 0 0 1-.187-.111 4 4 0 0 1-.291-.223c-.206-.17-.452-.39-.713-.637Z" style="color:#dfdfdf;fill:currentColor"/><path d="M13 10v3h-1l1 1.5 1 1.5 1-1.5 1-1.5h-1v-3z" class="success" style="color:#4caf50;fill:currentColor"/></svg>