<svg xmlns="http://www.w3.org/2000/svg" width="16" height="16"><path d="m6.203 1-1.924.614C.214 2.927.082 2.974.031 3.128c-.038.117.123.309.82.98.478.46.868.87.868.913 0 .042-.387.438-.86.88-.473.443-.859.848-.859.9 0 .054.054.142.121.196s1.438.525 3.047 1.045 2.957.948 2.994.951.466-.372.953-.834L8 7.317l.895.85c.492.467.937.833.99.814.053-.018 1.391-.446 2.974-.95C15.59 7.16 16 7 16 6.812c0-.043-.386-.449-.86-.902-.472-.453-.859-.855-.859-.894s.39-.449.867-.909c.697-.67.86-.864.82-.98-.038-.117-.477-.286-2.232-.861a432 432 0 0 0-3.064-.995l-.879-.268-.897.852L8 2.714l-.898-.861Zm1.81 1.993 2.231.742c1.226.408 2.241.752 2.256.766s-.968.352-2.184.75a324 324 0 0 1-2.28.742C7.945 6.017 3.458 4.54 3.5 4.5c.016-.016 1.04-.361 2.273-.768ZM8 8.698l-.197.186c-.252.238-.487.455-.674.619a7 7 0 0 1-.25.21 2 2 0 0 1-.129.095c-.028.018-.058.04-.123.074a1 1 0 0 1-.291.096c-.062.01-.252.011-.256.011-.001 0-.147-.022-.166-.027l-.043-.012-.068-.02-.196-.058-.656-.207a410 410 0 0 1-2.09-.672c-.327-.106-.558-.186-.857-.285.005 1.847.037 4.333.076 4.393.04.06 1.363.533 2.94 1.052h.001A39 39 0 0 0 8.002 15v-.014c2.078-.647 5.902-1.87 5.902-1.87.072-.088.096-.684.096-2.385 0-.512-.001-1.297-.004-2.017-.276.089-.489.16-.834.27l-2.058.658-.649.207c-.157.05-.344.114-.236.076-.001 0-.167.046-.235.053a1 1 0 0 1-.171.001 1 1 0 0 1-.213-.035c-.104-.029-.157-.057-.202-.08a1.4 1.4 0 0 1-.187-.111 4 4 0 0 1-.291-.223c-.206-.17-.452-.39-.713-.636Z" style="color:#dfdfdf;fill:currentColor"/></svg>