<svg xmlns="http://www.w3.org/2000/svg" width="16" height="16"><path d="M3 1S2 1 2 2v12c0 1 1 1 1 1h5v-2H4V3.01h8V9h2V2c0-1-1-1-1-1zm4 3v3.086A1.5 1.5 0 0 0 6.5 7 1.5 1.5 0 0 0 5 8.5 1.5 1.5 0 0 0 6.5 10 1.5 1.5 0 0 0 8 8.5V5h1V4zm2 6v1c0 .28.11.53.29.71l1.3 1.29-1.3 1.29c-.18.18-.29.43-.29.71v1h1c.28 0 .53-.11.71-.29l1.29-1.3 1.29 1.3c.18.18.43.29.71.29h1v-1c0-.28-.11-.53-.29-.71L13.41 13l1.3-1.29c.18-.18.29-.43.29-.71v-1h-1c-.28 0-.53.11-.71.29L12 11.59l-1.29-1.3A1 1 0 0 0 10 10z" style="color:#fcfcfc;fill:currentColor"/></svg>