<svg xmlns="http://www.w3.org/2000/svg" viewBox="0 0 22 22"><path fill="currentColor" d="M11 3a8 8 0 0 0-8 8 8 8 0 0 0 8 8 8 8 0 0 0 4.893-1.693l2.4 2.4a1 1 0 0 0 1.414 0 1 1 0 0 0 0-1.414l-2.4-2.4A8 8 0 0 0 19 11a8 8 0 0 0-8-8m0 1a7 7 0 0 1 7 7 7 7 0 0 1-.303 2H4.303A7 7 0 0 1 4 11a7 7 0 0 1 7-7m-4 6v2h8v-2zm-2.31 4H5v.564A7 7 0 0 1 4.69 14M6 14h1v1h1v-1h1v1h1v-1h1v1h1v-1h1v1h1v-1h1v1h1v-1h1v.564A7 7 0 0 1 11 18a7 7 0 0 1-5.734-3H6z" style="color:#fcfcfc;-inkscape-stroke:none;paint-order:markers stroke fill"/></svg>