<svg xmlns="http://www.w3.org/2000/svg" width="48" height="48"><path d="M24 5C12.92 5 4 13.92 4 25s8.92 20 20 20 20-8.92 20-20S35.08 5 24 5" style="opacity:.2"/><path d="M24 4C12.92 4 4 12.92 4 24s8.92 20 20 20 20-8.92 20-20S35.08 4 24 4" style="fill:#ffa50c"/><path d="M17 18a3 3 0 0 0-3 3c0 1.657 1.343 0 3 0s3 1.657 3 0a3 3 0 0 0-3-3M31 18a3 3 0 0 0-3 3c0 1.657 1.343 0 3 0s3 1.657 3 0a3 3 0 0 0-3-3M24 30c-4.97 0-9 0-9 1.7 0 2.76 4.03 5.3 9 5.3s9-2.54 9-5.3c0-1.7-4.03-1.7-9-1.7" style="opacity:.1"/><path d="M24 4A19.955 19.955 0 0 0 4.002 24c0 .168-.004.333 0 .5C4.266 13.654 13.089 5 24 5s19.734 8.654 19.998 19.5c.004-.167 0-.332 0-.5C43.998 12.92 35.08 4 24 4" style="opacity:.2;fill:#fff"/><path d="M20 20c0 1.656-1.343 0-3 0s-3 1.656-3 0a3 3 0 0 1 6 0M34 20c0 1.656-1.343 0-3 0s-3 1.656-3 0a3 3 0 0 1 6 0" style="fill:#3f3f3f"/><path d="M33 30.7c0 2.761-4.03 5.3-9 5.3s-9-2.539-9-5.3c0-1.7 4.03-1.7 9-1.7s9 0 9 1.7" style="fill:#7f2a23"/><path d="M8.502 30.614c-1.464-.845-1.846-2.804-1.198-3.925.45-.779 1.345-1.454 2.585-2.392q.27-.203.56-.424c.985-.753 2.2-1.474 3.022-1.937-.033.902-.09 2.264-.18 3.61-.17 2.444-.347 3.374-.79 4.143-.648 1.121-2.535 1.77-4 .925" style="opacity:.1"/><path d="M8.502 29.614c-1.464-.845-1.846-2.804-1.198-3.925.45-.779 1.345-1.454 2.585-2.392q.27-.203.56-.424c.985-.753 2.2-1.474 3.022-1.937-.033.902-.09 2.264-.18 3.61-.17 2.444-.347 3.374-.79 4.143-.648 1.121-2.535 1.77-4 .925" style="fill:#2e84d7"/><path d="M39.569 30.614c1.464-.845 1.845-2.804 1.198-3.925-.45-.779-1.345-1.454-2.585-2.392q-.271-.203-.56-.424c-.985-.753-2.201-1.474-3.022-1.937.033.902.09 2.264.18 3.61.17 2.444.347 3.374.79 4.143.648 1.121 2.535 1.77 3.999.925" style="opacity:.1"/><path d="M39.569 29.614c1.464-.845 1.845-2.804 1.198-3.925-.45-.779-1.345-1.454-2.585-2.392q-.271-.203-.56-.424c-.985-.753-2.201-1.474-3.022-1.937.033.902.09 2.264.18 3.61.17 2.444.347 3.374.79 4.143.648 1.121 2.535 1.77 3.999.925" style="fill:#2e84d7"/></svg>