<svg xmlns="http://www.w3.org/2000/svg" width="48" height="48"><path d="M4.29 2A11.3 11.3 0 0 0 4 4.434C4.008 7.097 5 14 6 14l6-4C9.058 7.822 4.997 5.054 4.29 2m33.42 0c-.707 3.054-4.768 5.822-7.71 8l6 4c1 0 1.992-6.903 2-9.566A11.3 11.3 0 0 0 37.71 2M22.909 26.404l-3.816 1.192s1.298 4.187 3.814 8.425c1.259 2.12 2.824 4.283 4.801 5.993S32.157 45 35 45c5.093 0 8.08-2.622 9.207-5.2 1.127-2.576.777-5.048.777-5.048l-3.968.496s.15 1.528-.473 2.951S38.907 41 35 41c-1.657 0-3.184-.724-4.676-2.014s-2.864-3.127-3.98-5.007c-2.234-3.762-3.436-7.575-3.436-7.575" style="opacity:.2"/><path d="M37.71 1c.186.804.283 1.618.29 2.434C37.992 6.097 37 13 36 13l-6-4c2.942-2.178 7.002-4.946 7.71-8M4.29 1A11.3 11.3 0 0 0 4 3.434C4.008 6.097 5 13 6 13l6-4C9.058 6.822 4.998 4.054 4.29 1" style="fill:#892b26"/><path d="M21 26s5 16 14 16 8-8 8-8" style="fill:none;stroke:#892b26;stroke-width:4"/><path d="M4.29 1A11.3 11.3 0 0 0 4 3.434c0 .174.017.407.025.615.03-.687.108-1.372.264-2.049.655 2.823 4.15 5.378 7.002 7.473L12 9C9.058 6.822 4.997 4.054 4.29 1m33.42 0c-.707 3.054-4.768 5.822-7.71 8l.709.473c2.852-2.095 6.347-4.65 7.002-7.473.156.677.234 1.362.264 2.049.008-.208.024-.441.025-.615A11.3 11.3 0 0 0 37.71 1M22.909 25.404l-3.816 1.192s.117.359.31.902l3.506-1.094s1.202 3.813 3.436 7.575c1.116 1.88 2.489 3.717 3.98 5.007S33.343 41 35 41c3.907 0 4.92-1.378 5.543-2.8.623-1.424.473-2.952.473-2.952l3.968-.496s.019.16.034.389c.03-.824-.034-1.389-.034-1.389l-3.968.496s.15 1.528-.473 2.951S38.907 40 35 40c-1.657 0-3.184-.724-4.676-2.014s-2.864-3.127-3.98-5.007c-2.234-3.762-3.436-7.575-3.436-7.575" style="fill:#fff;opacity:.1"/><path d="M21 5C9.92 5 1 13.92 1 25s8.92 20 20 20 20-8.92 20-20S32.08 5 21 5" style="opacity:.2"/><path d="M21 4C9.92 4 1 12.92 1 24s8.92 20 20 20 20-8.92 20-20S32.08 4 21 4" style="fill:#d4453a"/><path d="M12.785 16.01c-.25.04-.522.198-.838.511a3.193 3.193 0 0 0 0 4.54 3.25 3.25 0 0 0 4.573 0c1.262-1.254-.222-2.04-1.485-3.293-.947-.94-1.5-1.878-2.25-1.758m16.43 0c-.75-.12-1.303.817-2.25 1.758-1.263 1.253-2.747 2.04-1.485 3.293a3.25 3.25 0 0 0 4.573 0 3.193 3.193 0 0 0 0-4.54c-.316-.313-.588-.471-.838-.511m.822 13.978a1 1 0 0 0-.838.412S26.556 34 21 34s-8.2-3.6-8.2-3.6a1 1 0 1 0-1.6 1.2S14.555 36 21 36s9.8-4.4 9.8-4.4a1 1 0 0 0-.763-1.612" style="opacity:.1"/><path d="M16.52 20.06c1.262-1.254-.222-2.04-1.485-3.293s-1.825-2.5-3.088-1.246a3.193 3.193 0 0 0 0 4.539 3.25 3.25 0 0 0 4.573 0" style="fill:#3f3f3f"/><path d="M12 30s3 4 9 4 9-4 9-4v0" style="fill:none;stroke:#3f3f3f;stroke-width:2;stroke-linecap:round;stroke-linejoin:round"/><path d="M25.48 20.06c-1.262-1.254.222-2.04 1.485-3.293s1.825-2.5 3.088-1.246a3.193 3.193 0 0 1 0 4.539 3.25 3.25 0 0 1-4.573 0" style="fill:#3f3f3f"/><path d="M42.952 30.001a.896.875 0 0 0-.728.437l-1.551 2.625-1.553 2.625A.896.875 0 0 0 39.897 37h6.206a.896.875 0 0 0 .777-1.312l-1.553-2.625-1.551-2.625a.896.875 0 0 0-.824-.437" style="opacity:.2"/><path d="M42.952 29.001a.896.875 0 0 0-.728.437l-1.551 2.625-1.553 2.625A.896.875 0 0 0 39.897 36h6.206a.896.875 0 0 0 .777-1.312l-1.553-2.625-1.551-2.625a.896.875 0 0 0-.824-.437" style="fill:#d4453a"/><path d="M21 4C9.92 4 1 12.92 1 24c0 .168.008.333.012.5A19.95 19.95 0 0 1 21 5a19.95 19.95 0 0 1 19.988 19.5c.004-.167.012-.332.012-.5 0-11.08-8.92-20-20-20" style="fill:#fff;opacity:.1"/><path d="M42.953 29.002a.896.875 0 0 0-.728.436l-1.553 2.625-1.553 2.624a.896.875 0 0 0 .04.934l1.513-2.559 1.553-2.624a.896.875 0 0 1 .728-.436.896.875 0 0 1 .822.436l1.553 2.625 1.514 2.558a.896.875 0 0 0 .039-.934l-1.553-2.624-1.553-2.626a.896.875 0 0 0-.822-.435" style="opacity:.1;fill:#fff"/></svg>