<svg xmlns="http://www.w3.org/2000/svg" width="48" height="48"><path d="M24 5C12.92 5 4 13.92 4 25s8.92 20 20 20 20-8.92 20-20S35.08 5 24 5" style="opacity:.2"/><path d="M24 4C12.92 4 4 12.92 4 24s8.92 20 20 20 20-8.92 20-20S35.08 4 24 4" style="fill:#ffa50c"/><path d="M17 18a3 3 0 0 0-3 3c0 1.657 1.343 0 3 0s3 1.657 3 0a3 3 0 0 0-3-3m14 0a3 3 0 0 0-3 3c0 1.657 1.343 0 3 0s3 1.657 3 0a3 3 0 0 0-3-3m2.037 11.988a1 1 0 0 0-.838.412S29.556 34 24 34s-8.2-3.6-8.2-3.6a1 1 0 1 0-1.6 1.2S17.555 36 24 36s9.8-4.4 9.8-4.4a1 1 0 0 0-.763-1.612" style="opacity:.1"/><path d="M24 4C12.92 4 4 12.92 4 24c0 .168-.004.333 0 .5C4.264 13.654 13.088 5 24 5s19.736 8.654 20 19.5c.004-.167 0-.332 0-.5 0-11.08-8.92-20-20-20" style="opacity:.2;fill:#fff"/><path d="M20 20c0 1.656-1.343 0-3 0s-3 1.656-3 0a3 3 0 0 1 6 0M34 20c0 1.656-1.343 0-3 0s-3 1.656-3 0a3 3 0 0 1 6 0" style="fill:#3f3f3f"/><path d="M24 2A19 6 0 0 0 5 8a19 6 0 0 0 19 6 19 6 0 0 0 19-6 19 6 0 0 0-19-6m0 2a19.94 19.94 0 0 1 10.852 3.191c.487.122.955.247 1.378.381.476.15.572.27.952.428-.38.157-.476.278-.952.428C33.35 9.338 28.905 10 24 10s-9.35-.662-12.23-1.572c-.476-.15-.572-.27-.952-.428.38-.157.476-.278.952-.428.421-.133.887-.257 1.373-.379A19.94 19.94 0 0 1 24 4" style="fill:#f5ff51"/><path d="M5.078 8.494A19 6 0 0 0 5 9a19 6 0 0 0 19 6 19 6 0 0 0 19-6 19 6 0 0 0-.078-.494A19 6 0 0 1 24 14 19 6 0 0 1 5.078 8.494" style="opacity:.1"/><path d="M15 30s3 4 9 4 9-4 9-4v0" style="fill:none;stroke:#3f3f3f;stroke-width:2;stroke-linecap:round;stroke-linejoin:round"/></svg>