<svg xmlns="http://www.w3.org/2000/svg" width="48" height="48"><path d="M24 5C12.92 5 4 13.92 4 25s8.92 20 20 20 20-8.92 20-20S35.08 5 24 5" style="opacity:.2"/><path d="M24 4C12.92 4 4 12.92 4 24s8.92 20 20 20 20-8.92 20-20S35.08 4 24 4" style="fill:#ffa50c"/><path d="M15.009 31s3 4 9 4 9-4 9-4v0" style="opacity:.1;fill:none;stroke:#000;stroke-width:2;stroke-linecap:round;stroke-linejoin:round"/><path d="M24 4C12.92 4 4 12.92 4 24c0 .168-.004.333 0 .5C4.264 13.654 13.088 5 24 5s19.736 8.654 20 19.5c.004-.167 0-.332 0-.5 0-11.08-8.92-20-20-20" style="opacity:.2;fill:#fff"/><path d="M20 16s2-1 4-1 4 1 4 1v2s-2-1-4-1-4 1-4 1z" style="opacity:.1"/><path d="M20 15s2-1 4-1 4 1 4 1v2s-2-1-4-1-4 1-4 1z" style="fill:#682c76"/><rect width="3" height="4" x="3" y="15" rx="1" ry="1" style="opacity:.1"/><rect width="3" height="4" x="3" y="14" rx="1" ry="1" style="fill:#682c76"/><rect width="3" height="4" x="42" y="15" rx="1" ry="1" style="opacity:.1"/><rect width="3" height="4" x="42" y="14" rx="1" ry="1" style="fill:#682c76"/><path d="M15.009 30s3 4 9 4 9-4 9-4v0" style="fill:none;stroke:#3f3f3f;stroke-width:2;stroke-linecap:round;stroke-linejoin:round"/><circle cx="15" cy="19" r="2" style="fill:#3f3f3f"/><path d="M20 17a7 7 0 0 1-7 7 7 7 0 0 1-7-7 7 7 0 0 1 7-7 7 7 0 0 1 7 7" style="opacity:.3;fill:#0da3ff"/><circle cx="33" cy="19" r="2" style="fill:#3f3f3f"/><path d="M42 17a7 7 0 0 1-7 7 7 7 0 0 1-7-7 7 7 0 0 1 7-7 7 7 0 0 1 7 7" style="opacity:.3;fill:#0da3ff"/><path d="M13 10a8 8 0 0 0-8 8 8 8 0 0 0 8 8 8 8 0 0 0 8-8 8 8 0 0 0-8-8m0 2c3.337 0 6 2.663 6 6s-2.663 6-6 6a5.97 5.97 0 0 1-6-6c0-3.337 2.663-6 6-6" style="opacity:.1"/><path d="M13 9a8 8 0 0 0-8 8 8 8 0 0 0 8 8 8 8 0 0 0 8-8 8 8 0 0 0-8-8m0 2c3.337 0 6 2.663 6 6s-2.663 6-6 6a5.97 5.97 0 0 1-6-6c0-3.337 2.663-6 6-6" style="fill:#b62fb1"/><path d="M35 10a8 8 0 0 0-8 8 8 8 0 0 0 8 8 8 8 0 0 0 8-8 8 8 0 0 0-8-8m0 2c3.337 0 6 2.663 6 6s-2.663 6-6 6a5.97 5.97 0 0 1-6-6c0-3.337 2.663-6 6-6" style="opacity:.1"/><path d="M35 9a8 8 0 0 0-8 8 8 8 0 0 0 8 8 8 8 0 0 0 8-8 8 8 0 0 0-8-8m0 2c3.337 0 6 2.663 6 6s-2.663 6-6 6a5.97 5.97 0 0 1-6-6c0-3.337 2.663-6 6-6" style="fill:#b62fb1"/></svg>