<svg xmlns="http://www.w3.org/2000/svg" width="48" height="48"><path d="M24 5C12.92 5 4 13.92 4 25s8.92 20 20 20 20-8.92 20-20S35.08 5 24 5" style="opacity:.2"/><path d="M24 4C12.92 4 4 12.92 4 24s8.92 20 20 20 20-8.92 20-20S35.08 4 24 4" style="fill:#ffa50c"/><path d="M15 34.989s3-4 9-4 9 4 9 4v0" style="opacity:.1;fill:none;stroke:#000;stroke-width:2;stroke-linecap:round;stroke-linejoin:round"/><path d="M15 33.989s3-4 9-4 9 4 9 4v0" style="fill:none;stroke:#3f3f3f;stroke-width:2;stroke-linecap:round;stroke-linejoin:round"/><path d="M24 4C12.92 4 4 12.92 4 24c0 .168.008.333.012.5A19.95 19.95 0 0 1 24 5a19.95 19.95 0 0 1 19.988 19.5c.004-.167.012-.332.012-.5 0-11.08-8.92-20-20-20" style="opacity:.2;fill:#fff"/><circle cx="31" cy="19" r="3" style="opacity:.1"/><circle cx="31" cy="18" r="3" style="fill:#3f3f3f"/><circle cx="17" cy="19" r="3" style="opacity:.1"/><circle cx="17" cy="18" r="3" style="fill:#3f3f3f"/></svg>