<svg xmlns="http://www.w3.org/2000/svg" viewBox="0 0 22 22"><path d="M3 5v13h16V5zm1 1h14v11H4zm6.488.584a5.036 4.883 0 0 0-4.498 5.195 5.036 4.883 0 0 0 5.198 4.541 5.036 4.883 0 0 0 4.86-4.88L16 10.763a5.036 4.883 0 0 0-5.512-4.18m.094.963a4.013 3.91 0 0 1 4.393 3.348l.039.54a4.013 3.91 0 0 1-.934 2.506L8.56 8.42a4.013 3.91 0 0 1 2.022-.873M7.826 9.1l5.508 5.51a4.013 3.91 0 0 1-2.195.734 4.013 3.91 0 0 1-4.143-3.637 4.013 3.91 0 0 1 .83-2.607" style="color:#da4453;fill:currentColor;fill-opacity:1;stroke:none"/></svg>