<svg xmlns="http://www.w3.org/2000/svg" id="svg1" viewBox="0 0 22 22"><style id="current-color-scheme" type="text/css">.ColorScheme-Text{color:#fcfcfc}</style><g id="input-keyboard-color" transform="translate(-370 -534.362)"><rect id="rect1" width="22" height="22" x="370" y="534.362" fill="none" ry="0"/><g fill="currentColor"><path id="path1" fill="currentColor" d="M20 109v14l7 2 7-2v-9h-1v6H21v-10h8v-1zm14 2q-27-7.5 0 0m-7.562 1L24 118h1.074l.406-1h3.04l.406 1H30l-2.44-6h-.537l-.023.01-.023-.01zm.562 1.258L28.113 116h-2.226zM21 121h12v1H21z" class="ColorScheme-Text" transform="translate(354 428.362)"/><path id="path2" fill="currentColor" d="M386.5 537.913c-.218.513-.503.942-.75 1.315-.167.26-.356.545-.482.862q-.052.167-.054.342c0 .406.208.763.525.986q.164.036.332.037c.828 0 1.5-.64 1.5-1.431q-.002-.164-.04-.323l.037.054a9 9 0 0 0-.32-.527c-.247-.373-.532-.802-.75-1.314" class="ColorScheme-Text"/><path id="path3" fill="currentColor" d="M386.5 537.362a5 5 0 0 1-.238.626c-.462 1.013-1.185 1.706-1.255 2.345q-.004.015-.007.03h.006c-.001.022-.006.044-.006.066 0 .791.672 1.432 1.5 1.432s1.5-.641 1.5-1.432c0-.021-.005-.044-.006-.066H388q-.004-.016-.007-.03c-.07-.64-.793-1.332-1.255-2.345a5 5 0 0 1-.237-.626m0 .55c.217.512.502.94.748 1.314.168.26.357.546.483.862q.052.167.054.342c0 .678-.575 1.228-1.285 1.228s-1.286-.55-1.286-1.228q.001-.174.055-.342c.126-.316.315-.601.482-.862.247-.373.531-.802.749-1.314" class="ColorScheme-Text"/></g></g></svg>