<svg xmlns="http://www.w3.org/2000/svg" width="22" height="22"><path d="M1 3v16h20V3H1m1 1h.049l.222.223 5.752 5.754L6 12l-4 4V4m1.463 0h15.074L11 11.537zM19.95 4H20v12l-4-4-2.023-2.023 5.752-5.754zm-11.22 6.684 1.453 1.45.814.815H11l.816-.814 1.454-1.451L14.586 12l4.951 4.951.463.463V18H2v-.586l.463-.463L7.414 12z" style="color:#fcfcfc;fill:currentColor"/><path d="M0 0h22v22H0z" style="opacity:1;fill:none;fill-opacity:1;stroke:none;stroke-width:.1;stroke-linecap:square;stroke-linejoin:miter;stroke-miterlimit:4;stroke-dasharray:none;stroke-dashoffset:0;stroke-opacity:1"/></svg>