<svg xmlns="http://www.w3.org/2000/svg" viewBox="0 0 22 22"><path fill="currentColor" d="m3.936 6 .757.48a10.802 8.368 0 0 0-1.71 4.518A10.802 8.368 0 0 0 4.7 15.51l-.77.49A11.784 9.13 0 0 1 2 10.998 11.784 9.13 0 0 1 3.936 6m2.296 1.46L7 7.948a7.856 6.086 0 0 0-1.072 3.055 7.856 6.086 0 0 0 1.07 3.057l-.768.486a8.838 6.847 0 0 1-1.285-3.543 8.838 6.847 0 0 1 1.287-3.541" style="color:#27ae60"/><path fill="currentColor" d="M14.5 3C15.885 3 17 4.115 17 5.5v6c0 1.385-1.115 2.5-2.5 2.5S12 12.885 12 11.5v-6C12 4.115 13.115 3 14.5 3m5.5 7v1c0 2.236-1.634 4.199-4 4.809V18h2v1h-7v-1h2v-2.193c-2.365-.61-3.998-2.572-4-4.807v-1h1v1c0 2.21 2.015 4 4.5 4s4.5-1.79 4.5-4v-1z" style="color:#fcfcfc"/></svg>