<svg xmlns="http://www.w3.org/2000/svg" viewBox="0 0 22 22"><g fill="currentColor" style="color:#fcfcfc"><path fill-rule="evenodd" d="M19 9v2a5 5 0 0 1-4 4.9V18h2v1h-6v-1h2v-2.1A5 5 0 0 1 9 11V9h1v2a4 4 0 1 0 8 0V9zm-5-6a3 3 0 0 1 3 3v5a3 3 0 0 1-6 0V6a3 3 0 0 1 3-3"/><path d="m7.72 3.828.452.893-.447.226a6.83 6.83 0 0 0-2.72 2.498C4.355 8.505 4 9.755 4 11s.354 2.495 1.006 3.555a6.83 6.83 0 0 0 2.719 2.498l.447.226-.451.893-.446-.225c-1.279-.646-2.37-1.648-3.12-2.869S3 12.433 3 11s.403-2.858 1.154-4.078 1.842-2.223 3.121-2.87z" opacity=".35"/><path d="m8.781 6.55.438.9a4 4 0 0 0-1.62 1.456C7.212 9.528 7 10.266 7 11s.211 1.472.6 2.094c.388.621.96 1.136 1.619 1.457l-.438.898c-.83-.405-1.54-1.042-2.029-1.826S6 11.924 6 11s.262-1.84.752-2.623 1.199-1.421 2.03-1.826"/></g></svg>