<svg xmlns="http://www.w3.org/2000/svg" viewBox="0 0 22 22"><path fill="currentColor" d="m3.5 2.793-.707.707.353.354 15 15 .354.353.707-.707-.353-.354-15-15z" style="color:#da4453"/><g fill="currentColor" style="color:#232629"><path d="M14 3a3 3 0 0 0-3 3v3l4.563 4.563A3 3 0 0 0 17 11V6a3 3 0 0 0-3-3m4 6v2c0 1.36-.68 2.56-1.717 3.283L17 15a5 5 0 0 0 2-4V9zm-9 2a5 5 0 0 0 4 4.9V18h-2v1h6l-1-1h-1v-1l-2.176-2.176a4.01 4.01 0 0 1-2.648-2.648z"/><g opacity=".35"><path d="m7.72 3.828-.445.225a8 8 0 0 0-.773.449l.725.725q.243-.15.498-.28l.447-.226zM4.46 6.461A7.817 7.817 0 0 0 3 11c0 1.432.403 2.857 1.154 4.077s1.842 2.223 3.121 2.87l.446.224.45-.893-.446-.226a6.83 6.83 0 0 1-2.72-2.498C4.355 13.495 4 12.245 4 11a6.84 6.84 0 0 1 1.18-3.82z"/><path d="M6.613 8.613A5 5 0 0 0 6 11c0 .924.262 1.84.752 2.623s1.199 1.421 2.03 1.826l.437-.898a4 4 0 0 1-1.62-1.457A4 4 0 0 1 7 11c0-.563.124-1.129.357-1.643z"/></g></g></svg>