<svg xmlns="http://www.w3.org/2000/svg" width="22" height="22"><path d="M25 3v6h2v7c0 1.662 1.338 3 3 3h4v-5h-5v2h2v2h-1c-1.108 0-2-.892-2-2V9h2V3zm6 0v1h9v7h1V3H31m-5 1h3v4h-3zm1 1v2h1V5zm-2 5v6h1v-6zm13 2c-1.108 0-2 .892-2 2v2h-1v3h6v-3h-1v-2c0-1.108-.892-2-2-2m0 1c.554 0 1 .446 1 1v2h-2v-2c0-.554.446-1 1-1" style="color:#fcfcfc;opacity:1;fill:currentColor;fill-opacity:1;stroke:none" transform="translate(-22)"/><path d="M22 0h22v22H22z" style="opacity:1;fill:none;fill-opacity:1;stroke:none" transform="translate(-22)"/></svg>