<svg xmlns="http://www.w3.org/2000/svg" width="22" height="22"><path d="M185 79v6h2v7c0 1.662 1.338 3 3 3h4v-5h-5v2h2v2h-1c-1.108 0-2-.892-2-2v-7h2v-6zm6 0v1h9v7h1v-8h-1zm-5 1h3v4h-3zm1 1v2h1v-2zm-2 5v6h1v-6z" style="color:#fcfcfc;opacity:.35;fill:currentColor;fill-opacity:1;stroke:none" transform="translate(-182 -76)"/><path d="M182 76h22v22h-22z" style="opacity:1;fill:none;fill-opacity:1;stroke:none" transform="translate(-182 -76)"/><path d="m195.848 89.003-.848.849 2.152 2.151L195 94.155l.848.848L198 92.852l2.152 2.151.848-.848-2.152-2.152L201 89.852l-.848-.849L198 91.155z" style="color:#e74c3c;fill:currentColor;fill-opacity:1;stroke:none;stroke-width:1.19999874" transform="translate(-182 -76)"/></svg>