<svg xmlns="http://www.w3.org/2000/svg" viewBox="0 0 22 22"><path d="M11 3a8 8 0 0 0-8 8h1a7 7 0 0 1 7-7 7 7 0 0 1 7 7 7 7 0 0 1-.035.557q.505.25.937.603A8 8 0 0 0 19 11a8 8 0 0 0-8-8m0 3-4 4h2v5h1.85A4.99 4.99 0 0 1 13 11.854V10h2zm-8 7v4h1v-2.195A8 8 0 0 0 11 19a8 8 0 0 0 .674-.047 5 5 0 0 1-.541-.963L11 18a7 7 0 0 1-6.31-4H7v-1H3" style="color:#fcfcfc;paint-order:markers fill stroke"/><path fill="currentColor" d="M16 12c-2.216 0-4 1.784-4 4s1.784 4 4 4 4-1.784 4-4-1.784-4-4-4" color="#3daee9"/><path fill="#fff" d="M15.95 13.004a3 3 0 0 0-1.684.555l.718.718a2 2 0 0 1 2.43.309 2 2 0 0 1 .307 2.428l.724.724a3 3 0 0 0-.324-3.86 3 3 0 0 0-2.172-.874m-2.395 1.258a3 3 0 0 0 .324 3.86 3 3 0 0 0 3.855.32l-.718-.72a2 2 0 0 1-2.43-.308 2 2 0 0 1-.307-2.428z"/></svg>