<svg xmlns="http://www.w3.org/2000/svg" xmlns:xlink="http://www.w3.org/1999/xlink" xml:space="preserve" width="1499" height="1499" viewBox="0 0 1499 1499"><defs><radialGradient xlink:href="#a" id="m" cx="253.547" cy="733.103" r="555.852" fx="253.547" fy="733.103" gradientTransform="rotate(19.094 1473.417 4707.133)scale(-1.67169 1.44136)" gradientUnits="userSpaceOnUse"/><radialGradient xlink:href="#a" id="l" cx="407.321" cy="665.453" r="555.852" fx="407.321" fy="665.453" gradientTransform="rotate(-77.187 190.018 1298.1)scale(1.94142 1.67393)" gradientUnits="userSpaceOnUse"/><radialGradient xlink:href="#a" id="k" cx="95.848" cy="1057.713" r="555.852" fx="95.848" fy="1057.713" gradientTransform="rotate(-165.852 845.49 -463.73)scale(2.08604 -1.79863)" gradientUnits="userSpaceOnUse"/><radialGradient xlink:href="#a" id="J" cx="127.121" cy="1626.281" r="262.235" fx="127.121" fy="1626.281" gradientTransform="rotate(15 7314.856 -183.397)scale(4.63934 1.92832)" gradientUnits="userSpaceOnUse"/><radialGradient xlink:href="#a" id="I" cx="154.502" cy="1363.123" r="271.876" fx="154.502" fy="1363.123" gradientTransform="rotate(8.682 11928.784 -1609.421)scale(5.4858 1.90811)" gradientUnits="userSpaceOnUse"/><radialGradient xlink:href="#b" id="D" cx="477.669" cy="1339.801" r="214.099" fx="477.669" fy="1339.801" gradientTransform="rotate(-6.318 -14259.77 2719.103)scale(3.14737 1.88872)" gradientUnits="userSpaceOnUse"/><radialGradient xlink:href="#a" id="E" cx="720.609" cy="975.703" r="103.089" fx="720.609" fy="975.703" gradientTransform="rotate(53.682 2832.72 936.167)scale(2.15211 2.21964)" gradientUnits="userSpaceOnUse"/><radialGradient xlink:href="#a" id="G" cx="975.996" cy="1145.472" r="161.056" fx="975.996" fy="1145.472" gradientTransform="rotate(248.682 3843.532 4071.31)scale(8.24404 2.76781)" gradientUnits="userSpaceOnUse"/><radialGradient xlink:href="#a" id="F" cx="652.975" cy="1128.949" r="115.377" fx="652.975" fy="1128.949" gradientTransform="rotate(8.682 32448.663 -27169.524)scale(8.47201 4.58563)" gradientUnits="userSpaceOnUse"/><radialGradient xlink:href="#c" id="H" cx="154.502" cy="1363.123" r="271.876" fx="154.502" fy="1363.123" gradientTransform="matrix(5.60754 1.22092 -.46769 1.86151 118.883 -1850.118)" gradientUnits="userSpaceOnUse"/><radialGradient xlink:href="#b" id="w" cx="369.596" cy="671.186" r="49.315" fx="369.596" fy="671.186" gradientTransform="rotate(-21.318 -6178.328 6209.46)scale(5.43124 5.86622)" gradientUnits="userSpaceOnUse"/><radialGradient xlink:href="#d" id="A" cx="603.808" cy="1598.501" r="135.304" fx="603.808" fy="1598.501" gradientTransform="rotate(135 2104.605 2653.055)scale(3.10399 2.9623)" gradientUnits="userSpaceOnUse"/><radialGradient xlink:href="#b" id="C" cx="440.395" cy="684.076" r="49.315" fx="440.396" fy="684.076" gradientTransform="rotate(-21.318 -6237.84 7156.357)scale(5.47424 5.86621)" gradientUnits="userSpaceOnUse"/><radialGradient xlink:href="#d" id="y" cx="986.963" cy="1777.223" r="95.106" fx="986.963" fy="1777.223" gradientTransform="matrix(2.93202 .77015 -1.3822 2.39405 639.535 -3644.943)" gradientUnits="userSpaceOnUse"/><radialGradient xlink:href="#d" id="z" cx="706.328" cy="1884.481" r="71.243" fx="706.328" fy="1884.481" gradientTransform="matrix(3.13412 .82323 -1.20244 2.08268 785.674 -3167.38)" gradientUnits="userSpaceOnUse"/><radialGradient xlink:href="#d" id="B" cx="952.012" cy="1875.686" r="93.381" fx="952.012" fy="1875.686" gradientTransform="matrix(3.7021 -3.23526 2.38881 2.38881 -6979.727 11.396)" gradientUnits="userSpaceOnUse"/><radialGradient xlink:href="#a" id="n" cx="698.485" cy="642.833" r="555.852" fx="698.485" fy="642.833" gradientTransform="rotate(-77.187 569.941 1335.597)scale(1.94142 1.67393)" gradientUnits="userSpaceOnUse"/><radialGradient xlink:href="#a" id="q" cx="253.547" cy="733.103" r="555.852" fx="253.547" fy="733.103" gradientTransform="rotate(160.654 637.114 -192.022)scale(1.67169 -1.44136)" gradientUnits="userSpaceOnUse"/><radialGradient xlink:href="#a" id="o" cx="373.102" cy="255.381" r="555.852" fx="373.102" fy="255.381" gradientTransform="rotate(-94.715 623.049 1250.576)scale(1.94142 1.67393)" gradientUnits="userSpaceOnUse"/><radialGradient xlink:href="#e" id="x" cx="576.412" cy="1546.889" r="251.976" fx="576.412" fy="1546.889" gradientTransform="rotate(20.613 12509.571 -699.597)scale(3.4943 3.17217)" gradientUnits="userSpaceOnUse"/><radialGradient xlink:href="#a" id="r" cx="95.848" cy="1057.713" r="555.852" fx="95.848" fy="1057.713" gradientTransform="rotate(-178.986 646.134 -341.157)scale(1.73408 -1.49516)" gradientUnits="userSpaceOnUse"/><radialGradient xlink:href="#a" id="p" cx="407.321" cy="665.453" r="555.852" fx="407.321" fy="665.453" gradientTransform="rotate(7.348 5209.153 9709.062)scale(-1.61385 1.3915)" gradientUnits="userSpaceOnUse"/><radialGradient xlink:href="#a" id="s" cx="253.547" cy="733.103" r="555.852" fx="253.547" fy="733.103" gradientTransform="rotate(5.96 3026.58 11994.51)scale(-1.38963 1.19817)" gradientUnits="userSpaceOnUse"/><radialGradient xlink:href="#f" id="t" cx="698.485" cy="642.833" r="555.852" fx="698.485" fy="642.833" gradientTransform="rotate(-90.321 639.63 1045.338)scale(1.61385 1.3915)" gradientUnits="userSpaceOnUse"/><radialGradient xlink:href="#a" id="u" cx="373.102" cy="255.381" r="555.852" fx="373.102" fy="255.381" gradientTransform="rotate(252.15 658.82 1007.64)scale(1.61385 1.3915)" gradientUnits="userSpaceOnUse"/><radialGradient xlink:href="#a" id="v" cx="253.547" cy="733.103" r="555.852" fx="253.547" fy="733.103" gradientTransform="rotate(147.52 482.818 -107.565)scale(1.38963 -1.19817)" gradientUnits="userSpaceOnUse"/><radialGradient xlink:href="#d" id="h" cx="986.963" cy="1777.223" r="95.106" fx="986.963" fy="1777.223" gradientTransform="matrix(2.84342 .38882 -1.96866 2.57382 1838.85 -3679.124)" gradientUnits="userSpaceOnUse"/><radialGradient xlink:href="#d" id="i" cx="706.328" cy="1884.481" r="71.243" fx="706.328" fy="1884.481" gradientTransform="matrix(3.03942 .41563 -1.71262 2.23906 1880.504 -3220.567)" gradientUnits="userSpaceOnUse"/><radialGradient xlink:href="#d" id="g" cx="603.808" cy="1598.501" r="135.304" fx="603.808" fy="1598.501" gradientTransform="rotate(130.043 2239.49 2614.542)scale(3.10399 2.9623)" gradientUnits="userSpaceOnUse"/><radialGradient xlink:href="#d" id="j" cx="952.012" cy="1875.686" r="93.381" fx="952.012" fy="1875.686" gradientTransform="matrix(4.54898 -3.71674 1.9153 2.07813 -6839.318 968.14)" gradientUnits="userSpaceOnUse"/><linearGradient id="f"><stop offset="0" style="stop-color:#01aaf6;stop-opacity:1"/><stop offset="1" style="stop-color:#07f;stop-opacity:1"/></linearGradient><linearGradient id="e"><stop offset="0" style="stop-color:#00163c;stop-opacity:1"/><stop offset="1" style="stop-color:#000;stop-opacity:1"/></linearGradient><linearGradient id="d"><stop offset="0" style="stop-color:#000;stop-opacity:1"/><stop offset="1" style="stop-color:#2d2d2d;stop-opacity:1"/></linearGradient><linearGradient id="b"><stop offset="0" style="stop-color:#019cf6;stop-opacity:1"/><stop offset="1" style="stop-color:#0055c7;stop-opacity:1"/></linearGradient><linearGradient id="c"><stop offset="0" style="stop-color:#002463;stop-opacity:1"/><stop offset="1" style="stop-color:#07f;stop-opacity:1"/></linearGradient><linearGradient id="a"><stop offset="0" style="stop-color:#01d9f6;stop-opacity:1"/><stop offset="1" style="stop-color:#07f;stop-opacity:1"/></linearGradient><filter id="K" width="1.071" height="1.074" x="-.037" y="-.038" style="color-interpolation-filters:sRGB"><feGaussianBlur stdDeviation="18.97"/></filter></defs><path d="M834.811 956.844s7.04 62.018 44.393 134.747 61.859 122.91 62.513 141.717c.655 18.807 31.648 28.502 31.648 28.502l34.211 10.377s-14.56-8.997-34.51-42.907-62.537-121.894-73.678-155.793-26.675-76.612-35.29-97.801-29.287-18.842-29.287-18.842" style="fill:url(#g);fill-opacity:1;stroke:none;stroke-width:0;stroke-linecap:round;stroke-linejoin:round;stroke-dasharray:none" transform="translate(-26.954 -26.967)scale(1.036)"/><path d="M966.543 1229.662c-56.242-9.162-46.648 26.152-6.905 29.628 26.234 2.295 54.696 7.026 76.5 7.815 21.804.788 30.039.77 51.627-6.24 16.533-5.367 28.177 17.892 28.177 17.892s-6.591-45.46-44.642-36.962c-38.051 8.499-46.43-3.876-55.84-5.676s-48.917-6.457-48.917-6.457" style="fill:url(#h);fill-opacity:1;stroke:none;stroke-width:0;stroke-linecap:round;stroke-linejoin:round;stroke-dasharray:none" transform="translate(-26.954 -26.967)scale(1.036)"/><path d="M948.951 1261.18c-23.886 2.75-87.442 7.76-101.072 1.63-10.438-4.694-51.047 19.867-51.047 19.867s62.71-47.188 91.475-40.355c28.764 6.832 46.28-21.059 56.961-21.053 21.589.012 69.108 32.378 3.683 39.91" style="fill:url(#i);fill-opacity:1;stroke:none;stroke-width:0;stroke-linecap:round;stroke-linejoin:round;stroke-dasharray:none" transform="translate(-26.954 -26.967)scale(1.036)"/><path d="M969.89 1239.074c-51.628-14.858-46.944 23.256-10.095 30.595 24.323 4.844 50.439 12.463 70.791 15.31 20.354 2.848 28.079 3.588 49.182-1.804 16.162-4.13 24.24 21.466 24.24 21.466s-.627-48.534-37.352-43.092c-36.725 5.441-43.072-8.378-51.677-11.146-8.606-2.768-45.089-11.33-45.089-11.33" style="fill:url(#j);fill-opacity:1;stroke:none;stroke-width:0;stroke-linecap:round;stroke-linejoin:round;stroke-dasharray:none" transform="translate(-26.954 -26.967)scale(1.036)"/><path d="M474.683 696.365C458.75 642.671 208.576 249.903 100.985 108.06c32.83 9.045 67.487 9.85 99.67 4.637 140.452 183.065 371.598 659.547 375.61 666.734" style="baseline-shift:baseline;display:inline;overflow:visible;fill:url(#k);stroke:#7adfff;stroke-width:0;stroke-miterlimit:10;enable-background:accumulate;stop-color:#000" transform="translate(-26.954 -26.967)scale(1.036)"/><path d="M596.222 705.86c-37.817-35.874-258.063-409.128-330.326-558.228-6.35 31.05-20.306 60.138-38.21 84.634 92.592 193.754 331.472 541.587 335.74 547.948" style="baseline-shift:baseline;display:inline;overflow:visible;fill:url(#l);stroke:#7adfff;stroke-width:0;stroke-miterlimit:10;enable-background:accumulate;stop-color:#000" transform="translate(-26.954 -26.967)scale(1.036)"/><path d="M502.156 762.303c-9.011-43.97-200.915-330.034-277.014-450.712 25.587 9.49 53.2 12.526 79.254 10.588 99.487 155.86 278.765 528.812 281.472 534.827" style="baseline-shift:baseline;display:inline;overflow:visible;fill:url(#m);stroke:#7adfff;stroke-width:0;stroke-miterlimit:10;enable-background:accumulate;stop-color:#000" transform="translate(-26.954 -26.967)scale(1.036)"/><path d="M639.298 754.756c-37.817-35.874-42.034-58.38-114.296-207.48-6.35 31.05-20.307 60.138-38.21 84.634 92.591 193.754 115.442 190.839 119.71 197.2" style="baseline-shift:baseline;display:inline;overflow:visible;fill:url(#n);stroke:#7adfff;stroke-width:0;stroke-miterlimit:10;enable-background:accumulate;stop-color:#000" transform="translate(-26.954 -26.967)scale(1.036)"/><path d="M603.35 721.754c-46.865-22.818-57.664-43.01-171.477-163.423 3.296 31.521-1.251 63.461-10.946 92.212 146.646 156.872 167.558 147.21 173.544 151.99" style="baseline-shift:baseline;display:inline;overflow:visible;fill:url(#o);stroke:#7adfff;stroke-width:0;stroke-miterlimit:10;enable-background:accumulate;stop-color:#000" transform="translate(-26.954 -26.967)scale(1.036)"/><path d="M411.358 610.804C394.199 571.016 166.036 292.208 70.39 193.101c26.05 3.94 52.746 1.384 76.991-5.569 124.666 127.765 327.654 413.83 331.395 418.983" style="baseline-shift:baseline;display:inline;overflow:visible;fill:url(#p);stroke:#7adfff;stroke-width:0;stroke-miterlimit:10;enable-background:accumulate;stop-color:#000" transform="translate(-26.954 -26.967)scale(1.036)"/><path d="M523.693 742.584c-34.394-28.837 24.717 6.828-109.914-40.383 25.94-8.475 49.457-23.263 68.66-40.98 174.821 60.228 88.82 41.93 94.68 44.958" style="baseline-shift:baseline;display:inline;overflow:visible;fill:url(#q);stroke:#7adfff;stroke-width:0;stroke-miterlimit:10;enable-background:accumulate;stop-color:#000" transform="translate(-26.954 -26.967)scale(1.036)"/><path d="M507.612 711.339C484.57 670.88 207.857 400.179 93.965 305.677c28.286 1.12 56.493-4.775 81.561-15.073 148.28 121.666 425.404 463.73 430.01 468.79" style="baseline-shift:baseline;display:inline;overflow:visible;fill:url(#r);stroke:#7adfff;stroke-width:0;stroke-miterlimit:10;enable-background:accumulate;stop-color:#000" transform="translate(-26.954 -26.967)scale(1.036)"/><path d="M542.307 759.528c-15.6-33.893-224.988-229.221-309.388-312.54 22.506 2.85 45.434.092 66.159-6.398 109.979 107.38 325.557 375.432 328.885 379.79" style="baseline-shift:baseline;display:inline;overflow:visible;fill:url(#s);stroke:#7adfff;stroke-width:0;stroke-miterlimit:10;enable-background:accumulate;stop-color:#000" transform="translate(-26.954 -26.967)scale(1.036)"/><path d="M651.902 727.513c-37.39-21.897-45.055-39.32-131.718-146.371.724 26.336-5.08 52.52-14.945 75.732C616.793 796.234 634.74 789.557 639.398 793.9" style="baseline-shift:baseline;display:inline;overflow:visible;fill:url(#t);stroke:#7adfff;stroke-width:0;stroke-miterlimit:10;enable-background:accumulate;stop-color:#000" transform="translate(-26.954 -26.967)scale(1.036)"/><path d="M616.567 707.587c-42.249-9.619-54.805-23.924-169.685-99.905 8.622 24.895 10.974 51.61 8.557 76.717 148.346 99.292 163.45 87.52 169.199 90.26" style="baseline-shift:baseline;display:inline;overflow:visible;fill:url(#u);stroke:#7adfff;stroke-width:0;stroke-miterlimit:10;enable-background:accumulate;stop-color:#000" transform="translate(-26.954 -26.967)scale(1.036)"/><path d="M556.017 739.497c-33.29-16.848 21.299.858-96.607-11.93 19.4-11.76 35.643-28.174 47.841-46.143 152.9 15.734 79.824 17.165 85.14 18.51" style="baseline-shift:baseline;display:inline;overflow:visible;fill:url(#v);stroke:#7adfff;stroke-width:0;stroke-miterlimit:10;enable-background:accumulate;stop-color:#000" transform="translate(-26.954 -26.967)scale(1.036)"/><path d="m819.074 984.475 6.447 52.512s-18.78 34.214 14.685 34.27c33.464.055 52.216-3.984 64.694-17.378s-3.997-10.243-5.857-31.813 10.73-48.121 10.73-48.121l-21.015-37.046-33.992 8.675z" style="fill:url(#w);fill-opacity:1;stroke:none;stroke-width:0;stroke-linecap:round;stroke-linejoin:round;stroke-dasharray:none" transform="translate(-26.954 -26.967)scale(1.036)"/><path d="M1428.61 623.231s-16.322-26.441-52.621-28.506-43.67-4.059-59.647-10.982-38.155-27.734-107.031-37.492-76.031-11.572-146.588 6.669c-70.557 18.242-98.988 20.52-111.916 25.428-12.93 4.908-92.778 17.357-109.286 25.27-16.507 7.911 142.588 79.256 142.588 79.256l-6.356 150.637 66.402 116.942s47.19-19.22 83.837-53.265c36.648-34.044 24.293-48.552 24.293-48.552s85.55-99.264 126.77-150.181c13.114-16.2 10.42-31.003 28.682-46.323 19.536-16.39 19.981-15.347 37.536-17.725s43.114-11.115 56.9-12.207 26.437 1.031 26.437 1.031" style="fill:url(#x);stroke:none;stroke-width:0;stroke-linecap:round;stroke-linejoin:round;stroke-dasharray:none" transform="translate(-26.954 -26.967)scale(1.036)"/><path d="M885.724 1295.861c-58.33-16.748-40.69 20.86-.154 29.608 26.757 5.775 56.296 14.347 78.28 17.996 21.984 3.647 30.214 4.699 50.206.29 15.31-3.376 32.253 22.086 32.253 22.086s-16.95-47.665-53.064-43.863-47.313-10.03-57.133-13.106c-9.82-3.078-50.388-13.01-50.388-13.01" style="fill:url(#y);fill-opacity:1;stroke:none;stroke-width:0;stroke-linecap:round;stroke-linejoin:round;stroke-dasharray:none" transform="translate(-26.954 -26.967)scale(1.036)"/><path d="M875.313 1326.024c-23.26-.275-85.673-3.38-100.7-11.465-11.508-6.191-46.52 13.817-46.52 13.817s51.958-40.431 82.28-29.655c30.32 10.776 41.482-15.664 52.163-14.268 21.592 2.82 76.485 42.325 12.777 41.571" style="fill:url(#z);fill-opacity:1;stroke:none;stroke-width:0;stroke-linecap:round;stroke-linejoin:round;stroke-dasharray:none" transform="translate(-26.954 -26.967)scale(1.036)"/><path d="M780.274 1002.791s1.654 62.395 32.584 138.08 51.006 127.795 50.033 146.588 29.067 31.13 29.067 31.13l33.186 13.295s-13.727-10.222-30.673-45.729-51.77-126.841-59.94-161.576-19.956-78.631-26.707-100.485-27.55-21.303-27.55-21.303" style="fill:url(#A);fill-opacity:1;stroke:none;stroke-width:0;stroke-linecap:round;stroke-linejoin:round;stroke-dasharray:none" transform="translate(-26.954 -26.967)scale(1.036)"/><path d="M891.215 1305.987c-55.013-22.013-41.645 17.84-3.124 30.189 25.427 8.151 53.279 19.392 74.28 24.971 21.002 5.579 28.897 7.346 48.771 4.539 15.22-2.15 29.131 25.254 29.131 25.254s-11.686-50.054-47.17-49.227c-35.486.827-44.982-14.228-54.218-18.197s-47.67-17.53-47.67-17.53" style="fill:url(#B);fill-opacity:1;stroke:none;stroke-width:0;stroke-linecap:round;stroke-linejoin:round;stroke-dasharray:none" transform="translate(-26.954 -26.967)scale(1.036)"/><path d="m781.323 981.973-29.552 52.789s-21.075 32.85 12.307 35.193c33.382 2.344 52.366-.403 65.731-12.912s-3.287-10.493-3.668-32.139c-.38-21.646 13.995-47.275 13.995-47.275l-18.431-38.396-34.506 6.33z" style="fill:url(#C);fill-opacity:1;stroke:none;stroke-width:0;stroke-linecap:round;stroke-linejoin:round;stroke-dasharray:none" transform="translate(-26.954 -26.967)scale(1.036)"/><path d="M544.677 797.922c47.885 193.131 271.187 228.806 454.972 171.356 42.504-13.286 51.362-21.446 70.71-32.054 28.7-15.736-27.728-43.403-28.254-78.558-.547-36.548 52.783-99.761 21.321-125.595-31.462-25.833-197.29-36.459-278.484-27.111-81.196 9.347-156.186 6.923-197.358 25.783s-51.939 29.75-42.907 66.179" style="fill:url(#D);stroke:none;stroke-width:0;stroke-linecap:round;stroke-linejoin:round;stroke-dasharray:none" transform="translate(-26.954 -26.967)scale(1.036)"/><path d="M1290.102 622.955c11.664 9.152 5.624 49.713-5.958 68.317-11.581 18.605-16.17 20.45-39.602 51.83-23.433 31.38-77.528 106.69-100.295 136.841-25.686 34.015-66.122 18.525-65.805-21.643.16-20.057.403-60.97 7.4-82.215 6.996-21.244 5.975-28.669 19.696-46.584 13.72-17.914 31.415-40.913 61.027-54.148 29.611-13.234 83.175-33.73 103.355-41.075s9.672-5.679 20.182-11.323" style="fill:url(#E);stroke:none;stroke-width:0;stroke-linecap:round;stroke-linejoin:round;stroke-dasharray:none" transform="translate(-26.954 -26.967)scale(1.036)"/><path d="M1290.161 622.849c-19.214-2.976-43.32 1.876-60.217 12.773-21.759 10.649-49.825 9.764-69.154-5.725-11.178-8.213-15.15-24.93-29.503-28.816-28.64-1.561-57.562-9.582-86.2-3.688-49.144 9.288-24.554 90.844 37.575 133.292 16.396 10.63 20.339 15.193 27.432 10.004 38.473-28.149 57.665-38.522 128.524-72.64 36.55-17.6 43.709-28.507 51.543-45.2" style="fill:url(#F);stroke:none;stroke-width:0;stroke-linecap:round;stroke-linejoin:round;stroke-dasharray:none" transform="translate(-26.954 -26.967)scale(1.036)"/><path d="M1324.273 586.912c-12.233-31.323-35.24-57.853-62.06-77.696-23.668-16.446-53.672-14.767-81.162-16.123-51.671-.364-104.22 9.513-150.498 33.011-25.333 12.91-44.648 34.783-70.208 47.384-35.705 16.1 19.272 39.793 34.196 46.089 9.12 4.715 5.955-14.035 13.751-20.348 16.702-13.525 37.8-17.947 57.9-14.387 19.022 3.593 37.326-3.712 54.444-11.11 19.984-9.248 42.497-7.766 63.445-3.124 22.154 4.503 44.414 11.453 62.646 25.245 16.29 8.471 36.02 11.27 53.896 6.946 8.803-3.712 16.355-9.834 23.65-15.887" style="fill:url(#G);stroke:none;stroke-width:0;stroke-linecap:round;stroke-linejoin:round;stroke-dasharray:none" transform="translate(-26.954 -26.967)scale(1.036)"/><path d="M572.256 706.263s-25.134 10.145-49.794 37.346-41.064 32.612-63.74 50.495-45.774 35.017-79.158 54.782c-31.264 18.51-43.367 33.206-43.367 33.206s70.27-35.461 191.41-34.096 165.657 19.91 236.232 27.133c77.406 7.921 126.827-1.814 173.035-8.732 94.971-14.218 85.252-75.903 85.252-75.903s-39.223-75.42-80.989-98.826-204.06-26.147-204.06-26.147z" style="fill:url(#H);stroke:none;stroke-width:0;stroke-linecap:round;stroke-linejoin:round;stroke-dasharray:none" transform="translate(-26.954 -26.967)scale(1.036)"/><path d="M537.8 695.424s-23 11.843-44.124 40.638c-21.123 28.795-36.235 35.318-56.256 54.696s-40.504 38.04-70.527 60.032c-28.117 20.597-38.372 36.07-38.372 36.07s63.71-40.176 178.77-47.194 154.842-.681 222.413 1.63c74.11 2.536 172.042 2.164 226.354-7.632-14.048-69.01-14.867-98.526-14.867-98.526s-13.005-59.339-54.593-79.76c-41.588-20.423-195.813-11.928-195.813-11.928Z" style="fill:url(#I);stroke:none;stroke-width:0;stroke-linecap:round;stroke-linejoin:round;stroke-dasharray:none" transform="translate(-26.954 -26.967)scale(1.036)"/><path d="M611.325 945.24c15.578 24.775 39.29 44.323 56.457 68.1 9.607 15.344 27.807 39.262 32.075 52.684-20.905-9.225-31.499-4.15-40.128 7.184-11.36 17.066 3.326 47.006-24.816 52.308-28.515 9.947-59.495 8.34-89.345 7.894-1.14-66.25-109.615-146.543-186.273-144.62-143.729 3.607-195.6 61.574-196.829 49.237 123.128-126.912 271.93-130.826 410.36-119.53 14.887 1.214 30.57 14.132 38.499 26.742" style="fill:url(#J);stroke:none;stroke-width:0;stroke-linecap:round;stroke-linejoin:round;stroke-dasharray:none" transform="rotate(-6.318 -3914.204 -1179.835)scale(1.20114)"/><path d="M1193.318 577.208a41.87 41.87 0 0 0-23.654 3.374 30.54 30.54 0 0 0-7.19 15.395 30.536 30.536 0 0 0 25.575 34.794 30.536 30.536 0 0 0 34.797-25.575 30.5 30.5 0 0 0 .172-7.82 41.87 41.87 0 0 0-29.7-20.168" style="fill:#121212;fill-opacity:1;stroke:none;stroke-width:0;stroke-linecap:round;stroke-linejoin:round;stroke-dasharray:none" transform="translate(-26.954 -26.967)scale(1.036)"/><path d="M1193.276 580.57a36.53 36.53 0 0 0-20.637 2.943 26.64 26.64 0 0 0-6.274 13.431 26.64 26.64 0 0 0 22.314 30.356 26.64 26.64 0 0 0 30.358-22.312 26.6 26.6 0 0 0 .15-6.822 36.53 36.53 0 0 0-25.911-17.597" style="fill:#000;fill-opacity:1;stroke:none;stroke-width:0;stroke-linecap:round;stroke-linejoin:round;stroke-dasharray:none" transform="translate(-26.954 -26.967)scale(1.036)"/><path d="M1211.874 593.192a10 10 0 0 0-5.66.807 7.3 7.3 0 0 0-1.72 3.684 7.307 7.307 0 0 0 6.12 8.326 7.307 7.307 0 0 0 8.325-6.12 7.3 7.3 0 0 0 .041-1.87 10.02 10.02 0 0 0-7.106-4.827z" style="opacity:.600704;mix-blend-mode:normal;fill:#fff;fill-opacity:1;stroke:none;stroke-width:0;stroke-linecap:round;stroke-linejoin:round;stroke-dasharray:none" transform="translate(-26.954 -26.967)scale(1.036)"/><g style="stroke:#000;stroke-width:3;stroke-dasharray:none;stroke-opacity:1;filter:url(#K)" transform="translate(-921.89 373.138)scale(1.036)"><path d="M1759.965 675.661c-7.019 4.214-15.664 6.804-26.685 8.233a460 460 0 0 0 10.476 21.793c31.85 62.013 54.358 107.632 60.705 131.388 1.954-1.068 3.735-1.712 5.358-1.71 7.293.003 17.546 3.7 25.404 8.884l3.137.377q-.37-.62-.742-1.252c-19.95-33.91-62.538-121.894-73.678-155.793a1534 1534 0 0 0-3.975-11.92" style="fill:none;stroke:#000;stroke-width:3;stroke-linecap:round;stroke-linejoin:round;stroke-dasharray:none;stroke-opacity:1"/><path d="M1835.223 844.25c5.242 3.458 9.42 7.578 10.94 11.706 11.457 2.753 27.945 6.797 33.367 8.541 8.605 2.768 14.952 16.588 51.677 11.147 5.951-.882 10.954-.347 15.16 1.17a244 244 0 0 0 5.95-1.854c16.533-5.367 28.175 17.89 28.175 17.89s-6.591-45.459-44.642-36.96c-38.05 8.498-46.43-3.876-55.84-5.676-7.541-1.443-34.411-4.72-44.787-5.965" style="fill:none;stroke:#000;stroke-width:3;stroke-linecap:round;stroke-linejoin:round;stroke-dasharray:none;stroke-opacity:1"/><path d="M1809.819 835.364c-10.68-.006-28.197 27.886-56.961 21.053-3.734-.887-8.04-.863-12.707-.15a1207 1207 0 0 0 9.691 23.449c19.282-.439 41.364-2.156 56.096-3.633-13.749-9.986-13.805-24.986 5.242-26.238a43 43 0 0 1 4.754-.035c5.1.227 11.247 1.27 18.508 3.359 0 0 4.993 1.17 11.72 2.787-3.798-10.316-24.184-20.585-36.343-20.592m-90.946 27.395c-27.865 11.722-57.49 34.014-57.49 34.014s40.609-24.562 51.047-19.868c2.404 1.082 6.363 1.816 11.383 2.278-1.316-4.915-2.971-10.397-4.94-16.424" style="fill:none;stroke:#000;stroke-width:3;stroke-linecap:round;stroke-linejoin:round;stroke-dasharray:none;stroke-opacity:1"/><path d="M1815.934 849.81a43 43 0 0 0-4.754.035c-25.48 1.676-16.774 27.955 13.166 33.918 24.324 4.844 50.438 12.463 70.791 15.31s28.078 3.59 49.182-1.802c16.161-4.13 24.24 21.464 24.24 21.464s-.626-48.533-37.352-43.091c-36.725 5.441-43.072-8.38-51.677-11.147-8.606-2.767-45.088-11.328-45.088-11.328-7.26-2.09-13.408-3.132-18.508-3.36" style="fill:none;stroke:#000;stroke-width:3;stroke-linecap:round;stroke-linejoin:round;stroke-dasharray:none;stroke-opacity:1"/><path d="M965.535-277.845c23.955 31.581 54.979 75.6 88.91 125.545 23.508 26.637 48.417 56.486 73.366 87.389 3.776.509 7.558.902 11.336 1.185-17.84-32.114-33.834-62.55-46.91-89.914 9.914-13.565 18.617-28.538 25.49-44.472-18.41-28.235-36.086-53.674-52.522-75.096-32.182 5.213-66.838 4.408-99.67-4.637z" style="baseline-shift:baseline;display:inline;overflow:visible;fill:none;stroke:#000;stroke-width:3;stroke-miterlimit:10;stroke-dasharray:none;stroke-opacity:1;enable-background:accumulate;stop-color:#000"/><path d="M1130.448-238.274c-6.351 31.05-20.308 60.138-38.211 84.634 13.076 27.364 29.07 57.8 46.91 89.914 10.027.753 20.023.728 29.8 0 32.195 50.437 72.746 123.608 112.964 199.721 36.1 49.006 60.15 82.873 61.415 84.615l-1.558.1 1.664 1.934c4.861 5.239 9.455 10.201 13.808 14.906 8.085-12.15 15.18-25.273 20.89-39.088-82.048-132.177-198.768-335.81-247.682-436.736z" style="baseline-shift:baseline;display:inline;overflow:visible;fill:none;stroke:#000;stroke-width:3;stroke-miterlimit:10;stroke-dasharray:none;stroke-opacity:1;enable-background:accumulate;stop-color:#000"/><path d="M1127.81-64.911c56.429 69.896 113.054 145.187 154.1 200.906-40.218-76.113-80.768-149.284-112.962-199.72-13.462 1-27.338.673-41.137-1.186zm225.018 409.422q.456.868.899 1.719.761-.759 1.525-1.512zM1389.553 161.37c-5.635 27.55-17.258 53.556-32.312 76.18 6.47 6.993 12.409 13.417 17.902 19.336 6.552-19.48 10.173-40.515 9.592-61.649 21.656 26.752 38.38 47.906 51.867 64.932-11.815-25.01-26.746-56.907-47.049-98.799z" style="baseline-shift:baseline;display:inline;overflow:visible;fill:none;stroke:#000;stroke-width:3;stroke-miterlimit:10;stroke-dasharray:none;stroke-opacity:1;enable-background:accumulate;stop-color:#000"/><path d="M1343.432 222.644a8029 8029 0 0 1 31.006 36.298q.358-1.025.705-2.056c-9.189-9.901-19.624-21.216-31.711-34.242zm-53.043 25.437a234 234 0 0 1-4.91 16.557 2721 2721 0 0 0 31.726 33.396 193 193 0 0 0 2.998-1.904c.494-5.871.725-11.824.676-17.815a5030 5030 0 0 0-30.49-30.234zM1011.932-198.374c-24.245 6.952-50.94 9.509-76.99 5.568 24.09 24.962 56.586 61.323 92 102.393a209 209 0 0 0 13.135-4.889c83.586 68.585 208.115 207.204 301.69 316.012l1.56-.1c-3.741-5.153-206.73-291.22-331.395-418.984z" style="baseline-shift:baseline;display:inline;overflow:visible;fill:none;stroke:#000;stroke-width:3;stroke-miterlimit:10;stroke-dasharray:none;stroke-opacity:1;enable-background:accumulate;stop-color:#000"/><path d="M1320.203 296.13c-12.923 8.372-26.999 15.307-41.873 20.166 24.508 8.594 42.596 14.441 55.997 18.432 6.293-4.62 12.19-9.727 17.654-15.194a2261 2261 0 0 1-31.99-21.04q.114-1.18.212-2.364zM1040.076-95.302c-25.068 10.3-53.274 16.195-81.56 15.075 38.929 32.3 96.879 85.188 157.22 142.43 16.458-.03 32.762-2.78 47.893-7.518 42.932 41.917 101.955 108.317 158.162 173.959 20.158 13.395 36.935 24.73 51.176 34.367q.757-2.022 1.47-4.069c-95.318-112.252-240.598-277.31-334.36-354.244z" style="baseline-shift:baseline;display:inline;overflow:visible;fill:none;stroke:#000;stroke-width:3;stroke-miterlimit:10;stroke-dasharray:none;stroke-opacity:1;enable-background:accumulate;stop-color:#000"/><path d="M1163.63 54.685c-20.726 6.49-43.653 9.247-66.159 6.398 51.911 51.246 151.104 144.865 223.408 217.233-.153-18.922-3.103-38.223-9.447-56.54q5.323 3.521 10.36 6.868c-56.208-65.642-115.231-132.042-158.163-173.96ZM1384.735 195.237c.642 23.368-3.854 46.615-11.768 67.774 18.787 12.713 33.158 22.473 45.047 30.113a437 437 0 0 1 29.994-18.586c-15.22-19.099-35.06-44.45-63.273-79.3z" style="baseline-shift:baseline;display:inline;overflow:visible;fill:none;stroke:#000;stroke-width:3;stroke-miterlimit:10;stroke-dasharray:none;stroke-opacity:1;enable-background:accumulate;stop-color:#000"/><path d="M1311.432 221.776c8.622 24.895 10.976 51.611 8.559 76.717a2261 2261 0 0 0 31.99 21.041c7.441-7.445 14.08-15.558 19.822-24.015 14.198 1.46 26.448 2.797 36.992 4.023a434 434 0 0 1 9.219-6.418c-22.403-14.396-53.617-36.317-106.582-71.348z" style="baseline-shift:baseline;display:inline;overflow:visible;fill:none;stroke:#000;stroke-width:3;stroke-miterlimit:10;stroke-dasharray:none;stroke-opacity:1;enable-background:accumulate;stop-color:#000"/><path d="M1371.803 295.519c-12.198 17.968-28.443 34.382-47.842 46.142 12.174 1.32 22.509 2.315 31.291 3.057 17.245-17.025 35.131-32 53.543-45.176-10.544-1.226-22.794-2.562-36.992-4.023z" style="baseline-shift:baseline;display:inline;overflow:visible;fill:none;stroke:#000;stroke-width:3;stroke-miterlimit:10;stroke-dasharray:none;stroke-opacity:1;enable-background:accumulate;stop-color:#000"/><path d="M1768.18 604.27c-23.766 2.981-47.578 4.352-71.023 3.987-3.409 8.965-6.649 20.316-6.465 30.742.38 21.646 17.033 19.63 3.668 32.139a43.3 43.3 0 0 1-7.992 5.937c2.343 4.758 7.702 8.258 18.388 8.276 33.465.056 52.217-3.983 64.695-17.377 12.479-13.394-3.997-10.243-5.857-31.813-.921-10.685 1.703-22.593 4.586-31.89M2016.55 181.056c-10.746.205-21.37 2.147-31.362 6.771-17.118 7.399-35.422 14.702-54.444 11.11-20.1-3.56-41.198.861-57.9 14.386-7.796 6.314-4.631 25.063-13.752 20.348-13.75-5.8-61.5-26.368-41.002-42.16q-1.471.453-2.732.931c-5.977 2.27-26.259 6.15-47.971 10.45l2.85-.084c17.308-.5 37.029 12.384 47.775 25.904 21.114 26.563 50.932 46.065 73.748 71.275 13.028 16.455 37.052 41.695 43.684 56.618l-.16-.051c13.466 29.533-29.116 83.529-28.627 116.207.524 35.014 56.472 62.595 28.566 78.363 16.74-9.062 37.937-21.836 57.32-39.842 4.12-3.826 7.618-7.406 10.586-10.746-25.548 25.196-60.43 9.178-60.135-28.14.16-20.058.402-60.971 7.399-82.215 5.358-16.269 6.014-24.433 12.19-35.41-3.67-2.043-8.393-5.47-15.37-9.993-62.129-42.447-86.718-124.003-37.574-133.29 7.16-1.474 14.335-2.077 21.522-2.13 21.558-.157 43.197 4.646 64.677 5.817 14.353 3.887 18.326 20.602 29.504 28.816 19.329 15.49 47.393 16.374 69.152 5.725 16.896-10.896 41.005-15.749 60.22-12.774l-.054.114c9.125 7.175 7.404 33.589.668 53.644 3.408-8.205 7.175-16.264 16.96-24.472 19.535-16.39 19.981-15.349 37.536-17.727s43.115-11.115 56.9-12.207c13.786-1.092 26.436 1.031 26.436 1.031s-16.321-26.44-52.62-28.506c-29.898-1.7-40.17-3.352-51.79-7.75-7.271 6.033-14.803 12.125-23.576 15.825-17.876 4.323-37.606 1.524-53.897-6.948-18.232-13.791-40.491-20.74-62.644-25.244-10.474-2.32-21.34-3.852-32.084-3.646zm36.495 9.812a42 42 0 0 1 4.824.434 41.87 41.87 0 0 1 29.7 20.17 30.5 30.5 0 0 1-.172 7.818 30.536 30.536 0 0 1-34.797 25.574 30.536 30.536 0 0 1-25.574-34.793 30.54 30.54 0 0 1 7.19-15.394 41.9 41.9 0 0 1 18.83-3.809M1765.996 913.853c2.663 4.82 5.192 8.985 7.537 12.566 11.376 4.095 24.909 9.045 29.903 11.191 9.236 3.97 18.732 19.024 54.217 18.198 5.75-.134 10.877 1.068 15.43 3.177 1.746-.328 3.58-.705 5.525-1.134 15.31-3.376 32.252 22.084 32.252 22.084s-16.95-47.663-53.065-43.862c-36.114 3.802-47.313-10.03-57.133-13.107-5.766-1.807-22.134-5.978-34.666-9.113M1726.084 898.495c-10.394.272-21.786 24.76-51.16 14.32-30.32-10.776-82.281 29.655-82.281 29.655s35.013-20.008 46.521-13.817c13.639 7.338 66.312 10.574 93.319 11.315-15.197-11.448-19.104-25.94-3.455-26.387a29 29 0 0 1 2.035.018c-2.382-3.612-3.849-7.653-3.621-12.045q.07-1.363-.01-2.957l-.348-.049a6.4 6.4 0 0 0-1.004-.053z" style="fill:none;stroke:#000;stroke-width:3;stroke-linecap:round;stroke-linejoin:round;stroke-dasharray:none;stroke-opacity:1"/><path d="M1683.815 678.439c-7.656 3.778-16.967 5.697-28.805 6.22 4.832 20.652 11.942 44.72 22.399 70.307 30.929 75.685 51.006 127.794 50.033 146.588-.228 4.392 1.24 8.433 3.62 12.045 5.849.25 13.976 2.19 24.704 6.482 0 0 8.106 2.86 17.768 6.338-4.32-6.595-9.262-15.169-14.512-26.17-16.946-35.507-51.77-126.841-59.94-161.576-4.477-19.038-10.041-40.83-15.267-60.234" style="fill:none;stroke:#000;stroke-width:3;stroke-linecap:round;stroke-linejoin:round;stroke-dasharray:none;stroke-opacity:1"/><path d="M1729.028 913.581c-21.223.607-6.48 27.042 23.615 36.69 25.427 8.151 53.277 19.391 74.28 24.97 21.001 5.579 28.896 7.347 48.77 4.54 15.221-2.15 29.132 25.253 29.132 25.253s-11.687-50.053-47.172-49.226-44.981-14.229-54.217-18.198c-9.236-3.968-47.67-17.529-47.67-17.529-12.034-4.815-20.796-6.67-26.738-6.5M1641.467 603.94l-25.144 44.917s-21.076 32.849 12.306 35.193 52.366-.403 65.73-12.912c13.366-12.51-3.287-10.493-3.667-32.139-.184-10.426 3.056-21.777 6.465-30.742-18.874-.294-37.508-1.71-55.69-4.316" style="fill:none;stroke:#000;stroke-width:3;stroke-linecap:round;stroke-linejoin:round;stroke-dasharray:none;stroke-opacity:1"/><path d="M1915.37 353.335c-12.15.514-19.422 6.953-25.252 16.668-5.727 11.08-2.736 25.33-3.188 37.773.447 12.811-3.534 60.443-85.504 72.715-46.208 6.918-95.631 16.654-173.037 8.733-63.247-6.472-105.563-22.038-200.855-26.184 71.82 148.066 270.411 172.302 436.665 120.332 42.505-13.286 51.362-21.445 70.71-32.053 28.701-15.736-27.726-43.403-28.252-78.558-.49-32.678 42.093-86.673 28.627-116.207-7.862-2.463-14.392-3.453-19.915-3.219" style="fill:none;stroke:#000;stroke-width:3;stroke-linecap:round;stroke-linejoin:round;stroke-dasharray:none;stroke-opacity:1"/><path d="M2154.66 237.056c-7.813 16.63-15.024 27.528-51.492 45.088-70.858 34.118-90.05 44.492-128.523 72.64-4.075 2.981-7.11 2.744-12.063-.013-6.175 10.977-6.831 19.141-12.19 35.41-6.996 21.244-7.239 62.157-7.398 82.215-.318 40.167 40.118 55.657 65.803 21.642 22.768-30.151 76.863-105.462 100.295-136.842s28.022-33.225 39.604-51.83c11.58-18.6 17.618-59.146 5.965-68.31" style="fill:none;stroke:#000;stroke-width:3;stroke-linecap:round;stroke-linejoin:round;stroke-dasharray:none;stroke-opacity:1"/><path d="M1931.16 209.358c-7.186.053-14.362.656-21.521 2.13-49.144 9.287-24.555 90.843 37.574 133.29 16.396 10.63 20.339 15.196 27.432 10.006 38.473-28.148 57.665-38.522 128.523-72.64 36.551-17.6 43.71-28.508 51.545-45.202-19.214-2.975-43.323 1.878-60.219 12.774-21.759 10.65-49.823 9.764-69.152-5.725-11.178-8.214-15.15-24.93-29.504-28.816-21.48-1.171-43.12-5.974-64.678-5.817" style="fill:none;stroke:#000;stroke-width:3;stroke-linecap:round;stroke-linejoin:round;stroke-dasharray:none;stroke-opacity:1"/><path d="M2045.602 107.187c-51.67-.364-104.22 9.513-150.498 33.011-25.334 12.91-44.648 34.784-70.207 47.385-35.705 16.1 19.272 39.792 34.195 46.088 9.121 4.715 5.956-14.034 13.752-20.348 16.701-13.525 37.8-17.946 57.9-14.386 19.022 3.592 37.326-3.711 54.444-11.11 19.983-9.248 42.497-7.767 63.445-3.125 22.153 4.504 44.413 11.453 62.645 25.244 16.29 8.472 36.02 11.271 53.896 6.948 8.804-3.712 16.356-9.834 23.65-15.887-12.233-31.324-35.24-57.853-62.06-77.695-23.667-16.447-53.672-14.77-81.162-16.125M1886.93 407.776c-.41 11.272-3.643 21.062-18.734 25.672-15.09 7.213-31.163 11.46-47.592 14.287 0 .008 0 .016.01.024-14.907 2.688-33.098 4.667-53.182 6.07l-1.184.113v-.03c-52.89 3.623-118.615 3.305-171.986 1.48-67.57-2.312-107.352-8.65-222.412-1.631-81.29 4.958-136.95 26.47-162.619 38.668 22.054-9.088 86.314-31.427 182.935-30.338 121.14 1.365 165.656 19.91 236.231 27.133 77.406 7.921 126.829-1.815 173.037-8.733 81.97-12.272 85.95-59.904 85.504-72.715z" style="fill:none;stroke:#000;stroke-width:3;stroke-linecap:round;stroke-linejoin:round;stroke-dasharray:none;stroke-opacity:1"/><path d="M1550.162 309.845c-5.83.064-11.52.46-17.025 1.209-156.202 21.272-211.528 88.091-219.603 83.39-3.716 3.14-7.54 6.515-11.563 10.409-20.021 19.377-40.504 38.04-70.527 60.033-28.117 20.596-38.371 36.07-38.371 36.07s63.709-40.177 178.77-47.195c115.06-7.019 154.84-.68 222.411 1.63 53.37 1.826 119.095 2.144 171.986-1.48-9.185-71.426-128.61-145.028-216.078-144.066m270.442 137.89c-17.575 3.025-35.555 4.424-53.176 6.094 20.084-1.403 38.275-3.381 53.182-6.07 0-.008 0-.015-.01-.024z" style="fill:none;stroke:#000;stroke-width:3;stroke-linecap:round;stroke-linejoin:round;stroke-dasharray:none;stroke-opacity:1"/><path d="M1770.237 202.808c-160.964 4.644-331.94 28.14-457.637 190.097 2.99 14.06 55.369-59.358 220.537-81.851 88.093-11.997 223.342 66.69 233.107 142.888 34.455-3.294 70.36-5.393 101.952-20.494 31.753-9.7 11.007-42.33 21.922-63.445 8.498-14.16 20.058-21.361 45.326-13.398-6.632-14.923-30.655-40.163-43.684-56.618-22.816-25.21-52.635-44.712-73.748-71.275-10.746-13.52-30.466-26.404-47.775-25.904M2053.045 190.868a41.9 41.9 0 0 0-18.83 3.809 30.54 30.54 0 0 0-7.19 15.394 30.536 30.536 0 0 0 25.575 34.793 30.536 30.536 0 0 0 34.797-25.574 30.5 30.5 0 0 0 .172-7.818 41.87 41.87 0 0 0-29.7-20.17 42 42 0 0 0-4.824-.434m.572 3.416a37 37 0 0 1 4.21.38 36.53 36.53 0 0 1 25.912 17.597 26.6 26.6 0 0 1-.15 6.822 26.64 26.64 0 0 1-30.36 22.313 26.64 26.64 0 0 1-22.313-30.358 26.64 26.64 0 0 1 6.274-13.43 36.5 36.5 0 0 1 16.427-3.324" style="fill:none;stroke:#000;stroke-width:3;stroke-linecap:round;stroke-linejoin:round;stroke-dasharray:none;stroke-opacity:1"/><path d="M2053.617 194.284a36.5 36.5 0 0 0-16.427 3.324 26.64 26.64 0 0 0-6.274 13.43 26.64 26.64 0 0 0 22.313 30.358 26.64 26.64 0 0 0 30.36-22.313 26.6 26.6 0 0 0 .15-6.822 36.53 36.53 0 0 0-25.913-17.598 37 37 0 0 0-4.209-.379m21.653 12.899a10 10 0 0 1 1.154.103 10.02 10.02 0 0 1 7.108 4.826 7.3 7.3 0 0 1-.041 1.871 7.307 7.307 0 0 1-8.326 6.12 7.307 7.307 0 0 1-6.12-8.325 7.3 7.3 0 0 1 1.721-3.683 10 10 0 0 1 4.504-.912" style="fill:none;stroke:#000;stroke-width:3;stroke-linecap:round;stroke-linejoin:round;stroke-dasharray:none;stroke-opacity:1"/><path d="M2075.27 207.183a10 10 0 0 0-4.504.912 7.3 7.3 0 0 0-1.72 3.683 7.307 7.307 0 0 0 6.118 8.325 7.307 7.307 0 0 0 8.326-6.12 7.3 7.3 0 0 0 .042-1.87 10.02 10.02 0 0 0-7.108-4.827 10 10 0 0 0-1.154-.103" style="opacity:.600704;fill:none;stroke:#000;stroke-width:3;stroke-linecap:round;stroke-linejoin:round;stroke-dasharray:none;stroke-opacity:1"/></g></svg>